<?xml version="1.0" encoding="UTF-8"?>
<!DOCTYPE svg PUBLIC "-//W3C//DTD SVG 1.1//EN" "http://www.w3.org/Graphics/SVG/1.1/DTD/svg11.dtd">
<svg xmlns="http://www.w3.org/2000/svg" version="1.1" width="600px" height="350px" style="shape-rendering:geometricPrecision; text-rendering:geometricPrecision; image-rendering:optimizeQuality; fill-rule:evenodd; clip-rule:evenodd" xmlns:xlink="http://www.w3.org/1999/xlink">
<g><path style="opacity:1" fill="#dedede" d="M 264.5,-0.5 C 268.167,-0.5 271.833,-0.5 275.5,-0.5C 303.848,-0.669686 332.181,1.33031 360.5,5.5C 360.631,6.23891 360.464,6.90558 360,7.5C 357.708,6.09218 355.541,6.25885 353.5,8C 357.388,10.7018 361.721,12.0351 366.5,12C 367.661,13.828 369.161,15.328 371,16.5C 374.991,17.3923 379.158,18.7257 383.5,20.5C 384.386,21.325 384.719,22.325 384.5,23.5C 388.022,24.3538 391.355,25.6871 394.5,27.5C 396.736,30.2909 399.402,32.6242 402.5,34.5C 404.563,36.561 406.23,38.8944 407.5,41.5C 409.793,42.2357 412.126,42.4024 414.5,42C 411.982,43.9638 409.316,44.6305 406.5,44C 408.972,45.093 410.972,46.7597 412.5,49C 411.906,49.4643 411.239,49.631 410.5,49.5C 393.031,38.767 374.364,30.767 354.5,25.5C 348.143,23.9401 341.81,22.2734 335.5,20.5C 336.978,20.762 338.311,20.4287 339.5,19.5C 312.179,8.73999 283.846,5.40666 254.5,9.5C 252.625,9.37006 250.792,9.03672 249,8.5C 247.112,9.77737 245.112,10.7774 243,11.5C 241.282,10.1498 239.448,8.98317 237.5,8C 239.919,7.70967 241.253,6.87634 241.5,5.5C 248.292,3.92351 255.292,2.75685 262.5,2C 263.056,1.61742 263.389,1.11742 263.5,0.5C 264.167,0.5 264.5,0.166667 264.5,-0.5 Z"/></g>
<g><path style="opacity:1" fill="#9b9b9b" d="M 275.5,-0.5 C 295.5,-0.5 315.5,-0.5 335.5,-0.5C 355.56,2.01046 375.227,6.34379 394.5,12.5C 383.288,9.86607 371.954,7.53273 360.5,5.5C 332.181,1.33031 303.848,-0.669686 275.5,-0.5 Z"/></g>
<g><path style="opacity:1" fill="#a5a5a5" d="M 263.5,0.5 C 263.389,1.11742 263.056,1.61742 262.5,2C 255.292,2.75685 248.292,3.92351 241.5,5.5C 233.847,6.66423 226.18,7.66423 218.5,8.5C 233.106,4.31487 248.106,1.6482 263.5,0.5 Z"/></g>
<g><path style="opacity:1" fill="#e8e8e8" d="M 241.5,5.5 C 241.253,6.87634 239.919,7.70967 237.5,8C 239.448,8.98317 241.282,10.1498 243,11.5C 245.112,10.7774 247.112,9.77737 249,8.5C 250.792,9.03672 252.625,9.37006 254.5,9.5C 283.846,5.40666 312.179,8.73999 339.5,19.5C 338.311,20.4287 336.978,20.762 335.5,20.5C 319.638,17.9035 303.638,16.9035 287.5,17.5C 294.989,16.671 302.656,16.171 310.5,16C 305.167,15.6667 299.833,15.3333 294.5,15C 294.833,14.6667 295.167,14.3333 295.5,14C 294.57,13.0093 293.404,12.5093 292,12.5C 276.626,12.9628 259.126,13.9628 239.5,15.5C 236.229,17.1977 232.562,17.531 228.5,16.5C 228.769,18.4286 228.269,20.0953 227,21.5C 225.513,20.7471 225.346,19.9138 226.5,19C 222.288,18.1816 218.788,19.3483 216,22.5C 215.275,21.9415 214.442,21.6082 213.5,21.5C 206.893,23.4947 200.226,25.328 193.5,27C 191.749,29.4785 189.582,30.3118 187,29.5C 184.569,31.421 181.902,31.421 179,29.5C 176.702,30.065 175.869,31.2317 176.5,33C 172.884,34.3664 169.55,34.1998 166.5,32.5C 166.167,32.6667 165.833,32.8333 165.5,33C 166.328,33.9147 167.328,34.5814 168.5,35C 165.318,35.4069 162.151,35.9069 159,36.5C 157.674,36.7549 156.674,37.4216 156,38.5C 155.667,38.1667 155.333,37.8333 155,37.5C 153.914,39.847 152.581,39.847 151,37.5C 149.838,38.1868 148.672,38.3534 147.5,38C 149.618,36.9509 151.284,35.4509 152.5,33.5C 157.105,30.0774 162.105,27.4108 167.5,25.5C 175.948,22.962 184.281,20.1286 192.5,17C 194.76,16.4506 196.426,15.284 197.5,13.5C 204.52,11.9952 211.52,10.3285 218.5,8.5C 226.18,7.66423 233.847,6.66423 241.5,5.5 Z"/></g>
<g><path style="opacity:1" fill="#f1f1f1" d="M 287.5,17.5 C 258.292,19.6359 230.625,27.1359 204.5,40C 202.253,41.2775 200.253,42.7775 198.5,44.5C 171.104,59.8926 148.437,80.5592 130.5,106.5C 129.35,107.85 128.683,107.684 128.5,106C 129.615,104.607 130.115,103.107 130,101.5C 127.858,103.618 126.358,106.118 125.5,109C 122.587,108.71 119.587,108.543 116.5,108.5C 116.5,109.5 116.5,110.5 116.5,111.5C 111.5,111.5 106.5,111.5 101.5,111.5C 101.5,112.5 101.5,113.5 101.5,114.5C 86.8333,114.5 72.1667,114.5 57.5,114.5C 57.2479,111.756 57.9145,109.256 59.5,107C 59.1667,106.5 58.8333,106 58.5,105.5C 55.3003,108.008 53.967,111.342 54.5,115.5C 52.3453,115.628 50.3453,115.128 48.5,114C 51.1667,112.667 51.1667,111.333 48.5,110C 50.8912,108.691 50.8912,107.691 48.5,107C 50,105.5 51.5,104 53,102.5C 53.5074,103.996 53.0074,105.163 51.5,106C 52.1667,106.667 52.8333,106.667 53.5,106C 55.8933,103.047 58.56,100.547 61.5,98.5C 61.9976,99.6034 62.3309,100.603 62.5,101.5C 63.6721,101.081 64.6721,100.415 65.5,99.5C 63.7145,97.2673 61.7145,96.2673 59.5,96.5C 62.8966,94.106 65.5633,91.106 67.5,87.5C 68.5,87.1667 69.1667,86.5 69.5,85.5C 71.9976,84.0877 74.6642,82.9211 77.5,82C 78.4503,79.0899 80.4503,77.9232 83.5,78.5C 83.6287,76.7839 83.962,75.1172 84.5,73.5C 88.9586,69.1031 93.9586,65.4365 99.5,62.5C 105.686,59.5777 111.352,55.911 116.5,51.5C 116.842,50.6618 117.508,50.3284 118.5,50.5C 125.3,47.6013 131.633,43.9347 137.5,39.5C 142.5,37.5 147.5,35.5 152.5,33.5C 151.284,35.4509 149.618,36.9509 147.5,38C 148.672,38.3534 149.838,38.1868 151,37.5C 152.581,39.847 153.914,39.847 155,37.5C 155.333,37.8333 155.667,38.1667 156,38.5C 156.674,37.4216 157.674,36.7549 159,36.5C 162.151,35.9069 165.318,35.4069 168.5,35C 167.328,34.5814 166.328,33.9147 165.5,33C 165.833,32.8333 166.167,32.6667 166.5,32.5C 169.55,34.1998 172.884,34.3664 176.5,33C 175.869,31.2317 176.702,30.065 179,29.5C 181.902,31.421 184.569,31.421 187,29.5C 189.582,30.3118 191.749,29.4785 193.5,27C 200.226,25.328 206.893,23.4947 213.5,21.5C 214.442,21.6082 215.275,21.9415 216,22.5C 218.788,19.3483 222.288,18.1816 226.5,19C 225.346,19.9138 225.513,20.7471 227,21.5C 228.269,20.0953 228.769,18.4286 228.5,16.5C 232.562,17.531 236.229,17.1977 239.5,15.5C 259.126,13.9628 276.626,12.9628 292,12.5C 293.404,12.5093 294.57,13.0093 295.5,14C 295.167,14.3333 294.833,14.6667 294.5,15C 299.833,15.3333 305.167,15.6667 310.5,16C 302.656,16.171 294.989,16.671 287.5,17.5 Z"/></g>
<g><path style="opacity:1" fill="#d1d1d1" d="M 360.5,5.5 C 371.954,7.53273 383.288,9.86607 394.5,12.5C 406.126,16.4869 417.793,20.4869 429.5,24.5C 438.344,29.0882 447.344,33.4216 456.5,37.5C 455.047,38.8249 455.381,39.6582 457.5,40C 455.926,40.6987 454.593,40.3654 453.5,39C 454.34,37.3335 453.84,37.1669 452,38.5C 450.025,37.522 448.358,36.1887 447,34.5C 446.5,34.6667 446,34.8333 445.5,35C 446.716,36.594 448.049,38.094 449.5,39.5C 449.291,40.086 448.957,40.586 448.5,41C 449.672,41.4186 450.672,42.0853 451.5,43C 450.359,43.7412 450.359,44.5745 451.5,45.5C 453.296,46.1414 454.796,47.1414 456,48.5C 457,47.5 458,46.5 459,45.5C 460.824,46.7487 460.657,47.9153 458.5,49C 460.653,51.1651 463.319,51.9984 466.5,51.5C 466.5,54.8333 468.167,56.5 471.5,56.5C 471.5,58.8333 471.5,61.1667 471.5,63.5C 478.618,61.3952 481.951,64.0619 481.5,71.5C 484.212,71.2625 486.712,71.2625 489,71.5C 489.284,76.3853 489.784,81.3853 490.5,86.5C 493.167,86.5 495.833,86.5 498.5,86.5C 498.5,88.8333 498.5,91.1667 498.5,93.5C 500.288,93.2148 501.955,93.5481 503.5,94.5C 501,94.8333 498.5,95.1667 496,95.5C 491.138,94.874 486.305,94.2074 481.5,93.5C 481.5,92.5 481.5,91.5 481.5,90.5C 476.5,90.5 471.5,90.5 466.5,90.5C 466.542,88.1511 465.375,86.8178 463,86.5C 460.977,87.7068 459.144,89.0402 457.5,90.5C 443.627,74.7374 427.96,61.0708 410.5,49.5C 411.239,49.631 411.906,49.4643 412.5,49C 410.972,46.7597 408.972,45.093 406.5,44C 409.316,44.6305 411.982,43.9638 414.5,42C 412.126,42.4024 409.793,42.2357 407.5,41.5C 406.23,38.8944 404.563,36.561 402.5,34.5C 399.402,32.6242 396.736,30.2909 394.5,27.5C 391.355,25.6871 388.022,24.3538 384.5,23.5C 384.719,22.325 384.386,21.325 383.5,20.5C 379.158,18.7257 374.991,17.3923 371,16.5C 369.161,15.328 367.661,13.828 366.5,12C 361.721,12.0351 357.388,10.7018 353.5,8C 355.541,6.25885 357.708,6.09218 360,7.5C 360.464,6.90558 360.631,6.23891 360.5,5.5 Z"/></g>
<g><path style="opacity:1" fill="#a0a0a0" d="M 197.5,13.5 C 196.426,15.284 194.76,16.4506 192.5,17C 184.281,20.1286 175.948,22.962 167.5,25.5C 177.026,20.5418 187.026,16.5418 197.5,13.5 Z"/></g>
<g><path style="opacity:0.655" fill="#949494" d="M 394.5,12.5 C 399.698,12.7308 404.698,13.8974 409.5,16C 416.554,18.1762 423.22,21.0096 429.5,24.5C 417.793,20.4869 406.126,16.4869 394.5,12.5 Z"/></g>
<g><path style="opacity:0.808" fill="#939393" d="M 429.5,24.5 C 435.792,25.8106 441.792,27.9773 447.5,31C 455.676,35.5884 464.009,39.9218 472.5,44C 474.618,45.0491 476.284,46.5491 477.5,48.5C 470.338,45.0861 463.338,41.4194 456.5,37.5C 447.344,33.4216 438.344,29.0882 429.5,24.5 Z"/></g>
<g><path style="opacity:1" fill="#cacaca" d="M 456.5,37.5 C 463.338,41.4194 470.338,45.0861 477.5,48.5C 480.331,49.0787 482.664,50.412 484.5,52.5C 490.976,57.9079 497.976,62.5746 505.5,66.5C 512.082,70.0908 518.082,74.4242 523.5,79.5C 525.167,83.1667 527.833,85.8333 531.5,87.5C 532.5,87.8333 533.167,88.5 533.5,89.5C 533.063,91.0744 532.063,92.2411 530.5,93C 531.449,93.6172 532.282,93.4506 533,92.5C 534.29,94.792 535.957,96.792 538,98.5C 538.667,99.1667 538.667,99.8333 538,100.5C 537.035,98.7397 535.868,98.4063 534.5,99.5C 537.727,101.772 540.394,104.606 542.5,108C 540.709,110.106 540.042,112.606 540.5,115.5C 538.167,115.5 535.833,115.5 533.5,115.5C 533.5,118.167 533.5,120.833 533.5,123.5C 528.5,123.5 523.5,123.5 518.5,123.5C 518.5,124.833 518.5,126.167 518.5,127.5C 516.167,127.5 513.833,127.5 511.5,127.5C 511.5,128.5 511.5,129.5 511.5,130.5C 508.833,130.5 506.167,130.5 503.5,130.5C 503.5,133.167 503.5,135.833 503.5,138.5C 498.833,138.5 494.167,138.5 489.5,138.5C 489.819,136.25 489.319,134.25 488,132.5C 487.374,134.713 487.541,136.88 488.5,139C 488.164,140.03 487.497,140.53 486.5,140.5C 479.828,122.214 470.161,105.547 457.5,90.5C 459.144,89.0402 460.977,87.7068 463,86.5C 465.375,86.8178 466.542,88.1511 466.5,90.5C 471.5,90.5 476.5,90.5 481.5,90.5C 481.5,91.5 481.5,92.5 481.5,93.5C 486.305,94.2074 491.138,94.874 496,95.5C 498.5,95.1667 501,94.8333 503.5,94.5C 501.955,93.5481 500.288,93.2148 498.5,93.5C 498.5,91.1667 498.5,88.8333 498.5,86.5C 495.833,86.5 493.167,86.5 490.5,86.5C 489.784,81.3853 489.284,76.3853 489,71.5C 486.712,71.2625 484.212,71.2625 481.5,71.5C 481.951,64.0619 478.618,61.3952 471.5,63.5C 471.5,61.1667 471.5,58.8333 471.5,56.5C 468.167,56.5 466.5,54.8333 466.5,51.5C 463.319,51.9984 460.653,51.1651 458.5,49C 460.657,47.9153 460.824,46.7487 459,45.5C 458,46.5 457,47.5 456,48.5C 454.796,47.1414 453.296,46.1414 451.5,45.5C 450.359,44.5745 450.359,43.7412 451.5,43C 450.672,42.0853 449.672,41.4186 448.5,41C 448.957,40.586 449.291,40.086 449.5,39.5C 448.049,38.094 446.716,36.594 445.5,35C 446,34.8333 446.5,34.6667 447,34.5C 448.358,36.1887 450.025,37.522 452,38.5C 453.84,37.1669 454.34,37.3335 453.5,39C 454.593,40.3654 455.926,40.6987 457.5,40C 455.381,39.6582 455.047,38.8249 456.5,37.5 Z"/></g>
<g><path style="opacity:1" fill="#b6b6b6" d="M 287.5,17.5 C 303.638,16.9035 319.638,17.9035 335.5,20.5C 341.81,22.2734 348.143,23.9401 354.5,25.5C 350.167,25.5 345.833,25.5 341.5,25.5C 304.235,18.0149 267.568,20.3483 231.5,32.5C 220.469,36.5095 209.469,40.5095 198.5,44.5C 200.253,42.7775 202.253,41.2775 204.5,40C 230.625,27.1359 258.292,19.6359 287.5,17.5 Z"/></g>
<g><path style="opacity:1" fill="#939393" d="M 167.5,25.5 C 162.105,27.4108 157.105,30.0774 152.5,33.5C 147.5,35.5 142.5,37.5 137.5,39.5C 146.705,33.2322 156.705,28.5655 167.5,25.5 Z"/></g>
<g><path style="opacity:1" fill="#fdfdfd" d="M 349.5,47.5 C 357.131,51.3159 364.464,55.6492 371.5,60.5C 369.825,60.1316 368.158,60.7982 366.5,62.5C 367.5,63.3333 368.5,64.1667 369.5,65C 365.901,66.3094 362.401,67.8094 359,69.5C 359.316,72.6186 360.149,75.6186 361.5,78.5C 358.111,80.3753 354.777,82.5419 351.5,85C 344.565,86.4087 337.565,87.4087 330.5,88C 328.415,89.0414 326.748,90.5414 325.5,92.5C 325.089,91.7376 324.923,90.7376 325,89.5C 322.292,90.7879 320.792,92.9545 320.5,96C 317.23,96.9948 313.897,97.8281 310.5,98.5C 310.291,99.086 309.957,99.586 309.5,100C 296.866,100.939 284.532,102.439 272.5,104.5C 272.5,105.5 272.5,106.5 272.5,107.5C 257.997,109.316 243.33,109.816 228.5,109C 230.833,108.667 233.167,108.333 235.5,108C 230.833,107.667 226.167,107.333 221.5,107C 218.972,104.943 215.972,103.943 212.5,104C 210.532,102.456 208.365,101.289 206,100.5C 205.272,97.7695 205.438,95.1029 206.5,92.5C 206.192,91.6919 205.692,91.0253 205,90.5C 204.71,92.0441 204.044,93.3774 203,94.5C 202.837,92.324 202.004,90.4907 200.5,89C 202.5,87 204.5,85 206.5,83C 206.404,80.7626 206.404,78.5959 206.5,76.5C 210.639,72.532 214.973,68.6987 219.5,65C 227.897,59.8082 236.231,54.6416 244.5,49.5C 256.227,45.4267 268.227,42.26 280.5,40C 294.2,39.1627 307.867,39.496 321.5,41C 330.855,43.1725 340.188,45.3392 349.5,47.5 Z"/></g>
<g><path style="opacity:0.571" fill="#878787" d="M 137.5,39.5 C 131.633,43.9347 125.3,47.6013 118.5,50.5C 121.366,47.4789 124.7,44.9789 128.5,43C 131.309,41.2589 134.309,40.0922 137.5,39.5 Z"/></g>
<g><path style="opacity:0.863" fill="#858585" d="M 349.5,47.5 C 340.188,45.3392 330.855,43.1725 321.5,41C 307.867,39.496 294.2,39.1627 280.5,40C 268.227,42.26 256.227,45.4267 244.5,49.5C 261.643,40.7285 279.976,36.7285 299.5,37.5C 309.2,37.9366 318.866,38.7699 328.5,40C 335.994,41.4401 342.994,43.9401 349.5,47.5 Z"/></g>
<g><path style="opacity:1" fill="#a6a6a6" d="M 354.5,25.5 C 374.364,30.767 393.031,38.767 410.5,49.5C 427.96,61.0708 443.627,74.7374 457.5,90.5C 470.161,105.547 479.828,122.214 486.5,140.5C 491.527,155.449 492.861,170.783 490.5,186.5C 489.833,188.5 489.167,190.5 488.5,192.5C 490.687,175.832 489.187,159.499 484,143.5C 483.502,141.456 482.335,140.122 480.5,139.5C 469.391,112.493 452.724,89.3259 430.5,70C 404.599,47.7161 374.932,32.8828 341.5,25.5C 345.833,25.5 350.167,25.5 354.5,25.5 Z"/></g>
<g><path style="opacity:1" fill="#a7a7a7" d="M 231.5,32.5 C 221.713,37.5586 211.713,42.3919 201.5,47C 195.447,51.6863 189.114,55.853 182.5,59.5C 161.428,73.7395 144.261,91.7395 131,113.5C 130.296,111.273 129.129,110.94 127.5,112.5C 128.096,110.255 129.096,108.255 130.5,106.5C 148.437,80.5592 171.104,59.8926 198.5,44.5C 209.469,40.5095 220.469,36.5095 231.5,32.5 Z"/></g>
<g><path style="opacity:1" fill="#999999" d="M 484.5,52.5 C 492.043,56.381 499.043,61.0476 505.5,66.5C 497.976,62.5746 490.976,57.9079 484.5,52.5 Z"/></g>
<g><path style="opacity:1" fill="#999999" d="M 116.5,51.5 C 111.352,55.911 105.686,59.5777 99.5,62.5C 104.648,58.089 110.314,54.4223 116.5,51.5 Z"/></g>
<g><path style="opacity:1" fill="#838383" d="M 349.5,47.5 C 369.386,55.0368 386.553,66.7035 401,82.5C 403.08,85.0652 404.913,87.7318 406.5,90.5C 403.188,87.8544 400.188,84.8544 397.5,81.5C 396.833,80.1667 395.833,79.1667 394.5,78.5C 390.153,74.1549 385.486,70.1549 380.5,66.5C 378.025,63.7589 375.025,61.7589 371.5,60.5C 364.464,55.6492 357.131,51.3159 349.5,47.5 Z"/></g>
<g><path style="opacity:1" fill="#f6f6f6" d="M 371.5,60.5 C 375.025,61.7589 378.025,63.7589 380.5,66.5C 377.945,66.6348 377.945,67.8014 380.5,70C 379.667,70.8333 378.833,71.6667 378,72.5C 378.617,70.9052 378.284,69.5719 377,68.5C 372.444,73.5545 370.277,79.5545 370.5,86.5C 367.81,82.6017 366.31,83.2684 366,88.5C 363.594,89.5647 361.427,90.8981 359.5,92.5C 360.5,93.1667 361.5,93.8333 362.5,94.5C 359.103,95.1719 355.77,96.0052 352.5,97C 350.393,98.2635 349.393,100.097 349.5,102.5C 346.482,102.335 343.482,102.502 340.5,103C 338.347,105.165 335.681,105.998 332.5,105.5C 332.5,107.167 332.5,108.833 332.5,110.5C 330.167,110.5 327.833,110.5 325.5,110.5C 325.5,111.5 325.5,112.5 325.5,113.5C 320.36,113.701 315.36,114.701 310.5,116.5C 293.179,117.5 275.846,117.833 258.5,117.5C 258.5,118.5 258.5,119.5 258.5,120.5C 255.833,120.5 253.167,120.5 250.5,120.5C 250.5,121.5 250.5,122.5 250.5,123.5C 235.729,124.839 221.063,126.172 206.5,127.5C 205.726,131.444 205.059,131.277 204.5,127C 204.788,124.813 205.122,122.646 205.5,120.5C 203.167,120.5 200.833,120.5 198.5,120.5C 198.838,116.849 197.172,115.183 193.5,115.5C 193.666,108.492 193.5,101.492 193,94.5C 191.893,95.7119 191.393,95.3786 191.5,93.5C 195.804,87.2294 200.804,81.5628 206.5,76.5C 206.404,78.5959 206.404,80.7626 206.5,83C 204.5,85 202.5,87 200.5,89C 202.004,90.4907 202.837,92.324 203,94.5C 204.044,93.3774 204.71,92.0441 205,90.5C 205.692,91.0253 206.192,91.6919 206.5,92.5C 205.438,95.1029 205.272,97.7695 206,100.5C 208.365,101.289 210.532,102.456 212.5,104C 215.972,103.943 218.972,104.943 221.5,107C 226.167,107.333 230.833,107.667 235.5,108C 233.167,108.333 230.833,108.667 228.5,109C 243.33,109.816 257.997,109.316 272.5,107.5C 272.5,106.5 272.5,105.5 272.5,104.5C 284.532,102.439 296.866,100.939 309.5,100C 309.957,99.586 310.291,99.086 310.5,98.5C 313.897,97.8281 317.23,96.9948 320.5,96C 320.792,92.9545 322.292,90.7879 325,89.5C 324.923,90.7376 325.089,91.7376 325.5,92.5C 326.748,90.5414 328.415,89.0414 330.5,88C 337.565,87.4087 344.565,86.4087 351.5,85C 354.777,82.5419 358.111,80.3753 361.5,78.5C 360.149,75.6186 359.316,72.6186 359,69.5C 362.401,67.8094 365.901,66.3094 369.5,65C 368.5,64.1667 367.5,63.3333 366.5,62.5C 368.158,60.7982 369.825,60.1316 371.5,60.5 Z"/></g>
<g><path style="opacity:1" fill="#f0f0f0" d="M 380.5,66.5 C 385.486,70.1549 390.153,74.1549 394.5,78.5C 393.383,81.2791 392.217,81.6124 391,79.5C 390.667,79.8333 390.333,80.1667 390,80.5C 390.536,82.447 390.202,84.447 389,86.5C 388.333,83.8333 387.667,83.8333 387,86.5C 386.316,82.9068 384.816,82.5735 382.5,85.5C 381.756,89.2698 380.756,92.9365 379.5,96.5C 375.186,96.6481 372.519,98.8147 371.5,103C 368.562,103.297 366.562,104.797 365.5,107.5C 363.833,108.167 362.167,108.833 360.5,109.5C 356.833,112.333 353.167,115.167 349.5,118C 346.5,118.333 343.5,118.667 340.5,119C 339.122,122.637 336.455,124.137 332.5,123.5C 332.5,124.5 332.5,125.5 332.5,126.5C 327.408,126.905 322.408,127.905 317.5,129.5C 296.495,130.212 275.495,130.879 254.5,131.5C 250.079,132.206 246.079,133.706 242.5,136C 235.438,136.842 228.438,138.009 221.5,139.5C 220.754,140.736 220.421,142.07 220.5,143.5C 215.139,143.005 209.972,143.671 205,145.5C 202.744,142.122 199.578,140.455 195.5,140.5C 195.657,139.127 195.49,137.793 195,136.5C 192.428,134.671 190.094,132.671 188,130.5C 187.9,127.563 187.067,124.896 185.5,122.5C 187.421,118.581 186.421,115.747 182.5,114C 184.521,113.599 185.855,112.432 186.5,110.5C 185.635,109.417 184.635,109.251 183.5,110C 182.333,111.5 181.167,113 180,114.5C 179.601,114.272 179.435,113.938 179.5,113.5C 181.424,109.983 183.091,106.316 184.5,102.5C 187.075,99.681 189.408,96.681 191.5,93.5C 191.393,95.3786 191.893,95.7119 193,94.5C 193.5,101.492 193.666,108.492 193.5,115.5C 197.172,115.183 198.838,116.849 198.5,120.5C 200.833,120.5 203.167,120.5 205.5,120.5C 205.122,122.646 204.788,124.813 204.5,127C 205.059,131.277 205.726,131.444 206.5,127.5C 221.063,126.172 235.729,124.839 250.5,123.5C 250.5,122.5 250.5,121.5 250.5,120.5C 253.167,120.5 255.833,120.5 258.5,120.5C 258.5,119.5 258.5,118.5 258.5,117.5C 275.846,117.833 293.179,117.5 310.5,116.5C 315.36,114.701 320.36,113.701 325.5,113.5C 325.5,112.5 325.5,111.5 325.5,110.5C 327.833,110.5 330.167,110.5 332.5,110.5C 332.5,108.833 332.5,107.167 332.5,105.5C 335.681,105.998 338.347,105.165 340.5,103C 343.482,102.502 346.482,102.335 349.5,102.5C 349.393,100.097 350.393,98.2635 352.5,97C 355.77,96.0052 359.103,95.1719 362.5,94.5C 361.5,93.8333 360.5,93.1667 359.5,92.5C 361.427,90.8981 363.594,89.5647 366,88.5C 366.31,83.2684 367.81,82.6017 370.5,86.5C 370.277,79.5545 372.444,73.5545 377,68.5C 378.284,69.5719 378.617,70.9052 378,72.5C 378.833,71.6667 379.667,70.8333 380.5,70C 377.945,67.8014 377.945,66.6348 380.5,66.5 Z"/></g>
<g><path style="opacity:1" fill="#eaeaea" d="M 394.5,78.5 C 395.833,79.1667 396.833,80.1667 397.5,81.5C 397.461,82.5832 397.127,83.5832 396.5,84.5C 399.194,86.2094 401.194,88.5428 402.5,91.5C 402.192,92.3081 401.692,92.9747 401,93.5C 399.901,90.9613 398.234,90.2946 396,91.5C 395.502,94.4816 395.335,97.4816 395.5,100.5C 394.448,100.351 393.448,100.517 392.5,101C 389.681,103.575 386.681,105.908 383.5,108C 384.167,108.333 384.833,108.667 385.5,109C 382.679,110.822 380.179,112.989 378,115.5C 377.667,115.167 377.333,114.833 377,114.5C 374.263,117.05 371.096,119.05 367.5,120.5C 366.614,121.325 366.281,122.325 366.5,123.5C 362.506,124.656 358.84,126.489 355.5,129C 352.833,129.333 350.167,129.667 347.5,130C 348.938,130.219 350.271,130.719 351.5,131.5C 351.333,131.833 351.167,132.167 351,132.5C 347.675,133.944 344.175,134.944 340.5,135.5C 339.289,136.72 339.289,137.887 340.5,139C 334.668,139.473 329.335,141.139 324.5,144C 307.5,144.333 290.5,144.667 273.5,145C 283.167,145.333 292.833,145.667 302.5,146C 280.474,148.402 258.141,149.569 235.5,149.5C 235.5,150.5 235.5,151.5 235.5,152.5C 227.366,151.613 220.366,153.78 214.5,159C 208.833,159.667 203.167,159.667 197.5,159C 193.811,154.335 189.145,150.002 183.5,146C 184.129,142.959 182.963,140.459 180,138.5C 179.833,136 179.667,133.5 179.5,131C 179.568,128.05 180.234,125.383 181.5,123C 180.267,121.333 178.933,119.833 177.5,118.5C 177.402,116.447 178.069,114.78 179.5,113.5C 179.435,113.938 179.601,114.272 180,114.5C 181.167,113 182.333,111.5 183.5,110C 184.635,109.251 185.635,109.417 186.5,110.5C 185.855,112.432 184.521,113.599 182.5,114C 186.421,115.747 187.421,118.581 185.5,122.5C 187.067,124.896 187.9,127.563 188,130.5C 190.094,132.671 192.428,134.671 195,136.5C 195.49,137.793 195.657,139.127 195.5,140.5C 199.578,140.455 202.744,142.122 205,145.5C 209.972,143.671 215.139,143.005 220.5,143.5C 220.421,142.07 220.754,140.736 221.5,139.5C 228.438,138.009 235.438,136.842 242.5,136C 246.079,133.706 250.079,132.206 254.5,131.5C 275.495,130.879 296.495,130.212 317.5,129.5C 322.408,127.905 327.408,126.905 332.5,126.5C 332.5,125.5 332.5,124.5 332.5,123.5C 336.455,124.137 339.122,122.637 340.5,119C 343.5,118.667 346.5,118.333 349.5,118C 353.167,115.167 356.833,112.333 360.5,109.5C 362.167,108.833 363.833,108.167 365.5,107.5C 366.562,104.797 368.562,103.297 371.5,103C 372.519,98.8147 375.186,96.6481 379.5,96.5C 380.756,92.9365 381.756,89.2698 382.5,85.5C 384.816,82.5735 386.316,82.9068 387,86.5C 387.667,83.8333 388.333,83.8333 389,86.5C 390.202,84.447 390.536,82.447 390,80.5C 390.333,80.1667 390.667,79.8333 391,79.5C 392.217,81.6124 393.383,81.2791 394.5,78.5 Z"/></g>
<g><path style="opacity:1" fill="#c5c5c5" d="M 84.5,73.5 C 83.962,75.1172 83.6287,76.7839 83.5,78.5C 80.4503,77.9232 78.4503,79.0899 77.5,82C 74.6642,82.9211 71.9976,84.0877 69.5,85.5C 74.3479,81.2513 79.3479,77.2513 84.5,73.5 Z"/></g>
<g><path style="opacity:0.992" fill="#828282" d="M 244.5,49.5 C 236.231,54.6416 227.897,59.8082 219.5,65C 214.973,68.6987 210.639,72.532 206.5,76.5C 200.804,81.5628 195.804,87.2294 191.5,93.5C 189.408,96.681 187.075,99.681 184.5,102.5C 198.322,77.9098 218.322,60.2432 244.5,49.5 Z"/></g>
<g><path style="opacity:0.043" fill="#909090" d="M 523.5,79.5 C 526.64,81.728 529.306,84.3947 531.5,87.5C 527.833,85.8333 525.167,83.1667 523.5,79.5 Z"/></g>
<g><path style="opacity:1" fill="#e3e3e3" d="M 397.5,81.5 C 400.188,84.8544 403.188,87.8544 406.5,90.5C 408.062,94.3918 410.395,97.7251 413.5,100.5C 413.657,101.873 413.49,103.207 413,104.5C 412.586,104.043 412.086,103.709 411.5,103.5C 410.833,105.167 410.167,106.833 409.5,108.5C 409.167,108.333 408.833,108.167 408.5,108C 409.289,105.733 409.956,103.4 410.5,101C 410.37,99.9412 409.87,99.1079 409,98.5C 408.696,100.441 407.863,102.107 406.5,103.5C 407.612,107.46 405.945,109.127 401.5,108.5C 401.892,111.722 401.392,114.722 400,117.5C 399.275,115.842 398.108,115.342 396.5,116C 394.155,118.677 391.488,121.01 388.5,123C 389.833,123.333 391.167,123.667 392.5,124C 392.167,124.333 391.833,124.667 391.5,125C 387.64,125.105 383.974,125.938 380.5,127.5C 378.913,129.085 378.08,130.752 378,132.5C 377.275,130.842 376.108,130.342 374.5,131C 370.65,133.761 366.983,136.761 363.5,140C 362.167,140.333 360.833,140.667 359.5,141C 355.984,144.101 352.317,146.934 348.5,149.5C 347.571,150.689 347.238,152.022 347.5,153.5C 342.493,153.751 337.493,154.084 332.5,154.5C 332.5,155.5 332.5,156.5 332.5,157.5C 330.167,157.5 327.833,157.5 325.5,157.5C 325.5,158.5 325.5,159.5 325.5,160.5C 312.863,161.628 300.196,162.294 287.5,162.5C 287.5,163.5 287.5,164.5 287.5,165.5C 285.167,165.5 282.833,165.5 280.5,165.5C 280.5,166.833 280.5,168.167 280.5,169.5C 275.5,169.5 270.5,169.5 265.5,169.5C 265.5,171.5 265.5,173.5 265.5,175.5C 263.167,175.5 260.833,175.5 258.5,175.5C 258.5,174.5 258.5,173.5 258.5,172.5C 250.833,172.5 243.167,172.5 235.5,172.5C 235.5,173.5 235.5,174.5 235.5,175.5C 228.246,176.866 220.913,177.533 213.5,177.5C 213.5,178.5 213.5,179.5 213.5,180.5C 211.167,180.5 208.833,180.5 206.5,180.5C 206.5,179.5 206.5,178.5 206.5,177.5C 198.281,178.641 192.781,175.308 190,167.5C 187.362,164.683 184.362,162.35 181,160.5C 180.383,159.551 180.549,158.718 181.5,158C 179.321,157.558 178.655,156.558 179.5,155C 177.653,151.499 175.986,147.999 174.5,144.5C 173.682,141.893 173.182,139.226 173,136.5C 170.12,144.68 168.954,144.347 169.5,135.5C 170.065,131.463 171.399,127.797 173.5,124.5C 174.325,122.19 175.658,120.19 177.5,118.5C 178.933,119.833 180.267,121.333 181.5,123C 180.234,125.383 179.568,128.05 179.5,131C 179.667,133.5 179.833,136 180,138.5C 182.963,140.459 184.129,142.959 183.5,146C 189.145,150.002 193.811,154.335 197.5,159C 203.167,159.667 208.833,159.667 214.5,159C 220.366,153.78 227.366,151.613 235.5,152.5C 235.5,151.5 235.5,150.5 235.5,149.5C 258.141,149.569 280.474,148.402 302.5,146C 292.833,145.667 283.167,145.333 273.5,145C 290.5,144.667 307.5,144.333 324.5,144C 329.335,141.139 334.668,139.473 340.5,139C 339.289,137.887 339.289,136.72 340.5,135.5C 344.175,134.944 347.675,133.944 351,132.5C 351.167,132.167 351.333,131.833 351.5,131.5C 350.271,130.719 348.938,130.219 347.5,130C 350.167,129.667 352.833,129.333 355.5,129C 358.84,126.489 362.506,124.656 366.5,123.5C 366.281,122.325 366.614,121.325 367.5,120.5C 371.096,119.05 374.263,117.05 377,114.5C 377.333,114.833 377.667,115.167 378,115.5C 380.179,112.989 382.679,110.822 385.5,109C 384.833,108.667 384.167,108.333 383.5,108C 386.681,105.908 389.681,103.575 392.5,101C 393.448,100.517 394.448,100.351 395.5,100.5C 395.335,97.4816 395.502,94.4816 396,91.5C 398.234,90.2946 399.901,90.9613 401,93.5C 401.692,92.9747 402.192,92.3081 402.5,91.5C 401.194,88.5428 399.194,86.2094 396.5,84.5C 397.127,83.5832 397.461,82.5832 397.5,81.5 Z"/></g>
<g><path style="opacity:1" fill="#c4c4c4" d="M 533.5,89.5 C 535.95,90.7765 538.283,92.2765 540.5,94C 544.667,99.5 549.5,104.333 555,108.5C 558.381,112.375 561.547,116.375 564.5,120.5C 567.08,123.16 568.747,126.327 569.5,130C 568.167,130.333 566.833,130.667 565.5,131C 565.833,131.333 566.167,131.667 566.5,132C 565.897,133.825 565.23,135.659 564.5,137.5C 560.906,138.426 557.24,138.759 553.5,138.5C 553.5,140.833 553.5,143.167 553.5,145.5C 551.833,145.5 550.167,145.5 548.5,145.5C 548.5,146.5 548.5,147.5 548.5,148.5C 543.386,149.133 538.386,150.133 533.5,151.5C 533.5,152.833 533.5,154.167 533.5,155.5C 528.386,156.133 523.386,157.133 518.5,158.5C 518.5,160.167 518.5,161.833 518.5,163.5C 516.167,163.5 513.833,163.5 511.5,163.5C 511.5,164.5 511.5,165.5 511.5,166.5C 506.5,166.5 501.5,166.5 496.5,166.5C 496.649,165.448 496.483,164.448 496,163.5C 495.333,165.167 495.333,166.833 496,168.5C 497.699,167.594 499.533,167.261 501.5,167.5C 501.5,168.5 501.5,169.5 501.5,170.5C 499.5,170.5 497.5,170.5 495.5,170.5C 495.38,172.734 495.713,174.901 496.5,177C 496.361,178.301 495.695,179.134 494.5,179.5C 494.631,173.779 494.131,168.112 493,162.5C 492.667,169.5 492.333,176.5 492,183.5C 491.768,184.737 491.268,185.737 490.5,186.5C 492.861,170.783 491.527,155.449 486.5,140.5C 487.497,140.53 488.164,140.03 488.5,139C 487.541,136.88 487.374,134.713 488,132.5C 489.319,134.25 489.819,136.25 489.5,138.5C 494.167,138.5 498.833,138.5 503.5,138.5C 503.5,135.833 503.5,133.167 503.5,130.5C 506.167,130.5 508.833,130.5 511.5,130.5C 511.5,129.5 511.5,128.5 511.5,127.5C 513.833,127.5 516.167,127.5 518.5,127.5C 518.5,126.167 518.5,124.833 518.5,123.5C 523.5,123.5 528.5,123.5 533.5,123.5C 533.5,120.833 533.5,118.167 533.5,115.5C 535.833,115.5 538.167,115.5 540.5,115.5C 540.042,112.606 540.709,110.106 542.5,108C 540.394,104.606 537.727,101.772 534.5,99.5C 535.868,98.4063 537.035,98.7397 538,100.5C 538.667,99.8333 538.667,99.1667 538,98.5C 535.957,96.792 534.29,94.792 533,92.5C 532.282,93.4506 531.449,93.6172 530.5,93C 532.063,92.2411 533.063,91.0744 533.5,89.5 Z"/></g>
<g><path style="opacity:1" fill="#8a8a8a" d="M 406.5,90.5 C 409.696,93.2543 412.03,96.5876 413.5,100.5C 410.395,97.7251 408.062,94.3918 406.5,90.5 Z"/></g>
<g><path style="opacity:1" fill="#dddddd" d="M 413.5,100.5 C 414.338,100.842 414.672,101.508 414.5,102.5C 416.243,106.984 418.243,111.317 420.5,115.5C 418.983,115.511 417.816,116.177 417,117.5C 415.956,116.377 415.29,115.044 415,113.5C 413.716,114.572 413.383,115.905 414,117.5C 412.315,119.017 410.815,120.684 409.5,122.5C 410.46,123.812 410.294,125.146 409,126.5C 401.003,131.676 393.17,137.009 385.5,142.5C 384.614,143.325 384.281,144.325 384.5,145.5C 382.712,145.215 381.045,145.548 379.5,146.5C 374.866,151.098 369.532,154.765 363.5,157.5C 362.742,156.189 361.742,155.689 360.5,156C 357.682,160.811 354.182,164.978 350,168.5C 348.612,167.446 347.112,167.28 345.5,168C 344.167,169.333 342.833,170.667 341.5,172C 336.177,172.499 330.844,172.666 325.5,172.5C 325.5,173.5 325.5,174.5 325.5,175.5C 322.833,175.5 320.167,175.5 317.5,175.5C 317.5,176.5 317.5,177.5 317.5,178.5C 307.805,178.915 298.138,179.748 288.5,181C 287.62,182.356 287.286,183.856 287.5,185.5C 282.793,186.01 278.127,186.843 273.5,188C 272.594,189.699 272.261,191.533 272.5,193.5C 262.835,193.878 253.169,194.211 243.5,194.5C 243.5,195.5 243.5,196.5 243.5,197.5C 240.833,197.5 238.167,197.5 235.5,197.5C 235.5,198.5 235.5,199.5 235.5,200.5C 228.167,200.5 220.833,200.5 213.5,200.5C 213.5,198.5 213.5,196.5 213.5,194.5C 211.167,194.5 208.833,194.5 206.5,194.5C 206.5,195.5 206.5,196.5 206.5,197.5C 203.887,195.527 200.887,194.027 197.5,193C 195.376,189.373 193.042,185.873 190.5,182.5C 189.914,182.709 189.414,183.043 189,183.5C 187.249,180.08 184.582,177.746 181,176.5C 180.545,173.243 178.879,170.909 176,169.5C 173.496,164.979 171.996,160.146 171.5,155C 170.355,153.598 169.022,152.431 167.5,151.5C 167.634,149.708 167.301,148.042 166.5,146.5C 166.742,142.521 167.742,138.854 169.5,135.5C 168.954,144.347 170.12,144.68 173,136.5C 173.182,139.226 173.682,141.893 174.5,144.5C 175.986,147.999 177.653,151.499 179.5,155C 178.655,156.558 179.321,157.558 181.5,158C 180.549,158.718 180.383,159.551 181,160.5C 184.362,162.35 187.362,164.683 190,167.5C 192.781,175.308 198.281,178.641 206.5,177.5C 206.5,178.5 206.5,179.5 206.5,180.5C 208.833,180.5 211.167,180.5 213.5,180.5C 213.5,179.5 213.5,178.5 213.5,177.5C 220.913,177.533 228.246,176.866 235.5,175.5C 235.5,174.5 235.5,173.5 235.5,172.5C 243.167,172.5 250.833,172.5 258.5,172.5C 258.5,173.5 258.5,174.5 258.5,175.5C 260.833,175.5 263.167,175.5 265.5,175.5C 265.5,173.5 265.5,171.5 265.5,169.5C 270.5,169.5 275.5,169.5 280.5,169.5C 280.5,168.167 280.5,166.833 280.5,165.5C 282.833,165.5 285.167,165.5 287.5,165.5C 287.5,164.5 287.5,163.5 287.5,162.5C 300.196,162.294 312.863,161.628 325.5,160.5C 325.5,159.5 325.5,158.5 325.5,157.5C 327.833,157.5 330.167,157.5 332.5,157.5C 332.5,156.5 332.5,155.5 332.5,154.5C 337.493,154.084 342.493,153.751 347.5,153.5C 347.238,152.022 347.571,150.689 348.5,149.5C 352.317,146.934 355.984,144.101 359.5,141C 360.833,140.667 362.167,140.333 363.5,140C 366.983,136.761 370.65,133.761 374.5,131C 376.108,130.342 377.275,130.842 378,132.5C 378.08,130.752 378.913,129.085 380.5,127.5C 383.974,125.938 387.64,125.105 391.5,125C 391.833,124.667 392.167,124.333 392.5,124C 391.167,123.667 389.833,123.333 388.5,123C 391.488,121.01 394.155,118.677 396.5,116C 398.108,115.342 399.275,115.842 400,117.5C 401.392,114.722 401.892,111.722 401.5,108.5C 405.945,109.127 407.612,107.46 406.5,103.5C 407.863,102.107 408.696,100.441 409,98.5C 409.87,99.1079 410.37,99.9412 410.5,101C 409.956,103.4 409.289,105.733 408.5,108C 408.833,108.167 409.167,108.333 409.5,108.5C 410.167,106.833 410.833,105.167 411.5,103.5C 412.086,103.709 412.586,104.043 413,104.5C 413.49,103.207 413.657,101.873 413.5,100.5 Z"/></g>
<g><path style="opacity:0.761" fill="#8c8c8c" d="M 414.5,102.5 C 418.754,106.662 421.754,111.662 423.5,117.5C 422.222,117.218 421.222,116.551 420.5,115.5C 418.243,111.317 416.243,106.984 414.5,102.5 Z"/></g>
<g><path style="opacity:1" fill="#e9e9e9" d="M 67.5,87.5 C 65.5633,91.106 62.8966,94.106 59.5,96.5C 61.7145,96.2673 63.7145,97.2673 65.5,99.5C 64.6721,100.415 63.6721,101.081 62.5,101.5C 62.3309,100.603 61.9976,99.6034 61.5,98.5C 58.56,100.547 55.8933,103.047 53.5,106C 52.8333,106.667 52.1667,106.667 51.5,106C 53.0074,105.163 53.5074,103.996 53,102.5C 51.5,104 50,105.5 48.5,107C 50.8912,107.691 50.8912,108.691 48.5,110C 51.1667,111.333 51.1667,112.667 48.5,114C 50.3453,115.128 52.3453,115.628 54.5,115.5C 53.967,111.342 55.3003,108.008 58.5,105.5C 58.8333,106 59.1667,106.5 59.5,107C 57.9145,109.256 57.2479,111.756 57.5,114.5C 72.1667,114.5 86.8333,114.5 101.5,114.5C 101.5,113.5 101.5,112.5 101.5,111.5C 106.5,111.5 111.5,111.5 116.5,111.5C 116.5,110.5 116.5,109.5 116.5,108.5C 119.587,108.543 122.587,108.71 125.5,109C 126.358,106.118 127.858,103.618 130,101.5C 130.115,103.107 129.615,104.607 128.5,106C 128.683,107.684 129.35,107.85 130.5,106.5C 129.096,108.255 128.096,110.255 127.5,112.5C 124.07,117.023 121.403,122.023 119.5,127.5C 116.724,129.033 114.89,131.366 114,134.5C 113.492,130.404 111.158,128.737 107,129.5C 105.5,129.667 104,129.833 102.5,130C 105.167,130.333 107.833,130.667 110.5,131C 104.884,131.561 99.5503,132.728 94.5,134.5C 94.5,135.5 94.5,136.5 94.5,137.5C 87.1591,137.334 79.8258,137.5 72.5,138C 77.1667,138.333 81.8333,138.667 86.5,139C 76.7761,139.737 67.1094,139.237 57.5,137.5C 55.1667,137.667 52.8333,137.833 50.5,138C 52.5,138.333 54.5,138.667 56.5,139C 54.1667,139.167 51.8333,139.333 49.5,139.5C 44.0593,138.951 39.226,137.618 35,135.5C 33.2137,137.099 31.047,137.933 28.5,138C 30.5,138.333 32.5,138.667 34.5,139C 31.9009,139.769 29.4009,139.602 27,138.5C 26.7266,136.899 26.2266,135.399 25.5,134C 26.5822,132.67 27.2488,131.17 27.5,129.5C 27.3893,128.883 27.056,128.383 26.5,128C 31.9189,122.581 37.4189,117.081 43,111.5C 50.2938,102.707 58.4605,94.7072 67.5,87.5 Z"/></g>
<g><path style="opacity:1" fill="#898989" d="M 184.5,102.5 C 183.091,106.316 181.424,109.983 179.5,113.5C 178.069,114.78 177.402,116.447 177.5,118.5C 175.658,120.19 174.325,122.19 173.5,124.5C 174.943,116.281 178.609,108.947 184.5,102.5 Z"/></g>
<g><path style="opacity:1" fill="#d7d7d7" d="M 420.5,115.5 C 421.222,116.551 422.222,117.218 423.5,117.5C 423.5,117.833 423.5,118.167 423.5,118.5C 423.5,119.5 423.5,120.5 423.5,121.5C 422.489,123.372 421.655,125.372 421,127.5C 420.51,126.207 420.343,124.873 420.5,123.5C 419.325,123.281 418.325,123.614 417.5,124.5C 416.976,126.453 415.976,128.12 414.5,129.5C 417.044,131.392 417.044,133.225 414.5,135C 414.833,135.333 415.167,135.667 415.5,136C 412.204,137.995 408.87,139.995 405.5,142C 403.145,143.831 401.812,145.997 401.5,148.5C 398.223,149.254 394.89,149.754 391.5,150C 391.616,151.268 391.949,152.602 392.5,154C 389.785,154.878 387.451,156.378 385.5,158.5C 384.742,157.189 383.742,156.689 382.5,157C 380.606,158.101 379.939,159.434 380.5,161C 379.031,164.93 377.864,165.097 377,161.5C 374.415,163.758 371.582,165.591 368.5,167C 368.957,167.414 369.291,167.914 369.5,168.5C 367.381,169.521 365.714,171.021 364.5,173C 363.167,172.667 361.833,172.333 360.5,172C 358.145,173.831 356.812,175.997 356.5,178.5C 353.579,179.407 350.579,179.74 347.5,179.5C 347.5,181.833 347.5,184.167 347.5,186.5C 340.087,186.467 332.754,187.134 325.5,188.5C 325.739,190.467 325.406,192.301 324.5,194C 314.85,194.877 305.183,195.377 295.5,195.5C 295.5,197.5 295.5,199.5 295.5,201.5C 285.237,201.59 275.237,202.923 265.5,205.5C 265.5,206.5 265.5,207.5 265.5,208.5C 259.221,208.16 253.054,208.826 247,210.5C 245.284,210.252 243.784,209.585 242.5,208.5C 238.963,212.001 234.63,213.334 229.5,212.5C 223.451,211.989 217.451,211.155 211.5,210C 202.043,204.201 192.877,198.034 184,191.5C 183.794,195.131 182.627,195.465 180.5,192.5C 180.81,190.799 180.31,189.132 179,187.5C 177.028,186.695 175.528,185.361 174.5,183.5C 174.709,182.914 175.043,182.414 175.5,182C 174.111,177.608 173.111,173.108 172.5,168.5C 171.127,168.657 169.793,168.49 168.5,168C 168.741,166.438 168.241,164.938 167,163.5C 166.79,165.058 166.29,166.391 165.5,167.5C 165.376,161.931 166.043,156.598 167.5,151.5C 169.022,152.431 170.355,153.598 171.5,155C 171.996,160.146 173.496,164.979 176,169.5C 178.879,170.909 180.545,173.243 181,176.5C 184.582,177.746 187.249,180.08 189,183.5C 189.414,183.043 189.914,182.709 190.5,182.5C 193.042,185.873 195.376,189.373 197.5,193C 200.887,194.027 203.887,195.527 206.5,197.5C 206.5,196.5 206.5,195.5 206.5,194.5C 208.833,194.5 211.167,194.5 213.5,194.5C 213.5,196.5 213.5,198.5 213.5,200.5C 220.833,200.5 228.167,200.5 235.5,200.5C 235.5,199.5 235.5,198.5 235.5,197.5C 238.167,197.5 240.833,197.5 243.5,197.5C 243.5,196.5 243.5,195.5 243.5,194.5C 253.169,194.211 262.835,193.878 272.5,193.5C 272.261,191.533 272.594,189.699 273.5,188C 278.127,186.843 282.793,186.01 287.5,185.5C 287.286,183.856 287.62,182.356 288.5,181C 298.138,179.748 307.805,178.915 317.5,178.5C 317.5,177.5 317.5,176.5 317.5,175.5C 320.167,175.5 322.833,175.5 325.5,175.5C 325.5,174.5 325.5,173.5 325.5,172.5C 330.844,172.666 336.177,172.499 341.5,172C 342.833,170.667 344.167,169.333 345.5,168C 347.112,167.28 348.612,167.446 350,168.5C 354.182,164.978 357.682,160.811 360.5,156C 361.742,155.689 362.742,156.189 363.5,157.5C 369.532,154.765 374.866,151.098 379.5,146.5C 381.045,145.548 382.712,145.215 384.5,145.5C 384.281,144.325 384.614,143.325 385.5,142.5C 393.17,137.009 401.003,131.676 409,126.5C 410.294,125.146 410.46,123.812 409.5,122.5C 410.815,120.684 412.315,119.017 414,117.5C 413.383,115.905 413.716,114.572 415,113.5C 415.29,115.044 415.956,116.377 417,117.5C 417.816,116.177 418.983,115.511 420.5,115.5 Z"/></g>
<g><path style="opacity:0.606" fill="#7d7d7d" d="M 423.5,118.5 C 424.479,119.765 425.479,121.099 426.5,122.5C 426.376,123.107 426.043,123.44 425.5,123.5C 424.833,122.833 424.167,122.167 423.5,121.5C 423.5,120.5 423.5,119.5 423.5,118.5 Z"/></g>
<g><path style="opacity:1" fill="#d1d1d1" d="M 423.5,121.5 C 424.167,122.167 424.833,122.833 425.5,123.5C 425.5,123.833 425.5,124.167 425.5,124.5C 426.338,128.499 426.838,132.499 427,136.5C 424.167,140 421,143.167 417.5,146C 418.257,148.848 417.257,151.181 414.5,153C 411.611,153.889 408.945,155.222 406.5,157C 401.317,160.76 396.317,164.76 391.5,169C 388.583,170.528 385.583,171.861 382.5,173C 381.794,174.91 380.794,176.91 379.5,179C 376.689,180.825 373.689,182.158 370.5,183C 367.646,186.864 363.98,189.53 359.5,191C 355.44,193.455 351.607,196.288 348,199.5C 344.517,198.561 341.684,199.727 339.5,203C 339.833,203.333 340.167,203.667 340.5,204C 338.167,204.333 335.833,204.667 333.5,205C 332.663,206.011 332.33,207.178 332.5,208.5C 327.507,208.916 322.507,209.249 317.5,209.5C 317.5,210.5 317.5,211.5 317.5,212.5C 310.087,212.467 302.754,213.134 295.5,214.5C 295.5,215.5 295.5,216.5 295.5,217.5C 288.211,218.565 280.878,219.398 273.5,220C 273.043,220.414 272.709,220.914 272.5,221.5C 250.441,223.006 228.441,222.673 206.5,220.5C 206.5,219.5 206.5,218.5 206.5,217.5C 201.144,216.99 196.811,214.656 193.5,210.5C 189.154,209.99 184.988,208.99 181,207.5C 174.514,198.189 169.847,187.522 167,175.5C 166.667,176.5 166.333,177.5 166,178.5C 165.502,175.183 165.335,171.85 165.5,168.5C 165.5,168.167 165.5,167.833 165.5,167.5C 166.29,166.391 166.79,165.058 167,163.5C 168.241,164.938 168.741,166.438 168.5,168C 169.793,168.49 171.127,168.657 172.5,168.5C 173.111,173.108 174.111,177.608 175.5,182C 175.043,182.414 174.709,182.914 174.5,183.5C 175.528,185.361 177.028,186.695 179,187.5C 180.31,189.132 180.81,190.799 180.5,192.5C 182.627,195.465 183.794,195.131 184,191.5C 192.877,198.034 202.043,204.201 211.5,210C 217.451,211.155 223.451,211.989 229.5,212.5C 234.63,213.334 238.963,212.001 242.5,208.5C 243.784,209.585 245.284,210.252 247,210.5C 253.054,208.826 259.221,208.16 265.5,208.5C 265.5,207.5 265.5,206.5 265.5,205.5C 275.237,202.923 285.237,201.59 295.5,201.5C 295.5,199.5 295.5,197.5 295.5,195.5C 305.183,195.377 314.85,194.877 324.5,194C 325.406,192.301 325.739,190.467 325.5,188.5C 332.754,187.134 340.087,186.467 347.5,186.5C 347.5,184.167 347.5,181.833 347.5,179.5C 350.579,179.74 353.579,179.407 356.5,178.5C 356.812,175.997 358.145,173.831 360.5,172C 361.833,172.333 363.167,172.667 364.5,173C 365.714,171.021 367.381,169.521 369.5,168.5C 369.291,167.914 368.957,167.414 368.5,167C 371.582,165.591 374.415,163.758 377,161.5C 377.864,165.097 379.031,164.93 380.5,161C 379.939,159.434 380.606,158.101 382.5,157C 383.742,156.689 384.742,157.189 385.5,158.5C 387.451,156.378 389.785,154.878 392.5,154C 391.949,152.602 391.616,151.268 391.5,150C 394.89,149.754 398.223,149.254 401.5,148.5C 401.812,145.997 403.145,143.831 405.5,142C 408.87,139.995 412.204,137.995 415.5,136C 415.167,135.667 414.833,135.333 414.5,135C 417.044,133.225 417.044,131.392 414.5,129.5C 415.976,128.12 416.976,126.453 417.5,124.5C 418.325,123.614 419.325,123.281 420.5,123.5C 420.343,124.873 420.51,126.207 421,127.5C 421.655,125.372 422.489,123.372 423.5,121.5 Z"/></g>
<g><path style="opacity:1" fill="#e1e1e1" d="M 119.5,127.5 C 113.843,139.483 110.177,152.15 108.5,165.5C 107.662,165.842 107.328,166.508 107.5,167.5C 106.698,168.952 106.198,170.618 106,172.5C 104.869,171.396 104.035,171.729 103.5,173.5C 104.326,174.451 104.492,175.451 104,176.5C 102.294,175.692 101.461,174.359 101.5,172.5C 85.4782,171.922 69.4782,170.922 53.5,169.5C 39.5033,170.763 25.5033,170.763 11.5,169.5C 10.3717,168.738 9.20508,168.071 8,167.5C 7.75083,168.624 7.25083,169.624 6.5,170.5C 5.83333,168.833 5.16667,167.167 4.5,165.5C 3.35068,167.925 2.68402,167.925 2.5,165.5C 4.1285,162.581 5.46183,159.581 6.5,156.5C 11.8108,146.225 18.8108,137.225 27.5,129.5C 27.2488,131.17 26.5822,132.67 25.5,134C 26.2266,135.399 26.7266,136.899 27,138.5C 29.4009,139.602 31.9009,139.769 34.5,139C 32.5,138.667 30.5,138.333 28.5,138C 31.047,137.933 33.2137,137.099 35,135.5C 39.226,137.618 44.0593,138.951 49.5,139.5C 51.8333,139.333 54.1667,139.167 56.5,139C 54.5,138.667 52.5,138.333 50.5,138C 52.8333,137.833 55.1667,137.667 57.5,137.5C 67.1094,139.237 76.7761,139.737 86.5,139C 81.8333,138.667 77.1667,138.333 72.5,138C 79.8258,137.5 87.1591,137.334 94.5,137.5C 94.5,136.5 94.5,135.5 94.5,134.5C 99.5503,132.728 104.884,131.561 110.5,131C 107.833,130.667 105.167,130.333 102.5,130C 104,129.833 105.5,129.667 107,129.5C 111.158,128.737 113.492,130.404 114,134.5C 114.89,131.366 116.724,129.033 119.5,127.5 Z"/></g>
<g><path style="opacity:1" fill="#cacaca" d="M 425.5,124.5 C 427.601,127.797 428.935,131.463 429.5,135.5C 430.498,142.16 431.498,148.827 432.5,155.5C 432.631,156.239 432.464,156.906 432,157.5C 431.73,154.638 430.896,151.972 429.5,149.5C 423.837,158.749 416.17,165.582 406.5,170C 403.713,172.026 402.047,174.36 401.5,177C 395.368,180.543 389.368,184.21 383.5,188C 382.167,190 380.833,192 379.5,194C 373.912,196.929 368.912,200.596 364.5,205C 360.919,205.461 357.919,206.961 355.5,209.5C 352.946,208.473 350.946,209.306 349.5,212C 345.879,212.178 343.212,213.845 341.5,217C 338.518,217.498 335.518,217.665 332.5,217.5C 332.5,218.5 332.5,219.5 332.5,220.5C 325.223,221.733 317.89,223.066 310.5,224.5C 310.5,225.5 310.5,226.5 310.5,227.5C 305.5,227.5 300.5,227.5 295.5,227.5C 295.5,228.5 295.5,229.5 295.5,230.5C 284.215,230.827 273.049,232.16 262,234.5C 252,234.5 242,234.5 232,234.5C 223.534,232.86 215.034,231.527 206.5,230.5C 206.5,229.5 206.5,228.5 206.5,227.5C 201.5,227.5 196.5,227.5 191.5,227.5C 191.5,226.5 191.5,225.5 191.5,224.5C 188.482,224.665 185.482,224.498 182.5,224C 180.743,220.133 178.243,216.299 175,212.5C 173.595,213.731 172.429,215.064 171.5,216.5C 169.463,209.463 167.797,202.297 166.5,195C 166.316,193.624 165.649,192.791 164.5,192.5C 164.5,191.5 164.5,190.5 164.5,189.5C 164.504,182.51 164.837,175.51 165.5,168.5C 165.335,171.85 165.502,175.183 166,178.5C 166.333,177.5 166.667,176.5 167,175.5C 169.847,187.522 174.514,198.189 181,207.5C 184.988,208.99 189.154,209.99 193.5,210.5C 196.811,214.656 201.144,216.99 206.5,217.5C 206.5,218.5 206.5,219.5 206.5,220.5C 228.441,222.673 250.441,223.006 272.5,221.5C 272.709,220.914 273.043,220.414 273.5,220C 280.878,219.398 288.211,218.565 295.5,217.5C 295.5,216.5 295.5,215.5 295.5,214.5C 302.754,213.134 310.087,212.467 317.5,212.5C 317.5,211.5 317.5,210.5 317.5,209.5C 322.507,209.249 327.507,208.916 332.5,208.5C 332.33,207.178 332.663,206.011 333.5,205C 335.833,204.667 338.167,204.333 340.5,204C 340.167,203.667 339.833,203.333 339.5,203C 341.684,199.727 344.517,198.561 348,199.5C 351.607,196.288 355.44,193.455 359.5,191C 363.98,189.53 367.646,186.864 370.5,183C 373.689,182.158 376.689,180.825 379.5,179C 380.794,176.91 381.794,174.91 382.5,173C 385.583,171.861 388.583,170.528 391.5,169C 396.317,164.76 401.317,160.76 406.5,157C 408.945,155.222 411.611,153.889 414.5,153C 417.257,151.181 418.257,148.848 417.5,146C 421,143.167 424.167,140 427,136.5C 426.838,132.499 426.338,128.499 425.5,124.5 Z"/></g>
<g><path style="opacity:1" fill="#949494" d="M 182.5,59.5 C 153.618,82.0707 132.285,109.571 118.5,142C 118.957,142.414 119.291,142.914 119.5,143.5C 110.209,165.934 110.542,187.767 120.5,209C 120.167,209.333 119.833,209.667 119.5,210C 120.781,212.427 121.781,214.927 122.5,217.5C 121.196,216.013 120.03,214.346 119,212.5C 113.561,197.167 110.061,181.501 108.5,165.5C 110.177,152.15 113.843,139.483 119.5,127.5C 121.403,122.023 124.07,117.023 127.5,112.5C 129.129,110.94 130.296,111.273 131,113.5C 144.261,91.7395 161.428,73.7395 182.5,59.5 Z"/></g>
<g><path style="opacity:1" fill="#c4c4c4" d="M 432.5,155.5 C 433.167,155.833 433.833,156.167 434.5,156.5C 434.5,157.5 434.5,158.5 434.5,159.5C 433.527,161.948 433.194,164.615 433.5,167.5C 432.531,165.337 431.698,163.004 431,160.5C 430.667,162.833 430.333,165.167 430,167.5C 429.751,166.376 429.251,165.376 428.5,164.5C 426.909,166.633 424.909,168.299 422.5,169.5C 422.039,174.4 419.373,176.4 414.5,175.5C 414.762,176.978 414.429,178.311 413.5,179.5C 407.343,183.17 401.343,187.003 395.5,191C 393.586,192.413 392.253,194.247 391.5,196.5C 389.345,197.928 387.179,198.261 385,197.5C 384.781,198.938 384.281,200.271 383.5,201.5C 379.205,204.319 374.872,207.152 370.5,210C 369.745,212.133 368.412,213.8 366.5,215C 359.716,216.113 354.549,218.947 351,223.5C 350.586,223.043 350.086,222.709 349.5,222.5C 347.885,223.154 346.218,223.654 344.5,224C 341.147,227.162 337.313,229.662 333,231.5C 329.943,231.316 326.943,231.316 324,231.5C 314.729,234.859 305.229,237.359 295.5,239C 279.302,239.729 263.135,240.895 247,242.5C 241.927,242.291 236.927,241.625 232,240.5C 229.521,241.245 227.021,241.911 224.5,242.5C 214.67,238.547 204.837,238.547 195,242.5C 189.663,240.912 185.83,237.579 183.5,232.5C 181.235,231.3 179.402,229.633 178,227.5C 177.996,229.368 178.496,231.202 179.5,233C 179.43,233.765 179.097,234.265 178.5,234.5C 177.341,230.849 175.674,227.515 173.5,224.5C 172.662,224.158 172.328,223.492 172.5,222.5C 172.675,220.379 172.341,218.379 171.5,216.5C 172.429,215.064 173.595,213.731 175,212.5C 178.243,216.299 180.743,220.133 182.5,224C 185.482,224.498 188.482,224.665 191.5,224.5C 191.5,225.5 191.5,226.5 191.5,227.5C 196.5,227.5 201.5,227.5 206.5,227.5C 206.5,228.5 206.5,229.5 206.5,230.5C 215.034,231.527 223.534,232.86 232,234.5C 242,234.5 252,234.5 262,234.5C 273.049,232.16 284.215,230.827 295.5,230.5C 295.5,229.5 295.5,228.5 295.5,227.5C 300.5,227.5 305.5,227.5 310.5,227.5C 310.5,226.5 310.5,225.5 310.5,224.5C 317.89,223.066 325.223,221.733 332.5,220.5C 332.5,219.5 332.5,218.5 332.5,217.5C 335.518,217.665 338.518,217.498 341.5,217C 343.212,213.845 345.879,212.178 349.5,212C 350.946,209.306 352.946,208.473 355.5,209.5C 357.919,206.961 360.919,205.461 364.5,205C 368.912,200.596 373.912,196.929 379.5,194C 380.833,192 382.167,190 383.5,188C 389.368,184.21 395.368,180.543 401.5,177C 402.047,174.36 403.713,172.026 406.5,170C 416.17,165.582 423.837,158.749 429.5,149.5C 430.896,151.972 431.73,154.638 432,157.5C 432.464,156.906 432.631,156.239 432.5,155.5 Z"/></g>
<g><path style="opacity:1" fill="#989898" d="M 429.5,135.5 C 432.24,142.133 433.907,149.133 434.5,156.5C 433.833,156.167 433.167,155.833 432.5,155.5C 431.498,148.827 430.498,142.16 429.5,135.5 Z"/></g>
<g><path style="opacity:1" fill="#bababa" d="M 564.5,120.5 C 567.849,121.684 570.015,124.017 571,127.5C 580.501,137.488 588.668,148.488 595.5,160.5C 596.15,162.435 596.483,164.435 596.5,166.5C 595.034,165.653 594.2,164.32 594,162.5C 593.517,163.448 593.351,164.448 593.5,165.5C 589.818,165.335 586.152,165.501 582.5,166C 581.257,167.154 580.257,168.488 579.5,170C 568.332,170.093 557.332,171.426 546.5,174C 544.005,175.827 541.505,177.66 539,179.5C 537.85,180.424 536.85,180.424 536,179.5C 535.646,181.807 534.646,182.141 533,180.5C 528.635,182.686 524.468,185.853 520.5,190C 514.984,189.131 511.317,191.298 509.5,196.5C 502.845,199.028 498.345,203.028 496,208.5C 494.197,204.488 493.197,204.822 493,209.5C 492.066,208.142 491.232,206.808 490.5,205.5C 492.111,196.887 493.445,188.221 494.5,179.5C 495.695,179.134 496.361,178.301 496.5,177C 495.713,174.901 495.38,172.734 495.5,170.5C 497.5,170.5 499.5,170.5 501.5,170.5C 501.5,169.5 501.5,168.5 501.5,167.5C 499.533,167.261 497.699,167.594 496,168.5C 495.333,166.833 495.333,165.167 496,163.5C 496.483,164.448 496.649,165.448 496.5,166.5C 501.5,166.5 506.5,166.5 511.5,166.5C 511.5,165.5 511.5,164.5 511.5,163.5C 513.833,163.5 516.167,163.5 518.5,163.5C 518.5,161.833 518.5,160.167 518.5,158.5C 523.386,157.133 528.386,156.133 533.5,155.5C 533.5,154.167 533.5,152.833 533.5,151.5C 538.386,150.133 543.386,149.133 548.5,148.5C 548.5,147.5 548.5,146.5 548.5,145.5C 550.167,145.5 551.833,145.5 553.5,145.5C 553.5,143.167 553.5,140.833 553.5,138.5C 557.24,138.759 560.906,138.426 564.5,137.5C 565.23,135.659 565.897,133.825 566.5,132C 566.167,131.667 565.833,131.333 565.5,131C 566.833,130.667 568.167,130.333 569.5,130C 568.747,126.327 567.08,123.16 564.5,120.5 Z"/></g>
<g><path style="opacity:1" fill="#bebebe" d="M 433.5,167.5 C 433.665,170.85 433.498,174.183 433,177.5C 432.138,175.913 431.471,174.246 431,172.5C 430.239,175.053 429.406,177.553 428.5,180C 419.663,186.85 410.329,192.85 400.5,198C 399.606,200.892 397.94,203.226 395.5,205C 391.916,207.041 388.416,209.208 385,211.5C 384.517,212.448 384.351,213.448 384.5,214.5C 380.156,215.107 376.489,216.94 373.5,220C 373.833,220.333 374.167,220.667 374.5,221C 373.335,222.084 372.002,222.917 370.5,223.5C 368.231,220.942 366.565,221.442 365.5,225C 361.751,226.527 358.418,228.694 355.5,231.5C 354.833,230.833 354.167,230.167 353.5,229.5C 351.489,232.813 348.823,234.48 345.5,234.5C 343.572,236.578 341.405,237.245 339,236.5C 334.811,241.787 329.311,243.954 322.5,243C 320.07,245.799 317.237,246.299 314,244.5C 310.279,245.889 306.446,246.556 302.5,246.5C 302.5,247.5 302.5,248.5 302.5,249.5C 273.95,251.137 245.45,250.804 217,248.5C 214.51,249.336 212.01,250.002 209.5,250.5C 209.5,252.833 209.5,255.167 209.5,257.5C 207.473,257.338 205.473,257.505 203.5,258C 204.579,258.956 205.745,259.789 207,260.5C 207.492,261.549 207.326,262.549 206.5,263.5C 214.113,272.152 222.78,279.652 232.5,286C 231.289,286.893 231.289,287.726 232.5,288.5C 235.589,285.544 237.256,286.211 237.5,290.5C 239.989,290.298 242.323,290.798 244.5,292C 245.833,292.667 245.833,293.333 244.5,294C 245.865,295.682 247.365,295.849 249,294.5C 252.987,294.834 256.32,296.5 259,299.5C 259.414,299.043 259.914,298.709 260.5,298.5C 265.116,299.096 269.449,300.429 273.5,302.5C 275.981,301.237 278.315,301.404 280.5,303C 278.833,303.333 277.167,303.667 275.5,304C 278.426,304.218 281.26,304.718 284,305.5C 287.565,303.437 291.232,303.437 295,305.5C 303.884,305.079 312.718,304.079 321.5,302.5C 323.236,303.425 325.07,304.092 327,304.5C 332.875,303.491 338.709,302.658 344.5,302C 334.957,306.691 324.957,308.524 314.5,307.5C 307.862,308.258 301.196,308.758 294.5,309C 297.167,309.333 299.833,309.667 302.5,310C 298.179,310.499 293.846,310.666 289.5,310.5C 285.731,310.756 282.064,310.423 278.5,309.5C 267.05,306.797 255.717,303.464 244.5,299.5C 242.326,299.25 240.659,298.25 239.5,296.5C 233.295,292.566 226.961,288.899 220.5,285.5C 218.596,285.262 217.262,284.262 216.5,282.5C 210.193,276.528 203.86,270.528 197.5,264.5C 189.951,257.323 184.284,249.323 180.5,240.5C 180.396,238.297 179.73,236.297 178.5,234.5C 179.097,234.265 179.43,233.765 179.5,233C 178.496,231.202 177.996,229.368 178,227.5C 179.402,229.633 181.235,231.3 183.5,232.5C 185.83,237.579 189.663,240.912 195,242.5C 204.837,238.547 214.67,238.547 224.5,242.5C 227.021,241.911 229.521,241.245 232,240.5C 236.927,241.625 241.927,242.291 247,242.5C 263.135,240.895 279.302,239.729 295.5,239C 305.229,237.359 314.729,234.859 324,231.5C 326.943,231.316 329.943,231.316 333,231.5C 337.313,229.662 341.147,227.162 344.5,224C 346.218,223.654 347.885,223.154 349.5,222.5C 350.086,222.709 350.586,223.043 351,223.5C 354.549,218.947 359.716,216.113 366.5,215C 368.412,213.8 369.745,212.133 370.5,210C 374.872,207.152 379.205,204.319 383.5,201.5C 384.281,200.271 384.781,198.938 385,197.5C 387.179,198.261 389.345,197.928 391.5,196.5C 392.253,194.247 393.586,192.413 395.5,191C 401.343,187.003 407.343,183.17 413.5,179.5C 414.429,178.311 414.762,176.978 414.5,175.5C 419.373,176.4 422.039,174.4 422.5,169.5C 424.909,168.299 426.909,166.633 428.5,164.5C 429.251,165.376 429.751,166.376 430,167.5C 430.333,165.167 430.667,162.833 431,160.5C 431.698,163.004 432.531,165.337 433.5,167.5 Z"/></g>
<g><path style="opacity:1" fill="#b2b2b2" d="M 596.5,166.5 C 596.158,169.279 594.991,171.612 593,173.5C 592.667,172.5 592.333,171.5 592,170.5C 585.146,172.729 578.313,175.063 571.5,177.5C 570.808,176.975 570.308,176.308 570,175.5C 565.041,177.728 559.874,179.395 554.5,180.5C 552.786,179.391 552.119,180.058 552.5,182.5C 548.458,182.523 544.792,183.689 541.5,186C 534.392,191.591 526.725,196.257 518.5,200C 515.803,202.04 513.137,204.04 510.5,206C 510.833,206.333 511.167,206.667 511.5,207C 506.899,211.287 501.899,214.954 496.5,218C 495.809,219.067 495.309,220.234 495,221.5C 494.667,221.167 494.333,220.833 494,220.5C 493.492,222.904 492.325,223.571 490.5,222.5C 488.937,228.617 486.77,228.951 484,223.5C 483.667,224.833 483.333,226.167 483,227.5C 482.667,227.167 482.333,226.833 482,226.5C 481.8,228.32 480.966,229.653 479.5,230.5C 482.93,221.982 486.597,213.648 490.5,205.5C 491.232,206.808 492.066,208.142 493,209.5C 493.197,204.822 494.197,204.488 496,208.5C 498.345,203.028 502.845,199.028 509.5,196.5C 511.317,191.298 514.984,189.131 520.5,190C 524.468,185.853 528.635,182.686 533,180.5C 534.646,182.141 535.646,181.807 536,179.5C 536.85,180.424 537.85,180.424 539,179.5C 541.505,177.66 544.005,175.827 546.5,174C 557.332,171.426 568.332,170.093 579.5,170C 580.257,168.488 581.257,167.154 582.5,166C 586.152,165.501 589.818,165.335 593.5,165.5C 593.351,164.448 593.517,163.448 594,162.5C 594.2,164.32 595.034,165.653 596.5,166.5 Z"/></g>
<g><path style="opacity:0.055" fill="#7e7e7e" d="M 6.5,156.5 C 5.46183,159.581 4.1285,162.581 2.5,165.5C 1.83333,166.5 1.16667,167.5 0.5,168.5C 0.5,167.833 0.166667,167.5 -0.5,167.5C -0.5,166.833 -0.5,166.167 -0.5,165.5C 1.45124,162.214 3.78457,159.214 6.5,156.5 Z"/></g>
<g><path style="opacity:1" fill="#939393" d="M 480.5,139.5 C 482.335,140.122 483.502,141.456 484,143.5C 489.187,159.499 490.687,175.832 488.5,192.5C 486.987,197.816 485.154,203.149 483,208.5C 482.583,209.756 481.75,210.423 480.5,210.5C 489.806,186.842 489.806,163.175 480.5,139.5 Z"/></g>
<g><path style="opacity:1" fill="#d3d3d3" d="M 2.5,165.5 C 2.68402,167.925 3.35068,167.925 4.5,165.5C 5.16667,167.167 5.83333,168.833 6.5,170.5C 7.25083,169.624 7.75083,168.624 8,167.5C 9.20508,168.071 10.3717,168.738 11.5,169.5C 25.5033,170.763 39.5033,170.763 53.5,169.5C 69.4782,170.922 85.4782,171.922 101.5,172.5C 101.461,174.359 102.294,175.692 104,176.5C 104.492,175.451 104.326,174.451 103.5,173.5C 104.035,171.729 104.869,171.396 106,172.5C 106.198,170.618 106.698,168.952 107.5,167.5C 107.358,175.208 107.858,182.875 109,190.5C 111.176,197.878 113.343,205.212 115.5,212.5C 116.323,214.455 116.49,216.455 116,218.5C 114.333,214.877 112.666,211.211 111,207.5C 110,208.833 109,210.167 108,211.5C 103.426,209.124 99.2598,206.124 95.5,202.5C 94.7492,203.376 94.2492,204.376 94,205.5C 91.473,202.973 88.973,200.473 86.5,198C 79.3717,195.769 72.7051,192.436 66.5,188C 60.9626,186.311 55.2959,185.144 49.5,184.5C 46.5871,183.817 44.0871,182.483 42,180.5C 40.769,181.108 39.4357,181.441 38,181.5C 29.2474,179.805 20.4141,178.638 11.5,178C 10.3333,177.5 9.5,176.667 9,175.5C 7.89037,177.037 6.39037,177.703 4.5,177.5C 4.58747,174.402 4.08747,174.068 3,176.5C 2.66667,175.833 2.33333,175.167 2,174.5C 2.28404,176.679 2.11737,178.679 1.5,180.5C 0.57007,176.6 0.236737,172.6 0.5,168.5C 1.16667,167.5 1.83333,166.5 2.5,165.5 Z"/></g>
<g><path style="opacity:0.325" fill="#a0a0a0" d="M 166.5,146.5 C 167.301,148.042 167.634,149.708 167.5,151.5C 166.043,156.598 165.376,161.931 165.5,167.5C 165.5,167.833 165.5,168.167 165.5,168.5C 164.837,175.51 164.504,182.51 164.5,189.5C 163.341,179.342 163.175,169.008 164,158.5C 164.335,154.264 165.168,150.264 166.5,146.5 Z"/></g>
<g><path style="opacity:1" fill="#b7b7b7" d="M 433.5,167.5 C 434.689,176.064 434.356,184.731 432.5,193.5C 431.839,192.282 431.172,190.949 430.5,189.5C 429.749,190.376 429.249,191.376 429,192.5C 428.667,191.833 428.333,191.167 428,190.5C 426.411,193.921 424.245,196.921 421.5,199.5C 417.244,200.358 413.244,201.858 409.5,204C 409.167,205 408.833,206 408.5,207C 406.481,207.45 404.648,208.283 403,209.5C 402.439,208.978 401.772,208.645 401,208.5C 398.913,210.126 396.747,211.626 394.5,213C 393.167,215 391.833,217 390.5,219C 388.369,219.543 386.369,220.376 384.5,221.5C 380.421,225.357 376.088,228.857 371.5,232C 369.833,232.333 368.167,232.667 366.5,233C 356.509,238.246 346.342,243.079 336,247.5C 334.984,246.366 334.317,246.699 334,248.5C 333.667,248.167 333.333,247.833 333,247.5C 325.764,250.287 318.264,252.454 310.5,254C 300.557,255.816 290.557,257.316 280.5,258.5C 260.497,259.269 240.497,259.936 220.5,260.5C 220.719,259.325 220.386,258.325 219.5,257.5C 218.526,259.743 218.192,262.076 218.5,264.5C 219.822,264.33 220.989,264.663 222,265.5C 223.667,268.5 225.333,271.5 227,274.5C 230.304,276.98 233.471,279.813 236.5,283C 238.949,283.725 241.283,284.725 243.5,286C 241.519,286.605 241.185,287.605 242.5,289C 249.063,289.964 255.063,292.297 260.5,296C 268.268,297.604 276.101,298.77 284,299.5C 286.888,300.361 289.721,301.361 292.5,302.5C 308.869,301.425 325.202,299.258 341.5,296C 344.874,294.896 348.041,293.396 351,291.5C 353.12,293.068 354.62,292.568 355.5,290C 357.618,289.365 359.618,288.531 361.5,287.5C 363.86,289.305 365.527,288.805 366.5,286C 369.4,284.258 372.4,282.758 375.5,281.5C 374.624,280.749 373.624,280.249 372.5,280C 373.738,279.31 373.738,278.81 372.5,278.5C 375.868,276.082 379.368,273.749 383,271.5C 383.333,271.833 383.667,272.167 384,272.5C 385.783,269.093 388.616,267.259 392.5,267C 394.394,265.899 395.061,264.566 394.5,263C 395.211,261.745 396.044,260.579 397,259.5C 398.911,259.255 400.911,259.255 403,259.5C 404.247,257.119 404.58,257.453 404,260.5C 402.519,261.471 401.685,262.804 401.5,264.5C 395.14,270.528 388.807,276.528 382.5,282.5C 355.414,304.75 324.414,314.084 289.5,310.5C 293.846,310.666 298.179,310.499 302.5,310C 299.833,309.667 297.167,309.333 294.5,309C 301.196,308.758 307.862,308.258 314.5,307.5C 324.957,308.524 334.957,306.691 344.5,302C 338.709,302.658 332.875,303.491 327,304.5C 325.07,304.092 323.236,303.425 321.5,302.5C 312.718,304.079 303.884,305.079 295,305.5C 291.232,303.437 287.565,303.437 284,305.5C 281.26,304.718 278.426,304.218 275.5,304C 277.167,303.667 278.833,303.333 280.5,303C 278.315,301.404 275.981,301.237 273.5,302.5C 269.449,300.429 265.116,299.096 260.5,298.5C 259.914,298.709 259.414,299.043 259,299.5C 256.32,296.5 252.987,294.834 249,294.5C 247.365,295.849 245.865,295.682 244.5,294C 245.833,293.333 245.833,292.667 244.5,292C 242.323,290.798 239.989,290.298 237.5,290.5C 237.256,286.211 235.589,285.544 232.5,288.5C 231.289,287.726 231.289,286.893 232.5,286C 222.78,279.652 214.113,272.152 206.5,263.5C 207.326,262.549 207.492,261.549 207,260.5C 205.745,259.789 204.579,258.956 203.5,258C 205.473,257.505 207.473,257.338 209.5,257.5C 209.5,255.167 209.5,252.833 209.5,250.5C 212.01,250.002 214.51,249.336 217,248.5C 245.45,250.804 273.95,251.137 302.5,249.5C 302.5,248.5 302.5,247.5 302.5,246.5C 306.446,246.556 310.279,245.889 314,244.5C 317.237,246.299 320.07,245.799 322.5,243C 329.311,243.954 334.811,241.787 339,236.5C 341.405,237.245 343.572,236.578 345.5,234.5C 348.823,234.48 351.489,232.813 353.5,229.5C 354.167,230.167 354.833,230.833 355.5,231.5C 358.418,228.694 361.751,226.527 365.5,225C 366.565,221.442 368.231,220.942 370.5,223.5C 372.002,222.917 373.335,222.084 374.5,221C 374.167,220.667 373.833,220.333 373.5,220C 376.489,216.94 380.156,215.107 384.5,214.5C 384.351,213.448 384.517,212.448 385,211.5C 388.416,209.208 391.916,207.041 395.5,205C 397.94,203.226 399.606,200.892 400.5,198C 410.329,192.85 419.663,186.85 428.5,180C 429.406,177.553 430.239,175.053 431,172.5C 431.471,174.246 432.138,175.913 433,177.5C 433.498,174.183 433.665,170.85 433.5,167.5 Z"/></g>
<g><path style="opacity:1" fill="#a7a7a7" d="M 595.5,160.5 C 597.342,162.19 598.675,164.19 599.5,166.5C 599.5,166.833 599.5,167.167 599.5,167.5C 598.833,167.5 598.5,167.833 598.5,168.5C 598.763,172.6 598.43,176.6 597.5,180.5C 596.698,179.048 596.198,177.382 596,175.5C 595.027,177.392 594.36,179.392 594,181.5C 593.333,180.167 592.333,179.167 591,178.5C 587.901,179.455 584.734,180.289 581.5,181C 576.261,183.411 570.928,185.411 565.5,187C 562.778,189.003 560.112,191.003 557.5,193C 556.216,193.684 555.049,193.517 554,192.5C 542.517,201.012 531.35,209.845 520.5,219C 516.355,220.237 512.688,222.237 509.5,225C 503.848,230.992 497.181,235.659 489.5,239C 486.446,243.138 482.446,245.805 477.5,247C 473.663,250.742 469.663,254.242 465.5,257.5C 465.089,256.738 464.923,255.738 465,254.5C 464.617,255.056 464.117,255.389 463.5,255.5C 468.088,246.65 473.421,238.316 479.5,230.5C 480.966,229.653 481.8,228.32 482,226.5C 482.333,226.833 482.667,227.167 483,227.5C 483.333,226.167 483.667,224.833 484,223.5C 486.77,228.951 488.937,228.617 490.5,222.5C 492.325,223.571 493.492,222.904 494,220.5C 494.333,220.833 494.667,221.167 495,221.5C 495.309,220.234 495.809,219.067 496.5,218C 501.899,214.954 506.899,211.287 511.5,207C 511.167,206.667 510.833,206.333 510.5,206C 513.137,204.04 515.803,202.04 518.5,200C 526.725,196.257 534.392,191.591 541.5,186C 544.792,183.689 548.458,182.523 552.5,182.5C 552.119,180.058 552.786,179.391 554.5,180.5C 559.874,179.395 565.041,177.728 570,175.5C 570.308,176.308 570.808,176.975 571.5,177.5C 578.313,175.063 585.146,172.729 592,170.5C 592.333,171.5 592.667,172.5 593,173.5C 594.991,171.612 596.158,169.279 596.5,166.5C 596.483,164.435 596.15,162.435 595.5,160.5 Z"/></g>
<g><path style="opacity:1" fill="#cbcbcb" d="M 115.5,212.5 C 117.159,215.674 118.826,219.008 120.5,222.5C 121.698,222.94 122.865,223.273 124,223.5C 125.978,228.279 128.811,232.279 132.5,235.5C 133.11,236.391 133.443,237.391 133.5,238.5C 135.144,241.004 136.644,243.671 138,246.5C 138.333,248.5 138.667,250.5 139,252.5C 141.312,255.646 143.812,258.646 146.5,261.5C 146.167,261.833 145.833,262.167 145.5,262.5C 143.84,261.828 142.507,260.828 141.5,259.5C 134.682,250.542 128.349,241.208 122.5,231.5C 121.224,230.355 119.891,230.355 118.5,231.5C 117.719,230.271 117.219,228.938 117,227.5C 116.546,233.788 115.046,234.122 112.5,228.5C 110.922,227.702 109.256,227.202 107.5,227C 95.9084,218.531 84.2418,210.365 72.5,202.5C 72.7036,203.529 72.2036,204.529 71,205.5C 66.6266,201.823 62.2933,198.156 58,194.5C 55.2809,195.444 52.4475,195.777 49.5,195.5C 49.4386,193.408 48.4386,191.908 46.5,191C 40.4968,188.456 34.1634,186.956 27.5,186.5C 25.5101,185.502 23.5101,184.502 21.5,183.5C 18.2995,183.566 15.1329,183.566 12,183.5C 10.1935,178.75 7.86014,178.417 5,182.5C 4.46436,184.567 4.96436,186.401 6.5,188C 6.27155,188.399 5.93822,188.565 5.5,188.5C 3.659,186.151 2.32567,183.485 1.5,180.5C 2.11737,178.679 2.28404,176.679 2,174.5C 2.33333,175.167 2.66667,175.833 3,176.5C 4.08747,174.068 4.58747,174.402 4.5,177.5C 6.39037,177.703 7.89037,177.037 9,175.5C 9.5,176.667 10.3333,177.5 11.5,178C 20.4141,178.638 29.2474,179.805 38,181.5C 39.4357,181.441 40.769,181.108 42,180.5C 44.0871,182.483 46.5871,183.817 49.5,184.5C 55.2959,185.144 60.9626,186.311 66.5,188C 72.7051,192.436 79.3717,195.769 86.5,198C 88.973,200.473 91.473,202.973 94,205.5C 94.2492,204.376 94.7492,203.376 95.5,202.5C 99.2598,206.124 103.426,209.124 108,211.5C 109,210.167 110,208.833 111,207.5C 112.666,211.211 114.333,214.877 116,218.5C 116.49,216.455 116.323,214.455 115.5,212.5 Z"/></g>
<g><path style="opacity:1" fill="#9b9b9b" d="M 597.5,180.5 C 596.696,183.442 595.362,186.109 593.5,188.5C 592.842,187.602 592.176,186.602 591.5,185.5C 584.129,190.033 576.629,194.366 569,198.5C 568.667,198.167 568.333,197.833 568,197.5C 567.482,200.023 566.148,202.023 564,203.5C 563.667,203.167 563.333,202.833 563,202.5C 559.38,205.234 556.047,207.568 553,209.5C 552.517,210.448 552.351,211.448 552.5,212.5C 548.625,213.177 545.292,215.01 542.5,218C 540.975,219.009 539.308,219.509 537.5,219.5C 537.688,221.103 537.188,222.437 536,223.5C 535.667,223.167 535.333,222.833 535,222.5C 530.475,226.363 525.975,230.196 521.5,234C 517.16,234.924 513.493,236.757 510.5,239.5C 510.5,240.5 510.5,241.5 510.5,242.5C 501.428,245.102 493.094,249.768 485.5,256.5C 475.833,261.808 466.5,266.974 457.5,272C 456.256,272.456 455.423,271.956 455,270.5C 452.044,273.456 449.044,276.456 446,279.5C 445.184,278.177 444.017,277.511 442.5,277.5C 449.479,270.518 456.146,263.184 462.5,255.5C 462.833,255.5 463.167,255.5 463.5,255.5C 464.117,255.389 464.617,255.056 465,254.5C 464.923,255.738 465.089,256.738 465.5,257.5C 469.663,254.242 473.663,250.742 477.5,247C 482.446,245.805 486.446,243.138 489.5,239C 497.181,235.659 503.848,230.992 509.5,225C 512.688,222.237 516.355,220.237 520.5,219C 531.35,209.845 542.517,201.012 554,192.5C 555.049,193.517 556.216,193.684 557.5,193C 560.112,191.003 562.778,189.003 565.5,187C 570.928,185.411 576.261,183.411 581.5,181C 584.734,180.289 587.901,179.455 591,178.5C 592.333,179.167 593.333,180.167 594,181.5C 594.36,179.392 595.027,177.392 596,175.5C 596.198,177.382 596.698,179.048 597.5,180.5 Z"/></g>
<g><path style="opacity:1" fill="#c0c0c0" d="M 141.5,259.5 C 140.761,259.369 140.094,259.536 139.5,260C 141.014,261.439 141.347,262.939 140.5,264.5C 138.273,260.961 135.44,257.961 132,255.5C 131.586,255.957 131.086,256.291 130.5,256.5C 126.049,254.235 121.382,252.402 116.5,251C 114.032,249.697 111.699,248.197 109.5,246.5C 107.52,247.383 105.52,247.217 103.5,246C 100.667,243.833 97.8333,241.667 95,239.5C 94.6667,240.167 94.3333,240.833 94,241.5C 84.6861,235.178 75.5195,228.678 66.5,222C 64.5,221.333 62.5,220.667 60.5,220C 59.7433,218.488 58.7433,217.154 57.5,216C 54.0402,214.198 50.8736,212.031 48,209.5C 44.9668,209.281 41.8001,208.448 38.5,207C 38.1667,206 37.8333,205 37.5,204C 32.799,202.773 28.6323,200.606 25,197.5C 24.6667,198.167 24.3333,198.833 24,199.5C 21.2741,195.997 17.6075,193.997 13,193.5C 11.9231,194.429 10.7564,195.096 9.5,195.5C 7.91378,193.33 6.58044,190.996 5.5,188.5C 5.93822,188.565 6.27155,188.399 6.5,188C 4.96436,186.401 4.46436,184.567 5,182.5C 7.86014,178.417 10.1935,178.75 12,183.5C 15.1329,183.566 18.2995,183.566 21.5,183.5C 23.5101,184.502 25.5101,185.502 27.5,186.5C 34.1634,186.956 40.4968,188.456 46.5,191C 48.4386,191.908 49.4386,193.408 49.5,195.5C 52.4475,195.777 55.2809,195.444 58,194.5C 62.2933,198.156 66.6266,201.823 71,205.5C 72.2036,204.529 72.7036,203.529 72.5,202.5C 84.2418,210.365 95.9084,218.531 107.5,227C 109.256,227.202 110.922,227.702 112.5,228.5C 115.046,234.122 116.546,233.788 117,227.5C 117.219,228.938 117.719,230.271 118.5,231.5C 119.891,230.355 121.224,230.355 122.5,231.5C 128.349,241.208 134.682,250.542 141.5,259.5 Z"/></g>
<g><path style="opacity:1" fill="#b1b1b1" d="M 432.5,193.5 C 431.88,202.98 429.547,211.98 425.5,220.5C 425.167,220 424.833,219.5 424.5,219C 425.493,216.547 425.66,214.047 425,211.5C 424.25,212.126 423.416,212.626 422.5,213C 421.399,216.42 420.065,219.754 418.5,223C 415.631,225.225 414.131,224.392 414,220.5C 413.503,222.81 413.337,225.143 413.5,227.5C 412.167,227.5 410.833,227.5 409.5,227.5C 409.5,225.167 409.5,222.833 409.5,220.5C 410.675,220.719 411.675,220.386 412.5,219.5C 411.974,217.77 410.974,216.436 409.5,215.5C 402.188,222.309 394.688,228.975 387,235.5C 381.921,237.099 377.088,239.933 372.5,244C 364.709,247.062 357.043,250.396 349.5,254C 344.027,253.682 339.36,255.349 335.5,259C 317.398,261.165 299.065,263.998 280.5,267.5C 266.794,268.079 253.128,269.079 239.5,270.5C 237.9,270.449 236.4,270.116 235,269.5C 233.513,270.253 233.346,271.086 234.5,272C 237.267,273.161 239.933,274.327 242.5,275.5C 242.5,276.833 242.5,278.167 242.5,279.5C 245.206,279.575 247.873,279.908 250.5,280.5C 250.281,281.675 250.614,282.675 251.5,283.5C 255.207,285.024 258.873,286.524 262.5,288C 261.346,288.914 261.513,289.747 263,290.5C 263.414,290.043 263.914,289.709 264.5,289.5C 275.851,293.046 287.351,295.712 299,297.5C 307.845,296.799 316.678,295.966 325.5,295C 327.615,294.443 329.615,293.609 331.5,292.5C 332.192,293.025 332.692,293.692 333,294.5C 338.612,292.074 344.445,290.241 350.5,289C 358.578,284.82 365.911,281.32 372.5,278.5C 373.738,278.81 373.738,279.31 372.5,280C 373.624,280.249 374.624,280.749 375.5,281.5C 372.4,282.758 369.4,284.258 366.5,286C 365.527,288.805 363.86,289.305 361.5,287.5C 359.618,288.531 357.618,289.365 355.5,290C 354.62,292.568 353.12,293.068 351,291.5C 348.041,293.396 344.874,294.896 341.5,296C 325.202,299.258 308.869,301.425 292.5,302.5C 289.721,301.361 286.888,300.361 284,299.5C 276.101,298.77 268.268,297.604 260.5,296C 255.063,292.297 249.063,289.964 242.5,289C 241.185,287.605 241.519,286.605 243.5,286C 241.283,284.725 238.949,283.725 236.5,283C 233.471,279.813 230.304,276.98 227,274.5C 225.333,271.5 223.667,268.5 222,265.5C 220.989,264.663 219.822,264.33 218.5,264.5C 218.192,262.076 218.526,259.743 219.5,257.5C 220.386,258.325 220.719,259.325 220.5,260.5C 240.497,259.936 260.497,259.269 280.5,258.5C 290.557,257.316 300.557,255.816 310.5,254C 318.264,252.454 325.764,250.287 333,247.5C 333.333,247.833 333.667,248.167 334,248.5C 334.317,246.699 334.984,246.366 336,247.5C 346.342,243.079 356.509,238.246 366.5,233C 368.167,232.667 369.833,232.333 371.5,232C 376.088,228.857 380.421,225.357 384.5,221.5C 386.369,220.376 388.369,219.543 390.5,219C 391.833,217 393.167,215 394.5,213C 396.747,211.626 398.913,210.126 401,208.5C 401.772,208.645 402.439,208.978 403,209.5C 404.648,208.283 406.481,207.45 408.5,207C 408.833,206 409.167,205 409.5,204C 413.244,201.858 417.244,200.358 421.5,199.5C 424.245,196.921 426.411,193.921 428,190.5C 428.333,191.167 428.667,191.833 429,192.5C 429.249,191.376 429.749,190.376 430.5,189.5C 431.172,190.949 431.839,192.282 432.5,193.5 Z"/></g>
<g><path style="opacity:1" fill="#8e8e8e" d="M 593.5,188.5 C 588.541,197.411 582.375,205.411 575,212.5C 574.221,210.094 575.054,208.427 577.5,207.5C 575.813,206.432 574.146,206.599 572.5,208C 571.016,209.574 569.349,210.907 567.5,212C 568.328,212.915 569.328,213.581 570.5,214C 568.833,214.333 567.167,214.667 565.5,215C 566.167,215.333 566.833,215.667 567.5,216C 563.297,217.209 559.297,218.876 555.5,221C 553.049,223.305 550.383,226.139 547.5,229.5C 545.615,230.609 543.615,231.443 541.5,232C 540.687,233.803 539.52,235.303 538,236.5C 531.906,237.941 527.239,241.274 524,246.5C 522.85,247.424 521.85,247.424 521,246.5C 518.655,248.895 515.822,250.395 512.5,251C 511.663,252.011 511.33,253.178 511.5,254.5C 509.692,254.491 508.025,254.991 506.5,256C 506.24,259.084 504.24,260.917 500.5,261.5C 499.614,262.325 499.281,263.325 499.5,264.5C 497.801,264.34 496.134,264.506 494.5,265C 492.043,268.058 489.043,270.392 485.5,272C 486.336,273.243 486.003,274.41 484.5,275.5C 482.574,276.061 480.574,276.227 478.5,276C 477.643,276.689 476.977,277.522 476.5,278.5C 478.045,279.452 479.712,279.785 481.5,279.5C 481.5,280.5 481.5,281.5 481.5,282.5C 478.482,282.335 475.482,282.502 472.5,283C 470.978,285.305 468.978,286.805 466.5,287.5C 466.5,288.833 466.5,290.167 466.5,291.5C 464.167,291.5 461.833,291.5 459.5,291.5C 459.058,293.972 458.725,296.472 458.5,299C 457.779,303.267 459.446,305.267 463.5,305C 466.682,303.101 469.849,301.268 473,299.5C 473.75,300.126 474.584,300.626 475.5,301C 460.792,309.182 446.125,317.015 431.5,324.5C 420.376,330.097 408.709,334.097 396.5,336.5C 398.568,335.625 400.568,334.459 402.5,333C 410.655,331.726 418.321,329.06 425.5,325C 421.127,325.678 416.794,326.845 412.5,328.5C 411.558,328.392 410.725,328.059 410,327.5C 409,329.167 407.667,330.5 406,331.5C 405.667,331.167 405.333,330.833 405,330.5C 403.43,331.358 401.763,332.025 400,332.5C 393.072,332.71 386.405,332.71 380,332.5C 373.141,334.414 366.141,336.081 359,337.5C 355.39,335.958 351.556,335.292 347.5,335.5C 347.5,336.5 347.5,337.5 347.5,338.5C 344.421,338.74 341.421,338.407 338.5,337.5C 337.522,337.977 336.689,338.643 336,339.5C 334.667,338.167 333.333,338.167 332,339.5C 331.044,338.106 329.711,337.439 328,337.5C 327,338.167 326,338.833 325,339.5C 307.606,338.184 290.272,338.184 273,339.5C 271.278,339.389 271.112,338.889 272.5,338C 269.901,337.231 267.401,337.398 265,338.5C 262.266,337.638 262.099,336.805 264.5,336C 263.464,334.383 262.297,334.216 261,335.5C 259.681,333.513 257.848,332.346 255.5,332C 256.905,330.731 258.571,330.231 260.5,330.5C 329.926,341.656 390.593,323.989 442.5,277.5C 444.017,277.511 445.184,278.177 446,279.5C 449.044,276.456 452.044,273.456 455,270.5C 455.423,271.956 456.256,272.456 457.5,272C 466.5,266.974 475.833,261.808 485.5,256.5C 493.094,249.768 501.428,245.102 510.5,242.5C 510.5,241.5 510.5,240.5 510.5,239.5C 513.493,236.757 517.16,234.924 521.5,234C 525.975,230.196 530.475,226.363 535,222.5C 535.333,222.833 535.667,223.167 536,223.5C 537.188,222.437 537.688,221.103 537.5,219.5C 539.308,219.509 540.975,219.009 542.5,218C 545.292,215.01 548.625,213.177 552.5,212.5C 552.351,211.448 552.517,210.448 553,209.5C 556.047,207.568 559.38,205.234 563,202.5C 563.333,202.833 563.667,203.167 564,203.5C 566.148,202.023 567.482,200.023 568,197.5C 568.333,197.833 568.667,198.167 569,198.5C 576.629,194.366 584.129,190.033 591.5,185.5C 592.176,186.602 592.842,187.602 593.5,188.5 Z"/></g>
<g><path style="opacity:1" fill="#b9b9b9" d="M 141.5,259.5 C 142.507,260.828 143.84,261.828 145.5,262.5C 145.833,262.167 146.167,261.833 146.5,261.5C 143.812,258.646 141.312,255.646 139,252.5C 138.667,250.5 138.333,248.5 138,246.5C 136.644,243.671 135.144,241.004 133.5,238.5C 138.798,244.405 143.631,250.738 148,257.5C 154.338,264.671 160.838,271.671 167.5,278.5C 164.269,276.78 161.436,274.447 159,271.5C 157.493,272.535 155.993,272.368 154.5,271C 152.212,268.257 150.045,265.423 148,262.5C 147.308,263.025 146.808,263.692 146.5,264.5C 147.857,266.186 149.19,267.852 150.5,269.5C 148.738,269.357 147.071,269.691 145.5,270.5C 130.029,264.025 114.529,257.025 99,249.5C 98.6667,249.833 98.3333,250.167 98,250.5C 96.9008,247.961 95.2342,247.295 93,248.5C 88.6522,246.116 84.1522,243.116 79.5,239.5C 74.7017,236.693 69.7017,234.36 64.5,232.5C 62.5237,228.799 59.5237,225.966 55.5,224C 53.9512,222.786 52.7845,221.286 52,219.5C 45.6644,217.412 39.4978,214.246 33.5,210C 32.0069,208.632 30.5069,208.465 29,209.5C 27.9586,207.415 26.4586,205.748 24.5,204.5C 23.2836,205.002 22.1169,205.335 21,205.5C 19.8595,203.922 19.3595,202.256 19.5,200.5C 17.5851,200.316 15.5851,200.65 13.5,201.5C 12.5589,199.228 11.2255,197.228 9.5,195.5C 10.7564,195.096 11.9231,194.429 13,193.5C 17.6075,193.997 21.2741,195.997 24,199.5C 24.3333,198.833 24.6667,198.167 25,197.5C 28.6323,200.606 32.799,202.773 37.5,204C 37.8333,205 38.1667,206 38.5,207C 41.8001,208.448 44.9668,209.281 48,209.5C 50.8736,212.031 54.0402,214.198 57.5,216C 58.7433,217.154 59.7433,218.488 60.5,220C 62.5,220.667 64.5,221.333 66.5,222C 75.5195,228.678 84.6861,235.178 94,241.5C 94.3333,240.833 94.6667,240.167 95,239.5C 97.8333,241.667 100.667,243.833 103.5,246C 105.52,247.217 107.52,247.383 109.5,246.5C 111.699,248.197 114.032,249.697 116.5,251C 121.382,252.402 126.049,254.235 130.5,256.5C 131.086,256.291 131.586,255.957 132,255.5C 135.44,257.961 138.273,260.961 140.5,264.5C 141.347,262.939 141.014,261.439 139.5,260C 140.094,259.536 140.761,259.369 141.5,259.5 Z"/></g>
<g><path style="opacity:1" fill="#b1b1b1" d="M 108.5,165.5 C 110.061,181.501 113.561,197.167 119,212.5C 120.03,214.346 121.196,216.013 122.5,217.5C 125.83,223.492 129.163,229.492 132.5,235.5C 128.811,232.279 125.978,228.279 124,223.5C 122.865,223.273 121.698,222.94 120.5,222.5C 118.826,219.008 117.159,215.674 115.5,212.5C 113.343,205.212 111.176,197.878 109,190.5C 107.858,182.875 107.358,175.208 107.5,167.5C 107.328,166.508 107.662,165.842 108.5,165.5 Z"/></g>
<g><path style="opacity:1" fill="#b1b1b1" d="M 150.5,269.5 C 154.174,273.84 158.174,277.84 162.5,281.5C 161.305,281.678 160.138,282.011 159,282.5C 151.297,278.93 143.464,276.43 135.5,275C 134.874,274.25 134.374,273.416 134,272.5C 133.667,272.833 133.333,273.167 133,273.5C 130.101,273.023 127.434,272.023 125,270.5C 123.951,271.517 122.784,271.684 121.5,271C 119.623,268.894 117.29,267.561 114.5,267C 113.833,266 113.167,265 112.5,264C 108.651,262.303 104.651,261.137 100.5,260.5C 99.6143,259.675 99.281,258.675 99.5,257.5C 90.3883,255.08 81.8883,251.413 74,246.5C 72.4419,247.345 71.4419,246.679 71,244.5C 69.6124,245.554 68.1124,245.72 66.5,245C 62.713,242.216 59.213,239.049 56,235.5C 54.5838,234.427 53.2504,234.427 52,235.5C 50.0015,232.743 47.5015,231.576 44.5,232C 45.694,229.06 44.694,227.727 41.5,228C 42.7111,229.113 42.7111,230.28 41.5,231.5C 43.6146,234.454 45.9479,237.287 48.5,240C 48.2716,240.399 47.9382,240.565 47.5,240.5C 35.4498,228.117 24.1165,215.117 13.5,201.5C 15.5851,200.65 17.5851,200.316 19.5,200.5C 19.3595,202.256 19.8595,203.922 21,205.5C 22.1169,205.335 23.2836,205.002 24.5,204.5C 26.4586,205.748 27.9586,207.415 29,209.5C 30.5069,208.465 32.0069,208.632 33.5,210C 39.4978,214.246 45.6644,217.412 52,219.5C 52.7845,221.286 53.9512,222.786 55.5,224C 59.5237,225.966 62.5237,228.799 64.5,232.5C 69.7017,234.36 74.7017,236.693 79.5,239.5C 84.1522,243.116 88.6522,246.116 93,248.5C 95.2342,247.295 96.9008,247.961 98,250.5C 98.3333,250.167 98.6667,249.833 99,249.5C 114.529,257.025 130.029,264.025 145.5,270.5C 147.071,269.691 148.738,269.357 150.5,269.5 Z"/></g>
<g><path style="opacity:0.998" fill="#858585" d="M 598.5,168.5 C 598.833,168.5 599.167,168.5 599.5,168.5C 599.5,172.5 599.5,176.5 599.5,180.5C 598.167,180.833 598.167,181.167 599.5,181.5C 599.5,182.167 599.5,182.833 599.5,183.5C 566.491,233.66 523.824,274.494 471.5,306C 458.494,313.005 445.161,319.171 431.5,324.5C 446.125,317.015 460.792,309.182 475.5,301C 474.584,300.626 473.75,300.126 473,299.5C 469.849,301.268 466.682,303.101 463.5,305C 459.446,305.267 457.779,303.267 458.5,299C 458.725,296.472 459.058,293.972 459.5,291.5C 461.833,291.5 464.167,291.5 466.5,291.5C 466.5,290.167 466.5,288.833 466.5,287.5C 468.978,286.805 470.978,285.305 472.5,283C 475.482,282.502 478.482,282.335 481.5,282.5C 481.5,281.5 481.5,280.5 481.5,279.5C 479.712,279.785 478.045,279.452 476.5,278.5C 476.977,277.522 477.643,276.689 478.5,276C 480.574,276.227 482.574,276.061 484.5,275.5C 486.003,274.41 486.336,273.243 485.5,272C 489.043,270.392 492.043,268.058 494.5,265C 496.134,264.506 497.801,264.34 499.5,264.5C 499.281,263.325 499.614,262.325 500.5,261.5C 504.24,260.917 506.24,259.084 506.5,256C 508.025,254.991 509.692,254.491 511.5,254.5C 511.33,253.178 511.663,252.011 512.5,251C 515.822,250.395 518.655,248.895 521,246.5C 521.85,247.424 522.85,247.424 524,246.5C 527.239,241.274 531.906,237.941 538,236.5C 539.52,235.303 540.687,233.803 541.5,232C 543.615,231.443 545.615,230.609 547.5,229.5C 550.383,226.139 553.049,223.305 555.5,221C 559.297,218.876 563.297,217.209 567.5,216C 566.833,215.667 566.167,215.333 565.5,215C 567.167,214.667 568.833,214.333 570.5,214C 569.328,213.581 568.328,212.915 567.5,212C 569.349,210.907 571.016,209.574 572.5,208C 574.146,206.599 575.813,206.432 577.5,207.5C 575.054,208.427 574.221,210.094 575,212.5C 582.375,205.411 588.541,197.411 593.5,188.5C 595.362,186.109 596.696,183.442 597.5,180.5C 598.43,176.6 598.763,172.6 598.5,168.5 Z"/></g>
<g><path style="opacity:0.898" fill="#989898" d="M 164.5,192.5 C 165.649,192.791 166.316,193.624 166.5,195C 167.797,202.297 169.463,209.463 171.5,216.5C 172.341,218.379 172.675,220.379 172.5,222.5C 168.293,213.013 165.627,203.013 164.5,192.5 Z"/></g>
<g><path style="opacity:1" fill="#aaaaaa" d="M 434.5,159.5 C 438.154,193.716 430.487,224.882 411.5,253C 408.501,257.194 405.168,261.027 401.5,264.5C 401.685,262.804 402.519,261.471 404,260.5C 404.58,257.453 404.247,257.119 403,259.5C 400.911,259.255 398.911,259.255 397,259.5C 396.044,260.579 395.211,261.745 394.5,263C 395.061,264.566 394.394,265.899 392.5,267C 388.616,267.259 385.783,269.093 384,272.5C 383.667,272.167 383.333,271.833 383,271.5C 379.368,273.749 375.868,276.082 372.5,278.5C 365.911,281.32 358.578,284.82 350.5,289C 344.445,290.241 338.612,292.074 333,294.5C 332.692,293.692 332.192,293.025 331.5,292.5C 329.615,293.609 327.615,294.443 325.5,295C 316.678,295.966 307.845,296.799 299,297.5C 287.351,295.712 275.851,293.046 264.5,289.5C 263.914,289.709 263.414,290.043 263,290.5C 261.513,289.747 261.346,288.914 262.5,288C 258.873,286.524 255.207,285.024 251.5,283.5C 250.614,282.675 250.281,281.675 250.5,280.5C 247.873,279.908 245.206,279.575 242.5,279.5C 242.5,278.167 242.5,276.833 242.5,275.5C 239.933,274.327 237.267,273.161 234.5,272C 233.346,271.086 233.513,270.253 235,269.5C 236.4,270.116 237.9,270.449 239.5,270.5C 253.128,269.079 266.794,268.079 280.5,267.5C 299.065,263.998 317.398,261.165 335.5,259C 339.36,255.349 344.027,253.682 349.5,254C 357.043,250.396 364.709,247.062 372.5,244C 377.088,239.933 381.921,237.099 387,235.5C 394.688,228.975 402.188,222.309 409.5,215.5C 410.974,216.436 411.974,217.77 412.5,219.5C 411.675,220.386 410.675,220.719 409.5,220.5C 409.5,222.833 409.5,225.167 409.5,227.5C 410.833,227.5 412.167,227.5 413.5,227.5C 413.337,225.143 413.503,222.81 414,220.5C 414.131,224.392 415.631,225.225 418.5,223C 420.065,219.754 421.399,216.42 422.5,213C 423.416,212.626 424.25,212.126 425,211.5C 425.66,214.047 425.493,216.547 424.5,219C 424.833,219.5 425.167,220 425.5,220.5C 429.547,211.98 431.88,202.98 432.5,193.5C 434.356,184.731 434.689,176.064 433.5,167.5C 433.194,164.615 433.527,161.948 434.5,159.5 Z"/></g>
<g><path style="opacity:1" fill="#d2d2d2" d="M 494.5,179.5 C 493.445,188.221 492.111,196.887 490.5,205.5C 486.597,213.648 482.93,221.982 479.5,230.5C 473.421,238.316 468.088,246.65 463.5,255.5C 463.167,255.5 462.833,255.5 462.5,255.5C 462.631,254.624 462.298,253.957 461.5,253.5C 457.722,258.78 453.389,263.614 448.5,268C 447.167,268.333 445.833,268.667 444.5,269C 438.688,275.143 432.522,280.977 426,286.5C 425.601,286.272 425.435,285.938 425.5,285.5C 439.552,273.114 452.219,259.448 463.5,244.5C 471.596,235.056 477.596,224.39 481.5,212.5C 481.376,211.893 481.043,211.56 480.5,211.5C 480.5,211.167 480.5,210.833 480.5,210.5C 481.75,210.423 482.583,209.756 483,208.5C 485.154,203.149 486.987,197.816 488.5,192.5C 489.167,190.5 489.833,188.5 490.5,186.5C 491.268,185.737 491.768,184.737 492,183.5C 492.333,176.5 492.667,169.5 493,162.5C 494.131,168.112 494.631,173.779 494.5,179.5 Z"/></g>
<g><path style="opacity:0.267" fill="#a1a1a1" d="M 480.5,211.5 C 481.043,211.56 481.376,211.893 481.5,212.5C 477.596,224.39 471.596,235.056 463.5,244.5C 466.346,238.145 469.846,232.145 474,226.5C 476.224,221.4 478.39,216.4 480.5,211.5 Z"/></g>
<g><path style="opacity:0.783" fill="#838383" d="M -0.5,168.5 C -0.166667,168.5 0.166667,168.5 0.5,168.5C 0.236737,172.6 0.57007,176.6 1.5,180.5C 2.32567,183.485 3.659,186.151 5.5,188.5C 6.58044,190.996 7.91378,193.33 9.5,195.5C 11.2255,197.228 12.5589,199.228 13.5,201.5C 24.1165,215.117 35.4498,228.117 47.5,240.5C 66.0684,260.407 86.7351,277.741 109.5,292.5C 116.346,297.168 123.346,301.668 130.5,306C 137.955,308.893 144.955,312.56 151.5,317C 158.91,320.6 166.577,323.433 174.5,325.5C 177.177,327.46 180.177,328.96 183.5,330C 189.361,332.144 195.361,333.81 201.5,335C 202.056,335.383 202.389,335.883 202.5,336.5C 196.295,335.934 190.295,334.434 184.5,332C 150.315,319.745 118.648,303.078 89.5,282C 54.0265,254.367 24.0265,221.867 -0.5,184.5C -0.5,184.167 -0.5,183.833 -0.5,183.5C 0.833333,183.167 0.833333,182.833 -0.5,182.5C -0.5,177.833 -0.5,173.167 -0.5,168.5 Z"/></g>
<g><path style="opacity:0.345" fill="#8b8b8b" d="M 173.5,224.5 C 175.674,227.515 177.341,230.849 178.5,234.5C 179.73,236.297 180.396,238.297 180.5,240.5C 177.341,236.19 174.674,231.523 172.5,226.5C 172.863,225.817 173.196,225.15 173.5,224.5 Z"/></g>
<g><path style="opacity:1" fill="#a4a4a4" d="M 392.5,238.5 C 394.833,238.5 397.167,238.5 399.5,238.5C 399.5,239.833 399.5,241.167 399.5,242.5C 398.167,242.5 396.833,242.5 395.5,242.5C 395.665,245.518 395.498,248.518 395,251.5C 393.333,252.5 391.667,253.5 390,254.5C 389.517,255.448 389.351,256.448 389.5,257.5C 392.97,257.71 392.97,258.877 389.5,261C 387.919,261.707 386.419,262.54 385,263.5C 384.043,261.291 382.876,261.457 381.5,264C 383.271,264.535 383.604,265.369 382.5,266.5C 379.339,267.913 376.339,269.58 373.5,271.5C 374.729,272.281 376.062,272.781 377.5,273C 376.584,273.374 375.75,273.874 375,274.5C 373.192,274.112 371.525,274.112 370,274.5C 369.692,273.692 369.192,273.025 368.5,272.5C 368.264,273.247 367.93,274.08 367.5,275C 362.249,277.264 357.249,279.931 352.5,283C 348.58,284.313 344.58,285.313 340.5,286C 338.423,286.807 336.589,287.974 335,289.5C 334.586,289.043 334.086,288.709 333.5,288.5C 328.771,290.278 323.938,291.611 319,292.5C 300.448,294.064 282.115,292.064 264,286.5C 260.429,282.248 255.929,279.748 250.5,279C 252.833,278.667 255.167,278.333 257.5,278C 257.957,277.586 258.291,277.086 258.5,276.5C 277.284,276.263 295.784,273.93 314,269.5C 320.818,268.544 327.652,267.71 334.5,267C 335.9,265.562 337.567,264.729 339.5,264.5C 339.5,263.5 339.5,262.5 339.5,261.5C 342.85,261.665 346.183,261.498 349.5,261C 351.329,260.727 352.829,259.893 354,258.5C 354.308,259.308 354.808,259.975 355.5,260.5C 357.531,259.461 358.864,257.795 359.5,255.5C 365.644,252.918 371.977,250.751 378.5,249C 380.194,247.061 382.027,245.228 384,243.5C 384.333,244.5 384.667,245.5 385,246.5C 387.275,243.613 389.775,240.946 392.5,238.5 Z"/></g>
<g><path style="opacity:1" fill="#a7a7a7" d="M 162.5,281.5 C 174.112,291.974 186.779,300.974 200.5,308.5C 197.299,309.437 194.299,308.77 191.5,306.5C 189.742,308.738 187.408,309.738 184.5,309.5C 184.167,305.5 183.833,305.5 183.5,309.5C 181.167,309.5 178.833,309.5 176.5,309.5C 176.5,308.5 176.5,307.5 176.5,306.5C 171.456,306.827 166.456,306.494 161.5,305.5C 154.426,302.561 147.093,300.227 139.5,298.5C 139.291,297.914 138.957,297.414 138.5,297C 134.909,296.211 131.409,296.378 128,297.5C 127.5,297 127,296.5 126.5,296C 128.167,295.667 129.833,295.333 131.5,295C 129.231,294.242 127.064,294.409 125,295.5C 124.781,294.062 124.281,292.729 123.5,291.5C 121.999,292.752 120.332,293.752 118.5,294.5C 117.139,292.972 115.972,291.305 115,289.5C 113.026,289.626 110.859,289.792 108.5,290C 109.999,290.838 110.332,291.671 109.5,292.5C 86.7351,277.741 66.0684,260.407 47.5,240.5C 47.9382,240.565 48.2716,240.399 48.5,240C 45.9479,237.287 43.6146,234.454 41.5,231.5C 42.7111,230.28 42.7111,229.113 41.5,228C 44.694,227.727 45.694,229.06 44.5,232C 47.5015,231.576 50.0015,232.743 52,235.5C 53.2504,234.427 54.5838,234.427 56,235.5C 59.213,239.049 62.713,242.216 66.5,245C 68.1124,245.72 69.6124,245.554 71,244.5C 71.4419,246.679 72.4419,247.345 74,246.5C 81.8883,251.413 90.3883,255.08 99.5,257.5C 99.281,258.675 99.6143,259.675 100.5,260.5C 104.651,261.137 108.651,262.303 112.5,264C 113.167,265 113.833,266 114.5,267C 117.29,267.561 119.623,268.894 121.5,271C 122.784,271.684 123.951,271.517 125,270.5C 127.434,272.023 130.101,273.023 133,273.5C 133.333,273.167 133.667,272.833 134,272.5C 134.374,273.416 134.874,274.25 135.5,275C 143.464,276.43 151.297,278.93 159,282.5C 160.138,282.011 161.305,281.678 162.5,281.5 Z"/></g>
<g><path style="opacity:1" fill="#9f9f9f" d="M 200.5,308.5 C 206.749,311.13 212.749,314.13 218.5,317.5C 217.624,317.369 216.957,317.702 216.5,318.5C 217.729,319.281 219.062,319.781 220.5,320C 219.128,320.402 217.795,320.902 216.5,321.5C 212.351,320.231 208.018,319.565 203.5,319.5C 194.831,318.904 186.164,318.737 177.5,319C 175.699,319.317 175.366,319.984 176.5,321C 175.418,322.33 174.751,323.83 174.5,325.5C 166.577,323.433 158.91,320.6 151.5,317C 144.955,312.56 137.955,308.893 130.5,306C 123.346,301.668 116.346,297.168 109.5,292.5C 110.332,291.671 109.999,290.838 108.5,290C 110.859,289.792 113.026,289.626 115,289.5C 115.972,291.305 117.139,292.972 118.5,294.5C 120.332,293.752 121.999,292.752 123.5,291.5C 124.281,292.729 124.781,294.062 125,295.5C 127.064,294.409 129.231,294.242 131.5,295C 129.833,295.333 128.167,295.667 126.5,296C 127,296.5 127.5,297 128,297.5C 131.409,296.378 134.909,296.211 138.5,297C 138.957,297.414 139.291,297.914 139.5,298.5C 147.093,300.227 154.426,302.561 161.5,305.5C 166.456,306.494 171.456,306.827 176.5,306.5C 176.5,307.5 176.5,308.5 176.5,309.5C 178.833,309.5 181.167,309.5 183.5,309.5C 183.833,305.5 184.167,305.5 184.5,309.5C 187.408,309.738 189.742,308.738 191.5,306.5C 194.299,308.77 197.299,309.437 200.5,308.5 Z"/></g>
<g><path style="opacity:1" fill="#999999" d="M 218.5,317.5 C 232.221,323.044 246.221,327.377 260.5,330.5C 258.571,330.231 256.905,330.731 255.5,332C 257.848,332.346 259.681,333.513 261,335.5C 262.297,334.216 263.464,334.383 264.5,336C 262.099,336.805 262.266,337.638 265,338.5C 267.401,337.398 269.901,337.231 272.5,338C 271.112,338.889 271.278,339.389 273,339.5C 290.272,338.184 307.606,338.184 325,339.5C 326,338.833 327,338.167 328,337.5C 329.711,337.439 331.044,338.106 332,339.5C 333.333,338.167 334.667,338.167 336,339.5C 336.689,338.643 337.522,337.977 338.5,337.5C 341.421,338.407 344.421,338.74 347.5,338.5C 347.5,337.5 347.5,336.5 347.5,335.5C 351.556,335.292 355.39,335.958 359,337.5C 366.141,336.081 373.141,334.414 380,332.5C 386.405,332.71 393.072,332.71 400,332.5C 401.763,332.025 403.43,331.358 405,330.5C 405.333,330.833 405.667,331.167 406,331.5C 407.667,330.5 409,329.167 410,327.5C 410.725,328.059 411.558,328.392 412.5,328.5C 416.794,326.845 421.127,325.678 425.5,325C 418.321,329.06 410.655,331.726 402.5,333C 400.568,334.459 398.568,335.625 396.5,336.5C 376.874,342.625 356.874,346.958 336.5,349.5C 312.167,349.5 287.833,349.5 263.5,349.5C 242.771,347.087 222.437,342.754 202.5,336.5C 202.389,335.883 202.056,335.383 201.5,335C 195.361,333.81 189.361,332.144 183.5,330C 180.177,328.96 177.177,327.46 174.5,325.5C 174.751,323.83 175.418,322.33 176.5,321C 175.366,319.984 175.699,319.317 177.5,319C 186.164,318.737 194.831,318.904 203.5,319.5C 208.018,319.565 212.351,320.231 216.5,321.5C 217.795,320.902 219.128,320.402 220.5,320C 219.062,319.781 217.729,319.281 216.5,318.5C 216.957,317.702 217.624,317.369 218.5,317.5 Z"/></g>
<g><path style="opacity:1" fill="#dddddd" d="M 462.5,255.5 C 456.146,263.184 449.479,270.518 442.5,277.5C 390.593,323.989 329.926,341.656 260.5,330.5C 246.221,327.377 232.221,323.044 218.5,317.5C 212.749,314.13 206.749,311.13 200.5,308.5C 186.779,300.974 174.112,291.974 162.5,281.5C 158.174,277.84 154.174,273.84 150.5,269.5C 149.19,267.852 147.857,266.186 146.5,264.5C 146.808,263.692 147.308,263.025 148,262.5C 150.045,265.423 152.212,268.257 154.5,271C 155.993,272.368 157.493,272.535 159,271.5C 161.436,274.447 164.269,276.78 167.5,278.5C 228.099,329.385 296.099,342.218 371.5,317C 381.32,312.59 390.986,307.923 400.5,303C 408.862,297.157 417.196,291.324 425.5,285.5C 425.435,285.938 425.601,286.272 426,286.5C 432.522,280.977 438.688,275.143 444.5,269C 445.833,268.667 447.167,268.333 448.5,268C 453.389,263.614 457.722,258.78 461.5,253.5C 462.298,253.957 462.631,254.624 462.5,255.5 Z"/></g>
<g><path style="opacity:0.775" fill="#8b8b8b" d="M 244.5,299.5 C 255.717,303.464 267.05,306.797 278.5,309.5C 266.314,308.768 254.981,305.435 244.5,299.5 Z"/></g>
<g><path style="opacity:1" fill="#909090" d="M 220.5,285.5 C 226.961,288.899 233.295,292.566 239.5,296.5C 236.234,296.371 233.234,295.371 230.5,293.5C 227.097,290.814 223.764,288.147 220.5,285.5 Z"/></g>
<g><path style="opacity:0.18" fill="#8e8e8e" d="M 401.5,264.5 C 396.455,271.879 390.122,277.879 382.5,282.5C 388.807,276.528 395.14,270.528 401.5,264.5 Z"/></g>
<g><path style="opacity:0.137" fill="#888888" d="M 197.5,264.5 C 203.86,270.528 210.193,276.528 216.5,282.5C 208.878,277.879 202.545,271.879 197.5,264.5 Z"/></g>
</svg>
