<?xml version="1.0" encoding="UTF-8"?>
<svg version="1.1" xmlns="http://www.w3.org/2000/svg" width="948" height="350">
<path d="M0 0 C1.29422379 0.03541649 1.29422379 0.03541649 2.61459351 0.07154846 C5.37603956 0.14824922 8.13720968 0.23224587 10.8984375 0.31640625 C12.76821557 0.36962052 14.63800719 0.42236096 16.5078125 0.47460938 C21.09658007 0.60298076 25.68490229 0.74120783 30.2734375 0.87890625 C30.2734375 10.44890625 30.2734375 20.01890625 30.2734375 29.87890625 C90.3334375 29.87890625 150.3934375 29.87890625 212.2734375 29.87890625 C212.6034375 36.14890625 212.9334375 42.41890625 213.2734375 48.87890625 C214.5934375 49.86890625 215.9134375 50.85890625 217.2734375 51.87890625 C216.83159179 54.35324221 216.39064525 55.73784545 214.76443481 57.69500732 C212.96049479 60.33728082 212.84262691 61.89458189 212.72998047 65.07128906 C212.68759247 66.10626526 212.64520447 67.14124146 212.60153198 68.20758057 C212.57318268 69.32114929 212.54483337 70.43471802 212.515625 71.58203125 C212.46379562 73.30966705 212.46379562 73.30966705 212.41091919 75.07220459 C212.34442001 77.50968314 212.28610679 79.94739671 212.23535156 82.38525391 C212.14904681 86.10266135 212.00916772 89.81560796 211.8671875 93.53125 C211.80918537 95.90226498 211.75439366 98.27336111 211.703125 100.64453125 C211.65453339 101.75000305 211.60594177 102.85547485 211.55587769 103.9944458 C211.49665056 109.70429197 211.84178059 113.07377539 215.70019531 117.44165039 C216.63668915 118.33358849 216.63668915 118.33358849 217.59210205 119.24354553 C219.94942334 121.53640781 220.98261104 124.02319717 222.1484375 127.06640625 C222.53773438 128.04996094 222.92703125 129.03351563 223.328125 130.046875 C227.63748276 142.95714103 225.79500174 156.58819933 219.91796875 168.6640625 C211.29361385 183.99367993 197.23147134 190.79852256 180.828125 195.59375 C176.73193191 196.57141281 172.73848486 196.92529146 168.5390625 197.07421875 C167.68530029 197.10612305 166.83153809 197.13802734 165.9519043 197.17089844 C164.22993192 197.22553872 162.50720724 197.26056718 160.78442383 197.27441406 C159.9880249 197.29600586 159.19162598 197.31759766 158.37109375 197.33984375 C157.65445557 197.34806152 156.93781738 197.3562793 156.19946289 197.36474609 C154.07047511 197.70603295 154.07047511 197.70603295 152.93723757 199.87999164 C151.2734375 201.87890625 151.2734375 201.87890625 149.1868508 202.37759091 C147.96903208 202.37665503 147.96903208 202.37665503 146.72661096 202.37570024 C145.78671448 202.38468941 144.846818 202.39367858 143.87843981 202.40294015 C142.84189197 202.3924321 141.80534413 202.38192405 140.73738575 202.37109756 C139.63479295 202.37571294 138.53220015 202.38032832 137.39619544 202.38508356 C133.66329234 202.39575824 129.93106515 202.37765464 126.19819641 202.35992432 C123.51034423 202.36166694 120.82253695 202.36499678 118.1346938 202.37028098 C112.27121155 202.37859012 106.40789134 202.37197693 100.54442787 202.35572815 C91.82564373 202.33163367 83.10696223 202.33038066 74.38815087 202.3338961 C59.72330346 202.33915768 45.05852801 202.3257635 30.39370155 202.30182648 C15.86857053 202.27817812 1.34346946 202.26276669 -13.18168068 202.25841522 C-14.53513898 202.25800278 -14.53513898 202.25800278 -15.91593988 202.25758201 C-20.49808221 202.25622873 -25.08022457 202.25502318 -29.66236696 202.25387451 C-62.13829436 202.24546741 -94.61418257 202.21850278 -127.09008789 202.18066406 C-158.64477327 202.14394106 -190.19944793 202.1155994 -221.75415039 202.09863281 C-222.72638621 202.09810671 -223.69862203 202.0975806 -224.70031954 202.09703856 C-234.46369395 202.09176459 -244.22706845 202.08666131 -253.99044302 202.08168312 C-273.8804955 202.0715376 -293.77054729 202.06025259 -313.66059875 202.04827881 C-314.57516017 202.04772965 -315.48972159 202.04718049 -316.43199699 202.04661469 C-377.53020181 202.00979686 -438.62838483 201.9464143 -499.7265625 201.87890625 C-499.71656975 202.88701859 -499.71656975 202.88701859 -499.70637512 203.91549683 C-499.64016824 210.89039338 -499.59482298 217.86520116 -499.56176758 224.84033203 C-499.54665142 227.44583764 -499.52615818 230.05131769 -499.50024414 232.65673828 C-499.46398562 236.39492081 -499.44686452 240.1327679 -499.43359375 243.87109375 C-499.41810989 245.04195526 -499.40262604 246.21281677 -499.38667297 247.41915894 C-499.38633308 249.04061325 -499.38633308 249.04061325 -499.38598633 250.69482422 C-499.37599358 252.12711868 -499.37599358 252.12711868 -499.36579895 253.58834839 C-499.48485092 254.34423248 -499.60390289 255.10011658 -499.7265625 255.87890625 C-503.65924104 258.50069194 -506.99233911 258.13063566 -511.55078125 258.07421875 C-512.31442993 258.07220459 -513.07807861 258.07019043 -513.86486816 258.06811523 C-516.7146608 258.05765935 -519.56436775 258.02973672 -522.4140625 258.00390625 C-528.7871875 257.96265625 -535.1603125 257.92140625 -541.7265625 257.87890625 C-541.7265625 239.39890625 -541.7265625 220.91890625 -541.7265625 201.87890625 C-601.4565625 201.54890625 -661.1865625 201.21890625 -722.7265625 200.87890625 C-722.7265625 144.44890625 -722.7265625 88.01890625 -722.7265625 29.87890625 C-487.7665625 29.87890625 -252.8065625 29.87890625 -10.7265625 29.87890625 C-10.7265625 20.30890625 -10.7265625 10.73890625 -10.7265625 0.87890625 C-7.38895019 -0.7898999 -3.65896727 -0.11737746 0 0 Z " fill="#C10607" transform="translate(722.7265625,92.12109375)"/>
<path d="M0 0 C66.66 0 133.32 0 202 0 C200 4 200 4 197 9 C205.25 9 213.5 9 222 9 C222.4375 16.875 222.4375 16.875 222.56811523 19.35107422 C222.73591543 23.30464416 222.73591543 23.30464416 224 27 C223.01 27 222.02 27 221 27 C221 21.39 221 15.78 221 10 C208.46 10 195.92 10 183 10 C182.67 81.61 182.34 153.22 182 227 C194.54 227 207.08 227 220 227 C220 227.33 220 227.66 220 228 C207.13 228 194.26 228 181 228 C181 209.52 181 191.04 181 172 C121.27 171.67 61.54 171.34 0 171 C0 114.57 0 58.14 0 0 Z " fill="#D6C6CD" transform="translate(0,122)"/>
<path d="M0 0 C1.02996094 0.350625 2.05992187 0.70125 3.12109375 1.0625 C22.67617823 8.38612072 36.78122481 23.46331446 45.421875 42.20703125 C53.34661018 60.58880608 53.98148535 83.97268883 48 103 C47.58234375 104.39605469 47.58234375 104.39605469 47.15625 105.8203125 C40.76039617 125.17328401 28.87070919 139.48752896 11 149 C-1.83348414 155.00909022 -14.81653495 157.55894768 -28.9375 157.4375 C-30.1651709 157.43065186 -31.3928418 157.42380371 -32.65771484 157.41674805 C-41.39773128 157.26169261 -48.90262766 156.4981566 -57 153 C-57.88945312 152.63777344 -58.77890625 152.27554688 -59.6953125 151.90234375 C-66.25161661 148.94498945 -71.54248403 144.62293828 -77 140 C-76.97036163 140.54814362 -76.94072327 141.09628723 -76.91018677 141.66104126 C-76.10346942 157.02978754 -75.84237002 172.36277426 -75.86962891 187.75146484 C-75.87510766 191.44763071 -75.8695829 195.143681 -75.86328125 198.83984375 C-75.86394016 201.1927086 -75.86521743 203.54557338 -75.8671875 205.8984375 C-75.86516327 207.00230804 -75.86313904 208.10617859 -75.86105347 209.24349976 C-75.86578171 210.75371201 -75.86578171 210.75371201 -75.87060547 212.29443359 C-75.87140106 213.18214447 -75.87219666 214.06985535 -75.87301636 214.98446655 C-76 217 -76 217 -77 218 C-79.95705321 218.08868299 -82.89065056 218.11520296 -85.84765625 218.09765625 C-87.17729652 218.09553383 -87.17729652 218.09553383 -88.53379822 218.09336853 C-91.37673254 218.08775215 -94.21958931 218.07519691 -97.0625 218.0625 C-98.98502491 218.05748711 -100.90755104 218.05292384 -102.83007812 218.04882812 C-107.55341549 218.03777741 -112.27669458 218.02050183 -117 218 C-117.02332535 189.72398616 -117.04097738 161.44797376 -117.05181217 133.17195225 C-117.05697591 120.04391217 -117.06402007 106.91587805 -117.07543945 93.7878418 C-117.08538393 82.34997441 -117.09185286 70.91211135 -117.09408849 59.47423977 C-117.095396 53.41390285 -117.09848439 47.35357829 -117.10573006 41.29324532 C-117.11248656 35.59623255 -117.11461772 29.89923731 -117.11310768 24.20222092 C-117.11338418 22.10470294 -117.11539148 20.00718441 -117.11920547 17.90966988 C-117.12413694 15.05922917 -117.12300032 12.20885576 -117.12025452 9.3584137 C-117.12316736 8.51699076 -117.1260802 7.67556782 -117.12908131 6.80864722 C-117.11412121 1.11412121 -117.11412121 1.11412121 -116 0 C-103.43284769 -0.80924844 -90.55979291 0.45179392 -78 1 C-78 6.61 -78 12.22 -78 18 C-77.01 18 -76.02 18 -75 18 C-74.86658203 17.12794922 -74.86658203 17.12794922 -74.73046875 16.23828125 C-72.51940708 9.46320992 -64.15238599 5.30026669 -58.25 2.1875 C-40.27264714 -6.42764592 -18.66880009 -6.76438048 0 0 Z " fill="#DBE1E6" transform="translate(299,131)"/>
<path d="M0 0 C15.58418208 11.8606887 28.50209727 29.84325887 31.72314453 49.51220703 C32.3400546 55.05569346 32.39674848 60.61472999 32.4375 66.1875 C32.45296875 67.9514209 32.45296875 67.9514209 32.46875 69.75097656 C32.25494868 90.91136859 23.57764698 111.21022317 8.8203125 126.30859375 C-8.98428973 143.29941223 -31.59156664 147.7702145 -55.34765625 147.37890625 C-73.38222831 146.65938021 -89.54861954 140.01095257 -103 128 C-104.15822266 126.98292969 -104.15822266 126.98292969 -105.33984375 125.9453125 C-119.16513401 113.04170826 -126.97527418 94.61598395 -128.203125 75.90454102 C-128.30170198 72.78729047 -128.32892195 69.68122186 -128.3125 66.5625 C-128.30831055 65.4679248 -128.30412109 64.37334961 -128.29980469 63.24560547 C-128.19015269 55.40782052 -127.50763752 48.46886864 -125 41 C-124.7215625 40.07832031 -124.443125 39.15664062 -124.15625 38.20703125 C-118.28768024 20.27247969 -105.1714838 4.7473628 -88.80859375 -4.62109375 C-83.40244024 -7.27529707 -77.74785478 -9.2254945 -72 -11 C-70.83339844 -11.36738281 -69.66679687 -11.73476562 -68.46484375 -12.11328125 C-46.15851779 -17.47856781 -18.86301384 -13.11738319 0 0 Z " fill="#D7DEE2" transform="translate(494,141)"/>
<path d="M0 0 C1.68709697 1.30738647 3.36132698 2.63240858 5 4 C4.55815429 6.47433596 4.11720775 7.8589392 2.49099731 9.81610107 C0.68705729 12.45837457 0.56918941 14.01567564 0.45654297 17.19238281 C0.41415497 18.22735901 0.37176697 19.26233521 0.32809448 20.32867432 C0.29974518 21.44224304 0.27139587 22.55581177 0.2421875 23.703125 C0.20763458 24.8548822 0.17308167 26.0066394 0.13748169 27.19329834 C0.07098251 29.63077689 0.01266929 32.06849046 -0.03808594 34.50634766 C-0.12439069 38.2237551 -0.26426978 41.93670171 -0.40625 45.65234375 C-0.46425213 48.02335873 -0.51904384 50.39445486 -0.5703125 52.765625 C-0.61890411 53.8710968 -0.66749573 54.9765686 -0.71755981 56.11553955 C-0.77678694 61.82538572 -0.43165691 65.19486914 3.42675781 69.56274414 C4.05108704 70.15736954 4.67541626 70.75199493 5.31866455 71.36463928 C7.67598584 73.65750156 8.70917354 76.14429092 9.875 79.1875 C10.26429688 80.17105469 10.65359375 81.15460938 11.0546875 82.16796875 C15.36404526 95.07823478 13.52156424 108.70929308 7.64453125 120.78515625 C-0.39952564 135.08330562 -13.49939056 142.57362276 -29 147 C-37.09947478 149.12950833 -45.02848274 149.38666233 -53.375 149.375 C-54.03307648 149.37445618 -54.69115295 149.37391235 -55.36917114 149.37335205 C-82.14221384 149.27202345 -104.01517953 142.11231829 -124.13671875 123.98046875 C-126 122 -126 122 -127 119 C-126.21484375 117.33349609 -126.21484375 117.33349609 -124.9375 115.5234375 C-124.4731958 114.85634766 -124.0088916 114.18925781 -123.53051758 113.50195312 C-123.02544678 112.80005859 -122.52037598 112.09816406 -122 111.375 C-121.49686279 110.66021484 -120.99372559 109.94542969 -120.4753418 109.20898438 C-116.80112223 104.02240407 -113.0129668 98.93060768 -109 94 C-105.54635169 94.59863237 -103.75102449 95.84638731 -101.125 98.125 C-86.56047238 109.73371514 -66.56210429 115.88372552 -48 114 C-41.25571757 112.09452278 -35.37801163 109.58573898 -31 104 C-29.0145401 100.02908021 -29.46877398 95.31855502 -30 91 C-32.78593466 86.68629472 -36.31487239 85.03371916 -41.09765625 83.6171875 C-46.95683601 82.37122464 -52.92801814 81.84707869 -58.87939453 81.22509766 C-79.69285674 79.01579393 -101.03932124 74.51297451 -114.875 57.5 C-122.36902897 47.28244662 -123.25600795 35.33876917 -122 23 C-119.15964836 10.84883713 -110.33767816 1.54982662 -100 -5 C-99.34515625 -5.42796875 -98.6903125 -5.8559375 -98.015625 -6.296875 C-68.84955707 -23.05185019 -27.27587607 -17.72579543 0 0 Z " fill="#D5DBE1" transform="translate(935,140)"/>
<path d="M0 0 C0.69003113 0.00182281 1.38006226 0.00364563 2.09100342 0.00552368 C22.46188981 0.09632518 43.90994147 3.20541832 59.125 18.25 C59.723125 18.930625 60.32125 19.61125 60.9375 20.3125 C60.22335938 20.52648437 59.50921875 20.74046875 58.7734375 20.9609375 C55.24403126 22.64299612 53.07992823 25.03877839 50.5625 27.9375 C50.08643311 28.47149414 49.61036621 29.00548828 49.11987305 29.55566406 C47.71675438 31.13360918 46.32601028 32.72170033 44.9375 34.3125 C44.18855469 35.16070312 43.43960938 36.00890625 42.66796875 36.8828125 C41.08205905 38.68512943 39.50469346 40.49391373 37.9375 42.3125 C34.75290494 41.21779545 32.14111093 39.81429761 29.375 37.9375 C20.12468354 32.10085602 10.57672009 30.66035555 -0.1875 30.8125 C-1.28964844 30.79703125 -2.39179687 30.7815625 -3.52734375 30.765625 C-11.76175474 30.80469694 -19.46559135 31.8910503 -25.625 37.75 C-27.07604008 40.33663667 -27.72707152 42.37750077 -28.0625 45.3125 C-26.7425 45.3125 -25.4225 45.3125 -24.0625 45.3125 C-23.85625 46.364375 -23.65 47.41625 -23.4375 48.5 C-22.20482139 52.73733271 -19.78201527 55.0570883 -16.0625 57.3125 C-8.88116429 60.65480982 -1.83156121 61.1103815 6 61.75 C16.36586003 62.71525507 26.0788526 63.81829586 35.9375 67.3125 C37.01773438 67.6940625 38.09796875 68.075625 39.2109375 68.46875 C50.57889021 72.84751697 59.04667339 79.55533836 64.9375 90.3125 C68.12494313 99.11404048 70.07894138 110.1999566 66.91796875 119.22265625 C66.43263672 120.25712891 66.43263672 120.25712891 65.9375 121.3125 C65.2775 121.3125 64.6175 121.3125 63.9375 121.3125 C63.79054687 121.85777344 63.64359375 122.40304688 63.4921875 122.96484375 C59.67293125 135.80544665 51.34820466 145.2694105 39.6875 151.625 C33.3343965 154.9427582 27.02778156 157.10755047 19.9375 158.3125 C18.95523438 158.49683594 17.97296875 158.68117188 16.9609375 158.87109375 C11.04073804 159.6881458 5.02460403 159.456151 -0.9375 159.4375 C-2.78021484 159.44330078 -2.78021484 159.44330078 -4.66015625 159.44921875 C-27.18770795 159.42507346 -48.40988323 153.28772219 -65.0625 137.3125 C-66.42661794 135.67093434 -67.7695153 134.01065963 -69.0625 132.3125 C-67.0012234 129.29083023 -64.9382544 126.27031955 -62.875 123.25 C-62.29685547 122.40244141 -61.71871094 121.55488281 -61.12304688 120.68164062 C-57.82253655 115.85208032 -54.48200489 111.05859248 -51.0625 106.3125 C-47.35973826 106.5369098 -46.03588046 107.33675335 -43.25 109.875 C-30.10583893 121.65942027 -9.27945886 127.72512103 8.140625 126.796875 C13.56512511 126.10486058 17.56758579 124.57687815 21.9375 121.3125 C22.78441406 120.69568359 22.78441406 120.69568359 23.6484375 120.06640625 C27.01677485 116.93068889 27.34929452 113.59939179 27.5625 109.25 C27.36997756 105.36104675 27.1231482 103.61572539 25.0625 100.25 C16.81139868 95.13431718 7.33336384 94.602066 -2.10791016 93.53759766 C-23.14744807 91.11460815 -42.00666849 86.90615782 -56.6875 70.49609375 C-63.97075296 61.15358772 -65.45866533 47.72820472 -64.0625 36.3125 C-59.63955253 23.1545779 -51.23074216 14.43598042 -39.1796875 7.8125 C-34.28459574 5.45696712 -29.30587051 3.71471949 -24.0625 2.3125 C-23.45656006 2.13517334 -22.85062012 1.95784668 -22.22631836 1.77514648 C-14.90230228 -0.15123349 -7.52687981 -0.04093743 0 0 Z " fill="#BA0405" transform="translate(81.0625,129.6875)"/>
<path d="M0 0 C0.86423252 -0.00491497 1.72846503 -0.00982995 2.61888641 -0.01489386 C5.54102018 -0.02656742 8.46229802 -0.00949631 11.38439751 0.00723743 C13.48992485 0.00477909 15.59545076 0.00056684 17.70097148 -0.00525731 C23.50716972 -0.01618574 29.3130829 -0.00203098 35.1192534 0.01606309 C41.3728617 0.03122979 47.62644526 0.02341196 53.88006401 0.01837635 C64.72186731 0.01285885 75.56355534 0.02199321 86.40533638 0.04149914 C97.77933303 0.06193054 109.15329205 0.0745498 120.52730751 0.07653713 C121.58733578 0.07673188 121.58733578 0.07673188 122.66877877 0.07693057 C125.5371967 0.07743049 128.40561463 0.07787046 131.27403258 0.07823266 C157.42794227 0.08153744 183.58179945 0.10390185 209.73568535 0.13829517 C234.44467174 0.17077314 259.15363164 0.19202826 283.86263847 0.19981861 C284.62392935 0.20006165 285.38522022 0.20030469 286.16958051 0.2005551 C290.00387626 0.20177712 293.83817201 0.20298042 297.67246776 0.20417689 C298.80733007 0.2045313 298.80733007 0.2045313 299.96511888 0.20489286 C301.4906672 0.20536703 303.01621553 0.20583719 304.54176385 0.20630332 C328.81004755 0.21376992 353.07832634 0.22954847 377.34660432 0.2475025 C384.45852081 0.25275281 391.57043724 0.25769651 398.68235445 0.26186442 C413.64171916 0.27073524 428.60106864 0.28251229 443.56042255 0.30343046 C449.74978283 0.31205207 455.9391341 0.31912462 462.12849998 0.32194614 C467.78457071 0.32460024 473.44061542 0.33185239 479.09667574 0.34293661 C481.15244292 0.3461599 483.20821357 0.34767368 485.26398326 0.34738632 C488.03910755 0.34726236 490.81415163 0.35318488 493.58926392 0.36076355 C494.81136134 0.35853811 494.81136134 0.35853811 496.05814761 0.35626772 C501.55462684 0.38082065 501.55462684 0.38082065 502.66879082 1.49498463 C502.66879082 4.79498463 502.66879082 8.09498463 502.66879082 11.49498463 C493.09879082 11.49498463 483.52879082 11.49498463 473.66879082 11.49498463 C473.66879082 11.16498463 473.66879082 10.83498463 473.66879082 10.49498463 C482.90879082 10.49498463 492.14879082 10.49498463 501.66879082 10.49498463 C501.66879082 7.85498463 501.66879082 5.21498463 501.66879082 2.49498463 C466.81382405 2.55382404 431.95892977 2.62833886 397.10404475 2.72397091 C392.99208215 2.7352395 388.88011922 2.74637788 384.76815605 2.7574358 C383.94951454 2.75963948 383.13087302 2.76184317 382.28742418 2.76411363 C369.0201485 2.79951677 355.75287287 2.82436385 342.48556741 2.84533165 C328.8790357 2.86706971 315.27256547 2.90010105 301.66608602 2.94368619 C293.26550824 2.97023739 284.8650071 2.98790717 276.46438942 2.99433067 C270.70913425 2.99957398 264.95397564 3.01575518 259.19877215 3.04065029 C255.87484837 3.05470195 252.55124618 3.06220525 249.22727013 3.05999279 C245.62852646 3.05835308 242.03032378 3.07492804 238.43165398 3.09625721 C237.37427267 3.09140963 236.31689136 3.08656206 235.22746819 3.08156759 C234.26704466 3.09102413 233.30662113 3.10048067 232.31709385 3.11022377 C231.07028214 3.11307167 231.07028214 3.11307167 229.79828233 3.11597711 C227.16206941 3.58517105 226.45797641 4.57272878 224.66879082 6.49498463 C222.05087062 7.20684972 219.51125532 7.78901459 216.85629082 8.30748463 C198.09918951 12.38876151 181.64330716 21.75396142 170.40707207 37.70592213 C160.77383161 52.98377852 156.49197961 67.57730009 156.48129082 85.61998463 C156.46904472 86.68475025 156.45679863 87.74951588 156.44418144 88.84654713 C156.40385412 110.99968789 164.11480433 129.70129629 179.66879082 145.49498463 C190.00067757 155.84737115 203.44329856 161.74166355 217.66879082 164.49498463 C217.99879082 166.14498463 218.32879082 167.79498463 218.66879082 169.49498463 C219.24370514 169.49921657 219.81861946 169.50344851 220.41095543 169.50780869 C238.99693555 169.64486035 257.58287715 169.78672451 276.16879082 169.93248463 C276.87266568 169.93799886 277.57654054 169.9435131 278.30174494 169.94919443 C320.76062444 170.28215798 363.2159643 170.67335111 405.66879082 171.49498463 C405.66879082 171.82498463 405.66879082 172.15498463 405.66879082 172.49498463 C275.64879082 172.49498463 145.62879082 172.49498463 11.66879082 172.49498463 C11.66879082 164.90498463 11.66879082 157.31498463 11.66879082 149.49498463 C14.98204186 151.15161015 16.75022585 152.37529894 19.41879082 154.74498463 C35.14765975 167.27565021 57.36530853 167.10480689 76.38363457 165.22691822 C91.3119603 163.03175884 105.71478839 155.7953124 116.66879082 145.49498463 C117.35070488 144.86592213 118.03261894 144.23685963 118.73519707 143.58873463 C134.83298489 127.20742412 138.98129082 104.67091747 138.98129082 82.61266041 C138.70952239 60.42338563 131.07727192 42.24477252 115.52035332 26.29185963 C99.02459786 10.68937612 78.24250893 5.88623445 56.28207207 6.25279713 C39.85487603 6.80263865 26.32848243 13.14366627 14.68050957 24.55357838 C12.66879082 26.49498463 12.66879082 26.49498463 11.66879082 26.49498463 C11.66879082 20.88498463 11.66879082 15.27498463 11.66879082 9.49498463 C3.41879082 9.49498463 -4.83120918 9.49498463 -13.33120918 9.49498463 C-10.10887219 1.43914214 -8.67706654 -0.10949799 0 0 Z " fill="#D72317" transform="translate(210.33120918273926,121.50501537322998)"/>
<path d="M0 0 C1.29422379 0.03541649 1.29422379 0.03541649 2.61459351 0.07154846 C5.37603956 0.14824922 8.13720968 0.23224587 10.8984375 0.31640625 C12.76821557 0.36962052 14.63800719 0.42236096 16.5078125 0.47460938 C21.09652959 0.60387304 25.68501227 0.73968129 30.2734375 0.87890625 C30.29849985 4.80752572 30.31646549 8.73611304 30.32836914 12.66479492 C30.3357619 14.64438517 30.34848024 16.62395326 30.36132812 18.60351562 C30.36455078 19.87646484 30.36777344 21.14941406 30.37109375 22.4609375 C30.37633057 23.61827393 30.38156738 24.77561035 30.38696289 25.96801758 C30.24234415 30.95005541 29.72468001 35.91523868 29.2734375 40.87890625 C42.4734375 40.87890625 55.6734375 40.87890625 69.2734375 40.87890625 C67.80137276 45.29510046 66.33225274 49.00780295 64.26953125 53.1171875 C63.69396484 54.26638672 63.11839844 55.41558594 62.52539062 56.59960938 C62.22769775 57.1887915 61.93000488 57.77797363 61.62329102 58.38500977 C60.70577414 60.20162935 59.79482573 62.02143209 58.88476562 63.84179688 C54.41382334 72.73852041 54.41382334 72.73852041 53.2734375 73.87890625 C51.49272504 73.96616848 49.7086061 73.98589666 47.92578125 73.9765625 C46.84619141 73.97333984 45.76660156 73.97011719 44.65429688 73.96679688 C43.51798828 73.95841797 42.38167969 73.95003906 41.2109375 73.94140625 C40.07076172 73.93689453 38.93058594 73.93238281 37.75585938 73.92773438 C34.92833399 73.91590372 32.1009111 73.89942035 29.2734375 73.87890625 C29.31159707 83.11136151 29.37110689 92.34336733 29.45734024 101.57549953 C29.49672934 105.86309198 29.52895953 110.15048168 29.54443359 114.43823242 C29.55965705 118.58172613 29.59420211 122.72466215 29.64174652 126.86790657 C29.65650201 128.44296463 29.66447515 130.01810234 29.66532135 131.59322929 C29.67622242 141.71651645 30.18768991 149.74553107 36.7109375 157.94140625 C41.39023575 161.400018 47.79725052 160.55644469 53.2734375 159.87890625 C56.6585252 158.43890918 56.6585252 158.43890918 59.2734375 156.87890625 C61.70776367 156.87939453 61.70776367 156.87939453 64.2734375 157.87890625 C65.73337739 160.10084665 66.77250298 162.0271738 67.82421875 164.43359375 C68.12788864 165.09094513 68.43155853 165.74829651 68.74443054 166.42556763 C69.38237591 167.8153827 70.01140159 169.2093219 70.63208008 170.60693359 C71.58289387 172.74705556 72.5591788 174.87395795 73.54101562 177 C74.15777158 178.35217159 74.77305643 179.70501535 75.38671875 181.05859375 C75.67726639 181.69618622 75.96781403 182.33377869 76.26716614 182.99069214 C77.51496754 185.81159531 78.2734375 187.75600429 78.2734375 190.87890625 C66.8486321 194.90780488 56.02224688 196.41384452 43.8984375 196.50390625 C42.65239746 196.52646484 41.40635742 196.54902344 40.12255859 196.57226562 C26.66969903 196.46531299 14.7473855 191.86114714 4.8984375 182.66015625 C-8.69631038 168.52877359 -10.19946494 151.2096925 -10.01953125 132.546875 C-10.01392196 130.8166796 -10.00965818 129.08647937 -10.00666809 127.35627747 C-9.99532407 122.84685643 -9.96594949 118.33773462 -9.93255615 113.82843018 C-9.90162742 109.20922898 -9.88811449 104.58997847 -9.87304688 99.97070312 C-9.84106751 90.9399529 -9.78838766 81.9095015 -9.7265625 72.87890625 C-19.2965625 72.87890625 -28.8665625 72.87890625 -38.7265625 72.87890625 C-38.7265625 62.31890625 -38.7265625 51.75890625 -38.7265625 40.87890625 C-29.1565625 40.87890625 -19.5865625 40.87890625 -9.7265625 40.87890625 C-10.2215625 35.92890625 -10.2215625 35.92890625 -10.7265625 30.87890625 C-10.79989302 28.36674463 -10.83514574 25.85305165 -10.82421875 23.33984375 C-10.8228038 22.68811188 -10.82138885 22.03638 -10.81993103 21.36489868 C-10.81443129 19.32785002 -10.80189981 17.29092044 -10.7890625 15.25390625 C-10.78403447 13.85416828 -10.77947388 12.45442855 -10.77539062 11.0546875 C-10.76369417 7.66271456 -10.74730336 4.27083392 -10.7265625 0.87890625 C-7.38895019 -0.7898999 -3.65896727 -0.11737746 0 0 Z " fill="#E5E9ED" transform="translate(722.7265625,92.12109375)"/>
<path d="M0 0 C4.39203523 -0.27433434 8.77940737 -0.47254024 13.17749023 -0.60424805 C14.66893407 -0.65918835 16.15979559 -0.73398397 17.64916992 -0.82983398 C29.99517674 -1.60378748 29.99517674 -1.60378748 34.92466736 2.33963013 C37.21251559 5.12643969 39.12756132 7.92287461 41 11 C42.11187611 12.50813865 43.23540948 14.007881 44.37890625 15.4921875 C45.44260812 16.9513029 46.50375719 18.4122823 47.5625 19.875 C54.70817137 29.66256744 62.04173931 39.30122386 69.4128418 48.91967773 C70.95282135 50.93816193 72.47668337 52.96891115 74 55 C74.33 36.85 74.66 18.7 75 0 C86.55 0 98.1 0 110 0 C110.02254805 14.32494764 110.04091336 28.6498836 110.05181217 42.97484493 C110.05704174 49.6257353 110.06414072 56.27660786 110.07543945 62.92749023 C110.08626571 69.34002877 110.09227628 75.75255504 110.09487724 82.16510201 C110.09673197 84.61764278 110.10035347 87.07018285 110.10573006 89.52271843 C110.11293702 92.94476677 110.11399109 96.36676371 110.11352539 99.78881836 C110.11712067 100.81380432 110.12071594 101.83879028 110.12442017 102.89483643 C110.1230455 103.82176804 110.12167084 104.74869965 110.12025452 105.70372009 C110.12117631 106.51397613 110.1220981 107.32423216 110.12304783 108.1590414 C110 110 110 110 109 111 C81.13369053 114.2004967 81.13369053 114.2004967 73.84765625 108.55859375 C71.40246198 105.94767238 69.65182771 102.99272589 68.00537109 99.83007812 C66.34633595 96.81013461 64.15536277 94.23805168 62 91.5625 C61.17365938 90.48308134 60.35075613 89.40102285 59.53125 88.31640625 C56.08973077 83.79000186 52.55598365 79.33668816 49.03125 74.875 C44.638734 69.2880279 40.32757778 63.63729525 36 58 C36.00222061 58.63449066 36.00444122 59.26898132 36.00672913 59.92269897 C36.02880045 66.50835611 36.04391437 73.09400278 36.05493164 79.6796875 C36.05996989 82.13965278 36.0668006 84.59961505 36.07543945 87.05957031 C36.08752723 90.58920025 36.09323329 94.11879069 36.09765625 97.6484375 C36.10281754 98.75367767 36.10797882 99.85891785 36.11329651 100.99765015 C36.11337204 102.01855743 36.11344757 103.03946472 36.11352539 104.09130859 C36.115746 104.99287689 36.11796661 105.89444519 36.12025452 106.82333374 C36 109 36 109 35 111 C30.17619198 111.0246519 25.35242033 111.04283693 20.52856445 111.05493164 C18.88630536 111.05997174 17.24405077 111.06680378 15.60180664 111.07543945 C13.24624521 111.08751926 10.89074291 111.09323139 8.53515625 111.09765625 C7.79660904 111.10281754 7.05806183 111.10797882 6.2971344 111.11329651 C4.53101912 111.1134925 2.76502854 111.06194719 1 111 C0 110 0 110 -0.12304783 108.1590414 C-0.12212604 107.34878537 -0.12120424 106.53852934 -0.12025452 105.70372009 C-0.12162918 104.77678848 -0.12300385 103.84985687 -0.12442017 102.89483643 C-0.12082489 101.86985046 -0.11722961 100.8448645 -0.11352539 99.78881836 C-0.11367142 98.71577957 -0.11381744 97.64274078 -0.1139679 96.53718567 C-0.11326824 92.97138484 -0.10547338 89.40563551 -0.09765625 85.83984375 C-0.09579226 83.37504607 -0.09436827 80.91024801 -0.09336853 78.44544983 C-0.08954187 71.94346095 -0.07971032 65.44149425 -0.06866455 58.93951416 C-0.05791748 52.31059183 -0.05387159 45.68166307 -0.04882812 39.05273438 C-0.03808819 26.03514676 -0.02120097 13.01757456 0 0 Z " fill="#D0D9DE" transform="translate(462,0)"/>
<path d="M0 0 C1.22960953 -0.01283524 2.45921906 -0.02567047 3.72608948 -0.03889465 C5.08423456 -0.04707287 6.44238425 -0.05451451 7.80053711 -0.0612793 C8.48573362 -0.06535482 9.17093014 -0.06943035 9.87689018 -0.07362938 C13.51981176 -0.09454626 17.16269532 -0.10881042 20.80566406 -0.11816406 C23.79383229 -0.12694592 26.78152357 -0.1476222 29.76953125 -0.1796875 C72.68750476 -0.63048315 72.68750476 -0.63048315 86.32006836 12.0949707 C92.85748577 19.10709684 94.87877064 25.47243065 94.60522461 35.0246582 C93.75416937 42.91892922 89.87026875 47.02556076 83.87475586 51.92700195 C83.34366211 52.33950195 82.81256836 52.75200195 82.26538086 53.17700195 C82.94600586 53.67200195 83.62663086 54.16700195 84.32788086 54.67700195 C91.21161682 60.53550064 96.81754236 66.79894371 98.07788086 75.98950195 C98.63475847 84.06422729 97.15175803 90.05532948 91.94506836 96.33325195 C91.39077148 96.94168945 90.83647461 97.55012695 90.26538086 98.17700195 C89.77295898 98.72356445 89.28053711 99.27012695 88.77319336 99.83325195 C73.32833371 114.89391112 45.55570965 111.47126693 25.9331665 111.37261963 C23.18162847 111.36168549 20.43013918 111.36215446 17.67858315 111.36275768 C14.38718861 111.3624217 11.09582509 111.35360494 7.80444336 111.3449707 C6.57440582 111.34385788 5.34436829 111.34274506 4.07705688 111.34159851 C2.38291153 111.33202873 2.38291153 111.33202873 0.65454102 111.32226562 C-0.83860123 111.31654793 -0.83860123 111.31654793 -2.36190796 111.31071472 C-4.73461914 111.17700195 -4.73461914 111.17700195 -6.73461914 110.17700195 C-6.75794943 95.98244154 -6.77553254 81.78788408 -6.78643131 67.59330845 C-6.79166086 61.0029541 -6.79875981 54.41261259 -6.81005859 47.82226562 C-6.82088492 41.46808177 -6.82689543 35.1139103 -6.82949638 28.75971794 C-6.83135109 26.32950584 -6.83497257 23.89929446 -6.8403492 21.4690876 C-6.84755625 18.07817214 -6.84861022 14.68730855 -6.84814453 11.29638672 C-6.85173981 10.2807515 -6.85533508 9.26511627 -6.85903931 8.21870422 C-6.85766464 7.30018677 -6.85628998 6.38166931 -6.85487366 5.43531799 C-6.85579545 4.6324363 -6.85671724 3.82955462 -6.85766697 3.00234318 C-6.58557685 -1.03395162 -3.34047621 0.03026705 0 0 Z M30.26538086 28.17700195 C30.26538086 32.46700195 30.26538086 36.75700195 30.26538086 41.17700195 C34.18223106 41.23090356 38.09834087 41.27062978 42.01538086 41.30200195 C43.12655273 41.31875977 44.23772461 41.33551758 45.38256836 41.3527832 C46.45249023 41.35922852 47.52241211 41.36567383 48.62475586 41.37231445 C49.60927734 41.38278809 50.59379883 41.39326172 51.6081543 41.40405273 C54.35899946 41.16900257 55.96351534 40.67498925 58.26538086 39.17700195 C59.65088283 36.40599802 59.45312756 34.24353136 59.26538086 31.17700195 C58.60538086 30.18700195 57.94538086 29.19700195 57.26538086 28.17700195 C54.45263334 27.75935814 54.45263334 27.75935814 51.16381836 27.8840332 C49.95209961 27.89370117 48.74038086 27.90336914 47.49194336 27.91333008 C46.22092773 27.9384668 44.94991211 27.96360352 43.64038086 27.98950195 C42.36163086 28.00303711 41.08288086 28.01657227 39.76538086 28.03051758 C36.59853617 28.06596733 33.43190689 28.11977558 30.26538086 28.17700195 Z M30.26538086 67.17700195 C30.26538086 72.45700195 30.26538086 77.73700195 30.26538086 83.17700195 C34.30745225 83.25808362 38.34788994 83.31754824 42.39038086 83.36450195 C43.53249023 83.38963867 44.67459961 83.41477539 45.85131836 83.44067383 C54.00244523 83.59164057 54.00244523 83.59164057 61.26538086 80.17700195 C62.81124962 77.08526444 62.55897607 74.58270643 62.26538086 71.17700195 C60.72218674 68.84653741 60.72218674 68.84653741 58.26538086 67.17700195 C55.17508795 66.62722362 55.17508795 66.62722362 51.74975586 66.78637695 C50.49936523 66.79926758 49.24897461 66.8121582 47.96069336 66.82543945 C46.65874023 66.85895508 45.35678711 66.8924707 44.01538086 66.92700195 C42.69795898 66.94504883 41.38053711 66.9630957 40.02319336 66.98168945 C36.7702793 67.02883314 33.51773869 67.10057579 30.26538086 67.17700195 Z " fill="#C1CBD2" transform="translate(223.734619140625,-0.177001953125)"/>
<path d="M0 0 C7.71156792 -0.07007435 15.4230587 -0.12309858 23.13486671 -0.15543652 C26.71730568 -0.17097142 30.29952394 -0.19198112 33.88183594 -0.22631836 C37.35078415 -0.25935394 40.81952258 -0.27694403 44.28861618 -0.28463173 C46.23029257 -0.29272382 48.17188671 -0.31606891 50.11343384 -0.33988953 C67.87239759 -0.34318737 84.45547876 4.14586924 98 16 C108.2503139 26.73473327 112.83776988 40.16162118 113.4375 54.875 C112.99639487 69.23968443 107.99522748 83.53537989 98.0859375 94.09375 C82.46371668 108.37023644 62.70996195 111.3742367 42.26171875 111.1953125 C40.39154839 111.19106766 40.39154839 111.19106766 38.4835968 111.18673706 C34.55146153 111.17565658 30.61956493 111.15057519 26.6875 111.125 C24.00065684 111.11380887 21.31380733 111.10569356 18.62695312 111.09765625 C12.08455575 111.07575714 5.54229493 111.04240283 -1 111 C-1.02334027 96.82271032 -1.0409183 82.64542361 -1.05181217 68.46811867 C-1.05703962 61.88564006 -1.06413479 55.30317432 -1.07543945 48.72070312 C-1.0862732 42.37299853 -1.09227788 36.02530635 -1.09487724 29.67759323 C-1.09673061 27.25099873 -1.10034953 24.82440494 -1.10573006 22.3978157 C-1.11294692 19.0094987 -1.11399066 15.62123355 -1.11352539 12.23291016 C-1.11712067 11.22087021 -1.12071594 10.20883026 -1.12442017 9.16612244 C-1.1230455 8.24623032 -1.12167084 7.3263382 -1.12025452 6.37857056 C-1.12163721 5.17563071 -1.12163721 5.17563071 -1.12304783 3.94838905 C-1 2 -1 2 0 0 Z M36 30 C36 47.16 36 64.32 36 82 C53.72679299 83.05351374 53.72679299 83.05351374 69 76 C75.31895117 67.67747895 75.62397136 60.31254485 75 50 C73.87665306 43.8702407 71.55488623 39.35244685 67 35 C57.20149558 28.68360872 47.90641453 30 36 30 Z " fill="#D8DFE4" transform="translate(592,0)"/>
<path d="M0 0 C1.03833984 -0.01224609 2.07667969 -0.02449219 3.14648438 -0.03710938 C12.80192837 -0.05527008 21.01670169 1.09749363 29.625 5.5625 C30.77613281 6.14773437 31.92726563 6.73296875 33.11328125 7.3359375 C36.10934872 9.06992527 38.6816481 10.94658675 41.3125 13.1875 C40.69466207 16.54625739 39.47734756 18.6308266 37.43359375 21.34765625 C36.84529785 22.1368042 36.25700195 22.92595215 35.65087891 23.73901367 C34.70994385 24.9819519 34.70994385 24.9819519 33.75 26.25 C32.4750201 27.95554954 31.20027948 29.66127799 29.92578125 31.3671875 C28.99693115 32.6042041 28.99693115 32.6042041 28.04931641 33.86621094 C25.81727369 36.84937964 23.62349159 39.85793773 21.4375 42.875 C20.82132813 43.72449219 20.20515625 44.57398438 19.5703125 45.44921875 C19.15523437 46.02285156 18.74015625 46.59648437 18.3125 47.1875 C13.86357983 46.50245866 11.19880276 44.98438583 7.5703125 42.44140625 C-1.23013078 37.55396284 -14.43555356 37.40753407 -24.0078125 40.1328125 C-32.12835007 43.98703779 -35.77068816 49.96951222 -38.8125 58.25 C-41.83514818 69.8110046 -40.89096266 82.73381159 -41.00390625 94.61328125 C-41.02452609 96.45558586 -41.04552368 98.29788627 -41.06687927 100.1401825 C-41.12158142 104.94534875 -41.17121519 109.75055393 -41.21972656 114.55578613 C-41.27925026 120.34470544 -41.34518745 126.13355495 -41.41002655 131.92241669 C-41.50738169 140.67740116 -41.59668382 149.43243427 -41.6875 158.1875 C-54.2275 158.1875 -66.7675 158.1875 -79.6875 158.1875 C-79.6875 107.3675 -79.6875 56.5475 -79.6875 4.1875 C-67.1475 4.1875 -54.6075 4.1875 -41.6875 4.1875 C-41.1925 11.6125 -41.1925 11.6125 -40.6875 19.1875 C-39.2334375 17.145625 -39.2334375 17.145625 -37.75 15.0625 C-28.06655787 2.64582824 -14.98490068 0.00913157 0 0 Z " fill="#E4E8EC" transform="translate(627.6875,129.8125)"/>
<path d="M0 0 C22.67633652 -0.02370614 45.35267091 -0.04115927 68.02901745 -0.05181217 C78.56581738 -0.05689717 89.10260939 -0.06381146 99.6394043 -0.07543945 C147.43652876 -0.12717064 195.21278085 -0.06931682 243 1 C243 1.66 243 2.32 243 3 C247.455 3.99 247.455 3.99 252 5 C252 5.66 252 6.32 252 7 C253.2065625 7.309375 253.2065625 7.309375 254.4375 7.625 C255.283125 8.07875 256.12875 8.5325 257 9 C257.66015625 12.0859375 257.66015625 12.0859375 258 15 C257.17757813 14.59007812 256.35515625 14.18015625 255.5078125 13.7578125 C253.83332031 12.94957031 253.83332031 12.94957031 252.125 12.125 C251.03445313 11.59132812 249.94390625 11.05765625 248.8203125 10.5078125 C240.55833671 6.96601733 231.93247756 6.65923366 223.0625 6.6875 C222.05509766 6.67138672 221.04769531 6.65527344 220.00976562 6.63867188 C208.99755924 6.63159007 198.72823636 9.01453031 190 16 C187.66355734 18.57934016 185.55305492 21.2173617 183.49609375 24.0234375 C182.75552734 25.00183594 182.75552734 25.00183594 182 26 C181.67 26 181.34 26 181 26 C181 20.72 181 15.44 181 10 C168.46 10 155.92 10 143 10 C143 60.82 143 111.64 143 164 C155.54 164 168.08 164 181 164 C181 164.33 181 164.66 181 165 C179.02 165 177.04 165 175 165 C174.67 165.99 174.34 166.98 174 168 C155.32835866 168.02336578 136.6567203 168.04099727 117.98506737 168.05181217 C109.31539801 168.0569673 100.64573774 168.06399511 91.97607422 168.07543945 C84.41914159 168.08541018 76.86221554 168.09185913 69.30527651 168.09408849 C65.3043738 168.09539153 61.30348991 168.09845171 57.30259323 168.10573006 C53.53520647 168.11252794 49.76784626 168.11460928 46.00045395 168.11310768 C44.61939856 168.11338231 43.23834226 168.11536505 41.85729218 168.11920547 C39.96764268 168.12420153 38.07797887 168.12238393 36.18832397 168.12025452 C34.60376184 168.12163721 34.60376184 168.12163721 32.98718834 168.12304783 C29.9184949 167.99664265 27.01560088 167.56831416 24 167 C23.505 165.02 23.505 165.02 23 163 C23.83023682 163.01571045 24.66047363 163.0314209 25.51586914 163.04760742 C50.03357235 163.45070806 71.7305186 162.71918966 92 147 C92.80824219 146.37867188 93.61648438 145.75734375 94.44921875 145.1171875 C105.08694445 136.28771226 111.24563359 124.8119673 116 112 C116.33128906 111.26910156 116.66257812 110.53820312 117.00390625 109.78515625 C123.96216365 90.32932282 121.75215809 66.25924017 113.26342773 47.78979492 C109.72055391 40.44031612 105.52465629 34.04118919 100 28 C99.44828125 27.36835938 98.8965625 26.73671875 98.328125 26.0859375 C84.680366 11.33335991 64.21624565 5.20712522 44.73999023 4.29956055 C39.82682321 4.13892634 34.91571267 4.03070439 30 4 C30.66 3.34 31.32 2.68 32 2 C21.44 1.67 10.88 1.34 0 1 C0 0.67 0 0.34 0 0 Z " fill="#A60406" transform="translate(405,124)"/>
<path d="M0 0 C11.88 0 23.76 0 36 0 C40.93956587 9.87913175 45.81704171 19.727027 50.4375 29.75 C51.00089787 30.96813536 51.56437588 32.18623365 52.12792969 33.40429688 C56.46484314 42.78998029 60.73055393 52.20670953 64.94824219 61.64648438 C66.75220889 65.68321582 68.56302114 69.71686 70.375 73.75 C70.91483521 74.95450806 70.91483521 74.95450806 71.46557617 76.18334961 C73.61514707 80.96712023 75.79946042 85.73314905 78.01171875 90.48828125 C78.51848145 91.58108398 79.02524414 92.67388672 79.54736328 93.79980469 C80.54217934 95.94204151 81.54170771 98.08209757 82.54638672 100.21972656 C82.99643066 101.19006836 83.44647461 102.16041016 83.91015625 103.16015625 C84.31371338 104.02261963 84.71727051 104.88508301 85.13305664 105.77368164 C86 108 86 108 86 111 C81.24967759 111.19826372 76.50177568 111.34314101 71.74829102 111.43945312 C70.13295542 111.4796058 68.51790922 111.53414477 66.90356445 111.60351562 C53.7939925 112.15260764 53.7939925 112.15260764 50.04833984 109.74609375 C48.85546875 107.96875 48.85546875 107.96875 47 103 C44.69 97.72 42.38 92.44 40 87 C25.81 87 11.62 87 -3 87 C-6.57739631 94.5231889 -6.57739631 94.5231889 -10.15014648 102.04858398 C-10.59430908 102.98001221 -11.03847168 103.91144043 -11.49609375 104.87109375 C-11.95169678 105.82943115 -12.4072998 106.78776855 -12.87670898 107.77514648 C-14 110 -14 110 -15 111 C-17.44830426 111.08843793 -19.86820599 111.11528752 -22.31640625 111.09765625 C-23.04746078 111.0962413 -23.77851532 111.09482635 -24.53172302 111.09336853 C-26.87535632 111.08775408 -29.21889539 111.07519922 -31.5625 111.0625 C-33.14778508 111.05748686 -34.73307166 111.05292363 -36.31835938 111.04882812 C-40.2122761 111.03777997 -44.10612205 111.02050572 -48 111 C-49.50652431 106.38532021 -47.70221419 103.41180759 -45.6875 99.23828125 C-45.32747894 98.46834335 -44.96745789 97.69840546 -44.5965271 96.90513611 C-43.40814769 94.36919135 -42.20392223 91.84109775 -41 89.3125 C-40.16744008 87.54132053 -39.33623704 85.76950264 -38.50634766 83.99707031 C-37.23729895 81.28734039 -35.96734502 78.578074 -34.69302368 75.87081909 C-31.15486743 68.35407538 -27.69515065 60.80399203 -24.27224731 53.23419189 C-22.77434288 49.92169401 -21.27177191 46.61131432 -19.76953125 43.30078125 C-19.47032272 42.64112366 -19.1711142 41.98146606 -18.86283875 41.30181885 C-12.60851898 27.51942122 -6.29649542 13.763136 0 0 Z M18 28 C16.30599037 32.19788308 14.6154159 36.39712698 12.92797852 40.59765625 C12.35372079 42.02576799 11.77853417 43.4535066 11.20239258 44.88085938 C10.37335315 46.93521765 9.54768816 48.99090458 8.72265625 51.046875 C8.46533218 51.68244324 8.20800812 52.31801147 7.94288635 52.97283936 C6.73839453 55.98350072 5.78950017 58.8419993 5 62 C14.24 62 23.48 62 33 62 C32.12641997 57.63209985 30.98313283 54.24390687 29.27734375 50.16796875 C29.01240616 49.53135818 28.74746857 48.89474762 28.47450256 48.23884583 C27.63312896 46.21990579 26.78542409 44.20369644 25.9375 42.1875 C25.36351111 40.81332689 24.78993893 39.43897965 24.21679688 38.06445312 C22.81601516 34.70760648 21.40954545 31.35317771 20 28 C19.34 28 18.68 28 18 28 Z " fill="#C6D0D7" transform="translate(370,0)"/>
<path d="M0 0 C0.9075 -0.01611328 1.815 -0.03222656 2.75 -0.04882812 C12.53554657 -0.05587823 19.20951928 3.0332623 26.625 9.3125 C27.223125 9.79203125 27.82125 10.2715625 28.4375 10.765625 C34.58741264 16.2017085 41.1996375 27.04215626 41.77026367 35.45385742 C41.79497807 38.13603353 41.81066155 40.81770124 41.8125 43.5 C41.82474609 44.42103516 41.83699219 45.34207031 41.84960938 46.29101562 C41.8753559 58.38329901 38.28004565 69.74945516 29.875 78.75 C20.61498265 87.25013043 9.95859406 89.72533123 -2.265625 89.5 C-13.12355928 88.84525019 -23.04438573 84.37152626 -30.375 76.3125 C-40.11978919 63.52949708 -41.70789255 49.07540266 -40.08984375 33.58203125 C-38.03834684 22.32867441 -31.16955897 12.58754851 -22.2265625 5.64453125 C-15.01677196 0.93468724 -8.47601656 -0.02984513 0 0 Z " fill="#9D0102" transform="translate(445.375,162.6875)"/>
<path d="M0 0 C10.71642435 5.75905553 16.62433853 15.37178187 20.24609375 26.75 C22.70393581 39.1502096 21.05264305 51.29449965 14.75390625 62.375 C13.34779406 64.29838662 11.89176248 66.02972762 10.24609375 67.75 C9.44171875 68.636875 8.63734375 69.52375 7.80859375 70.4375 C-1.2023853 78.56935915 -10.29819306 82.45545462 -22.62109375 82.00390625 C-35.52301585 80.95823925 -45.91029353 76.42376027 -54.75390625 66.75 C-63.64114919 54.8938746 -65.14985338 42.17693629 -63.75390625 27.75 C-62.9255504 23.72990014 -61.67914228 20.36583392 -59.75390625 16.75 C-59.34140625 15.96496094 -58.92890625 15.17992187 -58.50390625 14.37109375 C-52.528218 4.33804898 -43.73906406 -1.0147705 -32.75390625 -4.25 C-21.84195499 -7.88731709 -10.08151104 -4.57600501 0 0 Z " fill="#C10106" transform="translate(289.75390625,169.25)"/>
<path d="M0 0 C0.33 0 0.66 0 1 0 C1 47.85 1 95.7 1 145 C-5.93 145 -12.86 145 -20 145 C-19.505 144.01 -19.505 144.01 -19 143 C-18.9165878 141.4025289 -18.89724044 139.8015231 -18.90907288 138.20191956 C-18.91373566 137.18854019 -18.91839844 136.17516083 -18.92320251 135.131073 C-18.9331575 134.01475494 -18.94311249 132.89843689 -18.95336914 131.74829102 C-18.96614821 129.31710474 -18.97858832 126.88591667 -18.99073792 124.45472717 C-18.99865419 123.15984941 -19.00657047 121.86497166 -19.01472664 120.53085518 C-19.03745454 116.48246728 -19.04312416 112.4341723 -19.04405212 108.38572693 C-19.04423389 107.70201399 -19.04441566 107.01830105 -19.04460293 106.31386954 C-19.04505296 103.49175869 -19.04497046 100.66964802 -19.0447675 97.84753716 C-19.04503173 89.84601465 -19.06158105 81.84527459 -19.12670898 73.84399414 C-19.1783323 67.48760107 -19.19425801 61.13222194 -19.16924757 54.7756533 C-19.15735358 51.41439551 -19.16837596 48.05707046 -19.21193123 44.69580269 C-19.50180353 21.06960967 -19.50180353 21.06960967 -13.21264648 14.12475586 C-11.49541033 12.72454976 -9.75817921 11.34843725 -8 10 C-6.4322177 8.14280407 -4.9046184 6.25020009 -3.4375 4.3125 C-2.31328403 2.85803146 -1.17473667 1.41397809 0 0 Z " fill="#990001" transform="translate(180,149)"/>
<path d="M0 0 C0.66 0 1.32 0 2 0 C2 16.83 2 33.66 2 51 C-1.47247372 50.13188157 -2.80059614 49.61427094 -5.5625 47.6875 C-19.42137884 38.84736956 -36.6800147 37.72549116 -52.63696289 36.17749023 C-62.54063216 35.15302441 -72.20497451 33.97947947 -79 26 C-80.3563231 21.93103071 -80.51768169 18.25399305 -80 14 C-77.36925374 9.06735075 -73.03167587 7.00480835 -68 5 C-54.95712079 1.21246543 -38.89054934 3.36556471 -27.0625 9.53125 C-23.73237064 11.46121133 -20.7270003 13.2729997 -18 16 C-15.61013625 16.60011588 -15.61013625 16.60011588 -13 16 C-10.56195966 13.76704667 -10.56195966 13.76704667 -8.4375 10.8125 C-7.69371094 9.84957031 -6.94992187 8.88664063 -6.18359375 7.89453125 C-4.73665019 5.97648978 -3.2913167 4.05723255 -1.84765625 2.13671875 C-1.23792969 1.43160156 -0.62820313 0.72648438 0 0 Z " fill="#910203" transform="translate(933,153)"/>
<path d="M0 0 C0.91902761 0.00368717 1.83805521 0.00737434 2.78493214 0.01117325 C3.84082539 0.00567459 4.89671864 0.00017593 5.98460865 -0.00548935 C7.14266514 0.00889175 8.30072163 0.02327286 9.49387074 0.03808975 C10.71350513 0.03750565 11.93313953 0.03692154 13.18973255 0.03631973 C16.53487586 0.03863087 19.87903457 0.05870463 23.22400355 0.08661556 C26.71935078 0.11160268 30.2147108 0.11396907 33.71013355 0.11871719 C40.32940466 0.13115496 46.94841186 0.16398714 53.56756669 0.20411515 C61.10312669 0.24880816 68.63869921 0.27081364 76.17435873 0.29089689 C91.67595378 0.33271929 107.17728547 0.40308659 122.67868519 0.49219131 C122.67868519 0.82219131 122.67868519 1.15219131 122.67868519 1.49219131 C115.86680447 2.3555826 109.16218694 2.69430846 102.29977894 2.80859756 C100.7207655 2.83976921 100.7207655 2.83976921 99.10985279 2.87157059 C95.77869053 2.93645602 92.44745589 2.99566468 89.11618519 3.05469131 C86.84469362 3.09793468 84.57320911 3.14155074 82.30173206 3.18555069 C76.76079081 3.292074 71.21977911 3.39394854 65.67868519 3.49219131 C66.66868519 4.15219131 67.65868519 4.81219131 68.67868519 5.49219131 C67.50692738 5.59016006 66.33516956 5.68812881 65.12790394 5.78906631 C56.10715885 6.61673698 48.00164561 7.6908392 39.67868519 11.49219131 C38.85368519 11.82863663 38.02868519 12.16508194 37.17868519 12.51172256 C30.67839058 15.38607159 25.90179292 19.60884097 20.83102894 24.48047256 C18.67868519 26.49219131 18.67868519 26.49219131 17.67868519 26.49219131 C17.67868519 20.88219131 17.67868519 15.27219131 17.67868519 9.49219131 C9.42868519 9.49219131 1.17868519 9.49219131 -7.32131481 9.49219131 C-3.85105599 0.81654427 -3.85105599 0.81654427 0 0 Z " fill="#770506" transform="translate(204.32131481170654,121.50780868530273)"/>
<path d="M0 0 C60.06 0 120.12 0 182 0 C182 5.94 182 11.88 182 18 C177.97138447 16.38855379 174.3276282 14.6353827 170.5 12.625 C147.21946546 0.73457045 118.80756333 1.07983289 94 8 C93.505 7.01 93.505 7.01 93 6 C96.465 5.505 96.465 5.505 100 5 C100 4.34 100 3.68 100 3 C67 2.67 34 2.34 0 2 C0 1.34 0 0.68 0 0 Z " fill="#DB0A0C" transform="translate(753,122)"/>
<path d="M0 0 C3.31325104 1.65662552 5.08143503 2.88031431 7.75 5.25 C21.0705106 15.79632162 38.68879928 17.23098557 55 18 C54.67 18.66 54.34 19.32 54 20 C49.53290113 21.34684222 44.8613499 21.20295468 40.234375 21.28125 C39.4003717 21.29965942 38.56636841 21.31806885 37.70709229 21.33703613 C34.15023257 21.41552384 30.59319732 21.48376716 27.03613281 21.55224609 C24.43544682 21.60380571 21.83493153 21.66108184 19.234375 21.71875 C18.01883942 21.73911316 18.01883942 21.73911316 16.77874756 21.7598877 C13.08524664 21.49710959 13.08524664 21.49710959 10 23 C6.7 23 3.4 23 0 23 C0 15.41 0 7.82 0 0 Z " fill="#B50306" transform="translate(222,271)"/>
<path d="M0 0 C66.66 0 133.32 0 202 0 C201.67 0.99 201.34 1.98 201 3 C200.25145248 2.83701416 199.50290497 2.67402832 198.73167419 2.50610352 C193.57379034 1.80657215 188.4922606 1.87802288 183.29321289 1.90234375 C181.5271167 1.90453415 181.5271167 1.90453415 179.7253418 1.9067688 C176.48807885 1.91157429 173.25086139 1.9207801 170.01361394 1.93153763 C166.55574828 1.9416393 163.09787664 1.94506146 159.63999939 1.94897461 C149.32756908 1.96189338 139.01516691 1.98579189 128.70275879 2.01037598 C120.77746489 2.02909558 112.85218215 2.04467399 104.92687029 2.05341816 C100.2701505 2.05888411 95.61350218 2.07227586 90.95680237 2.08764648 C60.95678211 2.12578124 31.01227662 1.47638534 1 1 C1 57.1 1 113.2 1 171 C0.67 171 0.34 171 0 171 C0 114.57 0 58.14 0 0 Z " fill="#838C95" transform="translate(0,122)"/>
<path d="M0 0 C0.99 0 1.98 0 3 0 C2.96582171 7.38251128 0.99633849 11.62808253 -4 17 C-4.49371094 17.5465625 -4.98742187 18.093125 -5.49609375 18.65625 C-20.95813712 33.77126497 -48.8056335 30.26816954 -68.4487915 30.1373291 C-71.90203372 30.11657286 -75.35530664 30.10767288 -78.80859375 30.09765625 C-85.53914052 30.07580115 -92.26955345 30.04248192 -99 30 C-99 29.01 -99 28.02 -99 27 C-97.79636055 26.98786972 -97.79636055 26.98786972 -96.56840515 26.97549438 C-88.96344899 26.89717906 -81.35867459 26.80978081 -73.75393963 26.71247292 C-69.84535375 26.66277233 -65.93679153 26.61644272 -62.02807617 26.578125 C-58.24780643 26.54093727 -54.46774831 26.4944925 -50.68766212 26.44193649 C-49.25380013 26.42356862 -47.81989309 26.40839758 -46.38596153 26.39665604 C-31.60379909 26.27141281 -18.85914628 24.99999298 -6.94921875 15.3359375 C-2.7703365 10.96003599 -1.33057046 5.80082034 0 0 Z " fill="#E0E4E6" transform="translate(318,81)"/>
<path d="M0 0 C4.0951138 3.27609104 7.02005872 6.28359596 10.125 10.375 C11.09230221 11.62771669 12.05975449 12.88031751 13.02734375 14.1328125 C13.51831543 14.77250977 14.00928711 15.41220703 14.51513672 16.07128906 C16.88393326 19.14815402 19.28602728 22.19861822 21.6875 25.25 C22.14705078 25.83555664 22.60660156 26.42111328 23.08007812 27.02441406 C26.32733532 31.15919277 29.59238012 35.27831195 32.95019531 39.32421875 C35 42 35 42 36.80004883 45.07470703 C40.84667392 51.65263133 40.84667392 51.65263133 47.54003906 54.97119141 C51.61351179 55.18072799 55.50383078 55.05501165 59.5625 54.75 C60.9665668 54.6896937 62.37088459 54.6349604 63.77539062 54.5859375 C67.19007591 54.44512574 70.59174822 54.24856815 74 54 C74.33 54.99 74.66 55.98 75 57 C45.89104837 59.24815503 45.89104837 59.24815503 39.84375 54.5625 C37.40248733 51.94982691 35.65125267 48.9916213 34.00537109 45.83007812 C32.34633595 42.81013461 30.15536277 40.23805168 28 37.5625 C27.17365938 36.48308134 26.35075613 35.40102285 25.53125 34.31640625 C22.08973077 29.79000186 18.55598365 25.33668816 15.03125 20.875 C10.638734 15.2880279 6.32757778 9.63729525 2 4 C2.00222061 4.63449066 2.00444122 5.26898132 2.00672913 5.92269897 C2.02880045 12.50835611 2.04391437 19.09400278 2.05493164 25.6796875 C2.05996989 28.13965278 2.0668006 30.59961505 2.07543945 33.05957031 C2.08752723 36.58920025 2.09323329 40.11879069 2.09765625 43.6484375 C2.10281754 44.75367767 2.10797882 45.85891785 2.11329651 46.99765015 C2.11337204 48.01855743 2.11344757 49.03946472 2.11352539 50.09130859 C2.115746 50.99287689 2.11796661 51.89444519 2.12025452 52.82333374 C2 55 2 55 1 57 C-10.22 57 -21.44 57 -33 57 C-32.67 56.34 -32.34 55.68 -32 55 C-21.44 55 -10.88 55 0 55 C0 36.85 0 18.7 0 0 Z " fill="#F6F8F9" transform="translate(496,54)"/>
<path d="M0 0 C11.31225895 -0.02349882 22.6245118 -0.04110142 33.93679047 -0.05181217 C39.1933836 -0.05696095 44.44995966 -0.06390662 49.70654297 -0.07543945 C90.12143017 -0.16163379 90.12143017 -0.16163379 109.46875 0.44140625 C110.74520386 0.48039536 112.02165771 0.51938446 113.33679199 0.55955505 C119.28376478 0.77091407 125.11171795 1.13179742 131 2 C131 2.33 131 2.66 131 3 C129.92105469 3.02578125 128.84210938 3.0515625 127.73046875 3.078125 C116.13175846 3.47641442 105.27730747 5.31194999 94 8 C93.505 7.01 93.505 7.01 93 6 C96.465 5.505 96.465 5.505 100 5 C100 4.34 100 3.68 100 3 C67 2.67 34 2.34 0 2 C0 1.34 0 0.68 0 0 Z " fill="#E81D10" transform="translate(753,122)"/>
<path d="M0 0 C0.33 0 0.66 0 1 0 C1.03738281 0.84820312 1.07476562 1.69640625 1.11328125 2.5703125 C1.59065966 11.08824098 2.13920056 19.90360621 5 28 C6.95239741 29.73958244 6.95239741 29.73958244 9 31 C10.25 33.6875 10.25 33.6875 11 36 C12.1446875 35.8453125 12.1446875 35.8453125 13.3125 35.6875 C14.199375 35.790625 15.08625 35.89375 16 36 C17.04892238 37.63631892 18.04906703 39.30485863 19 41 C21.08533633 41.87822312 21.08533633 41.87822312 23 42 C23 42.66 23 43.32 23 44 C23.81791016 44.18755859 23.81791016 44.18755859 24.65234375 44.37890625 C27.34775684 45.09200223 29.93325576 46.00973739 32.5625 46.9375 C38.31186897 48.8822435 44.00512395 50.10312878 50 51 C50.33 51.99 50.66 52.98 51 54 C35.25979509 54.44408102 22.85505154 52.3575397 11.0390625 41.23046875 C-0.17757278 28.96093092 -0.4356714 15.71644247 0 0 Z " fill="#900D0E" transform="translate(226,197)"/>
<path d="M0 0 C0 3 0 3 -1.285326 4.40255833 C-1.83522635 4.90921496 -2.38512669 5.4158716 -2.95169067 5.93788147 C-7.26701903 10.80244019 -6.84135938 15.74886911 -6.77294922 21.99389648 C-6.78357895 23.18485428 -6.79420868 24.37581207 -6.80516052 25.6028595 C-6.82836416 28.8507158 -6.8252854 32.0972435 -6.81029272 35.34510684 C-6.80088413 38.74580763 -6.82538944 42.1462645 -6.84622192 45.54689026 C-6.88050692 51.97829104 -6.88450797 58.40933598 -6.87749684 64.84080988 C-6.87099559 72.16621249 -6.89845565 79.49136639 -6.92869925 86.81669509 C-6.99012392 101.87782397 -7.00912495 116.93873615 -7 132 C-7.66 132.33 -8.32 132.66 -9 133 C-9.0700405 117.01462582 -9.12296376 101.02930132 -9.15543652 85.04381084 C-9.17091406 77.62168439 -9.19202041 70.1996532 -9.22631836 62.77758789 C-9.2561937 56.30949762 -9.27556855 49.84147632 -9.28226548 43.37331897 C-9.28618095 39.94755536 -9.29540093 36.52198912 -9.31719017 33.09628868 C-9.34130103 29.27468505 -9.34197119 25.45327558 -9.34057617 21.6315918 C-9.351362 20.49223679 -9.36214783 19.35288177 -9.3732605 18.17900085 C-9.36913651 17.13993591 -9.36501251 16.10087097 -9.36076355 15.03031921 C-9.36352893 14.1260403 -9.36629431 13.22176138 -9.36914349 12.29008007 C-8.92280319 9.52108899 -8.04850483 8.82655811 -6 7 C-5.67 6.01 -5.34 5.02 -5 4 C-3.37667033 2.61423077 -1.71275535 1.27358732 0 0 Z " fill="#F4DBC2" transform="translate(169,160)"/>
<path d="M0 0 C41.25 0 82.5 0 125 0 C125 0.33 125 0.66 125 1 C116.38134376 2.15437166 107.74530766 2.40224844 99.0625 2.625 C97.78345795 2.65918533 97.78345795 2.65918533 96.47857666 2.69406128 C64.33579196 3.49870546 32.14173208 2.56853151 0 2 C0 1.34 0 0.68 0 0 Z " fill="#AA0204" transform="translate(202,122)"/>
<path d="M0 0 C15.18 0 30.36 0 46 0 C46 0.33 46 0.66 46 1 C31.81 1 17.62 1 3 1 C2.01 3.97 1.02 6.94 0 10 C-0.70324914 11.55644825 -1.44634857 13.09690244 -2.26171875 14.59765625 C-2.79865356 15.59937866 -2.79865356 15.59937866 -3.34643555 16.62133789 C-4.01026245 17.82971313 -4.01026245 17.82971313 -4.6875 19.0625 C-6.110625 21.681875 -7.53375 24.30125 -9 27 C-19.89 27 -30.78 27 -42 27 C-42.33 26.34 -42.66 25.68 -43 25 C-32.44 25 -21.88 25 -11 25 C-10.67 23.35 -10.34 21.7 -10 20 C-6.7 13.4 -3.4 6.8 0 0 Z " fill="#F6F7F8" transform="translate(364,84)"/>
<path d="M0 0 C0.99 0 1.98 0 3 0 C3.00586624 0.82668686 3.01173248 1.65337372 3.01777649 2.50511169 C3.07616707 10.37313326 3.14849941 18.2408848 3.23571491 26.10864162 C3.28006087 30.15158965 3.31939068 34.19444512 3.34643555 38.23754883 C3.372832 42.15407283 3.41347611 46.07023348 3.46318626 49.9865284 C3.47961369 51.46566235 3.49127547 52.94485877 3.49761391 54.42407036 C3.54857952 65.24518637 4.89936211 75.39375825 7 86 C7.34119852 87.99867323 7.67762271 89.99820481 8 92 C7.34 92 6.68 92 6 92 C5.34 89.69 4.68 87.38 4 85 C3.34 85 2.68 85 2 85 C1.90912109 83.64068359 1.90912109 83.64068359 1.81640625 82.25390625 C1.73261719 81.03574219 1.64882813 79.81757813 1.5625 78.5625 C1.48128906 77.36753906 1.40007813 76.17257813 1.31640625 74.94140625 C1.10633602 72.32460549 0.82614425 69.71244906 0.47485352 67.11083984 C-0.2259053 60.83793687 -0.03571786 54.58644754 0.0859375 48.28515625 C0.11779648 46.34702309 0.11779648 46.34702309 0.15029907 44.36973572 C0.19547299 41.65420712 0.24466656 38.93879089 0.296875 36.22338867 C0.36356061 32.74098621 0.42066388 29.25850345 0.47490501 25.77588749 C0.52792777 22.44555407 0.58845289 19.11537168 0.6484375 15.78515625 C0.66828705 14.53315933 0.6881366 13.28116241 0.70858765 11.9912262 C0.73176056 10.83920212 0.75493347 9.68717804 0.77880859 8.50024414 C0.79736908 7.48370255 0.81592957 6.46716095 0.83505249 5.41981506 C1 3 1 3 2 1 C1.34 0.67 0.68 0.34 0 0 Z " fill="#B40002" transform="translate(709,166)"/>
<path d="M0 0 C2.49561528 3.08568883 4.16327121 6.2119593 5.8203125 9.8125 C6.35172852 10.96161865 6.88314453 12.1107373 7.43066406 13.29467773 C7.99571408 14.52966103 8.56048731 15.764771 9.125 17 C9.70514638 18.26191843 10.28555191 19.52371776 10.86621094 20.78540039 C12.03092787 23.3191588 13.19220065 25.85445413 14.35058594 28.39111328 C15.83425717 31.63735783 17.32624493 34.87962611 18.8203125 38.12109375 C19.6309658 39.89288279 20.44091512 41.66499419 21.25 43.4375 C21.62012207 44.23994141 21.99024414 45.04238281 22.37158203 45.86914062 C22.70786621 46.61228516 23.04415039 47.35542969 23.390625 48.12109375 C23.67969727 48.7545874 23.96876953 49.38808105 24.26660156 50.04077148 C25 52 25 52 26 57 C14.78 57 3.56 57 -8 57 C-8 56.34 -8 55.68 -8 55 C2.23 55 12.46 55 23 55 C14.46695879 35.76810609 14.46695879 35.76810609 5.875 16.5625 C5.50963135 15.74813477 5.1442627 14.93376953 4.76782227 14.09472656 C4.42936279 13.34288086 4.09090332 12.59103516 3.7421875 11.81640625 C3.4519873 11.17131104 3.16178711 10.52621582 2.86279297 9.86157227 C2.00698058 7.95437928 2.00698058 7.95437928 0.89111328 6.01147461 C0 4 0 4 0 0 Z " fill="#F5F7F8" transform="translate(430,54)"/>
<path d="M0 0 C12.87 0.495 12.87 0.495 26 1 C26 1.99 26 2.98 26 4 C50.09 4 74.18 4 99 4 C99 4.33 99 4.66 99 5 C87.10831808 5.02317892 75.21664155 5.04094343 63.32494164 5.05181217 C57.80304542 5.05702884 52.28116466 5.06410444 46.75927734 5.07543945 C41.42951938 5.0863115 36.09977629 5.09228601 30.77000809 5.09487724 C28.73747143 5.0967237 26.70493557 5.10032934 24.67240524 5.10573006 C21.82374061 5.11299774 18.97513727 5.11398852 16.12646484 5.11352539 C15.28776855 5.11712067 14.44907227 5.12071594 13.58496094 5.12442017 C9.27517161 5.11684745 5.24478809 4.86116206 1 4 C0.67 2.68 0.34 1.36 0 0 Z " fill="#C60405" transform="translate(428,287)"/>
<path d="M0 0 C6.74761334 0.65830374 11.68103239 3.31318059 16.25 8.1875 C22.32848717 15.87499848 22.83972782 24.47914228 22 34 C20.7640458 41.27097383 17.12157428 45.8503623 12 51 C11.34 50.67 10.68 50.34 10 50 C10.763125 49.175 11.52625 48.35 12.3125 47.5 C18.60903056 39.77243976 18.81636295 31.64190831 18 22 C16.92347334 16.55495935 15.13807279 11.8197595 11 8 C8.42044988 6.62369051 5.8243332 5.38016295 3.14453125 4.2109375 C1 3 1 3 0 0 Z " fill="#F6F6F7" transform="translate(648,28)"/>
<path d="M0 0 C1 2 1 2 0.1796875 4.609375 C-2.28927925 10.55263629 -4.49707801 15.38450496 -9 20 C-9.763125 20.825 -10.52625 21.65 -11.3125 22.5 C-27.83369606 37.86855447 -48.17586352 41.49852088 -70 41 C-70 40.67 -70 40.34 -70 40 C-69.33581055 39.92483154 -68.67162109 39.84966309 -67.98730469 39.7722168 C-37.22723369 36.53997125 -37.22723369 36.53997125 -12 19.78125 C-8.53495984 14.96267853 -6.08930533 9.6648636 -3.62890625 4.28125 C-2 1 -2 1 0 0 Z " fill="#F6E2D1" transform="translate(147,250)"/>
<path d="M0 0 C0.33 0 0.66 0 1 0 C1.33 16.83 1.66 33.66 2 51 C36.0656482 51.53114137 36.0656482 51.53114137 70 49 C70 49.66 70 50.32 70 51 C55.71977796 56.25395565 38.51697925 53.9411259 23.5625 53.5625 C15.786875 53.376875 8.01125 53.19125 0 53 C0 35.51 0 18.02 0 0 Z " fill="#EDF0F3" transform="translate(593,57)"/>
<path d="M0 0 C12.54 0 25.08 0 38 0 C38 0.33 38 0.66 38 1 C36.02 1 34.04 1 32 1 C31.67 1.99 31.34 2.98 31 4 C17.47 4 3.94 4 -10 4 C-10.33 3.34 -10.66 2.68 -11 2 C-7.37 2.33 -3.74 2.66 0 3 C0 2.01 0 1.02 0 0 Z " fill="#870406" transform="translate(548,288)"/>
<path d="M0 0 C0.33 0 0.66 0 1 0 C1.03738281 0.84820312 1.07476562 1.69640625 1.11328125 2.5703125 C1.59065966 11.08824098 2.13920056 19.90360621 5 28 C6.95777308 29.69910017 6.95777308 29.69910017 9 31 C9.71361779 32.71917013 10.42617084 34.438828 11.125 36.1640625 C13.4348993 41.0107262 16.30730756 43.37193285 21.2109375 45.19140625 C23.51944408 45.88191981 25.83999779 46.53369806 28.171875 47.140625 C31 48 31 48 33 50 C28.37911589 51.27811688 25.83807852 51.27882397 21.5625 49 C11.15872414 42.54187383 3.76350517 34.14443982 0.45703125 22.13671875 C-0.60754495 14.83026843 -0.2040682 7.36157124 0 0 Z " fill="#7E090A" transform="translate(226,197)"/>
<path d="M0 0 C3.48557811 1.51894459 5.92223324 3.60459919 8.75 6.125 C24.79125082 19.38946972 43.70973766 23.35601286 64 25 C64 25.33 64 25.66 64 26 C59.38 26.33 54.76 26.66 50 27 C50 27.33 50 27.66 50 28 C46.625 28.1875 46.625 28.1875 43 28 C42.34 27.01 41.68 26.02 41 25 C38.53578716 23.97055152 38.53578716 23.97055152 35.625 23.1875 C22.11959453 18.90058132 8.43663654 11.75102947 0 0 Z " fill="#F6E6DD" transform="translate(12,264)"/>
<path d="M0 0 C1 3 1 3 0.03125 5.234375 C-6.4970169 15.9593849 -13.59210443 22.59997476 -25.8125 26.3125 C-31.43013695 27.55185496 -37.28502574 27.15681332 -43 27 C-43 26.67 -43 26.34 -43 26 C-42.20335937 25.87882812 -41.40671875 25.75765625 -40.5859375 25.6328125 C-31.13582515 24.27005567 -31.13582515 24.27005567 -22.5 20.4375 C-20 19 -20 19 -16.9375 18.5625 C-13.40967654 17.88695934 -12.35690749 16.6094333 -10 14 C-9.34 14 -8.68 14 -8 14 C-7.71125 13.195625 -7.4225 12.39125 -7.125 11.5625 C-6 9 -6 9 -4 8 C-2.87775145 6.11986894 -2.87775145 6.11986894 -1.875 3.9375 C-1.52179688 3.20402344 -1.16859375 2.47054687 -0.8046875 1.71484375 C-0.53914063 1.14894531 -0.27359375 0.58304688 0 0 Z " fill="#7B0B0C" transform="translate(483,225)"/>
<path d="M0 0 C9.24 0 18.48 0 28 0 C28.33 0.66 28.66 1.32 29 2 C20.42 2 11.84 2 3 2 C3 7.61 3 13.22 3 19 C2.01 19 1.02 19 0 19 C0 12.73 0 6.46 0 0 Z " fill="#E4E8EB" transform="translate(251,64)"/>
<path d="M0 0 C1.65 0 3.3 0 5 0 C5 0.66 5 1.32 5 2 C4.34 2 3.68 2 3 2 C2.85304688 2.54785156 2.70609375 3.09570312 2.5546875 3.66015625 C0.98056578 9.22386231 -0.8858097 14.65954339 -2.9375 20.0625 C-3.17807129 20.72967041 -3.41864258 21.39684082 -3.66650391 22.08422852 C-4.40234375 23.97265625 -4.40234375 23.97265625 -6 27 C-8.19140625 27.93359375 -8.19140625 27.93359375 -10 28 C-9.04550013 23.95256415 -7.60339762 20.1298923 -6.125 16.25 C-5.86847656 15.57195313 -5.61195313 14.89390625 -5.34765625 14.1953125 C-4.83054509 12.82847596 -4.3126447 11.46193774 -3.79394531 10.09570312 C-2.52031783 6.73382787 -1.26064819 3.36676104 0 0 Z " fill="#EFF1F2" transform="translate(385,26)"/>
<path d="M0 0 C30.03 0 60.06 0 91 0 C90.67 0.99 90.34 1.98 90 3 C89.17864563 2.83668686 88.35729126 2.67337372 87.51104736 2.50511169 C83.59036544 1.94106852 79.77228388 1.88235782 75.82324219 1.91821289 C74.62705765 1.92281273 74.62705765 1.92281273 73.40670776 1.92750549 C71.68468965 1.93463009 69.96267965 1.94400391 68.24068451 1.95540047 C65.51764892 1.97284346 62.79467239 1.98310541 60.07159424 1.99131775 C52.33282904 2.01573496 44.5941442 2.051509 36.85546875 2.09594727 C32.11533377 2.12266757 27.37524402 2.1397483 22.63504791 2.15081596 C20.82805957 2.15703665 19.02108027 2.16705544 17.21413422 2.18089485 C14.69575674 2.20002487 12.17761981 2.20699435 9.65917969 2.21118164 C8.53396408 2.22432404 8.53396408 2.22432404 7.38601685 2.23773193 C2.22789761 2.22789761 2.22789761 2.22789761 0 0 Z " fill="#B4B6C1" transform="translate(111,122)"/>
<path d="M0 0 C0.67804688 0.31453125 1.35609375 0.6290625 2.0546875 0.953125 C4.01623844 1.85511241 5.98279588 2.74625881 7.953125 3.62890625 C9.7666869 4.44500911 11.57239765 5.27956508 13.359375 6.15234375 C19.54627355 8.97911636 25.57243425 9.75312228 32.28759766 10.31713867 C37.80661799 10.80661799 37.80661799 10.80661799 40 13 C34.95440272 14.78079904 32.83086908 15.07141811 28 13 C26.31937175 12.68936255 24.63072056 12.41990282 22.9375 12.1875 C16.52622365 11.1131308 10.8855276 8.69111384 5 6 C5 5.34 5 4.68 5 4 C3.35 3.67 1.7 3.34 0 3 C0 2.01 0 1.02 0 0 Z " fill="#AD0002" transform="translate(244,235)"/>
<path d="M0 0 C0.99 0 1.98 0 3 0 C2.96108981 8.40460087 0.05257395 12.90199361 -5.7421875 18.76171875 C-9.24897994 21.98017492 -12.28884814 23.85093857 -17 25 C-17.33 24.01 -17.66 23.02 -18 22 C-17.41992188 21.72027344 -16.83984375 21.44054687 -16.2421875 21.15234375 C-9.71136445 17.80071674 -4.68467135 14.36483031 -1.96875 7.328125 C-1.22714096 4.89729538 -0.56806368 2.47655832 0 0 Z " fill="#EFF2F3" transform="translate(318,81)"/>
<path d="M0 0 C5.66947873 5.47397946 6.7375524 13.15615208 7.25390625 20.71875 C7.3421776 26.32103837 7.41244223 30.85794187 5 36 C4.34 36 3.68 36 3 36 C3.02320313 34.81664062 3.04640625 33.63328125 3.0703125 32.4140625 C3.25091599 21.1849673 3.25091599 21.1849673 1.51171875 10.125 C0.70676808 6.78230409 0.37933811 3.414043 0 0 Z " fill="#E90506" transform="translate(142,215)"/>
<path d="M0 0 C0.99 0.33 1.98 0.66 3 1 C2.29875 1.82242188 1.5975 2.64484375 0.875 3.4921875 C-0.08340401 4.6197316 -1.04173196 5.74734035 -2 6.875 C-2.74842163 7.75224731 -2.74842163 7.75224731 -3.51196289 8.6472168 C-7.26178758 13.06418452 -10.81052213 17.60219961 -14.24609375 22.26953125 C-16 24 -16 24 -20 24 C-18.38389077 20.07649782 -15.68680596 17.28594646 -12.8125 14.25 C-11.82220339 13.18816477 -10.83262134 12.12566268 -9.84375 11.0625 C-9.36035156 10.54429687 -8.87695312 10.02609375 -8.37890625 9.4921875 C-5.51396616 6.39188406 -2.75545992 3.19746203 0 0 Z " fill="#FD8E45" transform="translate(138,150)"/>
<path d="M0 0 C0.33 0 0.66 0 1 0 C1.01458252 1.12269287 1.02916504 2.24538574 1.04418945 3.40209961 C1.103109 7.65369163 1.18031503 11.90480437 1.26245117 16.15600586 C1.29526796 17.9798187 1.32342703 19.8037226 1.34643555 21.62768555 C1.50316495 33.7358654 2.57185638 45.1403584 5 57 C5.34242122 58.99846411 5.67918529 60.99795379 6 63 C5.34 63 4.68 63 4 63 C3.01 59.535 3.01 59.535 2 56 C1.34 56 0.68 56 0 56 C0 37.52 0 19.04 0 0 Z " fill="#A90A0B" transform="translate(711,195)"/>
<path d="M0 0 C0.33 0 0.66 0 1 0 C1 14.52 1 29.04 1 44 C-1 43 -1 43 -1.5625 41.375 C-1.706875 40.59125 -1.85125 39.8075 -2 39 C-2.309375 37.4221875 -2.309375 37.4221875 -2.625 35.8125 C-2.96777929 32.32757718 -2.78584482 29.3189635 -2.3203125 25.86328125 C-1.80918268 21.29427933 -1.616543 16.70668708 -1.39306641 12.11572266 C-1.17733889 8.01124765 -0.76329391 4.03909696 0 0 Z " fill="#CD0005" transform="translate(709,184)"/>
<path d="M0 0 C5.97737327 -0.02482932 11.95471611 -0.04292109 17.93212891 -0.05493164 C19.96305871 -0.05994189 21.99398494 -0.06675191 24.02490234 -0.07543945 C26.95411057 -0.08765047 29.88327085 -0.09326153 32.8125 -0.09765625 C33.71178223 -0.10281754 34.61106445 -0.10797882 35.53759766 -0.11329651 C40.78569067 -0.11375728 45.80624001 0.23729846 51 1 C51 1.66 51 2.32 51 3 C44.73 3 38.46 3 32 3 C32 2.67 32 2.34 32 2 C21.44 1.67 10.88 1.34 0 1 C0 0.67 0 0.34 0 0 Z " fill="#940000" transform="translate(405,124)"/>
<path d="M0 0 C5.65949762 0.9128222 11.12025634 2.80127744 16.40234375 5 C25.22905239 8.397951 34.61587037 9.50965809 44 10 C44 10.33 44 10.66 44 11 C32.04477308 11.34708723 21.66139247 10.18453225 10.4375 6.0625 C9.74615967 5.80968262 9.05481934 5.55686523 8.3425293 5.29638672 C4.9791132 3.99767076 2.27085988 2.87070966 0 0 Z " fill="#7E1E20" transform="translate(843,244)"/>
<path d="M0 0 C4.08308236 -0.11800816 8.16571576 -0.18784785 12.25 -0.25 C13.38953125 -0.28351563 14.5290625 -0.31703125 15.703125 -0.3515625 C23.7407227 -0.44289884 30.63604077 0.65498384 38 4 C38.66 4.66 39.32 5.32 40 6 C38.56206608 5.68950274 37.1246682 5.3765224 35.6875 5.0625 C34.88699219 4.88847656 34.08648437 4.71445313 33.26171875 4.53515625 C31 4 31 4 28 3 C25.64319787 2.91602843 23.28405919 2.89271813 20.92578125 2.90234375 C20.2419487 2.9037587 19.55811615 2.90517365 18.8535614 2.90663147 C16.67316278 2.91222124 14.49286749 2.92477178 12.3125 2.9375 C10.83268378 2.94251633 9.35286594 2.947079 7.87304688 2.95117188 C4.24866443 2.96218729 0.6243423 2.97944488 -3 3 C-2.01 2.67 -1.02 2.34 0 2 C0 1.34 0 0.68 0 0 Z " fill="#F4DDCA" transform="translate(68,160)"/>
<path d="M0 0 C-0.33 0.99 -0.66 1.98 -1 3 C-1.845625 3.391875 -2.69125 3.78375 -3.5625 4.1875 C-10.34221893 7.76226089 -18.53251467 15.597544 -21 23 C-21.66 23 -22.32 23 -23 23 C-20.80677396 13.4960205 -13.9633789 7.49032111 -6.13671875 2.3125 C-2.37202381 0 -2.37202381 0 0 0 Z " fill="#940C0E" transform="translate(252,167)"/>
<path d="M0 0 C0.66 0.33 1.32 0.66 2 1 C1.83701416 1.54817383 1.67402832 2.09634766 1.50610352 2.66113281 C0.93196444 5.31441423 0.88726348 7.70742678 0.90234375 10.421875 C0.90556641 11.44667969 0.90878906 12.47148437 0.91210938 13.52734375 C0.92048828 14.59082031 0.92886719 15.65429688 0.9375 16.75 C0.94201172 17.82894531 0.94652344 18.90789062 0.95117188 20.01953125 C0.96294273 22.67974383 0.97938601 25.33984365 1 28 C-2 26 -2 26 -2.671875 23.734375 C-3.68590258 15.28414519 -3.34296935 7.87985633 0 0 Z " fill="#CBBCC2" transform="translate(226,192)"/>
<path d="M0 0 C9.9 0 19.8 0 30 0 C30 0.33 30 0.66 30 1 C28.80503906 1.19335938 27.61007812 1.38671875 26.37890625 1.5859375 C14.63330437 3.50284489 14.63330437 3.50284489 3 6 C2.67 5.34 2.34 4.68 2 4 C5.465 3.505 5.465 3.505 9 3 C9 2.34 9 1.68 9 1 C6.03 1 3.06 1 0 1 C0 0.67 0 0.34 0 0 Z " fill="#DD0F12" transform="translate(844,124)"/>
<path d="M0 0 C1 2 1 2 0.1796875 4.609375 C-3.32409547 13.043631 -6.56973891 18.48037748 -14 24 C-14.66 23.67 -15.32 23.34 -16 23 C-15.49210938 22.50113281 -14.98421875 22.00226563 -14.4609375 21.48828125 C-9.21178271 16.01303926 -6.12606979 10.62269356 -3.2265625 3.625 C-2 1 -2 1 0 0 Z " fill="#FEA256" transform="translate(147,250)"/>
<path d="M0 0 C3.9222534 4.8271054 6.27396673 10.50470923 8.89038086 16.09985352 C9.81412947 18.06596819 10.75735264 20.02197271 11.70117188 21.97851562 C12.28768254 23.22598766 12.87301116 24.47401628 13.45703125 25.72265625 C14.2610437 27.42047241 14.2610437 27.42047241 15.08129883 29.15258789 C15.38447021 30.09223389 15.6876416 31.03187988 16 32 C15.34 32.99 14.68 33.98 14 35 C13.49210937 33.85144531 12.98421875 32.70289063 12.4609375 31.51953125 C11.7656941 29.95049022 11.07037638 28.38148211 10.375 26.8125 C10.01470703 25.99765137 9.65441406 25.18280273 9.28320312 24.34326172 C7.60500781 20.55989662 5.91501923 16.78644911 4.1328125 13.05078125 C3.59398437 11.92027344 3.05515625 10.78976563 2.5 9.625 C2.0153125 8.62726562 1.530625 7.62953125 1.03125 6.6015625 C0 4 0 4 0 0 Z " fill="#F1F1F1" transform="translate(430,54)"/>
<path d="M0 0 C0 0.99 0 1.98 0 3 C0.99 3 1.98 3 3 3 C2.67 4.32 2.34 5.64 2 7 C1.20335937 6.66226563 0.40671875 6.32453125 -0.4140625 5.9765625 C-1.47367188 5.53054687 -2.53328125 5.08453125 -3.625 4.625 C-4.66914062 4.18414062 -5.71328125 3.74328125 -6.7890625 3.2890625 C-9.82903202 2.06863678 -12.88205905 1.0018609 -16 0 C-16 -0.33 -16 -0.66 -16 -1 C-10.49752549 -2.50067487 -5.41157773 -1.51524176 0 0 Z " fill="#CDA2AD" transform="translate(127,196)"/>
<path d="M0 0 C2.0696526 2.6808658 3.86815249 5.42037968 5.625 8.3125 C8.92546137 13.34653704 13.08828204 16.60545714 18 20 C17.34 20.66 16.68 21.32 16 22 C9.16553912 17.52851761 1.53778057 11.37840667 -0.78515625 3.25390625 C-0.85605469 2.51011719 -0.92695313 1.76632813 -1 1 C-0.67 0.67 -0.34 0.34 0 0 Z " fill="#D1CDD3" transform="translate(228,224)"/>
<path d="M0 0 C0.99 0.33 1.98 0.66 3 1 C1.37956629 7.6437782 -2.37950515 12.25300343 -8 16 C-10.6875 16.125 -10.6875 16.125 -13 16 C-10.92444503 13.84757262 -8.95598335 11.96918834 -6.5 10.25 C-3.21674309 7.29506878 -1.7400629 4.00506098 0 0 Z " fill="#ECEFF1" transform="translate(314,37)"/>
<path d="M0 0 C0.66 0.66 1.32 1.32 2 2 C-2.02300498 4.86818366 -4.78161507 5.36187879 -9.6875 5.25 C-11.39486328 5.22679687 -11.39486328 5.22679687 -13.13671875 5.203125 C-16 5 -16 5 -18 4 C-18 3.34 -18 2.68 -18 2 C-17.07767578 2.03480469 -17.07767578 2.03480469 -16.13671875 2.0703125 C-14.92435547 2.09738281 -14.92435547 2.09738281 -13.6875 2.125 C-12.48673828 2.15980469 -12.48673828 2.15980469 -11.26171875 2.1953125 C-6.93850884 1.82197831 -4.78745752 -0.40744319 0 0 Z " fill="#AF1012" transform="translate(779,248)"/>
<path d="M0 0 C1.98 0 3.96 0 6 0 C5.67 0.99 5.34 1.98 5 3 C-8.53 3 -22.06 3 -36 3 C-36.33 2.34 -36.66 1.68 -37 1 C-18.685 1.495 -18.685 1.495 0 2 C0 1.34 0 0.68 0 0 Z " fill="#920000" transform="translate(574,289)"/>
<path d="M0 0 C1.72985242 0.11512153 3.45888751 0.24255677 5.1875 0.375 C6.15042969 0.44460937 7.11335938 0.51421875 8.10546875 0.5859375 C11.01508938 1.00215853 13.32890774 1.79874096 16 3 C16 3.66 16 4.32 16 5 C13.95863605 5.05451714 11.91684144 5.09302485 9.875 5.125 C8.16957031 5.15980469 8.16957031 5.15980469 6.4296875 5.1953125 C2.94242233 4.99672109 0.2446138 4.2524801 -3 3 C-3 2.67 -3 2.34 -3 2 C-1.02 2 0.96 2 3 2 C2.01 1.34 1.02 0.68 0 0 Z " fill="#971B1D" transform="translate(261,246)"/>
<path d="M0 0 C0 0.66 0 1.32 0 2 C-0.78375 2.5775 -1.5675 3.155 -2.375 3.75 C-5.39807984 6.34121129 -6.04921098 8.19684394 -7 12 C-8.32 12 -9.64 12 -11 12 C-10.76291095 5.95422917 -10.76291095 5.95422917 -8.73828125 3.421875 C-5.60054577 0.67141669 -4.25119369 0 0 0 Z " fill="#FDE8CA" transform="translate(64,163)"/>
<path d="M0 0 C0.33 0 0.66 0 1 0 C1.4369174 10.46983549 1.3521942 18.41127514 -5.6875 26.5625 C-6.77830683 27.72105881 -7.8778856 28.87173703 -9 30 C-9.66 29.67 -10.32 29.34 -11 29 C-10.236875 28.175 -9.47375 27.35 -8.6875 26.5 C-4.70215826 21.72436386 -2.95237632 16.09520848 -2 10 C-1.67 10 -1.34 10 -1 10 C-0.67 6.7 -0.34 3.4 0 0 Z " fill="#EFF1F2" transform="translate(669,49)"/>
<path d="M0 0 C0.66 0 1.32 0 2 0 C2.69685498 1.6210103 3.38222861 3.24696066 4.0625 4.875 C4.63677734 6.23238281 4.63677734 6.23238281 5.22265625 7.6171875 C6 10 6 10 5 12 C5.99 12 6.98 12 8 12 C8.33 15.63 8.66 19.26 9 23 C8.01 23 7.02 23 6 23 C5.73445313 21.84242188 5.46890625 20.68484375 5.1953125 19.4921875 C4.83869236 17.95309007 4.48191309 16.41402952 4.125 14.875 C3.95097656 14.11445313 3.77695312 13.35390625 3.59765625 12.5703125 C2.60201572 8.29274576 1.47028611 4.14594191 0 0 Z " fill="#ED2219" transform="translate(343,171)"/>
<path d="M0 0 C0.66 0.33 1.32 0.66 2 1 C0.77023437 2.16015625 0.77023437 2.16015625 -0.484375 3.34375 C-8.64448205 11.15281219 -8.64448205 11.15281219 -14 21 C-14.66 20.67 -15.32 20.34 -16 20 C-14.71630721 15.29083822 -13.00738868 12.43481341 -9.6875 8.875 C-8.92824219 8.04742187 -8.16898438 7.21984375 -7.38671875 6.3671875 C-5.04599806 4.04562164 -2.6126637 2.00689566 0 0 Z " fill="#E7E9ED" transform="translate(832,137)"/>
<path d="M0 0 C0 3 0 3 -1.49829102 4.515625 C-2.46013306 5.37414062 -2.46013306 5.37414062 -3.44140625 6.25 C-8.68935999 12.02552581 -7.99944755 18.55900651 -7.9375 26 C-7.95063052 27.36071107 -7.96688114 28.72139579 -7.98632812 30.08203125 C-8.02150932 33.38906328 -8.02515943 36.6929682 -8 40 C-8.33 40 -8.66 40 -9 40 C-9.07419134 35.78250781 -9.1286204 31.56536189 -9.16479492 27.34741211 C-9.17987589 25.91277448 -9.2003438 24.47818292 -9.22631836 23.04370117 C-9.26273437 20.98084141 -9.27973243 18.91859142 -9.29296875 16.85546875 C-9.3086792 15.61434326 -9.32438965 14.37321777 -9.34057617 13.09448242 C-8.96706399 9.70074267 -8.54547575 9.07541794 -6 7 C-5.67 6.01 -5.34 5.02 -5 4 C-3.37667033 2.61423077 -1.71275535 1.27358732 0 0 Z " fill="#FDE9DC" transform="translate(169,160)"/>
<path d="M0 0 C0.99 0 1.98 0 3 0 C1.94659123 2.68140415 1.11699743 3.91550186 -1.25 5.625 C-5.24748892 9.07737679 -7.45592811 13.4189221 -10 18 C-10.99 17.01 -11.98 16.02 -13 15 C-12.34 15 -11.68 15 -11 15 C-10.814375 14.34 -10.62875 13.68 -10.4375 13 C-7.99780145 7.9084552 -3.96777138 3.96777138 0 0 Z " fill="#DAD6DB" transform="translate(240,170)"/>
<path d="M0 0 C3 3 3 3 3.2487793 5.36010742 C3.16237183 6.71906128 3.16237183 6.71906128 3.07421875 8.10546875 C3.01943359 9.08837891 2.96464844 10.07128906 2.90820312 11.08398438 C2.83537109 12.10814453 2.76253906 13.13230469 2.6875 14.1875 C2.62626953 15.22326172 2.56503906 16.25902344 2.50195312 17.32617188 C2.34864013 19.88531957 2.1807893 22.44267045 2 25 C1.34 24.67 0.68 24.34 0 24 C0 16.08 0 8.16 0 0 Z " fill="#CDC5CE" transform="translate(220,268)"/>
<path d="M0 0 C0.99 0 1.98 0 3 0 C4.62737868 2.90935454 5.34972896 5.31373639 5.6875 8.625 C5.77386719 9.40101563 5.86023438 10.17703125 5.94921875 10.9765625 C6 13 6 13 5 15 C4.01 14.67 3.02 14.34 2 14 C1.93941406 13.24074219 1.87882813 12.48148438 1.81640625 11.69921875 C1.73261719 10.70535156 1.64882813 9.71148437 1.5625 8.6875 C1.48128906 7.70136719 1.40007813 6.71523437 1.31640625 5.69921875 C1.08187441 2.90624401 1.08187441 2.90624401 0 0 Z " fill="#CBD0D7" transform="translate(904,228)"/>
<path d="M0 0 C0.33 0 0.66 0 1 0 C1.04898438 0.90621094 1.09796875 1.81242188 1.1484375 2.74609375 C1.53372702 9.02365579 2.05050257 14.98949167 3.58984375 21.08984375 C4.15958979 23.74323245 4.13846147 26.3000013 4 29 C0.10969621 25.10969621 -0.11499385 19.34293621 -0.1953125 14.0625 C-0.18223024 12.37488795 -0.15869469 10.68732636 -0.125 9 C-0.11597656 8.12988281 -0.10695312 7.25976562 -0.09765625 6.36328125 C-0.07434619 4.2420658 -0.03848579 2.12099438 0 0 Z " fill="#8A0D0E" transform="translate(226,197)"/>
<path d="M0 0 C0.99 0.33 1.98 0.66 3 1 C2.67201416 1.47421387 2.34402832 1.94842773 2.00610352 2.43701172 C0.52357406 4.58209334 -0.9569846 6.72852786 -2.4375 8.875 C-2.95376953 9.62136719 -3.47003906 10.36773437 -4.00195312 11.13671875 C-4.49501953 11.85214844 -4.98808594 12.56757813 -5.49609375 13.3046875 C-5.95169678 13.96452637 -6.4072998 14.62436523 -6.87670898 15.30419922 C-8.05419282 17.00747367 -8.05419282 17.00747367 -9 19 C-9.66 19 -10.32 19 -11 19 C-10.67 17.35 -10.34 15.7 -10 14 C-9.01 13.67 -8.02 13.34 -7 13 C-6.690625 12.071875 -6.38125 11.14375 -6.0625 10.1875 C-4.90937949 6.72813846 -3.61210294 5.44358017 -1 3 C-0.67 2.01 -0.34 1.02 0 0 Z " fill="#920B0D" transform="translate(817,242)"/>
<path d="M0 0 C-8.8850907 3.25738186 -16.54393261 4.55714963 -26 4 C-26 3.67 -26 3.34 -26 3 C-24.87464844 2.81824219 -24.87464844 2.81824219 -23.7265625 2.6328125 C-17.82607032 1.66673695 -11.98205639 0.6191764 -6.15625 -0.73046875 C-3.81932316 -1.0225846 -2.22733496 -0.71375961 0 0 Z " fill="#7F1011" transform="translate(466,248)"/>
<path d="M0 0 C3 2 3 2 4 5 C6.01508358 5.73323796 6.01508358 5.73323796 8 6 C8 6.66 8 7.32 8 8 C5.9375 8.9375 5.9375 8.9375 3 9 C0.37232162 6.92608855 -1.81321095 4.52709628 -4 2 C-2.68 1.34 -1.36 0.68 0 0 Z " fill="#8D0000" transform="translate(241,233)"/>
<path d="M0 0 C1.32 0 2.64 0 4 0 C4.309375 1.5778125 4.309375 1.5778125 4.625 3.1875 C5.8774341 7.67085106 8.30483168 9.30560643 12 12 C12.66 12.66 13.32 13.32 14 14 C13.01 14.495 13.01 14.495 12 15 C8.59260295 12.75421558 5.23521742 10.48862878 2 8 C2.33 5.69 2.66 3.38 3 1 C2.01 0.67 1.02 0.34 0 0 Z " fill="#C81213" transform="translate(53,175)"/>
<path d="M0 0 C0.66 0 1.32 0 2 0 C5.7505733 6.78117047 6.51778074 12.30520289 6 20 C5.34 20 4.68 20 4 20 C3.87882812 19.14277344 3.75765625 18.28554688 3.6328125 17.40234375 C2.76144776 11.45695509 1.86184181 5.71851412 0 0 Z " fill="#DADDDF" transform="translate(312,16)"/>
<path d="M0 0 C0.66 0.33 1.32 0.66 2 1 C1.4946875 1.49628906 0.989375 1.99257812 0.46875 2.50390625 C-4.08495886 7.0127821 -4.08495886 7.0127821 -5.4375 13 C-5.293125 13.99 -5.14875 14.98 -5 16 C-5.66 16 -6.32 16 -7 16 C-7.76140684 8.38593156 -7.76140684 8.38593156 -5.95703125 5.1015625 C-4.17646218 2.96070232 -2.50485776 1.25242888 0 0 Z " fill="#C1ADB7" transform="translate(64,164)"/>
<path d="M0 0 C9.57 0 19.14 0 29 0 C28.67 0.99 28.34 1.98 28 3 C27.24460938 2.84660156 26.48921875 2.69320312 25.7109375 2.53515625 C20.6909083 1.8112152 15.68939556 1.63680847 10.625 1.4375 C9.60277344 1.39431641 8.58054688 1.35113281 7.52734375 1.30664062 C5.01834712 1.20112208 2.50926057 1.09900787 0 1 C0 0.67 0 0.34 0 0 Z " fill="#CAB0BB" transform="translate(173,122)"/>
<path d="M0 0 C-1.53217054 3.44738372 -3.40570444 6.25309882 -6 9 C-7.32 9 -8.64 9 -10 9 C-8.5124715 4.98367305 -4.56813239 0 0 0 Z " fill="#FCA35B" transform="translate(128,165)"/>
<path d="M0 0 C0.99 0.495 0.99 0.495 2 1 C3.32285618 5.13487045 2.7879024 8.58809781 2.0625 12.8125 C1.86785156 13.97394531 1.67320312 15.13539063 1.47265625 16.33203125 C1.31667969 17.21246094 1.16070312 18.09289062 1 19 C0.67 19 0.34 19 0 19 C0 12.73 0 6.46 0 0 Z " fill="#F5412F" transform="translate(350,200)"/>
<path d="M0 0 C0.33 0 0.66 0 1 0 C1.05428973 2.22889496 1.09292338 4.45817471 1.125 6.6875 C1.14820313 7.92886719 1.17140625 9.17023438 1.1953125 10.44921875 C1.01032021 13.81237857 0.45767895 15.9985587 -1 19 C-1.66 19 -2.32 19 -3 19 C-2.67 16.36 -2.34 13.72 -2 11 C-1.34 11 -0.68 11 0 11 C0 7.37 0 3.74 0 0 Z " fill="#FC4527" transform="translate(148,232)"/>
<path d="M0 0 C0.33 0.66 0.66 1.32 1 2 C-5.27 2 -11.54 2 -18 2 C-18 1.67 -18 1.34 -18 1 C-15.75152519 0.63627613 -13.50113812 0.28435904 -11.25 -0.0625 C-9.99703125 -0.25972656 -8.7440625 -0.45695312 -7.453125 -0.66015625 C-2.66386766 -1.13149719 -2.66386766 -1.13149719 0 0 Z " fill="#DECDD5" transform="translate(102,290)"/>
<path d="M0 0 C0.99 0.33 1.98 0.66 3 1 C0.17477391 5.67248931 -2.67760044 8.65996398 -7 12 C-7.66 11.67 -8.32 11.34 -9 11 C-8.43410156 10.37351562 -7.86820313 9.74703125 -7.28515625 9.1015625 C-6.18494141 7.87566406 -6.18494141 7.87566406 -5.0625 6.625 C-4.33160156 5.81289063 -3.60070312 5.00078125 -2.84765625 4.1640625 C-0.97010529 2.14075833 -0.97010529 2.14075833 0 0 Z " fill="#FDCA89" transform="translate(140,262)"/>
<path d="M0 0 C2.48627517 3.0622744 4.09989404 6.1457054 5.6875 9.75 C6.12449219 10.73484375 6.56148438 11.7196875 7.01171875 12.734375 C7.33785156 13.48203125 7.66398437 14.2296875 8 15 C7.34 15.66 6.68 16.32 6 17 C4.99063464 14.921188 3.99282154 12.8367638 3 10.75 C2.443125 9.58984375 1.88625 8.4296875 1.3125 7.234375 C0 4 0 4 0 0 Z " fill="#E9EAEA" transform="translate(430,54)"/>
<path d="M0 0 C6.6 0 13.2 0 20 0 C20.66 1.32 21.32 2.64 22 4 C20.68 4 19.36 4 18 4 C18 3.01 18 2.02 18 1 C12.06 1 6.12 1 0 1 C0 0.67 0 0.34 0 0 Z " fill="#E8EBED" transform="translate(627,27)"/>
<path d="M0 0 C1.1796875 1.578125 1.1796875 1.578125 2 4 C0.8828125 7.234375 0.8828125 7.234375 -0.875 10.75 C-1.44992187 11.92046875 -2.02484375 13.0909375 -2.6171875 14.296875 C-3.07351563 15.18890625 -3.52984375 16.0809375 -4 17 C-4.66 17 -5.32 17 -6 17 C-4.14506608 11.28062041 -2.06896109 5.64444725 0 0 Z " fill="#FA4932" transform="translate(346,234)"/>
<path d="M0 0 C0.33 0 0.66 0 1 0 C1 2.31 1 4.62 1 7 C-4.28 7 -9.56 7 -15 7 C-15 6.67 -15 6.34 -15 6 C-8.07 5.01 -8.07 5.01 -1 4 C-0.67 2.68 -0.34 1.36 0 0 Z " fill="#810000" transform="translate(711,125)"/>
<path d="M0 0 C0.99 0.33 1.98 0.66 3 1 C0.69 3.64 -1.62 6.28 -4 9 C-4.66 8.01 -5.32 7.02 -6 6 C-4.02 4.02 -2.04 2.04 0 0 Z " fill="#FD7937" transform="translate(138,150)"/>
<path d="M0 0 C0.99 0.33 1.98 0.66 3 1 C1.90931332 4.77545388 1.0916909 7.47043472 -2 10 C-2.6875 8.375 -2.6875 8.375 -3 6 C-1.5625 2.75 -1.5625 2.75 0 0 Z " fill="#E5E8EA" transform="translate(314,37)"/>
<path d="M0 0 C-1 3 -1 3 -2.77734375 4.203125 C-3.49019531 4.54859375 -4.20304688 4.8940625 -4.9375 5.25 C-6.00291016 5.78367188 -6.00291016 5.78367188 -7.08984375 6.328125 C-8.03537109 6.66070312 -8.03537109 6.66070312 -9 7 C-9.66 6.67 -10.32 6.34 -11 6 C-9.54550599 4.9944239 -8.08627557 3.99569565 -6.625 3 C-5.40683594 2.1646875 -5.40683594 2.1646875 -4.1640625 1.3125 C-2 0 -2 0 0 0 Z M-13 7 C-12.34 7.33 -11.68 7.66 -11 8 C-12.98 8.99 -12.98 8.99 -15 10 C-14.34 9.01 -13.68 8.02 -13 7 Z " fill="#991B1D" transform="translate(252,167)"/>
<path d="M0 0 C1.21816406 0.03480469 1.21816406 0.03480469 2.4609375 0.0703125 C3.68683594 0.09738281 3.68683594 0.09738281 4.9375 0.125 C5.87722656 0.15980469 5.87722656 0.15980469 6.8359375 0.1953125 C4.14751891 2.44777131 2.18951875 4.07745208 -1.1640625 5.1953125 C-1.1640625 4.5353125 -1.1640625 3.8753125 -1.1640625 3.1953125 C-2.1540625 2.8653125 -3.1440625 2.5353125 -4.1640625 2.1953125 C-2.1640625 0.1953125 -2.1640625 0.1953125 0 0 Z " fill="#D2B7C1" transform="translate(72.1640625,161.8046875)"/>
<path d="M0 0 C0.66 0 1.32 0 2 0 C5.41029848 5.32006564 5.09644404 9.05542387 4 15 C3.67 15 3.34 15 3 15 C2.86722656 14.25234375 2.73445313 13.5046875 2.59765625 12.734375 C2.42105469 11.74953125 2.24445313 10.7646875 2.0625 9.75 C1.88847656 8.77546875 1.71445312 7.8009375 1.53515625 6.796875 C1.09620271 4.50278205 0.59651408 2.25708029 0 0 Z " fill="#E1E4E6" transform="translate(316,65)"/>
<path d="M0 0 C0.99 0 1.98 0 3 0 C3 0.99 3 1.98 3 3 C3.99 3 4.98 3 6 3 C5.67 4.32 5.34 5.64 5 7 C3.02 6.01 1.04 5.02 -1 4 C-0.67 2.68 -0.34 1.36 0 0 Z " fill="#D3ABB5" transform="translate(124,196)"/>
<path d="M0 0 C5.61 0 11.22 0 17 0 C12.78492722 3.16130459 11.93928888 3.3367697 7 3 C7 2.34 7 1.68 7 1 C4.69 1 2.38 1 0 1 C0 0.67 0 0.34 0 0 Z " fill="#E9EDEE" transform="translate(635,108)"/>
<path d="M0 0 C0.66 0.33 1.32 0.66 2 1 C-0.31 4.3 -2.62 7.6 -5 11 C-5.33 10.01 -5.66 9.02 -6 8 C-4.78515625 5.95703125 -4.78515625 5.95703125 -3.0625 3.8125 C-2.49660156 3.09707031 -1.93070313 2.38164062 -1.34765625 1.64453125 C-0.90292969 1.10183594 -0.45820313 0.55914062 0 0 Z " fill="#D21816" transform="translate(27,241)"/>
<path d="M0 0 C-0.125 1.875 -0.125 1.875 -1 4 C-4.0625 5.25 -4.0625 5.25 -7 6 C-7.33 5.01 -7.66 4.02 -8 3 C-2.25 0 -2.25 0 0 0 Z " fill="#EBEEF0" transform="translate(308,100)"/>
<path d="M0 0 C0 0.66 0 1.32 0 2 C-3.3 2.66 -6.6 3.32 -10 4 C-4.75 -1.425 -4.75 -1.425 0 0 Z " fill="#810000" transform="translate(467,245)"/>
<path d="M0 0 C0.33 0.99 0.66 1.98 1 3 C-0.21484375 5.04296875 -0.21484375 5.04296875 -1.9375 7.1875 C-2.50339844 7.90292969 -3.06929687 8.61835938 -3.65234375 9.35546875 C-4.09707031 9.89816406 -4.54179687 10.44085938 -5 11 C-5.66 10.67 -6.32 10.34 -7 10 C-3.535 5.05 -3.535 5.05 0 0 Z " fill="#CA1717" transform="translate(19,252)"/>
<path d="M0 0 C3.35111834 2.23407889 4.81553956 3.26215824 5.8125 7.25 C5.874375 8.1575 5.93625 9.065 6 10 C3.72328514 7.83170013 1.72813851 5.63335392 0 3 C0 2.01 0 1.02 0 0 Z " fill="#D0090B" transform="translate(136,208)"/>
<path d="M0 0 C0.33 0 0.66 0 1 0 C1 4.29 1 8.58 1 13 C1.66 13 2.32 13 3 13 C2.34 14.32 1.68 15.64 1 17 C0.67 17 0.34 17 0 17 C0 11.39 0 5.78 0 0 Z " fill="#61080B" transform="translate(222,131)"/>
<path d="M0 0 C1.67542976 0.28604898 3.34385343 0.61781233 5 1 C0.375 5 0.375 5 -3 5 C-1.125 1.125 -1.125 1.125 0 0 Z " fill="#A90B0D" transform="translate(598,133)"/>
<path d="M0 0 C3.63 0.33 7.26 0.66 11 1 C11.33 1.99 11.66 2.98 12 4 C10.3733152 3.71788123 8.74867104 3.42397625 7.125 3.125 C5.76761719 2.88136719 5.76761719 2.88136719 4.3828125 2.6328125 C2 2 2 2 0 0 Z " fill="#9C0607" transform="translate(641,129)"/>
<path d="M0 0 C0.99 0.33 1.98 0.66 3 1 C1.02 3.31 -0.96 5.62 -3 8 C-3.33 6.68 -3.66 5.36 -4 4 C-2.0625 1.75 -2.0625 1.75 0 0 Z " fill="#D31816" transform="translate(27,149)"/>
<path d="M0 0 C7.625 1.75 7.625 1.75 11 4 C9.35 4.33 7.7 4.66 6 5 C6 4.34 6 3.68 6 3 C5.195625 2.87625 4.39125 2.7525 3.5625 2.625 C2.716875 2.41875 1.87125 2.2125 1 2 C0.67 1.34 0.34 0.68 0 0 Z " fill="#BC181D" transform="translate(60,252)"/>
<path d="M0 0 C3.96 0 7.92 0 12 0 C9.57479454 2.42520546 8.37932259 2.68564441 5 3 C2.1875 2.0625 2.1875 2.0625 0 1 C0 0.67 0 0.34 0 0 Z " fill="#A9090B" transform="translate(272,247)"/>
<path d="M0 0 C0 1.65 0 3.3 0 5 C-1.98 5.99 -1.98 5.99 -4 7 C-3.625 4.0625 -3.625 4.0625 -3 1 C-1 0 -1 0 0 0 Z " fill="#F6F7F7" transform="translate(376,55)"/>
<path d="M0 0 C0.99 0.33 1.98 0.66 3 1 C-1.296875 5.00390625 -1.296875 5.00390625 -3 6 C-5.203125 5.65234375 -5.203125 5.65234375 -7 5 C-5.90554162 4.13342884 -4.79902219 3.28207276 -3.6875 2.4375 C-3.07261719 1.96183594 -2.45773438 1.48617188 -1.82421875 0.99609375 C-1.22222656 0.66738281 -0.62023437 0.33867187 0 0 Z " fill="#FDE7CF" transform="translate(130,274)"/>
<path d="M0 0 C2.5 2.3125 2.5 2.3125 5 5 C5 5.99 5 6.98 5 8 C3.02 6.35 1.04 4.7 -1 3 C-0.67 2.01 -0.34 1.02 0 0 Z " fill="#7C1516" transform="translate(236,233)"/>
<path d="M0 0 C0.99 0 1.98 0 3 0 C4.53166168 4.08443115 3.63081652 7.79455657 3 12 C2.67 12 2.34 12 2 12 C1.93941406 11.38511719 1.87882813 10.77023438 1.81640625 10.13671875 C1.73261719 9.32847656 1.64882813 8.52023438 1.5625 7.6875 C1.48128906 6.88699219 1.40007813 6.08648437 1.31640625 5.26171875 C1.04734307 2.83912821 1.04734307 2.83912821 0 0 Z " fill="#A89199" transform="translate(904,228)"/>
<path d="M0 0 C0.6875 1.625 0.6875 1.625 1 4 C-0.4375 7.25 -0.4375 7.25 -2 10 C-2.66 9.67 -3.32 9.34 -4 9 C-2.94124926 5.59687262 -1.99097846 2.98646769 0 0 Z " fill="#E6E0E3" transform="translate(820,148)"/>
<path d="M0 0 C0.33 1.32 0.66 2.64 1 4 C-0.4375 6.25 -0.4375 6.25 -2 8 C-2.99 7.67 -3.98 7.34 -5 7 C-3.35 4.69 -1.7 2.38 0 0 Z " fill="#DED5D9" transform="translate(823,237)"/>
<path d="M0 0 C0.66 0.33 1.32 0.66 2 1 C1.34 3.64 0.68 6.28 0 9 C-0.66 8.34 -1.32 7.68 -2 7 C-1.43181818 1.43181818 -1.43181818 1.43181818 0 0 Z " fill="#D2CBD2" transform="translate(226,192)"/>
</svg>
