<?xml version="1.0" encoding="UTF-8"?>
<!DOCTYPE svg PUBLIC "-//W3C//DTD SVG 1.1//EN" "http://www.w3.org/Graphics/SVG/1.1/DTD/svg11.dtd">
<svg xmlns="http://www.w3.org/2000/svg" version="1.1" width="379px" height="350px" style="shape-rendering:geometricPrecision; text-rendering:geometricPrecision; image-rendering:optimizeQuality; fill-rule:evenodd; clip-rule:evenodd" xmlns:xlink="http://www.w3.org/1999/xlink">
<g><path style="opacity:0.913" fill="#ed1f25" d="M 244.5,-0.5 C 255.5,-0.5 266.5,-0.5 277.5,-0.5C 308.115,2.39085 333.949,15.0575 355,37.5C 368.1,54.0241 375.933,72.6907 378.5,93.5C 378.5,103.167 378.5,112.833 378.5,122.5C 371.097,167.639 352.597,207.639 323,242.5C 282.379,290.57 231.879,323.737 171.5,342C 158.496,345.235 145.496,347.735 132.5,349.5C 122.167,349.5 111.833,349.5 101.5,349.5C 71.0448,346.848 45.2115,334.515 24,312.5C 10.3191,295.812 2.15243,276.812 -0.5,255.5C -0.5,245.5 -0.5,235.5 -0.5,225.5C 7.87334,178.088 28.04,136.421 60,100.5C 99.0828,56.7599 146.583,25.9265 202.5,8C 216.447,4.17762 230.447,1.34429 244.5,-0.5 Z"/></g>
<g><path style="opacity:1" fill="#fffdfd" d="M 246.5,6.5 C 274.779,4.4048 301.445,9.9048 326.5,23C 359.69,45.5576 374.523,77.0576 371,117.5C 365.743,159.33 350.076,196.664 324,229.5C 279.145,286.317 221.311,322.817 150.5,339C 115.826,346.779 82.8263,342.445 51.5,326C 18.2739,303.087 3.44058,271.254 7,230.5C 10.5429,198.753 20.8762,169.42 38,142.5C 80.9856,77.2065 140.152,33.7065 215.5,12C 225.939,9.94235 236.272,8.10902 246.5,6.5 Z"/></g>
<g><path style="opacity:1" fill="#ed1d24" d="M 218.5,68.5 C 217.174,83.6718 217.174,99.0052 218.5,114.5C 219.107,114.376 219.44,114.043 219.5,113.5C 225.226,111.059 231.226,110.059 237.5,110.5C 237.667,162.168 237.5,213.834 237,265.5C 197.415,295.139 152.915,308.639 103.5,306C 63.3449,298.007 43.0116,273.507 42.5,232.5C 44.4902,207.696 51.9902,184.696 65,163.5C 76.2213,144.934 89.7213,128.101 105.5,113C 120.387,105.1 131.887,108.6 140,123.5C 144.202,131.309 146.035,139.642 145.5,148.5C 145.599,168.306 140.432,186.64 130,203.5C 119.828,220.005 108.495,235.672 96,250.5C 91.2613,255.744 86.0946,260.41 80.5,264.5C 79.9569,264.56 79.6236,264.893 79.5,265.5C 122.331,266.831 164.998,266.831 207.5,265.5C 207.5,249.833 207.5,234.167 207.5,218.5C 197.5,218.5 187.5,218.5 177.5,218.5C 186.32,193.248 190.487,167.248 190,140.5C 187.823,112.389 174.989,90.8886 151.5,76C 185.773,52.2639 223.773,40.9305 265.5,42C 308.991,46.3227 332.325,70.156 335.5,113.5C 333.51,141.303 325.01,166.97 310,190.5C 301.446,204.257 291.446,216.924 280,228.5C 279.5,174.501 279.333,120.501 279.5,66.5C 259.127,66.3639 238.794,67.0305 218.5,68.5 Z"/></g>
<g><path style="opacity:1" fill="#f9b3b6" d="M 218.5,68.5 C 218.171,83.676 218.504,98.676 219.5,113.5C 219.44,114.043 219.107,114.376 218.5,114.5C 217.174,99.0052 217.174,83.6718 218.5,68.5 Z"/></g>
<g><path style="opacity:1" fill="#f79ea2" d="M 177.5,218.5 C 187.5,218.5 197.5,218.5 207.5,218.5C 207.5,234.167 207.5,249.833 207.5,265.5C 207.167,265.5 206.833,265.5 206.5,265.5C 206.5,250.167 206.5,234.833 206.5,219.5C 196.652,219.827 186.986,219.494 177.5,218.5 Z"/></g>
<g><path style="opacity:1" fill="#ef343c" d="M 80.5,264.5 C 122.33,265.499 164.33,265.832 206.5,265.5C 206.833,265.5 207.167,265.5 207.5,265.5C 164.998,266.831 122.331,266.831 79.5,265.5C 79.6236,264.893 79.9569,264.56 80.5,264.5 Z"/></g>
</svg>
