<?xml version="1.0" encoding="UTF-8"?>
<svg version="1.1" xmlns="http://www.w3.org/2000/svg" width="510" height="280">
<path d="M0 0 C2.33087337 1.95843461 4.6167927 3.9582564 6.875 6 C7.37435059 6.44964111 7.87370117 6.89928223 8.38818359 7.36254883 C13.1189264 11.800451 17.02934664 16.88603092 21 22 C21.02505615 20.70263916 21.0501123 19.40527832 21.07592773 18.06860352 C21.16981752 13.27341144 21.27008249 8.4783705 21.37231445 3.68334961 C21.41573334 1.60460943 21.45740312 -0.47416803 21.49731445 -2.55297852 C21.55484921 -5.53413145 21.61859119 -8.51509549 21.68359375 -11.49609375 C21.70030624 -12.43150497 21.71701874 -13.3669162 21.73423767 -14.33067322 C21.75418289 -15.19149002 21.77412811 -16.05230682 21.79467773 -16.93920898 C21.81799416 -18.08171364 21.81799416 -18.08171364 21.84178162 -19.24729919 C22 -21 22 -21 23 -22 C24.70570169 -22.10059634 26.41558934 -22.13076451 28.12425232 -22.13371277 C29.2355249 -22.13797775 30.34679749 -22.14224274 31.491745 -22.14663696 C32.72222061 -22.14618378 33.95269623 -22.14573059 35.22045898 -22.14526367 C37.15240616 -22.15030159 37.15240616 -22.15030159 39.12338257 -22.15544128 C42.67194415 -22.16431081 46.22048163 -22.16662102 49.76905322 -22.16725707 C51.99222295 -22.16796751 54.21538655 -22.17010203 56.43855476 -22.17275429 C64.21400465 -22.1820272 71.98943735 -22.18608797 79.76489258 -22.18530273 C86.97581957 -22.18470589 94.18667078 -22.19517472 101.39757866 -22.2110464 C107.60759879 -22.22422014 113.81759452 -22.22948234 120.02762848 -22.22884732 C123.72710419 -22.2285946 127.42651303 -22.23131714 131.12597466 -22.24202538 C191.89564266 -22.40556702 191.89564266 -22.40556702 214.75 -0.75 C221.47097727 6.31965051 226.73629507 14.79816527 230 24 C230.44859375 25.25490234 230.44859375 25.25490234 230.90625 26.53515625 C237.13414209 47.95795172 233.76028073 71.99315679 223.21484375 91.35546875 C218.8760722 98.81134078 212.79709905 104.77146227 206 110 C208.42647732 111.95753047 210.85712899 113.89379291 213.359375 115.75390625 C229.97593848 128.32493385 237.57823579 144.71885363 240.70263672 164.84033203 C243.12117799 182.40553409 238.01624828 202.03997053 227.625 216.3125 C214.51806442 232.86862915 196.84322201 242.39093737 176 246 C170.67539253 246.48754939 165.38816262 246.5110755 160.046875 246.45410156 C158.52729319 246.45296932 157.00770921 246.45361428 155.48812866 246.45587158 C151.41875912 246.45700498 147.3498749 246.43372263 143.28061676 246.40557575 C139.00725356 246.38032894 134.7338755 246.37820197 130.46044922 246.37347412 C122.39311906 246.36111198 114.3260094 246.32838339 106.25877571 246.28807616 C97.06393133 246.24314611 87.86907564 246.22131838 78.67414856 246.20129442 C59.78261583 246.15964352 40.89138482 246.08637732 22 246 C21.67 231.81 21.34 217.62 21 203 C16.71 207.95 12.42 212.9 8 218 C-17.42018673 243.09841221 -50.93378824 252.25970625 -85.83666992 252.2487793 C-95.84169892 252.1614951 -105.288427 251.40858595 -115 249 C-115.96873047 248.76651855 -115.96873047 248.76651855 -116.95703125 248.52832031 C-133.91906626 244.27081553 -150.73934361 236.43858147 -164 225 C-164.85464844 224.28199219 -165.70929688 223.56398437 -166.58984375 222.82421875 C-178.11159233 212.829235 -186.31209936 202.03671662 -194 189 C-199.02726841 192.29013904 -203.89050405 195.78045126 -208.75 199.3125 C-210.3538614 200.47307823 -211.95802582 201.63323782 -213.5625 202.79296875 C-214.71105469 203.62320557 -214.71105469 203.62320557 -215.8828125 204.47021484 C-235.21328281 218.43754959 -235.21328281 218.43754959 -247.5625 216.5 C-254.28037103 214.74139502 -258.92210458 209.87518479 -262.8125 204.3125 C-269.61950137 192.46327539 -269.15008082 177.52777487 -269.14526367 164.3112793 C-269.14826253 162.96145537 -269.15166672 161.61163229 -269.15544128 160.2618103 C-269.16421095 156.62321124 -269.16661639 152.98463575 -269.16725707 149.34602714 C-269.16797152 147.06539212 -269.17011324 144.78476296 -269.17275429 142.50412941 C-269.18198403 134.52691904 -269.1860921 126.5497253 -269.18530273 118.57250977 C-269.1847024 111.1698681 -269.1952517 103.7672994 -269.2110464 96.36467618 C-269.22417638 89.98045663 -269.22948436 83.59626077 -269.22884732 77.21202785 C-269.22859396 73.41168284 -269.23135488 69.6114028 -269.24202538 65.8110714 C-269.251799 62.23309613 -269.25172304 58.65524674 -269.24450874 55.07726669 C-269.24298646 53.16067129 -269.25124415 51.24407563 -269.25994873 49.32749939 C-269.20654117 34.3921036 -267.96133535 18.77788257 -257.5625 7.3125 C-252.31211984 2.57435205 -248.01795149 1.01146724 -241 1 C-230.70125552 1.97660508 -223.18236745 7.64979695 -215.44140625 14.0703125 C-213.16170446 15.8721888 -210.86803739 17.38885073 -208.375 18.875 C-207.26125 19.57625 -206.1475 20.2775 -205 21 C-205 21.66 -205 22.32 -205 23 C-204.34 23.20625 -203.68 23.4125 -203 23.625 C-200.2295353 24.89479632 -198.21814893 26.24719354 -195.8125 28.0859375 C-195.09707031 28.63040527 -194.38164062 29.17487305 -193.64453125 29.73583984 C-193.10183594 30.1530127 -192.55914062 30.57018555 -192 31 C-190.96166016 29.52853516 -190.96166016 29.52853516 -189.90234375 28.02734375 C-168.22493591 -2.11844871 -138.8506957 -20.95248323 -102 -27 C-66.737168 -31.75771621 -27.71393342 -22.87877146 0 0 Z M102 41 C102 54.53 102 68.06 102 82 C110.6625 82.12375 110.6625 82.12375 119.5 82.25 C121.30662109 82.28641602 123.11324219 82.32283203 124.97460938 82.36035156 C126.43097755 82.37205057 127.88735897 82.38223952 129.34375 82.390625 C130.08012695 82.41108887 130.81650391 82.43155273 131.57519531 82.45263672 C137.86482172 82.45680203 143.25561726 80.65698202 147.83984375 76.21875 C148.20207031 75.6515625 148.56429687 75.084375 148.9375 74.5 C149.31777344 73.9328125 149.69804687 73.365625 150.08984375 72.78125 C153.26986094 66.55769704 152.98472544 58.15273872 150.875 51.625 C148.71348203 46.67278981 145.31431129 43.96622601 140.31591797 41.87939453 C136.41246228 40.84418268 132.76166708 40.74818238 128.7578125 40.8046875 C128.07581787 40.80670166 127.39382324 40.80871582 126.69116211 40.81079102 C124.16903862 40.82117243 121.64701181 40.84909442 119.125 40.875 C113.47375 40.91625 107.8225 40.9575 102 41 Z M-119.39453125 65.98828125 C-122.37130134 69.7182973 -124.70685219 73.82529502 -127 78 C-126.62488281 78.4846875 -126.24976563 78.969375 -125.86328125 79.46875 C-116.17254548 92.16190517 -112.57169533 101.61020397 -114 118 C-114.87165645 121.35785836 -116.18469661 124.05641573 -118 127 C-118.47050781 127.79277344 -118.94101563 128.58554688 -119.42578125 129.40234375 C-122.13503229 133.72174399 -124.71371426 137.10045377 -129 140 C-127.37891171 150.24233057 -120.91529893 158.61549001 -113 165 C-100.6489231 173.25210839 -86.39389038 176.70238127 -71.6796875 174.50390625 C-58.17957538 171.67941471 -47.45166564 165.76098264 -39.5 154.25 C-37.59907475 151.31412656 -36.87587475 149.503499 -36 146 C-55.14 146 -74.28 146 -94 146 C-94 127.85 -94 109.7 -94 91 C-55.72 90.67 -17.44 90.34 22 90 C22 84.06 22 78.12 22 72 C20.14802002 71.99589111 18.29604004 71.99178223 16.38793945 71.98754883 C10.26093744 71.96813336 4.1344271 71.92579878 -1.99232769 71.86790943 C-5.70614851 71.83365468 -9.41955866 71.80853196 -13.13354492 71.80444336 C-16.71954484 71.8001569 -20.30461864 71.7716679 -23.89032936 71.72656822 C-25.25656548 71.71360389 -26.6229125 71.70928185 -27.9892025 71.71384621 C-40.0532597 71.74475495 -40.0532597 71.74475495 -43.27832031 68.56884766 C-43.84647461 67.72112793 -44.41462891 66.8734082 -45 66 C-52.25727866 57.78454763 -62.19740991 51.82749144 -73.32958984 50.78100586 C-90.89360644 49.9678255 -106.76973747 52.64378427 -119.39453125 65.98828125 Z M102 141 C102 154.86 102 168.72 102 183 C108.435 183.061875 114.87 183.12375 121.5 183.1875 C124.52317383 183.22846802 124.52317383 183.22846802 127.60742188 183.27026367 C129.22785851 183.27903603 130.84830183 183.28667819 132.46875 183.29296875 C133.29149414 183.30831665 134.11423828 183.32366455 134.96191406 183.33947754 C140.88040781 183.34212287 146.87986483 182.74730979 151.52868652 178.65397644 C157.14054218 172.28072442 157.61660679 165.87126059 157.375 157.6796875 C156.86760594 152.70088332 155.60091055 149.4841728 152 146 C147.72320502 142.8181394 143.34287584 140.86958083 137.98754883 140.88647461 C136.76992859 140.88665588 136.76992859 140.88665588 135.52770996 140.88684082 C134.255224 140.89451477 134.255224 140.89451477 132.95703125 140.90234375 C132.17372437 140.90335083 131.39041748 140.90435791 130.58337402 140.90539551 C127.65973444 140.91062412 124.73611574 140.92458539 121.8125 140.9375 C112.0053125 140.9684375 112.0053125 140.9684375 102 141 Z " fill="#EAEAEA" transform="translate(269,28)"/>
<path d="M0 0 C2.63632716 1.95340015 5.15975125 3.98612444 7.6640625 6.10546875 C9.90021606 7.91907155 12.15351422 9.40511635 14.625 10.875 C15.73875 11.57625 16.8525 12.2775 18 13 C18 13.66 18 14.32 18 15 C18.99 15.309375 18.99 15.309375 20 15.625 C24.11606263 17.51152871 27.4587703 20.20567979 31 23 C30.36985909 25.81314304 29.50447782 28.29280149 28.29296875 30.90625 C27.95555664 31.64367432 27.61814453 32.38109863 27.27050781 33.14086914 C26.91311523 33.91938232 26.55572266 34.69789551 26.1875 35.5 C21.80406841 45.24430243 18.41319314 54.93335439 15.875 65.3125 C15.71612305 65.95131104 15.55724609 66.59012207 15.39355469 67.24829102 C12.52667198 79.54721785 11.60950975 91.90410529 11.625 104.5 C11.62487915 105.1881076 11.6247583 105.87621521 11.62463379 106.58517456 C11.65630045 119.36101667 13.09459069 131.5525882 16 144 C16.1654834 144.73508789 16.3309668 145.47017578 16.50146484 146.22753906 C18.48232401 154.88193498 21.35134778 162.92001937 25 171 C25.59748047 172.35738281 25.59748047 172.35738281 26.20703125 173.7421875 C27.12850488 175.83259765 28.05903482 177.91831166 29 180 C-6.27210455 209.33433821 -6.27210455 209.33433821 -19.8828125 208.91015625 C-28.55267143 207.9432171 -33.06221273 204.7933798 -38.4921875 198.18359375 C-46.81016374 186.39569251 -46.15028366 170.08427386 -46.14526367 156.3112793 C-46.14826253 154.96145537 -46.15166672 153.61163229 -46.15544128 152.2618103 C-46.16421095 148.62321124 -46.16661639 144.98463575 -46.16725707 141.34602714 C-46.16797152 139.06539212 -46.17011324 136.78476296 -46.17275429 134.50412941 C-46.18198403 126.52691904 -46.1860921 118.5497253 -46.18530273 110.57250977 C-46.1847024 103.1698681 -46.1952517 95.7672994 -46.2110464 88.36467618 C-46.22417638 81.98045663 -46.22948436 75.59626077 -46.22884732 69.21202785 C-46.22859396 65.41168284 -46.23135488 61.6114028 -46.24202538 57.8110714 C-46.251799 54.23309613 -46.25172304 50.65524674 -46.24450874 47.07726669 C-46.24298646 45.16067129 -46.25124415 43.24407563 -46.25994873 41.32749939 C-46.20654117 26.3921036 -44.96133535 10.77788257 -34.5625 -0.6875 C-23.65956201 -10.52673672 -11.59941182 -7.20498941 0 0 Z " fill="#BC392C" transform="translate(46,36)"/>
<path d="M0 0 C2.63632716 1.95340015 5.15975125 3.98612444 7.6640625 6.10546875 C9.90021606 7.91907155 12.15351422 9.40511635 14.625 10.875 C15.73875 11.57625 16.8525 12.2775 18 13 C18 13.66 18 14.32 18 15 C18.680625 15.226875 19.36125 15.45375 20.0625 15.6875 C23.79614324 17.35572357 26.72163421 19.55729608 30 22 C26.52179507 25.65211517 22.89777196 28.68422294 18.75 31.5625 C18.14575195 31.98813232 17.54150391 32.41376465 16.91894531 32.85229492 C15.62060964 33.76625056 14.32075926 34.67805763 13.01953125 35.58789062 C9.58945087 37.98629305 6.17029563 40.40017491 2.75 42.8125 C2.03924316 43.31281738 1.32848633 43.81313477 0.59619141 44.32861328 C-4.59333527 47.98764182 -9.73868482 51.70429497 -14.875 55.4375 C-21.35167844 60.138154 -27.89588185 64.73010696 -34.5 69.25 C-35.72952393 70.09195923 -35.72952393 70.09195923 -36.98388672 70.95092773 C-42.73268779 74.8663439 -42.73268779 74.8663439 -45 76 C-48.31191552 16.3062461 -48.31191552 16.3062461 -37 2 C-25.84152807 -10.30293059 -13.31168649 -8.26857099 0 0 Z " fill="#BC392C" transform="translate(46,36)"/>
<path d="M0 0 C1.34312214 2.56672917 2.39883979 5.0462293 3.25 7.8125 C5.47690864 14.67594663 8.28653905 21.31838585 11 28 C11.6678065 29.66621028 12.33497948 31.33267582 13 33 C-22.27210455 62.33433821 -22.27210455 62.33433821 -35.8828125 61.91015625 C-43.44731993 61.06649565 -48.09375064 58.82404658 -53 53 C-58 46.32518337 -58 46.32518337 -58 42 C-56.49389648 40.640625 -56.49389648 40.640625 -54.37109375 39.25 C-53.59080811 38.72962158 -52.81052246 38.20924316 -52.0065918 37.6730957 C-51.1587915 37.12097412 -50.31099121 36.56885254 -49.4375 36 C-47.68091337 34.82888764 -45.92572028 33.65568255 -44.171875 32.48046875 C-42.85606445 31.60140869 -42.85606445 31.60140869 -41.51367188 30.70458984 C-38.00655825 28.3263199 -34.58893862 25.83872265 -31.1875 23.3125 C-25.76660588 19.29526928 -20.30597995 15.34257185 -14.80249023 11.43920898 C-10.94920247 8.69974916 -7.16835202 5.88465963 -3.453125 2.9609375 C-2 2 -2 2 0 2 C0 1.34 0 0.68 0 0 Z " fill="#BC392C" transform="translate(62,183)"/>
<path d="M0 0 C-0.63014091 2.81314304 -1.49552218 5.29280149 -2.70703125 7.90625 C-3.04468506 8.64456055 -3.38233887 9.38287109 -3.73022461 10.14355469 C-4.26595093 11.30999512 -4.26595093 11.30999512 -4.8125 12.5 C-8.85218529 21.4450817 -12.52999166 30.2380029 -14 40 C-14.5875708 40.11754639 -15.1751416 40.23509277 -15.78051758 40.35620117 C-18.11395693 41.03305516 -19.55085743 41.88452836 -21.51171875 43.30078125 C-22.1780835 43.77700928 -22.84444824 44.2532373 -23.53100586 44.74389648 C-24.24264893 45.26153564 -24.95429199 45.7791748 -25.6875 46.3125 C-27.22381852 47.41425749 -28.76028079 48.51581454 -30.296875 49.6171875 C-31.07998047 50.18147461 -31.86308594 50.74576172 -32.66992188 51.32714844 C-35.55173806 53.3961137 -38.45264108 55.43695764 -41.35595703 57.47558594 C-56.97404216 68.20961039 -56.97404216 68.20961039 -72.0456543 79.66967773 C-74 81 -74 81 -77 81 C-77.2923308 76.66810725 -77.46860805 72.33875965 -77.625 68 C-77.70878906 66.77925781 -77.79257813 65.55851562 -77.87890625 64.30078125 C-78.1199341 55.38275075 -78.1199341 55.38275075 -74.99316406 51.5222168 C-72.4267961 49.44688057 -69.82419627 47.70422965 -67 46 C-65.71377281 45.09689116 -64.43191404 44.18750033 -63.15625 43.26953125 C-61.9397424 42.44719379 -60.72094355 41.62823676 -59.5 40.8125 C-53.61609369 36.82385315 -47.81390898 32.73991768 -42.0625 28.5625 C-35.45934083 23.76846444 -28.82416121 19.0249245 -22.14648438 14.33520508 C-18.71228429 11.9217975 -15.29068223 9.49409037 -11.89453125 7.02734375 C-11.24774414 6.55901123 -10.60095703 6.09067871 -9.93457031 5.6081543 C-8.71619923 4.72424737 -7.50054707 3.83657646 -6.28808594 2.94458008 C-2.22213854 0 -2.22213854 0 0 0 Z " fill="#BC392C" transform="translate(77,59)"/>
<path d="M0 0 C0.495 0.99 0.495 0.99 1 2 C1.70125 2.268125 2.4025 2.53625 3.125 2.8125 C6.89058923 4.36785208 9.73451493 6.56689348 13 9 C9.52179507 12.65211517 5.89777196 15.68422294 1.75 18.5625 C0.84362793 19.20094849 0.84362793 19.20094849 -0.08105469 19.85229492 C-1.37939036 20.76625056 -2.67924074 21.67805763 -3.98046875 22.58789062 C-7.41054913 24.98629305 -10.82970437 27.40017491 -14.25 29.8125 C-14.96075684 30.31281738 -15.67151367 30.81313477 -16.40380859 31.32861328 C-21.59333527 34.98764182 -26.73868482 38.70429497 -31.875 42.4375 C-38.35167844 47.138154 -44.89588185 51.73010696 -51.5 56.25 C-52.31968262 56.81130615 -53.13936523 57.3726123 -53.98388672 57.95092773 C-59.73268779 61.8663439 -59.73268779 61.8663439 -62 63 C-63.09681248 56.96753134 -63.98027273 50.93087333 -62 45 C-58.03127074 39.85506246 -52.01379381 36.73788594 -46.49267578 33.49707031 C-42.67742486 31.20567769 -39.10547928 28.60407563 -35.5 26 C-34.10779178 25.0180821 -32.7145524 24.03762469 -31.3203125 23.05859375 C-25.18433997 18.7272359 -19.10549398 14.31671508 -13.0234375 9.91015625 C-12.35022461 9.42434082 -11.67701172 8.93852539 -10.98339844 8.43798828 C-9.64794757 7.46976996 -8.31793519 6.4940108 -6.99316406 5.51123047 C-2.21532534 2 -2.21532534 2 0 2 C0 1.34 0 0.68 0 0 Z " fill="#BC392C" transform="translate(63,49)"/>
<path d="M0 0 C-0.46509242 2.92414488 -0.94693821 5.84245016 -1.46484375 8.7578125 C-2.0286165 11.87512898 -2.0286165 11.87512898 -2.19140625 14.5546875 C-2.59454053 18.2532845 -3.14256912 20.27838356 -6.046875 22.72265625 C-7.9018422 23.88338277 -9.78681573 24.9968496 -11.69140625 26.07421875 C-15.37526347 28.21842372 -18.71923556 30.63441016 -22.125 33.1875 C-30.31741865 39.26781894 -38.64254856 45.14938354 -47 51 C-47.9895166 51.69464355 -47.9895166 51.69464355 -48.99902344 52.40332031 C-50.83072141 53.68838105 -52.66479778 54.96995032 -54.5 56.25 C-55.5415625 56.97703125 -56.583125 57.7040625 -57.65625 58.453125 C-60 60 -60 60 -61 60 C-62.02264896 53.98441786 -62.89469284 47.91964863 -61 42 C-57.31805992 37.15004952 -51.60473807 34.34784467 -46.39453125 31.39892578 C-42.61345591 29.18995742 -39.10773183 26.62677165 -35.5625 24.0625 C-34.16100382 23.07171666 -32.7586501 22.08214531 -31.35546875 21.09375 C-25.21378717 16.74228238 -19.11860805 12.32640917 -13.0234375 7.91015625 C-12.35022461 7.42434082 -11.67701172 6.93852539 -10.98339844 6.43798828 C-9.64794757 5.46976996 -8.31793519 4.4940108 -6.99316406 3.51123047 C-2.21532534 0 -2.21532534 0 0 0 Z " fill="#BC392C" transform="translate(62,98)"/>
<path d="M0 0 C0.33895656 1.72807318 0.67091525 3.45751974 1 5.1875 C1.185625 6.15042969 1.37125 7.11335937 1.5625 8.10546875 C1.706875 9.06066406 1.85125 10.01585937 2 11 C2.14308594 11.85078125 2.28617188 12.7015625 2.43359375 13.578125 C2 16 2 16 -0.46484375 18.25390625 C-1.61107576 19.04019967 -2.76975473 19.80852643 -3.9375 20.5625 C-5.23328258 21.44239966 -6.52884623 22.32262178 -7.82421875 23.203125 C-8.50919434 23.66009766 -9.19416992 24.11707031 -9.89990234 24.58789062 C-13.39219899 26.93611706 -16.81721524 29.37849614 -20.25 31.8125 C-20.95165283 32.3070166 -21.65330566 32.8015332 -22.3762207 33.31103516 C-29.28367594 38.18110688 -36.13257018 43.13116873 -42.9765625 48.08984375 C-43.98831543 48.8166333 -43.98831543 48.8166333 -45.02050781 49.55810547 C-46.351618 50.52770793 -47.66869717 51.51684097 -48.97167969 52.52392578 C-50.59368637 53.75721164 -52.29205152 54.8887792 -54 56 C-54.99 55.67 -55.98 55.34 -57 55 C-58.51551301 50.29393328 -59.64729448 45.96045472 -59 41 C-56.71875 38.61328125 -56.71875 38.61328125 -53.5 36.3125 C-52.91758545 35.88880127 -52.3351709 35.46510254 -51.73510742 35.02856445 C-49.8394735 33.66123426 -47.92378619 32.32737883 -46 31 C-45.37432129 30.56526367 -44.74864258 30.13052734 -44.10400391 29.68261719 C-41.51343296 27.88622127 -38.91727804 26.09857505 -36.31005859 24.32641602 C-31.01414265 20.72531942 -25.80832294 17.01105324 -20.625 13.25 C-19.86614502 12.70021484 -19.10729004 12.15042969 -18.32543945 11.58398438 C-16.87473085 10.53286166 -15.42412384 9.48159872 -13.97363281 8.43017578 C-11.32115526 6.50808109 -8.66684932 4.58964757 -6 2.6875 C-5.2575 2.15511719 -4.515 1.62273437 -3.75 1.07421875 C-2 0 -2 0 0 0 Z " fill="#BC392C" transform="translate(60,169)"/>
<path d="M0 0 C6.95016718 5.13187904 12.39664194 12.74756086 13.78515625 21.421875 C14.58654588 31.03855061 15.19601118 39.57446803 10 48 C9.52949219 48.79277344 9.05898437 49.58554688 8.57421875 50.40234375 C5.86496771 54.72174399 3.28628574 58.10045377 -1 61 C-5.76546393 56.98205982 -6.32121043 50.91678238 -7 45 C-8.13626992 29.03770318 -7.53891894 14.3865903 0 0 Z " fill="#BA392B" transform="translate(142,107)"/>
<path d="M0 0 C0.66 0 1.32 0 2 0 C3.32 2.97 4.64 5.94 6 9 C-29.44601907 38.47897566 -29.44601907 38.47897566 -42.49609375 37.88671875 C-44.68144118 37.6582971 -46.83475848 37.37089785 -49 37 C-49 36.34 -49 35.68 -49 35 C-47.24136092 33.63590777 -45.41296542 32.36166355 -43.5625 31.125 C-42.35876259 30.31080051 -41.15566902 29.49564856 -39.953125 28.6796875 C-39.30923828 28.24495117 -38.66535156 27.81021484 -38.00195312 27.36230469 C-34.57715248 25.03176961 -31.19492496 22.64145101 -27.8125 20.25 C-27.11133057 19.7547583 -26.41016113 19.2595166 -25.68774414 18.74926758 C-20.10495747 14.79838207 -14.54719503 10.81317407 -9 6.8125 C-8.2160083 6.24756836 -7.4320166 5.68263672 -6.62426758 5.10058594 C-5.90263428 4.57883789 -5.18100098 4.05708984 -4.4375 3.51953125 C-3.79683594 3.05651611 -3.15617187 2.59350098 -2.49609375 2.11645508 C-1.03109742 1.07903182 -1.03109742 1.07903182 0 0 Z " fill="#BB392C" transform="translate(69,207)"/>
<path d="M0 0 C-0.70464827 3.17091721 -1.48299404 6.11768868 -3 9 C-4.65331216 9.69912883 -6.32221045 10.36184294 -8 11 C-9.45393583 11.87071677 -10.88169342 12.78651053 -12.28125 13.7421875 C-13.06113281 14.27424805 -13.84101562 14.80630859 -14.64453125 15.35449219 C-18.29351501 17.90363715 -21.90408116 20.50167158 -25.5 23.125 C-32.87440009 28.47737477 -40.2916499 33.76372247 -47.74609375 39.00390625 C-50.70473453 41.08382453 -53.65389047 43.17642721 -56.59765625 45.27734375 C-57.35554443 45.81673584 -58.11343262 46.35612793 -58.89428711 46.91186523 C-60.33309105 47.93620798 -61.77023223 48.96289222 -63.20532227 49.99243164 C-67.34685942 52.93484873 -71.54892679 55.54901943 -76 58 C-76.33 56.68 -76.66 55.36 -77 54 C-70.72613459 48.73658888 -64.21506442 44.01419079 -57.44702148 39.41845703 C-52.25500987 35.88492949 -47.14382604 32.25321671 -42.0625 28.5625 C-35.45934083 23.76846444 -28.82416121 19.0249245 -22.14648438 14.33520508 C-18.71228429 11.9217975 -15.29068223 9.49409037 -11.89453125 7.02734375 C-11.24774414 6.55901123 -10.60095703 6.09067871 -9.93457031 5.6081543 C-8.71619923 4.72424737 -7.50054707 3.83657646 -6.28808594 2.94458008 C-2.22213854 0 -2.22213854 0 0 0 Z " fill="#F66A60" transform="translate(77,59)"/>
<path d="M0 0 C-0.33 2.64 -0.66 5.28 -1 8 C-1.5875708 8.11754639 -2.1751416 8.23509277 -2.78051758 8.35620117 C-5.11395693 9.03305516 -6.55085743 9.88452836 -8.51171875 11.30078125 C-9.51126587 12.01512329 -9.51126587 12.01512329 -10.53100586 12.74389648 C-11.24264893 13.26153564 -11.95429199 13.7791748 -12.6875 14.3125 C-14.22381852 15.41425749 -15.76028079 16.51581454 -17.296875 17.6171875 C-18.07998047 18.18147461 -18.86308594 18.74576172 -19.66992188 19.32714844 C-22.55173806 21.3961137 -25.45264108 23.43695764 -28.35595703 25.47558594 C-43.97404216 36.20961039 -43.97404216 36.20961039 -59.0456543 47.66967773 C-61 49 -61 49 -64 49 C-63.99609375 46.875 -63.99609375 46.875 -63 44 C-60.58423018 41.67907564 -57.83225537 39.87301024 -55.0625 38 C-53.41375553 36.84939808 -51.76532692 35.69834343 -50.1171875 34.546875 C-49.26866211 33.96099609 -48.42013672 33.37511719 -47.54589844 32.77148438 C-43.54958524 29.99077393 -39.6225791 27.11633921 -35.6875 24.25 C-29.53329336 19.79225118 -23.32044339 15.43849299 -17.05078125 11.14453125 C-12.72533766 8.10398255 -8.54222898 4.89033636 -4.36328125 1.65234375 C-2 0 -2 0 0 0 Z " fill="#F56A60" transform="translate(64,91)"/>
<path d="M0 0 C0.763125 0.20625 1.52625 0.4125 2.3125 0.625 C2.3125 1.285 2.3125 1.945 2.3125 2.625 C0.05394344 4.31430184 -2.21123613 5.88592258 -4.5625 7.4375 C-6.04166454 8.43296694 -7.51948018 9.43044052 -8.99609375 10.4296875 C-9.76937012 10.95272461 -10.54264648 11.47576172 -11.33935547 12.01464844 C-15.15103311 14.6286873 -18.88782628 17.34347964 -22.625 20.0625 C-30.64862048 25.88816523 -38.72928736 31.6275925 -46.84423828 37.32519531 C-48.53621127 38.5183164 -50.21971288 39.72342721 -51.90234375 40.9296875 C-52.80082031 41.57164063 -53.69929688 42.21359375 -54.625 42.875 C-55.37652344 43.41640625 -56.12804688 43.9578125 -56.90234375 44.515625 C-58.6875 45.625 -58.6875 45.625 -60.6875 45.625 C-60.45652079 42.00632571 -59.87754029 40.80547852 -57.203125 38.265625 C-56.12540172 37.4541786 -55.03600058 36.65808952 -53.9375 35.875 C-53.35476318 35.44380859 -52.77202637 35.01261719 -52.17163086 34.56835938 C-47.18890052 30.90850744 -42.10275687 27.39208973 -37 23.90234375 C-33.55112748 21.54199602 -30.14723391 19.12139572 -26.75 16.6875 C-26.17668945 16.27693359 -25.60337891 15.86636719 -25.01269531 15.44335938 C-23.84224478 14.60461282 -22.6719993 13.76558006 -21.50195312 12.92626953 C-18.33672063 10.65626291 -15.16849219 8.39045331 -12 6.125 C-11.41162354 5.70355713 -10.82324707 5.28211426 -10.21704102 4.84790039 C-2.87699646 -0.40144137 -2.87699646 -0.40144137 0 0 Z " fill="#F66A5F" transform="translate(60.6875,48.375)"/>
<path d="M0 0 C2 3.75 2 3.75 2 6 C-0.42281259 7.85544509 -2.85619393 9.59534372 -5.375 11.3125 C-6.9499199 12.40393687 -8.52411627 13.49641837 -10.09765625 14.58984375 C-10.91250488 15.15429199 -11.72735352 15.71874023 -12.56689453 16.30029297 C-16.35065828 18.94353632 -20.08003312 21.66006281 -23.8125 24.375 C-30.47771204 29.19800513 -37.16058126 33.99570623 -43.875 38.75 C-44.72553955 39.3589209 -45.5760791 39.9678418 -46.45239258 40.59521484 C-47.2492749 41.1567627 -48.04615723 41.71831055 -48.8671875 42.296875 C-49.56956543 42.79541992 -50.27194336 43.29396484 -50.99560547 43.80761719 C-53.01269464 45.00755184 -54.70597805 45.56396219 -57 46 C-57.33 44.68 -57.66 43.36 -58 42 C-57.25447876 41.49569458 -57.25447876 41.49569458 -56.49389648 40.98120117 C-46.72560312 34.36302794 -37.05062699 27.65755326 -27.5703125 20.6328125 C-23.35489563 17.51122563 -19.08085487 14.47364904 -14.80249023 11.43920898 C-10.94920247 8.69974916 -7.16835202 5.88465963 -3.453125 2.9609375 C-2 2 -2 2 0 2 C0 1.34 0 0.68 0 0 Z " fill="#F76A5F" transform="translate(62,183)"/>
<path d="M0 0 C0.93423645 3.01031744 1.04449911 3.86650268 0 7 C-1.61962891 8.359375 -1.61962891 8.359375 -3.7265625 9.75 C-4.50338379 10.27021729 -5.28020508 10.79043457 -6.08056641 11.32641602 C-6.92022949 11.87869873 -7.75989258 12.43098145 -8.625 13 C-10.37636579 14.17374589 -12.12635136 15.34955367 -13.875 16.52734375 C-14.74640625 17.11370605 -15.6178125 17.70006836 -16.515625 18.30419922 C-19.945115 20.64512272 -23.29282126 23.08578838 -26.625 25.5625 C-32.80601783 30.148171 -39.06729063 34.60939399 -45.36767578 39.02954102 C-46.04427246 39.50447998 -46.72086914 39.97941895 -47.41796875 40.46875 C-48.04880371 40.90960938 -48.67963867 41.35046875 -49.32958984 41.8046875 C-50.68515167 42.77470075 -52.00003251 43.80138429 -53.30078125 44.84375 C-55 46 -55 46 -58 46 C-57.98828125 43.87109375 -57.98828125 43.87109375 -57 41 C-54.62857107 38.69735451 -51.91787246 36.9137785 -49.1875 35.0625 C-48.38578369 34.50183838 -47.58406738 33.94117676 -46.75805664 33.36352539 C-45.05064035 32.1714558 -43.33882683 30.98566382 -41.62304688 29.80566406 C-39.05596998 28.03852885 -36.50252758 26.25345519 -33.953125 24.4609375 C-30.62128777 22.11844698 -27.28389111 19.78430138 -23.94140625 17.45703125 C-20.62158455 15.14174576 -17.31832469 12.80531371 -14.02734375 10.44921875 C-13.24302979 9.88920166 -12.45871582 9.32918457 -11.65063477 8.75219727 C-10.16530439 7.69010876 -8.68258926 6.62435054 -7.20288086 5.55444336 C-2.22250934 2 -2.22250934 2 0 2 C0 1.34 0 0.68 0 0 Z " fill="#F76A5F" transform="translate(58,117)"/>
<path d="M0 0 C0.33 0 0.66 0 1 0 C1.42578125 3.1484375 1.42578125 3.1484375 1 7 C-0.90351815 9.38076012 -3.29663456 10.93453354 -5.8125 12.625 C-6.52809082 13.13297119 -7.24368164 13.64094238 -7.98095703 14.16430664 C-10.3036463 15.80230576 -12.64865306 17.40346568 -15 19 C-16.55375609 20.06847159 -18.1071423 21.13748126 -19.66015625 22.20703125 C-22.021573 23.82825118 -24.38576482 25.44478906 -26.75756836 27.05078125 C-33.31307308 31.49184378 -39.74018782 36.09450818 -46.12646484 40.77514648 C-49.66626385 43.36035165 -53.18307046 45.82958909 -57 48 C-57.75 46.25 -57.75 46.25 -58 44 C-54.72718276 40.08962096 -50.47231168 37.37885529 -46.3125 34.5 C-44.77599402 33.4258494 -43.23953703 32.35162872 -41.703125 31.27734375 C-40.92001953 30.73190918 -40.13691406 30.18647461 -39.33007812 29.62451172 C-35.73221889 27.11611321 -32.14665988 24.59041755 -28.5625 22.0625 C-27.87575195 21.57942383 -27.18900391 21.09634766 -26.48144531 20.59863281 C-22.63027149 17.88299286 -18.80444358 15.13625908 -15 12.35546875 C-14.17556396 11.75404053 -13.35112793 11.1526123 -12.50170898 10.53295898 C-10.90179255 9.36348749 -9.30483613 8.18995337 -7.71118164 7.01196289 C-6.99309326 6.48723389 -6.27500488 5.96250488 -5.53515625 5.421875 C-4.899729 4.95362305 -4.26430176 4.48537109 -3.60961914 4.00292969 C-2 3 -2 3 0 3 C0 2.01 0 1.02 0 0 Z " fill="#F76A60" transform="translate(58,162)"/>
<path d="M0 0 C4.88701111 3.30591928 8.41007119 7.7222413 11 13 C11.45703125 15.53125 11.45703125 15.53125 11 18 C9.0234375 20.09765625 9.0234375 20.09765625 6.375 22.0625 C5.46492187 22.74441406 4.55484375 23.42632812 3.6171875 24.12890625 C2.75351563 24.74636719 1.88984375 25.36382812 1 26 C0.36320313 26.46277344 -0.27359375 26.92554688 -0.9296875 27.40234375 C-4.64590747 30 -4.64590747 30 -7 30 C-7.73308216 19.55357924 -4.93140284 9.19869127 0 0 Z " fill="#B93C2F" transform="translate(142,107)"/>
<path d="M0 0 C0.21484375 2.30859375 0.21484375 2.30859375 0 5 C-1.37109375 6.59765625 -1.37109375 6.59765625 -3.4375 8.0625 C-4.25734375 8.65546875 -5.0771875 9.2484375 -5.921875 9.859375 C-6.93765625 10.56578125 -7.9534375 11.2721875 -9 12 C-10.29769227 12.92072419 -11.59450567 13.84268786 -12.890625 14.765625 C-15.80749921 16.83720923 -18.73107449 18.89883933 -21.66015625 20.953125 C-32.88041601 28.82335341 -43.9659282 36.87125803 -55 45 C-55.66 44.67 -56.32 44.34 -57 44 C-56.96875 41.84765625 -56.96875 41.84765625 -56 39 C-53.72648335 36.82068546 -51.12627579 35.16317428 -48.5 33.4375 C-46.93596354 32.37274003 -45.37216794 31.30762618 -43.80859375 30.2421875 C-43.00663574 29.70303711 -42.20467773 29.16388672 -41.37841797 28.60839844 C-37.73605465 26.14526052 -34.1497246 23.60496338 -30.5625 21.0625 C-29.87526855 20.57789307 -29.18803711 20.09328613 -28.47998047 19.59399414 C-22.21781257 15.17393884 -16.00344016 10.68846698 -9.79907227 6.18774414 C-9.08420654 5.66946045 -8.36934082 5.15117676 -7.6328125 4.6171875 C-7.00262207 4.15940918 -6.37243164 3.70163086 -5.72314453 3.22998047 C-1.19809448 0 -1.19809448 0 0 0 Z " fill="#F66A60" transform="translate(57,142)"/>
<path d="M0 0 C2 3 2 3 1.9609375 4.91015625 C0.5265266 8.0297084 -1.63341684 9.38994482 -4.375 11.4375 C-4.94299316 11.86361572 -5.51098633 12.28973145 -6.09619141 12.72875977 C-11.88252859 17.01826005 -17.84642746 21.05677211 -23.81640625 25.0847168 C-29.74908548 29.09677445 -35.53600449 33.26841109 -41.19287109 37.66186523 C-44.41832552 40.10381033 -46.93622367 41.60427646 -51 42 C-51 40.68 -51 39.36 -51 38 C-49.44970703 36.46704102 -49.44970703 36.46704102 -47.2578125 35.00390625 C-46.44763672 34.4517041 -45.63746094 33.89950195 -44.80273438 33.33056641 C-43.91908203 32.74710449 -43.03542969 32.16364258 -42.125 31.5625 C-40.28290251 30.31259932 -38.44177657 29.06126572 -36.6015625 27.80859375 C-35.66473633 27.17550293 -34.72791016 26.54241211 -33.76269531 25.89013672 C-29.61394882 23.05171366 -25.55714725 20.09218047 -21.5 17.125 C-15.48272767 12.73497821 -9.39898439 8.54970487 -3.08984375 4.5859375 C-0.71842847 3.09620019 -0.71842847 3.09620019 0 0 Z " fill="#F76B60" transform="translate(68,201)"/>
<path d="M0 0 C0.53625 0.2475 1.0725 0.495 1.625 0.75 C0.48827108 4.16018675 -0.10632016 4.52291208 -2.99609375 6.4296875 C-3.75825195 6.94023682 -4.52041016 7.45078613 -5.30566406 7.97680664 C-6.13291992 8.52071045 -6.96017578 9.06461426 -7.8125 9.625 C-9.54702799 10.78558872 -11.2800634 11.94841076 -13.01171875 13.11328125 C-13.90036621 13.71092285 -14.78901367 14.30856445 -15.70458984 14.92431641 C-20.66004588 18.31222098 -25.49366442 21.86918894 -30.32202148 25.43505859 C-34.53940808 28.5231996 -38.78541392 31.24495105 -43.375 33.75 C-43.80078125 31.59375 -43.80078125 31.59375 -43.375 28.75 C-41.13832847 26.65215636 -39.05843047 24.98751791 -36.5625 23.25 C-35.85561035 22.73953125 -35.1487207 22.2290625 -34.42041016 21.703125 C-32.08676198 20.02992413 -29.73436956 18.38670951 -27.375 16.75 C-26.54145996 16.16992188 -25.70791992 15.58984375 -24.84912109 14.9921875 C-20.05044882 11.66290809 -15.2344716 8.36027642 -10.38427734 5.10644531 C-9.10538946 4.24307944 -7.83391232 3.36855591 -6.57275391 2.47949219 C-2.62625702 -0.27644811 -2.62625702 -0.27644811 0 0 Z " fill="#F76A60" transform="translate(45.375,36.25)"/>
<path d="M0 0 C0.66 0 1.32 0 2 0 C1.50891447 4.88918979 0.16695484 7.75619056 -2.75 11.6875 C-3.42546875 12.61949219 -4.1009375 13.55148438 -4.796875 14.51171875 C-7.02126065 17.02401247 -9.04336571 18.45448662 -12 20 C-14.37358694 16.43961959 -14.73959381 15.19103161 -14 11 C-10.43814366 6.84279015 -5.56940798 3.93747656 -1 1 C-0.67 0.67 -0.34 0.34 0 0 Z " fill="#B43A2E" transform="translate(152,148)"/>
<path d="M0 0 C-0.1875 3.3125 -0.1875 3.3125 -1 7 C-3.2265625 8.51953125 -3.2265625 8.51953125 -6 10 C-7.74330664 11.10296162 -9.4726443 12.22830375 -11.1875 13.375 C-12.47720703 14.22191406 -12.47720703 14.22191406 -13.79296875 15.0859375 C-16.26886732 17.23317697 -17.04704153 18.90155402 -18 22 C-18.33 22 -18.66 22 -19 22 C-20.2124345 16.9347181 -20.2124345 16.9347181 -20 14 C-17.92931156 11.69001783 -16.4578618 10.39242227 -13.9375 8.75 C-13.36322266 8.34265625 -12.78894531 7.9353125 -12.19726562 7.515625 C-10.48478908 6.31090644 -8.74765941 5.15291138 -7 4 C-6.42652832 3.60876953 -5.85305664 3.21753906 -5.26220703 2.81445312 C-1.12585127 0 -1.12585127 0 0 0 Z " fill="#F46C60" transform="translate(156,141)"/>
<path d="M0 0 C-0.04549084 2.76483196 -0.46853827 4.47317052 -2.45654297 6.44384766 C-4.40718235 7.97175422 -6.39963015 9.40311448 -8.4375 10.8125 C-9.13166016 11.31458984 -9.82582031 11.81667969 -10.54101562 12.33398438 C-15.69338861 16 -15.69338861 16 -18 16 C-18.4921875 13.86328125 -18.4921875 13.86328125 -18 11 C-15.63791161 8.67641538 -12.90762478 6.96885552 -10.125 5.1875 C-9.37863281 4.68541016 -8.63226563 4.18332031 -7.86328125 3.66601562 C-2.32684949 0 -2.32684949 0 0 0 Z " fill="#F76B60" transform="translate(153,121)"/>
<path d="M0 0 C-3.04437818 3.16243954 -6.43316839 5.58874883 -10 8.125 C-10.6290625 8.58003906 -11.258125 9.03507812 -11.90625 9.50390625 C-14.58203252 11.41436962 -16.8626644 12.95422147 -20 14 C-17.16745946 4.987371 -9.34580161 -0.74766413 0 0 Z " fill="#E46960" transform="translate(26,30)"/>
<path d="M0 0 C0.99 0.99 1.98 1.98 3 3 C0.74259377 5.33524782 -1.2805761 7.18705073 -4 9 C-4.99 9 -5.98 9 -7 9 C-6.875 6.75 -6.875 6.75 -6 4 C-2.9375 1.6875 -2.9375 1.6875 0 0 Z " fill="#EC675D" transform="translate(7,154)"/>
<path d="M0 0 C0.93423645 3.01031744 1.04449911 3.86650268 0 7 C-4.33333333 10 -4.33333333 10 -7 10 C-6.3125 7.125 -6.3125 7.125 -5 4 C-2.375 2.625 -2.375 2.625 0 2 C0 1.34 0 0.68 0 0 Z " fill="#F37165" transform="translate(58,117)"/>
<path d="M0 0 C2 3.75 2 3.75 2 6 C-0.31 7.32 -2.62 8.64 -5 10 C-5.33 9.34 -5.66 8.68 -6 8 C-4.75 5.4375 -4.75 5.4375 -3 3 C-2.01 2.67 -1.02 2.34 0 2 C0 1.34 0 0.68 0 0 Z " fill="#F37063" transform="translate(62,183)"/>
<path d="M0 0 C0.99 0.33 1.98 0.66 3 1 C4.203125 3.58203125 4.203125 3.58203125 5.25 6.8125 C5.60578125 7.87082031 5.9615625 8.92914063 6.328125 10.01953125 C6.9784667 12.90447728 7.02681757 14.28156631 6 17 C5.18457569 14.91780951 4.37276811 12.83420239 3.5625 10.75 C3.11003906 9.58984375 2.65757813 8.4296875 2.19140625 7.234375 C1.29849367 4.81033692 0.54205635 2.51713525 0 0 Z " fill="#F7D7D4" transform="translate(65,192)"/>
<path d="M0 0 C-3.72374196 3.72374196 -7.97462463 3.88716774 -13 4 C-16.5625 3.5625 -16.5625 3.5625 -19 3 C-19 2.67 -19 2.34 -19 2 C-18.15695313 1.93941406 -17.31390625 1.87882813 -16.4453125 1.81640625 C-15.34960938 1.73261719 -14.25390625 1.64882812 -13.125 1.5625 C-12.03445312 1.48128906 -10.94390625 1.40007812 -9.8203125 1.31640625 C-6.26459339 0.91749593 -3.69350534 -0.09719751 0 0 Z " fill="#A43D32" transform="translate(39,241)"/>
<path d="M0 0 C3.63 0.33 7.26 0.66 11 1 C10.01 1.66 9.02 2.32 8 3 C8 3.99 8 4.98 8 6 C4.63408134 4.55746343 2.48952921 2.66735273 0 0 Z " fill="#AC3F32" transform="translate(23,29)"/>
<path d="M0 0 C-0.33 2.31 -0.66 4.62 -1 7 C-2.32 7.33 -3.64 7.66 -5 8 C-5.25 5.6875 -5.25 5.6875 -5 3 C-1.79310345 0 -1.79310345 0 0 0 Z " fill="#E66A5D" transform="translate(156,141)"/>
<path d="M0 0 C-2.31 1.65 -4.62 3.3 -7 5 C-7.66 4.67 -8.32 4.34 -9 4 C-8.3125 2.0625 -8.3125 2.0625 -7 0 C-4.12060581 -0.93580311 -2.74490212 -1.37245106 0 0 Z " fill="#AB3C34" transform="translate(48,236)"/>
<path d="M0 0 C0.66 0.99 1.32 1.98 2 3 C-0.31 4.65 -2.62 6.3 -5 8 C-5.33 7.01 -5.66 6.02 -6 5 C-5.67 4.34 -5.34 3.68 -5 3 C-3.02 3.495 -3.02 3.495 -1 4 C-0.67 2.68 -0.34 1.36 0 0 Z " fill="#B04039" transform="translate(73,213)"/>
<path d="M0 0 C0.66 0.33 1.32 0.66 2 1 C0.68 5.29 -0.64 9.58 -2 14 C-3.04692525 9.81229899 -2.85469996 8.67828787 -1.5625 4.75 C-1.27503906 3.85796875 -0.98757812 2.9659375 -0.69140625 2.046875 C-0.46324219 1.37140625 -0.23507812 0.6959375 0 0 Z " fill="#A63F36" transform="translate(5,44)"/>
<path d="M0 0 C3.37503669 1.1858237 5.64722731 2.27573689 8 5 C6.02 5.33 4.04 5.66 2 6 C1.34 4.02 0.68 2.04 0 0 Z " fill="#AE3F36" transform="translate(53,43)"/>
<path d="M0 0 C2.99324263 1.0975223 3.84610901 1.67682892 5.25 4.625 C5.4975 5.40875 5.745 6.1925 6 7 C3.5625 6.3125 3.5625 6.3125 1 5 C0.1875 2.375 0.1875 2.375 0 0 Z " fill="#A93C33" transform="translate(143,109)"/>
<path d="M0 0 C0.99 0.33 1.98 0.66 3 1 C3 2.65 3 4.3 3 6 C2.01 6.33 1.02 6.66 0 7 C0 4.69 0 2.38 0 0 Z " fill="#AA392C" transform="translate(1,58)"/>
<path d="M0 0 C0.66 0 1.32 0 2 0 C1.25 5.75 1.25 5.75 -1 8 C-1.625 5.125 -1.625 5.125 -2 2 C-1.34 1.34 -0.68 0.68 0 0 Z " fill="#AB3529" transform="translate(67,75)"/>
</svg>
