<?xml version="1.0" encoding="UTF-8"?>
<svg version="1.1" xmlns="http://www.w3.org/2000/svg" width="651" height="350">
<path d="M0 0 C1.17313248 -0.00160126 1.17313248 -0.00160126 2.3699646 -0.00323486 C29.99148704 0.05084717 57.98683999 5.85202706 78.6875 25.4375 C82.61179988 30.09474305 85.45835199 34.81414834 87.75 40.4375 C91.9968766 49.38274838 102.95717378 55.212523 111.8203125 58.81640625 C120.17442345 61.59528416 127.72728232 61.14311858 135.6875 57.4375 C137.04613401 56.47215478 138.39093137 55.48472851 139.6875 54.4375 C140.3475 54.4375 141.0075 54.4375 141.6875 54.4375 C142.15053843 66.01346072 142.31511293 76.4841931 136.28515625 86.84765625 C135.34480776 89.62027241 135.34480776 89.62027241 137.36328125 92.5390625 C138.22959228 93.72286261 139.10956496 94.89673718 140 96.0625 C163.04635176 128.47597441 170.39988002 172.42266326 164.71313477 211.35742188 C159.36325132 241.16109517 145.89056545 268.24889266 126.6875 291.4375 C125.16578264 293.29094121 123.64496795 295.14512386 122.125 297 C121.36445313 297.92296875 120.60390625 298.8459375 119.8203125 299.796875 C117.98033818 302.07493845 116.23675542 304.39359818 114.5 306.75 C96.79086726 329.46654269 73.41482941 341.96433996 45.6875 348.4375 C44.96941162 348.62441406 44.25132324 348.81132812 43.51147461 349.00390625 C35.49141742 350.90146776 27.43667067 350.74612183 19.25 350.6875 C18.10073532 350.68284729 18.10073532 350.68284729 16.92825317 350.67810059 C-3.68096225 350.58075738 -24.38580064 350.16145204 -44.3125 344.4375 C-45.11252441 344.21497559 -45.91254883 343.99245117 -46.73681641 343.76318359 C-92.0465029 330.87870556 -125.77619476 300.02738528 -148.578125 259.66796875 C-150.12066345 256.79481719 -151.51188568 253.89829053 -152.875 250.9375 C-154.81917962 246.93897057 -156.95317289 244.8039523 -160.41796875 242.1015625 C-169.11520676 234.46233901 -175.58346551 221.77618044 -176.48950195 210.17016602 C-176.82953003 196.41596244 -177.03541333 184.70753016 -169.31640625 172.81640625 C-165.92567595 167.25937603 -164.87556795 161.99106989 -163.875 155.625 C-158.56630182 126.10452592 -146.47128355 97.72749077 -125.38671875 75.94140625 C-122.21845213 72.11681322 -120.03411794 67.82503878 -117.68188477 63.46850586 C-103.31766174 37.08898517 -77.81722861 15.28173034 -48.921875 6.72998047 C-46.37172253 6.01769992 -43.81551106 5.34223853 -41.25 4.6875 C-40.47197021 4.48874268 -39.69394043 4.28998535 -38.89233398 4.08520508 C-25.9974152 0.97961558 -13.20907449 -0.00385928 0 0 Z " fill="#050404" transform="translate(176.3125,-0.43749999999999994)"/>
<path d="M0 0 C5.63494299 0.14348234 10.74348743 0.85763224 15.46875 4.1015625 C18.83163156 8.27084933 18.06377514 13.89798903 18 19 C18.08701172 20.5778125 18.08701172 20.5778125 18.17578125 22.1875 C18.43321567 27.71866243 18.43321567 27.71866243 18 30 C16.68694209 31.02647781 15.3530506 32.02684438 14 33 C12.89885595 36.1391731 13.03472282 38.83067326 14 42 C15.98226115 43.92315704 18.13951906 45.32503813 20.421875 46.87890625 C32.79019295 57.05465874 40.38924324 77.70046403 42.25619507 93.11532593 C42.68290547 98.28263886 42.72364632 103.44297542 42.6875 108.625 C42.68594406 109.80255859 42.68594406 109.80255859 42.68435669 111.00390625 C42.61660165 124.30484476 40.90964836 135.92132719 35 148 C34.43667969 149.16789063 33.87335938 150.33578125 33.29296875 151.5390625 C19.73129513 176.62974671 -4.08986815 190.47063466 -30.6171875 198.453125 C-57.7716603 205.69292567 -85.84005767 201.76982863 -110 188 C-114.27630195 185.3369477 -118.16664322 182.26376439 -122 179 C-122.85722656 178.29230469 -123.71445313 177.58460938 -124.59765625 176.85546875 C-139.69789776 163.90240223 -150.02579419 147.47275478 -157 129 C-157.32097656 128.15566406 -157.64195312 127.31132812 -157.97265625 126.44140625 C-158.60056678 123.90650817 -158.68109149 122.535418 -158 120 C-156.30486793 117.237697 -154.50972657 114.66682124 -152.55053711 112.09057617 C-148.3783781 106.51117677 -146.65317042 100.7326008 -145 94 C-144.64292969 92.98164063 -144.28585938 91.96328125 -143.91796875 90.9140625 C-142.36136861 85.49390482 -142.7118076 79.83882083 -142.75 74.25 C-142.73839844 72.57550781 -142.73839844 72.57550781 -142.7265625 70.8671875 C-142.7494237 61.05973332 -143.8211148 52.22318156 -147.625 43.125 C-150.21302863 36.2640678 -150.5429203 30.26306708 -150 23 C-146.7 23 -143.4 23 -140 23 C-139.61908203 24.82724609 -139.61908203 24.82724609 -139.23046875 26.69140625 C-138.88318675 28.31518425 -138.53550945 29.93887775 -138.1875 31.5625 C-138.02185547 32.36236328 -137.85621094 33.16222656 -137.68554688 33.98632812 C-136.86443221 37.78204685 -135.97255921 41.29678322 -134.36328125 44.83984375 C-133 48 -133 48 -133 52 C-128.02093741 52.75427297 -128.02093741 52.75427297 -123 53 C-124.541591 47.3007848 -126.24227977 42.05158537 -129.1328125 36.88671875 C-131.26356429 32.25089392 -131.19048692 27.40385523 -131.25 22.375 C-131.27578125 21.06273437 -131.3015625 19.75046875 -131.328125 18.3984375 C-131 15 -131 15 -129.796875 13.16796875 C-127.60749357 11.74487082 -125.4512343 10.83847451 -123 9.9375 C-119.96894073 8.81438429 -117.71581089 7.81054059 -115 6 C-113.68 6 -112.36 6 -111 6 C-110.67 13.26 -110.34 20.52 -110 28 C-109.34 28 -108.68 28 -108 28 C-107.6596875 29.85625 -107.6596875 29.85625 -107.3125 31.75 C-105.03552373 41.86104846 -100.93445334 53.04369777 -92 59 C-89.04279372 59.66680368 -89.04279372 59.66680368 -86 59 C-80.14009872 52.1634485 -79.71582172 45.20838281 -79.875 36.625 C-79.88402344 35.69816406 -79.89304687 34.77132812 -79.90234375 33.81640625 C-79.92576899 31.54415841 -79.96163527 29.2720447 -80 27 C-84.29 25.35 -88.58 23.7 -93 22 C-93 21.01 -93 20.02 -93 19 C-91.36199999 17.56639015 -89.66426345 16.20035627 -87.9375 14.875 C-84.14527548 11.7977013 -84.14527548 11.7977013 -82.55859375 7.41015625 C-82.84653136 5.15997715 -83.26062896 3.14215035 -84 1 C-69.37495061 0.2619134 -69.37495061 0.2619134 -64 4 C-59.05484169 11.54346183 -59.76636043 24.21841106 -59 33 C-56.69 32.01 -54.38 31.02 -52 30 C-52 24.39 -52 18.78 -52 13 C-46.72 13.33 -41.44 13.66 -36 14 C-35.505 17.465 -35.505 17.465 -35 21 C-35.66 21.33 -36.32 21.66 -37 22 C-35.72402295 25.66369648 -34.32926786 27.98868007 -31.625 30.75 C-27.56759016 35.18170964 -24.00589014 39.87972823 -20.5 44.75 C-19.95939941 45.4831543 -19.41879883 46.21630859 -18.86181641 46.97167969 C-15.12428827 52.23475405 -15.12428827 52.23475405 -14.52734375 55.91015625 C-15 58 -15 58 -17.0625 59.6875 C-26.39888546 63.85907648 -37.84143226 65.23490549 -48 64 C-50.35546875 62.984375 -50.35546875 62.984375 -52 61 C-53.07421253 53.68192714 -50.42061944 47.33661437 -48 40.5 C-47.6184375 39.39140625 -47.236875 38.2828125 -46.84375 37.140625 C-45.90667494 34.42310733 -44.95856826 31.70999484 -44 29 C-46.52020086 31.38500258 -48.49000047 33.47983356 -50 36.609375 C-50.33 37.28226563 -50.66 37.95515625 -51 38.6484375 C-51.33 39.34195313 -51.66 40.03546875 -52 40.75 C-52.66666667 42.11979167 -53.33333333 43.48958333 -54 44.859375 C-54.48847412 45.87874146 -54.48847412 45.87874146 -54.98681641 46.91870117 C-56.340511 49.69948344 -57.76825699 52.44101782 -59.20458984 55.17993164 C-60.59320728 58.35738498 -60.63675265 60.62521096 -60 64 C-55.73338477 68.46506245 -51.70027101 70.73520718 -45.57421875 71.3359375 C-33.38667802 71.45842535 -17.82489639 70.64529385 -8.625 61.6875 C-6.62582743 58.38117613 -6.37863042 56.8058887 -7 53 C-10.32028909 46.63611258 -15.91561696 41.88446933 -21.109375 37.02734375 C-25.94388703 32.16382465 -25.94388703 32.16382465 -26.10546875 28.8125 C-25.86578991 27.29541198 -25.58607333 25.78418151 -25.26953125 24.28125 C-24.95110636 21.58617561 -25.45945688 20.07620359 -26.4375 17.5625 C-28.30561581 12.7258714 -28.53065684 8.14328937 -28 3 C-27 2 -27 2 -23.4375 1.9375 C-22.303125 1.958125 -21.16875 1.97875 -20 2 C-19.94054199 2.83809204 -19.94054199 2.83809204 -19.87988281 3.69311523 C-19.68686776 6.27615781 -19.4685745 8.85649943 -19.25 11.4375 C-19.188125 12.31599609 -19.12625 13.19449219 -19.0625 14.09960938 C-18.50170563 20.43191241 -16.89927986 25.36436011 -14 31 C-13.51917969 32.01191406 -13.03835937 33.02382812 -12.54296875 34.06640625 C-11.17732441 36.58123833 -9.8607231 38.82180756 -8 41 C-4.36658999 42.25156492 -4.36658999 42.25156492 -1 41 C3.2983678 35.98523756 3.19328118 29.51264204 3.5625 23.1875 C3.62727539 22.14819336 3.62727539 22.14819336 3.69335938 21.08789062 C3.79861453 19.39211314 3.89972863 17.69607948 4 16 C0.7 15.01 -2.6 14.02 -6 13 C-4.47793991 10.37098712 -3.15634036 8.15634036 -1 6 C-0.60235737 4.01178687 -0.26224651 2.01055661 0 0 Z " fill="#FBDCB7" transform="translate(254,135)"/>
<path d="M0 0 C15.51 0 31.02 0 47 0 C50.49354436 11.06289047 53.95157453 22.04374274 57.0234375 33.21484375 C57.55873571 35.14365689 58.09403499 37.07246973 58.62938881 39.00126743 C59.36373163 41.65021988 60.09499062 44.30001938 60.82623291 46.9498291 C62.27112609 52.18332828 63.72160608 57.41528385 65.17230988 62.64717484 C65.70753562 64.57757418 66.24241029 66.50807085 66.77728271 68.43856812 C70.44389117 81.64703305 74.21089282 94.82618062 78 108 C79.7767245 104.56937097 80.90065454 101.23339589 81.96875 97.51171875 C82.16131378 96.84459869 82.35387756 96.17747864 82.55227661 95.49014282 C83.2053275 93.2236721 83.85263981 90.95560214 84.5 88.6875 C84.96633342 87.06461083 85.43297794 85.44181103 85.89990234 83.8190918 C87.6064012 77.88124054 89.30313377 71.94060979 91 66 C91.55785542 64.0480333 92.11571223 62.09606699 92.67361069 60.14411259 C93.68096708 56.61954755 94.68815062 53.09493312 95.6953125 49.5703125 C95.89805031 48.86082521 96.10078812 48.15133793 96.30966949 47.42035103 C98.36396287 40.23094228 100.41764639 33.04136206 102.46747017 25.85067749 C103.24422497 23.12603076 104.02144386 20.40151651 104.79870224 17.6770134 C105.34073878 15.77623712 105.88206185 13.87525742 106.42337036 11.97427368 C106.74852631 10.83461151 107.07368225 9.69494934 107.40869141 8.52075195 C107.69306061 7.52284134 107.97742981 6.52493073 108.27041626 5.4967804 C108.80916958 3.65305957 109.39258238 1.82225285 110 0 C125.51 0 141.02 0 157 0 C156.35550395 4.51147236 155.86476853 7.90526563 154.48461914 12.06030273 C154.17624115 12.99877548 153.86786316 13.93724823 153.55014038 14.90415955 C153.21519562 15.90387283 152.88025085 16.90358612 152.53515625 17.93359375 C152.18635406 18.99111343 151.83755188 20.04863312 151.47817993 21.13819885 C150.73168958 23.39999747 149.98265114 25.66095644 149.23129272 27.92114258 C147.26460185 33.83800697 145.31636426 39.76094121 143.3671875 45.68359375 C142.98316269 46.8490976 142.59913788 48.01460144 142.20347595 49.21542358 C139.27572223 58.11714512 136.44486377 67.04426477 133.6875 76 C130.04240758 87.81579417 126.17959101 99.5456747 122.2381897 111.26519775 C117.25463971 126.09341512 112.55196648 141.00056705 107.95458984 155.95263672 C107.6395752 156.9582666 107.32456055 157.96389648 107 159 C106.5062085 160.64959717 106.5062085 160.64959717 106.00244141 162.33251953 C105 165 105 165 103 166 C101.44376349 166.11511614 99.88282241 166.16945627 98.32250977 166.19287109 C96.8657357 166.21696548 96.8657357 166.21696548 95.37953186 166.24154663 C90.94598025 166.28589552 86.51257866 166.32703944 82.07885742 166.35009766 C79.73630866 166.36668725 77.39381112 166.39401629 75.05151367 166.43212891 C71.68120972 166.48670681 68.31209169 166.50874041 64.94140625 166.5234375 C63.89134903 166.54610687 62.84129181 166.56877625 61.75941467 166.59213257 C54.56923755 166.57110051 54.56923755 166.57110051 51.98583984 163.97924805 C51.6605127 162.99609619 51.33518555 162.01294434 51 161 C50.55664307 159.75919678 50.11328613 158.51839355 49.65649414 157.23999023 C49.19289774 155.76488015 48.73619668 154.28759135 48.28515625 152.80859375 C48.03379913 152.00447052 47.78244202 151.20034729 47.52346802 150.37185669 C46.98158477 148.63701392 46.44247379 146.90130328 45.90585327 145.16482544 C44.45970115 140.48810501 42.99121772 135.81840672 41.5234375 131.1484375 C41.22549789 130.19922928 40.92755829 129.25002106 40.62059021 128.27204895 C37.91197168 119.66704195 35.06953159 111.11066705 32.1875 102.5625 C25.50896179 82.71779771 19.17195405 62.76509754 12.81752014 42.8147583 C10.81813155 36.54420822 8.79882047 30.28055863 6.7578125 24.0234375 C6.51658661 23.28255386 6.27536072 22.54167023 6.02682495 21.77833557 C4.93690738 18.43148282 3.84309803 15.0860117 2.74169922 11.74291992 C2.37318848 10.61217041 2.00467773 9.4814209 1.625 8.31640625 C1.30789063 7.35162354 0.99078125 6.38684082 0.6640625 5.39282227 C0 3 0 3 0 0 Z " fill="#010101" transform="translate(494,151)"/>
<path d="M0 0 C40.92 0 81.84 0 124 0 C124 13.53 124 27.06 124 41 C112.07057792 46.96471104 97.33749935 42 84 42 C83.67 82.92 83.34 123.84 83 166 C68.81 166 54.62 166 40 166 C40 124.75 40 83.5 40 41 C26.8 41.33 13.6 41.66 0 42 C0 28.14 0 14.28 0 0 Z " fill="#000000" transform="translate(363,151)"/>
<path d="M0 0 C1.15628906 0.3403125 2.31257812 0.680625 3.50390625 1.03125 C11.20510371 3.53350516 17.89303936 7.03137383 24.8125 11.1328125 C31.94698155 15.31207988 37.72414697 17.47454901 46 18 C46 18.66 46 19.32 46 20 C42.38132441 21.2062252 39.07493749 21.10816918 35.3125 21.0625 C34.61060547 21.05798828 33.90871094 21.05347656 33.18554688 21.04882812 C31.45699462 21.03706927 29.72848635 21.01913454 28 21 C28.2165625 21.79921875 28.433125 22.5984375 28.65625 23.421875 C30.60500659 31.10863709 31.38519261 38.08215188 31 46 C21.43900375 46.9336235 21.43900375 46.9336235 17.88671875 44.62890625 C16.74165674 43.52954516 15.60804976 42.41808222 14.48828125 41.29296875 C12.98757423 39.73540644 12.98757423 39.73540644 10.3125 39.75 C7.72236432 40.88333493 7.72236432 40.88333493 6.36328125 43.92578125 C2.88807198 48.44642537 -0.95016866 48.77162829 -6.33203125 49.90039062 C-8.74064922 50.44550151 -8.74064922 50.44550151 -12 52 C-13.53535871 55.49563748 -13.53535871 55.49563748 -14 59 C-15.63012838 60.63012838 -17.44437445 60.20976456 -19.6875 60.25 C-24.20993948 60.18548588 -27.23139196 59.69186289 -31 57 C-31.556875 56.01 -32.11375 55.02 -32.6875 54 C-36.25908461 49.36659294 -40.34585442 48.80773508 -46 48 C-48.26707463 47.8929796 -50.53145451 47.84583907 -52.80053711 47.80004883 C-64.49672002 47.55480821 -64.49672002 47.55480821 -69.0625 43.5 C-70.78515625 41.59375 -70.78515625 41.59375 -72 40 C-73.1036623 38.67109616 -73.1036623 38.67109616 -75.875 38.875 C-79.03212413 38.85623134 -79.03212413 38.85623134 -82 40 C-82.72045764 41.9812585 -83.38001259 43.98504093 -84 46 C-85.61058996 49.61961855 -86.61620018 50.81065876 -90.22265625 52.58984375 C-91.49752493 53.05328092 -92.77784938 53.50191196 -94.0625 53.9375 C-99.85189378 56.05456412 -104.95924213 58.5110627 -110.14453125 61.8984375 C-112 63 -112 63 -114 63 C-114.66 64.98 -115.32 66.96 -116 69 C-119.96 68.67 -123.92 68.34 -128 68 C-128 62 -128 62 -126.06640625 59.3671875 C-125.24011719 58.54476562 -124.41382812 57.72234375 -123.5625 56.875 C-119.97127539 53.26691518 -118 51.14446581 -118 46 C-118.78375 46.495 -119.5675 46.99 -120.375 47.5 C-123 49 -123 49 -125 49 C-124.04966894 46.368314 -123.28336864 44.31516122 -121.3984375 42.21875 C-119.4810309 39.17660768 -120.03194317 37.27876253 -120.4375 33.75 C-120.55143787 27.75150604 -120.55143787 27.75150604 -118.27734375 24.65234375 C-115.63228961 22.48899053 -112.94160969 20.73974142 -110 19 C-108.92621094 18.32324219 -107.85242188 17.64648438 -106.74609375 16.94921875 C-76.97895974 -1.33403894 -33.79338125 -10.35940488 0 0 Z " fill="#F7DCB7" transform="translate(230,80)"/>
<path d="M0 0 C2.87835955 1.46258107 3.99467882 2.94876204 5 6 C6.78510828 17.52206252 2.38384646 28.5787866 -4 38 C-13.1783066 48.98543433 -23.274238 54.50127635 -37 58 C-38.2375 58.3403125 -38.2375 58.3403125 -39.5 58.6875 C-56.16788965 62.53393607 -75.5813316 61.48655945 -90.45703125 52.79296875 C-98.58993612 47.05870863 -104.11894287 38.80588115 -106 29 C-106.16900499 26.54527175 -106.26585145 24.08509703 -106.3125 21.625 C-106.34988281 20.33851563 -106.38726562 19.05203125 -106.42578125 17.7265625 C-105.85125774 12.69816405 -103.84729735 9.87343835 -100.34375 6.3203125 C-92.41624853 1.18087299 -82.05573794 1.84735345 -73 3 C-69.11735115 3.87592145 -65.5091434 5.24701175 -61.84765625 6.80859375 C-56.16098965 9.18778897 -50.76457431 9.18277076 -44.6875 9.1875 C-43.46256836 9.20586914 -43.46256836 9.20586914 -42.21289062 9.22460938 C-33.75038352 9.24483848 -27.68437375 7.61491792 -20.3125 3.375 C-13.64203288 -0.18143181 -7.49786868 -1.64953111 0 0 Z " fill="#0D0806" transform="translate(264,217)"/>
<path d="M0 0 C10.99957374 -0.63735848 22.46420651 3.37016271 30.90234375 10.25390625 C31.88847656 11.01767578 31.88847656 11.01767578 32.89453125 11.796875 C36.3521884 14.58739084 38.9714714 17.16500009 40.90234375 21.25390625 C40.90234375 21.91390625 40.90234375 22.57390625 40.90234375 23.25390625 C38.00049851 24.98841424 35.07899949 26.68665285 32.15234375 28.37890625 C30.91484375 29.11947266 30.91484375 29.11947266 29.65234375 29.875 C28.853125 30.33261719 28.05390625 30.79023437 27.23046875 31.26171875 C26.49731445 31.6911377 25.76416016 32.12055664 25.00878906 32.56298828 C22.90234375 33.25390625 22.90234375 33.25390625 20.78808594 32.50341797 C18.36980773 30.90104253 16.16695281 29.0655935 13.90234375 27.25390625 C10.22065342 24.85317269 6.85334825 24.95435836 2.52734375 24.94140625 C1.24085938 24.92464844 -0.045625 24.90789063 -1.37109375 24.890625 C-5.32377477 25.27594925 -7.67672202 26.30683273 -11.09765625 28.25390625 C-12.08765625 28.58390625 -13.07765625 28.91390625 -14.09765625 29.25390625 C-15.21700698 30.90020818 -15.21700698 30.90020818 -16.09765625 33.25390625 C-16.63390625 34.40890625 -17.17015625 35.56390625 -17.72265625 36.75390625 C-20.3526927 44.04751248 -20.22869254 51.59368546 -17.09765625 58.69140625 C-14.35913539 63.47612529 -11.24385006 66.26602633 -6.09765625 68.25390625 C0.17272563 69.95166308 6.84347686 69.59989951 12.90234375 67.25390625 C15.85717553 65.17546704 18.40700156 62.86077211 20.90234375 60.25390625 C25.29618081 61.85013769 29.19230182 64.03414958 33.21484375 66.37890625 C33.86001953 66.75144531 34.50519531 67.12398438 35.16992188 67.5078125 C36.7491032 68.42022838 38.32596239 69.33666134 39.90234375 70.25390625 C39.27346969 76.01177909 37.68478358 78.33229788 33.5625 82.22265625 C20.50101762 92.19618171 6.85056858 93.53011468 -9.09765625 92.25390625 C-21.32472871 90.25280811 -30.61579528 81.32532292 -37.625 71.58203125 C-44.56053548 60.61763033 -44.4244605 47.866795 -43.09765625 35.25390625 C-42.03367567 30.76254993 -40.53711549 27.15833175 -38.09765625 23.25390625 C-37.42863281 22.16142578 -37.42863281 22.16142578 -36.74609375 21.046875 C-29.51270049 10.47965524 -19.42807167 3.74146088 -6.97265625 0.94140625 C-4.65204338 0.56734815 -2.3330473 0.28239865 0 0 Z " fill="#010101" transform="translate(406.09765625,32.74609375)"/>
<path d="M0 0 C1.92285168 0.02650948 3.84621691 0.0019394 5.76904297 -0.02636719 C19.81760428 0.18001252 37.27371898 4.15147075 49.05419922 12.02832031 C49.05419922 12.35832031 49.05419922 12.68832031 49.05419922 13.02832031 C45.56500266 12.57050216 42.14843703 12.04959271 38.71435547 11.27441406 C21.38963389 7.38058413 3.25047538 7.62222051 -13.94580078 12.02832031 C-14.6 12.18929199 -15.25419922 12.35026367 -15.92822266 12.51611328 C-39.93056533 18.51669895 -64.89591511 29.63239103 -81.94580078 48.02832031 C-82.53748047 48.63804688 -83.12916016 49.24777344 -83.73876953 49.87597656 C-103.62401132 71.06895185 -110.25676488 99.87772202 -111.94580078 128.02832031 C-119.20580078 128.02832031 -126.46580078 128.02832031 -133.94580078 128.02832031 C-134.68654165 96.54683344 -126.99746911 67.68911476 -106.94580078 43.02832031 C-106.48560547 42.42761719 -106.02541016 41.82691406 -105.55126953 41.20800781 C-102.18572279 36.90821231 -98.10051069 33.52738663 -93.94580078 30.02832031 C-93.04603516 29.24070312 -92.14626953 28.45308594 -91.21923828 27.64160156 C-65.12646319 5.16326101 -33.55440959 -0.66170127 0 0 Z " fill="#646464" transform="translate(183.94580078125,6.9716796875)"/>
<path d="M0 0 C9.79441341 4.98501869 15.73190156 12.88023889 21.64453125 21.87890625 C22.17175781 22.61496094 22.69898438 23.35101563 23.2421875 24.109375 C31.38535516 36.20958065 33.08439143 49.62480007 33.14453125 63.87890625 C33.15395752 65.57841431 33.15395752 65.57841431 33.16357422 67.31225586 C32.95741489 80.90776329 28.05403729 96.42014087 18.33984375 106.4140625 C10.9898534 112.76486061 5.1056274 114.81352955 -4.71875 114.40625 C-11.71898799 113.3911779 -17.82621612 110.43753447 -22.35546875 104.87890625 C-21.10819334 101.13708002 -20.13070666 100.9839788 -16.73046875 99.19140625 C-7.03421054 93.53410296 -3.0597091 86.28407576 0.64453125 75.87890625 C1.01191406 74.93015625 1.37929687 73.98140625 1.7578125 73.00390625 C5.47110858 59.91740023 2.46159937 43.18224231 -4.04296875 31.44140625 C-5.10048437 29.8877722 -6.20594938 28.36575637 -7.35546875 26.87890625 C-7.95746094 26.08871094 -8.55945313 25.29851562 -9.1796875 24.484375 C-15.57697461 17.1366338 -23.36981038 14.78755867 -32.35546875 11.87890625 C-33.01546875 11.54890625 -33.67546875 11.21890625 -34.35546875 10.87890625 C-28.69525469 -2.77943638 -12.34850105 -4.12575064 0 0 Z " fill="#646464" transform="translate(64.35546875,145.12109375)"/>
<path d="M0 0 C1.010625 0.66 2.02125 1.32 3.0625 2 C3.7225 1.01 4.3825 0.02 5.0625 -1 C7.75654691 -1.27807587 10.18663832 -1.37234777 12.875 -1.3125 C13.94331055 -1.31733398 13.94331055 -1.31733398 15.03320312 -1.32226562 C19.41029872 -1.27772534 21.87682722 -0.67426911 26.0625 1 C26.0625 21.13 26.0625 41.26 26.0625 62 C22.52115331 63.1804489 19.30804786 63.14618724 15.625 63.125 C14.30628906 63.12757812 12.98757813 63.13015625 11.62890625 63.1328125 C6.48734818 62.94134155 6.48734818 62.94134155 4.0625 62 C3.7325 61.34 3.4025 60.68 3.0625 60 C2.0725 60.66 1.0825 61.32 0.0625 62 C-7.0811871 65.54642118 -16.38672507 65.28082771 -23.94921875 63.15234375 C-31.47670756 59.7517171 -36.67313436 54.06344187 -40.375 46.75 C-42.25686006 41.54243896 -42.32353498 36.35327675 -42.375 30.875 C-42.38523193 30.02776367 -42.39546387 29.18052734 -42.40600586 28.30761719 C-42.27674537 19.04063418 -39.21202097 11.8462647 -32.9375 5 C-24.26850644 -2.71228031 -10.63102236 -5.363056 0 0 Z M-17.9375 22 C-20.60324406 26.47157068 -21.46506492 30.01566441 -20.58984375 35.0703125 C-19.27274272 38.96640775 -16.64324676 42.14712662 -12.9375 44 C-8.17366799 44.58118751 -4.79261886 44.45088085 -0.5 42.1875 C2.28872063 39.80688483 3.89900647 38.21099279 4.3984375 34.51171875 C4.48137654 28.51522634 4.32810424 24.62107126 0.0625 20 C-2.92542182 17.65234714 -6.15992187 17.57268375 -9.91015625 17.69140625 C-13.4110718 18.22430091 -15.34667311 19.65018026 -17.9375 22 Z " fill="#020202" transform="translate(493.9375,61)"/>
<path d="M0 0 C6.02550927 4.71225725 9.21446403 10.67678507 12.015625 17.6796875 C12.015625 23.9496875 12.015625 30.2196875 12.015625 36.6796875 C-1.514375 37.0096875 -15.044375 37.3396875 -28.984375 37.6796875 C-24.03915578 40.64681903 -22.77922768 41.0731738 -17.359375 40.9921875 C-16.23273437 40.98832031 -15.10609375 40.98445313 -13.9453125 40.98046875 C-10.79924778 40.89410371 -10.79924778 40.89410371 -7.984375 38.6796875 C-3.28328102 38.86388709 -0.22088338 41.42626712 3.328125 44.2421875 C4.15280273 44.87930664 4.15280273 44.87930664 4.99414062 45.52929688 C6.3408077 46.57150009 7.67908701 47.62452593 9.015625 48.6796875 C4.2816903 55.06332671 -0.49577615 58.18348788 -7.984375 60.6796875 C-21.39672103 61.80501453 -33.00069544 61.72674068 -43.796875 53.0546875 C-49.5521022 47.62542007 -53.67074598 40.20931311 -54.22265625 32.23828125 C-54.55131748 20.19666187 -52.82863847 11.71200746 -44.2734375 2.66015625 C-32.21444783 -7.77313345 -13.16986406 -8.76262609 0 0 Z M-28.984375 15.6796875 C-29.644375 17.3296875 -30.304375 18.9796875 -30.984375 20.6796875 C-23.724375 20.6796875 -16.464375 20.6796875 -8.984375 20.6796875 C-10.43704788 15.64810816 -10.43704788 15.64810816 -13.796875 13.8671875 C-19.72629799 11.65818678 -23.42313205 12.63674325 -28.984375 15.6796875 Z " fill="#010101" transform="translate(638.984375,64.3203125)"/>
<path d="M0 0 C5.63494299 0.14348234 10.74348743 0.85763224 15.46875 4.1015625 C18.83163156 8.27084933 18.06377514 13.89798903 18 19 C18.05800781 20.051875 18.11601562 21.10375 18.17578125 22.1875 C18.43321567 27.71866243 18.43321567 27.71866243 18 30 C16.68694209 31.02647781 15.3530506 32.02684438 14 33 C12.89885595 36.1391731 13.03472282 38.83067326 14 42 C15.98226115 43.92315704 18.13951906 45.32503813 20.421875 46.87890625 C28.76216864 53.74069329 34.14822659 66.15154407 38 76 C38 76.66 38 77.32 38 78 C33.72655357 77.52517262 31.86471775 75.00795363 29 72 C27.68824014 70.97186389 26.3630107 69.95915568 25 69 C24.7525 69.61875 24.505 70.2375 24.25 70.875 C23 73 23 73 21.0625 73.875 C17.86698556 75.61800787 17.1106809 77.60262313 16 81 C16.92862192 83.03412421 17.93753473 85.03247172 19 87 C19.60178695 91.31280649 19.47620253 95.28569621 17 99 C14.87187908 95.80781862 14.7013877 93.89580568 14.5390625 90.1328125 C13.73853779 86.96551908 12.30965383 85.28243569 10 83 C2.21556252 80.75799096 -4.60886511 83.31940188 -11.4375 86.9375 C-12.74902806 87.67519461 -14.06023912 88.41345316 -15.37109375 89.15234375 C-21.48118307 92.4520934 -27.7850245 92.15645 -34.5625 92.125 C-35.81836914 92.13080078 -35.81836914 92.13080078 -37.09960938 92.13671875 C-41.19589002 92.13023216 -45.00501048 92.0293838 -49 91 C-48.49396008 88.83125748 -48.00016187 87.00032373 -47 85 C-48.0725 84.773125 -49.145 84.54625 -50.25 84.3125 C-53.96079149 83.41251894 -57.22147434 82.03012268 -60.6875 80.4375 C-67.07667534 77.66314545 -73.08892769 77.1226158 -80 77 C-76.50045415 73.38380263 -75.22636419 72.07786439 -70.0625 71.75 C-66.50538408 71.78366356 -63.57584076 72.31681156 -60.1875 73.375 C-53.77771138 75.32819739 -47.29327826 75.77204979 -40.64135742 76.26513672 C-39.79806885 76.33361816 -38.95478027 76.40209961 -38.0859375 76.47265625 C-37.3232959 76.52687744 -36.5606543 76.58109863 -35.77490234 76.63696289 C-35.18918457 76.75676514 -34.6034668 76.87656738 -34 77 C-32.5216774 79.95664519 -32.93967217 82.74229737 -33 86 C-30.03 86 -27.06 86 -24 86 C-24.44911697 83.70650932 -24.90957944 81.41523782 -25.375 79.125 C-25.63023437 77.84882813 -25.88546875 76.57265625 -26.1484375 75.2578125 C-26.72237896 71.94075544 -26.72237896 71.94075544 -29 70 C-28.20335937 69.81824219 -27.40671875 69.63648438 -26.5859375 69.44921875 C-16.78035736 67.25665691 -16.78035736 67.25665691 -8.625 61.6875 C-6.62582743 58.38117613 -6.37863042 56.8058887 -7 53 C-10.32028909 46.63611258 -15.91561696 41.88446933 -21.109375 37.02734375 C-25.94388703 32.16382465 -25.94388703 32.16382465 -26.10546875 28.8125 C-25.86578991 27.29541198 -25.58607333 25.78418151 -25.26953125 24.28125 C-24.95110636 21.58617561 -25.45945688 20.07620359 -26.4375 17.5625 C-28.30561581 12.7258714 -28.53065684 8.14328937 -28 3 C-27 2 -27 2 -23.4375 1.9375 C-22.303125 1.958125 -21.16875 1.97875 -20 2 C-19.96036133 2.55872803 -19.92072266 3.11745605 -19.87988281 3.69311523 C-19.68686776 6.27615781 -19.4685745 8.85649943 -19.25 11.4375 C-19.188125 12.31599609 -19.12625 13.19449219 -19.0625 14.09960938 C-18.50170563 20.43191241 -16.89927986 25.36436011 -14 31 C-13.51917969 32.01191406 -13.03835937 33.02382812 -12.54296875 34.06640625 C-11.17732441 36.58123833 -9.8607231 38.82180756 -8 41 C-4.36658999 42.25156492 -4.36658999 42.25156492 -1 41 C3.2983678 35.98523756 3.19328118 29.51264204 3.5625 23.1875 C3.62727539 22.14819336 3.62727539 22.14819336 3.69335938 21.08789062 C3.79861453 19.39211314 3.89972863 17.69607948 4 16 C0.7 15.01 -2.6 14.02 -6 13 C-4.47793991 10.37098712 -3.15634036 8.15634036 -1 6 C-0.60235737 4.01178687 -0.26224651 2.01055661 0 0 Z " fill="#F1DABA" transform="translate(254,135)"/>
<path d="M0 0 C0.86936691 -0.00095673 1.73873383 -0.00191345 2.63444519 -0.00289917 C4.47447787 -0.0035797 6.31451295 -0.00173427 8.15454102 0.00244141 C10.95920269 0.00777208 13.76370281 0.00250214 16.56835938 -0.00390625 C18.35807327 -0.00324507 20.14778706 -0.00196307 21.9375 0 C23.18935844 -0.00303635 23.18935844 -0.00303635 24.46650696 -0.00613403 C28.81311914 0.01119406 32.88762041 0.26423602 37.16796875 1.1328125 C38.40543384 8.39895365 38.69761686 14.32228704 34.51953125 20.59765625 C31.76870012 24.29665659 28.80998092 27.81131949 25.77539062 31.27978516 C23.69819323 33.67436721 21.77284319 36.17182589 19.85546875 38.6953125 C18.96859375 39.8296875 18.08171875 40.9640625 17.16796875 42.1328125 C24.09796875 42.4628125 31.02796875 42.7928125 38.16796875 43.1328125 C38.18859375 46.4121875 38.20921875 49.6915625 38.23046875 53.0703125 C38.23957275 54.10534912 38.24867676 55.14038574 38.25805664 56.20678711 C38.2605542 57.01639893 38.26305176 57.82601074 38.265625 58.66015625 C38.27086182 59.49281006 38.27609863 60.32546387 38.28149414 61.18334961 C38.16796875 63.1328125 38.16796875 63.1328125 37.16796875 64.1328125 C34.76116947 64.23417155 32.38382729 64.27248598 29.9765625 64.265625 C29.23906265 64.26658173 28.50156281 64.26753845 27.74171448 64.26852417 C26.16708288 64.26920717 24.59244851 64.26734461 23.01782227 64.26318359 C20.66741105 64.25795041 18.31720116 64.26306384 15.96679688 64.26953125 C5.99742803 64.27348217 -3.8912043 63.88001274 -13.83203125 63.1328125 C-14.63096422 53.84151792 -14.35115908 48.2502197 -8.26953125 40.94140625 C-7.46515625 40.01457031 -6.66078125 39.08773437 -5.83203125 38.1328125 C-4.01199858 35.82096953 -2.23761787 33.47508911 -0.45703125 31.1328125 C0.3835164 30.04901498 1.22462582 28.96565281 2.06640625 27.8828125 C3.49594508 26.0121892 4.86202815 24.0917234 6.16796875 22.1328125 C2.33868893 21.22513136 -1.1531489 21.0553961 -5.08203125 21.1328125 C-6.99833316 21.17020376 -8.91594144 21.17983311 -10.83203125 21.1328125 C-11.83203125 20.1328125 -11.83203125 20.1328125 -11.94555664 18.27514648 C-11.94031982 17.48438721 -11.93508301 16.69362793 -11.9296875 15.87890625 C-11.92646484 15.02490234 -11.92324219 14.17089844 -11.91992188 13.29101562 C-11.91154297 12.39318359 -11.90316406 11.49535156 -11.89453125 10.5703125 C-11.89001953 9.66861328 -11.88550781 8.76691406 -11.88085938 7.83789062 C-11.8690335 5.60279936 -11.85255345 3.36783813 -11.83203125 1.1328125 C-7.8851806 -0.18280438 -4.11379173 -0.0099058 0 0 Z " fill="#020202" transform="translate(543.83203125,59.8671875)"/>
<path d="M0 0 C19.22334951 -0.83918472 35.31394171 1.70830629 50.09179688 15.00366211 C52.14663974 16.89413052 54.17301905 18.81298113 56.19287109 20.74072266 C77.87923795 41.69681893 77.87923795 41.69681893 105.57666016 50.80224609 C106.26050781 50.83640625 106.94435547 50.87056641 107.64892578 50.90576172 C109.31180416 50.98716136 110.97544905 51.05265134 112.63916016 51.11474609 C112.63916016 51.77474609 112.63916016 52.43474609 112.63916016 53.11474609 C97.32016773 58.49320111 88.24212681 57.71958218 73.62695312 51.10253906 C69.44278076 49.02330037 66.11932356 46.17946924 62.63916016 43.11474609 C48.73065317 32.57594243 34.23076703 26.7591273 16.63916016 26.11474609 C16.96916016 25.45474609 17.29916016 24.79474609 17.63916016 24.11474609 C20.32666016 23.29833984 20.32666016 23.29833984 23.63916016 22.55224609 C27.44921689 21.95900825 27.44921689 21.95900825 30.63916016 20.11474609 C28.41152027 19.29784432 26.18221156 18.48612737 23.95166016 17.67724609 C23.32582031 17.44714844 22.69998047 17.21705078 22.05517578 16.97998047 C2.66255218 9.97426828 -21.40830985 14.44923766 -40.36083984 21.11474609 C-42.00657327 21.63589501 -43.6523974 22.15675767 -45.29833984 22.67724609 C-48.83198804 23.88544198 -52.15766278 25.16158935 -55.36083984 27.11474609 C-55.63798828 27.79150391 -55.91513672 28.46826172 -56.20068359 29.16552734 C-57.36083984 31.11474609 -57.36083984 31.11474609 -59.74365234 31.72412109 C-60.64857422 31.77052734 -61.55349609 31.81693359 -62.48583984 31.86474609 C-63.39591797 31.92146484 -64.30599609 31.97818359 -65.24365234 32.03662109 C-65.94232422 32.06240234 -66.64099609 32.08818359 -67.36083984 32.11474609 C-66.70083984 34.42474609 -66.04083984 36.73474609 -65.36083984 39.11474609 C-65.97572266 39.03095703 -66.59060547 38.94716797 -67.22412109 38.86083984 C-68.03236328 38.75900391 -68.84060547 38.65716797 -69.67333984 38.55224609 C-70.47384766 38.44783203 -71.27435547 38.34341797 -72.09912109 38.23583984 C-74.529011 37.96719431 -74.529011 37.96719431 -77.36083984 39.11474609 C-79.6938381 39.15428844 -82.02792173 39.15876342 -84.36083984 39.11474609 C-82.38628341 36.75491035 -80.39083234 34.42630354 -78.36083984 32.11474609 C-77.87744141 31.55142578 -77.39404297 30.98810547 -76.89599609 30.40771484 C-60.19295755 12.25962971 -29.5378015 1.83487279 -5.71630859 0.25146484 C-3.81061082 0.17381709 -1.90503016 0.09259195 0 0 Z " fill="#403A36" transform="translate(188.36083984375,23.88525390625)"/>
<path d="M0 0 C2.64453125 0.30859375 2.64453125 0.30859375 4.3828125 1.8984375 C13.77372879 15.9032531 19.90608981 31.53448714 24.26953125 47.74609375 C24.47602295 48.50905762 24.68251465 49.27202148 24.89526367 50.05810547 C27.89205732 61.57524253 29.05626378 72.72241655 29.01953125 84.62109375 C29.01865509 85.31868805 29.01777893 86.01628235 29.01687622 86.73501587 C28.89409853 116.5699954 20.44884083 142.639037 5.64453125 168.30859375 C5.31453125 168.30859375 4.98453125 168.30859375 4.64453125 168.30859375 C4.71671875 167.49261719 4.78890625 166.67664063 4.86328125 165.8359375 C5.32932085 159.88745986 5.71261858 154.03998812 5.5 148.0703125 C5.16302435 137.68358746 5.74855356 128.8161919 8.64453125 118.80859375 C11.83162065 107.48734599 12.23644992 96.60844563 12.20703125 84.93359375 C12.20920654 84.08998291 12.21138184 83.24637207 12.21362305 82.37719727 C12.21084984 72.89559794 11.77216478 64.35258084 8.64453125 55.30859375 C8.19919747 53.8066087 7.76010942 52.30275373 7.328125 50.796875 C6.70518824 48.70295363 6.07873895 46.61011603 5.45117188 44.51757812 C4.41909304 41.04604022 3.46795572 37.58869372 2.65625 34.05859375 C1.76339241 30.74916022 0.87533237 28.79064807 -0.98046875 25.99609375 C-4.97439272 18.52510656 -3.93110994 9.52381586 -3.35546875 1.30859375 C-2.35546875 0.30859375 -2.35546875 0.30859375 0 0 Z " fill="#0BF88D" transform="translate(304.35546875,97.69140625)"/>
<path d="M0 0 C1 4 1 4 1.38671875 5.7421875 C2.19077147 8.70233062 3.27396229 11.51230195 4.375 14.375 C5.00535156 16.02628906 5.00535156 16.02628906 5.6484375 17.7109375 C6.95220059 21.04159295 6.95220059 21.04159295 8.7265625 24.2265625 C10 27 10 27 9 30 C8.34 30 7.68 30 7 30 C10.96490887 42.72419063 10.96490887 42.72419063 20 52 C19.649375 52.825 19.29875 53.65 18.9375 54.5 C18.63744844 57.96563285 18.63744844 57.96563285 20.5859375 59.93359375 C24.64179837 63.58386853 28.89743626 66.58437882 33.5 69.5 C36.05859375 71.2265625 36.05859375 71.2265625 38 73 C38.5625 76.875 38.5625 76.875 38.58203125 78.8984375 C39.75720814 84.80727082 46.41801436 88.85321511 50.99609375 92.171875 C66.20499792 102.07534748 81.84287169 105.14406673 99.6875 105.625 C100.87794922 105.66367187 102.06839844 105.70234375 103.29492188 105.7421875 C106.19647053 105.83540995 109.09802966 105.92121348 112 106 C111.67 106.66 111.34 107.32 111 108 C85.0685539 114.23278081 56.95081645 108.85816667 34 96 C30.38821753 93.59214502 27.20565483 90.91914605 24 88 C23.12214844 87.26265625 22.24429688 86.5253125 21.33984375 85.765625 C6.51275543 73.00306796 -6.12451197 55.19510323 -11 36 C-11 34.68 -11 33.36 -11 32 C-11.66 32 -12.32 32 -13 32 C-11.72990667 29.33746489 -10.31284929 26.97601698 -8.625 24.5625 C-5.18372712 19.14173388 -3.69131611 13.14173775 -2 7 C-1.58418143 5.56225445 -1.16772101 4.12469397 -0.75 2.6875 C-0.37875 1.3571875 -0.37875 1.3571875 0 0 Z " fill="#B48864" transform="translate(111,222)"/>
<path d="M0 0 C0.53367188 0.32613281 1.06734375 0.65226563 1.6171875 0.98828125 C5.73179116 3.40151765 9.32411001 5.1761006 14 6.1875 C20.60063961 8.01364295 23.90098483 12.78767206 28 18 C36.89417061 29.02877156 45.29632812 37.92737671 57.25390625 45.54296875 C64.38722331 50.1550515 70.44873596 55.23621332 76.3125 61.375 C82.13162665 67.34647131 87.98998903 72.43839203 95 77 C94.67 77.66 94.34 78.32 94 79 C74.61487171 73.06737013 56.51783911 64.11144957 41 51 C40.17242187 50.38253906 39.34484375 49.76507813 38.4921875 49.12890625 C22.57841714 37.23195574 8.60919508 19.91699945 0 2 C0 1.34 0 0.68 0 0 Z " fill="#F3D937" transform="translate(39,255)"/>
<path d="M0 0 C9.41909646 -1.3186735 17.28529414 3.83959278 24.84375 8.90625 C33.63511469 15.96104883 40.22504598 27.93514383 41.828125 39.17578125 C42.77844516 54.79126932 43.1056012 69.62919947 32.14453125 82.11328125 C25.32353457 88.47137596 17.09752427 92.18549374 7.75 92.0625 C6.41195312 92.04896484 6.41195312 92.04896484 5.046875 92.03515625 C4.37140625 92.02355469 3.6959375 92.01195312 3 92 C3.66 91.360625 4.32 90.72125 5 90.0625 C6.00472919 89.04632091 7.00396275 88.02470019 8 87 C8.65097656 86.33355469 9.30195312 85.66710937 9.97265625 84.98046875 C21.06868753 73.13778864 22.7744328 59.55723327 22.37890625 43.8046875 C21.82040643 33.7757123 18.19535351 24.64876724 12.13671875 16.63671875 C11 15 11 15 11 13 C12.8046875 13.19921875 12.8046875 13.19921875 15 14 C16.6328125 16.14453125 16.6328125 16.14453125 18.125 18.8125 C18.62257813 19.68519531 19.12015625 20.55789062 19.6328125 21.45703125 C20.08398438 22.29621094 20.53515625 23.13539063 21 24 C21.36609375 24.6703125 21.7321875 25.340625 22.109375 26.03125 C25.08504315 32.60904276 25.22866856 39.91127467 25 47 C25.99 47 26.98 47 28 47 C27.7834375 45.91460937 27.566875 44.82921875 27.34375 43.7109375 C27.06220674 42.2656821 26.78097314 40.82036635 26.5 39.375 C26.35691406 38.66214844 26.21382812 37.94929688 26.06640625 37.21484375 C25.26950574 33.07855065 24.83965944 29.23566321 25 25 C27.25 25.125 27.25 25.125 30 26 C34.37203186 30.88638855 35.52670497 36.72733481 37 43 C37.66 43 38.32 43 39 43 C36.83001029 31.5300544 32.27059731 19.01168065 22.9921875 11.33984375 C15.77308714 6.55818871 8.23575075 3.60076339 0 1 C0 0.67 0 0.34 0 0 Z " fill="#050505" transform="translate(47,155)"/>
<path d="M0 0 C5.28 0.33 10.56 0.66 16 1 C16.33 3.31 16.66 5.62 17 8 C16.01 8.495 16.01 8.495 15 9 C16.27597705 12.66369648 17.67073214 14.98868007 20.375 17.75 C24.43240984 22.18170964 27.99410986 26.87972823 31.5 31.75 C32.04060059 32.4831543 32.58120117 33.21630859 33.13818359 33.97167969 C36.87571173 39.23475405 36.87571173 39.23475405 37.47265625 42.91015625 C37 45 37 45 34.9375 46.6875 C25.60111454 50.85907648 14.15856774 52.23490549 4 51 C1.64453125 49.984375 1.64453125 49.984375 0 48 C-1.07421253 40.68192714 1.57938056 34.33661437 4 27.5 C4.3815625 26.39140625 4.763125 25.2828125 5.15625 24.140625 C6.09332506 21.42310733 7.04143174 18.70999484 8 16 C6.02 17.65 4.04 19.3 2 21 C0.65504172 13.90294338 -0.24091535 7.2274605 0 0 Z " fill="#F6DDBB" transform="translate(202,148)"/>
<path d="M0 0 C0.30426617 3.87939363 0.4880269 6.23724061 -1.64453125 9.5703125 C-4.29280544 12.30203148 -6.39851669 13.34420369 -9.9375 14.6875 C-10.95714844 15.08324219 -11.97679687 15.47898438 -13.02734375 15.88671875 C-14.00832031 16.25410156 -14.98929687 16.62148437 -16 17 C-16.72356689 17.32009033 -17.44713379 17.64018066 -18.19262695 17.9699707 C-30.96803829 22.6572879 -45.40641067 22.53263991 -58.82714844 22.50097656 C-61.78935015 22.49998685 -64.74909587 22.54216644 -67.7109375 22.5859375 C-69.61457802 22.59113423 -71.51822739 22.59383286 -73.421875 22.59375 C-74.7343924 22.6183429 -74.7343924 22.6183429 -76.07342529 22.64343262 C-80.3523157 22.59501489 -83.14265561 22.33037424 -86.53613281 19.58789062 C-89.73004257 16.23320934 -90.12660029 14.86202025 -90.0625 10.375 C-90.05347656 9.55773437 -90.04445312 8.74046875 -90.03515625 7.8984375 C-90.02355469 7.27195313 -90.01195312 6.64546875 -90 6 C-82.70398391 1.84824578 -74.797292 1.51541818 -66.71191406 3.5859375 C-62.93787598 4.76324749 -59.25697504 6.13533324 -55.58203125 7.58984375 C-49.91407758 9.82117556 -45.28048983 10.18257313 -39.25 10.1875 C-38.4765625 10.19974609 -37.703125 10.21199219 -36.90625 10.22460938 C-29.28783458 10.24378324 -22.85225206 8.54765246 -15.8125 5.5625 C-14.33716797 4.94568359 -14.33716797 4.94568359 -12.83203125 4.31640625 C-9.96718991 3.05065678 -9.96718991 3.05065678 -7.3125 1.3515625 C-4.64808641 -0.20567923 -3.03425332 -0.26007886 0 0 Z " fill="#F5F6F4" transform="translate(258,222)"/>
<path d="M0 0 C0.33 7.26 0.66 14.52 1 22 C1.66 22 2.32 22 3 22 C3.3403125 23.85625 3.3403125 23.85625 3.6875 25.75 C5.02193294 31.81734976 7.5275072 37.325946 10 43 C10.67293346 44.66414626 11.3417486 46.32999182 12 48 C10.34920558 49.65079442 8.36263821 49.22549447 6.08984375 49.31640625 C5.10048828 49.35830078 4.11113281 49.40019531 3.09179688 49.44335938 C2.05087891 49.48267578 1.00996094 49.52199219 -0.0625 49.5625 C-1.10728516 49.60568359 -2.15207031 49.64886719 -3.22851562 49.69335938 C-5.81886884 49.79981225 -8.40932186 49.9018276 -11 50 C-11.2784375 48.98035156 -11.556875 47.96070313 -11.84375 46.91015625 C-12.86580218 43.3338733 -14.13387279 39.89863327 -15.5 36.4375 C-16.34338953 34.29559915 -17.17700201 32.14981847 -18 30 C-18.37511719 29.03578125 -18.75023438 28.0715625 -19.13671875 27.078125 C-20.16869988 23.39848188 -20.30110152 20.13099006 -20.3125 16.3125 C-20.32925781 15.00925781 -20.34601563 13.70601562 -20.36328125 12.36328125 C-20 9 -20 9 -18.79296875 7.171875 C-16.60608201 5.74253726 -14.45240117 4.83890341 -12 3.9375 C-1.37349398 0 -1.37349398 0 0 0 Z " fill="#F8F7F6" transform="translate(143,141)"/>
<path d="M0 0 C2.64453125 0.30859375 2.64453125 0.30859375 4.3828125 1.8984375 C13.85585523 16.02572952 19.96315627 31.78127036 24.39453125 48.12109375 C24.61778076 48.93433105 24.84103027 49.74756836 25.07104492 50.58544922 C26.19886041 54.88987844 27.11177713 58.82165904 26.64453125 63.30859375 C25.65453125 64.29859375 25.65453125 64.29859375 24.64453125 65.30859375 C21.64453125 61.55859375 21.64453125 61.55859375 21.64453125 59.30859375 C18.964279 60.90533977 17.4582834 61.83805112 15.64453125 64.30859375 C14.81748009 68.30860847 14.65753832 72.2308769 14.64453125 76.30859375 C11.8742835 73.538346 11.92805602 70.5982586 11.39453125 66.87109375 C9.95199431 57.73765584 7.2439538 49.20676161 4.31347656 40.45922852 C3.650104 38.32650993 3.12470717 36.19578122 2.625 34.01953125 C1.7524505 30.71705307 0.86944922 28.78178893 -0.98046875 25.99609375 C-4.97439272 18.52510656 -3.93110994 9.52381586 -3.35546875 1.30859375 C-2.35546875 0.30859375 -2.35546875 0.30859375 0 0 Z " fill="#2CAEB3" transform="translate(304.35546875,97.69140625)"/>
<path d="M0 0 C14.59859006 -0.73675127 14.59859006 -0.73675127 20 3 C25.29932074 10.68750147 23.76278388 23.99627221 24 33 C24.99 33.33 25.98 33.66 27 34 C26.67 35.65 26.34 37.3 26 39 C24.7625 39.37125 23.525 39.7425 22.25 40.125 C16.18183491 42.12836551 10.66757824 45.06849401 5 48 C4.67 40.74 4.34 33.48 4 26 C-0.29 24.35 -4.58 22.7 -9 21 C-9 20.01 -9 19.02 -9 18 C-7.36199999 16.56639015 -5.66426345 15.20035627 -3.9375 13.875 C-0.14527548 10.7977013 -0.14527548 10.7977013 1.44140625 6.41015625 C1.15346864 4.15997715 0.73937104 2.14215035 0 0 Z " fill="#F5F4F4" transform="translate(170,136)"/>
<path d="M0 0 C0.33 0 0.66 0 1 0 C1.495 5.445 1.495 5.445 2 11 C4.97 10.01 7.94 9.02 11 8 C12.12268375 11.13197288 12.2713171 13.29727452 11.06738281 16.41552734 C9.65498466 19.21614931 8.1649833 21.95496866 6.625 24.6875 C5.59480862 26.56555928 4.56609493 28.44443011 3.5390625 30.32421875 C3.07709473 31.15010498 2.61512695 31.97599121 2.13916016 32.8269043 C0.88461464 35.07885292 0.88461464 35.07885292 0 38 C-0.66 38 -1.32 38 -2 38 C-2 34.04 -2 30.08 -2 26 C-10.42606643 28.20226736 -15.10826741 30.15432782 -20.4765625 37.07421875 C-22 39 -22 39 -24 40 C-30.7277595 39.84069058 -37.42249699 38.66821735 -44.0546875 37.60546875 C-50.12856359 36.67333925 -56.21924655 35.86805937 -62.30981445 35.05322266 C-63.21691162 34.93124512 -64.12400879 34.80926758 -65.05859375 34.68359375 C-65.86611084 34.57587646 -66.67362793 34.46815918 -67.50561523 34.35717773 C-70.34403719 33.95073638 -73.17163969 33.47139339 -76 33 C-77.32 41.58 -78.64 50.16 -80 59 C-80.33 59 -80.66 59 -81 59 C-81.04898438 57.68386719 -81.09796875 56.36773437 -81.1484375 55.01171875 C-81.63453248 43.08422005 -82.26832616 32.34897328 -86.625 21.125 C-89.21302863 14.2640678 -89.5429203 8.26306708 -89 1 C-85.7 1 -82.4 1 -79 1 C-78.74605469 2.21816406 -78.49210937 3.43632812 -78.23046875 4.69140625 C-77.88318675 6.31518425 -77.53550945 7.93887775 -77.1875 9.5625 C-77.02185547 10.36236328 -76.85621094 11.16222656 -76.68554688 11.98632812 C-75.86443221 15.78204685 -74.97255921 19.29678322 -73.36328125 22.83984375 C-72 26 -72 26 -72 30 C-67.02093741 30.75427297 -67.02093741 30.75427297 -62 31 C-61.67 30.01 -61.34 29.02 -61 28 C-61 29.98 -61 31.96 -61 34 C-60.34926514 33.93941406 -59.69853027 33.87882812 -59.02807617 33.81640625 C-56.08134691 33.54285466 -53.13442785 33.27140344 -50.1875 33 C-49.16333984 32.90460938 -48.13917969 32.80921875 -47.08398438 32.7109375 C-46.10107422 32.62070313 -45.11816406 32.53046875 -44.10546875 32.4375 C-43.19949951 32.35371094 -42.29353027 32.26992187 -41.36010742 32.18359375 C-39 32 -39 32 -36 32 C-35.236875 32.825 -34.47375 33.65 -33.6875 34.5 C-31.21387481 37.22230195 -31.21387481 37.22230195 -27.9375 37.6875 C-24.76616645 37.25045236 -24.76616645 37.25045236 -22.75 34.375 C-21.14325599 31.27627942 -19.95732327 28.35063143 -19 25 C-18.34 25.33 -17.68 25.66 -17 26 C-14.59722712 24.83296989 -14.59722712 24.83296989 -11.9375 23.1875 C-6.92379146 20.33669739 -2.66988058 18.92948862 3 18 C3 16.35 3 14.7 3 13 C2.01 12.505 2.01 12.505 1 12 C-0.5183512 8.204122 -0.06687163 4.0122978 0 0 Z " fill="#EAD9C0" transform="translate(193,157)"/>
<path d="M0 0 C1.54772095 -0.00773438 1.54772095 -0.00773438 3.12670898 -0.015625 C10.34943222 0.04865351 17.22675322 0.93386099 24.3125 2.3125 C24.3125 2.9725 24.3125 3.6325 24.3125 4.3125 C25.364375 4.395 26.41625 4.4775 27.5 4.5625 C31.58297209 5.36570762 33.3247727 6.50584709 36.3125 9.3125 C35.9825 10.3025 35.6525 11.2925 35.3125 12.3125 C32.984375 13.4453125 32.984375 13.4453125 30.0625 14.4375 C29.10859375 14.77007812 28.1546875 15.10265625 27.171875 15.4453125 C19.83128681 17.67155646 12.74646711 17.49621011 5.125 17.5 C3.84818359 17.51224609 2.57136719 17.52449219 1.25585938 17.53710938 C-17.18999678 17.56556057 -17.18999678 17.56556057 -24.25 12.9375 C-24.89066406 12.53789062 -25.53132812 12.13828125 -26.19140625 11.7265625 C-28.05283653 9.96719498 -28.40939577 8.83983316 -28.6875 6.3125 C-28.3575 5.3225 -28.0275 4.3325 -27.6875 3.3125 C-18.42755416 0.78295382 -9.58622004 0.01142662 0 0 Z " fill="#EF1639" transform="translate(201.6875,253.6875)"/>
<path d="M0 0 C2.32845493 3.49268239 2.16704629 4.90736594 2 9 C2 13.83013372 2.84847738 14.40531408 6.0625 17.8125 C6.87976563 18.68777344 7.69703125 19.56304687 8.5390625 20.46484375 C11.17086265 23.17601565 13.83793674 25.84042275 16.58984375 28.4296875 C18.92099603 31.02559669 19.89234645 33.39444876 20.5 36.8125 C19.76182891 41.51834067 17.70535826 44.06569895 14 47 C10.44282457 48.79807146 6.83787449 49.94946764 3 51 C2.21753906 51.22558594 1.43507812 51.45117188 0.62890625 51.68359375 C-7.83695435 53.75366085 -19.6498887 55.10286193 -27.75 51.25 C-33.39330544 47.34309623 -33.39330544 47.34309623 -35 45 C-35.99179644 38.06652398 -33.00230101 33.37738932 -29.6875 27.4375 C-28.69118076 25.60298703 -27.69508113 23.76835477 -26.69921875 21.93359375 C-26.22532715 21.07878418 -25.75143555 20.22397461 -25.26318359 19.34326172 C-24.22968879 17.42608291 -23.29678653 15.45498354 -22.39453125 13.47265625 C-20.82461699 10.68902676 -19.83406268 10.25263038 -17 9 C-17.24234375 9.71542969 -17.4846875 10.43085938 -17.734375 11.16796875 C-18.83535849 14.44127737 -19.9177823 17.72044163 -21 21 C-21.3815625 22.12535156 -21.763125 23.25070313 -22.15625 24.41015625 C-24.12580531 30.42433408 -25.83785857 35.65621372 -25 42 C-18.18245418 46.54503055 -7.64299895 43.93186821 0.0625 42.64453125 C3.69188422 41.8481903 6.6998379 40.68845503 10 39 C9.62010876 32.87522288 7.89139763 29.86442275 4.0625 25.375 C1.05508069 21.76779834 -1.52453164 18.52682963 -3 14 C-3.33 13.01 -3.66 12.02 -4 11 C-3.34 10.01 -2.68 9.02 -2 8 C-1.34 8 -0.68 8 0 8 C0 5.36 0 2.72 0 0 Z " fill="#160B08" transform="translate(228,154)"/>
<path d="M0 0 C0.99 0 1.98 0 3 0 C3.23332031 0.85078125 3.46664062 1.7015625 3.70703125 2.578125 C11.5128501 28.50557984 28.3040603 52.32511196 52.4375 65.375 C73.4662185 76.21585849 96.60490389 79.28352226 120 76 C119.505 77.485 119.505 77.485 119 79 C120.485 79.495 120.485 79.495 122 80 C96.08281035 86.49518033 69.89522399 82.04900924 47 69 C42.72369805 66.3369477 38.83335678 63.26376439 35 60 C34.14277344 59.29230469 33.28554687 58.58460938 32.40234375 57.85546875 C17.5338316 45.10118089 1.53983971 24.78476808 -1 4.5625 C-1 1 -1 1 0 0 Z " fill="#F1D9C1" transform="translate(97,254)"/>
<path d="M0 0 C2.08255505 0.94661593 3.8553379 2.02059971 5.7265625 3.3359375 C6.74363281 4.0475 6.74363281 4.0475 7.78125 4.7734375 C14.97052232 10.41633804 19.90541302 18.65482658 21.48046875 27.69921875 C22.88210242 42.71672231 21.2111768 55.51745546 12.7265625 68.3359375 C10.83410796 70.55882061 8.92401834 72.40008355 6.7265625 74.3359375 C6.0665625 74.0059375 5.4065625 73.6759375 4.7265625 73.3359375 C5.05269531 72.74167969 5.37882812 72.14742188 5.71484375 71.53515625 C12.81190135 58.0737756 14.92829514 43.92124495 12.0703125 28.8828125 C9.6298664 21.35109093 5.0143285 15.09675724 -1.7109375 10.8359375 C-7.95206294 8.00695818 -15.5908907 9.04398157 -22.2734375 9.3359375 C-18.41862812 -1.18521655 -10.37638999 -3.03090429 0 0 Z " fill="#A2A2A2" transform="translate(40.2734375,166.6640625)"/>
<path d="M0 0 C0.99 0 1.98 0 3 0 C1.74244124 9.36664455 -2.67061584 15.69044075 -9.94140625 21.6171875 C-19.98968018 28.36688195 -30.1032308 29.89811496 -42 29 C-49.3895919 27.39312198 -56.48109373 23.13436069 -61 17 C-61.3671875 13.8671875 -61.3671875 13.8671875 -61 11 C-60.34 10.34 -59.68 9.68 -59 9 C-53.18398755 9 -49.8344347 11.13065898 -45.2109375 14.52734375 C-38.8188832 18.78494882 -32.46343096 18.68237083 -25 18 C-14.59008962 15.62367804 -7.12891304 10.42074373 -1.32421875 1.5390625 C-0.88722656 1.03117187 -0.45023438 0.52328125 0 0 Z " fill="#140B07" transform="translate(256,287)"/>
<path d="M0 0 C0.66 0.33 1.32 0.66 2 1 C10.7501386 31.76379262 -1.25796734 71.19077771 -16 98 C-17.32135463 100.34055454 -18.65716844 102.6716313 -20 105 C-20.33 105 -20.66 105 -21 105 C-20.9278125 104.18402344 -20.855625 103.36804688 -20.78125 102.52734375 C-20.3152104 96.57886611 -19.93191267 90.73139437 -20.14453125 84.76171875 C-20.52454275 73.07198818 -19.34533224 63.2243962 -16.2175293 51.95581055 C-12.73399691 38.54019422 -12.98076625 24.78097835 -13 11 C-9.62831119 14.37168881 -9.86177287 17.82341594 -9.80957031 22.48022461 C-9.82859338 36.4066989 -11.30023007 49.61093769 -14.59960938 63.13989258 C-16.57113015 71.67346659 -16.80649047 80.27272021 -17 89 C-16.34 89 -15.68 89 -15 89 C-14.85498047 87.96552734 -14.85498047 87.96552734 -14.70703125 86.91015625 C-13.85579243 83.40643847 -12.35569652 80.63457898 -10.6875 77.4375 C-6.57318415 69.13845727 -4.94374662 60.59690539 -3.4831543 51.50610352 C-3 49 -3 49 -1.97436523 45.32006836 C-0.78605778 40.62809151 -0.65103772 36.07161597 -0.5859375 31.25 C-0.56657135 30.35128174 -0.5472052 29.45256348 -0.5272522 28.52661133 C-0.46795392 25.68450104 -0.42127192 22.84234915 -0.375 20 C-0.33677433 18.06118124 -0.29772 16.12237862 -0.2578125 14.18359375 C-0.1622939 9.4558619 -0.0780814 4.72805068 0 0 Z " fill="#3FD989" transform="translate(330,161)"/>
<path d="M0 0 C5.6353233 0.14349203 10.73958224 0.86042832 15.46875 4.09765625 C18.82637282 8.26898868 18.05911388 13.89847195 18 19 C18.06960938 19.97839844 18.13921875 20.95679688 18.2109375 21.96484375 C18.36224693 24.4182181 18.44954472 26.58309291 18 29 C15.5625 30.875 15.5625 30.875 13 32 C12.67 33.32 12.34 34.64 12 36 C9.03 36.66 6.06 37.32 3 38 C3.33 30.74 3.66 23.48 4 16 C0.7 15.01 -2.6 14.02 -6 13 C-4.47793991 10.37098712 -3.15634036 8.15634036 -1 6 C-0.60235737 4.01178687 -0.26224651 2.01055661 0 0 Z " fill="#F1F1F0" transform="translate(254,135)"/>
<path d="M0 0 C19.35446799 18.91227452 19.35446799 18.91227452 20.28125 27.65234375 C20 30 20 30 17.9375 31.6875 C8.38384722 35.95615337 -2.62432971 36.91916599 -13 36 C-13.99 35.34 -14.98 34.68 -16 34 C-16 33.34 -16 32.68 -16 32 C-10.39 30.02 -4.78 28.04 1 26 C1.0874478 17.2552199 0.89225443 8.69948074 0 0 Z " fill="#AC896A" transform="translate(219,163)"/>
<path d="M0 0 C1.46953125 0.01450195 1.46953125 0.01450195 2.96875 0.02929688 C4.49242187 0.06700195 4.49242187 0.06700195 6.046875 0.10546875 C7.59375 0.12577148 7.59375 0.12577148 9.171875 0.14648438 C11.71407292 0.18179268 14.25520723 0.23110839 16.796875 0.29296875 C15.91538469 5.40571773 14.11496527 7.56457003 10.60546875 11.29296875 C8.79789853 13.17922164 8.79789853 13.17922164 7.64453125 15.10546875 C5.88197953 17.8723424 4.31521702 19.17118501 1.13671875 19.91796875 C-5.09688568 20.54842179 -11.02214493 20.22011576 -17.203125 19.29296875 C-15.96539308 16.68231573 -14.71378573 14.0800227 -13.453125 11.48046875 C-13.10507812 10.74248047 -12.75703125 10.00449219 -12.3984375 9.24414062 C-12.05039062 8.53193359 -11.70234375 7.81972656 -11.34375 7.0859375 C-11.02954102 6.43133545 -10.71533203 5.7767334 -10.39160156 5.10229492 C-7.64140228 0.91541593 -4.88843409 -0.08526339 0 0 Z " fill="#050505" transform="translate(623.203125,33.70703125)"/>
<path d="M0 0 C3.3 0 6.6 0 10 0 C10.25394531 1.21816406 10.50789063 2.43632812 10.76953125 3.69140625 C11.11681325 5.31518425 11.46449055 6.93887775 11.8125 8.5625 C11.97814453 9.36236328 12.14378906 10.16222656 12.31445312 10.98632812 C13.13556779 14.78204685 14.02744079 18.29678322 15.63671875 21.83984375 C17 25 17 25 17 29 C21.97906259 29.75427297 21.97906259 29.75427297 27 30 C27.33 29.01 27.66 28.02 28 27 C28 28.32 28 29.64 28 31 C25 32 25 32 13 32 C11.68 40.58 10.36 49.16 9 58 C8.67 58 8.34 58 8 58 C7.95101562 56.68386719 7.90203125 55.36773437 7.8515625 54.01171875 C7.36546752 42.08422005 6.73167384 31.34897328 2.375 20.125 C-0.21302863 13.2640678 -0.5429203 7.26306708 0 0 Z " fill="#E1D0B8" transform="translate(104,158)"/>
<path d="M0 0 C2.65234375 0.328125 2.65234375 0.328125 4.4609375 2.09375 C6.24341777 4.812353 7.98228012 7.53860824 9.65234375 10.328125 C10.26335937 11.32457031 10.874375 12.32101563 11.50390625 13.34765625 C16.29195321 21.8633836 16.29195321 21.8633836 15.15234375 27.328125 C14.25711425 30.14170344 13.00875584 32.70884648 11.65234375 35.328125 C8.73717083 34.25411392 6.87424199 33.55002324 4.65234375 31.328125 C3.99234375 31.658125 3.33234375 31.988125 2.65234375 32.328125 C-4.12322608 22.22526641 -4.29936343 13.14615971 -3.34765625 1.328125 C-2.34765625 0.328125 -2.34765625 0.328125 0 0 Z " fill="#5D2BDD" transform="translate(304.34765625,97.671875)"/>
<path d="M0 0 C1.299375 1.1446875 1.299375 1.1446875 2.625 2.3125 C12.03612218 10.07447694 22.67858664 9.20263547 34.3125 9.25 C35.56740234 9.270625 36.82230469 9.29125 38.11523438 9.3125 C45.88306622 9.34488283 52.66327285 8.59997763 60 6 C60.90919189 5.68063477 61.81838379 5.36126953 62.75512695 5.03222656 C65.19742833 4.22623981 65.19742833 4.22623981 65.8125 1.875 C65.9053125 0.946875 65.9053125 0.946875 66 0 C68 1 68 1 68.6328125 2.84765625 C68.79523438 3.57855469 68.95765625 4.30945313 69.125 5.0625 C69.29257813 5.79597656 69.46015625 6.52945312 69.6328125 7.28515625 C69.75398438 7.85105469 69.87515625 8.41695313 70 9 C50.26589913 15.97750935 28.02787629 20.56767195 7.90625 12.12109375 C3.49910792 9.88951122 0.90140019 6.86853358 -2 3 C-1.34 2.01 -0.68 1.02 0 0 Z " fill="#210C09" transform="translate(172,261)"/>
<path d="M0 0 C9.74780861 0.04228984 16.32263079 3.85177072 24.25 9.1875 C31.37104948 16.47039152 38.72903996 27.94682807 39.12890625 38.35546875 C39.08636719 39.22816406 39.04382813 40.10085937 39 41 C38.34 41 37.68 41 37 41 C36.59007812 39.94039062 36.18015625 38.88078125 35.7578125 37.7890625 C35.21381621 36.40093404 34.66953029 35.01291907 34.125 33.625 C33.85558594 32.92632812 33.58617187 32.22765625 33.30859375 31.5078125 C31.70845196 27.41102746 31.70845196 27.41102746 29 24 C26.93125966 23.3574765 26.93125966 23.3574765 25 23 C25.2165625 24.00160156 25.433125 25.00320312 25.65625 26.03515625 C25.93786632 27.37752737 26.21909566 28.71997971 26.5 30.0625 C26.64308594 30.71927734 26.78617188 31.37605469 26.93359375 32.05273438 C27.83952455 36.43139988 28.14031146 40.50418704 28 45 C27.01 45 26.02 45 25 45 C24.85304688 43.75605469 24.70609375 42.51210937 24.5546875 41.23046875 C22.7846829 27.60335132 19.44207743 16.60335635 9 7 C6.6281178 5.26466126 4.22821809 3.66403346 1.72265625 2.12890625 C1.15417969 1.75636719 0.58570313 1.38382813 0 1 C0 0.67 0 0.34 0 0 Z " fill="#A6A6A6" transform="translate(47,157)"/>
<path d="M0 0 C0.53367188 0.32613281 1.06734375 0.65226563 1.6171875 0.98828125 C5.73179116 3.40151765 9.32411001 5.1761006 14 6.1875 C20.60766879 8.01558766 23.88785639 12.79366861 28 18 C28.83402344 19.0003125 29.66804688 20.000625 30.52734375 21.03125 C36.75296443 28.50592885 36.75296443 28.50592885 38 31 C33.71239355 29.59132499 31.08082102 27.51792965 27.8125 24.4375 C24.65811063 21.35814202 24.65811063 21.35814202 21 19 C22.485 25.435 22.485 25.435 24 32 C21 32 21 32 19.52734375 30.77734375 C0 8.17936118 0 8.17936118 0 0 Z " fill="#E28E53" transform="translate(39,255)"/>
<path d="M0 0 C3.38125527 1.47643047 5.69867944 3.41612432 8.375 5.9375 C11.75324615 9.02126088 14.86010272 11.02862034 19 13 C22.70363506 16.4390897 23.13195952 21.22067126 24 26 C23.360625 26.268125 22.72125 26.53625 22.0625 26.8125 C19.66868314 27.88667752 19.66868314 27.88667752 19 31 C11.50480455 25.97597253 2.61944536 19.42655034 0.4375 10.25 C-0.04178616 6.83432776 -0.17681284 3.44785047 0 0 Z " fill="#EFB03B" transform="translate(60,274)"/>
<path d="M0 0 C8.47163652 2.56091018 17.40847851 2.89413141 26.1875 3.625 C26.1875 6.595 26.1875 9.565 26.1875 12.625 C14.31383186 13.70624465 6.1860598 10.30707419 -4.32421875 5.46875 C-7.44807791 4.40948222 -10.33690582 4.19927844 -13.625 4 C-14.78644531 3.92523438 -15.94789063 3.85046875 -17.14453125 3.7734375 C-18.02496094 3.72445312 -18.90539062 3.67546875 -19.8125 3.625 C-13.84091733 -2.54563542 -7.98661044 -2.49424111 0 0 Z " fill="#B28A66" transform="translate(193.8125,208.375)"/>
<path d="M0 0 C1.54772095 -0.00773438 1.54772095 -0.00773438 3.12670898 -0.015625 C10.34943222 0.04865351 17.22675322 0.93386099 24.3125 2.3125 C24.3125 2.9725 24.3125 3.6325 24.3125 4.3125 C25.364375 4.395 26.41625 4.4775 27.5 4.5625 C31.58297209 5.36570762 33.3247727 6.50584709 36.3125 9.3125 C35.9825 10.3025 35.6525 11.2925 35.3125 12.3125 C32.984375 13.4453125 32.984375 13.4453125 30.0625 14.4375 C29.10859375 14.77007812 28.1546875 15.10265625 27.171875 15.4453125 C19.83128681 17.67155646 12.74646711 17.49621011 5.125 17.5 C3.84818359 17.51224609 2.57136719 17.52449219 1.25585938 17.53710938 C-17.18999678 17.56556057 -17.18999678 17.56556057 -24.25 12.9375 C-24.89066406 12.53789062 -25.53132812 12.13828125 -26.19140625 11.7265625 C-28.05283653 9.96719498 -28.40939577 8.83983316 -28.6875 6.3125 C-28.3575 5.3225 -28.0275 4.3325 -27.6875 3.3125 C-18.42755416 0.78295382 -9.58622004 0.01142662 0 0 Z M-26.6875 7.3125 C-25.800625 8.09625 -24.91375 8.88 -24 9.6875 C-23.50113281 10.12835938 -23.00226563 10.56921875 -22.48828125 11.0234375 C-17.64196992 14.49259746 -12.80605099 14.61990755 -7.01953125 14.61328125 C-6.18467697 14.61756638 -5.34982269 14.6218515 -4.4896698 14.62626648 C-2.72546289 14.63199686 -0.96123235 14.63251957 0.80297852 14.62817383 C3.47389174 14.62503072 6.14367801 14.64842975 8.81445312 14.67382812 C21.33754175 14.73793287 21.33754175 14.73793287 33.3125 11.3125 C32.5567596 9.31562397 32.5567596 9.31562397 31.3125 7.3125 C28.65180308 6.38228964 26.235394 5.70228262 23.5 5.125 C22.78779297 4.96064453 22.07558594 4.79628906 21.34179688 4.62695312 C19.94833681 4.30855846 18.55238356 4.0008617 17.15405273 3.70458984 C15.73702521 3.40288678 14.32740751 3.06622688 12.921875 2.71484375 C2.56340706 1.11765483 -18.75574954 -0.61925046 -26.6875 7.3125 Z " fill="#951E28" transform="translate(201.6875,253.6875)"/>
<path d="M0 0 C0.66 0 1.32 0 2 0 C2.48910073 4.515776 2.84941922 9.03311308 3.1875 13.5625 C3.32736328 14.83931641 3.46722656 16.11613281 3.61132812 17.43164062 C3.85829033 21.23485863 3.92095486 24.29636898 3 28 C-1.43920368 32.63982427 -7.11436107 34.71498724 -13 37 C-12.60241983 29.9643172 -11.27892681 23.9394483 -8.75 17.375 C-8.46253906 16.5809375 -8.17507812 15.786875 -7.87890625 14.96875 C-5.89270973 9.67800818 -3.59692295 4.41495733 0 0 Z " fill="#E7456A" transform="translate(38,114)"/>
<path d="M0 0 C6.0258252 2.11718183 6.0258252 2.11718183 8 5 C8.93571697 18.36447927 2.66225285 30.36523386 -3 42 C-3.66 42 -4.32 42 -5 42 C-5.77036205 27.32888281 -3.60394699 14.21066968 0 0 Z " fill="#10FA76" transform="translate(318,208)"/>
<path d="M0 0 C1.09699219 -0.00257812 2.19398438 -0.00515625 3.32421875 -0.0078125 C9.08823897 0.06205441 13.38153777 0.2997521 18.25 3.5 C17.92 5.15 17.59 6.8 17.25 8.5 C16.43321777 8.48952637 15.61643555 8.47905273 14.77490234 8.46826172 C11.05829978 8.42657329 7.34174654 8.40063273 3.625 8.375 C2.33980469 8.35824219 1.05460937 8.34148437 -0.26953125 8.32421875 C-1.51347656 8.31777344 -2.75742188 8.31132813 -4.0390625 8.3046875 C-5.18068848 8.29421387 -6.32231445 8.28374023 -7.49853516 8.27294922 C-10.89459388 8.51009703 -13.56175789 9.35002199 -16.75 10.5 C-19.625 10.625 -19.625 10.625 -21.75 10.5 C-22.08 8.85 -22.41 7.2 -22.75 5.5 C-15.1054578 0.76991269 -8.8988151 -0.23334199 0 0 Z " fill="#1B0E09" transform="translate(158.75,105.5)"/>
<path d="M0 0 C1.134375 0.020625 2.26875 0.04125 3.4375 0.0625 C3.47713867 0.62122803 3.51677734 1.17995605 3.55761719 1.75561523 C3.75063224 4.33865781 3.9689255 6.91899943 4.1875 9.5 C4.249375 10.37849609 4.31125 11.25699219 4.375 12.16210938 C4.86902206 17.74044176 6.02861737 22.12097696 8.58203125 27.1171875 C9.76547202 29.80829939 9.73400669 32.17155979 9.4375 35.0625 C5.33864782 35.53911072 3.87819635 35.4073928 0.5625 32.8125 C-1.5625 30.0625 -1.5625 30.0625 -1.5625 26.0625 C-1.8489425 21.91662176 -2.20603928 18.04800904 -3.625 14.125 C-4.94699323 9.80648877 -4.92601283 5.55146071 -4.5625 1.0625 C-3.5625 0.0625 -3.5625 0.0625 0 0 Z " fill="#EAE8E7" transform="translate(230.5625,136.9375)"/>
<path d="M0 0 C1.50433594 0.01353516 1.50433594 0.01353516 3.0390625 0.02734375 C3.80992187 0.03894531 4.58078125 0.05054688 5.375 0.0625 C5.705 1.3825 6.035 2.7025 6.375 4.0625 C5.46621094 4.26552734 5.46621094 4.26552734 4.5390625 4.47265625 C-1.75866988 6.09068903 -6.17053771 8.61887304 -11.37109375 12.4765625 C-15.62403371 15.46909911 -19.49157725 16.36446604 -24.625 16.0625 C-24.625 13.0925 -24.625 10.1225 -24.625 7.0625 C-23.42101562 6.64097656 -22.21703125 6.21945313 -20.9765625 5.78515625 C-19.40101743 5.23183983 -17.82549792 4.67845064 -16.25 4.125 C-15.05890625 3.70831055 -15.05890625 3.70831055 -13.84375 3.28320312 C-13.08320313 3.01572266 -12.32265625 2.74824219 -11.5390625 2.47265625 C-10.8373291 2.22652588 -10.1355957 1.98039551 -9.41259766 1.72680664 C-5.91880856 0.42844552 -3.83389193 -0.04458014 0 0 Z " fill="#B18C69" transform="translate(254.625,203.9375)"/>
<path d="M0 0 C0.80824219 -0.00257812 1.61648437 -0.00515625 2.44921875 -0.0078125 C3.70412109 0.00378906 3.70412109 0.00378906 4.984375 0.015625 C5.80550781 0.00789063 6.62664062 0.00015625 7.47265625 -0.0078125 C13.48638204 0.01124844 19.26556662 0.53122081 24.734375 3.265625 C24.777096 4.93174405 24.77501332 6.59945385 24.734375 8.265625 C24.404375 8.595625 24.074375 8.925625 23.734375 9.265625 C22.10583965 9.20141751 20.47988288 9.0644186 18.859375 8.890625 C17.97507813 8.80039063 17.09078125 8.71015625 16.1796875 8.6171875 C13.734375 8.265625 13.734375 8.265625 10.734375 7.265625 C4.68615841 6.85269455 -1.27128748 7.50443928 -7.265625 8.265625 C-7.595625 6.285625 -7.925625 4.305625 -8.265625 2.265625 C-5.38430274 0.63098189 -3.3060281 0.01029915 0 0 Z " fill="#1B0F0A" transform="translate(228.265625,104.734375)"/>
<path d="M0 0 C2.99684283 2.99684283 3.81318746 4.5567784 5.1875 8.4375 C5.53167969 9.38496094 5.87585938 10.33242187 6.23046875 11.30859375 C7 14 7 14 7 18 C0.375 18.125 0.375 18.125 -3 17 C-5.48351814 22.55139349 -4.85330338 27.16524985 -4 33 C-6.86575718 30.13424282 -7.51459635 26.67103107 -8.625 22.875 C-8.96917969 21.77285156 -8.96917969 21.77285156 -9.3203125 20.6484375 C-10.81351124 15.60000367 -11.22667305 11.26120086 -11 6 C-8.36 7.65 -5.72 9.3 -3 11 C-2.01 7.37 -1.02 3.74 0 0 Z " fill="#496DD1" transform="translate(319,122)"/>
<path d="M0 0 C4.34796378 4.97600299 4.5168049 8.94089713 4.25 15.375 C4.23195313 16.20644531 4.21390625 17.03789062 4.1953125 17.89453125 C4.14851573 19.93019074 4.07678298 21.9652509 4 24 C3.484375 23.505 2.96875 23.01 2.4375 22.5 C-0.80680017 20.50350759 -3.26217334 20.78435615 -7 21 C-7.13559675 18.43571485 -7.23433188 15.87864784 -7.3125 13.3125 C-7.35439453 12.59126953 -7.39628906 11.87003906 -7.43945312 11.12695312 C-7.53624652 6.88740251 -7.35052306 5.44201358 -4.60546875 1.98046875 C-2 0 -2 0 0 0 Z " fill="#12D8AD" transform="translate(326,157)"/>
<path d="M0 0 C1.9375 0.6875 1.9375 0.6875 2.9375 2.6875 C1.81422229 4.14716034 0.68881706 5.60518364 -0.4375 7.0625 C-1.06398437 7.87460937 -1.69046875 8.68671875 -2.3359375 9.5234375 C-4.0625 11.6875 -4.0625 11.6875 -6.0625 13.6875 C-11.48199467 13.4790579 -14.86855974 12.1011723 -19.0625 8.6875 C-20.4375 6.4375 -20.4375 6.4375 -21.0625 4.6875 C-18.97702662 2.60202662 -14.99433827 2.68845621 -12.125 2.1875 C-8.27058101 1.51105114 -3.66955753 -0.55599357 0 0 Z " fill="#AF8661" transform="translate(238.0625,278.3125)"/>
<path d="M0 0 C2.88788389 0.96262796 3.88753108 1.81723801 5.5 4.4375 C6.25900721 9.84542636 4.12077562 14.07489298 2 19 C-0.91517292 17.92598892 -2.77810176 17.22189824 -5 15 C-5.99 15.495 -5.99 15.495 -7 16 C-8.85776765 12.86501708 -9.20140476 10.62528568 -9 7 C-8.071875 6.5875 -7.14375 6.175 -6.1875 5.75 C-3.11945319 4.06558214 -1.80959535 2.91545917 0 0 Z " fill="#4C4EDE" transform="translate(314,114)"/>
<path d="M0 0 C0.66 0 1.32 0 2 0 C2.48910073 4.515776 2.84941922 9.03311308 3.1875 13.5625 C3.32736328 14.83931641 3.46722656 16.11613281 3.61132812 17.43164062 C3.85829033 21.23485863 3.92095486 24.29636898 3 28 C-1.43920368 32.63982427 -7.11436107 34.71498724 -13 37 C-12.60241983 29.9643172 -11.27892681 23.9394483 -8.75 17.375 C-8.46253906 16.5809375 -8.17507812 15.786875 -7.87890625 14.96875 C-5.89270973 9.67800818 -3.59692295 4.41495733 0 0 Z M-2 8 C-5.789659 12.68720981 -7.63205726 16.22913783 -8.640625 22.1796875 C-9 24 -9 24 -10 25 C-10.04092937 27.33297433 -10.04241723 29.66705225 -10 32 C-5.52456035 30.7510401 -2.0939583 29.54895217 1 26 C1.52984875 22.94734869 1.30105281 20.07073867 1 17 C0.94328125 16.23171875 0.8865625 15.4634375 0.828125 14.671875 C0.65020563 12.76950632 0.33587799 10.88091676 0 9 C-0.66 8.67 -1.32 8.34 -2 8 Z " fill="#843C4C" transform="translate(38,114)"/>
<path d="M0 0 C0.33 0.66 0.66 1.32 1 2 C-0.11117187 1.93039063 -1.22234375 1.86078125 -2.3671875 1.7890625 C-11.60179963 1.3872868 -18.73698276 1.46805233 -26 8 C-26.99 9.485 -26.99 9.485 -28 11 C-24.37 11 -20.74 11 -17 11 C-17 12.32 -17 13.64 -17 15 C-16.44570313 14.76796875 -15.89140625 14.5359375 -15.3203125 14.296875 C-11.93261424 13.86343212 -10.58028674 15.26343123 -7.875 17.25 C-7.00617187 17.87390625 -6.13734375 18.4978125 -5.2421875 19.140625 C-3 21 -3 21 -1 24 C-1.99 24.33 -2.98 24.66 -4 25 C-5.796875 23.6015625 -5.796875 23.6015625 -7.75 21.625 C-11.57434901 18.1054904 -13.78117017 17.52188298 -19 17 C-23.06938613 15.48997622 -27.03508956 13.76435259 -31 12 C-25.45902943 -1.37060289 -12.15562402 -0.9628217 0 0 Z " fill="#363837" transform="translate(61,144)"/>
<path d="M0 0 C0.43570313 0.433125 0.87140625 0.86625 1.3203125 1.3125 C5.2353015 5.00820043 5.2353015 5.00820043 10.3125 6.5 C13.14129222 6.23593611 13.14129222 6.23593611 15 4 C15.99 4 16.98 4 18 4 C16.25 7.875 16.25 7.875 14 9 C7.28011397 8.84087702 0.59325698 7.67058243 -6.03125 6.609375 C-11.280274 5.78500905 -16.54743159 5.0880087 -21.8125 4.375 C-22.81063721 4.23980957 -23.80877441 4.10461914 -24.8371582 3.96533203 C-27.22465561 3.64268041 -29.61226011 3.32085154 -32 3 C-32 2.67 -32 2.34 -32 2 C-27.545 1.505 -27.545 1.505 -23 1 C-23 1.66 -23 2.32 -23 3 C-19.35352047 2.69475674 -15.70796652 2.37959487 -12.0625 2.0625 C-11.02158203 1.97548828 -9.98066406 1.88847656 -8.90820312 1.79882812 C-7.91884766 1.71181641 -6.92949219 1.62480469 -5.91015625 1.53515625 C-4.99371338 1.456604 -4.07727051 1.37805176 -3.13305664 1.29711914 C-1.02036174 1.22129249 -1.02036174 1.22129249 0 0 Z " fill="#F1DFC5" transform="translate(155,188)"/>
<path d="M0 0 C9.41909646 -1.3186735 17.28529414 3.83959278 24.84375 8.90625 C33.01705025 15.46507119 39.38002866 25.98182239 40.71484375 36.49609375 C40.80894531 37.65238281 40.90304688 38.80867188 41 40 C40.67 39.01 40.34 38.02 40 37 C39.34 37 38.68 37 38 37 C37.72027344 36.26136719 37.44054687 35.52273437 37.15234375 34.76171875 C31.7392307 21.06358379 25.66380993 11.30607684 12.1640625 4.87890625 C8.20648984 3.27158884 4.11939902 2.11426367 0 1 C0 0.67 0 0.34 0 0 Z " fill="#111111" transform="translate(47,155)"/>
<path d="M0 0 C4.09428377 0.20471419 6.4559722 1.16138503 9.5625 3.6875 C16.19292179 8.97650698 24.4946977 13.15921797 33 14 C33.66 13.67 34.32 13.34 35 13 C38.63 15.64 42.26 18.28 46 21 C45.67 21.66 45.34 22.32 45 23 C34.76995564 19.86919448 25.25393095 15.86428948 15.75 10.9375 C14.26874634 10.17808105 14.26874634 10.17808105 12.75756836 9.40332031 C7.76027332 6.75817439 3.69658962 4.3047892 0 0 Z " fill="#CCDA71" transform="translate(88,311)"/>
<path d="M0 0 C0.66 0.33 1.32 0.66 2 1 C3.70871395 6.90344716 3.18599313 13.24013384 3.18530273 19.33496094 C3.1874652 21.46570554 3.20557687 23.59591098 3.22460938 25.7265625 C3.25868364 34.30578873 2.60824735 42.55146208 1 51 C0.505 49.515 0.505 49.515 0 48 C-0.66 48 -1.32 48 -2 48 C-1.84152588 47.04407959 -1.68305176 46.08815918 -1.51977539 45.10327148 C-0.86843247 40.52435733 -0.77328018 35.9665207 -0.68359375 31.34765625 C-0.66281265 30.44752304 -0.64203156 29.54738983 -0.62062073 28.61997986 C-0.55566163 25.76755813 -0.49649172 22.91505075 -0.4375 20.0625 C-0.39426367 18.11913206 -0.35064781 16.17577252 -0.30664062 14.23242188 C-0.20003585 9.48836721 -0.09862005 4.74422709 0 0 Z " fill="#39C783" transform="translate(330,161)"/>
<path d="M0 0 C3.3 0.33 6.6 0.66 10 1 C11.25664978 3.90600261 12 5.79604584 12 9 C10.58603098 9.50757862 9.16868271 10.00574925 7.75 10.5 C6.96109375 10.7784375 6.1721875 11.056875 5.359375 11.34375 C3 12 3 12 -1 12 C-2.1875 8.8125 -2.1875 8.8125 -3 5 C-1.625 2.0625 -1.625 2.0625 0 0 Z " fill="#3290CA" transform="translate(316,139)"/>
<path d="M0 0 C-0.33 0.66 -0.66 1.32 -1 2 C-0.01 2.33 0.98 2.66 2 3 C-6.38594007 5.19355023 -14.4987782 5.23625088 -23.125 5.125 C-24.47655581 5.11494282 -25.82811893 5.10582184 -27.1796875 5.09765625 C-30.45331558 5.07427319 -33.72655994 5.04150061 -37 5 C-37 4.34 -37 3.68 -37 3 C-34.36 2.67 -31.72 2.34 -29 2 C-29 1.67 -29 1.34 -29 1 C-28.42032471 0.97494385 -27.84064941 0.9498877 -27.2434082 0.92407227 C-24.59957893 0.80753766 -21.95605591 0.68507318 -19.3125 0.5625 C-18.40048828 0.52318359 -17.48847656 0.48386719 -16.54882812 0.44335938 C-15.66259766 0.40146484 -14.77636719 0.35957031 -13.86328125 0.31640625 C-12.64572144 0.26141968 -12.64572144 0.26141968 -11.40356445 0.20532227 C-8.94292781 0.0425012 -8.94292781 0.0425012 -6.34057617 -0.54711914 C-3.84378483 -1.03022626 -2.38681571 -0.79560524 0 0 Z " fill="#E0CBB5" transform="translate(217,331)"/>
<path d="M0 0 C3.37223654 3.37223654 3.13962035 6.82695332 3.18945312 11.48461914 C3.18880859 12.19094482 3.18816406 12.89727051 3.1875 13.625 C3.18814453 14.35904053 3.18878906 15.09308105 3.18945312 15.84936523 C3.11088041 24.30039636 2.09644091 32.62984842 1 41 C0.67 41 0.34 41 0 41 C-1.26128943 32.26961496 -0.91620728 23.65016526 -0.5625 14.875 C-0.50914459 13.42710609 -0.4564057 11.97918931 -0.40429688 10.53125 C-0.27662962 7.0205416 -0.14065099 3.51021504 0 0 Z " fill="#3FE08D" transform="translate(317,172)"/>
<path d="M0 0 C0 0.66 0 1.32 0 2 C0.99 2.33 1.98 2.66 3 3 C-2.66221678 6.61752739 -8.40232633 6.69040043 -15 7 C-14.67 6.01 -14.34 5.02 -14 4 C-12.35 3.67 -10.7 3.34 -9 3 C-12.3 2.67 -15.6 2.34 -19 2 C-19 1.67 -19 1.34 -19 1 C-12.65333314 0.41639845 -6.37625222 -0.14491482 0 0 Z " fill="#EAD1B6" transform="translate(231,326)"/>
<path d="M0 0 C0.66 0 1.32 0 2 0 C2 8.25 2 16.5 2 25 C1.67 25 1.34 25 1 25 C0.34 19.72 -0.32 14.44 -1 9 C-1.99 9.99 -2.98 10.98 -4 12 C-5 13 -6 14 -7 15 C-5.35544513 9.39356295 -3.66043672 4.60506555 0 0 Z " fill="#934253" transform="translate(38,114)"/>
<path d="M0 0 C0.99 0 1.98 0 3 0 C1.6510689 4.51451314 -0.16618294 8.32277281 -2.5625 12.375 C-3.18253906 13.43460937 -3.80257813 14.49421875 -4.44140625 15.5859375 C-4.95574219 16.38257813 -5.47007812 17.17921875 -6 18 C-6.33 18 -6.66 18 -7 18 C-6.67 13.05 -6.34 8.1 -6 3 C-4.35 2.34 -2.7 1.68 -1 1 C-0.67 0.67 -0.34 0.34 0 0 Z " fill="#3ECF83" transform="translate(316,248)"/>
<path d="M0 0 C1.8046875 0.19921875 1.8046875 0.19921875 4 1 C5.6328125 3.14453125 5.6328125 3.14453125 7.125 5.8125 C7.87136719 7.12154297 7.87136719 7.12154297 8.6328125 8.45703125 C9.08398438 9.29621094 9.53515625 10.13539063 10 11 C10.38929687 11.70511719 10.77859375 12.41023437 11.1796875 13.13671875 C12 15 12 15 12 18 C11.01 18.33 10.02 18.66 9 19 C8.76925781 18.35933594 8.53851563 17.71867187 8.30078125 17.05859375 C6.14299581 11.3357715 3.66005973 6.88007964 0 2 C0 1.34 0 0.68 0 0 Z " fill="#0D0D0D" transform="translate(58,168)"/>
<path d="M0 0 C5.25336851 0.26266843 7.84008078 2.21319846 11.76953125 5.375 C14.96171281 7.70065241 18.4149823 9.28167128 21.99609375 10.921875 C24 12 24 12 25 14 C20.34842205 13.39171673 16.57575332 11.44525724 12.5 9.25 C11.84902344 8.91484375 11.19804688 8.5796875 10.52734375 8.234375 C6.29837063 5.97892267 3.22545487 3.54800036 0 0 Z " fill="#D5E375" transform="translate(88,311)"/>
<path d="M0 0 C1.3303125 1.1446875 1.3303125 1.1446875 2.6875 2.3125 C4.7073335 4.01643537 6.47822684 5.26568158 8.8125 6.5625 C11 8 11 8 11.8125 10.1875 C11.874375 10.785625 11.93625 11.38375 12 12 C5.61479646 11.84036991 2.33991635 8.21875117 -2 4 C-1.34 2.68 -0.68 1.36 0 0 Z " fill="#1B0604" transform="translate(172,261)"/>
<path d="M0 0 C4.12494151 -0.05784708 8.24977944 -0.09354407 12.375 -0.125 C13.550625 -0.14175781 14.72625 -0.15851563 15.9375 -0.17578125 C17.61972656 -0.18544922 17.61972656 -0.18544922 19.3359375 -0.1953125 C20.37282715 -0.20578613 21.4097168 -0.21625977 22.47802734 -0.22705078 C25 0 25 0 27 2 C23.72373625 2.9821994 20.77211881 3.11580914 17.359375 3.09765625 C16.28945312 3.09443359 15.21953125 3.09121094 14.1171875 3.08789062 C13.00601563 3.07951172 11.89484375 3.07113281 10.75 3.0625 C9.06003906 3.05573242 9.06003906 3.05573242 7.3359375 3.04882812 C4.55723783 3.03705397 1.77864591 3.0206084 -1 3 C-0.67 2.01 -0.34 1.02 0 0 Z " fill="#821B23" transform="translate(189,254)"/>
<path d="M0 0 C-0.99 0.495 -0.99 0.495 -2 1 C-2.33 1.99 -2.66 2.98 -3 4 C-4.46224799 3.57576756 -5.91973412 3.13509755 -7.375 2.6875 C-8.18710937 2.44386719 -8.99921875 2.20023437 -9.8359375 1.94921875 C-12 1 -12 1 -14 -2 C-8.77666097 -5.36989615 -4.942391 -2.6057922 0 0 Z " fill="#220706" transform="translate(56,258)"/>
<path d="M0 0 C-0.33 0.66 -0.66 1.32 -1 2 C-10.53564444 4.29195015 -20.26290432 4.245473 -30 4 C-30 3.67 -30 3.34 -30 3 C-28.82244141 2.92652344 -28.82244141 2.92652344 -27.62109375 2.8515625 C-20.94653687 2.38758057 -20.94653687 2.38758057 -14.4375 0.9375 C-9.61452208 -0.37785761 -4.96805899 -0.16170897 0 0 Z " fill="#B98F6D" transform="translate(223,328)"/>
<path d="M0 0 C0.99 0 1.98 0 3 0 C4.38529821 5.45461169 5.2396943 10.36718401 5 16 C4.01 16 3.02 16 2 16 C1.34 10.72 0.68 5.44 0 0 Z " fill="#949494" transform="translate(70,186)"/>
<path d="M0 0 C7.89918285 -0.91144418 13.20536627 2.19500511 20 6 C19.34 6.66 18.68 7.32 18 8 C16.88625 7.401875 15.7725 6.80375 14.625 6.1875 C9.92316864 3.81973188 5.06838212 2.37095582 0 1 C0 0.67 0 0.34 0 0 Z " fill="#161616" transform="translate(47,155)"/>
<path d="M0 0 C3.65646331 3.65646331 4.79304546 9.36449726 5.19140625 14.4375 C5.18809328 16.2927611 5.10291153 18.14759239 5 20 C1.81480606 16.51954932 1.0652395 12.82206166 0.25 8.3125 C0.11207031 7.62349609 -0.02585937 6.93449219 -0.16796875 6.22460938 C-0.49840719 4.4923625 -0.75562099 2.7464672 -1 1 C-0.67 0.67 -0.34 0.34 0 0 Z " fill="#5C5C5C" transform="translate(65,182)"/>
<path d="M0 0 C4.76180836 7.14271253 6.63788688 14.49034168 7 23 C4.08659167 20.08659167 3.47940218 16.49040763 2.375 12.625 C2.14554687 11.85671875 1.91609375 11.0884375 1.6796875 10.296875 C0.61022215 6.61740494 0 3.89824752 0 0 Z " fill="#27496E" transform="translate(308,132)"/>
<path d="M0 0 C0.66 0 1.32 0 2 0 C3.27567351 6.76106962 2.48725585 12.31349436 1 19 C0.67 19 0.34 19 0 19 C0 15.37 0 11.74 0 8 C-0.33 8 -0.66 8 -1 8 C-1.125 2.25 -1.125 2.25 0 0 Z " fill="#EED7B7" transform="translate(292,217)"/>
<path d="M0 0 C1.65 0.33 3.3 0.66 5 1 C2.83735988 4.98381075 0.28788824 7.88983545 -3 11 C-3.66 10.67 -4.32 10.34 -5 10 C-3.35 6.7 -1.7 3.4 0 0 Z " fill="#9A9A9A" transform="translate(50,230)"/>
<path d="M0 0 C0.24915939 1.76813112 0.47366632 3.53974982 0.6875 5.3125 C0.81511719 6.29863281 0.94273437 7.28476563 1.07421875 8.30078125 C1 11 1 11 -0.48046875 12.85546875 C-0.98191406 13.23316406 -1.48335937 13.61085937 -2 14 C-2.8723412 11.00519083 -3.10829766 8.36424089 -3.0625 5.25 C-3.05347656 4.45078125 -3.04445312 3.6515625 -3.03515625 2.828125 C-3.02355469 2.22484375 -3.01195312 1.6215625 -3 1 C-1 0 -1 0 0 0 Z " fill="#F6E5CA" transform="translate(206,155)"/>
<path d="M0 0 C1.81552978 0.61614355 3.6273653 1.24318228 5.4375 1.875 C6.95150391 2.39707031 6.95150391 2.39707031 8.49609375 2.9296875 C11 4 11 4 12 6 C6.27601207 5.25339288 0.65146223 4.17122859 -5 3 C-4.360625 2.690625 -3.72125 2.38125 -3.0625 2.0625 C-1.06389179 1.1654837 -1.06389179 1.1654837 0 0 Z " fill="#5C5C5C" transform="translate(221,14)"/>
<path d="M0 0 C3.3 0.33 6.6 0.66 10 1 C10 1.66 10 2.32 10 3 C10.99 3.33 11.98 3.66 13 4 C9.45332822 5.25127906 7.27746562 4.72285053 3.75 3.5625 C2.85796875 3.27503906 1.9659375 2.98757813 1.046875 2.69140625 C0.37140625 2.46324219 -0.3040625 2.23507812 -1 2 C-0.67 1.34 -0.34 0.68 0 0 Z " fill="#9C1E2A" transform="translate(216,255)"/>
<path d="M0 0 C0.33 0 0.66 0 1 0 C1.10807131 1.93627769 1.1856225 3.87427756 1.25 5.8125 C1.29640625 6.89144531 1.3428125 7.97039062 1.390625 9.08203125 C1 12 1 12 -1.015625 13.88671875 C-1.67046875 14.25410156 -2.3253125 14.62148437 -3 15 C-2.5547115 9.72684667 -1.91626837 4.98229776 0 0 Z " fill="#3BC77E" transform="translate(316,205)"/>
<path d="M0 0 C2.02350324 3.03525486 2.32124018 4.19426202 2.625 7.6875 C2.69976562 8.49574219 2.77453125 9.30398437 2.8515625 10.13671875 C2.92503906 11.05904297 2.92503906 11.05904297 3 12 C2.34 12 1.68 12 1 12 C-2 5.375 -2 5.375 -2 2 C-1.34 2 -0.68 2 0 2 C0 1.34 0 0.68 0 0 Z " fill="#979797" transform="translate(83,186)"/>
<path d="M0 0 C2.32845493 3.49268239 2.16704629 4.90736594 2 9 C1.7018576 12.7763932 1.7018576 12.7763932 3 15 C0.5625 14.25 0.5625 14.25 -2 13 C-2.8125 10.875 -2.8125 10.875 -3 9 C-2.01 8.67 -1.02 8.34 0 8 C0 5.36 0 2.72 0 0 Z " fill="#767270" transform="translate(228,154)"/>
<path d="M0 0 C0.33 0.99 0.66 1.98 1 3 C1.99 3.33 2.98 3.66 4 4 C3.67 5.32 3.34 6.64 3 8 C0.03 6.02 -2.94 4.04 -6 2 C-3 0 -3 0 0 0 Z " fill="#EBD4B4" transform="translate(237,272)"/>
<path d="M0 0 C1.65 0 3.3 0 5 0 C3.35 3.3 1.7 6.6 0 10 C-0.33 10 -0.66 10 -1 10 C-0.67 6.7 -0.34 3.4 0 0 Z " fill="#8AD8AA" transform="translate(310,256)"/>
<path d="M0 0 C1.01382963 3.6208201 1.49897691 7.27811418 2 11 C0.68 11 -0.64 11 -2 11 C-2 12.65 -2 14.3 -2 16 C-2.66 16.33 -3.32 16.66 -4 17 C-3.52294177 14.72872279 -3.04328294 12.45799168 -2.5625 10.1875 C-2.29566406 8.92292969 -2.02882813 7.65835938 -1.75390625 6.35546875 C-1 3 -1 3 0 0 Z " fill="#957D68" transform="translate(111,222)"/>
<path d="M0 0 C0.99 0 1.98 0 3 0 C1.25 3.875 1.25 3.875 -1 5 C-6.42307692 5.46153846 -6.42307692 5.46153846 -8.875 3.5 C-9.24625 3.005 -9.6175 2.51 -10 2 C-8.72125 2.04125 -7.4425 2.0825 -6.125 2.125 C-3.98128508 2.24212873 -3.98128508 2.24212873 -2 2 C-1.34 1.34 -0.68 0.68 0 0 Z " fill="#F5E5CA" transform="translate(170,192)"/>
<path d="M0 0 C0.66 0.33 1.32 0.66 2 1 C0.68 3.97 -0.64 6.94 -2 10 C-2.99 9.34 -3.98 8.68 -5 8 C-2.25 2.25 -2.25 2.25 0 0 Z " fill="#231C18" transform="translate(209,163)"/>
<path d="M0 0 C0.78375 0.144375 1.5675 0.28875 2.375 0.4375 C3.035 1.4275 3.695 2.4175 4.375 3.4375 C0.745 3.7675 -2.885 4.0975 -6.625 4.4375 C-4.47711998 1.89186442 -3.34583605 0.55763934 0 0 Z " fill="#AC835F" transform="translate(180.625,207.5625)"/>
<path d="M0 0 C0.33 0.99 0.66 1.98 1 3 C-3.455 3.495 -3.455 3.495 -8 4 C-7.67 3.01 -7.34 2.02 -7 1 C-2.25 0 -2.25 0 0 0 Z " fill="#F8E0C8" transform="translate(224,329)"/>
<path d="M0 0 C3.125 0.3125 3.125 0.3125 5 2.3125 C5.556875 3.3025 5.556875 3.3025 6.125 4.3125 C-1.625 3.5625 -1.625 3.5625 -3.875 1.3125 C-2.875 0.3125 -2.875 0.3125 0 0 Z " fill="#2E2E2E" transform="translate(92.875,81.6875)"/>
<path d="M0 0 C2.47717167 3.71575751 2.30345742 5.59986738 2 10 C1 12.9375 1 12.9375 0 15 C-1.67479795 9.97560615 -1.23615622 5.09914442 0 0 Z " fill="#F5E0BE" transform="translate(293,256)"/>
<path d="M0 0 C0.66 0.66 1.32 1.32 2 2 C1.625 5.125 1.625 5.125 1 8 C0.01 8 -0.98 8 -2 8 C-1.34 5.36 -0.68 2.72 0 0 Z " fill="#5A5A5A" transform="translate(66,218)"/>
<path d="M0 0 C-2.64 1.65 -5.28 3.3 -8 5 C-8 3.68 -8 2.36 -8 1 C-3.375 -1.125 -3.375 -1.125 0 0 Z " fill="#8F4152" transform="translate(36,145)"/>
<path d="M0 0 C1.134375 0.020625 2.26875 0.04125 3.4375 0.0625 C3.4375 0.7225 3.4375 1.3825 3.4375 2.0625 C0.5625 2.6875 0.5625 2.6875 -2.5625 3.0625 C-3.2225 2.4025 -3.8825 1.7425 -4.5625 1.0625 C-3.5625 0.0625 -3.5625 0.0625 0 0 Z " fill="#CEBFA0" transform="translate(272.5625,97.9375)"/>
<path d="M0 0 C3.465 1.98 3.465 1.98 7 4 C5.02 4.99 5.02 4.99 3 6 C0 2.25 0 2.25 0 0 Z " fill="#D5864F" transform="translate(39,255)"/>
</svg>
