<?xml version="1.0" encoding="UTF-8"?>
<!DOCTYPE svg PUBLIC "-//W3C//DTD SVG 1.1//EN" "http://www.w3.org/Graphics/SVG/1.1/DTD/svg11.dtd">
<svg xmlns="http://www.w3.org/2000/svg" version="1.1" width="524px" height="350px" style="shape-rendering:geometricPrecision; text-rendering:geometricPrecision; image-rendering:optimizeQuality; fill-rule:evenodd; clip-rule:evenodd" xmlns:xlink="http://www.w3.org/1999/xlink">
<g><path style="opacity:0.966" fill="#cb0001" d="M 111.5,-0.5 C 127.5,-0.5 143.5,-0.5 159.5,-0.5C 159.5,9.5 159.5,19.5 159.5,29.5C 143.154,29.5437 126.821,30.0437 110.5,31C 67.3859,37.4448 40.8859,61.9448 31,104.5C 25.9177,146.163 41.0843,177.996 76.5,200C 89.6688,206.792 103.669,210.459 118.5,211C 144.5,211.667 170.5,211.667 196.5,211C 206.54,209.96 212.373,204.46 214,194.5C 214.333,144.167 214.667,93.8333 215,43.5C 217.196,38.4598 220.696,37.2932 225.5,40C 258.297,94.4224 290.464,149.256 322,204.5C 332.152,216.452 342.152,216.452 352,204.5C 352.92,201.899 353.587,199.232 354,196.5C 354.333,144.833 354.667,93.1667 355,41.5C 356.96,37.6241 359.793,36.7908 363.5,39C 366.04,41.2047 368.207,43.7047 370,46.5C 400.601,100.092 431.601,153.426 463,206.5C 469.48,212.583 476.98,214.083 485.5,211C 489.194,208.313 491.694,204.813 493,200.5C 493.5,133.834 493.667,67.1675 493.5,0.5C 503.5,0.5 513.5,0.5 523.5,0.5C 523.5,69.1667 523.5,137.833 523.5,206.5C 515.896,232.232 498.562,244.066 471.5,242C 464.51,240.338 458.176,237.338 452.5,233C 446.967,227.802 441.8,222.302 437,216.5C 419.268,187.093 401.934,157.426 385,127.5C 384.667,152.167 384.333,176.833 384,201.5C 382.194,219.98 372.694,232.813 355.5,240C 339.949,244.888 325.615,242.555 312.5,233C 307.3,228.135 302.467,222.968 298,217.5C 279.935,187.76 262.268,157.76 245,127.5C 244.926,154.195 244.259,180.861 243,207.5C 238.304,226.195 226.471,237.361 207.5,241C 171.466,243.315 135.466,242.982 99.5,240C 42.5295,226.534 9.19612,191.034 -0.5,133.5C -0.5,124.5 -0.5,115.5 -0.5,106.5C 11.4464,44.2196 48.7797,8.55291 111.5,-0.5 Z"/></g>
<g><path style="opacity:0.957" fill="#cb0001" d="M 206.5,-0.5 C 214.5,-0.5 222.5,-0.5 230.5,-0.5C 243.007,4.02996 252.84,12.03 260,23.5C 278.065,53.2397 295.732,83.2397 313,113.5C 313.043,85.7929 313.71,58.1263 315,30.5C 320.017,14.9836 330.184,4.65022 345.5,-0.5C 353.833,-0.5 362.167,-0.5 370.5,-0.5C 381.812,3.96128 390.979,11.2946 398,21.5C 416.756,51.3381 434.756,81.6715 452,112.5C 452.5,74.8348 452.667,37.1681 452.5,-0.5C 462.5,-0.5 472.5,-0.5 482.5,-0.5C 483.663,65.763 483.829,132.096 483,198.5C 480.828,202.738 477.662,203.572 473.5,201C 470.067,197.958 467.234,194.458 465,190.5C 435.333,139.167 405.667,87.8333 376,36.5C 366.843,25.652 357.176,24.9853 347,34.5C 345.438,36.9573 344.438,39.624 344,42.5C 343.667,94.8333 343.333,147.167 343,199.5C 337.307,203.992 332.64,202.992 329,196.5C 298,143.167 267,89.8333 236,36.5C 226.91,25.6294 217.244,24.9627 207,34.5C 206.138,36.087 205.471,37.7536 205,39.5C 204.978,91.8704 204.311,144.204 203,196.5C 201.238,199.268 198.738,200.768 195.5,201C 168.5,201.667 141.5,201.667 114.5,201C 77.1835,196.018 53.0168,175.518 42,139.5C 34.735,97.8673 49.5683,67.034 86.5,47C 94.1946,43.7683 102.195,41.7683 110.5,41C 126.83,40.5001 143.163,40.3334 159.5,40.5C 159.5,50.5 159.5,60.5 159.5,70.5C 143.497,70.3334 127.497,70.5001 111.5,71C 95.0691,74.4218 82.9024,83.5885 75,98.5C 66.0728,122.531 70.9062,143.365 89.5,161C 97.9721,166.602 107.305,169.602 117.5,170C 135.167,170.667 152.833,170.667 170.5,170C 171,169.5 171.5,169 172,168.5C 173.027,123.555 174.027,78.5554 175,33.5C 178.841,15.831 189.341,4.49768 206.5,-0.5 Z"/></g>
<g><path style="opacity:0.921" fill="#cb0001" d="M 354.5,349.5 C 347.167,349.5 339.833,349.5 332.5,349.5C 326.215,347.601 320.715,344.268 316,339.5C 313.294,335.215 312.127,330.548 312.5,325.5C 318.167,325.5 323.833,325.5 329.5,325.5C 331.227,332.312 335.727,335.979 343,336.5C 348.821,336.759 353.154,334.425 356,329.5C 357.176,325.74 356.01,322.907 352.5,321C 342.402,318.642 332.402,315.976 322.5,313C 313.453,306.67 310.62,298.17 314,287.5C 315.689,282.475 318.856,278.641 323.5,276C 336.688,269.728 349.688,270.062 362.5,277C 367.983,281.131 370.983,286.631 371.5,293.5C 365.537,294.496 359.537,294.829 353.5,294.5C 353.528,292.418 352.861,290.584 351.5,289C 345.675,286.077 339.675,285.744 333.5,288C 329.5,292 329.5,296 333.5,300C 342.167,302 350.833,304 359.5,306C 374.081,313.484 377.581,324.651 370,339.5C 365.692,344.335 360.525,347.669 354.5,349.5 Z"/></g>
<g><path style="opacity:0.912" fill="#cb0000" d="M 85.5,273.5 C 98.8375,273.333 112.171,273.5 125.5,274C 137.195,275.028 143.528,281.362 144.5,293C 143.801,299.194 141.135,304.361 136.5,308.5C 147.488,315.64 150.321,325.307 145,337.5C 142.778,341.388 139.612,344.221 135.5,346C 127.278,347.756 118.945,348.589 110.5,348.5C 102.166,348.115 93.8324,347.782 85.5,347.5C 85.5,322.833 85.5,298.167 85.5,273.5 Z M 102.5,287.5 C 108.842,287.334 115.175,287.5 121.5,288C 128.168,291.941 128.835,296.607 123.5,302C 116.508,302.5 109.508,302.666 102.5,302.5C 102.5,297.5 102.5,292.5 102.5,287.5 Z M 102.5,317.5 C 110.174,317.334 117.841,317.5 125.5,318C 130.634,321.499 131.634,325.999 128.5,331.5C 127.335,332.584 126.002,333.417 124.5,334C 117.174,334.5 109.841,334.666 102.5,334.5C 102.5,328.833 102.5,323.167 102.5,317.5 Z"/></g>
<g><path style="opacity:0.918" fill="#cb0001" d="M 159.5,274.5 C 174.837,274.333 190.17,274.5 205.5,275C 213.667,276.5 218.5,281.333 220,289.5C 222.463,299.808 219.296,307.642 210.5,313C 213.667,314.833 216.167,317.333 218,320.5C 220.24,329.418 222.073,338.418 223.5,347.5C 217.537,348.496 211.537,348.829 205.5,348.5C 204.569,340.044 203.069,331.711 201,323.5C 198.404,321.98 195.571,321.147 192.5,321C 187.511,320.501 182.511,320.334 177.5,320.5C 177.5,329.833 177.5,339.167 177.5,348.5C 171.5,348.5 165.5,348.5 159.5,348.5C 159.5,323.833 159.5,299.167 159.5,274.5 Z M 177.5,287.5 C 183.842,287.334 190.175,287.5 196.5,288C 202.668,291.169 204.501,296.003 202,302.5C 200.786,304.049 199.286,305.215 197.5,306C 190.842,306.5 184.175,306.666 177.5,306.5C 177.5,300.167 177.5,293.833 177.5,287.5 Z"/></g>
<g><path style="opacity:0.926" fill="#cb0001" d="M 256.5,274.5 C 265.27,273.882 273.77,274.548 282,276.5C 290.068,300.204 298.235,323.871 306.5,347.5C 300.202,348.496 293.868,348.83 287.5,348.5C 285.963,343.222 284.63,337.888 283.5,332.5C 274.143,332.168 264.81,332.502 255.5,333.5C 254.128,338.451 252.461,343.284 250.5,348C 244.509,348.499 238.509,348.666 232.5,348.5C 240.304,323.756 248.304,299.09 256.5,274.5 Z M 268.5,287.5 C 271.998,297.329 275.332,307.329 278.5,317.5C 272.193,318.664 265.859,318.831 259.5,318C 263.205,308.05 266.205,297.883 268.5,287.5 Z"/></g>
<g><path style="opacity:0.949" fill="#cb0000" d="M 388.5,274.5 C 393.833,274.5 399.167,274.5 404.5,274.5C 404.5,299.167 404.5,323.833 404.5,348.5C 399.167,348.5 393.833,348.5 388.5,348.5C 388.5,323.833 388.5,299.167 388.5,274.5 Z"/></g>
<g><path style="opacity:0.893" fill="#cb0001" d="M 422.5,274.5 C 428.5,274.5 434.5,274.5 440.5,274.5C 440.5,294.167 440.5,313.833 440.5,333.5C 452.167,333.5 463.833,333.5 475.5,333.5C 475.5,338.5 475.5,343.5 475.5,348.5C 457.833,348.5 440.167,348.5 422.5,348.5C 422.5,323.833 422.5,299.167 422.5,274.5 Z"/></g>
</svg>
