<?xml version="1.0" encoding="UTF-8"?>
<svg version="1.1" xmlns="http://www.w3.org/2000/svg" width="434" height="412">
<path d="M0 0 C1.34238506 0.14511393 2.68483288 0.28964838 4.02734375 0.43359375 C7.26888934 0.78340083 10.50968858 1.13896965 13.75 1.5 C13.75 1.83 13.75 2.16 13.75 2.5 C14.40226563 2.54898438 15.05453125 2.59796875 15.7265625 2.6484375 C20.73132364 3.07657341 24.99054803 3.84453845 29.75 5.5 C32.41400346 5.93751882 35.0625025 6.22198302 37.75 6.5 C37.75 7.16 37.75 7.82 37.75 8.5 C38.575 8.62375 39.4 8.7475 40.25 8.875 C44.14772067 9.57102155 47.91739669 10.50880949 51.75 11.5 C51.75 12.16 51.75 12.82 51.75 13.5 C52.471875 13.62375 53.19375 13.7475 53.9375 13.875 C56.70721894 14.4904931 59.1470354 15.38444374 61.75 16.5 C61.75 17.16 61.75 17.82 61.75 18.5 C62.53375 18.45875 63.3175 18.4175 64.125 18.375 C66.75 18.5 66.75 18.5 68.75 20.5 C70.81874034 21.1425235 70.81874034 21.1425235 72.75 21.5 C72.75 22.16 72.75 22.82 72.75 23.5 C73.41 23.5 74.07 23.5 74.75 23.5 C77.80866442 27.43256854 78.08585796 30.41668732 77.9375 35.3125 C77.89689453 37.05466797 77.89689453 37.05466797 77.85546875 38.83203125 C77.82066406 39.71246094 77.78585937 40.59289062 77.75 41.5 C78.41 41.5 79.07 41.5 79.75 41.5 C79.75 51.4 79.75 61.3 79.75 71.5 C79.42 71.5 79.09 71.5 78.75 71.5 C78.67652344 73.11068359 78.67652344 73.11068359 78.6015625 74.75390625 C78.52646602 76.19012642 78.45092124 77.62632319 78.375 79.0625 C78.3440625 79.76697266 78.313125 80.47144531 78.28125 81.19726562 C78.02154935 85.89351901 77.12841713 89.97706881 75.75 94.5 C75.49411484 96.13911346 75.27748711 97.78555635 75.125 99.4375 C75.01285156 100.59572266 75.01285156 100.59572266 74.8984375 101.77734375 C74.84945312 102.34582031 74.80046875 102.91429687 74.75 103.5 C74.09 103.5 73.43 103.5 72.75 103.5 C72.564375 104.9540625 72.564375 104.9540625 72.375 106.4375 C71.75136191 110.84815777 70.76253494 115.16477759 69.75 119.5 C69.09 119.5 68.43 119.5 67.75 119.5 C67.62367188 120.21414062 67.49734375 120.92828125 67.3671875 121.6640625 C65.79972113 128.86647128 62.73658863 135.78017557 59.75 142.5 C59.09 142.5 58.43 142.5 57.75 142.5 C57.6571875 143.20125 57.564375 143.9025 57.46875 144.625 C55.02742535 154.39029861 45.95721928 165.63151249 39.75 173.5 C39.09 173.5 38.43 173.5 37.75 173.5 C37.5025 174.221875 37.255 174.94375 37 175.6875 C35.62730408 178.77606582 34.02646704 181.01011418 31.75 183.5 C31.09 183.5 30.43 183.5 29.75 183.5 C29.4096875 184.304375 29.4096875 184.304375 29.0625 185.125 C26.26541652 190.18638915 22.04125943 194.66045209 17.75 198.5 C16.76 198.5 15.77 198.5 14.75 198.5 C14.42 199.49 14.09 200.48 13.75 201.5 C13.09 201.5 12.43 201.5 11.75 201.5 C11.75 202.16 11.75 202.82 11.75 203.5 C10.76 203.83 9.77 204.16 8.75 204.5 C8.42 205.16 8.09 205.82 7.75 206.5 C6.76 206.5 5.77 206.5 4.75 206.5 C4.75 207.16 4.75 207.82 4.75 208.5 C3.43 208.83 2.11 209.16 0.75 209.5 C0.75 210.16 0.75 210.82 0.75 211.5 C0.09 211.5 -0.57 211.5 -1.25 211.5 C-1.25 212.16 -1.25 212.82 -1.25 213.5 C-5.63461538 216.5 -5.63461538 216.5 -8.25 216.5 C-8.25 217.16 -8.25 217.82 -8.25 218.5 C-9.9 218.83 -11.55 219.16 -13.25 219.5 C-13.25 220.16 -13.25 220.82 -13.25 221.5 C-14.57 221.5 -15.89 221.5 -17.25 221.5 C-17.25 222.16 -17.25 222.82 -17.25 223.5 C-22.875 224.625 -22.875 224.625 -26.25 223.5 C-26.25 222.84 -26.25 222.18 -26.25 221.5 C-27.0853125 221.314375 -27.0853125 221.314375 -27.9375 221.125 C-30.53183352 220.42382878 -32.84077719 219.7046114 -35.25 218.5 C-35.93268138 217.17479497 -36.6007041 215.84187818 -37.25 214.5 C-39.30000871 213.69471111 -39.30000871 213.69471111 -41.25 213.5 C-41.25 212.84 -41.25 212.18 -41.25 211.5 C-42.24 211.5 -43.23 211.5 -44.25 211.5 C-44.25 210.84 -44.25 210.18 -44.25 209.5 C-45.57 209.17 -46.89 208.84 -48.25 208.5 C-48.25 207.84 -48.25 207.18 -48.25 206.5 C-49.24 206.5 -50.23 206.5 -51.25 206.5 C-51.58 205.84 -51.91 205.18 -52.25 204.5 C-53.24 204.17 -54.23 203.84 -55.25 203.5 C-56.86328125 201.828125 -56.86328125 201.828125 -58.5625 199.75 C-60.7922654 197.10274661 -62.97300921 194.77343584 -65.6875 192.625 C-66.533125 191.92375 -67.37875 191.2225 -68.25 190.5 C-68.25 189.84 -68.25 189.18 -68.25 188.5 C-68.91 188.5 -69.57 188.5 -70.25 188.5 C-71.9765625 186.8203125 -71.9765625 186.8203125 -73.875 184.625 C-74.50664063 183.90570313 -75.13828125 183.18640625 -75.7890625 182.4453125 C-77.25 180.5 -77.25 180.5 -77.25 178.5 C-77.91 178.5 -78.57 178.5 -79.25 178.5 C-80.69526736 176.76451831 -82.0587222 174.96024037 -83.375 173.125 C-84.46167969 171.62839844 -84.46167969 171.62839844 -85.5703125 170.1015625 C-87.25 167.5 -87.25 167.5 -87.25 165.5 C-87.91 165.5 -88.57 165.5 -89.25 165.5 C-89.745 163.025 -89.745 163.025 -90.25 160.5 C-90.91 160.5 -91.57 160.5 -92.25 160.5 C-93.5390625 158.85546875 -93.5390625 158.85546875 -94.875 156.6875 C-95.32101563 155.97980469 -95.76703125 155.27210938 -96.2265625 154.54296875 C-97.25 152.5 -97.25 152.5 -97.25 149.5 C-97.91 149.5 -98.57 149.5 -99.25 149.5 C-102.25 142.875 -102.25 142.875 -102.25 139.5 C-102.91 139.5 -103.57 139.5 -104.25 139.5 C-104.58 137.19 -104.91 134.88 -105.25 132.5 C-105.91 132.5 -106.57 132.5 -107.25 132.5 C-107.75757862 131.08603098 -108.25574925 129.66868271 -108.75 128.25 C-109.0284375 127.46109375 -109.306875 126.6721875 -109.59375 125.859375 C-110.25 123.5 -110.25 123.5 -110.25 119.5 C-110.91 119.5 -111.57 119.5 -112.25 119.5 C-112.44335938 118.84773438 -112.63671875 118.19546875 -112.8359375 117.5234375 C-113.09632812 116.64945312 -113.35671875 115.77546875 -113.625 114.875 C-113.89828125 113.9571875 -114.1715625 113.039375 -114.453125 112.09375 C-115.04372284 110.17141193 -115.69382938 108.2671406 -116.375 106.375 C-117.29187526 103.36240986 -117.64054433 100.55276458 -117.96484375 97.43359375 C-118.21515774 95.29127452 -118.21515774 95.29127452 -119.3125 92.5625 C-120.55816308 88.49333393 -120.41884609 84.72115229 -120.25 80.5 C-120.91 80.5 -121.57 80.5 -122.25 80.5 C-122.25 64 -122.25 47.5 -122.25 30.5 C-121.59 30.5 -120.93 30.5 -120.25 30.5 C-120.1675 29.71625 -120.085 28.9325 -120 28.125 C-119.25 25.5 -119.25 25.5 -117.1875 24.1875 C-116.548125 23.960625 -115.90875 23.73375 -115.25 23.5 C-115.25 22.84 -115.25 22.18 -115.25 21.5 C-109.625 18.5 -109.625 18.5 -106.25 18.5 C-106.25 17.84 -106.25 17.18 -106.25 16.5 C-104.98160474 15.99384702 -103.71016898 15.49530901 -102.4375 15 C-101.72980469 14.7215625 -101.02210937 14.443125 -100.29296875 14.15625 C-98.25 13.5 -98.25 13.5 -95.25 13.5 C-95.25 12.84 -95.25 12.18 -95.25 11.5 C-90.63 10.18 -86.01 8.86 -81.25 7.5 C-81.25 7.17 -81.25 6.84 -81.25 6.5 C-80.25097656 6.36722656 -79.25195312 6.23445313 -78.22265625 6.09765625 C-76.93230469 5.92105469 -75.64195313 5.74445312 -74.3125 5.5625 C-73.02472656 5.38847656 -71.73695312 5.21445312 -70.41015625 5.03515625 C-67.39533687 4.83837577 -67.39533687 4.83837577 -66.25 3.5 C-63.59536879 3.04540142 -60.92810862 2.79756762 -58.25 2.5 C-58.25 2.17 -58.25 1.84 -58.25 1.5 C-54.05560759 1.06498026 -49.86047947 0.63814022 -45.66455078 0.21826172 C-44.24278344 0.07489831 -42.82122396 -0.07054473 -41.39990234 -0.21826172 C-27.32871721 -1.67801064 -14.08348011 -1.5711219 0 0 Z M-54.25 21.5 C-54.25 22.16 -54.25 22.82 -54.25 23.5 C-54.971875 23.62375 -55.69375 23.7475 -56.4375 23.875 C-59.20721894 24.4904931 -61.6470354 25.38444374 -64.25 26.5 C-64.25 27.16 -64.25 27.82 -64.25 28.5 C-65.9 28.83 -67.55 29.16 -69.25 29.5 C-69.25 30.16 -69.25 30.82 -69.25 31.5 C-70.24 31.5 -71.23 31.5 -72.25 31.5 C-72.25 32.16 -72.25 32.82 -72.25 33.5 C-73.9 34.16 -75.55 34.82 -77.25 35.5 C-77.25 35.83 -77.25 36.16 -77.25 36.5 C-74.18606987 36.75532751 -72.61766788 36.71861333 -69.9375 35.125 C-69.380625 34.58875 -68.82375 34.0525 -68.25 33.5 C-68.25 32.84 -68.25 32.18 -68.25 31.5 C-67.26 31.5 -66.27 31.5 -65.25 31.5 C-65.25 30.84 -65.25 30.18 -65.25 29.5 C-63.6 29.17 -61.95 28.84 -60.25 28.5 C-60.25 27.84 -60.25 27.18 -60.25 26.5 C-58.93 26.5 -57.61 26.5 -56.25 26.5 C-56.25 25.84 -56.25 25.18 -56.25 24.5 C-55.30125 24.37625 -54.3525 24.2525 -53.375 24.125 C-50.16332809 23.78312823 -50.16332809 23.78312823 -48.25 21.5 C-50.23 21.5 -52.21 21.5 -54.25 21.5 Z M-77.25 26.5 C-77.25 27.16 -77.25 27.82 -77.25 28.5 C-78.24 28.5 -79.23 28.5 -80.25 28.5 C-80.25 29.49 -80.25 30.48 -80.25 31.5 C-79.59 31.5 -78.93 31.5 -78.25 31.5 C-78.25 30.84 -78.25 30.18 -78.25 29.5 C-76.93 29.17 -75.61 28.84 -74.25 28.5 C-74.25 27.84 -74.25 27.18 -74.25 26.5 C-73.26 26.5 -72.27 26.5 -71.25 26.5 C-71.25 25.84 -71.25 25.18 -71.25 24.5 C-70.26 24.17 -69.27 23.84 -68.25 23.5 C-72.30047276 23.1624606 -74.29341306 23.65291628 -77.25 26.5 Z M-47.25 26.5 C-47.25 27.16 -47.25 27.82 -47.25 28.5 C-48.3225 28.62375 -49.395 28.7475 -50.5 28.875 C-53.62863615 29.39643936 -55.58480424 29.90088254 -58.25 31.5 C-58.25 32.16 -58.25 32.82 -58.25 33.5 C-58.8275 33.62375 -59.405 33.7475 -60 33.875 C-62.27335767 34.50648824 -64.1753529 35.38858191 -66.25 36.5 C-66.25 37.16 -66.25 37.82 -66.25 38.5 C-66.971875 38.7475 -67.69375 38.995 -68.4375 39.25 C-71.52606582 40.62269592 -73.76011418 42.22353296 -76.25 44.5 C-76.25 45.16 -76.25 45.82 -76.25 46.5 C-76.91 46.5 -77.57 46.5 -78.25 46.5 C-78.25 47.16 -78.25 47.82 -78.25 48.5 C-79.24 48.83 -80.23 49.16 -81.25 49.5 C-81.25 50.16 -81.25 50.82 -81.25 51.5 C-80.26 51.5 -79.27 51.5 -78.25 51.5 C-78.25 50.84 -78.25 50.18 -78.25 49.5 C-77.26 49.17 -76.27 48.84 -75.25 48.5 C-75.25 47.84 -75.25 47.18 -75.25 46.5 C-74.59 46.5 -73.93 46.5 -73.25 46.5 C-73.25 45.84 -73.25 45.18 -73.25 44.5 C-71.93 44.17 -70.61 43.84 -69.25 43.5 C-69.25 42.84 -69.25 42.18 -69.25 41.5 C-68.59 41.5 -67.93 41.5 -67.25 41.5 C-67.25 40.84 -67.25 40.18 -67.25 39.5 C-66.6725 39.37625 -66.095 39.2525 -65.5 39.125 C-63.22664233 38.49351176 -61.3246471 37.61141809 -59.25 36.5 C-59.25 35.84 -59.25 35.18 -59.25 34.5 C-58.5075 34.37625 -57.765 34.2525 -57 34.125 C-54.44858515 33.54513299 -52.5232427 32.76291261 -50.25 31.5 C-50.25 30.84 -50.25 30.18 -50.25 29.5 C-47.61 29.17 -44.97 28.84 -42.25 28.5 C-42.25 27.84 -42.25 27.18 -42.25 26.5 C-41.13625 26.314375 -41.13625 26.314375 -40 26.125 C-37.44858515 25.54513299 -35.5232427 24.76291261 -33.25 23.5 C-38.67039575 23.09347032 -42.32015675 24.46006486 -47.25 26.5 Z M-40.25 31.5 C-40.25 32.16 -40.25 32.82 -40.25 33.5 C-41.3225 33.62375 -42.395 33.7475 -43.5 33.875 C-46.62863615 34.39643936 -48.58480424 34.90088254 -51.25 36.5 C-51.25 37.16 -51.25 37.82 -51.25 38.5 C-52.24 38.83 -53.23 39.16 -54.25 39.5 C-50.19393835 39.03199289 -46.78411321 38.62046792 -43.25 36.5 C-43.25 35.84 -43.25 35.18 -43.25 34.5 C-42.074375 34.37625 -40.89875 34.2525 -39.6875 34.125 C-35.70879574 33.63564065 -32.07233441 32.6944795 -28.25 31.5 C-28.25 30.84 -28.25 30.18 -28.25 29.5 C-26.27 29.5 -24.29 29.5 -22.25 29.5 C-22.25 29.17 -22.25 28.84 -22.25 28.5 C-28.82315478 28.13482473 -34.04485526 29.36380263 -40.25 31.5 Z M-32.25 36.5 C-32.25 37.16 -32.25 37.82 -32.25 38.5 C-36.705 38.995 -36.705 38.995 -41.25 39.5 C-41.25 40.16 -41.25 40.82 -41.25 41.5 C-42.24 41.5 -43.23 41.5 -44.25 41.5 C-44.25 42.16 -44.25 42.82 -44.25 43.5 C-45.4875 43.5928125 -45.4875 43.5928125 -46.75 43.6875 C-51.16070886 44.71141456 -54.73441302 46.63577812 -58.25 49.5 C-58.25 50.16 -58.25 50.82 -58.25 51.5 C-59.24 51.5 -60.23 51.5 -61.25 51.5 C-61.25 52.16 -61.25 52.82 -61.25 53.5 C-62.24 53.83 -63.23 54.16 -64.25 54.5 C-64.25 55.16 -64.25 55.82 -64.25 56.5 C-65.24 56.5 -66.23 56.5 -67.25 56.5 C-69.15982315 58.18966374 -69.15982315 58.18966374 -70.9375 60.375 C-71.56011719 61.09429687 -72.18273437 61.81359375 -72.82421875 62.5546875 C-74.447051 64.36687564 -74.447051 64.36687564 -74.25 66.5 C-75.735 66.995 -75.735 66.995 -77.25 67.5 C-77.25 68.16 -77.25 68.82 -77.25 69.5 C-76.26 69.5 -75.27 69.5 -74.25 69.5 C-71.19923157 66.46344042 -71.19923157 66.46344042 -70.25 62.5 C-69.26 62.17 -68.27 61.84 -67.25 61.5 C-67.25 60.84 -67.25 60.18 -67.25 59.5 C-65.25 58.5 -63.25 57.5 -61.25 56.5 C-61.25 55.84 -61.25 55.18 -61.25 54.5 C-60.693125 54.231875 -60.13625 53.96375 -59.5625 53.6875 C-57.96944684 52.86944567 -56.40704545 51.98979067 -54.875 51.0625 C-52.06507203 49.38992383 -49.17386098 47.96193049 -46.25 46.5 C-45.26 45.84 -44.27 45.18 -43.25 44.5 C-40.94507614 43.42403982 -38.60039944 42.4756375 -36.25 41.5 C-36.25 40.84 -36.25 40.18 -36.25 39.5 C-34.950625 39.37625 -33.65125 39.2525 -32.3125 39.125 C-27.53150048 38.60136672 -22.91885899 37.63686165 -18.25 36.5 C-18.25 35.84 -18.25 35.18 -18.25 34.5 C-13.96 34.5 -9.67 34.5 -5.25 34.5 C-5.25 34.17 -5.25 33.84 -5.25 33.5 C-14.73839486 33.11591205 -23.09802826 33.94596137 -32.25 36.5 Z M-57.25 39.5 C-57.25 40.16 -57.25 40.82 -57.25 41.5 C-58.24 41.83 -59.23 42.16 -60.25 42.5 C-61.59090759 43.15129797 -62.92592331 43.81513275 -64.25 44.5 C-64.25 45.16 -64.25 45.82 -64.25 46.5 C-65.24 46.83 -66.23 47.16 -67.25 47.5 C-69.94433317 49.37197454 -69.94433317 49.37197454 -72.25 51.5 C-72.25 52.16 -72.25 52.82 -72.25 53.5 C-73.57 53.83 -74.89 54.16 -76.25 54.5 C-76.353125 55.139375 -76.45625 55.77875 -76.5625 56.4375 C-76.789375 57.118125 -77.01625 57.79875 -77.25 58.5 C-78.24 58.83 -79.23 59.16 -80.25 59.5 C-80.25 60.16 -80.25 60.82 -80.25 61.5 C-80.91 61.5 -81.57 61.5 -82.25 61.5 C-82.25 62.49 -82.25 63.48 -82.25 64.5 C-80.14968321 64.71531408 -80.14968321 64.71531408 -78.625 63.125 C-77.03468592 61.60031679 -77.03468592 61.60031679 -77.25 59.5 C-76.26 59.17 -75.27 58.84 -74.25 58.5 C-74.25 57.84 -74.25 57.18 -74.25 56.5 C-73.59 56.5 -72.93 56.5 -72.25 56.5 C-70.58333333 55.16666667 -70.58333333 55.16666667 -69.25 53.5 C-69.25 52.84 -69.25 52.18 -69.25 51.5 C-68.59 51.5 -67.93 51.5 -67.25 51.5 C-67.25 50.84 -67.25 50.18 -67.25 49.5 C-65.25 48.5 -63.25 47.5 -61.25 46.5 C-61.25 45.84 -61.25 45.18 -61.25 44.5 C-59.6 44.17 -57.95 43.84 -56.25 43.5 C-56.25 42.84 -56.25 42.18 -56.25 41.5 C-55.26 41.17 -54.27 40.84 -53.25 40.5 C-54.57 40.17 -55.89 39.84 -57.25 39.5 Z M-37.25 46.5 C-37.25 47.16 -37.25 47.82 -37.25 48.5 C-39.56 48.83 -41.87 49.16 -44.25 49.5 C-44.25 50.16 -44.25 50.82 -44.25 51.5 C-45.24 51.5 -46.23 51.5 -47.25 51.5 C-47.25 52.16 -47.25 52.82 -47.25 53.5 C-48.9 53.83 -50.55 54.16 -52.25 54.5 C-52.25 55.16 -52.25 55.82 -52.25 56.5 C-52.848125 56.62375 -53.44625 56.7475 -54.0625 56.875 C-56.51231348 57.45475985 -56.51231348 57.45475985 -59.25 59.5 C-59.25 60.16 -59.25 60.82 -59.25 61.5 C-60.24 61.83 -61.23 62.16 -62.25 62.5 C-62.25 63.16 -62.25 63.82 -62.25 64.5 C-62.91 64.5 -63.57 64.5 -64.25 64.5 C-64.25 65.16 -64.25 65.82 -64.25 66.5 C-65.24 66.83 -66.23 67.16 -67.25 67.5 C-67.25 68.16 -67.25 68.82 -67.25 69.5 C-67.91 69.5 -68.57 69.5 -69.25 69.5 C-70.24 71.975 -70.24 71.975 -71.25 74.5 C-70.59 74.83 -69.93 75.16 -69.25 75.5 C-69.25 74.51 -69.25 73.52 -69.25 72.5 C-67.765 72.005 -67.765 72.005 -66.25 71.5 C-66.25 70.84 -66.25 70.18 -66.25 69.5 C-65.59 69.5 -64.93 69.5 -64.25 69.5 C-64.25 68.84 -64.25 68.18 -64.25 67.5 C-63.26 67.17 -62.27 66.84 -61.25 66.5 C-61.25 65.84 -61.25 65.18 -61.25 64.5 C-60.59 64.5 -59.93 64.5 -59.25 64.5 C-59.25 63.84 -59.25 63.18 -59.25 62.5 C-57.93 62.17 -56.61 61.84 -55.25 61.5 C-55.25 60.84 -55.25 60.18 -55.25 59.5 C-52.91785852 58.29371992 -50.75357861 57.3345262 -48.25 56.5 C-48.25 55.84 -48.25 55.18 -48.25 54.5 C-45.59771188 53.42474806 -42.96631546 52.40543849 -40.25 51.5 C-40.25 50.84 -40.25 50.18 -40.25 49.5 C-39.21875 49.396875 -38.1875 49.29375 -37.125 49.1875 C-33.35097273 48.73805863 -33.35097273 48.73805863 -30.75 47.09375 C-25.78151223 44.8313136 -20.74160739 44.16177223 -15.375 43.3125 C-13.77011719 43.04663086 -13.77011719 43.04663086 -12.1328125 42.77539062 C-9.50650058 42.34158017 -6.87906505 41.91674088 -4.25 41.5 C-4.25 40.84 -4.25 40.18 -4.25 39.5 C-15.6015206 38.88640429 -26.65759797 42.89714217 -37.25 46.5 Z M16.75 43.5 C16.75 43.83 16.75 44.16 16.75 44.5 C19.39 44.5 22.03 44.5 24.75 44.5 C24.75 45.16 24.75 45.82 24.75 46.5 C25.99663331 47.00833591 27.24749387 47.50631145 28.5 48 C29.19609375 48.2784375 29.8921875 48.556875 30.609375 48.84375 C33.01422695 49.69540327 33.01422695 49.69540327 36.75 49.5 C36.75 50.16 36.75 50.82 36.75 51.5 C37.41 51.17 38.07 50.84 38.75 50.5 C38.42 49.84 38.09 49.18 37.75 48.5 C36.76 48.5 35.77 48.5 34.75 48.5 C34.75 47.84 34.75 47.18 34.75 46.5 C33.1 46.5 31.45 46.5 29.75 46.5 C29.75 45.84 29.75 45.18 29.75 44.5 C26.75519083 43.6276588 24.11424089 43.39170234 21 43.4375 C19.80117187 43.45103516 19.80117187 43.45103516 18.578125 43.46484375 C17.67320312 43.48224609 17.67320312 43.48224609 16.75 43.5 Z M-14.5 48.25 C-15.6602771 48.36057739 -15.6602771 48.36057739 -16.84399414 48.47338867 C-21.8287672 49.05569906 -25.70793189 50.37593152 -30.25 52.5 C-32.57036294 53.26526961 -34.88613339 53.87285172 -37.25 54.5 C-37.25 55.16 -37.25 55.82 -37.25 56.5 C-37.9925 56.62375 -38.735 56.7475 -39.5 56.875 C-42.05141485 57.45486701 -43.9767573 58.23708739 -46.25 59.5 C-46.25 60.16 -46.25 60.82 -46.25 61.5 C-46.848125 61.62375 -47.44625 61.7475 -48.0625 61.875 C-50.51231348 62.45475985 -50.51231348 62.45475985 -53.25 64.5 C-53.25 65.16 -53.25 65.82 -53.25 66.5 C-53.889375 66.768125 -54.52875 67.03625 -55.1875 67.3125 C-57.58131686 68.38667752 -57.58131686 68.38667752 -58.25 71.5 C-59.24 71.83 -60.23 72.16 -61.25 72.5 C-61.25 73.16 -61.25 73.82 -61.25 74.5 C-61.91 74.83 -62.57 75.16 -63.25 75.5 C-64.60308313 76.81328657 -65.93870078 78.14499081 -67.25 79.5 C-66.92 80.49 -66.59 81.48 -66.25 82.5 C-65.26 82.005 -65.26 82.005 -64.25 81.5 C-64.25 80.84 -64.25 80.18 -64.25 79.5 C-63.59 79.17 -62.93 78.84 -62.25 78.5 C-59.86872677 75.84673148 -59.86872677 75.84673148 -59.25 72.5 C-58.71375 72.2525 -58.1775 72.005 -57.625 71.75 C-54.6676018 70.19347463 -51.95275949 68.46564327 -49.25 66.5 C-49.25 65.84 -49.25 65.18 -49.25 64.5 C-48.59 64.5 -47.93 64.5 -47.25 64.5 C-47.25 63.84 -47.25 63.18 -47.25 62.5 C-45.6 62.17 -43.95 61.84 -42.25 61.5 C-42.25 60.84 -42.25 60.18 -42.25 59.5 C-41.693125 59.37625 -41.13625 59.2525 -40.5625 59.125 C-38.02885636 58.44023145 -35.67078968 57.50866237 -33.25 56.5 C-33.25 55.84 -33.25 55.18 -33.25 54.5 C-32.30125 54.396875 -31.3525 54.29375 -30.375 54.1875 C-27.379375 53.78000008 -24.77433943 52.99974269 -21.93359375 51.98046875 C-15.08123115 49.8931898 -8.29532555 50.06188167 -1.1875 50.125 C0.77799805 50.10759766 0.77799805 50.10759766 2.78320312 50.08984375 C9.24139581 50.10936474 14.88980321 50.32914737 20.90966797 52.78979492 C23.80505652 53.90715832 26.67559967 54.17293614 29.75 54.5 C29.75 55.16 29.75 55.82 29.75 56.5 C33.69075703 58.9056808 33.69075703 58.9056808 38.125 59.1875 C38.66125 58.960625 39.1975 58.73375 39.75 58.5 C39.09 58.5 38.43 58.5 37.75 58.5 C37.75 57.84 37.75 57.18 37.75 56.5 C36.43 56.5 35.11 56.5 33.75 56.5 C33.75 55.84 33.75 55.18 33.75 54.5 C31.44 54.17 29.13 53.84 26.75 53.5 C26.75 52.84 26.75 52.18 26.75 51.5 C13.2962697 47.23025326 -0.54507805 46.87574505 -14.5 48.25 Z M-39.25 64.5 C-39.25 65.16 -39.25 65.82 -39.25 66.5 C-40.013125 66.62375 -40.77625 66.7475 -41.5625 66.875 C-44.45267136 67.38102792 -44.45267136 67.38102792 -47.25 69.5 C-47.25 70.16 -47.25 70.82 -47.25 71.5 C-48.57 71.83 -49.89 72.16 -51.25 72.5 C-51.25 73.16 -51.25 73.82 -51.25 74.5 C-51.91 74.83 -52.57 75.16 -53.25 75.5 C-56.3747232 78.2341328 -57.93745073 80.5623522 -59.25 84.5 C-59.91 84.5 -60.57 84.5 -61.25 84.5 C-61.25 85.49 -61.25 86.48 -61.25 87.5 C-60.59 87.5 -59.93 87.5 -59.25 87.5 C-58.22388051 85.84928604 -57.22691857 84.18029994 -56.25 82.5 C-55.25 81.5 -54.25 80.5 -53.25 79.5 C-53.25 78.84 -53.25 78.18 -53.25 77.5 C-52.610625 77.231875 -51.97125 76.96375 -51.3125 76.6875 C-48.91868314 75.61332248 -48.91868314 75.61332248 -48.25 72.5 C-46.375 71.9375 -46.375 71.9375 -44.25 71.5 C-43.26 70.84 -42.27 70.18 -41.25 69.5 C-41.25 68.84 -41.25 68.18 -41.25 67.5 C-39.6 67.17 -37.95 66.84 -36.25 66.5 C-36.25 65.84 -36.25 65.18 -36.25 64.5 C-35.734375 64.37625 -35.21875 64.2525 -34.6875 64.125 C-31.52297649 63.31358372 -28.38875015 62.4054087 -25.25 61.5 C-25.25 60.84 -25.25 60.18 -25.25 59.5 C-24.65832031 59.43941406 -24.06664062 59.37882812 -23.45703125 59.31640625 C-22.27173828 59.19072266 -22.27173828 59.19072266 -21.0625 59.0625 C-20.28519531 58.98128906 -19.50789063 58.90007812 -18.70703125 58.81640625 C-16.27502404 58.54627713 -16.27502404 58.54627713 -14.03125 57.9765625 C-9.99854538 57.28556536 -6.02157804 57.31567827 -1.9375 57.3125 C-0.71256836 57.29413086 -0.71256836 57.29413086 0.53710938 57.27539062 C5.96404503 57.26241787 10.52360893 58.05921111 15.75 59.5 C19.08394439 59.6690389 19.08394439 59.6690389 21.75 59.5 C21.75 60.16 21.75 60.82 21.75 61.5 C24.39 61.83 27.03 62.16 29.75 62.5 C28.76 62.17 27.77 61.84 26.75 61.5 C26.75 60.84 26.75 60.18 26.75 59.5 C5.10799746 52.59297791 -19.40593829 51.27062553 -39.25 64.5 Z M-41.25 74.5 C-41.25 75.16 -41.25 75.82 -41.25 76.5 C-42.57 76.83 -43.89 77.16 -45.25 77.5 C-45.25 78.16 -45.25 78.82 -45.25 79.5 C-45.91 79.83 -46.57 80.16 -47.25 80.5 C-49.39589423 82.39586384 -49.39589423 82.39586384 -51.25 84.5 C-51.25 85.16 -51.25 85.82 -51.25 86.5 C-52.24 86.83 -53.23 87.16 -54.25 87.5 C-55.45882096 89.50016466 -55.45882096 89.50016466 -56.25 91.5 C-54.26508358 91.23323796 -54.26508358 91.23323796 -52.25 90.5 C-51.92 89.51 -51.59 88.52 -51.25 87.5 C-50.59 87.5 -49.93 87.5 -49.25 87.5 C-49.0025 86.71625 -48.755 85.9325 -48.5 85.125 C-47.05505715 82.09062001 -46.19434181 81.82970275 -43.25 80.5 C-42.92 79.51 -42.59 78.52 -42.25 77.5 C-40.375 76.9375 -40.375 76.9375 -38.25 76.5 C-37.26 75.84 -36.27 75.18 -35.25 74.5 C-35.25 73.84 -35.25 73.18 -35.25 72.5 C-33.27 72.17 -31.29 71.84 -29.25 71.5 C-29.25 70.84 -29.25 70.18 -29.25 69.5 C-27.93 69.5 -26.61 69.5 -25.25 69.5 C-25.25 68.84 -25.25 68.18 -25.25 67.5 C-24.29287109 67.40912109 -24.29287109 67.40912109 -23.31640625 67.31640625 C-22.49011719 67.23261719 -21.66382813 67.14882812 -20.8125 67.0625 C-19.98878906 66.98128906 -19.16507813 66.90007812 -18.31640625 66.81640625 C-16.26337975 66.71069185 -16.26337975 66.71069185 -15.25 65.5 C-11.02716637 65.24494102 -6.79211293 65.31476304 -2.5625 65.3125 C-1.37720703 65.30025391 -0.19191406 65.28800781 1.02929688 65.27539062 C2.7530957 65.27249023 2.7530957 65.27249023 4.51171875 65.26953125 C5.56319092 65.26542236 6.61466309 65.26131348 7.69799805 65.25708008 C10.99030967 65.51912712 13.64986485 66.39608384 16.75 67.5 C19.50065232 67.66857483 19.50065232 67.66857483 21.75 67.5 C21.75 68.16 21.75 68.82 21.75 69.5 C23.07 69.5 24.39 69.5 25.75 69.5 C25.75 70.16 25.75 70.82 25.75 71.5 C28.72 71.995 28.72 71.995 31.75 72.5 C31.75 73.16 31.75 73.82 31.75 74.5 C32.41 74.5 33.07 74.5 33.75 74.5 C34.245 75.49 34.245 75.49 34.75 76.5 C34.75 75.18 34.75 73.86 34.75 72.5 C33.1 72.17 31.45 71.84 29.75 71.5 C29.75 70.84 29.75 70.18 29.75 69.5 C24.01709085 66.79155119 24.01709085 66.79155119 17.75 66.5 C17.75 65.84 17.75 65.18 17.75 64.5 C11.11787738 62.80152957 5.08303204 62.19032286 -1.75 62.25 C-2.63558594 62.24226563 -3.52117187 62.23453125 -4.43359375 62.2265625 C-18.16144839 62.26687925 -29.91709362 66.94472908 -41.25 74.5 Z M29.75 62.5 C29.42 63.16 29.09 63.82 28.75 64.5 C31.83809695 66.26462683 32.98312136 66.5 36.75 66.5 C36.75 65.84 36.75 65.18 36.75 64.5 C34.10261084 63.0393715 32.85551666 62.5 29.75 62.5 Z M-11.25 69.5 C-11.25 70.16 -11.25 70.82 -11.25 71.5 C-12.405 71.438125 -13.56 71.37625 -14.75 71.3125 C-19.46213121 71.28725644 -22.94559472 72.65525488 -27.25 74.5 C-27.25 75.16 -27.25 75.82 -27.25 76.5 C-29.23 76.83 -31.21 77.16 -33.25 77.5 C-33.25 78.16 -33.25 78.82 -33.25 79.5 C-33.91 79.5 -34.57 79.5 -35.25 79.5 C-35.25 80.16 -35.25 80.82 -35.25 81.5 C-36.57 81.83 -37.89 82.16 -39.25 82.5 C-39.25 83.16 -39.25 83.82 -39.25 84.5 C-39.91 84.5 -40.57 84.5 -41.25 84.5 C-41.25 85.16 -41.25 85.82 -41.25 86.5 C-42.24 86.83 -43.23 87.16 -44.25 87.5 C-45.46869929 90.00447516 -45.46869929 90.00447516 -46.25 92.5 C-46.91 92.5 -47.57 92.5 -48.25 92.5 C-48.25 93.16 -48.25 93.82 -48.25 94.5 C-47.26 94.5 -46.27 94.5 -45.25 94.5 C-42.19923157 91.46344042 -42.19923157 91.46344042 -41.25 87.5 C-40.26 87.17 -39.27 86.84 -38.25 86.5 C-38.25 85.84 -38.25 85.18 -38.25 84.5 C-37.59 84.5 -36.93 84.5 -36.25 84.5 C-36.25 83.84 -36.25 83.18 -36.25 82.5 C-35.46625 82.190625 -34.6825 81.88125 -33.875 81.5625 C-31.32669872 80.57124962 -31.32669872 80.57124962 -29.25 79.5 C-29.25 78.84 -29.25 78.18 -29.25 77.5 C-28.363125 77.37625 -27.47625 77.2525 -26.5625 77.125 C-23.54612498 76.55587264 -21.04673946 75.73385564 -18.25 74.5 C-18.25 73.84 -18.25 73.18 -18.25 72.5 C-7.69 72.5 2.87 72.5 13.75 72.5 C13.75 73.16 13.75 73.82 13.75 74.5 C17.39793184 75.77253436 20.9436543 76.82829194 24.75 77.5 C24.75 78.16 24.75 78.82 24.75 79.5 C27.97114157 81.81592022 27.97114157 81.81592022 31.75 82.5 C31.75 83.16 31.75 83.82 31.75 84.5 C32.74 84.83 33.73 85.16 34.75 85.5 C34.255 83.52 34.255 83.52 33.75 81.5 C33.09 81.5 32.43 81.5 31.75 81.5 C31.75 80.84 31.75 80.18 31.75 79.5 C30.76 79.5 29.77 79.5 28.75 79.5 C28.75 78.84 28.75 78.18 28.75 77.5 C27.1 77.17 25.45 76.84 23.75 76.5 C23.75 75.84 23.75 75.18 23.75 74.5 C18.22239641 72.39424625 13.68002267 71.12148791 7.75 71.5 C7.75 70.84 7.75 70.18 7.75 69.5 C1.48 69.5 -4.79 69.5 -11.25 69.5 Z M-20.25 79.5 C-20.25 80.16 -20.25 80.82 -20.25 81.5 C-21.6421875 81.685625 -21.6421875 81.685625 -23.0625 81.875 C-26.38925235 82.31533082 -26.38925235 82.31533082 -29.25 84.5 C-29.25 85.16 -29.25 85.82 -29.25 86.5 C-30.57 86.83 -31.89 87.16 -33.25 87.5 C-33.25 88.16 -33.25 88.82 -33.25 89.5 C-34.178125 89.8403125 -34.178125 89.8403125 -35.125 90.1875 C-37.86410209 91.87929835 -38.30024472 93.49244161 -39.25 96.5 C-39.91 96.5 -40.57 96.5 -41.25 96.5 C-41.25 97.49 -41.25 98.48 -41.25 99.5 C-41.91 99.5 -42.57 99.5 -43.25 99.5 C-42.92 101.15 -42.59 102.8 -42.25 104.5 C-41.92 103.18 -41.59 101.86 -41.25 100.5 C-40.59 100.5 -39.93 100.5 -39.25 100.5 C-38.92 98.85 -38.59 97.2 -38.25 95.5 C-37.26 95.17 -36.27 94.84 -35.25 94.5 C-35.25 93.84 -35.25 93.18 -35.25 92.5 C-34.59 92.5 -33.93 92.5 -33.25 92.5 C-33.25 91.84 -33.25 91.18 -33.25 90.5 C-32.26 90.17 -31.27 89.84 -30.25 89.5 C-30.25 88.84 -30.25 88.18 -30.25 87.5 C-29.46625 87.190625 -28.6825 86.88125 -27.875 86.5625 C-25.32669872 85.57124962 -25.32669872 85.57124962 -23.25 84.5 C-23.25 83.84 -23.25 83.18 -23.25 82.5 C-22.30125 82.37625 -21.3525 82.2525 -20.375 82.125 C-17.33556495 81.70217537 -14.37125732 81.09761294 -11.375 80.4375 C-2.87657308 78.73011211 4.35732177 79.639694 12.75 81.5 C14.74810662 81.84450114 16.74722415 82.18377223 18.75 82.5 C18.75 83.16 18.75 83.82 18.75 84.5 C21.65548882 86.54169485 23.15142046 87.5 26.75 87.5 C26.9975 88.139375 27.245 88.77875 27.5 89.4375 C28.56562433 91.68741541 28.56562433 91.68741541 30.875 92.25 C31.49375 92.3325 32.1125 92.415 32.75 92.5 C32.255 91.015 32.255 91.015 31.75 89.5 C31.09 89.5 30.43 89.5 29.75 89.5 C29.75 88.84 29.75 88.18 29.75 87.5 C27.1885343 85.20351351 26.27032428 84.5 22.75 84.5 C22.75 83.84 22.75 83.18 22.75 82.5 C20.77 81.84 18.79 81.18 16.75 80.5 C16.75 80.17 16.75 79.84 16.75 79.5 C12.14778296 77.74643363 7.82290973 77.06182676 2.9375 76.8125 C1.87909912 76.75388794 1.87909912 76.75388794 0.79931641 76.6940918 C-6.65320733 76.34194334 -13.21653968 76.79482295 -20.25 79.5 Z M-11.25 84.5 C-11.25 85.16 -11.25 85.82 -11.25 86.5 C-15.705 86.995 -15.705 86.995 -20.25 87.5 C-20.25 88.16 -20.25 88.82 -20.25 89.5 C-20.806875 89.5825 -21.36375 89.665 -21.9375 89.75 C-24.98677919 90.73895541 -26.90189963 92.34757466 -29.25 94.5 C-29.25 95.16 -29.25 95.82 -29.25 96.5 C-30.24 96.83 -31.23 97.16 -32.25 97.5 C-33.47798789 99.0227504 -33.47798789 99.0227504 -34.4375 100.875 C-34.78167969 101.48085937 -35.12585938 102.08671875 -35.48046875 102.7109375 C-36.44756466 104.63472229 -36.44756466 104.63472229 -36.25 107.5 C-35.59 107.5 -34.93 107.5 -34.25 107.5 C-33.816875 106.406875 -33.38375 105.31375 -32.9375 104.1875 C-31.74126084 101.36209702 -30.54266065 99.57431202 -28.25 97.5 C-28.25 96.84 -28.25 96.18 -28.25 95.5 C-26.93 95.17 -25.61 94.84 -24.25 94.5 C-24.25 93.84 -24.25 93.18 -24.25 92.5 C-23.26 92.5 -22.27 92.5 -21.25 92.5 C-21.25 91.84 -21.25 91.18 -21.25 90.5 C-20.49074219 90.29503906 -19.73148438 90.09007812 -18.94921875 89.87890625 C-17.95535156 89.60949219 -16.96148437 89.34007812 -15.9375 89.0625 C-14.95136719 88.79566406 -13.96523437 88.52882813 -12.94921875 88.25390625 C-11.03482474 87.71920575 -9.13566385 87.12855462 -7.25 86.5 C-5.56454276 86.40712229 -3.875507 86.37002796 -2.1875 86.375 C-1.30964844 86.37242187 -0.43179688 86.36984375 0.47265625 86.3671875 C2.75 86.5 2.75 86.5 4.75 87.5 C7.0829866 87.54022391 9.41706666 87.54320247 11.75 87.5 C11.75 88.16 11.75 88.82 11.75 89.5 C14.225 89.995 14.225 89.995 16.75 90.5 C16.75 91.16 16.75 91.82 16.75 92.5 C17.74 92.5 18.73 92.5 19.75 92.5 C19.75 93.16 19.75 93.82 19.75 94.5 C20.74 94.83 21.73 95.16 22.75 95.5 C23.08 94.51 23.41 93.52 23.75 92.5 C20.06435916 90.04420303 20.06435916 90.04420303 15.75 89.5 C15.75 88.84 15.75 88.18 15.75 87.5 C6.92773464 83.57899317 -1.79165757 84.2245143 -11.25 84.5 Z M-13.25 92.5 C-13.25 93.16 -13.25 93.82 -13.25 94.5 C-14.3946875 94.685625 -14.3946875 94.685625 -15.5625 94.875 C-18.45267136 95.38102792 -18.45267136 95.38102792 -21.25 97.5 C-21.25 98.16 -21.25 98.82 -21.25 99.5 C-21.889375 99.768125 -22.52875 100.03625 -23.1875 100.3125 C-25.58131686 101.38667752 -25.58131686 101.38667752 -26.25 104.5 C-26.91 104.5 -27.57 104.5 -28.25 104.5 C-28.58 107.14 -28.91 109.78 -29.25 112.5 C-28.92 111.18 -28.59 109.86 -28.25 108.5 C-27.59 108.5 -26.93 108.5 -26.25 108.5 C-26.25 107.51 -26.25 106.52 -26.25 105.5 C-25.59 105.5 -24.93 105.5 -24.25 105.5 C-24.0025 104.695625 -23.755 103.89125 -23.5 103.0625 C-22.25 100.5 -22.25 100.5 -20.125 99.6875 C-19.50625 99.625625 -18.8875 99.56375 -18.25 99.5 C-18.25 98.84 -18.25 98.18 -18.25 97.5 C-17.26 97.5 -16.27 97.5 -15.25 97.5 C-15.25 96.84 -15.25 96.18 -15.25 95.5 C-13.29960175 95.26460711 -11.3491568 95.02959239 -9.3984375 94.796875 C-7.09420859 94.51053021 -7.09420859 94.51053021 -4.25 93.8125 C-0.83526751 93.4567987 1.570114 94.0418418 4.8203125 95.02734375 C7.06640362 95.65860439 7.06640362 95.65860439 10.75 95.5 C10.75 96.16 10.75 96.82 10.75 97.5 C11.74 97.5 12.73 97.5 13.75 97.5 C13.75 98.16 13.75 98.82 13.75 99.5 C16.225 99.995 16.225 99.995 18.75 100.5 C18.09 100.17 17.43 99.84 16.75 99.5 C16.75 98.84 16.75 98.18 16.75 97.5 C16.09 97.5 15.43 97.5 14.75 97.5 C14.75 96.84 14.75 96.18 14.75 95.5 C5.41484568 91.20582901 -3.20865304 90.82644217 -13.25 92.5 Z M-18.625 104.875 C-20.25872116 107.51408803 -20.90006185 109.43804116 -21.25 112.5 C-19.70833358 111.12514468 -19.70833358 111.12514468 -18.25 109.5 C-18.25 108.84 -18.25 108.18 -18.25 107.5 C-17.59 107.5 -16.93 107.5 -16.25 107.5 C-16.25 106.84 -16.25 106.18 -16.25 105.5 C-14.93 105.17 -13.61 104.84 -12.25 104.5 C-12.25 103.84 -12.25 103.18 -12.25 102.5 C-10.93 102.5 -9.61 102.5 -8.25 102.5 C-8.25 101.84 -8.25 101.18 -8.25 100.5 C-4.29 100.5 -0.33 100.5 3.75 100.5 C3.75 101.16 3.75 101.82 3.75 102.5 C7.55427492 104.7013866 7.55427492 104.7013866 11.75 105.5 C12.018125 106.139375 12.28625 106.77875 12.5625 107.4375 C13.63667752 109.83131686 13.63667752 109.83131686 16.75 110.5 C17.245 111.49 17.245 111.49 17.75 112.5 C17.255 110.025 17.255 110.025 16.75 107.5 C16.09 107.5 15.43 107.5 14.75 107.5 C14.75 106.84 14.75 106.18 14.75 105.5 C13.43 105.17 12.11 104.84 10.75 104.5 C10.75 103.84 10.75 103.18 10.75 102.5 C1.67406683 97.27823023 -10.94593643 97.19593643 -18.625 104.875 Z M-10.25 107.5 C-14.18394135 111.7617698 -15.59642398 114.53193214 -15.54296875 120.390625 C-15.07131989 123.78649682 -13.42760373 125.93811326 -11.25 128.5 C-10.59 128.5 -9.93 128.5 -9.25 128.5 C-9.0025 129.139375 -8.755 129.77875 -8.5 130.4375 C-7.43437567 132.68741541 -7.43437567 132.68741541 -5.125 133.25 C-4.50625 133.3325 -3.8875 133.415 -3.25 133.5 C-3.25 134.16 -3.25 134.82 -3.25 135.5 C-2.59 135.5 -1.93 135.5 -1.25 135.5 C-1.25 136.16 -1.25 136.82 -1.25 137.5 C0.4 137.83 2.05 138.16 3.75 138.5 C3.42 137.51 3.09 136.52 2.75 135.5 C1.76 135.5 0.77 135.5 -0.25 135.5 C-0.25 134.84 -0.25 134.18 -0.25 133.5 C-1.57 133.17 -2.89 132.84 -4.25 132.5 C-4.25 131.84 -4.25 131.18 -4.25 130.5 C-4.91 130.5 -5.57 130.5 -6.25 130.5 C-6.25 129.84 -6.25 129.18 -6.25 128.5 C-7.58333333 126.83333333 -7.58333333 126.83333333 -9.25 125.5 C-9.91 125.5 -10.57 125.5 -11.25 125.5 C-11.91 121.54 -12.57 117.58 -13.25 113.5 C-12.26 113.17 -11.27 112.84 -10.25 112.5 C-10.25 111.84 -10.25 111.18 -10.25 110.5 C-8.83800422 110.10777895 -7.42007236 109.73688941 -6 109.375 C-5.21109375 109.16617188 -4.4221875 108.95734375 -3.609375 108.7421875 C-0.79094055 108.452878 0.3206049 109.14475893 2.75 110.5 C3.74 110.5 4.73 110.5 5.75 110.5 C5.75 111.16 5.75 111.82 5.75 112.5 C6.41 112.5 7.07 112.5 7.75 112.5 C8.08 113.49 8.41 114.48 8.75 115.5 C9.74 115.5 10.73 115.5 11.75 115.5 C11.75 116.16 11.75 116.82 11.75 117.5 C12.41 117.5 13.07 117.5 13.75 117.5 C13.42 116.51 13.09 115.52 12.75 114.5 C12.09 114.5 11.43 114.5 10.75 114.5 C10.75 113.84 10.75 113.18 10.75 112.5 C10.09 112.5 9.43 112.5 8.75 112.5 C8.75 111.84 8.75 111.18 8.75 110.5 C7.43 110.17 6.11 109.84 4.75 109.5 C4.75 108.84 4.75 108.18 4.75 107.5 C-2.85978855 106.2295166 -2.85978855 106.2295166 -10.25 107.5 Z M-37.25 107.5 C-40.37030018 115.1057317 -39.81551504 121.80345487 -37.25 129.5 C-36.90864073 130.83130115 -36.57074044 132.16358148 -36.25 133.5 C-35.59 133.5 -34.93 133.5 -34.25 133.5 C-33.92 135.15 -33.59 136.8 -33.25 138.5 C-32.59 138.5 -31.93 138.5 -31.25 138.5 C-30.96125 139.098125 -30.6725 139.69625 -30.375 140.3125 C-29.20257974 142.69327792 -29.20257974 142.69327792 -27.25 145.5 C-26.59 145.5 -25.93 145.5 -25.25 145.5 C-25.25 146.16 -25.25 146.82 -25.25 147.5 C-24.63125 147.5825 -24.0125 147.665 -23.375 147.75 C-20.58061257 148.73625439 -20.533048 149.93390399 -19.25 152.5 C-17.19999129 153.30528889 -17.19999129 153.30528889 -15.25 153.5 C-15.25 154.16 -15.25 154.82 -15.25 155.5 C-13.93 155.83 -12.61 156.16 -11.25 156.5 C-11.25 157.16 -11.25 157.82 -11.25 158.5 C-10.26 158.5 -9.27 158.5 -8.25 158.5 C-8.58 157.51 -8.91 156.52 -9.25 155.5 C-9.91 155.5 -10.57 155.5 -11.25 155.5 C-11.25 154.84 -11.25 154.18 -11.25 153.5 C-12.9 153.17 -14.55 152.84 -16.25 152.5 C-16.25 151.84 -16.25 151.18 -16.25 150.5 C-16.91 150.5 -17.57 150.5 -18.25 150.5 C-18.25 149.84 -18.25 149.18 -18.25 148.5 C-18.86875 148.4175 -19.4875 148.335 -20.125 148.25 C-22.25 147.5 -22.25 147.5 -23.375 145.625 C-23.66375 144.92375 -23.9525 144.2225 -24.25 143.5 C-24.91 142.51 -25.57 141.52 -26.25 140.5 C-26.91 140.5 -27.57 140.5 -28.25 140.5 C-28.745 139.015 -28.745 139.015 -29.25 137.5 C-29.91 137.5 -30.57 137.5 -31.25 137.5 C-31.53875 136.7575 -31.8275 136.015 -32.125 135.25 C-33.14141104 132.61426517 -33.14141104 132.61426517 -34.25 130.6875 C-36.40980676 125.9629227 -37.7233216 120.70653764 -37.25 115.5 C-36.92 115.17 -36.59 114.84 -36.25 114.5 C-36.20907063 112.16702567 -36.20758277 109.83294775 -36.25 107.5 C-36.58 107.5 -36.91 107.5 -37.25 107.5 Z M-31.25 112.5 C-31.25 116.46 -31.25 120.42 -31.25 124.5 C-30.59 124.5 -29.93 124.5 -29.25 124.5 C-29.146875 125.758125 -29.04375 127.01625 -28.9375 128.3125 C-28.55413853 131.5799589 -28.55413853 131.5799589 -26.8125 134.3125 C-26.296875 134.704375 -25.78125 135.09625 -25.25 135.5 C-24.59 136.49 -23.93 137.48 -23.25 138.5 C-22.59 138.5 -21.93 138.5 -21.25 138.5 C-21.25 139.16 -21.25 139.82 -21.25 140.5 C-20.59 140.5 -19.93 140.5 -19.25 140.5 C-18.92 141.49 -18.59 142.48 -18.25 143.5 C-15.449326 146.30618008 -15.449326 146.30618008 -12.25 148.5 C-10.765 148.005 -10.765 148.005 -9.25 147.5 C-10.87339805 145.79115995 -12.54319053 144.12553283 -14.25 142.5 C-14.91 142.5 -15.57 142.5 -16.25 142.5 C-16.25 141.84 -16.25 141.18 -16.25 140.5 C-16.91 140.5 -17.57 140.5 -18.25 140.5 C-18.58 139.51 -18.91 138.52 -19.25 137.5 C-19.91 137.5 -20.57 137.5 -21.25 137.5 C-21.4975 136.96375 -21.745 136.4275 -22 135.875 C-23.23904305 133.36695034 -23.23904305 133.36695034 -25.25 130.84375 C-27.48858713 127.10111214 -28.10451223 123.87649353 -28.5 119.625 C-28.57734375 118.93664062 -28.6546875 118.24828125 -28.734375 117.5390625 C-28.92083402 115.86093135 -29.08749729 114.18062012 -29.25 112.5 C-29.91 112.5 -30.57 112.5 -31.25 112.5 Z M-23.25 112.5 C-23.30449838 114.22880982 -23.34301688 115.95812712 -23.375 117.6875 C-23.39820313 118.65042969 -23.42140625 119.61335938 -23.4453125 120.60546875 C-23.2413544 123.62812778 -22.51874632 125.76769985 -21.25 128.5 C-20.59 128.5 -19.93 128.5 -19.25 128.5 C-19.146875 129.098125 -19.04375 129.69625 -18.9375 130.3125 C-18.15175967 132.81258286 -17.28081147 133.87535082 -15.25 135.5 C-14.59 135.5 -13.93 135.5 -13.25 135.5 C-13.25 136.16 -13.25 136.82 -13.25 137.5 C-11.53502228 139.08826222 -11.53502228 139.08826222 -9.375 140.625 C-8.65570313 141.16382813 -7.93640625 141.70265625 -7.1953125 142.2578125 C-5.35373994 143.67939632 -5.35373994 143.67939632 -3.25 143.5 C-3.25 142.51 -3.25 141.52 -3.25 140.5 C-4.24 140.5 -5.23 140.5 -6.25 140.5 C-6.25 139.84 -6.25 139.18 -6.25 138.5 C-7.57 138.17 -8.89 137.84 -10.25 137.5 C-10.25 136.84 -10.25 136.18 -10.25 135.5 C-11.58333333 133.83333333 -11.58333333 133.83333333 -13.25 132.5 C-13.91 132.5 -14.57 132.5 -15.25 132.5 C-15.58 131.51 -15.91 130.52 -16.25 129.5 C-16.91 129.5 -17.57 129.5 -18.25 129.5 C-20.50433614 123.93930418 -20.84961828 118.4214349 -21.25 112.5 C-21.91 112.5 -22.57 112.5 -23.25 112.5 Z M-6.25 114.5 C-7.46690533 116.26529595 -7.46690533 116.26529595 -8.25 118.5 C-7.0598656 121.64625956 -5.41685409 123.52858899 -2.875 125.6875 C-2.28976563 126.19667969 -1.70453125 126.70585937 -1.1015625 127.23046875 C0.86024909 128.57559273 2.426089 129.07514402 4.75 129.5 C4.75 128.84 4.75 128.18 4.75 127.5 C4.09 127.5 3.43 127.5 2.75 127.5 C2.75 126.84 2.75 126.18 2.75 125.5 C0.11315253 123.10179695 0.11315253 123.10179695 -3.25 122.5 C-3.25 121.84 -3.25 121.18 -3.25 120.5 C-3.91 120.5 -4.57 120.5 -5.25 120.5 C-5.25 118.85 -5.25 117.2 -5.25 115.5 C-3.6 115.5 -1.95 115.5 -0.25 115.5 C-0.25 116.16 -0.25 116.82 -0.25 117.5 C0.41 117.5 1.07 117.5 1.75 117.5 C1.75 118.16 1.75 118.82 1.75 119.5 C3.37626404 120.88232443 5.0425002 122.21937515 6.75 123.5 C7.41 123.17 8.07 122.84 8.75 122.5 C8.75 121.84 8.75 121.18 8.75 120.5 C7.43 120.17 6.11 119.84 4.75 119.5 C4.75 118.84 4.75 118.18 4.75 117.5 C4.09 117.5 3.43 117.5 2.75 117.5 C2.75 116.84 2.75 116.18 2.75 115.5 C-0.20664519 114.0216774 -2.99229737 114.43967217 -6.25 114.5 Z M28.75 138.5 C29.75 142.5 29.75 142.5 29.75 142.5 Z M39.75 138.5 C40.75 140.5 40.75 140.5 40.75 140.5 Z M-37.25 142.5 C-36.92 143.82 -36.59 145.14 -36.25 146.5 C-35.59 146.5 -34.93 146.5 -34.25 146.5 C-34.1675 147.098125 -34.085 147.69625 -34 148.3125 C-33.03423221 151.12932273 -31.76131433 151.97799132 -29.25 153.5 C-28.59 153.5 -27.93 153.5 -27.25 153.5 C-26.92 154.49 -26.59 155.48 -26.25 156.5 C-25.59 156.5 -24.93 156.5 -24.25 156.5 C-24.25 157.16 -24.25 157.82 -24.25 158.5 C-23.26 158.5 -22.27 158.5 -21.25 158.5 C-21.25 159.16 -21.25 159.82 -21.25 160.5 C-19.93 160.83 -18.61 161.16 -17.25 161.5 C-17.25 162.16 -17.25 162.82 -17.25 163.5 C-16.26 163.5 -15.27 163.5 -14.25 163.5 C-14.25 164.16 -14.25 164.82 -14.25 165.5 C-13.26 165.5 -12.27 165.5 -11.25 165.5 C-11.25 164.84 -11.25 164.18 -11.25 163.5 C-13.8114657 161.20351351 -14.72967572 160.5 -18.25 160.5 C-18.25 159.84 -18.25 159.18 -18.25 158.5 C-20.88684747 156.10179695 -20.88684747 156.10179695 -24.25 155.5 C-24.25 154.84 -24.25 154.18 -24.25 153.5 C-25.57 153.17 -26.89 152.84 -28.25 152.5 C-28.353125 151.901875 -28.45625 151.30375 -28.5625 150.6875 C-29.34824033 148.18741714 -30.21918853 147.12464918 -32.25 145.5 C-32.91 145.5 -33.57 145.5 -34.25 145.5 C-34.58 144.51 -34.91 143.52 -35.25 142.5 C-35.91 142.5 -36.57 142.5 -37.25 142.5 Z M-34.25 155.5 C-34.16626518 158.34698394 -33.65889548 160.051161 -31.73046875 162.16796875 C-28.0511824 165.65151296 -28.0511824 165.65151296 -23.25 166.5 C-23.25 167.16 -23.25 167.82 -23.25 168.5 C-22.71890625 168.75394531 -22.1878125 169.00789062 -21.640625 169.26953125 C-17.89194178 171.09598822 -14.55130778 172.93231617 -11.25 175.5 C-10.26 175.83 -9.27 176.16 -8.25 176.5 C-8.25 175.51 -8.25 174.52 -8.25 173.5 C-9.24 173.5 -10.23 173.5 -11.25 173.5 C-11.25 172.84 -11.25 172.18 -11.25 171.5 C-13.725 171.005 -13.725 171.005 -16.25 170.5 C-16.25 169.84 -16.25 169.18 -16.25 168.5 C-19.15548882 166.45830515 -20.65142046 165.5 -24.25 165.5 C-24.25 164.84 -24.25 164.18 -24.25 163.5 C-24.91 163.5 -25.57 163.5 -26.25 163.5 C-26.25 162.84 -26.25 162.18 -26.25 161.5 C-26.889375 161.396875 -27.52875 161.29375 -28.1875 161.1875 C-28.868125 160.960625 -29.54875 160.73375 -30.25 160.5 C-30.58 159.51 -30.91 158.52 -31.25 157.5 C-31.91 157.5 -32.57 157.5 -33.25 157.5 C-33.58 156.84 -33.91 156.18 -34.25 155.5 Z M-27.25 171.5 C-27.25 172.49 -27.25 173.48 -27.25 174.5 C-24.43490007 176.7773501 -24.43490007 176.7773501 -21.25 176.5 C-21.25 177.16 -21.25 177.82 -21.25 178.5 C-18.34451118 180.54169485 -16.84857954 181.5 -13.25 181.5 C-13.25 182.16 -13.25 182.82 -13.25 183.5 C-12.59 183.5 -11.93 183.5 -11.25 183.5 C-11.25 182.51 -11.25 181.52 -11.25 180.5 C-12.57 180.5 -13.89 180.5 -15.25 180.5 C-15.25 179.84 -15.25 179.18 -15.25 178.5 C-16.24 178.5 -17.23 178.5 -18.25 178.5 C-18.25 177.84 -18.25 177.18 -18.25 176.5 C-19.9 176.17 -21.55 175.84 -23.25 175.5 C-23.25 174.84 -23.25 174.18 -23.25 173.5 C-24.57 172.84 -25.89 172.18 -27.25 171.5 Z M-28.25 180.5 C-27.09434349 183.03884453 -27.09434349 183.03884453 -25.25 185.5 C-22.65877257 186.38658466 -22.65877257 186.38658466 -20.25 186.5 C-20.25 187.16 -20.25 187.82 -20.25 188.5 C-19.1775 188.995 -18.105 189.49 -17 190 C-16.39671875 190.2784375 -15.7934375 190.556875 -15.171875 190.84375 C-12.95757164 191.71542924 -12.95757164 191.71542924 -9.25 191.5 C-9.25 192.16 -9.25 192.82 -9.25 193.5 C-6.775 193.995 -6.775 193.995 -4.25 194.5 C-6.06222534 192.4375006 -6.06222534 192.4375006 -8.25 190.5 C-9.24 190.5 -10.23 190.5 -11.25 190.5 C-11.25 189.84 -11.25 189.18 -11.25 188.5 C-16.06209901 186.20954986 -16.06209901 186.20954986 -21.25 185.5 C-21.25 184.84 -21.25 184.18 -21.25 183.5 C-24.47114157 181.18407978 -24.47114157 181.18407978 -28.25 180.5 Z M-21.25 193.5 C-20.52368601 196.84855923 -20.52368601 196.84855923 -16.9375 198.1875 C-13.27428443 199.72354978 -13.27428443 199.72354978 -9.25 199.5 C-9.25 200.16 -9.25 200.82 -9.25 201.5 C-6.94 202.16 -4.63 202.82 -2.25 203.5 C-1.59 202.84 -0.93 202.18 -0.25 201.5 C-1.49663331 200.99166409 -2.74749387 200.49368855 -4 200 C-4.69609375 199.7215625 -5.3921875 199.443125 -6.109375 199.15625 C-8.51422695 198.30459673 -8.51422695 198.30459673 -12.25 198.5 C-12.25 197.84 -12.25 197.18 -12.25 196.5 C-15.22 195.51 -18.19 194.52 -21.25 193.5 Z " fill="#000000" transform="translate(190.25,46.5)"/>
<path d="M0 0 C1.32 0 2.64 0 4 0 C7 6.625 7 6.625 7 10 C7.66 10 8.32 10 9 10 C9.495 12.475 9.495 12.475 10 15 C10.66 15 11.32 15 12 15 C12 15.99 12 16.98 12 18 C12.66 18 13.32 18 14 18 C15.00824858 20.41979659 15.93602818 22.67100208 16.4375 25.25 C16.623125 25.8275 16.80875 26.405 17 27 C17.99 27.33 18.98 27.66 20 28 C20 28.66 20 29.32 20 30 C20.66 30 21.32 30 22 30 C25 35.75 25 35.75 25 38 C25.66 38 26.32 38 27 38 C28.9453125 40.1171875 28.9453125 40.1171875 31.125 42.875 C31.84945312 43.77992188 32.57390625 44.68484375 33.3203125 45.6171875 C35 48 35 48 35 50 C35.66 50 36.32 50 37 50 C37.556875 50.70125 38.11375 51.4025 38.6875 52.125 C41.0866637 55.10774407 43.6302638 57.29594533 46.609375 59.66796875 C47.06828125 60.10753906 47.5271875 60.54710937 48 61 C48 61.66 48 62.32 48 63 C48.66 63 49.32 63 50 63 C51.625 64.375 51.625 64.375 53 66 C53 66.66 53 67.32 53 68 C53.61875 68.309375 54.2375 68.61875 54.875 68.9375 C56.25 69.625 57.625 70.3125 59 71 C59 71.66 59 72.32 59 73 C61.33214148 74.20628008 63.49642139 75.1654738 66 76 C65.67 78.31 65.34 80.62 65 83 C64.01 83 63.02 83 62 83 C62 83.66 62 84.32 62 85 C60.68 85.33 59.36 85.66 58 86 C58 86.66 58 87.32 58 88 C53.61538462 91 53.61538462 91 51 91 C51 91.66 51 92.32 51 93 C49.515 93.495 49.515 93.495 48 94 C47.67 94.66 47.34 95.32 47 96 C46.34 96 45.68 96 45 96 C45 96.66 45 97.32 45 98 C40.61538462 101 40.61538462 101 38 101 C38 101.66 38 102.32 38 103 C35.525 103.495 35.525 103.495 33 104 C32.505 105.98 32.505 105.98 32 108 C30.35 108 28.7 108 27 108 C27 107.34 27 106.68 27 106 C26.39671875 105.82984375 25.7934375 105.6596875 25.171875 105.484375 C20.39367367 104.03550105 17.34558964 102.86029574 14 99 C13.01 98.67 12.02 98.34 11 98 C11 97.34 11 96.68 11 96 C9.68 95.67 8.36 95.34 7 95 C7 94.34 7 93.68 7 93 C6.01 93 5.02 93 4 93 C4 92.34 4 91.68 4 91 C3.01 90.7215625 3.01 90.7215625 2 90.4375 C-1.63406905 88.69617525 -4.18068357 86.36715439 -7.1328125 83.65625 C-9.10343191 81.83198095 -9.10343191 81.83198095 -12 80 C-12 79.34 -12 78.68 -12 78 C-12.66 78 -13.32 78 -14 78 C-15.7265625 76.3203125 -15.7265625 76.3203125 -17.625 74.125 C-18.25664063 73.40570313 -18.88828125 72.68640625 -19.5390625 71.9453125 C-21 70 -21 70 -21 68 C-21.66 68 -22.32 68 -23 68 C-24.4941836 64.55621383 -25.19843472 62.71043374 -24.171875 59.03515625 C-23.70265625 58.05417969 -23.2334375 57.07320312 -22.75 56.0625 C-20.76434243 51.71785959 -19.15688234 47.62752934 -18 43 C-17.34 43 -16.68 43 -16 43 C-15.896875 42.34 -15.79375 41.68 -15.6875 41 C-14.99877637 37.99466052 -14.00999396 35.20837548 -12.8984375 32.3359375 C-11.8344831 29.56965607 -10.82248631 26.78641614 -9.8125 24 C-9.29623047 22.576875 -9.29623047 22.576875 -8.76953125 21.125 C-8.38861328 20.073125 -8.38861328 20.073125 -8 19 C-7.34 19 -6.68 19 -6 19 C-5.896875 18.319375 -5.79375 17.63875 -5.6875 16.9375 C-4.86162863 13.40877689 -3.43374548 10.32628952 -2 7 C-1.25837921 4.68017399 -0.62486828 2.35527276 0 0 Z " fill="#000000" transform="translate(71,190)"/>
<path d="M0 0 C0.99 0 1.98 0 3 0 C3 1.32 3 2.64 3 4 C3.66 4 4.32 4 5 4 C5 5.65 5 7.3 5 9 C5.66 9 6.32 9 7 9 C7.24234375 9.70125 7.4846875 10.4025 7.734375 11.125 C9.30767792 15.57865751 10.86646272 19.93641924 13.0625 24.125 C15.64178953 29.06948784 18 34.36960549 18 40 C18.66 40 19.32 40 20 40 C22.14285714 47.42857143 22.14285714 47.42857143 23 51 C23.66 51 24.32 51 25 51 C25.13277344 51.63808594 25.26554687 52.27617187 25.40234375 52.93359375 C25.57894531 53.75988281 25.75554687 54.58617187 25.9375 55.4375 C26.11152344 56.26121094 26.28554688 57.08492187 26.46484375 57.93359375 C26.80752994 59.97661204 26.80752994 59.97661204 28 61 C28.04063832 62.66617115 28.042721 64.33388095 28 66 C27.34 66 26.68 66 26 66 C25.896875 66.598125 25.79375 67.19625 25.6875 67.8125 C24.90175967 70.31258286 24.03081147 71.37535082 22 73 C21.34 73 20.68 73 20 73 C20 73.66 20 74.32 20 75 C18.625 76.625 18.625 76.625 17 78 C16.34 78 15.68 78 15 78 C15 78.66 15 79.32 15 80 C10.52941176 84 10.52941176 84 8 84 C8 84.66 8 85.32 8 86 C7.34 86 6.68 86 6 86 C6 86.66 6 87.32 6 88 C2.53846154 91 2.53846154 91 0 91 C0 91.66 0 92.32 0 93 C-4.38461538 96 -4.38461538 96 -7 96 C-7 96.66 -7 97.32 -7 98 C-9.475 98.495 -9.475 98.495 -12 99 C-12 99.66 -12 100.32 -12 101 C-12.99 101 -13.98 101 -15 101 C-15 101.66 -15 102.32 -15 103 C-17.97 103.495 -17.97 103.495 -21 104 C-21 104.66 -21 105.32 -21 106 C-21.99 106 -22.98 106 -24 106 C-24 106.66 -24 107.32 -24 108 C-25.32 108 -26.64 108 -28 108 C-28 107.34 -28 106.68 -28 106 C-28.66 106 -29.32 106 -30 106 C-30 105.34 -30 104.68 -30 104 C-30.7425 103.9175 -31.485 103.835 -32.25 103.75 C-35.53523197 102.85402764 -36.74598154 101.48719278 -39 99 C-39.66 98.67 -40.32 98.34 -41 98 C-41 97.34 -41 96.68 -41 96 C-41.66 96 -42.32 96 -43 96 C-43 95.34 -43 94.68 -43 94 C-43.7425 93.9175 -44.485 93.835 -45.25 93.75 C-48.53523197 92.85402764 -49.74598154 91.48719278 -52 89 C-52.66 88.67 -53.32 88.34 -54 88 C-54 87.34 -54 86.68 -54 86 C-55.32 85.67 -56.64 85.34 -58 85 C-58 84.34 -58 83.68 -58 83 C-58.99 83 -59.98 83 -61 83 C-61 82.34 -61 81.68 -61 81 C-61.66 81 -62.32 81 -63 81 C-63 79.35 -63 77.7 -63 76 C-56.375 72.125 -56.375 72.125 -53 71 C-52.67 70.01 -52.34 69.02 -52 68 C-51.34 68 -50.68 68 -50 68 C-50 67.34 -50 66.68 -50 66 C-48.02 65.505 -48.02 65.505 -46 65 C-46 64.34 -46 63.68 -46 63 C-45.34 63 -44.68 63 -44 63 C-43.67 62.01 -43.34 61.02 -43 60 C-42.34 60 -41.68 60 -41 60 C-41 59.34 -41 58.68 -41 58 C-40.34 58 -39.68 58 -39 58 C-38.67 57.01 -38.34 56.02 -38 55 C-37.34 55 -36.68 55 -36 55 C-35.896875 54.401875 -35.79375 53.80375 -35.6875 53.1875 C-34.90175967 50.68741714 -34.03081147 49.62464918 -32 48 C-31.34 48 -30.68 48 -30 48 C-29.731875 47.236875 -29.46375 46.47375 -29.1875 45.6875 C-28.04865495 43.11011382 -27.18583329 41.73045136 -25 40 C-24.34 40 -23.68 40 -23 40 C-23 39.01 -23 38.02 -23 37 C-22.34 37 -21.68 37 -21 37 C-20.731875 36.2575 -20.46375 35.515 -20.1875 34.75 C-19.0520938 32.12063827 -17.72989641 30.25638662 -16 28 C-15.505 26.515 -15.505 26.515 -15 25 C-14.34 25 -13.68 25 -13 25 C-12.73445313 24.29488281 -12.46890625 23.58976562 -12.1953125 22.86328125 C-10.93501033 19.84432214 -9.46042006 17.04814924 -7.875 14.1875 C-7.33617187 13.21167969 -6.79734375 12.23585937 -6.2421875 11.23046875 C-5.83226562 10.49441406 -5.42234375 9.75835937 -5 9 C-4.34 9 -3.68 9 -3 9 C-2.814375 7.329375 -2.814375 7.329375 -2.625 5.625 C-2 2 -2 2 0 0 Z " fill="#000000" transform="translate(263,190)"/>
<path d="M0 0 C3.96 0 7.92 0 12 0 C16 6.5 16 6.5 16 11 C16.66 11 17.32 11 18 11 C18.33 13.97 18.66 16.94 19 20 C19.66 20 20.32 20 21 20 C21 21.65 21 23.3 21 25 C21.66 25 22.32 25 23 25 C23.66 26.98 24.32 28.96 25 31 C25.33 29.35 25.66 27.7 26 26 C26.66 26 27.32 26 28 26 C28.33 23.36 28.66 20.72 29 18 C29.66 18 30.32 18 31 18 C31 16.35 31 14.7 31 13 C31.66 13 32.32 13 33 13 C33.03738281 12.39671875 33.07476562 11.7934375 33.11328125 11.171875 C33.17902344 10.37265625 33.24476563 9.5734375 33.3125 8.75 C33.39951172 7.56664062 33.39951172 7.56664062 33.48828125 6.359375 C34.11946613 3.44917906 34.82089661 2.04464808 37 0 C39.84765625 -0.42578125 39.84765625 -0.42578125 43.0625 -0.3125 C44.65771484 -0.27576172 44.65771484 -0.27576172 46.28515625 -0.23828125 C49 0 49 0 51 1 C51 24.43 51 47.86 51 72 C46.51793698 74.24103151 41.01109879 73 36 73 C35.67 63.1 35.34 53.2 35 43 C34.34 46.63 33.68 50.26 33 54 C32.67 54 32.34 54 32 54 C31.01 56.97 30.02 59.94 29 63 C26.03 63 23.06 63 20 63 C19.54105193 61.47935206 19.08287786 59.95847052 18.625 58.4375 C18.36976563 57.59058594 18.11453125 56.74367188 17.8515625 55.87109375 C16.87758548 52.58727214 15.93667036 49.29463619 15 46 C14.97494385 46.74685059 14.9498877 47.49370117 14.92407227 48.26318359 C14.80831787 51.63397267 14.68549872 55.00446783 14.5625 58.375 C14.50352539 60.1384375 14.50352539 60.1384375 14.44335938 61.9375 C14.40146484 63.05898438 14.35957031 64.18046875 14.31640625 65.3359375 C14.27974854 66.37282715 14.24309082 67.4097168 14.20532227 68.47802734 C14 71 14 71 13 73 C10.85423363 73.02685938 8.70837355 73.04633088 6.5625 73.0625 C5.36753906 73.07410156 4.17257813 73.08570313 2.94140625 73.09765625 C0 73 0 73 -1 72 C-1.09956194 69.83266739 -1.12799718 67.66204941 -1.12939453 65.49243164 C-1.13114685 64.81274826 -1.13289917 64.13306488 -1.13470459 63.43278503 C-1.13912303 61.17521649 -1.13618484 58.91772565 -1.1328125 56.66015625 C-1.13348562 55.09695928 -1.13445571 53.53376241 -1.13571167 51.9705658 C-1.13718869 48.68943285 -1.13503423 45.40832707 -1.13037109 42.12719727 C-1.1246785 37.91579299 -1.1279498 33.7044525 -1.13394356 29.49305058 C-1.13755306 26.26321429 -1.13640871 23.03339318 -1.13381577 19.80355644 C-1.13314733 18.25057404 -1.13397202 16.69759026 -1.13629532 15.14460945 C-1.13882769 12.97535669 -1.13497277 10.80620789 -1.12939453 8.63696289 C-1.12859894 7.40087784 -1.12780334 6.16479279 -1.12698364 4.89125061 C-1 2 -1 2 0 0 Z M13 39 C14 41 14 41 14 41 Z " fill="#000000" transform="translate(133,339)"/>
<path d="M0 0 C1.06992188 -0.03738281 2.13984375 -0.07476562 3.2421875 -0.11328125 C6.125 0.3125 6.125 0.3125 8.0078125 2.08203125 C9.125 4.3125 9.125 4.3125 9.125 8.3125 C9.785 8.3125 10.445 8.3125 11.125 8.3125 C11.63012244 9.91506108 12.12891627 11.51961792 12.625 13.125 C12.9034375 14.01832031 13.181875 14.91164063 13.46875 15.83203125 C14.125 18.3125 14.125 18.3125 14.125 21.3125 C14.785 21.3125 15.445 21.3125 16.125 21.3125 C16.785 23.9525 17.445 26.5925 18.125 29.3125 C18.15005615 28.46953369 18.1751123 27.62656738 18.20092773 26.75805664 C18.29588155 23.64008326 18.39512448 20.52228497 18.49731445 17.40454102 C18.54071223 16.05335853 18.5823837 14.70211947 18.62231445 13.35083008 C18.67989952 11.41213299 18.74414298 9.47363724 18.80859375 7.53515625 C18.84525146 6.36734619 18.88190918 5.19953613 18.91967773 3.99633789 C19.125 1.3125 19.125 1.3125 20.125 0.3125 C22.28980797 0.2135706 24.45793785 0.182789 26.625 0.1875 C27.8109375 0.18492187 28.996875 0.18234375 30.21875 0.1796875 C33.125 0.3125 33.125 0.3125 34.125 1.3125 C34.22460152 3.51574974 34.25299757 5.7222349 34.25439453 7.92773438 C34.25614685 8.61877762 34.25789917 9.30982086 34.25970459 10.02180481 C34.26412254 12.31664507 34.26118533 14.61140889 34.2578125 16.90625 C34.25848556 18.49426285 34.25945559 20.08227559 34.26071167 21.67028809 C34.26218857 25.0026955 34.26003436 28.33507616 34.25537109 31.66748047 C34.2496738 35.9484851 34.25295285 40.22942705 34.25894356 44.51042938 C34.2625494 47.79083736 34.26141048 51.07123037 34.25881577 54.35163879 C34.25814656 55.9305675 34.2589747 57.50949754 34.26129532 59.08842468 C34.26382223 61.29140853 34.25998075 63.49428949 34.25439453 65.69726562 C34.25359894 66.95333618 34.25280334 68.20940674 34.25198364 69.50354004 C34.125 72.3125 34.125 72.3125 33.125 73.3125 C31.17330439 73.5164085 29.21136576 73.6263543 27.25 73.6875 C26.18007812 73.73648438 25.11015625 73.78546875 24.0078125 73.8359375 C21.125 73.3125 21.125 73.3125 19.3671875 71.0546875 C18.95726563 70.14976562 18.54734375 69.24484375 18.125 68.3125 C17.774375 67.60609375 17.42375 66.8996875 17.0625 66.171875 C11.125 52.8125 11.125 52.8125 11.125 46.3125 C10.465 46.3125 9.805 46.3125 9.125 46.3125 C9.09994385 47.05935059 9.0748877 47.80620117 9.04907227 48.57568359 C8.93331787 51.94647267 8.81049872 55.31696783 8.6875 58.6875 C8.62852539 60.4509375 8.62852539 60.4509375 8.56835938 62.25 C8.52646484 63.37148438 8.48457031 64.49296875 8.44140625 65.6484375 C8.40474854 66.68532715 8.36809082 67.7222168 8.33032227 68.79052734 C8.125 71.3125 8.125 71.3125 7.125 73.3125 C4.97923363 73.33935938 2.83337355 73.35883088 0.6875 73.375 C-0.50746094 73.38660156 -1.70242187 73.39820313 -2.93359375 73.41015625 C-5.875 73.3125 -5.875 73.3125 -6.875 72.3125 C-6.97460152 70.10925026 -7.00299757 67.9027651 -7.00439453 65.69726562 C-7.00614685 65.00622238 -7.00789917 64.31517914 -7.00970459 63.60319519 C-7.01412254 61.30835493 -7.01118533 59.01359111 -7.0078125 56.71875 C-7.00848556 55.13073715 -7.00945559 53.54272441 -7.01071167 51.95471191 C-7.01218857 48.6223045 -7.01003436 45.28992384 -7.00537109 41.95751953 C-6.9996738 37.6765149 -7.00295285 33.39557295 -7.00894356 29.11457062 C-7.0125494 25.83416264 -7.01141048 22.55376963 -7.00881577 19.27336121 C-7.00814656 17.6944325 -7.0089747 16.11550246 -7.01129532 14.53657532 C-7.01382223 12.33359147 -7.00998075 10.13071051 -7.00439453 7.92773438 C-7.00359894 6.67166382 -7.00280334 5.41559326 -7.00198364 4.12145996 C-6.77771331 -0.83954433 -4.44983445 0.10137513 0 0 Z M19.125 33.3125 C20.125 35.3125 20.125 35.3125 20.125 35.3125 Z " fill="#000000" transform="translate(91.875,338.6875)"/>
<path d="M0 0 C5.44693314 -0.09688221 10.63904667 -0.12862175 16 1 C16.23268915 7.28260706 15.40454548 12.88019467 14 19 C13.34 19 12.68 19 12 19 C12 20.65 12 22.3 12 24 C11.34 24 10.68 24 10 24 C9.67 26.64 9.34 29.28 9 32 C8.34 32 7.68 32 7 32 C6.896875 32.639375 6.79375 33.27875 6.6875 33.9375 C5.61162031 38.73005496 4.20213423 43.59573154 2 48 C-0.79173055 48.02690104 -3.58320348 48.04679053 -6.375 48.0625 C-7.1690625 48.07087891 -7.963125 48.07925781 -8.78125 48.08789062 C-14.7734375 48.11328125 -14.7734375 48.11328125 -17 47 C-19.1462701 43.28530176 -20 41.35855288 -20 37 C-20.66 37 -21.32 37 -22 37 C-22 35.35 -22 33.7 -22 32 C-22.66 32 -23.32 32 -24 32 C-24.495 28.04 -24.495 28.04 -25 24 C-25.66 24 -26.32 24 -27 24 C-27 22.35 -27 20.7 -27 19 C-27.66 19 -28.32 19 -29 19 C-29.33 17.35 -29.66 15.7 -30 14 C-34.29 14 -38.58 14 -43 14 C-43 24.89 -43 35.78 -43 47 C-48.61 47 -54.22 47 -60 47 C-60 36.11 -60 25.22 -60 14 C-63.63 14 -67.26 14 -71 14 C-71 10.04 -71 6.08 -71 2 C-65.59642242 1.85487535 -60.19277918 1.71260362 -54.7890625 1.57275391 C-52.9583137 1.52499803 -51.12758359 1.47651914 -49.296875 1.42724609 C-37.86098913 1.12003205 -26.44036756 0.92718295 -15 1 C-15 1.99 -15 2.98 -15 4 C-14.34 4 -13.68 4 -13 4 C-12.01751476 8.0527516 -11.91840426 11.83861737 -12 16 C-11.34 16 -10.68 16 -10 16 C-10 17.98 -10 19.96 -10 22 C-9.34 22 -8.68 22 -8 22 C-7.505 23.98 -7.505 23.98 -7 26 C-6.34 26 -5.68 26 -5 26 C-4.814375 24.576875 -4.814375 24.576875 -4.625 23.125 C-4.06798492 19.19406501 -3.2726877 15.32506021 -2.47265625 11.4375 C-2.05693114 9.29359528 -1.72158931 7.16448997 -1.4375 5 C-1 2 -1 2 0 0 Z M-7 29 C-6 31 -6 31 -6 31 Z " fill="#000000" transform="translate(418,339)"/>
<path d="M0 0 C0.98162109 -0.020625 1.96324219 -0.04125 2.97460938 -0.0625 C8.89392138 -0.09426023 13.06659263 0.46196531 18.3125 3.25 C18.3125 3.91 18.3125 4.57 18.3125 5.25 C19.7975 5.745 19.7975 5.745 21.3125 6.25 C22 8.3125 22 8.3125 22.3125 10.25 C22.9725 10.25 23.6325 10.25 24.3125 10.25 C26.35308926 18.1762558 26.934099 25.38520301 24.3125 33.25 C23.6525 33.25 22.9925 33.25 22.3125 33.25 C22.3125 33.91 22.3125 34.57 22.3125 35.25 C21.6525 35.25 20.9925 35.25 20.3125 35.25 C20.951875 35.8275 21.59125 36.405 22.25 37 C25.99783231 41.08854434 25.52309555 45.72812192 25.5625 51.0625 C25.583125 51.74892578 25.60375 52.43535156 25.625 53.14257812 C25.66348381 58.22725127 24.57439967 61.69643883 22.3125 66.25 C21.6525 66.25 20.9925 66.25 20.3125 66.25 C19.8175 67.735 19.8175 67.735 19.3125 69.25 C18.6525 69.25 17.9925 69.25 17.3125 69.25 C17.3125 69.91 17.3125 70.57 17.3125 71.25 C11.59220895 73.71128169 6.16880507 73.51303372 0.0625 73.4375 C-0.94296875 73.43685547 -1.9484375 73.43621094 -2.984375 73.43554688 C-10.40618622 73.39065689 -10.40618622 73.39065689 -12.6875 72.25 C-12.6875 48.82 -12.6875 25.39 -12.6875 1.25 C-8.86637162 -0.66056419 -4.20348704 0.02165351 0 0 Z M2.3125 15.25 C2.3125 20.2 2.3125 25.15 2.3125 30.25 C7.7999632 30.7557195 7.7999632 30.7557195 10.125 29.1875 C11.95335164 26.20439996 12.19275472 23.72261317 12.3125 20.25 C11.51822041 17.23049847 11.51822041 17.23049847 9.3125 15.25 C7.0025 15.25 4.6925 15.25 2.3125 15.25 Z M2.3125 43.25 C2.3125 48.2 2.3125 53.15 2.3125 58.25 C4.6225 58.25 6.9325 58.25 9.3125 58.25 C9.3125 57.59 9.3125 56.93 9.3125 56.25 C9.9725 56.25 10.6325 56.25 11.3125 56.25 C12.54871824 53.77756353 12.29658601 52.47682061 12 49.75 C11.92136719 48.9559375 11.84273437 48.161875 11.76171875 47.34375 C11.4659758 45.04145091 11.4659758 45.04145091 9.3125 43.25 C7.0025 43.25 4.6925 43.25 2.3125 43.25 Z " fill="#000000" transform="translate(240.6875,338.75)"/>
<path d="M0 0 C5.29043941 4.25815855 8.46878025 8.85182465 9.25390625 15.65625 C9.7950073 23.417892 9.5015945 31.19359498 9.265625 38.96289062 C9.18683963 41.58447393 9.12008978 44.20617704 9.0546875 46.828125 C9.00851704 48.5000196 8.96166707 50.17189561 8.9140625 51.84375 C8.89421295 52.62496216 8.8743634 53.40617432 8.85391235 54.21105957 C8.7521933 57.39374763 8.57565639 60.02303082 7.5625 63.0625 C6.9025 63.0625 6.2425 63.0625 5.5625 63.0625 C5.48 63.660625 5.3975 64.25875 5.3125 64.875 C4.33955573 67.71275411 3.11800687 68.55926067 0.5625 70.0625 C-0.4275 70.0625 -1.4175 70.0625 -2.4375 70.0625 C-2.4375 70.7225 -2.4375 71.3825 -2.4375 72.0625 C-4.66639496 72.11678973 -6.89567471 72.15542338 -9.125 72.1875 C-10.36636719 72.21070313 -11.60773438 72.23390625 -12.88671875 72.2578125 C-16.24987857 72.07282021 -18.4360587 71.52017895 -21.4375 70.0625 C-21.4375 69.4025 -21.4375 68.7425 -21.4375 68.0625 C-22.05625 68.02125 -22.675 67.98 -23.3125 67.9375 C-24.01375 67.64875 -24.715 67.36 -25.4375 67.0625 C-26.6875 64 -26.6875 64 -27.4375 61.0625 C-28.0975 61.0625 -28.7575 61.0625 -29.4375 61.0625 C-29.48818569 54.01500518 -29.52322754 46.96755732 -29.54736328 39.91992188 C-29.55742445 37.52211755 -29.57107479 35.1243255 -29.58837891 32.7265625 C-29.6126218 29.28121918 -29.62398198 25.83603801 -29.6328125 22.390625 C-29.64313507 21.31758118 -29.65345764 20.24453735 -29.66409302 19.13897705 C-29.66424408 18.13824158 -29.66439514 17.1375061 -29.66455078 16.10644531 C-29.668992 15.22708313 -29.67343323 14.34772095 -29.67800903 13.44171143 C-29.42007815 10.89015613 -28.72399947 9.26113448 -27.4375 7.0625 C-26.7775 7.0625 -26.1175 7.0625 -25.4375 7.0625 C-25.1075 6.0725 -24.7775 5.0825 -24.4375 4.0625 C-23.7775 4.0625 -23.1175 4.0625 -22.4375 4.0625 C-22.4375 3.4025 -22.4375 2.7425 -22.4375 2.0625 C-15.85537456 -2.45095745 -7.48521397 -2.04142199 0 0 Z M-14.4375 15.0625 C-14.46217467 20.72249023 -14.48034788 26.38244932 -14.49243164 32.04248047 C-14.49746787 33.96891831 -14.50429712 35.89535231 -14.51293945 37.82177734 C-14.52503608 40.58692368 -14.53073533 43.35201958 -14.53515625 46.1171875 C-14.54031754 46.9818161 -14.54547882 47.8464447 -14.55079651 48.73727417 C-14.68133889 53.03501002 -14.68133889 53.03501002 -13.4375 57.0625 C-10.52115871 57.3127157 -10.52115871 57.3127157 -7.4375 57.0625 C-4.80457069 53.11310604 -5.26683345 49.83772644 -5.42578125 45.2734375 C-5.44843552 44.41440826 -5.47108978 43.55537903 -5.49443054 42.6703186 C-5.54436179 40.85624267 -5.59932236 39.04229921 -5.65893555 37.22851562 C-5.74986575 34.4416145 -5.82446302 31.65463498 -5.89648438 28.8671875 C-5.94695751 27.10674307 -5.99835786 25.34632493 -6.05078125 23.5859375 C-6.07376785 22.74743256 -6.09675446 21.90892761 -6.12043762 21.04501343 C-5.8941083 17.24229759 -5.8941083 17.24229759 -7.4375 14.0625 C-11.06944641 13.87100919 -11.06944641 13.87100919 -14.4375 15.0625 Z " fill="#000000" transform="translate(300.4375,339.9375)"/>
<path d="M0 0 C1.03833984 0.79277344 1.03833984 0.79277344 2.09765625 1.6015625 C2.09765625 2.2615625 2.09765625 2.9215625 2.09765625 3.6015625 C3.58265625 4.0965625 3.58265625 4.0965625 5.09765625 4.6015625 C5.09765625 5.2615625 5.09765625 5.9215625 5.09765625 6.6015625 C5.75765625 6.6015625 6.41765625 6.6015625 7.09765625 6.6015625 C7.09765625 7.5915625 7.09765625 8.5815625 7.09765625 9.6015625 C7.75765625 9.6015625 8.41765625 9.6015625 9.09765625 9.6015625 C10.10477999 14.61067793 10.2433276 19.38973367 10.23046875 24.47265625 C10.23142548 25.3132106 10.2323822 26.15376495 10.23336792 27.01979065 C10.23404585 28.79061966 10.23221864 30.56145121 10.22802734 32.33227539 C10.22268036 35.02691292 10.22798204 37.72138328 10.234375 40.41601562 C10.23371402 42.14322953 10.23243244 43.87044333 10.23046875 45.59765625 C10.23249298 46.39578232 10.23451721 47.19390839 10.23660278 48.01622009 C10.21742054 52.6467091 9.86241051 57.03316202 9.09765625 61.6015625 C8.43765625 61.6015625 7.77765625 61.6015625 7.09765625 61.6015625 C7.09765625 62.5915625 7.09765625 63.5815625 7.09765625 64.6015625 C6.43765625 64.6015625 5.77765625 64.6015625 5.09765625 64.6015625 C5.09765625 65.2615625 5.09765625 65.9215625 5.09765625 66.6015625 C0.81436906 70.87190925 -3.66469607 71.96499815 -9.58984375 72.0390625 C-13.84041214 71.95252398 -17.03696744 71.38723727 -20.90234375 69.6015625 C-20.90234375 68.9415625 -20.90234375 68.2815625 -20.90234375 67.6015625 C-21.47984375 67.3953125 -22.05734375 67.1890625 -22.65234375 66.9765625 C-25.7506065 65.08317971 -27.49301155 62.8977506 -28.90234375 59.6015625 C-29.45164123 55.93522689 -29.39230353 52.32179708 -29.328125 48.62109375 C-29.32483688 47.5712883 -29.32154877 46.52148285 -29.31816101 45.43986511 C-29.30776561 43.22848274 -29.28785909 41.01712712 -29.2590332 38.8059082 C-29.21486085 35.41537538 -29.19757877 32.02555095 -29.18554688 28.63476562 C-29.1721262 26.48436474 -29.15720417 24.3339726 -29.140625 22.18359375 C-29.13323807 21.16795853 -29.12585114 20.1523233 -29.11824036 19.10591125 C-29.10540512 18.1645079 -29.09256989 17.22310455 -29.0793457 16.25317383 C-29.0695015 15.42521805 -29.05965729 14.59726227 -29.04951477 13.74421692 C-28.90234375 11.6015625 -28.90234375 11.6015625 -27.90234375 8.6015625 C-27.24234375 8.6015625 -26.58234375 8.6015625 -25.90234375 8.6015625 C-25.79921875 7.9621875 -25.69609375 7.3228125 -25.58984375 6.6640625 C-25.36296875 5.9834375 -25.13609375 5.3028125 -24.90234375 4.6015625 C-23.91234375 4.2715625 -22.92234375 3.9415625 -21.90234375 3.6015625 C-21.90234375 2.9415625 -21.90234375 2.2815625 -21.90234375 1.6015625 C-15.7125936 -2.6428376 -6.75794216 -3.25618209 0 0 Z M-13.90234375 14.6015625 C-14.07511057 17.53344982 -14.18644202 20.44400701 -14.25390625 23.37890625 C-14.27705902 24.26058975 -14.30021179 25.14227325 -14.32406616 26.05067444 C-14.37177806 27.9193837 -14.41700314 29.78815783 -14.45996094 31.65698242 C-14.52698036 34.52351974 -14.60474953 37.38962576 -14.68359375 40.25585938 C-14.72851481 42.06769233 -14.77280662 43.87954102 -14.81640625 45.69140625 C-14.84030426 46.5528978 -14.86420227 47.41438934 -14.88882446 48.30198669 C-15.11659656 52.5846607 -15.11659656 52.5846607 -13.90234375 56.6015625 C-11.26234375 56.6015625 -8.62234375 56.6015625 -5.90234375 56.6015625 C-4.2764322 53.3497394 -4.73927523 49.77246212 -4.734375 46.19921875 C-4.7310466 45.36571396 -4.7277182 44.53220917 -4.72428894 43.67344666 C-4.71922214 41.90901238 -4.71688054 40.1445685 -4.71704102 38.38012695 C-4.71485534 35.67838781 -4.69669949 32.97705744 -4.67773438 30.27539062 C-4.67480027 28.5625014 -4.67281559 26.84961023 -4.671875 25.13671875 C-4.66468948 24.3272731 -4.65750397 23.51782745 -4.65010071 22.68385315 C-4.66594983 18.79910677 -4.69747774 16.90886152 -6.90234375 13.6015625 C-10.70019685 13.03953067 -10.70019685 13.03953067 -13.90234375 14.6015625 Z " fill="#000000" transform="translate(70.90234375,340.3984375)"/>
<path d="M0 0 C1 1 1 1 1.1328125 3.90625 C1.13023438 5.0921875 1.12765625 6.278125 1.125 7.5 C1.12886719 9.27890625 1.12886719 9.27890625 1.1328125 11.09375 C1 14 1 14 0 15 C-0.09997642 17.49058914 -0.13879627 19.94727395 -0.125 22.4375 C-0.12886719 23.13166016 -0.13273437 23.82582031 -0.13671875 24.54101562 C-0.19359835 28.39769757 -0.19359835 28.39769757 1 32 C1.08308638 33.37548156 1.10736016 34.75485796 1.09765625 36.1328125 C1.09443359 36.93847656 1.09121094 37.74414062 1.08789062 38.57421875 C1.07532227 39.83685547 1.07532227 39.83685547 1.0625 41.125 C1.05798828 41.97449219 1.05347656 42.82398438 1.04882812 43.69921875 C1.03702874 45.79950909 1.01909306 47.8997633 1 50 C1.66 50 2.32 50 3 50 C3.12117188 51.19496094 3.24234375 52.38992187 3.3671875 53.62109375 C4.32756008 63.6005213 4.32756008 63.6005213 6.1875 73.4375 C7 77 7 77 6 80 C5.34 80 4.68 80 4 80 C4 79.34 4 78.68 4 78 C3.01 78 2.02 78 1 78 C0.67 77.34 0.34 76.68 0 76 C-0.99 75.67 -1.98 75.34 -3 75 C-4.35368596 73.68733482 -5.68799596 72.35432675 -7 71 C-7.66 70.67 -8.32 70.34 -9 70 C-9 69.34 -9 68.68 -9 68 C-11.33214148 66.79371992 -13.49642139 65.8345262 -16 65 C-17.6875 63.5625 -17.6875 63.5625 -19 62 C-19 61.34 -19 60.68 -19 60 C-19.99 60 -20.98 60 -22 60 C-22 59.34 -22 58.68 -22 58 C-23.32 57.67 -24.64 57.34 -26 57 C-26 56.34 -26 55.68 -26 55 C-26.7425 54.731875 -27.485 54.46375 -28.25 54.1875 C-30.89061949 53.04723249 -32.85552844 51.90619694 -35 50 C-35 49.34 -35 48.68 -35 48 C-36.32 47.67 -37.64 47.34 -39 47 C-39 45.02 -39 43.04 -39 41 C-38.67 41 -38.34 41 -38 41 C-37.505 38.03 -37.505 38.03 -37 35 C-36.34 35 -35.68 35 -35 35 C-34.95875 33.7625 -34.9175 32.525 -34.875 31.25 C-34.30066434 25.75900299 -31.98511774 21.49907469 -29.375 16.69921875 C-28.20670561 14.4057772 -27.47685071 12.50942685 -27 10 C-26.34 10 -25.68 10 -25 10 C-24.67 8.02 -24.34 6.04 -24 4 C-23.34 4 -22.68 4 -22 4 C-21.87625 3.360625 -21.7525 2.72125 -21.625 2.0625 C-21.315625 1.0415625 -21.315625 1.0415625 -21 0 C-15.21522592 -2.89238704 -6.18895051 -0.88413579 0 0 Z " fill="#000000" transform="translate(54,76)"/>
<path d="M0 0 C1.4375 2.125 1.4375 2.125 1.4375 4.125 C2.0975 4.125 2.7575 4.125 3.4375 4.125 C3.9325 7.59 3.9325 7.59 4.4375 11.125 C5.0975 11.125 5.7575 11.125 6.4375 11.125 C6.94583591 12.37163331 7.44381145 13.62249387 7.9375 14.875 C8.2159375 15.57109375 8.494375 16.2671875 8.78125 16.984375 C9.4375 19.125 9.4375 19.125 9.4375 23.125 C10.0975 23.125 10.7575 23.125 11.4375 23.125 C11.9325 27.085 11.9325 27.085 12.4375 31.125 C13.0975 31.125 13.7575 31.125 14.4375 31.125 C14.4375 32.775 14.4375 34.425 14.4375 36.125 C15.0975 36.125 15.7575 36.125 16.4375 36.125 C17.02971552 39.13757459 17.4851436 42.04934068 17.4375 45.125 C15.625 47.6875 15.625 47.6875 13.4375 49.125 C12.7775 49.125 12.1175 49.125 11.4375 49.125 C11.4375 49.785 11.4375 50.445 11.4375 51.125 C8.9625 51.62 8.9625 51.62 6.4375 52.125 C6.1075 53.445 5.7775 54.765 5.4375 56.125 C3.4575 56.62 3.4575 56.62 1.4375 57.125 C1.4375 57.785 1.4375 58.445 1.4375 59.125 C0.4475 59.125 -0.5425 59.125 -1.5625 59.125 C-1.5625 59.785 -1.5625 60.445 -1.5625 61.125 C-3.5425 61.62 -3.5425 61.62 -5.5625 62.125 C-5.5625 62.785 -5.5625 63.445 -5.5625 64.125 C-8.1239657 66.42148649 -9.04217572 67.125 -12.5625 67.125 C-12.5625 67.785 -12.5625 68.445 -12.5625 69.125 C-14.5425 69.62 -14.5425 69.62 -16.5625 70.125 C-16.5625 70.785 -16.5625 71.445 -16.5625 72.125 C-17.2225 72.125 -17.8825 72.125 -18.5625 72.125 C-18.5625 72.785 -18.5625 73.445 -18.5625 74.125 C-19.5525 74.125 -20.5425 74.125 -21.5625 74.125 C-21.8925 75.115 -22.2225 76.105 -22.5625 77.125 C-25.0375 77.62 -25.0375 77.62 -27.5625 78.125 C-29.0304233 73.85467766 -28.00074226 71.35265731 -26.328125 67.28515625 C-25.03700779 63.64236128 -24.84367193 59.95749562 -24.5625 56.125 C-24.39995605 54.12466072 -24.23323397 52.12465689 -24.0625 50.125 C-23.9903125 49.196875 -23.918125 48.26875 -23.84375 47.3125 C-23.5625 45.125 -23.5625 45.125 -22.5625 44.125 C-20.55191042 29.35585433 -21.46870532 13.99506385 -21.5625 -0.875 C-19.99751068 -1.03627463 -18.43237757 -1.19615425 -16.8671875 -1.35546875 C-15.99562012 -1.44465576 -15.12405273 -1.53384277 -14.22607422 -1.62573242 C-3.58305472 -2.62174735 -3.58305472 -2.62174735 0 0 Z " fill="#000000" transform="translate(304.5625,76.875)"/>
<path d="M0 0 C5.56842771 -0.04963288 11.13672511 -0.08582963 16.70532227 -0.10986328 C18.59759771 -0.11988815 20.48985778 -0.13351155 22.38208008 -0.15087891 C25.1102275 -0.17528222 27.83816915 -0.18651845 30.56640625 -0.1953125 C31.40522842 -0.20563507 32.2440506 -0.21595764 33.10829163 -0.22659302 C38.1298712 -0.22754087 42.23893583 0.38408979 47 2 C47 3.32 47 4.64 47 6 C47.66 6 48.32 6 49 6 C49.50757862 7.41396902 50.00574925 8.83131729 50.5 10.25 C50.7784375 11.03890625 51.056875 11.8278125 51.34375 12.640625 C52 15 52 15 52 19 C52.66 19 53.32 19 54 19 C54.48212214 20.56159059 54.96055873 22.12431928 55.4375 23.6875 C55.70433594 24.55761719 55.97117187 25.42773438 56.24609375 26.32421875 C56.96616129 28.87989887 57.59997216 31.37452993 58 34 C57.67 34.33 57.34 34.66 57 35 C55.16282616 34.80661328 53.32536298 34.60920605 51.49609375 34.3515625 C50.67238281 34.23554687 49.84867187 34.11953125 49 34 C47.21106323 33.74573242 47.21106323 33.74573242 45.38598633 33.48632812 C41.02106187 32.94540433 36.7221058 32.85536402 32.328125 32.8671875 C31.52445496 32.86623077 30.72078491 32.86527405 29.89276123 32.86428833 C28.20194419 32.86361202 26.51112446 32.86542773 24.8203125 32.86962891 C22.27077199 32.87495659 19.72140991 32.8696797 17.171875 32.86328125 C6.02010099 32.85858854 -4.96646874 33.24466548 -16 35 C-16.625 32.6875 -16.625 32.6875 -17 30 C-16.01 28.515 -16.01 28.515 -15 27 C-14.61500109 25.34450469 -14.27206865 23.6777567 -14 22 C-13.34 22 -12.68 22 -12 22 C-11.814375 20.700625 -11.814375 20.700625 -11.625 19.375 C-11.01941879 16.10486147 -10.11693965 13.12743101 -9 10 C-8.34 10 -7.68 10 -7 10 C-6.7834375 8.576875 -6.7834375 8.576875 -6.5625 7.125 C-6 4 -6 4 -5 2 C-3.35 2 -1.7 2 0 2 C0 1.34 0 0.68 0 0 Z " fill="#000000" transform="translate(148,0)"/>
<path d="M0 0 C4.82380802 -0.0246519 9.64757967 -0.04283693 14.47143555 -0.05493164 C16.11369464 -0.05997174 17.75594923 -0.06680378 19.39819336 -0.07543945 C21.75375479 -0.08751926 24.10925709 -0.09323139 26.46484375 -0.09765625 C27.20339096 -0.10281754 27.94193817 -0.10797882 28.7028656 -0.11329651 C30.46898088 -0.1134925 32.23497146 -0.06194719 34 0 C35 1 35 1 35.1328125 3.65234375 C35.13023437 4.73644531 35.12765625 5.82054687 35.125 6.9375 C35.12886719 8.55978516 35.12886719 8.55978516 35.1328125 10.21484375 C35 13 35 13 34 15 C27.4 15 20.8 15 14 15 C14.33 19.62 14.66 24.24 15 29 C16.05960938 28.98839844 17.11921875 28.97679687 18.2109375 28.96484375 C19.59895658 28.95546524 20.98697755 28.94636511 22.375 28.9375 C23.07367188 28.92912109 23.77234375 28.92074219 24.4921875 28.91210938 C29.7734375 28.88671875 29.7734375 28.88671875 32 30 C32 34.29 32 38.58 32 43 C25.90612288 44.52346928 20.24723795 43.52060316 14 43 C14 47.95 14 52.9 14 58 C16.14822266 57.98259766 16.14822266 57.98259766 18.33984375 57.96484375 C20.20572787 57.95546745 22.07161339 57.94636708 23.9375 57.9375 C24.88302734 57.92912109 25.82855469 57.92074219 26.80273438 57.91210938 C28.15141602 57.90727539 28.15141602 57.90727539 29.52734375 57.90234375 C30.35999756 57.89710693 31.19265137 57.89187012 32.05053711 57.88647461 C34 58 34 58 35 59 C35.0989294 61.16480797 35.129711 63.33293785 35.125 65.5 C35.12886719 67.27890625 35.12886719 67.27890625 35.1328125 69.09375 C35 72 35 72 34 73 C31.47905924 73.08847743 28.98569107 73.11527301 26.46484375 73.09765625 C25.33496788 73.09553383 25.33496788 73.09553383 24.18226624 73.09336853 C21.7673044 73.08775376 19.35243399 73.07519883 16.9375 73.0625 C15.30403779 73.0574869 13.67057414 73.05292366 12.03710938 73.04882812 C8.02470415 73.03777954 4.01236759 73.02050506 0 73 C-1.43409227 70.13181547 -1.12729601 67.67629397 -1.12939453 64.47070312 C-1.13114685 63.80062729 -1.13289917 63.13055145 -1.13470459 62.44017029 C-1.1391135 60.22050401 -1.1361885 58.00091712 -1.1328125 55.78125 C-1.13348582 54.24190251 -1.13445607 52.70255513 -1.13571167 51.16320801 C-1.13718734 47.93512969 -1.13503828 44.70707902 -1.13037109 41.47900391 C-1.12467388 37.33600921 -1.12795358 33.19307929 -1.13394356 29.05008698 C-1.13755269 25.87086497 -1.13640896 22.69165838 -1.13381577 19.51243591 C-1.13314747 17.98457329 -1.13397152 16.45670927 -1.13629532 14.92884827 C-1.1388276 12.7956266 -1.13497311 10.66251065 -1.12939453 8.52929688 C-1.12859894 7.31399292 -1.12780334 6.09868896 -1.12698364 4.84655762 C-1 2 -1 2 0 0 Z " fill="#000000" transform="translate(190,339)"/>
<path d="M0 0 C1.794375 -0.01160156 1.794375 -0.01160156 3.625 -0.0234375 C7.21616379 0.40051934 9.15901549 1.16893248 12 3.375 C12 4.035 12 4.695 12 5.375 C12.99 5.705 13.98 6.035 15 6.375 C15 7.035 15 7.695 15 8.375 C15.66 8.375 16.32 8.375 17 8.375 C19.37590142 12.07916126 19.20500286 15.30484573 19.125 19.625 C19.10695312 20.88828125 19.08890625 22.1515625 19.0703125 23.453125 C19.04710937 24.41734375 19.02390625 25.3815625 19 26.375 C16.68756208 26.40185412 14.3750373 26.42132841 12.0625 26.4375 C10.77472656 26.44910156 9.48695312 26.46070313 8.16015625 26.47265625 C5 26.375 5 26.375 4 25.375 C3.92820036 23.85571962 3.91607993 22.33332518 3.9375 20.8125 C3.94652344 19.98621094 3.95554687 19.15992188 3.96484375 18.30859375 C3.97644531 17.67050781 3.98804687 17.03242188 4 16.375 C1.69 16.045 -0.62 15.715 -3 15.375 C-3 29.235 -3 43.095 -3 57.375 C0.465 57.87 0.465 57.87 4 58.375 C4 55.075 4 51.775 4 48.375 C8.16001561 46.79023215 11.54156866 45.97869499 16 46.375 C16.99 47.035 17.98 47.695 19 48.375 C19.96388189 53.65019857 20.0885975 59.12789506 17.72265625 64.01171875 C16.25526816 66.01009323 14.8821586 67.76102462 13 69.375 C12.34 69.375 11.68 69.375 11 69.375 C11 70.035 11 70.695 11 71.375 C7.24145075 73.7973898 3.82537626 73.6421569 -0.5625 73.625 C-1.23474609 73.63273437 -1.90699219 73.64046875 -2.59960938 73.6484375 C-6.28422836 73.63380148 -7.85615148 73.47089902 -11 71.375 C-11 70.715 -11 70.055 -11 69.375 C-11.598125 69.33375 -12.19625 69.2925 -12.8125 69.25 C-15 68.375 -15 68.375 -16.60961914 66.00927734 C-18.50429916 61.05682665 -18.44879518 56.61136004 -18.43359375 51.3515625 C-18.44145653 49.76134781 -18.44145653 49.76134781 -18.44947815 48.13900757 C-18.45588708 45.90159987 -18.45457602 43.66415843 -18.44604492 41.42675781 C-18.43754554 38.01826406 -18.46629685 34.61145295 -18.49804688 31.203125 C-18.49965941 29.023438 -18.49908036 26.84374805 -18.49609375 24.6640625 C-18.50732773 23.65235992 -18.51856171 22.64065735 -18.53013611 21.59829712 C-18.46667706 15.09713408 -17.34392205 10.96990194 -14 5.375 C-13.34 5.375 -12.68 5.375 -12 5.375 C-12 4.715 -12 4.055 -12 3.375 C-8.05213979 0.30942673 -4.91973102 -0.03180861 0 0 Z " fill="#000000" transform="translate(18,338.625)"/>
<path d="M0 0 C2.64 0.99 5.28 1.98 8 3 C8 3.66 8 4.32 8 5 C8.804375 5.185625 8.804375 5.185625 9.625 5.375 C12.4638286 6.12206016 15.22223202 7.05303364 18 8 C18 8.66 18 9.32 18 10 C18.556875 10.12375 19.11375 10.2475 19.6875 10.375 C22.22114364 11.05976855 24.57921032 11.99133763 27 13 C27 13.66 27 14.32 27 15 C27.7425 15.12375 28.485 15.2475 29.25 15.375 C31.80141485 15.95486701 33.7267573 16.73708739 36 18 C36 18.66 36 19.32 36 20 C36.66 20 37.32 20 38 20 C38 20.66 38 21.32 38 22 C38.66 22 39.32 22 40 22 C40 23.65 40 25.3 40 27 C39.34 27 38.68 27 38 27 C37.87625 27.53625 37.7525 28.0725 37.625 28.625 C36.87793984 31.4638286 35.94696636 34.22223202 35 37 C34.34 37 33.68 37 33 37 C33 38.32 33 39.64 33 41 C32.34 41 31.68 41 31 41 C30.67 43.64 30.34 46.28 30 49 C29.34 49 28.68 49 28 49 C28 50.32 28 51.64 28 53 C27.34 53 26.68 53 26 53 C25.9175 53.99 25.835 54.98 25.75 56 C25.21970428 59.83684549 23.7758492 62.82380661 21.9375 66.203125 C20.86302477 68.14681586 20.86302477 68.14681586 20 71 C18.35 71 16.7 71 15 71 C15 70.01 15 69.02 15 68 C14.34 68 13.68 68 13 68 C11.68 64.37 10.36 60.74 9 57 C8.67 57 8.34 57 8 57 C6.24265549 52.02638346 4.67415387 47.2584002 4 42 C3.67 42 3.34 42 3 42 C2.80083984 40.60974609 2.80083984 40.60974609 2.59765625 39.19140625 C2.42105469 37.99386719 2.24445312 36.79632813 2.0625 35.5625 C1.80146484 33.77005859 1.80146484 33.77005859 1.53515625 31.94140625 C1.31014787 29.12044324 1.31014787 29.12044324 0 28 C-0.07258946 25.81360547 -0.08373783 23.62499611 -0.0625 21.4375 C-0.05347656 20.23996094 -0.04445313 19.04242188 -0.03515625 17.80859375 C-0.02355469 16.88175781 -0.01195312 15.95492187 0 15 C-0.66 15 -1.32 15 -2 15 C-2.05406122 13.06280622 -2.09282025 11.12518079 -2.125 9.1875 C-2.14820313 8.10855469 -2.17140625 7.02960938 -2.1953125 5.91796875 C-2 3 -2 3 0 0 Z " fill="#000000" transform="translate(12,154)"/>
<path d="M0 0 C0 7.59 0 15.18 0 23 C-0.66 23 -1.32 23 -2 23 C-1.95875 24.175625 -1.9175 25.35125 -1.875 26.5625 C-1.86777262 30.6676495 -2.78526234 34.06996639 -4 38 C-4.165 39.216875 -4.33 40.43375 -4.5 41.6875 C-4.94318102 44.62357423 -5.49220377 46.48700628 -7 49 C-7.66 49 -8.32 49 -9 49 C-9.33 51.97 -9.66 54.94 -10 58 C-10.66 58 -11.32 58 -12 58 C-12.12375 58.515625 -12.2475 59.03125 -12.375 59.5625 C-13.18641628 62.72702351 -14.0945913 65.86124985 -15 69 C-16.65 69 -18.3 69 -20 69 C-20 68.01 -20 67.02 -20 66 C-20.66 66 -21.32 66 -22 66 C-22.433125 64.824375 -22.86625 63.64875 -23.3125 62.4375 C-25.05980508 57.78076712 -26.86316335 53.15400629 -29.1875 48.75 C-30 47 -30 47 -30 44 C-30.66 44 -31.32 44 -32 44 C-32.33 41.36 -32.66 38.72 -33 36 C-33.66 36 -34.32 36 -35 36 C-35.99 32.7 -36.98 29.4 -38 26 C-38.66 26 -39.32 26 -40 26 C-40.21457149 22.85295141 -40.33532369 20.65201828 -38.875 17.8125 C-35.23486784 14.29370558 -32.03352438 13 -27 13 C-27 12.34 -27 11.68 -27 11 C-24.09451118 8.95830515 -22.59857954 8 -19 8 C-19 7.34 -19 6.68 -19 6 C-15.535 5.505 -15.535 5.505 -12 5 C-12 4.34 -12 3.68 -12 3 C-11.01 3 -10.02 3 -9 3 C-9 2.34 -9 1.68 -9 1 C-2.25 -1.125 -2.25 -1.125 0 0 Z " fill="#000000" transform="translate(326,156)"/>
<path d="M0 0 C1.1859375 0.00257813 2.371875 0.00515625 3.59375 0.0078125 C4.7796875 0.00523437 5.965625 0.00265625 7.1875 0 C10.09375 0.1328125 10.09375 0.1328125 11.09375 1.1328125 C11.18745624 2.91273174 11.21119271 4.69637989 11.20727539 6.47875977 C11.20719986 7.6198671 11.20712433 8.76097443 11.20704651 9.93666077 C11.20188522 11.1783049 11.19672394 12.41994904 11.19140625 13.69921875 C11.1899913 14.96297836 11.18857635 16.22673798 11.18711853 17.52879333 C11.18245582 20.89406139 11.1734648 24.2592624 11.16241455 27.62451172 C11.15219846 31.0563092 11.14762049 34.48811359 11.14257812 37.91992188 C11.1315238 44.65757314 11.11424637 51.39518361 11.09375 58.1328125 C17.69375 58.1328125 24.29375 58.1328125 31.09375 58.1328125 C31.19140625 68.97265625 31.19140625 68.97265625 31.09375 72.1328125 C29.38882119 73.83774131 27.24840739 73.2608567 24.97473145 73.27175903 C24.26119507 73.2697348 23.54765869 73.26771057 22.8125 73.265625 C22.08381714 73.26658173 21.35513428 73.26753845 20.60437012 73.26852417 C19.0609529 73.26920585 17.51753283 73.26735238 15.97412109 73.26318359 C13.603776 73.25783512 11.23362041 73.26312892 8.86328125 73.26953125 C7.36718708 73.26887047 5.87109303 73.2675893 4.375 73.265625 C3.30469543 73.26866135 3.30469543 73.26866135 2.21276855 73.27175903 C-2.79129809 73.24776441 -2.79129809 73.24776441 -3.90625 72.1328125 C-4.00585152 69.92956276 -4.03424757 67.7230776 -4.03564453 65.51757812 C-4.03739685 64.82653488 -4.03914917 64.13549164 -4.04095459 63.42350769 C-4.04537254 61.12866743 -4.04243533 58.83390361 -4.0390625 56.5390625 C-4.03973556 54.95104965 -4.04070559 53.36303691 -4.04196167 51.77502441 C-4.04343857 48.442617 -4.04128436 45.11023634 -4.03662109 41.77783203 C-4.0309238 37.4968274 -4.03420285 33.21588545 -4.04019356 28.93488312 C-4.0437994 25.65447514 -4.04266048 22.37408213 -4.04006577 19.09367371 C-4.03939656 17.514745 -4.0402247 15.93581496 -4.04254532 14.35688782 C-4.04507223 12.15390397 -4.04123075 9.95102301 -4.03564453 7.74804688 C-4.03484894 6.49197632 -4.03405334 5.23590576 -4.03323364 3.94177246 C-3.86001851 0.11014219 -3.84474414 0.17570067 0 0 Z " fill="#000000" transform="translate(319.90625,338.8671875)"/>
<path d="M0 0 C-0.33 3.96 -0.66 7.92 -1 12 C-1.66 12 -2.32 12 -3 12 C-2.979375 13.0725 -2.95875 14.145 -2.9375 15.25 C-3.02175759 20.30545513 -4.37296185 24.22735476 -6 29 C-7.65 29.33 -9.3 29.66 -11 30 C-11 30.66 -11 31.32 -11 32 C-11.95712891 32.19916016 -11.95712891 32.19916016 -12.93359375 32.40234375 C-13.75988281 32.57894531 -14.58617187 32.75554688 -15.4375 32.9375 C-16.26121094 33.11152344 -17.08492187 33.28554688 -17.93359375 33.46484375 C-19.97661204 33.80752994 -19.97661204 33.80752994 -21 35 C-22.66617115 35.04063832 -24.33388095 35.042721 -26 35 C-26 35.66 -26 36.32 -26 37 C-34.80646119 39.70968037 -42.80987806 40.36706108 -52 40 C-52 40.66 -52 41.32 -52 42 C-54.31 42 -56.62 42 -59 42 C-58.67 39.69 -58.34 37.38 -58 35 C-57.34 35 -56.68 35 -56 35 C-56 34.34 -56 33.68 -56 33 C-54.02 32.505 -54.02 32.505 -52 32 C-52 31.34 -52 30.68 -52 30 C-51.01 30 -50.02 30 -49 30 C-49 29.34 -49 28.68 -49 28 C-47.3603279 26.63360658 -45.68889872 25.3050581 -44 24 C-43.01 22.9790625 -43.01 22.9790625 -42 21.9375 C-38.89561433 18.93012638 -36.38849791 17 -32 17 C-32 16.34 -32 15.68 -32 15 C-27.61538462 12 -27.61538462 12 -25 12 C-25 11.34 -25 10.68 -25 10 C-22.03 8.68 -19.06 7.36 -16 6 C-16 5.67 -16 5.34 -16 5 C-12.535 4.505 -12.535 4.505 -9 4 C-9 3.34 -9 2.68 -9 2 C-6 0 -6 0 0 0 Z " fill="#000000" transform="translate(114,10)"/>
<path d="M0 0 C1.32 0 2.64 0 4 0 C4 0.66 4 1.32 4 2 C5.0828125 2.185625 5.0828125 2.185625 6.1875 2.375 C8.95721894 2.9904931 11.3970354 3.88444374 14 5 C14 5.66 14 6.32 14 7 C15.65 7 17.3 7 19 7 C19 7.66 19 8.32 19 9 C21.475 9.495 21.475 9.495 24 10 C24 10.66 24 11.32 24 12 C26.65228812 13.07525194 29.28368454 14.09456151 32 15 C32 15.66 32 16.32 32 17 C33.32 17.33 34.64 17.66 36 18 C36 18.66 36 19.32 36 20 C36.99 20 37.98 20 39 20 C40.37849103 21.28659163 41.70529025 22.62913085 43 24 C43.9075 24.70125 44.815 25.4025 45.75 26.125 C46.4925 26.74375 47.235 27.3625 48 28 C48 28.66 48 29.32 48 30 C48.78375 30.309375 49.5675 30.61875 50.375 30.9375 C53 32 53 32 55 33 C55 33.66 55 34.32 55 35 C55.66 35 56.32 35 57 35 C57 35.66 57 36.32 57 37 C57.66 37 58.32 37 59 37 C58.67 38.65 58.34 40.3 58 42 C56.02 42 54.04 42 52 42 C52 41.34 52 40.68 52 40 C49.03 40 46.06 40 43 40 C43 39.34 43 38.68 43 38 C42.319375 38.37125 41.63875 38.7425 40.9375 39.125 C37.02061085 40.29173294 34.82149196 39.29657763 31 38 C29.33753959 37.64628502 27.67225729 37.30404678 26 37 C26 36.34 26 35.68 26 35 C24.35 35 22.7 35 21 35 C21 34.34 21 33.68 21 33 C17.7 32.67 14.4 32.34 11 32 C11 31.34 11 30.68 11 30 C9.35 30 7.7 30 6 30 C6 29.34 6 28.68 6 28 C5.34 28 4.68 28 4 28 C3.87882813 27.01 3.75765625 26.02 3.6328125 25 C2.64342935 17.12877455 1.51835984 9.55507952 -1 2 C-0.67 1.34 -0.34 0.68 0 0 Z " fill="#000000" transform="translate(224,10)"/>
<path d="M0 0 C0.99 0 1.98 0 3 0 C3 0.66 3 1.32 3 2 C3.556875 2.12375 4.11375 2.2475 4.6875 2.375 C7.28715346 3.07760904 9.598062 3.76657238 12 5 C12.8125 7.125 12.8125 7.125 13 9 C15.475 9.495 15.475 9.495 18 10 C18 10.66 18 11.32 18 12 C18.66 12 19.32 12 20 12 C20 12.66 20 13.32 20 14 C22.475 14.495 22.475 14.495 25 15 C25 15.66 25 16.32 25 17 C27.33214148 18.20628008 29.49642139 19.1654738 32 20 C33.1875 23.0625 33.1875 23.0625 34 26 C29.0260204 30.9739796 11.34996383 29.65236658 4 30 C-4.38285594 29.903172 -12.68527891 29.01066334 -21 28 C-22.73415953 27.80536225 -24.46852042 27.61250575 -26.203125 27.421875 C-28.08257812 27.21304687 -28.08257812 27.21304687 -30 27 C-30.33 26.01 -30.66 25.02 -31 24 C-30.67 23.34 -30.34 22.68 -30 22 C-29.34 22 -28.68 22 -28 22 C-28 21.34 -28 20.68 -28 20 C-26.34467377 18.98133771 -24.67739862 17.98189187 -23 17 C-22.67 16.34 -22.34 15.68 -22 15 C-21.195625 14.690625 -20.39125 14.38125 -19.5625 14.0625 C-16.70136041 13.15452711 -16.70136041 13.15452711 -15 10 C-12.375 9.3125 -12.375 9.3125 -10 9 C-10 8.34 -10 7.68 -10 7 C-9.34 7 -8.68 7 -8 7 C-8 6.34 -8 5.68 -8 5 C-6.35 4.67 -4.7 4.34 -3 4 C-3 3.34 -3 2.68 -3 2 C-2.01 2 -1.02 2 0 2 C0 1.34 0 0.68 0 0 Z " fill="#000000" transform="translate(167,284)"/>
<path d="M0 0 C2 1 2 1 2 1 Z " fill="#000000" transform="translate(307,226)"/>
<path d="M0 0 C2 1 2 1 2 1 Z " fill="#000000" transform="translate(28,226)"/>
<path d="" fill="#000000" transform="translate(0,0)"/>
</svg>
