<?xml version="1.0" encoding="UTF-8"?>
<!DOCTYPE svg PUBLIC "-//W3C//DTD SVG 1.1//EN" "http://www.w3.org/Graphics/SVG/1.1/DTD/svg11.dtd">
<svg xmlns="http://www.w3.org/2000/svg" version="1.1" width="649px" height="350px" style="shape-rendering:geometricPrecision; text-rendering:geometricPrecision; image-rendering:optimizeQuality; fill-rule:evenodd; clip-rule:evenodd" xmlns:xlink="http://www.w3.org/1999/xlink">
<g><path style="opacity:0.976" fill="#afafaf" d="M 178.5,-0.5 C 185.5,-0.5 192.5,-0.5 199.5,-0.5C 202.641,0.321287 205.975,0.821287 209.5,1C 211.004,2.78781 212.671,3.28781 214.5,2.5C 228.025,6.94735 240.358,11.114 251.5,15C 251.167,15.3333 250.833,15.6667 250.5,16C 255.793,18.3131 260.793,21.1464 265.5,24.5C 267.045,25.4519 268.712,25.7852 270.5,25.5C 270.643,27.2624 270.309,28.9291 269.5,30.5C 260.813,41.5158 252.147,52.5158 243.5,63.5C 241.659,65.5117 240.659,67.845 240.5,70.5C 238.394,70.679 236.728,71.679 235.5,73.5C 234.982,76.7945 233.648,79.6278 231.5,82C 231.169,85.2561 231.835,88.4228 233.5,91.5C 230.769,90.9729 228.102,90.1396 225.5,89C 225.833,88.6667 226.167,88.3333 226.5,88C 224.5,87.6667 222.5,87.3333 220.5,87C 220.833,86.6667 221.167,86.3333 221.5,86C 216.518,82.1688 210.852,80.3355 204.5,80.5C 204.357,78.7376 204.691,77.0709 205.5,75.5C 208.181,73.8279 210.847,72.1612 213.5,70.5C 214.833,63.1667 214.833,55.8333 213.5,48.5C 209.206,45.5827 204.539,43.5827 199.5,42.5C 199.337,40.1432 199.503,37.8098 200,35.5C 200.333,35.8333 200.667,36.1667 201,36.5C 200.979,32.9912 201.812,29.8245 203.5,27C 202.061,18.4636 198.061,11.2969 191.5,5.5C 188.202,3.25725 184.535,2.09059 180.5,2C 179.244,1.58309 178.577,0.749754 178.5,-0.5 Z"/></g>
<g><path style="opacity:0.978" fill="#afafaf" d="M 148.5,-0.5 C 156.167,-0.5 163.833,-0.5 171.5,-0.5C 171.423,0.749754 170.756,1.58309 169.5,2C 160.028,2.46867 153.195,6.96867 149,15.5C 149.01,19.1955 148.177,22.8621 146.5,26.5C 147.642,31.9175 148.975,37.2509 150.5,42.5C 144.971,43.0952 139.971,45.0952 135.5,48.5C 134.167,55.8333 134.167,63.1667 135.5,70.5C 138.507,71.8488 140.84,73.8488 142.5,76.5C 142.5,77.8333 142.5,79.1667 142.5,80.5C 138.953,81.8409 135.286,83.0076 131.5,84C 132.167,84.3333 132.833,84.6667 133.5,85C 131.423,85.1922 129.423,85.6922 127.5,86.5C 124.81,89.2939 121.643,91.2939 118,92.5C 116.726,88.0148 116.059,83.3481 116,78.5C 115.667,78.8333 115.333,79.1667 115,79.5C 110.692,70.1477 104.526,61.481 96.5,53.5C 91.3242,44.7629 86.1576,38.0962 81,33.5C 79.8604,30.8981 79.0271,28.2314 78.5,25.5C 86.2692,21.895 93.9359,17.895 101.5,13.5C 116.216,7.46562 131.883,2.79895 148.5,-0.5 Z"/></g>
<g><path style="opacity:0.004" fill="#fbfbfb" d="M 199.5,18.5 C 200.525,18.8966 200.692,19.5632 200,20.5C 199.536,19.9056 199.369,19.2389 199.5,18.5 Z"/></g>
<g><path style="opacity:0.993" fill="#adadad" d="M 648.5,67.5 C 648.5,139.5 648.5,211.5 648.5,283.5C 644.596,291.46 639.596,298.793 633.5,305.5C 626.293,309.77 618.626,312.937 610.5,315C 551.5,315.667 492.5,315.667 433.5,315C 413.015,310.491 400.681,298.824 396.5,280C 395.712,276.924 395.212,273.758 395,270.5C 394.833,238.5 394.667,206.5 394.5,174.5C 394.372,138.814 394.872,103.147 396,67.5C 402.047,49.0653 414.713,38.0653 434,34.5C 493.679,34.3488 553.513,34.5154 613.5,35C 623.395,37.902 631.729,42.402 638.5,48.5C 642.135,54.7735 645.468,61.1068 648.5,67.5 Z M 448.5,85.5 C 471.833,85.5 495.167,85.5 518.5,85.5C 519.066,92.4509 518.399,99.1176 516.5,105.5C 508.443,103.858 500.61,104.191 493,106.5C 492.333,156.167 492.333,205.833 493,255.5C 493.333,206.5 493.667,157.5 494,108.5C 494.167,133.333 494.333,158.167 494.5,183C 494.482,208.647 493.815,234.147 492.5,259.5C 492.167,259.5 491.833,259.5 491.5,259.5C 488.913,258.184 485.913,257.517 482.5,257.5C 479.087,257.517 476.087,258.184 473.5,259.5C 472.222,259.218 471.222,258.551 470.5,257.5C 471.495,206.572 471.828,155.572 471.5,104.5C 470.5,104.5 469.5,104.5 468.5,104.5C 461.745,103.877 455.412,104.544 449.5,106.5C 448.509,99.6866 448.175,92.6866 448.5,85.5 Z M 533.5,85.5 C 540.5,85.5 547.5,85.5 554.5,85.5C 555.239,85.369 555.906,85.5357 556.5,86C 555.572,86.3879 554.905,87.0546 554.5,88C 556.197,93.9962 557.03,100.163 557,106.5C 557.333,106.167 557.667,105.833 558,105.5C 558.454,117.165 559.454,127.499 561,136.5C 561.333,135.833 561.667,135.167 562,134.5C 564.378,150.545 566.211,166.878 567.5,183.5C 567.5,185.5 567.5,187.5 567.5,189.5C 569.467,189.739 571.301,189.406 573,188.5C 573.498,185.183 573.665,181.85 573.5,178.5C 573.848,169.276 574.515,160.276 575.5,151.5C 576.531,149.039 577.198,146.373 577.5,143.5C 578.167,136.833 578.833,130.167 579.5,123.5C 581.515,111.773 583.181,101.773 584.5,93.5C 584.5,91.5 584.5,89.5 584.5,87.5C 591.76,85.5349 599.427,84.8682 607.5,85.5C 607.217,86.2891 606.717,86.9558 606,87.5C 604.488,102.483 602.321,117.149 599.5,131.5C 599.709,132.086 600.043,132.586 600.5,133C 599.289,137.252 598.289,141.586 597.5,146C 597.645,146.772 597.978,147.439 598.5,148C 597.37,152.769 596.036,156.769 594.5,160C 594.755,161.326 595.422,162.326 596.5,163C 594.795,166.168 593.962,169.668 594,173.5C 593.667,172.833 593.333,172.167 593,171.5C 593.021,177.507 592.188,183.34 590.5,189C 590.892,190.011 591.559,190.511 592.5,190.5C 590.83,194.258 589.997,198.258 590,202.5C 589.667,202.167 589.333,201.833 589,201.5C 587.336,215.133 585.836,228.8 584.5,242.5C 583.593,244.657 582.927,246.99 582.5,249.5C 582.5,252.167 582.5,254.833 582.5,257.5C 580.801,257.527 579.467,258.194 578.5,259.5C 575.913,258.184 572.913,257.517 569.5,257.5C 566.087,257.517 563.087,258.184 560.5,259.5C 557.862,258.564 557.195,256.897 558.5,254.5C 556.899,249.321 556.066,243.988 556,238.5C 555.269,234.439 554.103,230.606 552.5,227C 555,226.167 555.167,225 553,223.5C 551.69,213.532 550.69,203.532 550,193.5C 549.667,194.833 549.333,196.167 549,197.5C 548.667,191.833 548.333,186.167 548,180.5C 547.667,181.167 547.333,181.833 547,182.5C 542.139,149.135 537.306,116.968 532.5,86C 532.728,85.6012 533.062,85.4346 533.5,85.5 Z"/></g>
<g><path style="opacity:0.985" fill="#aeaeae" d="M 52.5,83.5 C 60.3785,91.0668 67.7118,98.4002 74.5,105.5C 76.8442,106.337 78.8442,107.671 80.5,109.5C 84.1224,110.325 87.789,110.825 91.5,111C 89.0649,112.003 89.3982,112.503 92.5,112.5C 93.9945,112.291 95.1612,111.624 96,110.5C 96.8699,111.108 97.3699,111.941 97.5,113C 91.0732,122.114 85.9066,131.948 82,142.5C 80.8924,146.086 80.3924,149.753 80.5,153.5C 77.1945,154.285 74.1945,155.785 71.5,158C 70.1667,166.667 70.1667,175.333 71.5,184C 77.404,188.106 81.0707,193.273 82.5,199.5C 81.8338,200.831 81.8338,202.331 82.5,204C 84.3226,207.148 85.9893,210.314 87.5,213.5C 86.8386,214.718 86.1719,216.051 85.5,217.5C 84.3132,216.347 83.3132,216.347 82.5,217.5C 75.5572,212.303 68.8905,206.636 62.5,200.5C 57.7436,193.32 53.2436,185.986 49,178.5C 47.4529,181.701 45.9529,184.868 44.5,188C 45.0219,188.561 45.3552,189.228 45.5,190C 43.7356,196.425 42.7356,203.259 42.5,210.5C 41.1858,212.915 40.5191,215.748 40.5,219C 40.5022,222.021 40.8356,224.854 41.5,227.5C 43.4561,242.205 47.9561,256.205 55,269.5C 57.911,266.014 59.411,262.014 59.5,257.5C 61.1992,257.34 62.8659,257.506 64.5,258C 64.1667,258.333 63.8333,258.667 63.5,259C 65.1667,260.667 66.8333,262.333 68.5,264C 68.1667,264.333 67.8333,264.667 67.5,265C 70.303,266.911 70.9696,269.411 69.5,272.5C 63.5933,277.572 58.5933,283.405 54.5,290C 55.9909,292.022 55.6576,293.688 53.5,295C 55.2966,297.988 57.9633,300.821 61.5,303.5C 70.2722,305.36 75.9388,302.027 78.5,293.5C 81.6943,292.159 84.5277,290.159 87,287.5C 91.4939,290.36 94.9939,293.527 97.5,297C 101.921,299.567 106.255,302.401 110.5,305.5C 116.875,308.857 123.542,311.357 130.5,313C 129.5,313.333 128.5,313.667 127.5,314C 139.275,316.646 150.275,321.146 160.5,327.5C 163.151,332.138 166.151,336.471 169.5,340.5C 171.336,343.252 172.336,346.252 172.5,349.5C 164.5,349.5 156.5,349.5 148.5,349.5C 147.255,347.72 145.755,347.387 144,348.5C 137.598,346.832 131.098,345.332 124.5,344C 117.976,341.473 111.976,339.473 106.5,338C 107.167,337.667 107.833,337.333 108.5,337C 106.167,336.667 103.833,336.333 101.5,336C 93.4553,331.187 84.7886,326.187 75.5,321C 75.8333,320.667 76.1667,320.333 76.5,320C 73.9064,319.37 71.5731,318.203 69.5,316.5C 64.0721,311.315 58.7388,306.982 53.5,303.5C 39.1617,288.764 27.1617,272.764 17.5,255.5C 9.74308,238.734 3.74308,221.067 -0.5,202.5C -0.5,183.833 -0.5,165.167 -0.5,146.5C 3.69249,128.042 9.69249,110.376 17.5,93.5C 19.8974,89.4613 22.5641,85.628 25.5,82C 25.1667,81.6667 24.8333,81.3333 24.5,81C 27.6207,77.2573 30.6207,73.424 33.5,69.5C 32.6744,68.549 32.5078,67.549 33,66.5C 40.1005,70.9731 45.9338,76.1398 50.5,82C 51.0442,82.7172 51.7109,83.2172 52.5,83.5 Z"/></g>
<g><path style="opacity:0.982" fill="#aeaeae" d="M 346.5,140.5 C 347.67,146.189 347.67,151.856 346.5,157.5C 347.018,160.316 347.851,162.982 349,165.5C 349.167,168.5 349.333,171.5 349.5,174.5C 348.388,186.546 347.054,198.546 345.5,210.5C 345.511,212.045 345.844,213.378 346.5,214.5C 328.346,279.471 287.68,322.638 224.5,344C 217.816,345.437 211.149,346.937 204.5,348.5C 202.711,347.753 201.044,348.086 199.5,349.5C 191.167,349.5 182.833,349.5 174.5,349.5C 179.804,336.796 188.304,326.796 200,319.5C 200.333,319.833 200.667,320.167 201,320.5C 210.258,316.873 218.425,314.039 225.5,312C 225.167,311.667 224.833,311.333 224.5,311C 232.7,308.233 240.367,304.4 247.5,299.5C 251.928,295.215 256.595,291.215 261.5,287.5C 267.495,292.495 273.161,297.828 278.5,303.5C 286.747,305.74 292.414,302.907 295.5,295C 294.872,292.2 293.872,289.533 292.5,287C 292.833,286.667 293.167,286.333 293.5,286C 291.869,284.908 290.202,284.075 288.5,283.5C 285.206,278.862 281.873,274.195 278.5,269.5C 280.215,266.275 281.549,262.942 282.5,259.5C 284.2,259.374 285.7,258.707 287,257.5C 289.164,260.495 290.831,263.829 292,267.5C 293,268.833 294,268.833 295,267.5C 297.658,260.838 300.491,254.338 303.5,248C 302.692,247.692 302.025,247.192 301.5,246.5C 301.846,245.304 302.346,245.304 303,246.5C 304.517,240.52 305.684,234.187 306.5,227.5C 307.818,224.742 308.485,221.576 308.5,218C 308.485,214.424 307.818,211.258 306.5,208.5C 306,204.517 305.5,200.184 305,195.5C 304.667,195.833 304.333,196.167 304,196.5C 302.716,191.222 301.716,185.888 301,180.5C 300.586,180.043 300.086,179.709 299.5,179.5C 293.353,190.555 285.353,200.888 275.5,210.5C 270.401,214.614 265.068,218.281 259.5,221.5C 263.973,212.929 267.973,204.096 271.5,195C 269.808,193.599 269.141,191.766 269.5,189.5C 271.527,189.662 273.527,189.495 275.5,189C 278.631,186.546 280.964,183.546 282.5,180C 281.316,178.82 280.649,177.32 280.5,175.5C 280.649,173.68 281.316,172.18 282.5,171C 279.833,169 279.833,167 282.5,165C 281.03,161.857 279.03,159.024 276.5,156.5C 275.066,155.77 273.9,154.77 273,153.5C 272.667,154.167 272.333,154.833 272,155.5C 268.997,147.13 265.997,138.13 263,128.5C 261.439,124.442 258.939,121.109 255.5,118.5C 255.5,116.833 255.5,115.167 255.5,113.5C 258.32,113.752 260.986,113.252 263.5,112C 262.584,111.722 261.918,111.222 261.5,110.5C 266.014,110.411 270.014,108.911 273.5,106C 282.821,96.2407 292.487,86.9074 302.5,78C 302.167,77.6667 301.833,77.3333 301.5,77C 305.461,74.527 309.128,71.6937 312.5,68.5C 313.689,67.5713 315.022,67.238 316.5,67.5C 316.343,68.8734 316.51,70.2068 317,71.5C 329.818,89.4719 339.152,109.139 345,130.5C 345.333,130.167 345.667,129.833 346,129.5C 346.499,133.152 346.665,136.818 346.5,140.5 Z"/></g>
<g><path style="opacity:0.041" fill="#f7f7f7" d="M 142.5,76.5 C 143.586,76.62 144.253,77.2867 144.5,78.5C 144.253,79.7133 143.586,80.38 142.5,80.5C 142.5,79.1667 142.5,77.8333 142.5,76.5 Z"/></g>
<g><path style="opacity:0.004" fill="#fefffe" d="M 114.5,80.5 C 115.833,81.1667 115.833,81.1667 114.5,80.5 Z"/></g>
<g><path style="opacity:0.004" fill="#f2f3f2" d="M 52.5,82.5 C 53.8333,83.1667 53.8333,83.1667 52.5,82.5 Z"/></g>
<g><path style="opacity:0.525" fill="#dadada" d="M 554.5,85.5 C 547.5,85.5 540.5,85.5 533.5,85.5C 533.196,84.8501 532.863,84.1835 532.5,83.5C 540.167,82.1667 547.833,82.1667 555.5,83.5C 555.137,84.1835 554.804,84.8501 554.5,85.5 Z"/></g>
<g><path style="opacity:0.055" fill="#d5d5d5" d="M 518.5,85.5 C 495.167,85.5 471.833,85.5 448.5,85.5C 447.194,84.5326 446.527,83.1993 446.5,81.5C 470.502,81.3334 494.502,81.5 518.5,82C 519.684,83.1455 519.684,84.3121 518.5,85.5 Z"/></g>
<g><path style="opacity:0.055" fill="#d5d5d5" d="M 607.5,85.5 C 599.427,84.8682 591.76,85.5349 584.5,87.5C 583.193,85.7768 583.193,83.9435 584.5,82C 592.159,81.5003 599.826,81.3336 607.5,81.5C 607.5,82.8333 607.5,84.1667 607.5,85.5 Z"/></g>
<g><path style="opacity:0.078" fill="#f5f5f5" d="M 468.5,104.5 C 468.167,105.167 467.833,105.833 467.5,106.5C 461.5,106.5 455.5,106.5 449.5,106.5C 455.412,104.544 461.745,103.877 468.5,104.5 Z"/></g>
<g><path style="opacity:0.173" fill="#d5d5d5" d="M 516.5,105.5 C 509.687,106.491 502.687,106.825 495.5,106.5C 495.5,157.5 495.5,208.5 495.5,259.5C 494.5,259.5 493.5,259.5 492.5,259.5C 493.815,234.147 494.482,208.647 494.5,183C 494.333,158.167 494.167,133.333 494,108.5C 493.667,157.5 493.333,206.5 493,255.5C 492.333,205.833 492.333,156.167 493,106.5C 500.61,104.191 508.443,103.858 516.5,105.5 Z"/></g>
<g><path style="opacity:0.039" fill="#c3c3c3" d="M 468.5,104.5 C 469.5,104.5 470.5,104.5 471.5,104.5C 471.828,155.572 471.495,206.572 470.5,257.5C 470.165,206.992 469.165,156.658 467.5,106.5C 467.833,105.833 468.167,105.167 468.5,104.5 Z"/></g>
<g><path style="opacity:0.245" fill="#dadada" d="M 261.5,110.5 C 261.918,111.222 262.584,111.722 263.5,112C 260.986,113.252 258.32,113.752 255.5,113.5C 255.5,115.167 255.5,116.833 255.5,118.5C 251.753,116.022 251.586,113.355 255,110.5C 255.106,111.794 256.106,112.461 258,112.5C 261.104,112.149 260.937,111.649 257.5,111C 258.793,110.51 260.127,110.343 261.5,110.5 Z"/></g>
<g><path style="opacity:0.149" fill="#d5d5d5" d="M 584.5,93.5 C 583.181,101.773 581.515,111.773 579.5,123.5C 580.489,113.866 581.322,104.199 582,94.5C 582.671,93.7476 583.504,93.4142 584.5,93.5 Z"/></g>
<g><path style="opacity:0.008" fill="#d4d4d4" d="M 343.5,122.5 C 344.525,122.897 344.692,123.563 344,124.5C 343.536,123.906 343.369,123.239 343.5,122.5 Z"/></g>
<g><path style="opacity:0.004" fill="#fefffe" d="M 86.5,133.5 C 87.8333,134.167 87.8333,134.167 86.5,133.5 Z"/></g>
<g><path style="opacity:0.046" fill="#fbfbfb" d="M 577.5,143.5 C 577.198,146.373 576.531,149.039 575.5,151.5C 575.111,148.447 575.777,145.78 577.5,143.5 Z"/></g>
<g><path style="opacity:0.008" fill="#f3f4f3" d="M 269.5,150.5 C 270.833,151.167 270.833,151.167 269.5,150.5 Z"/></g>
<g><path style="opacity:0.418" fill="#bebebe" d="M 346.5,214.5 C 345.844,213.378 345.511,212.045 345.5,210.5C 347.054,198.546 348.388,186.546 349.5,174.5C 349.333,171.5 349.167,168.5 349,165.5C 347.851,162.982 347.018,160.316 346.5,157.5C 347.67,151.856 347.67,146.189 346.5,140.5C 347.117,140.389 347.617,140.056 348,139.5C 350.442,157.985 351.108,176.652 350,195.5C 348.885,201.786 347.719,208.119 346.5,214.5 Z"/></g>
<g><path style="opacity:0.004" fill="#fefffe" d="M 71.5,165.5 C 72.5735,166.251 72.7401,167.251 72,168.5C 71.5172,167.552 71.3505,166.552 71.5,165.5 Z"/></g>
<g><path style="opacity:0.004" fill="#fefffe" d="M 71.5,173.5 C 72.525,173.897 72.6917,174.563 72,175.5C 71.5357,174.906 71.369,174.239 71.5,173.5 Z"/></g>
<g><path style="opacity:0.004" fill="#fefffe" d="M 71.5,180.5 C 72.8333,181.167 72.8333,181.167 71.5,180.5 Z"/></g>
<g><path style="opacity:0.176" fill="#e1e1e1" d="M 573.5,178.5 C 573.665,181.85 573.498,185.183 573,188.5C 571.301,189.406 569.467,189.739 567.5,189.5C 567.5,187.5 567.5,185.5 567.5,183.5C 569.544,181.781 571.544,180.114 573.5,178.5 Z"/></g>
<g><path style="opacity:0.004" fill="#e9eae9" d="M 303.5,197.5 C 304.833,198.167 304.833,198.167 303.5,197.5 Z"/></g>
<g><path style="opacity:0.025" fill="#f2f2f2" d="M 42.5,210.5 C 42.7857,216.259 42.4524,221.925 41.5,227.5C 40.8356,224.854 40.5022,222.021 40.5,219C 40.5191,215.748 41.1858,212.915 42.5,210.5 Z"/></g>
<g><path style="opacity:0.004" fill="#f0f1f0" d="M 88.5,214.5 C 89.8333,215.167 89.8333,215.167 88.5,214.5 Z"/></g>
<g><path style="opacity:0.137" fill="#d2d2d2" d="M 87.5,213.5 C 87.3284,214.492 87.6618,215.158 88.5,215.5C 89.9923,216.607 90.9923,218.107 91.5,220C 91.6125,221.662 90.9458,222.829 89.5,223.5C 88.4096,222.273 87.0762,221.44 85.5,221C 85.8333,220.667 86.1667,220.333 86.5,220C 85.1667,219.667 83.8333,219.333 82.5,219C 83.7383,218.31 83.7383,217.81 82.5,217.5C 83.3132,216.347 84.3132,216.347 85.5,217.5C 86.1719,216.051 86.8386,214.718 87.5,213.5 Z"/></g>
<g><path style="opacity:0.004" fill="#d9d9d9" d="M 306.5,208.5 C 307.818,211.258 308.485,214.424 308.5,218C 308.485,221.576 307.818,224.742 306.5,227.5C 305.167,221.167 305.167,214.833 306.5,208.5 Z"/></g>
<g><path style="opacity:0.008" fill="#d9d9d9" d="M 343.5,224.5 C 344.525,224.897 344.692,225.563 344,226.5C 343.536,225.906 343.369,225.239 343.5,224.5 Z"/></g>
<g><path style="opacity:0.909" fill="#b4b4b4" d="M 95.5,231.5 C 97.6719,232.801 100.005,233.801 102.5,234.5C 101.851,239.166 99.5179,242.833 95.5,245.5C 93.684,246.942 91.684,247.442 89.5,247C 90.1667,246.667 90.8333,246.333 91.5,246C 88.9457,243.177 87.4457,240.01 87,236.5C 89.5669,235.73 92.0669,234.73 94.5,233.5C 95.2975,233.043 95.6309,232.376 95.5,231.5 Z"/></g>
<g><path style="opacity:0.885" fill="#bababa" d="M 251.5,232.5 C 251.56,231.957 251.893,231.624 252.5,231.5C 255.286,234.226 258.619,235.893 262.5,236.5C 262.833,237.167 263.167,237.833 263.5,238.5C 262.547,240.455 261.213,242.122 259.5,243.5C 258.754,244.736 258.421,246.07 258.5,247.5C 257.07,247.579 255.736,247.246 254.5,246.5C 252.856,243.689 250.69,241.356 248,239.5C 247.82,237.512 247.986,235.512 248.5,233.5C 250.548,233.84 251.548,233.507 251.5,232.5 Z"/></g>
<g><path style="opacity:0.036" fill="#f7f7f7" d="M 584.5,242.5 C 584.662,244.527 584.495,246.527 584,248.5C 583.617,249.056 583.117,249.389 582.5,249.5C 582.927,246.99 583.593,244.657 584.5,242.5 Z"/></g>
<g><path style="opacity:0.92" fill="#b0b0b0" d="M 117.5,252.5 C 123.56,254.364 129.226,257.03 134.5,260.5C 137.107,261.318 139.774,261.818 142.5,262C 141.833,262.333 141.167,262.667 140.5,263C 142.833,263.333 145.167,263.667 147.5,264C 146.5,264.333 145.5,264.667 144.5,265C 148.469,265.853 152.469,266.519 156.5,267C 158.526,272.233 156.859,275.733 151.5,277.5C 147.205,278.661 142.871,278.828 138.5,278C 129.54,275.382 120.873,271.882 112.5,267.5C 110.693,266.605 109.36,265.272 108.5,263.5C 111.577,259.77 114.577,256.104 117.5,252.5 Z"/></g>
<g><path style="opacity:0.925" fill="#afafaf" d="M 227.5,253.5 C 231.588,254.562 234.921,256.896 237.5,260.5C 238.325,261.386 239.325,261.719 240.5,261.5C 240.725,263.716 239.892,265.383 238,266.5C 237.667,266.167 237.333,265.833 237,265.5C 226.973,272.747 215.806,277.08 203.5,278.5C 198.354,278.594 194.354,276.594 191.5,272.5C 192.43,270.895 192.43,269.395 191.5,268C 192.546,266.461 193.879,266.295 195.5,267.5C 197.39,266.388 199.39,265.554 201.5,265C 201.167,264.667 200.833,264.333 200.5,264C 208.927,262.958 216.927,260.458 224.5,256.5C 225.993,255.859 226.993,254.859 227.5,253.5 Z"/></g>
<g><path style="opacity:0.027" fill="#fefffe" d="M 491.5,259.5 C 485.5,259.5 479.5,259.5 473.5,259.5C 476.087,258.184 479.087,257.517 482.5,257.5C 485.913,257.517 488.913,258.184 491.5,259.5 Z"/></g>
<g><path style="opacity:0.027" fill="#fefffe" d="M 578.5,259.5 C 572.5,259.5 566.5,259.5 560.5,259.5C 563.087,258.184 566.087,257.517 569.5,257.5C 572.913,257.517 575.913,258.184 578.5,259.5 Z"/></g>
<g><path style="opacity:0.004" fill="#f5f6f5" d="M 71.5,268.5 C 72.5735,269.251 72.7401,270.251 72,271.5C 71.5172,270.552 71.3505,269.552 71.5,268.5 Z"/></g>
</svg>
