<?xml version="1.0" encoding="UTF-8"?>
<svg version="1.1" xmlns="http://www.w3.org/2000/svg" width="1000" height="246">
<path d="M0 0 C1.59735001 -0.00258622 3.19469938 -0.00560009 4.79204786 -0.0090034 C9.17075837 -0.01704643 13.54945247 -0.01886146 17.92816949 -0.01960087 C22.65499829 -0.02145612 27.38181867 -0.02900578 32.10864258 -0.03573608 C42.43935674 -0.04930044 52.77006701 -0.05534108 63.10078859 -0.05974674 C69.55475604 -0.0625122 76.008722 -0.06675009 82.46268845 -0.07125092 C100.342 -0.08344077 118.22131037 -0.09374086 136.10062599 -0.09712601 C137.81607149 -0.09745536 137.81607149 -0.09745536 139.56617244 -0.09779136 C140.71249103 -0.09800964 141.85880962 -0.09822791 143.03986514 -0.09845281 C145.36262616 -0.09889627 147.68538717 -0.09934283 150.00814819 -0.09979248 C151.16031037 -0.10001391 152.31247254 -0.10023534 153.49954872 -0.10046348 C172.16492866 -0.10441076 190.83026954 -0.12186392 209.49563439 -0.145152 C228.67226725 -0.16888432 247.84888053 -0.1813287 267.02552831 -0.18249393 C277.78719866 -0.18340959 288.5488181 -0.18913466 299.3104744 -0.20731354 C308.47472046 -0.22273984 317.63889987 -0.22782003 326.80315645 -0.21957543 C331.47526144 -0.21567799 336.14723233 -0.21655417 340.81932068 -0.23063278 C345.10415801 -0.24342594 349.3887612 -0.24212702 353.67359845 -0.23004207 C355.21599616 -0.22809442 356.75841076 -0.23111995 358.30078478 -0.23988643 C374.60221748 -0.32660457 391.45232357 1.81452932 403.87875366 13.45294189 C409.14301905 19.28412817 412.4750966 25.54297557 414.40219116 33.14044189 C414.58781616 33.85587158 414.77344116 34.57130127 414.96469116 35.30841064 C415.60324978 39.4419374 415.58655326 43.52638818 415.58969116 47.70294189 C415.60193726 48.53374268 415.61418335 49.36454346 415.62680054 50.22052002 C415.64293495 57.23899167 414.59484923 62.9844935 413.40219116 70.14044189 C253.35219116 70.14044189 93.30219116 70.14044189 -71.59780884 70.14044189 C-69.37331904 34.54860516 -69.37331904 34.54860516 -58.59780884 22.14044189 C-58.03448853 21.48302002 -57.47116821 20.82559814 -56.89077759 20.14825439 C-41.42772319 3.41560185 -21.58247348 -0.01398862 0 0 Z " fill="#DD0000" transform="translate(329.5978088378906,-0.14044189453125)"/>
<path d="M0 0 C25.21757303 -0.070163 50.43513137 -0.1230239 75.65278244 -0.15543652 C87.36246763 -0.17088803 99.07209208 -0.19194475 110.78173828 -0.22631836 C120.99099655 -0.25627324 131.20021081 -0.27558747 141.4095118 -0.28226548 C146.81240809 -0.28616742 152.21517852 -0.29530175 157.61803436 -0.31719017 C162.7102116 -0.33765153 167.8022119 -0.34381437 172.89442635 -0.33932304 C174.75673702 -0.34014394 176.61905402 -0.34605179 178.48132896 -0.35761642 C194.74638722 -0.45361151 206.82262742 1.88712654 220.75 10.75 C230.06832109 20.06832109 234.34229527 30.7569504 234.5625 43.8125 C234.42127607 65.2281005 230.83939036 87.43079033 226.5625 108.375 C226.39403564 109.24560059 226.22557129 110.11620117 226.05200195 111.01318359 C223.41573526 122.78655103 214.62367247 132.76930553 204.6640625 139.26953125 C193.15676684 146.31422589 181.43831539 150.17368205 167.91348267 150.12025452 C166.71747911 150.12153615 166.71747911 150.12153615 165.49731386 150.12284368 C162.83493743 150.12448621 160.1726245 150.11899725 157.51025391 150.11352539 C155.59806317 150.11324323 153.68587232 150.11340182 151.77368164 150.1139679 C146.5882424 150.11425473 141.40282631 150.10837628 136.21739244 150.10139394 C130.79616444 150.09514157 125.37493589 150.09455511 119.95370483 150.09336853 C109.69035221 150.09026078 99.42701025 150.08205486 89.16366231 150.07201904 C77.4781363 150.06084067 65.79260978 150.0553431 54.10707974 150.05032361 C30.07138059 150.0398718 6.03569089 150.02228309 -18 150 C-17.10773965 142.1153095 -16.21258758 134.23095496 -15.31375217 126.34701157 C-14.89646842 122.68609034 -14.48017788 119.02506189 -14.06616211 115.36376953 C-13.66650456 111.82978026 -13.26423163 108.29609759 -12.86015129 104.76261139 C-12.7065221 103.41513895 -12.55383216 102.06755907 -12.40210152 100.71987152 C-12.18926316 98.83086862 -11.9727613 96.94227958 -11.75610352 95.05371094 C-11.63396988 93.97893494 -11.51183624 92.90415894 -11.38600159 91.79681396 C-11 89 -11 89 -10 85 C42.47 84.67 94.94 84.34 149 84 C151.17696962 71.02579711 151.17696962 71.02579711 153 58 C152.40199931 57.99668985 151.80399862 57.99337971 151.1878767 57.98996925 C136.59652688 57.90853477 122.00527157 57.81637646 107.41406536 57.71247292 C100.35768968 57.66247978 93.30132484 57.61603608 86.24487305 57.578125 C79.43021258 57.54150276 72.61568039 57.49475537 65.80112648 57.44193649 C63.20615606 57.42345804 60.61115949 57.40832614 58.01614952 57.39665604 C54.37091022 57.37968135 50.7259469 57.35061928 47.08081055 57.31884766 C46.01697144 57.31668747 44.95313232 57.31452728 43.85705566 57.31230164 C30.13031716 57.16027832 19.93445403 54.72939193 9.6875 45.25 C0.22905768 35.23630499 -0.16337092 24.63692307 -0.0625 11.5625 C-0.05798828 10.44939453 -0.05347656 9.33628906 -0.04882812 8.18945312 C-0.03711193 5.45957899 -0.02070699 2.72981826 0 0 Z " fill="#DD0000" transform="translate(254,96)"/>
<path d="M0 0 C72.6 0 145.2 0 220 0 C218.80826452 19.06776774 216.31274059 38.03552714 214 57 C168.46 57.33 122.92 57.66 76 58 C75.01 66.91 74.02 75.82 73 85 C118.21 85 163.42 85 210 85 C203 146 203 146 202 150 C129.4 150 56.8 150 -18 150 C-18 139.87478216 -18 139.87478216 -17.36134338 134.69888306 C-17.1489502 132.94509842 -17.1489502 132.94509842 -16.93226624 131.15588379 C-16.77487473 129.90255249 -16.61748322 128.64922119 -16.45532227 127.35791016 C-16.28900035 126.00191778 -16.12315046 124.64586743 -15.95773315 123.2897644 C-15.51020076 119.63255827 -15.05589385 115.97622364 -14.600137 112.3200345 C-14.12324599 108.48620591 -13.65209754 104.65167119 -13.18016052 100.81723022 C-12.38777529 94.38631136 -11.59112619 87.95593207 -10.79174805 81.52587891 C-9.86753109 74.0913417 -8.94936079 66.65607731 -8.03455502 59.22037661 C-7.15333704 52.05831593 -6.26858784 44.89669624 -5.38197136 37.73530197 C-5.00497241 34.69004069 -4.62908424 31.64464534 -4.25406075 28.59914017 C-3.812917 25.0184233 -3.36864457 21.4381081 -2.92193222 17.85808182 C-2.68032171 15.91595723 -2.44175155 13.97345517 -2.20326233 12.03094482 C-1.9866394 10.3025386 -1.9866394 10.3025386 -1.76564026 8.53921509 C-1.64119821 7.53601038 -1.51675615 6.53280567 -1.38854313 5.49920082 C-1 3 -1 3 0 0 Z " fill="#DD0000" transform="translate(18,96)"/>
<path d="M0 0 C75.9 0 151.8 0 230 0 C225.68006304 36.71946414 225.68006304 36.71946414 210.0625 49.59765625 C201.00529526 55.76787698 190.73354881 57.60245344 179.98925781 57.45410156 C178.85609131 57.45468567 177.7229248 57.45526978 176.55541992 57.45587158 C172.85433021 57.4531114 169.15407193 57.42211663 165.453125 57.390625 C162.86953165 57.38315529 160.2859326 57.37746581 157.70233154 57.37347412 C151.62519678 57.35982425 145.54839903 57.32838251 139.47139049 57.28807616 C132.54504612 57.24314758 125.61868674 57.2213188 118.69223261 57.20129442 C104.46133217 57.15964243 90.23067653 57.08942315 76 57 C75.90643723 57.76103027 75.81287445 58.52206055 75.71647644 59.30615234 C74.81996663 66.59791474 73.92321867 73.8896478 73.02622509 81.18135071 C72.56545491 84.92703756 72.10476624 88.67273439 71.64428711 92.41845703 C70.677521 100.28206111 69.70936606 108.14549046 68.73838615 116.00857544 C68.18999708 120.45189675 67.64615989 124.89575814 67.10400391 129.33984375 C66.83634824 131.51823964 66.56861294 133.69662575 66.30078125 135.875 C66.18220261 136.85525146 66.06362396 137.83550293 65.94145203 138.84545898 C65.77574455 140.1865271 65.77574455 140.1865271 65.60668945 141.5546875 C65.46599785 142.70686768 65.46599785 142.70686768 65.32246399 143.88232422 C65.00839376 145.94487676 64.50600878 147.97596487 64 150 C36.94 150 9.88 150 -18 150 C-15.70243634 127.02436341 -15.70243634 127.02436341 -14.30419922 115.79589844 C-14.14536318 114.5049036 -13.98652714 113.21390877 -13.82287788 111.88379288 C-13.40234718 108.46615199 -12.97912823 105.04884967 -12.55525208 101.63162231 C-12.15443279 98.39670483 -11.75617126 95.16147277 -11.35766602 91.92626953 C-10.19927953 82.53387075 -9.03690895 73.14196368 -7.875 63.75 C-5.27625 42.7125 -2.6775 21.675 0 0 Z " fill="#DD0000" transform="translate(510,96)"/>
<path d="M0 0 C24.36616944 -0.09365332 48.73231169 -0.16408184 73.09862518 -0.20724869 C84.41363053 -0.2278291 95.72852371 -0.25586287 107.04345703 -0.30175781 C116.91142402 -0.34176441 126.77930972 -0.36746563 136.64735556 -0.37635398 C141.8671027 -0.3815454 147.0866174 -0.39365192 152.30628967 -0.42292023 C157.23108009 -0.45030823 162.15554493 -0.4583983 167.08040428 -0.45243073 C168.87654077 -0.4535206 170.67268949 -0.46133393 172.46875954 -0.4768219 C189.9305696 -0.61986368 207.83854354 1.5368073 221.18359375 13.9921875 C229.93785919 23.66894543 232.52112347 34.77414202 232.25 47.5 C232.24484375 48.46808594 232.2396875 49.43617187 232.234375 50.43359375 C232.04623898 67.95376102 232.04623898 67.95376102 230 70 C226.94072956 70.09803082 223.90402112 70.12990898 220.84434509 70.12025452 C219.87160521 70.12110894 218.89886532 70.12196337 217.89664847 70.12284368 C214.61068684 70.12450144 211.32477535 70.11897229 208.03881836 70.11352539 C205.6938731 70.11324356 203.34892775 70.11340118 201.00398254 70.1139679 C194.61580807 70.11425602 188.2276522 70.10835693 181.83948207 70.10139394 C175.84648813 70.09579345 169.8534942 70.09477212 163.86049814 70.09374207 C151.98699198 70.09155123 140.11349267 70.08489031 128.23999023 70.07543945 C116.70320673 70.06626614 105.16642508 70.05918491 93.62963867 70.05493164 C92.91899645 70.05466892 92.20835422 70.05440619 91.47617739 70.05413551 C87.91123907 70.05283051 84.34630075 70.05156679 80.78136241 70.05032361 C51.1875704 70.03995002 21.59378552 70.02225674 -8 70 C-8.00703476 68.56893838 -8.01203601 67.13786667 -8.01618862 65.70679379 C-8.01919363 64.90986738 -8.02219865 64.11294098 -8.02529472 63.29186529 C-7.99296393 60.3624869 -7.71854876 57.50232891 -7.37329102 54.59399414 C-7.16791466 52.83286034 -7.16791466 52.83286034 -6.95838928 51.03614807 C-6.80840988 49.79832077 -6.65843048 48.56049347 -6.50390625 47.28515625 C-6.35090561 45.99306747 -6.19790497 44.7009787 -6.04026794 43.36973572 C-5.7182436 40.65387683 -5.39261149 37.93848351 -5.06420898 35.22338867 C-4.64327432 31.74161374 -4.2304764 28.25893156 -3.82019138 24.77588749 C-3.42696635 21.44517821 -3.02776069 18.11519622 -2.62890625 14.78515625 C-2.4069735 12.90716087 -2.4069735 12.90716087 -2.18055725 10.9912262 C-2.04048752 9.83920212 -1.90041779 8.68717804 -1.75610352 7.50024414 C-1.57290306 5.97543175 -1.57290306 5.97543175 -1.38600159 4.41981506 C-1 2 -1 2 0 0 Z " fill="#DD0000" transform="translate(768,0)"/>
<path d="M0 0 C0.85309578 0.00291284 1.70619157 0.00582568 2.58513874 0.00882679 C3.48437468 0.00797237 4.38361063 0.00711794 5.31009614 0.00623763 C8.34730764 0.00458006 11.38446486 0.01010869 14.42167133 0.01555592 C16.58927894 0.01583776 18.75688665 0.01568012 20.92449421 0.01511341 C26.82921365 0.01482531 32.73391296 0.02072414 38.63862771 0.02768737 C44.8019392 0.03391875 50.9652511 0.03452454 57.12856525 0.03571278 C68.80872244 0.03882674 80.48887032 0.04704099 92.16902339 0.05706227 C105.4626257 0.06822141 118.75622775 0.07373335 132.04983383 0.0787577 C159.40417221 0.08922355 186.7585023 0.10682423 214.11283344 0.12908131 C213.96103106 2.33542802 213.8075418 4.5416587 213.65336078 6.74784046 C213.56807117 7.97644763 213.48278156 9.2050548 213.39490741 10.47089249 C212.98767353 15.75226757 212.38047215 21.00088393 211.73783344 26.25798756 C211.60844379 27.33612217 211.47905414 28.41425678 211.3457436 29.52506214 C211.0750513 31.77452863 210.8027431 34.02380124 210.52884907 36.27288014 C210.11002042 39.71469795 209.69699091 43.15717695 209.28470844 46.59978443 C209.01942138 48.79839294 208.75380822 50.99696214 208.48783344 53.19548756 C208.3648891 54.21945133 208.24194477 55.24341511 208.11527485 56.29840809 C207.99845356 57.25388035 207.88163227 58.20935261 207.76127094 59.19377857 C207.60924213 60.44615063 207.60924213 60.44615063 207.45414203 61.72382313 C207.10170202 64.20752627 206.6048073 66.66921201 206.11283344 69.12908131 C133.18283344 69.12908131 60.25283344 69.12908131 -14.88716656 69.12908131 C-6.75639327 0.01750832 -6.75639327 0.01750832 0 0 Z " fill="#DD0000" transform="translate(35.8871665596962,-0.12908130884170532)"/>
<path d="M0 0 C27.39 0 54.78 0 83 0 C80.70235905 22.97640947 80.70235905 22.97640947 79.30419922 34.20410156 C79.14785004 35.47498627 78.99150085 36.74587097 78.83041382 38.05526733 C78.41109104 41.46331853 77.98901342 44.87102292 77.56634665 48.27866077 C77.12158928 51.86848998 76.67949601 55.45864736 76.23709106 59.04876709 C75.40317643 65.81277837 74.56694949 72.57650157 73.7298404 79.34011817 C72.59578927 88.50408111 71.46541414 97.66849746 70.33480644 106.83288574 C68.55949402 121.22229029 66.77936047 135.61109412 65 150 C37.61 150 10.22 150 -18 150 C-17.37533093 140.00529485 -16.67583644 130.21893947 -15.43359375 120.31347656 C-15.20169846 118.41766342 -15.20169846 118.41766342 -14.96511841 116.48355103 C-14.54797617 113.07470209 -14.12499252 109.66660314 -13.70067215 106.25864124 C-13.25487387 102.67084521 -12.8141963 99.08241967 -12.37280273 95.49407959 C-11.63298606 89.4858803 -10.88949157 83.47814548 -10.14355469 77.47070312 C-9.28199471 70.53184321 -8.42559253 63.59236189 -7.57204723 56.65251184 C-6.74740412 49.94809239 -5.91991026 43.24402819 -5.09085083 36.5401535 C-4.73920336 33.69664869 -4.38841614 30.85303971 -4.03829956 28.00934601 C-3.5506597 24.05045401 -3.05877698 20.0920956 -2.56640625 16.13378906 C-2.34973801 14.36967178 -2.34973801 14.36967178 -2.12869263 12.56991577 C-1.99413666 11.49369965 -1.85958069 10.41748352 -1.72094727 9.30865479 C-1.60517838 8.37445835 -1.48940948 7.44026192 -1.37013245 6.4777565 C-1 4 -1 4 0 0 Z " fill="#DD0000" transform="translate(912,96)"/>
<path d="M0 0 C27.39 0 54.78 0 83 0 C80.70235905 22.97640947 80.70235905 22.97640947 79.30419922 34.20410156 C79.14785004 35.47498627 78.99150085 36.74587097 78.83041382 38.05526733 C78.41109104 41.46331853 77.98901342 44.87102292 77.56634665 48.27866077 C77.12158928 51.86848998 76.67949601 55.45864736 76.23709106 59.04876709 C75.40317643 65.81277837 74.56694949 72.57650157 73.7298404 79.34011817 C72.59578927 88.50408111 71.46541414 97.66849746 70.33480644 106.83288574 C68.55949402 121.22229029 66.77936047 135.61109412 65 150 C37.61 150 10.22 150 -18 150 C-17.37533093 140.00529485 -16.67583644 130.21893947 -15.43359375 120.31347656 C-15.20169846 118.41766342 -15.20169846 118.41766342 -14.96511841 116.48355103 C-14.54797617 113.07470209 -14.12499252 109.66660314 -13.70067215 106.25864124 C-13.25487387 102.67084521 -12.8141963 99.08241967 -12.37280273 95.49407959 C-11.63298606 89.4858803 -10.88949157 83.47814548 -10.14355469 77.47070312 C-9.28199471 70.53184321 -8.42559253 63.59236189 -7.57204723 56.65251184 C-6.74740412 49.94809239 -5.91991026 43.24402819 -5.09085083 36.5401535 C-4.73920336 33.69664869 -4.38841614 30.85303971 -4.03829956 28.00934601 C-3.5506597 24.05045401 -3.05877698 20.0920956 -2.56640625 16.13378906 C-2.34973801 14.36967178 -2.34973801 14.36967178 -2.12869263 12.56991577 C-1.99413666 11.49369965 -1.85958069 10.41748352 -1.72094727 9.30865479 C-1.60517838 8.37445835 -1.48940948 7.44026192 -1.37013245 6.4777565 C-1 4 -1 4 0 0 Z " fill="#DD0000" transform="translate(756,96)"/>
</svg>
