<?xml version="1.0" encoding="UTF-8"?>
<!DOCTYPE svg PUBLIC "-//W3C//DTD SVG 1.1//EN" "http://www.w3.org/Graphics/SVG/1.1/DTD/svg11.dtd">
<svg xmlns="http://www.w3.org/2000/svg" version="1.1" width="1000px" height="286px" style="shape-rendering:geometricPrecision; text-rendering:geometricPrecision; image-rendering:optimizeQuality; fill-rule:evenodd; clip-rule:evenodd" xmlns:xlink="http://www.w3.org/1999/xlink">
<g><path style="opacity:0.99" fill="#dedddd" d="M 128.5,-0.5 C 137.833,-0.5 147.167,-0.5 156.5,-0.5C 161.481,1.61207 166.147,4.4454 170.5,8C 205.986,43.9863 241.653,79.8196 277.5,115.5C 284.081,123.243 287.081,132.243 286.5,142.5C 286.968,152.595 284.134,161.595 278,169.5C 241.833,205 206,240.833 170.5,277C 166.147,280.555 161.481,283.388 156.5,285.5C 147.167,285.5 137.833,285.5 128.5,285.5C 123.307,283.006 118.307,280.006 113.5,276.5C 78.1667,241.167 42.8333,205.833 7.5,170.5C 4.28806,166.068 1.6214,161.401 -0.5,156.5C -0.5,147.167 -0.5,137.833 -0.5,128.5C 1.5333,124.106 3.86663,119.773 6.5,115.5C 42.1667,79.8333 77.8333,44.1667 113.5,8.5C 118.307,4.99375 123.307,1.99375 128.5,-0.5 Z"/></g>
<g><path style="opacity:1" fill="#e87b77" d="M 148.5,8.5 C 138.407,7.64629 129.074,9.64629 120.5,14.5C 126.456,9.11582 133.623,6.78249 142,7.5C 144.361,7.50393 146.527,7.83726 148.5,8.5 Z"/></g>
<g><path style="opacity:1" fill="#eb2d27" d="M 148.5,8.5 C 155.055,8.9523 160.722,11.2856 165.5,15.5C 167.569,18.5725 170.236,20.9059 173.5,22.5C 169.602,24.2822 165.269,25.2822 160.5,25.5C 158.394,24.5705 156.394,23.4038 154.5,22C 153.207,21.51 151.873,21.3433 150.5,21.5C 137.049,15.8596 125.716,18.8596 116.5,30.5C 110.14,36.1937 104.14,42.1937 98.5,48.5C 95.3,49.5881 92.3,50.9215 89.5,52.5C 87.712,52.7852 86.0453,52.4519 84.5,51.5C 86.6049,49.4084 88.2716,47.0751 89.5,44.5C 99.7801,35.888 109.447,26.5547 118.5,16.5C 118.5,15.1667 119.167,14.5 120.5,14.5C 129.074,9.64629 138.407,7.64629 148.5,8.5 Z"/></g>
<g><path style="opacity:1" fill="#e79794" d="M 165.5,15.5 C 168.764,17.0941 171.431,19.4275 173.5,22.5C 170.236,20.9059 167.569,18.5725 165.5,15.5 Z"/></g>
<g><path style="opacity:1" fill="#f15c57" d="M 150.5,21.5 C 143.832,20.2617 137.165,20.2617 130.5,21.5C 125.446,24.019 120.78,27.019 116.5,30.5C 125.716,18.8596 137.049,15.8596 150.5,21.5 Z"/></g>
<g><path style="opacity:0.947" fill="#3c2b30" d="M 769.5,22.5 C 784.661,23.3314 799.995,23.8314 815.5,24C 817.25,25.3186 819.25,25.8186 821.5,25.5C 823.125,32.7231 824.125,40.0565 824.5,47.5C 823.5,47.5 822.5,47.5 821.5,47.5C 821.608,49.5138 820.942,51.1805 819.5,52.5C 812.825,52.3337 806.158,52.5004 799.5,53C 797.942,53.21 796.609,53.71 795.5,54.5C 789.494,51.7652 783.161,50.4319 776.5,50.5C 776.44,49.9569 776.107,49.6236 775.5,49.5C 774.548,51.0453 774.215,52.712 774.5,54.5C 763.185,55.2941 751.852,55.6275 740.5,55.5C 740.5,44.5 740.5,33.5 740.5,22.5C 750.167,22.5 759.833,22.5 769.5,22.5 Z"/></g>
<g><path style="opacity:0.921" fill="#2c2023" d="M 889.5,22.5 C 899.833,22.5 910.167,22.5 920.5,22.5C 922.988,24.3878 925.988,25.0545 929.5,24.5C 930.024,30.1874 930.69,35.8541 931.5,41.5C 932.5,41.5 933.5,41.5 934.5,41.5C 935.486,46.1578 934.152,49.8245 930.5,52.5C 928.807,56.5445 927.141,60.5445 925.5,64.5C 924.5,64.5 923.5,64.5 922.5,64.5C 922.207,60.5633 922.54,56.73 923.5,53C 913.833,52.3333 904.167,52.3333 894.5,53C 895.661,79.0945 895.828,105.261 895,131.5C 894.363,139.101 890.529,144.434 883.5,147.5C 875.862,148.497 868.196,148.831 860.5,148.5C 860.174,116.427 860.508,84.4267 861.5,52.5C 866.669,51.6191 872.002,50.9525 877.5,50.5C 880.463,45.3366 882.796,39.8366 884.5,34C 884.354,32.2729 883.687,32.1062 882.5,33.5C 881.516,30.5719 881.183,27.5719 881.5,24.5C 884.698,25.0356 887.365,24.369 889.5,22.5 Z"/></g>
<g><path style="opacity:0.946" fill="#281f21" d="M 920.5,22.5 C 943.836,22.3334 967.169,22.5 990.5,23C 993.961,24.6428 996.961,26.8095 999.5,29.5C 999.5,37.1667 999.5,44.8333 999.5,52.5C 985.833,52.5 972.167,52.5 958.5,52.5C 958.5,58.5 958.5,64.5 958.5,70.5C 970.167,70.5 981.833,70.5 993.5,70.5C 994.154,78.7631 993.154,86.7631 990.5,94.5C 989.167,94.5 988.5,95.1667 988.5,96.5C 986.202,97.3103 983.868,98.1436 981.5,99C 981.833,99.3333 982.167,99.6667 982.5,100C 973.833,100.333 965.167,100.667 956.5,101C 957.833,106.667 957.833,112.333 956.5,118C 970.829,118.5 985.163,118.667 999.5,118.5C 999.5,128.5 999.5,138.5 999.5,148.5C 973.833,148.5 948.167,148.5 922.5,148.5C 922.5,120.5 922.5,92.5 922.5,64.5C 923.5,64.5 924.5,64.5 925.5,64.5C 927.141,60.5445 928.807,56.5445 930.5,52.5C 934.152,49.8245 935.486,46.1578 934.5,41.5C 933.5,41.5 932.5,41.5 931.5,41.5C 930.69,35.8541 930.024,30.1874 929.5,24.5C 925.988,25.0545 922.988,24.3878 920.5,22.5 Z"/></g>
<g><path style="opacity:1" fill="#f17875" d="M 150.5,21.5 C 151.873,21.3433 153.207,21.51 154.5,22C 156.394,23.4038 158.394,24.5705 160.5,25.5C 165.269,25.2822 169.602,24.2822 173.5,22.5C 174.404,23.209 174.737,24.209 174.5,25.5C 165.3,26.2738 156.3,27.9405 147.5,30.5C 147.975,34.0839 148.975,37.4172 150.5,40.5C 153.686,49.726 156.686,59.0594 159.5,68.5C 159.833,69.8333 160.167,71.1667 160.5,72.5C 157.707,71.4625 155.207,71.4625 153,72.5C 152.503,75.146 152.336,77.8127 152.5,80.5C 147.608,82.1831 142.608,83.5165 137.5,84.5C 136.609,85.1098 135.609,85.4431 134.5,85.5C 139.76,82.8604 145.26,80.5271 151,78.5C 151.167,77.5 151.333,76.5 151.5,75.5C 149.659,69.6371 147.659,63.9704 145.5,58.5C 144.569,53.1707 142.902,48.1707 140.5,43.5C 139.85,41.5648 139.517,39.5648 139.5,37.5C 137.473,37.3379 135.473,37.5045 133.5,38C 126.573,40.4763 119.573,42.643 112.5,44.5C 107.775,45.6211 103.109,46.9544 98.5,48.5C 104.14,42.1937 110.14,36.1937 116.5,30.5C 120.78,27.019 125.446,24.019 130.5,21.5C 137.165,20.2617 143.832,20.2617 150.5,21.5 Z"/></g>
<g><path style="opacity:0.433" fill="#7b636c" d="M 358.5,22.5 C 427.834,22.3333 497.167,22.5 566.5,23C 567.416,23.2784 568.082,23.7784 568.5,24.5C 567.167,24.5 565.833,24.5 564.5,24.5C 550.837,23.8334 537.004,23.5001 523,23.5C 468.168,24.1084 413.334,24.6084 358.5,25C 355.413,25.2589 352.413,25.7589 349.5,26.5C 352.322,24.9779 355.322,23.6446 358.5,22.5 Z"/></g>
<g><path style="opacity:0.993" fill="#48333a" d="M 732.5,54.5 C 719.242,56.0457 705.909,56.8791 692.5,57C 691.663,58.0113 691.33,59.1779 691.5,60.5C 690.17,59.1679 688.503,58.3345 686.5,58C 686.833,57.6667 687.167,57.3333 687.5,57C 680.479,55.4454 674.812,53.9454 670.5,52.5C 669.167,52.6667 667.833,52.8333 666.5,53C 667.167,53.3333 667.833,53.6667 668.5,54C 664.833,54.3333 661.167,54.6667 657.5,55C 657.833,55.3333 658.167,55.6667 658.5,56C 656.744,56.2022 655.078,56.7022 653.5,57.5C 650.514,59.3517 648.18,61.0184 646.5,62.5C 644.696,61.838 642.696,61.5046 640.5,61.5C 628.528,62.8789 616.528,63.8789 604.5,64.5C 607.331,53.1351 613.331,43.6351 622.5,36C 651.152,14.6281 680.819,12.9614 711.5,31C 720.164,37.4889 727.164,45.3223 732.5,54.5 Z"/></g>
<g><path style="opacity:0.968" fill="#35262a" d="M 769.5,22.5 C 809.5,22.5 849.5,22.5 889.5,22.5C 887.365,24.369 884.698,25.0356 881.5,24.5C 881.183,27.5719 881.516,30.5719 882.5,33.5C 883.687,32.1062 884.354,32.2729 884.5,34C 882.796,39.8366 880.463,45.3366 877.5,50.5C 872.002,50.9525 866.669,51.6191 861.5,52.5C 851.833,52.5 842.167,52.5 832.5,52.5C 828.167,52.5 823.833,52.5 819.5,52.5C 820.942,51.1805 821.608,49.5138 821.5,47.5C 822.5,47.5 823.5,47.5 824.5,47.5C 824.125,40.0565 823.125,32.7231 821.5,25.5C 819.25,25.8186 817.25,25.3186 815.5,24C 799.995,23.8314 784.661,23.3314 769.5,22.5 Z"/></g>
<g><path style="opacity:0.066" fill="#f1eeef" d="M 358.5,22.5 C 355.322,23.6446 352.322,24.9779 349.5,26.5C 346.978,27.0115 344.645,28.0115 342.5,29.5C 343.615,26.9202 345.615,25.2535 348.5,24.5C 351.753,23.4025 355.086,22.7358 358.5,22.5 Z"/></g>
<g><path style="opacity:0.999" fill="#5e434d" d="M 564.5,24.5 C 565.833,24.5 567.167,24.5 568.5,24.5C 571.877,24.0679 574.877,24.7345 577.5,26.5C 567.524,25.6677 557.524,25.3344 547.5,25.5C 532.152,25.3523 516.819,25.6856 501.5,26.5C 502.667,35.8322 504.667,44.9988 507.5,54C 507.027,56.8247 505.694,57.158 503.5,55C 501.752,51.3182 498.752,49.4848 494.5,49.5C 482.993,50.823 471.493,50.823 460,49.5C 458.05,49.7074 456.884,50.7074 456.5,52.5C 455.209,53.7784 453.209,54.4451 450.5,54.5C 450.073,57.7877 450.74,60.7877 452.5,63.5C 455.056,65.2758 457.722,66.7758 460.5,68C 466.585,69.5279 472.585,71.3613 478.5,73.5C 480.544,74.0652 482.21,75.0652 483.5,76.5C 474.651,78.7363 465.651,80.5697 456.5,82C 452.167,82.3333 447.833,82.6667 443.5,83C 438.062,84.9835 432.396,86.3168 426.5,87C 425.944,87.3826 425.611,87.8826 425.5,88.5C 423.007,88.0238 421.007,86.6904 419.5,84.5C 418.167,81.8333 416.833,79.1667 415.5,76.5C 414.947,71.5416 413.947,66.7083 412.5,62C 414.225,59.1143 414.892,55.9477 414.5,52.5C 398.497,52.3334 382.497,52.5001 366.5,53C 367.167,53.3333 367.833,53.6667 368.5,54C 367.584,54.2784 366.918,54.7784 366.5,55.5C 366.5,59.8333 366.5,64.1667 366.5,68.5C 378.789,70.4803 391.456,71.147 404.5,70.5C 405.501,78.4272 404.168,85.7605 400.5,92.5C 395.681,92.3517 391.015,93.0184 386.5,94.5C 385.043,88.2179 383.71,81.8846 382.5,75.5C 377.139,73.895 371.639,72.895 366,72.5C 365.5,65.1742 365.334,57.8409 365.5,50.5C 368.833,50.5 372.167,50.5 375.5,50.5C 374.644,42.7449 373.311,35.0782 371.5,27.5C 372.686,26.3865 376.686,25.8865 383.5,26C 443.832,25.3053 504.166,24.8053 564.5,24.5 Z"/></g>
<g><path style="opacity:0.998" fill="#563c45" d="M 547.5,25.5 C 543.688,26.3238 539.688,26.8238 535.5,27C 540.069,26.982 544.403,27.8153 548.5,29.5C 549.613,35.7911 547.946,41.2911 543.5,46C 546.882,46.1764 550.215,46.6764 553.5,47.5C 548.88,48.4933 544.214,48.8266 539.5,48.5C 538.749,54.8797 538.749,61.2131 539.5,67.5C 537,68.3589 534.667,69.3589 532.5,70.5C 524.092,72.5612 515.425,73.5612 506.5,73.5C 506.826,69.1161 506.492,64.7828 505.5,60.5C 503.871,57.0356 501.204,54.869 497.5,54C 497.833,53.6667 498.167,53.3333 498.5,53C 484.504,52.5001 470.504,52.3334 456.5,52.5C 456.884,50.7074 458.05,49.7074 460,49.5C 471.493,50.823 482.993,50.823 494.5,49.5C 498.752,49.4848 501.752,51.3182 503.5,55C 505.694,57.158 507.027,56.8247 507.5,54C 504.667,44.9988 502.667,35.8322 501.5,26.5C 516.819,25.6856 532.152,25.3523 547.5,25.5 Z"/></g>
<g><path style="opacity:0.998" fill="#513941" d="M 547.5,25.5 C 557.524,25.3344 567.524,25.6677 577.5,26.5C 595.263,32.2917 603.596,44.6251 602.5,63.5C 590.521,64.9647 578.521,66.298 566.5,67.5C 567.011,63.9703 566.344,60.8037 564.5,58C 564.833,57.6667 565.167,57.3333 565.5,57C 563.774,55.4702 561.774,54.4702 559.5,54C 559.833,53.6667 560.167,53.3333 560.5,53C 554.167,52.3333 547.833,52.3333 541.5,53C 542.473,58.4066 542.807,63.9066 542.5,69.5C 539.236,70.3242 535.902,70.6576 532.5,70.5C 534.667,69.3589 537,68.3589 539.5,67.5C 538.749,61.2131 538.749,54.8797 539.5,48.5C 544.214,48.8266 548.88,48.4933 553.5,47.5C 550.215,46.6764 546.882,46.1764 543.5,46C 547.946,41.2911 549.613,35.7911 548.5,29.5C 544.403,27.8153 540.069,26.982 535.5,27C 539.688,26.8238 543.688,26.3238 547.5,25.5 Z"/></g>
<g><path style="opacity:0.997" fill="#654a54" d="M 564.5,24.5 C 504.166,24.8053 443.832,25.3053 383.5,26C 376.686,25.8865 372.686,26.3865 371.5,27.5C 373.311,35.0782 374.644,42.7449 375.5,50.5C 372.167,50.5 368.833,50.5 365.5,50.5C 365.334,57.8409 365.5,65.1742 366,72.5C 371.639,72.895 377.139,73.895 382.5,75.5C 383.71,81.8846 385.043,88.2179 386.5,94.5C 382.8,96.2809 378.8,97.2809 374.5,97.5C 374.5,98.5 374.5,99.5 374.5,100.5C 372.167,100.5 369.833,100.5 367.5,100.5C 355.678,103.039 344.011,106.039 332.5,109.5C 332.167,87.1567 332.5,64.8234 333.5,42.5C 335.183,37.1386 338.183,32.8053 342.5,29.5C 344.645,28.0115 346.978,27.0115 349.5,26.5C 352.413,25.7589 355.413,25.2589 358.5,25C 413.334,24.6084 468.168,24.1084 523,23.5C 537.004,23.5001 550.837,23.8334 564.5,24.5 Z"/></g>
<g><path style="opacity:1" fill="#e8e7e7" d="M 190.5,64.5 C 186.691,66.583 182.691,68.2497 178.5,69.5C 176.435,69.5172 174.435,69.8505 172.5,70.5C 169.012,70.9063 165.679,71.9063 162.5,73.5C 161.935,71.4565 160.935,69.7898 159.5,68.5C 156.686,59.0594 153.686,49.726 150.5,40.5C 150.89,37.5342 150.223,34.8676 148.5,32.5C 157.455,28.7213 166.789,27.5546 176.5,29C 173.167,29.3333 169.833,29.6667 166.5,30C 175.945,39.7802 185.445,49.6135 195,59.5C 195.483,60.448 195.649,61.448 195.5,62.5C 193.302,62.1201 191.635,62.7868 190.5,64.5 Z"/></g>
<g><path style="opacity:1" fill="#e7615b" d="M 118.5,16.5 C 109.447,26.5547 99.7801,35.888 89.5,44.5C 98.5532,34.4453 108.22,25.112 118.5,16.5 Z"/></g>
<g><path style="opacity:1" fill="#eae9e9" d="M 140.5,43.5 C 141.408,48.8926 143.075,53.8926 145.5,58.5C 147.659,63.9704 149.659,69.6371 151.5,75.5C 151.333,76.5 151.167,77.5 151,78.5C 145.26,80.5271 139.76,82.8604 134.5,85.5C 114.789,91.5124 95.1227,97.8458 75.5,104.5C 73.8333,104.5 72.1667,104.5 70.5,104.5C 70.3335,94.4944 70.5002,84.4944 71,74.5C 76.473,69.027 81.973,63.527 87.5,58C 84.2927,58.9433 80.9594,59.2766 77.5,59C 81.3353,57.3745 85.3353,56.3745 89.5,56C 88.8333,55.6667 88.1667,55.3333 87.5,55C 89.3197,54.7996 90.653,53.9663 91.5,52.5C 93.3736,51.7148 95.3736,51.0482 97.5,50.5C 102.808,48.94 107.808,46.94 112.5,44.5C 119.573,42.643 126.573,40.4763 133.5,38C 135.473,37.5045 137.473,37.3379 139.5,37.5C 139.517,39.5648 139.85,41.5648 140.5,43.5 Z"/></g>
<g><path style="opacity:1" fill="#eeaba9" d="M 112.5,44.5 C 107.808,46.94 102.808,48.94 97.5,50.5C 97.8333,49.8333 98.1667,49.1667 98.5,48.5C 103.109,46.9544 107.775,45.6211 112.5,44.5 Z"/></g>
<g><path style="opacity:1" fill="#e36a66" d="M 98.5,48.5 C 98.1667,49.1667 97.8333,49.8333 97.5,50.5C 95.3736,51.0482 93.3736,51.7148 91.5,52.5C 90.8333,52.5 90.1667,52.5 89.5,52.5C 92.3,50.9215 95.3,49.5881 98.5,48.5 Z"/></g>
<g><path style="opacity:1" fill="#e0554d" d="M 89.5,44.5 C 88.2716,47.0751 86.6049,49.4084 84.5,51.5C 86.0453,52.4519 87.712,52.7852 89.5,52.5C 86.9429,53.4852 84.2763,54.4852 81.5,55.5C 80.8333,55.1667 80.1667,54.8333 79.5,54.5C 82.521,50.8123 85.8544,47.4789 89.5,44.5 Z"/></g>
<g><path style="opacity:0.972" fill="#321f25" d="M 776.5,50.5 C 776.5,59.8333 776.5,69.1667 776.5,78.5C 782.03,78.6277 787.363,77.961 792.5,76.5C 791.745,79.128 790.245,79.7946 788,78.5C 784.109,87.5997 780.276,96.5997 776.5,105.5C 775.356,104.817 775.356,105.151 776.5,106.5C 776.5,120.5 776.5,134.5 776.5,148.5C 764.5,148.5 752.5,148.5 740.5,148.5C 740.5,117.5 740.5,86.5 740.5,55.5C 751.852,55.6275 763.185,55.2941 774.5,54.5C 774.215,52.712 774.548,51.0453 775.5,49.5C 776.107,49.6236 776.44,49.9569 776.5,50.5 Z"/></g>
<g><path style="opacity:0.941" fill="#2f2024" d="M 819.5,52.5 C 823.833,52.5 828.167,52.5 832.5,52.5C 835.311,62.7122 834.311,72.7122 829.5,82.5C 824.648,89.8421 817.648,95.3421 808.5,99C 819.633,113.302 830.966,127.469 842.5,141.5C 844.334,143.498 845.334,145.832 845.5,148.5C 831.484,148.833 817.484,148.499 803.5,147.5C 793.998,133.541 784.998,119.874 776.5,106.5C 776.5,106.167 776.5,105.833 776.5,105.5C 780.276,96.5997 784.109,87.5997 788,78.5C 790.245,79.7946 791.745,79.128 792.5,76.5C 795.044,74.4404 796.878,71.7737 798,68.5C 798.314,65.1352 798.481,61.9685 798.5,59C 796.699,58.6827 796.366,58.016 797.5,57C 796.244,56.5831 795.577,55.7498 795.5,54.5C 796.609,53.71 797.942,53.21 799.5,53C 806.158,52.5004 812.825,52.3337 819.5,52.5 Z"/></g>
<g><path style="opacity:0.012" fill="#531c22" d="M 366.5,55.5 C 367.8,57.223 368.467,59.3897 368.5,62C 368.467,64.6103 367.8,66.777 366.5,68.5C 366.5,64.1667 366.5,59.8333 366.5,55.5 Z"/></g>
<g><path style="opacity:1" fill="#edb0ae" d="M 140.5,43.5 C 142.902,48.1707 144.569,53.1707 145.5,58.5C 143.075,53.8926 141.408,48.8926 140.5,43.5 Z"/></g>
<g><path style="opacity:0.957" fill="#342026" d="M 732.5,54.5 C 735.951,60.6888 738.118,67.3554 739,74.5C 742.47,106.06 730.636,129.893 703.5,146C 697.901,148.376 692.234,150.376 686.5,152C 675.485,152.832 664.485,152.666 653.5,151.5C 649.48,150.375 645.48,149.209 641.5,148C 639.404,147.263 637.737,146.097 636.5,144.5C 639.356,144.928 642.356,145.095 645.5,145C 648.571,146.352 651.571,147.852 654.5,149.5C 659.794,139.247 664.794,128.914 669.5,118.5C 685.754,118.557 696.254,110.89 701,95.5C 701.333,95.8333 701.667,96.1667 702,96.5C 702.831,89.144 702.665,81.8107 701.5,74.5C 700.859,72.7045 699.859,71.2045 698.5,70C 698.833,69.6667 699.167,69.3333 699.5,69C 698.167,67 696.5,65.3333 694.5,64C 694.833,63.6667 695.167,63.3333 695.5,63C 693.867,62.5204 692.534,61.6871 691.5,60.5C 691.33,59.1779 691.663,58.0113 692.5,57C 705.909,56.8791 719.242,56.0457 732.5,54.5 Z"/></g>
<g><path style="opacity:1" fill="#e5a19f" d="M 209.5,59.5 C 207.097,59.448 204.764,59.7814 202.5,60.5C 203.312,59.0069 204.645,58.3402 206.5,58.5C 207.726,58.5195 208.726,58.8529 209.5,59.5 Z"/></g>
<g><path style="opacity:0.968" fill="#371f27" d="M 646.5,62.5 C 632.984,78.7714 633.65,95.1047 648.5,111.5C 654.777,116.149 661.777,118.482 669.5,118.5C 664.794,128.914 659.794,139.247 654.5,149.5C 651.571,147.852 648.571,146.352 645.5,145C 642.356,145.095 639.356,144.928 636.5,144.5C 612.4,131.998 600.233,111.998 600,84.5C 598.597,89.0819 596.43,92.5819 593.5,95C 593.833,95.3333 594.167,95.6667 594.5,96C 592.5,97 590.5,98 588.5,99C 588.833,99.3333 589.167,99.6667 589.5,100C 588.552,100.483 587.552,100.649 586.5,100.5C 586.062,100.565 585.728,100.399 585.5,100C 586.848,97.4866 588.848,95.6532 591.5,94.5C 593.744,89.4387 596.078,85.1054 598.5,81.5C 599.736,82.2458 601.07,82.5792 602.5,82.5C 602.32,78.7845 602.654,75.1178 603.5,71.5C 601.537,69.8172 601.37,68.1505 603,66.5C 603.308,67.3081 603.808,67.9747 604.5,68.5C 605.626,67.1916 605.626,65.8583 604.5,64.5C 616.528,63.8789 628.528,62.8789 640.5,61.5C 642.696,61.5046 644.696,61.838 646.5,62.5 Z"/></g>
<g><path style="opacity:0.918" fill="#3a1f28" d="M 602.5,63.5 C 603.167,63.8333 603.833,64.1667 604.5,64.5C 605.626,65.8583 605.626,67.1916 604.5,68.5C 603.808,67.9747 603.308,67.3081 603,66.5C 601.37,68.1505 601.537,69.8172 603.5,71.5C 602.654,75.1178 602.32,78.7845 602.5,82.5C 601.07,82.5792 599.736,82.2458 598.5,81.5C 596.078,85.1054 593.744,89.4387 591.5,94.5C 588.848,95.6532 586.848,97.4866 585.5,100C 585.728,100.399 586.062,100.565 586.5,100.5C 584.083,102.883 581.083,104.55 577.5,105.5C 565.633,107.879 553.633,109.046 541.5,109C 542.489,122.087 542.823,135.254 542.5,148.5C 534.804,148.831 527.138,148.497 519.5,147.5C 513.029,145.365 509.029,141.032 507.5,134.5C 506.5,114.178 506.167,93.8443 506.5,73.5C 515.425,73.5612 524.092,72.5612 532.5,70.5C 535.902,70.6576 539.236,70.3242 542.5,69.5C 542.5,72.5 542.5,75.5 542.5,78.5C 550.055,79.0102 557.389,78.3436 564.5,76.5C 565.92,73.7387 566.587,70.7387 566.5,67.5C 578.521,66.298 590.521,64.9647 602.5,63.5 Z"/></g>
<g><path style="opacity:1" fill="#e9afad" d="M 159.5,68.5 C 160.935,69.7898 161.935,71.4565 162.5,73.5C 165.679,71.9063 169.012,70.9063 172.5,70.5C 169.476,72.336 166.143,73.6693 162.5,74.5C 161.287,74.2528 160.62,73.5862 160.5,72.5C 160.167,71.1667 159.833,69.8333 159.5,68.5 Z"/></g>
<g><path style="opacity:1" fill="#e3e2e2" d="M 208.5,71.5 C 210.144,71.2865 211.644,71.6198 213,72.5C 214.814,76.4531 216.314,80.4531 217.5,84.5C 222.831,100.484 228.164,116.484 233.5,132.5C 233.259,134.898 233.926,136.898 235.5,138.5C 235.259,140.898 235.926,142.898 237.5,144.5C 237.259,146.898 237.926,148.898 239.5,150.5C 239.259,152.898 239.926,154.898 241.5,156.5C 243.074,158.102 243.741,160.102 243.5,162.5C 244.377,171.133 244.711,179.8 244.5,188.5C 242.708,183.255 241.874,177.588 242,171.5C 232.014,181.986 221.848,192.319 211.5,202.5C 211.506,209.744 211.34,217.077 211,224.5C 210.71,226.044 210.044,227.377 209,228.5C 209.951,225.029 210.451,220.696 210.5,215.5C 210.333,212.833 210.167,210.167 210,207.5C 209.617,208.056 209.117,208.389 208.5,208.5C 207.833,207.833 207.167,207.167 206.5,206.5C 206.167,205.167 205.833,203.833 205.5,202.5C 205.741,200.102 205.074,198.102 203.5,196.5C 203.483,194.435 203.15,192.435 202.5,190.5C 201.456,184.364 199.79,178.364 197.5,172.5C 195.034,164.725 192.034,157.392 188.5,150.5C 186.992,148.819 185.992,146.819 185.5,144.5C 182.929,138.019 180.929,131.352 179.5,124.5C 178.998,115.627 179.665,106.96 181.5,98.5C 184.559,95.0747 186.892,91.0747 188.5,86.5C 194.087,79.8935 200.754,74.8935 208.5,71.5 Z"/></g>
<g><path style="opacity:0.923" fill="#3d1e29" d="M 483.5,76.5 C 497.173,82.155 503.506,92.4884 502.5,107.5C 503.385,128.273 494.051,141.773 474.5,148C 427.168,148.5 379.835,148.667 332.5,148.5C 332.5,135.5 332.5,122.5 332.5,109.5C 344.011,106.039 355.678,103.039 367.5,100.5C 368.813,106.334 368.813,112.167 367.5,118C 398.839,118.833 430.172,118.667 461.5,117.5C 462.948,116.646 464.281,115.646 465.5,114.5C 466.302,111.692 466.302,109.192 465.5,107C 462.749,104.778 459.749,102.944 456.5,101.5C 448.383,99.1808 440.383,96.5142 432.5,93.5C 429.522,92.52 427.189,90.8534 425.5,88.5C 425.611,87.8826 425.944,87.3826 426.5,87C 432.396,86.3168 438.062,84.9835 443.5,83C 447.833,82.6667 452.167,82.3333 456.5,82C 465.651,80.5697 474.651,78.7363 483.5,76.5 Z"/></g>
<g><path style="opacity:1" fill="#e75b57" d="M 209.5,59.5 C 209.5,59.8333 209.5,60.1667 209.5,60.5C 206.239,61.5753 202.905,62.5753 199.5,63.5C 201.344,67.6888 204.344,70.3554 208.5,71.5C 200.754,74.8935 194.087,79.8935 188.5,86.5C 186.087,88.9056 184.087,91.5723 182.5,94.5C 182.762,93.0222 182.429,91.6888 181.5,90.5C 179.684,91.8149 178.017,93.3149 176.5,95C 174.098,95.8141 171.765,95.6474 169.5,94.5C 174.364,89.4681 179.364,84.6347 184.5,80C 183.939,78.324 182.939,76.9906 181.5,76C 183.167,74.3333 184.833,72.6667 186.5,71C 183.21,71.3685 179.877,71.3685 176.5,71C 177.416,70.7216 178.082,70.2216 178.5,69.5C 182.691,68.2497 186.691,66.583 190.5,64.5C 194.776,63.6802 198.776,62.3468 202.5,60.5C 204.764,59.7814 207.097,59.448 209.5,59.5 Z"/></g>
<g><path style="opacity:1" fill="#e12f29" d="M 209.5,60.5 C 225.803,75.1358 241.47,90.4691 256.5,106.5C 255.503,106.47 254.836,106.97 254.5,108C 255.292,109.96 256.625,111.46 258.5,112.5C 258,112.833 257.5,113.167 257,113.5C 255.635,112.544 254.135,111.878 252.5,111.5C 250.379,112.399 248.379,112.399 246.5,111.5C 238.06,103.892 230.06,95.7251 222.5,87C 220.807,86.1534 219.14,85.3201 217.5,84.5C 216.314,80.4531 214.814,76.4531 213,72.5C 211.644,71.6198 210.144,71.2865 208.5,71.5C 204.344,70.3554 201.344,67.6888 199.5,63.5C 202.905,62.5753 206.239,61.5753 209.5,60.5 Z"/></g>
<g><path style="opacity:1" fill="#e6b3b1" d="M 188.5,86.5 C 186.892,91.0747 184.559,95.0747 181.5,98.5C 181.833,97.1667 182.167,95.8333 182.5,94.5C 184.087,91.5723 186.087,88.9056 188.5,86.5 Z"/></g>
<g><path style="opacity:0.016" fill="#4b2a2f" d="M 990.5,94.5 C 991.478,94.811 992.145,95.4777 992.5,96.5C 991.149,98.019 989.649,99.3523 988,100.5C 986.413,99.154 986.58,97.8206 988.5,96.5C 989.5,96.1667 990.167,95.5 990.5,94.5 Z"/></g>
<g><path style="opacity:0.351" fill="#41202b" d="M 400.5,92.5 C 400.119,93.9311 399.119,94.7645 397.5,95C 397.833,95.3333 398.167,95.6667 398.5,96C 391.014,99.8948 383.014,101.395 374.5,100.5C 374.5,99.5 374.5,98.5 374.5,97.5C 378.8,97.2809 382.8,96.2809 386.5,94.5C 391.015,93.0184 395.681,92.3517 400.5,92.5 Z"/></g>
<g><path style="opacity:1" fill="#d76766" d="M 134.5,85.5 C 133.909,86.1515 133.243,86.8182 132.5,87.5C 128.48,88.6247 124.48,89.7914 120.5,91C 125.009,91.7289 129.342,91.2289 133.5,89.5C 133.762,90.9778 133.429,92.3112 132.5,93.5C 129.427,96.0685 126.927,99.0685 125,102.5C 123.989,103.337 122.822,103.67 121.5,103.5C 121.5,104.833 121.5,106.167 121.5,107.5C 120.022,107.238 118.689,107.571 117.5,108.5C 114.167,111.833 110.833,115.167 107.5,118.5C 110.714,119.044 113.714,120.044 116.5,121.5C 117.854,119.816 119.521,119.316 121.5,120C 119.551,121.835 117.217,123.001 114.5,123.5C 112.739,124.917 111.406,126.583 110.5,128.5C 110.5,128.833 110.5,129.167 110.5,129.5C 100.114,132.295 89.7806,135.295 79.5,138.5C 75.6236,128.611 71.9569,118.611 68.5,108.5C 68.8333,107.833 69.1667,107.167 69.5,106.5C 71.6568,105.95 73.6568,105.283 75.5,104.5C 95.1227,97.8458 114.789,91.5124 134.5,85.5 Z"/></g>
<g><path style="opacity:1" fill="#d95f5e" d="M 144.5,126.5 C 144.167,126.5 143.833,126.5 143.5,126.5C 144.027,122.542 142.36,120.209 138.5,119.5C 129.025,122.103 119.692,125.103 110.5,128.5C 111.406,126.583 112.739,124.917 114.5,123.5C 117.217,123.001 119.551,121.835 121.5,120C 119.521,119.316 117.854,119.816 116.5,121.5C 113.714,120.044 110.714,119.044 107.5,118.5C 110.833,115.167 114.167,111.833 117.5,108.5C 118.689,107.571 120.022,107.238 121.5,107.5C 121.5,106.167 121.5,104.833 121.5,103.5C 122.822,103.67 123.989,103.337 125,102.5C 126.927,99.0685 129.427,96.0685 132.5,93.5C 133.429,92.3112 133.762,90.9778 133.5,89.5C 129.342,91.2289 125.009,91.7289 120.5,91C 124.48,89.7914 128.48,88.6247 132.5,87.5C 133.243,86.8182 133.909,86.1515 134.5,85.5C 135.609,85.4431 136.609,85.1098 137.5,84.5C 141.633,85.3199 145.633,85.3199 149.5,84.5C 147.461,86.8745 145.128,88.8745 142.5,90.5C 141.032,88.4683 139.365,88.635 137.5,91C 139.988,94.0782 142.655,94.2449 145.5,91.5C 147.167,91.8333 148.167,92.8333 148.5,94.5C 145.202,98.7998 141.535,102.8 137.5,106.5C 138,106.833 138.5,107.167 139,107.5C 140,106.833 141,106.167 142,105.5C 146.312,107.136 150.812,107.969 155.5,108C 151.973,111.527 148.473,115.027 145,118.5C 144.503,121.146 144.336,123.813 144.5,126.5 Z"/></g>
<g><path style="opacity:1" fill="#dd5957" d="M 178.5,69.5 C 178.082,70.2216 177.416,70.7216 176.5,71C 179.877,71.3685 183.21,71.3685 186.5,71C 184.833,72.6667 183.167,74.3333 181.5,76C 182.939,76.9906 183.939,78.324 184.5,80C 179.364,84.6347 174.364,89.4681 169.5,94.5C 171.765,95.6474 174.098,95.8141 176.5,95C 178.017,93.3149 179.684,91.8149 181.5,90.5C 182.429,91.6888 182.762,93.0222 182.5,94.5C 182.167,95.8333 181.833,97.1667 181.5,98.5C 180.768,99.8083 179.934,101.142 179,102.5C 178.501,108.491 178.334,114.491 178.5,120.5C 176.871,118.142 175.705,115.476 175,112.5C 174.043,116.099 174.543,119.432 176.5,122.5C 172.947,123.966 169.614,123.632 166.5,121.5C 165.15,122.95 163.484,123.617 161.5,123.5C 161.719,122.325 161.386,121.325 160.5,120.5C 156.18,121.112 151.847,121.778 147.5,122.5C 146.306,123.799 145.306,125.132 144.5,126.5C 144.336,123.813 144.503,121.146 145,118.5C 148.473,115.027 151.973,111.527 155.5,108C 150.812,107.969 146.312,107.136 142,105.5C 141,106.167 140,106.833 139,107.5C 138.5,107.167 138,106.833 137.5,106.5C 141.535,102.8 145.202,98.7998 148.5,94.5C 148.167,92.8333 147.167,91.8333 145.5,91.5C 142.655,94.2449 139.988,94.0782 137.5,91C 139.365,88.635 141.032,88.4683 142.5,90.5C 145.128,88.8745 147.461,86.8745 149.5,84.5C 145.633,85.3199 141.633,85.3199 137.5,84.5C 142.608,83.5165 147.608,82.1831 152.5,80.5C 152.336,77.8127 152.503,75.146 153,72.5C 155.207,71.4625 157.707,71.4625 160.5,72.5C 160.62,73.5862 161.287,74.2528 162.5,74.5C 166.143,73.6693 169.476,72.336 172.5,70.5C 174.435,69.8505 176.435,69.5172 178.5,69.5 Z"/></g>
<g><path style="opacity:1" fill="#b9636b" d="M 24.5,124.5 C 22.7397,121.299 21.9064,117.633 22,113.5C 21.6174,114.056 21.1174,114.389 20.5,114.5C 20.8212,112.952 21.8212,112.285 23.5,112.5C 23.5045,116.534 23.8379,120.534 24.5,124.5 Z"/></g>
<g><path style="opacity:1" fill="#e09b9a" d="M 181.5,98.5 C 179.665,106.96 178.998,115.627 179.5,124.5C 178.566,123.432 178.232,122.099 178.5,120.5C 178.334,114.491 178.501,108.491 179,102.5C 179.934,101.142 180.768,99.8083 181.5,98.5 Z"/></g>
<g><path style="opacity:1" fill="#cfa2a4" d="M 20.5,114.5 C 17.4229,117.569 14.7563,120.903 12.5,124.5C 13.4496,121.932 13.4496,119.432 12.5,117C 13.549,116.508 14.549,116.674 15.5,117.5C 16.9397,116.048 18.6064,115.048 20.5,114.5 Z"/></g>
<g><path style="opacity:1" fill="#da3d3a" d="M 217.5,84.5 C 219.14,85.3201 220.807,86.1534 222.5,87C 230.06,95.7251 238.06,103.892 246.5,111.5C 248.479,114.146 250.812,116.479 253.5,118.5C 255.185,121.213 256.851,123.88 258.5,126.5C 261.028,129.827 260.528,130.161 257,127.5C 254.284,131.979 250.784,132.646 246.5,129.5C 243.548,130.469 240.715,130.802 238,130.5C 235.443,127.819 234.276,128.485 234.5,132.5C 234.167,132.5 233.833,132.5 233.5,132.5C 228.164,116.484 222.831,100.484 217.5,84.5 Z"/></g>
<g><path style="opacity:1" fill="#e4cbcb" d="M 143.5,126.5 C 142.553,124.545 141.219,124.211 139.5,125.5C 138.205,124.902 136.872,124.402 135.5,124C 136.167,123.667 136.833,123.333 137.5,123C 136.333,122.833 135.167,122.667 134,122.5C 126.07,124.533 118.236,126.866 110.5,129.5C 110.5,129.167 110.5,128.833 110.5,128.5C 119.692,125.103 129.025,122.103 138.5,119.5C 142.36,120.209 144.027,122.542 143.5,126.5 Z"/></g>
<g><path style="opacity:1" fill="#e6e6e6" d="M 143.5,126.5 C 144.365,134.466 144.698,142.466 144.5,150.5C 142.983,153.035 141.65,155.702 140.5,158.5C 138.417,160.424 136.417,162.591 134.5,165C 124.766,171.607 114.099,176.107 102.5,178.5C 100.473,178.662 98.4727,178.495 96.5,178C 97.2797,176.927 97.113,175.76 96,174.5C 87.606,164.385 81.2727,153.051 77,140.5C 76.349,136.657 77.1824,135.991 79.5,138.5C 89.7806,135.295 100.114,132.295 110.5,129.5C 118.236,126.866 126.07,124.533 134,122.5C 135.167,122.667 136.333,122.833 137.5,123C 136.833,123.333 136.167,123.667 135.5,124C 136.872,124.402 138.205,124.902 139.5,125.5C 141.219,124.211 142.553,124.545 143.5,126.5 Z"/></g>
<g><path style="opacity:1" fill="#ca4949" d="M 178.5,120.5 C 178.232,122.099 178.566,123.432 179.5,124.5C 180.929,131.352 182.929,138.019 185.5,144.5C 183.999,141.826 182.999,141.993 182.5,145C 183.618,147.059 184.285,149.226 184.5,151.5C 178.727,151.713 173.06,151.88 167.5,152C 162.874,154.958 158.874,158.624 155.5,163C 157.947,164.857 160.113,164.69 162,162.5C 165.222,163.99 168.389,164.657 171.5,164.5C 167.753,167.908 164.42,171.574 161.5,175.5C 160.2,176.108 158.867,176.775 157.5,177.5C 155.159,176.217 152.659,175.217 150,174.5C 149.05,175.022 148.216,175.689 147.5,176.5C 144.557,175.756 141.557,175.256 138.5,175C 140.618,173.858 142.618,173.358 144.5,173.5C 147.349,170.484 150.349,167.65 153.5,165C 152.292,164.079 150.958,163.579 149.5,163.5C 148.25,163.423 147.417,162.756 147,161.5C 144.25,163.184 141.584,164.184 139,164.5C 138.591,162.305 139.091,160.305 140.5,158.5C 141.65,155.702 142.983,153.035 144.5,150.5C 147.059,142.633 147.059,134.633 144.5,126.5C 145.306,125.132 146.306,123.799 147.5,122.5C 151.847,121.778 156.18,121.112 160.5,120.5C 161.386,121.325 161.719,122.325 161.5,123.5C 163.484,123.617 165.15,122.95 166.5,121.5C 169.614,123.632 172.947,123.966 176.5,122.5C 174.543,119.432 174.043,116.099 175,112.5C 175.705,115.476 176.871,118.142 178.5,120.5 Z"/></g>
<g><path style="opacity:1" fill="#dc9a99" d="M 233.5,132.5 C 233.833,132.5 234.167,132.5 234.5,132.5C 235.15,134.435 235.483,136.435 235.5,138.5C 233.926,136.898 233.259,134.898 233.5,132.5 Z"/></g>
<g><path style="opacity:1" fill="#dca5a5" d="M 143.5,126.5 C 143.833,126.5 144.167,126.5 144.5,126.5C 147.059,134.633 147.059,142.633 144.5,150.5C 144.698,142.466 144.365,134.466 143.5,126.5 Z"/></g>
<g><path style="opacity:1" fill="#c07f83" d="M 9.5,128.5 C 9.1609,133.197 8.49424,137.863 7.5,142.5C 7.72383,145.855 8.05716,149.188 8.5,152.5C 7.18363,149.913 6.51697,146.913 6.5,143.5C 6.06007,138.067 7.06007,133.067 9.5,128.5 Z"/></g>
<g><path style="opacity:1" fill="#d8706d" d="M 274.5,128.5 C 277.531,134.934 278.198,141.601 276.5,148.5C 276.268,141.78 275.602,135.113 274.5,128.5 Z"/></g>
<g><path style="opacity:1" fill="#ca2d2b" d="M 258.5,126.5 C 259.496,126.414 260.329,126.748 261,127.5C 262.34,130.202 263.673,132.869 265,135.5C 265.711,137.899 265.544,140.232 264.5,142.5C 265.325,143.386 266.325,143.719 267.5,143.5C 266.655,146.826 266.155,150.16 266,153.5C 267.754,151.75 269.921,151.083 272.5,151.5C 272.238,152.978 272.571,154.311 273.5,155.5C 274.001,153.345 275.001,151.678 276.5,150.5C 275.417,155.996 273.251,160.996 270,165.5C 262.964,172.368 256.131,179.368 249.5,186.5C 248.288,187.23 247.288,188.23 246.5,189.5C 246.167,188.667 245.833,187.833 245.5,187C 246.546,181.528 246.712,176.028 246,170.5C 245.902,167.478 245.068,164.811 243.5,162.5C 243.741,160.102 243.074,158.102 241.5,156.5C 241.741,154.102 241.074,152.102 239.5,150.5C 239.741,148.102 239.074,146.102 237.5,144.5C 237.741,142.102 237.074,140.102 235.5,138.5C 235.483,136.435 235.15,134.435 234.5,132.5C 234.276,128.485 235.443,127.819 238,130.5C 240.715,130.802 243.548,130.469 246.5,129.5C 250.784,132.646 254.284,131.979 257,127.5C 260.528,130.161 261.028,129.827 258.5,126.5 Z"/></g>
<g><path style="opacity:1" fill="#db9c9b" d="M 235.5,138.5 C 237.074,140.102 237.741,142.102 237.5,144.5C 235.926,142.898 235.259,140.898 235.5,138.5 Z"/></g>
<g><path style="opacity:1" fill="#d22926" d="M 256.5,106.5 C 264.385,112.376 270.385,119.709 274.5,128.5C 275.602,135.113 276.268,141.78 276.5,148.5C 276.5,149.167 276.5,149.833 276.5,150.5C 275.001,151.678 274.001,153.345 273.5,155.5C 272.571,154.311 272.238,152.978 272.5,151.5C 269.921,151.083 267.754,151.75 266,153.5C 266.155,150.16 266.655,146.826 267.5,143.5C 266.325,143.719 265.325,143.386 264.5,142.5C 265.544,140.232 265.711,137.899 265,135.5C 263.673,132.869 262.34,130.202 261,127.5C 260.329,126.748 259.496,126.414 258.5,126.5C 256.851,123.88 255.185,121.213 253.5,118.5C 250.812,116.479 248.479,114.146 246.5,111.5C 248.379,112.399 250.379,112.399 252.5,111.5C 254.135,111.878 255.635,112.544 257,113.5C 257.5,113.167 258,112.833 258.5,112.5C 256.625,111.46 255.292,109.96 254.5,108C 254.836,106.97 255.503,106.47 256.5,106.5 Z"/></g>
<g><path style="opacity:1" fill="#9c2126" d="M 24.5,124.5 C 29.0491,137.813 33.3824,151.146 37.5,164.5C 37.2594,166.898 37.9261,168.898 39.5,170.5C 42.3773,178.438 45.044,186.438 47.5,194.5C 48.2178,196.137 48.3845,197.803 48,199.5C 47.6174,198.944 47.1174,198.611 46.5,198.5C 36.2021,187.702 25.7021,177.035 15,166.5C 13.503,162.835 11.503,159.502 9,156.5C 8.50999,155.207 8.34332,153.873 8.5,152.5C 8.05716,149.188 7.72383,145.855 7.5,142.5C 8.49424,137.863 9.1609,133.197 9.5,128.5C 10.0221,126.781 11.0221,125.448 12.5,124.5C 14.7563,120.903 17.4229,117.569 20.5,114.5C 21.1174,114.389 21.6174,114.056 22,113.5C 21.9064,117.633 22.7397,121.299 24.5,124.5 Z"/></g>
<g><path style="opacity:1" fill="#da9e9d" d="M 237.5,144.5 C 239.074,146.102 239.741,148.102 239.5,150.5C 237.926,148.898 237.259,146.898 237.5,144.5 Z"/></g>
<g><path style="opacity:1" fill="#d89f9f" d="M 239.5,150.5 C 241.074,152.102 241.741,154.102 241.5,156.5C 239.926,154.898 239.259,152.898 239.5,150.5 Z"/></g>
<g><path style="opacity:0.85" fill="#431d2b" d="M 360.5,160.5 C 361.978,160.238 363.311,160.571 364.5,161.5C 371.421,168.599 378.088,175.099 384.5,181C 397.867,197.046 412.534,212.38 428.5,227C 428.167,227.333 427.833,227.667 427.5,228C 428.5,228.333 429.5,228.667 430.5,229C 430.167,229.333 429.833,229.667 429.5,230C 430.646,230.645 431.646,231.478 432.5,232.5C 432.518,210.11 432.518,187.443 432.5,164.5C 437.833,164.5 443.167,164.5 448.5,164.5C 448.5,198.5 448.5,232.5 448.5,266.5C 446.738,266.643 445.071,266.309 443.5,265.5C 421.522,241.521 399.188,217.854 376.5,194.5C 376.646,216.893 376.48,239.559 376,262.5C 371,263.833 366,263.833 361,262.5C 360.5,228.502 360.333,194.502 360.5,160.5 Z"/></g>
<g><path style="opacity:0.827" fill="#401d29" d="M 690.5,160.5 C 693.491,160.33 695.491,161.663 696.5,164.5C 700.428,174.189 704.761,183.689 709.5,193C 719.093,215.046 729.26,237.213 740,259.5C 740.49,260.793 740.657,262.127 740.5,263.5C 735.489,263.666 730.489,263.499 725.5,263C 720.473,255.431 716.806,247.264 714.5,238.5C 700.496,238.333 686.496,238.5 672.5,239C 668.851,246.78 665.184,254.614 661.5,262.5C 652.215,263.64 642.881,263.806 633.5,263C 631.697,262.363 630.364,261.197 629.5,259.5C 621.287,246.604 612.454,234.271 603,222.5C 602.5,222.833 602,223.167 601.5,223.5C 602.814,236.467 602.814,249.467 601.5,262.5C 596.889,263.61 592.222,263.777 587.5,263C 586.504,230.24 586.171,197.407 586.5,164.5C 599.941,163.956 613.274,164.789 626.5,167C 626.167,167.333 625.833,167.667 625.5,168C 636.749,172.638 642.416,181.138 642.5,193.5C 641.871,208.127 634.537,217.46 620.5,221.5C 625.167,227.5 629.833,233.5 634.5,239.5C 635.222,242.46 637.222,244.96 640.5,247C 640.167,247.333 639.833,247.667 639.5,248C 642.776,250.943 645.276,254.443 647,258.5C 652.683,244.59 659.183,231.09 666.5,218C 665.802,217.029 665.802,215.863 666.5,214.5C 673.627,199.615 680.46,184.615 687,169.5C 687.333,169.833 687.667,170.167 688,170.5C 688.744,167.11 689.577,163.777 690.5,160.5 Z M 601.5,179.5 C 609.741,177.306 617.408,178.64 624.5,183.5C 625.771,187.008 627.104,190.508 628.5,194C 627.923,200.607 624.59,205.107 618.5,207.5C 613.868,208.328 609.202,208.828 604.5,209C 605.833,209.333 607.167,209.667 608.5,210C 606.167,210.667 603.833,210.667 601.5,210C 602.829,199.735 602.829,189.569 601.5,179.5 Z M 692.5,192.5 C 697.931,201.906 702.931,212.406 707.5,224C 697.816,224.832 688.149,224.665 678.5,223.5C 683.917,213.491 688.583,203.158 692.5,192.5 Z"/></g>
<g><path style="opacity:0.865" fill="#3a1e28" d="M 999.5,198.5 C 999.5,208.5 999.5,218.5 999.5,228.5C 988.052,256.899 967.052,268.732 936.5,264C 910.514,254.865 897.68,237.365 898,211.5C 899.004,193.781 907.504,179.781 923.5,169.5C 945.925,158.45 966.258,160.45 984.5,175.5C 991.17,182.152 996.17,189.819 999.5,198.5 Z M 941.5,176.5 C 967.933,174.837 983.267,187.004 987.5,213C 986.809,216.805 985.809,220.805 984.5,225C 984.833,225.333 985.167,225.667 985.5,226C 983.323,230.021 980.656,233.688 977.5,237C 977.833,237.333 978.167,237.667 978.5,238C 975.594,240.938 972.26,243.271 968.5,245C 968.833,245.333 969.167,245.667 969.5,246C 966.849,247.602 963.516,248.602 959.5,249C 959.833,249.333 960.167,249.667 960.5,250C 953.5,250.667 946.5,250.667 939.5,250C 939.833,249.667 940.167,249.333 940.5,249C 938.167,248.667 935.833,248.333 933.5,248C 933.833,247.667 934.167,247.333 934.5,247C 931.003,245.669 927.67,244.003 924.5,242C 924.833,241.667 925.167,241.333 925.5,241C 923.641,240.316 921.974,239.316 920.5,238C 920.5,237 920.5,236 920.5,235C 918.026,233.039 916.026,230.706 914.5,228C 909.814,212.126 913.148,197.96 924.5,185.5C 929.897,181.639 935.563,178.639 941.5,176.5 Z"/></g>
<g><path style="opacity:1" fill="#be3a3a" d="M 185.5,144.5 C 185.992,146.819 186.992,148.819 188.5,150.5C 191.996,161.815 195.496,173.148 199,184.5C 199.586,187.019 200.753,189.019 202.5,190.5C 203.15,192.435 203.483,194.435 203.5,196.5C 202.849,195.909 202.182,195.243 201.5,194.5C 200.548,196.045 200.215,197.712 200.5,199.5C 199.178,199.67 198.011,199.337 197,198.5C 196.505,200.473 196.338,202.473 196.5,204.5C 194.5,199.167 192.5,193.833 190.5,188.5C 190.38,187.414 189.713,186.747 188.5,186.5C 186.013,186.759 184.013,187.759 182.5,189.5C 180.379,189.325 178.379,189.659 176.5,190.5C 174.143,190.663 171.81,190.497 169.5,190C 170.5,189.667 171.5,189.333 172.5,189C 170.153,187.809 169.32,185.976 170,183.5C 170.333,183.833 170.667,184.167 171,184.5C 171.333,183.5 171.667,182.5 172,181.5C 173.011,182.337 174.178,182.67 175.5,182.5C 175.23,179.143 175.896,176.809 177.5,175.5C 172.087,175.084 166.754,175.084 161.5,175.5C 164.42,171.574 167.753,167.908 171.5,164.5C 168.389,164.657 165.222,163.99 162,162.5C 160.113,164.69 157.947,164.857 155.5,163C 158.874,158.624 162.874,154.958 167.5,152C 173.06,151.88 178.727,151.713 184.5,151.5C 184.285,149.226 183.618,147.059 182.5,145C 182.999,141.993 183.999,141.826 185.5,144.5 Z"/></g>
<g><path style="opacity:0.894" fill="#441d2b" d="M 332.5,164.5 C 337.167,164.5 341.833,164.5 346.5,164.5C 346.5,197.5 346.5,230.5 346.5,263.5C 341.833,263.5 337.167,263.5 332.5,263.5C 332.5,230.5 332.5,197.5 332.5,164.5 Z"/></g>
<g><path style="opacity:0.832" fill="#421d2a" d="M 452.5,164.5 C 473.167,164.5 493.833,164.5 514.5,164.5C 514.5,169.167 514.5,173.833 514.5,178.5C 506.5,178.5 498.5,178.5 490.5,178.5C 490.5,206.833 490.5,235.167 490.5,263.5C 485.901,263.8 481.401,263.467 477,262.5C 476.5,234.502 476.333,206.502 476.5,178.5C 468.5,178.5 460.5,178.5 452.5,178.5C 452.5,173.833 452.5,169.167 452.5,164.5 Z"/></g>
<g><path style="opacity:0.822" fill="#411d2a" d="M 520.5,164.5 C 538.5,164.5 556.5,164.5 574.5,164.5C 574.5,169.167 574.5,173.833 574.5,178.5C 561.167,178.5 547.833,178.5 534.5,178.5C 534.5,186.5 534.5,194.5 534.5,202.5C 547.833,202.5 561.167,202.5 574.5,202.5C 574.8,207.099 574.467,211.599 573.5,216C 560.504,216.5 547.504,216.667 534.5,216.5C 534.5,227.167 534.5,237.833 534.5,248.5C 547.833,248.5 561.167,248.5 574.5,248.5C 574.5,253.167 574.5,257.833 574.5,262.5C 556.5,262.5 538.5,262.5 520.5,262.5C 520.5,229.833 520.5,197.167 520.5,164.5 Z"/></g>
<g><path style="opacity:0.759" fill="#3e1d29" d="M 726.5,164.5 C 746.5,164.5 766.5,164.5 786.5,164.5C 786.5,169.167 786.5,173.833 786.5,178.5C 779.167,178.5 771.833,178.5 764.5,178.5C 764.667,206.502 764.5,234.502 764,262.5C 759.197,263.812 754.364,263.812 749.5,262.5C 748.176,234.797 748.176,207.13 749.5,179.5C 741.862,178.503 734.196,178.169 726.5,178.5C 726.5,173.833 726.5,169.167 726.5,164.5 Z"/></g>
<g><path style="opacity:0.82" fill="#3e1d29" d="M 792.5,164.5 C 797.833,164.5 803.167,164.5 808.5,164.5C 808.667,197.168 808.5,229.835 808,262.5C 803,263.833 798,263.833 793,262.5C 792.5,229.835 792.333,197.168 792.5,164.5 Z"/></g>
<g><path style="opacity:0.826" fill="#3c1e29" d="M 812.5,164.5 C 818.395,163.946 824.062,164.612 829.5,166.5C 838.332,188.488 847.165,210.488 856,232.5C 864.629,209.914 873.796,187.58 883.5,165.5C 888.456,164.506 893.456,164.173 898.5,164.5C 897.767,169.31 896.434,173.977 894.5,178.5C 885.48,200.268 876.314,221.935 867,243.5C 863.854,251.431 861.021,259.431 858.5,267.5C 856.418,267.528 854.584,266.861 853,265.5C 839.878,233.241 826.378,199.574 812.5,164.5 Z"/></g>
<g><path style="opacity:1" fill="#b77073" d="M 37.5,164.5 C 39.0739,166.102 39.7406,168.102 39.5,170.5C 37.9261,168.898 37.2594,166.898 37.5,164.5 Z"/></g>
<g><path style="opacity:1" fill="#dcc1c0" d="M 188.5,150.5 C 192.034,157.392 195.034,164.725 197.5,172.5C 199.79,178.364 201.456,184.364 202.5,190.5C 200.753,189.019 199.586,187.019 199,184.5C 195.496,173.148 191.996,161.815 188.5,150.5 Z"/></g>
<g><path style="opacity:1" fill="#ba4a4a" d="M 140.5,158.5 C 139.091,160.305 138.591,162.305 139,164.5C 141.584,164.184 144.25,163.184 147,161.5C 147.417,162.756 148.25,163.423 149.5,163.5C 141.066,172.441 132.066,181.608 122.5,191C 120.323,192.202 117.989,192.702 115.5,192.5C 111.521,189.188 107.854,185.521 104.5,181.5C 101.527,180.491 98.5274,180.491 95.5,181.5C 97.1869,184.533 98.5202,187.866 99.5,191.5C 100.474,193.743 100.808,196.076 100.5,198.5C 98.7747,192.984 96.4413,187.651 93.5,182.5C 96.2064,180.432 99.2064,179.099 102.5,178.5C 114.099,176.107 124.766,171.607 134.5,165C 136.417,162.591 138.417,160.424 140.5,158.5 Z"/></g>
<g><path style="opacity:1" fill="#d6a7a6" d="M 243.5,162.5 C 245.068,164.811 245.902,167.478 246,170.5C 246.712,176.028 246.546,181.528 245.5,187C 245.833,187.833 246.167,188.667 246.5,189.5C 247.288,188.23 248.288,187.23 249.5,186.5C 249.468,188.567 248.468,189.9 246.5,190.5C 245.287,190.253 244.62,189.586 244.5,188.5C 244.711,179.8 244.377,171.133 243.5,162.5 Z"/></g>
<g><path style="opacity:1" fill="#b43d3e" d="M 149.5,163.5 C 150.958,163.579 152.292,164.079 153.5,165C 150.349,167.65 147.349,170.484 144.5,173.5C 142.618,173.358 140.618,173.858 138.5,175C 141.557,175.256 144.557,175.756 147.5,176.5C 148.216,175.689 149.05,175.022 150,174.5C 152.659,175.217 155.159,176.217 157.5,177.5C 158.867,176.775 160.2,176.108 161.5,175.5C 166.754,175.084 172.087,175.084 177.5,175.5C 175.896,176.809 175.23,179.143 175.5,182.5C 174.178,182.67 173.011,182.337 172,181.5C 171.667,182.5 171.333,183.5 171,184.5C 170.667,184.167 170.333,183.833 170,183.5C 169.32,185.976 170.153,187.809 172.5,189C 171.5,189.333 170.5,189.667 169.5,190C 171.81,190.497 174.143,190.663 176.5,190.5C 163.064,195.183 149.731,199.849 136.5,204.5C 134.106,205.015 131.772,205.681 129.5,206.5C 130.23,204.955 131.563,204.122 133.5,204C 131.392,203.64 129.392,202.973 127.5,202C 123.601,198.589 119.601,195.422 115.5,192.5C 117.989,192.702 120.323,192.202 122.5,191C 132.066,181.608 141.066,172.441 149.5,163.5 Z"/></g>
<g><path style="opacity:1" fill="#d09a9a" d="M 190.5,188.5 C 187.763,188.401 185.096,188.735 182.5,189.5C 184.013,187.759 186.013,186.759 188.5,186.5C 189.713,186.747 190.38,187.414 190.5,188.5 Z"/></g>
<g><path style="opacity:1" fill="#a01e20" d="M 115.5,192.5 C 119.601,195.422 123.601,198.589 127.5,202C 129.392,202.973 131.392,203.64 133.5,204C 131.563,204.122 130.23,204.955 129.5,206.5C 127.597,206.796 125.93,207.463 124.5,208.5C 118.372,210.795 112.038,212.461 105.5,213.5C 105.737,212.209 105.404,211.209 104.5,210.5C 102.587,206.678 101.254,202.678 100.5,198.5C 100.808,196.076 100.474,193.743 99.5,191.5C 98.5202,187.866 97.1869,184.533 95.5,181.5C 98.5274,180.491 101.527,180.491 104.5,181.5C 107.854,185.521 111.521,189.188 115.5,192.5 Z"/></g>
<g><path style="opacity:1" fill="#c9a1a2" d="M 47.5,194.5 C 49.4608,196.706 50.7941,199.372 51.5,202.5C 48.9315,202.262 47.2648,200.929 46.5,198.5C 47.1174,198.611 47.6174,198.944 48,199.5C 48.3845,197.803 48.2178,196.137 47.5,194.5 Z"/></g>
<g><path style="opacity:1" fill="#c26a69" d="M 203.5,196.5 C 205.074,198.102 205.741,200.102 205.5,202.5C 203.926,200.898 203.259,198.898 203.5,196.5 Z"/></g>
<g><path style="opacity:1" fill="#cea8a8" d="M 136.5,204.5 C 134.889,206.095 132.889,207.261 130.5,208C 128.527,208.495 126.527,208.662 124.5,208.5C 125.93,207.463 127.597,206.796 129.5,206.5C 131.772,205.681 134.106,205.015 136.5,204.5 Z"/></g>
<g><path style="opacity:1" fill="#c79899" d="M 124.5,208.5 C 118.608,212.317 111.942,214.317 104.5,214.5C 104.5,213.167 104.5,211.833 104.5,210.5C 105.404,211.209 105.737,212.209 105.5,213.5C 112.038,212.461 118.372,210.795 124.5,208.5 Z"/></g>
<g><path style="opacity:1" fill="#b44d4d" d="M 206.5,206.5 C 207.167,207.167 207.833,207.833 208.5,208.5C 208.666,212.514 208.499,216.514 208,220.5C 207.722,221.416 207.222,222.082 206.5,222.5C 206.5,217.167 206.5,211.833 206.5,206.5 Z"/></g>
<g><path style="opacity:1" fill="#b24948" d="M 196.5,204.5 C 197.809,206.571 198.475,209.071 198.5,212C 198.691,217.849 196.691,222.682 192.5,226.5C 196.093,219.685 197.426,212.351 196.5,204.5 Z"/></g>
<g><path style="opacity:0.004" fill="#3b2226" d="M 896.5,217.5 C 897.833,218.167 897.833,218.167 896.5,217.5 Z"/></g>
<g><path style="opacity:1" fill="#a21f21" d="M 203.5,196.5 C 203.259,198.898 203.926,200.898 205.5,202.5C 205.833,203.833 206.167,205.167 206.5,206.5C 206.5,211.833 206.5,217.167 206.5,222.5C 206.248,226.327 204.915,229.66 202.5,232.5C 198.62,231.954 194.954,231.954 191.5,232.5C 191.167,232.167 190.833,231.833 190.5,231.5C 191.63,230.378 192.297,229.044 192.5,227.5C 192.5,227.167 192.5,226.833 192.5,226.5C 196.691,222.682 198.691,217.849 198.5,212C 198.475,209.071 197.809,206.571 196.5,204.5C 196.338,202.473 196.505,200.473 197,198.5C 198.011,199.337 199.178,199.67 200.5,199.5C 200.215,197.712 200.548,196.045 201.5,194.5C 202.182,195.243 202.849,195.909 203.5,196.5 Z"/></g>
<g><path style="opacity:1" fill="#b56c6c" d="M 186.5,233.5 C 182.093,237.623 176.76,239.957 170.5,240.5C 175.946,238.469 181.279,236.135 186.5,233.5 Z"/></g>
<g><path style="opacity:1" fill="#951e20" d="M 192.5,227.5 C 192.297,229.044 191.63,230.378 190.5,231.5C 190.833,231.833 191.167,232.167 191.5,232.5C 194.954,231.954 198.62,231.954 202.5,232.5C 200.833,234.5 199.167,236.5 197.5,238.5C 186.473,249.194 175.473,259.861 164.5,270.5C 161.796,272.171 159.129,273.837 156.5,275.5C 146.31,278.488 136.31,278.155 126.5,274.5C 124.217,274.392 122.217,273.559 120.5,272C 117.964,269.295 115.297,266.795 112.5,264.5C 111.697,263.577 111.53,262.577 112,261.5C 114.514,259.996 117.014,258.662 119.5,257.5C 127.805,255.398 135.805,252.732 143.5,249.5C 146.854,249.253 149.854,248.253 152.5,246.5C 158.216,243.928 164.216,241.928 170.5,240.5C 176.76,239.957 182.093,237.623 186.5,233.5C 188.167,231.167 190.167,229.167 192.5,227.5 Z"/></g>
<g><path style="opacity:1" fill="#cba7a7" d="M 152.5,246.5 C 149.854,248.253 146.854,249.253 143.5,249.5C 143.953,248.542 144.619,247.708 145.5,247C 147.81,246.503 150.143,246.337 152.5,246.5 Z"/></g>
<g><path style="opacity:1" fill="#c69a9b" d="M 197.5,238.5 C 188.091,249.413 178.091,259.913 167.5,270C 166.552,270.483 165.552,270.649 164.5,270.5C 175.473,259.861 186.473,249.194 197.5,238.5 Z"/></g>
<g><path style="opacity:1" fill="#bc8183" d="M 119.5,257.5 C 117.014,258.662 114.514,259.996 112,261.5C 111.53,262.577 111.697,263.577 112.5,264.5C 110.744,263.448 110.077,261.781 110.5,259.5C 113.426,258.539 116.426,257.873 119.5,257.5 Z"/></g>
<g><path style="opacity:1" fill="#c08b8c" d="M 126.5,274.5 C 136.31,278.155 146.31,278.488 156.5,275.5C 155.4,276.558 154.066,277.392 152.5,278C 145.5,278.667 138.5,278.667 131.5,278C 129.569,277.098 127.903,275.931 126.5,274.5 Z"/></g>
</svg>
