<?xml version="1.0" encoding="UTF-8"?>
<!DOCTYPE svg PUBLIC "-//W3C//DTD SVG 1.1//EN" "http://www.w3.org/Graphics/SVG/1.1/DTD/svg11.dtd">
<svg xmlns="http://www.w3.org/2000/svg" version="1.1" width="582px" height="350px" style="shape-rendering:geometricPrecision; text-rendering:geometricPrecision; image-rendering:optimizeQuality; fill-rule:evenodd; clip-rule:evenodd" xmlns:xlink="http://www.w3.org/1999/xlink">
<g><path style="opacity:0.025" fill="#d8dbe6" d="M 255.5,0.5 C 249.968,1.25285 244.301,1.91952 238.5,2.5C 238.611,1.88258 238.944,1.38258 239.5,1C 244.823,0.500649 250.156,0.333983 255.5,0.5 Z"/></g>
<g><path style="opacity:0.967" fill="#97a4c0" d="M 390.5,9.5 C 417.541,14.7568 443.541,23.0902 468.5,34.5C 469.894,36.4809 471.727,38.1476 474,39.5C 477.801,40.9868 481.635,42.3201 485.5,43.5C 486.95,42.3424 487.95,42.8424 488.5,45C 494.369,47.4279 499.703,50.5945 504.5,54.5C 504.414,55.4959 504.748,56.3292 505.5,57C 511.726,60.6051 517.726,64.4384 523.5,68.5C 523.833,68.5 524.167,68.5 524.5,68.5C 524.369,69.2389 524.536,69.9056 525,70.5C 527.478,72.6394 529.978,74.6394 532.5,76.5C 544.805,88.6182 555.805,101.785 565.5,116C 569.232,121.966 572.566,128.132 575.5,134.5C 575.291,135.086 574.957,135.586 574.5,136C 577.095,141.453 579.095,147.119 580.5,153C 579.105,155.087 579.438,156.587 581.5,157.5C 581.5,165.5 581.5,173.5 581.5,181.5C 580.167,181.833 580.167,182.167 581.5,182.5C 581.5,184.833 581.5,187.167 581.5,189.5C 579.438,190.413 579.105,191.913 580.5,194C 576.592,211.386 569.759,227.553 560,242.5C 551.03,253.304 541.53,263.637 531.5,273.5C 527.785,276.548 524.452,279.881 521.5,283.5C 510.579,291.542 499.413,299.209 488,306.5C 487.667,306.167 487.333,305.833 487,305.5C 459.278,320.605 429.945,331.605 399,338.5C 381.843,342.977 364.677,345.643 347.5,346.5C 337.011,347.284 326.678,348.284 316.5,349.5C 299.833,349.5 283.167,349.5 266.5,349.5C 245.665,346.701 224.665,344.034 203.5,341.5C 196.125,340.659 188.791,339.492 181.5,338C 170.442,335.147 159.442,331.98 148.5,328.5C 148.489,326.983 147.823,325.816 146.5,325C 136.056,321.697 125.723,318.197 115.5,314.5C 115.167,314.5 114.833,314.5 114.5,314.5C 108.789,309.644 102.123,306.311 94.5,304.5C 93.8333,304.167 93.1667,303.833 92.5,303.5C 91.1059,301.519 89.2726,299.852 87,298.5C 82.0442,295.97 77.2108,293.303 72.5,290.5C 69.1008,288.969 65.7675,287.135 62.5,285C 57.5059,281.152 52.8393,276.986 48.5,272.5C 44.5,266.5 39.5,261.5 33.5,257.5C 30.7117,254.729 28.3783,251.729 26.5,248.5C 23.5845,242.915 20.2512,237.582 16.5,232.5C 13.8558,225.274 10.5225,218.608 6.5,212.5C 5.12388,204.665 3.29055,196.998 1,189.5C 0.500153,178.505 0.333486,167.505 0.5,156.5C 3.61736,138.21 10.784,121.21 22,105.5C 24.0001,102.334 26.5001,99.6676 29.5,97.5C 38.1457,89.853 46.1457,81.5196 53.5,72.5C 54.1667,72.1667 54.8333,71.8333 55.5,71.5C 61.0927,68.8852 65.7593,65.2185 69.5,60.5C 71.4844,57.8361 74.1511,56.1695 77.5,55.5C 84.9587,52.2265 92.292,48.5598 99.5,44.5C 100.934,43.4116 101.934,42.0783 102.5,40.5C 130.678,25.9122 160.344,15.5788 191.5,9.5C 191.917,10.1239 192.584,10.4573 193.5,10.5C 200.227,9.30498 206.894,7.80498 213.5,6C 252.68,0.642121 292.013,-0.857879 331.5,1.5C 350.715,3.26371 369.715,6.26371 388.5,10.5C 389.416,10.4573 390.083,10.1239 390.5,9.5 Z"/></g>
<g><path style="opacity:1" fill="#cad1e0" d="M 285.5,15.5 C 281.03,16.4861 276.363,16.8195 271.5,16.5C 275.634,15.5151 279.968,15.1818 284.5,15.5C 284.5,12.8333 284.5,10.1667 284.5,7.5C 272.163,7.73351 259.83,8.06685 247.5,8.5C 259.961,6.85292 272.628,6.18625 285.5,6.5C 285.5,9.5 285.5,12.5 285.5,15.5 Z"/></g>
<g><path style="opacity:0.515" fill="#b1bbd0" d="M 255.5,-0.5 C 279.5,-0.5 303.5,-0.5 327.5,-0.5C 341.847,1.85686 356.513,3.69019 371.5,5C 377.896,6.72496 384.229,8.22496 390.5,9.5C 390.083,10.1239 389.416,10.4573 388.5,10.5C 369.715,6.26371 350.715,3.26371 331.5,1.5C 292.013,-0.857879 252.68,0.642121 213.5,6C 206.894,7.80498 200.227,9.30498 193.5,10.5C 192.584,10.4573 191.917,10.1239 191.5,9.5C 206.867,5.45311 222.533,3.11978 238.5,2.5C 244.301,1.91952 249.968,1.25285 255.5,0.5C 255.5,0.166667 255.5,-0.166667 255.5,-0.5 Z"/></g>
<g><path style="opacity:1" fill="#f5f6fa" d="M 271.5,16.5 C 266.234,16.1888 261.234,16.8554 256.5,18.5C 248.82,19.3358 241.153,20.3358 233.5,21.5C 228.126,21.8348 223.126,23.1682 218.5,25.5C 169.883,36.8934 129.716,61.8934 98,100.5C 88.4867,113.528 81.6534,127.861 77.5,143.5C 76.0762,145.515 75.4095,147.848 75.5,150.5C 69.3323,191.158 79.4989,227.158 106,258.5C 133.55,288.354 166.717,309.187 205.5,321C 218.63,324.765 231.963,327.598 245.5,329.5C 249.919,330.972 254.586,331.638 259.5,331.5C 259.833,331.5 260.167,331.5 260.5,331.5C 263.625,332.479 266.958,332.813 270.5,332.5C 274.97,333.486 279.637,333.819 284.5,333.5C 284.5,336.167 284.5,338.833 284.5,341.5C 274.833,341.5 265.167,341.5 255.5,341.5C 209.303,338.7 164.969,328.2 122.5,310C 91.1043,296.389 63.6043,277.222 40,252.5C 12.3765,221.009 3.04312,184.676 12,143.5C 19.662,122.176 31.8287,103.842 48.5,88.5C 80.5024,59.6597 117.169,38.8263 158.5,26C 187.458,16.7406 217.125,10.9073 247.5,8.5C 259.83,8.06685 272.163,7.73351 284.5,7.5C 284.5,10.1667 284.5,12.8333 284.5,15.5C 279.968,15.1818 275.634,15.5151 271.5,16.5 Z"/></g>
<g><path style="opacity:1" fill="#cbd2e1" d="M 312.5,7.5 C 307.833,7.5 303.167,7.5 298.5,7.5C 298.5,10.1667 298.5,12.8333 298.5,15.5C 301.713,15.19 304.713,15.5233 307.5,16.5C 303.958,16.8128 300.625,16.4794 297.5,15.5C 297.5,12.5 297.5,9.5 297.5,6.5C 302.695,6.17949 307.695,6.51283 312.5,7.5 Z"/></g>
<g><path style="opacity:1" fill="#eef1f6" d="M 312.5,7.5 C 363.173,9.07718 411.839,19.5772 458.5,39C 485.526,51.0401 510.192,66.7068 532.5,86C 553.608,104.375 567.441,127.208 574,154.5C 577.768,188.772 569.101,219.439 548,246.5C 531.466,266.379 511.966,282.545 489.5,295C 440.288,321.789 387.621,336.955 331.5,340.5C 320.518,341.286 309.518,341.619 298.5,341.5C 298.5,338.833 298.5,336.167 298.5,333.5C 301.059,333.802 303.393,333.468 305.5,332.5C 309.702,332.817 313.702,332.483 317.5,331.5C 318.167,331.5 318.833,331.5 319.5,331.5C 325.404,331.679 331.071,331.012 336.5,329.5C 381.888,322.981 422.555,305.481 458.5,277C 480.387,258.046 495.887,234.879 505,207.5C 514.596,169.976 508.596,135.309 487,103.5C 458.399,67.261 421.899,42.4277 377.5,29C 365.342,25.3354 353.008,22.5021 340.5,20.5C 334.82,18.3996 328.82,17.3996 322.5,17.5C 319.833,17.5 317.167,17.5 314.5,17.5C 312.393,16.5318 310.059,16.1984 307.5,16.5C 304.713,15.5233 301.713,15.19 298.5,15.5C 298.5,12.8333 298.5,10.1667 298.5,7.5C 303.167,7.5 307.833,7.5 312.5,7.5 Z"/></g>
<g><path style="opacity:1" fill="#7e90af" d="M 285.5,15.5 C 289.5,15.5 293.5,15.5 297.5,15.5C 300.625,16.4794 303.958,16.8128 307.5,16.5C 310.059,16.1984 312.393,16.5318 314.5,17.5C 295.15,17.2737 275.817,17.607 256.5,18.5C 261.234,16.8554 266.234,16.1888 271.5,16.5C 276.363,16.8195 281.03,16.4861 285.5,15.5 Z"/></g>
<g><path style="opacity:1" fill="#b9c3d5" d="M 322.5,17.5 C 328.82,17.3996 334.82,18.3996 340.5,20.5C 334.31,19.8569 328.31,18.8569 322.5,17.5 Z"/></g>
<g><path style="opacity:1" fill="#909fba" d="M 233.5,21.5 C 233.389,22.1174 233.056,22.6174 232.5,23C 227.82,23.8375 223.154,24.6708 218.5,25.5C 223.126,23.1682 228.126,21.8348 233.5,21.5 Z"/></g>
<g><path style="opacity:1" fill="#8397ac" d="M 163.5,32.5 C 164.209,31.596 165.209,31.2627 166.5,31.5C 167.404,32.209 167.737,33.209 167.5,34.5C 167.672,35.4916 167.338,36.1583 166.5,36.5C 166.5,35.1667 166.5,33.8333 166.5,32.5C 165.5,32.5 164.5,32.5 163.5,32.5 Z"/></g>
<g><path style="opacity:1" fill="#556e8c" d="M 163.5,32.5 C 161.485,33.9238 159.152,34.5905 156.5,34.5C 158.515,33.0762 160.848,32.4095 163.5,32.5 Z"/></g>
<g><path style="opacity:1" fill="#6c839e" d="M 421.5,32.5 C 423.403,32.7959 425.07,33.4625 426.5,34.5C 424.302,34.8799 422.635,34.2132 421.5,32.5 Z"/></g>
<g><path style="opacity:1" fill="#dbe1e8" d="M 167.5,34.5 C 168.782,35.7082 168.782,37.0416 167.5,38.5C 162.113,42.531 156.113,44.8643 149.5,45.5C 154.684,41.7396 160.35,38.7396 166.5,36.5C 167.338,36.1583 167.672,35.4916 167.5,34.5 Z"/></g>
<g><path style="opacity:1" fill="#4d6988" d="M 150.5,36.5 C 147.374,38.9897 143.708,40.323 139.5,40.5C 142.939,38.7957 146.605,37.4624 150.5,36.5 Z"/></g>
<g><path style="opacity:1" fill="#0c325c" d="M 421.5,32.5 C 422.635,34.2132 424.302,34.8799 426.5,34.5C 433.319,36.5686 439.986,39.2353 446.5,42.5C 445.618,44.0843 444.785,45.751 444,47.5C 442.984,46.3659 442.317,46.6992 442,48.5C 440.934,46.9005 439.434,45.9005 437.5,45.5C 436.537,45.9698 436.537,46.6365 437.5,47.5C 430.471,44.0346 423.471,40.3679 416.5,36.5C 415.253,34.9936 415.253,33.4936 416.5,32C 418.107,32.0187 419.774,32.1854 421.5,32.5 Z"/></g>
<g><path style="opacity:0.953" fill="#bac3d5" d="M 468.5,34.5 C 474.364,37.2638 480.031,40.2638 485.5,43.5C 481.635,42.3201 477.801,40.9868 474,39.5C 471.727,38.1476 469.894,36.4809 468.5,34.5 Z"/></g>
<g><path style="opacity:1" fill="#ecf0f4" d="M 166.5,31.5 C 165.209,31.2627 164.209,31.596 163.5,32.5C 160.848,32.4095 158.515,33.0762 156.5,34.5C 154.5,35.1667 152.5,35.8333 150.5,36.5C 146.605,37.4624 142.939,38.7957 139.5,40.5C 138.167,41.1667 136.833,41.8333 135.5,42.5C 133.033,42.7549 131.033,43.7549 129.5,45.5C 127.597,45.7959 125.93,46.4625 124.5,47.5C 110.51,53.1744 97.51,60.5077 85.5,69.5C 80.4727,72.3453 75.806,75.6786 71.5,79.5C 60.5,87.1667 51.1667,96.5 43.5,107.5C 38.7833,112.882 34.45,118.549 30.5,124.5C 30.372,122.345 30.872,120.345 32,118.5C 51.3085,90.8214 75.6418,69.488 105,54.5C 123.926,43.6346 143.926,35.3012 165,29.5C 167.359,29.324 167.859,29.9907 166.5,31.5 Z"/></g>
<g><path style="opacity:1" fill="#426384" d="M 135.5,42.5 C 133.967,44.2451 131.967,45.2451 129.5,45.5C 131.033,43.7549 133.033,42.7549 135.5,42.5 Z"/></g>
<g><path style="opacity:1" fill="#06335d" d="M 163.5,32.5 C 164.5,32.5 165.5,32.5 166.5,32.5C 166.5,33.8333 166.5,35.1667 166.5,36.5C 160.35,38.7396 154.684,41.7396 149.5,45.5C 143.517,49.1397 137.517,52.8064 131.5,56.5C 128.159,57.1571 126.159,55.8237 125.5,52.5C 124.3,51.4688 122.966,50.6355 121.5,50C 122.942,49.6232 123.942,48.7899 124.5,47.5C 125.93,46.4625 127.597,45.7959 129.5,45.5C 131.967,45.2451 133.967,44.2451 135.5,42.5C 136.833,41.8333 138.167,41.1667 139.5,40.5C 143.708,40.323 147.374,38.9897 150.5,36.5C 152.5,35.8333 154.5,35.1667 156.5,34.5C 159.152,34.5905 161.485,33.9238 163.5,32.5 Z"/></g>
<g><path style="opacity:0.922" fill="#b3bdd1" d="M 102.5,40.5 C 101.934,42.0783 100.934,43.4116 99.5,44.5C 92.292,48.5598 84.9587,52.2265 77.5,55.5C 85.2743,49.5745 93.6076,44.5745 102.5,40.5 Z"/></g>
<g><path style="opacity:1" fill="#0d3f69" d="M 446.5,42.5 C 457.545,46.2576 467.878,51.2576 477.5,57.5C 477.678,58.6948 478.011,59.8615 478.5,61C 476.499,64.3412 474.499,67.6746 472.5,71C 474.311,72.0407 474.645,73.2073 473.5,74.5C 462.042,64.6992 450.042,55.6992 437.5,47.5C 436.537,46.6365 436.537,45.9698 437.5,45.5C 439.434,45.9005 440.934,46.9005 442,48.5C 442.317,46.6992 442.984,46.3659 444,47.5C 444.785,45.751 445.618,44.0843 446.5,42.5 Z"/></g>
<g><path style="opacity:0.165" fill="#c2c9d9" d="M 504.5,54.5 C 511.761,57.9582 518.094,62.6249 523.5,68.5C 517.726,64.4384 511.726,60.6051 505.5,57C 504.748,56.3292 504.414,55.4959 504.5,54.5 Z"/></g>
<g><path style="opacity:1" fill="#11446f" d="M 124.5,47.5 C 123.942,48.7899 122.942,49.6232 121.5,50C 122.966,50.6355 124.3,51.4688 125.5,52.5C 126.159,55.8237 128.159,57.1571 131.5,56.5C 123.242,62.4203 115.575,69.087 108.5,76.5C 104.833,79.5 101.5,82.8333 98.5,86.5C 96.0712,86.415 94.0712,85.415 92.5,83.5C 90.3366,79.8961 88.5033,76.2295 87,72.5C 84.8424,71.9498 84.3424,70.9498 85.5,69.5C 97.51,60.5077 110.51,53.1744 124.5,47.5 Z"/></g>
<g><path style="opacity:0.631" fill="#bec6d8" d="M 69.5,60.5 C 65.7593,65.2185 61.0927,68.8852 55.5,71.5C 59.5873,67.0775 64.2539,63.4108 69.5,60.5 Z"/></g>
<g><path style="opacity:1" fill="#164976" d="M 477.5,57.5 C 488.184,62.837 498.184,69.1703 507.5,76.5C 504.898,81.1266 502.232,85.7933 499.5,90.5C 498.41,91.727 497.076,92.5604 495.5,93C 497.315,93.7568 498.981,94.5902 500.5,95.5C 497.687,95.4519 495.021,94.7853 492.5,93.5C 491.893,93.6236 491.56,93.9569 491.5,94.5C 485.899,87.5606 479.899,80.894 473.5,74.5C 474.645,73.2073 474.311,72.0407 472.5,71C 474.499,67.6746 476.499,64.3412 478.5,61C 478.011,59.8615 477.678,58.6948 477.5,57.5 Z"/></g>
<g><path style="opacity:0.094" fill="#c0c9d3" d="M 524.5,68.5 C 526.298,70.1122 528.298,71.6122 530.5,73C 547.497,73.4999 564.497,73.6666 581.5,73.5C 581.5,74.5 581.5,75.5 581.5,76.5C 565.167,76.5 548.833,76.5 532.5,76.5C 529.978,74.6394 527.478,72.6394 525,70.5C 524.536,69.9056 524.369,69.2389 524.5,68.5 Z"/></g>
<g><path style="opacity:1" fill="#1b4d7a" d="M 85.5,69.5 C 84.3424,70.9498 84.8424,71.9498 87,72.5C 88.5033,76.2295 90.3366,79.8961 92.5,83.5C 94.0712,85.415 96.0712,86.415 98.5,86.5C 96.1568,89.2072 93.8235,91.8739 91.5,94.5C 90.9032,93.8614 90.0698,93.528 89,93.5C 86.4564,94.0712 83.9564,94.7379 81.5,95.5C 81.5299,94.5028 81.0299,93.8361 80,93.5C 78.5603,94.1476 77.0603,94.4809 75.5,94.5C 74.1528,89.7173 72.1528,85.7173 69.5,82.5C 70.1925,81.4822 70.8592,80.4822 71.5,79.5C 75.806,75.6786 80.4727,72.3453 85.5,69.5 Z"/></g>
<g><path style="opacity:1" fill="#62799d" d="M 314.5,17.5 C 317.167,17.5 319.833,17.5 322.5,17.5C 328.31,18.8569 334.31,19.8569 340.5,20.5C 353.008,22.5021 365.342,25.3354 377.5,29C 421.899,42.4277 458.399,67.261 487,103.5C 508.596,135.309 514.596,169.976 505,207.5C 495.887,234.879 480.387,258.046 458.5,277C 422.555,305.481 381.888,322.981 336.5,329.5C 333.098,329.342 329.764,329.676 326.5,330.5C 324.031,329.683 321.365,329.183 318.5,329C 309.5,328.833 300.5,328.667 291.5,328.5C 279.29,328.276 267.29,328.942 255.5,330.5C 252.236,329.676 248.902,329.342 245.5,329.5C 231.963,327.598 218.63,324.765 205.5,321C 166.717,309.187 133.55,288.354 106,258.5C 79.4989,227.158 69.3323,191.158 75.5,150.5C 76.9238,148.485 77.5905,146.152 77.5,143.5C 81.6534,127.861 88.4867,113.528 98,100.5C 129.716,61.8934 169.883,36.8934 218.5,25.5C 223.154,24.6708 227.82,23.8375 232.5,23C 233.056,22.6174 233.389,22.1174 233.5,21.5C 241.153,20.3358 248.82,19.3358 256.5,18.5C 275.817,17.607 295.15,17.2737 314.5,17.5 Z"/></g>
<g><path style="opacity:1" fill="#103b66" d="M 444.5,76.5 C 445.492,76.3284 446.158,76.6618 446.5,77.5C 441.071,86.2622 436.071,95.2622 431.5,104.5C 429.412,106.336 428.079,108.669 427.5,111.5C 422.562,119.459 417.562,127.459 412.5,135.5C 412.217,134.711 411.717,134.044 411,133.5C 409.601,136.363 408.601,139.363 408,142.5C 407.174,140.595 406.007,140.261 404.5,141.5C 400.19,144.809 396.19,148.476 392.5,152.5C 390.833,153.167 389.167,153.833 387.5,154.5C 386.614,155.325 386.281,156.325 386.5,157.5C 383.656,158.172 381.156,159.505 379,161.5C 378.667,161.167 378.333,160.833 378,160.5C 370.256,165.201 362.256,169.535 354,173.5C 353.583,172.244 352.75,171.577 351.5,171.5C 354.596,165.633 357.929,159.967 361.5,154.5C 363.527,154.662 365.527,154.495 367.5,154C 379.092,147.756 389.592,139.923 399,130.5C 403.59,124.228 408.09,117.894 412.5,111.5C 416.751,101.161 419.751,90.4939 421.5,79.5C 418.753,79.8134 416.086,79.48 413.5,78.5C 423.992,77.8333 434.326,77.1666 444.5,76.5 Z"/></g>
<g><path style="opacity:1" fill="#15416c" d="M 406.5,76.5 C 419.167,76.5 431.833,76.5 444.5,76.5C 434.326,77.1666 423.992,77.8333 413.5,78.5C 416.086,79.48 418.753,79.8134 421.5,79.5C 419.751,90.4939 416.751,101.161 412.5,111.5C 408.09,117.894 403.59,124.228 399,130.5C 389.592,139.923 379.092,147.756 367.5,154C 365.527,154.495 363.527,154.662 361.5,154.5C 364.096,149.64 366.429,144.64 368.5,139.5C 370.624,133.365 374.624,128.698 380.5,125.5C 382.99,122.051 385.657,118.718 388.5,115.5C 390.045,114.548 391.712,114.215 393.5,114.5C 398.408,104.454 402.741,94.1204 406.5,83.5C 405.388,82.7348 404.721,81.7348 404.5,80.5C 404.66,78.847 405.326,77.5137 406.5,76.5 Z"/></g>
<g><path style="opacity:1" fill="#bec7d6" d="M 267.5,22.5 C 260.073,24.2908 252.407,25.2908 244.5,25.5C 251.937,23.7779 259.604,22.7779 267.5,22.5 Z"/></g>
<g><path style="opacity:1" fill="#f8f8fb" d="M 481.5,121.5 C 480.791,122.404 479.791,122.737 478.5,122.5C 473.919,119.378 468.919,117.044 463.5,115.5C 460.582,113.374 457.249,111.708 453.5,110.5C 452.571,109.685 451.571,108.852 450.5,108C 446.363,107.066 442.363,105.732 438.5,104C 436.934,103.235 435.601,103.402 434.5,104.5C 433.5,103.167 432.5,103.167 431.5,104.5C 436.071,95.2622 441.071,86.2622 446.5,77.5C 447.043,77.44 447.376,77.1067 447.5,76.5C 433.672,75.1745 420.006,75.1745 406.5,76.5C 405.326,77.5137 404.66,78.847 404.5,80.5C 399.666,87.4957 395.333,94.829 391.5,102.5C 390.609,103.11 389.609,103.443 388.5,103.5C 387.89,101.566 386.89,99.8993 385.5,98.5C 381.749,91.3293 377.749,84.3293 373.5,77.5C 373.5,77.1667 373.5,76.8333 373.5,76.5C 359.677,75.5042 345.677,75.1709 331.5,75.5C 331.263,76.791 331.596,77.791 332.5,78.5C 338.833,89.1667 345.167,99.8333 351.5,110.5C 354.252,115.674 357.252,120.674 360.5,125.5C 362.664,130.5 365.331,135.167 368.5,139.5C 366.429,144.64 364.096,149.64 361.5,154.5C 357.929,159.967 354.596,165.633 351.5,171.5C 347.663,177.17 344.33,183.17 341.5,189.5C 337.164,195.865 333.164,202.532 329.5,209.5C 343.15,210.499 356.817,210.833 370.5,210.5C 376.035,199.77 381.868,189.104 388,178.5C 388.333,178.167 388.667,177.833 389,177.5C 390.039,178.71 391.206,179.71 392.5,180.5C 394.5,184.833 396.5,189.167 398.5,193.5C 397.603,192.402 396.77,192.402 396,193.5C 393.916,189.664 391.583,185.997 389,182.5C 383.799,192.717 378.132,202.717 372,212.5C 367.329,214.075 362.496,214.742 357.5,214.5C 357.5,215.833 357.5,217.167 357.5,218.5C 371.837,218.333 386.171,218.5 400.5,219C 385.328,219.169 370.328,219.669 355.5,220.5C 353.741,228.238 352.574,236.238 352,244.5C 351.827,238.652 351.327,232.985 350.5,227.5C 350.5,226.833 350.167,226.5 349.5,226.5C 347.833,224.167 345.833,222.167 343.5,220.5C 329.833,219.167 316.167,219.167 302.5,220.5C 301.668,236.995 301.168,253.662 301,270.5C 299.726,266.015 299.059,261.348 299,256.5C 296.464,263.392 291.964,268.892 285.5,273C 274.148,273.533 262.815,273.199 251.5,272C 248.667,269.167 245.833,266.333 243,263.5C 242.333,251.167 242.333,238.833 243,226.5C 244,224.167 245.667,222.5 248,221.5C 248.167,220.667 248.333,219.833 248.5,219C 245.762,211.898 243.095,204.731 240.5,197.5C 242.105,197.772 243.771,197.772 245.5,197.5C 248.523,199.678 251.856,201.345 255.5,202.5C 255.973,203.906 256.973,204.573 258.5,204.5C 258.833,204.5 259.167,204.5 259.5,204.5C 261.102,206.074 263.102,206.741 265.5,206.5C 266.391,207.11 267.391,207.443 268.5,207.5C 269.263,208.268 270.263,208.768 271.5,209C 279.345,209.822 287.011,209.656 294.5,208.5C 301.269,207.229 307.602,204.896 313.5,201.5C 323.372,196.963 331.039,189.963 336.5,180.5C 341.444,173.266 344.777,165.266 346.5,156.5C 347.268,155.737 347.768,154.737 348,153.5C 348.82,146.986 348.653,140.653 347.5,134.5C 346.073,122.322 341.406,111.655 333.5,102.5C 330.543,98.1754 326.876,94.5088 322.5,91.5C 306.882,79.7476 289.215,75.5809 269.5,79C 259.301,81.7636 250.301,86.597 242.5,93.5C 237.383,97.2781 233.383,101.945 230.5,107.5C 226.515,112.472 223.849,118.139 222.5,124.5C 220.926,126.102 220.259,128.102 220.5,130.5C 219.223,137.629 219.223,144.629 220.5,151.5C 220.5,153.167 220.5,154.833 220.5,156.5C 220.41,159.152 221.076,161.485 222.5,163.5C 223.909,168.591 226.243,173.258 229.5,177.5C 230.913,180.661 232.58,183.661 234.5,186.5C 234.649,187.552 234.483,188.552 234,189.5C 215.879,167.438 212.045,143.105 222.5,116.5C 207.515,115.501 192.515,115.167 177.5,115.5C 177.5,119.5 177.5,123.5 177.5,127.5C 189.833,127.5 202.167,127.5 214.5,127.5C 214.667,141.504 214.5,155.504 214,169.5C 212.301,170.406 210.467,170.739 208.5,170.5C 198.167,170.5 187.833,170.5 177.5,170.5C 177.667,184.504 177.5,198.504 177,212.5C 162.912,213.49 148.745,213.824 134.5,213.5C 134.5,178.167 134.5,142.833 134.5,107.5C 133.209,107.263 132.209,107.596 131.5,108.5C 129.319,110.018 126.819,111.018 124,111.5C 122.97,111.836 122.47,112.503 122.5,113.5C 117.41,114.529 112.744,116.529 108.5,119.5C 106.534,120.441 104.534,121.441 102.5,122.5C 101.614,121.675 101.281,120.675 101.5,119.5C 111.091,94.4176 127.091,74.5843 149.5,60C 178.673,41.8845 210.339,30.3845 244.5,25.5C 252.407,25.2908 260.073,24.2908 267.5,22.5C 325.849,17.843 380.182,30.0096 430.5,59C 455.385,73.3864 472.385,94.2197 481.5,121.5 Z"/></g>
<g><path style="opacity:1" fill="#2a5784" d="M 373.5,76.5 C 373.5,76.8333 373.5,77.1667 373.5,77.5C 370.428,77.1826 367.428,77.5159 364.5,78.5C 365.311,79.2164 365.978,80.0497 366.5,81C 363.781,87.3976 361.447,93.8976 359.5,100.5C 358.325,100.281 357.325,100.614 356.5,101.5C 355.815,103.547 354.649,105.214 353,106.5C 350.082,105.506 349.916,106.006 352.5,108C 351.748,108.671 351.414,109.504 351.5,110.5C 345.167,99.8333 338.833,89.1667 332.5,78.5C 345.792,76.5181 359.459,75.8514 373.5,76.5 Z"/></g>
<g><path style="opacity:1" fill="#23517d" d="M 189.5,76.5 C 198.833,76.5 208.167,76.5 217.5,76.5C 217.334,82.8421 217.5,89.1754 218,95.5C 218.198,97.3817 218.698,99.0484 219.5,100.5C 219.5,104.5 219.5,108.5 219.5,112.5C 204.5,112.5 189.5,112.5 174.5,112.5C 183.324,111.67 192.324,111.17 201.5,111C 196.593,110.769 192.926,108.603 190.5,104.5C 188.147,98.73 185.647,93.0633 183,87.5C 182.503,84.854 182.336,82.1873 182.5,79.5C 186.449,79.3068 186.449,78.8068 182.5,78C 185.036,77.8138 187.369,77.3138 189.5,76.5 Z"/></g>
<g><path style="opacity:1" fill="#17446f" d="M 160.5,76.5 C 170.167,76.5 179.833,76.5 189.5,76.5C 187.369,77.3138 185.036,77.8138 182.5,78C 186.449,78.8068 186.449,79.3068 182.5,79.5C 182.336,82.1873 182.503,84.854 183,87.5C 185.647,93.0633 188.147,98.73 190.5,104.5C 192.926,108.603 196.593,110.769 201.5,111C 192.324,111.17 183.324,111.67 174.5,112.5C 174.5,118.5 174.5,124.5 174.5,130.5C 173.672,124.681 173.172,118.681 173,112.5C 172.667,118.5 172.333,124.5 172,130.5C 171.991,123.789 169.658,118.123 165,113.5C 164,110.5 163,107.5 162,104.5C 161.667,104.833 161.333,105.167 161,105.5C 159.298,100.006 157.298,94.6726 155,89.5C 154.452,85.8296 153.952,82.1629 153.5,78.5C 152.127,78.6567 150.793,78.49 149.5,78C 153.356,77.8227 157.023,77.3227 160.5,76.5 Z"/></g>
<g><path style="opacity:1" fill="#0b3761" d="M 139.5,77.5 C 139.334,86.8393 139.5,96.1726 140,105.5C 142.102,109.753 143.936,114.086 145.5,118.5C 146.978,118.238 148.311,118.571 149.5,119.5C 158.62,132.787 169.62,144.287 182.5,154C 187.698,157.464 193.032,160.797 198.5,164C 202.152,164.499 205.818,164.665 209.5,164.5C 208.856,153.116 209.523,142.116 211.5,131.5C 211.828,143.345 211.495,155.012 210.5,166.5C 198.987,165.696 187.321,164.863 175.5,164C 170.279,159.604 164.946,155.437 159.5,151.5C 152.533,144.87 146.033,137.87 140,130.5C 139.829,122.323 139.329,114.323 138.5,106.5C 138.173,96.6522 138.506,86.9856 139.5,77.5 Z"/></g>
<g><path style="opacity:1" fill="#113d68" d="M 139.5,76.5 C 146.5,76.5 153.5,76.5 160.5,76.5C 157.023,77.3227 153.356,77.8227 149.5,78C 150.793,78.49 152.127,78.6567 153.5,78.5C 153.952,82.1629 154.452,85.8296 155,89.5C 157.298,94.6726 159.298,100.006 161,105.5C 161.333,105.167 161.667,104.833 162,104.5C 163,107.5 164,110.5 165,113.5C 169.658,118.123 171.991,123.789 172,130.5C 172.333,124.5 172.667,118.5 173,112.5C 173.172,118.681 173.672,124.681 174.5,130.5C 186.833,130.5 199.167,130.5 211.5,130.5C 211.5,130.833 211.5,131.167 211.5,131.5C 209.523,142.116 208.856,153.116 209.5,164.5C 205.818,164.665 202.152,164.499 198.5,164C 193.032,160.797 187.698,157.464 182.5,154C 169.62,144.287 158.62,132.787 149.5,119.5C 148.311,118.571 146.978,118.238 145.5,118.5C 143.936,114.086 142.102,109.753 140,105.5C 139.5,96.1726 139.334,86.8393 139.5,77.5C 139.5,77.1667 139.5,76.8333 139.5,76.5 Z"/></g>
<g><path style="opacity:1" fill="#91a6b9" d="M 406.5,76.5 C 420.006,75.1745 433.672,75.1745 447.5,76.5C 447.376,77.1067 447.043,77.44 446.5,77.5C 446.158,76.6618 445.492,76.3284 444.5,76.5C 431.833,76.5 419.167,76.5 406.5,76.5 Z"/></g>
<g><path style="opacity:1" fill="#9cb2c7" d="M 373.5,76.5 C 359.459,75.8514 345.792,76.5181 332.5,78.5C 331.596,77.791 331.263,76.791 331.5,75.5C 345.677,75.1709 359.677,75.5042 373.5,76.5 Z"/></g>
<g><path style="opacity:1" fill="#245482" d="M 507.5,76.5 C 520.145,84.8117 530.811,95.145 539.5,107.5C 526.741,102.727 513.741,98.7268 500.5,95.5C 498.981,94.5902 497.315,93.7568 495.5,93C 497.076,92.5604 498.41,91.727 499.5,90.5C 502.232,85.7933 504.898,81.1266 507.5,76.5 Z"/></g>
<g><path style="opacity:0.929" fill="#b1bbd0" d="M 53.5,72.5 C 46.1457,81.5196 38.1457,89.853 29.5,97.5C 36.7338,88.5961 44.7338,80.2627 53.5,72.5 Z"/></g>
<g><path style="opacity:1" fill="#224f7b" d="M 373.5,77.5 C 377.749,84.3293 381.749,91.3293 385.5,98.5C 384.883,98.3893 384.383,98.056 384,97.5C 379.532,109.905 371.699,119.239 360.5,125.5C 357.252,120.674 354.252,115.674 351.5,110.5C 351.414,109.504 351.748,108.671 352.5,108C 349.916,106.006 350.082,105.506 353,106.5C 354.649,105.214 355.815,103.547 356.5,101.5C 357.325,100.614 358.325,100.281 359.5,100.5C 361.447,93.8976 363.781,87.3976 366.5,81C 365.978,80.0497 365.311,79.2164 364.5,78.5C 367.428,77.5159 370.428,77.1826 373.5,77.5 Z"/></g>
<g><path style="opacity:1" fill="#386694" d="M 322.5,91.5 C 320.411,91.8567 318.411,92.5233 316.5,93.5C 314.879,95.4228 313.046,97.0895 311,98.5C 310.667,98.1667 310.333,97.8333 310,97.5C 306.421,100.229 302.421,102.229 298,103.5C 296.118,102.394 294.284,102.394 292.5,103.5C 292.208,105.356 292.208,107.022 292.5,108.5C 288.991,105.885 284.991,104.885 280.5,105.5C 281.842,104.207 283.509,103.374 285.5,103C 281.464,103.456 277.464,103.622 273.5,103.5C 271.533,102.047 269.367,101.047 267,100.5C 266.667,100.833 266.333,101.167 266,101.5C 264.075,100.12 262.241,98.6196 260.5,97C 259.234,96.6905 258.067,96.1905 257,95.5C 256.667,95.8333 256.333,96.1667 256,96.5C 253.434,89.9862 249.934,89.3196 245.5,94.5C 244.583,93.8728 243.583,93.5394 242.5,93.5C 250.301,86.597 259.301,81.7636 269.5,79C 289.215,75.5809 306.882,79.7476 322.5,91.5 Z"/></g>
<g><path style="opacity:1" fill="#4f7398" d="M 217.5,76.5 C 218.435,81.9944 219.102,87.6611 219.5,93.5C 219.5,95.8333 219.5,98.1667 219.5,100.5C 218.698,99.0484 218.198,97.3817 218,95.5C 217.5,89.1754 217.334,82.8421 217.5,76.5 Z"/></g>
<g><path style="opacity:1" fill="#295886" d="M 71.5,79.5 C 70.8592,80.4822 70.1925,81.4822 69.5,82.5C 72.1528,85.7173 74.1528,89.7173 75.5,94.5C 77.0603,94.4809 78.5603,94.1476 80,93.5C 81.0299,93.8361 81.5299,94.5028 81.5,95.5C 68.4057,98.2712 55.7391,102.271 43.5,107.5C 51.1667,96.5 60.5,87.1667 71.5,79.5 Z"/></g>
<g><path style="opacity:1" fill="#022c55" d="M 91.5,94.5 C 82.7942,106.572 75.6275,119.572 70,133.5C 68.5597,137.041 67.7264,140.708 67.5,144.5C 66.0762,146.515 65.4095,148.848 65.5,151.5C 65.5,152.167 65.5,152.833 65.5,153.5C 64.2911,157.618 63.6245,161.951 63.5,166.5C 48.5,166.5 33.5,166.5 18.5,166.5C 18.5,165.5 18.5,164.5 18.5,163.5C 18.5,162.5 18.5,161.5 18.5,160.5C 19.9238,158.485 20.5905,156.152 20.5,153.5C 22.4082,143.349 25.7415,133.682 30.5,124.5C 34.45,118.549 38.7833,112.882 43.5,107.5C 55.7391,102.271 68.4057,98.2712 81.5,95.5C 83.9564,94.7379 86.4564,94.0712 89,93.5C 90.0698,93.528 90.9032,93.8614 91.5,94.5 Z"/></g>
<g><path style="opacity:1" fill="#022c55" d="M 500.5,95.5 C 513.741,98.7268 526.741,102.727 539.5,107.5C 547.788,116.981 554.288,127.648 559,139.5C 559.979,144.236 561.146,148.902 562.5,153.5C 562.171,156.228 562.837,158.562 564.5,160.5C 564.5,161.833 564.5,163.167 564.5,164.5C 563.732,163.737 563.232,162.737 563,161.5C 562.51,162.793 562.343,164.127 562.5,165.5C 548.167,165.5 533.833,165.5 519.5,165.5C 519.917,161.183 519.25,157.183 517.5,153.5C 517.451,149.922 516.785,146.589 515.5,143.5C 515.59,140.848 514.924,138.515 513.5,136.5C 511.46,129.032 508.46,122.032 504.5,115.5C 504.573,113.973 503.906,112.973 502.5,112.5C 498.86,106.517 495.194,100.517 491.5,94.5C 491.56,93.9569 491.893,93.6236 492.5,93.5C 495.021,94.7853 497.687,95.4519 500.5,95.5 Z"/></g>
<g><path style="opacity:1" fill="#315e8a" d="M 322.5,91.5 C 326.876,94.5088 330.543,98.1754 333.5,102.5C 332.609,103.261 331.942,104.261 331.5,105.5C 330.675,106.386 329.675,106.719 328.5,106.5C 328.719,107.675 328.386,108.675 327.5,109.5C 326.268,110.145 324.935,110.311 323.5,110C 323.833,110.333 324.167,110.667 324.5,111C 322.939,111.318 321.772,112.151 321,113.5C 319.984,112.366 319.317,112.699 319,114.5C 317.403,114.36 315.903,114.36 314.5,114.5C 312.54,115.723 310.707,117.056 309,118.5C 305.905,117.605 302.738,117.605 299.5,118.5C 299.649,119.552 299.483,120.552 299,121.5C 297.845,112.189 297.012,112.189 296.5,121.5C 296.5,129.5 296.5,137.5 296.5,145.5C 296.827,154.682 296.493,163.682 295.5,172.5C 295.667,152.497 295.5,132.497 295,112.5C 294.338,111.016 293.504,109.683 292.5,108.5C 292.208,107.022 292.208,105.356 292.5,103.5C 294.284,102.394 296.118,102.394 298,103.5C 302.421,102.229 306.421,100.229 310,97.5C 310.333,97.8333 310.667,98.1667 311,98.5C 313.046,97.0895 314.879,95.4228 316.5,93.5C 318.411,92.5233 320.411,91.8567 322.5,91.5 Z"/></g>
<g><path style="opacity:1" fill="#1d4873" d="M 404.5,80.5 C 404.721,81.7348 405.388,82.7348 406.5,83.5C 402.741,94.1204 398.408,104.454 393.5,114.5C 391.712,114.215 390.045,114.548 388.5,115.5C 385.657,118.718 382.99,122.051 380.5,125.5C 374.624,128.698 370.624,133.365 368.5,139.5C 365.331,135.167 362.664,130.5 360.5,125.5C 371.699,119.239 379.532,109.905 384,97.5C 384.383,98.056 384.883,98.3893 385.5,98.5C 386.89,99.8993 387.89,101.566 388.5,103.5C 389.947,104.885 390.947,104.552 391.5,102.5C 395.333,94.829 399.666,87.4957 404.5,80.5 Z"/></g>
<g><path style="opacity:1" fill="#7e97af" d="M 391.5,102.5 C 390.947,104.552 389.947,104.885 388.5,103.5C 389.609,103.443 390.609,103.11 391.5,102.5 Z"/></g>
<g><path style="opacity:1" fill="#2d5b88" d="M 280.5,105.5 C 275.998,107.338 273.331,110.672 272.5,115.5C 271.778,115.082 271.278,114.416 271,113.5C 270.502,116.817 270.335,120.15 270.5,123.5C 263.6,122.104 257.1,120.438 251,118.5C 249.523,117.556 248.523,116.223 248,114.5C 245.606,115.136 243.106,115.136 240.5,114.5C 240.5,113.5 240.5,112.5 240.5,111.5C 236.877,111.082 234.044,109.415 232,106.5C 231.617,107.056 231.117,107.389 230.5,107.5C 233.383,101.945 237.383,97.2781 242.5,93.5C 243.583,93.5394 244.583,93.8728 245.5,94.5C 249.934,89.3196 253.434,89.9862 256,96.5C 256.333,96.1667 256.667,95.8333 257,95.5C 258.067,96.1905 259.234,96.6905 260.5,97C 262.241,98.6196 264.075,100.12 266,101.5C 266.333,101.167 266.667,100.833 267,100.5C 269.367,101.047 271.533,102.047 273.5,103.5C 277.464,103.622 281.464,103.456 285.5,103C 283.509,103.374 281.842,104.207 280.5,105.5 Z"/></g>
<g><path style="opacity:1" fill="#e4e9ee" d="M 108.5,76.5 C 108.649,77.552 108.483,78.552 108,79.5C 83.5142,103.782 69.6809,133.115 66.5,167.5C 65.5,167.5 64.5,167.5 63.5,167.5C 63.5,167.167 63.5,166.833 63.5,166.5C 65.0538,162.433 65.7204,158.1 65.5,153.5C 65.5,152.833 65.5,152.167 65.5,151.5C 66.9238,149.485 67.5905,147.152 67.5,144.5C 67.7264,140.708 68.5597,137.041 70,133.5C 75.6275,119.572 82.7942,106.572 91.5,94.5C 93.8235,91.8739 96.1568,89.2072 98.5,86.5C 101.5,82.8333 104.833,79.5 108.5,76.5 Z"/></g>
<g><path style="opacity:1" fill="#f4f5f8" d="M 280.5,105.5 C 284.991,104.885 288.991,105.885 292.5,108.5C 293.504,109.683 294.338,111.016 295,112.5C 295.5,132.497 295.667,152.497 295.5,172.5C 292.834,179.335 287.834,182.335 280.5,181.5C 276.709,179.644 274.043,176.644 272.5,172.5C 272.5,153.5 272.5,134.5 272.5,115.5C 273.331,110.672 275.998,107.338 280.5,105.5 Z"/></g>
<g><path style="opacity:1" fill="#e5e9f1" d="M 434.5,104.5 C 436.334,126.98 435.334,149.314 431.5,171.5C 426.097,162.145 420.597,152.812 415,143.5C 414.833,142.5 414.667,141.5 414.5,140.5C 418.522,132.023 423.189,123.356 428.5,114.5C 428.68,113.446 429.013,112.446 429.5,111.5C 429.03,110.537 428.363,110.537 427.5,111.5C 428.079,108.669 429.412,106.336 431.5,104.5C 432.5,103.167 433.5,103.167 434.5,104.5 Z"/></g>
<g><path style="opacity:1" fill="#dee3ed" d="M 453.5,110.5 C 451.698,127.821 450.365,145.488 449.5,163.5C 450.262,175.74 449.929,188.073 448.5,200.5C 442.654,190.993 436.987,181.327 431.5,171.5C 435.334,149.314 436.334,126.98 434.5,104.5C 435.601,103.402 436.934,103.235 438.5,104C 442.363,105.732 446.363,107.066 450.5,108C 451.571,108.852 452.571,109.685 453.5,110.5 Z"/></g>
<g><path style="opacity:1" fill="#a1b2c3" d="M 217.5,76.5 C 208.167,76.5 198.833,76.5 189.5,76.5C 179.833,76.5 170.167,76.5 160.5,76.5C 153.5,76.5 146.5,76.5 139.5,76.5C 137.505,120.821 136.838,165.488 137.5,210.5C 137.5,210.833 137.5,211.167 137.5,211.5C 135.505,166.512 134.838,121.179 135.5,75.5C 163.005,75.1688 190.338,75.5021 217.5,76.5 Z"/></g>
<g><path style="opacity:1" fill="#2a5683" d="M 333.5,102.5 C 341.406,111.655 346.073,122.322 347.5,134.5C 347.823,140.69 347.49,146.69 346.5,152.5C 346.881,145.095 346.548,139.762 345.5,136.5C 344.596,135.791 344.263,134.791 344.5,133.5C 344.728,129.61 344.394,125.776 343.5,122C 341.816,120.26 339.982,119.094 338,118.5C 336.7,120.459 334.867,121.626 332.5,122C 332.833,122.333 333.167,122.667 333.5,123C 325.442,125.671 317.442,128.338 309.5,131C 306.833,131.333 304.167,131.667 301.5,132C 300.151,132.772 299.318,133.939 299,135.5C 298.802,133.618 298.302,131.952 297.5,130.5C 297.81,127.287 297.477,124.287 296.5,121.5C 297.012,112.189 297.845,112.189 299,121.5C 299.483,120.552 299.649,119.552 299.5,118.5C 302.738,117.605 305.905,117.605 309,118.5C 310.707,117.056 312.54,115.723 314.5,114.5C 315.903,114.36 317.403,114.36 319,114.5C 319.317,112.699 319.984,112.366 321,113.5C 321.772,112.151 322.939,111.318 324.5,111C 324.167,110.667 323.833,110.333 323.5,110C 324.935,110.311 326.268,110.145 327.5,109.5C 328.386,108.675 328.719,107.675 328.5,106.5C 329.675,106.719 330.675,106.386 331.5,105.5C 331.942,104.261 332.609,103.261 333.5,102.5 Z"/></g>
<g><path style="opacity:1" fill="#dde2ec" d="M 131.5,108.5 C 133.493,143.484 134.16,178.818 133.5,214.5C 138.875,214.172 144.208,214.505 149.5,215.5C 145.893,216.489 142.226,216.823 138.5,216.5C 137.051,220.472 134.551,223.806 131,226.5C 130.501,230.152 130.335,233.818 130.5,237.5C 129.85,237.804 129.183,238.137 128.5,238.5C 127.744,229.559 126.411,220.726 124.5,212C 122.958,188.923 121.958,165.923 121.5,143C 121.667,133.833 121.833,124.667 122,115.5C 124.665,114.526 124.831,113.859 122.5,113.5C 122.47,112.503 122.97,111.836 124,111.5C 126.819,111.018 129.319,110.018 131.5,108.5 Z"/></g>
<g><path style="opacity:1" fill="#d8dde9" d="M 453.5,110.5 C 457.249,111.708 460.582,113.374 463.5,115.5C 462.453,116.078 462.62,116.744 464,117.5C 464.831,148.209 463.997,178.876 461.5,209.5C 459.212,224.412 457.712,239.412 457,254.5C 456.667,251.167 456.333,247.833 456,244.5C 456.135,251.905 455.302,258.905 453.5,265.5C 454.628,258.58 454.795,251.58 454,244.5C 451.833,242.333 449.667,240.167 447.5,238C 438.84,237.5 430.173,237.334 421.5,237.5C 421.5,236.167 421.5,234.833 421.5,233.5C 430.506,233.666 439.506,233.5 448.5,233C 449.981,232.02 451.315,230.853 452.5,229.5C 453.491,225.555 453.824,221.555 453.5,217.5C 449.5,217.5 445.5,217.5 441.5,217.5C 439.631,216.835 437.631,216.169 435.5,215.5C 441.798,214.504 448.132,214.17 454.5,214.5C 453.064,209.623 451.064,204.957 448.5,200.5C 449.929,188.073 450.262,175.74 449.5,163.5C 450.365,145.488 451.698,127.821 453.5,110.5 Z"/></g>
<g><path style="opacity:1" fill="#adbecd" d="M 219.5,93.5 C 220.491,99.979 220.824,106.646 220.5,113.5C 205.5,113.5 190.5,113.5 175.5,113.5C 175.5,118.833 175.5,124.167 175.5,129.5C 187.678,129.172 199.678,129.505 211.5,130.5C 199.167,130.5 186.833,130.5 174.5,130.5C 174.5,124.5 174.5,118.5 174.5,112.5C 189.5,112.5 204.5,112.5 219.5,112.5C 219.5,108.5 219.5,104.5 219.5,100.5C 219.5,98.1667 219.5,95.8333 219.5,93.5 Z"/></g>
<g><path style="opacity:1" fill="#d8dee9" d="M 122.5,113.5 C 124.831,113.859 124.665,114.526 122,115.5C 121.833,124.667 121.667,133.833 121.5,143C 121.958,165.923 122.958,188.923 124.5,212C 126.411,220.726 127.744,229.559 128.5,238.5C 129.183,238.137 129.85,237.804 130.5,237.5C 130.336,240.187 130.503,242.854 131,245.5C 131.986,246.171 133.153,246.171 134.5,245.5C 136.167,246.5 137.5,247.833 138.5,249.5C 137.596,250.209 137.263,251.209 137.5,252.5C 146.5,252.5 155.5,252.5 164.5,252.5C 164.5,254.167 164.5,255.833 164.5,257.5C 154.828,257.334 145.161,257.5 135.5,258C 132.124,260.065 130.791,263.065 131.5,267C 131.547,269.295 132.213,271.129 133.5,272.5C 138.316,273.326 143.316,273.826 148.5,274C 144.892,276.248 144.559,279.082 147.5,282.5C 147.333,283.167 147.167,283.833 147,284.5C 144.821,283.16 144.321,283.493 145.5,285.5C 132.036,277.939 121.703,267.272 114.5,253.5C 115.463,251.667 116.13,249.667 116.5,247.5C 113.382,233.803 112.382,219.97 113.5,206C 112.221,202.246 111.221,198.413 110.5,194.5C 109.189,183.135 109.189,171.802 110.5,160.5C 109.773,150.335 108.773,140.168 107.5,130C 107.833,127.5 108.167,125 108.5,122.5C 109.354,121.478 110.354,120.645 111.5,120C 110.552,119.517 109.552,119.351 108.5,119.5C 112.744,116.529 117.41,114.529 122.5,113.5 Z"/></g>
<g><path style="opacity:1" fill="#889ab0" d="M 502.5,112.5 C 503.906,112.973 504.573,113.973 504.5,115.5C 503.094,115.027 502.427,114.027 502.5,112.5 Z"/></g>
<g><path style="opacity:1" fill="#f5f6f9" d="M 234.5,186.5 C 238.5,189.833 242.167,193.5 245.5,197.5C 243.771,197.772 242.105,197.772 240.5,197.5C 243.095,204.731 245.762,211.898 248.5,219C 248.333,219.833 248.167,220.667 248,221.5C 245.667,222.5 244,224.167 243,226.5C 242.333,238.833 242.333,251.167 243,263.5C 245.833,266.333 248.667,269.167 251.5,272C 262.815,273.199 274.148,273.533 285.5,273C 291.964,268.892 296.464,263.392 299,256.5C 299.059,261.348 299.726,266.015 301,270.5C 301.168,253.662 301.668,236.995 302.5,220.5C 302.5,237.167 302.5,253.833 302.5,270.5C 307.167,270.5 311.833,270.5 316.5,270.5C 316.5,264.5 316.5,258.5 316.5,252.5C 321.5,252.5 326.5,252.5 331.5,252.5C 331.603,255.636 332.603,258.302 334.5,260.5C 335.371,263.112 336.037,265.779 336.5,268.5C 341.396,270.446 346.729,271.113 352.5,270.5C 352.737,269.209 352.404,268.209 351.5,267.5C 349.534,263.649 347.867,259.649 346.5,255.5C 345.986,253.634 345.32,251.8 344.5,250C 345.944,247.551 347.778,245.385 350,243.5C 350.499,238.177 350.666,232.844 350.5,227.5C 351.327,232.985 351.827,238.652 352,244.5C 352.574,236.238 353.741,228.238 355.5,220.5C 355.5,223.5 355.5,226.5 355.5,229.5C 355.5,229.833 355.5,230.167 355.5,230.5C 355.5,230.833 355.5,231.167 355.5,231.5C 360.305,232.487 365.305,232.821 370.5,232.5C 370.5,245.167 370.5,257.833 370.5,270.5C 370.095,271.55 369.429,271.55 368.5,270.5C 367.719,269.271 367.219,267.938 367,266.5C 365.167,273.167 363.333,279.833 361.5,286.5C 357.643,297.624 353.643,308.624 349.5,319.5C 350.791,319.263 351.791,319.596 352.5,320.5C 338.734,323.918 324.734,325.918 310.5,326.5C 294.152,326.662 277.819,326.329 261.5,325.5C 263.969,324.683 266.635,324.183 269.5,324C 265.976,322.735 262.643,321.235 259.5,319.5C 259.5,318.5 259.5,317.5 259.5,316.5C 256.344,316.471 254.678,314.804 254.5,311.5C 250.343,305.676 246.009,300.009 241.5,294.5C 237.859,287.555 234.526,280.555 231.5,273.5C 229.976,267.726 228.309,262.059 226.5,256.5C 219.5,256.5 212.5,256.5 205.5,256.5C 205.666,260.846 205.499,265.179 205,269.5C 204.825,264.981 204.325,260.647 203.5,256.5C 212.287,254.844 221.287,253.844 230.5,253.5C 230.5,253.167 230.5,252.833 230.5,252.5C 232.481,250.856 234.481,249.19 236.5,247.5C 237.818,240.678 237.818,234.011 236.5,227.5C 234.833,225.167 232.833,223.167 230.5,221.5C 230.5,221.167 230.5,220.833 230.5,220.5C 217.006,219.669 203.339,219.169 189.5,219C 198.601,218.945 207.601,218.278 216.5,217C 215.422,216.326 214.755,215.326 214.5,214C 213.449,205.032 211.783,196.199 209.5,187.5C 208.707,181.86 208.374,176.193 208.5,170.5C 210.467,170.739 212.301,170.406 214,169.5C 214.5,155.504 214.667,141.504 214.5,127.5C 202.167,127.5 189.833,127.5 177.5,127.5C 177.5,123.5 177.5,119.5 177.5,115.5C 192.515,115.167 207.515,115.501 222.5,116.5C 212.045,143.105 215.879,167.438 234,189.5C 234.483,188.552 234.649,187.552 234.5,186.5 Z"/></g>
<g><path style="opacity:1" fill="#d0d7e5" d="M 463.5,115.5 C 468.919,117.044 473.919,119.378 478.5,122.5C 477.761,122.369 477.094,122.536 476.5,123C 478.18,123.347 479.18,124.347 479.5,126C 478.342,128.51 477.675,131.177 477.5,134C 477.95,139.493 478.283,144.993 478.5,150.5C 476.306,169.64 475.639,188.807 476.5,208C 473.018,216.066 472.018,224.399 473.5,233C 472.062,238.076 471.395,243.242 471.5,248.5C 467.224,256.066 462.224,263.066 456.5,269.5C 454.771,268.764 453.771,267.43 453.5,265.5C 455.302,258.905 456.135,251.905 456,244.5C 456.333,247.833 456.667,251.167 457,254.5C 457.712,239.412 459.212,224.412 461.5,209.5C 463.997,178.876 464.831,148.209 464,117.5C 462.62,116.744 462.453,116.078 463.5,115.5 Z"/></g>
<g><path style="opacity:1" fill="#cfd6e4" d="M 101.5,119.5 C 101.281,120.675 101.614,121.675 102.5,122.5C 104.534,121.441 106.534,120.441 108.5,119.5C 109.552,119.351 110.552,119.517 111.5,120C 110.354,120.645 109.354,121.478 108.5,122.5C 108.167,125 107.833,127.5 107.5,130C 108.773,140.168 109.773,150.335 110.5,160.5C 109.189,171.802 109.189,183.135 110.5,194.5C 111.221,198.413 112.221,202.246 113.5,206C 112.382,219.97 113.382,233.803 116.5,247.5C 116.13,249.667 115.463,251.667 114.5,253.5C 89.8466,215.016 84.0133,173.683 97,129.5C 97.8523,125.736 99.3523,122.403 101.5,119.5 Z"/></g>
<g><path style="opacity:1" fill="#c9d1e1" d="M 481.5,121.5 C 482.117,121.611 482.617,121.944 483,122.5C 498.871,166.475 495.038,208.475 471.5,248.5C 471.395,243.242 472.062,238.076 473.5,233C 472.018,224.399 473.018,216.066 476.5,208C 475.639,188.807 476.306,169.64 478.5,150.5C 478.283,144.993 477.95,139.493 477.5,134C 477.675,131.177 478.342,128.51 479.5,126C 479.18,124.347 478.18,123.347 476.5,123C 477.094,122.536 477.761,122.369 478.5,122.5C 479.791,122.737 480.791,122.404 481.5,121.5 Z"/></g>
<g><path style="opacity:1" fill="#24517d" d="M 272.5,115.5 C 272.5,134.5 272.5,153.5 272.5,172.5C 271.507,164.016 271.174,155.349 271.5,146.5C 271.666,139.159 271.5,131.826 271,124.5C 270.667,131.5 270.333,138.5 270,145.5C 267.275,143.242 264.275,142.909 261,144.5C 259.47,143.08 257.637,142.08 255.5,141.5C 245.381,139.206 235.715,135.706 226.5,131C 225.53,128.435 224.196,126.268 222.5,124.5C 223.849,118.139 226.515,112.472 230.5,107.5C 231.117,107.389 231.617,107.056 232,106.5C 234.044,109.415 236.877,111.082 240.5,111.5C 240.5,112.5 240.5,113.5 240.5,114.5C 243.106,115.136 245.606,115.136 248,114.5C 248.523,116.223 249.523,117.556 251,118.5C 257.1,120.438 263.6,122.104 270.5,123.5C 270.335,120.15 270.502,116.817 271,113.5C 271.278,114.416 271.778,115.082 272.5,115.5 Z"/></g>
<g><path style="opacity:1" fill="#214f7b" d="M 344.5,133.5 C 343.778,133.082 343.278,132.416 343,131.5C 330.57,138.718 317.404,143.051 303.5,144.5C 301.704,145.141 300.204,146.141 299,147.5C 297.711,141.912 297.211,136.245 297.5,130.5C 298.302,131.952 298.802,133.618 299,135.5C 299.318,133.939 300.151,132.772 301.5,132C 304.167,131.667 306.833,131.333 309.5,131C 317.442,128.338 325.442,125.671 333.5,123C 333.167,122.667 332.833,122.333 332.5,122C 334.867,121.626 336.7,120.459 338,118.5C 339.982,119.094 341.816,120.26 343.5,122C 344.394,125.776 344.728,129.61 344.5,133.5 Z"/></g>
<g><path style="opacity:1" fill="#7c95af" d="M 222.5,124.5 C 222.741,126.898 222.074,128.898 220.5,130.5C 220.259,128.102 220.926,126.102 222.5,124.5 Z"/></g>
<g><path style="opacity:1" fill="#1c4974" d="M 222.5,124.5 C 224.196,126.268 225.53,128.435 226.5,131C 235.715,135.706 245.381,139.206 255.5,141.5C 257.637,142.08 259.47,143.08 261,144.5C 264.275,142.909 267.275,143.242 270,145.5C 270.333,138.5 270.667,131.5 271,124.5C 271.5,131.826 271.666,139.159 271.5,146.5C 270.673,151.651 270.173,156.984 270,162.5C 267.336,160.19 264.336,159.856 261,161.5C 252.103,159.098 243.27,156.432 234.5,153.5C 232.409,154.5 230.743,153.833 229.5,151.5C 227.106,150.651 224.773,149.651 222.5,148.5C 221.673,144.541 221.173,140.541 221,136.5C 220.501,141.489 220.334,146.489 220.5,151.5C 219.223,144.629 219.223,137.629 220.5,130.5C 222.074,128.898 222.741,126.898 222.5,124.5 Z"/></g>
<g><path style="opacity:1" fill="#1b4974" d="M 296.5,121.5 C 297.477,124.287 297.81,127.287 297.5,130.5C 297.211,136.245 297.711,141.912 299,147.5C 300.204,146.141 301.704,145.141 303.5,144.5C 317.404,143.051 330.57,138.718 343,131.5C 343.278,132.416 343.778,133.082 344.5,133.5C 344.263,134.791 344.596,135.791 345.5,136.5C 345.5,140.833 345.5,145.167 345.5,149.5C 335.98,151.923 326.48,154.59 317,157.5C 311.161,158.2 305.327,158.867 299.5,159.5C 299.649,160.552 299.483,161.552 299,162.5C 298.557,156.633 297.724,150.966 296.5,145.5C 296.5,137.5 296.5,129.5 296.5,121.5 Z"/></g>
<g><path style="opacity:1" fill="#798ea6" d="M 513.5,136.5 C 514.924,138.515 515.59,140.848 515.5,143.5C 514.076,141.485 513.41,139.152 513.5,136.5 Z"/></g>
<g><path style="opacity:1" fill="#0c3761" d="M 412.5,135.5 C 411.986,137.366 411.32,139.2 410.5,141C 413.231,144.963 415.564,149.129 417.5,153.5C 416.175,152.047 415.342,152.381 415,154.5C 414.667,153.5 414.333,152.5 414,151.5C 412.559,152.26 411.059,152.926 409.5,153.5C 400.51,161.663 390.51,168.33 379.5,173.5C 378.478,174.354 377.645,175.354 377,176.5C 376.586,176.043 376.086,175.709 375.5,175.5C 372.381,177.593 369.215,179.593 366,181.5C 363.787,180.5 361.954,181.167 360.5,183.5C 359.833,183.167 359.167,182.833 358.5,182.5C 352.84,184.936 347.173,187.269 341.5,189.5C 344.33,183.17 347.663,177.17 351.5,171.5C 352.75,171.577 353.583,172.244 354,173.5C 362.256,169.535 370.256,165.201 378,160.5C 378.333,160.833 378.667,161.167 379,161.5C 381.156,159.505 383.656,158.172 386.5,157.5C 386.281,156.325 386.614,155.325 387.5,154.5C 389.167,153.833 390.833,153.167 392.5,152.5C 396.19,148.476 400.19,144.809 404.5,141.5C 406.007,140.261 407.174,140.595 408,142.5C 408.601,139.363 409.601,136.363 411,133.5C 411.717,134.044 412.217,134.711 412.5,135.5 Z"/></g>
<g><path style="opacity:1" fill="#92a7bc" d="M 347.5,134.5 C 348.653,140.653 348.82,146.986 348,153.5C 347.768,154.737 347.268,155.737 346.5,156.5C 346.5,155.167 346.5,153.833 346.5,152.5C 347.49,146.69 347.823,140.69 347.5,134.5 Z"/></g>
<g><path style="opacity:1" fill="#a1aec5" d="M 77.5,143.5 C 77.5905,146.152 76.9238,148.485 75.5,150.5C 75.4095,147.848 76.0762,145.515 77.5,143.5 Z"/></g>
<g><path style="opacity:1" fill="#7c91a7" d="M 67.5,144.5 C 67.5905,147.152 66.9238,149.485 65.5,151.5C 65.4095,148.848 66.0762,146.515 67.5,144.5 Z"/></g>
<g><path style="opacity:1" fill="#012d56" d="M 138.5,106.5 C 139.329,114.323 139.829,122.323 140,130.5C 146.033,137.87 152.533,144.87 159.5,151.5C 164.946,155.437 170.279,159.604 175.5,164C 187.321,164.863 198.987,165.696 210.5,166.5C 198.322,166.172 186.322,166.505 174.5,167.5C 174.167,167.5 173.833,167.5 173.5,167.5C 172.504,180.99 172.171,194.656 172.5,208.5C 161.5,208.5 150.5,208.5 139.5,208.5C 139.47,174.496 139.136,140.496 138.5,106.5 Z"/></g>
<g><path style="opacity:1" fill="#00244f" d="M 139.5,76.5 C 139.5,76.8333 139.5,77.1667 139.5,77.5C 138.506,86.9856 138.173,96.6522 138.5,106.5C 139.136,140.496 139.47,174.496 139.5,208.5C 150.5,208.5 161.5,208.5 172.5,208.5C 172.171,194.656 172.504,180.99 173.5,167.5C 173.5,181.833 173.5,196.167 173.5,210.5C 161.5,210.5 149.5,210.5 137.5,210.5C 136.838,165.488 137.505,120.821 139.5,76.5 Z"/></g>
<g><path style="opacity:1" fill="#063059" d="M 417.5,153.5 C 421.003,158.502 424.003,163.835 426.5,169.5C 423.645,167.494 421.479,164.828 420,161.5C 416.937,163.951 413.77,166.284 410.5,168.5C 409.147,169.524 408.48,170.857 408.5,172.5C 405.392,172.682 402.892,174.016 401,176.5C 400.667,176.167 400.333,175.833 400,175.5C 397.484,177.288 394.984,178.955 392.5,180.5C 391.206,179.71 390.039,178.71 389,177.5C 388.667,177.833 388.333,178.167 388,178.5C 381.868,189.104 376.035,199.77 370.5,210.5C 356.817,210.833 343.15,210.499 329.5,209.5C 333.164,202.532 337.164,195.865 341.5,189.5C 347.173,187.269 352.84,184.936 358.5,182.5C 359.167,182.833 359.833,183.167 360.5,183.5C 361.954,181.167 363.787,180.5 366,181.5C 369.215,179.593 372.381,177.593 375.5,175.5C 376.086,175.709 376.586,176.043 377,176.5C 377.645,175.354 378.478,174.354 379.5,173.5C 390.51,168.33 400.51,161.663 409.5,153.5C 411.059,152.926 412.559,152.26 414,151.5C 414.333,152.5 414.667,153.5 415,154.5C 415.342,152.381 416.175,152.047 417.5,153.5 Z"/></g>
<g><path style="opacity:1" fill="#7a90a5" d="M 20.5,153.5 C 20.5905,156.152 19.9238,158.485 18.5,160.5C 18.4095,157.848 19.0762,155.515 20.5,153.5 Z"/></g>
<g><path style="opacity:1" fill="#95a8bd" d="M 220.5,156.5 C 221.924,158.515 222.59,160.848 222.5,163.5C 221.076,161.485 220.41,159.152 220.5,156.5 Z"/></g>
<g><path style="opacity:1" fill="#496382" d="M 517.5,153.5 C 519.25,157.183 519.917,161.183 519.5,165.5C 519.5,165.833 519.5,166.167 519.5,166.5C 518.551,162.343 517.884,158.01 517.5,153.5 Z"/></g>
<g><path style="opacity:1" fill="#788ca5" d="M 562.5,153.5 C 563.924,155.515 564.59,157.848 564.5,160.5C 562.837,158.562 562.171,156.228 562.5,153.5 Z"/></g>
<g><path style="opacity:1" fill="#98a8ba" d="M 65.5,153.5 C 65.7204,158.1 65.0538,162.433 63.5,166.5C 63.6245,161.951 64.2911,157.618 65.5,153.5 Z"/></g>
<g><path style="opacity:1" fill="#032c55" d="M 426.5,169.5 C 434.804,182.511 442.804,195.845 450.5,209.5C 436.5,210.833 422.5,210.833 408.5,209.5C 405.642,203.766 402.309,198.433 398.5,193.5C 396.5,189.167 394.5,184.833 392.5,180.5C 394.984,178.955 397.484,177.288 400,175.5C 400.333,175.833 400.667,176.167 401,176.5C 402.892,174.016 405.392,172.682 408.5,172.5C 408.48,170.857 409.147,169.524 410.5,168.5C 413.77,166.284 416.937,163.951 420,161.5C 421.479,164.828 423.645,167.494 426.5,169.5 Z"/></g>
<g><path style="opacity:1" fill="#113e68" d="M 271.5,146.5 C 271.174,155.349 271.507,164.016 272.5,172.5C 274.043,176.644 276.709,179.644 280.5,181.5C 277.203,181.329 276.869,181.995 279.5,183.5C 274.178,184.999 269.012,184.666 264,182.5C 262.374,183.018 260.707,183.352 259,183.5C 253.844,180.999 248.511,180.332 243,181.5C 238.575,178.784 234.242,176.784 230,175.5C 229.536,176.094 229.369,176.761 229.5,177.5C 226.243,173.258 223.909,168.591 222.5,163.5C 222.59,160.848 221.924,158.515 220.5,156.5C 220.5,154.833 220.5,153.167 220.5,151.5C 220.334,146.489 220.501,141.489 221,136.5C 221.173,140.541 221.673,144.541 222.5,148.5C 224.773,149.651 227.106,150.651 229.5,151.5C 230.743,153.833 232.409,154.5 234.5,153.5C 243.27,156.432 252.103,159.098 261,161.5C 264.336,159.856 267.336,160.19 270,162.5C 270.173,156.984 270.673,151.651 271.5,146.5 Z"/></g>
<g><path style="opacity:1" fill="#001c47" d="M 564.5,164.5 C 549.871,166.484 534.871,167.15 519.5,166.5C 519.5,166.167 519.5,165.833 519.5,165.5C 533.833,165.5 548.167,165.5 562.5,165.5C 562.343,164.127 562.51,162.793 563,161.5C 563.232,162.737 563.732,163.737 564.5,164.5 Z"/></g>
<g><path style="opacity:1" fill="#778da5" d="M 18.5,163.5 C 18.5,164.5 18.5,165.5 18.5,166.5C 33.5,166.5 48.5,166.5 63.5,166.5C 63.5,166.833 63.5,167.167 63.5,167.5C 48.1667,167.5 32.8333,167.5 17.5,167.5C 17.2322,165.901 17.5655,164.568 18.5,163.5 Z"/></g>
<g><path style="opacity:1" fill="#63809b" d="M 211.5,130.5 C 212.495,142.655 212.829,154.989 212.5,167.5C 199.833,167.5 187.167,167.5 174.5,167.5C 186.322,166.505 198.322,166.172 210.5,166.5C 211.495,155.012 211.828,143.345 211.5,131.5C 211.5,131.167 211.5,130.833 211.5,130.5 Z"/></g>
<g><path style="opacity:1" fill="#123e69" d="M 346.5,152.5 C 346.5,153.833 346.5,155.167 346.5,156.5C 344.777,165.266 341.444,173.266 336.5,180.5C 336.631,179.761 336.464,179.094 336,178.5C 333.901,179.295 331.735,180.295 329.5,181.5C 328.393,180.978 327.226,180.645 326,180.5C 321.97,181.379 317.97,182.379 314,183.5C 311.958,183.385 309.958,183.051 308,182.5C 298.62,185.246 289.453,184.912 280.5,181.5C 287.834,182.335 292.834,179.335 295.5,172.5C 296.493,163.682 296.827,154.682 296.5,145.5C 297.724,150.966 298.557,156.633 299,162.5C 299.483,161.552 299.649,160.552 299.5,159.5C 305.327,158.867 311.161,158.2 317,157.5C 326.48,154.59 335.98,151.923 345.5,149.5C 345.5,145.167 345.5,140.833 345.5,136.5C 346.548,139.762 346.881,145.095 346.5,152.5 Z"/></g>
<g><path style="opacity:1" fill="#edeff4" d="M 131.5,108.5 C 132.209,107.596 133.209,107.263 134.5,107.5C 134.5,142.833 134.5,178.167 134.5,213.5C 148.745,213.824 162.912,213.49 177,212.5C 177.5,198.504 177.667,184.504 177.5,170.5C 187.833,170.5 198.167,170.5 208.5,170.5C 208.374,176.193 208.707,181.86 209.5,187.5C 211.783,196.199 213.449,205.032 214.5,214C 214.755,215.326 215.422,216.326 216.5,217C 207.601,218.278 198.601,218.945 189.5,219C 203.339,219.169 217.006,219.669 230.5,220.5C 216.833,220.5 203.167,220.5 189.5,220.5C 188.503,236.992 188.17,253.658 188.5,270.5C 186.804,264.87 185.638,258.87 185,252.5C 184.667,256.5 184.333,260.5 184,264.5C 181.975,266.693 179.475,267.693 176.5,267.5C 180.006,263.997 181.339,259.664 180.5,254.5C 180.333,251.5 180.167,248.5 180,245.5C 178.315,243.983 176.815,242.316 175.5,240.5C 166.19,239.502 156.857,239.168 147.5,239.5C 147.5,236.5 147.5,233.5 147.5,230.5C 157.172,230.666 166.839,230.5 176.5,230C 179.101,227.456 180.101,224.29 179.5,220.5C 166.163,220.333 152.829,220.5 139.5,221C 137.667,222.833 135.833,224.667 134,226.5C 133.21,232.915 133.376,239.248 134.5,245.5C 133.153,246.171 131.986,246.171 131,245.5C 130.503,242.854 130.336,240.187 130.5,237.5C 130.335,233.818 130.501,230.152 131,226.5C 134.551,223.806 137.051,220.472 138.5,216.5C 142.226,216.823 145.893,216.489 149.5,215.5C 144.208,214.505 138.875,214.172 133.5,214.5C 134.16,178.818 133.493,143.484 131.5,108.5 Z"/></g>
<g><path style="opacity:1" fill="#b4c0cd" d="M 17.5,177.5 C 32.8333,177.5 48.1667,177.5 63.5,177.5C 63.5,177.833 63.5,178.167 63.5,178.5C 48.324,178.171 33.324,178.504 18.5,179.5C 18.5,182.167 18.5,184.833 18.5,187.5C 17.5206,184.375 17.1872,181.042 17.5,177.5 Z"/></g>
<g><path style="opacity:1" fill="#e8ecf0" d="M 63.5,177.5 C 64.4959,177.414 65.3292,177.748 66,178.5C 68.1764,210.169 79.6764,237.836 100.5,261.5C 101.429,262.689 101.762,264.022 101.5,265.5C 81.71,243.918 69.3766,218.584 64.5,189.5C 63.8857,185.865 63.5524,182.198 63.5,178.5C 63.5,178.167 63.5,177.833 63.5,177.5 Z"/></g>
<g><path style="opacity:1" fill="#173c61" d="M 18.5,179.5 C 33.324,178.504 48.324,178.171 63.5,178.5C 63.5524,182.198 63.8857,185.865 64.5,189.5C 62.8255,186.493 62.1588,183.16 62.5,179.5C 47.8333,179.5 33.1667,179.5 18.5,179.5 Z"/></g>
<g><path style="opacity:1" fill="#0a365f" d="M 280.5,181.5 C 289.453,184.912 298.62,185.246 308,182.5C 309.958,183.051 311.958,183.385 314,183.5C 317.97,182.379 321.97,181.379 326,180.5C 327.226,180.645 328.393,180.978 329.5,181.5C 331.735,180.295 333.901,179.295 336,178.5C 336.464,179.094 336.631,179.761 336.5,180.5C 331.039,189.963 323.372,196.963 313.5,201.5C 312.076,199.285 309.909,198.285 307,198.5C 293.506,202.471 280.006,202.471 266.5,198.5C 264.155,198.751 261.822,199.085 259.5,199.5C 257.956,199.21 256.623,198.544 255.5,197.5C 255.262,199.07 255.262,200.737 255.5,202.5C 251.856,201.345 248.523,199.678 245.5,197.5C 242.167,193.5 238.5,189.833 234.5,186.5C 232.58,183.661 230.913,180.661 229.5,177.5C 229.369,176.761 229.536,176.094 230,175.5C 234.242,176.784 238.575,178.784 243,181.5C 248.511,180.332 253.844,180.999 259,183.5C 260.707,183.352 262.374,183.018 264,182.5C 269.012,184.666 274.178,184.999 279.5,183.5C 276.869,181.995 277.203,181.329 280.5,181.5 Z"/></g>
<g><path style="opacity:1" fill="#032c55" d="M 18.5,179.5 C 33.1667,179.5 47.8333,179.5 62.5,179.5C 62.1588,183.16 62.8255,186.493 64.5,189.5C 69.3766,218.584 81.71,243.918 101.5,265.5C 112.305,278.542 124.972,289.209 139.5,297.5C 147.482,303.497 156.149,308.497 165.5,312.5C 166.429,313.689 166.762,315.022 166.5,316.5C 162.888,315.578 159.221,314.911 155.5,314.5C 139.084,309.369 123.418,302.702 108.5,294.5C 108.027,293.094 107.027,292.427 105.5,292.5C 71.3427,275.511 45.1761,250.177 27,216.5C 23.0834,207.034 20.25,197.367 18.5,187.5C 18.5,184.833 18.5,182.167 18.5,179.5 Z"/></g>
<g><path style="opacity:1" fill="#032c55" d="M 519.5,178.5 C 534.5,178.5 549.5,178.5 564.5,178.5C 563.516,197.285 558.016,214.619 548,230.5C 532.695,253.472 513.195,271.972 489.5,286C 476.019,293.407 462.352,300.24 448.5,306.5C 444.261,307.796 440.261,309.462 436.5,311.5C 430.197,313.068 424.03,315.068 418,317.5C 416.231,316.629 415.564,315.296 416,313.5C 441.172,301.077 463.506,284.744 483,264.5C 499.466,245.567 510.633,223.9 516.5,199.5C 518.87,192.838 519.87,185.838 519.5,178.5 Z"/></g>
<g><path style="opacity:1" fill="#58708d" d="M 519.5,178.5 C 519.87,185.838 518.87,192.838 516.5,199.5C 517.426,192.352 518.426,185.352 519.5,178.5 Z"/></g>
<g><path style="opacity:1" fill="#b6bfd3" d="M -0.5,156.5 C -0.166667,156.5 0.166667,156.5 0.5,156.5C 0.333486,167.505 0.500153,178.505 1,189.5C 3.29055,196.998 5.12388,204.665 6.5,212.5C 5.88258,212.389 5.38258,212.056 5,211.5C 3.58933,204.181 1.75599,197.181 -0.5,190.5C -0.5,179.167 -0.5,167.833 -0.5,156.5 Z"/></g>
<g><path style="opacity:1" fill="#052f58" d="M 313.5,201.5 C 307.602,204.896 301.269,207.229 294.5,208.5C 285.8,208.711 277.133,208.377 268.5,207.5C 267.391,207.443 266.391,207.11 265.5,206.5C 263.898,204.926 261.898,204.259 259.5,204.5C 259.167,204.5 258.833,204.5 258.5,204.5C 258.027,203.094 257.027,202.427 255.5,202.5C 255.262,200.737 255.262,199.07 255.5,197.5C 256.623,198.544 257.956,199.21 259.5,199.5C 261.822,199.085 264.155,198.751 266.5,198.5C 280.006,202.471 293.506,202.471 307,198.5C 309.909,198.285 312.076,199.285 313.5,201.5 Z"/></g>
<g><path style="opacity:1" fill="#7087a0" d="M 255.5,202.5 C 257.027,202.427 258.027,203.094 258.5,204.5C 256.973,204.573 255.973,203.906 255.5,202.5 Z"/></g>
<g><path style="opacity:1" fill="#486182" d="M 259.5,204.5 C 261.898,204.259 263.898,204.926 265.5,206.5C 263.102,206.741 261.102,206.074 259.5,204.5 Z"/></g>
<g><path style="opacity:1" fill="#68829b" d="M 268.5,207.5 C 277.133,208.377 285.8,208.711 294.5,208.5C 287.011,209.656 279.345,209.822 271.5,209C 270.263,208.768 269.263,208.268 268.5,207.5 Z"/></g>
<g><path style="opacity:1" fill="#536d89" d="M 173.5,167.5 C 173.833,167.5 174.167,167.5 174.5,167.5C 174.5,182.167 174.5,196.833 174.5,211.5C 162.167,211.5 149.833,211.5 137.5,211.5C 137.5,211.167 137.5,210.833 137.5,210.5C 149.5,210.5 161.5,210.5 173.5,210.5C 173.5,196.167 173.5,181.833 173.5,167.5 Z"/></g>
<g><path style="opacity:1" fill="#eaeef1" d="M 441.5,217.5 C 445.5,217.5 449.5,217.5 453.5,217.5C 453.824,221.555 453.491,225.555 452.5,229.5C 451.315,230.853 449.981,232.02 448.5,233C 439.506,233.5 430.506,233.666 421.5,233.5C 421.5,234.833 421.5,236.167 421.5,237.5C 430.173,237.334 438.84,237.5 447.5,238C 449.667,240.167 451.833,242.333 454,244.5C 454.795,251.58 454.628,258.58 453.5,265.5C 451.037,267.461 448.703,269.628 446.5,272C 438.507,272.5 430.507,272.666 422.5,272.5C 416.158,272.666 409.825,272.5 403.5,272C 402.209,268.545 402.209,265.045 403.5,261.5C 404.107,261.624 404.44,261.957 404.5,262.5C 404.5,265.167 404.5,267.833 404.5,270.5C 418.344,270.829 432.01,270.496 445.5,269.5C 447.797,267.706 449.963,265.706 452,263.5C 452.667,257.5 452.667,251.5 452,245.5C 450.316,243.649 448.483,241.982 446.5,240.5C 437.19,239.502 427.857,239.168 418.5,239.5C 418.223,236.552 418.556,233.719 419.5,231C 429.167,230.667 438.833,230.333 448.5,230C 450.34,227.174 451.006,224.007 450.5,220.5C 436.784,220.202 423.118,220.535 409.5,221.5C 408.355,220.207 408.689,219.041 410.5,218C 420.828,217.5 431.161,217.334 441.5,217.5 Z"/></g>
<g><path style="opacity:1" fill="#1f456c" d="M 355.5,220.5 C 370.5,220.5 385.5,220.5 400.5,220.5C 400.5,224.167 400.5,227.833 400.5,231.5C 395.167,231.5 389.833,231.5 384.5,231.5C 389.305,230.513 394.305,230.179 399.5,230.5C 399.5,227.5 399.5,224.5 399.5,221.5C 385.167,221.5 370.833,221.5 356.5,221.5C 356.806,224.385 356.473,227.052 355.5,229.5C 355.5,226.5 355.5,223.5 355.5,220.5 Z"/></g>
<g><path style="opacity:1" fill="#0d3059" d="M 176.5,267.5 C 175.5,267.833 174.833,268.5 174.5,269.5C 161.167,269.5 147.833,269.5 134.5,269.5C 134.5,267.167 134.5,264.833 134.5,262.5C 134.953,261.542 135.619,260.708 136.5,260C 146.5,259.667 156.5,259.333 166.5,259C 167.444,256.281 167.777,253.448 167.5,250.5C 157.652,250.827 147.986,250.494 138.5,249.5C 137.5,247.833 136.167,246.5 134.5,245.5C 133.376,239.248 133.21,232.915 134,226.5C 135.833,224.667 137.667,222.833 139.5,221C 152.829,220.5 166.163,220.333 179.5,220.5C 180.101,224.29 179.101,227.456 176.5,230C 166.839,230.5 157.172,230.666 147.5,230.5C 147.5,233.5 147.5,236.5 147.5,239.5C 156.857,239.168 166.19,239.502 175.5,240.5C 176.815,242.316 178.315,243.983 180,245.5C 180.167,248.5 180.333,251.5 180.5,254.5C 181.339,259.664 180.006,263.997 176.5,267.5 Z"/></g>
<g><path style="opacity:1" fill="#06335d" d="M 192.5,221.5 C 205.167,221.5 217.833,221.5 230.5,221.5C 221.936,222.089 213.269,222.922 204.5,224C 210.425,226.18 216.425,227.847 222.5,229C 215.425,228.867 208.758,229.7 202.5,231.5C 202.5,235.833 202.5,240.167 202.5,244.5C 201.675,240.353 201.175,236.019 201,231.5C 200.827,235.541 200.327,239.541 199.5,243.5C 193.136,240.623 190.47,235.623 191.5,228.5C 191.56,226.079 191.893,223.746 192.5,221.5 Z"/></g>
<g><path style="opacity:1" fill="#163f69" d="M 230.5,221.5 C 232.833,223.167 234.833,225.167 236.5,227.5C 235.673,231.363 234.839,235.363 234,239.5C 232.649,238.039 231.149,236.706 229.5,235.5C 228.522,235.977 227.689,236.643 227,237.5C 226.83,235.285 226.163,233.285 225,231.5C 224.823,235.356 224.323,239.023 223.5,242.5C 223.793,238.563 223.46,234.73 222.5,231C 215.986,230.18 209.653,230.347 203.5,231.5C 203.167,231.5 202.833,231.5 202.5,231.5C 208.758,229.7 215.425,228.867 222.5,229C 216.425,227.847 210.425,226.18 204.5,224C 213.269,222.922 221.936,222.089 230.5,221.5 Z"/></g>
<g><path style="opacity:1" fill="#19416b" d="M 292.5,226.5 C 292.5,226.833 292.5,227.167 292.5,227.5C 291.518,230.962 291.185,234.629 291.5,238.5C 288.833,238.5 286.167,238.5 283.5,238.5C 283.509,236.692 283.009,235.025 282,233.5C 281.31,232.262 280.81,232.262 280.5,233.5C 279.711,233.217 279.044,232.717 278.5,232C 272.5,231.333 266.5,231.333 260.5,232C 260,232.5 259.5,233 259,233.5C 258.5,240.826 258.334,248.159 258.5,255.5C 257.833,248.322 257.167,240.989 256.5,233.5C 255.808,234.025 255.308,234.692 255,235.5C 252.868,234.22 250.702,234.22 248.5,235.5C 247.217,232.628 247.217,229.795 248.5,227C 247.906,226.536 247.239,226.369 246.5,226.5C 247.96,224.537 249.627,222.704 251.5,221C 263.167,220.333 274.833,220.333 286.5,221C 288.37,223.04 290.37,224.873 292.5,226.5 Z"/></g>
<g><path style="opacity:1" fill="#1c446f" d="M 303.5,221.5 C 316.656,220.504 329.99,220.171 343.5,220.5C 345.833,222.167 347.833,224.167 349.5,226.5C 347.352,226.389 347.019,227.056 348.5,228.5C 347.82,230.889 346.986,233.222 346,235.5C 343.954,235.549 341.787,235.215 339.5,234.5C 339,233.5 338.5,232.5 338,231.5C 337.817,234.365 337.317,237.031 336.5,239.5C 336.806,236.615 336.473,233.948 335.5,231.5C 329.355,230.51 323.022,230.177 316.5,230.5C 316.5,234.167 316.5,237.833 316.5,241.5C 315.834,237.979 315.167,234.313 314.5,230.5C 313.833,232.167 313.167,233.833 312.5,235.5C 310.591,234.652 308.591,234.318 306.5,234.5C 305.41,232.606 305.077,228.606 305.5,222.5C 316.172,222.667 326.839,222.5 337.5,222C 326.172,221.5 314.838,221.333 303.5,221.5 Z"/></g>
<g><path style="opacity:1" fill="#0a3660" d="M 371.5,231.5 C 366.167,231.5 360.833,231.5 355.5,231.5C 355.5,231.167 355.5,230.833 355.5,230.5C 360.844,230.666 366.177,230.499 371.5,230C 366.845,229.501 362.179,229.334 357.5,229.5C 357.5,227.167 357.5,224.833 357.5,222.5C 368.912,222.076 380.246,222.743 391.5,224.5C 389.955,225.452 388.288,225.785 386.5,225.5C 386.5,226.5 386.5,227.5 386.5,228.5C 383.594,228.903 381.761,230.569 381,233.5C 380.282,232.549 379.449,232.383 378.5,233C 377.348,235.149 375.848,236.982 374,238.5C 374.03,235.639 373.197,233.305 371.5,231.5 Z"/></g>
<g><path style="opacity:1" fill="#0f3159" d="M 445.5,269.5 C 432.167,269.5 418.833,269.5 405.5,269.5C 405.5,267.167 405.5,264.833 405.5,262.5C 406.906,262.027 407.573,261.027 407.5,259.5C 417.833,259.5 428.167,259.5 438.5,259.5C 438.5,256.5 438.5,253.5 438.5,250.5C 429.161,250.666 419.827,250.5 410.5,250C 405.103,246.635 403.103,241.801 404.5,235.5C 404.833,232.5 405.167,229.5 405.5,226.5C 407.611,225.395 408.945,223.729 409.5,221.5C 423.118,220.535 436.784,220.202 450.5,220.5C 451.006,224.007 450.34,227.174 448.5,230C 438.833,230.333 429.167,230.667 419.5,231C 418.556,233.719 418.223,236.552 418.5,239.5C 427.857,239.168 437.19,239.502 446.5,240.5C 448.483,241.982 450.316,243.649 452,245.5C 452.667,251.5 452.667,257.5 452,263.5C 449.963,265.706 447.797,267.706 445.5,269.5 Z"/></g>
<g><path style="opacity:0.431" fill="#b2bcd0" d="M 6.5,212.5 C 10.5225,218.608 13.8558,225.274 16.5,232.5C 20.2512,237.582 23.5845,242.915 26.5,248.5C 21.8755,244.378 18.2088,239.544 15.5,234C 11.8722,227.411 8.53889,220.744 5.5,214C 6.05596,213.617 6.38929,213.117 6.5,212.5 Z"/></g>
<g><path style="opacity:1" fill="#c7d1dc" d="M 292.5,227.5 C 292.5,227.167 292.5,226.833 292.5,226.5C 293.829,232.128 294.496,238.128 294.5,244.5C 294.5,250.676 294.166,256.676 293.5,262.5C 293.828,250.655 293.495,238.988 292.5,227.5 Z"/></g>
<g><path style="opacity:1" fill="#133a64" d="M 303.5,221.5 C 314.838,221.333 326.172,221.5 337.5,222C 326.839,222.5 316.172,222.667 305.5,222.5C 305.077,228.606 305.41,232.606 306.5,234.5C 308.591,234.318 310.591,234.652 312.5,235.5C 313.167,233.833 313.833,232.167 314.5,230.5C 315.167,234.313 315.834,237.979 316.5,241.5C 323.022,241.823 329.355,241.49 335.5,240.5C 336.167,240.5 336.5,240.167 336.5,239.5C 337.317,237.031 337.817,234.365 338,231.5C 338.5,232.5 339,233.5 339.5,234.5C 341.787,235.215 343.954,235.549 346,235.5C 346.986,233.222 347.82,230.889 348.5,228.5C 347.019,227.056 347.352,226.389 349.5,226.5C 350.167,226.5 350.5,226.833 350.5,227.5C 350.666,232.844 350.499,238.177 350,243.5C 347.778,245.385 345.944,247.551 344.5,250C 345.32,251.8 345.986,253.634 346.5,255.5C 345.325,255.719 344.325,255.386 343.5,254.5C 342.811,252.556 342.311,250.556 342,248.5C 339.932,251.455 337.098,253.288 333.5,254C 333.198,256.041 333.532,258.208 334.5,260.5C 332.603,258.302 331.603,255.636 331.5,252.5C 326.5,252.5 321.5,252.5 316.5,252.5C 316.167,252.5 315.833,252.5 315.5,252.5C 313.955,253.23 313.122,254.563 313,256.5C 311.246,254.75 309.079,254.083 306.5,254.5C 306.649,255.552 306.483,256.552 306,257.5C 305.667,254.167 305.333,250.833 305,247.5C 304.79,249.058 304.29,250.391 303.5,251.5C 303.5,241.5 303.5,231.5 303.5,221.5 Z"/></g>
<g><path style="opacity:1" fill="#23496f" d="M 189.5,220.5 C 203.167,220.5 216.833,220.5 230.5,220.5C 230.5,220.833 230.5,221.167 230.5,221.5C 217.833,221.5 205.167,221.5 192.5,221.5C 190.515,237.132 189.849,253.132 190.5,269.5C 189.504,253.342 189.17,237.009 189.5,220.5 Z"/></g>
<g><path style="opacity:1" fill="#ebeef4" d="M 431.5,171.5 C 436.987,181.327 442.654,190.993 448.5,200.5C 451.064,204.957 453.064,209.623 454.5,214.5C 448.132,214.17 441.798,214.504 435.5,215.5C 437.631,216.169 439.631,216.835 441.5,217.5C 431.161,217.334 420.828,217.5 410.5,218C 408.689,219.041 408.355,220.207 409.5,221.5C 408.945,223.729 407.611,225.395 405.5,226.5C 405.167,229.5 404.833,232.5 404.5,235.5C 403.103,241.801 405.103,246.635 410.5,250C 419.827,250.5 429.161,250.666 438.5,250.5C 438.5,253.5 438.5,256.5 438.5,259.5C 428.167,259.5 417.833,259.5 407.5,259.5C 407.389,258.883 407.056,258.383 406.5,258C 416.494,257.5 426.494,257.334 436.5,257.5C 436.714,255.856 436.38,254.356 435.5,253C 426.833,252.667 418.167,252.333 409.5,252C 407.274,249.398 404.608,247.565 401.5,246.5C 400.556,254.33 399.556,262.164 398.5,270C 395.971,282.385 392.971,294.552 389.5,306.5C 390.949,307.172 392.282,307.839 393.5,308.5C 380.456,314.512 366.789,318.512 352.5,320.5C 351.791,319.596 350.791,319.263 349.5,319.5C 353.643,308.624 357.643,297.624 361.5,286.5C 363.333,279.833 365.167,273.167 367,266.5C 367.219,267.938 367.719,269.271 368.5,270.5C 369.429,271.55 370.095,271.55 370.5,270.5C 375.167,270.5 379.833,270.5 384.5,270.5C 385.495,258.011 385.829,245.344 385.5,232.5C 390.695,232.821 395.695,232.487 400.5,231.5C 400.5,227.833 400.5,224.167 400.5,220.5C 385.5,220.5 370.5,220.5 355.5,220.5C 370.328,219.669 385.328,219.169 400.5,219C 386.171,218.5 371.837,218.333 357.5,218.5C 357.5,217.167 357.5,215.833 357.5,214.5C 362.496,214.742 367.329,214.075 372,212.5C 378.132,202.717 383.799,192.717 389,182.5C 391.583,185.997 393.916,189.664 396,193.5C 396.77,192.402 397.603,192.402 398.5,193.5C 402.309,198.433 405.642,203.766 408.5,209.5C 422.5,210.833 436.5,210.833 450.5,209.5C 442.804,195.845 434.804,182.511 426.5,169.5C 424.003,163.835 421.003,158.502 417.5,153.5C 415.564,149.129 413.231,144.963 410.5,141C 411.32,139.2 411.986,137.366 412.5,135.5C 417.562,127.459 422.562,119.459 427.5,111.5C 428.363,110.537 429.03,110.537 429.5,111.5C 429.013,112.446 428.68,113.446 428.5,114.5C 423.189,123.356 418.522,132.023 414.5,140.5C 414.667,141.5 414.833,142.5 415,143.5C 420.597,152.812 426.097,162.145 431.5,171.5 Z"/></g>
<g><path style="opacity:1" fill="#eceff4" d="M 223.5,242.5 C 223.167,243.167 222.833,243.833 222.5,244.5C 216.167,244.5 209.833,244.5 203.5,244.5C 203.5,240.167 203.5,235.833 203.5,231.5C 209.653,230.347 215.986,230.18 222.5,231C 223.46,234.73 223.793,238.563 223.5,242.5 Z"/></g>
<g><path style="opacity:1" fill="#f9f9fc" d="M 335.5,231.5 C 336.473,233.948 336.806,236.615 336.5,239.5C 336.5,240.167 336.167,240.5 335.5,240.5C 329.5,240.5 323.5,240.5 317.5,240.5C 317.5,237.5 317.5,234.5 317.5,231.5C 323.5,231.5 329.5,231.5 335.5,231.5 Z"/></g>
<g><path style="opacity:1" fill="#022c56" d="M 384.5,231.5 C 384.5,244.167 384.5,256.833 384.5,269.5C 380.167,269.5 375.833,269.5 371.5,269.5C 371.5,256.833 371.5,244.167 371.5,231.5C 373.197,233.305 374.03,235.639 374,238.5C 375.848,236.982 377.348,235.149 378.5,233C 379.449,232.383 380.282,232.549 381,233.5C 381.761,230.569 383.594,228.903 386.5,228.5C 386.5,227.5 386.5,226.5 386.5,225.5C 388.288,225.785 389.955,225.452 391.5,224.5C 380.246,222.743 368.912,222.076 357.5,222.5C 357.5,224.833 357.5,227.167 357.5,229.5C 362.179,229.334 366.845,229.501 371.5,230C 366.177,230.499 360.844,230.666 355.5,230.5C 355.5,230.167 355.5,229.833 355.5,229.5C 356.473,227.052 356.806,224.385 356.5,221.5C 370.833,221.5 385.167,221.5 399.5,221.5C 399.5,224.5 399.5,227.5 399.5,230.5C 394.305,230.179 389.305,230.513 384.5,231.5 Z"/></g>
<g><path style="opacity:1" fill="#012953" d="M 192.5,221.5 C 191.893,223.746 191.56,226.079 191.5,228.5C 190.47,235.623 193.136,240.623 199.5,243.5C 200.327,239.541 200.827,235.541 201,231.5C 201.175,236.019 201.675,240.353 202.5,244.5C 208.979,245.491 215.646,245.824 222.5,245.5C 217.572,246.107 212.572,246.94 207.5,248C 209.087,248.862 210.754,249.529 212.5,250C 212.167,250.333 211.833,250.667 211.5,251C 218.013,251.172 224.347,251.672 230.5,252.5C 230.5,252.833 230.5,253.167 230.5,253.5C 221.167,253.5 211.833,253.5 202.5,253.5C 202.5,258.833 202.5,264.167 202.5,269.5C 198.5,269.5 194.5,269.5 190.5,269.5C 189.849,253.132 190.515,237.132 192.5,221.5 Z"/></g>
<g><path style="opacity:1" fill="#d0d8e1" d="M 335.5,231.5 C 329.5,231.5 323.5,231.5 317.5,231.5C 317.5,234.5 317.5,237.5 317.5,240.5C 323.5,240.5 329.5,240.5 335.5,240.5C 329.355,241.49 323.022,241.823 316.5,241.5C 316.5,237.833 316.5,234.167 316.5,230.5C 323.022,230.177 329.355,230.51 335.5,231.5 Z"/></g>
<g><path style="opacity:1" fill="#acbaca" d="M 384.5,231.5 C 389.833,231.5 395.167,231.5 400.5,231.5C 395.695,232.487 390.695,232.821 385.5,232.5C 385.829,245.344 385.495,258.011 384.5,270.5C 384.5,270.167 384.5,269.833 384.5,269.5C 384.5,256.833 384.5,244.167 384.5,231.5 Z"/></g>
<g><path style="opacity:1" fill="#4a6987" d="M 202.5,231.5 C 202.833,231.5 203.167,231.5 203.5,231.5C 203.5,235.833 203.5,240.167 203.5,244.5C 209.833,244.5 216.167,244.5 222.5,244.5C 222.5,244.833 222.5,245.167 222.5,245.5C 215.646,245.824 208.979,245.491 202.5,244.5C 202.5,240.167 202.5,235.833 202.5,231.5 Z"/></g>
<g><path style="opacity:1" fill="#0d335d" d="M 246.5,226.5 C 247.239,226.369 247.906,226.536 248.5,227C 247.217,229.795 247.217,232.628 248.5,235.5C 250.702,234.22 252.868,234.22 255,235.5C 255.308,234.692 255.808,234.025 256.5,233.5C 257.167,240.989 257.833,248.322 258.5,255.5C 258.953,256.458 259.619,257.292 260.5,258C 266.167,258.667 271.833,258.667 277.5,258C 278.025,257.308 278.692,256.808 279.5,256.5C 280.497,248.862 280.831,241.196 280.5,233.5C 280.81,232.262 281.31,232.262 282,233.5C 283.009,235.025 283.509,236.692 283.5,238.5C 286.167,238.5 288.833,238.5 291.5,238.5C 291.185,234.629 291.518,230.962 292.5,227.5C 293.495,238.988 293.828,250.655 293.5,262.5C 290.882,264.452 288.548,266.785 286.5,269.5C 274.833,270.833 263.167,270.833 251.5,269.5C 249.81,267.481 248.144,265.481 246.5,263.5C 245.521,251.58 245.188,239.58 245.5,227.5C 245.5,226.833 245.833,226.5 246.5,226.5 Z"/></g>
<g><path style="opacity:1" fill="#f1f3f7" d="M 280.5,233.5 C 280.831,241.196 280.497,248.862 279.5,256.5C 278.692,256.808 278.025,257.308 277.5,258C 271.833,258.667 266.167,258.667 260.5,258C 259.619,257.292 258.953,256.458 258.5,255.5C 258.334,248.159 258.5,240.826 259,233.5C 259.5,233 260,232.5 260.5,232C 266.5,231.333 272.5,231.333 278.5,232C 279.044,232.717 279.711,233.217 280.5,233.5 Z"/></g>
<g><path style="opacity:1" fill="#7f94aa" d="M 355.5,231.5 C 360.833,231.5 366.167,231.5 371.5,231.5C 371.5,244.167 371.5,256.833 371.5,269.5C 375.833,269.5 380.167,269.5 384.5,269.5C 384.5,269.833 384.5,270.167 384.5,270.5C 379.833,270.5 375.167,270.5 370.5,270.5C 370.5,257.833 370.5,245.167 370.5,232.5C 365.305,232.821 360.305,232.487 355.5,231.5 Z"/></g>
<g><path style="opacity:1" fill="#0c355e" d="M 236.5,227.5 C 237.818,234.011 237.818,240.678 236.5,247.5C 234.481,249.19 232.481,250.856 230.5,252.5C 224.347,251.672 218.013,251.172 211.5,251C 211.833,250.667 212.167,250.333 212.5,250C 210.754,249.529 209.087,248.862 207.5,248C 212.572,246.94 217.572,246.107 222.5,245.5C 222.5,245.167 222.5,244.833 222.5,244.5C 222.833,243.833 223.167,243.167 223.5,242.5C 224.323,239.023 224.823,235.356 225,231.5C 226.163,233.285 226.83,235.285 227,237.5C 227.689,236.643 228.522,235.977 229.5,235.5C 231.149,236.706 232.649,238.039 234,239.5C 234.839,235.363 235.673,231.363 236.5,227.5 Z"/></g>
<g><path style="opacity:1" fill="#f1f3f5" d="M 138.5,249.5 C 147.986,250.494 157.652,250.827 167.5,250.5C 167.777,253.448 167.444,256.281 166.5,259C 156.5,259.333 146.5,259.667 136.5,260C 135.619,260.708 134.953,261.542 134.5,262.5C 133.527,264.948 133.194,267.615 133.5,270.5C 147.167,270.5 160.833,270.5 174.5,270.5C 175.043,270.56 175.376,270.893 175.5,271.5C 161.516,272.499 147.516,272.833 133.5,272.5C 132.213,271.129 131.547,269.295 131.5,267C 130.791,263.065 132.124,260.065 135.5,258C 145.161,257.5 154.828,257.334 164.5,257.5C 164.5,255.833 164.5,254.167 164.5,252.5C 155.5,252.5 146.5,252.5 137.5,252.5C 137.263,251.209 137.596,250.209 138.5,249.5 Z"/></g>
<g><path style="opacity:1" fill="#e8ecf2" d="M 188.5,270.5 C 193.167,270.5 197.833,270.5 202.5,270.5C 198.366,271.485 194.032,271.818 189.5,271.5C 192.425,284.161 195.425,296.828 198.5,309.5C 195.575,308.361 192.575,307.861 189.5,308C 192.025,308.424 194.025,309.59 195.5,311.5C 177.42,305.461 160.753,296.794 145.5,285.5C 144.321,283.493 144.821,283.16 147,284.5C 147.167,283.833 147.333,283.167 147.5,282.5C 144.559,279.082 144.892,276.248 148.5,274C 143.316,273.826 138.316,273.326 133.5,272.5C 147.516,272.833 161.516,272.499 175.5,271.5C 175.376,270.893 175.043,270.56 174.5,270.5C 174.5,270.167 174.5,269.833 174.5,269.5C 174.833,268.5 175.5,267.833 176.5,267.5C 179.475,267.693 181.975,266.693 184,264.5C 184.333,260.5 184.667,256.5 185,252.5C 185.638,258.87 186.804,264.87 188.5,270.5 Z"/></g>
<g><path style="opacity:1" fill="#f1f3f7" d="M 203.5,256.5 C 204.325,260.647 204.825,264.981 205,269.5C 205.499,265.179 205.666,260.846 205.5,256.5C 212.5,256.5 219.5,256.5 226.5,256.5C 228.309,262.059 229.976,267.726 231.5,273.5C 234.526,280.555 237.859,287.555 241.5,294.5C 246.009,300.009 250.343,305.676 254.5,311.5C 254.678,314.804 256.344,316.471 259.5,316.5C 259.5,317.5 259.5,318.5 259.5,319.5C 262.643,321.235 265.976,322.735 269.5,324C 266.635,324.183 263.969,324.683 261.5,325.5C 258.833,325.5 256.167,325.5 253.5,325.5C 244.58,323.748 235.58,322.248 226.5,321C 215.986,318.398 205.653,315.231 195.5,311.5C 194.025,309.59 192.025,308.424 189.5,308C 192.575,307.861 195.575,308.361 198.5,309.5C 195.425,296.828 192.425,284.161 189.5,271.5C 194.032,271.818 198.366,271.485 202.5,270.5C 203.486,266.03 203.819,261.363 203.5,256.5 Z"/></g>
<g><path style="opacity:1" fill="#062d56" d="M 346.5,255.5 C 347.867,259.649 349.534,263.649 351.5,267.5C 349.603,268.805 347.269,269.471 344.5,269.5C 341.747,269.449 339.08,269.116 336.5,268.5C 336.037,265.779 335.371,263.112 334.5,260.5C 333.532,258.208 333.198,256.041 333.5,254C 337.098,253.288 339.932,251.455 342,248.5C 342.311,250.556 342.811,252.556 343.5,254.5C 344.325,255.386 345.325,255.719 346.5,255.5 Z"/></g>
<g><path style="opacity:1" fill="#597692" d="M 245.5,227.5 C 245.188,239.58 245.521,251.58 246.5,263.5C 245.171,257.872 244.504,251.872 244.5,245.5C 244.5,239.324 244.834,233.324 245.5,227.5 Z"/></g>
<g><path style="opacity:1" fill="#869aaf" d="M 189.5,220.5 C 189.17,237.009 189.504,253.342 190.5,269.5C 194.5,269.5 198.5,269.5 202.5,269.5C 202.5,264.167 202.5,258.833 202.5,253.5C 211.833,253.5 221.167,253.5 230.5,253.5C 221.287,253.844 212.287,254.844 203.5,256.5C 203.819,261.363 203.486,266.03 202.5,270.5C 197.833,270.5 193.167,270.5 188.5,270.5C 188.17,253.658 188.503,236.992 189.5,220.5 Z"/></g>
<g><path style="opacity:1" fill="#022c56" d="M 315.5,252.5 C 315.5,258.167 315.5,263.833 315.5,269.5C 311.5,269.5 307.5,269.5 303.5,269.5C 303.5,263.5 303.5,257.5 303.5,251.5C 304.29,250.391 304.79,249.058 305,247.5C 305.333,250.833 305.667,254.167 306,257.5C 306.483,256.552 306.649,255.552 306.5,254.5C 309.079,254.083 311.246,254.75 313,256.5C 313.122,254.563 313.955,253.23 315.5,252.5 Z"/></g>
<g><path style="opacity:0.451" fill="#c0c9d8" d="M 33.5,257.5 C 39.5,261.5 44.5,266.5 48.5,272.5C 44.022,268.192 39.3553,264.026 34.5,260C 33.7476,259.329 33.4142,258.496 33.5,257.5 Z"/></g>
<g><path style="opacity:1" fill="#6c839c" d="M 134.5,262.5 C 134.5,264.833 134.5,267.167 134.5,269.5C 147.833,269.5 161.167,269.5 174.5,269.5C 174.5,269.833 174.5,270.167 174.5,270.5C 160.833,270.5 147.167,270.5 133.5,270.5C 133.194,267.615 133.527,264.948 134.5,262.5 Z"/></g>
<g><path style="opacity:1" fill="#7189a2" d="M 343.5,220.5 C 329.99,220.171 316.656,220.504 303.5,221.5C 303.5,231.5 303.5,241.5 303.5,251.5C 303.5,257.5 303.5,263.5 303.5,269.5C 307.5,269.5 311.5,269.5 315.5,269.5C 315.5,263.833 315.5,258.167 315.5,252.5C 315.833,252.5 316.167,252.5 316.5,252.5C 316.5,258.5 316.5,264.5 316.5,270.5C 311.833,270.5 307.167,270.5 302.5,270.5C 302.5,253.833 302.5,237.167 302.5,220.5C 316.167,219.167 329.833,219.167 343.5,220.5 Z"/></g>
<g><path style="opacity:1" fill="#69819a" d="M 351.5,267.5 C 352.404,268.209 352.737,269.209 352.5,270.5C 346.729,271.113 341.396,270.446 336.5,268.5C 339.08,269.116 341.747,269.449 344.5,269.5C 347.269,269.471 349.603,268.805 351.5,267.5 Z"/></g>
<g><path style="opacity:1" fill="#7389a1" d="M 404.5,262.5 C 404.833,262.5 405.167,262.5 405.5,262.5C 405.5,264.833 405.5,267.167 405.5,269.5C 418.833,269.5 432.167,269.5 445.5,269.5C 432.01,270.496 418.344,270.829 404.5,270.5C 404.5,267.833 404.5,265.167 404.5,262.5 Z"/></g>
<g><path style="opacity:1" fill="#e8ebf2" d="M 407.5,259.5 C 407.573,261.027 406.906,262.027 405.5,262.5C 405.167,262.5 404.833,262.5 404.5,262.5C 404.44,261.957 404.107,261.624 403.5,261.5C 402.209,265.045 402.209,268.545 403.5,272C 409.825,272.5 416.158,272.666 422.5,272.5C 421.282,273.161 419.949,273.828 418.5,274.5C 419.325,275.386 420.325,275.719 421.5,275.5C 420.714,281.809 419.38,287.976 417.5,294C 418.756,294.417 419.423,295.25 419.5,296.5C 411.092,301.079 402.426,305.079 393.5,308.5C 392.282,307.839 390.949,307.172 389.5,306.5C 392.971,294.552 395.971,282.385 398.5,270C 399.556,262.164 400.556,254.33 401.5,246.5C 404.608,247.565 407.274,249.398 409.5,252C 418.167,252.333 426.833,252.667 435.5,253C 436.38,254.356 436.714,255.856 436.5,257.5C 426.494,257.334 416.494,257.5 406.5,258C 407.056,258.383 407.389,258.883 407.5,259.5 Z"/></g>
<g><path style="opacity:1" fill="#dce1eb" d="M 453.5,265.5 C 453.771,267.43 454.771,268.764 456.5,269.5C 445.771,280.698 433.438,289.698 419.5,296.5C 419.423,295.25 418.756,294.417 417.5,294C 419.38,287.976 420.714,281.809 421.5,275.5C 420.325,275.719 419.325,275.386 418.5,274.5C 419.949,273.828 421.282,273.161 422.5,272.5C 430.507,272.666 438.507,272.5 446.5,272C 448.703,269.628 451.037,267.461 453.5,265.5 Z"/></g>
<g><path style="opacity:1" fill="#e8ebf0" d="M 17.5,177.5 C 17.1872,181.042 17.5206,184.375 18.5,187.5C 20.25,197.367 23.0834,207.034 27,216.5C 45.1761,250.177 71.3427,275.511 105.5,292.5C 105.973,293.906 106.973,294.573 108.5,294.5C 123.418,302.702 139.084,309.369 155.5,314.5C 159.016,316.637 162.683,317.303 166.5,316.5C 166.762,315.022 166.429,313.689 165.5,312.5C 156.149,308.497 147.482,303.497 139.5,297.5C 149.375,301.436 159.042,305.936 168.5,311C 167.756,313.483 167.756,316.149 168.5,319C 167.892,319.87 167.059,320.37 166,320.5C 124.726,309.119 88.2259,289.286 56.5,261C 43.9284,248.352 33.4284,234.185 25,218.5C 19.2654,205.665 16.2654,192.332 16,178.5C 16.3826,177.944 16.8826,177.611 17.5,177.5 Z"/></g>
<g><path style="opacity:0.067" fill="#c7cfdd" d="M 531.5,273.5 C 532.525,273.897 532.692,274.563 532,275.5C 529.099,279.025 525.599,281.692 521.5,283.5C 524.452,279.881 527.785,276.548 531.5,273.5 Z"/></g>
<g><path style="opacity:1" fill="#5a738f" d="M 105.5,292.5 C 107.027,292.427 108.027,293.094 108.5,294.5C 106.973,294.573 105.973,293.906 105.5,292.5 Z"/></g>
<g><path style="opacity:0.02" fill="#bdc5d7" d="M 72.5,290.5 C 77.2108,293.303 82.0442,295.97 87,298.5C 89.2726,299.852 91.1059,301.519 92.5,303.5C 85.073,300.134 78.4063,295.8 72.5,290.5 Z"/></g>
<g><path style="opacity:1" fill="#bbc6d4" d="M 448.5,306.5 C 448.53,307.497 448.03,308.164 447,308.5C 443.6,309.956 440.1,310.956 436.5,311.5C 440.261,309.462 444.261,307.796 448.5,306.5 Z"/></g>
<g><path style="opacity:0.98" fill="#b6bfd3" d="M 94.5,304.5 C 102.123,306.311 108.789,309.644 114.5,314.5C 107.516,311.675 100.849,308.341 94.5,304.5 Z"/></g>
<g><path style="opacity:0.875" fill="#b1bbd0" d="M 115.5,314.5 C 125.723,318.197 136.056,321.697 146.5,325C 147.823,325.816 148.489,326.983 148.5,328.5C 139.123,325.097 129.79,321.597 120.5,318C 118.654,316.97 116.987,315.804 115.5,314.5 Z"/></g>
<g><path style="opacity:1" fill="#354f72" d="M 155.5,314.5 C 159.221,314.911 162.888,315.578 166.5,316.5C 162.683,317.303 159.016,316.637 155.5,314.5 Z"/></g>
<g><path style="opacity:1" fill="#d3d9e4" d="M 253.5,325.5 C 256.167,325.5 258.833,325.5 261.5,325.5C 277.819,326.329 294.152,326.662 310.5,326.5C 291.477,327.883 272.477,327.549 253.5,325.5 Z"/></g>
<g><path style="opacity:1" fill="#5b7399" d="M 326.5,330.5 C 323.941,330.198 321.607,330.532 319.5,331.5C 318.833,331.5 318.167,331.5 317.5,331.5C 298.5,331.5 279.5,331.5 260.5,331.5C 260.167,331.5 259.833,331.5 259.5,331.5C 258.432,330.566 257.099,330.232 255.5,330.5C 267.29,328.942 279.29,328.276 291.5,328.5C 300.5,328.667 309.5,328.833 318.5,329C 321.365,329.183 324.031,329.683 326.5,330.5 Z"/></g>
<g><path style="opacity:1" fill="#9caac2" d="M 245.5,329.5 C 248.902,329.342 252.236,329.676 255.5,330.5C 257.099,330.232 258.432,330.566 259.5,331.5C 254.586,331.638 249.919,330.972 245.5,329.5 Z"/></g>
<g><path style="opacity:1" fill="#a2afc6" d="M 336.5,329.5 C 331.071,331.012 325.404,331.679 319.5,331.5C 321.607,330.532 323.941,330.198 326.5,330.5C 329.764,329.676 333.098,329.342 336.5,329.5 Z"/></g>
<g><path style="opacity:1" fill="#7185a7" d="M 260.5,331.5 C 279.5,331.5 298.5,331.5 317.5,331.5C 313.702,332.483 309.702,332.817 305.5,332.5C 302.615,332.194 299.948,332.527 297.5,333.5C 293.5,333.5 289.5,333.5 285.5,333.5C 280.695,332.513 275.695,332.179 270.5,332.5C 266.958,332.813 263.625,332.479 260.5,331.5 Z"/></g>
<g><path style="opacity:1" fill="#cdd4e1" d="M 270.5,332.5 C 275.695,332.179 280.695,332.513 285.5,333.5C 285.5,336.5 285.5,339.5 285.5,342.5C 275.319,342.827 265.319,342.494 255.5,341.5C 265.167,341.5 274.833,341.5 284.5,341.5C 284.5,338.833 284.5,336.167 284.5,333.5C 279.637,333.819 274.97,333.486 270.5,332.5 Z"/></g>
<g><path style="opacity:1" fill="#cad1e0" d="M 305.5,332.5 C 303.393,333.468 301.059,333.802 298.5,333.5C 298.5,336.167 298.5,338.833 298.5,341.5C 309.518,341.619 320.518,341.286 331.5,340.5C 329.369,341.314 327.036,341.814 324.5,342C 315.506,342.5 306.506,342.666 297.5,342.5C 297.5,339.5 297.5,336.5 297.5,333.5C 299.948,332.527 302.615,332.194 305.5,332.5 Z"/></g>
<g><path style="opacity:0.324" fill="#b8c1d4" d="M 203.5,341.5 C 224.665,344.034 245.665,346.701 266.5,349.5C 261.5,349.5 256.5,349.5 251.5,349.5C 238.157,347.122 224.491,345.288 210.5,344C 207.896,343.61 205.562,342.776 203.5,341.5 Z"/></g>
<g><path style="opacity:0.093" fill="#ced4e1" d="M 347.5,346.5 C 347.082,347.222 346.416,347.722 345.5,348C 340.649,348.174 335.982,348.674 331.5,349.5C 326.5,349.5 321.5,349.5 316.5,349.5C 326.678,348.284 337.011,347.284 347.5,346.5 Z"/></g>
</svg>
