<?xml version="1.0" encoding="UTF-8" standalone="no"?>
<!-- Generator: Adobe Illustrator 16.0.0, SVG Export Plug-In . SVG Version: 6.00 Build 0)  -->

<svg
   version="1.1"
   id="圖層_1"
   x="0px"
   y="0px"
   width="800px"
   height="753.89px"
   viewBox="0 0 800 753.89"
   enable-background="new 0 0 800 753.89"
   xml:space="preserve"
   sodipodi:docname="d1dc2b19-1bbc-4eec-935e-4504c8d1b837.svg"
   xmlns:inkscape="http://www.inkscape.org/namespaces/inkscape"
   xmlns:sodipodi="http://sodipodi.sourceforge.net/DTD/sodipodi-0.dtd"
   xmlns="http://www.w3.org/2000/svg"
   xmlns:svg="http://www.w3.org/2000/svg"><defs
   id="defs9" /><sodipodi:namedview
   id="namedview9"
   pagecolor="#ffffff"
   bordercolor="#000000"
   borderopacity="0.25"
   inkscape:showpageshadow="2"
   inkscape:pageopacity="0.0"
   inkscape:pagecheckerboard="0"
   inkscape:deskcolor="#d1d1d1" />
<path
   fill="#FFC800"
   d="M399.387,367.586c-97.646,0-177.087-79.44-177.087-177.086c0-97.646,79.441-177.087,177.087-177.087  c97.646,0,177.086,79.441,177.086,177.087C576.473,288.146,497.032,367.586,399.387,367.586z M399.387,50.587  c-77.148,0-139.913,62.765-139.913,139.913s62.765,139.913,139.913,139.913S539.301,267.648,539.301,190.5  S476.535,50.587,399.387,50.587z"
   id="path1" />
<path
   fill="#E60012"
   d="M222.526,548.521c-97.646,0-177.087-79.44-177.087-177.086c0-97.646,79.441-177.087,177.087-177.087  s177.087,79.441,177.087,177.087C399.613,469.081,320.172,548.521,222.526,548.521z M222.526,231.522  c-77.148,0-139.913,62.765-139.913,139.914c0,77.148,62.765,139.914,139.913,139.914s139.913-62.766,139.913-139.914  C362.439,294.287,299.675,231.522,222.526,231.522z"
   id="path2" />
<path
   fill="#1D2088"
   d="M576.473,548.521c-97.646,0-177.087-79.44-177.087-177.086c0-97.646,79.441-177.087,177.087-177.087  s177.086,79.441,177.086,177.087C753.559,469.081,674.118,548.521,576.473,548.521z M576.473,231.522  c-77.148,0-139.914,62.765-139.914,139.914c0,77.148,62.766,139.914,139.914,139.914s139.914-62.766,139.914-139.914  C716.387,294.287,653.621,231.522,576.473,231.522z"
   id="path3" />
<g
   id="g9">
	<path
   d="M150.481,618.563c-5.881-14.067-20.556-17.916-33.079-17.916c-18.874,0-37.655,14.928-37.655,43.388   c0,31.972,18.985,43.022,37.857,43.022c23.168,0,34.457-13.44,34.457-22.701h-35.126v-31.148l72.92,0.275   c9.638,68.152-33.738,90.319-72.707,90.319c-45.459,0-79.096-36.757-79.096-80.692c0-45.585,36.125-78.588,80.364-78.588   c35.922,0,64.646,21.443,70.123,54.041H150.481z"
   id="path4" />
	<path
   d="M360.218,682.923h65.568v37.125H303.74v-25.577l58.678-92.82H303.74v-34.241h126.175L360.218,682.923z"
   id="path5" />
	<path
   d="M435.035,567.409h85.031v34.241h-46.676v23.721h45.256v34.239h-45.256v26.196h46.676v34.241h-85.031V567.409z"
   id="path6" />
	<path
   d="M559.245,601.65h-29.63v-34.241h97.411v34.241h-29.425v118.397h-38.356V601.65z"
   id="path7" />
	<path
   d="M716.227,720.048h44.492L701.25,567.409h-43.838l-55.746,152.639h44.5l9.102-27.635h51.968L716.227,720.048z    M697.442,658.335h-32.687l15.834-49.018L697.442,658.335z"
   id="path8" />
	<path
   d="M293.057,720.048h44.492L278.08,567.409h-43.837l-55.746,152.639h44.5l9.102-27.635h51.967L293.057,720.048z    M274.272,658.335h-32.686l15.834-49.018L274.272,658.335z"
   id="path9" />
</g>
</svg>
