<?xml version="1.0" encoding="UTF-8"?>
<!DOCTYPE svg PUBLIC "-//W3C//DTD SVG 1.1//EN" "http://www.w3.org/Graphics/SVG/1.1/DTD/svg11.dtd">
<svg xmlns="http://www.w3.org/2000/svg" version="1.1" width="498px" height="350px" style="shape-rendering:geometricPrecision; text-rendering:geometricPrecision; image-rendering:optimizeQuality; fill-rule:evenodd; clip-rule:evenodd" xmlns:xlink="http://www.w3.org/1999/xlink">
<g><path style="opacity:0.988" fill="#79ba4c" d="M 115.5,-0.5 C 116.833,-0.5 118.167,-0.5 119.5,-0.5C 126.305,0.0597356 132.972,1.39307 139.5,3.5C 174.167,38.8333 209.167,73.8333 244.5,108.5C 244.5,115.5 244.5,122.5 244.5,129.5C 200.549,87.2162 157.216,44.2162 114.5,0.5C 115.167,0.5 115.5,0.166667 115.5,-0.5 Z"/></g>
<g><path style="opacity:0.992" fill="#adca17" d="M 364.5,-0.5 C 364.833,-0.5 365.167,-0.5 365.5,-0.5C 408.249,43.7498 451.582,87.5831 495.5,131C 496.094,131.464 496.761,131.631 497.5,131.5C 497.5,132.833 497.5,134.167 497.5,135.5C 496.833,136.167 496.167,136.833 495.5,137.5C 450.167,91.8333 404.833,46.1667 359.5,0.5C 361.415,0.784479 363.081,0.451145 364.5,-0.5 Z"/></g>
<g><path style="opacity:0.997" fill="#afcb15" d="M 365.5,-0.5 C 368.5,-0.5 371.5,-0.5 374.5,-0.5C 415.167,40.8333 456.167,81.8333 497.5,122.5C 497.5,125.5 497.5,128.5 497.5,131.5C 496.761,131.631 496.094,131.464 495.5,131C 451.582,87.5831 408.249,43.7498 365.5,-0.5 Z"/></g>
<g><path style="opacity:0.991" fill="#b1cb0f" d="M 374.5,-0.5 C 379.833,-0.5 385.167,-0.5 390.5,-0.5C 390.5,0.166667 390.833,0.5 391.5,0.5C 425.833,35.5 460.5,70.1667 495.5,104.5C 496.01,107.983 496.677,111.316 497.5,114.5C 497.5,117.167 497.5,119.833 497.5,122.5C 456.167,81.8333 415.167,40.8333 374.5,-0.5 Z"/></g>
<g><path style="opacity:0.991" fill="#73b84f" d="M 114.5,0.5 C 157.216,44.2162 200.549,87.2162 244.5,129.5C 244.5,138.167 244.5,146.833 244.5,155.5C 192.882,105.549 141.882,54.8826 91.5,3.5C 98.8545,1.13094 106.521,0.130938 114.5,0.5 Z"/></g>
<g><path style="opacity:0.983" fill="#abc91c" d="M 359.5,0.5 C 404.833,46.1667 450.167,91.8333 495.5,137.5C 493.515,141.502 490.182,143.502 485.5,143.5C 465.833,123.167 445.833,103.167 425.5,83.5C 419.474,72.475 410.807,64.1417 399.5,58.5C 399.631,57.7611 399.464,57.0944 399,56.5C 381.298,38.9652 363.798,21.2986 346.5,3.5C 350.721,2.12181 355.054,1.12181 359.5,0.5 Z"/></g>
<g><path style="opacity:0.986" fill="#b4cc0a" d="M 391.5,0.5 C 394.881,0.459541 398.214,0.792874 401.5,1.5C 431.45,33.1171 462.117,64.1171 493.5,94.5C 494.793,97.6791 495.46,101.012 495.5,104.5C 460.5,70.1667 425.833,35.5 391.5,0.5 Z"/></g>
<g><path style="opacity:0.981" fill="#b6cd07" d="M 401.5,1.5 C 404.802,2.29373 408.135,2.9604 411.5,3.5C 437.116,30.7835 463.45,57.4501 490.5,83.5C 492.074,86.9065 493.074,90.5732 493.5,94.5C 462.117,64.1171 431.45,33.1171 401.5,1.5 Z"/></g>
<g><path style="opacity:0.973" fill="#6db753" d="M 91.5,3.5 C 141.882,54.8826 192.882,105.549 244.5,155.5C 244.5,162.833 244.5,170.167 244.5,177.5C 223.167,156.5 201.833,135.5 180.5,114.5C 175.134,84.4671 157.467,66.8004 127.5,61.5C 110.167,43.8333 92.8333,26.1667 75.5,8.5C 80.5636,6.03474 85.8969,4.36807 91.5,3.5 Z"/></g>
<g><path style="opacity:0.985" fill="#7dbb4a" d="M 139.5,3.5 C 142.341,3.55975 145.007,4.22642 147.5,5.5C 178.582,38.0828 210.248,70.2494 242.5,102C 243.094,102.464 243.761,102.631 244.5,102.5C 244.5,104.5 244.5,106.5 244.5,108.5C 209.167,73.8333 174.167,38.8333 139.5,3.5 Z"/></g>
<g><path style="opacity:0.976" fill="#a9c921" d="M 346.5,3.5 C 363.798,21.2986 381.298,38.9652 399,56.5C 399.464,57.0944 399.631,57.7611 399.5,58.5C 395.608,56.8599 391.608,55.5265 387.5,54.5C 371.5,38.1667 355.5,21.8333 339.5,5.5C 341.701,4.43363 344.035,3.76697 346.5,3.5 Z"/></g>
<g><path style="opacity:0.976" fill="#88be44" d="M 194.5,4.5 C 210.833,21.5 227.5,38.1667 244.5,54.5C 244.5,57.1667 244.5,59.8333 244.5,62.5C 225.5,44.1667 206.833,25.5 188.5,6.5C 190.102,4.92606 192.102,4.25939 194.5,4.5 Z"/></g>
<g><path style="opacity:0.972" fill="#8cbf41" d="M 194.5,4.5 C 202.5,4.5 210.5,4.5 218.5,4.5C 226.554,13.5555 235.221,21.8888 244.5,29.5C 244.5,37.8333 244.5,46.1667 244.5,54.5C 227.5,38.1667 210.833,21.5 194.5,4.5 Z"/></g>
<g><path style="opacity:0.958" fill="#90c03e" d="M 218.5,4.5 C 220.5,4.5 222.5,4.5 224.5,4.5C 230.854,11.521 237.521,18.1877 244.5,24.5C 244.5,26.1667 244.5,27.8333 244.5,29.5C 235.221,21.8888 226.554,13.5555 218.5,4.5 Z"/></g>
<g><path style="opacity:0.921" fill="#91c13d" d="M 224.5,4.5 C 240.04,2.22911 246.706,8.89578 244.5,24.5C 237.521,18.1877 230.854,11.521 224.5,4.5 Z"/></g>
<g><path style="opacity:0.965" fill="#b7ce04" d="M 411.5,3.5 C 421.62,6.30944 430.954,10.6428 439.5,16.5C 451.833,29.5 464.5,42.1667 477.5,54.5C 483.557,63.3137 487.89,72.9804 490.5,83.5C 463.45,57.4501 437.116,30.7835 411.5,3.5 Z"/></g>
<g><path style="opacity:0.971" fill="#80bc48" d="M 147.5,5.5 C 161.048,10.2358 172.548,17.9025 182,28.5C 182.499,24.5138 182.666,20.5138 182.5,16.5C 203.167,36.8333 223.833,57.1667 244.5,77.5C 244.5,85.8333 244.5,94.1667 244.5,102.5C 243.761,102.631 243.094,102.464 242.5,102C 210.248,70.2494 178.582,38.0828 147.5,5.5 Z"/></g>
<g><path style="opacity:0.974" fill="#a7c824" d="M 339.5,5.5 C 355.5,21.8333 371.5,38.1667 387.5,54.5C 384.833,54.5 382.167,54.5 379.5,54.5C 364.865,38.5302 349.865,22.8635 334.5,7.5C 336.05,6.5592 337.716,5.89254 339.5,5.5 Z"/></g>
<g><path style="opacity:0.979" fill="#85bd45" d="M 188.5,6.5 C 206.833,25.5 225.5,44.1667 244.5,62.5C 244.5,67.5 244.5,72.5 244.5,77.5C 223.833,57.1667 203.167,36.8333 182.5,16.5C 182.982,12.1946 184.982,8.86123 188.5,6.5 Z"/></g>
<g><path style="opacity:0.976" fill="#a6c827" d="M 334.5,7.5 C 349.865,22.8635 364.865,38.5302 379.5,54.5C 376.833,54.5 374.167,54.5 371.5,54.5C 357.167,39.5 342.5,24.8333 327.5,10.5C 329.649,9.26377 331.982,8.26377 334.5,7.5 Z"/></g>
<g><path style="opacity:0.982" fill="#67b655" d="M 75.5,8.5 C 92.8333,26.1667 110.167,43.8333 127.5,61.5C 120.809,61.4542 114.143,61.7875 107.5,62.5C 92.1667,46.8333 76.8333,31.1667 61.5,15.5C 65.8489,12.6589 70.5156,10.3255 75.5,8.5 Z"/></g>
<g><path style="opacity:0.979" fill="#a3c72c" d="M 327.5,10.5 C 342.5,24.8333 357.167,39.5 371.5,54.5C 367.14,55.0067 362.807,55.6734 358.5,56.5C 345.167,42.8333 331.833,29.1667 318.5,15.5C 321.008,13.0764 324.008,11.4097 327.5,10.5 Z"/></g>
<g><path style="opacity:0.977" fill="#a0c52f" d="M 318.5,15.5 C 331.833,29.1667 345.167,42.8333 358.5,56.5C 355.021,58.4031 351.354,60.0698 347.5,61.5C 334.167,48.5 320.833,35.5 307.5,22.5C 310.65,19.4208 314.317,17.0875 318.5,15.5 Z"/></g>
<g><path style="opacity:0.982" fill="#60b458" d="M 61.5,15.5 C 76.8333,31.1667 92.1667,46.8333 107.5,62.5C 102.576,64.4796 97.5758,66.4796 92.5,68.5C 92.631,67.7611 92.4643,67.0944 92,66.5C 77.6315,52.2985 63.4648,37.9652 49.5,23.5C 53.1477,20.3401 57.1477,17.6735 61.5,15.5 Z"/></g>
<g><path style="opacity:0.811" fill="#bacf02" d="M 439.5,16.5 C 455.833,25.5 468.5,38.1667 477.5,54.5C 464.5,42.1667 451.833,29.5 439.5,16.5 Z"/></g>
<g><path style="opacity:0.982" fill="#9dc532" d="M 307.5,22.5 C 320.833,35.5 334.167,48.5 347.5,61.5C 345.795,63.1921 343.795,64.5254 341.5,65.5C 328.167,52.8333 315.167,39.8333 302.5,26.5C 303.579,24.457 305.246,23.1237 307.5,22.5 Z"/></g>
<g><path style="opacity:0.982" fill="#5ab45a" d="M 49.5,23.5 C 63.4648,37.9652 77.6315,52.2985 92,66.5C 92.4643,67.0944 92.631,67.7611 92.5,68.5C 89.6803,70.7451 86.6803,72.7451 83.5,74.5C 68.8333,60.1667 54.1667,45.8333 39.5,31.5C 42.5203,28.4838 45.8536,25.8171 49.5,23.5 Z"/></g>
<g><path style="opacity:0.978" fill="#99c335" d="M 302.5,26.5 C 315.167,39.8333 328.167,52.8333 341.5,65.5C 336.078,70.5846 331.411,76.2512 327.5,82.5C 313.833,69.1667 300.167,55.8333 286.5,42.5C 290.833,36.1667 296.167,30.8333 302.5,26.5 Z"/></g>
<g><path style="opacity:0.984" fill="#54b25d" d="M 39.5,31.5 C 54.1667,45.8333 68.8333,60.1667 83.5,74.5C 81.1667,77.1667 78.8333,79.8333 76.5,82.5C 73.3775,79.5542 70.0442,76.7209 66.5,74C 54.6046,62.6068 43.2713,50.7735 32.5,38.5C 34.5,35.8333 36.8333,33.5 39.5,31.5 Z"/></g>
<g><path style="opacity:0.982" fill="#4db15e" d="M 32.5,38.5 C 43.2713,50.7735 54.6046,62.6068 66.5,74C 70.0442,76.7209 73.3775,79.5542 76.5,82.5C 73.0811,86.3314 70.4144,90.6647 68.5,95.5C 53.1667,80.5 37.8333,65.5 22.5,50.5C 25.4864,46.183 28.8197,42.183 32.5,38.5 Z"/></g>
<g><path style="opacity:0.982" fill="#96c239" d="M 286.5,42.5 C 300.167,55.8333 313.833,69.1667 327.5,82.5C 326.833,83.8333 326.167,85.1667 325.5,86.5C 311.5,72.8333 297.5,59.1667 283.5,45.5C 284.167,44.1667 285.167,43.1667 286.5,42.5 Z"/></g>
<g><path style="opacity:0.981" fill="#94c23a" d="M 283.5,45.5 C 297.5,59.1667 311.5,72.8333 325.5,86.5C 324.736,89.0177 323.736,91.351 322.5,93.5C 308.167,79.5 293.833,65.5 279.5,51.5C 280.475,49.2048 281.808,47.2048 283.5,45.5 Z"/></g>
<g><path style="opacity:0.984" fill="#47b060" d="M 22.5,50.5 C 37.8333,65.5 53.1667,80.5 68.5,95.5C 66.7745,99.0087 65.4411,102.675 64.5,106.5C 63.7611,106.631 63.0944,106.464 62.5,106C 47.2985,90.6315 31.9652,75.4648 16.5,60.5C 18.1023,56.9046 20.1023,53.5712 22.5,50.5 Z"/></g>
<g><path style="opacity:0.989" fill="#91c13d" d="M 279.5,51.5 C 293.833,65.5 308.167,79.5 322.5,93.5C 322.5,94.1667 322.833,94.5 323.5,94.5C 339.5,110.833 355.5,127.167 371.5,143.5C 367.833,143.5 364.167,143.5 360.5,143.5C 332.167,114.833 303.833,86.1667 275.5,57.5C 276.351,55.1184 277.684,53.1184 279.5,51.5 Z"/></g>
<g><path style="opacity:0.99" fill="#8fc03e" d="M 275.5,57.5 C 303.833,86.1667 332.167,114.833 360.5,143.5C 358.833,143.5 357.167,143.5 355.5,143.5C 328.5,115.833 301.167,88.5 273.5,61.5C 273.66,59.847 274.326,58.5137 275.5,57.5 Z"/></g>
<g><path style="opacity:0.98" fill="#42af61" d="M 16.5,60.5 C 31.9652,75.4648 47.2985,90.6315 62.5,106C 63.0944,106.464 63.7611,106.631 64.5,106.5C 63.7063,109.802 63.0396,113.135 62.5,116.5C 61.7611,116.631 61.0944,116.464 60.5,116C 44.6319,99.9649 28.6319,84.1315 12.5,68.5C 13.3257,65.5152 14.659,62.8485 16.5,60.5 Z"/></g>
<g><path style="opacity:0.988" fill="#8cbf41" d="M 273.5,61.5 C 301.167,88.5 328.5,115.833 355.5,143.5C 347.167,143.5 338.833,143.5 330.5,143.5C 309.551,120.884 287.884,98.8836 265.5,77.5C 267.229,71.6139 269.895,66.2806 273.5,61.5 Z"/></g>
<g><path style="opacity:0.976" fill="#40ad62" d="M 12.5,68.5 C 28.6319,84.1315 44.6319,99.9649 60.5,116C 61.0944,116.464 61.7611,116.631 62.5,116.5C 62.5,121.833 62.5,127.167 62.5,132.5C 44.1667,114.5 25.8333,96.5 7.5,78.5C 8.79677,74.9174 10.4634,71.5841 12.5,68.5 Z"/></g>
<g><path style="opacity:0.987" fill="#88be44" d="M 265.5,77.5 C 287.884,98.8836 309.551,120.884 330.5,143.5C 328.167,143.5 325.833,143.5 323.5,143.5C 303.833,123.167 283.833,103.167 263.5,83.5C 263.971,81.4214 264.637,79.4214 265.5,77.5 Z"/></g>
<g><path style="opacity:0.975" fill="#3eac62" d="M 7.5,78.5 C 25.8333,96.5 44.1667,114.5 62.5,132.5C 63.1667,135.833 63.8333,139.167 64.5,142.5C 45.3681,123.868 26.3681,105.035 7.5,86C 6.90558,85.5357 6.23891,85.369 5.5,85.5C 6.16667,83.1667 6.83333,80.8333 7.5,78.5 Z"/></g>
<g><path style="opacity:0.981" fill="#85bd45" d="M 263.5,83.5 C 283.833,103.167 303.833,123.167 323.5,143.5C 322.761,143.369 322.094,143.536 321.5,144C 323.737,150.213 326.07,156.379 328.5,162.5C 305.833,140.167 283.167,117.833 260.5,95.5C 260.878,91.3219 261.878,87.3219 263.5,83.5 Z"/></g>
<g><path style="opacity:0.978" fill="#a9c921" d="M 425.5,83.5 C 445.833,103.167 465.833,123.167 485.5,143.5C 482.5,143.5 479.5,143.5 476.5,143.5C 460.5,127.167 444.5,110.833 428.5,94.5C 427.699,90.7653 426.699,87.0986 425.5,83.5 Z"/></g>
<g><path style="opacity:0.983" fill="#3ca962" d="M 5.5,85.5 C 6.23891,85.369 6.90558,85.5357 7.5,86C 26.3681,105.035 45.3681,123.868 64.5,142.5C 70.8372,165.504 85.5039,180.171 108.5,186.5C 123.798,202.299 139.298,217.965 155,233.5C 155.464,234.094 155.631,234.761 155.5,235.5C 150.618,238.464 145.285,240.464 139.5,241.5C 93.8333,195.167 47.8333,149.167 1.5,103.5C 1.94441,97.2751 3.27774,91.2751 5.5,85.5 Z"/></g>
<g><path style="opacity:0.974" fill="#94c23a" d="M 323.5,94.5 C 327.167,94.5 330.833,94.5 334.5,94.5C 334.369,95.2389 334.536,95.9056 335,96.5C 350.75,112.083 366.25,127.749 381.5,143.5C 378.167,143.5 374.833,143.5 371.5,143.5C 355.5,127.167 339.5,110.833 323.5,94.5 Z"/></g>
<g><path style="opacity:0.975" fill="#96c239" d="M 334.5,94.5 C 336.5,94.5 338.5,94.5 340.5,94.5C 340.369,95.2389 340.536,95.9056 341,96.5C 356.702,112.035 372.202,127.701 387.5,143.5C 385.5,143.5 383.5,143.5 381.5,143.5C 366.25,127.749 350.75,112.083 335,96.5C 334.536,95.9056 334.369,95.2389 334.5,94.5 Z"/></g>
<g><path style="opacity:0.976" fill="#99c335" d="M 340.5,94.5 C 350.5,94.5 360.5,94.5 370.5,94.5C 386.5,110.833 402.5,127.167 418.5,143.5C 408.167,143.5 397.833,143.5 387.5,143.5C 372.202,127.701 356.702,112.035 341,96.5C 340.536,95.9056 340.369,95.2389 340.5,94.5 Z"/></g>
<g><path style="opacity:0.975" fill="#9dc532" d="M 370.5,94.5 C 373.833,94.5 377.167,94.5 380.5,94.5C 396.5,110.833 412.5,127.167 428.5,143.5C 425.167,143.5 421.833,143.5 418.5,143.5C 402.5,127.167 386.5,110.833 370.5,94.5 Z"/></g>
<g><path style="opacity:0.976" fill="#a0c52f" d="M 380.5,94.5 C 386.167,94.5 391.833,94.5 397.5,94.5C 412.798,110.299 428.298,125.965 444,141.5C 444.464,142.094 444.631,142.761 444.5,143.5C 439.167,143.5 433.833,143.5 428.5,143.5C 412.5,127.167 396.5,110.833 380.5,94.5 Z"/></g>
<g><path style="opacity:0.974" fill="#a3c72c" d="M 397.5,94.5 C 400.833,94.5 404.167,94.5 407.5,94.5C 423.5,110.833 439.5,127.167 455.5,143.5C 451.833,143.5 448.167,143.5 444.5,143.5C 444.631,142.761 444.464,142.094 444,141.5C 428.298,125.965 412.798,110.299 397.5,94.5 Z"/></g>
<g><path style="opacity:0.972" fill="#a4c72a" d="M 407.5,94.5 C 409.5,94.5 411.5,94.5 413.5,94.5C 413.369,95.2389 413.536,95.9056 414,96.5C 429.702,112.035 445.202,127.701 460.5,143.5C 458.833,143.5 457.167,143.5 455.5,143.5C 439.5,127.167 423.5,110.833 407.5,94.5 Z"/></g>
<g><path style="opacity:0.978" fill="#a6c827" d="M 413.5,94.5 C 416.167,94.5 418.833,94.5 421.5,94.5C 436.798,110.299 452.298,125.965 468,141.5C 468.464,142.094 468.631,142.761 468.5,143.5C 465.833,143.5 463.167,143.5 460.5,143.5C 445.202,127.701 429.702,112.035 414,96.5C 413.536,95.9056 413.369,95.2389 413.5,94.5 Z"/></g>
<g><path style="opacity:0.974" fill="#a7c824" d="M 421.5,94.5 C 423.833,94.5 426.167,94.5 428.5,94.5C 444.5,110.833 460.5,127.167 476.5,143.5C 473.833,143.5 471.167,143.5 468.5,143.5C 468.631,142.761 468.464,142.094 468,141.5C 452.298,125.965 436.798,110.299 421.5,94.5 Z"/></g>
<g><path style="opacity:0.988" fill="#80bc48" d="M 260.5,95.5 C 283.167,117.833 305.833,140.167 328.5,162.5C 334.833,172.167 342.833,180.167 352.5,186.5C 372.167,206.5 391.833,226.5 411.5,246.5C 403.909,247.96 396.242,248.96 388.5,249.5C 345.167,205.5 301.5,161.833 257.5,118.5C 257.131,110.521 258.131,102.854 260.5,95.5 Z"/></g>
<g><path style="opacity:0.993" fill="#3aa663" d="M 1.5,103.5 C 47.8333,149.167 93.8333,195.167 139.5,241.5C 131.826,244.008 123.826,245.008 115.5,244.5C 77.1667,205.5 38.5,166.833 -0.5,128.5C -0.5,122.5 -0.5,116.5 -0.5,110.5C 0.166667,108.167 0.833333,105.833 1.5,103.5 Z"/></g>
<g><path style="opacity:0.978" fill="#67b655" d="M 180.5,114.5 C 201.833,135.5 223.167,156.5 244.5,177.5C 244.5,184.167 244.5,190.833 244.5,197.5C 243.761,197.631 243.094,197.464 242.5,197C 221.965,176.298 201.299,155.798 180.5,135.5C 180.5,128.5 180.5,121.5 180.5,114.5 Z"/></g>
<g><path style="opacity:0.988" fill="#7dbb4b" d="M 257.5,118.5 C 301.5,161.833 345.167,205.5 388.5,249.5C 386.5,249.5 384.5,249.5 382.5,249.5C 341.751,207.25 300.418,165.417 258.5,124C 257.906,123.536 257.239,123.369 256.5,123.5C 256.216,121.585 256.549,119.919 257.5,118.5 Z"/></g>
<g><path style="opacity:0.988" fill="#79ba4c" d="M 256.5,123.5 C 257.239,123.369 257.906,123.536 258.5,124C 300.418,165.417 341.751,207.25 382.5,249.5C 374.714,249.645 367.047,248.978 359.5,247.5C 326.167,213.5 292.5,179.833 258.5,146.5C 257.668,138.853 257.002,131.186 256.5,123.5 Z"/></g>
<g><path style="opacity:0.991" fill="#37a363" d="M -0.5,128.5 C 38.5,166.833 77.1667,205.5 115.5,244.5C 109.773,244.74 104.106,244.407 98.5,243.5C 66.5,210.833 34.1667,178.5 1.5,146.5C 0.833333,144.167 0.166667,141.833 -0.5,139.5C -0.5,135.833 -0.5,132.167 -0.5,128.5 Z"/></g>
<g><path style="opacity:0.979" fill="#63b556" d="M 179.5,136.5 C 179.5,135.833 179.833,135.5 180.5,135.5C 201.299,155.798 221.965,176.298 242.5,197C 243.094,197.464 243.761,197.631 244.5,197.5C 244.5,198.167 244.5,198.833 244.5,199.5C 243.761,199.631 243.094,199.464 242.5,199C 221.632,177.965 200.632,157.132 179.5,136.5 Z"/></g>
<g><path style="opacity:0.982" fill="#60b458" d="M 179.5,136.5 C 200.632,157.132 221.632,177.965 242.5,199C 243.094,199.464 243.761,199.631 244.5,199.5C 244.407,205.516 244.074,211.516 243.5,217.5C 221.368,195.868 199.368,174.035 177.5,152C 176.906,151.536 176.239,151.369 175.5,151.5C 177.61,146.727 178.944,141.727 179.5,136.5 Z"/></g>
<g><path style="opacity:0.985" fill="#36a363" d="M 1.5,146.5 C 34.1667,178.5 66.5,210.833 98.5,243.5C 97.1667,243.5 95.8333,243.5 94.5,243.5C 64.7519,212.251 34.4186,181.417 3.5,151C 2.90558,150.536 2.23891,150.369 1.5,150.5C 1.5,149.167 1.5,147.833 1.5,146.5 Z"/></g>
<g><path style="opacity:0.976" fill="#73b94f" d="M 258.5,146.5 C 292.5,179.833 326.167,213.5 359.5,247.5C 345.01,245.783 331.676,241.116 319.5,233.5C 304.167,217.5 288.5,201.833 272.5,186.5C 265.273,174.156 260.606,160.823 258.5,146.5 Z"/></g>
<g><path style="opacity:0.982" fill="#34a063" d="M 1.5,150.5 C 2.23891,150.369 2.90558,150.536 3.5,151C 34.4186,181.417 64.7519,212.251 94.5,243.5C 87.8565,242.246 81.5232,240.246 75.5,237.5C 52.8333,214.167 29.8333,191.167 6.5,168.5C 4.5257,162.605 2.85904,156.605 1.5,150.5 Z"/></g>
<g><path style="opacity:0.986" fill="#5ab45a" d="M 175.5,151.5 C 176.239,151.369 176.906,151.536 177.5,152C 199.368,174.035 221.368,195.868 243.5,217.5C 243.249,222.507 242.916,227.507 242.5,232.5C 241.761,232.631 241.094,232.464 240.5,232C 217.299,208.632 193.965,185.465 170.5,162.5C 172.426,158.978 174.093,155.312 175.5,151.5 Z"/></g>
<g><path style="opacity:0.989" fill="#54b25d" d="M 170.5,162.5 C 193.965,185.465 217.299,208.632 240.5,232C 241.094,232.464 241.761,232.631 242.5,232.5C 241.555,237.114 240.888,241.781 240.5,246.5C 214.78,221.112 189.113,195.779 163.5,170.5C 165.843,167.793 168.177,165.126 170.5,162.5 Z"/></g>
<g><path style="opacity:0.98" fill="#99c335" d="M 442.5,166.5 C 454.833,179.5 467.5,192.167 480.5,204.5C 476.587,211.082 471.587,216.749 465.5,221.5C 451.833,207.167 437.833,193.167 423.5,179.5C 426.137,175.752 429.137,172.252 432.5,169C 435.608,167.241 438.941,166.408 442.5,166.5 Z"/></g>
<g><path style="opacity:0.975" fill="#9dc532" d="M 442.5,166.5 C 445.833,166.5 449.167,166.5 452.5,166.5C 462.833,177.5 473.5,188.167 484.5,198.5C 483.525,200.795 482.192,202.795 480.5,204.5C 467.5,192.167 454.833,179.5 442.5,166.5 Z"/></g>
<g><path style="opacity:0.973" fill="#9fc52f" d="M 452.5,166.5 C 458.167,166.5 463.833,166.5 469.5,166.5C 476.167,173.5 482.833,180.5 489.5,187.5C 488.105,191.29 486.438,194.957 484.5,198.5C 473.5,188.167 462.833,177.5 452.5,166.5 Z"/></g>
<g><path style="opacity:0.957" fill="#a3c72c" d="M 469.5,166.5 C 475.176,166.334 480.843,166.501 486.5,167C 490.836,168.17 493.169,171.004 493.5,175.5C 493.071,179.915 491.738,183.915 489.5,187.5C 482.833,180.5 476.167,173.5 469.5,166.5 Z"/></g>
<g><path style="opacity:0.945" fill="#339f63" d="M 6.5,168.5 C 29.8333,191.167 52.8333,214.167 75.5,237.5C 41.5351,225.535 18.5351,202.535 6.5,168.5 Z"/></g>
<g><path style="opacity:0.989" fill="#4eb15f" d="M 163.5,170.5 C 189.113,195.779 214.78,221.112 240.5,246.5C 239.283,252.381 237.616,258.048 235.5,263.5C 207.833,235.5 180.167,207.5 152.5,179.5C 156.311,176.75 159.978,173.75 163.5,170.5 Z"/></g>
<g><path style="opacity:0.986" fill="#47b060" d="M 152.5,179.5 C 180.167,207.5 207.833,235.5 235.5,263.5C 235.106,267.347 234.106,271.014 232.5,274.5C 231.761,274.631 231.094,274.464 230.5,274C 213.632,256.965 196.632,240.132 179.5,223.5C 179.657,222.127 179.49,220.793 179,219.5C 178.617,220.056 178.117,220.389 177.5,220.5C 165.167,208.833 153.167,196.833 141.5,184.5C 145.28,183.021 148.947,181.354 152.5,179.5 Z"/></g>
<g><path style="opacity:0.989" fill="#96c239" d="M 423.5,179.5 C 437.833,193.167 451.833,207.167 465.5,221.5C 464.71,222.401 463.71,223.068 462.5,223.5C 448.141,210.142 434.475,196.142 421.5,181.5C 421.833,180.5 422.5,179.833 423.5,179.5 Z"/></g>
<g><path style="opacity:0.981" fill="#94c23a" d="M 421.5,181.5 C 434.475,196.142 448.141,210.142 462.5,223.5C 460.909,225.633 458.909,227.299 456.5,228.5C 442.833,214.167 428.833,200.167 414.5,186.5C 416.619,184.6 418.953,182.934 421.5,181.5 Z"/></g>
<g><path style="opacity:0.977" fill="#42af61" d="M 141.5,184.5 C 153.167,196.833 165.167,208.833 177.5,220.5C 175.192,222.471 172.858,224.471 170.5,226.5C 158.202,213.702 145.702,201.035 133,188.5C 132.536,187.906 132.369,187.239 132.5,186.5C 135.539,185.99 138.539,185.323 141.5,184.5 Z"/></g>
<g><path style="opacity:0.977" fill="#3eac62" d="M 108.5,186.5 C 111.482,186.963 114.482,187.296 117.5,187.5C 132.167,202.5 146.833,217.5 161.5,232.5C 159.784,234.025 157.784,235.025 155.5,235.5C 155.631,234.761 155.464,234.094 155,233.5C 139.298,217.965 123.798,202.299 108.5,186.5 Z"/></g>
<g><path style="opacity:0.975" fill="#40ad62" d="M 132.5,186.5 C 132.369,187.239 132.536,187.906 133,188.5C 145.702,201.035 158.202,213.702 170.5,226.5C 167.672,228.748 164.672,230.748 161.5,232.5C 146.833,217.5 132.167,202.5 117.5,187.5C 122.562,187.726 127.562,187.392 132.5,186.5 Z"/></g>
<g><path style="opacity:0.857" fill="#6fb852" d="M 272.5,186.5 C 288.5,201.833 304.167,217.5 319.5,233.5C 298.833,222.833 283.167,207.167 272.5,186.5 Z"/></g>
<g><path style="opacity:0.976" fill="#85bd45" d="M 352.5,186.5 C 359.262,189.309 366.262,191.309 373.5,192.5C 390.167,209.5 406.833,226.5 423.5,243.5C 419.652,245.004 415.652,246.004 411.5,246.5C 391.833,226.5 372.167,206.5 352.5,186.5 Z"/></g>
<g><path style="opacity:0.981" fill="#91c13d" d="M 414.5,186.5 C 428.833,200.167 442.833,214.167 456.5,228.5C 454.302,230.098 451.969,231.431 449.5,232.5C 436.202,218.701 422.702,205.035 409,191.5C 408.536,190.906 408.369,190.239 408.5,189.5C 410.181,187.992 412.181,186.992 414.5,186.5 Z"/></g>
<g><path style="opacity:0.977" fill="#8fc03e" d="M 408.5,189.5 C 408.369,190.239 408.536,190.906 409,191.5C 422.702,205.035 436.202,218.701 449.5,232.5C 448.71,233.401 447.71,234.068 446.5,234.5C 432.167,219.833 417.833,205.167 403.5,190.5C 405.117,189.962 406.784,189.629 408.5,189.5 Z"/></g>
<g><path style="opacity:0.98" fill="#8cbf41" d="M 403.5,190.5 C 417.833,205.167 432.167,219.833 446.5,234.5C 441.169,237.666 435.503,239.999 429.5,241.5C 413.833,225.5 398.167,209.5 382.5,193.5C 389.645,193.233 396.645,192.233 403.5,190.5 Z"/></g>
<g><path style="opacity:0.978" fill="#88be44" d="M 373.5,192.5 C 376.482,192.963 379.482,193.296 382.5,193.5C 398.167,209.5 413.833,225.5 429.5,241.5C 427.786,242.738 425.786,243.405 423.5,243.5C 406.833,226.5 390.167,209.5 373.5,192.5 Z"/></g>
<g><path style="opacity:0.982" fill="#42af61" d="M 179.5,223.5 C 196.632,240.132 213.632,256.965 230.5,274C 231.094,274.464 231.761,274.631 232.5,274.5C 231.406,277.682 230.072,280.682 228.5,283.5C 211.833,267.167 195.167,250.833 178.5,234.5C 178.942,230.846 179.276,227.179 179.5,223.5 Z"/></g>
<g><path style="opacity:0.979" fill="#40ad62" d="M 178.5,234.5 C 195.167,250.833 211.833,267.167 228.5,283.5C 227.341,287.151 225.674,290.485 223.5,293.5C 207.5,277.833 191.5,262.167 175.5,246.5C 176.5,242.5 177.5,238.5 178.5,234.5 Z"/></g>
<g><path style="opacity:0.979" fill="#3eac62" d="M 175.5,246.5 C 191.5,262.167 207.5,277.833 223.5,293.5C 222.737,295.368 221.737,297.035 220.5,298.5C 204.833,283.167 189.167,267.833 173.5,252.5C 173.971,250.421 174.637,248.421 175.5,246.5 Z"/></g>
<g><path style="opacity:0.985" fill="#3ca962" d="M 173.5,252.5 C 189.167,267.833 204.833,283.167 220.5,298.5C 217.901,303.428 214.568,307.761 210.5,311.5C 195.167,296.833 180.167,281.833 165.5,266.5C 168.567,262.091 171.233,257.424 173.5,252.5 Z"/></g>
<g><path style="opacity:0.991" fill="#299664" d="M 34.5,262.5 C 62.1102,291.277 90.2769,319.611 119,347.5C 119.464,348.094 119.631,348.761 119.5,349.5C 112.167,349.5 104.833,349.5 97.5,349.5C 71.8838,322.217 45.5504,295.55 18.5,269.5C 21.5752,262.3 26.9086,259.967 34.5,262.5 Z"/></g>
<g><path style="opacity:0.976" fill="#2d9964" d="M 34.5,262.5 C 52.1823,274.337 71.5156,282.337 92.5,286.5C 92.369,287.239 92.5357,287.906 93,288.5C 112.035,307.368 130.868,326.368 149.5,345.5C 142.563,347.205 135.563,348.538 128.5,349.5C 125.5,349.5 122.5,349.5 119.5,349.5C 119.631,348.761 119.464,348.094 119,347.5C 90.2769,319.611 62.1102,291.277 34.5,262.5 Z"/></g>
<g><path style="opacity:0.984" fill="#39a663" d="M 165.5,266.5 C 180.167,281.833 195.167,296.833 210.5,311.5C 206.687,316.742 202.02,321.075 196.5,324.5C 180.833,309.5 165.5,294.167 150.5,278.5C 156.077,275.26 161.077,271.26 165.5,266.5 Z"/></g>
<g><path style="opacity:0.988" fill="#269464" d="M 18.5,269.5 C 45.5504,295.55 71.8838,322.217 97.5,349.5C 97.1667,349.5 96.8333,349.5 96.5,349.5C 94.7354,348.539 92.7354,348.205 90.5,348.5C 65.9634,323.628 41.2967,298.628 16.5,273.5C 16.6596,271.847 17.3263,270.514 18.5,269.5 Z"/></g>
<g><path style="opacity:0.981" fill="#239364" d="M 16.5,273.5 C 41.2967,298.628 65.9634,323.628 90.5,348.5C 77.2246,346.645 64.2246,343.645 51.5,339.5C 37.1915,323.524 22.1915,308.191 6.5,293.5C 9.3255,286.516 12.6588,279.849 16.5,273.5 Z"/></g>
<g><path style="opacity:0.982" fill="#37a363" d="M 150.5,278.5 C 165.5,294.167 180.833,309.5 196.5,324.5C 193.725,327.605 190.392,329.938 186.5,331.5C 170.833,315.5 155.167,299.5 139.5,283.5C 143.286,282.107 146.952,280.441 150.5,278.5 Z"/></g>
<g><path style="opacity:0.981" fill="#36a363" d="M 139.5,283.5 C 155.167,299.5 170.833,315.5 186.5,331.5C 186.158,332.338 185.492,332.672 184.5,332.5C 168.833,316.5 153.167,300.5 137.5,284.5C 137.842,283.662 138.508,283.328 139.5,283.5 Z"/></g>
<g><path style="opacity:0.981" fill="#34a063" d="M 137.5,284.5 C 153.167,300.5 168.833,316.5 184.5,332.5C 181.992,334.924 178.992,336.59 175.5,337.5C 159.535,321.035 143.368,304.701 127,288.5C 126.536,287.906 126.369,287.239 126.5,286.5C 130.136,285.674 133.803,285.008 137.5,284.5 Z"/></g>
<g><path style="opacity:0.978" fill="#309d63" d="M 92.5,286.5 C 98.4638,287.307 104.464,287.64 110.5,287.5C 110.369,288.239 110.536,288.906 111,289.5C 128.702,307.035 146.202,324.701 163.5,342.5C 158.905,343.815 154.239,344.815 149.5,345.5C 130.868,326.368 112.035,307.368 93,288.5C 92.5357,287.906 92.369,287.239 92.5,286.5 Z"/></g>
<g><path style="opacity:0.98" fill="#339f63" d="M 126.5,286.5 C 126.369,287.239 126.536,287.906 127,288.5C 143.368,304.701 159.535,321.035 175.5,337.5C 171.5,339.167 167.5,340.833 163.5,342.5C 146.202,324.701 128.702,307.035 111,289.5C 110.536,288.906 110.369,288.239 110.5,287.5C 115.87,287.608 121.203,287.275 126.5,286.5 Z"/></g>
<g><path style="opacity:0.962" fill="#1e9065" d="M 6.5,293.5 C 22.1915,308.191 37.1915,323.524 51.5,339.5C 42.0823,336.288 33.0823,332.288 24.5,327.5C 17.1667,319.5 9.5,311.833 1.5,304.5C 1.87168,300.163 3.53835,296.496 6.5,293.5 Z"/></g>
<g><path style="opacity:0.834" fill="#1c8f64" d="M 1.5,304.5 C 9.5,311.833 17.1667,319.5 24.5,327.5C 15.6926,324.354 8.1926,319.354 2,312.5C 0.787643,309.784 0.620977,307.117 1.5,304.5 Z"/></g>
</svg>
