<?xml version="1.0" encoding="UTF-8"?>
<svg version="1.1" xmlns="http://www.w3.org/2000/svg" width="373" height="350">
<path d="M0 0 C3.79901961 3.17401961 3.79901961 3.17401961 5.25 4.625 C5.27578125 3.80515625 5.3015625 2.9853125 5.328125 2.140625 C5.38484375 1.06296875 5.4415625 -0.0146875 5.5 -1.125 C5.54640625 -2.19234375 5.5928125 -3.2596875 5.640625 -4.359375 C6.36328036 -7.93559254 7.44535741 -9.1186334 10.25 -11.375 C13.21263344 -12.85631672 16.23857928 -12.55827691 19.48828125 -12.578125 C20.56495308 -12.58667511 20.56495308 -12.58667511 21.66337585 -12.59539795 C23.18401617 -12.60484952 24.70467699 -12.61138256 26.2253418 -12.61523438 C28.54317389 -12.62491925 30.86011125 -12.6559308 33.17773438 -12.6875 C34.65624474 -12.69403237 36.13476145 -12.69928192 37.61328125 -12.703125 C38.30303543 -12.7154718 38.99278961 -12.7278186 39.70344543 -12.74053955 C44.05959553 -12.72054536 46.83587364 -12.12430898 50.25 -9.375 C52.42100788 -6.02022407 52.50122198 -3.24208277 52.50396729 0.70397949 C52.51242676 2.57467857 52.51242676 2.57467857 52.52105713 4.48316956 C52.51716827 5.86312924 52.51307192 7.24308836 52.50878906 8.62304688 C52.51149991 10.07885412 52.51506137 11.53465998 52.51940918 12.99046326 C52.52853722 16.94808874 52.5249838 20.90561005 52.51865101 24.86323738 C52.5135778 29.02190552 52.51828756 33.1805649 52.52142334 37.3392334 C52.52506561 44.34026683 52.52026382 51.34125813 52.51074219 58.34228516 C52.4999251 66.38768485 52.50333263 74.43298263 52.514395 82.47837973 C52.52354224 89.41290695 52.52471519 96.34740389 52.51951766 103.28193521 C52.51642965 107.41066554 52.51589839 111.53934845 52.52259064 115.66807556 C52.58249413 158.47268152 52.58249413 158.47268152 48.0625 176.375 C47.85036865 177.23714111 47.6382373 178.09928223 47.41967773 178.98754883 C43.09667975 195.64964902 35.33856056 210.31986913 23.25 222.625 C22.49976563 223.39972656 21.74953125 224.17445313 20.9765625 224.97265625 C3.12680171 242.2590525 -22.15702043 247.07380719 -46.1875 247 C-47.23822693 246.99868576 -47.23822693 246.99868576 -48.31018066 246.99734497 C-72.35282553 246.89861913 -93.85135675 241.01836098 -115.1875 230 C-116.06986328 229.54488037 -116.95222656 229.08976074 -117.86132812 228.62084961 C-123.0565487 225.83170346 -128.01750901 223.08998199 -130.75 217.625 C-130.65521659 209.19789331 -127.3760481 203.0711665 -123.4375 195.75 C-122.56448242 194.06003906 -122.56448242 194.06003906 -121.67382812 192.3359375 C-116.74208505 182.99746138 -116.74208505 182.99746138 -112.75 180.625 C-106.32366411 179.67468124 -102.57693661 182.01459497 -97.3125 185.25 C-76.55402446 197.39041337 -54.56746967 202.58271364 -30.75 197.625 C-23.38002041 195.42044279 -17.35085713 192.9231081 -11.75 187.625 C-11.09 187.625 -10.43 187.625 -9.75 187.625 C-9.47929688 187.05265625 -9.20859375 186.4803125 -8.9296875 185.890625 C-7.75 183.625 -7.75 183.625 -6.3828125 181.609375 C-2.88798004 176.4305041 -0.87396364 171.44724671 0.625 165.4375 C0.79241699 164.77266602 0.95983398 164.10783203 1.13232422 163.42285156 C2.13134877 159.09338672 2.39947322 155.05745584 2.25 150.625 C1.70214844 151.12128906 1.15429688 151.61757812 0.58984375 152.12890625 C-13.84672995 164.49975884 -31.50611568 170.06210453 -50.52832031 168.83203125 C-74.02208913 166.6427218 -96.4326305 157.08368122 -111.75 138.625 C-128.81546629 116.37787396 -134.4281588 90.71318171 -131.46582031 62.96289062 C-128.25751098 41.68311235 -117.6927355 23.78029219 -102.75 8.625 C-102.01910156 7.88121094 -101.28820312 7.13742188 -100.53515625 6.37109375 C-73.12502424 -19.71191828 -29.75630441 -23.5184389 0 0 Z M-75.44140625 47.65234375 C-80.892472 55.20732961 -84.04924914 64.34005117 -84.75 73.625 C-84.8015625 74.26179688 -84.853125 74.89859375 -84.90625 75.5546875 C-85.49064736 88.84972754 -80.93211095 100.13972863 -73.5 110.875 C-64.03253007 120.34246993 -53.21058914 125.05190896 -39.8671875 125.6484375 C-28.73455627 125.56473351 -16.95479259 120.98971169 -8.75 113.3125 C2.17321662 100.98250548 5.17752474 86.71927196 4.25 70.625 C2.39317789 57.76886726 -3.48982291 46.70115777 -13.75 38.625 C-34.3102793 25.69505377 -59.61127748 28.67812475 -75.44140625 47.65234375 Z " fill="#5106B0" transform="translate(131.75,15.375)"/>
<path d="M0 0 C3.50203724 2.84407873 6.78447218 5.83667231 10 9 C10.7734375 9.76054687 11.546875 10.52109375 12.34375 11.3046875 C29.34125286 29.0589285 37.07832581 54.24759342 37.5625 78.4375 C37.60286377 79.61747559 37.60286377 79.61747559 37.64404297 80.82128906 C37.6197218 84.41611517 37.20500064 86.68861648 35.21907043 89.7051239 C30.31515321 93.20112769 25.75111743 92.70317703 19.8659668 92.65942383 C18.63628677 92.66990753 17.40660675 92.68039124 16.1396637 92.69119263 C12.77597759 92.71502858 9.41363466 92.71687382 6.04996467 92.70889878 C2.53181562 92.7057712 -0.98613097 92.73081531 -4.50419617 92.75285339 C-11.16226797 92.79028994 -17.82013552 92.80244113 -24.47830218 92.8054778 C-32.05999251 92.81016908 -39.64147829 92.84309453 -47.22307837 92.87837565 C-62.81537083 92.95030297 -78.40754051 92.98682572 -94 93 C-93.20991315 95.09569444 -92.41585903 97.18989351 -91.62011719 99.28344727 C-91.17835144 100.44981216 -90.73658569 101.61617706 -90.28143311 102.81788635 C-86.17194355 113.02275991 -79.21660564 119.70523159 -69.34765625 124.2109375 C-56.24959468 129.63480441 -42.1143714 129.73723165 -28.6640625 125.265625 C-25.72285998 123.86833817 -23.51160919 122.05416834 -21 120 C-20.34 120 -19.68 120 -19 120 C-18.79375 119.46375 -18.5875 118.9275 -18.375 118.375 C-15.90411084 114.10710054 -12.71383238 110.57127746 -8 109 C-2.74880951 108.72310503 2.50195885 108.68660779 7.75976562 108.64990234 C9.49981045 108.63333358 11.23978695 108.60603111 12.97949219 108.56787109 C15.49449786 108.51303119 18.00791407 108.4912214 20.5234375 108.4765625 C21.68460587 108.44255844 21.68460587 108.44255844 22.86923218 108.40786743 C26.8879513 108.42354197 28.78915146 108.84027399 32.02783203 111.29370117 C34 114 34 114 34.03125 117.82421875 C33.16644667 122.13510171 31.51632166 125.92562644 29.5 129.8125 C29.14252686 130.50682129 28.78505371 131.20114258 28.41674805 131.91650391 C18.81727868 149.94757324 3.2839883 160.88395355 -15.72265625 167.24609375 C-43.20093148 175.13417907 -72.52602094 173.9435559 -97.82763672 160.09008789 C-102.94532179 157.16893137 -107.53565546 153.82780987 -112 150 C-112.96035156 149.23816406 -113.92070312 148.47632813 -114.91015625 147.69140625 C-131.71105188 133.65598176 -141.21374022 110.83945814 -143.71875 89.546875 C-145.84854545 62.68778799 -139.62904538 36.90717366 -122 16 C-121.35546875 15.19820312 -120.7109375 14.39640625 -120.046875 13.5703125 C-91.5257863 -20.33809296 -35.45781163 -26.86865229 0 0 Z M-85 38 C-89.31730003 43.51302283 -91.48053004 48.28141345 -94 55 C-67.93 55 -41.86 55 -15 55 C-18.72060273 43.8381918 -23.08657812 35.25663655 -33.6796875 29.55859375 C-38.36798087 27.32879568 -42.76805878 25.33395369 -48 25 C-48.71285156 24.94972656 -49.42570312 24.89945313 -50.16015625 24.84765625 C-63.27558996 24.32802734 -75.59113567 28.80022154 -85 38 Z " fill="#680FD7" transform="translate(336,16)"/>
<path d="M0 0 C0.87935211 0.00848969 1.75870422 0.01697937 2.66470337 0.02572632 C5.45743345 0.05915973 8.247214 0.13441554 11.0390625 0.2109375 C12.93876021 0.24105032 14.83850344 0.26842382 16.73828125 0.29296875 C21.38224244 0.35380667 26.01987519 0.47121375 30.6640625 0.5859375 C29.6740625 10.1559375 28.6840625 19.7259375 27.6640625 29.5859375 C42.1840625 29.5859375 56.7040625 29.5859375 71.6640625 29.5859375 C73.11061491 33.92559474 74.31495071 38.04939643 75.35546875 42.48046875 C75.66337695 43.77800298 75.97132066 45.07552879 76.27929688 46.37304688 C76.75654042 48.39842795 77.23257863 50.42408617 77.70776367 52.44995117 C78.17067609 54.41916213 78.63799965 56.38733452 79.10546875 58.35546875 C79.51841187 60.11274292 79.51841187 60.11274292 79.93969727 61.90551758 C80.39833137 64.48625516 80.39833137 64.48625516 81.6640625 65.5859375 C81.93444336 64.92174805 82.20482422 64.25755859 82.48339844 63.57324219 C83.76317084 60.48054827 85.0881611 57.40912267 86.4140625 54.3359375 C87.05021484 52.76972656 87.05021484 52.76972656 87.69921875 51.171875 C91.3364888 42.87275179 96.16420693 33.71255984 104.6640625 29.5859375 C112.26142853 27.74820994 120.17920122 28.45082933 127.9140625 28.8359375 C130.02719129 28.89622926 132.14048629 28.95096473 134.25390625 29 C139.39478024 29.13126293 144.52756212 29.33770514 149.6640625 29.5859375 C148.21749825 33.34910963 146.55159503 36.93748977 144.75 40.54345703 C144.16178467 41.72303986 143.57356934 42.90262268 142.9675293 44.11795044 C142.32480766 45.40160068 141.68198257 46.68519913 141.0390625 47.96875 C140.37073313 49.30608397 139.70252242 50.64347724 139.03442383 51.98092651 C137.63020697 54.7908342 136.22454825 57.6000146 134.81787109 60.40869141 C133.04466004 63.94949478 131.27499536 67.49205604 129.5063715 71.03515244 C123.07517841 83.91535788 116.63285131 96.78200808 109.86521912 109.48989868 C107.54427345 113.86200765 105.34317371 118.2654309 103.23046875 122.7421875 C102.72580078 123.804375 102.22113281 124.8665625 101.70117188 125.9609375 C100.70672368 128.06837738 99.72785384 130.18322971 98.76367188 132.3046875 C94.89428485 140.34906918 90.40255108 147.8022271 82.6640625 152.5859375 C76.88629181 154.18710053 70.89065746 153.63451378 64.9765625 153.2734375 C63.38884341 153.21814057 61.80093705 153.16797155 60.21289062 153.12304688 C56.35857687 153.0029952 52.51343406 152.81398462 48.6640625 152.5859375 C46.62736276 147.93779809 44.96522756 143.49032888 43.6640625 138.5859375 C42.64828125 139.24980469 41.6325 139.91367187 40.5859375 140.59765625 C25.16460108 150.54078051 10.18823035 157.72098843 -8.546875 153.9375 C-17.41580624 151.03087548 -24.99022269 144.93168526 -29.3359375 136.5859375 C-35.91985483 120.78984551 -33.61284448 94.41665843 -28.3359375 78.5859375 C-34.6059375 78.5859375 -40.8759375 78.5859375 -47.3359375 78.5859375 C-46.95203132 74.1377445 -46.56368355 69.69039719 -46.1640625 65.24365234 C-46.02962214 63.73281413 -45.8977477 62.22174519 -45.76855469 60.71044922 C-45.58172215 58.53025728 -45.38548438 56.35107915 -45.1875 54.171875 C-45.07229004 52.8626709 -44.95708008 51.5534668 -44.83837891 50.20458984 C-43.9179159 43.57528824 -41.93462214 39.40904117 -37.2109375 34.7109375 C-36.72391357 34.22133545 -36.23688965 33.7317334 -35.73510742 33.22729492 C-32.81221685 30.47309716 -30.72655976 28.86196056 -26.6484375 28.8984375 C-25.5553125 29.1253125 -24.4621875 29.3521875 -23.3359375 29.5859375 C-23.34496094 28.5959375 -23.35398438 27.6059375 -23.36328125 26.5859375 C-23.2006674 14.58442754 -23.2006674 14.58442754 -19.1484375 10.0234375 C-17.9024783 8.85060458 -16.62773623 7.70808162 -15.3359375 6.5859375 C-14.49554932 5.57072021 -13.65516113 4.55550293 -12.78930664 3.50952148 C-8.88775356 -0.38649806 -5.28534016 -0.1939314 0 0 Z M-3.3359375 8.5859375 C-3.6659375 11.8859375 -3.9959375 15.1859375 -4.3359375 18.5859375 C-4.44035156 19.60945313 -4.54476562 20.63296875 -4.65234375 21.6875 C-4.73355469 22.52023438 -4.81476563 23.35296875 -4.8984375 24.2109375 C-4.98222656 25.04882812 -5.06601563 25.88671875 -5.15234375 26.75 C-5.38572213 30.35495121 -5.3359375 33.97343993 -5.3359375 37.5859375 C-11.6059375 37.5859375 -17.8759375 37.5859375 -24.3359375 37.5859375 C-24.6659375 39.7515625 -24.9959375 41.9171875 -25.3359375 44.1484375 C-25.5215625 45.36660156 -25.7071875 46.58476562 -25.8984375 47.83984375 C-26.47127073 52.11613582 -26.47127073 52.11613582 -26.3359375 58.5859375 C-20.3959375 58.5859375 -14.4559375 58.5859375 -8.3359375 58.5859375 C-8.7690625 62.26169922 -8.7690625 62.26169922 -9.2109375 66.01171875 C-11.74731991 86.36961121 -11.74731991 86.36961121 -12.7734375 106.8359375 C-12.78310547 107.52212158 -12.79277344 108.20830566 -12.80273438 108.9152832 C-12.68666375 115.68407798 -10.71526341 123.2330905 -5.9375 128.234375 C2.34390243 135.22307071 11.16679161 135.63487514 21.56835938 134.83837891 C29.11289172 133.92958971 35.22243547 130.32978911 41.6640625 126.5859375 C40.74070379 123.76804991 39.8013571 120.9574045 38.8515625 118.1484375 C38.59052734 117.34599609 38.32949219 116.54355469 38.06054688 115.71679688 C37.79951172 114.95302734 37.53847656 114.18925781 37.26953125 113.40234375 C37.03387451 112.69537354 36.79821777 111.98840332 36.55541992 111.26000977 C35.7162377 109.2206847 35.7162377 109.2206847 32.6640625 108.5859375 C31.4471875 109.0809375 30.2303125 109.5759375 28.9765625 110.0859375 C24.40633352 111.92414768 21.44754059 111.7210001 16.6640625 110.5859375 C14.67576971 109.05224337 13.80586751 108.09186674 13.12501526 105.66273499 C12.60725631 99.98029747 12.8078979 94.62163082 13.44140625 88.95703125 C13.53160538 88.08192398 13.6218045 87.20681671 13.71473694 86.30519104 C14.00142992 83.54358426 14.30125712 80.78359368 14.6015625 78.0234375 C14.79970258 76.13746146 14.99697637 74.25139419 15.19335938 72.36523438 C15.67199168 67.77076815 16.16840735 63.17872491 16.6640625 58.5859375 C30.0290625 59.0809375 30.0290625 59.0809375 43.6640625 59.5859375 C51.14742455 84.21047815 58.56698249 108.84702035 65.6640625 133.5859375 C73.2540625 133.5859375 80.8440625 133.5859375 88.6640625 133.5859375 C96.39964248 119.03158702 103.83051137 104.34623467 111.1640625 89.5859375 C117.84813558 76.13285001 124.56834189 62.7125166 131.62304688 49.44921875 C135.12034587 43.78663453 135.12034587 43.78663453 136.6640625 37.5859375 C127.7540625 37.5859375 118.8440625 37.5859375 109.6640625 37.5859375 C107.24345053 42.68826806 104.82629364 47.7921474 102.4140625 52.8984375 C102.05391052 53.66026337 101.69375854 54.42208923 101.32269287 55.20700073 C97.46525522 63.37499131 93.63885033 71.55219999 90 79.8203125 C89.72265015 80.45023605 89.44530029 81.08015961 89.1595459 81.72917175 C87.86021169 84.68807694 86.57265216 87.65163754 85.29589844 90.62036133 C84.61575684 92.18306763 84.61575684 92.18306763 83.921875 93.77734375 C83.5314502 94.68685791 83.14102539 95.59637207 82.73876953 96.53344727 C81.6640625 98.5859375 81.6640625 98.5859375 79.6640625 99.5859375 C79.55449219 98.3477124 79.44492187 97.1094873 79.33203125 95.83374023 C78.67829861 89.98316114 77.34429637 84.34002581 75.9765625 78.62109375 C75.71399658 77.50657333 75.45143066 76.39205292 75.1809082 75.24375916 C74.62864979 72.90434368 74.07383908 70.5655294 73.51660156 68.22729492 C72.66125694 64.63666008 71.81437692 61.04410641 70.96875 57.45117188 C70.43017987 55.17436264 69.8911343 52.89766581 69.3515625 50.62109375 C69.09737549 49.54408707 68.84318848 48.46708038 68.58129883 47.35743713 C68.34435303 46.36557907 68.10740723 45.37372101 67.86328125 44.35180664 C67.65533936 43.47738419 67.44739746 42.60296173 67.2331543 41.70204163 C66.73060507 39.55270551 66.73060507 39.55270551 65.6640625 37.5859375 C50.1540625 37.5859375 34.6440625 37.5859375 18.6640625 37.5859375 C20.1640625 25.3359375 20.1640625 25.3359375 20.63867188 21.49121094 C20.76048828 20.48606445 20.88230469 19.48091797 21.0078125 18.4453125 C21.13349609 17.41889648 21.25917969 16.39248047 21.38867188 15.33496094 C21.73051497 12.38305488 21.73051497 12.38305488 21.6640625 8.5859375 C13.4140625 8.5859375 5.1640625 8.5859375 -3.3359375 8.5859375 Z " fill="#5407B5" transform="translate(217.3359375,195.4140625)"/>
</svg>
