<?xml version="1.0" encoding="UTF-8"?>
<!DOCTYPE svg PUBLIC "-//W3C//DTD SVG 1.1//EN" "http://www.w3.org/Graphics/SVG/1.1/DTD/svg11.dtd">
<svg xmlns="http://www.w3.org/2000/svg" version="1.1" width="1000px" height="232px" style="shape-rendering:geometricPrecision; text-rendering:geometricPrecision; image-rendering:optimizeQuality; fill-rule:evenodd; clip-rule:evenodd" xmlns:xlink="http://www.w3.org/1999/xlink">
<g><path style="opacity:0.977" fill="#009003" d="M 101.5,-0.5 C 110.833,-0.5 120.167,-0.5 129.5,-0.5C 130.209,0.403972 131.209,0.737305 132.5,0.5C 132.5,19.8333 132.5,39.1667 132.5,58.5C 118.5,58.5 104.5,58.5 90.5,58.5C 90.5,39.5 90.5,20.5 90.5,1.5C 94.3597,1.19162 98.0264,0.52495 101.5,-0.5 Z"/></g>
<g><path style="opacity:0.975" fill="#009309" d="M 132.5,0.5 C 148.118,2.7021 162.452,8.03543 175.5,16.5C 175.5,30.8333 175.5,45.1667 175.5,59.5C 161.172,58.9802 146.839,58.6469 132.5,58.5C 132.5,39.1667 132.5,19.8333 132.5,0.5 Z"/></g>
<g><path style="opacity:0.961" fill="#008f00" d="M 90.5,1.5 C 90.5,20.5 90.5,39.5 90.5,58.5C 70.0499,58.5988 49.7166,60.0988 29.5,63C 26.8194,65.194 25.3194,68.0273 25,71.5C 23,100.833 23,130.167 25,159.5C 25.3194,162.973 26.8194,165.806 29.5,168C 49.7166,170.901 70.0499,172.401 90.5,172.5C 90.5,191.5 90.5,210.5 90.5,229.5C 39.1424,215.149 8.80905,181.815 -0.5,129.5C -0.5,120.167 -0.5,110.833 -0.5,101.5C 8.80905,49.1847 39.1424,15.8514 90.5,1.5 Z"/></g>
<g><path style="opacity:0.983" fill="#00b346" d="M 592.5,172.5 C 592.5,118.833 592.5,65.1667 592.5,11.5C 601.142,11.0359 608.975,13.7026 616,19.5C 616.667,20.8333 617.333,22.1667 618,23.5C 618.667,69.1667 618.667,114.833 618,160.5C 617.208,162.587 616.041,164.421 614.5,166C 608.7,169.486 602.534,171.986 596,173.5C 594.615,173.486 593.449,173.152 592.5,172.5 Z"/></g>
<g><path style="opacity:0.917" fill="#00b343" d="M 592.5,11.5 C 592.5,65.1667 592.5,118.833 592.5,172.5C 590.589,172.426 589.422,171.426 589,169.5C 588.333,117.833 588.333,66.1667 589,14.5C 589.422,12.5743 590.589,11.5743 592.5,11.5 Z"/></g>
<g><path style="opacity:0.944" fill="#00bf5c" d="M 778.5,12.5 C 778.5,65.5 778.5,118.5 778.5,171.5C 773.156,171.666 767.823,171.499 762.5,171C 760.277,170.348 759.11,168.848 759,166.5C 758.333,116.833 758.333,67.1667 759,17.5C 759.11,15.1517 760.277,13.6517 762.5,13C 767.823,12.5006 773.156,12.334 778.5,12.5 Z"/></g>
<g><path style="opacity:0.965" fill="#00c05e" d="M 778.5,12.5 C 782.603,11.7691 786.103,12.7691 789,15.5C 789.333,33.1667 789.667,50.8333 790,68.5C 792.956,65.2776 796.456,62.9442 800.5,61.5C 800.5,71.1667 800.5,80.8333 800.5,90.5C 789.274,101.171 786.441,113.837 792,128.5C 794.284,132.614 797.117,136.28 800.5,139.5C 800.5,149.167 800.5,158.833 800.5,168.5C 795.698,166.873 791.532,164.206 788,160.5C 789.908,168.5 786.741,172.167 778.5,171.5C 778.5,118.5 778.5,65.5 778.5,12.5 Z"/></g>
<g><path style="opacity:0.949" fill="#00970f" d="M 175.5,16.5 C 196.367,28.8755 211.701,46.2088 221.5,68.5C 221.5,99.8333 221.5,131.167 221.5,162.5C 213.129,181.711 200.462,197.545 183.5,210C 180.941,211.777 178.274,213.277 175.5,214.5C 175.5,200.167 175.5,185.833 175.5,171.5C 182.43,170.52 189.43,169.687 196.5,169C 199.458,168.771 201.958,167.604 204,165.5C 205.036,162.247 205.703,158.914 206,155.5C 206.667,128.833 206.667,102.167 206,75.5C 205.703,72.086 205.036,68.7527 204,65.5C 201.958,63.396 199.458,62.2293 196.5,62C 189.43,61.3133 182.43,60.4799 175.5,59.5C 175.5,45.1667 175.5,30.8333 175.5,16.5 Z"/></g>
<g><path style="opacity:0.976" fill="#009e1c" d="M 317.5,58.5 C 317.5,67.5 317.5,76.5 317.5,85.5C 315.833,85.5 314.167,85.5 312.5,85.5C 312.333,101.17 312.5,116.837 313,132.5C 313.289,137.078 315.122,140.745 318.5,143.5C 317.506,153.319 317.173,163.319 317.5,173.5C 297.992,172.162 286.492,161.829 283,142.5C 282.5,123.503 282.333,104.503 282.5,85.5C 280.167,85.5 277.833,85.5 275.5,85.5C 275.5,76.5 275.5,67.5 275.5,58.5C 277.833,58.5 280.167,58.5 282.5,58.5C 282.334,48.1613 282.5,37.828 283,27.5C 283.5,27 284,26.5 284.5,26C 293.167,25.3333 301.833,25.3333 310.5,26C 311,26.5 311.5,27 312,27.5C 312.5,37.828 312.666,48.1613 312.5,58.5C 314.167,58.5 315.833,58.5 317.5,58.5 Z"/></g>
<g><path style="opacity:0.957" fill="#00ad3a" d="M 530.5,59.5 C 530.5,69.1667 530.5,78.8333 530.5,88.5C 521.293,84.1996 512.293,84.533 503.5,89.5C 503.5,78.8333 503.5,68.1667 503.5,57.5C 512.721,55.7538 521.721,56.4204 530.5,59.5 Z"/></g>
<g><path style="opacity:0.967" fill="#00b74d" d="M 689.5,56.5 C 689.5,66.5 689.5,76.5 689.5,86.5C 671.678,87.4895 662.345,96.9895 661.5,115C 662.345,133.01 671.678,142.51 689.5,143.5C 689.5,153.5 689.5,163.5 689.5,173.5C 664.724,172.961 647.057,161.628 636.5,139.5C 637.833,123.167 637.833,106.833 636.5,90.5C 647.097,68.3568 664.763,57.0235 689.5,56.5 Z"/></g>
<g><path style="opacity:0.954" fill="#00ba53" d="M 689.5,56.5 C 698.431,56.4836 706.764,58.4836 714.5,62.5C 714.5,76.1667 714.5,89.8333 714.5,103.5C 709.688,92.693 701.355,87.0264 689.5,86.5C 689.5,76.5 689.5,66.5 689.5,56.5 Z"/></g>
<g><path style="opacity:0.955" fill="#00c262" d="M 823.5,56.5 C 823.5,66.5 823.5,76.5 823.5,86.5C 818.489,86.3341 813.489,86.5007 808.5,87C 805.664,87.9211 802.998,89.0877 800.5,90.5C 800.5,80.8333 800.5,71.1667 800.5,61.5C 807.542,57.4929 815.208,55.8263 823.5,56.5 Z"/></g>
<g><path style="opacity:0.959" fill="#00c466" d="M 823.5,56.5 C 849.64,60.6678 865.807,75.6678 872,101.5C 876.569,126.802 869.069,147.635 849.5,164C 841.669,169.444 833.002,172.61 823.5,173.5C 823.5,163.5 823.5,153.5 823.5,143.5C 840.385,135.369 846.219,122.036 841,103.5C 837.23,95.5613 831.397,89.8946 823.5,86.5C 823.5,76.5 823.5,66.5 823.5,56.5 Z"/></g>
<g><path style="opacity:0.957" fill="#00cb73" d="M 964.5,61.5 C 964.828,73.3453 964.495,85.012 963.5,96.5C 954.917,86.5961 944.251,83.7628 931.5,88C 927.338,90.3455 923.671,93.1789 920.5,96.5C 919.505,85.012 919.172,73.3453 919.5,61.5C 926.466,58.004 933.966,56.3374 942,56.5C 950.034,56.3374 957.534,58.004 964.5,61.5 Z"/></g>
<g><path style="opacity:0.96" fill="#00ab35" d="M 503.5,57.5 C 503.5,68.1667 503.5,78.8333 503.5,89.5C 491.557,97.8166 487.39,109.15 491,123.5C 493.103,130.758 497.27,136.425 503.5,140.5C 503.5,150.5 503.5,160.5 503.5,170.5C 475.547,162.873 460.881,144.54 459.5,115.5C 461,86.0195 475.667,66.6862 503.5,57.5 Z"/></g>
<g><path style="opacity:0.967" fill="#009b18" d="M 275.5,58.5 C 275.5,67.5 275.5,76.5 275.5,85.5C 263.656,88.4863 258.656,83.9863 260.5,72C 258.705,60.206 263.705,55.706 275.5,58.5 Z"/></g>
<g><path style="opacity:0.948" fill="#00a021" d="M 317.5,58.5 C 324.508,58.3337 331.508,58.5004 338.5,59C 339.333,59.8333 340.167,60.6667 341,61.5C 341.667,68.5 341.667,75.5 341,82.5C 340.167,83.3333 339.333,84.1667 338.5,85C 331.508,85.4996 324.508,85.6663 317.5,85.5C 317.5,76.5 317.5,67.5 317.5,58.5 Z"/></g>
<g><path style="opacity:0.88" fill="#00a224" d="M 362.5,58.5 C 362.829,71.3443 362.495,84.011 361.5,96.5C 356.759,85.5137 352.426,74.347 348.5,63C 348.439,61.2894 349.106,59.956 350.5,59C 354.486,58.5012 358.486,58.3345 362.5,58.5 Z"/></g>
<g><path style="opacity:0.964" fill="#00a428" d="M 362.5,58.5 C 368.176,58.3339 373.843,58.5006 379.5,59C 380.333,59.8333 381.167,60.6667 382,61.5C 390.065,83.6949 397.732,106.028 405,128.5C 405.383,127.944 405.883,127.611 406.5,127.5C 406.5,142.167 406.5,156.833 406.5,171.5C 402.154,171.666 397.821,171.499 393.5,171C 392.333,169.833 391.167,168.667 390,167.5C 380.487,143.812 370.987,120.145 361.5,96.5C 362.495,84.011 362.829,71.3443 362.5,58.5 Z"/></g>
<g><path style="opacity:0.965" fill="#00a72e" d="M 445.5,58.5 C 445.5,73.8333 445.5,89.1667 445.5,104.5C 437.637,125.582 429.471,146.582 421,167.5C 419.833,168.667 418.667,169.833 417.5,171C 413.848,171.499 410.182,171.665 406.5,171.5C 406.5,156.833 406.5,142.167 406.5,127.5C 413.829,105.013 421.663,82.6801 430,60.5C 430.75,59.8742 431.584,59.3742 432.5,59C 436.821,58.501 441.154,58.3343 445.5,58.5 Z"/></g>
<g><path style="opacity:0.873" fill="#00a931" d="M 445.5,58.5 C 450.179,58.3342 454.845,58.5008 459.5,59C 461.368,59.899 462.368,61.399 462.5,63.5C 457.395,77.5041 451.728,91.1708 445.5,104.5C 445.5,89.1667 445.5,73.8333 445.5,58.5 Z"/></g>
<g><path style="opacity:0.968" fill="#00b040" d="M 548.5,210.5 C 548.5,160.167 548.5,109.833 548.5,59.5C 555.989,58.3443 563.655,58.1777 571.5,59C 572.333,59.8333 573.167,60.6667 574,61.5C 574.667,94.5 574.667,127.5 574,160.5C 573.288,177.989 567.121,193.155 555.5,206C 553.266,207.75 550.932,209.25 548.5,210.5 Z"/></g>
<g><path style="opacity:0.957" fill="#00af3d" d="M 530.5,59.5 C 536.003,61.8322 540.836,65.1656 545,69.5C 545.333,66.8333 545.667,64.1667 546,61.5C 546.708,60.6195 547.542,59.9528 548.5,59.5C 548.5,109.833 548.5,160.167 548.5,210.5C 543.211,214.379 537.211,216.713 530.5,217.5C 530.5,207.167 530.5,196.833 530.5,186.5C 539.505,179.819 543.672,170.819 543,159.5C 539.468,163.206 535.302,165.873 530.5,167.5C 530.5,158.5 530.5,149.5 530.5,140.5C 544.554,129.077 547.72,115.077 540,98.5C 537.304,94.6393 534.137,91.306 530.5,88.5C 530.5,78.8333 530.5,69.1667 530.5,59.5 Z"/></g>
<g><path style="opacity:0.965" fill="#00c86e" d="M 919.5,61.5 C 919.172,73.3453 919.505,85.012 920.5,96.5C 912.5,108.833 912.5,121.167 920.5,133.5C 919.505,145.322 919.172,157.322 919.5,169.5C 890.938,154.705 879.772,131.371 886,99.5C 891,81.337 902.167,68.6704 919.5,61.5 Z"/></g>
<g><path style="opacity:0.973" fill="#00cd77" d="M 964.5,61.5 C 972.528,64.184 979.194,68.8507 984.5,75.5C 984.5,101.833 984.5,128.167 984.5,154.5C 979.192,161.146 972.526,165.813 964.5,168.5C 964.828,156.655 964.495,144.988 963.5,133.5C 971.5,121.167 971.5,108.833 963.5,96.5C 964.495,85.012 964.828,73.3453 964.5,61.5 Z"/></g>
<g><path style="opacity:0.976" fill="#00bc56" d="M 714.5,62.5 C 722.614,65.9398 729.281,71.2731 734.5,78.5C 733.173,102.598 733.173,126.598 734.5,150.5C 730,158 723.666,163.333 715.5,166.5C 714.504,153.344 714.171,140.01 714.5,126.5C 715.228,122.69 715.895,118.857 716.5,115C 715.895,111.143 715.228,107.31 714.5,103.5C 714.5,89.8333 714.5,76.1667 714.5,62.5 Z"/></g>
<g><path style="opacity:0.988" fill="#009003" d="M 132.5,71.5 C 132.5,100.833 132.5,130.167 132.5,159.5C 130.438,160.776 128.104,161.61 125.5,162C 114.427,163.583 103.761,162.249 93.5,158C 92.4293,157.148 91.4293,156.315 90.5,155.5C 90.5,128.833 90.5,102.167 90.5,75.5C 94.9224,72.2957 99.9224,70.129 105.5,69C 112.167,68.3333 118.833,68.3333 125.5,69C 128.104,69.3903 130.438,70.2237 132.5,71.5 Z"/></g>
<g><path style="opacity:0.912" fill="#009913" d="M 221.5,68.5 C 231.742,91.5495 234.242,115.549 229,140.5C 227.364,148.245 224.864,155.578 221.5,162.5C 221.5,131.167 221.5,99.8333 221.5,68.5 Z"/></g>
<g><path style="opacity:0.965" fill="#009308" d="M 132.5,71.5 C 156.829,82.8238 166.329,101.824 161,128.5C 158.004,139.006 152.171,147.506 143.5,154C 140.09,156.372 136.423,158.205 132.5,159.5C 132.5,130.167 132.5,100.833 132.5,71.5 Z"/></g>
<g><path style="opacity:0.955" fill="#008f00" d="M 90.5,75.5 C 90.5,102.167 90.5,128.833 90.5,155.5C 80.5983,149.419 73.765,140.752 70,129.5C 65.4409,112.957 68.4409,97.9567 79,84.5C 82.1551,80.4975 85.9885,77.4975 90.5,75.5 Z"/></g>
<g><path style="opacity:0.944" fill="#00cf7a" d="M 984.5,75.5 C 992.41,83.6535 997.41,93.3202 999.5,104.5C 999.5,111.5 999.5,118.5 999.5,125.5C 997.41,136.68 992.41,146.346 984.5,154.5C 984.5,128.167 984.5,101.833 984.5,75.5 Z"/></g>
<g><path style="opacity:0.93" fill="#00bd58" d="M 734.5,78.5 C 747.129,96.2146 749.963,115.548 743,136.5C 741.129,141.845 738.296,146.511 734.5,150.5C 733.173,126.598 733.173,102.598 734.5,78.5 Z"/></g>
<g><path style="opacity:0.876" fill="#00b649" d="M 636.5,90.5 C 637.833,106.833 637.833,123.167 636.5,139.5C 632.569,131.921 630.902,123.754 631.5,115C 630.902,106.246 632.569,98.0791 636.5,90.5 Z"/></g>
<g><path style="opacity:0.956" fill="#00ba53" d="M 714.5,126.5 C 714.171,140.01 714.504,153.344 715.5,166.5C 707.613,171.307 698.947,173.64 689.5,173.5C 689.5,163.5 689.5,153.5 689.5,143.5C 701.404,142.907 709.737,137.241 714.5,126.5 Z"/></g>
<g><path style="opacity:0.957" fill="#00cb73" d="M 920.5,133.5 C 929.083,143.404 939.749,146.237 952.5,142C 956.662,139.654 960.329,136.821 963.5,133.5C 964.495,144.988 964.828,156.655 964.5,168.5C 957.534,171.996 950.034,173.663 942,173.5C 934.267,173.386 926.767,172.053 919.5,169.5C 919.172,157.322 919.505,145.322 920.5,133.5 Z"/></g>
<g><path style="opacity:0.956" fill="#00c262" d="M 800.5,139.5 C 807.685,143.121 815.352,144.454 823.5,143.5C 823.5,153.5 823.5,163.5 823.5,173.5C 815.243,173.984 807.576,172.317 800.5,168.5C 800.5,158.833 800.5,149.167 800.5,139.5 Z"/></g>
<g><path style="opacity:0.95" fill="#00ad3a" d="M 503.5,140.5 C 512.505,144.499 521.505,144.499 530.5,140.5C 530.5,149.5 530.5,158.5 530.5,167.5C 521.936,171.341 512.936,172.341 503.5,170.5C 503.5,160.5 503.5,150.5 503.5,140.5 Z"/></g>
<g><path style="opacity:0.939" fill="#00a021" d="M 317.5,173.5 C 317.173,163.319 317.506,153.319 318.5,143.5C 324.552,145.015 330.385,144.348 336,141.5C 337.226,141.645 338.393,141.978 339.5,142.5C 343.027,148.221 346.027,154.221 348.5,160.5C 346.075,165.054 342.408,168.221 337.5,170C 331.068,172.52 324.401,173.686 317.5,173.5 Z"/></g>
<g><path style="opacity:0.975" fill="#009309" d="M 175.5,171.5 C 175.5,185.833 175.5,200.167 175.5,214.5C 162.452,222.965 148.118,228.298 132.5,230.5C 132.5,211.167 132.5,191.833 132.5,172.5C 146.839,172.353 161.172,172.02 175.5,171.5 Z"/></g>
<g><path style="opacity:0.977" fill="#009003" d="M 90.5,172.5 C 104.5,172.5 118.5,172.5 132.5,172.5C 132.5,191.833 132.5,211.167 132.5,230.5C 131.209,230.263 130.209,230.596 129.5,231.5C 120.167,231.5 110.833,231.5 101.5,231.5C 98.0264,230.475 94.3597,229.808 90.5,229.5C 90.5,210.5 90.5,191.5 90.5,172.5 Z"/></g>
<g><path style="opacity:0.944" fill="#00ab35" d="M 503.5,189.5 C 503.5,199.5 503.5,209.5 503.5,219.5C 487.764,217.646 473.597,211.979 461,202.5C 460.833,201.5 460.667,200.5 460.5,199.5C 462.91,192.181 466.243,185.348 470.5,179C 471.766,178.691 472.933,178.191 474,177.5C 483.108,183.305 492.941,187.305 503.5,189.5 Z"/></g>
<g><path style="opacity:0.965" fill="#00ad3a" d="M 530.5,186.5 C 530.5,196.833 530.5,207.167 530.5,217.5C 529.048,218.302 527.382,218.802 525.5,219C 518.174,219.5 510.841,219.666 503.5,219.5C 503.5,209.5 503.5,199.5 503.5,189.5C 512.789,191.198 521.789,190.198 530.5,186.5 Z"/></g>
</svg>
