<?xml version="1.0" encoding="UTF-8"?>
<!DOCTYPE svg PUBLIC "-//W3C//DTD SVG 1.1//EN" "http://www.w3.org/Graphics/SVG/1.1/DTD/svg11.dtd">
<svg xmlns="http://www.w3.org/2000/svg" version="1.1" width="575px" height="350px" style="shape-rendering:geometricPrecision; text-rendering:geometricPrecision; image-rendering:optimizeQuality; fill-rule:evenodd; clip-rule:evenodd" xmlns:xlink="http://www.w3.org/1999/xlink">
<g><path style="opacity:0.97" fill="#ffd317" d="M 565.5,-0.5 C 567.5,-0.5 569.5,-0.5 571.5,-0.5C 572.512,0.871651 573.512,2.20498 574.5,3.5C 574.5,8.5 574.5,13.5 574.5,18.5C 572.447,24.4344 569.447,29.9344 565.5,35C 555.449,36.2307 545.449,37.8974 535.5,40C 518.443,45.9311 501.11,50.9311 483.5,55C 481.391,56.1411 479.558,57.6411 478,59.5C 442.882,127.398 411.882,197.064 385,268.5C 382.375,277.206 381.875,286.04 383.5,295C 383.646,297.034 382.98,298.701 381.5,300C 378.864,300.934 376.197,301.768 373.5,302.5C 361.9,297.805 354.9,289.305 352.5,277C 353.486,267.557 355.652,258.391 359,249.5C 364.828,239.849 370.161,229.849 375,219.5C 375.333,216.5 375.667,213.5 376,210.5C 384.948,199.103 390.781,186.27 393.5,172C 393.212,169.813 392.878,167.646 392.5,165.5C 396.828,165.678 399.662,163.678 401,159.5C 399.822,156.383 399.489,153.05 400,149.5C 404.333,143.167 408.667,136.833 413,130.5C 417.333,115.828 423.333,101.828 431,88.5C 433.213,83.6955 434.713,78.6955 435.5,73.5C 427.508,75.8305 419.508,78.1638 411.5,80.5C 395.294,110.413 378.96,140.247 362.5,170C 369.157,168.007 375.824,166.007 382.5,164C 383.316,165.923 383.983,167.923 384.5,170C 383.861,175.609 382.694,181.109 381,186.5C 380.215,188.286 379.049,189.786 377.5,191C 368.103,194.556 358.603,197.722 349,200.5C 339.294,220.449 331.461,241.116 325.5,262.5C 323.774,264.03 321.774,265.03 319.5,265.5C 307.644,264.303 300.644,257.97 298.5,246.5C 300.124,246.64 301.29,245.973 302,244.5C 303.845,237.455 305.845,230.455 308,223.5C 311.43,220.087 312.263,216.087 310.5,211.5C 296.38,217.726 282.38,224.226 268.5,231C 261.76,239.144 255.76,247.811 250.5,257C 246.472,260.096 242.139,260.763 237.5,259C 234.328,257.248 231.328,255.248 228.5,253C 226.556,250.847 226.056,248.347 227,245.5C 232.953,240.239 237.953,234.239 242,227.5C 243.885,225.086 244.552,222.419 244,219.5C 237.706,227.462 231.04,235.129 224,242.5C 214.051,254.473 201.385,261.473 186,263.5C 179.179,263.116 173.013,260.949 167.5,257C 162,252.833 157.167,248 153,242.5C 152.192,240.577 151.692,238.577 151.5,236.5C 153.628,227.45 155.961,218.45 158.5,209.5C 158.152,207.303 157.152,205.47 155.5,204C 152.5,203.333 149.5,203.333 146.5,204C 145.007,208.82 142.84,213.32 140,217.5C 121.419,237.741 104.752,259.408 90,282.5C 81.3456,301.431 74.6789,321.098 70,341.5C 68.7413,344.356 67.2413,347.023 65.5,349.5C 64.1667,349.5 62.8333,349.5 61.5,349.5C 57.1293,346.546 52.9626,343.213 49,339.5C 44.03,332.581 42.3634,324.914 44,316.5C 49.9062,306.359 55.5729,296.025 61,285.5C 61.2256,282.905 61.7256,280.405 62.5,278C 56.6425,280.587 50.6425,283.254 44.5,286C 31.2007,289.344 19.7007,286.178 10,276.5C 5.93586,270.362 2.43586,264.029 -0.5,257.5C -0.5,252.167 -0.5,246.833 -0.5,241.5C 3.59267,228.973 9.09267,216.973 16,205.5C 34.8878,177.27 56.7211,151.437 81.5,128C 89.3333,122.167 97.1667,116.333 105,110.5C 105.251,108.567 105.751,106.734 106.5,105C 115.353,97.0488 125.687,93.7154 137.5,95C 149.508,98.0031 160.841,102.67 171.5,109C 177.346,115.579 178.846,123.079 176,131.5C 169.506,142.982 161.673,153.482 152.5,163C 143.845,166.462 136.345,164.629 130,157.5C 129.07,154.15 129.903,151.317 132.5,149C 135.034,148.484 137.2,147.317 139,145.5C 142.596,139.982 144.763,133.982 145.5,127.5C 143.473,127.338 141.473,127.505 139.5,128C 111.167,148.991 84.0003,171.491 58,195.5C 44.2734,210.245 34.2734,227.245 28,246.5C 27.3973,251.555 26.5639,256.555 25.5,261.5C 27.7087,264.977 30.3754,265.144 33.5,262C 39.0021,258.415 44.6688,255.081 50.5,252C 60.1667,243.167 69.8333,234.333 79.5,225.5C 68.7402,224.477 62.0735,218.811 59.5,208.5C 59.4062,206.088 60.4062,204.255 62.5,203C 78.8235,198.587 94.8235,193.254 110.5,187C 122.432,183.85 134.432,181.017 146.5,178.5C 162.369,159.34 177.202,139.674 191,119.5C 201.175,108.624 211.675,98.1239 222.5,88C 230.041,83.5468 237.708,79.3801 245.5,75.5C 246.069,72.7633 247.736,71.2633 250.5,71C 267.188,66.1988 281.855,69.5321 294.5,81C 298.847,84.337 302.014,88.5037 304,93.5C 304.667,96.8333 304.667,100.167 304,103.5C 297.333,120.833 290.667,138.167 284,155.5C 276.544,168.915 268.711,182.081 260.5,195C 262.471,195.014 264.471,194.681 266.5,194C 275.758,184.079 284.258,173.579 292,162.5C 297.828,160.005 301.495,155.671 303,149.5C 304.587,150.727 305.921,150.394 307,148.5C 323.377,130.725 339.044,112.392 354,93.5C 354.471,91.7536 355.138,90.087 356,88.5C 366.37,77.576 374.87,65.4093 381.5,52C 396.9,48.9202 412.233,45.5869 427.5,42C 442.344,33.6062 458.177,27.7729 475,24.5C 475.772,24.6448 476.439,24.9781 477,25.5C 481.952,22.1482 487.452,20.6482 493.5,21C 496.942,17.9457 500.942,15.9457 505.5,15C 509.865,14.3253 514.198,13.492 518.5,12.5C 519.772,12.5698 520.938,12.9032 522,13.5C 527.124,9.68778 532.624,6.52111 538.5,4C 542.572,3.73324 546.572,4.23324 550.5,5.5C 555.748,3.86759 560.748,1.86759 565.5,-0.5 Z M 253.5,108.5 C 256.482,108.104 259.149,108.771 261.5,110.5C 262.593,114.108 262.76,117.775 262,121.5C 255.143,144.879 244.809,166.546 231,186.5C 223.621,194.877 216.621,203.544 210,212.5C 202.922,219.282 195.089,224.948 186.5,229.5C 185.09,229.132 184.09,228.299 183.5,227C 192.396,194.042 207.229,164.209 228,137.5C 228.402,136.128 228.902,134.795 229.5,133.5C 228.456,131.232 228.289,128.899 229,126.5C 235.937,118.636 244.104,112.636 253.5,108.5 Z M 348.5,136.5 C 350.75,136.181 352.75,136.681 354.5,138C 346.631,141.555 342.797,147.721 343,156.5C 338.591,158.307 336.424,161.64 336.5,166.5C 326.809,176.664 315.143,183.164 301.5,186C 317.426,169.578 333.093,153.078 348.5,136.5 Z"/></g>
<g><path style="opacity:0.823" fill="#ffd318" d="M 44.5,64.5 C 50.7594,63.9767 56.2594,65.6434 61,69.5C 61.49,70.7932 61.6567,72.1266 61.5,73.5C 58.0172,74.0841 55.0172,73.2508 52.5,71C 49.5,70.3333 46.5,70.3333 43.5,71C 40.8664,75.4449 42.3664,77.9449 48,78.5C 50.4223,78.2495 52.5889,77.4162 54.5,76C 56.8098,75.5034 59.1432,75.3367 61.5,75.5C 60.7614,79.4078 58.4281,81.9078 54.5,83C 48.5743,84.1102 42.9077,83.4436 37.5,81C 33.545,76.5367 33.545,72.0367 37.5,67.5C 39.8852,66.3385 42.2186,65.3385 44.5,64.5 Z"/></g>
<g><path style="opacity:0.813" fill="#ffd317" d="M 82.5,65.5 C 85.8499,65.335 89.1832,65.5017 92.5,66C 95.8811,71.2599 98.8811,76.7599 101.5,82.5C 98.3843,84.0094 95.7176,83.5094 93.5,81C 91.5,80.8333 89.5,80.6667 87.5,80.5C 83.281,81.9017 78.9477,82.9017 74.5,83.5C 76.7106,77.2919 79.3773,71.2919 82.5,65.5 Z M 86.5,70.5 C 88.7012,70.8584 90.0345,72.1917 90.5,74.5C 88.5787,75.641 86.5787,75.8077 84.5,75C 85.5822,73.6703 86.2488,72.1703 86.5,70.5 Z"/></g>
<g><path style="opacity:0.834" fill="#ffd217" d="M 114.5,65.5 C 121.716,65.4935 127.55,68.4935 132,74.5C 132.498,71.5184 132.665,68.5184 132.5,65.5C 134.833,65.5 137.167,65.5 139.5,65.5C 139.5,71.5 139.5,77.5 139.5,83.5C 137.143,83.6633 134.81,83.4966 132.5,83C 129.299,79.4636 125.799,76.2969 122,73.5C 121.502,76.8168 121.335,80.1501 121.5,83.5C 119.167,83.5 116.833,83.5 114.5,83.5C 114.5,77.5 114.5,71.5 114.5,65.5 Z"/></g>
<g><path style="opacity:0.798" fill="#ffd217" d="M 161.5,65.5 C 164.85,65.335 168.183,65.5017 171.5,66C 174.881,71.2599 177.881,76.7599 180.5,82.5C 177.384,84.0094 174.718,83.5094 172.5,81C 170.5,80.8333 168.5,80.6667 166.5,80.5C 162.281,81.9017 157.948,82.9017 153.5,83.5C 155.711,77.2919 158.377,71.2919 161.5,65.5 Z M 165.5,70.5 C 167.701,70.8584 169.035,72.1917 169.5,74.5C 167.579,75.641 165.579,75.8077 163.5,75C 164.582,73.6703 165.249,72.1703 165.5,70.5 Z"/></g>
<g><path style="opacity:0.745" fill="#ffd317" d="M 193.5,65.5 C 195.833,65.5 198.167,65.5 200.5,65.5C 200.5,69.5 200.5,73.5 200.5,77.5C 204.833,77.5 209.167,77.5 213.5,77.5C 213.5,79.5 213.5,81.5 213.5,83.5C 206.833,83.5 200.167,83.5 193.5,83.5C 193.5,77.5 193.5,71.5 193.5,65.5 Z"/></g>
</svg>
