<?xml version="1.0" encoding="utf-8" ?><svg xmlns="http://www.w3.org/2000/svg" xmlns:xlink="http://www.w3.org/1999/xlink" width="768" height="771" viewBox="0 0 768 771"><path fill="#FEFEFE" d="M366.818 166.229C379.654 165.286 396.373 165.987 409.411 166.385C475.552 168.356 541.204 178.402 604.907 196.301C616.924 199.799 629.331 203.374 640.98 207.923C646.601 265.012 644.42 322.6 634.497 379.1C627.056 420.218 615.283 460.432 599.375 499.072C562.606 588.723 498.293 680.915 422.898 742.286C413.721 749.756 404.151 756.524 394.431 763.254L384.016 770.417C379.513 767.62 375.188 764.382 370.825 761.364C332.614 734.934 299.372 702.05 269.725 666.389C161.931 539.203 110.479 373.658 127.186 207.778C141.997 203.057 156.677 198.089 171.678 193.971C216.87 181.804 263.035 173.588 309.65 169.414C322.624 168.248 335.621 167.347 348.632 166.71C354.683 166.45 360.779 166.654 366.818 166.229Z"/><path fill="#1F1F1E" d="M358.839 169.587C453.564 166.393 548.095 180.18 637.961 210.295C639.199 230.474 640.573 250.573 640.729 270.801C640.76 306.153 637.712 341.441 631.621 376.265C610.423 491.017 557.496 597.533 478.842 683.737C454.825 710.336 428.69 735.319 399.242 755.852L384.06 766.359C344.321 740.139 311.267 709.59 280.231 673.623C192.344 573.579 139.263 447.736 128.952 314.972C126.475 279.988 127.653 245.273 130.222 210.345C203.655 184.669 281.279 172.57 358.839 169.587Z"/><path fill="#FEFEFE" d="M371.432 190.296C387.988 189.733 404.73 190.287 421.272 191.117C486.792 194.403 556.721 205.178 618.691 226.725C619.172 237.679 620.176 248.62 620.426 259.586C621.596 299.787 618.575 340.001 611.412 379.576C590.436 489.087 539.217 590.538 463.555 672.441C441.602 696.405 417.813 718.993 391.054 737.538L383.976 742.461C375.943 736.478 367.591 731.058 359.739 724.801C336.093 705.96 314.531 684.215 294.672 661.449C210.52 566.364 159.43 446.58 149.052 320.03C146.706 288.818 147.374 257.852 149.508 226.658C206.425 208.187 265.38 196.713 325.07 192.487C340.542 191.305 355.96 191.084 371.432 190.296Z"/><path fill="#1F1F1E" d="M365.231 206.115C445.942 203.845 526.488 214.654 603.745 238.12C606.479 273.116 605.227 309.095 601.053 343.923C587.145 452.17 542.661 554.207 472.818 638.069C449.682 666.666 423.507 692.664 394.754 715.606C391.272 718.366 387.625 720.917 384.021 723.512C364.623 709.495 346.487 693.808 329.821 676.632C237.349 583.371 179.435 461.372 165.635 330.766C163.892 312.622 162.854 294.178 163.048 275.949C163.182 263.353 164.085 250.77 164.25 238.196C229.451 218.319 297.081 207.523 365.231 206.115Z"/><path fill="#FEFEFE" d="M424.194 216.62C440.466 218.5 457.046 218.427 473.253 221.04L473.257 262.286C480.765 265.258 487.336 270.679 493.929 275.28C497.907 278.055 502.243 280.731 505.913 283.9C510.495 287.855 514.679 292.478 518.931 296.794C519.133 273.816 518.508 250.773 519.039 227.808C537.305 231.273 555.229 235.393 573.301 239.724L573.3 375.144L573.337 410.799C573.343 416.92 574.029 423.993 572.859 429.996C571.262 438.192 567.942 446.545 565.207 454.426C553.117 489.262 537.183 521.957 519.154 554.051C518.323 529.229 518.984 504.212 518.987 479.366C518.989 470.882 519.881 456.043 518.432 448.276C515.007 480.26 496.669 509.196 473.26 530.412L473.28 621.508C457.522 641.13 441.021 659.736 423.178 677.478L423.239 557.833C394.22 565.301 370.201 565.13 341.505 556.737L341.517 674.197C323.026 655.581 307.219 636.738 290.761 616.411C290.31 586.488 290.685 556.512 290.694 526.584C270.193 508.668 251.787 475.131 249.585 447.846C248.994 452.279 249.24 456.887 249.242 461.355L249.264 482.849L249.269 554.547C230.542 521.59 214.152 487.789 202.004 451.8C199.664 444.868 196.616 437.471 195.243 430.305C194.005 423.843 194.662 416.521 194.667 409.93L194.695 374.189L194.683 239.768C212.622 235.301 230.964 230.581 249.272 227.875L249.273 298.278C258.451 289.406 269.41 274.62 283.442 274.737C284.814 274.749 286.201 274.934 287.562 275.095L284.144 268.614L290.69 265.305L290.689 221.53C301.337 220.228 312.011 219.143 322.703 218.276C328.926 217.78 335.31 217.657 341.49 216.888L341.477 244.863C349.522 243.718 357.485 241.782 365.534 240.767C372.328 239.91 379.831 240.309 386.699 240.217C393.305 240.128 400.418 239.418 406.943 240.285C412.331 241.001 417.919 243.051 423.201 244.435C423.201 235.277 422.876 225.974 423.319 216.834L424.194 216.62Z"/><path fill="#1F1F1E" d="M377.824 298.359C449.424 294.895 510.291 350.095 513.817 421.691C517.343 493.287 462.195 554.201 390.601 557.789C318.919 561.382 257.913 506.152 254.383 434.468C250.852 362.784 306.136 301.827 377.824 298.359Z"/><path fill="#FEFEFE" d="M371.521 382.783C380.685 382.63 389.873 382.76 399.04 382.762C399.057 386.361 399.49 390.325 398.869 393.851C397.766 394.445 396.266 394.273 395.029 394.276L395.016 481.324L395.012 508.507C395.013 513.758 394.753 519.167 395.268 524.388C395.786 529.654 397.516 534.844 398.334 540.089C389.479 540.881 379.443 540.197 370.672 538.951C372.21 534.083 374.496 528.886 375.074 523.826C375.699 518.357 375.301 512.51 375.293 507.004L375.246 475.746L375.281 423.706C375.288 414.039 375.513 404.314 375.166 394.655C374.07 393.874 372.99 394.509 371.768 393.962C370.808 390.854 371.459 386.094 371.521 382.783Z"/><path fill="#FEFEFE" d="M293.815 366.016C304.291 365.759 314.812 365.958 325.293 365.969L320.154 373.906L355.098 438.336C358.497 444.579 369.254 462.396 370.58 467.872C371.731 472.625 371.124 478.281 371.113 483.176L371.047 507.442L370.874 512.16C364.701 499.235 357.483 486.626 350.77 473.964L313.826 404.215L301.015 380.016C298.58 375.414 295.852 370.799 293.815 366.016Z"/><path fill="#FEFEFE" d="M290.034 367.406C292.711 370.239 297.683 381.415 299.823 385.442C298.061 386.199 296.646 387.003 295.071 388.098C295.005 388.228 294.938 388.357 294.875 388.489C284.754 409.715 284.441 436.363 292.196 458.324C300.969 483.241 319.41 503.573 343.355 514.729C349.127 517.467 358.226 521.878 364.839 521.149C366.45 520.971 368.193 520.205 369.722 519.664L371.546 522.867L367.827 535.236C367.692 535.313 367.55 535.383 367.4 535.422C365.866 535.82 362.793 534.879 361.217 534.529C348.303 531.73 335.966 526.728 324.749 519.745C299.722 504.088 281.98 479.09 275.461 450.298C269.105 421.829 274.349 392.001 290.034 367.406Z"/><path fill="#FEFEFE" d="M449.879 367.522C459.276 367.084 468.864 367.481 478.274 367.596L409.08 496.675L400.029 513.721C399.87 506.681 399.077 479.324 400.386 473.977C401.687 468.667 411.303 452.695 414.597 446.539L453.264 374.327C452.056 372.087 450.85 369.878 449.879 367.522Z"/><path fill="#FEFEFE" d="M380.221 316.014C387.214 315.746 394.217 316.104 401.146 317.084C432.194 321.507 457.914 338.035 476.544 362.937C469.454 363.14 462.329 363.009 455.235 363.016L454.878 358.002C435.972 340.222 414.268 330.416 388.235 329.187C388.106 329.182 387.976 329.175 387.847 329.171C365.326 328.476 343.248 335.526 325.297 349.143C322.912 350.958 320.323 352.762 318.188 354.856C315.501 357.491 314.783 359.345 314.671 363.01C306.998 363.047 299.326 363.036 291.654 362.975C295.421 360.434 298.008 356.843 300.97 353.473C321.393 330.234 349.695 318.02 380.221 316.014Z"/><path fill="#FEFEFE" d="M477.102 453.899C479.231 455.766 484.2 471.707 485.539 475.438C483.613 478.958 481.644 482.479 479.458 485.847C462.552 511.888 436.884 528.57 406.676 534.932L402.277 535.757L399.397 522.999C422.736 518.822 443.488 508.211 459.199 490.185C465.327 483.154 475.667 468.481 477.178 459.045C477.443 457.391 477.22 455.566 477.102 453.899Z"/><path fill="#FEFEFE" d="M386.046 347.349C386.465 347.74 386.304 347.526 386.587 348.079C387.665 350.184 389.249 353.121 391.054 354.66C393.266 356.546 396.841 356.236 399.547 356.113C397.19 358.016 394.673 360.333 393.67 363.266C392.499 366.687 393.683 369.557 395.164 372.613C393.039 370.617 391.141 369.145 388.469 367.994C388.353 367.972 388.238 367.945 388.122 367.927C384.084 367.313 381.628 369.023 378.547 371.323C379.368 368.389 380.288 365.437 379.232 362.415C378.182 359.412 375.571 357.925 372.904 356.578C375.477 356.404 378.126 356.163 380.459 354.974C383.663 353.341 384.928 350.563 386.046 347.349Z"/><path fill="#FEFEFE" d="M482.059 371.893C484.335 374.41 485.83 378.706 487.28 381.8C484.818 386.93 482.154 391.975 479.571 397.045L479.402 397.062C478.558 396.586 475.316 387.776 474.729 386.407C477.082 381.523 479.525 376.684 482.059 371.893Z"/><path fill="#1F1F1E" d="M473.258 310.119C489.639 321.021 501.213 337.476 512.653 353.139C514.79 351.707 516.833 350.104 518.9 348.571C519.02 351.495 518.972 354.439 518.988 357.366L519.003 388.321C519.002 394.616 519.251 401.084 518.695 407.356C518.273 405.528 517.714 403.573 517.727 401.688C516.333 396.524 515.201 391.348 513.547 386.249C505.324 360.904 492.345 343.864 473.268 325.618L473.258 310.119Z"/><path fill="#1F1F1E" d="M341.883 273.48C343.642 274.866 344.238 282.831 344.659 285.21C352.66 283.861 360.727 282.072 368.778 281.132C377.478 280.117 386.872 280.21 395.642 280.361C398.61 280.412 401.345 281.077 404.223 281.72C411.105 283.256 416.278 283.649 423.2 282.19C423.217 284.654 423.77 296.917 422.69 298.113C395.232 290.71 368.696 291.203 341.498 299.39C341.508 293.096 340.601 278.805 341.883 273.48Z"/><path fill="#1F1F1E" d="M290.576 314.678C291.259 319.219 290.711 324.688 290.691 329.327C286.542 333.895 282.118 338.069 278.206 342.879C263.274 361.239 252.364 384.469 249.535 408.077C249.363 406.614 249.327 405.135 249.257 403.664L249.254 349.151C251.806 350.696 254.265 352.394 256.739 354.061C266.014 339.975 276.472 324.315 290.576 314.678Z"/><path fill="#1F1F1E" d="M280.322 280.531C282.388 280.454 284.461 280.331 286.447 281.004C290.387 282.341 293.393 284.859 295.156 288.666C296.818 292.256 297.143 296.269 295.699 299.983C293.372 305.968 286.766 311.479 281.057 314.133C275.121 306.843 269.517 299.218 263.771 291.772C268.772 286.978 273.624 282.664 280.322 280.531Z"/><path fill="#FEFEFE" d="M279.067 286.921C279.914 286.806 280.736 286.737 281.588 286.868C284.056 287.249 286.464 288.849 287.863 290.891C289.338 293.045 290.132 295.909 289.592 298.499C288.849 302.058 286.464 303.98 283.603 305.873C279.932 300.939 276.088 296.121 272.321 291.26C274.38 289.323 276.515 288.058 279.067 286.921Z"/><path fill="#1F1F1E" d="M406.383 247.256C406.784 247.267 407.186 247.272 407.587 247.297C414.123 247.708 423.464 248.928 427.901 254.35C430.261 257.235 430.866 260.815 430.422 264.446C429.857 269.076 427.677 272.594 424.086 275.463C416.897 279.265 408.436 277.14 401.074 275.072L406.383 247.256Z"/><path fill="#FEFEFE" d="M412.468 253.232C415.676 253.612 418.546 254.149 420.934 256.542C422.553 258.164 423.336 260.391 423.242 262.669C423.109 265.858 421.405 268.737 419.09 270.833C415.436 272.675 412.838 272.339 408.967 271.566C409.841 265.466 411.119 259.243 412.468 253.232Z"/><path fill="#383A39" d="M416.833 260.391C417.076 260.63 417.277 260.992 417.472 261.275C417.601 262.882 417.012 264.187 416.474 265.669L416.028 265.348C416.023 263.693 416.496 262.008 416.833 260.391Z"/><path fill="#1F1F1E" d="M256.409 298.165C263.917 304.021 270.93 310.893 278.103 317.182C276.54 319.124 274.817 320.935 273.132 322.771C265.387 321.205 257.599 319.778 249.972 317.698C255.494 321.94 260.667 326.701 265.847 331.346L262.235 335.165L261.548 335.755C259.374 335.171 242.614 319.586 239.645 316.997C241.527 315.038 243.316 312.966 245.143 310.954C252.5 312.235 259.7 313.542 266.878 315.618C261.808 311.557 256.934 307.311 252.067 303.012L256.409 298.165Z"/><path fill="#1F1F1E" d="M478.548 271.608C480.872 273.095 483.099 274.768 485.348 276.369C484.989 283.734 484.257 291.076 483.153 298.367C486.509 292.866 490.255 287.576 493.897 282.262C495.738 283.517 497.524 284.855 499.323 286.17C497.068 289.274 484.226 308.876 482.454 309.481C480.469 308.187 478.535 306.795 476.581 305.453C477.907 297.774 478.095 289.717 479.008 281.947C475.599 287.871 471.395 293.449 467.468 299.044L462.048 295.33C467.581 287.46 473.272 279.651 478.548 271.608Z"/><path fill="#1F1F1E" d="M389.743 245.876C391.89 245.732 394.095 245.802 396.248 245.786C396.221 255.435 396.432 265.088 396.468 274.739L389.254 274.738C385.109 268.057 381.111 261.286 377.262 254.43C377.924 261.058 377.55 267.734 378.018 274.383L377.718 274.694C375.809 275.231 373.543 274.979 371.566 274.967C370.989 265.451 371.201 255.811 371.052 246.275L379.149 246.026C383.171 252.463 387.104 258.789 390.461 265.601C389.808 258.998 389.713 252.503 389.743 245.876Z"/><path fill="#1F1F1E" d="M329.361 254.562C331.609 254.43 333.604 254.469 335.676 255.455C337.777 256.454 339.292 258.169 339.942 260.415C340.699 262.942 340.368 265.67 339.03 267.942C336.779 271.722 332.982 273.185 328.952 274.258C329.675 276.798 332.278 281.61 331.588 284.1L330.436 284.632C328.809 285.2 327.138 285.669 325.491 286.177L316.308 259.421C320.334 257.096 324.865 255.644 329.361 254.562Z"/><path fill="#FEFEFE" d="M328.166 260.178C328.66 260.138 329.161 260.109 329.657 260.124C330.882 260.161 332.025 260.751 332.764 261.73C333.455 262.644 333.55 263.921 333.28 265.006C332.837 266.787 331.51 267.646 330.021 268.529C329.063 268.899 328.371 269.162 327.33 269.201C326.103 267.01 325.246 264.143 324.812 261.679C325.695 260.749 326.974 260.535 328.166 260.178Z"/><path fill="#1F1F1E" d="M525.482 312.443C528.722 315.369 533.896 323.582 536.745 327.494L532.362 330.835C529.895 327.81 527.637 324.613 525.373 321.436C523.83 322.514 522.32 323.646 520.799 324.756C522.912 327.761 525.166 330.68 527.357 333.63C525.89 334.77 524.347 335.827 522.841 336.915C520.907 334.448 518.772 330.071 516.116 328.465L515.156 328.894L511.116 331.903C513.477 335.236 515.943 338.506 518.359 341.8C516.958 343.022 515.402 344.089 513.906 345.192C510.019 340.014 506.181 334.798 502.393 329.546C509.911 323.666 517.726 318.009 525.482 312.443Z"/><path fill="#1F1F1E" d="M308.289 262.363C309.578 263.25 310.432 265.918 311.08 267.33L300.761 272.689L303.416 277.743C306.601 275.95 309.918 273.964 313.32 272.628L315.701 277.482C312.513 279.236 309.281 280.909 306.008 282.5L308.922 288.348C312.202 286.596 316.232 283.794 319.768 282.949L320.494 283.632C321.2 284.914 321.834 286.247 322.498 287.553C316.808 290.605 311.095 293.616 305.361 296.585C300.671 288.217 296.347 279.596 291.867 271.11C297.217 268.016 302.825 265.255 308.289 262.363Z"/><path fill="#1F1F1E" d="M454.057 259.345C459.584 262.299 465.416 264.812 471.108 267.428L468.7 272.565L458.107 267.5L455.643 272.602C458.956 274.213 462.291 275.778 465.648 277.296L463.364 282.381C460.755 281.254 456.006 277.908 453.189 278.15L452.607 279.088L450.496 283.576C454.254 285.269 457.982 287.028 461.679 288.851L459.354 293.878L441.61 285.6C445.82 276.877 449.969 268.125 454.057 259.345Z"/><path fill="#1F1F1E" d="M360.452 247.444C361.276 247.317 361.809 247.167 362.583 247.536C363.606 248.812 363.534 250.853 363.69 252.438C359.975 253.377 356.031 253.823 352.248 254.459C352.44 256.348 352.803 258.238 353.098 260.114L364.111 258.181L364.963 263.696C361.33 264.254 357.712 264.902 354.111 265.638C354.449 267.755 354.826 269.866 355.241 271.969C359.13 271.237 363.034 270.593 366.952 270.038C366.993 270.063 367.04 270.079 367.075 270.112C368.061 271.062 368.173 274.004 368.392 275.361C361.999 276.277 355.544 277.483 349.215 278.763C347.888 269.219 345.929 259.677 344.273 250.179C349.672 249.303 355.065 248.391 360.452 247.444Z"/><path fill="#1F1F1E" d="M504.407 290.901C507.201 291.94 518.5 304.402 521.352 307.308L517.322 311.37L511.452 305.633L500.945 316.164L495.145 321.957L490.01 316.851C495.512 311.429 500.974 305.966 506.396 300.462C504.408 298.607 502.517 296.621 500.593 294.699L504.407 290.901Z"/><path fill="#1F1F1E" d="M234.901 324.265C239.223 326.095 254.114 336.914 259.072 340.247L255.271 345.979C251.889 344.877 235.169 332.874 231.099 330.14L234.901 324.265Z"/><path fill="#1F1F1E" d="M439.606 254.316C441.772 255.261 444.14 255.943 446.376 256.725C442.971 265.668 440.053 274.965 437.152 284.092L430.343 281.76C433.51 272.639 436.598 263.49 439.606 254.316Z"/><path fill="#1F1F1E" d="M497.04 299.523L497.656 299.783L497.904 300.397C497.026 302.371 494.366 304.483 492.808 306.059L492.778 306.081L492.582 305.89C493.83 303.638 495.502 301.587 497.04 299.523Z"/><path fill="#1F1F1E" d="M511.555 313.84L512.145 314.317C511.66 316.371 507.617 318.543 505.868 319.771L505.62 319.807C505.923 318.511 510.376 314.97 511.555 313.84Z"/><path fill="#FEFEFE" d="M381.91 592.77C383.878 594.706 389.641 614.26 391.036 618.506C400.248 618.548 409.5 618.211 418.723 618.196C411.218 623.833 403.677 629.423 396.102 634.965C399.304 643.23 401.934 652.041 404.394 660.558C397.34 655.217 389.946 650.198 382.671 645.16C380.24 646.313 377.804 648.407 375.582 649.981C370.473 653.678 365.305 657.292 360.078 660.821C363.068 652.427 365.597 643.795 368.362 635.318C361.068 629.78 353.826 624.173 346.64 618.496L373.455 618.477C376.062 609.859 379.015 601.297 381.91 592.77Z"/><path fill="#1F1F1E" d="M381.878 599.126C383.646 600.51 388.441 616.854 389.508 620.068L413.196 620.094C406.643 624.429 400.319 629.424 394.197 634.346C396.531 641.328 398.459 648.476 401.069 655.359C394.902 651.624 389.079 647.144 383.047 643.173C380.958 643.092 366.873 653.471 364.094 655.29C366.423 648.413 368.311 641.332 370.379 634.37C364.587 629.477 358.302 624.996 352.319 620.326L374.793 620.357L381.878 599.126Z"/><path fill="#FEFEFE" d="M382.22 604.142C384.071 606.51 387.329 618.451 388.435 621.932C395.166 621.661 401.904 621.582 408.64 621.694C403.18 625.639 397.673 629.518 392.12 633.33C394.6 639.248 396.181 645.876 398.097 652.019C393.249 648.122 388.103 644.494 383.054 640.857C382.874 640.68 382.6 640.636 382.368 640.537C377.25 644.586 371.845 648.29 366.528 652.072C368.494 645.955 370.51 639.854 372.576 633.771L357.271 621.924C363.458 622.119 369.648 622.228 375.838 622.25C377.775 616.28 379.486 609.78 382.22 604.142Z"/><path fill="#383A39" d="M371.852 215.159C375.968 214.995 396.456 214.301 398.791 215.551L398.023 215.789C394.808 215.888 372.838 216.617 371.122 215.539L371.852 215.159Z"/><path fill="#383A39" d="M174.164 245.007L174.41 245.448C173.593 248.994 173.878 253.201 173.765 256.853L173.244 256.183C173.047 253.074 172.326 247.56 174.164 245.007Z"/><path fill="#383A39" d="M173.298 296.947L173.761 297.466C174.21 300.866 173.96 304.467 173.748 307.883L173.324 307.523C172.826 304.116 173.068 300.385 173.298 296.947Z"/><path fill="#383A39" d="M343.507 216.311C346.336 216.123 351.699 215.231 354.095 216.659C351.564 217.11 345.754 217.565 343.507 216.311Z"/><path fill="#383A39" d="M594.166 300.268C595.589 301.986 594.823 307.552 594.741 309.951C593.359 308.256 594.102 302.616 594.166 300.268Z"/><path fill="#383A39" d="M593.648 244.848C593.892 244.983 594.086 245.073 594.295 245.271C595.534 246.443 594.781 251.827 594.682 253.431C593.472 252.235 594.102 246.904 593.648 244.848Z"/><path fill="#383A39" d="M423.319 216.834C422.018 216.869 420.71 216.916 419.408 216.896C418.667 216.885 416.259 216.965 415.807 216.491C418.334 216.012 421.71 215.835 424.194 216.62L423.319 216.834Z"/><path fill="#383A39" d="M593.339 317.188C594.395 318.848 593.806 321.986 593.7 323.915C592.438 322.073 593.094 319.311 593.339 317.188Z"/><path fill="#383A39" d="M174.282 315.644C175.389 317.61 174.828 320.778 174.507 322.916C173.981 320.495 174.109 318.09 174.282 315.644Z"/><path fill="#383A39" d="M175.132 328.113L175.53 328.421C176.126 329.731 175.849 331.563 175.812 332.984L175.295 332.571C174.812 331.194 175.065 329.554 175.132 328.113Z"/><path fill="#383A39" d="M592.219 329.236L592.709 329.634C593.161 331.013 592.883 332.637 592.792 334.069L592.339 333.69C591.891 332.306 592.146 330.674 592.219 329.236Z"/><path fill="#383A39" d="M591.162 339.033L591.549 339.34C592.059 340.486 591.803 341.87 591.717 343.092L591.354 342.802C590.793 341.672 591.072 340.257 591.162 339.033Z"/><path fill="#383A39" d="M475.99 221.142C477.652 220.975 479.113 221.04 480.7 221.564C478.957 221.882 477.559 222.101 475.99 221.142Z"/></svg>