<?xml version="1.0" encoding="UTF-8"?>
<!DOCTYPE svg PUBLIC "-//W3C//DTD SVG 1.1//EN" "http://www.w3.org/Graphics/SVG/1.1/DTD/svg11.dtd">
<svg xmlns="http://www.w3.org/2000/svg" version="1.1" width="661px" height="351px" style="shape-rendering:geometricPrecision; text-rendering:geometricPrecision; image-rendering:optimizeQuality; fill-rule:evenodd; clip-rule:evenodd" xmlns:xlink="http://www.w3.org/1999/xlink">
<g><path style="opacity:0.989" fill="#201f20" d="M 71.5,4.5 C 84.1115,2.2027 91.6115,7.2027 94,19.5C 94.9367,35.2209 94.6033,50.8876 93,66.5C 89.8126,73.1016 84.4793,76.435 77,76.5C 69.1908,76.3471 63.8575,72.6804 61,65.5C 60.3333,48.8333 60.3333,32.1667 61,15.5C 62.6844,9.98447 66.1844,6.31781 71.5,4.5 Z M 73.5,15.5 C 76.6852,15.0196 79.5185,15.6863 82,17.5C 82.6667,32.5 82.6667,47.5 82,62.5C 79.2935,65.9779 76.2935,66.3112 73,63.5C 72.1831,47.4259 72.3498,31.4259 73.5,15.5 Z"/></g>
<g><path style="opacity:0.981" fill="#212020" d="M 190.5,5.5 C 206.318,3.65147 213.651,10.6515 212.5,26.5C 208.833,26.5 205.167,26.5 201.5,26.5C 201.664,23.8127 201.497,21.146 201,18.5C 192.96,14.8579 189.96,17.5246 192,26.5C 198.667,34.5 205.333,42.5 212,50.5C 216.103,72.066 207.603,80.2327 186.5,75C 180.739,69.8203 178.406,63.3203 179.5,55.5C 183.167,55.5 186.833,55.5 190.5,55.5C 189.9,59.5164 190.9,63.0164 193.5,66C 198.734,67.3854 201.401,65.3854 201.5,60C 201.385,57.2682 200.552,54.7682 199,52.5C 194.333,47.8333 189.667,43.1667 185,38.5C 177.947,28.7259 177.78,18.8926 184.5,9C 186.727,8.05898 188.727,6.89232 190.5,5.5 Z"/></g>
<g><path style="opacity:0.964" fill="#212121" d="M -0.5,5.5 C 4.07037,6.44104 8.73704,6.77438 13.5,6.5C 16.8192,18.7765 19.9859,31.1098 23,43.5C 23.4999,31.1712 23.6665,18.8378 23.5,6.5C 27.2121,6.34164 30.7121,6.34164 34,6.5C 34.5,29.831 34.6666,53.1643 34.5,76.5C 30.1667,76.5 25.8333,76.5 21.5,76.5C 18.2984,61.027 14.4651,45.6937 10,30.5C 9.50008,45.8297 9.33341,61.163 9.5,76.5C 6.16667,76.5 2.83333,76.5 -0.5,76.5C -0.5,52.8333 -0.5,29.1667 -0.5,5.5 Z"/></g>
<g><path style="opacity:0.993" fill="#202020" d="M 250.5,5.5 C 262.527,3.24914 270.027,7.9158 273,19.5C 273.938,35.554 273.605,51.554 272,67.5C 268.823,74.0975 263.489,77.4309 256,77.5C 247.71,77.1864 242.377,73.1864 240,65.5C 239.333,49.1667 239.333,32.8333 240,16.5C 241.711,10.9588 245.211,7.29213 250.5,5.5 Z M 253.5,16.5 C 256.695,15.9607 259.195,16.9607 261,19.5C 261.667,34.1667 261.667,48.8333 261,63.5C 258.294,66.9779 255.294,67.3112 252,64.5C 251.333,49.1667 251.333,33.8333 252,18.5C 252.717,17.9558 253.217,17.2891 253.5,16.5 Z"/></g>
<g><path style="opacity:1" fill="#ccd238" d="M 286.5,2.5 C 284.506,39.4851 283.84,76.8184 284.5,114.5C 299.167,114.5 313.833,114.5 328.5,114.5C 328.667,77.4985 328.5,40.4985 328,3.5C 324.488,7.53304 320.655,10.8664 316.5,13.5C 316.5,12.5 316.5,11.5 316.5,10.5C 317.552,10.6495 318.552,10.4828 319.5,10C 322.667,6.83333 325.833,3.66667 329,0.5C 329.333,0.833333 329.667,1.16667 330,1.5C 330.5,39.4985 330.667,77.4985 330.5,115.5C 314.833,115.5 299.167,115.5 283.5,115.5C 283.167,77.1609 283.5,38.8275 284.5,0.5C 285.522,0.855491 286.189,1.52216 286.5,2.5 Z"/></g>
<g><path style="opacity:1" fill="#c7d304" d="M 316.5,10.5 C 316.5,11.5 316.5,12.5 316.5,13.5C 320.655,10.8664 324.488,7.53304 328,3.5C 328.5,40.4985 328.667,77.4985 328.5,114.5C 313.833,114.5 299.167,114.5 284.5,114.5C 283.84,76.8184 284.506,39.4851 286.5,2.5C 289.482,5.46903 292.816,8.1357 296.5,10.5C 299.864,7.29949 303.364,4.29949 307,1.5C 310.655,3.98848 313.822,6.98848 316.5,10.5 Z"/></g>
<g><path style="opacity:0.977" fill="#211f20" d="M 131.5,5.5 C 147.287,3.62013 154.62,10.6201 153.5,26.5C 149.833,26.5 146.167,26.5 142.5,26.5C 143.018,21.5015 141.185,17.8348 137,15.5C 130.962,18.993 129.962,23.6597 134,29.5C 140.74,35.5699 146.74,42.2366 152,49.5C 154.273,56.6656 153.94,63.6656 151,70.5C 140.913,80.0899 131.246,79.7565 122,69.5C 120.691,64.9342 120.191,60.2675 120.5,55.5C 124.167,55.5 127.833,55.5 131.5,55.5C 131.336,58.1873 131.503,60.854 132,63.5C 134.661,66.9661 137.661,67.2994 141,64.5C 141.667,61.5 141.667,58.5 141,55.5C 135.2,48.282 129.2,41.282 123,34.5C 120.114,27.6378 119.78,20.6378 122,13.5C 124.161,9.49524 127.328,6.82857 131.5,5.5 Z"/></g>
<g><path style="opacity:0.997" fill="#1d1d1c" d="M -0.5,86.5 C 28.8774,86.1748 58.2107,86.5082 87.5,87.5C 88.8166,96.7266 88.8166,105.893 87.5,115C 68.5933,115.173 49.76,115.673 31,116.5C 30.3333,134.167 30.3333,151.833 31,169.5C 44.0915,170.324 57.2582,170.824 70.5,171C 71.8228,180.137 71.8228,189.303 70.5,198.5C 57.2709,199.175 44.1042,199.842 31,200.5C 30.5,228.165 30.3334,255.831 30.5,283.5C 20.1667,283.5 9.83333,283.5 -0.5,283.5C -0.5,217.833 -0.5,152.167 -0.5,86.5 Z"/></g>
<g><path style="opacity:0.997" fill="#1e1e1d" d="M 155.5,86.5 C 193.739,86.1702 231.906,86.5036 270,87.5C 270.817,96.7447 270.65,105.911 269.5,115C 255.925,115.176 242.425,115.676 229,116.5C 228.829,171.874 228.329,227.207 227.5,282.5C 217.272,283.818 207.106,283.818 197,282.5C 196.667,227.167 196.333,171.833 196,116.5C 182.242,115.676 168.408,115.176 154.5,115C 153.35,106.245 153.184,97.4117 154,88.5C 154.717,87.9558 155.217,87.2891 155.5,86.5 Z"/></g>
<g><path style="opacity:0.997" fill="#1e1e1d" d="M 660.5,266.5 C 660.5,276.833 660.5,287.167 660.5,297.5C 636.572,298.656 612.572,298.822 588.5,298C 587.672,274.239 587.172,250.406 587,226.5C 577.339,261.827 554.505,282.993 518.5,290C 481.519,292.762 453.686,278.262 435,246.5C 433.056,242.277 431.389,237.944 430,233.5C 429.982,245.267 428.982,256.933 427,268.5C 422.095,284.072 411.595,293.238 395.5,296C 376.167,296.667 356.833,296.667 337.5,296C 336.835,265.071 336.502,234.071 336.5,203C 336.504,171.787 337.17,140.787 338.5,110C 358.153,108.702 377.82,108.369 397.5,109C 416.798,114.38 426.298,127.213 426,147.5C 426.705,157.255 426.039,166.922 424,176.5C 421.653,185.71 416.153,192.21 407.5,196C 416.759,199.591 422.925,206.091 426,215.5C 425.751,175.466 443.918,147.632 480.5,132C 528.42,120.516 563.087,136.85 584.5,181C 584.167,181.333 583.833,181.667 583.5,182C 585.461,185.215 586.627,188.715 587,192.5C 587.333,169.833 587.667,147.167 588,124.5C 598.09,123.348 608.256,123.181 618.5,124C 619.497,171.095 619.83,218.261 619.5,265.5C 633.216,265.202 646.882,265.535 660.5,266.5 Z M 367.5,135.5 C 373.842,135.334 380.175,135.5 386.5,136C 389.102,136.883 391.269,138.383 393,140.5C 397.509,152.876 397.509,165.543 393,178.5C 390.658,181.754 387.491,183.588 383.5,184C 378.177,184.499 372.844,184.666 367.5,184.5C 367.5,168.167 367.5,151.833 367.5,135.5 Z M 457.5,212.5 C 457.5,208.833 457.5,205.167 457.5,201.5C 465.979,169.529 486.645,155.696 519.5,160C 543.851,167.522 556.851,184.022 558.5,209.5C 553.918,244.631 533.918,261.131 498.5,259C 473.656,253.324 459.989,237.824 457.5,212.5 Z M 367.5,212.5 C 392.015,207.516 402.348,217.349 398.5,242C 398.333,247.5 398.167,253 398,258.5C 397.285,264.215 394.118,267.715 388.5,269C 381.508,269.5 374.508,269.666 367.5,269.5C 367.5,250.5 367.5,231.5 367.5,212.5 Z"/></g>
<g><path style="opacity:0.999" fill="#1e1e1c" d="M 88.5,129.5 C 98.4163,129.181 108.25,129.514 118,130.5C 118.333,182.167 118.667,233.833 119,285.5C 120.415,293.625 125.249,297.625 133.5,297.5C 141.504,297.329 146.337,293.329 148,285.5C 148.333,233.833 148.667,182.167 149,130.5C 158.75,129.514 168.584,129.181 178.5,129.5C 178.246,176.505 178.579,223.505 179.5,270.5C 179.81,315.013 158.143,332.513 114.5,323C 100.251,317.683 91.751,307.517 89,292.5C 87.8589,264.533 87.3589,236.533 87.5,208.5C 87.5043,182.096 87.8376,155.762 88.5,129.5 Z"/></g>
<g><path style="opacity:0.993" fill="#20201f" d="M 243.5,129.5 C 272.169,129.333 300.835,129.5 329.5,130C 330.421,137.33 330.754,144.83 330.5,152.5C 329.926,154.059 329.26,155.559 328.5,157C 310.593,157.825 292.76,157.658 275,156.5C 274.167,157.333 273.333,158.167 272.5,159C 273.811,172.013 273.811,185.013 272.5,198C 273.167,198.667 273.833,199.333 274.5,200C 289.496,200.5 304.496,200.667 319.5,200.5C 319.818,209.751 319.485,218.917 318.5,228C 303.259,228.175 288.092,228.675 273,229.5C 272.848,241.862 272.682,254.196 272.5,266.5C 272.709,267.086 273.043,267.586 273.5,268C 291.833,268.333 310.167,268.667 328.5,269C 329.181,277.136 329.848,285.303 330.5,293.5C 330.167,294.167 329.833,294.833 329.5,295.5C 300.839,296.667 272.172,296.833 243.5,296C 242.169,240.5 242.169,185 243.5,129.5 Z"/></g>
<g><path style="opacity:1" fill="#545454" d="M 457.5,201.5 C 457.5,205.167 457.5,208.833 457.5,212.5C 456.235,211.486 455.569,209.986 455.5,208C 455.336,205.456 456.003,203.29 457.5,201.5 Z"/></g>
<g><path style="opacity:0.329" fill="#cfd04b" d="M 660.5,304.5 C 660.5,304.833 660.5,305.167 660.5,305.5C 552.763,305.169 445.096,305.502 337.5,306.5C 336.957,306.44 336.624,306.107 336.5,305.5C 444.498,304.5 552.498,304.167 660.5,304.5 Z"/></g>
<g><path style="opacity:1" fill="#c2c91e" d="M 660.5,305.5 C 660.5,305.833 660.5,306.167 660.5,306.5C 553.161,305.835 446.161,306.502 339.5,308.5C 338.5,308.167 337.833,307.5 337.5,306.5C 445.096,305.502 552.763,305.169 660.5,305.5 Z"/></g>
<g><path style="opacity:1" fill="#c6d302" d="M 660.5,306.5 C 660.5,320.833 660.5,335.167 660.5,349.5C 553.166,349.667 445.833,349.5 338.5,349C 339.252,348.329 339.586,347.496 339.5,346.5C 341.962,343.536 344.629,340.703 347.5,338C 344.145,334.645 340.812,331.312 337.5,328C 340.48,324.02 343.813,320.353 347.5,317C 344.629,314.297 341.962,311.464 339.5,308.5C 446.161,306.502 553.161,305.835 660.5,306.5 Z"/></g>
<g><path style="opacity:0.384" fill="#cbd43a" d="M 339.5,346.5 C 339.586,347.496 339.252,348.329 338.5,349C 445.833,349.5 553.166,349.667 660.5,349.5C 660.5,349.833 660.5,350.167 660.5,350.5C 552.5,350.5 444.5,350.5 336.5,350.5C 336.738,348.596 337.738,347.262 339.5,346.5 Z"/></g>
</svg>
