<?xml version="1.0" encoding="UTF-8"?>
<!DOCTYPE svg PUBLIC "-//W3C//DTD SVG 1.1//EN" "http://www.w3.org/Graphics/SVG/1.1/DTD/svg11.dtd">
<svg xmlns="http://www.w3.org/2000/svg" version="1.1" width="1000px" height="231px" style="shape-rendering:geometricPrecision; text-rendering:geometricPrecision; image-rendering:optimizeQuality; fill-rule:evenodd; clip-rule:evenodd" xmlns:xlink="http://www.w3.org/1999/xlink">
<g><path style="opacity:0.932" fill="#0063ff" d="M 141.5,-0.5 C 155.833,-0.5 170.167,-0.5 184.5,-0.5C 203.375,1.73818 220.709,8.23818 236.5,19C 254.644,34.0686 260.144,52.902 253,75.5C 246.667,90.1662 236.5,101.333 222.5,109C 205.916,118.028 188.249,123.528 169.5,125.5C 161.563,157.217 145.563,184.05 121.5,206C 104.868,218.929 86.2018,227.095 65.5,230.5C 56.5,230.5 47.5,230.5 38.5,230.5C 25.8469,228.422 15.0136,222.756 6,213.5C 3.53607,209.566 1.36941,205.566 -0.5,201.5C -0.5,195.167 -0.5,188.833 -0.5,182.5C 4.57453,174.561 10.7412,173.561 18,179.5C 18.9581,181.199 19.4581,183.033 19.5,185C 15.4089,202.452 21.4089,214.786 37.5,222C 59.0427,226.37 78.0427,221.37 94.5,207C 108.879,191.089 120.379,173.256 129,153.5C 139.478,127.377 151.478,102.044 165,77.5C 174.255,62.2444 186.255,49.5777 201,39.5C 202.5,39.6667 203.333,40.5 203.5,42C 189.197,64.7198 178.863,89.2198 172.5,115.5C 195.466,113.579 212.299,102.246 223,81.5C 231.008,63.2754 230.008,45.6087 220,28.5C 213.023,19.8562 204.189,14.0229 193.5,11C 154.814,1.87126 119.148,8.53792 86.5,31C 56.5741,54.3137 47.7407,83.8137 60,119.5C 65.7941,127.733 73.7941,132.066 84,132.5C 97.0791,132.393 106.079,126.393 111,114.5C 112.595,107.857 113.928,101.191 115,94.5C 119.333,91.8333 123.667,91.8333 128,94.5C 130.69,114.849 122.19,128.349 102.5,135C 84.9927,139.701 68.326,137.701 52.5,129C 38.0209,116.912 32.1876,101.412 35,82.5C 38.8635,60.3304 49.6968,42.497 67.5,29C 89.6988,12.989 114.365,3.15569 141.5,-0.5 Z"/></g>
<g><path style="opacity:0.936" fill="#0064ff" d="M 999.5,102.5 C 999.5,103.833 999.5,105.167 999.5,106.5C 996.337,111.494 993.67,116.827 991.5,122.5C 974.51,123.333 957.51,123.833 940.5,124C 933.757,139.483 926.757,154.816 919.5,170C 911.507,170.5 903.507,170.666 895.5,170.5C 901.262,154.97 907.595,139.637 914.5,124.5C 897.833,123.833 881.167,123.167 864.5,122.5C 867.371,115.925 870.371,109.425 873.5,103C 890.51,102.833 907.51,102.333 924.5,101.5C 931.038,86.2595 937.704,71.0928 944.5,56C 952.853,55.1683 961.187,55.3349 969.5,56.5C 963.121,71.8082 956.454,86.9749 949.5,102C 966.163,102.5 982.83,102.667 999.5,102.5 Z"/></g>
<g><path style="opacity:0.939" fill="#0064ff" d="M 828.5,71.5 C 836.196,71.1692 843.862,71.5025 851.5,72.5C 847.296,82.4073 842.962,92.2406 838.5,102C 843.202,102.172 847.868,102.672 852.5,103.5C 851.5,105.5 850.5,107.5 849.5,109.5C 844.5,110.167 839.5,110.833 834.5,111.5C 826.667,129.167 818.833,146.833 811,164.5C 808.452,170.976 806.619,177.643 805.5,184.5C 807.064,191.949 811.397,194.115 818.5,191C 821.433,189.729 824.099,188.062 826.5,186C 831.357,180.48 836.19,174.98 841,169.5C 842.96,170.292 844.46,171.625 845.5,173.5C 838.587,184.526 829.587,193.36 818.5,200C 794.566,208.054 783.399,199.554 785,174.5C 779.017,180.819 772.184,185.986 764.5,190C 745.83,194.328 738.996,187.161 744,168.5C 750.946,152.331 758.279,136.331 766,120.5C 766.667,118.5 766.667,116.5 766,114.5C 763.075,113.677 760.242,114.177 757.5,116C 751.923,120.673 747.423,126.173 744,132.5C 735.059,151.381 726.393,170.381 718,189.5C 710.253,190.482 702.42,190.815 694.5,190.5C 695.721,186.756 696.887,183.09 698,179.5C 692.176,186.826 684.676,191.159 675.5,192.5C 670.444,192.66 666.611,190.66 664,186.5C 663.667,182.5 663.333,178.5 663,174.5C 655.456,184.096 645.79,190.096 634,192.5C 622.172,190.864 617.838,184.197 621,172.5C 625.956,158.806 631.789,145.472 638.5,132.5C 633.783,133.564 628.783,133.564 623.5,132.5C 620.594,151.812 612.261,168.312 598.5,182C 585.958,192.108 571.958,194.775 556.5,190C 549.452,185.416 545.285,178.916 544,170.5C 538.081,178.421 530.914,184.921 522.5,190C 502.155,195.987 494.655,188.82 500,168.5C 507.607,152.954 514.94,137.287 522,121.5C 522.497,119.19 522.663,116.857 522.5,114.5C 518.401,114.367 514.734,115.533 511.5,118C 507.618,122.214 504.118,126.714 501,131.5C 491.945,150.666 483.279,169.999 475,189.5C 466.912,190.648 458.746,190.815 450.5,190C 459.462,169.907 468.296,149.74 477,129.5C 479.22,124.676 480.72,119.676 481.5,114.5C 478.206,114.259 475.206,115.092 472.5,117C 467.585,121.244 463.419,126.077 460,131.5C 450.362,150.445 441.528,169.778 433.5,189.5C 425.5,190.833 417.5,190.833 409.5,189.5C 411.29,186.612 412.457,183.612 413,180.5C 406.473,188.848 397.973,192.348 387.5,191C 380.939,188.067 377.773,182.9 378,175.5C 371.275,184.405 362.441,189.738 351.5,191.5C 343.35,191.683 337.85,188.016 335,180.5C 334.503,163.822 339.337,148.822 349.5,135.5C 349.167,135.167 348.833,134.833 348.5,134.5C 331.838,140.006 326.671,134.673 333,118.5C 328.642,122.196 324.975,126.53 322,131.5C 312.893,150.714 304.059,170.047 295.5,189.5C 288.197,190.497 280.863,190.831 273.5,190.5C 274.383,186.772 275.216,183.105 276,179.5C 268.809,188.182 259.642,192.015 248.5,191C 246.671,190.727 245.171,189.893 244,188.5C 241.909,185.155 240.576,181.488 240,177.5C 231.991,187.924 221.491,192.424 208.5,191C 202.59,189.421 199.09,185.588 198,179.5C 197.192,165.256 200.858,152.256 209,140.5C 218.322,124.844 231.155,113.011 247.5,105C 262.219,99.077 276.886,99.077 291.5,105C 291.957,105.414 292.291,105.914 292.5,106.5C 283.058,127.717 273.891,149.05 265,170.5C 264.319,172.529 263.986,174.529 264,176.5C 265.388,177.554 266.888,177.72 268.5,177C 271.965,174.537 275.131,171.704 278,168.5C 281.581,163.672 284.915,158.672 288,153.5C 295.757,136.982 303.257,120.316 310.5,103.5C 317.468,102.503 324.468,102.17 331.5,102.5C 330.731,105.951 329.897,109.284 329,112.5C 335.394,104.718 343.561,100.884 353.5,101C 356.349,103.559 357.183,106.726 356,110.5C 353.798,115.563 351.631,120.563 349.5,125.5C 351.927,125.477 354.26,124.977 356.5,124C 364.616,117.22 373.282,111.22 382.5,106C 397.25,99.5572 412.25,98.8905 427.5,104C 429.211,105.133 429.711,106.633 429,108.5C 421,126.5 413,144.5 405,162.5C 402.925,166.97 401.758,171.636 401.5,176.5C 404.564,176.856 407.231,176.023 409.5,174C 415.096,168.407 419.93,162.24 424,155.5C 432.547,138.406 440.547,121.073 448,103.5C 455.079,102.52 462.245,102.187 469.5,102.5C 468.325,105.817 467.492,109.15 467,112.5C 474.945,103.776 484.778,99.9426 496.5,101C 501.983,103.795 504.483,108.295 504,114.5C 513.204,105.099 524.371,100.599 537.5,101C 542.922,102.924 545.922,106.757 546.5,112.5C 545.668,116.155 544.835,119.821 544,123.5C 536.483,140.53 528.983,157.53 521.5,174.5C 522.171,175.946 523.338,176.612 525,176.5C 532.569,172.6 538.569,166.933 543,159.5C 548.069,145.361 554.736,132.028 563,119.5C 574.993,104.171 590.493,98.3378 609.5,102C 613.274,103.302 616.441,105.469 619,108.5C 621.837,113.172 623.837,118.172 625,123.5C 632.289,126.466 638.455,124.799 643.5,118.5C 646.966,113.281 649.966,107.781 652.5,102C 660.159,101.5 667.826,101.334 675.5,101.5C 665.626,124.253 655.459,146.919 645,169.5C 644.503,171.81 644.337,174.143 644.5,176.5C 648.331,176.751 651.664,175.584 654.5,173C 659.765,167.737 664.265,161.904 668,155.5C 676.274,137.952 684.274,120.285 692,102.5C 699.747,101.518 707.58,101.185 715.5,101.5C 706.57,124.033 697.07,146.366 687,168.5C 685.921,171.063 685.421,173.729 685.5,176.5C 688.564,176.856 691.231,176.023 693.5,174C 703.196,163.454 711.029,151.621 717,138.5C 721.976,126.567 727.143,114.733 732.5,103C 739.856,102.169 747.189,102.335 754.5,103.5C 753.31,106.174 752.476,108.84 752,111.5C 760.004,103.914 769.504,100.414 780.5,101C 786.727,103.126 790.06,107.459 790.5,114C 789.809,119.406 788.309,124.573 786,129.5C 778.065,144.701 771.232,160.367 765.5,176.5C 768.32,176.752 770.986,176.252 773.5,175C 781.141,167.698 787.641,159.531 793,150.5C 799.311,137.378 805.478,124.212 811.5,111C 808.118,110.824 804.785,110.324 801.5,109.5C 802.609,107.615 803.443,105.615 804,103.5C 807.79,102.864 811.623,102.197 815.5,101.5C 819.848,91.4741 824.181,81.4741 828.5,71.5 Z M 265.5,109.5 C 266.552,109.351 267.552,109.517 268.5,110C 260.734,127.032 252.567,143.866 244,160.5C 239.521,168.316 233.188,173.983 225,177.5C 221.645,177.148 220.145,175.314 220.5,172C 225.292,150.744 235.292,132.41 250.5,117C 255.06,113.386 260.06,110.886 265.5,109.5 Z M 402.5,109.5 C 403.552,109.351 404.552,109.517 405.5,110C 398.242,126.775 390.409,143.275 382,159.5C 378.547,164.621 374.714,169.454 370.5,174C 367.068,176.434 363.401,177.268 359.5,176.5C 358.16,175.312 357.493,173.812 357.5,172C 362.296,150.736 372.296,132.402 387.5,117C 392.06,113.386 397.06,110.886 402.5,109.5 Z M 598.5,109.5 C 603.522,109.346 605.855,111.846 605.5,117C 601.577,138.111 593.743,157.611 582,175.5C 579.833,177.667 577.667,179.833 575.5,182C 569.12,185.308 565.454,183.475 564.5,176.5C 568.004,156.141 575.504,137.474 587,120.5C 590.095,115.902 593.928,112.235 598.5,109.5 Z"/></g>
</svg>
