<?xml version="1.0" encoding="UTF-8"?>
<svg version="1.1" xmlns="http://www.w3.org/2000/svg" width="1001" height="300">
<path d="M0 0 C0.82983398 0.47630859 1.65966797 0.95261719 2.51464844 1.44335938 C7.48900106 4.31078068 12.44345857 7.21096772 17.390625 10.125 C24.18530312 14.12139167 31.02573788 18.03577882 37.875 21.9375 C40.24502843 23.2886476 42.61478527 24.64027068 44.984375 25.9921875 C45.56956909 26.32604462 46.15476318 26.65990173 46.75769043 27.00387573 C56.11930656 32.34797915 65.44882553 37.74794555 74.78222656 43.14111328 C80.18670645 46.26324605 85.59347412 49.38141204 91 52.5 C93.1666775 53.74998122 95.33334417 54.99998121 97.5 56.25 C98.5725 56.86875 99.645 57.4875 100.75 58.125 C104 60 107.25 61.875 110.5 63.75 C111.57378906 64.36939453 112.64757812 64.98878906 113.75390625 65.62695312 C115.90789945 66.8698409 118.06154872 68.11332493 120.21484375 69.35742188 C125.2317447 72.25506224 130.25157214 75.14712882 135.28442383 78.01696777 C137.05115824 79.02478023 138.81675502 80.0345578 140.58203125 81.04492188 C142.78553709 82.30532721 144.99111691 83.56211698 147.19921875 84.81445312 C170.69577639 98.27758954 170.69577639 98.27758954 175 112 C175.42140391 114.8057256 175.47796026 117.54118915 175.4375 120.375 C175.42920166 121.12450928 175.42090332 121.87401855 175.41235352 122.64624023 C175.10840326 132.60737165 171.15086104 139.184864 164 146 C157.23237095 151.26720066 149.88347761 155.46025507 142.375 159.5625 C133.92095506 164.23824632 125.51876291 168.98369741 117.1875 173.875 C108.53149331 178.95172363 99.84285715 183.96789882 91.125 188.9375 C81.92313858 194.18371698 72.73396216 199.45070601 63.5625 204.75 C55.05034415 209.66800719 46.52587797 214.56332989 37.98632812 219.43359375 C30.83225138 223.5169459 23.69629471 227.63133708 16.5625 231.75 C14.90009277 232.70845825 14.90009277 232.70845825 13.20410156 233.6862793 C8.61287111 236.33365872 4.02287613 238.98251057 -0.55078125 241.66015625 C-1.19281494 242.03366211 -1.83484863 242.40716797 -2.49633789 242.79199219 C-4.0882273 243.71835968 -5.67710077 244.64990498 -7.265625 245.58203125 C-15.41373448 249.80740802 -24.7700987 250.58907627 -33.6953125 248.3125 C-35.95025381 247.3696674 -37.93481697 246.30496802 -40 245 C-41.04414062 244.36384766 -41.04414062 244.36384766 -42.109375 243.71484375 C-49.25778728 238.89100915 -53.69959183 232.27535581 -56 224 C-56.19133487 221.13381309 -56.28725017 218.36531718 -56.28088379 215.5007019 C-56.28682603 214.65874681 -56.29276828 213.81679171 -56.29889059 212.94932282 C-56.31619806 210.13528266 -56.31927537 207.32141333 -56.32226562 204.50732422 C-56.33152679 202.48652282 -56.34157676 200.4657249 -56.35235596 198.44493103 C-56.37856379 192.95911966 -56.39148625 187.47335721 -56.40037727 181.98749304 C-56.40624588 178.5570965 -56.41445689 175.12671324 -56.42338562 171.69632339 C-56.45072636 160.95459585 -56.47006355 150.21289875 -56.4777894 139.47113883 C-56.48674571 127.08791578 -56.52182217 114.70513482 -56.57979059 102.32204616 C-56.62308483 92.7396422 -56.64320122 83.15736233 -56.64587164 73.57486165 C-56.64796361 67.85670976 -56.65968973 62.13897371 -56.69551086 56.42092514 C-56.72857742 51.0379402 -56.73273342 45.65568129 -56.71523285 40.27263069 C-56.7136976 38.3038761 -56.72230507 36.33508164 -56.74214935 34.36642647 C-56.86653542 21.25087941 -55.70322101 11.43428366 -46.8125 1.0625 C-32.40250403 -12.03458522 -15.38444592 -8.85957856 0 0 Z M-8.75 65.8125 C-13.03803458 71.88721565 -13.29482567 77.36846025 -13.2746582 84.55029297 C-13.27976913 85.4941687 -13.28488007 86.43804443 -13.29014587 87.41052246 C-13.30401072 90.52114254 -13.30308734 93.63154025 -13.30078125 96.7421875 C-13.30467004 98.9116321 -13.30900509 101.08107594 -13.31376648 103.2505188 C-13.32122213 107.79480458 -13.32094225 112.33901266 -13.31567383 116.88330078 C-13.30988187 122.69598506 -13.32680696 128.50835041 -13.3500185 134.32098198 C-13.36477751 138.80093229 -13.36562455 143.2808062 -13.36250877 147.76077652 C-13.36302095 149.90330766 -13.36823919 152.04584319 -13.37832069 154.18835068 C-13.39070883 157.18941489 -13.38387881 160.18986301 -13.37231445 163.19091797 C-13.37995819 164.06910187 -13.38760193 164.94728577 -13.39547729 165.8520813 C-13.34175166 172.18576641 -12.50346216 178.06163795 -8.24609375 183.05859375 C-7.64925781 183.51363281 -7.05242187 183.96867187 -6.4375 184.4375 C-5.53837891 185.14712891 -5.53837891 185.14712891 -4.62109375 185.87109375 C-0.09766368 189.02114505 4.68260036 188.6507022 10 188 C12.62796393 186.92426448 12.62796393 186.92426448 15.13671875 185.3984375 C16.09167236 184.85147217 17.04662598 184.30450684 18.03051758 183.7409668 C19.01044678 183.16644775 19.99037598 182.59192871 21 182 C22.91390144 180.90987343 24.82796583 179.82003291 26.7421875 178.73046875 C28.78742981 177.55116237 30.83165722 176.37009457 32.875 175.1875 C33.98633301 174.54514404 35.09766602 173.90278809 36.24267578 173.2409668 C47.82587641 166.53992401 59.38105402 159.79087 70.90888977 152.99504089 C74.6436714 150.79425023 78.38801191 148.61055955 82.13671875 146.43359375 C83.94559427 145.3728762 85.75420748 144.31171113 87.5625 143.25 C88.37122559 142.78505127 89.17995117 142.32010254 90.01318359 141.84106445 C95.50207968 138.59425503 99.58714945 135.09305694 102 129 C102.86884163 123.62530527 102.2402205 118.66417607 99.46728516 113.95092773 C94.09284815 106.80498329 83.34444112 102.60047581 75.75 98.1875 C74.4765579 97.44478557 73.20328658 96.70177826 71.93017578 95.95849609 C69.28448606 94.41411508 66.63806884 92.87099121 63.99121094 91.32861328 C60.09684187 89.05802504 56.20773632 86.77854806 52.3203125 84.49609375 C51.69860672 84.13108261 51.07690094 83.76607147 50.43635559 83.38999939 C49.19545068 82.66142486 47.95454996 81.93284318 46.71365356 81.20425415 C37.75906169 75.94808157 28.79695033 70.70501366 19.8125 65.5 C19.03438965 65.04898926 18.2562793 64.59797852 17.45458984 64.13330078 C8.13272448 58.74433191 -0.56001287 57.43637679 -8.75 65.8125 Z " fill="#BE2941" transform="translate(108,27)"/>
<path d="M0 0 C25.5853125 -0.12375 25.5853125 -0.12375 51.6875 -0.25 C59.73257935 -0.30462402 59.73257935 -0.30462402 67.94018555 -0.36035156 C74.54650879 -0.37841797 74.54650879 -0.37841797 77.65022278 -0.3817749 C79.79385205 -0.38787208 81.93746858 -0.40184563 84.08100891 -0.42230225 C101.18474572 -0.5772106 115.77526896 -0.31632299 129 12 C138.59706089 23.23172511 140.81329798 34.48835497 140.17919922 48.93066406 C139.31776087 58.87828187 133.4013797 68.05999963 126.25 74.75 C118.79900989 80.91139567 111.10154214 84.13187317 101.48730469 84.11352539 C100.52082504 84.11374443 100.52082504 84.11374443 99.53482056 84.1139679 C97.41380397 84.1132735 95.29287617 84.10550336 93.171875 84.09765625 C91.69785612 84.09579039 90.22383662 84.09436728 88.74981689 84.09336853 C84.87661008 84.08955661 81.00344097 84.07973765 77.13024902 84.06866455 C73.17537954 84.05842193 69.22050394 84.0538648 65.265625 84.04882812 C57.51039752 84.03811417 49.75520885 84.02052812 42 84 C42 92.91 42 101.82 42 111 C28.14 111 14.28 111 0 111 C0 74.37 0 37.74 0 0 Z M42 34 C42 39.61 42 45.22 42 51 C49.02919203 51.07419174 56.05815579 51.12862259 63.08764648 51.16479492 C65.4786374 51.17987543 67.86960068 51.20034277 70.26049805 51.22631836 C73.69847435 51.26273306 77.13608469 51.27973399 80.57421875 51.29296875 C81.64210129 51.30845261 82.70998383 51.32393646 83.81022644 51.33988953 C90.9333174 51.43952464 90.9333174 51.43952464 97 48 C98.56471233 44.87057535 98.69701958 41.38917777 98 38 C95.96273409 35.48200049 94.76898388 34.15066158 91.54486084 33.51898193 C90.62996887 33.52786438 89.7150769 33.53674683 88.77246094 33.54589844 C87.21129547 33.54635162 87.21129547 33.54635162 85.61859131 33.54681396 C84.50179993 33.56745911 83.38500854 33.58810425 82.234375 33.609375 C80.51157318 33.61786469 80.51157318 33.61786469 78.75396729 33.62652588 C75.08555426 33.64891669 71.41811783 33.69912058 67.75 33.75 C65.26303494 33.77006139 62.77605457 33.78831278 60.2890625 33.8046875 C54.19233203 33.84879076 48.09633159 33.9178392 42 34 Z " fill="#003F8B" transform="translate(357,130)"/>
<path d="M0 0 C0.00586624 0.62116699 0.01173248 1.24233398 0.01777649 1.88232422 C0.08191758 8.37187607 0.16639026 14.86094148 0.26245117 21.35009766 C0.29561976 23.76897756 0.32367658 26.18793335 0.34643555 28.60693359 C0.38012935 32.0924501 0.4324544 35.57727615 0.48828125 39.0625 C0.49467117 40.13677246 0.5010611 41.21104492 0.50764465 42.31787109 C0.63271158 48.76548297 0.7890548 55.56048041 5.45137024 60.5546875 C10.28306591 64.7016714 13.58615599 65.49345989 19.81787109 65.3894043 C23.23283995 64.97150685 25.18053334 64.11697264 28.13671875 62.3984375 C29.09167236 61.85147217 30.04662598 61.30450684 31.03051758 60.7409668 C32.01044678 60.16644775 32.99037598 59.59192871 34 59 C35.91390144 57.90987343 37.82796583 56.82003291 39.7421875 55.73046875 C41.7874019 54.55111397 43.8316317 53.37005048 45.875 52.1875 C46.98053223 51.54876953 48.08606445 50.91003906 49.22509766 50.25195312 C60.31092604 43.84093519 71.35656658 37.36133639 82.3984375 30.875 C83.51734375 30.23248291 84.63625 29.58996582 85.7890625 28.92797852 C88.99062815 27.06957631 88.99062815 27.06957631 91.8046875 24.96069336 C101.17507358 18.44699187 110.29874718 19.19267342 121.25 19.5625 C123.07415835 19.59768599 124.89838262 19.62961206 126.72265625 19.65820312 C131.15009329 19.73459226 135.57430178 19.85496307 140 20 C137.66844562 23.02304929 135.39374069 25.68535609 132.44921875 28.11328125 C126.93575747 32.82980024 121.90276893 38.02569308 116.8125 43.1875 C114.884495 45.142305 112.95304633 47.09361537 111.01953125 49.04296875 C109.75266479 50.32723755 109.75266479 50.32723755 108.46020508 51.63745117 C106.10284724 53.90123521 103.5521218 55.95830256 101 58 C107.93 58.495 107.93 58.495 115 59 C111.64451325 62.35548675 109.34853015 64.14449543 105.328125 66.3984375 C104.20108154 67.03547607 103.07403809 67.67251465 101.9128418 68.32885742 C101.31627777 68.66211029 100.71971375 68.99536316 100.10507202 69.3387146 C97.57563247 70.75171703 95.0541723 72.17868468 92.53227234 73.60508728 C91.23848771 74.33679342 89.9443056 75.06779718 88.6497345 75.79811096 C82.62597169 79.19948462 76.65296799 82.6849946 70.6875 86.1875 C62.06144802 91.24144886 53.38427306 96.19523158 44.66748047 101.09082031 C36.52314219 105.67559463 28.45411407 110.38444981 20.41796875 115.15625 C-5.18050646 130.23724584 -5.18050646 130.23724584 -20.70703125 126.31640625 C-22.9532542 125.36835068 -24.93976171 124.30184348 -27 123 C-28.04414062 122.36384766 -28.04414062 122.36384766 -29.109375 121.71484375 C-36.32528612 116.84546012 -40.56051724 110.28748071 -43 102 C-43.3347168 99.05688477 -43.3347168 99.05688477 -43.44921875 95.94140625 C-43.49425537 94.76578125 -43.53929199 93.59015625 -43.58569336 92.37890625 C-43.72906708 87.0042827 -43.84304142 81.63029408 -43.91992188 76.25439453 C-43.96432345 73.42995191 -44.04758297 70.61086384 -44.16601562 67.78857422 C-45.22796079 41.8611793 -45.22796079 41.8611793 -38.32554626 34.23350525 C-35.3899222 31.5381689 -32.28071081 29.25094809 -29 27 C-27.57363726 25.78078352 -26.16176308 24.543986 -24.77734375 23.27734375 C-24.1726123 22.76413574 -23.56788086 22.25092773 -22.94482422 21.72216797 C-18.61362366 17.8868317 -14.62174955 13.68105195 -10.5625 9.5625 C-8.77440574 7.74906068 -6.98416643 5.93773299 -5.19140625 4.12890625 C-4.40967041 3.33556885 -3.62793457 2.54223145 -2.82250977 1.72485352 C-1 0 -1 0 0 0 Z " fill="#B78915" transform="translate(95,149)"/>
<path d="M0 0 C16.17 0 32.34 0 49 0 C57.96832235 16.20149887 66.40786475 32.5946735 74.625 49.1875 C76.92684335 53.82824045 79.23140706 58.46761564 81.5390625 63.10546875 C82.09169769 64.21619247 82.64433289 65.3269162 83.2137146 66.47129822 C87.32461882 74.70737931 91.55389943 82.87410972 95.87988281 90.99902344 C105 108.13222406 105 108.13222406 105 111 C89.49 111 73.98 111 58 111 C51 95 51 95 51 92 C33.84 92 16.68 92 -1 92 C-1.99 94.97 -2.98 97.94 -4 101 C-5.65 104.3 -7.3 107.6 -9 111 C-24.18 111 -39.36 111 -55 111 C-54.21363985 107.06819927 -53.58216021 104.79483829 -51.84765625 101.3671875 C-51.40679688 100.48998047 -50.9659375 99.61277344 -50.51171875 98.70898438 C-50.03347656 97.77376953 -49.55523438 96.83855469 -49.0625 95.875 C-48.56234375 94.88564453 -48.0621875 93.89628906 -47.546875 92.87695312 C-44.21732248 86.31478443 -40.79424373 79.80597116 -37.33422852 73.31201172 C-32.12321027 63.45419374 -27.20762851 53.44537046 -22.23751831 43.46478271 C-16.91417653 32.77869676 -11.546519 22.12704294 -5.91015625 11.6015625 C-3.87662335 7.76737572 -1.9409402 3.88188041 0 0 Z M24 35 C22.28628308 38.80648736 20.57741719 42.61510294 18.87304688 46.42578125 C18.29235113 47.72227868 17.71032542 49.01818127 17.12695312 50.31347656 C16.28947601 52.17358729 15.45677862 54.03577294 14.625 55.8984375 C14.12226562 57.01911621 13.61953125 58.13979492 13.1015625 59.29443359 C11.8743034 61.82185547 11.8743034 61.82185547 12 64 C20.58 64 29.16 64 38 64 C34.00835602 54.10072294 29.97073215 44.44985343 25 35 C24.67 35 24.34 35 24 35 Z " fill="#003F8B" transform="translate(740,130)"/>
<path d="M0 0 C17.10711964 9.2934799 34.08587669 18.80742451 50.8762207 28.66235352 C56.2121611 31.79394683 61.5603693 34.90155665 66.93359375 37.96875 C68.10362112 38.63806006 69.27362452 39.30741202 70.44360352 39.97680664 C72.65933869 41.24287346 74.87713476 42.50534346 77.09741211 43.76342773 C100.69219999 57.26618753 100.69219999 57.26618753 105 71 C105.42140391 73.8057256 105.47796026 76.54118915 105.4375 79.375 C105.42920166 80.12450928 105.42090332 80.87401855 105.41235352 81.64624023 C105.10840326 91.60737165 101.15086104 98.184864 94 105 C87.23248729 110.26711011 79.88373586 114.46091419 72.375 118.5625 C62.33527073 124.10726836 52.3991066 129.8036946 42.52880859 135.64477539 C41.58344238 136.20156982 40.63807617 136.75836426 39.6640625 137.33203125 C38.41810303 138.07030151 38.41810303 138.07030151 37.14697266 138.82348633 C32.75384421 141.23086476 29.13854927 140.95453201 24.3125 140.5625 C23.61060547 140.51029297 22.90871094 140.45808594 22.18554688 140.40429688 C20.45661946 140.27492135 18.72824645 140.13817469 17 140 C19.249503 136.90693337 21.65336606 134.35461106 24.55078125 131.88671875 C30.06424253 127.17019976 35.09723107 121.97430692 40.1875 116.8125 C42.115505 114.857695 44.04695367 112.90638463 45.98046875 110.95703125 C46.82504639 110.10085205 47.66962402 109.24467285 48.53979492 108.36254883 C50.89715276 106.09876479 53.4478782 104.04169744 56 102 C43.79 101.67 31.58 101.34 19 101 C20.65 99.68 22.3 98.36 24 97 C27.60819398 93.64354049 30.52946871 90.91072842 31.3359375 85.921875 C31.43985855 80.14386444 30.84443413 75.4957265 27 71 C23.61297551 68.38976359 19.97105515 66.32883265 16.24267578 64.2578125 C12.70654715 62.27456248 9.21966632 60.20812939 5.72363281 58.15527344 C2.64690184 56.35119478 -0.43536417 54.55695842 -3.51953125 52.765625 C-10.18476757 48.8941089 -16.8427669 45.01025725 -23.5 41.125 C-25.53122176 39.94005576 -27.56246908 38.75515533 -29.59375 37.5703125 C-31.0625 36.71354167 -32.53125 35.85677083 -34 35 C-32.63205626 31.89427206 -31.11204915 29.91964624 -28.61328125 27.63671875 C-27.9287085 27.00378906 -27.24413574 26.37085937 -26.53881836 25.71875 C-25.8041333 25.0484375 -25.06944824 24.378125 -24.3125 23.6875 C-15.99769262 15.99280112 -7.95759179 8.06183972 0 0 Z " fill="#002780" transform="translate(178,68)"/>
<path d="M0 0 C6.794063 -0.30598783 13.58633457 -0.51508374 20.38574219 -0.65917969 C22.69468557 -0.71927813 25.00317691 -0.80098924 27.31054688 -0.90527344 C47.54234222 -1.79631106 47.54234222 -1.79631106 52.62597656 2.49829102 C55.27576358 5.35517406 57.14247843 8.58130577 59 12 C59.90947995 13.20781537 60.8413391 14.3997934 61.8125 15.55859375 C62.534375 16.50863281 63.25625 17.45867187 64 18.4375 C64.8202326 19.51308177 65.64054789 20.58860048 66.4609375 21.6640625 C66.87182617 22.20450195 67.28271484 22.74494141 67.70605469 23.30175781 C70.00114694 26.31395814 72.31428256 29.31228098 74.625 32.3125 C75.47142936 33.41270257 76.31779079 34.51295741 77.1640625 35.61328125 C77.76992188 36.40089844 78.37578125 37.18851563 79 38 C83.68109629 32.77249941 88.09029662 27.41574867 92.3125 21.8125 C93.91197693 19.70233439 95.51096305 17.6007451 97.16699219 15.53442383 C99.13685494 12.94385036 99.13685494 12.94385036 100.76269531 9.58081055 C102.92839894 5.659943 105.09483791 2.34443578 109 0 C117.11682715 -2.15286744 125.83037641 -1.21862533 134.125 -0.8125 C136.43994197 -0.74722421 138.7550605 -0.68792025 141.0703125 -0.63476562 C146.71742055 -0.4921671 152.35788561 -0.27528248 158 0 C156.57200905 3.7746431 155.15086656 6.24021539 152.375 9.1875 C148.8494403 13.03471184 145.55602257 16.9898097 142.3203125 21.08203125 C139.47286485 24.66291239 136.57961541 28.20517946 133.6875 31.75 C129.14641983 37.3226696 124.67463724 42.94241678 120.25708008 48.61328125 C115.78304061 54.32961099 111.15388239 59.91643018 106.50610352 65.49194336 C105.93432373 66.1803833 105.36254395 66.86882324 104.7734375 67.578125 C104.26216309 68.19075195 103.75088867 68.80337891 103.22412109 69.43457031 C100.33035197 73.13517814 100.77516094 77.00467711 100.68359375 81.5078125 C100.66494263 82.25281006 100.6462915 82.99780762 100.6270752 83.76538086 C100.55870988 86.55179844 100.49860434 89.33841373 100.4375 92.125 C100.293125 98.35375 100.14875 104.5825 100 111 C86.14 111 72.28 111 58 111 C58.12375 104.915625 58.2475 98.83125 58.375 92.5625 C58.5469156 75.8022263 58.5469156 75.8022263 50.4375 61.6875 C48.57551158 59.85240879 46.68613127 58.11886481 44.6796875 56.44335938 C42.4292074 54.50951659 40.71134868 52.30772885 38.9375 49.9375 C35.55480648 45.68022119 32.1235267 41.46421051 28.6875 37.25 C24.07185865 31.58731341 19.53121377 25.8736422 15.04833984 20.10546875 C11.29521472 15.30589216 7.37040985 10.66386356 3.35107422 6.08520508 C0 2.21371284 0 2.21371284 0 0 Z " fill="#003F8B" transform="translate(843,130)"/>
<path d="M0 0 C13.86 0 27.72 0 42 0 C42 24.75 42 49.5 42 75 C68.73 75 95.46 75 123 75 C123 86.88 123 98.76 123 111 C82.41 111 41.82 111 0 111 C0 74.37 0 37.74 0 0 Z " fill="#003F8B" transform="translate(533,130)"/>
<path d="M0 0 C22 0 22 0 30.375 7.0625 C32.49267578 9.35668945 32.49267578 9.35668945 33.9453125 11.23828125 C36.19718385 14.05072483 38.44317388 16.46734021 41.25 18.75 C46.48374369 23.16162909 51.20380579 28.12445699 56 33 C55.505 33.99 55.505 33.99 55 35 C54.34 35 53.68 35 53 35 C53 35.66 53 36.32 53 37 C51.55495366 38.09181279 50.10555221 39.18044122 48.60546875 40.1953125 C44.89973573 44.36088101 43.74907772 49.3682952 43.99609375 54.79418945 C44.13364037 56.56798969 44.28128862 58.34102722 44.4375 60.11328125 C46.46832701 94.80549919 46.46832701 94.80549919 37.21484375 105.85546875 C31.82295548 111.79849191 25.61015081 116.91257836 19.15991211 121.66381836 C13.74968858 125.66369698 8.73166592 130.09255371 4.0625 134.9375 C3.06009714 135.97643691 2.04477242 137.00368079 1 138 C0.67 138 0.34 138 0 138 C0 92.46 0 46.92 0 0 Z " fill="#D03033" transform="translate(52,52)"/>
<path d="M0 0 C5.66876076 4.86916714 6.56480234 8.95730542 7.375 16.125 C3.8127769 16.24154436 0.25104658 16.3123639 -3.3125 16.375 C-4.31990234 16.40851563 -5.32730469 16.44203125 -6.36523438 16.4765625 C-13.94131282 16.57657674 -13.94131282 16.57657674 -17.58203125 14.171875 C-18.25621094 13.49640625 -18.93039062 12.8209375 -19.625 12.125 C-23.13947423 10.74405275 -26.82238014 10.95745795 -30.5625 10.9375 C-31.76777344 10.92332031 -32.97304688 10.90914062 -34.21484375 10.89453125 C-37.52761132 11.11841818 -39.73036764 11.52042479 -42.625 13.125 C-42.955 14.115 -43.285 15.105 -43.625 16.125 C-42.55354736 16.19231323 -42.55354736 16.19231323 -41.46044922 16.26098633 C-3.90923261 18.68998801 -3.90923261 18.68998801 4.6875 26.125 C7.83607064 29.85663928 7.68888451 33.4167323 7.375 38.125 C5.67434571 43.60488606 3.28378222 47.1633339 -1.625 50.125 C-11.1185708 54.70970004 -19.83510038 55.32771328 -30.25 55.375 C-31.36246094 55.395625 -32.47492187 55.41625 -33.62109375 55.4375 C-43.65348882 55.48421662 -54.0091647 54.58378809 -62 47.94140625 C-65.49144741 44.03870662 -67.625 39.36560233 -67.625 34.125 C-63.68763877 34.03803823 -59.75052372 33.98462165 -55.8125 33.9375 C-54.69294922 33.91236328 -53.57339844 33.88722656 -52.41992188 33.86132812 C-51.34677734 33.85166016 -50.27363281 33.84199219 -49.16796875 33.83203125 C-48.17821045 33.8163208 -47.18845215 33.80061035 -46.16870117 33.78442383 C-43.18239914 34.18425983 -42.54779476 34.91096817 -40.625 37.125 C-36.96649645 38.34450118 -33.56096431 38.34753359 -29.75 38.375 C-29.04230469 38.395625 -28.33460938 38.41625 -27.60546875 38.4375 C-23.08910644 38.47114143 -20.21644541 37.91365173 -16.625 35.125 C-16.625 34.795 -16.625 34.465 -16.625 34.125 C-20.15039913 33.35063487 -23.55942858 32.9219124 -27.16015625 32.6953125 C-28.21783203 32.62183594 -29.27550781 32.54835937 -30.36523438 32.47265625 C-32.5523435 32.32607751 -34.7398503 32.18529854 -36.92773438 32.05078125 C-47.52047583 31.29552838 -57.23250177 30.36512255 -65.19921875 22.84375 C-68.16559397 19.26784562 -67.98956623 15.57270798 -67.625 11.125 C-65.83029573 5.89694844 -63.4445391 1.99621478 -58.625 -0.875 C-42.29038798 -7.8434354 -15.40594857 -10.71238001 0 0 Z " fill="#003F8B" transform="translate(772.625,56.875)"/>
<path d="M0 0 C17.78602212 -2.80686289 17.78602212 -2.80686289 25.07226562 2.04638672 C31.16268 7.32652666 36.41562011 13.29109843 41.66699219 19.39501953 C44.26809032 22.29934321 47.01388282 24.7919485 50.03198242 27.25 C52 29 52 29 54.0012207 31.38671875 C58.26669258 36.38561796 61.12003233 38.55470818 67.78515625 39.09765625 C70.21074314 39.13052328 72.63732404 39.11793996 75.0625 39.0625 C76.30966797 39.06958984 77.55683594 39.07667969 78.84179688 39.08398438 C81.89688569 39.0956897 84.94578685 39.06672212 88 39 C86.65621026 43.03136923 84.94310632 43.45584468 81.26953125 45.51171875 C80.68266037 45.84363724 80.09578949 46.17555573 79.49113464 46.51753235 C77.60299392 47.58288155 75.70804178 48.63538625 73.8125 49.6875 C72.58610896 50.3760997 71.36019229 51.06554495 70.13476562 51.75585938 C68.29253698 52.7930754 66.44941453 53.8284648 64.60281372 54.85787964 C61.43887364 56.6217774 58.289524 58.40575287 55.16162109 60.23291016 C54.53841476 60.59536331 53.91520844 60.95781647 53.27311707 61.33125305 C51.55564255 62.33248936 49.84154834 63.33951767 48.12768555 64.34692383 C39.83624973 68.72919781 30.44063057 69.64282751 21.3046875 67.3125 C19.04974619 66.3696674 17.06518303 65.30496802 15 64 C13.95585938 63.36384766 13.95585938 63.36384766 12.890625 62.71484375 C5.79531326 57.92684203 1.1901279 51.26286072 -1 43 C-1.2054669 39.66122094 -1.09482684 36.34899268 -0.9765625 33.0078125 C-0.95153656 32.06187225 -0.92651062 31.11593201 -0.90072632 30.1413269 C-0.81889687 27.13549982 -0.72216454 24.13036657 -0.625 21.125 C-0.56672256 19.08075703 -0.50942012 17.03648602 -0.453125 14.9921875 C-0.31337332 9.99439636 -0.16025922 4.99717388 0 0 Z " fill="#D8A219" transform="translate(53,208)"/>
<path d="M0 0 C5.06839831 4.06395491 8.49396626 8.97948022 9.71484375 15.375 C10.5519115 25.67501659 11.03122905 36.05413638 4.01953125 44.390625 C-6.40046923 54.43094935 -19.40227954 54.75755375 -33.0234375 54.5859375 C-42.93696745 54.30103563 -51.80392385 52.21367256 -59.28515625 45.375 C-64.75666264 38.56513953 -65.48283872 32.61351892 -65.53515625 24.125 C-65.55578125 23.30386719 -65.57640625 22.48273438 -65.59765625 21.63671875 C-65.64106079 14.78965229 -64.24529481 9.61676761 -60.66015625 3.6875 C-46.13602493 -10.45441734 -16.35114176 -11.23514035 0 0 Z M-42.34765625 17.625 C-43.87000477 22.09055565 -43.87000477 25.65944435 -42.34765625 30.125 C-38.49606658 34.32673418 -33.29022066 35.16017167 -27.78515625 35.75 C-23.29529015 35.26894292 -19.26328343 34.59737323 -15.28515625 32.375 C-12.45653506 28.33411259 -12.00382593 25.37486944 -12.78515625 20.625 C-13.65294612 17.49456784 -14.07447378 16.55721186 -16.59765625 14.375 C-24.82701502 11.31291302 -35.93718566 10.63175935 -42.34765625 17.625 Z " fill="#003F8B" transform="translate(991.28515625,57.625)"/>
<path d="M0 0 C8.91 -0.061875 17.82 -0.12375 27 -0.1875 C31.19783203 -0.22846802 31.19783203 -0.22846802 35.48046875 -0.27026367 C37.71614145 -0.27903133 39.95181897 -0.2866746 42.1875 -0.29296875 C43.90743164 -0.3159906 43.90743164 -0.3159906 45.66210938 -0.33947754 C54.6172123 -0.34238756 61.69869067 0.9435806 68.45703125 7.20703125 C72.83886091 12.29882824 74.66872864 18.13832534 74.3203125 24.8046875 C73.36212953 31.37174639 70.77490584 36.33120318 66 41 C60.52465598 44.59590198 55.8045489 45.56938435 49.34375 45.390625 C48.55601196 45.38496521 47.76827393 45.37930542 46.95666504 45.37347412 C44.47045966 45.35129902 41.98576072 45.30114337 39.5 45.25 C37.80210433 45.22991039 36.10418579 45.21166396 34.40625 45.1953125 C30.27026361 45.1514969 26.1353861 45.08260605 22 45 C22 49.62 22 54.24 22 59 C14.74 59 7.48 59 0 59 C0 39.53 0 20.06 0 0 Z M22 18 C22 20.97 22 23.94 22 27 C26.45827926 27.0578304 30.9164628 27.09353855 35.375 27.125 C36.64601563 27.14175781 37.91703125 27.15851563 39.2265625 27.17578125 C41.04414063 27.18544922 41.04414063 27.18544922 42.8984375 27.1953125 C44.01911621 27.20578613 45.13979492 27.21625977 46.29443359 27.22705078 C49.14977843 27.28055323 49.14977843 27.28055323 51 25 C51.41666667 22.5 51.41666667 22.5 51 20 C47.50663182 17.67108788 46.13992135 17.76448857 42.01953125 17.8046875 C40.85615234 17.81113281 39.69277344 17.81757812 38.49414062 17.82421875 C37.27919922 17.84097656 36.06425781 17.85773438 34.8125 17.875 C32.97268555 17.88853516 32.97268555 17.88853516 31.09570312 17.90234375 C28.06360705 17.92593983 25.03190062 17.95886159 22 18 Z " fill="#003F8B" transform="translate(357,52)"/>
<path d="M0 0 C7.26 0 14.52 0 22 0 C22.01417969 2.39636719 22.02835938 4.79273438 22.04296875 7.26171875 C22.07361467 9.59185716 22.11269635 11.92171268 22.15258789 14.25170898 C22.17573286 15.86651549 22.19015543 17.48147221 22.19555664 19.09643555 C22.20487274 21.42331148 22.24591368 23.74783676 22.29296875 26.07421875 C22.2890361 26.79212082 22.28510345 27.51002289 22.28105164 28.24967957 C22.39441572 32.17598246 22.88730587 33.86171493 25.3996582 36.94458008 C29.99771998 40.5790822 35.28507065 40.58874938 41 40 C44.1029372 39.24747665 47.1138296 38.37677275 50 37 C51.52375793 33.95248414 51.21902264 30.7496725 51.28125 27.40234375 C51.29965942 26.65287979 51.31806885 25.90341583 51.33703613 25.13124084 C51.41584103 21.918289 51.48360069 18.7051258 51.55224609 15.49194336 C51.60385395 13.14946744 51.66114063 10.80717848 51.71875 8.46484375 C51.73232544 7.73257065 51.74590088 7.00029755 51.7598877 6.24583435 C51.88717098 1.11282902 51.88717098 1.11282902 53 0 C54.63472882 -0.08700342 56.27314055 -0.10701063 57.91015625 -0.09765625 C59.39418945 -0.09282227 59.39418945 -0.09282227 60.90820312 -0.08789062 C61.94912109 -0.07951172 62.99003906 -0.07113281 64.0625 -0.0625 C65.62967773 -0.05573242 65.62967773 -0.05573242 67.22851562 -0.04882812 C69.8190666 -0.03699913 72.40950559 -0.02051689 75 0 C75.09968046 5.22862331 75.17184747 10.45668044 75.21972656 15.68603516 C75.23970839 17.46087289 75.26690355 19.23564594 75.30175781 21.01025391 C75.71482296 42.59898215 75.71482296 42.59898215 69.17993164 50.08496094 C59.73612505 59.45084623 47.63702872 60.26164609 35.09082031 60.24658203 C24.20505149 60.10942961 14.30518574 58.60884093 6 51 C2.37488338 46.40992428 -0.13228982 41.93587173 -0.11352539 35.98754883 C-0.11344986 35.18694534 -0.11337433 34.38634186 -0.11329651 33.56147766 C-0.10813522 32.70201035 -0.10297394 31.84254303 -0.09765625 30.95703125 C-0.0962413 30.0734343 -0.09482635 29.18983734 -0.09336853 28.27946472 C-0.08777069 25.45710872 -0.07521861 22.63483203 -0.0625 19.8125 C-0.05748472 17.89908969 -0.05292186 15.98567813 -0.04882812 14.07226562 C-0.03865283 9.38145527 -0.01907698 4.69081642 0 0 Z " fill="#003F8B" transform="translate(507,52)"/>
<path d="M0 0 C1.09376953 -0.06251953 2.18753906 -0.12503906 3.31445312 -0.18945312 C11.136464 -0.34675133 11.136464 -0.34675133 13.87060547 2.01855469 C15.22411269 4.13471426 16.20178132 6.25262551 17.1875 8.5625 C18.0632039 10.20054213 18.94912644 11.83315127 19.84375 13.4609375 C20.79577634 15.28431847 21.74349294 17.10995438 22.6875 18.9375 C23.19506836 19.91614014 23.70263672 20.89478027 24.22558594 21.90307617 C28.3429796 29.87001964 32.40509662 37.86477549 36.4375 45.875 C37.01048828 47.0079248 37.58347656 48.14084961 38.17382812 49.30810547 C38.69912109 50.35756348 39.22441406 51.40702148 39.765625 52.48828125 C40.23387695 53.42067627 40.70212891 54.35307129 41.18457031 55.3137207 C42.1875 57.5625 42.1875 57.5625 42.1875 59.5625 C33.9375 59.5625 25.6875 59.5625 17.1875 59.5625 C15.8675 56.5925 14.5475 53.6225 13.1875 50.5625 C4.6075 50.5625 -3.9725 50.5625 -12.8125 50.5625 C-14.1325 53.5325 -15.4525 56.5025 -16.8125 59.5625 C-25.0625 59.5625 -33.3125 59.5625 -41.8125 59.5625 C-40.43386133 55.426584 -39.13930182 51.9609281 -37.23046875 48.1237793 C-36.71653564 47.08638107 -36.20260254 46.04898285 -35.6730957 44.98014832 C-35.12097412 43.87681656 -34.56885254 42.7734848 -34 41.63671875 C-33.43047607 40.49338577 -32.86095215 39.3500528 -32.27416992 38.17207336 C-31.07250086 35.7630039 -29.86915764 33.35485761 -28.66308594 30.94799805 C-27.11615484 27.85996059 -25.57842055 24.76744347 -24.04307556 21.67363262 C-22.57590722 18.72106702 -21.09998003 15.77288776 -19.625 12.82421875 C-19.07287842 11.71076584 -18.52075684 10.59731293 -17.9519043 9.45011902 C-17.43797119 8.4284816 -16.92403809 7.40684418 -16.39453125 6.35424805 C-15.94311768 5.45079147 -15.4917041 4.5473349 -15.02661133 3.61650085 C-12.1210951 -1.29897327 -5.06971591 0.12711241 0 0 Z M-0.8125 20.5625 C-1.65014268 22.51899397 -2.48249059 24.47775556 -3.3125 26.4375 C-3.7765625 27.52804688 -4.240625 28.61859375 -4.71875 29.7421875 C-5.93302456 32.36911929 -5.93302456 32.36911929 -5.8125 34.5625 C-1.8525 34.5625 2.1075 34.5625 6.1875 34.5625 C3.93768107 27.21912913 3.93768107 27.21912913 0.1875 20.5625 C-0.1425 20.5625 -0.4725 20.5625 -0.8125 20.5625 Z " fill="#003F8B" transform="translate(465.8125,51.4375)"/>
<path d="M0 0 C1.11503906 -0.020625 2.23007812 -0.04125 3.37890625 -0.0625 C4.44753906 -0.06765625 5.51617188 -0.0728125 6.6171875 -0.078125 C8.09227783 -0.09214355 8.09227783 -0.09214355 9.59716797 -0.10644531 C12.66603349 0.32629022 13.16389891 0.91606165 15.125 3.25 C16.12140207 4.97373312 17.05416417 6.73482963 17.9440918 8.51586914 C18.48442551 9.59030777 19.02475922 10.6647464 19.58146667 11.77174377 C20.15657486 12.93116989 20.73168304 14.09059601 21.32421875 15.28515625 C21.92486877 16.4869751 22.52593379 17.68858662 23.12739563 18.88999939 C24.38437394 21.40404559 25.63720108 23.92010304 26.88696289 26.43774414 C28.49087236 29.66829838 30.10364432 32.89432783 31.71934795 36.11899662 C32.96028768 38.59753952 34.19723623 41.07805658 35.43290138 43.55923271 C36.31516943 45.32949883 37.20025695 47.09835886 38.08537292 48.86720276 C38.61625015 49.93848923 39.14712738 51.0097757 39.6940918 52.11352539 C40.16469528 53.05933975 40.63529877 54.00515411 41.12016296 54.97962952 C42.125 57.25 42.125 57.25 42.125 59.25 C33.875 59.25 25.625 59.25 17.125 59.25 C15.805 56.28 14.485 53.31 13.125 50.25 C4.545 50.25 -4.035 50.25 -12.875 50.25 C-14.195 53.22 -15.515 56.19 -16.875 59.25 C-25.125 59.25 -33.375 59.25 -41.875 59.25 C-40.30002255 54.52506765 -38.53350559 50.27470184 -36.3125 45.859375 C-35.96461426 45.16091965 -35.61672852 44.46246429 -35.25830078 43.74284363 C-34.13525298 41.49283121 -33.00565626 39.24619759 -31.875 37 C-31.49327637 36.23865753 -31.11155273 35.47731506 -30.71826172 34.69290161 C-13.34599628 0.06129045 -13.34599628 0.06129045 0 0 Z M0.125 20.25 C-0.87984204 22.20585325 -1.87873805 24.16476237 -2.875 26.125 C-3.431875 27.21554688 -3.98875 28.30609375 -4.5625 29.4296875 C-6.01564094 32.03375082 -6.01564094 32.03375082 -5.875 34.25 C-1.915 34.25 2.045 34.25 6.125 34.25 C3.81135915 27.18199136 3.81135915 27.18199136 1.125 20.25 C0.795 20.25 0.465 20.25 0.125 20.25 Z " fill="#003F8B" transform="translate(884.875,51.75)"/>
<path d="M0 0 C1.27685165 0.00222061 2.55370331 0.00444122 3.86924744 0.00672913 C4.57165054 0.0065831 5.27405365 0.00643707 5.9977417 0.00628662 C8.32985983 0.00698579 10.66189904 0.01477835 12.9940033 0.02259827 C14.60683142 0.02446243 16.21966012 0.02588634 17.83248901 0.02688599 C22.08550062 0.03071129 26.33847828 0.04054167 30.59147644 0.05158997 C34.92812135 0.06180383 39.26477171 0.06638355 43.60142517 0.07142639 C52.11641647 0.08216393 60.63137363 0.09976082 69.14634705 0.12025452 C69.14634705 6.72025452 69.14634705 13.32025452 69.14634705 20.12025452 C60.89634705 20.12025452 52.64634705 20.12025452 44.14634705 20.12025452 C44.14634705 32.99025452 44.14634705 45.86025452 44.14634705 59.12025452 C36.55634705 59.12025452 28.96634705 59.12025452 21.14634705 59.12025452 C21.14634705 46.58025452 21.14634705 34.04025452 21.14634705 21.12025452 C12.89634705 20.79025452 4.64634705 20.46025452 -3.85365295 20.12025452 C-3.88459045 15.44869202 -3.88459045 15.44869202 -3.91615295 10.68275452 C-3.92525696 9.69992493 -3.93436096 8.71709534 -3.94374084 7.70448303 C-3.9462384 6.93547668 -3.94873596 6.16647034 -3.9513092 5.37416077 C-3.95916443 4.18802185 -3.95916443 4.18802185 -3.96717834 2.97792053 C-3.77788122 -0.11963178 -3.1352046 0.13211926 0 0 Z " fill="#003F8B" transform="translate(785.8536529541016,51.87974548339844)"/>
<path d="M0 0 C1.40958984 -0.00193359 1.40958984 -0.00193359 2.84765625 -0.00390625 C3.83636719 -0.00003906 4.82507813 0.00382812 5.84375 0.0078125 C7.32681641 0.00201172 7.32681641 0.00201172 8.83984375 -0.00390625 C9.77957031 -0.00261719 10.71929688 -0.00132813 11.6875 0 C12.55568359 0.00112793 13.42386719 0.00225586 14.31835938 0.00341797 C16.34375 0.1328125 16.34375 0.1328125 17.34375 1.1328125 C17.43239512 4.01692425 17.45903526 6.87764059 17.44140625 9.76171875 C17.44039917 10.52738159 17.43939209 11.29304443 17.43835449 12.08190918 C17.43310663 14.95305877 17.41914547 17.82418708 17.40625 20.6953125 C17.385625 27.1096875 17.365 33.5240625 17.34375 40.1328125 C31.20375 40.1328125 45.06375 40.1328125 59.34375 40.1328125 C59.34375 46.4028125 59.34375 52.6728125 59.34375 59.1328125 C37.89375 59.1328125 16.44375 59.1328125 -5.65625 59.1328125 C-5.6871875 44.80875 -5.6871875 44.80875 -5.71875 30.1953125 C-5.73240601 25.66695679 -5.73240601 25.66695679 -5.74633789 21.04711914 C-5.7492568 18.67073613 -5.75180541 16.29435262 -5.75390625 13.91796875 C-5.75902222 12.6707605 -5.76413818 11.42355225 -5.76940918 10.1385498 C-5.76953003 8.96111206 -5.76965088 7.78367432 -5.76977539 6.57055664 C-5.77310631 5.0283419 -5.77310631 5.0283419 -5.77650452 3.45497131 C-5.56184162 -0.69024791 -3.66765973 0.00476496 0 0 Z " fill="#003F8B" transform="translate(598.65625,51.8671875)"/>
<path d="M0 0 C-2.33155438 3.02304929 -4.60625931 5.68535609 -7.55078125 8.11328125 C-13.06424253 12.82980024 -18.09723107 18.02569308 -23.1875 23.1875 C-25.115505 25.142305 -27.04695367 27.09361537 -28.98046875 29.04296875 C-29.82504639 29.89914795 -30.66962402 30.75532715 -31.53979492 31.63745117 C-33.89715276 33.90123521 -36.4478782 35.95830256 -39 38 C-32.07 38.495 -32.07 38.495 -25 39 C-29.6034206 43.6034206 -34.60965635 46.54845279 -40.19042969 49.76538086 C-42.00237714 50.81387555 -43.80183149 51.88187665 -45.6015625 52.95117188 C-46.75449946 53.62101328 -47.90812277 54.28967502 -49.0625 54.95703125 C-50.10535156 55.56522705 -51.14820313 56.17342285 -52.22265625 56.80004883 C-55 58 -55 58 -57.37109375 57.69018555 C-57.90863281 57.46242432 -58.44617188 57.23466309 -59 57 C-53 51 -47 45 -41 39 C-42.17506104 39.03665771 -43.35012207 39.07331543 -44.56079102 39.11108398 C-48.94191821 39.23827736 -53.32288414 39.31832151 -57.70532227 39.38452148 C-59.5978545 39.4196133 -61.49019844 39.46730138 -63.38208008 39.52807617 C-66.11066185 39.61350138 -68.83672623 39.65279829 -71.56640625 39.68359375 C-72.40522842 39.71972275 -73.2440506 39.75585175 -74.10829163 39.79307556 C-78.95258429 39.79627593 -81.54566789 39.04620487 -85.15209961 35.70727539 C-86.89805603 33.89784241 -86.89805603 33.89784241 -88 32 C-87.79898071 29.8631134 -87.79898071 29.8631134 -87 28 C-85.06420898 26.48291016 -85.06420898 26.48291016 -82.49609375 25.0390625 C-81.06414673 24.21752686 -81.06414673 24.21752686 -79.60327148 23.37939453 C-77.44790102 22.18493998 -75.29246213 20.99060887 -73.13696289 19.79638672 C-67.68346002 16.75299169 -62.45185424 13.70053097 -57.4375 9.96875 C-39.40140365 -2.93742993 -21.23792468 -1.47485588 0 0 Z " fill="#BF9126" transform="translate(235,169)"/>
<path d="M0 0 C0.33 0.66 0.66 1.32 1 2 C1.62084473 2.300271 2.24168945 2.60054199 2.88134766 2.90991211 C5.26480019 4.13624486 6.28135305 5.32570683 7.8984375 7.44140625 C15.27324598 16.38476431 15.27324598 16.38476431 25.87890625 20.2109375 C31.26568335 20.5605538 36.6219722 20.44147439 42 20 C43.66842028 27.72416799 44.36980908 34.90455613 40.27734375 41.97705078 C37.96045331 45.11067575 35.49112877 47.92033985 32.8125 50.75 C31.98854736 51.68481201 31.16459473 52.61962402 30.31567383 53.58276367 C27.64453125 56.171875 27.64453125 56.171875 21 60 C14.07 59.67 7.14 59.34 0 59 C0 39.53 0 20.06 0 0 Z " fill="#E13D2A" transform="translate(53,110)"/>
<path d="M0 0 C9.9 0 19.8 0 30 0 C30.41702374 29.1916621 30.41702374 29.1916621 23.046875 37.96484375 C21.71128707 40.00717646 21.71128707 40.00717646 22.6328125 42.4609375 C23.99779842 44.99591135 25.46973747 47.3325492 27.125 49.6875 C30 53.77990431 30 53.77990431 30 56 C20.1 56 10.2 56 0 56 C1.44982588 52.3754353 2.73253514 49.71887651 4.75 46.5 C6.7317904 43.14682308 6.7317904 43.14682308 6.5625 39.375 C6.046875 38.59125 5.53125 37.8075 5 37 C4.303287 35.83881166 3.61638304 34.67170183 2.9375 33.5 C2.42509766 32.68015625 2.42509766 32.68015625 1.90234375 31.84375 C-0.09392356 27.76479688 -0.12056318 23.5098195 -0.09765625 19.04296875 C-0.09515869 18.04031982 -0.09266113 17.0376709 -0.09008789 16.00463867 C-0.08098389 14.74498291 -0.07187988 13.48532715 -0.0625 12.1875 C-0.041875 8.165625 -0.02125 4.14375 0 0 Z " fill="#003F8B" transform="translate(670,56)"/>
<path d="M0 0 C0.69895386 0.00141495 1.39790771 0.0028299 2.11804199 0.00428772 C4.31832429 0.00981955 6.51849923 0.02235848 8.71875 0.03515625 C10.22395685 0.04018009 11.72916532 0.04474143 13.234375 0.04882812 C16.89586735 0.05976648 20.55729817 0.07698266 24.21875 0.09765625 C20.69398812 8.80512357 8.39956841 13.39629151 0.59375 17.66015625 C-9.44597927 23.20492461 -19.3821434 28.90135085 -29.25244141 34.74243164 C-30.19780762 35.29922607 -31.14317383 35.85602051 -32.1171875 36.4296875 C-32.94782715 36.92186768 -33.7784668 37.41404785 -34.63427734 37.92114258 C-39.02740579 40.32852101 -42.64270073 40.05218826 -47.46875 39.66015625 C-48.5215918 39.5818457 -48.5215918 39.5818457 -49.59570312 39.50195312 C-51.32463054 39.3725776 -53.05300355 39.23583094 -54.78125 39.09765625 C-52.531747 36.00458962 -50.12788394 33.45226731 -47.23046875 30.984375 C-41.71700747 26.26785601 -36.68401893 21.07196317 -31.59375 15.91015625 C-29.665745 13.95535125 -27.73429633 12.00404088 -25.80078125 10.0546875 C-24.95620361 9.1985083 -24.11162598 8.3423291 -23.24145508 7.46020508 C-22.4295874 6.68056396 -21.61771973 5.90092285 -20.78125 5.09765625 C-19.63595825 3.9852356 -19.63595825 3.9852356 -18.4675293 2.8503418 C-13.06638792 -0.67367838 -6.25555775 -0.02522402 0 0 Z " fill="#012D88" transform="translate(249.78125,168.90234375)"/>
<path d="M0 0 C4.7569832 3.90752192 7.4881456 8.81527305 8.23632812 14.93212891 C8.97693289 25.10138235 8.41038588 33.36691717 1.96484375 41.59936523 C-2.07886958 44.87356099 -4.77346593 44.56715264 -9.80078125 44.26953125 C-10.63715622 44.24026047 -11.47353119 44.21098969 -12.33525085 44.18083191 C-14.99594264 44.08217954 -17.65344851 43.94786902 -20.3125 43.8125 C-22.12034852 43.73917603 -23.92829331 43.66818606 -25.73632812 43.59960938 C-30.15912391 43.42676282 -34.57940646 43.22193197 -39 43 C-35.76279038 39.1709934 -32.5212452 35.39478031 -28.9765625 31.84375 C-28.265 31.13089844 -27.5534375 30.41804688 -26.8203125 29.68359375 C-26.09585938 28.96300781 -25.37140625 28.24242187 -24.625 27.5 C-23.90828125 26.77941406 -23.1915625 26.05882812 -22.453125 25.31640625 C-18.35162199 21.22230668 -14.15067063 17.30855054 -9.76318359 13.52294922 C-7.62129287 11.67289185 -5.53937437 9.77499319 -3.5 7.8125 C-2.49453125 6.86310547 -2.49453125 6.86310547 -1.46875 5.89453125 C0.40846594 3.8726525 0.40846594 3.8726525 0 0 Z " fill="#001973" transform="translate(275,126)"/>
<path d="M0 0 C5.35124734 0.39693103 5.35124734 0.39693103 10 -2 C12.69921875 -1.5390625 12.69921875 -1.5390625 15.6875 -0.625 C16.68136719 -0.32851563 17.67523437 -0.03203125 18.69921875 0.2734375 C19.45847656 0.51320312 20.21773437 0.75296875 21 1 C20.38011163 5.56115392 20.38011163 5.56115392 18.66015625 7.546875 C12.19878387 12.41265175 8.01612075 12.54346581 0 12 C-3.50648775 11.34798282 -6.93080317 10.55029558 -10.3828125 9.65625 C-12.8736224 8.91892772 -12.8736224 8.91892772 -15 9 C-15.33 9.99 -15.66 10.98 -16 12 C-19.63 11.34 -23.26 10.68 -27 10 C-28 6 -28 6 -26.890625 4.11328125 C-26.34921875 3.51902344 -25.8078125 2.92476562 -25.25 2.3125 C-24.71890625 1.71050781 -24.1878125 1.10851563 -23.640625 0.48828125 C-17.80162319 -4.80852754 -6.69649097 -2.10085991 0 0 Z " fill="#003F8B" transform="translate(891,36)"/>
<path d="M0 0 C8.01322102 3.92042308 15.32088416 8.53280139 19 17 C21.4260102 29.25947613 19.90617076 42.62681919 19 55 C18.34 55 17.68 55 17 55 C16.83126877 54.48127823 16.66253754 53.96255646 16.48869324 53.42811584 C14.72063547 47.99288449 12.9521208 42.55780196 11.18334961 37.12280273 C10.5247055 35.09875176 9.86617499 33.07466382 9.20776367 31.05053711 C8.25730311 28.12864434 7.30642399 25.20688806 6.35546875 22.28515625 C6.0647197 21.39103531 5.77397064 20.49691437 5.47441101 19.57569885 C5.19434708 18.7154863 4.91428314 17.85527374 4.62573242 16.96899414 C4.35707367 16.14166779 4.08841492 15.31434143 3.81161499 14.46194458 C3.26114234 12.7921465 2.6982314 11.12640729 2.12417603 9.46456909 C1.84899139 8.66600494 1.57380676 7.8674408 1.2902832 7.04467773 C1.04212357 6.33697739 0.79396393 5.62927704 0.5382843 4.90013123 C0 3 0 3 0 0 Z " fill="#C52B40" transform="translate(23,32)"/>
<path d="M0 0 C-1.63169087 3.85337167 -4.2149066 6.76022856 -6.9375 9.875 C-11.99835759 15.75354336 -16.82698801 21.78501524 -21.58984375 27.90625 C-23.70543052 30.62188164 -25.84285812 33.31733632 -28 36 C-30.33528415 35.82701599 -31.69177582 35.29774631 -33.37890625 33.66796875 C-37 29.42788462 -37 29.42788462 -37 27 C-37.66 27 -38.32 27 -39 27 C-39 26.34 -39 25.68 -39 25 C-37.32590474 23.73961142 -35.58443119 22.56845516 -33.8203125 21.4375 C-32.17530762 20.36822266 -32.17530762 20.36822266 -30.49707031 19.27734375 C-29.63088074 18.71635986 -29.63088074 18.71635986 -28.74719238 18.14404297 C-25.94339239 16.30814459 -23.18859161 14.4024651 -20.4296875 12.5 C-19.34945312 11.75878906 -18.26921875 11.01757812 -17.15625 10.25390625 C-15.4940188 9.11211172 -13.83186677 7.97019279 -12.17285156 6.82373047 C-10.53220312 5.69076685 -8.88726615 4.56402125 -7.2421875 3.4375 C-6.2816748 2.77621094 -5.32116211 2.11492187 -4.33154297 1.43359375 C-2 0 -2 0 0 0 Z " fill="#DB9F00" transform="translate(196,228)"/>
<path d="M0 0 C1.37207031 1.73413086 1.37207031 1.73413086 2.578125 3.96484375 C3.23554688 5.16463867 3.23554688 5.16463867 3.90625 6.38867188 C4.3496875 7.22978516 4.793125 8.07089844 5.25 8.9375 C5.93835938 10.19336914 5.93835938 10.19336914 6.640625 11.47460938 C10 17.68845331 10 17.68845331 10 20 C1.61282353 17.85879693 -6.52537908 15.18596986 -14.6875 12.3125 C-15.87794922 11.89677734 -17.06839844 11.48105469 -18.29492188 11.05273438 C-21.19779593 10.03847718 -24.09943813 9.02084668 -27 8 C-27 7.34 -27 6.68 -27 6 C-23.25512292 4.79590683 -19.50342524 3.61464949 -15.75 2.4375 C-14.68652344 2.09525391 -13.62304688 1.75300781 -12.52734375 1.40039062 C-11.50253906 1.08134766 -10.47773438 0.76230469 -9.421875 0.43359375 C-8.00793457 -0.01415405 -8.00793457 -0.01415405 -6.56542969 -0.47094727 C-3.84631543 -1.03169342 -2.51543762 -1.15594199 0 0 Z " fill="#C22A41" transform="translate(152,17)"/>
<path d="M0 0 C-1.47547951 3.199008 -3.28988154 5.88306676 -5.40625 8.6953125 C-6.06753906 9.57574219 -6.72882813 10.45617187 -7.41015625 11.36328125 C-8.09980469 12.27464844 -8.78945312 13.18601562 -9.5 14.125 C-10.53447266 15.50365234 -10.53447266 15.50365234 -11.58984375 16.91015625 C-16.71888951 23.71888951 -16.71888951 23.71888951 -19 26 C-21.33837891 26.13525391 -21.33837891 26.13525391 -24.2265625 25.9765625 C-25.2578125 25.925 -26.2890625 25.8734375 -27.3515625 25.8203125 C-28.97191406 25.72363281 -28.97191406 25.72363281 -30.625 25.625 C-31.71296875 25.56828125 -32.8009375 25.5115625 -33.921875 25.453125 C-36.61522387 25.3113698 -39.3076793 25.15993358 -42 25 C-42 24.34 -42 23.68 -42 23 C-41.25016846 22.5875 -40.50033691 22.175 -39.7277832 21.75 C-36.8765922 20.17946768 -34.02704296 18.60602845 -31.1784668 17.03076172 C-29.95838361 16.35678668 -28.73770415 15.68388963 -27.51635742 15.01220703 C-19.70605988 10.7157382 -12.05928532 6.25244585 -4.53588867 1.46875 C-2 0 -2 0 0 0 Z " fill="#DB9F00" transform="translate(196,253)"/>
<path d="M0 0 C2.34732627 7.04197882 -3.34329034 16.5975936 -6.265625 23.05078125 C-8.58631243 27.36423289 -10.25507999 29.78643288 -14.859375 31.60546875 C-19.5375983 32.7848191 -24.18879984 33.11437669 -29 33 C-29.99 33 -30.98 33 -32 33 C-32 32.34 -32 31.68 -32 31 C-30.68945312 29.71069336 -30.68945312 29.71069336 -28.78125 28.15234375 C-22.68279758 22.96677695 -17.1338413 17.24072203 -11.5 11.5625 C-10.38044368 10.4379167 -9.26065371 9.31356595 -8.140625 8.18945312 C-5.42438466 5.46230656 -2.71131708 2.73204093 0 0 Z " fill="#003F8B" transform="translate(290,165)"/>
<path d="M0 0 C3.69876091 1.37287342 6.9514476 3.06355453 10.3125 5.125 C11.19550781 5.66382813 12.07851562 6.20265625 12.98828125 6.7578125 C13.65214844 7.16773438 14.31601563 7.57765625 15 8 C14.41106018 13.47283097 13.06575402 18.23436863 11.125 23.375 C10.74021484 24.45974609 10.74021484 24.45974609 10.34765625 25.56640625 C9.65754213 27.41480235 8.83709832 29.21335732 8 31 C7.01 31.33 6.02 31.66 5 32 C4.28344971 28.08641574 3.5715076 24.17202369 2.86376953 20.25683594 C2.62251323 18.92587836 2.38001315 17.59514559 2.13623047 16.26464844 C1.78544091 14.3489079 1.43953732 12.43227474 1.09375 10.515625 C0.88427734 9.36352539 0.67480469 8.21142578 0.45898438 7.02441406 C0 4 0 4 0 0 Z " fill="#003F8B" transform="translate(189,38)"/>
<path d="M0 0 C0 8.58 0 17.16 0 26 C-3.40570184 24.86476605 -3.86318087 24.17570121 -5.84765625 21.32421875 C-6.37037109 20.57849609 -6.89308594 19.83277344 -7.43164062 19.06445312 C-7.96982422 18.28005859 -8.50800781 17.49566406 -9.0625 16.6875 C-9.60455078 15.91470703 -10.14660156 15.14191406 -10.70507812 14.34570312 C-13.04936346 10.97561185 -15.23306644 7.71414526 -17 4 C-15.10751181 3.32389577 -13.2108398 2.65949561 -11.3125 2 C-10.25675781 1.62875 -9.20101562 1.2575 -8.11328125 0.875 C-5 0 -5 0 0 0 Z " fill="#DB9F00" transform="translate(237,206)"/>
<path d="M0 0 C6.93 0 13.86 0 21 0 C19.36230292 3.27539416 18.68414372 4.5606006 16.171875 6.83984375 C15.61886719 7.34580078 15.06585938 7.85175781 14.49609375 8.37304688 C13.91988281 8.88931641 13.34367187 9.40558594 12.75 9.9375 C12.18925781 10.44990234 11.62851562 10.96230469 11.05078125 11.49023438 C7.44243893 14.76940921 3.75347262 17.87210615 0 21 C0 14.07 0 7.14 0 0 Z " fill="#CD2C3D" transform="translate(52,169)"/>
<path d="M0 0 C-0.43591815 9.14280961 -1.0422461 18.02854522 -3 27 C-3.66 27 -4.32 27 -5 27 C-6.67585347 23.40003498 -8.33908513 19.79437864 -10 16.1875 C-10.71542969 14.65125977 -10.71542969 14.65125977 -11.4453125 13.08398438 C-11.89648438 12.10107422 -12.34765625 11.11816406 -12.8125 10.10546875 C-13.23144531 9.19949951 -13.65039062 8.29353027 -14.08203125 7.36010742 C-15 5 -15 5 -15 2 C-12.68762162 1.66582403 -10.37509396 1.33268085 -8.0625 1 C-6.77472656 0.814375 -5.48695312 0.62875 -4.16015625 0.4375 C-1 0 -1 0 0 0 Z " fill="#DB9F00" transform="translate(131,269)"/>
<path d="M0 0 C0 6.27 0 12.54 0 19 C-6.27 19 -12.54 19 -19 19 C-15.0005942 14.33402656 -11.03280669 9.87533865 -6.6875 5.5625 C-6.15060547 5.02173828 -5.61371094 4.48097656 -5.06054688 3.92382812 C-1.12679757 0 -1.12679757 0 0 0 Z " fill="#CF9B20" transform="translate(94,150)"/>
<path d="M0 0 C3.49510529 1.26655215 6.21445981 2.71316576 9.13671875 5.00390625 C9.87857422 5.57947266 10.62042969 6.15503906 11.38476562 6.74804688 C12.14466797 7.34681641 12.90457031 7.94558594 13.6875 8.5625 C15.21117211 9.75266994 16.73586293 10.94153722 18.26171875 12.12890625 C19.26658325 12.91890015 19.26658325 12.91890015 20.29174805 13.72485352 C21.98087438 15.06404297 21.98087438 15.06404297 24 16 C24 16.66 24 17.32 24 18 C15.585 18.495 15.585 18.495 7 19 C5.82905995 16.2100561 4.66309073 13.41821403 3.5 10.625 C2.99919922 9.43390625 2.99919922 9.43390625 2.48828125 8.21875 C2.17246094 7.45820312 1.85664062 6.69765625 1.53125 5.9140625 C1.23798828 5.2123291 0.94472656 4.5105957 0.64257812 3.78759766 C0 2 0 2 0 0 Z " fill="#BE2A43" transform="translate(101,0)"/>
<path d="M0 0 C4.16961775 1.38987258 5.50277277 4.32338851 7.75 7.875 C8.17410156 8.51308594 8.59820312 9.15117187 9.03515625 9.80859375 C10.11047152 11.48636578 11.06436478 13.24050898 12 15 C11 18 11 18 8.56640625 19.38671875 C7.57511719 19.81597656 6.58382812 20.24523437 5.5625 20.6875 C4.07943359 21.34298828 4.07943359 21.34298828 2.56640625 22.01171875 C-0 23 -0 23 -2 23 C-1.03644647 7.25512528 -1.03644647 7.25512528 0 0 Z " fill="#D93533" transform="translate(31,149)"/>
<path d="M0 0 C4.03521092 0.63662308 6.89325919 2.69561876 10.25 4.9375 C11.32765625 5.64777344 12.4053125 6.35804688 13.515625 7.08984375 C14.33546875 7.72019531 15.1553125 8.35054687 16 9 C16 9.66 16 10.32 16 11 C7.09 14.465 7.09 14.465 -2 18 C-3.64177401 14.71645198 -2.26642648 11.34371004 -1.5625 7.875 C-1.34110352 6.74384766 -1.34110352 6.74384766 -1.11523438 5.58984375 C-0.74942352 3.72538843 -0.37547644 1.86253286 0 0 Z " fill="#D93533" transform="translate(10,123)"/>
<path d="M0 0 C7.92 0 15.84 0 24 0 C24 0.66 24 1.32 24 2 C21.57602681 3.98007087 18.84521494 5.53985385 16.1875 7.1875 C15.44951172 7.66380859 14.71152344 8.14011719 13.95117188 8.63085938 C13.23896484 9.07623047 12.52675781 9.52160156 11.79296875 9.98046875 C11.1383667 10.39192139 10.48376465 10.80337402 9.80932617 11.22729492 C8 12 8 12 5 11 C3.61328125 9.00390625 3.61328125 9.00390625 2.3125 6.5625 C1.87550781 5.75941406 1.43851562 4.95632813 0.98828125 4.12890625 C0 2 0 2 0 0 Z " fill="#DB9F00" transform="translate(78,288)"/>
<path d="M0 0 C0.66 0 1.32 0 2 0 C1.37514309 9.78224261 -0.31343525 19.35794117 -2 29 C-2.66 29 -3.32 29 -4 29 C-4.89595613 26.94651665 -5.76606876 24.88174343 -6.625 22.8125 C-7.11226562 21.66394531 -7.59953125 20.51539062 -8.1015625 19.33203125 C-9.43507823 14.38642728 -7.79062668 12.381732 -5.34375 8.10546875 C-4.7353125 7.14253906 -4.126875 6.17960937 -3.5 5.1875 C-2.58734375 3.72376953 -2.58734375 3.72376953 -1.65625 2.23046875 C-1.1096875 1.49441406 -0.563125 0.75835937 0 0 Z " fill="#D03034" transform="translate(31,82)"/>
<path d="M0 0 C8.25 0 16.5 0 25 0 C23.4005386 3.19892281 22.17187081 5.15353735 19.875 7.75 C19.33617187 8.36359375 18.79734375 8.9771875 18.2421875 9.609375 C17.83226562 10.06828125 17.42234375 10.5271875 17 11 C12.91926294 10.34344577 9.70012441 8.20461021 6.25 6.0625 C5.64800781 5.70220703 5.04601562 5.34191406 4.42578125 4.97070312 C2.91274606 4.03920867 1.45105131 3.02538164 0 2 C0 1.34 0 0.68 0 0 Z " fill="#003F8B" transform="translate(242,95)"/>
<path d="M0 0 C0.66 0 1.32 0 2 0 C1.67 7.92 1.34 15.84 1 24 C-2.43970626 22.85343125 -2.8782229 22.15481722 -4.75 19.1875 C-5.19859375 18.50042969 -5.6471875 17.81335938 -6.109375 17.10546875 C-7.22451805 14.46923146 -7.04722855 13.64019593 -6 11 C-5.02235066 9.06095034 -3.99784886 7.14509158 -2.9375 5.25 C-2.11572266 3.77273437 -2.11572266 3.77273437 -1.27734375 2.265625 C-0.64505859 1.14414063 -0.64505859 1.14414063 0 0 Z " fill="#DB9F00" transform="translate(39,242)"/>
<path d="M0 0 C3.7952131 1.49097658 5.61042731 3.75700849 8 7 C5.8782637 8.33878572 3.75294812 9.67115476 1.625 11 C1.02171875 11.3815625 0.4184375 11.763125 -0.203125 12.15625 C-4.7734375 15 -4.7734375 15 -7 15 C-5.63408831 11.45756548 -4.09068516 8.07372071 -2.375 4.6875 C-1.70597656 3.36298828 -1.70597656 3.36298828 -1.0234375 2.01171875 C-0.68570313 1.34785156 -0.34796875 0.68398437 0 0 Z " fill="#003F8B" transform="translate(226,65)"/>
<path d="M0 0 C-1.50362259 3.78716158 -3.05487001 7.55245187 -4.625 11.3125 C-5.07101563 12.38113281 -5.51703125 13.44976562 -5.9765625 14.55078125 C-6.48316406 15.76314453 -6.48316406 15.76314453 -7 17 C-9.46800047 15.84826645 -11.04783565 14.95216435 -13 13 C-13 10 -13 10 -11.35546875 8.28125 C-10.64003906 7.6934375 -9.92460937 7.105625 -9.1875 6.5 C-6.17056027 4.0034828 -6.17056027 4.0034828 -3.36328125 1.28125 C-2 0 -2 0 0 0 Z " fill="#BA8B14" transform="translate(13,202)"/>
<path d="M0 0 C0.66 0 1.32 0 2 0 C2 4.95 2 9.9 2 15 C-0.64 14.67 -3.28 14.34 -6 14 C-5.41892368 10.2397015 -4.34800504 7.46964968 -2.4375 4.1875 C-1.98246094 3.39730469 -1.52742188 2.60710937 -1.05859375 1.79296875 C-0.53458984 0.90544922 -0.53458984 0.90544922 0 0 Z " fill="#DB9F00" transform="translate(57,280)"/>
<path d="M0 0 C12.87 0 25.74 0 39 0 C37.68 1.32 36.36 2.64 35 4 C35 3.01 35 2.02 35 1 C23.45 1 11.9 1 0 1 C0 0.67 0 0.34 0 0 Z " fill="#967B3B" transform="translate(196,169)"/>
<path d="M0 0 C5.75 1.875 5.75 1.875 8 3 C7.34 4.32 6.68 5.64 6 7 C2.58841744 5.86280581 1.88145399 4.95657056 0 2 C0 1.34 0 0.68 0 0 Z " fill="#DB9F00" transform="translate(32,211)"/>
</svg>
