<?xml version="1.0" encoding="UTF-8"?>
<!DOCTYPE svg PUBLIC "-//W3C//DTD SVG 1.1//EN" "http://www.w3.org/Graphics/SVG/1.1/DTD/svg11.dtd">
<svg xmlns="http://www.w3.org/2000/svg" version="1.1" width="1000px" height="159px" style="shape-rendering:geometricPrecision; text-rendering:geometricPrecision; image-rendering:optimizeQuality; fill-rule:evenodd; clip-rule:evenodd" xmlns:xlink="http://www.w3.org/1999/xlink">
<g><path style="opacity:0.998" fill="#2c903c" d="M 10.5,-0.5 C 336.5,-0.5 662.5,-0.5 988.5,-0.5C 993.859,1.52579 997.526,5.19245 999.5,10.5C 999.5,56.1667 999.5,101.833 999.5,147.5C 997.5,152.833 993.833,156.5 988.5,158.5C 662.5,158.5 336.5,158.5 10.5,158.5C 5.16667,156.5 1.5,152.833 -0.5,147.5C -0.5,101.833 -0.5,56.1667 -0.5,10.5C 1.83333,5.5 5.5,1.83333 10.5,-0.5 Z M 560.5,35.5 C 567.167,35.5 573.833,35.5 580.5,35.5C 580.5,64.5 580.5,93.5 580.5,122.5C 573.833,122.5 567.167,122.5 560.5,122.5C 560.5,93.5 560.5,64.5 560.5,35.5 Z M 70.5,36.5 C 95.5022,36.3334 120.502,36.5 145.5,37C 157.765,42.1789 163.098,51.5123 161.5,65C 163.013,77.9823 158.013,87.3156 146.5,93C 122.55,94.2938 98.5496,94.9605 74.5,95C 73.5161,103.749 73.1828,112.582 73.5,121.5C 67.1667,121.5 60.8333,121.5 54.5,121.5C 54.3334,99.1642 54.5,76.8308 55,54.5C 56.8391,45.5031 62.0058,39.5031 70.5,36.5 Z M 268.5,94.5 C 267.127,94.3433 265.793,94.51 264.5,95C 271.702,102.369 279.035,109.536 286.5,116.5C 289.315,117.901 290.648,119.901 290.5,122.5C 281.881,121.695 273.215,121.195 264.5,121C 255.833,112.333 247.167,103.667 238.5,95C 226.5,94.3333 214.5,94.3333 202.5,95C 202,95.5 201.5,96 201,96.5C 200.5,104.827 200.334,113.16 200.5,121.5C 194.167,121.5 187.833,121.5 181.5,121.5C 181.333,99.4975 181.5,77.4975 182,55.5C 183.769,46.4506 188.935,40.284 197.5,37C 222.5,36.3333 247.5,36.3333 272.5,37C 280.333,39.5 285.5,44.6667 288,52.5C 288.667,61.1667 288.667,69.8333 288,78.5C 284.95,88.0512 278.45,93.3846 268.5,94.5 Z M 406.5,86.5 C 380.833,86.5 355.167,86.5 329.5,86.5C 329.179,91.6946 329.513,96.6946 330.5,101.5C 330.611,102.117 330.944,102.617 331.5,103C 356.498,103.5 381.498,103.667 406.5,103.5C 406.5,109.5 406.5,115.5 406.5,121.5C 379.831,121.667 353.165,121.5 326.5,121C 317.667,118.833 312.167,113.333 310,104.5C 309.833,96.1667 309.667,87.8333 309.5,79.5C 309.387,69.7767 309.887,60.11 311,50.5C 313.106,44.7284 316.939,40.5617 322.5,38C 350.436,36.5252 378.436,36.0252 406.5,36.5C 406.5,42.1667 406.5,47.8333 406.5,53.5C 381.831,53.3334 357.164,53.5 332.5,54C 331.584,54.3742 330.75,54.8742 330,55.5C 329.501,59.8206 329.334,64.1539 329.5,68.5C 355.167,68.5 380.833,68.5 406.5,68.5C 406.5,74.5 406.5,80.5 406.5,86.5 Z M 447.5,62.5 C 446.501,81.4237 446.167,101.09 446.5,121.5C 440.167,121.5 433.833,121.5 427.5,121.5C 427.5,93.1667 427.5,64.8333 427.5,36.5C 435.507,36.3336 443.507,36.5003 451.5,37C 462.207,55.5821 473.041,74.0821 484,92.5C 494.455,73.7536 505.288,55.2536 516.5,37C 524.5,36.3333 532.5,36.3333 540.5,37C 539.167,65 539.167,93 540.5,121C 533.842,121.5 527.175,121.666 520.5,121.5C 520.667,101.497 520.5,81.4972 520,61.5C 511.167,77.8333 502.333,94.1667 493.5,110.5C 487.5,111.833 481.5,111.833 475.5,110.5C 466.503,94.2013 457.169,78.2013 447.5,62.5 Z M 698.5,86.5 C 672.833,86.5 647.167,86.5 621.5,86.5C 621.179,91.6946 621.513,96.6946 622.5,101.5C 622.611,102.117 622.944,102.617 623.5,103C 648.498,103.5 673.498,103.667 698.5,103.5C 698.5,109.5 698.5,115.5 698.5,121.5C 671.831,121.667 645.165,121.5 618.5,121C 611.255,119.423 606.089,115.256 603,108.5C 601.887,98.89 601.387,89.2233 601.5,79.5C 601.387,69.7767 601.887,60.11 603,50.5C 605.106,44.7284 608.939,40.5617 614.5,38C 642.436,36.5252 670.436,36.0252 698.5,36.5C 698.5,42.1667 698.5,47.8333 698.5,53.5C 673.831,53.3334 649.164,53.5 624.5,54C 623.584,54.3742 622.75,54.8742 622,55.5C 621.501,59.8206 621.334,64.1539 621.5,68.5C 647.167,68.5 672.833,68.5 698.5,68.5C 698.5,74.5 698.5,80.5 698.5,86.5 Z M 735.5,36.5 C 760.502,36.3334 785.502,36.5 810.5,37C 818.739,39.573 823.905,45.073 826,53.5C 826.881,62.5623 826.548,71.5623 825,80.5C 820.568,89.9727 813.068,94.806 802.5,95C 811.348,103.681 820.014,112.514 828.5,121.5C 828.333,121.833 828.167,122.167 828,122.5C 819.578,121.682 811.078,121.182 802.5,121C 793.833,112.333 785.167,103.667 776.5,95C 764.121,94.1869 751.787,94.3536 739.5,95.5C 738.502,104.141 738.169,112.808 738.5,121.5C 732.167,121.5 725.833,121.5 719.5,121.5C 719.333,98.8309 719.5,76.1642 720,53.5C 722.256,45.0814 727.423,39.4147 735.5,36.5 Z M 863.5,36.5 C 890.5,36.5 917.5,36.5 944.5,36.5C 944.5,42.1667 944.5,47.8333 944.5,53.5C 919.498,53.3334 894.498,53.5 869.5,54C 869,54.5 868.5,55 868,55.5C 867.501,59.8206 867.334,64.1539 867.5,68.5C 893.167,68.5 918.833,68.5 944.5,68.5C 944.5,74.5 944.5,80.5 944.5,86.5C 918.833,86.5 893.167,86.5 867.5,86.5C 866.913,92.3027 867.58,97.8027 869.5,103C 894.498,103.5 919.498,103.667 944.5,103.5C 944.5,109.5 944.5,115.5 944.5,121.5C 917.498,121.667 890.498,121.5 863.5,121C 856.091,118.592 850.924,113.758 848,106.5C 847.333,88.5 847.333,70.5 848,52.5C 850.685,44.6498 855.852,39.3165 863.5,36.5 Z"/></g>
<g><path style="opacity:1" fill="#2b903c" d="M 75.5,54.5 C 97.5025,54.3334 119.503,54.5 141.5,55C 142,55.5 142.5,56 143,56.5C 143.667,62.5 143.667,68.5 143,74.5C 120,75.1667 97,75.8333 74,76.5C 72.9268,68.8954 73.4268,61.5621 75.5,54.5 Z"/></g>
<g><path style="opacity:1" fill="#329241" d="M 202.5,54.5 C 224.503,54.3334 246.503,54.5 268.5,55C 269,55.5 269.5,56 270,56.5C 270.667,62.1667 270.667,67.8333 270,73.5C 269.5,74.6667 268.667,75.5 267.5,76C 245.169,76.5 222.836,76.6666 200.5,76.5C 200.334,69.825 200.5,63.1583 201,56.5C 201.717,55.9558 202.217,55.2891 202.5,54.5 Z"/></g>
<g><path style="opacity:1" fill="#31923f" d="M 740.5,54.5 C 762.169,54.3334 783.836,54.5 805.5,55C 806.783,58.0636 807.45,61.3969 807.5,65C 807.333,68.1667 807.167,71.3333 807,74.5C 806.25,75.1258 805.416,75.6258 804.5,76C 782.503,76.5 760.503,76.6666 738.5,76.5C 737.924,68.889 738.59,61.5556 740.5,54.5 Z"/></g>
<g><path style="opacity:0.098" fill="#85bf8f" d="M 447.5,62.5 C 447.5,82.5 447.5,102.5 447.5,122.5C 440.646,122.824 433.979,122.491 427.5,121.5C 433.833,121.5 440.167,121.5 446.5,121.5C 446.167,101.09 446.501,81.4237 447.5,62.5 Z"/></g>
<g><path style="opacity:0.318" fill="#50a35d" d="M 406.5,86.5 C 381.339,87.4977 356.005,87.8311 330.5,87.5C 330.5,92.1667 330.5,96.8333 330.5,101.5C 329.513,96.6946 329.179,91.6946 329.5,86.5C 355.167,86.5 380.833,86.5 406.5,86.5 Z"/></g>
<g><path style="opacity:0.318" fill="#4fa25c" d="M 698.5,86.5 C 673.339,87.4977 648.005,87.8311 622.5,87.5C 622.5,92.1667 622.5,96.8333 622.5,101.5C 621.513,96.6946 621.179,91.6946 621.5,86.5C 647.167,86.5 672.833,86.5 698.5,86.5 Z"/></g>
<g><path style="opacity:1" fill="#43994d" d="M 268.5,94.5 C 274.238,101.744 280.572,108.577 287.5,115C 286.944,115.383 286.611,115.883 286.5,116.5C 279.035,109.536 271.702,102.369 264.5,95C 265.793,94.51 267.127,94.3433 268.5,94.5 Z"/></g>
</svg>
