<?xml version="1.0" encoding="UTF-8"?>
<!DOCTYPE svg PUBLIC "-//W3C//DTD SVG 1.1//EN" "http://www.w3.org/Graphics/SVG/1.1/DTD/svg11.dtd">
<svg xmlns="http://www.w3.org/2000/svg" version="1.1" width="1000px" height="308px" style="shape-rendering:geometricPrecision; text-rendering:geometricPrecision; image-rendering:optimizeQuality; fill-rule:evenodd; clip-rule:evenodd" xmlns:xlink="http://www.w3.org/1999/xlink">
<g><path style="opacity:0.966" fill="#00a7e0" d="M 197.5,-0.5 C 201.167,-0.5 204.833,-0.5 208.5,-0.5C 220.129,5.34673 222.629,14.0134 216,25.5C 207.629,31.9334 199.129,32.1001 190.5,26C 185.819,19.5268 185.319,12.6935 189,5.5C 191.322,2.60473 194.155,0.60473 197.5,-0.5 Z"/></g>
<g><path style="opacity:0.94" fill="#222e3d" d="M 652.5,-0.5 C 656.5,-0.5 660.5,-0.5 664.5,-0.5C 673.564,3.63739 676.73,10.6374 674,20.5C 670.813,27.1016 665.479,30.435 658,30.5C 642.482,27.4643 638.149,18.7976 645,4.5C 647.426,2.54763 649.926,0.880961 652.5,-0.5 Z"/></g>
<g><path style="opacity:0.96" fill="#222e3d" d="M 758.5,0.5 C 766.84,0.3336 775.173,0.500266 783.5,1C 784,1.5 784.5,2 785,2.5C 785.667,48.5 785.667,94.5 785,140.5C 784.5,141 784,141.5 783.5,142C 776.5,142.667 769.5,142.667 762.5,142C 759.905,140.28 758.405,137.78 758,134.5C 746.438,144.346 733.271,147.18 718.5,143C 706.757,138.924 698.59,131.091 694,119.5C 687.537,100.233 688.203,81.2328 696,62.5C 706.23,44.9722 721.397,38.1389 741.5,42C 746.644,43.4892 751.478,45.6558 756,48.5C 756.333,33.1667 756.667,17.8333 757,2.5C 757.717,1.9558 758.217,1.28913 758.5,0.5 Z M 732.5,63.5 C 740.762,62.6445 748.595,63.9778 756,67.5C 756.667,84.1667 756.667,100.833 756,117.5C 744.714,124.76 734.047,124.093 724,115.5C 722.073,112.052 720.739,108.385 720,104.5C 719.154,95.4469 719.487,86.4469 721,77.5C 722.748,70.9397 726.582,66.2731 732.5,63.5 Z"/></g>
<g><path style="opacity:0.963" fill="#222e3d" d="M 999.5,79.5 C 999.5,86.8333 999.5,94.1667 999.5,101.5C 998.167,101.833 998.167,102.167 999.5,102.5C 999.5,103.5 999.5,104.5 999.5,105.5C 992.713,135.09 974.046,148.256 943.5,145C 923.737,142.898 910.903,132.398 905,113.5C 899.013,92.7193 902.013,73.386 914,55.5C 922.95,46.621 933.783,41.7876 946.5,41C 974.825,39.527 992.492,52.3603 999.5,79.5 Z M 949.5,63.5 C 962.574,64.7477 969.408,72.081 970,85.5C 971.152,95.0766 970.152,104.41 967,113.5C 961.771,122.021 954.271,124.855 944.5,122C 940,120.167 936.833,117 935,112.5C 930.83,100.614 930.496,88.6136 934,76.5C 936.668,68.9851 941.834,64.6518 949.5,63.5 Z"/></g>
<g><path style="opacity:0.981" fill="#00a7e0" d="M -0.5,179.5 C -0.5,135.167 -0.5,90.8333 -0.5,46.5C 0.28913,46.2172 0.955796,45.7172 1.5,45C 8.5,44.3333 15.5,44.3333 22.5,45C 24.2353,47.1922 25.402,49.6922 26,52.5C 39.5047,41.2491 54.6714,38.4158 71.5,44C 84.1429,50.3268 91.9763,60.4935 95,74.5C 98.7525,92.7021 96.4192,110.035 88,126.5C 76.6376,142.289 61.471,147.789 42.5,143C 37.8878,141.361 33.5545,139.194 29.5,136.5C 28.6672,151.155 28.1672,165.822 28,180.5C 19.5787,181.649 11.0787,181.816 2.5,181C 1.47344,180.487 0.473444,179.987 -0.5,179.5 Z M 40.5,63.5 C 54.6281,61.1257 63.1281,66.7923 66,80.5C 68.1543,92.1117 67.1543,103.445 63,114.5C 57.1644,121.779 49.6644,124.279 40.5,122C 36.3451,121.282 32.5118,119.782 29,117.5C 28.3333,101.167 28.3333,84.8333 29,68.5C 32.7225,66.324 36.5559,64.6573 40.5,63.5 Z"/></g>
<g><path style="opacity:0.977" fill="#00a7e0" d="M 291.5,41.5 C 305.081,38.8059 316.414,42.4725 325.5,52.5C 340.839,41.6631 357.505,38.8297 375.5,44C 383.086,48.2701 387.586,54.7701 389,63.5C 389.667,89.1667 389.667,114.833 389,140.5C 388.5,141 388,141.5 387.5,142C 379.167,142.667 370.833,142.667 362.5,142C 362,141.5 361.5,141 361,140.5C 360.667,117.833 360.333,95.1667 360,72.5C 358.766,66.6043 355.099,63.6043 349,63.5C 342.313,63.9215 335.979,65.5882 330,68.5C 329.667,92.5 329.333,116.5 329,140.5C 328.5,141 328,141.5 327.5,142C 319.167,142.667 310.833,142.667 302.5,142C 302,141.5 301.5,141 301,140.5C 300.667,118.5 300.333,96.5 300,74.5C 299.627,67.295 295.794,63.6284 288.5,63.5C 281.869,64.0744 275.535,65.7411 269.5,68.5C 268.667,92.4931 268.167,116.493 268,140.5C 267.5,141 267,141.5 266.5,142C 257.921,142.816 249.421,142.649 241,141.5C 239.847,125.589 239.347,109.589 239.5,93.5C 239.347,77.4111 239.847,61.4111 241,45.5C 248.086,44.3544 255.253,44.1877 262.5,45C 264.487,47.1398 265.82,49.6398 266.5,52.5C 274.348,47.4504 282.681,43.7838 291.5,41.5 Z"/></g>
<g><path style="opacity:0.972" fill="#00a7e0" d="M 448.5,41.5 C 461.89,40.4673 473.723,44.134 484,52.5C 491.453,62.069 493.453,72.7357 490,84.5C 486.574,92.3093 480.741,97.476 472.5,100C 458.954,103.952 445.287,104.452 431.5,101.5C 433.343,117.7 442.51,125.034 459,123.5C 467.938,122.709 476.771,121.542 485.5,120C 486,120.5 486.5,121 487,121.5C 487.667,126.833 487.667,132.167 487,137.5C 486.167,138.333 485.333,139.167 484.5,140C 467.04,146.445 449.373,147.112 431.5,142C 415.434,134.729 406.6,122.229 405,104.5C 401.853,83.6099 407.686,65.7766 422.5,51C 430.581,45.9206 439.247,42.7539 448.5,41.5 Z M 446.5,62.5 C 453.206,61.4075 459.039,63.0742 464,67.5C 467.008,79.1818 462.341,85.1818 450,85.5C 444.917,84.6929 439.75,84.1929 434.5,84C 433.376,83.7508 432.376,83.2508 431.5,82.5C 432.644,77.5678 434.478,72.9011 437,68.5C 439.843,65.8373 443.009,63.8373 446.5,62.5 Z"/></g>
<g><path style="opacity:0.953" fill="#222e3d" d="M 849.5,41.5 C 863.542,40.7874 875.375,45.4541 885,55.5C 893.26,69.6354 892.094,82.802 881.5,95C 871.554,101.029 860.721,103.862 849,103.5C 842.453,103.161 835.953,102.495 829.5,101.5C 831.389,117.716 840.556,125.049 857,123.5C 866.286,122.811 875.453,121.645 884.5,120C 885.126,120.75 885.626,121.584 886,122.5C 886.667,127.167 886.667,131.833 886,136.5C 884.891,138.815 883.057,140.315 880.5,141C 866.083,145.625 851.417,146.625 836.5,144C 822.335,140.501 812.502,132.001 807,118.5C 799.762,97.307 802.095,77.307 814,58.5C 823.535,47.8141 835.368,42.1474 849.5,41.5 Z M 844.5,62.5 C 850.072,61.9896 855.405,62.8229 860.5,65C 866.032,73.8761 864.032,80.2095 854.5,84C 846.103,84.8699 837.77,84.5365 829.5,83C 830.624,73.0795 835.624,66.2461 844.5,62.5 Z"/></g>
<g><path style="opacity:0.964" fill="#00a7e0" d="M 168.5,42.5 C 171.625,42.8182 174.458,43.8182 177,45.5C 177.667,52.8333 177.667,60.1667 177,67.5C 176.5,68 176,68.5 175.5,69C 164.571,68.7688 153.905,70.2688 143.5,73.5C 142.667,95.8259 142.167,118.159 142,140.5C 141.5,141 141,141.5 140.5,142C 132.167,142.667 123.833,142.667 115.5,142C 115,141.5 114.5,141 114,140.5C 113.174,108.791 113.341,77.1247 114.5,45.5C 121.769,43.0569 129.102,42.8903 136.5,45C 138.575,48.8878 140.075,53.0545 141,57.5C 148.483,49.1793 157.65,44.1793 168.5,42.5 Z"/></g>
<g><path style="opacity:0.982" fill="#00a7e0" d="M 193.5,43.5 C 200.175,43.3337 206.842,43.5004 213.5,44C 215.061,44.3176 216.228,45.1509 217,46.5C 217.667,77.8333 217.667,109.167 217,140.5C 216.25,141.126 215.416,141.626 214.5,142C 206.833,142.667 199.167,142.667 191.5,142C 190.584,141.626 189.75,141.126 189,140.5C 188.333,109.167 188.333,77.8333 189,46.5C 190.409,45.2189 191.909,44.2189 193.5,43.5 Z"/></g>
<g><path style="opacity:0.957" fill="#222e3d" d="M 537.5,43.5 C 544.841,43.3337 552.174,43.5003 559.5,44C 560.766,44.3095 561.933,44.8095 563,45.5C 570.198,68.0952 577.198,90.7618 584,113.5C 590.511,91.1209 597.178,68.7876 604,46.5C 604.75,45.8742 605.584,45.3742 606.5,45C 615.412,44.1837 624.245,44.3503 633,45.5C 633.667,47.1667 633.667,48.8333 633,50.5C 621.529,80.5787 609.863,110.579 598,140.5C 597.25,141.126 596.416,141.626 595.5,142C 587.833,142.667 580.167,142.667 572.5,142C 571.069,141.535 569.903,140.701 569,139.5C 557.667,110.167 546.333,80.8333 535,51.5C 534.503,49.1902 534.337,46.8568 534.5,44.5C 535.791,44.7373 536.791,44.404 537.5,43.5 Z"/></g>
<g><path style="opacity:0.958" fill="#222e3d" d="M 645.5,44.5 C 654.418,44.1828 663.251,44.5161 672,45.5C 672.167,61.5 672.333,77.5 672.5,93.5C 672.492,109.886 671.826,126.053 670.5,142C 662.167,142.667 653.833,142.667 645.5,142C 644.874,141.25 644.374,140.416 644,139.5C 643.333,108.5 643.333,77.5 644,46.5C 644.717,45.9558 645.217,45.2891 645.5,44.5 Z"/></g>
<g><path style="opacity:0.969" fill="#00a7e0" d="M 713.5,184.5 C 725.27,184.019 736.937,184.852 748.5,187C 754.148,187.735 758.314,190.568 761,195.5C 762.137,225.754 753.803,253.088 736,277.5C 732.23,282.608 727.563,286.608 722,289.5C 719.709,288.876 718.543,287.376 718.5,285C 724.465,269.104 729.632,252.937 734,236.5C 735.414,229.215 735.747,221.882 735,214.5C 730.822,210.154 725.655,207.987 719.5,208C 702.039,207.208 684.706,208.375 667.5,211.5C 661.645,209.586 660.978,206.419 665.5,202C 680.182,192.275 696.182,186.442 713.5,184.5 Z"/></g>
<g><path style="opacity:0.98" fill="#00a8e0" d="M 515.5,307.5 C 506.833,307.5 498.167,307.5 489.5,307.5C 394.069,302.523 312.235,266.857 244,200.5C 241.089,195.477 242.256,192.144 247.5,190.5C 386.959,273.921 532.959,287.421 685.5,231C 692.167,228 698.833,225 705.5,222C 716.065,220.227 719.899,224.393 717,234.5C 695.753,252.891 671.919,267.391 645.5,278C 603.737,295.316 560.404,305.149 515.5,307.5 Z"/></g>
</svg>
