<?xml version="1.0" encoding="UTF-8"?>
<!DOCTYPE svg PUBLIC "-//W3C//DTD SVG 1.1//EN" "http://www.w3.org/Graphics/SVG/1.1/DTD/svg11.dtd">
<svg xmlns="http://www.w3.org/2000/svg" version="1.1" width="409px" height="350px" style="shape-rendering:geometricPrecision; text-rendering:geometricPrecision; image-rendering:optimizeQuality; fill-rule:evenodd; clip-rule:evenodd" xmlns:xlink="http://www.w3.org/1999/xlink">
<g><path style="opacity:0.991" fill="#0171bc" d="M 94.5,-0.5 C 168.5,-0.5 242.5,-0.5 316.5,-0.5C 365.011,6.50114 394.511,34.1678 405,82.5C 406.63,91.5914 407.797,100.591 408.5,109.5C 408.5,142.167 408.5,174.833 408.5,207.5C 404.342,236.649 392.009,261.816 371.5,283C 352.382,297.939 330.715,307.272 306.5,311C 237.167,311.333 167.833,311.667 98.5,312C 81.4542,312.261 64.4542,313.261 47.5,315C 26.8839,319.294 11.8839,330.794 2.5,349.5C 1.5,349.5 0.5,349.5 -0.5,349.5C -0.5,267.167 -0.5,184.833 -0.5,102.5C 6.6009,45.4026 38.2676,11.0693 94.5,-0.5 Z"/></g>
<g><path style="opacity:1" fill="#fefefe" d="M 109.5,192.5 C 109.44,191.957 109.107,191.624 108.5,191.5C 107.5,213.156 107.167,234.823 107.5,256.5C 91.5,256.5 75.5,256.5 59.5,256.5C 59.5,189.833 59.5,123.167 59.5,56.5C 84.5022,56.3334 109.502,56.5 134.5,57C 171.153,55.5536 195.32,72.0536 207,106.5C 211.321,127.575 207.988,147.242 197,165.5C 188.033,177.457 176.2,184.957 161.5,188C 160.978,188.561 160.645,189.228 160.5,190C 177.629,211.966 194.963,233.8 212.5,255.5C 193.175,256.666 173.842,256.833 154.5,256C 139.368,234.892 124.368,213.725 109.5,192.5 Z"/></g>
<g><path style="opacity:1" fill="#fefefe" d="M 222.5,56.5 C 266.167,56.5 309.833,56.5 353.5,56.5C 353.667,69.8375 353.5,83.1708 353,96.5C 329.371,149.593 305.871,202.759 282.5,256C 263.833,256.667 245.167,256.667 226.5,256C 251.193,204.449 275.193,152.616 298.5,100.5C 273.199,99.5279 247.866,99.1945 222.5,99.5C 222.5,85.1667 222.5,70.8333 222.5,56.5 Z"/></g>
<g><path style="opacity:1" fill="#0371bc" d="M 108.5,101.5 C 116.84,101.334 125.173,101.5 133.5,102C 153.902,104.732 162.402,116.232 159,136.5C 154.486,150.694 144.652,157.361 129.5,156.5C 122.5,156.5 115.5,156.5 108.5,156.5C 108.5,138.167 108.5,119.833 108.5,101.5 Z"/></g>
<g><path style="opacity:1" fill="#99c6e3" d="M 108.5,101.5 C 108.5,119.833 108.5,138.167 108.5,156.5C 115.5,156.5 122.5,156.5 129.5,156.5C 122.352,157.492 115.019,157.825 107.5,157.5C 107.17,138.659 107.503,119.993 108.5,101.5 Z"/></g>
<g><path style="opacity:1" fill="#b1d2ea" d="M 109.5,192.5 C 108.503,213.994 108.169,235.66 108.5,257.5C 91.9915,257.83 75.6581,257.496 59.5,256.5C 75.5,256.5 91.5,256.5 107.5,256.5C 107.167,234.823 107.5,213.156 108.5,191.5C 109.107,191.624 109.44,191.957 109.5,192.5 Z"/></g>
</svg>
