<?xml version="1.0" encoding="UTF-8"?>
<svg version="1.1" xmlns="http://www.w3.org/2000/svg" width="928" height="350">
<path d="M0 0 C2.08964879 1.42830387 4.17349345 2.86515603 6.25 4.3125 C7.69052734 5.22515625 7.69052734 5.22515625 9.16015625 6.15625 C29.42602587 19.03039598 50.01920848 36.7199572 65.25 55.3125 C66.11787847 56.33236036 66.98786641 57.35042747 67.859375 58.3671875 C80.00409755 72.55366761 90.31885301 87.50946661 100.25 103.3125 C100.69988281 104.01761719 101.14976562 104.72273437 101.61328125 105.44921875 C103.81738569 108.9225598 105.83900947 112.41856154 107.75 116.0625 C110.23778195 120.52361517 112.46476242 123.49994334 117.56640625 124.98828125 C119.78808332 125.49937128 122.00133241 125.9401716 124.25 126.3125 C122.87300595 139.77644185 113.89434751 151.52117525 106.25 162.3125 C105.51394531 163.36953125 104.77789062 164.4265625 104.01953125 165.515625 C93.2014229 180.33699204 79.91365074 193.33218028 64.31494141 203.02099609 C62.79999009 203.96851234 61.29889231 204.93827375 59.80615234 205.92041016 C52.69500305 210.56936118 45.35428533 214.53157202 37.75 218.3125 C36.83025894 218.77055023 36.83025894 218.77055023 35.89193726 219.237854 C25.57176515 224.35855902 15.20361836 228.73420474 4.25 232.3125 C2.22133009 232.99602229 0.19268582 233.6796207 -1.8359375 234.36328125 C-30.82747688 244.00952107 -59.66426442 247.84667185 -90.1875 248.8125 C-106.57553426 248.14904363 -106.57553426 248.14904363 -121.75 252.3125 C-123.50322937 254.84438648 -123.50322937 254.84438648 -124.75 257.3125 C-131.62714615 255.64531305 -135.16894265 249.8618756 -138.6953125 244.17578125 C-167.2684305 193.16341006 -163.29213417 127.71806827 -148.12158203 73.58547974 C-144.14653017 59.64654379 -138.99590653 46.35850051 -133.02392578 33.14697266 C-131.84803566 30.53062841 -130.71057973 27.90206102 -129.58984375 25.26171875 C-124.90487505 14.29806766 -119.58509811 3.64663758 -113.01171875 -6.32421875 C-110.88635077 -10.30517116 -111.1768936 -14.29126612 -111.75 -18.6875 C-113.21111016 -21.48647943 -113.21111016 -21.48647943 -114.75 -23.6875 C-114.4375 -26 -114.4375 -26 -113.75 -27.6875 C-80.37683407 -38.57952543 -27.4787152 -18.00655699 0 0 Z " fill="#0059FF" transform="translate(210.75,55.6875)"/>
<path d="M0 0 C40.92 0 81.84 0 124 0 C124 40.92 124 81.84 124 124 C83.08 124 42.16 124 0 124 C0 83.08 0 42.16 0 0 Z M40.2421875 35.09765625 C36.4347658 40.92851904 37.09894651 49.68090063 38.47265625 56.265625 C41.21811042 62.39116094 48.12551143 64.73331631 54 67 C57.70669596 68.16920933 61.44023916 69.23622199 65.21166992 70.17626953 C69.49680467 71.29872087 72.36724161 72.34300923 75 76 C74.9375 79.625 74.9375 79.625 74 83 C69.41005146 86.05996569 64.86153866 86.4834563 59.43359375 85.56640625 C55.10802261 84.39751145 51.69214235 82.97871146 48.125 80.25 C45.3717018 77.7819648 45.3717018 77.7819648 43.0078125 78.07421875 C40.25120226 79.34526277 39.33649512 81.00247378 37.75 83.5625 C37.22921875 84.38878906 36.7084375 85.21507812 36.171875 86.06640625 C35.78515625 86.70449219 35.3984375 87.34257812 35 88 C43.96882995 96.71969578 55.70426689 99.40228395 67.8984375 99.28125 C75.42315548 98.59890782 81.76412426 95.36358002 87 90 C90.8905047 83.50341559 90.78144097 77.38417818 90 70 C86.910229 63.22627126 81.66121557 59.45278548 74.875 56.875 C69.86761851 55.16933927 64.79879769 53.91691935 59.62890625 52.80859375 C56.81080982 51.94180926 55.11404485 51.05013187 53 49 C52.25772472 43.06179775 52.25772472 43.06179775 54.1796875 40.3125 C58.10873672 37.47953747 63.41787013 38.38274707 68 39 C71.56237052 40.33588895 74.71619756 42.09950713 78 44 C78.99 44.33 79.98 44.66 81 45 C83.31 41.37 85.62 37.74 88 34 C73.69269013 23.2695176 52.65188646 19.63006496 40.2421875 35.09765625 Z " fill="#0059FF" transform="translate(804,113)"/>
<path d="M0 0 C20.439375 -0.020625 40.87875 -0.04125 61.9375 -0.0625 C68.40206787 -0.071604 74.86663574 -0.08070801 81.52709961 -0.09008789 C89.39367676 -0.09460449 89.39367676 -0.09460449 93.07106018 -0.09544373 C95.65103541 -0.09698388 98.23096251 -0.10014105 100.81092834 -0.10557556 C104.70851015 -0.11367754 108.60607148 -0.11390758 112.50366211 -0.11352539 C113.66174094 -0.1171235 114.81981977 -0.12072161 116.01299191 -0.12442875 C117.05553914 -0.12305125 118.09808638 -0.12167376 119.17222595 -0.12025452 C120.54247122 -0.12163721 120.54247122 -0.12163721 121.94039822 -0.12304783 C124 0 124 0 125 1 C125.09807591 2.56430824 125.12631875 4.13304462 125.12698364 5.70042419 C125.13121338 7.22531967 125.13121338 7.22531967 125.13552856 8.78102112 C125.13249222 10.46807411 125.13249222 10.46807411 125.12939453 12.18920898 C125.13202301 13.9548822 125.13202301 13.9548822 125.13470459 15.75622559 C125.13836287 18.99381444 125.13748948 22.23136271 125.1343255 25.46895099 C125.13180101 28.85129557 125.13413975 32.23363737 125.13571167 35.61598206 C125.13753335 41.29811086 125.13512735 46.98022668 125.13037109 52.66235352 C125.12493109 59.23737613 125.12668923 65.81236774 125.1321975 72.3873896 C125.13673178 78.02476436 125.13737755 83.66212977 125.13475883 89.29950577 C125.13319746 92.66980851 125.13299843 96.04009667 125.13629532 99.41039848 C125.13882322 103.16741941 125.13497912 106.92438007 125.12939453 110.68139648 C125.13141876 111.80407425 125.13344299 112.92675201 125.13552856 114.08345032 C125.13270874 115.10286713 125.12988892 116.12228394 125.12698364 117.17259216 C125.1264181 118.50632197 125.1264181 118.50632197 125.12584114 119.86699581 C125 122 125 122 124 124 C83.08 124 42.16 124 0 124 C0 83.08 0 42.16 0 0 Z M35 26 C35 49.43 35 72.86 35 97 C52.82 97 70.64 97 89 97 C89 93.04 89 89.08 89 85 C76.13 85 63.26 85 50 85 C50 79.39 50 73.78 50 68 C61.22 68 72.44 68 84 68 C84 63.71 84 59.42 84 55 C72.78 55 61.56 55 50 55 C50 49.72 50 44.44 50 39 C62.54 39 75.08 39 88 39 C88 34.71 88 30.42 88 26 C70.51 26 53.02 26 35 26 Z " fill="#0059FF" transform="translate(522,113)"/>
<path d="M0 0 C41.25 0 82.5 0 125 0 C125 40.92 125 81.84 125 124 C104.560625 124.020625 84.12125 124.04125 63.0625 124.0625 C56.59793213 124.071604 50.13336426 124.08070801 43.47290039 124.09008789 C35.60632324 124.09460449 35.60632324 124.09460449 31.92893982 124.09544373 C29.34896459 124.09698388 26.76903749 124.10014105 24.18907166 124.10557556 C20.29148985 124.11367754 16.39392852 124.11390758 12.49633789 124.11352539 C11.33825906 124.1171235 10.18018023 124.12072161 8.98700809 124.12442875 C7.94446086 124.12305125 6.90191362 124.12167376 5.82777405 124.12025452 C4.45752878 124.12163721 4.45752878 124.12163721 3.05960178 124.12304783 C1 124 1 124 0 123 C-0.09597204 121.40577964 -0.12187924 119.8072955 -0.12025452 118.21018982 C-0.12163201 117.17603911 -0.12300951 116.14188841 -0.12442875 115.0763998 C-0.12083064 113.92768933 -0.11723253 112.77897886 -0.11352539 111.59545898 C-0.11364593 110.37613961 -0.11376646 109.15682024 -0.11389065 107.9005518 C-0.1132656 104.59181125 -0.1083066 101.28313274 -0.10128021 97.97440338 C-0.09560002 94.87360226 -0.0953179 91.77280278 -0.09460449 88.67199707 C-0.08934985 79.59382659 -0.0753888 70.51566285 -0.0625 61.4375 C-0.041875 41.163125 -0.02125 20.88875 0 0 Z M31 26 C31 49.43 31 72.86 31 97 C35.95 97 40.9 97 46 97 C46 82.15 46 67.3 46 52 C46.66 52 47.32 52 48 52 C48.2475 52.54527344 48.495 53.09054688 48.75 53.65234375 C50.26369553 56.49525318 52.08421122 58.97407215 54 61.5625 C56.05633227 64.34837662 58.0790625 67.11859376 60 70 C60.66 70 61.32 70 62 70 C62.2475 70.70511719 62.495 71.41023438 62.75 72.13671875 C64.16103659 75.36887443 65.9250726 77.96328902 68 80.8125 C68.70125 81.78832031 69.4025 82.76414063 70.125 83.76953125 C71.053125 84.87361328 71.053125 84.87361328 72 86 C72.66 86 73.32 86 74 86 C74.3403125 86.7734375 74.3403125 86.7734375 74.6875 87.5625 C75.120625 88.366875 75.55375 89.17125 76 90 C76.39058594 90.90298828 76.39058594 90.90298828 76.7890625 91.82421875 C77.91404152 94.16047186 77.91404152 94.16047186 81 97 C85.29 97 89.58 97 94 97 C94 73.57 94 50.14 94 26 C89.38 26 84.76 26 80 26 C80 40.85 80 55.7 80 71 C76.60125542 67.60125542 73.95342941 64.78554901 71.1875 61 C66.09171203 54.09963282 60.88775602 47.28513131 55.67260742 40.47460938 C55.01236572 39.61029297 54.35212402 38.74597656 53.671875 37.85546875 C53.02541016 37.02966309 52.37894531 36.20385742 51.71289062 35.35302734 C50 33 50 33 48.89648438 30.80712891 C47.83814255 28.51773254 47.83814255 28.51773254 45 26 C40.38 26 35.76 26 31 26 Z " fill="#0059FF" transform="translate(380,113)"/>
<path d="M0 0 C41.25 0 82.5 0 125 0 C125 40.92 125 81.84 125 124 C104.560625 124.020625 84.12125 124.04125 63.0625 124.0625 C56.59793213 124.071604 50.13336426 124.08070801 43.47290039 124.09008789 C35.60632324 124.09460449 35.60632324 124.09460449 31.92893982 124.09544373 C29.34896459 124.09698388 26.76903749 124.10014105 24.18907166 124.10557556 C20.29148985 124.11367754 16.39392852 124.11390758 12.49633789 124.11352539 C11.33825906 124.1171235 10.18018023 124.12072161 8.98700809 124.12442875 C7.94446086 124.12305125 6.90191362 124.12167376 5.82777405 124.12025452 C4.45752878 124.12163721 4.45752878 124.12163721 3.05960178 124.12304783 C1 124 1 124 0 123 C-0.09597204 121.40577964 -0.12187924 119.8072955 -0.12025452 118.21018982 C-0.12163201 117.17603911 -0.12300951 116.14188841 -0.12442875 115.0763998 C-0.12083064 113.92768933 -0.11723253 112.77897886 -0.11352539 111.59545898 C-0.11364593 110.37613961 -0.11376646 109.15682024 -0.11389065 107.9005518 C-0.1132656 104.59181125 -0.1083066 101.28313274 -0.10128021 97.97440338 C-0.09560002 94.87360226 -0.0953179 91.77280278 -0.09460449 88.67199707 C-0.08934985 79.59382659 -0.0753888 70.51566285 -0.0625 61.4375 C-0.041875 41.163125 -0.02125 20.88875 0 0 Z M25 26 C25.23074219 27.00933594 25.46148438 28.01867187 25.69921875 29.05859375 C27.71802852 37.97377556 29.60416523 46.90722008 31.375 55.875 C34.089287 69.61836134 37.03348039 83.30915519 40 97 C44.62 97 49.24 97 54 97 C55.14385739 92.65946974 56.28468974 88.31837019 57.41796875 83.97509766 C57.80423656 82.49840102 58.19224196 81.02215774 58.58203125 79.54638672 C59.14262096 77.42272417 59.69690226 75.29749939 60.25 73.171875 C60.42499023 72.51443298 60.59998047 71.85699097 60.78027344 71.17962646 C61.61212245 67.95778067 62 65.36469002 62 62 C62.99 62.495 62.99 62.495 64 63 C64.74609375 65.46508789 64.74609375 65.46508789 65.4375 68.72265625 C65.69273437 69.90150391 65.94796875 71.08035156 66.2109375 72.29492188 C66.60152344 74.15987305 66.60152344 74.15987305 67 76.0625 C67.51994926 78.49107486 68.0407617 80.91946511 68.5625 83.34765625 C68.80742188 84.49508301 69.05234375 85.64250977 69.3046875 86.82470703 C70.1254436 90.57286498 71.03569172 94.28648591 72 98 C76.62 97.67 81.24 97.34 86 97 C89.86151513 79.71905607 93.71967018 62.43753084 97.4375 45.125 C97.80705811 43.40941895 97.80705811 43.40941895 98.18408203 41.65917969 C98.4107959 40.59860352 98.63750977 39.53802734 98.87109375 38.4453125 C99.06630615 37.53281738 99.26151855 36.62032227 99.46264648 35.68017578 C100.04028104 32.79908894 100.51692642 29.89844147 101 27 C96.05 27 91.1 27 86 27 C84.36522412 32.72171556 83.03509246 38.30735114 81.875 44.125 C81.69324219 45.00542969 81.51148438 45.88585937 81.32421875 46.79296875 C81.15277344 47.64761719 80.98132813 48.50226563 80.8046875 49.3828125 C80.64983887 50.14996582 80.49499023 50.91711914 80.33544922 51.70751953 C79.97545023 54.16777464 79.94353122 56.51701838 80 59 C79.01 59 78.02 59 77 59 C76.84724609 57.40671875 76.84724609 57.40671875 76.69140625 55.78125 C75.95656407 49.90251258 74.41408945 44.22820779 72.9375 38.5 C72.51500977 36.83710938 72.51500977 36.83710938 72.08398438 35.140625 C71.39362359 32.425986 70.69740413 29.71283807 70 27 C63.07 26.505 63.07 26.505 56 26 C50.92400028 42.22089741 50.92400028 42.22089741 49 59 C48.34 58.67 47.68 58.34 47 58 C46.32399336 55.69964162 45.77002419 53.46129225 45.2734375 51.12109375 C45.04462387 50.09110008 45.04462387 50.09110008 44.81118774 49.04029846 C44.32452968 46.84102464 43.84965922 44.63939139 43.375 42.4375 C43.04764661 40.94839787 42.71953135 39.45946301 42.390625 37.97070312 C41.58343378 34.31592064 40.79221872 30.65818643 40 27 C35.05 26.67 30.1 26.34 25 26 Z " fill="#0059FF" transform="translate(662,113)"/>
<path d="M0 0 C0.98828125 2.12109375 0.98828125 2.12109375 1 5 C-0.28219489 7.81891085 -2.02249367 10.31186006 -3.75 12.875 C-10.02076205 22.61187946 -14.89818276 32.83775611 -19.74414062 43.33764648 C-20.99679347 45.99320234 -22.31312684 48.60783821 -23.6484375 51.22265625 C-26.75644979 57.39856961 -28.89085195 63.81149399 -31.09179688 70.35449219 C-32.08310523 73.24207748 -33.12634828 76.10818267 -34.171875 78.9765625 C-40.40946778 96.42494611 -44.12483358 113.75585695 -47 132 C-47.14550293 132.87382324 -47.29100586 133.74764648 -47.44091797 134.64794922 C-51.18141558 157.58271343 -49.96914592 182.21590485 -46 205 C-45.86078125 205.8544873 -45.7215625 206.70897461 -45.578125 207.58935547 C-42.43944737 226.65754861 -36.13922812 244.01740446 -27 261 C-26.2497277 262.40610474 -25.49973162 263.8123569 -24.75 265.21875 C-23.68166127 267.22214956 -22.6108242 269.22369134 -21.52563477 271.21801758 C-20.12888172 273.79573616 -18.92974684 276.21075949 -18 279 C-17.34 279 -16.68 279 -16 279 C-16.33 279.99 -16.66 280.98 -17 282 C-31.34512528 280.89652882 -44.88219815 266.16855225 -54 256 C-66.24148251 241.32789822 -75.34143354 224.84949403 -82 207 C-82.30921387 206.18192871 -82.61842773 205.36385742 -82.93701172 204.52099609 C-90.96026772 182.96767011 -94.86654874 161.41775185 -94.59692383 138.4230957 C-94.56231238 135.16986527 -94.57644987 131.91932846 -94.59570312 128.66601562 C-94.58489443 111.69067841 -92.43737319 95.51635593 -86.8125 79.4375 C-86.51625732 78.57801758 -86.22001465 77.71853516 -85.91479492 76.83300781 C-78.25800937 55.26359591 -66.94645019 37.37202264 -51 21 C-50.09314453 19.98292969 -50.09314453 19.98292969 -49.16796875 18.9453125 C-37.71888354 6.48829428 -17.35623872 -10.27205965 0 0 Z " fill="#0059FF" transform="translate(94,37)"/>
<path d="M0 0 C1.0325592 -0.00040283 2.06511841 -0.00080566 3.12896729 -0.0012207 C18.31661561 0.03301296 32.21206246 0.71521286 46.75 5.4375 C47.73500488 5.7375293 48.72000977 6.03755859 49.73486328 6.34667969 C68.35876365 12.02148828 85.29640897 19.06188507 101.86230469 29.27685547 C103.53640964 30.30617452 105.22430824 31.31298428 106.9140625 32.31640625 C112.67714498 35.81484082 117.55481039 39.77182474 122.47265625 44.37890625 C124.39958607 46.12074504 126.2783321 47.57177536 128.4375 49 C131.81435361 51.31420737 134.27387831 54.10403141 136.88671875 57.23828125 C138.13585858 58.71263288 139.43189442 60.1484112 140.76953125 61.54296875 C148.25778036 69.38201872 153.99613523 78.29726809 159.75 87.4375 C160.42289063 88.48421875 161.09578125 89.5309375 161.7890625 90.609375 C171.1004337 106.34091538 175.59798557 125.42568178 177.75 143.4375 C177.91371094 144.57703125 178.07742188 145.7165625 178.24609375 146.890625 C179.43013544 156.6070908 177.28438476 163.01693734 171.34765625 170.7109375 C169.63256777 172.5644072 167.81128381 173.9861425 165.75 175.4375 C161.34197089 173.954979 159.77821639 170.65090558 157.625 166.8125 C156.82809156 165.44196988 156.02987043 164.07220236 155.23046875 162.703125 C154.82103027 161.99607422 154.4115918 161.28902344 153.98974609 160.56054688 C144.68421148 144.6249563 134.42395345 129.3050473 122.2890625 115.3828125 C119.26223406 111.87169151 116.41903664 108.23868662 113.6015625 104.55859375 C111.52559295 102.1804261 109.22548297 100.38871667 106.75 98.4375 C105.75822176 97.34187064 104.79883924 96.21599419 103.875 95.0625 C95.01097194 84.73398035 84.46233495 75.68916048 73.47509766 67.70019531 C71.65839255 66.37044739 69.86725469 65.0098944 68.07421875 63.6484375 C50.42064414 50.48064321 30.74219451 40.09269073 9.75 33.4375 C8.95996582 33.17533691 8.16993164 32.91317383 7.35595703 32.64306641 C-17.97764842 24.24236394 -42.72157764 22.20119091 -69.25 22.4375 C-69.21484375 20.21484375 -69.21484375 20.21484375 -68.25 17.4375 C-65.75721595 15.67878733 -63.51847134 14.3434597 -60.8125 13 C-60.05694824 12.61384521 -59.30139648 12.22769043 -58.52294922 11.82983398 C-50.43172759 7.82422097 -41.98788284 4.70885307 -33.25 2.4375 C-32.52296875 2.24389893 -31.7959375 2.05029785 -31.046875 1.85083008 C-20.90004649 -0.41538951 -10.3400613 -0.00410507 0 0 Z " fill="#0059FF" transform="translate(165.25,-0.43750000000000006)"/>
<path d="M0 0 C3 2 3 2 4 5 C7.26604808 37.66048082 -11.19230435 71.54322537 -31 96 C-33.26460719 98.73452568 -35.60903921 101.37565858 -38 104 C-38.90386735 105.01933487 -39.80749215 106.03888484 -40.7109375 107.05859375 C-46.27179022 113.27387831 -51.91647557 118.88192294 -58.51171875 124.03125 C-60.65392731 125.72618425 -62.59224138 127.48924457 -64.5625 129.375 C-70.63586277 134.75963091 -77.92890024 138.63250845 -84.890625 142.74121094 C-86.63209385 143.7804486 -88.35066753 144.85794953 -90.0625 145.9453125 C-109.60146004 158.15716252 -134.90168781 166.97013612 -158.03515625 167.2734375 C-158.90252411 167.28605621 -159.76989197 167.29867493 -160.6635437 167.31167603 C-196.83982812 167.73628125 -196.83982812 167.73628125 -212 162 C-212.82951172 161.68933594 -213.65902344 161.37867188 -214.51367188 161.05859375 C-219.43185487 159.1712549 -224.24720984 157.11634968 -229.02636719 154.90185547 C-230.73076977 154.12302529 -232.46118468 153.40159307 -234.1953125 152.69140625 C-241.56924892 149.5107083 -244.92860077 144.64303434 -248.1484375 137.42578125 C-249.1705234 134.51424297 -249.14247479 132.06320807 -249 129 C-244.65384131 126.84205389 -240.7190845 126.76718571 -235.97265625 126.875 C-234.37117797 126.89267466 -232.7696967 126.91007965 -231.16821289 126.92724609 C-230.33468292 126.93971375 -229.50115295 126.9521814 -228.6423645 126.96502686 C-166.86006517 127.80255971 -99.14909054 112.30974107 -52 70 C-51.43120117 69.49533203 -50.86240234 68.99066406 -50.27636719 68.47070312 C-31.40684139 51.65199943 -17.63016518 32.57714498 -5.625 10.375 C-5.07972656 9.37082031 -4.53445313 8.36664063 -3.97265625 7.33203125 C-2.64647936 4.88907382 -1.32229552 2.44505978 0 0 Z " fill="#0059FF" transform="translate(344,183)"/>
</svg>
