<?xml version="1.0" encoding="UTF-8"?>
<!DOCTYPE svg PUBLIC "-//W3C//DTD SVG 1.1//EN" "http://www.w3.org/Graphics/SVG/1.1/DTD/svg11.dtd">
<svg xmlns="http://www.w3.org/2000/svg" version="1.1" width="429px" height="231px" style="shape-rendering:geometricPrecision; text-rendering:geometricPrecision; image-rendering:optimizeQuality; fill-rule:evenodd; clip-rule:evenodd" xmlns:xlink="http://www.w3.org/1999/xlink">
<g><path style="opacity:0.008" fill="#32c0ff" d="M 250.5,-0.5 C 252.833,-0.5 255.167,-0.5 257.5,-0.5C 257.5,-0.166667 257.5,0.166667 257.5,0.5C 254.941,0.801552 252.607,0.468218 250.5,-0.5 Z"/></g>
<g><path style="opacity:0.843" fill="#13a1dd" d="M 267.5,-0.5 C 287.5,-0.5 307.5,-0.5 327.5,-0.5C 332.29,0.724898 337.29,1.39156 342.5,1.5C 343.919,2.45115 345.585,2.78448 347.5,2.5C 348.919,3.45115 350.585,3.78448 352.5,3.5C 353.568,4.43448 354.901,4.76781 356.5,4.5C 357.568,5.43448 358.901,5.76781 360.5,5.5C 362.302,6.4582 364.302,7.12487 366.5,7.5C 355.38,9.05643 344.38,10.0564 333.5,10.5C 332.262,11.4124 330.928,11.5791 329.5,11C 330.167,10.6667 330.833,10.3333 331.5,10C 329.866,9.50649 328.199,9.33982 326.5,9.5C 324.735,8.53862 322.735,8.20528 320.5,8.5C 318.167,7.16667 315.833,7.16667 313.5,8.5C 288.806,6.9855 264.139,7.31884 239.5,9.5C 237.167,8.16667 234.833,8.16667 232.5,9.5C 230.473,9.33788 228.473,9.50454 226.5,10C 228.595,10.5556 228.762,11.0556 227,11.5C 222.277,10.2049 217.777,10.5382 213.5,12.5C 208.167,12.8333 208.167,13.1667 213.5,13.5C 205.76,16.1016 197.76,18.1016 189.5,19.5C 187.047,18.3549 184.713,18.6883 182.5,20.5C 181.448,20.3505 180.448,20.5172 179.5,21C 180.696,21.6543 180.696,22.1543 179.5,22.5C 177.684,21.2651 176.017,21.2651 174.5,22.5C 173.209,22.2627 172.209,22.596 171.5,23.5C 170.209,23.2627 169.209,23.596 168.5,24.5C 166.447,24.4021 164.78,25.0687 163.5,26.5C 162.209,26.2627 161.209,26.596 160.5,27.5C 159.508,27.3284 158.842,27.6618 158.5,28.5C 156.173,28.6646 154.007,29.3313 152,30.5C 151.517,29.552 151.351,28.552 151.5,27.5C 155.137,26.7365 158.47,25.4032 161.5,23.5C 162.791,23.7373 163.791,23.404 164.5,22.5C 167.67,21.7345 170.67,20.7345 173.5,19.5C 179.433,18.4078 185.1,16.7412 190.5,14.5C 191.791,14.7373 192.791,14.404 193.5,13.5C 194.791,13.7373 195.791,13.404 196.5,12.5C 200.761,12.1016 204.761,11.1016 208.5,9.5C 211.568,9.45327 214.568,8.95327 217.5,8C 216.167,7.66667 214.833,7.33333 213.5,7C 216.432,6.04673 219.432,5.54673 222.5,5.5C 224.167,6.83333 225.833,6.83333 227.5,5.5C 229.415,5.78448 231.081,5.45115 232.5,4.5C 234.415,4.78448 236.081,4.45115 237.5,3.5C 239.735,3.79472 241.735,3.46138 243.5,2.5C 248.391,2.46812 253.057,1.80146 257.5,0.5C 261.042,0.812775 264.375,0.479442 267.5,-0.5 Z"/></g>
<g><path style="opacity:0.016" fill="#21a8e4" d="M 342.5,1.5 C 349.871,0.998358 357.205,2.16502 364.5,5C 363.207,5.49001 361.873,5.65668 360.5,5.5C 359.432,4.56552 358.099,4.23219 356.5,4.5C 355.432,3.56552 354.099,3.23219 352.5,3.5C 351.081,2.54885 349.415,2.21552 347.5,2.5C 346.081,1.54885 344.415,1.21552 342.5,1.5 Z"/></g>
<g><path style="opacity:0.02" fill="#16aae8" d="M 243.5,2.5 C 241.265,2.20528 239.265,2.53862 237.5,3.5C 235.585,3.21552 233.919,3.54885 232.5,4.5C 230.585,4.21552 228.919,4.54885 227.5,5.5C 225.833,5.5 224.167,5.5 222.5,5.5C 231.165,2.53664 240.165,1.03664 249.5,1C 247.292,1.19088 245.292,1.69088 243.5,2.5 Z"/></g>
<g><path style="opacity:0.016" fill="#0980de" d="M 367.5,7.5 C 368.251,6.42654 369.251,6.25988 370.5,7C 369.552,7.48278 368.552,7.64945 367.5,7.5 Z"/></g>
<g><path style="opacity:0.008" fill="#299fff" d="M 209.5,8.5 C 210.251,7.42654 211.251,7.25988 212.5,8C 211.552,8.48278 210.552,8.64945 209.5,8.5 Z"/></g>
<g><path style="opacity:0.004" fill="#30d3ff" d="M 371.5,8.5 C 371.897,7.47498 372.563,7.30831 373.5,8C 372.906,8.46434 372.239,8.63101 371.5,8.5 Z"/></g>
<g><path style="opacity:0.004" fill="#00fffe" d="M 208.5,9.5 C 207.761,9.63101 207.094,9.46434 206.5,9C 207.437,8.30831 208.103,8.47498 208.5,9.5 Z"/></g>
<g><path style="opacity:0.008" fill="#2eabff" d="M 313.5,8.5 C 315.833,8.5 318.167,8.5 320.5,8.5C 318.167,9.83333 315.833,9.83333 313.5,8.5 Z"/></g>
<g><path style="opacity:0.004" fill="#00fffe" d="M 374.5,8.5 C 375.833,9.16667 375.833,9.16667 374.5,8.5 Z"/></g>
<g><path style="opacity:0.004" fill="#2cdeff" d="M 200.5,10.5 C 201.251,9.42654 202.251,9.25988 203.5,10C 202.552,10.4828 201.552,10.6495 200.5,10.5 Z"/></g>
<g><path style="opacity:0.004" fill="#00fffe" d="M 232.5,9.5 C 234.833,9.5 237.167,9.5 239.5,9.5C 237.167,10.8333 234.833,10.8333 232.5,9.5 Z"/></g>
<g><path style="opacity:0.004" fill="#00fffe" d="M 326.5,9.5 C 325.054,10.6129 323.387,10.7796 321.5,10C 323.134,9.50649 324.801,9.33982 326.5,9.5 Z"/></g>
<g><path style="opacity:0.008" fill="#299fff" d="M 196.5,11.5 C 197.251,10.4265 198.251,10.2599 199.5,11C 198.552,11.4828 197.552,11.6495 196.5,11.5 Z"/></g>
<g><path style="opacity:0.012" fill="#26c2ff" d="M 219.5,12.5 C 220.601,11.4017 221.934,11.235 223.5,12C 222.207,12.49 220.873,12.6567 219.5,12.5 Z"/></g>
<g><path style="opacity:0.008" fill="#299fff" d="M 333.5,12.5 C 334.251,11.4265 335.251,11.2599 336.5,12C 335.552,12.4828 334.552,12.6495 333.5,12.5 Z"/></g>
<g><path style="opacity:0.016" fill="#1599dd" d="M 196.5,11.5 C 196.5,11.8333 196.5,12.1667 196.5,12.5C 195.209,12.2627 194.209,12.596 193.5,13.5C 192.209,13.2627 191.209,13.596 190.5,14.5C 189.127,14.6567 187.793,14.49 186.5,14C 189.72,12.6476 193.053,11.8143 196.5,11.5 Z"/></g>
<g><path style="opacity:0.012" fill="#18b8f3" d="M 213.5,13.5 C 213.5,13.1667 213.5,12.8333 213.5,12.5C 220.167,12.8333 220.167,13.1667 213.5,13.5 Z"/></g>
<g><path style="opacity:0.938" fill="#107fc1" d="M 366.5,7.5 C 366.833,7.5 367.167,7.5 367.5,7.5C 369.515,8.92381 371.848,9.59047 374.5,9.5C 378.731,11.4778 383.064,13.4778 387.5,15.5C 389.766,14.4432 391.766,14.9432 393.5,17C 392.944,17.3826 392.611,17.8826 392.5,18.5C 382.655,18.9748 372.655,19.3082 362.5,19.5C 361.833,19.5 361.167,19.5 360.5,19.5C 359.22,18.0687 357.553,17.4021 355.5,17.5C 355.158,16.6618 354.492,16.3284 353.5,16.5C 347.221,13.521 340.554,11.521 333.5,10.5C 344.38,10.0564 355.38,9.05643 366.5,7.5 Z"/></g>
<g><path style="opacity:0.012" fill="#0fadc1" d="M 353.5,16.5 C 353.842,17.3382 354.508,17.6716 355.5,17.5C 353.911,18.6211 352.244,18.4544 350.5,17C 351.448,16.5172 352.448,16.3505 353.5,16.5 Z"/></g>
<g><path style="opacity:0.004" fill="#00fffe" d="M 173.5,19.5 C 172.833,18.1667 172.833,18.1667 173.5,19.5 Z"/></g>
<g><path style="opacity:0.008" fill="#299fff" d="M 189.5,19.5 C 188.749,20.5735 187.749,20.7401 186.5,20C 187.448,19.5172 188.448,19.3505 189.5,19.5 Z"/></g>
<g><path style="opacity:0.008" fill="#1e61ff" d="M 360.5,19.5 C 360.103,20.525 359.437,20.6917 358.5,20C 359.094,19.5357 359.761,19.369 360.5,19.5 Z"/></g>
<g><path style="opacity:0.004" fill="#0000ff" d="M 397.5,19.5 C 398.833,20.1667 398.833,20.1667 397.5,19.5 Z"/></g>
<g><path style="opacity:0.004" fill="#00fffe" d="M 164.5,21.5 C 164.897,20.475 165.563,20.3083 166.5,21C 165.906,21.4643 165.239,21.631 164.5,21.5 Z"/></g>
<g><path style="opacity:0.004" fill="#00fffe" d="M 182.5,20.5 C 183.239,20.369 183.906,20.5357 184.5,21C 183.563,21.6917 182.897,21.525 182.5,20.5 Z"/></g>
<g><path style="opacity:0.004" fill="#0000ff" d="M 362.5,20.5 C 361.833,21.1667 361.833,21.1667 362.5,20.5 Z"/></g>
<g><path style="opacity:0.004" fill="#30d3ff" d="M 164.5,21.5 C 164.5,21.8333 164.5,22.1667 164.5,22.5C 161.833,22.1667 161.833,21.8333 164.5,21.5 Z"/></g>
<g><path style="opacity:0.004" fill="#294cc3" d="M 400.5,22.5 C 401.497,21.2875 402.497,21.4542 403.5,23C 402.906,23.4643 402.239,23.631 401.5,23.5C 401.5,22.8333 401.167,22.5 400.5,22.5 Z"/></g>
<g><path style="opacity:0.008" fill="#2ea9ff" d="M 161.5,23.5 C 160.761,23.631 160.094,23.4643 159.5,23C 160.437,22.3083 161.103,22.475 161.5,23.5 Z"/></g>
<g><path style="opacity:0.012" fill="#00d3d3" d="M 174.5,23.5 C 174.5,23.1667 174.5,22.8333 174.5,22.5C 178.5,22.8333 178.5,23.1667 174.5,23.5 Z"/></g>
<g><path style="opacity:0.008" fill="#007fff" d="M 157.5,23.5 C 158.833,24.1667 158.833,24.1667 157.5,23.5 Z"/></g>
<g><path style="opacity:0.016" fill="#188ac9" d="M 171.5,24.5 C 171.5,24.1667 171.5,23.8333 171.5,23.5C 172.5,23.5 173.5,23.5 174.5,23.5C 173.791,24.404 172.791,24.7373 171.5,24.5 Z"/></g>
<g><path style="opacity:0.02" fill="#138ce5" d="M 168.5,25.5 C 168.5,25.1667 168.5,24.8333 168.5,24.5C 169.5,24.5 170.5,24.5 171.5,24.5C 170.791,25.404 169.791,25.7373 168.5,25.5 Z"/></g>
<g><path style="opacity:0.012" fill="#109bb1" d="M 168.5,25.5 C 168.103,26.525 167.437,26.6917 166.5,26C 167.094,25.5357 167.761,25.369 168.5,25.5 Z"/></g>
<g><path style="opacity:0.012" fill="#00aaa9" d="M 163.5,27.5 C 163.5,27.1667 163.5,26.8333 163.5,26.5C 166.167,26.8333 166.167,27.1667 163.5,27.5 Z"/></g>
<g><path style="opacity:0.008" fill="#32beff" d="M 160.5,28.5 C 160.5,28.1667 160.5,27.8333 160.5,27.5C 161.5,27.5 162.5,27.5 163.5,27.5C 162.791,28.404 161.791,28.7373 160.5,28.5 Z"/></g>
<g><path style="opacity:0.984" fill="#1663aa" d="M 392.5,18.5 C 394.05,19.4408 395.716,20.1075 397.5,20.5C 398.29,21.4013 399.29,22.0679 400.5,22.5C 401.167,22.5 401.5,22.8333 401.5,23.5C 407.438,28.0992 413.105,33.0992 418.5,38.5C 418.557,39.609 418.89,40.609 419.5,41.5C 415.27,42.2202 410.937,42.8868 406.5,43.5C 406.665,40.4816 406.498,37.4816 406,34.5C 405.617,35.056 405.117,35.3893 404.5,35.5C 404.5,34.8333 404.167,34.5 403.5,34.5C 396.646,34.824 389.979,34.4907 383.5,33.5C 383.167,33.5 382.833,33.5 382.5,33.5C 382.167,33.5 381.833,33.5 381.5,33.5C 381.5,33.1667 381.5,32.8333 381.5,32.5C 382.833,32.1667 382.833,31.8333 381.5,31.5C 379.925,29.2005 377.925,28.3671 375.5,29C 374.167,28.3333 374.167,27.6667 375.5,27C 371.691,23.7623 367.358,21.5956 362.5,20.5C 362.5,20.1667 362.5,19.8333 362.5,19.5C 372.655,19.3082 382.655,18.9748 392.5,18.5 Z"/></g>
<g><path style="opacity:0.004" fill="#00fffe" d="M 158.5,28.5 C 159.167,28.5 159.833,28.5 160.5,28.5C 159.833,29.8333 159.167,29.8333 158.5,28.5 Z"/></g>
<g><path style="opacity:0.004" fill="#00fffe" d="M 156.5,29.5 C 157.833,30.1667 157.833,30.1667 156.5,29.5 Z"/></g>
<g><path style="opacity:0.009" fill="#fefdff" d="M 130.5,34.5 C 127.615,34.1936 124.948,34.5269 122.5,35.5C 121.833,35.5 121.167,35.5 120.5,35.5C 114.167,35.5 107.833,35.5 101.5,35.5C 94.1667,35.5 86.8333,35.5 79.5,35.5C 70.8333,35.5 62.1667,35.5 53.5,35.5C 52.3915,34.71 51.0581,34.21 49.5,34C 50.5,33.6667 51.5,33.3333 52.5,33C 76.5,32.3333 100.5,32.3333 124.5,33C 126.708,33.1909 128.708,33.6909 130.5,34.5 Z"/></g>
<g><path style="opacity:0.009" fill="#fdfcfe" d="M 245.5,35.5 C 235.5,35.5 225.5,35.5 215.5,35.5C 214.5,34.1667 213.5,34.1667 212.5,35.5C 212.167,35.5 211.833,35.5 211.5,35.5C 210.833,35.5 210.5,35.8333 210.5,36.5C 210.5,37.1667 210.167,37.5 209.5,37.5C 208.402,36.603 208.402,35.7697 209.5,35C 211.392,34.0266 213.392,33.3599 215.5,33C 225.494,32.5002 235.494,32.3335 245.5,32.5C 245.5,33.5 245.5,34.5 245.5,35.5 Z"/></g>
<g><path style="opacity:0.01" fill="#fdfdfe" d="M 381.5,31.5 C 381.5,31.8333 381.5,32.1667 381.5,32.5C 381.5,32.8333 381.5,33.1667 381.5,33.5C 381.833,34.8333 382.167,34.8333 382.5,33.5C 382.833,33.5 383.167,33.5 383.5,33.5C 389.979,34.4907 396.646,34.824 403.5,34.5C 403.5,34.8333 403.5,35.1667 403.5,35.5C 377.833,35.5 352.167,35.5 326.5,35.5C 312.167,35.5 297.833,35.5 283.5,35.5C 282.167,34.1667 280.833,34.1667 279.5,35.5C 278.508,35.3284 277.842,35.6618 277.5,36.5C 275.621,36.6068 275.288,36.1068 276.5,35C 278.392,34.0266 280.392,33.3599 282.5,33C 315.571,32.8261 348.571,32.3261 381.5,31.5 Z"/></g>
<g><path style="opacity:0.014" fill="#fefffe" d="M 130.5,35.5 C 130.5,35.1667 130.5,34.8333 130.5,34.5C 132.927,34.523 135.26,35.023 137.5,36C 136.552,36.4828 135.552,36.6495 134.5,36.5C 134.167,36.5 133.833,36.5 133.5,36.5C 132.791,35.596 131.791,35.2627 130.5,35.5 Z"/></g>
<g><path style="opacity:0.99" fill="#353542" d="M 53.5,35.5 C 62.1667,35.5 70.8333,35.5 79.5,35.5C 92.1712,47.1713 104.171,59.5046 115.5,72.5C 106.494,72.6664 97.4938,72.4998 88.5,72C 76.2438,60.2471 64.5772,48.0804 53.5,35.5 Z"/></g>
<g><path style="opacity:0.99" fill="#333143" d="M 120.5,35.5 C 121.167,35.5 121.833,35.5 122.5,35.5C 125.167,35.5 127.833,35.5 130.5,35.5C 131.209,36.404 132.209,36.7373 133.5,36.5C 133.833,36.5 134.167,36.5 134.5,36.5C 136.89,38.0198 139.557,39.0198 142.5,39.5C 142.842,40.3382 143.508,40.6716 144.5,40.5C 144.842,41.3382 145.508,41.6716 146.5,41.5C 149.128,43.4884 151.795,45.4884 154.5,47.5C 154.5,48.1667 154.833,48.5 155.5,48.5C 155.5,49.1667 155.833,49.5 156.5,49.5C 156.833,49.5 157.167,49.5 157.5,49.5C 158.864,51.1911 160.197,52.8577 161.5,54.5C 161.5,55.1667 161.833,55.5 162.5,55.5C 166.644,61.4571 169.978,67.7904 172.5,74.5C 172.232,76.099 172.566,77.4324 173.5,78.5C 173.5,82.1667 173.5,85.8333 173.5,89.5C 166.891,86.1429 160.724,81.4762 155,75.5C 144.454,62.9484 133.121,50.9484 121,39.5C 120.51,38.2068 120.343,36.8734 120.5,35.5 Z"/></g>
<g><path style="opacity:0.993" fill="#46464f" d="M 283.5,35.5 C 297.833,35.5 312.167,35.5 326.5,35.5C 326.423,36.7498 325.756,37.5831 324.5,38C 325,38.5 325.5,39 326,39.5C 327.533,39.0563 329.033,38.723 330.5,38.5C 331.7,39.5312 333.034,40.3645 334.5,41C 342.667,49.1667 350.833,57.3333 359,65.5C 359.785,67.286 360.951,68.786 362.5,70C 360.699,70.3173 360.366,70.984 361.5,72C 372.495,72.4998 383.495,72.6665 394.5,72.5C 382.678,73.4951 370.678,73.8284 358.5,73.5C 357.505,85.6554 357.171,97.9887 357.5,110.5C 332.868,86.3683 308.368,62.0349 284,37.5C 282.927,38.2797 281.76,38.113 280.5,37C 281.737,36.7679 282.737,36.2679 283.5,35.5 Z"/></g>
<g><path style="opacity:0.987" fill="#3b3a49" d="M 326.5,35.5 C 352.167,35.5 377.833,35.5 403.5,35.5C 403.833,35.5 404.167,35.5 404.5,35.5C 404.784,45.5522 404.45,55.5522 403.5,65.5C 402.514,69.97 402.181,74.6367 402.5,79.5C 401.918,76.1677 401.084,72.8344 400,69.5C 398.512,71.16 396.679,72.16 394.5,72.5C 383.495,72.6665 372.495,72.4998 361.5,72C 360.366,70.984 360.699,70.3173 362.5,70C 360.951,68.786 359.785,67.286 359,65.5C 350.833,57.3333 342.667,49.1667 334.5,41C 333.034,40.3645 331.7,39.5312 330.5,38.5C 329.033,38.723 327.533,39.0563 326,39.5C 325.5,39 325,38.5 324.5,38C 325.756,37.5831 326.423,36.7498 326.5,35.5 Z"/></g>
<g><path style="opacity:0.006" fill="#fefffe" d="M 207.5,38.5 C 206.833,38.5 206.5,38.8333 206.5,39.5C 205.833,39.5 205.5,39.8333 205.5,40.5C 204.833,40.5 204.5,40.8333 204.5,41.5C 203.493,39.732 204.159,38.3987 206.5,37.5C 207.107,37.6236 207.44,37.9569 207.5,38.5 Z"/></g>
<g><path style="opacity:0.008" fill="#00807f" d="M 418.5,37.5 C 419.833,38.1667 419.833,38.1667 418.5,37.5 Z"/></g>
<g><path style="opacity:0.012" fill="#fefffe" d="M 142.5,38.5 C 143.833,39.1667 143.833,39.1667 142.5,38.5 Z"/></g>
<g><path style="opacity:1" fill="#323040" d="M 101.5,35.5 C 107.833,35.5 114.167,35.5 120.5,35.5C 120.343,36.8734 120.51,38.2068 121,39.5C 133.121,50.9484 144.454,62.9484 155,75.5C 160.724,81.4762 166.891,86.1429 173.5,89.5C 173.5,92.1667 173.5,94.8333 173.5,97.5C 172.022,97.238 170.689,97.5713 169.5,98.5C 170.025,99.1924 170.692,99.6924 171.5,100C 170.299,100.903 169.465,102.069 169,103.5C 168.333,100.833 167.667,100.833 167,103.5C 145.653,81.9861 124.153,60.6528 102.5,39.5C 101.571,38.3112 101.238,36.9778 101.5,35.5 Z"/></g>
<g><path style="opacity:0.008" fill="#fefffe" d="M 144.5,39.5 C 145.833,40.1667 145.833,40.1667 144.5,39.5 Z"/></g>
<g><path style="opacity:0.008" fill="#fefffe" d="M 146.5,40.5 C 147.833,41.1667 147.833,41.1667 146.5,40.5 Z"/></g>
<g><path style="opacity:0.008" fill="#00807f" d="M 420.5,40.5 C 421.833,41.1667 421.833,41.1667 420.5,40.5 Z"/></g>
<g><path style="opacity:0.019" fill="#fefffe" d="M 270.5,43.5 C 269.662,43.8417 269.328,44.5084 269.5,45.5C 268.167,46.5 268.167,47.5 269.5,48.5C 269.5,56.8333 269.5,65.1667 269.5,73.5C 268.671,65.6772 268.171,57.6772 268,49.5C 267.667,57.1667 267.333,64.8333 267,72.5C 266.333,64.5 266.333,56.5 267,48.5C 267.249,45.8232 268.249,43.4899 270,41.5C 270.464,42.0944 270.631,42.7611 270.5,43.5 Z"/></g>
<g><path style="opacity:0.004" fill="#fefffe" d="M 202.5,44.5 C 201.833,43.1667 201.833,43.1667 202.5,44.5 Z"/></g>
<g><path style="opacity:0.009" fill="#fefffe" d="M 202.5,49.5 C 202.5,60.8333 202.5,72.1667 202.5,83.5C 202.5,94.1667 202.5,104.833 202.5,115.5C 202.5,138.5 202.5,161.5 202.5,184.5C 201.504,184.586 200.671,184.252 200,183.5C 199.333,139.167 199.333,94.8333 200,50.5C 200.333,48.8333 200.667,47.1667 201,45.5C 201.21,47.0581 201.71,48.3915 202.5,49.5 Z"/></g>
<g><path style="opacity:0.998" fill="#404048" d="M 53.5,35.5 C 64.5772,48.0804 76.2438,60.2471 88.5,72C 97.4938,72.4998 106.494,72.6664 115.5,72.5C 117.099,72.2322 118.432,72.5655 119.5,73.5C 108.167,73.5 96.8333,73.5 85.5,73.5C 85.1667,73.5 84.8333,73.5 84.5,73.5C 84.1667,73.5 83.8333,73.5 83.5,73.5C 82.6694,84.6593 82.1694,95.9926 82,107.5C 67.888,93.4473 54.0547,79.4473 40.5,65.5C 40.5,58.8333 40.5,52.1667 40.5,45.5C 42.2904,42.0175 43.957,38.8508 45.5,36C 48.0571,36.2809 50.7237,36.1142 53.5,35.5 Z"/></g>
<g><path style="opacity:0.009" fill="#f9f9ff" d="M 154.5,47.5 C 156.07,46.4407 157.403,46.9407 158.5,49C 158.272,49.3988 157.938,49.5654 157.5,49.5C 157.167,49.5 156.833,49.5 156.5,49.5C 155.833,49.5 155.5,49.1667 155.5,48.5C 154.833,48.5 154.5,48.1667 154.5,47.5 Z"/></g>
<g><path style="opacity:0.004" fill="#fefffe" d="M 37.5,47.5 C 38.6648,92.9982 38.8315,138.665 38,184.5C 37.5,138.835 37.3333,93.1679 37.5,47.5 Z"/></g>
<g><path style="opacity:0.008" fill="#fefffe" d="M 162.5,55.5 C 161.833,55.5 161.5,55.1667 161.5,54.5C 161.747,52.0248 162.413,52.0248 163.5,54.5C 163.376,55.1067 163.043,55.44 162.5,55.5 Z"/></g>
<g><path style="opacity:0.974" fill="#475a7f" d="M 419.5,41.5 C 419.833,41.5 420.167,41.5 420.5,41.5C 420.541,43.7453 421.375,44.4119 423,43.5C 423.335,47.2394 424.668,50.906 427,54.5C 427.278,53.5842 427.778,52.9175 428.5,52.5C 428.5,53.5 428.5,54.5 428.5,55.5C 427.167,56.1667 427.167,56.8333 428.5,57.5C 428.5,58.5 428.5,59.5 428.5,60.5C 421.146,60.4792 413.813,60.8125 406.5,61.5C 406.5,55.5 406.5,49.5 406.5,43.5C 410.937,42.8868 415.27,42.2202 419.5,41.5 Z"/></g>
<g><path style="opacity:0.994" fill="#494950" d="M 40.5,65.5 C 54.0547,79.4473 67.888,93.4473 82,107.5C 82.1694,95.9926 82.6694,84.6593 83.5,73.5C 83.5,84.8333 83.5,96.1667 83.5,107.5C 95.5,107.5 107.5,107.5 119.5,107.5C 114.695,108.487 109.695,108.821 104.5,108.5C 97.4921,108.334 90.4921,108.5 83.5,109C 108.5,134 133.5,159 158.5,184C 164.157,184.499 169.824,184.666 175.5,184.5C 175.5,184.833 175.5,185.167 175.5,185.5C 162.759,185.941 150.092,185.441 137.5,184C 132.781,180.403 128.614,176.237 125,171.5C 124.333,172.833 123.667,172.833 123,171.5C 122.487,166.331 119.82,162.998 115,161.5C 114.383,160.551 114.549,159.718 115.5,159C 113.93,157.603 112.596,156.103 111.5,154.5C 111.5,153.833 111.167,153.5 110.5,153.5C 110.167,152.833 109.833,152.167 109.5,151.5C 109.5,150.833 109.167,150.5 108.5,150.5C 108.5,149.833 108.167,149.5 107.5,149.5C 107.5,149.167 107.5,148.833 107.5,148.5C 105.369,147.686 103.036,147.186 100.5,147C 80.6319,126.965 60.6319,107.132 40.5,87.5C 40.5,80.1667 40.5,72.8333 40.5,65.5 Z"/></g>
<g><path style="opacity:0.996" fill="#31303f" d="M 211.5,35.5 C 211.833,35.5 212.167,35.5 212.5,35.5C 213.5,35.5 214.5,35.5 215.5,35.5C 225.5,35.5 235.5,35.5 245.5,35.5C 245.5,52.8333 245.5,70.1667 245.5,87.5C 231.232,74.7339 217.398,61.4006 204,47.5C 203.517,46.552 203.351,45.552 203.5,44.5C 203.557,43.391 203.89,42.391 204.5,41.5C 205.167,41.5 205.5,41.1667 205.5,40.5C 206.167,40.5 206.5,40.1667 206.5,39.5C 207.167,39.5 207.5,39.1667 207.5,38.5C 208.167,38.1667 208.833,37.8333 209.5,37.5C 210.167,37.5 210.5,37.1667 210.5,36.5C 211.167,36.5 211.5,36.1667 211.5,35.5 Z"/></g>
<g><path style="opacity:0.988" fill="#3a3a44" d="M 202.5,44.5 C 202.833,44.5 203.167,44.5 203.5,44.5C 203.351,45.552 203.517,46.552 204,47.5C 217.398,61.4006 231.232,74.7339 245.5,87.5C 245.5,100.167 245.5,112.833 245.5,125.5C 231.092,111.424 216.759,97.424 202.5,83.5C 202.5,72.1667 202.5,60.8333 202.5,49.5C 202.5,47.8333 202.5,46.1667 202.5,44.5 Z"/></g>
<g><path style="opacity:1" fill="#69636f" d="M 428.5,60.5 C 428.5,63.1667 428.5,65.8333 428.5,68.5C 420.252,69.5896 411.919,70.2563 403.5,70.5C 403.5,68.8333 403.5,67.1667 403.5,65.5C 404.857,64.4097 405.857,63.0764 406.5,61.5C 413.813,60.8125 421.146,60.4792 428.5,60.5 Z"/></g>
<g><path style="opacity:0.004" fill="#fefffe" d="M 172.5,74.5 C 172.351,73.448 172.517,72.448 173,71.5C 173.74,72.7494 173.573,73.7494 172.5,74.5 Z"/></g>
<g><path style="opacity:0.013" fill="#fffefc" d="M 313.5,175.5 C 313.167,175.5 312.833,175.5 312.5,175.5C 311.761,175.631 311.094,175.464 310.5,175C 312.489,142.056 313.155,108.889 312.5,75.5C 298.163,75.6666 283.829,75.4999 269.5,75C 284.163,74.5001 298.83,74.3334 313.5,74.5C 313.5,108.167 313.5,141.833 313.5,175.5 Z"/></g>
<g><path style="opacity:0.008" fill="#fffaf7" d="M 362.5,141.5 C 361.833,141.5 361.5,141.833 361.5,142.5C 359.51,120.191 358.844,97.5246 359.5,74.5C 370.505,74.3335 381.505,74.5002 392.5,75C 381.839,75.4998 371.172,75.6665 360.5,75.5C 359.861,97.7309 360.528,119.731 362.5,141.5 Z"/></g>
<g><path style="opacity:0.014" fill="#fefeff" d="M 84.5,73.5 C 84.8333,73.5 85.1667,73.5 85.5,73.5C 97.3263,74.3307 109.326,74.8307 121.5,75C 109.505,75.4999 97.5046,75.6665 85.5,75.5C 85.5,85.5 85.5,95.5 85.5,105.5C 96.505,105.333 107.505,105.5 118.5,106C 107.172,106.5 95.8382,106.667 84.5,106.5C 84.5,95.5 84.5,84.5 84.5,73.5 Z"/></g>
<g><path style="opacity:0.973" fill="#806763" d="M 428.5,68.5 C 428.5,71.5 428.5,74.5 428.5,77.5C 420.156,77.6119 411.822,77.9452 403.5,78.5C 403.5,75.8333 403.5,73.1667 403.5,70.5C 411.919,70.2563 420.252,69.5896 428.5,68.5 Z"/></g>
<g><path style="opacity:0.008" fill="#fefffe" d="M 173.5,78.5 C 173.369,77.7611 173.536,77.0944 174,76.5C 174.692,77.4368 174.525,78.1034 173.5,78.5 Z"/></g>
<g><path style="opacity:1" fill="#353543" d="M 79.5,35.5 C 86.8333,35.5 94.1667,35.5 101.5,35.5C 101.238,36.9778 101.571,38.3112 102.5,39.5C 124.153,60.6528 145.653,81.9861 167,103.5C 167.667,100.833 168.333,100.833 169,103.5C 169.465,102.069 170.299,100.903 171.5,100C 170.692,99.6924 170.025,99.1924 169.5,98.5C 170.689,97.5713 172.022,97.238 173.5,97.5C 173.5,99.8333 173.5,102.167 173.5,104.5C 172.549,105.919 172.216,107.585 172.5,109.5C 171.596,110.209 171.263,111.209 171.5,112.5C 170.596,113.209 170.263,114.209 170.5,115.5C 169.662,115.842 169.328,116.508 169.5,117.5C 168.662,117.842 168.328,118.508 168.5,119.5C 167.833,119.5 167.5,119.833 167.5,120.5C 166.662,120.842 166.328,121.508 166.5,122.5C 165.662,122.842 165.328,123.508 165.5,124.5C 164.833,124.5 164.5,124.833 164.5,125.5C 163.094,125.973 162.427,126.973 162.5,128.5C 161.833,128.5 161.5,128.833 161.5,129.5C 160.833,129.5 160.5,129.833 160.5,130.5C 158.5,131.833 156.833,133.5 155.5,135.5C 155.167,135.5 154.833,135.5 154.5,135.5C 153.448,135.649 152.448,135.483 151.5,135C 141.909,125.913 132.909,116.413 124.5,106.5C 127.758,105.079 130.258,102.746 132,99.5C 134,93.5 134,87.5 132,81.5C 131.667,82.1667 131.333,82.8333 131,83.5C 130.316,82.2161 130.483,81.0495 131.5,80C 128.489,75.9946 124.489,73.8279 119.5,73.5C 118.432,72.5655 117.099,72.2322 115.5,72.5C 104.171,59.5046 92.1712,47.1713 79.5,35.5 Z"/></g>
<g><path style="opacity:0.009" fill="#fefffe" d="M 174.5,81.5 C 175.655,88.6549 175.822,95.9882 175,103.5C 174.5,96.1742 174.334,88.8409 174.5,81.5 Z"/></g>
<g><path style="opacity:0.969" fill="#996c56" d="M 428.5,77.5 C 428.5,80.5 428.5,83.5 428.5,86.5C 419.206,86.5214 410.206,86.8548 401.5,87.5C 402.092,84.8728 402.425,82.2062 402.5,79.5C 403.167,79.5 403.5,79.1667 403.5,78.5C 411.822,77.9452 420.156,77.6119 428.5,77.5 Z"/></g>
<g><path style="opacity:0.999" fill="#4e4e54" d="M 279.5,35.5 C 280.833,35.5 282.167,35.5 283.5,35.5C 282.737,36.2679 281.737,36.7679 280.5,37C 281.76,38.113 282.927,38.2797 284,37.5C 308.368,62.0349 332.868,86.3683 357.5,110.5C 357.5,118.167 357.5,125.833 357.5,133.5C 343.5,119.833 329.5,106.167 315.5,92.5C 315.823,85.9779 315.49,79.6446 314.5,73.5C 299.5,73.5 284.5,73.5 269.5,73.5C 269.5,65.1667 269.5,56.8333 269.5,48.5C 269.5,47.5 269.5,46.5 269.5,45.5C 270.338,45.1583 270.672,44.4916 270.5,43.5C 272.5,40.8333 274.833,38.5 277.5,36.5C 278.492,36.6716 279.158,36.3382 279.5,35.5 Z"/></g>
<g><path style="opacity:0.998" fill="#b0704c" d="M 428.5,86.5 C 428.5,87.8333 428.5,89.1667 428.5,90.5C 427.596,91.209 427.263,92.209 427.5,93.5C 426.596,94.209 426.263,95.209 426.5,96.5C 426.167,96.5 425.833,96.5 425.5,96.5C 425.209,95.3509 424.376,94.6842 423,94.5C 414.59,95.6042 406.423,96.2709 398.5,96.5C 399.304,93.4214 400.304,90.4214 401.5,87.5C 410.206,86.8548 419.206,86.5214 428.5,86.5 Z"/></g>
<g><path style="opacity:0.999" fill="#4d4d50" d="M 40.5,87.5 C 60.6319,107.132 80.6319,126.965 100.5,147C 103.036,147.186 105.369,147.686 107.5,148.5C 99.5,148.5 91.5,148.5 83.5,148.5C 82.6733,153.651 82.1733,158.984 82,164.5C 80.2602,163.284 79.2602,161.618 79,159.5C 74.3333,157.5 71,154.167 69,149.5C 67.6811,147.513 65.8477,146.346 63.5,146C 61.1898,144.363 59.6898,142.196 59,139.5C 55.6667,136.833 52.3333,134.167 49,131.5C 47.6089,127.275 44.7756,124.608 40.5,123.5C 40.5,111.5 40.5,99.5 40.5,87.5 Z"/></g>
<g><path style="opacity:0.016" fill="#ac7556" d="M 427.5,93.5 C 427.833,93.5 428.167,93.5 428.5,93.5C 428.5,94.5 428.5,95.5 428.5,96.5C 428.167,96.5 427.833,96.5 427.5,96.5C 427.5,95.5 427.5,94.5 427.5,93.5 Z"/></g>
<g><path style="opacity:0.989" fill="#45454b" d="M 202.5,83.5 C 216.759,97.424 231.092,111.424 245.5,125.5C 245.5,135.833 245.5,146.167 245.5,156.5C 244.761,156.631 244.094,156.464 243.5,156C 229.917,142.25 216.251,128.75 202.5,115.5C 202.5,104.833 202.5,94.1667 202.5,83.5 Z"/></g>
<g><path style="opacity:0.024" fill="#d56e3e" d="M 426.5,96.5 C 426.833,96.5 427.167,96.5 427.5,96.5C 427.598,98.5529 426.931,100.22 425.5,101.5C 425.5,100.5 425.5,99.5 425.5,98.5C 426.338,98.1583 426.672,97.4916 426.5,96.5 Z"/></g>
<g><path style="opacity:0.012" fill="#b86349" d="M 424.5,101.5 C 424.833,101.5 425.167,101.5 425.5,101.5C 425.672,102.492 425.338,103.158 424.5,103.5C 424.5,102.833 424.5,102.167 424.5,101.5 Z"/></g>
<g><path style="opacity:0.004" fill="#fefffe" d="M 173.5,104.5 C 174.573,105.251 174.74,106.251 174,107.5C 173.517,106.552 173.351,105.552 173.5,104.5 Z"/></g>
<g><path style="opacity:0.998" fill="#545458" d="M 315.5,92.5 C 329.5,106.167 343.5,119.833 357.5,133.5C 357.666,142.506 357.5,151.506 357,160.5C 342.938,146.605 329.104,132.605 315.5,118.5C 315.5,109.833 315.5,101.167 315.5,92.5 Z"/></g>
<g><path style="opacity:0.99" fill="#d0763c" d="M 425.5,96.5 C 425.5,97.1667 425.5,97.8333 425.5,98.5C 424.596,99.209 424.263,100.209 424.5,101.5C 423.662,101.842 423.328,102.508 423.5,103.5C 422.662,103.842 422.328,104.508 422.5,105.5C 421.662,105.842 421.328,106.508 421.5,107.5C 421.167,107.5 420.833,107.5 420.5,107.5C 419.726,106.853 418.726,106.52 417.5,106.5C 409.184,107.404 400.85,108.07 392.5,108.5C 394.487,104.527 396.487,100.527 398.5,96.5C 406.423,96.2709 414.59,95.6042 423,94.5C 424.376,94.6842 425.209,95.3509 425.5,96.5 Z"/></g>
<g><path style="opacity:0.012" fill="#ed5c49" d="M 423.5,103.5 C 423.833,103.5 424.167,103.5 424.5,103.5C 424.672,104.492 424.338,105.158 423.5,105.5C 423.5,104.833 423.5,104.167 423.5,103.5 Z"/></g>
<g><path style="opacity:0.008" fill="#ff722c" d="M 422.5,105.5 C 422.833,105.5 423.167,105.5 423.5,105.5C 423.672,106.492 423.338,107.158 422.5,107.5C 422.5,106.833 422.5,106.167 422.5,105.5 Z"/></g>
<g><path style="opacity:0.995" fill="#3f3f49" d="M 124.5,106.5 C 132.909,116.413 141.909,125.913 151.5,135C 152.448,135.483 153.448,135.649 154.5,135.5C 154.5,135.833 154.5,136.167 154.5,136.5C 153.527,136.987 152.527,137.487 151.5,138C 153.066,140.326 154.732,142.492 156.5,144.5C 156.5,145.167 156.833,145.5 157.5,145.5C 160.78,151.441 164.447,157.108 168.5,162.5C 168.5,163.167 168.833,163.5 169.5,163.5C 170.072,165.255 170.906,166.922 172,168.5C 172.667,169.833 173.333,169.833 174,168.5C 174.617,169.449 174.451,170.282 173.5,171C 174.552,172.119 175.719,172.619 177,172.5C 178.094,174.078 178.928,175.745 179.5,177.5C 178.566,178.568 178.232,179.901 178.5,181.5C 153.259,157.927 128.592,133.594 104.5,108.5C 109.695,108.821 114.695,108.487 119.5,107.5C 120.919,106.549 122.585,106.216 124.5,106.5 Z"/></g>
<g><path style="opacity:0.004" fill="#fe0000" d="M 421.5,107.5 C 421.833,107.5 422.167,107.5 422.5,107.5C 422.672,108.492 422.338,109.158 421.5,109.5C 421.5,108.833 421.5,108.167 421.5,107.5 Z"/></g>
<g><path style="opacity:0.997" fill="#414149" d="M 104.5,108.5 C 128.592,133.594 153.259,157.927 178.5,181.5C 178.5,181.833 178.5,182.167 178.5,182.5C 177.833,182.5 177.5,182.833 177.5,183.5C 176.833,183.5 176.5,183.833 176.5,184.5C 176.167,184.5 175.833,184.5 175.5,184.5C 169.824,184.666 164.157,184.499 158.5,184C 133.5,159 108.5,134 83.5,109C 90.4921,108.5 97.4921,108.334 104.5,108.5 Z"/></g>
<g><path style="opacity:0.004" fill="#fefffe" d="M 172.5,109.5 C 173.525,109.897 173.692,110.563 173,111.5C 172.536,110.906 172.369,110.239 172.5,109.5 Z"/></g>
<g><path style="opacity:0.004" fill="#fe0000" d="M 420.5,109.5 C 420.833,109.5 421.167,109.5 421.5,109.5C 421.672,110.492 421.338,111.158 420.5,111.5C 420.5,110.833 420.5,110.167 420.5,109.5 Z"/></g>
<g><path style="opacity:0.004" fill="#00fffe" d="M 10.5,112.5 C 9.83333,111.167 9.83333,111.167 10.5,112.5 Z"/></g>
<g><path style="opacity:0.004" fill="#00fffe" d="M 14.5,112.5 C 15.8333,113.167 15.8333,113.167 14.5,112.5 Z"/></g>
<g><path style="opacity:0.007" fill="#fefffe" d="M 171.5,112.5 C 172.833,113.5 172.833,114.5 171.5,115.5C 171.5,114.5 171.5,113.5 171.5,112.5 Z"/></g>
<g><path style="opacity:0.004" fill="#ff46ff" d="M 419.5,111.5 C 419.833,111.5 420.167,111.5 420.5,111.5C 420.672,112.492 420.338,113.158 419.5,113.5C 419.5,112.833 419.5,112.167 419.5,111.5 Z"/></g>
<g><path style="opacity:0.004" fill="#00fffe" d="M 13.5,113.5 C 13.8333,113.5 14.1667,113.5 14.5,113.5C 14.6716,114.492 14.3382,115.158 13.5,115.5C 13.5,114.833 13.5,114.167 13.5,113.5 Z"/></g>
<g><path style="opacity:0.012" fill="#fe5554" d="M 418.5,113.5 C 418.833,113.5 419.167,113.5 419.5,113.5C 419.315,114.17 418.981,114.17 418.5,113.5 Z"/></g>
<g><path style="opacity:0.305" fill="#f4f4f5" d="M 40.5,45.5 C 40.5,52.1667 40.5,58.8333 40.5,65.5C 40.5,72.8333 40.5,80.1667 40.5,87.5C 40.5,99.5 40.5,111.5 40.5,123.5C 40.5,143.833 40.5,164.167 40.5,184.5C 48.1667,184.5 55.8333,184.5 63.5,184.5C 64.5676,185.434 65.901,185.768 67.5,185.5C 62.5991,187.052 57.4324,187.719 52,187.5C 48.1667,187.333 44.3333,187.167 40.5,187C 47.8333,186.667 55.1667,186.333 62.5,186C 54.8406,185.5 47.1739,185.334 39.5,185.5C 39.1679,138.664 39.5012,91.997 40.5,45.5 Z"/></g>
<g><path style="opacity:0.963" fill="#ea7e2f" d="M 420.5,107.5 C 420.5,108.167 420.5,108.833 420.5,109.5C 419.662,109.842 419.328,110.508 419.5,111.5C 418.662,111.842 418.328,112.508 418.5,113.5C 417.833,113.5 417.5,113.833 417.5,114.5C 416.662,114.842 416.328,115.508 416.5,116.5C 415.167,116.833 415.167,117.167 416.5,117.5C 416.573,119.027 415.906,120.027 414.5,120.5C 414.5,119.833 414.167,119.5 413.5,119.5C 403.217,120.556 392.884,121.223 382.5,121.5C 385.864,117.143 389.198,112.809 392.5,108.5C 400.85,108.07 409.184,107.404 417.5,106.5C 418.726,106.52 419.726,106.853 420.5,107.5 Z"/></g>
<g><path style="opacity:0.012" fill="#fe5554" d="M 417.5,114.5 C 417.833,114.5 418.167,114.5 418.5,114.5C 418.672,115.492 418.338,116.158 417.5,116.5C 417.5,115.833 417.5,115.167 417.5,114.5 Z"/></g>
<g><path style="opacity:0.01" fill="#fefffe" d="M 170.5,115.5 C 170.833,115.5 171.167,115.5 171.5,115.5C 171.672,116.492 171.338,117.158 170.5,117.5C 170.5,116.833 170.5,116.167 170.5,115.5 Z"/></g>
<g><path style="opacity:0.004" fill="#1de2ff" d="M 12.5,115.5 C 12.8333,115.5 13.1667,115.5 13.5,115.5C 13.6716,116.492 13.3382,117.158 12.5,117.5C 12.5,116.833 12.5,116.167 12.5,115.5 Z"/></g>
<g><path style="opacity:0.02" fill="#fe6632" d="M 416.5,116.5 C 416.833,116.5 417.167,116.5 417.5,116.5C 417.315,117.17 416.981,117.17 416.5,116.5 Z"/></g>
<g><path style="opacity:0.012" fill="#00a9ff" d="M 11.5,117.5 C 11.8333,117.5 12.1667,117.5 12.5,117.5C 12.3147,118.17 11.9813,118.17 11.5,117.5 Z"/></g>
<g><path style="opacity:0.012" fill="#fefffe" d="M 169.5,117.5 C 169.833,117.5 170.167,117.5 170.5,117.5C 170.672,118.492 170.338,119.158 169.5,119.5C 169.5,118.833 169.5,118.167 169.5,117.5 Z"/></g>
<g><path style="opacity:0.004" fill="#00fffe" d="M 6.5,120.5 C 5.83333,119.167 5.83333,119.167 6.5,120.5 Z"/></g>
<g><path style="opacity:0.012" fill="#f6f6ff" d="M 168.5,119.5 C 168.833,119.5 169.167,119.5 169.5,119.5C 169.573,121.027 168.906,122.027 167.5,122.5C 167.5,121.833 167.5,121.167 167.5,120.5C 168.167,120.5 168.5,120.167 168.5,119.5 Z"/></g>
<g><path style="opacity:0.027" fill="#fe9223" d="M 413.5,120.5 C 413.833,120.5 414.167,120.5 414.5,120.5C 414.315,121.17 413.981,121.17 413.5,120.5 Z"/></g>
<g><path style="opacity:0.027" fill="#fe9223" d="M 412.5,121.5 C 412.833,121.5 413.167,121.5 413.5,121.5C 413.315,122.17 412.981,122.17 412.5,121.5 Z"/></g>
<g><path style="opacity:0.012" fill="#ffb0ff" d="M 381.5,122.5 C 380.833,122.5 380.5,122.833 380.5,123.5C 379.287,122.503 379.454,121.503 381,120.5C 381.464,121.094 381.631,121.761 381.5,122.5 Z"/></g>
<g><path style="opacity:0.004" fill="#00fffe" d="M 8.5,123.5 C 9.52502,123.897 9.69169,124.563 9,125.5C 8.53566,124.906 8.36899,124.239 8.5,123.5 Z"/></g>
<g><path style="opacity:0.997" fill="#575757" d="M 40.5,123.5 C 44.7756,124.608 47.6089,127.275 49,131.5C 52.3333,134.167 55.6667,136.833 59,139.5C 59.6898,142.196 61.1898,144.363 63.5,146C 65.8477,146.346 67.6811,147.513 69,149.5C 71,154.167 74.3333,157.5 79,159.5C 79.2602,161.618 80.2602,163.284 82,164.5C 82.1733,158.984 82.6733,153.651 83.5,148.5C 83.5,154.5 83.5,160.5 83.5,166.5C 82.596,167.209 82.2627,168.209 82.5,169.5C 81.1667,170.167 81.1667,170.833 82.5,171.5C 82.3404,173.153 81.6737,174.486 80.5,175.5C 80.1667,174.167 79.8333,174.167 79.5,175.5C 78.8333,175.5 78.5,175.833 78.5,176.5C 77.8333,176.5 77.5,176.833 77.5,177.5C 76.8333,177.5 76.5,177.833 76.5,178.5C 75.8333,178.5 75.5,178.833 75.5,179.5C 74.8333,179.5 74.5,179.833 74.5,180.5C 73.1667,180.833 73.1667,181.167 74.5,181.5C 74.0269,182.906 73.0269,183.573 71.5,183.5C 70.8333,182.167 70.1667,182.167 69.5,183.5C 68.5084,183.328 67.8417,183.662 67.5,184.5C 66.1667,184.5 64.8333,184.5 63.5,184.5C 55.8333,184.5 48.1667,184.5 40.5,184.5C 40.5,164.167 40.5,143.833 40.5,123.5 Z"/></g>
<g><path style="opacity:0.008" fill="#f3f2ff" d="M 166.5,122.5 C 166.833,122.5 167.167,122.5 167.5,122.5C 167.672,123.492 167.338,124.158 166.5,124.5C 166.5,123.833 166.5,123.167 166.5,122.5 Z"/></g>
<g><path style="opacity:0.02" fill="#fefffe" d="M 165.5,124.5 C 165.833,124.5 166.167,124.5 166.5,124.5C 166.315,125.17 165.981,125.17 165.5,124.5 Z"/></g>
<g><path style="opacity:0.012" fill="#feaa00" d="M 410.5,124.5 C 410.833,124.5 411.167,124.5 411.5,124.5C 411.315,125.17 410.981,125.17 410.5,124.5 Z"/></g>
<g><path style="opacity:0.016" fill="#fefffe" d="M 164.5,125.5 C 164.833,125.5 165.167,125.5 165.5,125.5C 165.315,126.17 164.981,126.17 164.5,125.5 Z"/></g>
<g><path style="opacity:0.012" fill="#feaa00" d="M 409.5,125.5 C 409.833,125.5 410.167,125.5 410.5,125.5C 410.315,126.17 409.981,126.17 409.5,125.5 Z"/></g>
<g><path style="opacity:0.004" fill="#00fffe" d="M 7.5,127.5 C 8.52502,127.897 8.69169,128.563 8,129.5C 7.53566,128.906 7.36899,128.239 7.5,127.5 Z"/></g>
<g><path style="opacity:0.008" fill="#fefffe" d="M 163.5,127.5 C 164.833,128.167 164.833,128.167 163.5,127.5 Z"/></g>
<g><path style="opacity:0.008" fill="#fe8000" d="M 408.5,127.5 C 409.833,128.167 409.833,128.167 408.5,127.5 Z"/></g>
<g><path style="opacity:0.008" fill="#fefffe" d="M 162.5,128.5 C 162.833,128.5 163.167,128.5 163.5,128.5C 163.315,129.17 162.981,129.17 162.5,128.5 Z"/></g>
<g><path style="opacity:0.016" fill="#fe803f" d="M 407.5,128.5 C 407.833,128.5 408.167,128.5 408.5,128.5C 408.315,129.17 407.981,129.17 407.5,128.5 Z"/></g>
<g><path style="opacity:0.008" fill="#fefffe" d="M 161.5,129.5 C 161.833,129.5 162.167,129.5 162.5,129.5C 162.315,130.17 161.981,130.17 161.5,129.5 Z"/></g>
<g><path style="opacity:0.027" fill="#fe9223" d="M 406.5,129.5 C 406.833,129.5 407.167,129.5 407.5,129.5C 407.315,130.17 406.981,130.17 406.5,129.5 Z"/></g>
<g><path style="opacity:0.008" fill="#299fff" d="M 6.5,133.5 C 6.35055,132.448 6.51722,131.448 7,130.5C 7.74012,131.749 7.57346,132.749 6.5,133.5 Z"/></g>
<g><path style="opacity:0.004" fill="#fefffe" d="M 160.5,130.5 C 160.833,130.5 161.167,130.5 161.5,130.5C 161.672,131.492 161.338,132.158 160.5,132.5C 160.5,131.833 160.5,131.167 160.5,130.5 Z"/></g>
<g><path style="opacity:0.035" fill="#fe8e1b" d="M 405.5,130.5 C 405.833,130.5 406.167,130.5 406.5,130.5C 406.315,131.17 405.981,131.17 405.5,130.5 Z"/></g>
<g><path style="opacity:0.004" fill="#ffcbfe" d="M 372.5,132.5 C 369.999,132.489 369.832,131.822 372,130.5C 372.464,131.094 372.631,131.761 372.5,132.5 Z"/></g>
<g><path style="opacity:0.031" fill="#fe9f1f" d="M 404.5,131.5 C 404.833,131.5 405.167,131.5 405.5,131.5C 405.315,132.17 404.981,132.17 404.5,131.5 Z"/></g>
<g><path style="opacity:0.012" fill="#11b4f0" d="M 1.5,133.5 C 0.596028,134.209 0.262695,135.209 0.5,136.5C 0.166667,136.5 -0.166667,136.5 -0.5,136.5C -0.5,135.167 -0.5,133.833 -0.5,132.5C 0.966513,129.742 1.63318,130.075 1.5,133.5 Z"/></g>
<g><path style="opacity:0.012" fill="#fefffe" d="M 160.5,132.5 C 159.833,133.167 159.833,133.167 160.5,132.5 Z"/></g>
<g><path style="opacity:0.024" fill="#fe8029" d="M 403.5,132.5 C 403.833,132.5 404.167,132.5 404.5,132.5C 404.315,133.17 403.981,133.17 403.5,132.5 Z"/></g>
<g><path style="opacity:0.012" fill="#fefffe" d="M 159.5,133.5 C 158.833,134.167 158.833,134.167 159.5,133.5 Z"/></g>
<g><path style="opacity:0.969" fill="#f29320" d="M 413.5,119.5 C 413.5,119.833 413.5,120.167 413.5,120.5C 412.833,120.5 412.5,120.833 412.5,121.5C 411.167,121.833 411.167,122.167 412.5,122.5C 412.672,123.492 412.338,124.158 411.5,124.5C 411.167,123.167 410.833,123.167 410.5,124.5C 409.833,124.5 409.5,124.833 409.5,125.5C 408.662,125.842 408.328,126.508 408.5,127.5C 407.833,127.5 407.5,127.833 407.5,128.5C 406.833,128.5 406.5,128.833 406.5,129.5C 405.833,129.5 405.5,129.833 405.5,130.5C 404.833,130.5 404.5,130.833 404.5,131.5C 403.833,131.5 403.5,131.833 403.5,132.5C 402.833,132.5 402.5,132.833 402.5,133.5C 401.833,133.5 401.5,133.833 401.5,134.5C 400.026,135.436 399.026,136.77 398.5,138.5C 397.833,138.5 397.5,138.833 397.5,139.5C 396.609,140.11 395.609,140.443 394.5,140.5C 384.831,140.042 375.164,139.709 365.5,139.5C 367.527,136.806 369.861,134.473 372.5,132.5C 375.138,129.526 377.805,126.526 380.5,123.5C 381.167,123.5 381.5,123.167 381.5,122.5C 382.167,122.5 382.5,122.167 382.5,121.5C 392.884,121.223 403.217,120.556 413.5,119.5 Z"/></g>
<g><path style="opacity:0.008" fill="#fefffe" d="M 158.5,134.5 C 157.833,135.167 157.833,135.167 158.5,134.5 Z"/></g>
<g><path style="opacity:0.004" fill="#ffe024" d="M 402.5,133.5 C 402.833,133.5 403.167,133.5 403.5,133.5C 403.289,135.424 402.623,135.757 401.5,134.5C 402.167,134.5 402.5,134.167 402.5,133.5 Z"/></g>
<g><path style="opacity:0.004" fill="#fefffe" d="M 155.5,135.5 C 156.833,136.167 156.833,136.167 155.5,135.5 Z"/></g>
<g><path style="opacity:0.008" fill="#fefffe" d="M 154.5,136.5 C 154.833,136.5 155.167,136.5 155.5,136.5C 155.315,137.17 154.981,137.17 154.5,136.5 Z"/></g>
<g><path style="opacity:0.985" fill="#545455" d="M 202.5,115.5 C 216.251,128.75 229.917,142.25 243.5,156C 244.094,156.464 244.761,156.631 245.5,156.5C 245.274,159.249 245.607,161.916 246.5,164.5C 246.154,165.696 245.654,165.696 245,164.5C 244.517,165.448 244.351,166.448 244.5,167.5C 243.662,167.842 243.328,168.508 243.5,169.5C 242.662,169.842 242.328,170.508 242.5,171.5C 241.662,171.842 241.328,172.508 241.5,173.5C 240.833,173.5 240.5,173.833 240.5,174.5C 239.662,174.842 239.328,175.508 239.5,176.5C 238.833,176.5 238.5,176.833 238.5,177.5C 237.833,177.5 237.5,177.833 237.5,178.5C 236.833,178.5 236.5,178.833 236.5,179.5C 235.833,179.5 235.5,179.833 235.5,180.5C 234.833,180.5 234.5,180.833 234.5,181.5C 233.508,181.328 232.842,181.662 232.5,182.5C 232.167,182.5 231.833,182.5 231.5,182.5C 230.508,182.328 229.842,182.662 229.5,183.5C 228.833,183.5 228.5,183.833 228.5,184.5C 227.209,184.263 226.209,184.596 225.5,185.5C 217.648,185.825 209.982,185.492 202.5,184.5C 202.5,161.5 202.5,138.5 202.5,115.5 Z"/></g>
<g><path style="opacity:0.008" fill="#fe8000" d="M 398.5,138.5 C 399.833,139.167 399.833,139.167 398.5,138.5 Z"/></g>
<g><path style="opacity:0.012" fill="#feaa00" d="M 397.5,139.5 C 397.833,139.5 398.167,139.5 398.5,139.5C 398.315,140.17 397.981,140.17 397.5,139.5 Z"/></g>
<g><path style="opacity:0.989" fill="#5e5e5f" d="M 358.5,73.5 C 358.5,104.833 358.5,136.167 358.5,167.5C 357.596,168.209 357.263,169.209 357.5,170.5C 356.662,170.842 356.328,171.508 356.5,172.5C 355.662,172.842 355.328,173.508 355.5,174.5C 354.833,174.5 354.5,174.833 354.5,175.5C 353.833,175.5 353.5,175.833 353.5,176.5C 352.833,176.5 352.5,176.833 352.5,177.5C 351.833,177.5 351.5,177.833 351.5,178.5C 350.833,178.5 350.5,178.833 350.5,179.5C 349.833,179.5 349.5,179.833 349.5,180.5C 348.833,180.5 348.5,180.833 348.5,181.5C 347.508,181.328 346.842,181.662 346.5,182.5C 345.508,182.328 344.842,182.662 344.5,183.5C 343.508,183.328 342.842,183.662 342.5,184.5C 341.167,184.5 339.833,184.5 338.5,184.5C 330.833,184.5 323.167,184.5 315.5,184.5C 315.5,162.5 315.5,140.5 315.5,118.5C 329.104,132.605 342.938,146.605 357,160.5C 357.5,151.506 357.666,142.506 357.5,133.5C 357.5,125.833 357.5,118.167 357.5,110.5C 357.171,97.9887 357.505,85.6554 358.5,73.5 Z"/></g>
<g><path style="opacity:0.016" fill="#0cb9ff" d="M 5.5,133.5 C 5.83333,133.5 6.16667,133.5 6.5,133.5C 6.11086,140.339 5.4442,147.006 4.5,153.5C 4.5,148.5 4.5,143.5 4.5,138.5C 5.45115,137.081 5.78448,135.415 5.5,133.5 Z"/></g>
<g><path style="opacity:0.015" fill="#fefffe" d="M 157.5,145.5 C 156.833,145.5 156.5,145.167 156.5,144.5C 156.747,142.025 157.413,142.025 158.5,144.5C 158.376,145.107 158.043,145.44 157.5,145.5 Z"/></g>
<g><path style="opacity:0.271" fill="#9c9b9a" d="M 314.5,73.5 C 315.49,79.6446 315.823,85.9779 315.5,92.5C 315.5,101.167 315.5,109.833 315.5,118.5C 315.5,140.5 315.5,162.5 315.5,184.5C 323.167,184.5 330.833,184.5 338.5,184.5C 338.5,184.833 338.5,185.167 338.5,185.5C 330.58,185.185 322.747,185.518 315,186.5C 314.5,148.835 314.333,111.168 314.5,73.5 Z"/></g>
<g><path style="opacity:0.004" fill="#ffcefe" d="M 392.5,143.5 C 394.793,144.301 394.46,144.968 391.5,145.5C 391.5,145.167 391.5,144.833 391.5,144.5C 392.167,144.5 392.5,144.167 392.5,143.5 Z"/></g>
<g><path style="opacity:0.008" fill="#fe8000" d="M 390.5,145.5 C 390.833,145.5 391.167,145.5 391.5,145.5C 391.315,146.17 390.981,146.17 390.5,145.5 Z"/></g>
<g><path style="opacity:0.012" fill="#feaa00" d="M 389.5,146.5 C 389.833,146.5 390.167,146.5 390.5,146.5C 390.315,147.17 389.981,147.17 389.5,146.5 Z"/></g>
<g><path style="opacity:0.016" fill="#febf00" d="M 388.5,147.5 C 388.833,147.5 389.167,147.5 389.5,147.5C 389.315,148.17 388.981,148.17 388.5,147.5 Z"/></g>
<g><path style="opacity:0.978" fill="#f6ab12" d="M 365.5,139.5 C 375.164,139.709 384.831,140.042 394.5,140.5C 394.218,141.778 393.551,142.778 392.5,143.5C 391.833,143.5 391.5,143.833 391.5,144.5C 390.833,144.5 390.5,144.833 390.5,145.5C 389.833,145.5 389.5,145.833 389.5,146.5C 388.833,146.5 388.5,146.833 388.5,147.5C 387.833,147.5 387.5,147.833 387.5,148.5C 386.833,148.5 386.5,148.833 386.5,149.5C 385.167,149.833 385.167,150.167 386.5,150.5C 385.738,152.262 384.404,153.262 382.5,153.5C 382.167,152.167 381.833,152.167 381.5,153.5C 380.833,153.5 380.5,153.833 380.5,154.5C 379.833,154.5 379.5,154.833 379.5,155.5C 378.508,155.328 377.842,155.662 377.5,156.5C 376.833,156.5 376.5,156.833 376.5,157.5C 375.167,157.833 375.167,158.167 376.5,158.5C 376.027,159.906 375.027,160.573 373.5,160.5C 373.167,159.167 372.833,159.167 372.5,160.5C 371.508,160.328 370.842,160.662 370.5,161.5C 369.833,161.5 369.5,161.833 369.5,162.5C 368.833,162.5 368.5,162.833 368.5,163.5C 367.508,163.328 366.842,163.662 366.5,164.5C 365.833,164.5 365.5,164.833 365.5,165.5C 363.973,165.427 362.973,166.094 362.5,167.5C 360.973,167.427 359.973,168.094 359.5,169.5C 358.662,169.158 358.328,168.492 358.5,167.5C 358.896,159.082 359.896,150.749 361.5,142.5C 362.167,142.5 362.5,142.167 362.5,141.5C 363.5,140.833 364.5,140.167 365.5,139.5 Z"/></g>
<g><path style="opacity:0.02" fill="#fe9900" d="M 387.5,148.5 C 387.833,148.5 388.167,148.5 388.5,148.5C 388.315,149.17 387.981,149.17 387.5,148.5 Z"/></g>
<g><path style="opacity:0.02" fill="#fdfdfd" d="M 107.5,149.5 C 108.167,149.5 108.5,149.833 108.5,150.5C 109.167,150.5 109.5,150.833 109.5,151.5C 108.352,152.895 107.352,152.728 106.5,151C 99.5079,150.5 92.5079,150.334 85.5,150.5C 85.6661,156.176 85.4994,161.843 85,167.5C 84.7216,168.416 84.2216,169.082 83.5,169.5C 83.5,168.5 83.5,167.5 83.5,166.5C 84.4889,161.025 84.8222,155.358 84.5,149.5C 92.1667,149.5 99.8333,149.5 107.5,149.5 Z"/></g>
<g><path style="opacity:0.016" fill="#febf00" d="M 386.5,149.5 C 386.833,149.5 387.167,149.5 387.5,149.5C 387.315,150.17 386.981,150.17 386.5,149.5 Z"/></g>
<g><path style="opacity:0.004" fill="#fefffe" d="M 162.5,151.5 C 163.833,152.167 163.833,152.167 162.5,151.5 Z"/></g>
<g><path style="opacity:0.852" fill="#11a3dd" d="M 13.5,113.5 C 12.6618,113.842 12.3284,114.508 12.5,115.5C 11.6618,115.842 11.3284,116.508 11.5,117.5C 10.1667,117.833 10.1667,118.167 11.5,118.5C 11.0428,121.221 10.0428,122.887 8.5,123.5C 6.7234,126.505 5.7234,129.838 5.5,133.5C 4.54885,134.919 4.21552,136.585 4.5,138.5C 3.16667,143.5 3.16667,148.5 4.5,153.5C 4.29379,156.495 4.96046,159.162 6.5,161.5C 6.26269,162.791 6.59603,163.791 7.5,164.5C 7.26269,165.791 7.59603,166.791 8.5,167.5C 10.1414,168.611 11.4748,170.611 12.5,173.5C 11.1667,174.167 11.1667,174.833 12.5,175.5C 12.5,176.167 12.8333,176.5 13.5,176.5C 13.3284,177.492 13.6618,178.158 14.5,178.5C 14.5,179.167 14.8333,179.5 15.5,179.5C 15.9321,180.71 16.5987,181.71 17.5,182.5C 17.5,183.167 17.8333,183.5 18.5,183.5C 19.8333,185.167 21.1667,186.833 22.5,188.5C 22.5,192.167 22.5,195.833 22.5,199.5C 21.1667,199.833 21.1667,200.167 22.5,200.5C 22.1034,201.525 21.4368,201.692 20.5,201C 19.0838,197.513 16.5838,194.346 13,191.5C 11.8525,192.458 10.8525,192.125 10,190.5C 10.6329,188.075 9.79952,186.075 7.5,184.5C 7.3404,182.847 6.67373,181.514 5.5,180.5C 5.16667,179.167 4.83333,179.167 4.5,180.5C 2.12695,178.421 0.79362,175.754 0.5,172.5C 1.83333,171.5 1.83333,170.5 0.5,169.5C 0.767809,167.901 0.434475,166.568 -0.5,165.5C -0.5,157.167 -0.5,148.833 -0.5,140.5C 0.434475,139.432 0.767809,138.099 0.5,136.5C 1.40397,135.791 1.73731,134.791 1.5,133.5C 3.40881,129.334 5.07548,125.001 6.5,120.5C 8.341,118.151 9.67433,115.485 10.5,112.5C 11.6594,111.544 12.8261,110.544 14,109.5C 14.5,109.667 15,109.833 15.5,110C 14.1772,110.816 13.5106,111.983 13.5,113.5 Z"/></g>
<g><path style="opacity:0.009" fill="#fefffe" d="M 110.5,153.5 C 111.167,153.5 111.5,153.833 111.5,154.5C 111.253,156.975 110.587,156.975 109.5,154.5C 109.624,153.893 109.957,153.56 110.5,153.5 Z"/></g>
<g><path style="opacity:0.024" fill="#feaa00" d="M 381.5,153.5 C 381.833,153.5 382.167,153.5 382.5,153.5C 382.315,154.17 381.981,154.17 381.5,153.5 Z"/></g>
<g><path style="opacity:0.012" fill="#feaa00" d="M 380.5,154.5 C 380.833,154.5 381.167,154.5 381.5,154.5C 381.315,155.17 380.981,155.17 380.5,154.5 Z"/></g>
<g><path style="opacity:0.008" fill="#fefffe" d="M 246.5,155.5 C 247.622,157.288 247.789,159.288 247,161.5C 246.505,159.527 246.338,157.527 246.5,155.5 Z"/></g>
<g><path style="opacity:0.008" fill="#fe8000" d="M 379.5,155.5 C 379.833,155.5 380.167,155.5 380.5,155.5C 380.315,156.17 379.981,156.17 379.5,155.5 Z"/></g>
<g><path style="opacity:0.004" fill="#ffd6fe" d="M 377.5,157.5 C 377.5,157.167 377.5,156.833 377.5,156.5C 378.167,156.5 378.833,156.5 379.5,156.5C 379.158,157.338 378.492,157.672 377.5,157.5 Z"/></g>
<g><path style="opacity:0.008" fill="#fe8000" d="M 376.5,157.5 C 376.833,157.5 377.167,157.5 377.5,157.5C 377.315,158.17 376.981,158.17 376.5,157.5 Z"/></g>
<g><path style="opacity:0.008" fill="#32beff" d="M 6.5,161.5 C 6.35055,160.448 6.51722,159.448 7,158.5C 7.74012,159.749 7.57346,160.749 6.5,161.5 Z"/></g>
<g><path style="opacity:0.014" fill="#fefffe" d="M 169.5,163.5 C 168.833,163.5 168.5,163.167 168.5,162.5C 168.747,160.025 169.413,160.025 170.5,162.5C 170.376,163.107 170.043,163.44 169.5,163.5 Z"/></g>
<g><path style="opacity:0.02" fill="#fecc00" d="M 372.5,160.5 C 372.833,160.5 373.167,160.5 373.5,160.5C 373.315,161.17 372.981,161.17 372.5,160.5 Z"/></g>
<g><path style="opacity:0.004" fill="#00fffe" d="M 7.5,164.5 C 7.36899,163.761 7.53566,163.094 8,162.5C 8.69169,163.437 8.52502,164.103 7.5,164.5 Z"/></g>
<g><path style="opacity:0.004" fill="#ffd4ff" d="M 370.5,161.5 C 371.167,161.5 371.833,161.5 372.5,161.5C 372.027,162.906 371.027,163.573 369.5,163.5C 369.5,163.167 369.5,162.833 369.5,162.5C 370.167,162.5 370.5,162.167 370.5,161.5 Z"/></g>
<g><path style="opacity:0.02" fill="#fecc00" d="M 368.5,163.5 C 368.833,163.5 369.167,163.5 369.5,163.5C 369.315,164.17 368.981,164.17 368.5,163.5 Z"/></g>
<g><path style="opacity:0.004" fill="#ffe100" d="M 366.5,164.5 C 367.167,164.5 367.833,164.5 368.5,164.5C 368.027,165.906 367.027,166.573 365.5,166.5C 365.5,166.167 365.5,165.833 365.5,165.5C 366.167,165.5 366.5,165.167 366.5,164.5 Z"/></g>
<g><path style="opacity:0.008" fill="#2ea9ff" d="M 8.5,167.5 C 8.36899,166.761 8.53566,166.094 9,165.5C 9.69169,166.437 9.52502,167.103 8.5,167.5 Z"/></g>
<g><path style="opacity:0.012" fill="#feaa00" d="M 365.5,166.5 C 364.833,167.167 364.833,167.167 365.5,166.5 Z"/></g>
<g><path style="opacity:0.004" fill="#fefffe" d="M 244.5,167.5 C 245.833,168.167 245.833,168.833 244.5,169.5C 244.5,168.833 244.5,168.167 244.5,167.5 Z"/></g>
<g><path style="opacity:0.008" fill="#fe8000" d="M 362.5,167.5 C 363.833,168.167 363.833,168.167 362.5,167.5 Z"/></g>
<g><path style="opacity:0.004" fill="#feff00" d="M 362.5,168.5 C 361.833,169.167 361.833,169.167 362.5,168.5 Z"/></g>
<g><path style="opacity:0.014" fill="#fefffe" d="M 82.5,169.5 C 82.8333,169.5 83.1667,169.5 83.5,169.5C 83.6716,170.492 83.3382,171.158 82.5,171.5C 82.5,170.833 82.5,170.167 82.5,169.5 Z"/></g>
<g><path style="opacity:0.008" fill="#fefffe" d="M 243.5,169.5 C 243.833,169.5 244.167,169.5 244.5,169.5C 244.672,170.492 244.338,171.158 243.5,171.5C 243.5,170.833 243.5,170.167 243.5,169.5 Z"/></g>
<g><path style="opacity:0.004" fill="#feff00" d="M 359.5,169.5 C 360.833,170.167 360.833,170.167 359.5,169.5 Z"/></g>
<g><path style="opacity:0.016" fill="#02b4ff" d="M -0.5,169.5 C -0.166667,169.5 0.166667,169.5 0.5,169.5C 0.5,170.5 0.5,171.5 0.5,172.5C 0.166667,172.5 -0.166667,172.5 -0.5,172.5C -0.5,171.5 -0.5,170.5 -0.5,169.5 Z"/></g>
<g><path style="opacity:0.006" fill="#fefffe" d="M 357.5,170.5 C 358.833,171.167 358.833,171.833 357.5,172.5C 357.5,171.833 357.5,171.167 357.5,170.5 Z"/></g>
<g><path style="opacity:0.01" fill="#fefffe" d="M 242.5,171.5 C 242.833,171.5 243.167,171.5 243.5,171.5C 243.672,172.492 243.338,173.158 242.5,173.5C 242.5,172.833 242.5,172.167 242.5,171.5 Z"/></g>
<g><path style="opacity:0.008" fill="#fefffe" d="M 356.5,172.5 C 356.833,172.5 357.167,172.5 357.5,172.5C 357.672,173.492 357.338,174.158 356.5,174.5C 356.5,173.833 356.5,173.167 356.5,172.5 Z"/></g>
<g><path style="opacity:0.024" fill="#fefffe" d="M 241.5,173.5 C 241.833,173.5 242.167,173.5 242.5,173.5C 242.315,174.17 241.981,174.17 241.5,173.5 Z"/></g>
<g><path style="opacity:0.014" fill="#fefffe" d="M 240.5,174.5 C 240.833,174.5 241.167,174.5 241.5,174.5C 241.672,175.492 241.338,176.158 240.5,176.5C 240.5,175.833 240.5,175.167 240.5,174.5 Z"/></g>
<g><path style="opacity:0.02" fill="#fefffe" d="M 355.5,174.5 C 355.833,174.5 356.167,174.5 356.5,174.5C 356.315,175.17 355.981,175.17 355.5,174.5 Z"/></g>
<g><path style="opacity:0.02" fill="#0dabd5" d="M 12.5,173.5 C 13.9063,173.973 14.573,174.973 14.5,176.5C 14.1667,176.5 13.8333,176.5 13.5,176.5C 12.8333,176.5 12.5,176.167 12.5,175.5C 12.5,174.833 12.5,174.167 12.5,173.5 Z"/></g>
<g><path style="opacity:0.004" fill="#fefffe" d="M 79.5,175.5 C 79.8333,175.5 80.1667,175.5 80.5,175.5C 80.3147,176.17 79.9813,176.17 79.5,175.5 Z"/></g>
<g><path style="opacity:0.02" fill="#fefffe" d="M 354.5,175.5 C 354.833,175.5 355.167,175.5 355.5,175.5C 355.315,176.17 354.981,176.17 354.5,175.5 Z"/></g>
<g><path style="opacity:0.01" fill="#fefffe" d="M 78.5,176.5 C 78.8333,176.5 79.1667,176.5 79.5,176.5C 79.1667,178.833 77.8333,180.167 75.5,180.5C 75.5,180.167 75.5,179.833 75.5,179.5C 76.1667,179.5 76.5,179.167 76.5,178.5C 77.1667,178.5 77.5,178.167 77.5,177.5C 78.1667,177.5 78.5,177.167 78.5,176.5 Z"/></g>
<g><path style="opacity:0.02" fill="#fefffe" d="M 239.5,176.5 C 239.833,176.5 240.167,176.5 240.5,176.5C 240.315,177.17 239.981,177.17 239.5,176.5 Z"/></g>
<g><path style="opacity:0.008" fill="#fe8000" d="M 307.5,177.5 C 306.833,176.167 306.833,176.167 307.5,177.5 Z"/></g>
<g><path style="opacity:0.006" fill="#fefffe" d="M 353.5,176.5 C 353.833,176.5 354.167,176.5 354.5,176.5C 354.5,178.5 353.5,179.5 351.5,179.5C 351.5,179.167 351.5,178.833 351.5,178.5C 352.167,178.5 352.5,178.167 352.5,177.5C 353.167,177.5 353.5,177.167 353.5,176.5 Z"/></g>
<g><path style="opacity:0.012" fill="#fefffe" d="M 179.5,177.5 C 182.167,179.167 182.167,180.833 179.5,182.5C 179.5,180.833 179.5,179.167 179.5,177.5 Z"/></g>
<g><path style="opacity:0.02" fill="#fefffe" d="M 238.5,177.5 C 238.833,177.5 239.167,177.5 239.5,177.5C 239.315,178.17 238.981,178.17 238.5,177.5 Z"/></g>
<g><path style="opacity:0.012" fill="#1faef8" d="M 14.5,176.5 C 16.3818,177.221 16.7152,178.221 15.5,179.5C 14.8333,179.5 14.5,179.167 14.5,178.5C 14.5,177.833 14.5,177.167 14.5,176.5 Z"/></g>
<g><path style="opacity:0.016" fill="#fefffe" d="M 237.5,178.5 C 237.833,178.5 238.167,178.5 238.5,178.5C 238.315,179.17 237.981,179.17 237.5,178.5 Z"/></g>
<g><path style="opacity:0.012" fill="#fefffe" d="M 236.5,179.5 C 236.833,179.5 237.167,179.5 237.5,179.5C 237.315,180.17 236.981,180.17 236.5,179.5 Z"/></g>
<g><path style="opacity:0.008" fill="#fefffe" d="M 350.5,179.5 C 350.833,179.5 351.167,179.5 351.5,179.5C 351.315,180.17 350.981,180.17 350.5,179.5 Z"/></g>
<g><path style="opacity:0.024" fill="#fefffe" d="M 74.5,180.5 C 74.8333,180.5 75.1667,180.5 75.5,180.5C 75.3147,181.17 74.9813,181.17 74.5,180.5 Z"/></g>
<g><path style="opacity:0.016" fill="#fefffe" d="M 235.5,180.5 C 235.833,180.5 236.167,180.5 236.5,180.5C 236.315,181.17 235.981,181.17 235.5,180.5 Z"/></g>
<g><path style="opacity:0.016" fill="#fefffe" d="M 349.5,180.5 C 349.833,180.5 350.167,180.5 350.5,180.5C 350.315,181.17 349.981,181.17 349.5,180.5 Z"/></g>
<g><path style="opacity:0.008" fill="#0a8eff" d="M 4.5,180.5 C 4.83333,180.5 5.16667,180.5 5.5,180.5C 5.16667,183.167 4.83333,183.167 4.5,180.5 Z"/></g>
<g><path style="opacity:0.016" fill="#fefffe" d="M 234.5,181.5 C 234.833,181.5 235.167,181.5 235.5,181.5C 235.315,182.17 234.981,182.17 234.5,181.5 Z"/></g>
<g><path style="opacity:0.02" fill="#fefffe" d="M 348.5,181.5 C 348.833,181.5 349.167,181.5 349.5,181.5C 349.315,182.17 348.981,182.17 348.5,181.5 Z"/></g>
<g><path style="opacity:0.016" fill="#1f9be2" d="M 18.5,183.5 C 17.8333,183.5 17.5,183.167 17.5,182.5C 17.7467,180.025 18.4134,180.025 19.5,182.5C 19.3764,183.107 19.0431,183.44 18.5,183.5 Z"/></g>
<g><path style="opacity:0.008" fill="#fefffe" d="M 178.5,182.5 C 178.833,182.5 179.167,182.5 179.5,182.5C 179.672,183.492 179.338,184.158 178.5,184.5C 178.5,183.833 178.5,183.167 178.5,182.5 Z"/></g>
<g><path style="opacity:0.016" fill="#fefffe" d="M 232.5,183.5 C 232.5,183.167 232.5,182.833 232.5,182.5C 233.167,182.5 233.833,182.5 234.5,182.5C 234.158,183.338 233.492,183.672 232.5,183.5 Z"/></g>
<g><path style="opacity:0.016" fill="#fefffe" d="M 346.5,183.5 C 346.5,183.167 346.5,182.833 346.5,182.5C 347.167,182.5 347.833,182.5 348.5,182.5C 348.158,183.338 347.492,183.672 346.5,183.5 Z"/></g>
<g><path style="opacity:0.018" fill="#fefffe" d="M 69.5,184.5 C 69.5,184.167 69.5,183.833 69.5,183.5C 70.1667,183.5 70.8333,183.5 71.5,183.5C 71.1583,184.338 70.4916,184.672 69.5,184.5 Z"/></g>
<g><path style="opacity:0.007" fill="#fefffe" d="M 177.5,183.5 C 177.5,184.167 177.833,184.5 178.5,184.5C 178.027,185.906 177.027,186.573 175.5,186.5C 175.5,186.167 175.5,185.833 175.5,185.5C 176.167,185.5 176.5,185.167 176.5,184.5C 176.5,183.833 176.833,183.5 177.5,183.5 Z"/></g>
<g><path style="opacity:0.011" fill="#f3f3f3" d="M 229.5,183.5 C 229.842,182.662 230.508,182.328 231.5,182.5C 231.5,183.167 231.833,183.5 232.5,183.5C 230.824,185.834 228.491,186.834 225.5,186.5C 225.5,186.167 225.5,185.833 225.5,185.5C 226.791,185.737 227.791,185.404 228.5,184.5C 230.224,184.539 230.557,184.206 229.5,183.5 Z"/></g>
<g><path style="opacity:0.018" fill="#fefffe" d="M 344.5,184.5 C 344.5,184.167 344.5,183.833 344.5,183.5C 345.167,183.5 345.833,183.5 346.5,183.5C 346.158,184.338 345.492,184.672 344.5,184.5 Z"/></g>
<g><path style="opacity:0.004" fill="#00fffe" d="M 7.5,184.5 C 6.83333,185.167 6.83333,185.167 7.5,184.5 Z"/></g>
<g><path style="opacity:0.016" fill="#fefffe" d="M 67.5,185.5 C 67.5,185.167 67.5,184.833 67.5,184.5C 68.1667,184.5 68.8333,184.5 69.5,184.5C 69.1583,185.338 68.4916,185.672 67.5,185.5 Z"/></g>
<g><path style="opacity:0.016" fill="#fefffe" d="M 342.5,185.5 C 342.5,185.167 342.5,184.833 342.5,184.5C 343.167,184.5 343.833,184.5 344.5,184.5C 344.158,185.338 343.492,185.672 342.5,185.5 Z"/></g>
<g><path style="opacity:0.011" fill="#fefffe" d="M 338.5,186.5 C 338.5,186.167 338.5,185.833 338.5,185.5C 339.833,185.5 341.167,185.5 342.5,185.5C 341.432,186.434 340.099,186.768 338.5,186.5 Z"/></g>
<g><path style="opacity:0.008" fill="#007fff" d="M 7.5,186.5 C 8.83333,187.167 8.83333,187.167 7.5,186.5 Z"/></g>
<g><path style="opacity:0.008" fill="#fefffe" d="M 175.5,186.5 C 164.007,187.659 152.341,187.826 140.5,187C 152.162,186.5 163.829,186.333 175.5,186.5 Z"/></g>
<g><path style="opacity:0.008" fill="#fefffe" d="M 225.5,186.5 C 218.011,187.656 210.345,187.822 202.5,187C 210.159,186.5 217.826,186.334 225.5,186.5 Z"/></g>
<g><path style="opacity:0.008" fill="#fe8000" d="M 286.5,187.5 C 285.833,186.167 285.833,186.167 286.5,187.5 Z"/></g>
<g><path style="opacity:0.004" fill="#feff00" d="M 284.5,188.5 C 283.761,188.631 283.094,188.464 282.5,188C 283.437,187.308 284.103,187.475 284.5,188.5 Z"/></g>
<g><path style="opacity:0.008" fill="#2ca9ea" d="M 23.5,188.5 C 25.0699,187.441 26.4032,187.941 27.5,190C 26.9056,190.464 26.2389,190.631 25.5,190.5C 25.5,189.833 25.1667,189.5 24.5,189.5C 24.5,188.833 24.1667,188.5 23.5,188.5 Z"/></g>
<g><path style="opacity:0.947" fill="#f7ac19" d="M 312.5,175.5 C 312.833,175.5 313.167,175.5 313.5,175.5C 313.5,179.5 313.5,183.5 313.5,187.5C 321.822,186.945 330.156,186.612 338.5,186.5C 334.353,187.325 330.019,187.825 325.5,188C 324.142,188.934 322.808,189.768 321.5,190.5C 320.508,190.328 319.842,190.662 319.5,191.5C 318.508,191.328 317.842,191.662 317.5,192.5C 316.508,192.328 315.842,192.662 315.5,193.5C 312.833,193.833 312.833,194.167 315.5,194.5C 313.574,196.293 311.241,197.293 308.5,197.5C 307.833,196.167 307.167,196.167 306.5,197.5C 305.508,197.328 304.842,197.662 304.5,198.5C 303.209,198.263 302.209,198.596 301.5,199.5C 300.209,199.263 299.209,199.596 298.5,200.5C 295.833,200.833 295.833,201.167 298.5,201.5C 295.47,203.403 292.137,204.737 288.5,205.5C 287.5,204.167 286.5,204.167 285.5,205.5C 284.508,205.328 283.842,205.662 283.5,206.5C 282.209,206.263 281.209,206.596 280.5,207.5C 279.209,207.263 278.209,207.596 277.5,208.5C 276.209,208.263 275.209,208.596 274.5,209.5C 271.848,209.41 269.515,210.076 267.5,211.5C 266.833,211.5 266.167,211.5 265.5,211.5C 265.221,206.405 265.555,201.405 266.5,196.5C 266.082,195.778 265.416,195.278 264.5,195C 266.025,193.991 267.692,193.491 269.5,193.5C 270.5,194.833 271.5,194.833 272.5,193.5C 273.492,193.672 274.158,193.338 274.5,192.5C 278.127,191.679 281.46,190.346 284.5,188.5C 285.492,188.672 286.158,188.338 286.5,187.5C 293.923,184.954 300.923,181.621 307.5,177.5C 309.553,177.598 311.22,176.931 312.5,175.5 Z"/></g>
<g><path style="opacity:0.004" fill="#ffe3ff" d="M 321.5,191.5 C 321.5,191.167 321.5,190.833 321.5,190.5C 324.167,190.833 324.167,191.167 321.5,191.5 Z"/></g>
<g><path style="opacity:0.008" fill="#ff9600" d="M 319.5,192.5 C 319.5,192.167 319.5,191.833 319.5,191.5C 320.167,191.5 320.833,191.5 321.5,191.5C 321.158,192.338 320.492,192.672 319.5,192.5 Z"/></g>
<g><path style="opacity:0.012" fill="#ffba0c" d="M 274.5,192.5 C 273.508,192.328 272.842,192.662 272.5,193.5C 271.5,193.5 270.5,193.5 269.5,193.5C 270.995,191.655 272.662,191.322 274.5,192.5 Z"/></g>
<g><path style="opacity:0.012" fill="#ffb500" d="M 317.5,193.5 C 317.5,193.167 317.5,192.833 317.5,192.5C 318.167,192.5 318.833,192.5 319.5,192.5C 319.158,193.338 318.492,193.672 317.5,193.5 Z"/></g>
<g><path style="opacity:0.018" fill="#feaa00" d="M 315.5,194.5 C 315.5,194.167 315.5,193.833 315.5,193.5C 316.167,193.5 316.833,193.5 317.5,193.5C 317.158,194.338 316.492,194.672 315.5,194.5 Z"/></g>
<g><path style="opacity:0.016" fill="#007fbf" d="M 35.5,196.5 C 36.8333,197.167 36.8333,197.167 35.5,196.5 Z"/></g>
<g><path style="opacity:0.008" fill="#007fff" d="M 37.5,197.5 C 38.8333,198.167 38.8333,198.167 37.5,197.5 Z"/></g>
<g><path style="opacity:0.008" fill="#fe8000" d="M 256.5,197.5 C 257.833,198.167 257.833,198.167 256.5,197.5 Z"/></g>
<g><path style="opacity:0.008" fill="#fe8000" d="M 306.5,198.5 C 306.5,198.167 306.5,197.833 306.5,197.5C 307.167,197.5 307.833,197.5 308.5,197.5C 308.158,198.338 307.492,198.672 306.5,198.5 Z"/></g>
<g><path style="opacity:0.008" fill="#00807f" d="M 39.5,198.5 C 40.8333,199.167 40.8333,199.167 39.5,198.5 Z"/></g>
<g><path style="opacity:0.004" fill="#feff00" d="M 254.5,199.5 C 253.761,199.631 253.094,199.464 252.5,199C 253.437,198.308 254.103,198.475 254.5,199.5 Z"/></g>
<g><path style="opacity:0.004" fill="#feff00" d="M 304.5,198.5 C 305.167,198.5 305.833,198.5 306.5,198.5C 305.833,199.833 305.167,199.833 304.5,198.5 Z"/></g>
<g><path style="opacity:0.004" fill="#feff00" d="M 301.5,199.5 C 302.239,199.369 302.906,199.536 303.5,200C 302.563,200.692 301.897,200.525 301.5,199.5 Z"/></g>
<g><path style="opacity:0.008" fill="#ffacfe" d="M 298.5,201.5 C 298.5,201.167 298.5,200.833 298.5,200.5C 301.167,200.833 301.167,201.167 298.5,201.5 Z"/></g>
<g><path style="opacity:0.925" fill="#f2931f" d="M 266.5,196.5 C 265.555,201.405 265.221,206.405 265.5,211.5C 264.833,211.5 264.5,211.833 264.5,212.5C 260.5,212.833 260.5,213.167 264.5,213.5C 261.495,215.277 258.162,216.277 254.5,216.5C 253.5,215.167 252.5,215.167 251.5,216.5C 249.901,216.232 248.568,216.566 247.5,217.5C 245.901,217.232 244.568,217.566 243.5,218.5C 242.209,218.263 241.209,218.596 240.5,219.5C 238.585,219.216 236.919,219.549 235.5,220.5C 233.833,220.5 232.167,220.5 230.5,220.5C 230.771,216.38 230.438,212.047 229.5,207.5C 232.067,207.279 234.401,206.612 236.5,205.5C 237.791,205.737 238.791,205.404 239.5,204.5C 244.784,203.405 249.784,201.739 254.5,199.5C 258.603,198.91 262.603,197.91 266.5,196.5 Z"/></g>
<g><path style="opacity:0.918" fill="#0f7dc0" d="M 22.5,188.5 C 22.8333,188.5 23.1667,188.5 23.5,188.5C 24.1667,188.5 24.5,188.833 24.5,189.5C 25.1667,189.5 25.5,189.833 25.5,190.5C 29.1223,191.338 32.4556,193.338 35.5,196.5C 34.1667,196.833 34.1667,197.167 35.5,197.5C 35.8417,198.338 36.5084,198.672 37.5,198.5C 37.8417,199.338 38.5084,199.672 39.5,199.5C 39.8417,200.338 40.5084,200.672 41.5,200.5C 41.5,201.167 41.8333,201.5 42.5,201.5C 42.8333,201.5 43.1667,201.5 43.5,201.5C 43.5,202.167 43.8333,202.5 44.5,202.5C 44.8417,203.338 45.5084,203.672 46.5,203.5C 46.8417,204.338 47.5084,204.672 48.5,204.5C 48.8417,205.338 49.5084,205.672 50.5,205.5C 50.5,209.167 50.5,212.833 50.5,216.5C 45.8333,214.5 41.1667,212.5 36.5,210.5C 34.4099,208.61 32.0765,206.943 29.5,205.5C 28.549,206.326 27.549,206.492 26.5,206C 26.2571,203.725 24.9237,201.892 22.5,200.5C 22.5,200.167 22.5,199.833 22.5,199.5C 22.5,195.833 22.5,192.167 22.5,188.5 Z"/></g>
<g><path style="opacity:0.012" fill="#ffa624" d="M 239.5,204.5 C 238.209,204.263 237.209,204.596 236.5,205.5C 231.589,205.164 231.923,204.498 237.5,203.5C 238.416,203.543 239.083,203.876 239.5,204.5 Z"/></g>
<g><path style="opacity:0.012" fill="#0463b1" d="M 53.5,206.5 C 53.5,206.167 53.5,205.833 53.5,205.5C 56.1667,205.833 56.1667,206.167 53.5,206.5 Z"/></g>
<g><path style="opacity:0.004" fill="#2942e9" d="M 56.5,207.5 C 56.8966,206.475 57.5632,206.308 58.5,207C 57.9056,207.464 57.2389,207.631 56.5,207.5 Z"/></g>
<g><path style="opacity:0.012" fill="#ffbf00" d="M 228.5,207.5 C 227.448,207.649 226.448,207.483 225.5,207C 226.749,206.26 227.749,206.427 228.5,207.5 Z"/></g>
<g><path style="opacity:0.016" fill="#ffc000" d="M 285.5,205.5 C 286.5,205.5 287.5,205.5 288.5,205.5C 287.22,206.931 285.553,207.598 283.5,207.5C 283.5,207.167 283.5,206.833 283.5,206.5C 284.492,206.672 285.158,206.338 285.5,205.5 Z"/></g>
<g><path style="opacity:0.008" fill="#00807f" d="M 59.5,207.5 C 60.8333,208.167 60.8333,208.167 59.5,207.5 Z"/></g>
<g><path style="opacity:0.008" fill="#ffc1fd" d="M 224.5,208.5 C 223.448,208.649 222.448,208.483 221.5,208C 222.749,207.26 223.749,207.427 224.5,208.5 Z"/></g>
<g><path style="opacity:0.008" fill="#ffa1fe" d="M 280.5,208.5 C 280.5,208.167 280.5,207.833 280.5,207.5C 281.5,207.5 282.5,207.5 283.5,207.5C 282.791,208.404 281.791,208.737 280.5,208.5 Z"/></g>
<g><path style="opacity:0.008" fill="#007fff" d="M 31.5,208.5 C 32.8333,209.167 32.8333,209.167 31.5,208.5 Z"/></g>
<g><path style="opacity:0.004" fill="#0000ff" d="M 62.5,209.5 C 62.8966,208.475 63.5632,208.308 64.5,209C 63.9056,209.464 63.2389,209.631 62.5,209.5 Z"/></g>
<g><path style="opacity:0.004" fill="#feff00" d="M 219.5,209.5 C 218.761,209.631 218.094,209.464 217.5,209C 218.437,208.308 219.103,208.475 219.5,209.5 Z"/></g>
<g><path style="opacity:0.004" fill="#feff00" d="M 277.5,208.5 C 278.5,208.5 279.5,208.5 280.5,208.5C 279.5,209.833 278.5,209.833 277.5,208.5 Z"/></g>
<g><path style="opacity:0.008" fill="#007fff" d="M 33.5,209.5 C 34.8333,210.167 34.8333,210.167 33.5,209.5 Z"/></g>
<g><path style="opacity:0.008" fill="#ff87fb" d="M 210.5,210.5 C 211.601,209.402 212.934,209.235 214.5,210C 213.207,210.49 211.873,210.657 210.5,210.5 Z"/></g>
<g><path style="opacity:0.004" fill="#feff00" d="M 274.5,209.5 C 275.833,210.167 275.833,210.167 274.5,209.5 Z"/></g>
<g><path style="opacity:0.008" fill="#007fff" d="M 36.5,210.5 C 35.8333,211.167 35.8333,211.167 36.5,210.5 Z"/></g>
<g><path style="opacity:0.908" fill="#165da4" d="M 41.5,200.5 C 41.56,199.957 41.8933,199.624 42.5,199.5C 46.3888,201.274 50.0554,203.274 53.5,205.5C 50.8333,205.833 50.8333,206.167 53.5,206.5C 54.209,207.404 55.209,207.737 56.5,207.5C 58.1016,209.074 60.1016,209.741 62.5,209.5C 66.1386,212.039 70.1386,212.706 74.5,211.5C 78.0434,212.213 81.3767,213.213 84.5,214.5C 79.1667,214.833 79.1667,215.167 84.5,215.5C 85.9187,216.451 87.5853,216.784 89.5,216.5C 90.5676,217.434 91.901,217.768 93.5,217.5C 93.7471,220.939 93.4137,224.272 92.5,227.5C 85.8333,227.833 85.8333,228.167 92.5,228.5C 92.5,228.833 92.5,229.167 92.5,229.5C 83.6461,228.62 74.9794,226.787 66.5,224C 67.5,223.667 68.5,223.333 69.5,223C 67.26,222.023 64.9267,221.523 62.5,221.5C 61.791,220.596 60.791,220.263 59.5,220.5C 58.791,219.596 57.791,219.263 56.5,219.5C 55.791,218.596 54.791,218.263 53.5,218.5C 53.1583,217.662 52.4916,217.328 51.5,217.5C 51.5,216.833 51.1667,216.5 50.5,216.5C 50.5,212.833 50.5,209.167 50.5,205.5C 50.1583,204.662 49.4916,204.328 48.5,204.5C 48.1583,203.662 47.4916,203.328 46.5,203.5C 46.1583,202.662 45.4916,202.328 44.5,202.5C 43.8333,202.5 43.5,202.167 43.5,201.5C 43.1667,201.5 42.8333,201.5 42.5,201.5C 41.8333,201.5 41.5,201.167 41.5,200.5 Z"/></g>
<g><path style="opacity:0.008" fill="#fe8000" d="M 271.5,210.5 C 272.833,211.167 272.833,211.167 271.5,210.5 Z"/></g>
<g><path style="opacity:0.928" fill="#ed802c" d="M 228.5,207.5 C 228.833,207.5 229.167,207.5 229.5,207.5C 230.438,212.047 230.771,216.38 230.5,220.5C 230.5,220.833 230.5,221.167 230.5,221.5C 228.585,221.216 226.919,221.549 225.5,222.5C 223.585,222.216 221.919,222.549 220.5,223.5C 218.585,223.216 216.919,223.549 215.5,224.5C 213.585,224.216 211.919,224.549 210.5,225.5C 208.265,225.205 206.265,225.539 204.5,226.5C 202.265,226.205 200.265,226.539 198.5,227.5C 196.833,227.5 195.167,227.5 193.5,227.5C 194.43,223.6 194.763,219.6 194.5,215.5C 195.492,215.672 196.158,215.338 196.5,214.5C 198.415,214.784 200.081,214.451 201.5,213.5C 203.415,213.784 205.081,213.451 206.5,212.5C 208.099,212.768 209.432,212.434 210.5,211.5C 213.781,211.58 216.781,210.913 219.5,209.5C 221.415,209.784 223.081,209.451 224.5,208.5C 226.099,208.768 227.432,208.434 228.5,207.5 Z"/></g>
<g><path style="opacity:0.012" fill="#ffb5ff" d="M 267.5,212.5 C 267.5,212.167 267.5,211.833 267.5,211.5C 271.5,211.833 271.5,212.167 267.5,212.5 Z"/></g>
<g><path style="opacity:0.012" fill="#f76635" d="M 210.5,210.5 C 210.5,210.833 210.5,211.167 210.5,211.5C 208.901,211.232 207.568,211.566 206.5,212.5C 204.585,212.216 202.919,212.549 201.5,213.5C 199.585,213.216 197.919,213.549 196.5,214.5C 194.5,214.5 192.5,214.5 190.5,214.5C 196.923,212.549 203.589,211.215 210.5,210.5 Z"/></g>
<g><path style="opacity:0.016" fill="#ffaa00" d="M 264.5,213.5 C 264.5,213.167 264.5,212.833 264.5,212.5C 265.5,212.5 266.5,212.5 267.5,212.5C 266.791,213.404 265.791,213.737 264.5,213.5 Z"/></g>
<g><path style="opacity:0.024" fill="#335893" d="M 84.5,215.5 C 84.5,215.167 84.5,214.833 84.5,214.5C 88.4248,214.43 92.0915,215.097 95.5,216.5C 93.5,216.5 91.5,216.5 89.5,216.5C 88.0813,215.549 86.4147,215.216 84.5,215.5 Z"/></g>
<g><path style="opacity:0.02" fill="#405e9c" d="M 95.5,217.5 C 95.5,217.167 95.5,216.833 95.5,216.5C 104.833,216.833 104.833,217.167 95.5,217.5 Z"/></g>
<g><path style="opacity:0.016" fill="#ff8a00" d="M 251.5,217.5 C 251.5,217.167 251.5,216.833 251.5,216.5C 252.5,216.5 253.5,216.5 254.5,216.5C 253.791,217.404 252.791,217.737 251.5,217.5 Z"/></g>
<g><path style="opacity:0.016" fill="#2874a5" d="M 51.5,217.5 C 51.8417,218.338 52.5084,218.672 53.5,218.5C 53.5,218.833 53.5,219.167 53.5,219.5C 51.6916,219.509 50.0249,219.009 48.5,218C 49.448,217.517 50.448,217.351 51.5,217.5 Z"/></g>
<g><path style="opacity:0.012" fill="#544e5c" d="M 104.5,218.5 C 106.966,217.366 109.633,217.199 112.5,218C 109.854,218.497 107.187,218.664 104.5,218.5 Z"/></g>
<g><path style="opacity:0.012" fill="#c25949" d="M 157.5,218.5 C 160.304,217.362 163.304,217.195 166.5,218C 163.518,218.498 160.518,218.665 157.5,218.5 Z"/></g>
<g><path style="opacity:0.914" fill="#d3753b" d="M 190.5,214.5 C 191.568,215.434 192.901,215.768 194.5,215.5C 194.763,219.6 194.43,223.6 193.5,227.5C 190.017,228.01 186.684,228.677 183.5,229.5C 180.167,229.5 176.833,229.5 173.5,229.5C 172.577,225.936 172.244,222.269 172.5,218.5C 173.873,218.657 175.207,218.49 176.5,218C 173.833,217.667 171.167,217.333 168.5,217C 175.815,215.931 183.148,215.098 190.5,214.5 Z"/></g>
<g><path style="opacity:0.012" fill="#ffb3ff" d="M 247.5,218.5 C 247.5,218.167 247.5,217.833 247.5,217.5C 248.833,217.5 250.167,217.5 251.5,217.5C 250.432,218.434 249.099,218.768 247.5,218.5 Z"/></g>
<g><path style="opacity:0.004" fill="#0c0c0c" d="M 135.5,218.5 C 135.5,218.833 135.5,219.167 135.5,219.5C 129.974,219.179 124.64,219.512 119.5,220.5C 118.833,220.5 118.5,220.167 118.5,219.5C 123.975,218.511 129.642,218.178 135.5,218.5 Z"/></g>
<g><path style="opacity:0.004" fill="#f0351b" d="M 135.5,219.5 C 135.5,219.167 135.5,218.833 135.5,218.5C 141.026,218.179 146.36,218.512 151.5,219.5C 151.5,220.167 151.167,220.5 150.5,220.5C 145.695,219.513 140.695,219.179 135.5,219.5 Z"/></g>
<g><path style="opacity:0.008" fill="#ffb5fe" d="M 243.5,219.5 C 243.5,219.167 243.5,218.833 243.5,218.5C 244.833,218.5 246.167,218.5 247.5,218.5C 246.432,219.434 245.099,219.768 243.5,219.5 Z"/></g>
<g><path style="opacity:0.004" fill="#0000ff" d="M 53.5,219.5 C 54.5,219.5 55.5,219.5 56.5,219.5C 55.5,220.833 54.5,220.833 53.5,219.5 Z"/></g>
<g><path style="opacity:0.899" fill="#465b80" d="M 93.5,217.5 C 94.1667,217.5 94.8333,217.5 95.5,217.5C 101.937,219.039 108.604,219.706 115.5,219.5C 117.298,222.831 117.964,226.498 117.5,230.5C 114.5,230.5 111.5,230.5 108.5,230.5C 103.367,229.335 98.034,228.668 92.5,228.5C 92.5,228.167 92.5,227.833 92.5,227.5C 93.4137,224.272 93.7471,220.939 93.5,217.5 Z"/></g>
<g><path style="opacity:0.931" fill="#b4714a" d="M 172.5,218.5 C 172.244,222.269 172.577,225.936 173.5,229.5C 173.5,229.833 173.5,230.167 173.5,230.5C 167.167,230.5 160.833,230.5 154.5,230.5C 154.784,227.223 154.451,224.057 153.5,221C 154.737,220.768 155.737,220.268 156.5,219.5C 161.862,219.528 167.195,219.194 172.5,218.5 Z"/></g>
<g><path style="opacity:0.004" fill="#feff00" d="M 240.5,219.5 C 241.5,219.5 242.5,219.5 243.5,219.5C 242.5,220.833 241.5,220.833 240.5,219.5 Z"/></g>
<g><path style="opacity:0.004" fill="#0000ff" d="M 59.5,220.5 C 59.1034,221.525 58.4368,221.692 57.5,221C 58.0944,220.536 58.7611,220.369 59.5,220.5 Z"/></g>
<g><path style="opacity:0.901" fill="#6a636d" d="M 115.5,219.5 C 116.5,219.5 117.5,219.5 118.5,219.5C 118.5,220.167 118.833,220.5 119.5,220.5C 123.5,220.5 127.5,220.5 131.5,220.5C 130.586,223.728 130.253,227.061 130.5,230.5C 126.167,230.5 121.833,230.5 117.5,230.5C 117.964,226.498 117.298,222.831 115.5,219.5 Z"/></g>
<g><path style="opacity:0.939" fill="#906a5b" d="M 151.5,219.5 C 153.167,219.5 154.833,219.5 156.5,219.5C 155.737,220.268 154.737,220.768 153.5,221C 154.451,224.057 154.784,227.223 154.5,230.5C 146.5,230.5 138.5,230.5 130.5,230.5C 130.253,227.061 130.586,223.728 131.5,220.5C 137.833,220.5 144.167,220.5 150.5,220.5C 151.167,220.5 151.5,220.167 151.5,219.5 Z"/></g>
<g><path style="opacity:0.004" fill="#ffe0fe" d="M 235.5,220.5 C 236.552,220.351 237.552,220.517 238.5,221C 237.251,221.74 236.251,221.573 235.5,220.5 Z"/></g>
<g><path style="opacity:0.012" fill="#15639c" d="M 62.5,221.5 C 62.1034,222.525 61.4368,222.692 60.5,222C 61.0944,221.536 61.7611,221.369 62.5,221.5 Z"/></g>
<g><path style="opacity:0.012" fill="#ffb5ff" d="M 230.5,221.5 C 231.552,221.351 232.552,221.517 233.5,222C 232.251,222.74 231.251,222.573 230.5,221.5 Z"/></g>
<g><path style="opacity:0.016" fill="#ff9b32" d="M 225.5,223.5 C 225.5,223.167 225.5,222.833 225.5,222.5C 230.833,222.833 230.833,223.167 225.5,223.5 Z"/></g>
<g><path style="opacity:0.02" fill="#ffa92d" d="M 220.5,224.5 C 220.5,224.167 220.5,223.833 220.5,223.5C 222.167,223.5 223.833,223.5 225.5,223.5C 224.081,224.451 222.415,224.784 220.5,224.5 Z"/></g>
<g><path style="opacity:0.02" fill="#ff6f31" d="M 215.5,224.5 C 217.167,224.5 218.833,224.5 220.5,224.5C 211.485,227.391 202.152,228.891 192.5,229C 194.708,228.809 196.708,228.309 198.5,227.5C 200.735,227.795 202.735,227.461 204.5,226.5C 206.735,226.795 208.735,226.461 210.5,225.5C 212.415,225.784 214.081,225.451 215.5,224.5 Z"/></g>
<g><path style="opacity:0.004" fill="#292aec" d="M 92.5,230.5 C 92.5,230.167 92.5,229.833 92.5,229.5C 94.7354,229.205 96.7354,229.539 98.5,230.5C 96.5,230.5 94.5,230.5 92.5,230.5 Z"/></g>
<g><path style="opacity:0.008" fill="#ff52ff" d="M 183.5,230.5 C 183.5,230.167 183.5,229.833 183.5,229.5C 186.385,229.194 189.052,229.527 191.5,230.5C 188.833,230.5 186.167,230.5 183.5,230.5 Z"/></g>
</svg>
