<?xml version="1.0" encoding="UTF-8"?>
<!DOCTYPE svg PUBLIC "-//W3C//DTD SVG 1.1//EN" "http://www.w3.org/Graphics/SVG/1.1/DTD/svg11.dtd">
<svg xmlns="http://www.w3.org/2000/svg" version="1.1" width="350px" height="350px" style="shape-rendering:geometricPrecision; text-rendering:geometricPrecision; image-rendering:optimizeQuality; fill-rule:evenodd; clip-rule:evenodd" xmlns:xlink="http://www.w3.org/1999/xlink">
<g><path style="opacity:0.898" fill="#bddb7e" d="M 158.5,-0.5 C 163.5,-0.5 168.5,-0.5 173.5,-0.5C 166.239,2.46585 159.572,6.46585 153.5,11.5C 146.001,8.47249 138.334,6.47249 130.5,5.5C 139.668,2.66738 149.001,0.66738 158.5,-0.5 Z"/></g>
<g><path style="opacity:0.887" fill="#d3e479" d="M 175.5,-0.5 C 180.5,-0.5 185.5,-0.5 190.5,-0.5C 199.999,0.66738 209.332,2.66738 218.5,5.5C 210.758,6.08184 203.425,8.08184 196.5,11.5C 189.948,6.72398 182.948,2.72398 175.5,-0.5 Z"/></g>
<g><path style="opacity:1" fill="#bfd454" d="M 173.5,-0.5 C 174.167,-0.5 174.833,-0.5 175.5,-0.5C 182.948,2.72398 189.948,6.72398 196.5,11.5C 196.5,11.8333 196.5,12.1667 196.5,12.5C 186.964,16.7012 179.63,23.3679 174.5,32.5C 169.476,23.81 162.476,17.1434 153.5,12.5C 153.5,12.1667 153.5,11.8333 153.5,11.5C 159.572,6.46585 166.239,2.46585 173.5,-0.5 Z"/></g>
<g><path style="opacity:1" fill="#d8e657" d="M 218.5,5.5 C 219.167,5.5 219.833,5.5 220.5,5.5C 226.51,10.5104 231.843,16.177 236.5,22.5C 236.5,22.8333 236.5,23.1667 236.5,23.5C 226.694,25.661 218.361,30.3277 211.5,37.5C 211.167,37.5 210.833,37.5 210.5,37.5C 208.181,27.8631 203.514,19.5298 196.5,12.5C 196.5,12.1667 196.5,11.8333 196.5,11.5C 203.425,8.08184 210.758,6.08184 218.5,5.5 Z"/></g>
<g><path style="opacity:0.886" fill="#e3ee84" d="M 220.5,5.5 C 234.847,9.01313 248.181,14.6798 260.5,22.5C 252.505,21.2105 244.505,21.2105 236.5,22.5C 231.843,16.177 226.51,10.5104 220.5,5.5 Z"/></g>
<g><path style="opacity:0.87" fill="#c6e086" d="M 128.5,5.5 C 125.192,8.63517 121.692,11.6352 118,14.5C 115.615,17.3785 113.448,20.3785 111.5,23.5C 103.924,21.3163 96.2577,20.983 88.5,22.5C 100.819,14.6798 114.153,9.01313 128.5,5.5 Z"/></g>
<g><path style="opacity:1" fill="#b6d358" d="M 128.5,5.5 C 129.167,5.5 129.833,5.5 130.5,5.5C 138.334,6.47249 146.001,8.47249 153.5,11.5C 153.5,11.8333 153.5,12.1667 153.5,12.5C 145.772,19.2422 140.439,27.5755 137.5,37.5C 130.295,30.2291 121.628,25.5624 111.5,23.5C 113.448,20.3785 115.615,17.3785 118,14.5C 121.692,11.6352 125.192,8.63517 128.5,5.5 Z"/></g>
<g><path style="opacity:1" fill="#b9d548" d="M 196.5,12.5 C 203.514,19.5298 208.181,27.8631 210.5,37.5C 203.517,47.1446 196.184,56.4779 188.5,65.5C 183.832,54.495 179.165,43.495 174.5,32.5C 179.63,23.3679 186.964,16.7012 196.5,12.5 Z"/></g>
<g><path style="opacity:1" fill="#a3d26d" d="M 111.5,23.5 C 106.199,32.0716 103.532,41.405 103.5,51.5C 94.4699,47.3738 85.1365,44.7072 75.5,43.5C 77.612,35.9398 81.2787,29.2731 86.5,23.5C 86.8417,22.6618 87.5084,22.3284 88.5,22.5C 96.2577,20.983 103.924,21.3163 111.5,23.5 Z"/></g>
<g><path style="opacity:1" fill="#d6df45" d="M 236.5,23.5 C 240.229,28.1523 242.729,33.4856 244,39.5C 244.828,43.466 245.328,47.466 245.5,51.5C 235.981,58.7542 226.314,65.7542 216.5,72.5C 214.927,60.823 213.26,49.1563 211.5,37.5C 218.361,30.3277 226.694,25.661 236.5,23.5 Z"/></g>
<g><path style="opacity:1" fill="#e4ea58" d="M 260.5,22.5 C 261.609,22.5569 262.609,22.8902 263.5,23.5C 266.811,29.0049 269.978,34.6715 273,40.5C 273.49,41.7932 273.657,43.1266 273.5,44.5C 263.44,44.0151 254.106,46.3484 245.5,51.5C 245.328,47.466 244.828,43.466 244,39.5C 242.729,33.4856 240.229,28.1523 236.5,23.5C 236.5,23.1667 236.5,22.8333 236.5,22.5C 244.505,21.2105 252.505,21.2105 260.5,22.5 Z"/></g>
<g><path style="opacity:1" fill="#92c652" d="M 111.5,23.5 C 121.628,25.5624 130.295,30.2291 137.5,37.5C 142.518,43.1897 147.185,49.1897 151.5,55.5C 141.652,55.1729 131.986,55.5062 122.5,56.5C 121.527,58.9479 121.194,61.6146 121.5,64.5C 115.754,60.0819 109.754,56.0819 103.5,52.5C 103.5,52.1667 103.5,51.8333 103.5,51.5C 103.532,41.405 106.199,32.0716 111.5,23.5 Z"/></g>
<g><path style="opacity:0.895" fill="#eaef7e" d="M 263.5,23.5 C 276.009,31.0084 287.343,40.0084 297.5,50.5C 290.222,47.0971 282.556,45.0971 274.5,44.5C 274.167,44.5 273.833,44.5 273.5,44.5C 273.657,43.1266 273.49,41.7932 273,40.5C 269.978,34.6715 266.811,29.0049 263.5,23.5 Z"/></g>
<g><path style="opacity:0.905" fill="#abd8a2" d="M 86.5,23.5 C 81.2787,29.2731 77.612,35.9398 75.5,43.5C 74.8333,43.5 74.5,43.8333 74.5,44.5C 66.478,45.2363 58.8113,47.2363 51.5,50.5C 61.7345,39.5934 73.4011,30.5934 86.5,23.5 Z"/></g>
<g><path style="opacity:1" fill="#a6c843" d="M 153.5,12.5 C 162.476,17.1434 169.476,23.81 174.5,32.5C 179.165,43.495 183.832,54.495 188.5,65.5C 191.499,72.8284 194.499,80.1617 197.5,87.5C 197.5,87.8333 197.5,88.1667 197.5,88.5C 192.992,91.2533 188.659,94.2533 184.5,97.5C 173.833,83.8333 163.167,70.1667 152.5,56.5C 152.5,55.8333 152.167,55.5 151.5,55.5C 147.185,49.1897 142.518,43.1897 137.5,37.5C 140.439,27.5755 145.772,19.2422 153.5,12.5 Z"/></g>
<g><path style="opacity:1" fill="#b5cc3b" d="M 210.5,37.5 C 210.833,37.5 211.167,37.5 211.5,37.5C 213.26,49.1563 214.927,60.823 216.5,72.5C 216.5,72.8333 216.5,73.1667 216.5,73.5C 210.167,78.1667 203.833,82.8333 197.5,87.5C 194.499,80.1617 191.499,72.8284 188.5,65.5C 196.184,56.4779 203.517,47.1446 210.5,37.5 Z"/></g>
<g><path style="opacity:1" fill="#dfdd43" d="M 273.5,44.5 C 273.833,44.5 274.167,44.5 274.5,44.5C 276.703,54.0859 277.036,63.7526 275.5,73.5C 264.167,78.1667 252.833,82.8333 241.5,87.5C 242.505,75.4578 243.839,63.4578 245.5,51.5C 254.106,46.3484 263.44,44.0151 273.5,44.5 Z"/></g>
<g><path style="opacity:1" fill="#85cb91" d="M 74.5,44.5 C 71.8715,54.4913 71.8715,64.4913 74.5,74.5C 64.5379,71.8728 54.5379,71.8728 44.5,74.5C 44.4806,66.2474 46.4806,58.5807 50.5,51.5C 50.5,50.8333 50.8333,50.5 51.5,50.5C 58.8113,47.2363 66.478,45.2363 74.5,44.5 Z"/></g>
<g><path style="opacity:1" fill="#eae256" d="M 274.5,44.5 C 282.556,45.0971 290.222,47.0971 297.5,50.5C 298.167,50.5 298.5,50.8333 298.5,51.5C 302.129,58.7231 304.129,66.3898 304.5,74.5C 294.921,72.2508 285.255,71.9174 275.5,73.5C 277.036,63.7526 276.703,54.0859 274.5,44.5 Z"/></g>
<g><path style="opacity:1" fill="#7cc46b" d="M 75.5,43.5 C 85.1365,44.7072 94.4699,47.3738 103.5,51.5C 103.5,51.8333 103.5,52.1667 103.5,52.5C 105.08,64.1376 106.413,75.8043 107.5,87.5C 96.5792,82.9707 85.5792,78.6374 74.5,74.5C 71.8715,64.4913 71.8715,54.4913 74.5,44.5C 74.5,43.8333 74.8333,43.5 75.5,43.5 Z"/></g>
<g><path style="opacity:1" fill="#6bbb4e" d="M 103.5,52.5 C 109.754,56.0819 115.754,60.0819 121.5,64.5C 121.5,74.1667 121.5,83.8333 121.5,93.5C 117.282,91.5586 112.949,89.8919 108.5,88.5C 108.5,87.8333 108.167,87.5 107.5,87.5C 106.413,75.8043 105.08,64.1376 103.5,52.5 Z"/></g>
<g><path style="opacity:1" fill="#cdd035" d="M 245.5,51.5 C 243.839,63.4578 242.505,75.4578 241.5,87.5C 240.833,87.5 240.5,87.8333 240.5,88.5C 233.396,90.8851 226.396,93.5518 219.5,96.5C 218.407,88.8468 217.407,81.1801 216.5,73.5C 216.5,73.1667 216.5,72.8333 216.5,72.5C 226.314,65.7542 235.981,58.7542 245.5,51.5 Z"/></g>
<g><path style="opacity:0.899" fill="#a0d6c9" d="M 50.5,51.5 C 46.4806,58.5807 44.4806,66.2474 44.5,74.5C 44.5,74.8333 44.5,75.1667 44.5,75.5C 36.4965,77.3343 29.4965,81.001 23.5,86.5C 30.5934,73.4011 39.5934,61.7345 50.5,51.5 Z"/></g>
<g><path style="opacity:0.885" fill="#efec80" d="M 298.5,51.5 C 309.407,61.7345 318.407,73.4011 325.5,86.5C 319.504,81.001 312.504,77.3343 304.5,75.5C 304.5,75.1667 304.5,74.8333 304.5,74.5C 304.129,66.3898 302.129,58.7231 298.5,51.5 Z"/></g>
<g><path style="opacity:1" fill="#fefdfd" d="M 151.5,55.5 C 152.167,55.5 152.5,55.8333 152.5,56.5C 152.5,67.5 152.5,78.5 152.5,89.5C 152.167,103.183 152.501,116.85 153.5,130.5C 154.107,130.376 154.44,130.043 154.5,129.5C 158.888,126.639 163.554,124.306 168.5,122.5C 169.833,122.167 171.167,121.833 172.5,121.5C 179.746,120.536 187.08,120.203 194.5,120.5C 196.117,121.038 197.784,121.371 199.5,121.5C 205.956,123.205 211.956,125.872 217.5,129.5C 220.833,131.833 224.167,134.167 227.5,136.5C 228.5,138.167 229.833,139.5 231.5,140.5C 236.006,146.843 240.006,153.51 243.5,160.5C 246.097,169.29 247.097,178.29 246.5,187.5C 246.036,192.621 245.036,197.621 243.5,202.5C 239.926,211.988 234.592,220.321 227.5,227.5C 225.142,229.529 222.808,231.529 220.5,233.5C 216.112,236.361 211.446,238.694 206.5,240.5C 200.944,242.306 195.278,243.639 189.5,244.5C 183.833,244.5 178.167,244.5 172.5,244.5C 162.47,241.82 153.137,237.487 144.5,231.5C 142.502,229.4 140.335,227.4 138,225.5C 134.559,221.898 131.725,217.898 129.5,213.5C 129.068,212.29 128.401,211.29 127.5,210.5C 126.318,206.104 124.985,201.771 123.5,197.5C 123.261,193.158 122.927,188.824 122.5,184.5C 122.5,178.5 122.5,172.5 122.5,166.5C 122.5,129.833 122.5,93.1667 122.5,56.5C 131.986,55.5062 141.652,55.1729 151.5,55.5 Z"/></g>
<g><path style="opacity:1" fill="#80bc48" d="M 152.5,56.5 C 163.167,70.1667 173.833,83.8333 184.5,97.5C 183.027,99.3947 181.36,101.061 179.5,102.5C 177.473,103.861 175.806,105.527 174.5,107.5C 168.139,100.81 161.139,94.8099 153.5,89.5C 153.167,89.5 152.833,89.5 152.5,89.5C 152.5,78.5 152.5,67.5 152.5,56.5 Z"/></g>
<g><path style="opacity:1" fill="#68c090" d="M 74.5,74.5 C 78.5589,85.6164 82.8923,96.6164 87.5,107.5C 75.8395,106.406 64.1728,105.406 52.5,104.5C 51.8333,104.5 51.5,104.167 51.5,103.5C 46.4197,94.895 44.0863,85.5616 44.5,75.5C 44.5,75.1667 44.5,74.8333 44.5,74.5C 54.5379,71.8728 64.5379,71.8728 74.5,74.5 Z"/></g>
<g><path style="opacity:1" fill="#5ab866" d="M 74.5,74.5 C 85.5792,78.6374 96.5792,82.9707 107.5,87.5C 108.167,87.5 108.5,87.8333 108.5,88.5C 109.331,95.8173 109.998,103.151 110.5,110.5C 103.13,110.156 95.7967,109.49 88.5,108.5C 87.8333,108.5 87.5,108.167 87.5,107.5C 82.8923,96.6164 78.5589,85.6164 74.5,74.5 Z"/></g>
<g><path style="opacity:1" fill="#dfcb37" d="M 304.5,74.5 C 304.5,74.8333 304.5,75.1667 304.5,75.5C 303.65,85.0839 301.65,94.4173 298.5,103.5C 298.167,103.5 297.833,103.5 297.5,103.5C 297.825,96.3134 297.491,89.3134 296.5,82.5C 286.598,81.1829 276.598,81.1829 266.5,82.5C 265.507,90.6499 265.174,98.9832 265.5,107.5C 256.474,108.281 247.474,109.281 238.5,110.5C 239.035,103.153 239.701,95.8194 240.5,88.5C 240.5,87.8333 240.833,87.5 241.5,87.5C 252.833,82.8333 264.167,78.1667 275.5,73.5C 285.255,71.9174 294.921,72.2508 304.5,74.5 Z"/></g>
<g><path style="opacity:1" fill="#f0d756" d="M 304.5,75.5 C 312.504,77.3343 319.504,81.001 325.5,86.5C 326.338,86.8417 326.672,87.5084 326.5,88.5C 328.156,96.2872 327.823,103.954 325.5,111.5C 317.139,106.825 308.139,104.158 298.5,103.5C 301.65,94.4173 303.65,85.0839 304.5,75.5 Z"/></g>
<g><path style="opacity:1" fill="#7cc8bd" d="M 44.5,75.5 C 44.0863,85.5616 46.4197,94.895 51.5,103.5C 41.4357,103.682 32.1023,106.349 23.5,111.5C 21.218,103.972 20.8846,96.3052 22.5,88.5C 22.3284,87.5084 22.6618,86.8417 23.5,86.5C 29.4965,81.001 36.4965,77.3343 44.5,75.5 Z"/></g>
<g><path style="opacity:1" fill="#fefefe" d="M 296.5,82.5 C 296.5,94.8333 296.5,107.167 296.5,119.5C 304.5,119.5 312.5,119.5 320.5,119.5C 321.494,128.652 321.827,137.985 321.5,147.5C 321.5,148.167 321.167,148.5 320.5,148.5C 312.5,148.5 304.5,148.5 296.5,148.5C 296.17,165.009 296.504,181.342 297.5,197.5C 297.5,198.5 297.5,199.5 297.5,200.5C 298.857,207.857 303.19,212.191 310.5,213.5C 313.897,214.198 317.397,214.865 321,215.5C 321.5,224.494 321.666,233.494 321.5,242.5C 321.389,243.117 321.056,243.617 320.5,244C 311.948,244.962 303.615,244.128 295.5,241.5C 278.143,234.818 268.476,222.151 266.5,203.5C 266.5,202.5 266.5,201.5 266.5,200.5C 266.83,183.325 266.497,166.325 265.5,149.5C 259.491,149.666 253.491,149.499 247.5,149C 246.944,148.617 246.611,148.117 246.5,147.5C 246.5,138.5 246.5,129.5 246.5,120.5C 246.5,119.833 246.833,119.5 247.5,119.5C 253.833,119.5 260.167,119.5 266.5,119.5C 266.5,107.167 266.5,94.8333 266.5,82.5C 276.598,81.1829 286.598,81.1829 296.5,82.5 Z"/></g>
<g><path style="opacity:1" fill="#4cb04f" d="M 108.5,88.5 C 112.949,89.8919 117.282,91.5586 121.5,93.5C 121.5,99.8333 121.5,106.167 121.5,112.5C 117.575,112.57 113.909,111.903 110.5,110.5C 109.998,103.151 109.331,95.8173 108.5,88.5 Z"/></g>
<g><path style="opacity:1" fill="#cac139" d="M 240.5,88.5 C 239.701,95.8194 239.035,103.153 238.5,110.5C 237.833,110.5 237.5,110.833 237.5,111.5C 232.155,111.687 226.822,112.02 221.5,112.5C 220.927,107.153 220.26,101.82 219.5,96.5C 226.396,93.5518 233.396,90.8851 240.5,88.5 Z"/></g>
<g><path style="opacity:0.88" fill="#f4e27f" d="M 326.5,88.5 C 334.32,100.819 339.987,114.153 343.5,128.5C 340.698,125.524 338.031,122.358 335.5,119C 332.29,116.283 328.956,113.783 325.5,111.5C 327.823,103.954 328.156,96.2872 326.5,88.5 Z"/></g>
<g><path style="opacity:0.871" fill="#9fd5df" d="M 22.5,88.5 C 20.8846,96.3052 21.218,103.972 23.5,111.5C 23.5,111.833 23.5,112.167 23.5,112.5C 21.7446,113.072 20.0779,113.906 18.5,115C 13.9357,119.395 9.60235,123.895 5.5,128.5C 9.01313,114.153 14.6798,100.819 22.5,88.5 Z"/></g>
<g><path style="opacity:1" fill="#89b245" d="M 197.5,88.5 C 202.496,97.1752 205.83,106.508 207.5,116.5C 204.797,118.181 202.131,119.847 199.5,121.5C 197.784,121.371 196.117,121.038 194.5,120.5C 194.489,118.453 194.156,116.453 193.5,114.5C 194.351,112.147 194.851,109.813 195,107.5C 194,108.167 193,108.833 192,109.5C 189.15,104.661 184.983,102.328 179.5,102.5C 181.36,101.061 183.027,99.3947 184.5,97.5C 188.659,94.2533 192.992,91.2533 197.5,88.5 Z"/></g>
<g><path style="opacity:1" fill="#b0bc3e" d="M 216.5,73.5 C 217.407,81.1801 218.407,88.8468 219.5,96.5C 220.26,101.82 220.927,107.153 221.5,112.5C 219.343,113.407 217.01,114.073 214.5,114.5C 212.106,115.015 209.772,115.681 207.5,116.5C 205.83,106.508 202.496,97.1752 197.5,88.5C 197.5,88.1667 197.5,87.8333 197.5,87.5C 203.833,82.8333 210.167,78.1667 216.5,73.5 Z"/></g>
<g><path style="opacity:1" fill="#61b14d" d="M 153.5,89.5 C 161.139,94.8099 168.139,100.81 174.5,107.5C 175.702,109.392 177.035,111.226 178.5,113C 175.537,114.961 172.871,117.294 170.5,120C 171.416,120.278 172.082,120.778 172.5,121.5C 171.167,121.833 169.833,122.167 168.5,122.5C 167.665,119.632 165.999,118.632 163.5,119.5C 160.712,118.022 157.878,116.689 155,115.5C 154.768,116.737 154.268,117.737 153.5,118.5C 153.5,108.833 153.5,99.1667 153.5,89.5 Z"/></g>
<g><path style="opacity:1" fill="#5bbebd" d="M 51.5,103.5 C 51.5,104.167 51.8333,104.5 52.5,104.5C 55.4453,109.445 58.7786,114.112 62.5,118.5C 50.9964,120.084 41.3297,125.084 33.5,133.5C 28.8374,127.173 25.5041,120.173 23.5,112.5C 23.5,112.167 23.5,111.833 23.5,111.5C 32.1023,106.349 41.4357,103.682 51.5,103.5 Z"/></g>
<g><path style="opacity:1" fill="#42b68f" d="M 52.5,104.5 C 64.1728,105.406 75.8395,106.406 87.5,107.5C 87.5,108.167 87.8333,108.5 88.5,108.5C 89.8262,112.49 91.1595,116.49 92.5,120.5C 82.5836,118.89 72.5836,118.223 62.5,118.5C 58.7786,114.112 55.4453,109.445 52.5,104.5 Z"/></g>
<g><path style="opacity:1" fill="#f3d688" d="M 296.5,82.5 C 297.491,89.3134 297.825,96.3134 297.5,103.5C 297.5,108.5 297.5,113.5 297.5,118.5C 305.352,118.175 313.018,118.508 320.5,119.5C 312.5,119.5 304.5,119.5 296.5,119.5C 296.5,107.167 296.5,94.8333 296.5,82.5 Z"/></g>
<g><path style="opacity:1" fill="#efb744" d="M 297.5,103.5 C 297.833,103.5 298.167,103.5 298.5,103.5C 308.139,104.158 317.139,106.825 325.5,111.5C 323.632,121.699 322.965,132.032 323.5,142.5C 322.833,144.167 322.167,145.833 321.5,147.5C 321.827,137.985 321.494,128.652 320.5,119.5C 313.018,118.508 305.352,118.175 297.5,118.5C 297.5,113.5 297.5,108.5 297.5,103.5 Z"/></g>
<g><path style="opacity:1" fill="#3dad64" d="M 88.5,108.5 C 95.7967,109.49 103.13,110.156 110.5,110.5C 113.909,111.903 117.575,112.57 121.5,112.5C 121.5,117.5 121.5,122.5 121.5,127.5C 115.143,127.476 108.81,127.81 102.5,128.5C 102.714,126.856 102.38,125.356 101.5,124C 98.2102,123.275 95.2102,122.108 92.5,120.5C 91.1595,116.49 89.8262,112.49 88.5,108.5 Z"/></g>
<g><path style="opacity:1" fill="#7bbf78" d="M 152.5,89.5 C 152.833,89.5 153.167,89.5 153.5,89.5C 153.5,99.1667 153.5,108.833 153.5,118.5C 153.185,122.371 153.518,126.038 154.5,129.5C 154.44,130.043 154.107,130.376 153.5,130.5C 152.501,116.85 152.167,103.183 152.5,89.5 Z"/></g>
<g><path style="opacity:1" fill="#71af4b" d="M 179.5,102.5 C 184.983,102.328 189.15,104.661 192,109.5C 193,108.833 194,108.167 195,107.5C 194.851,109.813 194.351,112.147 193.5,114.5C 194.156,116.453 194.489,118.453 194.5,120.5C 187.08,120.203 179.746,120.536 172.5,121.5C 172.082,120.778 171.416,120.278 170.5,120C 172.871,117.294 175.537,114.961 178.5,113C 177.035,111.226 175.702,109.392 174.5,107.5C 175.806,105.527 177.473,103.861 179.5,102.5 Z"/></g>
<g><path style="opacity:1" fill="#f3ba53" d="M 325.5,111.5 C 328.956,113.783 332.29,116.283 335.5,119C 338.031,122.358 340.698,125.524 343.5,128.5C 343.5,129.167 343.5,129.833 343.5,130.5C 342.308,138.264 340.308,145.931 337.5,153.5C 337.167,153.5 336.833,153.5 336.5,153.5C 333.072,148.736 328.738,145.07 323.5,142.5C 322.965,132.032 323.632,121.699 325.5,111.5 Z"/></g>
<g><path style="opacity:1" fill="#77c6d8" d="M 23.5,112.5 C 25.5041,120.173 28.8374,127.173 33.5,133.5C 31.8193,136.203 30.1526,138.869 28.5,141.5C 22.6169,144.386 17.2836,148.052 12.5,152.5C 8.54588,145.639 6.21255,138.306 5.5,130.5C 5.5,129.833 5.5,129.167 5.5,128.5C 9.60235,123.895 13.9357,119.395 18.5,115C 20.0779,113.906 21.7446,113.072 23.5,112.5 Z"/></g>
<g><path style="opacity:1" fill="#bcae3c" d="M 237.5,111.5 C 237.32,116.936 236.654,122.27 235.5,127.5C 233.5,127.5 231.5,127.5 229.5,127.5C 229.793,130.754 229.126,133.754 227.5,136.5C 224.167,134.167 220.833,131.833 217.5,129.5C 216.711,124.464 215.711,119.464 214.5,114.5C 217.01,114.073 219.343,113.407 221.5,112.5C 226.822,112.02 232.155,111.687 237.5,111.5 Z"/></g>
<g><path style="opacity:1" fill="#a7ae42" d="M 214.5,114.5 C 215.711,119.464 216.711,124.464 217.5,129.5C 211.956,125.872 205.956,123.205 199.5,121.5C 202.131,119.847 204.797,118.181 207.5,116.5C 209.772,115.681 212.106,115.015 214.5,114.5 Z"/></g>
<g><path style="opacity:1" fill="#d6ae35" d="M 265.5,107.5 C 265.5,111.167 265.5,114.833 265.5,118.5C 259.31,118.177 253.31,118.51 247.5,119.5C 246.833,119.5 246.5,119.833 246.5,120.5C 245.527,122.948 245.194,125.615 245.5,128.5C 242.167,128.167 238.833,127.833 235.5,127.5C 236.654,122.27 237.32,116.936 237.5,111.5C 237.5,110.833 237.833,110.5 238.5,110.5C 247.474,109.281 256.474,108.281 265.5,107.5 Z"/></g>
<g><path style="opacity:1" fill="#fdfdfe" d="M 62.5,118.5 C 72.5836,118.223 82.5836,118.89 92.5,120.5C 95.2102,122.108 98.2102,123.275 101.5,124C 102.38,125.356 102.714,126.856 102.5,128.5C 102.5,134.167 102.5,139.833 102.5,145.5C 102.756,147.792 102.423,149.959 101.5,152C 98.7804,152.045 96.1138,151.545 93.5,150.5C 84.3092,146.636 74.6425,145.136 64.5,146C 62.5,147 60.5,148 58.5,149C 57.1772,149.816 56.5106,150.983 56.5,152.5C 54.1446,157.851 55.8112,161.518 61.5,163.5C 70.4225,166.315 79.4225,168.982 88.5,171.5C 93.0856,174.077 97.419,177.077 101.5,180.5C 103.901,184.542 106.234,188.542 108.5,192.5C 109.314,197.119 109.647,201.786 109.5,206.5C 108.289,222.269 100.623,233.602 86.5,240.5C 74.7909,244.065 62.7909,245.399 50.5,244.5C 42.3616,242.953 34.5283,240.287 27,236.5C 26.5026,233.854 26.3359,231.187 26.5,228.5C 26.3338,222.158 26.5005,215.825 27,209.5C 27.3826,208.944 27.8826,208.611 28.5,208.5C 31.9679,209.101 35.3012,210.101 38.5,211.5C 50.8847,216.899 63.5513,217.732 76.5,214C 79.3597,210.319 80.1931,206.152 79,201.5C 73.2433,198.081 67.0766,195.748 60.5,194.5C 48.6154,191.561 38.6154,185.561 30.5,176.5C 29.5,174.5 28.5,172.5 27.5,170.5C 24.5581,160.698 24.8914,151.031 28.5,141.5C 30.1526,138.869 31.8193,136.203 33.5,133.5C 41.3297,125.084 50.9964,120.084 62.5,118.5 Z"/></g>
<g><path style="opacity:1" fill="#4ba64f" d="M 168.5,122.5 C 163.554,124.306 158.888,126.639 154.5,129.5C 153.518,126.038 153.185,122.371 153.5,118.5C 154.268,117.737 154.768,116.737 155,115.5C 157.878,116.689 160.712,118.022 163.5,119.5C 165.999,118.632 167.665,119.632 168.5,122.5 Z"/></g>
<g><path style="opacity:1" fill="#ebcd6f" d="M 266.5,82.5 C 266.5,94.8333 266.5,107.167 266.5,119.5C 260.167,119.5 253.833,119.5 247.5,119.5C 253.31,118.51 259.31,118.177 265.5,118.5C 265.5,114.833 265.5,111.167 265.5,107.5C 265.174,98.9832 265.507,90.6499 266.5,82.5 Z"/></g>
<g><path style="opacity:1" fill="#4e9b74" d="M 122.5,56.5 C 122.5,93.1667 122.5,129.833 122.5,166.5C 121.517,162.702 121.183,158.702 121.5,154.5C 121.5,149.833 121.5,145.167 121.5,140.5C 116.802,141.1 112.136,141.933 107.5,143C 105.934,143.608 104.6,144.442 103.5,145.5C 103.167,145.5 102.833,145.5 102.5,145.5C 102.5,139.833 102.5,134.167 102.5,128.5C 108.81,127.81 115.143,127.476 121.5,127.5C 121.5,122.5 121.5,117.5 121.5,112.5C 121.5,106.167 121.5,99.8333 121.5,93.5C 121.5,83.8333 121.5,74.1667 121.5,64.5C 121.194,61.6146 121.527,58.9479 122.5,56.5 Z"/></g>
<g><path style="opacity:1" fill="#d2a640" d="M 246.5,120.5 C 246.5,129.5 246.5,138.5 246.5,147.5C 245.751,146.469 245.085,145.302 244.5,144C 240.105,142.985 235.771,141.818 231.5,140.5C 229.833,139.5 228.5,138.167 227.5,136.5C 229.126,133.754 229.793,130.754 229.5,127.5C 231.5,127.5 233.5,127.5 235.5,127.5C 238.833,127.833 242.167,128.167 245.5,128.5C 245.194,125.615 245.527,122.948 246.5,120.5 Z"/></g>
<g><path style="opacity:0.896" fill="#95c6e9" d="M 5.5,130.5 C 6.21255,138.306 8.54588,145.639 12.5,152.5C 12.5,152.833 12.5,153.167 12.5,153.5C 6.66051,159.177 2.32717,165.843 -0.5,173.5C -0.5,168.5 -0.5,163.5 -0.5,158.5C 0.667754,148.996 2.66775,139.663 5.5,130.5 Z"/></g>
<g><path style="opacity:0.876" fill="#f4c875" d="M 343.5,130.5 C 346.333,139.668 348.333,149.001 349.5,158.5C 349.5,163.167 349.5,167.833 349.5,172.5C 346.264,165.697 342.264,159.363 337.5,153.5C 340.308,145.931 342.308,138.264 343.5,130.5 Z"/></g>
<g><path style="opacity:1" fill="#317167" d="M 121.5,154.5 C 118.061,154.788 114.728,155.454 111.5,156.5C 107.384,154.028 104.717,150.361 103.5,145.5C 104.6,144.442 105.934,143.608 107.5,143C 112.136,141.933 116.802,141.1 121.5,140.5C 121.5,145.167 121.5,149.833 121.5,154.5 Z"/></g>
<g><path style="opacity:1" fill="#eda33c" d="M 323.5,142.5 C 328.738,145.07 333.072,148.736 336.5,153.5C 331.857,162.476 325.19,169.476 316.5,174.5C 310.335,171.445 304.001,168.778 297.5,166.5C 297.5,160.833 297.5,155.167 297.5,149.5C 305.352,149.825 313.018,149.492 320.5,148.5C 321.167,148.5 321.5,148.167 321.5,147.5C 322.167,145.833 322.833,144.167 323.5,142.5 Z"/></g>
<g><path style="opacity:1" fill="#579dc8" d="M 28.5,141.5 C 24.8914,151.031 24.5581,160.698 27.5,170.5C 20.7498,166.414 15.7498,160.748 12.5,153.5C 12.5,153.167 12.5,152.833 12.5,152.5C 17.2836,148.052 22.6169,144.386 28.5,141.5 Z"/></g>
<g><path style="opacity:1" fill="#469aad" d="M 93.5,150.5 C 91.5853,150.216 89.9187,150.549 88.5,151.5C 80.7217,154.223 73.055,157.223 65.5,160.5C 62.5,157.833 59.5,155.167 56.5,152.5C 56.5106,150.983 57.1772,149.816 58.5,149C 60.5,148 62.5,147 64.5,146C 74.6425,145.136 84.3092,146.636 93.5,150.5 Z"/></g>
<g><path style="opacity:1" fill="#317178" d="M 102.5,145.5 C 102.833,145.5 103.167,145.5 103.5,145.5C 104.717,150.361 107.384,154.028 111.5,156.5C 106.698,158.401 102.364,161.068 98.5,164.5C 98.1667,164.5 97.8333,164.5 97.5,164.5C 94.2533,160.341 91.2533,156.008 88.5,151.5C 89.9187,150.549 91.5853,150.216 93.5,150.5C 96.1138,151.545 98.7804,152.045 101.5,152C 102.423,149.959 102.756,147.792 102.5,145.5 Z"/></g>
<g><path style="opacity:1" fill="#d78f36" d="M 231.5,140.5 C 235.771,141.818 240.105,142.985 244.5,144C 245.085,145.302 245.751,146.469 246.5,147.5C 246.611,148.117 246.944,148.617 247.5,149C 253.491,149.499 259.491,149.666 265.5,149.5C 265.719,150.675 265.386,151.675 264.5,152.5C 262.902,151.515 261.235,151.349 259.5,152C 257.018,156.307 254.018,160.14 250.5,163.5C 248.219,162.392 246.052,161.058 244,159.5C 243.601,159.728 243.435,160.062 243.5,160.5C 240.006,153.51 236.006,146.843 231.5,140.5 Z"/></g>
<g><path style="opacity:1" fill="#e1873d" d="M 265.5,149.5 C 266.497,166.325 266.83,183.325 266.5,200.5C 265.833,191.991 265.167,183.324 264.5,174.5C 259.764,170.814 255.097,167.147 250.5,163.5C 254.018,160.14 257.018,156.307 259.5,152C 261.235,151.349 262.902,151.515 264.5,152.5C 265.386,151.675 265.719,150.675 265.5,149.5 Z"/></g>
<g><path style="opacity:1" fill="#397199" d="M 88.5,151.5 C 91.2533,156.008 94.2533,160.341 97.5,164.5C 94.7861,167.215 91.7861,169.549 88.5,171.5C 79.4225,168.982 70.4225,166.315 61.5,163.5C 62.4363,162.026 63.7697,161.026 65.5,160.5C 73.055,157.223 80.7217,154.223 88.5,151.5 Z"/></g>
<g><path style="opacity:1" fill="#efaa4c" d="M 336.5,153.5 C 336.833,153.5 337.167,153.5 337.5,153.5C 342.264,159.363 346.264,165.697 349.5,172.5C 349.5,173.5 349.5,174.5 349.5,175.5C 346.534,182.761 342.534,189.428 337.5,195.5C 337.167,195.5 336.833,195.5 336.5,195.5C 331.885,186.551 325.218,179.551 316.5,174.5C 325.19,169.476 331.857,162.476 336.5,153.5 Z"/></g>
<g><path style="opacity:1" fill="#559bc7" d="M 56.5,152.5 C 59.5,155.167 62.5,157.833 65.5,160.5C 63.7697,161.026 62.4363,162.026 61.5,163.5C 55.8112,161.518 54.1446,157.851 56.5,152.5 Z"/></g>
<g><path style="opacity:1" fill="#6a9dd5" d="M 12.5,153.5 C 15.7498,160.748 20.7498,166.414 27.5,170.5C 28.5,172.5 29.5,174.5 30.5,176.5C 23.1212,181.545 17.1212,187.878 12.5,195.5C 9.83238,193.664 7.66571,191.331 6,188.5C 3.78739,184.075 1.62073,179.741 -0.5,175.5C -0.5,174.833 -0.5,174.167 -0.5,173.5C 2.32717,165.843 6.66051,159.177 12.5,153.5 Z"/></g>
<g><path style="opacity:1" fill="#758147" d="M 189.5,150.5 C 189.108,152.179 188.608,153.846 188,155.5C 185.022,156.333 182.855,158 181.5,160.5C 179.99,159.272 178.49,159.272 177,160.5C 176.283,159.956 175.783,159.289 175.5,158.5C 174.708,156.743 173.375,155.409 171.5,154.5C 172.55,153.571 172.55,152.905 171.5,152.5C 177.125,149.47 183.125,148.803 189.5,150.5 Z"/></g>
<g><path style="opacity:1" fill="#877940" d="M 189.5,150.5 C 193.277,150.934 196.61,152.267 199.5,154.5C 195.57,155.777 192.57,158.11 190.5,161.5C 189.206,162.29 188.039,163.29 187,164.5C 185.84,162.203 184.84,162.536 184,165.5C 183.23,164.402 182.397,164.402 181.5,165.5C 180.833,165.5 180.167,165.5 179.5,165.5C 180.167,163.833 180.833,162.167 181.5,160.5C 182.855,158 185.022,156.333 188,155.5C 188.608,153.846 189.108,152.179 189.5,150.5 Z"/></g>
<g><path style="opacity:1" fill="#3a5e76" d="M 121.5,154.5 C 121.183,158.702 121.517,162.702 122.5,166.5C 122.5,172.5 122.5,178.5 122.5,184.5C 121.511,179.025 121.178,173.358 121.5,167.5C 116.088,169.04 111.088,171.374 106.5,174.5C 103.453,171.455 100.787,168.122 98.5,164.5C 102.364,161.068 106.698,158.401 111.5,156.5C 114.728,155.454 118.061,154.788 121.5,154.5 Z"/></g>
<g><path style="opacity:1" fill="#4d734a" d="M 171.5,152.5 C 172.55,152.905 172.55,153.571 171.5,154.5C 173.375,155.409 174.708,156.743 175.5,158.5C 174.5,158.5 173.5,158.5 172.5,158.5C 172.9,161.761 171.733,162.428 169,160.5C 165.928,162.902 163.095,162.569 160.5,159.5C 163.387,155.948 167.053,153.615 171.5,152.5 Z"/></g>
<g><path style="opacity:1" fill="#9e713c" d="M 199.5,154.5 C 201.853,155.34 203.853,156.674 205.5,158.5C 203.277,159.114 201.611,160.448 200.5,162.5C 197.562,163.489 194.562,164.156 191.5,164.5C 190.761,164.631 190.094,164.464 189.5,164C 190.252,163.329 190.586,162.496 190.5,161.5C 192.57,158.11 195.57,155.777 199.5,154.5 Z"/></g>
<g><path style="opacity:1" fill="#345387" d="M 97.5,164.5 C 97.8333,164.5 98.1667,164.5 98.5,164.5C 100.787,168.122 103.453,171.455 106.5,174.5C 104.833,176.5 103.167,178.5 101.5,180.5C 97.419,177.077 93.0856,174.077 88.5,171.5C 91.7861,169.549 94.7861,167.215 97.5,164.5 Z"/></g>
<g><path style="opacity:1" fill="#586348" d="M 175.5,158.5 C 175.783,159.289 176.283,159.956 177,160.5C 178.49,159.272 179.99,159.272 181.5,160.5C 180.833,162.167 180.167,163.833 179.5,165.5C 177.39,166.453 176.223,168.119 176,170.5C 175.667,170.167 175.333,169.833 175,169.5C 174.59,170.901 174.09,172.234 173.5,173.5C 170.63,172.366 167.63,171.7 164.5,171.5C 163.986,170.375 163.653,169.209 163.5,168C 160.555,167.861 158.221,166.694 156.5,164.5C 157.604,162.611 158.937,160.945 160.5,159.5C 163.095,162.569 165.928,162.902 169,160.5C 171.733,162.428 172.9,161.761 172.5,158.5C 173.5,158.5 174.5,158.5 175.5,158.5 Z"/></g>
<g><path style="opacity:1" fill="#8b623e" d="M 190.5,161.5 C 190.586,162.496 190.252,163.329 189.5,164C 190.094,164.464 190.761,164.631 191.5,164.5C 191.21,167.795 189.543,169.795 186.5,170.5C 186.5,171.5 186.5,172.5 186.5,173.5C 185.167,173.5 183.833,173.5 182.5,173.5C 182.421,172.07 182.754,170.736 183.5,169.5C 182.147,168.476 181.48,167.143 181.5,165.5C 182.397,164.402 183.23,164.402 184,165.5C 184.84,162.536 185.84,162.203 187,164.5C 188.039,163.29 189.206,162.29 190.5,161.5 Z"/></g>
<g><path style="opacity:1" fill="#485750" d="M 156.5,164.5 C 158.221,166.694 160.555,167.861 163.5,168C 163.653,169.209 163.986,170.375 164.5,171.5C 164.649,172.552 164.483,173.552 164,174.5C 162.644,173.62 161.144,173.286 159.5,173.5C 157.574,172.514 155.574,171.514 153.5,170.5C 153.992,168.181 154.992,166.181 156.5,164.5 Z"/></g>
<g><path style="opacity:1" fill="#755c42" d="M 179.5,165.5 C 180.167,165.5 180.833,165.5 181.5,165.5C 181.48,167.143 182.147,168.476 183.5,169.5C 182.754,170.736 182.421,172.07 182.5,173.5C 181.5,173.5 180.5,173.5 179.5,173.5C 177.315,173.704 175.315,174.37 173.5,175.5C 173.5,174.833 173.5,174.167 173.5,173.5C 174.09,172.234 174.59,170.901 175,169.5C 175.333,169.833 175.667,170.167 176,170.5C 176.223,168.119 177.39,166.453 179.5,165.5 Z"/></g>
<g><path style="opacity:1" fill="#3e467f" d="M 122.5,184.5 C 122.927,188.824 123.261,193.158 123.5,197.5C 121.966,198.203 120.299,198.036 118.5,197C 116,195.167 113.5,193.333 111,191.5C 110.329,192.252 109.496,192.586 108.5,192.5C 106.234,188.542 103.901,184.542 101.5,180.5C 103.167,178.5 104.833,176.5 106.5,174.5C 111.088,171.374 116.088,169.04 121.5,167.5C 121.178,173.358 121.511,179.025 122.5,184.5 Z"/></g>
<g><path style="opacity:1" fill="#b35837" d="M 208.5,161.5 C 209.488,162.795 210.488,164.128 211.5,165.5C 208.614,167.46 206.614,170.127 205.5,173.5C 204.311,174.429 202.978,174.762 201.5,174.5C 198.886,174.277 197.219,175.444 196.5,178C 194.942,178.21 193.609,178.71 192.5,179.5C 191.833,179.5 191.5,179.167 191.5,178.5C 193.081,176.858 193.747,174.858 193.5,172.5C 194.5,172.5 195.5,172.5 196.5,172.5C 196.281,171.325 196.614,170.325 197.5,169.5C 201.567,167.182 205.233,164.515 208.5,161.5 Z"/></g>
<g><path style="opacity:1" fill="#9f5b3a" d="M 205.5,158.5 C 206.833,159.167 207.833,160.167 208.5,161.5C 205.233,164.515 201.567,167.182 197.5,169.5C 196.614,170.325 196.281,171.325 196.5,172.5C 195.5,172.5 194.5,172.5 193.5,172.5C 193.747,174.858 193.081,176.858 191.5,178.5C 190.167,178.833 188.833,179.167 187.5,179.5C 187.737,178.209 187.404,177.209 186.5,176.5C 186.5,175.5 186.5,174.5 186.5,173.5C 186.5,172.5 186.5,171.5 186.5,170.5C 189.543,169.795 191.21,167.795 191.5,164.5C 194.562,164.156 197.562,163.489 200.5,162.5C 201.611,160.448 203.277,159.114 205.5,158.5 Z"/></g>
<g><path style="opacity:1" fill="#de6b34" d="M 250.5,163.5 C 255.097,167.147 259.764,170.814 264.5,174.5C 265.167,183.324 265.833,191.991 266.5,200.5C 266.5,201.5 266.5,202.5 266.5,203.5C 259.872,196.269 253.706,188.602 248,180.5C 247.814,183.036 247.314,185.369 246.5,187.5C 247.097,178.29 246.097,169.29 243.5,160.5C 243.435,160.062 243.601,159.728 244,159.5C 246.052,161.058 248.219,162.392 250.5,163.5 Z"/></g>
<g><path style="opacity:1" fill="#5a4f48" d="M 164.5,171.5 C 167.63,171.7 170.63,172.366 173.5,173.5C 173.5,174.167 173.5,174.833 173.5,175.5C 172.5,175.5 171.5,175.5 170.5,175.5C 170.5,176.5 170.5,177.5 170.5,178.5C 167.856,178.285 165.523,178.285 163.5,178.5C 160.676,178.011 159.343,176.344 159.5,173.5C 161.144,173.286 162.644,173.62 164,174.5C 164.483,173.552 164.649,172.552 164.5,171.5 Z"/></g>
<g><path style="opacity:1" fill="#c25237" d="M 211.5,165.5 C 213.978,169.122 215.311,173.122 215.5,177.5C 214.849,178.091 214.182,178.757 213.5,179.5C 211.678,179.537 209.678,179.204 207.5,178.5C 207.649,179.552 207.483,180.552 207,181.5C 205.384,180.199 203.884,180.199 202.5,181.5C 201.325,181.719 200.325,181.386 199.5,180.5C 200.372,178.55 201.039,176.55 201.5,174.5C 202.978,174.762 204.311,174.429 205.5,173.5C 206.614,170.127 208.614,167.46 211.5,165.5 Z"/></g>
<g><path style="opacity:1" fill="#e67f37" d="M 297.5,166.5 C 304.001,168.778 310.335,171.445 316.5,174.5C 325.218,179.551 331.885,186.551 336.5,195.5C 329.923,203.294 321.59,208.294 311.5,210.5C 307.094,206.754 302.427,203.42 297.5,200.5C 297.5,199.5 297.5,198.5 297.5,197.5C 297.5,187.167 297.5,176.833 297.5,166.5 Z"/></g>
<g><path style="opacity:0.889" fill="#7f95cb" d="M -0.5,175.5 C 1.62073,179.741 3.78739,184.075 6,188.5C 7.66571,191.331 9.83238,193.664 12.5,195.5C 12.5,195.833 12.5,196.167 12.5,196.5C 8.421,203.174 6.08766,210.507 5.5,218.5C 2.66738,209.332 0.66738,199.999 -0.5,190.5C -0.5,185.5 -0.5,180.5 -0.5,175.5 Z"/></g>
<g><path style="opacity:1" fill="#4d73bb" d="M 30.5,176.5 C 38.6154,185.561 48.6154,191.561 60.5,194.5C 54.5451,197.818 48.8784,201.651 43.5,206C 41.6266,207.704 39.9599,209.537 38.5,211.5C 35.3012,210.101 31.9679,209.101 28.5,208.5C 22.8472,204.998 17.5139,200.998 12.5,196.5C 12.5,196.167 12.5,195.833 12.5,195.5C 17.1212,187.878 23.1212,181.545 30.5,176.5 Z"/></g>
<g><path style="opacity:0.875" fill="#f4c270" d="M 349.5,175.5 C 349.5,180.5 349.5,185.5 349.5,190.5C 348.333,199.999 346.333,209.332 343.5,218.5C 342.724,210.506 340.724,202.839 337.5,195.5C 342.534,189.428 346.534,182.761 349.5,175.5 Z"/></g>
<g><path style="opacity:1" fill="#4d4552" d="M 153.5,170.5 C 155.574,171.514 157.574,172.514 159.5,173.5C 159.343,176.344 160.676,178.011 163.5,178.5C 164.278,179.156 164.944,179.989 165.5,181C 164.586,182.406 163.92,183.906 163.5,185.5C 161.564,185.882 159.564,186.215 157.5,186.5C 155.944,185.453 154.277,184.786 152.5,184.5C 152.5,185.5 152.5,186.5 152.5,187.5C 151.837,185.359 151.503,183.025 151.5,180.5C 151.315,176.859 151.981,173.526 153.5,170.5 Z"/></g>
<g><path style="opacity:1" fill="#f2be90" d="M 320.5,148.5 C 313.018,149.492 305.352,149.825 297.5,149.5C 297.5,155.167 297.5,160.833 297.5,166.5C 297.5,176.833 297.5,187.167 297.5,197.5C 296.504,181.342 296.17,165.009 296.5,148.5C 304.5,148.5 312.5,148.5 320.5,148.5 Z"/></g>
<g><path style="opacity:1" fill="#54394f" d="M 163.5,185.5 C 164.643,185.908 165.643,186.575 166.5,187.5C 165.828,189.53 165.162,191.53 164.5,193.5C 164.05,197.674 163.05,201.674 161.5,205.5C 155.871,200.909 152.871,194.909 152.5,187.5C 152.5,186.5 152.5,185.5 152.5,184.5C 154.277,184.786 155.944,185.453 157.5,186.5C 159.564,186.215 161.564,185.882 163.5,185.5 Z"/></g>
<g><path style="opacity:1" fill="#664045" d="M 179.5,173.5 C 179.649,174.552 179.483,175.552 179,176.5C 178.667,176.167 178.333,175.833 178,175.5C 176.985,179.44 176.485,183.44 176.5,187.5C 174.914,188.413 173.414,188.413 172,187.5C 172.122,190.966 170.789,193.632 168,195.5C 167.29,194.027 166.124,193.36 164.5,193.5C 165.162,191.53 165.828,189.53 166.5,187.5C 165.643,186.575 164.643,185.908 163.5,185.5C 163.92,183.906 164.586,182.406 165.5,181C 164.944,179.989 164.278,179.156 163.5,178.5C 165.523,178.285 167.856,178.285 170.5,178.5C 170.5,177.5 170.5,176.5 170.5,175.5C 171.5,175.5 172.5,175.5 173.5,175.5C 175.315,174.37 177.315,173.704 179.5,173.5 Z"/></g>
<g><path style="opacity:1" fill="#80423e" d="M 179.5,173.5 C 180.5,173.5 181.5,173.5 182.5,173.5C 183.833,173.5 185.167,173.5 186.5,173.5C 186.5,174.5 186.5,175.5 186.5,176.5C 185.5,176.5 184.5,176.5 183.5,176.5C 183.045,178.367 182.378,180.2 181.5,182C 182.286,185.458 182.62,188.958 182.5,192.5C 181.167,192.5 179.833,192.5 178.5,192.5C 177.5,192.5 176.5,192.5 175.5,192.5C 175.629,190.784 175.962,189.117 176.5,187.5C 176.485,183.44 176.985,179.44 178,175.5C 178.333,175.833 178.667,176.167 179,176.5C 179.483,175.552 179.649,174.552 179.5,173.5 Z"/></g>
<g><path style="opacity:1" fill="#92363c" d="M 186.5,176.5 C 187.404,177.209 187.737,178.209 187.5,179.5C 186.833,181.819 186.666,184.153 187,186.5C 188.156,185.007 188.99,185.174 189.5,187C 189.355,187.772 189.022,188.439 188.5,189C 188.823,197.485 189.823,205.651 191.5,213.5C 188.713,214.477 185.713,214.81 182.5,214.5C 182.33,207.02 182.33,199.687 182.5,192.5C 182.62,188.958 182.286,185.458 181.5,182C 182.378,180.2 183.045,178.367 183.5,176.5C 184.5,176.5 185.5,176.5 186.5,176.5 Z"/></g>
<g><path style="opacity:1" fill="#82333e" d="M 178.5,192.5 C 179.833,192.5 181.167,192.5 182.5,192.5C 182.33,199.687 182.33,207.02 182.5,214.5C 179.615,214.806 176.948,214.473 174.5,213.5C 176.382,206.69 177.715,199.69 178.5,192.5 Z"/></g>
<g><path style="opacity:1" fill="#6e3643" d="M 176.5,187.5 C 175.962,189.117 175.629,190.784 175.5,192.5C 176.5,192.5 177.5,192.5 178.5,192.5C 177.715,199.69 176.382,206.69 174.5,213.5C 169.131,212.454 164.797,209.787 161.5,205.5C 163.05,201.674 164.05,197.674 164.5,193.5C 166.124,193.36 167.29,194.027 168,195.5C 170.789,193.632 172.122,190.966 172,187.5C 173.414,188.413 174.914,188.413 176.5,187.5 Z"/></g>
<g><path style="opacity:1" fill="#b03536" d="M 201.5,174.5 C 201.039,176.55 200.372,178.55 199.5,180.5C 200.325,181.386 201.325,181.719 202.5,181.5C 202.414,182.496 202.748,183.329 203.5,184C 202.394,186.879 201.061,189.546 199.5,192C 199.946,197.741 200.946,203.241 202.5,208.5C 199.912,210.625 196.912,211.958 193.5,212.5C 194.864,207.43 194.531,202.43 192.5,197.5C 192.875,195.084 193.541,192.75 194.5,190.5C 193.973,187.692 193.973,185.025 194.5,182.5C 193.388,181.735 192.721,180.735 192.5,179.5C 193.609,178.71 194.942,178.21 196.5,178C 197.219,175.444 198.886,174.277 201.5,174.5 Z"/></g>
<g><path style="opacity:1" fill="#bf3635" d="M 215.5,177.5 C 217.167,190.533 212.834,200.866 202.5,208.5C 200.946,203.241 199.946,197.741 199.5,192C 201.061,189.546 202.394,186.879 203.5,184C 202.748,183.329 202.414,182.496 202.5,181.5C 203.884,180.199 205.384,180.199 207,181.5C 207.483,180.552 207.649,179.552 207.5,178.5C 209.678,179.204 211.678,179.537 213.5,179.5C 214.182,178.757 214.849,178.091 215.5,177.5 Z"/></g>
<g><path style="opacity:1" fill="#404ca4" d="M 60.5,194.5 C 67.0766,195.748 73.2433,198.081 79,201.5C 80.1931,206.152 79.3597,210.319 76.5,214C 63.5513,217.732 50.8847,216.899 38.5,211.5C 39.9599,209.537 41.6266,207.704 43.5,206C 48.8784,201.651 54.5451,197.818 60.5,194.5 Z"/></g>
<g><path style="opacity:1" fill="#a13439" d="M 191.5,178.5 C 191.5,179.167 191.833,179.5 192.5,179.5C 192.721,180.735 193.388,181.735 194.5,182.5C 193.973,185.025 193.973,187.692 194.5,190.5C 193.541,192.75 192.875,195.084 192.5,197.5C 194.531,202.43 194.864,207.43 193.5,212.5C 193.158,213.338 192.492,213.672 191.5,213.5C 189.823,205.651 188.823,197.485 188.5,189C 189.022,188.439 189.355,187.772 189.5,187C 188.99,185.174 188.156,185.007 187,186.5C 186.666,184.153 186.833,181.819 187.5,179.5C 188.833,179.167 190.167,178.833 191.5,178.5 Z"/></g>
<g><path style="opacity:1" fill="#eb8f4d" d="M 336.5,195.5 C 336.833,195.5 337.167,195.5 337.5,195.5C 340.724,202.839 342.724,210.506 343.5,218.5C 343.5,219.167 343.5,219.833 343.5,220.5C 338.49,226.51 332.823,231.843 326.5,236.5C 325.394,233.598 324.228,230.598 323,227.5C 322.826,232.684 322.326,237.684 321.5,242.5C 321.666,233.494 321.5,224.494 321,215.5C 317.397,214.865 313.897,214.198 310.5,213.5C 311.552,213.649 312.552,213.483 313.5,213C 312.619,212.292 311.953,211.458 311.5,210.5C 321.59,208.294 329.923,203.294 336.5,195.5 Z"/></g>
<g><path style="opacity:0.999" fill="#5d6bb5" d="M 12.5,196.5 C 17.5139,200.998 22.8472,204.998 28.5,208.5C 27.8826,208.611 27.3826,208.944 27,209.5C 26.5005,215.825 26.3338,222.158 26.5,228.5C 24.7648,232.041 23.4314,235.707 22.5,239.5C 22.6495,238.448 22.4828,237.448 22,236.5C 16.0439,231.826 10.5439,226.826 5.5,221.5C 5.5,220.5 5.5,219.5 5.5,218.5C 6.08766,210.507 8.421,203.174 12.5,196.5 Z"/></g>
<g><path style="opacity:1" fill="#463786" d="M 123.5,197.5 C 124.985,201.771 126.318,206.104 127.5,210.5C 121.08,210.826 115.58,208.493 111,203.5C 110.768,204.737 110.268,205.737 109.5,206.5C 109.647,201.786 109.314,197.119 108.5,192.5C 109.496,192.586 110.329,192.252 111,191.5C 113.5,193.333 116,195.167 118.5,197C 120.299,198.036 121.966,198.203 123.5,197.5 Z"/></g>
<g><path style="opacity:1" fill="#e25a32" d="M 297.5,200.5 C 302.427,203.42 307.094,206.754 311.5,210.5C 311.953,211.458 312.619,212.292 313.5,213C 312.552,213.483 311.552,213.649 310.5,213.5C 303.19,212.191 298.857,207.857 297.5,200.5 Z"/></g>
<g><path style="opacity:1" fill="#dd3432" d="M 274.5,274.5 C 263.421,270.363 252.421,266.029 241.5,261.5C 239.241,248.582 237.575,235.582 236.5,222.5C 235.448,222.351 234.448,222.517 233.5,223C 231.886,225.127 229.886,226.627 227.5,227.5C 234.592,220.321 239.926,211.988 243.5,202.5C 244.117,202.389 244.617,202.056 245,201.5C 255.388,225.609 265.221,249.942 274.5,274.5 Z"/></g>
<g><path style="opacity:1" fill="#49288b" d="M 127.5,210.5 C 128.401,211.29 129.068,212.29 129.5,213.5C 126.543,220.514 125.877,227.847 127.5,235.5C 127.5,235.833 127.5,236.167 127.5,236.5C 114.131,237.842 100.798,239.508 87.5,241.5C 86.8333,241.5 86.5,241.167 86.5,240.5C 100.623,233.602 108.289,222.269 109.5,206.5C 110.268,205.737 110.768,204.737 111,203.5C 115.58,208.493 121.08,210.826 127.5,210.5 Z"/></g>
<g><path style="opacity:0.873" fill="#7477b4" d="M 5.5,221.5 C 10.5439,226.826 16.0439,231.826 22,236.5C 22.4828,237.448 22.6495,238.448 22.5,239.5C 22.5,246.5 22.5,253.5 22.5,260.5C 14.9559,248.403 9.28919,235.403 5.5,221.5 Z"/></g>
<g><path style="opacity:0.889" fill="#ee9f6d" d="M 343.5,220.5 C 339.987,234.847 334.32,248.181 326.5,260.5C 327.833,252.5 327.833,244.5 326.5,236.5C 332.823,231.843 338.49,226.51 343.5,220.5 Z"/></g>
<g><path style="opacity:1" fill="#542d7a" d="M 129.5,213.5 C 131.725,217.898 134.559,221.898 138,225.5C 140.335,227.4 142.502,229.4 144.5,231.5C 143.5,232.167 142.5,232.833 141.5,233.5C 136.868,234.376 132.201,235.043 127.5,235.5C 125.877,227.847 126.543,220.514 129.5,213.5 Z"/></g>
<g><path style="opacity:1" fill="#c22636" d="M 220.5,233.5 C 220.206,247.392 218.873,261.392 216.5,275.5C 209.847,271.171 203.847,266.171 198.5,260.5C 200.616,253.604 203.282,246.937 206.5,240.5C 211.446,238.694 216.112,236.361 220.5,233.5 Z"/></g>
<g><path style="opacity:1" fill="#5f2c6b" d="M 141.5,233.5 C 142.699,237.769 143.699,242.103 144.5,246.5C 139.533,247.988 134.866,249.988 130.5,252.5C 130.167,252.5 129.833,252.5 129.5,252.5C 129.299,247.093 128.632,241.76 127.5,236.5C 127.5,236.167 127.5,235.833 127.5,235.5C 132.201,235.043 136.868,234.376 141.5,233.5 Z"/></g>
<g><path style="opacity:1" fill="#5a50a5" d="M 26.5,228.5 C 26.3359,231.187 26.5026,233.854 27,236.5C 34.5283,240.287 42.3616,242.953 50.5,244.5C 49.7611,244.369 49.0944,244.536 48.5,245C 49.624,245.249 50.624,245.749 51.5,246.5C 47.0127,254.935 44.6793,263.935 44.5,273.5C 43.1266,273.657 41.7932,273.49 40.5,273C 34.6715,269.978 29.0049,266.811 23.5,263.5C 22.8902,262.609 22.5569,261.609 22.5,260.5C 22.5,253.5 22.5,246.5 22.5,239.5C 23.4314,235.707 24.7648,232.041 26.5,228.5 Z"/></g>
<g><path style="opacity:1" fill="#55238d" d="M 127.5,236.5 C 128.632,241.76 129.299,247.093 129.5,252.5C 122.167,255.5 114.833,258.5 107.5,261.5C 96.6164,266.108 85.6164,270.441 74.5,274.5C 78.6374,263.421 82.9707,252.421 87.5,241.5C 100.798,239.508 114.131,237.842 127.5,236.5 Z"/></g>
<g><path style="opacity:1" fill="#e46843" d="M 326.5,236.5 C 327.833,244.5 327.833,252.5 326.5,260.5C 326.443,261.609 326.11,262.609 325.5,263.5C 321.222,265.977 316.888,268.477 312.5,271C 309.904,272.136 307.237,272.969 304.5,273.5C 304.738,261.887 301.738,251.22 295.5,241.5C 303.615,244.128 311.948,244.962 320.5,244C 321.056,243.617 321.389,243.117 321.5,242.5C 322.326,237.684 322.826,232.684 323,227.5C 324.228,230.598 325.394,233.598 326.5,236.5 Z"/></g>
<g><path style="opacity:1" fill="#762e57" d="M 144.5,231.5 C 153.137,237.487 162.47,241.82 172.5,244.5C 170.192,246.471 167.858,248.471 165.5,250.5C 161.094,254.246 156.427,257.58 151.5,260.5C 149.551,255.658 147.217,250.992 144.5,246.5C 143.699,242.103 142.699,237.769 141.5,233.5C 142.5,232.833 143.5,232.167 144.5,231.5 Z"/></g>
<g><path style="opacity:1" fill="#e24b36" d="M 266.5,203.5 C 268.476,222.151 278.143,234.818 295.5,241.5C 301.738,251.22 304.738,261.887 304.5,273.5C 304.5,273.833 304.5,274.167 304.5,274.5C 294.715,276.298 285.049,276.965 275.5,276.5C 274.662,276.158 274.328,275.492 274.5,274.5C 265.221,249.942 255.388,225.609 245,201.5C 244.617,202.056 244.117,202.389 243.5,202.5C 245.036,197.621 246.036,192.621 246.5,187.5C 247.314,185.369 247.814,183.036 248,180.5C 253.706,188.602 259.872,196.269 266.5,203.5 Z"/></g>
<g><path style="opacity:1" fill="#593c9b" d="M 86.5,240.5 C 86.5,241.167 86.8333,241.5 87.5,241.5C 82.9707,252.421 78.6374,263.421 74.5,274.5C 74.5,275.167 74.1667,275.5 73.5,275.5C 64.0365,277.097 54.7032,276.764 45.5,274.5C 44.8333,274.5 44.5,274.167 44.5,273.5C 44.6793,263.935 47.0127,254.935 51.5,246.5C 50.624,245.749 49.624,245.249 48.5,245C 49.0944,244.536 49.7611,244.369 50.5,244.5C 62.7909,245.399 74.7909,244.065 86.5,240.5 Z"/></g>
<g><path style="opacity:1" fill="#ab283d" d="M 206.5,240.5 C 203.282,246.937 200.616,253.604 198.5,260.5C 194.694,267.79 191.694,275.457 189.5,283.5C 189.167,283.5 188.833,283.5 188.5,283.5C 184.84,277.537 180.674,271.87 176,266.5C 175.517,265.552 175.351,264.552 175.5,263.5C 180.167,257.167 184.833,250.833 189.5,244.5C 195.278,243.639 200.944,242.306 206.5,240.5 Z"/></g>
<g><path style="opacity:1" fill="#982d44" d="M 172.5,244.5 C 178.167,244.5 183.833,244.5 189.5,244.5C 184.833,250.833 180.167,257.167 175.5,263.5C 175.167,263.5 174.833,263.5 174.5,263.5C 170.297,259.97 167.297,255.636 165.5,250.5C 167.858,248.471 170.192,246.471 172.5,244.5 Z"/></g>
<g><path style="opacity:1" fill="#6e2669" d="M 144.5,246.5 C 147.217,250.992 149.551,255.658 151.5,260.5C 151.5,260.833 151.5,261.167 151.5,261.5C 145.19,265.815 139.19,270.482 133.5,275.5C 133.167,275.5 132.833,275.5 132.5,275.5C 131.943,267.823 131.276,260.156 130.5,252.5C 134.866,249.988 139.533,247.988 144.5,246.5 Z"/></g>
<g><path style="opacity:1" fill="#681d8b" d="M 129.5,252.5 C 129.833,252.5 130.167,252.5 130.5,252.5C 131.276,260.156 131.943,267.823 132.5,275.5C 123.41,283.55 113.744,290.884 103.5,297.5C 104.833,285.5 106.167,273.5 107.5,261.5C 114.833,258.5 122.167,255.5 129.5,252.5 Z"/></g>
<g><path style="opacity:1" fill="#92274a" d="M 165.5,250.5 C 167.297,255.636 170.297,259.97 174.5,263.5C 170.797,270.232 166.131,276.232 160.5,281.5C 157.128,275.073 154.128,268.407 151.5,261.5C 151.5,261.167 151.5,260.833 151.5,260.5C 156.427,257.58 161.094,254.246 165.5,250.5 Z"/></g>
<g><path style="opacity:1" fill="#d42932" d="M 241.5,261.5 C 243.208,273.123 244.541,284.79 245.5,296.5C 235.572,289.912 225.905,282.912 216.5,275.5C 218.873,261.392 220.206,247.392 220.5,233.5C 222.808,231.529 225.142,229.529 227.5,227.5C 229.886,226.627 231.886,225.127 233.5,223C 234.448,222.517 235.448,222.351 236.5,222.5C 237.575,235.582 239.241,248.582 241.5,261.5 Z"/></g>
<g><path style="opacity:1" fill="#bd2539" d="M 198.5,260.5 C 203.847,266.171 209.847,271.171 216.5,275.5C 214.926,287.184 213.259,298.851 211.5,310.5C 203.459,302.09 196.126,293.09 189.5,283.5C 191.694,275.457 194.694,267.79 198.5,260.5 Z"/></g>
<g><path style="opacity:1" fill="#e14034" d="M 241.5,261.5 C 252.421,266.029 263.421,270.363 274.5,274.5C 274.328,275.492 274.662,276.158 275.5,276.5C 276.988,285.892 276.655,295.226 274.5,304.5C 274.167,304.5 273.833,304.5 273.5,304.5C 263.549,304.293 254.216,301.959 245.5,297.5C 245.5,297.167 245.5,296.833 245.5,296.5C 244.541,284.79 243.208,273.123 241.5,261.5 Z"/></g>
<g><path style="opacity:1" fill="#88226d" d="M 151.5,261.5 C 154.128,268.407 157.128,275.073 160.5,281.5C 160.5,282.167 160.5,282.833 160.5,283.5C 152.816,292.522 145.483,301.855 138.5,311.5C 138.167,311.5 137.833,311.5 137.5,311.5C 135.886,299.533 134.552,287.533 133.5,275.5C 139.19,270.482 145.19,265.815 151.5,261.5 Z"/></g>
<g><path style="opacity:1" fill="#6f3296" d="M 107.5,261.5 C 106.167,273.5 104.833,285.5 103.5,297.5C 102.833,297.5 102.5,297.833 102.5,298.5C 94.0405,302.745 85.0405,304.745 75.5,304.5C 75.1667,304.5 74.8333,304.5 74.5,304.5C 72.2967,294.909 71.9633,285.242 73.5,275.5C 74.1667,275.5 74.5,275.167 74.5,274.5C 85.6164,270.441 96.6164,266.108 107.5,261.5 Z"/></g>
<g><path style="opacity:0.907" fill="#7c67ac" d="M 23.5,263.5 C 29.0049,266.811 34.6715,269.978 40.5,273C 41.7932,273.49 43.1266,273.657 44.5,273.5C 44.5,274.167 44.8333,274.5 45.5,274.5C 45.4311,282.556 47.0978,290.223 50.5,297.5C 40.0084,287.343 31.0084,276.009 23.5,263.5 Z"/></g>
<g><path style="opacity:1" fill="#a7264a" d="M 174.5,263.5 C 174.833,263.5 175.167,263.5 175.5,263.5C 175.351,264.552 175.517,265.552 176,266.5C 180.674,271.87 184.84,277.537 188.5,283.5C 183.886,294.394 179.552,305.394 175.5,316.5C 175.167,316.5 174.833,316.5 174.5,316.5C 169.832,305.495 165.165,294.495 160.5,283.5C 160.5,282.833 160.5,282.167 160.5,281.5C 166.131,276.232 170.797,270.232 174.5,263.5 Z"/></g>
<g><path style="opacity:0.886" fill="#e88062" d="M 325.5,263.5 C 317.992,276.009 308.992,287.343 298.5,297.5C 302.129,290.277 304.129,282.61 304.5,274.5C 304.5,274.167 304.5,273.833 304.5,273.5C 307.237,272.969 309.904,272.136 312.5,271C 316.888,268.477 321.222,265.977 325.5,263.5 Z"/></g>
<g><path style="opacity:1" fill="#e45943" d="M 304.5,274.5 C 304.129,282.61 302.129,290.277 298.5,297.5C 298.5,298.167 298.167,298.5 297.5,298.5C 290.161,301.724 282.494,303.724 274.5,304.5C 276.655,295.226 276.988,285.892 275.5,276.5C 285.049,276.965 294.715,276.298 304.5,274.5 Z"/></g>
<g><path style="opacity:1" fill="#71459e" d="M 45.5,274.5 C 54.7032,276.764 64.0365,277.097 73.5,275.5C 71.9633,285.242 72.2967,294.909 74.5,304.5C 66.244,304.518 58.5774,302.518 51.5,298.5C 50.8333,298.5 50.5,298.167 50.5,297.5C 47.0978,290.223 45.4311,282.556 45.5,274.5 Z"/></g>
<g><path style="opacity:1" fill="#d63a39" d="M 216.5,275.5 C 225.905,282.912 235.572,289.912 245.5,296.5C 245.5,296.833 245.5,297.167 245.5,297.5C 245.308,307.609 242.642,316.942 237.5,325.5C 227.383,323.443 218.716,318.776 211.5,311.5C 211.5,311.167 211.5,310.833 211.5,310.5C 213.259,298.851 214.926,287.184 216.5,275.5 Z"/></g>
<g><path style="opacity:1" fill="#8c3093" d="M 132.5,275.5 C 132.833,275.5 133.167,275.5 133.5,275.5C 134.552,287.533 135.886,299.533 137.5,311.5C 130.639,318.672 122.306,323.338 112.5,325.5C 109.691,321.959 107.524,317.959 106,313.5C 105.034,308.321 103.867,303.321 102.5,298.5C 102.5,297.833 102.833,297.5 103.5,297.5C 113.744,290.884 123.41,283.55 132.5,275.5 Z"/></g>
<g><path style="opacity:1" fill="#aa3172" d="M 160.5,283.5 C 165.165,294.495 169.832,305.495 174.5,316.5C 169.449,325.218 162.449,331.885 153.5,336.5C 145.706,329.923 140.706,321.59 138.5,311.5C 145.483,301.855 152.816,292.522 160.5,283.5 Z"/></g>
<g><path style="opacity:1" fill="#be374d" d="M 188.5,283.5 C 188.833,283.5 189.167,283.5 189.5,283.5C 196.126,293.09 203.459,302.09 211.5,310.5C 211.5,310.833 211.5,311.167 211.5,311.5C 209.896,316.712 207.729,321.712 205,326.5C 201.927,330.061 199.094,333.728 196.5,337.5C 196.167,337.5 195.833,337.5 195.5,337.5C 190.899,334.076 186.399,330.409 182,326.5C 179.19,323.536 177.024,320.202 175.5,316.5C 179.552,305.394 183.886,294.394 188.5,283.5 Z"/></g>
<g><path style="opacity:1" fill="#e2553b" d="M 245.5,297.5 C 254.216,301.959 263.549,304.293 273.5,304.5C 273.313,306.564 272.813,308.564 272,310.5C 269.649,315.88 266.816,320.88 263.5,325.5C 262.609,326.11 261.609,326.443 260.5,326.5C 252.833,326.5 245.167,326.5 237.5,326.5C 237.5,326.167 237.5,325.833 237.5,325.5C 242.642,316.942 245.308,307.609 245.5,297.5 Z"/></g>
<g><path style="opacity:1" fill="#94449b" d="M 102.5,298.5 C 103.867,303.321 105.034,308.321 106,313.5C 107.524,317.959 109.691,321.959 112.5,325.5C 112.5,325.833 112.5,326.167 112.5,326.5C 104.478,327.58 96.4784,327.58 88.5,326.5C 87.5084,326.672 86.8417,326.338 86.5,325.5C 81.5105,319.188 77.8439,312.188 75.5,304.5C 85.0405,304.745 94.0405,302.745 102.5,298.5 Z"/></g>
<g><path style="opacity:0.893" fill="#9a61a7" d="M 51.5,298.5 C 58.5774,302.518 66.244,304.518 74.5,304.5C 74.8333,304.5 75.1667,304.5 75.5,304.5C 77.8439,312.188 81.5105,319.188 86.5,325.5C 73.4011,318.407 61.7345,309.407 51.5,298.5 Z"/></g>
<g><path style="opacity:0.877" fill="#e88062" d="M 297.5,298.5 C 287.343,308.992 276.009,317.992 263.5,325.5C 266.816,320.88 269.649,315.88 272,310.5C 272.813,308.564 273.313,306.564 273.5,304.5C 273.833,304.5 274.167,304.5 274.5,304.5C 282.494,303.724 290.161,301.724 297.5,298.5 Z"/></g>
<g><path style="opacity:1" fill="#ab4299" d="M 137.5,311.5 C 137.833,311.5 138.167,311.5 138.5,311.5C 140.706,321.59 145.706,329.923 153.5,336.5C 153.5,336.833 153.5,337.167 153.5,337.5C 145.93,340.308 138.263,342.308 130.5,343.5C 129.833,343.5 129.167,343.5 128.5,343.5C 122.49,338.49 117.157,332.823 112.5,326.5C 112.5,326.167 112.5,325.833 112.5,325.5C 122.306,323.338 130.639,318.672 137.5,311.5 Z"/></g>
<g><path style="opacity:1" fill="#d64c45" d="M 211.5,311.5 C 218.716,318.776 227.383,323.443 237.5,325.5C 237.5,325.833 237.5,326.167 237.5,326.5C 232.821,332.843 227.488,338.51 221.5,343.5C 220.5,343.5 219.5,343.5 218.5,343.5C 210.83,342.635 203.497,340.635 196.5,337.5C 199.094,333.728 201.927,330.061 205,326.5C 207.729,321.712 209.896,316.712 211.5,311.5 Z"/></g>
<g><path style="opacity:1" fill="#bb4573" d="M 174.5,316.5 C 174.833,316.5 175.167,316.5 175.5,316.5C 177.024,320.202 179.19,323.536 182,326.5C 186.399,330.409 190.899,334.076 195.5,337.5C 189.428,342.534 182.761,346.534 175.5,349.5C 174.833,349.5 174.167,349.5 173.5,349.5C 166.239,346.534 159.572,342.534 153.5,337.5C 153.5,337.167 153.5,336.833 153.5,336.5C 162.449,331.885 169.449,325.218 174.5,316.5 Z"/></g>
<g><path style="opacity:0.885" fill="#af66aa" d="M 88.5,326.5 C 96.4784,327.58 104.478,327.58 112.5,326.5C 117.157,332.823 122.49,338.49 128.5,343.5C 114.153,339.987 100.819,334.32 88.5,326.5 Z"/></g>
<g><path style="opacity:0.879" fill="#e67b56" d="M 237.5,326.5 C 245.167,326.5 252.833,326.5 260.5,326.5C 248.403,334.044 235.403,339.711 221.5,343.5C 227.488,338.51 232.821,332.843 237.5,326.5 Z"/></g>
<g><path style="opacity:0.889" fill="#bc6199" d="M 153.5,337.5 C 159.572,342.534 166.239,346.534 173.5,349.5C 168.5,349.5 163.5,349.5 158.5,349.5C 149.001,348.333 139.668,346.333 130.5,343.5C 138.263,342.308 145.93,340.308 153.5,337.5 Z"/></g>
<g><path style="opacity:0.886" fill="#d87070" d="M 195.5,337.5 C 195.833,337.5 196.167,337.5 196.5,337.5C 203.497,340.635 210.83,342.635 218.5,343.5C 209.332,346.333 199.999,348.333 190.5,349.5C 185.5,349.5 180.5,349.5 175.5,349.5C 182.761,346.534 189.428,342.534 195.5,337.5 Z"/></g>
</svg>
