<?xml version="1.0" encoding="UTF-8"?>
<svg version="1.1" xmlns="http://www.w3.org/2000/svg" width="1422" height="265">
<path d="M0 0 C2.24823348 1.67935638 4.35020226 3.43793104 6.44140625 5.30859375 C7.17746094 5.95183594 7.91351563 6.59507813 8.671875 7.2578125 C25.44718947 22.87819998 34.60026905 46.63446061 35.44140625 69.30859375 C35.48136719 70.0046875 35.52132812 70.70078125 35.5625 71.41796875 C36.31941039 95.10481139 27.59392758 118.90587449 12.01171875 136.65625 C8.11980726 140.67237143 4.01769269 144.10158987 -0.55859375 147.30859375 C-1.32558594 147.85128906 -2.09257812 148.39398438 -2.8828125 148.953125 C-20.80016685 160.65123238 -43.01722977 162.26516386 -63.55859375 158.30859375 C-75.24332679 155.06283457 -84.28837685 150.0337745 -93.55859375 142.30859375 C-93.88859375 164.41859375 -94.21859375 186.52859375 -94.55859375 209.30859375 C-111.05859375 209.30859375 -127.55859375 209.30859375 -144.55859375 209.30859375 C-144.55859375 137.03859375 -144.55859375 64.76859375 -144.55859375 -9.69140625 C-128.38859375 -9.69140625 -112.21859375 -9.69140625 -95.55859375 -9.69140625 C-95.06359375 -1.77140625 -95.06359375 -1.77140625 -94.55859375 6.30859375 C-92.48972793 6.53933548 -92.48972793 6.53933548 -91.21875 5.0234375 C-90.69152344 4.43691406 -90.16429687 3.85039063 -89.62109375 3.24609375 C-66.37918746 -20.52513132 -25.97770988 -17.17305096 0 0 Z M-86.37109375 44.99609375 C-95.64592675 56.37585338 -96.66300789 69.24612156 -95.55859375 83.30859375 C-94.7437974 87.33601569 -93.48058363 90.68754072 -91.55859375 94.30859375 C-91.15769531 95.09363281 -90.75679687 95.87867188 -90.34375 96.6875 C-85.51603763 104.9575812 -77.18910893 111.32870665 -67.91796875 113.84375 C-56.15885918 116.16052821 -44.76369144 115.58240094 -34.12109375 109.55859375 C-24.16367181 102.87685398 -18.03303394 94.21724507 -15.12109375 82.43359375 C-13.20163533 70.10552576 -15.42128473 57.61569515 -22.80859375 47.49609375 C-29.46936869 39.55985127 -38.21540421 33.91041514 -48.55859375 32.30859375 C-63.08690008 31.3861616 -76.02142619 34.06397736 -86.37109375 44.99609375 Z " fill="#09043E" transform="translate(317.55859375,55.69140625)"/>
<path d="M0 0 C18.81 0 37.62 0 57 0 C57 41.58 57 83.16 57 126 C70.2 126 83.4 126 97 126 C96.27690801 129.61545993 95.67993395 132.06831854 94.25 135.31542969 C93.89292969 136.13267517 93.53585937 136.94992065 93.16796875 137.79193115 C92.78253906 138.65981262 92.39710938 139.52769409 92 140.421875 C91.60425781 141.32246643 91.20851563 142.22305786 90.80078125 143.15093994 C89.96591056 145.04812267 89.12861724 146.94424091 88.2890625 148.83935547 C86.99951101 151.75110411 85.7179093 154.66625255 84.4375 157.58203125 C83.62546342 159.42468346 82.81297902 161.2671384 82 163.109375 C81.42185547 164.42334259 81.42185547 164.42334259 80.83203125 165.76385498 C80.47496094 166.56849182 80.11789062 167.37312866 79.75 168.20214844 C79.43546875 168.9132074 79.1209375 169.62426636 78.796875 170.35687256 C78 172 78 172 77 173 C70.4 173 63.8 173 57 173 C57 186.2 57 199.4 57 213 C39.84 213 22.68 213 5 213 C5 199.8 5 186.6 5 173 C-30.97 173 -66.94 173 -104 173 C-104 132 -104 132 -98.25 122.4375 C-94.63671875 119.11328125 -94.63671875 119.11328125 -92.78271484 117.58837891 C-89.69350588 114.83592841 -87.44723708 111.48380736 -85.0625 108.125 C-84.07532325 106.7876191 -83.08439714 105.45299809 -82.08984375 104.12109375 C-81.5882373 103.44804199 -81.08663086 102.77499023 -80.56982422 102.08154297 C-77.80298111 98.41278646 -74.95999634 94.80367091 -72.125 91.1875 C-67.27728563 84.99921284 -62.56735646 78.72769851 -57.9375 72.375 C-53.01645258 65.63106249 -47.91821473 59.08156633 -42.61303711 52.63623047 C-39.32889069 48.64586457 -36.13157511 44.61145507 -33 40.5 C-28.74460434 34.92039693 -24.34928498 29.46925528 -19.90649414 24.03808594 C-15.72837454 18.9226272 -11.63221332 13.74854664 -7.60180664 8.51586914 C-5.20613762 5.4305589 -2.78347357 2.78347357 0 0 Z M5 65 C-1.24786159 71.30598123 -6.68590713 78.29908924 -12.1171875 85.30078125 C-14.52323383 88.4014156 -16.97307114 91.46379473 -19.43847656 94.51733398 C-24.24825068 100.47785048 -28.9568008 106.50518511 -33.5625 112.625 C-34.31358032 113.61959229 -34.31358032 113.61959229 -35.07983398 114.63427734 C-35.54977783 115.26285645 -36.01972168 115.89143555 -36.50390625 116.5390625 C-36.91455322 117.08771973 -37.3252002 117.63637695 -37.74829102 118.20166016 C-39.27519593 120.39537609 -40.62485879 122.70809798 -42 125 C-26.16 125 -10.32 125 6 125 C6 105.2 6 85.4 6 65 C5.67 65 5.34 65 5 65 Z " fill="#09043E" transform="translate(1159,0)"/>
<path d="M0 0 C17.16 0 34.32 0 52 0 C52.33 39.6 52.66 79.2 53 120 C56.96 113.4 60.92 106.8 65 100 C70.69313331 91.15889886 70.69313331 91.15889886 73.01171875 87.62109375 C76.62583585 82.06613042 80.1215233 76.43763521 83.625 70.8125 C99.23287047 45.76712953 99.23287047 45.76712953 101 44 C102.8718094 43.90613619 104.7471806 43.88256196 106.62133789 43.88647461 C108.42309227 43.88658791 108.42309227 43.88658791 110.26124573 43.88670349 C111.5685112 43.89186478 112.87577667 43.89702606 114.22265625 43.90234375 C115.56644132 43.90420802 116.91022707 43.90563188 118.25401306 43.90663147 C121.79682277 43.91045598 125.3395917 43.92028568 128.88238525 43.93133545 C132.49515227 43.94155101 136.10792584 43.9461294 139.72070312 43.95117188 C146.8138188 43.96190802 153.90690674 43.97898364 161 44 C159.49034633 47.88287749 157.72959399 51.35890881 155.61328125 54.953125 C155.27970108 55.52156128 154.94612091 56.08999756 154.60243225 56.67565918 C153.50934059 58.53588985 152.41108583 60.39300954 151.3125 62.25 C150.54295663 63.55621209 149.7735905 64.86252862 149.00439453 66.16894531 C144.76357731 73.36329529 140.49703592 80.54227646 136.20068359 87.70361328 C134.98619581 89.73014157 133.7768555 91.75976385 132.57275391 93.79248047 C129.70434999 98.61285297 126.78604406 103.37064064 123.65686035 108.02734375 C122.53151573 109.70865717 121.42558291 111.40121773 120.32470703 113.09863281 C118.93465874 115.22959559 117.50867456 117.33768666 116.04248047 119.41699219 C114.18652514 122.30704194 112.84241741 124.66854251 112 128 C113.0437036 132.29171238 115.47566429 135.42809548 118 139 C119.09434974 140.79443396 120.14723388 142.60939683 121.19836426 144.42944336 C122.3405185 146.40606237 123.50359149 148.36884572 124.67358398 150.32910156 C125.27407059 151.33559753 125.27407059 151.33559753 125.88668823 152.36242676 C126.29533112 153.04720093 126.703974 153.7319751 127.125 154.4375 C127.97677853 155.8680839 128.82842108 157.29874877 129.67993164 158.72949219 C134.25337189 166.41041108 138.83833158 174.08445742 143.4375 181.75 C143.89624512 182.51481689 144.35499023 183.27963379 144.82763672 184.06762695 C147.33794899 188.24775713 149.86143303 192.41957297 152.39453125 196.5859375 C152.955354 197.51180664 153.51617676 198.43767578 154.09399414 199.39160156 C155.17411586 201.17444732 156.25777518 202.95515608 157.34545898 204.73339844 C158.06390991 205.9211084 158.06390991 205.9211084 158.796875 207.1328125 C159.22323242 207.83293457 159.64958984 208.53305664 160.08886719 209.25439453 C161 211 161 211 161 213 C153.29864866 213.23231591 145.59766275 213.40968539 137.89359951 213.51812172 C134.31541634 213.57018722 130.7396396 213.64070884 127.1628418 213.75439453 C123.70667743 213.86355076 120.25281673 213.92293618 116.79506111 213.94877243 C114.84294101 213.97608199 112.89174149 214.05407906 110.94102478 214.13296509 C102.24581621 214.1384348 102.24581621 214.1384348 98.72163391 210.91801453 C96.90322962 208.35759483 95.42499587 205.79554941 94 203 C93.31591064 201.93724854 92.63182129 200.87449707 91.92700195 199.77954102 C91.09108521 198.40560181 91.09108521 198.40560181 90.23828125 197.00390625 C89.60051758 195.96049072 88.96275391 194.9170752 88.30566406 193.84204102 C87.31904785 192.21866821 87.31904785 192.21866821 86.3125 190.5625 C84.89897196 188.24887436 83.48281157 185.93686501 82.06640625 183.625 C81.71774506 183.05540054 81.36908386 182.48580109 81.00985718 181.89894104 C77.96369731 176.92762355 74.87057778 171.98735816 71.75 167.0625 C71.27884766 166.31887207 70.80769531 165.57524414 70.32226562 164.80908203 C69.37660085 163.31806656 68.43047538 161.82734317 67.48388672 160.33691406 C64.75546688 156.04003438 62.03366719 151.73897488 59.3125 147.4375 C58.79461914 146.62095947 58.27673828 145.80441895 57.74316406 144.96313477 C57.26717773 144.21088623 56.79119141 143.4586377 56.30078125 142.68359375 C55.87966064 142.01900146 55.45854004 141.35440918 55.0246582 140.66967773 C54 139 54 139 53 137 C52.18182268 141.30874732 51.86211517 145.40076305 51.82641602 149.78393555 C51.819729 150.43348206 51.81304199 151.08302856 51.80615234 151.7522583 C51.79218661 153.15175761 51.78026623 154.55127856 51.77020454 155.95081139 C51.7536885 158.16592294 51.73045192 160.38087203 51.70530701 162.59590149 C51.63478872 168.88977897 51.57424975 175.18371798 51.52319336 181.4777832 C51.49142586 185.33624234 51.45017168 189.19450489 51.40299797 193.05280495 C51.38698287 194.52119236 51.374659 195.98962483 51.36609077 197.45807457 C51.35395264 199.50700306 51.32981481 201.55546694 51.30297852 203.60424805 C51.29267105 204.76973679 51.28236359 205.93522552 51.27174377 207.1360321 C51 210 51 210 49 213 C32.83 213 16.66 213 0 213 C0 142.71 0 72.42 0 0 Z " fill="#09043E" transform="translate(1261,0)"/>
<path d="M0 0 C1.80017578 0.65355469 1.80017578 0.65355469 3.63671875 1.3203125 C16.12239767 6.26059194 26.45363757 13.63192277 36 23 C37.03060547 23.99386719 37.03060547 23.99386719 38.08203125 25.0078125 C54.55362207 42.09668187 59.57187242 64.77957774 59.26953125 87.76953125 C58.69501445 106.46255325 51.49959422 124.09981699 39 138 C38.54496094 138.59554687 38.08992187 139.19109375 37.62109375 139.8046875 C24.63721456 156.62559367 1.43415591 166.17610509 -19 169 C-47.52671259 171.16574593 -72.69326116 164.79995605 -94.75 146.125 C-109.67358657 132.25009789 -120.61188474 111.9050344 -122.20507812 91.35473633 C-122.30347865 88.50388247 -122.32890316 85.66498622 -122.3125 82.8125 C-122.30758545 81.79873291 -122.3026709 80.78496582 -122.29760742 79.74047852 C-122.1738615 71.78456759 -121.32110049 64.64652863 -119 57 C-118.48953125 55.25009766 -118.48953125 55.25009766 -117.96875 53.46484375 C-111.25672424 32.62581783 -94.38862341 14.92463481 -75.1875 4.6875 C-52.98728665 -5.71792623 -23.2849593 -8.72847136 0 0 Z M-63.1875 55.125 C-71.14414803 64.84254554 -72.88204281 76.89986341 -72 89 C-69.56810787 101.42349464 -64.49691701 110.1661652 -53.9765625 117.26953125 C-43.66831028 123.26238654 -32.82969569 124.54906942 -21.10546875 122.4921875 C-10.00745582 119.52589833 -1.48978341 112.70582565 4.41796875 102.98828125 C9.80960302 92.80408318 10.5325795 81.379011 7.8125 70.25 C4.78925931 60.5756298 -0.06808674 52.44860574 -8.9765625 47.26953125 C-27.49899943 37.782979 -48.46133626 39.76344341 -63.1875 55.125 Z " fill="#09043E" transform="translate(491,47)"/>
<path d="M0 0 C19.14 0 38.28 0 58 0 C60.4816879 4.96337579 62.61048017 9.30982002 64.43847656 14.43408203 C65.09000702 16.24865402 65.09000702 16.24865402 65.75469971 18.09988403 C66.21675782 19.40249741 66.67873058 20.70514107 67.140625 22.0078125 C67.63095374 23.37873336 68.12174719 24.74948809 68.61297607 26.12008667 C69.90314172 29.72347755 71.1874035 33.32894372 72.47027588 36.93493652 C73.74907778 40.52679325 75.03277078 44.11689965 76.31640625 47.70703125 C77.81392595 51.8953848 79.3110362 56.08387715 80.80432129 60.27374268 C83.01994383 66.48722716 85.24695013 72.69597788 87.51757812 78.88964844 C88.08445343 80.43626663 88.08445343 80.43626663 88.66278076 82.01412964 C89.35679118 83.90237003 90.05359408 85.78958737 90.75372314 87.67556763 C91.05381287 88.49145355 91.35390259 89.30733948 91.66308594 90.14794922 C91.92345642 90.84991425 92.1838269 91.55187927 92.4520874 92.27511597 C93 94 93 94 93 96 C93.66 96 94.32 96 95 96 C95.10836182 95.33524658 95.21672363 94.67049316 95.32836914 93.9855957 C96.16198256 90.27994014 97.43125322 86.78537753 98.74609375 83.23046875 C99.02903793 82.4569809 99.31198212 81.68349304 99.60350037 80.88656616 C100.54428121 78.31876585 101.4906938 75.75308419 102.4375 73.1875 C103.09858663 71.38863333 103.75955439 69.58972298 104.42041016 67.79077148 C109.85182812 53.02815233 115.35557824 38.29240383 120.875 23.5625 C121.47464066 21.96152969 121.47464066 21.96152969 122.08639526 20.32821655 C123.22021321 17.30290117 124.35579768 14.27825638 125.4921875 11.25390625 C125.83317978 10.34434174 126.17417206 9.43477722 126.52549744 8.49765015 C126.83789871 7.66770538 127.15029999 6.83776062 127.47216797 5.98266602 C127.88062454 4.89575218 127.88062454 4.89575218 128.29733276 3.78688049 C129 2 129 2 130 0 C149.14 0 168.28 0 188 0 C184.62934574 10.11196277 184.62934574 10.11196277 182.56640625 14.7890625 C182.09348145 15.86929688 181.62055664 16.94953125 181.13330078 18.0625 C180.61493652 19.238125 180.09657227 20.41375 179.5625 21.625 C178.38122694 24.32426375 177.20399328 27.02528052 176.02734375 29.7265625 C175.55131714 30.81858978 175.55131714 30.81858978 175.06567383 31.93267822 C170.85986137 41.59657525 166.74584258 51.2996514 162.625 61 C161.78013207 62.9880462 160.93524247 64.97608319 160.09033203 66.96411133 C158.77642399 70.05581897 157.46258721 73.14755677 156.14898682 76.23939514 C152.76672038 84.19933433 149.37871591 92.15681808 145.98828125 100.11328125 C145.48323059 101.29856415 144.97817993 102.48384705 144.45782471 103.70504761 C142.4776535 108.35204121 140.4973956 112.99899778 138.5166626 117.64575195 C137.14492023 120.86396613 135.77359583 124.08235814 134.40234375 127.30078125 C133.96291443 128.33147736 133.52348511 129.36217346 133.07073975 130.42410278 C130.66979488 136.06037006 128.28124766 141.70166849 125.90673828 147.34912109 C125.4002626 148.55207321 124.89378693 149.75502533 124.3719635 150.99443054 C123.39331608 153.32037469 122.41670969 155.64717889 121.44236755 157.97492981 C120.78749107 159.53070992 120.78749107 159.53070992 120.11938477 161.11791992 C119.73339615 162.0384465 119.34740753 162.95897308 118.94972229 163.90739441 C118 166 118 166 117 167 C115.49581261 167.09311889 113.98728644 167.11746028 112.48022461 167.11352539 C111.03884377 167.11341209 111.03884377 167.11341209 109.56834412 167.11329651 C108.523564 167.10813522 107.47878387 167.10297394 106.40234375 167.09765625 C104.80635094 167.09553383 104.80635094 167.09553383 103.17811584 167.09336853 C99.76454917 167.08775064 96.351047 167.07519511 92.9375 167.0625 C90.62955824 167.05748731 88.32161545 167.052924 86.01367188 167.04882812 C80.34242574 167.0377754 74.67121747 167.02101987 69 167 C64.50514319 157.53222189 60.41268532 147.93493689 56.42703247 138.24493408 C54.95664713 134.67050678 53.47997565 131.09868594 52.0037384 127.52667236 C51.21666212 125.6221259 50.4298723 123.71746103 49.64335632 121.81268311 C45.13929138 110.90725719 40.60230059 100.01558756 36.0625 89.125 C35.64671692 88.12734619 35.23093384 87.12969238 34.80255127 86.10180664 C28.6300657 71.29214327 22.44510612 56.48771453 16.25 41.6875 C15.88754181 40.82151184 15.52508362 39.95552368 15.15164185 39.06329346 C14.4479629 37.3823084 13.74410388 35.70139871 13.04005432 34.02056885 C12.36531938 32.40929334 11.69118107 30.79776783 11.01768494 29.18597412 C9.26729065 25.00178054 7.49956588 20.82586119 5.70898438 16.65869141 C5.15014557 15.35143852 5.15014557 15.35143852 4.58001709 14.01777649 C3.86594943 12.34885067 3.14760734 10.68174524 2.42437744 9.01676941 C2.10612 8.27107193 1.78786255 7.52537445 1.45996094 6.75708008 C1.17731384 6.10210037 0.89466675 5.44712067 0.60345459 4.77229309 C0 3 0 3 0 0 Z " fill="#09043E" transform="translate(804,46)"/>
<path d="M0 0 C16.5 0 33 0 50 0 C50 14.52 50 29.04 50 44 C68.48 44 86.96 44 106 44 C104.87490252 50.7505849 104.87490252 50.7505849 103.34179688 54.24536133 C103.00474731 55.02248978 102.66769775 55.79961823 102.32043457 56.60029602 C101.77510071 57.82875496 101.77510071 57.82875496 101.21875 59.08203125 C100.84520386 59.93681564 100.47165771 60.79160004 100.08679199 61.67228699 C99.29981398 63.4696893 98.50958824 65.26567273 97.71630859 67.06030273 C96.49769988 69.81770459 95.28904406 72.57930211 94.08203125 75.34179688 C93.3156775 77.08879328 92.54876991 78.83554686 91.78125 80.58203125 C91.41769409 81.41112503 91.05413818 82.24021881 90.67956543 83.09443665 C88.11705108 88.88294892 88.11705108 88.88294892 87 90 C84.26105915 90.08858646 81.5474673 90.11523479 78.80859375 90.09765625 C77.98875504 90.0962413 77.16891632 90.09482635 76.32423401 90.09336853 C73.69528618 90.08775289 71.06642227 90.07519779 68.4375 90.0625 C66.65950643 90.05748701 64.88151154 90.05292376 63.10351562 90.04882812 C58.73564455 90.03777839 54.36783652 90.02050331 50 90 C50.09273082 97.24102962 50.20009381 104.48173896 50.31738281 111.72241211 C50.3555436 114.1829747 50.39041843 116.64359062 50.421875 119.10424805 C50.4678063 122.65172317 50.52575427 126.19883519 50.5859375 129.74609375 C50.59748871 130.8370787 50.60903992 131.92806366 50.62094116 133.05210876 C50.81181142 143.04629017 51.52153308 151.75113514 59 159 C64.98959483 162.98538425 70.6126781 164.09775766 77.734375 164.31640625 C78.90194336 164.35451416 80.06951172 164.39262207 81.27246094 164.43188477 C82.75004883 164.47498779 84.22763672 164.51809082 85.75 164.5625 C90.4525 164.706875 95.155 164.85125 100 165 C100 179.85 100 194.7 100 210 C90.0690625 210.0928125 90.0690625 210.0928125 79.9375 210.1875 C76.85329712 210.22846802 76.85329712 210.22846802 73.70678711 210.27026367 C51.64483664 210.44076112 31.67414529 206.16162037 14.83984375 191.0625 C4.11667716 179.75014843 -0.13261108 163.50946471 -0.12025452 148.27381897 C-0.12162918 146.96000244 -0.12300385 145.64618591 -0.12442017 144.29255676 C-0.1208819 142.85397316 -0.11724711 141.41538978 -0.11352539 139.97680664 C-0.11324305 138.44869997 -0.11340216 136.92059316 -0.1139679 135.39248657 C-0.11425405 131.25872343 -0.1083867 127.12498948 -0.10139394 122.99123311 C-0.09513014 118.66574201 -0.09455421 114.34025019 -0.09336853 110.01475525 C-0.09026413 101.83035189 -0.08206276 93.64596194 -0.07201904 85.46156448 C-0.06083022 76.14114602 -0.05534048 66.8207269 -0.05032361 57.50030339 C-0.0398794 38.33352645 -0.021545 19.16676789 0 0 Z " fill="#09043E" transform="translate(691,2)"/>
<path d="M0 0 C2.03978922 0.00748012 4.07958573 0.01316465 6.11938477 0.01715088 C11.43274527 0.03226793 16.74565348 0.07142609 22.05883789 0.1159668 C27.50270473 0.15722369 32.94664617 0.17522622 38.390625 0.1953125 C49.0314464 0.23793673 59.67193528 0.30601467 70.3125 0.390625 C69.47762952 5.0214717 67.87521625 9.0971151 66.00390625 13.39453125 C65.67712387 14.15483139 65.35034149 14.91513153 65.01365662 15.69847107 C63.9719458 18.11866142 62.92342956 20.53583885 61.875 22.953125 C61.17341069 24.58250261 60.4722344 26.21205813 59.77148438 27.84179688 C59.09933172 29.40120266 58.42681783 30.9604528 57.75390625 32.51953125 C57.43925919 33.24878311 57.12461212 33.97803497 56.8004303 34.72938538 C55.3833783 37.99500428 53.92266902 41.21624814 52.3125 44.390625 C51.05129082 44.4060862 51.05129082 44.4060862 49.76460266 44.42185974 C41.83409107 44.5199078 33.90365264 44.62243257 25.97326374 44.72996426 C21.8963465 44.78508766 17.81942196 44.83849043 13.74243164 44.88793945 C9.80664692 44.93573949 5.87094639 44.98808738 1.93526268 45.04356575 C0.43502084 45.06391861 -1.06524402 45.08264308 -2.56552696 45.09969902 C-4.66966424 45.12390024 -6.77364461 45.15393224 -8.87768555 45.18530273 C-10.67305 45.20861916 -10.67305 45.20861916 -12.50468445 45.23240662 C-15.34640783 45.37366924 -17.92327657 45.74145024 -20.6875 46.390625 C-20.6875 49.360625 -20.6875 52.330625 -20.6875 55.390625 C-16.00535228 57.66383732 -11.38274029 58.03373264 -6.27734375 58.5390625 C-4.3795501 58.74212032 -2.4817639 58.94524774 -0.58398438 59.1484375 C2.37024096 59.45596215 5.32474708 59.76048862 8.27954102 60.0625 C18.70951254 61.13813781 29.03872069 62.3602623 39.328125 64.41015625 C40.1373793 64.57127899 40.94663361 64.73240173 41.78041077 64.89840698 C52.52053717 67.14680065 61.087941 71.0887438 69.3125 78.390625 C69.92738281 78.88949219 70.54226562 79.38835937 71.17578125 79.90234375 C79.44262272 87.17936384 84.07415388 98.65829197 85.3125 109.390625 C85.3125 113.350625 85.3125 117.310625 85.3125 121.390625 C68.1525 121.390625 50.9925 121.390625 33.3125 121.390625 C32.3225 117.925625 32.3225 117.925625 31.3125 114.390625 C29.15491111 111.44012296 27.91785719 110.55136246 24.37573242 109.61083984 C23.25529541 109.48402832 22.1348584 109.3572168 20.98046875 109.2265625 C19.73442871 109.07928711 18.48838867 108.93201172 17.20458984 108.78027344 C15.9202002 108.65168945 14.63581055 108.52310547 13.3125 108.390625 C12.10932129 108.26977539 10.90614258 108.14892578 9.66650391 108.02441406 C7.23817643 107.79289493 4.80910659 107.56904486 2.37939453 107.35253906 C-44.00635243 103.18994765 -44.00635243 103.18994765 -59.6875 88.390625 C-60.22503906 87.89304687 -60.76257813 87.39546875 -61.31640625 86.8828125 C-71.58264481 76.23062512 -72.13937929 62.3211384 -71.95703125 48.44921875 C-71.54905114 35.34361126 -66.84639302 25.33258186 -57.3671875 16.140625 C-40.42169727 1.7560288 -21.26013095 -0.2321327 0 0 Z " fill="#09043E" transform="translate(71.6875,45.609375)"/>
<path d="M0 0 C16.17 0 32.34 0 49 0 C49.495 10.395 49.495 10.395 50 21 C51.65 19.02 53.3 17.04 55 15 C70.60663216 1.76365839 86.81213767 0 107 0 C107 15.18 107 30.36 107 46 C97.1 46.495 97.1 46.495 87 47 C75.60998212 48.29165151 66.55722049 52.37645039 58.65234375 60.86328125 C52.40817612 68.93789045 50.70855418 78.93999878 50.68115234 88.89453125 C50.66608391 90.16912453 50.66608391 90.16912453 50.65071106 91.46946716 C50.62006426 94.25047185 50.60289581 97.03138109 50.5859375 99.8125 C50.56721094 101.75163585 50.54763643 103.69076368 50.5272522 105.62988281 C50.47608221 110.71294409 50.43637575 115.79603174 50.39910889 120.87921143 C50.35190721 126.98925991 50.29037457 133.09917907 50.23126221 139.2091217 C50.14323459 148.47269517 50.07333805 157.73624616 50 167 C33.5 167 17 167 0 167 C0 111.89 0 56.78 0 0 Z " fill="#09043E" transform="translate(568,46)"/>
<path d="M0 0 C-2.22149548 5.16046416 -4.44527824 10.31993437 -6.67114258 15.47851562 C-7.42729898 17.231828 -8.1828408 18.98540556 -8.93774414 20.73925781 C-10.02587164 23.26698446 -11.11624011 25.79373435 -12.20703125 28.3203125 C-12.54152786 29.09867462 -12.87602448 29.87703674 -13.22065735 30.6789856 C-13.54076279 31.41930023 -13.86086823 32.15961487 -14.19067383 32.92236328 C-14.46825027 33.56634064 -14.74582672 34.21031799 -15.03181458 34.87380981 C-16.28105279 37.6172079 -17.65190288 40.30380577 -19 43 C-47.05 43 -75.1 43 -104 43 C-102.87490069 36.24940411 -102.87490069 36.24940411 -101.43359375 32.93823242 C-101.11656494 32.20114548 -100.79953613 31.46405853 -100.47290039 30.70463562 C-100.13121826 29.92941055 -99.78953613 29.15418549 -99.4375 28.35546875 C-99.0861499 27.54507645 -98.7347998 26.73468414 -98.37280273 25.8997345 C-97.6328727 24.19651308 -96.88972827 22.49468487 -96.14355469 20.79418945 C-94.99741225 18.18160133 -93.86117944 15.56487691 -92.7265625 12.94726562 C-92.00577891 11.29141818 -91.28444418 9.63581051 -90.5625 7.98046875 C-90.22081787 7.19512253 -89.87913574 6.40977631 -89.52709961 5.60063171 C-87.11699659 0.11699659 -87.11699659 0.11699659 -86 -1 C-83.39476157 -1.13570722 -80.81449042 -1.20727103 -78.20727539 -1.23706055 C-77.39104202 -1.25017273 -76.57480865 -1.26328491 -75.73384094 -1.27679443 C-73.02182804 -1.31874933 -70.30978525 -1.35315971 -67.59765625 -1.38671875 C-65.72057401 -1.41235809 -63.84349374 -1.43814214 -61.96641541 -1.46406555 C-58.02623095 -1.517115 -54.08601867 -1.5660312 -50.14575195 -1.61254883 C-45.0867089 -1.67294135 -40.02797229 -1.74715024 -34.96917057 -1.82492352 C-31.09089154 -1.88241441 -27.21253826 -1.93076425 -23.33410454 -1.976511 C-21.46847598 -1.9999786 -19.60288605 -2.02675031 -17.73735237 -2.05682945 C-15.13228557 -2.0978226 -12.52738146 -2.12610437 -9.92211914 -2.15112305 C-8.75706848 -2.17357841 -8.75706848 -2.17357841 -7.56848145 -2.19648743 C-2.22831055 -2.22831055 -2.22831055 -2.22831055 0 0 Z " fill="#FF0930" transform="translate(104,170)"/>
</svg>
