<?xml version="1.0" encoding="UTF-8"?>
<svg version="1.1" xmlns="http://www.w3.org/2000/svg" width="1000" height="265">
<path d="M0 0 C2.45275651 1.90519925 4.76376809 3.88851575 7.0546875 5.984375 C8.06015625 6.85255859 8.06015625 6.85255859 9.0859375 7.73828125 C25.06545597 22.41787857 33.92362681 44.75634321 35.1809082 66.13012695 C36.11156008 92.68177266 29.64227396 115.61096854 12.0546875 135.984375 C11.46171875 136.67402344 10.86875 137.36367187 10.2578125 138.07421875 C-3.57861035 153.00454683 -22.99202181 159.85262476 -42.91015625 160.94921875 C-62.12099372 161.39315686 -79.38800758 155.46206493 -93.9453125 142.984375 C-94.2753125 165.094375 -94.6053125 187.204375 -94.9453125 209.984375 C-111.7753125 209.984375 -128.6053125 209.984375 -145.9453125 209.984375 C-145.9453125 137.384375 -145.9453125 64.784375 -145.9453125 -10.015625 C-129.7753125 -10.015625 -113.6053125 -10.015625 -96.9453125 -10.015625 C-96.4503125 -1.105625 -96.4503125 -1.105625 -95.9453125 7.984375 C-94.5428125 6.47875 -93.1403125 4.973125 -91.6953125 3.421875 C-82.80755332 -5.41588272 -73.02008112 -10.00098478 -60.9453125 -13.015625 C-60.19765625 -13.20769531 -59.45 -13.39976563 -58.6796875 -13.59765625 C-37.66289195 -16.81022357 -17.45364938 -11.94440727 0 0 Z M-88.9453125 45.984375 C-96.44251026 55.43265074 -98.69830354 67.06613732 -97.6953125 78.9453125 C-95.82883917 90.84407998 -90.28366388 101.07351437 -80.84765625 108.671875 C-70.79720015 115.60607059 -58.781334 117.09407215 -46.9453125 114.984375 C-35.21215386 112.06299315 -26.29598283 105.26091427 -19.9453125 94.984375 C-14.34638087 83.97371005 -13.37841319 70.7908117 -16.9453125 58.984375 C-21.23215688 47.5412662 -29.00002225 39.10655166 -40.0390625 34.01953125 C-57.54824286 27.51355156 -76.59165737 32.24526322 -88.9453125 45.984375 Z " fill="#09043E" transform="translate(320.9453125,55.015625)"/>
<path d="M0 0 C16.9418467 14.22826224 27.57611035 34.78245073 30.140625 56.6953125 C31.6582381 81.95651188 25.11517741 104.61419787 8.51171875 124.1015625 C-6.70340628 140.74545545 -28.68458028 152.59576073 -51.47094727 153.83764648 C-77.83023879 154.70736368 -99.78009388 150.01751261 -120.859375 133.6953125 C-121.66890625 133.07011719 -122.4784375 132.44492188 -123.3125 131.80078125 C-139.57497254 118.29610563 -149.78875298 97.96496342 -152.54296875 77.171875 C-154.8516336 51.80506372 -147.89313665 28.77665797 -131.671875 9.0078125 C-98.8330753 -29.29555533 -38.21169863 -30.90014675 0 0 Z M-91.859375 36.6953125 C-99.32644266 45.93580873 -103.22502301 56.78981318 -102.859375 68.6953125 C-101.80028071 77.22430195 -99.70260049 84.56841422 -94.859375 91.6953125 C-94.3025 92.5615625 -93.745625 93.4278125 -93.171875 94.3203125 C-84.4772643 103.24991268 -73.79257625 107.73037976 -61.359375 108.1953125 C-49.64680234 107.77094393 -38.93310224 103.86665321 -30.671875 95.47265625 C-22.94200159 86.50657147 -19.48157086 76.04379421 -19.640625 64.25390625 C-20.6578227 52.356326 -25.07892118 41.83534934 -33.859375 33.6953125 C-50.43309958 20.97059848 -76.97449935 20.88013212 -91.859375 36.6953125 Z " fill="#09043E" transform="translate(524.859375,62.3046875)"/>
<path d="M0 0 C19.47 0 38.94 0 59 0 C64.62401395 13.49763348 64.62401395 13.49763348 66.35253906 18.39746094 C66.93905243 20.05174103 66.93905243 20.05174103 67.53741455 21.73944092 C67.942724 22.89276917 68.34803345 24.04609741 68.765625 25.234375 C69.43517773 27.12459591 70.10473313 29.01481589 70.77442551 30.90498734 C71.70279202 33.52768981 72.62821507 36.15142639 73.55352783 38.77520752 C75.5992095 44.57557824 77.64885285 50.37454114 79.703125 56.171875 C79.92445602 56.79680344 80.14578705 57.42173187 80.37382507 58.06559753 C84.75943728 70.43631399 89.33281313 82.73304603 94 95 C96.16779556 92.83220444 96.70606923 91.48409927 97.7331543 88.63427734 C98.06549576 87.72110245 98.39783722 86.80792755 98.74024963 85.86708069 C99.27681435 84.36666481 99.27681435 84.36666481 99.82421875 82.8359375 C100.20291611 81.79163071 100.58161346 80.74732391 100.9717865 79.67137146 C101.78906945 77.41625802 102.60390095 75.16025497 103.41656494 72.9034729 C105.54845388 66.98475007 107.69917117 61.07287037 109.84765625 55.16015625 C110.28015686 53.96845322 110.71265747 52.77675018 111.15826416 51.54893494 C114.9343955 41.15352003 118.76663773 30.77980569 122.64712524 20.4229126 C123.29851078 18.68405493 123.94872052 16.94475635 124.5977478 15.20501709 C125.49194548 12.80875348 126.38980635 10.41390036 127.2890625 8.01953125 C127.55170395 7.31477158 127.8143454 6.6100119 128.08494568 5.88389587 C129.88491415 1.11508585 129.88491415 1.11508585 131 0 C132.81055025 -0.09376053 134.62477201 -0.1174411 136.43774414 -0.11352539 C137.59887222 -0.11344986 138.76000031 -0.11337433 139.95631409 -0.11329651 C141.85159096 -0.10555458 141.85159096 -0.10555458 143.78515625 -0.09765625 C145.71408974 -0.09553383 145.71408974 -0.09553383 147.68199158 -0.09336853 C151.10643443 -0.08954418 154.53083509 -0.07971462 157.95526123 -0.06866455 C161.44738189 -0.05844864 164.93950934 -0.05387053 168.43164062 -0.04882812 C175.28777778 -0.03809227 182.14388687 -0.02101684 189 0 C186.87866342 6.77683885 184.29034574 13.27337962 181.484375 19.79296875 C181.04090729 20.83139923 180.59743958 21.86982971 180.14053345 22.93972778 C178.68029703 26.35706275 177.21513254 29.77226167 175.75 33.1875 C174.71658951 35.60360149 173.68355565 38.0198641 172.65087891 40.4362793 C171.04624819 44.19070807 169.44124829 47.94497712 167.83450317 51.69850159 C163.28307643 62.33124369 158.75160147 72.97241344 154.22436523 83.61547852 C150.91663743 91.39151431 147.60272652 99.16491037 144.28816223 106.93803406 C141.34273657 113.84646417 138.40243293 120.75705144 135.46496582 127.66886902 C133.50967171 132.26682946 131.55030567 136.86304669 129.58990479 141.45883179 C128.66106967 143.63862511 127.73392244 145.8191385 126.80853271 148.00039673 C125.53695818 150.99697434 124.25946356 153.99095858 122.98046875 156.984375 C122.60453079 157.8742662 122.22859283 158.76415741 121.84126282 159.68101501 C121.49427841 160.48978592 121.14729401 161.29855682 120.78979492 162.13183594 C120.49054611 162.83499939 120.1912973 163.53816284 119.88298035 164.26263428 C119 166 119 166 117 168 C114.99537659 168.27415466 114.99537659 168.27415466 112.50610352 168.30639648 C111.57496231 168.32238388 110.64382111 168.33837128 109.6844635 168.35484314 C108.67612961 168.36020584 107.66779572 168.36556854 106.62890625 168.37109375 C105.59563705 168.38012222 104.56236786 168.3891507 103.49778748 168.39845276 C101.30967111 168.41297819 99.12151108 168.42184766 96.93334961 168.42553711 C93.57917445 168.43744082 90.22683382 168.48661166 86.87304688 168.53710938 C84.75000901 168.54657216 82.62695981 168.55380788 80.50390625 168.55859375 C79.49759659 168.57812607 78.49128693 168.59765839 77.45448303 168.61778259 C74.87963292 168.60103278 72.52089685 168.52243208 70 168 C68.06835938 165.98901367 68.06835938 165.98901367 67 163 C66.4355541 161.72043399 65.86599276 160.44311834 65.29272461 159.16748047 C64.65863596 157.65236807 64.02877556 156.13548167 63.40234375 154.6171875 C63.05636642 153.78763046 62.7103891 152.95807343 62.35392761 152.1033783 C61.21154128 149.36205939 60.07456845 146.61852846 58.9375 143.875 C58.12980156 141.93431948 57.32168902 139.99381126 56.51318359 138.0534668 C54.83484371 134.02474464 53.1582884 129.99528665 51.48291016 125.96533203 C49.16765003 120.39910905 46.84218479 114.83721526 44.51171875 109.27734375 C44.14931091 108.41272018 43.78690308 107.54809662 43.41351318 106.65727234 C42.68312076 104.91490205 41.95269277 103.17254668 41.222229 101.4302063 C36.07029414 89.1390143 30.93134465 76.84244678 25.80859375 64.5390625 C25.37351501 63.49420685 24.93843628 62.4493512 24.49017334 61.37283325 C22.33008319 56.18471932 20.17101337 50.99618336 18.01318359 45.80712891 C14.46976968 37.29077562 10.92177496 28.7772619 7.29296875 20.296875 C6.88885521 19.35087181 6.88885521 19.35087181 6.47657776 18.38575745 C5.28944407 15.608604 4.09649633 12.83423998 2.89282227 10.06420898 C2.50022217 9.14969971 2.10762207 8.23519043 1.703125 7.29296875 C1.20280762 6.14090942 1.20280762 6.14090942 0.69238281 4.96557617 C0 3 0 3 0 0 Z " fill="#09043E" transform="translate(811,45)"/>
<path d="M0 0 C16.83 0 33.66 0 51 0 C51 14.85 51 29.7 51 45 C69.48 45 87.96 45 107 45 C105.11562026 50.65313921 103.26108055 55.99334164 100.96875 61.44921875 C100.69156128 62.11033157 100.41437256 62.7714444 100.12878418 63.45259094 C99.54886193 64.83372318 98.96734869 66.21418841 98.38427734 67.59399414 C97.49817468 69.69182141 96.61786232 71.79200932 95.73828125 73.89257812 C93.30222916 79.68574697 90.81341543 85.37316913 88 91 C75.79 91 63.58 91 51 91 C51.07415449 98.66859759 51.15713219 106.33606253 51.26245117 114.00415039 C51.29561126 116.61020958 51.32367065 119.21633904 51.34643555 121.82250977 C51.38014489 125.5785911 51.43247112 129.33403355 51.48828125 133.08984375 C51.49467117 134.24645004 51.5010611 135.40305634 51.50764465 136.5947113 C51.68052813 146.20621458 52.94286586 154.10698525 60 161 C68.35081121 166.84556784 80.65656345 166.15319244 90.46875 166.5546875 C91.48420898 166.59843506 92.49966797 166.64218262 93.54589844 166.68725586 C96.03050573 166.79394782 98.5151909 166.89813544 101 167 C101.02527062 173.39037231 101.04283317 179.78073183 101.05493164 186.17114258 C101.05997308 188.34692873 101.06680607 190.52271147 101.07543945 192.69848633 C101.08751338 195.81853067 101.09323005 198.93853038 101.09765625 202.05859375 C101.10281754 203.03775253 101.10797882 204.01691132 101.11329651 205.02574158 C101.11337204 205.92659988 101.11344757 206.82745819 101.11352539 207.75561523 C101.115746 208.55281479 101.11796661 209.35001434 101.12025452 210.17137146 C101 212 101 212 100 213 C72.96241627 214.65968867 41.2758243 214.3277639 19.08203125 196.6796875 C6.76357045 185.08803452 0.50500665 169.5340255 -0.12304783 152.70235538 C-0.12212604 151.55841029 -0.12120424 150.4144652 -0.12025452 149.2358551 C-0.12110894 148.59283996 -0.12196337 147.94982482 -0.12284368 147.28732437 C-0.1244783 145.15319029 -0.1190105 143.01913649 -0.11352539 140.88500977 C-0.11324306 139.347051 -0.11340216 137.80909211 -0.1139679 136.27113342 C-0.11425406 132.11051171 -0.10838648 127.94991901 -0.10139394 123.78930402 C-0.09513038 119.43578569 -0.09455423 115.08226665 -0.09336853 110.72874451 C-0.09026406 102.49121724 -0.0820626 94.25370329 -0.07201904 86.01618189 C-0.06083043 76.63530507 -0.05534053 67.2544276 -0.05032361 57.87354577 C-0.03987924 38.58235477 -0.02154476 19.29118202 0 0 Z " fill="#09043E" transform="translate(697,0)"/>
<path d="M0 0 C0.91771179 -0.00014603 1.83542358 -0.00029205 2.78094482 -0.0004425 C5.80011395 0.00025155 8.81922061 0.00802016 11.83837891 0.01586914 C13.93730638 0.01773512 16.03623429 0.01915818 18.13516235 0.02015686 C23.64903982 0.02396785 29.16289079 0.03378601 34.67675781 0.04486084 C40.30745078 0.05510547 45.93814805 0.05966102 51.56884766 0.06469727 C62.60922386 0.07540957 73.64958043 0.09246894 84.68994141 0.11352539 C83.57767922 3.52627686 82.43312704 6.87967886 81.01000977 10.17529297 C80.69305649 10.91237991 80.37610321 11.64946686 80.04954529 12.40888977 C79.54476402 13.57172737 79.54476402 13.57172737 79.02978516 14.75805664 C78.67985001 15.56844894 78.32991486 16.37884125 77.96937561 17.21379089 C77.23349649 18.91617024 76.4963679 20.61800998 75.75805664 22.31933594 C74.62424309 24.93339926 73.49571093 27.54969854 72.36767578 30.16625977 C71.65119273 31.82199456 70.93440661 33.47759825 70.21728516 35.13305664 C69.87874008 35.91840286 69.54019501 36.70374908 69.19139099 37.51289368 C66.80496867 42.99849812 66.80496867 42.99849812 65.68994141 44.11352539 C63.6360182 44.22685905 61.57821991 44.27038553 59.52124023 44.28710938 C58.87724274 44.29379639 58.23324524 44.3004834 57.56973267 44.30737305 C56.16633331 44.3214553 54.76291061 44.33333916 53.35947609 44.34332085 C51.13553627 44.35970339 48.91176742 44.38294324 46.68791199 44.40821838 C40.36307283 44.47904597 34.03816104 44.53894846 27.71313477 44.59033203 C23.84746107 44.62221894 19.98197882 44.66352749 16.1164608 44.71052742 C14.64497023 44.7264999 13.17343549 44.73884333 11.70188332 44.74743462 C9.63626451 44.75966091 7.57109064 44.78384295 5.50561523 44.81054688 C4.33170731 44.82085434 3.15779938 44.8311618 1.94831848 44.84178162 C-1.42083609 45.12276407 -4.16075897 45.91319924 -7.31005859 47.11352539 C-7.99499233 49.97130572 -7.99499233 49.97130572 -8.31005859 53.11352539 C-6.68919585 56.17718762 -6.68919585 56.17718762 -4.45333862 56.81130981 C0.8330211 57.83820263 6.0676416 58.57913487 11.43212891 59.04321289 C13.09361405 59.20048201 14.75507149 59.35804396 16.41650391 59.51586914 C18.97344538 59.75233524 21.53059443 59.98547484 24.08837891 60.21264648 C46.64385039 62.23719328 71.57347322 65.06910182 88.06494141 82.36352539 C98.12719032 94.48771055 98.68994141 106.66887666 98.68994141 122.11352539 C81.85994141 122.11352539 65.02994141 122.11352539 47.68994141 122.11352539 C46.69994141 119.14352539 45.70994141 116.17352539 44.68994141 113.11352539 C40.09278452 109.58935637 34.71806866 109.38856158 29.11181641 108.86743164 C28.18637024 108.77018295 27.26092407 108.67293427 26.30743408 108.57273865 C23.3526172 108.2627593 20.39661928 107.96768199 17.43994141 107.67602539 C-32.98171088 102.68524207 -32.98171088 102.68524207 -49.14990234 86.24243164 C-59.11362373 74.04764796 -60.4572495 59.19580368 -59.31005859 44.11352539 C-56.780623 30.10767914 -49.32094534 18.92587963 -38.03662109 10.39477539 C-26.65687804 2.98471014 -13.42868538 -0.05630972 0 0 Z " fill="#09043E" transform="translate(59.31005859375,44.886474609375)"/>
<path d="M0 0 C16.17 0 32.34 0 49 0 C49.33 7.26 49.66 14.52 50 22 C51.258125 20.494375 52.51625 18.98875 53.8125 17.4375 C63.56899214 6.67643925 74.88138841 2.35310193 89 0 C95.27 0 101.54 0 108 0 C108 15.18 108 30.36 108 46 C97.605 46.495 97.605 46.495 87 47 C76.44957307 48.89111426 65.96188702 52.31067231 59.20703125 61.1484375 C50.14096821 75.05560217 50.84009188 90.48549669 50.68359375 106.4765625 C50.6629868 108.25589438 50.64198945 110.03522178 50.62062073 111.81454468 C50.5657859 116.46686135 50.5162087 121.11921933 50.46777344 125.77160645 C50.40837415 131.3702286 50.34236142 136.96877632 50.27747345 142.56733704 C50.17995048 151.04484537 50.09076241 159.52240446 50 168 C33.5 168 17 168 0 168 C0 112.56 0 57.12 0 0 Z " fill="#09043E" transform="translate(573,45)"/>
<path d="M0 0 C28.71 0 57.42 0 87 0 C85.00275827 5.9917252 82.95491468 11.73019747 80.4609375 17.5 C80.13461334 18.26175537 79.80828918 19.02351074 79.47207642 19.80834961 C78.78976635 21.39886017 78.10569873 22.98861785 77.41992188 24.57763672 C76.36644217 27.01983898 75.31956489 29.46479685 74.2734375 31.91015625 C73.60715517 33.46110267 72.94050217 35.01188991 72.2734375 36.5625 C71.95990326 37.2946875 71.64636902 38.026875 71.32333374 38.78125 C69.11555684 43.88444316 69.11555684 43.88444316 68 45 C65.32212027 45.09512944 62.67011131 45.12555279 59.99194336 45.11352539 C59.15299026 45.11367142 58.31403717 45.11381744 57.44966125 45.1139679 C54.66302956 45.1132685 51.87646384 45.10547485 49.08984375 45.09765625 C47.16313209 45.09579217 45.23641995 45.09436822 43.30970764 45.09336853 C38.22812603 45.08954259 33.1465728 45.07971166 28.06500244 45.06866455 C22.88383366 45.05845206 17.70266031 45.05387126 12.52148438 45.04882812 C2.34764375 45.03808946 -7.82617577 45.02101213 -18 45 C-14.83164687 29.15823436 -6.31907043 14.86840102 0 0 Z " fill="#FF0930" transform="translate(18,168)"/>
</svg>
