<?xml version="1.0" encoding="UTF-8"?>
<svg version="1.1" xmlns="http://www.w3.org/2000/svg" width="1000" height="313">
<path d="M0 0 C11.55 0 23.1 0 35 0 C35 30.36 35 60.72 35 92 C45.23 92 55.46 92 66 92 C66 61.64 66 31.28 66 0 C77.88 0 89.76 0 102 0 C102 30.36 102 60.72 102 92 C111.9 92 121.8 92 132 92 C132 69.56 132 47.12 132 24 C132.66 24 133.32 24 134 24 C135.28762817 25.59638977 135.28762817 25.59638977 136.76220703 27.86450195 C137.59415085 29.13261467 137.59415085 29.13261467 138.44290161 30.42634583 C139.0418222 31.35428452 139.6407428 32.28222321 140.2578125 33.23828125 C141.19063553 34.6640876 141.19063553 34.6640876 142.14230347 36.11869812 C144.1431343 39.17905094 146.13453938 42.24539423 148.125 45.3125 C150.72796039 49.31108886 153.33497757 53.30700293 155.9453125 57.30078125 C156.88298462 58.73637642 156.88298462 58.73637642 157.83959961 60.20097351 C161.55380719 65.86468751 165.33744501 71.43209514 169.40673828 76.84814453 C171.85067315 80.14891712 174.09947724 83.57566328 176.359375 87.00390625 C178.08810434 89.3832326 178.08810434 89.3832326 182 91 C195.365 91.495 195.365 91.495 209 92 C209 61.64 209 31.28 209 0 C221.21 0 233.42 0 246 0 C246 30.36 246 60.72 246 92 C255.57 91.67 265.14 91.34 275 91 C274.99214478 86.91830444 274.99214478 86.91830444 274.98413086 82.75415039 C274.96759599 73.78549875 274.95652919 64.81684645 274.94818783 55.84818363 C274.94295872 50.40797688 274.93586057 44.96778569 274.92456055 39.52758789 C274.91373265 34.28214298 274.90772338 29.03671308 274.90512276 23.79125786 C274.90326833 21.78529054 274.89964738 19.77932408 274.89426994 17.77336311 C274.88706081 14.97397176 274.886009 12.17464321 274.88647461 9.37524414 C274.88287933 8.53727295 274.87928406 7.69930176 274.87557983 6.8359375 C274.88594784 1.11405216 274.88594784 1.11405216 276 0 C278.59359322 -0.08851529 281.16039691 -0.11525945 283.75390625 -0.09765625 C284.52935287 -0.0962413 285.3047995 -0.09482635 286.10374451 -0.09336853 C288.59003494 -0.08775345 291.0762366 -0.07519846 293.5625 -0.0625 C295.24413933 -0.05748694 296.92578006 -0.0529237 298.60742188 -0.04882812 C302.73831566 -0.03777913 306.86914276 -0.02050445 311 0 C320.46332639 18.92665278 312.19063026 54.34475306 305.82910156 73.64306641 C291.83163792 113.43444274 263.63067457 147.03837587 225.57421875 165.90234375 C211.02989654 172.75406556 195.85874316 177.43677787 180 180 C178.22689453 180.28810547 178.22689453 180.28810547 176.41796875 180.58203125 C134.28754851 185.51207674 92.49589524 174.27850684 58.9140625 148.390625 C53.74014409 144.14606995 48.81478892 139.64769674 44 135 C43.443125 134.46721436 42.88625 133.93442871 42.3125 133.38549805 C30.97074844 122.32697731 22.06360716 109.12385389 15 95 C14.47647949 93.96286865 14.47647949 93.96286865 13.94238281 92.90478516 C9.57840414 84.11046316 6.2423218 75.21344007 3.625 65.75 C3.38628174 64.88810059 3.14756348 64.02620117 2.90161133 63.13818359 C-0.23295923 51.10551385 -1.31848721 39.15932654 -1.20581055 26.76635742 C-1.18735986 24.67158964 -1.18530326 22.57726324 -1.18554688 20.48242188 C-1.16057411 13.54075549 -0.77110913 6.93998218 0 0 Z " fill="#FF27FF" transform="translate(1,132)"/>
<path d="M0 0 C1.04806824 0.00323273 1.04806824 0.00323273 2.11730957 0.00653076 C44.0594916 0.21333682 80.9703557 16.75518772 111.3125 45.3125 C111.90160156 45.84875 112.49070312 46.385 113.09765625 46.9375 C130.18092038 63.09188688 143.25803148 85.96204443 150.3125 108.3125 C150.3125 109.3025 150.3125 110.2925 150.3125 111.3125 C108.7325 111.3125 67.1525 111.3125 24.3125 111.3125 C24.3125 130.1225 24.3125 148.9325 24.3125 168.3125 C20.59368573 167.07289524 20.18647418 165.97334874 18.15234375 162.6953125 C17.53206299 161.70805176 16.91178223 160.72079102 16.27270508 159.70361328 C15.6052124 158.6257959 14.93771973 157.54797852 14.25 156.4375 C12.81703469 154.16541385 11.38227768 151.89454955 9.9453125 149.625 C9.57225479 149.03421661 9.19919708 148.44343323 8.81483459 147.83474731 C4.87056747 141.59441663 0.86650691 135.3945691 -3.19650269 129.230896 C-3.97837221 128.0410743 -4.75619248 126.84858124 -5.52981567 125.65338135 C-6.61787601 123.97329122 -7.72077638 122.30284037 -8.82421875 120.6328125 C-9.45030029 119.67648926 -10.07638184 118.72016602 -10.72143555 117.73486328 C-13.44504744 114.37913533 -16.03415563 112.55015628 -20.36423206 111.92773914 C-21.33303649 111.92313018 -22.30184092 111.91852121 -23.30000305 111.91377258 C-24.97631554 111.89496536 -24.97631554 111.89496536 -26.68649292 111.8757782 C-27.90281403 111.87721329 -29.11913513 111.87864838 -30.37231445 111.88012695 C-32.30461662 111.86483948 -32.30461662 111.86483948 -34.2759552 111.84924316 C-37.80036264 111.82169444 -41.32460874 111.81239162 -44.84910989 111.80638909 C-48.53539168 111.79699982 -52.22155322 111.77079601 -55.90776062 111.74638367 C-62.88451579 111.70273012 -69.8612476 111.67417617 -76.83809775 111.65106028 C-84.78250903 111.62400244 -92.72679927 111.58009132 -100.6711241 111.53477156 C-117.00985469 111.4419417 -133.34860697 111.37025343 -149.6875 111.3125 C-149.37468648 109.86633625 -149.05954184 108.42067659 -148.7434082 106.97523499 C-148.56816116 106.17013017 -148.39291412 105.36502535 -148.21235657 104.53552341 C-147.63997424 102.11120523 -146.87744977 99.90086716 -145.875 97.62109375 C-145.52695313 96.82952881 -145.17890625 96.03796387 -144.8203125 95.22241211 C-144.44648438 94.40651611 -144.07265625 93.59062012 -143.6875 92.75 C-143.29304687 91.8844751 -142.89859375 91.0189502 -142.4921875 90.12719727 C-136.51184539 77.32846589 -129.0147579 65.92969782 -119.6875 55.3125 C-118.98109375 54.48492187 -118.2746875 53.65734375 -117.546875 52.8046875 C-87.92989417 18.81973467 -45.00500439 -0.25159748 0 0 Z " fill="#FF28FF" transform="translate(156.6875,-0.3125)"/>
<path d="M0 0 C15.2521875 -0.0928125 15.2521875 -0.0928125 30.8125 -0.1875 C34.00139893 -0.21481201 37.19029785 -0.24212402 40.47583008 -0.27026367 C43.03205996 -0.27903385 45.58829407 -0.28667653 48.14453125 -0.29296875 C49.44853882 -0.30831665 50.75254639 -0.32366455 52.09606934 -0.33947754 C65.64567715 -0.34332213 77.88802918 2.51036775 88.10546875 11.80078125 C96.53609232 21.58725768 97.7159996 32.58244193 97.17919922 44.91015625 C96.38901044 54.12543681 91.49872768 61.90663471 84.7890625 68.01171875 C80.88066017 71.21245355 78.09132348 73.29312029 73 74 C75.76618533 78.98169487 78.74577421 83.70011474 82 88.375 C82.46768799 89.05256348 82.93537598 89.73012695 83.41723633 90.42822266 C86.04423767 94.22350372 88.70306584 97.99457617 91.38671875 101.75 C91.93779297 102.5229541 92.48886719 103.2959082 93.05664062 104.09228516 C94.13033458 105.59513523 95.20835615 107.0949044 96.29101562 108.59130859 C96.77634766 109.27016113 97.26167969 109.94901367 97.76171875 110.6484375 C98.410802 111.54828369 98.410802 111.54828369 99.07299805 112.46630859 C100 114 100 114 100 116 C95.60429206 116.0872253 91.20880729 116.14046869 86.8125 116.1875 C84.94368164 116.22520508 84.94368164 116.22520508 83.03710938 116.26367188 C81.83505859 116.27333984 80.63300781 116.28300781 79.39453125 116.29296875 C78.28956299 116.3086792 77.18459473 116.32438965 76.04614258 116.34057617 C71.72516916 115.85746662 69.23170648 114.27192269 66.23535156 111.17773438 C62.96909624 106.90940072 60.12507943 102.59108777 57.484375 97.90625 C51.69580487 86.68709676 51.69580487 86.68709676 42.40820312 78.8046875 C36.53722101 77.51813189 32.19582074 78.27107991 26 79 C26 91.21 26 103.42 26 116 C17.42 116 8.84 116 0 116 C0 77.72 0 39.44 0 0 Z M26 24 C26 34.56 26 45.12 26 56 C30.599375 56.061875 35.19875 56.12375 39.9375 56.1875 C42.08560181 56.22846802 42.08560181 56.22846802 44.27709961 56.27026367 C52.87660353 56.32604618 60.26421412 56.19098377 67 50.4375 C71.0858632 45.45785423 70.58667299 40.23340057 70 34 C67.85012772 29.46138075 65.52096988 27.14746069 61 25 C57.29200856 23.76665293 53.71185261 23.88642683 49.828125 23.90234375 C48.5793457 23.90484131 47.33056641 23.90733887 46.04394531 23.90991211 C43.67094238 23.92356812 43.67094238 23.92356812 41.25 23.9375 C36.2175 23.958125 31.185 23.97875 26 24 Z " fill="#13222D" transform="translate(703,109)"/>
<path d="M0 0 C11.05460732 11.67820056 17.12752164 26.67776591 17.72265625 42.7265625 C17.20919656 61.18878711 9.46937844 75.80698821 -3.71484375 88.4140625 C-15.78631815 98.68326389 -30.26602679 102.99927041 -45.9296875 102.7265625 C-62.2903477 101.3758372 -75.10639607 94.98149094 -86.71484375 83.4140625 C-87.27945313 82.87265625 -87.8440625 82.33125 -88.42578125 81.7734375 C-98.73878082 70.96934272 -103.24677629 55.14610134 -103.13696289 40.55834961 C-102.52135557 23.60593685 -95.2658939 9.41839971 -83.20019531 -2.22851562 C-59.3743508 -24.00229858 -22.95933195 -21.75860619 0 0 Z M-70.71484375 21.4140625 C-76.80417136 29.59034277 -78.47625359 38.74264308 -77.25 48.75 C-75.59376301 56.99491699 -71.15735923 65.1980521 -64.28125 70.17578125 C-55.09640059 75.81224901 -46.44170867 78.58359866 -35.58984375 76.7890625 C-25.94714816 74.46993318 -17.66815859 68.70965925 -12.36328125 60.26171875 C-7.79092897 51.42951308 -7.37532235 41.18407606 -9.29296875 31.4921875 C-12.35642379 22.74741583 -18.82902077 15.56576692 -27.02734375 11.3515625 C-43.0129958 4.1181193 -59.31194188 8.65269218 -70.71484375 21.4140625 Z " fill="#13222D" transform="translate(670.71484375,124.5859375)"/>
<path d="M0 0 C69.25143954 0 69.25143954 0 82.1875 12.03515625 C90.69926148 20.90679 93.37513109 30.91535158 93.2109375 43 C92.39128331 54.65730407 88.19115444 63.17489351 79.875 71.25 C68.14588417 81.12922172 53.53663195 82.34748137 38.8125 82.125 C34.914375 82.08375 31.01625 82.0425 27 82 C27 93.22 27 104.44 27 116 C18.09 116 9.18 116 0 116 C0 77.72 0 39.44 0 0 Z M27 24 C27 35.22 27 46.44 27 58 C44.90458895 59.26624118 44.90458895 59.26624118 61.0625 53.1875 C64.89091754 49.38655914 65.87711298 46.52379901 66.3125 41.125 C66.148627 35.69670697 64.55447844 31.51357111 60.625 27.6875 C55.96772189 24.6935355 52.36051256 23.75014273 46.82421875 23.8046875 C45.78096436 23.80968262 44.73770996 23.81467773 43.6628418 23.81982422 C41.69504761 23.84713623 41.69504761 23.84713623 39.6875 23.875 C35.500625 23.91625 31.31375 23.9575 27 24 Z " fill="#14222C" transform="translate(468,109)"/>
<path d="M0 0 C0.81017578 0.63615234 0.81017578 0.63615234 1.63671875 1.28515625 C0.11725923 4.54330079 -1.73784186 7.40630396 -3.80078125 10.34765625 C-4.69603516 11.63349609 -4.69603516 11.63349609 -5.609375 12.9453125 C-9.38548416 17.98292806 -9.38548416 17.98292806 -13.15625 19.1484375 C-17.12673727 19.3177031 -19.16903259 18.30096111 -22.67578125 16.47265625 C-30.58805905 12.59743837 -39.45767317 9.30047361 -48.34765625 11.85546875 C-51.80370605 13.21218251 -53.27104551 14.14680264 -55.36328125 17.28515625 C-55.94710085 20.20008175 -55.94710085 20.20008175 -55.36328125 23.28515625 C-51.20087875 28.87617994 -45.95285522 30.005858 -39.42578125 31.78515625 C-37.35094349 32.38588698 -35.27672116 32.98874744 -33.203125 33.59375 C-32.20007324 33.88233887 -31.19702148 34.17092773 -30.16357422 34.46826172 C-16.06618639 38.58071679 -3.90381373 43.31219778 3.51171875 56.66015625 C6.45656317 65.6886613 5.987135 77.68664726 1.82421875 86.21484375 C1.43234375 86.89804688 1.04046875 87.58125 0.63671875 88.28515625 C0.28609375 88.92710937 -0.06453125 89.5690625 -0.42578125 90.23046875 C-5.70344008 98.69671313 -15.10222695 102.64879773 -24.36328125 105.28515625 C-44.4622181 109.42559208 -64.11797058 104.02983976 -80.98828125 92.93359375 C-83.15304368 91.43107772 -85.26943986 89.88461842 -87.36328125 88.28515625 C-85.69060065 84.30166256 -83.00583269 81.23667588 -80.17578125 78.03515625 C-79.71880859 77.48085937 -79.26183594 76.9265625 -78.79101562 76.35546875 C-76.29061963 73.53948879 -74.72735522 72.35012426 -70.9921875 71.68359375 C-66.56855064 72.41689846 -63.36910615 73.99567932 -59.48828125 76.16015625 C-53.87932157 79.11596041 -48.77454964 81.72385843 -42.36328125 82.28515625 C-41.61820313 82.35347656 -40.873125 82.42179687 -40.10546875 82.4921875 C-34.77510525 82.73611939 -30.02096956 82.00123211 -25.36328125 79.28515625 C-22.61535717 76.28742089 -22.37223427 74.79547855 -22.30078125 70.72265625 C-23.68549645 66.2426953 -25.34979956 65.58199662 -29.36328125 63.28515625 C-32.61862653 62.04704602 -32.61862653 62.04704602 -36.08984375 61.13671875 C-37.38281311 60.76692922 -38.67578184 60.39713748 -39.96875 60.02734375 C-41.96834775 59.46938441 -43.9690169 58.91547186 -45.97021484 58.36328125 C-58.96840907 54.74998328 -71.48772755 50.80831123 -79.671875 39.47265625 C-84.24578561 31.36939592 -83.54386486 20.08477326 -81.73828125 11.21484375 C-78.43741565 1.81327119 -71.90154985 -4.3565148 -63.17578125 -8.71484375 C-43.00509398 -18.32205092 -17.53444326 -12.72333982 0 0 Z " fill="#13222D" transform="translate(995.36328125,120.71484375)"/>
<path d="M0 0 C0.81017578 0.63615234 0.81017578 0.63615234 1.63671875 1.28515625 C0.11725923 4.54330079 -1.73784186 7.40630396 -3.80078125 10.34765625 C-4.69603516 11.63349609 -4.69603516 11.63349609 -5.609375 12.9453125 C-9.38548416 17.98292806 -9.38548416 17.98292806 -13.15625 19.1484375 C-17.12673727 19.3177031 -19.16903259 18.30096111 -22.67578125 16.47265625 C-30.58805905 12.59743837 -39.45767317 9.30047361 -48.34765625 11.85546875 C-51.80370605 13.21218251 -53.27104551 14.14680264 -55.36328125 17.28515625 C-55.94710085 20.20008175 -55.94710085 20.20008175 -55.36328125 23.28515625 C-51.77618173 27.66120727 -48.60838252 29.23214152 -43.2265625 30.78515625 C-42.54708054 30.98818359 -41.86759857 31.19121094 -41.16752625 31.40039062 C-39.00775689 32.04390193 -36.84267832 32.66611189 -34.67578125 33.28515625 C-5.50055044 41.72359155 -5.50055044 41.72359155 1.51171875 53.91015625 C5.8152012 62.03262312 6.02667328 72.43072818 3.91796875 81.3125 C2.9801119 83.76681088 1.92668837 85.99800617 0.63671875 88.28515625 C0.28609375 88.92839844 -0.06453125 89.57164062 -0.42578125 90.234375 C-5.71195617 98.69592583 -15.09958769 102.6480464 -24.36328125 105.28515625 C-44.4622181 109.42559208 -64.11797058 104.02983976 -80.98828125 92.93359375 C-83.15304368 91.43107772 -85.26943986 89.88461842 -87.36328125 88.28515625 C-85.69060065 84.30166256 -83.00583269 81.23667588 -80.17578125 78.03515625 C-79.71880859 77.48085937 -79.26183594 76.9265625 -78.79101562 76.35546875 C-76.29061963 73.53948879 -74.72735522 72.35012426 -70.9921875 71.68359375 C-66.56855064 72.41689846 -63.36910615 73.99567932 -59.48828125 76.16015625 C-53.87932157 79.11596041 -48.77454964 81.72385843 -42.36328125 82.28515625 C-41.61820312 82.35347656 -40.873125 82.42179687 -40.10546875 82.4921875 C-34.77510525 82.73611939 -30.02096956 82.00123211 -25.36328125 79.28515625 C-22.61535717 76.28742089 -22.37223427 74.79547855 -22.30078125 70.72265625 C-23.68549645 66.2426953 -25.34979956 65.58199662 -29.36328125 63.28515625 C-32.61862653 62.04704602 -32.61862653 62.04704602 -36.08984375 61.13671875 C-37.38281311 60.76692922 -38.67578184 60.39713748 -39.96875 60.02734375 C-41.96834775 59.46938441 -43.9690169 58.91547186 -45.97021484 58.36328125 C-58.96840907 54.74998328 -71.48772755 50.80831123 -79.671875 39.47265625 C-84.24578561 31.36939592 -83.54386486 20.08477326 -81.73828125 11.21484375 C-78.43741565 1.81327119 -71.90154985 -4.3565148 -63.17578125 -8.71484375 C-43.00509398 -18.32205092 -17.53444326 -12.72333982 0 0 Z " fill="#13222D" transform="translate(445.36328125,120.71484375)"/>
<path d="M0 0 C31.68 0 63.36 0 96 0 C96 6.27 96 12.54 96 19 C92 23 92 23 89 24 C79.76 24 70.52 24 61 24 C61 54.36 61 84.72 61 116 C52.42 116 43.84 116 35 116 C35 85.64 35 55.28 35 24 C23.45 24 11.9 24 0 24 C0 16.08 0 8.16 0 0 Z " fill="#14232C" transform="translate(809,109)"/>
</svg>
