<?xml version="1.0" encoding="UTF-8"?>
<!DOCTYPE svg PUBLIC "-//W3C//DTD SVG 1.1//EN" "http://www.w3.org/Graphics/SVG/1.1/DTD/svg11.dtd">
<svg xmlns="http://www.w3.org/2000/svg" version="1.1" width="1001px" height="272px" style="shape-rendering:geometricPrecision; text-rendering:geometricPrecision; image-rendering:optimizeQuality; fill-rule:evenodd; clip-rule:evenodd" xmlns:xlink="http://www.w3.org/1999/xlink">
<g><path style="opacity:0.98" fill="#2f6ac2" d="M 850.5,-0.5 C 859.167,-0.5 867.833,-0.5 876.5,-0.5C 947.512,11.1782 988.845,52.5116 1000.5,123.5C 1000.5,131.5 1000.5,139.5 1000.5,147.5C 992.225,206.615 959.892,246.115 903.5,266C 894.807,268.387 886.14,270.22 877.5,271.5C 868.167,271.5 858.833,271.5 849.5,271.5C 793.472,262.985 754.972,232.318 734,179.5C 717.097,119.221 732.263,68.7213 779.5,28C 800.717,12.3184 824.384,2.81836 850.5,-0.5 Z M 837.5,44.5 C 881.87,46.5592 919.703,63.2259 951,94.5C 953.976,99.2356 955.476,104.402 955.5,110C 948.551,153.568 928.551,189.902 895.5,219C 886.611,227.687 876.945,228.687 866.5,222C 845.532,183.18 814.865,154.847 774.5,137C 769.138,131.386 767.638,124.886 770,117.5C 784.808,85.8661 807.308,61.5327 837.5,44.5 Z"/></g>
<g><path style="opacity:0.953" fill="#2f6ac1" d="M 607.5,40.5 C 622.697,39.4304 631.364,46.4304 633.5,61.5C 631.499,73.501 624.499,80.501 612.5,82.5C 594.19,78.8831 588.024,68.2164 594,50.5C 597.531,45.795 602.031,42.4617 607.5,40.5 Z"/></g>
<g><path style="opacity:0.896" fill="#2e6ac2" d="M -0.5,101.5 C -0.5,99.1667 -0.5,96.8333 -0.5,94.5C 0.28913,94.2172 0.955796,93.7172 1.5,93C 6.83333,92.6667 12.1667,92.3333 17.5,92C 16.348,81.9105 16.1814,71.7438 17,61.5C 18.7475,58.1656 21.5808,56.4989 25.5,56.5C 27.0293,56.5288 28.196,57.1955 29,58.5C 29.4999,69.8284 29.6665,81.1618 29.5,92.5C 39.5056,92.3335 49.5056,92.5002 59.5,93C 60.3081,93.3076 60.9747,93.8076 61.5,94.5C 74,125.5 86.5,156.5 99,187.5C 111,156.833 123,126.167 135,95.5C 138.731,91.9502 142.731,91.6169 147,94.5C 133.484,131.026 119.151,167.36 104,203.5C 102.169,207.679 99.3358,208.846 95.5,207C 80.7985,172.767 66.7985,138.267 53.5,103.5C 45.5,103.5 37.5,103.5 29.5,103.5C 29.0334,131.884 29.5334,160.217 31,188.5C 34.0556,194.953 39.2223,198.286 46.5,198.5C 51.788,197.689 56.788,196.022 61.5,193.5C 67.4341,195.82 68.4341,199.32 64.5,204C 52.1114,211.324 39.778,211.324 27.5,204C 22.6834,199.849 19.5167,194.682 18,188.5C 16.5602,160.2 16.0602,131.866 16.5,103.5C 10.6415,103.949 4.97482,103.283 -0.5,101.5 Z"/></g>
<g><path style="opacity:0.955" fill="#2e6ac1" d="M 674.5,57.5 C 678.911,57.021 683.078,57.6876 687,59.5C 687.862,61.087 688.529,62.7536 689,64.5C 689.5,102.165 689.667,139.832 689.5,177.5C 692.038,177.493 694.538,177.159 697,176.5C 699.406,176.703 701.406,177.703 703,179.5C 705.201,187.033 706.201,194.7 706,202.5C 701.811,206.011 696.978,208.178 691.5,209C 678.271,211.634 667.105,208.134 658,198.5C 655.34,194.186 653.673,189.519 653,184.5C 652.333,145.167 652.333,105.833 653,66.5C 654.251,63.6193 656.417,61.786 659.5,61C 664.679,60.0341 669.679,58.8675 674.5,57.5 Z"/></g>
<g><path style="opacity:0.974" fill="#2f6ac2" d="M 169.5,64.5 C 190.836,64.3334 212.169,64.5 233.5,65C 257.269,70.4261 268.435,85.2594 267,109.5C 264.927,118.643 260.094,125.977 252.5,131.5C 275.313,144.774 281.146,163.441 270,187.5C 259.474,200.692 245.64,207.192 228.5,207C 210.167,207.667 191.833,207.667 173.5,207C 170.542,206.771 168.042,205.604 166,203.5C 164.344,158.917 164.011,114.25 165,69.5C 166.025,67.313 167.525,65.6464 169.5,64.5 Z M 201.5,91.5 C 208.508,91.3337 215.508,91.5004 222.5,92C 231.423,97.0913 234.256,104.591 231,114.5C 228.571,119.266 224.737,122.1 219.5,123C 213.509,123.499 207.509,123.666 201.5,123.5C 201.5,112.833 201.5,102.167 201.5,91.5 Z M 201.5,146.5 C 210.9,146.114 220.234,146.614 229.5,148C 239.574,154.463 241.741,162.963 236,173.5C 232.162,177.783 227.329,179.95 221.5,180C 214.842,180.5 208.175,180.666 201.5,180.5C 201.5,169.167 201.5,157.833 201.5,146.5 Z"/></g>
<g><path style="opacity:0.952" fill="#2f6ac2" d="M 341.5,90.5 C 350,89.934 358.333,90.7674 366.5,93C 370.01,94.9066 371.176,97.7399 370,101.5C 368.333,107.5 366.667,113.5 365,119.5C 363.865,121.803 362.032,123.136 359.5,123.5C 350.465,119.041 341.798,119.541 333.5,125C 332.333,126.833 331.167,128.667 330,130.5C 328.707,153.783 328.041,177.117 328,200.5C 326.772,204.704 323.939,206.87 319.5,207C 311.778,207.812 304.111,207.478 296.5,206C 293.732,204.238 292.232,201.738 292,198.5C 291.021,164.773 291.354,131.106 293,97.5C 293.833,95.3333 295.333,93.8333 297.5,93C 303.833,92.3333 310.167,92.3333 316.5,93C 320.683,95.1728 322.849,98.6728 323,103.5C 328.261,97.7171 334.428,93.3838 341.5,90.5 Z"/></g>
<g><path style="opacity:0.966" fill="#2f6ac2" d="M 410.5,90.5 C 430.536,87.1258 447.702,92.4592 462,106.5C 467.184,114.385 470.184,123.051 471,132.5C 471.667,154.833 471.667,177.167 471,199.5C 468.571,205.759 463.904,208.426 457,207.5C 448.603,208.326 443.936,204.659 443,196.5C 424.262,212.018 404.428,213.518 383.5,201C 371.863,190.169 368.029,177.002 372,161.5C 377.419,146.086 388.252,137.252 404.5,135C 415.484,133.581 426.151,134.747 436.5,138.5C 438.299,129.596 435.299,122.762 427.5,118C 422.589,116.508 417.589,116.174 412.5,117C 405.42,118.789 398.586,121.289 392,124.5C 386.255,122.06 382.589,117.726 381,111.5C 380.21,108.366 380.543,105.366 382,102.5C 390.897,96.8198 400.397,92.8198 410.5,90.5 Z M 414.5,156.5 C 422.407,155.87 430.074,156.87 437.5,159.5C 441.031,178.803 433.031,187.303 413.5,185C 407.763,182.214 404.763,177.547 404.5,171C 404.806,163.834 408.14,159 414.5,156.5 Z"/></g>
<g><path style="opacity:0.962" fill="#2f6ac2" d="M 522.5,90.5 C 538.93,88.4859 554.264,91.6525 568.5,100C 571.04,102.205 573.207,104.705 575,107.5C 575.758,111.329 574.758,114.662 572,117.5C 569.354,121.008 566.188,123.842 562.5,126C 556.263,125.885 550.929,123.551 546.5,119C 541.697,116.8 536.697,116.133 531.5,117C 523.927,121.187 523.594,125.854 530.5,131C 542.039,134.845 553.039,139.845 563.5,146C 574.588,154.925 578.754,166.425 576,180.5C 571.984,195.847 562.151,205.014 546.5,208C 523.321,212.272 503.488,206.105 487,189.5C 485.452,186.949 485.452,184.282 487,181.5C 489.333,178.5 491.667,175.5 494,172.5C 496.14,170.513 498.64,169.18 501.5,168.5C 509.337,172.919 517.337,177.086 525.5,181C 530.417,182.841 535.084,182.508 539.5,180C 543.787,174.744 543.12,170.077 537.5,166C 525.883,161.575 514.55,156.575 503.5,151C 492.708,142.294 488.875,131.127 492,117.5C 496.741,102.254 506.907,93.2536 522.5,90.5 Z"/></g>
<g><path style="opacity:0.954" fill="#2f6ac2" d="M 599.5,92.5 C 607.84,92.3336 616.173,92.5003 624.5,93C 627,94.1667 628.833,96 630,98.5C 630.667,132.5 630.667,166.5 630,200.5C 628.371,204.232 625.538,206.399 621.5,207C 613.778,207.812 606.111,207.478 598.5,206C 596.19,204.363 594.69,202.196 594,199.5C 593.333,166.167 593.333,132.833 594,99.5C 594.938,96.4025 596.772,94.0691 599.5,92.5 Z"/></g>
</svg>
