<?xml version="1.0" encoding="UTF-8"?>
<!DOCTYPE svg PUBLIC "-//W3C//DTD SVG 1.1//EN" "http://www.w3.org/Graphics/SVG/1.1/DTD/svg11.dtd">
<svg xmlns="http://www.w3.org/2000/svg" version="1.1" width="403px" height="350px" style="shape-rendering:geometricPrecision; text-rendering:geometricPrecision; image-rendering:optimizeQuality; fill-rule:evenodd; clip-rule:evenodd" xmlns:xlink="http://www.w3.org/1999/xlink">
<g><path style="opacity:0.982" fill="#26b959" d="M 151.5,-0.5 C 184.833,-0.5 218.167,-0.5 251.5,-0.5C 251.5,33.5 251.5,67.5 251.5,101.5C 218.167,101.5 184.833,101.5 151.5,101.5C 151.5,67.5 151.5,33.5 151.5,-0.5 Z"/></g>
<g><path style="opacity:0.974" fill="#27b958" d="M 44.5,110.5 C 81.5015,110.333 118.502,110.5 155.5,111C 177.777,115.277 191.611,128.444 197,150.5C 198.448,187.472 198.948,224.472 198.5,261.5C 181.5,261.5 164.5,261.5 147.5,261.5C 147.5,228.167 147.5,194.833 147.5,161.5C 113.162,161.533 78.8288,161.199 44.5,160.5C 44.5,143.833 44.5,127.167 44.5,110.5 Z"/></g>
<g><path style="opacity:0.982" fill="#27b958" d="M 247.5,110.5 C 284.5,110.5 321.5,110.5 358.5,110.5C 358.5,127.167 358.5,143.833 358.5,160.5C 324.171,161.199 289.838,161.533 255.5,161.5C 255.5,194.833 255.5,228.167 255.5,261.5C 238.833,261.5 222.167,261.5 205.5,261.5C 205.805,228.819 205.471,196.152 204.5,163.5C 205.382,134.642 219.716,116.975 247.5,110.5 Z"/></g>
<g><path style="opacity:0.923" fill="#38409e" d="M 37.5,349.5 C 33.1667,349.5 28.8333,349.5 24.5,349.5C 18.594,347.907 13.2607,345.074 8.5,341C 4.37379,336.4 1.37379,331.234 -0.5,325.5C -0.5,320.167 -0.5,314.833 -0.5,309.5C 6.40063,291.159 19.734,283.326 39.5,286C 45.5526,287.526 50.886,290.359 55.5,294.5C 56.5827,295.365 56.7494,296.365 56,297.5C 53.6203,300.924 50.787,303.924 47.5,306.5C 39.5625,298.121 30.5625,296.621 20.5,302C 10.8868,312.654 11.2202,322.988 21.5,333C 31.7025,337.693 40.5358,335.86 48,327.5C 50.6667,330.167 53.3333,332.833 56,335.5C 56.6302,337.903 55.7969,339.737 53.5,341C 48.5067,344.661 43.1734,347.494 37.5,349.5 Z"/></g>
<g><path style="opacity:0.93" fill="#38409e" d="M 402.5,345.5 C 402.5,346.5 402.5,347.5 402.5,348.5C 397.456,348.827 392.456,348.494 387.5,347.5C 385.833,343.5 384.167,339.5 382.5,335.5C 373.859,334.502 365.192,334.169 356.5,334.5C 355.432,339.033 353.766,343.366 351.5,347.5C 346.88,348.493 342.214,348.827 337.5,348.5C 345.488,327.518 354.322,306.851 364,286.5C 368,285.167 372,285.167 376,286.5C 384.759,306.31 393.593,325.977 402.5,345.5 Z M 369.5,305.5 C 372.058,310.289 374.392,315.289 376.5,320.5C 371.869,321.662 367.202,321.828 362.5,321C 365.32,316.036 367.653,310.869 369.5,305.5 Z"/></g>
<g><path style="opacity:0.925" fill="#39409d" d="M 96.5,349.5 C 92.1667,349.5 87.8333,349.5 83.5,349.5C 73.7938,347.634 67.2938,341.967 64,332.5C 62.601,317.21 62.101,301.877 62.5,286.5C 67.5,286.5 72.5,286.5 77.5,286.5C 77.3334,300.504 77.5001,314.504 78,328.5C 82.7592,336.195 89.2592,338.028 97.5,334C 99.8936,332.048 101.394,329.548 102,326.5C 102.5,313.171 102.667,299.837 102.5,286.5C 107.167,286.5 111.833,286.5 116.5,286.5C 116.935,301.891 116.435,317.225 115,332.5C 111.819,341.518 105.652,347.185 96.5,349.5 Z"/></g>
<g><path style="opacity:0.933" fill="#393f9e" d="M 127.5,286.5 C 132.167,286.5 136.833,286.5 141.5,286.5C 141.5,302.833 141.5,319.167 141.5,335.5C 151.833,335.5 162.167,335.5 172.5,335.5C 172.5,339.833 172.5,344.167 172.5,348.5C 157.5,348.5 142.5,348.5 127.5,348.5C 127.5,327.833 127.5,307.167 127.5,286.5 Z"/></g>
<g><path style="opacity:0.954" fill="#383f9d" d="M 160.5,286.5 C 177.833,286.5 195.167,286.5 212.5,286.5C 212.5,290.833 212.5,295.167 212.5,299.5C 206.167,299.5 199.833,299.5 193.5,299.5C 193.5,315.833 193.5,332.167 193.5,348.5C 188.5,348.5 183.5,348.5 178.5,348.5C 178.175,332.256 178.509,316.089 179.5,300C 173.175,299.5 166.842,299.334 160.5,299.5C 160.5,295.167 160.5,290.833 160.5,286.5 Z"/></g>
<g><path style="opacity:0.924" fill="#383f9d" d="M 251.5,349.5 C 247.167,349.5 242.833,349.5 238.5,349.5C 229.356,347.194 223.19,341.528 220,332.5C 218.565,317.225 218.065,301.891 218.5,286.5C 223.167,286.5 227.833,286.5 232.5,286.5C 232.089,300.884 232.589,315.217 234,329.5C 239.162,336.415 245.662,337.915 253.5,334C 255.049,332.786 256.215,331.286 257,329.5C 258.411,315.217 258.911,300.884 258.5,286.5C 263.167,286.5 267.833,286.5 272.5,286.5C 272.918,301.883 272.418,317.216 271,332.5C 267.706,341.967 261.206,347.634 251.5,349.5 Z"/></g>
<g><path style="opacity:0.929" fill="#38409e" d="M 280.5,287.5 C 291.993,286.341 303.659,286.174 315.5,287C 329.772,290.933 335.272,300.1 332,314.5C 329.629,319.704 325.796,323.371 320.5,325.5C 325.447,333.113 330.78,340.447 336.5,347.5C 330.863,348.663 325.196,348.83 319.5,348C 314.833,341.667 310.167,335.333 305.5,329C 302.183,328.502 298.85,328.335 295.5,328.5C 295.5,335.167 295.5,341.833 295.5,348.5C 290.833,348.5 286.167,348.5 281.5,348.5C 281.83,327.993 281.497,307.66 280.5,287.5 Z M 295.5,299.5 C 301.176,299.334 306.843,299.501 312.5,300C 318.115,302.066 319.781,305.9 317.5,311.5C 316.5,312.333 315.5,313.167 314.5,314C 308.258,315.37 301.925,315.87 295.5,315.5C 295.5,310.167 295.5,304.833 295.5,299.5 Z"/></g>
</svg>
