<?xml version="1.0" encoding="UTF-8"?>
<!DOCTYPE svg PUBLIC "-//W3C//DTD SVG 1.1//EN" "http://www.w3.org/Graphics/SVG/1.1/DTD/svg11.dtd">
<svg xmlns="http://www.w3.org/2000/svg" version="1.1" width="943px" height="350px" style="shape-rendering:geometricPrecision; text-rendering:geometricPrecision; image-rendering:optimizeQuality; fill-rule:evenodd; clip-rule:evenodd" xmlns:xlink="http://www.w3.org/1999/xlink">
<g><path style="opacity:0.967" fill="#e8a01d" d="M 809.5,-0.5 C 838.167,-0.5 866.833,-0.5 895.5,-0.5C 910.909,112.895 926.576,225.895 942.5,338.5C 942.5,342.167 942.5,345.833 942.5,349.5C 942.167,349.5 941.833,349.5 941.5,349.5C 898.635,236.073 855.468,122.74 812,9.5C 810.648,6.27993 809.814,2.9466 809.5,-0.5 Z"/></g>
<g><path style="opacity:0.97" fill="#e9a01d" d="M -0.5,23.5 C 65.8342,23.3333 132.168,23.5 198.5,24C 205.752,26.2623 211.585,30.429 216,36.5C 222.074,48.8889 226.241,61.8889 228.5,75.5C 185.496,75.5981 142.496,76.0981 99.5,77C 78.6508,80.5369 64.4841,92.0369 57,111.5C 55.5511,130.445 55.0511,149.445 55.5,168.5C 54.5,168.5 53.5,168.5 52.5,168.5C 35.8056,121.077 18.139,74.0771 -0.5,27.5C -0.5,26.1667 -0.5,24.8333 -0.5,23.5 Z"/></g>
<g><path style="opacity:0.919" fill="#e99f1c" d="M 110.5,118.5 C 155.501,118.333 200.501,118.5 245.5,119C 247.799,124.729 249.799,130.562 251.5,136.5C 212.832,136.333 174.165,136.5 135.5,137C 134.667,137.833 133.833,138.667 133,139.5C 132.333,155.167 132.333,170.833 133,186.5C 133.5,187 134,187.5 134.5,188C 161.08,189.316 187.747,189.983 214.5,190C 216.226,196.128 215.559,201.961 212.5,207.5C 211.335,208.584 210.002,209.417 208.5,210C 176.167,210.667 143.833,210.667 111.5,210C 107.333,208.5 104.5,205.667 103,201.5C 102.333,177.167 102.333,152.833 103,128.5C 104.213,124.131 106.713,120.797 110.5,118.5 Z"/></g>
<g><path style="opacity:0.932" fill="#7b7b7b" d="M 661.5,120.5 C 699.168,120.333 736.835,120.5 774.5,121C 775,121.5 775.5,122 776,122.5C 776.8,130.216 776.633,137.883 775.5,145.5C 761.516,146.499 747.516,146.833 733.5,146.5C 733.5,182.167 733.5,217.833 733.5,253.5C 722.5,253.5 711.5,253.5 700.5,253.5C 700.5,217.833 700.5,182.167 700.5,146.5C 687.167,146.5 673.833,146.5 660.5,146.5C 660.197,137.749 660.53,129.082 661.5,120.5 Z"/></g>
<g><path style="opacity:0.947" fill="#7a7a7a" d="M 800.5,120.5 C 814.745,120.176 828.912,120.51 843,121.5C 859.807,165.425 876.307,209.425 892.5,253.5C 881.162,253.667 869.828,253.5 858.5,253C 855.799,245.066 852.799,237.233 849.5,229.5C 830.845,228.5 812.179,228.167 793.5,228.5C 791.438,236.686 788.771,244.686 785.5,252.5C 773.167,253.833 760.833,253.833 748.5,252.5C 765.88,208.425 783.213,164.425 800.5,120.5 Z M 820.5,155.5 C 826.324,170.786 832.658,185.953 839.5,201C 827.5,201.667 815.5,201.667 803.5,201C 809.66,186.019 815.327,170.853 820.5,155.5 Z"/></g>
<g><path style="opacity:0.949" fill="#7a7a7a" d="M 322.5,121.5 C 337.079,121.176 351.579,121.51 366,122.5C 378.857,156.067 391.523,189.733 404,223.5C 406.592,224.982 408.925,224.648 411,222.5C 433.464,197.034 456.297,171.868 479.5,147C 457.486,146.79 435.486,146.29 413.5,145.5C 411.9,145.551 410.4,145.884 409,146.5C 407.533,138.337 407.033,130.004 407.5,121.5C 446.835,121.333 486.168,121.5 525.5,122C 526.647,129.754 526.814,137.587 526,145.5C 499.552,172.283 473.385,199.45 447.5,227C 473.498,227.5 499.498,227.667 525.5,227.5C 525.5,236.167 525.5,244.833 525.5,253.5C 477.832,253.667 430.166,253.5 382.5,253C 379.333,244.998 376.666,236.831 374.5,228.5C 355.155,228.167 335.822,228.5 316.5,229.5C 314.531,237.407 311.865,245.407 308.5,253.5C 306.854,252.221 305.687,250.555 305,248.5C 299.634,235.401 294.468,222.235 289.5,209C 300.106,179.633 311.106,150.466 322.5,121.5 Z M 343.5,155.5 C 349.324,170.786 355.658,185.953 362.5,201C 350.5,201.667 338.5,201.667 326.5,201C 332.316,185.871 337.983,170.705 343.5,155.5 Z"/></g>
<g><path style="opacity:0.944" fill="#7a7a7a" d="M 539.5,121.5 C 576.833,121.5 614.167,121.5 651.5,121.5C 651.5,130.167 651.5,138.833 651.5,147.5C 624.5,147.5 597.5,147.5 570.5,147.5C 570.5,156.5 570.5,165.5 570.5,174.5C 593.167,174.5 615.833,174.5 638.5,174.5C 638.5,182.5 638.5,190.5 638.5,198.5C 615.833,198.5 593.167,198.5 570.5,198.5C 570.5,208.167 570.5,217.833 570.5,227.5C 597.167,227.5 623.833,227.5 650.5,227.5C 650.5,235.833 650.5,244.167 650.5,252.5C 613.5,252.5 576.5,252.5 539.5,252.5C 539.5,208.833 539.5,165.167 539.5,121.5 Z"/></g>
<g><path style="opacity:0.964" fill="#e9a01d" d="M 264.5,176.5 C 265.5,176.5 266.5,176.5 267.5,176.5C 282.593,219.357 298.259,262.023 314.5,304.5C 249.169,305.667 183.836,305.833 118.5,305C 110.749,302.206 104.583,297.372 100,290.5C 92.0229,277.882 86.8562,264.215 84.5,249.5C 87.5622,250.692 90.5622,252.192 93.5,254C 135.5,254.667 177.5,254.667 219.5,254C 236.737,250.429 248.904,240.596 256,224.5C 263.07,209.284 265.904,193.284 264.5,176.5 Z"/></g>
</svg>
