<?xml version="1.0" encoding="UTF-8" standalone="no"?>
<!-- Created with Inkscape (http://www.inkscape.org/) -->

<svg
   xmlns:dc="http://purl.org/dc/elements/1.1/"
   xmlns:cc="http://creativecommons.org/ns#"
   xmlns:rdf="http://www.w3.org/1999/02/22-rdf-syntax-ns#"
   xmlns:svg="http://www.w3.org/2000/svg"
   xmlns="http://www.w3.org/2000/svg"
   version="1.1"
   width="390.54825"
   height="144.68846"
   id="svg2">
  <defs
     id="defs4">
 <style
   type="text/css"
   id="style2989" />

  </defs>
  <metadata
     id="metadata7">
    <rdf:RDF>
      <cc:Work
         rdf:about="">
        <dc:format>image/svg+xml</dc:format>
        <dc:type
           rdf:resource="http://purl.org/dc/dcmitype/StillImage" />
        <dc:title></dc:title>
      </cc:Work>
    </rdf:RDF>
  </metadata>
  <g
     transform="translate(-164.72587,-440.01795)"
     id="layer1">
    <g
       transform="matrix(3.543307,0,0,3.543307,0.93437897,4.3233564)"
       id="g3016"
       style="fill-rule:evenodd">
      <g
         id="Camada_x0020_1">
  <metadata
   id="CorelCorpID_0Corel-Layer" />

  <path
   d="m 68.4948,125.818 -22.2692,0 6.4271,16.9223 0.0057,-5.3204 c -0.0225,-4.009 4.4117,-5.8426 6.6586,-5.5928 l 13.5434,-0.0737 c -0.1753,-0.982 -0.7399,-3.0527 -0.9689,-3.5829 -0.6496,-1.5039 -1.883,-2.4615 -3.3967,-2.3525 m 69.5192,26.734 -4.1011,0 5.9091,-15.3017 4.8948,0 5.8428,15.3017 -3.8584,0 -1.0584,-2.9545 -6.6587,0 -0.9701,2.9545 z m 18.4326,11.2448 -15.5223,-40.8341 9.966,0 5.5563,40.8341 z m -80.8563,-24.9318 -0.6879,-1.8785 -15.3921,0 c -0.8311,0.0187 -1.0958,0.7937 -1.0915,1.184 l 9e-4,8.2651 c -0.0027,0.5979 0.6015,1.0608 1.1367,1.0549 l 10.7951,0 c 0.5753,-0.0197 0.884,-0.3196 0.9261,-0.8996 l 0,-1.3759 -8.8272,0 c -0.4393,0.005 -0.8032,-0.3339 -0.8037,-0.8466 l 0,-4.3921 c -0.0668,-0.814 0.3389,-1.1844 1.2171,-1.1113 l 12.7265,0 z m 1.7743,4.775 5.5487,15.0061 -22.4306,-0.0126 c -0.5936,0.012 -1.7854,-0.6649 -2.6987,-2.1352 -0.608,-0.9788 -1.3798,-2.9751 -1.5147,-4.2817 0.088,0.1329 0.7294,0.6371 1.3789,0.6481 l 13.3947,1e-4 c 1.4979,0.0495 3.1949,-0.6958 4.4201,-2.2902 1.2524,-1.63 2.0158,-4.1409 1.9016,-6.9346 z m 67.1666,3.0421 -2.2755,-5.6886 -2.196,5.6886 4.4715,0 z m -7.6729,-9.4196 -13.3085,0 0,2.7517 4.7625,0 0,12.5148 3.6049,0 -0.007,-12.5545 4.9476,0 0,-2.712 z m -14.5443,2.864 1e-4,-2.8575 -12.8589,0 10e-5,15.2133 12.8053,-0.004 -0.0259,-2.8004 -9.3134,0 0,-3.6249 7.8582,0 0,-2.5664 -7.9111,0 0,-3.3603 9.4456,0 z m -28.2188,9.1947 8.5593,-9.3399 -8.7048,-0.0264 10e-5,-2.6324 13.7054,0.013 0,2.5664 -9.2604,9.7368 9.2077,-0.003 -2e-4,2.8868 -16.563,0 -0.979,-2.9368 -6.7932,0 -1.012,2.9633 -2.0455,-5.127 3.7655,-10.0872 5.0267,-0.001 4.4849,11.9876 0.6085,0 z m -5.3384,-2.6391 -2.2755,-5.6886 -2.196,5.6886 4.4715,0 z"
   id="path2993"
   style="fill:none" />

  <path
   d="m 68.4948,125.818 -22.2692,0 6.4271,16.9223 0.0057,-5.3204 c -0.0225,-4.009 4.4117,-5.8426 6.6586,-5.5928 l 13.5434,-0.0737 c -0.1753,-0.982 -0.7399,-3.0527 -0.9689,-3.5829 -0.6496,-1.5039 -1.883,-2.4615 -3.3967,-2.3525 z"
   id="path2995"
   style="fill:#e9a01d" />

  <path
   d="m 71.0429,152.865 -13.3947,-1e-4 c -0.6495,-0.011 -1.2909,-0.5152 -1.3789,-0.6481 0.1349,1.3066 0.9067,3.3029 1.5147,4.2817 0.9133,1.4703 2.1051,2.1472 2.6987,2.1352 l 22.4306,0.0126 -5.5487,-15.0061 c 0.1142,2.7937 -0.6492,5.3046 -1.9016,6.9346 -1.2252,1.5944 -2.9222,2.3397 -4.4201,2.2902 z"
   id="path2997"
   style="fill:#e9a01d" />

  <path
   d="m 59.5564,147.491 10.7951,0 c 0.5753,-0.0197 0.884,-0.3196 0.9261,-0.8996 l 0,-1.3759 -8.8272,0 c -0.4393,0.005 -0.8032,-0.3339 -0.8037,-0.8466 l 0,-4.3921 c -0.0668,-0.814 0.3389,-1.1844 1.2171,-1.1113 l 12.7265,0 -0.6879,-1.8785 -15.3921,0 c -0.8311,0.0187 -1.0958,0.7937 -1.0915,1.184 l 9e-4,8.2651 c -0.0027,0.5979 0.6015,1.0608 1.1367,1.0549 z"
   id="path2999"
   style="fill:#e9a01d" />

  <polygon
   points="140.924,122.963 156.447,163.797 150.89,122.963 "
   id="polygon3001"
   style="fill:#e9a01d" />

  <path
   d="m 93.4867,149.321 -4.4849,-11.9876 -5.0267,10e-4 -3.7655,10.0872 2.0455,5.127 1.012,-2.9633 6.7932,0 0.979,2.9368 16.563,0 2e-4,-2.8868 -9.2077,0.003 9.2604,-9.7368 0,-2.5664 -13.7054,-0.013 -10e-5,2.6324 8.7048,0.0264 -8.5593,9.3399 -0.6085,0 z m -7.0054,-8.3277 2.2755,5.6886 -4.4715,0 2.196,-5.6886 z"
   id="path3003"
   style="fill:#7b7b7b" />

  <polygon
   points="112.868,140.127 122.314,140.127 122.314,137.269 109.455,137.269 109.455,152.482 122.261,152.479 122.235,149.678 112.921,149.678 112.921,146.053 120.78,146.053 120.78,143.487 112.868,143.487 "
   id="polygon3005"
   style="fill:#7b7b7b" />

  <polygon
   points="128.312,152.529 131.917,152.529 131.911,139.975 136.858,139.975 136.858,137.263 123.55,137.263 123.55,140.014 128.312,140.014 "
   id="polygon3007"
   style="fill:#7b7b7b" />

  <path
   d="m 139.822,137.25 -5.9091,15.3017 4.1011,0 0.9701,-2.9545 6.6587,0 1.0584,2.9545 3.8584,0 -5.8428,-15.3017 -4.8948,0 z m 4.7092,9.4318 -4.4715,0 2.196,-5.6886 2.2755,5.6886 z"
   id="path3009"
   style="fill:#7b7b7b" />

 </g>
    </g>
  </g>
</svg>
