<?xml version="1.0" encoding="UTF-8"?>
<!DOCTYPE svg PUBLIC "-//W3C//DTD SVG 1.1//EN" "http://www.w3.org/Graphics/SVG/1.1/DTD/svg11.dtd">
<svg xmlns="http://www.w3.org/2000/svg" version="1.1" width="350px" height="350px" style="shape-rendering:geometricPrecision; text-rendering:geometricPrecision; image-rendering:optimizeQuality; fill-rule:evenodd; clip-rule:evenodd" xmlns:xlink="http://www.w3.org/1999/xlink">
<g><path style="opacity:0.939" fill="#496aa3" d="M 172.5,-0.5 C 173.833,-0.5 175.167,-0.5 176.5,-0.5C 181.72,1.96954 187.053,4.30287 192.5,6.5C 191.273,8.58052 189.773,10.5805 188,12.5C 187.186,14.9018 187.353,17.2351 188.5,19.5C 190.413,20.373 192.247,21.373 194,22.5C 194.667,26.1667 194.667,29.8333 194,33.5C 190.193,35.2867 186.359,37.12 182.5,39C 181.202,43.1179 181.202,47.2846 182.5,51.5C 186.669,53.4594 191.002,54.9594 195.5,56C 199.638,58.6768 201.305,62.5101 200.5,67.5C 197.552,67.2229 194.719,67.5562 192,68.5C 190.847,72.7872 190.013,77.1205 189.5,81.5C 188.833,82.5 188.167,83.5 187.5,84.5C 186.786,78.9061 185.453,73.5728 183.5,68.5C 180.302,67.3 176.969,67.3 173.5,68.5C 167.248,67.3765 160.915,67.2098 154.5,68C 153.944,68.3826 153.611,68.8826 153.5,69.5C 152.833,69.1667 152.167,68.8333 151.5,68.5C 149.052,67.5269 146.385,67.1936 143.5,67.5C 142.273,65.0972 141.273,62.5972 140.5,60C 131.051,57.8854 124.718,52.3854 121.5,43.5C 121.709,42.0055 122.376,40.8388 123.5,40C 121.567,39.7489 119.734,39.2489 118,38.5C 117.749,36.567 117.249,34.7337 116.5,33C 118.965,30.4692 121.965,28.9692 125.5,28.5C 128.2,26.4565 128.033,24.7899 125,23.5C 122.4,25.312 119.567,26.6453 116.5,27.5C 114.358,26.5629 114.024,25.2296 115.5,23.5C 134.758,15.8661 153.758,7.86609 172.5,-0.5 Z"/></g>
<g><path style="opacity:0.957" fill="#4f789f" d="M 192.5,6.5 C 197.847,8.50898 203.181,10.509 208.5,12.5C 208.991,16.3166 210.658,19.4833 213.5,22C 212.859,26.452 212.192,30.952 211.5,35.5C 210.289,36.8745 209.289,38.3745 208.5,40C 210.924,45.3476 212.924,50.8476 214.5,56.5C 216.465,57.2922 218.465,57.9588 220.5,58.5C 222.412,60.9909 223.746,63.6575 224.5,66.5C 224.328,67.4916 224.662,68.1583 225.5,68.5C 225.805,73.7616 225.471,78.9283 224.5,84C 225.167,84.6667 225.833,85.3333 226.5,86C 224.946,88.2235 223.946,90.7235 223.5,93.5C 223.686,95.8152 224.02,98.1485 224.5,100.5C 229.724,97.1908 233.724,98.3575 236.5,104C 235.978,104.561 235.645,105.228 235.5,106C 236.66,108.162 237.826,110.329 239,112.5C 240.152,108.674 242.319,107.841 245.5,110C 244.185,111.395 244.519,112.395 246.5,113C 245.167,113.333 243.833,113.667 242.5,114C 246.821,114.499 251.154,114.666 255.5,114.5C 255.833,114.5 256.167,114.5 256.5,114.5C 256.5,114.833 256.5,115.167 256.5,115.5C 251.087,115.229 245.754,115.729 240.5,117C 236.923,120.671 234.256,124.838 232.5,129.5C 231.596,130.209 231.263,131.209 231.5,132.5C 230.167,132.5 228.833,132.5 227.5,132.5C 227.672,131.508 227.338,130.842 226.5,130.5C 226.788,127.134 226.954,123.8 227,120.5C 223.878,117.094 221.378,113.26 219.5,109C 221.103,106.32 221.937,103.487 222,100.5C 217.503,97.2506 212.837,94.2506 208,91.5C 206.832,87.4943 205.665,83.4943 204.5,79.5C 204.709,78.914 205.043,78.414 205.5,78C 204.1,76.5619 202.433,75.7286 200.5,75.5C 200.663,77.8568 200.497,80.1902 200,82.5C 198.274,87.1653 196.774,91.832 195.5,96.5C 197.324,86.8671 198.991,77.2005 200.5,67.5C 201.305,62.5101 199.638,58.6768 195.5,56C 191.002,54.9594 186.669,53.4594 182.5,51.5C 181.202,47.2846 181.202,43.1179 182.5,39C 186.359,37.12 190.193,35.2867 194,33.5C 194.667,29.8333 194.667,26.1667 194,22.5C 192.247,21.373 190.413,20.373 188.5,19.5C 187.353,17.2351 187.186,14.9018 188,12.5C 189.773,10.5805 191.273,8.58052 192.5,6.5 Z"/></g>
<g><path style="opacity:0.939" fill="#548693" d="M 234.5,23.5 C 237.84,25.1003 241.84,26.767 246.5,28.5C 246.335,31.5036 247.668,33.5036 250.5,34.5C 251.531,39.1115 252.198,43.7781 252.5,48.5C 251.595,52.4543 250.595,56.4543 249.5,60.5C 250.836,67.944 252.336,75.2774 254,82.5C 257.649,88.3062 261.815,93.6395 266.5,98.5C 267.028,99.8474 267.195,101.181 267,102.5C 264.322,107.337 260.822,111.337 256.5,114.5C 256.167,114.5 255.833,114.5 255.5,114.5C 254.492,112.661 252.992,111.328 251,110.5C 250.754,107.11 250.254,103.777 249.5,100.5C 249.833,99.8333 250.167,99.1667 250.5,98.5C 246.233,97.7011 242.066,97.3678 238,97.5C 236.996,94.0074 237.496,90.8408 239.5,88C 236.581,83.246 232.581,79.746 227.5,77.5C 226.911,74.3596 226.244,71.3596 225.5,68.5C 224.662,68.1583 224.328,67.4916 224.5,66.5C 223.959,57.2047 224.126,47.8714 225,38.5C 226.154,37.2567 227.488,36.2567 229,35.5C 230.749,31.3988 232.583,27.3988 234.5,23.5 Z"/></g>
<g><path style="opacity:0.962" fill="#507e9a" d="M 208.5,12.5 C 216.919,16.7086 225.586,20.3752 234.5,23.5C 232.583,27.3988 230.749,31.3988 229,35.5C 227.488,36.2567 226.154,37.2567 225,38.5C 224.126,47.8714 223.959,57.2047 224.5,66.5C 223.746,63.6575 222.412,60.9909 220.5,58.5C 218.465,57.9588 216.465,57.2922 214.5,56.5C 212.924,50.8476 210.924,45.3476 208.5,40C 209.289,38.3745 210.289,36.8745 211.5,35.5C 212.192,30.952 212.859,26.452 213.5,22C 210.658,19.4833 208.991,16.3166 208.5,12.5 Z"/></g>
<g><path style="opacity:0.916" fill="#5d9385" d="M 246.5,28.5 C 258.029,33.6438 269.696,38.6438 281.5,43.5C 279.626,47.2349 277.126,50.5683 274,53.5C 273.53,54.5768 273.697,55.5768 274.5,56.5C 274.752,69.2685 275.919,81.9351 278,94.5C 281.005,96.0015 284.171,97.0015 287.5,97.5C 287.002,102.152 286.669,106.819 286.5,111.5C 285.5,111.5 284.5,111.5 283.5,111.5C 283.737,112.791 283.404,113.791 282.5,114.5C 282.719,113.325 282.386,112.325 281.5,111.5C 277.792,109.084 274.126,106.584 270.5,104C 269.251,102.02 267.918,100.187 266.5,98.5C 261.815,93.6395 257.649,88.3062 254,82.5C 252.336,75.2774 250.836,67.944 249.5,60.5C 250.595,56.4543 251.595,52.4543 252.5,48.5C 252.198,43.7781 251.531,39.1115 250.5,34.5C 247.668,33.5036 246.335,31.5036 246.5,28.5 Z"/></g>
<g><path style="opacity:0.998" fill="#471b76" d="M 47.5,57.5 C 48.2163,60.5982 49.2163,63.5982 50.5,66.5C 53.6948,73.4179 56.6948,80.4179 59.5,87.5C 62.9851,96.4664 66.9851,105.133 71.5,113.5C 74.3869,121.048 77.7203,128.382 81.5,135.5C 82.2271,137.954 83.2271,140.287 84.5,142.5C 91.011,157.262 97.3443,171.929 103.5,186.5C 108.123,196.075 112.456,205.742 116.5,215.5C 117.918,218.573 119.251,221.74 120.5,225C 119.607,227.936 118.607,230.769 117.5,233.5C 115.383,236.949 112.383,239.282 108.5,240.5C 103.489,240.666 98.4889,240.499 93.5,240C 91.3716,239.345 89.3716,238.511 87.5,237.5C 87.1667,237.5 86.8333,237.5 86.5,237.5C 85.5,235.5 84.5,233.5 83.5,231.5C 81.2935,223.836 77.9601,216.836 73.5,210.5C 72.6071,206.148 70.9404,202.148 68.5,198.5C 68.6716,197.508 68.3382,196.842 67.5,196.5C 59.3518,176.875 50.6851,157.542 41.5,138.5C 36.9851,128.805 32.4851,119.139 28,109.5C 27.3292,108.748 26.4959,108.414 25.5,108.5C 22.4962,98.1976 18.3296,88.8643 13,80.5C 10.6029,74.4804 8.10293,68.4804 5.5,62.5C 4.51298,59.2317 4.17964,55.8984 4.5,52.5C 7.23695,51.969 9.90362,51.1356 12.5,50C 21.1667,49.3333 29.8333,49.3333 38.5,50C 42.3003,51.6416 45.3003,54.1416 47.5,57.5 Z"/></g>
<g><path style="opacity:0.938" fill="#72679e" d="M 61.5,46.5 C 63.0428,47.7358 64.0428,49.4024 64.5,51.5C 69.4671,52.329 74.4671,52.829 79.5,53C 81.9422,54.11 84.1089,55.61 86,57.5C 85.6357,61.7118 84.469,65.7118 82.5,69.5C 78.4793,70.5051 74.4793,70.5051 70.5,69.5C 65.3756,60.7747 59.5422,60.4414 53,68.5C 52.5831,67.244 51.7498,66.5774 50.5,66.5C 49.2163,63.5982 48.2163,60.5982 47.5,57.5C 49.4977,50.6796 54.1644,47.0129 61.5,46.5 Z"/></g>
<g><path style="opacity:0.984" fill="#596ba2" d="M 115.5,23.5 C 114.024,25.2296 114.358,26.5629 116.5,27.5C 119.567,26.6453 122.4,25.312 125,23.5C 128.033,24.7899 128.2,26.4565 125.5,28.5C 121.965,28.9692 118.965,30.4692 116.5,33C 117.249,34.7337 117.749,36.567 118,38.5C 119.734,39.2489 121.567,39.7489 123.5,40C 122.376,40.8388 121.709,42.0055 121.5,43.5C 124.718,52.3854 131.051,57.8854 140.5,60C 141.273,62.5972 142.273,65.0972 143.5,67.5C 142.883,67.6107 142.383,67.944 142,68.5C 140.028,77.2302 143.194,79.8969 151.5,76.5C 151.5,73.8333 151.5,71.1667 151.5,68.5C 152.167,68.8333 152.833,69.1667 153.5,69.5C 153.5,79.1667 153.5,88.8333 153.5,98.5C 156.448,98.7771 159.281,98.4438 162,97.5C 162.5,90.5079 162.666,83.5079 162.5,76.5C 166.371,76.815 170.038,76.4816 173.5,75.5C 174.29,74.3915 174.79,73.0581 175,71.5C 175.496,76.1335 176.663,80.4668 178.5,84.5C 180.018,88.5659 180.851,92.8993 181,97.5C 184.057,98.4505 187.223,98.7839 190.5,98.5C 190.5,97.5 190.5,96.5 190.5,95.5C 190.435,95.0618 190.601,94.7284 191,94.5C 191.232,95.7375 191.732,96.7375 192.5,97.5C 192.842,98.3382 193.508,98.6716 194.5,98.5C 196.378,99.874 197.378,101.874 197.5,104.5C 196.374,107.371 195.207,110.038 194,112.5C 198.934,113.144 203.767,113.81 208.5,114.5C 199.161,114.334 189.827,114.5 180.5,115C 179.473,115.513 178.473,116.013 177.5,116.5C 176.5,116.5 175.5,116.5 174.5,116.5C 174.051,109.72 170.384,106.387 163.5,106.5C 160.151,107.008 156.818,107.175 153.5,107C 148.463,103.488 143.463,99.9878 138.5,96.5C 137.086,94.8615 137.42,93.5282 139.5,92.5C 138.863,88.3004 138.196,84.1337 137.5,80C 131.8,77.1672 125.8,75.0006 119.5,73.5C 117.117,71.2401 114.451,69.2401 111.5,67.5C 108.565,63.2866 105.399,59.2866 102,55.5C 98.6863,57.3067 95.1863,57.8067 91.5,57C 90.0437,54.7342 89.2104,52.2342 89,49.5C 88.2904,50.9733 87.1238,51.6399 85.5,51.5C 85.5,50.1667 85.5,48.8333 85.5,47.5C 86.5,47.5 87.5,47.5 88.5,47.5C 88.6567,46.1266 88.49,44.7932 88,43.5C 85.8356,41.5203 84.3356,39.187 83.5,36.5C 94.7532,31.8368 105.42,27.5034 115.5,23.5 Z"/></g>
<g><path style="opacity:0.981" fill="#656a9f" d="M 83.5,36.5 C 84.3356,39.187 85.8356,41.5203 88,43.5C 88.49,44.7932 88.6567,46.1266 88.5,47.5C 87.5,47.5 86.5,47.5 85.5,47.5C 85.5,48.8333 85.5,50.1667 85.5,51.5C 87.1238,51.6399 88.2904,50.9733 89,49.5C 89.2104,52.2342 90.0437,54.7342 91.5,57C 95.1863,57.8067 98.6863,57.3067 102,55.5C 105.399,59.2866 108.565,63.2866 111.5,67.5C 114.451,69.2401 117.117,71.2401 119.5,73.5C 125.8,75.0006 131.8,77.1672 137.5,80C 138.196,84.1337 138.863,88.3004 139.5,92.5C 137.42,93.5282 137.086,94.8615 138.5,96.5C 134.229,94.7029 129.896,92.8696 125.5,91C 121.989,88.153 118.489,85.3196 115,82.5C 111.869,84.8161 108.369,86.1494 104.5,86.5C 101.805,85.5366 99.4719,84.0366 97.5,82C 95.1667,81.6667 92.8333,81.3333 90.5,81C 87.2234,77.5625 84.5567,73.7292 82.5,69.5C 84.469,65.7118 85.6357,61.7118 86,57.5C 84.1089,55.61 81.9422,54.11 79.5,53C 74.4671,52.829 69.4671,52.329 64.5,51.5C 64.0428,49.4024 63.0428,47.7358 61.5,46.5C 68.627,42.8725 75.9604,39.5392 83.5,36.5 Z"/></g>
<g><path style="opacity:0.899" fill="#62987b" d="M 274.5,56.5 C 275.309,58.2922 275.809,60.2922 276,62.5C 276.853,64.1247 277.853,64.4581 279,63.5C 279.605,65.4812 280.605,65.8146 282,64.5C 283.987,65.218 285.821,66.218 287.5,67.5C 289.177,71.6447 291.011,75.6447 293,79.5C 294.304,84.2588 294.804,88.9254 294.5,93.5C 299.622,98.6092 304.288,103.943 308.5,109.5C 311.498,112.667 314.331,116 317,119.5C 317.667,121.167 317.667,122.833 317,124.5C 315.278,127.279 314.111,130.279 313.5,133.5C 306.77,132.769 299.77,132.436 292.5,132.5C 289.947,131.195 287.28,130.195 284.5,129.5C 283.167,128.833 282.167,127.833 281.5,126.5C 281.183,122.298 281.517,118.298 282.5,114.5C 283.404,113.791 283.737,112.791 283.5,111.5C 284.5,111.5 285.5,111.5 286.5,111.5C 286.669,106.819 287.002,102.152 287.5,97.5C 284.171,97.0015 281.005,96.0015 278,94.5C 275.919,81.9351 274.752,69.2685 274.5,56.5 Z"/></g>
<g><path style="opacity:0.914" fill="#649d74" d="M 281.5,43.5 C 287.327,45.7231 293.161,48.0565 299,50.5C 304.924,65.3382 311.09,80.0049 317.5,94.5C 316.504,94.4142 315.671,94.7476 315,95.5C 312.964,100.326 310.797,104.993 308.5,109.5C 304.288,103.943 299.622,98.6092 294.5,93.5C 294.804,88.9254 294.304,84.2588 293,79.5C 291.011,75.6447 289.177,71.6447 287.5,67.5C 285.821,66.218 283.987,65.218 282,64.5C 280.605,65.8146 279.605,65.4812 279,63.5C 277.853,64.4581 276.853,64.1247 276,62.5C 275.809,60.2922 275.309,58.2922 274.5,56.5C 273.697,55.5768 273.53,54.5768 274,53.5C 277.126,50.5683 279.626,47.2349 281.5,43.5 Z"/></g>
<g><path style="opacity:0.999" fill="#f3f4f8" d="M 173.5,68.5 C 173.5,70.8333 173.5,73.1667 173.5,75.5C 170.038,76.4816 166.371,76.815 162.5,76.5C 162.666,83.5079 162.5,90.5079 162,97.5C 159.281,98.4438 156.448,98.7771 153.5,98.5C 153.5,88.8333 153.5,79.1667 153.5,69.5C 153.611,68.8826 153.944,68.3826 154.5,68C 160.915,67.2098 167.248,67.3765 173.5,68.5 Z"/></g>
<g><path style="opacity:0.999" fill="#f4f5f9" d="M 183.5,68.5 C 185.453,73.5728 186.786,78.9061 187.5,84.5C 188.368,88.3143 189.368,91.981 190.5,95.5C 190.5,96.5 190.5,97.5 190.5,98.5C 187.223,98.7839 184.057,98.4505 181,97.5C 180.851,92.8993 180.018,88.5659 178.5,84.5C 177.203,79.2634 176.536,73.9301 176.5,68.5C 178.833,68.5 181.167,68.5 183.5,68.5 Z"/></g>
<g><path style="opacity:1" fill="#f2f4f8" d="M 200.5,67.5 C 198.991,77.2005 197.324,86.8671 195.5,96.5C 195.167,97.1667 194.833,97.8333 194.5,98.5C 193.508,98.6716 192.842,98.3382 192.5,97.5C 191.297,92.2922 190.297,86.9589 189.5,81.5C 190.013,77.1205 190.847,72.7872 192,68.5C 194.719,67.5562 197.552,67.2229 200.5,67.5 Z"/></g>
<g><path style="opacity:0.998" fill="#f9fafb" d="M 151.5,68.5 C 151.5,71.1667 151.5,73.8333 151.5,76.5C 148.833,76.5 146.167,76.5 143.5,76.5C 143.5,73.8333 143.5,71.1667 143.5,68.5C 146.167,68.5 148.833,68.5 151.5,68.5 Z"/></g>
<g><path style="opacity:0.952" fill="#826298" d="M 82.5,69.5 C 84.5567,73.7292 87.2234,77.5625 90.5,81C 92.8333,81.3333 95.1667,81.6667 97.5,82C 99.4719,84.0366 101.805,85.5366 104.5,86.5C 105.252,89.7473 105.752,93.0806 106,96.5C 107.825,99.3111 109.158,102.311 110,105.5C 111.302,106.085 112.469,106.751 113.5,107.5C 112.022,107.238 110.689,107.571 109.5,108.5C 106.356,113.478 102.356,117.645 97.5,121C 93.5138,121.499 89.5138,121.666 85.5,121.5C 85.5,120.833 85.1667,120.5 84.5,120.5C 83.3052,118.249 82.3052,115.915 81.5,113.5C 80.5828,105.162 79.5828,96.8285 78.5,88.5C 75.3458,85.8412 71.8458,83.8412 68,82.5C 66.634,82.7065 65.3006,83.0398 64,83.5C 62.6494,85.0182 61.1494,86.3515 59.5,87.5C 56.6948,80.4179 53.6948,73.4179 50.5,66.5C 51.7498,66.5774 52.5831,67.244 53,68.5C 59.5422,60.4414 65.3756,60.7747 70.5,69.5C 74.4793,70.5051 78.4793,70.5051 82.5,69.5 Z"/></g>
<g><path style="opacity:0.996" fill="#b7bfd7" d="M 143.5,67.5 C 146.385,67.1936 149.052,67.5269 151.5,68.5C 148.833,68.5 146.167,68.5 143.5,68.5C 143.5,71.1667 143.5,73.8333 143.5,76.5C 146.167,76.5 148.833,76.5 151.5,76.5C 143.194,79.8969 140.028,77.2302 142,68.5C 142.383,67.944 142.883,67.6107 143.5,67.5 Z"/></g>
<g><path style="opacity:0.98" fill="#92a4c7" d="M 183.5,68.5 C 181.167,68.5 178.833,68.5 176.5,68.5C 176.536,73.9301 177.203,79.2634 178.5,84.5C 176.663,80.4668 175.496,76.1335 175,71.5C 174.79,73.0581 174.29,74.3915 173.5,75.5C 173.5,73.1667 173.5,70.8333 173.5,68.5C 176.969,67.3 180.302,67.3 183.5,68.5 Z"/></g>
<g><path style="opacity:0.954" fill="#925992" d="M 81.5,113.5 C 78.1667,113.5 74.8333,113.5 71.5,113.5C 66.9851,105.133 62.9851,96.4664 59.5,87.5C 61.1494,86.3515 62.6494,85.0182 64,83.5C 65.3006,83.0398 66.634,82.7065 68,82.5C 71.8458,83.8412 75.3458,85.8412 78.5,88.5C 79.5828,96.8285 80.5828,105.162 81.5,113.5 Z"/></g>
<g><path style="opacity:0.978" fill="#92a7c4" d="M 189.5,81.5 C 190.297,86.9589 191.297,92.2922 192.5,97.5C 191.732,96.7375 191.232,95.7375 191,94.5C 190.601,94.7284 190.435,95.0618 190.5,95.5C 189.368,91.981 188.368,88.3143 187.5,84.5C 188.167,83.5 188.833,82.5 189.5,81.5 Z"/></g>
<g><path style="opacity:0.982" fill="#6f689e" d="M 138.5,96.5 C 143.463,99.9878 148.463,103.488 153.5,107C 156.818,107.175 160.151,107.008 163.5,106.5C 170.384,106.387 174.051,109.72 174.5,116.5C 175.5,116.5 176.5,116.5 177.5,116.5C 172.731,123.306 168.731,130.639 165.5,138.5C 162.246,140.207 160.246,139.207 159.5,135.5C 159.325,132.333 159.159,128.999 159,125.5C 156.19,122.049 154.024,118.216 152.5,114C 151.5,113.333 150.5,113.333 149.5,114C 146.31,116.095 142.977,117.928 139.5,119.5C 135.746,117.252 132.412,114.419 129.5,111C 124.019,110.336 118.686,109.169 113.5,107.5C 112.469,106.751 111.302,106.085 110,105.5C 109.158,102.311 107.825,99.3111 106,96.5C 105.752,93.0806 105.252,89.7473 104.5,86.5C 108.369,86.1494 111.869,84.8161 115,82.5C 118.489,85.3196 121.989,88.153 125.5,91C 129.896,92.8696 134.229,94.7029 138.5,96.5 Z"/></g>
<g><path style="opacity:0.936" fill="#5571a0" d="M 226.5,130.5 C 221.588,131.338 216.588,133.004 211.5,135.5C 211.167,135 210.833,134.5 210.5,134C 211.828,130.876 212.828,127.71 213.5,124.5C 215.943,118.902 214.276,115.569 208.5,114.5C 203.767,113.81 198.934,113.144 194,112.5C 195.207,110.038 196.374,107.371 197.5,104.5C 197.378,101.874 196.378,99.874 194.5,98.5C 194.833,97.8333 195.167,97.1667 195.5,96.5C 196.774,91.832 198.274,87.1653 200,82.5C 200.497,80.1902 200.663,77.8568 200.5,75.5C 202.433,75.7286 204.1,76.5619 205.5,78C 205.043,78.414 204.709,78.914 204.5,79.5C 205.665,83.4943 206.832,87.4943 208,91.5C 212.837,94.2506 217.503,97.2506 222,100.5C 221.937,103.487 221.103,106.32 219.5,109C 221.378,113.26 223.878,117.094 227,120.5C 226.954,123.8 226.788,127.134 226.5,130.5 Z"/></g>
<g><path style="opacity:0.896" fill="#527f9a" d="M 225.5,68.5 C 226.244,71.3596 226.911,74.3596 227.5,77.5C 232.581,79.746 236.581,83.246 239.5,88C 237.496,90.8408 236.996,94.0074 238,97.5C 242.066,97.3678 246.233,97.7011 250.5,98.5C 250.167,99.1667 249.833,99.8333 249.5,100.5C 250.254,103.777 250.754,107.11 251,110.5C 252.992,111.328 254.492,112.661 255.5,114.5C 251.154,114.666 246.821,114.499 242.5,114C 243.833,113.667 245.167,113.333 246.5,113C 244.519,112.395 244.185,111.395 245.5,110C 242.319,107.841 240.152,108.674 239,112.5C 237.826,110.329 236.66,108.162 235.5,106C 235.645,105.228 235.978,104.561 236.5,104C 233.724,98.3575 229.724,97.1908 224.5,100.5C 224.02,98.1485 223.686,95.8152 223.5,93.5C 223.946,90.7235 224.946,88.2235 226.5,86C 225.833,85.3333 225.167,84.6667 224.5,84C 225.471,78.9283 225.805,73.7616 225.5,68.5 Z"/></g>
<g><path style="opacity:0.875" fill="#5b8b8c" d="M 266.5,98.5 C 267.918,100.187 269.251,102.02 270.5,104C 274.126,106.584 277.792,109.084 281.5,111.5C 282.386,112.325 282.719,113.325 282.5,114.5C 281.517,118.298 281.183,122.298 281.5,126.5C 280.698,125.048 280.198,123.382 280,121.5C 278.604,119.473 276.938,119.14 275,120.5C 274.517,119.552 274.351,118.552 274.5,117.5C 271.801,117.534 269.301,116.867 267,115.5C 266.583,116.756 265.75,117.423 264.5,117.5C 262.118,115.954 259.451,115.287 256.5,115.5C 256.5,115.167 256.5,114.833 256.5,114.5C 260.822,111.337 264.322,107.337 267,102.5C 267.195,101.181 267.028,99.8474 266.5,98.5 Z"/></g>
<g><path style="opacity:0.982" fill="#945a91" d="M 113.5,107.5 C 118.686,109.169 124.019,110.336 129.5,111C 132.412,114.419 135.746,117.252 139.5,119.5C 139.279,126.563 141.945,132.396 147.5,137C 151.392,136.217 155.392,135.717 159.5,135.5C 160.246,139.207 162.246,140.207 165.5,138.5C 161.223,148.995 156.556,159.328 151.5,169.5C 148.325,169.16 146.159,167.493 145,164.5C 142.989,160.469 141.989,156.135 142,151.5C 136.585,148.9 132.418,145.067 129.5,140C 123.816,140.321 118.816,138.655 114.5,135C 111.774,134.818 109.107,134.318 106.5,133.5C 103.453,130.455 100.787,127.122 98.5,123.5C 94.0178,122.833 89.6845,122.166 85.5,121.5C 89.5138,121.666 93.5138,121.499 97.5,121C 102.356,117.645 106.356,113.478 109.5,108.5C 110.689,107.571 112.022,107.238 113.5,107.5 Z"/></g>
<g><path style="opacity:0.965" fill="#ac1876" d="M 71.5,113.5 C 74.8333,113.5 78.1667,113.5 81.5,113.5C 82.3052,115.915 83.3052,118.249 84.5,120.5C 83.942,125.709 82.942,130.709 81.5,135.5C 77.7203,128.382 74.3869,121.048 71.5,113.5 Z"/></g>
<g><path style="opacity:0.966" fill="#806499" d="M 159.5,135.5 C 155.392,135.717 151.392,136.217 147.5,137C 141.945,132.396 139.279,126.563 139.5,119.5C 142.977,117.928 146.31,116.095 149.5,114C 150.5,113.333 151.5,113.333 152.5,114C 154.024,118.216 156.19,122.049 159,125.5C 159.159,128.999 159.325,132.333 159.5,135.5 Z"/></g>
<g><path style="opacity:1" fill="#471b76" d="M 208.5,114.5 C 214.276,115.569 215.943,118.902 213.5,124.5C 209.266,132.519 205.599,140.853 202.5,149.5C 200.925,151.547 199.925,153.881 199.5,156.5C 196.656,161.667 193.99,167 191.5,172.5C 187.584,179.587 184.251,186.921 181.5,194.5C 178.057,200.4 175.39,206.733 173.5,213.5C 172.115,214.574 170.949,215.907 170,217.5C 169.667,217.167 169.333,216.833 169,216.5C 163.541,205.283 158.374,193.95 153.5,182.5C 152.788,179.53 151.788,176.697 150.5,174C 150.773,172.467 151.106,170.967 151.5,169.5C 156.556,159.328 161.223,148.995 165.5,138.5C 168.731,130.639 172.731,123.306 177.5,116.5C 178.473,116.013 179.473,115.513 180.5,115C 189.827,114.5 199.161,114.334 208.5,114.5 Z"/></g>
<g><path style="opacity:0.999" fill="#471b76" d="M 256.5,115.5 C 259.451,115.287 262.118,115.954 264.5,117.5C 265.23,118.712 266.23,119.712 267.5,120.5C 272.449,132.085 277.782,143.418 283.5,154.5C 286.796,162.747 290.463,170.747 294.5,178.5C 302.046,196.595 309.879,214.595 318,232.5C 319.391,235.336 321.224,237.669 323.5,239.5C 328.825,252.976 334.825,266.143 341.5,279C 341.167,279.333 340.833,279.667 340.5,280C 345.262,284.87 346.262,290.37 343.5,296.5C 341.205,297.432 338.871,298.265 336.5,299C 328.167,299.667 319.833,299.667 311.5,299C 307.33,296.985 303.996,294.151 301.5,290.5C 301.117,285.183 299.617,280.183 297,275.5C 287.241,255.577 278.241,235.244 270,214.5C 269.292,213.619 268.458,212.953 267.5,212.5C 267.313,207.461 265.48,203.128 262,199.5C 259.64,192.242 256.807,185.242 253.5,178.5C 247.338,165.235 241.171,151.902 235,138.5C 233.57,135.647 232.737,132.647 232.5,129.5C 234.256,124.838 236.923,120.671 240.5,117C 245.754,115.729 251.087,115.229 256.5,115.5 Z"/></g>
<g><path style="opacity:0.978" fill="#a34c86" d="M 84.5,120.5 C 85.1667,120.5 85.5,120.833 85.5,121.5C 89.6845,122.166 94.0178,122.833 98.5,123.5C 100.787,127.122 103.453,130.455 106.5,133.5C 109.107,134.318 111.774,134.818 114.5,135C 118.816,138.655 123.816,140.321 129.5,140C 132.418,145.067 136.585,148.9 142,151.5C 141.989,156.135 142.989,160.469 145,164.5C 146.159,167.493 148.325,169.16 151.5,169.5C 151.106,170.967 150.773,172.467 150.5,174C 151.788,176.697 152.788,179.53 153.5,182.5C 151.896,181.713 151.229,180.38 151.5,178.5C 150.5,178.5 149.5,178.5 148.5,178.5C 148.5,179.5 148.5,180.5 148.5,181.5C 144.123,171.915 139.623,162.248 135,152.5C 132.766,150.3 130.266,148.467 127.5,147C 120.842,146.5 114.175,146.334 107.5,146.5C 107.5,143.5 107.5,140.5 107.5,137.5C 99.723,138.989 92.0564,140.656 84.5,142.5C 83.2271,140.287 82.2271,137.954 81.5,135.5C 82.942,130.709 83.942,125.709 84.5,120.5 Z"/></g>
<g><path style="opacity:0.785" fill="#b1337a" d="M 25.5,108.5 C 26.4959,108.414 27.3292,108.748 28,109.5C 32.4851,119.139 36.9851,128.805 41.5,138.5C 40.0193,140.247 38.0193,141.414 35.5,142C 32.0662,142.558 28.7328,143.391 25.5,144.5C 20.4386,144.807 16.7719,142.807 14.5,138.5C 14.472,136.418 15.1387,134.584 16.5,133C 16.1667,132.667 15.8333,132.333 15.5,132C 16.8302,130.035 18.1635,128.035 19.5,126C 21.815,120.22 23.815,114.387 25.5,108.5 Z"/></g>
<g><path style="opacity:0.825" fill="#61858e" d="M 281.5,126.5 C 282.167,127.833 283.167,128.833 284.5,129.5C 284.345,137.822 284.012,146.155 283.5,154.5C 277.782,143.418 272.449,132.085 267.5,120.5C 266.23,119.712 265.23,118.712 264.5,117.5C 265.75,117.423 266.583,116.756 267,115.5C 269.301,116.867 271.801,117.534 274.5,117.5C 274.351,118.552 274.517,119.552 275,120.5C 276.938,119.14 278.604,119.473 280,121.5C 280.198,123.382 280.698,125.048 281.5,126.5 Z"/></g>
<g><path style="opacity:0.834" fill="#658b87" d="M 284.5,129.5 C 287.28,130.195 289.947,131.195 292.5,132.5C 292.918,133.222 293.584,133.722 294.5,134C 292.518,140.219 293.518,145.886 297.5,151C 295.474,153.884 294.141,157.051 293.5,160.5C 294.731,166.536 295.064,172.536 294.5,178.5C 290.463,170.747 286.796,162.747 283.5,154.5C 284.012,146.155 284.345,137.822 284.5,129.5 Z"/></g>
<g><path style="opacity:0.841" fill="#69947e" d="M 292.5,132.5 C 299.77,132.436 306.77,132.769 313.5,133.5C 320.017,138.364 321.683,144.531 318.5,152C 319.007,156.234 320.34,160.067 322.5,163.5C 324.258,167.376 323.592,170.71 320.5,173.5C 318.916,175.529 317.583,177.862 316.5,180.5C 315.695,183.304 315.028,186.138 314.5,189C 315.816,192.118 316.816,195.285 317.5,198.5C 317.597,200.945 316.93,203.111 315.5,205C 318.556,206.883 321.223,209.383 323.5,212.5C 321.811,218.059 321.311,223.726 322,229.5C 323.039,230.71 324.206,231.71 325.5,232.5C 324.833,234.833 324.167,237.167 323.5,239.5C 321.224,237.669 319.391,235.336 318,232.5C 309.879,214.595 302.046,196.595 294.5,178.5C 295.064,172.536 294.731,166.536 293.5,160.5C 294.141,157.051 295.474,153.884 297.5,151C 293.518,145.886 292.518,140.219 294.5,134C 293.584,133.722 292.918,133.222 292.5,132.5 Z"/></g>
<g><path style="opacity:0.844" fill="#699f6d" d="M 317.5,94.5 C 327.489,119.149 337.489,143.815 347.5,168.5C 346.778,168.918 346.278,169.584 346,170.5C 344.938,169.101 343.605,168.101 342,167.5C 336.193,168.432 330.36,168.432 324.5,167.5C 324.771,165.62 324.104,164.287 322.5,163.5C 320.34,160.067 319.007,156.234 318.5,152C 321.683,144.531 320.017,138.364 313.5,133.5C 314.111,130.279 315.278,127.279 317,124.5C 317.667,122.833 317.667,121.167 317,119.5C 314.331,116 311.498,112.667 308.5,109.5C 310.797,104.993 312.964,100.326 315,95.5C 315.671,94.7476 316.504,94.4142 317.5,94.5 Z"/></g>
<g><path style="opacity:0.849" fill="#b3437b" d="M 41.5,138.5 C 50.6851,157.542 59.3518,176.875 67.5,196.5C 65.8958,195.713 65.2291,194.38 65.5,192.5C 62.7237,192.911 62.057,192.078 63.5,190C 62.7152,186.971 61.5485,184.138 60,181.5C 58.6667,182.833 57.3333,182.833 56,181.5C 55.2652,179.129 54.4318,176.795 53.5,174.5C 48.1845,172.177 43.1845,169.344 38.5,166C 36.8659,165.506 35.1992,165.34 33.5,165.5C 31.611,158.161 28.9444,151.161 25.5,144.5C 28.7328,143.391 32.0662,142.558 35.5,142C 38.0193,141.414 40.0193,140.247 41.5,138.5 Z"/></g>
<g><path style="opacity:0.74" fill="#b9557c" d="M 14.5,138.5 C 16.7719,142.807 20.4386,144.807 25.5,144.5C 28.9444,151.161 31.611,158.161 33.5,165.5C 28.1717,166.679 22.8384,166.679 17.5,165.5C 16.7221,160.992 14.8887,156.992 12,153.5C 11.1562,150.394 11.6562,147.561 13.5,145C 13.4301,144.235 13.0967,143.735 12.5,143.5C 12.0773,141.219 12.744,139.552 14.5,138.5 Z"/></g>
<g><path style="opacity:1" fill="#471c76" d="M 248.5,178.5 C 249.473,180.068 249.64,181.735 249,183.5C 245.101,192.964 240.934,202.298 236.5,211.5C 233.8,217.256 231.3,223.256 229,229.5C 227.125,234.427 223.958,238.26 219.5,241C 213.175,241.5 206.842,241.666 200.5,241.5C 196.5,241.5 192.5,241.5 188.5,241.5C 184.944,239.913 183.778,237.246 185,233.5C 189.068,226.035 192.568,218.369 195.5,210.5C 198.299,204.119 201.299,197.786 204.5,191.5C 207.353,185.78 209.686,179.78 211.5,173.5C 217.038,163.757 222.038,153.757 226.5,143.5C 226.5,143.167 226.5,142.833 226.5,142.5C 227.237,140.695 228.237,139.029 229.5,137.5C 236.104,151.042 242.438,164.709 248.5,178.5 Z"/></g>
<g><path style="opacity:0.825" fill="#6b619a" d="M 213.5,124.5 C 212.828,127.71 211.828,130.876 210.5,134C 210.833,134.5 211.167,135 211.5,135.5C 216.588,133.004 221.588,131.338 226.5,130.5C 227.338,130.842 227.672,131.508 227.5,132.5C 227.353,135.443 226.687,138.276 225.5,141C 225.57,141.765 225.903,142.265 226.5,142.5C 226.5,142.833 226.5,143.167 226.5,143.5C 225.053,144.622 224.053,146.122 223.5,148C 218.603,150.07 213.436,151.237 208,151.5C 205.879,151.302 204.046,150.636 202.5,149.5C 205.599,140.853 209.266,132.519 213.5,124.5 Z"/></g>
<g><path style="opacity:0.799" fill="#5f6896" d="M 232.5,129.5 C 232.737,132.647 233.57,135.647 235,138.5C 241.171,151.902 247.338,165.235 253.5,178.5C 251.468,177.439 250.134,175.772 249.5,173.5C 248.548,175.045 248.215,176.712 248.5,178.5C 242.438,164.709 236.104,151.042 229.5,137.5C 228.237,139.029 227.237,140.695 226.5,142.5C 225.903,142.265 225.57,141.765 225.5,141C 226.687,138.276 227.353,135.443 227.5,132.5C 228.833,132.5 230.167,132.5 231.5,132.5C 231.263,131.209 231.596,130.209 232.5,129.5 Z"/></g>
<g><path style="opacity:1" fill="#481b76" d="M 107.5,146.5 C 114.175,146.334 120.842,146.5 127.5,147C 130.266,148.467 132.766,150.3 135,152.5C 139.623,162.248 144.123,171.915 148.5,181.5C 153.785,195.028 159.451,208.361 165.5,221.5C 166.038,223.117 166.371,224.784 166.5,226.5C 164.75,232.164 161.417,236.664 156.5,240C 150.175,240.5 143.842,240.666 137.5,240.5C 134.547,239.213 132.214,237.213 130.5,234.5C 127.281,227.526 124.281,220.526 121.5,213.5C 116.768,203.377 112.101,193.377 107.5,183.5C 103.139,173.304 98.8058,163.138 94.5,153C 94.2249,149.94 95.5583,147.94 98.5,147C 101.482,146.502 104.482,146.335 107.5,146.5 Z"/></g>
<g><path style="opacity:0.971" fill="#a93980" d="M 107.5,146.5 C 104.482,146.335 101.482,146.502 98.5,147C 95.5583,147.94 94.2249,149.94 94.5,153C 98.8058,163.138 103.139,173.304 107.5,183.5C 104.98,182.45 103.646,183.45 103.5,186.5C 97.3443,171.929 91.011,157.262 84.5,142.5C 92.0564,140.656 99.723,138.989 107.5,137.5C 107.5,140.5 107.5,143.5 107.5,146.5 Z"/></g>
<g><path style="opacity:0.853" fill="#7a5c92" d="M 226.5,143.5 C 222.038,153.757 217.038,163.757 211.5,173.5C 211.631,172.624 211.298,171.957 210.5,171.5C 207.833,170.877 205.333,169.877 203,168.5C 202.356,164.207 201.19,160.207 199.5,156.5C 199.925,153.881 200.925,151.547 202.5,149.5C 204.046,150.636 205.879,151.302 208,151.5C 213.436,151.237 218.603,150.07 223.5,148C 224.053,146.122 225.053,144.622 226.5,143.5 Z"/></g>
<g><path style="opacity:0.69" fill="#bf657a" d="M 12.5,143.5 C 13.0967,143.735 13.4301,144.235 13.5,145C 11.6562,147.561 11.1562,150.394 12,153.5C 14.8887,156.992 16.7221,160.992 17.5,165.5C 22.8384,166.679 28.1717,166.679 33.5,165.5C 34.4293,166.315 35.4293,167.148 36.5,168C 36.1667,168.333 35.8333,168.667 35.5,169C 36.9782,172.957 38.9782,176.623 41.5,180C 41.7863,182.744 41.453,185.577 40.5,188.5C 41.5,188.5 42.5,188.5 43.5,188.5C 42.7375,189.268 41.7375,189.768 40.5,190C 35.8452,190.499 31.1785,190.666 26.5,190.5C 25.8333,190.167 25.1667,189.833 24.5,189.5C 18.3848,184.888 11.7182,184.221 4.5,187.5C 2.69426,183.809 1.0276,180.142 -0.5,176.5C -0.5,175.167 -0.5,173.833 -0.5,172.5C 3.34051,162.645 7.67385,152.978 12.5,143.5 Z"/></g>
<g><path style="opacity:0.871" fill="#8d608d" d="M 199.5,156.5 C 201.19,160.207 202.356,164.207 203,168.5C 205.333,169.877 207.833,170.877 210.5,171.5C 211.298,171.957 211.631,172.624 211.5,173.5C 209.686,179.78 207.353,185.78 204.5,191.5C 204.5,190.5 204.5,189.5 204.5,188.5C 202.833,188.5 201.167,188.5 199.5,188.5C 198.997,182.99 197.997,177.656 196.5,172.5C 194.833,172.5 193.167,172.5 191.5,172.5C 193.99,167 196.656,161.667 199.5,156.5 Z"/></g>
<g><path style="opacity:0.844" fill="#b9567b" d="M 33.5,165.5 C 35.1992,165.34 36.8659,165.506 38.5,166C 43.1845,169.344 48.1845,172.177 53.5,174.5C 54.4318,176.795 55.2652,179.129 56,181.5C 57.3333,182.833 58.6667,182.833 60,181.5C 61.5485,184.138 62.7152,186.971 63.5,190C 62.057,192.078 62.7237,192.911 65.5,192.5C 65.2291,194.38 65.8958,195.713 67.5,196.5C 68.3382,196.842 68.6716,197.508 68.5,198.5C 65.8632,197.836 63.1965,197.169 60.5,196.5C 58.9348,192.313 58.2681,187.98 58.5,183.5C 53.212,184.311 48.212,185.978 43.5,188.5C 42.5,188.5 41.5,188.5 40.5,188.5C 41.453,185.577 41.7863,182.744 41.5,180C 38.9782,176.623 36.9782,172.957 35.5,169C 35.8333,168.667 36.1667,168.333 36.5,168C 35.4293,167.148 34.4293,166.315 33.5,165.5 Z"/></g>
<g><path style="opacity:0.796" fill="#6b9c73" d="M 322.5,163.5 C 324.104,164.287 324.771,165.62 324.5,167.5C 330.36,168.432 336.193,168.432 342,167.5C 343.605,168.101 344.938,169.101 346,170.5C 346.278,169.584 346.778,168.918 347.5,168.5C 348.167,169.167 348.833,169.833 349.5,170.5C 349.5,172.167 349.5,173.833 349.5,175.5C 344.518,185.84 340.185,196.173 336.5,206.5C 335.691,204.708 335.191,202.708 335,200.5C 333.045,199.547 331.378,198.213 330,196.5C 325.973,189.779 322.473,182.779 319.5,175.5C 319.863,174.817 320.196,174.15 320.5,173.5C 323.592,170.71 324.258,167.376 322.5,163.5 Z"/></g>
<g><path style="opacity:0.82" fill="#6b9877" d="M 320.5,173.5 C 320.196,174.15 319.863,174.817 319.5,175.5C 322.473,182.779 325.973,189.779 330,196.5C 331.378,198.213 333.045,199.547 335,200.5C 335.191,202.708 335.691,204.708 336.5,206.5C 333.128,215.367 329.461,224.033 325.5,232.5C 324.206,231.71 323.039,230.71 322,229.5C 321.311,223.726 321.811,218.059 323.5,212.5C 321.223,209.383 318.556,206.883 315.5,205C 316.93,203.111 317.597,200.945 317.5,198.5C 316.816,195.285 315.816,192.118 314.5,189C 315.028,186.138 315.695,183.304 316.5,180.5C 317.583,177.862 318.916,175.529 320.5,173.5 Z"/></g>
<g><path style="opacity:0.881" fill="#a3607f" d="M 191.5,172.5 C 193.167,172.5 194.833,172.5 196.5,172.5C 197.997,177.656 198.997,182.99 199.5,188.5C 201.167,188.5 202.833,188.5 204.5,188.5C 204.5,189.5 204.5,190.5 204.5,191.5C 201.299,197.786 198.299,204.119 195.5,210.5C 195.067,205.1 194.234,199.767 193,194.5C 189.225,190.801 185.392,190.801 181.5,194.5C 184.251,186.921 187.584,179.587 191.5,172.5 Z"/></g>
<g><path style="opacity:0.942" fill="#6d678d" d="M 253.5,178.5 C 256.807,185.242 259.64,192.242 262,199.5C 265.48,203.128 267.313,207.461 267.5,212.5C 266.876,212.917 266.543,213.584 266.5,214.5C 269.932,220.065 269.098,224.732 264,228.5C 262.886,236.181 262.719,243.848 263.5,251.5C 265.026,251.994 266.359,252.661 267.5,253.5C 264.921,253.917 262.754,253.25 261,251.5C 258.523,254.816 255.356,257.149 251.5,258.5C 251.167,258.5 250.833,258.5 250.5,258.5C 245.567,255.254 242.234,250.92 240.5,245.5C 240.502,241.651 242.335,238.985 246,237.5C 247.097,233.948 248.597,230.614 250.5,227.5C 246.493,223.16 242.16,219.16 237.5,215.5C 236.571,214.311 236.238,212.978 236.5,211.5C 240.934,202.298 245.101,192.964 249,183.5C 249.64,181.735 249.473,180.068 248.5,178.5C 248.215,176.712 248.548,175.045 249.5,173.5C 250.134,175.772 251.468,177.439 253.5,178.5 Z"/></g>
<g><path style="opacity:0.764" fill="#c77b72" d="M 24.5,189.5 C 25.1667,189.833 25.8333,190.167 26.5,190.5C 30.6472,191.325 34.9805,191.825 39.5,192C 41.7648,195.2 43.7648,198.533 45.5,202C 48.3926,203.149 51.3926,203.649 54.5,203.5C 54.335,206.85 54.5017,210.183 55,213.5C 56.4019,215.973 57.9019,215.973 59.5,213.5C 60.086,213.709 60.586,214.043 61,214.5C 63.4607,213.782 65.9607,213.115 68.5,212.5C 69.934,210.78 70.7674,208.78 71,206.5C 71.1216,208.437 71.955,209.77 73.5,210.5C 77.9601,216.836 81.2935,223.836 83.5,231.5C 82.0337,230.653 81.2004,229.32 81,227.5C 80.4215,231.386 79.5881,231.386 78.5,227.5C 79.4464,223.818 78.6131,220.485 76,217.5C 73.4017,221.934 70.2351,225.934 66.5,229.5C 63.9866,225.142 60.9866,221.142 57.5,217.5C 55.8647,216.319 54.198,216.319 52.5,217.5C 51.2807,216.737 50.2807,215.737 49.5,214.5C 50.0445,217.382 49.2112,220.049 47,222.5C 46.2547,220.797 45.4214,219.13 44.5,217.5C 46.2515,214.809 45.7515,214.142 43,215.5C 42.5604,213.924 41.727,212.59 40.5,211.5C 40.8333,210.833 41.1667,210.167 41.5,209.5C 41.1543,208.304 40.6543,208.304 40,209.5C 39.6667,208.5 39.3333,207.5 39,206.5C 36.5314,207.147 33.6981,207.48 30.5,207.5C 28.7567,205.018 27.2567,202.351 26,199.5C 25.6614,196.12 25.1614,192.787 24.5,189.5 Z"/></g>
<g><path style="opacity:0.868" fill="#c27075" d="M 68.5,198.5 C 70.9404,202.148 72.6071,206.148 73.5,210.5C 71.955,209.77 71.1216,208.437 71,206.5C 70.7674,208.78 69.934,210.78 68.5,212.5C 65.9607,213.115 63.4607,213.782 61,214.5C 60.586,214.043 60.086,213.709 59.5,213.5C 57.9019,215.973 56.4019,215.973 55,213.5C 54.5017,210.183 54.335,206.85 54.5,203.5C 51.3926,203.649 48.3926,203.149 45.5,202C 43.7648,198.533 41.7648,195.2 39.5,192C 34.9805,191.825 30.6472,191.325 26.5,190.5C 31.1785,190.666 35.8452,190.499 40.5,190C 41.7375,189.768 42.7375,189.268 43.5,188.5C 48.212,185.978 53.212,184.311 58.5,183.5C 58.2681,187.98 58.9348,192.313 60.5,196.5C 63.1965,197.169 65.8632,197.836 68.5,198.5 Z"/></g>
<g><path style="opacity:0.89" fill="#b66678" d="M 153.5,182.5 C 158.374,193.95 163.541,205.283 169,216.5C 169.333,216.833 169.667,217.167 170,217.5C 170.949,215.907 172.115,214.574 173.5,213.5C 172.464,215.391 172.464,217.224 173.5,219C 170.54,219.344 168.373,218.177 167,215.5C 166.187,217.436 165.687,219.436 165.5,221.5C 159.451,208.361 153.785,195.028 148.5,181.5C 148.5,180.5 148.5,179.5 148.5,178.5C 149.5,178.5 150.5,178.5 151.5,178.5C 151.229,180.38 151.896,181.713 153.5,182.5 Z"/></g>
<g><path style="opacity:0.916" fill="#b85b79" d="M 107.5,183.5 C 112.101,193.377 116.768,203.377 121.5,213.5C 120.25,213.423 119.417,212.756 119,211.5C 117.294,212.308 116.461,213.641 116.5,215.5C 112.456,205.742 108.123,196.075 103.5,186.5C 103.646,183.45 104.98,182.45 107.5,183.5 Z"/></g>
<g><path style="opacity:0.793" fill="#c9816e" d="M 83.5,231.5 C 84.5,233.5 85.5,235.5 86.5,237.5C 79.2811,237.738 72.7811,235.738 67,231.5C 64.8585,233.853 62.1918,234.853 59,234.5C 53.1902,233.733 47.3569,233.399 41.5,233.5C 41.2865,231.856 41.6198,230.356 42.5,229C 40.0019,222.552 37.5019,216.052 35,209.5C 33.3775,208.901 31.8775,208.234 30.5,207.5C 33.6981,207.48 36.5314,207.147 39,206.5C 39.3333,207.5 39.6667,208.5 40,209.5C 40.6543,208.304 41.1543,208.304 41.5,209.5C 41.1667,210.167 40.8333,210.833 40.5,211.5C 41.727,212.59 42.5604,213.924 43,215.5C 45.7515,214.142 46.2515,214.809 44.5,217.5C 45.4214,219.13 46.2547,220.797 47,222.5C 49.2112,220.049 50.0445,217.382 49.5,214.5C 50.2807,215.737 51.2807,216.737 52.5,217.5C 54.198,216.319 55.8647,216.319 57.5,217.5C 60.9866,221.142 63.9866,225.142 66.5,229.5C 70.2351,225.934 73.4017,221.934 76,217.5C 78.6131,220.485 79.4464,223.818 78.5,227.5C 79.5881,231.386 80.4215,231.386 81,227.5C 81.2004,229.32 82.0337,230.653 83.5,231.5 Z"/></g>
<g><path style="opacity:0.902" fill="#b17279" d="M 195.5,210.5 C 192.568,218.369 189.068,226.035 185,233.5C 183.778,237.246 184.944,239.913 188.5,241.5C 192.021,242.166 195.687,242.833 199.5,243.5C 198.143,245.186 196.81,246.852 195.5,248.5C 193.84,250.248 191.84,250.748 189.5,250C 186.064,246.717 182.064,244.55 177.5,243.5C 180.344,238.15 180.511,232.817 178,227.5C 174.806,226.043 171.473,225.043 168,224.5C 167.722,225.416 167.222,226.082 166.5,226.5C 166.371,224.784 166.038,223.117 165.5,221.5C 165.687,219.436 166.187,217.436 167,215.5C 168.373,218.177 170.54,219.344 173.5,219C 172.464,217.224 172.464,215.391 173.5,213.5C 175.39,206.733 178.057,200.4 181.5,194.5C 185.392,190.801 189.225,190.801 193,194.5C 194.234,199.767 195.067,205.1 195.5,210.5 Z"/></g>
<g><path style="opacity:0.917" fill="#c07175" d="M 121.5,213.5 C 124.281,220.526 127.281,227.526 130.5,234.5C 126.06,233.395 121.727,233.062 117.5,233.5C 118.607,230.769 119.607,227.936 120.5,225C 119.251,221.74 117.918,218.573 116.5,215.5C 116.461,213.641 117.294,212.308 119,211.5C 119.417,212.756 120.25,213.423 121.5,213.5 Z"/></g>
<g><path style="opacity:0.941" fill="#6b7489" d="M 267.5,212.5 C 268.458,212.953 269.292,213.619 270,214.5C 278.241,235.244 287.241,255.577 297,275.5C 299.617,280.183 301.117,285.183 301.5,290.5C 301.386,292.718 300.72,294.718 299.5,296.5C 296.494,295.363 294.494,293.197 293.5,290C 296.623,283.615 295.623,277.948 290.5,273C 286.506,272.055 282.506,271.222 278.5,270.5C 278.821,265.305 278.487,260.305 277.5,255.5C 274.237,254.518 270.903,253.851 267.5,253.5C 266.359,252.661 265.026,251.994 263.5,251.5C 262.719,243.848 262.886,236.181 264,228.5C 269.098,224.732 269.932,220.065 266.5,214.5C 266.543,213.584 266.876,212.917 267.5,212.5 Z"/></g>
<g><path style="opacity:0.719" fill="#d3985f" d="M 19.5,221.5 C 25.7705,224.298 32.1038,227.132 38.5,230C 42.315,237.827 46.9817,245.161 52.5,252C 55.7603,252.784 58.9269,252.617 62,251.5C 63.6225,252.099 65.1225,252.766 66.5,253.5C 65.5,253.5 64.5,253.5 63.5,253.5C 60.6585,259.679 56.6585,265.012 51.5,269.5C 47.2419,269.075 44.2419,266.909 42.5,263C 41.5,262.833 40.5,262.667 39.5,262.5C 37.9704,262.64 36.9704,263.307 36.5,264.5C 29.8612,250.59 24.1945,236.256 19.5,221.5 Z"/></g>
<g><path style="opacity:0.898" fill="#c8816e" d="M 130.5,234.5 C 132.214,237.213 134.547,239.213 137.5,240.5C 142.745,242.292 148.412,243.126 154.5,243C 152.866,243.494 151.199,243.66 149.5,243.5C 149.5,245.167 149.5,246.833 149.5,248.5C 144.558,248.736 139.891,249.902 135.5,252C 128.37,252.174 121.37,253.007 114.5,254.5C 109.983,251.101 104.983,248.434 99.5,246.5C 99.0233,245.522 98.3567,244.689 97.5,244C 101.833,243.667 106.167,243.333 110.5,243C 105.649,242.826 100.982,242.326 96.5,241.5C 100.702,241.817 104.702,241.483 108.5,240.5C 112.383,239.282 115.383,236.949 117.5,233.5C 121.727,233.062 126.06,233.395 130.5,234.5 Z"/></g>
<g><path style="opacity:0.879" fill="#bb7d70" d="M 177.5,243.5 C 174.833,245.833 172.167,248.167 169.5,250.5C 167.608,249.149 165.442,248.482 163,248.5C 157.515,249.153 152.015,249.653 146.5,250C 142.232,250.534 138.232,251.867 134.5,254C 135.591,259.741 136.258,265.574 136.5,271.5C 128.859,268.885 121.193,266.218 113.5,263.5C 113.508,260.455 113.841,257.455 114.5,254.5C 121.37,253.007 128.37,252.174 135.5,252C 139.891,249.902 144.558,248.736 149.5,248.5C 149.5,246.833 149.5,245.167 149.5,243.5C 151.199,243.66 152.866,243.494 154.5,243C 148.412,243.126 142.745,242.292 137.5,240.5C 143.842,240.666 150.175,240.5 156.5,240C 161.417,236.664 164.75,232.164 166.5,226.5C 167.222,226.082 167.722,225.416 168,224.5C 171.473,225.043 174.806,226.043 178,227.5C 180.511,232.817 180.344,238.15 177.5,243.5 Z"/></g>
<g><path style="opacity:0.929" fill="#824971" d="M 87.5,237.5 C 89.3716,238.511 91.3716,239.345 93.5,240C 98.4889,240.499 103.489,240.666 108.5,240.5C 104.702,241.483 100.702,241.817 96.5,241.5C 92.7117,241.691 89.7117,240.358 87.5,237.5 Z"/></g>
<g><path style="opacity:0.957" fill="#643681" d="M 240.5,245.5 C 242.234,250.92 245.567,255.254 250.5,258.5C 250.5,260.833 250.5,263.167 250.5,265.5C 246.584,265.631 242.584,265.298 238.5,264.5C 236.827,266.086 234.827,266.753 232.5,266.5C 232.737,267.791 232.404,268.791 231.5,269.5C 231.249,265.751 230.583,262.085 229.5,258.5C 226.833,258.167 224.167,257.833 221.5,257.5C 219.238,244.26 224.571,239.093 237.5,242C 238.636,243.145 239.636,244.312 240.5,245.5 Z"/></g>
<g><path style="opacity:0.831" fill="#cb886a" d="M 24.5,189.5 C 25.1614,192.787 25.6614,196.12 26,199.5C 27.2567,202.351 28.7567,205.018 30.5,207.5C 31.8775,208.234 33.3775,208.901 35,209.5C 37.5019,216.052 40.0019,222.552 42.5,229C 41.6198,230.356 41.2865,231.856 41.5,233.5C 47.3569,233.399 53.1902,233.733 59,234.5C 62.1918,234.853 64.8585,233.853 67,231.5C 72.7811,235.738 79.2811,237.738 86.5,237.5C 86.8333,237.5 87.1667,237.5 87.5,237.5C 89.7117,240.358 92.7117,241.691 96.5,241.5C 100.982,242.326 105.649,242.826 110.5,243C 106.167,243.333 101.833,243.667 97.5,244C 98.3567,244.689 99.0233,245.522 99.5,246.5C 104.983,248.434 109.983,251.101 114.5,254.5C 113.841,257.455 113.508,260.455 113.5,263.5C 110.177,267.511 107.177,271.844 104.5,276.5C 102.257,277.474 99.924,277.808 97.5,277.5C 96.4863,276.326 95.153,275.66 93.5,275.5C 93.8132,268.245 93.4799,261.079 92.5,254C 88.5109,253.336 84.6776,252.169 81,250.5C 78.018,252.137 75.018,253.804 72,255.5C 71.1841,254.177 70.0174,253.511 68.5,253.5C 67.8333,253.5 67.1667,253.5 66.5,253.5C 65.1225,252.766 63.6225,252.099 62,251.5C 58.9269,252.617 55.7603,252.784 52.5,252C 46.9817,245.161 42.315,237.827 38.5,230C 32.1038,227.132 25.7705,224.298 19.5,221.5C 17.9124,220.359 16.5791,218.859 15.5,217C 15.8333,216.667 16.1667,216.333 16.5,216C 11.9602,206.699 7.96023,197.199 4.5,187.5C 11.7182,184.221 18.3848,184.888 24.5,189.5 Z"/></g>
<g><path style="opacity:0.869" fill="#af7373" d="M 169.5,250.5 C 170.168,256.255 169.168,261.588 166.5,266.5C 161.474,265.605 156.474,265.605 151.5,266.5C 146.535,269.473 141.868,272.807 137.5,276.5C 137.634,274.708 137.301,273.042 136.5,271.5C 136.258,265.574 135.591,259.741 134.5,254C 138.232,251.867 142.232,250.534 146.5,250C 152.015,249.653 157.515,249.153 163,248.5C 165.442,248.482 167.608,249.149 169.5,250.5 Z"/></g>
<g><path style="opacity:0.812" fill="#d29163" d="M 93.5,275.5 C 91.4727,275.662 89.4727,275.495 87.5,275C 84.3681,273.365 81.3681,271.532 78.5,269.5C 74.6086,264.454 71.2752,259.12 68.5,253.5C 70.0174,253.511 71.1841,254.177 72,255.5C 75.018,253.804 78.018,252.137 81,250.5C 84.6776,252.169 88.5109,253.336 92.5,254C 93.4799,261.079 93.8132,268.245 93.5,275.5 Z"/></g>
<g><path style="opacity:0.958" fill="#714b84" d="M 236.5,211.5 C 236.238,212.978 236.571,214.311 237.5,215.5C 242.16,219.16 246.493,223.16 250.5,227.5C 248.597,230.614 247.097,233.948 246,237.5C 242.335,238.985 240.502,241.651 240.5,245.5C 239.636,244.312 238.636,243.145 237.5,242C 224.571,239.093 219.238,244.26 221.5,257.5C 224.167,257.833 226.833,258.167 229.5,258.5C 230.583,262.085 231.249,265.751 231.5,269.5C 227.692,271.716 224.359,274.383 221.5,277.5C 220.391,277.557 219.391,277.89 218.5,278.5C 215.842,275.194 213.676,271.527 212,267.5C 210.855,266.364 209.688,265.364 208.5,264.5C 208.414,263.504 208.748,262.671 209.5,262C 213.018,260.164 216.518,258.33 220,256.5C 220.667,253.5 220.667,250.5 220,247.5C 218.509,245.996 216.676,245.163 214.5,245C 216.5,244.333 218.5,243.667 220.5,243C 213.654,242.828 206.987,242.328 200.5,241.5C 206.842,241.666 213.175,241.5 219.5,241C 223.958,238.26 227.125,234.427 229,229.5C 231.3,223.256 233.8,217.256 236.5,211.5 Z"/></g>
<g><path style="opacity:0.908" fill="#94627a" d="M 177.5,243.5 C 182.064,244.55 186.064,246.717 189.5,250C 191.84,250.748 193.84,250.248 195.5,248.5C 194.854,250.156 194.187,251.823 193.5,253.5C 194.988,257.1 195.821,260.767 196,264.5C 193.961,266.874 191.628,268.874 189,270.5C 188.122,273.215 186.622,275.549 184.5,277.5C 179.12,274.305 173.454,271.972 167.5,270.5C 167.567,269.041 167.234,267.708 166.5,266.5C 169.168,261.588 170.168,256.255 169.5,250.5C 172.167,248.167 174.833,245.833 177.5,243.5 Z"/></g>
<g><path style="opacity:0.789" fill="#be8e62" d="M 113.5,263.5 C 121.193,266.218 128.859,268.885 136.5,271.5C 137.301,273.042 137.634,274.708 137.5,276.5C 135.05,277.711 133.05,279.378 131.5,281.5C 123.5,281.5 115.5,281.5 107.5,281.5C 107.899,285.988 108.233,290.488 108.5,295C 108.475,297.929 107.809,300.429 106.5,302.5C 107.809,295.155 107.475,287.821 105.5,280.5C 102.908,279.083 100.241,278.083 97.5,277.5C 99.924,277.808 102.257,277.474 104.5,276.5C 107.177,271.844 110.177,267.511 113.5,263.5 Z"/></g>
<g><path style="opacity:0.936" fill="#764d7f" d="M 208.5,264.5 C 209.688,265.364 210.855,266.364 212,267.5C 213.676,271.527 215.842,275.194 218.5,278.5C 218.489,280.017 217.823,281.184 216.5,282C 213.316,282.754 210.649,284.254 208.5,286.5C 201.25,288.108 193.917,289.442 186.5,290.5C 186.5,286.167 186.5,281.833 186.5,277.5C 191.179,277.666 195.845,277.499 200.5,277C 202.412,273.478 203.579,269.645 204,265.5C 205.356,264.62 206.856,264.286 208.5,264.5 Z"/></g>
<g><path style="opacity:0.818" fill="#996d75" d="M 166.5,266.5 C 167.234,267.708 167.567,269.041 167.5,270.5C 166.542,270.953 165.708,271.619 165,272.5C 163.651,277.854 162.317,283.187 161,288.5C 159.471,289.729 158.304,291.229 157.5,293C 154.804,293.69 152.637,295.19 151,297.5C 149.156,300.528 147.322,303.528 145.5,306.5C 140.407,306.148 135.407,306.148 130.5,306.5C 130.234,303.334 129.901,300.167 129.5,297C 131.115,292.042 131.782,286.875 131.5,281.5C 133.05,279.378 135.05,277.711 137.5,276.5C 141.868,272.807 146.535,269.473 151.5,266.5C 156.474,265.605 161.474,265.605 166.5,266.5 Z"/></g>
<g><path style="opacity:0.95" fill="#615887" d="M 267.5,253.5 C 270.903,253.851 274.237,254.518 277.5,255.5C 279.225,264.513 276.558,271.68 269.5,277C 270.717,278.648 271.55,280.481 272,282.5C 274.833,284 277,286.167 278.5,289C 280.927,290.591 283.593,291.425 286.5,291.5C 285.354,295.754 284.687,300.087 284.5,304.5C 281.114,306.169 277.781,307.836 274.5,309.5C 274.138,305.797 272.471,302.797 269.5,300.5C 265.548,297.907 261.548,295.407 257.5,293C 259.901,289.031 261.901,284.865 263.5,280.5C 260.33,275.982 256.33,272.649 251.5,270.5C 251.5,266.5 251.5,262.5 251.5,258.5C 255.356,257.149 258.523,254.816 261,251.5C 262.754,253.25 264.921,253.917 267.5,253.5 Z"/></g>
<g><path style="opacity:0.947" fill="#66397f" d="M 221.5,277.5 C 219.752,279.16 219.252,281.16 220,283.5C 223.721,286.207 226.221,289.707 227.5,294C 225.316,300.084 222.982,306.084 220.5,312C 216.56,313.015 212.56,313.515 208.5,313.5C 208.489,311.983 207.823,310.816 206.5,310C 207.352,307.583 208.019,305.083 208.5,302.5C 208.496,297.148 208.496,291.815 208.5,286.5C 210.649,284.254 213.316,282.754 216.5,282C 217.823,281.184 218.489,280.017 218.5,278.5C 219.391,277.89 220.391,277.557 221.5,277.5 Z"/></g>
<g><path style="opacity:0.904" fill="#6b427e" d="M 208.5,286.5 C 208.496,291.815 208.496,297.148 208.5,302.5C 208.019,305.083 207.352,307.583 206.5,310C 207.823,310.816 208.489,311.983 208.5,313.5C 205.224,315.679 201.724,316.012 198,314.5C 194.726,317.102 192.226,320.268 190.5,324C 191.183,328.251 192.183,332.418 193.5,336.5C 192.009,337.244 190.509,337.91 189,338.5C 187.482,338.943 186.315,338.276 185.5,336.5C 183.146,337.06 180.813,337.727 178.5,338.5C 180.385,339.197 180.718,340.197 179.5,341.5C 181.086,343.173 181.753,345.173 181.5,347.5C 179.447,347.402 177.78,348.069 176.5,349.5C 175.167,349.5 173.833,349.5 172.5,349.5C 167.518,347.611 162.851,345.277 158.5,342.5C 159.796,335.499 159.796,328.499 158.5,321.5C 159.448,319.056 160.948,317.056 163,315.5C 167.391,312.938 171.891,310.605 176.5,308.5C 177.128,303.897 179.628,300.897 184,299.5C 184.901,296.48 185.734,293.48 186.5,290.5C 193.917,289.442 201.25,288.108 208.5,286.5 Z"/></g>
<g><path style="opacity:0.851" fill="#626287" d="M 277.5,255.5 C 278.487,260.305 278.821,265.305 278.5,270.5C 282.506,271.222 286.506,272.055 290.5,273C 295.623,277.948 296.623,283.615 293.5,290C 294.494,293.197 296.494,295.363 299.5,296.5C 299.586,297.496 299.252,298.329 298.5,299C 293.779,300.84 289.112,302.673 284.5,304.5C 284.687,300.087 285.354,295.754 286.5,291.5C 283.593,291.425 280.927,290.591 278.5,289C 277,286.167 274.833,284 272,282.5C 271.55,280.481 270.717,278.648 269.5,277C 276.558,271.68 279.225,264.513 277.5,255.5 Z"/></g>
<g><path style="opacity:0.949" fill="#5e4984" d="M 250.5,258.5 C 250.833,258.5 251.167,258.5 251.5,258.5C 251.5,262.5 251.5,266.5 251.5,270.5C 256.33,272.649 260.33,275.982 263.5,280.5C 261.901,284.865 259.901,289.031 257.5,293C 261.548,295.407 265.548,297.907 269.5,300.5C 272.471,302.797 274.138,305.797 274.5,309.5C 267.153,311.413 260.153,314.08 253.5,317.5C 250.873,310.367 250.873,303.201 253.5,296C 250.606,293.625 247.772,291.125 245,288.5C 244.5,286 244,283.5 243.5,281C 244.838,277.152 246.838,273.652 249.5,270.5C 250.452,268.955 250.785,267.288 250.5,265.5C 250.5,263.167 250.5,260.833 250.5,258.5 Z"/></g>
<g><path style="opacity:0.612" fill="#dbad4a" d="M 66.5,253.5 C 67.1667,253.5 67.8333,253.5 68.5,253.5C 71.2752,259.12 74.6086,264.454 78.5,269.5C 81.3681,271.532 84.3681,273.365 87.5,275C 89.4727,275.495 91.4727,275.662 93.5,275.5C 95.153,275.66 96.4863,276.326 97.5,277.5C 100.241,278.083 102.908,279.083 105.5,280.5C 107.475,287.821 107.809,295.155 106.5,302.5C 105.861,303.097 105.528,303.93 105.5,305C 106.706,309.358 108.04,313.691 109.5,318C 109.395,319.592 109.061,321.092 108.5,322.5C 89.3045,314.405 69.9712,306.572 50.5,299C 45.7344,287.536 41.0677,276.036 36.5,264.5C 36.9704,263.307 37.9704,262.64 39.5,262.5C 40.5,262.667 41.5,262.833 42.5,263C 44.2419,266.909 47.2419,269.075 51.5,269.5C 56.6585,265.012 60.6585,259.679 63.5,253.5C 64.5,253.5 65.5,253.5 66.5,253.5 Z"/></g>
<g><path style="opacity:0.804" fill="#7f557c" d="M 188.5,241.5 C 192.5,241.5 196.5,241.5 200.5,241.5C 206.987,242.328 213.654,242.828 220.5,243C 218.5,243.667 216.5,244.333 214.5,245C 216.676,245.163 218.509,245.996 220,247.5C 220.667,250.5 220.667,253.5 220,256.5C 216.518,258.33 213.018,260.164 209.5,262C 208.748,262.671 208.414,263.504 208.5,264.5C 206.856,264.286 205.356,264.62 204,265.5C 203.579,269.645 202.412,273.478 200.5,277C 195.845,277.499 191.179,277.666 186.5,277.5C 186.5,281.833 186.5,286.167 186.5,290.5C 185.734,293.48 184.901,296.48 184,299.5C 179.628,300.897 177.128,303.897 176.5,308.5C 171.891,310.605 167.391,312.938 163,315.5C 160.948,317.056 159.448,319.056 158.5,321.5C 159.796,328.499 159.796,335.499 158.5,342.5C 150.134,339.712 141.8,336.712 133.5,333.5C 133.201,331.396 133.534,329.396 134.5,327.5C 140.087,324.629 142.587,319.962 142,313.5C 142.891,310.97 144.058,308.637 145.5,306.5C 147.322,303.528 149.156,300.528 151,297.5C 152.637,295.19 154.804,293.69 157.5,293C 158.304,291.229 159.471,289.729 161,288.5C 162.317,283.187 163.651,277.854 165,272.5C 165.708,271.619 166.542,270.953 167.5,270.5C 173.454,271.972 179.12,274.305 184.5,277.5C 186.622,275.549 188.122,273.215 189,270.5C 191.628,268.874 193.961,266.874 196,264.5C 195.821,260.767 194.988,257.1 193.5,253.5C 194.187,251.823 194.854,250.156 195.5,248.5C 196.81,246.852 198.143,245.186 199.5,243.5C 195.687,242.833 192.021,242.166 188.5,241.5 Z"/></g>
<g><path style="opacity:0.673" fill="#b18268" d="M 131.5,281.5 C 131.782,286.875 131.115,292.042 129.5,297C 129.901,300.167 130.234,303.334 130.5,306.5C 127.418,313.565 123.751,320.232 119.5,326.5C 115.451,325.965 111.785,324.632 108.5,322.5C 109.061,321.092 109.395,319.592 109.5,318C 108.04,313.691 106.706,309.358 105.5,305C 105.528,303.93 105.861,303.097 106.5,302.5C 107.809,300.429 108.475,297.929 108.5,295C 108.233,290.488 107.899,285.988 107.5,281.5C 115.5,281.5 123.5,281.5 131.5,281.5 Z"/></g>
<g><path style="opacity:0.908" fill="#60307d" d="M 250.5,265.5 C 250.785,267.288 250.452,268.955 249.5,270.5C 246.838,273.652 244.838,277.152 243.5,281C 244,283.5 244.5,286 245,288.5C 247.772,291.125 250.606,293.625 253.5,296C 250.873,303.201 250.873,310.367 253.5,317.5C 229.516,327.49 205.516,337.49 181.5,347.5C 181.753,345.173 181.086,343.173 179.5,341.5C 180.718,340.197 180.385,339.197 178.5,338.5C 180.813,337.727 183.146,337.06 185.5,336.5C 186.315,338.276 187.482,338.943 189,338.5C 190.509,337.91 192.009,337.244 193.5,336.5C 192.183,332.418 191.183,328.251 190.5,324C 192.226,320.268 194.726,317.102 198,314.5C 201.724,316.012 205.224,315.679 208.5,313.5C 212.56,313.515 216.56,313.015 220.5,312C 222.982,306.084 225.316,300.084 227.5,294C 226.221,289.707 223.721,286.207 220,283.5C 219.252,281.16 219.752,279.16 221.5,277.5C 224.359,274.383 227.692,271.716 231.5,269.5C 232.404,268.791 232.737,267.791 232.5,266.5C 234.827,266.753 236.827,266.086 238.5,264.5C 242.584,265.298 246.584,265.631 250.5,265.5 Z"/></g>
<g><path style="opacity:0.714" fill="#8c6178" d="M 145.5,306.5 C 144.058,308.637 142.891,310.97 142,313.5C 142.587,319.962 140.087,324.629 134.5,327.5C 133.534,329.396 133.201,331.396 133.5,333.5C 128.791,330.892 124.124,328.559 119.5,326.5C 123.751,320.232 127.418,313.565 130.5,306.5C 135.407,306.148 140.407,306.148 145.5,306.5 Z"/></g>
</svg>
