<?xml version="1.0" encoding="UTF-8"?>
<!DOCTYPE svg PUBLIC "-//W3C//DTD SVG 1.1//EN" "http://www.w3.org/Graphics/SVG/1.1/DTD/svg11.dtd">
<svg xmlns="http://www.w3.org/2000/svg" version="1.1" width="978px" height="350px" style="shape-rendering:geometricPrecision; text-rendering:geometricPrecision; image-rendering:optimizeQuality; fill-rule:evenodd; clip-rule:evenodd" xmlns:xlink="http://www.w3.org/1999/xlink">
<g><path style="opacity:0.978" fill="#000000" d="M 977.5,220.5 C 977.5,248.833 977.5,277.167 977.5,305.5C 961.464,305.866 945.464,305.366 929.5,304C 888.07,295.897 861.236,271.73 849,231.5C 835.5,263.667 812.667,286.5 780.5,300C 719.071,318.193 670.238,301.026 634,248.5C 630.446,242.06 627.446,235.393 625,228.5C 613.761,268.073 588.261,293.239 548.5,304C 526.432,307.569 504.432,307.236 482.5,303C 443.293,290.46 418.46,264.293 408,224.5C 405.652,213.729 404.152,202.896 403.5,192C 403.346,152.04 403.513,111.873 404,71.5C 432.333,70.1667 460.667,70.1667 489,71.5C 489.827,111.541 489.661,151.541 488.5,191.5C 491.169,215.999 504.502,225.499 528.5,220C 538.533,215.489 544.366,207.655 546,196.5C 546.5,154.501 546.667,112.501 546.5,70.5C 574.5,70.5 602.5,70.5 630.5,70.5C 630.333,91.5026 630.5,112.503 631,133.5C 654.236,91.6993 689.903,69.6993 738,67.5C 780.182,69.5837 813.515,87.5837 838,121.5C 840.254,125.007 842.254,128.673 844,132.5C 844.333,92.5 844.667,52.5 845,12.5C 873.095,11.3386 901.261,11.1719 929.5,12C 930.331,71.4296 930.831,130.93 931,190.5C 932.835,208.335 942.669,218.169 960.5,220C 966.157,220.499 971.824,220.666 977.5,220.5 Z M 733.5,152.5 C 759.943,153.441 772.776,167.108 772,193.5C 766.173,215.34 752.007,224.507 729.5,221C 709.299,215.09 700.799,201.59 704,180.5C 708.23,165.1 718.063,155.766 733.5,152.5 Z"/></g>
<g><path style="opacity:1" fill="#ff8000" d="M 153.5,-0.5 C 167.5,-0.5 181.5,-0.5 195.5,-0.5C 252.901,8.76902 296.735,38.1023 327,87.5C 354.897,138.254 357.73,190.254 335.5,243.5C 339.673,228.362 340.506,213.029 338,197.5C 334.818,186.169 328.985,176.503 320.5,168.5C 323.045,104.066 296.378,56.2323 240.5,25C 172.06,-4.39577 112.56,8.10423 62,62.5C 35.1937,95.9326 24.8604,133.933 31,176.5C 54.8198,128.043 93.6531,100.543 147.5,94C 197.123,90.4052 238.623,106.905 272,143.5C 275.089,147.354 277.922,151.354 280.5,155.5C 264.424,155.691 249.424,159.857 235.5,168C 204.942,186.25 185.442,212.75 177,247.5C 174.106,266.364 177.606,283.864 187.5,300C 139.527,302.918 99.0275,287.085 66,252.5C 47.7746,231.38 35.9413,207.047 30.5,179.5C 27.2555,186.804 25.0889,194.471 24,202.5C 21.1746,226.88 24.8413,250.213 35,272.5C 40.774,283.068 47.274,293.068 54.5,302.5C 23.4513,273.071 5.11794,237.071 -0.5,194.5C -0.5,181.167 -0.5,167.833 -0.5,154.5C 10.8646,84.2954 49.5313,35.7954 115.5,9C 127.986,4.54504 140.653,1.37837 153.5,-0.5 Z"/></g>
<g><path style="opacity:1" fill="#ffcd00" d="M 320.5,168.5 C 308.684,159.784 295.351,155.451 280.5,155.5C 277.922,151.354 275.089,147.354 272,143.5C 238.623,106.905 197.123,90.4052 147.5,94C 93.6531,100.543 54.8198,128.043 31,176.5C 24.8604,133.933 35.1937,95.9326 62,62.5C 112.56,8.10423 172.06,-4.39577 240.5,25C 296.378,56.2323 323.045,104.066 320.5,168.5 Z"/></g>
<g><path style="opacity:0.999" fill="#ff0323" d="M 280.5,155.5 C 295.351,155.451 308.684,159.784 320.5,168.5C 328.985,176.503 334.818,186.169 338,197.5C 340.506,213.029 339.673,228.362 335.5,243.5C 312.765,294.054 274.765,327.554 221.5,344C 213.075,346.049 204.741,347.882 196.5,349.5C 181.833,349.5 167.167,349.5 152.5,349.5C 115.12,343.475 82.4532,327.809 54.5,302.5C 47.274,293.068 40.774,283.068 35,272.5C 24.8413,250.213 21.1746,226.88 24,202.5C 25.0889,194.471 27.2555,186.804 30.5,179.5C 35.9413,207.047 47.7746,231.38 66,252.5C 99.0275,287.085 139.527,302.918 187.5,300C 177.606,283.864 174.106,266.364 177,247.5C 185.442,212.75 204.942,186.25 235.5,168C 249.424,159.857 264.424,155.691 280.5,155.5 Z"/></g>
</svg>
