<?xml version="1.0" encoding="UTF-8"?>
<!DOCTYPE svg PUBLIC "-//W3C//DTD SVG 1.1//EN" "http://www.w3.org/Graphics/SVG/1.1/DTD/svg11.dtd">
<svg xmlns="http://www.w3.org/2000/svg" version="1.1" width="1000px" height="145px" style="shape-rendering:geometricPrecision; text-rendering:geometricPrecision; image-rendering:optimizeQuality; fill-rule:evenodd; clip-rule:evenodd" xmlns:xlink="http://www.w3.org/1999/xlink">
<g><path style="opacity:0.048" fill="#e6bfbf" d="M 32.5,-0.5 C 35.8333,-0.5 39.1667,-0.5 42.5,-0.5C 39.3162,0.32321 35.9828,0.989877 32.5,1.5C 32.5,0.833333 32.5,0.166667 32.5,-0.5 Z"/></g>
<g><path style="opacity:0.048" fill="#e6c0bf" d="M 154.5,-0.5 C 157.833,-0.5 161.167,-0.5 164.5,-0.5C 164.5,0.166667 164.5,0.833333 164.5,1.5C 161.017,0.989877 157.684,0.32321 154.5,-0.5 Z"/></g>
<g><path style="opacity:0.439" fill="#de6660" d="M 286.5,-0.5 C 293.833,-0.5 301.167,-0.5 308.5,-0.5C 308.5,-0.166667 308.5,0.166667 308.5,0.5C 307.726,1.14713 306.726,1.48046 305.5,1.5C 299.005,0.954543 292.672,0.287876 286.5,-0.5 Z"/></g>
<g><path style="opacity:1" fill="#d3302b" d="M -0.5,-0.5 C 6.83333,-0.5 14.1667,-0.5 21.5,-0.5C 33.8578,18.878 45.1911,38.878 55.5,59.5C 57.2995,63.6012 58.9662,67.7679 60.5,72C 59.2998,75.5642 57.9665,79.0642 56.5,82.5C 45.8582,103.788 34.1915,124.454 21.5,144.5C 21.1667,144.5 20.8333,144.5 20.5,144.5C 13.9335,143.799 7.26682,143.132 0.5,142.5C 0.32842,141.508 0.661754,140.842 1.5,140.5C 4.25831,137.322 6.25831,133.655 7.5,129.5C 9.40678,124.016 12.0734,119.016 15.5,114.5C 17.4509,113.284 18.9509,111.618 20,109.5C 25.1376,99.8771 29.971,90.2104 34.5,80.5C 35.4202,77.492 36.7535,74.6587 38.5,72C 36.1039,68.0405 34.1039,63.8738 32.5,59.5C 31.5655,55.6272 30.0655,51.9605 28,48.5C 22.6436,38.4376 16.8103,28.7709 10.5,19.5C 6.83333,13.5 3.16667,7.5 -0.5,1.5C -0.5,0.833333 -0.5,0.166667 -0.5,-0.5 Z"/></g>
<g><path style="opacity:1" fill="#d22d29" d="M 42.5,-0.5 C 53.1667,-0.5 63.8333,-0.5 74.5,-0.5C 82.2524,12.6753 90.2524,25.6753 98.5,38.5C 106.748,25.6753 114.748,12.6753 122.5,-0.5C 133.167,-0.5 143.833,-0.5 154.5,-0.5C 157.684,0.32321 161.017,0.989877 164.5,1.5C 152.358,23.7792 140.191,46.1126 128,68.5C 127.333,70.8333 127.333,73.1667 128,75.5C 140.191,97.8874 152.358,120.221 164.5,142.5C 150.735,143.15 137.068,143.817 123.5,144.5C 123.167,144.5 122.833,144.5 122.5,144.5C 114.748,131.325 106.748,118.325 98.5,105.5C 90.2524,118.325 82.2524,131.325 74.5,144.5C 74.1667,144.5 73.8333,144.5 73.5,144.5C 59.9316,143.817 46.2649,143.15 32.5,142.5C 42.8012,122.566 53.6345,102.9 65,83.5C 66.6461,79.7104 68.1461,75.877 69.5,72C 68.1461,68.123 66.6461,64.2896 65,60.5C 53.6345,41.1003 42.8012,21.4337 32.5,1.5C 35.9828,0.989877 39.3162,0.32321 42.5,-0.5 Z"/></g>
<g><path style="opacity:0.999" fill="#d22d29" d="M 282.5,-0.5 C 283.833,-0.5 285.167,-0.5 286.5,-0.5C 292.672,0.287876 299.005,0.954543 305.5,1.5C 306.726,1.48046 307.726,1.14713 308.5,0.5C 326.966,2.14467 339.8,11.478 347,28.5C 347.667,30.8333 347.667,33.1667 347,35.5C 335.089,39.5197 322.923,42.353 310.5,44C 303.716,32.5487 294.049,29.2154 281.5,34C 277.874,36.2513 276.707,39.4179 278,43.5C 287.561,49.1934 297.727,53.6934 308.5,57C 332.316,67.4967 338.983,83.83 328.5,106C 322.711,121.445 311.378,132.445 294.5,139C 286.81,141.341 279.144,143.174 271.5,144.5C 265.5,144.5 259.5,144.5 253.5,144.5C 245.732,143.307 238.065,141.307 230.5,138.5C 230.631,137.624 230.298,136.957 229.5,136.5C 223.866,133.509 218.532,130.176 213.5,126.5C 208.24,121.15 204.906,114.65 203.5,107C 203.785,105.11 204.785,103.777 206.5,103C 218.727,100.768 230.893,98.268 243,95.5C 244.473,95.9031 245.806,96.5697 247,97.5C 252.846,107.67 261.68,111.837 273.5,110C 282.755,108.469 285.755,103.469 282.5,95C 271.582,90.1384 260.582,85.4718 249.5,81C 232.165,73.1599 225.998,59.9932 231,41.5C 239.613,16.9512 256.78,2.9512 282.5,-0.5 Z"/></g>
<g><path style="opacity:0.811" fill="#d74b49" d="M 383.5,-0.5 C 402.5,-0.5 421.5,-0.5 440.5,-0.5C 440.5,0.166667 440.833,0.5 441.5,0.5C 421.628,1.18949 401.628,1.85616 381.5,2.5C 382.167,1.5 382.833,0.5 383.5,-0.5 Z"/></g>
<g><path style="opacity:0.999" fill="#d22d29" d="M 441.5,0.5 C 464.72,0.55821 477.72,12.0582 480.5,35C 478.135,65.3645 462.135,84.0312 432.5,91C 419.431,91.0566 406.431,91.7233 393.5,93C 387.884,109.08 382.384,125.246 377,141.5C 375.855,142.636 374.688,143.636 373.5,144.5C 362.833,144.5 352.167,144.5 341.5,144.5C 338.655,143.656 335.655,142.99 332.5,142.5C 348.094,95.8934 364.427,49.2267 381.5,2.5C 401.628,1.85616 421.628,1.18949 441.5,0.5 Z M 416.5,32.5 C 422.336,32.8828 428.002,34.0495 433.5,36C 438.621,48.0865 434.621,55.7531 421.5,59C 416.177,59.4994 410.844,59.666 405.5,59.5C 407.684,51.4441 410.184,43.4441 413,35.5C 414.145,34.3636 415.312,33.3636 416.5,32.5 Z"/></g>
<g><path style="opacity:1" fill="#d22d29" d="M 656.5,-0.5 C 681.167,-0.5 705.833,-0.5 730.5,-0.5C 758.086,5.97948 767.586,22.9795 759,50.5C 753.333,66.8333 742.333,77.8333 726,83.5C 724.663,87.0257 724.163,90.6924 724.5,94.5C 723.844,95.6216 723.511,96.9549 723.5,98.5C 723.56,103.308 724.56,107.641 726.5,111.5C 727.93,121.793 728.43,132.127 728,142.5C 727.283,143.044 726.783,143.711 726.5,144.5C 713.167,144.5 699.833,144.5 686.5,144.5C 685.496,143.317 684.662,141.984 684,140.5C 683.241,129.175 682.741,117.842 682.5,106.5C 682.228,102.098 682.561,97.7649 683.5,93.5C 683,92.5 682.5,91.5 682,90.5C 677.733,89.178 673.566,89.178 669.5,90.5C 665.871,91.9705 664.204,94.4705 664.5,98C 662.193,98.3542 661.859,99.3542 663.5,101C 662.06,105.154 660.726,109.32 659.5,113.5C 658.25,113.577 657.417,114.244 657,115.5C 654.976,120.732 653.476,126.065 652.5,131.5C 651.979,136.087 650.312,140.087 647.5,143.5C 647.565,143.062 647.399,142.728 647,142.5C 642.399,143.142 637.899,143.809 633.5,144.5C 629.167,144.5 624.833,144.5 620.5,144.5C 615.637,143.734 610.637,143.068 605.5,142.5C 621.595,96.631 637.429,50.631 653,4.5C 653.997,2.67694 655.164,1.01027 656.5,-0.5 Z M 686.5,32.5 C 693.841,32.3337 701.174,32.5003 708.5,33C 717.743,36.3982 719.576,42.2315 714,50.5C 711.222,53.8071 707.722,55.9738 703.5,57C 694.887,58.5053 686.22,58.8386 677.5,58C 680.602,49.526 683.602,41.026 686.5,32.5 Z"/></g>
<g><path style="opacity:0.906" fill="#d74a44" d="M 784.5,-0.5 C 818.167,-0.5 851.833,-0.5 885.5,-0.5C 885.833,0.166667 886.167,0.833333 886.5,1.5C 852.498,1.33335 818.498,1.50002 784.5,2C 783.956,2.71719 783.289,3.21719 782.5,3.5C 782.733,1.93819 783.4,0.60486 784.5,-0.5 Z"/></g>
<g><path style="opacity:0.999" fill="#d22d29" d="M 933.5,-0.5 C 942.5,-0.5 951.5,-0.5 960.5,-0.5C 964.019,0.632154 967.686,1.63215 971.5,2.5C 971.414,3.4959 971.748,4.32924 972.5,5C 978.499,7.33269 984.165,10.166 989.5,13.5C 993.514,18.1007 996.847,22.7674 999.5,27.5C 999.5,27.8333 999.5,28.1667 999.5,28.5C 998.167,28.8333 998.167,29.1667 999.5,29.5C 999.5,31.1667 999.5,32.8333 999.5,34.5C 998.317,35.5045 996.984,36.3378 995.5,37C 984.535,39.8588 973.535,42.1922 962.5,44C 956.358,33.4317 947.358,29.765 935.5,33C 930.727,35.0231 928.727,38.3564 929.5,43C 930.5,44 931.5,45 932.5,46C 945.619,50.7043 958.286,56.3709 970.5,63C 986.347,75.2597 989.847,90.4264 981,108.5C 967.861,130.141 948.694,142.141 923.5,144.5C 917.5,144.5 911.5,144.5 905.5,144.5C 900.871,143.791 896.204,142.791 891.5,141.5C 891.53,140.503 891.03,139.836 890,139.5C 882.997,137.413 876.497,134.413 870.5,130.5C 862.572,124.887 857.905,117.221 856.5,107.5C 856.39,105.626 857.056,104.126 858.5,103C 871.165,100.266 883.831,97.9327 896.5,96C 905.688,109.976 918.022,113.643 933.5,107C 937.092,102.859 937.425,98.8586 934.5,95C 921.383,89.6084 908.383,83.9417 895.5,78C 882.995,70.1676 878.495,59.0009 882,44.5C 883.836,35.1564 888.003,27.1564 894.5,20.5C 900.611,14.6033 907.611,9.93668 915.5,6.5C 916.298,6.04311 916.631,5.37644 916.5,4.5C 922.199,2.59675 927.865,0.930083 933.5,-0.5 Z"/></g>
<g><path style="opacity:1" fill="#d22d29" d="M 554.5,-0.5 C 560.833,-0.5 567.167,-0.5 573.5,-0.5C 597.354,2.85346 611.188,16.5201 615,40.5C 615.45,80.1013 599.617,111.268 567.5,134C 557.965,139.232 547.965,142.732 537.5,144.5C 531.833,144.5 526.167,144.5 520.5,144.5C 485.069,135.825 471.569,113.491 480,77.5C 488.019,43.8194 507.519,19.3194 538.5,4C 543.874,2.16036 549.207,0.660356 554.5,-0.5 Z M 556.5,33.5 C 569.349,34.1653 574.182,40.8319 571,53.5C 567.089,72.8174 559.255,90.3174 547.5,106C 540.008,111.268 532.508,111.434 525,106.5C 521.907,98.2045 521.907,89.8712 525,81.5C 528.595,65.1434 535.762,50.6434 546.5,38C 549.815,36.1702 553.149,34.6702 556.5,33.5 Z"/></g>
<g><path style="opacity:1" fill="#d22c29" d="M 886.5,1.5 C 886.395,5.31886 885.562,8.98552 884,12.5C 881.545,19.8758 878.711,27.0425 875.5,34C 865.59,34.1798 855.756,34.6798 846,35.5C 833.738,68.6185 822.072,101.952 811,135.5C 810.163,139.157 808.33,142.157 805.5,144.5C 794.5,144.5 783.5,144.5 772.5,144.5C 770.285,143.732 767.952,143.065 765.5,142.5C 776.732,106.958 788.732,72.125 801.5,38C 800.167,37 800.167,36 801.5,35C 791.839,34.5002 782.172,34.3335 772.5,34.5C 775.429,24.045 778.763,13.7117 782.5,3.5C 783.289,3.21719 783.956,2.71719 784.5,2C 818.498,1.50002 852.498,1.33335 886.5,1.5 Z"/></g>
<g><path style="opacity:0.531" fill="#da5853" d="M 971.5,2.5 C 978.505,4.6625 984.505,8.32916 989.5,13.5C 984.165,10.166 978.499,7.33269 972.5,5C 971.748,4.32924 971.414,3.4959 971.5,2.5 Z"/></g>
<g><path style="opacity:0.882" fill="#db5d57" d="M 916.5,4.5 C 916.631,5.37644 916.298,6.04311 915.5,6.5C 907.611,9.93668 900.611,14.6033 894.5,20.5C 899.946,12.7579 907.279,7.42455 916.5,4.5 Z"/></g>
<g><path style="opacity:0.714" fill="#d9534f" d="M 10.5,19.5 C 16.8103,28.7709 22.6436,38.4376 28,48.5C 30.0655,51.9605 31.5655,55.6272 32.5,59.5C 24.6625,46.4956 17.3291,33.1623 10.5,19.5 Z"/></g>
<g><path style="opacity:0.075" fill="#db5c58" d="M 55.5,59.5 C 58.4722,63.2745 60.8055,67.4412 62.5,72C 61.1188,75.9382 59.1188,79.4382 56.5,82.5C 57.9665,79.0642 59.2998,75.5642 60.5,72C 58.9662,67.7679 57.2995,63.6012 55.5,59.5 Z"/></g>
<g><path style="opacity:0.953" fill="#d9514d" d="M 34.5,80.5 C 29.971,90.2104 25.1376,99.8771 20,109.5C 18.9509,111.618 17.4509,113.284 15.5,114.5C 21.3299,102.836 27.6632,91.5025 34.5,80.5 Z"/></g>
<g><path style="opacity:0.843" fill="#dd6c65" d="M 669.5,90.5 C 673.566,89.178 677.733,89.178 682,90.5C 682.5,91.5 683,92.5 683.5,93.5C 682.561,97.7649 682.228,102.098 682.5,106.5C 681.674,101.684 681.174,96.6835 681,91.5C 677.27,90.5399 673.437,90.2065 669.5,90.5 Z"/></g>
<g><path style="opacity:0.039" fill="#d95551" d="M 724.5,94.5 C 725.737,99.9601 726.404,105.627 726.5,111.5C 724.56,107.641 723.56,103.308 723.5,98.5C 723.511,96.9549 723.844,95.6216 724.5,94.5 Z"/></g>
<g><path style="opacity:0.514" fill="#d95552" d="M 659.5,113.5 C 657.539,119.728 655.206,125.728 652.5,131.5C 653.476,126.065 654.976,120.732 657,115.5C 657.417,114.244 658.25,113.577 659.5,113.5 Z"/></g>
<g><path style="opacity:1" fill="#dc5e58" d="M 213.5,126.5 C 218.532,130.176 223.866,133.509 229.5,136.5C 230.298,136.957 230.631,137.624 230.5,138.5C 223.722,136.052 218.055,132.052 213.5,126.5 Z"/></g>
<g><path style="opacity:0.902" fill="#da5551" d="M 870.5,130.5 C 876.497,134.413 882.997,137.413 890,139.5C 891.03,139.836 891.53,140.503 891.5,141.5C 883.461,139.649 876.461,135.982 870.5,130.5 Z"/></g>
<g><path style="opacity:0.4" fill="#e06b65" d="M 7.5,129.5 C 6.25831,133.655 4.25831,137.322 1.5,140.5C 2.74169,136.345 4.74169,132.678 7.5,129.5 Z"/></g>
<g><path style="opacity:0.039" fill="#f3caca" d="M -0.5,143.5 C -0.5,143.167 -0.5,142.833 -0.5,142.5C -0.166667,142.5 0.166667,142.5 0.5,142.5C 7.26682,143.132 13.9335,143.799 20.5,144.5C 13.8333,144.5 7.16667,144.5 0.5,144.5C 0.5,143.833 0.166667,143.5 -0.5,143.5 Z"/></g>
<g><path style="opacity:0.039" fill="#f3caca" d="M 32.5,142.5 C 46.2649,143.15 59.9316,143.817 73.5,144.5C 59.8333,144.5 46.1667,144.5 32.5,144.5C 32.5,143.833 32.5,143.167 32.5,142.5 Z"/></g>
<g><path style="opacity:0.039" fill="#f3cbcb" d="M 164.5,142.5 C 164.5,143.167 164.5,143.833 164.5,144.5C 150.833,144.5 137.167,144.5 123.5,144.5C 137.068,143.817 150.735,143.15 164.5,142.5 Z"/></g>
<g><path style="opacity:0.067" fill="#e9d1d0" d="M 332.5,142.5 C 335.655,142.99 338.655,143.656 341.5,144.5C 338.5,144.5 335.5,144.5 332.5,144.5C 332.5,143.833 332.5,143.167 332.5,142.5 Z"/></g>
<g><path style="opacity:0.067" fill="#e9c6c5" d="M 605.5,142.5 C 610.637,143.068 615.637,143.734 620.5,144.5C 615.833,144.5 611.167,144.5 606.5,144.5C 606.167,143.833 605.833,143.167 605.5,142.5 Z"/></g>
<g><path style="opacity:0.067" fill="#e6bebc" d="M 647.5,143.5 C 647.5,143.833 647.5,144.167 647.5,144.5C 642.833,144.5 638.167,144.5 633.5,144.5C 637.899,143.809 642.399,143.142 647,142.5C 647.399,142.728 647.565,143.062 647.5,143.5 Z"/></g>
<g><path style="opacity:0.068" fill="#e9cdcd" d="M 765.5,142.5 C 767.952,143.065 770.285,143.732 772.5,144.5C 770.167,144.5 767.833,144.5 765.5,144.5C 765.5,143.833 765.5,143.167 765.5,142.5 Z"/></g>
</svg>
