<?xml version="1.0" encoding="UTF-8"?>
<!DOCTYPE svg PUBLIC "-//W3C//DTD SVG 1.1//EN" "http://www.w3.org/Graphics/SVG/1.1/DTD/svg11.dtd">
<svg xmlns="http://www.w3.org/2000/svg" version="1.1" width="1000px" height="156px" style="shape-rendering:geometricPrecision; text-rendering:geometricPrecision; image-rendering:optimizeQuality; fill-rule:evenodd; clip-rule:evenodd" xmlns:xlink="http://www.w3.org/1999/xlink">
<g><path style="opacity:0.978" fill="#e7436e" d="M 193.5,-0.5 C 205.167,-0.5 216.833,-0.5 228.5,-0.5C 238.83,1.6649 248.164,5.99824 256.5,12.5C 256.168,58.6697 256.501,104.67 257.5,150.5C 250.582,152.55 243.582,154.217 236.5,155.5C 224.167,155.5 211.833,155.5 199.5,155.5C 183.926,153.692 170.426,147.359 159,136.5C 148.825,122.29 145.825,106.623 150,89.5C 154.946,77.5492 163.113,68.3825 174.5,62C 192.631,55.7334 211.297,53.2334 230.5,54.5C 228.445,45.6217 222.778,40.7884 213.5,40C 198.06,38.3484 183.226,40.5151 169,46.5C 160.985,35.11 157.652,22.4433 159,8.5C 170.297,4.3018 181.797,1.3018 193.5,-0.5 Z M 211.5,86.5 C 217.623,86.6032 223.956,86.6032 230.5,86.5C 230.5,96.8333 230.5,107.167 230.5,117.5C 221.799,118.892 213.132,118.726 204.5,117C 193.812,113.491 190.312,106.324 194,95.5C 198.878,90.4952 204.712,87.4952 211.5,86.5 Z"/></g>
<g><path style="opacity:0.992" fill="#e7546f" d="M 335.5,-0.5 C 337.833,-0.5 340.167,-0.5 342.5,-0.5C 342.5,51.1667 342.5,102.833 342.5,154.5C 340.585,154.216 338.919,154.549 337.5,155.5C 337.167,155.5 336.833,155.5 336.5,155.5C 335.833,154.167 335.167,154.167 334.5,155.5C 334.167,155.5 333.833,155.5 333.5,155.5C 326.274,154.706 318.941,153.706 311.5,152.5C 311.5,102.5 311.5,52.5 311.5,2.5C 319.661,1.66503 327.661,0.665028 335.5,-0.5 Z"/></g>
<g><path style="opacity:0.986" fill="#e85a70" d="M 342.5,-0.5 C 351.5,-0.5 360.5,-0.5 369.5,-0.5C 369.5,12.1667 369.5,24.8333 369.5,37.5C 366.5,37.5 363.5,37.5 360.5,37.5C 360.5,51.5 360.5,65.5 360.5,79.5C 363.5,79.5 366.5,79.5 369.5,79.5C 369.5,92.1667 369.5,104.833 369.5,117.5C 366.5,117.5 363.5,117.5 360.5,117.5C 360.5,129.167 360.5,140.833 360.5,152.5C 354.559,153.634 348.559,154.301 342.5,154.5C 342.5,102.833 342.5,51.1667 342.5,-0.5 Z"/></g>
<g><path style="opacity:0.975" fill="#e86071" d="M 369.5,-0.5 C 374.833,-0.5 380.167,-0.5 385.5,-0.5C 387.961,0.531006 390.627,1.19767 393.5,1.5C 393.821,3.04814 394.821,3.71481 396.5,3.5C 396.5,40.5 396.5,77.5 396.5,114.5C 387.683,116.955 378.683,117.955 369.5,117.5C 369.5,104.833 369.5,92.1667 369.5,79.5C 382.446,78.5519 388.779,71.5519 388.5,58.5C 387.897,46.2847 381.564,39.2847 369.5,37.5C 369.5,24.8333 369.5,12.1667 369.5,-0.5 Z"/></g>
<g><path style="opacity:0.99" fill="#e87973" d="M 487.5,-0.5 C 495.167,-0.5 502.833,-0.5 510.5,-0.5C 511.833,50.5 511.833,101.5 510.5,152.5C 501.981,154.294 493.314,154.961 484.5,154.5C 484.5,103.167 484.5,51.8333 484.5,0.5C 485.791,0.737305 486.791,0.403972 487.5,-0.5 Z"/></g>
<g><path style="opacity:0.953" fill="#e98073" d="M 510.5,-0.5 C 519.833,-0.5 529.167,-0.5 538.5,-0.5C 539.568,0.434475 540.901,0.767809 542.5,0.5C 542.83,18.3412 542.497,36.0079 541.5,53.5C 539.202,44.7041 533.535,39.5375 524.5,38C 520.848,37.5014 517.182,37.3347 513.5,37.5C 513.167,51.1829 513.501,64.8496 514.5,78.5C 522.939,80.2793 530.605,78.6126 537.5,73.5C 538.879,70.7415 540.213,68.0748 541.5,65.5C 542.485,82.423 542.818,99.423 542.5,116.5C 532.861,117.36 523.194,117.693 513.5,117.5C 513.5,129.167 513.5,140.833 513.5,152.5C 512.5,152.5 511.5,152.5 510.5,152.5C 511.833,101.5 511.833,50.5 510.5,-0.5 Z"/></g>
<g><path style="opacity:0.989" fill="#ea9876" d="M 632.5,-0.5 C 637.833,-0.5 643.167,-0.5 648.5,-0.5C 648.5,51.1667 648.5,102.833 648.5,154.5C 646.901,154.232 645.568,154.566 644.5,155.5C 644.167,155.5 643.833,155.5 643.5,155.5C 636.998,154.617 630.332,153.951 623.5,153.5C 624.491,102.875 624.824,52.2087 624.5,1.5C 627.167,0.833333 629.833,0.166667 632.5,-0.5 Z"/></g>
<g><path style="opacity:0.945" fill="#ebb178" d="M 746.5,-0.5 C 754.167,-0.5 761.833,-0.5 769.5,-0.5C 769.5,14.1667 769.5,28.8333 769.5,43.5C 764.463,43.4126 759.463,43.746 754.5,44.5C 754.5,80.5 754.5,116.5 754.5,152.5C 749.196,153.384 743.863,154.051 738.5,154.5C 738.828,103.428 738.495,52.4283 737.5,1.5C 740.5,0.833333 743.5,0.166667 746.5,-0.5 Z"/></g>
<g><path style="opacity:0.972" fill="#eab979" d="M 769.5,-0.5 C 772.833,-0.5 776.167,-0.5 779.5,-0.5C 785.272,0.321607 790.939,1.65494 796.5,3.5C 797.829,53.5297 797.829,103.53 796.5,153.5C 793.119,153.54 789.786,153.207 786.5,152.5C 786.667,121.832 786.5,91.1649 786,60.5C 784.359,51.0267 778.859,45.36 769.5,43.5C 769.5,28.8333 769.5,14.1667 769.5,-0.5 Z"/></g>
<g><path style="opacity:0.975" fill="#ebd77c" d="M 925.5,-0.5 C 929.5,-0.5 933.5,-0.5 937.5,-0.5C 937.333,13.504 937.5,27.504 938,41.5C 938.383,42.056 938.883,42.3893 939.5,42.5C 933.04,44.6494 927.206,47.9828 922,52.5C 912.146,69.4883 912.146,86.4883 922,103.5C 926.788,107.974 932.288,110.974 938.5,112.5C 937.518,126.755 937.184,141.088 937.5,155.5C 932.833,155.5 928.167,155.5 923.5,155.5C 919.981,154.368 916.314,153.368 912.5,152.5C 910.52,103.316 909.854,53.9825 910.5,4.5C 915.536,2.66458 920.536,0.997918 925.5,-0.5 Z"/></g>
<g><path style="opacity:0.967" fill="#ebdd7d" d="M 937.5,-0.5 C 944.833,-0.5 952.167,-0.5 959.5,-0.5C 961.715,0.2679 964.048,0.934566 966.5,1.5C 965.518,15.7548 965.184,30.0882 965.5,44.5C 956.924,42.858 948.257,42.1913 939.5,42.5C 938.883,42.3893 938.383,42.056 938,41.5C 937.5,27.504 937.333,13.504 937.5,-0.5 Z"/></g>
<g><path style="opacity:0.95" fill="#e97473" d="M 484.5,0.5 C 484.5,51.8333 484.5,103.167 484.5,154.5C 477.758,154.489 471.092,153.822 464.5,152.5C 464.5,102.5 464.5,52.5 464.5,2.5C 471.157,1.73954 477.823,1.07288 484.5,0.5 Z"/></g>
<g><path style="opacity:0.985" fill="#ea8674" d="M 542.5,0.5 C 552.671,2.09018 561.671,6.09018 569.5,12.5C 569.5,43.1667 569.5,73.8333 569.5,104.5C 568.284,106.451 566.618,107.951 564.5,109C 557.377,112.207 550.044,114.707 542.5,116.5C 542.818,99.423 542.485,82.423 541.5,65.5C 541.5,61.5 541.5,57.5 541.5,53.5C 542.497,36.0079 542.83,18.3412 542.5,0.5 Z"/></g>
<g><path style="opacity:0.898" fill="#e99d77" d="M 648.5,-0.5 C 650.167,-0.5 651.833,-0.5 653.5,-0.5C 658.073,0.33264 662.739,1.33264 667.5,2.5C 668.5,52.4956 668.833,102.496 668.5,152.5C 661.864,153.448 655.197,154.115 648.5,154.5C 648.5,102.833 648.5,51.1667 648.5,-0.5 Z"/></g>
<g><path style="opacity:0.988" fill="#eb9278" d="M 624.5,1.5 C 624.824,52.2087 624.491,102.875 623.5,153.5C 621.295,153.148 619.462,152.148 618,150.5C 617.333,101.5 617.333,52.5 618,3.5C 619.789,1.77099 621.956,1.10433 624.5,1.5 Z"/></g>
<g><path style="opacity:0.99" fill="#eaaa78" d="M 737.5,1.5 C 738.495,52.4283 738.828,103.428 738.5,154.5C 734.958,154.187 731.625,154.521 728.5,155.5C 728.167,155.5 727.833,155.5 727.5,155.5C 719.616,154.691 711.616,153.691 703.5,152.5C 703.5,104.833 703.5,57.1667 703.5,9.5C 714.688,6.20307 726.021,3.5364 737.5,1.5 Z"/></g>
<g><path style="opacity:0.952" fill="#ebe37d" d="M 966.5,1.5 C 974.706,3.29049 982.706,5.79049 990.5,9C 991.624,9.83884 992.291,11.0055 992.5,12.5C 990.467,25.5947 986.467,37.928 980.5,49.5C 975.268,48.2001 970.268,46.5335 965.5,44.5C 965.184,30.0882 965.518,15.7548 966.5,1.5 Z"/></g>
<g><path style="opacity:0.969" fill="#e7436e" d="M -0.5,145.5 C -0.5,143.833 -0.5,142.167 -0.5,140.5C 19.1688,108.802 38.5021,76.8023 57.5,44.5C 41.5139,43.5006 25.5139,43.1672 9.5,43.5C 6.83333,29.8333 6.83333,16.1667 9.5,2.5C 48.8347,2.33335 88.1681,2.50001 127.5,3C 129.587,6.5871 130.421,10.4204 130,14.5C 110.5,46.6667 91,78.8333 71.5,111C 89.4969,111.5 107.497,111.667 125.5,111.5C 125.838,117.042 126.505,122.542 127.5,128C 127.291,135.816 126.625,143.982 125.5,152.5C 84.5,152.5 43.5,152.5 2.5,152.5C 2.29268,149.759 1.29268,147.426 -0.5,145.5 Z"/></g>
<g><path style="opacity:0.988" fill="#e96771" d="M 393.5,1.5 C 423.205,8.87379 437.872,27.8738 437.5,58.5C 437.571,87.4049 423.904,106.072 396.5,114.5C 396.5,77.5 396.5,40.5 396.5,3.5C 394.821,3.71481 393.821,3.04814 393.5,1.5 Z"/></g>
<g><path style="opacity:0.99" fill="#ebbe7a" d="M 796.5,3.5 C 808.261,6.37155 817.594,12.7049 824.5,22.5C 823.506,65.7611 823.172,109.094 823.5,152.5C 821.821,152.285 820.821,152.952 820.5,154.5C 817.941,154.198 815.607,154.532 813.5,155.5C 813.167,155.5 812.833,155.5 812.5,155.5C 811.833,154.167 811.167,154.167 810.5,155.5C 810.167,155.5 809.833,155.5 809.5,155.5C 805.167,154.833 800.833,154.167 796.5,153.5C 797.829,103.53 797.829,53.5297 796.5,3.5 Z"/></g>
<g><path style="opacity:0.992" fill="#ebd17c" d="M 910.5,4.5 C 909.854,53.9825 910.52,103.316 912.5,152.5C 903.587,149.044 895.254,144.544 887.5,139C 885.536,137.549 884.203,135.716 883.5,133.5C 883.5,96.8333 883.5,60.1667 883.5,23.5C 885.285,19.8803 887.952,17.047 891.5,15C 897.539,10.9803 903.872,7.4803 910.5,4.5 Z"/></g>
<g><path style="opacity:0.968" fill="#e8466e" d="M 256.5,12.5 C 264.427,18.3278 269.927,25.9945 273,35.5C 274.158,39.7974 275.158,44.1307 276,48.5C 276.5,81.165 276.667,113.832 276.5,146.5C 270.206,147.99 263.873,149.323 257.5,150.5C 256.501,104.67 256.168,58.6697 256.5,12.5 Z"/></g>
<g><path style="opacity:0.959" fill="#ea8b74" d="M 569.5,12.5 C 572.888,13.6194 575.721,15.6194 578,18.5C 591.932,39.0645 594.599,61.0645 586,84.5C 582.817,93.1741 577.317,99.8408 569.5,104.5C 569.5,73.8333 569.5,43.1667 569.5,12.5 Z"/></g>
<g><path style="opacity:0.957" fill="#eac27a" d="M 824.5,22.5 C 829.977,28.3804 833.477,35.3804 835,43.5C 836.425,79.8112 836.925,116.145 836.5,152.5C 831.227,153.601 825.894,154.267 820.5,154.5C 820.821,152.952 821.821,152.285 823.5,152.5C 823.172,109.094 823.506,65.7611 824.5,22.5 Z"/></g>
<g><path style="opacity:0.95" fill="#ebcc7b" d="M 883.5,23.5 C 883.5,60.1667 883.5,96.8333 883.5,133.5C 872.634,122.115 866.468,108.448 865,92.5C 861.633,71.6385 864.967,51.9719 875,33.5C 877.614,29.9095 880.448,26.5762 883.5,23.5 Z"/></g>
<g><path style="opacity:0.977" fill="#ebde7d" d="M 965.5,68.5 C 965.5,97.1667 965.5,125.833 965.5,154.5C 964.508,154.328 963.842,154.662 963.5,155.5C 954.833,155.5 946.167,155.5 937.5,155.5C 937.184,141.088 937.518,126.755 938.5,112.5C 942.833,112.5 947.167,112.5 951.5,112.5C 951.5,98.5 951.5,84.5 951.5,70.5C 956.183,69.9262 960.85,69.2596 965.5,68.5 Z"/></g>
<g><path style="opacity:0.985" fill="#ebe47d" d="M 999.5,70.5 C 999.5,95.5 999.5,120.5 999.5,145.5C 988.397,149.311 977.064,152.311 965.5,154.5C 965.5,125.833 965.5,97.1667 965.5,68.5C 976.767,67.8769 988.1,68.5436 999.5,70.5 Z"/></g>
</svg>
