<?xml version="1.0" encoding="UTF-8"?>
<svg id="Layer_1" xmlns="http://www.w3.org/2000/svg" version="1.1" viewBox="0 0 500 500">
  <!-- Generator: Adobe Illustrator 29.1.0, SVG Export Plug-In . SVG Version: 2.1.0 Build 142)  -->
  <defs>
    <style>
      .st0 {
        fill: #fff;
      }

      .st1 {
        fill: #293780;
      }
    </style>
  </defs>
  <path class="st1" d="M398.3,7c-4.2,4.2-10.3,9.7-12.8,11.6-5.8,4.2-10.6,7.1-15.6,9.5-1.9.9-3.8,1.9-4.3,2.1-.5.2-1.1.5-1.3.5s-.8.2-1.2.4c-2.8,1.4-11.5,3.7-17.9,4.6-6.5,1-20.2.7-26.8-.5-5.3-1-11.1-2.4-15.3-3.7-1.4-.4-3.1-1-3.7-1.2-1.2-.4-6.8-2.5-7.9-3-.4-.2-1.7-.7-2.9-1.2-2.3-.9-9.6-4.3-10.4-4.8-.3-.2-1.7-.9-3.2-1.7s-3-1.6-3.4-1.8c-.4-.2-1.7-1-3-1.7-4-2.3-7.7-4.5-9.8-5.9-4.1-2.8-8.3-5.4-8.7-5.4s-1.7.9-3.3,1.9c-6.1,4.1-9.6,6.3-15.2,9.4-5.7,3.3-20.3,10.5-21.1,10.5s-.7.2-1.2.5c-2.3,1-6,2.4-10.3,3.8-18.9,6.2-36.4,7.2-52.6,3.1-3.4-.8-5.7-1.5-6.7-1.9-.5-.2-1.5-.6-2.4-.9-2.5-1-2.7-1.1-6.5-2.9-10.3-4.9-19-11.3-29-21.5-1.7-1.7-3.3-3.1-3.6-3.1s-1.7,1-3.1,2.3-3.3,2.9-4.2,3.7c-.9.7-2.9,2.4-4.3,3.7s-4.7,4-7.1,6c-4.7,3.9-5.4,4.6-8.1,6.9-.9.8-2.4,2.1-3.3,2.9s-4.5,3.8-7.9,6.7c-10.3,8.8-11.8,10.1-13.2,11.2-.7.5-3.4,2.8-6,5.1-2.6,2.2-5.5,4.7-6.6,5.6s-1.9,1.7-2,1.9c0,.2,1.5,1.5,3.3,2.8,5.3,4,9.1,7.4,14.4,13.1,1.4,1.6,5.7,7.2,7.4,9.7,2.3,3.6,7.2,13.5,7.2,14.6s.2.8.5,1.4c.4,1.1,1.7,5.1,2.2,7.3,3.2,13.1,3,29.5-.5,47-.8,4.1-3.1,13.1-3.8,15.5-.2.5-.8,2.6-1.4,4.5-1.3,4.4-2,6.4-2.4,7.1-.2.3-.4,1.1-.6,1.9-.3,1.1-4.7,12.7-5.4,14.4-.7,1.5-4.5,11.5-5.4,13.8-.4,1.1-1,2.9-1.4,3.9-.4,1-.8,2.3-1,2.9-.1.5-.9,2.8-1.6,5.1-1.3,3.8-2.8,8.9-4,13-.3,1-.6,2.3-.8,2.9-.2.5-.6,2.4-1,4-.4,1.7-.9,3.9-1.2,4.9-1,3.9-2.4,11.4-3.2,17.2-.2,1.4-.5,3.2-.7,4-.4,2.2-.9,7.7-1.3,16.9-.3,6.1-.3,9.5,0,14.8.6,10.9.9,13.3,2.2,19.7,1.3,6.4,1.6,7.5,2,9.2,1,3.5,1.6,5.7,2.4,8,.5,1.3,1,2.9,1.2,3.5.2.6.4,1.3.6,1.5.1.2.5,1.1.9,2,.3.9,1.4,3.4,2.4,5.6s2,4.2,2.2,4.5.4.9.6,1.2c.2.3,1,1.7,1.8,3,3.5,6.2,7.3,11.8,13,18.9,4.4,5.5,14,15.2,20.7,20.8,7.9,6.5,14.1,11,24.8,17.8,3.6,2.3,12.2,6.4,16,7.6.5.1,2.6.9,4.7,1.7,2.1.8,5,1.8,6.2,2.2,1.3.4,5,1.8,8.3,2.9,3.2,1.1,7.2,2.5,8.8,3,2.8.9,3.7,1.2,6,2.2.6.3,1.2.5,1.3.5.7,0,18,6.7,23.6,9.2,1.3.6,2.8,1.2,3.4,1.4.6.2,1.9.8,2.9,1.3s2.9,1.3,4.2,1.9c4.2,2,8.1,3.9,14.7,7.5,1,.6,2.5,1.4,3.3,1.8.8.4,2.3,1.3,3.3,2,1,.6,2,1.2,2.1,1.2.5,0,11.6,7.8,13.7,9.6s3.1,2.6,4.1,3.4c4.4,3.5,12.2,12,15.3,16.6,1.7,2.5,2.4,2.9,2.9,1.7.9-2.1,6.1-8.3,10.5-12.7,5.8-5.8,13.3-11.9,18.8-15.3.3-.2,1.5-.9,2.6-1.7s2.3-1.5,2.6-1.7c.3-.2,2.1-1.2,3.9-2.4,1.8-1.1,7.2-4,12.1-6.4,8.1-4,10.4-5.2,14.7-7,.8-.4,2.1-.9,2.9-1.3.7-.3,2.8-1.1,4.5-1.9,1.8-.7,3.7-1.4,4.2-1.7.6-.2,2.5-1,4.2-1.7,1.8-.6,3.5-1.3,3.9-1.5s1.7-.6,2.9-1c1.2-.4,2.5-.9,2.9-1,1.6-.7,8.5-3.1,15.5-5.5,2.4-.8,5.7-2,7.2-2.6,1.6-.6,3.3-1.2,3.9-1.3.6-.2,2.5-.8,4.4-1.5s3.8-1.3,4.4-1.5c.6-.2,1.3-.5,1.7-.6s2.9-1.2,5.6-2.4c8-3.3,20.4-11.5,32.7-21.4,8.3-6.7,18.8-17.3,24.5-24.8,4-5.3,9.6-13.3,9.6-13.9s.7-1.4,1.6-2.9c.9-1.4,2.4-4.4,3.5-6.7,2.8-5.8,3-6.4,3-7s.1-.6.3-.8c.3-.3,2.2-5.2,2.8-7.1.4-1.2,1.9-6.5,2.5-8.7,1.5-5.3,3.3-16.8,3.8-23.8.4-5.5.3-18.1-.2-24.3-.4-5.3-1.3-12.6-2.3-18.5-.3-1.8-.7-4-.8-5.1-.2-1-.7-3.4-1.1-5.2-.5-1.9-1.1-4.6-1.4-6.1-.3-1.5-.8-3.4-1-4.2s-.7-2.5-1-3.7c-1.1-4.3-1.6-6-2.8-9.6-1.5-4.7-4.1-12.6-4.4-13.5-1.5-3.8-2.4-6.2-2.6-7-.1-.5-.3-1-.5-1.1s-.3-.4-.3-.7-.2-1-.5-1.6c-.5-1.1-3.5-8.5-4.7-11.5-.4-.9-.8-2.2-1-2.7-.2-.6-.4-1.3-.6-1.7-1.1-2.4-4.5-12.7-6.1-18.4-.6-2-1.2-4.4-1.6-5.4-.7-2.5-1.4-5.5-1.8-7.9-.2-1.1-.4-2.1-.5-2.3-.2-.4-1-4.9-1.9-11.1-.6-4.5-.7-6.6-.7-15.2,0-8.7.1-10.4.7-14,1.4-7.6,2.4-11.6,4.3-16.4,1.4-3.5,4.9-10.5,6.2-12.5.5-.7,1.3-2,1.8-2.7,2.2-3.6,9.8-12.1,14.1-15.8,3.9-3.4,7.2-6.1,9.2-7.3.8-.5,1.3-1.6.6-1.6s-1.7-1.2-3.4-2.7c-1.8-1.5-3.5-3-4-3.4-1.3-1-4.8-4.1-5.3-4.4-.2-.2-2.5-2.2-5.2-4.4s-5.8-4.9-7-6c-1.2-1.1-2.9-2.5-3.7-3.2-.8-.6-2.3-1.9-3.2-2.7s-4.4-3.8-7.7-6.6c-3.3-2.8-7.3-6.2-8.9-7.6s-4.1-3.5-5.6-4.8c-2.4-2-9.6-8.1-10.9-9.3-.5-.4-1,0-4,3.1Z"/>
  <path class="st0" d="M253.3,15.4c1.6,1.1,3.5,2.2,4.1,2.6.6.4,1.4.8,1.7,1.1.3.3.6.5.8.5s.5.2.8.5c.3.2,1.3.9,2.2,1.4.9.5,2.3,1.3,3,1.7,6.4,3.7,14.2,7.5,22.9,11.1,2,.8,9.5,3.5,11.5,4,1.1.3,2.6.8,3.4,1,4.9,1.5,9.7,2.5,19.5,3.9,4,.6,17.3.6,21.2,0,7.9-1.2,12.7-2.3,19-4.5,3.4-1.2,9.3-3.7,11.6-5.1.9-.5,1.7-.9,1.8-.9.2,0,3.4-1.9,6.7-4,2.5-1.6,7.2-5,7.8-5.6.2-.2.7-.6,1.1-.8.9-.6,4.8-3.9,7.4-6.4,1.1-1.1,2.3-2,2.5-2s.9.4,1.5.9,1.8,1.5,2.7,2.3c.9.7,3.7,3.2,6.3,5.4,2.6,2.2,5.3,4.5,6,5.1.7.6,2.3,2,3.7,3.2,1.3,1.2,2.9,2.5,3.4,2.9s2.4,2,4.1,3.5,3.6,3.1,4.1,3.5c1.3,1.1,15.4,13.2,17.4,14.8,3.3,2.8,4.2,3.7,4.2,4,0,.2-.9,1-1.9,1.9-1.7,1.4-7.7,7.3-9.7,9.6-.5.5-1.2,1.4-1.7,1.9-1.8,2-5.7,7.5-7.8,11.1-1.2,2.1-2.3,3.8-2.3,3.9s-.6,1.3-1.3,2.8c-1.3,2.7-2.3,5.1-3.3,8-.3.9-.8,2.2-1,2.8-.3.6-.5,1.3-.5,1.6s-.2,1.3-.5,2.3c-.4,1.6-.8,3.6-1.9,8.7-.8,4.2-1.2,14.7-.8,22.4.2,4.1.5,8.2.7,9.1.2.9.5,3.3.8,5.2.7,4.6,1.4,8.5,2.1,10.8.3,1,.6,2.5.8,3.4.3,1.3.7,3.1,1.6,6.7.2.6.5,1.6.7,2.2.2.5,1.5,4.6,2.9,8.9,1.4,4.3,3,9.1,3.6,10.6.6,1.5,1.2,3.2,1.5,3.9.4,1.1,1.3,3.5,3.5,8.9,1,2.6,1.5,3.8,2.6,6.7.3.7.7,1.9,1,2.5s.5,1.2.5,1.4.2.8.5,1.4c.3.6.5,1.4.6,1.8s.7,2.2,1.4,4c.7,1.9,1.4,3.8,1.6,4.4.1.5.6,2,.9,3.2,2.3,7.4,4.5,15.5,5.1,18.4.1.7.6,2.8,1,4.5,2.2,9.5,3.4,18.8,4.2,30.5.5,7.2.5,9.5.2,16.1-.6,10.9-1.8,19.6-3.9,27.4-1,3.7-1.6,5.7-1.9,6.3-.1.4-.4,1.2-.6,1.9-.2.6-.6,2-1,3s-.8,2.2-.9,2.5c-.1.4-.4,1-.7,1.3-.2.4-.4.9-.4,1.1,0,.8-6.2,13-8.1,15.8-.5.8-1,1.5-1,1.6,0,.4-7.6,10.9-8.4,11.6-.1.1-.8.9-1.5,1.9-5.8,7.2-17.7,18.3-26.9,25.2-1.7,1.2-3.5,2.6-3.9,2.9-1.1.8-10.6,7.2-13.1,8.8-3.2,2-13,6.4-14.2,6.4s-.8.2-1.4.5c-2.2.9-3.1,1.3-6.9,2.6-7.5,2.6-19.8,6.8-23.6,8.3-1.4.5-3.1,1.1-11.5,4.2-1.6.6-3.2,1.2-3.5,1.3s-1.8.7-3.2,1.3c-8.1,3.2-14.8,6.2-22.2,9.7-3.7,1.8-3.2,1.5-7.6,3.8-7.9,4.2-17.2,9.7-20.3,12.1-.5.4-2.6,1.9-4.5,3.3-1.9,1.4-4.9,3.7-6.6,5.2-3.4,2.8-11.3,10.6-12.2,12-.3.5-.8.9-1,.9s-1.4-1-2.6-2.3c-5.5-6-11.4-11.2-18.5-16.5-3.3-2.5-9.2-6.4-11.2-7.4-.6-.3-1.6-.9-2.2-1.3-1-.7-2.8-1.8-8.8-4.9-5.3-2.8-18.8-9.4-19.4-9.4s-.7-.2-1.2-.5c-.5-.3-1.6-.7-2.3-1.1-.7-.3-1.6-.7-1.9-.8-.3-.2-2-.8-3.7-1.5-1.7-.7-3.4-1.3-3.8-1.5-.8-.4-3.9-1.6-5.6-2.2-2-.7-4.2-1.6-4.9-1.9-.4-.2-1.1-.4-1.7-.6-.5-.2-2.3-.8-3.9-1.4-3.4-1.2-7.4-2.7-11.5-4-1.6-.5-4.8-1.7-7.2-2.6-2.4-.8-5.7-2-7.2-2.5-1.6-.5-3.7-1.3-4.7-1.7-1-.4-2.5-.9-3.2-1.1-3.1-1-9.3-3.7-12.4-5.5-6-3.4-20.2-13.5-25.4-17.9-5.4-4.7-9.1-8-12.3-11.4-3.7-3.8-10.4-11.4-10.4-11.8s-.4-.6-.8-1.1c-1.3-1.4-7.2-10-8.6-12.6-.4-.7-1-1.8-1.4-2.5-2.7-4.6-6.2-12.5-8.7-19.9-5.2-15.2-7.5-36-5.9-53.4.9-10,2.3-19.8,3.1-22.5.3-.9.5-2.1.5-2.6s.1-1.3.3-1.8c.2-.5.5-1.8.7-2.8.4-2.6,1-5.1,2.7-11,1.9-6.9,3.1-10.9,6.6-21.1,1.3-3.7,4.5-12.4,5.2-14,.3-.7,1.3-3.2,2.2-5.4s1.8-4.6,2.1-5.2c.9-2.3,3.2-8.7,4.4-12.5.7-2.1,1.4-4.2,1.6-4.5.3-.8,3.3-11.4,3.7-13,.2-.6.5-2.3.8-3.5,4.6-19.8,5.4-36.7,2.5-52.2-2.2-12-7.7-24.4-15-34-3.6-4.8-9.3-10.8-14.5-15.4-.8-.7-1.4-1.4-1.4-1.6s.8-1,1.9-2c1-.9,2.4-2.1,3-2.6.6-.6,2.1-1.9,3.4-2.9,1.2-1,2.6-2.1,2.9-2.5s2-1.8,3.7-3.2c1.7-1.4,3.5-2.9,3.9-3.3s1.6-1.3,2.4-2c.8-.7,3.5-2.9,5.9-5s4.6-3.9,5-4.3c.4-.3,4-3.4,8.2-6.9,4.1-3.5,7.7-6.6,8.1-6.9.4-.3,1.6-1.3,2.6-2.3,1.1-.9,2.2-1.8,2.5-1.8s1.4.9,2.5,2c3.9,3.6,5.6,5.1,9.3,8,5,3.9,11.5,8,16.3,10.4,6.3,3,7.3,3.5,12.7,5.3,4.9,1.6,10,2.7,17.3,3.8,3.9.6,16.5.6,20.9,0,6.5-.8,15.5-2.7,19.7-4,.8-.3,2.4-.7,3.4-1,3.6-1.1,11.8-4.1,13.6-5,.5-.3,1.1-.5,1.3-.5.3,0,4.8-2.1,10.5-4.9,3.7-1.9,9.6-5.1,13.5-7.4,1.6-1,3-1.8,3.1-1.8s1.8-1.1,3.9-2.5c2.1-1.4,4-2.5,4.2-2.5s1.8.9,3.4,1.9Z"/>
  <path class="st1" d="M247.3,23.1c-1.3.8-2.4,1.5-2.5,1.5s-.9.5-1.9,1.1c-1.6,1-3.1,1.9-8.5,5-3.4,2-12.7,6.4-17.3,8.4-1,.4-1.8.8-1.8,1-.2,37.4-.1,62,.3,62.2.2,0,1.4,0,2.7-.3,9.7-2.1,16.5-2.7,31.7-2.7s22.2.6,31.9,2.7c1.6.3,2.6.4,2.8.2s.3-12.3.2-31.3v-31c-.1,0-4-1.7-4-1.7-6.7-3-14.7-7-19-9.6-.9-.5-1.7-1-1.8-1-.3,0-6.7-4-8.4-5.1-.7-.5-1.6-.9-1.9-.9s-1.6.7-2.8,1.5Z"/>
  <path class="st1" d="M97.6,23.5c-.3.5-.2,174.6.1,174.6.5,0,.9-.7,1.4-2.2,1-3.4,7.4-16.1,10.1-20.2.4-.6.8-1.2.9-1.5.7-1.6,10.6-15.4,11.6-16.2.1-.1,1-1.1,2-2.4,7.2-8.5,19.2-19.6,26.8-24.8s2.5-1.8,3.5-2.5c1.6-1.1,6.7-4.4,8.7-5.6.3-.2,1.4-.8,2.5-1.4,1.1-.6,2-1.2,2.1-1.4.2-.4.2-68.7,0-69.1-.1-.2-1.2-.3-2.5-.3-5.7,0-14.2-1-19.6-2.2-3.9-.9-11.4-3.1-13-3.8-.4-.2-1.7-.7-2.9-1.2-5.1-2.1-10.7-5-16.2-8.5-2.4-1.6-11.6-8.5-13.4-10.2-1.5-1.4-1.9-1.6-2.2-1.1Z"/>
  <path class="st1" d="M399.3,25.4c-14.4,12.5-31.2,20.7-49,23.8-3.2.6-10.3,1.2-15.8,1.5h-1.7v69.4l4.4,2.7c4,2.4,7.2,4.5,12.8,8.5,1.7,1.2,6.1,4.7,10.7,8.6.6.5,3.9,3.7,7.4,7.3,5.8,5.8,10.1,10.6,14.3,16.2,1.6,2.1,7.4,10.7,7.8,11.6.1.3.5.9.9,1.5.3.5.8,1.4,1.1,1.9,1.6,2.8,3,5.5,3.9,7.4.6,1.2,1.4,2.8,1.7,3.5,1,1.9,3,6.6,3.4,7.9.2.6.4,1,.6.9.4-.3.4-174.7,0-174.7s-1.4,1-2.8,2.2Z"/>
  <path class="st1" d="M237.1,111.4c-5.9.4-7.5.6-13.6,1.7-1.6.3-3.3.6-3.9.7-2.1.3-9.8,2.1-11,2.5-.5.2-2.1.6-3.5,1-3.1.9-7.2,2.2-11.3,3.7-3.1,1.1-3.5,1.3-5.7,2.3-.8.4-3.1,1.4-5.1,2.3-6.7,3-14.1,7.1-19.3,10.7-1.3.9-2.4,1.6-2.5,1.6-.2,0-3.5,2.4-7.2,5.3-14.2,10.9-26.6,24.9-35,39.4-1,1.7-1.9,3.3-2.1,3.5-1.3,2.3-6,12-7.2,15.2-1.7,4.3-4.6,13-4.6,13.8s-.2,1.1-.5,1.9c-.6,1.9-1.4,5.5-2.1,9.3-.3,1.8-.7,4.2-.9,5.4-1.2,7.4-1.6,18.1-.8,26.9.3,3.8.7,7.5.8,8.4.2.8.6,3.1.9,5.1.3,2,.9,5,1.4,6.7s1,4,1.3,5.1c.9,3.5,3.9,12.3,5.7,16.2.8,1.8,5.5,11.4,6,12.1.2.3,1.1,1.9,2.1,3.5,1,1.7,1.9,3.2,2.1,3.4.2.2,1,1.5,2,2.9,2,3,3.8,5.6,4.6,6.6.3.4,1.7,2.1,3.1,3.9,2.6,3.3,8.3,9.4,11.1,12.1,9,8.5,14.9,13,25.1,19.5,5.4,3.4,15.4,8.6,21.1,10.9,1,.4,2.1.9,2.4,1,2,1,12,4.2,19.3,6.2,1.1.3,2.4.7,2.9.8,1.1.4,7.1,1.5,11.5,2.2,2,.3,4.5.7,5.7.9,9.4,1.5,32,1.5,40.4,0,1-.2,3.5-.6,5.6-.9,5.2-.8,12.2-2.2,14.8-3,.7-.2,2.3-.7,3.5-1,1.2-.3,3.3-.9,4.5-1.4,1.3-.4,2.8-.9,3.4-1.1,1.2-.3,5.4-1.9,7.4-2.8.8-.4,1.5-.6,1.6-.6.4,0,3.9-1.7,9.4-4.4,6.5-3.2,8.5-4.3,13.3-7.4,6.1-3.9,9.1-6,14.5-10.3,4.5-3.6,16.8-15.7,20-19.7,3.6-4.6,8-10.4,9.6-13,1.9-3,4-6.5,4.1-6.9.1-.3.6-1,.9-1.7,3.5-5.7,9.7-20.5,11.1-26.3.2-.6.6-2.4,1-3.9,1.9-6.9,2.8-12.3,3.7-21.4.4-4.3.2-21.9-.3-25.9-1.1-8.2-1.9-11.8-3.4-17.7-.4-1.5-.8-3.2-1-3.9-.2-.6-.7-2.6-1.3-4.2-3.9-11.4-7.4-18.6-14.7-30.5-1.2-1.9-2.7-4-5.4-7.6-1.7-2.2-3.3-4.4-3.7-4.9-3.2-4.3-13.3-14.4-20.1-19.9-2.1-1.7-10-7.7-10.3-7.7s-1.1-.6-2.3-1.4c-5.5-3.6-8.6-5.4-15.4-8.8-4.9-2.5-7.9-3.9-8.2-3.9s-1.1-.5-2.3-1c-1.2-.6-2.4-1-2.7-1s-.6-.1-.7-.3-.6-.4-1.1-.5c-.5-.1-2.2-.7-3.8-1.2-4.1-1.4-4.7-1.7-6.7-2.2-8.4-2.4-11.1-2.9-19.2-4.3-1.8-.3-4.1-.7-5.2-.9-6.4-1.1-24.5-1.5-34-.8ZM161,149.4c1,.8,2.6,2,3.7,2.8,7.3,5.4,43.4,32.5,44.9,33.7,2.1,1.7,2.5,1.7,6.9.4,3.1-.9,7.5-1.9,10.4-2.4,10.1-1.6,30-1.1,39.2,1,3.8.9,10.6,2.9,12.5,3.7,2.4,1,4.9,2,5.2,2s5.4-3.7,7.6-5.5c5.6-4.5,49.9-37.3,50.4-37.3.8,0,6.9,5,11.7,9.5,4.1,3.8,10.9,11.5,14.2,15.8,2.4,3.2,7.5,10.6,7.5,11s.7,1.3,1.6,2.7c1.4,2.4,6.5,12.3,6.5,12.7s.2.7.5,1.2c1.9,4.3,3.8,9.6,4.8,13.1,1.2,4.4,2.8,10.7,3,12.6.1.7.3,2,.5,2.9,1.3,6.1,1.9,23.9,1,31.2-.6,5.5-1,8.1-1.5,10.4-.3,1.3-.7,3.5-1,4.9-.3,1.4-.6,3-.8,3.5-.2.5-.6,2-.9,3.2-1.8,6.4-4.7,14.1-8.3,21.2-1.5,3-4.3,8.2-4.9,8.8-.3.3-.5.7-.5.8,0,.3-4.1,6.4-6.2,9.3-3.5,4.9-11.5,14.1-14.2,16.4-.7.6-2.4,2.1-3.7,3.4-3.7,3.5-14.4,12-16.5,13.1-2.3,1.1-5,.8-6.9-.8-2.6-2.2-3.3-5-2-7.7.8-1.6,1.1-1.9,6.7-6.1,16.2-12.1,28.7-27,36.7-43.8,2.4-5,2.4-5.1,3.4-7.5.4-1,.9-2.2,1.1-2.7,1.4-3.4,4-12.6,4.7-16.3,1.5-8.3,1.7-10.7,1.9-19.5.1-7.8,0-9.9-.5-15.1-.4-3.3-.8-6.6-1-7.4-1.6-7-3-12.4-3.9-14.8-.9-2.7-2.6-7-3-7.9-.4-1-2.4-5.3-2.9-6.2-.5-1-3.2-5.9-3.8-6.9-.3-.6-.7-1.2-.8-1.5-1-2.3-8.4-12.4-11.9-16.2-3.9-4.3-8.1-8.6-10.2-10.5l-1.9-1.7-3.6,2.8c-2,1.5-4.4,3.4-5.4,4.1-3.8,2.8-20.5,15.5-20.7,15.7s-.7.6-1.3,1-1.5,1.1-1.9,1.4-1.1.9-1.8,1.3c-2.9,2.1-10.9,8.2-10.9,8.4,0,.1,1,1.2,2.4,2.6,4.5,4.6,7.7,10.5,9,16.6.6,3.3.5,10.5-.3,14-2.2,9.2-6.9,16.7-15.1,23.9-3.7,3.3-5.9,5.1-9.4,7.4-3.9,2.7-6.8,4.7-7.5,5.1-.3.2-2.4,1.4-4.5,2.7-4,2.5-4.7,2.8-10,5.7-1.7.9-3.4,1.8-3.8,2.1-.4.3-3.5,1.9-6.9,3.6-18.3,9.4-27.3,14.7-34.2,19.9-2.9,2.2-2.4,2.6,2.2,1.7,12.7-2.3,29-2.9,53.2-1.9,6.1.2,14.3.4,18.2.3h7.1c0-.1,2.4-1.3,2.4-1.3,4.8-2.5,8.4-8.4,10.6-17.7.3-1.3.7-2.6.8-2.8.1-.2,1.9-.4,4.6-.4h4.4l-.2,1.2c0,.7-.5,3.5-1,6.2-.5,2.7-1.1,6.2-1.4,7.9-.3,1.7-.7,3.7-.9,4.5-.3,1.5-1.1,6.3-1.7,9.6-.3,1.6-.8,4.3-1.8,9.6l-.4,2.2-7.4.3c-7.4.3-42.3-.2-55.4-.8-8.9-.4-45.1-.4-49.9,0-2.1.2-5.9.4-8.4.5l-4.5.2-.8-.8c-.8-.8-.8-.9-.2-1.8,1-1.6,4.6-6.2,6-7.9,8.1-9,17.1-15.9,35.1-26.7,5.9-3.5,19.2-12.8,22.4-15.5.7-.6,2.4-2,3.9-3.2,4-3.3,12.1-11.6,15-15.4,2.6-3.4,6-9.2,6-10s.1-.6.3-.8c.3-.4,1.5-3.9,2.1-6.5.6-2.3.5-9.7,0-12.2-.7-3.3-1.4-5.3-1.7-5.3s-2.3,1.2-2.7,1.7c-.1.1-3,2.4-6.6,5-3.5,2.7-6.7,5.1-7.1,5.4s-1.3,1-2,1.6c-.7.5-1.7,1.3-2,1.6-.9.9-2.1,1.3-2.8,1-.3-.1-1.6-1-2.8-1.9-1.2-.9-2.9-2.3-3.9-3-.9-.7-2-1.6-2.4-1.8-.6-.5-12.7-9.7-14.6-11.1-.5-.4-2.7-2-5-3.7-3.7-2.7-7.8-5.9-10.5-8s-2.6-2-4.3-.7c-3.8,2.7-7.7,7.4-9,11-.5,1.5-1.7,6-1.7,6.7s1.1,1.3,2.1,1.3c2.6,0,11.1,3.1,12.8,4.6.3.3.7.5.9.5.6,0,4.1,3.5,4.8,4.9,1.3,2.7,1.6,4.3.9,6.5-.7,2.3-1.3,3.1-3.3,4.6-1.9,1.4-3.3,1.9-6.2,2.3-8.3,1.1-16.4-2.2-21.2-8.5-4.4-5.8-5-14.9-1.5-23.9.6-1.4,2.3-4.8,2.6-5.1.1-.1.6-.8,1.2-1.7,1.4-2.2,5.5-6,8.4-8.1,1.4-1,2.5-2,2.5-2.2s-1.8-1.7-3.9-3.4c-2.2-1.6-4.1-3.1-4.3-3.3-.2-.2-.7-.6-1.1-.9-.7-.5-2.5-1.9-4.5-3.5-.5-.4-5.4-4.1-10.8-8.2-5.4-4.1-9.8-7.5-9.9-7.6-.1-.1-.9-.7-1.7-1.2s-1.7-1.3-2-1.6c-1-1.1-1.8-.6-7.1,4.8-2.9,2.9-5.9,6-6.6,7-.8.9-2.1,2.5-3,3.5-.8,1-2.3,2.9-3.2,4.2-.9,1.3-2.3,3.4-3.2,4.7-.9,1.2-1.6,2.3-1.6,2.4s-.4.7-.8,1.4c-4.5,7.2-8.9,17.2-11.6,26.5-.4,1.3-.9,3.2-1.2,4.2-.3,1-.5,2.1-.5,2.5s-.2,1.6-.5,2.7c-1.4,6.2-2.4,17.8-2.1,24.1.4,8.7.8,11.5,2.1,18.4,1,5.1,3.8,15,5.1,17.9.2.4.9,2,1.6,3.7,3.3,8,7,14.4,13.4,23.4,6.8,9.5,18.4,20.8,28.8,27.9,3.6,2.4,4.3,3.6,4.3,6.6s-.7,3.8-2.8,5.3c-1.2.9-1.8,1.1-3.6,1.1-2.1,0-2.2,0-5-1.9-7.5-5.2-12.6-9.5-19-15.9-6.3-6.4-7.7-7.9-11.8-13.3-18.6-24.2-27.7-53-26.1-82.5.5-9.2,1.4-15.5,3.5-23.8,1-3.9,2.7-9.6,3.4-11.2.3-.6.5-1.2.5-1.4,0-.3.7-2.2,1.3-3.4.2-.3.9-2,1.7-3.8,1.5-3.6,4.1-8.8,6-11.7.6-1,1.1-2,1.1-2.1,0-.2,2.1-3.4,5-7.5,4.5-6.5,10.1-13.1,16.6-19.5,3.3-3.2,7.9-7.2,11.2-9.8,1.1-.9,1.5-.8,3.8,1Z"/>
  <path class="st1" d="M230.2,192.6c-.6,0-2.9.4-5,.7-4.7.7-4.8.9-1.4,3.3,3.4,2.5,4.3,3.1,5.8,4.3.7.6,1.7,1.3,2.1,1.6s3.5,2.6,6.9,5.2,6.6,5,7.2,5.4,1.4,1,1.9,1.4c2,1.6,2.9,1.7,4.3.3.2-.2,3.5-2.7,7.3-5.6,3.8-2.9,6.9-5.4,6.9-5.7,0-1.2-5.5-5.2-10-7.2-5.7-2.5-11.5-3.6-19.6-3.8-2.9,0-5.8,0-6.4,0Z"/>
  <path class="st1" d="M97.5,347.3v47.3c0,0,.9.8.9.8,1.9,1.8,17.6,12.2,20.6,13.6,1.8.8,9.5,3.8,9.9,3.8s.6.1.8.3c.2.2.8.5,1.5.6.6.2,2,.7,3,1.1s2.3.8,2.9,1c.6.1,3.2,1,5.9,2s6.6,2.3,8.8,3.1c2.1.7,4.7,1.7,5.7,2s2.8,1,3.9,1.4,2.5.9,3.1,1.2c1.9.8,3.1,1,3.2.3,0-.3,0-11.2,0-24.2v-23.6c0,0-1.9-1-1.9-1-2.9-1.6-10.7-6.6-12.8-8.2-1-.8-2-1.4-2.2-1.4s-.9-.6-1.8-1.3c-.8-.7-2.3-1.9-3.3-2.6s-2.5-2-3.4-2.7c-.9-.7-2.3-1.9-3.2-2.6-2.8-2.4-10.5-10.1-14.2-14.4-3.3-3.7-10.7-13.2-10.7-13.6s-.9-1.5-2-3.1-2-3-2-3.2-.4-.9-1-1.7c-.5-.8-1-1.5-1-1.6s-.6-1.2-1.4-2.6c-2.3-3.9-5.8-11.1-7.4-15.3-.8-2.2-1.2-2.9-1.7-2.9s-.3,21.3-.2,47.3Z"/>
  <path class="st1" d="M401.1,301.9c-1.3,3.2-3.9,8.9-5.2,11.4-2.5,4.7-4.6,8.5-5.6,10-.3.5-1.2,1.9-1.9,3-1.7,2.8-5.2,7.4-9.9,13.5-3.6,4.5-12.2,13.4-17.8,18.3-7.8,6.8-16.9,13.4-25.1,18.1l-3,1.7v24.2c0,13.3.1,24.2.3,24.2.4,0,2.1-.6,4.1-1.3,1-.4,2.5-.9,3.2-1.2s3.3-1.1,5.7-2c2.4-.8,5.7-2,7.2-2.5,5.7-1.9,11.7-4,14.5-5.1,1.6-.6,3.3-1.2,3.9-1.4.6-.2,1.3-.4,1.7-.6s1.3-.5,2-.8c3.6-1.3,6.9-2.8,8.8-3.9,3.4-2,16-10.5,17.6-12l.7-.6v-47.3c0-26-.1-47.3-.3-47.4-.2-.1-.6.7-1,1.8Z"/>
  <path class="st1" d="M215.4,395.9c-.2,5.4,0,52.2.2,52.3.1.2,1.6,1,3.1,2,10.3,6.2,20,13.3,27.2,20,2.1,2,4,3.6,4.2,3.6s2-1.6,3.9-3.5c3.2-3.1,6.4-5.8,9.8-8.4.7-.5,1.5-1.2,1.9-1.5.8-.6,6.3-4.5,7.2-5,.9-.6,6.2-3.9,8.1-5.1,1-.6,1.9-1.1,2-1.1s.6-.3,1.2-.7l1-.7v-25.9c0-22.8,0-25.9-.5-26.1-.3-.1-1.6,0-3,.3-9.3,2.1-22.4,3.1-35.8,2.8-10.1-.2-22.1-1.4-28.1-2.9-1.8-.4-2.4-.4-2.4-.1Z"/>
</svg>