<svg xmlns="http://www.w3.org/2000/svg" width="264.75" height="300" viewBox="0 0 264.753 300"><title>ABC FC</title><g fill="#FFCA07"><path d="M132.47,299.05c-15.724-12.98-42.598-21.939-67.032-31.982-58.7-24.048-76.337-58.805-56.279-114.64,6.115-16.996,13.286-34.59,14.289-54.6,1.142-17.3-7.381-34.594-22.472-51.911,10.82-11.688,21.632-23.417,32.44-35.129,37.69,18.254,69.39,9.112,98.949-9.917,29.579,19.029,61.283,28.17,98.965,9.917,10.813,11.711,21.627,23.441,32.445,35.129-15.092,17.317-23.608,34.611-22.47,51.913,0.998,20.01,8.15,37.604,14.282,54.6,20.042,55.832,2.451,90.589-56.293,114.64-24.42,10.04-51.1,19-66.81,31.98" fill="#070606"/><path fill="#FFF" d="M132.47,300l-0.465-0.396c-12.578-10.38-32.833-18.363-52.422-26.088-4.751-1.878-9.669-3.82-14.418-5.769-59.2-24.25-76.684-59.9-56.681-115.55,0.652-1.832,1.325-3.669,1.995-5.514,5.588-15.308,11.356-31.141,12.249-48.877,1.06-16.162-6.225-32.985-22.295-51.416l-0.428-0.488,0.447-0.489c9.61-10.38,19.219-20.793,28.829-31.208l3.978-4.304,0.482,0.23c13.656,6.615,26.794,9.832,40.169,9.832,18.735,0,37.186-6.259,58.06-19.705l0.4-0.255,0.391,0.255c20.901,13.446,39.354,19.705,58.088,19.705,13.376,0,26.515-3.217,40.174-9.832l0.484-0.23,3.606,3.903c9.731,10.554,19.464,21.096,29.2,31.609l0.444,0.489-0.427,0.488c-16.07,18.431-23.355,35.253-22.288,51.398,0.886,17.882,6.719,33.813,12.353,49.229,0.634,1.73,1.266,3.444,1.884,5.18,19.993,55.676,2.503,91.312-56.705,115.55-4.634,1.913-9.421,3.793-14.052,5.626-19.635,7.773-39.938,15.794-52.578,26.23l-0.44,0.4zm-130.51-254.08c16.027,18.556,23.292,35.558,22.222,51.963-0.904,17.957-6.714,33.885-12.333,49.301-0.674,1.841-1.34,3.677-1.996,5.485-10.025,27.897-10.488,50.362-1.428,68.675,9.012,18.217,27.753,32.948,57.296,45.05,4.74,1.95,9.656,3.883,14.404,5.755,19.455,7.673,39.565,15.612,52.349,25.96,12.845-10.412,33.011-18.381,52.505-26.091,4.629-1.822,9.415-3.713,14.043-5.624,29.562-12.102,48.301-26.824,57.315-45.05,9.049-18.304,8.576-40.765-1.434-68.675-0.621-1.702-1.246-3.435-1.878-5.149-5.674-15.512-11.543-31.556-12.449-49.653-1.075-16.39,6.188-33.391,22.217-51.947-9.586-10.346-19.171-20.733-28.757-31.128l-2.875-3.107c-13.681,6.56-26.875,9.741-40.315,9.741-18.905,0-37.501-6.268-58.479-19.697-20.959,13.429-39.546,19.697-58.46,19.697-13.439,0-26.631-3.181-40.318-9.741l-3.236,3.501c-9.455,10.259-18.919,20.536-28.388,30.745"/><polygon points="56.595,49.138,58.665,54.961,65.3,54.961,59.932,58.544,61.979,64.352,56.595,60.751,51.216,64.352,53.289,58.544,47.898,54.961,54.558,54.961"/><polygon points="80.298,49.138,82.336,54.961,88.976,54.961,83.606,58.544,85.65,64.352,80.298,60.751,74.896,64.352,76.936,58.544,71.569,54.961,78.217,54.961"/><polygon points="103.96,49.138,106,54.961,112.66,54.961,107.26,58.544,109.32,64.352,103.96,60.751,98.588,64.352,100.62,58.544,95.255,54.961,101.89,54.961"/><polygon points="127.63,49.138,129.69,54.961,136.33,54.961,130.96,58.544,133,64.352,127.63,60.751,122.24,64.352,124.29,58.544,118.93,54.961,125.58,54.961"/><polygon points="180.79,179.79,185.42,192.85,200.41,192.85,188.3,200.94,192.91,214.04,180.79,205.94,168.67,214.04,173.31,200.94,161.18,192.85,176.16,192.85"/><path fill="#141011" d="M21.491,162.57l1.661-4.911,0.545-1.504,0.59-1.585,0.581-1.595,0.58-1.597,0.592-1.635,0.599-1.616,0.583-1.677,0.596-1.647,0.598-1.704,0.607-1.702,0.571-1.694,0.593-1.735,0.565-1.711,0.538-1.761,0.549-1.757,0.564-1.797,0.533-1.81,0.479-1.819,0.506-1.854,0.472-1.838,0.462-1.894,0.436-1.871,0.42-1.924,0.384-1.919,0.366-1.94,0.307-1.973,0.286-1.995,0.31-2,0.215-2.016,0.196-2.034,0.167-2.066,0.125-2.009,0.063-1.892,0.023-1.977-0.023-2.014-0.125-1.978-0.164-2.013-0.241-1.988-0.284-1.944-0.371-1.958-0.408-1.968-0.496-1.923-0.544-1.939-0.597-1.934-0.642-1.925-0.739-1.886-0.749-1.912-0.808-1.872-0.872-1.882-0.904-1.871-0.971-1.853-1.002-1.83-1.062-1.84-1.112-1.814-1.135-1.834-1.178-1.787-1.221-1.791-1.282-1.782-1.316-1.807-0.66-0.856,0.359-0.391,1.003-1.103,1.024-1.115,2.039-2.167,1.003-1.124,1.017-1.096,2.042-2.19,0.991-1.098,1.021-1.08,3.04-3.294,1.018-1.098,2.022-2.213,1.016-1.087,0.997-1.102,0.639-0.691,2.156,0.847,3.888,1.301,3.861,1.198,3.864,1,3.862,0.854,3.82,0.702,3.811,0.542,3.754,0.373,3.776,0.241,3.72,0.077,3.702-0.046,3.665-0.16,3.616-0.354,3.594-0.453,3.523-0.569,3.504-0.722,3.471-0.783,3.431-0.974,3.375-1.016,3.342-1.134,3.293-1.22,3.246-1.327,3.217-1.384,3.188-1.494,3.104-1.563,3.109-1.624,3.066-1.694,1.508-0.909,1.502,0.909,3.086,1.694,3.088,1.624,3.135,1.563,3.187,1.494,3.199,1.384,3.228,1.327,3.309,1.22,3.339,1.134,3.372,1.016,3.428,0.974,3.472,0.783,3.496,0.722,3.522,0.569,3.6,0.453,3.647,0.354,3.658,0.16,3.668,0.046,3.743-0.077,3.763-0.241,3.773-0.373,3.795-0.542,3.841-0.702,3.84-0.854,3.863-1,3.883-1.198,3.865-1.301,2.159-0.847,1.636,1.793,1.016,1.087,3.046,3.311,1.02,1.086,3.032,3.288,0.994,1.098,3.064,3.286,1.005,1.124,3.044,3.282,1.027,1.103,0.354,0.391-0.667,0.856-1.295,1.807-1.27,1.782-1.256,1.791-1.161,1.787-1.164,1.834-1.074,1.814-1.062,1.84-1.004,1.83-0.983,1.853-0.882,1.905-0.884,1.848-0.807,1.872-0.78,1.912-0.695,1.886-0.678,1.925-0.576,1.935-0.563,1.939-0.46,1.923-0.442,1.968-0.36,1.958-0.293,1.944-0.237,1.996-0.177,2.013-0.123,1.978-0.026,2.014,0.026,1.977,0.099,1.892,0.093,1.986,0.173,2.09,0.195,2.034,0.271,2.016,0.232,2,0.312,1.995,0.327,1.973,0.364,1.94,0.364,1.919,0.432,1.924,0.437,1.892,0.447,1.873,0.473,1.838,0.499,1.865,0.51,1.808,0.506,1.81,0.54,1.77,0.579,1.784,0.535,1.761,0.57,1.711,0.594,1.735,0.59,1.694,0.586,1.702,0.596,1.704,0.59,1.647,0.592,1.677,0.576,1.616,0.619,1.625,0.566,1.606,0.599,1.595,0.571,1.585,0.537,1.504,1.694,4.911,1.426,4.658,1.225,4.573,1.013,4.385,0.793,4.252,0.603,4.083,0.36,3.95,0.173,3.796v3.68l-0.2,3.538-0.408,3.382-0.58,3.282-0.771,3.176-0.954,3.065-1.119,2.962-1.295,2.899-1.529,2.785-1.667,2.762-1.939,2.702-2.068,2.626-2.363,2.582-2.548,2.57-2.769,2.528-3.022,2.438-3.276,2.466-3.5,2.392-3.764,2.375-4.033,2.324-4.268,2.272-4.534,2.248-4.802,2.186-5.13,2.188-2.169,0.879-2.282,0.892-2.281,0.911-2.302,0.938-2.287,0.913-2.328,0.921-2.342,0.935-2.336,0.905-2.329,0.918-2.331,0.955-2.332,0.944-2.332,0.923-2.337,0.998-2.309,0.946-2.312,0.994-2.298,0.956-2.287,1.027-2.258,1.029-2.236,1.046-2.217,1.062-2.2,1.084-2.16,1.104-2.173,1.106-2.095,1.159-2.076,1.2-2.061,1.18-2.027,1.258-0.729,0.467-0.768-0.499-2.024-1.226-2.064-1.229-2.079-1.151-2.132-1.171-2.159-1.142-2.188-1.069-2.184-1.097-2.242-1.036-2.23-1.046-2.287-1.053-2.278-1.004-2.31-0.985-2.312-0.965-2.319-0.957-2.345-0.987-2.328-0.942-2.342-0.925-2.358-0.955-2.329-0.918-2.33-0.905-2.339-0.935-2.324-0.921-2.308-0.913-2.315-0.938-2.278-0.911-2.265-0.892-2.187-0.879-5.126-2.188-4.783-2.186-4.551-2.248-4.272-2.272-4.006-2.324-3.78-2.375-3.514-2.392-3.252-2.466-3.039-2.438-2.77-2.528-2.567-2.57-2.311-2.582-2.122-2.626-1.896-2.702-1.693-2.762-1.487-2.785-1.341-2.899-1.115-2.962-0.953-3.065-0.771-3.176-0.57-3.282-0.433-3.382-0.171-3.538-0.025-3.68,0.18-3.796,0.384-3.95,0.584-4.083,0.798-4.252,1-4.385,1.229-4.573,1.467-4.62zm204.75-81.228l-197.77,139.27,0.438,0.69,1.724,2.437,1.942,2.466,2.126,2.352,2.381,2.374,2.586,2.349,2.842,2.335,3.093,2.296,3.347,2.286,3.595,2.246,3.872,2.244,4.104,2.204,4.373,2.161,4.663,2.125,5.029,2.142,2.121,0.855,2.241,0.915,2.284,0.906,2.303,0.941,2.3,0.873,2.327,0.929,2.342,0.938,2.333,0.909,2.344,0.915,2.354,0.95,2.356,0.951,2.373,0.942,2.354,0.976,2.355,0.974,2.338,1.015,2.328,1.004,2.338,1.01,2.304,1.045,2.31,1.091,2.291,1.062,2.235,1.105,2.278,1.151,2.207,1.144,2.204,1.19,2.17,1.218,2.072,1.224,2.025-1.195,2.154-1.225,2.211-1.212,2.198-1.144,2.249-1.151,2.238-1.087,2.277-1.08,2.304-1.077,2.317-1.059,2.303-1.01,2.334-1.004,2.329-0.991,2.349-0.97,2.354-0.979,2.332-0.967,2.35-0.951,2.354-0.933,2.356-0.933,2.353-0.909,2.312-0.921,2.337-0.946,2.309-0.873,2.281-0.941,2.26-0.906,2.259-0.915,2.137-0.855,5.011-2.142,4.642-2.125,4.426-2.161,4.116-2.204,3.845-2.244,3.597-2.246,3.334-2.286,3.1-2.296,2.825-2.335,2.595-2.349,2.366-2.374,2.16-2.352,1.921-2.466,1.736-2.437,1.546-2.514,1.359-2.557,1.187-2.588,1.052-2.713,0.846-2.786,0.706-2.887,0.531-3.018,0.385-3.17,0.183-3.291,0.014-3.405-0.192-3.593-0.346-3.734-0.574-3.9-0.752-4.063-0.966-4.201-1.175-4.426-1.382-4.541-1.667-4.785-0.509-1.453-0.598-1.589-0.569-1.594-0.57-1.599-0.596-1.631-0.611-1.657-0.586-1.665-0.608-1.653-0.585-1.716-0.611-1.727-0.613-1.736-0.564-1.738-0.598-1.747-0.554-1.825-0.59-1.792-0.532-1.828-0.536-1.845-0.53-1.842-0.489-1.91-0.506-1.895-0.471-1.94-0.424-1.942-0.431-1.988-0.416-1.959-0.354-2.033-0.334-2.043-0.325-2.058-0.29-2.086-0.235-2.083-0.203-2.145-0.175-2.137-0.124-2.066-0.091-1.972-0.044-2.13,0.044-2.155,0.144-2.159,0.179-2.14,0.248-2.119,0.314-2.107,0.401-2.106,0.41-1.96zm-200.57,85.278l183.2-128.94-4.02,0.566-4.002,0.397-3.963,0.264-3.946,0.065-3.939-0.013-3.865-0.217-3.838-0.342-3.79-0.48-3.743-0.614-3.694-0.735-3.649-0.861-3.593-1.007-3.542-1.077-3.481-1.175-3.442-1.293-3.408-1.336-3.336-1.49-3.29-1.547-3.25-1.594-3.223-1.693-1.911-1.042-1.94,1.039-3.217,1.693-3.226,1.594-3.294,1.547-3.356,1.49-3.37,1.336-3.461,1.293-3.493,1.175-3.53,1.077-3.593,1.007-3.655,0.861-3.683,0.735-3.768,0.614-3.796,0.48-3.828,0.342-3.891,0.217-3.883,0.013-3.944-0.065-3.977-0.264-4.015-0.395-4.042-0.566-4.021-0.768-4.054-0.885-4.039-1.063-4.092-1.223-2.77-0.937-0.21,0.235-2.026,2.18-1.02,1.109-3.036,3.308-1.003,1.098-1.01,1.106-2.032,2.164-1.035,1.124-0.998,1.07-1.836,2.02,1.081,1.522,1.27,1.859,1.245,1.89,1.191,1.896,1.139,1.901,1.102,1.934,1.065,1.913,0.99,1.979,0.979,1.935,0.917,1.977,0.885,1.984,0.769,2.013,0.75,2.007,0.706,2.029,0.64,2.078,0.575,2.024,0.528,2.066,0.429,2.097,0.406,2.106,0.31,2.107,0.245,2.119,0.21,2.14,0.107,2.159,0.022,2.155-0.022,2.13-0.1,1.972-0.108,2.066-0.185,2.18-0.198,2.102-0.233,2.083-0.263,2.086-0.318,2.058-0.353,2.043-0.368,2.033-0.396,1.959-0.406,1.988-0.475,1.942-0.458,1.94-0.502,1.895-0.494,1.881-0.538,1.871-0.523,1.845-0.569,1.828-0.54,1.828-0.577,1.789-0.589,1.747-0.578,1.738-0.604,1.736-0.608,1.727-0.583,1.716-0.612,1.674-0.591,1.645-0.599,1.657-0.569,1.631-0.596,1.599-0.586,1.594-0.584,1.564-0.528,1.478-1.657,4.785-0.795,2.7z"/><path fill="#FFF" d="M19.908,161.05l1.684-4.9,0.531-1.5,0.577-1.6,0.588-1.587,0.582-1.611,0.611-1.647,0.599-1.604,0.592-1.647,0.582-1.703,0.596-1.688,0.58-1.68,0.601-1.688,0.567-1.741,0.569-1.74,0.562-1.742,0.534-1.756,0.571-1.829,0.52-1.791,0.514-1.822,0.478-1.814,0.474-1.866,0.474-1.883,0.439-1.897,0.387-1.886,0.403-1.945,0.361-1.939,0.308-1.948,0.308-2.004,0.276-1.997,0.224-2.024,0.203-2.049,0.153-2.027,0.13-2.054,0.084-1.876,0.016-1.988-0.016-1.983-0.107-2.025-0.185-1.959-0.236-1.975-0.29-1.968-0.377-1.98-0.424-1.961-0.487-1.933-0.528-1.945-0.608-1.939-0.63-1.907-0.732-1.907-0.761-1.888-0.829-1.871-0.86-1.875-0.915-1.861-0.961-1.878-0.998-1.841-1.069-1.824-1.088-1.829-1.148-1.825-1.19-1.789-1.208-1.785-1.291-1.813-1.312-1.791-0.662-0.845,0.368-0.397,0.997-1.101,1.033-1.107,2.024-2.185,1.01-1.107,1.033-1.084,2.029-2.198,0.987-1.091,1.016-1.122,3.045-3.259,1.007-1.123,2.039-2.164,1.006-1.127,1.029-1.08,0.614-0.697,2.155,0.859,3.883,1.319,3.855,1.173,3.867,0.995,3.865,0.852,3.824,0.699,3.807,0.522,3.75,0.375,3.785,0.254,3.717,0.101,3.706-0.046,3.677-0.189,3.609-0.313,3.587-0.47,3.549-0.563,3.494-0.723,3.479-0.822,3.401-0.955,3.404-1.021,3.308-1.112,3.291-1.24,3.268-1.313,3.208-1.367,3.179-1.534,3.113-1.541,3.104-1.64,3.061-1.689,1.511-0.873,1.527,0.873,3.061,1.689,3.086,1.64,3.139,1.541,3.19,1.534,3.214,1.367,3.246,1.313,3.275,1.24,3.351,1.112,3.352,1.021,3.454,0.955,3.447,0.822,3.502,0.723,3.552,0.563,3.584,0.47,3.632,0.313,3.657,0.189,3.7,0.046,3.726-0.101,3.75-0.254,3.775-0.375,3.796-0.522,3.84-0.699,3.854-0.852,3.839-0.995,3.891-1.173,3.869-1.319,2.191-0.859,1.618,1.777,1.002,1.127,3.042,3.287,1.009,1.082,3.043,3.3,1.013,1.087,3.06,3.286,1.005,1.107,3.036,3.292,1.021,1.101,0.371,0.397-0.666,0.845-1.311,1.791-1.257,1.813-1.239,1.785-1.193,1.789-1.146,1.825-1.085,1.829-1.079,1.824-0.994,1.841-0.973,1.878-0.898,1.861-0.888,1.875-0.804,1.862-0.766,1.897-0.7,1.907-0.653,1.907-0.619,1.939-0.526,1.945-0.482,1.933-0.433,1.961-0.35,1.981-0.286,1.968-0.254,1.975-0.168,1.959-0.104,2.025-0.023,1.983,0.023,1.988,0.104,1.876,0.102,2.006,0.158,2.075,0.203,2.049,0.227,2.024,0.271,1.997,0.278,2.004,0.366,1.948,0.335,1.939,0.403,1.945,0.406,1.886,0.441,1.922,0.449,1.858,0.474,1.866,0.476,1.814,0.521,1.822,0.504,1.791,0.561,1.807,0.558,1.778,0.557,1.742,0.56,1.723,0.586,1.759,0.578,1.688,0.586,1.68,0.609,1.702,0.607,1.689,0.587,1.647,0.577,1.604,0.608,1.647,0.556,1.611,0.613,1.587,0.562,1.6,0.536,1.5,1.694,4.9,1.425,4.67,1.244,4.554,0.985,4.396,0.806,4.219,0.587,4.104,0.374,3.932,0.191,3.832-0.011,3.652-0.206,3.53-0.419,3.412-0.565,3.306-0.757,3.147-0.956,3.06-1.14,2.964-1.308,2.876-1.502,2.78-1.688,2.785-1.923,2.665-2.088,2.688-2.346,2.566-2.539,2.577-2.798,2.492-3.011,2.483-3.264,2.435-3.494,2.421-3.779,2.347-4.024,2.318-4.261,2.284-4.553,2.247-4.804,2.188-5.123,2.178-2.174,0.886-2.25,0.914-2.311,0.908-2.289,0.903-2.295,0.931-2.353,0.93-2.304,0.921-2.324,0.894-2.364,0.948-2.34,0.927-2.326,0.959-2.338,0.942-2.328,0.955-2.303,0.974-2.311,0.979-2.313,1.003-2.255,0.991-2.257,1.028-2.254,1.065-2.219,1.038-2.19,1.103-2.188,1.098-2.157,1.115-2.094,1.126-2.091,1.194-2.046,1.215-2.032,1.247-0.755,0.467-0.757-0.489-1.994-1.225-2.055-1.239-2.1-1.17-2.136-1.16-2.137-1.112-2.205-1.091-2.204-1.078-2.204-1.063-2.262-1.04-2.279-1.028-2.266-0.991-2.313-1.003-2.315-0.979-2.33-0.974-2.345-0.955-2.329-0.977-2.339-0.925-2.325-0.927-2.355-0.948-2.341-0.894-2.328-0.921-2.332-0.93-2.308-0.931-2.285-0.903-2.32-0.908-2.23-0.914-2.185-0.886-5.142-2.178-4.782-2.188-4.525-2.247-4.31-2.284-4.008-2.318-3.841-2.34-3.499-2.421-3.276-2.435-3.01-2.483-2.792-2.492-2.539-2.577-2.354-2.566-2.095-2.688-1.882-2.665-1.714-2.785-1.506-2.78-1.294-2.876-1.147-2.964-0.963-3.06-0.75-3.147-0.597-3.306-0.389-3.412-0.198-3.53-0.021-3.652,0.179-3.832,0.383-3.932,0.592-4.104,0.792-4.219,1.002-4.396,1.245-4.554,1.421-4.67zm204.76-81.262l-197.77,139.3,0.421,0.691,1.722,2.436,1.945,2.447,2.133,2.352,2.39,2.41,2.589,2.334,2.83,2.348,3.094,2.289,3.347,2.3,3.584,2.236,3.877,2.229,4.114,2.188,4.39,2.166,4.663,2.141,5.028,2.138,2.113,0.863,2.217,0.909,2.301,0.906,2.289,0.913,2.31,0.892,2.324,0.939,2.341,0.937,2.341,0.898,2.338,0.92,2.369,0.962,2.372,0.962,2.33,0.935,2.366,0.973,2.363,0.966,2.325,1.023,2.338,0.972,2.324,1.059,2.311,1.016,2.315,1.104,2.304,1.078,2.237,1.082,2.26,1.146,2.222,1.156,2.201,1.175,2.159,1.221,2.044,1.241,2.062-1.195,2.138-1.246,2.223-1.195,2.201-1.142,2.254-1.139,2.249-1.104,2.255-1.078,2.308-1.074,2.298-1.045,2.313-1.033,2.338-0.997,2.324-0.992,2.367-0.997,2.346-0.936,2.354-0.972,2.339-0.962,2.349-0.933,2.344-0.949,2.359-0.898,2.339-0.937,2.308-0.939,2.302-0.892,2.291-0.913,2.267-0.906,2.248-0.909,2.143-0.863,5-2.138,4.668-2.141,4.39-2.166,4.138-2.188,3.822-2.229,3.612-2.236,3.348-2.3,3.093-2.289,2.83-2.348,2.6-2.334,2.361-2.41,2.152-2.352,1.945-2.447,1.717-2.436,1.543-2.498,1.35-2.567,1.19-2.609,1.051-2.681,0.875-2.81,0.679-2.899,0.531-2.992,0.38-3.163,0.205-3.28v-3.435l-0.186-3.581-0.353-3.747-0.554-3.889-0.786-4.057-0.94-4.218-1.165-4.385-1.406-4.553-1.646-4.811-0.544-1.458-0.578-1.584-0.569-1.604-0.579-1.598-0.586-1.624-0.607-1.652-0.61-1.646-0.595-1.693-0.59-1.689-0.598-1.707-0.597-1.729-0.576-1.745-0.586-1.774-0.572-1.788-0.568-1.811-0.553-1.819-0.545-1.846-0.523-1.859-0.496-1.9-0.513-1.921-0.461-1.917-0.438-1.978-0.412-1.982-0.406-1.955-0.355-2.024-0.348-2.035-0.318-2.055-0.279-2.078-0.248-2.113-0.212-2.108-0.164-2.147-0.124-2.083-0.096-1.954-0.023-2.167,0.043-2.144,0.125-2.137,0.179-2.171,0.246-2.096,0.324-2.11,0.406-2.086,0.45-2.014zm-200.58,85.282l183.19-128.9-4.014,0.565-3.987,0.395-3.977,0.242-3.973,0.108-3.912-0.049-3.835-0.198-3.863-0.349-3.766-0.484-3.771-0.607-3.688-0.738-3.656-0.882-3.571-0.976-3.539-1.059-3.503-1.199-3.453-1.299-3.397-1.38-3.331-1.425-3.297-1.562-3.238-1.613-3.202-1.68-1.945-1.061-1.922,1.061-3.206,1.68-3.233,1.613-3.308,1.562-3.352,1.425-3.373,1.38-3.443,1.299-3.511,1.199-3.52,1.059-3.594,0.976-3.657,0.882-3.68,0.738-3.771,0.607-3.788,0.483-3.844,0.349-3.865,0.198-3.884,0.049-3.962-0.108-3.972-0.242-4.025-0.395-4.02-0.565-4.025-0.737-4.045-0.919-4.066-1.054-4.072-1.234-2.762-0.941-0.237,0.237-2.018,2.192-1.023,1.11-3.036,3.288-1.007,1.124-1.009,1.06-2.025,2.208-1.034,1.098-1.002,1.091-1.847,2.025,1.096,1.505,1.264,1.868,1.239,1.875,1.193,1.912,1.164,1.907,1.084,1.915,1.063,1.943,1.011,1.939,0.961,1.944,0.911,1.995,0.878,1.96,0.772,2.016,0.756,1.997,0.71,2.063,0.643,2.046,0.564,2.05,0.539,2.061,0.426,2.107,0.405,2.086,0.319,2.11,0.254,2.096,0.194,2.171,0.104,2.137,0.044,2.144-0.044,2.167-0.093,1.954-0.101,2.083-0.171,2.147-0.229,2.108-0.229,2.113-0.304,2.078-0.273,2.055-0.359,2.035-0.36,2.024-0.401,1.955-0.427,1.982-0.436,1.978-0.458,1.917-0.514,1.921-0.495,1.86-0.526,1.899-0.542,1.846-0.553,1.819-0.57,1.811-0.571,1.788-0.583,1.774-0.581,1.745-0.596,1.729-0.595,1.707-0.603,1.689-0.585,1.699-0.626,1.641-0.564,1.652-0.586,1.624-0.608,1.607-0.59,1.595-0.574,1.584-0.519,1.458-1.655,4.811-0.815,2.66z"/><path fill="#141011" d="M77.277,176.89l-6.457,4.497-7.646-4.314-11.793,8.211,2.691,7.816-6.315,4.401-10.913-35.04,6.27-4.378,34.163,18.8zm-19.807-3.04l-12.325-7.209,4.313,12.809,8.012-5.6zm0.688-26.1l11.753-8.221c2.342-1.63,4.145-2.749,5.448-3.359,1.292-0.626,2.623-0.944,3.989-1.033,1.376-0.077,2.745,0.164,4.127,0.666,1.387,0.525,2.544,1.385,3.535,2.538,1.034,1.281,1.629,2.688,1.762,4.266,0.117,1.585-0.221,3.087-1.055,4.483,2.173-0.749,4.242-0.939,6.152-0.438,1.923,0.477,3.542,1.504,4.824,3.055,1.02,1.236,1.692,2.641,2.059,4.251,0.312,1.579,0.23,3.123-0.254,4.533-0.525,1.464-1.472,2.824-2.94,4.122-0.893,0.783-3.233,2.496-6.995,5.159l-10.035,7.013-22.372-27.04zm9.669,0.34l5.176,6.262,3.914-2.714c2.278-1.646,3.701-2.657,4.2-3.111,0.94-0.826,1.46-1.712,1.603-2.628,0.162-0.943-0.143-1.876-0.871-2.732-0.709-0.837-1.484-1.325-2.436-1.535-0.923-0.132-1.922,0.037-3.021,0.629-0.64,0.349-2.344,1.512-5.154,3.444l-3.411,2.38zm8.91,10.75l5.982,7.227,5.483-3.841c2.148-1.48,3.462-2.487,3.936-3.009,0.751-0.737,1.178-1.609,1.273-2.583,0.073-0.974-0.262-1.921-1.073-2.893-0.665-0.8-1.443-1.336-2.354-1.571-0.904-0.294-1.867-0.275-2.881,0.021-1.01,0.328-2.872,1.402-5.568,3.292l-4.798,3.35zm43.863-28.15l7.128-2.342c1.549,3.564,1.889,6.775,1.047,9.621-0.855,2.89-2.876,5.424-6.057,7.609-3.891,2.744-8.116,3.761-12.655,3.062-4.563-0.689-8.582-3.162-12.118-7.413-3.728-4.497-5.325-8.883-4.869-13.139,0.46-4.235,2.768-7.804,6.875-10.704,3.618-2.493,7.314-3.563,11.197-3.172,2.291,0.222,4.665,1.185,7.147,2.86l-4.838,5.39c-1.496-1.162-3.137-1.766-4.912-1.785-1.763-0.059-3.472,0.48-5.046,1.598-2.16,1.505-3.349,3.486-3.524,5.844-0.154,2.396,1.085,5.211,3.754,8.445,2.857,3.415,5.499,5.373,8.059,5.88,2.555,0.53,4.879,0.02,7.022-1.458,1.576-1.118,2.562-2.515,2.951-4.256,0.36-1.71-0.03-3.73-1.15-6.03m30.47-5.76l-22.389-27.026,20.187-14.099,3.79,4.584-14.232,9.936,5.283,6.399,12.289-8.577,3.784,4.577-12.307,8.574,9.563,11.475-5.96,4.17zm20.44-14.34l-4.286-5.209,5.65-3.935,4.271,5.195-5.63,3.95zm22.21-30.929l7.136-2.338c1.557,3.567,1.919,6.791,1.061,9.654-0.885,2.827-2.892,5.4-6.057,7.604-3.903,2.713-8.139,3.745-12.685,3.048-4.545-0.693-8.572-3.205-12.099-7.401-3.726-4.503-5.35-8.887-4.859-13.151,0.433-4.261,2.744-7.804,6.867-10.719,3.629-2.474,7.316-3.561,11.185-3.146,2.301,0.207,4.689,1.156,7.149,2.86l-4.824,5.365c-1.493-1.135-3.129-1.743-4.918-1.762-1.777-0.065-3.426,0.483-5.041,1.588-2.181,1.517-3.344,3.492-3.518,5.874-0.158,2.344,1.081,5.17,3.754,8.394,2.828,3.429,5.521,5.371,8.051,5.882,2.555,0.518,4.89,0.039,7.034-1.462,1.555-1.106,2.518-2.505,2.906-4.225,0.35-1.713-0.03-3.743-1.15-6.065m18.83,2.098l-4.302-5.165,5.645-3.94,4.284,5.167-5.63,3.938z"/></g></svg>