<?xml version="1.0" encoding="UTF-8"?>
<svg xmlns="http://www.w3.org/2000/svg" version="1.1" viewBox="0 0 500 500">
  <defs>
    <style>
      .cls-1 {
        fill: #eb778d;
      }

      .cls-2 {
        fill: #0c3459;
      }

      .cls-3 {
        fill: #fa768b;
      }

      .cls-4 {
        fill: #f8f9fa;
      }

      .cls-5 {
        fill: #0e355a;
      }
    </style>
  </defs>
  <!-- Generator: Adobe Illustrator 28.7.1, SVG Export Plug-In . SVG Version: 1.2.0 Build 142)  -->
  <g>
    <g id="Layer_1">
      <g>
        <path class="cls-1" d="M497.1,245v11.8c-.3.2-.2.5-.2.8-.2,2.6-.3,5.2-.4,7.8-.8,13-2.6,25.8-5.4,38.6-6.4,29.6-17.9,57-34.7,82.1-14.7,22-32.6,41.2-53.2,57.8-23,18.5-48.5,32.4-76.6,41.4-19.1,6.1-38.7,9.7-58.6,11.2-4.6.3-9.2.5-13.7.7-3,0-6,0-8.9,0-1.7,0-3.5-.2-5.2-.2-11.3-.5-22.4-1.7-33.6-3.6-25.1-4.3-49-12.3-71.5-24.3-26.8-14.3-50.5-32.8-70.6-55.7-14.3-16.4-26.6-34.1-36.3-53.6-8.1-16.1-14.2-32.9-18.4-50.4-2.8-11.5-4.6-23.2-5.7-35-.5-5.5-.8-11-1-16.5,0-5.2,0-10.5,0-15.7.2-3.3.3-6.6.5-9.9.8-13.3,2.8-26.5,5.7-39.5,5.7-24.7,15.2-48,28.4-69.6,15.8-25.8,35.3-48.3,59.2-67.1,23.1-18.2,48.5-32.1,76.5-41.1,22.6-7.3,45.8-11.1,69.4-11.9.7,0,1.4.2,2-.2h10.1c.3.3.6.2.9.2,6.4.2,12.7.6,19,1.2,12.3,1.2,24.5,3.3,36.6,6.3,26.2,6.5,50.6,17.2,73.1,32.1,19.8,13.1,37.3,28.7,52.9,46.6,21.6,24.8,37.6,52.7,47.6,84.1,6.8,21.3,10.6,43.2,11.7,65.5.1,2.1,0,4.2.4,6.2ZM249.8,13.2C120.5,13.3,14.3,117.5,13.1,247.6c-1.3,132.3,105.2,237.3,233.1,239.2,130.8,2,240.4-103.4,240.4-236.8,0-132-107.3-236.7-236.7-236.8Z"/>
        <path class="cls-5" d="M249.8,13.2c129.4,0,236.7,104.8,236.7,236.8,0,133.4-109.6,238.8-240.4,236.8-127.9-1.9-234.4-106.9-233.1-239.2C14.3,117.5,120.5,13.3,249.8,13.2ZM134.9,74.2c1.6.6,3.2,1,4.7,1.8,1.9,1.1,3.5.9,5.2-.4.5-.4.7-.8.3-1.4-2.4-4.1-4.7-8.2-7.1-12.3-.3-.6-.6-.8-1.3-.4-.6.4-1.2.8-1.9,1.1-1.7,1-1.6.9-.7,2.6.8,1.3,1.7,2.5,2.2,4.1-1.8-.5-3.3-1-4.8-1.7-2.1-1.1-4-.9-5.8.7-.5.5-.7.8-.2,1.5,2.6,3.9,5.2,7.8,7.7,11.7.4.7.8.9,1.5.3.6-.5,1.2-.8,1.8-1.2,1-.5,1.1-1.1.5-2-.9-1.4-1.9-2.7-2.5-4.2,0,0,.1-.1.2-.2ZM249.8,68.2c-98.9,0-180.6,79.6-181.9,179.4-1.3,101.8,80.2,182.8,178.7,184.3,101.8,1.6,183.8-79.7,185-179.5,1.2-103.4-82.6-184.4-181.8-184.3ZM459.7,277.8c.1-2,0-2.2-1.4-2.4-.6-.1-1.3-.1-1.9-.2-1.5,0-1.6,0-1.8,1.5-.5,4.2-1.1,8.4-1.9,12.6-3.6,18.9-9.8,36.9-18.6,54-11.5,22.6-26.5,42.7-44.6,60.5-10.6,10.4-22.1,19.6-34.6,27.7-2.9,1.9-2.9,1.9-.9,4.8.6,1,1.2,1.4,2.3.5.5-.4,1.1-.7,1.7-1.1,14.2-9.4,27.4-20.2,39.3-32.4,9.8-10,18.6-20.7,26.4-32.3,14.2-21.2,25.1-43.8,31.5-68.5,2.1-8.4,3.7-16.9,4.6-24.8ZM36.2,275.9c0,.2,0,.4,0,.6.5,3.9,1.1,7.8,1.8,11.7,3.6,19.4,9.9,37.9,18.9,55.5,10.3,20.1,23.3,38.2,39,54.4,9.9,10.2,21,19.1,33.1,26.7,4.1,2.6,8.3,5,12.7,7.2,1.1.6,1.6.3,2-.7.3-.7.6-1.4.9-2.1.5-.9.3-1.5-.7-1.9-1.5-.7-2.9-1.5-4.4-2.3-17.5-9.8-32.9-22.4-46.2-37.4-14.7-16.5-26.9-34.8-36-55-6.5-14.5-11.4-29.6-14.2-45.2-.7-3.9-1.3-7.8-1.8-11.7,0-.7-.3-1.2-1.1-1.2-1.1,0-2.2.2-3.3.4-.6,0-.8.4-.8,1ZM237,476.2c7.7,0,12.9-3.9,14.6-11.1.8-3.5.7-7-.2-10.4-1.5-5.8-5.2-9.6-11.1-10.9-5.9-1.3-11.1,0-15,4.9-3.3,4-4.3,8.7-3.9,13.8.2,2.7.8,5.3,2.5,7.6,3.2,4.4,7.8,6.1,13.1,6.2ZM202.3,462.5c.6-.7,1.2-.9,1.8-1.3,2.5-1.4,5.2-2.6,7.4-4.6,4.9-4.4,4.6-11.2-.7-15.1-4.1-3-8.7-4.3-13.8-3.7-2.9.4-5.7,1.2-7.9,3.4-.4.4-.5.7,0,1.1,1.8,1.5,3.5,3,5.3,4.6.8.7,1.5.9,2.4.2,1.6-1.2,3.4-1.2,5.2-.5,1.6.7,2.1,2.3,1.2,3.8-.6,1-1.5,1.7-2.5,2.2-4.4,2.1-8.6,4.5-13.2,6.2-1.3.5-2.1,1.3-2.5,2.6-.3,1.1-.5,2.3-.8,3.4-.3,1.1,0,1.5,1,1.8,8.4,2.5,16.9,4.2,25.5,5.7,1.3.2,1.7,0,1.9-1.4.3-1.7.4-3.4.8-5.1.3-1.2-.2-1.6-1.3-1.7-3.2-.5-6.3-1.1-9.6-1.8ZM276.3,466c.6-1.2,1.5-1.8,2.2-2.6,2.1-2.3,4.3-4.4,5.4-7.3,1.9-4.9-.2-9.9-5-12-3.2-1.4-6.6-1.7-10-1.1-4.5.9-8.6,2.5-11.3,6.7-.8,1.2-.8,1.4.5,1.9,1.8.8,3.7,1.5,5.5,2.4,1.1.5,1.9.4,2.7-.6,1.1-1.6,2.8-2.1,4.7-1.9,1.8.2,2.7,1.6,2.2,3.3-.4,1.2-1.1,2.2-1.9,3-3.5,3.3-6.7,6.8-10.4,9.9-1,.8-1.5,1.8-1.4,3,0,1.3.2,2.6.2,4,0,.9.4,1.1,1.2,1.1,1.8-.1,3.6-.2,5.4-.3,7-.4,14-1.2,21-2.2.9-.1,1.3-.5,1.1-1.5-.3-1.7-.5-3.5-.8-5.2-.2-1.5-.4-1.6-2-1.4-3,.4-6,1.1-9.2.9ZM301.9,470.6s.2,0,.5-.1c2.8-.7,5.7-1.4,8.5-2,1.7-.4,1.8-.5,1.4-2.2-1.6-6.5-3.2-13.1-4.8-19.6-.6-2.6-1.3-5.1-1.9-7.7-.2-.6-.3-1.3-1.3-1.1-4.6,1.2-9.3,2.1-14,3.1-.5.1-.9.4-.8,1,.3,1.9.5,3.9.9,5.8.2.9.8,1.2,1.7,1.2.9,0,1.8-.5,2.7-.6,1.3-.2,1.6,0,1.9,1.3.4,2.2.8,4.5,1.3,6.7.9,4.4,1.7,8.8,2.6,13.2.1.6.3,1.2,1.4,1.1ZM419.3,129.3c-.9,1-1.8,1.5-2.6,2.2-2.6,2.1-2.7,2.1-.7,4.8,0,0,0,0,0,.1.4.6.9.7,1.5.3,3.8-2.7,7.5-5.4,11.3-8.1.4-.3.6-.6.4-1.1-.5-2.1-2.1-3.3-4.2-3-2,.2-3.9.4-5.9.7-1.2.2-1.3,0-.9-1.2.7-1.8,1.2-3.6,2.1-5.2,1.1-2,.7-3.5-.8-5-.7-.8-1.2-1.2-2.1-.2-.3.4-.7.6-1.1.9-2.9,2.5-5.8,4.9-8.7,7.4-.5.5-1.1,1-.7,1.8.6,1,1,2.1,2.2,2.6.3.1.6-.1.9-.3.4-.3.8-.7,1.2-1,.8-.6,1.6-1.4,2.6-1.8-.4,1.3-.9,2.6-1.4,3.9-.7,1.9.1,3,2.1,2.9,1.4-.1,2.8-.3,4.5-.5ZM450.9,192.6c1.4-2.5,2.7-4.8,4-7.1.3-.5.5-1,.4-1.6-.3-1.1-.7-2.2-1.1-3.3-.2-.6-.5-.7-1.1-.5-4.3,1.6-8.6,3.2-13,4.8-.6.2-.9.6-.7,1.3.3,1.1.7,2.2,1.1,3.3.2.8.6.8,1.3.6,1.6-.6,3.3-1.1,5.1-1.6-.7,2-1.6,3.6-2.8,5.1-1.6,2-1.7,4.1-.9,6.3.3.7.7,1,1.5.8,4.3-1.2,8.6-2.4,13-3.7.8-.2,1-.7.8-1.5-.3-1.1-.6-2.2-.9-3.3-.3-1.3-.5-1.4-1.8-1-1.6.4-3.1,1.2-4.9,1.3ZM85.4,117.4c-.1,0-.2.1-.3.1-2-.3-4-.5-5.9-.9-2.7-.5-4,0-5.1,2.5-.3.6-.3,1,.2,1.4,3.6,2.7,7.1,5.5,10.7,8.2.3.2.7.5,1.1.4.6,0,2.2-2,2.4-2.8.2-.9-.5-1.2-1-1.6-1-.8-2.1-1.5-2.9-2.6.5-.4,1-.3,1.5-.2.8.1,1.6.3,2.4.4,1.9.2,2.7-.8,2.2-2.6-.3-1-.7-1.9-1-2.8-.1-.3-.3-.8,0-1,.4-.2.7.2.9.4.9.8,1.8,1.6,2.7,2.4.6.5,1,.5,1.5-.2.3-.5.8-.9,1.2-1.3.8-.9.8-1.5-.1-2.4-2.9-2.6-5.7-5.3-8.6-7.9-2.1-1.9-2.1-1.9-4,.3-.7.8-.9,1.6-.4,2.6,1,2.5,1.8,5,2.7,7.6ZM462.6,214.4c0-2.5-.6-4.8-1.9-6.9-1.7-2.8-4.2-4.4-7.5-4-3.3.4-5.5,2.5-6.5,5.6-1.2,3.9-.7,7.7,1.7,11.1,1.9,2.6,4.5,4,7.8,3.4,3.1-.6,5-2.8,5.9-5.8.3-1.1.5-2.3.5-3.4ZM439.9,161.2c.8-1.9,1.3-3.8,2.3-5.4,1.3-2.1,1-4.1-.3-6.1-.5-.8-.9-.9-1.7-.4-3.5,2-7,3.9-10.5,5.9-2.1,1.2-2.2,1.8-.9,3.9.2.3.5.7.6,1,.3.7.7.7,1.3.4,1.5-.8,3.1-1.5,5-2.4-.9,2.1-1.5,4-2.5,5.8-1,1.9-.9,3.7.2,5.5.4.7.9.9,1.7.5,3.9-1.8,7.7-3.8,11.7-5.3,1-.4,1.4-1.2.9-2.2-.3-.7-.7-1.4-1-2.2-.7-1.5-.8-1.6-2.3-.8-1.4.7-2.7,1.5-4.4,1.9ZM72.1,150.4c0-3.7-2.6-7.1-6.2-8.1-3.3-.9-6.4.6-8.3,4-1.3,2.4-2.4,4.8-3.6,7.2-.4.8-.3,1.4.6,1.8,4,2,7.9,4.1,11.9,6.2.8.4,1.3.2,1.7-.6,1-2.2,2.1-4.4,3.1-6.6.5-1.2.9-2.5.8-3.8ZM49.4,224.8c.3-1.7.5-3.3.8-4.8.2-.9,0-1.5-.9-1.9-1-.5-1.4-1.3-1.2-2.4.2-1.2.5-2.4.7-3.7.2-1.1.7-1.7,1.8-1.7.8,0,1.4-.4,1.6-1.2.3-1.2.5-2.3.7-3.5.2-1.4.2-1.4-1.1-1.2-4.8.8-9.6,2.1-14.3,3.2-.8.2-1.2.7-1.4,1.5-.2,1.2-.4,2.4-.7,3.5-.3,1,0,1.7.8,2.3,1.1.9,2.2,1.7,3.4,2.5,3.2,2.4,6.3,4.9,9.7,7.2ZM353.7,60.4c-.1-1.9-1.3-3.3-2.9-4.2-2.2-1.2-4.6-2.3-6.9-3.5-.8-.4-1.2-.2-1.6.6-2,4.3-3.9,8.6-5.9,12.9-.2.4-.3.7.3.9,2.7,1.2,5.2,2.7,7.9,3.8,1.7.7,3.4.6,4.8-.7,1.5-1.4,1.8-3,1.2-4.8-.3-.8,0-1,.6-1.3,1.6-.7,2.5-1.9,2.6-3.7ZM335.5,437.2c-4.3,0-7.7,3.4-7.7,7.7,0,4.4,3.5,7.9,7.8,7.8,4.2,0,7.7-3.7,7.7-7.9,0-4.2-3.6-7.7-7.8-7.7ZM155.3,444.9c0,4.3,3.5,7.8,7.7,7.8,4.2,0,7.8-3.6,7.8-7.7,0-4.3-3.5-7.8-7.8-7.8-4.3,0-7.7,3.4-7.7,7.7ZM254.5,47.8s0,0,0,0c.8,0,1.6,0,2.4,0,4.2,0,6.8-2.1,7.8-6.1,1.2-5.1-1.2-8.9-6.4-9.8-2.4-.4-4.9-.3-7.3-.4-.6,0-1,.3-1,1,0,4.7-.1,9.4-.2,14.1,0,.8.3,1.2,1.2,1.2,1.2,0,2.3,0,3.5,0ZM353.6,72.2c0,4.4,3.6,8.1,8,8.1,4.4,0,8.4-4.2,8.4-8.7,0-4.4-3.8-8.2-8.2-8.2-4.4,0-8.2,4.1-8.2,8.9ZM57.4,165c0,0,0-.2,0-.2-2,0-4,0-6,0-1.9,0-2.6.4-3.2,2.2-.2.5-.3,1.1-.5,1.6-.6,1.2-.3,2.2.6,3.2,2.5,2.5,4.9,5.1,7.3,7.7.9,1,1.8,1.9,2.7,2.9.5.6,1,.6,1.3-.3.2-.8.6-1.6.9-2.4.6-1.6.5-2.1-.7-3.1-.6-.5-.8-1-.5-1.7.5-1.3,1-2.5,1.5-3.8.3-.7.6-1.1,1.5-.8,1.2.4,1.9-.2,2.4-1.3.3-.7.6-1.5.9-2.2.6-1.5.6-1.6-1.1-1.7-2.3,0-4.7,0-7,0ZM206.3,51.9c-.9-1-1.5-1.9-2.4-2.6-1.1-1-1.2-1.8-.4-3.1,1.3-2.3.8-4.5-.7-6.5-1.3-1.9-3.2-2.4-5.4-2.1-2,.3-4,.9-6,1.4-1.8.5-2,.9-1.5,2.7.9,3.6,1.9,7.2,2.9,10.8q.7,2.5,3.2,2.1c1.9-.3,2.2-.8,1.6-2.7,0-.2-.2-.5-.2-.7,0-.4-.4-.9.3-1.1.5-.2.9.1,1.2.4.2.3.4.6.7.9.8,1.1,1.8,1.6,3.2,1.6,1.2,0,2.2-.5,3.6-.9ZM433.3,146c-.1-.2-.2-.4-.3-.6-.7-1.3-1.4-2.7-2.2-4-.3-.6-.4-1,.3-1.4.7-.4.9,0,1.2.6.8,1.4,1.6,2.9,2.4,4.3.8,1.4.8,1.4,2.1.6.5-.3,1-.7,1.6-.9.6-.3.6-.6.3-1.1-1.8-3.4-3.7-6.8-5.7-10.1-.3-.6-.6-.7-1.2-.3-3.9,2.6-7.8,5.3-11.7,7.9-.6.4-.7.7-.3,1.3,1.5,2.6,3,5.3,4.5,8q1.2,2.2,3.5.9c1.2-.7,1.3-.9.6-2.2-.8-1.4-1.6-2.9-2.4-4.3-.4-.7-.3-1.2.4-1.6.7-.4,1,.1,1.3.6.4.7.8,1.5,1.3,2.2.5.8.6,2.2,1.6,2.2.9,0,1.7-.9,2.6-1.4.2-.1.4-.2.4-.6ZM83.2,133.3c0-1.1-1.1-1.3-1.7-1.8-.9-.7-1.5-.5-2,.4-.9,1.4-1.8,2.8-2.7,4.3-.3.5-.7.7-1.3.3-.5-.4-.8-.8-.3-1.4.5-.8,1-1.6,1.6-2.4,1.5-2.3,1.4-2.3-.9-3.9-.7-.4-1.1-.4-1.5.3-.8,1.2-1.5,2.4-2.3,3.5-.3.4-.5,1.1-1.3.6-.7-.5-.5-1-.1-1.6.6-.9,1.1-1.8,1.7-2.6,2-2.8,2-2.8-.9-4.7-.6-.4-.8-.3-1.2.2-2,3-4,6.1-5.8,9.3-.5.8-.4,1.3.4,1.9,3.7,2.4,7.4,4.8,11.1,7.3.8.5,1.3.5,1.8-.4,1.7-2.7,3.4-5.5,5.1-8.2.2-.3.4-.7.4-1.1ZM57.2,189.1c0-.8,0-1.6-.3-2.4-.6-2.4-.9-2.5-3-1.3-.3.2-.7.4-1,.6-.7.4-1,1-.5,1.8.5.7.5,1.5.4,2.3-.2,1.7-1.5,3.1-3,3.4-1.7.3-3.4-.6-4.2-2-.8-1.6-.5-3.6.6-4.7q1.9-1.8,1-4.2c-.8-2-1.1-2.1-2.9-.6-.1.1-.2.2-.4.3-3.2,3.4-4.1,7.4-2.8,11.8.8,2.8,2.7,4.6,5.6,5.2,3,.6,5.6-.2,7.6-2.5,1.9-2.2,2.8-4.8,2.9-7.7ZM407.9,106.2c.2.2.4.3.5.5.8.9,1.6,1.8,2.4,2.7,1.9,2.1,1.8,2.1,3.9.2.7-.6.8-1.2.2-1.9-2.2-2.5-4.5-5.1-6.6-7.6-.6-.8-1-.6-1.6,0-3.2,3.4-6.5,6.7-9.7,10.1-.6.6-.4.9,0,1.4,1.7,1.9,3.4,3.9,5.1,5.8,1.9,2.2,1.8,2.2,4,.3.7-.6.8-1.2.1-1.9-1.1-1.2-2.1-2.5-3.2-3.8-.3-.4-.8-.9,0-1.4.6-.4,1.2-.5,1.7.2.4.7,1,1.2,1.5,1.8q1.6,1.9,3.5.3c1-.9,1-1.2.2-2.2-.8-1-1.7-2-2.5-2.9-.2-.3-.5-.6-.2-1,.2-.3.5-.5.8-.8ZM313.8,58.1c3.2,0,5.4-1.6,6.7-4.9.7-1.9,1.4-3.9,2.1-5.8,1.1-3,1-3.2-2.1-4.2-1.4-.4-1.6-.3-2.1,1.1-.8,2.3-1.5,4.7-2.3,7-.6,1.8-1.6,2.5-2.8,2.2-1.2-.4-1.6-1.5-1.1-3.4.5-1.8,1.1-3.6,1.6-5.4,1-3.5.8-3.8-2.7-4.4-.8-.1-1.2,0-1.4.8-.7,2.7-1.6,5.4-2.3,8.1-1.2,5,1.7,8.9,6.4,8.9ZM173.2,60.7c-.1-.4-.4-1-.6-1.5-.6-1.3-.9-1.4-2.1-.9-1.3.6-2.7,1.1-4,1.7-.6.3-1.1,0-1.3-.6-.2-.7,0-1.1.7-1.3.6-.2,1.3-.5,1.9-.8,2.7-1.1,2.7-1.1,1.5-3.8-.3-.8-.8-.9-1.5-.6-1.1.5-2.2.9-3.3,1.4-.6.2-1.2.4-1.5-.4-.3-.8.3-1,.8-1.2.9-.4,1.7-.7,2.6-1.1,3-1.3,3-.5,1.5-4.2-.3-.6-.7-.8-1.2-.5-3,1.3-6.1,2.6-9.1,3.8-.7.3-.9.8-.6,1.5,1.9,4.2,3.8,8.5,5.8,12.7.2.5.6.9,1.2.6,3-1.3,5.9-2.5,8.8-3.8.4-.2.6-.5.6-1.2ZM271.9,32.7c-1.6,0-2.4-.2-2.4,1.7,0,.8-.1,1.7-.2,2.5-.3,3.4-.7,6.8-1,10.2-.1,1.1.3,1.6,1.4,1.7,2.4.2,4.7.5,7.1.8,2.9.3,2.9.4,3.2-2.5.1-.9-.2-1.4-1.1-1.5-1.5-.2-3-.4-4.5-.6-.7,0-.9-.5-.9-1.2,0-.7.5-.9,1.1-.8.7,0,1.4.2,2.1.3,2.7.3,2.6.3,3.1-2.3.2-1.1-.2-1.4-1.1-1.5-1.2-.1-2.3-.3-3.5-.4-.6,0-1.2,0-1.1-.9,0-.8.6-.9,1.3-.8,1.3.2,2.6.3,3.9.6,1.1.2,1.8-.2,1.9-1.4,0-.4.1-.8.2-1.2.2-1-.2-1.5-1.2-1.7-2.8-.4-5.7-.7-8.3-1ZM113.7,97.7c.6,0,1-.2,1.3-.4.6-.5,1.2-1.1,1.8-1.6,1-.7.7-1.1-.2-1.5-3.7-2-7.4-4-11.1-6-2.8-1.5-3.1-1.4-5.3.8-.9.9-1.1,1.8-.7,2.9,1,2.5,1.9,4.9,2.9,7.4.8,2,1.6,4,2.4,6,.3.9.7,1.1,1.4.3.6-.7,1.3-1.3,2-1.9.4-.4.6-.9.2-1.5-.8-1.5-.7-2.2.6-3.3.4-.3.9-.6,1.2-1,.7-.9,1.5-1.1,2.5-.5.3.2.7.3.9.4ZM181.5,58.6c2.4,0,4.9-1.1,6.6-2.8.8-.8,1-1.7.6-2.7-.4-1-.7-2.1-1-3.1-.5-1.9-.7-2-2.6-1.5-1.8.5-2,.8-1.5,2.5.1.5.2.9.4,1.4.2.6,0,.9-.5,1.2-1.1.5-2.1.7-3.2,0-1.6-1.1-2.2-2.6-2-4.5.2-1.7,1.5-2.8,3.2-2.8.6,0,1.1.1,1.7.3.8.2,1.2,0,1.6-.7.2-.4.4-.8.6-1.2.8-1.6.8-1.9-1-2.5-3.2-1.1-6.1-.4-8.6,1.8-2.4,2.1-2.9,4.8-2.2,7.8,1,4.1,4.1,6.8,7.9,6.8ZM215,34.1c-.4,0-.7,0-1,0-2.2.3-2.4.5-2.9,2.7-.4,1.9-.7,3.9-1.1,5.8-.5,2.5-.9,5.1-1.4,7.6-.2.9,0,1.4,1.1,1.1.8-.2,1.6-.3,2.4-.4.7-.1,1.1-.5,1.2-1.2.2-1.9.6-2.1,2.7-2.3.6,0,1.1-.1,1.7-.2.6-.1,1.1.1,1.3.8.7,1.6,1.1,1.8,2.9,1.5.5,0,1-.3,1.5-.3,1.1,0,1.1-.5.7-1.3-2.3-4.2-4.6-8.5-6.9-12.7-.5-.9-1.3-1.3-2.3-1.1ZM404.2,96.4c0-.5-.2-.7-.4-.9-2.5-2.5-5.1-4.9-7.6-7.4-.4-.4-.7-.3-1,0-3.1,3.6-6.2,7.2-9.4,10.7-.5.6-.6,1.1,0,1.6.7.6,1.4,1.3,2.1,2,.4.4.7.4,1.1,0,.7-.8,1.5-1.6,2.2-2.4.5-.6.9-.8,1.5,0,.4.6,1,1,1.6,1.5.7.6,1.3,1.7,2,1.8.8,0,1.3-1.3,1.9-1.9.7-.7.7-1.3,0-1.9-.9-.8-1.7-1.7-2.6-2.5-.9-.8-.4-1.3.1-1.9.5-.7,1-.6,1.6,0,1,1,2,2,3,3,.5.4.9,1.2,1.7.6.9-.6,1.7-1.3,2-2.2ZM306.1,40c.2-1-.5-1.2-1.2-1.3-2.9-.7-5.8-1.3-8.7-2-1.1-.3-1.7,0-1.9,1.2-.9,4.2-1.8,8.5-2.6,12.7-.1.5-.2,1.2.2,1.6,1,.9,2.3.9,3.5.8.9,0,.7-1.1.9-1.8.3-.9.1-2.3.9-2.7.6-.3,1.7.3,2.6.5,0,0,.2,0,.2,0,2.7.6,2.7.6,3.3-2.3.2-.9-.1-1.4-1-1.6-1.2-.3-2.3-.6-3.5-.8-.6-.1-.9-.6-.8-1.1,0-.6.3-1.2,1-1.3.5,0,1,0,1.4.1,1,.2,1.9.5,2.9.7,1.7.4,1.9.2,2.3-1.5,0-.4.2-.8.2-1.2ZM325.3,61.6c0,.6.3,1,.8,1.2.6.3,1.3.4,1.9.7.9.4,1.4,0,1.7-.8,1.1-2.8,2.4-5.5,3.4-8.3.4-1,.8-1.3,1.9-.8,2.7,1.1,2.6,1.1,3.8-1.6.4-.9.2-1.4-.7-1.8-3.3-1.4-6.6-2.8-10-4.1-1-.4-1.5-.3-1.9.8-1.1,2.8-1.1,2.8,1.6,3.7,1,.3,1.3.9.8,1.9-1,2.4-2,4.9-2.9,7.4-.2.6-.4,1.1-.4,1.8ZM154.4,56.1c0-.6-.4-1.1-.7-1.7-.7-1.3-.9-1.4-2.2-.8-1.1.6-2.3,1.2-3.4,1.8-1.9,1-3.9,2-5.8,3-.5.3-1.2.6-1.1,1.3.2,1.1.7,2.2,1.7,2.8.7.5,1.4-.4,2-.7.2-.1.4-.2.6-.4.7-.4,1.2-.4,1.6.5,1.1,2.3,2.3,4.5,3.5,6.7.5.9.8,2.2,1.5,2.5.7.2,1.8-.7,2.7-1.1,1.3-.6,1.4-1,.8-2.2-1.1-2.2-2.2-4.4-3.3-6.7-1.2-2.4-1.2-2.4,1.1-3.7.5-.3,1.1-.6,1-1.4ZM376.7,72.1c-.4,0-.5.3-.6.6-2.8,4-5.5,7.9-8.3,11.9-.4.6-.3.8.2,1.2,1.9,1.4,3.8,2.9,5.7,4.3.8.6,1.6,1.8,2.4,1.6.8-.2,1.3-1.4,2-2.2.6-.6.5-1.1-.2-1.6-1-.7-1.9-1.5-2.9-2.2-1.2-.9-1.2-1.2-.3-2.4,1.8-2.4,3.5-4.8,5.3-7.2.6-.7.5-1.2-.3-1.7-.8-.5-1.5-1.1-2.2-1.6-.3-.2-.5-.4-.8-.5ZM238.2,46c0-.2,0-.4,0-.6,0-1.6-.1-1.7-1.6-1.6-.9,0-1.8.1-2.6.1-2.1,0-2,0-2.2-2-.1-2.2-.3-4.3-.5-6.5-.3-3.6-.4-3.3-4.1-2.9-.9.1-1.2.6-1.1,1.4.4,4.4.9,8.9,1.3,13.3.1,1.2.7,1.5,1.8,1.4,2.4-.2,4.7-.4,7.1-.6q1.9-.2,1.9-2.1ZM451.9,173.6c-.4-1.1-.9-2.4-1.3-3.7-.3-.8-.8-1-1.5-.6-4.2,1.8-8.3,3.6-12.5,5.4-.7.3-.9.7-.6,1.4.4,1.2.9,2.3,1.3,3.5.2.5.4.6.9.4,4.3-1.7,8.6-3.5,12.9-5.2.5-.2.9-.4.8-1.2ZM121,71.9c-.1,0-.3.1-.4.2-.9.7-1.9,1.4-2.8,2.1-.6.5-.5.9-.1,1.5,2.3,3.2,4.6,6.4,7,9.6,1.9,2.7,1.9,2.6,4.5.7.9-.7,1-1.2.3-2.2-2.6-3.6-5.1-7.3-7.6-11-.2-.3-.5-.6-.9-.8ZM91.7,97.6c-.1,0-.3.1-.3.2-.9,1-1.8,2-2.8,3-.3.4,0,.6.2.8,3.5,3.4,7,6.8,10.6,10.2.4.4.7.5,1,0,.7-.8,1.4-1.6,2.1-2.3.7-.6.5-1,0-1.5-3.4-3.3-6.8-6.6-10.2-9.9-.2-.2-.3-.3-.5-.5ZM458.6,252.2h0c.2,0,.4,0,.6,0q2.1,0,2.7-2c.2-.6.3-1.2.6-1.7.5-1,.3-1.8-.7-2.3-.3-.2-.5-.4-.8-.6q-2.4-1.7-4.8,0c-2.3,1.6-2,1.3-1.2,3.6.2.5.3.9.4,1.4.2,1,.8,1.5,1.9,1.5.4,0,.9,0,1.3,0ZM41,252.2q2.8,0,3.7-2.6c.2-.6.3-1.2.5-1.7.1-.3.1-.5,0-.8-1-2.3-3.9-3.2-5.9-1.8-2.5,1.7-2.5,1.7-1.6,4.5.9,2.7.5,2.4,3.3,2.4ZM37.3,238.5c.4.6,1,.9,1.6,1.2,2,1.2,3.4,1,5-.6.5-.5.5-.7-.2-.9-2.2-.7-4.3-.4-6.4.4ZM458.4,237.7c-1,0-2,.2-2.8.7-.6.3-.5.5,0,.9,1.9,1.7,3.8,1.7,5.8,0,.4-.4.5-.6,0-.9-.9-.5-1.9-.7-2.8-.7ZM450.2,242.5c-1.8,1.6-2.6,5.2-1.4,6.4,2.6-2.1,2.8-3,1.4-6.4ZM31.3,249.1c2.6-2.4,2.8-3.4,1.5-6.6-1.9,1.7-2.5,4.2-1.5,6.6ZM468.8,246.7c-.1-1.5-.6-2.9-1.7-4.1-.3-.3-.5-.4-.7.1-.7,1.7-.5,3.5.8,4.7.4.4.8,1,1.2.8.5-.2.4-1,.4-1.6ZM49.3,241.9c-.9,4.4-.8,4.9,1.9,6.4.6-2.5-.4-4.3-1.9-6.4ZM450.2,254.5c1.4,1.6,2.7,2.9,4.7,3.4.3,0,.7.3.9,0,.3-.3,0-.6-.1-.9-.7-1.9-2.4-2.8-5.5-2.6ZM467,254.1c-2.7-.2-4.4.8-5.1,2.7-.1.3-.3.6,0,.9.3.3.6.2.9,0,1.7-.8,3.2-1.9,4.3-3.6ZM32.8,254.4c.9,1.6,2.2,2.4,3.6,3.2.6.3,1.4.5,1.8,0,.5-.5-.1-1.1-.4-1.6-1.2-1.7-3-1.7-5-1.7ZM49.7,254.1c-3.1,0-4.5.8-5.2,2.8-.1.3-.4.6,0,.9.3.2.6.2.9,0,1.7-.8,3.2-1.9,4.3-3.7Z"/>
        <path class="cls-3" d="M249.8,68.2c99.2-.2,183.1,80.9,181.8,184.3-1.2,99.8-83.3,181.1-185,179.5-98.5-1.6-180-82.5-178.7-184.3,1.3-99.8,83-179.5,181.9-179.4ZM76.1,249.7c0,1,0,1.9,0,2.9,0,11,1.3,21.8,3.5,32.6,2.3,11.3,5.8,22.3,10.3,33,.4,1,1,1.8,1.9,2.4,6.9,3.7,13.7,7.5,20.8,10.8,1.1.5,1.7,1.3,1.8,2.5.7,8.6,1.6,17.2,2.7,25.8.3,2.1,1.1,4,2.5,5.6,2.9,3.1,5.8,6.3,8.9,9.2,13,12.7,27.5,23.1,43.8,31.2,18.6,9.3,38.2,15,58.8,17.3,2.3.3,4.3-.1,6.3-1.4,5.9-3.9,11.6-8.1,17.2-12.5,6.5-5.1,12.7-10.4,18.8-15.9,1.3-1.1,2.6-1.7,4.3-1.2,15.9,4.7,32.2,8.3,48.5,11.4,3,.6,5.7.2,8.3-1.3,14.6-8.3,27.9-18.4,39.6-30.4,13.5-13.8,24.5-29.5,32.9-47,.7-1.5.9-2.9.4-4.4-3.3-11.1-7.2-22-11.5-32.8-3.9-9.9-8.2-19.6-12.5-29.3-.6-1.5-.6-2.7.4-3.9,1.1-1.5,2.2-3,3.2-4.5,10.2-14.1,20-28.6,28.9-43.5.9-1.6,1.4-3.1.8-4.9-3-9.8-6.6-19.2-11.1-28.4-9.2-18.5-21.3-34.8-36.2-49.1-6.5-6.2-13.5-11.9-20.9-17.1-1.3-.9-2.7-1.4-4.3-1.1-1.6.3-3.3.4-4.9.5-17.1,1.5-34.1,3.6-51.1,5.8-1.6.2-2.8-.2-3.9-1.5-8.5-10.9-17.2-21.7-26-32.4-1.1-1.4-2.5-2-4.2-2-4.1,0-8.2,0-12.3.1-17.6.8-34.6,4.1-51.2,10.1-24.6,8.9-46.1,22.8-64.6,41.4-1.8,1.8-2.9,3.6-3.2,6.2-1,8-2.3,15.9-3.5,23.9-.2,1.3-.8,2.2-2.1,2.7-6,2.4-11.9,4.8-17.9,7.1-2.5,1-4.1,2.5-5.3,4.9-11.9,24.3-18.1,50-18,77.1Z"/>
        <path class="cls-4" d="M459.7,277.8c-.9,8-2.4,16.5-4.6,24.8-6.3,24.8-17.3,47.4-31.5,68.5-7.8,11.6-16.6,22.3-26.4,32.3-12,12.2-25.1,22.9-39.3,32.4-.6.4-1.2.7-1.7,1.1-1,.9-1.6.5-2.3-.5-2-3-2-2.9.9-4.8,12.4-8.1,24-17.3,34.6-27.7,18.1-17.8,33.1-37.9,44.6-60.5,8.7-17.1,15-35.1,18.6-54,.8-4.2,1.4-8.4,1.9-12.6.2-1.5.3-1.6,1.8-1.5.6,0,1.3,0,1.9.2,1.4.2,1.5.5,1.4,2.4Z"/>
        <path class="cls-4" d="M36.2,275.9c0-.6.1-.9.8-1,1.1-.1,2.2-.3,3.3-.4.8,0,1,.5,1.1,1.2.5,3.9,1.1,7.8,1.8,11.7,2.8,15.7,7.7,30.7,14.2,45.2,9.1,20.2,21.2,38.5,36,55,13.4,15,28.7,27.5,46.2,37.4,1.4.8,2.9,1.6,4.4,2.3.9.4,1.2,1,.7,1.9-.4.7-.7,1.4-.9,2.1-.4,1.1-.9,1.3-2,.7-4.3-2.2-8.5-4.7-12.7-7.2-12.1-7.6-23.1-16.5-33.1-26.7-15.7-16.2-28.8-34.3-39-54.4-9-17.6-15.4-36.1-18.9-55.5-.7-3.9-1.3-7.8-1.8-11.7,0-.2,0-.4,0-.6Z"/>
        <path class="cls-4" d="M237,476.2c-5.3,0-9.8-1.8-13.1-6.2-1.6-2.2-2.3-4.8-2.5-7.6-.3-5.1.7-9.8,3.9-13.8,3.9-4.8,9.1-6.2,15-4.9,6,1.3,9.6,5.1,11.1,10.9.9,3.4,1,6.9.2,10.4-1.8,7.2-6.9,11.1-14.6,11.1ZM232.9,461.1c0,1.7,0,3.3.8,4.8.6,1.2,1.5,1.9,2.9,1.8,1.4,0,2.4-.7,2.9-2,1.5-3.8,1.7-7.6.5-11.5-.4-1.3-1.2-2.2-2.7-2.3-1.4-.1-2.4.6-3.1,1.8-.4.6-.6,1.2-.7,1.9-.5,1.8-.6,3.6-.7,5.5Z"/>
        <path class="cls-4" d="M202.3,462.5c3.3.6,6.5,1.2,9.6,1.8,1.1.2,1.5.5,1.3,1.7-.4,1.7-.5,3.4-.8,5.1-.2,1.3-.6,1.6-1.9,1.4-8.6-1.6-17.1-3.3-25.5-5.7-1.1-.3-1.4-.7-1-1.8.3-1.1.5-2.3.8-3.4.4-1.3,1.2-2.1,2.5-2.6,4.6-1.7,8.8-4.1,13.2-6.2,1-.5,1.9-1.2,2.5-2.2.9-1.5.4-3.1-1.2-3.8-1.8-.7-3.6-.7-5.2.5-.9.7-1.6.6-2.4-.2-1.7-1.6-3.5-3.1-5.3-4.6-.5-.4-.4-.7,0-1.1,2.2-2.2,5-3,7.9-3.4,5.1-.6,9.7.6,13.8,3.7,5.3,3.9,5.6,10.7.7,15.1-2.2,2-4.8,3.2-7.4,4.6-.6.3-1.2.6-1.8,1.3Z"/>
        <path class="cls-4" d="M276.3,466c3.2.1,6.2-.6,9.2-.9,1.6-.2,1.8-.1,2,1.4.2,1.7.4,3.5.8,5.2.2,1-.1,1.4-1.1,1.5-7,1-13.9,1.8-21,2.2-1.8,0-3.6.2-5.4.3-.8,0-1.2-.2-1.2-1.1,0-1.3-.1-2.6-.2-4,0-1.3.5-2.3,1.4-3,3.7-3,7-6.6,10.4-9.9.9-.8,1.6-1.8,1.9-3,.5-1.8-.4-3.2-2.2-3.3-1.9-.2-3.6.4-4.7,1.9-.8,1.1-1.5,1.2-2.7.6-1.8-.9-3.7-1.6-5.5-2.4-1.3-.5-1.3-.7-.5-1.9,2.6-4.1,6.7-5.8,11.3-6.7,3.4-.6,6.8-.3,10,1.1,4.8,2.1,6.9,7.1,5,12-1.1,3-3.4,5.1-5.4,7.3-.7.8-1.7,1.4-2.2,2.6ZM276.3,466.2s0,0,0,0c0,0,0,0,0,0,0,0,0,0,0,0,0,0,0,0,0,0Z"/>
        <path class="cls-4" d="M301.9,470.6c-1.2.1-1.3-.5-1.4-1.1-.9-4.4-1.7-8.8-2.6-13.2-.4-2.2-.9-4.5-1.3-6.7-.3-1.3-.5-1.5-1.9-1.3-.9.2-1.7.6-2.7.6-.9,0-1.5-.3-1.7-1.2-.3-1.9-.6-3.9-.9-5.8,0-.6.3-.9.8-1,4.7-1,9.4-1.9,14-3.1.9-.2,1.1.5,1.3,1.1.7,2.6,1.3,5.1,1.9,7.7,1.6,6.5,3.2,13.1,4.8,19.6.4,1.7.3,1.8-1.4,2.2-2.9.7-5.7,1.4-8.5,2-.3,0-.5.1-.5.1Z"/>
        <path class="cls-4" d="M419.3,129.3c-1.7.2-3.1.3-4.5.5-2,.2-2.8-1-2.1-2.9.5-1.3,1-2.5,1.4-3.9-1,.4-1.8,1.1-2.6,1.8-.4.3-.8.7-1.2,1-.3.2-.6.5-.9.3-1.2-.4-1.7-1.6-2.2-2.6-.4-.7.1-1.3.7-1.8,2.9-2.5,5.8-4.9,8.7-7.4.4-.3.8-.6,1.1-.9.8-.9,1.3-.5,2.1.2,1.4,1.5,1.9,3,.8,5-.9,1.6-1.4,3.5-2.1,5.2-.5,1.2-.4,1.3.9,1.2,2-.2,3.9-.5,5.9-.7,2.2-.2,3.7.9,4.2,3,.1.5,0,.8-.4,1.1-3.8,2.7-7.5,5.4-11.3,8.1-.6.4-1.1.3-1.5-.3,0,0,0,0,0-.1-2-2.8-2-2.7.7-4.8.8-.6,1.7-1.1,2.6-2.2Z"/>
        <path class="cls-4" d="M450.9,192.6c1.9,0,3.4-.9,4.9-1.3,1.4-.4,1.5-.4,1.8,1,.3,1.1.5,2.2.9,3.3.2.8,0,1.2-.8,1.5-4.3,1.2-8.6,2.4-13,3.7-.8.2-1.2,0-1.5-.8-.8-2.3-.8-4.4.9-6.3,1.2-1.4,2.1-3.1,2.8-5.1-1.8.6-3.5,1.1-5.1,1.6-.7.2-1.1.2-1.3-.6-.3-1.1-.7-2.2-1.1-3.3-.2-.7,0-1.1.7-1.3,4.3-1.6,8.7-3.2,13-4.8.6-.2.9,0,1.1.5.3,1.1.7,2.2,1.1,3.3.2.6,0,1.1-.4,1.6-1.3,2.3-2.6,4.6-4,7.1Z"/>
        <path class="cls-4" d="M85.4,117.4c-.9-2.5-1.7-5.1-2.7-7.6-.4-1.1-.3-1.8.4-2.6,1.9-2.2,1.9-2.2,4-.3,2.9,2.6,5.8,5.3,8.6,7.9.9.8.9,1.4.1,2.4-.4.5-.9.9-1.2,1.3-.5.7-.9.7-1.5.2-.9-.8-1.8-1.6-2.7-2.4-.3-.2-.6-.6-.9-.4-.3.2-.1.7,0,1,.3,1,.7,1.9,1,2.8.5,1.8-.3,2.8-2.2,2.6-.8,0-1.6-.3-2.4-.4-.5,0-.9-.2-1.5.2.8,1.1,1.9,1.7,2.9,2.6.5.4,1.2.7,1,1.6-.2.8-1.8,2.7-2.4,2.8-.4,0-.8-.2-1.1-.4-3.6-2.7-7.1-5.5-10.7-8.2-.5-.4-.5-.8-.2-1.4,1.2-2.4,2.4-3,5.1-2.5,2,.4,4,.6,5.9.9,0,0,.1,0,.3-.1Z"/>
        <path class="cls-4" d="M462.6,214.4c0,1.2-.1,2.3-.5,3.4-.9,3-2.7,5.1-5.9,5.8-3.3.7-5.9-.7-7.8-3.4-2.5-3.4-3-7.2-1.7-11.1,1-3.1,3.2-5.2,6.5-5.6,3.3-.4,5.8,1.2,7.5,4,1.3,2.1,1.9,4.4,1.9,6.9ZM458.2,213.7c0-2.3-1.6-4.2-3.7-4.2-2.2,0-4,1.7-4,3.9,0,2.3,1.5,4.1,3.7,4.2,2.2,0,4-1.7,4-3.9Z"/>
        <path class="cls-4" d="M439.9,161.2c1.7-.4,3-1.3,4.4-1.9,1.5-.7,1.7-.7,2.3.8.3.7.7,1.4,1,2.2.5,1.1.1,1.9-.9,2.2-4,1.5-7.8,3.6-11.7,5.3-.8.3-1.2.2-1.7-.5-1.1-1.8-1.2-3.6-.2-5.5,1-1.7,1.6-3.6,2.5-5.8-1.9.9-3.4,1.6-5,2.4-.6.3-1,.3-1.3-.4-.2-.4-.4-.7-.6-1-1.3-2.1-1.2-2.7.9-3.9,3.5-2,7-3.9,10.5-5.9.8-.5,1.3-.4,1.7.4,1.2,2,1.5,4,.3,6.1-1,1.6-1.5,3.5-2.3,5.4Z"/>
        <path class="cls-4" d="M72.1,150.4c0,1.3-.3,2.6-.8,3.8-1,2.2-2.1,4.4-3.1,6.6-.4.8-.9,1-1.7.6-3.9-2.1-7.9-4.1-11.9-6.2-.8-.4-1-1-.6-1.8,1.2-2.4,2.3-4.8,3.6-7.2,1.9-3.4,5-4.9,8.3-4,3.6,1,6.2,4.4,6.2,8.1ZM67.5,151.6c0-2.1-1.1-3.5-3-4-1.6-.4-2.8.1-3.8,1.7-.3.4-.4.9-.7,1.3-.5.7-.2,1.2.5,1.6,1.1.6,2.3,1.2,3.4,1.8,2.4,1.3,2.7,1.2,3.5-1.5.1-.4.1-.8.2-.9Z"/>
        <path class="cls-4" d="M134.8,74.4c.6,1.5,1.6,2.9,2.5,4.2.6.9.5,1.5-.5,2-.6.3-1.3.7-1.8,1.2-.7.6-1,.3-1.5-.3-2.5-3.9-5.1-7.8-7.7-11.7-.4-.7-.3-1,.2-1.5,1.8-1.5,3.7-1.8,5.8-.7,1.5.8,3,1.3,4.8,1.7-.5-1.6-1.5-2.8-2.2-4.1-1-1.7-1-1.6.7-2.6.6-.4,1.3-.7,1.9-1.1.6-.5.9-.3,1.3.4,2.3,4.1,4.7,8.2,7.1,12.3.4.6.2,1-.3,1.4-1.7,1.4-3.3,1.5-5.2.4-1.5-.9-3.1-1.3-4.7-1.8,0,0-.2,0-.3,0v.3Z"/>
        <path class="cls-4" d="M49.4,224.8c-3.5-2.3-6.6-4.8-9.7-7.2-1.1-.8-2.3-1.7-3.4-2.5-.8-.6-1.1-1.3-.8-2.3.3-1.2.5-2.4.7-3.5.1-.8.6-1.3,1.4-1.5,4.8-1.2,9.5-2.4,14.3-3.2,1.4-.2,1.4-.2,1.1,1.2-.2,1.2-.4,2.4-.7,3.5-.2.8-.8,1.2-1.6,1.2-1.1,0-1.7.6-1.8,1.7-.2,1.2-.5,2.4-.7,3.7-.2,1.1.2,1.9,1.2,2.4.9.4,1.1,1,.9,1.9-.3,1.5-.5,3.1-.8,4.8ZM41.2,212.4c.6.5,1.1.8,1.6,1.2,1.6,1.1,1.6,1,2.1-.9.3-1.3-.2-1.3-1.2-1.1-.8.2-1.6.3-2.5.8Z"/>
        <path class="cls-4" d="M353.7,60.4c-.1,1.8-1,3-2.6,3.7-.7.3-.9.6-.6,1.3.6,1.8.3,3.5-1.2,4.8-1.4,1.3-3.1,1.4-4.8.7-2.7-1.1-5.3-2.6-7.9-3.8-.5-.3-.4-.5-.3-.9,2-4.3,4-8.6,5.9-12.9.4-.8.8-1,1.6-.6,2.3,1.2,4.6,2.2,6.9,3.5,1.6.9,2.8,2.3,2.9,4.2ZM345.1,67c.6,0,1-.4,1.1-.9.2-.5.1-1.1-.4-1.4-.8-.5-1.5-.8-2.3-1.3-.6-.3-.8.2-1,.6-.3.4-.9,1-.3,1.5.8.8,1.9,1.1,2.9,1.5ZM347.3,61.1c.6,0,1.1-.4,1.2-.9,0-.8-1.4-2.1-2.6-2.1-1,0-.9.9-1.1,1.4-.2.6,1.3,1.5,2.6,1.6Z"/>
        <path class="cls-4" d="M335.5,437.2c4.3,0,7.8,3.5,7.8,7.7,0,4.2-3.6,7.8-7.7,7.9-4.3,0-7.8-3.5-7.8-7.8,0-4.3,3.4-7.7,7.7-7.7Z"/>
        <path class="cls-4" d="M155.3,444.9c0-4.3,3.4-7.7,7.7-7.7,4.3,0,7.9,3.5,7.8,7.8,0,4.2-3.7,7.7-7.8,7.7-4.2,0-7.7-3.5-7.7-7.8Z"/>
        <path class="cls-4" d="M254.5,47.8c-1.2,0-2.3,0-3.5,0-.8,0-1.2-.4-1.2-1.2,0-4.7.1-9.4.2-14.1,0-.6.3-1,1-1,2.4,0,4.9,0,7.3.4,5.1.8,7.6,4.7,6.4,9.8-.9,4-3.6,6.1-7.8,6.1-.8,0-1.6,0-2.4,0,0,0,0,0,0,0ZM254.8,39.7h0c0,.9,0,1.8-.1,2.8,0,.5.1.8.6,1,1.3.5,3.2-.1,4-1.2,1-1.3,1-3.7,0-5-.8-1.1-2.5-1.7-3.9-1.2-.6.2-.8.6-.8,1.2,0,.8,0,1.7,0,2.5Z"/>
        <path class="cls-4" d="M353.6,72.2c0-4.7,3.9-8.9,8.2-8.9,4.4,0,8.2,3.8,8.2,8.2,0,4.6-4,8.7-8.4,8.7-4.4,0-8-3.7-8-8.1ZM365.2,71.2c0-1.8-1.2-3.2-2.9-3.2-1.9,0-4,2.3-4,4.6,0,1.6,1.3,3.1,2.9,3.1,2,0,4-2.3,4-4.5Z"/>
        <path class="cls-4" d="M57.4,165c2.3,0,4.7,0,7,0,1.7,0,1.7.2,1.1,1.7-.3.7-.6,1.5-.9,2.2-.4,1.1-1.2,1.6-2.4,1.3-.8-.3-1.2.1-1.5.8-.5,1.3-1,2.6-1.5,3.8-.3.7-.1,1.2.5,1.7,1.3,1.1,1.4,1.6.7,3.1-.3.8-.6,1.6-.9,2.4-.3.9-.7.8-1.3.3-.9-1-1.8-1.9-2.7-2.9-2.4-2.6-4.9-5.1-7.3-7.7-.9-1-1.2-1.9-.6-3.2.2-.5.4-1.1.5-1.6.6-1.8,1.2-2.3,3.2-2.2,2,0,4,0,6,0,0,0,0,.2,0,.2ZM55.8,172.7c.5-.8.7-1.5.9-2.2,0-.3,0-.6-.4-.5-.9,0-1.9-.1-2.9.1.8.9,1.5,1.7,2.3,2.6Z"/>
        <path class="cls-4" d="M206.3,51.9c-1.3.3-2.4.9-3.6.9-1.4,0-2.4-.5-3.2-1.6-.2-.3-.4-.6-.7-.9-.3-.3-.7-.6-1.2-.4-.6.3-.3.7-.3,1.1,0,.2.1.5.2.7.6,1.9.3,2.4-1.6,2.7q-2.5.4-3.2-2.1c-1-3.6-2-7.2-2.9-10.8-.5-1.8-.3-2.2,1.5-2.7,2-.5,3.9-1.1,6-1.4,2.2-.3,4.1.3,5.4,2.1,1.5,2,2,4.3.7,6.5-.7,1.3-.7,2.2.4,3.1.8.7,1.5,1.6,2.4,2.6ZM197.4,41.8c-1.5,0-2,.4-2,1.3,0,1.5.7,2.7,1.7,2.6,1.3,0,2.2-.9,2.1-2.1,0-1.1-.8-1.8-1.8-1.8Z"/>
        <path class="cls-4" d="M433.3,146c0,.3-.2.4-.4.6-.9.5-1.7,1.4-2.6,1.4-.9,0-1.1-1.4-1.6-2.2-.5-.7-.8-1.5-1.3-2.2-.3-.5-.5-1-1.3-.6-.7.4-.8.9-.4,1.6.8,1.4,1.6,2.9,2.4,4.3.7,1.2.6,1.5-.6,2.2q-2.2,1.3-3.5-.9c-1.5-2.7-3-5.3-4.5-8-.4-.6-.3-.9.3-1.3,3.9-2.6,7.8-5.2,11.7-7.9.6-.4.8-.3,1.2.3,2,3.3,3.9,6.7,5.7,10.1.3.5.3.8-.3,1.1-.5.3-1,.6-1.6.9-1.3.8-1.3.8-2.1-.6-.8-1.4-1.6-2.9-2.4-4.3-.3-.5-.5-.9-1.2-.6-.7.4-.6.8-.3,1.4.7,1.3,1.5,2.7,2.2,4,.1.2.2.4.3.6Z"/>
        <path class="cls-4" d="M83.2,133.3c0,.4-.2.8-.4,1.1-1.7,2.7-3.4,5.4-5.1,8.2-.5.9-1,.9-1.8.4-3.7-2.4-7.4-4.9-11.1-7.3-.8-.5-.9-1-.4-1.9,1.9-3.1,3.8-6.2,5.8-9.3.4-.6.6-.6,1.2-.2,2.9,1.8,2.9,1.9.9,4.7-.6.9-1.1,1.8-1.7,2.6-.4.5-.6,1.1.1,1.6.8.5,1-.2,1.3-.6.8-1.2,1.5-2.4,2.3-3.5.4-.6.8-.7,1.5-.3,2.4,1.5,2.4,1.5.9,3.9-.5.8-1,1.6-1.6,2.4-.4.6-.2,1,.3,1.4.6.4.9.2,1.3-.3.9-1.4,1.9-2.8,2.7-4.3.6-.9,1.1-1.2,2-.4.7.5,1.6.8,1.7,1.8Z"/>
        <path class="cls-4" d="M57.2,189.1c0,2.9-.9,5.5-2.9,7.7-2,2.3-4.6,3.2-7.6,2.5-2.9-.6-4.8-2.4-5.6-5.2-1.3-4.4-.4-8.4,2.8-11.8.1-.1.2-.2.4-.3,1.7-1.5,2-1.4,2.9.6q1,2.4-1,4.2c-1.1,1.1-1.4,3.1-.6,4.7.7,1.5,2.5,2.3,4.2,2,1.5-.3,2.8-1.7,3-3.4,0-.8,0-1.6-.4-2.3-.5-.8-.2-1.4.5-1.8.3-.2.7-.4,1-.6,2.1-1.3,2.4-1.2,3,1.3.2.8.3,1.6.3,2.4Z"/>
        <path class="cls-4" d="M407.9,106.2c-.3.3-.6.5-.8.8-.3.4,0,.7.2,1,.8,1,1.7,2,2.5,2.9.9,1,.8,1.3-.2,2.2q-1.8,1.5-3.5-.3c-.5-.6-1.1-1.1-1.5-1.8-.4-.7-1-.6-1.7-.2-.8.5-.3,1,0,1.4,1,1.3,2.1,2.6,3.2,3.8.7.7.6,1.3-.1,1.9-2.1,1.9-2.1,1.9-4-.3-1.7-2-3.4-3.9-5.1-5.8-.5-.5-.6-.8,0-1.4,3.3-3.3,6.5-6.7,9.7-10.1.6-.6.9-.8,1.6,0,2.2,2.6,4.4,5.1,6.6,7.6.7.7.6,1.3-.2,1.9-2.1,1.9-2.1,1.9-3.9-.2-.8-.9-1.6-1.8-2.4-2.7-.2-.2-.3-.3-.5-.5Z"/>
        <path class="cls-4" d="M313.8,58.1c-4.8,0-7.7-3.9-6.4-8.9.7-2.7,1.5-5.4,2.3-8.1.2-.8.7-1,1.4-.8,3.5.6,3.7,1,2.7,4.4-.5,1.8-1.1,3.6-1.6,5.4-.5,1.8,0,3,1.1,3.4,1.2.4,2.2-.3,2.8-2.2.8-2.3,1.5-4.6,2.3-7,.5-1.4.7-1.5,2.1-1.1,3.1.9,3.2,1.1,2.1,4.2-.7,1.9-1.3,3.9-2.1,5.8-1.3,3.3-3.5,4.9-6.7,4.9Z"/>
        <path class="cls-4" d="M173.2,60.7c0,.7-.2,1-.6,1.2-2.9,1.3-5.9,2.6-8.8,3.8-.6.3-1,0-1.2-.6-1.9-4.2-3.8-8.5-5.8-12.7-.3-.7-.1-1.2.6-1.5,3-1.3,6.1-2.6,9.1-3.8.6-.2,1-.1,1.2.5,1.5,3.7,1.5,2.9-1.5,4.2-.8.4-1.7.7-2.6,1.1-.5.2-1.1.4-.8,1.2.3.8.9.6,1.5.4,1.1-.5,2.2-.9,3.3-1.4.7-.3,1.2-.2,1.5.6,1.2,2.7,1.2,2.7-1.5,3.8-.6.3-1.2.6-1.9.8-.7.2-.9.6-.7,1.3.2.7.7.9,1.3.6,1.3-.5,2.7-1.1,4-1.7,1.3-.5,1.6-.4,2.1.9.3.6.5,1.2.6,1.5Z"/>
        <path class="cls-4" d="M271.9,32.7c2.6.3,5.5.6,8.3,1,1,.1,1.4.6,1.2,1.7,0,.4-.2.8-.2,1.2-.1,1.2-.8,1.6-1.9,1.4-1.3-.2-2.6-.4-3.9-.6-.7-.1-1.2,0-1.3.8,0,.8.5.9,1.1.9,1.2.1,2.3.3,3.5.4.9.1,1.3.5,1.1,1.5-.5,2.6-.5,2.6-3.1,2.3-.7,0-1.4-.2-2.1-.3-.6,0-1,0-1.1.8,0,.6.1,1.1.9,1.2,1.5.2,3,.4,4.5.6.9.1,1.2.5,1.1,1.5-.4,2.8-.3,2.8-3.2,2.5-2.4-.3-4.7-.6-7.1-.8-1.1-.1-1.5-.6-1.4-1.7.4-3.4.7-6.8,1-10.2,0-.8.2-1.7.2-2.5,0-2,.8-1.8,2.4-1.7Z"/>
        <path class="cls-4" d="M113.7,97.7c-.2,0-.6-.1-.9-.4-1-.7-1.8-.4-2.5.5-.3.4-.8.7-1.2,1-1.3,1.1-1.5,1.8-.6,3.3.4.6.2,1.1-.2,1.5-.6.7-1.4,1.3-2,1.9-.7.8-1.1.6-1.4-.3-.8-2-1.7-4-2.4-6-1-2.5-1.9-4.9-2.9-7.4-.5-1.1-.3-2.1.7-2.9,2.3-2.2,2.6-2.3,5.3-.8,3.7,2,7.4,4,11.1,6,.9.5,1.2.8.2,1.5-.7.5-1.2,1.1-1.8,1.6-.3.3-.6.5-1.3.4ZM104.8,93.1c0,1,.4,1.8.8,2.6.2.3.3.6.7.4.6-.3,1.2-.7,1.3-1.3.1-.5-.6-.6-1-.9-.5-.4-1.1-.7-1.9-.7Z"/>
        <path class="cls-4" d="M181.5,58.6c-3.8,0-6.9-2.7-7.9-6.8-.7-3-.2-5.7,2.2-7.8,2.5-2.2,5.4-2.9,8.6-1.8,1.7.6,1.8.9,1,2.5-.2.4-.4.8-.6,1.2-.4.6-.8.9-1.6.7-.5-.2-1.1-.3-1.7-.3-1.7,0-3.1,1.1-3.2,2.8-.2,1.8.5,3.4,2,4.5,1,.7,2.1.6,3.2,0,.5-.2.7-.6.5-1.2-.1-.5-.3-.9-.4-1.4-.5-1.7-.3-2.1,1.5-2.5,1.9-.5,2.1-.4,2.6,1.5.3,1,.6,2.1,1,3.1.4,1.1.1,2-.6,2.7-1.7,1.7-4.2,2.8-6.6,2.8Z"/>
        <path class="cls-4" d="M215,34.1c1-.2,1.8.2,2.3,1.1,2.3,4.2,4.6,8.5,6.9,12.7.4.7.4,1.3-.7,1.3-.5,0-1,.2-1.5.3-1.7.3-2.1.1-2.9-1.5-.3-.6-.7-.9-1.3-.8-.6,0-1.1.2-1.7.2-2.2.2-2.5.4-2.7,2.3,0,.6-.5,1.1-1.2,1.2-.8.1-1.6.2-2.4.4-1.1.3-1.3-.1-1.1-1.1.5-2.5.9-5.1,1.4-7.6.4-1.9.7-3.9,1.1-5.8.4-2.2.7-2.4,2.9-2.7.3,0,.6,0,1,0ZM214.8,40c-.2.8-.3,1.5-.4,2.2,0,.4-.5,1,.1,1.3.6.2,1.4,0,2-.3.2,0,.2-.3,0-.4-.5-.9-.8-2-1.8-2.8Z"/>
        <path class="cls-4" d="M404.2,96.4c-.3.9-1.1,1.6-2,2.2-.8.5-1.3-.2-1.7-.6-1-1-2-2-3-3-.6-.6-1-.6-1.6,0-.5.6-1,1.2-.1,1.9.9.8,1.7,1.7,2.6,2.5.7.7.8,1.3,0,1.9-.7.6-1.1,2-1.9,1.9-.7,0-1.4-1.1-2-1.8-.5-.5-1.1-1-1.6-1.5-.6-.7-1-.5-1.5,0-.7.8-1.5,1.6-2.2,2.4-.4.4-.7.4-1.1,0-.7-.7-1.4-1.3-2.1-2-.6-.5-.6-1,0-1.6,3.1-3.6,6.3-7.1,9.4-10.7.4-.4.6-.5,1,0,2.5,2.5,5.1,5,7.6,7.4.2.2.4.4.4.9Z"/>
        <path class="cls-4" d="M306.1,40c0,.4-.2.8-.2,1.2-.4,1.7-.6,1.9-2.3,1.5-1-.2-1.9-.5-2.9-.7-.5,0-1-.1-1.4-.1-.7,0-1,.6-1,1.3,0,.6.2,1,.8,1.1,1.2.3,2.3.6,3.5.8.8.2,1.2.6,1,1.6-.6,2.8-.6,2.9-3.3,2.3,0,0-.2,0-.2,0-.9-.2-2-.8-2.6-.5-.8.4-.6,1.8-.9,2.7-.2.6,0,1.7-.9,1.8-1.2,0-2.5,0-3.5-.8-.5-.4-.4-1.1-.2-1.6.9-4.2,1.8-8.5,2.6-12.7.2-1.1.8-1.5,1.9-1.2,2.9.7,5.8,1.4,8.7,2,.7.2,1.4.4,1.2,1.3Z"/>
        <path class="cls-4" d="M325.3,61.6c0-.7.2-1.2.4-1.8,1-2.5,1.9-4.9,2.9-7.4.4-1,.2-1.5-.8-1.9-2.8-.9-2.7-.9-1.6-3.7.4-1.1.9-1.2,1.9-.8,3.4,1.3,6.7,2.7,10,4.1.9.4,1.1.9.7,1.8-1.2,2.7-1.2,2.7-3.8,1.6-1-.4-1.5-.2-1.9.8-1.1,2.8-2.3,5.5-3.4,8.3-.4.9-.8,1.2-1.7.8-.6-.3-1.3-.4-1.9-.7-.5-.2-.8-.6-.8-1.2Z"/>
        <path class="cls-4" d="M154.4,56.1c0,.8-.5,1.1-1,1.4-2.2,1.3-2.3,1.3-1.1,3.7,1.1,2.2,2.2,4.4,3.3,6.7.6,1.3.5,1.6-.8,2.2-.9.4-2,1.3-2.7,1.1-.7-.2-1-1.6-1.5-2.5-1.2-2.2-2.4-4.4-3.5-6.7-.4-.9-.9-.9-1.6-.5-.2.1-.4.3-.6.4-.7.3-1.3,1.2-2,.7-.9-.6-1.4-1.7-1.7-2.8-.2-.7.6-1,1.1-1.3,1.9-1,3.8-2,5.8-3,1.1-.6,2.3-1.2,3.4-1.8,1.3-.7,1.6-.6,2.2.8.3.6.6,1.1.7,1.7Z"/>
        <path class="cls-4" d="M376.7,72.1c.2.2.5.4.8.5.7.5,1.5,1.2,2.2,1.6.8.5.9,1,.3,1.7-1.8,2.4-3.5,4.8-5.3,7.2-.9,1.2-.9,1.5.3,2.4,1,.7,1.9,1.5,2.9,2.2.6.5.7,1,.2,1.6-.7.7-1.2,2-2,2.2-.8.2-1.6-1-2.4-1.6-1.9-1.4-3.8-2.9-5.7-4.3-.5-.4-.6-.6-.2-1.2,2.8-3.9,5.5-7.9,8.3-11.9.2-.2.2-.5.6-.6Z"/>
        <path class="cls-4" d="M238.2,46q0,1.9-1.9,2.1c-2.4.2-4.7.4-7.1.6-1.1.1-1.7-.2-1.8-1.4-.4-4.4-.9-8.9-1.3-13.3,0-.8.2-1.3,1.1-1.4,3.6-.5,3.8-.8,4.1,2.9.2,2.2.4,4.3.5,6.5.1,2,.1,2,2.2,2,.9,0,1.8,0,2.6-.1,1.5,0,1.6,0,1.6,1.6,0,.2,0,.4,0,.6Z"/>
        <path class="cls-4" d="M451.9,173.6c0,.8-.3,1-.8,1.2-4.3,1.7-8.6,3.5-12.9,5.2-.5.2-.7,0-.9-.4-.4-1.2-.9-2.3-1.3-3.5-.3-.7,0-1.2.6-1.4,4.2-1.8,8.3-3.6,12.5-5.4.7-.3,1.2-.1,1.5.6.4,1.3.9,2.6,1.3,3.7Z"/>
        <path class="cls-4" d="M121,71.9c.5.1.7.5.9.8,2.5,3.7,5,7.4,7.6,11,.7.9.6,1.5-.3,2.2-2.6,2-2.6,2-4.5-.7-2.3-3.2-4.6-6.4-7-9.6-.4-.6-.5-1,.1-1.5.9-.7,1.9-1.4,2.8-2.1.1,0,.3-.2.4-.2Z"/>
        <path class="cls-4" d="M91.7,97.6c.2.2.4.3.5.5,3.4,3.3,6.8,6.6,10.2,9.9.6.5.7.9,0,1.5-.8.7-1.4,1.5-2.1,2.3-.4.5-.6.4-1,0-3.5-3.4-7-6.8-10.6-10.2-.2-.2-.5-.4-.2-.8.9-1,1.9-2,2.8-3,0,0,.2-.1.3-.2Z"/>
        <path class="cls-4" d="M458.6,252.2c-.4,0-.9,0-1.3,0-1,0-1.7-.5-1.9-1.5,0-.5-.3-.9-.4-1.4-.8-2.3-1.1-2,1.2-3.6q2.4-1.7,4.8,0c.3.2.5.4.8.6,1,.6,1.2,1.3.7,2.3-.3.5-.4,1.1-.6,1.7q-.6,2-2.7,2c-.2,0-.4,0-.6,0h0Z"/>
        <path class="cls-4" d="M41,252.2c-2.8,0-2.4.3-3.3-2.4-.9-2.8-.9-2.8,1.6-4.5,2.1-1.4,4.9-.5,5.9,1.8.1.3.1.5,0,.8-.2.6-.3,1.2-.5,1.7q-.9,2.6-3.7,2.6Z"/>
        <path class="cls-4" d="M37.3,238.5c2.1-.8,4.2-1.1,6.4-.4.7.2.7.4.2.9-1.6,1.7-3,1.9-5,.6-.5-.3-1.1-.6-1.6-1.2Z"/>
        <path class="cls-4" d="M458.4,237.7c.9,0,1.9.2,2.8.7.5.3.5.5,0,.9-2,1.7-3.9,1.7-5.8,0-.5-.4-.5-.6,0-.9.9-.4,1.8-.6,2.8-.7Z"/>
        <path class="cls-4" d="M450.2,242.5c1.3,3.4,1.1,4.3-1.4,6.4-1.2-1.3-.4-4.9,1.4-6.4Z"/>
        <path class="cls-4" d="M31.3,249.1c-1-2.4-.4-4.9,1.5-6.6,1.3,3.3,1.1,4.2-1.5,6.6Z"/>
        <path class="cls-4" d="M468.8,246.7c0,.6.1,1.4-.4,1.6-.4.2-.9-.4-1.2-.8-1.2-1.2-1.5-3-.8-4.7.2-.5.4-.5.7-.1,1.1,1.2,1.6,2.6,1.7,4.1Z"/>
        <path class="cls-4" d="M49.3,241.9c1.5,2,2.6,3.9,1.9,6.4-2.7-1.4-2.9-1.9-1.9-6.4Z"/>
        <path class="cls-4" d="M450.2,254.5c3.1-.2,4.8.6,5.5,2.6.1.3.4.6.1.9-.2.2-.6,0-.9,0-2-.5-3.3-1.8-4.7-3.4Z"/>
        <path class="cls-4" d="M467,254.1c-1.1,1.8-2.6,2.8-4.3,3.6-.3.1-.6.2-.9,0-.3-.3,0-.6,0-.9.7-1.9,2.4-2.9,5.1-2.7Z"/>
        <path class="cls-4" d="M32.8,254.4c2,0,3.8,0,5,1.7.3.5.9,1.1.4,1.6-.4.4-1.2.3-1.8,0-1.4-.8-2.7-1.6-3.6-3.2Z"/>
        <path class="cls-4" d="M49.7,254.1c-1.1,1.8-2.6,2.9-4.3,3.7-.3.1-.6.2-.9,0-.3-.3,0-.6,0-.9.8-2,2.1-2.8,5.2-2.8Z"/>
        <path class="cls-2" d="M76.1,249.7c-.1-27.1,6.1-52.8,18-77.1,1.2-2.4,2.8-4,5.3-4.9,6-2.3,12-4.8,17.9-7.1,1.3-.5,1.9-1.3,2.1-2.7,1.2-8,2.4-15.9,3.5-23.9.3-2.6,1.4-4.4,3.2-6.2,18.5-18.6,40-32.4,64.6-41.4,16.5-6,33.6-9.4,51.2-10.1,4.1-.2,8.2-.2,12.3-.1,1.7,0,3.1.7,4.2,2,8.8,10.7,17.5,21.4,26,32.4,1.1,1.4,2.2,1.8,3.9,1.5,17-2.3,34-4.3,51.1-5.8,1.6-.1,3.3-.2,4.9-.5,1.6-.3,3,.1,4.3,1.1,7.4,5.1,14.4,10.8,20.9,17.1,15,14.2,27.1,30.5,36.2,49.1,4.5,9.1,8.1,18.6,11.1,28.4.5,1.8.1,3.4-.8,4.9-9,14.9-18.7,29.4-28.9,43.5-1.1,1.5-2.1,3.1-3.2,4.5-1,1.3-1.1,2.5-.4,3.9,4.3,9.7,8.5,19.4,12.5,29.3,4.3,10.8,8.2,21.7,11.5,32.8.5,1.6.3,3-.4,4.4-8.3,17.5-19.3,33.1-32.9,47-11.8,12-25,22.1-39.6,30.4-2.7,1.5-5.3,1.9-8.3,1.3-16.3-3.1-32.5-6.7-48.5-11.4-1.7-.5-3,0-4.3,1.2-6.1,5.5-12.4,10.8-18.8,15.9-5.6,4.4-11.3,8.6-17.2,12.5-2,1.3-3.9,1.7-6.3,1.4-20.6-2.4-40.2-8.1-58.8-17.3-16.2-8.1-30.8-18.5-43.8-31.2-3.1-3-6-6.1-8.9-9.2-1.5-1.6-2.3-3.5-2.5-5.6-1.1-8.6-2-17.2-2.7-25.8,0-1.2-.7-2-1.8-2.5-7.1-3.3-13.9-7.1-20.8-10.8-1-.5-1.5-1.4-1.9-2.4-4.5-10.6-8-21.6-10.3-33-2.2-10.8-3.4-21.6-3.5-32.6,0-1,0-1.9,0-2.9ZM341,163.4c.1-4.4,0-7.4-.3-10.3-.2-2.2-.6-4.3-1.1-6.4-.6-2.5-1.1-5.1-2.5-7.2-1.6-2.3-3.7-3-6.4-2.3-1.6.5-3,1.3-4.3,2.3-9.4,7.2-17.8,15.5-26,23.9-2.8,2.9-5.5,5.9-8.3,8.8-1.2,1.2-1.2,1.2-2.2-.2-.5-.7-1-1.5-1.5-2.2-7.8-10.6-17.7-18.6-29.4-24.5-4.5-2.3-9.1-2.6-13.8-.9-11.8,4.4-22.1,11.2-30.5,20.7-2.1,2.4-3.9,5-5.5,7.7-.9,1.4-1.2,1.4-2.2.2-2.5-2.9-5.1-5.7-7.7-8.5-8.2-8.5-16.9-16.4-25.7-24.3-1.6-1.4-3.4-2.5-5.4-3.1-2.3-.7-4.3,0-5.7,2-.8,1.1-1.4,2.3-1.9,3.6-1.7,4.5-2,9.2-2.1,14-.1,7,.2,14.1.8,21.1.1,1.6,0,1.8-1.5,1.1-3.5-1.7-7-3.4-10.5-5.1-2.6-1.2-5.2-2.8-8-3.6-3.9-1.1-6.5,1.1-6.3,5.1.2,3.8.6,7.6,1.2,11.4,2.7,15.6,9,29.7,18.1,42.5,8,11.3,17.5,21.2,27.7,30.5,15.7,14.4,32,28.2,48.6,41.5,4,3.2,8,6.5,12.6,8.9,5.6,2.9,11.2,3.1,16.9.2,3-1.5,5.8-3.3,8.4-5.4,11.4-9.2,22.9-18.2,34.2-27.6,11.2-9.3,22.2-19,32.1-29.8,7.7-8.3,14.8-17.1,20.6-26.8,8.1-13.3,12.1-27.9,13.3-43.4.1-1.7,0-3.3-.7-4.8-.9-2.1-2.3-2.9-4.6-2.5-1.3.2-2.6.6-3.8,1.2-5.6,2.5-11.2,5.3-16.6,8.4-.3.2-.7.5-1.1.2-.4-.3-.2-.7-.2-1.1.9-5.5,1.3-11.1,1.5-15.3ZM326.8,353.2c.4.3.2.8.2,1.1,0,3.2,0,6.4,0,9.5,0,1.1.4,1.5,1.5,1.4,1,0,1.9,0,2.9,0,1,0,1.4-.4,1.4-1.4,0-6.7,0-13.4,0-20.2,0-1.7-.1-3.4,0-5.1.2-3.1,0-3.3-3.9-3.2-.9,0-1.4.5-1.8,1.4-1.5,4.2-3,8.4-4.5,12.6-.1.4-.1.8-.6,1-.3-.3-.5-.7-.6-1.1-1.4-3.8-2.8-7.6-4.2-11.4-.9-2.3-1.2-2.5-3.6-2.5-.3,0-.6,0-.8,0-1.2-.1-1.6.4-1.6,1.6,0,8.7.2,17.5,0,26.2,0,1.6.7,2.2,2.2,2.1.7,0,1.4-.1,2-.1,1.1,0,1.6-.4,1.6-1.6,0-2.9,0-5.8,0-8.7,0-.3-.1-.7.2-1.1.1.2.2.4.3.6,1.1,2.2,2,4.5,2.8,6.8.3,1,1,1.3,1.9,1.3.9,0,1.5-.4,1.8-1.3.8-2.4,1.7-4.8,2.6-7.2.1-.3.1-.7.5-.9ZM196,350.2s0,0,0,0c0,4.4,0,8.8,0,13.3,0,1.4.3,1.8,1.8,1.8,2.2,0,4.4,0,6.6,0,3.8,0,6.6-1.7,8.5-4.9,1.5-2.5,2-5.2,2.2-8.1.3-4.4-.2-8.6-2.5-12.4-1.8-2.9-4.3-4.4-7.8-4.4-2.4,0-4.8,0-7.2,0-1.2,0-1.5.4-1.5,1.5,0,4.4,0,8.8,0,13.2ZM287,350.2s0,0,0,0c0,4.4,0,8.9,0,13.3,0,.9,0,1.8,1.3,1.8,4.2,0,8.4,0,12.7,0,.9,0,1.3-.4,1.3-1.4,0-1.7,0-3.4,0-5.1,0-.9-.4-1.3-1.3-1.3-1.9,0-3.7,0-5.6,0-2.2,0-2.4-.2-2.3-2.4,0-1,.5-1.4,1.5-1.4,1.5,0,3.1,0,4.6,0,1.3.1,1.7-.3,1.7-1.6,0-1.4,0-2.8,0-4.2,0-1.2-.5-1.6-1.6-1.6-1.7,0-3.4,0-5.1,0-.8,0-1.1-.3-1.1-1.1,0-.3,0-.6,0-1-.1-1.1.4-1.4,1.4-1.4,2,0,3.9,0,5.9,0,1,0,1.4-.4,1.4-1.4,0-1.4,0-2.9,0-4.3,0-1.8-.1-1.9-1.9-1.9-3.7,0-7.5,0-11.2,0-1.6,0-1.7,0-1.7,1.6,0,4.3,0,8.7,0,13ZM185.2,365.2c.6,0,1.3,0,1.9,0,.9,0,1.2-.2.9-1.2-1.1-4.1-2.2-8.1-3.2-12.2-1.3-4.9-2.6-9.8-3.9-14.8-.3-1.1-.8-1.8-2.1-1.6-.8.1-1.6,0-2.4,0-2,0-2.2,0-2.7,2-1.2,4.6-2.4,9.1-3.6,13.7-1.1,4.1-2.2,8.3-3.3,12.4-.4,1.3-.2,1.5,1.2,1.6,1,0,2.1,0,3.1,0,1.2,0,2-.5,2.2-1.8.1-.7.2-1.4.4-2.1.2-1,.8-1.4,1.8-1.3,1.2,0,2.3,0,3.5,0,1.8,0,1.9,0,2.3,1.9.9,3.8.3,3.3,4,3.3ZM239.9,350.2c0,4.4,0,8.8,0,13.3,0,1.6.2,1.8,1.8,1.8.9,0,1.9,0,2.8,0,1.5,0,1.7-.1,1.7-1.6,0-2.1,0-4.3,0-6.4,0-1,.3-1.5,1.4-1.4,1.4,0,2.7,0,4.1,0,1.8,0,2.3-.4,2.2-2.2,0-1.2-.1-2.5,0-3.7.1-1.5-.7-2.2-2.2-2.1-.7,0-1.4.2-2.2.2-3.4,0-3.6-.3-3.3-3.7,0-.9.4-1.4,1.4-1.3,2,0,3.9,0,5.9,0,1,0,1.4-.4,1.4-1.4,0-1.6,0-3.1,0-4.7,0-1.1-.4-1.5-1.5-1.5-4,0-8,0-11.9,0-1.1,0-1.6.4-1.6,1.5,0,4.4,0,8.8,0,13.2ZM270.9,335.5c-1.9,0-3.8,0-5.7,0-1.6,0-1.9.3-1.9,1.9,0,5.4,0,10.8,0,16.2,0,3.4,0,6.8,0,10.1,0,1.1.4,1.6,1.6,1.6,1.1,0,2.3,0,3.4,0,.9,0,1.3-.4,1.3-1.3,0-2,0-4.1-.1-6.1,0-1.7.5-2.4,2.2-2.1,1.2.2,2.4.1,3.6.2,1.6,0,2.1-.4,2-1.9,0-1.3,0-2.6,0-4,0-1.5-.7-2.1-2.2-2-.7,0-1.4.2-2,.2-3.6,0-3.7,0-3.5-3.6,0-1,.4-1.4,1.5-1.4,1.9,0,3.8,0,5.7,0,1.1,0,1.6-.3,1.5-1.5,0-1.6,0-3.1,0-4.7,0-1.1-.5-1.5-1.5-1.5-1.9,0-3.9,0-5.8,0ZM230.5,350.5c0-4.5,0-9.1,0-13.6,0-.9-.3-1.3-1.3-1.3-1.2,0-2.3,0-3.5,0-1.2,0-1.4.4-1.4,1.5,0,4.5,0,9,0,13.5,0,4.5,0,8.9,0,13.4,0,1,.4,1.4,1.3,1.4,1.2,0,2.3,0,3.5,0,.9,0,1.3-.4,1.3-1.4,0-4.5,0-8.9,0-13.4Z"/>
        <path class="cls-5" d="M232.9,461.1c0-1.9.2-3.7.7-5.5.2-.7.4-1.3.7-1.9.7-1.1,1.6-1.9,3.1-1.8,1.4.1,2.3,1.1,2.7,2.3,1.1,3.9.9,7.7-.5,11.5-.5,1.3-1.5,1.9-2.9,2-1.4,0-2.3-.6-2.9-1.8-.8-1.5-.8-3.2-.8-4.8Z"/>
        <path class="cls-5" d="M276.3,466.2h0c0-.1,0-.2,0-.2,0,0,0,0,0,0,0,0,0,0,0,0Z"/>
        <path class="cls-5" d="M458.2,213.7c0,2.2-1.8,4-4,3.9-2.2,0-3.8-1.8-3.7-4.2,0-2.2,1.8-3.9,4-3.9,2.1,0,3.7,1.9,3.7,4.2Z"/>
        <path class="cls-5" d="M67.5,151.6c0,.1,0,.5-.2.9-.8,2.7-1.1,2.8-3.5,1.5-1.1-.6-2.2-1.2-3.4-1.8-.7-.4-.9-.8-.5-1.6.3-.4.4-.9.7-1.3,1-1.6,2.3-2.2,3.8-1.7,1.9.5,3,1.9,3,4Z"/>
        <path class="cls-5" d="M134.8,74.4v-.3s0,0,.2,0c0,0-.1.1-.2.2Z"/>
        <path class="cls-5" d="M41.2,212.4c.9-.5,1.7-.6,2.5-.8,1-.2,1.4-.2,1.2,1.1-.4,1.9-.5,2-2.1.9-.5-.3-.9-.7-1.6-1.2Z"/>
        <path class="cls-5" d="M345.1,67c-1-.3-2.1-.7-2.9-1.5-.5-.5,0-1,.3-1.5.2-.3.4-.9,1-.6.8.4,1.6.8,2.3,1.3.5.3.6.8.4,1.4-.2.5-.5.8-1.1.9Z"/>
        <path class="cls-5" d="M347.3,61.1c-1.3,0-2.8-1-2.6-1.6.2-.6.2-1.5,1.1-1.4,1.2,0,2.7,1.3,2.6,2.1,0,.6-.5,1-1.2.9Z"/>
        <path class="cls-5" d="M254.8,39.7c0-.8,0-1.7,0-2.5,0-.6.1-1,.8-1.2,1.4-.4,3.1.1,3.9,1.2.9,1.3.9,3.7,0,5-.8,1.1-2.8,1.7-4,1.2-.5-.2-.7-.5-.6-1,0-.9,0-1.8.1-2.8h0Z"/>
        <path class="cls-5" d="M365.2,71.2c0,2.3-2.1,4.5-4,4.5-1.6,0-2.9-1.5-2.9-3.1,0-2.3,2.1-4.6,4-4.6,1.7,0,2.9,1.4,2.9,3.2Z"/>
        <path class="cls-5" d="M55.8,172.7c-.8-.9-1.5-1.7-2.3-2.6,1-.3,2,0,2.9-.1.4,0,.4.2.4.5-.2.7-.4,1.4-.9,2.2Z"/>
        <path class="cls-5" d="M197.4,41.8c1.1,0,1.8.7,1.8,1.8,0,1.2-.9,2.1-2.1,2.1-1,0-1.7-1.1-1.7-2.6,0-.9.5-1.3,2-1.3Z"/>
        <path class="cls-5" d="M104.8,93.1c.8,0,1.3.4,1.9.7.4.3,1.1.4,1,.9-.1.6-.7,1-1.3,1.3-.4.2-.5,0-.7-.4-.4-.8-.7-1.6-.8-2.6Z"/>
        <path class="cls-5" d="M214.8,40c.9.9,1.3,1.9,1.8,2.8,0,.2.1.3,0,.4-.6.3-1.4.5-2,.3-.6-.2-.1-.8-.1-1.3,0-.7.2-1.4.4-2.2Z"/>
        <path class="cls-4" d="M341,163.4c-.2,4.2-.5,9.7-1.5,15.3,0,.4-.2.8.2,1.1.4.3.8,0,1.1-.2,5.4-3.1,10.9-5.8,16.6-8.4,1.2-.5,2.5-1,3.8-1.2,2.3-.4,3.7.4,4.6,2.5.7,1.6.8,3.2.7,4.8-1.2,15.4-5.2,30-13.3,43.4-5.9,9.7-13,18.5-20.6,26.8-9.9,10.8-20.8,20.5-32.1,29.8-11.3,9.4-22.8,18.4-34.2,27.6-2.6,2.1-5.4,3.9-8.4,5.4-5.7,2.9-11.2,2.7-16.9-.2-4.6-2.4-8.6-5.6-12.6-8.9-16.6-13.4-32.9-27.1-48.6-41.5-10.2-9.3-19.6-19.3-27.7-30.5-9.1-12.8-15.5-26.9-18.1-42.5-.6-3.8-1-7.6-1.2-11.4-.2-4,2.4-6.1,6.3-5.1,2.8.8,5.4,2.3,8,3.6,3.5,1.7,7,3.4,10.5,5.1,1.4.7,1.7.5,1.5-1.1-.6-7-.9-14-.8-21.1,0-4.7.4-9.5,2.1-14,.5-1.3,1.1-2.5,1.9-3.6,1.4-2,3.4-2.6,5.7-2,2,.6,3.8,1.7,5.4,3.1,8.8,7.8,17.6,15.7,25.7,24.3,2.6,2.8,5.2,5.6,7.7,8.5,1.1,1.3,1.4,1.3,2.2-.2,1.6-2.7,3.4-5.3,5.5-7.7,8.4-9.5,18.7-16.3,30.5-20.7,4.7-1.8,9.2-1.4,13.8.9,11.7,5.9,21.6,13.9,29.4,24.5.5.7,1,1.5,1.5,2.2,1,1.4,1.1,1.4,2.2.2,2.8-2.9,5.5-5.9,8.3-8.8,8.2-8.4,16.6-16.7,26-23.9,1.3-1,2.7-1.8,4.3-2.3,2.7-.8,4.8,0,6.4,2.3,1.5,2.2,1.9,4.7,2.5,7.2.5,2.1.9,4.2,1.1,6.4.3,3,.4,5.9.3,10.3ZM206.9,215.4c0,8.8,1.5,17.4,4,25.7,3.4,11.5,8.5,22.2,14.5,32.5,6,10.4,13,20.1,20.7,29.3,2.3,2.8,4.9,2.7,7.2,0,.7-.9,1.4-1.7,2.2-2.6,11.4-14.2,21.6-29.2,28.8-46.1,5.4-12.8,8.7-26.1,8.2-40.2-.4-10.1-2.8-19.6-7.6-28.5-7.5-14-18.5-24.3-32.2-32.1-2-1.1-3.8-.9-5.7.2-6.4,3.7-12.4,7.8-17.8,12.8-14.4,13.1-22.1,29.3-22.1,48.9ZM145,187.8c0,1.1.3,2.8.7,4.6,2.1,10.3,6.3,19.6,11.5,28.6,8.2,14,18.5,26.3,29.9,37.7,11.7,11.9,24.6,22.5,38,32.4,2.1,1.5,4.1,3,6.2,4.6.2.2.5.5.8.2.3-.2.1-.6,0-.9-.4-.6-.7-1.2-1.1-1.7-3.9-5.6-7.8-11.3-11.3-17.3-8.3-14.1-15.1-28.8-18.4-45-.8-3.7-2.2-7.2-2.4-11-.2-3.3-1.7-5.6-4.2-7.7-14.3-11.7-30.2-20.6-47.6-26.8-2.1-.8-2.2-.7-2.2,2.2ZM354.1,187.1c0-2.1-.3-2.3-1.7-1.8-13.3,4.6-25.8,11-37.5,18.9-4.4,3-8.7,6.3-12.7,9.8-1.2,1.1-1.9,2.4-2,4-.1,1.8-.5,3.6-.8,5.4-4,20.8-11.9,40-23.3,57.8-2.9,4.5-5.7,8.9-8.8,13.3-.3.4-.7.9-.3,1.3.3.4.8,0,1.1-.3,9.1-6.7,18-13.5,26.6-20.8,14.5-12.4,27.8-26.1,39.1-41.6,7.4-10.2,13.7-21,17.5-33.1,1.4-4.3,2.3-8.7,2.7-12.8ZM204.1,181.4c0-1.3-.3-2-1.3-3.1-5.6-6.3-11.3-12.4-17.5-18.1-5.4-5-10.9-9.9-17-14.1-1.9-1.3-2-1.3-2.8.9-1.2,3.2-1.8,6.6-1.9,10-.5,8.9.7,17.7,2.5,26.4.2,1.1.8,1.8,1.8,2.3,2.2,1.1,4.3,2.3,6.3,3.8,7.8,5.7,15.4,11.7,23,17.6,1.5,1.2,1.7,1.1,2-.8,1-6,2.1-12,3.5-18,.5-2.4,1-4.7,1.5-6.8ZM335.2,161.9c0-1.2,0-2.5,0-3.7-.2-4.1-.7-8.1-2.3-11.9-.6-1.4-.6-1.4-1.8-.6-1.1.8-2.2,1.5-3.2,2.3-11.6,8.8-21.9,19.1-31.6,29.9-1.4,1.5-1.7,3-1.3,4.9,1.7,7.5,3.2,15.1,4.9,22.6.5,2.2.6,2.3,2.4.9,4.5-3.4,9-6.8,13.4-10.2,4.8-3.7,9.5-7.6,15-10.3,1.2-.6,1.9-1.5,2.2-2.8,1.4-7,2.4-14,2.4-21.2Z"/>
        <path class="cls-4" d="M326.8,353.2c-.4.2-.4.6-.5.9-.9,2.4-1.8,4.8-2.6,7.2-.3.9-.9,1.3-1.8,1.3-.9,0-1.6-.3-1.9-1.3-.8-2.3-1.7-4.6-2.8-6.8,0-.2-.2-.3-.3-.6-.3.4-.2.7-.2,1.1,0,2.9,0,5.8,0,8.7,0,1.2-.4,1.6-1.6,1.6-.7,0-1.4,0-2,.1-1.6.1-2.3-.5-2.2-2.1.2-8.7,0-17.5,0-26.2,0-1.2.4-1.7,1.6-1.6.3,0,.6,0,.8,0,2.4,0,2.8.2,3.6,2.5,1.4,3.8,2.8,7.6,4.2,11.4.2.4.3.8.6,1.1.5-.3.5-.7.6-1,1.5-4.2,3.1-8.4,4.5-12.6.3-.9.9-1.3,1.8-1.4,3.8-.1,4.1,0,3.9,3.2,0,1.7,0,3.4,0,5.1,0,6.7,0,13.4,0,20.2,0,1-.4,1.4-1.4,1.4-1,0-1.9,0-2.9,0-1,0-1.5-.4-1.5-1.4,0-3.2,0-6.4,0-9.5,0-.4.2-.8-.2-1.1Z"/>
        <path class="cls-4" d="M196,350.2c0-4.4,0-8.8,0-13.2,0-1.1.4-1.6,1.5-1.5,2.4,0,4.8,0,7.2,0,3.5,0,6,1.5,7.8,4.4,2.4,3.8,2.9,8,2.5,12.4-.2,2.8-.8,5.6-2.2,8.1-1.9,3.3-4.7,4.9-8.5,4.9-2.2,0-4.4,0-6.6,0-1.4,0-1.8-.3-1.8-1.8,0-4.4,0-8.8,0-13.3,0,0,0,0,0,0ZM202.2,350.3c0,1.9,0,3.8,0,5.7,0,1.1.5,1.5,1.5,1.6,1.9.2,3.9-1,4.6-2.7,1.2-2.9,1.2-5.9,0-8.8-.8-2.1-2.7-3.1-5-2.7-.8.1-1.1.5-1.1,1.3,0,1.9,0,3.9,0,5.8Z"/>
        <path class="cls-4" d="M287,350.2c0-4.3,0-8.7,0-13,0-1.5,0-1.6,1.7-1.6,3.7,0,7.5,0,11.2,0,1.8,0,1.9.1,1.9,1.9,0,1.4,0,2.9,0,4.3,0,1-.4,1.4-1.4,1.4-2,0-3.9,0-5.9,0-1,0-1.5.3-1.4,1.4,0,.3,0,.6,0,1,0,.8.3,1.1,1.1,1.1,1.7,0,3.4,0,5.1,0,1.1,0,1.6.4,1.6,1.6,0,1.4,0,2.8,0,4.2,0,1.2-.4,1.7-1.7,1.6-1.5-.2-3.1,0-4.6,0-1,0-1.5.4-1.5,1.4,0,2.3,0,2.4,2.3,2.4,1.9,0,3.7,0,5.6,0,.9,0,1.3.4,1.3,1.3,0,1.7,0,3.4,0,5.1,0,.9-.4,1.3-1.3,1.4-4.2,0-8.4,0-12.7,0-1.2,0-1.3-.9-1.3-1.8,0-4.4,0-8.9,0-13.3,0,0,0,0,0,0Z"/>
        <path class="cls-4" d="M185.2,365.2c-3.8,0-3.1.5-4-3.3-.4-1.8-.5-1.9-2.3-1.9-1.2,0-2.3,0-3.5,0-1,0-1.6.3-1.8,1.3-.1.7-.3,1.4-.4,2.1-.2,1.3-.9,1.8-2.2,1.8-1,0-2.1,0-3.1,0-1.4,0-1.6-.2-1.2-1.6,1.1-4.1,2.2-8.3,3.3-12.4,1.2-4.6,2.4-9.1,3.6-13.7.5-2,.7-2.1,2.7-2,.8,0,1.6,0,2.4,0,1.3-.2,1.8.5,2.1,1.6,1.3,4.9,2.6,9.8,3.9,14.8,1.1,4.1,2.1,8.1,3.2,12.2.3,1,0,1.3-.9,1.2-.6,0-1.3,0-1.9,0ZM177.6,346.3c-1.1,2.1-1.4,4-1.8,5.9,0,.1,0,.3,0,.4.2.2,2.8.2,3.1,0,.2-.2.1-.4,0-.6-.4-1.8-.9-3.7-1.4-5.8Z"/>
        <path class="cls-4" d="M239.9,350.2c0-4.4,0-8.8,0-13.2,0-1.2.4-1.5,1.6-1.5,4,0,8,0,11.9,0,1.1,0,1.5.4,1.5,1.5,0,1.6,0,3.1,0,4.7,0,1-.4,1.4-1.4,1.4-2,0-3.9,0-5.9,0-1,0-1.3.4-1.4,1.3-.3,3.4,0,3.7,3.3,3.7.7,0,1.4-.1,2.2-.2,1.5-.1,2.3.5,2.2,2.1-.1,1.2,0,2.5,0,3.7.1,1.7-.4,2.2-2.2,2.2-1.4,0-2.7,0-4.1,0-1.1,0-1.4.4-1.4,1.4,0,2.1,0,4.3,0,6.4,0,1.5-.1,1.6-1.7,1.6-.9,0-1.8,0-2.8,0-1.6,0-1.8-.2-1.8-1.8,0-4.4,0-8.8,0-13.3Z"/>
        <path class="cls-4" d="M270.9,335.5c1.9,0,3.9,0,5.8,0,1,0,1.6.3,1.5,1.5,0,1.6,0,3.1,0,4.7,0,1.1-.5,1.5-1.5,1.5-1.9,0-3.8,0-5.7,0-1,0-1.4.4-1.5,1.4-.1,3.5,0,3.6,3.5,3.6.7,0,1.4-.1,2-.2,1.5-.1,2.2.5,2.2,2,0,1.3,0,2.6,0,4,0,1.5-.5,2-2,1.9-1.2,0-2.4,0-3.6-.2-1.7-.2-2.3.4-2.2,2.1,0,2,0,4.1.1,6.1,0,.9-.4,1.3-1.3,1.3-1.1,0-2.3,0-3.4,0-1.1,0-1.6-.4-1.6-1.6,0-3.4,0-6.8,0-10.1,0-5.4,0-10.8,0-16.2,0-1.6.3-1.9,1.9-1.9,1.9,0,3.8,0,5.7,0Z"/>
        <path class="cls-4" d="M230.5,350.5c0,4.5,0,8.9,0,13.4,0,1-.4,1.4-1.3,1.4-1.2,0-2.3,0-3.5,0-1,0-1.3-.4-1.3-1.4,0-4.5,0-8.9,0-13.4,0-4.5,0-9,0-13.5,0-1.1.3-1.6,1.4-1.5,1.2,0,2.3,0,3.5,0,.9,0,1.3.4,1.3,1.3,0,4.5,0,9.1,0,13.6Z"/>
        <path class="cls-2" d="M206.9,215.4c0-19.6,7.7-35.8,22.1-48.9,5.4-5,11.5-9.1,17.8-12.8,1.9-1.1,3.8-1.3,5.7-.2,13.7,7.7,24.8,18.1,32.2,32.1,4.8,8.9,7.2,18.4,7.6,28.5.6,14.1-2.7,27.4-8.2,40.2-7.1,16.9-17.3,31.9-28.8,46.1-.7.9-1.4,1.7-2.2,2.6-2.3,2.7-4.9,2.7-7.2,0-7.7-9.2-14.7-18.9-20.7-29.3-6-10.3-11.1-21.1-14.5-32.5-2.5-8.4-4-16.9-4-25.7Z"/>
        <path class="cls-5" d="M145,187.8c0-3,0-3,2.2-2.2,17.4,6.2,33.3,15,47.6,26.8,2.5,2,4,4.4,4.2,7.7.2,3.8,1.7,7.4,2.4,11,3.3,16.2,10.1,30.9,18.4,45,3.5,5.9,7.3,11.6,11.3,17.3.4.6.8,1.1,1.1,1.7.2.3.3.7,0,.9-.3.3-.6,0-.8-.2-2.1-1.5-4.2-3-6.2-4.6-13.4-10-26.2-20.5-38-32.4-11.3-11.5-21.7-23.8-29.9-37.7-5.2-9-9.5-18.3-11.5-28.6-.3-1.7-.6-3.5-.7-4.6Z"/>
        <path class="cls-5" d="M354.1,187.1c-.5,4.1-1.3,8.5-2.7,12.8-3.9,12.1-10.1,22.9-17.5,33.1-11.2,15.5-24.5,29.1-39.1,41.6-8.6,7.3-17.5,14.2-26.6,20.8-.3.2-.8.7-1.1.3-.3-.4,0-.9.3-1.3,3.1-4.3,5.9-8.8,8.8-13.3,11.4-17.8,19.3-37,23.3-57.8.3-1.8.7-3.6.8-5.4.1-1.6.8-2.9,2-4,4-3.5,8.3-6.8,12.7-9.8,11.7-8,24.1-14.3,37.5-18.9,1.4-.5,1.6-.3,1.7,1.8Z"/>
        <path class="cls-5" d="M204.1,181.4c-.4,2.1-.9,4.4-1.5,6.8-1.3,6-2.5,12-3.5,18-.3,1.9-.5,1.9-2,.8-7.7-5.9-15.2-11.9-23-17.6-2-1.4-4.1-2.7-6.3-3.8-1-.5-1.6-1.2-1.8-2.3-1.8-8.7-2.9-17.5-2.5-26.4.2-3.4.7-6.8,1.9-10,.8-2.2.9-2.2,2.8-.9,6.1,4.2,11.6,9.1,17,14.1,6.2,5.7,11.9,11.8,17.5,18.1,1,1.1,1.3,1.8,1.3,3.1Z"/>
        <path class="cls-5" d="M335.2,161.9c0,7.1-1,14.2-2.4,21.2-.3,1.3-.9,2.2-2.2,2.8-5.5,2.7-10.2,6.6-15,10.3-4.5,3.4-8.9,6.8-13.4,10.2-1.8,1.4-1.9,1.3-2.4-.9-1.6-7.5-3.2-15.1-4.9-22.6-.4-1.9,0-3.4,1.3-4.9,9.7-10.8,20-21.1,31.6-29.9,1.1-.8,2.1-1.6,3.2-2.3,1.2-.8,1.2-.8,1.8.6,1.6,3.8,2.1,7.8,2.3,11.9,0,1.2,0,2.5,0,3.7Z"/>
        <path class="cls-5" d="M202.2,350.3c0-1.9,0-3.9,0-5.8,0-.8.3-1.1,1.1-1.3,2.2-.3,4.2.6,5,2.7,1.1,2.9,1.1,5.9,0,8.8-.7,1.8-2.7,2.9-4.6,2.7-1,0-1.5-.4-1.5-1.6,0-1.9,0-3.8,0-5.7Z"/>
        <path class="cls-5" d="M177.6,346.3c.5,2.1.9,3.9,1.4,5.8,0,.2.1.4,0,.6-.2.2-2.9.3-3.1,0,0-.1,0-.3,0-.4.4-1.9.7-3.9,1.8-5.9Z"/>
      </g>
    </g>
  </g>
</svg>