<?xml version="1.0" encoding="utf-8" ?><svg xmlns="http://www.w3.org/2000/svg" xmlns:xlink="http://www.w3.org/1999/xlink" width="298" height="400" viewBox="0 0 298 400"><path transform="scale(1.21138 1.20846)" d="M122.292 0L123.494 0C125.943 1.82266 138.751 6.35839 142.475 7.6913C166.777 16.3899 194.161 23.0304 219.952 25.2091C225.72 25.6476 231.5 25.8964 237.284 25.9549C239.747 25.9989 243.661 25.9034 246 26.1138L246 147.417L245.97 147.519C245.307 149.827 245.105 155.513 244.95 158.04C244.708 161.734 244.397 165.423 244.018 169.106C242.69 181.433 240.589 193.664 237.729 205.728C233.766 221.728 227.203 239.725 218.048 253.556C202.121 277.618 176.502 297.918 152.647 313.605C146.7 317.463 140.648 321.154 134.495 324.675C133.051 325.502 124.505 330.272 123.669 331L122.161 331C121.165 330.111 112.119 325.105 110.436 324.145C104.811 320.918 99.2723 317.54 93.8274 314.016C68.9977 297.808 41.896 276.36 26.0958 250.804C12.0242 228.044 5.62485 199.502 2.35201 173.195C1.96372 169.97 1.63079 166.739 1.35337 163.504C1.11898 160.444 0.921592 152.513 0 150.141L0 25.9717C36.5874 26.591 71.1717 19.3602 105.517 6.90831C108.754 5.7347 120.145 1.66803 122.292 0Z"/><path fill="#FCD714" transform="scale(1.21138 1.20846)" d="M8.56522 86.9607L142.367 86.9411C173.853 86.9402 205.982 86.6014 237.423 86.994C237.098 92.3047 237.324 100.03 237.325 105.533L237.285 141.314C237.236 148.978 236.488 159.264 235.674 166.895C232.603 195.661 226.111 226.005 209.9 250.469C204.352 258.842 196.876 266.795 189.766 273.815C170.409 292.215 146.403 308.729 122.874 321.445C118.136 318.621 113.222 316.008 108.514 313.09C82.7717 297.133 54.303 276.75 36.8454 251.67C17.6365 224.074 10.647 187.428 8.79872 154.557C8.31858 146.018 8.55398 137 8.55607 128.388L8.56522 86.9607Z"/><path transform="scale(1.21138 1.20846)" d="M155.178 105.935C155.304 104.137 155.088 101.693 156.908 100.81L157.512 101.056C158.688 102.476 158.464 103.977 158.529 105.871C167.442 107.342 170.466 113.734 166.689 121.802L166.865 121.891C171.541 124.309 173.323 127.074 174.824 131.948C170.65 130.757 165.62 129.819 162.436 132.751C161.188 133.588 159.763 134.785 158.391 135.358C154.549 136.964 149.393 135.797 146.659 139.657C145.622 141.155 145.073 143.813 145.505 145.58C146.296 148.814 150.157 150.445 153.17 149.362C156.835 148.043 159.322 145.617 161.585 142.574C163.504 139.952 166.807 135.577 170.307 135.121C177.274 134.213 184.735 142.38 187.373 147.714C191.453 155.965 194.391 164.877 197.48 173.321C201.587 184.37 205.488 195.494 209.18 206.688C211.704 214.382 214.58 223.365 216.094 231.274C209.032 227.405 206.129 220.429 202.049 214.086C203.056 219.34 203.974 223.964 205.571 229.067C200.57 226.53 197.333 221.114 195.237 216.114C195.053 217.607 195.033 219.443 194.98 220.972C190.164 218.598 189.364 215.271 185.196 212.508C184.943 212.34 184.432 212.738 184.189 212.888C183.316 214.473 185.092 217.458 185.205 219.304C185.693 227.251 180.96 228.984 174.764 231.358C173.004 232.033 171.082 235.889 168.116 235.874C163.239 235.85 162.428 229.974 162.232 226.337C157.64 225.94 149.68 224.652 145.02 223.954C147.171 233.902 151.356 242.381 157.68 250.298C159.539 252.625 161.811 254.937 163.512 257.371C163.814 257.804 163.65 258.384 163.519 258.879C160.451 261.677 151.834 253.261 149.622 251.033C150.36 253.29 151.448 255.418 152.847 257.338C153.992 258.905 155.467 260.317 156.746 261.782C157.639 262.805 157.865 263.268 157.045 264.434C153.316 266.458 148.463 260.892 146.361 258.388L147.552 262.197C148.167 263.674 149.219 265.496 148.748 266.938C146.746 268.631 142.355 265.234 140.84 263.809C140.928 265.388 141.294 268.009 140.629 269.348C138.588 270.637 135.976 266.283 134.289 266.101C133.434 266.862 133.82 268.482 132.785 269.944C130.505 271.329 128.195 268.27 126.723 266.719C125.745 268.004 124.477 270.834 123.045 271.284C121.813 271.074 120.252 268.132 119.066 266.818C117.811 268.158 115.801 270.605 113.793 270.378C111.846 269.198 112.829 267.631 111.704 266.125C110.259 266.086 107.291 270.648 105.168 269.344C104.651 268.409 104.993 265.077 105.052 263.782C104.812 264.044 104.559 264.294 104.294 264.531C102.816 265.855 98.9438 268.699 97.3128 266.513C96.9588 264.779 98.7698 261.038 99.347 258.556C97.5178 260.853 91.6626 267.183 88.5918 264.141C88.4309 263.551 88.3541 262.794 88.7701 262.319C92.5455 258.011 94.4178 256.276 96.3394 250.734C94.17 253.285 85.7185 261.546 82.4311 258.899C81.7875 257.091 84.4323 254.742 85.7566 253.225C93.6594 244.172 98.0757 235.693 100.912 224C95.2323 224.781 89.3133 225.688 83.6388 226.333C83.51 230.282 82.7133 235.866 77.5907 235.802C74.8018 235.883 73.5158 232.566 71.3804 231.504C66.4747 229.031 62.9315 229.325 61.0288 223.329C59.4616 218.391 62.1076 216.881 62.247 213.362C60.0802 210.192 56.0693 217.821 54.0118 219.008C52.9026 219.648 52.1003 220.369 50.7721 221.059C50.8897 219.614 50.8079 217.503 50.789 215.999C48.6337 221.637 45.2226 225.957 40.2533 229.284C41.7981 225.083 43.0478 218.162 44.0276 213.618C40.2887 219.798 36.6111 227.789 29.8188 231.176C32.6848 217.733 37.466 204.306 41.9325 191.299C34.3745 180.708 27.828 168.245 20.3694 157.481C18.0721 154.165 16.9729 151.783 16.0487 147.855C18.9561 149.169 20.1738 149.708 22.1977 152.296C24.4904 155.227 26.7733 158.174 29.0491 161.12L45.2502 182.045C46.0829 179.064 47.9121 174.311 49.2469 171.042C54.1545 159.022 58.3101 138.576 72.9793 135.202C82.6069 132.987 85.5386 151.816 96.3225 149.407C99.9609 148.594 100.976 145.613 100.448 142.099C98.965 135.605 91.028 137.116 87.5711 135.291C79.2833 130.914 81.7929 129.523 71.2401 131.866C71.2906 131.648 71.3456 131.432 71.4052 131.217C72.6794 126.44 74.8894 124.286 79.0855 121.861C76.2223 113.273 77.6035 107.674 87.4497 105.879C87.4662 104.146 87.3993 101.842 88.3254 100.356C91.0045 100.981 90.5526 103.482 90.8149 105.916C96.3861 106.362 99.9946 109.268 100.972 114.872C101.154 115.918 101.318 117.974 101.937 118.708C108.886 121.535 105.901 124.247 113.299 124.566C113.313 119.309 112.092 118.718 108.159 115.543C108.138 111.38 108.14 107.216 108.164 103.053C110.77 105.664 114.021 108.501 116.775 111.02C116.547 121.851 118.892 120.873 122.938 129.893C126.902 120.759 129.463 122.267 129.099 111.045C131.69 108.494 135.051 105.613 137.802 103.084C137.65 106.943 137.763 111.527 137.76 115.441C133.785 118.824 132.696 119.221 132.52 124.593C133.257 124.551 134.036 124.482 134.728 124.421C138.309 124.103 138.856 121.328 141.601 119.724C141.863 119.524 144.258 118.769 144.26 118.746C144.572 115.356 145.05 112.406 147.255 109.617C149.381 106.928 151.816 106.291 155.178 105.935Z"/><path fill="#FCD714" transform="scale(1.21138 1.20846)" d="M88.3712 183.359C100.602 184.193 98.8129 188.84 101.344 198.001C99.1517 199.692 97.0932 202.569 95.7616 204.987C89.4557 207.55 88.2321 210.738 82.4175 212.475C81.724 210.674 81.1188 209.424 80.2486 207.694C77.8093 203.644 75.0716 201.657 70.3071 201.193C67.3072 200.901 63.5306 199.91 65.3876 196.012C67.0693 194.774 67.9842 196.049 69.0442 197.274C72.6016 195.752 76.0725 191.454 78.6576 188.527C83.5556 191.064 85.744 186.995 88.3712 183.359Z"/><path fill="#FCD714" transform="scale(1.21138 1.20846)" d="M155.212 183.573L157.569 183.437C160.274 187.15 162.335 191.009 167.305 188.553C169.737 191.624 173.356 195.549 176.847 197.291C177.963 196.038 178.743 194.941 180.546 195.937C180.862 196.406 180.829 196.479 180.914 196.992C181.702 201.778 174.726 200.717 171.694 202.101C169.128 203.273 168.68 203.687 166.852 205.885C165.26 208.078 164.518 209.964 163.48 212.431C157.374 210.786 156.781 207.41 150.285 205.204C148.899 202.656 146.812 199.758 144.487 197.996C147.261 190.044 144.282 185.674 155.212 183.573Z"/><path fill="#FCD714" transform="scale(1.21138 1.20846)" d="M83.917 111.367C84.0586 111.408 84.3032 111.569 84.443 111.651C84.8412 113.692 83.7292 115.733 82.5969 117.358C80.9906 116.188 82.8578 112.525 83.917 111.367Z"/><path fill="#FCD714" transform="scale(1.21138 1.20846)" d="M161.32 111.313C163.805 112.032 163.812 115.204 163.803 117.327C161.6 116.284 161.502 113.38 161.32 111.313Z"/><path fill="#FCD714" transform="scale(1.21138 1.20846)" d="M93.9024 111.422C96.1417 111.657 96.317 115.617 96.5084 117.299C94.154 116.393 93.9426 113.617 93.9024 111.422Z"/><path fill="#FCD714" transform="scale(1.21138 1.20846)" d="M151.632 111.193L151.941 111.75C151.909 114.077 151.603 115.459 149.961 117.177C148.419 116.101 150.594 112.229 151.632 111.193Z"/><path transform="scale(1.21138 1.20846)" d="M130.522 282.046C134.556 281.764 135.78 282.626 137.928 285.812L134.388 286.805C134.274 286.645 134.155 286.488 134.032 286.333C129.678 280.898 126.687 292.536 132.012 292.306C133.21 292.254 133.675 290.942 134.402 290.049L135.128 290.026L138.098 290.998L137.987 291.198C132.816 300.474 121.807 293.123 126.082 284.722C126.904 283.106 128.857 282.406 130.522 282.046Z"/><path transform="scale(1.21138 1.20846)" d="M110.255 282.221C112.207 282.219 121.308 281.2 120.526 284.224C119.031 285.999 116.584 284.288 114.521 285.324C114.117 285.918 114.216 285.638 114.277 286.506C115.568 288.282 117.419 286.095 119.374 287.738L119.428 288.925C119.375 289.322 119.314 289.341 119.069 289.65C117.793 289.935 115.687 289.803 114.307 289.771L114.299 295.018L110.255 295.072L110.255 282.221Z"/><path transform="scale(1.21138 1.20846)" d="M119.429 291.385C120.518 291.505 122.078 291.46 123.207 291.46L123.21 295.026L119.335 295.069L119.429 291.385Z"/><path transform="scale(1.21138 1.20846)" d="M139.976 291.389C140.911 291.511 142.766 291.463 143.774 291.464L143.763 295.041L139.821 295.061C139.797 293.896 139.907 292.565 139.976 291.389Z"/><path fill="#FEFEFE" transform="scale(1.21138 1.20846)" d="M122.603 9.50047C123.533 9.44275 130.738 12.4669 132.126 12.9996C140.519 16.1673 149.019 19.0426 157.611 21.6204C185.67 29.8493 208.426 33.8183 237.321 34.5648C237.639 48.9072 237.38 64.338 237.333 78.7712C199.723 79.2311 161.3 78.823 123.625 78.8221L8.59259 78.7459C8.43238 73.5895 8.54991 67.7713 8.54818 62.5592L8.57252 34.5295C47.0379 34.0833 87.1113 24.1085 122.603 9.50047Z"/><path transform="scale(1.21138 1.20846)" d="M123.283 35.1164C127.017 35.1102 129.677 35.4142 133.301 36.2051C136.283 36.856 148.38 41.612 147.198 45.5239C145.4 46.9364 141.164 44.1815 139.18 43.7376C131.175 41.9515 121.532 41.4478 113.954 45.0634C111.045 46.4511 110.011 48.5054 109.144 51.3737C119.133 51.73 130.362 51.4834 140.442 51.483L140.453 56.752C130.294 56.8089 119.207 56.4943 109.149 56.8716C110.484 62.0869 112.997 63.8775 117.915 65.3894C124.125 66.9254 130.55 66.8066 136.803 64.995C139.979 64.075 143.906 60.5374 147.524 60.8496C148.533 61.5562 147.723 62.6758 147.026 63.4042C141.567 69.1125 132.892 73.0944 125.011 73.4331C116.603 73.7946 106.75 72.1948 100.28 66.4157C93.277 60.1854 92.2292 50.5607 98.7882 43.5754C105.214 36.732 114.334 35.4359 123.283 35.1164Z"/><path transform="scale(1.21138 1.20846)" d="M40.2052 36.4034C44.2477 36.9607 48.284 37.5621 52.3134 38.2075C54.5638 47.808 59.3171 59.2608 66.9879 65.9175C69.7474 68.3122 72.6732 69.4078 75.5061 71.5153C76.008 71.8886 76.1823 72.1638 76.2031 72.7105C73.4132 75.4717 58.2217 66.9184 55.5253 64.9868L52.0413 66.0207C41.1607 69.5523 29.3747 71.3907 17.963 71.9003C16.5936 71.9615 15.3078 72.0628 14.032 71.4494C13.8018 71.1815 13.5869 71.067 13.6327 70.6958C13.9934 67.772 37.088 46.4145 40.8879 43.5895C40.5461 41.0409 40.2448 38.9885 40.2052 36.4034Z"/><path fill="#FEFEFE" transform="scale(1.21138 1.20846)" d="M43.0128 50.4815C43.5461 50.6343 44.1819 52.2691 44.5493 52.8715C46.1614 55.5151 47.5838 57.7633 49.7617 59.9487C44.5144 62.7141 40.2313 64.0943 34.4438 65.1603C34.2053 65.1962 33.9664 65.229 33.727 65.2588C32.4416 65.4182 28.5626 65.9354 27.6114 65.189L27.6504 64.5986C29.4913 61.2469 39.6211 52.8158 43.0128 50.4815Z"/><path transform="scale(1.21138 1.20846)" d="M181.989 39.4989C182.031 44.8433 181.8 50.4547 182.137 55.7956C182.191 56.6433 182.314 56.9146 183.012 57.263C187.135 57.3015 210.554 41.9343 216.694 40.5061C218.986 39.973 224.747 38.0478 225.945 41.4108C225.851 43.5166 222.512 44.283 220.893 45.2162C205.562 54.0502 191.52 50.9535 213.574 64.7606C220.308 68.8175 225.346 70.8297 233.079 69.2521C230.6 71.9975 228.254 73.2812 224.394 73.4248C216.073 73.7344 205.517 70.4294 198.773 65.562C196.346 63.8108 194.225 61.4023 191.977 59.4408C188.246 60.0547 185.131 61.7385 182.022 63.7987C181.939 66.9259 182.009 70.35 182.012 73.4999L169.294 73.5091L169.302 39.4796L181.989 39.4989Z"/><path transform="scale(1.21138 1.20846)" d="M155.46 64.6443C157.012 64.1427 158.714 64.5149 159.915 65.6188C161.116 66.7227 161.631 68.3874 161.262 69.9765C160.893 71.5656 159.698 72.8333 158.133 73.2949C155.756 73.996 153.258 72.6565 152.526 70.2892C151.795 67.9219 153.102 65.4063 155.46 64.6443Z"/><path transform="scale(1.21138 1.20846)" d="M85.9838 64.6359C87.5621 64.1417 89.2844 64.5487 90.4746 65.697C91.6648 66.8453 92.1332 68.5519 91.6959 70.1469C91.2586 71.7419 89.9853 72.9709 88.3759 73.3517C87.0389 73.6679 85.6306 73.3592 84.5486 72.5126C83.4665 71.6661 82.828 70.3735 82.8133 68.9997C82.7919 67.005 84.0802 65.2319 85.9838 64.6359Z"/></svg>