<svg xmlns="http://www.w3.org/2000/svg" viewBox="0 0 1864.85 2163.33"><defs><style>.cls-1{fill:#ffeb00;}.cls-2{fill:#13110c;}</style></defs><title>Asset 1</title><g id="Layer_2" data-name="Layer 2"><g id="Layer_1-2" data-name="Layer 1"><path class="cls-1" d="M153.91,2163.33a50.23,50.23,0,0,1-35.65-14.71L18,2048.92a50.9,50.9,0,0,1-14.9-35.83V1545a50.61,50.61,0,0,1,50.55-50.54H213.16V971.25H150.34a50.18,50.18,0,0,1-35.8-14.86L14.74,856.24A50.25,50.25,0,0,1,0,820.56V524.88a50.81,50.81,0,0,1,15.41-36.33L505.9,14.21A50.33,50.33,0,0,1,541,0h956.5A50.24,50.24,0,0,1,1533,14.53l100.27,98.74a50.87,50.87,0,0,1,15.08,36v1345.2h65.73a50.22,50.22,0,0,1,35.62,14.69l100.24,99.61a50.9,50.9,0,0,1,14.91,35.86v468.14a50.59,50.59,0,0,1-50.54,50.54Z"/><path class="cls-2" d="M1842.56,2112.79V1644.64a28.26,28.26,0,0,0-8.34-20L1734,1525a28.21,28.21,0,0,0-19.91-8.22h-88V149.29a28.22,28.22,0,0,0-8.43-20.13L1517.36,30.41a28.27,28.27,0,0,0-19.82-8.12H541a28.25,28.25,0,0,0-19.64,7.94L30.9,504.57a28.28,28.28,0,0,0-8.61,20.31V820.56a28.26,28.26,0,0,0,8.24,20l99.8,100.15a28.24,28.24,0,0,0,20,8.31h85.11v567.81H53.69A28.26,28.26,0,0,0,25.43,1545v468.05a28.25,28.25,0,0,0,8.33,20L134,2132.82a28.26,28.26,0,0,0,19.93,8.23h1660.4A28.25,28.25,0,0,0,1842.56,2112.79Z"/><polygon class="cls-1" points="66.76 2008.32 1709.55 2008.32 1709.55 1557.49 1493.09 1557.49 1493.09 62.99 545.59 62.99 63.62 529.23 63.62 816.23 276.77 816.23 276.77 1557.49 66.76 1557.49 66.76 2008.32"/><path class="cls-2" d="M1385.61,448l-10.15-5.4C1225.14,362.48,1055.2,320.15,884,320.15s-341.15,42.33-491.47,122.4L382.35,448V750.14c0,331,151.65,572.4,491.73,782.65l10.09,6.25,10.09-6.25C1234.33,1322.54,1386,1081.18,1386,750.13Zm-38.22,318.86c-2.53,152.46-39.79,285.06-115.88,404.22V819.63ZM420.69,471.05a1009.41,1009.41,0,0,1,892.22-16.84L426.87,858a926.51,926.51,0,0,1-6.18-107.86Zm99.49,672.73,132.27-60.29v230C598.7,1259.8,554.76,1203.48,520.18,1143.78ZM768.28,1414V1030.73L884.07,978v515.87Q821.7,1454.71,768.28,1414Zm231.62.13V925.17l115.8-52.77v441.31Q1063.94,1365.4,999.9,1414.11Z"/><rect class="cls-2" x="871.74" y="1909.99" width="25.22" height="25.22" transform="translate(2806.95 1038.24) rotate(90)"/><rect class="cls-2" x="581.51" y="1861.66" width="16.43" height="73.63"/><path class="cls-2" d="M665.52,1861.77v15.5c0,6.41-1.85,8.07-4.09,8.07-2.49,0-4.33-1.54-4.33-8.07v-15.5h-14v15.58c0,6.65-1.66,8-4.33,8s-4.74-1.42-4.74-8.07v-15.54H617.28v73.56H634V1899a19.69,19.69,0,0,0,5.75.79c5.33,0,9.3-1.41,11.83-4.2,3,3,6.49,4.2,11.49,4.2,5.27,0,10-1.54,13.05-4.58,2.45-2.47,5.36-7.2,5.29-16v-17.48Z"/><path class="cls-2" d="M722.93,1876.69h16v-14.92H720.66c-18.22,0-27.45,7.1-27.45,21.11,0,5.57,2,10.32,5.6,13.49-5.37,3.3-8.55,9.31-8.55,16.26,0,13.55,10.31,22.66,25.65,22.66h23v-15H718.51c-7.53,0-10.6-2.11-10.6-7.29,0-5.73,3.23-8,11.51-8h19.51v-14.93H721.45c-10,0-10.82-2.84-10.82-6.85C710.63,1878.48,711.69,1876.69,722.93,1876.69Z"/><polygon class="cls-2" points="753.02 1861.77 753.02 1876.63 779.62 1876.63 779.62 1935.29 796.25 1935.29 796.25 1861.77 753.02 1861.77"/><polygon class="cls-2" points="979.54 1861.82 955.82 1881.18 965.84 1893.06 977.16 1883.75 977.16 1935.29 993.78 1935.29 993.78 1861.82 979.54 1861.82"/><path class="cls-2" d="M1061,1875.89a25.54,25.54,0,0,0-5.84-8.3,27.07,27.07,0,0,0-8.78-5.49,29.68,29.68,0,0,0-10.81-1.95,30.75,30.75,0,0,0-10.67,1.84,24.94,24.94,0,0,0-14.62,13.77,27,27,0,0,0-2.14,10.85,24.53,24.53,0,0,0,1.89,9.62,23.66,23.66,0,0,0,5.23,7.76,24.76,24.76,0,0,0,7.73,5.16,23.93,23.93,0,0,0,9.49,1.89c.59,0,1.21,0,1.89-.07l-16.82,24.32h20.26l17.85-27.64q1.68-2.69,3-5.17a44.57,44.57,0,0,0,2.35-5.06,30.57,30.57,0,0,0,1.53-5.37,31.51,31.51,0,0,0,.52-5.92A25.35,25.35,0,0,0,1061,1875.89Zm-35.2,14.62a12.8,12.8,0,0,1-.76-4.48,11.29,11.29,0,0,1,2.93-8.17,10,10,0,0,1,7.69-3,10.44,10.44,0,0,1,4.36.87,10.53,10.53,0,0,1,5.51,5.9,12,12,0,0,1,.76,4.24,12.76,12.76,0,0,1-.8,4.6,9.76,9.76,0,0,1-2.19,3.43,9.91,9.91,0,0,1-3.39,2.19,12.18,12.18,0,0,1-4.44.78,10.89,10.89,0,0,1-4.26-.8,10.69,10.69,0,0,1-3.33-2.23A9,9,0,0,1,1025.8,1890.51Z"/><path class="cls-2" d="M1097.78,1919.64l15.13-14.47a53.78,53.78,0,0,0,4.49-4.6,34.64,34.64,0,0,0,3.75-5.14,27.45,27.45,0,0,0,2.61-5.91,23.42,23.42,0,0,0,1-6.87,20.92,20.92,0,0,0-7.9-16.89,24.47,24.47,0,0,0-8.13-4.25,31.91,31.91,0,0,0-9.28-1.36,27.18,27.18,0,0,0-9.62,1.66,24.91,24.91,0,0,0-7.77,4.55,24.52,24.52,0,0,0-5.48,6.88,23.88,23.88,0,0,0-2.71,8.74l-.27,2.4,16.21,2.5.35-2.55a12.8,12.8,0,0,1,3-7,7.7,7.7,0,0,1,6.06-2.5,8.64,8.64,0,0,1,6.09,2.2,7.4,7.4,0,0,1,2.31,5.81,11.18,11.18,0,0,1-1.53,5.9,28.42,28.42,0,0,1-4.67,5.73l-27.12,26.63v14.19h50.52v-15.65Z"/><polygon class="cls-2" points="1136.93 1861.82 1136.93 1877.27 1169.67 1877.27 1140.9 1935.29 1160.15 1935.29 1188.41 1875.25 1188.41 1861.82 1136.93 1861.82"/><path class="cls-2" d="M550.28,700.75a18.07,18.07,0,0,0,25.66,16.44l31.52-14.5V685.45L569.39,703a2.43,2.43,0,0,1-3.43-2.2V690l28.95-13.29a21.57,21.57,0,0,0,12.54-19.56v-13A21.52,21.52,0,0,0,577,624.7l-11.15,5.12A26.73,26.73,0,0,0,550.29,654v26h0v20.76ZM566,654a11,11,0,0,1,6.38-10l11.15-5.13a5.77,5.77,0,0,1,2.43-.55,6,6,0,0,1,3.16.94,5.78,5.78,0,0,1,2.68,4.91v13a5.86,5.86,0,0,1-3.41,5.31L566,672.78Z"/><path class="cls-2" d="M570,573.43a21.44,21.44,0,0,0,9-2l24-11.07a21.58,21.58,0,0,0,12.53-19.57l0-53.28L561,512.61a21.57,21.57,0,0,0-12.52,19.55V551.9A21.55,21.55,0,0,0,570,573.43Zm-5.83-41.27a5.85,5.85,0,0,1,3.39-5.3L599.8,512l0,28.83a5.86,5.86,0,0,1-3.4,5.31l-24,11.07a5.8,5.8,0,0,1-8.27-5.3Z"/><path class="cls-2" d="M631.39,680.81A21.4,21.4,0,0,0,652,682.2l14.11-6.53a21.58,21.58,0,0,0,12.48-19.52l0-65.85V542.74L663,550v35.29l-26,11.88a26.72,26.72,0,0,0-15.55,24.24v41.3A21.43,21.43,0,0,0,631.39,680.81Zm12.14-69.41L663,602.51l0,53.63a5.85,5.85,0,0,1-3.39,5.3L645.43,668a5.84,5.84,0,0,1-8.29-5.29V621.37A11,11,0,0,1,643.53,611.4Z"/><path class="cls-2" d="M710,563.6a26.71,26.71,0,0,0-15.55,24.23v41.3A21.49,21.49,0,0,0,725,648.65l14.11-6.53a21.58,21.58,0,0,0,12.48-19.52l0-65.85V509.19l-15.68,7.23v35.3Zm25.93,59a5.85,5.85,0,0,1-3.39,5.29l-14.11,6.53a5.83,5.83,0,0,1-8.29-5.29v-41.3a11,11,0,0,1,6.4-10L735.93,569Z"/><path class="cls-2" d="M674.85,477.53a5.84,5.84,0,0,1,8.27,5.3v23.51l-51.25,23.55,0,17.13L825,458.31V424.78a21.52,21.52,0,0,0-30.51-19.55L741.55,429.4v17.32L801,419.48a5.83,5.83,0,0,1,8.28,5.3v23.48L698.8,499.13v-16.3a21.52,21.52,0,0,0-30.51-19.55l-36.46,16.78,0,17.12Z"/><path class="cls-2" d="M1014,526.81a18.09,18.09,0,0,0-25.66-16.43l-86.59,39.74a2.42,2.42,0,0,1-3.43-2.19V511a21.52,21.52,0,0,0-30.51-19.55l-11.13,5.21V376.67L841,384V595.38l15.68-7.15V513.88l17.68-8.23a5.84,5.84,0,0,1,8.28,5.31v37a18.09,18.09,0,0,0,25.66,16.44l86.6-39.75a2.41,2.41,0,0,1,3.42,2.2v10.39a7.58,7.58,0,0,1-4.4,6.86L548.43,748.63V766L1000.5,558.32A23.3,23.3,0,0,0,1014,537.21Z"/><path class="cls-2" d="M767.67,582.4v13A21.49,21.49,0,0,0,798.18,615l16.25-7.44A18.12,18.12,0,0,0,825,591.07V544.21a21.52,21.52,0,0,0-30.51-19.55l-26.66,12V554L801,538.91a5.83,5.83,0,0,1,8.28,5.3v5.28l-29.09,13.34A21.57,21.57,0,0,0,767.67,582.4Zm19.07-5.32,22.54-10.33v24.32a2.44,2.44,0,0,1-1.4,2.2l-16.25,7.43a5.84,5.84,0,0,1-8.27-5.3v-13A5.85,5.85,0,0,1,786.74,577.08Z"/><path class="cls-2" d="M473.82,567.42V619.5l15.68-7.4V572.28c0-7.8,1.73-10.49,4.4-11.72L517,549.92V758.23a7.56,7.56,0,0,1-4.39,6.85l-31.54,14.51a7.56,7.56,0,0,1-10.7-6.86V698.85a12.72,12.72,0,0,1,7.4-11.53l23.86-11.4V658.61l-30.39,14.45a28.43,28.43,0,0,0-16.55,25.79v73.88a23.2,23.2,0,0,0,32.93,21.1l31.54-14.5a23.29,23.29,0,0,0,13.53-21.1V525.45l-45.38,20.86A23.3,23.3,0,0,0,473.82,567.42Z"/><polygon class="cls-2" points="809.5 499.63 809.5 482.37 793.7 489.64 793.7 506.9 809.5 499.63"/><polygon class="cls-2" points="600.48 477.56 600.48 460.31 584.69 467.58 584.69 484.84 600.48 477.56"/><polygon class="cls-2" points="579.17 487.44 579.17 470.18 563.37 477.45 563.37 494.71 579.17 487.44"/><polygon class="cls-2" points="273.02 1667.96 233.34 1667.96 217.99 1698.82 242 1698.82 242 1768.72 221.68 1768.72 221.68 1799.74 293.33 1799.74 293.33 1768.72 273.02 1768.72 273.02 1667.96"/><polygon class="cls-2" points="293.2 1698.99 328.92 1698.99 328.92 1799.55 359.95 1799.55 359.95 1698.99 395.5 1698.99 395.5 1667.8 293.2 1667.8 293.2 1698.99"/><polygon class="cls-2" points="411.03 1699.24 446.75 1699.24 446.75 1799.81 477.77 1799.81 477.77 1699.24 513.32 1699.24 513.32 1668.05 411.03 1668.05 411.03 1699.24"/><polygon class="cls-2" points="531.64 1698.82 551.96 1698.82 551.96 1768.72 531.64 1768.72 531.64 1799.74 603.29 1799.74 603.29 1768.72 582.99 1768.72 582.99 1698.82 603.29 1698.82 603.29 1667.96 531.64 1667.96 531.64 1698.82"/><polygon class="cls-2" points="701.58 1717.67 659.32 1717.67 659.32 1667.96 628.31 1667.96 628.31 1799.74 659.32 1799.74 659.32 1748.52 701.58 1748.52 701.58 1799.74 732.78 1799.74 732.78 1667.96 701.58 1667.96 701.58 1717.67"/><path class="cls-2" d="M989.11,1688.69c-11.93-13.56-28.7-20.73-48.48-20.73H891.34v131.78h49.29c20,0,36.8-7.16,48.7-20.73,10.48-11.94,16.26-28,16.26-45.08a71.45,71.45,0,0,0-4.15-24.09A64.78,64.78,0,0,0,989.11,1688.69Zm-14.37,45.24a37.07,37.07,0,0,1-8.28,23.73c-6.14,7.23-15.07,11.06-25.83,11.06H922.36V1699h18.27c10.76,0,19.69,3.84,25.83,11.11A37.31,37.31,0,0,1,974.74,1733.93Z"/><polygon class="cls-2" points="1254.46 1667.84 1223.41 1667.84 1223.41 1799.75 1309.95 1799.75 1309.95 1768.69 1254.46 1768.69 1254.46 1667.84"/><path class="cls-2" d="M1394.29,1757.32c0,8.15-10,12.55-19.3,12.55a27.46,27.46,0,0,1-13.52-3.34c-2.71-1.6-6-4.47-6-9v-89.65H1324.3v89.48c0,28.33,26.12,43.61,50.69,43.61,24.83,0,50.52-16.25,50.52-43.44v-89.65h-31.22Z"/><path class="cls-2" d="M1172.63,1747.86a34.32,34.32,0,0,1-12.37,16.08,34,34,0,0,1-19.41,5.79,33,33,0,0,1-23.94-10.47,36.58,36.58,0,0,1,0-50.64,32.94,32.94,0,0,1,23.94-10.47c15,0,26.47,7.95,31.41,21.83l.34.94h31.2l-1.25-4.88c-7.49-29.62-31.71-48.75-61.7-48.75A64.35,64.35,0,0,0,1095,1687h0a68.11,68.11,0,0,0,0,93.86,62.83,62.83,0,0,0,45.86,19.7c30.31,0,54.86-19.74,62.55-50.27l.85-3.37H1173Z"/><line class="cls-2" x1="659.32" y1="1748.52" x2="701.58" y2="1748.52"/><line class="cls-2" x1="701.58" y1="1717.67" x2="659.32" y2="1717.67"/><path class="cls-2" d="M1537.38,1726.5a32.31,32.31,0,0,0,6.43-15.62,38.45,38.45,0,0,0-2.72-19.24c-6.06-15.12-18.89-23.8-35.19-23.8h-56.09v131.91h60.3c12.57,0,23.22-4.63,30.8-13.4a45.09,45.09,0,0,0,10.46-29.2C1551.37,1744.69,1546.29,1733.61,1537.38,1726.5Zm-56.68-9.24v-22.08H1506a9,9,0,0,1,7.44,3.52,13.09,13.09,0,0,1,2.45,7.81,13.42,13.42,0,0,1-2.45,7.94A8.84,8.84,0,0,1,1506,1718H1480.7Zm37.08,48.25a9.11,9.11,0,0,1-7.67,3.68H1480.7v-23.57h29.41a9.31,9.31,0,0,1,7.68,3.63,13.5,13.5,0,0,1,2.52,8.07A13.79,13.79,0,0,1,1517.78,1765.51Z"/><path class="cls-2" d="M844.15,1799.74h33.26l-54.12-133.47h-22l-53.93,133.47h33.49L790,1777h45Zm-43.65-49.12,11.93-32.76,12,32.76Z"/><path class="cls-1" d="M742.83,904.1,713,917.64V898.38a41.64,41.64,0,0,0-2.55-15.27,17.22,17.22,0,0,0-8.44-9.46q-5.93-3-15.45-1.9t-23.32,7.38c-3.5,1.6-13.51,6.51-15.92,7.7s-4.54,2.38-6.4,3.45l-9.54,22.53c8.81-5,25-12.92,30.06-15.25a63.35,63.35,0,0,1,13.88-4.86c3.77-.7,6.86-.46,9.27.67a10.1,10.1,0,0,1,5.17,6.33,39.36,39.36,0,0,1,1.57,12.36V927.5l-80.4,36.78V863.42l-25.11,11.5-9.53,21.35L589.87,890V997l173.82-79.28V834l-20.86,9.52Z"/><polygon class="cls-1" points="877.57 741.72 868.04 763.05 881.66 756.8 881.65 863.94 902.67 854.36 902.69 730.27 877.57 741.72"/><polygon class="cls-1" points="809.3 772.88 788.51 782.35 788.51 858.49 809.3 849.02 809.3 772.88"/><polygon class="cls-1" points="742.83 823.48 763.69 813.95 763.69 793.68 742.83 803.2 742.83 823.48"/><polygon class="cls-1" points="708.34 839.23 729.2 829.7 729.2 809.42 708.34 818.95 708.34 839.23"/><path class="cls-1" d="M544.18,994a84.65,84.65,0,0,0-1.75-15.75c-1.09-4.62-3.24-7.82-6.57-10a17.69,17.69,0,0,0-8.62-2.59c-5.54-.2-11.59.47-21.9,4.29-.83.3-1.57.65-2.27.94V949.73c.7-.28,1.45-.57,2.27-.87,11.41-4.3,21.1-5.15,28.59-4s13.52,3.68,18.1,7.77A34.38,34.38,0,0,1,562,968.3a67.06,67.06,0,0,1,3,20.23v19.72l-68.82,31.38v-23.07l48-21.9S544.18,994.28,544.18,994Z"/><path class="cls-1" d="M1088.24,693.66c-3-2.1-6.91-2.95-11.91-2.57s-11.24,2.29-18.78,5.75a160.37,160.37,0,0,0-14.3,7.37c-4.61,2.67-9.14,5.54-13.63,8.62v60.52l-15.93,7.26q-12.81,5.83-21.44,7.37c-5.74,1-10.35.76-13.8-.76a13.3,13.3,0,0,1-7.29-7.92A39.94,39.94,0,0,1,969,765.23a98.73,98.73,0,0,1,1-13.94,90.68,90.68,0,0,1,3.07-13.36l-20.45,9.35a135.29,135.29,0,0,0-3.71,17.58,98.26,98.26,0,0,0-.91,12.53c0,6.77,1,14.31,2.88,19.62s4.93,11,11.43,14.8c5.13,2.55,9.75,4,17.81,3.12s18.25-4.2,30.63-9.86L1050.47,787V719c.88-.52,1.87-1.08,3-1.69s2.24-1.2,3.45-1.74q10.35-4.72,14.44-1.7t4.12,14.88v46.85l20.86-9.51V719a60.49,60.49,0,0,0-1.8-15.7C1093.28,699,1091.2,695.74,1088.24,693.66Z"/><polygon class="cls-1" points="1019.07 839.14 1039.94 829.62 1039.94 809.34 1019.07 818.87 1019.07 839.14"/><polygon class="cls-1" points="984.58 855.02 1005.45 845.5 1005.45 825.22 984.58 834.75 984.58 855.02"/><polygon class="cls-1" points="1269.49 663.98 1236 679.25 1236 578.27 1210.91 589.72 1201.38 611.08 1214.97 604.87 1214.97 711.96 1290.35 677.56 1290.35 593.84 1269.49 603.37 1269.49 663.98"/><polygon class="cls-1" points="1269.49 583.27 1290.35 573.74 1290.35 553.46 1269.49 562.99 1269.49 583.27"/><path class="cls-1" d="M1169.28,709a84.29,84.29,0,0,0-1.76-15.79c-1.09-4.63-3.25-7.84-6.58-10a17.75,17.75,0,0,0-8.65-2.61c-5.55-.19-11.63.48-22,4.3-.84.31-1.59.65-2.28.95V664.61c.69-.28,1.45-.58,2.28-.88,11.44-4.31,21.15-5.16,28.67-4.05s13.55,3.69,18.16,7.8a34.49,34.49,0,0,1,9.94,15.75,67.15,67.15,0,0,1,3,20.29V723.3l-69,31.48V731.64l48.15-22S1169.28,709.29,1169.28,709Z"/><path class="cls-1" d="M833.13,762v83.43A27,27,0,0,1,817.38,870l-28.87,13.18v23.32l37.69-17.2a48.3,48.3,0,0,0,28.15-43.82v-93.1Z"/></g></g></svg>