<?xml version="1.0" encoding="UTF-8"?>
<svg id="Layer_1" xmlns="http://www.w3.org/2000/svg" version="1.1" viewBox="0 0 400 400">
  <!-- Generator: Adobe Illustrator 29.6.0, SVG Export Plug-In . SVG Version: 2.1.1 Build 207)  -->
  <defs>
    <style>
      .st0 {
        fill: #19214c;
      }

      .st1 {
        fill: #1b244b;
      }

      .st2 {
        fill: #fbe400;
      }

      .st3 {
        fill: #1a224c;
      }

      .st4 {
        fill: #19204c;
      }
    </style>
  </defs>
  <ellipse class="st4" cx="200" cy="200" rx="195.8" ry="198.1"/>
  <path class="st2" d="M191.2,11.8c117.9-5.3,211,96,195.3,213.1-10.1,75.7-67.5,138.9-141.6,156.6C115.9,412.3-2.6,304.6,14.8,173.6,26.6,85.1,101.8,15.8,191.2,11.8Z"/>
  <path class="st4" d="M190.8,16.2c115.9-5.3,206.9,93.4,191.3,208.7-10.9,80.8-76.7,145.6-157.4,156C105.1,396.3,4.2,295.6,18.8,176.1,29.5,89.2,103.1,20.2,190.8,16.2Z"/>
  <path class="st2" d="M306.7,86c23.8,22,40.4,52.1,46.4,84,8.2,43.2-2.3,88.5-29.1,123.3l-3.4-2.7c14.4-18.7,24.4-40.9,28.5-64.3,9-50.6-7.8-102-45-137-.5-.9,2-2.5,2.6-3.3Z"/>
  <path class="st2" d="M94.7,86c.5.8,3,2.3,2.6,3.3-23.2,22-39.4,51.3-45,82.9-7.4,41.7,2.6,85,28.5,118.4l-3.4,2.7c-14.9-19.6-25.2-42.6-29.4-67-8.9-51.7,8.4-104.9,46.8-140.3Z"/>
  <path class="st2" d="M138.3,42.9l12.7,26.4c-1.7.2-3.9,2.4-5.5,2.1l-18.9-9.1-1.3-.3,8,15.8-6,3-13.2-26.2c0-.3,4.8-2.8,5.5-2.7l19.8,9.4-7.2-15.4c0-.9,5.4-3.5,6.1-3Z"/>
  <path class="st2" d="M274.2,66.8l3.3,15.9-7-3.6c-.9-2.1-2.4-14.9-3.6-15.6l-5.6,10.5c-.7.5-4.9-2.5-6.1-2.5l13.6-26.4c5.7,3.6,16.5,5.6,15.2,14.5-.7,5-4.7,7.8-9.6,7.2Z"/>
  <path class="st2" d="M171.6,33.9l17.5,26.4c-1.7,0-5.1,1.5-6.6,1.1s-3-4.7-3.6-5.4l-11.8,2.2-1.6,6.8-6.8,1.1,6.7-31.2c.2-.3,5.8-1.3,6.3-1Z"/>
  <path class="st2" d="M249.5,39.4c4,4.1,0,3.9-3,6.4h-.5c-.2-2.9-7.5-5.4-8-2.3s4.7,4.8,6.5,6.5c3.4,3,4.7,6.1,3,10.6-3.5,9.4-19.1,5.4-21.4-3.1,1.1,0,5.4-2.6,5.9-2.5s2.2,3.9,4.9,4.5,5.8-.8,3.5-3.8c-2.8-3.7-10.1-4.9-9.5-11.7.8-9.7,12.9-10.4,18.6-4.5Z"/>
  <path class="st2" d="M212.7,39.6c-.3-.2-.6-1.3-2-1.9-4.5-2.1-8.8,1.1-4.2,3.8s11.5,3.4,11.2,10.9c-.5,11-17.3,11.3-21.8,2.9,1-.6,4.5-4.1,5.4-3.7s1.4,1.5,2.3,2.1c2.9,1.8,8.7,1.2,6.7-2.4-1.9-3.4-11.4-3-12.5-9.9-2-11.6,13.6-14.1,19.5-6.4,0,.5-4.2,4.8-4.7,4.5Z"/>
  <path class="st2" d="M175.7,360.3l1.8-19.9c3.1,0,6.6.1,9.5,1.2,9.2,3.4,8.5,16.6-1.1,19s-6.7-.4-10.2-.3Z"/>
  <path class="st2" d="M104.6,319.4v11.2c-.7-.1-4.3-3.2-4.3-3.4v-10.7c-.6-.1-.9.3-1.3.7-1.5,1.5-2.8,3.8-4.3,5.4-.5-.7-3.5-2.4-3.3-3.3l12.4-14.8h.8c1.8,2.3,6.7,4.8,7.4,7.6,1.3,4.8-2.6,9.5-7.4,7.3Z"/>
  <path class="st2" d="M220.2,361c-1-.2-3.7.3-4.4-.2s-.3-6.2-.7-7.5l-7.6.4.4,8-4.7.4-1.1-19.4c-.3-1.3,4.2-1.1,4.3-.9.7.7,0,6.3.7,7.4s6.4-.6,7.7-.1l-.4-8c.9.3,4.3-.4,4.5,0l1.3,20Z"/>
  <path class="st2" d="M165.9,358.5c-.8-.3-4.2-1-4.5-1.4-.9-1.1,0-4-1.2-4.6s-6.8-1.9-7.2-1.9c-1,0-2.2,3-3,3.2s-3.3-1.1-4.5-1.1l13.6-17c.9.4,3.8.7,4.1,1.6l2.6,21.1Z"/>
  <path class="st2" d="M297.4,304.9c.2,0,1.9,2.6,2.2,3-1.9,2.1-6.5,3.4-3.6,6.5l2.9-2.5c3.2-1.4,6.1-.3,8.2,2.4,4.5,5.9-1.7,12.6-8.2,11.1s-2.6-1.1-2.5-1.8,2.6-2.4,2.9-2.6c.9-.4,2.2.9,3.8-.5,2.3-2,.1-5.8-3-4.4s-1.3,3.7-1.6,4-3.2,1.1-3.3,1.1c-.7-.2-4.9-8.7-5.6-10v-.5c2.4-1.2,4.8-4.5,6.8-5.6s.7-.3,1-.1Z"/>
  <path class="st2" d="M282.9,321.2c-1,.6-4.8,2.5-5.3,3.3s.7,1.9.6,2.9c3.3-3.8,8.2-3.6,10.9.8,4.7,7.6-6.7,14.7-12,8,0-.2,3.3-2.2,3.5-2.3,1.1-.2,1.7,1.3,3.7,0,2.8-1.7,1.2-5.6-2.3-4.8s-1.8,3.3-2.3,3.6-2.9.8-3.4.5-4.1-10.3-4-10.8c1.9-.5,6.5-4.7,7.9-4.9s2.1,2.8,2.6,3.6Z"/>
  <path class="st2" d="M260.8,350.5l1.4-8.3c-7.4,2.2-11.6-7.9-5.4-12.1,3.9-2.7,9.7-1.4,11,3.5s-1.8,10.3-2.1,14.4c-.6,1.1-3.8,1.7-4.9,2.5Z"/>
  <path class="st2" d="M137.3,334.9c.3.3,6.5-4.6,7.1-4.6s4.5,1.9,4.5,2.2l-10.9,7.2-4.1,7.8-3.8-2,3.3-7.6-1.5-13.6c.8.7,4.1,1.7,4.5,2.2.8,1.1.7,6.6.9,8.3Z"/>
  <path class="st2" d="M244.9,334.9l5.5,18.7c.1.6-3,1.6-3.5,1.6s-.7-.2-.8-.6l-4.1-14.2-4.3,1.1c.7-1,1.1-4.3,1.8-4.9s5.2-1.8,5.4-1.6Z"/>
  <path class="st2" d="M126.4,320.8l-10.5,17c-.2.1-3.7-2-3.8-2.2-.7-1,9.4-14.6,10-17,.8-.6,3.3,2.2,4.3,2.2Z"/>
  <path class="st0" d="M271.4,53.8c2.4.7,6.4,2,5.8,5.2-.6,3.5-6.1.7-7.8-.5l2-4.7Z"/>
  <path class="st0" d="M174.9,50.9l-6.9,1.1,1.8-8.7c.9.5,5.4,7.3,5.1,7.6Z"/>
  <path class="st4" d="M180.4,356.3l1.5-11.6c3,.5,5.3.6,6.6,3.7,2.2,5.3-2.8,9.7-8,7.9Z"/>
  <path class="st1" d="M104.5,310.7c.8-.3,3.9,2.5,3.2,4-1.2,2.6-4-.2-5.3-1.3,0-.2,1.9-2.6,2-2.7Z"/>
  <path class="st1" d="M160.1,348.4l-4.3-1.6,3.4-4.2c.5.6,1.1,5.5.9,5.8Z"/>
  <path class="st3" d="M262.9,333.6c2.7,2.5-1.3,6.7-3.8,4.2-2.8-2.8,1.5-6.3,3.8-4.2Z"/>
  <path class="st2" d="M191.9,76.7c-89.6,5.4-142.5,105.5-97.8,183.5,49.2,85.9,175.9,80.9,217.8-8.8,40-85.6-26.6-180.3-120-174.7Z"/>
  <path class="st0" d="M318.9,188.6l-.6-.5c-4.5-.5-9-1.5-13.5-2.2-3-.5-6.3-.4-9.3-1.4l-9.8-11.6-15.2,4c-1.9-.3-3.6-1.8-5.2-2.6l-1.2-1.1c-7.4-3.7-14.7-7.4-22.1-11-3.4-5.3-6.9-10.4-10.5-15.5-4.3-.2-8.7.2-12.9.8l-.3,1,5.2,17.2,13.6,19.7c2.6.9,5.3.1,7.9-2.2.4,3.3.9,6.6,1.5,10.1.6,1.4,5.7,6.6,7,6.2,2.2-.6,15-4.6,15.7-5.3.2-.2.3-.5.5-.7,1.1.2,1.4.3,2.5-.3l12.6-11.5c2,5.2,3.8,10.5,5.3,15.8.6.8,1.6,1.4,2.1.3l.8,1.1,9.5,2.7,10.5,16.2-11.8,15.9c-.4,2.1-.7,4.3-.7,6.5l-24.5,14.7c-1.5,1-2.8,2.1-4.1,3.4l-.8-.4c-6.4,3.3-12.1,6.5-15.2,13.4-8.7,4-17.7,7.2-26.9,10l-40.4,11.4c-2.3-8.4-4.6-16.9-6.9-25.5l-.8-1c.8-.3.4-2.1,0-2.6-6.4-10.1-13.2-20-20.3-29.7l-6.9-6.6c-1.8-1.6-2.8-3.5-3.3-5.8-1.5-13.1-8.6-22.7-17.2-32.4l-1.3-.4c-.7-.9-1.9-1.9-2.7-2.9-4.3-5.7-7.8-12.2-12.4-17.7l-7.3,7.6v.8c-.1,0,11.8,30.5,11.8,30.5,2.9,4.1,7.2,6.8,10.6,10.4l6.3,24.5c13,22.2,28.8,42.7,46.5,61.3,1.4,1.5,13.9,11.1,15.1,11.2,10.5-1.1,21.3-.7,31.9-1.4,4.8-.3,9.2-2.1,13.6-3.8,28.1-11.3,51.4-34,63.7-61.6,8.2-18.4,11.4-38.9,9.8-59Z"/>
  <path class="st0" d="M160.3,170.8c.4.4,5.9,2.8,6.3,2.7,1.8-.1,5.8-4.1,7.9-4.4.5,0,3,5.4,3.5,6.2,11.4,18.4,22.6,37.1,34.1,55.4,2.3,3.6,4.5,7.2,6.7,10.9l1,.3c1.6-1.3,14.4-8.3,14.4-9.1,0-.3-2.8-4.8-3.1-4.9-1.3-.4-7.9,5.2-9.4,5.4-.7,0-2.8-3.8-3.4-4.7-2.5-4-4.9-8-7.2-12.1l9.4-5.7v-.5c0,0-15.2-25.2-15.2-25.2h-5.8c-.2-.9.2-.6.5-.8.8-.5,3.1-1.4,3.2-2.3,0-1.1-2.8-3.8-2.9-5.3l-10.1,5.8c-2.3-4-4.6-8-6.9-11.9-.4-.7-3.3-4.5-3.2-4.9l9.4-5.8-6.7-3.4-22.3,13.6c-.4.4-.4.4,0,.7ZM194,188.1c.1-.2,4.1-2.4,4.3-2.2l13.4,22.3c0,.6-3.8,3.3-4.5,2.3l-13.2-21.6c0-.3-.2-.5,0-.8Z"/>
  <path class="st0" d="M242.2,225l-5.8-1.5-1.3,5.8c.9.3,5.1,1.7,5.7,1.3l1.4-5.6Z"/>
</svg>