<?xml version="1.0" encoding="utf-8" ?><svg xmlns="http://www.w3.org/2000/svg" xmlns:xlink="http://www.w3.org/1999/xlink" width="1200" height="1579" viewBox="0 0 1200 1579"><path fill="#2F3038" d="M195.633 160.517C241.583 187.279 290.393 206.184 341.743 219.799C540.031 272.373 823.918 265.322 1004.41 160.469C1020.69 189.517 1038.29 217.98 1055.22 246.659L1148.86 405.066C1116 438.612 1091.02 483.599 1077.7 528.475C1075.23 536.765 1072.62 545.631 1071.57 554.225C1086.91 546.87 1102.45 539.866 1117.88 532.703C1116.89 547.842 1118.45 564.311 1119.74 579.385C1122.44 611.205 1127.42 642.788 1134.66 673.892C1139.92 696.533 1146.92 718.571 1153.28 740.902C1161.16 768.809 1168.59 796.839 1175.58 824.982C1184.25 859.009 1191.37 893.411 1196.92 928.082C1198.42 937.736 1198.53 947.555 1200 957.204L1200 995.885C1198.81 1000.76 1198.96 1006.59 1198.59 1011.62C1197.92 1021 1197.22 1030.35 1196.01 1039.68C1190.87 1081.68 1180.39 1122.86 1164.82 1162.21C1124.69 1261.3 1044.84 1343.3 950.588 1392.57C936.054 1400.18 921.15 1407.07 905.931 1413.21C896.327 1417.04 886.421 1420.23 876.941 1424.35C857.014 1433.01 837.745 1443.22 817.828 1451.93C776.598 1469.96 735.28 1486.37 695.388 1507.37C661.421 1525.25 623.321 1546.99 600.035 1578.42C556.939 1521.14 450.138 1481.39 384.377 1452.83C363.863 1443.92 344.094 1433.16 323.512 1424.47C302.703 1415.69 281.703 1408.56 261.316 1398.56C235.366 1385.82 210.6 1370.81 187.31 1353.69C94.7588 1285.63 33.7057 1192.76 10.6811 1080.1C7.15988 1062.94 4.51463 1045.62 2.75561 1028.2C1.74581 1017.73 1.76584 1006.91 0.122296 996.554L0 995.825L0 958.413C0.995051 954.329 0.902472 949.429 1.29192 945.212C2.00414 937.143 2.97043 929.098 4.18933 921.09C7.95159 895.968 13.5176 870.995 19.3038 846.271C27.5558 811.438 36.5582 776.787 46.3049 742.343C53.6944 716.164 61.8401 690.465 67.6003 663.82C76.9606 620.522 81.4669 577.009 82.4169 532.759C97.7782 540.018 113.195 547.159 128.667 554.18C118.34 499.217 89.6224 445.65 51.3913 405.075C65.3927 378.922 81.7536 353.53 96.852 327.968L195.633 160.517Z"/><path fill="#EF2617" d="M522.134 541.003C555.567 543.093 588.297 545.01 621.844 544.282C640.586 543.876 659.161 542.12 677.854 540.99L677.9 1484.33C652.937 1499.65 614.342 1515.91 600.185 1542.73C585.112 1516.73 547.858 1498.61 522.187 1484.4L522.134 541.003Z"/><path fill="#FEFEFE" d="M538.617 962.985L568.616 962.967L568.621 973.009L548.274 973.017L548.268 985.607L565.884 985.577L564.926 995.511C559.891 995.652 553.545 993.912 549.171 996.658C547.631 998.846 548.157 1001.47 548.273 1004.03C548.235 1005.37 548.427 1006.61 548.615 1007.94C552.526 1011.05 563.867 1009.31 569.053 1009.24L569.08 1019.35L538.663 1019.37L538.617 962.985Z"/><path fill="#FEFEFE" d="M591.378 961.635C598.116 962.189 602.426 964.259 608.063 967.87L603.601 976.503C601.475 975.131 599.299 973.634 596.897 972.793C594.428 971.929 590.543 971.305 588.166 972.766C586.301 973.913 585.88 974.914 585.298 976.929C586.961 981.679 593.246 984.037 597.311 986.453C602.681 989.644 607.321 993.196 608.757 999.673C609.773 1004.26 608.651 1010.29 605.864 1014.1C602.313 1018.95 596.757 1019.97 591.229 1020.89C583.978 1020.22 579.136 1018.18 573.204 1014.04L577.707 1005.35C582.443 1008.25 587.446 1011.33 593.289 1010.05C595.463 1009.58 597.152 1008.45 598.296 1006.54C602.988 998.712 578.106 992.808 575.216 980.874C574.15 976.469 575.603 971.986 578.158 968.354C581.464 963.653 586.059 962.561 591.378 961.635Z"/><path fill="#FEFEFE" d="M611.417 962.971L649.477 962.959L649.475 973.564L635.321 973.571L635.332 1004.99L635.321 1019.28L625.608 1019.32L625.609 973.559L611.43 973.603L611.417 962.971Z"/><path fill="#FEFEFE" d="M650.051 1006.53C651.959 1006.72 653.598 1006.86 655.143 1008.13C656.728 1009.43 657.508 1010.95 657.54 1013C657.592 1016.38 655.912 1018.39 653.677 1020.71C651.669 1020.5 650.067 1020.23 648.51 1018.85C647.163 1017.65 646.505 1016.14 646.435 1014.34C646.302 1010.96 647.903 1008.95 650.051 1006.53Z"/><path fill="#EF2617" d="M919.483 479.758L919.519 1378.03C886.205 1391.03 853.063 1404.47 820.103 1418.35C801.398 1426.27 782.918 1435.05 764.092 1442.62L764.061 527.7C817.133 518.224 869.536 499.629 919.483 479.758Z"/><path fill="#FEFEFE" d="M802.271 963.643L835.114 963.626L835.136 975.171L811.867 975.15L810.687 983.788C813.889 983.956 817.289 983.942 820.437 984.547C826.085 985.632 831.802 988.854 834.983 993.734C837.513 997.614 838.552 1002.23 837.522 1006.78C836.074 1013.18 831.429 1017.58 826.175 1021.05C815.676 1025.66 805.787 1024.59 795.186 1020.98L797.824 1010.66C800.908 1011.58 804.022 1012.55 807.226 1012.94C811.615 1013.47 816.922 1013 820.394 1010C821.898 1008.69 823.099 1006.78 823.184 1004.75C823.282 1002.41 822.144 1000.27 820.488 998.682C814.786 993.215 805.588 994.389 798.355 994.662L802.271 963.643Z"/><path fill="#FEFEFE" d="M858.554 963.087C862.282 962.688 866.359 962.272 870.069 962.98C875.493 964.015 880.931 966.775 883.897 971.597C885.473 974.16 886.183 977.264 885.416 980.219C884.047 985.489 879.921 988.501 875.493 991.076C877.478 992.115 879.672 993.16 881.436 994.543C884.545 996.982 887.228 1000.96 887.64 1004.95C888.031 1008.73 886.547 1012.34 884.226 1015.27C879.912 1020.71 872.919 1023.43 866.158 1024.03C860.289 1024.54 850.324 1023.94 845.664 1019.96L845.719 1018.29L848.078 1009.77C850.784 1010.76 853.561 1011.86 856.382 1012.47C860.677 1013.38 865.881 1013.31 869.62 1010.73C871.305 1009.57 872.64 1007.86 872.861 1005.78C873.068 1003.82 872.298 1002.18 870.975 1000.78C866.719 996.273 860.856 996.669 855.196 996.676C855.121 993.601 855.133 990.717 855.543 987.658C858.004 985.883 863.162 986.462 866.236 985.636C868.5 985.027 869.625 983.861 870.834 981.931C871.035 980.471 871.33 979.589 870.779 978.187C869.993 976.189 868.588 974.861 866.551 974.146C861.15 972.252 854.883 974.927 849.975 977.072L846.977 966.891C850.818 965.261 854.497 964.063 858.554 963.087Z"/><path fill="#EF2617" d="M280.567 478.718C331.444 499.427 382.352 515.624 435.944 527.708L435.938 1442.44C429.553 1440.15 423.259 1436.93 417.034 1434.21C405.194 1429.04 393.324 1423.93 381.424 1418.89C347.99 1404.78 314.366 1391.12 280.561 1377.92L280.567 478.718Z"/><path fill="#FEFEFE" d="M377.193 963.187C383.592 962.314 389.795 962.432 395.443 965.958C400.489 969.108 403.613 974.29 405.007 979.964C407.372 989.595 405.678 1001.26 400.349 1009.65C395.862 1016.72 388.663 1021.49 380.495 1023.22C377.345 1023.89 369.42 1025.09 366.711 1023.35L366.27 1020.99C366.171 1018.77 365.966 1016.84 366.775 1014.74C369.996 1012 375.906 1012.81 379.919 1011.53C386.378 1009.45 389.48 1004.21 392.26 998.529C391.342 999.062 390.414 999.576 389.475 1000.07C384.461 1002.69 378.327 1003.47 372.924 1001.57C368.352 999.976 364.648 996.556 362.698 992.126C360.467 987.044 360.412 981.271 362.546 976.147C365.454 969.167 370.579 965.957 377.193 963.187Z"/><path fill="#EF2617" d="M380.123 972.906C381.54 972.889 383.065 972.838 384.471 973.061C386.853 973.438 389.04 975.742 390.257 977.687C391.993 980.463 392.303 983.629 391.482 986.77C390.661 989.912 388.827 991.069 386.163 992.7C385.897 992.704 385.631 992.712 385.365 992.714C381.991 992.737 379.464 992.407 377.088 989.808C375.417 987.982 374.622 985.533 374.736 983.075C374.945 978.578 376.834 975.789 380.123 972.906Z"/><path fill="#FEFEFE" d="M333.088 963.764C337.036 963.528 341.087 963.664 345.048 963.62L345.08 1023.18C340.95 1023.18 335.209 1024.57 331.778 1021.95L331.6 1019.45L331.629 975.962L320.079 981.494L317.946 970.969C322.963 968.505 328.011 966.103 333.088 963.764Z"/><path fill="#FEFEFE" d="M87.6361 545.139C102.044 549.591 116.579 556.78 130.564 562.57C140.424 630.594 126.085 668.881 108.813 732.736L80.634 836.964C74.1035 861.046 66.7223 885.201 61.4286 909.579C51.312 958.151 48.7247 1007.99 53.7572 1057.35C65.2113 1171.9 118.186 1283.61 208.001 1357.11C208.515 1357.59 208.548 1357.95 208.749 1358.61C201.917 1358.63 184.898 1346.08 179.05 1341.62C125.227 1300.56 80.575 1239.55 51.8663 1178.66C33.8479 1140.44 23.6983 1100.92 16.7674 1059.39C8.7084 1011.11 6.19415 960.814 12.8227 912.207C17 881.575 26.2327 851.793 34.2523 822.004C48.8789 767.672 64.7608 713.4 76.1277 658.273C83.3407 623.292 92.3334 580.51 87.6361 545.139Z"/><path fill="#FEFEFE" d="M1110.12 545.796L1111.54 545.812C1111.65 546.089 1111.92 546.67 1111.99 547.008C1112.73 550.601 1111.28 556.788 1111.24 560.804C1111.22 568.475 1111.55 576.142 1112.25 583.781C1114.9 614.425 1120.83 645.078 1127.54 675.082C1138.77 725.347 1153.16 775.009 1166.54 824.741C1174.06 852.692 1182.62 880.611 1186.77 909.307C1194.48 962.591 1191.33 1018.75 1181.1 1071.48C1172.27 1117.06 1161.39 1154.82 1139.41 1196.26C1126.07 1221.44 1110.7 1245.5 1093.46 1268.2C1073.35 1294.59 1023.17 1349.23 990.541 1359.22C993.941 1354.1 1015.35 1337.05 1021.66 1330.72C1048.53 1303.6 1071.45 1272.82 1089.72 1239.3C1142.3 1143.47 1160.64 1032.59 1141.73 924.948C1137.01 898.246 1129.04 872.122 1121.98 845.962L1090.17 728.285C1072.8 664.161 1060.17 630.78 1069.57 562.505L1110.12 545.796Z"/><path fill="#AD9A6B" d="M181.231 418.322C230.309 445.048 282.044 466.578 335.594 482.563C499.855 534.211 675.615 536.865 841.362 490.2C902.679 472.764 960.999 447.924 1017.45 418.472L1017.45 429.478C986.144 449.062 953.401 465.273 919.483 479.758C869.536 499.629 817.133 518.224 764.061 527.7C735.711 534.363 706.716 537.548 677.854 540.99C659.161 542.12 640.586 543.876 621.844 544.282C588.297 545.01 555.567 543.093 522.134 541.003C493.183 538.146 464.41 533.708 435.944 527.708C382.352 515.624 331.444 499.427 280.567 478.718C246.693 464.242 212.977 448.122 181.271 429.317L181.231 418.322Z"/><path fill="#FEFEFE" d="M540.325 357.252C559.411 358.006 585.026 354.572 600.127 368.908C608.017 376.399 610.406 387.394 610.72 397.891C611.158 412.545 607.996 423.909 597.899 434.683C581.982 449.256 558.264 445.815 538.437 445.369L540.325 357.252Z"/><path fill="#2F3038" d="M557.444 374.178C566.508 374.51 578.408 373.663 585.613 380.291C590.406 384.699 592.089 391.631 592.431 397.917C592.95 407.444 591.562 416.81 585.011 424.08C576.614 429.92 565.91 429.244 556.159 429.159C556.443 410.829 556.871 392.501 557.444 374.178Z"/><path fill="#FEFEFE" d="M297.766 301.748C310.731 306.777 326.493 310.969 337.728 319.243C343.848 323.75 348.744 329.909 349.709 337.645C350.609 344.862 347.838 353.322 343.303 358.951C337.703 365.9 330.222 367.651 321.755 368.667L331.737 409.53L316.705 403.689C313.845 402.579 311.77 402.074 310.49 399.167L301.87 363.535L295.036 360.9L283.469 390.773L265.967 383.95L297.766 301.748Z"/><path fill="#2F3038" d="M309.782 323.194C310.96 323.6 312.135 324.015 313.306 324.44C319.749 326.786 326.785 329.723 329.672 336.52C330.681 338.896 330.952 341.415 329.931 343.836C328.283 347.745 324.729 350.669 320.955 352.352C313.235 352.407 307.392 350.064 300.364 347.212C303.424 339.175 306.563 331.169 309.782 323.194Z"/><path fill="#FEFEFE" d="M483.958 353.324L505.795 356.003C512.225 386.342 517.964 416.854 524.162 447.246C517.713 446.366 511.259 445.522 504.8 444.713C503.671 437.407 502.392 430.124 500.964 422.87L490.336 421.758C484.028 420.95 477.729 420.078 471.439 419.14L462.382 439.483C456.13 438.558 449.868 437.698 443.598 436.906C456.999 409.033 470.133 380.987 483.958 353.324Z"/><path fill="#2F3038" d="M491.721 373.768C494.115 376.495 497.395 401.55 498.414 407.028L488.234 405.769L478.028 404.513L491.721 373.768Z"/><path fill="#FEFEFE" d="M678.48 355.712L695.623 355.426L697.584 443.402L680.259 443.889L679.45 407.221C666.905 407.609 654.357 407.9 641.807 408.095C642.478 420.238 642.436 432.463 642.648 444.624C636.998 445.108 631.127 444.902 625.447 445.009L623.415 356.998L640.807 356.697C640.888 368.376 641.295 380.068 641.56 391.746C654.104 391.612 666.652 391.206 679.194 390.905C678.56 379.192 678.597 367.439 678.48 355.712Z"/><path fill="#FEFEFE" d="M866.489 314.827C870.441 314.445 874.457 315.123 878.385 315.554C878.345 320.677 878.029 325.815 877.813 330.935C874.369 330.702 870.92 330.494 867.471 330.751C860.884 331.242 853.932 333.761 849.659 339.014C845.75 343.821 844.899 349.825 845.714 355.786C847.105 365.951 852.647 378.319 861.018 384.627C865.757 388.199 871.252 389.686 877.166 388.745C885.826 387.367 891.749 381.129 896.669 374.387L908.537 384.301L903.026 391.366C895.497 399.344 886.184 405.03 875.197 406.621C865.987 407.955 857.527 405.725 850.135 400.081C837.902 390.743 829.829 373.356 827.869 358.354C826.578 348.478 828.308 338.456 834.57 330.493C842.349 320.602 854.357 316.219 866.489 314.827Z"/><path fill="#FEFEFE" d="M784.644 342.642C786.121 342.345 786.82 342.259 788.237 342.81C790.543 346.963 790.349 352.827 790.763 357.5C778.652 359.458 766.22 360.629 754.012 361.822C755.046 369.095 755.849 376.416 756.754 383.708C767.296 382.619 777.818 381.34 788.315 379.871L788.194 395.778L758.532 399.163L760.672 417.241C761.324 422.784 762.024 428.321 762.772 433.851L745.416 435.881L735.151 348.479C751.519 346.003 768.191 344.564 784.644 342.642Z"/><path fill="#FEFEFE" d="M391.671 336.413C398.466 337.495 405.247 339.029 411.999 340.37L423.335 377.056C431.96 367.344 440.223 357.242 448.637 347.341C455.019 348.734 461.441 349.982 467.84 351.297C459.37 362.283 449.063 372.511 439.748 382.836C436.716 386.125 433.319 389.429 430.831 393.16C424.1 403.251 423.295 419.983 421.092 431.936L404.074 428.425L411.044 392.797C404.153 374.194 398.103 355.185 391.671 336.413Z"/><path fill="#FEFEFE" d="M367.75 328.653C373.849 330.141 379.914 331.976 385.968 333.647C377.616 361.667 370.006 390.18 362.582 418.459L344.242 413.455C352.628 385.377 359.97 356.907 367.75 328.653Z"/><path fill="#FEFEFE" d="M815.63 397.82C821.133 396.562 826.638 399.91 828.05 405.374C829.462 410.838 826.268 416.433 820.844 417.997C817.198 419.048 813.269 418.036 810.585 415.354C807.901 412.673 806.886 408.745 807.935 405.099C808.984 401.454 811.931 398.666 815.63 397.82Z"/><path fill="#FEFEFE" d="M921.606 365.406C925.212 364.31 929.13 365.246 931.851 367.853C934.572 370.461 935.674 374.334 934.731 377.983C933.789 381.631 930.95 384.487 927.307 385.452C921.812 386.907 916.165 383.693 914.61 378.227C913.056 372.762 916.168 367.059 921.606 365.406Z"/><path fill="#AD9A6B" d="M611.811 101.353C698.152 100.234 806.782 108.882 884.934 144.935L864.97 206.163C775.878 228.907 680.449 235.373 588.817 233.728C503.43 232.501 418.344 223.293 334.672 206.223L314.392 143.459C412.458 119.471 510.726 103.476 611.811 101.353Z"/><path fill="#FEFEFE" d="M677.914 154.596C683.514 153.996 688.569 157.976 689.297 163.56C690.026 169.144 686.161 174.287 680.594 175.143C676.877 175.715 673.143 174.229 670.834 171.262C668.526 168.294 668.007 164.309 669.476 160.849C670.946 157.389 674.175 154.996 677.914 154.596Z"/><path fill="#FEFEFE" d="M414.653 173.071C420.187 171.627 425.844 174.936 427.297 180.465C428.75 185.995 425.449 191.656 419.92 193.117C414.379 194.582 408.701 191.273 407.245 185.731C405.789 180.189 409.108 174.518 414.653 173.071Z"/><path fill="#FEFEFE" d="M719.279 159.199C724.606 157.114 730.616 159.739 732.706 165.063C734.796 170.387 732.177 176.398 726.853 178.492C721.522 180.59 715.5 177.967 713.408 172.635C711.315 167.304 713.944 161.287 719.279 159.199Z"/><path fill="#FEFEFE" d="M483.874 157.675C489.275 156.119 494.933 159.152 496.627 164.511C498.32 169.87 495.431 175.601 490.116 177.43C486.555 178.655 482.61 177.852 479.811 175.334C477.011 172.816 475.799 168.978 476.643 165.309C477.487 161.64 480.255 158.718 483.874 157.675Z"/><path fill="#FEFEFE" d="M501.49 125.264C505.03 124.076 508.934 124.882 511.713 127.375C514.492 129.868 515.714 133.662 514.914 137.307C514.114 140.953 511.415 143.887 507.847 144.987C502.425 146.661 496.666 143.664 494.925 138.264C493.185 132.865 496.111 127.07 501.49 125.264Z"/><path fill="#FEFEFE" d="M428.579 138.378C433.906 136.328 439.887 138.969 441.959 144.286C444.032 149.602 441.415 155.592 436.106 157.686C430.766 159.792 424.73 157.158 422.646 151.81C420.561 146.463 423.222 140.44 428.579 138.378Z"/><path fill="#FEFEFE" d="M770.378 134.545C775.989 133.895 781.087 137.858 781.84 143.455C782.593 149.052 778.725 154.221 773.141 155.077C769.436 155.646 765.713 154.17 763.404 151.218C761.096 148.266 760.561 144.297 762.007 140.84C763.453 137.383 766.654 134.975 770.378 134.545Z"/><path fill="#FEFEFE" d="M700.854 125.284C706.259 123.453 712.127 126.338 713.977 131.734C715.827 137.131 712.963 143.007 707.572 144.877C702.153 146.755 696.238 143.874 694.379 138.45C692.519 133.026 695.422 127.123 700.854 125.284Z"/><path fill="#FEFEFE" d="M383.856 148.411C389.387 146.99 395.024 150.31 396.461 155.835C397.898 161.359 394.591 167.004 389.069 168.456C383.526 169.913 377.853 166.592 376.41 161.046C374.968 155.5 378.305 149.838 383.856 148.411Z"/><path fill="#FEFEFE" d="M783.449 170.013C787.022 168.872 790.932 169.751 793.673 172.311C796.413 174.871 797.555 178.712 796.659 182.353C795.762 185.994 792.967 188.866 789.351 189.862C783.914 191.358 778.279 188.232 776.672 182.828C775.065 177.425 778.077 171.729 783.449 170.013Z"/><path fill="#FEFEFE" d="M814.493 145.319C818.133 144.241 822.07 145.239 824.756 147.921C827.441 150.603 828.444 154.539 827.37 158.178C826.295 161.818 823.316 164.578 819.604 165.373C814.162 166.538 808.772 163.196 807.398 157.804C806.024 152.412 809.157 146.899 814.493 145.319Z"/><path fill="#FEFEFE" d="M622.875 117.568C628.174 115.59 634.081 118.227 636.142 123.493C638.204 128.759 635.658 134.705 630.423 136.848C626.964 138.265 623.009 137.707 620.076 135.389C617.144 133.072 615.688 129.354 616.268 125.662C616.847 121.969 619.373 118.876 622.875 117.568Z"/><path fill="#FEFEFE" d="M530.959 154.612C536.496 153.976 541.543 157.836 542.379 163.344C543.215 168.853 539.539 174.035 534.063 175.069C530.34 175.772 526.53 174.386 524.13 171.456C521.729 168.526 521.121 164.518 522.544 161.008C523.968 157.498 527.195 155.045 530.959 154.612Z"/><path fill="#FEFEFE" d="M576.114 117.555C581.459 115.578 587.398 118.291 589.401 123.625C591.405 128.96 588.719 134.91 583.393 136.938C578.031 138.979 572.03 136.272 570.014 130.902C567.997 125.532 570.733 119.546 576.114 117.555Z"/><path fill="#FEFEFE" d="M599.92 150.74C605.344 148.885 611.243 151.79 613.078 157.22C614.913 162.649 611.985 168.536 606.547 170.35C601.138 172.154 595.288 169.246 593.462 163.845C591.637 158.445 594.524 152.585 599.92 150.74Z"/><path fill="#AD9A6B" d="M563.823 64.3283C587.024 62.8845 610.82 63.4225 634.048 64.151C721.454 66.0642 808.125 80.5964 891.373 107.297C888.491 115.178 886.166 123.346 883.619 131.346C803.156 100.983 720.417 89.5501 634.959 86.5155C526.43 85.2835 418.342 100.52 314.386 131.705C312.098 123.056 309.539 114.465 307.09 105.86C390.016 80.6583 477.348 67.8398 563.823 64.3283Z"/><path fill="#AD9A6B" d="M528.82 1.14762C529.834 1.04888 530.423 1.21136 531.399 1.45151C533.174 6.27557 532.16 13.6302 532.081 18.857C536.257 18.6389 540.39 18.0715 544.536 17.5453L544.611 38.6736C551.383 38.5674 558.048 38.2289 564.793 37.6126C563.907 45.031 563.209 52.4798 562.437 59.9114C543.308 60.3686 524.063 62.1731 504.95 63.3411C495.041 63.613 485.063 64.6081 475.172 65.3222L470.153 43.6082C476.439 43.1838 482.82 43.2335 489.122 43.0914C488.931 35.6091 488.616 28.1305 488.177 20.6586L501.196 20.165L501.14 2.42227C510.35 2.32529 519.618 1.60986 528.82 1.14762Z"/><path fill="#AD9A6B" d="M348.033 24.8066L348.639 25.0301C351.596 29.3642 352.929 36.3574 354.558 41.4011L366.459 37.8792L372.774 59.3744L390.849 54.2238L392.951 76.4256C373.773 80.7152 354.704 85.9909 335.633 90.7718C326.645 93.397 317.374 95.4055 308.286 97.6908C305.116 91.0856 302.283 84.3146 299.101 77.7056C305.531 75.8528 312.081 74.3161 318.567 72.664L312.301 52.1716C316.407 51.4464 320.487 50.5242 324.568 49.6683C322.749 43.9468 320.87 38.2445 318.931 32.5625L348.033 24.8066Z"/><path fill="#AD9A6B" d="M680.587 0.4688C690.925 1.46393 701.279 2.62074 711.648 3.21258L708.946 21.4082L721.4 21.7443C720.663 28.8466 719.42 35.9693 718.414 43.0433C725.092 43.2632 731.792 44.146 738.422 44.9396L732.84 66.1578C724.177 64.7384 715.013 64.5478 706.24 63.6721L645.57 58.4533C645.434 51.0988 644.606 43.7612 643.934 36.4402C650.31 37.1225 656.677 37.8984 663.03 38.7675C663.498 31.322 664.605 23.7759 665.671 16.3919C669.873 16.9925 674.082 17.5413 678.298 18.0381C678.714 12.1802 679.776 6.28794 680.587 0.4688Z"/><path fill="#AD9A6B" d="M850.533 26.5581C860.441 28.4422 870.656 32.3899 880.364 35.2837L874.424 52.3955L886.717 55.3327L879.597 75.4078L898.711 80.89C895.947 87.6568 892.47 94.2643 889.317 100.866C880.447 98.022 871.356 95.6665 862.4 93.0922L805.196 76.9888C806.32 69.6629 807.145 62.2942 807.668 54.9011C813.807 56.7682 819.914 58.7506 826.031 60.6895C828.076 53.5783 830.506 46.5351 832.756 39.4828C836.787 40.5916 840.789 41.8509 844.8 43.0353L850.533 26.5581Z"/></svg>