<svg width="71" height="80" viewBox="0 0 71 80" fill="none" xmlns="http://www.w3.org/2000/svg">
<g clip-path="url(#clip0_3703_1990)">
<path d="M34.9006 79.8663C34.8103 79.8251 25.7578 75.6377 16.9909 66.0309C11.8458 60.3931 7.79777 54.016 4.95777 47.0754C1.41034 38.4046 -0.247941 28.832 0.0297733 18.6229L0.0503447 17.8549L0.813773 17.9349C0.813773 17.9349 1.33377 17.9874 2.17034 17.9874C4.35092 17.9874 8.57949 17.6491 12.3943 15.3886C17.0778 12.6126 19.6686 7.82286 20.0961 1.152L20.1703 0L21.1658 0.584C21.2138 0.611429 26.0903 3.37829 35.1966 3.37829C44.3029 3.37829 49.1806 0.611429 49.2286 0.584L50.2206 0.00457143L50.2949 1.152C50.7223 7.82286 53.3132 12.6137 57.9966 15.3897C61.8103 17.6503 66.0389 17.9886 68.2195 17.9886C69.0138 17.9886 69.5201 17.9417 69.5761 17.936L70.3395 17.8571L70.3612 18.6229C70.6389 28.832 68.9806 38.4046 65.4332 47.0743C62.5932 54.0149 58.5452 60.392 53.4001 66.0297C44.6332 75.6366 35.5818 79.824 35.4903 79.8651L35.1955 79.9989L34.9006 79.8651V79.8663Z" fill="white"/>
<path d="M34.9168 77.6723C34.8314 77.6334 26.2736 73.6764 17.9858 64.5983C13.1219 59.2708 9.29508 53.2446 6.61029 46.686C3.25672 38.4923 1.68906 29.4465 1.9516 19.7992L1.97105 19.0735L2.69276 19.1491C2.69276 19.1491 3.18434 19.1988 3.97519 19.1988C6.03659 19.1988 10.0341 18.8791 13.6404 16.7429C18.0679 14.1197 20.5172 9.59359 20.9213 3.28984L20.9915 2.20124L21.9325 2.7531C21.9779 2.77902 26.588 5.39361 35.1966 5.39361C43.8052 5.39361 48.4164 2.77902 48.4617 2.7531L49.3995 2.20556L49.4698 3.28984C49.8738 9.59359 52.3231 14.1208 56.7506 16.744C60.3559 18.8802 64.3533 19.1999 66.4147 19.1999C67.1656 19.1999 67.6442 19.1556 67.6972 19.1502L68.4189 19.0757L68.4394 19.7992C68.702 29.4465 67.1343 38.4923 63.7807 46.6849C61.0959 53.2435 57.2692 59.2697 52.4052 64.5972C44.1175 73.6754 35.5607 77.6323 35.4743 77.6712L35.1955 77.7976L34.9168 77.6712V77.6723Z" fill="white"/>
<path d="M69.6515 18.6423C69.6515 18.6423 69.1166 18.6983 68.2206 18.6983C63.8046 18.6983 50.6195 17.3383 49.5863 1.19654C49.5863 1.19654 44.6583 4.08797 35.1955 4.08797C25.7326 4.08797 20.8057 1.19654 20.8057 1.19654C19.7715 17.336 6.58746 18.6983 2.17146 18.6983C1.27546 18.6983 0.740605 18.6423 0.740605 18.6423C-0.462824 62.9634 35.1955 79.2194 35.1955 79.2194C35.1955 79.2194 70.8549 62.9634 69.6503 18.6423H69.6515ZM63.3612 46.1337C60.6377 52.816 56.752 58.9611 51.8103 64.3988C47.3989 69.2525 42.944 72.6354 39.984 74.6171C37.7943 76.0834 36.0766 77.0217 35.1966 77.4754C33.0309 76.36 25.7863 72.2937 18.672 64.4971C13.7075 59.0571 9.80232 52.9051 7.06403 46.2137C3.81946 38.2845 2.21146 29.5611 2.27661 20.2617C4.72003 20.2503 9.33489 19.8468 13.5543 17.3451C15.992 15.8994 17.9646 13.9497 19.4172 11.5497C20.7955 9.27197 21.7086 6.57483 22.1418 3.51083C24.5349 4.42397 28.9212 5.65254 35.1966 5.65254C41.472 5.65254 45.8583 4.42397 48.2515 3.51083C48.6846 6.57483 49.5978 9.27197 50.976 11.5497C52.4286 13.9497 54.4012 15.8994 56.8389 17.3451C61.0583 19.8457 65.6732 20.2503 68.1166 20.2617C68.1818 29.5303 66.5852 38.2263 63.3623 46.1348L63.3612 46.1337ZM31.1155 40.9337L31.0435 40.1383L30.4023 40.1954L30.4743 40.9908L31.1155 40.9325V40.9337ZM25.7966 41.4125L25.7246 40.6171L25.0835 40.6743L25.1555 41.4697L25.7966 41.4125ZM39.2423 41.4537L39.1703 40.6583L38.5292 40.7154L38.6012 41.5108L39.2423 41.4537ZM46.4983 39.9783L46.4263 39.1828L45.7852 39.2411L45.8572 40.0365L46.4983 39.9783ZM13.1509 42.5383L14.3657 42.1863L14.3337 41.832L13.1189 42.184L13.1509 42.5383ZM14.3189 41.5977L14.2869 41.2434L13.072 41.5965L13.104 41.9508L14.3189 41.5988V41.5977ZM17.9372 43.4183C17.888 42.8697 17.4949 42.4754 16.8492 42.5337L16.7052 42.5463C16.1463 42.5965 15.7589 43.0605 15.808 43.6091L15.9635 45.3383C15.9692 45.4 15.9315 45.4445 15.8697 45.4503L15.5875 45.4754L14.9669 45.5314L15.1029 43.7714C15.1566 43.1051 14.7543 42.7223 14.0515 42.7851L13.5795 42.8274C12.9223 42.8868 12.5783 43.3725 12.7372 43.984L13.1749 45.6925L12.6 45.744L12.288 45.7725C12.2263 45.7783 12.1817 45.7405 12.176 45.6788L11.8686 42.2571L11.1223 42.4685L11.4195 45.7668C11.4595 46.208 11.7863 46.504 12.1806 46.4685L12.6629 46.4251L15.648 46.1565L16.1966 46.1074C16.5349 46.0765 16.7109 45.7348 16.7017 45.5131C16.7635 45.792 16.9509 46.0388 17.4275 45.9965C17.9555 45.9485 18.1315 45.5965 18.0926 45.1657L17.9349 43.416L17.9372 43.4183ZM14.2389 45.5977L13.9109 45.6274L13.4595 43.6617C13.4355 43.5657 13.4835 43.5257 13.5452 43.52L14.2172 43.4594C14.2789 43.4537 14.3326 43.4845 14.3269 43.584L14.2389 45.5988V45.5977ZM17.24 45.328L16.8343 45.3645C16.7726 45.3703 16.728 45.3325 16.7223 45.2708L16.5497 43.352C16.544 43.2903 16.5817 43.2457 16.6435 43.24L17.0492 43.2034C17.1109 43.1977 17.1555 43.2354 17.1612 43.2971L17.3337 45.216C17.3395 45.2777 17.3018 45.3223 17.24 45.328ZM48.7955 39.08L49.1612 43.1428L49.92 43.0743L49.5418 38.8674L48.7955 39.08ZM54.0309 43.0308L54.1029 43.8263L54.744 43.7691L54.672 42.9737L54.0309 43.0308ZM48.0446 39.0034L47.2983 39.216L47.5932 42.4937C47.5989 42.5554 47.5612 42.6 47.4995 42.6057L47.1863 42.6343L46.9098 42.6594C46.848 42.6651 46.8035 42.6274 46.7978 42.5657L46.5932 40.2937L45.8469 40.5063L46.1395 43.7588C46.1452 43.8205 46.1075 43.8651 46.0458 43.8708L45.5178 43.9188L45.5795 44.6011L46.0926 44.5554C46.5498 44.5143 46.9143 44.2594 46.8583 43.6434L46.7875 42.8537C46.8218 43.2377 47.1098 43.3314 47.248 43.3188L47.7303 43.2754C48.1258 43.24 48.3932 42.8903 48.3543 42.4491L48.0446 39.0068V39.0034ZM20.6583 46.368L20.7303 47.1634L21.3715 47.1051L21.2995 46.3097L20.6583 46.368ZM60.16 39.5428C60.1075 38.9531 59.6435 38.6845 59.1143 38.7314L58.9452 38.7463C58.3966 38.7954 57.9818 39.1851 58.0355 39.7897L58.1909 41.5131C58.2309 41.96 58.4846 42.304 58.9566 42.2617L58.9977 42.2583C59.3155 42.2297 59.616 42.0011 59.5852 41.6571L59.664 42.5394C59.6698 42.6011 59.632 42.6457 59.5703 42.6514L58.8938 42.712L58.9555 43.3943L59.648 43.3314C60.1657 43.2845 60.472 42.9988 60.416 42.3828L60.16 39.5405V39.5428ZM59.4697 41.5291L59.064 41.5657C59.0023 41.5714 58.9578 41.5337 58.952 41.472L58.7795 39.5531C58.7738 39.4914 58.8115 39.4468 58.8732 39.4411L59.2789 39.4045C59.3406 39.3988 59.3852 39.4365 59.3909 39.4983L59.5635 41.4171C59.5692 41.4788 59.5315 41.5234 59.4697 41.5291ZM56.1818 41.8251L55.9989 39.7885C55.9932 39.7268 56.0309 39.6823 56.0926 39.6765L56.488 39.6411C56.5498 39.6354 56.5943 39.6731 56.6 39.7348L56.7052 40.9097L57.4366 40.6994L57.3566 39.8125C57.3029 39.2125 56.9875 38.9257 56.3509 38.9828L56.0892 39.0068C55.4732 39.0617 55.2172 39.3748 55.2743 40.0114L55.3875 41.2731C55.4275 41.72 55.6435 41.8754 55.8229 41.8594L55.0892 41.9257L54.6583 41.9645L54.4275 39.4L53.6812 39.6114L53.8995 42.0331L53.464 42.072L53.1875 42.0971C53.1258 42.1028 53.0812 42.0651 53.0755 42.0034L52.8538 39.5405L52.1075 39.752L52.4172 43.1943C52.4229 43.256 52.3852 43.3005 52.3235 43.3063L51.7955 43.3543L51.8572 44.0365L52.3703 43.9908C52.8263 43.9497 53.192 43.6948 53.136 43.0788L53.0652 42.2891C53.0995 42.6731 53.3875 42.7668 53.5258 42.7543L55.152 42.608L57.5886 42.3885L57.5269 41.7063L56.1829 41.8274L56.1818 41.8251ZM35.7955 41.0697L35.0492 41.2811L35.2583 43.6045C35.264 43.6663 35.2263 43.7108 35.1646 43.7165L34.5898 43.768L34.376 41.3931L33.6298 41.6057L33.8309 43.8377L33.1543 43.8983L32.9417 41.5337L32.1955 41.7451L32.3955 43.9668L31.8983 44.0114L31.4675 44.0503L31.2366 41.4857L30.4903 41.6971L30.7086 44.1188L30.2732 44.1577L29.8892 44.192C29.8915 44.1611 29.8892 44.1348 29.8869 44.1097L29.7292 42.36C29.68 41.8114 29.2869 41.4171 28.6412 41.4754L28.4972 41.488C27.9383 41.5383 27.5509 42.0023 27.6 42.5508L27.7555 44.28C27.7612 44.3417 27.7235 44.3863 27.6617 44.392L27.3852 44.4171L27.0057 44.4514L26.8275 42.4708C26.7772 41.912 26.4126 41.6491 25.9657 41.6903C25.7303 41.712 25.5372 41.8171 25.3737 41.9508L25.032 42.2297L24.9909 41.7725L24.2446 41.9851L24.4869 44.6788L24.1075 44.7131L23.8309 44.7383C23.7692 44.744 23.7246 44.7063 23.7189 44.6445L23.4755 41.9417L22.0903 42.0663C21.608 42.1097 21.3783 42.368 21.4503 42.8274L21.8297 45.2605L21.4503 45.2948C21.1429 45.3223 20.9006 45.3337 20.856 44.8365C20.8115 44.3394 20.936 43.0868 20.936 43.0868L20.1966 43.1531C20.1966 43.1531 20.0457 44.232 20.1052 44.8994C20.1955 45.9051 20.7463 46.0468 21.4137 45.9863L21.9932 45.9337C22.4195 45.8948 22.6503 45.5383 22.5795 45.0891L22.224 42.8045C22.2149 42.7645 22.2446 42.7405 22.28 42.7371L22.7772 42.6925L22.9612 44.7348C23.0012 45.1817 23.328 45.472 23.7383 45.4354L24.1692 45.3965L27.4469 45.1017L27.9897 45.0525C28.328 45.0217 28.504 44.68 28.4949 44.4594C28.5566 44.7383 28.744 44.9851 29.2206 44.9417C29.5383 44.9131 29.728 44.7714 29.8183 44.5771C29.9018 44.7554 30.0515 44.8663 30.3338 44.8411L31.9589 44.6948L35.3806 44.3874C35.7909 44.3508 36.0583 43.9908 36.0183 43.544L35.7955 41.0708V41.0697ZM25.2446 44.6103L25.112 43.1428C25.1063 43.0857 25.1292 43.0525 25.1726 43.0183L25.9475 42.3794C25.9669 42.3623 25.9817 42.3611 25.992 42.36C26.0275 42.3565 26.0515 42.3851 26.0549 42.4263L26.2435 44.52L25.2435 44.6103H25.2446ZM29.0297 44.2697L28.6252 44.3063C28.5635 44.312 28.5189 44.2743 28.5132 44.2125L28.3406 42.2937C28.3349 42.232 28.3726 42.1874 28.4343 42.1817L28.8389 42.1451C28.9006 42.1394 28.9452 42.1771 28.9509 42.2388L29.1235 44.1577C29.1292 44.2194 29.0915 44.264 29.0297 44.2697ZM44.9132 40.9943C44.864 40.4457 44.472 40.0514 43.8252 40.1097L43.6812 40.1223C43.1223 40.1725 42.7349 40.6365 42.784 41.1851L42.9395 42.9143C42.9452 42.976 42.9075 43.0205 42.8458 43.0263L42.5635 43.0514L42.2503 43.08C42.1886 43.0857 42.144 43.048 42.1383 42.9863L41.8309 39.5645L41.0846 39.7771L41.3818 43.0754C41.4218 43.5165 41.7486 43.8125 42.1429 43.7771L42.6252 43.7337L43.1738 43.6845C43.512 43.6537 43.688 43.312 43.6789 43.0903C43.7406 43.3691 43.928 43.616 44.4046 43.5737C44.9326 43.5257 45.1086 43.1737 45.0698 42.7428L44.912 40.9931L44.9132 40.9943ZM44.216 42.9028L43.8103 42.9394C43.7486 42.9451 43.704 42.9074 43.6983 42.8457L43.5258 40.9268C43.52 40.8651 43.5578 40.8205 43.6195 40.8148L44.0252 40.7783C44.0869 40.7725 44.1315 40.8103 44.1372 40.872L44.3097 42.7908C44.3155 42.8525 44.2778 42.8971 44.216 42.9028ZM21.5989 46.2914L21.6709 47.0868L22.312 47.0297L22.24 46.2343L21.5989 46.2914ZM40.5338 40.6491L39.7886 40.8765L40.0846 44.1703C40.0915 44.2423 40.0538 44.2811 39.9863 44.288L39.4938 44.3325C38.8938 44.3863 38.8686 44.1657 38.8332 43.7714C38.7852 43.2434 38.8915 42.5303 38.9909 41.9063L38.288 41.9691C38.1658 42.6263 38.0538 43.2777 38.112 43.9188C38.2 44.8983 38.8058 45.0823 39.4423 45.0251L40.2069 44.9565C40.704 44.912 40.8858 44.5645 40.8446 44.1131L40.5326 40.6503L40.5338 40.6491Z" fill="#002A49"/>
<path d="M55.1827 27.3257H55.569C55.6113 27.3257 55.6444 27.36 55.6444 27.4011V27.992C55.6444 28.0342 55.6102 28.0674 55.569 28.0674H55.1827C55.1404 28.0674 55.1073 28.0331 55.1073 27.992V27.4011C55.1073 27.3588 55.1416 27.3257 55.1827 27.3257Z" fill="#008357"/>
<path d="M15.4386 27.3302H14.9631V29.4228H15.4386C15.4843 29.4228 15.5151 29.3919 15.5151 29.3462V27.4068C15.5151 27.3611 15.4843 27.3302 15.4386 27.3302Z" fill="#008357"/>
<path d="M46.0159 7.40571C43.4056 8.08228 39.537 8.63771 35.1953 8.63771C30.8536 8.63771 26.985 8.08228 24.3747 7.40571C21.5176 17.6857 13.6181 22.2114 5.29358 23.0857C5.48329 29.1543 6.43644 34.9406 8.13587 40.3771L34.225 38.0286C34.2547 37.2903 34.9907 36.8766 34.9907 36.3257C34.9907 35.7749 34.2273 35.3474 34.2227 34.5851C34.2273 33.8229 34.9907 33.4057 34.9907 32.8446C34.9907 32.2834 34.2273 31.8663 34.2227 31.104C34.2273 30.3417 35.1953 29.3634 35.1953 29.3634C35.1953 29.3634 36.1633 30.3417 36.1679 31.104C36.1633 31.8663 35.3999 32.2834 35.3999 32.8446C35.3999 33.4057 36.1633 33.8229 36.1679 34.5851C36.1633 35.3474 35.3999 35.7646 35.3999 36.3257C35.3999 36.8331 36.0216 37.2229 36.145 37.856L63.5827 35.3863C64.4559 31.4389 64.9633 27.3314 65.0959 23.0857C56.7713 22.2114 48.8719 17.6869 46.0147 7.40571H46.0159ZM11.7564 29.2697C11.7564 29.672 11.4387 29.9589 10.9896 29.9589H10.8673C10.4193 29.9589 10.1004 29.672 10.1004 29.2697V28.4766L10.6833 28.3611V29.3463C10.6833 29.392 10.7142 29.4229 10.7599 29.4229H11.097C11.1427 29.4229 11.1736 29.392 11.1736 29.3463V27.3303H10.1542V26.832H11.7564V29.2697ZM13.849 29.9211H12.3542V26.832H13.833V27.3303H12.9359V28.0777H13.7176V28.576H12.9359V29.4229H13.8479V29.9211H13.849ZM16.0982 29.2309C16.0982 29.6297 15.8102 29.9211 15.4079 29.9211H14.3804V26.832H15.4079C15.8067 26.832 16.0982 27.1234 16.0982 27.5211V29.2309ZM27.497 30.7257L27.6296 30.0343C26.833 31.2206 25.5896 31.4046 25.5896 31.4046C25.6296 30.1131 26.2399 28.784 27.9084 28.4263C31.0879 27.8057 33.8696 29.0994 33.8696 29.0994C33.8696 29.0994 30.6079 28.7977 27.497 30.7246V30.7257ZM28.2536 27.2994L28.6959 26.7371C27.9656 27.1383 27.2799 27.1737 26.7416 27.0891L26.8982 26.4754L25.6193 26.7029C25.5462 24.8274 27.0319 24.4937 29.1736 24.9109C33.2616 25.7086 34.7096 28.5394 34.7096 28.5394C32.6216 27.4617 30.5427 27.1063 28.2536 27.2983V27.2994ZM30.4296 23.6149L31.3907 23.2297C29.3119 23.368 28.5153 22.2903 28.5153 22.2903L29.6513 21.8846C26.5176 21.7486 25.4387 19.2126 25.4387 19.2126C34.7999 18.2789 34.9096 27.3154 34.9096 27.3154C34.9096 27.3154 32.9862 24.6583 30.4296 23.616V23.6149ZM34.6353 22.6286C34.3187 22.0297 33.8833 21.5909 33.8341 21.0457C33.8341 21.0457 34.625 21.3234 34.6604 20.9429C34.6879 20.648 34.161 20.4011 34.161 19.7897C34.161 18.9314 34.9587 18.5657 35.1942 17.952C35.4296 18.5669 36.2273 18.9326 36.2273 19.7897C36.2273 20.4011 35.7004 20.648 35.7279 20.9429C35.7633 21.3234 36.5541 21.0457 36.5541 21.0457C36.5062 21.5909 36.0696 22.0297 35.7542 22.6286C35.3359 23.4206 35.1942 23.9794 35.1942 23.9794C35.1942 23.9794 35.0524 23.4206 34.6341 22.6286H34.6353ZM35.681 28.5406C35.681 28.5406 37.129 25.7097 41.217 24.912C43.3587 24.4937 44.8444 24.8286 44.7713 26.704L43.4924 26.4766L43.649 27.0903C43.1107 27.1749 42.425 27.1394 41.6947 26.7383L42.137 27.3006C39.8479 27.1086 37.7679 27.464 35.681 28.5417V28.5406ZM42.7621 30.0343L42.8947 30.7257C39.7839 28.7989 36.5222 29.1006 36.5222 29.1006C36.5222 29.1006 39.3039 27.8069 42.4833 28.4274C44.1519 28.7851 44.761 30.1143 44.8021 31.4057C44.8021 31.4057 43.5587 31.2206 42.7621 30.0354V30.0343ZM40.7393 21.8846L41.8753 22.2903C41.8753 22.2903 41.0787 23.368 38.9999 23.2297L39.961 23.6149C37.4044 24.656 35.481 27.3143 35.481 27.3143C35.481 27.3143 35.5896 18.2777 44.9519 19.2114C44.9519 19.2114 43.873 21.7474 40.7393 21.8834V21.8846ZM54.113 29.8846H52.481V29.392H53.0341V27.4423H52.569V26.9989L53.6101 26.7943V29.3909H54.1142V29.8834L54.113 29.8846ZM56.2216 29.1657C56.2216 29.6046 55.9039 29.9223 55.465 29.9223H55.2833C54.8444 29.9223 54.5256 29.6046 54.5256 29.1657V28.9657L55.1016 28.8526V29.3177C55.1016 29.3634 55.1313 29.3931 55.177 29.3931H55.5701C55.6159 29.3931 55.6456 29.3634 55.6456 29.3177V28.1817C55.6456 28.424 55.4067 28.5977 55.089 28.5977C54.7713 28.5977 54.5324 28.344 54.5324 27.992V27.5531C54.5324 27.1097 54.8467 26.7966 55.2901 26.7966H55.4639C55.9073 26.7966 56.2204 27.1109 56.2204 27.5531V29.1657H56.2216ZM58.4284 29.1657C58.4284 29.6091 58.1142 29.9223 57.6707 29.9223H57.497C57.0547 29.9223 56.7404 29.608 56.7404 29.1657V28.6846L57.3164 28.5714V29.3177C57.3164 29.3634 57.3461 29.3931 57.3919 29.3931H57.7781C57.8239 29.3931 57.8536 29.3634 57.8536 29.3177V28.3749C57.8536 28.3291 57.8239 28.2994 57.7781 28.2994H57.2787V27.9931L57.721 27.3269H56.7553V26.8343H58.4216V27.2891L57.9861 27.9143C58.2547 27.9977 58.4296 28.2434 58.4296 28.5657V29.168L58.4284 29.1657ZM60.4913 27.3486C60.4913 27.64 60.4536 27.792 60.3553 28.064L59.7084 29.8846H59.1027L59.9016 27.64C59.913 27.6103 59.9164 27.5829 59.9164 27.5497V27.3269H58.841V26.8343H60.4913V27.3486Z" fill="#008357"/>
<path d="M28.5107 59.8343C28.5107 59.768 28.4661 59.7234 28.3998 59.7234H27.8216C27.7553 59.7234 27.7107 59.768 27.7107 59.8343V61.3977L28.5118 61.2423V59.8343H28.5107Z" fill="#008357"/>
<path d="M38.0411 54.6593V54.2296C38.0411 53.2834 37.7085 52.8742 37.0045 52.7668C37.1668 53.0159 37.2731 53.3245 37.2731 53.6605C37.2731 54.0456 37.1371 54.3942 36.9359 54.6593H38.0411Z" fill="#008357"/>
<path d="M20.6251 62.2091C26.3669 68.5783 32.2629 72.3977 35.1954 74.0754C38.1291 72.3977 44.0251 68.5783 49.768 62.208C54.2926 57.1886 57.872 51.544 60.4229 45.4228L12 49.7817C14.3086 54.24 17.1954 58.4057 20.6251 62.2103V62.2091ZM29.408 58.0308C29.1714 58.0308 28.9897 57.848 28.9897 57.6126C28.9897 57.3771 29.1726 57.1943 29.408 57.1943C29.6434 57.1943 29.8263 57.3771 29.8263 57.6126C29.8263 57.848 29.6434 58.0308 29.408 58.0308ZM32.3211 62.8171C32.3211 63.2068 32.0434 63.4846 31.6537 63.4846H29.9177V59H30.7634V62.7611H31.3646C31.4309 62.7611 31.4754 62.7166 31.4754 62.6503V61.3874L32.3211 61.2206V62.8171ZM36.2377 63.4846H35.392V62.0491H34.5909V63.4846H33.7451V59.9463C33.7451 59.3623 34.2069 58.9451 34.8583 58.9451H35.1257C35.7771 58.9451 36.2389 59.3623 36.2389 59.9463V63.4846H36.2377ZM42.7429 51.2766L43.5269 51.0514V56.5166H42.7429V51.2766ZM42.6811 59H43.5269V63.4846H42.6811V59ZM42.2526 62.8171C42.2526 63.2068 41.9749 63.4846 41.5851 63.4846H39.8491V59H40.6949V62.7611H41.296C41.3623 62.7611 41.4069 62.7166 41.4069 62.6503V61.3874L42.2526 61.2206V62.8171ZM41.2503 51.2766L42.0343 51.0514V56.5166H39.608V54.648H41.2503V51.2766ZM39.5966 51.1371H39.8331L39.7577 51.0297C39.6937 50.9326 39.672 50.8686 39.672 50.7931C39.672 50.632 39.8114 50.4708 40.0366 50.4708C40.2411 50.4708 40.3691 50.6 40.3691 50.7817V50.8891H40.1326V50.8251C40.1326 50.7497 40.0891 50.7074 40.0251 50.7074C39.9714 50.7074 39.9177 50.7394 39.9177 50.7931C39.9177 50.8251 39.9394 50.8686 39.9611 50.9108L40.1006 51.136H40.3691V51.3726H39.5966V51.136V51.1371ZM39.5966 51.8023L40.3806 51.5874V54.2823H39.5966V51.8023ZM39.2697 63.4834H38.424V61.5303H37.6446V63.4834H36.7989V58.9988H37.6446V60.88L38.424 60.7303V59H39.2697V63.4846V63.4834ZM28.6229 51.7588L28.72 51.8446C28.1406 52.4457 27.3246 53.4446 27.3246 54.336C27.3246 55.1086 27.9257 55.496 28.7097 55.496C29.4937 55.496 29.7726 55.2274 29.7726 54.8834C29.7726 54.4857 28.8389 54.024 28.8389 53.2731C28.8389 52.4137 29.376 52.1348 30.7611 51.4583L32.4251 54.6583H33.048V51.2766L33.832 51.0514V54.6594H35.2171C35.016 54.3954 34.8789 54.0457 34.8789 53.6606C34.8789 53.3108 34.9943 52.9908 35.1691 52.7371H34.4869V51.9531H36.4514C38.1154 51.9531 38.824 52.6617 38.824 54.0148V56.5166H37.2891C36.8274 56.5166 36.4194 56.4308 36.0754 56.28C35.7429 56.4308 35.3451 56.5166 34.9051 56.5166H32.5109L30.4811 52.6194C30.0194 52.8023 29.944 52.952 29.944 53.0708C29.944 53.4891 31.0171 53.9726 31.0171 55.208C31.0171 56.1417 30.2229 56.8937 28.9131 56.8937C27.7749 56.8937 26.8629 56.2606 26.8629 54.8857C26.8629 53.9303 27.5074 52.7166 28.624 51.7611L28.6229 51.7588ZM28.7943 57.6103C28.7943 57.8468 28.6114 58.0286 28.376 58.0286C28.1406 58.0286 27.9577 57.8457 27.9577 57.6103C27.9577 57.3748 28.1406 57.192 28.376 57.192C28.6114 57.192 28.7943 57.3748 28.7943 57.6103ZM26.8617 59.944C26.8617 59.36 27.3234 58.9428 27.9749 58.9428H28.2423C28.8937 58.9428 29.3554 59.36 29.3554 59.944V63.4823H28.5097V62.0468H27.7086V63.4823H26.8629V59.944H26.8617Z" fill="#008357"/>
<path d="M35.2823 59.7234H34.704C34.6377 59.7234 34.5931 59.768 34.5931 59.8343V61.3977L35.3943 61.2423V59.8343C35.3943 59.768 35.3497 59.7234 35.2834 59.7234H35.2823Z" fill="#008357"/>
<path d="M36.0754 54.6479C36.4514 54.3794 36.6445 54.0034 36.6445 53.6925C36.6445 53.3817 36.4514 53.0057 36.0754 52.7371C35.6994 53.0057 35.5062 53.3817 35.5062 53.6925C35.5062 54.0034 35.6994 54.3794 36.0754 54.6479Z" fill="#008357"/>
</g>
<defs>
<clipPath id="clip0_3703_1990">
<rect width="70.3909" height="80" fill="white"/>
</clipPath>
</defs>
</svg>
