<?xml version="1.0" encoding="UTF-8"?>
<svg id="Calque_2" data-name="Calque 2" xmlns="http://www.w3.org/2000/svg" viewBox="0 0 315.86 315.86">
  <defs>
    <style>
      .cls-1 {
        fill: #e1001e;
      }

      .cls-2 {
        fill: #fff;
      }
    </style>
  </defs>
  <g id="Calque_1-2" data-name="Calque 1">
    <g>
      <circle class="cls-2" cx="158.38" cy="157.93" r="155.4"/>
      <circle class="cls-1" cx="157.93" cy="157.93" r="149.05"/>
      <circle cx="157.93" cy="157.93" r="141.6"/>
      <path d="M157.93,315.86C70.85,315.86,0,245.01,0,157.93S70.85,0,157.93,0s157.93,70.85,157.93,157.93-70.85,157.93-157.93,157.93ZM157.93,4.35C73.24,4.35,4.35,73.24,4.35,157.93s68.9,153.58,153.58,153.58,153.58-68.9,153.58-153.58S242.62,4.35,157.93,4.35Z"/>
      <path class="cls-2" d="M158.38,255.96c-54.14,0-98.03-43.89-98.03-98.03s43.89-98.03,98.03-98.03,98.03,43.89,98.03,98.03c-.06,54.12-43.92,97.97-98.03,98.03h0Z"/>
      <path class="cls-1" d="M157.93,261.19c-56.94,0-103.26-46.33-103.26-103.26.06-57,46.26-103.2,103.26-103.26,56.94,0,103.26,46.32,103.26,103.26s-46.33,103.26-103.26,103.26h0ZM157.93,61.56c-53.22,0-96.37,43.15-96.37,96.37s43.15,96.37,96.37,96.37,96.37-43.15,96.37-96.37c-.06-53.2-43.17-96.31-96.37-96.37h0Z"/>
      <path class="cls-2" d="M59.24,104.2l-2.91,5.04-13.11-19.43,2.61-4.17,23.18,3.37-3.21,4.81-3.59-.57-5.03,8.02,2.06,2.93ZM54.35,97.35l3.11-4.96-7.59-1.29,4.48,6.25Z"/>
      <path class="cls-2" d="M70.19,87.58l-15.63-14.48,3.58-3.86,12.2,11.31,7.12-7.68,3.42,3.17-10.69,11.54Z"/>
      <path class="cls-2" d="M94.22,55.52c1.67,2.4,2.4,4.67,2.17,6.81-.22,2.14-1.41,3.96-3.55,5.45-.53.37-1.05.7-1.56.99-.51.29-1.03.56-1.56.8-.56.25-1.13.48-1.71.68-.61.21-1.26.41-1.96.62l-1.84-4.33c.69-.25,1.3-.49,1.83-.72.53-.23,1-.45,1.42-.67.42-.22.82-.44,1.19-.66.37-.22.74-.46,1.12-.72.72-.47,1.17-1.27,1.19-2.13-.02-1.08-.4-2.12-1.07-2.96l-7.22-10.36,4.39-3.07,7.15,10.26Z"/>
      <path class="cls-2" d="M104.6,59.56l-5.21,3.2-.43-23.78,4.46-2.08,17.64,15.4-5.61,2.15-2.42-2.26-8.58,4,.13,3.37ZM104.23,51.36l5.31-2.48-5.68-5.2.37,7.68Z"/>
      <path class="cls-2" d="M129.75,45.27l10.31-2.41,1.07,4.61-17.85,4.17-.75-3.24,7.36-15.33-9.89,2.31-1.08-4.61,17.18-4.01.75,3.24-7.12,15.27Z"/>
      <path class="cls-2" d="M149.18,46.57l-5.27.53-2.11-21.2,5.27-.53,2.11,21.2Z"/>
      <path class="cls-2" d="M159.83,40.64l-2.22-.07-.17,5.97-5.27-.02.64-21.3c.54,0,1.16,0,1.85,0,.69,0,1.41,0,2.16,0,.75,0,1.51,0,2.29.02.77.01,1.52.03,2.26.05,1.26.02,2.51.22,3.72.6,1.02.31,1.96.83,2.78,1.53.76.66,1.34,1.5,1.71,2.43.4,1.05.58,2.17.53,3.29,0,2.68-1.5,5.13-3.89,6.34l4.88,7.61-6.53-.55-3.47-5.87-1.26-.03ZM161.12,36.23c.95.08,1.9-.22,2.64-.83.68-.59,1.07-1.45,1.06-2.35.1-.9-.26-1.79-.95-2.38-.81-.57-1.79-.86-2.78-.83-.48-.01-.99-.03-1.54-.03-.54,0-1.09-.02-1.63-.03l-.19,6.36,3.38.1Z"/>
      <path class="cls-2" d="M177.62,48.4l-5.79-1.16,14.45-18.8,4.78,1.15,4.17,23.06-5.57-1.34-.61-3.76-9.2-2.22-2.23,3.07ZM182.67,41.4l5.69,1.38-1.19-7.61-4.5,6.23Z"/>
      <path class="cls-2" d="M225.36,50.05c-1.09-.89-2.04-1.64-2.85-2.24-.72-.54-1.48-1.03-2.27-1.46-.88-.49-1.84-.83-2.84-1-.83-.14-1.69-.11-2.51.1-.76.2-1.48.57-2.08,1.07-.64.54-1.16,1.19-1.54,1.93-.43.77-.69,1.62-.78,2.5-.08.8,0,1.61.26,2.38.27.78.69,1.49,1.24,2.1.62.69,1.36,1.26,2.19,1.69.35.19.77.39,1.26.6s1.01.42,1.55.62c.55.2,1.11.39,1.68.58.58.19,1.14.37,1.68.54l-1.4,4.48c-1.29-.3-2.56-.66-3.81-1.09-1.25-.42-2.46-.95-3.62-1.56-1.48-.76-2.81-1.78-3.93-3.01-.99-1.09-1.76-2.36-2.24-3.76-.46-1.37-.62-2.81-.47-4.25.17-1.56.64-3.07,1.4-4.44.72-1.38,1.7-2.6,2.9-3.59,1.11-.91,2.4-1.58,3.78-1.96,1.42-.37,2.91-.45,4.37-.22,1.64.25,3.23.8,4.69,1.6,1.18.63,2.32,1.35,3.4,2.14,1.04.76,2.04,1.58,2.99,2.45l-3.04,3.81Z"/>
      <path class="cls-2" d="M220.57,66.08l13.17-16.75,4.14,3.25-10.28,13.08,8.13,6.67-2.88,3.67-12.27-9.92Z"/>
      <path class="cls-2" d="M254.29,84.94c-1.06.98-2.3,1.76-3.64,2.3-1.17.46-2.43.68-3.69.62-1.25-.07-2.48-.42-3.58-1.03-1.24-.68-2.35-1.57-3.28-2.64-.95-1.03-1.7-2.23-2.23-3.53-.95-2.36-.79-5.03.44-7.26.7-1.27,1.62-2.4,2.71-3.34l8.72-7.78,3.55,3.97-8.72,7.78c-1.08.85-1.8,2.08-2.01,3.45-.1,1.26.35,2.51,1.24,3.41.8.99,1.99,1.59,3.27,1.64,1.38-.03,2.7-.59,3.67-1.58l8.72-7.78,3.55,3.97-8.72,7.78Z"/>
      <path class="cls-2" d="M264.25,98.62c.45,1.21.5,2.54.15,3.78-.32,1.12-1.05,2.07-2.06,2.66-1.47.98-3.34,1.16-4.97.46-1.89-.92-3.43-2.41-4.41-4.26-.33-.55-.71-1.2-1.14-1.93s-.85-1.48-1.28-2.25c-.42-.77-.84-1.52-1.26-2.26s-.78-1.4-1.09-2l18.26-10.97c.35.54.74,1.15,1.17,1.82l1.3,2.05c.44.7.88,1.39,1.3,2.07s.81,1.32,1.17,1.91c1.25,2.08,1.79,3.94,1.63,5.6-.15,1.64-1.11,3.09-2.55,3.87-.96.61-2.1.88-3.23.79-1.12-.1-2.18-.58-2.99-1.36h0ZM256.34,98.47c.43.82,1.09,1.5,1.9,1.95.68.31,1.47.25,2.09-.18.56-.31.92-.89.94-1.53,0-.79-.23-1.56-.67-2.21l-2.19-3.65-3.92,2.36c.36.64.7,1.24,1.02,1.82.32.58.6,1.06.84,1.45h0ZM265.64,88.5l-4.03,2.42,1.92,3.2c.37.69.97,1.22,1.69,1.51.65.24,1.38.15,1.96-.23,1.27-.76,1.33-2.1.18-4.02l-1.72-2.87Z"/>
      <path class="cls-1" d="M275.02,164.33h-3.33l4.33-9.95h-6.02v-2.84h9.71v1.79l-4.68,11.01Z"/>
      <path class="cls-1" d="M290.62,159.76v2.52h-1.43v2.05h-2.88v-2.05h-7.17v-2.13l7.17-8.62h2.88v8.22h1.43ZM286.31,159.76v-4.59l-3.59,4.59h3.59Z"/>
      <g>
        <path class="cls-2" d="M71.48,232.69c.61.72,1.1,1.52,1.47,2.39.32.74.49,1.54.5,2.35,0,.76-.18,1.51-.51,2.19-.78,1.48-2.12,2.58-3.72,3.07-.74.21-1.51.25-2.27.12-.8-.15-1.57-.46-2.24-.91-.79-.52-1.49-1.15-2.08-1.89l-1.36-1.65-3.23,2.67-2.44-2.95,11.94-9.87c.62.67,1.26,1.39,1.93,2.13s1.34,1.53,2.02,2.35h0ZM65.36,238.05c.42.56,1.03.95,1.72,1.09,1.35.15,2.57-.82,2.72-2.17,0-.03,0-.06,0-.09-.02-.7-.29-1.37-.76-1.88-.25-.3-.51-.61-.76-.91-.26-.3-.52-.6-.78-.89l-3.65,3.02,1.51,1.83Z"/>
        <path class="cls-2" d="M72.82,250.63l-1.18-1.11-3.05,3.23-2.79-2.62,10.62-11.28c.3.26.63.56,1.01.89.38.33.77.68,1.18,1.05.41.36.82.74,1.23,1.12.41.38.82.75,1.2,1.12.68.62,1.26,1.33,1.73,2.12.4.66.67,1.4.77,2.17.09.73,0,1.46-.24,2.15-.29.76-.73,1.46-1.3,2.05-1.29,1.46-3.29,2.06-5.17,1.57l-1.01,6.43-3.36-2.96,1.02-5.28-.66-.63ZM75.65,248.85c.48.5,1.14.8,1.84.82.65,0,1.28-.27,1.71-.77.49-.44.73-1.1.63-1.75-.17-.7-.56-1.33-1.11-1.8-.26-.24-.53-.49-.82-.76s-.58-.53-.87-.8l-3.17,3.37,1.79,1.69Z"/>
        <path class="cls-2" d="M80.73,263.42l-3.03-2.37,9.54-12.2,3.03,2.37-9.54,12.2Z"/>
        <path class="cls-2" d="M96.9,255.41c1,.62,1.88,1.4,2.6,2.32.65.82,1.12,1.76,1.4,2.77.26.99.3,2.02.12,3.02-.21,1.1-.63,2.14-1.24,3.07-.59.97-1.37,1.81-2.29,2.47-1.66,1.2-3.76,1.64-5.77,1.19-1.07-.23-2.09-.66-3.01-1.25-.97-.62-1.89-1.23-2.76-1.82-.86-.59-1.64-1.14-2.33-1.63l8.31-13.07c.74.42,1.53.87,2.35,1.35.83.48,1.7,1.01,2.61,1.59h0ZM90.65,266.14c.45.29.95.48,1.48.56.52.08,1.06.05,1.57-.08.54-.15,1.05-.4,1.49-.75.5-.39.93-.87,1.26-1.41.35-.53.59-1.11.72-1.73.11-.55.11-1.11,0-1.66-.11-.53-.34-1.04-.67-1.48-.36-.48-.8-.88-1.3-1.2l-.88-.55c-.3-.19-.61-.37-.92-.53l-4.77,7.5c.32.24.65.47.99.69l1.02.65Z"/>
        <path class="cls-2" d="M112.3,270.66l-1.39,2.97-6.21-2.91-1.17,2.5,7.14,3.35-1.42,3.03-10.6-4.97,6.58-14.03,10.6,4.97-1.42,3.03-7.14-3.35-1.17,2.5,6.21,2.91Z"/>
        <path class="cls-2" d="M126.88,268.85c1.11.3,2.15.81,3.08,1.49.84.62,1.54,1.4,2.06,2.3.51.9.83,1.9.94,2.93.2,2.28-.46,4.55-1.83,6.37-.64.81-1.44,1.49-2.35,1.98-.92.48-1.93.77-2.97.85-2.31.14-4.6-.52-6.48-1.86-.84-.62-1.54-1.4-2.06-2.3-.51-.9-.83-1.9-.94-2.93-.2-2.28.45-4.55,1.83-6.37.64-.81,1.44-1.49,2.35-1.98.92-.48,1.93-.78,2.97-.85,1.15-.08,2.3.04,3.4.38h0ZM123.38,281c.58.17,1.18.23,1.78.17,1.14-.12,2.17-.71,2.84-1.64.38-.51.65-1.09.82-1.71.18-.61.25-1.24.21-1.87-.04-.57-.2-1.12-.47-1.63-.26-.49-.63-.92-1.07-1.26-.97-.72-2.17-1.07-3.37-.97-.56.05-1.1.23-1.58.51-.49.29-.92.67-1.26,1.13-.38.51-.65,1.08-.82,1.7-.18.61-.26,1.25-.21,1.88.08,1.14.64,2.19,1.54,2.9.47.37,1.02.64,1.6.8h0Z"/>
        <path class="cls-2" d="M144.48,279.65l-.54,3.44-6.44-1.01-.81,5.2-3.78-.59,2.39-15.3,11.23,1.76-.52,3.35-7.45-1.17-.52,3.31,6.44,1.01Z"/>
        <path class="cls-2" d="M153.43,289.05l-4.07-.26,6.73-15.33h3.58s6.81,15.38,6.81,15.38l-4.05.18-1.08-2.55-6.88.02-1.04,2.56ZM155.78,283.23h4.26s-2.16-5.18-2.16-5.18l-2.1,5.18Z"/>
        <path class="cls-2" d="M177.13,279.58c.94.05,1.84.4,2.57,1,.65.54,1.07,1.3,1.18,2.14.23,1.27-.2,2.56-1.13,3.44-1.16.99-2.6,1.59-4.12,1.7-.47.06-1.01.13-1.62.2-.61.07-1.23.14-1.87.2-.63.06-1.26.12-1.87.19s-1.16.11-1.65.15l-2.01-15.36c.46-.08.98-.16,1.55-.25l1.74-.27c.59-.09,1.18-.18,1.76-.26s1.12-.16,1.61-.22c1.42-.27,2.9-.08,4.21.54,1.05.58,1.74,1.64,1.84,2.83.12.82-.02,1.66-.41,2.39-.39.72-1.02,1.28-1.78,1.6h0ZM170.79,275.72l.44,3.39,2.69-.35c.56-.04,1.09-.29,1.49-.69.35-.37.5-.88.42-1.38-.14-1.07-1.02-1.5-2.63-1.29l-2.42.32ZM174.73,284.82c.67-.05,1.32-.29,1.85-.7.41-.36.59-.91.49-1.44-.04-.47-.33-.87-.75-1.07-.52-.23-1.1-.3-1.67-.2l-3.07.4.43,3.3,1.51-.15c.48-.05.88-.09,1.21-.14h0Z"/>
        <path class="cls-2" d="M196.83,275.89c.29,1.01.4,2.06.32,3.11-.08.91-.35,1.8-.79,2.6-.45.79-1.08,1.48-1.83,2-.84.59-1.78,1.02-2.78,1.28-.98.28-2,.39-3.02.31-1.85-.14-3.53-1.11-4.58-2.63-.6-.86-1.04-1.83-1.29-2.85l-2.24-8.2,3.74-1.02,2.24,8.2c.2.98.77,1.85,1.59,2.42.79.48,1.74.59,2.62.3.91-.2,1.68-.78,2.13-1.6.43-.91.49-1.95.16-2.9l-2.24-8.2,3.74-1.02,2.23,8.19Z"/>
        <path class="cls-2" d="M206.13,262.53c1.05-.53,2.17-.87,3.34-1.01,1.04-.12,2.09-.04,3.09.25.98.29,1.88.8,2.64,1.48.83.75,1.5,1.65,1.97,2.66.51,1.01.82,2.11.91,3.24.16,2.05-.57,4.06-2,5.54-.76.79-1.65,1.44-2.64,1.91-1.04.51-2.04.97-2.99,1.4-.96.43-1.83.81-2.61,1.14l-6.8-13.92c.74-.41,1.54-.85,2.38-1.3s1.75-.92,2.72-1.38h0ZM212.01,273.48c.97-.46,1.69-1.32,2-2.34.16-.54.2-1.1.14-1.66-.07-.63-.26-1.25-.54-1.81-.27-.57-.64-1.08-1.1-1.52-.41-.38-.89-.68-1.41-.87-.52-.18-1.06-.25-1.61-.2-.59.05-1.17.22-1.7.49l-.93.45c-.32.16-.63.33-.93.51l3.9,7.98c.37-.15.74-.31,1.11-.49l1.08-.54Z"/>
        <path class="cls-2" d="M232.36,265.22l-3.26-4.81-5.35,3.64,3.26,4.81-3.16,2.15-8.7-12.82,3.16-2.15,3.49,5.15,5.35-3.64-3.49-5.15,3.19-2.16,8.7,12.82-3.18,2.16Z"/>
        <path class="cls-2" d="M240.23,259.36l-3.16,2.59-5.29-16.2,2.66-2.39,15.54,6.98-2.89,2.89-2.71-1.28-5.11,4.6.97,2.82ZM238.06,253.23l3.17-2.85-5.05-2.41,1.88,5.26Z"/>
        <path class="cls-2" d="M251.44,236.57c.73-.59,1.63-.93,2.57-.98.84-.04,1.67.25,2.31.8,1.02.79,1.57,2.04,1.47,3.32-.2,1.51-.87,2.92-1.92,4.02-.31.36-.66.77-1.07,1.23-.4.46-.82.93-1.25,1.4-.43.47-.85.93-1.26,1.39-.41.46-.79.86-1.12,1.21l-11.78-10.06c.3-.37.62-.78.99-1.23s.73-.91,1.11-1.37c.38-.47.75-.92,1.13-1.37s.72-.87,1.05-1.25c.87-1.16,2.09-2,3.48-2.42,1.16-.28,2.39.05,3.26.86.64.52,1.1,1.24,1.29,2.05.19.8.1,1.64-.25,2.38h0ZM244.15,237.96l2.6,2.22,1.76-2.06c.39-.41.62-.95.65-1.51.01-.51-.22-.99-.61-1.3-.82-.7-1.76-.43-2.81.8l-1.58,1.85ZM253.17,242.06c.47-.49.78-1.1.9-1.76.06-.54-.17-1.07-.6-1.4-.34-.32-.83-.43-1.28-.3-.54.18-1.02.52-1.37.97l-2.01,2.36,2.53,2.16c.36-.39.7-.77,1.02-1.12s.59-.66.81-.91h0Z"/>
        <path class="cls-2" d="M263.49,233.49l-2.22,3.15-12.66-8.93,2.22-3.15,12.66,8.93Z"/>
      </g>
      <path class="cls-1" d="M29.51,164.47v-9.27l-2.9.7-.62-2.61,5.55-1.6h1.02v12.79h-3.05Z"/>
      <path class="cls-1" d="M39.59,151.39c.74,0,1.47.11,2.17.35.63.21,1.2.55,1.69,1,.47.43.84.96,1.09,1.55.26.63.4,1.31.39,1.99,0,.5-.09.99-.26,1.45-.17.45-.39.88-.66,1.28l-3.61,5.45h-3.5l2.39-3.56c-.7-.02-1.39-.15-2.05-.39-.58-.21-1.12-.53-1.59-.94-.45-.4-.8-.88-1.04-1.43-.25-.59-.38-1.23-.37-1.87,0-.68.12-1.36.39-1.99.25-.59.62-1.12,1.09-1.55.49-.44,1.07-.78,1.69-1,.7-.24,1.43-.35,2.17-.34h0ZM37.15,156.28c-.03.62.22,1.23.68,1.66,1.04.83,2.53.83,3.56,0,.45-.43.69-1.03.67-1.65.03-.64-.22-1.27-.69-1.71-.49-.44-1.12-.67-1.78-.64-.65-.03-1.29.2-1.77.64-.46.45-.71,1.07-.68,1.71h0Z"/>
      <path d="M233.54,212.09c23.16-32.39,23.16-75.93,0-108.32v108.32Z"/>
      <path d="M82.08,103.77c-23.16,32.39-23.16,75.93,0,108.32v-108.32Z"/>
      <path d="M172.93,249.8c10.67-1.74,20.95-5.34,30.37-10.63V76.69c-9.43-5.29-19.71-8.89-30.37-10.63v183.75Z"/>
      <path d="M112.32,239.18c9.42,5.29,19.7,8.89,30.37,10.63V66.06c-10.67,1.74-20.95,5.34-30.37,10.63v162.49Z"/>
      <path class="cls-1" d="M136.41,89.65h-17.34s-2.2,6.6-3.84,8.07-3.18,2.86-5.73,2.93c-1.48.05-3.23-.98-3.26-1.71s1.19-1.22,1.1-2.45c-.19-2.69-4.29-3.29-6.76-3-1.7.19-4.58,1.29-4.21,3.74s6.69,11.74,6.69,11.74h9.31v7.74l14.56,10.11.26,5.38h-5.63v26.82l5.71,8.87,34.4,58.96,5.02-2.45-6.93-13.38s2.77-1.89,3.85.31,8.59,16.52,9.18,17.63c1.01,1.94-2.01,3.66-3.01,1.86-.42-.75-.95-1.65-.95-1.65l-4.06,2.3s4.1,7.61,6.88,9.46c3,2,7.76,2.1,14.95-1.02,5.77-2.5,9.47-4.31,10.84-5,3.72-1.89,15.58-7.17,9.72-17.79-4.59-8.3-5.85-11.77-11.13-21.5-1.56-2.87-7.22-13.2-8.62-15.84-2.5-4.74.65-10.23,2.08-13.86,4.21-10.7-1.29-23.88-4.4-27.72-2.23-2.76-2.48-2.84-3.05-4.55s-.94-4.16,2.07-7.58,4.42-4.65,5.85-5.38,7.57-.25,9.98-.98,6.04-4.44,8.22-6.85c2.75-3.03,3.5-3.48,4.42-4.7s2.08-2.92.25-4.84c-.21-.18-.43-.33-.67-.46-1.07-.76-2.52-.63-3.45.29l-2.17,2.09c-.66-.55-1.27-1.16-1.82-1.82-.78-.98-1.84-2.13.49-4.57,1.51-1.59,2.96-3.05,3.78-3.87.45-.45,1.06-.7,1.7-.7h1.13c1.28,0,2.32-1.06,2.31-2.34,0-.06,0-.13,0-.19v-2.12h-38.06v2.32c.04,1.3,1.11,2.33,2.41,2.33h5.99c2.45,0,4.04,1.42,2.52,3.26-2.16,2.62-3.44,3.44-5.68,5.47-1.13,1.02-4.17,3.39-6.62,3.39s-12.49-.05-16.31-.05h-30.77c-3.33,0-5.89-1.3-6.04-4.48s-.29-7.58,3.38-7.58h11.49c3.18.02,4.2-4.63,0-4.63h0Z"/>
      <g>
        <path d="M142.62,106.38h30.39v5.61h-30.39v-5.61Z"/>
        <path d="M166.77,122.15h-17.9l-6.25-7.21h30.39l-6.25,7.21Z"/>
      </g>
      <path class="cls-1" d="M164.34,95.3c-.81,1.8-2.03,3.39-3.57,4.62-1.1-2.79-4.9-5.3-4.2-8.31-1.97,2.54-2.86,5.75-2.47,8.94-1.14-1.58-2.94-2.73-3.62-4.48-.4,2.82.15,5.69,1.55,8.16h-.02c-2.4-1.08-3.98-3.59-4.96-5.94-1.86-4.74-1.36-10.08,1.35-14.4,3.21-5.02,5.55-6.09,4.97-12.79,7.35,4.06-.7,14.12,3.74,14.89,4.47.77,2.37-8.14,2.23-10.03-.35-4.46.67-8.16,4.22-10.48-3.14,4.65.99,9.92,3.16,14.37,4.09,8.38,5.32,17.78-2.58,24.28.74-2.74,1.18-6.2.21-8.85h0Z"/>
      <path d="M161.19,192.28l5.74-67.57h-18.23l5.74,67.57h6.76Z"/>
      <path d="M155.04,200.51l.32,3.71h4.93l.32-3.71h-5.56Z"/>
      <path d="M163.43,196.39c0,1.07-.87,1.93-1.94,1.92h-7.34c-1.07,0-1.93-.86-1.94-1.92,0-1.07.87-1.93,1.94-1.92h7.34c1.07,0,1.94.85,1.94,1.92h0Z"/>
      <circle class="cls-2" cx="158.38" cy="157.91" r="26.93"/>
      <path d="M158.38,128.76c-16.1,0-29.15,13.05-29.15,29.15,0,16.1,13.05,29.15,29.15,29.15,16.1,0,29.15-13.05,29.15-29.15-.02-16.09-13.06-29.13-29.15-29.15h0ZM173.21,179.34l-.29-.31c-.17-.19-.21-.46-.09-.69l2.39-4.64c.15-.3.04-.66-.26-.81-.17-.09-.36-.09-.53-.01l-4.73,2.19c-.23.11-.5.06-.68-.12l-3.67-3.7c-.23-.24-.61-.24-.85,0-.13.13-.2.32-.18.5l.62,5.18c.03.25-.1.5-.33.61l-4.65,2.35c-.3.15-.42.51-.27.81.08.17.24.29.43.32l5.12,1.01c.25.05.44.25.48.5l.06.39c-4.85,1.44-10.02,1.43-14.86-.03l.06-.42c.04-.25.23-.45.48-.5l5.12-1.01c.33-.06.54-.38.48-.71-.04-.18-.15-.34-.32-.42l-4.66-2.35c-.23-.11-.36-.36-.33-.61l.62-5.18c.04-.33-.19-.63-.52-.67-.19-.02-.37.04-.5.18l-3.67,3.7c-.18.18-.45.23-.68.12l-4.73-2.19c-.3-.14-.66-.01-.8.29-.08.17-.08.37.01.53l2.39,4.64c.12.23.08.5-.09.69l-.28.3c-4.13-2.89-7.34-6.91-9.24-11.57l.36-.21c.22-.13.5-.1.69.06l3.98,3.37c.25.21.63.18.85-.07.12-.14.17-.33.13-.51l-1.07-5.11c-.05-.25.06-.5.27-.63l4.43-2.75c.28-.18.37-.55.19-.83-.1-.15-.26-.26-.44-.28l-5.19-.56c-.25-.03-.46-.21-.52-.46l-1.24-5.07c-.08-.32-.41-.52-.73-.44-.18.04-.33.17-.41.34l-2.13,4.76c-.1.23-.34.37-.59.35l-.44-.03c-.04-.57-.06-1.15-.06-1.73,0-4.46,1.14-8.84,3.33-12.73l.45.18c.24.09.39.32.38.58l-.15,5.22c0,.33.25.61.59.62.19,0,.36-.08.48-.22l3.32-4.02c.16-.19.43-.27.67-.18l4.91,1.75c.31.11.66-.05.77-.36.06-.18.04-.37-.06-.53l-2.8-4.4c-.14-.21-.12-.49.03-.69l3.19-4.13c.2-.26.15-.64-.11-.84-.15-.11-.34-.15-.51-.1l-5.05,1.3c-.25.06-.5-.03-.65-.24l-.29-.42c3.74-3.42,8.39-5.68,13.39-6.49l.14.45c.07.24-.01.51-.21.66l-4.17,3.14c-.27.2-.32.58-.12.84.11.15.29.24.47.24l5.22.09c.25,0,.48.17.56.41l1.69,4.93c.11.31.45.48.76.38.18-.06.31-.2.38-.38l1.69-4.93c.08-.24.31-.4.56-.41l5.22-.09c.33,0,.6-.28.59-.61,0-.19-.09-.36-.24-.47l-4.17-3.14c-.2-.15-.29-.42-.21-.66l.14-.46c5.02.8,9.69,3.06,13.45,6.49l-.27.4c-.14.21-.4.31-.65.24l-5.05-1.3c-.32-.08-.65.11-.73.44-.05.18,0,.37.1.51l3.19,4.13c.15.2.17.48.03.69l-2.8,4.4c-.18.28-.1.65.18.83.16.1.35.12.53.06l4.91-1.75c.24-.09.51-.01.67.18l3.32,4.02c.21.26.59.29.85.08.14-.12.22-.3.22-.48l-.15-5.21c0-.25.15-.48.38-.58l.43-.17c2.2,3.89,3.35,8.28,3.35,12.75,0,.56-.02,1.11-.06,1.66l-.44.03c-.25.02-.49-.12-.59-.35l-2.13-4.76c-.14-.3-.49-.44-.8-.3-.17.08-.29.23-.34.41l-1.24,5.07c-.06.25-.27.43-.52.46l-5.19.56c-.33.04-.57.33-.53.66.02.19.12.35.28.45l4.43,2.75c.21.13.32.39.27.63l-1.07,5.11c-.07.33.14.64.47.71.18.04.37-.01.51-.13l3.98-3.37c.19-.16.47-.19.69-.06l.38.22c-1.92,4.73-5.17,8.79-9.36,11.7h0Z"/>
      <path d="M169.77,160.06l-5.3-2.77c-.3-.15-.41-.52-.25-.81.01-.03.03-.05.05-.08l3.53-4.82c.2-.27.14-.65-.13-.84-.17-.13-.4-.15-.6-.06l-5.47,2.41c-.31.13-.66,0-.79-.31-.01-.03-.02-.06-.03-.09l-1.57-5.77c-.09-.32-.42-.51-.74-.42-.21.06-.37.22-.42.43l-1.52,5.78c-.09.32-.42.51-.74.42-.03,0-.06-.02-.08-.03l-5.49-2.37c-.31-.13-.66,0-.79.31-.09.2-.06.43.07.6l3.57,4.79c.2.27.14.65-.12.84-.02.02-.05.03-.08.05l-5.27,2.81c-.29.16-.41.52-.25.81.1.19.3.31.51.32l5.97.2c.33.01.59.29.58.63,0,.03,0,.06,0,.09l-1.09,5.88c-.06.33.15.64.48.7.21.04.43-.04.57-.2l3.88-4.54c.22-.25.6-.28.85-.07.02.02.04.04.06.06l3.92,4.51c.22.25.6.28.85.06.16-.14.24-.36.2-.57l-1.13-5.87c-.06-.33.15-.64.48-.71.03,0,.06,0,.09-.01l5.97-.25c.33-.02.59-.3.57-.63-.01-.21-.13-.4-.31-.5h0Z"/>
    </g>
  </g>
</svg>