<svg id="Layer_2" data-name="Layer 2" xmlns="http://www.w3.org/2000/svg" xmlns:xlink="http://www.w3.org/1999/xlink" viewBox="0 0 895 600"><defs><style>.cls-1{fill:none;}.cls-2{clip-path:url(#clip-path);}.cls-3{fill:#fff;}.cls-4{fill:red;}.cls-5{fill-rule:evenodd;}.cls-6{fill:#939598;}</style><clipPath id="clip-path"><path class="cls-1" d="M34.72,0H859.28A30.82,30.82,0,0,1,890,30.93V569.07A30.82,30.82,0,0,1,859.28,600H34.72A30.82,30.82,0,0,1,4,569.07V30.93A30.82,30.82,0,0,1,34.72,0Z"/></clipPath></defs><title>Albânia</title><g class="cls-2"><path class="cls-3" d="M0,14.33H0V583H0L390.86,293.65Z"/><rect class="cls-3" x="1" y="-0.05" width="133.04" height="598.67"/><path class="cls-4" d="M895,0H0V600H895Z"/><path class="cls-5" d="M471.67,453.38c-5.27-4.57-11.66-13.83-11.57-22.75.47-6.65,5-10.51,8-2.39,4.17,9,13.11,23.78,25.43,15.09,5.38-3.95,5.29-9.77-2.08-9.1-9.12-.62-14.71-5.64-18.79-18.55-.74-7.09,2.21-6.92,6.33-2.35,5.3,6.08,15.84,15.26,27.47,10.34,6.46-2.71,8.29-8.3-1.48-9.67-9.24.13-16.79-5.86-24.3-15-4.12-5.06,2-10.16,5.61-5.86,3.25,2.79,7.8,7.94,11.71,8.65,4.51.89,10.11.45,16.31-2.83,6.68-5.6,4.51-9.64-3.6-10.56-6.29.31-9.72,2.7-17.83-2.71-14.58-9.86-26.18-23-28-38.87-1.19-10.42,4.42-13.58,9.07-12.38,12.67,3.26,21,26.94,29.72,39.94,2.87,3.75,5.51,3.81,7.38,2.65,3.51-3,6.32-5.49,9.84-8.86,0,0,25.78,4.64,39.83,9.21l-15.64,5.56c-5.92-3.27-13.07.26-13.07,5.93-5.6,3.87-5.15,8.41-2.73,12.8.74-3.06,1.37-7,5.79-7.55,6.32,2.62,13.68-1.11,13.68-6.05l18.44-7.25,18.64,10.55c0,7.14,6.75,9.39,13.78,7.47,3.32,2.06,5.45,5.63,6.57,9.44,2.07-5.5,1.64-9.39-1.61-12.09,1.87-7.12-8.11-14-15.83-9.4l-13.4-7.7,22.94-.64c2.67,4.71,12.29,5,15.1,0,2.4-.66,4.43-1.08,9.11,2.4-1.48-5.63-4.35-8-8.65-8-3.27-5.8-15.11-5.77-16.82.75l-23.9.67,14.18-10.1c5.3,3.13,12.72-.35,14.21-6,2.11-2.51,4.71-3.69,9.83-2-2.64-4.67-6.36-6.07-13.07-2.9-6.13-4.64-14.21,1-13,5.67l-18.87,12.83c-13.69-4.08-38.49-10.45-38.49-10.45,3-3.1,5.94-6,8.89-9.14,1.07-1.84-.56-4-2.82-4.44-22.13-4.56-34.8-13.48-42.47-36.16-3.22-9.49,3.73-12.33,6.11-6.52,3.3,8.08,6.94,16.91,16.88,23.74,3.43,2.4,13.63.44,7.59-5.28-6.25-5.15-8.94-7.36-12-19.88,0-6.34,6.46-9.18,10.06-3.1,3.86,12.46,4.26,17.83,11.24,25.86,5.29,6.08,12.19,10.17,15.62,10.08,6.16-.09,12.37-6.75,4.12-11.59C539,320,534.6,313.41,532.82,307.1c-2-11,.18-16.32,6.81-10.91,9.41,10.69,27.38,30.62,36.79,39.89,10.55,8.08,22.65,8.34,32.28.14,5.52-6.35,3.56-13.18-5.07-11.72-19.48,1.64-34.23-8-50.42-34.17-3.17-5.9-4-14.37,3-8.07,8.06,10.92,19.82,20.19,30.76,24.18s20,1.77,23.55-1.68c4.24-4.24,3.13-14.91-4.21-12.34a34.22,34.22,0,0,1-23.38-.75c-8.85-3.47-18-10.92-27.81-23.56-3.35-7.14-2.26-13.18,4.51-9.5,16,13.58,36.66,24.58,47.2,18,7.77-4.83,7.9-17.26-1.94-16.46-19.84,2.7-27.34-1.69-46.39-18.5-4.33-3.24-4-11.45,2.86-6.21,16,10.34,37.88,14.37,46.47,9,7.73-4.84,6.6-19.61-6.42-14.38-10.41,6.35-21.91,6.17-45-10.29-5.81-4.84-1.47-11.14,3.3-8.43,18.53,10.56,45.51,15.08,52.54-6.39,2.73-8.21-2.21-13-9.46-7.32-15.92,14.73-34,7.5-44.08.08-2.89-1.7-8.2-10.33,1.13-8.73,24.12,5.5,48,.71,52.33-16.38,2.51-5.54-2.44-15.35-11.24-7.14-11.59,11.45-23.87,11.84-39.31,11.76-7.86-1.64-7.94-10.3-1.35-11.58,12.2.26,24.21-5.06,33.85-10.48,9.41-5.41,17.22-13,19.7-23.51,1.51-9.41-7.55-19.39-13-9.41-8.07,14.6-25.95,28.36-45.82,30.84-1-1.73-3.64-6.17-6.85-4.92-5.84,2.26-12.79,5.29-19.95,8.69-15.43,7.33-21.87,10.86-20,23.52,1.93,13.21-8.25,21.56-16.66,19.25-7.34-2-11.39-8.6-10.07-20.1,1.05-9.15,10.24-20.23,20.61-26,6.7-3.76,16.83-5.81,29-8.52,7.42-1.46,11.2-4.35,11.63-7.37a21.26,21.26,0,0,1-13.19,3.16c-3.83-.28-6.41-2-7.37-3.69,2.82-.57,7.94.09,12.53.09,6.12-.05,20.32-1.42,24.09-10,1.17-5.68-2.56-6.7-6-3.06-3.73,3.93-5.26,7.47-12.75,8.79-4.56.8-9.11,1.73-15,.31,3.3-3.92,8.54-7.93,13-7.19,1.47.24,3.42,1.6,5,4,1-6.21-.74-13.23-17.36-10.3.26-4.7-9.63-6.74-15.57-6.65-3.39.09-10.29,2.09-15.27,4.48a107.86,107.86,0,0,1-24.91,4.88c5.34,4.57,6.34,4.84,11.67,8.7a38.77,38.77,0,0,0-17.14,13.31s9.42-.26,11.81.8c-9.86,2.88-14.28,4.61-19.49,9.93a44.42,44.42,0,0,1,5.73,1.29c1.22.45.9,1.25-.09,2-2.12,1.62-10.89,11.8-13.45,14.24-2.56-2.44-11.33-12.62-13.45-14.24-1-.75-1.3-1.55-.08-2a43.85,43.85,0,0,1,5.72-1.29c-5.2-5.32-9.63-7.05-19.48-9.93,2.38-1.06,11.8-.8,11.8-.8a38.77,38.77,0,0,0-17.14-13.31c5.34-3.86,6.34-4.13,11.67-8.7a107.66,107.66,0,0,1-24.9-4.88c-5-2.39-11.89-4.39-15.27-4.48-5.95-.09-15.84,2-15.58,6.65-16.61-2.93-18.31,4.09-17.36,10.3,1.57-2.44,3.53-3.8,5-4,4.47-.74,9.71,3.27,13,7.19-5.86,1.42-10.41.49-15-.31-7.48-1.32-9-4.86-12.75-8.79-3.47-3.64-7.21-2.62-6,3.06,3.76,8.61,18,10,24.08,10,4.6,0,9.71-.66,12.54-.09-1,1.72-3.54,3.41-7.38,3.69a21.26,21.26,0,0,1-13.19-3.16c.43,3,4.21,5.91,11.63,7.37,12.19,2.71,22.32,4.76,29,8.52,10.36,5.81,19.55,16.89,20.61,26,1.31,11.5-2.74,18.13-10.07,20.1-8.41,2.31-18.6-6-16.67-19.25,1.86-12.66-4.57-16.19-20-23.52-7.15-3.4-14.11-6.43-19.94-8.69-3.21-1.25-5.82,3.19-6.86,4.92-19.87-2.48-37.75-16.24-45.82-30.84-5.46-10-14.53,0-13,9.41,2.47,10.52,10.28,18.1,19.7,23.51,9.63,5.42,21.65,10.74,33.84,10.48,6.59,1.28,6.51,9.94-1.35,11.58-15.44.08-27.72-.31-39.3-11.76-8.81-8.21-13.76,1.6-11.24,7.14,4.34,17.09,28.2,21.88,52.32,16.38,9.33-1.61,4,7,1.13,8.74-10.11,7.41-28.16,14.64-44.08-.09-7.25-5.68-12.19-.89-9.46,7.32,7,21.47,34,17,52.55,6.39,4.77-2.71,9.1,3.59,3.29,8.43-23,16.46-34.53,16.64-45,10.29-13-5.23-14.15,9.54-6.42,14.38,8.59,5.41,30.46,1.38,46.47-9,6.9-5.24,7.2,3,2.86,6.21-19.05,16.81-26.55,21.2-46.38,18.5-9.85-.8-9.72,11.62-1.95,16.46,10.54,6.61,31.19-4.39,47.2-18,6.77-3.68,7.86,2.36,4.51,9.5-9.76,12.64-19,20.09-27.81,23.56a34.22,34.22,0,0,1-23.38.75c-7.33-2.57-8.45,8.1-4.21,12.34,3.52,3.45,12.58,5.63,23.56,1.68s22.69-13.26,30.76-24.18c7-6.3,6.12,2.17,2.95,8.07-16.18,26.14-30.93,35.81-50.41,34.17-8.64-1.46-10.59,5.37-5.08,11.72,9.63,8.2,21.73,7.94,32.28-.14,9.41-9.27,27.38-29.2,36.79-39.89,6.63-5.41,8.76-.08,6.81,10.91-1.78,6.31-6.2,12.92-18.31,17.75-8.24,4.84-2,11.5,4.13,11.58,3.42.1,10.32-4,15.61-10.07,7-8,7.38-13.4,11.24-25.86,3.6-6.08,10.07-3.24,10.07,3.1-3.08,12.52-5.77,14.73-12,19.88-6,5.72,4.17,7.68,7.59,5.28,9.94-6.83,13.58-15.66,16.88-23.74,2.39-5.81,9.33-3,6.12,6.52-7.68,22.68-20.35,31.6-42.48,36.16-2.26.45-3.88,2.6-2.82,4.44,3,3.15,5.94,6,8.9,9.14,0,0-24.8,6.37-38.5,10.45L312.63,358.9c1.22-4.68-6.86-10.31-13-5.67-6.72-3.17-10.44-1.77-13.08,2.9,5.12-1.7,7.72-.52,9.83,2,1.49,5.67,8.92,9.15,14.21,6l14.18,10.1-23.9-.67c-1.71-6.52-13.55-6.55-16.82-.75-4.3,0-7.17,2.4-8.65,8,4.68-3.48,6.71-3.06,9.11-2.4,2.81,5,12.44,4.71,15.1,0l22.94.64-13.4,7.7c-7.72-4.56-17.69,2.28-15.83,9.4-3.25,2.7-3.68,6.59-1.61,12.09,1.12-3.81,3.26-7.38,6.57-9.44,7,1.92,13.79-.33,13.79-7.47l18.63-10.55,18.45,7.25c0,4.94,7.35,8.67,13.67,6.05,4.43.53,5.05,4.49,5.79,7.55,2.42-4.39,2.87-8.93-2.73-12.8,0-5.67-7.15-9.2-13.07-5.93l-15.63-5.56c14-4.57,39.83-9.21,39.83-9.21,3.51,3.37,6.32,5.85,9.84,8.87,1.86,1.15,4.5,1.09,7.37-2.66,8.76-13,17.05-36.68,29.72-39.94,4.66-1.2,10.26,2,9.07,12.38-1.81,15.84-13.41,29-28,38.87-8.11,5.41-11.54,3-17.83,2.71-8.11.92-10.28,5-3.6,10.56,6.2,3.28,11.8,3.72,16.31,2.83,3.91-.71,8.46-5.86,11.72-8.65,3.64-4.3,9.72.8,5.6,5.86-7.51,9.14-15.06,15.13-24.3,15-9.76,1.37-7.94,7-1.48,9.67,11.63,4.92,22.17-4.26,27.47-10.34,4.12-4.57,7.07-4.74,6.33,2.35-4.08,12.91-9.67,17.93-18.78,18.55-7.38-.67-7.47,5.15-2.08,9.1,12.31,8.69,21.25-6.13,25.42-15.09,2.95-8.12,7.51-4.26,8,2.39.09,8.92-6.3,18.18-11.57,22.75S449,487,449,487s28-29.06,22.72-33.63Zm37.51-329.09c-4.35,0-7,1.52-7,3.38s2.69,3.41,7,3.41,7.09-1.67,7.09-3.56-2.76-3.23-7.09-3.23Zm-120.46,0c4.35,0,7,1.52,7,3.38s-2.7,3.41-7,3.41-7.08-1.67-7.08-3.56,2.75-3.23,7.08-3.23Z"/></g><g id="Layer_1" data-name="Layer 1"><path class="cls-6" d="M863.1,6A25,25,0,0,1,888,30.9V569a24.9,24.9,0,0,1-24.9,24.9H32.9A24.82,24.82,0,0,1,8,569.1V30.9A25,25,0,0,1,32.9,6H863.1m0-6H32.9A30.86,30.86,0,0,0,2,30.9H2V569a30.88,30.88,0,0,0,30.9,31H863a30.86,30.86,0,0,0,30.9-30.9V30.9A30.71,30.71,0,0,0,863.1,0Z"/></g></svg>