<?xml version="1.0" encoding="utf-8" ?><svg xmlns="http://www.w3.org/2000/svg" xmlns:xlink="http://www.w3.org/1999/xlink" width="400" height="400" viewBox="0 0 400 400"><path fill="#34358E" transform="scale(0.8 0.8)" d="M49.82 7.96815C66.1462 8.23137 83.3361 7.96944 99.7316 7.96959L199.451 7.97052L449.167 7.92233C448.913 11.7518 449.085 17.4364 449.086 21.4522L449.086 46.1603L449.088 123.532L449.09 363.436L449.09 439.403L449.102 460.305C449.123 471.174 450.223 475.914 442.332 484.65C438.43 488.264 432.701 491.587 427.342 491.842C420.366 492.173 412.977 492.036 405.964 492.034L367.162 492.024L244.26 492.025L128.067 492.032L91.4077 492.039C84.6286 492.039 77.5389 492.193 70.7917 491.789C66.3556 491.383 61.5106 488.818 58.1644 485.965C49.3348 478.434 49.9259 470.681 49.9391 460.349L49.956 440.386L49.9562 367.679L49.9528 123.581L49.9605 46.186L49.9638 21.5139C49.9633 17.8699 50.1399 11.8135 49.8496 8.3065L49.82 7.96815Z"/><path fill="#FEFEFE" transform="scale(0.8 0.8)" d="M129.885 74.0838C131.39 73.871 137.054 73.9636 138.764 73.964L156.246 73.9752L216.077 73.9856L317.704 73.9824L349.986 73.9701C355.586 73.9644 362.981 73.7554 368.471 74.0766C371.562 74.2441 374.546 75.2678 377.089 77.0335C385.406 82.6975 384.365 90.8969 384.325 99.6569L384.314 118.062L384.315 190.247L384.317 337.277L384.325 384.705C384.328 392.975 384.422 401.265 384.261 409.53C384.088 418.396 377.996 424.483 369.537 425.953C365.086 426.353 359.708 426.225 355.179 426.225L332.971 426.218L261.397 426.217L174.861 426.217L147.119 426.232C141.779 426.235 136.389 426.319 131.051 426.102C127.59 426.012 124.657 425.065 121.803 423.155C113.465 417.576 114.455 409.699 114.463 400.925L114.482 379.769L114.478 304.391L114.481 161.181L114.469 114.65C114.464 106.562 114.373 98.4206 114.519 90.3345C114.68 81.3903 121.21 75.2007 129.885 74.0838Z"/><path fill="#282727" transform="scale(0.8 0.8)" d="M314.732 137.306C322.751 136.536 330.751 145.004 332.866 152.119C333.854 155.443 334.09 158.567 334.359 161.988C335.228 162.704 335.291 161.833 336.403 162.567C336.81 165.582 336.357 170.948 336.534 174.268C336.641 177.811 337.634 181.554 337.675 185.071C337.803 195.924 337.74 206.814 337.745 217.668L337.754 236.349C337.753 239.502 337.616 244.404 337.932 247.387C338.519 247.949 338.162 247.74 339.139 247.831C339.547 247.632 340.102 247.495 340.162 246.871C341.038 237.73 337.647 225.269 344.011 217.749C346.474 214.838 349.488 214.354 352.172 217.06C357.108 222.035 356.255 229.339 356.233 235.767L356.2 247.746L360.799 247.723C362.891 242.493 365.141 239.431 370.757 237.783C379.54 241.62 380.703 249.856 380.785 258.518C380.819 262.127 380.94 265.783 380.945 269.415L380.951 293.365L380.966 311.222C380.998 317.749 381.148 321.613 379.834 328.131C377.752 338.468 376.128 349.08 374.121 359.432C369.529 359.792 364.783 360.358 360.13 360.741C362.631 361.532 365.33 362.124 365.612 365.264C365.883 368.274 363.983 370.956 361.104 371.912C353.009 374.601 343.55 373.873 335.544 376.277C333.704 376.829 327.89 384.027 326.46 385.802L326.579 385.978C327.517 387.393 327.746 387.6 328.943 388.715C336.955 385.113 337.652 383.45 345.904 389.217C350.23 387.718 354.79 383.828 359.588 384.666C363.112 385.282 367.146 388.947 369.038 391.904C369.672 392.894 370.295 394.013 369.99 395.225C369.304 397.95 363.667 402.042 361.243 403.388C352.863 408.042 348.595 401.98 341.219 399.934C331.329 397.191 324.514 405.904 315.828 408.519C309.188 410.519 301.554 408.86 295.007 411.526C292.4 412.588 290.125 414.502 287.664 415.871C285.639 416.999 283.369 417.801 281.032 417.848C277.339 417.921 274.114 415.55 270.399 415.314C264.327 414.927 257.394 417.01 251.515 415.221C248.965 414.445 246.913 412.747 245.745 410.343C245.095 409.005 244.838 407.456 245.393 406.038C246.445 403.353 249.483 401.753 252.027 400.732C256.715 398.851 261.661 398.185 266.447 400.091C268.219 400.797 269.892 401.733 271.658 402.446C278.607 405.253 298.421 395.803 305.899 393.574C308.036 392.937 310.664 393.961 312.668 392.964C313.513 392.544 314.409 391.155 314.612 390.257C314.709 389.828 314.746 389.57 314.463 389.228C313.777 388.399 312.646 388.164 311.638 387.949C303.737 386.263 300.352 394.32 294.09 393.592C292.579 393.416 291.402 392.546 290.522 391.338C288.594 388.691 286.86 383.631 287.435 380.4C289.444 369.126 312.308 374.798 319.979 372.061C322.913 371.014 324.907 367.972 327.102 365.891C328.091 364.954 329.207 364.211 330.338 363.46C325.663 364.471 319.403 364.895 314.541 365.372L290.324 367.773L204.034 376.396C205.615 377.582 208.085 379.441 210.193 379.845C216.857 381.083 224.995 378.12 231.262 381.367C232.602 382.061 234.523 387.204 233.076 388.94C230.396 390.161 224.826 386.945 221.507 389.655L221.562 389.963C225.048 391.664 230.697 389.395 233.33 393.431C233.663 393.941 233.428 394.257 233.207 394.697C231.514 395.948 225.46 396.423 222.972 396.813C220.265 395.555 217.288 392.542 214.912 392.362C211.514 392.105 208.365 394.255 204.421 394.38C194.606 394.692 184.841 393.466 175.128 393.434C179.492 399.235 184.11 398.588 190.703 398.96C198.083 399.357 205.467 399.691 212.853 399.962C217.336 400.114 221.93 400.117 226.382 400.582C228.073 400.759 231.232 401.265 231.358 403.256C229.547 407.777 217.824 411.471 213.464 412.346C211.581 412.726 209.675 412.987 207.758 413.126C200.213 413.666 192.362 413.266 184.776 414.089C183.104 414.27 180.739 414.367 179.093 414.099C177.214 413.794 176.626 410.369 175.5 409.106C172.507 404.91 167.639 405.192 163.063 404.639C157.362 403.668 156.992 405.834 155.054 410.576C152.73 416.261 146.282 412.908 142.298 410.931C137.754 408.676 124.205 401.804 125.891 395.682C127.709 389.08 138.876 385.381 144.237 382.411C141.723 382.445 137.707 382.98 135.089 383.242C130.15 383.712 125.215 384.223 120.285 384.775L120.247 350.588C123.49 347.697 126.956 344.048 129.851 341.44C132.646 338.922 138.848 336.62 142.47 333.664C144.942 332.215 151.207 324.494 153.523 324.027C164.153 321.881 176.482 328.581 187.464 328.141C191.489 327.98 192.685 327.696 196.035 326.863C189.169 324.95 180.807 326.089 173.849 324.597C168.526 323.455 161.657 319.645 156.496 317.454C150.152 314.762 143.745 312.048 137.458 309.26C144.918 315.902 149.539 324.095 135.141 321.405C128.278 320.122 128.508 321.074 127.051 313.713C126.218 309.279 125.438 307.751 129.976 305.928C126.426 304.137 119.536 300.482 117.865 296.774C115.314 291.114 127.128 288.348 130.762 289.861C131.997 291.141 131.891 293.15 132.066 295.004C133.773 296.735 135.635 297.869 137.676 299.159C137.337 291.563 137.83 283.116 137.6 275.442C137.562 273.668 138.581 271.549 138.33 269.821C138.018 267.67 136.97 265.757 135.75 263.999C133.245 265.193 130.947 267.767 128.109 267.698C123.995 267.599 124.149 262.632 124.401 259.678C124.779 255.234 127.157 251.993 130.515 249.279C140.386 248.648 144.854 254.457 147.988 243.659C148.76 240.999 159.115 239.595 161.957 238.347C164.758 237.117 170.969 235.74 174.282 235.243C181.06 233.863 189.035 234.06 195.627 232.386L196.004 232.288C196.477 231.102 196.677 229.974 196.952 228.729C192.472 228.199 187.994 228.014 184.788 224.279C182.264 221.34 182.685 214.684 186.143 212.825C192.668 209.316 202.914 212.259 209.871 213.174C214.333 213.762 218.586 214.081 222.968 214.817C218.995 228.238 215.317 221.606 209.098 226.715C206.567 228.794 205.938 241.582 200.713 245.729C194.21 250.892 186.026 249.788 178.279 251.324C169.676 253.03 158.616 256.233 152.048 262.114C150.523 263.622 149.165 265.705 149.301 267.927C149.564 272.253 151.081 271.752 154.474 271.735C154.673 282.696 154.496 294.248 154.498 305.253C159.554 303.812 162.415 301.668 167.188 299.659C166.869 291.232 167.074 281.792 167.097 273.283C164.612 271.601 157.147 266.715 156.499 264.161C156.955 262.071 160.551 261.448 162.321 260.927C171.486 258.232 180.747 258.109 190.092 256.976C193.014 256.321 195.804 253.514 198.294 252.294C206.497 248.272 214.186 244.859 221.386 239.078C229.184 233.113 233.188 224.329 234.328 214.736C234.841 210.426 233.509 210.429 230.129 210.692C227.54 210.894 222.529 206.634 220.759 204.923L220.515 204.685C216.612 206.13 213.189 207.145 210.007 209.948C207.136 212.476 204.11 209.307 201.71 207.515C198.352 205.007 194.777 202.489 192.032 199.274C192.31 197.689 193.087 195.296 191.74 194.156C190.084 194.256 187.21 198.546 185.421 199.763C168.559 211.239 179.354 191.731 177.479 188.537C174.85 186.396 169.188 189.078 166.981 190.987L167.038 191.272C168.211 197.297 167.241 200.407 164.351 205.644C163.387 207.392 160.528 214.027 158.182 213.754C153.351 213.192 151.563 205.512 147.246 202.726C143.411 200.25 138.758 203.339 135.055 201.455C133.353 198.856 139.262 188.273 141.859 186.652C147.844 182.918 153.187 184.368 159.322 182.44C166.739 180.108 171.268 171.986 179.269 171.403C181.994 171.272 183.769 176.346 186.128 176.877C191.505 178.086 198.126 178.384 203.656 179.061C204.587 177.915 205.005 176.94 206.544 176.887C207.064 177.334 207.315 177.508 207.39 178.371C207.847 183.622 205.189 186.433 202.424 190.26C204.154 192.29 206.25 194.55 208.529 195.944C210.143 195.455 212.637 194.09 214.091 193.176C219.153 189.989 223.443 189.855 229.183 191.607C234.018 193.083 245.934 196.633 248.303 201.053C250.538 205.222 243.879 212.376 242.784 215.975C241.502 220.211 244.21 223.276 246.192 226.576C247.567 228.867 249.325 238.553 246.332 239.763C244.645 239.613 242.051 236.104 240.779 234.685C240.589 239.572 238.881 241.202 236.092 244.777C231.578 250.56 228.263 252.475 221.838 255.55C221.891 255.575 221.944 255.6 221.997 255.625C224.984 258.446 234.638 254.544 236.557 257.624C236.428 261.01 228.787 262.787 226.136 263.421C225.316 263.617 223.737 264.543 222.927 264.963C219.808 262.27 219.858 259.606 216.964 257.452C215.136 256.092 212.294 255.825 209.876 254.501L209.554 254.322C206.328 257.723 203.314 262.915 202.992 267.795C202.884 269.431 203.989 273.168 203.323 274.611C196.972 275.437 188.033 264.321 183.018 265.738C181.44 267.003 180.977 268.801 180.2 270.717C180.558 271.224 181.043 271.87 181.076 272.489C181.323 277.224 181.216 282.434 181.214 287.147L181.225 319.814C192.42 320.849 189.881 314.941 193.796 313.787C200.497 313.246 207.343 318.638 212.827 320.316C215.223 321.05 225.559 317.262 228.074 316.467C236.317 313.833 244.574 311.241 252.843 308.692C252.404 293.287 252.819 276.577 252.955 261.091C252.997 256.347 254.979 246.476 257.766 242.892C263.582 235.411 268.547 237.144 272.873 244.92C273.515 246.057 274.109 248.122 275.437 247.784C276.047 246.496 275.785 244.099 275.852 242.609C276.173 235.403 274.738 227.255 277.913 220.547C279.402 217.403 282.973 213.823 286.575 215.997C289.991 218.059 291.149 222.19 292.166 225.767C292.404 221.635 292.186 215.42 292.183 211.129L292.215 179.731L295.068 179.708C294.944 173.596 294.66 168.14 295.815 162.089C298.101 150.107 301.862 140.816 314.732 137.306Z"/><path fill="#FEFEFE" transform="scale(0.8 0.8)" d="M322.792 184.034L333.517 184.02C334.019 198.392 333.291 213.713 333.557 228.149C333.659 233.677 333.237 241.142 333.723 246.476L297.915 246.454C297.938 242.403 297.936 238.352 297.911 234.301C297.906 232.439 297.108 226.294 299.838 226.406C301.248 228.064 299.536 241.849 300.578 243.929C301.39 244.222 302.685 244.065 303.593 244.024C303.651 240.344 303.598 236.533 303.596 232.842C303.629 229.884 303.771 226.359 303.486 223.455C305.58 222.358 313.236 217.079 315.332 215.574C319.295 212.73 327.879 207.546 331.016 204.58L297.728 204.484C297.844 196.708 300.061 193.496 307.583 191.819C307.401 195.082 307.581 197.83 309.762 200.469C313.038 204.432 319.297 204.41 322.907 200.936C324.665 199.251 325.666 196.925 325.68 194.49C325.696 191.111 324.163 189.066 321.948 186.817C322.503 185.646 322.528 185.333 322.792 184.034Z"/><path fill="#282727" transform="scale(0.8 0.8)" d="M307.808 222.807L311.25 222.782L311.274 242.522L307.8 242.602C307.659 236.547 307.653 228.818 307.808 222.807Z"/><path fill="#282727" transform="scale(0.8 0.8)" d="M328.05 222.766L331.449 222.805C331.411 229.399 331.421 235.993 331.479 242.587L328.017 242.531L328.05 222.766Z"/><path fill="#282727" transform="scale(0.8 0.8)" d="M314.544 222.763L317.906 222.77C317.735 229.341 317.768 235.916 318.007 242.484L314.497 242.668L314.544 222.763Z"/><path fill="#282727" transform="scale(0.8 0.8)" d="M321.36 222.759L324.585 222.763C324.587 229.093 324.415 236.299 324.699 242.551L321.277 242.6C321.448 236.137 321.348 229.254 321.36 222.759Z"/><path fill="#FEFEFE" transform="scale(0.8 0.8)" d="M356.016 273.39C356.013 270.513 355.68 253.483 356.418 252.161L356.952 252.109L357.469 252.571C357.99 253.643 357.74 256.273 357.737 257.575L357.703 267.75C357.643 279.427 357.396 292.013 357.733 303.645C356.679 303.638 355.533 303.684 354.471 303.704C354.093 292.12 346.452 288.441 345.053 301.515C344.455 299.64 343.698 296.003 342.378 294.652C336.86 289.008 335.386 300.537 335.22 303.633C334.12 303.604 332.91 303.637 331.8 303.642C331.726 298.082 331.885 292.453 331.728 286.899L332.542 286.9C335.744 286.942 338.946 286.915 342.147 286.819C342.27 282.518 342.125 277.804 342.074 273.473C343.571 273.385 345.105 273.419 346.607 273.425C347.185 279.33 347.764 279.737 344.449 285.151C353.372 286.689 347.219 289.08 346.905 291.184C348.957 292.798 352.683 288.878 354.087 287.8C360.475 282.892 344.712 273.258 356.016 273.39Z"/><path fill="#FEFEFE" transform="scale(0.8 0.8)" d="M276.185 273.332C277.724 273.345 279.812 273.218 281.176 273.71C283.001 276.036 280.509 278.843 279.34 281.062C276.341 286.757 281.054 290.337 286.197 291.46C286.374 291.498 286.57 291.429 286.746 291.38C286.462 288.675 280.349 286.911 289.304 285.096C286.367 279.867 286.408 279.487 287.25 273.486C288.587 273.426 289.615 273.377 290.966 273.452C290.776 277.935 290.828 282.375 290.849 286.859C292.969 286.911 298.698 287.051 300.608 286.814C301.06 287.078 300.943 286.92 301.086 287.159C300.865 292.1 300.964 298.626 301.086 303.573L297.962 303.683C297.811 301.255 297.135 291.411 292.072 293.625C289.908 294.571 288.827 299.099 288.199 301.423C287.875 299.027 286.587 290.823 282.012 293.971C279.483 295.712 279.017 300.617 278.761 303.57L275.486 303.63C275.497 294.187 275.824 282.74 275.446 273.476L276.185 273.332Z"/><path fill="#FEFEFE" transform="scale(0.8 0.8)" d="M314.97 258.763C320.364 257.868 325.458 261.53 326.327 266.928C327.197 272.327 323.51 277.403 318.107 278.246C312.741 279.084 307.707 275.428 306.844 270.066C305.98 264.704 309.612 259.652 314.97 258.763Z"/><path fill="#FEFEFE" transform="scale(0.8 0.8)" d="M319.782 142.683C327.711 147.115 330.007 153.559 330.246 162.237C326.964 162.344 323.399 162.287 320.094 162.293C316.515 162.298 312.936 162.269 309.357 162.205C312.053 152.656 319.451 153.068 319.782 142.683Z"/><path fill="#FEFEFE" transform="scale(0.8 0.8)" d="M305.459 277.582C305.745 277.743 305.826 277.76 306.045 277.983C312.633 284.661 321.039 284.289 327.507 277.595C327.041 282.912 327.36 292.87 327.46 298.427C326.551 296.679 325.885 295.519 324.818 293.867C322.456 291.012 321.138 289.751 317.907 287.98C317.264 288.112 316.628 288.274 316.001 288.468C310.667 290.159 307.792 295.82 305.466 300.332C305.523 292.749 305.521 285.165 305.459 277.582Z"/><path fill="#FEFEFE" transform="scale(0.8 0.8)" d="M141.79 276.088C144.565 275.986 147.477 276.039 150.264 276.045L150.251 305.375C147.111 304.453 144.492 303.983 141.863 302.03C141.417 294.748 141.774 283.706 141.79 276.088Z"/><path fill="#FEFEFE" transform="scale(0.8 0.8)" d="M171.312 275.708L176.983 275.724C176.813 289.499 176.715 304.958 177.002 318.687C176.108 318.383 172.304 316.102 171.264 315.506C171.512 302.444 171.309 288.82 171.312 275.708Z"/><path fill="#FEFEFE" transform="scale(0.8 0.8)" d="M163.907 380.396C164.738 380.33 165.666 380.169 166.421 380.445C166.485 382.464 165.632 388.839 165.257 391.024C160.328 393.616 150.581 394.457 144.96 394.399C144.122 394.311 144 394.278 143.229 394.057C139.863 390.286 155.1 382.61 157.73 381.08C158.337 380.726 163.012 380.458 163.907 380.396Z"/><path fill="#FEFEFE" transform="scale(0.8 0.8)" d="M191.562 377.621C192.58 377.47 199.092 385.803 199.926 386.993C195.513 387.638 188.506 387.027 183.875 386.714C181.779 386.515 179.381 386.365 177.367 385.853C175.806 383.826 175.338 381.737 174.557 379.316C179.792 378.989 186.245 378.144 191.562 377.621Z"/><path fill="#FEFEFE" transform="scale(0.8 0.8)" d="M318.292 166.525L332.437 166.544C332.253 170.555 332.6 175.37 332.316 179.118C327.929 179.172 323.306 179.241 318.94 179.09C319.048 174.592 318.934 170.968 318.292 166.525Z"/><path fill="#FEFEFE" transform="scale(0.8 0.8)" d="M280.081 252.234C282.651 252.154 285.179 252.196 287.747 252.224L287.71 269.03C285.215 269.056 282.72 269.058 280.224 269.037C279.893 264.745 280.093 256.784 280.081 252.234Z"/><path fill="#FEFEFE" transform="scale(0.8 0.8)" d="M344.388 252.192C346.936 252.163 349.484 252.179 352.032 252.238L351.999 269.003C349.53 269.083 346.916 269.057 344.434 269.074C344.287 263.635 344.381 257.659 344.388 252.192Z"/><path fill="#FEFEFE" transform="scale(0.8 0.8)" d="M344.347 232.53L352.028 232.577C351.998 236.023 352.306 244.707 351.935 247.714C349.445 247.753 346.877 247.732 344.381 247.74L344.347 232.53Z"/><path fill="#FEFEFE" transform="scale(0.8 0.8)" d="M280.056 232.574L287.768 232.535C287.714 237.601 287.71 242.668 287.755 247.734L280.076 247.732C280.124 242.68 280.117 237.626 280.056 232.574Z"/><path fill="#FEFEFE" transform="scale(0.8 0.8)" d="M291.92 252.244C294.952 252.15 297.987 252.145 301.02 252.229C300.995 256.192 301 260.154 301.034 264.117C301.003 265.621 301.334 267.905 300.527 268.851C300.123 266.562 298.885 260.879 295.587 261.382C293.759 261.66 292.604 263.833 291.683 265.283C292.039 260.936 291.945 256.602 291.92 252.244Z"/><path fill="#FEFEFE" transform="scale(0.8 0.8)" d="M305.483 251.508C312.79 251.456 320.098 251.455 327.405 251.505C327.247 253.701 327.291 257.185 327.467 259.33C326.461 258.299 325.749 257.696 324.648 256.779C317.381 252.379 311.214 253.715 305.468 259.718C305.525 257.046 305.482 254.193 305.483 251.508Z"/><path fill="#FEFEFE" transform="scale(0.8 0.8)" d="M331.802 252.219C334.606 252.156 337.412 252.162 340.216 252.236C340.218 255.704 340.163 259.357 340.251 262.809C339.433 262.079 338.573 261.132 337.399 261.226C334.154 261.488 333.121 266.54 332.738 269.11C331.546 266.705 332.072 264.786 331.79 261.871C331.787 258.684 331.744 255.397 331.802 252.219Z"/><path fill="#FEFEFE" transform="scale(0.8 0.8)" d="M307.756 308L315.377 308.006C315.41 309.511 315.657 317.34 315.19 318.295C312.348 318.395 309.523 318.328 306.68 318.286C306.703 314.829 307.212 311.407 307.756 308Z"/><path fill="#FEFEFE" transform="scale(0.8 0.8)" d="M249.96 351.61C250.683 352.398 254.144 359.051 254.874 360.421L254.555 361.14C253.63 363.219 252.406 366.831 250.403 367.599C249.991 367.567 249.554 367.51 249.141 367.465C247.916 366.541 246.361 362.596 245.488 360.921C247.036 357.845 248.527 354.741 249.96 351.61Z"/><path fill="#FEFEFE" transform="scale(0.8 0.8)" d="M362.039 331.663C362.762 332.439 364.949 337.696 365.595 339.082C364.629 340.979 362.065 347.004 361.135 348.343L360.808 348.271C359.376 346.09 357.886 343.946 356.341 341.843C358.265 338.746 360.333 334.898 362.039 331.663Z"/><path fill="#FEFEFE" transform="scale(0.8 0.8)" d="M315.309 189.687C317.886 188.987 320.545 190.492 321.272 193.062C321.999 195.631 320.522 198.306 317.961 199.06C316.28 199.555 314.462 199.109 313.202 197.892C311.941 196.674 311.432 194.874 311.868 193.176C312.304 191.479 313.618 190.146 315.309 189.687Z"/><path fill="#FEFEFE" transform="scale(0.8 0.8)" d="M274.789 350.597C275.642 351.293 278.731 356.524 279.506 357.772C278.274 360.232 277.666 364.095 275.113 365.177L274.131 365.167C272.666 364.302 271.328 361.085 270.512 359.426C271.969 356.498 273.395 353.555 274.789 350.597Z"/><path fill="#FEFEFE" transform="scale(0.8 0.8)" d="M261.012 328.412C261.725 329.161 265.723 335.61 266.627 337.018C265.348 339.426 264.208 341.838 263.032 344.296C262.901 344.289 262.77 344.282 262.639 344.275C260.924 341.509 259.451 338.244 257.754 335.325C258.923 333.001 260.048 330.837 261.012 328.412Z"/><path fill="#FEFEFE" transform="scale(0.8 0.8)" d="M150.322 335.748C156.035 335.635 159.316 335.991 164.901 336.324C160.963 337.857 154.603 339.618 150.416 340.908C146.41 342.209 142.835 343.307 138.912 344.858C141.069 342.697 147.677 337.811 150.322 335.748Z"/><path fill="#FEFEFE" transform="scale(0.8 0.8)" d="M319.603 308.002C321.667 308.004 323.732 308.019 325.796 308.045C326.425 311.145 326.391 315.095 326.453 318.306C324.148 318.323 321.843 318.327 319.537 318.32L319.603 308.002Z"/><path fill="#FEFEFE" transform="scale(0.8 0.8)" d="M145.592 352.087C146.478 352.654 149.218 359.442 149.878 360.949C148.914 363.713 147.665 366.64 146.561 369.37L146.344 369.431C145.731 368.887 143.256 362.517 142.595 361.078C143.542 358.819 144.807 354.527 145.592 352.087Z"/><path fill="#FEFEFE" transform="scale(0.8 0.8)" d="M307.345 346.674C308.063 347.33 311.047 352.088 311.775 353.229C310.279 355.901 308.727 358.586 307.381 361.333L307.26 361.359C306.415 360.921 303.724 356.136 303.103 355.097C304.07 352.776 306.139 349.025 307.345 346.674Z"/><path fill="#FEFEFE" transform="scale(0.8 0.8)" d="M353.975 346.111C355.132 347.231 357.936 351.68 358.935 353.217C358.431 354.363 357.847 355.512 357.296 356.64C356.302 356.844 355.264 357.015 354.263 357.195C345.124 358.224 351.897 350.187 353.975 346.111Z"/><path fill="#FEFEFE" transform="scale(0.8 0.8)" d="M255.405 340.397C256.136 340.91 259.712 347.909 260.522 349.321C259.556 350.965 258.339 353.621 257.461 355.391L257.21 355.439C256.614 355.051 252.938 347.864 252.296 346.669C253.355 344.588 254.429 342.517 255.405 340.397Z"/><path fill="#FEFEFE" transform="scale(0.8 0.8)" d="M356.172 323.769C359.127 323.64 358.983 323.9 360.163 326.364C358.417 329.832 356.093 333.789 354.205 337.271L353.974 337.477C353.128 337.218 351.414 334.466 350.811 333.589L356.172 323.769Z"/><path fill="#FEFEFE" transform="scale(0.8 0.8)" d="M164.876 350.846C166.037 351.46 169.991 359.464 170.952 361.292C170.387 363.758 170.17 365.647 169.424 368.177L169.218 368.335C168.757 368.052 164.188 358.039 163.562 356.723C164.097 354.732 164.644 352.905 164.876 350.846Z"/><path fill="#FEFEFE" transform="scale(0.8 0.8)" d="M265.912 249.428C269.654 249.559 270.704 254.043 271.412 256.985C269.956 257.063 268.445 257.098 266.983 257.153C265.098 257.19 263.165 257.09 261.277 257.019C262.137 253.411 262.879 251.688 265.912 249.428Z"/><path fill="#FEFEFE" transform="scale(0.8 0.8)" d="M371.433 249.421C374.932 249.348 376.396 254.208 376.626 257.023L372.313 257.154C370.457 257.18 368.653 257.107 366.798 257.043C367.701 253.228 368.286 251.785 371.433 249.421Z"/><path fill="#FEFEFE" transform="scale(0.8 0.8)" d="M161.827 363.844C162.726 364.295 167.048 373.823 167.628 375.357C167.044 375.808 166.219 375.792 165.391 375.914C164.016 376.119 162.627 376.224 161.242 376.349C160.789 375.165 160.28 374.132 159.733 372.994C160.569 369.977 161.268 366.924 161.827 363.844Z"/><path fill="#FEFEFE" transform="scale(0.8 0.8)" d="M283.642 332.325C284.437 332.674 287.304 337.64 288.017 338.78C286.951 341.053 285.931 343.347 284.959 345.661C284.059 345.121 281.321 339.726 280.651 338.491L283.642 332.325Z"/><path fill="#FEFEFE" transform="scale(0.8 0.8)" d="M329.416 329.637C330.231 330.191 333.407 336.06 334.173 337.354C333.192 339.134 332.262 340.942 331.383 342.774C329.661 340.246 327.955 337.708 326.265 335.159C327.358 333.343 328.408 331.502 329.416 329.637Z"/><path fill="#FEFEFE" transform="scale(0.8 0.8)" d="M204.309 349.084C205.28 349.63 207.653 354.572 208.382 355.97C207.499 358.025 206.582 360.982 205.84 363.155C204.698 361.85 202.531 358.019 201.564 356.37C202.506 353.957 203.481 351.537 204.309 349.084Z"/><path fill="#FEFEFE" transform="scale(0.8 0.8)" d="M367.599 344.661C368.509 345.341 370.656 351.292 371.133 352.616L370.598 355.369L367.269 355.75C366.621 355.756 366.709 355.744 366.063 355.616C364.982 354.855 364.475 353.865 363.742 352.744C365.026 350.389 366.462 347.121 367.599 344.661Z"/><path fill="#FEFEFE" transform="scale(0.8 0.8)" d="M287.884 323.773C289.682 323.725 292.632 323.272 293.66 325.081C293.936 326.81 291.635 330.84 290.736 332.831C290.47 333.404 290.644 333.143 290.21 333.61C289.115 333.13 286.842 328.952 285.971 327.625C286.617 325.98 286.995 325.308 287.884 323.773Z"/><path fill="#FEFEFE" transform="scale(0.8 0.8)" d="M219.496 336.112C220.34 336.819 222.488 342.14 223.395 343.781C222.408 345.966 221.451 348.164 220.521 350.374L220.369 350.366C219.721 349.989 217.471 344.539 217 343.475C217.696 340.968 218.609 338.557 219.496 336.112Z"/><path fill="#FEFEFE" transform="scale(0.8 0.8)" d="M268.938 341.4C269.694 341.87 271.706 345.222 272.34 346.205C270.935 348.893 269.618 351.627 268.391 354.401L267.999 354.403C267.35 353.705 265.757 350.474 265.221 349.451C266.151 346.899 267.857 344.218 268.938 341.4Z"/><path fill="#FEFEFE" transform="scale(0.8 0.8)" d="M130.06 369.367C130.969 369.889 133.098 374.464 133.719 375.691C133.416 376.762 132.901 378.089 132.52 379.159C131.543 379.293 130.545 379.375 129.561 379.469C128.321 379.524 126.895 379.712 125.646 379.845C126.978 376.873 129.104 372.337 130.06 369.367Z"/><path fill="#FEFEFE" transform="scale(0.8 0.8)" d="M319.095 348.373C320.126 349.19 323.079 354.911 324.361 356.674C323.621 358.028 322.818 359.349 322.029 360.675C320.786 360.045 317.516 354.487 316.555 353.033C317.507 351.408 318.253 350.055 319.095 348.373Z"/><path fill="#FEFEFE" transform="scale(0.8 0.8)" d="M348.544 337.957C349.105 338.47 350.974 341.218 351.53 342.013C349.965 344.772 348.428 347.547 346.919 350.337L346.615 350.323C345.73 349.206 344.773 347.435 344.034 346.161C345.297 343.474 347.044 340.535 348.544 337.957Z"/><path fill="#FEFEFE" transform="scale(0.8 0.8)" d="M323.871 339.627C324.745 340.238 328.238 345.698 329.197 347.116L326.71 351.73L326.388 351.681C325.668 350.843 322.433 345.221 321.557 343.818C322.409 342.411 323.106 341.081 323.871 339.627Z"/><path fill="#FEFEFE" transform="scale(0.8 0.8)" d="M235.783 324.864C236.614 325.475 238.253 329.007 238.822 330.136C237.714 332.691 236.43 335.367 235.262 337.911C234.279 337.532 232.965 334.129 232.402 332.915L235.783 324.864Z"/><path fill="#FEFEFE" transform="scale(0.8 0.8)" d="M312.431 336.896C313.268 337.462 316.11 342.654 316.799 343.836C316.008 345.457 315.001 347.256 314.149 348.87C313.627 348.483 310.29 343.091 309.569 342.068C310.553 340.361 311.508 338.637 312.431 336.896Z"/><path fill="#FEFEFE" transform="scale(0.8 0.8)" d="M301.727 337.893C302.453 338.289 304.231 341.358 304.802 342.266C303.779 344.603 301.934 347.926 300.713 350.266L300.292 350.348C299.374 349.351 298.597 347.921 297.88 346.74C299.197 343.92 300.486 340.771 301.727 337.893Z"/><path fill="#FEFEFE" transform="scale(0.8 0.8)" d="M208.849 336.413C209.584 337.008 211.903 342.359 212.507 343.665L210.213 350.091C209.458 349.416 206.999 344.394 206.363 343.161C207.256 340.936 208.085 338.686 208.849 336.413Z"/><path fill="#FEFEFE" transform="scale(0.8 0.8)" d="M151.991 366.881C153.142 367.655 154.788 371.994 155.454 373.536C154.928 375.58 155.067 376.898 152.806 377.261C151.291 377.377 148.765 377.656 149.003 375.47C149.277 372.947 151.098 369.786 151.871 367.277L151.991 366.881Z"/><path fill="#FEFEFE" transform="scale(0.8 0.8)" d="M223.397 324.359C224.388 324.98 227.12 331.501 227.758 332.96C227.232 334.57 226.403 336.32 225.707 337.887C225.545 337.902 225.391 337.809 225.236 337.76C223.99 335.402 222.635 332.245 221.501 329.766L223.397 324.359Z"/><path fill="#FEFEFE" transform="scale(0.8 0.8)" d="M366.743 323.793L372.697 323.765C371.348 326.541 370.057 329.345 368.825 332.176C368.604 332.635 368.404 333.008 368.164 333.457L367.808 333.436C366.72 331.566 365.618 328.667 364.704 326.605C365.379 325.664 366.058 324.727 366.743 323.793Z"/><path fill="#FEFEFE" transform="scale(0.8 0.8)" d="M332.952 323.853C335.133 323.754 338.338 323.098 339.625 325.067C339.877 326.944 338.174 329.482 337.223 331.246C336.907 331.92 336.955 331.921 336.39 332.385C335.282 331.419 331.945 325.64 332.304 324.169L332.952 323.853Z"/><path fill="#FEFEFE" transform="scale(0.8 0.8)" d="M213.885 325.07C215.551 325.829 216.26 328.289 216.996 330.017C216.183 332.629 215.295 335.093 214.372 337.665C213.609 336.398 211.688 331.857 211.154 330.456C211.82 328.145 212.159 326.818 213.885 325.07Z"/><path fill="#FEFEFE" transform="scale(0.8 0.8)" d="M182.304 335.194C184.444 335.075 185.243 337.52 186.171 339.204C185.338 341.394 184.633 343.876 183.98 346.14C182.569 344.287 181.173 342.424 179.791 340.55C180.38 338.322 180.232 336.392 182.304 335.194Z"/><path fill="#FEFEFE" transform="scale(0.8 0.8)" d="M342.791 329.455C343.494 330.071 345.254 332.761 345.89 333.687C344.877 335.878 342.981 339.136 341.787 341.399C340.988 341.057 339.48 338.309 338.925 337.409C339.755 335.27 341.711 331.818 342.791 329.455Z"/><path fill="#FEFEFE" transform="scale(0.8 0.8)" d="M315.183 293.711C315.613 294.528 315.439 302.012 315.482 303.579C313.467 303.622 311.452 303.627 309.437 303.593C309.179 303.565 309.354 303.607 309.012 303.261C310.218 299.526 312.42 296.424 315.183 293.711Z"/><path fill="#FEFEFE" transform="scale(0.8 0.8)" d="M135.78 356.333C136.655 357.06 137.726 360.149 138.236 361.405C137.524 363.152 136.28 368.38 135.349 369.569L132.443 364.079L135.78 356.333Z"/><path fill="#FEFEFE" transform="scale(0.8 0.8)" d="M331.8 308.044L335.203 308.021C335.2 311.301 335.09 315.581 335.337 318.765L335.228 319.539C334.224 319.455 332.84 319.487 331.803 319.479C331.773 315.667 331.772 311.855 331.8 308.044Z"/><path fill="#FEFEFE" transform="scale(0.8 0.8)" d="M152.556 344.761L153.203 344.901C154.064 345.909 154.334 346.865 154.818 348.102C154.382 349.491 152.893 354.191 151.98 354.907L151.67 354.651C150.468 351.815 149.181 349.055 147.989 346.186C149.521 345.742 151.043 345.267 152.556 344.761Z"/><path fill="#FEFEFE" transform="scale(0.8 0.8)" d="M198.917 338.869C199.896 339.474 201.142 342.181 201.777 343.38C201.213 345.593 199.804 349.088 199.039 351.45L198.805 351.409C198.116 350.914 196.55 348.248 195.992 347.364C196.887 344.508 198.026 341.833 198.917 338.869Z"/><path fill="#FEFEFE" transform="scale(0.8 0.8)" d="M262.815 354.17C263.379 354.672 265.301 358.495 265.794 359.418C265.216 361.016 263.517 364.383 262.753 365.885C261.897 365.01 260.225 361.642 259.638 360.495C260.65 358.363 261.709 356.254 262.815 354.17Z"/><path fill="#FEFEFE" transform="scale(0.8 0.8)" d="M140.616 367.846C141.448 368.419 143.689 374.406 144.255 375.788C143.612 377.199 143.526 377.714 142.19 378.332C135.851 379.068 139.573 370.793 140.616 367.846Z"/><path fill="#FEFEFE" transform="scale(0.8 0.8)" d="M354.466 307.98L357.645 308.011C357.656 311.551 357.555 316.008 357.754 319.476C356.737 319.494 355.428 319.479 354.439 319.545L354.221 318.817C354.63 316.11 354.358 310.943 354.466 307.98Z"/><path fill="#FEFEFE" transform="scale(0.8 0.8)" d="M275.503 307.989L278.7 308.018C278.687 311.586 278.705 315.155 278.756 318.723L278.993 319.544C277.965 319.473 276.538 319.506 275.476 319.497L275.503 307.989Z"/><path fill="#FEFEFE" transform="scale(0.8 0.8)" d="M296.757 329.913C297.712 330.773 298.399 332.137 299.074 333.272C297.84 336.242 296.57 339.198 295.266 342.138C294.197 341.118 293.521 339.784 292.753 338.5C294.14 335.671 295.262 332.754 296.757 329.913Z"/><path fill="#FEFEFE" transform="scale(0.8 0.8)" d="M306.58 326.635C307.3 327.223 309.437 331.182 310.03 332.217L307.265 337.67C306.49 337.522 304.299 333.653 303.753 332.786C304.707 331.088 305.805 328.434 306.58 326.635Z"/><path fill="#FEFEFE" transform="scale(0.8 0.8)" d="M297.914 308.055L301.012 308.029C301.021 311.75 300.956 315.76 301.072 319.458L297.932 319.535L297.74 318.851C298.1 316.084 297.825 311.05 297.914 308.055Z"/><path fill="#FEFEFE" transform="scale(0.8 0.8)" d="M241.05 335.117C241.916 335.777 243.029 337.97 243.625 339.011L239.582 346.896L239.389 346.967C238.711 346.645 237.703 344.337 237.252 343.474C238.444 340.624 239.884 338.132 241.05 335.117Z"/><path fill="#FEFEFE" transform="scale(0.8 0.8)" d="M167.476 340.814C168.528 341.445 172.511 348.956 173.445 350.621C173.097 352.225 172.856 353.133 172.331 354.684C171.545 353.981 167.202 345.382 166.502 344.059C166.804 342.983 167.151 341.886 167.476 340.814Z"/><path fill="#FEFEFE" transform="scale(0.8 0.8)" d="M194.396 331.428C197.884 331.989 195.581 336.118 194.886 338.208C194.427 339.587 193.749 341.119 193.175 342.461C192.336 341.383 191.4 339.638 190.694 338.411C191.64 335.787 191.747 332.744 194.396 331.428Z"/><path fill="#FEFEFE" transform="scale(0.8 0.8)" d="M290.565 343.361C291.308 343.852 292.651 346.217 293.215 347.121C292.051 349.604 290.964 352.123 289.956 354.673C288.965 354.05 287.857 351.745 287.224 350.628L290.565 343.361Z"/><path fill="#FEFEFE" transform="scale(0.8 0.8)" d="M316.639 328.621C317.364 329.061 320.735 334.427 321.443 335.487L319.388 339.129L319.184 339.157C318.612 338.881 315.412 333.128 314.651 332.008C315.375 330.971 316.018 329.735 316.639 328.621Z"/><path fill="#FEFEFE" transform="scale(0.8 0.8)" d="M318.892 323.8C320.938 323.807 325.131 323.163 326.465 324.543C326.826 326.248 325.727 327.583 324.832 329.174C324.323 330.09 324.363 330.391 323.602 330.822C322.475 329.494 319.654 325.34 318.892 323.8Z"/><path fill="#FEFEFE" transform="scale(0.8 0.8)" d="M214.823 349.621C215.681 350.257 217.596 354.863 218.235 356.211C217.578 357.408 216.681 359.753 216.125 361.094C215.176 360.418 213.468 356.648 212.854 355.405C213.536 353.643 214.212 351.44 214.823 349.621Z"/><path fill="#FEFEFE" transform="scale(0.8 0.8)" d="M278.078 323.594C278.988 324.139 280.525 326.618 281.206 327.619L278.363 333.655C277.593 333.299 275.849 329.824 275.304 328.854C276.116 327.085 277.136 325.307 278.078 323.594Z"/><path fill="#FEFEFE" transform="scale(0.8 0.8)" d="M242.133 316.492L242.848 316.568C243.615 317.073 243.876 317.786 244.325 318.612C243.683 319.888 241.782 324.565 240.923 325.096C238.515 320.568 236.024 318.502 242.133 316.492Z"/><path fill="#FEFEFE" transform="scale(0.8 0.8)" d="M295.682 351.839C296.61 352.249 297.643 354.32 298.22 355.279C296.943 357.678 295.708 360.099 294.515 362.54L293.982 362.609C293.237 361.953 292.715 360.745 292.237 359.831L295.682 351.839Z"/><path fill="#FEFEFE" transform="scale(0.8 0.8)" d="M246.596 323.613C247.205 323.93 248.716 326.964 249.291 327.912C248.141 329.957 247.095 332.23 246.069 334.352C245.384 333.577 244.064 331.098 243.483 330.068C244.557 327.934 245.595 325.782 246.596 323.613Z"/><path fill="#FEFEFE" transform="scale(0.8 0.8)" d="M157.095 353.868C158.067 354.433 158.714 356.184 159.231 357.26C158.578 359.468 157.741 364.742 156.941 366.249C156.077 364.614 155.188 362.597 154.387 360.901C155.34 358.582 156.343 356.258 157.095 353.868Z"/><path fill="#FEFEFE" transform="scale(0.8 0.8)" d="M375.04 328.391L375.395 328.871C375.372 329.723 374.906 332.699 374.632 333.58C374.126 335.206 373.194 343.438 372.315 343.927L371.906 343.429L370.207 339.441C370.657 337.649 374.045 330.62 375.04 328.391Z"/><path fill="#FEFEFE" transform="scale(0.8 0.8)" d="M203.765 328.455C204.338 328.434 204.548 328.464 205.122 328.514C207.742 330.414 204.873 335.102 204.022 337.882C201.118 335.583 200.369 330.908 203.765 328.455Z"/><path fill="#FEFEFE" transform="scale(0.8 0.8)" d="M210.813 361.369C211.699 361.947 213.191 365.164 213.794 366.33C213.06 368.478 212.571 369.496 211.533 371.541L210.842 371.393C209.874 370.459 209.257 369.256 208.555 368.09C209.369 365.825 210.156 363.691 210.813 361.369Z"/><path fill="#FEFEFE" transform="scale(0.8 0.8)" d="M263.279 323.773L267.796 323.757C268.701 325.482 269.719 327.26 270.664 328.973L269.393 331.431L269.089 331.943L268.674 332.011C267.345 330.664 264.41 325.624 263.279 323.773Z"/><path fill="#FEFEFE" transform="scale(0.8 0.8)" d="M245.848 343.922C246.779 344.754 247.077 345.595 247.637 346.719L243.437 355.648C242.575 355.034 242.008 353.422 241.543 352.397L245.848 343.922Z"/><path fill="#FEFEFE" transform="scale(0.8 0.8)" d="M319.598 294.609C321.47 295.687 324.443 301.409 324.668 303.532C322.966 303.596 321.264 303.63 319.561 303.635C319.553 300.626 319.565 297.617 319.598 294.609Z"/><path fill="#FEFEFE" transform="scale(0.8 0.8)" d="M199.784 361.964C200.531 362.519 203.418 367.706 203.989 368.792L202.711 372.29C200.975 370.082 199.661 368.303 198.084 365.982C198.6 364.522 198.971 363.288 199.784 361.964Z"/><path fill="#FEFEFE" transform="scale(0.8 0.8)" d="M225.565 349.404C226.351 350.097 227.29 352.509 227.775 353.573C226.846 355.704 225.801 357.893 224.826 360.013C224.334 359.49 223.05 356.95 222.629 356.158L225.565 349.404Z"/><path fill="#FEFEFE" transform="scale(0.8 0.8)" d="M190.421 362.859C190.957 363.365 192.849 365.938 193.506 366.752C192.754 368.354 192 370.628 191.268 372.385C190.378 371.597 189.079 369.019 188.431 367.839C189.047 366.161 189.71 364.5 190.421 362.859Z"/><path fill="#FEFEFE" transform="scale(0.8 0.8)" d="M230.009 338.409C230.874 339.211 232.106 342.028 232.695 343.238L230.299 348.37C229.466 347.895 228.3 344.729 227.832 343.639C228.685 341.979 229.369 340.158 230.009 338.409Z"/><path fill="#FEFEFE" transform="scale(0.8 0.8)" d="M133.188 350.784C133.277 350.94 133.366 351.095 133.454 351.25C132.605 353.05 131.133 357.686 129.993 358.475C129.285 358.207 129.389 357.992 128.919 357.101C128.164 355.537 127.548 354.432 126.663 352.933C128.823 352.278 131.11 351.64 133.188 350.784Z"/><path fill="#FEFEFE" transform="scale(0.8 0.8)" d="M124.379 358.304C125.455 358.832 127.18 362.881 127.811 364.177L125.891 368.811C125.462 369.978 124.962 370.899 124.4 372.001C124.512 367.436 124.505 362.869 124.379 358.304Z"/><path fill="#FEFEFE" transform="scale(0.8 0.8)" d="M331.746 351.377C332.342 351.762 333.952 354.232 334.45 354.947C333.451 356.716 332.693 357.991 331.548 359.661C330.274 359.046 329.791 357.909 329.065 356.689C329.968 354.698 330.675 353.289 331.746 351.377Z"/><path fill="#FEFEFE" transform="scale(0.8 0.8)" d="M252.054 313.123C252.417 313.345 252.692 313.406 252.73 313.921C252.843 315.484 253.414 322.174 251.396 322.647L251.037 322.191C250.307 321.082 249.645 319.756 249.014 318.575C249.857 316.505 250.529 314.801 252.054 313.123Z"/><path fill="#FEFEFE" transform="scale(0.8 0.8)" d="M232.749 319.526L233.077 319.593C233.34 320.577 230.914 326.167 230.104 327.019L229.689 326.979L229.201 326.039L226.99 321.286C228.921 320.735 230.84 320.148 232.749 319.526Z"/><path fill="#FEFEFE" transform="scale(0.8 0.8)" d="M193.945 352.654C194.98 353.341 196.236 355.789 196.885 356.94C196.423 358.509 195.819 360.131 195.271 361.681C194.285 361.127 192.938 358.891 192.227 357.853C192.563 356.439 193.45 354.13 193.945 352.654Z"/><path fill="#FEFEFE" transform="scale(0.8 0.8)" d="M336.497 342.105C337.342 342.552 338.637 345.119 339.248 346.144C338.423 347.433 337.567 349.108 336.825 350.476C335.9 349.937 334.672 347.75 334.04 346.751C334.772 345.236 335.694 343.601 336.497 342.105Z"/><path fill="#848588" transform="scale(0.8 0.8)" d="M275.446 273.476C275.209 271.317 274.986 253.977 275.55 252.493L275.9 252.311C276.561 253.358 276.403 270.833 276.185 273.332L275.446 273.476Z"/><path fill="#FEFEFE" transform="scale(0.8 0.8)" d="M229.843 359.111C230.888 359.791 231.239 361.148 231.713 362.335C230.767 364.371 229.781 366.388 228.755 368.385C227.975 367.974 227.42 366.403 227.002 365.511C227.604 363.63 228.966 360.963 229.843 359.111Z"/><path fill="#FEFEFE" transform="scale(0.8 0.8)" d="M188.943 344.145C189.565 344.674 190.915 346.926 191.441 347.751C190.688 349.476 189.921 351.647 189.254 353.42C188.435 352.884 187.61 351.482 187.019 350.619C187.413 348.849 188.363 345.899 188.943 344.145Z"/><path fill="#A4A2A5" transform="scale(0.8 0.8)" d="M331.79 261.871C332.072 264.786 331.546 266.705 332.738 269.11C332.575 275.052 332.724 280.932 332.542 286.9L331.728 286.899C331.256 279.414 331.656 269.513 331.79 261.871Z"/><path fill="#FEFEFE" transform="scale(0.8 0.8)" d="M341.579 350.677C341.982 351.014 343.88 354.193 344.371 354.942C343.645 356.178 342.913 357.409 342.175 358.637C341.202 357.919 339.955 355.762 339.252 354.668L341.579 350.677Z"/><path fill="#FEFEFE" transform="scale(0.8 0.8)" d="M234.833 348.592C235.833 349.254 236.36 351.147 236.796 352.322C236.179 353.792 235.081 355.828 234.339 357.3C233.518 356.799 232.817 354.886 232.36 353.902C232.991 352.205 234.019 350.248 234.833 348.592Z"/><path fill="#FEFEFE" transform="scale(0.8 0.8)" d="M238.994 357.373C239.835 358.149 240.326 359.502 240.829 360.584C240.193 362.524 239.223 364.389 238.329 366.229C237.633 365.572 236.836 363.702 236.373 362.756C237.196 360.817 238.008 359.229 238.994 357.373Z"/><path fill="#A4A2A5" transform="scale(0.8 0.8)" d="M335.337 318.765C337.945 318.71 352.421 318.433 354.221 318.817L354.439 319.545C352.667 319.877 337.159 319.829 335.228 319.539L335.337 318.765Z"/><path fill="#FEFEFE" transform="scale(0.8 0.8)" d="M251.545 332.896C252.139 333.358 252.707 334.587 253.096 335.296C252.119 337.457 251.129 339.748 250.048 341.847C249.171 341.058 248.824 340.174 248.272 339.119C249.324 336.959 250.393 334.996 251.545 332.896Z"/><path fill="#A4A2A5" transform="scale(0.8 0.8)" d="M297.74 318.851L297.932 319.535C295.843 319.894 281.146 319.804 278.993 319.544L278.756 318.723C282.389 318.704 294.857 318.371 297.74 318.851Z"/><path fill="#848588" transform="scale(0.8 0.8)" d="M301.034 264.117C301.432 266.64 301.754 285.573 301.086 287.159C300.943 286.92 301.06 287.078 300.608 286.814C300.121 284.151 300.312 271.861 300.527 268.851C301.334 267.905 301.003 265.621 301.034 264.117Z"/><path fill="#FEFEFE" transform="scale(0.8 0.8)" d="M346.259 323.859C347.743 323.747 349.826 323.776 351.358 323.753L348.716 328.565C348.594 328.881 348.519 328.875 348.243 329.144C346.983 328.561 345.031 325.662 345.575 324.173L346.259 323.859Z"/><path fill="#FEFEFE" transform="scale(0.8 0.8)" d="M278.112 343.562C279.397 344.281 281.274 348.167 281.888 349.624C282.559 351.217 282.385 351.206 281.785 352.641C280.745 352.211 277.937 347.397 277.356 346.103C277.118 345.573 277.851 344.15 278.112 343.562Z"/><path fill="#FEFEFE" transform="scale(0.8 0.8)" d="M176.453 356.323C177.519 356.827 178.835 359.73 179.435 360.877C178.813 362.175 178.518 363.433 178.127 364.817C177.16 364.33 175.952 361.694 175.385 360.634C175.707 358.885 175.913 358.015 176.453 356.323Z"/><path fill="#FEFEFE" transform="scale(0.8 0.8)" d="M178.534 346.552C179.578 346.905 181.597 350.341 182.35 351.477C181.986 352.519 181.636 353.565 181.3 354.616C181.025 354.706 181.214 354.67 180.728 354.537C179.775 353.242 178.642 351.043 177.831 349.565C177.999 348.64 178.311 347.487 178.534 346.552Z"/><path fill="#FEFEFE" transform="scale(0.8 0.8)" d="M272.993 333.655C273.704 334.281 275.336 337.476 275.883 338.475C275.397 339.746 275.097 340.393 274.48 341.595C273.442 340.136 272.292 338.253 271.3 336.725C271.819 335.65 272.396 334.686 272.993 333.655Z"/><path fill="#FEFEFE" transform="scale(0.8 0.8)" d="M173.831 367.354C174.726 367.881 175.635 369.824 176.192 370.817C175.719 372.24 175.221 373.654 174.699 375.06C173.565 375.152 173.568 375.282 172.821 374.772C172.202 373.192 173.466 369.494 173.831 367.354Z"/><path fill="#FEFEFE" transform="scale(0.8 0.8)" d="M220.367 361.871C221.257 362.445 221.88 364.141 222.376 365.183L220.406 369.347C219.489 368.641 218.985 367.313 218.474 366.251C218.951 364.924 219.779 363.191 220.367 361.871Z"/><path fill="#FEFEFE" transform="scale(0.8 0.8)" d="M141.635 348.264L142.064 348.276L142.188 348.728C141.911 349.9 140.973 353.876 140.098 354.507L139.803 354.276C139.146 352.851 137.816 350.97 138.534 349.508C139.36 348.704 140.473 348.567 141.635 348.264Z"/><path fill="#FEFEFE" transform="scale(0.8 0.8)" d="M256.36 323.769C257.298 323.775 257.466 323.605 258.083 324.047C258.347 325.429 256.407 328.452 255.663 330.136C255.165 330.176 255.296 330.098 254.697 329.749C253.386 327.792 255.193 325.381 256.36 323.769Z"/><path fill="#FEFEFE" transform="scale(0.8 0.8)" d="M185.283 355.906C186.319 356.599 186.77 357.459 187.482 358.498C186.931 359.841 186.394 361.424 185.89 362.805C185.056 362.276 184.369 360.896 183.837 360.01C184.32 358.866 184.865 357.126 185.283 355.906Z"/><path fill="#FEFEFE" transform="scale(0.8 0.8)" d="M284.889 224.381C286.29 224.608 288.432 226.778 287.267 228.18L286.242 228.258L282.424 228.225C283.242 226.492 283.599 225.801 284.889 224.381Z"/><path fill="#FEFEFE" transform="scale(0.8 0.8)" d="M349.193 224.374C350.684 224.657 351.936 226.264 351.808 227.805C351.217 228.419 351.354 228.215 350.187 228.26L346.605 228.186C347.49 226.407 347.849 225.762 349.193 224.374Z"/><path fill="#FEFEFE" transform="scale(0.8 0.8)" d="M181.985 366.076C182.986 366.493 183.2 367.15 183.738 368.102C183.473 369.495 182.932 371.076 182.51 372.45L181.992 372.472C179.885 371.05 181.328 368.115 181.985 366.076Z"/><path fill="#FEFEFE" transform="scale(0.8 0.8)" d="M299.407 323.864L303.118 323.73C302.58 325.257 302.147 326.328 301.481 327.805L301.189 328.129L300.775 327.994C299.986 327.013 298.233 324.939 299.407 323.864Z"/><path fill="#FEFEFE" transform="scale(0.8 0.8)" d="M295.157 275.558L296.105 275.742C296.909 276.966 296.513 281.341 296.385 282.941C296.011 282.837 295.803 282.741 295.444 282.595C294.515 281.142 294.982 277.338 295.157 275.558Z"/><path fill="#FEFEFE" transform="scale(0.8 0.8)" d="M336.748 275.507C337.011 275.592 337.374 275.761 337.638 275.873C338.443 277.331 338.116 281.312 337.761 282.96L336.945 282.614C336.191 281.066 336.63 277.366 336.748 275.507Z"/><path fill="#FEFEFE" transform="scale(0.8 0.8)" d="M282.934 307.814L283.841 308.077C284.697 309.375 284.279 313.382 284.031 314.954C283.544 314.793 283.599 314.798 283.149 314.539C282.372 312.879 282.79 309.746 282.934 307.814Z"/><path fill="#DDDADF" transform="scale(0.8 0.8)" d="M339.404 307.807C339.693 307.887 340.032 308.02 340.321 308.123C341.055 309.345 340.715 313.409 340.562 314.931L339.645 314.591C338.773 313.2 339.223 309.51 339.404 307.807Z"/><path fill="#FEFEFE" transform="scale(0.8 0.8)" d="M348.947 307.815L349.835 308.099C350.691 309.386 350.252 313.366 350.008 314.944C347.895 314.23 348.803 309.742 348.947 307.815Z"/><path fill="#FEFEFE" transform="scale(0.8 0.8)" d="M292.617 307.8C293.093 307.984 293.423 307.985 293.551 308.337C294.113 309.881 293.993 313.622 293.41 315.027L292.758 314.656C291.895 313.31 292.426 309.47 292.617 307.8Z"/><path fill="#FEFEFE" transform="scale(0.8 0.8)" d="M161.148 343.788C161.567 343.978 161.769 343.95 161.869 344.307C162.216 345.555 161.285 349.245 160.751 350.308C158.701 347.914 159.978 346.356 161.148 343.788Z"/><path fill="#FEFEFE" transform="scale(0.8 0.8)" d="M171.528 338.408C174.26 338.694 175.544 341.082 175.09 343.661C174.938 343.668 174.631 343.581 174.464 343.543C173.357 342.107 172.124 340.122 171.528 338.408Z"/><path fill="#FEFEFE" transform="scale(0.8 0.8)" d="M284.778 355.684C286.308 356.446 287.815 359.708 287.247 361.558C285.594 360.26 283.825 357.837 284.778 355.684Z"/><path fill="#FEFEFE" transform="scale(0.8 0.8)" d="M314.081 357.592C315.093 358.112 316.006 359.376 316.018 360.539C315.493 361.204 315.582 360.989 314.425 361.143C313.442 361.197 313.337 361.368 312.612 360.977C312.54 359.983 313.51 358.653 314.081 357.592Z"/><path fill="#FEFEFE" transform="scale(0.8 0.8)" d="M310.207 323.796L314.065 323.77C313.707 324.948 313.307 325.778 312.805 326.892C312.568 327.29 312.742 327.12 312.221 327.332C311.247 326.522 310.63 324.975 310.207 323.796Z"/><path fill="#DDDADF" transform="scale(0.8 0.8)" d="M300.534 359.861C301.559 360.189 302.252 361.064 302.075 362.168L301.441 362.383C300.364 362.478 300.494 362.626 299.638 362.242C299.572 361.304 300.038 360.809 300.534 359.861Z"/><path fill="#DDDADF" transform="scale(0.8 0.8)" d="M339.801 299.647L340.274 300.12C340.683 301.393 340.933 302.54 340.458 303.812C339.778 303.58 339.802 303.626 339.358 303.07C339.121 301.841 339.491 300.882 339.801 299.647Z"/><path fill="#DDDADF" transform="scale(0.8 0.8)" d="M292.834 299.635L293.285 299.983C293.776 301.294 293.809 302.321 293.634 303.695C292.72 303.455 293.033 303.707 292.538 303.098C292.27 301.958 292.611 300.819 292.834 299.635Z"/><path fill="#FEFEFE" transform="scale(0.8 0.8)" d="M336.988 267.657C338.032 268.41 337.973 270.535 337.848 271.691C337.267 271.561 337.257 271.61 336.846 271.198C336.461 269.86 336.736 269.061 336.988 267.657Z"/><path fill="#282727" transform="scale(0.8 0.8)" d="M238.045 82.3648C254.506 81.8117 271.958 82.2654 288.263 84.4923C292.122 85.0193 296.571 86.1051 300.046 87.8663C301.888 88.8003 303.616 90.9094 305.788 91.3934C315.416 93.4332 325.136 95.4972 334.582 98.252C346.684 101.782 358.988 105.833 369.695 112.627C372.798 114.596 375.596 117.188 378.336 119.626C371.666 121.521 362.093 123.602 355.235 125.093C362.409 135.047 371.277 146.094 378.02 156.066C372.988 154.339 367.637 152.242 362.542 150.441C347.719 145.152 332.762 140.246 317.686 135.727C311.435 133.913 305.057 132.256 298.712 130.786C295.457 130.031 291.526 129.967 288.381 128.838C285.556 127.823 284.285 124.373 283.216 121.789L261.125 121.768L215.488 121.77C212.354 131.296 207.622 128.966 199.454 130.949C172.745 137.431 146.274 146.503 120.538 156.123C123.398 152.627 126.284 148.493 128.992 144.814L143.559 125.134C135.879 123.432 128.131 121.461 120.431 119.695C134.549 105.531 159.038 99.5029 177.89 94.6899C182.767 93.4449 187.918 92.6166 192.804 91.3684C195.203 90.7557 196.399 89.3646 198.47 88.1176C200.87 86.6724 203.83 85.7446 206.563 85.2021C216.903 83.1502 227.536 82.6241 238.045 82.3648Z"/><path fill="#FEFEFE" transform="scale(0.8 0.8)" d="M237.085 86.875C238.651 86.7644 240.269 86.7477 241.862 86.7453C258.139 86.7204 274.873 86.5897 290.914 89.6402C293.924 90.2127 296.577 91.2558 299.27 92.6215L299.267 120.407C287.91 116.373 274.406 117.273 262.313 117.299L231.354 117.283C225.265 117.282 217.359 117.038 211.484 117.718C207.394 118.19 203.369 119.119 199.485 120.485L199.496 92.5158C210.513 87.5106 225.022 87.4784 237.085 86.875Z"/><path fill="#282727" transform="scale(0.8 0.8)" d="M223.386 89.7971C224.602 89.6956 226.149 89.7145 227.402 89.6946C227.623 95.872 227.445 103.072 227.472 109.352C230.264 109.151 229.567 109.104 231.255 110.9C232.169 109.988 232.777 109.192 233.576 108.19C233.742 108.277 233.909 108.363 234.077 108.448C239.08 110.955 240.587 109.069 242.402 104.522C232.909 108.588 227.2 99.8812 232.342 92.4904C235.169 88.4265 241.647 89.1964 245.035 92.2447C245.935 93.4955 246.583 94.9102 246.942 96.4092C248.423 102.443 246.939 112.877 239.579 114.179C237.556 114.537 234.468 114.385 232.714 113.184L230.835 111.886L230.526 113.538C229.636 114.193 220.511 113.907 218.754 113.894C218.697 112.419 218.742 110.775 218.754 109.287L222.254 109.266L222.257 95.2198C221.096 95.4246 219.573 95.5116 218.372 95.6149C218.331 94.1325 218.366 92.8415 218.413 91.3629C220.065 90.5921 221.619 90.1764 223.386 89.7971Z"/><path fill="#FEFEFE" transform="scale(0.8 0.8)" d="M237.449 94.4956C239.435 94.3593 240.829 94.6474 241.903 96.5608C242.311 97.2769 242.401 98.1311 242.151 98.9165C241.832 99.9067 241.041 100.19 240.14 100.667C235.023 102.061 233.909 97.1618 237.449 94.4956Z"/><path fill="#282727" transform="scale(0.8 0.8)" d="M272.143 89.794C281.238 89.206 282.891 95.6682 282.653 103.38C282.499 108.376 281.073 112.546 275.908 114.253C271.606 114.833 267.611 113.16 266.368 108.828C264.452 102.146 264.471 92.4781 272.143 89.794Z"/><path fill="#FEFEFE" transform="scale(0.8 0.8)" d="M273.28 94.4703C277.079 94.6841 277.58 98.4141 277.593 101.584C277.605 104.528 277.432 107.721 274.808 109.557C269.743 109.342 270.293 103.421 270.521 99.6866C270.66 97.4131 271.504 95.8581 273.28 94.4703Z"/><path fill="#282727" transform="scale(0.8 0.8)" d="M254.265 89.7885C257.649 89.5706 260.498 90.0605 262.424 92.9994C266.923 99.8598 259.414 103.775 254.617 106.914C253.95 107.351 253.501 107.864 253.419 108.626C254.489 109.689 261.765 109.272 263.578 109.261L263.518 113.95C261.07 113.785 257.357 113.896 254.812 113.907C252.39 113.922 249.967 113.908 247.545 113.864C247.455 109.685 247.305 106.192 251.13 103.37C253.248 101.808 257.578 100.066 258.449 97.5019C258.986 95.9196 257.7 94.5636 256.009 94.4866C253.398 94.3677 252.066 95.7195 250.145 97.3193C248.968 95.882 248.312 95.085 247.357 93.5064C249.795 91.4051 251.099 90.621 254.265 89.7885Z"/><path fill="#FEFEFE" transform="scale(0.8 0.8)" d="M194.425 95.8114C194.61 95.7811 194.466 95.7841 194.987 95.904C195.418 96.989 195.121 123.584 195.244 127.133C181.074 130.78 167.049 134.968 153.2 139.688C147.018 141.75 138.907 144.335 133.029 146.85C136.011 143.009 138.914 139.108 141.737 135.149C144.251 132.214 148.872 125.534 151.315 122.202C144.227 120.59 137.151 118.928 130.086 117.217C133.718 115.178 137.143 113.123 140.952 111.407C157.693 103.865 176.493 99.3594 194.425 95.8114Z"/><path fill="#FEFEFE" transform="scale(0.8 0.8)" d="M303.726 95.6328C326.968 101.02 347.596 104.511 368.542 117.26C361.729 118.891 354.204 120.815 347.385 122.173C350.416 126.226 353.419 130.299 356.395 134.393C359.371 138.143 362.73 142.918 365.638 146.811C361.371 144.902 354.815 142.815 350.278 141.274C340.791 138.026 331.24 134.97 321.63 132.107C317.308 130.837 307.688 127.919 303.731 127.381C303.414 117.458 303.695 105.635 303.726 95.6328Z"/><path fill="#FEFEFE" transform="scale(0.8 0.8)" d="M288.445 122.478C291.284 122.751 301.046 124.914 302.385 127.046C298.55 126.283 294.503 125.746 290.739 124.717C289.512 124.381 288.768 123.716 288.445 122.478Z"/><path fill="#FEFEFE" transform="scale(0.8 0.8)" d="M209.388 122.564C209.764 122.495 209.69 122.539 210.103 122.644C210.362 125.214 199.344 126.461 197.048 126.927L196.365 126.916L196.385 126.679C198.828 124.943 206.378 123.139 209.388 122.564Z"/><path fill="#FEFEFE" transform="scale(0.8 0.8)" d="M411.261 346.327C423.254 344.767 434.238 353.234 435.783 365.229C437.328 377.224 428.847 388.197 416.85 389.727C404.874 391.254 393.925 382.792 392.383 370.818C390.841 358.844 399.289 347.884 411.261 346.327Z"/><path fill="#34358E" transform="scale(0.8 0.8)" d="M411.998 355.533C418.903 354.392 425.425 359.064 426.567 365.968C427.71 372.873 423.039 379.396 416.135 380.539C409.229 381.683 402.703 377.011 401.561 370.105C400.419 363.198 405.092 356.674 411.998 355.533Z"/><path fill="#FEFEFE" transform="scale(0.8 0.8)" d="M93.6432 177.824C96.5787 177.484 99.8948 178.733 101.917 180.867C106.43 185.63 106.004 192.377 105.998 198.465C105.997 202.037 105.966 205.609 105.906 209.18C94.8711 209.471 82.8014 209.253 71.6875 209.253C69.1717 209.271 66.6558 209.241 64.1412 209.161C64.0251 207.239 64.0892 205.273 64.0314 203.319C63.7593 194.109 63.1317 180.244 76.5378 181.441C79.8763 181.739 81.8911 183.652 83.652 186.428C85.1319 181.037 88.2629 178.664 93.6432 177.824Z"/><path fill="#34358E" transform="scale(0.8 0.8)" d="M92.739 187.305C99.2674 187.242 97.7635 195.488 97.6352 199.989L94.3125 199.989L88.6687 199.991C88.6676 195.809 87.951 188.924 92.739 187.305Z"/><path fill="#34358E" transform="scale(0.8 0.8)" d="M75.0797 190.726C79.8621 190.347 81.8541 195.935 80.5829 199.713C80.0043 200.128 79.4429 199.968 78.5625 199.984L72.2789 200.01C72.2658 196.311 71.3039 192.572 75.0797 190.726Z"/><path fill="#FEFEFE" transform="scale(0.8 0.8)" d="M303.256 437.748C305.888 437.69 308.653 437.722 311.297 437.717C317.776 446.084 324.285 456.237 330.774 464.233C330.371 461.2 330.497 455.504 330.518 452.222C330.548 447.674 330.397 442.223 330.686 437.754C333.506 437.685 336.401 437.737 339.228 437.753C339.476 448.418 339.125 459.234 339.279 469.915C339.322 472.872 339.448 476.619 339.154 479.489C336.421 479.597 333.768 479.574 331.036 479.561C328.984 477.179 325.913 472.682 323.96 469.997C319.748 464.247 315.576 458.468 311.445 452.66C311.836 456.226 311.715 460.077 311.714 463.686L311.708 479.511C308.875 479.581 306.04 479.58 303.207 479.507C303.431 465.776 303.233 451.537 303.256 437.748Z"/><path fill="#FEFEFE" transform="scale(0.8 0.8)" d="M285.767 20.8026C288.551 20.7065 291.454 20.7677 294.248 20.7849C294.547 31.7151 294.126 42.8199 294.304 53.7688C294.351 56.5998 294.383 59.7905 294.197 62.6001C291.521 62.7329 288.766 62.6915 286.081 62.6898C279.578 54.2777 272.679 44.4225 266.451 35.7214L266.541 36.6346C266.864 39.7808 266.758 43.571 266.758 46.774L266.752 62.6029C263.913 62.7293 261.07 62.7199 258.232 62.5745C258.365 48.7592 258.006 34.5617 258.326 20.7994C260.877 20.7181 263.641 20.7571 266.211 20.7478C270.888 26.5198 275.151 33.0053 279.617 38.9589C281.225 41.1022 284.015 45.3406 285.771 47.0378C285.406 40.1962 285.481 27.7229 285.767 20.8026Z"/><path fill="#FEFEFE" transform="scale(0.8 0.8)" d="M393.272 217.011C404.868 216.644 416.593 217.029 428.204 216.895C430.452 216.869 432.717 216.926 434.964 217.022C435.294 226.987 435.082 238.947 434.977 249.003C432.186 249.211 429.585 249.296 426.803 248.974C426.566 241.732 426.745 233.572 426.746 226.26L418.337 226.242L418.308 228.754C418.352 234.419 418.336 240.084 418.259 245.748C415.584 245.856 412.906 245.863 410.231 245.767C410.114 239.356 410.21 232.699 410.226 226.269L401.313 226.234C401.358 233.871 401.337 241.509 401.25 249.146C398.825 249.3 395.651 249.248 393.249 249.07C393.05 244.887 393.178 239.816 393.178 235.58C393.132 229.39 393.164 223.2 393.272 217.011Z"/><path fill="#FEFEFE" transform="scale(0.8 0.8)" d="M360.143 437.52C363.002 437.485 365.94 437.528 368.807 437.537C373.878 451.333 379.112 465.609 383.912 479.48C380.672 479.573 377.431 479.602 374.19 479.57L371.449 471.229L368.539 471.236L357.174 471.246C356.38 474.028 355.516 476.789 354.582 479.527C351.319 479.613 348.053 479.594 344.791 479.469C349.819 465.552 354.922 451.352 360.143 437.52Z"/><path fill="#34358E" transform="scale(0.8 0.8)" d="M364.115 449.866C365.062 450.559 368.262 461.385 368.886 463.293L365.312 463.293L359.862 463.287C361.229 459.563 363.111 453.639 364.115 449.866Z"/><path fill="#FEFEFE" transform="scale(0.8 0.8)" d="M228.768 20.6092C231.502 20.5047 234.477 20.5753 237.23 20.588C239.146 24.9657 241.148 31.0458 242.79 35.6037L252.521 62.6246C249.347 62.7346 245.945 62.6897 242.749 62.6972C241.801 59.8859 240.868 57.2067 240.114 54.333L237.312 54.3157C233.449 54.3908 229.584 54.3715 225.722 54.2576C225.024 57.1141 224.031 59.8873 223.1 62.6801C219.76 62.703 216.7 62.7263 213.367 62.5505L222.918 36.3373C224.779 31.238 226.719 25.5625 228.768 20.6092Z"/><path fill="#34358E" transform="scale(0.8 0.8)" d="M232.79 32.8602C232.966 33.0157 233.141 33.1711 233.317 33.3266C234.665 37.3932 235.993 42.653 237.582 46.497L233.813 46.4502L228.263 46.453C229.525 43.8163 231.81 35.9655 232.79 32.8602Z"/><path fill="#FEFEFE" transform="scale(0.8 0.8)" d="M137.342 20.5769C140.014 20.4782 143.167 20.5741 145.881 20.5969C150.861 33.5683 156.616 49.3583 161.013 62.5215C157.815 62.7724 154.47 62.7131 151.263 62.6571C150.44 59.8992 149.491 57.0469 148.617 54.2942L145.474 54.3185C141.797 54.3776 138.119 54.3594 134.443 54.2641C133.524 57.035 132.643 59.8183 131.8 62.6132C128.54 62.7862 125.273 62.7464 122.018 62.494C125.589 51.5974 130.173 40.7799 133.858 29.8971C134.864 26.9269 136.116 23.4421 137.342 20.5769Z"/><path fill="#34358E" transform="scale(0.8 0.8)" d="M141.575 32.9392C142.484 34.3247 145.245 44.0595 146.056 46.4437L142.063 46.457L137.013 46.4519C137.571 44.4919 140.865 34.3119 141.575 32.9392Z"/><path fill="#FEFEFE" transform="scale(0.8 0.8)" d="M354.213 20.5745C357.077 20.5199 359.942 20.5391 362.805 20.6322C367.582 34.5213 373.253 48.6528 377.823 62.5282C374.511 62.7186 371.469 62.7002 368.15 62.6861C367.215 59.8896 366.306 57.0847 365.422 54.2719L362.664 54.3129C358.839 54.3543 355.014 54.3632 351.189 54.3397C350.322 57.0849 349.468 59.8345 348.629 62.5884C345.525 62.811 341.903 62.7232 338.8 62.5118L349.077 34.3045C350.677 29.928 352.404 24.7818 354.213 20.5745Z"/><path fill="#34358E" transform="scale(0.8 0.8)" d="M358.118 32.9075C358.903 33.4623 362.245 44.6208 362.941 46.4493L358.438 46.4561L353.74 46.481C355.188 42.7852 357.037 36.7243 358.118 32.9075Z"/><path fill="#FEFEFE" transform="scale(0.8 0.8)" d="M273.664 437.524L282.219 437.514C284.2 442.357 286.043 447.813 287.833 452.783L297.459 479.504C294.207 479.607 290.953 479.561 287.7 479.542C286.708 476.821 285.821 474.063 285.039 471.274L282.509 471.234C278.586 471.275 274.662 471.265 270.739 471.203C269.87 473.996 268.971 476.779 268.042 479.552C264.781 479.609 261.52 479.584 258.26 479.476C259.606 475.022 262.601 467.526 264.314 462.907C267.368 454.665 270.406 445.599 273.664 437.524Z"/><path fill="#34358E" transform="scale(0.8 0.8)" d="M277.828 449.658C278.431 450.184 281.677 461.393 282.465 463.285L278.563 463.293L273.178 463.312C274.667 460.157 276.539 453.366 277.828 449.658Z"/><path fill="#FEFEFE" transform="scale(0.8 0.8)" d="M393.281 109.833C397.763 111.184 403.657 113.533 408.176 115.192L435.236 125.159L435.26 133.695C429.42 135.898 423.444 138.01 417.569 140.14L402.648 145.538C399.865 146.547 395.956 148.089 393.206 148.767C393.175 145.573 393.181 142.38 393.225 139.187C395.659 138.315 399.095 137.229 401.569 136.567C401.488 131.82 401.544 126.912 401.537 122.152C398.612 121.263 395.921 120.471 393.072 119.356C393.231 116.368 393.214 112.865 393.281 109.833Z"/><path fill="#34358E" transform="scale(0.8 0.8)" d="M409.492 124.825C413.526 126.129 419.669 128.525 423.659 129.036C422.508 129.535 421.3 129.979 420.127 130.43C416.606 131.499 412.992 132.733 409.484 133.878L409.492 124.825Z"/><path fill="#FEFEFE" transform="scale(0.8 0.8)" d="M66.3654 218.114C66.5521 218.107 66.7388 218.102 66.9255 218.097C72.2692 217.986 90.5346 217.651 94.9772 218.835C97.5535 219.501 99.9155 220.817 101.837 222.658C108.134 228.773 108.104 241.74 101.874 247.932C96.5685 253.203 89.1526 252.548 82.2675 252.542L70.5425 252.519L64.1006 252.453C64.0403 249.495 64.0457 246.485 64.0248 243.522C70.0588 242.763 77.5584 243.566 83.7768 243.329C89.95 243.094 97.3691 244.268 97.7993 235.603C98.2879 225.764 87.571 227.27 80.9106 227.283C75.309 227.317 69.7071 227.299 64.1059 227.228C64.0542 225.062 63.8557 220.409 64.1966 218.568C64.796 218.107 65.5004 218.194 66.3654 218.114Z"/><path fill="#FEFEFE" transform="scale(0.8 0.8)" d="M154.241 437.748C157.181 437.675 160.299 437.734 163.255 437.748C163.443 443.633 163.176 449.561 163.275 455.458C163.344 459.586 162.639 465.854 165.389 469.205C167.935 472.223 173.93 472.32 176.702 469.674C180.242 466.293 179.299 460.167 179.394 455.613C179.518 449.703 179.182 443.677 179.465 437.745C182.428 437.699 185.467 437.733 188.437 437.735L188.477 445.438L188.507 456.721C188.52 463.284 189.064 470.193 184.136 475.322C177.847 481.866 164.911 481.819 158.557 475.453C156.792 473.7 155.538 471.5 154.93 469.089C153.89 465.095 154.184 458.497 154.195 454.151L154.241 437.748Z"/><path fill="#FEFEFE" transform="scale(0.8 0.8)" d="M301.783 20.8131C309.572 20.5315 317.549 20.8739 325.357 20.736C328.586 20.679 332.243 20.6449 335.437 20.9667C334.096 24.1069 328.696 32.9891 326.73 36.2049C323.486 41.5101 319.189 49.5998 315.728 54.5272C322.315 54.4937 328.902 54.4993 335.49 54.5438L335.503 62.6043C325.51 62.8998 315.396 62.6091 305.393 62.6981C303.878 62.7115 302.336 62.6145 300.831 62.4512C302.441 58.9563 305.215 54.6431 307.172 51.231C311.435 43.7997 315.987 36.4305 320.169 28.9606C314.675 29.2581 307.325 29.0683 301.759 28.9951C301.696 26.268 301.703 23.5397 301.783 20.8131Z"/><path fill="#FEFEFE" transform="scale(0.8 0.8)" d="M129.644 437.352C135.479 436.529 140.52 438.704 145.478 441.369C144 443.775 142.304 446.236 140.734 448.597C136.95 446.53 130.422 443.287 126.168 447.446C125.87 447.737 125.428 448.822 125.657 449.153C129.08 454.106 137.64 453.751 142.356 457.499C144.802 459.297 146.994 461.933 147.319 465.147C148.37 475.529 140.866 479.26 132.47 480.204C126.129 480.417 121.217 478.5 116.18 474.845C117.921 472.595 119.697 470.374 121.508 468.18C125.519 470.915 132.406 473.816 136.407 470.343C142.462 465.086 128.958 462.231 126.354 461.164C120.941 458.946 116.787 456.535 116.246 450.185C115.517 441.631 122.229 438.086 129.644 437.352Z"/><path fill="#FEFEFE" transform="scale(0.8 0.8)" d="M411.511 306.592C416.637 305.937 421.823 307.217 426.055 310.182C437.009 317.92 438.37 331.427 430.684 342.049C428.083 340.439 425.802 338.897 423.285 337.153C429.689 329.131 426.777 318.628 416.813 316.307C413.588 315.758 410.207 316.116 407.345 317.79C404.501 319.442 402.442 322.17 401.634 325.358C400.428 330.252 402.215 333.332 404.664 337.218C402.332 338.855 399.988 340.557 397.557 342.036C394.912 339.083 393.22 335.399 392.704 331.468C390.979 318.86 398.86 308.272 411.511 306.592Z"/><path fill="#FEFEFE" transform="scale(0.8 0.8)" d="M68.3118 286.59C70.8434 288.088 73.2878 289.805 75.7234 291.46C74.3655 293.582 73.2446 295.281 72.6514 297.779C71.8886 300.893 72.4393 304.183 74.1745 306.879C75.9801 309.701 78.8461 311.678 82.1261 312.363C85.632 313.114 89.3347 312.522 92.3368 310.521C95.0575 308.728 96.9388 305.913 97.5536 302.713C98.4359 298.029 96.8341 295.223 94.4021 291.557C96.8397 289.78 98.9885 288.239 101.527 286.609C103.882 289.224 105.079 291.853 105.995 295.195C111.835 324.276 71.7419 333.173 64.0258 305.468C62.1629 298.779 64.7438 292.244 68.3118 286.59Z"/><path fill="#FEFEFE" transform="scale(0.8 0.8)" d="M428.622 147.101C430.86 147.013 432.77 147.001 434.99 147.239C435.171 157.811 435.016 168.886 435.016 179.494C432.129 179.575 429.677 179.594 426.792 179.502C426.694 175.744 426.755 171.736 426.747 167.958C421.852 168.104 416.318 168 411.375 168.005C405.33 168.056 399.284 168.032 393.24 167.932C393.14 164.855 393.204 161.853 393.25 158.776C403.95 158.481 415.952 158.733 426.744 158.716C426.746 155.917 426.542 149.986 426.864 147.552C427.47 147.094 427.743 147.212 428.622 147.101Z"/><path fill="#FEFEFE" transform="scale(0.8 0.8)" d="M426.827 251.074C429.541 250.935 432.26 250.926 434.975 251.048C435.252 261.411 435.026 272.98 435.026 283.425C432.221 283.508 429.584 283.472 426.78 283.428C426.711 279.581 426.755 275.603 426.747 271.745L413.125 271.764C406.475 271.809 399.824 271.787 393.174 271.699L393.217 262.709C396.414 262.415 401.852 262.571 405.209 262.574C412.388 262.602 419.566 262.591 426.745 262.541C426.735 258.754 426.675 254.848 426.827 251.074Z"/><path fill="#FEFEFE" transform="scale(0.8 0.8)" d="M166.794 20.8279C169.852 20.7211 172.913 20.7205 175.972 20.8261C176.285 31.5331 176.06 43.7187 175.997 54.4994C181.258 54.4757 186.518 54.495 191.779 54.5571C191.835 56.9557 191.905 60.2113 191.721 62.5606C188.38 62.8249 183.754 62.7112 180.306 62.7119C175.971 62.7129 171.05 62.8141 166.778 62.5883C166.533 49.2229 166.607 34.2011 166.794 20.8279Z"/><path fill="#FEFEFE" transform="scale(0.8 0.8)" d="M97.7577 255.74C100.477 255.655 103.199 255.658 105.918 255.75C106.186 263.579 105.983 272.666 105.992 280.602C102.942 280.902 97.4571 280.755 94.3091 280.756L72.5335 280.752C69.7159 280.786 66.8979 280.753 64.0819 280.654C63.957 277.891 64.0516 274.372 64.0498 271.552C74.8359 271.264 86.8314 271.51 97.7074 271.511C97.6899 266.254 97.7066 260.997 97.7577 255.74Z"/><path fill="#FEFEFE" transform="scale(0.8 0.8)" d="M198.616 437.748C201.654 437.711 204.693 437.711 207.731 437.748C207.919 448.798 207.745 460.386 207.743 471.476L223.562 471.498L223.551 479.518C215.692 479.684 206.404 479.727 198.566 479.517C198.353 469.236 198.645 458.864 198.523 448.575C198.481 444.99 198.495 441.326 198.616 437.748Z"/><path fill="#FEFEFE" transform="scale(0.8 0.8)" d="M393.216 185.296C395.805 185.232 398.437 185.19 401.026 185.224C412.307 185.374 423.727 184.969 434.993 185.296C435.047 188.244 435.008 191.302 435.009 194.26C430.026 194.557 423.939 194.401 418.875 194.396C413.016 194.427 407.157 194.402 401.298 194.322C401.343 199.627 401.329 204.932 401.256 210.236C398.584 210.275 395.913 210.266 393.242 210.211C393.036 202.399 393.08 193.122 393.216 185.296Z"/><path fill="#FEFEFE" transform="scale(0.8 0.8)" d="M230.489 437.744C233.457 437.695 236.516 437.734 239.492 437.738C239.856 448.352 239.541 460.764 239.53 471.491C244.84 471.461 250.151 471.464 255.461 471.502L255.438 479.489C247.442 479.748 238.454 479.676 230.432 479.521L230.489 437.744Z"/><path fill="#FEFEFE" transform="scale(0.8 0.8)" d="M393.285 289.076C395.451 288.972 397.772 288.956 399.942 288.982C411.586 289.121 423.353 288.741 434.984 289.065C435.037 292.121 435.035 295.178 434.975 298.234C421.736 298.484 406.493 298.456 393.246 298.226C393.134 295.176 393.147 292.124 393.285 289.076Z"/><path fill="#FEFEFE" transform="scale(0.8 0.8)" d="M198.672 20.7963C201.676 20.7387 204.682 20.7376 207.686 20.7932C207.784 22.7824 207.804 25.033 207.745 27.0316C207.4 38.7157 208.266 50.9587 207.689 62.5843C204.788 62.7768 201.453 62.6982 198.553 62.6199C198.349 51.735 198.651 40.7586 198.521 29.8637C198.485 26.9039 198.457 23.741 198.672 20.7963Z"/><path fill="#FEFEFE" transform="scale(0.8 0.8)" d="M439.357 228.335C441.074 228.673 446.436 230.594 448.54 231.231C448.559 234.413 448.615 237.602 448.468 240.78C446.6 239.789 440.995 234.91 439.222 233.409L439.357 228.335Z"/></svg>