<?xml version="1.0" encoding="utf-8"?>
<!-- Generator: Adobe Illustrator 27.7.0, SVG Export Plug-In . SVG Version: 6.00 Build 0)  -->
<svg version="1.1" id="Layer_1" xmlns="http://www.w3.org/2000/svg" xmlns:xlink="http://www.w3.org/1999/xlink" x="0px" y="0px"
	 viewBox="0 0 2500 2500" style="enable-background:new 0 0 2500 2500;" xml:space="preserve">
<style type="text/css">
	.st0{fill:#2F478E;}
	.st1{fill:#FFFFFF;}
	.st2{fill:#C23C36;}
</style>
<path class="st0" d="M1192.5,79.5c-3.3,0.2-14.4,0.9-24.8,1.5c-202,12.5-400.9,79.9-571.5,193.7
	c-133.4,88.9-249.1,206.4-335.7,340.4c-36.6,56.6-70,120.2-96.4,182.9c-74.9,178.7-103.8,374.1-84.3,571
	c15.3,155.6,63.7,310.5,139.9,447.7c116.1,209.4,292.3,377.5,506.1,483.3c125.9,62.3,258.5,100.4,399.1,115.2
	c67,6.9,149.5,7.8,216.9,2.1c259.6-21.8,499.8-126.4,693.2-302.3c93.6-85.2,177-191.4,238.4-303.3
	c115.4-210.6,163-454.8,135.6-695.4c-34.4-302.6-185-578.7-421.9-773.2c-133.2-109.4-292.4-189.2-460.7-230.7
	c-63.1-15.6-123.2-25-195.5-31C1311.4,79.9,1209.6,78.4,1192.5,79.5z M1320.6,105.8c115,8.8,213.1,29.2,313.7,65.6
	c135.8,49.2,257,121,368.7,218.4c21.5,19,79,75.8,97.5,96.8c165.9,187.6,264.2,414.3,286.4,659.7c6,65.6,6,142,0,207.6
	c-20.9,231.5-112,451.5-261.2,629.9c-43.4,52.1-98.5,107-150.2,149.7c-130.1,107.6-283.8,185.9-446.1,227.1
	c-71,18.1-136.9,28.3-215.7,33.7c-25.7,1.7-112.3,1.7-137.3,0c-77.3-5.4-141.9-15.3-209.3-32.3c-168.6-42.1-323.2-121.1-458.2-233.8
	c-84.5-70.5-162.2-157.8-222.7-250.6c-99.3-151.6-161-323.6-180.4-501.7c-4.3-40.1-5.5-62.6-6.2-110.3
	c-1.1-89.8,5.1-158.3,21.9-242.2c26.6-132.9,75.4-256.9,146.3-372.6c186.1-302.7,501.1-502.5,852.4-540.6c18.6-2,56.8-5,75.7-6
	C1211.6,103.6,1305.9,104.7,1320.6,105.8z"/>
<g>
	<circle class="st1" cx="1252.4" cy="1250.9" r="1163.6"/>
	<path class="st0" d="M1194.9,28.7c-3.4,0.2-15.1,0.9-26,1.6c-210.8,13.1-418.2,83.4-596.3,202.1c-139.1,92.7-260,215.3-350.2,355.2
		c-38.1,59.1-73,125.4-100.5,190.8C43.8,964.8,13.7,1168.7,34.1,1374c16,162.4,66.6,323.9,146,467.1
		c121.2,218.4,305,393.9,528,504.3c131.3,65,269.7,104.8,416.3,120.2c70,7.2,155.9,8.1,226.2,2.3
		c270.9-22.7,521.5-131.9,723.2-315.4c97.7-88.9,184.7-199.6,248.8-316.5c120.4-219.8,170.1-474.5,141.5-725.5
		c-35.9-315.7-193-603.7-440.1-806.7c-139-114.2-305.1-197.4-480.6-240.8c-65.8-16.2-128.5-26.2-204-32.4
		C1318.9,29,1212.8,27.5,1194.9,28.7z M1328.6,56.1c119.9,9.1,222.4,30.5,327.2,68.4c141.7,51.3,268.2,126.1,384.7,227.9
		c22.5,19.7,82.4,79.1,101.7,101c173.1,195.8,275.7,432.2,298.8,688.2c6.2,68.4,6.2,148.3,0,216.6
		c-21.8,241.6-116.9,471.2-272.5,657.2c-45.4,54.4-102.8,111.6-156.7,156.3c-135.7,112.3-296.1,193.9-465.4,236.9
		c-74,18.8-142.8,29.6-225.1,35.2c-26.9,1.8-117.1,1.8-143.3,0c-80.7-5.6-148.1-16-218.3-33.6c-175.9-43.9-337.2-126.3-478-243.9
		c-88.1-73.6-169.2-164.7-232.4-261.4c-103.6-158.2-168-337.6-188.2-523.5c-4.5-41.7-5.8-65.3-6.4-115.1
		c-1.1-93.6,5.3-165.2,22.8-252.7c27.8-138.7,78.6-268.1,152.7-388.7c194.1-315.8,522.8-524.3,889.3-564c19.4-2.1,59.2-5.2,79-6.2
		C1214.9,53.8,1313.2,54.9,1328.6,56.1z"/>
	<path class="st0" d="M1215.3,78.4c-170.1,5.3-333.1,45.8-482.9,120c-51,25.2-83.7,44-130.3,74.9
		C443.9,378.3,312.8,520.9,221.6,687.4c-70.1,127.9-115.8,268.8-133.9,412.4c-6.9,53.9-9,89.7-9,148.9c0,51.1,0.9,72.1,5.1,115.6
		c16.5,171.6,72,339.7,161,488c37.3,62.2,80.8,121.2,130.9,177.7c19.1,21.5,79.1,81.1,101.2,100.4c165,144,361,237.6,574.2,274.2
		c65.2,11.2,111.4,15.2,183.1,16c55.2,0.7,81-0.2,125-4.3c214.1-19.5,421.2-99.4,593-228.6c149-112.1,266.9-253.9,348.9-419.7
		c62.1-125.5,101.1-261.6,114.6-399.7c4.2-41.6,4.7-53,5.4-101.5c1.2-90.9-5.3-163.6-22.2-248.2c-27.9-139.3-81.2-272.7-157.1-393.2
		c-104.1-165.4-250.6-304.1-421.9-399.7C1636.9,123.4,1424.7,71.8,1215.3,78.4z M1254.2,258.8c19.2,52.6,35.4,96.6,36.1,97.9
		c1,1.9,2.5,2.5,9,2.9l7.9,0.6l0.6,9.6c0.3,5.3,0.7,9.7,0.6,9.7c0,0.2-15.8,1.1-35.5,2.1c-7.1,0.3-15.8,0.9-19.2,1.1
		c-3.4,0.2-14.7,0.8-25,1.2c-15.8,0.7-19,0.6-19-0.8c-0.1-0.9-0.3-5.2-0.7-9.6l-0.7-8.1l8.8-1.8c11.5-2.5,12.1-2.7,11.5-4.4
		c-0.3-0.7-3-8.7-6-17.7c-2.9-9-5.8-16.7-6.1-17.3c-0.5-0.5-10.2-0.3-21.7,0.3c-31.5,1.7-33.8,1.9-34.9,2.9
		c-0.5,0.6-2.5,8.1-4.4,16.8c-2,8.7-3.8,16.6-4.2,17.6c-0.5,1.5,0.8,1.9,6.9,2.6c14.9,1.5,13.9,0.7,14.3,11.8
		c0.2,5.3,0.3,9.8,0.2,10c-0.3,0.7-63.5,4.1-64.2,3.4c-0.8-0.8-0.9-19.1-0.1-19.9c0.5-0.5,5.8-1.8,11.7-3l10.9-2.4l17.3-68.1
		c9.5-37.6,21-82.5,25.4-99.9l8.1-31.6l8.5-0.7c4.6-0.3,13.1-0.7,18.6-0.8l10.2-0.2L1254.2,258.8z M1487.2,186
		c19.5,5.6,35.9,10.6,36.4,11.1c0.5,0.5,10.2,31,21.7,67.9c11.4,36.9,21.2,67.9,21.8,69c0.6,1.5,5-12.2,14.2-44.3
		c7.3-25.5,13.1-46.6,13-46.8c-0.2-0.1-7.3-3.2-15.7-6.8c-8.3-3.5-15.7-6.8-16.1-7.2c-1.4-1.4,4.1-19.3,5.8-19.3
		c2.1,0,77.3,21.7,78.4,22.6c0.5,0.5-0.2,5-1.7,10.2l-2.6,9.3l-7.9-0.7c-4.3-0.3-10.3-0.9-13.2-1.4c-5.2-0.7-5.2-0.7-6.3,3
		c-9.6,34.9-52.6,183.5-53.3,184.1c-1.2,1.4-30.5-7.3-31.5-9.4c-0.5-0.9-12.5-40.6-26.7-88.2s-26.1-86.7-26.4-86.7
		c-0.7,0-36.4,124.2-35.9,124.6c0.2,0.2,7.3,3.3,15.9,6.9c8.6,3.6,15.8,7,16.1,7.6c0.9,1.5-4.3,19-5.6,19
		c-1.9,0.1-77.9-21.8-78.9-22.6c-1-0.9,3.3-16.7,5-18.5c0.6-0.6,5.8-0.5,12.9,0.5c6.5,0.7,12.3,1.1,12.6,0.8
		c0.3-0.3,10.7-35.9,23-78.9c22.9-79.4,23.9-83.8,20.3-88.2c-0.7-0.8-5.2-2.9-10-4.6c-4.7-1.8-8.8-3.3-9-3.5
		c-0.5-0.2,4.2-17.4,5.1-18.8c0.2-0.5,1.1-0.8,1.8-0.8C1451.1,175.8,1467.6,180.4,1487.2,186z M959.4,213c1.7,4.6,3,8.7,3,9
		c0.1,0.5-12.7,7-18.8,9.7c-0.6,0.2,50.3,148.7,56,163l1.2,3l9.1-2.3c5.1-1.2,9.9-1.9,10.7-1.6c2.1,0.8,7.7,17.8,6,18.8
		c-1.4,0.9-93,32.4-95.6,32.8c-1,0.2-2.6-2.9-4.7-9.1c-1.8-5.3-3.2-9.6-2.9-9.8c0.1-0.1,4.4-2,9.4-4.4l9.3-4.2l-8.8-26.1
		c-19.9-58.9-47.3-137.5-48.5-138.9c-0.6-0.6-4.3-0.2-8.7,0.8c-12.7,3-11.5,3.6-15.1-7c-1.8-5.3-3.2-9.7-2.9-9.8
		c1-1.1,95.3-33.1,96.7-32.8C955.6,204.4,957.6,208,959.4,213z M1851.4,346.3c34,23,62.4,42.5,63.3,43.3c1.2,1.2,0.7,2.6-3.6,8.7
		l-5.2,7.1l-88,49.6c-48.4,27.3-88.1,50-88.1,50.3s10.5,7.7,23.2,16.4l23.1,15.7l15.3-15.6c8.3-8.5,15.6-15.5,16-15.5
		c1.4,0,21.5,14.1,21.5,15.1c0,0.9-32.6,45.8-36.1,49.5c-1.8,1.9-5.1-0.1-66.1-41.5c-35.3-23.9-64.8-44.1-65.6-44.9
		c-1.1-1-0.2-2.9,3.9-8.5l5.3-7.2l85.7-48.5c47.2-26.6,87-49.1,88.5-49.9c2.6-1.4,1.8-2-19.2-16.4l-21.9-14.9l-15.6,15.8l-15.6,15.9
		l-11.2-7.4l-11.2-7.4l6.8-9.3c3.7-5,12.2-16.6,18.8-25.7c6.7-9.1,12.5-16.6,13-16.6C1789.2,304.4,1817.4,323.2,1851.4,346.3z
		 M687.1,338.5l5.8,8.2l-5.9,5.1c-3.3,2.8-7.4,6.4-9.4,8.1l-3.4,3l29,43.2c47.4,70.4,69.3,101.9,71,101.8c0.9-0.1,9.6-5.5,19.3-12.2
		l17.6-12l-9.5-21c-5.2-11.6-9.5-21.5-9.5-22c0-0.6,5-4.3,11.1-8.3c10-6.8,11.1-7.2,12.4-5.4c3.3,4.4,34.3,55.7,34,56.1
		c-0.5,0.5-125.1,85-129.9,88l-3,1.9l-5.6-8.5l-5.8-8.3l7.9-7l7.8-6.9l-6.3-9.8c-7.9-12.2-49.9-74.4-73.9-109.3l-17.9-26.1l-9.4,5
		l-9.4,5l-5.4-8.1c-3.6-5.4-5.1-8.6-4.4-9.6c1-1.5,85.1-58.8,86.4-58.9C681.1,330.4,684,334.1,687.1,338.5z M1304.4,466.9
		c77.5,5.8,150.4,21.4,218.8,47c155,58,286.7,162.1,378.8,299.4c67.2,100.1,109.6,211.7,125.7,331c7.9,58.4,8.9,127.8,2.7,187.3
		c-23.9,232.8-152,443.3-348.5,573.2c-114.4,75.6-243.9,119-382.5,128.2c-21,1.4-73.7,1.7-90.1,0.6c-61.4-4.3-100.8-10.2-151-22.8
		c-158.6-39.6-302.9-130-408.9-256.1c-140.2-166.9-203.9-380-178.6-597.9C495.2,945.5,607.2,751.1,779,622.2
		c125.7-94.4,270.9-147.1,430.7-156.4C1229.6,464.7,1283.7,465.3,1304.4,466.9z M529.2,588.7c52.8,20.4,96.6,37.2,97.5,37.2
		c0.8,0,3.7-2.3,6.4-5.1c2.7-2.8,5.4-5.1,6-5.1c1.5,0,14.3,10.4,14.3,11.5c0,1.7-60,77.1-61.2,76.8c-1.5-0.5-14.4-10.8-14.4-11.5
		c0-0.3,2.3-4.6,5.1-9.5c5-8.7,5-8.8,2.5-9.7c-1.4-0.6-9.3-3.8-17.5-7.3c-8.3-3.5-15.5-6.3-16-6.3c-1.2,0-35,42.5-35,44.1
		c0,0.9,17.4,25.8,21,30.2c0.2,0.2,3.9-2.7,8.2-6.5l7.9-7l8,6.3c4.7,3.8,7.6,7,7.1,7.8c-1.5,2.4-37.8,48.1-38.7,48.6
		s-15-10.2-15.6-12c-0.2-0.6,2.1-5.5,5.3-11.1l5.8-10.2l-57.7-83.8c-31.7-46.1-57.9-84.4-58.2-85.2c-0.6-1.4,20.9-29.7,22.5-29.7
		C432.8,551.5,476.4,568.2,529.2,588.7z M2092.4,570.3c6,7.4,10.8,14,10.8,14.3c0,0.3-26.4,38.8-58.7,85.6
		c-32.3,46.8-58.7,85.7-58.7,86.4c0,0.7,1.5,3.6,3.3,6.5c1.8,3,3.5,6,3.7,6.7c0.2,0.8-2.9,3.9-6.9,7.1l-7.3,5.9l-2.4-2.6
		c-2.6-2.7-57-71.5-58.4-73.9c-0.7-1.1,12.4-12.7,14.4-12.7c0.5,0,4.1,3.2,8,7c3.9,3.8,7.4,6.7,7.7,6.4c2.9-3.4,22.1-30.6,22.1-31.5
		c0-1.6-33.7-44-35.1-44s-31.8,12.5-32.9,13.5c-0.6,0.5,1,4.6,3.4,9.1c2.4,4.6,4.4,8.7,4.6,9c0.6,1.2-15.8,13.8-16.6,12.6
		c-0.3-0.6-9.1-11.7-19.5-24.8c-10.5-13.1-19-24.3-19-24.9c0-0.9,10.6-9.7,14.3-12c0.9-0.5,4.7,2.4,9.9,7.2c4.7,4.3,8.9,7.9,9.4,7.9
		c0.5,0,43.2-16.5,95-36.6c51.8-20.1,95-36.6,96-36.4C2080.6,556.5,2086.4,562.8,2092.4,570.3z M543.9,851.2c0,0.3-4.3,8.7-9.6,18.5
		c-46,85.7-77.6,186.7-89,284.9c-4.1,35.1-4.6,46.8-4.6,96.5c0.1,39.3,0.6,54.6,2,70.5c6.7,67.9,19.5,128.5,40.1,189
		c13.9,40.5,26,68.9,47,110.2l14,27.4H359.5c-179.3,0-184.5-0.1-185.5-2.1c-2.1-3.9-20.3-59.2-26-79.2
		c-21.2-74.2-34.9-151.1-41.4-232.3c-2.4-30.7-3.4-107.1-1.7-139.3c5.8-111.8,25.2-214,60.4-317c3.9-11.8,7.8-22.8,8.5-24.6l1.2-3
		h184.5C460.9,850.5,543.9,850.8,543.9,851.2z M2326.5,855.3c3.6,8.3,18.1,52.5,24.4,74.2c51.9,179.2,59.2,369.7,21.4,553.9
		c-10.6,51.8-24,98.8-45.1,159.3l-1.9,5.4h-184.9h-184.9l4.1-7.1c7.4-13.2,28.1-55.5,35.3-72.4c35.8-84.1,55.8-167.2,63.4-262.3
		c2-25.5,1.8-92.5-0.6-119.6c-9.8-117.3-41.1-222.4-96.6-325.4l-5.9-10.8h184.6h184.7L2326.5,855.3z M561.4,1799.7
		c20.2,26.6,37,49,37.3,49.8c0.5,1.2-31.6,28.9-33.5,28.9c-0.3,0-3-3.2-6-6.9l-5.4-6.9l4.3-4.7c2.5-2.5,7.3-7.7,10.8-11.4l6.4-6.8
		l-14.1-18.6c-7.8-10.3-15-19.5-16-20.5c-1.8-1.8-3.3-1-24.9,15.5c-12.6,9.5-23.5,17.8-24,18.4c-0.8,0.8,7.7,13,19,27.1
		c0.1,0.2,4.3-1.9,9.4-4.7c5-2.8,9.5-5.2,10-5.2c1.7,0,8.5,10.3,7.4,11.3c-5.4,4.9-46.1,35-47,34.6c-0.6-0.1-2.6-2.5-4.5-5.1
		l-3.5-4.9l8.6-8.7l8.7-8.7l-10.2-13.3l-10.2-13.2l-9.3,7c-20.1,15.2-40.8,31.6-41.2,32.5c-0.2,0.5,2.3,5.1,5.4,10.3l5.6,9.5
		l-4.2,3.6c-2.4,2-4.7,3.5-5.4,3.4c-1.1-0.5-47.8-60.6-47.8-61.7c0-0.3,2.1-2.1,4.9-4.2l5-3.6l7.4,7.8l7.6,7.8l13.2-9.9
		c16.5-12.3,79.4-60.5,89.6-68.6l7.6-6l-5-8.3c-2.8-4.5-5.1-8.8-5.1-9.5c0-0.6,1.9-2.7,4.3-4.5c3.9-3.3,4.3-3.4,6.1-1.6
		C523.7,1750.5,541.1,1773.2,561.4,1799.7z M1996.5,1788.4c7.2,3.3,15,10.6,18.2,17.1c1.8,3.6,2.3,6.8,2.3,16.4
		c0,10.2-0.5,12.9-3,18.7l-2.9,6.9l7.3-5.5c9.1-6.9,14.3-9.5,23.1-11.7c12.7-3.3,25.5,0.5,35.3,10.3c17.1,17,15.2,44-5.1,73.1
		c-7,10-50.9,64.3-52.5,64.8c-0.6,0.1-3-1.4-5.4-3.4l-4.3-3.6l5.8-8.9c4.7-7.2,5.5-9.1,4.3-10.3c-5.6-5.1-36.2-30-81.9-66.7
		l-24.5-19.6l-7.6,7.6c-8.3,8.2-7.3,8.1-15.3,1.8l-2.5-2l27-33.4c14.8-18.3,30-36.1,33.8-39.6c7.6-6.8,17.5-12.6,24.5-14.3
		C1979.8,1784.2,1989.5,1785.3,1996.5,1788.4z M640.4,1890.5c13.7,12.1,26.3,23.5,28.2,25.2l3.3,3.3l-4.3,4.4l-4.3,4.4l-9.6-6.8
		l-9.6-6.8l-7,7.7c-18.6,20.4-48,53.8-53.8,61.2c-13.8,17.1-17.9,33.3-11.8,45.7c3.6,7.3,12.7,16.4,21.1,20.6
		c14.1,7.2,30.1,2.6,46.9-13.5c8.3-7.9,61.4-67.2,62.2-69.4c0.1-0.5-3.3-4.9-7.6-9.6l-8-8.8l3.6-4.4c1.9-2.4,3.9-4.4,4.5-4.4
		s11.2,8.9,23.5,19.9l22.5,19.9l-3.5,4.4c-1.9,2.4-3.9,4.4-4.6,4.4c-0.6,0-4.7-2.6-9.4-5.9c-7.2-4.9-8.7-5.5-9.9-4.2
		c-0.8,0.9-15,16.9-31.5,35.7c-19.4,21.9-33.1,36.3-38.2,40.5c-15.5,12.1-29.1,17-43.8,15.9c-10.8-0.8-17.3-3-27.4-9.8
		c-24.1-15.8-37.2-39.6-33.6-60.9c3-17.7,9.1-27,45.2-67.7c15.6-17.7,29.9-34.1,31.8-36.4l3.4-4.2l-6.8-7l-6.8-7l3.9-4.9
		c2.4-2.8,4.5-4.5,5.3-4.1C615,1868.3,626.8,1878.6,640.4,1890.5z M1880.7,1891.9l3.6,4.4l-7.4,7.9l-7.4,8l21.3,25.6
		c11.7,14.2,24.6,29.8,28.7,34.8c20,24.4,26.5,39.4,25.6,58.4c-0.7,12.7-3.4,20.1-10.9,30.2c-6.3,8.3-18.8,18.8-28.3,23.6
		c-10.8,5.4-18.4,7.1-29.4,6.5c-8.8-0.6-11.1-1.1-19.3-5.3c-5.2-2.6-12.3-7.2-16-10.5c-4.9-4.3-51-58.1-69.2-80.7
		c-1.1-1.4-2.5-0.9-9,3.5c-4.2,2.8-8.1,5.2-8.8,5.1c-0.6,0-2.6-1.8-4.4-4.1c-2.4-2.7-3-4.4-2.3-5.4c1.6-2.5,57-48,58.3-48
		c1.1,0,2.6,1.6,6.1,6.5c1.8,2.6,1.7,2.8-6.4,10.9l-8.2,8.3l4.5,5.4c2.5,2.9,15.1,18.4,28.2,34.2c34.4,41.7,43.3,49.4,59.1,50.5
		c6.8,0.5,8.5,0.1,14.8-2.8c9.1-4.4,18.1-12.4,21.7-19.7c6.5-13.2,2.1-31.7-12.2-50c-4.5-5.8-52.4-63.7-54.4-65.9
		c-1.2-1.4-2.8-0.7-11.2,4.7c-5.2,3.5-10,6.4-10.5,6.4c-0.6,0-2.6-2-4.6-4.5l-3.5-4.4l22.8-19.2c12.6-10.5,23.5-19.2,24-19.2
		C1876.5,1887.5,1878.7,1889.4,1880.7,1891.9z M733,1902.7c7.7,3.6,9.6,13,3.9,18.6c-5.8,5.6-9.7,5.1-55.7-7.8
		c-1.7-0.5-1.9-1.5-1.7-5.8l0.3-5.2l9-0.7c5-0.3,16-0.7,24.6-0.8C726,1900.9,730,1901.2,733,1902.7z M817.2,2024.4
		c33.7,19.5,61.4,36,61.6,36.6c0.3,1-8.1,17.1-18.1,34.9l-3.4,6l-7.4-4.2c-4.2-2.3-7.8-4.3-8-4.5c-0.1-0.1,2.4-7.3,5.6-15.8
		c3.3-8.6,5.5-15.7,5-15.9c-0.7-0.2-7-3.9-14.1-8.2c-12.7-7.7-13-7.8-14.7-5.4c-4.6,6.4-69.3,118.2-68.6,118.7
		c0.1,0.2,4.4,3.3,9.4,6.9c5,3.6,9.3,6.7,9.4,6.9c0.6,0.3-5.5,10.6-6.2,10.6c-1,0-67.4-38.5-69-40.1c-1.2-1.2-1-2.3,1.5-6.5l3-5.1
		l10.8,4.9c10,4.5,11.1,4.7,12.3,3c5-7.2,68.1-116.9,68.1-118.4c0-0.9-24.1-15.6-26.9-16.4c-0.6-0.2-5.8,5.3-11.4,12.3l-10.3,12.6
		l-7.9-4.5c-7.4-4.4-7.8-4.7-6.4-7.1c3.8-7.1,22.9-36.8,23.6-36.8C755.5,1988.9,783.5,2004.9,817.2,2024.4z M1692.3,2030.6
		c1.4,2.4,2.5,4.9,2.5,5.4c0,0.6-3.8,3.7-8.5,7c-4.6,3.3-8.5,6.4-8.5,7.1c0,1.2,21,39.6,45.7,83.7c21.5,38.4,21.3,37.8,22.1,37.5
		c0.3-0.1,10.2-5.5,21.7-12c13.4-7.6,21.1-12.5,21.1-13.5s-2.3-8.8-5-17.4l-5-15.5l8-4.5l8.1-4.5l10.5,21.1
		c5.6,11.6,10.4,21.7,10.4,22.5c0,0.7-25.2,15.3-56.1,32.6c-42.6,23.7-56.2,30.8-57,29.7c-0.6-0.8-1.9-3.3-3.2-5.5l-2.1-4.1l8.5-5.9
		c4.5-3.3,8.3-6.3,8.3-6.9c0-1.2-9.9-19.5-38.7-71.1c-22.9-41.2-27.9-49.6-29-49.6c-0.5,0-3.8,1.4-7.4,2.9
		c-12.2,5.4-11.3,5.4-14.7-0.3l-3-5.3l2.6-1.7c4.9-3.3,63.7-36,64.9-36.1C1689.2,2026.2,1690.8,2028.2,1692.3,2030.6z M941.2,2084
		c42.2,14.8,47.7,17.1,57.1,24.1c12.1,9,17.6,19,17.6,31.4c-0.1,14.3-6.8,26.3-17.9,32.4c-6.5,3.6-18.6,5.9-27,5.2l-6.1-0.6l8.1,5.4
		c10.4,6.8,18.2,15.1,22,23.4c8.9,19.4-2.5,44.1-23.7,51.7c-11.6,4.1-30,4.1-46.6-0.2c-7.8-2-78.5-26.4-79.9-27.5
		c-0.5-0.3,0-3.2,1-6.1c2.1-6.1,1.6-6.1,16.6-2.5c6.4,1.6,6.5,1.6,7.4-0.8c11.2-29.6,44.3-127.4,43.7-128.8c-0.2-0.8-4.4-3-9.1-5.2
		c-7.9-3.5-8.6-4.1-8-6.7c0.9-4.5,2.8-9,3.8-9C900.8,2070.1,919.2,2076.5,941.2,2084z M1593.1,2082.3l5,0.8l6.5,18.1
		c3.6,9.8,6.4,18.2,6.2,18.3c-0.1,0.2-3.9,1.6-8.3,3c-6,2-8.2,2.4-9,1.5c-0.6-0.8-4.3-7.1-8.1-14.2l-7.1-12.7l-10.3,0.5
		c-8.5,0.5-11.6,1.1-17.9,4.1c-20.1,9.3-31.4,30.6-29.7,56.1c1.7,27,13.9,55.5,30.2,71.2c13.9,13.3,29.4,17.8,46.4,13.4
		c7.8-2,18.1-7.1,23.2-11.5l3.8-3.3l-1.9-15.6c-1.1-8.6-1.8-15.7-1.6-15.8c1.4-1.1,15.8-5.3,16.5-4.7c1.2,1.4,11.2,35.1,10.6,36.6
		c-0.8,2.3-16.6,14.4-24.5,18.8c-9.4,5.3-25.8,11.2-36.3,13c-12.3,2.3-31.5,0.9-42.4-2.8c-26.3-9.1-46.5-32.9-55.1-64.9
		c-3.4-12.6-3.7-35.1-0.6-46.3c8.9-32.2,36.8-55.8,73.7-62.5C1571.9,2081.5,1585.2,2081.1,1593.1,2082.3z M1150.8,2132.9
		c24.3,8,42.6,27.5,50,52.9c2.3,7.9,2.6,11.4,2.5,27.1c-0.1,15.7-0.5,19.5-3,29.1c-7.9,29.4-27.5,51.7-53.1,60.2
		c-8,2.7-10.9,3-23.8,3c-11.1,0.1-16.4-0.5-21.4-1.9c-26.9-8.2-45-26.3-53.6-53.3c-3.5-11.1-4.4-34.4-1.8-48.4
		c7.3-38.7,30.7-64.5,65.1-71.8c2.7-0.6,10.6-0.9,17.4-0.7C1138.9,2129.6,1143.3,2130.3,1150.8,2132.9z M1314.5,2146.2v6l-8.7,1.4
		c-13.7,2.1-12.7,1.5-12.7,10.3c0,12.9,6.3,131,7.1,131.4c0.7,0.6,49.4-2.5,50-3c0.3-0.3,1.7-8.2,3-17.4l2.6-16.8l5-0.8
		c2.8-0.3,7-0.8,9.4-0.8l4.2-0.1v24.8v24.8h-2.5c-4.1,0-107.5,5.4-118,6.2l-9.4,0.7l0.3-6.5l0.3-6.5l10.4-1.5l10.5-1.6l-0.6-9.3
		c-0.3-5-1.1-20.1-1.7-33.4c-2-42.4-4.5-87.3-5.2-92.3l-0.6-4.7h-7.1c-3.9,0-8.8-0.3-10.7-0.7c-3.4-0.7-3.5-0.9-3.5-6.8v-6.1l6-0.1
		c3.2,0,16.6-0.8,29.6-1.5c13.1-0.8,27.9-1.6,33.1-1.7l9.3-0.1L1314.5,2146.2L1314.5,2146.2z"/>
	<path class="st0" d="M1177.7,248.8c-2.9,13-7.1,30.8-9.1,39.7l-3.8,16.1l9.3-0.7c5-0.3,14.8-1,21.5-1.4c6.9-0.3,12.6-0.9,12.9-1
		c0.3-0.5-24.6-76.2-25.2-76.2C1183.1,225.4,1180.6,235.9,1177.7,248.8z"/>
	<path class="st0" d="M1229.9,832.5c-55.3,5.4-106.5,25.4-150.8,58.7c-14.2,10.7-38.7,34.5-50.3,49c-36,44.7-58.1,98.3-64.1,154.9
		c-1.7,16.7-0.7,59.1,1.7,73.6c5.9,34.8,14.8,61.6,29.9,90.9c35.7,68.8,96.6,120.4,170.6,144.3c29.9,9.7,54,13.4,86.8,13.5
		c28.5,0,44.8-1.9,70.5-8.5c51.7-13.2,94.7-37.1,132.5-73.8c47.2-45.9,75.9-101.9,86.4-168.5c3.9-24.6,3.4-64.9-1.1-91.4
		c-21.7-124.9-121.3-222-247-240.8C1277.5,832,1245.3,831,1229.9,832.5z M1167.9,881.2l0.1,7.1l42.2,27.6
		c23.1,15.2,42.9,27.8,43.7,27.9c0.8,0.2,20.8-12.3,44.3-27.6l42.9-28.1l0.3-6.9c0.2-3.8,0.6-7,0.8-7c1.9,0,18.1,6.9,28.8,12.3
		c19,9.5,33.4,18.8,50.8,32.8l2.8,2.3l-3.4,2.7c-1.8,1.5-4.5,3.6-5.9,4.7l-2.6,2.1l1.7,55.2c0.9,30.4,1.8,55.3,1.9,55.5
		c0.2,0.1,20.1,12.6,44.2,27.9l44,27.6l6-2.6c3.7-1.7,6.2-2.3,6.7-1.6c1.5,2.5,1.9,43.6,0.6,56.9c-3.6,35.2-13.3,67.7-29,97.5
		c-9.5,17.9-7.7,17.5-17.8,4.6c-8.3-10.6-8.9-11.1-12.3-10.5c-2,0.3-25.7,4.2-52.7,8.7l-49,8l-17.3,29.3
		c-9.5,16.1-22.5,38.1-28.7,48.9l-11.4,19.4l8.5,13.3c4.7,7.2,8.2,13.5,7.8,13.9c-0.5,0.5-6.7,1.8-13.8,3.2
		c-34.2,6.2-62.4,6.1-98.5-0.6c-5.4-1-10-2.3-10.4-2.8c-0.3-0.5,3.3-6.8,8-13.9l8.6-13l-28.8-48.9l-28.8-48.9l-52.9-8.7
		c-29-4.7-52.8-8.6-52.9-8.5c-0.3,1.1-16.6,21.1-17.1,21.1c-1.1,0-10.5-17.3-15.8-29c-10.5-23.4-17.6-48.9-21.1-75.1
		c-1.7-13.5-2.3-50.5-0.8-60.8l0.8-5.2l6.1,2.5l6,2.6l44.2-27.6c24.3-15.2,44.2-27.6,44.3-27.8c0.1-0.1,0.8-25,1.6-55.6l1.5-55.5
		l-2.8-2.1c-1.5-1.2-3.9-3.3-5.5-4.6l-2.8-2.5l4.3-3.6c8.3-7,24-17.7,36.1-24.6c11.5-6.7,38-18.8,41.2-19.1
		C1167.4,874.2,1167.9,876.3,1167.9,881.2z"/>
	<path class="st0" d="M1197.1,1042.9c-31.3,22.7-57.3,42-57.9,42.8c-0.7,1,6.4,24.5,21.3,70.5l22.5,68.9l71.6-0.2l71.6-0.3
		l22.3-69.3c12.4-38,22.3-69.3,22.1-69.5c-1.2-1.1-116.1-84.1-116.3-84.1C1254.2,1001.7,1228.5,1020.2,1197.1,1042.9z"/>
	<path class="st0" d="M663.5,1545.6v20.6l7.1,7c13.7,13.3,33.3,20,58.9,20s45.6-6.8,58.8-20l6.9-6.9l4.3,5
		c10.9,12.4,32.8,21.1,56.1,22c27.3,1.1,53.3-7.7,65.8-22.1l4.4-5.1l6.7,6.7c27.6,27.5,91.5,27.5,119.3-0.2l6.2-6.2l4.5,5
		c12,13.1,32.4,21.1,56.2,22c13.9,0.6,25.2-1,37.3-5.1c12.4-4.2,21.3-9.4,27.9-16.5l5-5.4l6.4,6.5c7.4,7.6,20,14.1,34.2,17.8
		c12.9,3.4,35.7,3.4,49.3,0.1c16.6-4.1,30.7-11.8,38.7-21.4l3-3.7l2.8,3.7c13,17.7,47.3,27.6,78.8,22.9c18.5-2.8,33.3-9.6,43.4-19.9
		l6.3-6.3l4.1,4.7c6.2,7.1,15.9,13,28,17.1c34,11.5,75,4.3,94.2-16.7l4.5-5l6.2,6.2c7.1,7,18.3,13.4,29.9,16.8
		c31.9,9.4,71.2,2,89.6-16.8l6-6.2l7,6.9c19.9,19.6,59.3,26,92.1,14.8c12.3-4.2,21.7-10,28.2-17.4l4.5-5.2v-20.1v-20.2l-6.5,6.4
		c-11.4,11.5-28.2,18.5-49,20.5c-11.2,1.1-15.1,1-27.4-0.6c-15.5-2-32.7-10-42.6-19.9l-6.5-6.4l-4.7,5.2c-13,14.2-34.6,22-61.2,22
		c-24.5,0-43.9-6.7-57.8-19.9l-7.4-7l-6.3,6.3c-11.1,11.1-28.2,18.2-48.3,20.2c-27.6,2.8-54.7-5-70.1-20.1l-6.8-6.7l-7.1,7
		c-28.1,27.2-89,27.3-117,0l-7.2-6.9l-5.2,5.5c-20.6,22.1-68.4,28.4-101.1,13.4c-7.9-3.6-18.1-10.9-21.9-15.9l-2.6-3.3l-6.5,6.5
		c-21,21-63.9,27.2-96.7,14.1c-9.6-3.8-19.3-10.3-24.4-16.1l-3.8-4.5l-7.3,7.1c-13.7,13.3-33.3,20.1-58,20.1
		c-17.1,0-28.5-2.4-42-8.7c-7.6-3.5-12.3-6.7-17.3-11.6l-7-6.8l-6.4,6.4c-15.2,15.2-41.9,23-69.8,20.3c-20.3-1.9-37.6-9-48.9-20.3
		l-6.3-6.3l-6.2,6.4c-20,20.2-61.2,26.9-93.9,15c-10.3-3.7-20.9-10.5-26.6-16.9l-4.5-5.2L663.5,1545.6L663.5,1545.6z"/>
	<path class="st0" d="M663.5,1619.2v21.3l6.5,6.5c10.2,10.2,28.2,18.2,44.5,19.7c3.8,0.5,8.9,0.9,11.1,1.2c2.1,0.2,8.9,0,15.2-0.7
		c20.8-2.3,40.2-10.8,49.9-21.9l4.1-4.6l6.3,6.2c18.7,18.4,54.6,25.6,86.4,17.5c11.5-2.9,25.2-10.4,32.5-17.6l6.4-6.5l5.3,5.6
		c27.3,29.2,92.5,29,120.8-0.3l4.9-5.1l6.4,6.4c7.2,7.2,21.1,14.7,32.7,17.6c31.8,7.9,67.6,0.7,86-17.6l6.3-6.2l6.3,6.4
		c14.8,14.8,43.7,23,70.7,20c20.1-2.3,38.5-10,48.5-20.8l5.8-6.1l5.3,5.6c14.8,15.8,44.5,24.5,71.9,21.2c20.9-2.5,38.6-10.4,49-21.7
		l4.7-5.3l6.5,6.5c18.5,18.5,54.5,25.8,86.5,17.7c11.4-2.9,25.2-10.4,32.3-17.5l6.3-6.3l7.4,7c20.6,19.5,58.1,25.7,90.8,14.9
		c11.8-3.9,21-9.4,28.2-16.9l4.9-5.1l6.7,6.7c13.9,13.8,39.2,21.8,64.9,20.4c23.6-1.1,47.7-11.5,57.1-24.4l3.3-4.5v-19.9v-19.9
		l-5.2,5.4c-13.8,14.4-34.9,22.2-60.7,22.3c-15.8,0-32.3-3.4-43.6-9.1c-6.8-3.4-17.7-12.1-19.7-15.6l-2-3.3l-6.9,7
		c-5.1,5.2-9.4,8.2-16.5,11.6c-13.4,6.4-20.9,8.2-37.6,8.9c-28.4,1.2-49-5.2-64.4-20.1l-6.5-6.4l-6,5.9
		c-13.7,13.8-33.8,21-58.9,21.1c-26.3,0.1-48.1-7.8-61.3-22.2l-5.1-5.5l-6.8,6.8c-7.9,7.9-18.5,13.9-31.6,17.7
		c-7.8,2.3-11.5,2.6-27.6,2.6s-19.9-0.3-27.6-2.6c-12.6-3.7-23.7-9.8-31.3-17.3l-6.5-6.4l-6.8,6.7c-7.4,7.2-20.1,14.1-32.7,17.6
		c-10.4,2.8-41.4,2.9-51.9,0c-13.2-3.6-25.4-10.3-33.2-17.9l-6.9-7.1l-5.1,5.5c-26.6,29.1-91.4,30-119.7,1.7l-6.4-6.4l-6.5,6.4
		c-7.8,7.4-19.1,13.7-31.5,17.3c-7.8,2.3-11.5,2.6-27.6,2.6c-21.3,0-27.4-1.2-42.6-8.6c-6.9-3.4-11.4-6.5-16.7-11.8
		c-3.9-3.9-7.2-6.8-7.2-6.3c0,0.5-2.1,3-4.6,5.8c-28.1,29.2-94.1,28.9-121.3-0.7l-4.6-5.1l-6.1,6.4c-6.8,7.1-21.1,14.9-33.7,18.3
		c-10.5,2.9-41.5,2.8-51.9,0c-15.3-4.3-31.8-14.3-37.1-22.6l-2.4-3.6L663.5,1619.2L663.5,1619.2z"/>
	<path class="st0" d="M457.7,622.2c3.6,5.5,42.3,59.6,43.8,61c1.2,1.2,3.9-1.6,14.7-15.2c7.2-9.1,13.1-17,13.1-17.4
		c0-0.5-11.1-5.3-24.5-10.9c-13.5-5.6-30.1-12.5-36.9-15.5l-12.2-5.1L457.7,622.2z"/>
	<path class="st0" d="M1993.5,607.1c-19.7,8.1-35.9,15.1-35.9,15.5c0,0.9,25.7,33.2,26.7,33.5c0.8,0.1,45.4-60.4,46.4-63
		c0.2-0.6,0-1-0.6-0.9C2029.8,592.3,2013.2,599,1993.5,607.1z"/>
	<path class="st2" d="M1956.9,1815.3c-4.6,2.3-17.4,14.8-21.4,20.9c-1.7,2.6-1.7,3.2-0.2,4.3c0.9,0.7,11.5,9.3,23.5,19.1
		c12,9.8,21.9,17.7,22,17.5c0.1-0.2,2.7-3.4,5.8-7.1c11.4-14.2,14.7-26.9,9.5-37.5c-2.7-5.6-12.1-14.4-18.5-17.4
		C1971.3,1812.2,1962.7,1812.3,1956.9,1815.3z"/>
	<path class="st2" d="M2021.4,1857.5c-2.5,0.9-7.3,3.9-10.9,6.7c-7.3,5.9-19.5,20.3-18.4,22.1c1.1,1.9,49.9,40.6,51.1,40.6
		c1.7,0,13.1-15.5,16.6-22.6c3.7-7.3,5-18.8,2.8-25.3c-1.8-5.6-10.9-15.3-18.1-19.2C2037.4,1856,2028.1,1855,2021.4,1857.5z"/>
	<path class="st2" d="M937.3,2128.5c-5.4,15.2-9.6,28.3-9.4,29.1c0.9,2.3,20,7.3,27.4,7.3c8.2,0,13.5-2,18.6-7
		c7.3-7.3,12.3-23.1,9.9-31.8c-2.6-9.9-9.6-15.7-26.5-21.7l-10.3-3.7L937.3,2128.5z"/>
	<path class="st2" d="M912,2201.2c-5.8,16.9-10.4,31.4-10.4,32.2s5,2.9,11.1,5c12.3,3.9,24.8,4.9,32.3,2.3c13.4-4.7,23.4-24,20-39.3
		c-1.1-5-2.6-7.6-6.7-11.8c-6.4-6.9-11.2-9.7-24.8-14.9c-5.9-2.3-10.7-4.1-10.8-4.1C922.5,2170.6,917.7,2184.4,912,2201.2z"/>
	<path class="st2" d="M1115.4,2146.7c-20.9,9.8-34.9,45.2-34.6,87.6c0.1,23.1,5,38,15.7,48.1c14,13.1,35.9,11.6,49-3.4
		c13.5-15.3,21.1-40.2,22.1-72.3c0.6-20.8-0.7-30.2-5.9-41.5C1153.1,2146.4,1133,2138.4,1115.4,2146.7z"/>
	<path class="st2" d="M2325.5,1647.8l-0.1,0.3h-184.9h-184.9l0.2-0.3h-29.4c-60,101.8-143.2,190.1-244.4,257
		c-114.4,75.6-243.9,119-382.5,128.2c-21,1.4-73.7,1.7-90.1,0.6c-61.4-4.3-100.8-10.2-151-22.8c-158.6-39.6-302.9-130-408.9-256.1
		c-28.4-33.8-53.7-69.6-75.7-106.8h-30l0.2,0.3H359.5c-93.8,0-139.9,0-162.7-0.3h-49.1c25.6,71.1,58.2,139.7,97.1,204.6
		c37.3,62.2,80.8,121.2,130.9,177.7c19.1,21.5,79.1,81.1,101.2,100.4c165,144,361,237.6,574.2,274.2c65.2,11.2,111.4,15.2,183.1,16
		c55.2,0.7,81-0.2,125-4.3c214.1-19.5,421.2-99.4,593-228.6c149-112.1,266.9-253.9,348.9-419.7c19.4-39.2,36.4-79.3,51.3-120.3
		H2325.5z M679.6,1907.8l0.3-5.2l9-0.7c5-0.3,16-0.7,24.6-0.8c12.5-0.2,16.5,0.1,19.5,1.6c7.7,3.6,9.6,13,3.9,18.6
		c-5.8,5.6-9.7,5.1-55.7-7.8C679.6,1913.1,679.3,1912.1,679.6,1907.8z M490.6,1894.4l-3.5-4.9l8.6-8.7l8.7-8.7l-10.2-13.3
		l-10.2-13.2l-9.3,7c-20.1,15.2-40.8,31.6-41.2,32.5c-0.2,0.5,2.3,5.1,5.4,10.3l5.6,9.5l-4.2,3.6c-2.4,2-4.7,3.5-5.4,3.4
		c-1.1-0.5-47.8-60.6-47.8-61.7c0-0.3,2.1-2.1,4.9-4.2l5-3.6l7.4,7.8l7.6,7.8l13.2-9.9c16.5-12.3,79.4-60.5,89.6-68.6l7.6-6l-5-8.3
		c-2.8-4.5-5.1-8.8-5.1-9.5c0-0.6,1.9-2.7,4.3-4.5c3.9-3.3,4.3-3.4,6.1-1.6c1,1,18.4,23.7,38.7,50.2c20.2,26.6,37,49,37.3,49.8
		c0.5,1.2-31.6,28.9-33.5,28.9c-0.3,0-3-3.2-6-6.9l-5.4-6.9l4.3-4.7c2.5-2.5,7.3-7.7,10.8-11.4l6.4-6.8l-14.1-18.6
		c-7.8-10.3-15-19.5-16-20.5c-1.8-1.8-3.3-1-24.9,15.5c-12.6,9.5-23.5,17.8-24,18.4c-0.8,0.8,7.7,13,19,27.1
		c0.1,0.2,4.3-1.9,9.4-4.7c5-2.8,9.5-5.2,10-5.2c1.7,0,8.5,10.3,7.4,11.3c-5.4,4.9-46.1,35-47,34.6
		C494.5,1899.3,492.5,1896.9,490.6,1894.4z M643,2053.9c-15.5,12.1-29.1,17-43.8,15.9c-10.8-0.8-17.3-3-27.4-9.8
		c-24.1-15.8-37.2-39.6-33.6-60.9c3-17.7,9.1-27,45.2-67.7c15.6-17.7,29.9-34.1,31.8-36.4l3.4-4.2l-6.8-7l-6.8-7l3.9-4.9
		c2.4-2.8,4.5-4.5,5.3-4.1c0.7,0.5,12.4,10.7,26.1,22.7c13.7,12.1,26.3,23.5,28.2,25.2l3.3,3.3l-4.3,4.4l-4.3,4.4l-9.6-6.8l-9.6-6.8
		l-7,7.7c-18.6,20.4-48,53.8-53.8,61.2c-13.8,17.1-17.9,33.3-11.8,45.7c3.6,7.3,12.7,16.4,21.1,20.6c14.1,7.2,30.1,2.6,46.9-13.5
		c8.3-7.9,61.4-67.2,62.2-69.4c0.1-0.5-3.3-4.9-7.6-9.6l-8-8.8l3.6-4.4c1.9-2.4,3.9-4.4,4.5-4.4s11.2,8.9,23.5,19.9l22.5,19.9
		l-3.5,4.4c-1.9,2.4-3.9,4.4-4.6,4.4c-0.6,0-4.7-2.6-9.4-5.9c-7.2-4.9-8.7-5.5-9.9-4.2c-0.8,0.9-15,16.9-31.5,35.7
		C661.8,2035.3,648.2,2049.7,643,2053.9z M852.5,2061.5c-0.7-0.2-7-3.9-14.1-8.2c-12.7-7.7-13-7.8-14.7-5.4
		c-4.6,6.4-69.3,118.2-68.6,118.7c0.1,0.2,4.4,3.3,9.4,6.9c5,3.6,9.3,6.7,9.4,6.9c0.6,0.3-5.5,10.6-6.2,10.6c-1,0-67.4-38.5-69-40.1
		c-1.2-1.2-1-2.3,1.5-6.5l3-5.1l10.8,4.9c10,4.5,11.1,4.7,12.3,3c5-7.2,68.1-116.9,68.1-118.4c0-0.9-24.1-15.6-26.9-16.4
		c-0.6-0.2-5.8,5.3-11.4,12.3l-10.3,12.6l-7.9-4.5c-7.4-4.4-7.8-4.7-6.4-7.1c3.8-7.1,22.9-36.8,23.6-36.8c0.3,0,28.3,16,62.1,35.5
		c33.7,19.5,61.4,36,61.6,36.6c0.3,1-8.1,17.1-18.1,34.9l-3.4,6l-7.4-4.2c-4.2-2.3-7.8-4.3-8-4.5c-0.1-0.1,2.4-7.3,5.6-15.8
		C850.8,2068.8,853.1,2061.7,852.5,2061.5z M998,2171.9c-6.5,3.6-18.6,5.9-27,5.2l-6.1-0.6l8.1,5.4c10.4,6.8,18.2,15.1,22,23.4
		c8.9,19.4-2.5,44.1-23.7,51.7c-11.6,4.1-30,4.1-46.6-0.2c-7.8-2-78.5-26.4-79.9-27.5c-0.5-0.3,0-3.2,1-6.1
		c2.1-6.1,1.6-6.1,16.6-2.5c6.4,1.6,6.5,1.6,7.4-0.8c11.2-29.6,44.3-127.4,43.7-128.8c-0.2-0.8-4.4-3-9.1-5.2
		c-7.9-3.5-8.6-4.1-8-6.7c0.9-4.5,2.8-9,3.8-9c0.6,0,19,6.3,41,13.9c42.2,14.8,47.7,17.1,57.1,24.1c12.1,9,17.6,19,17.6,31.4
		C1015.8,2153.9,1009.1,2165.8,998,2171.9z M1203.3,2212.9c-0.1,15.7-0.5,19.5-3,29.1c-7.9,29.4-27.5,51.7-53.1,60.2
		c-8,2.7-10.9,3-23.8,3c-11.1,0.1-16.4-0.5-21.4-1.9c-26.9-8.2-45-26.3-53.6-53.3c-3.5-11.1-4.4-34.4-1.8-48.4
		c7.3-38.7,30.7-64.5,65.1-71.8c2.7-0.6,10.6-0.9,17.4-0.7c9.9,0.3,14.3,1,21.9,3.6c24.3,8,42.6,27.5,50,52.9
		C1203.1,2193.7,1203.4,2197.2,1203.3,2212.9z M1374.3,2281.1v24.8h-2.5c-4.1,0-107.5,5.4-118,6.2l-9.4,0.7l0.3-6.5l0.3-6.5
		l10.4-1.5l10.5-1.6l-0.6-9.3c-0.3-5-1.1-20.1-1.7-33.4c-2-42.4-4.5-87.3-5.2-92.3l-0.6-4.7h-7.1c-3.9,0-8.8-0.3-10.7-0.7
		c-3.4-0.7-3.5-0.9-3.5-6.8v-6.1l6-0.1c3.2,0,16.6-0.8,29.6-1.5c13.1-0.8,27.9-1.6,33.1-1.7l9.3-0.1v6.1v6l-8.7,1.4
		c-13.7,2.1-12.7,1.5-12.7,10.3c0,12.9,6.3,131,7.1,131.4c0.7,0.6,49.4-2.5,50-3c0.3-0.3,1.7-8.2,3-17.4l2.6-16.8l5-0.8
		c2.8-0.3,7-0.8,9.4-0.8l4.2-0.1L1374.3,2281.1L1374.3,2281.1z M1647.6,2227.9c-0.8,2.3-16.6,14.4-24.5,18.8
		c-9.4,5.3-25.8,11.2-36.3,13c-12.3,2.3-31.5,0.9-42.4-2.8c-26.3-9.1-46.5-32.9-55.1-64.9c-3.4-12.6-3.7-35.1-0.6-46.3
		c8.9-32.2,36.8-55.8,73.7-62.5c9.5-1.7,22.8-2.1,30.7-0.9l5,0.8l6.5,18.1c3.6,9.8,6.4,18.2,6.2,18.3c-0.1,0.2-3.9,1.6-8.3,3
		c-6,2-8.2,2.4-9,1.5c-0.6-0.8-4.3-7.1-8.1-14.2l-7.1-12.7l-10.3,0.5c-8.5,0.5-11.6,1.1-17.9,4.1c-20.1,9.3-31.4,30.6-29.7,56.1
		c1.7,27,13.9,55.5,30.2,71.2c13.9,13.3,29.4,17.8,46.4,13.4c7.8-2,18.1-7.1,23.2-11.5l3.8-3.3l-1.9-15.6
		c-1.1-8.6-1.8-15.7-1.6-15.8c1.4-1.1,15.8-5.3,16.5-4.7C1638.2,2192.7,1648.2,2226.4,1647.6,2227.9z M1759.4,2180.1
		c-42.6,23.7-56.2,30.8-57,29.7c-0.6-0.8-1.9-3.3-3.2-5.5l-2.1-4.1l8.5-5.9c4.5-3.3,8.3-6.3,8.3-6.9c0-1.2-9.9-19.5-38.7-71.1
		c-22.9-41.2-27.9-49.6-29-49.6c-0.5,0-3.8,1.4-7.4,2.9c-12.2,5.4-11.3,5.4-14.7-0.3l-3-5.3l2.6-1.7c4.9-3.3,63.7-36,64.9-36.1
		c0.7,0,2.3,1.9,3.7,4.4c1.4,2.4,2.5,4.9,2.5,5.4s-3.8,3.7-8.5,7c-4.6,3.3-8.5,6.4-8.5,7.1c0,1.2,21,39.6,45.7,83.7
		c21.5,38.4,21.3,37.8,22.1,37.5c0.3-0.1,10.2-5.5,21.7-12c13.4-7.6,21.1-12.5,21.1-13.5s-2.3-8.8-5-17.4l-5-15.5l8-4.5l8.1-4.5
		l10.5,21.1c5.6,11.6,10.4,21.7,10.4,22.5C1815.5,2148.2,1790.3,2162.9,1759.4,2180.1z M1945,2031c-0.7,12.7-3.4,20.1-10.9,30.2
		c-6.3,8.3-18.8,18.8-28.3,23.6c-10.8,5.4-18.4,7.1-29.4,6.5c-8.8-0.6-11.1-1.1-19.3-5.3c-5.2-2.6-12.3-7.2-16-10.5
		c-4.9-4.3-51-58.1-69.2-80.7c-1.1-1.4-2.5-0.9-9,3.5c-4.2,2.8-8.1,5.2-8.8,5.1c-0.6,0-2.6-1.8-4.4-4.1c-2.4-2.7-3-4.4-2.3-5.4
		c1.6-2.5,57-48,58.3-48c1.1,0,2.6,1.6,6.1,6.5c1.8,2.6,1.7,2.8-6.4,10.9l-8.2,8.3l4.5,5.4c2.5,2.9,15.1,18.4,28.2,34.2
		c34.4,41.7,43.3,49.4,59.1,50.5c6.8,0.5,8.5,0.1,14.8-2.8c9.1-4.4,18.1-12.4,21.7-19.7c6.5-13.2,2.1-31.7-12.2-50
		c-4.5-5.8-52.4-63.7-54.4-65.9c-1.2-1.4-2.8-0.7-11.2,4.7c-5.2,3.5-10,6.4-10.5,6.4c-0.6,0-2.6-2-4.6-4.5l-3.5-4.4l22.8-19.2
		c12.6-10.5,23.5-19.2,24-19.2c0.7,0,2.8,1.9,4.9,4.4l3.6,4.4l-7.4,7.9l-7.4,8l21.3,25.6c11.7,14.2,24.6,29.8,28.7,34.8
		C1939.4,1996.9,1945.9,2011.9,1945,2031z M2071.6,1913.6c-7,10-50.9,64.3-52.5,64.8c-0.6,0.1-3-1.4-5.4-3.4l-4.3-3.6l5.8-8.9
		c4.7-7.2,5.5-9.1,4.3-10.3c-5.6-5.1-36.2-30-81.9-66.7l-24.5-19.6l-7.6,7.6c-8.3,8.2-7.3,8.1-15.3,1.8l-2.5-2l27-33.4
		c14.8-18.3,30-36.1,33.8-39.6c7.6-6.8,17.5-12.6,24.5-14.3c6.8-1.7,16.5-0.7,23.5,2.5c7.2,3.3,15,10.6,18.2,17.1
		c1.8,3.6,2.3,6.8,2.3,16.4c0,10.2-0.5,12.9-3,18.7l-2.9,6.9l7.3-5.5c9.1-6.9,14.3-9.5,23.1-11.7c12.7-3.3,25.5,0.5,35.3,10.3
		C2093.8,1857.6,2091.9,1884.5,2071.6,1913.6z"/>
	<path class="st0" d="M2054.1,1157.7c-23.8-209.1-127.8-399.9-291.4-534.2c-92.1-75.6-202.1-130.8-318.3-159.4
		c-43.6-10.7-85.1-17.4-135.1-21.4c-13.5-1.1-83.8-2.1-95.7-1.4c-2.3,0.1-10,0.6-17.1,1c-139.6,8.7-277,55.2-394.9,133.8
		c-92.3,61.4-172.3,142.5-232.1,235.2c-25.3,39.2-48.3,83-66.6,126.4c-51.8,123.5-71.8,258.5-58.2,394.6
		c10.6,107.5,44.1,214.5,96.7,309.4c80.2,144.6,202,260.9,349.6,334c87,43,178.6,69.4,275.7,79.5c46.4,4.7,103.2,5.4,149.8,1.5
		c179.4-15,345.4-87.3,478.9-208.8c64.6-58.9,122.3-132.1,164.7-209.6C2040.1,1492.6,2073.1,1323.8,2054.1,1157.7z M2031.1,1321
		c-14.3,158.4-76.6,309-178.7,431c-29.8,35.7-67.4,73.2-102.8,102.4c-89,73.7-194.2,127.2-305.2,155.4
		c-48.5,12.4-93.6,19.4-147.6,23.1c-17.6,1.1-76.8,1.1-94,0c-52.9-3.7-97.1-10.5-143.2-22c-115.3-28.8-221.1-82.8-313.5-160
		c-57.8-48.3-111-108-152.4-171.4c-67.9-103.7-110.1-221.4-123.4-343.3c-2.9-27.4-3.7-42.9-4.2-75.5c-0.8-61.4,3.5-108.3,14.9-165.7
		c18.2-90.9,51.6-175.8,100.1-254.9c127.4-207.1,343-343.9,583.3-370c12.7-1.4,38.8-3.4,51.8-4.1c10.8-0.6,75.4,0.2,85.4,1
		c78.6,6,145.9,20,214.6,44.8c93,33.6,175.9,82.7,252.3,149.5c14.8,13,54,51.9,66.7,66.2c113.5,128.4,180.9,283.4,196,451.3
		C2035.2,1223.7,2035.2,1276.2,2031.1,1321z"/>
</g>
</svg>
