<?xml version="1.0" encoding="UTF-8"?>
<svg id="Layer_1" data-name="Layer 1" xmlns="http://www.w3.org/2000/svg" viewBox="0 0 400 400">
  <defs>
    <style>
      .cls-1 {
        fill: #ed0022;
      }

      .cls-2 {
        fill: #f24e66;
      }

      .cls-3 {
        fill: #f58393;
      }

      .cls-4 {
        fill: #ef2844;
      }

      .cls-5 {
        fill: #fefefe;
      }
    </style>
  </defs>
  <path class="cls-1" d="M193.72,40.61c.56.24,1.19.24,1.75,0h9.63c.66.25,1.38.25,2.04,0h.29c.22.55.87.2,1.49.24,11.79.78,23.26,3.11,34.43,7.06,21.08,7.46,39.39,19.58,54.44,36.1,18.73,20.55,32.6,50.62,33.89,78.24l.26,5.58.21,4.76,19.05,19.07,33.17-19.19c.95-.55,1.67-1.1,2.6-1.25v10.81c-.28.03-.36.5-.32.84.18,1.78-.07,3.23-.21,5-3.29,40.59-19.61,79.32-47.2,109.14l-3.38,3.66c-2.33,2.52-4.75,4.94-7.26,7.27l-3.64,3.37c-28.86,26.73-75.47,47.04-114.32,47.72l-5.24.09c-.21,0-.35.11-.31.26h-10.22l-5.56-.4c-1.46-.11-2.82-.15-4.37-.28-21.5-1.75-42.39-7.12-62.02-16.12-19.02-8.71-35.34-19.74-50.52-33.87-3.05-2.84-5.83-5.61-8.6-8.63l-3.09-3.36c-27.41-29.81-43.59-68.39-46.88-108.85-.18-2.22-.37-4.1-.27-6.14l-.29-2.34.03-8.22,35.64,20.6,19.26-19.3c-.1-2.32-.16-4.33.33-6.48-.29-1.76,0-3.24.16-5.02,5.43-64.18,57.56-115.58,121.77-120.11.86-.06,1.54.29,2.07-.26h1.17Z"/>
  <path class="cls-2" d="M207.15,40.61c-.47.5-1.58.5-2.04,0h2.04Z"/>
  <path class="cls-4" d="M195.47,40.61c-.36.49-1.39.49-1.75,0h1.75Z"/>
  <path class="cls-3" d="M13.59,181.74c-.54-.57-.29-1.56-.29-2.34.51.56.33,1.57.29,2.34Z"/>
  <path class="cls-5" d="M270.04,342.95c-45.9,18.92-97.63,18.38-142.99-1.29C60.98,312.99,16.81,247.88,15.77,175.5l33.56,19.34,21.45-21.42c-.37-33.74,12.78-66.34,36.01-90.43,37.94-39.8,97.11-51.16,147.14-28.11,22.79,10.5,42.3,27.56,55.82,49.04,13.11,20.83,19.97,44.94,19.75,69.54l21.35,21.34,32.98-19.05c.32-.07.41-.1.55.03s.16.26.15.64c-.57,26.49-6.82,52.54-18.48,76.39-19.88,40.68-54.03,72.84-95.99,90.14Z"/>
  <path class="cls-1" d="M286.05,254.93c-46.33,48.36-123.35,48.93-170.44,1.77s-46.37-123.31,1.02-169.67c46.88-45.85,122.31-45.18,168.35,1.67s45.68,119.67,1.07,166.22Z"/>
  <path class="cls-1" d="M372.9,194.04c-7.73,61.99-48.54,115.33-106.08,139.4-43.79,18.32-93.52,17.81-136.95-1.39-55.76-24.66-95.54-77.27-102.91-138.47l23.97,13.74,20.63-20.59c3.21,29.81,17.1,57.26,37.79,77.68,51.24,50.58,133.67,49.53,183.58-2.39,19.31-20.08,32.26-46.38,35.43-75.27l19.98,19.95c.71.7,1.28.42,2.06-.17l13.17-7.6,2.21-1.28,4.99-2.88.37-.21.39-.22.4-.23.39-.22.34-.2c.09-.05.29.08.25.36Z"/>
  <path class="cls-5" d="M144.1,183.6l-39.93-.07c1.88,16.45,7.98,32.02,17.85,45.6l-12.67,10.6c-29.74-39.68-29.84-94.54-.22-134.45,12.91-17.4,30.58-31.02,51.5-38.88v211.86c-5.78-1.95-11.19-4.73-16.54-7.66v-87.01Z"/>
  <path class="cls-5" d="M242.15,259.19c20.48-10.11,36.64-26.83,45.99-47.69l13.96,9.17c-14.79,30.99-42.75,53.9-76.48,61.86V62.22c31.33,7.42,57.68,27.61,73.29,55.63l-13.83,9.16c-9.68-18.04-24.57-32.41-42.94-41.46v173.62Z"/>
  <path class="cls-5" d="M213.38,167.01l.09,16.51-28.03.03v100.94c-5.6-.69-11.11-1.84-16.54-3.41V63.65c16-4.54,32.33-5.5,48.44-3l-.04,16.73c-10.54-1.9-21.1-2.07-31.86-.46v90.04s27.94.04,27.94.04Z"/>
  <path class="cls-5" d="M147.71,335.42l-8.84-4.05-2.31-14.13c-.51-3.13-2.17-4.06-5.08-5.24l-6.11,13.05-7.46-3.48,15.17-32.58,15.04,7.02c2.26,1.06,4.3,2.24,6.09,3.91,2.81,2.97,3.08,7.19,1.45,10.85-2.01,4.5-6.32,6.93-11.52,5.77,1.01,2.23,1.75,4.22,2.04,6.56l1.52,12.31Z"/>
  <path class="cls-5" d="M269.18,314.78c-2.9-1.69-4.79-1.01-7.38.51l6.03,13.02-7.44,3.51-15.19-32.61,14.88-6.93c2.23-1.04,4.46-1.85,6.91-2.21,4.2-.32,7.63,2.24,9.41,5.9,2.2,4.52,1.08,9.41-3.07,12.54,2.46.56,4.37,1.38,6.34,2.6l10.54,6.78-8.86,4.15-12.17-7.26Z"/>
  <path class="cls-5" d="M354.18,246.49c-2.91,8.98-10.76,15.41-20.45,12.8-4.23-1.14-8.08-3.24-11.27-6.27-7.53-7.17-6.15-17.46.64-24.78,7.65-8.24,19.54-5.01,26.87,1.93,4.48,4.25,6.11,10.46,4.21,16.32Z"/>
  <path class="cls-5" d="M203.87,332.39c-3.43,9.42-13.25,12.31-22.39,9.41-5.74-1.82-9.82-6.59-10.74-12.59-1.39-9.04,1.66-19.86,11.18-22.76,4.39-1.34,9.03-.98,13.3.62,10.35,3.88,12.04,16.03,8.65,25.33Z"/>
  <polygon class="cls-5" points="291.37 297.4 296.45 303.83 311.6 291.68 315.96 297.18 294.52 314.56 271.89 286.59 292.82 269.61 297.3 275.11 282.83 286.89 286.84 291.93 300.36 281.01 304.81 286.45 291.37 297.4"/>
  <path class="cls-5" d="M52.54,254.77c-2.73-3-4.54-6.53-5.5-10.36-1.49-5.94,1.45-11.03,6.69-14.24l4.34,6.76c-1.69,1.29-3.19,2.65-3.59,4.7-.64,3.23,2.2,8.78,6.05,8.63,5.93-.22.4-9.47.74-16.76.18-3.97,2.59-7.29,5.85-8.68,3.89-1.66,8.04-.73,11.01,2.2s4.88,6.76,5.75,10.86c1.07,5.04-1.4,9.86-6.13,12.03l-3.99-7.07c1.29-1.04,2.77-2.13,2.75-3.91-.02-3.06-2.96-8.1-5.72-7.07-2.25.84-.92,5.48-.44,7.61,1.41,6.31,3.06,13.11-3.73,17.25-4.6,2.8-10.31,2.2-14.08-1.95Z"/>
  <path class="cls-5" d="M235.01,339.18l-7.96,2.03-8.71-34.87,16.67-4.11c5.98-1.47,11.51,1.81,12.91,7.86,1.98,5.81-.9,11.87-6.75,13.85-3.03,1.02-5.96,1.78-9.27,2.55l3.1,12.68Z"/>
  <polygon class="cls-5" points="328.92 283.88 306.83 265.37 300.18 273.17 294.74 268.65 313.25 246.57 318.66 251.1 312.12 258.99 334.18 277.55 328.92 283.88"/>
  <path class="cls-5" d="M73.17,286.05c-3.07-4.86-1.11-10.16,2.94-13.88l6.17,4.75c-1.06,1.38-2.22,2.36-2.58,4.02-.45,2.09,1.7,4.46,3.86,4.11,1.52-.24,2.36-1.54,3.51-2.38l16.68-17.27,5.91,5.66-15.79,16.42c-1.26,1.31-2.47,2.39-3.92,3.44-6.09,4.43-13.19.81-16.78-4.87Z"/>
  <polygon class="cls-5" points="162.14 337.93 154.15 335.97 162.83 301.06 170.8 303.05 162.14 337.93"/>
  <path class="cls-5" d="M66.12,263.72c2.66-.21,4.69,1.8,4.9,4.12.23,2.57-1.69,4.78-4.19,4.98s-4.61-1.57-4.9-4.06,1.43-4.83,4.19-5.05Z"/>
  <path class="cls-5" d="M95.04,296.73c2.67-.7,5.06.95,5.64,3.38s-.88,4.79-3.23,5.43-4.93-.7-5.63-3.24c-.61-2.19.59-4.87,3.23-5.56Z"/>
  <path class="cls-1" d="M144.1,166.95l-40.44.05c1.55-29.17,16.49-56.1,40.42-73.24v73.19Z"/>
  <path class="cls-1" d="M147.69,307.88c-.96,1.93-2.78,2.52-4.69,1.78-2.89-1.13-5.6-2.43-8.59-3.84l3.21-6.86,8.5,4.06c1.9.91,2.53,2.92,1.57,4.87Z"/>
  <path class="cls-1" d="M267.47,304.85c-2.85,1.61-5.66,2.82-8.55,4.17l-3.2-6.85c2.99-1.4,5.77-2.79,8.75-3.98,1.89-.76,3.85.12,4.51,1.97.91,1.75.33,3.67-1.5,4.7Z"/>
  <path class="cls-1" d="M336.36,251.25c-3.37-.84-6.32-2.55-8.69-4.84-3-2.89-3.36-7.02-1.34-10.54,1.97-3.44,5.6-5.12,9.54-4.07,3.08.82,5.9,2.37,8.27,4.47,3.15,2.79,3.99,6.96,2.09,10.57s-5.63,5.45-9.88,4.4Z"/>
  <path class="cls-1" d="M196.08,329.13c-1.24,4.23-4.75,6.73-8.86,6.48s-7.33-3.03-8.06-7.26c-.59-3.36-.25-6.85.94-10.02,1.44-3.82,5-5.79,8.96-5.4s6.98,3,7.65,7.02c.5,3.01.27,6.11-.63,9.18Z"/>
  <path class="cls-1" d="M230.16,319.55l-2.06-8.32c3.96-.8,10.29-3.81,11.76,1.26,1.57,5.42-5.9,6-9.71,7.05Z"/>
</svg>