<?xml version="1.0" encoding="UTF-8"?>
<svg id="Layer_1" xmlns="http://www.w3.org/2000/svg" version="1.1" xmlns:xlink="http://www.w3.org/1999/xlink" viewBox="0 0 400 400">
  <!-- Generator: Adobe Illustrator 30.1.0, SVG Export Plug-In . SVG Version: 2.1.1 Build 136)  -->
  <defs>
    <style>
      .st0 {
        fill: url(#linear-gradient2);
      }

      .st1 {
        fill: #fed839;
      }

      .st2 {
        fill: #f5a15f;
      }

      .st3 {
        fill: url(#linear-gradient10);
      }

      .st4 {
        fill: #a36a34;
      }

      .st5 {
        fill: url(#linear-gradient21);
      }

      .st6 {
        fill: #d2090d;
      }

      .st7 {
        fill: url(#linear-gradient1);
      }

      .st8 {
        fill: url(#linear-gradient9);
      }

      .st9 {
        fill: url(#linear-gradient18);
      }

      .st10 {
        fill: url(#linear-gradient23);
      }

      .st11 {
        fill: url(#linear-gradient8);
      }

      .st12 {
        fill: url(#linear-gradient11);
      }

      .st13 {
        fill: #ab6d38;
      }

      .st14 {
        fill: #e48535;
      }

      .st15 {
        fill: url(#linear-gradient16);
      }

      .st16 {
        fill: url(#linear-gradient24);
      }

      .st17 {
        fill: #f5db9a;
      }

      .st18 {
        fill: #f1ce61;
      }

      .st19 {
        fill: #e1b547;
      }

      .st20 {
        fill: url(#linear-gradient22);
      }

      .st21 {
        fill: #231f20;
      }

      .st22 {
        fill: url(#linear-gradient19);
      }

      .st23 {
        fill: url(#linear-gradient12);
      }

      .st24 {
        fill: #00581c;
      }

      .st25 {
        fill: url(#linear-gradient7);
      }

      .st26 {
        fill: #fcbf41;
      }

      .st27 {
        fill: #88442d;
      }

      .st28 {
        fill: url(#linear-gradient20);
      }

      .st29 {
        fill: url(#linear-gradient4);
      }

      .st30 {
        fill: url(#linear-gradient14);
      }

      .st31 {
        fill: url(#linear-gradient5);
      }

      .st32 {
        fill: url(#linear-gradient3);
      }

      .st33 {
        fill: #f29b34;
      }

      .st34 {
        fill: #a16235;
      }

      .st35 {
        fill: #028b4a;
      }

      .st36 {
        fill: url(#linear-gradient15);
      }

      .st37 {
        fill: url(#linear-gradient17);
      }

      .st38 {
        fill: #b1832e;
      }

      .st39 {
        fill: url(#linear-gradient6);
      }

      .st40 {
        fill: #d2963c;
      }

      .st41 {
        fill: url(#linear-gradient13);
      }

      .st42 {
        fill: url(#linear-gradient);
      }
    </style>
    <linearGradient id="linear-gradient" x1="199.06" y1="332.19" x2="200.01" y2="299.41" gradientTransform="translate(0 400) scale(1 -1)" gradientUnits="userSpaceOnUse">
      <stop offset="0" stop-color="#f69e5f"/>
      <stop offset="1" stop-color="#fcc168"/>
    </linearGradient>
    <linearGradient id="linear-gradient1" x1="200.26" y1="283.97" x2="200.22" y2="298.99" gradientTransform="translate(0 400) scale(1 -1)" gradientUnits="userSpaceOnUse">
      <stop offset="0" stop-color="#ec9638"/>
      <stop offset="1" stop-color="#f0cf3e"/>
    </linearGradient>
    <linearGradient id="linear-gradient2" x1="200.19" y1="278.08" x2="200.2" y2="283.11" gradientTransform="translate(0 400) scale(1 -1)" gradientUnits="userSpaceOnUse">
      <stop offset="0" stop-color="#e6a133"/>
      <stop offset="1" stop-color="#f3cf40"/>
    </linearGradient>
    <linearGradient id="linear-gradient3" x1="252.5" y1="302.27" x2="213.77" y2="324.04" gradientTransform="translate(0 400) scale(1 -1)" gradientUnits="userSpaceOnUse">
      <stop offset="0" stop-color="#e7b456"/>
      <stop offset="1" stop-color="#feee68"/>
    </linearGradient>
    <linearGradient id="linear-gradient4" x1="243.34" y1="324.91" x2="238.99" y2="319.25" gradientTransform="translate(0 400) scale(1 -1)" gradientUnits="userSpaceOnUse">
      <stop offset="0" stop-color="#e48032"/>
      <stop offset="1" stop-color="#eea43b"/>
    </linearGradient>
    <linearGradient id="linear-gradient5" x1="244.77" y1="303.41" x2="239.74" y2="307.33" gradientTransform="translate(0 400) scale(1 -1)" gradientUnits="userSpaceOnUse">
      <stop offset="0" stop-color="#e6842f"/>
      <stop offset="1" stop-color="#eaae43"/>
    </linearGradient>
    <linearGradient id="linear-gradient6" x1="277.83" y1="265.09" x2="280.37" y2="263.56" gradientTransform="translate(0 400) scale(1 -1)" gradientUnits="userSpaceOnUse">
      <stop offset="0" stop-color="#95602a"/>
      <stop offset="1" stop-color="#ca8441"/>
    </linearGradient>
    <linearGradient id="linear-gradient7" x1="302.34" y1="131.4" x2="279.24" y2="198.54" gradientTransform="translate(0 400) scale(1 -1)" gradientUnits="userSpaceOnUse">
      <stop offset="0" stop-color="#c57635"/>
      <stop offset="1" stop-color="#ebc946"/>
    </linearGradient>
    <linearGradient id="linear-gradient8" x1="179.05" y1="202.5" x2="100.61" y2="205.69" gradientTransform="translate(0 400) scale(1 -1)" gradientUnits="userSpaceOnUse">
      <stop offset="0" stop-color="#c57c3b"/>
      <stop offset="1" stop-color="#d5983a"/>
    </linearGradient>
    <linearGradient id="linear-gradient9" x1="98.38" y1="131.7" x2="123.01" y2="199.29" gradientTransform="translate(0 400) scale(1 -1)" gradientUnits="userSpaceOnUse">
      <stop offset="0" stop-color="#c47735"/>
      <stop offset="1" stop-color="#edca45"/>
    </linearGradient>
    <linearGradient id="linear-gradient10" x1="265.78" y1="239.91" x2="260.42" y2="240.13" gradientTransform="translate(0 400) scale(1 -1)" gradientUnits="userSpaceOnUse">
      <stop offset="0" stop-color="#815526"/>
      <stop offset="1" stop-color="#ac713b"/>
    </linearGradient>
    <linearGradient id="linear-gradient11" x1="144.21" y1="256.14" x2="145.67" y2="253.72" gradientTransform="translate(0 400) scale(1 -1)" gradientUnits="userSpaceOnUse">
      <stop offset="0" stop-color="#946232"/>
      <stop offset="1" stop-color="#c17d3f"/>
    </linearGradient>
    <linearGradient id="linear-gradient12" x1="131.4" y1="235.36" x2="132.31" y2="234.61" gradientTransform="translate(0 400) scale(1 -1)" gradientUnits="userSpaceOnUse">
      <stop offset="0" stop-color="#915b2b"/>
      <stop offset="1" stop-color="#ba773d"/>
    </linearGradient>
    <linearGradient id="linear-gradient13" x1="277.59" y1="187.6" x2="273.77" y2="186.97" gradientTransform="translate(0 400) scale(1 -1)" gradientUnits="userSpaceOnUse">
      <stop offset="0" stop-color="#885b2b"/>
      <stop offset="1" stop-color="#ae6f3a"/>
    </linearGradient>
    <linearGradient id="linear-gradient14" x1="122.18" y1="155.67" x2="127.57" y2="154.36" gradientTransform="translate(0 400) scale(1 -1)" gradientUnits="userSpaceOnUse">
      <stop offset="0" stop-color="#8e5829"/>
      <stop offset="1" stop-color="#a96f38"/>
    </linearGradient>
    <linearGradient id="linear-gradient15" x1="276.57" y1="195.85" x2="275.12" y2="192.85" gradientTransform="translate(0 400) scale(1 -1)" gradientUnits="userSpaceOnUse">
      <stop offset="0" stop-color="#9d6534"/>
      <stop offset="1" stop-color="#b7793f"/>
    </linearGradient>
    <linearGradient id="linear-gradient16" x1="280.86" y1="180.87" x2="275.62" y2="176.22" gradientTransform="translate(0 400) scale(1 -1)" gradientUnits="userSpaceOnUse">
      <stop offset="0" stop-color="#8a5728"/>
      <stop offset="1" stop-color="#ab6e39"/>
    </linearGradient>
    <linearGradient id="linear-gradient17" x1="217.25" y1="218.78" x2="197.5" y2="178.27" gradientTransform="translate(0 400) scale(1 -1)" gradientUnits="userSpaceOnUse">
      <stop offset="0" stop-color="#e0a633"/>
      <stop offset="1" stop-color="#ffc532"/>
    </linearGradient>
    <linearGradient id="linear-gradient18" x1="161.79" y1="328.18" x2="171.3" y2="306.12" gradientTransform="translate(0 400) scale(1 -1)" gradientUnits="userSpaceOnUse">
      <stop offset="0" stop-color="#e78934"/>
      <stop offset="1" stop-color="#edd369"/>
    </linearGradient>
    <linearGradient id="linear-gradient19" x1="156.33" y1="310.95" x2="187.06" y2="317.53" gradientTransform="translate(0 400) scale(1 -1)" gradientUnits="userSpaceOnUse">
      <stop offset="0" stop-color="#eabc5a"/>
      <stop offset="1" stop-color="#fff96a"/>
    </linearGradient>
    <linearGradient id="linear-gradient20" x1="178.15" y1="330.17" x2="177.85" y2="327.25" gradientTransform="translate(0 400) scale(1 -1)" gradientUnits="userSpaceOnUse">
      <stop offset="0" stop-color="#e57e2f"/>
      <stop offset="1" stop-color="#e89636"/>
    </linearGradient>
    <linearGradient id="linear-gradient21" x1="196.3" y1="389.3" x2="205.4" y2="387.61" gradientTransform="translate(0 400) scale(1 -1)" gradientUnits="userSpaceOnUse">
      <stop offset="0" stop-color="#fff02e"/>
      <stop offset="1" stop-color="#ee9336"/>
    </linearGradient>
    <linearGradient id="linear-gradient22" x1="209.94" y1="368.85" x2="201.73" y2="365.64" gradientTransform="translate(0 400) scale(1 -1)" gradientUnits="userSpaceOnUse">
      <stop offset="0" stop-color="#ffe82f"/>
      <stop offset="1" stop-color="#e88837"/>
    </linearGradient>
    <linearGradient id="linear-gradient23" x1="203.97" y1="370.86" x2="203.46" y2="376.99" gradientTransform="translate(0 400) scale(1 -1)" gradientUnits="userSpaceOnUse">
      <stop offset="0" stop-color="#e48b34"/>
      <stop offset="1" stop-color="#d16b36"/>
    </linearGradient>
    <linearGradient id="linear-gradient24" x1="250.63" y1="321.26" x2="256.73" y2="319.72" gradientTransform="translate(0 400) scale(1 -1)" gradientUnits="userSpaceOnUse">
      <stop offset="0" stop-color="#f69932"/>
      <stop offset="1" stop-color="#fdb232"/>
    </linearGradient>
  </defs>
  <rect class="st24" x="78.75" y="322.31" width="226.49" height="37.59"/>
  <ellipse class="st19" cx="200.97" cy="229.93" rx="89.35" ry="113.94"/>
  <path class="st24" d="M364.53,293.86c-2.83,0-5.66,0-8.49.03l-.24-.22c.09-1.37,1.98-7.39,2.49-9.13,2.11-7.2,4.17-14.41,6.21-21.62-21.5,0-44.95-.43-66.29.07-1.37.68-1.57,7.67-1.62,9.14-1.77-2.51-4.03-6.49-5.68-9.21l-5.9-.04c-1.16,3.06-1.98,7.13-3.06,10.41-2.34,7.05-5.22,13.9-8.62,20.51-5.96,11.15-12.09,19.62-21.15,28.51l-4.2,3.78c-1.79,1.44-3.58,2.9-5.44,4.25l-1.66,1.12c-1.84,1.16-3.87,2.49-5.77,3.51-1.15.92-1.46,1.24-2.86,1.68-1.34.45-2.6,1-3.87,1.58.18-.02.35-.04.53-.05.42-.02.83-.02,1.25,0,1.29.01,2.56.11,3.81.3,1.16-.26,2.38-.28,3.54-.03,5.11,1.06,10.21,3.77,13.86,7.51,4,4.1,5.83,9.06,5.62,14.5,3.07.07,69.96-.56,69.96-.56l17.2.04c2.49,0,7.32.14,9.59-.15,3.42-12.47,7.53-25.17,10.77-37.59-2.65.08-5.5.05-8.16.08l8.21-28.4Z"/>
  <path d="M285,262.88l5.9.04c1.64,2.72,3.91,6.7,5.68,9.21.05-1.47.25-8.46,1.62-9.14,21.35-.5,44.79-.07,66.29-.07-2.03,7.22-4.1,14.43-6.21,21.62-.5,1.74-2.39,7.77-2.49,9.13l.24.22c2.83-.03,5.66-.04,8.49-.03l-8.21,28.4c-22.4-.28-45.39-.03-67.82-.03h-23.17c-3.8-.02-9.5-.22-13.16.07,9.06-8.89,15.19-17.36,21.15-28.51,3.4-6.6,6.28-13.46,8.62-20.51,1.08-3.28,1.9-7.35,3.06-10.41Z"/>
  <path class="st6" d="M285,262.88l5.9.04c1.64,2.72,3.91,6.7,5.68,9.21.05-1.47.25-8.46,1.62-9.14,21.35-.5,44.79-.07,66.29-.07-2.03,7.22-4.1,14.43-6.21,21.62-.5,1.74-2.39,7.77-2.49,9.13l.24.22c-9.07-.31-19.33-.08-28.48-.08l-54.24-.02c3.4-6.6,6.28-13.46,8.62-20.51,1.08-3.28,1.9-7.35,3.06-10.41Z"/>
  <path d="M110.25,262.93c1.48,0,4.27.06,5.64-.09.8,1.78,1.4,4.36,1.92,6.32,2.31,8.69,5.93,16.57,9.79,24.67,6.54,11.8,11.6,18.93,21.17,28.45l2.96,2.67c-14.87,6.04-20.63,19.72-16.89,34.93l-88.46.02c-.97-4.02-2.57-9.02-3.74-13.05-2.35-8.23-4.74-16.45-7.18-24.65l8.27.04-8.25-28.41c2.97.04,6.01.01,8.99.02-3.09-9.4-6.22-21.32-9.01-30.91h67.91c.9,3.74,1.08,5.52,1.18,9.35,1.89-3.09,3.84-6.23,5.68-9.35Z"/>
  <path class="st24" d="M35.47,322.19l8.27.04h69.89c10.76-.01,24.57-.41,35.14.04l2.96,2.67c7.13,15.27-2.01,27.52-16.89,34.93l-88.46.02c-.97-4.02-2.57-9.02-3.74-13.05-2.35-8.23-4.74-16.45-7.18-24.65Z"/>
  <path class="st6" d="M110.25,262.93c1.48,0,4.27.06,5.64-.09.8,1.78,1.4,4.36,1.92,6.32,2.31,8.69,5.93,16.57,9.79,24.67-27.51-.29-55.56-.03-83.11,0-3.09-9.4-6.22-21.32-9.01-30.91h67.91c.9,3.74,1.08,5.52,1.18,9.35,1.89-3.09,3.84-6.23,5.68-9.35Z"/>
  <path class="st42" d="M200.32,38.88c1.69,3.09,3.32,6.2,4.91,9.34,1.25,1.12,7.83,2.07,10.12,2.55l.06.41c-1.88,2.19-5.22,5.62-6.73,7.8.36,3.35.79,6.81,1.11,10.15.8.65,2.24,2.04,3.1,2.19l.05-.04c1.17-1.05,3.5-1.64,5.04-2.12.65-.24,1.25-.35,1.92-.5,3.33-.67,6.2-.92,9.55-.26,10.43.85,21.84,10.6,22.4,21.43.75,4.13-.07,8.88-1.21,12.87l-.51,1.76c1.88.58,5.55,2.12,4.62,4.93-.88,2.66-4.22,2.24-6.46,2.11.01,1.43-.04,3.5.17,4.87,1.89,1.07,2.28,4.02,2.21,5.98-3.29-.55-7.1-1-10.45-1.24-.88-.06-.77,0-1.2.45-2.19.09-4.87-.2-7.04-.46-5.1-.35-10.2-.75-15.3-1.21-.8-.58-5.34-.52-7.45-1.3-3.53-.07-7.85-.16-11.36.03-2.92,1.03-11.57.04-13.1,1.31-1.8.13-3.78.32-5.57.35-5.69.8-11.8,1.09-17.56,1.2-3.16.06-8.46.3-11.47,1.31-1.01-2.59-.44-4.99,2.1-6.33.08-1.74.06-3.77.07-5.53-.8.06-3.35.32-3.95.13-5.74-1.76-1.42-5.46,1.72-6.57,3.03-1.07,6.15-1.57,9.31-2.2l.79-.28.72.03-.67-.95c1.43-.66,5.37-.53,7.03-.33l1.06.3c.52.09,1.08.21,1.61.23,1.46.11,2.59-.05,3.96.02,1.24-.72.66-3.03.82-4.86.57-6.53,3.3-13.93,7.47-18.98l1.25-1.53c.94-.79,2.29-2.14,2.66-3.32.25-.47.8-.66,1.35-.99h.25c1.22-.88,2.13-1.5,3.2-2.58.14-3.37.82-6.84.98-10.39-2.28-2.5-4.52-5.03-6.74-7.58v-.28c1.09-.84,8.5-1.1,10.25-2.54,1.6-3.15,3.23-6.28,4.92-9.39Z"/>
  <path class="st7" d="M233.63,100.22c1.41.04,5.29.06,6.47.62l-.6.82-.31.22.93.53c1.27.55,7.51,1.32,10,2.04,1.88.58,5.55,2.12,4.62,4.93-.88,2.66-4.22,2.24-6.46,2.11.01,1.43-.04,3.5.17,4.87,1.89,1.07,2.28,4.02,2.21,5.98-3.29-.55-7.1-1-10.45-1.24-.88-.06-.77,0-1.2.45-2.19.09-4.87-.2-7.04-.46-5.1-.35-10.2-.75-15.3-1.21-.8-.58-5.34-.52-7.45-1.3-3.53-.07-7.85-.16-11.36.03-2.92,1.03-11.57.04-13.1,1.31-1.8.13-3.78.32-5.57.35-5.69.8-11.8,1.09-17.56,1.2-3.16.06-8.46.3-11.47,1.31-1.01-2.59-.44-4.99,2.1-6.33.08-1.74.06-3.77.07-5.53-.8.06-3.35.32-3.95.13-5.74-1.76-1.42-5.46,1.72-6.57,3.03-1.07,6.15-1.57,9.31-2.2l.79-.28.72.03-.67-.95c1.43-.66,5.37-.53,7.03-.33l1.06.3c.52.09,1.08.21,1.61.23,1.46.11,2.59-.05,3.96.02,4.17-.41,8.57-.23,12.78-.62l.14-.12c2.2.5,9.55.2,12.02.13h1.01s1.29,0,1.29,0l.64.04c2.12.01,10.82.39,12.4-.16,1.47.5,9.56.74,11.61.83,1.63.13,3.23.48,4.52-.44.56.17.41.21.92.13l2.38-.86Z"/>
  <path class="st0" d="M248.46,116.36c1.89,1.07,2.28,4.02,2.21,5.98-3.29-.55-7.1-1-10.45-1.24-.88-.06-.77,0-1.2.45-2.19.09-4.87-.2-7.04-.46-5.1-.35-10.2-.75-15.3-1.21-.8-.58-5.34-.52-7.45-1.3-3.53-.07-7.85-.16-11.36.03-2.92,1.03-11.57.04-13.1,1.31-1.8.13-3.78.32-5.57.35-5.69.8-11.8,1.09-17.56,1.2-3.16.06-8.46.3-11.47,1.31-1.01-2.59-.44-4.99,2.1-6.33,2.88.34,11.48.07,14.91.06h31s33.84,0,33.84,0c3.58,0,13.45.25,16.43-.15Z"/>
  <path class="st40" d="M209.24,118.58c6.53.21,13.06.59,19.57,1.11,1.65.13,5.98.41,7.36.8,1.2,0,1.49-.1,2.47.49l.38.56c-2.19.09-4.87-.2-7.04-.46-5.1-.35-10.2-.75-15.3-1.21-.8-.58-5.34-.52-7.45-1.3Z"/>
  <path class="st40" d="M179.21,120.27c-.75-.05-1.04-.08-1.78-.23,1.02-.46,3.43-.22,4.66-.45,5.46-1.01,10.27-1.07,15.79-.98-2.92,1.03-11.57.04-13.1,1.31-1.8.13-3.78.32-5.57.35Z"/>
  <path class="st1" d="M233.63,100.22c1.41.04,5.29.06,6.47.62l-.6.82-.31.22c-1.01,1.06-6.71-.02-7.94-.8l2.38-.86Z"/>
  <path class="st1" d="M160.27,101.09c1.43-.66,5.37-.53,7.03-.33l1.06.3c-.93.62-6.37,1.29-7.42.98l-.67-.95Z"/>
  <path d="M212.09,106.43c4.3.2,8.63.69,13.03.87l2.57,2.8-2.75,2.22c-1.16.5-11.38-.53-13.24-.69l-1.81-2.44,2.21-2.75Z"/>
  <path class="st6" d="M213.57,107.43c3.41.17,6.82.31,10.23.43.63.76.71.82,1.17,1.73-.1,1.19-.15.91-.97,2.05-2.74-.08-10.27.45-11.46-2.1.03-1.06.35-1.28,1.02-2.11Z"/>
  <path d="M187.98,106.55c.36-.05.92-.04,1.27-.04,1.11.63,1.7,1.69,2.46,2.76l-1.93,2.4c-4.11.35-8.23.63-12.35.84-1.01-.07-2.7-1.69-3.53-2.39l2.53-2.81c3.74-.13,7.79-.49,11.54-.76Z"/>
  <path class="st6" d="M182.94,107.66c1.84-.13,5.61-.86,6.23,1.32-.28,1.03-.31,1.02-.86,1.87-1,.34-4.48.45-5.74.52-1.88.18-5.23.88-6.04-1.26.13-1.11.45-1.32,1.2-2.24l5.22-.21Z"/>
  <path d="M237.78,109.19c1.4.65,5.4,3.34,6.9,4.28-2.33.47-5.48,1.46-7.83,2.12-2.02-1-4.98-2.86-7-4.04,2.66-.75,5.3-1.54,7.94-2.36Z"/>
  <path class="st6" d="M236.23,110.07c1.31-.63,2.89-.06,3.5,1.26.61,1.32.03,2.89-1.29,3.49-1.31.59-2.85.02-3.46-1.28-.61-1.3-.05-2.85,1.25-3.47Z"/>
  <path d="M163.12,109.06c1.58.18,6.46,1.69,8.22,2.2-2.2,1.24-4.37,2.54-6.5,3.89-1.59-.07-6.29-1.52-8.26-2l6.53-4.09Z"/>
  <path class="st6" d="M162.77,109.79c.88-.41,1.92-.3,2.7.29.77.59,1.15,1.57.98,2.53-.17.96-.86,1.75-1.79,2.04-1.31.41-2.72-.26-3.22-1.55-.5-1.28.08-2.73,1.33-3.32Z"/>
  <path d="M193.27,109.37c2.05-.97,4.42-2.16,6.6-2.8.84-.25,1.25.12,1.91.5.37-.08,5.35,2.1,6.14,2.43-1.01.47-2.03.93-3.06,1.37-2.04.88-3.64,1.9-5.6,1.12l-6-2.61Z"/>
  <path class="st6" d="M199.12,111.56c-1.2-.75-1.59-2.33-.87-3.55.72-1.22,2.29-1.64,3.53-.95.83.46,1.34,1.34,1.34,2.29,0,.95-.52,1.82-1.35,2.28-.83.46-1.84.43-2.65-.07Z"/>
  <path class="st19" d="M210.34,103.49c3.06-.16,12.44,1.4,15.54,2.36-1.38.09-13.94-1.95-15.54-2.36Z"/>
  <path class="st32" d="M219.89,68.66c3.33-.67,6.2-.92,9.55-.26,10.43.85,21.84,10.6,22.4,21.43.75,4.13-.07,8.88-1.21,12.87l-.51,1.76c-2.5-.72-8.73-1.49-10-2.04l-.93-.53.31-.22.6-.82c-1.18-.56-5.06-.58-6.47-.62l-2.38.86c-.51.08-.36.04-.92-.13-1.29.92-2.9.57-4.52.44.12-5.16-.55-11.76-3.26-16.25-.91-2.8-3.72-7.13-5.7-9.31-1.3-1.44-1.89-2.06-2.91-3.71l-1-.84c1.17-1.05,3.5-1.64,5.04-2.12.65-.24,1.25-.35,1.92-.5Z"/>
  <path class="st29" d="M229.45,68.39c10.43.85,21.84,10.6,22.4,21.43l-.22,2.8-.13-.68.14.57.03-.23-.17-.14c.01-1.59-.28-1.8-1.17-3.12l-.27.25c-.07.63-.12,1.03-.25,1.65-1.94-12.57-11.64-19.65-23.45-22.08,1.17,0,2.13.24,3.09-.46Z"/>
  <path class="st33" d="M237.02,85.42c.21.69.69,2.36,1.22,2.73.14-.36.27-.67.43-1.02.38,4.11-1.77,10.47-5.03,13.09l-2.38.86c-.51.08-.36.04-.92-.13,4.7-5.07,5.96-8.76,6.69-15.53Z"/>
  <path class="st14" d="M217.97,69.16c5.76.53,7.77-.28,13.35,2.17l-1,.3c-7.4-2.75-12.81,1.72-16.39.49l-1-.84c1.17-1.05,3.5-1.64,5.04-2.12Z"/>
  <path class="st1" d="M242.71,100.87c3.4.1,5.12-.12,7.93,1.83l-.51,1.76c-2.5-.72-8.73-1.49-10-2.04.83-.51,1.74-1.08,2.58-1.55Z"/>
  <path class="st31" d="M243.65,88.88c.09-1.15-.11-1.31.5-1.95.53.6.47.85.57,1.65.05,3.34-.16,9.49-2.35,12.08-.74.3-2.22,1.05-2.87,1.01l.6-.82c2.97-3.35,3.57-7.68,3.55-11.96Z"/>
  <path class="st33" d="M244.72,88.58l.41.02c.25,1.38.5,2.79.45,4.19-.07,1.92-.87,7.65-3.21,7.87,2.19-2.6,2.4-8.75,2.35-12.08Z"/>
  <path class="st33" d="M219.89,68.66c3.33-.67,6.2-.92,9.55-.26-.96.7-1.92.45-3.09.46-2.56-.38-4.13.14-6.47-.2Z"/>
  <path class="st19" d="M243.59,82.89c.63,1.72,1.43,3.86,1.54,5.71l-.41-.02c-.11-.81-.04-1.05-.57-1.65-.62.64-.41.8-.5,1.95-.33-2.2-.27-3.77-.06-5.99Z"/>
  <path class="st19" d="M231.33,71.32c1.6.73,1.85.86,3.23,1.98-.57.1-3.44-1.32-4.23-1.68l1-.3Z"/>
  <path class="st19" d="M200.32,38.88c1.69,3.09,3.32,6.2,4.91,9.34,1.25,1.12,7.83,2.07,10.12,2.55l.06.41c-1.88,2.19-5.22,5.62-6.73,7.8.36,3.35.79,6.81,1.11,10.15-.97-.39-6.12-3.17-7.04-3.79l.15-.38,2.09-.75.02-.25c-.71-.03-1.4.19-2.04.5-2.67,1.29-4.44.16-7.14-.99-.37.26-.17.09-.55.57,1.1.41,1.62.58,2.61,1.17v.35c-1.77,1.12-4.99,2.54-6.97,3.49.14-3.37.82-6.84.98-10.39-2.28-2.5-4.52-5.03-6.74-7.58v-.28c1.09-.84,8.5-1.1,10.25-2.54,1.6-3.15,3.23-6.28,4.92-9.39Z"/>
  <path class="st19" d="M200.32,38.88c1.69,3.09,3.32,6.2,4.91,9.34l-.21.15c-1.49-.45-3.03-.82-4.54-1.21-.47-.56-.3-.92-.33-1.86l-.27-.07c-.04.93.03.99-.46,1.81-1.12.89-2.6,1.1-4,1.22,1.6-3.15,3.23-6.28,4.92-9.39Z"/>
  <path class="st26" d="M195.4,48.27c1.4-.12,2.88-.34,4-1.22.49-.82.42-.88.46-1.81l.27.07c.03.93-.13,1.29.33,1.86,1.51.39,3.05.76,4.54,1.21l.21-.15c1.25,1.12,7.83,2.07,10.12,2.55-3.27.25-5.78-.58-8.96-1.33l1.87,2.79c.89-.03,1.95-.19,2.65.27-1.25.85-6.77.84-8.14.26,1.59-.41,3.08-.39,4.73-.45-4.38-5.88-10.4-5.76-14.5.22.9.03,2.85.04,3.65.2l.25.26-.14-.22.4.2-.26.11-.06-.21-.33.27c-2.97.21-5.68.33-8.43-.9l4.35.19c.55-.89,1.18-2,1.78-2.83-2.7.53-6.08,1.4-8.7,1.37-.11.04-.23.07-.34.11v-.28c1.09-.84,8.5-1.1,10.25-2.54Z"/>
  <path class="st33" d="M201.98,58.16c-1.63.1-2.53.36-3.73-.91-.44-1.71.27-2.45,1.82-3.04,1.13.09.63-.09,1.56.57.24,1.08.46,1.85.79,2.91l-.43.46Z"/>
  <path class="st26" d="M202.41,57.7l.42-.53.2.29c-.73,2.68-4.63,2.87-5.51.32l.13-.22.39.26c1.49.98,1.78,1.06,3.57.66l.38-.33.43-.46Z"/>
  <path class="st26" d="M182.21,77.46c.32.05.75.22.96-.04,4.77-5.73,9.15-8.53,16.2-11.05-2.31,2.46-4.45,4.07-6.62,6.91-5.76,7.52-6.07,17.06-6.26,26.13,0,.43.1.85.22,1.26-4.21.4-8.61.22-12.78.62,1.24-.72.66-3.03.82-4.86.57-6.53,3.3-13.93,7.47-18.98Z"/>
  <path class="st26" d="M201.19,66.41c10.18,2.09,15.67,10.08,20.57,18.05.31.51.32.13.6,1.06l.2-.39c2.71,4.5,3.37,11.09,3.26,16.25-2.05-.09-10.14-.33-11.61-.83l.11-.44c.16-1.24.04-4.92-.07-6.25-1.03-13.19-3.59-18.94-13.06-27.46Z"/>
  <path class="st33" d="M190.92,69.06c1.98-.95,5.19-2.36,6.96-3.49v-.35c-.98-.59-1.5-.76-2.6-1.17.38-.49.18-.32.55-.57,2.7,1.16,4.47,2.28,7.14.99.64-.31,1.34-.53,2.04-.5l-.02.25-2.09.75-.15.38c.92.62,6.07,3.4,7.04,3.79.8.65,2.24,2.04,3.1,2.19l.05-.04,1,.84c1.03,1.65,1.62,2.27,2.91,3.71,1.98,2.18,4.79,6.51,5.7,9.31l-.2.39c-.28-.93-.29-.56-.6-1.06-4.9-7.97-10.39-15.96-20.57-18.05,9.46,8.51,12.02,14.27,13.06,27.46.1,1.33.23,5.01.07,6.25l-.09-.52c-.36-2.1-.27-5.38-.61-7.71-1.7-11.56-4.37-17.48-13.12-24.87-11.88,7.92-13.49,20.33-13.65,33.54l-.14.12c-.12-.4-.23-.83-.22-1.26.19-9.08.5-18.61,6.26-26.13,2.17-2.84,4.32-4.45,6.62-6.91-7.05,2.51-11.43,5.32-16.2,11.05-.21.26-.64.09-.96.04l1.25-1.53c.94-.79,2.29-2.14,2.66-3.32.25-.47.8-.66,1.35-.99h.25c1.22-.88,2.13-1.5,3.2-2.58Z"/>
  <path class="st2" d="M196.82,87.16c2.8-2.47,4.29-2.84,7.08.09,2.17,1.58-.46,4.74-1.83,5.95-1.41-.34-1.82-.54-3.12,0-1.84-1.11-3.59-2.7-2.81-5.07.27-.83-.05-.53.68-.96Z"/>
  <path class="st14" d="M196.82,87.16c2.8-2.47,4.29-2.84,7.08.09l-.06,2.91.18-.81c-3.57-7.4-6.42-.86-7.24-.79l.04-1.41Z"/>
  <path class="st19" d="M198.95,93.19c1.3-.53,1.71-.33,3.12,0,2.81,2.56,3.19,5.3-.27,7.53l-.64-.04h-1.29s-1.01,0-1.01,0c-3.32-1.9-3.14-5.53.09-7.49Z"/>
  <path class="st33" d="M198.95,93.19c1.3-.53,1.71-.33,3.12,0,2.81,2.56,3.19,5.3-.27,7.53l-.64-.04c1.08-.77,2.95-2.32,2.62-3.75-1.55-6.67-12.01-.8-3.9,3.75h-1.01c-3.32-1.9-3.14-5.53.09-7.49Z"/>
  <path class="st19" d="M197.41,76.09l-.34-.1c-1.03-1.51-.64-3.83.76-5.01,2.32-1.94,6.57-.83,6.08,2.69-.49,2.26-.87,3.04-3.15,3.7l-.87.06c-.88-.31-1.66-.85-2.47-1.35Z"/>
  <path class="st33" d="M197.41,76.09l-.34-.1c-1.03-1.51-.64-3.83.76-5.01,2.32-1.94,6.57-.83,6.08,2.69-2.86-5.52-8.51-2.45-6.49,2.42Z"/>
  <path class="st14" d="M200.76,77.37c3.31,1.2,3.53,2.78,3.09,5.94-.31-2.53-.41-5.23-4.36-4.88-1.2.11-1.95,1.58-2.59,2.58l-.22-.13c.24-1.99,1.52-2.69,3.2-3.45l.87-.06Z"/>
  <path class="st40" d="M216.69,119.88c5.09.46,10.19.87,15.3,1.21,2.17.25,4.85.55,7.04.46.43-.45.32-.52,1.2-.45,3.34.24,7.15.7,10.45,1.24,3.14,3.14,5.42.69,8.9.49,4-.54,6.99-.73,11.03.01,2.97.35,13.85,3.74,15.39,6.4,2.16,1.37,6.78,5.44,7.89,7.69,5.36,8.38,6.64,15.72,4.77,25.69-.7,3.74-3.19,8.11-4.77,11.69-1.71,3.96-3.25,7.99-4.62,12.08,1,1.48,1.36,3.42,1.12,5.16.19,1.85.47,3.3.82,5.13,4.38,19.41,21.62,32.35,13.49,52.81-1.08,2.72-7.18,11.2-6.49,13.48-1.37.68-1.57,7.67-1.62,9.14-1.77-2.51-4.03-6.49-5.68-9.21l-5.9-.04-.02-.71c-.63.16-.58.18-1.21.03-1.1-1.7-.57-4.88-.28-6.84,1.57-8.13,6.25-14.62,4.31-23.93-.83-3.98-1.3-6.87-4.25-9.87-.59-.6-.97-1.94-2.01-2.69.04-1.24-.18-3.01-1.31-3.73l-.2-.27c.2-.98-.87-5.9-1.41-6.76-.33-1.03-.34-2.02-.43-3.11.22-2.23-.2-7.08-.17-9.63.03-3.41.31-7.64.14-10.92.44-.88.42-.45.32-1.3l-.76-.5.56-.06c.42-.79.99-8.22,1.12-9.65-5.57-14.1-11.81-24.39-21.66-35.8l-.36-.13c-.39-.47-9.79-2.75-10.67-2.69-2.11.36-23.56-7.99-25.71-9.62-.32-.87-5.32-2.89-6.61-3.51,4.52-.04,11.31,3.13,16.48,3.4-2.46-.95-12.83-3.4-14.28-4.24l.11-.46Z"/>
  <path class="st19" d="M216.69,119.88c5.09.46,10.19.87,15.3,1.21,2.17.25,4.85.55,7.04.46.43-.45.32-.52,1.2-.45,3.34.24,7.15.7,10.45,1.24,3.14,3.14,5.42.69,8.9.49,4-.54,6.99-.73,11.03.01,2.97.35,13.85,3.74,15.39,6.4l-.11.38c.51.41,1,.6.99,1.29-.02,1.72.31,4.08-1.67,4.73-.75-.17-2.33-1.07-2.77-1.68l-.75.88c-1.62,1.74-3.48,3.59-4.81,5.54l-.41.37c-.21-.65-.4-.63-.99-1.16-.69-.04-.93-.06-1.59-.22l-.53-.13.11-.36c-2.12-1.23-4.2-2.78-5.5-4.89l-.12-.07-.7-.77c-.52.21-.23.17-.87.03l-.68-1.23.25-1.11c-.44-.38-2.2-.82-3.05-1.28l-.28-.15c-2.54.16-4.79.32-7.35.28-7.97-1.17-16.94-4-24.31-5.11-2.46-.95-12.83-3.4-14.28-4.24l.11-.46Z"/>
  <path class="st19" d="M268.79,129.46c4.87.71,7.11,1.58,11.55,3.78,1.11-1.2,1.49-1.94,3.19-1.94.8,1.09-.35,1.8-1.09,2.67l-.75.88c-1.62,1.74-3.48,3.59-4.81,5.54l-.41.37c-.21-.65-.4-.63-.99-1.16-.69-.04-.93-.06-1.59-.22l-.53-.13.11-.36c-2.12-1.23-4.2-2.78-5.5-4.89l-.12-.07-.7-.77c.21-1.46.87-2.49,1.64-3.71Z"/>
  <path class="st39" d="M280.33,133.24c1.11-1.2,1.49-1.94,3.19-1.94.8,1.09-.35,1.8-1.09,2.67l-.75.88c-1.62,1.74-3.48,3.59-4.81,5.54l-.41.37c-.21-.65-.4-.63-.99-1.16-.69-.04-.93-.06-1.59-.22l-.53-.13.11-.36c1.32.1.95.26,1.96-.3,1.63-1.64,3.37-3.61,4.91-5.34Z"/>
  <path class="st40" d="M267.97,134c3.02.19,5.26,2.54,7.46,4.58-1,.56-.63.4-1.96.3-2.12-1.23-4.2-2.78-5.5-4.89Z"/>
  <path class="st40" d="M262.52,129.41c-.96-1.11-1.68-1.77-1.65-3.28,1.44-2.39,5.3-.14,7.17.85.87-.32.98-.44,1.72-.95l.47.12c.22.93-.86,2.34-1.45,3.31-.77,1.22-1.43,2.25-1.64,3.71-.52.21-.23.17-.87.03l-.68-1.23.25-1.11c-.44-.38-2.2-.82-3.05-1.28l-.28-.15Z"/>
  <path class="st34" d="M262.66,126.44c1.7-.09,4.69.55,4.54,2.72-1.85-.39-3.82-.8-4.54-2.72Z"/>
  <path class="st19" d="M259.57,122.84c4-.54,6.99-.73,11.03.01-2.75.23-8.21.07-11.03-.01Z"/>
  <path class="st25" d="M290.05,197.18c.59-.57.25-.35,1.15-.49,4.38,19.41,21.62,32.35,13.49,52.81-1.08,2.72-7.18,11.2-6.49,13.48-1.37.68-1.57,7.67-1.62,9.14-1.77-2.51-4.03-6.49-5.68-9.21l-5.9-.04-.02-.71c-.63.16-.58.18-1.21.03-1.1-1.7-.57-4.88-.28-6.84,4.11-2.77,7.43-.04,10.48.4,1.39-.52,3.43-5.09,4.22-6.55,2.9-5.33,2.88-9.75,2-15.59-.14-.95-.01-3.27-.29-4.02-1.06-2.81-2.14-5.46-3.09-8.33-1.17-2.25-1.79-4.72-3.18-6.95-.69-.23-.86-.29-1.51-.62-.5-.88-.77-4.36-.97-5.7-.59-3.52-.84-7.25-1.11-10.81Z"/>
  <path class="st19" d="M285.99,129.25c2.16,1.37,6.78,5.44,7.89,7.69-2.4.92-.78,2.29-2.29,3.7-1.05.7-1.19.79-2.03,1.71-1.99,2.23-4.2,4.39-6.32,6.51-.93-.97-1.08-2.37-2.73-4.2l-.7,1c-.5-1.83-.2-1.68.78-3.21l-.44-.08-.85.95c-.87-1.26-1.25-1.88-2.41-2.93,1.33-1.95,3.18-3.81,4.81-5.54l.75-.88c.44.61,2.02,1.51,2.77,1.68,1.98-.65,1.65-3.01,1.67-4.73,0-.69-.49-.88-.99-1.29l.11-.38Z"/>
  <path class="st19" d="M285.99,129.25c2.16,1.37,6.78,5.44,7.89,7.69-2.4.92-.78,2.29-2.29,3.7-1.05.7-1.19.79-2.03,1.71-.77-1.35-2.21-2.56-3.38-3.65.9-.99,1.62-1.56,1.28-2.93l-.59-.14c-.69.46-1.09.67-1.63,1.31-1.41-.96-1.99-1.36-3.54-2.1l.75-.88c.44.61,2.02,1.51,2.77,1.68,1.98-.65,1.65-3.01,1.67-4.73,0-.69-.49-.88-.99-1.29l.11-.38Z"/>
  <path class="st19" d="M281.68,134.85c1.56.73,2.14,1.13,3.54,2.1l-5.09,5.42-.85.95c-.87-1.26-1.25-1.88-2.41-2.93,1.33-1.95,3.18-3.81,4.81-5.54Z"/>
  <path class="st13" d="M286.86,135.64l.59.14c.34,1.37-.38,1.94-1.28,2.93-1.94,1.93-3.83,3.92-5.67,5.96l-.7,1c-.5-1.83-.2-1.68.78-3.21l-.44-.08,5.09-5.42c.54-.65.94-.85,1.63-1.31Z"/>
  <path class="st4" d="M285.23,136.95c.54-.65.94-.85,1.63-1.31.13.52.33.83.03,1.1-1.95,1.8-4.42,3.87-6.3,5.71l-.44-.08,5.09-5.42Z"/>
  <path class="st18" d="M290.05,197.18c-.23-1.22-.22-4.39,0-5.64l.33.03c.19,1.85.47,3.3.82,5.13-.91.14-.56-.08-1.15.49Z"/>
  <path class="st34" d="M265.6,131.96l.68,1.23c.64.14.35.17.87-.03l.7.77.12.07c1.3,2.11,3.38,3.66,5.5,4.89l-.11.36.53.13c.66.16.9.18,1.59.22.6.53.79.51.99,1.16l.41-.37c1.16,1.05,1.54,1.67,2.41,2.93l.85-.95.44.08c-.98,1.53-1.28,1.38-.78,3.21-4,1.06-4.11-2.73-5.82-4.64-3.75-1.07-5.61-4.03-8.23-6.82-.7-.74-.56-1.14-.42-2.05l.26-.19Z"/>
  <path class="st40" d="M276.88,140.39c1.16,1.05,1.54,1.67,2.41,2.93-.54.44-.57.39-1.26.55-1.6-.52-1.84-1.6-1.56-3.11l.41-.37Z"/>
  <path class="st27" d="M273.36,139.25c-2.3-.93-4.48-3.03-6.6-4.54.64-.29.6-.29,1.1-.77l.12.07c1.3,2.11,3.38,3.66,5.5,4.89l-.11.36Z"/>
  <path class="st13" d="M289.55,142.35c.84-.91.99-1.01,2.03-1.71,1.1,1.04,1.62,2.19.69,3.54l-.21-1.3c-.53.47-1.17,1.26-1.66,1.82l.22,1.44-.48-1.16c-2.44-.86-2.98,5.34-8.04,5.47.05-.76.42-.85,1.14-1.57,2.12-2.13,4.33-4.28,6.32-6.51Z"/>
  <path class="st19" d="M262.52,129.41l.28.15c.85.46,2.62.91,3.05,1.28l-.25,1.11-.26.19c-3.6-1.08-6.78-1.45-10.17-2.45,2.56.04,4.81-.12,7.35-.28Z"/>
  <path class="st26" d="M294.97,241.08c-.11,3.09-1.99,8.61-2.95,11.81-.73.36-1.12.13-2.1.02-1.04-2.51,1.63-9.21,3.49-11.23.23-.25.71.05,1.03.17l.53-.76Z"/>
  <path class="st11" d="M184.78,119.92l.06.5c-1.11.42-2.86.77-4.1,1.13-3.1.9-6.21,1.85-9.32,2.71,3.84.15,9.46-2.42,13.99-2.52-1.11.62-3.1,1.58-3.84,2.45-2.63,1.79-26.13,10.89-28.54,10.61-.93-.26-1.49.03-2.42.31l-.39.43c-2.26.93-4.54,1.26-6.94,1.68-6.69,6.83-12.88,16.95-17.22,25.45-1.4,2.75-2.93,7.09-4.33,9.51.52,3.18.68,6.75.93,10l.34.19c-.53,1.12-.51,1.1.23,2.22-.59,1.45.15,11.64-.04,14.09-.09,1.1-.33,5.27-.36,6.45l.07.06c-.03.91,0,2.05-.24,2.9l-.23-.07c-.22.93-1.38,6.26-1.24,6.83-.65.71-.98.97-1.29,1.9.18,1.49.81,1.39,1.05,2.37-.89-.26-.6-.3-1.44-.2-1.65,1.57-1.52,2.59-3.32,4.31-.21.14-.58.4-.79.51-.4,3.01-1.79,6.17-2.3,9.42-1.29,8.26,3.22,14.73,4.58,22.41.27,2.03.88,4.89-.35,6.55-.85.09-.5.11-1.36-.27l-.11.99c-1.37.14-4.16.08-5.64.09-1.84,3.12-3.79,6.25-5.68,9.35-.1-3.83-.27-5.61-1.18-9.36-1.88-5.98-5.73-9.3-7.7-15.85-4.86-16.12,3.89-24.77,10.31-38.52,2.41-5.17,3.45-8.84,4.55-14.34.05-1.03.16-2.09.26-3.13-.24-1.14.08-2.21.56-3.24l.64-1.41c-1.76-5.18-3.8-10.93-6.3-15.78-4.81-9.34-5.15-18.6-1.24-28.46,1.24-3.24,3.33-5.87,5.62-8.41.14-.2.91-.96,1.12-1.19l.79-.67c.73-.97,2.99-2.47,4.04-3.19,1.17-1.86,8.96-4.52,11.11-5.13,3.82-1.06,11.31-1.98,15.15-.53,2.9.18,5.22,1.86,7.88-.27,3.02-1.02,8.31-1.25,11.47-1.31,5.75-.11,11.87-.4,17.56-1.2,1.79-.03,3.76-.21,5.57-.35Z"/>
  <path class="st8" d="M110.55,194.21c.07.08.71.77.78.89-.26,3.66-.94,14.16-2.17,17.01.27.94.17,1.21.79,1.75l.5-.14c.07.22.2.57.13.79-1.34,4.22-1.71,8.85-2.46,13.16-.88,5.02-1.17,8.63.34,13.57.7,2.31,4.14,9.74,3.41,11.57l-1.15.81.12.57c3.52.26,4.37,1.04,6.87,1.37.27,2.03.88,4.89-.35,6.55-.85.09-.5.11-1.36-.27l-.11.99c-1.37.14-4.16.08-5.64.09-1.84,3.12-3.79,6.25-5.68,9.35-.1-3.83-.27-5.61-1.18-9.36-1.88-5.98-5.73-9.3-7.7-15.85-4.86-16.12,3.89-24.77,10.31-38.52,2.41-5.17,3.45-8.84,4.55-14.34Z"/>
  <path class="st19" d="M107.08,256.1c-3.05-4.19-5.68-9.77-6.46-14.89-1.26-8.87.74-17.89,5.62-25.4.71-1.11,1.44-1.66,2.16-2.66l.76-1.03c.27.94.17,1.21.79,1.75l.5-.14c.07.22.2.57.13.79-1.34,4.22-1.71,8.85-2.46,13.16-.88,5.02-1.17,8.63.34,13.57.7,2.31,4.14,9.74,3.41,11.57l-1.15.81.12.57c-1.45.29-2.5,1.1-3.75,1.9Z"/>
  <path class="st19" d="M184.78,119.92l.06.5c-1.11.42-2.86.77-4.1,1.13-3.1.9-6.21,1.85-9.32,2.71-5.32,1.31-10.65,2.53-16.01,3.64-7.05,1.5-10.29,2.44-17.53,1.21l-.47-.46-.41.45c-2.02.6-2.81-.07-4.07-1.58l-.58-.49c-.85.39-1.13,1.65-.98,2.49-6.6,1.55-10.48,3.12-15.54,7.84l-.74.95c-.24.48-5.16,8.71-5.19,8.74l-1.63-.82c.07-1.49.27-5.34-.59-6.41-1.69-.12-2.24,1.2-3.21,2.37,1.24-3.24,3.33-5.87,5.62-8.41.14-.2.91-.96,1.12-1.19l.79-.67c.73-.97,2.99-2.47,4.04-3.19,1.17-1.86,8.96-4.52,11.11-5.13,3.82-1.06,11.31-1.98,15.15-.53,2.9.18,5.22,1.86,7.88-.27,3.02-1.02,8.31-1.25,11.47-1.31,5.75-.11,11.87-.4,17.56-1.2,1.79-.03,3.76-.21,5.57-.35Z"/>
  <path class="st18" d="M110.08,133.77c1.12,2.08.72,5.47.38,7.79l.33.7.39.1c1.59-1.19,2.47-3.11,3.9-4.05-.24.48-5.16,8.71-5.19,8.74l-1.63-.82c.07-1.49.27-5.34-.59-6.41-1.69-.12-2.24,1.2-3.21,2.37,1.24-3.24,3.33-5.87,5.62-8.41Z"/>
  <path class="st26" d="M109.26,140.94c.36,2.84,1.47,1.49,2.07,2.87l-.64,1.09c-.52.52-.5.47-1.19.73l-.37-.24c-.22-1.04.12-3.02.12-4.44Z"/>
  <path class="st17" d="M116.03,128.72c-.89,2.75-3.24.23-2.21,4.74l.32.03c.68-.81,1.21-1.47,1.83-2.33,0,1.2-2.07,6.06-2.93,7.12l.7.14c.63-.39.92-.58,1.6-.87l.48-.2-.74.95c-1.42.94-2.3,2.85-3.9,4.05l-.39-.1-.33-.7c.34-2.32.75-5.71-.38-7.79.14-.2.91-.96,1.12-1.19l.79-.67c.73-.97,2.99-2.47,4.04-3.19Z"/>
  <path class="st40" d="M132.92,127.51c.44-.5.55-.7.81-1.31.7-.39.37-.38,1.01-.24.86.88,1.78,1.85,2.67,2.69l-.41.45c-2.02.6-2.81-.07-4.07-1.58Z"/>
  <path class="st19" d="M127.14,123.58c3.82-1.06,11.31-1.98,15.15-.53-1.53.36-6.58-.49-8.67-.04-.93.2-5.94.72-6.48.58Z"/>
  <path class="st19" d="M131.36,129.51c1.45,1.09,2.5,2.23,3.77,3.52-.96.6-.96.84-1.88.8-.68,1.43-2.98,2.37-2.87,3.33l.91.85c-1.07.24-1.14.19-2.24-.08-1.95-.65-2.37.15-4.3.23-2.76,1.82-9.85,8.31-11.76,10.9-.84-.51-2.45-1.41-3.11-2.01.03-.03,4.96-8.26,5.19-8.74l.74-.95c5.05-4.73,8.93-6.29,15.54-7.84Z"/>
  <path class="st13" d="M124.77,138.16c1.8-1.26,3.03-.72,3.82-1.65.95-1.12,1.03-3.2,2.78-3.98,1.06.18.93.37,1.89,1.29-.68,1.43-2.98,2.37-2.87,3.33l.91.85c-1.07.24-1.14.19-2.24-.08-1.95-.65-2.37.15-4.3.23Z"/>
  <path class="st34" d="M124.77,138.16c1.93-.08,2.35-.88,4.3-.23-.11.6-.32,1.87-.74,2.33-4.02,4.49-9.6,8.04-13.54,12.57-2.2,2.53-.78,7.38-6.44,7.05-.89-.57-1.05-.92-1.66-1.77,1.29-.56,3.29,1.29,4.75-1.49.17-.33.03-.36-.22-.82-1.04-.64-1.35-.59-1.83-1.51.4-2.09,1.88-.64,3.36-1.88.53-2.4-4.97-.69-4.47-6.18l1.63.82c.66.61,2.28,1.51,3.11,2.01,1.91-2.59,9.01-9.08,11.76-10.9Z"/>
  <path class="st4" d="M117.46,147.18l.02.6c-.5,1.04-1.26,2.17-2.37,2.59l-.27-.23c1.07-1.11,1.66-1.77,2.62-2.97Z"/>
  <path class="st18" d="M110.81,191.08l.38.21c.19,1.44.16,2.38.14,3.81-.07-.13-.71-.82-.78-.89.05-1.03.16-2.09.26-3.13Z"/>
  <path class="st13" d="M131.36,129.51c-.15-.85.14-2.11.98-2.49l.58.49c1.27,1.52,2.06,2.18,4.07,1.58l.41-.45.47.46c1.19,1.17,1.54,1.44,1.36,3.18-.6.58-.25.45-1.06.44l-.94-.65c-.44-.72-.4-.99-1-1.14l-.09,1.48c-.53.39-.43.38-1.02.61-1.27-1.29-2.32-2.42-3.77-3.52Z"/>
  <path class="st34" d="M135.13,133.03c.59-.24.49-.23,1.02-.61l.09-1.48c.59.15.56.41,1,1.14-.46,1.43-2.73,6.41-4.02,7.21l-.29-.29.25-1.36-.26-.3c-.59.23-1.06.39-1.62.69l-.91-.85c-.11-.96,2.19-1.9,2.87-3.33.92.03.92-.21,1.88-.8Z"/>
  <path class="st40" d="M115.42,223.73c-.08-1.25.16-2.61.34-3.84.45,1.39-.18,1.98.46,3.34-.21.14-.58.4-.79.51Z"/>
  <path class="st19" d="M281.54,218.87c1.05.74,1.42,2.09,2.01,2.69,2.95,3,3.42,5.89,4.25,9.87,1.94,9.31-2.73,15.8-4.31,23.93-.29,1.96-.83,5.14.28,6.84.63.14.58.13,1.21-.03l.02.71c-1.16,3.06-1.98,7.13-3.06,10.41-2.34,7.05-5.22,13.9-8.62,20.51-5.96,11.15-12.09,19.62-21.15,28.51l-4.2,3.78c-1.79,1.44-3.58,2.9-5.44,4.25l-1.66,1.12c-1.84,1.16-3.87,2.49-5.77,3.51-1.15.92-1.46,1.24-2.86,1.68.58-1.94,3.78-6.32,5.05-8.19-5.38-6.76-.8-17.19,6.93-11.64l2.4-2.18c-1.92-2.33-3.29-5.23-1.08-7.96.73-.91,1.8-1.48,2.97-1.55,1.93-.14,2.95.64,4.35,1.79l2.2-2.14c-.16-.17-.32-.35-.48-.53-3.22-3.69-2.85-9.53,3.07-9.27,1.08.05,2.01,1.15,3.26,1.27.63-.56.67-.53,1.02-1.28-.95-1.18-1.94-2.32-2.64-3.65-1.42-2.71-.89-5.06,1.98-6.34,2.47-1.1,3.74-.5,6.09.39l1.27-2.07c-2.63-1.62-4.5-3-4.47-6.46.03-3.82,5.69-3.27,7.98-2.96l.29-.31c.57-2.87-3.49-3.2-3.85-5.84-.76-5.63,4.99-4.44,7.69-5.01l.14-.74c-.89-1.35-1.89-1-3.16-2.21-4.22-2.83-1.41-9.69,4.94-7.7.07-.77.08-1.11.06-1.88-.72-.89-.89-.7-2.2-1.13-.3-.18-.6-.36-.89-.56-2.1-1.45-3.13-4.48-1.48-6.64,1.7-2.23,5.3-2.12,7.92-2.45-1.84-.9-4.13-.94-5.55-2.35-4.44-4.39-.84-8.33,4.37-8.5.04-.56.01-.77-.02-1.33l-.46-.4c-1.1-.14-1.31-.19-2.31-.66l.35-.2c-1.59-.69-2-1.1-1.49-2.59-.27-1.35-.23-1.54.05-2.89.04-.01.08-.02.11-.04,1.55-1.19,2.98-1.33,4.89-1.56Z"/>
  <path class="st4" d="M273.26,259.76c1.79.52,2.99.62,4.74,1.01-.1,1.56-.77,3.4-1.37,4.84-1.94-.86-4.98-2.31-6.38.25-.47,3.15,2.42,4.16,4.65,5.23-.66,2.14-1.03,3.29-2.14,5.27-1.37-.7-4.19-2.09-5.43-1.19-4.17,3.04,1.41,6.45,3.24,7.41-.86,1.83-1.58,3.15-2.73,4.84-1.5-.76-4.12-2.16-5.6-1.23-4.72,2.98-.12,6.64,2.19,8.1-1.12,1.71-1.88,2.63-3.22,4.2-1.29-.84-3.46-2.38-4.93-1.8-4.58,1.82-.73,6.35.86,8.02-1.48,1.51-2.83,2.86-4.39,4.29-2.52-2.46-6.58-4.4-6.63,1.3-.02,1.58,1.55,3.11,2.6,4.27-1.46,1.39-3,2.91-4.49,4.25-1.72-1.41-4.61-3.51-6.57-.78-2.44,3.4-1.21,7.23,1.41,10.19-1.12,2.31-3.26,4.64-3.99,6.74-1.15.92-1.46,1.24-2.86,1.68.58-1.94,3.78-6.32,5.05-8.19-5.38-6.76-.8-17.19,6.93-11.64l2.4-2.18c-1.92-2.33-3.29-5.23-1.08-7.96.73-.91,1.8-1.48,2.97-1.55,1.93-.14,2.95.64,4.35,1.79l2.2-2.14c-.16-.17-.32-.35-.48-.53-3.22-3.69-2.85-9.53,3.07-9.27,1.08.05,2.01,1.15,3.26,1.27.63-.56.67-.53,1.02-1.28-.95-1.18-1.94-2.32-2.64-3.65-1.42-2.71-.89-5.06,1.98-6.34,2.47-1.1,3.74-.5,6.09.39l1.27-2.07c-2.63-1.62-4.5-3-4.47-6.46.03-3.82,5.69-3.27,7.98-2.96l.29-.31c.57-2.87-3.49-3.2-3.85-5.84-.76-5.63,4.99-4.44,7.69-5.01l.14-.74c-.89-1.35-1.89-1-3.16-2.21Z"/>
  <path class="st4" d="M281.6,239.39c-1.84-.9-4.13-.94-5.55-2.35-4.44-4.39-.84-8.33,4.37-8.5-1.13,1.5-3.93.34-4.52,3.32-.37,3.09.61,4.65,3.86,5.01.59.06,1.19.11,1.78.15,0,1.38.02,2.92-.04,4.28-2.35-.07-7.54-.01-7.42,3.48,1.44,3.38,3.82,2.71,6.22,3.89-1.56,1.02-1.87-.75-4.26.36-.3-.18-.6-.36-.89-.56-2.1-1.45-3.13-4.48-1.48-6.64,1.7-2.23,5.3-2.12,7.92-2.45Z"/>
  <path class="st34" d="M273.26,259.76c-4.22-2.83-1.41-9.69,4.94-7.7l-.16.36c-1.33-.04-3.11-.25-4.21.43-.34.62-.52.69-.51,1.23-1.6,6.4,3.26,4.16,4.68,6.69-1.75-.39-2.95-.49-4.74-1.01Z"/>
  <path class="st13" d="M280.86,225.38l.81-.05c.86,1.14.49,3.19.38,4.7-2.42.16-4.38.03-6.16,1.83.59-2.99,3.39-1.82,4.52-3.32.04-.56.01-.77-.02-1.33l-.46-.4c-1.1-.14-1.31-.19-2.31-.66l.35-.2.34-.32c1.25.06,1.39.11,2.55-.25Z"/>
  <path class="st13" d="M276.05,249.04c2.39-1.11,2.7.66,4.26-.36-.31,2.11-.55,3.14-1.15,5.19-2.55-.73-3.47-1.29-5.84.21-.01-.54.17-.61.51-1.23,1.1-.68,2.88-.47,4.21-.43l.16-.36c.07-.77.08-1.11.06-1.88-.72-.89-.89-.7-2.2-1.13Z"/>
  <path class="st34" d="M276.49,223.36c1.65,1.75,1.97,1.65,4.38,2.02-1.17.37-1.3.32-2.55.25l-.34.32c-1.59-.69-2-1.1-1.49-2.59Z"/>
  <path class="st19" d="M116.22,223.23c1.8-1.72,1.68-2.74,3.32-4.31.84-.1.56-.06,1.44.2,4.04.03,5.71,3.1,2,5.58-.84.56-2.87.59-3.89.65l.05,4.66c1.86.14,4.8.19,5.84,1.86,2.51,4-2.89,5.02-5.27,5.12-.02,1.46-.08,3,0,4.45,2.57-.18,3.64-.4,6.04.65,3.61,5.01-2.15,5.25-4.44,6.58-.58,1.51.32,3.62.84,5.2,3.01-.87,8.21-1.21,5.38,3.98-.8,1.46-3.05,2.03-4.62,2.5.5,1.65,1.07,3.76,1.71,5.32,1.6-.74,2.42-1.26,4.18-1.46.32.12.89.36,1.2.44,3.07,3.58-.88,5.11-3.65,6.48.44,1.42.8,2.74,1.51,4.05.23.36.39.82.7.78,2.38-.3,2.33-1.03,4.97-1.11.59-.23,1.12-.46,1.7-.72,3.83,4.01,1.01,6.65-2.56,9.25.66,1.11.45,1.17,1.41,1.65,2.39-.17,7.58-1.64,8.61,2.71.57,2.4-1.76,5.38-3.54,6.95.12.73.13.72.45,1.39.17.87-.04.5.7,1.09l-.11.15-.18-.23-.22.46-.46.16.33.32c1.44.21,2.93-1.56,5.74-1.47,2.75,2.09,1.95,4.5-.09,6.86-.39.44-.78.87-1.19,1.28,1.46,1.52,2.78,2.9,4.33,4.33.99-.97,2.64-2.65,4-2.3,5.23,1.36,1.89,5.9.05,7.74,1.64,1.71,2.73,2.78,4.54,4.31,1.36-1.07,2.53-2.22,4.4-1.96,2.99.43,3.65,4.22,3.25,6.69-.35,2.19-1.21,3.16-2.62,4.76.98,1.58,3.91,5.65,4.29,6.97-2.76-1.52-5.06-3.07-7.68-4.8l-6.93-5.48-2.96-2.67c-9.58-9.52-14.64-16.64-21.17-28.45-3.87-8.1-7.48-15.98-9.79-24.67-.52-1.96-1.12-4.54-1.92-6.32l.11-.99c.86.37.52.36,1.36.27,1.23-1.67.62-4.52.35-6.55-1.36-7.68-5.87-14.15-4.58-22.41.51-3.25,1.9-6.41,2.3-9.42.22-.11.58-.36.79-.51Z"/>
  <path class="st34" d="M132.67,283.38c.66,1.11.45,1.17,1.41,1.65,2.39-.17,7.58-1.64,8.61,2.71.57,2.4-1.76,5.38-3.54,6.95.12.73.13.72.45,1.39.17.87-.04.5.7,1.09l-.11.15-.18-.23-.22.46-.46.16c-1.13-1.34-1.57-1.88-2.51-3.39,2.39-1.56,7.04-5.56,1.86-8.26-1.41-.73-3.84.62-5.22,1.38-.5-.69-.98-1.45-1.44-2.16.22-.63.44-1.27.65-1.9Z"/>
  <path class="st4" d="M135.23,274.12c3.83,4.01,1.01,6.65-2.56,9.25-.21.64-.43,1.27-.65,1.9-.48-.86-.93-1.8-1.38-2.69,2.88-1.75,7.52-4.34,2.89-7.75.59-.23,1.12-.46,1.7-.72Z"/>
  <path class="st19" d="M246.7,134.32c.88-.06,10.28,2.21,10.67,2.69l.36.13c9.85,11.41,16.09,21.71,21.66,35.8-.14,1.43-.7,8.87-1.12,9.65l-.56.06c-4.41,5.22-9.08,2.24-6.15-2.23.37-.91.35-1.15.45-2.1.79-.44,1.28-.82,1.28-1.73-1.66-1.61-4.07.81-7.38-1.74-2.19-2.82-1.32-5.76,1.75-7.63.62-.38.65-.27.98-.88-.16-.8-.13-.75-.72-1.31-2.95-.37-2.87,1.89-6.32-.61-.14-.15-.27-.31-.4-.47-2.68-3.3-1.06-6.18,1.86-8.47l-.52-.65c-1.53-.53-4.91,2.27-7.45.16-3.82-3.17-1.3-6.28,1.02-9.26l-.17-.35c-1.74-.65-6.23,1.52-7.69-.79-1.96-3.1-.64-5.26,1.42-7.34-.99-1.72-1.2-2.08-2.98-2.92Z"/>
  <path class="st4" d="M246.7,134.32c.88-.06,10.28,2.21,10.67,2.69-1.18-.21-5.75-1.25-6.47-1.19.16.82.07.52.54,1.25-.9,1.4-4.02,5.53-1.81,6.9,1.9,1.19,4.37-.3,5.98-1.22,1.36,1.35,1.83,1.81,2.94,3.39-1.51,1.22-3.82,2.95-3.64,5,.44,5.21,5.49,2.54,7.57,1.12.88,1.13,1.85,2.14,2.21,3.49-.29.9-.04.49-.96,1.13-.27-.37-.49-.98-.66-1.41l-.52-.65c-1.53-.53-4.91,2.27-7.45.16-3.82-3.17-1.3-6.28,1.02-9.26l-.17-.35c-1.74-.65-6.23,1.52-7.69-.79-1.96-3.1-.64-5.26,1.42-7.34-.99-1.72-1.2-2.08-2.98-2.92Z"/>
  <path class="st4" d="M265.96,164.07c.79-.48,1.59-.95,2.38-1.42,1.15,1.68,1.74,2.7,2.53,4.61-1.98.94-3.66,1.63-4.44,3.86-.92,2.63,1.7,3.56,3.69,3.77l-.21.39c-.76.26-2.85-.3-4-.43-2.19-2.82-1.32-5.76,1.75-7.63.62-.38.65-.27.98-.88-.16-.8-.13-.75-.72-1.31-2.95-.37-2.87,1.89-6.32-.61,1.46-.31,2.28.22,4.22-.02l.13-.33Z"/>
  <path class="st13" d="M270.12,174.89c.88-.6,2.33-1.07,3.36-1.46.74,1.84,1.16,2.98,1.7,4.89-1.13.61-2.62,1.35-3.63,2.09.37-.91.35-1.15.45-2.1.79-.44,1.28-.82,1.28-1.73-1.66-1.61-4.07.81-7.38-1.74,1.15.13,3.24.69,4,.43l.21-.39Z"/>
  <path class="st3" d="M263.07,155.48c.17.43.39,1.04.66,1.41-3.65,3.01-2.8,7.32,2.23,7.18l-.13.33c-1.94.24-2.76-.29-4.22.02-.14-.15-.27-.31-.4-.47-2.68-3.3-1.06-6.18,1.86-8.47Z"/>
  <path class="st19" d="M150.24,135.54l.31.25c-.39.66-.68,1.12-1.12,1.74,2.37,1.99,3.09,2.33,2.82,5.58-.53,2.45-3.3,1.85-5.01,1.36l-.55.52c-1.03-.16-.57-.26-1.43.26-.05.1-.35.69-.36.79,3.14,2.26,4.36,5.03,1.87,8.41-2.49,3.37-5.74-.25-7.87.35l-.48.62c.31.46.53.67.96,1.04,3.29,2.84,2.16,8.63-2.41,9.21-1.32.17-2.66-1.06-3.73-.41l-.53.98c2.19,2.38,6.1,4.66,2.57,8.92-1.55,1.87-4.96.18-6.71.85,0,0-.66,1.38-.78,1.62.33,1.2,1.66,1.39,2.2,2.96.33.85,1.02,2.35.48,3.17-3.12,4.65-5.67-.46-7.42-1.37l-.34-.19c-.26-3.25-.42-6.82-.93-10,1.4-2.42,2.93-6.76,4.33-9.51,4.33-8.51,10.52-18.63,17.22-25.45,2.4-.42,4.68-.76,6.94-1.68Z"/>
  <path class="st13" d="M143.83,147.04c.94-.19.76-.07,1.06-1,3.14,2.26,4.36,5.03,1.87,8.41-2.49,3.37-5.74-.25-7.87.35l-.48.62c.31.46.53.67.96,1.04,3.29,2.84,2.16,8.63-2.41,9.21-1.32.17-2.66-1.06-3.73-.41l-.53.98c2.19,2.38,6.1,4.66,2.57,8.92-1.55,1.87-4.96.18-6.71.85,0,0-.66,1.38-.78,1.62.33,1.2,1.66,1.39,2.2,2.96,0,0-3.56-2.04-4.03-2.28.5-1.43.84-2.39,1.51-3.78.32-.64.08-.41.73-.69l.52.15c2.57.71,3.49,1.06,5.68-.17,1.3-3.89-.35-4.86-3.62-6.24,1.35-1.48,2.8-2.7,2.74-4.61,2.9,1.77,6.57,1.55,5.99-2.88-.27-2.12-1.7-2.94-3.33-4.08l2.59-3.85c6.4,4.74,10.74-.11,5.07-5.09Z"/>
  <path class="st34" d="M127.45,174.51c.32-.64.08-.41.73-.69l.52.15c2.57.71,3.49,1.06,5.68-.17-1.02,3.18-5.11.26-6.94.71Z"/>
  <path class="st12" d="M143.83,147.04c-.42-.22-.44-.33-.79-.71.02-1.25,1.7-3.27,2.82-3.28.42.45.92,1.02,1.37,1.42l-.55.52c-1.03-.16-.57-.26-1.43.26-.05.1-.35.69-.36.79-.31.93-.12.82-1.06,1Z"/>
  <path class="st23" d="M130.78,167.56c-.07-.13-.14-.53-.18-.7.48-1.3,1.35-3.81,2.92-3.91.06,1.91-1.39,3.13-2.74,4.61Z"/>
  <path class="st34" d="M152.25,143.11c-.53,2.45-3.3,1.85-5.01,1.36-.45-.4-.95-.97-1.37-1.42,2.86,1.4,3.75,2.23,6.38.06Z"/>
  <path class="st4" d="M122.93,205.19c2.15-1.21,4.06-1.47,5.18-4.1,1.43-3.35-3.33-3.98-4.25-5.02,1.63-3.15,8.28,3.06,5.23,6.68-.92,1.09-4.37,3.63-4.51,4.03,2.23,2.54,5.6,4.38,2.01,8.36-1.04,1.15-3.89.69-4.97,1.97,2.26,1.67,3.87.41,4.83,4.22,1.27,5.05-5.65,4.43-5.57,6.85,2.02,1.06,5.47.99,6.21,3.61,1.11,3.91-2.54,5.89-5.59,7.05-.16.06-.15,1-.14,1.09l-.08.21c1.47.19,3.63.26,4.59,1.59l-.1.35c-2.4-1.05-3.46-.83-6.04-.65-.08-1.45-.02-2.99,0-4.45,2.37-.1,7.78-1.11,5.27-5.12-1.05-1.67-3.98-1.72-5.84-1.86l-.05-4.66c1.03-.06,3.05-.08,3.89-.65,3.71-2.47,2.04-5.55-2-5.58-.24-.98-.87-.88-1.05-2.37.3-.92.64-1.18,1.29-1.9-.14-.57,1.02-5.9,1.24-6.83l.23.07c.23-.85.21-1.99.24-2.9Z"/>
  <path class="st19" d="M121.22,214.85c-.14-.57,1.02-5.9,1.24-6.83l.23.07c5.42,2.86,4.98,6.77-1.47,6.76Z"/>
  <path class="st4" d="M146.03,295.18c4.09,2.75,3.21,6.34.14,9.54l2.2,2.17c6.27-4.87,11.32,1.51,6.35,7.7l2.29,2.22c7.42-5.55,12.42,4.43,6.95,11.72,1.42,1.99,4.55,5.98,5,8.15-1.28-.54-1.56-.61-2.62-1.45-.38-1.32-3.3-5.39-4.29-6.97,1.41-1.6,2.27-2.58,2.62-4.76.4-2.46-.26-6.26-3.25-6.69-1.87-.27-3.04.88-4.4,1.96-1.8-1.53-2.89-2.6-4.54-4.31,1.84-1.85,5.17-6.38-.05-7.74-1.36-.35-3,1.33-4,2.3-1.54-1.42-2.87-2.81-4.33-4.33.41-.42.81-.84,1.19-1.28,2.04-2.36,2.83-4.76.09-6.86-.01-.98-.15-.51.63-1.37Z"/>
  <path class="st4" d="M121.32,248.65l.41.32c.84-.11,3.48-.56,4.12-.39-1,.62-2.27.86-2.98,1.58-.05.67-.06,1.18.48,1.73,2.16-.34,2.99-.51,4.93.68,5.73,4.83-2.77,8.03-3.41,9.43.31.93.09.48.97,1.25l1.03-.25c1.1.76.78.52,2.34.58-.22.48-.08.27-.41.62-1.76.2-2.58.72-4.18,1.46-.64-1.56-1.21-3.67-1.71-5.32,1.57-.47,3.82-1.04,4.62-2.5,2.83-5.18-2.37-4.85-5.38-3.98-.53-1.59-1.42-3.7-.84-5.2Z"/>
  <path class="st34" d="M123.35,251.89c2.16-.34,2.99-.51,4.93.68-.41.16-4.59-.2-5.25-.34l.32-.34Z"/>
  <path class="st19" d="M278.61,208.11c.54.86,1.61,5.78,1.41,6.76l.2.27c-.85.9-3.92-.34-5.66-.2-1.67-1.67-1.68-3.24-.8-5.27.73-.02,1.22.03,1.89-.26l.16.29c.74-.49,1.98-1.13,2.79-1.58Z"/>
  <path class="st41" d="M273.77,209.66c.73-.02,1.22.03,1.89-.26l.16.29c-2.97,3.76.9,5.26,4.2,5.18l.2.27c-.85.9-3.92-.34-5.66-.2-1.67-1.67-1.68-3.24-.8-5.27Z"/>
  <path class="st34" d="M127.78,177.62c1.59.6,3.18,1.52,3.92,3.14.51,1.13.52,2.41.04,3.55-.47,1.13-1.38,2.02-2.52,2.46-2.41.94-4.43-.41-5.96-2.18-.74-1.12-.76-1.1-.23-2.22,1.75.9,4.3,6.02,7.42,1.37.55-.82-.14-2.32-.48-3.17-.54-1.57-1.87-1.76-2.2-2.96Z"/>
  <path class="st13" d="M150.24,135.54l.39-.43c.93-.28,1.49-.57,2.42-.31-.45.77-.96,1.69-1.46,2.41,5.29,5.29.36,10.98-4.9,7.78l.55-.52c1.71.5,4.48,1.09,5.01-1.36.27-3.25-.44-3.59-2.82-5.58.43-.63.73-1.09,1.12-1.74l-.31-.25Z"/>
  <path class="st34" d="M272.01,178.32c-.1.95-.08,1.18-.45,2.1-2.93,4.48,1.74,7.45,6.15,2.23l.76.5c.1.85.12.42-.32,1.3-1.41,1.64-2.99,2.82-5.27,2.47-1.23-.19-2.33-.88-3.05-1.91-.69-.99-.91-2.22-.62-3.38.4-1.6,1.5-2.46,2.79-3.31Z"/>
  <path class="st13" d="M131.4,263.81c.86,1.12,1.57,2.25,1.45,3.77-.17,2.12-3.45,3.07-4.38,4.64-.06.11.41,1.6.52,1.96-.48.64-.42.63-1.13.99-.71-1.31-1.07-2.63-1.51-4.05,2.78-1.37,6.72-2.9,3.65-6.48.55-.2.9-.49,1.4-.82Z"/>
  <path class="st30" d="M121.35,239.92c7.43-.67,9.32,6.34,4.5,8.65-.65-.17-3.28.28-4.12.39l-.41-.32c2.29-1.33,8.05-1.57,4.44-6.58l.1-.35c-.96-1.33-3.12-1.4-4.59-1.59l.08-.21Z"/>
  <path class="st13" d="M273.01,203.98c-4.39-5.89,2.77-10.06,4.03-7.99-.72,1.47-4.35.67-3.57,5.96l.05.33-.51,1.7Z"/>
  <path class="st13" d="M274.57,214.94c1.74-.14,4.81,1.09,5.66.2,1.13.72,1.35,2.49,1.31,3.73-1.92.23-3.34.38-4.89,1.56-.04.01-.08.02-.11.04v-.39c.86-1.56,1.46-1.5,3.19-2.13l.19-.49c-1.04-1.79-2.63-.35-5.34-2.53Z"/>
  <path class="st36" d="M273.52,202.28c1.87,2.04,2.46,1.7,4.67,2.72.08,1.09.09,2.08.43,3.11-.81.45-2.04,1.09-2.79,1.58l-.16-.29c.79-.75.97-.94,1.61-1.81l-.31-.44c-.63-1.73-2.1-1.35-3.96-3.17l.51-1.7Z"/>
  <path class="st15" d="M279.91,217.46l-.19.49c-1.73.64-2.32.57-3.18,2.13v.39c-.28,1.35-.32,1.54-.05,2.89-.51,1.49-.1,1.91,1.49,2.59l-.35.2c-2.52-.98-3.96-3.59-2.31-6.02,1.36-2,2.34-2.21,4.59-2.67Z"/>
  <path class="st34" d="M128.99,274.18c2.72-.36,3.44-1.62,6.24-.06-.58.26-1.11.48-1.7.72-2.64.08-2.6.81-4.97,1.11-.3.04-.47-.42-.7-.78.7-.36.65-.35,1.13-.99Z"/>
  <path class="st34" d="M139.61,296.08c2.07.7,2.25-1.57,6.42-.9-.77.86-.64.39-.63,1.37-2.81-.09-4.29,1.68-5.74,1.47l-.33-.32.46-.16.22-.46.18.23.11-.15c-.74-.58-.54-.22-.7-1.09Z"/>
  <path class="st38" d="M185.42,121.74l.27-.09c1.56-.51,3.87-1.75,5.16-1.81l.11.27-.28.1-.47.17-.36.13c-2.89,1.05-5.4,2.69-8.26,3.67.74-.87,2.73-1.82,3.84-2.45Z"/>
  <path class="st38" d="M220.99,124.7c-.77-.06-7.64-3.27-8.32-3.76.8-.14.87,0,1.7.25,1.29.62,6.3,2.64,6.61,3.51Z"/>
  <path class="st34" d="M126.87,262.99c2.31-.3,2.55-.34,4.53.82-.5.33-.84.62-1.4.82-.31-.08-.88-.32-1.2-.44.33-.35.19-.14.41-.62-1.56-.06-1.24.18-2.34-.58Z"/>
  <path class="st34" d="M276.96,207.15l.31.44c-.64.87-.82,1.06-1.61,1.81-.67.29-1.16.24-1.89.26,1.22-1.36,1.59-1.59,3.19-2.52Z"/>
  <path class="st35" d="M155.68,160.23c2.66-4.62,7.11-9.29,10.87-12.93,15.65-15.2,38.55-19.35,57.59-7.8,8.17,4.95,16.41,12.76,21.38,21.03,17.25,25.25,21.84,61.61,16.23,91.18-.25,1.29-.73,3.88-1.2,5.06-1.74,12-10.17,29.93-17.44,39.66-1.51,2.03-6.46,7.27-7.07,8.27-.19,1.33-4.66,4.93-5.86,5.88-16.51,13.05-38.52,14.53-55.95,2.38-1.52-1.06-3.94-2.4-4.79-4.1.01.02-7.5-7.36-8.67-8.8-8.39-10.26-14.18-21.81-18.11-34.43-.78-2.51-2.04-6.95-2.39-9.47-.47-1.42-1.02-4.42-1.31-6-5.27-28.75-.33-65.57,16.73-89.93Z"/>
  <path class="st17" d="M236.04,304.7c-.19,1.33-4.66,4.93-5.86,5.88-16.51,13.05-38.52,14.53-55.95,2.38-1.52-1.06-3.94-2.4-4.79-4.1,2.13,1.36,4.24,3.09,6.55,4.56,6.74,4.26,14.46,6.72,22.42,7.14,15.49.72,26.61-5.88,37.64-15.86Z"/>
  <path class="st6" d="M200.22,171.16c4.48,12.57,8.16,26.09,12.64,38.51l1.76.03c12.93-.06,26.01.1,38.92-.05l-21.4,15.81c-3.04,2.23-8.6,6.08-11.31,8.44l.35,1.66c4.16,11.28,7.93,25.11,11.83,36.72-10.38-7.67-22.28-16.72-32.85-23.92-.49.44-.76.71-1.32,1.09-3.43,2.19-8.07,5.71-11.45,8.16l-19.99,14.48,12.59-38.01-1.59-1.34c-2.55-2.11-6.07-4.48-8.76-6.51-7.38-5.57-15.17-10.92-22.47-16.58,13.16.25,27.44-.1,40.65-.22l.35-1.26c2.47-6.58,4.78-14.17,6.99-20.92,1.58-4.81,3.9-11.37,5.07-16.08Z"/>
  <path class="st26" d="M187.82,209.42l15.58-.05c.79,2.38,1.61,5,2.48,7.34l-36.7.28c3.49,2.7,8.59,6.34,11.78,9.08-.76,1.96-1.75,4.83-2.56,6.65-2.55-2.11-6.07-4.48-8.76-6.51-7.38-5.57-15.17-10.92-22.47-16.58,13.16.25,27.44-.1,40.65-.22Z"/>
  <path class="st26" d="M189.63,231.88l29.73,21.74c-1.46-4.49-2.97-8.96-4.55-13.4,1.97-1.55,4.32-3.17,6.37-4.65,4.16,11.28,7.93,25.11,11.83,36.72-10.38-7.67-22.28-16.72-32.85-23.92-3.91-3.14-8.88-6.39-13.02-9.55.81-2.32,1.64-4.63,2.48-6.93Z"/>
  <path class="st26" d="M214.63,209.7c12.93-.06,26.01.1,38.92-.05l-21.4,15.81c-3.04,2.23-8.6,6.08-11.31,8.44-3.1,1.9-9.98,7.24-13.07,9.55-1.94-1.31-4.21-3.12-6.11-4.55,9.91-7.42,20.63-14.89,30.72-22.15l-14.76-.03c-1.02-2.07-2.26-4.84-2.99-7.02Z"/>
  <path class="st26" d="M185.27,217.99h7.38c-3.94,11.68-7.45,23.82-11.45,35.4,3.94-2.76,7.86-5.55,11.77-8.36l5.88,4.42c-3.43,2.19-8.07,5.71-11.45,8.16l-19.99,14.48,12.59-38.01,5.28-16.08Z"/>
  <path class="st37" d="M200.22,171.16c4.48,12.57,8.16,26.09,12.64,38.51,1.7,4.78,3.36,10.44,4.96,15.37-2.06,1.55-4.28,3.06-6.39,4.54l-11.13-37.89c-1.49,5.49-3.03,10.98-4.61,16.45l-7.54.02c2.47-6.58,4.78-14.17,6.99-20.92,1.58-4.81,3.9-11.37,5.07-16.08Z"/>
  <path class="st13" d="M217.66,329.34c1.14-1.71.76-1.85,2.76-1.69.63-.43.84-.95,1.23-1.62,1.45,2.64,2.97,5.25,4.56,7.81-.5.76-.97,1.73-1.77,2.01-.34-.25-.68-.49-1.03-.72-1.15.28-1.53,1.11-2.3,2.15l-.4.1c-2.57.66-3.56,1.63-5.6,2.27-1.9.28-4.26-.05-6.11.08-9.67.66-19.22.22-28.63-2.26-1.15-.3-5.02-1.11-5.29-2.34.27-1.36,1.4-1.36,2.44-2.04l.38-.25.27.14c2.16-.89,3.1-1.07,5.46-1.35.86-.78,1.65-1.74,2.73-1.88l.42.71c-.6,1.51-.72,1.86-1.99,2.94,4.69.95,10.7,1.44,15.57,1.85,1,.08,2.4,3.25,4.32,2.33-.36-2.07-.88-3.92-1.42-5.95.72-.68,1.5-1.46,2.26-2.09.42,1.49,1.75,7.17,2.83,7.81,1,.15.64.3,1.25-.13.29-2.96,2.31-2.87,5.09-3.06,1.64-.12,3.7,2.07,5.44.97-.08-1.29-1.83-4.52-2.47-5.8Z"/>
  <path class="st40" d="M175.07,335.13c.27-1.36,1.4-1.36,2.44-2.04l.38-.25.27.14-.24.56c1.1,1.08,11.12,2.88,13.02,3.13,1.86.24,5.81.4,7.55.82-7.68.85-14.41-1.86-21.8-3.19-.49-.09-1.2.52-1.63.82Z"/>
  <path class="st4" d="M220.14,328.69c.46.17,2.85,4.82,3.28,5.62-1.19-.55-3.36-4.41-3.28-5.62Z"/>
  <path class="st17" d="M196.08,128.43c19.13-3.2,43.63,12.9,52.67,29.02l-.1.29c-.84-.86-1.81-2.2-2.56-3.18-14.29-18.57-32.49-28.67-56.5-24.48-18.44,4.87-30.08,15.81-40.01,31.14-.96,1.47-2.86,5.49-3.89,6.39l-.18-.24c.58-1.63,1.43-2.52,2.23-3.97,9.69-17.44,27.62-33.68,48.35-34.97Z"/>
  <path class="st40" d="M143,171.22c.08.71-4.86,13.16-5.48,15.26-2.19,7.17-3.72,14.52-4.58,21.96-3.38,27.5,1.18,57.24,15.18,81.48,2.54,4.39,6.29,9.16,9.4,13.13l-.1.42c-8.39-9.12-15.5-23-19.46-34.71-10.11-29.89-9.11-69.04,5.05-97.54Z"/>
  <path class="st40" d="M255.12,167.63l.3-.07c.86,1.08,1.71,3.19,2.33,4.48,17.26,35.87,15.11,91.35-8.9,123.78l-.23-.19c.64-1.29,1.43-2.15,2.18-3.35,22.23-35.84,23.31-87.75,4.33-124.65Z"/>
  <path class="st17" d="M164.61,310.95c.91.55,3.09,2.3,4.13,3.05,3.25,2.35,6.06,4.17,9.71,5.92,14.21,6.83,30.81,6.57,44.8-.71,1.94-.99,3.58-1.95,5.41-3.1,1.64-1.04,3.19-2.65,4.92-3.26l.18.26-.75.65c-1.47,1.33-4.7,3.36-6.43,4.41-11.57,6.99-25.94,9.21-39.02,5.79-1.67-.79-9.51-2.81-10.45-3.56-4.21-3.35-9.86-4.82-12.5-9.42Z"/>
  <path class="st40" d="M243.44,302.35l.08.37c-2.79,3.38-5.91,6.46-9.31,9.21l-.03-.48c2.8-2.46,6.53-6.39,9.26-9.1Z"/>
  <path class="st9" d="M170.54,63.96c.11-1.78,1.5-3.23,3.28-3.4,1.78-.18,3.42.96,3.88,2.69.46,1.73-.41,3.53-2.04,4.26l1.65.87c.81.21.93.24,1.75.29,1.53.2,3.4.52,4.76,1.29,1.51.51,2.29.74,3.65,1.67-.55.33-1.1.52-1.35.99-.37,1.18-1.73,2.53-2.66,3.32l-1.25,1.53c-4.17,5.05-6.9,12.45-7.47,18.98-.16,1.83.42,4.14-.82,4.86-1.37-.07-2.5.08-3.96-.02-.52-.02-1.08-.14-1.61-.23l-1.06-.3c-1.66-.2-5.6-.33-7.03.33l.67.95-.72-.03-.79.28c-3.16.63-6.28,1.13-9.31,2.2l-.3-.98c-.49-1.74-.84-2.9-1.08-4.69-.23-.56-.42-2.04-.47-2.7-.51-7.38,1.19-13.14,5.94-18.73.62-.6,1.15-1.18,1.74-1.81,3.71-3.19,6.69-4.68,11.26-6.17l-.03-.5c-1.91.55-3.92-.54-4.49-2.45-.58-1.91.49-3.92,2.38-4.52,1.9-.6,3.93.43,4.56,2.32l.91-.29Z"/>
  <path class="st22" d="M168.43,71.9c6.12-2.58,8.89-2.29,15.38-1.94,1.51.51,2.29.74,3.65,1.67-.55.33-1.1.52-1.35.99-.37,1.18-1.73,2.53-2.66,3.32-5.74-4.16-13.65-2.75-17.9,3-1.91,2.58-2.07,5.25-2.11,8.33.76,6.02,2.54,9.44,6.52,14.01-.52-.02-1.08-.14-1.61-.23l-1.06-.3c-1.66-.2-5.6-.33-7.03.33-3.25-3.67-3.57-8.97-3.69-13.62l-.33.02c-.34.69-1.09,2.53-1.64,2.8.41-1.87,1.13-3.06,1.49-4.8.44-3.66,9.35-14.12,12.33-13.58Z"/>
  <path class="st33" d="M161.54,87.37c.36-.79.45-1.09,1.05-1.74.67.43.54.66.85,1.64.76,6.02,2.54,9.44,6.52,14.01-.52-.02-1.08-.14-1.61-.23l-1.06-.3c-4.29-2.1-5.57-9.03-5.75-13.38Z"/>
  <path class="st28" d="M168.43,71.9c6.12-2.58,8.89-2.29,15.38-1.94,1.51.51,2.29.74,3.65,1.67-.55.33-1.1.52-1.35.99-2.93.32-6.93-1.55-10.05-1.61-2.23-.05-5.05.62-7.22,1.16l-.41-.27Z"/>
  <path class="st18" d="M179.06,68.68c1.53.2,3.4.52,4.76,1.29-6.49-.35-9.26-.64-15.38,1.94-2.98-.54-11.9,9.92-12.33,13.58-2.04-1.27-1.08-2.4-.82-4.45-.69,1.18-1.11,2.02-2.05,3.02l-.31-.07c5.28-8.95,15.04-16.37,25.94-14.92l.19-.38Z"/>
  <path class="st1" d="M170.54,63.96c.11-1.78,1.5-3.23,3.28-3.4,1.78-.18,3.42.96,3.88,2.69.46,1.73-.41,3.53-2.04,4.26-1.16.52-2.51.39-3.56-.33-1.05-.73-1.64-1.94-1.56-3.22Z"/>
  <path class="st26" d="M167.18,68.91c-1.91.55-3.92-.54-4.49-2.45-.58-1.91.49-3.92,2.38-4.52,1.9-.6,3.93.43,4.56,2.32.31.94.23,1.97-.23,2.85-.46.88-1.26,1.53-2.22,1.8Z"/>
  <path class="st33" d="M156.25,87.49l.33-.02c.12,4.65.44,9.95,3.69,13.62l.67.95-.72-.03c-1.2-.54-2.33-1.14-3.5-1.75-.5-1.31-.8-2.12-1.5-3.35-.55-5.16.62-4.89,1.03-9.42Z"/>
  <path class="st1" d="M149.82,103.5c1.98-2.92,6.88-2.82,9.61-1.22-3.16.63-6.28,1.13-9.31,2.2l-.3-.98Z"/>
  <path class="st18" d="M155.22,96.9c.71,1.23,1,2.05,1.5,3.35,1.17.6,2.3,1.2,3.5,1.75l-.79.28c-2.73-1.6-7.63-1.7-9.61,1.22-.49-1.74-.84-2.9-1.08-4.69.55.75.79,1.92,1.09,2.86,2.82-2.35,3.15.05,5.92-.74.31-.6-.44-2.99-.52-4.03Z"/>
  <path class="st33" d="M196.01,13.15c1.3-3.72,3.01-8.15,4.1-11.86,2.11,4.47,3.47,10.3,5.55,14.53,4.23.3,10.95,1.03,14.94,1.06-.49.38-2.01,1.59-2.46,1.83-3.01,2.45-6.69,5.12-9.5,7.53-1.27-.81-2.55-1.61-3.83-2.4-.94-.57-2.5-1.73-3.4-1.51-.46,1.23-.35,1.97-.63,3.18.02-1.33.06-1.82-.16-3.11l-.32-.49c-2.2,1.08-6.59,3.11-8.45,4.33-3.28-2.68-8.35-6.27-11.28-9.03l.27-.34,1.23-.07c4.27-.38,8.55-.7,12.84-.96l1.12-2.68Z"/>
  <path class="st5" d="M196.01,13.15c1.3-3.72,3.01-8.15,4.1-11.86,2.11,4.47,3.47,10.3,5.55,14.53l-.93,1.18c-.92,1.16-2.31,3.05-3.27,4.08l.52.42-.68.25c-.76-.3-3.12-2.69-3.73-3.42-.69-.74-1.35-1.55-2-2.32.43-1.36.5-1.46.46-2.86Z"/>
  <path class="st14" d="M201.46,21.08h-.21c-.47-.92-.31-5.22-.12-6.36l.17.86c1.1,1.03,2.21-.44,3.43,1.41-.92,1.16-2.31,3.05-3.27,4.08Z"/>
  <path class="st1" d="M191.84,26.24c-3.28-2.68-8.35-6.27-11.28-9.03l.27-.34,1.23-.07c.94,1.13,3.76,1.67,5.22,1.66,1.63.39,12.48,2.69,13.03,3.36l-.02.1c-2.2,1.08-6.59,3.11-8.45,4.33Z"/>
  <path class="st1" d="M205.66,15.81c4.23.3,10.95,1.03,14.94,1.06-.49.38-2.01,1.59-2.46,1.83-1.88-.71-13.8,1.95-16.17,2.79l-.52-.42c.96-1.04,2.36-2.92,3.27-4.08l.93-1.18Z"/>
  <path class="st26" d="M196.01,13.15c.03,1.4-.03,1.5-.46,2.86.66.78,1.31,1.58,2,2.32-1.79,0-9.33-.38-10.28.12-1.46,0-4.27-.54-5.22-1.66,4.27-.38,8.55-.7,12.84-.96l1.12-2.68Z"/>
  <path class="st1" d="M200.29,21.91l.32.49c.22,1.29.19,1.78.16,3.11l-.07,1.92c-.3,2.09-.1,3.39-.28,5.09-3.88,2.87-9.18,6.64-12.87,9.69.81-2.86,1.77-6.92,2.68-9.62.21-1.42,1.2-4.81,1.6-6.33,1.86-1.22,6.25-3.25,8.45-4.33Z"/>
  <path class="st14" d="M200.29,21.91l.32.49c-1.91,2.7-3.66,5.46-5.51,8.19-1.03,1.52-2.49,3.99-4.5,3.24-.31-.71-.24-.49-.36-1.25.21-1.42,1.2-4.81,1.6-6.33,1.86-1.22,6.25-3.25,8.45-4.33Z"/>
  <path class="st20" d="M201.41,22.32c.9-.21,2.46.94,3.4,1.51,1.28.79,2.56,1.59,3.83,2.4,1.66,5.2,2.7,10.81,4.34,15.9-2.79-2.19-10.66-7.69-12.54-9.62.18-1.7-.02-3,.28-5.09l.07-1.92c.28-1.21.17-1.95.63-3.18Z"/>
  <path class="st10" d="M200.77,25.5c.28-1.21.17-1.95.63-3.18,1.04,1.79,6.11,10.05,6.13,11.42-.66-.98-1.77-3.18-2.57-4.47-1.29.14-3.02.84-4,.19-.29-.77-.24-1.23-.27-2.04l.07-1.92Z"/>
  <path class="st33" d="M153.71,76.65c-1.56.81-3.48.4-4.56-.99-1.08-1.39-1.01-3.35.16-4.67,1.18-1.31,3.12-1.59,4.62-.67,1.5.92,2.13,2.79,1.49,4.43l.53.83c-.58.63-1.12,1.21-1.74,1.81l-.5-.74Z"/>
  <path class="st33" d="M247.72,69.5c1.97-.32,3.84,1.01,4.19,2.97.35,1.97-.95,3.85-2.92,4.23-1.3.25-2.62-.22-3.48-1.23-.85-1.01-1.1-2.39-.64-3.63.46-1.24,1.54-2.13,2.85-2.34Z"/>
  <path class="st26" d="M143.25,85.16c1.97-.27,3.79,1.09,4.1,3.05.31,1.96-1,3.81-2.95,4.17-1.3.24-2.63-.25-3.48-1.27-.84-1.02-1.06-2.42-.58-3.66.48-1.23,1.6-2.11,2.91-2.29Z"/>
  <path class="st26" d="M255.92,84.89c1.95-.38,3.85.87,4.27,2.81.42,1.94-.79,3.87-2.73,4.32-1.29.3-2.64-.11-3.53-1.08-.89-.97-1.19-2.35-.78-3.61.41-1.25,1.47-2.19,2.77-2.44Z"/>
  <path class="st33" d="M240.99,64.64c1.29-.32,2.65.1,3.55,1.07.9.98,1.2,2.37.78,3.63-.42,1.26-1.49,2.19-2.8,2.43-1.94.36-3.81-.9-4.23-2.83-.41-1.93.78-3.84,2.7-4.31Z"/>
  <path class="st1" d="M255.33,92.74c1.88-.7,3.98.24,4.69,2.12.71,1.88-.22,3.98-2.1,4.7-1.89.73-4-.22-4.72-2.11-.72-1.89.24-4,2.13-4.71Z"/>
  <path class="st33" d="M145.91,76.26c1.99-.33,3.86,1.02,4.19,3,.33,1.99-1.01,3.86-3,4.19-1.99.33-3.87-1.01-4.2-3-.33-1.99,1.02-3.87,3-4.2Z"/>
  <path class="st33" d="M157.81,64.92c1.96-.37,3.86.91,4.25,2.87.39,1.96-.87,3.87-2.82,4.28-1.28.27-2.61-.17-3.48-1.15-.87-.98-1.14-2.36-.72-3.6.43-1.24,1.48-2.16,2.77-2.4Z"/>
  <path class="st26" d="M232.96,61.66c1.87-.65,3.93.31,4.62,2.17.69,1.86-.23,3.93-2.08,4.66-1.23.49-2.62.27-3.65-.56-1.02-.83-1.52-2.16-1.29-3.46s1.14-2.38,2.39-2.81Z"/>
  <path class="st1" d="M142.58,93c1.91-.64,3.97.4,4.61,2.31.63,1.91-.4,3.97-2.31,4.6-1.91.63-3.96-.41-4.6-2.31-.63-1.91.4-3.96,2.3-4.6Z"/>
  <path class="st16" d="M253.13,75.98c1.29-.25,2.62.21,3.47,1.21.85,1,1.1,2.39.64,3.62-.46,1.23-1.54,2.13-2.84,2.33-1.96.31-3.8-1.01-4.15-2.96-.35-1.95.94-3.82,2.88-4.2Z"/>
  <path class="st1" d="M225.35,60.23c4.61.08,6.48,4.76,2.01,7.1-5.55-.05-6.88-4.42-2.01-7.1Z"/>
  <path class="st35" d="M233.76,388.26c-15.55,0-28.2-12.65-28.2-28.2s12.65-28.2,28.2-28.2,28.2,12.65,28.2,28.2-12.65,28.2-28.2,28.2ZM233.76,337.63c-12.37,0-22.43,10.06-22.43,22.43s10.06,22.44,22.43,22.44,22.43-10.06,22.43-22.44-10.06-22.43-22.43-22.43Z"/>
  <path class="st6" d="M166.46,388.26c-15.55,0-28.2-12.65-28.2-28.2s12.65-28.2,28.2-28.2,28.2,12.65,28.2,28.2-12.65,28.2-28.2,28.2ZM166.46,337.63c-12.37,0-22.43,10.06-22.43,22.43s10.06,22.44,22.43,22.44,22.43-10.06,22.43-22.44-10.06-22.43-22.43-22.43Z"/>
  <path class="st21" d="M200.11,398.71c-15.55,0-28.2-12.65-28.2-28.2s12.65-28.2,28.2-28.2,28.2,12.65,28.2,28.2-12.65,28.2-28.2,28.2ZM200.11,348.08c-12.37,0-22.43,10.06-22.43,22.43s10.06,22.44,22.43,22.44,22.43-10.06,22.43-22.44-10.06-22.43-22.43-22.43Z"/>
</svg>