<?xml version="1.0" encoding="UTF-8"?>
<svg id="Camada_1" xmlns="http://www.w3.org/2000/svg" version="1.1" viewBox="0 0 500 500">
  <!-- Generator: Adobe Illustrator 30.1.0, SVG Export Plug-In . SVG Version: 2.1.1 Build 136)  -->
  <defs>
    <style>
      .st0 {
        fill: #827c7b;
      }

      .st1 {
        fill: #a9aaa1;
      }

      .st2 {
        fill: #2f6a43;
      }

      .st3 {
        fill: #992d35;
      }

      .st4 {
        fill: #c3220b;
      }

      .st5 {
        fill: #ce1b0b;
      }

      .st6 {
        fill: #253f3a;
      }

      .st7 {
        fill: #94574a;
      }

      .st8 {
        fill: #267c53;
      }

      .st9 {
        fill: #001605;
      }

      .st10 {
        fill: #fef21c;
      }

      .st11 {
        fill: #fefefe;
      }

      .st12 {
        fill: #000f6b;
      }

      .st13 {
        fill: #078a51;
      }

      .st14 {
        fill: #f5c402;
      }

      .st15 {
        fill: #8a6f29;
      }

      .st16 {
        fill: #e4e5ea;
      }

      .st17 {
        fill: #020902;
      }
    </style>
  </defs>
  <path d="M244.5,7.6c133.8-3.1,244.8,102.9,248,236.8,3.1,133.8-102.8,244.9-236.7,248.1C121.8,495.6,10.7,389.6,7.6,255.7,4.4,121.7,110.5,10.6,244.5,7.6Z"/>
  <path class="st11" d="M245,12.8c131-2.8,239.4,101.2,242.2,232.1,2.8,131-101.2,239.4-232.1,242.2-131,2.8-239.4-101.2-242.2-232.1C10,124,114,15.6,245,12.8Z"/>
  <path d="M244.2,66.8c101.4-3.2,186.1,76.4,189.3,177.8,3.2,101.4-76.4,186.1-177.7,189.3-101.4,3.2-186.1-76.4-189.3-177.8-3.2-101.4,76.4-186.1,177.8-189.3Z"/>
  <path class="st11" d="M243.2,72.4c98.3-3.8,181.1,72.9,184.8,171.2,3.8,98.3-72.9,181-171.2,184.8-98.3,3.7-181-72.9-184.8-171.2-3.8-98.3,72.9-181,171.2-184.8Z"/>
  <path d="M326,133.3c12.4,12.8,14.9,19,16.8,36.8,2.2-2,5-4.1,8.1-3.7,11.2,1.7,15.8,17.7,16.5,27.2.2,3.3,0,6.1.2,9.1-2.9-5.4-5.3-10.5-7.7-16.1-1.4-3.2-3.6-8-6.9-9.4-1.7-.7-3.9,1.3-5,2.3,10.8,9.9,19.2,19.8,19.9,35.3,0,1.7,0,3.5,0,5.2-8.5-14.3-10.4-23.2-25.7-33,0,9.6.7,19.2.8,28.7,16.6-7.4,25.4,5.8,31.9,19.7,4.3,9.2,6.2,17.6,5.7,27.8-4.9-11.5-12.9-34.8-24.6-39.8-1.2-.5-2.8-.9-4.1-1.1,10.6,8.1,18.7,18,20.5,31.6.1,1,.3,2.1.4,3.1-8.8-12.3-16.1-24.1-30.3-30.5.3,9.6.7,19.2,1.2,28.7,6.8-4.8,17.3-9.8,22.8-.1,8.3,14.6,7.2,34.5,9.4,50.8-.8-1.3-1.8-2.8-2.6-4.1-.4,6.6-1.9,9-4.9,14.7-.9-8.6-2-17.7-3.7-26.2-1.9-9.3-5.5-24.9-18-23.2-1,.1-1.9.3-2.9.5l-6.2,23c5.7-1.8,24.2-9.2,26.5.4,1.5,6.4-2.6,15-4.8,21-1-6.1-2.8-20.5-12.2-18.2-10.2,2.6-20.3,16-26,24.5,7.3-1.6,14.7-2.1,21.7,1.1-2.3,4.5-5.4,12.4-7.5,17.4,14,2.7,20.8,6.2,31.7,15.1-5.6.9-12.1,1.7-17.8,2.3,6.8,8.9,6.9,11.4,9.5,21.8-16.5-11-35-16.1-54.8-12.7.4-4.4.9-8.9,1.1-13.3-17.4,6.8-33.9,17.7-52.9,19.7,12.9,13,28.4,24.1,42.9,35.1,1.3,1,3.2,3.9,1.2,4.9-5.3,2.8-12-1.9-15.9-4.5-13.2-8.6-24.2-19.3-35-30.6-12.6,9.9-26.2,20.1-41.6,25.2-2.8,1-13.5,4-12.9-1.9.6-5.2,8.4-5.9,12.1-7,13.1-3.9,26.7-13.6,37.2-22.1-15.3-3.2-28.2-12.5-42.4-18.4l1.1,13c-19.7-3.5-38.2,1.6-54.7,12.6,2-9.7,3.2-13.7,9.4-21.8-5.8-.7-12.1-1.4-17.8-2.3,10.3-8.6,18.3-12.7,31.7-15.1l-6.6-16.7c5.5-2.9,9.1-3.2,15.4-3-.6-1.8-.9-2.5-1.8-4.2-16.5-1.8-36.6-6.1-41.3-25-.6-2.5-.8-5-1-7.6,5.1,2.1,9,3.5,14.5,4.6-.6-1.6-1.2-3.4-1.7-5,3.7.1,6.2.2,9.8,1-1.4-3.2-2.3-5.1-4.6-7.8,7.7,0,11,.3,17.7,4-3.3-3.6-8.4-7.2-12.7-9.6-7.3-4.1-11.7-5.9-15-14.3-3.2-8.1-2.7-16-6-24,5.5,1.3,12.3,2.8,17.3,5.1-.3-3.2-.6-6.3-.8-9.5,3.8,1.4,7.1,3.1,10.8,4.8.5-.3.5-.3.9-.8-.1-.7,0-1-.6-1.5-.9-.4-1.9-.7-2.4-1.6-.5-.9,0-1.8.2-2.7.7-2.2-11.5-7.5-13.3-8.5-1.6-.9-3-2-4.3-3.2-8.6-8.2-6.8-20.5-10.4-29.3,6.6,1,16.3,2.8,20.9,8.2l1,.9c.7-1.5.9-2.5,1.8-4.2.9-1.9,2-3.4,3.2-5.2-17.2-10.9-15.3-22.4-14.2-40.3,5.6,2,10.8,5,15.2,9,1.2-1.9,2.2-3.4,3.7-4.9.9-.9,1.6-1.6,2.5-2.5.9,2,4.5,9.4,4.8,10.7.4.8.4,1.3,1.1,1.9,6.7-6.3,11.4-8.4,20.7-9.1-2.3,5.6-2.9,10.9-3.2,16.9h123.4c2.9-3.7,6.8-8.4,11.9-4.4,3.5,2.7,4.7,7.6,6.9,11.2,1.5,2.7,2.7,4,4.7,6.2-1-9.4-4-10.6-9-18-4.8-7.2-6.4-13.6-7.1-22,4.1,5.6,8.1,11.5,12.2,17-2.5-6.9-5.5-13.3-6-20.6Z"/>
  <path class="st17" d="M131.6,182.3c6.6,1,16.3,2.8,20.9,8.2l-.6.8c2.2,2.2.7,4.5-.4,7.1l.7.4.4-.2c.5,1.6.4,2.8.6,4.4.4,2.1,1.3,4.8,2,6.8l.3.6c-.1.3-.6.9-.6,1l.2.3c.3,0,.2,0,.4-.2,1.5.9,1.8,2.8,1.7,4.5.3,1.1.7,1.7,1.2,2.7l.6-.6c.7.4.4.2.9,1.1l.9.2c.1-.8.7-1.3,1.5-1.4.8,0,1.5.4,1.7,1.2l.8-.3c-.6-1-.9-1.2-1.8-2-.2-2.8-.6-13.1-.3-15.7.7-.5,1.5-.3,2.4-.3l-.7-.8h-.5c.9-.3,1.1-.3,1.5-1.1.2-1,.2-.9-.2-1.9.5-.5.3-.2.5-1.1.2-.9.5-1.1,1.1-1.7l.7.2c.8-.3.9-.4,1.8-.2.8.6.8.7,1.3,1.5.1.5,0,.3.4.8.4-.5.2-.2.3-1.2.6-1.3.5-2.2,1.6-3.1l-.4-.5c-.7.2-.9.2-1.6.2-.8-.3-.9-.5-1.3-1.2v-.8c-.1,0-.5-.1-.5-.1-.6-.7-.5-.3-.5-1.1.5-.5.6-.5,1.3-.9,1.6-.2,1.8-.2,3.2.5,1.3-1.1,2.5-2.2,4-3.1l.6.7c1.9-.8,6.8-3.9,8.8-3.2.3.6.1,1.6,0,2.4.5,2,.5,12.2.3,14.5l-.2.3c0,1.1-.1,2.2.1,3.3v.6c-.3,1.4-.4,1.5-1.1,2.7l.9.5c-3.1,4.5-5.8,7.1-10.4,10.1-.8.6-3.9,2.5-4.4,3,1.6,1.7,2.9,2.8.2,4.7h0c-1,2.9-1,4-3.2,6.1,4.7.7,4.8,4.6.7,5.1v-1c-.5-.1-1-.6-1.2-1.2l-.9-.6c.3-1,.7-1.2.8-2.3-.3-.6-.9-.7-1.6-1l.7-.7c-.2-.2-.4-.5-.5-.7-.4.4-.8.8-1.3,1.1,0,.3,0,.6.1.9-.5-.9-.7-1.2-1.6-1.6-1.2,0-.6-.2-1.7.5h-.4c-.1-.9,0-1.1-.6-1.6-.9-.4-1.9-.7-2.4-1.6-.5-.9,0-1.8.2-2.7.7-2.2-11.5-7.5-13.3-8.5-1.6-.9-3-2-4.3-3.2-8.6-8.2-6.8-20.5-10.4-29.3Z"/>
  <path class="st13" d="M174.7,203.1c4,.3,8.1.4,12.2.6-.1,1.4-.2,1.5-1,2.7-1.9,2.8-3.3,4.5-5.9,6.6-3.4-.2-6.8-.7-10.2-.8,1.4-2.7,3.2-6.7,4.8-9.1Z"/>
  <path class="st13" d="M138.5,205c1.8-.6,9.1-1.3,11.4-1.6,1.5,2.4,3.6,6,5.1,8.1-3,.6-6.3,1.5-9.1,1.9-3.5-2.5-5.2-4.6-7.3-8.4Z"/>
  <path class="st13" d="M179.9,194.9c2.2-.4,4.8-.9,7-1.4v6.3c0,1.1-.1,2.2,0,3.3-1.6-.3-9.9-.6-12-.7,1.5-2.4,3.2-5.3,4.9-7.5Z"/>
  <path class="st13" d="M146.8,187.5c2,1.1,3.4,2.4,5.1,3.9,2.2,2.2.7,4.5-.4,7.1-.5,1.3-1,2.7-1.5,4-1.1-2.2-3.5-5.1-5-7.1.7-2.4,1.3-5.4,1.9-7.9Z"/>
  <path class="st13" d="M165.3,200.9l.3.3c.2.2.4.5.7.8.4,4,.4,10.4.6,14.4-1.5,1.6-2,2.1-.9,4.2-.8.6-.5.6-1.1.5,0-.8,0-1.3,0-2.2-.6-1-.9-1.2-1.8-2-.2-2.8-.6-13.1-.3-15.7.7-.5,1.5-.3,2.4-.3Z"/>
  <path class="st13" d="M173.1,192.2c1.9-1.7-.1-2.5,4.2-5.7l2.2,7.7c-1.4,2.1-3.7,5.5-4.9,7.7-.9-1.9-2.1-4.7-3.1-6.5.6-1.3.5-2.2,1.6-3.1Z"/>
  <path class="st13" d="M177.9,185.8c1.9-.8,6.8-3.9,8.8-3.2.3.6.1,1.6,0,2.4-2.7,2.9-4.4,5-6.7,8.3-.9-2.6-1.5-4.9-2.2-7.5Z"/>
  <path d="M165.6,201.2l.5-.3c.7.1,1.1.2,1.8.2.3.2.5.3.6.6.7.7,1,1.1,1.9,1.4,1.1,0,1.5-.5,2.2-1.3l.5.7c-1.4,1.8-2.2,1.5-4.3,1.1-.7,1.4-.6,6.6.6,7.8l.6.3c0,.8,0,.4-.4,1.3-.9,1.8-1.3,3,.3,4.5l-.4.3c-1-.3-1.1-.4-2.1-.1-.8.6-.9.9-1.1,1.9v1.1c-1.2-2-.7-2.6.8-4.2-.2-4-.2-10.4-.6-14.4-.3-.3-.5-.6-.7-.8Z"/>
  <path class="st13" d="M146.6,213.9c2.8-.7,5.6-1.3,8.4-1.8l2.2,3.8c.3,1.1.7,1.7,1.2,2.7l.4,1v.5c-1.8-.7-3.3-2-4.9-2.9-2.4-1.3-4.9-2.3-7.4-3.4Z"/>
  <path class="st13" d="M169.4,212.9c3.3.2,6.6.6,9.9.9-2.7,2.1-5.6,4-8.7,5.5-.2-.7-.3-1.4-.9-1.8-1.6-1.5-1.2-2.7-.3-4.5Z"/>
  <path class="st13" d="M173.2,200.7c.5,1.2.9,1.5.4,2.7-1.1,2.5-2.8,5.7-4.3,8-1.1-1.2-1.3-6.4-.6-7.8,2.1.4,2.9.6,4.3-1.1v-1.7s.2,0,.2,0Z"/>
  <path class="st13" d="M152.2,198.8l.4-.2c.5,1.6.4,2.8.6,4.4.4,2.1,1.3,4.8,2,6.8h0c-.6,0-4-5.9-4.6-6.8.6-1.4,1.1-2.7,1.6-4.2Z"/>
  <path class="st3" d="M168.5,201.7c1.1-2.5,2.9-2.4,4,0-.7.8-1.1,1.2-2.2,1.3-.9-.2-1.2-.7-1.9-1.4Z"/>
  <path class="st3" d="M169.8,190.6c.3-1,.2-1.2,1-1.8,1.1-.3.6-.3,1.6,0,.8.8.5.3.8,1.4-.2.7-.2.8-.5,1.5-.7.2-.9.2-1.6.2-.8-.3-.9-.5-1.3-1.2Z"/>
  <path class="st3" d="M167.7,194.4c.8-.3.9-.4,1.8-.2.8.6.8.7,1.3,1.5-.7,1.2-.7,1.3-2.1,1.6-1-.3-.6,0-1.2-.8-.3-1-.2-1.1.2-2.1Z"/>
  <path class="st3" d="M167.2,228.5c-.3-.8,0-1.6.8-2,.7-.4,1.6-.1,2.1.5.5.7.4,1.6-.2,2.1-.6.6-1.5.6-2.1,0-.2-.2-.4-.5-.5-.7Z"/>
  <path class="st3" d="M160.9,219.4c.1-.8.7-1.3,1.5-1.4.8,0,1.5.4,1.7,1.2.2.6,0,1.3-.6,1.7-.5.4-1.3.5-1.8.1-.6-.3-.9-1-.8-1.7Z"/>
  <path class="st3" d="M166.1,219.5c.1-1,.3-1.3,1.1-1.9,1-.2,1.1-.1,2.1.1.5,2.8-1.2,3.8-3.2,1.8Z"/>
  <path class="st3" d="M168.7,233.8c-.2-.7.1-1.4.7-1.8.6-.4,1.4-.3,1.9.2.5.5.7,1.2.4,1.9-.3.6-1,1-1.7.9-.6-.1-1.1-.6-1.3-1.2Z"/>
  <path class="st3" d="M166.1,200.9c.1-1.3.1-3.1,1.9-3.1,1.3,1.2.7,2.1,0,3.3-.7,0-1.1-.1-1.8-.2Z"/>
  <path class="st8" d="M173.1,200.7c-1-1.3-2.9-1.8-2.9-2.6l1.3-1.5c.7,1.3,1.3,2.6,1.8,4h-.1Z"/>
  <path class="st2" d="M158.5,218.7l.6-.6c.7.4.4.2.9,1.1.2,1.7.2,1.4,1.4,2.8l-.3.2c-1.5-.7-1.2-1.5-1.7-2.9h-.3s-.3.4-.3.4l-.4-1Z"/>
  <path class="st13" d="M135.5,194.3c2.8.6,6,1.2,8.8,1.7,1,1.2,4.7,5.3,4.5,6.6l-.7.2c-3.3.5-6.6,1-9.9,1.4-1.3-3.7-1.9-6.2-2.7-10Z"/>
  <path class="st13" d="M134.2,183.8c3.3,0,9.1,2.2,12.1,3.4-.5,1.9-1,3.8-1.5,5.7-.2.7-.2,1-.7,1.4-.7-.6-2.6-2.9-3.4-3.8-2.2-2.5-4.2-4.4-6.5-6.7Z"/>
  <path class="st13" d="M133.8,184.9c1.9.7,8.3,8.1,9.6,10.1-1.5,0-6.1-1-8-1.3-.4-2.9-1-5.9-1.6-8.7Z"/>
  <path class="st13" d="M186.4,186.5l.3.2c.4.8.3,5.1.3,6.2-2,.3-4,.7-5.9,1.1-.2-.2,0,0-.2-.5,1.8-2.6,3.4-4.7,5.6-7Z"/>
  <path class="st3" d="M170.4,221.1c.5-.3,1.2-.3,1.7,0,.5.3.8.9.8,1.5,0,.6-.4,1.2-1,1.4-.8.3-1.7,0-2.1-.8s-.1-1.7.6-2.2Z"/>
  <path class="st3" d="M164.9,224.7c.6,0,1.2.3,1.5.8.3.5.3,1.2,0,1.7-.3.5-.9.8-1.6.8-.9,0-1.5-.8-1.5-1.7,0-.9.7-1.6,1.5-1.6Z"/>
  <path class="st3" d="M161.6,223.1c.7.4.7.4,1.2,1.1.3,1.3-.1,1.8-.8,2.9-2.4-1-2.6-2.5-.4-3.9Z"/>
  <path class="st3" d="M165.8,221.7c1.3,0,1.8.1,2.3,1.4-.2,1.1-.1.8-1.1,1.7-.8-.6-1.5-.6-2.1-1.5.1-.9.2-.7.9-1.6Z"/>
  <path class="st7" d="M168.3,224.3c1.5.2,2.4.3,2.6,1.8-.9-.4-1.7-.6-2.6-1.1v-.7Z"/>
  <path class="st17" d="M158.5,258.9c.4-.3.2-.2.8-.2,1.1.8,1.2.9,2.1,1.9v1.2c.4,1.7,2.1,5.3,3,6.8l.3.2.3-.4.4.5c.7-.7.7-.7,1.6-1,.9,0,.9.2,1.6.8,1.1-.3.6-.4,1.5-.1.2.3.3.5.4.8.7-.5.9-.8,1.8-.7.9.4.8.5,1.4,1.2l.2-.7h.2s.3,1.3.3,1.3c1.9.3,2.7-2.7,5.2,1.3.3-1.8.7-4.1.8-5.9,1.5,1.1,2.8,2,4.2,3.3.4.4,2.2,2.4,2.5,2.4-.3.7-.1.4-.9.9,1,1.5.9,2.7.9,4.5.2,1.5.2,2.8,0,4.3.2,2.6.3,4.9.8,7.4l.3.8c.3,2.6,1.6,5.8-.3,7.8l.3.6,1,.8c-.7,2.6-2.4,7.3-2.4,9.7,2.9,1.3,4.4,2.2,1.6,5.2.7.7,5.1,2.5.6,5.1-1.3.7-3-1.6-3.9-2.6l-.3.2c0,.3,0,.7.1,1l-.6.8c0-.5-.2-1-.5-1.3-.4-.3-.9-.5-1.3-.4-.9-.8-1.2-2.2-.4-3.2h.8c0-.2.2-.4.4-.6v-.8c1-.5,1.1-.3,1.6-1.2-.4-.9-1.4-1.4-2.3-2.1l.3-1.2.5-1.4c0-.2-.3-.7-.4-.9-1.8-3.4-2.8-4.1-3.9-7.9l-.2-.7-2.4-9.8c-.4-.5-.2-.6-.2-1.3,0-.7,2.3-6,2.7-7.2l.2-.7c.5-1.5.8-2.6,1.2-4.2-.7.1-.7,0-1.1.3-1.3.9-1.9.9-3.5,1l-.2.3c1.3,2.3,2.1,3.5-.6,5.3l-.2-.6-.9-.2c-.7-.7-.9-1.3-1.2-2.3-.3-.9-.2-.6-1-1.4,0-2.3-1.6-2.5-3.4-1.7,0-.5,0-.3-.4-.7l-.4-1.1c-.3-.2-.3-.1-.8-.2l-.5.7h-.4s-.5-.5-.5-.5l-.9.2c-.6-.3-2.9-1.9-3.6-2.4-3.2-2.1-5.9-4-9.4-5.7-.5-.5-.8-.5-1.5-.7,3.6-.4,7-.8,10.6-1.3l-1.8-3.4Z"/>
  <path class="st13" d="M176.3,286.6c1.1-.2,6.9,3.2,8.4,3.8,0,2.7.1,5.3,0,8-1.6-.5-4.6-1.7-6.1-2l-2.4-9.8Z"/>
  <path class="st13" d="M178.8,278.1c1.8,1.3,3.6,2.5,5.2,4,.4,2.5.6,5,.7,7.5l-8.6-4.3c0-.7,2.3-6,2.7-7.2Z"/>
  <path class="st13" d="M151.1,264.3c3.3-.6,6.5-.8,9.6-1.3.9,1.7,4.1,7.8,4.3,9.2l-.9.2c-.6-.3-2.9-1.9-3.6-2.4-3.2-2.1-5.9-4-9.4-5.7Z"/>
  <path class="st13" d="M182,268.3c1.5,1.1,3,2.8,4.1,4.3,1,1.5.9,2.7.9,4.5-.3,2.5.7,2.9-2.1,4.3-.3-.3-2.6-11.5-2.9-13.1Z"/>
  <path class="st13" d="M178.9,297.1c2,.6,3.9,1.4,5.9,2.2,0,1.4.3,4.1-.5,5.1-.3.3-1,.5-1.4.6-1.8-3.4-2.8-4.1-3.9-7.9Z"/>
  <path class="st13" d="M181.9,271.2c.9,3.7,1.3,6.3,2,9.9-1.3-1-3.5-2.9-4.9-3.7.5-1.5.8-2.6,1.2-4.2l.6-2h1.1Z"/>
  <path class="st13" d="M185.4,290.4l2.7-.8c.3,2.6,1.6,5.8-.3,7.8-.8.2-1.5.6-2.2.3,0-2.4-.1-4.8-.2-7.2Z"/>
  <path class="st13" d="M184.9,282.4c.9-.5,1.2-.7,2.2-1.1.2,2.6.3,4.9.8,7.4-1.1.4-1.1.6-2,.4-1-1.2-.8-4.9-.9-6.7Z"/>
  <path class="st13" d="M185.5,298.8c.9-.3,1.7-.6,2.6-.9-.5,1.7-1.4,5.9-2.6,7-.2-1.6,0-4.4,0-6.1Z"/>
  <path class="st3" d="M183.1,312.5c.6-.6,1.5-.7,2.2-.2s.9,1.4.5,2.1c-.4.7-1.3,1-2.1.7-.8-.3-1.2-1.2-1-2,0-.3.2-.5.4-.7Z"/>
  <path class="st3" d="M172.5,277c.6-.8.6-.7,1.4-1.2,1.5,0,1.8.5,1.8,2-.6,1.2-.8,1.1-2.1,1.5-.7-.7-.9-1.3-1.2-2.3Z"/>
  <path class="st3" d="M183.2,305.9c1-.4,1-.4,2-.2.8.6.5.2.8,1.2-.2.9-.1.9-.7,1.5-1.4.5-1.8.1-2.6-1.2l.5-1.4Z"/>
  <path class="st3" d="M165.4,269c.7-.7.7-.7,1.6-1,.9,0,.9.2,1.6.8-.2,1.6-.1,2.4-2.1,2.4-.9-.5-1.2-1.1-1.1-2.2Z"/>
  <path class="st3" d="M170.4,269.4c.7-.5.9-.8,1.8-.7.9.4.8.5,1.4,1.2-.6,1.1-2,2-3.2,1.3-.3-.9-.3-.9,0-1.8Z"/>
  <path class="st3" d="M167.2,272.2c1.3-.7,1.3-.8,2.7-.6,0,1.1-1.4,1.2-2.3,1.7l-.4-1.1Z"/>
  <path class="st2" d="M159.2,258.7c1.1.8,1.2.9,2.1,1.9v1.2c-.4-.8-1.4-1.6-2.1-3.1Z"/>
  <path class="st8" d="M180.8,271.2c0-.8,0-1.1.4-1.8.5.4.5.9.7,1.7h-1.1Z"/>
  <path class="st3" d="M187.5,314.8c.6-.2,1.2-.1,1.7.3.5.4.7,1,.5,1.6-.2.6-.6,1.1-1.2,1.2-.8.2-1.6-.3-1.9-1.1s.1-1.6.9-2Z"/>
  <path class="st3" d="M186.4,309.4c1.4,0,1.9.2,2.4,1.5,0,1-.3,1.2-.8,2.1h-.7c-1.8-1.2-1.7-1.8-.8-3.6Z"/>
  <path class="st3" d="M172.4,272.1c.5-.3,1.1-.4,1.7,0s.8.9.8,1.5c0,.6-.4,1.1-1,1.4-.8.3-1.6,0-2-.7-.4-.7-.2-1.6.5-2.1Z"/>
  <path class="st3" d="M176.3,270.6c.8-.3,1.6,0,1.9.8.3.7,0,1.6-.7,2-.5.3-1.1.2-1.6-.1-.5-.3-.7-.9-.6-1.4,0-.6.4-1,1-1.2Z"/>
  <path class="st11" d="M186.8,206.9c.3,5.5.2,12.4.2,18.1v30.8c0,4-.3,12.1,0,15.9-.3,0-2.1-2.1-2.5-2.4-1.3-1.3-2.7-2.2-4.2-3.3-.2,1.8-.6,4.1-.8,5.9-2.5-4-3.4-1-5.2-1.3l-.3-1.3.5-.5c-.7-.5-1.1-1.4-1-2.2.1-.9.7-1.6,1.5-1.9l-.8-.6c4.8-6,10.3-13.6,11-21.4.6-6.4-1.4-10.2-5.3-14.9-3,4.1-5.9,8.4-8.8,12.7-.6-1.6-.9-2.6-1.3-4.3,4-.5,3.9-4.4-.7-5.1,2.2-2.1,2.1-3.2,3.2-6.1h0c2.7-1.8,1.5-2.9-.2-4.7.5-.5,3.6-2.5,4.4-3,4.6-3,7.3-5.6,10.4-10.1Z"/>
  <path class="st17" d="M175,264.5c1-.4,2.2,0,2.8.9.6.9.5,2.2-.3,3-.8.8-2,.9-3,.3-.7-.5-1.1-1.4-1-2.2.1-.9.7-1.6,1.5-1.9Z"/>
  <path class="st3" d="M175.1,265.3c.7-.4,1.7,0,2,.7.4.7.1,1.7-.6,2.1-.5.3-1.1.2-1.5,0-.5-.3-.7-.8-.7-1.4,0-.6.3-1,.8-1.3Z"/>
  <path class="st9" d="M163.1,145.9c.9-.9,1.6-1.6,2.5-2.5.9,2,4.5,9.4,4.8,10.7l-.6,1.1c.6,1.8,1.4,4.2,1.6,6.1l.2.7c.2,2.5.4,6.8-1.1,8.9v1.2c-2,2.6-4.3,5.7-6.5,8-.5.3-.5.3-.8.8h-.4c-1.2-2.8-2.3-5.8-3.3-8.7l-.3-.7c0-1.5-1-6.4-1.2-8.8l.3-.7c-.7-1.3.2-5.7,1-7.1.3-.3.2-.2.3-.8,0-2.4,2.8-5.7,4.3-7.6l-.8-.6Z"/>
  <path class="st13" d="M171.6,161.8c.2,2.5.4,6.8-1.1,8.9-1.1.3-5.4,2.1-6.7,2.7.1-2.4,0-4.9.2-7.4,1.9-.7,5.3-3,7.6-4.1Z"/>
  <path class="st13" d="M164.2,159.1c.9-1.1,3.7-5,5.1-4.9l.5.9c.6,1.8,1.4,4.2,1.6,6.1-1.2.5-5.9,3.2-7.4,4,.1-2,.2-4.1.3-6.1Z"/>
  <path class="st13" d="M159.3,154.8c1.5,1.4,2.7,2.5,4.1,4,0,2.1-.1,4.3-.2,6.4-1.1-.9-3.5-2.8-4.9-3.3-.7-1.3.2-5.7,1-7.1Z"/>
  <path class="st13" d="M158,162.5c1.8,1,3.4,2.2,5.1,3.4v7.2c-1.1-.6-2.8-1.7-4-1.8,0-1.5-1-6.4-1.2-8.8Z"/>
  <path class="st13" d="M163.9,146.4l.3.2c0,3.2-.7,7.8-.8,11.3-.8-.8-3.1-3.4-3.9-3.8,0-2.4,2.8-5.7,4.3-7.6Z"/>
  <path class="st13" d="M163.7,174.2c1.4-.6,5.5-2.5,6.6-2.2-1.9,2.6-4.2,5.7-6.4,8-.2-.7-.2-4.8-.3-5.8Z"/>
  <path class="st8" d="M159.5,172c1.2.6,2.3,1.4,3.5,1.8,0,1.6.3,5.7-.3,7-1.2-2.9-2.3-5.8-3.3-8.8Z"/>
  <path class="st13" d="M165.2,145.7c1.1,1.2,3,5.7,3.6,7.3-.8.7-1.5,1.5-2.3,2.3l-2.2,2.6c0-2.8.5-9.5.9-12.2Z"/>
  <path class="st11" d="M189.1,298.7c.2-.8,0-1,.6-1.4.4.6,1.1,3,1.6,4.2,1.5,3.5,2.8,6.4,4.7,9.7,10.1,17,27.4,28.6,47,31.3,5.8.8,10.5.7,16.2.2l-.4,1c-23.1,5-38.9-9.2-58-18.5-2.8-1.3-5.6-2.6-8.5-3.7-2-.8-4.7-1.6-6.9-2.4-.5-.2-.6-1.3-.8-2,0-.3,0-.7-.1-1l.3-.2c.9,1,2.6,3.3,3.9,2.6,4.5-2.6.1-4.4-.6-5.1,2.8-3,1.3-3.9-1.6-5.2,0-2.4,1.7-7.1,2.4-9.7Z"/>
  <path class="st13" d="M136.3,231.7h1.2c2.6.4,11.1,2.3,12.9,3.8l.6.3c-.6,2-1.1,6.5-1.6,8.8.9,1.1,2.7,3.3,3.2,4.5l-.4.3c.7,1,1.4,1.9,2,2.9-1.2.7-10.4,1-12.7,1.3-1-3.9-1.8-5.6-2.7-10.1,0,0,0-.7,0-.8-.9-3.8-1.1-7.2-2.3-11Z"/>
  <path class="st13" d="M138.7,243.6c2.4.2,7.3,1.2,9.9,1.6,1.4,1.5,2.2,2.6,3.4,4.3.7,1,1.4,1.9,2,2.9-1.2.7-10.4,1-12.7,1.3-1-3.9-1.8-5.6-2.7-10.1Z"/>
  <path class="st13" d="M137.5,231.7c2.6.4,11.1,2.3,12.9,3.9-.7,2.2-1.2,6.1-1.6,8.6-3.1-4.3-7.7-8.5-11.3-12.4Z"/>
  <path class="st9" d="M136.3,231.7h1.2c3.6,3.9,8.1,8.1,11.3,12.4.4-2.4.8-6.3,1.6-8.6l.6.3c-.6,2-1.1,6.5-1.6,8.8.9,1.1,2.7,3.3,3.2,4.5l-.4.3c-1.2-1.6-2-2.8-3.4-4.3-2.6-.4-7.5-1.4-9.9-1.6,0,0,0-.7,0-.8,2.8.3,6.5,1.1,9.4,1.6-2.1-2.7-9.1-10.5-11.7-12.6Z"/>
  <path class="st17" d="M161,181.3c.6,0,.6,0,1.1.2-.6.8-.6,1-.9,2v.7c1.2.6,3.3.9,3.6,1.8.9,3.5-1.8,3.8-4.1,3.4-.5.4-.3.2-.5.7v.8c0,0,.2.3.4.3-.7.8-.8.9-.8,1.9.5,1.2.7,1.2,1.9,1.5-.7,0-1.2,0-1.8.3v.2c.1,0,.6,0,.6,0-.3,1.7-.3,3.8,0,5.5l.3.4.2.6c-1,1.1-.7,2.4-.6,4,0,1.2.2,2.5.4,3.7-.3.2-.8.4-1,.7h-.4c-.6-.3-.9-.4-1.5-.7-.8.1-.9.3-1.2,1.1-.5-1.5-.9-1.6-.8-3l-.3-.2c-1.2-2.6-1.7-6.7-1.9-9.6l.6-.4c-.7-1-.3-2.7-.1-4,0-.9.2-1-.2-1.7h-.6c.7-1.5.9-2.5,1.8-4.2l.6.9c1.7-2.8,2.7-4.7,5.2-6.8Z"/>
  <path class="st13" d="M153.8,197.7c2.1,1.4,3.6,2.8,5.6,4.2.3,2.6.5,5.1.6,7.7-1.3-.6-2.8-1.5-4.1-2.1l-.3-.2c-1.2-2.6-1.7-6.7-1.9-9.6Z"/>
  <path class="st13" d="M155.4,189.5c5,4.3,4.1,5.2,4.2,11.6-1-.7-4.5-3.6-5.2-3.9-.7-1-.3-2.7-.1-4,.4-1.5.6-2.2,1.1-3.7Z"/>
  <path class="st13" d="M161,181.3v.3c-.6,2.5-.6,8.2-1.9,9.6h-.5c-1.2-.8-1.7-1.1-2.8-2.3,0-.1,0-.7,0-.8,1.7-2.8,2.7-4.7,5.2-6.8Z"/>
  <path class="st3" d="M161.9,185.6c.6-.2,1.2-.1,1.7.3.5.4.7,1,.5,1.6-.1.6-.6,1.1-1.2,1.2-.9.2-1.7-.3-2-1.1-.3-.8.2-1.7,1-2.1Z"/>
  <path class="st13" d="M154.1,252.3c.3.4.5.6.6,1,1.4,1.9,2.5,3.5,3.8,5.6l1.8,3.4c-3.6.6-7,.9-10.6,1.3-4.2-2.6-5.6-4.9-7.9-9.2l-.3-.8c2.3-.4,11.5-.7,12.7-1.3Z"/>
  <path class="st17" d="M154.1,252.3c.3.4.5.6.6,1-1.6,0-12,.8-13,1.1l-.3-.8c2.3-.4,11.5-.7,12.7-1.3Z"/>
  <path class="st11" d="M170.1,187.8c.6-1.2,0-2.6.6-3,7.2-4.7,12.1-5.8,16.2-14.2,0,3.4,0,7.1,0,10.6-3.5.7-6.8,1.8-9.7,4-1.5.9-2.6,2-4,3.1-1.4-.7-1.6-.7-3.2-.5Z"/>
  <path class="st13" d="M150.9,235.9h.5c.7,3.4,1.2,9.7,1.9,13.8h-.1c0,0-.7-.5-.7-.5-.5-1.3-2.3-3.4-3.2-4.5.5-2.3,1-6.7,1.6-8.8Z"/>
  <path class="st13" d="M161.3,260.6c1.1.8,2.9,2.2,4.1,2.8.4,2.1.9,3.1-.4,4.9l-.3.4-.3-.2c-.9-1.6-2.7-5.1-3.2-6.8v-1.2Z"/>
  <path class="st13" d="M156.7,210.4c.3-.8.4-1,1.2-1.1.6.3.9.4,1.5.6h.4c1.2,1.8,1,6.1.9,8.2-1.5-2.4-2.8-5-3.9-7.6Z"/>
  <path class="st2" d="M162.1,181.5l.4,1.3c1.8.6.9-1.4,3,1.6v3.4c-1.5,2.3-2.4,2.9-5.4,2.2.2-.5,0-.3.5-.7,2.3.5,5.1.1,4.1-3.4-.3-1-2.4-1.2-3.4-1.8v-.7c.2-1,.2-1.2.8-2Z"/>
  <path class="st11" d="M174.8,280.1c2.7-1.8,1.9-3,.6-5.3l.2-.3c1.5-.1,2.1-.1,3.5-1-1.1,3.4-2.3,6.7-3.5,10l-.7-3.5Z"/>
  <path class="st3" d="M166,195.9c-.7-.1-1.2-.3-1.9-.4-.8-.7-.5-.3-.8-1.4.8-2.3,2.8-2.1,3.7.1-.6.5-.9.8-1.1,1.7Z"/>
  <path class="st3" d="M182.3,316.2c.5,0,1,.1,1.3.4.4.3.6.8.5,1.3,0,.9-.8,1.6-1.7,1.6-.9,0-1.6-.7-1.7-1.6s.6-1.7,1.5-1.8Z"/>
  <path class="st3" d="M164.1,200.1l-1.1-.4c-.6-.7-.6-.6-.7-1.5.6-1.8,1.6-1.6,3.1-1.2.3,1,.3.9.2,1.9-.5.8-.6.8-1.5,1.2Z"/>
  <path class="st3" d="M160.6,191.1c1.2,0,1.1-.2,1.9.4.5,1.1.5,2.7-.9,3-1.2-.3-1.4-.3-1.9-1.5,0-1,.2-1,.8-1.9Z"/>
  <path class="st3" d="M168.1,274c1.8-.9,3.3-.6,3.4,1.7-1.1.9-1.8,1.3-3,.5-.5-.8-.4-1.2-.4-2.2Z"/>
  <path class="st3" d="M162.8,229.3c1.1-.7.5-.5,1.7-.5.9.5,1.1.8,1.6,1.6-.8,1.3-1.7,2.2-3.1,1.1-.5-.8-.3-1.3-.2-2.2Z"/>
  <path class="st1" d="M180.6,303.4c1.6,2.3,1.5,2.4,1.8,5,.9.7,1.9,1.2,2.3,2.1-.5.8-.6.7-1.6,1.2-.4-1.9-1.9-6.2-2.5-8.3Z"/>
  <path class="st8" d="M160.8,209.3c-.2-1.2-.4-2.5-.4-3.7-.1-1.6-.4-2.9.6-4,.5,1.8.3,5.7.2,7.6l-.4.2Z"/>
  <path class="st3" d="M167.1,230c.7.3,1.2.4,1.6,1-.1,1.1-.6,1.3-.8,2.3-1.1-.2-1.1-.2-1.7-.9,0-.9.5-1.5.9-2.4Z"/>
  <path class="st13" d="M160.4,195c.8.7.8.8.8,2.1,0,1.1.2,3.1-.5,3.9l-.3-.4c-.2-1.7-.2-3.8,0-5.5Z"/>
  <path class="st1" d="M173.9,269.2c-1.1-2-1.5-3.7.4-5.3l.8.6c-.8.3-1.4,1.1-1.5,1.9-.1.9.3,1.7,1,2.2l-.5.5h-.2Z"/>
  <path class="st16" d="M259.2,342.7l3.2-.6,1.3.4c-1.6.4-3.3.8-4.9,1.1l.4-1Z"/>
  <path class="st8" d="M165,272.2l.5.5h.4s.5-.7.5-.7v.4c0,.6,0,1,.2,1.6l-.2.4c-.8-.4-1.6-1.3-2.3-1.9l.9-.2Z"/>
  <path class="st0" d="M266.9,341.3c-1.3.7-1.7.9-3.1,1.3l-1.3-.4,4.4-.9Z"/>
  <path class="st5" d="M188.9,165.2c2.1-.2,5.7-.1,7.9-.1,6.5,0,12.9,0,19.4,0,10.1,0,20.1,0,30.2,0,.8,0,1.2.1,2,.5,3-.5,14.6-.2,18.3-.2h33.8c4.9,0,10.4.1,15.3,0-.4,18.8,0,39.3,0,58.2v34.9c0,11.2.7,24.7-1.9,35.3-2.8,11-8.4,21-16.4,29.1-11.9,12-28.1,18.7-45,18.7-5.9,0-10.5-.5-16.3-2-3-.4-8-2.7-10.9-4-13.4-5.9-24.9-17.8-30.8-31.1-2.3-5-3.9-10.4-4.8-15.8-.4-2.5-.7-4.9-.8-7.4-.2-3.9-.5-28.6.3-30.8-.7-3-.4-11.7-.5-15.3,0-11.4,0-22.8,0-34.2v-23.4c0-3.3-.2-9,.3-12.1Z"/>
  <path class="st10" d="M315.7,223.5v34.9c0,11.2.7,24.7-1.9,35.3-2.8,11-8.4,21-16.4,29.1-11.9,12-28.1,18.7-45,18.7-5.9,0-10.5-.5-16.3-2l27.9-40.7c4.8-6.9,11.7-16.3,15.9-23.4,1.9-2.2,2.8-3.5,4.2-6.1,2.8-3.5,6.5-9.2,9.1-13l14.8-21.5c1.6-2.3,6.3-9.5,7.9-11.3Z"/>
  <path class="st15" d="M285.2,292.2c.8,0,1.2,0,1.7.7.2,1.7.6,3.8.9,5.5l.6.2c0,5-.5,8.9-1.2,13.8,1.1.5,1.9.7,2.3,1.9-.3.9-.9,1.1-1.7,1.7,0,1.7.4,5.9-1.7,6.4-1.9-.9-1.7-4.6-1.8-6.3-.8-.7-1.4-1-1.7-1.9.3-.8.9-1.1,1.7-1.6-.7-3.4-1.8-11-1.2-14.1.2-.3.1-.4.2-.7-.9-.3-2.2,0-3.3-.3.5-.1,2.4,0,3,0,.3-2.1.3-4.1,2.3-5.3Z"/>
  <path class="st17" d="M285.2,292.2v.4c-2.8,3.3-1.5,11.6-1.1,15.6.1,1.2.3,3.4,1.1,4.3h.5c1.6-1.7,1.9-11.3,2.1-14.1l.6.2c0,5-.5,8.9-1.2,13.8,1.1.5,1.9.7,2.3,1.9-.3.9-.9,1.1-1.7,1.7,0,1.7.4,5.9-1.7,6.4-1.9-.9-1.7-4.6-1.8-6.3-.8-.7-1.4-1-1.7-1.9.3-.8.9-1.1,1.7-1.6-.7-3.4-1.8-11-1.2-14.1.2-.3.1-.4.2-.7-.9-.3-2.2,0-3.3-.3.5-.1,2.4,0,3,0,.3-2.1.3-4.1,2.3-5.3Z"/>
  <path class="st11" d="M284.5,313.2c1.3-.1,3.2-.2,4.1.9-.3.8-.4.6-1.3,1.2-1.4.2-3.2.2-4.2-.9.3-.8.3-.6,1.3-1.2Z"/>
  <path class="st15" d="M285.2,316.1c.5,0,.7,0,1.2.2.9,1.1.3,3.9,0,5.4h-.5c-.9-1-.6-3.8-.7-5.6Z"/>
  <path d="M286.9,292.9c1.1,1.6,1.1,2.7,1.3,4.5,2.6.1,5.1,0,7.7,0,1.4,4.9,2.8,9.3,4.9,13.9-4.1,5.2-7.1,5.2-11.3,0,2.2-3.9,4.3-8.7,5.9-12.9-2.3,0-4.7.1-7,.1l-.6-.2c-.3-1.7-.8-3.8-.9-5.5Z"/>
  <path class="st10" d="M293.9,304.8h.3c.7,1.1.5,4.8.4,6.2l-3.1.2-.4-.2c-.2-1.3,1.9-5,2.7-6.2Z"/>
  <path class="st10" d="M296.4,304.6c1.2.9,2.8,5,3.4,6.6h-3.8c0-2-.2-4.8.3-6.6Z"/>
  <path d="M276.2,297.4l3.7.2c1.1.2,2.4,0,3.3.3,0,.3,0,.4-.2.7-2,0-4.2,0-6.2,0,1.4,4.5,2.6,8.5,4.5,12.8-3.9,5.7-7.2,4.9-11.3.2,2.5-4.8,4.5-8.9,6.2-14.1Z"/>
  <path class="st10" d="M274.8,304.5c.9,1,.6,4.9.6,6.4-1.2,0-2.4,0-3.5,0l-.2-.4c.7-1.9,1.9-4.5,3.1-6.1Z"/>
  <path class="st10" d="M276.9,304.5c1,.8,3.4,5.6,3.3,6.6h-3.7c0-2-.2-4.8.4-6.6Z"/>
  <path d="M212.2,233.5c.6-1.4,1.8-4.4,3.6-4.1,4.2.6.1,8.3-.5,10.6,10.2-3.1,18.2-4.3,29.1-1.7,2.5.6,5.3,2.5,8.1,2.7,2.6.2,4.7-1,7-1.4,1.8-.3,5.1.1,7,.3-1.5.8-7.3,3.6-7.6,4.9,1.2.9,8.1.6,9.9.6-2.1,1.1-5.6,2.7-6.9,4.4-.3,2.1,4.5,2,6.1,2.2l.6.2c0,.5,0,.4-.4.9.2.3.2.4.5.6,3.2-.9,5.9-.8,9,.8,3,1.6,5.3,4.5,6.1,7.8.8,3,0,4.6.2,7-1.4,2.6-2.3,3.9-4.2,6.1-5.1,1.3-3.8,1.9-10,1.7-1.4,3.8-1.4,6.5-6.1,5.5l-1.8,3.7c-1.4-.2-2-.4-3.2.2-2.1,1.2-3.7,0-6.2,1.4-3.1,1.8-5,4.6-8,6.4-1.9,1.1-3.1.9-5.1.4-2.5,4.9-3.4,3.1-7.2.9-1.9-1.1-4-1.1-6-2.5-5.2-3.9-9.3-9.2-14.5-13.2-1.5-1.2-4.6-2-6.5-2.5-1.6,6.6-3.5,13.3-5.1,19.9-.9-.3-1.8-.6-2.7-.8,1.1-5.3,3.8-15,5.3-20.3-2.3-2.2-3-4.2-1.5-7.3.6-1.4,1.8-3.6,3.2-4.1.5.3.5.3,1,.5,1.6-4.3,3.8-13.6,5.1-18.3-.4-.1-1.2-.4-1.5-.6-2.8-2.2-3.1-13.7,1.2-14.1,1,.2,1.2.6,1.9,1.5Z"/>
  <path class="st4" d="M268.1,251.9l.6.2c0,.5,0,.4-.4.9.2.3.2.4.5.6-1.6.7-3.6,2-5.1,3-1.1-.2-2.1-.3-3.1-.9v-.4c1.4-1.3,5.5-1.9,7.5-3.3Z"/>
  <path class="st11" d="M232.1,237.9c3.9-.2,7.8.3,11.5,1.3,3.5,1,6.8,2.9,10.5,2.9,1.9,0,6.4-2.4,8.1-1.4-.6,1-3.1,1.5-4.5,3.6,0,.9-.2.5.3,1.2,2.1,1.1,4,.8,6.4.8-3.4,2.4-5.9,4.2-.5,6.3-1.9.7-3.8,1.1-5,2.7,0,2,3.3,1.5,4,2.7-1.6,1.5-8.3,1.7-10.6,1.8-8.9.3-16.3-1.1-25.1-1.7-5.8-.4-12.3,1.3-17.8,3.1,1.6-6.4,3.7-13.4,5.5-19.9,5.6-2.2,11.2-3.2,17.2-3.5Z"/>
  <path class="st5" d="M232.3,240.8c2.8,0,5.7.2,8.5.3-1.3,1.7-1.7,2.7-2.6,4.6,2.3,0,3.2-.1,5.3-.8-.8,2.7-1.7,5.6-2.6,8.4-4.5-3-4.8-.6-5.4,3.5-2.8-.2-5.8-.1-8.6-.1,1.1-1.5,2.6-3.1,1.2-4.8-1.5-.7-2.9-.4-4.6-.2.8-2.3,1.6-4.6,2.5-6.9,5.3,2.3,6,1.5,6.3-4Z"/>
  <path class="st5" d="M221.8,259.5c6.8-.9,15,.8,21.7,1.5,6,.6,12.2-.1,18.1-1.1-1.1,2.4-1.4,3.2-2.9,5.3-1.2.1-2.6.2-3.8.2v3.7c-1.5-.2-3.4-.2-4.9-.3v3.8c-1.6,0-2.2,0-3.8-.3,0,1.1,0,2.4,0,3.5-.9.9-1.9,1.7-2.8,2.6l-8.7,7.8c-3.7-2.4-18-10.8-19.9-13.3-1.2-1.6-1.2-3.8-2.4-5.5-1-1.6-2.3-1.9-4-2.3.4-.9.7-1.8,1.1-2.7,3.6-1.5,8.6-2.6,12.4-2.9Z"/>
  <path class="st11" d="M270.4,255c2.9-.4,5.5,0,7.9,1.6,2.3,1.5,3.9,3.9,4.4,6.6.5,2.6,0,5.3-1.6,7.5-2,2.9-4.5,3.9-7.8,4.5-9.7.2-8.6-6.5-12.8-9.2,3.8-5.2,2.2-8.7,9.9-11Z"/>
  <path class="st11" d="M204,267.1c1.1.9,1.1,2.2,3.2,2.6,1.4-.4,1.8-1.4,2.5-2.6,2.2,2.6,2.8,4.4,3.6,7.6,5.1,3.6,14.1,9.1,19.5,12.3,0,2,0,3.5-.4,5.5l-.8.8c-4.1,1.2-15.1-12.5-19.2-14.8-7.1-4-13.6-1-8.3-11.2Z"/>
  <path class="st11" d="M246.1,278c.3.3,2,3,2.3,3.5,1.3,2.1,2.1,3,3.8,4.7-2.9,2.1-6.9,5.7-9.8,7.4-3,.3-4.6-4.4-5.8-6.7,2.9-3.2,6.1-6.2,9.6-8.8Z"/>
  <path class="st11" d="M256.4,267.1h3.5c2.2,2.6,6.3,6.6,7.5,9.6.6,1.3-.1,2.5-.8,3.6-.4.4-.6.6-1.1,1.1-1.5-.3-1.1-2.2-1.6-2.8-2.2-2.8-5.3-6-7.6-8.6v-2.9Z"/>
  <path class="st11" d="M251.4,270.7l3.2.2c2.2,2.3,6.8,6.7,7.8,9.6.3,1-.4,2.1-.9,2.9-.6.7-.6.8-1.4,1.3-1.2-.8-.8-2.2-1.6-3.1-2.3-2.6-4.9-5.2-7.2-7.7v-3.1Z"/>
  <path class="st11" d="M247.2,274.4h3.2c2,2,4.8,5,6.5,7.2v3.9c.1,0-2.9,0-2.9,0-3.6-3.3-5.3-6.5-6.8-11.1Z"/>
  <path class="st11" d="M209.8,232.7c3.1,2,2.2,10.1.5,13-3.4-2.2-2.3-9.9-.5-13Z"/>
  <path class="st11" d="M215.4,230.1l.7.2c1.9,2.1,0,5.2-1.6,6.8-2.8-1.5-.5-5.4.9-7Z"/>
  <path class="st11" d="M234,291.9c1.4.2,3.4.9,3.9,2.4,0,.9-.5,1.3-1.1,2-2.1-.1-2.7-.9-4.3-2.2l1.5-2.2Z"/>
  <path class="st11" d="M234.4,287.6c1.6.8,2.9,1.8,2.8,3.7-1.5,0-2.1.3-3.1-.8-.2-1,0-1.8.3-2.8Z"/>
  <path class="st12" d="M188.9,165.2c2.1-.2,5.7-.1,7.9-.1,6.5,0,12.9,0,19.4,0,10.1,0,20.1,0,30.2,0,.8,0,1.2.1,2,.5-5.4,7.3-10.6,15.2-15.8,22.6l-27.7,39.5c-5,7.2-10.7,15.6-15.9,22.6-.7-3-.4-11.7-.5-15.3,0-11.4,0-22.8,0-34.2v-23.4c0-3.3-.2-9,.3-12.1Z"/>
  <path class="st14" d="M203.6,174.2h4.1c0,2.2,0,4.4,0,6.6,3,0,6.1,0,9.2,0v5.3s-9.2,0-9.2,0v16.8c0,2.2,0,6.5-.1,8.6l-.5.2h-3.4c-.3-8.1,0-17.5,0-25.6h-9.7s0-5.3,0-5.3h9.7s0-6.6,0-6.6Z"/>
  <path d="M277.9,172c9.5.3,20.8-.4,30,.2.2,4.7.2,10.5,0,15.2-.4,10.7,2.1,19.7-5,28.7-.3.3-.6.6-.9.9-5.7,5.4-14,4.7-19.3-.8-5-5.2-5.3-12.5-5-19.3.2-8.2-.3-16.6.1-24.8Z"/>
  <path class="st11" d="M279.5,173.7h26.7s0,19.1,0,19.1c0,8.3,1.1,15-4.2,21.9-8.5,8.7-19.6,3.3-22-7.3-.9-4.2-.6-9.7-.6-14.1v-19.6Z"/>
  <path d="M292.6,187.5c3.7,3.5,7.9,8.1,11.5,11.8h-11.3c-3.9,0-7.7,0-11.6,0,3.3-3.1,8.2-8.5,11.3-11.9Z"/>
  <path class="st5" d="M329.6,318.8c4.3-.2,7,.2,11,1.6-3.2,7.5-8.1,18-10.7,25.5-9.1-4.9-21,.9-29.6,4.5-13.3,5.6-26.2,13-40.2,16.5-28.6,7.2-50-18.1-76.6-22.7-4.2-.7-6.7-.3-10.6,1.4-.4-.7-2.5-6.2-2.9-7.2l-6.9-17.6c28.1-10.4,56.6,25.1,85.5,25.6,28.2.5,55.4-26.5,81.1-27.6Z"/>
  <path class="st11" d="M200.9,332.8c8.6.3,5.7,10.5,0,13.2-8.3-.3-5.6-10.5,0-13.2Z"/>
  <path class="st5" d="M201.5,335c4.9.9,2.1,7.1-.9,8.8-5.2-.9-2.3-7.1.9-8.8Z"/>
  <path class="st11" d="M175.1,327.5c3.6,0,6.9-.6,8,3.8.7,2.8.3,5.7-1.2,8.2-1.8,1.6-4.4,1.3-6.8,1.2v-13.2Z"/>
  <path class="st5" d="M177.3,329.7c1.8.1,3,.2,3.7,2.1.7,1.7.2,4.6-.6,6.3-1.1.3-1.8.5-3,.3-.8-1-.3-7.2-.2-8.7Z"/>
  <path class="st11" d="M248.1,351.4c2.9-.3,6.3-1.4,8.2,1.2v-.2c.7,1.4,2.4,7,2.6,8.4-.1.8-.1,1,0,1.8-.2-.1-.5-.3-.7-.4v.3c0,.6,0,.3-.1.9-2.9,1.6-3.4-3.2-6.1-4.7-1.4.5,0,3.8-1,5.7-.7.4-.3.3-1.1,0-.6-1.2-1.3-10.6-1.7-13Z"/>
  <path class="st4" d="M256.4,352.3c.5,1.4,2.2,7,2.4,8.4-.1.8-.1,1,0,1.8-.2-.1-.5-.3-.7-.4v.3c-.4-.3-2.7-3.5-3.4-4.3,2.4-2.1,2.1-2.5,1.5-5.5v-.2Z"/>
  <path class="st5" d="M251.8,353.2c1.7,0,3,.4,2.7,2.3-.7.8-.3.5-1.4.9-.8.1-1,.2-1.8,0-1.3-1.3-1.4-2.7.5-3.3Z"/>
  <path class="st11" d="M282.6,340.1l2.7-1.2c.9,2.1,5.4,10.8,5,12.2-.7.2-.3.2-1.2,0-.8-.7-3.5-6.8-4.3-8.3.4,1.9,3.1,9.4,1.3,10.4-1.1-.3-1.6-1.2-2.2-2.2-.5.2-.8.3-1.3.4.4,1,.7,1.3.8,2.4-.4.8,0,.4-1.1.8-1.1-.8-4.9-9.9-5.7-11.7l2.8-1.2c1.7,2.4,3.4,4.9,5.3,7.2-.7-2.9-1.4-5.8-2.1-8.7Z"/>
  <path class="st4" d="M279.8,345.3c1.3,1.6,2.9,4,4.1,5.7-.5.2-.8.3-1.3.4-1-2-1.9-4-2.8-6.1Z"/>
  <path class="st11" d="M256.4,352.3c-.2-1.2-.4-1,.1-1.8,5.7-3.6,11.4.6,7,5.4,2,1.5,3,2.5,4.5,4.5-1.1.4-1.4.8-2.6.3-1.7-.7-3-4.6-5.2-3.6-.5,2,1.8,3.5.6,5.5-.8.4-.4.3-1.2.2-.4-.7-.6-1.4-.9-2.1-.2-1.4-1.9-7-2.4-8.4Z"/>
  <path class="st4" d="M261.1,351.4c.8,0,1.1,0,1.6.7.4,1.9-.6,2.4-2.2,3h-.6c-1.1-.4-1.5-1.5-.9-2.7.4-.7,1.4-.8,2.1-1Z"/>
  <path class="st11" d="M311.4,328.8c4.4-.6,5.4,3.9,2.7,6.8,1.2,1,4.1,3.8,3.5,5.3-2,.1-4-2.7-5.2-4-.7-.4-.7-.5-1.5-.4-1.1,1.3.9,3.5.4,5.3-.8.6-.3.4-1.4.4-.2-.1-.3-.2-.5-.4-.7-3.6-1.9-8.7-2.7-12.2l4.6-1Z"/>
  <path class="st5" d="M311.1,331c1.2-.1,1.3,0,2.2.6.7,1.8-.2,2.1-1.5,2.8-2,.6-2.6-.6-2.2-2.5.2-.7.9-.7,1.5-.9Z"/>
  <path class="st11" d="M291.8,335.9c1,.2,8.9,9.2,9.1,10.1-.5.6-.5.6-1.3.8-.8-.2-1.4-1.3-2.4-2h-.7c0,0-3,1.5-3,1.5.3,1.2.7,2,.1,3.1-.8.4-.6.5-1.4.4-.8-2.5-1.5-9.6-1.8-12.5,0-.6.9-1.1,1.4-1.4Z"/>
  <path class="st4" d="M292.6,339.7c.8.4,2.8,2.6,2.6,3.5-1,.4-.9.5-1.8.3-.6-.7-.7-2.7-.8-3.9Z"/>
  <path class="st11" d="M214.1,338.1c1.2.5,6.3,2.6,6.5,3.7-.7.9-.3.6-1.3,1-1.2,0-3.1-1.3-4.3-1.9l-1.3,2.6c1.1.5,3.8,1.5,4.3,2.4-.2.9-.1.9-.7,1.6-1.2,0-2.4-1.4-4.4-1.8l-.4.3-1.2,2.6c1.4.6,3.7,1.3,4.5,2.6,0,1,.1.5-.4,1.4-1.2.3-5.5-2.3-6.8-3,1.7-3.8,3.8-7.9,5.6-11.7Z"/>
  <path class="st11" d="M240.9,350.1c2.2.6,4.7.7,6.7,1.5.4.7.2,1,.1,1.8-1.2.6-4-.3-5.4-.7-.2,1-.3,1.9-.5,2.9,1.2.2,3.1.5,4.2.9.5.9.4.4.4,1.4-1.2,1.7-3.2-.7-5.1,0l-.2.7c-.2.9-.5,1.7-.2,2.4,1.4.7,2.8.4,4.5,1.1.5.8.3.3.3,1.4-.5.8-.2.5-1,.8-2-.6-4.5-1.1-6.6-1.5.9-4.3,1.8-8.5,2.9-12.8Z"/>
  <path class="st11" d="M271.2,345.3c.9,0,1.2.9,1,1.7-1.1.9-3.2,1.4-4.7,1.9.3,1,.5,1.7.9,2.7,1.7-.7,3.5-1.6,5.2-.9v.4c-.9,1.6-2.8,2-4.5,2.7l1.1,3.2,4.6-1.5c.3-.1.3,0,.7,0,.4.7.4.7.3,1.4-.9,1.3-5.1,2.3-6.8,3-1.2-3.9-2.9-8.5-4.3-12.4,2-.6,4.4-1.5,6.4-2.2Z"/>
  <path class="st11" d="M188.7,328.4c1.8.7,5.7,1.2,6.9,2.2.5,3.1-3.9,1-5.5.5l-.7,2.9c1.5.4,2.9.7,4.3,1.1l.2.5c-.4,4.1-4.3-1.4-5.5,1.5-1.2,4.3,3.6,2.4,4.9,4.3-.2.7-.4.8-.9,1.3-.6.2-6.1-1.4-7.2-1.7,1-2.8,2.7-9.8,3.4-12.7Z"/>
  <path class="st11" d="M233.1,346.8c2.2,1.2,5.8,1.9,6.9,3.6,0,.9,0,.5-.5,1.3-.9,0-1.8-.6-2.7-1l-3,7.4c-.1.4-.3.7-.4,1.1-.4,1-.4,1.1-1.2,1.5l-.8-.5c-.5-1.2,2.8-8.4,3.6-10.3-.9-.3-1.7-.4-2.3-1-.2-1,0-1,.6-2.1Z"/>
  <path class="st11" d="M302.7,331c.6,0,.8.3,1.2.7v.7c-.9,1.1-1.2,1.1-2.6,1.5,1.3,3,2.9,6.3,3.8,9.3.2.6,0,.6-.3,1.2-1.5.4-1.8-1.1-2.2-2.2-1.1-2.5-2.2-5-3.1-7.6-1,.6-1.8,1.3-2.8.8-.4-.9-.5-.7-.5-1.6,1.1-.8,5-2.2,6.5-2.9Z"/>
  <path class="st11" d="M222,342c1.5.8,6.4,2.7,6.9,3.8-.3.6-.4.9-.9,1.4-.8.1-1.7-.6-2.5-1l-3,6.4c-.5,1-1,2.5-1.9,3.1h-.6c0-.1-.3-.7-.3-.7,0-1.9,2.9-7.4,3.9-9.6-.8-.4-1.6-.6-2.2-1.3-.1-1.1,0-.9.6-2.1Z"/>
  <path class="st11" d="M319.9,327c1,.1,1.4,0,1.9.6.3,2.4.3,10.1,0,12.6-.6,0-.9,0-1.5,0-.8-.9-.5-11.2-.5-13.1Z"/>
  <path class="st13" d="M328.3,138c2.4,2.8,4.3,5,6.2,8.1,4.6,7.3,6.9,20,6.8,28.7,3.3-4.8,8-9.8,14-5.1,7.6,6,10,17.1,10.6,26.2-2.9-5.6-4.9-12.3-8.7-17.4-1.4-1.9-2.7-2.7-5-3.3h-.1c-3.5.9-4.1,1.7-6.4,4.5,11.3,9.9,18.5,18.6,20.7,33.9-7.8-14-11.4-21.5-25.9-29.4,0,11.4.7,23.2,1,34.6,3.9-2.5,8.3-4.9,12.9-3.6,14.7,4.1,22.6,27.1,24.6,40-5.1-10.6-10.7-28.7-23.1-33.6-2.7-1.1-5.7-.7-8.5-.3,8.9,6.3,18.5,14.7,21.6,25.6-.8-.5-.8-.4-1.7-.4-8.5-11-13.5-17.1-26.7-22.5,0,4.2.4,9,.6,13.3.3,7.1.6,14.2.8,21.3,17.3-13.7,24.3-7.4,28.3,12.7,1.9,9.6,2.5,19,3.3,28.7-.9-1.4-1.5-2.6-2.2-4.1.3,6.6.2,9.1-1.9,15.2-.6-2.8-.6-5.6-1.2-8.5-2.2-11.5-3-28.6-13.6-35.7-3.5-2.3-8.6-1.5-12.3-.5-2.6,8.9-4.8,18-7.4,26.9,6.5-2.6,18.9-6.9,25.4-4.8,4.6,4.5,1.2,12.2-.5,17.5-.2-.7-.3-1.5-.5-2.2-6.3-25.5-27.8-3.2-35.7,7.9-5.5,7.8-3.6,7.1-13,9.9,5.5-8.9,12.6-21.1,5.4-30.9l.6-5.2c3.3,3.1,7.7,6.4,10.7,9.6,2.1-9.6,3.8-19.3,5.9-29-.3-.2-.7-.4-1.1-.6-5.7-2.9-9.5-1.4-15,.5v-7.7c5.2-1.3,8.7-1,13.9,0-3.2-5.3-7.6-12.9-13.9-14.6v-8c12.3,1.7,12.2,4.7,17.9,14.9-.5-10.6-.4-25.9-7.6-34.3-2.9-3.4-6.2-4.2-10.4-4.4.2-2.1,0-6.1,0-8.5,6.9-.2,9.6,2.9,13.1,8.3,1.9,3,3.8,6.1,5.6,9.1-.7-5.1-.4-10.6-.6-15.8-.3-7.1.2-14.8-.4-21.8-1.5,1.3-4.8,3.3-6.6,4.5-3.7,2.4-7.4,4.9-11.1,7.4,0-1.8,0-3.5,0-5.3,4.2-2.2,8.9-4.6,12.9-7.1-2.3-6.1-6.1-12.7-13-14.3,0-1.5.2-2.8,0-4.2-.7-.9-1.2,0-2.4-.7,0-.1.1-.3.2-.4,6.6-8.1,10.8-.3,13.5,5.9,2.2,4.9,4.9,8,9,11.3.2-18-8.8-16.3-14-32.3-.8-2-1.2-3.6-1.7-5.7l3.4,4.9c1.7,2.4,8,12.3,10,12.7,1.1-1.3-2.2-8.4-2.9-10.2-1.5-3.8-2.8-7.7-4-11.6Z"/>
  <path class="st8" d="M321.9,142.2l3.4,4.9c-.7-.4-.7-.5-1.5-.6,0,.5,0,1-.2,1.5-.8-2-1.2-3.6-1.7-5.7Z"/>
  <path class="st5" d="M334.6,338.5c11.4,1.6,19.6,5.9,28.7,12.5-5.7.5-11.6,1.5-17.5,2,6,7.5,8.1,10.2,10.4,19.6-2.2-1.4-5.7-3.1-8.1-4.4-12.7-6.5-28-8.3-42-6.6,4.1-7.6,6.8-9.2,15.4-8.4,1.7.2,3.8,0,5.4-.7,1-.4,1.9-1.1,2.6-2,1.1-1.4,4.1-9.6,5.1-12Z"/>
  <path class="st5" d="M167.4,338.6h.6c1.5,1.5,3.3,9.1,5,11.6,3.6,5.4,10.4,1.9,15.3,3.2,4.3,1.1,6.3,4.9,8.4,8.3-13.3-2.7-28.4.8-40.6,6-3.3,1.5-6.1,3.4-9.5,5,2.9-9,4.2-12.4,10.7-19.4-4.2-.8-13.1-1.9-17.3-2.2,8.1-6.8,17.4-10.5,27.6-12.4Z"/>
  <path class="st9" d="M188.3,148.2h.5c0,0,.5.3.5.3l.5-.3c.8,1.1-1.8,8.4-1.5,10.6l-.2.7c0,2.5-.6,3.8-1.2,6.2-.2.9-.1,2.2-.3,2.9l-.4,1.1c-1.6,3-4.3,8.6-8.3,8.3l-.3.2v.3s.5.4.5.4c-1,1-7.5,4.5-8.9,5.2-1.2.2-1.5,0-2.8-.3-.2-.7-.5-3.1-.6-4,.9-1.2,1.9-2.4,2.8-3.6l.5-.3c.3-.8,1.1-1.8,1.5-2.5,0,0,.9-1.8,1-1.9.8-1.9,1-3.2,1.4-5.3h.3c0,0,.7-.5.7-.5-1.1-2.4-1.3-5.4-2.3-8.2,1.7-1.9,3.1-3.3,5.2-4.8l.8-.3c2.5-2.1,7.4-3.3,10.6-4.1Z"/>
  <path class="st13" d="M174.5,168.7c2.3.2,10.3.4,11.7,1-1.6,3-4.3,8.6-8.3,8.3-.5-.3-6.7-.9-7.8-1,1.5-2.7,3-5.6,4.4-8.3Z"/>
  <path class="st13" d="M179.2,161.3c2.5-.3,6.3-1.2,8.9-1.7,0,2.5-.6,3.8-1.2,6.2-.2.9-.1,2.2-.3,2.9-3.8,0-7.9-.4-11.7-.7,1.3-2.3,2.8-4.5,4.3-6.6Z"/>
  <path class="st13" d="M176.9,152.6c1,2.1,1.8,5,2.5,7.2-1.3,1.7-3.6,5.5-4.8,6.8-.5-.4-.3-.3-.6-.9-1.1-2.4-1.3-5.4-2.3-8.2,1.7-1.9,3.1-3.3,5.2-4.8Z"/>
  <path class="st13" d="M189.3,148.6l.5-.3c.8,1.1-1.8,8.4-1.5,10.6-.8,0-7.4,1.3-8.7,1.5,3.2-4.3,6.4-7.8,9.7-11.8Z"/>
  <path class="st13" d="M188.3,148.2v.4c-2.2,3.2-5.8,6.8-8.4,10.3-.5-1.5-1.7-5.5-2.2-6.7,2.5-2.1,7.4-3.3,10.6-4.1Z"/>
  <path class="st13" d="M169.9,178c2.6,0,5.2.4,7.9.5l.5.4c-1,1-7.5,4.5-8.9,5.2-.6,0-1.1-.2-1.7-.3,0-.6,1.9-4.9,2.3-5.8Z"/>
  <path class="st13" d="M168.6,176.3c.3.4.6.6.5,1.1-.4,1.4-1.9,5.4-2.6,6.4-.2-.7-.5-3.1-.6-4,.9-1.2,1.9-2.4,2.8-3.6Z"/>
  <path class="st8" d="M171.6,171.5c.8-1.9,1-3.2,1.4-5.3h.3c1.1,2.3,0,3.5-1.2,5.5h-.3c0,0-.1-.2-.1-.2Z"/>
  <path class="st2" d="M170.6,173.4c0,1.2,0,2.4-1.5,2.5.3-.8,1.1-1.8,1.5-2.5Z"/>
  <path class="st9" d="M147.8,281.7c2.7-.2,6.9.3,9.3,1.6l.9.3c2.8,1.4,4.8,2.5,6.9,4.8.4.7.2.6.7.9,1.9,2.1,4.6,6.5,4.6,9.3l.6.7c.4,2.5,2.6,7.5,2.3,9.2-.2.4-.1.4-.4.8-.2.3,0,.1-.5.4-2.2-.8-6.4-2.2-8.4-3.4l-.2-.3c-.4,0-.8,0-1.2,0-3.8-1.9-6.4-3.7-8.9-7.1v-.4c-1.7-1.9-2.8-5-3.8-7.3l-.2-.9c-.7-2.5-1.5-5.4-2.5-7.8v-.4c.2-.2.3-.3.7-.5Z"/>
  <path class="st13" d="M153.5,299c1.9,0,7.5-1.5,9.8-2,1.8,2.1,3.4,4.3,5.1,6.5-2,.9-4,1.8-6,2.6-3.8-1.9-6.4-3.7-8.9-7.1Z"/>
  <path class="st13" d="M157.5,290.8c1.9,1.7,3.6,3.6,5.2,5.5-1.7.4-8.2,1.8-9.4,2.3-1.5-1.9-2.7-5-3.7-7.3,1.8-.7,5.8-.4,7.8-.6Z"/>
  <path class="st13" d="M158,283.6c2.8,1.4,4.8,2.5,6.9,4.8-.6,1.8-.8,5.4-1.3,7.8-1.1-1.6-3.9-4.5-5.3-6,0-2.2-.2-4.4-.2-6.6Z"/>
  <path class="st13" d="M164.2,296.7c.5-2,.5-6.2,1.3-7.3,1.9,2.1,4.6,6.5,4.6,9.3-.3.4-1,3.6-1.2,4.4-1.5-2.1-3.4-4.2-4.7-6.4Z"/>
  <path class="st13" d="M147,282.6h.3c2.6,1.6,7.4,5.1,9.3,7.4-2.5,0-4.7.2-7.1.4-.7-2.5-1.5-5.4-2.5-7.8Z"/>
  <path class="st13" d="M147.8,281.7c2.7-.2,6.9.3,9.3,1.6,0,2.1.3,4.3.4,6.4-3.1-3.1-6.2-5.4-9.7-8Z"/>
  <path class="st13" d="M163.8,306.4c1.7-.9,3.3-1.5,5.1-2.3.8,1.1,3.3,4.8,3.8,5.3-.2.3,0,.1-.5.4-2.2-.8-6.4-2.2-8.4-3.4Z"/>
  <path class="st13" d="M169.5,303.5c.8-1.6.4-2.6,1.3-4.1.4,2.5,2.6,7.5,2.3,9.2-1.1-1.1-2.7-3.7-3.6-5.2Z"/>
  <path class="st13" d="M242.7,369.4c2.2.2,4.5.4,6.7.5,1.2.9,2.2,2,3.3,2.9,10,9,20.2,17.8,31,25.8,3.6,2.7,7.7,5,10.9,8.2.4.4.7,1.3.8,1.8-2.4.3-5.6.2-7.8-1-17.6-9.6-31.5-24-45-38.4Z"/>
  <path class="st11" d="M317.4,213.4c3.7.5,6.2,1.1,8.9,3.9,5.2,5.3,7,18.9,7,26.2-4-7.1-8-8.8-16-9.3,0-6.8-.1-14,0-20.8Z"/>
  <path class="st13" d="M241.4,370.2c.8.7,2.2,2.4,3,3.2-11.7,9.7-33.4,25.3-48.9,26.6-1.2,0-1.8,0-2.7-.7-1.3-3.8,5.4-5.4,8-6,15.5-3.4,28.1-13.9,40.6-23.1Z"/>
  <path class="st11" d="M324.4,265.8c3.1-.2,4.5,0,7.2,1.4-.6,2.9-4.5,23.4-5.4,24.3l-.5-.4c-2.6-2.1-5.9-5.2-8.5-7.5.3-5,.2-10.5.2-15.6,2.7-1.2,4.2-1.8,7-2.3Z"/>
  <path class="st9" d="M179.4,230l.3-.3.9.3c1.5,2,3.5,5.7,3.3,8.2l-.3.4.5.4c.2,1.8,0,6.2-1.1,7.7l-.3,1.1c-1.2,3-1.9,4.6-3.7,7.2l-.6,1.1c-1.2,1.8-2.6,3.9-4.1,5.4-.5.1-.9.3-1.3.4l-.2.3-.3-.2c-.2-1.7,0-4.4.1-6.2v-.9c.1-3.6-.1-6.7-.4-10.3l.2-.8c-2-2.8.3-4.5,2.1-6.8.2-.1.3-.5.4-.8,1.1-1.9,3.1-4.7,4.4-6.5Z"/>
  <path class="st13" d="M174.7,237.3c1.4,1.5,2.8,3.3,4.1,4.7l-1.2,6.3c-1.6-1.4-3.3-2.9-4.9-4.3-2-2.8.3-4.5,2.1-6.8Z"/>
  <path class="st13" d="M172.4,244.8c1.4,1.1,3.6,3.1,4.8,4.3-.6,2.4-1.5,5-2,7.3-.8-.4-1.7-1-2.4-1.3.1-3.6-.2-6.7-.4-10.3Z"/>
  <path class="st13" d="M179.6,242c1.4-1,3.1-2.3,4.6-3,.2,1.8,0,6.2-1.1,7.7-1.6.4-3.1,1.1-4.7,1.6l1.2-6.4Z"/>
  <path class="st13" d="M180.7,230c1.5,2,3.5,5.7,3.3,8.2l-.3.4c-1.4.4-2.9,1.7-4,2.7.3-2.1.6-10.2,1-11.3Z"/>
  <path class="st13" d="M178.1,249.2c1.4-.5,3.3-1.3,4.7-1.3-1.2,3-1.9,4.6-3.7,7.2-1,.2-2,.5-3,.8.7-2,1.4-4.6,2-6.7Z"/>
  <path class="st13" d="M179.4,230c.8,2.2-.3,8.6-.5,11.1-.9-1.1-3.2-3.6-3.9-4.6,1.1-1.9,3.1-4.7,4.4-6.5Z"/>
  <path class="st13" d="M172.8,256.1c1.2.5,1.1.3,1.6,1.2,0,1.4-.7,3.5-1.3,4.9l-.2.3-.3-.2c-.2-1.7,0-4.4.1-6.2Z"/>
  <path class="st8" d="M174.4,261.6c.4-3.2.5-5.2,4.1-5.4-1.2,1.8-2.6,3.9-4.1,5.4Z"/>
  <path class="st9" d="M145.2,144.1c.5,0,.5-.2,1.2,0,4.1,1.8,6.8,3.2,10.4,5.9l.4.3,1.5,1.8c-.9,2.2-1.3,3.5-1.7,5.9-.1.8-.2,2.9-.7,3.5l-.3-.4-.2,1.1.9,3c-2.9.2-8.3-.2-11.3-.4-.9-3.6-.9-6.5-1-10.1l.2-.6c-.2-1.5.3-8,.5-9.7Z"/>
  <path class="st13" d="M144.5,154.5c2.9.6,6.2,1.7,9,2.6,1.1,1.9,1.5,3.2,2.4,5l.9,3c-2.9.2-8.3-.2-11.3-.4-.9-3.6-.9-6.5-1-10.1Z"/>
  <path class="st13" d="M145.2,144.1c2.3,2.3,6.5,9,7.9,12-2.2-.7-6.2-2-8.4-2.3-.2-1.5.3-8,.5-9.7Z"/>
  <path class="st13" d="M146.4,144c4.1,1.8,6.8,3.2,10.4,5.9-1.1,1.7-2.2,4-3,5.9-1.2-2.5-2.6-4.5-4.1-6.8-.7-1.1-2.9-3.9-3.3-4.9Z"/>
  <path class="st13" d="M157.3,150.2l1.5,1.8c-.9,2.2-1.3,3.5-1.7,5.9-.1.8-.2,2.9-.7,3.5l-.3-.4c-.3-1.1-1.3-3.1-1.8-4.2.8-2.2,1.8-4.4,2.9-6.5Z"/>
  <path class="st13" d="M133.7,283.8c-.1-.2-.1-.4-.2-.6l.5-.5c3.7,1.1,8.6,3.1,12.4,3.7l.8.5c.3,1.2.8,3.2,1.2,4.3.4,1.2,2.3,5.8,2.4,6.3l-.2.7c1.3.7,1.9,1.6,2.9,2.7l.6.7c-1.6.5-6.8,1.8-8.1,2.5l-.8-.7c-3-1.9-4.7-3.7-6.9-6.4l-.5-.9c-2.5-3.2-3.8-8.3-4.2-12.2Z"/>
  <path class="st13" d="M147.2,295.8l3.5,2.3c1.3.7,1.9,1.6,2.9,2.7l.6.7c-1.6.5-6.8,1.8-8.1,2.5l-.8-.7c-3-1.9-4.7-3.7-6.9-6.4,2-.6,6.4-.8,8.8-1.1Z"/>
  <path class="st17" d="M153.6,300.8l.6.7c-1.6.5-6.8,1.8-8.1,2.5l-.8-.7c1.4-.3,7.2-2,8.3-2.5Z"/>
  <path class="st13" d="M133.7,283.8h.5c4.4,4.5,7.1,7.2,12,11.4-2.9.2-5.4.5-8.3.8-2.5-3.2-3.8-8.3-4.2-12.2Z"/>
  <path class="st9" d="M133.7,283.8c-.1-.2-.1-.4-.2-.6l.5-.5c3.3,3.4,6.5,6.9,10.1,9.9,1,.8,2,1.6,2.9,2.5-.4-2.1-.9-6.5-.6-8.7l.8.5c.3,1.2.8,3.2,1.2,4.3.4,1.2,2.3,5.8,2.4,6.3l-.2.7-3.5-2.3c-2.3.2-6.7.4-8.8,1.1l-.5-.9c2.9-.4,5.3-.7,8.3-.8-5-4.2-7.6-6.9-12-11.5h-.5Z"/>
  <path class="st13" d="M147.5,291.9l1-.7c.4,1.2,2.3,5.8,2.4,6.3-1-.5-2.1-1.4-2.9-2.1-.2-1.1-.3-2.3-.5-3.4Z"/>
  <path class="st8" d="M147.2,286.8c.3,1.2.8,3.2,1.2,4.3l-1,.7c-.2-1.9-.3-3.2-.2-5Z"/>
  <path class="st11" d="M333.3,186.6c.5.7.7,25,.8,27.8-2.3-3.7-3.8-6.3-6.8-9.4-3.2-3-5.9-3.3-9.9-3.2,0-1.5,0-3.1,0-4.7,4.7-3.4,11-7.3,15.9-10.5Z"/>
  <path class="st11" d="M315.7,293c5.8,8-2.7,23.2-7.7,29.9-5.9,2.7-11.8,5.5-17.6,8.5l-1,.3c.1-.4,4.6-3.7,5.5-4.4,2.6-2.3,5-4.7,7.3-7.4,7.5-9,10.3-16.1,13.6-26.9Z"/>
  <path class="st13" d="M153,238.7c1.4.4,6.8,2,7.8,1.8,1.9,1.6,2.3,3.2,2.6,5.6,0,.8.1,1.5.2,2.3l.2.9c.2,1.9.5,6.6.8,8.2v.8c.3,1.3.4,2.6.7,3.9-1.7-1.2-3.3-2.2-4.7-3.9-.2-.6,0-.3-.7-.8-2.9-1.8-4.6-6.1-5.6-9.2,0,0,0-.9-.1-1.1-.6-2.4-.9-6-1.1-8.6Z"/>
  <path class="st13" d="M153,238.7c1.4.4,6.8,2,7.8,1.8,1.9,1.6,2.3,3.2,2.6,5.6,0,.8.1,1.5.2,2.3-3.1-.3-6.3-.8-9.5-1.1-.6-2.4-.9-6-1.1-8.6Z"/>
  <path class="st13" d="M160.7,258.2c1.1-.3,2.9-.1,4.1,0,.2,1.3.3,2.6.6,3.9-1.7-1.2-3.3-2.2-4.7-3.9Z"/>
  <path class="st9" d="M154.2,247.2c3.1.3,6.4.8,9.5,1.1l.2.9c-1.6-.2-8.5-1.5-9.6-.9,0,0,0-.9-.1-1.1Z"/>
  <path class="st17" d="M164.7,257.4v.8c-1.1,0-2.9-.3-4,0-.2-.6,0-.3-.7-.8,1.3-.2,3.3,0,4.8,0Z"/>
  <path class="st13" d="M145.5,164.6c3,.2,8.4.6,11.3.4l.2.9c.6,3.6,1.3,6.1,2.4,9.6v.7c1.1,1.4,1.6,2.5,1.1,4.2-2,1.9-7.1-3.4-8.6-4.8l-.5-.6c-3.3-3.4-3.9-5.2-5.7-9.5l-.2-.9Z"/>
  <path class="st13" d="M152,175.6c1.9-.2,5.7.3,7.6.6,1,1.4,1.5,2.5,1,4.2-2,1.9-7.1-3.4-8.6-4.8Z"/>
  <path class="st9" d="M145.5,164.6c3,.2,8.4.6,11.3.4l.2.9c-3.2,0-8.5-.7-11.4-.5l-.2-.9Z"/>
  <path class="st9" d="M151.4,175c2-.4,6,.1,8,.5v.7c-1.9-.3-5.6-.8-7.5-.6l-.5-.6Z"/>
  <path class="st13" d="M164.2,232.7c1.3.5,2.6,1.1,3.7,1.9v.3c.5,2.3,3,28.2,2.8,28.5-1.2.4-1.6.5-2.5,1.4,0,.9.3,2.1,0,2.6-.2-.2-.3-.3-.5-.5-1.2-8.7-3.4-26.3-3.4-34.2Z"/>
  <path class="st5" d="M178.2,345.7c5.8-.4,12.5,2.1,17.9,4.1.3,3.2.6,6.3.9,9.5l-2.3-3.3c-8.6-9.6-17.5.8-21.7-8.6,2-1,3-1.3,5.1-1.6Z"/>
  <path class="st5" d="M320.4,345.7c3.7-.3,6,0,9,2.1-3.9,5.9-7.9,3-13.8,3.7-1.9.2-3.2.8-4.9,1.7-1.9,1.2-3.2,3.1-4.7,4.8.1-2.9.4-5.6.6-8.5,4.6-1.7,8.7-3.2,13.6-3.8Z"/>
  <path class="st11" d="M317.3,169.9c6.2,2.7,8.2,6.1,10.9,12.1l-3.7,2-7.2,3.9c-.3-5.1-.1-12.8,0-18Z"/>
  <path class="st9" d="M153.5,275.1l.2-.3c3.2,0,5.9.4,9,1.3l.8.3c1.1.6,2.2,1,3,1.9-2.1,7,2.7,2.4,2.2,8.4.2.7.2.5.2,1.2h-.3c0,0,0,0,0,0h-.4c0,0,.4-.1.4-.1v-.2s-.7.2-.7.2l-.4-.4c-.2.5-.2.2,0,.8l-.8.8c0-.2,0-.7,0-1-.5-.1-5.1-3.7-6-4.4-.2-.4-.4-.3-1-.5-1.5-.5-2.1-.6-3.5-1.4-.9-2-1.5-3.6-2.6-5.5v-1Z"/>
  <path class="st13" d="M153.5,275.1l.2-.3c3.2,0,5.9.4,9,1.3,0,2.1,0,4.1.2,6.2-1.7-2-7-5.9-9.4-7.1Z"/>
  <path class="st13" d="M163.5,276.3c1.1.6,2.2,1,3,1.9-2.1,7,2.7,2.4,2.2,8.4-.4.3-.2.2-.8.3-1.4-1.2-2.9-2.7-4.2-4.1-.1-2.1-.4-4.5-.2-6.5Z"/>
  <path class="st13" d="M153.5,276c2.4,1,6.5,4.5,8.6,6.3-.8.2-1.7.4-2.5.6-1.5-.5-2.1-.6-3.5-1.4-.9-2-1.5-3.6-2.6-5.5Z"/>
  <path class="st13" d="M160.7,283.4c2.4-.2,2.1,0,4.1,1.5.6.5,1.9,1.8,2.2,2.6l-.3.4c-.5-.1-5.1-3.7-6-4.4Z"/>
  <path class="st13" d="M152,228.7l-.2-.3c.2-.8,0-.5.9-1.1,2.9,1.2,7.1,2.8,9.6,4.8.3,2.4,1.2,5.4-.8,7.1-.6.4-.6.5-.6,1.4-1,.2-6.4-1.5-7.8-1.8l-.2-.8c0-1.5-.7-7.3-.9-9.1Z"/>
  <path class="st13" d="M152.7,227.3c2.9,1.2,7.1,2.8,9.6,4.8.3,2.4,1.2,5.4-.8,7.1-1.1-1.6-8.7-11.6-8.8-11.9Z"/>
  <path class="st9" d="M152,228.7l-.2-.3c.2-.8,0-.5.9-1.1,0,.2,7.7,10.2,8.8,11.9-.6.4-.6.5-.6,1.4-1,.2-6.4-1.5-7.8-1.8l-.2-.8c2.1.4,6,1.6,8.2,2.2-1.2-2.2-6.9-10.6-8.8-11.7l-.3.4Z"/>
  <path class="st13" d="M173,280.4h.2c.7,2.3,1.2,5.9,1.8,8.5,1.1,4.6,3,9.8,3.6,14.4,0,.4-1.5,1.1-1.8,1.6-.6,1.1,0,1.8-.3,3.2-.4-.3-.9-.8-1.1-1.3-1-3-6-23-5.3-25.1.7-.7,1.8-1,2.8-1.3Z"/>
  <path class="st11" d="M317.4,245.4c4.2,1.9,8.1,6.2,10.3,10.2l-.2.4c-4.2-.1-6,0-10.1.6,0-3.7,0-7.4,0-11.2Z"/>
  <path class="st13" d="M154.2,301.5c2.2,2.5,4.4,3.8,7.4,5.5l.5.4c-.7.7-1.9,1.3-2.9,1.6h-1.1c-2.6-.1-9.7-3.7-12-5,1.3-.7,6.5-2,8.1-2.5Z"/>
  <path class="st9" d="M161.6,307l.5.4c-.7.7-1.9,1.3-2.9,1.6h-1.1c.9-.7,2.4-1.5,3.4-2Z"/>
  <path class="st13" d="M162.1,307.4c2.3.3,9.5,3.4,11.8,4.4-2.7,0-12.8-1.3-14.6-2.6v-.2c.9-.3,2.1-.9,2.8-1.6Z"/>
  <path class="st3" d="M178.3,311.7c0,1-.2.7.3,1.2,1.7.3,2.3.7,2,2.6-.5.7-.4.7-1.2.9-1.4,0-1.6-.5-2.3-1.7-.6-.4-.3-.3-1.1-.4-.3-1-.3-.6,0-1.4.7-.8,1.3-.9,2.3-1.2Z"/>
  <path class="st17" d="M178.3,311.7c0,1-.2.7.3,1.2-.4.5-1.1,1.3-1.5,1.8-.6-.4-.3-.3-1.1-.4-.3-1-.3-.6,0-1.4.7-.8,1.3-.9,2.3-1.2Z"/>
  <path class="st7" d="M176,314.4c-.3-1-.3-.6,0-1.4.7-.8,1.3-.9,2.3-1.2-.5.9-1.5,2-2.3,2.7Z"/>
  <path class="st3" d="M174.8,308.6c.8-.3,1.8,0,2.1.9.4.8,0,1.8-.8,2.2-.6.3-1.2.2-1.7-.1-.5-.4-.8-1-.7-1.6,0-.6.5-1.1,1-1.4Z"/>
  <path class="st3" d="M179.8,309.3c.6-.2,1.2-.1,1.7.3.5.4.7,1,.6,1.6-.1.6-.6,1.1-1.1,1.3-.9.3-1.8-.2-2.1-1.1-.3-.9.1-1.8,1-2.1Z"/>
  <path class="st3" d="M167,184.8c1.4,0,2,0,2.6,1.3,0,1-.2,1.1-.8,1.8-1.2.4-.6.4-1.7.1-1.1-1.1-1.1-2-.1-3.2Z"/>
  <path class="st3" d="M178.5,304.8c.9-.2,1.8.3,2,1.1.2.9-.3,1.8-1.2,2-.9.2-1.8-.3-2-1.1-.2-.9.3-1.8,1.1-2Z"/>
  <path class="st3" d="M167.6,279c.8-.3,1.7.1,2,.9.3.8,0,1.7-.8,2.1-.5.3-1.2.2-1.7-.1-.5-.4-.7-.9-.6-1.5s.5-1.1,1.1-1.3Z"/>
  <path class="st3" d="M169.7,264.6c.8-.4,1.7-.1,2.1.6.4.7.2,1.7-.5,2.1-.5.3-1.1.3-1.6,0-.5-.3-.8-.8-.8-1.4,0-.6.3-1.1.8-1.4Z"/>
  <path class="st3" d="M165.9,189.2c1.3,0,2,.3,2.3,1.6-.3,1-.1.7-1,1.5-.8-.4-1.9-.7-2.3-1.4.2-1,.3-.8,1.1-1.7Z"/>
  <path class="st8" d="M167.6,288c2.5,2.3,2.6,4.3,3.4,7.7-1.5-2.5-2.3-4.7-4.2-6.9l.8-.8Z"/>
  <path class="st3" d="M171.1,277l.5.2c.8,1.4,1.1,2.2-.3,3.2-.6-.6-1.4-1.3-1.6-2.1.4-.9.4-.7,1.5-1.3Z"/>
  <path class="st6" d="M170.4,243.2l.4.3c.8,1.9.8,6.4.7,8.5-.5-.6-.9-7.4-1.1-8.8Z"/>
  <path class="st8" d="M367.4,246.5c.9,0,1-.1,1.7.4l1.2,3.5-2.9-3.9Z"/>
  <path d="M242.4,94.9c5.6.1,11.2.2,16.9.2v9.2c2.1,0,4,.1,6.2.3.2-3.1.3-6.2.3-9.3,6.5,1,14,1.8,20.6,2.5-1.6,5.1-3.9,10.9-5.7,16,4.8.4,7.2,1.1,11.7,2.9v-17.2c5.2,2.2,13.9,5.6,19.2,7.3-.8,2-1.7,3.9-2.6,5.9l5.4,3.7,4.9-7.3c1.5,1.4,4,3.3,5.7,4.6l10.1,7.8c-4.4,2.8-10.5,6.9-14.6,10-1.5,1.1-6.6,8.4-8,10.4l-13.9,19.1c-10.4-3.5-28.2-6.8-39.1-7.2-19.2-1.6-38.4,1.6-56.7,7.3l-12.7-19.4c-1.1-1.6-6.2-9.9-7.3-10.7-4-3-10.5-6.8-14.9-9.6,3.9-2.6,11.4-8.5,15.1-11.5,1.4,1.7,2.9,3.8,4.3,5.6l6.2-3.7-3.2-5.6,18.5-6.8c.5,5.7,1,11.5,1.6,17.2,4.5-2,6.7-2.5,11.7-3-2.4-4.9-4.8-9.9-7.1-14.9,6.5-1.3,14.8-2.3,21.5-3.4.2,3.2.4,6.3.6,9.5,1.4-.1,3.7-.1,5.2-.1.1-3.3.2-6.7.3-10Z"/>
  <path class="st11" d="M231,115c2.9,0,5.9-.6,8.7-.8.3,3.3.6,7.4,1.1,10.5-2.4.2-7.8.5-9.9,1.2-.8.5-.6.2-.8,1l.4.2h.5c.9.9,1.5,6.6,1.5,8.1-.5.5-1.4.6-2.1.7l-.8-1.3v1.2c-.8,1.1-9.1,2.9-11,3.3-1.5-2.7-4.9-7.5-6.8-10.2-1.7-2.3-3.5-5.2-5.3-7.7-.2-.3-.2-.4-.3-.8.6-1,2.5-1.8,3.5-2.4,6.4-3.6,13-3.6,20.1-3.2.3,0,.9,0,1.2,0Z"/>
  <path class="st10" d="M231,115c2.9,0,5.9-.6,8.7-.8.3,3.3.6,7.4,1.1,10.5-2.4.2-7.8.5-9.9,1.2-.6-.7-.3-9.8,0-10.9Z"/>
  <path class="st17" d="M229.9,114.9c.3,0,.9,0,1.2,0-.4,1.1-.6,10.2,0,10.9-.8.5-.6.2-.8,1l.4.2h.5c.9.9,1.5,6.6,1.5,8.1-.5.5-1.4.6-2.1.7l-.8-1.3.3-19.7Z"/>
  <path class="st10" d="M231,127c.9,1,1.5,6.7,1.5,8.2-.5.5-1.4.6-2.1.7.2-2.2-.2-7.2.6-8.9Z"/>
  <path class="st11" d="M272.8,115.1c5.7-1.7,15.3.3,20.6,3.2,1.1.6,2.2,1.3,3.2,2l-2.1,3.1c-.8,1.1-3.2,4.5-3.6,5.5-1.6,1.9-5.6,8.1-7,10.3-2.9-.9-7.9-2.2-10.8-2.9-.3-4,0-8-.4-12.1.2-2.1-.2-6.4,0-9.2Z"/>
  <path class="st10" d="M243.2,126.1c8.8-.6,18.1,0,26.9,1-1.1,2.7-2.2,5.5-3.2,8.3l-7-.8c-9.8-.7-15.9-.4-25.6.5-.4-2.8-.8-5.2-1-8,3.1-.5,6.8-.7,10-1Z"/>
  <path class="st10" d="M243.9,96.6h6.3c0,0,0,15.4,0,15.4-7.2.2-12.6.7-19.8,1.7l-1-5c-.5-3.4-1.1-6.8-1.7-10.2l7.1-1.1c.1,3,.4,6.2.6,9.3,2.8-.1,5.7-.2,8.5-.3v-9.8Z"/>
  <path class="st10" d="M251.8,96.7h5.9c0,3.1-.2,6.2-.2,9.2l9.7.4c0-3,.2-6,.4-9,2.5.2,4.9.5,7.5.8-.4,1.7-1,3.9-1.4,5.6-.9,3.2-1.7,6.5-2.6,9.7-6.7-1-12.4-1.3-19.1-1.6-.2-4.9,0-10.3,0-15.3Z"/>
  <path class="st10" d="M198,105.4h.5c1.3,2.3,5.2,11.7,6.4,14.5-4.9,2-10.3,4.6-15.2,6.7l-4.5-5.8c-1.7-2.2-3.4-4.4-5.1-6.5l2.5-1.8c1.1,1.7,2.8,3.8,4.1,5.5l8.8-5.5c-.8-1.2-2.3-3.7-3.1-5.1,1.8-.7,3.7-1.4,5.5-2.1Z"/>
  <path class="st10" d="M303.4,105.6c1.9.8,4.1,1.6,6,2.4-.8,1.9-1.6,3.7-2.5,5.6,2.3,1.4,5.8,3.7,8,5.2l4.8-7c.5.4,1.3,1,1.7,1.4l-5.1,6.9c-1.7,2.3-3.4,4.5-4.9,6.9-3.3-1.5-12.4-5.5-14.8-7.9l6.9-13.5Z"/>
  <path class="st10" d="M244.1,113.8c5.2-.4,11.6-.2,16.7.2-.2,1.9-.8,9-1.3,10.4h-.6c-4.7-.4-11.9,0-16.5.2-.3-2.3-1-8.3-.8-10.3.7-.4,1.6-.4,2.5-.4Z"/>
  <path class="st10" d="M322.6,114.1c3.2,2.5,6.5,5,9.7,7.5l-11,7.4c-.8.6-1.7,1.1-2.5,1.6-2-.9-4.2-2-6.3-3,3.4-4.3,6.8-9.1,10-13.6Z"/>
  <path class="st10" d="M245,135.9c4.9-.1,9.8,0,14.8.4-.1,1.5-.4,6-.9,7.2h-.6c-5.3-.2-9.7-.2-15.1,0,0-2.4-.6-4.7,0-6.8.7-.8.5-.5,1.8-.6Z"/>
  <path class="st10" d="M261.4,136.5c5.7.6,10.5,1.4,16.1,2.6l-1.6,6.5-.2.4c-.2,0-14-1.9-15.2-2.1.2-2.4.5-5,.8-7.4Z"/>
  <path class="st10" d="M293.3,132.5c4.2,1.4,8.4,2.9,12.5,4.6l-4.6,7.6c-4.3-1.4-8-2.9-12.4-4.2,1.5-2.6,3-5.3,4.6-7.9Z"/>
  <path class="st10" d="M241,136.2h.1c.3.8.4,6.2.5,7.4-2.7.1-5.4.3-8.1.7-1.2.2-6.6,1.1-7.2.8l-1.7-6.3c5.9-1.6,10.5-2,16.5-2.5Z"/>
  <path class="st10" d="M262.5,114.1c2.9.2,6.3.7,9.3,1l.5.7.4-.6c-.2,2.8.2,7.1,0,9.2-.3.8-.3,1.3-.9,1.6-2.4-.6-8.1-1.1-10.6-1.2.2-3.3.8-7.2,1.2-10.5Z"/>
  <path class="st17" d="M271.8,115.1l.5.7.4-.6c-.2,2.8.2,7.1,0,9.2-.3.8-.3,1.3-.9,1.6.2-3,0-7.7-.1-10.8Z"/>
  <path class="st10" d="M208.7,132.6h.4c.9.9,3,5.8,3.7,7.3-4.5,1.5-8.1,2.7-12.3,4.6-1.5-2.5-3-5-4.4-7.5,4.2-1.6,8.4-3.1,12.7-4.5Z"/>
  <path class="st10" d="M178.8,115.5c.9.5,8.2,10.4,9.3,11.9-1.6.7-3.2,1.4-4.9,2.1l-1.6-1c-3.5-2.2-7.5-4.8-11.1-6.9,2.8-2,5.4-4.2,8.2-6.1Z"/>
  <path class="st10" d="M196.3,125.6c.6.6,4.1,6.9,4.7,8-3.9,1.4-7.7,2.9-11.5,4.6-1.1-2-3.5-5.4-4.8-7.4l11.6-5.2Z"/>
  <path class="st10" d="M232.6,146h.9c1,.7,1.8,5.3,2.1,6.8-4.7.4-10.1,1.4-14.7,2.1h-.6c-.8-1.7-1.6-4.5-2.2-6.2,5.1-1.1,9.4-2.1,14.6-2.7Z"/>
  <path class="st10" d="M305.1,125.9c3.8,2,8.9,4.3,12.8,6.2l-4.5,6.1s0,0,0,0c-1.2.3-10-3.9-12.1-4.6l3.8-7.7Z"/>
  <path class="st10" d="M276.7,98.3c2.5.4,5,.7,7.5.9l-5.1,14.4c-.8.4-5.4.4-6.6.5,1.2-5.2,2.8-10.6,4.2-15.8Z"/>
  <path class="st10" d="M279,139.4c5,1.2,9.9,2.7,14.8,4.3l-2.7,5.6c0,.1-.2.4-.3.6-.8,0-11.8-3-13.4-3.4.6-2.4,1.1-4.7,1.6-7.1Z"/>
  <path class="st10" d="M224.9,99c.8-.1.5-.2,1.1,0,.7,2.4,2.1,11.7,2.7,14.9-1.8,0-4.6.5-5.5-1.1-2-4.2-4.1-8.5-6.1-12.7,2.4-.5,5.3-.9,7.8-1.2Z"/>
  <path class="st10" d="M222.6,139.1c.8.5,1.8,5.2,2.1,6.4-4.9,1.1-9.7,2.3-14.5,3.8l-2.6-5.9c6.2-2.2,8.8-2.7,15.1-4.3Z"/>
  <path class="st10" d="M252,145c4.9.2,9.8.6,14.7,1.3-.2,2.3-.3,4.3-.6,6.6-2.9.2-10.4-.7-14.2-.7,0-2.4,0-4.7,0-7.1Z"/>
  <path class="st10" d="M244.9,145c1.7,0,3.7,0,5.4,0v7.2c-3.3,0-6.6.2-9.9.3l-3.3.2c-.4-2.2-1.2-4.8-1.7-7,3.3-.3,6-.5,9.4-.6Z"/>
  <path class="st10" d="M268.4,146.5c5.1.7,10.4,2,15.5,3.2-.2,1.8-.6,3.8-1,5.6-.7.2-13-1.9-15-2.2.1-2.2.3-4.5.5-6.6Z"/>
  <path class="st10" d="M205.6,121.3h1c1.8,2.5,3.5,5.4,5.3,7.7l-.4,1.1c-2.1.4-6.9,2.1-9,2.9-1.5-2.7-3.1-5.4-4.6-8.1,2.5-1.1,5.4-2.3,7.8-3.6Z"/>
  <path class="st17" d="M205.6,121.3h1c1.8,2.5,3.5,5.4,5.3,7.7l-.4,1.1c-1.8-2.9-4-5.9-5.9-8.8Z"/>
  <path class="st10" d="M296.8,121.8l6.9,3.4c-1.3,2.6-2.7,5.2-3.9,7.8-2.9-1-5.8-2-8.7-2.9v-1.1c.4-1,2.8-4.4,3.5-5.5l.6.6,1.6-2.3Z"/>
  <path class="st17" d="M290.9,129c.5-1,2.9-4.4,3.6-5.5l.6.6c-1,1.5-3.1,4.8-4.2,6v-1.1Z"/>
  <path class="st10" d="M206.9,102.2s0,0,0,0c.6.7,1.4,13.9,1.6,15.5l-2.2,1.4-1.5-3.3c-1.7-3.7-3.3-7.5-4.9-11.2l6.9-2.5Z"/>
  <path class="st10" d="M295.3,144.3c3.5,1.3,7,2.7,10.5,4.2-1.1,1.7-2.5,3.5-3.7,5.1l-.2.2c-.7.2-8.4-2.7-9.7-3.2,1-2.1,2-4.2,3-6.2Z"/>
  <path class="st10" d="M293.9,102.1c2.6.9,5.3,1.9,7.8,3-1.5,3-3.1,6.1-4.7,9.1-.4.9-1.7,3.7-2.5,3.9-.7-.8-.6-14.1-.6-16Z"/>
  <path class="st10" d="M205.7,144.1c.8.4,2.4,4.6,2.9,5.8-3,.9-6.1,2.3-9.1,3.3-1.1-1.5-2.3-3.4-3.4-5,3.2-1.5,6.4-2.8,9.6-4.1Z"/>
  <path class="st10" d="M216.2,149.2c.6.5,2,5.2,2.4,6.3-3.2.7-6,1.4-9.1,2.2l-3.1-5.3c3.3-1.1,6.5-2.2,9.9-3.2Z"/>
  <path class="st10" d="M285.5,150.3c2.6.5,7.2,2.1,9.8,2.9l-1.4,4.7c-.5.3-8-1.7-9.4-1.9.3-1.9.7-3.8,1.1-5.7Z"/>
  <path class="st10" d="M307.3,137.8c1.6.6,3.2,1.4,4.8,2.1l-5,6.9c-.6.4-3.7-1.1-4.5-1.5,1.6-2.3,3.2-5.1,4.7-7.6Z"/>
  <path class="st10" d="M194.2,137.8c.9.3,3.9,6.1,4.6,7.4l-3.6,1.6c-1.6-2.2-3.3-5-4.8-7.3l3.9-1.7Z"/>
  <path class="st10" d="M204.8,152.9c.4.5,2.6,4.4,3,5.2l-4.3,1.3c-1-1.3-2.3-3.3-3.2-4.7l4.6-1.8Z"/>
  <path class="st10" d="M211.5,131.4c1.5.3,5.2,5.9,5.5,7.3l-.4.2c-.9.3-1.1.4-2,.4-1-.9-3.3-5.9-3.5-7.3l.5-.6Z"/>
  <path class="st10" d="M271.7,127.4c.6.8.5,7.4.6,8.9l-2.7-.4c-.5,0-.3,0-.8-.3,0-1.5,2.3-6.5,3-8.2Z"/>
  <path class="st10" d="M296.8,153.7l4.1,1.6-2.5,3.4-.3.3c-.8.2-1.9-.2-2.8-.5l1.6-4.9Z"/>
  <path class="st10" d="M290.3,131.5c.8.3.5,0,1,.7-.3,1.6-3.3,7-4.7,7.8-.7-.4-1-.4-1.2-1.1,1-2,3.6-5.6,5-7.4Z"/>
  <path d="M298.2,29.8c4.7-.4,10.1.6,14.2,3.3,3.3,2.1,5.5,5.4,6.3,9.2,1.1,5.2-.4,12.4-3.3,16.8-2.5,3.8-5.8,5.7-10.2,6.6-18.4,1.5-26.9-13.7-17.4-29.5,2.2-3.6,6.3-5.6,10.4-6.4Z"/>
  <path class="st11" d="M300.4,38.1c1.5-.1,2.8-.1,4.3.5,1.6.6,2.9,1.9,3.6,3.6,1.2,3,.3,7.6-.9,10.5-1.1,2.6-2.2,3.9-4.7,4.9-6.3.6-9.3-3.6-8.3-9.5.8-4.4,1.7-7.9,6.1-9.9Z"/>
  <path d="M42.9,172.1c5.8-.5,8.8,1.5,10.1,7.2,6.2-8.7,16.8-4.1,16.9,5.1,0,2.2-4.7,21.9-5.8,22.9l-.9-.2c-10.7-2.8-21.4-6-32.1-8.9,1-4,2.1-8.1,3.2-12,1.8-6.1,2-11.7,8.6-14.2Z"/>
  <path class="st11" d="M57.3,184.6c6.3.1,4.4,6.9,2.5,10.5-.8.2-1.1,0-2-.3-1.5-.4-3.1-.9-4.6-1.3.9-3,1.2-7.3,4.2-9Z"/>
  <path class="st11" d="M44.1,182.2c2.7.1,4.1.7,4.2,3.7,0,1.4-.8,4.7-1.8,5.7h-.7c0-.1-5.3-1.6-5.3-1.6.9-2.8,1.1-6.1,3.6-7.8Z"/>
  <path d="M472.8,208.3c.9,0,.9-.2,1.6.1.5,1.8.9,7,1.1,9.3l-17.7,14.7c4-.7,15.1-1.8,19.2-2.1.2,3.2.6,6.4,1,9.6-9.7,1.5-22.6,2.6-32.7,3.7-.7.2-.7.2-1.4,0-.9-1.4-1.2-7.4-1.4-9.5l17.4-14.5c-5.6.9-13.2,1.5-18.9,2.1-.1-3-.7-6.6-.9-9.7,3.2-.2,7.5-.8,10.8-1.1l21.8-2.4Z"/>
  <path d="M228.9,441.4c17.9-1.1,20.6,14,16.2,28-3.1,9.7-12.9,11.7-21.5,8.6-3.3-1.2-5-3.3-6.4-6.4l-.7-2.5c3.3,0,6.6-.2,10-.3.8,2.8,2,5.5,5.8,3.7,2.5-1.2,3.3-6.3,3.9-9-1.9,1.3-3.3,2.2-5.6,2.6-3,.5-6-.2-8.5-1.9-7.2-5.1-6.4-17.1,1.4-21.3,1.8-1,3.3-1.2,5.3-1.5Z"/>
  <path class="st11" d="M230.6,447.9c7.4-.4,8.3,9.1,2.5,12.2-.7.1-1.7.2-2.4,0-1.3-.3-2.4-1-3-2.1-2-3.4-.8-8.2,2.8-10.1Z"/>
  <path d="M261.5,441.9c6.4-.5,12,1.2,15.1,7.3,2.9,5.7,3.2,14.3,1.6,20.4-1.9,6.9-8.3,10.2-15,10.1-5.7,0-9.7-1.6-12.4-6.9-.3-.6-.2-.6,0-1.1l.7-.2c3-.6,5.8-1.2,8.8-1.6,1,2.6,3.3,5.1,6.3,2.8,2.2-1.7,2.3-6.9,2.4-9.6-2.1,2.1-4.2,3.6-7.3,4-3,.4-6.1-.5-8.4-2.4-6.9-5.5-6.1-17.5,2.2-21.2,2.1-1,3.8-1.2,6-1.4Z"/>
  <path class="st11" d="M262.5,448.2c6.7.4,8,10,1.6,12.3-7.3.2-8.1-11-1.6-12.3Z"/>
  <path d="M84.7,96.8c11.3,4.2,23,9,34.3,13.4-2.4,2.6-4.8,5.5-7.2,8.2-1.7-.9-3.6-1.7-5.3-2.6-1.1,1.2-7.3,8-7.7,9,1,1.7,2,3.3,3.1,4.9-1.6,1.6-5.5,6.2-7,7.9l-17.7-32.3c2.5-2.8,5-5.6,7.5-8.5Z"/>
  <path class="st11" d="M87.8,107.1c2.9,1,8.7,4,11.6,5.3l-2.6,2.9-2.2,2.6c-2.3-3.6-4.6-7.2-6.8-10.9Z"/>
  <path d="M28.8,208.5c7.9,1,17.4,1.8,24.8,4.1,6.8,2,8.7,9.3,7.9,15.5-2,15.6-9.7,16-22.6,14.2l-8.5-1.2-6-.8c.4-3.3,1-6.9,1.4-10.2,4.8.6,9.6,1.4,14.4,2,2.2.3,6.3,1,8.4.9,1,0,2-.4,2.8-1,3.2-2.4,2.7-8.9-1.4-9.8-7.2-1.5-15.2-2.6-22.5-3.3.4-3.5.8-6.9,1.3-10.3Z"/>
  <path d="M357.1,50.3c1.2.2,8.4,4.6,10,5.6-.4,2-.8,4-1.2,6-1.7,10.1-3.8,20.1-5.4,30.2-2.9-1.8-6.3-3.8-9.4-5.5l1.4-5.8-2.6-1.5-7.6-4.4c-1.2,1.3-2.9,2.8-4.2,4.1-3.1-1.7-6.1-3.5-9.2-5.3,3.1-2.4,6.7-5.5,9.7-8.1l18.3-15.3Z"/>
  <path class="st11" d="M357.1,61.2s0,0,0,0c.5,1.3-2.2,10.1-2.7,12l-3.5-1.9-2.8-1.8,8.9-8.4Z"/>
  <path d="M182.5,33.8h.3c.6.8,2.4,5.7,2.7,6.8-4.1,1.3-11.7,4.6-16,6.3.6,1.6,1.4,3.5,2,5.1,4.2-1.7,10.8-4.1,14.8-6,1,2.1,1.8,4.4,2.7,6.6-4.7,2-10.1,4-15,6,.9,2.1,1.7,4.1,2.5,6.3l16.6-6.6.6,1.7c.7,1.9,1.5,3.7,2.2,5.6-8.2,3.6-17.8,7.1-26.2,10.4-3.6-9.8-8.7-22.6-12.8-32.2,2.7-.9,6.3-2.4,9.1-3.5l16.4-6.5Z"/>
  <path d="M56.2,134c2.1,1.2,4.4,2.3,6.6,3.4-2.6,5.2-5.2,10.3-8,15.4l4.9,2.6,7.3-14.3,6.4,3.2c-2.5,4.7-5,9.6-7.4,14.3,2,1,4.1,2.1,6.1,3.1,2.6-5.3,5.5-10.7,8.1-16l1.7.9,5.3,2.7c-4.4,8.2-8.5,16.8-12.9,25.1-9.6-4.6-21.4-10.7-30.8-15.8,3.8-6.4,9.2-17.8,12.7-24.6Z"/>
  <path d="M441,280.4c11.2,2.5,22.5,5,33.7,7.6l-6.1,27-7.3-1.7c1.4-4.6,2.8-12.1,3.8-16.8l-5.3-1.2-.7,3.2-2.8,12.5c-2-.5-5-1-6.9-1.7,1.3-5,2.4-10.5,3.6-15.5-2.2-.5-4.4-1-6.7-1.5-1.4,5.5-2.6,11.8-3.9,17.4-2.5-.5-5.2-1.2-7.7-1.8.7-2.5,1.6-6.8,2.2-9.4l4.1-18Z"/>
  <path d="M464.3,172h.1c.7.6,7.1,23.2,8.1,26.5l-7,2.1c-1.7-5-3.4-11.6-4.9-16.7l-5.2,1.6c1.3,4.9,3,10.6,4.5,15.5-2.2.6-4.6,1.3-6.8,2-1.3-4.5-2.6-8.9-3.9-13.4-.2-.8-.2-.9-.6-1.6-1.4-.5-4.7.9-6.6,1.3,1.8,5.6,3.3,11.5,5.1,17.1l-7.6,2.3c-2.7-8.7-5.4-18.3-7.8-27.1l32.7-9.5Z"/>
  <path d="M304.1,436.1c.6,0,.3-.1.9,0,.7,2.1,1.3,5.3,1.8,7.5-4.1,1.2-11.8,2.7-16,3.5,0,1.8.2,3.7.3,5.5,2.8-1.8,4.6-2.8,8-3.2,11.9-1.4,16.9,13,9.6,21.1-3.3,3.6-8.8,4.8-13.6,5-4.1.2-6.8-.9-9.8-3.6-1.1-1.2-1.7-2.2-2.6-3.5l9.9-3.3c1,2.1,2.3,3.9,4.8,3.9,7.9,0,5.1-14.2-1.8-12.6-1.9.4-3.4,2.2-4.4,3.7-2.9.3-5.8.5-8.8.7-.4-6.7-.8-13.3-1-20,6.7-1,15.7-3.4,22.6-4.9Z"/>
  <path d="M383.8,70.1c2.8,0,5.2.6,7.6,2.1,7.2,4.6,12.6,10.4,7.4,19.1-1.7-1.5-5.8-4.3-7.8-5.6.7-1.9,1.3-3.3.2-5.2-.7-1.2-1.8-2-3.1-2.3-1.1-.2-1.7,0-2.6.5-.2.4-.7,1.1-.5,1.6,3.5,7.6,13.8,14.4,5.2,23.2-2.5,2.5-5.3,3.2-8.8,3.2-6.3-1-14-6.7-15.9-13.1-1.1-3.6.3-7.3,2.2-10.4l8.1,5.8c-4,6,2.6,12.3,6.9,8,1.8-2.7-3.5-8.7-4.8-10.7-4.7-6.8-3-14.9,6-16.3Z"/>
  <path d="M442,139.9c.6,0,1.1,0,1.7,0,7.3.3,13.2,11.2,12.9,17.9-.2,3.8-2.5,5.8-5.2,8.1-1.4-2.7-3.4-5.8-5-8.5.9-.8,1.4-1.3,2-2.5,1.2-2.6-1.3-7.5-4.5-6-.4.2-.9.9-.9,1.4,0,1.5.4,3.4.8,4.9,1.9,7.1,2.9,16.4-6.4,18.6-1.9.5-3.1.4-5.1.2-7.5-2.2-12.9-11.6-12.4-19.4.3-3.7,3.3-6.6,6.2-8.8,1.4,2.6,3.4,5.7,5,8.4-.7.6-1.4,1.3-2.1,2-2.6,2.7.2,9.9,4.1,8.8,3.5-1,2.4-5.6,1.8-8.3-1.7-7.3-2.3-15.2,7.1-16.9Z"/>
  <path d="M409.3,94.4c3.3-.2,6.3.7,8.8,2.9,6.7,5.9,11.2,12.4,4.8,20.4-2.3-2.2-4.5-4.5-6.7-6.8v-.3c1.3-2.4,1.8-3.9,0-6.3-.9-1.3-3.6-2.4-4.8-1.1-1.3,1.5.7,4.7,1.5,6.1,3,5.6,6.5,12.1,1.1,17.6-2.6,2.6-5.3,3.4-8.9,3.4-6.9-1-14.2-8.7-15.5-15.6-.7-3.7,1.6-7.4,3.9-10.2,2.3,2.4,4.7,4.7,7.1,7-2.8,3.5-3,6.3.6,9.4,1.3,1.1,4.3,1.2,5.1-.6,1.1-2.5-.8-5.6-1.8-7.8-3.8-7-5.1-15.8,5-18.1Z"/>
  <path d="M452.7,247.7c.8,0,1.6-.2,2.1.2.3,2.1.1,7.2.1,9.5-3.8.3-7,3.1-6.3,7.1.2,1,.7,1.9,1.6,2.4,7.5,5,6.1-16.9,16.3-17.2,12.9-.4,13.1,15,8.8,23.3-1.5,2.8-4.7,3.9-7.5,4.5h-.9c-.9-1.2-.4-7.7-.3-9.6,3.9-1,6-3.6,3.7-7.9-.3-.6-1.1-.7-1.8-.8-4.6,1.8-3,16.1-12.6,18.3-2.9.7-5.9.1-8.5-1.4-7.2-4.5-6.8-16.8-2.9-23.5,1.7-2.9,4.9-4.2,8.1-4.9Z"/>
  <path d="M261.6,24.1c9.7-.8,15.1,1.7,18.6,11.1-3,.5-6,1.3-9.2,1.7-1.6-3.7-3.6-5.7-8-4.7-6.1,1.4-6.9,17.3-1,19.1,5.5,1.7,7.6-1.6,9.1-6.1l2.2.8,6.7,2.4c-1.9,5.6-4.5,9.8-10.9,11-4.7.9-10.7.4-14.8-2.4-8.1-5.5-8.6-19.3-3.5-26.9,2.6-3.8,6.3-5.3,10.7-6Z"/>
  <path d="M49.5,278.7c9.8.5,13.9,5.1,15.5,14.5,1.9,11-6.1,17.6-16.1,19-11.4,1.7-18-4.4-19.5-15.4-1-7.2,1.8-10.9,7.3-14.8,1.4,2.8,2.8,5.6,4.1,8.4-5.8,4-4,11,2.7,11.8,4.2.5,13.6-1.9,13.5-7.3,0-5.4-3.6-6.6-8.3-6.8.3-3.2.4-6.3.8-9.5Z"/>
  <path d="M118.2,65.7c.8.6,4.7,5.3,5.6,6.4-2.2,2.1-5.6,4.8-8,6.9l16.9,19.9c-2.6,2-5.4,4.5-8,6.6-2-2.5-4.3-5.1-6.4-7.5l-10.5-12.3c-2.4,2.2-5.5,4.8-8.1,6.9-1.5-2.1-3.7-4.5-5.4-6.5,7.8-6.5,16.2-13.6,23.9-20.4Z"/>
  <path d="M219.8,25.1h.2c.5.6,1.8,7,2.1,8.1-3.4.9-6.9,1.7-10.3,2.4l5.9,25.4c-3.2.9-6.8,1.6-10.1,2.4l-2.2-9.7c-1.2-5.2-2.4-10.4-3.6-15.6-3.3.9-6.8,1.5-10.2,2.4-.8-2.8-1.4-5.6-2-8.4,10-1.9,20.2-4.9,30.3-6.8Z"/>
  <path d="M135.6,55.7c.4.4,3.2,5.3,3.6,6.2,3.1,5.5,6.3,10.9,9.5,16.3l13.9-8.1c1.2,2.4,2.9,5,4.2,7.4l-8.9,5.2-14.1,8.2c-1.5-3-4.1-7.1-5.8-10l-11.6-19.9c3-1.7,6-3.4,9-5.1Z"/>
  <path d="M55.5,247l3.5-.2c.3,2.3.5,6.3.6,8.7.4,5.9.8,11.8,1.2,17.6-10.3.7-20.6,1.4-30.9,2l-3.5.2c-.4-2.8-.6-7.4-.8-10.3,8.6-.6,17.4-1,25.9-1.7-.1-4.8-.6-11.3-1.1-16.1l5-.3Z"/>
  <path d="M204.9,436.3c2.7.7,5.4,1.3,8.2,1.9-3.1,11.5-5.6,24.5-8.6,36.3-3.3-.8-6.6-1.6-9.9-2.4l.7-2.8c1.5-6.9,3.3-14,4.9-20.9-4.5,1.8-6.9,2.1-11.6,2.7.7-2.6,1.3-5.6,1.9-8.2,6.7-.5,10-1.9,14.5-6.6Z"/>
  <path d="M436,120c.8.3,5.1,7.4,5.8,8.5l-28.7,18.8c-.7-.5-5.1-7.4-5.9-8.6,9.6-6,19.2-12.9,28.8-18.7Z"/>
  <path d="M239.1,24.4h.1c.1.1.2.2.3.4.6,7.3,2.1,28,2.5,34.1-3.3.1-6.6.4-9.8.7h-.3c-.3-1-.8-9.1-.9-10.7-.5-7.9-1.3-15.9-1.7-23.8,3.3-.2,6.6-.4,9.9-.6Z"/>
  <path d="M173.2,27.6c0,1.2-3.4,7.8-4.1,9.2-1.2.6-2.5,1-3.8,1.5-.3-1.2.5-6.4.7-7.8,2.4-1,4.8-1.9,7.2-2.9Z"/>
</svg>