<?xml version="1.0" encoding="UTF-8"?>
<!DOCTYPE svg PUBLIC "-//W3C//DTD SVG 1.1//EN" "http://www.w3.org/Graphics/SVG/1.1/DTD/svg11.dtd">
<svg xmlns="http://www.w3.org/2000/svg" version="1.1" width="361px" height="361px" style="shape-rendering:geometricPrecision; text-rendering:geometricPrecision; image-rendering:optimizeQuality; fill-rule:evenodd; clip-rule:evenodd" xmlns:xlink="http://www.w3.org/1999/xlink">
<g><path style="opacity:0.048" fill="#010101" d="M 177.5,-0.5 C 178.167,-0.5 178.833,-0.5 179.5,-0.5C 179.5,0.166667 179.5,0.833333 179.5,1.5C 177.603,3.69752 176.603,6.36419 176.5,9.5C 175.566,10.5676 175.232,11.901 175.5,13.5C 174.167,14.1667 174.167,14.8333 175.5,15.5C 175.672,16.4916 175.338,17.1583 174.5,17.5C 173.356,16.8174 173.356,17.1507 174.5,18.5C 174.672,19.4916 174.338,20.1583 173.5,20.5C 172.356,19.8174 172.356,20.1507 173.5,21.5C 173.672,22.4916 173.338,23.1583 172.5,23.5C 171.356,22.8174 171.356,23.1507 172.5,24.5C 172.672,25.4916 172.338,26.1583 171.5,26.5C 170.58,25.9326 170.246,26.5992 170.5,28.5C 169.167,29.1667 169.167,29.8333 170.5,30.5C 170.672,31.4916 170.338,32.1583 169.5,32.5C 168.167,33.1667 168.167,33.8333 169.5,34.5C 169.5,35.1667 169.167,35.5 168.5,35.5C 167.662,35.8417 167.328,36.5084 167.5,37.5C 166.167,38.5 166.167,39.5 167.5,40.5C 167.5,41.1667 167.167,41.5 166.5,41.5C 165.662,41.8417 165.328,42.5084 165.5,43.5C 150.797,43.5798 136.131,43.4131 121.5,43C 122.056,43.3826 122.389,43.8826 122.5,44.5C 121.833,44.5 121.5,44.8333 121.5,45.5C 120.167,45.8333 120.167,46.1667 121.5,46.5C 121.842,47.3382 122.508,47.6716 123.5,47.5C 123.5,48.1667 123.833,48.5 124.5,48.5C 124.5,49.1667 124.833,49.5 125.5,49.5C 125.842,50.3382 126.508,50.6716 127.5,50.5C 127.5,51.1667 127.833,51.5 128.5,51.5C 128.833,52.8333 129.167,52.8333 129.5,51.5C 136.802,56.1442 143.802,61.1442 150.5,66.5C 151.5,66.8333 152.167,67.5 152.5,68.5C 149.167,68.5 145.833,68.5 142.5,68.5C 138.688,67.6762 134.688,67.1762 130.5,67C 127.167,64.6667 123.833,62.3333 120.5,60C 115.52,55.7764 114.187,50.7764 116.5,45C 117.958,42.8789 119.958,41.5456 122.5,41C 134.89,40.9181 147.223,40.2514 159.5,39C 164.02,28.449 167.854,17.6156 171,6.5C 172.752,3.58842 174.918,1.25509 177.5,-0.5 Z"/></g>
<g><path style="opacity:0.004" fill="#121212" d="M 180.5,-0.5 C 181.167,-0.5 181.833,-0.5 182.5,-0.5C 182.5,0.166667 182.5,0.833333 182.5,1.5C 181.833,1.5 181.5,1.83333 181.5,2.5C 180.833,2.5 180.167,2.5 179.5,2.5C 179.5,2.16667 179.5,1.83333 179.5,1.5C 180.338,1.15829 180.672,0.491622 180.5,-0.5 Z"/></g>
<g><path style="opacity:0.046" fill="#020202" d="M 182.5,1.5 C 184.582,1.47199 186.416,2.13865 188,3.5C 192.318,15.4616 196.818,27.2949 201.5,39C 213.763,40.2734 226.097,40.94 238.5,41C 244.241,43.1825 246.408,47.3492 245,53.5C 238.707,63.8679 229.54,68.8679 217.5,68.5C 214.287,68.81 211.287,68.4767 208.5,67.5C 215.795,62.1787 223.129,56.8454 230.5,51.5C 230.833,52.8333 231.167,52.8333 231.5,51.5C 231.833,50.5 232.5,49.8333 233.5,49.5C 233.833,50.8333 234.167,50.8333 234.5,49.5C 235.492,49.6716 236.158,49.3382 236.5,48.5C 237.167,48.5 237.5,48.1667 237.5,47.5C 238.167,47.5 238.5,47.1667 238.5,46.5C 238.5,45.8333 238.833,45.5 239.5,45.5C 240.644,46.1826 240.644,45.8493 239.5,44.5C 239.167,44.5 238.833,44.5 238.5,44.5C 239.859,42.9907 239.359,42.324 237,42.5C 222.781,43.8104 208.614,43.8104 194.5,42.5C 194.167,42.5 193.833,42.5 193.5,42.5C 193.5,42.1667 193.5,41.8333 193.5,41.5C 194.644,40.1507 194.644,39.8174 193.5,40.5C 192.662,40.1583 192.328,39.4916 192.5,38.5C 191.596,37.791 191.263,36.791 191.5,35.5C 192.644,34.1507 192.644,33.8174 191.5,34.5C 190.662,34.1583 190.328,33.4916 190.5,32.5C 191.644,31.1507 191.644,30.8174 190.5,31.5C 189.662,31.1583 189.328,30.4916 189.5,29.5C 190.833,28.8333 190.833,28.1667 189.5,27.5C 188.833,27.5 188.5,27.1667 188.5,26.5C 189.644,25.1507 189.644,24.8174 188.5,25.5C 187.662,25.1583 187.328,24.4916 187.5,23.5C 188.833,22.8333 188.833,22.1667 187.5,21.5C 186.833,21.5 186.5,21.1667 186.5,20.5C 187.833,19.8333 187.833,19.1667 186.5,18.5C 185.833,18.5 185.5,18.1667 185.5,17.5C 186.833,16.5 186.833,15.5 185.5,14.5C 185.737,13.209 185.404,12.209 184.5,11.5C 184.737,10.209 184.404,9.20895 183.5,8.5C 183.737,7.20895 183.404,6.20895 182.5,5.5C 182.5,4.16667 182.5,2.83333 182.5,1.5 Z"/></g>
<g><path style="opacity:1" fill="#0e3e99" d="M 187.5,39.5 C 185.897,39.3118 184.563,39.8118 183.5,41C 184.76,42.8138 184.76,44.6471 183.5,46.5C 177.649,52.5166 171.983,58.6833 166.5,65C 165.216,65.6838 164.049,65.5171 163,64.5C 161.981,65.6872 160.814,66.6872 159.5,67.5C 157.641,65.8076 155.641,64.3076 153.5,63C 152.563,62.3083 151.897,62.475 151.5,63.5C 145.377,59.2167 139.377,54.7167 133.5,50C 145.167,49.6667 156.833,49.3333 168.5,49C 171.941,38.0098 175.774,27.1765 180,16.5C 182.971,23.9153 185.471,31.582 187.5,39.5 Z"/></g>
<g><path style="opacity:0.73" fill="#9d9d9d" d="M 165.5,43.5 C 165.833,43.5 166.167,43.5 166.5,43.5C 152.028,45.1612 137.362,46.1612 122.5,46.5C 122.167,46.5 121.833,46.5 121.5,46.5C 121.5,46.1667 121.5,45.8333 121.5,45.5C 121.5,44.8333 121.833,44.5 122.5,44.5C 137.01,44.8293 151.343,44.4959 165.5,43.5 Z"/></g>
<g><path style="opacity:1" fill="#063ea5" d="M 187.5,39.5 C 188.167,40.5 188.833,41.5 189.5,42.5C 189.674,44.861 190.007,47.1944 190.5,49.5C 202.505,49.3335 214.505,49.5001 226.5,50C 225.307,51.0946 223.973,51.928 222.5,52.5C 213.087,50.8708 203.753,51.3708 194.5,54C 185.87,64.2984 176.87,74.2984 167.5,84C 170.648,82.9242 173.648,81.5909 176.5,80C 173.317,83.0155 170.317,86.1822 167.5,89.5C 169.215,89.4039 170.881,89.4039 172.5,89.5C 165.785,94.6129 158.952,99.6129 152,104.5C 154.422,93.3876 157.589,82.3876 161.5,71.5C 158.461,68.4602 155.127,65.7935 151.5,63.5C 151.897,62.475 152.563,62.3083 153.5,63C 155.641,64.3076 157.641,65.8076 159.5,67.5C 160.814,66.6872 161.981,65.6872 163,64.5C 164.049,65.5171 165.216,65.6838 166.5,65C 171.983,58.6833 177.649,52.5166 183.5,46.5C 184.76,44.6471 184.76,42.8138 183.5,41C 184.563,39.8118 185.897,39.3118 187.5,39.5 Z"/></g>
<g><path style="opacity:1" fill="#0e409a" d="M 222.5,52.5 C 215.414,58.2226 208.08,63.7226 200.5,69C 199.426,69.7387 198.759,70.7387 198.5,72C 202.458,82.7082 205.624,93.5416 208,104.5C 198.9,98.3662 190.067,91.8662 181.5,85C 179.021,84.6381 177.021,85.4714 175.5,87.5C 174.5,88.1667 173.5,88.8333 172.5,89.5C 170.881,89.4039 169.215,89.4039 167.5,89.5C 170.317,86.1822 173.317,83.0155 176.5,80C 173.648,81.5909 170.648,82.9242 167.5,84C 176.87,74.2984 185.87,64.2984 194.5,54C 203.753,51.3708 213.087,50.8708 222.5,52.5 Z"/></g>
<g><path style="opacity:1" fill="#777777" d="M 208.5,67.5 C 211.287,68.4767 214.287,68.81 217.5,68.5C 221.371,68.185 225.038,68.5184 228.5,69.5C 225.833,69.5 223.167,69.5 220.5,69.5C 214.269,68.8531 209.102,70.8531 205,75.5C 203.56,74.0696 203.226,72.403 204,70.5C 205.615,69.6138 207.115,68.6138 208.5,67.5 Z"/></g>
<g><path style="opacity:0.963" fill="#eeeeee" d="M 220.5,69.5 C 223.167,69.5 225.833,69.5 228.5,69.5C 238.444,69.7829 248.111,71.1163 257.5,73.5C 251.028,77.8553 244.028,80.5219 236.5,81.5C 228.81,80.9109 221.143,80.2442 213.5,79.5C 212.737,78.7321 211.737,78.2321 210.5,78C 212.921,75.9063 215.588,74.2396 218.5,73C 219.823,72.1841 220.489,71.0174 220.5,69.5 Z"/></g>
<g><path style="opacity:0.98" fill="#a4a5a5" d="M 131.5,69.5 C 134.5,69.5 137.5,69.5 140.5,69.5C 134.24,71.1227 128.24,73.6227 122.5,77C 119.124,78.5403 116.791,80.3736 115.5,82.5C 108.15,83.7609 100.817,85.0942 93.5,86.5C 91.139,86.6741 88.8056,87.0074 86.5,87.5C 85.1266,87.6567 83.7932,87.49 82.5,87C 90.4474,81.7111 98.4474,76.8777 106.5,72.5C 114.749,70.9273 123.082,69.9273 131.5,69.5 Z"/></g>
<g><path style="opacity:1" fill="#b3b2b1" d="M 189.5,42.5 C 190.397,43.5981 191.23,43.5981 192,42.5C 192.779,45.0972 193.279,45.0972 193.5,42.5C 193.833,42.5 194.167,42.5 194.5,42.5C 208.795,44.4833 223.462,45.1499 238.5,44.5C 238.833,44.5 239.167,44.5 239.5,44.5C 239.5,44.8333 239.5,45.1667 239.5,45.5C 238.833,45.5 238.5,45.8333 238.5,46.5C 237.833,46.5 237.5,46.8333 237.5,47.5C 236.833,47.5 236.5,47.8333 236.5,48.5C 235.508,48.3284 234.842,48.6618 234.5,49.5C 234.167,49.5 233.833,49.5 233.5,49.5C 232.5,49.8333 231.833,50.5 231.5,51.5C 231.167,51.5 230.833,51.5 230.5,51.5C 223.129,56.8454 215.795,62.1787 208.5,67.5C 207.115,68.6138 205.615,69.6138 204,70.5C 203.226,72.403 203.56,74.0696 205,75.5C 209.102,70.8531 214.269,68.8531 220.5,69.5C 220.489,71.0174 219.823,72.1841 218.5,73C 215.588,74.2396 212.921,75.9063 210.5,78C 211.737,78.2321 212.737,78.7321 213.5,79.5C 210.813,79.3359 208.146,79.5026 205.5,80C 206.109,81.9483 206.776,83.7816 207.5,85.5C 210.676,94.3603 213.676,103.36 216.5,112.5C 216.167,112.833 215.833,113.167 215.5,113.5C 203.791,104.654 191.791,96.3207 179.5,88.5C 178.207,88.1254 176.874,87.7921 175.5,87.5C 177.021,85.4714 179.021,84.6381 181.5,85C 190.067,91.8662 198.9,98.3662 208,104.5C 205.624,93.5416 202.458,82.7082 198.5,72C 198.759,70.7387 199.426,69.7387 200.5,69C 208.08,63.7226 215.414,58.2226 222.5,52.5C 223.973,51.928 225.307,51.0946 226.5,50C 214.505,49.5001 202.505,49.3335 190.5,49.5C 190.007,47.1944 189.674,44.861 189.5,42.5 Z"/></g>
<g><path style="opacity:1" fill="#787879" d="M 140.5,69.5 C 142.527,69.3379 144.527,69.5045 146.5,70C 144.21,73.6578 141.21,76.6578 137.5,79C 130.238,80.6575 122.905,81.8242 115.5,82.5C 116.791,80.3736 119.124,78.5403 122.5,77C 128.24,73.6227 134.24,71.1227 140.5,69.5 Z"/></g>
<g><path style="opacity:1" fill="#ababac" d="M 257.5,73.5 C 261.924,73.652 266.257,74.3187 270.5,75.5C 266.763,78.2134 262.763,80.7134 258.5,83C 256.19,83.4966 253.857,83.6633 251.5,83.5C 246.306,83.2593 241.306,82.5926 236.5,81.5C 244.028,80.5219 251.028,77.8553 257.5,73.5 Z"/></g>
<g><path style="opacity:1" fill="#808081" d="M 270.5,75.5 C 277.762,76.5482 284.762,78.2149 291.5,80.5C 286.963,82.9301 282.63,85.5968 278.5,88.5C 269.365,86.924 260.365,85.2573 251.5,83.5C 253.857,83.6633 256.19,83.4966 258.5,83C 262.763,80.7134 266.763,78.2134 270.5,75.5 Z"/></g>
<g><path style="opacity:1" fill="#828283" d="M 106.5,72.5 C 98.4474,76.8777 90.4474,81.7111 82.5,87C 83.7932,87.49 85.1266,87.6567 86.5,87.5C 82.3933,88.2021 78.3933,89.5355 74.5,91.5C 74.5654,91.0618 74.3988,90.7284 74,90.5C 70.7391,93.2161 67.5724,96.0494 64.5,99C 62.9751,100.009 61.3084,100.509 59.5,100.5C 61.0901,93.564 63.7568,87.064 67.5,81C 80.2606,77.0952 93.2606,74.2618 106.5,72.5 Z"/></g>
<g><path style="opacity:1" fill="#505052" d="M 131.5,69.5 C 134.962,68.5184 138.629,68.185 142.5,68.5C 145.833,68.5 149.167,68.5 152.5,68.5C 154.729,69.0553 156.395,70.3886 157.5,72.5C 156.011,76.1296 154.678,79.7963 153.5,83.5C 140.092,84.1762 126.759,85.5095 113.5,87.5C 106.843,87.4706 100.176,87.1372 93.5,86.5C 100.817,85.0942 108.15,83.7609 115.5,82.5C 122.905,81.8242 130.238,80.6575 137.5,79C 141.21,76.6578 144.21,73.6578 146.5,70C 144.527,69.5045 142.527,69.3379 140.5,69.5C 137.5,69.5 134.5,69.5 131.5,69.5 Z"/></g>
<g><path style="opacity:1" fill="#033895" d="M 153.5,83.5 C 150.193,92.7272 147.193,102.061 144.5,111.5C 143.295,110.328 143.295,108.995 144.5,107.5C 144.023,106.522 143.357,105.689 142.5,105C 143.576,103.274 143.743,101.441 143,99.5C 118.636,108.684 94.6358,118.684 71,129.5C 70.5065,127.866 70.3398,126.199 70.5,124.5C 70.5,122.833 70.5,121.167 70.5,119.5C 72.1996,110.569 75.1996,102.069 79.5,94C 90.7796,91.4137 102.113,89.247 113.5,87.5C 126.759,85.5095 140.092,84.1762 153.5,83.5 Z"/></g>
<g><path style="opacity:1" fill="#1d1c21" d="M 284.5,99.5 C 287.973,108.858 290.306,118.525 291.5,128.5C 291.662,130.527 291.495,132.527 291,134.5C 290.586,134.043 290.086,133.709 289.5,133.5C 286.352,135.319 283.019,136.652 279.5,137.5C 279.663,139.857 279.497,142.19 279,144.5C 278.814,141.964 278.314,139.631 277.5,137.5C 275.996,133.467 272.996,131.3 268.5,131C 261.174,130.5 253.841,130.334 246.5,130.5C 246.5,132.833 246.5,135.167 246.5,137.5C 247.5,137.5 248.5,137.5 249.5,137.5C 249.5,145.167 249.5,152.833 249.5,160.5C 248.5,160.5 247.5,160.5 246.5,160.5C 245.686,162.631 245.186,164.964 245,167.5C 244,163.5 243,163.5 242,167.5C 241.824,163.312 241.324,159.312 240.5,155.5C 237.5,155.5 234.5,155.5 231.5,155.5C 231.5,157.167 231.5,158.833 231.5,160.5C 228.833,160.5 226.167,160.5 223.5,160.5C 223.5,157.833 223.5,155.167 223.5,152.5C 226.833,152.5 230.167,152.5 233.5,152.5C 233.5,149.833 233.5,147.167 233.5,144.5C 230.167,144.5 226.833,144.5 223.5,144.5C 223.5,142.167 223.5,139.833 223.5,137.5C 226.167,137.5 228.833,137.5 231.5,137.5C 231.5,139.167 231.5,140.833 231.5,142.5C 234.5,142.5 237.5,142.5 240.5,142.5C 240.5,138.833 240.5,135.167 240.5,131.5C 230.013,130.506 219.346,130.172 208.5,130.5C 208.198,133.059 208.532,135.393 209.5,137.5C 210.5,137.5 211.5,137.5 212.5,137.5C 212.5,145.167 212.5,152.833 212.5,160.5C 211.5,160.5 210.5,160.5 209.5,160.5C 208.527,162.948 208.194,165.615 208.5,168.5C 215.5,168.5 222.5,168.5 229.5,168.5C 223.013,169.328 216.346,169.828 209.5,170C 199.044,174.754 188.711,179.587 178.5,184.5C 178.5,189.5 178.5,194.5 178.5,199.5C 178.167,199.5 177.833,199.5 177.5,199.5C 177.5,188.833 177.5,178.167 177.5,167.5C 183.167,167.5 188.833,167.5 194.5,167.5C 195.468,165.393 195.802,163.059 195.5,160.5C 194.167,160.5 192.833,160.5 191.5,160.5C 191.5,152.833 191.5,145.167 191.5,137.5C 192.833,137.5 194.167,137.5 195.5,137.5C 195.5,139.833 195.5,142.167 195.5,144.5C 198.167,144.5 200.833,144.5 203.5,144.5C 203.5,140.167 203.5,135.833 203.5,131.5C 195.016,130.507 186.349,130.174 177.5,130.5C 177.5,117.167 177.5,103.833 177.5,90.5C 177.833,89.5 178.5,88.8333 179.5,88.5C 191.791,96.3207 203.791,104.654 215.5,113.5C 215.833,113.167 216.167,112.833 216.5,112.5C 213.676,103.36 210.676,94.3603 207.5,85.5C 211.311,84.3547 215.311,84.1881 219.5,85C 240.814,86.7881 261.814,90.2881 282.5,95.5C 282.994,97.0255 283.661,98.3588 284.5,99.5 Z"/></g>
<g><path style="opacity:1" fill="#656566" d="M 93.5,86.5 C 100.176,87.1372 106.843,87.4706 113.5,87.5C 102.113,89.247 90.7796,91.4137 79.5,94C 75.1996,102.069 72.1996,110.569 70.5,119.5C 69.3172,119.844 68.4839,119.178 68,117.5C 67.2432,119.315 66.4098,120.981 65.5,122.5C 65.5654,122.062 65.3988,121.728 65,121.5C 62.2536,124.877 58.9203,127.543 55,129.5C 54.7216,128.584 54.2216,127.918 53.5,127.5C 53.9926,125.194 54.3259,122.861 54.5,120.5C 58.8242,119.117 62.9909,117.45 67,115.5C 69.0247,107.264 71.5247,99.2643 74.5,91.5C 78.3933,89.5355 82.3933,88.2021 86.5,87.5C 88.8056,87.0074 91.139,86.6741 93.5,86.5 Z"/></g>
<g><path style="opacity:1" fill="#56575b" d="M 213.5,79.5 C 221.143,80.2442 228.81,80.9109 236.5,81.5C 241.306,82.5926 246.306,83.2593 251.5,83.5C 260.365,85.2573 269.365,86.924 278.5,88.5C 285.231,88.9242 288.564,92.5909 288.5,99.5C 288.631,100.239 288.464,100.906 288,101.5C 287,100.167 286,98.8333 285,97.5C 284.536,98.0944 284.369,98.7611 284.5,99.5C 283.661,98.3588 282.994,97.0255 282.5,95.5C 261.814,90.2881 240.814,86.7881 219.5,85C 215.311,84.1881 211.311,84.3547 207.5,85.5C 206.776,83.7816 206.109,81.9483 205.5,80C 208.146,79.5026 210.813,79.3359 213.5,79.5 Z"/></g>
<g><path style="opacity:1" fill="#9e9f9f" d="M 291.5,80.5 C 295.45,84.729 298.117,89.729 299.5,95.5C 297.4,98.8835 294.567,101.55 291,103.5C 290.066,102.142 289.232,100.808 288.5,99.5C 288.564,92.5909 285.231,88.9242 278.5,88.5C 282.63,85.5968 286.963,82.9301 291.5,80.5 Z"/></g>
<g><path style="opacity:0.981" fill="#a3a4a4" d="M 74.5,91.5 C 71.5247,99.2643 69.0247,107.264 67,115.5C 62.9909,117.45 58.8242,119.117 54.5,120.5C 55.8573,113.738 57.5239,107.071 59.5,100.5C 61.3084,100.509 62.9751,100.009 64.5,99C 67.5724,96.0494 70.7391,93.2161 74,90.5C 74.3988,90.7284 74.5654,91.0618 74.5,91.5 Z"/></g>
<g><path style="opacity:1" fill="#11377e" d="M 177.5,90.5 C 177.5,103.833 177.5,117.167 177.5,130.5C 177.167,130.5 176.833,130.5 176.5,130.5C 176.667,119.162 176.5,107.828 176,96.5C 168.666,101.902 161.499,107.402 154.5,113C 151.44,114.663 148.44,114.83 145.5,113.5C 156.129,105.846 166.796,98.1788 177.5,90.5 Z"/></g>
<g><path style="opacity:1" fill="#d3d2d2" d="M 179.5,2.5 C 180.167,2.5 180.833,2.5 181.5,2.5C 181.263,3.79105 181.596,4.79105 182.5,5.5C 182.263,6.79105 182.596,7.79105 183.5,8.5C 183.263,9.79105 183.596,10.791 184.5,11.5C 184.263,12.791 184.596,13.791 185.5,14.5C 185.5,15.5 185.5,16.5 185.5,17.5C 185.5,18.1667 185.833,18.5 186.5,18.5C 186.5,19.1667 186.5,19.8333 186.5,20.5C 186.5,21.1667 186.833,21.5 187.5,21.5C 187.5,22.1667 187.5,22.8333 187.5,23.5C 187.328,24.4916 187.662,25.1583 188.5,25.5C 188.5,25.8333 188.5,26.1667 188.5,26.5C 188.5,27.1667 188.833,27.5 189.5,27.5C 189.5,28.1667 189.5,28.8333 189.5,29.5C 189.328,30.4916 189.662,31.1583 190.5,31.5C 190.5,31.8333 190.5,32.1667 190.5,32.5C 190.328,33.4916 190.662,34.1583 191.5,34.5C 191.5,34.8333 191.5,35.1667 191.5,35.5C 191.263,36.791 191.596,37.791 192.5,38.5C 192.328,39.4916 192.662,40.1583 193.5,40.5C 193.5,40.8333 193.5,41.1667 193.5,41.5C 193.5,41.8333 193.5,42.1667 193.5,42.5C 193.279,45.0972 192.779,45.0972 192,42.5C 191.23,43.5981 190.397,43.5981 189.5,42.5C 188.833,41.5 188.167,40.5 187.5,39.5C 185.471,31.582 182.971,23.9153 180,16.5C 175.774,27.1765 171.941,38.0098 168.5,49C 156.833,49.3333 145.167,49.6667 133.5,50C 139.377,54.7167 145.377,59.2167 151.5,63.5C 155.127,65.7935 158.461,68.4602 161.5,71.5C 157.589,82.3876 154.422,93.3876 152,104.5C 158.952,99.6129 165.785,94.6129 172.5,89.5C 173.5,88.8333 174.5,88.1667 175.5,87.5C 176.874,87.7921 178.207,88.1254 179.5,88.5C 178.5,88.8333 177.833,89.5 177.5,90.5C 166.796,98.1788 156.129,105.846 145.5,113.5C 144.833,113.833 144.167,114.167 143.5,114.5C 143.557,113.391 143.89,112.391 144.5,111.5C 147.193,102.061 150.193,92.7272 153.5,83.5C 154.678,79.7963 156.011,76.1296 157.5,72.5C 156.395,70.3886 154.729,69.0553 152.5,68.5C 152.167,67.5 151.5,66.8333 150.5,66.5C 143.802,61.1442 136.802,56.1442 129.5,51.5C 129.167,51.5 128.833,51.5 128.5,51.5C 127.833,51.5 127.5,51.1667 127.5,50.5C 127.158,49.6618 126.492,49.3284 125.5,49.5C 124.833,49.5 124.5,49.1667 124.5,48.5C 123.833,48.5 123.5,48.1667 123.5,47.5C 123.5,46.8333 123.167,46.5 122.5,46.5C 137.362,46.1612 152.028,45.1612 166.5,43.5C 166.5,42.8333 166.5,42.1667 166.5,41.5C 167.167,41.5 167.5,41.1667 167.5,40.5C 167.5,39.5 167.5,38.5 167.5,37.5C 168.338,37.1583 168.672,36.4916 168.5,35.5C 169.167,35.5 169.5,35.1667 169.5,34.5C 169.5,33.8333 169.5,33.1667 169.5,32.5C 170.338,32.1583 170.672,31.4916 170.5,30.5C 170.5,29.8333 170.5,29.1667 170.5,28.5C 171.338,28.1583 171.672,27.4916 171.5,26.5C 172.338,26.1583 172.672,25.4916 172.5,24.5C 172.5,24.1667 172.5,23.8333 172.5,23.5C 173.338,23.1583 173.672,22.4916 173.5,21.5C 173.5,21.1667 173.5,20.8333 173.5,20.5C 174.338,20.1583 174.672,19.4916 174.5,18.5C 174.5,18.1667 174.5,17.8333 174.5,17.5C 175.338,17.1583 175.672,16.4916 175.5,15.5C 175.5,14.8333 175.5,14.1667 175.5,13.5C 176.434,12.4324 176.768,11.099 176.5,9.5C 177.945,7.42934 178.945,5.09601 179.5,2.5 Z"/></g>
<g><path style="opacity:1" fill="#828283" d="M 299.5,95.5 C 301.475,101.4 303.142,107.4 304.5,113.5C 298.559,111.85 295.226,114.184 294.5,120.5C 294.541,123.331 295.208,125.998 296.5,128.5C 299.003,127.036 301.67,125.869 304.5,125C 305.066,124.005 305.733,123.172 306.5,122.5C 306.575,125.206 306.908,127.873 307.5,130.5C 304.451,132.691 301.118,134.358 297.5,135.5C 297.5,138.5 297.5,141.5 297.5,144.5C 296.691,142.708 296.191,140.708 296,138.5C 295.667,139.833 295.333,141.167 295,142.5C 294.667,140.167 294.333,137.833 294,135.5C 293.506,137.134 293.34,138.801 293.5,140.5C 292.833,136.5 292.167,132.5 291.5,128.5C 290.306,118.525 287.973,108.858 284.5,99.5C 284.369,98.7611 284.536,98.0944 285,97.5C 286,98.8333 287,100.167 288,101.5C 288.464,100.906 288.631,100.239 288.5,99.5C 289.232,100.808 290.066,102.142 291,103.5C 294.567,101.55 297.4,98.8835 299.5,95.5 Z"/></g>
<g><path style="opacity:1" fill="#18499e" d="M 176.5,130.5 C 173.833,130.5 171.167,130.5 168.5,130.5C 168.5,135.167 168.5,139.833 168.5,144.5C 167.674,140.018 167.174,135.351 167,130.5C 165.749,140.796 164.249,140.796 162.5,130.5C 159.167,130.5 155.833,130.5 152.5,130.5C 152.737,131.791 152.404,132.791 151.5,133.5C 143.361,127.46 136.195,128.46 130,136.5C 129.503,138.81 129.337,141.143 129.5,143.5C 128.698,142.048 128.198,140.382 128,138.5C 127.505,140.473 127.338,142.473 127.5,144.5C 123.683,144.991 120.517,146.658 118,149.5C 117.25,146.253 116.084,143.92 114.5,142.5C 113.025,138.969 111.692,135.302 110.5,131.5C 110.5,131.167 110.5,130.833 110.5,130.5C 106.956,128.732 102.956,127.898 98.5,128C 111.855,122.07 125.355,116.57 139,111.5C 139.918,113.376 141.418,114.376 143.5,114.5C 144.167,114.167 144.833,113.833 145.5,113.5C 148.44,114.83 151.44,114.663 154.5,113C 161.499,107.402 168.666,101.902 176,96.5C 176.5,107.828 176.667,119.162 176.5,130.5 Z"/></g>
<g><path style="opacity:1" fill="#0c419a" d="M 144.5,111.5 C 143.89,112.391 143.557,113.391 143.5,114.5C 141.418,114.376 139.918,113.376 139,111.5C 125.355,116.57 111.855,122.07 98.5,128C 102.956,127.898 106.956,128.732 110.5,130.5C 103.5,130.5 96.5,130.5 89.5,130.5C 89.5,132.833 89.5,135.167 89.5,137.5C 88.8365,135.958 88.1698,134.291 87.5,132.5C 82.0238,134.935 76.5238,137.268 71,139.5C 69.6253,137.063 69.1253,134.397 69.5,131.5C 69.1984,128.941 69.5318,126.607 70.5,124.5C 70.3398,126.199 70.5065,127.866 71,129.5C 94.6358,118.684 118.636,108.684 143,99.5C 143.743,101.441 143.576,103.274 142.5,105C 143.357,105.689 144.023,106.522 144.5,107.5C 143.295,108.995 143.295,110.328 144.5,111.5 Z"/></g>
<g><path style="opacity:0.975" fill="#a7a8a8" d="M 304.5,113.5 C 305.062,116.546 305.729,119.546 306.5,122.5C 305.733,123.172 305.066,124.005 304.5,125C 301.67,125.869 299.003,127.036 296.5,128.5C 295.208,125.998 294.541,123.331 294.5,120.5C 295.226,114.184 298.559,111.85 304.5,113.5 Z"/></g>
<g><path style="opacity:1" fill="#949494" d="M 70.5,119.5 C 70.5,121.167 70.5,122.833 70.5,124.5C 69.5318,126.607 69.1984,128.941 69.5,131.5C 68.8333,134.167 68.1667,136.833 67.5,139.5C 67.631,138.761 67.4643,138.094 67,137.5C 66.5065,139.134 66.3398,140.801 66.5,142.5C 65.5,142.5 64.5,142.5 63.5,142.5C 64.297,135.848 64.9636,129.181 65.5,122.5C 66.4098,120.981 67.2432,119.315 68,117.5C 68.4839,119.178 69.3172,119.844 70.5,119.5 Z"/></g>
<g><path style="opacity:1" fill="#acb8c4" d="M 110.5,130.5 C 110.5,130.833 110.5,131.167 110.5,131.5C 103.833,131.5 97.1667,131.5 90.5,131.5C 90.5,133.5 90.5,135.5 90.5,137.5C 90.1667,137.5 89.8333,137.5 89.5,137.5C 89.5,135.167 89.5,132.833 89.5,130.5C 96.5,130.5 103.5,130.5 110.5,130.5 Z"/></g>
<g><path style="opacity:1" fill="#bcbdb9" d="M 240.5,131.5 C 230.167,131.5 219.833,131.5 209.5,131.5C 209.5,133.5 209.5,135.5 209.5,137.5C 208.532,135.393 208.198,133.059 208.5,130.5C 219.346,130.172 230.013,130.506 240.5,131.5 Z"/></g>
<g><path style="opacity:1" fill="#8599b3" d="M 162.5,130.5 C 162.5,135.167 162.5,139.833 162.5,144.5C 158.958,144.813 155.625,144.479 152.5,143.5C 155.5,143.5 158.5,143.5 161.5,143.5C 161.5,139.5 161.5,135.5 161.5,131.5C 158.833,131.5 156.167,131.5 153.5,131.5C 153.719,132.675 153.386,133.675 152.5,134.5C 151.893,134.376 151.56,134.043 151.5,133.5C 152.404,132.791 152.737,131.791 152.5,130.5C 155.833,130.5 159.167,130.5 162.5,130.5 Z"/></g>
<g><path style="opacity:1" fill="#dbddd4" d="M 203.5,131.5 C 203.5,135.833 203.5,140.167 203.5,144.5C 200.833,144.5 198.167,144.5 195.5,144.5C 195.5,142.167 195.5,139.833 195.5,137.5C 194.167,137.5 192.833,137.5 191.5,137.5C 191.5,145.167 191.5,152.833 191.5,160.5C 192.833,160.5 194.167,160.5 195.5,160.5C 195.802,163.059 195.468,165.393 194.5,167.5C 190.144,161.948 186.311,155.948 183,149.5C 182.667,153.167 182.333,156.833 182,160.5C 181.186,152.587 181.353,144.754 182.5,137C 182.004,135.004 181.004,133.337 179.5,132C 187.493,131.5 195.493,131.334 203.5,131.5 Z"/></g>
<g><path style="opacity:1" fill="#e8eae0" d="M 277.5,137.5 C 278.729,142.742 277.063,146.575 272.5,149C 276.586,151.72 278.586,155.553 278.5,160.5C 279.429,159.311 279.762,157.978 279.5,156.5C 280.833,156.5 282.167,156.5 283.5,156.5C 284.133,166.854 279.467,170.521 269.5,167.5C 266.333,163.836 264.833,159.503 265,154.5C 263.89,152.963 262.39,152.297 260.5,152.5C 260.5,155.167 260.5,157.833 260.5,160.5C 261.5,160.5 262.5,160.5 263.5,160.5C 263.5,162.833 263.5,165.167 263.5,167.5C 257.833,167.5 252.167,167.5 246.5,167.5C 246.5,165.167 246.5,162.833 246.5,160.5C 247.5,160.5 248.5,160.5 249.5,160.5C 249.5,152.833 249.5,145.167 249.5,137.5C 248.5,137.5 247.5,137.5 246.5,137.5C 246.5,135.167 246.5,132.833 246.5,130.5C 253.841,130.334 261.174,130.5 268.5,131C 272.996,131.3 275.996,133.467 277.5,137.5 Z"/></g>
<g><path style="opacity:1" fill="#babbb5" d="M 176.5,130.5 C 176.833,130.5 177.167,130.5 177.5,130.5C 186.349,130.174 195.016,130.507 203.5,131.5C 195.493,131.334 187.493,131.5 179.5,132C 181.004,133.337 182.004,135.004 182.5,137C 181.353,144.754 181.186,152.587 182,160.5C 182.333,156.833 182.667,153.167 183,149.5C 186.311,155.948 190.144,161.948 194.5,167.5C 188.833,167.5 183.167,167.5 177.5,167.5C 177.167,167.5 176.833,167.5 176.5,167.5C 176.198,164.941 176.532,162.607 177.5,160.5C 178.5,160.5 179.5,160.5 180.5,160.5C 180.5,152.833 180.5,145.167 180.5,137.5C 178.901,137.232 177.568,137.566 176.5,138.5C 176.5,140.5 176.5,142.5 176.5,144.5C 173.833,144.5 171.167,144.5 168.5,144.5C 168.5,139.833 168.5,135.167 168.5,130.5C 171.167,130.5 173.833,130.5 176.5,130.5 Z"/></g>
<g><path style="opacity:0.976" fill="#4d4e4e" d="M 65.5,122.5 C 64.9636,129.181 64.297,135.848 63.5,142.5C 62.6739,147.316 62.1739,152.316 62,157.5C 61.586,157.043 61.086,156.709 60.5,156.5C 57.2993,158.262 54.2993,160.262 51.5,162.5C 51.2301,150.768 51.8968,139.102 53.5,127.5C 54.2216,127.918 54.7216,128.584 55,129.5C 58.9203,127.543 62.2536,124.877 65,121.5C 65.3988,121.728 65.5654,122.062 65.5,122.5 Z"/></g>
<g><path style="opacity:1" fill="#17489e" d="M 69.5,131.5 C 69.1253,134.397 69.6253,137.063 71,139.5C 76.5238,137.268 82.0238,134.935 87.5,132.5C 88.1698,134.291 88.8365,135.958 89.5,137.5C 89.8333,137.5 90.1667,137.5 90.5,137.5C 91.0431,137.56 91.3764,137.893 91.5,138.5C 89.1855,145.759 87.1855,153.092 85.5,160.5C 84.1667,160.5 82.8333,160.5 81.5,160.5C 81.5,162.833 81.5,165.167 81.5,167.5C 87.1667,167.5 92.8333,167.5 98.5,167.5C 92.4326,168.185 86.2659,168.851 80,169.5C 79.586,169.043 79.086,168.709 78.5,168.5C 75.6066,169.74 72.7733,171.074 70,172.5C 69.6667,171.167 69.3333,169.833 69,168.5C 68.5045,170.473 68.3379,172.473 68.5,174.5C 67.6618,174.158 67.3284,173.492 67.5,172.5C 67.5,161.5 67.5,150.5 67.5,139.5C 68.1667,136.833 68.8333,134.167 69.5,131.5 Z"/></g>
<g><path style="opacity:1" fill="#1a171a" d="M 176.5,138.5 C 177.568,137.566 178.901,137.232 180.5,137.5C 180.5,145.167 180.5,152.833 180.5,160.5C 179.5,160.5 178.5,160.5 177.5,160.5C 177.825,152.981 177.492,145.648 176.5,138.5 Z"/></g>
<g><path style="opacity:1" fill="#1c1c20" d="M 260.5,137.5 C 267.486,137.331 269.153,140.164 265.5,146C 263.866,146.494 262.199,146.66 260.5,146.5C 260.5,143.5 260.5,140.5 260.5,137.5 Z"/></g>
<g><path style="opacity:1" fill="#e8ebe1" d="M 110.5,131.5 C 111.692,135.302 113.025,138.969 114.5,142.5C 115.683,148.246 117.183,153.913 119,159.5C 120.356,160.38 121.856,160.714 123.5,160.5C 123.5,162.833 123.5,165.167 123.5,167.5C 116.5,167.5 109.5,167.5 102.5,167.5C 102.5,165.167 102.5,162.833 102.5,160.5C 103.833,160.5 105.167,160.5 106.5,160.5C 106.5,159.5 106.5,158.5 106.5,157.5C 102.5,157.5 98.5,157.5 94.5,157.5C 94.5,158.5 94.5,159.5 94.5,160.5C 95.8333,160.5 97.1667,160.5 98.5,160.5C 98.5,162.833 98.5,165.167 98.5,167.5C 92.8333,167.5 87.1667,167.5 81.5,167.5C 81.5,165.167 81.5,162.833 81.5,160.5C 82.8333,160.5 84.1667,160.5 85.5,160.5C 87.1855,153.092 89.1855,145.759 91.5,138.5C 91.3764,137.893 91.0431,137.56 90.5,137.5C 90.5,135.5 90.5,133.5 90.5,131.5C 97.1667,131.5 103.833,131.5 110.5,131.5 Z"/></g>
<g><path style="opacity:1" fill="#ecefe5" d="M 240.5,131.5 C 240.5,135.167 240.5,138.833 240.5,142.5C 237.5,142.5 234.5,142.5 231.5,142.5C 231.5,140.833 231.5,139.167 231.5,137.5C 228.833,137.5 226.167,137.5 223.5,137.5C 223.5,139.833 223.5,142.167 223.5,144.5C 226.287,145.477 229.287,145.81 232.5,145.5C 232.5,147.5 232.5,149.5 232.5,151.5C 229.167,151.5 225.833,151.5 222.5,151.5C 222.19,154.713 222.523,157.713 223.5,160.5C 226.167,160.5 228.833,160.5 231.5,160.5C 231.5,158.833 231.5,157.167 231.5,155.5C 234.5,155.5 237.5,155.5 240.5,155.5C 240.5,159.5 240.5,163.5 240.5,167.5C 230.167,167.5 219.833,167.5 209.5,167.5C 209.5,165.167 209.5,162.833 209.5,160.5C 210.5,160.5 211.5,160.5 212.5,160.5C 212.5,152.833 212.5,145.167 212.5,137.5C 211.5,137.5 210.5,137.5 209.5,137.5C 209.5,135.5 209.5,133.5 209.5,131.5C 219.833,131.5 230.167,131.5 240.5,131.5 Z"/></g>
<g><path style="opacity:0.993" fill="#525354" d="M 307.5,130.5 C 308.706,142.795 309.373,155.128 309.5,167.5C 308.262,166.588 306.928,166.421 305.5,167C 302.669,169.001 300.003,171.167 297.5,173.5C 297.5,163.833 297.5,154.167 297.5,144.5C 297.5,141.5 297.5,138.5 297.5,135.5C 301.118,134.358 304.451,132.691 307.5,130.5 Z"/></g>
<g><path style="opacity:1" fill="#969794" d="M 223.5,144.5 C 226.833,144.5 230.167,144.5 233.5,144.5C 233.5,147.167 233.5,149.833 233.5,152.5C 230.167,152.5 226.833,152.5 223.5,152.5C 223.5,155.167 223.5,157.833 223.5,160.5C 222.523,157.713 222.19,154.713 222.5,151.5C 225.833,151.5 229.167,151.5 232.5,151.5C 232.5,149.5 232.5,147.5 232.5,145.5C 229.287,145.81 226.287,145.477 223.5,144.5 Z"/></g>
<g><path style="opacity:1" fill="#24439b" d="M 99.5,140.5 C 101.858,143.243 103.191,146.577 103.5,150.5C 101.5,150.5 99.5,150.5 97.5,150.5C 98.3739,147.211 99.0405,143.877 99.5,140.5 Z"/></g>
<g><path style="opacity:1" fill="#04389a" d="M 162.5,130.5 C 164.249,140.796 165.749,140.796 167,130.5C 167.174,135.351 167.674,140.018 168.5,144.5C 171.167,144.5 173.833,144.5 176.5,144.5C 176.5,142.5 176.5,140.5 176.5,138.5C 177.492,145.648 177.825,152.981 177.5,160.5C 176.532,162.607 176.198,164.941 176.5,167.5C 175.839,168.718 175.172,170.051 174.5,171.5C 162.388,176.528 150.388,181.528 138.5,186.5C 134.435,184.722 130.101,184.055 125.5,184.5C 125.167,184.5 124.833,184.5 124.5,184.5C 123.671,191.321 123.171,198.321 123,205.5C 122.768,204.263 122.268,203.263 121.5,202.5C 118.593,201.386 118.093,199.719 120,197.5C 120.956,193.428 120.456,189.595 118.5,186C 117.255,185.209 115.922,184.709 114.5,184.5C 112.031,183.683 109.365,183.183 106.5,183C 118.873,179.819 130.873,175.485 142.5,170C 142,169.5 141.5,169 141,168.5C 136.921,169.629 132.755,169.796 128.5,169C 131.695,168.819 134.695,168.319 137.5,167.5C 138.268,166.737 138.768,165.737 139,164.5C 147.218,170.312 154.885,169.645 162,162.5C 164.717,155.42 162.55,150.253 155.5,147C 152.5,146 149.5,145 146.5,144C 143.294,143.375 142.294,141.709 143.5,139C 148.382,137.246 151.382,138.746 152.5,143.5C 155.625,144.479 158.958,144.813 162.5,144.5C 162.5,139.833 162.5,135.167 162.5,130.5 Z"/></g>
<g><path style="opacity:1" fill="#ebede5" d="M 151.5,133.5 C 151.56,134.043 151.893,134.376 152.5,134.5C 153.386,133.675 153.719,132.675 153.5,131.5C 156.167,131.5 158.833,131.5 161.5,131.5C 161.5,135.5 161.5,139.5 161.5,143.5C 158.5,143.5 155.5,143.5 152.5,143.5C 151.382,138.746 148.382,137.246 143.5,139C 142.294,141.709 143.294,143.375 146.5,144C 149.5,145 152.5,146 155.5,147C 162.55,150.253 164.717,155.42 162,162.5C 154.885,169.645 147.218,170.312 139,164.5C 138.768,165.737 138.268,166.737 137.5,167.5C 134.5,167.5 131.5,167.5 128.5,167.5C 128.5,163.167 128.5,158.833 128.5,154.5C 133.823,153.58 138.157,155.08 141.5,159C 143.5,159.667 145.5,159.667 147.5,159C 148.022,158.439 148.355,157.772 148.5,157C 143.674,154.524 138.674,152.191 133.5,150C 131.266,148.362 129.933,146.195 129.5,143.5C 129.337,141.143 129.503,138.81 130,136.5C 136.195,128.46 143.361,127.46 151.5,133.5 Z"/></g>
<g><path style="opacity:1" fill="#7d7d7e" d="M 63.5,142.5 C 63.6743,149.535 63.3409,156.535 62.5,163.5C 60.2166,163.608 58.2166,164.441 56.5,166C 55.1666,168.191 53.5,170.024 51.5,171.5C 51.5,168.5 51.5,165.5 51.5,162.5C 54.2993,160.262 57.2993,158.262 60.5,156.5C 61.086,156.709 61.586,157.043 62,157.5C 62.1739,152.316 62.6739,147.316 63.5,142.5 Z"/></g>
<g><path style="opacity:1" fill="#0c3d99" d="M 129.5,143.5 C 129.933,146.195 131.266,148.362 133.5,150C 138.674,152.191 143.674,154.524 148.5,157C 148.355,157.772 148.022,158.439 147.5,159C 145.5,159.667 143.5,159.667 141.5,159C 138.157,155.08 133.823,153.58 128.5,154.5C 128.5,158.833 128.5,163.167 128.5,167.5C 131.5,167.5 134.5,167.5 137.5,167.5C 134.695,168.319 131.695,168.819 128.5,169C 132.755,169.796 136.921,169.629 141,168.5C 141.5,169 142,169.5 142.5,170C 130.873,175.485 118.873,179.819 106.5,183C 109.365,183.183 112.031,183.683 114.5,184.5C 111.833,184.5 109.167,184.5 106.5,184.5C 106.5,194.833 106.5,205.167 106.5,215.5C 109.833,215.5 113.167,215.5 116.5,215.5C 113.038,216.482 109.371,216.815 105.5,216.5C 105.828,205.654 105.494,194.987 104.5,184.5C 94.3065,187.927 84.3065,191.927 74.5,196.5C 73.0295,195.619 72.1962,194.286 72,192.5C 71.6012,192.728 71.4346,193.062 71.5,193.5C 69.4919,187.457 68.4919,181.124 68.5,174.5C 68.3379,172.473 68.5045,170.473 69,168.5C 69.3333,169.833 69.6667,171.167 70,172.5C 72.7733,171.074 75.6066,169.74 78.5,168.5C 79.086,168.709 79.586,169.043 80,169.5C 86.2659,168.851 92.4326,168.185 98.5,167.5C 98.5,165.167 98.5,162.833 98.5,160.5C 97.1667,160.5 95.8333,160.5 94.5,160.5C 94.5,159.5 94.5,158.5 94.5,157.5C 98.5,157.5 102.5,157.5 106.5,157.5C 106.5,158.5 106.5,159.5 106.5,160.5C 105.167,160.5 103.833,160.5 102.5,160.5C 102.5,162.833 102.5,165.167 102.5,167.5C 109.5,167.5 116.5,167.5 123.5,167.5C 123.5,165.167 123.5,162.833 123.5,160.5C 121.856,160.714 120.356,160.38 119,159.5C 117.183,153.913 115.683,148.246 114.5,142.5C 116.084,143.92 117.25,146.253 118,149.5C 120.517,146.658 123.683,144.991 127.5,144.5C 127.338,142.473 127.505,140.473 128,138.5C 128.198,140.382 128.698,142.048 129.5,143.5 Z"/></g>
<g><path style="opacity:1" fill="#c5c5c6" d="M 67.5,139.5 C 67.5,150.5 67.5,161.5 67.5,172.5C 66.2248,176.102 65.2248,179.769 64.5,183.5C 64.373,179.738 63.7063,176.072 62.5,172.5C 58.9996,174.702 55.3329,176.368 51.5,177.5C 51.5,175.5 51.5,173.5 51.5,171.5C 53.5,170.024 55.1666,168.191 56.5,166C 58.2166,164.441 60.2166,163.608 62.5,163.5C 63.3409,156.535 63.6743,149.535 63.5,142.5C 64.5,142.5 65.5,142.5 66.5,142.5C 66.3398,140.801 66.5065,139.134 67,137.5C 67.4643,138.094 67.631,138.761 67.5,139.5 Z"/></g>
<g><path style="opacity:1" fill="#5f5d5e" d="M 249.5,194.5 C 250.161,185.672 246.161,182.505 237.5,185C 236.364,186.145 235.364,187.312 234.5,188.5C 233.681,191.305 233.181,194.305 233,197.5C 230.796,199.017 228.462,200.35 226,201.5C 225.667,200.167 225.333,198.833 225,197.5C 224.802,199.382 224.302,201.048 223.5,202.5C 223.5,200.833 223.5,199.167 223.5,197.5C 221.167,197.5 218.833,197.5 216.5,197.5C 216.5,194.5 216.5,191.5 216.5,188.5C 219.5,188.5 222.5,188.5 225.5,188.5C 225.5,187.167 225.5,185.833 225.5,184.5C 221.167,184.5 216.833,184.5 212.5,184.5C 212.167,184.5 211.833,184.5 211.5,184.5C 215.982,183.674 220.649,183.174 225.5,183C 225.167,182.667 224.833,182.333 224.5,182C 232.631,178.517 240.631,174.85 248.5,171C 253.75,169.826 259.084,169.159 264.5,169C 265.191,167.933 265.691,166.766 266,165.5C 266.816,166.823 267.983,167.489 269.5,167.5C 279.467,170.521 284.133,166.854 283.5,156.5C 282.909,155.849 282.243,155.182 281.5,154.5C 284.812,152.01 288.478,150.343 292.5,149.5C 292.666,157.174 292.5,164.841 292,172.5C 278.788,179.106 265.455,185.44 252,191.5C 251.667,190.833 251.333,190.167 251,189.5C 250.802,191.382 250.302,193.048 249.5,194.5 Z"/></g>
<g><path style="opacity:1" fill="#35343a" d="M 229.5,168.5 C 233.182,168.335 236.848,168.501 240.5,169C 228.309,171.095 216.976,175.429 206.5,182C 202.835,183.278 199.168,184.444 195.5,185.5C 195.88,187.698 195.213,189.365 193.5,190.5C 193.5,188.5 193.5,186.5 193.5,184.5C 191.833,184.5 190.167,184.5 188.5,184.5C 187.677,187.977 187.177,191.644 187,195.5C 186.667,194.833 186.333,194.167 186,193.5C 185.8,195.32 184.966,196.653 183.5,197.5C 183.818,192.968 183.485,188.634 182.5,184.5C 181.5,184.5 180.5,184.5 179.5,184.5C 179.167,184.5 178.833,184.5 178.5,184.5C 188.711,179.587 199.044,174.754 209.5,170C 216.346,169.828 223.013,169.328 229.5,168.5 Z"/></g>
<g><path style="opacity:1" fill="#414144" d="M 291.5,128.5 C 292.167,132.5 292.833,136.5 293.5,140.5C 293.829,153.011 293.495,165.345 292.5,177.5C 292.631,176.761 292.464,176.094 292,175.5C 291.749,177.433 291.249,179.266 290.5,181C 274.179,187.658 258.179,195.158 242.5,203.5C 241.692,201.577 241.192,199.577 241,197.5C 240.501,201.821 240.334,206.154 240.5,210.5C 239.345,203.679 239.179,196.679 240,189.5C 244.026,188.346 245.859,190.013 245.5,194.5C 246.833,194.5 248.167,194.5 249.5,194.5C 250.302,193.048 250.802,191.382 251,189.5C 251.333,190.167 251.667,190.833 252,191.5C 265.455,185.44 278.788,179.106 292,172.5C 292.5,164.841 292.666,157.174 292.5,149.5C 288.478,150.343 284.812,152.01 281.5,154.5C 282.243,155.182 282.909,155.849 283.5,156.5C 282.167,156.5 280.833,156.5 279.5,156.5C 279.762,157.978 279.429,159.311 278.5,160.5C 278.586,155.553 276.586,151.72 272.5,149C 277.063,146.575 278.729,142.742 277.5,137.5C 278.314,139.631 278.814,141.964 279,144.5C 279.497,142.19 279.663,139.857 279.5,137.5C 283.019,136.652 286.352,135.319 289.5,133.5C 290.086,133.709 290.586,134.043 291,134.5C 291.495,132.527 291.662,130.527 291.5,128.5 Z"/></g>
<g><path style="opacity:1" fill="#949495" d="M 309.5,167.5 C 308.699,169.042 308.366,170.708 308.5,172.5C 304.884,173.787 301.384,176.12 298,179.5C 297.505,177.527 297.338,175.527 297.5,173.5C 300.003,171.167 302.669,169.001 305.5,167C 306.928,166.421 308.262,166.588 309.5,167.5 Z"/></g>
<g><path style="opacity:0.967" fill="#f6f6f6" d="M 64.5,183.5 C 64.7852,185.288 64.4519,186.955 63.5,188.5C 60.4646,189.921 57.9646,191.921 56,194.5C 55.7216,193.584 55.2216,192.918 54.5,192.5C 53.2559,187.544 52.2559,182.544 51.5,177.5C 55.3329,176.368 58.9996,174.702 62.5,172.5C 63.7063,176.072 64.373,179.738 64.5,183.5 Z"/></g>
<g><path style="opacity:1" fill="#073fab" d="M 176.5,167.5 C 176.829,180.344 176.495,193.011 175.5,205.5C 173.672,201.158 170.839,197.491 167,194.5C 166.505,192.527 166.338,190.527 166.5,188.5C 169.5,188.167 170.833,189.5 170.5,192.5C 172.167,192.5 173.833,192.5 175.5,192.5C 175.054,184.879 171.054,182.379 163.5,185C 163,185.5 162.5,186 162,186.5C 160.041,194.545 162.707,200.545 170,204.5C 170.497,206.81 170.663,209.143 170.5,211.5C 166.5,212.167 164.833,210.5 165.5,206.5C 164.167,206.5 162.833,206.5 161.5,206.5C 160.857,210.433 161.857,213.766 164.5,216.5C 162.983,216.489 161.816,215.823 161,214.5C 160.617,215.056 160.117,215.389 159.5,215.5C 157.356,205.252 155.689,194.919 154.5,184.5C 151.606,184.042 149.106,184.709 147,186.5C 145.264,196.484 143.764,206.484 142.5,216.5C 144.167,216.5 145.833,216.5 147.5,216.5C 127.565,225.628 107.232,233.962 86.5,241.5C 85.4861,239.426 84.4861,237.426 83.5,235.5C 81.3377,229.004 79.0043,222.67 76.5,216.5C 76.5,216.167 76.5,215.833 76.5,215.5C 76.3505,214.448 76.5172,213.448 77,212.5C 77.3603,214.421 78.1936,216.088 79.5,217.5C 87.5,214.167 95.5,210.833 103.5,207.5C 104.497,199.862 104.831,192.196 104.5,184.5C 105.494,194.987 105.828,205.654 105.5,216.5C 109.371,216.815 113.038,216.482 116.5,215.5C 118.708,214.977 120.208,213.644 121,211.5C 121.498,208.518 121.665,205.518 121.5,202.5C 122.268,203.263 122.768,204.263 123,205.5C 123.171,198.321 123.671,191.321 124.5,184.5C 124.5,195.167 124.5,205.833 124.5,216.5C 126.415,216.784 128.081,216.451 129.5,215.5C 129.174,211.116 129.508,206.783 130.5,202.5C 131.086,202.709 131.586,203.043 132,203.5C 133.107,207.88 134.274,212.213 135.5,216.5C 137.167,216.5 138.833,216.5 140.5,216.5C 139.234,211.679 137.9,206.846 136.5,202C 139.609,197.192 140.276,192.025 138.5,186.5C 150.388,181.528 162.388,176.528 174.5,171.5C 175.172,170.051 175.839,168.718 176.5,167.5 Z"/></g>
<g><path style="opacity:1" fill="#f5f6fb" d="M 125.5,184.5 C 130.101,184.055 134.435,184.722 138.5,186.5C 140.276,192.025 139.609,197.192 136.5,202C 137.9,206.846 139.234,211.679 140.5,216.5C 138.833,216.5 137.167,216.5 135.5,216.5C 134.274,212.213 133.107,207.88 132,203.5C 131.586,203.043 131.086,202.709 130.5,202.5C 129.508,206.783 129.174,211.116 129.5,215.5C 128.167,215.5 126.833,215.5 125.5,215.5C 125.5,205.167 125.5,194.833 125.5,184.5 Z"/></g>
<g><path style="opacity:1" fill="#eaeef7" d="M 159.5,215.5 C 157.777,216.807 155.943,216.807 154,215.5C 153.503,213.19 153.337,210.857 153.5,208.5C 151.5,208.5 149.5,208.5 147.5,208.5C 147.5,211.167 147.5,213.833 147.5,216.5C 145.833,216.5 144.167,216.5 142.5,216.5C 143.764,206.484 145.264,196.484 147,186.5C 149.106,184.709 151.606,184.042 154.5,184.5C 155.689,194.919 157.356,205.252 159.5,215.5 Z"/></g>
<g><path style="opacity:1" fill="#e9eef7" d="M 175.5,205.5 C 175.5,207.5 175.5,209.5 175.5,211.5C 173.395,216.102 169.728,217.769 164.5,216.5C 161.857,213.766 160.857,210.433 161.5,206.5C 162.833,206.5 164.167,206.5 165.5,206.5C 164.833,210.5 166.5,212.167 170.5,211.5C 170.663,209.143 170.497,206.81 170,204.5C 162.707,200.545 160.041,194.545 162,186.5C 162.5,186 163,185.5 163.5,185C 171.054,182.379 175.054,184.879 175.5,192.5C 173.833,192.5 172.167,192.5 170.5,192.5C 170.833,189.5 169.5,188.167 166.5,188.5C 166.338,190.527 166.505,192.527 167,194.5C 170.839,197.491 173.672,201.158 175.5,205.5 Z"/></g>
<g><path style="opacity:1" fill="#f9f9f9" d="M 212.5,184.5 C 216.833,184.5 221.167,184.5 225.5,184.5C 225.5,185.833 225.5,187.167 225.5,188.5C 222.5,188.5 219.5,188.5 216.5,188.5C 216.5,191.5 216.5,194.5 216.5,197.5C 218.833,197.5 221.167,197.5 223.5,197.5C 223.5,199.167 223.5,200.833 223.5,202.5C 221.5,202.5 219.5,202.5 217.5,202.5C 216.515,206.634 216.182,210.968 216.5,215.5C 215.167,215.5 213.833,215.5 212.5,215.5C 212.5,205.167 212.5,194.833 212.5,184.5 Z"/></g>
<g><path style="opacity:1" fill="#efefef" d="M 249.5,194.5 C 248.167,194.5 246.833,194.5 245.5,194.5C 245.859,190.013 244.026,188.346 240,189.5C 239.179,196.679 239.345,203.679 240.5,210.5C 241.568,211.434 242.901,211.768 244.5,211.5C 244.5,209.167 244.5,206.833 244.5,204.5C 246.167,204.5 247.833,204.5 249.5,204.5C 250.673,213.158 247.006,216.992 238.5,216C 236.951,214.786 235.785,213.286 235,211.5C 234.501,207.514 234.334,203.514 234.5,199.5C 234.5,195.833 234.5,192.167 234.5,188.5C 235.364,187.312 236.364,186.145 237.5,185C 246.161,182.505 250.161,185.672 249.5,194.5 Z"/></g>
<g><path style="opacity:0.979" fill="#f8f8f8" d="M 308.5,181.5 C 307.772,185.983 306.772,190.316 305.5,194.5C 301.084,197.806 296.917,201.473 293,205.5C 292.333,203.167 292.333,200.833 293,198.5C 293.956,194.765 295.122,191.099 296.5,187.5C 300.269,185.071 304.269,183.071 308.5,181.5 Z"/></g>
<g><path style="opacity:1" fill="#f1f4fa" d="M 114.5,184.5 C 115.922,184.709 117.255,185.209 118.5,186C 120.456,189.595 120.956,193.428 120,197.5C 118.093,199.719 118.593,201.386 121.5,202.5C 121.665,205.518 121.498,208.518 121,211.5C 120.208,213.644 118.708,214.977 116.5,215.5C 113.167,215.5 109.833,215.5 106.5,215.5C 106.5,205.167 106.5,194.833 106.5,184.5C 109.167,184.5 111.833,184.5 114.5,184.5 Z"/></g>
<g><path style="opacity:1" fill="#d0d1d2" d="M 297.5,144.5 C 297.5,154.167 297.5,163.833 297.5,173.5C 297.338,175.527 297.505,177.527 298,179.5C 301.384,176.12 304.884,173.787 308.5,172.5C 308.5,175.5 308.5,178.5 308.5,181.5C 304.269,183.071 300.269,185.071 296.5,187.5C 295.122,191.099 293.956,194.765 293,198.5C 292.333,200.833 292.333,203.167 293,205.5C 296.917,201.473 301.084,197.806 305.5,194.5C 304.927,200.455 303.593,206.122 301.5,211.5C 297.037,213.562 292.704,216.062 288.5,219C 287.789,220.255 286.956,221.421 286,222.5C 285.049,222.116 284.216,221.783 283.5,221.5C 284.291,217.402 285.291,213.402 286.5,209.5C 287.878,205.95 288.878,202.283 289.5,198.5C 291.405,191.64 292.405,184.64 292.5,177.5C 293.495,165.345 293.829,153.011 293.5,140.5C 293.34,138.801 293.506,137.134 294,135.5C 294.333,137.833 294.667,140.167 295,142.5C 295.333,141.167 295.667,139.833 296,138.5C 296.191,140.708 296.691,142.708 297.5,144.5 Z"/></g>
<g><path style="opacity:1" fill="#1c3ea6" d="M 129.5,188.5 C 134.152,189.104 135.652,191.77 134,196.5C 132.89,198.037 131.39,198.703 129.5,198.5C 129.5,195.167 129.5,191.833 129.5,188.5 Z"/></g>
<g><path style="opacity:1" fill="#9b9a9b" d="M 211.5,184.5 C 211.833,184.5 212.167,184.5 212.5,184.5C 212.5,194.833 212.5,205.167 212.5,215.5C 213.833,215.5 215.167,215.5 216.5,215.5C 216.182,210.968 216.515,206.634 217.5,202.5C 217.5,207.167 217.5,211.833 217.5,216.5C 215.833,216.5 214.167,216.5 212.5,216.5C 211.506,206.013 211.172,195.346 211.5,184.5 Z"/></g>
<g><path style="opacity:1" fill="#023b9e" d="M 104.5,184.5 C 104.831,192.196 104.497,199.862 103.5,207.5C 95.5,210.833 87.5,214.167 79.5,217.5C 78.1936,216.088 77.3603,214.421 77,212.5C 76.5172,213.448 76.3505,214.448 76.5,215.5C 73.9208,208.506 72.2542,201.172 71.5,193.5C 71.4346,193.062 71.6012,192.728 72,192.5C 72.1962,194.286 73.0295,195.619 74.5,196.5C 84.3065,191.927 94.3065,187.927 104.5,184.5 Z"/></g>
<g><path style="opacity:1" fill="#0d2e99" d="M 111.5,189.5 C 112.833,189.5 114.167,189.5 115.5,189.5C 115.663,191.857 115.497,194.19 115,196.5C 113.989,197.337 112.822,197.67 111.5,197.5C 111.5,194.833 111.5,192.167 111.5,189.5 Z"/></g>
<g><path style="opacity:1" fill="#dddedf" d="M 67.5,172.5 C 67.3284,173.492 67.6618,174.158 68.5,174.5C 68.4919,181.124 69.4919,187.457 71.5,193.5C 72.2542,201.172 73.9208,208.506 76.5,215.5C 76.5,215.833 76.5,216.167 76.5,216.5C 76.631,217.239 76.4643,217.906 76,218.5C 75.3333,217.167 74.6667,215.833 74,214.5C 73.7679,215.737 73.2679,216.737 72.5,217.5C 70.865,212.256 69.1983,206.923 67.5,201.5C 67.5591,198.038 66.5591,195.038 64.5,192.5C 62.008,194.789 59.508,197.123 57,199.5C 56.6174,198.944 56.1174,198.611 55.5,198.5C 54.6586,196.621 54.3253,194.621 54.5,192.5C 55.2216,192.918 55.7216,193.584 56,194.5C 57.9646,191.921 60.4646,189.921 63.5,188.5C 64.4519,186.955 64.7852,185.288 64.5,183.5C 65.2248,179.769 66.2248,176.102 67.5,172.5 Z"/></g>
<g><path style="opacity:1" fill="#4458bd" d="M 149.5,191.5 C 150.748,192.334 151.415,193.667 151.5,195.5C 151.966,198.492 152.299,201.492 152.5,204.5C 151.167,204.5 149.833,204.5 148.5,204.5C 149.08,200.19 149.414,195.857 149.5,191.5 Z"/></g>
<g><path style="opacity:1" fill="#d2d0d0" d="M 178.5,184.5 C 178.833,184.5 179.167,184.5 179.5,184.5C 179.5,194.833 179.5,205.167 179.5,215.5C 180.5,215.5 181.5,215.5 182.5,215.5C 182.5,205.167 182.5,194.833 182.5,184.5C 183.485,188.634 183.818,192.968 183.5,197.5C 183.5,203.833 183.5,210.167 183.5,216.5C 181.833,216.5 180.167,216.5 178.5,216.5C 178.5,210.833 178.5,205.167 178.5,199.5C 178.5,194.5 178.5,189.5 178.5,184.5 Z"/></g>
<g><path style="opacity:1" fill="#fefefe" d="M 179.5,184.5 C 180.5,184.5 181.5,184.5 182.5,184.5C 182.5,194.833 182.5,205.167 182.5,215.5C 181.5,215.5 180.5,215.5 179.5,215.5C 179.5,205.167 179.5,194.833 179.5,184.5 Z"/></g>
<g><path style="opacity:1" fill="#26262a" d="M 292.5,177.5 C 292.405,184.64 291.405,191.64 289.5,198.5C 288.849,197.909 288.182,197.243 287.5,196.5C 277.73,201.187 268.064,205.854 258.5,210.5C 256.833,210.5 255.167,210.5 253.5,210.5C 253.5,212.5 253.5,214.5 253.5,216.5C 255.167,216.5 256.833,216.5 258.5,216.5C 243.543,223.209 228.21,229.375 212.5,235C 214.723,235.566 216.723,236.4 218.5,237.5C 217.761,237.369 217.094,237.536 216.5,238C 218.382,238.198 220.048,238.698 221.5,239.5C 215.809,239.02 210.142,238.354 204.5,237.5C 193.846,236.85 183.179,236.516 172.5,236.5C 178.987,235.672 185.654,235.172 192.5,235C 187.511,234.501 182.511,234.334 177.5,234.5C 177.5,234.167 177.5,233.833 177.5,233.5C 179.527,233.662 181.527,233.495 183.5,233C 188.397,230.717 193.397,228.717 198.5,227C 204.263,223.452 210.263,220.452 216.5,218C 214.942,217.79 213.609,217.29 212.5,216.5C 214.167,216.5 215.833,216.5 217.5,216.5C 217.5,211.833 217.5,207.167 217.5,202.5C 219.5,202.5 221.5,202.5 223.5,202.5C 222.081,203.451 220.415,203.784 218.5,203.5C 218.335,206.85 218.502,210.183 219,213.5C 221.375,212.871 223.541,211.871 225.5,210.5C 227.893,209.79 230.393,209.123 233,208.5C 233.181,205.305 233.681,202.305 234.5,199.5C 234.334,203.514 234.501,207.514 235,211.5C 235.785,213.286 236.951,214.786 238.5,216C 247.006,216.992 250.673,213.158 249.5,204.5C 247.833,204.5 246.167,204.5 244.5,204.5C 244.5,206.833 244.5,209.167 244.5,211.5C 242.901,211.768 241.568,211.434 240.5,210.5C 240.334,206.154 240.501,201.821 241,197.5C 241.192,199.577 241.692,201.577 242.5,203.5C 258.179,195.158 274.179,187.658 290.5,181C 291.249,179.266 291.749,177.433 292,175.5C 292.464,176.094 292.631,176.761 292.5,177.5 Z"/></g>
<g><path style="opacity:0.711" fill="#b8b8b9" d="M 67.5,201.5 C 64.0025,202.535 60.6692,203.869 57.5,205.5C 56.3882,203.401 55.7215,201.067 55.5,198.5C 56.1174,198.611 56.6174,198.944 57,199.5C 59.508,197.123 62.008,194.789 64.5,192.5C 66.5591,195.038 67.5591,198.038 67.5,201.5 Z"/></g>
<g><path style="opacity:1" fill="#404041" d="M 234.5,188.5 C 234.5,192.167 234.5,195.833 234.5,199.5C 233.681,202.305 233.181,205.305 233,208.5C 230.393,209.123 227.893,209.79 225.5,210.5C 223.541,211.871 221.375,212.871 219,213.5C 218.502,210.183 218.335,206.85 218.5,203.5C 220.415,203.784 222.081,203.451 223.5,202.5C 224.302,201.048 224.802,199.382 225,197.5C 225.333,198.833 225.667,200.167 226,201.5C 228.462,200.35 230.796,199.017 233,197.5C 233.181,194.305 233.681,191.305 234.5,188.5 Z"/></g>
<g><path style="opacity:1" fill="#1038a9" d="M 111.5,201.5 C 115.062,201.564 116.729,203.397 116.5,207C 116.907,210.759 115.24,212.259 111.5,211.5C 111.5,208.167 111.5,204.833 111.5,201.5 Z"/></g>
<g><path style="opacity:1" fill="#a5bce2" d="M 124.5,184.5 C 124.833,184.5 125.167,184.5 125.5,184.5C 125.5,194.833 125.5,205.167 125.5,215.5C 126.833,215.5 128.167,215.5 129.5,215.5C 128.081,216.451 126.415,216.784 124.5,216.5C 124.5,205.833 124.5,195.167 124.5,184.5 Z"/></g>
<g><path style="opacity:1" fill="#e6e6e6" d="M 225.5,210.5 C 227.167,210.5 228.833,210.5 230.5,210.5C 230.5,212.5 230.5,214.5 230.5,216.5C 228.833,216.5 227.167,216.5 225.5,216.5C 225.5,214.5 225.5,212.5 225.5,210.5 Z"/></g>
<g><path style="opacity:1" fill="#3a393e" d="M 289.5,198.5 C 288.878,202.283 287.878,205.95 286.5,209.5C 285.527,208.016 284.193,207.516 282.5,208C 262.251,217.527 241.918,226.86 221.5,236C 222.416,236.278 223.082,236.778 223.5,237.5C 221.833,237.5 220.167,237.5 218.5,237.5C 216.723,236.4 214.723,235.566 212.5,235C 228.21,229.375 243.543,223.209 258.5,216.5C 258.5,214.5 258.5,212.5 258.5,210.5C 268.064,205.854 277.73,201.187 287.5,196.5C 288.182,197.243 288.849,197.909 289.5,198.5 Z"/></g>
<g><path style="opacity:1" fill="#d5d5d6" d="M 258.5,210.5 C 258.5,212.5 258.5,214.5 258.5,216.5C 256.833,216.5 255.167,216.5 253.5,216.5C 253.5,214.5 253.5,212.5 253.5,210.5C 255.167,210.5 256.833,210.5 258.5,210.5 Z"/></g>
<g><path style="opacity:1" fill="#01399c" d="M 159.5,215.5 C 160.117,215.389 160.617,215.056 161,214.5C 161.816,215.823 162.983,216.489 164.5,216.5C 169.728,217.769 173.395,216.102 175.5,211.5C 176.492,218.648 176.825,225.981 176.5,233.5C 173.482,233.665 170.482,233.498 167.5,233C 170.146,232.503 172.813,232.336 175.5,232.5C 175.824,228.445 175.491,224.445 174.5,220.5C 163.569,224.634 152.902,229.301 142.5,234.5C 142.957,235.298 143.624,235.631 144.5,235.5C 126.023,238.667 107.69,243 89.5,248.5C 88.2271,246.287 87.2271,243.954 86.5,241.5C 107.232,233.962 127.565,225.628 147.5,216.5C 147.5,213.833 147.5,211.167 147.5,208.5C 149.5,208.5 151.5,208.5 153.5,208.5C 153.337,210.857 153.503,213.19 154,215.5C 155.943,216.807 157.777,216.807 159.5,215.5 Z"/></g>
<g><path style="opacity:0.97" fill="#7e7e7f" d="M 67.5,201.5 C 69.1983,206.923 70.865,212.256 72.5,217.5C 72.762,218.978 72.4287,220.311 71.5,221.5C 68.7692,223.192 66.1025,224.858 63.5,226.5C 60.727,219.833 58.727,212.833 57.5,205.5C 60.6692,203.869 64.0025,202.535 67.5,201.5 Z"/></g>
<g><path style="opacity:1" fill="#073a93" d="M 176.5,167.5 C 176.833,167.5 177.167,167.5 177.5,167.5C 177.5,178.167 177.5,188.833 177.5,199.5C 177.5,210.833 177.5,222.167 177.5,233.5C 177.5,233.833 177.5,234.167 177.5,234.5C 166.493,234.658 155.493,234.992 144.5,235.5C 143.624,235.631 142.957,235.298 142.5,234.5C 152.902,229.301 163.569,224.634 174.5,220.5C 175.491,224.445 175.824,228.445 175.5,232.5C 172.813,232.336 170.146,232.503 167.5,233C 170.482,233.498 173.482,233.665 176.5,233.5C 176.825,225.981 176.492,218.648 175.5,211.5C 175.5,209.5 175.5,207.5 175.5,205.5C 176.495,193.011 176.829,180.344 176.5,167.5 Z"/></g>
<g><path style="opacity:1" fill="#454346" d="M 269.5,167.5 C 267.983,167.489 266.816,166.823 266,165.5C 265.691,166.766 265.191,167.933 264.5,169C 259.084,169.159 253.75,169.826 248.5,171C 240.631,174.85 232.631,178.517 224.5,182C 224.833,182.333 225.167,182.667 225.5,183C 220.649,183.174 215.982,183.674 211.5,184.5C 211.172,195.346 211.506,206.013 212.5,216.5C 213.609,217.29 214.942,217.79 216.5,218C 210.263,220.452 204.263,223.452 198.5,227C 193.397,228.717 188.397,230.717 183.5,233C 181.527,233.495 179.527,233.662 177.5,233.5C 177.5,222.167 177.5,210.833 177.5,199.5C 177.833,199.5 178.167,199.5 178.5,199.5C 178.5,205.167 178.5,210.833 178.5,216.5C 180.167,216.5 181.833,216.5 183.5,216.5C 183.5,210.167 183.5,203.833 183.5,197.5C 184.966,196.653 185.8,195.32 186,193.5C 186.333,194.167 186.667,194.833 187,195.5C 187.177,191.644 187.677,187.977 188.5,184.5C 188.5,190.167 188.5,195.833 188.5,201.5C 187.778,201.918 187.278,202.584 187,203.5C 186.781,202.062 186.281,200.729 185.5,199.5C 184.338,204.131 184.172,208.798 185,213.5C 188.046,215.892 187.879,217.558 184.5,218.5C 182.591,217.652 180.591,217.318 178.5,217.5C 178.215,219.288 178.548,220.955 179.5,222.5C 182.952,221.274 186.285,219.774 189.5,218C 189.167,217.667 188.833,217.333 188.5,217C 192.821,216.501 197.154,216.334 201.5,216.5C 201.347,210.676 202.013,210.343 203.5,215.5C 205.642,214.399 207.808,213.399 210,212.5C 210.5,203.506 210.666,194.506 210.5,185.5C 205.633,186.931 200.967,188.931 196.5,191.5C 195.366,194.576 194.366,197.576 193.5,200.5C 193.5,197.167 193.5,193.833 193.5,190.5C 195.213,189.365 195.88,187.698 195.5,185.5C 199.168,184.444 202.835,183.278 206.5,182C 216.976,175.429 228.309,171.095 240.5,169C 236.848,168.501 233.182,168.335 229.5,168.5C 222.5,168.5 215.5,168.5 208.5,168.5C 208.194,165.615 208.527,162.948 209.5,160.5C 209.5,162.833 209.5,165.167 209.5,167.5C 219.833,167.5 230.167,167.5 240.5,167.5C 240.5,163.5 240.5,159.5 240.5,155.5C 241.324,159.312 241.824,163.312 242,167.5C 243,163.5 244,163.5 245,167.5C 245.186,164.964 245.686,162.631 246.5,160.5C 246.5,162.833 246.5,165.167 246.5,167.5C 252.167,167.5 257.833,167.5 263.5,167.5C 263.5,165.167 263.5,162.833 263.5,160.5C 262.5,160.5 261.5,160.5 260.5,160.5C 260.5,157.833 260.5,155.167 260.5,152.5C 262.39,152.297 263.89,152.963 265,154.5C 264.833,159.503 266.333,163.836 269.5,167.5 Z"/></g>
<g><path style="opacity:1" fill="#5b5a5b" d="M 188.5,201.5 C 188.5,206.167 188.5,210.833 188.5,215.5C 192.5,215.5 196.5,215.5 200.5,215.5C 200.5,214.167 200.5,212.833 200.5,211.5C 198.167,211.5 195.833,211.5 193.5,211.5C 193.5,207.833 193.5,204.167 193.5,200.5C 194.366,197.576 195.366,194.576 196.5,191.5C 200.967,188.931 205.633,186.931 210.5,185.5C 210.666,194.506 210.5,203.506 210,212.5C 207.808,213.399 205.642,214.399 203.5,215.5C 202.013,210.343 201.347,210.676 201.5,216.5C 197.154,216.334 192.821,216.501 188.5,217C 188.833,217.333 189.167,217.667 189.5,218C 186.285,219.774 182.952,221.274 179.5,222.5C 178.548,220.955 178.215,219.288 178.5,217.5C 180.591,217.318 182.591,217.652 184.5,218.5C 187.879,217.558 188.046,215.892 185,213.5C 184.172,208.798 184.338,204.131 185.5,199.5C 186.281,200.729 186.781,202.062 187,203.5C 187.278,202.584 187.778,201.918 188.5,201.5 Z"/></g>
<g><path style="opacity:1" fill="#f8f8f9" d="M 188.5,184.5 C 190.167,184.5 191.833,184.5 193.5,184.5C 193.5,186.5 193.5,188.5 193.5,190.5C 193.5,193.833 193.5,197.167 193.5,200.5C 193.5,204.167 193.5,207.833 193.5,211.5C 195.833,211.5 198.167,211.5 200.5,211.5C 200.5,212.833 200.5,214.167 200.5,215.5C 196.5,215.5 192.5,215.5 188.5,215.5C 188.5,210.833 188.5,206.167 188.5,201.5C 188.5,195.833 188.5,190.167 188.5,184.5 Z"/></g>
<g><path style="opacity:1" fill="#595859" d="M 286.5,209.5 C 285.291,213.402 284.291,217.402 283.5,221.5C 281.722,224.902 280.389,228.569 279.5,232.5C 277.167,237.167 274.833,241.833 272.5,246.5C 271.922,245.453 271.256,245.62 270.5,247C 268.5,247.667 266.5,247.667 264.5,247C 250.962,242.97 237.295,239.804 223.5,237.5C 223.082,236.778 222.416,236.278 221.5,236C 241.918,226.86 262.251,217.527 282.5,208C 284.193,207.516 285.527,208.016 286.5,209.5 Z"/></g>
<g><path style="opacity:0.968" fill="#a8a9aa" d="M 76.5,216.5 C 79.0043,222.67 81.3377,229.004 83.5,235.5C 81.2181,234.61 78.8848,234.444 76.5,235C 73.9348,237.08 71.2682,238.913 68.5,240.5C 66.2725,236.043 64.6058,231.376 63.5,226.5C 66.1025,224.858 68.7692,223.192 71.5,221.5C 72.4287,220.311 72.762,218.978 72.5,217.5C 73.2679,216.737 73.7679,215.737 74,214.5C 74.6667,215.833 75.3333,217.167 76,218.5C 76.4643,217.906 76.631,217.239 76.5,216.5 Z"/></g>
<g><path style="opacity:1" fill="#9d9d9e" d="M 301.5,211.5 C 300.943,216.165 299.61,220.498 297.5,224.5C 295.353,226.47 293.02,228.303 290.5,230C 287.304,230.396 284.47,231.562 282,233.5C 281.049,233.116 280.216,232.783 279.5,232.5C 280.389,228.569 281.722,224.902 283.5,221.5C 284.216,221.783 285.049,222.116 286,222.5C 286.956,221.421 287.789,220.255 288.5,219C 292.704,216.062 297.037,213.562 301.5,211.5 Z"/></g>
<g><path style="opacity:1" fill="#7c7c7d" d="M 297.5,224.5 C 294.624,234.795 290.957,244.795 286.5,254.5C 282.004,252.537 277.337,250.87 272.5,249.5C 271.438,248.575 271.438,247.575 272.5,246.5C 274.833,241.833 277.167,237.167 279.5,232.5C 280.216,232.783 281.049,233.116 282,233.5C 284.47,231.562 287.304,230.396 290.5,230C 293.02,228.303 295.353,226.47 297.5,224.5 Z"/></g>
<g><path style="opacity:1" fill="#0f63c8" d="M 172.5,236.5 C 167.015,237.327 161.348,237.827 155.5,238C 156.428,238.388 157.095,239.055 157.5,240C 156.368,241.765 155.368,243.598 154.5,245.5C 152.167,245.5 149.833,245.5 147.5,245.5C 148.167,252.167 148.833,258.833 149.5,265.5C 150.5,265.5 151.5,265.5 152.5,265.5C 152.726,262.751 152.393,260.084 151.5,257.5C 151.833,257.167 152.167,256.833 152.5,256.5C 153.562,258.022 154.229,259.688 154.5,261.5C 155.21,264.86 153.876,266.693 150.5,267C 152.134,267.494 153.801,267.66 155.5,267.5C 148.302,268.494 140.969,269.494 133.5,270.5C 133.062,270.565 132.728,270.399 132.5,270C 135.834,268.794 136.167,266.961 133.5,264.5C 133.106,261.143 134.439,258.81 137.5,257.5C 139.519,249.847 136.519,246.514 128.5,247.5C 130.539,246.422 132.706,245.422 135,244.5C 137.349,242.256 136.849,241.089 133.5,241C 134.416,240.722 135.082,240.222 135.5,239.5C 147.717,237.265 160.051,236.265 172.5,236.5 Z"/></g>
<g><path style="opacity:1" fill="#0f6ad8" d="M 172.5,236.5 C 183.179,236.516 193.846,236.85 204.5,237.5C 198.347,238.328 192.013,238.828 185.5,239C 190.318,240.056 193.985,242.556 196.5,246.5C 196.094,250.688 197.594,254.021 201,256.5C 201.494,258.134 201.66,259.801 201.5,261.5C 200.5,261.5 199.5,261.5 198.5,261.5C 198.5,260.5 198.5,259.5 198.5,258.5C 197.5,258.5 196.5,258.5 195.5,258.5C 194.891,261.878 196.224,263.878 199.5,264.5C 199.918,265.222 200.584,265.722 201.5,266C 197.848,266.499 194.182,266.665 190.5,266.5C 178.81,266.305 167.144,266.639 155.5,267.5C 153.801,267.66 152.134,267.494 150.5,267C 153.876,266.693 155.21,264.86 154.5,261.5C 155.404,262.209 155.737,263.209 155.5,264.5C 156.5,264.5 157.5,264.5 158.5,264.5C 158.045,261.797 157.378,259.13 156.5,256.5C 157.472,253.536 157.638,250.536 157,247.5C 156.292,246.619 155.458,245.953 154.5,245.5C 155.368,243.598 156.368,241.765 157.5,240C 157.095,239.055 156.428,238.388 155.5,238C 161.348,237.827 167.015,237.327 172.5,236.5 Z"/></g>
<g><path style="opacity:1" fill="#165eb9" d="M 135.5,239.5 C 135.082,240.222 134.416,240.722 133.5,241C 136.849,241.089 137.349,242.256 135,244.5C 132.706,245.422 130.539,246.422 128.5,247.5C 129.005,253.539 129.838,259.539 131,265.5C 132.516,268.051 133.349,267.718 133.5,264.5C 136.167,266.961 135.834,268.794 132.5,270C 132.728,270.399 133.062,270.565 133.5,270.5C 124.165,272.837 114.831,275.504 105.5,278.5C 104.448,278.649 103.448,278.483 102.5,278C 105.899,277.08 108.566,275.247 110.5,272.5C 118.987,271.416 119.32,269.749 111.5,267.5C 109.813,264.247 110.813,262.247 114.5,261.5C 112.833,260.833 111.167,260.167 109.5,259.5C 107.726,256.15 108.726,254.484 112.5,254.5C 112.5,253.5 112.5,252.5 112.5,251.5C 111.5,251.5 110.5,251.5 109.5,251.5C 109.229,249.496 107.896,247.829 105.5,246.5C 115.341,243.875 125.341,241.541 135.5,239.5 Z"/></g>
<g><path style="opacity:1" fill="#d8e7f6" d="M 142.5,241.5 C 144.885,242.867 144.552,244.201 141.5,245.5C 141.167,245.167 140.833,244.833 140.5,244.5C 141.193,243.482 141.859,242.482 142.5,241.5 Z"/></g>
<g><path style="opacity:1" fill="#6ca6e7" d="M 166.5,244.5 C 169.625,243.521 172.958,243.187 176.5,243.5C 176.5,244.833 176.5,246.167 176.5,247.5C 175.5,247.5 174.5,247.5 173.5,247.5C 174.091,246.849 174.757,246.182 175.5,245.5C 172.572,244.516 169.572,244.183 166.5,244.5 Z"/></g>
<g><path style="opacity:1" fill="#eef5fc" d="M 166.5,244.5 C 169.572,244.183 172.572,244.516 175.5,245.5C 174.757,246.182 174.091,246.849 173.5,247.5C 173.5,252.833 173.5,258.167 173.5,263.5C 172.5,263.5 171.5,263.5 170.5,263.5C 170.5,258.167 170.5,252.833 170.5,247.5C 169.167,247.5 167.833,247.5 166.5,247.5C 166.5,246.5 166.5,245.5 166.5,244.5 Z"/></g>
<g><path style="opacity:1" fill="#ddeafa" d="M 181.5,243.5 C 184.044,243.104 186.211,243.771 188,245.5C 188.667,250.833 188.667,256.167 188,261.5C 185.182,265.424 182.182,265.424 179,261.5C 178.333,256.5 178.333,251.5 179,246.5C 180.045,245.627 180.878,244.627 181.5,243.5 Z"/></g>
<g><path style="opacity:1" fill="#e2ecfa" d="M 199.5,264.5 C 196.224,263.878 194.891,261.878 195.5,258.5C 196.5,258.5 197.5,258.5 198.5,258.5C 198.5,259.5 198.5,260.5 198.5,261.5C 199.5,261.5 200.5,261.5 201.5,261.5C 201.66,259.801 201.494,258.134 201,256.5C 197.594,254.021 196.094,250.688 196.5,246.5C 198.496,244.667 200.829,244.167 203.5,245C 205.037,246.11 205.703,247.61 205.5,249.5C 203.5,248.833 201.5,248.167 199.5,247.5C 201.082,251.738 203.082,255.738 205.5,259.5C 205.338,263.326 203.338,264.993 199.5,264.5 Z"/></g>
<g><path style="opacity:1" fill="#e3edf9" d="M 154.5,245.5 C 155.458,245.953 156.292,246.619 157,247.5C 157.638,250.536 157.472,253.536 156.5,256.5C 157.378,259.13 158.045,261.797 158.5,264.5C 157.5,264.5 156.5,264.5 155.5,264.5C 155.737,263.209 155.404,262.209 154.5,261.5C 154.229,259.688 153.562,258.022 152.5,256.5C 152.167,256.833 151.833,257.167 151.5,257.5C 152.393,260.084 152.726,262.751 152.5,265.5C 151.5,265.5 150.5,265.5 149.5,265.5C 148.833,258.833 148.167,252.167 147.5,245.5C 149.833,245.5 152.167,245.5 154.5,245.5 Z"/></g>
<g><path style="opacity:1" fill="#e3edfa" d="M 161.5,244.5 C 162.5,244.5 163.5,244.5 164.5,244.5C 164.5,251.167 164.5,257.833 164.5,264.5C 163.5,264.5 162.5,264.5 161.5,264.5C 161.5,257.833 161.5,251.167 161.5,244.5 Z"/></g>
<g><path style="opacity:1" fill="#848485" d="M 83.5,235.5 C 84.4861,237.426 85.4861,239.426 86.5,241.5C 87.2271,243.954 88.2271,246.287 89.5,248.5C 84.4467,250.769 79.1134,252.435 73.5,253.5C 72.0296,249.088 70.3629,244.755 68.5,240.5C 71.2682,238.913 73.9348,237.08 76.5,235C 78.8848,234.444 81.2181,234.61 83.5,235.5 Z"/></g>
<g><path style="opacity:1" fill="#e6eef9" d="M 140.5,246.5 C 142.124,246.36 143.29,247.027 144,248.5C 144.699,254.489 145.199,260.489 145.5,266.5C 144.5,266.5 143.5,266.5 142.5,266.5C 142.097,259.798 141.43,253.132 140.5,246.5 Z"/></g>
<g><path style="opacity:1" fill="#e4edf8" d="M 231.5,247.5 C 230.998,254.185 230.331,260.851 229.5,267.5C 228.5,267.5 227.5,267.5 226.5,267.5C 226.232,262.986 225.399,258.653 224,254.5C 223.472,258.699 222.639,262.699 221.5,266.5C 220.414,266.38 219.747,265.713 219.5,264.5C 220.415,258.849 221.248,253.182 222,247.5C 223.333,246.167 224.667,246.167 226,247.5C 227.614,259.289 228.447,259.289 228.5,247.5C 229.5,247.5 230.5,247.5 231.5,247.5 Z"/></g>
<g><path style="opacity:1" fill="#eaf1fa" d="M 128.5,247.5 C 136.519,246.514 139.519,249.847 137.5,257.5C 134.439,258.81 133.106,261.143 133.5,264.5C 133.349,267.718 132.516,268.051 131,265.5C 129.838,259.539 129.005,253.539 128.5,247.5 Z"/></g>
<g><path style="opacity:1" fill="#e9f0f8" d="M 118.5,249.5 C 121.596,248.907 123.929,249.907 125.5,252.5C 123.599,253.231 121.599,253.231 119.5,252.5C 119.351,253.552 119.517,254.552 120,255.5C 124.062,257.549 126.562,260.715 127.5,265C 127.655,268.17 126.155,269.67 123,269.5C 119.918,269.252 118.418,267.585 118.5,264.5C 120.5,265.167 122.5,265.833 124.5,266.5C 124.657,265.127 124.49,263.793 124,262.5C 121.213,260.953 118.88,258.953 117,256.5C 116.167,253.829 116.667,251.496 118.5,249.5 Z"/></g>
<g><path style="opacity:1" fill="#2058ca" d="M 151.5,248.5 C 154.084,249.048 155.084,250.715 154.5,253.5C 153.5,253.5 152.5,253.5 151.5,253.5C 151.5,251.833 151.5,250.167 151.5,248.5 Z"/></g>
<g><path style="opacity:1" fill="#1766dd" d="M 182.5,246.5 C 183.5,246.5 184.5,246.5 185.5,246.5C 185.5,251.5 185.5,256.5 185.5,261.5C 184.5,261.5 183.5,261.5 182.5,261.5C 182.5,256.5 182.5,251.5 182.5,246.5 Z"/></g>
<g><path style="opacity:1" fill="#0a57a8" d="M 254.5,246.5 C 259.971,247.768 265.304,249.435 270.5,251.5C 270.082,252.222 269.416,252.722 268.5,253C 269.446,260.457 269.779,267.791 269.5,275C 268.155,277.324 267.822,279.658 268.5,282C 267.906,282.464 267.239,282.631 266.5,282.5C 258.995,279.706 251.328,277.373 243.5,275.5C 243.5,275.167 243.5,274.833 243.5,274.5C 243.938,274.565 244.272,274.399 244.5,274C 243.235,272.663 242.735,271.163 243,269.5C 244.501,271.584 246.501,272.917 249,273.5C 250.301,273.361 251.134,272.695 251.5,271.5C 253.668,266.53 255.335,261.364 256.5,256C 255.336,252.667 253.002,251.167 249.5,251.5C 250.209,250.596 251.209,250.263 252.5,250.5C 252.527,248.801 253.194,247.467 254.5,246.5 Z"/></g>
<g><path style="opacity:1" fill="#e0e9f5" d="M 249.5,251.5 C 253.002,251.167 255.336,252.667 256.5,256C 255.335,261.364 253.668,266.53 251.5,271.5C 247.267,272.258 244.601,270.591 243.5,266.5C 244.73,262.182 245.897,257.849 247,253.5C 247.708,252.619 248.542,251.953 249.5,251.5 Z"/></g>
<g><path style="opacity:1" fill="#e3ebf6" d="M 109.5,251.5 C 110.5,251.5 111.5,251.5 112.5,251.5C 112.5,252.5 112.5,253.5 112.5,254.5C 108.726,254.484 107.726,256.15 109.5,259.5C 111.167,260.167 112.833,260.833 114.5,261.5C 110.813,262.247 109.813,264.247 111.5,267.5C 119.32,269.749 118.987,271.416 110.5,272.5C 107.662,267.016 105.662,261.016 104.5,254.5C 105.947,253.065 107.614,252.065 109.5,251.5 Z"/></g>
<g><path style="opacity:1" fill="#3663c3" d="M 131.5,250.5 C 135.35,250.701 136.35,252.534 134.5,256C 133.552,256.483 132.552,256.649 131.5,256.5C 131.5,254.5 131.5,252.5 131.5,250.5 Z"/></g>
<g><path style="opacity:1" fill="#125cb7" d="M 238.5,242.5 C 243.986,243.244 249.319,244.577 254.5,246.5C 253.194,247.467 252.527,248.801 252.5,250.5C 251.209,250.263 250.209,250.596 249.5,251.5C 248.542,251.953 247.708,252.619 247,253.5C 245.897,257.849 244.73,262.182 243.5,266.5C 244.601,270.591 247.267,272.258 251.5,271.5C 251.134,272.695 250.301,273.361 249,273.5C 246.501,272.917 244.501,271.584 243,269.5C 242.735,271.163 243.235,272.663 244.5,274C 244.272,274.399 243.938,274.565 243.5,274.5C 241.05,274.702 238.717,274.369 236.5,273.5C 232.583,273.024 228.916,272.024 225.5,270.5C 226.239,270.631 226.906,270.464 227.5,270C 224.975,269.576 222.975,268.41 221.5,266.5C 222.639,262.699 223.472,258.699 224,254.5C 225.399,258.653 226.232,262.986 226.5,267.5C 227.5,267.5 228.5,267.5 229.5,267.5C 230.331,260.851 230.998,254.185 231.5,247.5C 233.777,247.137 234.444,246.137 233.5,244.5C 235.291,243.83 236.958,243.163 238.5,242.5 Z"/></g>
<g><path style="opacity:1" fill="#e1eaf6" d="M 235.5,248.5 C 238.482,248.963 241.482,249.296 244.5,249.5C 244.5,250.5 244.5,251.5 244.5,252.5C 243.167,252.5 241.833,252.5 240.5,252.5C 239.833,257.833 239.167,263.167 238.5,268.5C 237.167,268.5 235.833,268.5 234.5,268.5C 235.606,263.535 236.606,258.535 237.5,253.5C 236.453,251.944 235.786,250.277 235.5,248.5 Z"/></g>
<g><path style="opacity:1" fill="#0b539d" d="M 105.5,246.5 C 107.896,247.829 109.229,249.496 109.5,251.5C 107.614,252.065 105.947,253.065 104.5,254.5C 105.662,261.016 107.662,267.016 110.5,272.5C 108.566,275.247 105.899,277.08 102.5,278C 103.448,278.483 104.448,278.649 105.5,278.5C 96.1824,281.664 87.0157,285.331 78,289.5C 71.9294,281.036 66.0961,272.369 60.5,263.5C 74.6661,255.865 89.6661,250.198 105.5,246.5 Z"/></g>
<g><path style="opacity:1" fill="#0b5198" d="M 270.5,251.5 C 280.757,254.13 290.423,258.13 299.5,263.5C 293.833,272.167 288.167,280.833 282.5,289.5C 277.065,287.143 271.732,284.809 266.5,282.5C 267.239,282.631 267.906,282.464 268.5,282C 267.822,279.658 268.155,277.324 269.5,275C 269.779,267.791 269.446,260.457 268.5,253C 269.416,252.722 270.082,252.222 270.5,251.5 Z"/></g>
<g><path style="opacity:1" fill="#1652ad" d="M 249.5,254.5 C 250.5,254.5 251.5,254.5 252.5,254.5C 251.99,258.884 251.157,263.218 250,267.5C 249.586,267.957 249.086,268.291 248.5,268.5C 247.343,263.747 247.676,259.08 249.5,254.5 Z"/></g>
<g><path style="opacity:1" fill="#0d63c8" d="M 204.5,237.5 C 210.142,238.354 215.809,239.02 221.5,239.5C 227.146,240.608 232.812,241.608 238.5,242.5C 236.958,243.163 235.291,243.83 233.5,244.5C 234.444,246.137 233.777,247.137 231.5,247.5C 230.5,247.5 229.5,247.5 228.5,247.5C 228.447,259.289 227.614,259.289 226,247.5C 224.667,246.167 223.333,246.167 222,247.5C 221.248,253.182 220.415,258.849 219.5,264.5C 219.747,265.713 220.414,266.38 221.5,266.5C 222.975,268.41 224.975,269.576 227.5,270C 226.906,270.464 226.239,270.631 225.5,270.5C 213.667,269.397 202,268.064 190.5,266.5C 194.182,266.665 197.848,266.499 201.5,266C 200.584,265.722 199.918,265.222 199.5,264.5C 203.338,264.993 205.338,263.326 205.5,259.5C 203.082,255.738 201.082,251.738 199.5,247.5C 201.5,248.167 203.5,248.833 205.5,249.5C 205.703,247.61 205.037,246.11 203.5,245C 200.829,244.167 198.496,244.667 196.5,246.5C 193.985,242.556 190.318,240.056 185.5,239C 192.013,238.828 198.347,238.328 204.5,237.5 Z"/></g>
<g><path style="opacity:1" fill="#e8f0fa" d="M 211.5,245.5 C 212.833,245.5 214.167,245.5 215.5,245.5C 216.139,252.148 216.473,258.814 216.5,265.5C 215.5,265.5 214.5,265.5 213.5,265.5C 213.5,263.833 213.5,262.167 213.5,260.5C 210.09,260.384 208.756,262.05 209.5,265.5C 208.5,265.5 207.5,265.5 206.5,265.5C 207.541,258.669 209.208,252.002 211.5,245.5 Z"/></g>
<g><path style="opacity:1" fill="#4f85d7" d="M 212.5,250.5 C 213.8,253.024 213.8,255.691 212.5,258.5C 211.271,255.801 211.271,253.135 212.5,250.5 Z"/></g>
<g><path style="opacity:1" fill="#184a9f" d="M 177.5,269.5 C 177.5,273.5 177.5,277.5 177.5,281.5C 174.941,281.198 172.607,281.532 170.5,282.5C 159.005,285.69 153.672,293.357 154.5,305.5C 153.686,303.369 153.186,301.036 153,298.5C 152.626,299.416 152.126,300.25 151.5,301C 146.364,302.596 141.531,304.763 137,307.5C 135.981,306.313 134.814,305.313 133.5,304.5C 132.893,304.624 132.56,304.957 132.5,305.5C 126.833,300.5 121.5,295.167 116.5,289.5C 113.363,286.701 111.029,283.368 109.5,279.5C 131.781,272.437 154.447,269.104 177.5,269.5 Z"/></g>
<g><path style="opacity:1" fill="#4a4a4c" d="M 177.5,269.5 C 189.55,269.432 201.55,270.099 213.5,271.5C 211.031,272.317 208.365,272.817 205.5,273C 203.772,274.726 201.772,276.059 199.5,277C 194.192,277.657 189.359,279.49 185,282.5C 182.566,281.678 180.066,281.344 177.5,281.5C 177.5,277.5 177.5,273.5 177.5,269.5 Z"/></g>
<g><path style="opacity:1" fill="#2a2b2f" d="M 213.5,271.5 C 220.123,272.715 226.789,273.715 233.5,274.5C 236.21,276.108 239.21,277.275 242.5,278C 240.5,278.333 238.5,278.667 236.5,279C 224.167,284.667 211.833,290.333 199.5,296C 198.874,296.75 198.374,297.584 198,298.5C 195.154,289.982 189.487,284.649 181,282.5C 180.235,282.57 179.735,282.903 179.5,283.5C 176.5,283.5 173.5,283.5 170.5,283.5C 170.5,283.167 170.5,282.833 170.5,282.5C 172.607,281.532 174.941,281.198 177.5,281.5C 180.066,281.344 182.566,281.678 185,282.5C 189.359,279.49 194.192,277.657 199.5,277C 201.772,276.059 203.772,274.726 205.5,273C 208.365,272.817 211.031,272.317 213.5,271.5 Z"/></g>
<g><path style="opacity:1" fill="#212224" d="M 236.5,273.5 C 238.717,274.369 241.05,274.702 243.5,274.5C 243.5,274.833 243.5,275.167 243.5,275.5C 242.448,275.351 241.448,275.517 240.5,276C 244.874,277.633 249.208,279.133 253.5,280.5C 251.983,280.511 250.816,281.177 250,282.5C 239.933,295.401 228.433,306.734 215.5,316.5C 209.655,319.921 203.988,323.587 198.5,327.5C 192.536,330.436 186.536,333.436 180.5,336.5C 178.402,337.914 177.402,337.248 177.5,334.5C 177.5,331.167 177.5,327.833 177.5,324.5C 164.638,324.294 156.971,317.961 154.5,305.5C 153.672,293.357 159.005,285.69 170.5,282.5C 170.5,282.833 170.5,283.167 170.5,283.5C 167.91,284.128 165.577,285.295 163.5,287C 165.107,286.981 166.774,286.815 168.5,286.5C 168.657,287.873 168.49,289.207 168,290.5C 166.293,292.037 164.793,293.704 163.5,295.5C 160.007,295.204 158.84,293.537 160,290.5C 155.608,296.12 154.774,302.12 157.5,308.5C 157.955,312.742 159.955,316.075 163.5,318.5C 163.611,319.117 163.944,319.617 164.5,320C 169.5,320.667 174.5,320.667 179.5,320C 181.117,318.908 182.117,317.408 182.5,315.5C 185.501,313.489 188.501,311.489 191.5,309.5C 196.965,301.288 195.965,293.788 188.5,287C 186.655,285.872 184.655,285.372 182.5,285.5C 182.027,284.094 181.027,283.427 179.5,283.5C 179.735,282.903 180.235,282.57 181,282.5C 189.487,284.649 195.154,289.982 198,298.5C 198.374,297.584 198.874,296.75 199.5,296C 211.833,290.333 224.167,284.667 236.5,279C 238.5,278.667 240.5,278.333 242.5,278C 239.21,277.275 236.21,276.108 233.5,274.5C 234.791,274.737 235.791,274.404 236.5,273.5 Z"/></g>
<g><path style="opacity:1" fill="#23201d" d="M 218.5,237.5 C 220.167,237.5 221.833,237.5 223.5,237.5C 237.295,239.804 250.962,242.97 264.5,247C 266.5,247.667 268.5,247.667 270.5,247C 271.256,245.62 271.922,245.453 272.5,246.5C 271.438,247.575 271.438,248.575 272.5,249.5C 277.337,250.87 282.004,252.537 286.5,254.5C 292.313,256.158 297.813,258.491 303,261.5C 303.667,262.5 303.667,263.5 303,264.5C 300.71,267.58 298.543,270.747 296.5,274C 305.509,279.171 314.509,284.337 323.5,289.5C 314.992,291.935 306.326,293.601 297.5,294.5C 298.501,302.51 298.501,310.51 297.5,318.5C 293.97,315.805 290.304,313.305 286.5,311C 278.343,307.088 270.343,302.922 262.5,298.5C 264.246,294.673 266.246,291.007 268.5,287.5C 268.376,286.893 268.043,286.56 267.5,286.5C 267.027,285.094 266.027,284.427 264.5,284.5C 260.725,283.445 257.058,282.112 253.5,280.5C 249.208,279.133 244.874,277.633 240.5,276C 241.448,275.517 242.448,275.351 243.5,275.5C 251.328,277.373 258.995,279.706 266.5,282.5C 271.732,284.809 277.065,287.143 282.5,289.5C 288.167,280.833 293.833,272.167 299.5,263.5C 290.423,258.13 280.757,254.13 270.5,251.5C 265.304,249.435 259.971,247.768 254.5,246.5C 249.319,244.577 243.986,243.244 238.5,242.5C 232.812,241.608 227.146,240.608 221.5,239.5C 220.048,238.698 218.382,238.198 216.5,238C 217.094,237.536 217.761,237.369 218.5,237.5 Z"/></g>
<g><path style="opacity:1" fill="#0566ca" d="M 296.5,277.5 C 302.743,280.414 308.743,283.747 314.5,287.5C 310.27,288.974 305.936,289.974 301.5,290.5C 299.455,290.166 297.789,289.832 296.5,289.5C 296.923,286.397 297.923,283.564 299.5,281C 297.999,279.748 296.332,278.748 294.5,278C 295.094,277.536 295.761,277.369 296.5,277.5 Z"/></g>
<g><path style="opacity:1" fill="#7e7e80" d="M 109.5,279.5 C 111.029,283.368 113.363,286.701 116.5,289.5C 115.355,290.793 115.689,291.959 117.5,293C 116.874,293.75 116.374,294.584 116,295.5C 114.867,293.789 113.367,293.289 111.5,294C 108.98,295.697 106.647,297.53 104.5,299.5C 103.167,298.833 102.167,297.833 101.5,296.5C 103.636,293.534 106.303,291.034 109.5,289C 107.848,286.677 106.181,284.344 104.5,282C 105.056,281.617 105.389,281.117 105.5,280.5C 106.959,280.567 108.292,280.234 109.5,279.5 Z"/></g>
<g><path style="opacity:1" fill="#5e5e5f" d="M 105.5,280.5 C 105.389,281.117 105.056,281.617 104.5,282C 106.181,284.344 107.848,286.677 109.5,289C 106.303,291.034 103.636,293.534 101.5,296.5C 98.1021,293.373 95.4354,289.707 93.5,285.5C 97.5846,284.139 101.585,282.473 105.5,280.5 Z"/></g>
<g><path style="opacity:1" fill="#f6f6f6" d="M 170.5,283.5 C 173.5,283.5 176.5,283.5 179.5,283.5C 181.027,283.427 182.027,284.094 182.5,285.5C 182.833,286.833 183.167,288.167 183.5,289.5C 177.583,290.668 175.916,294.001 178.5,299.5C 176.852,300.81 175.186,302.143 173.5,303.5C 170.944,302.949 168.611,301.949 166.5,300.5C 165.914,300.709 165.414,301.043 165,301.5C 164.187,299.564 163.687,297.564 163.5,295.5C 164.793,293.704 166.293,292.037 168,290.5C 168.49,289.207 168.657,287.873 168.5,286.5C 166.774,286.815 165.107,286.981 163.5,287C 165.577,285.295 167.91,284.128 170.5,283.5 Z"/></g>
<g><path style="opacity:1" fill="#0a56a5" d="M 296.5,277.5 C 295.761,277.369 295.094,277.536 294.5,278C 296.332,278.748 297.999,279.748 299.5,281C 297.923,283.564 296.923,286.397 296.5,289.5C 297.789,289.832 299.455,290.166 301.5,290.5C 299.039,291.531 296.373,292.198 293.5,292.5C 294.443,299.144 294.609,305.811 294,312.5C 285.536,307.017 276.702,302.184 267.5,298C 272.97,295.38 278.636,293.213 284.5,291.5C 287.5,286.833 290.5,282.167 293.5,277.5C 294.614,276.224 295.614,276.224 296.5,277.5 Z"/></g>
<g><path style="opacity:1" fill="#1f1f1d" d="M 183.5,289.5 C 190.505,293.13 191.171,297.464 185.5,302.5C 183.112,301.651 180.779,300.651 178.5,299.5C 175.916,294.001 177.583,290.668 183.5,289.5 Z"/></g>
<g><path style="opacity:0.902" fill="#24201d" d="M 177.5,234.5 C 182.511,234.334 187.511,234.501 192.5,235C 185.654,235.172 178.987,235.672 172.5,236.5C 160.051,236.265 147.717,237.265 135.5,239.5C 125.341,241.541 115.341,243.875 105.5,246.5C 89.6661,250.198 74.6661,255.865 60.5,263.5C 66.0961,272.369 71.9294,281.036 78,289.5C 87.0157,285.331 96.1824,281.664 105.5,278.5C 114.831,275.504 124.165,272.837 133.5,270.5C 140.969,269.494 148.302,268.494 155.5,267.5C 167.144,266.639 178.81,266.305 190.5,266.5C 202,268.064 213.667,269.397 225.5,270.5C 228.916,272.024 232.583,273.024 236.5,273.5C 235.791,274.404 234.791,274.737 233.5,274.5C 226.789,273.715 220.123,272.715 213.5,271.5C 201.55,270.099 189.55,269.432 177.5,269.5C 154.447,269.104 131.781,272.437 109.5,279.5C 108.292,280.234 106.959,280.567 105.5,280.5C 101.585,282.473 97.5846,284.139 93.5,285.5C 92.7109,285.783 92.0442,286.283 91.5,287C 94.0925,291.001 95.9259,295.168 97,299.5C 84.8089,304.677 73.3089,311.01 62.5,318.5C 61.7273,310.522 61.7273,302.522 62.5,294.5C 53.7882,293.323 45.1215,291.823 36.5,290C 45.335,284.415 54.335,279.081 63.5,274C 60.6095,270.048 58.4428,265.881 57,261.5C 62.637,258.93 68.137,256.264 73.5,253.5C 79.1134,252.435 84.4467,250.769 89.5,248.5C 107.69,243 126.023,238.667 144.5,235.5C 155.493,234.992 166.493,234.658 177.5,234.5 Z"/></g>
<g><path style="opacity:1" fill="#0c5198" d="M 75.5,291.5 C 81.2573,293.199 86.9239,295.366 92.5,298C 83.3491,302.073 74.6825,306.906 66.5,312.5C 65.1863,307.348 65.1863,302.348 66.5,297.5C 66.3347,301.182 66.5014,304.848 67,308.5C 70.4927,303.091 72.4927,297.091 73,290.5C 73.8382,291.999 74.6715,292.332 75.5,291.5 Z"/></g>
<g><path style="opacity:1" fill="#085eb7" d="M 75.5,291.5 C 74.6715,292.332 73.8382,291.999 73,290.5C 72.4927,297.091 70.4927,303.091 67,308.5C 66.5014,304.848 66.3347,301.182 66.5,297.5C 66.5,295.833 66.5,294.167 66.5,292.5C 59.6156,291.446 52.9489,289.779 46.5,287.5C 52.5462,283.618 58.7129,279.952 65,276.5C 68.9921,281.149 72.4921,286.149 75.5,291.5 Z"/></g>
<g><path style="opacity:1" fill="#9b9c9c" d="M 116.5,289.5 C 121.5,295.167 126.833,300.5 132.5,305.5C 137.059,308.939 141.392,312.606 145.5,316.5C 142.384,316.968 139.384,316.468 136.5,315C 139.042,317.711 141.709,320.211 144.5,322.5C 141.299,324.262 138.299,326.262 135.5,328.5C 131.247,326.25 127.58,323.25 124.5,319.5C 127.438,318.063 129.938,316.063 132,313.5C 133.281,314.647 133.614,314.313 133,312.5C 127.031,307.533 121.365,302.199 116,296.5C 113.798,299.355 110.964,301.355 107.5,302.5C 105.856,302.19 104.856,301.19 104.5,299.5C 106.647,297.53 108.98,295.697 111.5,294C 113.367,293.289 114.867,293.789 116,295.5C 116.374,294.584 116.874,293.75 117.5,293C 115.689,291.959 115.355,290.793 116.5,289.5 Z"/></g>
<g><path style="opacity:0.972" fill="#ededed" d="M 124.5,319.5 C 117.812,314.812 112.146,309.146 107.5,302.5C 110.964,301.355 113.798,299.355 116,296.5C 121.365,302.199 127.031,307.533 133,312.5C 133.614,314.313 133.281,314.647 132,313.5C 129.938,316.063 127.438,318.063 124.5,319.5 Z"/></g>
<g><path style="opacity:1" fill="#cccccc" d="M 163.5,295.5 C 163.687,297.564 164.187,299.564 165,301.5C 165.414,301.043 165.914,300.709 166.5,300.5C 168.611,301.949 170.944,302.949 173.5,303.5C 175.186,302.143 176.852,300.81 178.5,299.5C 180.779,300.651 183.112,301.651 185.5,302.5C 183.76,306.979 181.76,311.313 179.5,315.5C 178.5,315.5 177.5,315.5 176.5,315.5C 175.71,314.599 174.71,313.932 173.5,313.5C 172.908,310.873 172.575,308.206 172.5,305.5C 169.447,305.319 166.447,305.152 163.5,305C 162.418,306.33 161.751,307.83 161.5,309.5C 160.041,309.567 158.708,309.234 157.5,308.5C 154.774,302.12 155.608,296.12 160,290.5C 158.84,293.537 160.007,295.204 163.5,295.5 Z"/></g>
<g><path style="opacity:1" fill="#222220" d="M 173.5,313.5 C 167.642,318.318 163.642,316.985 161.5,309.5C 161.751,307.83 162.418,306.33 163.5,305C 166.447,305.152 169.447,305.319 172.5,305.5C 172.575,308.206 172.908,310.873 173.5,313.5 Z"/></g>
<g><path style="opacity:1" fill="#053796" d="M 154.5,305.5 C 156.971,317.961 164.638,324.294 177.5,324.5C 177.5,327.833 177.5,331.167 177.5,334.5C 177.167,334.5 176.833,334.5 176.5,334.5C 165.648,329.246 155.314,323.246 145.5,316.5C 141.392,312.606 137.059,308.939 132.5,305.5C 132.56,304.957 132.893,304.624 133.5,304.5C 134.814,305.313 135.981,306.313 137,307.5C 141.531,304.763 146.364,302.596 151.5,301C 152.126,300.25 152.626,299.416 153,298.5C 153.186,301.036 153.686,303.369 154.5,305.5 Z"/></g>
<g><path style="opacity:1" fill="#999a9a" d="M 182.5,285.5 C 184.655,285.372 186.655,285.872 188.5,287C 195.965,293.788 196.965,301.288 191.5,309.5C 188.501,311.489 185.501,313.489 182.5,315.5C 181.5,315.5 180.5,315.5 179.5,315.5C 181.76,311.313 183.76,306.979 185.5,302.5C 191.171,297.464 190.505,293.13 183.5,289.5C 183.167,288.167 182.833,286.833 182.5,285.5 Z"/></g>
<g><path style="opacity:1" fill="#8d8e90" d="M 253.5,280.5 C 257.058,282.112 260.725,283.445 264.5,284.5C 259.292,286.437 254.292,288.937 249.5,292C 240.833,300 232.167,308 223.5,316C 220.905,316.226 218.405,316.726 216,317.5C 215.601,317.272 215.435,316.938 215.5,316.5C 228.433,306.734 239.933,295.401 250,282.5C 250.816,281.177 251.983,280.511 253.5,280.5 Z"/></g>
<g><path style="opacity:1" fill="#8b8b8b" d="M 157.5,308.5 C 158.708,309.234 160.041,309.567 161.5,309.5C 163.642,316.985 167.642,318.318 173.5,313.5C 174.71,313.932 175.71,314.599 176.5,315.5C 176.586,316.496 176.252,317.329 175.5,318C 171.514,318.499 167.514,318.666 163.5,318.5C 159.955,316.075 157.955,312.742 157.5,308.5 Z"/></g>
<g><path style="opacity:1" fill="#595959" d="M 176.5,315.5 C 177.5,315.5 178.5,315.5 179.5,315.5C 180.5,315.5 181.5,315.5 182.5,315.5C 182.117,317.408 181.117,318.908 179.5,320C 174.5,320.667 169.5,320.667 164.5,320C 163.944,319.617 163.611,319.117 163.5,318.5C 167.514,318.666 171.514,318.499 175.5,318C 176.252,317.329 176.586,316.496 176.5,315.5 Z"/></g>
<g><path style="opacity:1" fill="#7a7a7c" d="M 264.5,284.5 C 266.027,284.427 267.027,285.094 267.5,286.5C 263.206,292.129 258.539,297.463 253.5,302.5C 253.565,302.062 253.399,301.728 253,301.5C 235.115,312.529 217.282,323.695 199.5,335C 198.931,337.903 197.265,339.903 194.5,341C 186.399,342.656 179.732,346.489 174.5,352.5C 169.24,350.201 164.24,347.534 159.5,344.5C 163.539,342.481 167.539,340.481 171.5,338.5C 174.247,339.956 177.08,341.289 180,342.5C 189.315,338.592 198.148,333.758 206.5,328C 204.899,327.727 203.399,327.227 202,326.5C 201.184,327.823 200.017,328.489 198.5,328.5C 198.5,328.167 198.5,327.833 198.5,327.5C 203.988,323.587 209.655,319.921 215.5,316.5C 215.435,316.938 215.601,317.272 216,317.5C 218.405,316.726 220.905,316.226 223.5,316C 232.167,308 240.833,300 249.5,292C 254.292,288.937 259.292,286.437 264.5,284.5 Z"/></g>
<g><path style="opacity:1" fill="#7a797a" d="M 145.5,316.5 C 155.314,323.246 165.648,329.246 176.5,334.5C 176.44,335.043 176.107,335.376 175.5,335.5C 169.51,332.84 163.844,329.674 158.5,326C 151.262,324.534 150.262,325.7 155.5,329.5C 151.879,331.131 148.879,333.465 146.5,336.5C 142.264,334.555 138.597,331.888 135.5,328.5C 138.299,326.262 141.299,324.262 144.5,322.5C 141.709,320.211 139.042,317.711 136.5,315C 139.384,316.468 142.384,316.968 145.5,316.5 Z"/></g>
<g><path style="opacity:1" fill="#4d4b4c" d="M 176.5,334.5 C 176.833,334.5 177.167,334.5 177.5,334.5C 177.402,337.248 178.402,337.914 180.5,336.5C 180.56,337.043 180.893,337.376 181.5,337.5C 187.383,334.727 193.05,331.727 198.5,328.5C 200.017,328.489 201.184,327.823 202,326.5C 203.399,327.227 204.899,327.727 206.5,328C 198.148,333.758 189.315,338.592 180,342.5C 177.08,341.289 174.247,339.956 171.5,338.5C 166.167,335.5 160.833,332.5 155.5,329.5C 150.262,325.7 151.262,324.534 158.5,326C 163.844,329.674 169.51,332.84 175.5,335.5C 176.107,335.376 176.44,335.043 176.5,334.5 Z"/></g>
<g><path style="opacity:1" fill="#3d597c" d="M 198.5,327.5 C 198.5,327.833 198.5,328.167 198.5,328.5C 193.05,331.727 187.383,334.727 181.5,337.5C 180.893,337.376 180.56,337.043 180.5,336.5C 186.536,333.436 192.536,330.436 198.5,327.5 Z"/></g>
<g><path style="opacity:1" fill="#969797" d="M 253.5,302.5 C 234.007,324.76 210.673,341.927 183.5,354C 180.177,354.932 177.177,354.432 174.5,352.5C 179.732,346.489 186.399,342.656 194.5,341C 197.265,339.903 198.931,337.903 199.5,335C 217.282,323.695 235.115,312.529 253,301.5C 253.399,301.728 253.565,302.062 253.5,302.5 Z"/></g>
<g><path style="opacity:0.98" fill="#a2a3a3" d="M 155.5,329.5 C 160.833,332.5 166.167,335.5 171.5,338.5C 167.539,340.481 163.539,342.481 159.5,344.5C 154.657,342.582 150.323,339.916 146.5,336.5C 148.879,333.465 151.879,331.131 155.5,329.5 Z"/></g>
</svg>
