<?xml version="1.0" encoding="UTF-8"?>
<svg id="Layer_1" data-name="Layer 1" xmlns="http://www.w3.org/2000/svg" viewBox="0 0 1000 1000">
  <defs>
    <style>
      .cls-1 {
        fill: #93bde3;
      }

      .cls-2 {
        fill: #f6f9fc;
      }

      .cls-3 {
        fill: #95afaa;
      }

      .cls-4 {
        fill: #7da2c7;
      }

      .cls-5 {
        fill: #94bbd9;
      }

      .cls-6 {
        fill: #480226;
      }

      .cls-7 {
        fill: #92bce3;
      }

      .cls-8 {
        fill: #82a6c5;
      }

      .cls-9 {
        fill: #9fc4e6;
      }

      .cls-10 {
        fill: #490327;
      }

      .cls-11 {
        fill: #94bce3;
      }

      .cls-12 {
        fill: #490426;
      }

      .cls-13 {
        fill: #490326;
      }

      .cls-14 {
        fill: #7a99b4;
      }

      .cls-15 {
        fill: #f9fbfd;
      }

      .cls-16 {
        fill: #7da3c7;
      }

      .cls-17 {
        fill: #8eafd6;
      }

      .cls-18 {
        fill: #92bae1;
      }

      .cls-19 {
        fill: #7ea3c7;
      }

      .cls-20 {
        fill: #ededed;
      }

      .cls-21 {
        fill: #94bcdf;
      }

      .cls-22 {
        fill: #f8fafc;
      }

      .cls-23 {
        fill: #7fa3c5;
      }

      .cls-24 {
        fill: #9ec4e6;
      }

      .cls-25 {
        fill: #480024;
      }

      .cls-26 {
        fill: #fde307;
      }

      .cls-27 {
        fill: #a8cae8;
      }

      .cls-28 {
        fill: #8dadd4;
      }

      .cls-29 {
        fill: #fdfdfd;
      }

      .cls-30 {
        fill: #7ea4c6;
      }

      .cls-31 {
        fill: #490125;
      }
    </style>
  </defs>
  <path class="cls-25" d="M843.55,86.17l.35,639.11c-10.19,153.35-184.02,155.8-289.53,200.63-21.58,9.17-36.07,28.64-53.73,43.28-2.8.49-29.23-26.48-33.98-30.22-16.68-13.13-34.25-17.56-54.11-23.78-98.8-30.97-240.01-52.94-256.44-178.62l.22-650.41c55.78-18.72,113.48-32.07,171.93-39.9,170.97-22.93,351.08-13.06,515.29,39.92Z"/>
  <path class="cls-20" d="M433.06,57.97c110.43-4.79,277.78,2.61,381.38,41.17,3.58,1.33,8.1,2.11,8.48,6.72l.08,617.53c-2.51,83.39-78,120.11-146.8,143.87-60.53,20.9-132.07,25.16-177.2,73.55-13.34-14.55-28.22-27.29-46.58-35.08-95.16-40.41-256.07-41.23-275.41-172.95l.28-628.51c1.49-4.39,24.27-9.97,30.09-11.7,67.92-20.16,154.75-31.52,225.69-34.59Z"/>
  <path class="cls-31" d="M807.53,110.79c.82,39.5-.42,79.11.11,118.64,2.05,154.37,7.82,317.12,2.06,471.16-.56,15.01-1.27,36.18-4.85,50.25-16.3,64.07-99.04,93.01-155.26,110.72-50.37,15.87-110.74,21.38-148.95,60.15-18.42-16.97-36.4-26.58-60.03-34.56-85.8-29-242.55-46.72-250.41-161.86,6.18-193.05-7.94-390.93-.01-583.42.42-10.15,3.28-20.47,2.19-31.07,198.6-54.85,416.44-54.1,615.16,0Z"/>
  <path class="cls-7" d="M205.56,120.19c29.05-5.72,57.75-13.3,86.95-18.48,164.11-29.13,340.32-23.25,501.07,20.19l.82,612.79c-11.61,69.34-90.11,94.96-148.61,113.57-49.58,15.77-104.11,22.27-146.44,54.34-45.92-34.42-107.41-41.21-161.3-59.2-49.41-16.5-127.44-48.39-132.66-108.62l.16-614.58Z"/>
  <path class="cls-26" d="M406.85,230.29c-.94.39-3.32-1.17-3.88,1.19-.79,3.3.68,8.42.06,12.11-.93,1.28-16.5-9.91-18-13.32-1.66-3.77-.33-10.29-1.21-11.25-.36-.39-8.93.44-6.46-5.85,1.62-4.12,19.37-14.92,23.88-19.83,5.07-5.52,6.87-11.27,13.19-17.21,4.09-3.85,12.14-7.61,15.26-11.34,4.25-5.07,4.21-13.27,8.63-19.87,5.16-7.72,17.53-15.38,24.69-22.89,1.92-2.01,2.52-5.52,2.77-5.72,4.16-3.5,8.49,12.03,7.58,15.18,14.77-14.48,33.75-15.76,53.17-11.38l-7.6,9.46c22.11-3.67,33.45,4.66,51.29,13.32,11.03,8.21,21.33,17.72,30.88,28.51,13.46,5.18,17.81,14.48,1.04,18.89,4.75,12.35,9.84,24.46,15.27,36.33,13.78,11.75,3.9,14.51-9.48,15.89-.87,7.48-2.05,14.92-3.52,22.3,9.64,13.45,14.76,23.66-7.45,18.08.49,12.35-.28,24.85-2.32,37.5,7.37,17.53,6.79,24.89-14.63,17.46-14.14,31.68-1.42,59.37,14.18,88.1l6.68,24.47c9.21,3.18,16.09,7.69,20.64,13.53l3.61-2.52c46.89,26.68,73.35-15.32,34.8-52.56-17.52-16.7-31.74-35.39-42.66-56.06l2.35-4.74c-9.58-4.99-7.96-27.61-5.8-37.36l3.9-2.54c.7-9.75,3.87-15.45,9.5-17.1-3.17-4.47-.87-6.39,3.8-3.8,1.85-1.89,7.16-3.15,7.64-5.14,2.75-11.32-2.25-19.45,6.74-32.73,7.3-10.78,19.08-11.61,26.47-19.12,3.41-3.46,4.33-9.06,4.78-9.5,5.77-5.77,2.66,14.74,4.71,15.18,11.74-9.98,28.63-14.59,34.2-30.38,6.57,5.23-.02,12.71,1.9,18.98,12.53-6.16,20.85-10.04,24.7-24.68,5.15,2.31,5.41,25.26,4.76,30.39l3.3,3.42c-3.16,14.69-10.13,28.44-18.96,40.51,19.95,2.69,14.6,14.57-2.04,16.43-16.18,14.13-31.78,26.94-54.61,18.14l-5.17.91c-39.94-22.86-35.8,36.29-15.31,54.18,31.27,28.76,80.53,87.61,30.24,123.2-14.16,10.02-29.67,12.61-45.74,5.39-5.77-2.35-12.15-3.5-17.1-5.7l-3.66,2.36c-5.72-4.04-11.8-7.3-18.24-9.77-7.34,21.58-13.39,49.49,15.46,56.35l4.54,4.25c5.47.11,10.5.43,15.31-2.74l16.96-14.35c3.56,9.8,2.27,17.42-1.87,26.59,2.33,3.35,8.47,2.66,18.44-2.06,8.97,5.68-10.79,29.52-17.56,32.95,4.16,1.37,6.65,4.19,4.29,8.15-15.19,14.86-26.73,31.03-35.6,49.84-5.09,9.06-14.7,20.42-21.43,7.14-12.66,8.49-23.74,19.9-33.25,34.24-15.48,13.92-25.44,14.18-44.08,6.53-3.33,2.64-5.04,7.91-9.48,9.5-.6-2.92.84-14.19-.1-15.12-.32-.32-6.18-.15-8.92-1.49-2.57-1.26-5.76-5.6-7.12-5.71-3.6-.3-8.88,7.73-12.36,9.03-5.25-8.4,9.8-21.03,9.37-23.51-1.44-8.23-11.76-2.74-15.07.71-1.72-10.6,5.6-13.48,10.33-19.14,3.57-4.28,3.19-9.99,11.68-11.24,3.82-.56,7.44,1.42,10.5.87s5.76-4.37,9.89-4.22c5.99.22,9.05,6.16,13.66,7.08,16.78,3.33,33.01-10.84,42.72-22.76l-1.48-2.2c11.71-18.32,14.29-24.27-10.44-24.79-.08,7.01-2.44,10.31-7.08,9.89-1.62,2.46-14.38,11.98-17.09,9.49,2.28-5.96,1.76-10.76-2.15-15.89-6.59-8.64-12,4.54-18.08,8.08-3.39,1.98-5.78,1.28-8.27,2.13-8.39,2.04-4.66-8.67,1.9-7.6-2.73-3.76-4.88-8.41-6.45-13.98-8.39-7.35-12.57-15.35-12.55-24.02-9.25-2.91-6.06-17.99-4.24-25.93-26.28,9.48-25.25,46.12,3.5,49.36l2.64,3.17c4.53,6.42-5.35,12.15-11.13,14.19,6.83,8.33-4.58,16.95-13.93,15.88-19.19-6.22-32.89-3.86-48.03,9.12-2.93-.42-5.82-.35-8.61.71-1.14.6-4.67.36-7.6,1.9-5.19,4.01-9.21.89-12.07-9.36-13.87,3.84-27.48,10.1-40.82,18.77-5.87,1.86-14.78,4.57-17.41-1.82-5.1-.4-12.58-4.19-14.08-3.76-4.21,1.19-2.58,10.56-6.79,11.35-4.01-5.88-.05-22.86-2.23-26.28-.35-.56-11.16-5.98-11.81-5.87-3.41.59-4.96,8.46-8.76,9.37-5.65-14.87,7.3-19.85,7.57-34.18l-11.37,5.69c-1.65-15.04,8.81-20.93,22.77-19.01.42-6.8-6.59-5.92-11.38-5.7-.4-5.14,6.25-8.9,10.61-9.45,3.47-.44,21.1,3.83,24.98,5.22,10.33,3.69,14.53,15.42,28.22,17.38,11.28,1.61,40.49-1.62,48.33-10.23,13.16-14.44-7.14-28.17-13.74-39.55-1.77-3.05-3.18-10.28-3.6-10.64-1.21-1.04-8.8.72-13.08-1.19-.93-.42-9.18-8.71-9.51-9.49-1.79-4.26,2.74-2.31,4.29-2.26,4.37.14,7.97,1.32,12.78-.58l-15.19-11.38c-5.24-2.74-3.87-8.16,1.9-9.5,8.35.12,15.18-4.28,20.47-13.21,14.47-7.68,30.85-11.23,49.14-10.65,13.97-.44,13.93-6.08-.12-16.92l-1.09-6.72c-4.85-.6-8.94-3.68-12.27-9.23-36.81,5.48-77.01,12.08-78.77,55.79l-9.64,18.03c-.52.18-1.25-.13-1.9,0-5.9-2.44-11.35-8.71-13.3-15.2-.51-.57,1.05-3.91-.94-3.79-1.58,5.79-15.36,7.05-15.97,7.77-.72.83,1.15,14.21-3.96,9.31-5.58-5.35-1.49-26.99-4.12-30.12-.51-.61-4.86-.46-7.43-2.97-4.1-4.01-2.2-14.09-13.77-6.9-2.05,1.28-2.11,5.49-5.08,5.81-1.39-16.49,7.72-14.79,16.15-20.87,9.16-6.59,2.19-20.18-8.55-11.43-1.9-18.25,22.72-22.41,34.82-14.88,4.89,3.05,7.86,9.76,14.58,8.38,3.72-.76,60.78-41.95,60.74-45.75-4.56-3.35-18.13-18.45-21.84-19.93-4.1-1.64-3.97,8.34-7.57,9.45-6.07-13.02-10.57-21.22-21.85-30.36l-5.07.5c-11.14-9.86-23.29-10.48-33.79.71-4.74,3.9-8.25,4.12-10.54.68-11.13,3.1-22.22,3.35-24.72-10.44-1.17-6.44,6.64,1.96,9.59.13,2.23-1.38,2.45-6.37,4.22-8.19,4.74-4.87,13.62-.21,10.9-12.81-1.88-8.72-14.17-3.06-21.45-5.19s-10.77-12.34-22.23-1.5c-3.4-13.19,8.36-13,12.8-17.58,1.33-1.37,1.76-4.72,3.44-7.06,1-1.38,4.58-1.59,4.74-3.09.25-2.41-3.3-9.43-5.81-11.19-2.62-5.66-14.44,1.3-13.32-3.85,3.2-14.74,24.15-4.43,34.1-10.55,3.6-12.64-9.64-13.42-11.28-15.09-4.49-4.58,11.32-9.54,21.04-1.03,5.28,4.63.11,5.3,9.36,6.74,4.73.98,7.23,4.43,7.51,10.38.05,21.55,7.83,34,23.34,37.33l5.25,5.49c25.16,10.39,45.91,29.69,75.99,28.52-2.06,1.76-3.05,6.63-3.8,7.58.43.96,1.08.87,1.9,0,7.22-8.42,15.44-22.22,22.8-28.5l.5-5.01c37.37-15.05,28.5-54.13-5.91-11.11l-4.09.92-7.58-3.8-.96,11.39c-17.58-8.86-15.65-20.93-18.05-37.97,8.42,3.28,7.94,5.2,17.09,1.89l.97-4.41c14.89-12.53,9.39-21.17-9.77-14.14l-4.5-2.34Z"/>
  <path class="cls-4" d="M746.92,230.29c1.08,3.83,5.84.14,7.48-1.07,7.24-5.34,8.13-10.81,12.47-17.92.55-.26,2.84,4.46,2.84,4.74v32.3c0,8.76-12.82,30.7-18.99,38.01,25.57,9.28,9.48,7.02-2.56,14.54-5.85,3.66-9.8,9.89-17.06,13.33-14.48,6.87-24.01,5.67-38.98,2.2-14.4-3.33-19.42-13.54-28.46,4.45-28.3,56.34,79,87.28,59.53,150.72-9.21,30.03-37.92,36.3-65.59,29.43-8.25-2.05-12.81-6.05-18.98-8.56,44.76,7.94,76.18-29.09,57.36-71.61-15.1-34.12-74.81-63.66-58.28-106.94,8.64-22.61,14.94-11.92,30.93-8.2,14.59,3.39,25.86,4.25,39.39-3.17,6.83-3.74,13.88-12.78,20.37-15.73,2.31-1.05,20.51-2.96,8.53-7.61-4.52-1.75-8.59-.82-12.81-2.37,10.03-10.82,20.94-32.03,22.79-46.56Z"/>
  <path class="cls-4" d="M570.24,142.9c4.75,2.31,10.64,2.56,16.98,6.76,17.16,11.35,26.58,35.35,47.61,40.76-3.08,6.38-8.2,8.64-15.19,7.59,11.77,14.39,9.59,36.28,24.69,48.44-6.03,4.63-12.39,2.55-18.99.96,6.54,13.32-6.69,28.42,5.7,39.88-.99,1.01-3.37,3.22-3.8,3.8-5.19,1.76-7.63,5.25-7.3,10.45l-2.2,6.65c-.47,16.99-3.89,21.7,1.9,39.9-3.03,3.45-8.74,3.21-17.12-.73-2.31,1.6-6.44,49.43-.17,55.42,9.31,18.34,16.81,37.25,22.48,56.73l-3.29,4.47c-4.56-1.98-21.81-8.27-23.73-11.42s-4.67-19.1-7.12-25.18c-6.62-16.37-18.13-31.83-20.24-50.05-1.95-16.83,3.64-30.09,5.51-46.34,6.28,4.79,12.94,6.48,20.87,5.69-.39-5.13-4.65-6.78-5.58-12.44-2.51-15.32,7.43-31.5-.1-46.44l18.98,3.78c-1-6.96-8.46-8.45-9.46-16.31-1.21-9.53,7.18-17.33,1.87-27.37,2.99.38,18.96.13,19.01-2.86-16-8.71-13.7-32.05-24.67-45.61,2.43-3.45,7.07-2.92,10.16-4.98,8.69-5.79-2.87-6.15-8.38-10.13-10.19-7.34-19.67-22.17-28.42-31.42Z"/>
  <path class="cls-4" d="M650.03,549.47c1.19,3.33,6.08.42,8.01-.53,7.68-3.75,12.69-8.42,15.73-16.56,7.71,10.14,4.28,23.12-2.84,32.27l20.87-2.86c-2.98,11.08-10.45,19.45-19.07,26.56-2.34,1.93-7.19,2.64-7.49,2.95-5.59,5.56,12.91,2.79,13.28,4.71-8.65,8.55-17.44,16.81-24.34,26.96-4.93,7.26-17.56,37.46-25.89,36.82-1.96-.15-1.96-10.03-10.45-6.78-13.98,5.35-22.41,37.02-47.19,44.11-12.06,3.45-19.12-1.86-23.94-.92-3.99.78-6.97,9.81-12.57,9.06,2.45-15.97-2.29-12.24-13.31-18.99,3.62-2.87,8.74,2.4,16.09,1.98,24.83-1.41,31.24-20.32,44.76-35.18,6.25-6.86,18.55-19.05,21.81-4.78,9.18.98,19.21-25.46,24.09-32.91,7.41-11.33,17.19-20.86,26.23-30.77l-13.28-1.88c12.1-8.65,25.15-16.99,26.57-33.26-5.9,3.12-12.29,4.44-18.97,3.79-1.07-3.5,1.67-3.29,1.89-3.79Z"/>
  <path class="cls-4" d="M444.85,429.78c-2.1,4.17-7.11,6.46-15.03,6.87-28.34,4.71-44.72,17.87-49.12,39.46l-4.25,1.16c-1.34,4.27-1.16,6.82-1.9,9.5-1.6,5.8-7.02,11.78-5.72,19-5.53-5.51-11.37-12.56-15.22-19-1.48-1.08-8.58,7.3-9.46,7.6-2.05-8.48,4.61-14.14,6.64-20.91,5.24-17.52.55-25.11,18.22-36.87,18.58-12.37,42.01-17.51,63.96-19.72,3.41.11,8.85,9.64,11.88,12.91Z"/>
  <path class="cls-16" d="M513.24,589.36c-.31,2.05-2.72,4.71-3.76,6.67l1.86.93c-7.66,2.6-9.73,5.92-18.98,0-3.73,3.68,13.58,11.5,17.08,9.52-8.14,14.24-16.94,6.89-27.75,5.89-25.81-2.4-31.33,16.19-54.97,18.75-5.59.61-.25-2.82-.82-6.54-.88-5.81-6.08-7.4-11.46-6.72,14.84-7.83,21.98-18.87,40.65-16.89,10.76,1.14,23.67,9.64,29.64-5.89-6.83.65-13.84-.95-17.1-7.6,12.55,3.65,21.44,2.28,28.5-9.52,4.75-2.44,15.9,6.05,17.1,11.4Z"/>
  <path class="cls-6" d="M507.54,843.94c-4.29-.88-15.96,1.43-18.7-.31-3.75-2.38-13.48-32.43-18.36-37.68-1.16,11.8-5.67,24.36-.94,36.07h-15.19c3.96-16.73,5.97-34.11,5.69-51.29.84-.83,16.82,1.12,18.55,2.35,3.02,2.14,11.23,31.52,17.55,35.65v-36.1l13.3.02c.94.68-1.9,2.42-1.9,2.83v48.45Z"/>
  <path class="cls-13" d="M397.97,828.14c-12.98-15.41.82-45.6,22.84-44.86,24.56.82,36.04,23.31,23.75,44.22-9.2,15.65-36.3,12.86-46.6.64Z"/>
  <path class="cls-10" d="M758.32,756.58c.54,2.64.37,2.42-1.21,3.93-2.89,2.76-10.02,5.83-13.29,9.12-3.55,1.46-2.38-2.31-4.44-4.49-7.91-8.36-8.41-10.48-18.97-1.88-9.69,7.88,2.25,17.29,1.01,19.9-1.07,2.27-13.22,8.88-14.38,7.57-.23-4.63.51-9.42-.21-14.04-1.09-6.97-9.32-34.81-8.75-38.3.27-1.65,15.07-12.44,18.48-11.53,8.38,2.24,29.39,28.64,41.75,29.71Z"/>
  <path class="cls-10" d="M304.12,737.78c1.56,2.21-14.14,44.87-11.27,52.96-2.41-.82-16.53-6.87-17.09-7.62-1.38-1.84,6.9-12.96,5.5-17.72-.33-1.13-11.73-9.34-13.12-9.85-5.01-1.81-13.26,12.33-14.22,12.36-.72.03-11.88-7.05-12.34-7.6-.71-.85-.47-2.65,1.15-3.89,2.22-1.69,8.58-3.66,12.38-6.28,5.47-3.78,25.99-21,29.68-21.76,2.58-.54,18.53,8.26,19.34,9.4Z"/>
  <path class="cls-29" d="M310.46,144.31c3.32,2.74,18.51,1.39,18.47,5.24-14.91,11.3-12.66,15.94-9.48,33.25-14.42-10.67-18.9-9.4-34.17-1.91-1.85-5.15,2.47-13.88,1.59-17.66-.82-3.52-10.56-9.98-12.96-13.67,14.49-5.65,23.17-3.37,26.58-21.84,2.63-1.98,8.73,15.58,9.97,16.6Z"/>
  <path class="cls-16" d="M621.53,486.77c-6.67,17.41-12.19,36.14-1.9,53.2-17.43-.36-30.34-13.75-30.38-31.34,0-3.6,5.93-31.32,7.46-32.46,4.71-3.51,20.04,8.48,24.81,10.61Z"/>
  <path class="cls-13" d="M581.63,785.06c-2.58,7.31-5.19,50.28-7.85,52.92-1.17,1.16-20.07,3.19-22.23,1.84-3.63-2.27-16.42-43.25-23.1-49.06,6.41-.21,13.07,1.17,18.98-1.92l1.83,10.54,15.27,33.15c.64-9.14,2.92-18.47,3.8-27.55,1.21-12.49-5.24-22.45,13.31-19.92Z"/>
  <path class="cls-10" d="M347.94,773.64c-2.18-4.42-18.04-18.18-20.87-8.5-2.13,7.29,22.21,19.95,12.22,34.99-4.92,7.4-13.76,6.41-21.38,4.5-11.79-2.97-25.89-11.06-14.59-23.41,1.22,0,4.01,14.61,17.32,15.17,16.73.7-5.76-19.69-6.82-25.73-4.19-23.98,24.02-20.21,35.14-8.4,4.54,4.83-.46,5.34-1.02,11.36Z"/>
  <path class="cls-16" d="M336.56,627.36c6.05.48,10.46-.12,16.25-1.8,11.29-3.27,35.63-25.5,45.68-17.38,5.5,4.45-1.6,13.75,8.36,11.58-15.07,7.9-29.52,21.87-48.35,18.9-9.7-1.53-13-10.22-16.27,7.69-6.12-3.16-1.91-13.74-5.68-18.98Z"/>
  <path class="cls-10" d="M397.27,777.53c.81.84-.31,7.2.07,9.41l-15.16-5.7c-3.48,14.59-11.37,28.38-11.44,43.7l-18.99-5.72c8.32-12.21,10.88-27.45,16.96-40.86-.28-2.88-12.25-4.46-15.06-4.73l2.03-7.5,41.58,11.4Z"/>
  <path class="cls-12" d="M667.12,754.65c-1.1,5.29,13.62,38.51,15.36,39.77,3.76,2.72,16.53-6.67,17.91-11.26,1.07,1.64,4.35,7.59,4.28,8.57-.25,3.31-28.26,16.6-32.86,17.97-3.88,1.15-2.31-.97-2.73-2.81-3.48-15.35-9.59-30.81-19.01-43.69l17.05-8.54Z"/>
  <path class="cls-10" d="M629.12,769.86c.63,8.99,7.23,35.58,12.38,41.82,2.49,3.02,16.83-4.71,16.16-9.53,15.48,14.35-20.49,19.6-30.42,22.81-2.09-17.06-8.62-33.64-15.21-49.38l17.09-5.71Z"/>
  <path class="cls-16" d="M342.26,287.29c-9.84-4.06-15.48-.06-23.62-11.53-9.44-13.29-5.45-28.53-12.48-41.67,4.31.67,7.37-.72,12.15,2.1,3.49,2.06,3.94,5.46,6.01,7.29,2.49,2.2,6.24,2.13,8.3,5,3.51,4.87,2.75,30.76,9.63,38.81Z"/>
  <path class="cls-19" d="M439.15,294.89c-4.13-3.68-10.08-9.42-9.5-15.2,1.29-12.73,39.82-39.93,37.93-12.59-.54,7.8-6.05,12.51-11.49,17.18-4.46,3.83-13.36,7.55-16.94,10.61Z"/>
  <path class="cls-16" d="M344.16,332.88c-14.18,6.02-44.77,30.26-49.4,1.9,17.33-4.83,15.48-20.16,40.34-9.01,4.68,2.1,5.88,4.54,9.05,7.11Z"/>
  <path class="cls-10" d="M617.73,828.72l-20.9,3.8c2.57-11.27-3.07-26.74-5.78-38.84-.66-2.92-3.31-6.33-3.48-8.04-.54-5.3,11.21-5.47,14.94-8.19,2.91,17.16,6.87,35.96,15.22,51.27Z"/>
  <path class="cls-16" d="M556.94,593.16c6.55-9.94-2.63-16.14,17.6-12.84,22.24,3.63,10.25,19.07,1.4,29.94l-11.38,3.8c.47-9.64,1.49-15.65-7.62-20.9Z"/>
  <path class="cls-15" d="M474.68,728.45c4.46-1.35,14.38-1.4,16.77,3.39,3.15,6.29-2.46,8.81-2.49,10.5-.03,1.56,5.56,3.4,5.3,9.27-.56,12.63-22.77,10.81-25.69,4.95-4.39-8.81,4.36-12.59,4.35-14.22-.01-1.32-8.79-10.71,1.75-13.9Z"/>
  <path class="cls-2" d="M553.13,728.05c.95.91-.89,14.25-.03,17.67.62,2.49,6.79,2.21,5.74,6.07-.39,1.45-3.95,1.91-5.19,3.48-.95,1.2-.22,4.3-.74,4.75-6.53,5.75-7.78-5.38-8.41-5.5-5.36-.99-16.95,3.33-13.36-7.55,1.4-4.25,17.04-23.71,22-18.92Z"/>
  <path class="cls-23" d="M420.15,251.19c-7.73-5.38-13.53-10.95-13.3-20.9,14.92-6.26,35.13-6.66,22.51,13.96-2.88,4.7-4.46,5.22-9.21,6.94Z"/>
  <path class="cls-22" d="M526.53,728.06c-3.14,11.26-13.91,19.48-11.4,32.3-10.64,2.12-8.58-4.13-5.8-12.48,1.73-5.22,5.49-9.2,7.71-14.11l-15.21-.03v-5.68s24.7,0,24.7,0Z"/>
  <path class="cls-22" d="M456.25,728.05v32.3c0,.38-7.32.27-7.59,0-.82-.79.6-19.22-.03-22.8l-5.67,1.89-.05-4.75c6.21-1.24,7.3-7.7,13.33-6.65Z"/>
  <path class="cls-8" d="M342.26,494.37c-1.51.29-5.35-.43-5.7-.01-.4.46,1.45,14.47-3.77,9.5-4.64-4.42-2.64-18.47-3.83-24.69,3.96,4.37,11.95,6.1,13.3,15.2Z"/>
  <path class="cls-3" d="M416.35,323.39c-.82.96-.76,4.46-3.6,6.8-2.3,1.89-9.13,5.46-9.68.83,3.22-.64,9.61-5.36,11.38-7.62h1.9Z"/>
  <path class="cls-1" d="M619.63,348.08c11.51,36.15,62.02,64.26,62.85,95.94.61,23.27-17.73,31.82-38.61,28.96-10.13-1.39-14.54-5.61-22.34-9.01-2.26-26.66-24.53-50.77-26.66-76.88-1.33-16.3,4.15-28.96,3.88-44.7l20.89,5.69Z"/>
  <path class="cls-11" d="M444.85,429.78c6.36,6.88,13.13,13.54,19,20.87-18.05,13.25-47.95,2.51-64.46,16.31-6.27,5.24-11.01,19.74-22.93,10.32,1.59-5.07,1.4-10.35,4.01-15.94,8.35-17.92,45.78-29.23,64.39-31.55Z"/>
  <path class="cls-30" d="M494.25,551.37c.63,7.67,1.98,15.16,4.02,22.47l-2.12,4.13c-23.12,2.09-35-21.71-25.44-41.59,4.99-10.38,12.43-8.19,17.59-14.71,2.4-3.03,12.51-22.91,14.41-27.38,1.32-3.1,1.22-6.15,1.06-9.4,3.12.05,3.55,8.08,3.37,10-1.77,18.66-21.96,28.79-12.89,56.48Z"/>
  <path class="cls-21" d="M513.24,589.36c-4.77-1.19-14.59-7.61-17.1-11.4-3.75-5.67-6.06-21.01-1.9-26.6,4.82,14.69,21.86,19.26,19,38Z"/>
  <path class="cls-14" d="M435.35,186.62c-2.46,5.63-7.21,17.39-15.22,12.39-11.96-7.46,6.84-15.78,15.22-12.39Z"/>
  <path class="cls-5" d="M627.23,291.09c-3.6,4.83-4.69,12.8-9.5,17.1.19-6.85-.64-12.37-1.89-18.99l11.39,1.89Z"/>
  <path class="cls-18" d="M421.37,791.23c19.5-2.03,14.9,40.43-2.02,39.38-18.47-1.15-9.35-38.19,2.02-39.38Z"/>
  <path class="cls-28" d="M712.74,758.45l-3.8-19,15.15,12.35c-1.3,2.08-9.49,8.32-11.35,6.65Z"/>
  <path class="cls-17" d="M285.25,756.55c-1.7,1.73-10.05-4.55-11.36-6.65l15.15-12.35-3.79,19Z"/>
  <path class="cls-9" d="M478.3,745.32c8.21-2.62,11.22,7.12,6.55,10.39-8.25,5.78-13.86-8.05-6.55-10.39Z"/>
  <path class="cls-27" d="M486.63,739.42c-1.45,2.12-13.82,3.55-11.37-4.7,1.97-6.61,15.57-1.47,11.37,4.7Z"/>
  <polygon class="cls-24" points="545.53 747.06 537.94 747.03 544.6 737.56 545.53 747.06"/>
</svg>