<?xml version="1.0" encoding="utf-8"?>
<!-- Generator: Adobe Illustrator 26.4.1, SVG Export Plug-In . SVG Version: 6.00 Build 0)  -->
<svg version="1.1" id="Camada_1" xmlns="http://www.w3.org/2000/svg" xmlns:xlink="http://www.w3.org/1999/xlink" x="0px" y="0px"
	 viewBox="0 0 500 500" style="enable-background:new 0 0 500 500;" xml:space="preserve">
<style type="text/css">
	.st0{fill-rule:evenodd;clip-rule:evenodd;fill:#FFFFFF;}
	.st1{fill-rule:evenodd;clip-rule:evenodd;fill:#1D1D1B;}
	.st2{fill-rule:evenodd;clip-rule:evenodd;fill:#0069B4;}
	.st3{fill:none;stroke:#1D1D1B;stroke-width:0.22;stroke-miterlimit:2.61;}
</style>
<g>
	<path class="st0" d="M128.8,402.4c27.8,59.3,71.4,97.6,120.3,97.6c83.7,0,151.9-112.3,151.9-250c0-54.2-10.6-104.5-28.5-145.6
		l-2.8-6.3C341.9,38.5,298.2,0,249.2,0C165.5,0,97.3,112.3,97.3,250c0,54.4,10.7,104.9,28.8,146.1L128.8,402.4L128.8,402.4z"/>
	<path class="st1" d="M372.6,104.4c18,41,28.5,91.3,28.5,145.6c0,137.7-68.3,250-151.9,250c-48.9,0-92.5-38.3-120.3-97.6l31.8-38.9
		c25.4,19.5,56.6,30.1,88.7,30.1c80.7,0,146.6-66,146.6-146.9c0-42.1-18.1-82.2-49.7-110L372.6,104.4L372.6,104.4z M169.7,352.3
		l167.4-204.7c28.3,25.1,44.5,61.2,44.5,99c0,73-59.4,132.6-132.3,132.6C220.6,379.3,192.6,369.8,169.7,352.3L169.7,352.3z"/>
	<path class="st2" d="M249.2,0c49,0,92.7,38.5,120.5,98.1l-28.2,34.4c-26-21.2-58.6-32.8-92.2-32.8c-80.7,0-146.6,66-146.6,146.9
		c0,43.7,19.5,85,53,112.9l-29.9,36.5c-18.1-41.1-28.8-91.6-28.8-146.1C97.2,112.3,165.4,0,249.2,0L249.2,0z M332.5,143.7
		L164.9,348.5c-30.3-25.2-47.8-62.5-47.8-101.8c0-73,59.4-132.6,132.3-132.6C279.7,114.1,309,124.5,332.5,143.7z"/>
	<path class="st0" d="M246.5,375.3c-3.1-4.6-6.4-9.4-9.9-14.3c-11.6-16.4-22.5-30.5-29.8-38.7v-0.1h-0.1c-2.4-2.8-5.4-4.9-8.9-6.1
		c-1.9-0.8-3.9-1.4-6-1.8c-25.5-2.7-44.5-10.2-44.1-18.2c0.3-2.1,1.4-4,3.2-5.2l0,0c-0.3,0.2-0.5,0.4-0.8,0.7l0,0
		c1.2-0.9,2.1-6.2,2.1-12.6c0-1,0-1.9-0.1-2.8c-0.5-0.8-0.7-1.7-0.7-2.6c0-0.7,0.1-1.4,0.4-2c-0.1-0.5-0.2-1-0.2-1.5v-0.3
		c-0.1-1.1,0.3-2.1,1-2.9c0.3-0.1,0.6-0.2,0.8-0.4h0.1l0.1-0.3c0.5-0.8,0.7-1.7,0.7-2.6c0-0.1,0-0.2,0-0.3c0.1-0.7,0.2-1.4,0.2-2.1
		c0.1-1.9-0.1-3.8-0.7-5.6l0,0c-0.1-0.2-0.2-0.4-0.3-0.6v-0.1l-0.3-0.3c0-0.1-0.1-0.1-0.2-0.2l-0.3-0.3l-4.9-4.8c-1.2-1-2-2.4-2-4
		c0-2,1.2-3.8,3.1-4.7l21.3-23.3c1.5-1.2,3.2-5.4,4-10.5c0.1-0.9,0.2-1.8,0.3-2.6c0.6-2.5,4.9-9.1,10.7-16.3
		c2.9-3.7,6.1-7.2,9.4-10.5l0,0c0,0,0.1-0.1,0.1-0.1l0,0c0.9-1.4,1.4-3.1,1.5-4.8c0.4-8.3,6-15.5,14.3-19.7h0.1h0.1
		c3.5-1.7,7.4-2.6,11.4-2.6c1.7,0,3.3,0.2,5,0.5c5,0.6,10.3,1.4,15.7,2.4c16.7,3,31.6,7.2,41.8,11.5c5.6,2.7,11.5,4.9,17.5,6.6
		c22.4,6.2,43.4,4.6,53-3.1l0.4,0.5c2.3-2,6.6,1.2,9.3,1.2c0,0.4,1.4,1.4,1.4,1.8c3.9,1.8,5.7,10.1,6.8,13.7l5.7,14.4
		c5,11.5,3.6,26.6,6.5,38.5c2.1,9.4,0.4,22.7,0,32.4c0,2.2-1.1,5-1.4,7.2l-5.4,20.9c-0.4,2.2-2.5,5.8-2.5,8.3
		c-0.7,0.7-1.4,2.5-2.2,3.2v0.7c-0.4,0-1.4,0.7-1.4,1.4c-0.4,0-1.1,0.4-1.4,0.4l-1.1,1.1l-6.5,0.4c0,0.2-0.2,0.2-0.5,0.3
		c-0.3,0.1-0.1,0.2-0.2,0.3H358c-23.3,37.8-64.5,60.9-108.9,61h-2.7L246.5,375.3z"/>
	<path class="st0" d="M147.4,107.7L144,93h0.1l11.7,9.3L147.4,107.7L147.4,107.7z M159.2,104.7l7.8,6.1l4-2.6l-27.3-20.7l-4.1,2.7
		l7.4,33.7l3.8-2.5l-2.3-9.7L159.2,104.7L159.2,104.7z"/>
	<polygon class="st0" points="153.5,79.9 177.2,68.9 178.8,72.4 169,77 180.9,102.7 177,104.6 165,78.8 155.1,83.4 153.5,79.9 	"/>
	<path class="st0" d="M194.3,83.1l1.1-15h0.1l8.5,12.4L194.3,83.1L194.3,83.1z M206.5,83.7l5.6,8.2l4.6-1.3l-20-27.9l-4.8,1.4
		L189,98.4l4.3-1.2l0.7-9.9l12.4-3.5L206.5,83.7z"/>
	<polygon class="st0" points="224.9,84.7 241.1,82.7 241.6,86.5 221,89 217.1,57.1 221.4,56.5 224.9,84.7 	"/>
	<path class="st0" d="M255.7,73.9l6.4-13.7h0.1l3.4,14.6L255.7,73.9L255.7,73.9z M266.8,78.8l2.3,9.6l4.7,0.4l-8.7-33.2l-4.9-0.5
		l-15,31l4.5,0.4l4.2-9L266.8,78.8L266.8,78.8z"/>
	<polygon class="st0" points="308,64.1 312,65.3 302.8,96.2 298.1,94.8 289.8,65.1 289.8,65.1 282.3,90.1 278.3,88.9 287.5,58 
		292.4,59.4 300.4,89 300.5,89 308,64.1 	"/>
	<polygon class="st0" points="317.5,67 341.2,78 339.6,81.5 329.7,76.9 317.7,102.7 313.8,100.8 325.7,75.1 315.8,70.5 317.5,67 	
		"/>
	<path class="st0" d="M338,98.9l12.2-8.8h0.1l-3.9,14.4L338,98.9L338,98.9z M345.4,108.6l-2.6,9.6l3.9,2.7l8.3-33.3l-4.1-2.8l-28,20
		l3.7,2.5l8-5.9L345.4,108.6L345.4,108.6z"/>
	<path class="st0" d="M189.6,435.4l-5-1.6l8.5-26.7l-8.8-2.8l1.2-3.7c6.2,1.5,8.9,1.7,12.4-3.9l3.7,1.2L189.6,435.4L189.6,435.4z"/>
	<path class="st0" d="M222.8,425.8c-3.3-0.4-7.9-1.9-6.9-9.4c0.6-5.2,4.1-8.5,8.6-7.9c5.6,0.7,7.4,4.9,6.9,9.3
		C230.4,425.5,225.3,426.1,222.8,425.8z M221.5,430.1c3.6,0.4,7.7-0.7,9.5-3.6l0.1,0.1c-2.5,10-5.9,14.1-11.2,13.5
		c-4-0.5-6.1-3.2-5.8-7.2l-4.9-0.6c-0.5,3.8,1.2,10.8,10.4,11.9c13.5,1.7,16.4-16.1,16.9-20.3c0.8-6.3,1-18.3-11.5-19.8
		c-8.2-1-13.4,4.8-14.2,11.9C209.8,423.7,214.3,429.2,221.5,430.1L221.5,430.1z"/>
	<path class="st0" d="M271.2,425.1c0.6,9.9-1.6,15.9-7.2,16.3s-8.6-5.4-9.2-15.3s1.6-16,7.2-16.3
		C267.6,409.5,270.6,415.3,271.2,425.1z M276.4,424.8c-0.5-8.2-3.4-20.1-14.7-19.4c-11.3,0.7-12.7,12.9-12.2,21
		c0.5,8.2,3.4,20.1,14.7,19.4C275.4,445.1,276.8,433,276.4,424.8L276.4,424.8z"/>
	<path class="st0" d="M282.8,403l26.2-7.5l1.2,4.2c-5.5,11.6-7.7,24.6-6.2,37.3l-5.2,1.5c-1.7-10.8,1.3-26.3,6.2-36.9l-20.9,6
		L282.8,403L282.8,403z"/>
	<path class="st1" d="M256.6,178.4c-6.5-2-13.2-3-19.9-2.9c-10.7,0-20.4,2.3-26.8,5.8c0.2-0.5,0.3-0.9,0.5-1.4
		c5.8-7.6,22.6-12.4,41.9-11.3c4.8,0.3,9.5,0.9,14.2,1.9c10.6,2.7,21,6.3,31,10.8c5.5,2.9,11.3,5.4,17.2,7.3
		c16.8,5.4,33,6.3,44.1,3.2c0,0,0,0.1,0,0.1c-4.9,13.1-31.2,15.5-58.6,5.2c-5.9-2.2-11.5-4.9-16.9-8
		C274.8,184.9,265.8,181.2,256.6,178.4L256.6,178.4L256.6,178.4z"/>
	<path class="st1" d="M322.5,213.7c6.7,1.6,13.6,2.3,20.4,1.9c10.8-0.5,20.2-3.3,26.1-7.1c-0.1,0.5-0.2,0.9-0.3,1.4
		c-4.8,7.8-20.9,13.4-40.4,13.2c-4.9,0-9.8-0.4-14.6-1.2c-11.1-2.2-22.1-5.3-32.7-9.2c-5.9-2.6-12.1-4.7-18.3-6.3
		c-17.6-4.5-34-4.6-44.8-1c0,0,0-0.1,0-0.1c3-13.2,29.1-16.9,58-8.1c6.2,1.9,12.3,4.2,18.1,7.1C303.3,208.1,312.8,211.3,322.5,213.7
		L322.5,213.7L322.5,213.7z"/>
	<path class="st1" d="M373.7,294.8c-22.3,26.2-61.7,29.4-87.9,7.1c-3.8-3.3-7.2-6.9-10.2-11c13.2,6.8,27.6,11.1,42.4,12.4
		C338.8,305.3,358.3,302,373.7,294.8L373.7,294.8z"/>
	<path class="st1" d="M378.1,267.8c-8,13.6-29.6,23.7-55.2,24.1c-17.2,0.3-32.8-3.8-43.8-10.6h-0.1c-8.1-4.3-16.9-7-26.1-8
		c-1.1-0.1-2.1-0.2-3.1-0.3c5.3-1.6,10.9-2.4,16.5-2.3c8.5,0,15.9,1.5,20.4,3.9c7.7,5.3,22,8.9,38.3,8.9c14.1,0,26.8-2.7,34.9-6.9
		c3.1-1.2,6.4-2.7,9.9-4.3C372.6,270.9,375.5,269.3,378.1,267.8L378.1,267.8z"/>
	<path class="st1" d="M376.8,240.2c0.2,0.8,0.3,1.7,0.4,2.5c0.7,15.1-23.1,28.1-53.1,29c-21.9,0.7-41.2-5.3-50.3-14.5
		c-6-4.1-12.8-6.7-20-7.6c-4.3-0.7-8.7-0.8-13-0.4c4.2-3,10.9-4.9,18.3-4.9c7.4,0,14.1,1.9,18.3,4.9c7.5,6.7,25.6,11.6,46.7,11.7
		c27.7,0.2,50.4-7.9,50.4-18l0,0c1-0.8,2-2,2-2.7L376.8,240.2L376.8,240.2z"/>
	<path class="st1" d="M375.7,217c0,0.5,0,0.9,0,1.4c0,17-24.9,30.9-55.4,30.9c-20,0-37.6-6-47.3-14.8c-7.4-5.6-23-9.5-41-9.5
		c-3.5,0-6.9,0.1-10.2,0.4c3.2-7.1,21.8-9.4,42.8-5c12.3,2.6,22.8,6.8,29.4,11.5c8.6,3.6,20.3,5.8,33.2,5.8
		c13.3,0,25.4-2.4,34.1-6.2l0,0l0,0c8.5-3.7,13.7-8.8,13.7-14.4h0.6L375.7,217z"/>
	<path class="st3" d="M151.9,271.3c0.9,0.3,1.9,0.5,2.8,0.6C153.8,271.8,152.8,271.6,151.9,271.3"/>
</g>
</svg>
