<?xml version="1.0" encoding="UTF-8"?>
<svg id="Layer_1" xmlns="http://www.w3.org/2000/svg" version="1.1" viewBox="0 0 705 705">
  <!-- Generator: Adobe Illustrator 29.6.0, SVG Export Plug-In . SVG Version: 2.1.1 Build 207)  -->
  <defs>
    <style>
      .st0 {
        fill: #006a3f;
      }

      .st1 {
        fill: #fff;
      }

      .st2 {
        fill: #e8151e;
      }

      .st3 {
        fill: #282a6f;
      }

      .st4 {
        fill: #7e4f3a;
      }
    </style>
  </defs>
  <path class="st1" d="M626.9,0H77.9l.2,450.3c0,14.3,3.3,28.5,9.6,41.4,6.3,12.9,15.5,24.1,26.9,32.9l.8.6,237.3,179.8,237.2-180.1c11.5-8.8,20.9-20.1,27.3-33.1,6.5-13,9.8-27.3,9.9-41.8L626.9,0Z"/>
  <path class="st2" d="M489.3,139.5l-61.1,62.5v426.5l61.1-46.4V139.5Z"/>
  <path class="st2" d="M550.5,535.7l29.4-22.3c19.2-14.6,31.7-36.2,31.7-60.3l-.2-438.7-60.9,62.3v458.9Z"/>
  <path class="st2" d="M245.7,604.9v-215.9l-61.1,62.6v107l61.1,46.3Z"/>
  <path class="st2" d="M367.7,674.5v-410.4l-61.1,62.6v324.4l46,34.9,15.1-11.4Z"/>
  <path class="st3" d="M626.9,0H77.9l.2,450.3c0,14.1,3.2,28,9.3,40.7,6.1,12.7,15,23.9,26.1,32.6.3.3.7.6,1,.8l.8.6,237.3,179.8,237.2-180c11.5-8.8,20.9-20.1,27.3-33.1,6.5-13,9.8-27.3,9.9-41.8L626.9,0ZM433.4,79.5L157.6,362.1V79.7c-.1,0,275.8-.1,275.8-.1ZM579.9,511.8l-227.3,172.5-226.5-171.6L610.4,16.7l.2,433.4c0,12-2.8,23.7-8.1,34.4-5.3,10.7-13,20-22.5,27.3Z"/>
  <path class="st1" d="M111.5,32.8l6.2-19,6.2,19h20s-16.2,11.8-16.2,11.8l6.2,19.1-16.2-11.8-16.2,11.8,6.2-19.1-16.2-11.8h20Z"/>
  <path class="st1" d="M311.1,32.7l6.2-19.1,6.2,19.1h20l-16.2,11.8,6.2,19-16.2-11.8-16.2,11.8,6.2-19.1-16.2-11.8h20Z"/>
  <path class="st1" d="M111.7,434.8l6.2-19.1,6.2,19.1h20l-16.2,11.8,6.2,19-16.2-11.8-16.2,11.8,6.2-19.1-16.2-11.8h20Z"/>
  <path class="st1" d="M111.6,234.3l6.2-19.1,6.2,19.1h20s-16.2,11.8-16.2,11.8l6.2,19.1-16.2-11.8-16.2,11.8,6.2-19.1-16.2-11.8h20Z"/>
  <path class="st1" d="M251.3,306.9l6.2-19.1,6.2,19h20l-16.2,11.8,6.2,19.1-16.2-11.8-16.2,11.8,6.2-19-16.2-11.8h20Z"/>
  <path class="st1" d="M385.5,172.4l6.2-19.1,6.2,19.1h20s-16.2,11.8-16.2,11.8l6.2,19.1-16.2-11.8-16.2,11.8,6.2-19.1-16.2-11.8h20Z"/>
  <path class="st1" d="M510.6,32.6l6.2-19.1,6.2,19.1h20s-16.2,11.8-16.2,11.8l6.2,19.1-16.2-11.8-16.2,11.8,6.2-19.1-16.2-11.8h20Z"/>
  <path d="M267.2,220.6c-.2-1.4-.6-2.8-1.1-4.1-4.2-9.8-8.8-7.9-11.5-21.2-.4-2.5-1-4.9-1.8-7.3-.5-1.4-1.4-4.2-1.2-6.5.5-4.7,2-10,2.7-14.8v-.2c.8-.2,1.5-.6,2-1.2.5-.6.9-1.3,1.1-2,.2-1.5-.2-2.1-3.8-3h-.1c-2.1-4-5.6-5.3-9.5-6.1-1.3-.2-2.6-.1-3.9.2-1.2.1-2.3,0-3.3-.6-2-1.1-6.3-5.4-7.6-3.5-.8,1.2-1.3,2.6-1.4,4.1-.1,1.5,0,2.9.6,4.3,2,4.7,5.1,6,1.8,11.5-2,3.3-6,8.2-6.9,12.6-2.7-1.7-5-4-6.9-6.6-.7-1.7-1.6-3.4-2.8-4.8v14.2c1.8,2.3,3.8,4.8,5.7,7-1.8-1.2-3.9-2.6-5.7-3.9v11.6c1.4,1,3.5,2.2,5,3,1.3.8,2.8,1.4,4.3,1.9.7,8.1,4.2,15.7,9.9,21.4-.9,3.8-1.9,8.4-1.3,10.5,1.8,7,8,12.4,8.5,16.5.2,1.8-1.8,2.7-3.2,3.9l-.7.4,22,.4.3-.4c.3-.6.4-1.4.2-2.1-1.7-10.9-1.9-12.5,4.1-19.1,1.9-2.2,3.2-4.7,3.9-7.5.4,0,.7-.1,1.1-.3.3-.2.6-.4.9-.7.2-.3.4-.6.6-1,.1-.4.2-.7.1-1.1-.4-2-1.1-3.9-2.2-5.7ZM249.7,253.5c-.2,1.4-1.1,2.1-2.2,3.3.4-2.1.4-4.3,0-6.4-.4-1.8-1.7-6.5-1.6-7.5.1-1.2,4.2,8.7,3.9,10.6Z"/>
  <path class="st4" d="M221.1,257.2c-.9,0-1.9-.2-2.7-.5-.9-.4-1.7-.9-2.3-1.5-.7-.7-1.2-1.4-1.6-2.3-.4-.9-.5-1.8-.5-2.7v-91.9c0-1.4.3-2.8.9-4l1.3-2c-5.3.5-10.7.5-16,0l1.2,2c.6,1.3,1,2.7,1,4.1v91.8c0,.9-.2,1.9-.5,2.7-.4.9-.9,1.7-1.5,2.3-.7.7-1.4,1.2-2.3,1.5-.9.4-1.8.5-2.7.5l-19.9.8c-.3,0-.6.1-.8.3s-.3.5-.3.8.1.6.3.8.5.3.8.3l81.9-.2,2-2-38.2-.7Z"/>
  <path class="st0" d="M208.3,152.8c23.7,0,42.9-14.6,42.9-32.6s-19.2-32.7-42.9-32.7-42.9,14.6-42.9,32.7,19.2,32.6,42.9,32.6Z"/>
  <path class="st2" d="M195.2,132.1c-.4-.2-.8-.2-1.2-.2-.4,0-.8,0-1.2.3-.8.3-1.4,1-1.7,1.8-.3.8-.3,1.7,0,2.4.2.4.4.7.7,1,.3.3.6.5,1,.7.4.1.7.2,1.1.2.5,0,.9,0,1.3-.3.6-.3,1-.7,1.4-1.2.3-.5.5-1.1.5-1.8,0-.6-.2-1.2-.6-1.7-.4-.5-.9-.9-1.4-1.1Z"/>
  <path class="st2" d="M213.4,128.8c.4.2.8.2,1.2.2.4,0,.8-.1,1.2-.3.4-.2.7-.4,1-.7.3-.3.5-.7.7-1,.2-.4.2-.8.2-1.2,0-.4-.1-.8-.3-1.2-.2-.4-.4-.7-.7-1s-.6-.5-1-.6c-.8-.3-1.7-.3-2.5,0-.8.3-1.4,1-1.7,1.8-.3.8-.3,1.7,0,2.4.2.4.4.7.7,1,.3.3.6.5,1,.6Z"/>
  <path class="st2" d="M234,119.6c.4.2.8.2,1.2.2.4,0,.8-.1,1.2-.3.8-.3,1.3-1,1.6-1.8.3-.8.3-1.6,0-2.4-.4-.8-1-1.4-1.8-1.7-.4-.2-.8-.2-1.2-.2s-.8,0-1.2.2c-.8.4-1.4,1-1.7,1.8-.3.8-.3,1.7,0,2.5.2.4.4.7.7,1,.3.3.6.5,1,.7Z"/>
  <path class="st2" d="M182.3,119.3c-.4-.2-.8-.2-1.2-.2-.4,0-.8,0-1.2.3-.8.3-1.4,1-1.7,1.8-.3.8-.3,1.7,0,2.4.2.4.4.7.7,1,.3.3.6.5,1,.7.4.1.7.2,1.1.2.5,0,.9,0,1.3-.3.6-.3,1-.7,1.4-1.2.3-.5.5-1.1.5-1.8,0-.6-.2-1.2-.6-1.7-.4-.5-.9-.9-1.4-1.1Z"/>
  <path class="st2" d="M204.7,111.7c-.2-.4-.4-.7-.7-1-.3-.3-.7-.5-1-.6-.8-.3-1.7-.3-2.5,0-.8.3-1.4,1-1.7,1.8-.3.8-.3,1.7,0,2.4.2.4.4.7.7,1,.3.3.6.5,1,.7.4.2.8.2,1.2.2.4,0,.8-.1,1.2-.3.4-.2.7-.4,1-.7.3-.3.5-.7.7-1,.2-.4.2-.8.2-1.2,0-.4-.1-.8-.3-1.2Z"/>
  <path class="st2" d="M226.3,141.6c.4.1.7.2,1.1.2s.9-.1,1.4-.3c.4-.2.7-.4,1-.7.3-.3.5-.7.7-1,.2-.4.2-.8.2-1.2,0-.4-.1-.8-.3-1.2-.2-.4-.4-.7-.7-1-.3-.3-.6-.5-1-.6-.6-.2-1.2-.3-1.8-.1-.6.1-1.2.4-1.6.9-.4.5-.7,1-.8,1.6-.1.6,0,1.3.2,1.8.2.4.4.7.7,1,.3.3.7.5,1,.6Z"/>
</svg>