<?xml version="1.0" encoding="utf-8"?>
<!-- Generator: Adobe Illustrator 27.9.0, SVG Export Plug-In . SVG Version: 6.00 Build 0)  -->
<svg version="1.1" id="Layer_1" xmlns="http://www.w3.org/2000/svg" xmlns:xlink="http://www.w3.org/1999/xlink" x="0px" y="0px"
	 viewBox="0 0 400 400" style="enable-background:new 0 0 400 400;" xml:space="preserve">
<style type="text/css">
	.st0{fill:#E6DBDB;}
	.st1{fill:#DF2132;}
	.st2{fill:#FCF8F8;}
	.st3{fill:#FCFBFB;}
	.st4{fill:#DE2E3D;}
</style>
<g>
	<path class="st0" d="M26.5,3.6c0.7,0.2,2.2,0.3,3.3,1c17.6,11.3,37.4,13,57.5,14.1c14.4,0.8,28.8,1.9,42.8,6c6.8,2,12.9,5.2,18.7,9
		c1.5,1,2.7,2.1,4.2-0.2c2.7-4.2,6.7-4.4,11.1-3c10.8,3.3,21.6,6.5,32.4,9.8c2.4,0.7,4.7,0.7,7.1,0c10.8-3.3,21.6-6.5,32.4-9.8
		c4.4-1.3,8.3-1.1,11.1,3.1c1,1.5,1.7,1.9,3.2,0.8C268.8,21,290.6,20.4,312,18.7c14-1.1,28.1-1.6,41.6-6.3
		c5.3-1.9,10.3-4.2,15.1-7.1c3.6-2.2,7.2-2.6,10.6,0.4c3.4,3,3.2,6.6,1.4,10.5c-9.7,21-19.3,42-29.1,62.9c-3,6.4-3.3,12.5-1.3,19.1
		c8.7,28.7,15.7,57.7,17,87.8c2.6,56.1-18,103.7-54.8,144.8c-29.6,33-66.9,53.7-109.5,65.2c-2.1,0.6-4.1,0.5-6.1,0
		c-72.3-20.4-124.1-64.1-152.2-134.5c-12-29.9-14.3-61-10.5-92.8c2.9-24.1,8.6-47.5,15.7-70.6c2.1-6.9,1.5-13.1-1.6-19.6
		c-9.9-20.9-19.5-41.9-29.1-62.9C16.3,9.6,19.8,3.7,26.5,3.6z M26.1,12.2c0.5,1.3,0.9,2.6,1.4,3.8c9.3,20.2,18.6,40.4,28.1,60.5
		c3.5,7.5,4,14.9,1.6,22.8c-7.2,23.5-13,47.2-15.8,71.6c-3.1,27-1.8,53.6,7.2,79.3c24.9,71.4,75.2,115.9,146.8,137.5
		c3.1,0.9,6,0.9,9.2,0c42.6-12.5,79.5-34.1,108-68.4c33-39.8,50.5-85.1,46.8-137.6c-2-28.4-8.7-55.9-16.9-83.1
		c-2.3-7.8-1.6-14.9,1.9-22.2c9.3-19.8,18.4-39.7,27.5-59.6c0.7-1.6,2.3-3.1,1.3-5.2c-3.2,1.6-6.2,3.3-9.4,4.8
		c-15,7-31,8.8-47.2,9.5c-26.5,1.1-52.4,4.1-73.9,22.1c-2.4,2-5.4,3.4-9.5,3.9c2.6-5,4.9-9.4,7.8-15c-7.6,2.2-14.3,3.4-20.4,6.1
		c-14,6.1-27.6,6.2-41.6,0c-6-2.6-12.6-3.8-20.2-6c3,5.8,5.3,10.2,8,15.4c-7.1-2.2-12.2-5.7-17.3-9.2c-7.4-5-14.8-9.8-23.6-11.9
		c-9.8-2.3-19.8-3.7-29.9-4.4C72.3,25.2,48,25.3,26.1,12.2z"/>
	<path class="st1" d="M26.1,12.2c21.9,13.1,46.2,12.9,70,14.7c10.1,0.7,20,2.1,29.9,4.4c8.8,2.1,16.2,6.9,23.6,11.9
		c5.1,3.5,10.2,7,17.3,9.2c-2.7-5.3-5-9.6-8-15.4c7.6,2.2,14.3,3.4,20.2,6c14,6.2,27.6,6.2,41.6,0c6.1-2.7,12.8-3.9,20.4-6.1
		c-2.9,5.6-5.2,10-7.8,15c4.1-0.5,7.1-1.9,9.5-3.9c21.5-18,47.4-21,73.9-22.1c16.2-0.7,32.2-2.5,47.2-9.5c3.1-1.5,6.2-3.1,9.4-4.8
		c1,2.2-0.6,3.7-1.3,5.2c-9.1,19.9-18.2,39.8-27.5,59.6c-3.4,7.3-4.2,14.4-1.9,22.2c8.2,27.2,14.9,54.6,16.9,83.1
		c3.7,52.5-13.9,97.8-46.8,137.6c-28.5,34.4-65.5,55.9-108,68.4c-3.1,0.9-6.1,0.9-9.2,0c-71.6-21.6-121.9-66.1-146.8-137.5
		c-9-25.7-10.3-52.4-7.2-79.3c2.8-24.4,8.7-48.2,15.8-71.6c2.4-7.9,1.9-15.3-1.6-22.8c-9.5-20.1-18.7-40.3-28.1-60.5
		C26.9,14.8,26.6,13.5,26.1,12.2z M225.2,50.6c-17,5.5-34,5.6-51.2,0.2c7.8,7.9,15.6,15,23.4,22.1c1.2,1.1,2.2,2.9,4.2,0.9
		c7.9-7.7,16.7-14.6,24.1-22.7c0.2-0.2,0.6-0.5,0.6-0.6C225.9,50,225.5,50.2,225.2,50.6z M84.1,55.4c-9.7,2.2-19-0.2-28.9-2.6
		c3,9.1,7.9,14.8,16.3,17.3c5.8,1.8,11.6,1.8,17.6,1.6c2.6,0,5.1,0,7.7,0c-0.8,1.5-1.5,1.9-2.3,2.1c-7.6,2.3-15.4,2.6-23.2,1.4
		c-1.3-0.2-3-1-3.8,0.3c-0.8,1.3,0.4,2.7,1,3.9c2,4,5.4,6.2,9.6,7.4c7.3,2.2,14.8,2,22.2,1.2c6.9-0.8,13.8-1.8,21.4-2.7
		c-2.2,3-4.9,3.5-7.3,4.1c-11.2,3-22.7,3.4-34.1,4c-2.2,0.1-3.9,0.2-4.7,2.9c-8.7,27.8-15.1,56-17,85.2c-0.3,4.2,1.2,4.9,4.9,4.9
		c23.6-0.1,47.3-0.1,70.9,0c3.1,0,5-0.9,6.9-3.4c30.6-40.5,86.8-40.5,117.8,0.1c1.8,2.3,3.5,3.3,6.4,3.3c23.8-0.1,47.6-0.2,71.5,0
		c4,0,4.9-1.1,4.7-5c-1.9-28.8-8.1-56.7-16.7-84.1c-0.9-2.9-2.3-3.7-5.1-3.8c-9.6-0.4-19.1-0.9-28.5-2.7c-4.3-0.8-8.8-1.6-12.6-4.7
		c2.1-1.2,3.7-0.2,5.3,0c9.6,1.3,19.2,3.2,29,2.5c6.6-0.5,13.3-1.4,17.7-7.2c1.3-1.6,2.9-3.9,2-5.6c-1-1.7-3.5-0.4-5.3-0.2
		c-9.5,1.1-18.7,0.3-27.4-4.3c5.9,0,11.8,0.9,17.7,0.7c6.2-0.3,12.1-1.2,17.4-4.7c5-3.3,8.2-8,9.7-14.5c-9.8,2.6-19.1,5-28.7,2.6
		c9.1-2.3,18.3-4.2,26.5-8.8c8.5-4.7,14.5-11.5,16.5-21.5c-1,0.1-1.5-0.1-1.9,0.1c-17.2,7.7-35.4,11.1-54,12.8
		c-9.2,0.9-18.3,2.6-26.3,7.5c-13.2,8-27.1,14-42,18c-3.1,0.8-4.7,2.3-5.4,5.8c-2,9.3-12.7,13.9-20.4,9c5.1-1.2,9.9-2.6,9.4-9.2
		c-0.1-1.2,0.2-2.7-1-3.3c-1.4-0.8-2.1,0.8-3,1.5c-3.9,3.2-7.8,6.4-11.5,9.8c-2.1,2-3.5,1.9-5.6-0.1c-3.7-3.4-7.6-6.6-11.5-9.9
		c-0.9-0.7-1.6-2.2-3-1.4c-1.2,0.7-0.9,2.2-0.9,3.3c-0.3,4,1.5,6.6,5.2,8c1.4,0.5,3.1,0.3,4.3,1.7c-9.1,3.8-19-0.6-20.4-9.5
		c-0.6-3.7-2.3-4.9-5.3-5.8c-12.8-3.8-25.5-8-37-15.2c-9.6-6.1-20.1-9.4-31.4-10.3c-18.6-1.6-36.8-5.1-54-12.7
		c-0.6-0.3-1.3-0.3-2.1,0.7C47.2,47.3,66,50.7,84.1,55.4z M105.3,264.8c-9.9,0-19.8,0.2-29.7-0.1c-4.4-0.1-5,0.9-3.2,4.9
		c24.2,55.8,65.3,93.1,123,112.1c2.9,0.9,5.6,1.1,8.6,0.2c58.3-18.8,99.5-56.4,123.8-112.6c1.3-3.1,1.6-4.5-2.7-4.5
		c-20.2,0.2-40.3,0.1-60.5,0c-2.6,0-4,1.1-5.5,3c-31.5,40.8-86.8,40.8-118,0.1c-1.8-2.4-3.8-3.1-6.6-3.1
		C124.7,264.9,115,264.8,105.3,264.8z M199.9,287.1c34.1,0.1,61.8-27.4,61.9-61.4c0.1-33.9-27.7-61.8-61.5-61.9
		c-34.2-0.1-62.1,27.7-62.1,61.8C138.2,259.6,165.7,287,199.9,287.1z"/>
	<path class="st2" d="M84.1,55.4C66,50.7,47.2,47.3,41,25.8c0.8-1,1.5-1,2.1-0.7c17.2,7.6,35.4,11.1,54,12.7
		c11.3,1,21.8,4.3,31.4,10.3c11.4,7.2,24.1,11.4,37,15.2c3,0.9,4.7,2.2,5.3,5.8c1.5,8.9,11.3,13.3,20.4,9.5
		c-1.1-1.4-2.8-1.1-4.3-1.7c-3.7-1.4-5.6-4-5.2-8c0.1-1.2-0.3-2.6,0.9-3.3c1.4-0.8,2.2,0.7,3,1.4c3.9,3.2,7.8,6.4,11.5,9.9
		c2.1,1.9,3.5,2,5.6,0.1c3.7-3.5,7.6-6.6,11.5-9.8c0.8-0.7,1.6-2.3,3-1.5c1.2,0.7,0.9,2.2,1,3.3c0.5,6.5-4.2,8-9.4,9.2
		c7.8,4.9,18.4,0.3,20.4-9c0.8-3.5,2.3-4.9,5.4-5.8c14.8-4,28.8-10,42-18c8.1-4.9,17.1-6.6,26.3-7.5c18.6-1.7,36.8-5.2,54-12.8
		c0.4-0.2,1-0.1,1.9-0.1c-2,10.1-8,16.8-16.5,21.5c-8.3,4.6-17.4,6.4-26.5,8.8c9.6,2.5,18.8,0,28.7-2.6c-1.5,6.5-4.7,11.1-9.7,14.5
		c-5.2,3.5-11.2,4.4-17.4,4.7c-5.9,0.3-11.8-0.7-17.7-0.7c8.6,4.6,17.8,5.4,27.4,4.3c1.8-0.2,4.3-1.5,5.3,0.2c1,1.8-0.7,4-2,5.6
		c-4.5,5.9-11.1,6.7-17.7,7.2c-9.8,0.7-19.4-1.2-29-2.5c-1.6-0.2-3.2-1.1-5.3,0c3.8,3.2,8.3,3.9,12.6,4.7c9.4,1.8,19,2.4,28.5,2.7
		c2.9,0.1,4.2,0.9,5.1,3.8c8.6,27.4,14.9,55.4,16.7,84.1c0.3,3.9-0.6,5.1-4.7,5c-23.8-0.2-47.6-0.1-71.5,0c-2.9,0-4.7-1-6.4-3.3
		c-31-40.6-87.1-40.6-117.8-0.1c-1.9,2.5-3.8,3.4-6.9,3.4c-23.6-0.1-47.3-0.1-70.9,0c-3.7,0-5.2-0.7-4.9-4.9
		c1.9-29.2,8.3-57.4,17-85.2c0.8-2.7,2.6-2.8,4.7-2.9c11.4-0.7,22.9-1,34.1-4c2.4-0.7,5.1-1.1,7.3-4.1c-7.6,1-14.5,2-21.4,2.7
		c-7.5,0.8-14.9,1-22.2-1.2c-4.2-1.3-7.6-3.4-9.6-7.4c-0.6-1.2-1.8-2.6-1-3.9c0.9-1.4,2.6-0.5,3.8-0.3c7.9,1.2,15.6,0.9,23.2-1.4
		c0.8-0.2,1.6-0.6,2.3-2.1c-2.6,0-5.1,0-7.7,0c-5.9,0.1-11.8,0.1-17.6-1.6c-8.4-2.6-13.3-8.3-16.3-17.3C65,55.2,74.4,57.6,84.1,55.4
		z M83.6,142.9C83.6,142.9,83.6,142.9,83.6,142.9c-0.1,5.6-0.1,11.1,0,16.7c0,2.5,0.7,5,3.2,6.1c2.7,1.1,5.1,0.1,7.2-1.6
		c3.5-2.8,5-6.6,5.3-10.9c0.2-4.2,0.2-8.3,0.1-12.5c0-1.4,0.9-3.8-0.9-4c-2.4-0.2-5.5,0.3-6.9,2.6c-0.9,1.4-1.3,4.4,0.3,5.3
		c5.5,3.2,1.9,7.5,1.7,11.2c-0.1,1.2-1.5,2.4-3.1,2.3c-1.9-0.1-2.1-1.7-2.1-3c0-9.4,0-18.7,0.1-28.1c0-1.9,0.7-4.1,3.1-4.1
		c2.4,0,2.2,2.2,2.4,3.9c0.1,1.2-0.1,2.7,1.8,2.4c1.5-0.2,3.4-0.4,3.3-2.5c0-2.2-0.1-4.6-0.6-6.7c-1.4-5.2-5.5-6.7-10-3.6
		c-3.4,2.4-4.8,5.9-5,9.9C83.5,131.8,83.6,137.3,83.6,142.9z M141.2,127.5c0,5.9,0,11.8,0,17.7c0,1.3-0.8,3.4,1.9,3.4
		c2.3,0,3.3-1.2,3.2-3.6c-0.2-3.3-0.2-6.6,0-9.9c0.1-1.7-1.1-4.5,1.3-5c2.7-0.5,2,2.7,2.5,4.2c0.9,2.8,1.6,5.7,2.1,8.6
		c0.4,2.4,1.1,3.8,4,3.3c3.5-0.6,1.7-2.8,1.4-4.3c-0.5-2.5-1.1-5.1-2-7.5c-1.3-3.7-1.3-6.7,0.8-10.6c2.7-5,2.8-11.3-0.5-16.4
		c-2.7-4.1-7.3-1.9-11.1-1.9c-2.6,0-3.6,1.2-3.5,3.9C141.3,115.4,141.2,121.4,141.2,127.5z M102.6,133.1c0.1,0,0.2,0,0.2,0
		c0,6.6-0.4,13.2,0.1,19.8c0.5,5.9,4.8,7.6,9.6,4.3c4.1-2.8,5.4-7,5.5-11.8c0-10.1,0.1-20.1-0.1-30.2c0-1.7,2-5-2.2-5
		c-3.7,0-2.7,2.8-2.7,4.9c-0.1,10.4,0,20.8-0.1,31.2c0,2.2-0.6,4.6-3,4.7c-3.3,0.1-2.3-2.9-2.3-4.7c-0.1-9.9,0-19.8-0.1-29.7
		c0-1.5,1.5-4.2-1.8-4.3c-3.5-0.2-3.1,2.4-3.1,4.7C102.6,122.3,102.6,127.7,102.6,133.1z M218.4,123.4c-0.4,0.1-0.9,0.2-1.3,0.2
		c-1.8-6.2-3.6-12.4-5.4-18.6c-0.5-1.7-0.9-3.4-3.3-3c-2.4,0.4-1.6,2.4-1.6,3.7c-0.1,10.8-0.1,21.5,0,32.3c0,1.8-1.1,4.7,2.5,4.5
		c3.2-0.1,2-2.8,2-4.4c0.1-5.7,0.1-11.4,0.1-17.1c3.1,6.4,5,12.8,6.8,19.3c0.5,1.9,1.5,3.2,3.6,3c2.4-0.3,1.6-2.3,1.6-3.7
		c0.1-11.1,0-22.2,0-33.4c0-1.9,0.3-4-2.6-4c-3.3,0-2.3,2.5-2.3,4.1C218.3,112.1,218.4,117.8,218.4,123.4z M316.9,167.6
		c-0.5-3.7-1-7.2-1.5-10.8c-1.8-12.5-3.7-25-5.5-37.5c-0.3-1.9-0.5-4.1-3-4.2c-3-0.1-2,2.7-2.3,4.3c-2.2,12.4-4.2,24.9-6.4,37.4
		c-0.4,2.4-0.9,4.5,2.5,5c3.5,0.5,1.8-2.5,2.7-3.7c0.7-1.1-0.4-3.8,2-3.3c2.2,0.4,5.1,0.6,5.5,3.8c0.2,1.5,0.4,3.1,0.5,4.7
		C311.6,166.3,313.3,167.8,316.9,167.6z M262.2,125.8C262.2,125.8,262.2,125.8,262.2,125.8c0-5.2,0.1-10.4,0-15.6
		c0-1.8,0.6-4-2.4-4.2c-3.3-0.2-2.5,2.1-2.6,3.9c-0.1,1.9,0,3.8,0,5.7c0,7.6,0,15.3-0.1,22.9c0,1.5,0,3.4-2.3,3.4
		c-1.9,0-2.7-1.4-3-3c-0.2-1.4-0.1-2.8-0.1-4.2c0-8.7,0-17.4,0-26c0-2.1,0-3.9-2.7-4c-3-0.1-2.2,2.1-2.2,3.6c0,9.5,0,19.1,0,28.6
		c0,2.3,0.3,4.5,1.3,6.6c1.9,3.8,5,5.9,9.3,5c4-0.8,4.7-4.2,4.8-7.7C262.3,135.9,262.2,130.9,262.2,125.8z M227.7,123.4
		c0.1,0,0.1,0,0.2,0c0,4.9-0.4,9.7,0.1,14.5c0.5,4.7,4.9,8,9.1,7.6c4.8-0.5,6.2-3.9,6.4-8c0.2-3.3,0.2-6.6,0.1-9.9
		c0-1.7,0.8-4.2-2.1-4.4c-1.9-0.1-4.5-1.6-5.7,0.7c-0.9,1.9-0.4,3.8,2,5.6c2.3,1.8,1.2,5.4,0.3,8.2c-0.4,1.3-1.8,1.6-3,1.2
		c-3.1-1.1-2.5-3.8-2.5-6.2c-0.1-5.9-0.1-11.8,0-17.7c0-2.1-0.8-5.1,2.5-5.3c2.9-0.2,3.1,2.3,3.1,4.4c0,1.8,0.9,2.5,2.6,2.5
		c1,0,2.3,0.3,2.4-1.2c0.4-3.5,0-6.9-2.4-9.8c-2.3-2.7-5.4-3.1-8.6-2.1c-3.2,1-4.4,3.8-4.5,6.9C227.6,114.8,227.7,119.1,227.7,123.4
		z M138.3,147.9c-2.4-12.9-4.7-25.5-7.1-38.1c-0.2-1.2-0.8-2.3-2.4-2c-1.7,0.3-2.2,1.3-2.4,2.9c-2.2,13.5-4.4,27-6.6,40.5
		c-0.2,1.2-1.3,3,1,3.2c1.5,0.1,3.2-0.4,3.6-2.3c0.2-1,0.4-2,0.5-3.1c0.1-3.2,1.6-4.9,5-5.2c4.2-0.4,2.5,2.8,3.1,4.5
		c0.5,1.3,0.6,2.7,2.6,2.2C137.2,150.1,138.8,149.9,138.3,147.9z M178.7,140.9c-2.2-11.7-4.5-23.5-6.8-35.2
		c-0.3-1.4-0.6-2.7-2.6-2.6c-2.3,0.1-2.3,1.7-2.5,3.2c-2.1,11.6-4.3,23.2-6.3,34.8c-0.2,1.4-1.9,3.7,0.9,4.2
		c2.3,0.4,3.8-0.7,3.9-3.5c0.1-2.9,0.9-5.2,4.8-5.3c4.2-0.1,3,2.9,3.5,5c0.4,2,1.4,2.5,3.3,2.3C178.6,143.5,179,142.5,178.7,140.9z
		 M265.9,128.8c0,3.8,0,7.6,0,11.5c0,10.4,0,10.4,9.9,13.1c1.4,0.4,3.4,2.4,4.2-0.5c0.6-2.3,0.7-5.2-2.8-5.5c-6.3-0.5-7-4.2-6.7-9.6
		c0.2-3.6,0.8-5.2,4.7-3.7c1.1,0.4,3.3,1.9,3.6-0.8c0.2-1.8,1.2-4.9-1.9-5c-7.5-0.3-6.2-5.4-6.4-10.2c-0.1-3.7,1.6-4,4.5-3.3
		c1.4,0.3,3.4,2.3,4-0.8c0.4-2.3,0-4.6-2.8-5.4c-1.8-0.5-3.8-0.5-5.6-1c-3.5-0.8-5,0-4.8,4C266.1,117.3,265.9,123.1,265.9,128.8z
		 M189.3,125.6c0-4.3,0.1-8.7,0-13c-0.1-2.6-0.2-4.9,3.6-4.7c2.3,0.1,2.2-1.7,2.2-3.3c0-1.7-0.6-2.6-2.4-2.6c-4,0.1-8,0.2-12,0.3
		c-1.9,0.1-2.1,1.4-2.1,2.9c0,1.4-0.2,3.2,1.9,2.9c4.4-0.5,3.6,2.5,3.6,5c0,8.8,0,17.7,0,26.5c0,1.6,0,3.1,2.3,3.2
		c2.5,0.1,2.8-1.2,2.8-3.2C189.3,135,189.3,130.3,189.3,125.6z M292.6,138.6c0-5.6,0-11.1,0-16.7c0-1.5-0.4-3.4,2.3-2.9
		c1.5,0.3,3.6,1.7,3.5-1.6c0-2.1,0.8-4.6-2.8-5.1c-3.3-0.4-6.4-1.4-9.7-1.9c-1.4-0.2-3.8-1.7-3.9,1.4c-0.1,1.9-1,4.5,2.3,4.8
		c3.1,0.2,3.4,2.2,3.4,4.7c-0.1,8.7,0,17.4,0,26.1c0,2.4,0.1,4.9,0,7.3c-0.1,2.3,1.4,3.3,3.1,3.4c2.7,0.2,1.6-2.1,1.6-3.4
		C292.7,149.4,292.6,144,292.6,138.6z M197.6,122c0,5.7,0,11.4,0,17.1c0,1.9,0.1,3.5,2.6,3.5c2.7,0,2.5-1.7,2.5-3.5
		c0-11.2,0-22.5,0-33.7c0-1.8,0.1-3.5-2.5-3.5c-2.6,0-2.6,1.6-2.6,3.5C197.6,110.9,197.6,116.4,197.6,122z M309.7,107.9
		c-0.9,1-3.8-0.6-4.1,2.3c-0.2,1.8,1.2,1.9,2.4,1.5c1.7-0.4,4.1,0.1,4.2-2.7C312.3,107.6,311.3,107.4,309.7,107.9z"/>
	<path class="st3" d="M105.3,264.8c9.7,0,19.5,0.1,29.2,0c2.8,0,4.7,0.7,6.6,3.1c31.2,40.8,86.5,40.7,118-0.1c1.5-1.9,2.9-3,5.5-3
		c20.2,0.1,40.3,0.2,60.5,0c4.3,0,4,1.4,2.7,4.5c-24.3,56.2-65.5,93.8-123.8,112.6c-3,1-5.7,0.8-8.6-0.2
		c-57.8-18.9-98.8-56.2-123-112.1c-1.7-4-1.1-5,3.2-4.9C85.5,265,95.4,264.8,105.3,264.8z M200.3,335.4
		C200.3,335.4,200.3,335.4,200.3,335.4c0-6.2,0.1-12.5-0.1-18.7c-0.1-4.5-3.1-6.4-7.3-6.5c-4.2,0-5.7,2.7-5.7,6.5c0,2.6,0,5.2,0,7.8
		c0,9.2-0.1,18.4,0.1,27.6c0.1,4.6,3.6,7.8,8.1,7.6c4.6-0.2,4.8-3.7,4.9-7.2C200.4,346.9,200.3,341.2,200.3,335.4z M203,360.4
		c4.1-1.5,7.3-2.7,10.5-3.8c1.6-0.5,3.1-1.2,2.6-3.2c-0.8-2.8-2.7-0.8-3.7-0.3c-4.2,2-3.9-0.3-3.2-3.1c1.1-4.9,2.3-9.8,3.3-14.7
		c1.2-5.9,3-11.8,3.2-17.9c0.2-4.4-2.4-6.9-6.6-7.3c-3.4-0.3-5.4,1.9-6.2,5.1c-0.3,1.1-0.7,2.5,1,2.9c1.3,0.3,2.4,0.1,2.8-1.5
		c0.4-1.6,1.1-3.2,3.1-2.5c2.3,0.8,2,2.9,1.7,4.8c-1.4,7.1-2.8,14.3-4.3,21.4C205.9,346.7,204.6,353.1,203,360.4z M184,316.6
		c0.1-5.8-2.1-8.3-6.3-8.8c-3.6-0.4-5.4,1.9-6.3,5c-0.3,1.1-0.8,2.6,0.8,3.1c1.2,0.4,2.5,0.2,2.9-1.4c0.4-1.6,1.1-3.3,3-2.6
		c1.9,0.7,2.2,2.6,1.8,4.4c-0.5,2.6-0.9,5.1-1.7,7.6c-2.4,7.3-5,14.4-7.4,21.7c-0.5,1.5-1.9,3.2,0.7,4.3c3.2,1.4,6.3,2.9,9.4,4.4
		c0.8,0.4,1.8,0.7,2.2-0.4c0.2-0.7,0.2-1.9-0.3-2.4c-0.8-0.8-1.9-1.5-3-1.8c-4.4-1.4-5.1-3.5-3.4-8C179.7,333.1,183,324.4,184,316.6
		z M225.3,329.6c0-6.2,0-12.5,0-18.7c0-1.1,0.6-2.8-0.8-3.3c-2.2-0.7-3.9,0.7-5.7,1.8c-1.1,0.7-1.8,1.6-1.6,3c0.1,0.7,0.4,1.4,1.4,1
		c4.2-1.9,2.8,1.7,2.8,3.2c0.1,10.6,0,21.2,0.1,31.8c0,1.3-1.4,3.9,1.5,3.9c2.3,0,2.3-2.1,2.3-3.9
		C225.3,342.1,225.3,335.8,225.3,329.6z"/>
	<path class="st2" d="M199.9,287.1c-34.2-0.1-61.7-27.5-61.7-61.5c0-34.1,27.9-61.9,62.1-61.8c33.8,0.1,61.6,28.1,61.5,61.9
		C261.7,259.6,234,287.1,199.9,287.1z M216.1,208.3c0.9,0.8,1.5,1.1,1.7,1.5c2.7,5.8,6.4,3.2,9.3,0.7c3.7-3-1.2-4.4-1.9-6.6
		c-0.1-0.5-0.6-0.9-1-1.2c-3.6-2.5-2-4.4,0.3-6.9c2.9-3.1,4.2-0.3,5.7,1.3c1.8,1.9,3.4,4,4.8,6.1c2.8,4.2,4.7-0.2,6.9-0.7
		c2.8-0.7,2.1-2.5,0.9-4.3c-2.1-3.2-4.4-6.3-7.3-8.8c-9.5-8.5-7.8-8.7-17.2,0c-3.5,3.3-6,6.2-11.3,3.6c-2.2-1.1-5.4-1.5-7.7-0.7
		c-9.6,3.3-16.6,0.2-22.6-7.3c-2.3-2.9-4.8-2-7.6,0c-18.1,13.8-24.7,38.5-16.1,59.5c1.7,4.1,3.2,4.9,7,2.5c2.7-1.6,3.3-2.9,1.8-5.7
		c-1-2-1.7-4.2-2.1-6.4c-0.2-1.6-2.9-4.4,1-4.8c2.5-0.3,6-1.6,6.9,3.1c0.8,4.5,2.9,8.5,5.7,12.1c5.4,7.1,5.5,7.1-1.7,12.6
		c-1.2,1-2.5,1.9-3.9,2.6c-2.4,1.2-1.8,2.3-0.2,3.8c4.7,4.3,6.3,4.7,11.5-0.9c4.9-5.2,9.5-8.6,16.7-5.1c0.7,0.3,1.7,0.1,2.6,0.2
		c5.1,0.7,10.4-3,14.7-1.6c4.3,1.4,7,6.9,11.2,9.8c1.6,1.1,2.9,1.5,4.6,0.2c14.4-10.7,21.6-25,21.6-42.9c0-2.1-0.6-3.2-2.9-3.2
		c-7.1,0.1-14.3,0.1-21.4,0c-3.9-0.1-2.8,2.7-2.8,4.7c-0.1,2.1-0.8,4.8,3,4.6c3.5-0.1,7,0.1,10.4-0.1c3.4-0.2,4.7,0.7,3.7,4.4
		c-2,7.4-5.1,14-10.5,19.5c-1.7,1.8-3.1,3.7-5.8,0.8c-2.3-2.5-3.3-4.1-0.2-6.6c1.5-1.1,2.5-2.9,3.6-4.4c0.6-0.8,1.3-1.6,0.5-2.8
		c-1.8-2.8-7.4-3.4-9.6-0.7c-1.8,2.1-2.7,2.3-3.7-0.6C211,229.2,211.4,219,216.1,208.3z"/>
	<path class="st2" d="M225.7,51.1c-7.5,8.2-16.2,15.1-24.1,22.7c-2,2-3.1,0.1-4.2-0.9c-7.8-7.1-15.6-14.2-23.4-22.1
		c17.2,5.4,34.2,5.3,51.2-0.2C225.4,50.8,225.5,51,225.7,51.1z"/>
	<path class="st2" d="M225.2,50.6c0.3-0.4,0.7-0.6,1.1-0.1c0,0-0.4,0.4-0.6,0.6C225.5,51,225.4,50.8,225.2,50.6z"/>
	<path class="st4" d="M83.6,142.9c0-5.6-0.1-11.1,0-16.6c0.1-4,1.6-7.5,5-9.9c4.5-3.1,8.6-1.7,10,3.6c0.6,2.1,0.6,4.5,0.6,6.7
		c0,2.1-1.8,2.3-3.3,2.5c-1.9,0.3-1.7-1.2-1.8-2.4c-0.2-1.7,0-3.9-2.4-3.9c-2.4,0-3.1,2.2-3.1,4.1c-0.1,9.4-0.2,18.7-0.1,28.1
		c0,1.3,0.2,3,2.1,3c1.6,0.1,3-1.1,3.1-2.3c0.2-3.8,3.7-8.1-1.7-11.2c-1.6-0.9-1.2-3.9-0.3-5.3c1.4-2.3,4.5-2.9,6.9-2.6
		c1.8,0.2,0.9,2.6,0.9,4c0.1,4.2,0.1,8.3-0.1,12.5c-0.3,4.3-1.8,8.1-5.3,10.9c-2.1,1.7-4.6,2.8-7.2,1.6c-2.6-1.1-3.2-3.6-3.2-6.1
		C83.5,154,83.5,148.4,83.6,142.9C83.6,142.9,83.6,142.9,83.6,142.9z"/>
	<path class="st4" d="M141.2,127.5c0-6.1,0.1-12.1,0-18.2c-0.1-2.7,0.9-3.9,3.5-3.9c3.8,0,8.4-2.2,11.1,1.9
		c3.4,5.1,3.3,11.3,0.5,16.4c-2.1,3.9-2.1,6.9-0.8,10.6c0.9,2.4,1.6,5,2,7.5c0.3,1.5,2.1,3.7-1.4,4.3c-2.9,0.5-3.6-0.9-4-3.3
		c-0.5-2.9-1.2-5.8-2.1-8.6c-0.5-1.6,0.2-4.7-2.5-4.2c-2.4,0.4-1.2,3.2-1.3,5c-0.2,3.3-0.2,6.6,0,9.9c0.1,2.4-0.8,3.6-3.2,3.6
		c-2.6,0-1.8-2-1.9-3.4C141.2,139.3,141.2,133.4,141.2,127.5z M146.1,117.5c1.5,1.6-2.3,5.5,2.2,5.8c4.1,0.3,4.4-3.1,4.2-6.2
		c-0.2-2.4,1-5.7-3.1-5.9C144.7,111.1,146.8,114.9,146.1,117.5z"/>
	<path class="st4" d="M102.6,133.1c0-5.4,0-10.8,0-16.1c0-2.3-0.4-4.8,3.1-4.7c3.3,0.2,1.8,2.8,1.8,4.3c0.1,9.9,0,19.8,0.1,29.7
		c0,1.8-1,4.8,2.3,4.7c2.5-0.1,3-2.5,3-4.7c0-10.4,0-20.8,0.1-31.2c0-2-1-4.9,2.7-4.9c4.2,0,2.2,3.3,2.2,5
		c0.2,10.1,0.1,20.1,0.1,30.2c0,4.7-1.4,8.9-5.5,11.8c-4.9,3.3-9.1,1.6-9.6-4.3c-0.5-6.5-0.1-13.2-0.1-19.8
		C102.8,133.1,102.7,133.1,102.6,133.1z"/>
	<path class="st4" d="M218.4,123.4c0-5.6-0.1-11.3,0-16.9c0-1.6-1-4.2,2.3-4.1c3,0,2.6,2.1,2.6,4c0,11.1,0,22.2,0,33.4
		c0,1.4,0.8,3.4-1.6,3.7c-2.1,0.3-3-1-3.6-3c-1.8-6.5-3.7-12.9-6.8-19.3c0,5.7,0.1,11.4-0.1,17.1c0,1.6,1.2,4.2-2,4.4
		c-3.5,0.1-2.5-2.7-2.5-4.5c-0.1-10.8-0.1-21.5,0-32.3c0-1.4-0.9-3.3,1.6-3.7c2.4-0.4,2.9,1.3,3.3,3c1.8,6.2,3.6,12.4,5.4,18.6
		C217.5,123.6,218,123.5,218.4,123.4z"/>
	<path class="st4" d="M316.9,167.6c-3.6,0.2-5.3-1.3-5.5-4.4c-0.1-1.6-0.2-3.1-0.5-4.7c-0.5-3.2-3.3-3.4-5.5-3.8
		c-2.4-0.5-1.3,2.2-2,3.3c-0.9,1.3,0.9,4.3-2.7,3.7c-3.3-0.5-2.9-2.6-2.5-5c2.2-12.5,4.2-24.9,6.4-37.4c0.3-1.6-0.7-4.3,2.3-4.3
		c2.5,0.1,2.7,2.3,3,4.2c1.8,12.5,3.7,25,5.5,37.5C315.9,160.4,316.4,163.9,316.9,167.6z M306.8,133.8c-0.6,3.9-1.3,7.8-1.8,11.6
		c-0.4,2.6,1.7,3,3.3,3c2.5,0,1.1-2,1.1-3.1C309.2,141.5,308.9,137.7,306.8,133.8z"/>
	<path class="st4" d="M262.2,125.8c0,5,0.1,10.1,0,15.1c-0.1,3.5-0.8,6.8-4.8,7.7c-4.3,0.9-7.4-1.2-9.3-5c-1-2.1-1.3-4.3-1.3-6.6
		c-0.1-9.5-0.1-19.1,0-28.6c0-1.6-0.7-3.8,2.2-3.6c2.7,0.1,2.7,1.9,2.7,4c-0.1,8.7,0,17.4,0,26c0,1.4,0,2.8,0.1,4.2
		c0.2,1.7,1.1,3,3,3c2.3,0,2.3-1.8,2.3-3.4c0.1-7.6,0.1-15.3,0.1-22.9c0-1.9-0.1-3.8,0-5.7c0.1-1.8-0.7-4.1,2.6-3.9
		c3.1,0.2,2.4,2.4,2.4,4.2C262.3,115.4,262.3,120.6,262.2,125.8C262.2,125.8,262.2,125.8,262.2,125.8z"/>
	<path class="st4" d="M227.7,123.4c0-4.3-0.1-8.7,0-13c0.1-3.1,1.3-6,4.5-6.9c3.1-1,6.2-0.6,8.6,2.1c2.4,2.9,2.8,6.3,2.4,9.8
		c-0.2,1.4-1.4,1.2-2.4,1.2c-1.6,0-2.6-0.7-2.6-2.5c0-2.2-0.2-4.7-3.1-4.4c-3.3,0.3-2.5,3.3-2.5,5.3c-0.1,5.9-0.1,11.8,0,17.7
		c0,2.3-0.6,5.1,2.5,6.2c1.3,0.5,2.6,0.2,3-1.2c0.9-2.8,2-6.4-0.3-8.2c-2.4-1.8-2.9-3.7-2-5.6c1.1-2.3,3.7-0.8,5.7-0.7
		c2.9,0.2,2.1,2.7,2.1,4.4c0.1,3.3,0.1,6.6-0.1,9.9c-0.2,4.2-1.6,7.6-6.4,8c-4.3,0.4-8.6-2.9-9.1-7.6c-0.5-4.8-0.1-9.7-0.1-14.5
		C227.8,123.4,227.7,123.4,227.7,123.4z"/>
	<path class="st4" d="M138.3,147.9c0.5,2-1.1,2.1-2.7,2.5c-2.1,0.5-2.1-0.9-2.6-2.2c-0.6-1.7,1.1-5-3.1-4.5c-3.4,0.3-4.9,2-5,5.2
		c0,1-0.2,2.1-0.5,3.1c-0.4,1.9-2.1,2.4-3.6,2.3c-2.3-0.2-1.2-2-1-3.2c2.2-13.5,4.4-27,6.6-40.5c0.2-1.6,0.8-2.6,2.4-2.9
		c1.7-0.3,2.2,0.8,2.4,2C133.6,122.4,135.9,135,138.3,147.9z M129.1,124c-2.1,3.5-1.4,7.3-2.4,10.8c-0.3,1.2-0.9,3,1.5,2.9
		c2-0.1,3.3-0.7,2.8-3.2C130.4,131.2,130.5,127.6,129.1,124z"/>
	<path class="st4" d="M178.7,140.9c0.4,1.6-0.1,2.6-1.9,2.9c-1.9,0.2-2.9-0.3-3.3-2.3c-0.4-2,0.8-5.1-3.5-5
		c-3.9,0.1-4.7,2.4-4.8,5.3c-0.1,2.8-1.6,4-3.9,3.5c-2.8-0.5-1.1-2.8-0.9-4.2c2-11.6,4.2-23.2,6.3-34.8c0.3-1.5,0.3-3.1,2.5-3.2
		c2-0.1,2.3,1.2,2.6,2.6C174.2,117.4,176.4,129.2,178.7,140.9z M170,117.7c-0.4,0-0.7,0-1.1,0c-0.6,3.3-1.3,6.6-1.8,10
		c-0.2,1.4-0.9,3.3,1.8,3.2c2.4-0.1,2.8-1.4,2.4-3.5C170.9,124.2,170.5,121,170,117.7z"/>
	<path class="st1" d="M265.9,128.8c0-5.7,0.2-11.5-0.1-17.2c-0.2-4,1.4-4.8,4.8-4c1.8,0.4,3.8,0.5,5.6,1c2.8,0.7,3.2,3,2.8,5.4
		c-0.5,3.2-2.6,1.2-4,0.8c-2.9-0.6-4.6-0.4-4.5,3.3c0.2,4.8-1.1,9.9,6.4,10.2c3.1,0.1,2.1,3.2,1.9,5c-0.3,2.7-2.6,1.3-3.6,0.8
		c-3.9-1.5-4.5,0-4.7,3.7c-0.4,5.3,0.4,9.1,6.7,9.6c3.5,0.3,3.4,3.2,2.8,5.5c-0.8,2.8-2.8,0.8-4.2,0.5c-9.9-2.7-9.9-2.8-9.9-13.1
		C265.9,136.4,265.9,132.6,265.9,128.8z"/>
	<path class="st4" d="M189.3,125.6c0,4.7,0,9.4,0,14.1c0,2-0.3,3.3-2.8,3.2c-2.4-0.1-2.3-1.5-2.3-3.2c0-8.8,0-17.7,0-26.5
		c0-2.5,0.8-5.5-3.6-5c-2,0.2-1.8-1.6-1.9-2.9c0-1.5,0.1-2.9,2.1-2.9c4-0.1,8-0.2,12-0.3c1.8-0.1,2.4,0.9,2.4,2.6
		c0,1.6,0,3.4-2.2,3.3c-3.7-0.2-3.6,2.1-3.6,4.7C189.4,116.9,189.3,121.3,189.3,125.6z"/>
	<path class="st1" d="M292.6,138.6c0,5.4,0.1,10.8-0.1,16.2c0,1.2,1.1,3.6-1.6,3.4c-1.8-0.1-3.2-1.1-3.1-3.4c0.1-2.4,0-4.9,0-7.3
		c0-8.7-0.1-17.4,0-26.1c0-2.5-0.3-4.5-3.4-4.7c-3.3-0.2-2.4-2.9-2.3-4.8c0.1-3.2,2.5-1.6,3.9-1.4c3.3,0.5,6.4,1.5,9.7,1.9
		c3.5,0.4,2.7,2.9,2.8,5.1c0.1,3.3-2,1.8-3.5,1.6c-2.6-0.5-2.2,1.4-2.3,2.9C292.6,127.5,292.6,133,292.6,138.6z"/>
	<path class="st4" d="M197.6,122c0-5.5,0-11.1,0-16.6c0-1.8,0-3.4,2.6-3.5c2.7,0,2.5,1.7,2.5,3.5c0,11.2,0,22.5,0,33.7
		c0,1.8,0.2,3.5-2.5,3.5c-2.6,0-2.6-1.6-2.6-3.5C197.6,133.4,197.6,127.7,197.6,122z"/>
	<path class="st4" d="M309.7,107.9c1.6-0.5,2.6-0.3,2.6,1.1c-0.2,2.7-2.6,2.2-4.2,2.7c-1.2,0.3-2.6,0.3-2.4-1.5
		C305.9,107.3,308.8,108.9,309.7,107.9z"/>
	<path class="st4" d="M200.3,335.4c0,5.7,0,11.4,0,17.2c0,3.4-0.3,6.9-4.9,7.2c-4.5,0.2-8.1-3-8.1-7.6c-0.2-9.2-0.1-18.4-0.1-27.6
		c0-2.6,0-5.2,0-7.8c0.1-3.8,1.5-6.5,5.7-6.5c4.2,0,7.1,2,7.3,6.5C200.4,322.9,200.3,329.2,200.3,335.4
		C200.3,335.4,200.3,335.4,200.3,335.4z M196.4,335.2c0-5.7,0-11.4,0-17.2c0-2.1-0.4-4-2.9-4c-2.6,0-2.2,2.2-2.2,3.9
		c0,7.6,0,15.3,0,22.9c0,3.5,0,6.9,0,10.4c0,2.3,0.8,4.4,3.4,4.3c2.5-0.1,1.8-2.5,1.8-4.1C196.4,346,196.4,340.6,196.4,335.2z"/>
	<path class="st4" d="M203,360.4c1.5-7.3,2.9-13.7,4.2-20c1.5-7.1,2.9-14.3,4.3-21.4c0.4-1.9,0.7-4-1.7-4.8c-2-0.7-2.7,0.9-3.1,2.5
		c-0.4,1.6-1.5,1.8-2.8,1.5c-1.8-0.4-1.3-1.8-1-2.9c0.8-3.2,2.8-5.4,6.2-5.1c4.1,0.4,6.7,2.9,6.6,7.3c-0.2,6.1-2,12-3.2,17.9
		c-1,4.9-2.2,9.8-3.3,14.7c-0.6,2.8-1,5.1,3.2,3.1c1-0.5,2.9-2.5,3.7,0.3c0.6,2-1,2.6-2.6,3.2C210.4,357.7,207.2,358.9,203,360.4z"
		/>
	<path class="st4" d="M184,316.6c-1,7.9-4.3,16.5-7.6,25.1c-1.7,4.5-1,6.7,3.4,8c1.1,0.3,2.3,1,3,1.8c0.5,0.5,0.5,1.7,0.3,2.4
		c-0.4,1.1-1.4,0.8-2.2,0.4c-3.1-1.5-6.2-3-9.4-4.4c-2.6-1.1-1.2-2.9-0.7-4.3c2.4-7.2,5-14.4,7.4-21.7c0.8-2.5,1.3-5,1.7-7.6
		c0.3-1.8,0.1-3.8-1.8-4.4c-2-0.7-2.6,1-3,2.6c-0.4,1.6-1.6,1.8-2.9,1.4c-1.6-0.5-1.1-2-0.8-3.1c0.8-3.1,2.7-5.4,6.3-5
		C181.9,308.3,184.1,310.8,184,316.6z"/>
	<path class="st4" d="M225.3,329.6c0,6.2,0,12.5,0,18.7c0,1.8,0,3.9-2.3,3.9c-3,0-1.5-2.6-1.5-3.9c-0.1-10.6,0-21.2-0.1-31.8
		c0-1.5,1.4-5-2.8-3.2c-1,0.4-1.2-0.3-1.4-1c-0.2-1.4,0.5-2.3,1.6-3c1.7-1.2,3.5-2.6,5.7-1.8c1.4,0.5,0.8,2.1,0.8,3.3
		C225.3,317.1,225.3,323.3,225.3,329.6z"/>
	<path class="st1" d="M216.1,208.3c-4.8,10.7-5.1,20.9-1.3,31.4c1,2.8,1.9,2.7,3.7,0.6c2.2-2.7,7.8-2.1,9.6,0.7
		c0.7,1.2,0.1,2-0.5,2.8c-1.1,1.5-2.1,3.3-3.6,4.4c-3.1,2.5-2.1,4.1,0.2,6.6c2.7,2.9,4,1,5.8-0.8c5.4-5.5,8.5-12.1,10.5-19.5
		c1-3.7-0.2-4.6-3.7-4.4c-3.5,0.2-7-0.1-10.4,0.1c-3.8,0.2-3-2.5-3-4.6c0-2-1.1-4.7,2.8-4.7c7.1,0.1,14.2,0.1,21.4,0
		c2.3,0,2.9,1,2.9,3.2c0,18-7.2,32.2-21.6,42.9c-1.8,1.3-3,0.8-4.6-0.2c-4.2-2.8-6.9-8.4-11.2-9.8c-4.3-1.4-9.5,2.3-14.7,1.6
		c-0.9-0.1-1.9,0.2-2.6-0.2c-7.2-3.5-11.8-0.1-16.7,5.1c-5.2,5.6-6.9,5.2-11.5,0.9c-1.6-1.5-2.2-2.6,0.2-3.8
		c1.4-0.7,2.7-1.6,3.9-2.6c7.1-5.5,7.1-5.6,1.7-12.6c-2.8-3.6-4.9-7.7-5.7-12.1c-0.9-4.7-4.3-3.3-6.9-3.1c-3.9,0.4-1.3,3.2-1,4.8
		c0.3,2.2,1,4.4,2.1,6.4c1.4,2.7,0.8,4.1-1.8,5.7c-3.8,2.3-5.3,1.6-7-2.5c-8.5-21-1.9-45.7,16.1-59.5c2.7-2.1,5.2-2.9,7.6,0
		c6,7.4,13,10.6,22.6,7.3c2.2-0.8,5.5-0.4,7.7,0.7c5.3,2.6,7.8-0.3,11.3-3.6c9.4-8.7,7.7-8.5,17.2,0c2.9,2.6,5.1,5.6,7.3,8.8
		c1.2,1.9,1.9,3.6-0.9,4.3c-2.2,0.6-4.1,5-6.9,0.7c-1.4-2.2-3-4.2-4.8-6.1c-1.5-1.6-2.7-4.4-5.7-1.3c-2.3,2.4-3.9,4.4-0.3,6.9
		c0.4,0.3,0.9,0.7,1,1.2c0.6,2.2,5.5,3.6,1.9,6.6c-3,2.4-6.7,5-9.3-0.7C217.6,209.4,217,209.1,216.1,208.3z M199.4,249.3
		c8,0,8.6-0.9,6.3-7.7c-3.6-10.7-3.6-21.5,0-32.2c2.3-6.8,1.5-8-6-7.7c-1.2,0-2.4,0.3-3.6,0.4c-3.4,0.2-4.4,1.2-2.9,4.9
		c5,12.2,5,24.7,0,37c-1.5,3.7-0.3,4.6,2.9,4.9C197.5,249,198.8,249.2,199.4,249.3z M163.1,220.8c2.9,1.1,4-0.6,4.7-3.4
		c1.4-6.1,4.4-11.4,9-15.6c2.9-2.7,0.3-3.7-1-5.3c-1.5-1.8-2.8-2.7-5-0.5c-5.8,5.9-9.4,12.8-11.4,20.7
		C158.6,220.1,159.2,221.5,163.1,220.8z M183.6,208.6c-3.3,2.5-5,5.8-6.2,9.4c-0.6,1.9-0.4,3,2,2.9c1.9-0.1,3.8-0.1,5.7,0
		c1.9,0,2.4-1.1,2-2.6C186.2,215,185.9,211.5,183.6,208.6z M183.7,242.2c2-2.3,2.3-5.3,3.1-8c0.8-2.7,0.3-4.4-3.1-4
		c-2.2,0.3-5.2-1.1-6.3,0.8c-1.2,2,0.8,4.5,2,6.6C180.5,239.3,181.5,241.1,183.7,242.2z"/>
	<path class="st2" d="M146.1,117.5c0.6-2.6-1.4-6.4,3.3-6.3c4.1,0.1,2.9,3.5,3.1,5.9c0.2,3.1-0.1,6.5-4.2,6.2
		C143.9,123,147.6,119.1,146.1,117.5z"/>
	<path class="st0" d="M306.8,133.8c2.1,3.9,2.3,7.7,2.5,11.5c0,1.1,1.5,3.1-1.1,3.1c-1.6,0-3.7-0.5-3.3-3
		C305.6,141.5,306.2,137.7,306.8,133.8z"/>
	<path class="st0" d="M129.1,124c1.5,3.6,1.3,7.2,2,10.5c0.5,2.5-0.8,3.1-2.8,3.2c-2.4,0.1-1.8-1.7-1.5-2.9
		C127.6,131.4,126.9,127.5,129.1,124z"/>
	<path class="st0" d="M170,117.7c0.5,3.2,0.9,6.5,1.4,9.7c0.3,2,0,3.4-2.4,3.5c-2.7,0.1-2-1.8-1.8-3.2c0.5-3.3,1.2-6.7,1.8-10
		C169.3,117.7,169.7,117.7,170,117.7z"/>
	<path class="st2" d="M196.4,335.2c0,5.4,0.1,10.7,0,16.1c0,1.6,0.6,4-1.8,4.1c-2.6,0.1-3.4-1.9-3.4-4.3c0-3.5,0-6.9,0-10.4
		c0-7.6,0-15.3,0-22.9c0-1.7-0.3-3.9,2.2-3.9c2.5,0,2.9,1.9,2.9,4C196.4,323.8,196.4,329.5,196.4,335.2z"/>
	<path class="st2" d="M199.4,249.3c-0.6-0.1-2-0.3-3.3-0.4c-3.2-0.4-4.4-1.2-2.9-4.9c5-12.2,5-24.7,0-37c-1.5-3.7-0.5-4.7,2.9-4.9
		c1.2-0.1,2.4-0.4,3.6-0.4c7.5-0.3,8.3,0.9,6,7.7c-3.6,10.7-3.6,21.5,0,32.2C208,248.3,207.4,249.2,199.4,249.3z"/>
	<path class="st2" d="M163.1,220.8c-3.9,0.7-4.5-0.7-3.7-4c2-8,5.6-14.9,11.4-20.7c2.2-2.2,3.5-1.4,5,0.5c1.3,1.6,3.9,2.6,1,5.3
		c-4.6,4.2-7.6,9.5-9,15.6C167.1,220.2,165.9,221.9,163.1,220.8z"/>
	<path class="st2" d="M183.6,208.6c2.4,2.9,2.7,6.3,3.5,9.6c0.4,1.6-0.1,2.7-2,2.6c-1.9,0-3.8-0.1-5.7,0c-2.3,0.1-2.6-1-2-2.9
		C178.6,214.4,180.3,211.1,183.6,208.6z"/>
	<path class="st2" d="M183.7,242.2c-2.2-1.1-3.2-2.9-4.2-4.7c-1.2-2.1-3.2-4.5-2-6.6c1.1-1.9,4.1-0.5,6.3-0.8c3.3-0.4,3.9,1.3,3.1,4
		C186,236.9,185.7,239.9,183.7,242.2z"/>
</g>
</svg>
