<?xml version="1.0" encoding="UTF-8"?>
<svg id="Layer_1" data-name="Layer 1" xmlns="http://www.w3.org/2000/svg" xmlns:xlink="http://www.w3.org/1999/xlink" viewBox="0 0 439.81 596.09">
  <defs>
    <style>
      .cls-1 {
        fill: #e90e8b;
      }

      .cls-2 {
        fill: #0067b1;
      }

      .cls-3 {
        fill: #fff;
      }

      .cls-4 {
        fill: none;
      }

      .cls-5 {
        fill: #011e41;
      }

      .cls-6 {
        clip-path: url(#clippath-1);
      }

      .cls-7 {
        fill: #ffcd00;
      }

      .cls-8 {
        fill: #488501;
      }

      .cls-9 {
        fill: #8c9091;
      }

      .cls-10 {
        clip-path: url(#clippath);
      }
    </style>
    <clipPath id="clippath">
      <path class="cls-4" d="M198.11,193.85c-.47-1.98-1.1-4.47-1.78-7.06-5.06-19.5-2.61-10.07-3.66-20.8-14.81.56-30.13,2.09-44.45,4.17,0,0,0,0,0,0-16.05,2.34-29.52,5.14-38.45,7.2v178.71c11.29-1.48,27.81-3.72,38.45-5.61l7.66-1.43c1.05-.27,1.57-.45,1.79-.54,3.37-2.28,8.72-5.38,13.16-6.87,1.89-.63,3.44-.93,4.89-.93,1.78,0,3.1.45,3.97.83.23-.16.52-.38.91-.7.2-.16.68-.56.82-.67,1.23-1.06,2.6-2.06,4.1-2.99,2.68-1.67,5.77-3.14,9.24-4.37.55-.21,1.14-.33,1.75-.38l.74-.55.89-45.36.58-29.6s.57-58.01-.62-63.06Z"/>
    </clipPath>
    <clipPath id="clippath-1">
      <path class="cls-4" d="M330.04,177.36c-8.93-2.06-22.4-4.86-38.45-7.2-13.41-1.95-28.61-3.58-44.45-4.18,0,0,.49,4.24-.74,9.4-.75,3.13-1.87,7.4-2.91,11.41-.67,2.59-1.31,5.08-1.78,7.06-1.19,5.05-.62,63.06-.62,63.06l.64,29.6,1.1,50.66.03,1.42,2.24-1.42c1.37-.75,3.12-1.42,5.36-1.42h0c2.26,0,4.24.58,6.04,1.42,2,.93,3.78,2.18,5.44,3.35,1.99,1.41,3.88,2.75,6.05,3.55,1.45.53,2,.62,5.9,1.12,2.21.28,5.24.67,9.77,1.34,2.62.39,3.65.39,6.15.4.53,0,1.12,0,1.77.01,2.1.02,4.93.08,9.3.3,11.05.55,20.01,1.73,26.64,3.5.83.22,1.68.45,2.52.67v-174.06Z"/>
    </clipPath>
  </defs>
  <path class="cls-3" d="M404.34,105.85c0-4.37-2.62-8.26-6.66-9.9-49.43-20.08-104.5-30.67-159.11-32.75-2.15-1.8-4.71-3.09-6.99-3.99-.18-5.44-.6-21.41-1.52-26.88-.83-4.87-5-8.47-9.94-8.58h-.23c-5.05,0-9.32,3.67-10.16,8.72-.86,5.22-1.35,21.28-1.51,26.6-2.31.93-4.89,2.24-7.01,4.04-54.01,1.77-109.57,11.97-159.2,32.82-3.98,1.67-6.55,5.54-6.55,9.85v296.25c0,36.66,33.69,72.49,61.4,96.43,30.56,26.4,71.34,51.7,114.83,71.25l2.67,1.2c.67.24,2.54,1.45,5.53,1.45,1.53,0,3.02-.32,4.42-.95.19-.09,4.02-1.81,3.78-1.7,43.49-19.54,84.27-44.85,114.83-71.25,27.72-23.95,61.4-59.78,61.4-96.43V105.85Z"/>
  <path class="cls-5" d="M395.04,102.43c-25.36-10.3-52.96-18.41-82.98-24.04-24.93-4.67-50.6-7.45-76.55-8.3-2.72-3.92-10.81-5.69-10.81-5.69,0,0-.09-17.3-.76-24.47-.22-2.15-.43-4.29-.79-6.44-.25-1.5-1.53-2.72-3.2-2.75-1.66-.04-3.06,1.23-3.33,2.87-.63,3.79-1.03,8.98-1.23,12.76-.24,4.17-.28,17.83-.28,17.83,0,0-8.43,2-10.79,5.82-26.88.73-53.31,3.54-78.77,8.38-27.89,5.31-55.06,13.15-80.82,23.98-1.37.58-2.26,1.92-2.26,3.41v296.25c0,34.16,33.1,68.78,58.98,91.14,30.06,25.97,70.24,50.89,113.12,70.16.18.08,4.03,1.81,3.78,1.7.99.44,2.12.44,3.1,0,.19-.09,4.02-1.81,3.78-1.7,42.89-19.27,83.06-44.19,113.12-70.16,25.83-22.31,58.98-56.96,58.98-91.14V105.85c0-1.5-.91-2.86-2.3-3.42ZM321.51,387.36l-20.26,9.67c-4.69,2.24-9.81,3.4-15,3.4h-41.51c-.55-17.45-1.17-36.9-1.73-54.67,3.55-1.05,4.82-3.41,7.4-3.45,5.95-.06,9.97,7.99,20.38,9.08.09,0,8.64,1.14,11.92,1.62,5.65.84,5.6.16,17.85.77,7.79.39,17.75,1.28,25.28,3.29,2.97.79,6,1.6,9.11,2.42,4.25.75,9.65,2.36,12.7,3.33,1.31.41,1.87,1.96,1.12,3.12-3.42,5.26-11.07,11.63-11.07,11.63-4.94,3.77-10.23,7.01-16.17,9.78h0ZM351.01,407h.28c-1.93,6.25-5.71,12.4-11.57,18.92-8.26,9.19-20.51,18.88-39.7,31.41-15.87,10.36-30.47,16.3-40.03,16.3-5.33,0-7.5-1.77-8.8-3.31-2.02-2.4-4.51-7.59-4.84-18.71-.18-6-.72-23.34-1.4-44.62h106.07ZM151.43,400.42c-5.5,0-10.92-1.34-15.79-3.9-5.89-3.09-17.67-9.28-23.56-12.37h0c-2.77-1.57-5.4-3.26-7.93-5.08,0,0,0,0,0,0-.35-.26-4.8-4.23-5.63-5.13-2.01-1.94-4.22-4.2-6.01-6.36-.98-1.18-.26-2.97,1.25-3.16,2.36-.29,5.59-.64,8.36-.75,12.45-1.62,45.12-5.79,55.36-8.44.92-.24,2.76-.74,3.54-1.27,3.22-2.21,8.13-5.01,11.84-6.26,3.35-1.12,3.91-.41,5.21.12.7.29,1.21.37,1.65.38,1.74.04,3.54-1.29,4.9-2.39.25-.2.93-.77.94-.78,3.2-2.77,7.43-4.83,11.47-6.26-.63,19.95-1.32,42.11-1.94,61.64h-43.68ZM194.9,407c-.67,21.07-1.21,38.17-1.43,44.57-.38,11.24-2.88,16.49-4.91,18.91-1.29,1.53-3.43,3.29-8.66,3.29-9.48,0-24.1-5.99-40.11-16.44-19.19-12.53-31.44-22.22-39.7-31.41-5.86-6.52-9.64-12.67-11.57-18.92h106.38ZM390.84,402.03c0,31.79-32.58,65.35-56.73,86.22-50.36,43.51-112.44,69.41-114.2,70.35l-2.67-1.2c-42.33-19.02-81.94-43.58-111.54-69.15-24.16-20.87-56.73-54.43-56.73-86.22v-108.4c0-.98.56-1.9,1.47-2.25,1.3-.5,2.68.2,3.08,1.45l9.66,29.84c5.26,18.45,12.07,32.07,18.92,42.09,8.41,12.3,16.9,19.15,22.69,22.78,0,0,6.75,4.22,18.32,9.59.57.26,1,.79,1.06,1.42.11,1.09-.74,1.96-1.75,1.96h-41.79c1.04,11.51,6.86,21.14,14.62,29.77,10.89,12.12,27.27,23.56,40.98,32.51,15.44,10.08,45.39,26.1,57.31,11.88,4.86-5.8,6.17-15.28,6.43-22.87.77-22.78,5.27-248.58,5.42-253.79.06-2.29-1.9-9.57-3.2-14.4-1.87-6.93-3.01-11.33-3.01-14.26,0-35.24.06-25.87.03-27.67-3.55-1.24-7.29-4-8.2-8.46-1.19-5.85,1.87-10.68,5.13-12.1.73-.32,6.96-1.85,10.96-3.63v-9.08c-1.39-1.86-2.58-1.95-1.9-6.42.84-5.69,3.09-21.33,3.39-22.52,2.85-11.41,20.86-10.77,22.8.88.23,1.38,3,20.24,3.2,21.64.68,4.46-.51,4.55-1.9,6.42v9.08c4,1.78,10.23,3.31,10.96,3.63,3.26,1.41,6.32,6.24,5.13,12.1-.9,4.46-4.64,7.21-8.2,8.46-.07,3.93.03-12.05.03,27.67,0,2.92-1.14,7.32-3.01,14.26-1.3,4.82-3.26,12.11-3.2,14.4,0,.19,5.44,255.34,5.64,257.78.52,6.36,2.02,13.84,6.15,18.74,3.19,3.78,7.7,5.62,13.77,5.62,10.96,0,26.44-6.17,43.59-17.36,13.7-8.94,30.09-20.39,40.98-32.51,7.72-8.59,13.58-18.24,14.62-29.77h-41.73c-1.98,0-2.48-2.57-.79-3.35,12.61-5.85,19.34-10.22,18.37-9.61,6.07-3.8,15.09-11.13,23.9-24.57,6.44-9.83,12.76-22.93,17.71-40.29,0,0,0,0,0,0l9.65-29.84c.37-1.15,1.57-1.84,2.76-1.55.99.24,1.69,1.14,1.78,2.16,0,17.75.01,88.91.01,108.6Z"/>
  <path class="cls-2" d="M88.52,407c1.93,6.25,5.71,12.4,11.57,18.92,8.26,9.19,20.51,18.88,39.7,31.41,16.01,10.45,30.63,16.44,40.11,16.44,5.23,0,7.38-1.76,8.66-3.29,2.03-2.42,4.53-7.67,4.91-18.91.22-6.4.76-23.5,1.43-44.57h-106.38Z"/>
  <path class="cls-2" d="M246.35,451.62c.33,11.12,2.81,16.31,4.84,18.71,1.3,1.54,3.48,3.31,8.8,3.31,9.57,0,24.16-5.94,40.03-16.3,19.19-12.53,31.44-22.22,39.7-31.41,5.86-6.52,9.64-12.67,11.57-18.92h-106.35c.67,21.28,1.22,38.62,1.4,44.62Z"/>
  <path class="cls-8" d="M347.63,362.82c-3.04-.96-8.45-2.57-12.7-3.33-3.1-.82-6.14-1.63-9.11-2.42-7.53-2.01-17.49-2.9-25.28-3.29-12.24-.61-12.19.06-17.85-.77-12.51-1.85-13.55-1.53-16.97-2.79-6.66-2.46-10.43-7.92-15.27-7.92-2.64,0-3.81,2.37-7.46,3.45.56,17.77,1.18,37.22,1.73,54.67h41.51c5.19,0,10.32-1.16,15-3.4l20.26-9.67h0c5.94-2.77,11.24-6.02,16.17-9.79,0,0,7.66-6.38,11.07-11.63.75-1.16.19-2.71-1.12-3.12Z"/>
  <g>
    <path class="cls-3" d="M239.63,80.33c.14.95.32,2.15.53,3.55,24.07,1.01,47.94,3.71,70.98,8.03,25.18,4.72,49.31,11.36,71.75,19.75v-3.33c-22.59-8.52-46.9-15.25-72.3-20.01-23.03-4.32-46.9-7.01-70.96-8Z"/>
    <path class="cls-3" d="M248.62,152.84v3.54c21.57,1.25,43,3.85,63.71,7.73,24.67,4.63,48.4,11.09,70.55,19.21v-3.36c-22.25-8.23-46.17-14.77-71.1-19.44-20.54-3.85-41.78-6.43-63.17-7.68Z"/>
    <path class="cls-3" d="M56.91,111.47c21.59-8.3,44.99-14.87,69.59-19.56,23.63-4.5,48.24-7.24,73.18-8.15.21-1.42.39-2.61.53-3.54-24.96.89-49.56,3.62-73.15,8.11-24.81,4.73-48.41,11.4-70.14,19.83v3.31Z"/>
    <path class="cls-3" d="M137.43,158.46c-3.89.64-7.76,1.32-11.6,2.06-24.34,4.64-47.52,11.11-68.93,19.24v3.35c21.31-8.02,44.3-14.41,68.37-18.99,21.29-4.05,43.46-6.71,65.92-7.89v-3.54c-18.22.96-36.25,2.9-53.77,5.78"/>
  </g>
  <path class="cls-3" d="M104.35,111.53c-.1-.07-.21-.11-.35-.11-.06,0-.12,0-.18.02-6.88,1.66-21.68,5.71-34.53,9.63-.23.07-.45.23-.61.46-2.6,3.46-3.86,5.16-6.45,8.65-.16.22-.26.48-.26.71v31c0,.32.19.53.47.53.22-.03.47-.11,1.19-.35.93-.3,2.55-.82,5.49-1.73.48-.15.88-.68.88-1.16v-9.33c0-.89.68-1.8,1.55-2.06,10.7-3.19,21.51-6.19,29.67-8.24.58-.15.98.04,1.21.22.19.15.51.49.51,1.1v9.33c0,.21.07.37.21.48.14.11.33.14.54.09,2.63-.63,3.91-.94,6.55-1.54.47-.11.88-.61.88-1.07v-31c0-.2-.07-.38-.21-.48-2.63-2.07-3.92-3.08-6.55-5.13ZM102.94,129.98c0,.88-.71,1.78-1.58,1.99-9.51,2.39-18.37,4.95-26.93,7.42l-4.4,1.27-.02-8.73c0-.43.16-.87.45-1.26l1.25-1.66c.29-.39.68-.67,1.1-.79,10.1-2.98,20-5.73,27.16-7.55l.4-.05c.29,0,.57.09.79.25l1.74,1.33.05.75v7.04Z"/>
  <path class="cls-3" d="M306.02,105.83c-.16-.19-.38-.32-.62-.36-10.92-1.82-23.51-3.58-34.52-4.82-.03,0-.06,0-.09,0-.18,0-.35.06-.48.18-2.67,2.36-3.98,3.53-6.65,5.93-.15.13-.23-.31-.23-.1v31.95c0,.47.38.88.86.93,3.27.31,4.99.5,5.91.6.51.05.74.08.85.09.4,0,.7-.3.7-.71v-10.29c0-.45.18-.85.49-1.14.32-.29.76-.42,1.21-.37,14.36,1.7,24.21,3.3,28.95,4.07,1.68.27,3,.49,3.26.5.36,0,.62-.27.62-.65v-5.91c0-.47-.4-.93-.87-1.02-10.09-1.68-21.76-3.34-32.02-4.55-.92-.11-1.64-.91-1.64-1.82v-6.4c0-.45.19-.86.51-1.15l1.28-1.12c.33-.29.76-.41,1.2-.36,8.61,1.04,18.45,2.41,27,3.77.44.07.84.31,1.15.66l2,2.34c.17.2.38.32.61.36,3.41.58,5.04.89,5.89,1.05.62.12.71.15.87.15.38,0,.62-.25.62-.64v-2.73c0-.23-.09-.46-.26-.66-2.66-3.15-3.95-4.68-6.6-7.78Z"/>
  <path class="cls-3" d="M365.65,128.09c.43.13.81.41,1.1.79l1.96,2.6c.17.22.39.39.62.46,2.6.8,3.86,1.2,6.45,2.04.2.06.39.05.52-.04.12-.09.19-.25.19-.44v-2.73c0-.23-.1-.49-.26-.71-2.58-3.48-3.84-5.18-6.44-8.65-.17-.22-.39-.39-.62-.46-10.73-3.25-21.68-6.26-32.56-8.94-.05-.01-.11-.02-.19-.02-.11,0-.24.02-.35.11-2.64,2.03-3.93,3.03-6.55,5.08-.14.11-.21.28-.21.48v24.4c0,.23.09.47.26.67,2.65,3.27,3.94,4.86,6.56,8.13.16.2.39.35.62.41,10.87,2.68,21.84,5.69,32.6,8.95.1.03.33.08.52-.05,2.59-1.85,3.86-2.74,6.45-4.56.17-.12.2-.33.2-.45h.04c-.05-.58-.05-1.45-.05-2.73,0-.48-.4-1.03-.88-1.18-2.58-.83-3.84-1.23-6.44-2.03-.12-.03-.35-.07-.52.05l-2.46,1.63h-.23c-.25,0-.3,0-2.46-.64-3.39-.99-11.33-3.32-23.18-6.33-.42-.1-.82-.37-1.12-.74l-1.26-1.58c-.3-.37-.46-.81-.46-1.23v-17.51l.54-.52,1.23-.94c.44-.33.95-.28,1.21-.21,8.4,2.13,16.87,4.46,25.19,6.91Z"/>
  <path class="cls-3" d="M169.73,99.99c-.12-.11-.29-.17-.47-.17-11.13,1.32-22.3,2.94-33.3,4.84-.23.04-.45.17-.61.37-2.66,3.13-3.96,4.67-6.6,7.82-.16.2-.26.43-.26.66v24.4c0,.21.08.39.22.5,2.65,2.14,3.95,3.2,6.6,5.37.11.09.25.14.41.14,11.14-1.91,22.32-3.54,33.38-4.85.23-.03.45-.14.61-.32,2.68-2.96,3.99-4.39,6.66-7.31.16-.18.25-.4.25-.62h.04c-.05-.58-.05-1.44-.05-2.73,0-.41-.31-.71-.72-.71-.86.07-3.12.31-6.74.72-.23.03-.44.14-.61.32l-2.02,2.24c-.31.34-.72.56-1.16.61-13.43,1.7-20.03,2.82-23.2,3.36-2.77.47-3.12.53-3.67.08l-1.28-1.05c-.32-.27-.51-.68-.51-1.12v-16.88c0-.43.17-.88.47-1.23l1.28-1.49c.3-.36.71-.59,1.15-.67,9.77-1.61,24.9-3.75,25.89-3.75.37,0,.72.13.99.36l2.02,1.77c.15.13.35.19.57.16,2.67-.3,3.98-.44,6.66-.72.47-.05.86-.47.86-.93v-2.73c0-.21-.09-.4-.23-.54-2.68-2.39-3.99-3.55-6.66-5.89Z"/>
  <path class="cls-1" d="M225.07,537.87s-.01,0-.02,0c0,0,.01,0,.02,0Z"/>
  <path class="cls-9" d="M385.63,310.1c.09-.28.5-.21.5.08v91.85c0,15.99-9.56,43.31-55.1,82.66-49.59,42.84-110.18,68.25-111.13,68.75-1.82-.96-62.03-26.34-111.13-68.75-45.54-39.34-55.1-66.66-55.1-82.66v-91.85c0-.29.41-.36.5-.08l4.47,13.86c5.22,18.3,17.83,51.4,43.64,67.56,2.36,1.49,4.29,2.45,6.91,3.74.26.13.17.53-.12.53-.09,0-26.36-.02-32.66,0-.45,0-.66.54-.66.9,0,12.74,5.23,24.75,16,36.73,8.94,9.95,21.87,20.22,41.91,33.31,18.31,11.95,34.3,18.27,46.24,18.27,15.7,0,24.04-11.12,24.78-33.04.62-18.33,5.19-245.75,5.42-253.81.16-5.67-6.2-23.62-6.2-28.79,0-21.17.03-26.25.03-27.27,0-.03,0-.11,0-.26-1.23-.76-2.04-2.12-2.04-3.63v-.58c-.18-.06-.35-.13-.53-.2-.49-.19-3.86-1.86-4.44-3.71-.02-.07-2.11-6.86,1.11-8.26.92-.4,4.5-.99,7.81-2.26.47-1.84,2.14-3.21,4.13-3.21h1.85c0-10.14,0-12.26,0-12.46-2.57-.74-2.15-3.47-1.95-4.82.27-1.68,2.83-19.35,3.19-21.55.51-3.1,3.26-5.19,6.83-5.19h0c3.54,0,6.36,2.13,6.87,5.18.36,2.14,2.93,19.92,3.19,21.57.2,1.34.62,4.07-1.95,4.8-.01.2,0,2.3,0,12.46h1.72c1.96,0,3.62,1.34,4.12,3.15,2.06.79,4.52,1.4,6.07,1.79,1.1.27,1.57.39,1.89.53,2.87,1.25,1.45,7.04,1.13,8.19-.11.42-.46,1.69-4.27,3.69-.29.15-.54.28-.86.41v.45c0,1.45-.74,2.77-1.9,3.54-.02,1.27.03,3.13.03,4.93v22.69c0,5.25-6.37,23.04-6.2,28.79.12,4.09,5.05,241.54,5.42,253.82.65,21.83,9.01,32.89,24.85,32.89,12.03,0,28-6.27,46.17-18.13,20.04-13.08,32.97-23.35,41.91-33.31,10.76-11.98,16-23.99,16-36.73,0-.36-.21-.9-.66-.9h-32.66c-.29.02-.39-.39-.12-.52,2.62-1.29,4.55-2.25,6.91-3.74h0c25.81-16.16,38.42-49.27,43.64-67.57-.03.12,2.61-8.1,4.47-13.86ZM217.4,209.17c0,1.38,1.13,2.51,2.51,2.51s2.51-1.13,2.51-2.51v-3.91c0-1.38-1.12-2.51-2.51-2.51s-2.51,1.13-2.51,2.51v3.91ZM217.4,224.96c0,1.38,1.13,2.51,2.51,2.51s2.51-1.13,2.51-2.51v-3.91c0-1.38-1.12-2.51-2.51-2.51s-2.51,1.13-2.51,2.51v3.91ZM217.4,240.76c0,1.38,1.13,2.51,2.51,2.51s2.51-1.13,2.51-2.51v-3.91c0-1.38-1.12-2.51-2.51-2.51s-2.51,1.13-2.51,2.51v3.91ZM217.4,256.55c0,1.38,1.13,2.51,2.51,2.51s2.51-1.13,2.51-2.51v-3.91c0-1.38-1.12-2.51-2.51-2.51s-2.51,1.13-2.51,2.51v3.91ZM217.4,272.34c0,1.38,1.13,2.51,2.51,2.51s2.51-1.13,2.51-2.51v-3.91c0-1.38-1.12-2.51-2.51-2.51s-2.51,1.13-2.51,2.51v3.91ZM217.4,288.14c0,1.38,1.13,2.51,2.51,2.51s2.51-1.12,2.51-2.51v-3.91c0-1.38-1.12-2.51-2.51-2.51s-2.51,1.13-2.51,2.51v3.91ZM219.91,306.44c1.38,0,2.51-1.13,2.51-2.51v-3.91c0-1.38-1.12-2.51-2.51-2.51s-2.51,1.13-2.51,2.51v3.91c0,1.38,1.13,2.51,2.51,2.51Z"/>
  <path class="cls-8" d="M185.58,345.04s-.69.57-.94.78c-1.36,1.1-3.16,2.43-4.9,2.39-.44,0-.96-.09-1.65-.38-1.29-.53-1.86-1.24-5.21-.12-3.71,1.24-8.62,4.05-11.84,6.26-.78.54-2.62,1.04-3.54,1.27-10.24,2.65-42.91,6.82-55.36,8.44-2.77.12-6,.47-8.36.75-1.51.19-2.23,1.98-1.25,3.16,1.79,2.16,4,4.42,6.01,6.36.82.9,5.28,4.87,5.63,5.13,0,0,0,0,0,0,2.53,1.82,5.16,3.51,7.93,5.08h0c47.01,24.69-1.15-.6,23.56,12.38,4.87,2.56,10.29,3.9,15.79,3.9h43.68c.62-19.53,1.32-41.69,1.94-61.64-4.05,1.43-8.27,3.49-11.47,6.26Z"/>
  <g>
    <path class="cls-3" d="M60.01,268.4c-1.08,0-1.74-.61-1.74-1.74v-4.41c0-3.69,1.88-5.61,5.75-6.69l3.22-.9c2.06-.58,3.04-1.23,3.04-3.54v-.94c0-2.31-1.16-3.47-3.9-3.47s-3.91,1.34-3.91,3.36v.98c0,.58-.33.94-.9.94h-2.39c-.58,0-.9-.36-.9-.98v-1.09c0-3.87,2.5-6.51,8.1-6.51s8.17,2.6,8.17,6.83v1.12c0,3.83-1.59,5.68-5.79,6.83l-3.22.9c-2.28.65-2.96,1.27-2.96,3.22v2.21h10.05c1.12,0,1.88.72,1.88,1.77v.29c0,1.08-.76,1.81-1.88,1.81h-12.62Z"/>
    <path class="cls-3" d="M80.08,260.23v-8.24c0-5.53,3.44-8.57,9.22-8.57s9.22,3.04,9.22,8.57v8.24c0,5.53-3.44,8.57-9.22,8.57s-9.22-3.04-9.22-8.57ZM94,260.52v-8.82c0-3.29-1.48-4.99-4.7-4.99s-4.7,1.7-4.7,4.99v8.82c0,3.29,1.48,4.99,4.7,4.99s4.7-1.7,4.7-4.99Z"/>
  </g>
  <g>
    <path class="cls-3" d="M340.05,260.23v-8.24c0-5.53,3.44-8.57,9.22-8.57s9.22,3.04,9.22,8.57v8.24c0,5.53-3.44,8.57-9.22,8.57s-9.22-3.04-9.22-8.57ZM353.97,260.52v-8.82c0-3.29-1.48-4.99-4.7-4.99s-4.7,1.7-4.7,4.99v8.82c0,3.29,1.48,4.99,4.7,4.99s4.7-1.7,4.7-4.99Z"/>
    <path class="cls-3" d="M377.94,268.4h-2.06c-.69,0-1.16-.4-1.16-1.05v-4.7h-9.55c-1.26,0-1.99-.58-1.99-1.88v-1.08c0-.69.15-1.19.58-1.84l8.28-12.66c.69-1.01,1.3-1.55,2.24-1.55h3.14c1.05,0,1.66.61,1.66,1.66v13.74h2.13c1.08,0,1.77.69,1.77,1.7v.29c0,.94-.69,1.63-1.77,1.63h-2.13v4.7c0,.65-.47,1.05-1.16,1.05ZM366.99,259.14h7.74v-12.15l-7.74,12.15Z"/>
  </g>
  <g class="cls-10">
    <g>
      <rect class="cls-7" x="109.78" y="155.32" width="44.55" height="44.55"/>
      <rect class="cls-7" x="109.78" y="244.41" width="44.55" height="44.55"/>
      <rect class="cls-7" x="109.78" y="333.5" width="44.55" height="44.55"/>
      <rect class="cls-7" x="154.32" y="199.87" width="44.55" height="44.55"/>
      <rect class="cls-7" x="154.32" y="288.96" width="44.55" height="44.55"/>
    </g>
    <g>
      <rect class="cls-3" x="109.78" y="199.87" width="44.55" height="44.55"/>
      <rect class="cls-3" x="109.78" y="288.96" width="44.55" height="44.55"/>
      <rect class="cls-3" x="154.32" y="155.32" width="44.55" height="44.55"/>
      <rect class="cls-3" x="154.32" y="244.41" width="44.55" height="44.55"/>
      <rect class="cls-3" x="154.32" y="333.5" width="44.55" height="44.55"/>
    </g>
  </g>
  <g class="cls-6">
    <g>
      <rect class="cls-7" x="285.49" y="155.32" width="44.55" height="44.55" transform="translate(615.53 355.19) rotate(-180)"/>
      <rect class="cls-7" x="285.49" y="244.41" width="44.55" height="44.55" transform="translate(615.53 533.37) rotate(-180)"/>
      <rect class="cls-7" x="285.49" y="333.5" width="44.55" height="44.55" transform="translate(615.53 711.55) rotate(-180)"/>
      <rect class="cls-7" x="240.95" y="199.87" width="44.55" height="44.55" transform="translate(526.44 444.28) rotate(-180)"/>
      <rect class="cls-7" x="240.95" y="288.96" width="44.55" height="44.55" transform="translate(526.44 622.46) rotate(-180)"/>
    </g>
    <g>
      <rect class="cls-3" x="285.49" y="199.87" width="44.55" height="44.55" transform="translate(615.53 444.28) rotate(-180)"/>
      <rect class="cls-3" x="285.49" y="288.96" width="44.55" height="44.55" transform="translate(615.53 622.46) rotate(-180)"/>
      <rect class="cls-3" x="240.95" y="155.32" width="44.55" height="44.55" transform="translate(526.44 355.19) rotate(-180)"/>
      <rect class="cls-3" x="240.95" y="244.41" width="44.55" height="44.55" transform="translate(526.44 533.37) rotate(-180)"/>
      <rect class="cls-3" x="240.95" y="333.5" width="44.55" height="44.55" transform="translate(526.44 711.55) rotate(-180)"/>
    </g>
  </g>
</svg>