<?xml version="1.0" encoding="UTF-8"?>
<!DOCTYPE svg PUBLIC "-//W3C//DTD SVG 1.1//EN" "http://www.w3.org/Graphics/SVG/1.1/DTD/svg11.dtd">
<svg xmlns="http://www.w3.org/2000/svg" version="1.1" width="1438px" height="1514px" style="shape-rendering:geometricPrecision; text-rendering:geometricPrecision; image-rendering:optimizeQuality; fill-rule:evenodd; clip-rule:evenodd" xmlns:xlink="http://www.w3.org/1999/xlink">
<g><path style="opacity:0.901" fill="#7196d8" d="M 731.5,33.5 C 721.5,33.5 711.5,33.5 701.5,33.5C 707.296,32.3187 713.296,31.652 719.5,31.5C 723.777,31.3367 727.777,32.0033 731.5,33.5 Z"/></g>
<g><path style="opacity:1" fill="#97a0cd" d="M 673.5,33.5 C 673.082,34.2216 672.416,34.7216 671.5,35C 668.183,35.4983 664.85,35.665 661.5,35.5C 661.918,34.7784 662.584,34.2784 663.5,34C 666.817,33.5017 670.15,33.335 673.5,33.5 Z"/></g>
<g><path style="opacity:0.106" fill="#7994cc" d="M 764.5,33.5 C 768.489,33.1164 772.155,33.783 775.5,35.5C 772.482,35.6646 769.482,35.498 766.5,35C 765.584,34.7216 764.918,34.2216 764.5,33.5 Z"/></g>
<g><path style="opacity:1" fill="#afaec2" d="M 783.5,35.5 C 787.514,35.3345 791.514,35.5012 795.5,36C 796.416,36.2784 797.082,36.7784 797.5,37.5C 792.381,38.1031 787.715,37.4364 783.5,35.5 Z"/></g>
<g><path style="opacity:1" fill="#9ea9c5" d="M 631.5,37.5 C 629.012,39.3878 626.012,40.0545 622.5,39.5C 622.611,38.8826 622.944,38.3826 623.5,38C 626.146,37.5026 628.813,37.3359 631.5,37.5 Z"/></g>
<g><path style="opacity:1" fill="#83a0cb" d="M 807.5,37.5 C 809.527,37.3379 811.527,37.5045 813.5,38C 814.056,38.3826 814.389,38.8826 814.5,39.5C 811.612,40.0102 809.279,39.3435 807.5,37.5 Z"/></g>
<g><path style="opacity:0.149" fill="#647db0" d="M 615.5,39.5 C 613.343,40.4067 611.01,41.0733 608.5,41.5C 608.611,40.8826 608.944,40.3826 609.5,40C 611.473,39.5045 613.473,39.3379 615.5,39.5 Z"/></g>
<g><path style="opacity:0.02" fill="#6f96c5" d="M 823.5,39.5 C 825.698,39.1201 827.365,39.7868 828.5,41.5C 826.219,41.9227 824.552,41.256 823.5,39.5 Z"/></g>
<g><path style="opacity:1" fill="#ae99d4" d="M 833.5,41.5 C 836.082,41.0254 838.082,41.6921 839.5,43.5C 836.99,43.9465 834.99,43.2798 833.5,41.5 Z"/></g>
<g><path style="opacity:1" fill="#cfb7b9" d="M 844.5,43.5 C 849.659,44.7999 854.992,45.6333 860.5,46C 861.056,46.3826 861.389,46.8826 861.5,47.5C 857.116,47.8256 852.783,47.4922 848.5,46.5C 846.668,45.9432 845.335,44.9432 844.5,43.5 Z"/></g>
<g><path style="opacity:1" fill="#93a9c8" d="M 865.5,47.5 C 868.01,47.0535 870.01,47.7202 871.5,49.5C 868.918,49.9746 866.918,49.3079 865.5,47.5 Z"/></g>
<g><path style="opacity:1" fill="#afa8cb" d="M 883.5,51.5 C 885.698,51.1201 887.365,51.7868 888.5,53.5C 886.219,53.9227 884.552,53.256 883.5,51.5 Z"/></g>
<g><path style="opacity:1" fill="#999fc6" d="M 892.5,53.5 C 894.483,53.1568 895.817,53.8235 896.5,55.5C 894.517,55.8432 893.183,55.1765 892.5,53.5 Z"/></g>
<g><path style="opacity:1" fill="#c9b5af" d="M 1132.5,163.5 C 1136.66,165.604 1140.33,168.271 1143.5,171.5C 1140.17,170.833 1136.83,170.167 1133.5,169.5C 1133.48,167.435 1133.15,165.435 1132.5,163.5 Z"/></g>
<g><path style="opacity:1" fill="#f9cc9e" d="M 673.5,33.5 C 682.833,33.5 692.167,33.5 701.5,33.5C 711.5,33.5 721.5,33.5 731.5,33.5C 742.5,33.5 753.5,33.5 764.5,33.5C 764.918,34.2216 765.584,34.7216 766.5,35C 769.482,35.498 772.482,35.6646 775.5,35.5C 778.167,35.5 780.833,35.5 783.5,35.5C 787.715,37.4364 792.381,38.1031 797.5,37.5C 800.833,37.5 804.167,37.5 807.5,37.5C 809.279,39.3435 811.612,40.0102 814.5,39.5C 817.5,39.5 820.5,39.5 823.5,39.5C 824.552,41.256 826.219,41.9227 828.5,41.5C 830.167,41.5 831.833,41.5 833.5,41.5C 834.99,43.2798 836.99,43.9465 839.5,43.5C 841.167,43.5 842.833,43.5 844.5,43.5C 845.335,44.9432 846.668,45.9432 848.5,46.5C 852.783,47.4922 857.116,47.8256 861.5,47.5C 862.833,47.5 864.167,47.5 865.5,47.5C 866.918,49.3079 868.918,49.9746 871.5,49.5C 875.747,49.1941 879.747,49.8608 883.5,51.5C 884.552,53.256 886.219,53.9227 888.5,53.5C 889.833,53.5 891.167,53.5 892.5,53.5C 893.183,55.1765 894.517,55.8432 896.5,55.5C 981.908,76.2171 1060.58,112.217 1132.5,163.5C 1133.15,165.435 1133.48,167.435 1133.5,169.5C 1136.83,170.167 1140.17,170.833 1143.5,171.5C 1159.09,182.759 1174.09,194.759 1188.5,207.5C 1189.99,211.828 1192.99,214.495 1197.5,215.5C 1270.83,281.32 1328.67,358.653 1371,447.5C 1376.79,460.74 1382.29,474.074 1387.5,487.5C 1387.26,489.898 1387.93,491.898 1389.5,493.5C 1407.92,539.829 1421.09,587.829 1429,637.5C 1430.04,646.303 1431.38,654.969 1433,663.5C 1433.5,668.823 1433.67,674.156 1433.5,679.5C 1433.53,685.051 1434.19,690.384 1435.5,695.5C 1435.25,701.084 1435.92,706.417 1437.5,711.5C 1437.5,738.167 1437.5,764.833 1437.5,791.5C 1435.8,797.919 1435.13,804.585 1435.5,811.5C 1433.86,815.21 1433.2,819.21 1433.5,823.5C 1433.5,825.5 1433.5,827.5 1433.5,829.5C 1432.78,829.918 1432.28,830.584 1432,831.5C 1431.5,834.146 1431.34,836.813 1431.5,839.5C 1431.5,842.167 1431.5,844.833 1431.5,847.5C 1429.78,849.78 1429.11,852.447 1429.5,855.5C 1429.5,857.5 1429.5,859.5 1429.5,861.5C 1428.78,861.918 1428.28,862.584 1428,863.5C 1427.5,866.146 1427.34,868.813 1427.5,871.5C 1425.6,874.337 1424.93,877.671 1425.5,881.5C 1423.18,897.732 1419.85,913.732 1415.5,929.5C 1413.93,931.102 1413.26,933.102 1413.5,935.5C 1400.17,989.484 1380.17,1040.82 1353.5,1089.5C 1351.4,1089.2 1349.4,1089.53 1347.5,1090.5C 1347.42,1094.67 1345.42,1097.34 1341.5,1098.5C 1342.17,1099.83 1342.83,1101.17 1343.5,1102.5C 1342.17,1103.17 1340.83,1103.83 1339.5,1104.5C 1340.17,1105.17 1340.83,1105.83 1341.5,1106.5C 1339.34,1109.16 1338,1112.16 1337.5,1115.5C 1335.08,1115.19 1332.74,1115.53 1330.5,1116.5C 1331.69,1117.43 1333.02,1117.76 1334.5,1117.5C 1334.07,1120.45 1332.9,1123.12 1331,1125.5C 1329.87,1124.4 1329.04,1124.73 1328.5,1126.5C 1329.13,1127.42 1329.46,1128.42 1329.5,1129.5C 1328.45,1132.6 1327.12,1135.6 1325.5,1138.5C 1305.66,1169.18 1283.66,1198.18 1259.5,1225.5C 1258.17,1225.5 1257.5,1226.17 1257.5,1227.5C 1230.6,1258.06 1201.27,1286.39 1169.5,1312.5C 1160.79,1318.9 1152.12,1325.23 1143.5,1331.5C 1138.93,1332.74 1134.27,1333.4 1129.5,1333.5C 1129.33,1335.49 1130,1337.16 1131.5,1338.5C 1130.39,1339.27 1129.72,1340.27 1129.5,1341.5C 1128.17,1341.5 1127.5,1342.17 1127.5,1343.5C 1117.42,1351.11 1106.75,1357.78 1095.5,1363.5C 1092.11,1362.97 1090.11,1364.3 1089.5,1367.5C 1062.11,1384.63 1033.44,1399.3 1003.5,1411.5C 999.741,1410.96 997.074,1412.29 995.5,1415.5C 983.378,1421.28 970.711,1425.94 957.5,1429.5C 955.973,1429.43 954.973,1430.09 954.5,1431.5C 945.442,1434.85 936.109,1437.51 926.5,1439.5C 924.219,1439.08 922.552,1439.74 921.5,1441.5C 920.833,1441.5 920.167,1441.5 919.5,1441.5C 914.457,1441.17 910.124,1442.5 906.5,1445.5C 901.463,1447.7 896.129,1449.03 890.5,1449.5C 887.102,1449.18 883.768,1449.51 880.5,1450.5C 878.025,1450.96 876.025,1451.96 874.5,1453.5C 870.558,1454.83 866.558,1455.99 862.5,1457C 859.183,1457.5 855.85,1457.67 852.5,1457.5C 850.302,1457.12 848.635,1457.79 847.5,1459.5C 845.5,1459.5 843.5,1459.5 841.5,1459.5C 839.219,1459.08 837.552,1459.74 836.5,1461.5C 834.167,1461.5 831.833,1461.5 829.5,1461.5C 826.918,1461.03 824.918,1461.69 823.5,1463.5C 821.167,1463.5 818.833,1463.5 816.5,1463.5C 812.988,1462.95 809.988,1463.61 807.5,1465.5C 805.167,1465.5 802.833,1465.5 800.5,1465.5C 796.988,1464.95 793.988,1465.61 791.5,1467.5C 787.5,1467.5 783.5,1467.5 779.5,1467.5C 775.154,1467.33 770.821,1467.5 766.5,1468C 767.056,1468.38 767.389,1468.88 767.5,1469.5C 759.5,1469.5 751.5,1469.5 743.5,1469.5C 726.5,1469.5 709.5,1469.5 692.5,1469.5C 684.833,1469.5 677.167,1469.5 669.5,1469.5C 669.611,1468.88 669.944,1468.38 670.5,1468C 666.514,1467.5 662.514,1467.33 658.5,1467.5C 654.833,1467.5 651.167,1467.5 647.5,1467.5C 644.663,1465.6 641.329,1464.93 637.5,1465.5C 635.5,1465.5 633.5,1465.5 631.5,1465.5C 628.663,1463.6 625.329,1462.93 621.5,1463.5C 619.5,1463.5 617.5,1463.5 615.5,1463.5C 613.975,1461.96 611.975,1460.96 609.5,1460.5C 611.5,1459.83 613.5,1459.17 615.5,1458.5C 614,1458.17 612.5,1457.83 611,1457.5C 605.924,1458.94 600.758,1459.61 595.5,1459.5C 591.818,1459.67 588.152,1459.5 584.5,1459C 573.476,1456.58 562.476,1454.08 551.5,1451.5C 550.817,1449.82 549.483,1449.16 547.5,1449.5C 533.977,1447.45 520.977,1444.11 508.5,1439.5C 507.365,1437.79 505.698,1437.12 503.5,1437.5C 435.716,1416.95 372.383,1386.61 313.5,1346.5C 308.485,1343.14 303.819,1339.47 299.5,1335.5C 299.5,1334.17 299.5,1332.83 299.5,1331.5C 295.64,1330.63 291.974,1329.29 288.5,1327.5C 260.729,1308.07 235.063,1286.07 211.5,1261.5C 211.5,1260.17 210.833,1259.5 209.5,1259.5C 182.635,1232.64 157.968,1203.97 135.5,1173.5C 136.113,1170.03 134.779,1168.03 131.5,1167.5C 87.9453,1106.72 55.2786,1040.39 33.5,968.5C 33.4208,967.07 33.7542,965.736 34.5,964.5C 32.7871,958.938 31.4538,953.272 30.5,947.5C 29.9432,949.332 28.9432,950.665 27.5,951.5C 18.2408,920.185 11.5741,888.185 7.5,855.5C 7.67802,851.878 7.01136,848.544 5.5,845.5C 3.59044,827.348 1.59044,809.348 -0.5,791.5C -0.5,772.833 -0.5,754.167 -0.5,735.5C 1.23855,726.059 1.90521,716.393 1.5,706.5C 1.25806,696.094 1.92472,685.76 3.5,675.5C 4.22158,675.082 4.72158,674.416 5,673.5C 5.49834,670.183 5.66501,666.85 5.5,663.5C 16.6229,569.649 45.2896,481.316 91.5,398.5C 95.2747,391.933 99.2747,385.6 103.5,379.5C 104.5,379.5 105.5,379.5 106.5,379.5C 108.386,376.545 109.386,373.211 109.5,369.5C 196.113,233.357 314.779,136.191 465.5,78C 487.912,69.517 510.578,62.1836 533.5,56C 548.019,52.8926 562.352,49.5593 576.5,46C 587.135,44.1704 597.802,42.6704 608.5,41.5C 611.01,41.0733 613.343,40.4067 615.5,39.5C 617.833,39.5 620.167,39.5 622.5,39.5C 626.012,40.0545 629.012,39.3878 631.5,37.5C 641.316,35.7923 651.316,35.1256 661.5,35.5C 664.85,35.665 668.183,35.4983 671.5,35C 672.416,34.7216 673.082,34.2216 673.5,33.5 Z"/></g>
<g><path style="opacity:1" fill="#77779c" d="M 576.5,85.5 C 574.898,87.0739 572.898,87.7406 570.5,87.5C 572.102,85.9261 574.102,85.2594 576.5,85.5 Z"/></g>
<g><path style="opacity:1" fill="#0353cc" d="M 781.5,73.5 C 781.918,74.2216 782.584,74.7216 783.5,75C 786.146,75.4974 788.813,75.6641 791.5,75.5C 952.918,93.708 1090.92,160.041 1205.5,274.5C 1206.95,275.85 1207.62,277.516 1207.5,279.5C 1208.55,279.351 1209.55,279.517 1210.5,280C 1221.99,292.325 1233.32,304.825 1244.5,317.5C 1245.43,318.689 1245.76,320.022 1245.5,321.5C 1246.68,321.281 1247.68,321.614 1248.5,322.5C 1330.57,423.991 1379.73,539.658 1396,669.5C 1400.41,711.407 1401.58,753.407 1399.5,795.5C 1397.74,800.553 1397.07,805.886 1397.5,811.5C 1395.6,840.464 1391.6,869.131 1385.5,897.5C 1383.93,899.102 1383.26,901.102 1383.5,903.5C 1351.99,1037.57 1286.65,1151.9 1187.5,1246.5C 1098.41,1329.27 994.747,1384.94 876.5,1413.5C 874.219,1413.08 872.552,1413.74 871.5,1415.5C 870.167,1415.5 868.833,1415.5 867.5,1415.5C 865.102,1415.26 863.102,1415.93 861.5,1417.5C 846.739,1420.01 832.073,1422.51 817.5,1425C 803.529,1426.83 789.529,1428.33 775.5,1429.5C 770.156,1429.33 764.823,1429.5 759.5,1430C 757.618,1430.2 755.952,1430.7 754.5,1431.5C 750.833,1431.5 747.167,1431.5 743.5,1431.5C 727.5,1431.5 711.5,1431.5 695.5,1431.5C 691.167,1431.5 686.833,1431.5 682.5,1431.5C 682.918,1430.78 683.584,1430.28 684.5,1430C 677.508,1429.5 670.508,1429.33 663.5,1429.5C 592.711,1424.27 524.711,1408.27 459.5,1381.5C 458.172,1378.77 459.172,1377.1 462.5,1376.5C 461.667,1376.17 460.833,1375.83 460,1375.5C 457.321,1376.89 454.488,1377.56 451.5,1377.5C 444.105,1374.98 436.772,1372.14 429.5,1369C 269.004,1290.8 153.837,1168.97 84,1003.5C 73.6269,976.014 64.7935,948.014 57.5,919.5C 57.7406,917.102 57.0739,915.102 55.5,913.5C 48.0441,881.188 42.7107,848.522 39.5,815.5C 39.8674,808.585 39.2007,801.919 37.5,795.5C 34.3506,737.744 37.8506,680.41 48,623.5C 51.2186,606.455 55.3853,589.789 60.5,573.5C 62.3422,569.841 63.3422,565.841 63.5,561.5C 68.2318,545.214 73.5651,529.214 79.5,513.5C 81.0739,511.898 81.7406,509.898 81.5,507.5C 97.3286,466.842 116.662,427.842 139.5,390.5C 153.08,369.631 167.413,349.297 182.5,329.5C 195.548,315.122 208.215,300.455 220.5,285.5C 222.506,283.492 224.839,282.159 227.5,281.5C 227.351,280.448 227.517,279.448 228,278.5C 323.238,181.125 437.405,117.459 570.5,87.5C 572.898,87.7406 574.898,87.0739 576.5,85.5C 599.84,80.6614 623.507,77.3281 647.5,75.5C 650.187,75.6641 652.854,75.4974 655.5,75C 656.056,74.6174 656.389,74.1174 656.5,73.5C 673.73,71.944 691.064,71.2773 708.5,71.5C 732.858,71.4575 757.191,72.1242 781.5,73.5 Z"/></g>
<g><path style="opacity:1" fill="#eec8a8" d="M 607.5,153.5 C 609.981,155.787 609.981,158.121 607.5,160.5C 608.167,160.833 608.833,161.167 609.5,161.5C 611.236,160.575 613.07,159.908 615,159.5C 616.681,159.608 617.848,160.275 618.5,161.5C 617.5,162.167 616.5,162.833 615.5,163.5C 610.928,164.024 606.594,165.357 602.5,167.5C 601.833,167.167 601.167,166.833 600.5,166.5C 601.586,161.317 603.919,156.984 607.5,153.5 Z"/></g>
<g><path style="opacity:1" fill="#9fa7c0" d="M 761.5,127.5 C 760.167,129.5 760.167,131.5 761.5,133.5C 760.307,133.03 759.64,132.03 759.5,130.5C 759.64,128.97 760.307,127.97 761.5,127.5 Z"/></g>
<g><path style="opacity:1" fill="#facd9d" d="M 716.5,101.5 C 718.635,103.369 721.302,104.036 724.5,103.5C 727.5,103.5 730.5,103.5 733.5,103.5C 736.087,104.816 739.087,105.483 742.5,105.5C 745.5,105.333 748.5,105.167 751.5,105C 752.416,104.722 753.082,104.222 753.5,103.5C 758.111,102.515 762.778,101.848 767.5,101.5C 768.305,110.94 766.305,119.607 761.5,127.5C 760.307,127.97 759.64,128.97 759.5,130.5C 759.64,132.03 760.307,133.03 761.5,133.5C 773.864,162.953 781.864,193.62 785.5,225.5C 785.259,227.898 785.926,229.898 787.5,231.5C 790.951,250.869 794.617,270.203 798.5,289.5C 802.76,290.585 807.094,291.252 811.5,291.5C 813.283,292.455 815.283,293.122 817.5,293.5C 818.713,293.253 819.38,292.586 819.5,291.5C 849.517,252.462 878.85,212.796 907.5,172.5C 916.334,160.228 927.668,157.395 941.5,164C 1033.66,199.777 1113.99,253.61 1182.5,325.5C 1183.43,326.689 1183.76,328.022 1183.5,329.5C 1184.68,329.281 1185.68,329.614 1186.5,330.5C 1246.99,397.101 1291.32,473.434 1319.5,559.5C 1319.26,561.898 1319.93,563.898 1321.5,565.5C 1324.78,574.628 1327.45,583.961 1329.5,593.5C 1329.26,595.898 1329.93,597.898 1331.5,599.5C 1332.48,602.763 1333.15,606.097 1333.5,609.5C 1333.26,611.898 1333.93,613.898 1335.5,615.5C 1339.75,635.342 1343.25,655.342 1346,675.5C 1351.93,699.4 1344.76,717.9 1324.5,731C 1318.94,733.021 1313.28,734.521 1307.5,735.5C 1307.82,727.271 1307.16,719.271 1305.5,711.5C 1305.5,707.5 1305.5,703.5 1305.5,699.5C 1305.51,697.453 1305.84,695.453 1306.5,693.5C 1305.83,691.84 1304.83,690.507 1303.5,689.5C 1299.62,653.317 1292.28,617.984 1281.5,583.5C 1281.74,581.102 1281.07,579.102 1279.5,577.5C 1260.27,517.364 1232.27,461.698 1195.5,410.5C 1182.75,392.917 1169.08,376.084 1154.5,360C 1153.55,359.517 1152.55,359.351 1151.5,359.5C 1151.76,358.022 1151.43,356.689 1150.5,355.5C 1098.37,299.113 1037.71,255.28 968.5,224C 965.11,223.256 961.777,222.423 958.5,221.5C 955.305,219.97 951.805,219.304 948,219.5C 945.071,219.525 942.571,220.191 940.5,221.5C 936.635,221.676 932.968,222.676 929.5,224.5C 919.598,231.73 910.598,240.064 902.5,249.5C 889.154,266.856 876.154,284.522 863.5,302.5C 875.609,308.974 888.276,314.14 901.5,318C 1023.98,371.046 1110.98,459.546 1162.5,583.5C 1164.58,592.11 1164.91,600.776 1163.5,609.5C 1159.47,625.533 1149.47,635.533 1133.5,639.5C 1133.31,634.73 1132.48,630.064 1131,625.5C 1088.66,502.693 1008.82,414.693 891.5,361.5C 890.817,359.824 889.483,359.157 887.5,359.5C 849.477,343.842 809.81,333.842 768.5,329.5C 765.877,327.735 762.877,327.068 759.5,327.5C 758.167,327.5 756.833,327.5 755.5,327.5C 753.154,315.306 750.487,303.306 747.5,291.5C 746.491,283.418 745.158,275.418 743.5,267.5C 738.167,267.5 732.833,267.5 727.5,267.5C 721.926,265.547 715.926,264.88 709.5,265.5C 708.167,265.5 706.833,265.5 705.5,265.5C 701.74,264.206 697.74,263.54 693.5,263.5C 691.048,263.539 689.048,264.206 687.5,265.5C 682.379,285.99 677.879,306.657 674,327.5C 673.5,328 673,328.5 672.5,329C 649.322,330.758 626.655,334.925 604.5,341.5C 602.219,341.077 600.552,341.744 599.5,343.5C 520.536,366.694 453.203,409.028 397.5,470.5C 394.179,475.152 390.513,479.485 386.5,483.5C 385.571,484.689 385.238,486.022 385.5,487.5C 384.325,487.281 383.325,487.614 382.5,488.5C 350.488,529.849 326.322,575.516 310,625.5C 309.505,627.473 309.338,629.473 309.5,631.5C 286.76,623.723 276.926,607.723 280,583.5C 281.434,577.301 283.434,571.301 286,565.5C 335.756,457.415 413.923,377.581 520.5,326C 534.638,320.03 548.971,314.197 563.5,308.5C 566.768,307.513 570.102,307.18 573.5,307.5C 572.697,304.332 571.364,301.332 569.5,298.5C 553.679,278.19 538.346,257.523 523.5,236.5C 516.522,229.18 508.188,224.18 498.5,221.5C 495.913,220.184 492.913,219.517 489.5,219.5C 486.5,219.667 483.5,219.833 480.5,220C 479.584,220.278 478.918,220.778 478.5,221.5C 475.565,221.717 472.731,222.383 470,223.5C 460.245,228.736 450.078,233.069 439.5,236.5C 387.776,264.857 341.109,300.19 299.5,342.5C 298.311,343.429 296.978,343.762 295.5,343.5C 295.617,345.484 294.95,347.15 293.5,348.5C 236.453,407.539 193.786,475.872 165.5,553.5C 160.329,565.012 156.329,577.012 153.5,589.5C 151.132,596.622 149.132,603.955 147.5,611.5C 145.692,612.918 145.025,614.918 145.5,617.5C 143.532,624.039 142.199,630.705 141.5,637.5C 139.926,639.102 139.259,641.102 139.5,643.5C 134.695,669.276 131.695,695.276 130.5,721.5C 129.527,723.948 129.194,726.615 129.5,729.5C 127.5,729.5 125.5,729.5 123.5,729.5C 105.27,725.435 94.103,714.102 90,695.5C 89.3355,687.464 89.6688,679.464 91,671.5C 93.6888,651.966 97.1888,632.633 101.5,613.5C 103.074,611.898 103.741,609.898 103.5,607.5C 109.941,579.328 118.608,551.995 129.5,525.5C 131.074,523.898 131.741,521.898 131.5,519.5C 185.764,388.096 273.43,285.596 394.5,212C 429.991,190.924 467.324,173.591 506.5,160C 514.898,159.351 521.898,162.184 527.5,168.5C 557.167,209.167 586.833,249.833 616.5,290.5C 617.515,291.681 618.681,292.681 620,293.5C 623.638,291.815 627.471,291.149 631.5,291.5C 634.698,292.036 637.365,291.369 639.5,289.5C 640.167,286.167 640.833,282.833 641.5,279.5C 643.074,277.898 643.741,275.898 643.5,273.5C 644.871,262.689 646.871,252.023 649.5,241.5C 651.074,239.898 651.741,237.898 651.5,235.5C 651.5,234.167 651.5,232.833 651.5,231.5C 653.074,229.898 653.741,227.898 653.5,225.5C 656.477,210.304 658.81,194.97 660.5,179.5C 658.365,177.631 655.698,176.964 652.5,177.5C 645.001,175.744 638.667,171.91 633.5,166C 631.783,164.441 629.783,163.608 627.5,163.5C 627.389,162.883 627.056,162.383 626.5,162C 623.854,161.503 621.187,161.336 618.5,161.5C 617.848,160.275 616.681,159.608 615,159.5C 613.07,159.908 611.236,160.575 609.5,161.5C 608.833,161.167 608.167,160.833 607.5,160.5C 609.981,158.121 609.981,155.787 607.5,153.5C 615.993,134.449 630.66,124.282 651.5,123C 660.442,107.696 673.775,99.8623 691.5,99.5C 699.887,99.6455 708.22,100.312 716.5,101.5 Z"/></g>
<g><path style="opacity:1" fill="#acacb7" d="M 652.5,177.5 C 655.698,176.964 658.365,177.631 660.5,179.5C 658.143,179.663 655.81,179.497 653.5,179C 652.944,178.617 652.611,178.117 652.5,177.5 Z"/></g>
<g><path style="opacity:1" fill="#4e6d9e" d="M 618.5,161.5 C 621.187,161.336 623.854,161.503 626.5,162C 627.056,162.383 627.389,162.883 627.5,163.5C 623.5,163.5 619.5,163.5 615.5,163.5C 616.5,162.833 617.5,162.167 618.5,161.5 Z"/></g>
<g><path style="opacity:1" fill="#0a53cb" d="M 735.5,187.5 C 735.5,188.833 735.5,190.167 735.5,191.5C 734.905,196.547 734.905,201.547 735.5,206.5C 735.279,209.943 734.279,210.276 732.5,207.5C 731.167,212.833 731.167,218.167 732.5,223.5C 733.48,220.914 733.813,218.247 733.5,215.5C 734.5,215.5 735.5,215.5 736.5,215.5C 738.099,220.707 739.099,226.04 739.5,231.5C 724.825,230.62 710.159,229.62 695.5,228.5C 699.301,200.272 700.301,171.938 698.5,143.5C 712.934,143.4 723.101,150.067 729,163.5C 732.065,171.285 734.232,179.285 735.5,187.5 Z"/></g>
<g><path style="opacity:1" fill="#a0a8c8" d="M 733.5,103.5 C 740.167,103.5 746.833,103.5 753.5,103.5C 753.082,104.222 752.416,104.722 751.5,105C 748.5,105.167 745.5,105.333 742.5,105.5C 739.087,105.483 736.087,104.816 733.5,103.5 Z"/></g>
<g><path style="opacity:1" fill="#7a95ca" d="M 716.5,101.5 C 719.698,100.964 722.365,101.631 724.5,103.5C 721.302,104.036 718.635,103.369 716.5,101.5 Z"/></g>
<g><path style="opacity:1" fill="#8d929e" d="M 781.5,73.5 C 785.329,72.931 788.663,73.5977 791.5,75.5C 788.813,75.6641 786.146,75.4974 783.5,75C 782.584,74.7216 781.918,74.2216 781.5,73.5 Z"/></g>
<g><path style="opacity:1" fill="#5e7295" d="M 656.5,73.5 C 656.389,74.1174 656.056,74.6174 655.5,75C 652.854,75.4974 650.187,75.6641 647.5,75.5C 649.988,73.6122 652.988,72.9455 656.5,73.5 Z"/></g>
<g><path style="opacity:1" fill="#919eb9" d="M 735.5,187.5 C 737.074,189.102 737.741,191.102 737.5,193.5C 736.833,192.833 736.167,192.167 735.5,191.5C 735.5,190.167 735.5,188.833 735.5,187.5 Z"/></g>
<g><path style="opacity:1" fill="#1255c6" d="M 735.5,191.5 C 736.167,192.167 736.833,192.833 737.5,193.5C 738.578,202.965 740.411,212.299 743,221.5C 743.498,224.817 743.665,228.15 743.5,231.5C 742.167,231.5 740.833,231.5 739.5,231.5C 739.099,226.04 738.099,220.707 736.5,215.5C 735.5,215.5 734.5,215.5 733.5,215.5C 733.813,218.247 733.48,220.914 732.5,223.5C 731.167,218.167 731.167,212.833 732.5,207.5C 734.279,210.276 735.279,209.943 735.5,206.5C 734.905,201.547 734.905,196.547 735.5,191.5 Z"/></g>
<g><path style="opacity:1" fill="#bababc" d="M 1188.5,207.5 C 1192.03,209.623 1195.03,212.29 1197.5,215.5C 1192.99,214.495 1189.99,211.828 1188.5,207.5 Z"/></g>
<g><path style="opacity:1" fill="#979eac" d="M 498.5,221.5 C 491.833,221.5 485.167,221.5 478.5,221.5C 478.918,220.778 479.584,220.278 480.5,220C 483.5,219.833 486.5,219.667 489.5,219.5C 492.913,219.517 495.913,220.184 498.5,221.5 Z"/></g>
<g><path style="opacity:1" fill="#6c8cbf" d="M 958.5,221.5 C 952.572,221.063 946.572,221.063 940.5,221.5C 942.571,220.191 945.071,219.525 948,219.5C 951.805,219.304 955.305,219.97 958.5,221.5 Z"/></g>
<g><path style="opacity:1" fill="#8b8db0" d="M 653.5,225.5 C 653.741,227.898 653.074,229.898 651.5,231.5C 651.259,229.102 651.926,227.102 653.5,225.5 Z"/></g>
<g><path style="opacity:1" fill="#6684aa" d="M 785.5,225.5 C 787.074,227.102 787.741,229.102 787.5,231.5C 785.926,229.898 785.259,227.898 785.5,225.5 Z"/></g>
<g><path style="opacity:1" fill="#8398b2" d="M 651.5,235.5 C 651.741,237.898 651.074,239.898 649.5,241.5C 649.259,239.102 649.926,237.102 651.5,235.5 Z"/></g>
<g><path style="opacity:1" fill="#f9cd9e" d="M 229.5,623.5 C 227.926,625.102 227.259,627.102 227.5,629.5C 225.843,635.457 224.51,641.457 223.5,647.5C 221.926,649.102 221.259,651.102 221.5,653.5C 221.5,654.833 221.5,656.167 221.5,657.5C 219.926,659.102 219.259,661.102 219.5,663.5C 218.173,671.449 217.173,679.449 216.5,687.5C 197.261,683.927 185.594,672.594 181.5,653.5C 181.5,648.167 181.5,642.833 181.5,637.5C 182.167,633.5 182.833,629.5 183.5,625.5C 185.074,623.898 185.741,621.898 185.5,619.5C 214.045,508.883 270.711,415.716 355.5,340C 394.45,305.531 437.45,277.364 484.5,255.5C 491.521,258.695 496.354,264.028 499,271.5C 501.012,280.176 499.179,287.843 493.5,294.5C 490.339,297.161 487.339,299.995 484.5,303C 364.894,368.684 282.394,466.184 237,595.5C 234.182,604.772 231.682,614.105 229.5,623.5 Z"/></g>
<g><path style="opacity:1" fill="#f9cd9e" d="M 1255.5,659.5 C 1253.57,665.343 1250.57,670.677 1246.5,675.5C 1243.17,677.966 1240.17,680.633 1237.5,683.5C 1232.3,686.717 1226.63,688.217 1220.5,688C 1219.56,685.281 1219.22,682.448 1219.5,679.5C 1219.66,676.813 1219.5,674.146 1219,671.5C 1218.72,670.584 1218.22,669.918 1217.5,669.5C 1215.48,656.012 1212.81,642.679 1209.5,629.5C 1209.74,627.102 1209.07,625.102 1207.5,623.5C 1174.82,507.308 1109.82,413.474 1012.5,342C 992.377,328.078 971.71,315.078 950.5,303C 933.533,288.432 933.199,273.432 949.5,258C 950.333,257.833 951.167,257.667 952,257.5C 963.691,262.595 975.191,268.095 986.5,274C 1109.83,346.043 1194.99,449.876 1242,585.5C 1246.36,600.874 1250.7,616.208 1255,631.5C 1256.76,640.813 1256.93,650.146 1255.5,659.5 Z"/></g>
<g><path style="opacity:1" fill="#9f99a0" d="M 705.5,265.5 C 699.5,265.5 693.5,265.5 687.5,265.5C 689.048,264.206 691.048,263.539 693.5,263.5C 697.74,263.54 701.74,264.206 705.5,265.5 Z"/></g>
<g><path style="opacity:1" fill="#c3bdc0" d="M 709.5,265.5 C 715.926,264.88 721.926,265.547 727.5,267.5C 721.301,267.348 715.301,266.682 709.5,265.5 Z"/></g>
<g><path style="opacity:1" fill="#959ebf" d="M 643.5,273.5 C 643.741,275.898 643.074,277.898 641.5,279.5C 641.259,277.102 641.926,275.102 643.5,273.5 Z"/></g>
<g><path style="opacity:1" fill="#b0b1bc" d="M 639.5,289.5 C 637.365,291.369 634.698,292.036 631.5,291.5C 633.635,289.631 636.302,288.964 639.5,289.5 Z"/></g>
<g><path style="opacity:1" fill="#40689a" d="M 811.5,291.5 C 814.167,291.5 816.833,291.5 819.5,291.5C 819.38,292.586 818.713,293.253 817.5,293.5C 815.283,293.122 813.283,292.455 811.5,291.5 Z"/></g>
<g><path style="opacity:1" fill="#2b5bc2" d="M 747.5,291.5 C 750.487,303.306 753.154,315.306 755.5,327.5C 756.833,327.5 758.167,327.5 759.5,327.5C 759.5,328.167 759.5,328.833 759.5,329.5C 757.076,329.808 754.743,329.474 752.5,328.5C 750.421,325.399 748.754,322.065 747.5,318.5C 751.24,312.921 751.407,307.254 748,301.5C 747.502,298.183 747.335,294.85 747.5,291.5 Z"/></g>
<g><path style="opacity:1" fill="#94959d" d="M 759.5,327.5 C 762.877,327.068 765.877,327.735 768.5,329.5C 765.5,329.5 762.5,329.5 759.5,329.5C 759.5,328.833 759.5,328.167 759.5,327.5 Z"/></g>
<g><path style="opacity:1" fill="#566f9a" d="M 604.5,341.5 C 603.365,343.213 601.698,343.88 599.5,343.5C 600.552,341.744 602.219,341.077 604.5,341.5 Z"/></g>
<g><path style="opacity:1" fill="#999cae" d="M 887.5,359.5 C 889.483,359.157 890.817,359.824 891.5,361.5C 889.517,361.843 888.183,361.176 887.5,359.5 Z"/></g>
<g><path style="opacity:1" fill="#c4bac2" d="M 109.5,369.5 C 109.386,373.211 108.386,376.545 106.5,379.5C 105.5,379.5 104.5,379.5 103.5,379.5C 104.713,375.637 106.713,372.304 109.5,369.5 Z"/></g>
<g><path style="opacity:1" fill="#fefefe" d="M 697.5,377.5 C 699.833,377.5 702.167,377.5 704.5,377.5C 703.527,454.156 703.194,530.822 703.5,607.5C 703.5,633.167 703.5,658.833 703.5,684.5C 695.838,685.663 688.838,688.497 682.5,693C 681.365,693.749 680.365,693.583 679.5,692.5C 651.562,662.895 622.896,633.895 593.5,605.5C 593.5,536.833 593.5,468.167 593.5,399.5C 593.62,398.414 594.287,397.747 595.5,397.5C 628.435,385.555 662.435,378.889 697.5,377.5 Z"/></g>
<g><path style="opacity:1" fill="#fdfefe" d="M 843.5,399.5 C 843.5,468.167 843.5,536.833 843.5,605.5C 815.419,635.083 786.752,664.249 757.5,693C 753.413,691.969 749.413,690.302 745.5,688C 741.673,686.21 737.673,685.044 733.5,684.5C 733.461,582.165 733.794,479.832 734.5,377.5C 767.56,378.813 799.894,384.313 831.5,394C 836.036,395.108 840.036,396.941 843.5,399.5 Z"/></g>
<g><path style="opacity:1" fill="#107498" d="M 583.5,401.5 C 582.448,403.256 580.781,403.923 578.5,403.5C 579.552,401.744 581.219,401.077 583.5,401.5 Z"/></g>
<g><path style="opacity:1" fill="#019d6e" d="M 593.5,399.5 C 593.5,468.167 593.5,536.833 593.5,605.5C 566.548,578.548 539.548,551.548 512.5,524.5C 511.873,523.583 511.539,522.583 511.5,521.5C 509.762,517.69 507.762,514.024 505.5,510.5C 507.542,509.497 507.875,508.163 506.5,506.5C 508.167,505.833 509.833,505.167 511.5,504.5C 505.833,503.833 500.167,503.167 494.5,502.5C 491.905,500.607 490.238,498.107 489.5,495C 491.354,493.71 491.687,492.21 490.5,490.5C 492.167,489.833 493.833,489.167 495.5,488.5C 489.969,486.612 485.303,487.612 481.5,491.5C 478.543,489.876 476.209,487.543 474.5,484.5C 472.711,482.967 470.711,481.967 468.5,481.5C 468.5,480.167 468.5,478.833 468.5,477.5C 467.5,477.5 466.5,477.5 465.5,477.5C 465.328,475.508 465.995,473.842 467.5,472.5C 472.78,468.531 478.113,464.531 483.5,460.5C 488.925,454.894 494.925,450.227 501.5,446.5C 502.612,445.735 503.279,444.735 503.5,443.5C 506.923,443.876 509.256,442.543 510.5,439.5C 521.562,431.801 533.229,424.801 545.5,418.5C 556.619,413.774 567.619,408.774 578.5,403.5C 580.781,403.923 582.448,403.256 583.5,401.5C 586.658,400.124 589.991,399.458 593.5,399.5 Z"/></g>
<g><path style="opacity:1" fill="#755183" d="M 862.5,405.5 C 864.483,405.157 865.817,405.824 866.5,407.5C 864.517,407.843 863.183,407.176 862.5,405.5 Z"/></g>
<g><path style="opacity:1" fill="#d2454e" d="M 843.5,399.5 C 847.973,400.007 851.973,401.341 855.5,403.5C 854.244,403.904 853.077,404.571 852,405.5C 850.003,403.621 847.836,403.288 845.5,404.5C 846.822,465.471 846.822,526.471 845.5,587.5C 845.833,588.833 846.167,590.167 846.5,591.5C 847.842,589.995 849.508,589.328 851.5,589.5C 851.437,592.908 849.77,595.241 846.5,596.5C 848.045,597.452 849.712,597.785 851.5,597.5C 849.5,600.833 846.833,603.5 843.5,605.5C 843.5,536.833 843.5,468.167 843.5,399.5 Z"/></g>
<g><path style="opacity:1" fill="#d93e3f" d="M 855.5,403.5 C 857.737,404.449 860.071,405.116 862.5,405.5C 863.183,407.176 864.517,407.843 866.5,407.5C 868.288,407.215 869.955,407.548 871.5,408.5C 879.57,413.392 887.903,417.725 896.5,421.5C 898.027,424.068 900.361,425.401 903.5,425.5C 918.605,434.903 933.272,444.903 947.5,455.5C 947.5,456.833 947.5,458.167 947.5,459.5C 948.833,459.5 950.167,459.5 951.5,459.5C 952.978,459.238 954.311,459.571 955.5,460.5C 960.512,466.175 966.179,471.175 972.5,475.5C 973.833,476.833 973.833,478.167 972.5,479.5C 970.773,480.866 969.106,482.2 967.5,483.5C 964.858,483.488 963.525,484.821 963.5,487.5C 959.894,490.78 956.56,494.446 953.5,498.5C 952.675,499.386 951.675,499.719 950.5,499.5C 948.554,500.035 947.554,501.368 947.5,503.5C 943.894,506.78 940.56,510.446 937.5,514.5C 936.675,515.386 935.675,515.719 934.5,515.5C 932.554,516.035 931.554,517.368 931.5,519.5C 927.887,522.786 924.554,526.452 921.5,530.5C 919.833,531.167 918.167,531.833 916.5,532.5C 913.885,536.783 910.885,540.783 907.5,544.5C 905.564,546.478 903.23,547.811 900.5,548.5C 898.203,552.792 895.203,556.458 891.5,559.5C 889.337,561.278 887.004,562.945 884.5,564.5C 883.873,565.417 883.539,566.417 883.5,567.5C 878.86,571.138 874.527,575.138 870.5,579.5C 868.554,580.035 867.554,581.368 867.5,583.5C 862.171,588.162 856.838,592.829 851.5,597.5C 849.712,597.785 848.045,597.452 846.5,596.5C 849.77,595.241 851.437,592.908 851.5,589.5C 849.508,589.328 847.842,589.995 846.5,591.5C 846.167,590.167 845.833,588.833 845.5,587.5C 846.822,526.471 846.822,465.471 845.5,404.5C 847.836,403.288 850.003,403.621 852,405.5C 853.077,404.571 854.244,403.904 855.5,403.5 Z"/></g>
<g><path style="opacity:1" fill="#7a5074" d="M 896.5,421.5 C 899.639,421.599 901.973,422.932 903.5,425.5C 900.361,425.401 898.027,424.068 896.5,421.5 Z"/></g>
<g><path style="opacity:1" fill="#11779f" d="M 510.5,439.5 C 509.256,442.543 506.923,443.876 503.5,443.5C 505.027,440.932 507.361,439.599 510.5,439.5 Z"/></g>
<g><path style="opacity:1" fill="#b14760" d="M 947.5,455.5 C 948.833,455.5 950.167,455.5 951.5,455.5C 951.5,456.833 951.5,458.167 951.5,459.5C 951.5,458.167 951.5,456.833 951.5,455.5C 950.167,455.5 948.833,455.5 947.5,455.5 Z"/></g>
<g><path style="opacity:1" fill="#346bc8" d="M 703.5,607.5 C 703.194,530.822 703.527,454.156 704.5,377.5C 702.167,377.5 699.833,377.5 697.5,377.5C 699.905,376.232 702.572,375.565 705.5,375.5C 705.866,453.007 705.199,530.34 703.5,607.5 Z"/></g>
<g><path style="opacity:1" fill="#96466e" d="M 967.5,483.5 C 966.833,485.5 965.5,486.833 963.5,487.5C 963.525,484.821 964.858,483.488 967.5,483.5 Z"/></g>
<g><path style="opacity:1" fill="#99abc2" d="M 1387.5,487.5 C 1389.07,489.102 1389.74,491.102 1389.5,493.5C 1387.93,491.898 1387.26,489.898 1387.5,487.5 Z"/></g>
<g><path style="opacity:1" fill="#11967a" d="M 455.5,509.5 C 452.214,508.869 449.214,507.536 446.5,505.5C 443.833,506.833 441.167,508.167 438.5,509.5C 437.158,507.995 435.492,507.328 433.5,507.5C 434.828,505.281 436.828,503.948 439.5,503.5C 439.33,500.509 440.663,498.509 443.5,497.5C 445.879,500.535 448.879,502.869 452.5,504.5C 454.278,505.726 455.278,507.393 455.5,509.5 Z"/></g>
<g><path style="opacity:1" fill="#97466e" d="M 950.5,499.5 C 950.446,501.632 949.446,502.965 947.5,503.5C 947.554,501.368 948.554,500.035 950.5,499.5 Z"/></g>
<g><path style="opacity:1" fill="#0c9875" d="M 511.5,521.5 C 509.787,520.695 508.121,519.695 506.5,518.5C 499.177,509.844 491.177,501.844 482.5,494.5C 481.873,493.583 481.539,492.583 481.5,491.5C 485.303,487.612 489.969,486.612 495.5,488.5C 493.833,489.167 492.167,489.833 490.5,490.5C 491.687,492.21 491.354,493.71 489.5,495C 490.238,498.107 491.905,500.607 494.5,502.5C 500.167,503.167 505.833,503.833 511.5,504.5C 509.833,505.167 508.167,505.833 506.5,506.5C 507.875,508.163 507.542,509.497 505.5,510.5C 507.762,514.024 509.762,517.69 511.5,521.5 Z"/></g>
<g><path style="opacity:1" fill="#5375a4" d="M 81.5,507.5 C 81.7406,509.898 81.0739,511.898 79.5,513.5C 79.2594,511.102 79.9261,509.102 81.5,507.5 Z"/></g>
<g><path style="opacity:1" fill="#009d6e" d="M 455.5,509.5 C 456.873,511.207 458.539,512.54 460.5,513.5C 460.554,515.632 461.554,516.965 463.5,517.5C 467.839,521.503 472.173,525.503 476.5,529.5C 476.554,531.632 477.554,532.965 479.5,533.5C 483.839,537.503 488.173,541.503 492.5,545.5C 492.554,547.632 493.554,548.965 495.5,549.5C 501.043,553.554 505.71,558.554 509.5,564.5C 515.887,568.761 521.221,574.094 525.5,580.5C 529.092,582.778 532.425,585.112 535.5,587.5C 535.354,590.554 536.687,592.554 539.5,593.5C 539.554,595.632 540.554,596.965 542.5,597.5C 545.759,599.283 548.759,601.283 551.5,603.5C 551.354,606.554 552.687,608.554 555.5,609.5C 555.554,611.632 556.554,612.965 558.5,613.5C 559.937,614.725 561.604,615.725 563.5,616.5C 564.767,618.317 566.1,619.984 567.5,621.5C 568.711,623.95 570.378,625.95 572.5,627.5C 574.488,629.816 576.822,631.816 579.5,633.5C 579.554,635.632 580.554,636.965 582.5,637.5C 582.833,637.5 583.167,637.5 583.5,637.5C 584.711,639.95 586.378,641.95 588.5,643.5C 590.379,644.897 592.046,646.563 593.5,648.5C 593.5,677.5 593.5,706.5 593.5,735.5C 511.167,735.5 428.833,735.5 346.5,735.5C 345.831,724.173 346.164,712.839 347.5,701.5C 347.5,699.5 347.5,697.5 347.5,695.5C 348.768,693.095 349.435,690.428 349.5,687.5C 352.215,672.646 355.548,657.979 359.5,643.5C 360.479,642.235 361.479,640.901 362.5,639.5C 363.86,641.981 364.86,641.648 365.5,638.5C 364.054,636.382 363.387,634.049 363.5,631.5C 375.163,597.841 390.83,566.174 410.5,536.5C 415.424,530.947 420.091,525.28 424.5,519.5C 426.446,518.965 427.446,517.632 427.5,515.5C 429.5,512.833 431.5,510.167 433.5,507.5C 435.492,507.328 437.158,507.995 438.5,509.5C 441.167,508.167 443.833,506.833 446.5,505.5C 449.214,507.536 452.214,508.869 455.5,509.5 Z"/></g>
<g><path style="opacity:1" fill="#0d789f" d="M 460.5,513.5 C 462.446,514.035 463.446,515.368 463.5,517.5C 461.554,516.965 460.554,515.632 460.5,513.5 Z"/></g>
<g><path style="opacity:1" fill="#d93e3f" d="M 1059.5,597.5 C 1058.96,597.56 1058.62,597.893 1058.5,598.5C 1060.43,600.724 1062.1,603.058 1063.5,605.5C 1078.78,641.963 1088.12,679.963 1091.5,719.5C 1091.83,724.833 1092.17,730.167 1092.5,735.5C 1072.17,735.5 1051.83,735.5 1031.5,735.5C 969.5,735.5 907.5,735.5 845.5,735.5C 845.667,708.831 845.5,682.165 845,655.5C 844.722,654.584 844.222,653.918 843.5,653.5C 843.5,652.5 843.5,651.5 843.5,650.5C 894.057,599.608 944.724,549.275 995.5,499.5C 1004.38,509.568 1013.05,519.902 1021.5,530.5C 1025.5,537.167 1029.5,543.833 1033.5,550.5C 1043.98,565.132 1052.65,580.798 1059.5,597.5 Z"/></g>
<g><path style="opacity:1" fill="#127e9c" d="M 427.5,515.5 C 427.446,517.632 426.446,518.965 424.5,519.5C 424.554,517.368 425.554,516.035 427.5,515.5 Z"/></g>
<g><path style="opacity:1" fill="#97466e" d="M 934.5,515.5 C 934.446,517.632 933.446,518.965 931.5,519.5C 931.554,517.368 932.554,516.035 934.5,515.5 Z"/></g>
<g><path style="opacity:1" fill="#9cafc5" d="M 131.5,519.5 C 131.741,521.898 131.074,523.898 129.5,525.5C 129.259,523.102 129.926,521.102 131.5,519.5 Z"/></g>
<g><path style="opacity:1" fill="#0d78a0" d="M 476.5,529.5 C 478.446,530.035 479.446,531.368 479.5,533.5C 477.554,532.965 476.554,531.632 476.5,529.5 Z"/></g>
<g><path style="opacity:1" fill="#0d779f" d="M 492.5,545.5 C 494.446,546.035 495.446,547.368 495.5,549.5C 493.554,548.965 492.554,547.632 492.5,545.5 Z"/></g>
<g><path style="opacity:1" fill="#b2adc1" d="M 1319.5,559.5 C 1321.07,561.102 1321.74,563.102 1321.5,565.5C 1319.93,563.898 1319.26,561.898 1319.5,559.5 Z"/></g>
<g><path style="opacity:1" fill="#514fa3" d="M 891.5,559.5 C 890.948,561.331 890.948,562.997 891.5,564.5C 889.01,566.083 886.343,567.083 883.5,567.5C 883.539,566.417 883.873,565.417 884.5,564.5C 887.004,562.945 889.337,561.278 891.5,559.5 Z"/></g>
<g><path style="opacity:1" fill="#3e63a0" d="M 63.5,561.5 C 63.3422,565.841 62.3422,569.841 60.5,573.5C 60.6578,569.159 61.6578,565.159 63.5,561.5 Z"/></g>
<g><path style="opacity:1" fill="#2a5abe" d="M 165.5,553.5 C 164.143,559.892 162.476,566.225 160.5,572.5C 161.5,574.167 162.5,575.833 163.5,577.5C 162.5,580.167 161.5,582.833 160.5,585.5C 159.833,583.5 159.167,581.5 158.5,579.5C 155.869,583.023 156.202,586.356 159.5,589.5C 159.167,590.167 158.833,590.833 158.5,591.5C 157.833,590.5 157.167,589.5 156.5,588.5C 155.583,589.127 154.583,589.461 153.5,589.5C 156.329,577.012 160.329,565.012 165.5,553.5 Z"/></g>
<g><path style="opacity:1" fill="#1357c4" d="M 1163.5,609.5 C 1164.91,600.776 1164.58,592.11 1162.5,583.5C 1163.5,583.5 1164.5,583.5 1165.5,583.5C 1165.5,582.167 1165.5,580.833 1165.5,579.5C 1166.83,579.5 1168.17,579.5 1169.5,579.5C 1169.12,576.293 1170.12,573.627 1172.5,571.5C 1173.83,578.167 1173.83,584.833 1172.5,591.5C 1171.17,588.833 1169.83,586.167 1168.5,583.5C 1165.63,591.313 1164.97,599.313 1166.5,607.5C 1168.5,603.5 1170.5,599.5 1172.5,595.5C 1172.83,596.5 1173.17,597.5 1173.5,598.5C 1171.11,603.678 1169.11,609.012 1167.5,614.5C 1168,616.818 1168.33,619.152 1168.5,621.5C 1167.5,621.5 1166.5,621.5 1165.5,621.5C 1166.09,617.029 1165.42,613.029 1163.5,609.5 Z"/></g>
<g><path style="opacity:1" fill="#5075ab" d="M 1279.5,577.5 C 1281.07,579.102 1281.74,581.102 1281.5,583.5C 1279.93,581.898 1279.26,579.898 1279.5,577.5 Z"/></g>
<g><path style="opacity:1" fill="#824776" d="M 870.5,579.5 C 870.446,581.632 869.446,582.965 867.5,583.5C 867.554,581.368 868.554,580.035 870.5,579.5 Z"/></g>
<g><path style="opacity:1" fill="#10819d" d="M 539.5,593.5 C 541.446,594.035 542.446,595.368 542.5,597.5C 540.554,596.965 539.554,595.632 539.5,593.5 Z"/></g>
<g><path style="opacity:1" fill="#9c94bd" d="M 1329.5,593.5 C 1331.07,595.102 1331.74,597.102 1331.5,599.5C 1329.93,597.898 1329.26,595.898 1329.5,593.5 Z"/></g>
<g><path style="opacity:1" fill="#8e4f76" d="M 1059.5,597.5 C 1062.37,599.249 1063.71,601.915 1063.5,605.5C 1062.1,603.058 1060.43,600.724 1058.5,598.5C 1058.62,597.893 1058.96,597.56 1059.5,597.5 Z"/></g>
<g><path style="opacity:1" fill="#7681a8" d="M 103.5,607.5 C 103.741,609.898 103.074,611.898 101.5,613.5C 101.259,611.102 101.926,609.102 103.5,607.5 Z"/></g>
<g><path style="opacity:1" fill="#10819d" d="M 555.5,609.5 C 557.446,610.035 558.446,611.368 558.5,613.5C 556.554,612.965 555.554,611.632 555.5,609.5 Z"/></g>
<g><path style="opacity:1" fill="#a4abd0" d="M 147.5,611.5 C 147.125,613.698 146.458,615.698 145.5,617.5C 145.025,614.918 145.692,612.918 147.5,611.5 Z"/></g>
<g><path style="opacity:1" fill="#838eb0" d="M 1333.5,609.5 C 1335.07,611.102 1335.74,613.102 1335.5,615.5C 1333.93,613.898 1333.26,611.898 1333.5,609.5 Z"/></g>
<g><path style="opacity:1" fill="#8d99ad" d="M 185.5,619.5 C 185.741,621.898 185.074,623.898 183.5,625.5C 183.259,623.102 183.926,621.102 185.5,619.5 Z"/></g>
<g><path style="opacity:1" fill="#0d72a4" d="M 567.5,621.5 C 570.541,622.199 572.208,624.199 572.5,627.5C 570.378,625.95 568.711,623.95 567.5,621.5 Z"/></g>
<g><path style="opacity:1" fill="#5079a9" d="M 229.5,623.5 C 229.741,625.898 229.074,627.898 227.5,629.5C 227.259,627.102 227.926,625.102 229.5,623.5 Z"/></g>
<g><path style="opacity:1" fill="#7890be" d="M 1207.5,623.5 C 1209.07,625.102 1209.74,627.102 1209.5,629.5C 1207.93,627.898 1207.26,625.898 1207.5,623.5 Z"/></g>
<g><path style="opacity:1" fill="#0e7d99" d="M 579.5,633.5 C 581.446,634.035 582.446,635.368 582.5,637.5C 580.554,636.965 579.554,635.632 579.5,633.5 Z"/></g>
<g><path style="opacity:1" fill="#158f86" d="M 363.5,631.5 C 363.387,634.049 364.054,636.382 365.5,638.5C 364.86,641.648 363.86,641.981 362.5,639.5C 361.479,640.901 360.479,642.235 359.5,643.5C 360.232,639.213 361.565,635.213 363.5,631.5 Z"/></g>
<g><path style="opacity:1" fill="#0d71a3" d="M 583.5,637.5 C 586.541,638.199 588.208,640.199 588.5,643.5C 586.378,641.95 584.711,639.95 583.5,637.5 Z"/></g>
<g><path style="opacity:1" fill="#839eb5" d="M 141.5,637.5 C 141.741,639.898 141.074,641.898 139.5,643.5C 139.259,641.102 139.926,639.102 141.5,637.5 Z"/></g>
<g><path style="opacity:1" fill="#aeb2be" d="M 181.5,637.5 C 181.5,642.833 181.5,648.167 181.5,653.5C 180.421,650.383 179.754,647.05 179.5,643.5C 179.361,641.117 180.028,639.117 181.5,637.5 Z"/></g>
<g><path style="opacity:1" fill="#959abd" d="M 223.5,647.5 C 223.741,649.898 223.074,651.898 221.5,653.5C 221.259,651.102 221.926,649.102 223.5,647.5 Z"/></g>
<g><path style="opacity:1" fill="#fcfdfd" d="M 593.5,648.5 C 615.465,669.965 637.299,691.632 659,713.5C 656.042,720.876 653.542,728.542 651.5,736.5C 632.167,736.5 612.833,736.5 593.5,736.5C 593.5,736.167 593.5,735.833 593.5,735.5C 593.5,706.5 593.5,677.5 593.5,648.5 Z"/></g>
<g><path style="opacity:1" fill="#8c9dbd" d="M 221.5,657.5 C 221.975,660.082 221.308,662.082 219.5,663.5C 219.259,661.102 219.926,659.102 221.5,657.5 Z"/></g>
<g><path style="opacity:1" fill="#d14853" d="M 843.5,653.5 C 844.222,653.918 844.722,654.584 845,655.5C 845.5,682.165 845.667,708.831 845.5,735.5C 844.833,735.5 844.167,735.5 843.5,735.5C 843.5,708.167 843.5,680.833 843.5,653.5 Z"/></g>
<g><path style="opacity:1" fill="#fcfefd" d="M 843.5,650.5 C 843.5,651.5 843.5,652.5 843.5,653.5C 843.5,680.833 843.5,708.167 843.5,735.5C 824.341,736.497 805.007,736.83 785.5,736.5C 784.506,729.019 781.839,722.186 777.5,716C 799.368,693.965 821.368,672.132 843.5,650.5 Z"/></g>
<g><path style="opacity:0.635" fill="#a9a5a9" d="M 5.5,663.5 C 5.66501,666.85 5.49834,670.183 5,673.5C 4.72158,674.416 4.22158,675.082 3.5,675.5C 3.19767,671.21 3.86434,667.21 5.5,663.5 Z"/></g>
<g><path style="opacity:1" fill="#859cbe" d="M 1217.5,669.5 C 1218.22,669.918 1218.72,670.584 1219,671.5C 1219.5,674.146 1219.66,676.813 1219.5,679.5C 1218.42,676.373 1217.75,673.04 1217.5,669.5 Z"/></g>
<g><path style="opacity:1" fill="#2758b8" d="M 1255.5,659.5 C 1254.37,662.857 1254.37,666.191 1255.5,669.5C 1253.39,669.679 1251.73,670.679 1250.5,672.5C 1250.83,673.167 1251.17,673.833 1251.5,674.5C 1248.77,677.192 1246.11,679.859 1243.5,682.5C 1241.6,683.466 1239.6,683.799 1237.5,683.5C 1240.17,680.633 1243.17,677.966 1246.5,675.5C 1250.57,670.677 1253.57,665.343 1255.5,659.5 Z"/></g>
<g><path style="opacity:1" fill="#086ea2" d="M 349.5,687.5 C 349.435,690.428 348.768,693.095 347.5,695.5C 347.111,692.447 347.777,689.78 349.5,687.5 Z"/></g>
<g><path style="opacity:0.584" fill="#9e96a9" d="M 1433.5,679.5 C 1435.08,684.583 1435.75,689.916 1435.5,695.5C 1434.19,690.384 1433.53,685.051 1433.5,679.5 Z"/></g>
<g><path style="opacity:1" fill="#beb3b8" d="M 1303.5,689.5 C 1304.83,690.507 1305.83,691.84 1306.5,693.5C 1305.84,695.453 1305.51,697.453 1305.5,699.5C 1303.99,696.456 1303.32,693.122 1303.5,689.5 Z"/></g>
<g><path style="opacity:1" fill="#fbfdfc" d="M 714.5,712.5 C 735.359,712.261 749.359,721.927 756.5,741.5C 759.992,762.013 752.659,777.18 734.5,787C 710.87,794.681 693.37,787.515 682,765.5C 675.547,737.052 686.38,719.386 714.5,712.5 Z"/></g>
<g><path style="opacity:1" fill="#118a8b" d="M 347.5,701.5 C 346.164,712.839 345.831,724.173 346.5,735.5C 345.5,735.5 344.5,735.5 343.5,735.5C 344.267,725.5 345.1,715.5 346,705.5C 346.21,703.942 346.71,702.609 347.5,701.5 Z"/></g>
<g><path style="opacity:0.49" fill="#9495a8" d="M 1.5,706.5 C 1.90521,716.393 1.23855,726.059 -0.5,735.5C -0.5,728.167 -0.5,720.833 -0.5,713.5C 0.166667,711.167 0.833333,708.833 1.5,706.5 Z"/></g>
<g><path style="opacity:1" fill="#6785c1" d="M 130.5,721.5 C 130.665,724.518 130.498,727.518 130,730.5C 127.36,732.1 125.193,731.766 123.5,729.5C 125.5,729.5 127.5,729.5 129.5,729.5C 129.194,726.615 129.527,723.948 130.5,721.5 Z"/></g>
<g><path style="opacity:1" fill="#6f4783" d="M 1091.5,719.5 C 1092.22,719.918 1092.72,720.584 1093,721.5C 1093.82,726.352 1093.65,731.019 1092.5,735.5C 1092.17,730.167 1091.83,724.833 1091.5,719.5 Z"/></g>
<g><path style="opacity:1" fill="#6178c8" d="M 1305.5,711.5 C 1307.16,719.271 1307.82,727.271 1307.5,735.5C 1305.84,727.729 1305.18,719.729 1305.5,711.5 Z"/></g>
<g><path style="opacity:1" fill="#056f9c" d="M 343.5,735.5 C 344.5,735.5 345.5,735.5 346.5,735.5C 428.833,735.5 511.167,735.5 593.5,735.5C 593.5,735.833 593.5,736.167 593.5,736.5C 593.5,736.833 593.5,737.167 593.5,737.5C 509.827,738.164 426.493,737.497 343.5,735.5 Z"/></g>
<g><path style="opacity:1" fill="#264b90" d="M 593.5,737.5 C 593.5,737.167 593.5,736.833 593.5,736.5C 612.833,736.5 632.167,736.5 651.5,736.5C 651.719,737.675 651.386,738.675 650.5,739.5C 631.667,737.53 612.667,736.863 593.5,737.5 Z"/></g>
<g><path style="opacity:1" fill="#63447f" d="M 843.5,735.5 C 844.167,735.5 844.833,735.5 845.5,735.5C 907.5,735.5 969.5,735.5 1031.5,735.5C 1031.5,736.167 1031.5,736.833 1031.5,737.5C 949.332,737.833 867.332,737.499 785.5,736.5C 805.007,736.83 824.341,736.497 843.5,735.5 Z"/></g>
<g><path style="opacity:1" fill="#83406b" d="M 1031.5,735.5 C 1051.83,735.5 1072.17,735.5 1092.5,735.5C 1072.53,737.488 1052.19,738.155 1031.5,737.5C 1031.5,736.833 1031.5,736.167 1031.5,735.5 Z"/></g>
<g><path style="opacity:1" fill="#414b9e" d="M 785.5,766.5 C 836.499,765.833 887.666,765.5 939,765.5C 990.504,765.5 1041.67,766.167 1092.5,767.5C 1009.5,767.5 926.5,767.5 843.5,767.5C 824.341,766.503 805.007,766.17 785.5,766.5 Z"/></g>
<g><path style="opacity:1" fill="#0e72a6" d="M 651.5,766.5 C 631.993,766.17 612.659,766.503 593.5,767.5C 510.5,767.5 427.5,767.5 344.5,767.5C 344.5,770.167 344.5,772.833 344.5,775.5C 343.521,772.375 343.187,769.042 343.5,765.5C 446.335,765.167 549.001,765.501 651.5,766.5 Z"/></g>
<g><path style="opacity:1" fill="#fbfdfc" d="M 785.5,766.5 C 805.007,766.17 824.341,766.503 843.5,767.5C 843.5,797.167 843.5,826.833 843.5,856.5C 842.833,856.167 842.167,855.833 841.5,855.5C 819.701,833.533 798.034,811.367 776.5,789C 781.244,782.18 784.244,774.68 785.5,766.5 Z"/></g>
<g><path style="opacity:1" fill="#009d6e" d="M 593.5,767.5 C 593.169,797.338 593.502,827.005 594.5,856.5C 591.513,858.153 589.18,860.487 587.5,863.5C 585.5,864.167 584.167,865.5 583.5,867.5C 580.858,867.488 579.525,868.821 579.5,871.5C 574.86,875.138 570.527,879.138 566.5,883.5C 564.554,884.035 563.554,885.368 563.5,887.5C 561.212,889.104 558.879,890.771 556.5,892.5C 554.822,895.173 552.822,897.506 550.5,899.5C 548.554,900.035 547.554,901.368 547.5,903.5C 544.837,905.495 542.171,907.495 539.5,909.5C 536.714,911.279 533.714,912.612 530.5,913.5C 530.5,915.5 530.5,917.5 530.5,919.5C 520.725,928.377 511.391,937.71 502.5,947.5C 501.167,947.5 499.833,947.5 498.5,947.5C 498.657,948.873 498.49,950.207 498,951.5C 496.612,952.736 495.446,954.069 494.5,955.5C 489.416,961.277 484.083,966.943 478.5,972.5C 474.555,975.112 471.221,978.445 468.5,982.5C 463.687,985.802 459.353,989.469 455.5,993.5C 451.515,993.44 449.848,995.44 450.5,999.5C 447.687,1000.45 446.354,1002.45 446.5,1005.5C 442.612,1006.01 440.279,1004.34 439.5,1000.5C 437.993,999.611 436.66,998.611 435.5,997.5C 434.533,996.194 433.199,995.527 431.5,995.5C 431.768,993.901 431.434,992.568 430.5,991.5C 430.446,989.368 429.446,988.035 427.5,987.5C 421.112,979.123 414.446,970.79 407.5,962.5C 389.574,933.647 374.574,903.314 362.5,871.5C 361.075,863.952 358.908,856.619 356,849.5C 354.507,837.201 351.841,825.201 348,813.5C 347.501,809.514 347.334,805.514 347.5,801.5C 347.078,792.627 346.078,783.96 344.5,775.5C 344.5,772.833 344.5,770.167 344.5,767.5C 427.5,767.5 510.5,767.5 593.5,767.5 Z"/></g>
<g><path style="opacity:1" fill="#fbfdfd" d="M 651.5,766.5 C 654.083,775.087 656.917,783.42 660,791.5C 637.687,812.646 615.854,834.313 594.5,856.5C 593.502,827.005 593.169,797.338 593.5,767.5C 612.659,766.503 631.993,766.17 651.5,766.5 Z"/></g>
<g><path style="opacity:1" fill="#d93e3f" d="M 843.5,767.5 C 926.5,767.5 1009.5,767.5 1092.5,767.5C 1092.03,773.491 1091.7,779.491 1091.5,785.5C 1090.43,801.019 1088.26,816.352 1085,831.5C 1081.48,845.605 1077.65,859.605 1073.5,873.5C 1070.65,879.21 1068.32,885.21 1066.5,891.5C 1054.54,919.073 1040.21,945.407 1023.5,970.5C 1020.56,973.457 1017.9,976.457 1015.5,979.5C 1014.5,979.5 1013.5,979.5 1012.5,979.5C 1012.5,980.833 1012.5,982.167 1012.5,983.5C 1005.89,991.456 999.219,999.456 992.5,1007.5C 980.196,994.196 967.53,981.196 954.5,968.5C 953.675,967.614 952.675,967.281 951.5,967.5C 951.762,966.022 951.429,964.689 950.5,963.5C 946.322,958.306 941.322,954.306 935.5,951.5C 935.762,950.022 935.429,948.689 934.5,947.5C 931.119,944.119 927.785,940.785 924.5,937.5C 924.263,933.011 921.93,931.011 917.5,931.5C 914.196,927.194 910.529,923.194 906.5,919.5C 905.833,917.5 904.5,916.167 902.5,915.5C 899.138,911.804 895.472,908.47 891.5,905.5C 892.161,900.832 890.161,898.832 885.5,899.5C 882.167,895.5 878.833,891.5 875.5,887.5C 875.475,884.821 874.142,883.488 871.5,883.5C 866.833,880.167 862.833,876.167 859.5,871.5C 859.475,868.821 858.142,867.488 855.5,867.5C 851.194,864.196 847.194,860.529 843.5,856.5C 843.5,826.833 843.5,797.167 843.5,767.5 Z"/></g>
<g><path style="opacity:1" fill="#6a4b89" d="M 1092.5,767.5 C 1093.16,769.641 1093.5,771.975 1093.5,774.5C 1093.64,778.447 1092.97,782.114 1091.5,785.5C 1091.7,779.491 1092.03,773.491 1092.5,767.5 Z"/></g>
<g><path style="opacity:1" fill="#138292" d="M 344.5,775.5 C 346.078,783.96 347.078,792.627 347.5,801.5C 346.778,801.082 346.278,800.416 346,799.5C 345.5,791.495 345,783.495 344.5,775.5 Z"/></g>
<g><path style="opacity:1" fill="#4466a6" d="M 1399.5,795.5 C 1399.47,801.051 1398.81,806.384 1397.5,811.5C 1397.07,805.886 1397.74,800.553 1399.5,795.5 Z"/></g>
<g><path style="opacity:1" fill="#fefefe" d="M 828.5,883.5 C 833.5,889.5 838.5,895.5 843.5,901.5C 843.5,904.833 843.5,908.167 843.5,911.5C 843.5,975.5 843.5,1039.5 843.5,1103.5C 842.652,1105.09 841.319,1106.26 839.5,1107C 818.336,1113.53 797.003,1118.69 775.5,1122.5C 766.973,1123.05 758.64,1124.05 750.5,1125.5C 745.5,1125.5 740.5,1125.5 735.5,1125.5C 733.513,1107.86 732.847,1089.86 733.5,1071.5C 733.5,1020.83 733.5,970.167 733.5,919.5C 733.5,885.833 733.5,852.167 733.5,818.5C 741.183,816.591 748.516,814.091 755.5,811C 779.701,835.368 804.035,859.535 828.5,883.5 Z"/></g>
<g><path style="opacity:1" fill="#99959b" d="M 37.5,795.5 C 39.2007,801.919 39.8674,808.585 39.5,815.5C 38.4021,809.021 37.7354,802.354 37.5,795.5 Z"/></g>
<g><path style="opacity:0.38" fill="#96a4c4" d="M 1435.5,811.5 C 1435.46,815.733 1434.79,819.733 1433.5,823.5C 1433.2,819.21 1433.86,815.21 1435.5,811.5 Z"/></g>
<g><path style="opacity:1" fill="#fefefe" d="M 593.5,1103.5 C 593.5,1035.5 593.5,967.5 593.5,899.5C 601.167,892.5 608.5,885.167 615.5,877.5C 637.632,855.868 659.632,834.035 681.5,812C 685.797,812.134 689.797,813.467 693.5,816C 696.72,817.352 700.053,818.186 703.5,818.5C 702.799,920.832 702.465,1023.17 702.5,1125.5C 694.826,1125.67 687.159,1125.5 679.5,1125C 651.317,1121.35 623.65,1115.35 596.5,1107C 594.937,1106.24 593.937,1105.07 593.5,1103.5 Z"/></g>
<g><path style="opacity:0.408" fill="#a1a0b4" d="M 1433.5,829.5 C 1434.07,833.329 1433.4,836.663 1431.5,839.5C 1431.34,836.813 1431.5,834.146 1432,831.5C 1432.28,830.584 1432.78,829.918 1433.5,829.5 Z"/></g>
<g><path style="opacity:0.31" fill="#9aa4c4" d="M 5.5,845.5 C 7.01136,848.544 7.67802,851.878 7.5,855.5C 5.98864,852.456 5.32198,849.122 5.5,845.5 Z"/></g>
<g><path style="opacity:0.408" fill="#a3a7c3" d="M 1431.5,847.5 C 1431.89,850.553 1431.22,853.22 1429.5,855.5C 1429.11,852.447 1429.78,849.78 1431.5,847.5 Z"/></g>
<g><path style="opacity:0.318" fill="#8c98bb" d="M 1429.5,861.5 C 1429.25,865.04 1428.58,868.373 1427.5,871.5C 1427.34,868.813 1427.5,866.146 1428,863.5C 1428.28,862.584 1428.78,861.918 1429.5,861.5 Z"/></g>
<g><path style="opacity:1" fill="#a64965" d="M 855.5,867.5 C 858.142,867.488 859.475,868.821 859.5,871.5C 858.167,871.5 856.833,871.5 855.5,871.5C 855.5,870.167 855.5,868.833 855.5,867.5 Z"/></g>
<g><path style="opacity:1" fill="#09729e" d="M 583.5,867.5 C 582.833,869.5 581.5,870.833 579.5,871.5C 579.525,868.821 580.858,867.488 583.5,867.5 Z"/></g>
<g><path style="opacity:1" fill="#1853c7" d="M 841.5,855.5 C 842.167,855.833 842.833,856.167 843.5,856.5C 847.194,860.529 851.194,864.196 855.5,867.5C 855.5,868.833 855.5,870.167 855.5,871.5C 856.833,871.5 858.167,871.5 859.5,871.5C 862.833,876.167 866.833,880.167 871.5,883.5C 871.5,884.167 871.5,884.833 871.5,885.5C 870.022,885.762 868.689,885.429 867.5,884.5C 865.808,882.251 863.808,880.251 861.5,878.5C 860.311,877.571 858.978,877.238 857.5,877.5C 858.218,881.242 860.218,884.242 863.5,886.5C 858.167,887.167 852.833,887.833 847.5,888.5C 845.995,889.842 845.328,891.508 845.5,893.5C 846.833,893.5 848.167,893.5 849.5,893.5C 849.522,888.498 850.855,888.165 853.5,892.5C 851.081,893.328 849.748,894.994 849.5,897.5C 850.697,900.089 851.697,902.756 852.5,905.5C 853.167,904.167 853.833,902.833 854.5,901.5C 857.137,904.999 858.137,908.999 857.5,913.5C 852.833,909.5 848.167,905.5 843.5,901.5C 838.5,895.5 833.5,889.5 828.5,883.5C 830.591,884.865 832.924,885.532 835.5,885.5C 835.5,884.167 835.5,882.833 835.5,881.5C 836.978,881.762 838.311,881.429 839.5,880.5C 838.272,878.679 836.606,877.679 834.5,877.5C 834.5,878.833 834.5,880.167 834.5,881.5C 830.515,881.56 828.848,879.56 829.5,875.5C 830.833,875.5 832.167,875.5 833.5,875.5C 833.5,874.167 833.5,872.833 833.5,871.5C 835.124,871.36 836.29,872.027 837,873.5C 840.077,872.097 843.243,870.764 846.5,869.5C 847.167,870.167 847.833,870.833 848.5,871.5C 849.833,869.5 849.833,867.5 848.5,865.5C 847.167,868.167 845.833,868.167 844.5,865.5C 842.909,862.325 841.909,858.991 841.5,855.5 Z"/></g>
<g><path style="opacity:1" fill="#c1abb6" d="M 1427.5,871.5 C 1427.68,875.122 1427.01,878.456 1425.5,881.5C 1424.93,877.671 1425.6,874.337 1427.5,871.5 Z"/></g>
<g><path style="opacity:1" fill="#434e9c" d="M 1073.5,873.5 C 1074.12,873.917 1074.46,874.584 1074.5,875.5C 1072.28,881.265 1069.62,886.599 1066.5,891.5C 1068.32,885.21 1070.65,879.21 1073.5,873.5 Z"/></g>
<g><path style="opacity:1" fill="#a64965" d="M 871.5,883.5 C 874.142,883.488 875.475,884.821 875.5,887.5C 873.517,887.843 872.183,887.176 871.5,885.5C 871.5,884.833 871.5,884.167 871.5,883.5 Z"/></g>
<g><path style="opacity:1" fill="#056e9e" d="M 566.5,883.5 C 566.446,885.632 565.446,886.965 563.5,887.5C 563.554,885.368 564.554,884.035 566.5,883.5 Z"/></g>
<g><path style="opacity:1" fill="#9d4768" d="M 885.5,899.5 C 890.161,898.832 892.161,900.832 891.5,905.5C 888.951,904.027 886.951,902.027 885.5,899.5 Z"/></g>
<g><path style="opacity:1" fill="#056e9e" d="M 550.5,899.5 C 550.446,901.632 549.446,902.965 547.5,903.5C 547.554,901.368 548.554,900.035 550.5,899.5 Z"/></g>
<g><path style="opacity:1" fill="#8d8dab" d="M 1385.5,897.5 C 1385.74,899.898 1385.07,901.898 1383.5,903.5C 1383.26,901.102 1383.93,899.102 1385.5,897.5 Z"/></g>
<g><path style="opacity:1" fill="#019d6e" d="M 593.5,899.5 C 593.5,967.5 593.5,1035.5 593.5,1103.5C 591.833,1103.5 590.167,1103.5 588.5,1103.5C 587.817,1101.82 586.483,1101.16 584.5,1101.5C 584.167,1101.5 583.833,1101.5 583.5,1101.5C 582.448,1099.74 580.781,1099.08 578.5,1099.5C 574.727,1098.45 571.06,1097.11 567.5,1095.5C 566.344,1093.61 564.677,1092.28 562.5,1091.5C 560.396,1091.8 558.396,1091.47 556.5,1090.5C 554.255,1088.41 551.588,1087.08 548.5,1086.5C 538.807,1080.7 529.14,1075.04 519.5,1069.5C 518.344,1067.61 516.677,1066.28 514.5,1065.5C 512.282,1065.39 510.282,1064.72 508.5,1063.5C 508.5,1062.17 508.5,1060.83 508.5,1059.5C 506.263,1058.55 503.929,1057.88 501.5,1057.5C 493.861,1051.87 486.194,1046.2 478.5,1040.5C 476.671,1038.84 475.337,1036.84 474.5,1034.5C 472.599,1033.46 470.933,1032.12 469.5,1030.5C 468.311,1029.57 466.978,1029.24 465.5,1029.5C 465.259,1027.1 465.926,1025.1 467.5,1023.5C 472.558,1018.67 477.558,1013.67 482.5,1008.5C 484.121,1007.3 485.787,1006.3 487.5,1005.5C 488.833,1005.5 490.167,1005.5 491.5,1005.5C 491.517,1003.44 491.85,1001.44 492.5,999.5C 496.285,995.973 499.951,992.307 503.5,988.5C 506.833,987.833 508.833,985.833 509.5,982.5C 513.142,979.415 516.475,976.082 519.5,972.5C 522.833,971.833 524.833,969.833 525.5,966.5C 531.968,959.692 538.635,953.359 545.5,947.5C 546.833,947.5 548.167,947.5 549.5,947.5C 549.517,945.435 549.85,943.435 550.5,941.5C 553.896,940.289 556.229,937.955 557.5,934.5C 558.588,933.066 559.922,932.066 561.5,931.5C 562.833,931.5 564.167,931.5 565.5,931.5C 565.5,930.167 565.5,928.833 565.5,927.5C 570.419,926.89 573.419,924.223 574.5,919.5C 574.554,917.368 575.554,916.035 577.5,915.5C 578.833,915.5 580.167,915.5 581.5,915.5C 581.614,913.282 582.28,911.282 583.5,909.5C 586.816,906.252 590.15,902.919 593.5,899.5 Z"/></g>
<g><path style="opacity:1" fill="#108f85" d="M 539.5,909.5 C 536.949,913.293 533.949,916.626 530.5,919.5C 530.5,917.5 530.5,915.5 530.5,913.5C 533.714,912.612 536.714,911.279 539.5,909.5 Z"/></g>
<g><path style="opacity:1" fill="#1a8594" d="M 583.5,909.5 C 582.28,911.282 581.614,913.282 581.5,915.5C 580.167,915.5 578.833,915.5 577.5,915.5C 578.446,913.868 579.446,912.201 580.5,910.5C 581.325,909.614 582.325,909.281 583.5,909.5 Z"/></g>
<g><path style="opacity:1" fill="#854a6a" d="M 902.5,915.5 C 904.5,916.167 905.833,917.5 906.5,919.5C 903.858,919.512 902.525,918.179 902.5,915.5 Z"/></g>
<g><path style="opacity:1" fill="#7c94b0" d="M 55.5,913.5 C 57.0739,915.102 57.7406,917.102 57.5,919.5C 55.6921,918.082 55.0254,916.082 55.5,913.5 Z"/></g>
<g><path style="opacity:1" fill="#d1454b" d="M 843.5,911.5 C 845.22,913.658 846.053,916.325 846,919.5C 846.5,978.166 846.667,1036.83 846.5,1095.5C 849.896,1095.63 850.229,1096.63 847.5,1098.5C 850.086,1099.48 852.753,1099.81 855.5,1099.5C 852.071,1101.98 848.071,1103.31 843.5,1103.5C 843.5,1039.5 843.5,975.5 843.5,911.5 Z"/></g>
<g><path style="opacity:1" fill="#128c8d" d="M 574.5,919.5 C 573.419,924.223 570.419,926.89 565.5,927.5C 565.5,928.833 565.5,930.167 565.5,931.5C 564.167,931.5 562.833,931.5 561.5,931.5C 562.446,929.868 563.446,928.201 564.5,926.5C 568.332,924.609 571.665,922.276 574.5,919.5 Z"/></g>
<g><path style="opacity:1" fill="#0353cb" d="M 587.5,863.5 C 585.709,866.064 586.376,867.731 589.5,868.5C 590.386,869.325 590.719,870.325 590.5,871.5C 591.675,871.719 592.675,871.386 593.5,870.5C 589.291,867.112 589.958,864.778 595.5,863.5C 596.167,863.833 596.833,864.167 597.5,864.5C 596.585,865.328 595.919,866.328 595.5,867.5C 597.562,869.901 599.229,872.567 600.5,875.5C 601.842,873.995 603.508,873.328 605.5,873.5C 605.5,874.833 605.5,876.167 605.5,877.5C 607.57,877.551 609.403,876.885 611,875.5C 612.406,876.414 613.906,877.08 615.5,877.5C 608.5,885.167 601.167,892.5 593.5,899.5C 590.15,902.919 586.816,906.252 583.5,909.5C 582.325,909.281 581.325,909.614 580.5,910.5C 579.446,912.201 578.446,913.868 577.5,915.5C 575.554,916.035 574.554,917.368 574.5,919.5C 571.665,922.276 568.332,924.609 564.5,926.5C 563.446,928.201 562.446,929.868 561.5,931.5C 559.922,932.066 558.588,933.066 557.5,934.5C 556.229,937.955 553.896,940.289 550.5,941.5C 548.378,943.05 546.711,945.05 545.5,947.5C 538.635,953.359 531.968,959.692 525.5,966.5C 524.833,969.833 522.833,971.833 519.5,972.5C 516.475,976.082 513.142,979.415 509.5,982.5C 508.833,985.833 506.833,987.833 503.5,988.5C 499.951,992.307 496.285,995.973 492.5,999.5C 489.764,1000.57 488.097,1002.57 487.5,1005.5C 485.787,1006.3 484.121,1007.3 482.5,1008.5C 477.558,1013.67 472.558,1018.67 467.5,1023.5C 467.672,1021.51 467.005,1019.84 465.5,1018.5C 466.167,1017.83 466.833,1017.17 467.5,1016.5C 467,1016.17 466.5,1015.83 466,1015.5C 462.183,1017.48 459.017,1020.15 456.5,1023.5C 456.167,1022.83 455.833,1022.17 455.5,1021.5C 458.467,1016.77 457.134,1014.1 451.5,1013.5C 451.5,1012.17 451.5,1010.83 451.5,1009.5C 450.167,1009.5 448.833,1009.5 447.5,1009.5C 447.674,1014.02 447.007,1014.35 445.5,1010.5C 445.833,1009.83 446.167,1009.17 446.5,1008.5C 443.893,1007.68 441.226,1007.18 438.5,1007C 436.396,1004.19 435.396,1001.02 435.5,997.5C 436.66,998.611 437.993,999.611 439.5,1000.5C 440.279,1004.34 442.612,1006.01 446.5,1005.5C 446.354,1002.45 447.687,1000.45 450.5,999.5C 453.236,998.427 454.903,996.427 455.5,993.5C 459.353,989.469 463.687,985.802 468.5,982.5C 471.221,978.445 474.555,975.112 478.5,972.5C 484.083,966.943 489.416,961.277 494.5,955.5C 496.924,955.808 499.257,955.474 501.5,954.5C 500.833,953.833 500.167,953.167 499.5,952.5C 501.278,951.274 502.278,949.607 502.5,947.5C 511.391,937.71 520.725,928.377 530.5,919.5C 533.949,916.626 536.949,913.293 539.5,909.5C 542.171,907.495 544.837,905.495 547.5,903.5C 549.446,902.965 550.446,901.632 550.5,899.5C 552.822,897.506 554.822,895.173 556.5,892.5C 558.879,890.771 561.212,889.104 563.5,887.5C 565.446,886.965 566.446,885.632 566.5,883.5C 570.527,879.138 574.86,875.138 579.5,871.5C 581.5,870.833 582.833,869.5 583.5,867.5C 584.167,865.5 585.5,864.167 587.5,863.5 Z"/></g>
<g><path style="opacity:1" fill="#a74466" d="M 917.5,931.5 C 921.93,931.011 924.263,933.011 924.5,937.5C 921.407,936.332 919.074,934.332 917.5,931.5 Z"/></g>
<g><path style="opacity:0.267" fill="#898ab6" d="M 1415.5,929.5 C 1415.74,931.898 1415.07,933.898 1413.5,935.5C 1413.26,933.102 1413.93,931.102 1415.5,929.5 Z"/></g>
<g><path style="opacity:1" fill="#d93e3f" d="M 843.5,901.5 C 848.167,905.5 852.833,909.5 857.5,913.5C 894.517,951.517 931.851,989.184 969.5,1026.5C 970.349,1029.03 969.349,1030.7 966.5,1031.5C 964.334,1028.96 963.334,1029.63 963.5,1033.5C 959.412,1034.56 956.079,1036.9 953.5,1040.5C 948.985,1040.75 946.985,1043.09 947.5,1047.5C 945.065,1049.92 942.398,1052.25 939.5,1054.5C 927.5,1062.5 915.5,1070.5 903.5,1078.5C 892.268,1082.78 881.601,1088.12 871.5,1094.5C 866.091,1096.07 860.758,1097.73 855.5,1099.5C 852.753,1099.81 850.086,1099.48 847.5,1098.5C 850.229,1096.63 849.896,1095.63 846.5,1095.5C 846.667,1036.83 846.5,978.166 846,919.5C 846.053,916.325 845.22,913.658 843.5,911.5C 843.5,908.167 843.5,904.833 843.5,901.5 Z"/></g>
<g><path style="opacity:1" fill="#17898c" d="M 550.5,941.5 C 549.85,943.435 549.517,945.435 549.5,947.5C 548.167,947.5 546.833,947.5 545.5,947.5C 546.711,945.05 548.378,943.05 550.5,941.5 Z"/></g>
<g><path style="opacity:0.949" fill="#e4bfa8" d="M 33.5,968.5 C 32.8826,968.389 32.3826,968.056 32,967.5C 30.3925,962.174 28.8925,956.84 27.5,951.5C 28.9432,950.665 29.9432,949.332 30.5,947.5C 31.4538,953.272 32.7871,958.938 34.5,964.5C 33.7542,965.736 33.4208,967.07 33.5,968.5 Z"/></g>
<g><path style="opacity:1" fill="#1465b1" d="M 502.5,947.5 C 502.278,949.607 501.278,951.274 499.5,952.5C 500.167,953.167 500.833,953.833 501.5,954.5C 499.257,955.474 496.924,955.808 494.5,955.5C 495.446,954.069 496.612,952.736 498,951.5C 498.49,950.207 498.657,948.873 498.5,947.5C 499.833,947.5 501.167,947.5 502.5,947.5 Z"/></g>
<g><path style="opacity:1" fill="#9b4a63" d="M 1015.5,979.5 C 1015.5,980.833 1015.5,982.167 1015.5,983.5C 1014.5,983.5 1013.5,983.5 1012.5,983.5C 1012.5,982.167 1012.5,980.833 1012.5,979.5C 1013.5,979.5 1014.5,979.5 1015.5,979.5 Z"/></g>
<g><path style="opacity:1" fill="#157e8d" d="M 427.5,987.5 C 429.446,988.035 430.446,989.368 430.5,991.5C 428.554,990.965 427.554,989.632 427.5,987.5 Z"/></g>
<g><path style="opacity:1" fill="#118093" d="M 455.5,993.5 C 454.903,996.427 453.236,998.427 450.5,999.5C 449.848,995.44 451.515,993.44 455.5,993.5 Z"/></g>
<g><path style="opacity:1" fill="#3365cc" d="M 733.5,919.5 C 733.5,970.167 733.5,1020.83 733.5,1071.5C 732.503,1089.33 732.17,1107.33 732.5,1125.5C 730.989,1122.46 730.322,1119.12 730.5,1115.5C 729.325,1115.72 728.325,1115.39 727.5,1114.5C 728.5,1113.5 729.5,1112.5 730.5,1111.5C 730.835,1047.16 731.835,983.161 733.5,919.5 Z"/></g>
<g><path style="opacity:1" fill="#13878e" d="M 492.5,999.5 C 491.85,1001.44 491.517,1003.44 491.5,1005.5C 490.167,1005.5 488.833,1005.5 487.5,1005.5C 488.097,1002.57 489.764,1000.57 492.5,999.5 Z"/></g>
<g><path style="opacity:1" fill="#cb3f4f" d="M 966.5,1031.5 C 961.586,1036.41 956.586,1041.41 951.5,1046.5C 950.311,1047.43 948.978,1047.76 947.5,1047.5C 946.985,1043.09 948.985,1040.75 953.5,1040.5C 956.079,1036.9 959.412,1034.56 963.5,1033.5C 963.334,1029.63 964.334,1028.96 966.5,1031.5 Z"/></g>
<g><path style="opacity:1" fill="#127998" d="M 501.5,1057.5 C 503.929,1057.88 506.263,1058.55 508.5,1059.5C 508.5,1060.83 508.5,1062.17 508.5,1063.5C 505.407,1062.33 503.074,1060.33 501.5,1057.5 Z"/></g>
<g><path style="opacity:1" fill="#fbfcfc" d="M 410.5,1055.5 C 415.742,1055.02 420.742,1055.86 425.5,1058C 437.294,1067.46 448.794,1077.29 460,1087.5C 465.156,1095.07 465.823,1103.07 462,1111.5C 421.059,1159.06 379.893,1206.39 338.5,1253.5C 331.629,1246.79 324.629,1240.29 317.5,1234C 327.613,1221.55 338.113,1209.38 349,1197.5C 349.507,1196 349.007,1194.84 347.5,1194C 343.275,1190.1 338.775,1186.6 334,1183.5C 323.322,1195.84 312.322,1207.84 301,1219.5C 293.374,1213.71 286.207,1207.38 279.5,1200.5C 320.65,1153.85 361.65,1107.01 402.5,1060C 405.099,1058.2 407.766,1056.7 410.5,1055.5 Z"/></g>
<g><path style="opacity:1" fill="#fafcfc" d="M 1024.5,1051.5 C 1025.5,1051.5 1026.5,1051.5 1027.5,1051.5C 1027.34,1052.87 1027.51,1054.21 1028,1055.5C 1042.91,1085.64 1057.57,1115.64 1072,1145.5C 1100.79,1165.96 1129.29,1186.79 1157.5,1208C 1150.31,1214.35 1142.98,1220.52 1135.5,1226.5C 1123.58,1217.96 1111.74,1209.29 1100,1200.5C 1105.7,1213.73 1111.86,1226.9 1118.5,1240C 1111.45,1246.71 1104.12,1253.21 1096.5,1259.5C 1081.1,1227.7 1065.43,1196.03 1049.5,1164.5C 1021.32,1144.24 993.322,1123.74 965.5,1103C 972.369,1096.3 979.702,1090.13 987.5,1084.5C 998.912,1092.96 1010.41,1101.29 1022,1109.5C 1016.37,1096.72 1010.53,1083.89 1004.5,1071C 1009.84,1064.99 1015.84,1059.66 1022.5,1055C 1023.82,1054.18 1024.49,1053.02 1024.5,1051.5 Z"/></g>
<g><path style="opacity:1" fill="#0e709f" d="M 514.5,1065.5 C 516.677,1066.28 518.344,1067.61 519.5,1069.5C 516.454,1069.82 514.787,1068.48 514.5,1065.5 Z"/></g>
<g><path style="opacity:1" fill="#b1d6ff" d="M 733.5,1071.5 C 732.847,1089.86 733.513,1107.86 735.5,1125.5C 734.5,1126.83 733.5,1126.83 732.5,1125.5C 732.17,1107.33 732.503,1089.33 733.5,1071.5 Z"/></g>
<g><path style="opacity:1" fill="#0e70a3" d="M 562.5,1091.5 C 564.677,1092.28 566.344,1093.61 567.5,1095.5C 564.454,1095.82 562.787,1094.48 562.5,1091.5 Z"/></g>
<g><path style="opacity:1" fill="#107793" d="M 578.5,1099.5 C 580.781,1099.08 582.448,1099.74 583.5,1101.5C 581.219,1101.92 579.552,1101.26 578.5,1099.5 Z"/></g>
<g><path style="opacity:1" fill="#0e7e97" d="M 584.5,1101.5 C 586.483,1101.16 587.817,1101.82 588.5,1103.5C 586.517,1103.84 585.183,1103.18 584.5,1101.5 Z"/></g>
<g><path style="opacity:1" fill="#ddbca5" d="M 1353.5,1089.5 C 1346.92,1102.41 1339.92,1115.08 1332.5,1127.5C 1331.73,1128.61 1330.73,1129.28 1329.5,1129.5C 1329.46,1128.42 1329.13,1127.42 1328.5,1126.5C 1329.04,1124.73 1329.87,1124.4 1331,1125.5C 1332.9,1123.12 1334.07,1120.45 1334.5,1117.5C 1333.02,1117.76 1331.69,1117.43 1330.5,1116.5C 1332.74,1115.53 1335.08,1115.19 1337.5,1115.5C 1338,1112.16 1339.34,1109.16 1341.5,1106.5C 1340.83,1105.83 1340.17,1105.17 1339.5,1104.5C 1340.83,1103.83 1342.17,1103.17 1343.5,1102.5C 1342.83,1101.17 1342.17,1099.83 1341.5,1098.5C 1345.42,1097.34 1347.42,1094.67 1347.5,1090.5C 1349.4,1089.53 1351.4,1089.2 1353.5,1089.5 Z"/></g>
<g><path style="opacity:1" fill="#3862b7" d="M 775.5,1122.5 C 773.958,1123.16 772.291,1123.83 770.5,1124.5C 763.866,1125.5 757.2,1125.83 750.5,1125.5C 758.64,1124.05 766.973,1123.05 775.5,1122.5 Z"/></g>
<g><path style="opacity:1" fill="#fafcfc" d="M 535.5,1136.5 C 543.514,1139.23 551.514,1142.06 559.5,1145C 561.18,1145.35 562.18,1146.35 562.5,1148C 543.009,1199.8 523.509,1251.64 504,1303.5C 501.038,1308.29 502.205,1311.45 507.5,1313C 511.743,1314.3 515.91,1315.8 520,1317.5C 521.477,1316.56 522.477,1315.22 523,1313.5C 542.673,1260.82 562.34,1208.16 582,1155.5C 582.561,1154.98 583.228,1154.64 584,1154.5C 591.833,1157.33 599.667,1160.17 607.5,1163C 608.516,1163.52 609.182,1164.35 609.5,1165.5C 588.119,1222.13 566.619,1278.8 545,1335.5C 537.632,1345.4 527.799,1349.24 515.5,1347C 503.756,1343.24 492.423,1338.57 481.5,1333C 472.99,1324.79 470.157,1314.96 473,1303.5C 493.743,1247.77 514.577,1192.1 535.5,1136.5 Z"/></g>
<g><path style="opacity:1" fill="#fbfcfc" d="M 891.5,1142.5 C 901.687,1142.34 909.187,1146.67 914,1155.5C 935.789,1213.36 956.956,1271.36 977.5,1329.5C 968.587,1332.06 959.753,1335.06 951,1338.5C 944.922,1322.76 938.755,1307.09 932.5,1291.5C 926.133,1294.18 919.799,1296.84 913.5,1299.5C 920.214,1314.89 925.714,1330.56 930,1346.5C 921.837,1349.83 913.504,1352.83 905,1355.5C 904.228,1355.36 903.561,1355.02 903,1354.5C 885.007,1305.17 866.674,1256.17 848,1207.5C 844.727,1197.18 841.56,1186.85 838.5,1176.5C 839.231,1168.53 842.897,1162.36 849.5,1158C 863.604,1152.91 877.604,1147.75 891.5,1142.5 Z"/></g>
<g><path style="opacity:1" fill="#0c53cb" d="M 415.5,1088.5 C 420.605,1092.09 425.605,1095.93 430.5,1100C 431.517,1101.05 431.684,1102.22 431,1103.5C 410.627,1126.2 390.627,1149.2 371,1172.5C 369.951,1173.52 368.784,1173.68 367.5,1173C 362.166,1169 357.666,1164.5 354,1159.5C 374.98,1136.18 395.48,1112.51 415.5,1088.5 Z"/></g>
<g><path style="opacity:1" fill="#9e9abc" d="M 131.5,1167.5 C 134.779,1168.03 136.113,1170.03 135.5,1173.5C 134.17,1171.51 132.836,1169.51 131.5,1167.5 Z"/></g>
<g><path style="opacity:1" fill="#3a6cc6" d="M 740.5,1177.5 C 721.167,1177.5 701.833,1177.5 682.5,1177.5C 682.167,1177.5 681.833,1177.5 681.5,1177.5C 690.308,1176.17 699.475,1175.5 709,1175.5C 718.167,1175.67 727.333,1175.83 736.5,1176C 738.058,1176.21 739.391,1176.71 740.5,1177.5 Z"/></g>
<g><path style="opacity:1" fill="#fbfcfc" d="M 682.5,1177.5 C 701.833,1177.5 721.167,1177.5 740.5,1177.5C 751.183,1179.01 758.016,1185.01 761,1195.5C 761.667,1250.83 761.667,1306.17 761,1361.5C 758.765,1371.23 752.932,1377.57 743.5,1380.5C 723.167,1380.5 702.833,1380.5 682.5,1380.5C 682.5,1312.83 682.5,1245.17 682.5,1177.5 Z"/></g>
<g><path style="opacity:1" fill="#0a53cc" d="M 884.5,1175.5 C 888.158,1174.87 890.658,1176.21 892,1179.5C 902.17,1207.34 912.337,1235.18 922.5,1263C 922.355,1263.77 922.022,1264.44 921.5,1265C 915.465,1266.42 909.798,1268.58 904.5,1271.5C 902.336,1266.88 900.17,1262.21 898,1257.5C 889.366,1233.55 880.699,1209.55 872,1185.5C 871.202,1183.74 871.369,1182.07 872.5,1180.5C 876.763,1179.2 880.763,1177.53 884.5,1175.5 Z"/></g>
<g><path style="opacity:1" fill="#1455cc" d="M 711.5,1206.5 C 718.167,1206.5 724.833,1206.5 731.5,1206.5C 731.5,1229.5 731.5,1252.5 731.5,1275.5C 731.5,1301.17 731.5,1326.83 731.5,1352.5C 724.578,1352.81 717.744,1352.48 711,1351.5C 710.172,1303.1 710.339,1254.76 711.5,1206.5 Z"/></g>
<g><path style="opacity:1" fill="#88a7da" d="M 711.5,1206.5 C 718.313,1205.51 725.313,1205.18 732.5,1205.5C 732.831,1229.01 732.498,1252.34 731.5,1275.5C 731.5,1252.5 731.5,1229.5 731.5,1206.5C 724.833,1206.5 718.167,1206.5 711.5,1206.5 Z"/></g>
<g><path style="opacity:1" fill="#014fd2" d="M 767.5,1207.5 C 767.5,1250.17 767.5,1292.83 767.5,1335.5C 765.866,1340.44 764.866,1345.77 764.5,1351.5C 764.167,1348.83 763.833,1346.17 763.5,1343.5C 764.818,1296.5 764.818,1249.5 763.5,1202.5C 763.478,1200.04 763.978,1197.7 765,1195.5C 764.898,1199.96 765.732,1203.96 767.5,1207.5 Z"/></g>
<g><path style="opacity:1" fill="#0057c4" d="M 767.5,1335.5 C 767.5,1292.83 767.5,1250.17 767.5,1207.5C 768.222,1207.08 768.722,1206.42 769,1205.5C 769.167,1227.17 769.333,1248.83 769.5,1270.5C 769.5,1292.51 768.833,1314.18 767.5,1335.5 Z"/></g>
<g><path style="opacity:0.071" fill="#646da2" d="M 1259.5,1225.5 C 1259.5,1226.83 1258.83,1227.5 1257.5,1227.5C 1257.5,1226.17 1258.17,1225.5 1259.5,1225.5 Z"/></g>
<g><path style="opacity:1" fill="#bbcae4" d="M 681.5,1177.5 C 681.833,1177.5 682.167,1177.5 682.5,1177.5C 682.5,1245.17 682.5,1312.83 682.5,1380.5C 702.833,1380.5 723.167,1380.5 743.5,1380.5C 723.007,1381.5 702.34,1381.83 681.5,1381.5C 681.5,1313.5 681.5,1245.5 681.5,1177.5 Z"/></g>
<g><path style="opacity:0.337" fill="#7785a8" d="M 209.5,1259.5 C 210.833,1259.5 211.5,1260.17 211.5,1261.5C 210.167,1261.5 209.5,1260.83 209.5,1259.5 Z"/></g>
<g><path style="opacity:1" fill="#cdb9b3" d="M 288.5,1327.5 C 291.974,1329.29 295.64,1330.63 299.5,1331.5C 299.5,1332.83 299.5,1334.17 299.5,1335.5C 294.959,1333.95 291.292,1331.28 288.5,1327.5 Z"/></g>
<g><path style="opacity:1" fill="#ddbca8" d="M 1143.5,1331.5 C 1139.31,1335.41 1134.65,1338.74 1129.5,1341.5C 1129.72,1340.27 1130.39,1339.27 1131.5,1338.5C 1130,1337.16 1129.33,1335.49 1129.5,1333.5C 1134.27,1333.4 1138.93,1332.74 1143.5,1331.5 Z"/></g>
<g><path style="opacity:0.043" fill="#6977ab" d="M 1129.5,1341.5 C 1129.5,1342.83 1128.83,1343.5 1127.5,1343.5C 1127.5,1342.17 1128.17,1341.5 1129.5,1341.5 Z"/></g>
<g><path style="opacity:0.62" fill="#bfb1b9" d="M 1095.5,1363.5 C 1094.17,1365.72 1092.17,1367.05 1089.5,1367.5C 1090.11,1364.3 1092.11,1362.97 1095.5,1363.5 Z"/></g>
<g><path style="opacity:1" fill="#2d5dbc" d="M 459.5,1381.5 C 456.29,1381.13 453.623,1379.8 451.5,1377.5C 454.488,1377.56 457.321,1376.89 460,1375.5C 460.833,1375.83 461.667,1376.17 462.5,1376.5C 459.172,1377.1 458.172,1378.77 459.5,1381.5 Z"/></g>
<g><path style="opacity:1" fill="#aea6ba" d="M 1003.5,1411.5 C 1001.47,1413.85 998.806,1415.18 995.5,1415.5C 997.074,1412.29 999.741,1410.96 1003.5,1411.5 Z"/></g>
<g><path style="opacity:1" fill="#9fa7c5" d="M 876.5,1413.5 C 875.365,1415.21 873.698,1415.88 871.5,1415.5C 872.552,1413.74 874.219,1413.08 876.5,1413.5 Z"/></g>
<g><path style="opacity:1" fill="#929dc2" d="M 867.5,1415.5 C 865.898,1417.07 863.898,1417.74 861.5,1417.5C 863.102,1415.93 865.102,1415.26 867.5,1415.5 Z"/></g>
<g><path style="opacity:1" fill="#4264a5" d="M 663.5,1429.5 C 670.508,1429.33 677.508,1429.5 684.5,1430C 683.584,1430.28 682.918,1430.78 682.5,1431.5C 675.963,1431.41 669.63,1430.75 663.5,1429.5 Z"/></g>
<g><path style="opacity:1" fill="#9092a9" d="M 775.5,1429.5 C 768.913,1431.46 761.913,1432.13 754.5,1431.5C 755.952,1430.7 757.618,1430.2 759.5,1430C 764.823,1429.5 770.156,1429.33 775.5,1429.5 Z"/></g>
<g><path style="opacity:0.196" fill="#6775a1" d="M 957.5,1429.5 C 957.027,1430.91 956.027,1431.57 954.5,1431.5C 954.973,1430.09 955.973,1429.43 957.5,1429.5 Z"/></g>
<g><path style="opacity:1" fill="#cfbcb4" d="M 695.5,1431.5 C 711.5,1431.5 727.5,1431.5 743.5,1431.5C 735.862,1432.83 727.862,1433.5 719.5,1433.5C 711.138,1433.5 703.138,1432.83 695.5,1431.5 Z"/></g>
<g><path style="opacity:0.71" fill="#a794ae" d="M 503.5,1437.5 C 505.698,1437.12 507.365,1437.79 508.5,1439.5C 506.302,1439.88 504.635,1439.21 503.5,1437.5 Z"/></g>
<g><path style="opacity:0.663" fill="#b6a9bf" d="M 926.5,1439.5 C 925.365,1441.21 923.698,1441.88 921.5,1441.5C 922.552,1439.74 924.219,1439.08 926.5,1439.5 Z"/></g>
<g><path style="opacity:0.859" fill="#c6b5aa" d="M 919.5,1441.5 C 917.975,1443.04 915.975,1444.04 913.5,1444.5C 911.257,1445.47 908.924,1445.81 906.5,1445.5C 910.124,1442.5 914.457,1441.17 919.5,1441.5 Z"/></g>
<g><path style="opacity:1" fill="#9d98c8" d="M 547.5,1449.5 C 549.483,1449.16 550.817,1449.82 551.5,1451.5C 549.517,1451.84 548.183,1451.18 547.5,1449.5 Z"/></g>
<g><path style="opacity:0.761" fill="#cdb8bb" d="M 890.5,1449.5 C 885.499,1451.69 880.166,1453.02 874.5,1453.5C 876.025,1451.96 878.025,1450.96 880.5,1450.5C 883.768,1449.51 887.102,1449.18 890.5,1449.5 Z"/></g>
<g><path style="opacity:1" fill="#d7baa6" d="M 615.5,1463.5 C 612.813,1463.66 610.146,1463.5 607.5,1463C 603.217,1462.23 599.217,1461.07 595.5,1459.5C 600.758,1459.61 605.924,1458.94 611,1457.5C 612.5,1457.83 614,1458.17 615.5,1458.5C 613.5,1459.17 611.5,1459.83 609.5,1460.5C 611.975,1460.96 613.975,1461.96 615.5,1463.5 Z"/></g>
<g><path style="opacity:0.125" fill="#697f9d" d="M 852.5,1457.5 C 851.365,1459.21 849.698,1459.88 847.5,1459.5C 848.635,1457.79 850.302,1457.12 852.5,1457.5 Z"/></g>
<g><path style="opacity:0.09" fill="#96a2d4" d="M 841.5,1459.5 C 840.22,1460.93 838.553,1461.6 836.5,1461.5C 837.552,1459.74 839.219,1459.08 841.5,1459.5 Z"/></g>
<g><path style="opacity:0.125" fill="#7185ab" d="M 829.5,1461.5 C 828.082,1463.31 826.082,1463.97 823.5,1463.5C 824.918,1461.69 826.918,1461.03 829.5,1461.5 Z"/></g>
<g><path style="opacity:1" fill="#a0a6c6" d="M 816.5,1463.5 C 813.877,1465.27 810.877,1465.93 807.5,1465.5C 809.988,1463.61 812.988,1462.95 816.5,1463.5 Z"/></g>
<g><path style="opacity:0.6" fill="#a497a0" d="M 621.5,1463.5 C 625.329,1462.93 628.663,1463.6 631.5,1465.5C 628.482,1465.66 625.482,1465.5 622.5,1465C 621.944,1464.62 621.611,1464.12 621.5,1463.5 Z"/></g>
<g><path style="opacity:0.02" fill="#8193c2" d="M 800.5,1465.5 C 797.877,1467.27 794.877,1467.93 791.5,1467.5C 793.988,1465.61 796.988,1464.95 800.5,1465.5 Z"/></g>
<g><path style="opacity:0.522" fill="#8e90a0" d="M 637.5,1465.5 C 641.329,1464.93 644.663,1465.6 647.5,1467.5C 644.813,1467.66 642.146,1467.5 639.5,1467C 638.584,1466.72 637.918,1466.22 637.5,1465.5 Z"/></g>
<g><path style="opacity:0.424" fill="#7e85a5" d="M 658.5,1467.5 C 662.514,1467.33 666.514,1467.5 670.5,1468C 669.944,1468.38 669.611,1468.88 669.5,1469.5C 666.15,1469.67 662.817,1469.5 659.5,1469C 658.944,1468.62 658.611,1468.12 658.5,1467.5 Z"/></g>
<g><path style="opacity:0.22" fill="#7681ab" d="M 779.5,1467.5 C 775.79,1469.14 771.79,1469.8 767.5,1469.5C 767.389,1468.88 767.056,1468.38 766.5,1468C 770.821,1467.5 775.154,1467.33 779.5,1467.5 Z"/></g>
<g><path style="opacity:0.231" fill="#61729d" d="M 692.5,1469.5 C 709.5,1469.5 726.5,1469.5 743.5,1469.5C 735.862,1470.83 727.862,1471.5 719.5,1471.5C 711.5,1471.33 703.5,1471.17 695.5,1471C 694.263,1470.77 693.263,1470.27 692.5,1469.5 Z"/></g>
</svg>
