<?xml version="1.0" encoding="utf-8"?>
<!-- Generator: Adobe Illustrator 27.9.1, SVG Export Plug-In . SVG Version: 6.00 Build 0)  -->
<svg version="1.1" id="Layer_1" xmlns="http://www.w3.org/2000/svg" xmlns:xlink="http://www.w3.org/1999/xlink" x="0px" y="0px"
	 viewBox="0 0 400 400" style="enable-background:new 0 0 400 400;" xml:space="preserve">
<style type="text/css">
	.st0{fill:#FBBE15;}
	.st1{fill:#4EBDE4;}
	.st2{fill:#FEFEFE;}
</style>
<g>
	<path class="st0" d="M39.7,160.6c0.1-26.9,3.1-53.3,10.9-79.1c1-3.4,2.6-5.1,6.3-5.9c35.2-8.2,69.4-19.1,101-37.2
		c15.7-9,30-19.8,40-35.3c1.1-1.7,1.9-2.1,3.3-0.3c19.4,25.8,46.6,40.5,75.4,52.6c22.1,9.3,45,16,68.5,21c3,0.6,4.1,1.8,4.7,4.7
		c7.2,33.6,11.7,67.5,10.2,102c-2.2,50-16.8,95.7-48.5,135.2c-21.1,26.4-47.2,46.7-76.4,63.3c-10.4,5.9-21.1,11.2-32,16.1
		c-1.8,0.8-3.4,1.3-5.5,0.4c-51.5-22.3-94.3-55-123.4-104c-17.3-29.1-27.4-60.7-31.8-94.2C40.6,186.8,39.6,173.7,39.7,160.6z
		 M351.1,178c0.1-5,0.2-10,0.1-15c-0.4-25.3-4.1-50.2-9.1-74.9c-0.5-2.5-1.6-3.5-3.9-4c-20.5-4.6-40.6-10.6-60.2-18.5
		c-28.4-11.4-55.2-25.4-76.3-48.1c-1.6-1.7-2.2-1.2-3.4,0.2c-10.8,12.5-24.1,21.9-38.4,29.9C129.6,64.5,97,75.2,63.5,83.3
		c-3.2,0.8-4.8,2.1-5.7,5.4c-10.6,40.2-12.2,80.9-4.7,121.7C68.8,295.8,119.5,353,197.3,388c1.6,0.7,3.1,0.9,4.8,0.1
		c32.4-14.6,62.1-33.1,87.2-58.5C330.8,287.6,349.5,236.3,351.1,178z"/>
	<path class="st1" d="M351.1,178c-1.6,58.3-20.3,109.6-61.8,151.6c-25.1,25.4-54.9,43.9-87.2,58.5c-1.7,0.8-3.1,0.6-4.8-0.1
		C119.5,353,68.8,295.8,53.1,210.4c-7.5-40.9-5.9-81.5,4.7-121.7c0.9-3.3,2.5-4.6,5.7-5.4c33.5-8,66.1-18.8,96.3-35.6
		c14.3-8,27.6-17.4,38.4-29.9c1.2-1.4,1.8-1.9,3.4-0.2c21.2,22.8,48,36.8,76.3,48.1c19.5,7.8,39.6,13.9,60.2,18.5
		c2.3,0.5,3.4,1.4,3.9,4c5,24.7,8.7,49.6,9.1,74.9C351.2,168,351.2,173,351.1,178z M57.6,166.1c0.2,20.5,2.1,39.8,6.6,58.7
		c8.8,37.1,25.7,69.9,52.1,97.6c22.6,23.6,49.4,40.9,79.1,54.1c3.2,1.4,5.9,1.4,9.1-0.1c16.3-7.6,32.2-15.9,47.1-26.1
		c36.1-24.8,63.3-56.7,78.2-98.4c10-28.2,13.4-57.2,12.3-87.1c-0.9-23.5-4.4-46.5-9.3-69.4c-0.5-2.2-1.3-3.4-3.6-3.8
		c-15.1-3.1-30-7.5-44.5-12.7c-30.2-11-59.6-23.6-83-46.8c-1.6-1.6-2.6-1.5-4,0.2c-6.3,7.7-14.2,13.8-22.6,19.1
		C143.9,71.1,109.4,82.1,74,90.6c-3.5,0.8-5.4,2.3-6.5,5.8C60.5,119.5,58,143.3,57.6,166.1z"/>
	<path class="st2" d="M57.6,166.1c0.4-22.9,2.9-46.6,9.9-69.7c1.1-3.5,2.9-4.9,6.5-5.8c35.4-8.5,70-19.5,101.1-39.2
		c8.4-5.3,16.2-11.3,22.6-19.1c1.4-1.7,2.4-1.8,4-0.2c23.4,23.1,52.7,35.8,83,46.8c14.5,5.3,29.3,9.6,44.5,12.7
		c2.3,0.5,3.1,1.6,3.6,3.8c4.9,22.9,8.4,45.9,9.3,69.4c1.2,29.8-2.2,58.9-12.3,87.1c-14.9,41.7-42.1,73.6-78.2,98.4
		c-14.9,10.2-30.7,18.6-47.1,26.1c-3.2,1.5-5.8,1.5-9.1,0.1c-29.7-13.2-56.6-30.5-79.1-54.1c-26.4-27.7-43.3-60.4-52.1-97.6
		C59.7,205.9,57.8,186.7,57.6,166.1z M331.6,191.5c0.7-3.4-0.3-4.1-3.9-2.8c-47.8,18-95.6,35.9-143.4,53.8
		c-28.8,10.8-57.6,21.6-86.4,32.3c-2.9,1.1-3.4,2.3-1.5,4.6c0.4,0.5,0.7,1.2,1.1,1.8c23.8,39.5,58.4,66.3,99.9,85
		c1.8,0.8,3.4,0.7,5.1-0.2c30.1-13.9,57.7-31.4,80.3-56C313.6,276.6,328.7,236.6,331.6,191.5z M70.1,200.3c8.6-3.1,16.8-6.2,25-9.2
		c75.3-27.7,150.7-55.5,226-83.2c1.7-0.6,3.5-0.8,3.2-3.5c-0.3-2.4-1.4-3.6-3.7-4.2c-7.4-1.9-14.8-3.8-22.1-6
		c-34.7-10.9-68.3-24.1-96.6-47.8c-1.7-1.4-2.4-0.8-3.7,0.3c-10.5,9.5-22.3,17-34.9,23.5c-25.5,13.1-52.6,22.1-80.3,28.9
		c-4.9,1.2-6.7,3.6-7.8,8c-5.7,23.6-8,47.4-6.9,71.6C68.4,185.5,68.8,192.6,70.1,200.3z M143.7,246.5c3.7,0,7.9-1.1,11.6-3.1
		c7-3.8,10-10.3,7.3-17.9c-4.7-13.4-9.7-26.6-14.5-40c-0.7-2.1-1.9-2.3-3.8-1.8c-12.3,3.4-12.3,3.4-7.7,15.4
		c0.1,0.4,0.3,0.8,0.4,1.2c3.8,10.6,7.7,21.2,11.5,31.7c0.4,1.1,1.1,2.6-0.5,3.3c-1.8,0.8-2.5-0.6-3-1.9c-0.3-0.8-0.6-1.5-0.9-2.3
		c-4.7-12.6-9.4-25.3-14-38c-1-2.6-2.1-3.6-4.8-2.3c-2.8,1.3-5.7,2.2-8.6,3.2c-1.8,0.6-2.4,1.3-1.6,3.3
		c5.2,13.5,10.1,27.1,15.3,40.6C132.7,243.9,137.4,246.5,143.7,246.5z M190,196.9c4.1-2.4,5.1-5.1,4.4-8.4c-0.8-3.5-1.9-7-3.7-10.2
		c-3.3-5.7-7.6-7.6-14-5.9c-6.2,1.6-12.1,4.3-18.2,6.1c-3.1,0.9-3.1,2.2-2.1,4.8c5.9,15.8,11.7,31.6,17.5,47.4
		c1.1,3.1,2.3,4.8,5.8,2.8c2.2-1.2,4.6-2,7-2.6c3.1-0.8,3.1-2.3,2.1-4.9c-2.3-5.8-4.5-11.7-6.5-17.6c-0.4-1.1-2.3-2.8,0.1-3.7
		c2-0.8,3.1,0.6,3.8,2.3c1.4,3.6,2.7,7.3,4.2,10.9c1.4,3.3,1.5,8.6,4.3,9.4c2.9,0.8,6.9-2.1,10.5-3.2c1.9-0.6,2.4-1.5,1.6-3.4
		c-2.2-5.6-4.3-11.2-6.3-16.8C198.9,199.4,196,196.9,190,196.9z M271.7,166.9c2.5-2.1,4.2-4.1,3.7-7c-0.8-4.7-2.3-9.2-5-13.1
		c-2.9-4.2-6.9-5.7-12-4.5c-6.4,1.5-12.4,4.1-18.6,6.1c-3,1-3.8,2.1-2.6,5.3c5.1,13.4,10,26.8,15,40.3c1.3,3.5,1.8,8.5,4.4,10
		c3,1.8,7-2,10.8-2.9c2.7-0.6,3.5-1.8,2.3-4.7c-2.5-5.9-4.5-12-6.7-18c-0.4-1.2-1.7-2.7,0.1-3.6c2-1,3.1,0.5,3.8,2.2
		c1.4,3.6,2.9,7.2,4.2,10.9c4,11.1,4,11,14.8,6.5c2-0.8,2.4-1.6,1.6-3.6c-2-4.9-3.9-9.8-5.5-14.9
		C280.3,170.9,277.9,167.2,271.7,166.9z M218.6,156.6c-0.8,0-1.7,0.1-2.5,0.1c-12.9,1.1-19.7,10.8-15.6,23.1
		c2.9,8.8,6.3,17.5,9.8,26.2c3.5,8.9,8.9,11.8,18.4,10.3c11-1.7,17.8-10.6,15-20.4c-3.1-10.5-6.9-20.8-11.4-30.9
		C229.6,159.2,225.1,156.3,218.6,156.6z M305.9,177.7c-0.6-1.8,0.6-2.3,2-2.9c1.9-0.8,2.7,0,3.6,1.6c3.7,6.9,3.7,6.9,11.1,4.3
		c1.4-0.5,2.8-1.2,4.3-1.6c2.3-0.6,2.5-1.5,1.4-3.5c-8.6-15.6-17.2-31.2-25.7-46.9c-1.1-2-2.4-2.4-4.4-1.7
		c-5.1,1.9-10.1,3.9-15.3,5.6c-2,0.7-2.6,1.8-2.1,3.8c3.9,17.5,7.9,35,11.8,52.5c0.2,1,0.3,2.6,2,2.1c4.3-1.5,9.1-2.5,12.7-5.1
		C309.2,184.3,306.3,180.6,305.9,177.7z M80.8,209c0.2,0.7,0.4,1.3,0.6,2c3.5,15.7,7,31.5,10.5,47.2c1.6,7,1.6,7,8.6,4.4
		c7.6-2.9,7.7-2.9,5.9-10.8c-0.5-2.1,0.3-2.6,1.9-3.3c1.9-0.8,2.8-0.2,3.5,1.5c0.5,1.4,1.3,2.8,1.8,4.2c0.8,2.3,2.2,2.9,4.5,1.9
		c3.1-1.3,6.2-2.4,9.4-3.5c2-0.7,2.1-1.6,1.1-3.4c-8.7-15.7-17.3-31.4-25.9-47.2c-1-1.9-2.2-2.2-4.1-1.5c-5.2,2-10.4,3.9-15.6,5.8
		C81.8,206.9,80.5,207.2,80.8,209z"/>
	<path class="st1" d="M331.6,191.5c-3,45.1-18,85.1-48.8,118.6c-22.6,24.6-50.2,42.1-80.3,56c-1.8,0.8-3.3,1-5.1,0.2
		c-41.5-18.7-76.1-45.5-99.9-85c-0.4-0.6-0.6-1.3-1.1-1.8c-1.9-2.4-1.4-3.5,1.5-4.6c28.8-10.7,57.6-21.5,86.4-32.3
		c47.8-17.9,95.6-35.8,143.4-53.8C331.3,187.4,332.3,188.1,331.6,191.5z M191.1,311.2c-0.1,2.3-0.4,4.6-2.6,5.8
		c-2.3,1.3-3.3-0.5-4.6-2.1c-1.2-1.5-3.3-0.4-4.6,0.3c-1.4,0.8-0.1,2.3,0.4,3.3c1.5,2.9,4.3,4,7.4,3.8c4-0.2,7.3-2.1,8.7-6.1
		c2.1-5.7,2-11.5,0.2-17.2c-1.4-4.4-4.9-6.3-9.9-5.9c-4.1,0.3-7,2.9-8,7.3C176.4,308.4,182.2,313.4,191.1,311.2z M233.7,293.3
		c-7.6,0-7.6,0-8.9,7.5c-0.3,1.5-0.6,3-0.8,4.5c-0.5,3.2,1.3,4.6,4.4,3.4c0.8-0.3,1.4-1,2.2-1.2c2.2-0.6,4.2-0.4,5.2,2
		c1.2,2.9,0.9,5.6-1.8,7.4c-2.2,1.5-4,0.3-5.1-1.9c-0.5-1-1.1-1.6-2.2-1.4c-1.2,0.2-2.9,0.3-3.4,1.1c-0.9,1.2,0.2,2.6,1,3.7
		c2.5,3.6,7.7,4.9,12,3.1c4.1-1.7,6.6-6.6,5.8-11.4c-0.7-4.4-4.1-7.3-8.6-7.7c-1.2-0.1-3.1,0.9-3.1-1.5c0-2.4,1.8-2,3.3-2
		c1.5,0,3.1-0.1,4.6,0c2.2,0.1,2.8-1,2.9-3c0-2.2-1.1-2.6-2.9-2.5C236.8,293.4,235.2,293.3,233.7,293.3z M215.4,306.3
		c3.6-5.1,3.4-9.1-0.3-11.8c-3.7-2.7-10-2-12.5,1.5c-0.9,1.3-3,3.1-0.9,4.5c1.3,0.9,3.9,2,5.1-1.1c0.5-1.3,1.9-2.1,3.5-1.5
		c1.1,0.4,1.8,1.2,2,2.5c0.2,1.6-0.6,2.7-1.9,3.4c-0.4,0.2-0.8,0.3-1.2,0.4c-1.9,0.5-1.6,2.2-1.7,3.4c-0.2,2.2,1.6,0.7,2.4,0.9
		c2.2,0.5,3.5,1.8,3.7,4c0.2,2.1-0.7,4-2.7,4.7c-2.2,0.9-3.7-0.3-4.7-2.3c-1.2-2.6-3.4-1.5-5-0.8c-1.9,0.9-0.4,2.5,0.1,3.6
		c1.9,3.6,5.2,5,9.1,4.7c4-0.3,7.1-2.3,8.5-6.3C220.5,311.7,218.9,308.6,215.4,306.3z M164.7,301.9c0,6.1,0.1,11.3,0,16.6
		c0,2.2,0.5,3.2,3,3.2c2.3,0,2.8-0.9,2.8-3c-0.1-7.8,0-15.6,0-23.4c0-1.1,0.3-2.4-1.3-2.6c-1.2-0.2-2.7-0.5-3.4,0.8
		c-1.6,2.8-4,4.5-6.7,6.1c-2.1,1.2-1.6,3.4-0.8,4.8c0.7,1.3,2.1-0.2,3.2-0.6C162.2,303.5,163,302.9,164.7,301.9z"/>
	<path class="st1" d="M70.1,200.3c-1.3-7.6-1.7-14.7-2-21.8c-1.1-24.2,1.2-48.1,6.9-71.6c1.1-4.4,2.9-6.8,7.8-8
		c27.8-6.7,54.8-15.8,80.3-28.9c12.6-6.4,24.4-13.9,34.9-23.5c1.3-1.1,2-1.8,3.7-0.3c28.4,23.7,61.9,36.9,96.6,47.8
		c7.3,2.3,14.7,4.2,22.1,6c2.4,0.6,3.4,1.8,3.7,4.2c0.4,2.7-1.5,2.9-3.2,3.5c-75.3,27.7-150.7,55.5-226,83.2
		C86.9,194.1,78.6,197.1,70.1,200.3z M97.9,128c3,2.9,5.2,5.5,7.8,7.5c2.6,2,3,4.2,2.4,7.2c-0.6,3.1-1.7,6.3-1.2,10
		c3-1.6,5.8-2.8,8.4-4.5c2.7-1.8,5.1-2.1,8-0.1c2.7,1.8,5.7,3,9.2,4.8c-0.7-4.3-1-7.9-1.9-11.3c-0.6-2.4,0.2-3.8,1.8-5.5
		c2.5-2.6,5.8-4.7,7.8-8.2c-4.1-0.6-7.7-1.4-11.4-1.7c-2.3-0.2-3.4-1.3-4.2-3.3c-1.4-3.3-3.1-6.4-4.8-9.8c-0.6,0.5-1.1,0.8-1.1,1.1
		C115.9,124.3,108.9,128.2,97.9,128z M212.5,123.9c-0.7-4.2-0.8-7.4-1.7-10.4c-0.9-3.2,0.1-5.3,2.4-7.3c2.5-2.1,5-4.2,7.1-7.4
		c-3.8-0.5-7-1.1-10.3-1.4c-2.8-0.3-4.6-1.3-5.6-4c-1.3-3.2-3.1-6.2-4.9-9.9c-1.5,3.1-2.8,5.2-3.7,7.6c-1.6,4.4-4.3,6.6-9.2,6.8
		c-2.5,0.1-5.3,0.2-7.7,1.4c2.6,2.7,5.1,5.5,7.8,8c1.6,1.5,2.1,3,1.7,5.2c-0.7,3.5-1.6,7-1.4,11.2c3.2-1.7,6.2-3.1,9-4.8
		c2.4-1.5,4.4-1.7,6.9-0.1C205.7,120.6,208.8,121.9,212.5,123.9z"/>
	<path class="st1" d="M143.7,246.5c-6.4,0.1-11.1-2.6-13.4-8.6c-5.2-13.5-10.2-27.1-15.3-40.6c-0.8-2-0.1-2.7,1.6-3.3
		c2.9-0.9,5.9-1.9,8.6-3.2c2.8-1.3,3.9-0.4,4.8,2.3c4.6,12.7,9.3,25.3,14,38c0.3,0.8,0.6,1.6,0.9,2.3c0.6,1.3,1.3,2.7,3,1.9
		c1.6-0.7,0.9-2.1,0.5-3.3c-3.8-10.6-7.7-21.2-11.5-31.7c-0.1-0.4-0.3-0.8-0.4-1.2c-4.6-12-4.6-11.9,7.7-15.4
		c1.9-0.5,3.1-0.3,3.8,1.8c4.8,13.3,9.8,26.6,14.5,40c2.6,7.6-0.3,14.1-7.3,17.9C151.7,245.4,147.5,246.5,143.7,246.5z"/>
	<path class="st1" d="M190,196.9c5.9,0,8.9,2.5,10.4,6.9c2,5.6,4.1,11.2,6.3,16.8c0.7,1.9,0.3,2.8-1.6,3.4c-3.6,1.1-7.5,4-10.5,3.2
		c-2.8-0.8-2.9-6.1-4.3-9.4c-1.5-3.6-2.8-7.3-4.2-10.9c-0.7-1.7-1.8-3.1-3.8-2.3c-2.4,1-0.5,2.6-0.1,3.7c2.1,5.9,4.2,11.8,6.5,17.6
		c1,2.5,1,4.1-2.1,4.9c-2.4,0.6-4.9,1.4-7,2.6c-3.6,2-4.7,0.3-5.8-2.8c-5.7-15.8-11.6-31.6-17.5-47.4c-0.9-2.5-0.9-3.8,2.1-4.8
		c6.1-1.8,12-4.6,18.2-6.1c6.5-1.6,10.8,0.2,14,5.9c1.8,3.2,2.9,6.6,3.7,10.2C195.1,191.8,194.1,194.5,190,196.9z M175.4,183.6
		c-1.8,0-2.1,1-1.5,2.5c0.9,2.5,1.8,4.9,2.8,7.3c0.4,1,0.6,2.3,2.2,1.9c1.5-0.5,2.3-1.6,1.8-3.2c-0.7-2.4-1.6-4.7-2.5-7
		C177.6,184.1,176.7,183.5,175.4,183.6z"/>
	<path class="st1" d="M271.7,166.9c6.2,0.3,8.7,4,10.3,8.8c1.7,5,3.5,10,5.5,14.9c0.8,2,0.4,2.8-1.6,3.6
		c-10.8,4.5-10.8,4.6-14.8-6.5c-1.3-3.7-2.8-7.3-4.2-10.9c-0.7-1.7-1.8-3.1-3.8-2.2c-1.8,0.9-0.5,2.5-0.1,3.6c2.2,6,4.2,12.1,6.7,18
		c1.2,2.9,0.4,4.1-2.3,4.7c-3.7,0.9-7.8,4.7-10.8,2.9c-2.5-1.5-3.1-6.5-4.4-10c-5-13.4-9.8-26.9-15-40.3c-1.2-3.2-0.4-4.3,2.6-5.3
		c6.2-2,12.2-4.6,18.6-6.1c5.1-1.2,9,0.2,12,4.5c2.7,4,4.2,8.5,5,13.1C275.9,162.8,274.1,164.8,271.7,166.9z M261.3,161.5
		c-0.4-1.7-1.2-4.4-2.7-6.7c-0.6-1-1.7-1.4-2.9-1c-1.5,0.5-1.1,1.7-0.8,2.8c0.8,2.4,1.6,4.7,2.6,7c0.4,0.9,0.3,2.6,1.9,2.1
		C260.8,165.3,261.8,164.2,261.3,161.5z"/>
	<path class="st1" d="M218.6,156.6c6.5-0.3,11,2.6,13.6,8.5c4.5,10,8.3,20.3,11.4,30.9c2.8,9.8-4,18.7-15,20.4
		c-9.5,1.4-14.9-1.4-18.4-10.3c-3.4-8.7-6.8-17.3-9.8-26.2c-4-12.2,2.7-21.9,15.6-23.1C217,156.6,217.8,156.6,218.6,156.6z
		 M229.7,202.2c-0.1-0.2-0.3-1.1-0.6-2.1c-3.6-9.8-7.2-19.6-10.8-29.3c-0.6-1.6-1-4.1-3.4-3.3c-2.8,0.9-1.3,3.4-0.8,5
		c2.3,6.7,4.8,13.3,7.3,20c1.5,3.9,3,7.8,4.5,11.7c0.4,1,1.2,2,2.6,1.6C229.8,205.3,229.9,204.2,229.7,202.2z"/>
	<path class="st1" d="M305.9,177.7c0.3,2.9,3.3,6.6,1.3,8.1c-3.6,2.6-8.3,3.6-12.7,5.1c-1.6,0.6-1.7-1.1-2-2.1
		c-4-17.5-7.9-35-11.8-52.5c-0.4-2,0.1-3.1,2.1-3.8c5.1-1.8,10.2-3.7,15.3-5.6c2-0.8,3.3-0.3,4.4,1.7c8.5,15.7,17.1,31.3,25.7,46.9
		c1.1,2,0.9,3-1.4,3.5c-1.5,0.4-2.9,1.1-4.3,1.6c-7.4,2.7-7.4,2.7-11.1-4.3c-0.9-1.6-1.7-2.4-3.6-1.6
		C306.5,175.4,305.3,175.9,305.9,177.7z M298.2,147.8c-0.1,5.7,1.5,10.9,2.8,16.2c0.5,1.8,1.9,1.3,3,0.9c1.1-0.4,2.1-0.9,1.4-2.4
		C303,157.6,300.6,152.7,298.2,147.8z"/>
	<path class="st1" d="M80.8,209c-0.4-1.8,1-2.1,2.2-2.5c5.2-2,10.4-3.8,15.6-5.8c1.9-0.7,3-0.4,4.1,1.5
		c8.6,15.8,17.2,31.5,25.9,47.2c1,1.8,0.9,2.7-1.1,3.4c-3.2,1.1-6.3,2.2-9.4,3.5c-2.3,0.9-3.7,0.4-4.5-1.9c-0.5-1.4-1.3-2.8-1.8-4.2
		c-0.7-1.8-1.6-2.3-3.5-1.5c-1.6,0.7-2.4,1.2-1.9,3.3c1.8,7.9,1.7,8-5.9,10.8c-7,2.6-7,2.6-8.6-4.4c-3.5-15.7-7-31.5-10.5-47.2
		C81.2,210.3,81,209.7,80.8,209z M98.1,220.6c-0.3,0.1-0.6,0.1-0.9,0.2c1.3,5.5,2.7,11,4,16.5c0.4,1.6,1.1,2.3,2.9,1.6
		c1.6-0.6,2.3-1.3,1.4-3.1C103,230.7,100.6,225.6,98.1,220.6z"/>
	<path class="st2" d="M191.1,311.2c-8.9,2.2-14.8-2.8-13-10.8c1-4.4,3.9-7,8-7.3c4.9-0.3,8.5,1.6,9.9,5.9c1.8,5.7,1.9,11.5-0.2,17.2
		c-1.4,3.9-4.7,5.9-8.7,6.1c-3,0.2-5.8-0.9-7.4-3.8c-0.5-1-1.8-2.5-0.4-3.3c1.3-0.7,3.4-1.8,4.6-0.3c1.3,1.6,2.3,3.4,4.6,2.1
		C190.7,315.8,191,313.5,191.1,311.2z M183.7,302.3c0,3,0.6,5.3,3.7,5.3c2.9,0,3.7-2.3,3.6-4.6c-0.1-2.5-0.9-5.4-4.1-5.2
		C184.2,297.9,183.6,300.3,183.7,302.3z"/>
	<path class="st2" d="M233.7,293.3c1.5,0,3.1,0.1,4.6,0c1.8-0.1,2.9,0.3,2.9,2.5c0,2.1-0.6,3.2-2.9,3c-1.5-0.1-3.1,0-4.6,0
		c-1.5,0-3.3-0.3-3.3,2c0,2.4,1.9,1.4,3.1,1.5c4.5,0.4,7.9,3.3,8.6,7.7c0.8,4.8-1.7,9.7-5.8,11.4c-4.3,1.8-9.5,0.5-12-3.1
		c-0.8-1.1-1.9-2.5-1-3.7c0.6-0.8,2.2-0.8,3.4-1.1c1.1-0.2,1.7,0.4,2.2,1.4c1,2.2,2.9,3.4,5.1,1.9c2.6-1.8,3-4.6,1.8-7.4
		c-1-2.4-3-2.6-5.2-2c-0.8,0.2-1.4,0.9-2.2,1.2c-3.1,1.2-4.9-0.2-4.4-3.4c0.2-1.5,0.6-3,0.8-4.5
		C226.1,293.3,226.1,293.3,233.7,293.3z"/>
	<path class="st2" d="M215.4,306.3c3.5,2.3,5.1,5.4,3.6,9.6c-1.4,4.1-4.5,6-8.5,6.3c-3.9,0.3-7.2-1.1-9.1-4.7c-0.6-1-2-2.7-0.1-3.6
		c1.5-0.7,3.7-1.8,5,0.8c1,2,2.5,3.2,4.7,2.3c2-0.8,2.9-2.6,2.7-4.7c-0.2-2.1-1.5-3.5-3.7-4c-0.8-0.2-2.6,1.3-2.4-0.9
		c0.1-1.2-0.2-3,1.7-3.4c0.4-0.1,0.8-0.2,1.2-0.4c1.3-0.8,2.1-1.8,1.9-3.4c-0.1-1.2-0.8-2.1-2-2.5c-1.6-0.6-3,0.2-3.5,1.5
		c-1.2,3.2-3.7,2-5.1,1.1c-2.1-1.4,0-3.2,0.9-4.5c2.5-3.5,8.8-4.2,12.5-1.5C218.9,297.2,219,301.2,215.4,306.3z"/>
	<path class="st2" d="M164.7,301.9c-1.7,1-2.5,1.6-3.4,1.9c-1.1,0.4-2.5,1.9-3.2,0.6c-0.7-1.4-1.2-3.6,0.8-4.8
		c2.7-1.5,5.1-3.3,6.7-6.1c0.7-1.3,2.2-1,3.4-0.8c1.6,0.2,1.3,1.6,1.3,2.6c0,7.8,0,15.6,0,23.4c0,2.1-0.5,3-2.8,3
		c-2.5,0-3.1-1-3-3.2C164.8,313.3,164.7,308,164.7,301.9z"/>
	<path class="st0" d="M97.9,128c11,0.1,18-3.8,20.7-13.8c0.1-0.3,0.6-0.5,1.1-1.1c1.7,3.4,3.4,6.5,4.8,9.8c0.9,2,1.9,3.1,4.2,3.3
		c3.7,0.3,7.4,1.1,11.4,1.7c-2.1,3.5-5.3,5.5-7.8,8.2c-1.6,1.7-2.4,3.1-1.8,5.5c0.9,3.5,1.2,7.1,1.9,11.3c-3.4-1.8-6.5-3-9.2-4.8
		c-2.9-1.9-5.2-1.7-8,0.1c-2.5,1.7-5.3,2.9-8.4,4.5c-0.5-3.7,0.5-6.9,1.2-10c0.6-3.1,0.2-5.2-2.4-7.2
		C103.1,133.5,100.9,131,97.9,128z"/>
	<path class="st0" d="M212.5,123.9c-3.8-2-6.8-3.3-9.6-5.1c-2.5-1.6-4.5-1.4-6.9,0.1c-2.8,1.7-5.8,3.1-9,4.8
		c-0.2-4.2,0.7-7.7,1.4-11.2c0.4-2.2-0.1-3.7-1.7-5.2c-2.7-2.6-5.2-5.3-7.8-8c2.4-1.2,5.1-1.4,7.7-1.4c4.9-0.1,7.6-2.3,9.2-6.8
		c0.8-2.3,2.2-4.5,3.7-7.6c1.9,3.6,3.7,6.6,4.9,9.9c1.1,2.7,2.9,3.8,5.6,4c3.3,0.3,6.6,0.9,10.3,1.4c-2.1,3.1-4.6,5.3-7.1,7.4
		c-2.4,2-3.4,4.1-2.4,7.3C211.7,116.5,211.9,119.7,212.5,123.9z"/>
	<path class="st2" d="M175.4,183.6c1.3-0.1,2.2,0.4,2.7,1.5c0.9,2.3,1.8,4.6,2.5,7c0.5,1.6-0.3,2.7-1.8,3.2
		c-1.6,0.5-1.8-0.9-2.2-1.9c-0.9-2.4-1.9-4.9-2.8-7.3C173.4,184.7,173.6,183.6,175.4,183.6z"/>
	<path class="st2" d="M261.3,161.5c0.5,2.7-0.5,3.8-1.9,4.2c-1.7,0.5-1.6-1.3-1.9-2.1c-1-2.3-1.8-4.6-2.6-7c-0.3-1-0.7-2.2,0.8-2.8
		c1.2-0.4,2.3,0,2.9,1C260.1,157.2,260.9,159.8,261.3,161.5z"/>
	<path class="st2" d="M229.7,202.2c0.3,2,0.1,3.1-1.2,3.5c-1.4,0.4-2.1-0.5-2.6-1.6c-1.6-3.9-3.1-7.8-4.5-11.7
		c-2.5-6.6-5-13.3-7.3-20c-0.6-1.6-2-4.1,0.8-5c2.4-0.8,2.8,1.7,3.4,3.3c3.6,9.8,7.2,19.6,10.8,29.3
		C229.4,201.1,229.6,202,229.7,202.2z"/>
	<path class="st2" d="M298.2,147.8c2.4,4.9,4.8,9.8,7.2,14.7c0.7,1.5-0.3,2-1.4,2.4c-1.2,0.4-2.6,0.9-3-0.9
		C299.7,158.8,298.1,153.6,298.2,147.8z"/>
	<path class="st2" d="M98.1,220.6c2.5,5.1,4.9,10.2,7.5,15.2c0.9,1.7,0.2,2.4-1.4,3.1c-1.8,0.7-2.5,0.1-2.9-1.6
		c-1.3-5.5-2.7-11-4-16.5C97.5,220.7,97.8,220.6,98.1,220.6z"/>
	<path class="st1" d="M183.7,302.3c-0.1-2,0.5-4.4,3.2-4.5c3.2-0.1,4,2.7,4.1,5.2c0.1,2.3-0.7,4.6-3.6,4.6
		C184.2,307.6,183.7,305.3,183.7,302.3z"/>
</g>
</svg>
