<?xml version="1.0" encoding="utf-8"?>
<!-- Generator: Adobe Illustrator 23.1.0, SVG Export Plug-In . SVG Version: 6.00 Build 0)  -->
<svg version="1.1" id="Layer_1" xmlns="http://www.w3.org/2000/svg" xmlns:xlink="http://www.w3.org/1999/xlink" x="0px" y="0px"
	 viewBox="0 0 591.7 632.3" style="enable-background:new 0 0 591.7 632.3;" xml:space="preserve">
<style type="text/css">
	.st0{fill-rule:evenodd;clip-rule:evenodd;fill:#016FB4;}
	.st1{fill-rule:evenodd;clip-rule:evenodd;fill:#FFFFFF;}
	.st2{fill:#016FB4;}
	.st3{fill:#FFFFFF;}
	.st4{fill-rule:evenodd;clip-rule:evenodd;fill:#FFDD17;}
	.st5{fill-rule:evenodd;clip-rule:evenodd;fill:#040405;}
	.st6{fill:#040405;}
</style>
<title>avaí</title>
<g>
	<g id="Layer_1-2_1_">
		<g id="_Group__1_">
			<path id="_Path__1_" class="st0" d="M5.2,25.1v182.8c0,126,152.7,276.3,241.3,332.3l0.6-0.4c221.4-141,240.8-332,240.8-332V25.1
				l-241.4-0.6l0,0L5.2,25.1z"/>
			<path id="_Path_2_1_" class="st1" d="M16.1,36.7v174.6c0,120.3,145.8,263.8,230.4,317.4l0.5-0.3c211.4-134.6,229.9-317,229.9-317
				V36.7l-230.5-0.6l0,0L16.1,36.7z"/>
			<path id="_Path_3_1_" class="st0" d="M114.6,123.6H172V480c-20.2-18.1-39.3-37.2-57.4-57.4V123.6z"/>
			<path id="_Path_4_1_" class="st0" d="M217.6,124.3h57.5v393.9c-9,6.4-18.3,12.7-28.1,18.9l-0.6,0.3c-9-5.7-18.8-12.4-28.9-20
				L217.6,124.3L217.6,124.3z"/>
			<path id="_Path_5_1_" class="st0" d="M321.7,122h57.5v302c-17.7,20.6-36.9,39.8-57.5,57.6V122z"/>
			<path id="_Path_6_1_" class="st0" d="M425.5,121.7h57.5v100.8c-4.8,24-18.8,76.9-57.5,138.8V121.7z"/>
			<path id="_Path_7_1_" class="st0" d="M10.1,123.6h57.5v240.1c-28.9-41.5-50.7-85.6-57.5-127.9L10.1,123.6z"/>
			<polygon id="_Path_8_1_" class="st0" points="15.6,115.1 477.7,115.1 477.7,124.7 15.6,124.7 15.6,115.1 			"/>
			<path id="_Compound_Path__1_" class="st2" d="M127.2,103.2h-12l-4.8-12.6H88.6l-4.5,12.6H72.5l21.2-55.6h11.6L127.2,103.2z
				 M106.9,81.3l-7.6-20.6L92,81.3H106.9z"/>
			<polygon id="_Path_9_1_" class="st2" points="141.3,103.2 121.8,47.7 133.7,47.7 147.5,88.8 160.9,47.7 172.6,47.7 153,103.2 
				141.3,103.2 			"/>
			<path id="_Compound_Path_2_1_" class="st2" d="M221.7,103.2h-12L205,90.6h-21.8l-4.5,12.6H167l21.2-55.6h11.6L221.7,103.2
				L221.7,103.2z M201.5,81.3l-7.6-20.6l-7.3,20.6H201.5z"/>
			<path id="_Compound_Path_3_1_" class="st2" d="M227.2,103.2V47.7h11v55.6L227.2,103.2z M226,44.5l5.2-11.3h11.7l-10.2,11.3H226z"
				/>
			<polygon id="_Path_10_1_" class="st2" points="291.2,103.2 291.2,47.7 328.6,47.7 328.6,57.1 302.2,57.1 302.2,70.2 325,70.2 
				325,79.6 302.2,79.6 302.2,103.2 291.2,103.2 			"/>
			<polygon id="_Path_11_1_" class="st2" points="329.1,103.2 329.1,92.6 339.6,92.6 339.6,103.2 329.1,103.2 			"/>
			<path id="_Path_12_1_" class="st2" d="M385.3,82.8l10.7,3.4c-1.6,6.1-4.4,10.6-8.2,13.5c-3.8,3-8.6,4.4-14.5,4.4
				c-6.8,0.2-13.3-2.6-17.9-7.6c-4.7-5-7-11.9-7-20.7c0-9.2,2.3-16.4,7-21.6s10.9-7.7,18.5-7.7c6.7,0,12.1,2,16.3,6
				c2.7,2.9,4.7,6.4,5.6,10.2l-10.9,2.6c-0.5-2.7-2-5.1-4.1-6.8c-2.1-1.7-4.7-2.6-7.4-2.5c-3.8-0.1-7.4,1.5-9.8,4.4
				c-2.5,3-3.8,7.7-3.8,14.4c0,7,1.2,12,3.7,15c2.4,2.9,6,4.6,9.7,4.5c2.8,0.1,5.5-1,7.6-2.8C382.9,89.8,384.4,86.8,385.3,82.8
				L385.3,82.8z"/>
			<polygon id="_Path_13_1_" class="st2" points="405.3,103.2 405.3,92.6 415.8,92.6 415.8,103.2 405.3,103.2 			"/>
		</g>
	</g>
	<g>
		<path class="st3" d="M211.2,454.2c0.2,6.1,1.2,12.1,3,17.9c6.7,19.9,19.7,35.4,35.5,48.6c10,8.4,22.2,12.8,34.3,17
			c18.3,6.5,37.1,11.2,55.2,18.2c15.7,6.1,30.6,13.7,41.5,27.3c1.4,1.7,2.3,1.3,3.5-0.2c7.1-8.9,16.3-15.1,26.3-20.3
			c18-9.4,37.7-14.1,56.8-20.4c11.4-3.7,22.7-7.5,33.6-12.6c10.6-5,19.2-12.4,27-21c9.9-10.8,18.4-22.4,22.7-36.6
			c2.5-8.2,4.4-16.5,2.3-25.2c-4.2-17.3-11.5-33.2-20.2-48.6c-8.1-14.3-17-28.1-23-43.4c-3.4-8.8-5.3-17.8-4-27.3
			c1.4-10.2,6.1-18.8,12.1-26.9c8.8-11.7,20.1-20.8,31.8-29.4c4.1-3.1,4.1-3.2,0.6-7c-16.2-17.5-32.5-35.1-48.7-52.7
			c-1.4-1.5-2.4-1.7-4.2-0.8c-13,6.1-26.6,10.6-40.4,14.6c-17.2,4.9-34.7,8.2-52.5,9.7c-30.3,2.7-60-0.3-89.4-7.8
			c-16.3-4.2-32.3-9.3-47.5-16.7c-1.6-0.8-2.6-0.5-3.9,0.9c-16.2,17.6-32.5,35.3-48.9,52.8c-3.5,3.8-3.6,3.6,0.5,6.7
			c13.4,10,26.4,20.4,35.6,34.7c8.5,13.1,11.3,27.1,6.7,42.4c-3.9,13-10.4,24.6-17.2,36.2c-9.5,16.2-18.7,32.4-24.8,50.2
			C213.2,440.8,210.5,447.2,211.2,454.2z"/>
		<polygon class="st4" points="381.8,559.7 276.6,405.1 319.8,405.1 		"/>
		<polygon class="st4" points="381.8,559.7 487,405.1 442.4,405.1 		"/>
		<path class="st4" d="M342.5,308l39.3,252.1L421.1,308H342.5z"/>
		<polygon class="st5" points="381.8,560.1 250.4,449.6 302.9,449.6 		"/>
		<polygon class="st5" points="381.8,560.1 303.2,349.9 344.5,349.9 		"/>
		<polygon class="st5" points="381.8,560.1 513.1,449.6 460.6,449.6 		"/>
		<polygon class="st5" points="381.8,560.1 460.4,349.9 421,349.9 		"/>
		<path class="st6" d="M203.6,510.8c-8.8-9.2-15.9-19.5-20.5-31.5c-3.2-8.3-5.1-17.1-4.2-26c0.6-6,3.2-11.6,5.3-17.2
			c4.8-12.7,11.4-24.6,18.4-36.2c0.4-0.7,1.9-2.9,2.3-3.5c3.5-5.5,7-10.9,10.4-16.4c7-11.4,14.3-22.6,18.4-35.5
			c3.7-11.6,4-23.1-0.8-34.5c-5.8-13.8-16.1-24.1-27.3-33.6c-0.4-0.4-4.9-4.3-6.8-5.7c-5.5-4-11.2-7.9-17-11.7
			c-2.3-1.5-2.1-2.6-0.3-4.4c7.1-6.9,14.1-14,21.1-21c0.4-0.4,2.7-2.5,3.4-3.2c11.1-10.9,22.2-21.7,33.1-32.7c2.5-2.6,4.7-4.2,8-1.7
			c0.6,0.5,13.6,5.1,19.4,7.2c9.9,3.6,20,6.7,30.2,9.2c1.8,0.5,6.7,1.7,7.6,1.9c10.1,2.2,20.3,4,30.6,5.3c4.4,0.5,8.7,1.6,13.1,1.2
			c17.1,1.9,34.3,1.6,51.4,1.3c0.6-0.1,1.2-0.2,1.8-0.4c2.5,0.8,4.9-0.1,7.4-0.2c12.8-0.6,25.5-2.2,38.1-4.7
			c13.4-2.3,26.6-5.5,39.5-9.7c5.4-1.7,26.5-9.3,31.6-11.5c2.6-1.1,4.1-0.9,6.2,1.1c19.9,19.7,39.8,39.4,59.8,59c2,2,0.1,2.5-1,3.2
			c-11.2,7-21.7,15-31.4,24c-8.6,8.1-16.1,17.2-20.5,28.4c-4.3,11-4,22-0.4,33c3.9,12.3,10.6,23.1,17.4,33.9
			c11.4,18.2,23.6,36,31.3,56.2c2.2,5.7,4.6,11.5,5.9,17.4c1.3,5.7,0.1,11.6-1.1,17.4c-3,14.2-10.1,26.3-19.6,37.2
			c-11.3,13-23.5,24.9-39.5,32c-9.2,4-18.6,7.5-28.2,10.5c-19.6,6.2-39.6,10.8-59,17.5c-15.9,5.5-31.5,11.6-44.8,22.2
			c-3.5,2.7-6.8,5.7-9.7,9.1c-1,1.3-1.7,1.7-3,0.2c-12.1-14-28.3-21.7-45.2-28.2c-14.1-5.4-28.6-9.2-43-13.4
			c-0.8-0.2-1.7-0.2-2.5,0.1c-0.9-1.7-2.7-1.6-4.1-2c-16.4-4.7-32.8-9.3-48.2-16.7C235.9,536.7,220.3,529,203.6,510.8z M211.2,454.2
			c0.2,6.1,1.2,12.1,3,17.9c6.7,19.9,19.7,35.4,35.5,48.6c10,8.4,22.2,12.8,34.3,17c18.3,6.5,37.1,11.2,55.2,18.2
			c15.7,6.1,30.6,13.7,41.5,27.3c1.4,1.7,2.3,1.3,3.5-0.2c7.1-8.9,16.3-15.1,26.3-20.3c18-9.4,37.7-14.1,56.8-20.4
			c11.4-3.7,22.7-7.5,33.6-12.6c10.6-5,19.2-12.4,27-21c9.9-10.8,18.4-22.4,22.7-36.6c2.5-8.2,4.4-16.5,2.3-25.2
			c-4.2-17.3-11.5-33.2-20.2-48.6c-8.1-14.3-17-28.1-23-43.4c-3.4-8.8-5.3-17.8-4-27.3c1.4-10.2,6.1-18.8,12.1-26.9
			c8.8-11.7,20.1-20.8,31.8-29.4c4.1-3.1,4.1-3.2,0.6-7c-16.2-17.5-32.5-35.1-48.7-52.7c-1.4-1.5-2.4-1.7-4.2-0.8
			c-13,6.1-26.6,10.6-40.4,14.6c-17.2,4.9-34.7,8.2-52.5,9.8c-30.3,2.7-60-0.3-89.4-7.8c-16.3-4.2-32.3-9.3-47.5-16.7
			c-1.6-0.8-2.6-0.5-3.9,0.9c-16.2,17.6-32.5,35.3-48.9,52.8c-3.5,3.8-3.6,3.6,0.5,6.7c13.4,10,26.4,20.4,35.6,34.7
			c8.5,13.1,11.3,27.1,6.7,42.4c-3.9,13-10.4,24.6-17.2,36.2c-9.5,16.2-18.7,32.4-24.8,50.2C213.2,440.8,210.5,447.2,211.2,454.2
			L211.2,454.2z"/>
		<path d="M371.6,321.4h6.5v7.9l6.8-7.9h8.6l-7.6,7.9l8,13h-8l-4.4-8.6l-3.3,3.5v5.1h-6.5L371.6,321.4z"/>
		<path d="M255,253.6h6.9v8.4l7.2-8.4h9.2l-8.1,8.4l8.5,13.9h-8.5l-4.7-9.2l-3.6,3.8v5.4H255V253.6z"/>
		<path d="M283.5,253.6h6.9v22.3h-6.9V253.6z"/>
		<path d="M297.7,253.6h6.4l8.4,12.3v-12.3h6.5v22.3h-6.5l-8.3-12.2v12.2h-6.5L297.7,253.6z"/>
		<path d="M326.1,253.6h10.3c1.7-0.1,3.3,0.2,4.9,0.8c1.2,0.5,2.2,1.3,3,2.4c0.8,1.1,1.4,2.3,1.8,3.6c0.4,1.4,0.6,2.9,0.6,4.3
			c0.1,1.9-0.2,3.8-0.8,5.5c-0.5,1.3-1.3,2.4-2.3,3.3c-0.9,0.8-1.9,1.4-3.1,1.8c-1.3,0.4-2.7,0.6-4.1,0.6h-10.2V253.6z M333,258.6
			v12.2h1.7c1,0.1,2.1-0.1,3-0.5c0.7-0.4,1.2-1,1.4-1.7c0.4-1.2,0.6-2.6,0.5-3.9c0-2.4-0.4-4-1.2-4.8c-1-1-2.4-1.4-3.8-1.3H333z"/>
		<path d="M352.5,253.6H371v4.8h-11.6v3.5h10.7v4.5h-10.7v4.4h11.9v5.1h-18.8V253.6z"/>
		<path d="M377.5,275.9v-22.3h11.5c1.6-0.1,3.3,0.1,4.9,0.5c1.1,0.4,2.1,1.1,2.7,2c2,2.9,1.3,6.8-1.6,8.8c-0.1,0.1-0.2,0.2-0.4,0.2
			c-0.8,0.4-1.6,0.7-2.4,0.9c0.6,0.2,1.2,0.5,1.8,0.8c0.4,0.3,0.8,0.7,1.1,1.2c0.4,0.4,0.7,0.9,1,1.4l3.3,6.5h-7.8l-3.7-6.8
			c-0.3-0.7-0.7-1.2-1.3-1.7c-0.5-0.3-1.1-0.5-1.7-0.5h-0.6v9.1L377.5,275.9z M384.4,262.6h2.9c0.6,0,1.2-0.1,1.8-0.3
			c0.4-0.1,0.8-0.3,1.1-0.7c0.3-0.4,0.4-0.8,0.4-1.3c0-0.6-0.2-1.2-0.7-1.7c-0.8-0.5-1.7-0.7-2.6-0.6h-3L384.4,262.6z"/>
		<path d="M403.9,253.6h9.1l3.5,13.6l3.5-13.6h9.1v22.3h-5.8v-17l-4.3,17h-5.1l-4.3-17v17h-5.6L403.9,253.6z"/>
		<path d="M449.4,272.2h-7.8l-1.1,3.7h-7.1l8.4-22.3h7.5l8.4,22.3h-7.1L449.4,272.2z M447.9,267.4l-2.5-8l-2.4,8L447.9,267.4z"/>
		<path d="M462.3,253.6h6.4l8.4,12.3v-12.3h6.5v22.3h-6.5l-8.4-12.2v12.2h-6.5L462.3,253.6z"/>
		<path d="M490.5,253.6h6.5l8.4,12.3v-12.3h6.5v22.3h-6.5l-8.4-12.2v12.2h-6.5L490.5,253.6z"/>
	</g>
</g>
</svg>
