<?xml version="1.0" encoding="utf-8"?>
<!-- Generator: Adobe Illustrator 23.0.1, SVG Export Plug-In . SVG Version: 6.00 Build 0)  -->
<svg version="1.1" id="Layer_1" xmlns="http://www.w3.org/2000/svg" xmlns:xlink="http://www.w3.org/1999/xlink" x="0px" y="0px"
	 viewBox="0 0 600 600" style="enable-background:new 0 0 600 600;" xml:space="preserve">
<style type="text/css">
	.st0{fill-rule:evenodd;clip-rule:evenodd;fill:#019036;}
	.st1{fill-rule:evenodd;clip-rule:evenodd;fill:#FFFFFF;}
</style>
<g>
	<path class="st0" d="M315.1,14.4c77.2,35.9,151,39.2,231.2,11l46-16.1L594,58c3.5,100.7-6.9,209.5-54.5,299.9
		c-52.2,99.1-125,168.9-221.6,224.4L300,592.6l-17.8-10.2c-96.7-55.5-169.4-125.3-221.6-224.4C12.9,267.4,2.5,158.6,6,58L7.6,9.3
		l46,16.1c80.3,28.2,154.1,24.9,231.3-11l15.1-7L315.1,14.4L315.1,14.4z"/>
	<path class="st1" d="M308.4,28.8c80.9,37.7,158.4,41.4,243.2,11.6l25.5-9l0.9,27c3.4,97.6-6.5,204.3-52.7,292
		C474.5,447.2,404,514.6,309.9,568.6l-9.9,5.7l-10-5.7c-94-54-164.6-121.4-215.4-218.1c-46.2-87.8-56.1-194.4-52.7-292l0.9-27
		l25.6,9c84.7,29.7,162.3,26,243.1-11.6l8.5-3.9L308.4,28.8L308.4,28.8z"/>
	<path class="st0" d="M310.2,24.9c79.8,37.2,156.3,40.8,240,11.5l31.1-10.9l1.2,32.9c3.4,98.5-6.7,205.6-53.2,294.1
		C478,449.9,406.8,517.9,312.1,572.3l-12.1,6.9l-12-6.9C193.2,517.9,122,449.9,70.7,352.5C24.2,264,14.2,156.8,17.5,58.4l1.2-32.9
		l31.1,10.9c83.7,29.4,160.1,25.7,240-11.5l10.2-4.7L310.2,24.9L310.2,24.9z M310.2,24.9L310.2,24.9L310.2,24.9z M300,61.9
		c-25.8,0-46.7,20.9-46.7,46.6c0,25.7,20.9,46.6,46.7,46.6c25.8,0,46.7-20.9,46.7-46.6C346.6,82.8,325.8,61.9,300,61.9L300,61.9z
		 M300,61.9L300,61.9L300,61.9z M321.3,141.5c-5.6-9.7-8.7-21-8.7-33s3.1-23.3,8.7-33c-6.1-3.9-13.4-6.2-21.3-6.2
		c-7.8,0-15.1,2.3-21.2,6.2c5.5,9.7,8.7,21,8.7,33s-3.2,23.3-8.7,33c6.1,4,13.4,6.2,21.2,6.2C307.8,147.8,315.1,145.5,321.3,141.5
		L321.3,141.5z M321.3,141.5L321.3,141.5L321.3,141.5z M326,79.1c-4.9,8.7-7.6,18.8-7.6,29.4c0,10.7,2.8,20.7,7.6,29.4
		c8.2-7.2,13.3-17.7,13.3-29.4C339.3,96.8,334.1,86.3,326,79.1L326,79.1z M326,79.1L326,79.1L326,79.1z M274,79.1
		c4.8,8.7,7.6,18.8,7.6,29.4c0,10.7-2.8,20.7-7.6,29.4c-8.2-7.2-13.3-17.7-13.3-29.4C260.7,96.8,265.9,86.3,274,79.1L274,79.1z
		 M274,79.1L274,79.1L274,79.1z M123.3,153.3V94h44.1v10.1h-32.1v13.1h29.8v10h-29.8v16.1h33.2v10H123.3L123.3,153.3z M123.3,153.3
		L123.3,153.3L123.3,153.3z M465.1,131.6l11.6,3.6c-1.8,6.5-4.7,11.3-8.9,14.4c-4.2,3.2-9.4,4.7-15.8,4.7c-7.9,0-14.4-2.7-19.4-8.1
		c-5.1-5.4-7.6-12.7-7.6-22c0-9.9,2.5-17.5,7.7-23c5.1-5.5,11.8-8.2,20.1-8.2c7.2,0,13.1,2.1,17.7,6.4c2.7,2.5,4.7,6.2,6.1,10.9
		l-11.9,2.8c-0.6-3.1-2.1-5.5-4.3-7.3c-2.3-1.8-5-2.7-8.2-2.7c-4.3,0-7.9,1.6-10.7,4.7c-2.8,3.1-4.1,8.2-4.1,15.3
		c0,7.5,1.3,12.8,4.1,16c2.7,3.2,6.3,4.8,10.5,4.8c3.2,0,6-1,8.2-3.1C462.5,139.1,464.1,135.8,465.1,131.6L465.1,131.6z
		 M465.1,131.6L465.1,131.6L465.1,131.6z M173.9,237.9h-19.8l-4.3,11.9h-13.1l21.1-54.1h12.4l21.7,54.1h-13.4L173.9,237.9
		L173.9,237.9z M173.9,237.9L173.9,237.9L173.9,237.9z M210.2,232.6l12.2-37h13.1l-19.4,54.1h-12.6l-19.3-54.1h13.3L210.2,232.6
		L210.2,232.6z M210.2,232.6L210.2,232.6L210.2,232.6z M251.1,206.2v9.9h26.3v10.6h-26.3v12.5h29.3v10.6h-41.6v-54.1h40.6v10.6
		H251.1L251.1,206.2z M251.1,206.2L251.1,206.2L251.1,206.2z M319.5,228.4v-32.8h11.6v54.1h-12l-19.8-32v32h-11.6v-54.1h11.6
		L319.5,228.4L319.5,228.4z M319.5,228.4L319.5,228.4L319.5,228.4z M340.3,249.8v-54.1h12.3v54.1H340.3L340.3,249.8z M340.3,249.8
		L340.3,249.8L340.3,249.8z M360.9,195.6h20.3c3.2,0,7.1,0.1,10.2,1c3.2,0.9,6,2.6,8.3,5c2.4,2.5,4.1,5.6,5.2,8.9
		c1.4,4,1.8,8.4,1.8,12.7c0,3.8-0.4,7.8-1.7,11.4c-1.2,3.6-3.1,6.9-5.8,9.6c-2.1,2.1-4.9,3.5-7.8,4.4c-3,0.9-6.5,1.2-9.7,1.2h-20.8
		V195.6L360.9,195.6z M360.9,195.6L360.9,195.6L360.9,195.6z M445.3,237.9h-19.8l-4.3,11.9h-13.1l21.1-54.1h12.4l21.7,54.1h-13.4
		L445.3,237.9L445.3,237.9z M445.3,237.9L445.3,237.9L445.3,237.9z M169.9,227.3l-6-16.1l-5.9,16.1H169.9L169.9,227.3z M169.9,227.3
		L169.9,227.3L169.9,227.3z M373.2,206.2v33h7.1c1.9,0,4.3,0,6.2-0.5c1.4-0.3,2.8-1,3.9-2c1.3-1.2,2-3.1,2.5-4.7
		c0.9-2.8,1-6.4,1-9.4c0-2.8-0.2-6.3-1-9c-0.6-1.7-1.4-3.5-2.8-4.7c-1.3-1.2-2.8-1.9-4.5-2.3c-2.4-0.5-6-0.5-8.5-0.5H373.2
		L373.2,206.2z M373.2,206.2L373.2,206.2L373.2,206.2z M441.3,227.3l-6-16.1l-5.8,16.1H441.3L441.3,227.3z M441.3,227.3L441.3,227.3
		L441.3,227.3z M287.9,544.2V280.8h-24.3V529C271.6,534.2,279.7,539.3,287.9,544.2L287.9,544.2z M287.9,544.2L287.9,544.2
		L287.9,544.2z M239.4,512.1V280.8H215v212.4C223,499.7,231.1,506,239.4,512.1L239.4,512.1z M239.4,512.1L239.4,512.1L239.4,512.1z
		 M190.8,471.7V280.8h-24.3v166.5C174.5,455.8,182.6,464,190.8,471.7L190.8,471.7z M190.8,471.7L190.8,471.7L190.8,471.7z
		 M142.2,418.8v-138H118V385C125.8,396.9,133.8,408.1,142.2,418.8L142.2,418.8z M142.2,418.8L142.2,418.8L142.2,418.8z M93.7,344.1
		v-63.3H67c6.8,21.2,15.1,41.4,25.2,60.4C92.7,342.2,93.2,343.2,93.7,344.1L93.7,344.1z M93.7,344.1L93.7,344.1L93.7,344.1z
		 M61.3,261.6h477.4c6.8-24.9,11.7-51,14.9-77.9H46.4C49.6,210.6,54.5,236.7,61.3,261.6L61.3,261.6z M61.3,261.6L61.3,261.6
		L61.3,261.6z M533,280.8h-26.7v63.3c0.5-0.9,1-1.9,1.5-2.8C517.8,322.2,526.1,302,533,280.8L533,280.8z M533,280.8L533,280.8
		L533,280.8z M482,385V280.8h-24.3v138C466.1,408.1,474.2,396.9,482,385L482,385z M482,385L482,385L482,385z M433.4,447.3V280.8
		h-24.3v190.9C417.4,464,425.5,455.8,433.4,447.3L433.4,447.3z M433.4,447.3L433.4,447.3L433.4,447.3z M384.9,493.1V280.8h-24.3
		v231.3C368.8,506,377,499.7,384.9,493.1L384.9,493.1z M384.9,493.1L384.9,493.1L384.9,493.1z M336.4,529V280.8h-24.3v263.4
		C320.3,539.3,328.4,534.2,336.4,529L336.4,529z M336.4,529L336.4,529L336.4,529z M555.6,164.6c3.2-34.2,3.8-69.6,2.6-105.4
		C458.4,94.2,375.4,82,300,46.9C224.6,82,141.6,94.2,41.7,59.2c-1.2,35.8-0.6,71.2,2.6,105.4H555.6L555.6,164.6z"/>
</g>
</svg>
