<?xml version="1.0" encoding="utf-8"?>
<!-- Generator: Adobe Illustrator 30.1.0, SVG Export Plug-In . SVG Version: 9.03 Build 0)  -->
<svg version="1.0" id="Layer_1" xmlns="http://www.w3.org/2000/svg" xmlns:xlink="http://www.w3.org/1999/xlink" x="0px" y="0px"
	 viewBox="0 0 500 500" style="enable-background:new 0 0 500 500;" xml:space="preserve">
<style type="text/css">
	.st0{fill:#DB0021;}
	.st1{fill:#FFFFFF;}
	.st2{fill:#1A171B;}
</style>
<g>
	<g id="XMLID_1_">
		<g>
			<path class="st0" d="M477.8,190.5l-447.4,131C15,301.7,5.9,276.9,5.9,250c0-64.4,52.4-116.9,116.9-116.9h254.4
				C419.9,133.1,457.4,156.2,477.8,190.5z"/>
		</g>
	</g>
	<path class="st1" d="M122.8,366.9h254.4c64.5,0,116.9-52.4,116.9-116.9c0-21.7-6-42.1-16.4-59.5l-447.4,131
		C51.8,349.1,85.2,366.9,122.8,366.9"/>
	<path class="st2" d="M5.9,250c0-64.5,52.5-116.9,116.9-116.9h254.4c64.5,0,116.9,52.4,116.9,116.9c0,64.4-52.4,116.9-116.9,116.9
		H122.8C58.3,366.9,5.9,314.5,5.9,250 M122.8,127.8C55.4,127.8,0.6,182.6,0.6,250c0,67.3,54.8,122.1,122.2,122.1h254.4
		c67.4,0,122.2-54.8,122.2-122.1c0-67.4-54.8-122.2-122.2-122.2H122.8z"/>
	<path class="st2" d="M296.2,228.3c-0.3,0.7-10.9,22.5-17.6,36.3c-5.3-11.2-14-29.5-18.2-38.4h34.8
		C297,226.2,296.5,227.5,296.2,228.3 M186.3,270.7c1.8-4.3,5.7-14,8.4-20.5c2.7,6.5,6.6,16.1,8.4,20.5H186.3z M421.1,316.7
		c0,0-15.3-32.3-15.3-32.3c-3.1-6.4-8.4-9.8-15-9.8l-18.9,0c0,0-12.7,0-16.6,0c-1.3,0-1.9-1-1.4-2l5-10.5l12.4-26.3
		c1.7-3.4,2.3-6.7,2.3-9.5c0-4.9-1.7-8.8-2.6-10.6c-0.2-0.3-21.4-43-21.4-43c-3.7-7.4-11-12-19.1-12H173.4c-5.8,0-10.9,3-14.2,8.2
		c-0.1,0.2-73.1,148.8-73.1,148.8c0,0,0,0,0,0c-3.5,7.1-1.5,12.4,0.1,15c3.2,5.2,8.8,7.1,13,7.1l20.7,0l20.7,0
		c11.3,0,15.5-7.9,17.7-12c5.6-9.9,6.4-11.2,7-12.1c0.4-0.7,1.3-0.9,3.1-0.9h53c1.7,0,2.6,0.2,3,0.9c0.6,0.9,1.3,2.2,7,12.1
		c2.2,4.2,6.5,12,17.8,12h157.6c5.4-0.1,10.2-2.8,13-7.4C422.9,327.5,423.4,321.5,421.1,316.7"/>
	<path class="st1" d="M210.6,276c-0.1,0.2-0.3,0.3-0.5,0.3h-30.7c-0.2,0-0.4-0.1-0.5-0.3c-0.2-0.2-0.2-0.5-0.1-0.8l15.3-38.9
		c0.1-0.3,0.3-0.5,0.6-0.5c0.3,0,0.5,0.2,0.6,0.5l15.4,38.9C210.7,275.5,210.7,275.8,210.6,276 M200.2,234.4
		c-0.9-2.3-3.1-3.8-5.5-3.8c-2.4,0-4.6,1.5-5.5,3.8l-15.3,38.9c-0.7,1.8-0.5,3.9,0.6,5.6c1.1,1.7,2.9,2.7,4.9,2.7H210
		c2,0,3.9-1,4.9-2.7c1.1-1.6,1.3-3.7,0.6-5.6L200.2,234.4z M408.8,325.2c-0.5,0.8-1.2,1.2-2.1,1.2c-2.4,0-47.6,0-134.5,0v-0.1
		c-2.6,0-4.3-2.3-5-3.3c-1.8-2.9-2.2-6.6-0.9-9.3l14.9-30.8l0.1-0.1l0-0.1l24.8-51.1c1.8-4,1.7-8.3-0.4-11.5c-1.8-2.9-5-4.6-8.6-4.6
		h-47.7l-19.9-42h101c3,0,5.8,1.8,7.2,4.6c6.9,13.7,20.2,40.3,21.1,42.4c1.2,2.7,2.2,5.6,0.4,9.6c-2.3,5.1-15.5,33-17,35.9
		c-2.9,5.9-3.7,11.2-1,15.5c1.9,3.1,5.5,5.9,9.8,5.9l39.7,0.1c1.2,0,2,0.2,3.1,2.4l15.2,32.2C409.5,322.9,409.4,324.2,408.8,325.2
		 M252,221h45.2c1.8,0,3.3,0.7,4.2,2.1c1.1,1.7,1.1,4.1,0,6.4l-22.9,47.3L252,221z M257.4,326.4l-8.1,0c-2.4,0-3.4,0-6.3-5.3
		l-7.5-12.8c-2.7-4.3-7.9-6.9-14-6.9h-53c-6,0-11.3,2.6-14,6.9l-7.5,12.8c-2.9,5.3-3.9,5.3-6.3,5.3l-41.3-0.1
		c-0.8,0-1.6-0.3-1.9-0.8c-0.1-0.1-0.1-0.3-0.1-0.4c0-0.4,0.2-1,0.5-1.7c2.5-4.9,69.7-142.2,72.6-148c0.9-1.5,2.2-1.7,2.9-1.7h50.3
		l51.8,109.1l-13.9,28.7c-2.1,4.3-1.6,9.9,1.2,14.4c0.1,0.2,0.3,0.3,0.4,0.5L257.4,326.4L257.4,326.4z M414,320l-15.3-32.3
		c-1.8-3.6-4.3-5.3-7.8-5.3l-39.7-0.1c-2.2,0-4.5-1.7-5.3-3.4c-1.4-2.8-0.8-6.2,1.3-10.3c1.5-2.9,14.8-30.9,17.1-36.1
		c2.9-6.5,0.6-11.5-0.4-13.9c-1.3-2.8-20.4-41-21.2-42.6c-2.3-4.6-6.9-7.5-11.9-7.5H173.4c-3,0-5.7,1.6-7.5,4.4
		c-0.8,1.7-70.3,143.4-72.7,148.2c-1.7,3.4-1.1,5.8-0.2,7.3c1.5,2.4,4.3,3.3,6.3,3.3c0,0,41.3,0.1,41.3,0.1c5.6,0,7.9-2.5,10.9-8.1
		l7.3-12.5c1.7-2.8,5.3-4.5,9.5-4.5h53c4.2,0,7.8,1.7,9.5,4.5l7.3,12.5c3,5.6,5.3,8.1,10.9,8.1h8.1c96.6,0,146.9,0,149.4,0
		c2.7,0,5-1.4,6.4-3.7C414.8,325.5,415.1,322.4,414,320"/>
</g>
</svg>
