<?xml version="1.0" encoding="utf-8"?>
<!-- Generator: Adobe Illustrator 22.1.0, SVG Export Plug-In . SVG Version: 6.00 Build 0)  -->
<svg version="1.1" id="Layer_1" xmlns="http://www.w3.org/2000/svg" xmlns:xlink="http://www.w3.org/1999/xlink" x="0px" y="0px"
	 viewBox="0 0 892 600" style="enable-background:new 0 0 892 600;" xml:space="preserve">
<style type="text/css">
	.st0{clip-path:url(#SVGID_2_);}
	.st4{fill:#939598;}
</style>
<title>Bahrein</title>
<g id="Layer_2_1_">
	<g>
		<defs>
			<path id="SVGID_1_" d="M30.9,0h830.1C878.2,0,892,13.8,892,30.9v538.1c0,17.1-13.8,30.9-30.9,30.9H30.9C13.8,600,0,586.2,0,569.1
				V30.9C0,13.8,13.8,0,30.9,0z"/>
		</defs>
		<clipPath id="SVGID_2_">
			<use xlink:href="#SVGID_1_"  style="overflow:visible;"/>
		</clipPath>
		<g class="st0">
			<path fill="#fff" d="M0 0h892v640H0"/>
    		<path fill="#ce1126" d="M640 0H96l110.7 48L96 96l110.7 48L96 192l110.7 48L96 288l110.7 48L96 384l110.7 48L96 480h544" transform="translate(110,0) scale(1.25)"/>
		</g>
	</g>
</g>
<g id="Layer_1_1_">
	<path class="st4" d="M861.1,6C874.8,6,886,17.2,886,30.9v538.1c0,13.8-11.2,24.9-24.9,24.9H30.9C17.2,594,6,582.8,6,569.1V30.9
		C6,17.2,17.2,6,30.9,6H861.1 M861.1,0H30.9C13.8,0,0,13.8,0,30.9c0,0,0,0,0,0v538.1C0,586.2,13.8,600,30.9,600h830.1
		c17.1,0,30.9-13.8,30.9-30.9V30.9C892,13.8,878.2,0,861.1,0z"/>
</g>
</svg>