<?xml version="1.0" encoding="utf-8"?>
<!-- Generator: Adobe Illustrator 23.0.3, SVG Export Plug-In . SVG Version: 6.00 Build 0)  -->
<svg version="1.2" baseProfile="tiny" id="Layer_1" xmlns="http://www.w3.org/2000/svg" xmlns:xlink="http://www.w3.org/1999/xlink"
	 x="0px" y="0px" viewBox="0 0 287.9 139" xml:space="preserve">
<path fill="#FFFFFF" d="M287.6,85.5c-1.2-7.1-5.8-17.5-21.5-26.9c-1.1-0.6-2.2-1.3-3.3-1.9c2.9-1,6-2,6-2L251.3,48
	c-1.5-0.6-3-1.1-4.6-1.6c1.1-1.2,2.4-2.4,2.4-2.4l-13.3-1.9c-5.8-0.8-10.3-1-13.8-0.9c0-0.6-0.1-1.1-0.1-1.5c0,0-2.2-16.7-2.2-16.7
	s-5.2,7-5.7,7.7c-1.1-1.8-2.3-3.5-3.8-5.2c0,0-14.4-16.3-14.4-16.3s0.6,4.8,1,8.6c-4.7-3.3-9.8-6.2-15.5-8.6
	c-23.1-9.9-52.4-12-80.3-5.7c-23.3,5.3-57,19.1-84.9,54.7L0,78.9l24.3-9.7c0.2-0.1,18.9-7.4,34.1-9.5c5.6-0.8,10-0.9,6.5,6.9
	c-2.8,6.1-9,15-9.1,15.1L43.5,99.3l20.3-7c9.8-3.4,18.5-5.1,22.9-5.2c1.6,0,1.9,1.1,1.4,2.2c-0.1,0.4-0.2,0.6-1.3,2.3l-12.7,18.2
	l20.9-7.5c15.1-5.4,35.1-9,42.2-6.3c0.6,0.2,2.5,1.2,0.6,4l-8.2,13c0,0,12.1-1.8,13.8-2.1c1,11.9,6.9,18.4,7.7,19.1l8.8,9l3.1-12.2
	c2.2-8.8,6.4-13.6,10.1-16.2c0,0,0.7,5,0.7,5l8.2-2.9c6.9-2.5,12.3-5.5,16.2-8.8c5.2-0.4,17.8-1.2,29.9,0
	c20.9,2.1,34.9-0.7,38.7-1.6c5.1-1.2,9.4,1,9.4,1l6.2,3.4l3.4-6.3c0.4-0.8,2.3-4.7,2.3-10.5C287.9,88.4,287.8,87,287.6,85.5"/>
<path fill="#9A7611" d="M284.7,86.7c-1-6.3-5.3-15.6-19.7-24.2c-3.9-2.3-8-4.3-12.3-5.9l5.1-1.7l-7-2.7c-3.5-1.4-7.1-2.5-10.9-3.4
	c0.7-0.7,1.5-1.5,1.5-1.5l-5.4-0.8c-8.3-1.2-14-1-17.4-0.7c0-0.7,0.1-1.5,0.1-2.3c0-1.1,0-2.2-0.2-3l-0.9-6.7c0,0-3.3,4.5-3.7,5.1
	c-1.1-3-2.9-6.7-6.1-10.4l-5.8-6.6l0.7,5.5c-5.2-4.9-12.5-10-22.4-14.2c-22.5-9.6-51-11.6-78.2-5.5C79.3,12.9,46.4,26.3,19,61.2
	L12.1,70l10.4-4.1c0.2-0.1,19.5-7.7,35.2-9.8c6.2-0.8,10.4-0.1,12,2.1c1.5,2,1,6-1.3,10.7c-3.1,6.4-9.4,15.6-9.5,15.7L53.7,92l8.7-3
	c11.4-4,25.8-6.9,29.2-4.7c0.8,0.5,1.2,1.1,1.3,1.9c0.5,2.8-1.9,7-2.7,8.2l-5.4,7.8l8.9-3.2c14.3-5.1,39.8-11,47.7-4.9
	c3.7,2.8,0.2,8.3,0.1,8.6l-3.5,5.6l6.5-1c0,0,1.6-0.2,3.2-0.5c0,0.5-0.1,1-0.1,1.5c0,12.6,6.4,19.3,6.7,19.6l3.8,3.9l1.3-5.2
	c3.7-14.7,12.5-19.8,17.3-21.5c0.1,1,0.8,5.7,0.8,5.7l3.5-1.3c8.5-3.1,13.3-6.5,16-9c3.9-0.3,18.3-1.4,32.2-0.1
	c20.4,2,33.9-0.7,37.6-1.5c6.8-1.6,12.2,1.3,12.3,1.4l2.7,1.5l1.4-2.7c0.1-0.2,1.8-3.5,1.8-8.6C285,89.3,284.9,88,284.7,86.7"/>
<path d="M263.2,65.6c-6-4.3-14.1-7.4-22-9.6c3.3-1.1,6.6-1,6.6-1c-5-1.9-10.3-3.1-15.2-3.9l1.8-1.6c-9-1.5-15.2-1.4-19-1
	c0.5-1.8,0.8-4.6,0.4-8.4c0,0-1.1,3.2-3.7,5.2c-0.3-4.2-1.7-10.3-6.2-14.4l0.8,7.4c-4-6-11.6-13.8-26.1-20.5
	C141.3-0.5,72.2,6.4,34.3,55.4c0,0,14.8-7.4,35.2-7.9c10.7-0.3,13.3,5.7,9.4,15.9C75,73.6,68.1,82.5,68.1,82.5s46.3-16.4,31.7,6.4
	c0,0,34.9-10.5,45.4,1.8c4.9,5.7-0.8,13.7-0.8,13.7l9.9-2.1c-3.2,12.6,2.4,20.6,2.4,20.6c4.1-16.4,18.3-20.8,23.4-21.7l1.1,4.5
	c8.5-3.1,12.4-6.3,14.7-9c17.9-2.8,30.1-0.4,43.9,0.3c20.1,1.1,30.5-2.4,33.8-2.4c2.4,0,5.3,2.1,5.3,2.1S287.2,82.6,263.2,65.6"/>
<path fill="#24135F" d="M169.7,19.4c-44.5-13.3-91-0.4-116.7,24.3c0,0,26-8.2,33.7-0.1c9.1,9.3-4.7,31.3-4.7,31.3l9-1.4
	c-0.6,0.1-1,0.1-1,0.1c7-24.5,13.3-33.1,17.6-37.3c2.5-3.1,7-5.2,10.5-6.4c-24,1.1-47.3,6.1-47.3,6.1C85.8,24.1,120.8,16,141,18
	c20.2,2.1,18.8,10.2,16.7,14.9c-1.7,3.8-9.9,8.9-17.7,10.5c8,1,12.6,7.2,9.7,13.4c-0.2,0.5-0.5,1-0.8,1.5c-8.6,2-16.2,5.3-22.4,8.8
	c-0.2,0.1-0.4,0.3-0.7,0.4c-0.3,0.2-0.6,0.3-0.9,0.5c-0.2,0.1-0.4,0.3-0.7,0.4c-0.3,0.2-0.5,0.3-0.8,0.5c-0.2,0.1-0.4,0.3-0.7,0.4
	c-0.3,0.2-0.5,0.3-0.8,0.5c-0.2,0.1-0.4,0.3-0.6,0.4c-0.2,0.2-0.5,0.3-0.7,0.5c-5.1,3.5-8.8,7-10.8,9.8c0,0,52.4-10.6,43.3,15.8
	l13.5-3.7c-1,1.7-2.5,3.6-4.5,5.9c-6.4,7.1-6,13.9-6,13.9s1.9-7.4,14-12.5c11-4.6,13.6-12.5,13.6-12.5s3.7,5.4,0.7,13.1
	c0,0,5.1-1.3,9.6-7.5c1.9-3.3,0-7.3-0.8-9.2c-6.9-3.7-18.3-10.7-8.6-13c-6-0.9-24.3-2.7-47.2,3.8c0,0,21.2-14.1,61.9-7.5
	c-11-6.6-35.1-6.3-35.1-6.3c8.4-2.1,17.4-2.1,26-1.2c-3.4-1-8.1-2.1-13.6-2.9c-8.4-1-16.4-0.5-23.7,0.8c8.3-8.6,23.4-7.5,23.4-7.5
	c-10.1-6.8-23.2-4.6-23.2-4.6c14.7-7.6,31.1-5,31.1-5c-5.1-6.8-17.3-8.3-17.3-8.3c24.1-1,32.5,11.7,32.5,11.7
	c-6-2.6-10.3-2.2-10.3-2.2s5.8,0.9,9.7,8.3c4.1,7.8,7.7,7.5,7.7,7.5S213.2,32.4,169.7,19.4"/>
<path fill="#FFFFFF" d="M134.9,17.7c-20.5-0.2-50.5,7.5-64.2,18.1c0,0,23.3-4.9,47.3-6.1c-3.6,1.2-8,3.3-10.5,6.4
	c-4.2,4.2-10.6,12.8-17.6,37.3c0,0,0.4,0,1-0.1c3-0.4,12-1.5,17.4-1.7l9-0.5c1,0,2,0,3-0.1c0.1-0.1,0.2-0.2,0.3-0.2
	c0.2-0.2,0.5-0.3,0.7-0.5c0.2-0.1,0.4-0.3,0.6-0.4c0.2-0.2,1.2-0.8,1.4-0.9c0.3-0.2,0.5-0.3,0.8-0.5c0.2-0.1,0.4-0.3,0.7-0.4
	c0.3-0.2,0.6-0.3,0.9-0.5c0.2-0.1,0.4-0.2,0.7-0.4c6.2-3.5,13.8-6.7,22.4-8.8c0.3-0.5,0.6-1,0.8-1.5c2.9-6.2-1.7-12.4-9.7-13.4
	c7.7-1.6,16-6.8,17.7-10.5c2.1-4.7,3.4-12.8-16.7-14.9C139.1,17.8,137.1,17.7,134.9,17.7L134.9,17.7z M135.8,29.1
	c3.9,0.4,5.7,3.4,3.3,7.7c-1.1,1.9-3.3,3.5-6.2,4.4c0.3-0.5,0.7-1.1,1-1.8c2.5-5.3,0.6-7.7-4.1-7.7c1.3-1.9,2-2.5,2-2.5L135.8,29.1z
	 M121.7,47.7h6c4.8,0,7.5,2.7,4.5,9.1c-1.8,3.9-5.1,5.7-8.2,6.5c1.2-1,2.2-2.2,2.9-3.9c3-6.4,0.3-9.1-4.5-9.1h-2
	C120.8,49.5,121.3,48.6,121.7,47.7L121.7,47.7z"/>
<path fill="#24135F" d="M129.8,31.6c-1.2,1.9-3,5-5.3,10.2h3.6c1.7,0,3.3-0.2,4.8-0.7c0.3-0.5,0.7-1.1,1-1.8
	C136.4,34,134.5,31.6,129.8,31.6L129.8,31.6z M120.4,50.3c-3.3,7-5.4,13.5-5.4,13.5h5.2c1.1,0,2.4-0.1,3.8-0.5
	c1.2-1,2.2-2.2,2.9-3.9c3-6.4,0.3-9.1-4.5-9.1L120.4,50.3z"/>
<path fill="#9A7611" d="M133,20.7c-3,0-6.6,0.2-10.5,0.7C118.3,22,98.2,24,81,32.4c15-3.7,32.7-5,43.9-5.4c4.7-0.2,9.9,0,9.9,0
	c3.4,0,6.5,1,7.7,2.9c1.2,2,1.6,4.5-0.7,7.4c-1.3,1.6-2.8,3.4-7.1,5.1l5-1.1c7.5-1.6,14.3-5.8,15.9-9.1c1.1-2.4,1.2-4.3,0.3-5.8
	c-1.9-3.1-6.5-4.9-14.7-5.3C141.2,21.1,137.9,20.7,133,20.7L133,20.7z M126.2,31c-2.3,0-10,1.2-15.9,6.9
	c-5.5,4.9-11.5,17.6-16.3,32.8c8.2-0.9,15.6-1.3,15.6-1.3l7.8-0.3c2,0,4.2-0.1,6.4-0.4c6-3.7,13.5-7.2,22-9.6c0.5-0.7,1-1.5,1.4-2.3
	c0.9-1.8,1-4.1,0.3-5.9c-0.9-2.7-2.8-4.6-8.5-5.9c-7.6-1.8-18.7-1-18.7-1c2.6-6.2,4.5-9.8,6.4-13C126.5,31,126.4,31,126.2,31
	L126.2,31z M119.5,45.6h8.3c4.3,0,6.2,1.8,7.1,3.2c1.4,2.3,1.2,5.4-0.6,9.3c-3.4,7.5-11.5,8.2-14,8.2l-9.4,0.4
	C115,53.8,119.5,45.6,119.5,45.6L119.5,45.6z"/>
<path fill="#C8102E" d="M187.4,44.3c-0.8,0-1.7,0.1-2.6,0.4c-3.4,1.1-5.1,4.4-3.8,7.3c1.2,3,5,4.5,8.4,3.4c3.4-1.1,5.1-4.4,3.8-7.3
	C192.3,45.8,189.9,44.4,187.4,44.3L187.4,44.3z M189.7,47.6c1.4,0,2.7,0.9,3.2,2.2c0.7,1.8-0.3,3.8-2.2,4.4c-1.9,0.7-3.9-0.2-4.6-2
	c-0.7-1.8,0.3-3.7,2.2-4.4C188.7,47.7,189.2,47.6,189.7,47.6L189.7,47.6z"/>
<path fill="#FFFFFF" d="M187.7,45.8c-0.6,0-1.3,0.1-1.9,0.3c-2.6,0.8-4,3.3-3,5.6c0.6,1.4,1.9,2.3,3.4,2.6c-0.8-0.5-1.4-1.1-1.7-2
	c-0.9-2.2,0.4-4.7,3-5.6c1-0.3,2-0.4,3-0.2C189.7,46.2,188.8,45.9,187.7,45.8L187.7,45.8z M218.9,56.5l6.2,5l-11.6-1l9.2,6.6
	c-9.8-3.2-36.3-11.9-58.3-6.4c0,0,24.1-0.3,35.1,6.3c-40.7-6.6-61.9,7.5-61.9,7.5c22.9-6.5,41.2-4.7,47.2-3.8
	c-9.6,2.3,1.7,9.3,8.6,13c0.8,1.9,2.7,5.9,0.8,9.2c0,0,2.1-2.7,3.6-6.6l5.6,4.5c16.8-2.1,29.2,1.5,43.1,1.4c10-0.1,17.5-1,23.4-2.3
	c-21.8-9.3-64.4-13.3-71-12.8c0,0-3.6,1,0.5,5c-5.8-2.3-11.6-6.6-12-8.8c-0.4-2.3,3.8-3,13.9-1.8c37.6,4.4,70.1,10.7,74.5,19.9
	c0,0,2.3-11.5-16.5-22.5C243.5,58.3,218.9,56.5,218.9,56.5L218.9,56.5z"/>
</svg>
