<?xml version="1.0" encoding="UTF-8"?>
<svg id="Layer_1" xmlns="http://www.w3.org/2000/svg" version="1.1" viewBox="0 0 480 418">
  <!-- Generator: Adobe Illustrator 29.6.0, SVG Export Plug-In . SVG Version: 2.1.1 Build 207)  -->
  <defs>
    <style>
      .st0 {
        fill: #037932;
      }

      .st1 {
        fill: #c09d52;
      }

      .st2 {
        fill: #fefefe;
      }

      .st3 {
        fill: #282525;
      }
    </style>
  </defs>
  <path class="st1" d="M241,1.5c3.2,3.9,5.2,6.2,8.9,9.5,20.6,17.5,52.7,15.1,69.8-6,.8-1,2.4-3.2,3.7-3.5,1.6.6,3.2,2.6,4.4,3.8,17,17.7,45.9,18.5,64.1,2.1,1.5-1.4,2.7-2.5,4.7-1.5.7,2.6.4,14.4.4,17.9v31.4s0,145.3,0,145.3v48.6s0,13,0,13c0,1.5,0,8.6-.3,9.4-1.7,3.9-4.8,10.5-7.7,13.4-4.1,4.1-8.3,7.7-12.5,11.4l-20,17.7-77.8,68.7-23.6,20.8c-4.3,3.8-10.3,8.8-14.2,13h-.4c-2.1-3-5.7-5.5-8.4-7.9l-13-11.6-45.7-40.4-19.8-17.5c-1.1-.9-5.6-5.3-6.7-5.8-2.3-2.4-5.4-5.1-7.9-7.3-4.1-3.2-8.4-7.5-12.4-10.9-1.4-1.1-3.8-3.6-5.2-4.4-2.4-2.2-5.7-5.4-8.2-7.3-6.8-6.2-14.2-12.1-20.7-18.6-3.6-3.6-7.9-12.4-8.2-17.8,0-4.2,0-9.2,0-13.5v-25.1s0-75.7,0-75.7V55.2c0-15.9-.4-33.4,0-49.1,1.5-.4,2.3-.9,3.6,0,2.9,1.9,5.4,4.5,8.4,6.3,18.9,11.5,44,8,58.7-8.6.8-.8,2.4-3.2,3.6-2.1,2.8,2.5,4.7,5.6,7.5,8.2,19.5,17.3,49.2,16.8,67.9-1.2,2.4-2.3,4.4-4.9,6.7-7.2Z"/>
  <path class="st2" d="M240.6,14.4c.6.2,5.9,5.1,7.3,6.1,4.4,2.9,7.7,4.7,12.5,6.8-.3,6.6,0,14.4,0,21.1v38s0,115.2,0,115.2v162.5c0,7.6-.2,15.9.1,23.4-6.3,5.8-13,11.5-19.4,17.2h-.4c-6.4-5.6-12.8-11.5-19.2-17.1v-245.9s0-114.6,0-114.6c6.9-2.6,14.3-7.3,19.3-12.7Z"/>
  <path class="st3" d="M238.8,164.5c1.6.2,4,.1,5.6.1,3.3,8.6,8.4,20.1,12.2,28.6-2.3,0-4.4,0-6.7,0-.6-1.8-1.7-4.4-2.5-6.3h-3.8c-2.8,0-5.6,0-8.4,0-.6,2.1-1.6,4.5-2.6,6.5-2.4-.2-3.9-.2-6.3-.2,1.6-3.2,3.2-7.4,4.6-10.7l7.8-18Z"/>
  <path class="st2" d="M241.4,172.5c.7.4,3.4,7.5,4,8.9h-3.4c0,0-4.2,0-4.2,0,.9-2.7,2.5-6.2,3.6-8.9Z"/>
  <path class="st0" d="M178.2,27.1c13.7,4.8,25,5.5,39.1,1.3v352.5c0,.9,0,1.6-.1,2.6h-.3c-3.9-3-9.7-8.5-13.6-11.9l-25.2-22.2c.2-3.2,0-8.5,0-11.8v-22.4s0-71.3,0-71.3V27.1Z"/>
  <path class="st0" d="M302.7,27.3h.5c.4,1.1.2,13.3.2,15.2v41s0,176.9,0,176.9v57.9c0,9.8-.3,21.6,0,31.2l-27.1,23.9c-1.6,1.4-10.4,9.4-11.7,10.3l-.3-.2v-.7s0-354.2,0-354.2c13.3,4,25.4,3.4,38.4-1.2Z"/>
  <path class="st2" d="M323.7,13.6c.7.2,2.2,1.6,2.9,2.2,6,5,12.5,8,20,10.2v177.1s0,69.8,0,69.8c0,12.7-.2,25.9,0,38.5l-27,23.8-12.5,11c.4-2.9.2-8.7.2-11.9v-21.4s0-71.1,0-71.1V100.2c0-24.7.3-50.2,0-74.9,5.4-2.1,12.3-7.7,16.3-11.7Z"/>
  <path class="st3" d="M314.4,164.8c6.9.3,23.9-2.9,22.4,8.9-.3,2.1-2,3.5-3.6,4.6,4.9,2.3,6.3,5.3,4.5,10.6-4.1,6.4-16.4,4-23.3,4.4-.1-9.4,0-19.1,0-28.6Z"/>
  <path class="st2" d="M320.5,181.6c3.6,0,14.7-1.5,10.9,5.3-2.5,1.2-7.9.8-10.8.8v-6.1Z"/>
  <path class="st2" d="M320.5,170.3c2.8,0,13.6-.8,9.3,5-2.6,1.5-6.2,1.1-9.3,1.1,0-2,0-4.1,0-6.1Z"/>
  <path class="st2" d="M157.6,13.6c.5.2,2.3,1.9,2.8,2.4,4.2,3.7,8.9,7,13.9,9.5-.4,15.3,0,32.4,0,47.9v91s0,117.7,0,117.7c0,21.1-.3,42.9,0,63.9l-11.8-10.4-16.7-14.8c-3.4-3-7.2-6.5-10.7-9.4V25.8c7.7-1.7,16.6-6.9,22.4-12.3Z"/>
  <path class="st3" d="M155.6,164.4c5.3,0,7.6.8,11.6,4.2-1.2,1.6-2.7,3.3-4.1,4.8-7.1-7.7-18-.8-14.8,8.7,1.5,4.7,6.2,6.8,10.8,5.2,2-.7,2.5-1.6,4.1-2.7h.5c0,.1,3.7,4.1,3.7,4.1-3,2.8-5.9,4.7-10.1,5-19.8,1.5-22.5-28-1.8-29.3Z"/>
  <path class="st0" d="M387.5,20.8c.8.3.5,1.8.5,2.5,0,17.4,0,34.9,0,52.2v124.4s0,41.7,0,41.7c0,7.7.2,15.4,0,23.1,0,2.3-.2,5-.9,7.2-.7,2.3-2.1,4.7-3.7,6.4-2.5,2.8-31.1,28.2-32.9,29.2V26.8c12.6,2.4,25.9.2,37-6Z"/>
  <path class="st0" d="M93.7,20.7c12.6,6.5,23.3,8.4,37.4,6.1-.2,10.5,0,21.4,0,31.9v60.9s0,186.9,0,186.9c0,.3,0,.3-.2.6-1.7-.3-29.2-25.7-32.6-28.9-4.9-4.5-4.6-13.4-4.6-20v-15s0-50.6,0-50.6V20.7Z"/>
</svg>