<?xml version="1.0" encoding="utf-8"?>
<!-- Generator: Adobe Illustrator 15.1.0, SVG Export Plug-In . SVG Version: 6.00 Build 0)  -->
<!DOCTYPE svg PUBLIC "-//W3C//DTD SVG 1.1//EN" "http://www.w3.org/Graphics/SVG/1.1/DTD/svg11.dtd">
<svg version="1.1" id="Camada_2" xmlns="http://www.w3.org/2000/svg" xmlns:xlink="http://www.w3.org/1999/xlink" x="0px" y="0px"
	 width="340px" height="450px" viewBox="0 0 340 450" enable-background="new 0 0 340 450" xml:space="preserve">
<g>
	<path fill="#FFFFFF" d="M168.563,443.197C122.437,425.443,6.5,341.301,6.5,247.964v-242h243.049v4
		c0,56.788,23.163,79.952,79.951,79.952h4v158.048c0,93.339-115.938,177.479-162.063,195.233L170,443.75L168.563,443.197z"/>
	<path fill="#FFFFFF" d="M245.549,9.964c0,59.167,24.785,83.952,83.951,83.952c0,66.68,0,149.502,0,154.048
		c0,90.5-113.166,173.668-159.5,191.501C123.667,421.632,10.5,338.464,10.5,247.964c0-7.667,0-238,0-238H170H245.549 M253.549,1.964
		h-8H170H10.5h-8v8v238c0,52.454,35.183,98.905,64.696,128.638c35.178,35.435,76.459,61.296,99.93,70.329l2.874,1.105l2.874-1.105
		c23.47-9.033,64.752-34.896,99.929-70.329c29.515-29.731,64.696-76.184,64.696-128.638V93.916v-8h-8
		c-54.655,0-75.95-21.295-75.95-75.952V1.964L253.549,1.964z"/>
</g>
<g>
	<g>
		<line fill="none" stroke="#DE1F4B" stroke-width="14" stroke-miterlimit="10" x1="227.666" y1="405.268" x2="10.5" y2="197.125"/>
		<line fill="none" stroke="#DE1F4B" stroke-width="7" stroke-miterlimit="10" x1="240.836" y1="394.89" x2="10.5" y2="174.125"/>
	</g>
	<g>
		<line fill="none" stroke="#DE1F4B" stroke-width="14" stroke-miterlimit="10" x1="116.307" y1="9.964" x2="329.5" y2="214.299"/>
		<line fill="none" stroke="#DE1F4B" stroke-width="7" stroke-miterlimit="10" x1="92.309" y1="9.964" x2="329.5" y2="237.298"/>
	</g>
</g>
<g>
	<circle fill="#FFFFFF" stroke="#DE1F4B" stroke-width="4" stroke-miterlimit="10" cx="124.667" cy="330.964" r="47.667"/>
	
		<ellipse transform="matrix(-0.1532 -0.9882 0.9882 -0.1532 -186.4806 538.1349)" fill="none" stroke="#DE1F4B" stroke-width="4" stroke-miterlimit="10" cx="137.331" cy="348.968" rx="8.667" ry="11.333"/>
	<path fill="none" stroke="#DE1F4B" stroke-width="4" stroke-miterlimit="10" d="M128.661,343.958
		c-20.828-17.494-30.968-39.833-31.397-51.997"/>
	<path fill="none" stroke="#DE1F4B" stroke-width="4" stroke-miterlimit="10" d="M136.667,340.224
		c1-16.761,1.275-30.093-10.612-56.927"/>
	<path fill="none" stroke="#DE1F4B" stroke-width="4" stroke-miterlimit="10" d="M144.867,342.016
		c8.133-13.22,12.393-25.662,9.68-48.19"/>
	<path fill="none" stroke="#DE1F4B" stroke-width="4" stroke-miterlimit="10" d="M148.533,347.228
		c17.634-4.432,23.521-21.438,23.521-21.438"/>
	<path fill="none" stroke="#DE1F4B" stroke-width="4" stroke-miterlimit="10" d="M145.494,354.457
		c2.173,3.174,10.381,12.529,10.381,12.529"/>
	<path fill="none" stroke="#DE1F4B" stroke-width="4" stroke-miterlimit="10" d="M135.65,357.676
		c-0.816,4.455-6.146,17.58-19.064,20.269"/>
	<path fill="none" stroke="#DE1F4B" stroke-width="4" stroke-miterlimit="10" d="M129.484,355.714
		c-6.15,3.25-18.305,9.368-42.728,4.144"/>
	<path fill="none" stroke="#DE1F4B" stroke-width="4" stroke-miterlimit="10" d="M126.118,348.964
		c-5.618,0.25-33.313-4.042-48.133-27.688"/>
</g>
<path fill="none" stroke="#DE1F4B" stroke-width="10" stroke-miterlimit="10" d="M245.549,9.964H170H10.5c0,0,0,230.333,0,238
	c0,90.5,113.167,173.668,159.5,191.501c46.334-17.833,159.5-101.001,159.5-191.501c0-4.546,0-87.368,0-154.048
	C270.334,93.916,245.549,69.13,245.549,9.964z"/>
<g>
	<g>
		<g>
			<path fill="#DE1F4B" d="M260.5,363.796c-4.779,0-8.667-3.888-8.667-8.666s3.888-8.667,8.667-8.667
				c4.777,0,8.666,3.889,8.666,8.667S265.278,363.796,260.5,363.796z"/>
			<path fill="#DE1F4B" d="M260.5,346.963c4.51,0,8.166,3.656,8.166,8.167s-3.656,8.166-8.166,8.166
				c-4.512,0-8.167-3.655-8.167-8.166S255.989,346.963,260.5,346.963 M260.5,345.963c-5.056,0-9.167,4.112-9.167,9.167
				s4.111,9.166,9.167,9.166c5.054,0,9.166-4.111,9.166-9.166S265.554,345.963,260.5,345.963L260.5,345.963z"/>
		</g>
		<g>
			<path fill="#DE1F4B" d="M223.666,346.13c-9.282-0.001-16.833-7.553-16.833-16.834V211.63c0-9.281,7.552-16.834,16.834-16.834
				h24.666c9.282,0,16.833,7.552,16.833,16.833v33.084h-17.333v-32.584h-23.666v116.667h23.666v-32.584h17.333v33.084
				c0,9.282-7.551,16.834-16.833,16.834H223.666L223.666,346.13z"/>
			<path fill="#DE1F4B" d="M248.333,195.296c9.021,0,16.333,7.313,16.333,16.333v32.584h-16.333v-32.584h-24.666v117.667h24.666
				v-32.584h16.333v32.584c0,9.021-7.313,16.334-16.333,16.334h-24.667c-9.021-0.001-16.333-7.313-16.333-16.334V211.63
				c0-9.021,7.313-16.334,16.334-16.334H248.333 M248.333,194.296h-24.666c-9.559,0-17.334,7.776-17.334,17.334v117.666
				c0,9.558,7.774,17.333,17.333,17.334h24.667c9.558,0,17.333-7.775,17.333-17.334v-32.584v-1h-1h-16.333h-1v1v31.584h-22.666
				V212.629h22.666v31.584v1h1h16.333h1v-1v-32.584C265.666,202.072,257.891,194.296,248.333,194.296L248.333,194.296z"/>
		</g>
	</g>
	<g>
		<g>
			<path fill="#DE1F4B" d="M130.833,270.13v-134.5c0-9.281,7.551-16.833,16.833-16.833h41.5v49.917h-17.333V136.13h-23.667v49.667
				h22.667v17.333h-22.667v67H130.833z"/>
			<path fill="#DE1F4B" d="M188.666,119.296v48.917h-16.333v-32.584h-24.667v50.667h22.667v16.333h-22.667v67h-16.333v-134
				c0-9.021,7.313-16.333,16.333-16.333H188.666 M189.666,118.296h-1h-41c-9.559,0-17.333,7.776-17.333,17.333v134v1h1h16.333h1v-1
				v-66h21.667h1v-1v-16.333v-1h-1h-21.667v-48.667h22.667v31.584v1h1h16.333h1v-1v-48.917V118.296L189.666,118.296z"/>
		</g>
		<g>
			<path fill="#DE1F4B" d="M180.5,285.796c-4.779,0-8.667-3.888-8.667-8.666s3.888-8.667,8.667-8.667
				c4.777,0,8.666,3.889,8.666,8.667S185.278,285.796,180.5,285.796z"/>
			<path fill="#DE1F4B" d="M180.5,268.963c4.51,0,8.166,3.656,8.166,8.167s-3.656,8.166-8.166,8.166
				c-4.512,0-8.167-3.655-8.167-8.166S175.989,268.963,180.5,268.963 M180.5,267.963c-5.056,0-9.167,4.112-9.167,9.167
				s4.111,9.166,9.167,9.166c5.054,0,9.166-4.111,9.166-9.166S185.554,267.963,180.5,267.963L180.5,267.963z"/>
		</g>
	</g>
	<g>
		<g>
			<path fill="#DE1F4B" d="M38.833,180.129V28.796h41.5c9.282,0,16.833,7.552,16.833,16.833v46.707L85.04,104.463l12.126,12.126
				v46.707c0,9.282-7.551,16.833-16.833,16.833H38.833z M79.833,162.796v-49.667H56.167v49.667H79.833z M79.833,95.796V46.129
				H56.167v49.667H79.833z"/>
			<path fill="#DE1F4B" d="M80.333,29.296c9.021,0,16.333,7.313,16.333,16.333v46.5l-12.333,12.333l12.333,12.333v46.5
				c0,9.021-7.313,16.333-16.333,16.333h-41V29.296H80.333 M55.667,96.296h24.667V45.629H55.667V96.296 M55.667,163.296h24.667
				v-50.667H55.667V163.296 M80.333,28.296h-41h-1v1v150.333v1h1h41c9.558,0,17.333-7.775,17.333-17.333v-46.5v-0.414l-0.293-0.293
				l-11.626-11.626l11.626-11.626l0.293-0.293V92.13v-46.5C97.667,36.072,89.891,28.296,80.333,28.296L80.333,28.296z
				 M56.667,46.629h22.667v48.667H56.667V46.629L56.667,46.629z M56.667,113.629h22.667v48.667H56.667V113.629L56.667,113.629z"/>
		</g>
		<g>
			<path fill="#DE1F4B" d="M102.5,212.796c-4.779,0-8.667-3.888-8.667-8.667c0-4.778,3.888-8.667,8.667-8.667
				c4.778,0,8.667,3.889,8.667,8.667C111.167,208.908,107.279,212.796,102.5,212.796z"/>
			<path fill="#DE1F4B" d="M102.5,195.963c4.51,0,8.167,3.656,8.167,8.167s-3.656,8.167-8.167,8.167
				c-4.512,0-8.167-3.655-8.167-8.167C94.333,199.619,97.989,195.963,102.5,195.963 M102.5,194.963
				c-5.056,0-9.167,4.112-9.167,9.167s4.111,9.167,9.167,9.167c5.054,0,9.167-4.111,9.167-9.167
				C111.667,199.075,107.554,194.963,102.5,194.963L102.5,194.963z"/>
		</g>
	</g>
</g>
<g>
	<g>
		<polygon fill="#F2BB0C" points="310.147,69.317 296.489,67.154 308.811,60.876 306.646,47.219 316.425,56.996 328.744,50.719 
			322.468,63.04 332.245,72.817 318.588,70.654 312.312,82.974 		"/>
		<path fill="#FFFFFF" d="M308.115,50.102l8.115,8.114l10.226-5.21l-5.21,10.227l8.115,8.115l-11.336-1.795l-5.209,10.226
			l-1.796-11.335l-11.336-1.795l10.227-5.21L308.115,50.102 M305.178,44.335l0.963,6.08l1.568,9.899l-8.933,4.551l-5.483,2.795
			l6.079,0.963l9.9,1.568l1.568,9.899l0.964,6.08l2.794-5.484l4.549-8.932l9.901,1.568l6.079,0.963l-4.354-4.353l-7.088-7.087
			l4.551-8.933l2.794-5.483l-5.483,2.794l-8.932,4.55l-7.088-7.087L305.178,44.335L305.178,44.335z"/>
	</g>
	<g>
		<polygon fill="#F2BB0C" points="310.147,29.317 296.489,27.154 308.811,20.876 306.646,7.219 316.425,16.996 328.744,10.719 
			322.468,23.04 332.245,32.817 318.588,30.654 312.312,42.974 		"/>
		<path fill="#FFFFFF" d="M308.115,10.102l8.115,8.114l10.226-5.21l-5.21,10.227l8.115,8.115l-11.336-1.795l-5.209,10.226
			l-1.796-11.335l-11.336-1.795l10.227-5.21L308.115,10.102 M305.178,4.335l0.963,6.08l1.568,9.899l-8.933,4.551l-5.483,2.795
			l6.079,0.963l9.9,1.568l1.568,9.899l0.964,6.08l2.794-5.484l4.549-8.932l9.901,1.568l6.079,0.963l-4.354-4.353l-7.088-7.087
			l4.551-8.933l2.794-5.483l-5.483,2.794l-8.932,4.55l-7.088-7.087L305.178,4.335L305.178,4.335z"/>
	</g>
	<g>
		<polygon fill="#F2BB0C" points="270.147,29.317 256.489,27.154 268.811,20.876 266.646,7.219 276.425,16.996 288.745,10.719 
			282.468,23.04 292.246,32.817 278.588,30.654 272.312,42.974 		"/>
		<path fill="#FFFFFF" d="M268.116,10.102l8.114,8.114l10.227-5.21l-5.21,10.227l8.114,8.115l-11.336-1.795l-5.209,10.226
			l-1.796-11.335l-11.336-1.795l10.228-5.21L268.116,10.102 M265.178,4.335l0.963,6.08l1.568,9.899l-8.933,4.551l-5.483,2.795
			l6.08,0.963l9.899,1.568l1.568,9.899l0.964,6.08l2.794-5.484l4.549-8.932l9.901,1.568l6.079,0.963l-4.354-4.353l-7.088-7.087
			l4.551-8.933l2.795-5.483l-5.484,2.794l-8.931,4.55l-7.089-7.087L265.178,4.335L265.178,4.335z"/>
	</g>
</g>
<g enable-background="new    ">
	<path fill="#DE1F4B" d="M213.374,48.135l-15.778,15.778l-3.938-3.938l8.459-8.46c1.223-1.221,1.928-1.984,2.115-2.29
		c0.188-0.305,0.215-0.653,0.078-1.042c-0.136-0.391-0.66-1.04-1.569-1.949l-0.39-0.39l1.84-1.84
		c2.313,1.493,4.601,2.097,6.863,1.81L213.374,48.135z"/>
	<path fill="#DE1F4B" d="M215.592,64.006c0.344,0.813,0.44,1.606,0.286,2.384c-0.152,0.776-1.103,2.038-2.853,3.788
		c-1.273,1.273-2.336,2.09-3.188,2.447s-1.828,0.373-2.93,0.045s-2.254-1.093-3.455-2.295c-1.17-1.17-1.91-2.281-2.223-3.334
		c-0.311-1.053-0.309-2.033,0.006-2.939c0.315-0.905,1.186-2.071,2.609-3.495c0.955-0.956,1.857-1.711,2.706-2.268
		c0.848-0.555,1.87-0.658,3.065-0.308c-0.253-0.721-0.248-1.457,0.02-2.211c0.266-0.754,0.791-1.523,1.576-2.309
		c1.357-1.357,2.752-1.998,4.185-1.923s2.899,0.862,4.399,2.364c1.735,1.734,2.573,3.294,2.516,4.678
		c-0.059,1.383-0.756,2.744-2.094,4.081c-0.851,0.851-1.572,1.354-2.167,1.514S216.639,64.31,215.592,64.006z M210.285,65.043
		c0.604-0.604,0.943-1.066,1.02-1.389c0.073-0.321-0.021-0.615-0.289-0.881c-0.26-0.261-0.543-0.352-0.848-0.273
		s-0.767,0.426-1.383,1.043l-2.047,2.047c-0.683,0.682-1.058,1.184-1.127,1.506c-0.068,0.32,0.035,0.619,0.308,0.892
		c0.278,0.278,0.566,0.368,0.862,0.269c0.295-0.102,0.791-0.499,1.486-1.194L210.285,65.043z M216.766,58.406
		c0.533-0.533,0.839-0.932,0.917-1.198c0.077-0.267-0.017-0.533-0.282-0.8c-0.261-0.26-0.529-0.342-0.805-0.248
		c-0.277,0.094-0.668,0.395-1.174,0.902l-1.199,1.198c-0.475,0.475-0.751,0.854-0.828,1.14c-0.079,0.286,0.006,0.553,0.252,0.801
		c0.26,0.26,0.525,0.345,0.795,0.256c0.27-0.086,0.684-0.41,1.243-0.969L216.766,58.406z"/>
	<path fill="#DE1F4B" d="M232.948,67.103L211.897,78.82l-2.981-2.982l21.081-11.686L232.948,67.103z"/>
	<path fill="#DE1F4B" d="M237.418,82.859l-5.264,5.264c-1.195,1.195-2.131,2-2.807,2.416s-1.455,0.656-2.339,0.722
		s-1.718-0.087-2.505-0.458c-0.785-0.371-1.537-0.912-2.252-1.627c-0.941-0.942-1.615-1.834-2.021-2.676s-0.563-1.678-0.473-2.51
		c0.092-0.832,0.313-1.58,0.668-2.246c0.354-0.666,1.087-1.556,2.197-2.666l5.507-5.507c1.448-1.448,2.659-2.409,3.63-2.88
		c0.972-0.471,2.047-0.553,3.227-0.243c1.18,0.309,2.299,0.992,3.357,2.051c0.864,0.864,1.486,1.789,1.867,2.772
		c0.379,0.984,0.521,1.864,0.424,2.637c-0.099,0.773-0.359,1.493-0.785,2.158C239.424,80.733,238.614,81.664,237.418,82.859z
		 M234.806,77.596c0.839-0.839,1.322-1.403,1.452-1.696c0.131-0.293,0.046-0.588-0.253-0.887c-0.292-0.293-0.599-0.373-0.916-0.243
		c-0.318,0.13-0.884,0.601-1.696,1.413l-7.699,7.699c-0.916,0.916-1.424,1.512-1.525,1.789c-0.1,0.275-0.004,0.561,0.287,0.852
		c0.293,0.293,0.596,0.374,0.907,0.244c0.312-0.129,0.854-0.581,1.627-1.354L234.806,77.596z"/>
	<path fill="#DE1F4B" d="M232.584,90.519l3.938,3.938c-0.734,0.734-1.188,1.207-1.359,1.418c-0.173,0.212-0.254,0.452-0.244,0.722
		s0.135,0.524,0.375,0.765c0.201,0.201,0.429,0.306,0.683,0.313c0.253,0.006,0.485-0.08,0.697-0.259
		c0.211-0.179,0.611-0.563,1.202-1.155l2.516-2.514c-0.617,0.228-1.227,0.252-1.827,0.072c-0.601-0.178-1.19-0.557-1.77-1.135
		c-0.722-0.721-1.163-1.553-1.325-2.495s-0.045-1.761,0.352-2.456s1.059-1.508,1.987-2.437l1.257-1.257
		c1.105-1.105,1.971-1.883,2.598-2.335c0.627-0.45,1.352-0.725,2.174-0.818c0.821-0.094,1.682,0.054,2.577,0.444
		c0.896,0.39,1.771,1.01,2.622,1.861c1.053,1.052,1.771,2.063,2.154,3.03c0.383,0.969,0.485,1.912,0.307,2.831
		c-0.179,0.92-0.541,1.711-1.086,2.373c-0.546,0.663-1.688,1.861-3.422,3.597l-2.193,2.192c-1.877,1.878-3.158,3.107-3.844,3.689
		c-0.686,0.581-1.511,0.955-2.476,1.121c-0.965,0.165-1.929,0.049-2.896-0.352c-0.964-0.399-1.895-1.047-2.791-1.943
		c-1.111-1.111-1.842-2.199-2.188-3.261c-0.348-1.063-0.351-2.073-0.011-3.03C230.932,92.48,231.596,91.508,232.584,90.519z
		 M241.444,89.535c-0.663,0.663-0.986,1.158-0.971,1.486c0.018,0.328,0.115,0.584,0.298,0.766c0.272,0.273,0.571,0.373,0.896,0.302
		s0.776-0.396,1.354-0.975l2.855-2.856c0.695-0.695,1.09-1.209,1.185-1.544s0.002-0.642-0.277-0.921
		c-0.169-0.169-0.428-0.262-0.774-0.277c-0.348-0.018-0.886,0.339-1.613,1.066L241.444,89.535z"/>
	<path fill="#DE1F4B" d="M262.352,96.508l-21.051,11.716l-2.982-2.981l21.082-11.687L262.352,96.508z"/>
	<path fill="#DE1F4B" d="M268.946,103.707l-15.777,15.777l-3.938-3.938l8.459-8.459c1.222-1.222,1.927-1.984,2.115-2.29
		c0.188-0.306,0.215-0.653,0.078-1.042c-0.137-0.391-0.66-1.04-1.57-1.949l-0.389-0.391l1.84-1.84
		c2.313,1.494,4.601,2.098,6.863,1.811L268.946,103.707z"/>
	<path fill="#DE1F4B" d="M258.889,116.824l3.938,3.938c-0.734,0.734-1.188,1.207-1.359,1.418c-0.174,0.211-0.254,0.451-0.244,0.721
		s0.135,0.525,0.375,0.766c0.201,0.201,0.428,0.305,0.682,0.313c0.254,0.006,0.486-0.08,0.697-0.26
		c0.211-0.178,0.611-0.563,1.203-1.154l2.515-2.515c-0.616,0.228-1.226,0.253-1.827,0.073c-0.601-0.179-1.19-0.557-1.77-1.135
		c-0.721-0.722-1.162-1.553-1.324-2.496c-0.163-0.941-0.046-1.761,0.351-2.455c0.397-0.695,1.059-1.508,1.987-2.438l1.258-1.257
		c1.104-1.104,1.97-1.882,2.598-2.334c0.627-0.45,1.352-0.725,2.174-0.819c0.82-0.094,1.682,0.055,2.576,0.445
		c0.896,0.389,1.771,1.009,2.623,1.86c1.053,1.053,1.77,2.063,2.154,3.03c0.383,0.969,0.484,1.912,0.307,2.832
		c-0.18,0.92-0.541,1.711-1.087,2.373s-1.687,1.861-3.421,3.596l-2.193,2.193c-1.877,1.877-3.158,3.107-3.845,3.689
		c-0.685,0.58-1.511,0.955-2.476,1.121c-0.965,0.164-1.929,0.048-2.895-0.352c-0.965-0.4-1.896-1.048-2.792-1.944
		c-1.111-1.111-1.841-2.198-2.188-3.261c-0.347-1.062-0.35-2.072-0.01-3.03C257.237,118.785,257.901,117.811,258.889,116.824z
		 M267.747,115.84c-0.663,0.662-0.985,1.158-0.97,1.486c0.017,0.328,0.115,0.583,0.297,0.766c0.273,0.272,0.572,0.373,0.897,0.302
		s0.776-0.397,1.354-0.976l2.855-2.855c0.695-0.695,1.09-1.209,1.184-1.545c0.095-0.334,0.002-0.641-0.277-0.92
		c-0.168-0.17-0.428-0.262-0.774-0.278s-0.886,0.339-1.613,1.067L267.747,115.84z"/>
	<path fill="#DE1F4B" d="M287.356,122.117l-15.777,15.777l-3.938-3.938l8.459-8.459c1.222-1.222,1.927-1.984,2.115-2.29
		c0.188-0.306,0.215-0.653,0.078-1.042c-0.137-0.391-0.66-1.04-1.57-1.949l-0.389-0.391l1.84-1.84
		c2.313,1.494,4.601,2.098,6.863,1.811L287.356,122.117z"/>
	<path fill="#DE1F4B" d="M277.299,135.234l3.938,3.938c-0.734,0.734-1.188,1.207-1.359,1.418c-0.173,0.212-0.254,0.452-0.244,0.722
		s0.135,0.524,0.375,0.765c0.201,0.201,0.429,0.306,0.683,0.313c0.253,0.006,0.485-0.08,0.697-0.259
		c0.211-0.179,0.611-0.563,1.202-1.155l2.516-2.514c-0.617,0.227-1.227,0.252-1.827,0.072c-0.601-0.178-1.191-0.557-1.77-1.135
		c-0.722-0.721-1.163-1.553-1.325-2.495s-0.045-1.761,0.351-2.456c0.397-0.695,1.06-1.508,1.988-2.437l1.257-1.257
		c1.105-1.105,1.971-1.883,2.598-2.335c0.627-0.45,1.352-0.725,2.174-0.818c0.821-0.094,1.682,0.054,2.577,0.444
		c0.896,0.39,1.771,1.01,2.622,1.86c1.053,1.053,1.77,2.063,2.154,3.031c0.383,0.969,0.485,1.912,0.307,2.831
		c-0.179,0.92-0.541,1.711-1.087,2.373c-0.545,0.663-1.687,1.861-3.421,3.597l-2.193,2.192c-1.877,1.878-3.158,3.107-3.844,3.689
		c-0.686,0.581-1.511,0.955-2.476,1.121c-0.965,0.165-1.93,0.048-2.896-0.352c-0.964-0.399-1.895-1.047-2.792-1.944
		c-1.11-1.11-1.841-2.198-2.188-3.26c-0.348-1.063-0.351-2.073-0.011-3.03C275.647,137.195,276.311,136.222,277.299,135.234z
		 M286.158,134.25c-0.663,0.663-0.986,1.158-0.971,1.486c0.017,0.328,0.115,0.584,0.298,0.766c0.272,0.272,0.571,0.373,0.896,0.302
		s0.776-0.396,1.354-0.975l2.855-2.856c0.695-0.695,1.09-1.209,1.185-1.544s0.002-0.642-0.277-0.921
		c-0.169-0.169-0.428-0.262-0.774-0.277c-0.348-0.018-0.886,0.339-1.613,1.066L286.158,134.25z"/>
</g>
</svg>
