<?xml version="1.0" encoding="UTF-8"?>
<svg xmlns="http://www.w3.org/2000/svg" version="1.1" viewBox="0 0 500 500">
  <defs>
    <style>
      .cls-1 {
        fill: #014a3f;
      }

      .cls-2 {
        fill: #62b22e;
      }

      .cls-3 {
        fill: #f6f8f8;
      }

      .cls-4 {
        fill: #006b5c;
      }

      .cls-5 {
        fill: #fefefe;
      }

      .cls-6 {
        fill: #fcfdfd;
      }
    </style>
  </defs>
  <!-- Generator: Adobe Illustrator 28.7.1, SVG Export Plug-In . SVG Version: 1.2.0 Build 142)  -->
  <g>
    <g id="Layer_1">
      <g>
        <path class="cls-1" d="M268.9,500h-38.3c-.6-1.1-1.7-.5-2.6-.6-8.1-.6-16.2-1.4-24.2-2.5-36.4-5-71.1-15.6-104.3-31.3-5-2.4-8.5-4.8-7-10.9.1-.4,0-.9,0-1.7-9.6,3.8-19.1,7.5-28.6,11.3-8.4,3.4-16.7,6.9-25.2,10.3-8.4,3.3-14.3-.7-14.3-9.7,0-.5,0-1,0-1.5,0-33.5,0-66.9,0-100.4,0-6,1.6-11.4,4.9-16.4,5.8-8.9,11.8-17.7,17.4-26.7,4.2-6.7,9.8-11.5,17.3-14.2,8.5-3,16.7-7,25.6-9,2.2-.5,3.1-1,3.1-3.5-.1-30.8,0-61.7,0-92.5,0-2-.5-3.4-1.9-4.8-11-11.5-20.8-23.9-29.5-37.2-18.4-28.4-31.8-58.8-36.4-92.7-.4-2.8,0-5.7-1.4-8.3v-15.7c16.1,13.5,32.4,26.5,50.6,38.2-3.2-15.6-4-30.4-1.1-45.5.4.2.7.2.8.3.8.9,1.7,1.9,2.5,2.8,12.4,14.7,26.2,27.9,41.4,39.6,2.1,1.6,2.7,1.2,3.8-.9,7.4-13.7,16.6-26.1,28.2-36.5C184.9,8,226.4-5.7,273.6,2.1c54,8.9,91.5,39.9,113,90.2,1.7,4.1,4,7.4,7.2,10.2,2.2,1.9,4.3,3.9,6.6,5.6,16.1,12.5,33.4,22.6,53.6,27,2.4.5,3.7,1.6,4.8,3.6,2.2,4.1,3.6,8.5,4.9,13,.8,2.6.2,4.4-1.7,6.6-6.1,7.2-15.1,13-13.4,24.5-4.5-1-8.8-2-13.1-3.1-1.6-.4-2.1,0-1.8,1.7,1.4,8.6,0,16.9-2.3,25.2-1.9,7.2-4.8,14.2-4.6,21.7,0,2.3-.9,2.8-2.8,2.8-4.6,0-9.3.5-13.9,1-1.3.1-2,.4-2,2.1,0,19.8,0,39.7,0,59.5,0,1.3.4,1.9,1.7,2.2,8,2.1,13.5,7.3,17,14.7,3.9-4.7,8.8-5.1,14-3,6.4,2.6,12.8,5.4,19.1,8.4,10.7,5.2,16.5,13.9,16.5,25.8.1,40.7,0,81.4,0,122.2,0,1.4,0,2.9-.4,4.3-1,5-4.2,7.5-9.2,7.4-2,0-3.8-.6-5.6-1.4-15.8-6.9-32-13-48-19.5-5.2-2.1-5.4-2.1-5.1,3.4.2,3-1,4.3-3.5,5.6-42.5,20.8-87.2,32.9-134.5,35.6-.5,0-1.2-.2-1.4.6ZM236.4,98.9c-1.6,0-3,.7-4.4,1.2-1.4.6-3.7.6-3.8,2.1-.2,1.9,2.1,2.7,3.3,4.1,0,0,.1.1.2.2.6.5,1.2.3,1.4-.3,1-2.5,3.2-4.4,3.4-7.2,0,0,0-.1,0-.2,0,0,0,.1-.1.2ZM262.5,455.9c-1.4-.2-.9-1.3-.9-2,0-2.7,0-5.4,0-8.1,0-1.4-.3-2.1-1.9-2-1.5,0-1.8.6-1.7,1.9,0,6.6,0,13.3,0,19.9,0,1.6.5,1.9,2,1.9,1.5,0,1.7-.6,1.7-1.9,0-2.2,0-4.4,0-6.6,0-.9-.2-2,.9-2.5,3.4,0,6.7.2,10.1.2,5.9,0,4.8,0,4.9,4.8,0,1.4,0,2.9,0,4.3-.1,1.5.6,1.7,1.9,1.7,1.4,0,1.9-.4,1.8-1.8-.1-2.9,0-5.8,0-8.7,0-2.3-1.3-3.5-3.7-3.6-1.7,0-3.4,0-5.8,0,3.3-3.4,6.2-6.4,9.2-9.4-3.2-.9-5.1.2-6.9,2.3-1.8,2-3.8,3.9-5.7,5.8-.5.5-1,1.4-1.8,1.3-2-.2-2.9,1.1-3.9,2.4ZM207.2,120.1c-.9-1-2-1.1-3-1.4-11.2-3.7-22.3-7.9-32.5-13.7-2.3-1.3-3.4-.8-4.9.8-5.9,6.4-10.5,13.6-12.9,22.1-.5,1.9-1.2,2.1-3,1.6-23.1-6.6-44.9-16.2-65.3-28.9-19.2-12-36.7-26-53.5-41.2-.6-.6-1.1-1.5-2.4-1.4,1,4.8,2.3,9.3,3.9,13.8,12.8,34.9,32.5,65.3,59.1,91.2,9.3,9.1,19.7,16.8,31.3,22.8,1.4.7,2.9,1.7,4.8,1.7-4.4-10.3-5.3-20.7-3.9-31.5.2-1.3,0-2.7,2.1-1.8,12.5,5.6,25.8,7,39.2,8,4.5.3,9.1.8,13.4,2.3,6,2.1,8.5,6.4,6.8,12.4-1.8,6.3-4,12.5-6,18.8-2.8,8.8-5.4,17.6-5.5,26.9-.1,15.3,4.5,29.5,11.1,43.1,2.9,6,5.9,11.9,12.9,14.4,1.7.6,2.3.8,3.3-.8,3.4-5.2,8.4-7.9,14.5-8.4,5.2-.4,10.5-1,15.6-.6,7.4.5,14-1.2,20.3-5.1,7.2-4.4,14.9-7.9,23.4-8.7,8.1-.7,15.7,0,21.4,6.9,1,1.2,1.5.6,2.2-.2,4.4-5.1,9.7-9.2,15.2-12.9,21.1-14,44.6-22,69.2-27.1,11.1-2.3,22.3-3.7,33.5-4.6,1.4-.1,2.1-.5,2.4-1.9,1.5-6.1,3.2-12.1,4.7-18.2.3-1.3.7-2.7-.7-3.7-1.4-1-2.5,0-3.7.7-3.9,2.8-8.1,5.2-12.5,7.3-16.3,7.6-33.8,10.8-51.3,13.9-19.8,3.5-39.7,6.4-58.8,12.7-16.6,5.5-33.7,10.5-45.8,24.7-.6.7-1.3,1.1-2.3.5-3.8-2.1-8.1-2.6-12.3-2.8-8.9-.4-17.6.8-25.4,5.6-1.7,1.1-3.3,2.5-5.1,3.9-.4-2.9-.8-5.5-1.7-7.9-2.8-8-7.7-14.7-13.4-20.8-2.3-2.5-3.7-5.1-4-8.7,19.3,9.3,37.5,6.9,55.3-4.1,0,2.9,0,5.5,1.9,7.7,1.1,1.3,1.8,1.5,3.3.3,14.1-11.3,29.9-19.9,46.7-26.7,17.5-7.1,35.4-12.2,54.6-11.6,1.4,0,2.4-.5,3.4-1.3,8.7-7.2,18.4-12.9,29.2-16.4,19.6-6.3,39.2-9.1,58.6.7.8.4,1.3.7,1.7-.5,1.6-4.9,3.9-9.7,3.4-15.1-.1-1.6.4-2.2,2.1-2.2,2,0,4,0,6-.5,1.3-.3,1.9-.8,1.6-2.2-.6-3.1-1.1-6.3-2.6-9.2-.9-1.8-2.1-2.8-4.1-3.1-4.2-.7-8.3-1.8-12.3-3.1-16-5.4-30.9-12.7-42.7-25.3-1.9-2-3.4-1.9-5,.4-4.1,5.9-6.1,12.6-7.6,19.6-.4,1.7-.1,2.9,1,4.4,3.1,4.2,4.8,8.9,4.3,14.4-1.1-.5-1.4-1.5-1.9-2.3-2.5-4.1-5.8-7.6-10-9.9-2.4-1.3-2.9-2.8-2.3-5.1.2-.7.2-1.5.4-2.3.6-2.2.2-2.7-2.3-2.2-14,3-28.2,4.7-42.5,5.5-5.5.3-11,.4-16.5.6-.7,0-1.7-.5-1.7,1.1-.1,5.5-6.3,13.6-11.4,15.3-.7.2-1.9.7-1.4-.7.8-2.4-.8-2.6-2.3-3-1.5-.5-3.1-1.3-4.5-.4-2.7,1.8-5.7,2.7-8.7,3.9-20.6,8.5-41.2,16.6-61.6,25.5-1.2.5-2.4,1.1-3.5.2-1.4-1.2-1.1-2.9-.6-4.3,2.3-6.1-.3-7.1-4.4-9.2-2.1-1.1-4.2-1.9-6.3-2.9-5-2.4-9.1-5.8-12.3-10.3-4.7-6.5-4.7-8.6.7-14.6,4.5-5,9.1-9.9,13.7-14.9ZM138,386.5c.3-.9.8-.8,1.2-.9,11.4-2.7,22.8-4.9,34.4-6.7,2.1-.3,2.6,0,2.6,2.1,0,11,0,22.1,0,33.1,0,2.1.6,2.4,2.5,2.1,5.3-.8,10.7-1.6,16.1-2.1,2.2-.2,2.9-.7,2.9-3,0-33.8,0-67.5,0-101.3,0-2.2-.3-4.4-1.1-6.5-3-8.8-10.8-13.2-21.3-11.7-8.9,1.2-17.7,2.9-26.5,4.8-1.1.2-2.1.5-3,1.6-6.2,7.7-12.4,15.3-18.6,23-.9,1-1.2,2.1-1.2,3.4,0,33.3,0,66.5,0,99.8,0,2.1.5,2.6,2.5,2.1,5.5-1.4,11-2.8,16.6-3.9,1.7-.3,1.9-1.1,1.9-2.5,0-9.8,0-19.5,0-29.3,0-1.7-.7-2.2-2.1-2.5-2.3-.5-4.6-1-6.9-1.5ZM91.5,370.9c4.1-5.5,7.9-10.5,11.7-15.5,1-1.3,1.6-2.7,1.6-4.5-.1-7.3,0-14.5,0-21.8,0-12.2-8.9-18.7-20.5-14.6-7.6,2.7-15.1,5.7-22.7,8.6-1.4.5-2.4,1.5-3.2,2.7-5.7,8.6-11.5,17.1-17.3,25.7-1,1.4-1.4,2.8-1.4,4.6,0,33,0,66,0,99,0,.8-.3,1.7.2,2.5.2,0,.4,0,.6,0,16-7.4,32.3-14.1,49.1-19.7,1.2-.4,1.9-1.2,2.6-2.2,6-8,12.1-16,18.2-24,.7-1,1.2-1.9,1.2-3.2,0-7.9,0-15.9,0-23.8,0-6.8-4-12.1-9.9-13.9-3.1-1-6.3-.6-10.1.1ZM265.7,401.7c.5.3.9.7,1.4,1,0,2.3,0,4.6,0,6.9,0,1.4.4,1.8,1.8,1.8,5.8.2,11.6.5,17.3.9,2.1.2,2.4-.6,2.3-2.4,0-6.5,0-13,0-19.4,0-33.4,0-66.7,0-100.1,0-2.4-.7-3.2-3-3.3-5.5-.2-11-.5-16.5-.8-1.7-.1-2.1.5-2.1,2.1,0,5.4,0,10.8,0,16.2,0,28.2,0,56.5,0,84.7,0,2.1-.2,3-2.8,2.9-6.1-.3-12.2-.2-18.3-.2-6.7,0-8.7-2-8.7-8.6,0-31.5,0-63,0-94.6,0-2.1-.3-2.9-2.7-2.7-5.2.5-10.4.6-15.6.7-2.4,0-3.2.6-3.2,3.2.1,33.5.3,66.9,0,100.4-.1,11.2,8.6,20.8,20.9,20.7,6.3,0,12.6-.1,18.8,0,1.4,0,2.4-.3,3.3-1.4,2.2-2.7,4.5-5.3,6.7-8ZM215,49.6c-6.2-.4-13.1.3-20,1.3-18.6,2.7-36,8.8-51.1,20.3-4.9,3.7-9.8,7.5-13.4,12.7-.8,1.2-1.3,2.2.5,3.3,8.1,5.3,16.5,10,25.3,14.1,1.5.7,2.7.6,3.9-.7,2.3-2.4,4.9-4.3,7.6-6.3,1.5-1.1,2.6-1,4.1,0,6.1,4,12.5,7.3,19.2,10.1,1.9.8,2.8.6,3.4-1.6,2.2-8.4,5.2-16.6,8.4-24.7.4-1.1.6-2.9,1.7-3.1,1.3-.2,1.8,1.6,2.5,2.5,4.6,6.5,9.4,12.9,14.9,18.8,1.2,1.3,2.4,1.6,4.1.9,4.2-1.7,8.5-3.3,12.8-4.7,1.9-.7,3.3-1.7,4.4-3.4,3.5-5.4,7.6-10.4,11.8-15.4.4-.5.9-1.2,1.6-1.1.9.1.7,1,.9,1.6.8,2.8,1.7,5.5,2.4,8.4.6,2.6,1.9,3.3,4.6,2.7,14.9-3.4,29.9-5.5,45.2-5.5,4.3,0,5.9-3,3.5-6.6-2.1-3.2-4.4-6.4-6.7-9.4-1.8-2.4-4-4.1-7.4-3.7-2.4.3-4.9.2-7.2,0-13.3-1.7-26.4-4.4-39.6-6.6-12.1-2.1-24.2-3.9-37.2-3.7ZM381.3,428.4c-.6-1.4-.9-2.2-1.3-3.1-6.6-15.2-13.2-30.4-19.9-45.5-.7-1.7-.7-2.6.9-3.8,4-2.8,7.9-5.9,11.9-8.8,1-.8,1.8-1.5,1.8-3,0-14.1,0-28.2-.1-42.4-.2-11.4-9.5-22.5-20.7-24.9-7.9-1.7-15.9-3-23.9-4.6-1.2-.2-2.2,0-3.2.9-5.9,5.1-11.9,10.2-18,15.1-1.4,1.2-1.9,2.4-1.9,4.2,0,33,0,66,0,98.9,0,2.5,1,3,3.1,3.3,5.1.5,10.2,1,15.2,2,2.7.5,3-.2,3-2.6,0-29.3,0-58.6,0-87.9,0-3.5.9-7.4-.4-10.3-1.2-2.7-5.4-3.5-8.7-5.7,1.4,0,2.2,0,3,0,8.4,1,16.8,2.6,25.1,4.3,3.8.8,6.3,4.3,6.4,8.3,0,3.7,0,7.4,0,11,0,10.3,0,20.7,0,31.3-8-1.5-15.8-3.2-23.7-4.3,0,.3,0,.4,0,.5,9,20,18,40,27,60.1.4.9.9,1.3,1.9,1.6,7.3,1.7,14.6,3.5,22.5,5.4ZM441.5,324c-.7,1.4-.4,2.6-.4,3.7,0,33.2,0,66.3,0,99.5,0,2.4-.4,2.7-2.6,1.8-6-2.5-12-4.7-18-7-5.4-2-7.6-5.2-7.6-10.9,0-31.6,0-63.2,0-94.9,0-2.4-.8-3.3-2.9-4-5-1.5-9.9-3.1-14.8-4.8-2.4-.8-3.2-.7-3.2,2.3.1,33.1,0,66.1,0,99.2,0,13.2,8.4,25,20.8,29.5,5.7,2,11.4,4.1,17.1,6.2,1.6.6,2.7.4,4-.5,2.2-1.4,4.2-3.2,7.1-4,0,2.6,0,4.9,0,7.3,0,1,0,1.8,1.2,2.3,6.2,2.6,12.4,5.3,18.8,8v-63.1c0-19.7,0-39.5,0-59.2,0-1.1.5-2.5-1.1-3.2-6.2-2.7-12.3-5.5-18.4-8.2ZM215.9,44.4c3.1-.2,6.2.4,9.2.5,10.3.3,20.3,2.3,30.3,3.9,11,1.7,21.9,4.6,33,5.6,2,.2,3.9.6,5-1.7,1-2.3-.2-3.9-1.7-5.4-3.3-3.3-6.8-6.2-10.4-9.2-11.4-9.7-24-17.5-37.4-24-1.8-.9-3.5-2.3-5.7-2-4.3.5-8.6,1.1-12.8,1.9-21,3.9-39.9,12.4-56.9,25.2-4.2,3.1-8,6.7-12,10-1.7,1.4-2.7,3.1-1.3,5.3,1.4,2.2,3.4,1.7,5.4,1.1.3,0,.5-.2.8-.4,17.4-7.5,35.6-10.4,54.4-10.8ZM308.5,85c-8.2-.3-17,.7-25.7,1.9-6,.8-11.9,2.2-17.9,3.4-1.3.2-2.5.4-1.8,2.4,3,8.6,6.3,17,10.5,25.1.6,1.2,1.2,2.2,2.7,2.1,4.1,0,8.2.8,12.4.6,2.6-.1,5.2-.4,7.8.5,2.2.8,3.7-.2,5.3-1.7,6.5-6.3,13.8-11.4,23-13.1,3.2-.6,4.1-2.1,3.1-5.2-1.6-4.9-3.9-9.4-6.4-13.9-.8-1.5-2.1-2.1-3.9-2-2.8,0-5.6,0-9.1,0ZM335,42.6c-1.5,0-2.5.7-3.2,2-3.7,6.5-9.2,11.1-16.3,13.6-3.4,1.2-4,3.6-1.9,6.7,2.8,4.1,5.5,8.1,8.1,12.3,1.3,2,3,3,5.2,3.1,12.7.7,25.2,3,37.5,6.6,1.8.5,3.3.3,4.4-1.1,1.1-1.3,1-2.9.2-4.4-7.9-14.5-18.1-27-30.7-37.7-.9-.8-2-1.2-3.2-1.1ZM266.5,12.4c-3,0-4.7,1.6-4.5,3.9.1,1.7,1.4,2.4,2.6,3.2,11.2,7.2,21.8,15.3,31.3,24.7,2.8,2.8,5.4,5.8,8.1,8.7,1.1,1.2,2.4,2,4.1,1.7,8.4-1.4,15.3-5,19.5-12.9,1.9-3.5,1.5-5.1-1.7-7.3-11.7-7.9-24.4-13.7-37.9-17.8-7.1-2.1-14.4-3.4-21.5-4.3ZM328.7,89.7c0,.2.1.7.3,1.1,2,4.4,4,8.8,5.6,13.3.5,1.4,1.8,2,3.2,2.3,10.3,1.8,18.6,7.1,25.8,14.5,1.8,1.9,3.5,2.5,5.8,1.7,1.7-.6,4.2,0,5.1-2.1,3.2-7.1,7.7-14.1,2.3-22.2-.1-.2-.1-.4-.2-.5-.5-1.2-1.3-2.1-2.6-2.6-13.4-4.9-27.2-7.9-41.3-9.5-2.2-.2-4,1.5-3.9,3.9ZM224,117c-1.1-.1-1.6.5-2.1,1-2.5,2.7-5,5.4-7.6,8-1.6,1.6-1.1,2.7.5,3.6,2.2,1.3,4.7,1.8,7.2,1.8,9.5,0,18.9.8,28.3,1,16.4.4,32.8,0,48.9,4,1.9.5,1.6-.8,1.3-1.9-.9-2.9-2.4-5.4-4.4-7.7-.7-.8-1.6-1.3-2.7-1.3-7-.3-14.1-.7-21.1-1.1-12.2-.7-24.4-2.1-36.4-4.5-4.1-.8-8.1-1.7-11.9-3ZM288.5,146.9c-.5-.8-1.1-.6-1.6-.7-7.7-.5-15.4-1.1-23.1-1.3-9.6-.3-19.3-.9-28.9,1-1.3.2-2.4.5-3,1.8-2.9,6-3.9,12.2-2.1,18.8.5,1.9,1.1,2.3,2.8,1.1,5.5-3.5,11.2-6.4,17.1-9,12.4-5.6,25.3-9.7,38.8-11.8ZM294,218.9c1.8.5,3.2-.5,4.5-1.1,23.2-8.7,47.4-12.8,72.1-13.7,2.5,0,3.8-.8,4.7-3.1,1.4-3.6,2.1-7.2,2.5-10.9,0-.8.2-1.7-.4-2.2-.8-.7-1.4.2-2,.6-6.1,3.3-11.9,7.2-17.1,11.8-1.3,1.2-2.6,1.8-4.3,1.9-21.1,1.3-41.3,5.7-59.9,16.7ZM319.8,127.3h0c4.1,0,8.3,0,12.4,0,1.6,0,3.9,0,3.3-2.7-.8-3.7-1.9-7.3-3-10.9-.6-1.9-2-3.2-4.1-3-2.1.2-4.2.5-6.2,1.2-7,2.3-12.8,6.5-17.9,11.7-1.4,1.4-1,2.3.6,3.1,1.1.5,2.4.7,3.7.7,3.8,0,7.5,0,11.3,0ZM168.5,454.7c2.5-1.8,1.7-4.2,1.8-6.3,0-3.4-1.1-4.6-4.4-4.6-3.7,0-7.3,0-11,0-2.4,0-5.2,2.7-5.2,5.1,0,5.5,0,11,0,16.5,0,1.6.4,2.1,2.1,2.1,5.4-.1,10.8,0,16.2,0,.6,0,1.2,0,1.6-.3,3.2-1.9,3.4-4.9,3.3-8.3-.1-2.7-1.7-3.6-4.3-4.2ZM253.3,89.1c-3.7,8.4-6.3,16.3-8.2,24.5-.2.9,0,1.3,1.1,1.6,6.1,1.4,12.2,2.6,18.6,3.4-4.6-9.5-8.1-19.1-11.5-29.5ZM209.2,456.6c0-2.8,0-5.6,0-8.4,0-3.1-1.2-4.3-4.4-4.3-4.4,0-8.9,0-13.3,0-2.6,0-5.2,2.7-5.2,5.4,0,5.4,0,10.8,0,16.2,0,1.6.4,2.1,2.1,2.2,1.9,0,1.7-1,1.7-2.1,0-1.2,0-2.3,0-3.5-.1-1.5.4-2,1.9-2,2.6.1,5.2,0,7.8,0,5.7,0,5.7,0,5.9,5.7,0,1.3.3,1.8,1.7,1.8,1.6,0,1.9-.6,1.9-2,0-3,0-6,0-9ZM244.5,443.8c-6,0-11.5,0-17.1,0-.9,0-1.4.5-2,.9-3.2,1.9-2.8,5-2.7,7.9.1,2.8,1.3,4,4.1,4.1,3.4,0,6.8,0,10.2,0,5.6,0,5.5,0,5.4,5.5,0,1.5-.5,1.9-2,1.9-5.2,0-10.4,0-15.7,0-1.4,0-2.1.3-2.1,1.9,0,1.7,1.1,1.5,2.1,1.5,5.3,0,10.6,0,16,0,2.5,0,5.1-2.6,5.2-5.1,0-1.4,0-2.9,0-4.4,0-3.5-1-4.5-4.4-4.5-4,0-7.9-.2-11.9,0-2.9.2-3-1.2-3.1-3.5,0-2.2.5-3.1,2.9-2.9,2.9.2,5.8-.1,8.7.1,2.8.2,4.8-.7,6.5-3.5ZM318.5,443.8c-6.3,0-12,0-17.7,0-2.4,0-5.2,2.9-5.2,5.4,0,5.4,0,10.8,0,16.3,0,1.7.5,2.1,2.1,2.1,5.1-.1,10.3-.2,15.4,0,2.6.1,4-1.2,5.4-3.4-5,0-9.6,0-14.2,0s-5.1,0-5.1-5.2c0-1.9.7-2.3,2.4-2.2,2.7.1,5.4-.2,8.1,0,2.7.2,4.3-.9,5.8-3.3-4.3,0-8.2,0-12.2,0-4.2,0-4.1,0-4.1-4.2,0-1.8.7-2.1,2.2-2,3.8,0,7.6-.2,11.3,0,2.7.2,4.2-1.1,5.9-3.5ZM209.2,117.9c.3.2.6.4.9.7,1.9-2.2,3.6-4.5,5.7-6.5,5-4.8,5.1-4.6.4-9.8-3.1-3.4-6.1-7-9.4-10.9-.1,9.3.7,18,2.5,26.6ZM344.7,126.4c4.4-.6,8.7-1.3,13.1-1.9,1.9-.3,1.6-1,.5-2-4.3-3.9-9.1-7.1-14.5-9.3-2.3-.9-4.5.6-4.7,3.1-.1,2.2.7,4.2,1,6.3.4,2.8,1.5,4.4,4.6,3.8ZM339.6,447.2c-.9,1.2-1.2,2.3-1.2,3.5,0,4.9,0,9.8,0,14.8,0,1.3,0,2.1,1.8,2.1,1.9,0,1.9-.9,1.9-2.3,0-3.4,0-6.8,0-10.1,0-2.5-.8-5.7.4-7.3,1.3-1.7,4.7-.4,7.1-.6,0,0,.2,0,.3,0,1.2,0,2,0,2-1.6,0-1.6-.6-1.9-2.1-1.9-5,0-10,.2-15.1,0-2.8-.1-4.4,1.1-5.9,3.5h10.6ZM408.6,193.2c6.8-3.8,12-8.9,15.9-15.7-3.5-.5-6.6-.7-9.8-.6-2.2,0-3.2.8-3.4,3.1-.3,3.3-1.3,6.4-2.4,9.5-.4,1.1-.8,2.2-.2,3.7ZM396.8,198c1.5-2.5,2.7-7.5,2.7-13.1,0-7.1,1.5-6.5-6-4.3-1.2.4-1.5.7-1,1.9,1.9,5,3.1,10.2,4.4,15.4ZM385.7,203.5c1.4-.5,2.7-.8,3.9-1.3.7-.3,1.4-.5.8-1.6-1.8-3.6-3.8-7-6.7-9.9,1.2,4.2,1.7,8.4,1.9,12.9Z"/>
        <path class="cls-2" d="M207.2,120.1c-4.6,5-9.2,9.9-13.7,14.9-5.4,6-5.4,8.1-.7,14.6,3.3,4.5,7.4,7.9,12.3,10.3,2.1,1,4.2,1.9,6.3,2.9,4.1,2.1,6.7,3.1,4.4,9.2-.6,1.4-.8,3.2.6,4.3,1.1.9,2.4.3,3.5-.2,20.4-8.9,41-17,61.6-25.5,2.9-1.2,6-2.1,8.7-3.9,1.3-.9,3,0,4.5.4,1.5.5,3.1.7,2.3,3-.5,1.4.7.9,1.4.7,5.1-1.6,11.3-9.8,11.4-15.3,0-1.6,1-1.1,1.7-1.1,5.5-.2,11-.3,16.5-.6,14.3-.8,28.5-2.5,42.5-5.5,2.5-.5,2.9,0,2.3,2.2-.2.7-.2,1.5-.4,2.3-.6,2.3,0,3.8,2.3,5.1,4.2,2.3,7.5,5.8,10,9.9.5.8.7,1.8,1.9,2.3.6-5.5-1.1-10.2-4.3-14.4-1.1-1.5-1.4-2.7-1-4.4,1.5-6.9,3.5-13.7,7.6-19.6,1.6-2.3,3.1-2.4,5-.4,11.7,12.6,26.6,19.9,42.7,25.3,4,1.4,8.1,2.5,12.3,3.1,2,.3,3.2,1.4,4.1,3.1,1.5,2.9,1.9,6.1,2.6,9.2.3,1.4-.4,1.9-1.6,2.2-2,.5-4,.5-6,.5-1.7,0-2.2.6-2.1,2.2.4,5.4-1.9,10.2-3.4,15.1-.4,1.2-.9.9-1.7.5-19.4-9.7-39-7-58.6-.7-10.8,3.5-20.4,9.2-29.2,16.4-1,.8-2,1.4-3.4,1.3-19.1-.6-37.1,4.5-54.6,11.6-16.7,6.8-32.5,15.3-46.7,26.7-1.5,1.2-2.2.9-3.3-.3-1.8-2.2-1.8-4.7-1.9-7.7-17.8,11-36,13.4-55.3,4.1.3,3.5,1.7,6.2,4,8.7,5.7,6.1,10.7,12.7,13.4,20.8.9,2.5,1.3,5,1.7,7.9,1.8-1.4,3.3-2.8,5.1-3.9,7.8-4.7,16.4-6,25.4-5.6,4.3.2,8.5.7,12.3,2.8,1,.5,1.7.2,2.3-.5,12-14.2,29.1-19.1,45.8-24.7,19.1-6.4,39-9.2,58.8-12.7,17.5-3.1,35-6.3,51.3-13.9,4.4-2.1,8.6-4.5,12.5-7.3,1.1-.8,2.2-1.7,3.7-.7,1.4,1,1.1,2.4.7,3.7-1.5,6.1-3.2,12.1-4.7,18.2-.3,1.4-1,1.8-2.4,1.9-11.3.9-22.5,2.2-33.5,4.6-24.6,5.2-48.1,13.2-69.2,27.1-5.6,3.7-10.8,7.8-15.2,12.9-.7.8-1.2,1.4-2.2.2-5.6-6.8-13.3-7.6-21.4-6.9-8.6.8-16.2,4.3-23.4,8.7-6.3,3.8-12.8,5.6-20.3,5.1-5.2-.4-10.4.2-15.6.6-6.1.4-11.1,3.1-14.5,8.4-1,1.6-1.6,1.4-3.3.8-7-2.5-10-8.4-12.9-14.4-6.6-13.6-11.2-27.8-11.1-43.1,0-9.3,2.7-18.1,5.5-26.9,2-6.2,4.2-12.4,6-18.8,1.7-6-.8-10.3-6.8-12.4-4.3-1.5-8.9-1.9-13.4-2.3-13.4-1-26.8-2.4-39.2-8-2.1-.9-2,.5-2.1,1.8-1.4,10.7-.5,21.2,3.9,31.5-1.9,0-3.3-1-4.8-1.7-11.6-6-22-13.7-31.3-22.8-26.6-25.9-46.3-56.3-59.1-91.2-1.6-4.4-3-9-3.9-13.8,1.3-.1,1.8.8,2.4,1.4,16.7,15.1,34.3,29.2,53.5,41.2,20.4,12.7,42.1,22.3,65.3,28.9,1.8.5,2.5.3,3-1.6,2.4-8.4,7-15.6,12.9-22.1,1.4-1.6,2.6-2.1,4.9-.8,10.3,5.9,21.3,10.1,32.5,13.7,1,.3,2.1.4,3,1.4ZM324.9,174c-9.1-.4-18.1-.2-27.2.8-15.9,1.8-31.6,4.5-46.6,10-8.9,3.2-17.5,3.5-26.5,1.5-1.7-.4-3-.2-4.4.7-4.5,2.7-8.8,5.6-12.8,9-2.9,2.5-6,4.9-8.4,8.3,1.1.3,1.5-.5,2-.8,4.3-3.2,8.8-6,13.8-8,3.5-1.4,6.9-1.8,10.7-.8,7.6,2,15.1,1.5,22.4-1.7,15.1-6.4,30.7-11,46.7-14.3,10-2.1,20.1-3.5,30.2-4.9ZM433,153.7c3.1-8.2.4-8.2-4.9-11.2-10.4-5.9-21.6-10.3-31.9-16.7-1.9,4.5-1,8.3,2.2,11.7,1.9,2.1,3.7-.2,5.6.3.2,0,.4,0,.6,0,12.1.7,21.7,5.9,28.5,15.9Z"/>
        <path class="cls-6" d="M138,386.5c2.3.5,4.6,1.1,6.9,1.5,1.4.3,2.1.8,2.1,2.5,0,9.8,0,19.5,0,29.3,0,1.5-.3,2.2-1.9,2.5-5.6,1.2-11.1,2.5-16.6,3.9-2.1.5-2.5,0-2.5-2.1,0-33.3,0-66.5,0-99.8,0-1.3.3-2.4,1.2-3.4,6.3-7.6,12.5-15.3,18.6-23,.8-1,1.8-1.3,3-1.6,8.8-1.8,17.6-3.5,26.5-4.8,10.5-1.5,18.3,2.9,21.3,11.7.7,2.1,1.1,4.3,1.1,6.5,0,33.8,0,67.5,0,101.3,0,2.3-.7,2.8-2.9,3-5.4.5-10.7,1.3-16.1,2.1-1.9.3-2.5,0-2.5-2.1.1-11,0-22.1,0-33.1,0-2.1-.4-2.5-2.6-2.1-11.5,1.8-23,4-34.4,6.7-.4.1-1,0-1.2.9ZM136.9,318.1c2.9.7,5,1.4,7.2,1.6,2.4.3,2.9,1.4,2.8,3.6-.1,13,0,26.1,0,39.1,0,1.2-.5,2.7,1.8,2.2,8.5-1.9,17-3.5,25.6-4.6,1.1-.2,1.9-.5,1.9-1.9,0-13.7,0-27.4,0-41.2,0-3.7-3.1-5.9-6.7-5.3-10.6,1.8-21.2,3.7-32.5,6.5Z"/>
        <path class="cls-6" d="M91.5,370.9c3.8-.8,7-1.1,10.1-.1,5.8,1.8,9.8,7.1,9.9,13.9.1,7.9,0,15.9,0,23.8,0,1.2-.4,2.2-1.2,3.2-6.1,8-12.2,16-18.2,24-.7,1-1.4,1.8-2.6,2.2-16.8,5.5-33,12.3-49.1,19.7-.2,0-.4,0-.6,0-.5-.8-.2-1.6-.2-2.5,0-33,0-66,0-99,0-1.7.4-3.1,1.4-4.6,5.8-8.5,11.6-17.1,17.3-25.7.8-1.2,1.8-2.2,3.2-2.7,7.6-2.9,15.1-5.9,22.7-8.6,11.5-4,20.4,2.4,20.5,14.6,0,7.3,0,14.5,0,21.8,0,1.8-.5,3.1-1.6,4.5-3.8,5-7.5,10-11.7,15.5ZM59.9,429.9c10-4.2,19.7-7.9,29.5-11.1,1.4-.4,1.5-1.3,1.5-2.4,0-9.5,0-19,0-28.4,0-4.5-2.6-6.2-6.9-4.8-1.8.6-3.6,1.3-5.5,1.9-9.3,3.4-18.4,7-27.4,11.4,2,.3,4,.3,6,.3,2.1,0,2.9.7,2.9,3-.2,9.9,0,19.7,0,30.1ZM51.3,346.5v.8c2,0,3.9.1,5.8,0,2.1-.2,2.8.6,2.8,2.8-.1,7.1,0,14.1,0,21.2,0,1.7.4,2,2,1.4,6.8-2.9,13.7-5.6,20.8-8,.9-.3,1.7-.6,1.7-1.9,0-7.5,0-15.1-.1-22.6-.1-3.7-2.7-5.5-6.1-4.3-9.1,3.2-17.9,6.9-26.7,10.8Z"/>
        <path class="cls-6" d="M265.7,401.7c-2.2,2.7-4.5,5.3-6.7,8-.9,1.1-1.9,1.4-3.3,1.4-6.3,0-12.6,0-18.8,0-12.3,0-21-9.5-20.9-20.7.3-33.5.1-66.9,0-100.4,0-2.7.8-3.2,3.2-3.2,5.2,0,10.4-.2,15.6-.7,2.4-.2,2.7.6,2.7,2.7,0,31.5,0,63,0,94.6,0,6.6,2,8.6,8.7,8.6,6.1,0,12.2-.1,18.3.2,2.5.1,2.8-.8,2.8-2.9,0-28.2,0-56.5,0-84.7,0-5.4,0-10.8,0-16.2,0-1.6.4-2.2,2.1-2.1,5.5.4,11,.7,16.5.8,2.3,0,3,.9,3,3.3,0,33.4,0,66.7,0,100.1s0,13,0,19.4c0,1.8-.3,2.6-2.3,2.4-5.8-.4-11.6-.7-17.3-.9-1.4,0-1.9-.4-1.8-1.8.1-2.3,0-4.6,0-6.9-.5-.3-.9-.7-1.4-1Z"/>
        <path class="cls-4" d="M215,49.6c13.1-.2,25.2,1.6,37.2,3.7,13.2,2.3,26.3,5,39.6,6.6,2.4.3,4.9.3,7.2,0,3.4-.4,5.5,1.4,7.4,3.7,2.3,3.1,4.6,6.2,6.7,9.4,2.4,3.6.8,6.6-3.5,6.6-15.3,0-30.4,2.1-45.2,5.5-2.7.6-4-.1-4.6-2.7-.7-2.8-1.6-5.6-2.4-8.4-.2-.6,0-1.5-.9-1.6-.7,0-1.2.6-1.6,1.1-4.2,4.9-8.3,9.9-11.8,15.4-1.1,1.7-2.5,2.8-4.4,3.4-4.3,1.5-8.6,3-12.8,4.7-1.7.7-2.9.4-4.1-.9-5.5-5.9-10.3-12.3-14.9-18.8-.7-1-1.2-2.7-2.5-2.5-1.1.2-1.3,2-1.7,3.1-3.1,8.1-6.1,16.3-8.4,24.7-.6,2.2-1.5,2.4-3.4,1.6-6.7-2.8-13.2-6.1-19.2-10.1-1.5-1-2.6-1.1-4.1,0-2.6,2-5.3,3.8-7.6,6.3-1.2,1.3-2.3,1.4-3.9.7-8.8-4.1-17.2-8.8-25.3-14.1-1.7-1.1-1.3-2.1-.5-3.3,3.6-5.2,8.5-8.9,13.4-12.7,15.1-11.5,32.5-17.6,51.1-20.3,6.8-1,13.8-1.7,20-1.3Z"/>
        <path class="cls-5" d="M381.3,428.4c-7.9-1.9-15.2-3.7-22.5-5.4-1-.2-1.5-.7-1.9-1.6-9-20-18-40-27-60.1,0,0,0-.2,0-.5,7.9,1,15.7,2.8,23.7,4.3,0-10.6,0-20.9,0-31.3,0-3.7,0-7.4,0-11,0-4-2.6-7.5-6.4-8.3-8.3-1.8-16.7-3.3-25.1-4.3-.8,0-1.6,0-3,0,3.3,2.2,7.4,3,8.7,5.7,1.3,2.9.4,6.8.4,10.3,0,29.3,0,58.6,0,87.9,0,2.4-.3,3.1-3,2.6-5-1-10.1-1.5-15.2-2-2.2-.2-3.1-.7-3.1-3.3,0-33,0-66,0-98.9,0-1.8.5-3,1.9-4.2,6-5,12-10,18-15.1,1-.9,2-1.1,3.2-.9,8,1.5,15.9,2.9,23.9,4.6,11.2,2.4,20.6,13.5,20.7,24.9.2,14.1,0,28.2.1,42.4,0,1.5-.7,2.2-1.8,3-4,2.9-7.8,6-11.9,8.8-1.7,1.2-1.6,2.1-.9,3.8,6.7,15.2,13.3,30.4,19.9,45.5.4.9.7,1.7,1.3,3.1Z"/>
        <path class="cls-6" d="M441.5,324c6.2,2.7,12.3,5.5,18.4,8.2,1.7.7,1.1,2.1,1.1,3.2,0,19.7,0,39.5,0,59.2v63.1c-6.5-2.8-12.6-5.5-18.8-8-1.2-.5-1.2-1.3-1.2-2.3,0-2.3,0-4.6,0-7.3-2.8.9-4.9,2.6-7.1,4-1.3.8-2.4,1.1-4,.5-5.7-2.2-11.4-4.2-17.1-6.2-12.5-4.4-20.8-16.3-20.8-29.5,0-33.1,0-66.1,0-99.2,0-3,.8-3.1,3.2-2.3,4.9,1.7,9.9,3.3,14.8,4.8,2.1.6,2.9,1.5,2.9,4-.1,31.6,0,63.2,0,94.9,0,5.7,2.2,8.9,7.6,10.9,6,2.3,12.1,4.5,18,7,2.2.9,2.6.6,2.6-1.8,0-33.2,0-66.3,0-99.5,0-1.1-.3-2.3.4-3.7Z"/>
        <path class="cls-4" d="M215.9,44.4c-18.8.4-37,3.2-54.4,10.8-.3.1-.5.3-.8.4-2,.7-4,1.1-5.4-1.1-1.4-2.2-.4-3.9,1.3-5.3,4-3.4,7.8-6.9,12-10,17-12.8,36-21.3,56.9-25.2,4.3-.8,8.6-1.4,12.8-1.9,2.1-.3,3.9,1.2,5.7,2,13.4,6.5,26.1,14.3,37.4,24,3.5,3,7.1,5.9,10.4,9.2,1.5,1.5,2.7,3.1,1.7,5.4-1,2.3-2.9,1.9-5,1.7-11.2-1-22-3.8-33-5.6-10.1-1.6-20.1-3.5-30.3-3.9-3.1,0-6.1-.7-9.2-.5Z"/>
        <path class="cls-4" d="M308.5,85c3.5,0,6.3,0,9.1,0,1.7,0,3.1.5,3.9,2,2.4,4.5,4.8,9.1,6.4,13.9,1,3.1.1,4.6-3.1,5.2-9.2,1.7-16.5,6.8-23,13.1-1.6,1.5-3,2.5-5.3,1.7-2.5-.9-5.2-.6-7.8-.5-4.2.2-8.3-.7-12.4-.6-1.6,0-2.1-1-2.7-2.1-4.2-8.1-7.5-16.5-10.5-25.1-.7-2,.5-2.1,1.8-2.4,5.9-1.2,11.9-2.6,17.9-3.4,8.8-1.2,17.6-2.2,25.7-1.9Z"/>
        <path class="cls-4" d="M334.9,42.6c1.2,0,2.3.3,3.2,1.1,12.6,10.7,22.8,23.2,30.7,37.7.8,1.4.9,3-.2,4.4-1.1,1.4-2.6,1.6-4.4,1.1-12.2-3.5-24.7-5.9-37.5-6.6-2.3-.1-4-1.1-5.2-3.1-2.6-4.2-5.3-8.3-8.1-12.3-2.1-3.1-1.5-5.5,1.9-6.7,7.1-2.5,12.6-7,16.3-13.6.7-1.3,1.7-2,3.2-2Z"/>
        <path class="cls-4" d="M266.5,12.4c7.1.9,14.4,2.2,21.5,4.3,13.5,4,26.2,9.9,37.9,17.8,3.2,2.2,3.6,3.8,1.7,7.3-4.2,7.8-11.1,11.5-19.5,12.9-1.7.3-3-.5-4.1-1.7-2.7-2.9-5.3-5.9-8.1-8.7-9.5-9.5-20-17.5-31.3-24.7-1.2-.8-2.5-1.6-2.6-3.2-.2-2.4,1.6-4,4.5-3.9Z"/>
        <path class="cls-4" d="M328.7,89.7c0-2.4,1.7-4.2,3.9-3.9,14.1,1.5,27.9,4.6,41.3,9.5,1.2.5,2.1,1.3,2.6,2.6,0,.2.1.4.2.5,5.5,8,1,15.1-2.3,22.2-.9,2-3.4,1.4-5.1,2.1-2.3.8-4,.2-5.8-1.7-7.1-7.3-15.5-12.7-25.8-14.5-1.4-.2-2.7-.9-3.2-2.3-1.6-4.6-3.6-9-5.6-13.3-.2-.4-.3-.9-.3-1.1Z"/>
        <path class="cls-2" d="M224,117c3.8,1.3,7.8,2.2,11.9,3,12,2.3,24.2,3.7,36.4,4.5,7,.4,14.1.8,21.1,1.1,1.2,0,2,.5,2.7,1.3,2,2.3,3.5,4.8,4.4,7.7.3,1.1.6,2.3-1.3,1.9-16.1-4.1-32.5-3.6-48.9-4-9.4-.2-18.9-1-28.3-1-2.5,0-5-.5-7.2-1.8-1.6-.9-2.1-2-.5-3.6,2.6-2.6,5.1-5.3,7.6-8,.5-.6,1.1-1.2,2.1-1Z"/>
        <path class="cls-6" d="M288.5,146.9c-13.6,2-26.4,6.2-38.8,11.8-5.9,2.6-11.7,5.5-17.1,9-1.8,1.1-2.3.8-2.8-1.1-1.8-6.6-.8-12.8,2.1-18.8.7-1.3,1.7-1.6,3-1.8,9.6-1.8,19.3-1.2,28.9-1,7.7.2,15.4.9,23.1,1.3.6,0,1.2-.1,1.6.7Z"/>
        <path class="cls-3" d="M294,218.9c18.6-11,38.8-15.5,59.9-16.7,1.7-.1,3-.7,4.3-1.9,5.2-4.7,10.9-8.5,17.1-11.8.6-.3,1.3-1.2,2-.6.6.5.5,1.4.4,2.2-.4,3.7-1.2,7.4-2.5,10.9-.9,2.3-2.2,3-4.7,3.1-24.7.9-48.8,5-72.1,13.7-1.4.5-2.7,1.6-4.5,1.1Z"/>
        <path class="cls-4" d="M319.8,127.3c-3.8,0-7.5,0-11.3,0-1.3,0-2.5-.2-3.7-.7-1.5-.7-2-1.6-.6-3.1,5.1-5.2,10.9-9.5,17.9-11.7,2-.6,4.1-1,6.2-1.2,2.1-.2,3.5,1.1,4.1,3,1.1,3.6,2.1,7.2,3,10.9.6,2.7-1.7,2.7-3.3,2.7-4.1.1-8.3,0-12.4,0h0Z"/>
        <path class="cls-3" d="M168.5,454.7c2.6.6,4.2,1.5,4.3,4.2.1,3.3-.1,6.3-3.3,8.3-.4.3-1.1.3-1.6.3-5.4,0-10.8,0-16.2,0-1.7,0-2.1-.5-2.1-2.1,0-5.5,0-11,0-16.5,0-2.4,2.8-5.1,5.2-5.1,3.7,0,7.3,0,11,0,3.3,0,4.4,1.3,4.4,4.6,0,2.1.8,4.5-1.8,6.3ZM161.5,464.1c1.7,0,3.5-.1,5.2,0,2.1.2,2.8-.6,2.5-2.6-.1-.7,0-1.4,0-2,.3-2.1-.6-2.9-2.7-2.9-3.7.1-7.3.1-11,0-1.7,0-2.1.5-2.1,2.1,0,5.3-.1,5.3,5.2,5.3s1.9,0,2.9,0ZM160,453.5c1.5,0,3.1-.1,4.6,0,1.9.2,2.4-.7,2.1-2.3-.3-1.5,1.1-4-2.1-4-2.7,0-5.4.2-8.1,0-2.4-.2-3.3.3-3.2,3,0,2.5.6,3.7,3.3,3.3,1.1-.2,2.3,0,3.5,0Z"/>
        <path class="cls-3" d="M253.3,89.1c3.5,10.4,7,20,11.5,29.5-6.4-.8-12.6-1.9-18.6-3.4-1-.2-1.3-.6-1.1-1.6,1.9-8.2,4.5-16.2,8.2-24.5Z"/>
        <path class="cls-6" d="M209.2,456.6c0,3,0,6,0,9,0,1.4-.2,2.1-1.9,2-1.4,0-1.7-.5-1.7-1.8-.2-5.7-.2-5.7-5.9-5.7-2.6,0-5.2,0-7.8,0-1.6,0-2.1.5-1.9,2,.1,1.1,0,2.3,0,3.5,0,1.2.2,2.2-1.7,2.1-1.7,0-2.1-.6-2.1-2.2,0-5.4,0-10.8,0-16.2,0-2.7,2.6-5.3,5.2-5.4,4.4,0,8.9,0,13.3,0,3.2,0,4.3,1.2,4.4,4.3,0,2.8,0,5.6,0,8.4ZM197.8,456.8h.9c7.5,0,7.5,0,7-7.6,0-1.5-.6-2-2.1-2-3.9,0-7.9,0-11.8,0-1.3,0-1.8.3-1.9,1.7-.4,7.8-.5,7.8,7.3,7.8s.4,0,.6,0Z"/>
        <path class="cls-3" d="M244.5,443.8c-1.7,2.8-3.7,3.7-6.5,3.5-2.9-.2-5.8.1-8.7-.1-2.3-.2-2.9.6-2.9,2.9,0,2.2.2,3.7,3.1,3.5,3.9-.2,7.9,0,11.9,0,3.4,0,4.4,1.1,4.4,4.5,0,1.5,0,2.9,0,4.4,0,2.5-2.7,5.1-5.2,5.1-5.3,0-10.6,0-16,0-1,0-2.1.3-2.1-1.5,0-1.6.6-1.9,2.1-1.9,5.2,0,10.4,0,15.7,0,1.5,0,1.9-.4,2-1.9.1-5.5.2-5.5-5.4-5.5-3.4,0-6.8,0-10.2,0-2.8,0-4-1.3-4.1-4.1-.1-3-.4-6,2.7-7.9.7-.4,1.2-.9,2-.9,5.6,0,11.2,0,17.1,0Z"/>
        <path class="cls-3" d="M318.5,443.8c-1.6,2.4-3.1,3.7-5.9,3.5-3.8-.3-7.5,0-11.3,0-1.5,0-2.2.3-2.2,2,0,4.2-.1,4.2,4.1,4.2,3.9,0,7.9,0,12.2,0-1.5,2.4-3.1,3.5-5.8,3.3-2.7-.2-5.4,0-8.1,0-1.7,0-2.4.3-2.4,2.2,0,5.2-.1,5.2,5.1,5.2s9.2,0,14.2,0c-1.5,2.3-2.8,3.6-5.4,3.4-5.1-.2-10.3-.1-15.4,0-1.6,0-2.1-.4-2.1-2.1.1-5.4,0-10.8,0-16.3,0-2.5,2.8-5.4,5.2-5.4,5.7,0,11.4,0,17.7,0Z"/>
        <path class="cls-3" d="M209.2,117.9c-1.7-8.6-2.6-17.2-2.5-26.6,3.4,3.9,6.3,7.5,9.4,10.9,4.7,5.2,4.6,5-.4,9.8-2.1,2-3.8,4.3-5.7,6.5-.3-.2-.6-.4-.9-.7Z"/>
        <path class="cls-4" d="M344.7,126.4c-3.1.5-4.2-1.1-4.6-3.8-.3-2.1-1.1-4.1-1-6.3.2-2.5,2.3-4,4.7-3.1,5.4,2.2,10.2,5.4,14.5,9.3,1,.9,1.4,1.7-.5,2-4.4.6-8.7,1.3-13.1,1.9Z"/>
        <path class="cls-3" d="M339.6,447.2h-10.6c1.5-2.3,3-3.6,5.9-3.5,5,.2,10,.1,15.1,0,1.4,0,2,.3,2.1,1.9,0,1.6-.8,1.7-2,1.6,0,0-.2,0-.3,0-2.5.2-5.8-1.1-7.1.6-1.2,1.6-.4,4.8-.4,7.3,0,3.4,0,6.8,0,10.1,0,1.4,0,2.3-1.9,2.3-1.7,0-1.8-.8-1.8-2.1,0-4.9,0-9.8,0-14.8,0-1.2.3-2.2,1.2-3.5Z"/>
        <path class="cls-3" d="M408.6,193.2c-.6-1.5-.2-2.6.2-3.7,1.1-3.1,2.1-6.2,2.4-9.5.2-2.3,1.3-3,3.4-3.1,3.2-.1,6.3.1,9.8.6-3.9,6.7-9,11.8-15.9,15.7Z"/>
        <path class="cls-6" d="M262.5,455.9c1-1.3,1.9-2.6,3.9-2.4.9,0,1.3-.8,1.8-1.3,1.9-1.9,3.9-3.7,5.7-5.8,1.8-2.1,3.8-3.3,6.9-2.3-3,3-5.8,6-9.2,9.4,2.4,0,4.1,0,5.8,0,2.4,0,3.6,1.3,3.7,3.6,0,2.9,0,5.8,0,8.7,0,1.4-.5,1.8-1.8,1.8-1.3,0-2-.2-1.9-1.7.1-1.4,0-2.9,0-4.3,0-4.7,1-4.8-4.9-4.8-3.4,0-6.7-.1-10.1-.2,0-.2,0-.4,0-.6Z"/>
        <path class="cls-3" d="M262.5,455.9c0,.2,0,.4,0,.6-1.1.6-.9,1.6-.9,2.5,0,2.2,0,4.4,0,6.6,0,1.3-.2,1.9-1.7,1.9-1.5,0-2-.4-2-1.9,0-6.6,0-13.3,0-19.9,0-1.3.3-1.9,1.7-1.9,1.6,0,2,.6,1.9,2,0,2.7,0,5.4,0,8.1,0,.7-.5,1.9.9,2Z"/>
        <path class="cls-3" d="M396.8,198c-1.3-5.2-2.5-10.4-4.4-15.4-.5-1.2-.2-1.6,1-1.9,7.5-2.3,5.9-2.8,6,4.3,0,5.5-1.1,10.6-2.7,13.1Z"/>
        <path class="cls-3" d="M385.7,203.5c-.3-4.5-.8-8.7-1.9-12.9,2.8,2.9,4.9,6.3,6.7,9.9.6,1.1,0,1.4-.8,1.6-1.2.5-2.5.8-3.9,1.3Z"/>
        <path class="cls-4" d="M236.4,98.9c-.2,2.8-2.4,4.8-3.4,7.2-.2.6-.8.8-1.4.3,0,0-.2-.1-.2-.2-1.1-1.4-3.5-2.2-3.3-4.1.2-1.5,2.5-1.5,3.8-2.1,1.4-.6,2.8-1.2,4.4-1.2h0Z"/>
        <path class="cls-4" d="M236.4,98.9c0,0,0-.1.1-.2,0,0,0,.1,0,.2,0,0,0,0,0,0Z"/>
        <path class="cls-1" d="M324.9,174c-10.1,1.4-20.2,2.8-30.2,4.9-16,3.3-31.7,7.9-46.7,14.3-7.3,3.1-14.8,3.7-22.4,1.7-3.8-1-7.2-.6-10.7.8-5,2-9.5,4.7-13.8,8-.5.4-.8,1.1-2,.8,2.4-3.4,5.5-5.8,8.4-8.3,4-3.4,8.3-6.3,12.8-9,1.4-.9,2.7-1.1,4.4-.7,8.9,2,17.6,1.7,26.5-1.5,15-5.5,30.7-8.2,46.6-10,9.1-1,18.1-1.3,27.2-.8Z"/>
        <path class="cls-1" d="M433,153.7c-6.8-10-16.4-15.2-28.5-15.9-.2,0-.4,0-.6,0-1.8-.5-3.7,1.8-5.6-.3-3.1-3.5-4-7.2-2.2-11.7,10.3,6.4,21.5,10.8,31.9,16.7,5.3,3,8,3,4.9,11.2Z"/>
        <path class="cls-1" d="M136.9,318.1c11.2-2.8,21.8-4.8,32.5-6.5,3.6-.6,6.7,1.6,6.7,5.3,0,13.7,0,27.4,0,41.2,0,1.5-.8,1.8-1.9,1.9-8.6,1.2-17.1,2.7-25.6,4.6-2.2.5-1.8-1-1.8-2.2,0-13,0-26.1,0-39.1,0-2.2-.5-3.3-2.8-3.6-2.2-.2-4.3-1-7.2-1.6Z"/>
        <path class="cls-1" d="M59.9,429.9c0-10.3,0-20.2,0-30.1,0-2.3-.8-3.1-2.9-3-2,0-4,0-6-.3,8.9-4.4,18.1-8,27.4-11.4,1.8-.7,3.6-1.3,5.5-1.9,4.3-1.5,6.9.2,6.9,4.8,0,9.5,0,19,0,28.4,0,1.1,0,1.9-1.5,2.4-9.9,3.3-19.6,7-29.5,11.1Z"/>
        <path class="cls-1" d="M51.3,346.5c8.8-3.9,17.6-7.6,26.7-10.8,3.4-1.2,6,.6,6.1,4.3.2,7.5,0,15.1.1,22.6,0,1.3-.9,1.6-1.7,1.9-7,2.4-13.9,5.1-20.8,8-1.6.7-2,.3-2-1.4,0-7.1,0-14.1,0-21.2,0-2.2-.6-2.9-2.8-2.8-1.9.2-3.8,0-5.7,0v-.8Z"/>
        <path class="cls-1" d="M161.5,464.1c-1,0-1.9,0-2.9,0-5.3,0-5.3,0-5.2-5.3,0-1.6.4-2.2,2.1-2.1,3.7.1,7.3.1,11,0,2.1,0,3,.8,2.7,2.9,0,.7,0,1.4,0,2,.3,2-.4,2.8-2.5,2.6-1.7-.2-3.5,0-5.2,0Z"/>
        <path class="cls-1" d="M160,453.5c-1.2,0-2.3-.2-3.5,0-2.7.4-3.2-.8-3.3-3.3,0-2.7.9-3.2,3.2-3,2.7.2,5.4,0,8.1,0,3.3,0,1.8,2.4,2.1,4,.3,1.6-.1,2.5-2.1,2.3-1.5-.2-3.1,0-4.6,0Z"/>
        <path class="cls-1" d="M197.8,456.8c-.2,0-.4,0-.6,0-7.8,0-7.7,0-7.3-7.8,0-1.4.5-1.8,1.9-1.7,3.9,0,7.9,0,11.8,0,1.5,0,2,.5,2.1,2,.5,7.6.5,7.6-7,7.6h-.9Z"/>
      </g>
    </g>
  </g>
</svg>