<svg id="Layer_2" data-name="Layer 2" xmlns="http://www.w3.org/2000/svg" xmlns:xlink="http://www.w3.org/1999/xlink" viewBox="0 0 895 600"><defs><style>.cls-1{fill:none;}.cls-2{clip-path:url(#clip-path);}.cls-3{fill:#fff;}.cls-4,.cls-6{fill:#c8313e;}.cls-5{fill:#4aa657;}.cls-6{fill-rule:evenodd;}.cls-7{fill:#939598;}</style><clipPath id="clip-path"><path class="cls-1" d="M34.72,0H859.28A30.82,30.82,0,0,1,890,30.93V569.07A30.82,30.82,0,0,1,859.28,600H34.72A30.82,30.82,0,0,1,4,569.07V30.93A30.82,30.82,0,0,1,34.72,0Z"/></clipPath></defs><title>Belarus</title><g class="cls-2"><path class="cls-3" d="M0,14.33H0V583H0L390.86,293.65Z"/><rect class="cls-4" x="1" y="-0.05" width="894" height="598.67"/><rect class="cls-5" x="1" y="399.06" width="898" height="199.56"/><rect class="cls-3" x="1" y="-0.05" width="133.04" height="598.67"/><g id="h"><g id="q"><path class="cls-6" d="M24.14,0H41.49V9.76h5.78v9.82h5.79v9.81h5.78v9.82h5.79V49H58.84v9.82H53.06v9.81H47.27v9.81H41.49v9.82H35.71v9.81H29.92V88.28H24.14V78.46H18.35V68.65H12.57V58.84H6.78V49H1V39.21H6.78V29.39h5.79V19.58h5.78V9.76h5.79Zm5.78,19.63h5.79v9.81h5.78v9.82h5.78V49H41.49v9.82H35.71v9.81H29.92V58.84H24.14V49H18.35V39.21h5.79V29.39h5.78Zm0,19.63h5.79V49H29.92ZM1,9.76H6.78v9.82H1ZM1,68.65H6.78v9.81H1ZM64.63,0H68.1V19.58H64.63Zm0,68.7H68.1V88.28H64.63ZM12.57,88.28h5.78v9.81h5.79v9.82h5.78v9.81H24.14v9.82H18.35v9.81H12.57v-9.81H6.78v-9.82H1v-9.81H6.78V98.09h5.79Zm0,19.63h5.78v9.81H12.57Zm34.7-19.63h5.79v9.81h5.78v9.82h5.79v9.81H58.84v9.82H53.06v9.81H47.27v-9.81H41.49v-9.82H35.71v-9.81h5.78V98.09h5.78Zm0,19.63h5.79v9.81H47.27ZM1,147.16H6.78V157H1Zm63.63-9.81H68.1V157H64.63Z"/><path class="cls-6" d="M1,176.61H6.78v-9.82h5.79V157h5.78v-9.82h5.79v-9.81h5.78v-9.81h5.79v9.81h5.78v9.81h5.78V157h5.79v9.81h5.78v9.82h5.79v9.81H68.1v39.26H64.63v9.81H58.84v9.82H53.06v9.81H47.27v9.81H41.49v9.82H35.71v25.52H24.14v-5.89H18.35v-9.82H12.57v-9.81H6.78v-9.82H1V235.49H6.78v9.82h5.79v9.81h5.78v9.81h5.79v-9.81h5.78v-9.81h5.79v-9.82h5.78v-9.81h5.78v-9.82h5.79v-9.81H47.27v-9.82H41.49v-9.81H24.14v9.81H35.71v9.82H29.92v9.81H24.14v9.82H18.35v-9.82H12.57v-9.81H6.78v-9.82H1Zm0,39.25H6.78v9.82H1Zm63.63,29.45H68.1v9.81H64.63ZM53.06,264.93h5.78v9.82h5.79v9.81H68.1v15.71H64.63v-5.89H58.84v-9.82H53.06ZM41.49,294.38h5.78v5.89H41.49Z"/></g><path class="cls-6" d="M110.9,0H93.55V9.76H87.76v9.82H82v9.81H76.19v9.82H70.41V49h5.78v9.82H82v9.81h5.78v9.81h5.79v9.82h5.78v9.81h5.79V88.28h5.78V78.46h5.78V68.65h5.79V58.84h5.78V49H134V39.21h-5.79V29.39h-5.78V19.58h-5.79V9.76H110.9Zm-5.78,19.63H99.33v9.81H93.55v9.82H87.76V49h5.79v9.82h5.78v9.81h5.79V58.84h5.78V49h5.78V39.21H110.9V29.39h-5.78Zm0,19.63H99.33V49h5.79ZM134,9.76h-5.79v9.82H134Zm0,58.89h-5.79v9.81H134ZM70.41,0H66.94V19.58h3.47Zm0,68.7H66.94V88.28h3.47Zm52.06,19.63h-5.79v9.81H110.9v9.82h-5.78v9.81h5.78v9.82h5.78v9.81h5.79v-9.81h5.78v-9.82H134v-9.81h-5.79V98.09h-5.78Zm0,19.63h-5.79v9.81h5.79ZM87.76,88.28H82v9.81H76.19v9.82H70.41v9.81h5.78v9.82H82v9.81h5.78v-9.81h5.79v-9.82h5.78v-9.81H93.55V98.09H87.76Zm0,19.63H82v9.81h5.78ZM134,147.16h-5.79V157H134Zm-63.63-9.81H66.94V157h3.47Z"/><path class="cls-6" d="M134,176.61h-5.79v-9.82h-5.78V157h-5.79v-9.82H110.9v-9.81h-5.78v-9.81H99.33v9.81H93.55v9.81H87.76V157H82v9.81H76.19v9.82H70.41v9.81H66.94v39.26h3.47v9.81h5.78v9.82H82v9.81h5.78v9.81h5.79v9.82h5.78v25.52H110.9v-5.89h5.78v-9.82h5.79v-9.81h5.78v-9.82H134V235.49h-5.79v9.82h-5.78v9.81h-5.79v9.81H110.9v-9.81h-5.78v-9.81H99.33v-9.82H93.55v-9.81H87.76v-9.82H82v-9.81h5.78v-9.82h5.79v-9.81H110.9v9.81H99.33v9.82h5.79v9.81h5.78v9.82h5.78v-9.82h5.79v-9.81h5.78v-9.82H134Zm0,39.25h-5.79v9.82H134ZM70.41,245.31H66.94v9.81h3.47ZM82,264.93H76.19v9.82H70.41v9.81H66.94v15.71h3.47v-5.89h5.78v-9.82H82Zm11.57,29.45H87.76v5.89h5.79Z"/></g><path class="cls-6" d="M24.14,598.62H41.49V588.8h5.78V579h5.79v-9.82h5.78v-9.81h5.79v-9.81H58.84v-9.82H53.06v-9.81H47.27V520.1H41.49v-9.81H35.71v-9.82H29.92v9.82H24.14v9.81H18.35v9.82H12.57v9.81H6.78v9.82H1v9.81H6.78v9.81h5.79V579h5.78v9.81h5.79ZM29.92,579h5.79v-9.82h5.78v-9.81h5.78v-9.81H41.49v-9.82H35.71v-9.81H29.92v9.81H24.14v9.82H18.35v9.81h5.79v9.81h5.78Zm0-19.63h5.79v-9.81H29.92ZM1,588.8H6.78V579H1Zm0-58.88H6.78V520.1H1Zm63.63,68.7H68.1V579H64.63Zm0-68.7H68.1V510.29H64.63ZM12.57,510.29h5.78v-9.82h5.79v-9.81h5.78v-9.81H24.14V471H18.35v-9.81H12.57V471H6.78v9.82H1v9.81H6.78v9.81h5.79Zm0-19.63h5.78v-9.81H12.57Zm34.7,19.63h5.79v-9.82h5.78v-9.81h5.79v-9.81H58.84V471H53.06v-9.81H47.27V471H41.49v9.82H35.71v9.81h5.78v9.81h5.78Zm0-19.63h5.79v-9.81H47.27ZM1,451.4H6.78v-9.81H1Zm63.63,9.82H68.1V441.59H64.63Z"/><path class="cls-6" d="M1,422H6.78v9.82h5.79v9.81h5.78v9.81h5.79v9.82h5.78V471h5.79v-9.81h5.78V451.4h5.78v-9.81h5.79v-9.81h5.78V422h5.79v-9.81H68.1V372.89H64.63v-9.81H58.84v-9.82H53.06v-9.81H47.27v-9.82H41.49v-9.81H35.71V298.3H24.14v5.89H18.35V314H12.57v9.82H6.78v9.81H1v29.45H6.78v-9.82h5.79v-9.81h5.78v-9.82h5.79v9.82h5.78v9.81h5.79v9.82h5.78v9.81h5.78v9.81h5.79v9.82H47.27v9.81H41.49v9.82H24.14v-9.82H35.71v-9.81H29.92V382.7H24.14v-9.81H18.35v9.81H12.57v9.82H6.78v9.81H1ZM1,382.7H6.78v-9.81H1Zm63.63-29.44H68.1v-9.81H64.63ZM53.06,333.63h5.78v-9.81h5.79V314H68.1V298.3H64.63v5.89H58.84V314H53.06ZM41.49,304.19h5.78V298.3H41.49Z"/><path class="cls-6" d="M110.9,598.62H93.55V588.8H87.76V579H82v-9.82H76.19v-9.81H70.41v-9.81h5.78v-9.82H82v-9.81h5.78V520.1h5.79v-9.81h5.78v-9.82h5.79v9.82h5.78v9.81h5.78v9.82h5.79v9.81h5.78v9.82H134v9.81h-5.79v9.81h-5.78V579h-5.79v9.81H110.9ZM105.12,579H99.33v-9.82H93.55v-9.81H87.76v-9.81h5.79v-9.82h5.78v-9.81h5.79v9.81h5.78v9.82h5.78v9.81H110.9v9.81h-5.78Zm0-19.63H99.33v-9.81h5.79ZM134,588.8h-5.79V579H134Zm0-58.88h-5.79V520.1H134Zm-63.63,68.7H66.94V579h3.47Zm0-68.7H66.94V510.29h3.47Zm52.06-19.63h-5.79v-9.82H110.9v-9.81h-5.78v-9.81h5.78V471h5.78v-9.81h5.79V471h5.78v9.82H134v9.81h-5.79v9.81h-5.78Zm0-19.63h-5.79v-9.81h5.79ZM87.76,510.29H82v-9.82H76.19v-9.81H70.41v-9.81h5.78V471H82v-9.81h5.78V471h5.79v9.82h5.78v9.81H93.55v9.81H87.76Zm0-19.63H82v-9.81h5.78ZM134,451.4h-5.79v-9.81H134Zm-63.63,9.82H66.94V441.59h3.47Z"/><path class="cls-6" d="M134,422h-5.79v9.82h-5.78v9.81h-5.79v9.81H110.9v9.82h-5.78V471H99.33v-9.81H93.55V451.4H87.76v-9.81H82v-9.81H76.19V422H70.41v-9.81H66.94V372.89h3.47v-9.81h5.78v-9.82H82v-9.81h5.78v-9.82h5.79v-9.81h5.78V298.3H110.9v5.89h5.78V314h5.79v9.82h5.78v9.81H134v29.45h-5.79v-9.82h-5.78v-9.81h-5.79v-9.82H110.9v9.82h-5.78v9.81H99.33v9.82H93.55v9.81H87.76v9.81H82v9.82h5.78v9.81h5.79v9.82H110.9v-9.82H99.33v-9.81h5.79V382.7h5.78v-9.81h5.78v9.81h5.79v9.82h5.78v9.81H134Zm0-39.26h-5.79v-9.81H134ZM70.41,353.26H66.94v-9.81h3.47ZM82,333.63H76.19v-9.81H70.41V314H66.94V298.3h3.47v5.89h5.78V314H82Zm11.57-29.44H87.76V298.3h5.79Z"/></g><g id="Layer_1" data-name="Layer 1"><path class="cls-7" d="M863.1,6A25,25,0,0,1,888,30.9V569a24.9,24.9,0,0,1-24.9,24.9H32.9A24.82,24.82,0,0,1,8,569.1V30.9A25,25,0,0,1,32.9,6H863.1m0-6H32.9A30.86,30.86,0,0,0,2,30.9H2V569a30.88,30.88,0,0,0,30.9,31H863a30.86,30.86,0,0,0,30.9-30.9V30.9A30.71,30.71,0,0,0,863.1,0Z"/></g></svg>