<?xml version="1.0" encoding="UTF-8"?>
<svg xmlns="http://www.w3.org/2000/svg" version="1.1" xmlns:cc="http://creativecommons.org/ns#" xmlns:dc="http://purl.org/dc/elements/1.1/" xmlns:inkscape="http://www.inkscape.org/namespaces/inkscape" xmlns:rdf="http://www.w3.org/1999/02/22-rdf-syntax-ns#" xmlns:sodipodi="http://sodipodi.sourceforge.net/DTD/sodipodi-0.dtd" xmlns:svg="http://www.w3.org/2000/svg" viewBox="0 0 400 400">
  <!-- Generator: Adobe Illustrator 29.1.0, SVG Export Plug-In . SVG Version: 2.1.0 Build 142)  -->
  <defs>
    <style>
      .st0, .st1 {
        fill: #00954c;
      }

      .st2 {
        fill: #fff;
      }

      .st3 {
        fill: #d7013e;
      }

      .st1 {
        fill-rule: evenodd;
      }

      .st4 {
        fill: #de9500;
      }
    </style>
  </defs>
  <g id="Capa_1" inkscape:version="1.2 (dc2aeda, 2022-05-15)" sodipodi:docname="Logo Real Betis BalompieÌ - ancien.svg">
    <g>
      <path id="path1676" class="st2" d="M6.6,159.8h386.8l-193.4,192L6.6,159.8Z"/>
      <path id="rect1559" class="st1" d="M45,159.8v38.1l28.2,28v-66.1h-28.2ZM101.4,159.8v94.1l28.2,28v-122.1h-28.2ZM157.7,159.8v150l28.2,28v-178h-28.2ZM214.1,159.8v178l28.2-28v-150h-28.2ZM270.4,159.8v122.1l28.2-28v-94.1h-28.2ZM326.8,159.8v66.1l28.2-28v-38.1h-28.2Z"/>
      <path id="path3" class="st4" d="M0,157.9l200,198.6,200-198.6H0ZM16.9,164.8h366.3l-183.1,181.8L16.9,164.8Z"/>
      <path id="path500" class="st3" d="M130.8,120.4c2.3-16.4,10.9-26.5,20.8-33.3,13.7-9.5,34.1-13.8,48.7-13.8,14.6,0,35,4.3,48.7,13.8,9.8,6.8,18.5,16.9,20.8,33.3l-23,18.9-46.4-18.9-46.4,18.9-23-18.9Z" sodipodi:nodetypes="cscsccccc"/>
      <path id="path47" class="st4" d="M287.2,97.2c0-8.3-3.6-16.3-10.2-22.5-7.1-6.6-16.6-10.3-27.1-10.6-8.1-11.3-24-19.4-42.9-21.1,0-3.2-2.2-5.9-5.1-6.8v-1.3h3.5s0-4,0-4h-3.5s0-2.7,0-2.7h-2s-2,0-2,0v2.7s-3.5,0-3.5,0v4s3.5,0,3.5,0v1.3c-2.9.9-5.1,3.6-5.1,6.8-18.8,1.7-34.8,9.8-42.9,21.1-10.5.3-20,4-27.1,10.6-6.6,6.2-10.2,14.2-10.2,22.5s4.7,17.7,13.2,24.4c0,.2,0,.4,0,.6,0,4.9,3.9,8.8,8.8,8.8s1.9-.2,2.8-.4c.7,1.4,3.1,5,8.6,5.1-.3.2-.7.5-1,.7-.9.7-2.3,2.6-.8,5,.7,1.1,1.7,1.6,2.9,1.6s.8,0,1.2-.2l4.5,6.2.9-.7c13.5-9.9,29.4-15.1,46.1-15.1s32.6,5.2,46.1,15.1l.9.7,4.5-6.2c.3,0,.7.2,1.2.2,1.2,0,2.2-.6,2.9-1.6,1.5-2.3.1-4.3-.8-5-.3-.3-.7-.5-1-.7,5.6-.1,7.9-3.7,8.6-5.1.9.3,1.8.4,2.8.4,4.9,0,8.8-3.9,8.8-8.8s0-.4,0-.6c8.5-6.7,13.2-15.3,13.2-24.4h0ZM160.5,122.9c-1.8,0-3.5-.7-4.8-1.9.3-.5.5-1,.5-1.6,0-1.6-1.3-2.9-2.9-2.9s-2.9,1.3-2.9,2.9,1.2,2.8,2.7,2.9c0,.3,0,.5,0,.8,0,3.8-3.1,6.9-7,6.9s-3.6-.7-4.8-1.9c1.4-1.6,2.3-3.6,2.3-5.9,0-4.9-3.9-8.8-8.8-8.8s-1.7.1-2.5.4c-.4.1-.7.2-1.1.4-6-4.9-9.4-10.9-9.4-16.9s2.6-11.5,7.3-15.9c4.3-4.1,9.9-6.7,16.1-7.7-.7,2.4-1,4.8-1,7.3s.7,6.8,1.9,10c2.1,5.3,5.8,10.3,10.9,14.5,0,.1,0,.3,0,.4,0,4.9,3.9,8.8,8.8,8.8s1,0,1.4-.1c0,.5.2.9.2,1.4,0,3.8-3.1,6.9-7,6.9ZM198.5,110.8c-.6,1.8-1.8,3.2-3.5,4-1.7.8-3.6,1-5.3.4-1.7-.6-3.1-1.8-3.9-3.3.4-.3.8-.8,1-1.4.5-1.5-.3-3.2-1.9-3.7-1.5-.5-3.2.3-3.7,1.9-.5,1.5.2,3,1.6,3.6,0,.3-.1.5-.2.8-.6,1.8-1.8,3.2-3.5,4-1.7.8-3.6,1-5.3.4-1.8-.6-3.2-1.8-4-3.5h0c2.9-1.5,5-4.5,5-8s-3.9-8.8-8.8-8.8-2.5.3-3.5.8c-4.3-3.7-7.1-8.1-8.3-12.6-.4-1.4-.5-2.9-.5-4.3,0-14.8,18.8-27.5,42-29v41.2c-2.6,1.5-4.3,4.3-4.3,7.6s3.3,8.1,7.6,8.7c0,.5-.1.9-.3,1.4h0ZM230.3,113.9c-.8,1.7-2.3,2.9-4,3.5-1.8.6-3.6.5-5.3-.4-1.7-.8-2.9-2.3-3.5-4,0-.3-.2-.5-.2-.8,1.4-.6,2.1-2.2,1.6-3.6-.5-1.5-2.2-2.4-3.7-1.9-1.5.5-2.4,2.2-1.9,3.7.2.6.5,1,1,1.4-.8,1.5-2.2,2.8-3.9,3.3-1.8.6-3.6.5-5.3-.4-1.7-.8-2.9-2.2-3.5-4-.2-.5-.2-.9-.3-1.4,4.3-.6,7.6-4.3,7.6-8.7s-1.7-6-4.3-7.6v-41.2c23.2,1.5,42,14.2,42,29s-.2,2.9-.5,4.3c-1.1,4.5-4,8.8-8.3,12.6-1.1-.5-2.3-.8-3.5-.8-4.9,0-8.8,3.9-8.8,8.8s2,6.5,5,7.9h0ZM268.7,114.1c-.3-.2-.7-.3-1.1-.4-.8-.2-1.6-.4-2.5-.4-4.9,0-8.8,3.9-8.8,8.8s.9,4.3,2.3,5.9c-1.2,1.2-2.9,1.9-4.8,1.9-3.8,0-7-3.1-7-6.9s0-.5,0-.8c1.5-.1,2.7-1.4,2.7-2.9s-1.3-2.9-2.9-2.9-2.9,1.3-2.9,2.9.2,1.1.5,1.6c-1.3,1.2-3,1.9-4.8,1.9-3.8,0-7-3.1-7-6.9s0-.9.2-1.4c.5,0,.9.1,1.4.1,4.9,0,8.8-3.9,8.8-8.8s0-.3,0-.4c5.1-4.2,8.8-9.2,10.9-14.5,1.2-3.2,1.9-6.6,1.9-10s-.4-5-1-7.3c6.3,1,11.8,3.6,16.1,7.7,4.7,4.4,7.3,10.1,7.3,15.9s-3.3,12-9.4,16.9h0Z" inkscape:connector-curvature="0"/>
      <path id="path1249" class="st4" d="M200,136.6c41.2,0,74.8,33.6,74.8,74.8s-33.6,74.8-74.8,74.8-74.8-33.5-74.8-74.8,33.6-74.8,74.8-74.8" inkscape:connector-curvature="0"/>
      <path id="path5" class="st2" d="M200,143.8c37.3,0,67.6,30.3,67.6,67.6s-30.3,67.6-67.6,67.6-67.6-30.3-67.6-67.6,30.3-67.6,67.6-67.6" inkscape:connector-curvature="0"/>
      <path id="path7" class="st0" d="M168.8,198.3h5.6v-8.5h-5.6v-10.2h16.4v27.9h-16.4v-9.2M168.8,235h5.6v-8.5h-5.6v-9.1h16.4v27.2h-16.4v-9.6ZM214.6,244.7h-19.8v-27.2h3.9v2.9h5.6v-2.9h7.9c2.2,0,2.5,3.9,2.5,3.9v23.3h0ZM214.6,201.8v1.3s-.5,4.4-3.4,4.4h-7v-3.7h-5.6v3.7h-3.9v-27.9h19.8v22.2h0ZM239,235.8c-.5,1.5-3.1,8.8-5.9,8.8s-.2,0-.3,0h-9.5v-23.7h0c-.1-1.6-.8-3.3-.9-3.5h9.9c.8,0,7.2,2.6,7.3,10.6h-6.3v7.7h5.9ZM239.5,198.1h0s-3.5,9.4-6.5,9.4h-.2s-10.8,0-10.8,0c.2-.3,1.3-2.5,1.3-4.4v-23.5h9.2c.2,0,7,2.5,7,10.8h-6.3v7.7h6.3ZM254.3,190.4h-5.7c0,0-1.2-15.2-12.6-20.2h-12.2v-.3c0-12.3-9-14.8-15.6-14.8s-9.6,2.7-9.6,2.7v8.9s.2-3.1,8.6-3.1,7.6,6.6,7.6,6.6h0s-20,0-20,0v-5.4c0-9.2-4.6-11.6-10.1-11.6h-3.8v9.8h2.3c1.5,0,1.9,1.1,1.9,1.9v5.2h-30.8v9.4h6.7v10.2h-6.7v8.5h6.7v9.2h-6.7v10h6.7v9.1h-6.7v8.5h6.7v9.6h-6.7v8.5h30.3v2.4c0,1.6-1.5,1.4-1.5,1.4h-3.1v9.8h6.1c2.5,0,8.3-2.6,8.3-9.1v-4.6h20.1c0,4.5-2.3,6.6-8.5,6.6s-7.9-3-7.9-3v8.9c1.8,2,9.4,2.6,9.4,2.6,15.3,0,15.7-12.8,15.7-15.2h13.6s9.7-4.1,11-17.3h6.4v-7.7h-6c0-.6-.3-12.9-6.8-16.4,0,0,6.3-3.5,6.3-13.6h0s6.5,0,6.5,0v-7.7Z" inkscape:connector-curvature="0"/>
    </g>
  </g>
</svg>