<?xml version="1.0" encoding="UTF-8"?>
<svg id="Layer_1" xmlns="http://www.w3.org/2000/svg" version="1.1" viewBox="0 0 400 400">
  <!-- Generator: Adobe Illustrator 30.0.0, SVG Export Plug-In . SVG Version: 2.1.1 Build 123)  -->
  <defs>
    <style>
      .st0 {
        fill: #781314;
      }

      .st1 {
        fill: #012d81;
      }

      .st2 {
        fill: #fefefe;
      }
    </style>
  </defs>
  <path class="st0" d="M356.8,18c0,9.2-.1,18.5,0,27.7.5,47,1.3,94.5,0,141.5-.9,32.4-4.7,60.5-17.4,90.4-25.5,60-79.2,99.9-139.5,120.8-60.2-21.3-113.8-60.8-139.2-120.8-12.7-30-16.5-58-17.4-90.4-1.3-46.8-.5-94.2,0-141.1.1-9.4-.1-18.8,0-28.1,36.9-3.5,73.4-10.4,110.3-14.1s68.5-2.9,104.7,1.2c32.9,3.7,65.6,9.6,98.5,13ZM344.5,32.2c-31-3.3-61.7-8.8-92.7-12.3-33.1-3.7-62.4-4.2-95.6-.8s-67.1,9.7-100.8,13c0,6.8.1,13.7,0,20.5-.7,46.1-1.5,92.4,0,138.4,1.1,34.8,6.9,65.7,23.6,96.5,25.5,46.9,71.3,78,120.8,95.6,49.5-17.3,95.5-48.8,121-95.6,16.8-30.9,22.6-61.8,23.6-96.8,1.4-45.8.7-91.8,0-137.7-.1-6.9.1-13.9,0-20.8Z"/>
  <path class="st2" d="M344.5,32.2c.1,6.9,0,13.9,0,20.8.7,45.8,1.4,91.9,0,137.7-1.1,35-6.8,65.9-23.6,96.8-25.5,46.8-71.5,78.3-121,95.6-49.4-17.6-95.2-48.8-120.8-95.6-16.8-30.8-22.5-61.6-23.6-96.5-1.5-46-.7-92.3,0-138.4.1-6.8-.1-13.7,0-20.5,33.7-3.3,67.1-9.6,100.8-13s62.5-2.9,95.6.8c31,3.4,61.7,9,92.7,12.3ZM335.8,42.1c-35.9-3.5-71.3-10.6-107.3-13.4-23.2-1.8-45.3-1.2-68.4,1.1-32,3.2-63.7,9.3-95.8,12.2l-.8,76.5c17.3-1.2,34.5-2.9,51.8-4.2,31-2.3,63.1-5.1,94.1-4.2,30.9.9,62,3.3,92.9,5.7,11.4.9,22.8,2.1,34.2,3.1l-.8-76.9ZM336.5,130.8v-.7c-19.7-1.7-39.4-3.6-59.1-5-33.4-2.4-66.8-5-100.2-3.5-26.2,1.2-52.6,3.3-78.8,5.4-11.7.9-23.3,2-35,3.1.1,14.1-.3,28.2,0,42.3.4,24.4,1.4,48.5,7.8,72.2,10.5,38.7,31.9,68.5,63.4,92.5,20,15.2,41.6,26.9,65.5,35.1,55.7-19.7,103.6-56.8,124.2-113.7,14.9-41.2,11.6-84.4,12.2-127.5Z"/>
  <path class="st0" d="M134.6,337c-31.5-23.9-52.9-53.8-63.4-92.5-6.4-23.7-7.4-47.7-7.8-72.2-.2-14.1.2-28.2,0-42.3,11.6-1,23.3-2.1,35-3.1,26.1-2.1,52.6-4.2,78.8-5.4,33.4-1.5,66.8,1,100.2,3.5,19.7,1.4,39.4,3.3,59.1,5v.7c-1.4.2-3.1,1.9-4.2,2.9-18.9,16.5-37.3,33.9-56.2,50.5-5.5,4.9-14.7,14-20.7,17.4-4.3,2.5-6.3,5.2-10.1,8.4-10.7,9-24.1,17.1-36.1,23.3s-2.1,1.1-2.3,1.1-.6-.4-1.1-.2c-2.5.9-4.9,2.4-7.6,2.8s-1.7.4-1.6-.3c12.7-6.2,25.8-12.8,37.2-21.1,2.5-1.8,5.3-3.8,7.5-5.9s3.8-3.6,4-4c.5-1-1.4-2.6-2.1-3.2-17.8-16-51.6-12.1-67.1,5.5s-11.4,25.6-12.8,41.9c-1.3,14.4-8.4,32.9-15.1,45.7s-2.1,3-2.5,4,1.2.6,1.7.6c12.5-.5,25-1.8,37.5-2.7,1.4-.1,3.1.2,4.4,0l-8.1,6.7c-15.4,11.1-30.8,22.2-46.6,32.7ZM203.4,136.8v15.1h-5v-15.3c-2.4-.3-22.5,3.4-22.6,4.8l11.1,24.5c-1,.4-3.7,2.2-4.5,1.7l-11.2-24.4c-.8-.6-11.6,5.7-12.9,7.1l11,24.3-4.6,1.9-10.9-22.9c-6.4,5.1-11.8,11.2-16.6,17.8s-5.3,7.4-5.4,8c0,1,14.5,8.9,16.4,10.1.4.6-1.9,4.4-2.5,4.5l-16.1-9.5c-.5-.1-.6.3-.8.6-4.2,7.3-5.3,18.3-6.6,26.5l14.1-2.3.8,5.4-14.9,2.3v8s15.8-2.7,15.8-2.7l1,4.8-16.9,3.3c1.4,11,3.8,21.9,6.9,32.5l9.2-11.1c.7-.5,3.4,2.5,4.1,2.9-3.2,5.2-8.1,9.4-11.5,14.5,1.6,7.7,3.4,15.4,3.8,23.3.1,2.4-.4,5.8,0,8s.3.9.6.9c.5,0,3.9-1.6,4.4-2.1,2.7-2.5,5.3-9.4,6.6-12.9,3.6-9.8,8.4-23.9,10.4-33.9s-.1-12.7.2-19.7c1.7-37.6,37.8-51.5,70.8-44.4,8.5,1.8,16.4,5.7,24.2,9.3l26.6-30.7c-1.1-.9-7-7.6-7.8-7.4l-16.3,15.6-2.7-3.6,16.4-14.5c-2.7-2.9-5.8-5.4-8.9-7.8l-10.4,9.9c-.4-.5-2.8-2.5-2.8-2.8,0-1,7.9-9.8,7.4-10.5-6.7-4.1-14.4-6.4-22.2-7.7l-11.1,29.5c-1,1.2-3.4-1-4.8-.8l10.3-29.8c-6.7,0-14.6-1.6-21.2-.8s-1.2,0-1.3.6Z"/>
  <path class="st1" d="M336.5,130.8c-.6,43.2,2.7,86.3-12.2,127.5-20.6,56.8-68.5,94-124.2,113.7-23.9-8.2-45.5-19.9-65.5-35.1,15.8-10.5,31.2-21.7,46.6-32.7l8.1-6.7c3.7-.6,7.8-11.3,8.9-14.6s1.2-5.9,2.1-7.8.3-1,.9-.5c1.5,1.4.4,16.7,1.6,19.8l34,15.7c-2.9-19.8-8.6-39.4-18.3-56.9-3.6-6.5-7.8-12.5-11.5-18.9.2,0,1.9-.9,2.3-1.1,16.8,23.3,26.8,50.2,30.7,78.7l24.1,12.8,1.4.3c-3.8-18-6-36.4-10.1-54.3-.6-2.4-1.9-9.3-2.8-11s-6.5-2.6-8.2-3.3c-4.7-1.8-13.3-5.3-16.1-9.5s0-1.5,1.5-1.5,3.1,0,4.6,0l23.9,1.9c2.8,11.2,1.6,26.7,16.5,28.6-4.4-15.3-5.7-31.4-9.6-46.8s-6-18.6-9.5-27.8c5.9-3.4,15.1-12.5,20.7-17.4,18.9-16.6,37.3-34,56.2-50.5s2.8-2.7,4.2-2.9Z"/>
  <path class="st1" d="M335.8,42.1l.8,76.9c-11.4-1-22.8-2.2-34.2-3.1-30.9-2.5-62-4.8-92.9-5.7-31-.9-63,1.9-94.1,4.2-17.3,1.3-34.5,3.1-51.8,4.2l.8-76.5c32.1-2.9,63.8-9,95.8-12.2,23.1-2.3,45.3-3,68.4-1.1,35.9,2.8,71.4,9.9,107.3,13.4ZM222.2,41.7l-49.7.4v9.9c.7-.2,2.8-1.9,3.3-1.9h13.2v45.7c0,.5-.9,1.8-.8,2.5h18.4l-.8-4.4v-43.6c.5-1.4,4.6-.3,5.9-.2,2.2,0,5.2-.3,7.3,0s1.9,1.3,3.2,1.5v-9.9ZM166.3,52.4v-9.8c0-1.1-2.7-.2-3.3-.2-12.9.5-25.7,1.4-38.6,2.3-1.3,0,.1,2.5.2,3.6,1.6,15.6-1.2,33.9,0,49.8l-1.2,3.6,42.4-2.7v-10.3c-3.2,2.8-6.3,2-10.1,2.3s-10.6.8-15.9,1.1v-15.7l17.4-1.2c2.4.2,4.8-.6,6.7,1.2v-11.5c-2.6,2.3-5.8,1.3-9,1.5-5,.3-10.1.8-15.1,1.1v-15.7l21.2-1.2,5.1,1.5ZM246.7,42.9l-18-.8.8,3.2c-.8,15.8,1,32.5,0,48.2-.1,1.8-.7,3.4-.8,5.1l18.4.8c-.4-1.4-.7-2.5-.8-4-1-15.1-.5-34.9,0-50.1,0-.9.4-1.6.4-2.5ZM265,97.4v-33.1l24.7,33.3c1.6,1.4,6.3.7,8.4,1.6l17.8-29.1c-.3,9,.5,18.4,0,27.4,0,1.6-.2,4.3-.4,5.7s-1.2,2.2-1.1,2.7c.2.9,16.4,2.5,18.4,2.9-.5-1-1.3-2-1.2-3.2,1.2-15.9-1.5-34.1,0-49.8s1.2-3.1,1.2-3.4c-.2-1.1-19.9-3-22.2-3.5l-16.6,25.1-20.9-28.9-1.7-.6-17.8-1.1c.6,1.7,1,2.9,1.2,4.8,1.2,15.7-.9,32.8,0,48.6l-1.2,3.6,13,.8c-.3-1-1.4-2.7-1.5-3.6ZM107.8,74.2c2.5-2.2,5.4-4.2,7.2-7.1,6-9.7-.6-19.9-11.6-19.9l-34.6,4.5,1.2,2.5c-.4,15.8,1.8,34.1.4,49.8-.2,2-.9,3.1-1.9,4.8l37.9-5.1c13-3,15.3-26,1.4-29.3Z"/>
  <path class="st2" d="M189.3,297.6c-1.3.2-3,0-4.4,0-12.4.9-25,2.2-37.5,2.7-.5,0-2.1.3-1.7-.6s1.9-2.9,2.5-4c6.7-12.8,13.8-31.3,15.1-45.7,1.4-16.3,1.2-28.7,12.8-41.9s49.3-21.5,67.1-5.5c.7.6,2.6,2.3,2.1,3.2s-3.4,3.4-4,4c-2.2,2-5.1,4.1-7.5,5.9-11.4,8.3-24.5,14.9-37.2,21.1,0,.7,1.2.3,1.6.3,2.7-.4,5.1-1.9,7.6-2.8s1.1.2,1.1.2c3.7,6.3,8,12.4,11.5,18.9,9.6,17.5,15.4,37.1,18.3,56.9l-34-15.7c-1.2-3.1-.1-18.4-1.6-19.8s-.7,0-.9.5c-.9,2-1.4,5.5-2.1,7.8-1.1,3.3-5.2,14-8.9,14.6Z"/>
  <path class="st2" d="M255.4,201.6c3.6,9.1,7.1,18.2,9.5,27.8,3.9,15.4,5.2,31.5,9.6,46.8-14.8-1.9-13.7-17.5-16.5-28.6l-23.9-1.9c-1.5,0-3.1,0-4.6,0s-3.3-1.2-1.5,1.5c2.8,4.2,11.5,7.7,16.1,9.5,1.7.7,7.6,2.1,8.2,3.3.9,1.7,2.2,8.6,2.8,11,4.2,17.9,6.3,36.3,10.1,54.3l-1.4-.3-24.1-12.8c-3.9-28.5-13.9-55.4-30.7-78.7,12-6.3,25.4-14.4,36.1-23.3,3.8-3.2,5.8-5.9,10.1-8.4Z"/>
  <path class="st2" d="M203.4,136.8c.2-.5.9-.5,1.3-.6,6.7-.8,14.5.7,21.2.8l-10.3,29.8c1.4-.2,3.8,2,4.8.8l11.1-29.5c7.8,1.3,15.5,3.5,22.2,7.7.5.7-7.4,9.6-7.4,10.5s2.4,2.3,2.8,2.8l10.4-9.9c3.1,2.4,6.2,4.9,8.9,7.8l-16.4,14.5,2.7,3.6,16.3-15.6c.7-.1,6.6,6.5,7.8,7.4l-26.6,30.7c-7.8-3.6-15.7-7.5-24.2-9.3-32.9-7.1-69.1,6.8-70.8,44.4-.3,7,1.2,12.5-.2,19.7s-6.9,24.1-10.4,33.9-3.8,10.4-6.6,12.9c-.6.5-4,2.1-4.4,2.1s-.5-.6-.6-.9c-.4-2.2.2-5.6,0-8-.5-7.9-2.2-15.6-3.8-23.3,3.4-5.2,8.3-9.3,11.5-14.5-.7-.4-3.4-3.4-4.1-2.9l-9.2,11.1c-3.1-10.6-5.5-21.5-6.9-32.5l16.9-3.3-1-4.8-15.8,2.7v-8s14.9-2.3,14.9-2.3l-.8-5.4-14.1,2.3c1.3-8.2,2.4-19.2,6.6-26.5s.3-.8.8-.6l16.1,9.5c.6-.1,2.9-3.8,2.5-4.5-1.9-1.3-16.4-9.2-16.4-10.1s4.6-7,5.4-8c4.8-6.6,10.2-12.8,16.6-17.8l10.9,22.9,4.6-1.9-11-24.3c1.3-1.3,12.2-7.6,12.9-7.1l11.2,24.4c.9.6,3.6-1.3,4.5-1.7l-11.1-24.5c0-1.3,20.1-5.1,22.6-4.8v15.3h5v-15.1ZM206.5,140.8v14.1c-3.6-1-7.5.2-11.1-.4v-13l-14.5,2.7,10.2,22.2c.3.5.1.6-.2,1s-9.1,4.5-9.6,4.2l-11.2-23.1-7.2,4,10.6,23.1-10.2,4.6-9.4-20.6c-2,.6-10.7,11.4-12.4,13.6s-3.7,5-3.8,5.8,0,.8.3,1.1l14.5,8.8-5.4,9.3-15.3-8.8-4.6,18.4,11.5-1.9,1.9,11.1c-1.7.6-13.6,1.8-14.1,2.3s0,1.4,0,1.9l14.2-2.1c.4.3,1.9,9.3,1.9,10s-.2.8-.7.9l-14.7,2.4c1,7.7,2.3,15.5,4.6,22.9l6.7-7.6,8.2,6.6c-3.3,5-7.8,9.2-11.3,14.1,1.9,7.6,3.4,15.3,3.8,23.1,2.2-3.9,3.4-8.2,4.8-12.4,2.8-8.4,6.6-18.7,8.3-27.3,1.6-7.7-.3-15.3.5-23.2,4-38.5,42.9-52.3,76.9-44.4,7.6,1.8,14.8,5,21.9,8.2l22-25.4c-.8-.6-2.5-3.2-3.4-2.7l-16.1,15.1c-.4-1.8-6.4-7.2-6.1-8.5l14.5-13.5c-.8-.5-3.5-3.4-4.2-3.1s-1.7,2-2.3,2.7-6.2,6.4-6.7,6.3l-7.8-6.7c.5-1.4,6.2-8.6,5.6-9.4-2.7-.9-5.3-2.1-8-2.9s-5.3-1.5-6.3-1.4-.8.2-.9.7l-10,28c-1.4,0-10.1-3.1-10.3-3.7v-1s9.5-25.9,9.5-25.9l-14.9-.4Z"/>
  <path class="st2" d="M265,97.4c.1.9,1.2,2.7,1.5,3.6l-13-.8,1.2-3.6c-.9-15.8,1.2-32.9,0-48.6-.1-1.8-.6-3.1-1.2-4.8l17.8,1.1,1.7.6,20.9,28.9,16.6-25.1c2.3.5,22,2.4,22.2,3.5s-1,2.2-1.2,3.4c-1.5,15.7,1.2,33.8,0,49.8,0,1.2.7,2.2,1.2,3.2-2-.4-18.2-2-18.4-2.9s1-1.8,1.1-2.7c.2-1.4.3-4.1.4-5.7.4-9-.4-18.3,0-27.4l-17.8,29.1c-2.2-.9-6.8-.2-8.4-1.6l-24.7-33.3v33.1Z"/>
  <path class="st2" d="M107.8,74.2c13.9,3.3,11.6,26.4-1.4,29.3l-37.9,5.1c1-1.6,1.7-2.8,1.9-4.8,1.4-15.7-.8-33.9-.4-49.8l-1.2-2.5,34.6-4.5c11,0,17.6,10.2,11.6,19.9s-4.7,4.9-7.2,7.1ZM85.3,58.2v15.7l13.1-1.6c1.1-.3,1.3-3.3,1.4-4.3.1-1.6.2-10.6-.8-11.2l-13.7,1.5ZM85.3,81.1v15.7l13.3-1.8c.9-.4,1.2-3.1,1.2-4.1.1-1.6.2-10.6-.8-11.2l-13.7,1.5Z"/>
  <path class="st2" d="M166.3,52.4l-5.1-1.5-21.2,1.2v15.7c5-.3,10.1-.8,15.1-1.1s6.4.8,9-1.5v11.5c-1.9-1.8-4.3-1-6.7-1.2l-17.4,1.2v15.7c5.3-.3,10.6-.8,15.9-1.1s6.9.5,10.1-2.3v10.3l-42.4,2.7,1.2-3.6c-1.2-15.9,1.6-34.1,0-49.8-.1-1.1-1.5-3.5-.2-3.6,12.9-.9,25.7-1.8,38.6-2.3.5,0,3.3-.9,3.3.2v9.8Z"/>
  <path class="st2" d="M222.2,41.7v9.9c-1.3-.2-1.8-1.3-3.2-1.5s-5.1,0-7.3,0-5.4-1.2-5.9.2v43.6c0,0,.7,4.4.7,4.4h-18.4c-.1-.7.8-2,.8-2.5v-45.7h-13.2c-.5,0-2.5,1.7-3.3,1.9v-9.9l49.7-.4Z"/>
  <path class="st2" d="M246.7,42.9c0,.8-.4,1.6-.4,2.5-.5,15.3-1,35.1,0,50.1,0,1.5.4,2.6.8,4l-18.4-.8c0-1.8.7-3.4.8-5.1,1-15.7-.8-32.4,0-48.2l-.8-3.2,18,.8Z"/>
  <path class="st0" d="M206.5,140.8l14.9.4-9.5,25.9v1c.1.6,8.9,3.6,10.2,3.7l10-28c.1-.5.4-.6.9-.7,1-.1,5,1,6.3,1.4,2.7.8,5.4,1.9,8,2.9.6.8-5.2,7.9-5.6,9.4l7.8,6.7c.5,0,5.8-5.4,6.7-6.3s1.6-2.4,2.3-2.7,3.4,2.6,4.2,3.1l-14.5,13.5c-.3,1.3,5.7,6.7,6.1,8.5l16.1-15.1c1-.5,2.6,2.1,3.4,2.7l-22,25.4c-7.1-3.1-14.3-6.4-21.9-8.2-34-7.9-72.8,5.9-76.9,44.4s1,15.5-.5,23.2c-1.7,8.5-5.5,18.9-8.3,27.3s-2.6,8.6-4.8,12.4c-.5-7.8-2-15.5-3.8-23.1,3.5-4.9,8-9.1,11.3-14.1l-8.2-6.6-6.7,7.6c-2.3-7.5-3.6-15.2-4.6-22.9l14.7-2.4c.5-.1.6-.4.7-.9,0-.7-1.5-9.7-1.9-10l-14.2,2.1c0-.5-.1-1.7,0-1.9.5-.5,12.4-1.8,14.1-2.3l-1.9-11.1-11.5,1.9,4.6-18.4,15.3,8.8,5.4-9.3-14.5-8.8c-.4-.3-.4-.6-.3-1.1.1-.7,3.1-4.8,3.8-5.8,1.6-2.3,10.4-13.1,12.4-13.6l9.4,20.6,10.2-4.6-10.6-23.1,7.2-4,11.2,23.1c.4.3,9.2-3.9,9.6-4.2s.5-.5.2-1l-10.2-22.2,14.5-2.7v13c3.6.6,7.5-.7,11.1.4v-14.1Z"/>
  <path class="st1" d="M85.3,81.1l13.7-1.5c1,.6.9,9.6.8,11.2s-.3,3.8-1.2,4.1l-13.3,1.8v-15.7Z"/>
  <path class="st1" d="M85.3,58.2l13.7-1.5c1,.6,1,9.6.8,11.2s-.3,4-1.4,4.3l-13.1,1.6v-15.7Z"/>
</svg>