<?xml version="1.0" encoding="UTF-8"?>
<svg id="Layer_1" xmlns="http://www.w3.org/2000/svg" version="1.1" viewBox="0 0 400 400">
  <!-- Generator: Adobe Illustrator 29.1.0, SVG Export Plug-In . SVG Version: 2.1.0 Build 142)  -->
  <defs>
    <style>
      .st0 {
        fill: #fff;
      }

      .st1 {
        fill: #069e08;
      }
    </style>
  </defs>
  <path class="st1" d="M368.7,2.9c0,42.9-.2,85.7.9,128.6.8,31.1,2.1,62.5-3.8,93.1-9.2,47.1-35.7,89.8-71,122.4-19.2,17.8-41.1,32.8-65.1,43.3-9.8,4.3-20.3,7.9-31,7.5-8.3-.3-16.3-3-24-6.1-49-19.8-90.9-56.9-116.4-103.3-21.3-38.7-31.1-83.6-28.2-127.7,3.1-47.2,1.3-94.9,1.4-142.1,0-5.3,0-10.7,0-16,112.4-.4,224.7-.5,337.1-.2,0,.2,0,.4,0,.6Z"/>
  <path class="st0" d="M351.8,27.9v-9H48v196.4c0,3.6,5.4,19.2,6.9,23.6,21.9,63.5,69,117.2,133.3,139.3,2.8,1,9.4,3.6,12,3.6s7.2-2.1,9.2-2.7c62.7-20.6,110.3-72.5,133.2-133.4,3.6-9.7,8.5-23.5,9.1-33.6,0-.4,0-.8,0-1.2,0-2.4,0-4.8,0-7.2.6-42,.1-84.1,0-126.1,0-6,0-12,0-17.9s0-7.2,0-10.8c0-5.6.2-11.2,0-16.7s0-2.8,0-4.2Z"/>
  <path class="st1" d="M53.4,23.7h293.6v192.2c0,3.2-5.7,19.2-7.2,23.3-23.1,64.9-72.7,119-140.2,137.7-75.6-21.8-130.1-88.4-146.8-164V23.7c.2,0,.4,0,.6,0ZM339.8,31.5H60l.6,182.1c15.9,67.6,63.8,129.8,130.7,152.7,7.9,2.7,8.5,3,16.6.4,60.5-19.5,107.2-75.5,126.6-134.6,1.1-3.3,5.4-16.1,5.4-18.5V31.5Z"/>
  <path class="st1" d="M318,238.2c-1.5,4-3.2,8.1-4.9,12-4.8,10.8-10.9,20.6-16.7,30.9-3.1,5.5-7.6,10.3-11.5,15.2-5.2,6.5-10.9,12.6-16.9,18.4-9.8,9.3-20.6,17.4-32.2,24.4s-11.8,6.7-18,9.5c-3,1.4-6.1,2.7-9.2,3.8s-5.3,2.6-7,2.6c-1,0-2,0-3,0-2,0-5.6-2.1-7.6-2.8s-4.7-1.8-7.1-2.9c-5.5-2.5-11-5.2-16.2-8.2-10.8-6.2-22.2-13.3-31.3-22-12.9-12.4-24.5-26.2-34.3-41.3-10.1-15.6-18.8-32.1-24.1-49.9-1.9-6.2-4.3-12.5-4.4-19.1,0-2.2,0-4.5,0-6.7,0-7.4,0-14.9,0-22.3,0-17.2,0-34.4,0-51.6,0-.7,0-13.6,0-13.6,3,0,6,0,9,0,80.1-.7,160.3.5,240.4,0h3c1,4.1.5,8.4.6,12.6.3,15.4.6,30.9.7,46.3s0,15.5-.2,23.2c-.2,7,0,14.2-2,20.9-2.1,7-4.5,13.8-7.1,20.6ZM240,327.4c5.5-4,11.1-7.7,16.4-12.2,5.2-4.5,10.2-9.3,14.9-14.3,9.4-10.2,17.7-21.5,24.7-33.4,6.4-10.9,11.9-22.4,16.3-34.2,1.5-4,7.2-19.6,7.2-22.7v-88.8H80.9v90.6c0,1.8,3.6,12,4.5,14.6,16.4,48.7,51,92.4,98.1,114.1,2.5,1.2,14.8,6.6,16.6,6.5,6.7-.2,12.2-4.2,17.9-7.1,6.5-3.3,13.1-6.4,19-10.9,1-.7,2-1.5,3-2.2Z"/>
  <path class="st1" d="M298.6,62c-6.3-3-11.5-5.5-18.8-4.7-18.1,2.1-17.3,29,0,30.4,7.8.7,12.8-1.8,19.5-5.4v11.7c0,2.1-13,5.4-15.3,5.6-39.1,3.3-39.8-55-1.1-54.4,2.4,0,15.8,2.9,15.8,5.1v11.7Z"/>
  <path class="st1" d="M213.7,60.2c-6-2.2-11.3-5.4-18-3.9s-4,3.5-1.7,5.9,11.3,5.1,15.3,8c6.7,4.8,8.4,13.3,4.9,20.7-5.8,12-23.4,10.1-32.8,3.7v-11.7c3.1,1.1,5.4,3.7,8.6,4.9s13.2,3.3,13.6-2.9c.3-4.6-12.7-8-16.4-10.5-9.5-6.5-9.6-22.1,1.4-27.1s17.6-1.7,25.1,2.4v10.5Z"/>
  <path class="st1" d="M102.4,98.4v-49.9c-.2-.6.4-2.1.9-2.1h21.5c.2,0,3.7,1,4.2,1.2,7.3,2.9,10.6,12.5,5.9,19.1s-3.2,2-3.2,3.6c12.4,3.4,11.3,23.9-.5,27.4-8,2.4-20.3-.2-28.8.8ZM113.8,56v10.5c0,1.5,9.9,1.5,11.1-2.1,2.6-8-5-9.3-11.1-8.4ZM113.8,88.9h10.5c2.3,0,4.6-4,4.5-6.3s-2.5-5.7-4.5-5.7h-10.5v12Z"/>
  <path class="st1" d="M222,131.3v195.7c-.2.7-7.3,4.1-8.6,4.7-2.4,1.1-11.3,5.3-13.3,5.3-3.9,0-16.8-7.1-21.2-9s-.4,0-.6,0v-196.7s43.6,0,43.6,0Z"/>
  <path class="st1" d="M265.7,290.9c2.4-51.9-1.8-105.5,0-157.6-.1-.6.4-2.1.9-2.1h42.8v79.2c0,1.5-4.2,13.9-5.1,16.4-8.3,23.6-22,46.6-38.5,65.2,0-.4,0-.8,0-1.2Z"/>
  <path class="st1" d="M134.1,131.3v160.2c-14.9-15.8-26.8-36.1-35-56.2-1.7-4.1-8.7-22.2-8.7-25.4v-77.7c0,0,.8-.9.9-.9h42.8Z"/>
</svg>