<?xml version="1.0" encoding="utf-8"?>
<!-- Generator: Adobe Illustrator 23.0.3, SVG Export Plug-In . SVG Version: 6.00 Build 0)  -->
<svg version="1.1" id="Layer_1" xmlns="http://www.w3.org/2000/svg" xmlns:xlink="http://www.w3.org/1999/xlink" x="0px" y="0px"
	 viewBox="0 0 800 800" style="enable-background:new 0 0 800 800;" xml:space="preserve">
<style type="text/css">
	.st0{fill:#1B2838;}
	.st1{fill:#9E1E34;}
	.st2{fill:#995766;}
	.st3{fill:#DDDDE1;}
	.st4{fill:#FFFFFF;}
	.st5{fill:#1D2839;}
</style>
<path class="st0" d="M205.5,180.3c1.1-4.4,3.8-7.8,5.8-11.8c16.3-32.8,36.3-63,62.5-88.8c23.4-23,49.9-41,81.6-50.4
	c41.7-12.4,81.9-7.6,120.3,12.5c27.8,14.5,50.5,35,70.4,59c19.7,23.7,34.9,50.1,48.1,77.8c0.5,1,1,1.9,0.2,3
	c-7.5,11.1-15.4,21.9-24.5,31.8c-1.4,1.5-1.8,2.9-1.8,4.9c0,65.6,0.1,131.2,0,196.8c0,2.9,0.7,3.5,3.5,3.5c22.7-0.1,45.4,0,68.1,0
	c-0.2,4.2-0.4,8.3-0.6,12.5c-0.1,1,0.3,2.2-0.8,2.9c-0.9,0-1.7-0.1-2.6-0.1c-27.7,0-55.4,0-83,0.1c0,0,0,0.1,0,0.1
	c0-15,0-30.1,0-45.1c0-51.5,0-102.9,0-154.4c0-1,1-2.5-0.7-3.2c-0.6,0.4-1.3,0.7-1.9,1.2c-16.2,14.1-34.3,25.2-53.8,34.1
	c-2.3,1.1-3.4,2.4-3,4.9c-0.8,1.3-0.4,2.7-0.4,4.1c-0.1,51.5-0.1,102.9-0.1,154.4c0,3.1-0.6,4.2-4,4.2c-25.5-0.2-50.9-0.1-76.4-0.1
	c-1.2,0-2.6-0.6-3.6,0.7c0,14.3-0.1,28.6-0.1,42.8c0,5.3,0.1,10.5,0.2,15.8c1.1,1,2.5,0.5,3.7,0.5c25.3,0,50.5,0,75.8,0
	c4.3,0,4.3,0,4.3,4.4c0,81.4,0.1,162.8,0.1,244.2c0,1.6-0.3,3.2,0.5,4.8l-0.1,0.6c-4.9,4-10.2,7.1-15.9,9.6
	c0-81.7,0-163.9,0.1-245.6c0-2.6-1.1-2.6-3.1-2.6c-20.6,0-41.3,0.1-61.9-0.1c-3.3,0-4,0.8-4,4c0.1,86.6,0.1,173.1,0.1,259.7
	c0,1.2,0.1,3.1,0.1,4.2c-1.5,0.1-1.7,0.1-2.6,0.1c-21.1,0.9-41.3-2.9-61.1-9.9c-0.3-0.1-0.5-0.4-0.7-0.6c0-0.8,0.1-1.5,0.1-2.3
	c0-160.3,0-320.5,0.1-480.8c0-2.9-1.1-3.8-3.6-4.5c-21.3-5.4-41.2-13.9-60-25.1c-1.1-0.6-2.1-1.6-3.5-1.3c-1,1.2-0.5,2.7-0.5,4
	c-0.1,153.7-0.1,307.5-0.2,461.2c0,1.5-0.1,3.6-0.1,4.8c-24.7-23.9-44.4-52-60.4-82.3c-1.2-2.3-2.3-4.1-3.4-6.4
	c0-0.5,0.1-1.6,0.1-2.1c0-146.2,0-292.4,0-438.5c0-1,0.3-2.2-0.6-3.1C210,187.1,207.5,183.5,205.5,180.3z M477.2,274.3
	c-2.3,0.6-3.9,1-5.5,1.6c-19.1,6.3-38.7,9.6-58.7,10.6c-3.3,0.2-4.2,0.9-4.2,4.3c0.1,41.5,0,83-0.1,124.5c0,2.4,0.6,3,3,3
	c20.9-0.1,41.7-0.1,62.6,0c2.3,0,3-0.5,3-2.9c-0.1-40.4,0-80.9,0-121.3C477.2,287.6,477.2,281.2,477.2,274.3z"/>
<g>
	<path class="st1" d="M638.4,434.4c-27.8,0-55.6,0-83.4,0c-0.8,0-1.8,0.2-2.3-0.7c0,0,0,0.1,0,0.1c-1-1.2-0.6-2.7-0.6-4
		c-0.1-64.9-0.1-129.8-0.1-194.8c0-1.3-0.1-2.6-0.1-3.9c-0.6,0.4-1.3,0.7-1.9,1.2c-16.2,14.1-34.3,25.2-53.8,34.1
		c-2.3,1.1-3.4,2.4-3,4.9c0,53,0,106,0,159c0,4.2,0,4.2-4.2,4.2c-25.5,0-50.9,0-76.4,0c-1.3,0-2.6,0.1-3.9,0.1
		c0,14.3-0.1,28.6-0.1,42.8c0,5.3,0.1,10.5,0.2,15.8c26.7,0,53.3,0,80,0.1c4.4,0,4.4,0,4.4,4.6c0,83.1,0,166.2,0,249.3
		c0,0-0.1,0.6-0.1,0.6c1.8-1.1,3.2-2.2,4.7-3.2c12.7-8.9,24.1-19.2,34.8-30.4c7.1-7.4,13.9-15.1,19.9-23.5c0-39,0-78,0-117.1
		c0-25.7,0-51.4,0-77.1c0-2.1,0.2-3.3,2.9-3.3c25.5,0.1,51,0.2,76.4,0.2c1,0.1,0.7-1.2,0.8-1.9c2.2-13.5,3.9-27.1,5-40.7
		C638.1,445.3,639.1,439.9,638.4,434.4z"/>
	<path class="st1" d="M340.7,279c-21.3-5.4-41.2-13.9-60-25.1c-1.1-0.6-2.1-1.6-3.5-1.3c0,148.7,0,297.5,0,446.2
		c0,8.2,0,16.3,0.1,24.5c3.2,3.6,6.1,5.8,9,8.2c18.6,16,36.4,27.1,58.2,35.1c0-0.8-0.1-1.7-0.1-2.5c0-160.3,0-320.5,0.1-480.8
		C344.3,280.6,343.3,279.7,340.7,279z"/>
	<path class="st1" d="M198.7,196.1c-22.5,55-33.6,111.9-37,171.1c-2.3,41.4-0.3,82.7,6.2,123.7c6,37.8,15.6,74.5,29.8,110
		c4.2,10.5,8.5,21.9,14.1,31.8c0-145.5,0.1-291.8,0.1-437.3c0-1.7,0-3.4,0-5.2c-2-3.2-4.5-6.8-6.5-10
		C203.5,184.7,200.8,191.1,198.7,196.1z"/>
</g>
<path class="st2" d="M277.1,252.6c0,148.7,0,297.5,0,446.2c0,8.2,0,16.3,0.1,24.5c-0.4-0.3-0.4-0.3-0.8-0.7c0-1.5,0.1-3.3,0.1-4.8
	c0.1-153.7,0.1-307.5,0.2-461.2C276.6,255.3,276.1,253.8,277.1,252.6z"/>
<path class="st2" d="M211.9,632.8c0-145.5,0.1-291.9,0.1-437.4c0-1.7,0-3.4,0-5.2c0.9,0.9,0.6,2,0.6,3.1c0,146.2,0,292.4,0,438.5
	c0,0.5-0.1,1.8-0.1,2.3C212.3,633.7,212.1,633.4,211.9,632.8z"/>
<path class="st2" d="M638.4,434.4c-27.8,0-55.6,0-83.4,0c-0.8,0-1.8,0.2-2.3-0.7c27.7,0,55.4,0,83-0.1c0.9,0,1.7,0,2.6,0.1
	C638.3,433.9,638.3,434.2,638.4,434.4z"/>
<path class="st2" d="M408.9,493.1c26.7,0,53.3,0,80,0.1c4.4,0,4.4,0,4.4,4.6c0,83.1,0,166.8,0,249.9c-0.8-1.5-0.5-3.8-0.5-5.4
	c-0.1-81.4-0.1-162.8-0.1-244.2c0-4.4,0-4.4-4.3-4.4c-25.3,0-50.5,0-75.8,0C411.3,493.6,410,494,408.9,493.1z"/>
<path class="st2" d="M493.2,271.2c0,53,0,106,0,159c0,4.2,0,4.2-4.2,4.2c-25.5,0-50.9,0-76.4,0c-1.3,0-2.6,0.1-3.9,0.1
	c1-1.3,2.4-0.7,3.6-0.7c25.5,0,50.9-0.1,76.4,0.1c3.4,0,4-1,4-4.2c-0.1-51.5,0-102.9,0.1-154.4C492.8,274,492.5,272.5,493.2,271.2z"
	/>
<path class="st2" d="M552.7,433.8c-1-1.2-0.6-2.7-0.6-4c-0.1-64.9-0.1-129.8-0.1-194.8c0-1.3-0.1-2.6-0.1-3.9
	c1.7,0.7,0.7,2.2,0.7,3.2c0.1,51.5,0,102.9,0,154.4C552.6,403.7,552.7,418.7,552.7,433.8z"/>
<path class="st3" d="M568.3,509.9c-0.1-0.4,0-0.6,0.5-0.6C568.6,509.5,568.5,509.7,568.3,509.9z"/>
<path class="st4" d="M376.3,168.3c7.8-12.8,6.3-35.8-6.7-46.4c-3.8-3-8-5-12.6-6.6c1.8-3,3.5-5.7,5-8.5c5-9.3,7-19.3,5-29.6
	c-3.8-19.3-25.5-25.2-39.9-19c-12,5.2-21.3,14.4-31.1,22.7c-4.3,3.6-8.5,7.5-12.5,11.7c4,1.1,5.8,3.8,5.8,8.7
	c0.1,23.4,0,46.9,0.1,70.3c0,6.6-1.1,12.7-5.9,18.1c1.1,0.1,1.8,0.2,2.5,0.2c17.8,0.5,35.7,0.6,53.5,0.2
	C355.9,189.8,368,182,376.3,168.3z M312.6,119.4c-0.1-7.6-0.2-15.2-0.4-22.8c0-0.9,0.2-1.6,0.9-2.3c4.8-4.7,9.7-9.1,15.9-11.8
	c1.6-0.7,3.2-1.2,4.7-1.1c5.8,0,10.1,5.6,9.7,12.3c-0.3,3.8-1.8,7-4.2,9.9c-6.6,8-15.4,12.9-24.6,17
	C313.3,121.2,312.6,121,312.6,119.4z M315.2,168.5c-1.5,0-2.1-0.4-2-2c0.1-3,0-6,0-9c0-1.8,0.3-3.7-0.1-5.5
	c-0.8-4.3,1.3-6.6,4.7-8.7c6.3-4,12.9-7.2,20.4-8c11.5-1.1,20.3,8.2,18.2,19.2c-0.9,4.8-4.4,7.5-8.4,9.5c-7.1,3.5-14.9,4-22.6,4.4
	C322.1,168.5,318.7,168.4,315.2,168.5z M440,102.2c0.5,10,0.3,19.6,0.2,29.9c-6.8-7.2-15.1-4.1-22.7-4.9c-1.5-0.1-1.8,0.5-1.8,1.9
	c0.1,16.2,0.1,32.5,0.3,48.7c0.1,4.2,2.2,7.9,4.4,12.1c-6.4,0-12.4,0-18.4,0c-4.7,0-9.5,0-14.2,0c-1.7,0-2.9-0.2-1.5-2.2
	c3.4-5,4.4-10.4,4.3-16.4c-0.2-38.4-0.1-76.7-0.1-115.1c0-4.6-1.3-8.7-3.6-12.5c-0.9-1.5-1.1-2,1-2.3c18.9-2.9,37.2-1.2,54.9,6.2
	c3.6,1.5,7.4,2.8,11.1,4.2c1,0.4,1.9,0.7,1.9,2.2c-0.1,7.6,0,15.2,0,23.5c-6.6-5.1-13.5-8.1-20.7-10.4c-5-1.6-9.9-3.5-15.1-4.4
	c-3.2-0.6-4.7,0.7-4.7,3.9c-0.1,12.3-0.1,24.5-0.1,36.8c0,0.8-0.5,2.2,1.1,2.1c6.5-0.4,13.1,1.2,19.4-1.3
	C437,103.6,438.2,103,440,102.2z M515.6,180.4c-6.3,5.3-13.7,7.7-23.9,7.7c-18.4,0.8-35.1-11.5-39.8-31.7c-4-17.3-3.7-34.3,4.5-50.5
	c5.6-11.1,14.3-18.9,26.1-23c11.3-3.9,25.1-0.6,32.9,7.9c1.5,1.7,1.9,3,0.7,5.1c-2.5,4.5-4.9,9-7.3,13.6c-0.7,1.3-1.3,1.8-2.6,0.5
	c-8.9-9.1-22.2-6.4-27.9,4.9c-6.6,13.1-7.2,27.1-0.8,40.6c4.7,9.8,14.9,11.5,24.3,8.1c2-0.7,4-1.6,5.7-2.9c2.1-1.6,2.9-1.4,3.7,1.1
	c1.6,4.9,3.4,9.7,5.3,14.5C517.4,178.1,517.1,179.1,515.6,180.4z M341,247.3c0,1.5-0.1,2.2-1.9,1.4c-2.8-1.3-5.7-2.4-8.6-3.4
	c-1.7-0.6-2.2-1.5-2.2-3.3c0.1-7.7-0.1-15.5,0-23.2c0-2.5-0.7-3.1-3-2.4c-0.1,0-0.2,0-0.3,0c-4.7,0.6-5.6-0.6-4.7-5.4
	c0.2-1.2,1-1.1,1.8-1.3c3-0.7,5.8-1.7,7.4-4.6c0.8-1.5,2-1.2,3.3-1.2c8.3,0.2,8.3,0.2,8.3,8.2c0,4.9,0,9.9,0,14.8c0,0,0,0,0,0
	C341,233.8,341,240.6,341,247.3z M363.9,203.6c-9.3,1.5-15.3,10.3-14.4,20.2c0.7,7.7,5.9,15.7,16.3,13.9c2.4-0.4,4.8-0.8,7.4-1.2
	c-0.5,6.2-3,8.5-8.8,8.5c-3.5,0-6.7-1.3-9.9-2.6c-0.6-0.3-1.4-1.3-2.2-0.2c-1,1.3-0.2,7.5,1.2,8.4c10.2,6.6,24.4,5.2,30.3-7.5
	c4.1-8.8,3.7-18,0.7-26.9C380.7,205.1,373,202.1,363.9,203.6z M367.2,228.5c-3.7,0-6-2.7-6.3-7c-0.2-3,0.2-5.8,2.8-7.7
	c2.1-1.5,4.4-1.9,6.6-0.5c2.9,1.7,3.5,4.6,3.7,7.1C374,225,370.8,228.5,367.2,228.5z M429.1,211c-6.6-9.8-17.9-12.1-26.7-2.2
	c-8.7,9.8-9,30.4-0.9,40.5c9.4,11.6,22.1,8,28.1-2.2c3.1-5.3,4.8-11,4.4-16.3C434.1,221.6,432.8,216.5,429.1,211z M420.1,241.2
	c-3.3,4.6-8,4.7-10.9-0.2c-4.5-7.7-4.5-15.8-0.2-23.5c2.9-5.2,7.9-5.1,11.3-0.1c2,2.9,2.9,6.6,2.9,11.6
	C423.4,233.4,422.7,237.6,420.1,241.2z M453.7,203.4c-6.5,1.6-11.6,7-12,13.4c-0.5,9.1,2.7,14.4,10.1,16.9c2.9,1,5.8,1.5,9.1,1.4
	c-0.8,2.8-2.3,4.2-4.4,5.3c-2.9,1.6-6,1.2-9.1,1.2c-1.2,0-3.3-1-3,1.5c0.2,2-1.7,4.9,1.8,5.9c5.1,1.5,10.2,1.2,15.1-0.8
	c10.7-4.3,16.4-14.7,15.7-27.2C476.5,210.9,467,200.1,453.7,203.4z M459.4,226.3c-3.5,0-6.2-3.1-6.1-6.8c0-3.6,3-7,6.2-7
	c3.3,0.1,6.2,3.3,6.2,7C465.6,223.1,462.7,226.3,459.4,226.3z"/>
<g>
	<path class="st4" d="M474.4,509c-20.6,0-41.3,0.1-61.9-0.1c-3.3,0-4,0.8-4,4c0.1,86.6,0.1,173.1,0.1,259.7c0,1.2,0,3.1,0.1,4.2
		c7.1-0.4,6.4-0.4,9.4-0.7c14.6-1.6,28.8-5.3,42.4-10.9c5.8-2.4,11.7-4.3,16.9-8c0-81.7,0-163.9,0.1-245.6
		C477.4,509.1,476.3,509,474.4,509z"/>
	<path class="st4" d="M637.9,351.1c-1.2-12.3-2.4-24.7-4.2-36.9c-2.2-15.9-5.3-31.6-9.1-47.2c-7-28.6-16.1-56.5-28-83.5
		c-0.5-1.1-0.8-2-2.1-2c-7.5,11.1-15.4,21.9-24.5,31.8c-1.4,1.5-1.8,2.9-1.8,4.9c0,65.6,0.1,131.2,0,196.8c0,2.9,0.7,3.5,3.5,3.5
		c22.7-0.1,45.4,0,68.1,0C639.7,395.9,640.1,373.5,637.9,351.1z"/>
	<path class="st4" d="M568.8,509.3c-0.2,0.2-0.3,0.4-0.5,0.6c0,2.9-0.1,5.8-0.1,8.7c0,40.1,0,80.3,0,120.4c0,1.3-0.6,23.8,0.1,29.7
		c1.4-2.1,2.2-3.3,2.7-4c16.3-26.5,29.4-54.5,39.6-83.9c6-17.1,11-34.5,14.9-52.1c1.5-6.5,3.2-12.9,3.8-19.5c-19.8,0-39.6,0-59.4,0
		C569.6,509.1,569.2,509.2,568.8,509.3z"/>
	<path class="st4" d="M411.6,418.3c20.9-0.1,41.7-0.1,62.6,0c2.3,0,3-0.5,3-2.9c-0.1-40.4,0-80.9,0-121.3c0-6.4,0-12.9,0-19.8
		c-2.3,0.6-3.9,1-5.5,1.6c-19.1,6.3-38.7,9.6-58.7,10.6c-3.3,0.2-4.2,0.9-4.2,4.3c0.1,41.5,0,83-0.1,124.5
		C408.6,417.7,409.2,418.3,411.6,418.3z"/>
</g>
<path class="st5" d="M555.4,493.1c-2.7,0-2.9,1.2-2.9,3.3c0,25.7,0,51.4,0,77.1c0,39,0,78,0,117.1c5.2-6.1,9.5-12.8,14-19.3l1.6-2.6
	c0,0,0-13.8,0.1-19.4c0-1.3,0-2.6,0-3.9c0-0.9,0-1.7,0-2.6c0-1.3-0.1-2.6-0.1-3.9c0-40.1,0-80.3,0-120.4c0-2.9,0.1-5.8,0.1-8.7
	c-0.1-0.4,0-0.6,0.5-0.6c0.4-0.1,0.8-0.2,1.3-0.2c19.8,0,39.7,0,59.5,0c1.5-6.6,1.8-9.6,2.8-15.8
	C606.8,493.3,580.9,493.2,555.4,493.1z"/>
<path class="st3" d="M400,4C257.7,4,142.3,181.3,142.3,400S257.7,796,400,796s257.7-177.3,257.7-396S542.3,4,400,4z M400.3,777.1
	c-132.2,0-239.4-168.9-239.4-377.3S268,22.5,400.3,22.5s239.4,168.9,239.4,377.3S532.5,777.1,400.3,777.1z"/>
</svg>
