<?xml version="1.0" encoding="UTF-8"?>
<svg id="Camada_1" data-name="Camada 1" xmlns="http://www.w3.org/2000/svg" viewBox="0 0 1000 1000">
  <defs>
    <style>
      .cls-1 {
        fill: #fefefe;
      }

      .cls-1, .cls-2, .cls-3, .cls-4, .cls-5, .cls-6, .cls-7, .cls-8, .cls-9, .cls-10, .cls-11, .cls-12, .cls-13, .cls-14, .cls-15, .cls-16, .cls-17, .cls-18, .cls-19, .cls-20, .cls-21, .cls-22, .cls-23, .cls-24, .cls-25, .cls-26, .cls-27, .cls-28, .cls-29, .cls-30, .cls-31, .cls-32, .cls-33, .cls-34, .cls-35 {
        stroke-width: 0px;
      }

      .cls-2 {
        fill: #d0ddd4;
      }

      .cls-3 {
        fill: #fef8f8;
      }

      .cls-4 {
        fill: #f0f4f1;
      }

      .cls-5 {
        fill: #5c8969;
      }

      .cls-6 {
        fill: #fef7f8;
      }

      .cls-7 {
        fill: #d5e1d9;
      }

      .cls-8 {
        fill: #fdf1f2;
      }

      .cls-9 {
        fill: #f4f0ef;
      }

      .cls-10 {
        fill: #f5f8f6;
      }

      .cls-11 {
        fill: #f42933;
      }

      .cls-12 {
        fill: #225e33;
      }

      .cls-13 {
        fill: #e1e9e4;
      }

      .cls-14 {
        fill: #dbe5de;
      }

      .cls-15 {
        fill: #fdeeef;
      }

      .cls-16 {
        fill: #fdf1f1;
      }

      .cls-17 {
        fill: #f41f2a;
      }

      .cls-18 {
        fill: #fef9f9;
      }

      .cls-19 {
        fill: #131514;
      }

      .cls-20 {
        fill: #fef3f3;
      }

      .cls-21 {
        fill: #ebf0ec;
      }

      .cls-22 {
        fill: #e3eae5;
      }

      .cls-23 {
        fill: #d5e0d8;
      }

      .cls-24 {
        fill: #f9f8f8;
      }

      .cls-25 {
        fill: #151112;
      }

      .cls-26 {
        fill: #d4e0d8;
      }

      .cls-27 {
        fill: #ecf1ed;
      }

      .cls-28 {
        fill: #e8eeea;
      }

      .cls-29 {
        fill: #eef2ef;
      }

      .cls-30 {
        fill: #e6ede8;
      }

      .cls-31 {
        fill: #121112;
      }

      .cls-32 {
        fill: #dce5de;
      }

      .cls-33 {
        fill: #f5303a;
      }

      .cls-34 {
        fill: #fef3f4;
      }

      .cls-35 {
        fill: #215f33;
      }
    </style>
  </defs>
  <path class="cls-31" d="M589.33,90.3c21.95,9.16,45.6,4.76,68.35,8.4,46.94,7.51,93.31,16.12,138.31,32.14,26.47,9.42,39.44,25.93,42.13,53.99,15.63,163.33,7.51,323.96-63.55,474.87-56.34,119.65-143.46,209.94-268.81,260.03-20.39,8.15-36.36,2.67-53.58-4.85-103.33-45.11-181.02-118.43-236.34-216.05-63.84-112.66-87.93-235.24-89.64-363.3-3.39-15.84-.76-31.88-1.6-47.79-.17-34.79.64-69.56,1.97-104.34,1.06-27.8,13.22-45.34,38.91-55.93,56.99-23.51,116.42-33.26,177.6-34.99,10.92-.31,22.13,2.67,32.76-2.18h213.5Z"/>
  <path class="cls-24" d="M212.02,646.51c-37.42-76.11-54.29-157.64-62.39-241.26-7.17-73.97-5.43-147.88,3.13-221.78,1.91-16.46,8.65-24.96,22.96-31.13,48.18-20.75,99.19-29.65,150.7-34.63,115.27-11.13,230.62-11.61,345.66,3.75,42.56,5.68,84.54,14.12,124.05,31.85,9.52,4.27,18.38,8.83,19.83,21.45,16.63,144.37,11.5,286.76-38.37,425.05-5.73,15.89-13.31,31.12-20.03,46.66-5.01.27-6.13-3.32-7.09-7.1-.47-15.4,7.71-28.29,12.72-42,25.26-69.1,40.16-140.2,42.47-213.83.26-8.16,1.56-16.13,3.61-24.01.04-8.84.66-17.66.59-26.5-.68-22.26-.52-44.52-.2-66.76-7.15-31.43-.29-64.86-13.71-95.37-14.12-10.3-30.66-14.92-47.05-19.22-56.08-14.7-113.24-22.61-171.18-23.51-23.75-.37-47.37-4.57-70.82-4.04-87.95,2-176.23,1.91-262.66,22.05-24.43,5.69-49.05,11.44-70.75,25.02-7.75,16.38-8.66,34.05-9.02,51.61-.31,14.74-1.46,29.29-4.39,43.72,1.68,32.49-3.04,65.07,1.84,97.46,2.87,34.43,5.35,68.87,10.84,103.09,7.98,49.68,21.32,97.79,39.26,144.7,3.4,8.9,7.89,17.54,7.17,27.53-.96,3.82-2.15,7.43-7.18,7.17Z"/>
  <path class="cls-9" d="M753.33,641.04c1.41,1.81,2.82,3.62,4.23,5.43-53.07,117.59-137.16,203.61-256.8,254-14.09,5.93-25.54,2.64-37.96-2.76-116.69-50.68-198.56-136.12-250.78-251.21,1.46-1.9,2.92-3.8,4.38-5.7,12.8,3.57,14.21,16.11,19.3,25.37,53.94,98.21,128.64,174.17,232.74,218.93,4.76,2.05,9.46,4.19,14.73,4.49,53.37-14.68,98.12-44.42,138.61-80.88,48.89-44.03,89.26-94.85,118.13-154.39,2.8-5.78,5.23-12.64,13.43-13.28Z"/>
  <path class="cls-17" d="M753.33,641.04c-30.5,59.22-65.86,114.85-115.2,160.66-42.02,39.02-88.52,70.63-142.36,90.99-4.2,1.59-8.09,3.52-12.69,2.28-8.41-8.18-7.59-18.91-7.6-29.16-.16-148-.43-296.01.23-444.01.09-20.49.9-41.44,9.96-60.74,8.1-6.54,17.86-6.33,27.39-6.36,91.35-.25,182.69-.22,274.04,0,9.48.02,19.34-.67,27.3,6.33-3.35,97.05-23.48,190.44-61.08,280.02Z"/>
  <path class="cls-35" d="M485.82,361.83c-5.77,177.69-.98,355.43-2.74,533.14-90.3-30.23-158.15-89.57-213.79-164.83-20.69-27.99-36-59.12-52.9-89.34-34.71-83.09-55.22-169.47-59.75-259.51-.22-4.34.42-8.73.66-13.1-1.56-2.95-1.17-5.61,1.14-8,9.15-6.37,19.72-5.49,29.97-5.51,88.64-.16,177.29-.19,265.93.03,10.87.03,22.43-1.65,31.47,7.12Z"/>
  <path class="cls-17" d="M155.21,263.2c3.77-32.09-1.19-65.31,12.37-96.15,19-3.51,38.17-3.91,57.45-3.89,173.2.14,346.39.14,519.59,0,19.27-.02,38.45.21,57.43,3.92,13.09,30.89,9.5,63.92,12.34,96.12-7.96,8.86-18.79,7.78-28.97,7.79-200.42.22-400.83.22-601.25,0-10.17-.01-21.01,1.08-28.97-7.78Z"/>
  <path class="cls-12" d="M155.21,263.2c219.73,0,439.45,0,659.18,0,2.36,24.07,2.36,48.18.89,72.3-11.51,9.59-25.39,6.59-38.39,6.61-192.44.21-384.87.22-577.31,0-17.01-.02-32.62.89-40.97,18.78-.44,2.44-.88,4.87-1.31,7.32-7.03-34.87-3.46-69.95-2.09-104.99Z"/>
  <path class="cls-25" d="M802.05,167.07c-5.83.57-11.66,1.64-17.49,1.65-199.83.09-399.67.09-599.5,0-5.83,0-11.65-1.09-17.48-1.67,34.69-21.52,74.02-29.24,113.23-34.66,148.57-20.54,297.11-21.78,444.93,7.16,26.62,5.21,53.24,11.79,76.3,27.53Z"/>
  <path class="cls-19" d="M158.62,360.87c-4.84-20.98,4.04-25.96,24.46-25.89,210.73.73,421.47.48,632.21.51-.29,8.51-.58,17.02-.87,25.54-109.53.27-219.06.53-328.59.8-109.07-.32-218.14-.64-327.21-.96Z"/>
  <path class="cls-16" d="M559.95,225.51c-7.41,6.88,5.57,24.95-10.2,24.01-14.83-.89-5.64-16.47-7.24-25.29-1.54-8.55.4-17.67-.5-26.4-1.55-15.06,5.19-19.57,19.22-18.06,13.99,1.51,24.37,8.79,20.14,22.36-4.2,13.45-2.11,25.1.12,37.64.62,3.49,5.82,8.59-1.85,10.33-6.28,1.43-11.58.55-12.59-7.81-.74-6.15.27-13.5-7.1-16.78Z"/>
  <path class="cls-8" d="M742.73,225.15c-7.85,7.25,5.15,25.4-10.75,24.34-14.58-.97-5.42-16.57-7.12-25.43-1.49-7.8-.68-16.14-.2-24.21.41-6.86-3.3-16.58,6.02-19.12,8.98-2.44,19.31-2.76,27.46,3.85,7.09,5.75,9.54,15,4.91,21.8-7.75,11.38.57,20.89.44,31.19-.06,4.55,7.97,11.68-3.66,12.91-7.8.82-10.02-3.76-10.63-10.62-.43-4.91-.32-10.37-6.47-14.73Z"/>
  <path class="cls-20" d="M490.33,210.74c.41-1.88.58-3.29,1.02-4.6,2.88-8.55-6.51-25.25,7.53-24.63,12.52.55,4.42,17,5.69,26.17,1.51,10.85.46,22.06.28,33.12-.07,4.12,1.08,9.24-5.73,9.69-4.96.33-8.35-1.43-10.68-5.91-4.26-8.18-4.65-18.37-13.93-26.27,0,8.73.08,15.76-.03,22.78-.07,4.36.19,9.51-6.3,9.11-6.19-.38-5.9-5.57-5.93-9.89-.11-16.21-.14-32.43.02-48.64.05-5.05-.36-10.87,7.08-11.46,6.77-.54,7.95,4.7,10.26,9.43,3.39,6.95,3.84,15.51,10.72,21.11Z"/>
  <path class="cls-6" d="M206.76,216.05c-.01-5.92-.49-11.9.12-17.76.63-6.08-3.66-14.98,5-17.3,9.11-2.44,19.18-2.99,27.7,3.36,6.69,4.99,9.77,12.17,5.66,19.42-3.74,6.6-3.67,10.66.67,17.14,5.36,8.01,3.9,17.4-3.7,24.09-9.33,8.22-20.96,6.03-31.85,4.78-4.22-.49-3.52-5.74-3.56-9.29-.09-8.14-.03-16.29-.04-24.44Z"/>
  <path class="cls-18" d="M449.77,215.46c-.88,6.02-1.28,12.71-2.91,19.09-2.65,10.36-9.33,16.62-20.57,16.48-10.27-.13-16.21-6.07-19.1-15.43-3.8-12.31-3.85-24.82-.51-37.14,2.88-10.63,8.68-19.22,21.15-18.99,12.61.23,17.61,9.15,19.91,20.01,1.06,5.02,1.33,10.21,2.03,15.99Z"/>
  <path class="cls-6" d="M304.55,211.51c.16,12.32-1.25,20.29-4.87,27.7-3.45,7.06-8.81,11.69-17.16,11.88-9.13.21-15.29-3.95-19.09-12.24-6.17-13.49-5.22-27.55-2-41.16,2.51-10.63,9.64-18.74,21.93-18.19,11.33.51,16.5,8.74,19.03,18.63,1.45,5.66,1.88,11.59,2.16,13.37Z"/>
  <path class="cls-34" d="M645.06,223.85c2.73-14.81,4.85-25.53,6.63-36.32,1.11-6.74,5.34-8.17,11.12-7.27,6.71,1.05,5.04,5.66,4.08,9.99-3.81,17.19-7.6,34.39-11.33,51.6-1.26,5.81-4.38,8.76-10.64,8.8-6.39.04-9.21-3.18-10.41-8.94-3.61-17.24-7.27-34.46-11.08-51.66-1-4.5-2.46-8.83,4.19-9.81,5.66-.84,9.93,0,10.94,7.1,1.54,10.82,3.78,21.54,6.49,36.49Z"/>
  <path class="cls-15" d="M678.8,215.43c0-6.63-.18-13.28.04-19.9.46-13.55,15.84-22.23,27.18-14.7,5.9,3.91,7.32,9.32-2.19,11.93-14.14,3.88-14.32,8.65-1.11,15.17,9.52,4.7,9.78,8.1-1.27,13.04-10.82,4.84-13.44,12.8,2.1,15.94,4.8.97,8.71,1.86,8.15,7.8-.59,6.28-5.55,5.44-9.85,6q-23.08,2.99-23.07-35.27Z"/>
  <path class="cls-34" d="M326.89,250.97c-4.2-.94-10.84,1.6-12.23-5.59-1.46-7.57,3.74-7.7,9.55-7.91,15.78-.56,14.08-7.01,4.83-15.71-4.25-3.99-8.85-7.88-12.09-12.63-5.32-7.8-3.16-16,2.52-22.45,5.65-6.42,13.54-9.11,22.12-6.51,2.38.72,5.06,3.25,5.89,5.56,1.01,2.82-.88,5.92-4.14,6.6-28.49,5.94-7.65,13.56-.51,20.03,8.31,7.54,9.48,16.64,5.99,26.23-3.48,9.58-11.92,12.36-21.93,12.38Z"/>
  <path class="cls-3" d="M377.01,179.95c17.92.08,15.98-.64,9.52,16.89-4.11,11.15-.94,24.86-1.95,37.35-.46,5.63,4.5,15.29-6.01,15.83-12.7.66-6.56-10.31-7.91-16.41-3.31-14.93,5.38-30.45-10.88-45.65-8.24-7.7,11.56-4.91,17.23-8.01Z"/>
  <path class="cls-1" d="M610.8,218.27c-4.84,8.93,9.27,30.08-8.33,30.22-14.18.11-4.13-20.59-6.31-31.75-1.65-8.47-.3-17.55-.14-26.35.1-5.55,1.31-10.46,8.49-10,6.24.4,6.17,5.26,6.24,9.62.16,8.8.05,17.61.05,28.25Z"/>
  <path class="cls-4" d="M240.37,308.14c4.94,13.24-6.9,7.34-12.09,7.86-6.37.63-12.95-.75-19.44-1.26.96-10.15,1.49-20.37,3.1-30.41.62-3.86,6.46-2.77,6.97-1.19,5.07,15.81,7.66,6.52,12.52-.3,2.26-3.17,6.68-.35,7.16,4.29.67,6.55,1.12,13.12,1.78,21.01Z"/>
  <path class="cls-26" d="M429.78,301.13c2.84-7.72-4.48-19.15,9.46-19.66,12.85-.47,16.19,8.74,16.22,19.12.04,10.55-4.62,20.34-16.04,20.18-14.93-.21-5.44-13.91-9.63-19.63Z"/>
  <path class="cls-23" d="M491.16,299.66c1.35-8.13,1.84-18.55,14.1-17.96,12.11.58,12.33,11.24,12.41,19.91.09,9.19-2.51,19.51-13.76,18.95-11.06-.54-12.28-10.97-12.74-20.9Z"/>
  <path class="cls-28" d="M274.54,299.94c-.14,10.12-.85,20.83-12.57,20.37-11.48-.45-11.87-11.31-11.59-20.45.25-8.26.54-17.61,11.69-18.01,13.35-.49,11.83,10.29,12.47,18.1Z"/>
  <path class="cls-27" d="M598.67,320.47c-18.01-13.33-27.49-28.37-21.41-33.81,11.46-10.27,20.9-8.4,21.38,9.55.19,7.11.03,14.24.03,24.26Z"/>
  <path class="cls-13" d="M307.08,318.31c-7.68,4.57-10.63-19.35-19.93,5.06-1.46-16.97-3.44-28.73,1.02-40.26.92-2.37,4.51.54,7.03,2.19,15.68,10.24,15.79,10.07,11.88,33.01Z"/>
  <path class="cls-30" d="M678.76,278.46c12.88,11.48,3.84,23.65,10.55,31.86,7.12-8.1-2.16-20.24,11.74-32.91-1.53,16.87,3.89,28.81-4.9,40.36-2.88,3.79-8.02,5.07-11.74,1.65-11.8-10.89-4.85-24.4-5.65-40.96Z"/>
  <path class="cls-32" d="M664.69,283.21c1.06,6.95-4.79,6.3-8.08,8.57-3.93,2.71-6.32,8.66-3.74,11.39,4.23,4.48,2.74-5.64,7.56-4.68,4.08.82,6.9,2.09,7.24,6.43.4,5.08,1.29,10.61-3.2,14.31-3.74,3.07-8.16,2.26-12.31,0-10.48-5.69-10.65-15.58-8.32-24.84,2.59-10.27,9.39-16.16,20.86-11.2Z"/>
  <path class="cls-7" d="M558.45,281.86c15.86,2.41,6.63,14.59,7.98,22.17,1.14,6.35-1.85,12.85-8.77,16.13-3.81,1.8-7.03.73-10.07-1.58-8.61-6.53-7.59-27.4,1.78-36.96,5.43,5.03,3.91,11.79,4.49,17.58.36-5.78-1.41-12.56,4.58-17.34Z"/>
  <path class="cls-14" d="M612.82,280.28c11.05,9.27,1.55,22,10.54,30.14.88-10.04,1.7-19.28,2.99-33.96,9.88,16.8,9.69,28.83,2.8,40.5-2.84,4.81-9.45,6.39-13.44,1.65-9.45-11.22-5.54-23.71-2.9-38.33Z"/>
  <path class="cls-14" d="M401.19,285.1c-.41,1.68-.89,4.45-1.78,7.07-3.23,9.5-.33,26.79-12.33,25.84-10.87-.86-6.68-18.79-10.71-28.67-1.88-4.61,4.29-10.54,5.77-6.77,6.85,17.36,11.41-6.11,19.05,2.54Z"/>
  <path class="cls-22" d="M732.6,307.1c.12,5.19-2.11,14.11-3.5,10.53-5.22-13.45-19.64,12.18-17.92-4.43,1.06-10.24-2.27-28.82,11.09-30.09,12.02-1.15,6.79,16.3,10.34,23.99Z"/>
  <path class="cls-29" d="M356.18,280.57c4.13,1.2,6.79,1.97,9.45,2.74-8.62,5.79,4.27,15.21-3.32,20.64-2.9,2.07-4.59,3.95-2.94,6.68,1.89,3.13,15.37,4.7.91,8.91-6.39,1.86-12.56-.32-11.09-8.75,1.73-9.97-6.03-22.84,6.99-30.23Z"/>
  <path class="cls-21" d="M464.62,301.31c0-3.65.28-7.32-.06-10.94-.81-8.68,4.58-9.79,10.95-8.71,11.08,1.87,7.8,5.56.84,9.34,10.63,5.92-9.45,17.46,4.43,23.58,3.21,1.41-.94,4.9-3.61,4.99-4.67.15-10.96,2.45-12.13-5.17-.65-4.27-.12-8.72-.12-13.09h-.31Z"/>
  <path class="cls-10" d="M343.97,284.34c-16.57,9.02-5.02,24.9-14.73,35.73-9.58-11.28.56-26.87-12.11-36.03,8.55-3.36,14.93-3.03,26.84.3Z"/>
  <path class="cls-2" d="M751.64,326.66c-5-17.57-8.43-28.37-11.05-39.36-1.18-4.96,5.62-6.91,6.05-4.75,2.52,12.57,17.23-11.46,15.71,5.23-1,10.97-5.77,21.6-10.71,38.89Z"/>
  <path class="cls-1" d="M414.66,317.36c-4.55-11.62-5.46-23.27-.35-40.56,7.14,17.31,6.28,28.87.35,40.56Z"/>
  <path class="cls-5" d="M558.45,281.86c-.53,9.23-1.06,18.46-1.77,30.88-9.59-11.03-3.27-22.28-7.31-31.12,3.03.08,6.05.16,9.08.24Z"/>
  <path class="cls-33" d="M233.14,227.77c.49,5.08-.66,8.72-4.78,9.68-5.09,1.19-5.94-3.05-6.09-6.66-.18-4.09-1.54-9.98,4.75-10.07,3-.05,6.02,3.89,6.13,7.05Z"/>
  <path class="cls-11" d="M426.69,192.14c3.11,3.42,4.65,4.33,4.96,5.56,3.19,12.82,5.32,25.8-2.01,37.89-1.69,2.78-6.02,1.3-6.91-1.63-4.25-14.03-6.73-28.08,3.96-41.82Z"/>
  <path class="cls-33" d="M281.72,190.09c9.64,16.92,9.83,31.04,2.62,45.51-.36.71-4.87.67-5.38-.21-8.21-14.38-7.46-28.39,2.76-45.3Z"/>
</svg>