<?xml version="1.0" encoding="UTF-8"?>
<svg id="Layer_1" xmlns="http://www.w3.org/2000/svg" version="1.1" xmlns:xlink="http://www.w3.org/1999/xlink" viewBox="0 0 400 400">
  <!-- Generator: Adobe Illustrator 30.0.0, SVG Export Plug-In . SVG Version: 2.1.1 Build 123)  -->
  <defs>
    <style>
      .st0 {
        fill: #02420a;
      }

      .st1 {
        fill: #453e1f;
      }

      .st2 {
        fill: url(#linear-gradient2);
      }

      .st3 {
        fill: #050603;
      }

      .st4 {
        fill: #031301;
      }

      .st5 {
        fill: #51884f;
      }

      .st6 {
        fill: #f7dd03;
      }

      .st7 {
        fill: #64513e;
      }

      .st7, .st8, .st9 {
        opacity: 1;
      }

      .st10 {
        opacity: 1;
      }

      .st10, .st11, .st8 {
        fill: #3a3f3f;
      }

      .st12 {
        fill: #6c3320;
      }

      .st13 {
        fill: #a5c4cd;
      }

      .st14 {
        fill: url(#linear-gradient1);
      }

      .st15 {
        fill: url(#linear-gradient8);
      }

      .st16 {
        fill: #eff0dc;
      }

      .st17 {
        fill: #072807;
      }

      .st18 {
        fill: #151712;
      }

      .st19 {
        fill: #04a041;
      }

      .st20 {
        fill: #342300;
      }

      .st21 {
        fill: url(#linear-gradient7);
      }

      .st22 {
        fill: #ca4e0c;
      }

      .st23 {
        fill: url(#linear-gradient4);
      }

      .st24 {
        fill: #dee6e6;
      }

      .st25 {
        fill: #954419;
      }

      .st26 {
        fill: url(#linear-gradient5);
      }

      .st27 {
        fill: url(#linear-gradient3);
      }

      .st28 {
        fill: #fbf6c3;
      }

      .st29 {
        fill: #038e40;
      }

      .st30 {
        fill: #d4bb47;
      }

      .st31 {
        fill: #8e9191;
      }

      .st32 {
        fill: url(#linear-gradient6);
      }

      .st33, .st9 {
        fill: #1a1b1b;
      }

      .st34 {
        fill: #fefefe;
      }

      .st35 {
        fill: url(#linear-gradient);
      }

      .st36 {
        fill: #486045;
      }

      .st37 {
        fill: #afc4b7;
      }

      .st38 {
        fill: #7f8179;
      }
    </style>
    <linearGradient id="linear-gradient" x1="93.1" y1="143.7" x2="135.2" y2="184.3" gradientTransform="translate(0 401) scale(1 -1)" gradientUnits="userSpaceOnUse">
      <stop offset="0" stop-color="#028741"/>
      <stop offset="1" stop-color="#03a444"/>
    </linearGradient>
    <linearGradient id="linear-gradient1" x1="305.5" y1="244.5" x2="307.5" y2="237.9" gradientTransform="translate(0 401) scale(1 -1)" gradientUnits="userSpaceOnUse">
      <stop offset="0" stop-color="#00a642"/>
      <stop offset="1" stop-color="#17883f"/>
    </linearGradient>
    <linearGradient id="linear-gradient2" x1="298.5" y1="249" x2="310.3" y2="240.5" gradientTransform="translate(0 401) scale(1 -1)" gradientUnits="userSpaceOnUse">
      <stop offset="0" stop-color="#030001"/>
      <stop offset="1" stop-color="#012500"/>
    </linearGradient>
    <linearGradient id="linear-gradient3" x1="206.8" y1="117.2" x2="208.5" y2="113.3" gradientTransform="translate(0 401) scale(1 -1)" gradientUnits="userSpaceOnUse">
      <stop offset="0" stop-color="#a9bec1"/>
      <stop offset="1" stop-color="#c6d4ca"/>
    </linearGradient>
    <linearGradient id="linear-gradient4" x1="198.4" y1="228.4" x2="166.5" y2="245.1" gradientTransform="translate(0 401) scale(1 -1)" gradientUnits="userSpaceOnUse">
      <stop offset="0" stop-color="#d9ded7"/>
      <stop offset="1" stop-color="#fff"/>
    </linearGradient>
    <linearGradient id="linear-gradient5" x1="176.8" y1="237.5" x2="180.1" y2="242.6" gradientTransform="translate(0 401) scale(1 -1)" gradientUnits="userSpaceOnUse">
      <stop offset="0" stop-color="#16180a"/>
      <stop offset="1" stop-color="#1c2e22"/>
    </linearGradient>
    <linearGradient id="linear-gradient6" x1="192.8" y1="150.8" x2="176.1" y2="160.1" gradientTransform="translate(0 401) scale(1 -1)" gradientUnits="userSpaceOnUse">
      <stop offset="0" stop-color="#098b41"/>
      <stop offset="1" stop-color="#00a445"/>
    </linearGradient>
    <linearGradient id="linear-gradient7" x1="187.8" y1="147.5" x2="199.3" y2="146.1" gradientTransform="translate(0 401) scale(1 -1)" gradientUnits="userSpaceOnUse">
      <stop offset="0" stop-color="#d5c202"/>
      <stop offset="1" stop-color="#eded07"/>
    </linearGradient>
    <linearGradient id="linear-gradient8" x1="208.1" y1="225" x2="217.9" y2="225.2" gradientTransform="translate(0 401) scale(1 -1)" gradientUnits="userSpaceOnUse">
      <stop offset="0" stop-color="#e7e8db"/>
      <stop offset="1" stop-color="#fff"/>
    </linearGradient>
  </defs>
  <path class="st34" d="M315.3,8.4c1.8-.1,3.7,0,5.4.6,4.4,1.3,9,6.1,12.5,9.3l17,15.3c7.4,6.6,15.2,12.9,22.4,19.7,8.6,8.1,5.5,16.3,1.8,25.7-12.2,31-16.9,66.6-9.2,99.3,2.8,11.8,7.4,22.9,11.6,34.2,13.1,36,17.9,73.3-5,106.5-20.9,30.3-52.3,40.2-86.6,47.3l-29.6,5.9c-12.4,2.6-25.6,5.6-36.7,11.8-7.4,4.1-14.2,10.5-23.3,6.1-3.6-1.7-6.8-4-10.4-5.7-6.1-3-12.6-5.2-19.1-7-21.4-5.5-43.4-7.8-64.9-12.7-6.4-1.5-12.6-3.5-18.9-5.5-9.3-2.9-18.3-7.1-26.5-12.3-6.8-4.3-13-9.3-18.6-15.1-10-10.5-20.1-27.9-22.8-42.1-3.3-17.1-2.7-41.4,1.8-58.3,6.6-25,16.4-45.5,16.7-72.1.1-21.9-3.8-43.5-11.7-63.9-1.2-3.3-2.5-6.5-3.8-9.8-1.8-4.4-4.5-8.7-5.1-13.4-.5-4,.1-8.1,1.3-11.9s3.1-5,5.6-7.5c3.1-3,6.2-6,9.3-8.9,7.6-7.4,15.4-14.7,23.2-21.9,3.5-3.2,8.9-9.4,13.3-10.6,8-2.2,14.9,1.9,21.8,5.1,4.1,1.9,9.5,4,13.9,5.3,8.8,2.7,17.9,4.2,27,4.5,16.7.3,31.4-3.2,46.8-9.5,5.7-2.4,11.8-6.5,18-7,6.1-.5,12.4,3.8,18.1,5.8,4.3,1.6,8.8,3.2,13.2,4.5,24.7,7.5,51.6,6.9,75-4.5,5.6-2.7,10.2-6.2,16.5-7.1ZM70.6,38.1c-1.4.9-4.1,3.5-5.5,4.8l-9,8.5c-2,1.9-16.5,15.2-17.2,16.6.2,2.1,2.8,7.6,3.7,10,3.4,9.2,6.5,18.4,8.9,27.9.7,2.6,1.7,5.3,2.3,7.9,2.4,11.9,3.9,24.9,4.1,37.1.2,15.6-1.6,31.2-5.4,46.4-2,8-4.3,14.9-7.1,22.6-12,32.8-16,74.9,15.2,98.7,18.6,14.4,38.4,18.8,60.9,22.9l24.8,4.6c10.3,1.8,20.6,3.4,30.7,6.3,4.7,1.4,9.2,3.5,13.9,4.7,2.3.6,10.9,5.4,12.3,5,11.3-5.9,23.2-10.3,35.6-13.2,4.6-1.1,9.9-2,14.6-3,11.1-2.2,22.1-4.5,33.2-6.9,22.8-5,43.5-10.7,60.6-27.8,23-23.1,18.7-58,9-86.2-2.8-8.3-6.7-16.4-9.4-24.8-3.2-9.8-6-21-7.5-31.2-4.2-28.9-1.3-58.3,7.1-86.3,1.8-6.1,3.9-11.7,6-17.7-2-2.4-9.8-9.1-12.4-11.4-6.9-6-13.8-12.4-20.7-18.4-6.9,2.8-13.4,6.1-20.5,8.4-29.6,9.4-61.1,7.2-90.2-3.1-2-.7-13.6-5.5-14.6-5.3-2.7.9-6,2.6-8.8,3.7-5.1,2.1-10.2,4-15.5,5.7-32.8,10.1-67.2,8.8-98.2-6.3l-.8-.4Z"/>
  <path class="st33" d="M317.8,14.1c2.5-.3,3.9.3,5.8,1.9,3,2.5,5.9,5.1,8.8,7.7l16.6,14.8,13.9,12.3c12.1,10.6,11.3,7.8,5.5,22.5-6.5,16.9-10.8,34.6-12.5,52.6-2.1,20.4-.3,41,5.2,60.7,2.3,8.4,5.3,15.9,8.4,23.9,10.4,26.5,17,56.2,7.9,84-9.5,29.1-33.5,46.6-61.7,55.9-18.3,6-37.1,8.9-55.9,13-19.4,3.7-39.3,7.8-55.5,19.8-3.3,2.4-8.7-2.5-11.6-4.1-16.2-8.9-33.4-11.5-51.4-14.7l-22.8-4.3c-5.4-1-10.7-2.1-16.1-3.2-8.2-1.7-16.1-4.2-24-6.9-1.6-.6-3.2-1.2-4.8-1.9-48.1-19.7-64.2-60.8-53.8-110.1,1.4-6.7,3.2-13.3,5.3-19.7,1.7-5.1,3.6-10.1,5.2-15.2,4.4-14.2,7-28.9,7.5-43.7.5-15.2-1-30.4-4.4-45.2-.6-2.4-1.6-4.6-2.2-6.9-3.6-13.3-8.4-26.2-14.3-38.7-1.3-2.8-1.1-5.6,1.3-7.8,2.7-2.6,5.4-5.2,8.1-7.7l14.9-14,14.5-13.7c2.6-2.5,5.2-5,7.9-7.4,3.3-3,6.9-1,10.1.7,31.2,16.9,66.5,17.2,99.1,4.7,2.6-1,5.1-2,7.6-3.1,3.1-1.4,6.3-2.9,9.3-4.4,4.2-2.1,7.8.6,11.8,2.3,4.2,1.8,8.5,3.5,12.8,5,27.4,9.3,55.6,10.6,82.8.2,4.4-1.7,8.7-3.7,13-5.8,2.1-1.1,5.5-3.1,7.6-3.9ZM70.2,39.1c-1.4.9-4.1,3.5-5.4,4.8l-8.9,8.4c-2,1.9-16.4,15.1-17.1,16.5.2,2.1,2.8,7.6,3.7,9.9,3.4,9.1,6.4,18.3,8.8,27.7.7,2.6,1.7,5.2,2.3,7.9,2.4,11.9,3.9,24.7,4.1,36.8.2,15.5-1.6,31-5.3,46.1-2,7.9-4.3,14.8-7,22.4-11.9,32.6-15.9,74.4,15.1,98.1,18.5,14.3,38.1,18.7,60.5,22.8l24.6,4.6c10.3,1.8,20.5,3.3,30.5,6.3,4.6,1.4,9.2,3.5,13.8,4.6,2.3.6,10.8,5.3,12.2,5,11.2-5.8,23.1-10.2,35.4-13.2,4.6-1.1,9.9-2,14.5-2.9,11-2.2,22-4.5,32.9-6.8,22.6-4.9,43.2-10.6,60.2-27.6,22.9-23,18.5-57.7,8.9-85.6-2.8-8.2-6.7-16.3-9.3-24.6-3.1-9.8-6-20.8-7.4-31-4.2-28.7-1.3-58,7-85.7,1.8-6.1,3.9-11.6,6-17.5-1.9-2.4-9.7-9-12.3-11.3-6.9-5.9-13.7-12.3-20.6-18.2-6.8,2.8-13.3,6.1-20.4,8.3-29.5,9.4-60.7,7.2-89.6-3.1-2-.7-13.5-5.4-14.5-5.2-2.7.9-6,2.5-8.7,3.7-5,2.1-10.1,4-15.4,5.6-32.6,10-66.7,8.7-97.6-6.3l-.8-.4Z"/>
  <path class="st34" d="M318.8,20.2c.8.1,2.1,1.5,2.7,2.1,2.8,2.5,5.6,5,8.4,7.4l24.4,21.6c4,3.6,8.2,7.1,12.1,10.8-18.8,43.8-23.9,91.8-7.8,137.3,2.3,6.4,5,12.5,7.3,18.8,6.4,17.6,10.6,35.8,9.5,54.6-1.2,20.3-9.5,38.4-24.8,51.8-14.4,12.6-33.1,19.9-51.5,24.4-1.3.3-7.8,1.9-8.7,1.9-.6-.5-.4-.2-.6-1h0s0,.4,0,.4h-.3c0,.1,0,.9,0,.9-2.1.3-4.5,1-6.7,1.4l-16.5,3.5c-19.8,4-48.4,8.5-64.3,21.8-17.2-13.2-45-16.8-65.8-20.5-5.5-1-10.9-2-16.4-3.1-14.2-2.6-26.9-5.1-40.4-10.3-48.4-18.8-64-57.6-52.8-107,2.7-11.9,6.2-20.2,9.7-31.4,4.5-13.9,7.2-28.4,7.9-43.1.9-15.4-.8-33-4.1-48.1-.6-2.5-1.7-5.2-2.4-7.7-3.8-14.3-8.8-27.5-15.1-40.9,4.6-4.7,10.4-9.9,15.2-14.4l30.2-28.6c3.1,1.5,6,3.1,9.2,4.6,28.8,13.6,60.7,14.7,90.8,4.6,5.6-1.8,11-3.9,16.4-6.3,2.8-1.2,6.2-3.1,9-4.1,2.8,1,6.4,2.8,9.3,4,6.6,2.7,13.4,5.1,20.3,7,34.3,9.4,65.4,5.2,96.1-12.3ZM70.2,39.1c-1.4.9-4.1,3.5-5.4,4.8l-8.9,8.4c-2,1.9-16.4,15.1-17.1,16.5.2,2.1,2.8,7.6,3.7,9.9,3.4,9.1,6.4,18.3,8.8,27.7.7,2.6,1.7,5.2,2.3,7.9,2.4,11.9,3.9,24.7,4.1,36.8.2,15.5-1.6,31-5.3,46.1-2,7.9-4.3,14.8-7,22.4-11.9,32.6-15.9,74.4,15.1,98.1,18.5,14.3,38.1,18.7,60.5,22.8l24.6,4.6c10.3,1.8,20.5,3.3,30.5,6.3,4.6,1.4,9.2,3.5,13.8,4.6,2.3.6,10.8,5.3,12.2,5,11.2-5.8,23.1-10.2,35.4-13.2,4.6-1.1,9.9-2,14.5-2.9,11-2.2,22-4.5,32.9-6.8,22.6-4.9,43.2-10.6,60.2-27.6,22.9-23,18.5-57.7,8.9-85.6-2.8-8.2-6.7-16.3-9.3-24.6-3.1-9.8-6-20.8-7.4-31-4.2-28.7-1.3-58,7-85.7,1.8-6.1,3.9-11.6,6-17.5-1.9-2.4-9.7-9-12.3-11.3-6.9-5.9-13.7-12.3-20.6-18.2-6.8,2.8-13.3,6.1-20.4,8.3-29.5,9.4-60.7,7.2-89.6-3.1-2-.7-13.5-5.4-14.5-5.2-2.7.9-6,2.5-8.7,3.7-5,2.1-10.1,4-15.4,5.6-32.6,10-66.7,8.7-97.6-6.3l-.8-.4Z"/>
  <path class="st6" d="M192.7,36.5c1-.2,12.5,4.5,14.5,5.2,28.9,10.3,60.1,12.5,89.6,3.1,7.1-2.2,13.6-5.5,20.4-8.3,6.8,5.9,13.7,12.3,20.6,18.2,2.6,2.3,10.4,8.9,12.3,11.3-2,5.9-4.1,11.4-6,17.5-8.3,27.7-11.2,57-7,85.7,1.5,10.2,4.3,21.2,7.4,31,2.7,8.3,6.5,16.4,9.3,24.6,9.6,28,14,62.7-8.9,85.6-16.9,17-37.5,22.7-60.2,27.6-11,2.4-21.9,4.6-32.9,6.8-4.7.9-10,1.8-14.5,2.9-12.3,2.9-24.2,7.3-35.4,13.2-1.4.3-9.9-4.4-12.2-5-4.6-1.2-9.2-3.3-13.8-4.6-10.1-2.9-20.3-4.4-30.5-6.3l-24.6-4.6c-22.4-4.1-42-8.5-60.5-22.8-31-23.6-26.9-65.5-15.1-98.1,2.8-7.6,5-14.5,7-22.4,3.7-15.1,5.5-30.6,5.3-46.1-.2-12.1-1.7-25-4.1-36.8-.6-2.7-1.6-5.3-2.3-7.9-2.4-9.4-5.4-18.6-8.8-27.7-.9-2.4-3.4-7.8-3.7-9.9.7-1.4,15.1-14.6,17.1-16.5l8.9-8.4c1.3-1.3,4-3.9,5.4-4.8l.8.4c30.8,15,65,16.3,97.6,6.3,5.2-1.6,10.3-3.5,15.4-5.6,2.7-1.1,6-2.7,8.7-3.7ZM158,114c-3.2,2.4-5.5,4.7-6,8.9-.5,3.6.5,7.2,2.7,10,2.6,3.4,5.3,4.8,9.2,6.3,2.2,3,3.3,5.9,4.2,9.5-1.8-.3-4-.6-5.8-1.1-1.5,3.2-2.8,5-5.7,7.2-4.8,3.7-7.1,3.4-12.8,3.1-3.2-.2-6.5-.2-9.7-.2-5.6.1-11.1.4-16.6,1-1.5,3.4-1.8,4.8-2.4,8.5-5.5,3.8-6.9,5.2-11.7,9.5-8.2-.6-17.4,3.2-23.6,8.6-5.4,4.6-9.4,10.7-12.4,17.1-1.3,2.8-4,8-1.5,10.7,3.5,3.7,8.4-.2,11-3,2-2.1,4.1-4.6,5.8-6.9,3.5-4.8,7.3-9.7,13.8-9.7,6.9,0,12.3,3.2,12,10.8-.5,9.7-4.7,18.1-8.2,26.9-5.7,14.6-9.8,32.7,2.4,45.3,7.7,7.9,20,12.1,30.9,12.3,8,.1,14.2-1.4,21.6-3.8,6,5.1,11.8,8.4,19.7,10,.3,3.2.5,4.7,3,6.9.1.1.3.2.4.3-8.2,18.6.6,37.9,18.9,46,9.8,4.3,22.6,4.3,32.5.4,5.6-2.3,8.8-5,13.1-8.8,9.3-.6,23.7-2.1,30.3-9.2,4.5-4.8,1.1-12.2-2.7-16.2-1.8-1.9-3.3-4.3-5.5-5.9-4.4-3.6-10.7-6.5-16.2-7.8-1.2-2-2.7-4.4-4.4-6,8.9-3.8,20.3-8.6,24.3-18.3,2.4-5.9-.3-8.3-1.7-13.3,4.4,0,16.6,0,21.5-.1.1,0,.2-.2.3-.3,0-.6.2-.7,0-1.2-.8-.7-2.3-.6-3.4-.6-6.6.1-13.1.1-19.7,0-2.6-2.2-4.5-4.4-7-6.8-2.6-2.5-5.5-4.2-8.6-6,2.5-20.1-1.9-35.4-12.9-52.3.9-1,5.3-5.8,6.1-6.4,4.2-3.3,5-1.6,7.6-7.1,10.5-2.7,18.3-7.9,27.7-12.8,3.1-1.7,6.8-3.1,10.1-4.4,2.9,2.4,4.6,3.1,8.4,3,3.2,2.7,5.2,3.8,9.6,3.4,2.3-.3,5.5-.1,7-2.3,3-4.5,3.9-13.2,3.2-18.5-1.2-9-6.3-9.8-13.9-8.6,1.2-3.2,2.8-6.7,2-10.2-1.7-7.9-8.2-12.9-15.8-8,2.3,8.7,3,14.9-1.7,22.9-2,3.3-4,4.4-7.7,5.3-10,2.4-22.6,2.5-32.4,5.2-4.8-2.3-11.2-4.7-13.9,1.9,0,.2-.2.4-.2.6-5-.1-10.5-.3-15.5-.7-4-4.6-6.4-8.1-9.4-13.3,2.8-.3,4.4-.9,6.9-2.2,3.7-1.9,8.8-7.5,5.9-11.8.1,0,.2-.2.4-.3,3.4-2.6,4.6-5.9,5.1-10,.9.2.8.3,1,1.2.4.5,1.1,1.3,1.8,1.1,3.5-1.1,5.2-5.7,6.9-8.6.5-.9,2-1.7,2.5-2.5,3.3-5.3,2.1-10.2-2.6-13.9,0-1.5,0-3.7-.4-5-.9-2.7-4.5-4.2-7.1-3-2.3,1-3,3.4-3.9,5.5-.9.4-1.6.8-2.4,1.3-1-.4-2.4-.9-3.4-.8-6.9.7-7.6,8.3-7.4,13.2-4,2-4.5,2.6-8.1,5,.1-2.6.6-8-3.1-8.8-1.8-.4-3.6.9-5,2h-.4c-.2-3-1.1-5.7-3-8.1-2.2-3.1-4.8-2.7-7.3-.4-4-1.4-4.5-4.2-9-2.3-.9,0-1.6-.2-2.4-.1.5-2.1,1-3.7,2.5-5.3,2.6,2,2.9,2.5,5,4.6-.5-1-1-1.9-1.7-2.8-5.7-8.1-9.1-5.2-8,3.6-9,1.6-13,7.7-13.3,16.5Z"/>
  <path class="st18" d="M171.3,97.4c-1.1-8.7,2.4-11.7,8-3.6.6.9,1.1,1.9,1.7,2.8-2.1-2.1-2.4-2.7-5-4.6-1.5,1.6-2,3.2-2.5,5.3.9,0,1.6,0,2.4.1,4.5-1.8,5,.9,9,2.3,2.5-2.3,5-2.7,7.3.4,1.9,2.4,2.8,5.1,3,8.1h.4c1.4-1.1,3.1-2.4,5-2,3.6.8,3.2,6.2,3.1,8.8,3.6-2.4,4.1-3,8.1-5-.2-5,.4-12.5,7.4-13.2,1-.1,2.4.4,3.4.8.9-.5,1.5-.9,2.4-1.3.9-2.1,1.6-4.5,3.9-5.5,2.6-1.1,6.1.3,7.1,3,.5,1.4.4,3.6.4,5,4.7,3.7,5.9,8.6,2.6,13.9-.5.8-2,1.6-2.5,2.5-1.7,2.9-3.4,7.5-6.9,8.6-.7.2-1.4-.6-1.8-1.1-.2-.9,0-1-1-1.2-.6,4.1-1.7,7.4-5.1,10-.1,0-.2.2-.4.3,3,4.3-2.2,9.9-5.9,11.8-2.5,1.3-4.2,1.8-6.9,2.2,3,5.2,5.4,8.7,9.4,13.3,5,.4,10.5.6,15.5.7,0-.2.2-.4.2-.6,2.7-6.6,9.1-4.2,13.9-1.9,9.8-2.7,22.4-2.8,32.4-5.2,3.7-.9,5.8-2.1,7.7-5.3,4.7-7.9,4.1-14.2,1.7-22.9,7.6-4.9,14,.2,15.8,8,.8,3.5-.8,6.9-2,10.2,7.6-1.1,12.7-.4,13.9,8.6.7,5.3-.2,14-3.2,18.5-1.5,2.2-4.7,2-7,2.3-4.3.4-6.4-.7-9.6-3.4-3.8,0-5.5-.7-8.4-3-3.3,1.3-7,2.7-10.1,4.4-9.4,5-17.3,10.2-27.7,12.8-2.6,5.5-3.4,3.8-7.6,7.1-.8.6-5.2,5.5-6.1,6.4,11,16.9,15.4,32.2,12.9,52.3,3.1,1.8,6,3.5,8.6,6,2.5,2.4,4.4,4.6,7,6.8,6.6,0,13.1,0,19.7,0,1,0,2.6-.2,3.4.6.2.6,0,.7,0,1.2-.1,0-.2.2-.3.3-4.9.2-17.1.1-21.5.1,1.4,4.9,4.1,7.4,1.7,13.3-4,9.7-15.4,14.5-24.3,18.3,1.7,1.6,3.2,4,4.4,6,5.5,1.3,11.9,4.2,16.2,7.8,2.3,1.6,3.8,4,5.5,5.9,3.7,4.1,7.1,11.4,2.7,16.2-6.6,7.2-21,8.6-30.3,9.2-4.4,3.8-7.6,6.5-13.1,8.8-10,4-22.7,4-32.5-.4-18.3-8-27.1-27.3-18.9-46-.1-.1-.3-.2-.4-.3-2.6-2.2-2.7-3.7-3-6.9-7.9-1.6-13.7-5-19.7-10-7.4,2.4-13.7,3.9-21.6,3.8-10.9-.2-23.2-4.3-30.9-12.3-12.2-12.6-8.1-30.7-2.4-45.3,3.5-8.8,7.7-17.3,8.2-26.9.4-7.6-5-10.8-12-10.8-6.5,0-10.4,4.9-13.8,9.7-1.7,2.4-3.8,4.8-5.8,6.9-2.5,2.8-7.5,6.7-11,3-2.5-2.7.1-7.9,1.5-10.7,3-6.3,7-12.5,12.4-17.1,6.2-5.3,15.4-9.1,23.6-8.6,4.8-4.3,6.2-5.7,11.7-9.5.6-3.7.9-5.1,2.4-8.5,5.5-.5,11.1-.9,16.6-1,3.2,0,6.5,0,9.7.2,5.7.2,8,.6,12.8-3.1,2.8-2.2,4.2-4,5.7-7.2,1.8.4,4,.7,5.8,1.1-.9-3.6-1.9-6.5-4.2-9.5-3.9-1.5-6.5-2.8-9.2-6.3-2.2-2.9-3.2-6.5-2.7-10,.5-4.2,2.8-6.5,6-8.9.3-8.9,4.3-14.9,13.3-16.5ZM314.7,164.4l.3-.3c-.3-.4-.5-.4-.9-.5l-.6.4c.2.3.7.4,1.1.5ZM196.9,164.4c.5,0,1.1,0,1.4-.3-.5-.4-.9-.3-1.5-.2v.6ZM141.4,227.3c-.3-.3-.4-.3-.8-.3-.2,0-.5,0-.6.1.4.3.5.3,1,.3.2,0,.4,0,.5,0ZM216,263.5c.6,0,.5,0,1.1-.3h-.1c0-.1-.7-.1-.7-.1l-.2.4Z"/>
  <path class="st19" d="M224.8,96.3c.9-2.1,1.6-4.5,3.9-5.5,2.6-1.1,6.1.3,7.1,3,.5,1.4.4,3.6.4,5,4.7,3.7,5.9,8.6,2.6,13.9-.5.8-2,1.6-2.5,2.5-1.7,2.9-3.4,7.5-6.9,8.6-.7.2-1.4-.6-1.8-1.1-.2-.9,0-1-1-1.2-.6,4.1-1.7,7.4-5.1,10-.1,0-.2.2-.4.3-.2.8-.3,1-1.2,1.3.4,3.4-.9,5.5-3.6,7.4-7.9,5.5-12.8,2.5-20.6-.4-2.8-1.1-5.7-1.7-8.6-2.1-10.3-1.1-24.3,3-31.3-7.1-3.1-4.6-1.9-11.7,2.9-14.6,4.4-2.7,8.6-2.1,13.4-1-4-2.4-6.4-3.2-11.1-2.2-.1-7.1,3.9-12.8,11.1-13.8,0,.6,0,1.2.3,1.8.3.3.5.5.8.8.1.4.2.8.4,1.2,0,.6,0,1.7,0,2.2,0,1.1.1,3,.4,4,.3-.4.3-.7.4-1.2v-1.9c0-3.1-.1-5.2,2-7.7-.7-.2-.7-.4-.6-1,4.5-1.8,5,.9,9,2.3,2.5-2.3,5-2.7,7.3.4,1.9,2.4,2.8,5.1,3,8.1h.4c1.4-1.1,3.1-2.4,5-2,3.6.8,3.2,6.2,3.1,8.8,3.6-2.4,4.1-3,8.1-5-.2-5,.4-12.5,7.4-13.2,1-.1,2.4.4,3.4.8.9-.5,1.5-.9,2.4-1.3Z"/>
  <path class="st3" d="M224.8,96.3c.9-2.1,1.6-4.5,3.9-5.5,2.6-1.1,6.1.3,7.1,3,.5,1.4.4,3.6.4,5,4.7,3.7,5.9,8.6,2.6,13.9-.5.8-2,1.6-2.5,2.5-1.7,2.9-3.4,7.5-6.9,8.6-.7.2-1.4-.6-1.8-1.1-.2-.9,0-1-1-1.2-.6,4.1-1.7,7.4-5.1,10-.1,0-.2.2-.4.3-.2.8-.3,1-1.2,1.3-1.8-1.9-5.6-2.5-8-2.8l-.2-.2c-.9,0-1,0-1.6-.5.9-.2,1.9-.5,2.8-.8,2.5,0,3.7-1.9,5.5-3.1l.2.2-.4.3c.3.5.5.7.9,1.1v-1.5c-.1,0-.1-.2-.1-.2.3-.7,1.6-2.1,2.2-2.8l-.4-.6c2.4-3,5.6-5.4,8.6-7.8v.2c1,0,4,0,4.7-.2v-.2s.2-.2.2-.2c5-1.2,6-8.3,3.1-11.8-1-1.2-1.7-1.7-3-2.5,0-1.9.4-4.6-.6-6.3-2.2-3.5-6.6-.2-6.8,2.9,0,.5.3.7.7,1l-.3.4c-1.5-.4-1.7,0-3.1.6-1,.4-.9,1.2-1,2.1-.4,0-1.3-1.1-1.9-1.5-.6,0-1.7-.2-2.3,0-3.8.8-5.7,5.4-5.9,8.9,0,1,0,2,.2,2.9l-.5.3c-.5.5-1.1,1-1.5,1.5h-1c-1.1.6-1.8.9-2.8,1.6-1,.7-2.6,2.2-3.6,2.7-.1-.2-.2-.4-.3-.6-1-.1-2.6.2-3.5.5-4.9,1.2-8.1,1.5-12.5-1l-.8-.5c.4-2.3.3-3.2,0-5.5.3,0,1.5-.2,1.9-.2,1.6,1.1,2.2,2.4,2.5,4.4.1,0,.3,0,.5.1,1.3-.6,1.9-1.2,2.9-2.2v-.2c.4-1.4.4-2,.2-3.3h.5c0,.1.4.2.4.2,1.4-1.1,3.1-2.4,5-2,3.6.8,3.2,6.2,3.1,8.8,3.6-2.4,4.1-3,8.1-5-.2-5,.4-12.5,7.4-13.2,1-.1,2.4.4,3.4.8.9-.5,1.5-.9,2.4-1.3Z"/>
  <path class="st29" d="M196.7,109.4c.2.8.3,1.3.6,2.1.8.5,1.5.8,2.1,1.6v.4s-.2.2-.2.2c-.4,1.1-.4.7,0,1.9l-1.7.4c-.5,0-.3,0-.9-.2-.8.9-2.5.6-3.6.4-.6,0-1.5-.1-2-.2,0-.7,0-1.4,0-2.1.1,0,.3,0,.5.1,1.3-.6,1.9-1.2,2.9-2.2v-.2c.8-.4,1.6-1.4,2.2-2.1Z"/>
  <path class="st24" d="M194.5,111.7c0,1.8-.5,2.8-1.4,4.4-.6,0-1.5-.1-2-.2,0-.7,0-1.4,0-2.1.1,0,.3,0,.5.1,1.3-.6,1.9-1.2,2.9-2.2Z"/>
  <path class="st0" d="M197.2,111.5c.8.5,1.5.8,2.1,1.6v.4s-.2.2-.2.2c-.4,1.1-.4.7,0,1.9l-1.7.4c-.5,0-.3,0-.9-.2.2-.9,1.3-1.9,2-2.5-.8-.6-1.2-.8-1.4-1.7Z"/>
  <path class="st5" d="M197.6,115.9c-.2-.1-.1,0-.3-.4.3-.9,1.2-1.4,1.9-1.9-.4,1.1-.4.7,0,1.9l-1.7.4Z"/>
  <path class="st19" d="M196.7,109.4c5.3-4.6,5.6,1.9,5.5,5.8l-2.9.4c-.4-1.2-.4-.9,0-1.9l.2-.2v-.4c-.6-.7-1.3-1.1-2.2-1.6-.3-.8-.4-1.2-.6-2.1Z"/>
  <path class="st28" d="M221.2,122.9c1.4-1.6,2.3-2.6,3.9-4-.3,2.6-.6,6.2-2.3,8.3-.8-.6-2.8-1.7-3.8-1.4v-.2c.3-.7,1.6-2.1,2.2-2.8Z"/>
  <path class="st28" d="M229.4,114.6c.9,0,3.9,0,4.6-.2.2.8-.5,2.5-1,3.2-.6-.4-2.6-.3-3.4-.1l-.2,1.5c-.2-1.4-.3-3.1,0-4.4Z"/>
  <path class="st16" d="M219,125.9c1-.3,3,.7,3.8,1.4-.7,1.3-2,2.3-3.1,3.3-.2-1.2-.3-2-.6-3.2v-1.5Z"/>
  <path class="st16" d="M229.5,119l.2-1.5c.8-.2,2.8-.3,3.4.1-.9,1.8-1.8,3-3.3,4.3,0-.9-.2-2-.2-2.9Z"/>
  <path class="st30" d="M226.6,121.6c0-1.1.1-2.2.5-3.3l.3-.2h-.2c0,0,.2,0,.2,0,.5,1.2.3,3.4.3,4.8-.2-.9,0-1-1-1.2Z"/>
  <path class="st30" d="M217.3,128.4c.2,0,0,0,.4.2.3.9.3.6,0,1.4h-.6c-.5,0-.8,0-1.2-.4.2-.6.7-.8,1.2-1.2Z"/>
  <path class="st34" d="M175.9,97.5c4.5-1.8,5,.9,9,2.3,2.5-2.3,5-2.7,7.3.4,1.9,2.4,2.8,5.1,3,8.1h-.5c.1,1.2.1,1.8-.1,3.2v.2c-1,1-1.7,1.7-3,2.2-.2,0-.4,0-.5-.1-.3-1.9-.9-3.3-2.5-4.4-.4,0-1.6.1-1.9.2.3,2.3.4,3.2,0,5.5v.2c-1.3.3-1.3,1.1-2.5,1.9,0,.5-.5,2.7-.5,3l.2.8h-.1c-2,0-3.9-.6-5-2.4,0-.4,0-.6-.2-1-2.2-2.6-3.4-6.3-4-9.6v-1.9c0-3.1-.1-5.2,2-7.7-.7-.2-.7-.4-.6-1Z"/>
  <path class="st34" d="M175.9,97.5c4.5-1.8,5,.9,9,2.3,2.5-2.3,5-2.7,7.3.4,1.9,2.4,2.8,5.1,3,8.1h-.5c.1,1.2.1,1.8-.1,3.2v.2c-1,1-1.7,1.7-3,2.2-.2,0-.4,0-.5-.1-.3-1.9-.9-3.3-2.5-4.4-.4,0-1.6.1-1.9.2-.2-.4-.3-1.2-.4-1.7-1-3.4-3.6-10.7-8.3-9.9l-1.5.5c-.7-.2-.7-.4-.6-1Z"/>
  <path class="st3" d="M175.9,97.5c4.5-1.8,5,.9,9,2.3,2.5-2.3,5-2.7,7.3.4l-.4.5c-.4-.5-.9-.9-1.4-1.3-.9-.6-1.6-.7-2.6-.5-.8,1.2-1.4,2.4-1.7,3.8,0,.7,0,.7-.3,1.3l.9,3.1-.4.7c-1-3.4-3.6-10.7-8.3-9.9l-1.5.5c-.7-.2-.7-.4-.6-1Z"/>
  <path class="st24" d="M187.8,99c-.8,1.2-1.4,2.4-1.7,3.8-.2-.4-.3-.8-.6-1.2h-.4c.6-1.5,1.2-2.2,2.7-2.5Z"/>
  <path class="st16" d="M185.1,101.5h.4c.2.5.4,1,.6,1.4,0,.7,0,.7-.3,1.3-.5-1-1.1-1.6-.7-2.7Z"/>
  <path class="st4" d="M192.2,100.3c1.9,2.4,2.8,5.1,3,8.1h-.5c-.7-3.6-1-4.7-2.9-7.5l.4-.5Z"/>
  <path class="st33" d="M186.7,107.2c.4,1.7.2,2,1.9,2.2-.4,0-1.6.1-1.9.2-.2-.4-.3-1.2-.4-1.7l.4-.7Z"/>
  <path class="st33" d="M178.5,112.8c2.5-5.7,5.3,1.8,5.7,4.5,0,.5-.5,2.7-.5,3l.2.8h-.1c-2,0-3.9-.6-5-2.4,0-.4,0-.6-.2-1,0,0-.2-3.9,0-5Z"/>
  <path class="st24" d="M178,98c-2.2,3.3-2.2,6.4-1.4,10.1.3,1.2.7,3.6,1.5,4.6h.4c-.2,1.1,0,5,0,5-2.2-2.6-3.4-6.3-4-9.6v-1.9c0-3.1-.1-5.2,2-7.7l1.5-.5Z"/>
  <path class="st25" d="M165.1,121.7c3.1,1,4.7,3.5,7.1,3.9,2.7,1.5,3.7,2.1,6.7,3,1.8,2.9,10.5,1.1,10.9,1.6-.5.2-1.1.4-1.3.8.5.3.7.2,1.3.3h.2c0-.1-.5-.6-.5-.6.6,0,1.4.4,2.1.7-.2,1.2-.8.2-.5,1.2,1.4.4,1.8-.8,2.9-.7-.3.2-.5.4-.8.6v.3c1,.4,1,.3,1.5,1v.3c-2.2.5-7.4-1.7-8.6-1-1.3-.2-3.6-1-4.9-1.4-7.2-2.3-10.8-5-16-10.1Z"/>
  <path class="st25" d="M196.5,130.2c2.4,0,4,.4,6.5.2,2,.2,3.3.6,5.2.2.2.5,0,.5.6.7,2.5,1,3.8,1,5.7,3.1-1.1,1.5-3.9,1.3-5.5.3-.4.1-.3,0-.4.2-3.3-.6-5.6-2.3-9.8-2.6-1.9-.1-3.6-.4-5.5-.6l.3-.5c-.2-.2-.1,0,0-.4.8-.5,2-.7,2.9-.7Z"/>
  <path class="st12" d="M198,131.2c.6.4.9.4.9,1.2-1.9-.1-3.6-.4-5.5-.6l.3-.5c1.8.3,2.6,1.2,4.2-.1Z"/>
  <path class="st29" d="M172.5,101.1c.3.3.5.5.8.8.1.4.2.8.4,1.2,0,.6,0,1.7,0,2.2,0,1.1.1,3,.4,4,.3-.4.3-.7.4-1.2.6,3.3,1.7,7,4,9.6.1.4.2.6.2,1,1.2,1.8,3,2.4,5,2.5-3.3.8-4.3-1.4-6.4-3.3-.8-.8-2-.9-2.1-2.2-.3-2.4-2.2-3.6-4.1-4.7-.7-.4-1-.2-1.4-.9.3-.9-.6-3.1-.6-4.2,0-.7.2-1.5.4-2.2.5,1.2-.4,3.1.9,5.9h.2c.1-2.1-.7-3,.2-4.8.1-.2.5-2.5.5-2.9v-.2c.1-.9.3.2,1.2-.7Z"/>
  <path class="st17" d="M174.5,108.2c.6,3.3,1.7,7,4,9.6.1.4.2.6.2,1-2.5-2-4.2-6.3-4.6-9.4.3-.4.3-.7.4-1.2Z"/>
  <path class="st0" d="M171.3,102c.6-.1.4-.2.8,0-1.2,4.3-1.4,4.3-.2,8.4-1.4-.7-1.2-4.2-1.1-5.5.1-.2.5-2.5.5-2.9Z"/>
  <path class="st22" d="M189.8,130.3c1.2.8,2.3,1.2,3.6,1.5,1.9.2,3.6.5,5.5.6,4.2.3,6.5,2.1,9.8,2.6l.4.3c-.5.6-5.1.3-6.1.2-.9-.1-2-.2-3-.3-3.8-.3-7.5-.8-11.3-1.5l-2.6-.6c1.2-.7,6.4,1.5,8.6,1v-.3c-.4-.7-.5-.6-1.5-1v-.3c.3-.2.5-.4.8-.6-1.1-.1-1.5,1-2.9.7-.3-1,.2,0,.5-1.2-.7-.3-1.5-.8-2.1-.7l.5.5h-.2c-.6,0-.8,0-1.3-.2.2-.4.8-.6,1.3-.8Z"/>
  <path class="st12" d="M193.2,127.2c3,1.1,6.2,1.9,9.4,2.5l.5.7c-2.5.2-4.1-.3-6.5-.2-.9,0-2.1.2-2.9.7,0,.3,0,.2,0,.4l-.3.5c-1.4-.4-2.4-.7-3.6-1.5-.4-.5-9.2,1.4-10.9-1.6,4.6,1.4,8.2,1.9,12.7-.5.6-.3,1.1-.6,1.6-1Z"/>
  <path class="st17" d="M163.5,120.2c1.6-.6,3.9-1.5,5.6-1.3-.4.4-3.5,1-4.2,1.2,2.4,2,4.9,3.6,7.3,5.5-2.4-.4-3.9-2.9-7.1-3.9,5.2,5.1,8.9,7.8,16,10.1,1.3.4,3.6,1.2,4.9,1.4l2.6.6-1.1.6c-11-2.4-17-5.8-24-14.2Z"/>
  <path class="st17" d="M188.7,133.8c3.8.6,7.5,1.2,11.3,1.5,1,0,2,.1,3,.3l-2.1.3v.2c-.1,0,0,.1,0,.1-4.1.1-9.2-.8-13.3-1.7l1.1-.6Z"/>
  <path class="st4" d="M214.6,134.4l.2.2c-1.3,2.6-11.3,1.6-14,1.4h0c0-.1.1-.3.1-.3l2.1-.3c1,0,5.6.4,6.1-.2l-.4-.3c.2-.2,0-.1.4-.2,1.5,1,4.4,1.2,5.5-.3Z"/>
  <path class="st20" d="M212.9,128.9c4.6-2.3,4.5-3.1,7.9-6.6l.4.6c-.6.7-1.9,2.1-2.2,2.8v.2s.1,1.5.1,1.5c-.4-.4-.6-.6-.9-1.1l.4-.3-.2-.2c-1.8,1.2-3,3.1-5.5,3.1Z"/>
  <path class="st16" d="M186.7,115.4c-.4,2.2-1,3.8-3,4.9,0-.3.4-2.5.5-3,1.2-.8,1.2-1.6,2.5-1.9Z"/>
  <path class="st4" d="M202.6,129.7c3.1.4,4.4.3,7.5,0,.7.5.8.4,1.6.5l.2.2c-1.1,0-2.6.1-3.6.3-2,.4-3.2,0-5.2-.2l-.5-.7Z"/>
  <path class="st0" d="M186.7,115.2l.8.5c-1.3,2.2-1,4.1-3.7,5.5l-.2-.8c2-1.1,2.6-2.8,3-4.9v-.2Z"/>
  <path class="st0" d="M169.7,110.2c-.7-1.4-2-5.6-.2-6.3-.2.7-.3,1.4-.4,2.2,0,1.1.8,3.3.6,4.2Z"/>
  <path class="st0" d="M210.4,112.6h1c-1.1,2.1-1.3,2.8-1.9,5.2,0-1.5.9-4.7.9-5.2Z"/>
  <path class="st4" d="M229.3,114.5c.8-.7,3.7-.4,4.9-.4l-.2.2v.2c-.7.1-3.7.1-4.6.2v-.2Z"/>
  <path class="st0" d="M213.4,110.7c-.1-.1,2,2.5,1.9,2.3l-.2.4h.2c-1-.8-1.5-1.5-2.3-2.5l.5-.3Z"/>
  <path class="st17" d="M227.5,97.4c.8.2,1,.2,1.6.6l-.2.2c-.8,0-1-.2-1.7-.5l.3-.4Z"/>
  <path class="st18" d="M218.2,101.8c4.2-.4,3.7,4.7,1.5,7.1-3.9.3-3.9-4.8-1.5-7.1Z"/>
  <path class="st3" d="M230.7,94.2c2,.6,3,2.4,1.6,4.2-1.9,0-2.8-2.6-1.6-4.2Z"/>
  <path class="st5" d="M173.3,99.3c.7-.2.7-.3,1.2,0,.2.8-.6,2.6-.9,3.9-.1-.4-.3-.8-.4-1.2-.3-.2-.5-.5-.8-.8-.2-.6-.3-1.2-.3-1.8h1.1Z"/>
  <path class="st0" d="M172.1,99.3h1.1c-.2,1.3,0,1.5,0,2.6-.3-.2-.5-.5-.8-.8-.2-.6-.3-1.2-.3-1.8Z"/>
  <path class="st4" d="M173.7,105.3l.3,1c.3-.9,0-2,.2-3,.2.8-.2,2.3.2,2.9v1.9c0,.5,0,.7-.3,1.2-.3-1-.4-3-.4-4Z"/>
  <path class="st35" d="M151.8,281.4c-5.3,2.4-13.8,3.1-19.4,2.4-9.9-1.3-20.9-5.6-27.2-13.6-9-11.5-6.5-26.4-1.4-38.9,3.2-7.9,7.1-15,8-23.8.4-3.9.3-8.9-2.4-12.1-2.7-3.2-6.1-4.4-10-4.9-6.7-1-12.8,2.4-16.9,7.7-2.4,3.2-9.3,13.1-13.9,12.6-.9-.8,0-2.8.3-3.9,3.3-13.1,17.3-26.4,31.2-27.2,4.6,6,9.2,12.1,14.6,17.4,2.9,2.9,6.2,5.6,9.4,8.2,1.4,1,2.9,2.1,4.3,3.1-.1,4.3.2,12.7,1.9,16.5-2.5,0-5.2,0-7.6,0-4.7,0-9.5,0-14.1,0,0,.7,0,1.5.2,2.2.9,0,2.9,0,3.8,0,1.8-.1,3.9-.1,5.7-.1,4.5.1,9.2-.2,13.8,0,2.5,1.7,4.6,3.1,7.4,4.2-.9,2.4-1.4,3.9-1.9,6.4.9,1.5,1.5,2.6,2.7,3.9-.2,2.3-.2,4.8-.4,6.8.1,1.7,0,3.7.3,5.4,1.4,10.9,5.1,19,11.8,27.5Z"/>
  <path class="st29" d="M112.5,227.2c1.8-.1,3.9-.1,5.7-.1,4.5.1,9.2-.2,13.8,0,2.5,1.7,4.6,3.1,7.4,4.2-.9,2.4-1.4,3.9-1.9,6.4.9,1.5,1.5,2.6,2.7,3.9-.2,2.3-.2,4.8-.4,6.8-.1-.9-.1-2.4-.1-3.3-.7-.4-1.7-.8-2.5-1.1-6.5-2.8-10.8-9.7-10.9-16.8-3.4,0-10.8.2-13.8-.1Z"/>
  <path class="st29" d="M124.1,205.4c1.4,1,2.9,2.1,4.3,3.1-.1,4.3.2,12.7,1.9,16.5-2.5,0-5.2,0-7.6,0,.9-.3,2.1-.2,3.1-.2-1-6.8-.1-12.2-1.7-19.4Z"/>
  <path class="st6" d="M200.6,180.5c.7-3.7,2-7.4,2.9-11,.2-1,.5-3.2,1.5-3.5,2.9,2.1,11.8,18.1,13.6,18.8,1.8.4,3.9,0,5.8-.1,1.5.7,8.4,10.3,9.8,12.4-3.3.5-5.3.4-8.5,1.5,6.3,11.6,10.1,24.2,10.5,37.5,0,2.8-.2,5.6-.5,8.4-3.3-.1-9.3-.3-12.4.5-3.5-1.3-6.9-3.1-10.7-4.3-.2-4.7,0-9.9,0-14.7.5-7.1-.9-18.6-3.4-25.1-2.2-.4-10,.2-12.7.2-6.5,0-13.5-.6-19.9-1.9-1.8-1.5-2.8-3.2-5.1-4.9-1.5,0-4.6.1-6.3.2,1.6-3.3,2.8-7.7,3.7-11.2,9.7,2,24.6,3.7,34.4,2.2-1-1.6-1.9-3.1-2.5-4.8Z"/>
  <path class="st24" d="M144.6,235.1c9.9-3.9,26.6-2.2,37.2-.8.9.1,1.8.3,2.7.4-.7.4-1.8,1.3-2.6,1.4l-.3.4c0,.2-.2.8-.2,1-1,.6-2.4,1.5-3.4,1.8-1.5-.4-7.5.7-9.2,1.1-1.3.3-4.8,1.9-5.5,1.8-1,.5-2.2,1.3-3,2.1l.3.6c5.2-3.2,8.7-3.5,14.4-4.4-2.5,3.2-3.2,5-4.1,9.1-.5,6.7-.4,11.2,6.3,14.4,3.8,1.4,5.3,1.3,9.2,1.7l.8,2.5c-1.4,1.5-2.5,2.7-3.8,4.2-3.8,4.9-6,8.1-7.8,14-.5,2-.6,3-.8,5.1-12.6-4.5-19.8-10.2-26.1-22.1-6.1-11.5-7.6-21.9-4-34.3Z"/>
  <path class="st13" d="M144.6,235.1c9.9-3.9,26.6-2.2,37.2-.8.9.1,1.8.3,2.7.4-.7.4-1.8,1.3-2.6,1.4l-.3.4-2.5,1.6c-.4-.5-.6-.8-1.2-.8-7.9-.3-18-1-25.3,1.4-7,16.9,4.8,40.4,21.2,47.4.6.2,1.1.4,1.7.4-.5,2-.6,3-.8,5.1-12.6-4.5-19.8-10.2-26.1-22.1-6.1-11.5-7.6-21.9-4-34.3Z"/>
  <path class="st37" d="M181.8,234.4c.9.1,1.8.3,2.7.4-.7.4-1.8,1.3-2.6,1.4v-.3c.4-.3.4-.2.6-.6l-.7-.9Z"/>
  <path class="st13" d="M160.5,244.9c5.2-3.2,8.7-3.5,14.4-4.4-2.5,3.2-3.2,5-4.1,9.1,0-.8-.3-1-1-1.5-3.4-2.5-8-.9-11.6-.6h-.2c.5-.8,1.1-1.3,1.8-1.9l.7-.6Z"/>
  <path class="st34" d="M177.1,264c3.8,1.4,5.3,1.3,9.2,1.7l.8,2.5c-1.4,1.5-2.5,2.7-3.8,4.2-2.5-.7-5.6-4.9-6.5-7.3-.2-.5,0-.8.3-1.2Z"/>
  <path class="st4" d="M179.2,238.2l2.5-1.6c0,.2-.2.8-.2,1-1,.6-2.4,1.5-3.4,1.8-1.5-.4-7.5.7-9.2,1.1-1.3.3-4.8,1.9-5.5,1.8,2.5-1.5,5.6-2.3,8.4-2.8,2.3-.4,5.8,0,7.5-1.3Z"/>
  <path class="st38" d="M158.8,245.8c.4,0,.6-.2,1-.3-.7.6-1.3,1.2-1.8,2h-.2s0-.4,0-.4c.4-.7.5-.8,1-1.3Z"/>
  <path class="st33" d="M160.2,244.4l.3.6-.7.6c-.4.1-.6.2-1,.3.4-.5.9-1,1.4-1.4Z"/>
  <path class="st31" d="M179.9,299.4c-.9-1.3-1.8-3-1.4-4.7,2.2-7.6,9.4-14.1,15.7-18.7,7.7-5.6,18.4-11.2,27.8-12.7,5.7-.9,13.1.2,19-.2,4.9.1,10.1-.3,15.1.2,2.6.3,6.6,3,7.9,5.2,4.5,7.6-3.4,15.4-9.5,18.9-2.2,1.3-9.5,5.5-11.9,5.4-.6-.4-.7-.2-.8-.7,1.3-1.3,3.6-.8,3.6-3.2,0-2-.8-2.8-1-4.8l-.3-.3h-.5c-.7,1.2.6,2.7.2,4-.4.2-.2.2-.7.1-2.6,0-2.9-.1-5.2,1.2-.5-1.4-.5-2.2-1.5-3.2-.7.4.1.9-.2,1.8-.5,0-2-1-2.5-1.3-1.6-.9-3.3-1.7-5-2.5-.3-1.1-.5-2.1-1.2-2.9h-.3c-.3.9,0,1.6,0,2.5-8.6-2.9-17-2.6-25.6-.5-.2-.8-.4-2.3-1.1-2.6-.5.9-.1,2,.1,2.9-.8.3-1.6.6-2.5.9-1.6.1-2.1.6-3.6,1.2-.3.3-.6.5-.9.8l-.3.2c-1,.8-2.8,1.7-3.9,2.6-4.2,3.2-6.8,6.1-9.7,10.4Z"/>
  <path class="st38" d="M236.6,285.8c2.6-.4,2.5-.4,3.9,1.8,1,0,1.9,0,2.8.2-2.6,0-2.9-.1-5.2,1.2-.5-1.4-.5-2.2-1.5-3.2Z"/>
  <path class="st38" d="M193.6,282.1c3.1-.2,2.2,1.7,4.6,1.9-1.6.1-2.1.6-3.6,1.2-.2-1.2-.3-2.1-1-3.1Z"/>
  <path class="st33" d="M193.8,286.1c-.3-.8-1.2-3.1-.8-3.9h.6c.7.9.8,1.8,1,3-.3.3-.6.5-.9.8Z"/>
  <path class="st3" d="M250.3,272.9c.5,0,.3,0,.8,0,.4-.9-.8-2.7-.1-4h.4s.4.4.4.4c.7,3.9,3.4,7-3.9,7.8-1.2.1-3.2-.2-3.5-1.6-.2-1-1.2-4-.9-4.8,1.9,0,2.7-.2,4.1,1.2.2.2.4.4.6.7.9,0,1.3,0,2.2.2Z"/>
  <path class="st38" d="M243.5,270.8c1.9,0,2.7-.2,4.1,1.2.2.2.4.4.6.7.9,0,1.3,0,2.2.2-2.4,0-3.1.3-5.2,1.3-.2-1.5-.2-2.5-1.6-3.3Z"/>
  <path class="st38" d="M248.5,273.9c.6,0,1.7-.2,2.3,0,.5.2.5.4.7.8,0,.3,0,.5-.3.7-.7.9-1.7,1-2.7,1.1-.6,0-1.2,0-1.8-.2-.6-.1-.9-.4-1.2-.9v-.5c.9-.8,1.9-.9,3-1Z"/>
  <path class="st3" d="M255,282.2h.6c.7-.6-.4-2.7-.1-3.8l.3-.2h.3c1.4,2.9,2.5,6-.8,7.8-1.9.6-3.8.5-5.7,0-.6-.9-1.7-5-1.2-5.9,1,0,2-.1,2.7.6,1.5,1.7,2.2,1,3.9,1.4Z"/>
  <path class="st38" d="M251.2,285.6c-.8-.4-.8-.3-1.2-.9.5-1.6,5.2-1.9,6.4-1,.3.9-1.1,1.6-1.9,1.9l.7.4c-1.9.6-3.8.5-5.7,0,.8,0,.9,0,1.6-.5Z"/>
  <path class="st33" d="M251.2,285.6c1.4.4,1.9.2,3.3,0l.7.4c-1.9.6-3.8.5-5.7,0,.8,0,.9,0,1.6-.5Z"/>
  <path class="st38" d="M248.4,280.2c1,0,2-.1,2.7.6,1.5,1.7,2.2,1,3.9,1.4-2.6,0-2.9,0-5.2,1.2-.3-1.5-.3-2.2-1.4-3.2Z"/>
  <path class="st38" d="M225.3,271.4c-.3-1.3-.5-2.5-.4-3.8l.3-.2c1,.8,1.8,4.2,2,5.5-1.2,1.6-1.7,2.1-3.7,2.4-2.1.3-4.1.6-5.1-1.7-.3-.8-.8-3.5-.5-4.3h.3c2.2.2,2.5.4,4.1,2,1.3,0,1.9,0,3.2,0Z"/>
  <path class="st18" d="M223.4,275.3c-2.1.3-4.1.6-5.1-1.7-.3-.8-.8-3.5-.5-4.3h.3c2.2.2,2.5.4,4.1,2,1.3,0,1.9,0,3.2,0l.5,1.1c-1.7-.5-5-.6-6,1.2.2,1.4,2.4,1.3,3.5,1.2v.4Z"/>
  <path class="st38" d="M218,269.3c2.2.2,2.5.5,4.1,2-1.1.4-1.8.7-2.8,1.3-.3-1.2-.5-2.3-1.3-3.3Z"/>
  <path class="st3" d="M225.3,271.4c-.3-1.3-.5-2.5-.4-3.8l.3-.2c1,.8,1.8,4.2,2,5.5-1.2,1.6-1.7,2.1-3.7,2.4v-.4c1.3-.4,2.2-.8,2.4-2.4l-.5-1.1Z"/>
  <path class="st3" d="M213.2,276.4c-.3-1.4-.6-2.3-.3-3.7l.2-.3c1.3.7,2,4.9,1.3,6.2-.6,1-1.3,1.2-2.2,1.5-1.5.3-3.4.5-4.9,0-1.1-.8-2.1-4.9-1.6-5.8h.6c.9.1,1.1.1,1.9,0,.6.6,1.4,1.5,2.1,1.9,1.2,0,1.8,0,3,0Z"/>
  <path class="st38" d="M206.8,278.9c1.8-1.2,4.7-2.2,6.7-1.2.6,1-.8,1.6-1.6,2.1l.2.5c-1.5.3-3.4.5-4.9,0,.7,0,1.1,0,1.7-.3l-2.2-1Z"/>
  <path class="st33" d="M211.9,279.7l.2.5c-1.5.3-3.4.5-4.9,0,.7,0,1.1,0,1.7-.3,1.2.1,1.8,0,3-.2Z"/>
  <path class="st38" d="M206.2,274.5c.9,0,1.1,0,1.9,0,.6.6,1.4,1.5,2.1,1.9-1.4.4-1.8.5-2.9,1.3-.4-1-.7-2.1-1.1-3.1Z"/>
  <path class="st3" d="M239.4,278.6c-.2-1-.9-3.1-.3-4h.3c2,2.7,2.4,7.6-2.4,7.8-4.6.2-5.3-1-5.5-5.9l.3-.2c3.5.1,2.5,1,4.5,2.1,1.3-.1,1.8,0,3.1.2Z"/>
  <path class="st38" d="M231.9,276.4c3.5.1,2.5,1,4.5,2.1-1.1.4-2.1.7-3.1,1.1-.3-1.5-.3-2-1.3-3.2Z"/>
  <path class="st38" d="M237.3,279.4c.3,0,.5,0,.8,0,.6,0,1.1,0,1.6.4,0,.5,0,.6-.2,1-.6.8-1.8,1.1-2.7,1.2-.7,0-1.6,0-2.3-.3-.4-.2-.6-.4-.7-.8.1-.2.1-.3.3-.5.7-.8,2.3-.9,3.3-.9Z"/>
  <path class="st3" d="M239.8,268.5c-.3-1.2-.8-2.9-.3-4h.3c1.1,1.2.9,2,1.3,3.2,1.9,5.2-8.1,6.6-8.8,2-.1-1-.4-2.1-.4-3.2h.4c3.4-.8,2.6,1.5,4.3,1.8,1.3,0,1.8,0,3.2.1Z"/>
  <path class="st38" d="M232.3,266.4c3.4-.6,2.6,1.7,4.3,1.9-1.2.3-1.8.7-2.9,1.2-.2-1.4-.3-2.3-1.4-3.1Z"/>
  <path class="st38" d="M236.1,269.5c1.4,0,2.7-.3,4,.5v.4c-.4.8-1.4,1.1-2.2,1.5-.5,0-1,.1-1.4,0-.8,0-1.8-.3-2.3-.9-.2-.2,0-.4,0-.6.6-.5,1.3-.7,2-.9Z"/>
  <path class="st19" d="M112.3,172.4c2.8-2.1,6.6-4.8,9.7-6.2,5.7,3.2,11,11.3,13.9,17.1l-.7.4c-2-2.2-4.2-4.2-6.6-5.9,1.9,2.8,4.3,6.2,5.8,9.2,3.9,8,4.9,14,12,20.4,3.8-1.9,7-3.4,10.4-6.1,1.6-1.3,3.8-3.5,5.4-4.6.7-.5,1.2-.9,1.9-1.3,2.7.1,4.6,0,7.3,0,2.4,2,5.1,5.2,6.6,7.8v.2s.4.8.4.8c-.2.9-.4,2.2-.7,2.9-.5,1.7-2.2,6.8-3.2,8-1.5,1.6-7.5,7-9.6,6.6-1.2-1-.5-2.4-.2-3.7.3-2,1.8-3.4,3.4-4.5v.4c0,0,.4.3.4.3.5.4.4.5,1,.5.1-1.6-3-4.2-4.7-3.7-1.9.5-3.6,1.7-5.4,2.4-4.1,1.7-8.6,4.4-12.8,5.8-2.6-1.6-2.5-3.9-4.4-5.1-3.4-2-6.6-3.8-9.8-6-8.7-6.1-16.1-13.2-22.7-21.4-1.8-2.2-4-4.7-5.6-7,2.5-3,5.1-5.2,8.2-7.4Z"/>
  <path class="st29" d="M112.3,172.4c2.8-2.1,6.6-4.8,9.7-6.2,5.7,3.2,11,11.3,13.9,17.1l-.7.4c-2-2.2-4.2-4.2-6.6-5.9,1.9,2.8,4.3,6.2,5.8,9.2,3.9,8,4.9,14,12,20.4,3.8-1.9,7-3.4,10.4-6.1,1.6-1.3,3.8-3.5,5.4-4.6,0,1-.3,2.3-.3,3.4-.1,1.4-.1,2.7-.1,4.1-2.4,1.3-6.2,2.6-8.8,3.8-1.8.9-5.9,3-7.6,3.4-4.2-6.3-8.3-11.8-13-17.8-5.4-6.8-8.9-12.2-17.2-16,3.2-1,6.4-1.5,9.5-2.6-2.7-1.2-5.5-1.9-8.4-2.2-1.4-.2-2.3-.1-3.7-.4h-.2Z"/>
  <path class="st3" d="M168.9,198.2c.4,0,2,0,2.2.2,2.2,1.6,4.3,6.9,5.6,9.2h.3c0,0,.3-.4.3-.4h.5c-.5,1.7-2.2,6.9-3.2,8-1.5,1.6-7.5,7-9.6,6.6-1.2-1-.5-2.4-.2-3.7.2.4.4.6.4,1-.1.9-.4,1.3.4,1.8,1.2-.1,2.6-1.7,3.7-2.6.8-.7,5.4-3.4,5.1-4.6-.6-2.4-4.8-8.5-6.4-10h-2.5c0,0,2.7-.7,2.7-.7,2.8,1.9,4.7,5.9,6.4,8.9.7-1.2,1.6-2.7,1.2-4-1.3-3.7-3.6-7.5-6.8-9.7Z"/>
  <path class="st0" d="M168.1,213.7v.4c0,0,.4.3.4.3-2.3,1-2.7,2.4-3.3,4.8,0-.5-.2-.6-.4-1,.3-2,1.8-3.4,3.4-4.5Z"/>
  <path class="st29" d="M178,203.5l.4.8c-.2.9-.4,2.2-.7,2.9h-.5c0-.5.6-3.1.7-3.7Z"/>
  <path class="st19" d="M247.2,159.7c1.9-.3,4-.7,5.9-1.1,5-.9,10.2-1.4,15.2-2.2,5.2-.8,13.9-1,18.1-4.3,3-2.3,6.1-10.1,6.9-13.8.8-4-.7-8.8-.9-12.8,0-.5,2.2-1,2.6-1,3.1-.4,5.6,2.7,6.8,5.2,2.6,5.2-1.9,10-1.3,15,.2,0,.9,0,1.1-.1,2.7-.7,7-1.6,9.6-.2,2.5,1.3,3,5.5,3.3,8,0,.7,0,1.5,0,2.2.3.6.2.4,0,1.3.5.8,0,3.5-.2,4.6-3.7,3.2-9.6,3-14.3,2.7-.2,0-.4,0-.6,0l-.7.6h-.1c-.4-.2-.4-.2-.7-.5-.4.5-.4.6-.9,1-.3.3-.6,1.2-.7,1.7-2.4,1.4-5.4-2-6.6-3.8l-.6-.2c-.2-.6-.1-.6-.6-.9l.5,1.7c-.2.4,0,.2-.5.4-7.1,1.3-18,8.1-24.6,11.4-4.9,2.4-8,3.4-13.3,5.1-.5-1.6-1.4-3.2-2-4.8-1.9-5.2-2.4-9.7-1.6-15.2Z"/>
  <path class="st14" d="M314.7,155.9c.5.8,0,3.5-.2,4.6-3.7,3.2-9.6,3-14.3,2.7-.2,0-.4,0-.6,0-2.8-1.6-2.7-3.1-.5-5.1,6.6.7,9.5.8,15.2-2.1h.3Z"/>
  <path class="st2" d="M298.2,157c-4.2-5.4,4.4-5.8,7.4-7.3,1-.5.7-1.4,1.1-2,.7.1,2,0,2.2.4,0,.9,0,1.1.3,1.9-3.1,1-7.9,1.7-10.6,3.4-2,1.3.2,3.1,1.5,4,5.3.2,7.8.4,12.7-1.7l1.4.3c-5.8,2.9-8.7,2.8-15.2,2.1-2.2,2-2.3,3.5.5,5.1l-.7.6h-.1c-.4-.2-.4-.2-.7-.5-.9-.9-1.2-1.6-1.8-2.7.6-1.4,1.1-2.2,2-3.5Z"/>
  <path class="st17" d="M288.6,163.1c-.3-1.1-.9-3.3-.6-4.4.7.4,1.3,2.5,1.7,3.4l-.6-.2c-.2-.6-.1-.6-.6-.9l.5,1.7c-.2.4,0,.2-.5.4Z"/>
  <path class="st17" d="M300.5,144.9c.2,0,.9,0,1.1-.1v3.3c-.5-1.1-.8-2.1-1.1-3.2Z"/>
  <path class="st4" d="M312.9,155.7c.6-.4,1.1-.7,1.7-1,.3.6.2.4,0,1.3h-.3s-1.4-.3-1.4-.3Z"/>
  <path class="st34" d="M178,203.4c.6-1.2-.4-1.8-.7-3.1,1.6-.2,4.8.6,6.4.8,2.9.2,5.9.4,8.7.6,5.8.4,11-.4,16.6-.8,2.5,6.6,3.9,18,3.4,25.1-.5,2,0,4.3-.3,6.3-.2-.5-.1-7.9,0-9.2.2-4.4-.8-10.2-1.2-14.5,0-1-2.2-7.3-2.3-7.5-.4.9.3,2,.5,2.8,1.5,5.5,2.2,11.4,3,17.1.2,2-.3,8.4-.4,10.5-.1-.7-.2-1.2-.2-2,0,.3-.1.7-.2,1h-.2c-1.1-1.1-1.1-1.7-2.6-2.5-3.2-1.7-8.7.4-12.1,1.6-2.5-2.4-5.5-4.1-9-4.3-4.3-.2-8.9-.1-13.2-.1h-28.9c1.2-1.6,2.2-3.5,3.8-4.9.9-.8,14.4-7.3,15.7-7.7,1.7.3,2,.5,3.5,1.3-1.6,1-3.1,2.5-3.4,4.5-.4,1.3-1,2.8.2,3.7,2.1.3,8.1-5,9.6-6.6,1-1.1,2.6-6.3,3.2-8,.3-.8.5-2.1.7-2.9l-.4-.8v-.2Z"/>
  <path class="st3" d="M178,203.4c.6-1.2-.4-1.8-.7-3.1,1.6-.2,4.8.6,6.4.8,2.9.2,5.9.4,8.7.6,5.8.4,11-.4,16.6-.8,2.5,6.6,3.9,18,3.4,25.1-.5,2,0,4.3-.3,6.3-.2-.5-.1-7.9,0-9.2.2-4.4-.8-10.2-1.2-14.5,0-1-2.2-7.3-2.3-7.5-.4.9.3,2,.5,2.8,1.5,5.5,2.2,11.4,3,17.1.2,2-.3,8.4-.4,10.5-.1-.7-.2-1.2-.2-2,0-2.7.4-6,.2-8.4-.5-6.7-2-13.3-3.6-19.8-1.5.4-4.8.5-6.5.6-7.9.4-16.1-.1-23.9-1.4,1,1.7,1,2.1.8,3.9l-.4-.8v-.2Z"/>
  <path class="st34" d="M130.6,159.7c7.2-.1,14.8-.3,21.9.6,6.2,6.4,8.5,7.9,16.7,10.3,2-.9,3.8-2.1,5.7-3.4,1.5,5.5-1.2,11.1-6.2,13.6-1.4.7-2.9,1.3-4.4,1.9-2.5,1.1-5,2.2-7.5,3.5-6.6,3.4-10.6,5.5-16.4,10-1.7-3.6-1.5-6.9-2.7-10.7-2.2-7.2-6-14.1-11.7-19.2-2.4-2.2-4.9-4.1-7.3-6.2,3.8-.3,8.1-.3,11.9-.4Z"/>
  <path class="st34" d="M235.1,162.6c2-5.2,5.3-5.5,10-3.2-.2,8.9,0,11.8,3.9,20-.8,2.2-1.6,3.8-3.8,4.8-.6.3-2.3.9-2.7,1.2-3,2.3-4.7,4.5-8.2,6.4-4.5-5.7-9.3-11.2-14.2-16.5-3.5-3.7-7.5-7.5-10.9-11.2l-.7-.7v-.3c1-.5,4.8,1.2,6.7,1.3,1.5,0,3.9-.7,5.6-.6.3,0,.4-.2.5-.5v-.4c.8-.4,6.4-.4,7.9-.4.8-.5,4.9-.3,6,.2Z"/>
  <path class="st1" d="M221.1,163.2c.8.6,1.3,1.2,2,1.9-2.3,0-6-.1-8.1-.7,1.5,0,3.9-.7,5.6-.6.3,0,.4-.2.5-.5Z"/>
  <path class="st33" d="M229,162.4c.8-.5,4.9-.3,6,.2-.3.8-.8,3.7-1.1,4.8l-.2-4.9c-1.5,0-3.2,0-4.8,0Z"/>
  <path class="st24" d="M189.6,299.1c1.3-.1,2.7-.3,4-.4,1.4,1,4.8,3.3,5.8,4.5,2.7,2.2,4.9,4.7,6.6,7.8-.9,2.6-2.3,8.4-3.3,10.6-.7.6-11.7,5-13.3,5.7l-1.8.7c-2.7-1.1-5.6-2.6-8.3-3.8-.2-.7-.3-1.5-.5-2.2-1.3-7.7,0-15.8,4.5-22.3,2-.2,4.2-.3,6.3-.5Z"/>
  <path class="st13" d="M183.3,299.6c2-.2,4.2-.3,6.3-.5-5.3,10.2-4.9,17.9-.3,28.1l-1.8.7c-2.7-1.1-5.6-2.6-8.3-3.8-.2-.7-.3-1.5-.5-2.2-1.3-7.7,0-15.8,4.5-22.3Z"/>
  <path class="st34" d="M199.3,303.2c2.7,2.2,4.9,4.7,6.6,7.8-.9,2.6-2.3,8.4-3.3,10.6-3.8-2.7-6.1-15.3-3.3-18.4Z"/>
  <path class="st34" d="M241,296.9v-.5c.7.1,2.3,2.4,2.8,3,3.4,4.8,5.4,11.2,5.2,17.1-.9-.4-1.9-.9-2.9-1.3-2.5,3.3-4.9,7.6-7.4,10.7-2.9-.4-5.3-.8-8.1-1.6-1.9-.6-2.8-1-4.4-2.1-1.4-2.7-4.1-9.8-5.3-12.9,1.3-4,3.4-8.4,6.8-11.1,1.9.4,5.6.6,7.7.8,1.2,0,3.4.3,4.7.4.3-.9.6-1.6,1-2.5Z"/>
  <path class="st24" d="M241,296.9v-.5c.7.1,2.3,2.4,2.8,3,3.4,4.8,5.4,11.2,5.2,17.1-.9-.4-1.9-.9-2.9-1.3-2.5,3.3-4.9,7.6-7.4,10.7-2.9-.4-5.3-.8-8.1-1.6.3,0,.4,0,.7-.1,6.6-5.6,8.6-13.1,5.9-21.3-.4-1.4-1.4-2.4-1.8-3.8,1.2,0,3.4.3,4.7.4.3-.9.6-1.6,1-2.5Z"/>
  <path class="st13" d="M241,296.9v-.5c.7.1,2.3,2.4,2.8,3,3.4,4.8,5.4,11.2,5.2,17.1-.9-.4-1.9-.9-2.9-1.3.9-3.3-1-10.5-2.5-13.6-.2-.5-2.4-4.4-2.6-4.7Z"/>
  <path class="st34" d="M200.1,286.4c4.4-1.7,13.2-2.9,17.9-2.1,1,.1,1.9.3,2.9.5l2.6,6.2c.7,1.6,1.4,3.6,2.2,5.2l-4.7,7.7c-1,1.6-2.4,3.8-3.2,5.4-3.1,0-6.7,0-9.8,0-2.6-2.7-5.3-5.4-8-8-1.5-1.5-3-2.9-4.6-4.4l3-6.9c.4-1.2,1.1-2.5,1.6-3.7Z"/>
  <path class="st24" d="M200.1,286.4c4.4-1.7,13.2-2.9,17.9-2.1,1,.1,1.9.3,2.9.5l2.6,6.2c-6.1-1-12.3-.3-17.4,3.4-2.2,1.6-5.2,4.3-6,6.9-1.5-1.5-3-2.9-4.6-4.4l3-6.9c.4-1.2,1.1-2.5,1.6-3.7Z"/>
  <path class="st27" d="M200.1,286.4c4.4-1.7,13.2-2.9,17.9-2.1-.6,0-1.8,0-2.1.3v.4c-.9.2-2.8.2-3.7.2-3.5.3-6.9,1.3-10.1,2.7-1.1.5-2.5,1.8-3.6,2.1.4-1.2,1.1-2.5,1.6-3.7Z"/>
  <path class="st34" d="M234.1,197.1c.1.1.3.4.5.5,9.6,16.5,14.2,29.7,12,49.1-3.1-1-6.2-1.8-9.5-2.3,0-.7.3-2.4.2-3-.6-1.7,0-6.9,0-9-.6-7.6-2.6-15.3-5.3-22.4-.6-1.7-4.6-10.2-4.4-11,.1-.6,4.8-.6,5.6-1.1-1.2-.7-5.2.4-6.5.8,0,0-.1.2-.2.3,3.8,7.9,7.3,16.3,8.7,24.9,1,5.9,1.4,10.8,1.4,16.7-.8-1.3,0-3-.4-4.6-.3-13.3-4.1-25.8-10.5-37.5,3.2-1,5.2-1,8.5-1.5Z"/>
  <path class="st33" d="M234.1,197.1c.1.1.3.4.5.5-1.4,1.1-5.1,1.2-7,1.4,5.5,11.8,9.7,23.2,10,36.5,0,1.6,0,4.4-.2,5.9-.6-1.7,0-6.9,0-9-.6-7.6-2.6-15.3-5.3-22.4-.6-1.7-4.6-10.2-4.4-11,.1-.6,4.8-.6,5.6-1.1-1.2-.7-5.2.4-6.5.8,0,0-.1.2-.2.3,3.8,7.9,7.3,16.3,8.7,24.9,1,5.9,1.4,10.8,1.4,16.7-.8-1.3,0-3-.4-4.6-.3-13.3-4.1-25.8-10.5-37.5,3.2-1,5.2-1,8.5-1.5Z"/>
  <path class="st24" d="M191.1,329c2.9-1.8,9.1-5.4,12.5-4.4,2.1.6,7.4,3.3,9.5,4.5,1,3.4,1.5,6.4,1.7,10,0,1.1-.1,2.2,0,3.1-.7.8-7.3,4.9-8.6,5.7-7.2-1.5-11.2-3.8-16.9-8.2.2-3.2.4-6.5.7-9.7l1.3-.8Z"/>
  <path class="st13" d="M191.1,329c1.3,3.6,7.7,8.1,11,9.7,2.6,1.3,5.4,2.2,8.3,2.7,1,.2,3.4.5,4.2.7-.7.8-7.3,4.9-8.6,5.7-7.2-1.5-11.2-3.8-16.9-8.2.2-3.2.4-6.5.7-9.7l1.3-.8Z"/>
  <path class="st23" d="M163.3,150.2c1.2.2,2.3.4,3.5.6,1.6.2,4.8.4,6.2.6,2.9.1,5.8.4,8.7.4,5.9,5.4,12.5,18.4,15.7,25.8-2.3-2.3-4.7-4.6-7.1-6.8-3.2-2.2-7.8-6-11.4-7.6-.5,0-1.6.1-2.1.2-.7.8-1.3.7-2.3.7l-.6.3c-1.7,1.5-3.6,2.3-5.7,3.1-6.1-1.1-9.7-4.6-14.2-8.6,5.3-1.9,6.9-3.9,9.3-8.8Z"/>
  <path class="st24" d="M163.3,150.2c1.2.2,2.3.4,3.5.6,1.6.2,4.8.4,6.2.6-.6,0-1.8,0-2,.4-1.7,3.4-3.5,5.3-6.6,7.6,3.7,2.5,7.5,3,11.8,3.1l-1,1-.8.7-.6.3c-1.7,1.5-3.6,2.3-5.7,3.1-6.1-1.1-9.7-4.6-14.2-8.6,5.3-1.9,6.9-3.9,9.3-8.8Z"/>
  <path class="st13" d="M163.3,150.2c1.2.2,2.3.4,3.5.6-3.6,4.5-3.8,5.1-8.2,9,3.3,2,7.5,5.1,11.6,5,1.3,0,2.7-.6,3.7-.2-1.7,1.5-3.6,2.3-5.7,3.1-6.1-1.1-9.7-4.6-14.2-8.6,5.3-1.9,6.9-3.9,9.3-8.8Z"/>
  <path class="st13" d="M180.1,158.2l.4-1.7c.2,3.1,9.1,10,9.7,14.4-3.2-2.2-7.8-6-11.4-7.6-.2-.7,1-4.2,1.3-5.2Z"/>
  <path class="st26" d="M179.4,157.9l.7.3c-.3,1-1.5,4.4-1.3,5.2-.5,0-1.6.1-2.1.2-.7.8-1.3.7-2.3.7l.8-.7,1-1c1.3-1.3,2.3-2.9,3.2-4.5Z"/>
  <path class="st33" d="M174.4,164.3l.8-.7c.7.2.8.2,1.5,0-.7.8-1.3.7-2.3.7Z"/>
  <path class="st33" d="M179.4,157.9c.4-.7.7-1.4,1.1-2.1h.2s-.2.7-.2.7l-.4,1.7-.7-.3Z"/>
  <path class="st32" d="M181.4,237.5c4.2-2.3,8.9-5.1,13.4-6.4,2.2,3.1,2.8,5.3,2.8,9.1-1,.3-7.2,3.3-7.4,3.2.1-.3.2-.7.3-1l-.6-.3c-5.2,6.7-4.4,14.6-3.9,22.5-7.1-.9-14.4-4.2-13.7-12.6.4-4.5,1.6-10,5.6-12.6,1.1-.2,2.5-1.2,3.4-1.8Z"/>
  <path class="st17" d="M189.9,242.1c.7-1,1-1.4,1.9-2.3-.4.9-.8,1.8-1.2,2.6l-.6-.3Z"/>
  <path class="st24" d="M224.1,324l4.5,1.4c2.9.9,7.5,2.1,10.2,3.2.5.6.9,1.2,1.3,1.9.8,1.4,1.7,3,2.6,4.4-5.2,5.7-10.7,9.9-18.2,12-1.2-.6-6.6-2.9-7.5-4.2,0,0,0-.7,0-.8-.2-4-.8-8.3-1.1-12.4.6-.3,2.2-1.4,2.8-1.8,1.7-1.3,3.6-2.5,5.4-3.7Z"/>
  <path class="st13" d="M240.1,330.5c.8,1.4,1.7,3,2.6,4.4-5.2,5.7-10.7,9.9-18.2,12-1.2-.6-6.6-2.9-7.5-4.2,0,0,0-.7,0-.8,1.3,0,2.5-.2,3.8-.4,7.5-1.1,14.8-4.9,19.3-11Z"/>
  <path class="st34" d="M224.1,324l4.5,1.4c-.9,1.7-7.8,3.2-9.5,2.8-.3-.3-.3-.2-.4-.5,1.7-1.3,3.6-2.5,5.4-3.7Z"/>
  <path class="st34" d="M177.3,165.1c6.6,3.9,12.7,8.5,18.7,13.3,1.2,1,2.9,2.1,3.9,3.4.7.8,1.1,2,1.6,2.9-2.5.2-5,.1-7.5.2-8.3.1-16.4-.8-24.5-2.7,1.7-1.3,3.2-3,4.3-4.9,2.1-3.5,2.8-6.6,1.8-10.6.6-.5,1.1-1,1.7-1.6Z"/>
  <path class="st11" d="M249.9,303.5c3.2.5,7.1,2.7,9.8,4.5,4,2.5,10.3,7.9,11.3,12.8.2.8.3,2-.3,2.6-.6.7-2.9,1-3.9,1.2-5.4,1.2-10.5,2.2-16,2.7.2-2.2.8-4.4,1-6.6.7-5.8,0-11.7-2-17.2Z"/>
  <path class="st19" d="M176.3,139.7l7.1-.3c2.9,6.3,9.8,12.7,14.6,17.7-.8,2.3-1.1,4.2-1.1,6.7v.6c.1,1.8.2,3.6.4,5.4-.2.8,0,.9-.6,1.2l-.6-.2c-2.3-6-8.8-17.5-13.8-20.9-3.8-.1-7.5-.3-11.3-.6-.5-1-.7-2.1-1-3.1-.8-2.6-1.4-4-2.6-6.4,3,0,6,0,9,0Z"/>
  <path class="st29" d="M167.4,139.7c3,0,6,0,9,0-.5,1.5.8,5,1.2,6.6-3.1,0-4.4-.6-7.5-1.4,0,.4,0,.8-.1,1.2-.8-2.6-1.4-4-2.6-6.4Z"/>
  <path class="st34" d="M143.9,227.2c9-.4,18,0,27,0h10.2c2.5,0,5.3-.2,7.8.3,2.1.4,3.6,1.5,5.2,2.8,0,0-.1,0-.2,0h-.3c-1.6.6-6.3,3.2-7.4,3.1-13.2-1.8-34.3-4.9-45.9,2.8,1-3.2,2.3-6.1,3.6-9.1Z"/>
  <path class="st34" d="M193,147.9c4.3-2.4,9.2-2.2,13.9-1.1,2.2,4.6,5.4,9,8.8,12.7-.2.8,0,.5-.6.9.3.5.3.6.5,1.1-4-1.5-6.9-3.2-10.3-5.9-1.5,4.5-2.8,9.1-3.8,13.7-.5,2.2-.9,5.9-1.4,8.3-1.9-12.3-1.5-15.7,1.4-27.6-1.1,1.3-2.3,4.2-3.1,5.9-2-2.5-4.1-4.9-6.1-7.4.1-.5.2-.4.7-.8Z"/>
  <path class="st13" d="M201.4,169.5c-1.4-3,1.9-15.2,3.4-18.4,3.6,4.4,5.8,6.1,10.3,9.3.3.5.3.6.5,1.1-4-1.5-6.9-3.2-10.3-5.9-1.5,4.5-2.8,9.1-3.8,13.7Z"/>
  <path class="st13" d="M193,147.9c1.3,1.1,8.1-.8,8.6,1.8l-.2.5c-1.1,1.3-2.3,4.2-3.1,5.9-2-2.5-4.1-4.9-6.1-7.4.1-.5.2-.4.7-.8Z"/>
  <path class="st21" d="M197.3,241.8s0,0,0,0c.5.4.3,2,.3,2.6,0,5.1-.1,8,2.2,12.7-3.7,2.8-7.2,5.7-10.5,9-.2.2-.3.2-.5.3-.2-.1-.3-.2-.4-.5-1.7-3.9-1.2-14.9.2-18.7,1-2.8,6-4.3,8.6-5.5Z"/>
  <path class="st6" d="M165.5,185.3s0,0,0,0c.1.3,0,.4,0,.7-.8,2.6-1.8,5.9-3.2,8.2-2.9,4.8-10.4,8.8-15.3,11.4-.6-.5-1.1-1.1-1.6-1.7-1-1.1-1.8-2.3-2.5-3.5,7.7-6.4,14.1-10.1,22.7-15.2Z"/>
  <path class="st11" d="M184,276.5c.4-1,2.3-3.2,3-4.1,2.6-3,5.4-5.8,8.3-8.5,1.8-1.6,3.9-3.2,5.6-4.9l.2-.2c2,1.6,5.5,4.3,8.3,4.2h2.5c1.4,0,3,0,4.4,0l-.2.4c-.7,0-.9.1-1.5.3-7,3-11,4.7-17.4,8.8-1.4-.8-1.3-.7-1.6-2.4l.9-.6c-.2-.2-.5-.5-.8-.4-5,2.3-9.2,6.8-13.2,10.5-.3.3-.4.2-.7.2,0-.8,1.1-2.1,1.7-2.8.5-.3.3,0,.6-.6Z"/>
  <path class="st34" d="M211.9,263.1c1.4,0,3,0,4.4,0l-.2.4c-.7,0-.9.1-1.5.3-7,3-11,4.7-17.4,8.8-1.4-.8-1.3-.7-1.6-2.4l.9-.6c3.5-2.1,9-5.6,13-6.5h2.5Z"/>
  <path class="st24" d="M211.9,263.1c1.4,0,3,0,4.4,0l-.2.4c-.7,0-.9.1-1.5.3-.6-.6-1.7-.5-2.6-.7Z"/>
  <path class="st6" d="M207.4,239.4c1.2,0,2.3.1,3.4.3,0,3.5-.3,7-.6,10.5-2.5,1.7-5,3.2-7.5,4.9l-1,.7c0,0,0-.1-.1-.2-2.6-4.2-1.8-9.9-1.8-14.6,2.5-.9,5-1.3,7.6-1.5Z"/>
  <path class="st34" d="M214.9,260.5c1.7-.5,3.3-1,5-1.4,10.7-2.6,28.5-4.9,38.3,1,.8.3,1,.4,1.7.9-.9-.1-2.2-.2-3-.5l-1.3-.2c-2-.4-6.6.9-8.3.9-4.7,0-15.3.5-19.2-1-4.6.9-6.9.9-11.6.8-.8.1-2.2,0-3,0,.4-.3.8-.3,1.4-.4Z"/>
  <path class="st33" d="M228.2,260.2c7.4-1.4,20.6-2.6,27.5.1-2-.4-6.6.9-8.3.9-4.7,0-15.3.5-19.2-1Z"/>
  <path class="st16" d="M258.3,260.1c.8.3,1,.4,1.7.9-.9-.1-2.2-.2-3-.5v-.2c.7,0,.7,0,1.3-.2Z"/>
  <path class="st31" d="M216.6,261c-.8.1-2.2,0-3,0,.4-.3.8-.3,1.4-.4.8.7,1,.2,1.7.5Z"/>
  <path class="st6" d="M131.6,210.7c1.3.6,10.2,5.7,10.9,6.3,1,1,1.8,2.6,2.6,3.8l-1.8,2.8-1,1.4c-1.8,0-3.7,0-5.5,0-.4-.4-.9-.8-1.3-1.2-2.9-3.1-4-9-3.9-13Z"/>
  <path class="st19" d="M203.5,228.8c1.4,0,2.6.3,3.7,1.1,2.6,1.9,3.2,5.2,3.7,8.1-2.5,0-4.8,0-7.3.4-1.3.3-2.5.6-3.8,1-.3-3.7-1-6-2.7-9.3,2.1-.3,4.2-1,6.4-1.4Z"/>
  <path class="st34" d="M271.5,325.2c.2.1,0,0,.2.3-.2.3-.4.5-.6.8-4.2,4.7-17.6,7.8-23.7,8.1h-.1c-.2-.7,1.9-4,2.4-4.8,7.3-.9,14.8-2,21.7-4.4Z"/>
  <path class="st19" d="M298.9,163.7c5.3.4,9.5.7,14.6-.9-.7,2.7-1.1,3.5-3.2,5.6-2.8,2.6-12.8.2-12.5-3.6l-.6-.6c.5-.4.5-.5.9-1,.3.3.3.3.7.5h.1Z"/>
  <path class="st4" d="M298,163.2c.3.3.3.3.7.5-.3.3-.7.9-1,1.2l-.6-.6c.5-.4.5-.5.9-1Z"/>
  <path class="st13" d="M195.5,270.2c.3,1.6.1,1.6,1.6,2.4-6.1,4.2-12.4,9.2-16.8,15.2-.8,1.2-1.6,2.5-2.5,3.6-.2-.5,0-1.2,0-1.7,1.9-7,11.6-15.8,17.7-19.4Z"/>
  <path class="st15" d="M207.1,166.8l.2-.2c1.1.6,9.1,8.8,9.9,10,.9.9,6.2,6.2,6.2,7.1,0,0,0,0,0,0h.7c.3.5.2.4.3.8-1.9.2-4,.5-5.8.1l.2-.2c-.8-1.7-2.5-4-3.6-5.6-2.6-4-5.4-7.9-8.1-11.8v-.4Z"/>
  <path class="st34" d="M217.2,176.7c.9.9,6.2,6.2,6.2,7.1,0,0,0,0,0,0-1.5,0-2.8.3-4.3.5-.7-1.4-1.7-2.7-2.5-4.2.3.2.7.4,1,.7l.2-.2c-.4-1,0-1.3.3-2.5-.5-.7-.6-.8-.8-1.6Z"/>
  <path class="st3" d="M218.5,184.9l.2-.2c-.8-1.7-2.5-4-3.6-5.6-2.6-4-5.4-7.9-8.1-11.8v-.4c2,2.3,8.5,12.6,9.5,13.4.8,1.4,1.8,2.8,2.5,4.2,1.5-.2,2.8-.5,4.3-.5h.7c.3.5.2.4.3.8-1.9.2-4,.5-5.8.1Z"/>
  <path class="st31" d="M270.1,329.1h.3c0,.5-.2.7-.5.9-5.5,6.1-17.4,7.9-25.3,8.2-.2,0,0,0-.2-.2.4-.9,1.1-1.5,1.7-2.2,8.5-.2,16.6-2.7,24-6.8Z"/>
  <path class="st11" d="M212.7,251.3h.5c0,.3-2.5,8.4-2.8,9.6-1.8-.4-3.4-.7-5.1-1.6-.8-.5-1.5-1.1-2.2-1.7,2.9-2.4,6.3-4.5,9.6-6.3Z"/>
  <path class="st6" d="M187.1,139.8c.9.1,1.9.3,2.8.5,1.8.4,9.4,2.4,10.4,3.9-.5.3-1,.2-1.6.3-3,.2-4.4.4-7,1.8-1.8-2.2-3.2-3.9-4.6-6.4Z"/>
  <path class="st13" d="M212.6,242.1c2.7,1.1,5.3,2.2,8,3.4-1.5.5-2.7.8-4.1,1.5-1.7.7-2.8,1.3-4.5,2.2.1-1.3.2-2.7.4-4l.3-3.1Z"/>
  <path class="st24" d="M212.4,245.2c1.5,0,3.1.7,4.1,1.8-1.7.7-2.8,1.3-4.5,2.2.1-1.3.2-2.7.4-4Z"/>
  <path class="st38" d="M242.2,288.7c.5,0,1.1,0,1.6,0,.4.1.4.2.6.6,0,.2,0,.2-.2.5-.6,1-1.9,1.4-2.9,1.7-1-.4-1.8-1.3-2.6-2,1.2-.5,2.2-.7,3.5-.8Z"/>
  <path class="st16" d="M215.7,159.5c1,1.1,2.1,2.1,3.1,3.2-1.1-.4-2.2-.7-3.2-1.2-.1-.6-.2-.6-.5-1.1.6-.4.4-.1.6-.9Z"/>
  <path class="st5" d="M197.2,169.7c.2,1.4,1.1,5.2,1.1,6.2-1.1-2-1.5-3.6-2.3-5.2l.6.2c.5-.3.4-.4.6-1.2Z"/>
  <path class="st11" d="M208.3,163.4l.7.7c-.9.4-4.7.4-5.6.1v-.3c.6-.2,3.3,0,4.6-.1l.3-.4Z"/>
  <path class="st11" d="M116.2,163.8c1.5-.2,4.6-.4,5.9.2v.2c-1.9-.2-3.9,0-5.7-.1l-.2-.4Z"/>
  <path class="st1" d="M183.4,277.1c-.8-.3-1.4,0-2.3-.6h.4s0,0,0,0c.7,0,1.7,0,2.4,0-.3.5,0,.4-.6.6Z"/>
  <path class="st36" d="M135.9,183.3c.6,1,.9,1.6,1.3,2.7-.7-.8-1.4-1.5-2-2.3l.7-.4Z"/>
  <path class="st7" d="M196.9,163.8c.6,0,1-.1,1.5.2-.4.4-.9.3-1.4.3v-.6Z"/>
  <path class="st9" d="M314.2,163.5c.4.2.6.2.9.5l-.3.3c-.4-.1-.8-.2-1.1-.5l.6-.4Z"/>
  <path class="st10" d="M139.9,227.1c.2,0,.5,0,.6-.1.5,0,.5,0,.8.3-.2,0-.4,0-.5,0-.5,0-.6,0-1-.3Z"/>
  <path class="st8" d="M216.2,263.1h.7s.1.1.1.1c-.5.2-.5.2-1.1.3l.2-.4Z"/>
  <path class="st33" d="M94.1,61.6c4.2.4,11,.2,14.7,2.3,2.5,1.4,2.4,5.4.7,7.5-1.4,1.7-3.2,1.5-3.6,1.9,1,1,1.7,1.4,2.4,2.7,1,2,1.7,4.2,2.7,6.2v.2c2.6-6,5.8-12.5,8.5-18.3,2.1.2,4.3.3,6.4.4.8,3.5,2.2,7.7,3.3,11.2.8,2.7,1.6,5.5,2.4,8.2-2-.1-4-.2-5.9-.4-.3-.9-.6-2.3-.9-3.3-2.1-.2-4.5-.4-6.7-.6l-1,3.1c-4-.2-8.4-.9-12.6-1.3-.9-1.9-2.8-8.7-5.3-8.2-.5,1-.7,6.1-.8,7.6-2-.1-3.9-.2-5.9-.3.6-6.1,1-13.1,1.7-19.1Z"/>
  <path class="st6" d="M99.5,65.8c2.8.2,6.5,0,4.7,3.9-1.1.3-3.7.2-4.9.2l.2-4Z"/>
  <path class="st6" d="M122.2,69.4c.5.9,1.4,5.6,1.7,6.8l-1.9-.2-2.4-.2c.8-2.2,1.6-4.2,2.5-6.4Z"/>
  <path class="st33" d="M73.8,58.9c3.9.4,7.8.6,11.7,1.2,3.3.5,5.2,3.2,4.1,6.4-.5,1.5-1.9,2.1-3.1,2.7.1,0,.3.1.4.2,3.2,1.6,3.7,4.1,2.1,7.2-.3.4-.6.7-.9,1-2.7,2.4-12.4.6-16.2.2.6-6.3,1.3-12.6,2-19Z"/>
  <path class="st6" d="M78.5,70.4c2.6.2,7.3.2,4.9,4.1-1.7.4-3.5.1-5.2,0,0-1.3.2-2.7.3-4.1Z"/>
  <path class="st6" d="M79.2,63.3c2.6.1,6.3,0,4.3,3.7-1.2.5-3.2.1-4.6,0,.2-1.2.3-2.4.4-3.7Z"/>
  <path class="st33" d="M225.5,66.3h2.5c0,6.1.4,12.8.6,19-1.7.1-3.8.1-5.6.2l-7.5-10.4c0,3.4.1,7.2.3,10.6h-3.2c0,.1-2.4.1-2.4.1l-.6-19.1,5.4-.2c2.5,3.4,5.2,6.9,7.5,10.4,0-3.5-.1-7.1-.3-10.6h3.1Z"/>
  <path class="st33" d="M266.2,63.5c.2.4.3,3.4.4,4.1-3.1,0-6.7.4-9.8.6v3.1c3.1-.3,6.3-.4,9.3-.7l.2,3.9-9.1.6c0,1.3.1,2.6.2,3.9,2.6-.2,5.1-.4,7.7-.6.7,0,2-.3,2.5.2.1,1.2.1,2.9.2,4-5.3,0-10.6.8-15.9,1-.2-5.8-.8-13.2-1.2-19,5.2-.3,10.3-.6,15.5-1Z"/>
  <path class="st33" d="M198.2,66.6c2.8-.1,5.6,0,8.4,0,0,1.3,0,2.6,0,3.9-3.1,0-6.8,0-9.9.2l.2,3.2c3,0,6-.2,9.1-.1v3.7c-3.1,0-6.1.1-9.2.2v3.9c.1,0,3,0,3,0,2.4,0,4.9,0,7.3,0,0,1.4,0,2.9,0,4.3-5.2-.2-10.7.2-15.9.1-.2-5.4-.3-13.6-.2-19.1,2.4,0,4.9,0,7.3,0Z"/>
  <path class="st33" d="M139.5,65.5c5.1-.5,9.6,0,10.6,5.9-1.7,0-3.6,0-5.3,0-.8-1.8-2.4-3.9-4.8-2.1-.3.3-.3.8-.3,1.1,1.2,2.1,14.8,2.7,9.6,11.4-1.3,2.1-3.3,2.7-5.5,3.1-5.7.2-10-.6-10.7-7.1,1.8,0,3.6,0,5.4,0,.3.8.5,1.8,1.1,2.4,1.1,1,3.4,1.9,4.5.3,1.6-2.4-1.6-3.4-3.3-3.9-2.4-.8-5.8-2-6.5-4.7-.3-1.3.2-3.1.9-4.1,1-1.6,2.6-2.1,4.3-2.4Z"/>
  <path class="st33" d="M238.6,65.5c4.6-.5,7.6.5,9,5.1-2,.2-3.5.4-5.4.6-.8-1.7-1.9-3.1-4.1-2-.6.3-.8.7-.9,1.3,0,.4.2.8.6,1,2.8,1.1,5.7.8,8.4,2.5,2.9,1.9,3.3,5.2,1.2,8-1.7,2.2-3.8,2.7-6.5,3-5.1.2-8.4-.5-9.5-6.2l5.4-.5c2,5.4,6.7,2.4,6.2.9-1.1-3.5-10.5-1.5-11.1-7-.6-5,2.8-6.2,6.8-6.7Z"/>
  <path class="st33" d="M308.6,57.5c4.7-.3,6.2.9,8.9,4.6-1.7.8-3,1.3-4.8,2-2.3-2.5-5.6-3.6-7,.8-.7,2.3.3,7.7,3.2,8,3.2.3,4.1-1.4,4.5-4.2l3.5.5h.3c.9.2.9.1,1.3.7.2,1.1-.8,3.1-1.4,4.1-1.3,2-3.3,2.6-5.4,3.1-6.1,1.4-10.8-1.6-11.8-7.8-1.1-6.8,2-10.7,8.7-11.7Z"/>
  <path class="st33" d="M278.1,62l14.5-1.4c0,1.4.2,2.7.3,4.1-2.8.2-5.7.5-8.5.9,0,1.2.2,2.2.4,3.3,1.2-.1,2.5-.3,3.7-.4,1.2-.1,2.5-.3,3.8-.3l.2,3.7-4,.3c-.5.1-2.8.3-3.4.3.2,2.6.6,5.2.8,7.9-1.9.2-3.9.3-5.8.4-.3-5.9-1.3-12.9-1.9-18.9Z"/>
  <path class="st3" d="M288.4,68.4c1.2-.1,2.5-.3,3.8-.3l.2,3.7-4,.3c-.3-.8-.3-2.9,0-3.8Z"/>
  <path class="st33" d="M163.4,66.7c1.9,0,3.9.2,5.8.2,0,4.8-.2,9.5-.2,14.3,3,0,6.2.1,9.1.2,0,1.5-.1,3.2-.2,4.7-4.2-.4-10.6-.3-14.9-.3.1-6.4.3-12.7.3-19.1Z"/>
  <path class="st33" d="M153.2,66.2c2,0,3.9.1,5.9,0,0,6.3-.2,12.7-.4,19-2,0-3.9,0-5.9,0,.2-6.4.3-12.7.4-19.1Z"/>
  <path class="st33" d="M181.1,67.1c2,0,4,0,6,.2-.3,6,0,12.7-.1,18.8h-5.8c0-6.2,0-12.6,0-19Z"/>
  <path class="st33" d="M326.8,68.5h.4c.6.5.9,4,1.1,5.1-1.7.3-3.4.6-5,.9h-.3c-.3-.4-.9-4.4-1.1-5.2,1.7-.3,3.3-.5,5-.8Z"/>
  <path class="st33" d="M297.7,73.1h.2c.6.7.7,4.2.8,5.3-1.8,0-3.2.2-5,.5h-.3c-.4-.6-.7-4.3-.8-5.2,1.6-.1,3.6-.4,5.2-.5Z"/>
  <path class="st3" d="M183.9,91c3.3.5,5.9,4.3,7.5,6.9-1-.9-2.1-1.7-3.2-2.5-1.4-.8-1.6-.9-3.1-1.4-.4,1.2-.4,2.9-1,3.5-.7,0-.7-.3-1.3-.8,0-2.2,0-3.6,1-5.6Z"/>
</svg>