<?xml version="1.0" encoding="UTF-8"?>
<svg id="Camada_1" data-name="Camada 1" xmlns="http://www.w3.org/2000/svg" viewBox="0 0 500 500">
  <defs>
    <style>
      .cls-1 {
        fill-rule: evenodd;
      }

      .cls-1, .cls-2 {
        fill: #fff;
      }

      .cls-3 {
        fill: none;
        stroke: #231f20;
        stroke-miterlimit: 22.93;
        stroke-width: .5px;
      }

      .cls-4 {
        fill: #d8b351;
      }
    </style>
  </defs>
  <circle class="cls-4" cx="250" cy="250" r="226.14"/>
  <circle class="cls-3" cx="250" cy="250" r="226.14"/>
  <path class="cls-2" d="M436.27,220.32l.41-.1c1.59-.37,2.64-1.16,3.14-2.39.5-1.23.48-2.98-.05-5.27l-2.31-10c-.99-4.29-2.14-6.92-3.45-7.9-1.32-.98-3.63-1.08-6.92-.32l-5.69,1.31c-2.94.68-4.81,1.82-5.6,3.43-.78,1.61-.72,4.42.21,8.44l1.67,7.25c.92,3.98,1.92,6.49,3.01,7.54,1.08,1.04,2.7,1.32,4.86.82l.44-.1,2.92,12.67c-.06.01-.16.05-.3.1-1.18.33-2.05.56-2.64.7-2.62.6-4.86.78-6.71.5-1.86-.26-3.46-.98-4.81-2.16-1.29-1.1-2.41-2.72-3.34-4.86-.93-2.12-1.9-5.34-2.9-9.64l-3.22-13.95c-.98-4.27-1.48-7.46-1.48-9.58-.02-2.12.36-4.02,1.14-5.71.91-1.95,2.24-3.52,3.96-4.71,1.72-1.19,4.03-2.11,6.92-2.78l11.15-2.57c5.86-1.35,10.27-.9,13.23,1.34,2.97,2.25,5.29,7.03,6.97,14.34l3.22,13.95c1.03,4.48,1.6,7.84,1.69,10.06.09,2.21-.21,4.05-.87,5.5-.7,1.52-1.81,2.79-3.33,3.79-1.54,1-3.57,1.79-6.1,2.38-.6.14-1.07.24-1.39.31-.32.06-.64.11-.94.14l-2.89-12.53ZM425.13,165.39l-17.83-27.81-6.31,4.05,16.8,26.2-8.55,5.48-16.8-26.2-11.87,7.61-6.91-10.78,35.34-22.66,24.74,38.6-8.61,5.52ZM330,98.09l24.23,13.93-5.06,8.8-35.35-20.33,20.93-36.39,11.12,6.39-15.86,27.59ZM262.25,88.16l-13.77-2.46,29.95-37.3,16.1,2.87,14.77,45.28-13.85-2.47-2.77-7.6-25.17-4.5-5.26,6.17ZM274.05,72.92l15.87,2.83-5.4-16.06-10.47,13.23ZM235.46,89.03l-12.7,1.61-4-31.44-17.42,2.21-1.3-10.21,47.54-6.04,1.3,10.21-17.42,2.21,4,31.44ZM199.65,96.16l-11.93,4.71-15.4-39.05,11.93-4.71,15.4,39.05ZM141.37,77.45c2.33-1.66,4.26-2.86,5.8-3.63,1.54-.77,2.98-1.24,4.3-1.42,2.38-.32,4.59.13,6.63,1.35,2.06,1.23,4.2,3.41,6.43,6.55,3.34,4.69,4.9,8.56,4.72,11.6-.18,3.06-2.13,5.9-5.86,8.55l-19.53,13.89,6.06,8.52-10.48,7.45-24.33-34.21,26.24-18.66ZM147.06,86.23l-15.4,10.95,6.16,8.66,15.4-10.95c1.4-.99,2.13-2.02,2.2-3.1.08-1.08-.51-2.5-1.75-4.24-.99-1.39-2.01-2.2-3.06-2.41-1.05-.21-2.23.16-3.54,1.09ZM107.34,171.69l-8.1,11.4-20.93-43.01,9.48-13.33,47.25,5.99-8.15,11.47-8.06-.74-14.82,20.84,3.33,7.39ZM98.6,154.5l9.34-13.14-16.83-1.98,7.49,15.11ZM69.7,192.86l-.41-.1c-1.59-.37-2.88-.11-3.87.77-.99.89-1.74,2.47-2.26,4.76l-2.31,10c-.99,4.29-1.11,7.16-.36,8.62.76,1.46,2.79,2.56,6.08,3.32l5.69,1.31c2.94.68,5.13.47,6.53-.63,1.41-1.11,2.58-3.66,3.51-7.67l1.67-7.25c.92-3.98,1.12-6.68.6-8.1-.51-1.41-1.84-2.37-4.01-2.87l-.44-.1,2.92-12.67c.06.01.16.03.32.04,1.2.22,2.09.39,2.68.53,2.62.6,4.71,1.43,6.25,2.49,1.55,1.05,2.68,2.4,3.38,4.05.68,1.56.97,3.5.88,5.83-.09,2.32-.63,5.63-1.62,9.94l-3.22,13.95c-.98,4.27-1.94,7.35-2.87,9.26-.92,1.91-2.09,3.46-3.53,4.63-1.67,1.35-3.56,2.18-5.62,2.49-2.07.31-4.54.14-7.44-.53l-11.15-2.57c-5.86-1.35-9.63-3.69-11.3-7-1.68-3.32-1.67-8.63.02-15.95l3.22-13.95c1.03-4.48,2-7.75,2.89-9.78.89-2.03,1.96-3.55,3.19-4.56,1.29-1.06,2.84-1.71,4.66-1.95,1.82-.22,3.99-.05,6.52.54.6.14,1.07.26,1.39.33.32.08.62.18.9.29l-2.89,12.53Z"/>
  <polygon class="cls-1" points="278.66 246.35 275.33 248.17 279.79 259.72 296.24 263.93 298.52 254.99 290.03 248.17 278.66 246.35"/>
  <path d="M415.63,332.27l-6.97,13.34,3.63-1.46-2.41,3.96,4.6-.56-2.83,2.7,15.03-.85-14.36,4.5,3.6,1.53-4.5,1.1,3.65,2.86-3.91-.09,11.22,10.03-13.34-6.97,1.46,3.63-3.96-2.41.56,4.6-2.7-2.83.85,15.03-4.5-14.36-1.53,3.6-1.1-4.5-2.86,3.65.09-3.91-10.03,11.22,6.97-13.34-3.63,1.46,2.41-3.96-4.6.56,2.83-2.7-15.03.85,14.36-4.5-3.6-1.53,4.5-1.1-3.65-2.86,3.91.09-11.22-10.03,13.34,6.97-1.46-3.63,3.96,2.41-.56-4.6,2.7,2.83-.85-15.03,4.5,14.36,1.53-3.6,1.1,4.5,2.86-3.65-.09,3.91,10.03-11.22ZM434.25,265.95l-1.61,14.96,2.84-2.69-.79,4.56,4.07-2.2-1.64,3.55,13.68-6.29-11.72,9.44,3.91.11-3.79,2.67,4.44,1.32-3.67,1.35,14.12,5.22-14.96-1.61,2.69,2.84-4.56-.79,2.2,4.07-3.55-1.64,6.29,13.68-9.44-11.72-.11,3.91-2.67-3.79-1.32,4.44-1.35-3.67-5.22,14.12,1.61-14.96-2.84,2.69.79-4.56-4.07,2.2,1.64-3.55-13.68,6.29,11.72-9.44-3.91-.11,3.79-2.67-4.44-1.32,3.67-1.35-14.12-5.22,14.96,1.61-2.69-2.84,4.56.79-2.2-4.07,3.55,1.64-6.29-13.68,9.44,11.72.11-3.91,2.67,3.79,1.32-4.44,1.35,3.67,5.22-14.12ZM436.27,220.32l.41-.1c1.59-.37,2.64-1.16,3.14-2.39.5-1.23.48-2.98-.05-5.27l-2.31-10c-.99-4.29-2.14-6.92-3.45-7.9-1.32-.98-3.63-1.08-6.92-.32l-5.69,1.31c-2.94.68-4.81,1.82-5.6,3.43-.78,1.61-.72,4.42.21,8.44l1.67,7.25c.92,3.98,1.92,6.49,3.01,7.54,1.08,1.04,2.7,1.32,4.86.82l.44-.1,2.92,12.67c-.06.01-.16.05-.3.1-1.18.33-2.05.56-2.64.7-2.62.6-4.86.78-6.71.5-1.86-.26-3.46-.98-4.81-2.16-1.29-1.1-2.41-2.72-3.34-4.86-.93-2.12-1.9-5.34-2.9-9.64l-3.22-13.95c-.98-4.27-1.48-7.46-1.48-9.58-.02-2.12.36-4.02,1.14-5.71.91-1.95,2.24-3.52,3.96-4.71,1.72-1.19,4.03-2.11,6.92-2.78l11.15-2.57c5.86-1.35,10.27-.9,13.23,1.34,2.97,2.25,5.29,7.03,6.97,14.34l3.22,13.95c1.03,4.48,1.6,7.84,1.69,10.06.09,2.21-.21,4.05-.87,5.5-.7,1.52-1.81,2.79-3.33,3.79-1.54,1-3.57,1.79-6.1,2.38-.6.14-1.07.24-1.39.31-.32.06-.64.11-.94.14l-2.89-12.53ZM425.13,165.39l-17.83-27.81-6.31,4.05,16.8,26.2-8.55,5.48-16.8-26.2-11.87,7.61-6.91-10.78,35.34-22.66,24.74,38.6-8.61,5.52ZM330,98.09l24.23,13.93-5.06,8.8-35.35-20.33,20.93-36.39,11.12,6.39-15.86,27.59ZM262.25,88.16l-13.77-2.46,29.95-37.3,16.1,2.87,14.77,45.28-13.85-2.47-2.77-7.6-25.17-4.5-5.26,6.17ZM274.05,72.92l15.87,2.83-5.4-16.06-10.47,13.23ZM235.46,89.03l-12.7,1.61-4-31.44-17.42,2.21-1.3-10.21,47.54-6.04,1.3,10.21-17.42,2.21,4,31.44ZM199.65,96.16l-11.93,4.71-15.4-39.05,11.93-4.71,15.4,39.05ZM141.37,77.45c2.33-1.66,4.26-2.86,5.8-3.63,1.54-.77,2.98-1.24,4.3-1.42,2.38-.32,4.59.13,6.63,1.35,2.06,1.23,4.2,3.41,6.43,6.55,3.34,4.69,4.9,8.56,4.72,11.6-.18,3.06-2.13,5.9-5.86,8.55l-19.53,13.89,6.06,8.52-10.48,7.45-24.33-34.21,26.24-18.66ZM147.06,86.23l-15.4,10.95,6.16,8.66,15.4-10.95c1.4-.99,2.13-2.02,2.2-3.1.08-1.08-.51-2.5-1.75-4.24-.99-1.39-2.01-2.2-3.06-2.41-1.05-.21-2.23.16-3.54,1.09ZM107.34,171.69l-8.1,11.4-20.93-43.01,9.48-13.33,47.25,5.99-8.15,11.47-8.06-.74-14.82,20.84,3.33,7.39ZM98.6,154.5l9.34-13.14-16.83-1.98,7.49,15.11ZM69.7,192.86l-.41-.1c-1.59-.37-2.88-.11-3.87.77-.99.89-1.74,2.47-2.26,4.76l-2.31,10c-.99,4.29-1.11,7.16-.36,8.62.76,1.46,2.79,2.56,6.08,3.32l5.69,1.31c2.94.68,5.13.47,6.53-.63,1.41-1.11,2.58-3.66,3.51-7.67l1.67-7.25c.92-3.98,1.12-6.68.6-8.1-.51-1.41-1.84-2.37-4.01-2.87l-.44-.1,2.92-12.67c.06.01.16.03.32.04,1.2.22,2.09.39,2.68.53,2.62.6,4.71,1.43,6.25,2.49,1.55,1.05,2.68,2.4,3.38,4.05.68,1.56.97,3.5.88,5.83-.09,2.32-.63,5.63-1.62,9.94l-3.22,13.95c-.98,4.27-1.94,7.35-2.87,9.26-.92,1.91-2.09,3.46-3.53,4.63-1.67,1.35-3.56,2.18-5.62,2.49-2.07.31-4.54.14-7.44-.53l-11.15-2.57c-5.86-1.35-9.63-3.69-11.3-7-1.68-3.32-1.67-8.63.02-15.95l3.22-13.95c1.03-4.48,2-7.75,2.89-9.78.89-2.03,1.96-3.55,3.19-4.56,1.29-1.06,2.84-1.71,4.66-1.95,1.82-.22,3.99-.05,6.52.54.6.14,1.07.26,1.39.33.32.08.62.18.9.29l-2.89,12.53ZM369.67,403.34l-20.38,13.29-4.04-6.2c-.64-.98-.78-2.05-.43-3.2.36-1.15,1.16-2.21,2.4-3.16l7.83-6.09c.93-.71,1.51-1.29,1.74-1.72.23-.43.22-.84-.05-1.24l-.59-.9c-.25-.39-.64-.54-1.16-.48-.53.07-1.19.36-1.98.88l-4.6,3c-1.17.76-1.86,1.47-2.1,2.13-.23.65-.07,1.41.49,2.26.02.02.04.05.08.09.03.03.06.06.08.1.02.02.02.05.03.07,0,.01,0,.03,0,.04l-4.99,3.25-.81-1.24c-1.33-2.04-1.76-3.77-1.28-5.2.48-1.43,2.06-3.03,4.75-4.78l7.15-4.66c2.11-1.38,3.87-2.04,5.27-2,1.4.04,2.58.8,3.54,2.26l1.9,2.91c.74,1.14.97,2.29.68,3.48-.28,1.18-1.05,2.27-2.3,3.24l-8.91,6.94c-.51.4-.8.83-.86,1.3-.06.46.1.99.49,1.58l.06.1,15.39-10.04,2.61,4ZM340.53,421.39l-5.47,2.83-7.27-14.04-4.07,7.61-4.72-2.5,5.54-9.29,6.32-3.27,9.67,18.67ZM304.91,418.77l-2.87.98c-1.62.55-2.59,1.2-2.91,1.94-.32.74-.2,1.93.36,3.58l1,2.92c.53,1.56,1.16,2.52,1.89,2.89.72.37,1.87.28,3.45-.26l2.87-.98c1.59-.54,2.55-1.18,2.89-1.91.34-.73.24-1.9-.31-3.5l-1.03-3.01c-.55-1.6-1.17-2.58-1.88-2.94-.7-.36-1.86-.27-3.47.28ZM304.94,413.57c1.93-.66,3.39-1.04,4.38-1.15.98-.1,1.84,0,2.58.32.8.34,1.52.95,2.15,1.82.63.87,1.2,2.07,1.72,3.58l1.9,5.55c.52,1.51.79,2.8.83,3.88.04,1.08-.15,2-.58,2.77-.4.7-1.01,1.31-1.85,1.84-.84.52-2.23,1.11-4.15,1.77l-6.11,2.09c-1.94.67-3.4,1.05-4.37,1.15-.97.1-1.83,0-2.59-.32-.82-.33-1.53-.91-2.15-1.75-.61-.84-1.19-2.02-1.7-3.52l-1.86-5.42c-.57-1.67-.88-3.04-.93-4.11-.06-1.07.14-2,.59-2.78.4-.71,1.03-1.32,1.88-1.85.86-.53,2.23-1.12,4.12-1.76l6.13-2.1ZM293.39,439.05l-23.92,4.46-1.36-7.27c-.21-1.15.06-2.19.83-3.12.77-.93,1.91-1.6,3.43-2l9.57-2.62c1.13-.3,1.89-.61,2.27-.92.37-.31.52-.7.44-1.17l-.2-1.06c-.08-.45-.38-.75-.89-.89-.51-.14-1.23-.12-2.17.05l-5.4,1.01c-1.37.26-2.28.64-2.75,1.16-.46.52-.6,1.27-.41,2.27,0,.03.02.07.04.11.02.04.03.08.04.12,0,.03,0,.05,0,.07,0,.02,0,.03-.01.04l-5.86,1.09-.27-1.46c-.45-2.39-.18-4.15.81-5.29.99-1.14,3.06-2.01,6.22-2.6l8.39-1.56c2.48-.46,4.36-.41,5.63.17,1.28.58,2.08,1.73,2.4,3.45l.64,3.42c.25,1.33.01,2.49-.7,3.48-.71.99-1.84,1.69-3.37,2.11l-10.89,2.99c-.63.18-1.06.46-1.29.87-.23.4-.28.95-.15,1.64l.02.11,18.06-3.37.88,4.69ZM256.95,25.04c-57.57-1.78-115.82,18.41-161.11,60.98C50.56,128.59,26.82,185.48,25.04,243.05c-1.78,57.57,18.41,115.82,60.98,161.11,42.57,45.28,99.46,69.03,157.03,70.8,57.57,1.78,115.82-18.41,161.11-60.98,45.28-42.57,69.03-99.46,70.8-157.03,1.78-57.57-18.41-115.82-60.98-161.11-42.57-45.28-99.46-69.03-157.03-70.8ZM94.37,84.45c45.71-42.97,104.52-63.35,162.64-61.56,58.12,1.79,115.56,25.76,158.54,71.48,42.97,45.71,63.35,104.52,61.56,162.64-1.79,58.12-25.76,115.56-71.48,158.54-45.71,42.97-104.52,63.35-162.64,61.56-58.12-1.79-115.56-25.76-158.54-71.48-42.97-45.71-63.35-104.52-61.56-162.64,1.79-58.12,25.76-115.56,71.48-158.54ZM127.23,260.9c6.5-11.62,14.7-23.81,21.9-31.56.54-.58-.11-1.47-.83-1.15-7.05,3.15-14.23,7.28-21.17,11.94-.18.12-.29.3-.32.51-.65,5.47-.88,15.12-.94,19.91,0,.75.99,1.01,1.35.35ZM237.24,347.17c-2.08-2.06-6.36-3.5-9.06-4.86l-23.42-11.76c-3.81-1.92-8.13-3.66-11.66-6.01-4.91-3.27-9.36-7.99-13.71-11.99-8.32-7.73-16.69-15.41-25.11-23.04.97,2.18,16.35,25.8,28.03,40.24,2.81,3.47,6.7,5.9,11.04,6.94l43.9,10.48ZM368.23,303.28s-27.7-32.76-36.21-43.74c-.3-.38-.48-.83-.53-1.31-.5-5.09-.69-10.23-1.13-15.34-.06-.68-.39-1.32-.92-1.75-3.64-2.99-7.57-5.74-11.32-8.56-8.34-6.26-16.72-12.47-25.15-18.61-4.29-3.13-10.82-8.72-15.26-11.05-3.88-2.03-15.22-4.67-19.93-6.01l-46.34-13.21-43.93-12.75c-2.89-.84-4.59,3.15-1.98,4.65,2.12,1.21,4.23,2.43,6.3,3.69l55.92,33.39c1.75,1.04,1.62,3.62-.23,4.48-2.43,1.13-5.02,2.28-7.11,2.73-.28.06-12.16,1.65-20.17,2.74-2.09.29-4.19-.44-5.65-1.96l-26.23-27.15c-3.57-3.7-7.07-7.59-10.73-11.24-1.03-1.02-2.78-.26-2.74,1.19.22,8.01.4,16.05.79,24.06.21,4.3,1.63,8.44,4.08,11.97,4.86,7.02,9.65,14.1,14.36,21.22-.44,1.18-13.32,27.43-19.87,40.87-.95,1.94.81,4.12,2.91,3.58,14.69-3.76,29.3-7.99,43.92-11.96,10.77-2.92,21.73-5.58,32.47-8.72,3.14-.92,6.51.42,8.16,3.25l19.29,32.92c.58.99,1.76,1.47,2.87,1.16,4.57-1.26,9.17-2.42,13.72-3.73.63-.18,1.29-.11,1.86.2,7.08,3.83,47.92,23.4,49.28,24.68.02.02.02.03.04.04-1.47.13-7.04-2.49-8.8-3.05,0,0-22.84-8.56-36.03-14.16-.89-.38-1.8.5-1.45,1.41.87,2.23,1.75,4.47,2.46,6.73l-24.04-7c-.45-.13-.67.53-.23.7l59,21.62c2.4,1.08,4.38,2.03,5.7,2.75.02,0,0,.03-.01.03-9.16-2.55-29.17-8.03-35.78-9.82-1.11-.3-1.7.34-1.3,1.42.54,1.51,1.29,3.6,1.84,5.25l-21.05-4.71c-.39-.09-.54.49-.16.6l45.89,13.59c-6.18-.58-12.42-.9-18.62-1.27-.94-.06-1.52,1.02-.94,1.77,3.12,3.99,6.39,7.85,9.53,11.83,0,0,0,0,.01,0,4.84-1.22,27.32-6.52,30.05-8.46,2.82-2,9.24-10.02,10.69-16.94.44-1.14.57-2.39.73-3.59h0c-.77-2.25-1.93-4.35-3.16-6.36,0,0,0,0-.01,0-1.59-.36-3.38-.65-4.85-1.36-5.25-2.53-13.56-13.69-13.82-14.09-.27-.41-.13-.89-.13-.89,1.22.6,2.22,1.43,3.54,2.41,0,0,4.71,4.25,4.71,4.25.76,1.05,1.83,1.82,3.07,2.2,1.87.58,6.09,1.08,7.72,1.47,2.61.63,7,3.99,8.06,5.11,1.06,1.12,13.84.98,16.11-.4l1.72-7.03c.33-1.33-.05-2.73-1.01-3.71ZM279.89,248.4c2.18.67,4.36,1.25,6.6,1.72.73.15,1.22.83,1.16,1.57-.08.92-.11,1.83-.13,2.75-.02.85.67,1.54,1.51,1.51l4.83-.18c.81-.03,1.48.6,1.52,1.4l.13,3.45c.04.96-.86,1.71-1.79,1.48-3.54-.88-10.25-3.63-12.48-4.86-.28-.15-.5-.39-.63-.68-.93-2.03-1.78-4.15-2.52-6.29-.39-1.12.67-2.22,1.81-1.87ZM318.76,257.51c-5.27-2.19-67.92-29.67-70.33-30.78-2.37-1.08-4.76-2.14-7.15-3.18-.76-.33-1.35.73-.66,1.19,1.67,1.13,3.41,2.2,4.96,3.29l18.95,13.71c1.99,1.35,4.07,2.64,5.74,4.39,2.82,2.97,6.59,9.18,8.98,13.16.38.29.72.55,1.1.84,4.57,1.24,11.08,2.66,14.84,4.99,3.87,2.4,8.63,8.01,12.01,11.37,4.08,3.99,8.28,7.85,12.39,11.81.56.54,1.45-.14,1.07-.82-5-9-10.28-17.85-15.15-26.92-.23-.43.06-.97.55-1.01,4.14-.36,8.32-.58,12.49-.73.73-.03.92-1.03.24-1.31ZM234.59,179.71c6.24-1.29,12.61-1.73,18.94-1.34,18.39,1.14,36.27,9.26,49.45,24.04,3.75,4.2,6.91,8.73,9.5,13.48l-.79-.58c-1.19-.88-2.43-1.79-3.7-2.73-3.14-4.92-6.95-9.52-11.41-13.68-.99-1.05-2.01-2.07-3.05-3.04l-.09.06-.47.33-.49.34-.47.33-.47.33-.47.33-.46.34-.46.34-.49.34-.14.11c-.35-.26-.7-.52-1.04-.77l.46-.32.47-.36.46-.34.47-.33.48-.36.47-.33.49-.34.47-.33.34-.24c-11.65-10.46-26.27-15.98-41.04-16.48-5.49-.18-10.99.27-16.4,1.35l-.55-.16ZM220.06,175.57c5.24-2.05,10.65-3.53,16.13-4.42h0s.04,0,.04,0c5.72-.93,11.53-1.24,17.3-.92,20.45,1.15,40.44,10.06,55.21,26.44,7.79,8.62,13.35,18.5,16.71,28.91l-.7-.52-2.21-1.66c-.59-1.62-1.24-3.22-1.94-4.81l-.38.05-.59.06-.58.06-.57.07-.6.07-.57.07-.58.08-.8-.59-.07-.54.12-.03.59-.06.59-.09.59-.09.58-.06.6-.07.57-.07.58-.06c-4.02-8.7-9.7-16.79-17.01-23.8-.76-.8-1.53-1.59-2.31-2.35l-.43.26-.5.3-.49.31-.5.3-.49.31-.52.31-.49.31-.49.31-.11.07-.66-1.04.11-.07.49-.31.5-.33.5-.3.49-.31.52-.31.5-.3.49-.31.15-.09c-8.31-7.81-18.01-13.35-28.3-16.59l.17.12-.08.1-.33.48-.33.48-.33.48-.33.48-.31.5-.33.48-.31.5-.33.48-.31.5-.31.5-.06.09-1.04-.65.06-.12.33-.48.31-.5.31-.5.31-.5.33-.48.33-.48.33-.51.33-.48.33-.48.23-.33c-6.09-1.82-12.37-2.83-18.69-3.04-4.9-.16-9.81.13-14.68.87l.28.05-.02.13-.09.58-.09.58-.09.58-.09.58-.09.58-.09.58-.08.57-.08.6-.08.57-.08.6v.12s-1.22-.16-1.22-.16v-.12s.08-.6.08-.6l.08-.57.08-.6.09-.58.08-.6.09-.58.09-.58.09-.58.09-.58.08-.42c-5.3.88-10.54,2.3-15.61,4.26l-.47-.13ZM208.16,172.16c9.39-4.97,19.48-8.11,29.75-9.42l.06-.21.14-.59.12-.46,1.19.28-.12.49-.07.34c4.75-.54,9.54-.68,14.31-.44,7.57.38,15.09,1.74,22.36,4.05l.03-.04.37-.47.33-.39.96.78-.33.39-.11.14c11.52,3.85,22.39,10.13,31.77,18.8l.13-.06.53-.27.46-.22.55,1.11-.46.23-.25.12c1.56,1.49,3.08,3.04,4.56,4.66,7.11,7.79,12.55,16.53,16.34,25.77h.57s.49,0,.49,0l.02,1.23h-.59c2,5.1,3.51,10.34,4.52,15.64-.21-.19-.42-.37-.64-.54l-1.65-1.31c-1.03-4.67-2.44-9.26-4.23-13.73h-.27s-.58.03-.58.03l-.58.03-.6.04-.59.02-.58.03-.33.02-.05-1.23.3-.02.6-.04.58-.03.6-.04h.6s.41-.03.41-.03c-4.35-10.38-10.8-20.06-19.32-28.42-.4-.43-.8-.84-1.21-1.26l-.24.12-.52.28-.53.27-.52.28-.53.27-.52.28-.26.16-.6-1.1.27-.14.53-.3.53-.27.52-.28.53-.27.41-.22c-8.92-8.84-19.39-15.23-30.54-19.16l-.28.35-.37.47-.36.45-.36.48-.36.45-.36.48-.34.47-.36.48-.19.23-1-.72.19-.26.36-.45.36-.48.36-.48.36-.48.37-.47.37-.47.34-.47h0c-7.62-2.56-15.54-3.96-23.5-4.22-4.31-.14-8.62.03-12.91.52l-.13.49-.14.56-.12.58-.12.58-.14.56-.12.58-.12.58-.12.58-.05.31-1.2-.26.07-.3.12-.58.12-.58.12-.58.12-.58.12-.58.14-.59.12-.58v-.03c-10.07,1.31-19.98,4.37-29.21,9.21l-.44-.13ZM197.55,169.08c1.03-.66,2.07-1.3,3.11-1.91l-.02-.14-.09-.59-.09-.62-.09-.59-.07-.6-.02-.18,1.23-.14.02.18.07.57.07.6.09.59.03.25c11.96-6.82,25.06-10.83,38.35-12.07l.18-.58.18-.58.17-.56.2-.56.05-.19,1.17.38-.05.19-.18.55-.18.58-.17.56-.03.09c4.01-.32,8.03-.38,12.04-.19,9.49.44,18.91,2.27,27.93,5.49l.28-.3.39-.45.42-.45.4-.44.14-.13.89.85-.12.12-.4.44-.4.44-.33.39c12.42,4.62,24.06,11.88,34.02,21.73l.48-.2.56-.24.56-.24.55-.22.17-.07.46,1.14-.17.07-.55.22-.55.22-.56.24h-.02c.82.84,1.63,1.69,2.43,2.56,8.67,9.44,15.09,20.16,19.29,31.49h.35s.61.05.61.05l.6.02.6.05h.18s-.07,1.23-.07,1.23h-.18s-.58-.04-.58-.04l-.61-.04h-.44c4.16,11.71,5.96,24.06,5.41,36.3-.05,1.24-.13,2.47-.23,3.7l.28.14.53.29.53.26.53.29.18.1-.59,1.07-.16-.08-.53-.29-.53-.26-.36-.2-.05.52c-.55-.69-1.33-1.7-2.49-3.18l.25.12.54.27.32.16c.18-2.48.26-4.97.24-7.46-.07-10.81-1.98-21.59-5.71-31.85h-.1s-.58,0-.58,0h-.61s-.6-.02-.6-.02h-.58s.02-1.24.02-1.24h.58s.6.02.6.02l.6.02h.22c-4.6-12.14-11.77-23.52-21.49-33.31h0s-.55.26-.55.26l-.54.22-.55.25-.53.24-.51-1.12.53-.24.55-.25.56-.24.14-.06c-9.53-9.95-20.79-17.28-32.86-21.95l-.06.06-.4.44-.39.45-.39.45-.4.44-.39.45-.37.44-.93-.81.37-.44.39-.45.42-.45.39-.45.39-.45.13-.14c-9.27-3.44-18.99-5.32-28.76-5.64-3.64-.12-7.29-.03-10.92.26l-.04.12-.17.56-.18.58-.17.56-.15.58-.17.56-.17.56-1.19-.34.17-.56.17-.56.15-.58.18-.58.17-.56.07-.23c-13.25,1.26-26.29,5.28-38.2,12.09l.08.56.09.59.1.6.09.59.09.59.1.57-.25.04-1.03-.3-.02-.11-.1-.6-.09-.59-.1-.6-.09-.59v-.08c-.92.54-1.82,1.09-2.72,1.66l-.45-.13ZM187.69,166.22c3.87-2.86,7.89-5.41,12.03-7.65l-.05-.55-.04-.6-.04-.6-.04-.6-.03-.61-.04-.6-.02-.39,1.21-.07.02.39.04.6.04.6.04.6.04.6.04.59c13.2-6.95,27.56-10.83,42.05-11.68l.13-.37.21-.58.23-.56.23-.56.21-.58.23-.56.16-.35,1.12.46-.15.37-.23.56-.23.56-.21.55-.21.58-.16.42c3.07-.14,6.15-.15,9.23-.02,11.57.5,23.06,2.91,33.95,7.22l.15-.15.45-.42.42-.42.45-.42.45-.42.43-.4.29-.27.84.89-.29.27-.43.41-.45.42-.43.4-.43.43-.19.17c13.27,5.45,25.62,13.73,36.1,24.8l.31-.1.56-.21.59-.2.57-.19.57-.19.57-.19.38-.12.38,1.18-.38.12-.57.19-.57.19-.56.18-.57.19-.37.13h0c10.36,11.21,17.78,24.1,22.3,37.72h.14s.61.08.61.08l.61.07.6.08.61.06.58.06.4.06-.16,1.22-.39-.04-.6-.08-.6-.08-.58-.06-.61-.06-.21-.02c3.68,11.6,5.27,23.69,4.78,35.7-.11,2.63-.31,5.26-.62,7.87l.09.05.53.32.51.3.51.33.51.3.51.33.34.21-.64,1.04-.34-.21-.5-.32-.53-.32-.5-.32-.53-.32-.14-.08c-.21,1.64-.46,3.28-.75,4.91l-1.18-1.49c.23-1.4.43-2.8.6-4.2l-.07-.04-.51-.3-.53-.32-.3-.16.62-1.07.28.17.54.3.12.07c.39-3.59.59-7.2.59-10.82.02-10.86-1.67-21.71-5.05-32.13l-.54-.04-.6-.05-.33-.04.1-1.22.33.04.6.05h.02c-4.55-13.41-11.94-26.06-22.15-37.03l-.39.15-.56.21-.32.12-.43-1.17.3-.11.47-.18c-.39-.41-.78-.81-1.18-1.22-9.85-10.49-21.43-18.38-33.89-23.65l-.19.19-.43.43-.43.4-.42.42-.23.25-.87-.87.23-.25.42-.42.43-.43.26-.24c-11.03-4.49-22.72-6.94-34.47-7.32-2.8-.09-5.6-.07-8.39.07l-.12.31-.21.55-.2.56-.21.58-.11.31-1.15-.43.11-.31.2-.56.21-.58.14-.36c-14.43.88-28.73,4.77-41.87,11.71v.18s.07.59.07.59l.04.6.07.6.02.33-1.23.11-.02-.33-.07-.6-.04-.6-.02-.24c-3.98,2.17-7.85,4.62-11.59,7.36l-.47-.14ZM257.05,361.85c-1.65.11-3.3.18-4.95.22l-.26.5-.3.57-.3.54-.3.57-.32.56-.32.56-.3.57-.19.35-1.09-.6.21-.37.32-.56.3-.54.3-.57.3-.54.3-.57.25-.45c-1.57.02-3.15,0-4.72-.05-6.09-.2-12.17-.89-18.17-2.08.68-.31,1.39-.6,2.12-.86,6.06,1,12.17,1.47,18.27,1.42,1.11.01,2.23,0,3.34-.01l.09-.16v-.03s.35.18.35.18c.96-.02,1.92-.06,2.89-.1.76.45,1.49.94,2.18,1.47ZM178.34,163.5c6.57-5.41,13.6-9.94,20.95-13.61v-.35s-.01-.6-.01-.6v-.63s0-.61,0-.61v-.6s0-.6,0-.6v-.61s0-.61,0-.61l.02-.54h1.23s0,.56,0,.56l-.02.6v.61s0,.6,0,.6l-.02.6v.61s0,.6,0,.6v.37c14.45-6.99,30.06-10.67,45.73-11.06l.08-.18.26-.56.26-.56.24-.55.26-.56.27-.55.26-.56.27-.55.24-.48,1.1.56-.22.47-.27.55-.27.54-.26.56-.25.53-.26.56-.25.53-.1.22c1.98-.03,3.96,0,5.94.08,13.8.55,27.5,3.63,40.34,9.22h0s.45-.39.45-.39l.48-.39.46-.4.48-.39.48-.39.46-.37.48-.39.43-.35.76.97-.41.33-.48.39-.46.37-.48.39-.46.37-.46.4-.46.37-.02.02c13.3,5.98,25.65,14.68,36.2,26.05.6.65,1.2,1.31,1.78,1.97l.12-.03.59-.17.59-.15.59-.18.59-.15.59-.14.6-.16.59-.14.51-.13.31,1.19-.54.13-.57.16-.59.15-.59.15-.59.15-.57.16-.57.16-.15.04c10.73,12.41,18.28,26.56,22.65,41.42l.55.1.61.1.6.11.59.11.61.12.59.11.59.11.53.11-.23,1.2-.54-.11-.59-.11-.59-.11-.6-.11-.59-.11-.59-.11-.57-.1c3.18,11.29,4.54,22.96,4.1,34.56-.16,4.19-.55,8.38-1.18,12.54l.43.3.5.34.5.35.5.35.5.35.5.37.5.35.44.31-.73,1.01-.42-.33-.5-.35-.48-.36-.5-.34-.5-.35-.48-.36-.45-.31c-.45,2.78-1.01,5.55-1.68,8.3l-.98-1.25c.6-2.59,1.1-5.19,1.51-7.81l-.42-.29-.12-.06.67-1.04.06.05c.7-4.87,1.07-9.77,1.12-14.68.11-10.73-1.34-21.47-4.33-31.87l-.35-.06-.16-.02.17-1.1c-4.42-14.72-11.96-28.71-22.61-40.94l-.23.06-.14.04-.24-.79c-1.17-1.32-2.38-2.63-3.63-3.91-9.9-10.55-21.42-18.68-33.8-24.37l-.37.32-.46.4-.11.1-.81-.92.11-.1.41-.36c-12.89-5.73-26.69-8.84-40.57-9.29-1.79-.06-3.58-.07-5.37-.04l-.22.47-.24.55-.05.13-1.12-.48.05-.13.23-.51c-15.61.43-31.16,4.13-45.54,11.12v.37s0,.6,0,.6v.13s-1.22.05-1.22.05v-.17s-.02-.38-.02-.38c-7.17,3.6-14.03,8.02-20.46,13.28l-.5-.14ZM263.34,369.04c-5.16.59-10.36.85-15.55.77l-.07.12-.33.57-.35.59-.33.57-.36.57-.35.59-.36.57-.35.59-.36.57-.16.23-1.03-.66.14-.22.36-.57.35-.59.36-.57.33-.57.36-.57.33-.57.35-.59.06-.09c-.21,0-.41,0-.62-.02-8.82-.29-17.62-1.55-26.21-3.78.25-.27.5-.54.75-.8,8.91,2.17,18.02,3.28,27.11,3.31,5.06.09,10.12-.14,15.15-.69.27.4.53.81.78,1.23ZM169.36,160.9c9.27-8.33,19.51-14.95,30.32-19.86h-.25s0-.04,0-.04l.03-.61.03-.61.05-.6.03-.61.03-.61.05-.63.05-.6.06-.61.03-.61.06-.61v-.03s1.22.13,1.22.13v.03s-.05.6-.05.6l-.06.61-.05.6-.05.6-.03.61-.06.61-.03.61-.02.6-.05.6v.14c15.69-6.96,32.55-10.35,49.37-10.2h0s.29-.56.29-.56l.29-.53.3-.54.29-.53.3-.54.29-.53.31-.53.3-.54.32-.53.31-.53v-.03s1.06.63,1.06.63h-.02s-.3.56-.3.56l-.3.51-.31.53-.28.53-.3.54-.3.51-.29.53-.3.54-.28.52c.69.01,1.38.03,2.07.06,16.19.59,32.27,4.46,47.16,11.55l.31-.23.49-.37.5-.36.49-.37.49-.34.5-.36.5-.36.5-.36.49-.34.5-.36h.02s.7,1.01.7,1.01h-.02s-.5.34-.5.34l-.5.36-.49.34-.49.34-.49.37-.5.36-.47.36-.5.36-.28.21c12.77,6.27,24.64,14.92,34.92,25.94,1.64,1.76,3.22,3.56,4.74,5.4l.52-.11.59-.11.62-.12.6-.13.59-.11.62-.11.6-.1.59-.12.62-.11.6-.1h.03s.19,1.22.19,1.22l-.6.1-.62.11-.59.11-.6.1-.59.12-.6.1-.6.13-.59.12-.48.1c11.02,13.63,18.59,29.07,22.74,45.17l.37.09.59.14.61.15.59.14.58.15.61.15.58.15.61.15.59.17.58.15.04.02-.34,1.19h-.03s-.59-.17-.59-.17l-.58-.15-.59-.17-.58-.15-.59-.14-.58-.15-.59-.14-.59-.14-.34-.08c2.64,10.77,3.77,21.82,3.39,32.82-.2,5.94-.85,11.85-1.93,17.7l.25.19.48.39.47.37.48.39.48.39.47.37.48.39.47.4.48.39.47.4v.02s-.79.93-.79.93v-.02s-.47-.39-.47-.39l-.47-.4-.48-.39-.47-.37-.47-.4-.47-.38-.48-.39-.47-.37-.23-.17c-.72,3.68-1.62,7.32-2.69,10.93l-.81-1.07c2.93-10.13,4.48-20.58,4.64-31.05.49-30.36-10.61-60.88-33.3-84.46-9.82-10.46-21.11-18.72-33.24-24.75l-.11.09h-.02s-.2-.25-.2-.25c-15.1-7.45-31.5-11.46-48.01-11.99-.6-.02-1.2-.03-1.81-.04l-.05.1h-.02s-.23-.11-.23-.11c-28.89-.44-57.94,9.56-81.02,30.2l-.07-.02-.45-.13ZM137.66,206.54c.71-1.83,1.47-3.64,2.27-5.44l.46.84-.21.49c-.47,1.12-.93,2.24-1.37,3.36-.38.25-.77.5-1.15.75ZM266.63,376.36c-7,.94-14.05,1.29-21.09,1.06-1.25-.04-2.51-.1-3.76-.18l1.04.67-.13.18-.38.59-.39.6-.39.6-.39.6-.41.59-.39.6-.39.6-.42.6-.13.18-1.01-.68.11-.19.42-.6.39-.6.41-.59.39-.6.39-.6.38-.59.41-.58.38-.59.11-.19c-9.02-.56-17.98-2.08-26.73-4.54.12-.24.24-.48.36-.71,10.23,2.8,20.73,4.28,31.23,4.43,6.57.16,13.14-.19,19.66-1.05.12.33.23.66.34.99ZM160.69,158.36c.52-.5,1.05-1.01,1.59-1.5,25.66-24.01,58.64-35.31,91.22-34.17,32.58,1.14,64.76,14.68,88.83,40.4,24.05,25.71,35.44,58.73,34.38,91.32-.42,12.75-2.73,25.43-6.94,37.59-.23-.27-.45-.54-.67-.82,4.2-12.33,6.45-25.2,6.72-38.12.68-32.37-10.97-65.02-35.07-90.29-23.73-25.28-55.44-38.56-87.5-39.61-32.47-1.05-65.3,10.26-90.81,34.21-.41.38-.81.76-1.21,1.15l-.54-.16ZM127.04,213.94c1.57-5.39,3.51-10.69,5.81-15.86,1.34-3.02,2.81-5.99,4.39-8.92l-.02,1.34c-1.46,2.79-2.81,5.62-4.04,8.48-2.01,4.65-3.72,9.39-5.13,14.21-.34.25-.68.5-1.01.75ZM268.46,383.79c-7.68,1.07-15.43,1.47-23.16,1.22-11.12-.36-22.19-2.08-32.95-5.16.05-.2.11-.4.17-.6,10.9,3.09,22.1,4.78,33.32,5.05,7.5.21,15.02-.2,22.46-1.23l.15.73ZM337.65,352.48c-.67.57-1.34,1.14-2.01,1.7.02-.18.03-.36.05-.54.41-.22.82-.45,1.23-.7.25-.15.49-.3.73-.46ZM356.96,332c-4.14,5.42-8.74,10.59-13.8,15.46,1.17-1.38,2.39-2.99,3.58-4.66,3.24-3.39,6.26-6.91,9.08-10.54.38-.07.76-.16,1.15-.26ZM152,156.16c1.56-1.62,3.17-3.21,4.83-4.76,27.16-25.5,62.1-37.55,96.66-36.43,34.56,1.15,68.7,15.45,94.26,42.67,25.57,27.24,37.7,62.21,36.65,96.76-.47,15.39-3.54,30.68-9.21,45.16l-.22-.43c-.07-.14-.15-.28-.24-.43,5.55-14.39,8.54-29.58,8.94-44.84.89-34.4-11.32-69.13-36.82-96.11-25.32-26.97-59.16-41.14-93.37-42.26-34.42-1.13-69.23,10.88-96.28,36.28-1.57,1.47-3.09,2.97-4.57,4.5-.21-.04-.42-.08-.62-.12ZM117.24,221.71c3.52-16.71,10.23-32.85,20.09-47.44v1c-4.33,6.5-8.03,13.31-11.09,20.33-3.6,8.23-6.33,16.76-8.19,25.44l-.81.68ZM200.27,131.17l.08-.57.08-.63.08-.6.09-.61.09-.61.08-.63.09-.61.09-.61.11-.59.09-.61.02-.04,1.2.2-.02.04-.09.61-.09.61-.11.59-.08.6-.09.61-.09.61-.08.6-.09.61-.06.61-.08.57-1.22-.16ZM254.98,121.82l.3-.48.33-.51.33-.51.34-.53.33-.51.34-.5.34-.53.33-.51.36-.51.36-.51.02-.04,1.01.71-.02.04-.36.51-.34.5-.33.51-.34.5-.33.51-.35.53-.33.51-.33.51-.33.51-.3.48-1.04-.68ZM232.76,390.37l.19-.26.45-.63.44-.61.44-.62.44-.61.44-.61.44-.61.44-.61.28-.41,1,.69-.3.42-.41.61-.44.61-.44.61-.44.61-.45.63-.44.61-.45.63-.19.26-1-.72ZM260.52,113.66l.34-.47.37-.5.37-.5.37-.5.37-.5.39-.48.37-.5.39-.48.39-.48.39-.48.95.76-.39.48-.37.5-.39.48-.37.47-.37.5-.37.5-.39.48-.36.48-.37.5-.34.47-.98-.73ZM308.55,136.5l.49-.31.52-.34.52-.31.53-.33.52-.34.52-.31.53-.33.52-.31.55-.31.52-.31.06-.03.6,1.07-.03.03-.52.31-.53.3-.53.33-.52.31-.52.31-.5.33-.53.33-.5.33-.53.33-.47.3-.67-1.02ZM262.32,186.87l.02-.04.28-.5.27-.51.29-.53.28-.5.27-.51.3-.51.28-.5.3-.51.28-.5.3-.51.14-.25,1.06.63-.14.25-.28.5-.28.5-.3.51-.28.5-.28.5-.28.5-.27.51-.28.5-.27.51-.27.52-.03.03-1.09-.57ZM317.04,131.43l.5-.27.56-.3.55-.28.53-.3.56-.3.55-.28.56-.27.55-.28.58-.28.55-.28.55,1.11-.56.27-.55.28-.56.27-.55.28-.55.28-.55.28-.53.3-.55.28-.53.3-.52.28-.6-1.1ZM351.18,172.28l.57-.07.62-.08.62-.08.6-.07.63-.07.6-.07.63-.07.6-.07.62-.05.61-.06h.05s.11,1.22.11,1.22h-.05s-.6.05-.6.05l-.6.07-.63.07-.6.07-.61.05-.6.07-.6.07-.62.09-.6.07-.56.09-.19-1.22ZM361.02,171.28l.58-.03.6-.04.63-.04.61-.02.64-.02.61-.03.61-.02h.63s.61-.03.61-.03h.63s.02,1.22.02,1.22l-.61.02h-.63s-.61.03-.61.03l-.61.02-.61.02-.61.03-.61.02-.61.02-.61.02-.57.04-.08-1.23ZM374.51,222.73l.53.17.59.17.59.2.59.2.58.18.59.2.58.21.58.18.59.2.58.21.04.02-.41,1.17-.04-.02-.58-.21-.59-.2-.56-.2-.59-.2-.56-.2-.59-.2-.58-.18-.58-.18-.58-.18-.56-.17.38-1.17ZM383.85,225.98l.52.21.59.23.58.24.56.23.58.24.58.24.58.24.58.24.58.24.56.26-.5,1.14-.56-.26-.56-.26-.58-.24-.56-.23-.58-.24-.58-.24-.56-.23-.56-.23-.58-.24-.55-.21.47-1.14ZM374.32,278.24l.42.39.48.42.45.42.45.42.43.43.45.42.45.42.44.43.45.45.44.43.04.02-.88.88-.03-.03-.44-.43-.44-.43-.44-.43-.45-.42-.45-.42-.44-.43-.44-.4-.45-.42-.47-.4-.42-.39.82-.91ZM120.65,216.06l.16.17.52.5.51.51.4.38c-.32.26-.65.51-.97.77l-.28-.27-.51-.51-.54-.51-.14-.15.85-.88ZM381.43,285.13l.41.43.42.45.44.46.4.46.42.45.44.46.41.46.42.48.41.46.41.46-.92.81-.4-.46-.4-.46-.4-.46-.42-.45-.42-.48-.42-.45-.42-.45-.4-.46-.42-.45-.41-.4.89-.87ZM346.34,353.17l-.09-.32-.19-.75-.17-.74-.2-.74-.19-.72-.2-.74-.19-.72-.19-.72-.14-.48,1.18-.32.15.5.19.72.19.72.2.74.19.72.19.75.19.72.19.75.08.33-1.17.29ZM152.19,153.52l-.13-.54-.15-.62-.13-.6-.16-.6-.13-.6-.12-.62-.13-.6-.13-.6-.12-.62-.13-.6,1.22-.24.12.62.12.59.12.62.13.6.13.6.13.6.15.59.13.6.16.6.12.56-1.19.28ZM273.21,391.88c2.38-.4,4.74-.85,7.08-1.36l.79-1.83c-1.3.29-2.6.57-3.91.82l-3.96,2.37ZM210.79,388.6c12.29,3.42,25.23,5.25,38.61,5.25,6.87,0,13.62-.49,20.23-1.42l.88-1.78c-8.42,1.24-16.93,1.71-25.42,1.44-11.5-.38-22.95-2.14-34.1-5.28-.08.59-.14,1.19-.2,1.79ZM249.4,106.15c-73.11,0-133.49,54.55-142.64,125.17.64-.63,1.29-1.27,1.95-1.9.94-6.55,2.33-13.04,4.18-19.42l.19.2.54.54.54.54.52.56.54.54.54.54.54.54.52.53.36.36.86-.87-.36-.36-.52-.53-.54-.54-.52-.53-.54-.54-.52-.56-.54-.54-.52-.56-.25-.23-.8.78c6.85-23.56,19.89-45.65,39.07-63.65,15.18-14.25,32.68-24.51,51.2-30.82l-.15.6-.14.59-.15.61-.12.61-.15.61-.12.61-.14.59-.12.61-.12.61-.12.58,1.2.23.11-.57.14-.59.12-.61.14-.59.12-.61.14-.6.14-.59.15-.61.14-.59.15-.61-1.19-.29c16.34-5.56,33.48-8.05,50.51-7.49,36.35,1.17,72.31,16.25,99.2,44.88,26.9,28.66,39.67,65.48,38.56,101.85-1.09,36.36-16.07,72.29-44.64,99.11-4.76,4.47-9.75,8.55-14.93,12.23-.52,1.05-1.07,2.04-1.63,2.98,38.01-25.89,62.97-69.51,62.97-118.97,0-79.45-64.4-143.85-143.85-143.85ZM147.89,205.58c-1.12-2.03-2.8-5.07-4.49-8.19-.89-1.63-1.34-3.48-1.3-5.34.66-36.83-3.54-35.76,27.13-26.9l43.93,12.75,46.31,13.2c1.1.31,2.61.71,4.36,1.17,7.47,1.96,13.45,3.59,16.72,5.3,3.57,1.87,7.92,5.25,11.75,8.24,1.57,1.22,3.05,2.38,4.28,3.27,8.73,6.36,17.55,12.89,26.2,19.39.78.58,1.56,1.15,2.34,1.72,1.71,1.25,5.36,4.12,7.98,6.2,1.92,1.53,3.12,3.78,3.32,6.23.19,2.37.41,5.22.5,6.6.16,2.55.32,4.99.54,7.4,3.08,3.96,6.25,7.95,9.32,11.82,6.23,7.84,12.67,15.94,18.68,24.24.59.81,1.3,1.65,2.05,2.54,1.21,1.43,2.58,3.06,3.72,4.93.15.25.34.56.54.94.05.26.13.66.18.92-.24,4.38-.42,7.69-.64,10.31-2.4,3.93-5.21,8.28-7.56,11.11-3.99,4.8-10.28,5.08-13.09,4.93-.11.08-.2.15-.31.23-.09.34-.19.67-.31,1-1.72,4.59-8.18,14.22-11.82,17.51-1.84,1.67-3.83,2.75-6.08,3.76-.04,2.72-.35,5.56-1.3,8.11-9.58,26.59-31.55,19.72-43.52,27.52,2.03-4.7,4.23-6.42,10.89-8.4-8.58-.58-13.68,2.35-18.74,5.38,1.52-3.06,4.92-5.76,9.7-7.43-5.12-.54-11.33,1.84-16.35,4.58-3.38-16.27-13.29-28.23-31.19-27.8-52.16,1.25-38.63,83-5.85,112.32-11.42-.57-57.96-31.58-70.54-72.78-1.66,8.42,2.57,38.74,26.37,65.4-33.29-10.91-57.41-35.18-71.34-83.9.32,30.71,13.52,53.09,23.27,63.09-40.09-21.15-56.69-65.66-54.31-102.32-8.72,27.86-4.84,48.27,2.23,61.1-37.31-33.29-41.59-131.47,56.45-190.18ZM349.39,291.94c-5.49,2.78-9.17.15-12.53-3.54.05-.51.52-.43.83-.54,2.26-.78,5.06-2.74,6.65-2.02,2.16.96,3.41,3.98,5.04,6.11ZM340.34,281.29c-4.28,2.17-7.14.12-9.76-2.76.04-.4.4-.33.65-.42,1.76-.61,3.94-2.13,5.18-1.58,1.69.75,2.66,3.1,3.93,4.76ZM227.63,245.61c-7.78,4.34-13.25.73-18.31-4.42.05-.74.72-.65,1.17-.82,3.22-1.26,7.15-4.24,9.51-3.3,3.18,1.27,5.16,5.57,7.63,8.54ZM209.71,256.54c.91,1.15.28,2.86-1.16,3.14-3.6.71-7.13,1.37-10.27,2.03-1.15.24-2.02-.01-2.9-.84-2.92-2.72-5.89-5.4-9.06-8.27-.95-.86-.71-2.42.46-2.95,3.87-1.76,7.64-3.46,11.38-5.25,1.64-.79,2.16.37,2.86,1.31,2.65,3.52,5.7,7.01,8.71,10.82ZM99.99,235.04c7.76-77.16,72.59-135.8,150.01-135.8,83.26,0,150.76,67.5,150.76,150.76s-67.5,150.76-150.76,150.76c-11.1,0-22.17-1.23-33.01-3.66.92,24.29,12.54,53.32,28.97,68.15,1.35.11,2.69.12,4.04.12,118.95,0,215.37-96.42,215.37-215.37S368.95,34.63,250,34.63,34.63,131.05,34.63,250c0,35.41,8.73,70.27,25.47,101.49-6.51-34.21,2.97-78.71,39.9-116.45Z"/>
</svg>