<?xml version="1.0" encoding="UTF-8"?>
<svg id="Layer_1" data-name="Layer 1" xmlns="http://www.w3.org/2000/svg" viewBox="0 0 1000 1000">
  <defs>
    <style>
      .cls-1 {
        fill: #c8c8c7;
      }

      .cls-2 {
        fill: #fdfdfb;
      }

      .cls-3 {
        fill: #7b7b7b;
      }

      .cls-4 {
        fill: #56acde;
      }

      .cls-5 {
        fill: #1e1f1d;
      }

      .cls-6 {
        fill: #fff;
      }

      .cls-7 {
        fill: #a6a6a6;
      }

      .cls-8 {
        fill: #cbcbc9;
      }

      .cls-9 {
        fill: #46a3da;
      }

      .cls-10 {
        fill: #85c2e6;
      }

      .cls-11 {
        fill: #a9a9a7;
      }

      .cls-12 {
        fill: #53aadd;
      }

      .cls-13 {
        fill: #54abdd;
      }

      .cls-14 {
        fill: #3f9fd8;
      }

      .cls-15 {
        fill: #8c8c8c;
      }

      .cls-16 {
        fill: #555;
      }

      .cls-17 {
        fill: #fcfcfa;
      }

      .cls-18 {
        fill: #8bc5e7;
      }

      .cls-19 {
        fill: #ddd;
      }

      .cls-20 {
        fill: #0f0f0f;
      }

      .cls-21 {
        fill: #0e0e0e;
      }

      .cls-22 {
        fill: #dfdfdf;
      }

      .cls-23 {
        fill: #1d1e1d;
      }

      .cls-24 {
        fill: #9fcfec;
      }

      .cls-25 {
        fill: #d6d6d6;
      }

      .cls-26 {
        fill: #b4b4b4;
      }

      .cls-27 {
        fill: #cfcfcf;
      }

      .cls-28 {
        fill: #b3b3b3;
      }

      .cls-29 {
        fill: #3fa0d9;
      }

      .cls-30 {
        fill: gray;
      }

      .cls-31 {
        fill: #e4e4e4;
      }

      .cls-32 {
        fill: #d4d4d4;
      }

      .cls-33 {
        fill: #1d1e1c;
      }

      .cls-34 {
        fill: #eaeaea;
      }

      .cls-35 {
        fill: #feffff;
      }

      .cls-36 {
        fill: #b5b5b5;
      }

      .cls-37 {
        fill: #f3f3f3;
      }
    </style>
  </defs>
  <path class="cls-32" d="M113.04,598.23c-.13-1.96-.51-4.06-.52-6.23-.14-1.13-.32-2.34-.52-3.63V248.23c.34-.19.71-.32,1.04-.52.42.04,1.04.2,1.04.5.34,114.99.34,234.35,0,349.37l-1.04.65Z"/>
  <path class="cls-16" d="M901,587.85c-.15.45-.32.45-.52,0l-.59-10.62c-.5-106.13-.56-212.26-.18-318.39l.77-10.61h.52v339.61Z"/>
  <path class="cls-3" d="M511.17,13c.45.15.45.32,0,.52-2.97,1.27-5.85,1.27-8.82,0-.45-.15-.45-.32,0-.52h8.82Z"/>
  <path class="cls-28" d="M516.88,13c.45.15.45.32,0,.52-1.71,1.46-4.01,1.49-5.71,0v-.52h5.71Z"/>
  <path class="cls-36" d="M502.35,13v.52c-1.7,1.49-4,1.46-5.71,0-.45-.15-.45-.32,0-.52h5.71Z"/>
  <path class="cls-26" d="M901,596.15c-.15.45-.32.45-.52,0-1.41-1.52-1.42-3.18,0-4.67.15-.45.32-.45.52,0v4.67Z"/>
  <path class="cls-22" d="M496.64,13v.52c-1.17,1.48-2.97,1.45-4.15,0v-.52h4.15Z"/>
  <path class="cls-19" d="M521.03,13v.52c-1.18,1.45-2.99,1.48-4.15,0v-.52h4.15Z"/>
  <path class="cls-34" d="M112.52,592h-.52v-3.63c.9.71.51,2.5.52,3.63Z"/>
  <path class="cls-30" d="M901,591.48h-.52c-1.29-1.27-1.3-2.37,0-3.63h.52v3.63Z"/>
  <path class="cls-22" d="M901,599.27h-.52c-1.4-.99-1.42-2.13,0-3.12h.52v3.12Z"/>
  <path class="cls-15" d="M508.58,986.13c.45.15.45.32,0,.52h-3.11c-.45-.15-.45-.32,0-.52,1-1.37,2.13-1.36,3.11,0Z"/>
  <path class="cls-25" d="M505.46,986.13v.52h-2.08v-.52c.8-1.37,1.27-1.39,2.08,0Z"/>
  <path class="cls-27" d="M510.13,986.13v.52h-1.56v-.52c.33-1.4.91-1.27,1.56,0Z"/>
  <path d="M492.48,13.52c1.38-.04,2.77.03,4.15,0,1.9-.04,3.81.02,5.71,0,2.93-.02,5.89-.02,8.82,0,1.9.02,3.81-.04,5.71,0,1.38.03,2.77-.04,4.15,0,97.34,2.52,213.71,27.45,302.45,67.42,3.45,1.55,11.8,4.89,14.39,6.9,1.31,1.02.92,4.69.85,6.46-.67,18.63-1.67,37.43-2.12,56.04-.34,14.33-.34,28.7-.52,43.03,24.24,14.06,46.27,32.23,64.11,53.86l.27,1.01c-.92,113.18,1.23,226.44,0,339.61-.01,1.21.02,2.42,0,3.63-.02,1.55.03,3.12,0,4.67-.02,1.04.03,2.08,0,3.12-2.63,100.23-54.24,200.68-132.94,261.92-68.13,53.03-150.07,92.97-232.61,118.33-7.24,2.23-17.48,5.89-24.79,6.61-.51.05-1.04-.03-1.56,0-1.02.05-2.1.04-3.11,0-.68-.03-1.4.07-2.08,0-8.56-.87-21.33-5.6-29.86-8.3-97.53-30.89-214.86-88.96-280.54-169.05-51.39-62.67-74.48-129.86-79.95-210.56V247.72c1.95-1.19,6.29-7.47,8.29-9.62,16.47-17.77,35.97-32.51,56.51-45.25-.68-17.24-.5-34.58-.93-51.86-.18-7.17-.89-14.6-1.08-21.77-.28-10.38-.39-20.81-.53-31.17,48.14-22.8,99.7-39.68,151.59-51.95,53.31-12.6,110.72-21.16,165.59-22.58Z"/>
  <path class="cls-14" d="M826.69,95.13c-.1,8.88-.16,17.8-.41,26.68-.21,7.34-.91,14.94-1.08,22.29-.44,18.5-.25,37.05-.94,55.5,24.22,14.11,47.11,31.13,65.04,52.81l.3,337.79c-1.56,100.12-49.61,199.55-128.29,261.12-62.49,48.9-134.34,84.78-209.38,110.41-10.06,3.44-38.03,13.73-47.18,12.91-6.26-.56-17.15-4.57-23.56-6.55-80.83-24.94-160.94-64.05-227.72-115.96-77.15-59.98-125.59-156.71-129.04-254.66l.04-344.82c17.73-21.57,40.37-39.21,64.89-52.55-.2-15.2-.17-30.43-.52-45.63-.03-1.23-.54-2.36-.56-3.59.16-18.49-1.06-36.85-1.28-55.33,38.71-18.14,80.21-32.08,121.62-42.94,88.56-23.24,178.32-33.21,269.77-23.51,85.17,9.04,170.17,31.58,248.3,66.03Z"/>
  <path d="M795.74,229.44c21.38,12.45,41.17,28.67,56.46,48.15l.03,301.19c-2.58,91.59-47.13,179.17-119.45,234.65-51.62,39.59-110.27,69.3-171.5,91.19-13.68,4.89-29.59,10.75-43.65,13.97-12.69,2.91-20.83-.83-32.8-4.5-88.87-27.22-195.92-80.38-253.93-154.65-42.59-54.53-62.56-114.6-64.89-183.83-3.3-98.13,1.3-197.59-.48-295.91.38-3.16,1.73-4.45,3.59-6.79,4.04-5.09,10.21-11.15,15.03-15.6,11.56-10.69,24.56-19.69,37.82-28.12l.17-92.53c54.21-25.03,112.76-42.39,171.63-52.89,58.54-10.44,114.93-13.85,174.24-7.95,77.82,7.74,156.05,28.42,227.12,60.48l.53,1.54.08,91.58Z"/>
  <path class="cls-2" d="M773.74,148.1c.29,16.15-.08,32.33.07,48.49,1.06,120.91.95,242.02,1.6,362.94.28,52.12-4.82,99.58-25.88,147.59-37.5,85.48-127.18,152.91-214.59,181.02-6.76,2.17-22.3,7.45-28.72,7.66-4.14.14-16.17-3.81-20.75-5.2-89.78-27.27-180.16-98.86-215.91-186.97-18.07-44.52-23.84-91.01-23.66-138.91.42-109.31,1.08-218.82,1.6-328.14.14-29.67-.21-59.35.05-89.01,10.67-4.45,21.2-9.25,31.98-13.44,157.78-61.39,339.25-50.21,494.21,13.98Z"/>
  <path class="cls-14" d="M431.75,643.93c-.61-.77-1.55-.77-2.41-.97-52.18-12.35-103.21-28.83-152.3-50.27-.04-3.63-.07-7.21.56-10.79l.49-345.87c-.02-.7.47-.87.84-1.24,1.58-1.58,8.67-5.25,11.09-6.56,89.73-48.64,231.58-52.59,330.24-34.88,42.31,7.6,85.23,20.09,122.43,41.73l1.45,358.13c-.15.6-.65.71-1.1.98-2.54,1.53-8.66,3.51-11.81,4.8-47.97,19.66-97.71,35.45-148.44,46.49l-2.42-.74c-15.99-13.41-35.63-22.4-56.18-25.93l-2.13-1.37-1.04-.36v-59.77c0-.99.63-1.5,1.58-1.64,22.11,1.75,45.29,2.28,68.43,2.35l1.11-.51.49-19.48c-35.63-1.18-53.45-1.77-53.45-1.77-4.31-.38-8.6-.9-12.78-1.95-6.12-1.53-6.4-2.71-6.66-8.87l.28-15.06c-1.06-15.19-1.38-30.46-.98-45.81.08-1.46.78-1.83,2.04-1.41l7.85,20.61c.38.55,1.4-1.88,1.28-2.47-2.37-12.06-5.3-24.16-8.26-36.09-1.38-5.54-3.86-6.7-9.01-8.57-5.95-3.44-8.07-6.49-4.71-13.31.85-2.79.44-6.89-2.75-7.79-9.96-2.8-7.76,6.9-6.25,12.83,2.36,11.71-15.99,9.91-20.68,3.8-4.4-5.73-6.29-15-6.64-22.12-1.87-1-3.35-2.72-4.43-5.15-2.88,1.82-2.62,4.74.77,8.75,1.16,2.04,1.1,3.98-.06,5.95,1.87,9.7,4.98,17.73,14.8,21.8,6.12,4.26,8.03,11.73,8.24,18.88-.51,7.56-.21,14.88.89,21.95,1.76,1.24,2.92,2.74,3.47,4.5,0,12.06.05,24.13.17,36.2-.19,7.04-.64,8.36-7.78,7.48-9.13-1.13-19.42-3.55-28.37-5.88-30.25-7.87-75.73-24.01-73.32-62.55,2.74-43.77,54.83-72.61,90.5-88.52,36.59-16.31,75.98-27.48,115.26-36.11l-.7-70.08c-32.07,12.33-63.75,25.76-94.43,41.29-37.62,19.05-76.91,42-108.56,69.75-43.16,37.84-79.74,93.98-20.79,136.06,35.1,25.05,82.34,32.28,124.3,38.49l.6,1.04.51,62.87-1.03.65-2.85,1.44c-19.96,2.94-38.73,11.18-54.38,23.92l-2.98,1.12Z"/>
  <path d="M522.07,617.44c21.38,2.93,44.71,13.62,60.73,28.04,9.64,8.68,18.38,20.2,24.4,31.68,2.84,2.46,7.64,11.66,7.5,15.15-.02.49-.11.98-.23,1.46,3.46,10.38,5.38,21.25,5.71,32.2.28.39.53.79.72,1.23.93,2.1.24,14.87-.91,16.85-.24.41-.53.78-.85,1.14-2.32,17.05-8.94,34.17-18.69,48.29-.06.93-.16,1.9-.65,2.71-6.81,11.22-22.34,23.91-33.54,30.74s-28.72,14.51-41.48,15.49c-.95.07-1.86-.28-2.72-.65l-.44,1.11c-2.93.43-5.87.74-8.82.95l-.86-1.02c-.05.4-.17,1-.46,1.04-.96.12-9.64.18-10.22,0l-.74-1.04-.59,1.02c-.67.21-8.2-.53-7.97-2.06-.46.21-.93.4-1.41.52-3.88.94-17.46-3.32-22.01-4.88-17.54-6.03-33.64-16.25-46.46-29.66-3.32-3.48-12.83-14.02-13.58-17.96-.09-.49-.11-.99-.11-1.5-8.46-13.86-14.12-31.05-15.57-47.25-.3-.39-.58-.78-.8-1.21-1.04-2.05-1.41-14.68-.47-16.76.2-.44.46-.85.75-1.25.54-10.32,3.23-21.48,6.75-31.16-.12-.45-.21-.9-.24-1.35-.18-3.16,5.15-13.2,8.03-15.27,6.63-11.63,14.76-21.47,24.92-30.12,17.29-14.73,37.56-23.66,60.21-26.48.67-1.77,6.89-2.71,8.05-1.04.11-.41.29-1.01.61-1.04,2.85-.25,8.25-.25,11.1,0l.76,1.04.56-1.03c2.88.2,5.75.52,8.6.96l.44,1.11Z"/>
  <path class="cls-6" d="M706.35,732.21c5.54-6.11,11.85-11.53,17.4-17.65,3.45-3.81,6.63-7.94,9.86-11.95.76-.2.85.5,1.21.87,1.12,1.13,6.25,7.91,6.88,9.23.31.65.77,1.08.23,1.84l-63.08,72.47-58.41,54.25c-22.24,11.19-46.13,19.22-68.45,30.18-13.31,6.53-26.26,15-39.53,21.73-.89.13-.8.03-.78-.78.03-1.62.83-3.23.54-4.93h-6.23c.32,2.34.69,4.7,1.01,7.04.11.83.08.83-.76.75l-40.11-23.75c-22.75-10.16-45.82-19.7-68.37-30.27l-58.15-54c-15.74-20.74-32.17-41.06-47.46-62.09-.16-6.83-1.83-13.69-1.32-20.48,7.77,10.24,17.73,18.48,26.22,28.04.71-.04,1.23.87,1.56,1.56,7.35,7.18,14.12,14.92,20.3,23.25,40.32,45.83,89.95,89.27,151.55,101.08l.46-16.1,1.06-.73c2.42.3,6.44,1.04,8.56,1.04h11.42c2.36,0,7.47-.68,10.12-1.04l1.04.61v16.97c71.57-11.63,128.07-63.74,173.25-117.55l7.91-7.52c.31-.78,1.17-1.93,2.08-2.08Z"/>
  <path class="cls-29" d="M704.27,734.28c-16.47,18.64-30.93,36.52-49.31,53.75-36.34,34.09-82.46,65.78-132.89,72.44v-18.7c31.16-4.2,60.61-22.55,78.38-48.29.49,1.09,1.6.18,2.27-.07,34.12-12.55,73.82-35.02,101.03-59.13h.52Z"/>
  <polygon points="406.31 112.18 422.41 179.69 394.38 184.36 392.56 171.89 383.02 174.04 381.29 186.85 353.89 193.19 366.93 120.04 406.31 112.18"/>
  <polygon points="672.5 124.75 687.14 198.38 659.69 191.05 658.57 178.15 648.73 176.05 646.88 188.03 619.14 182.8 633.21 115.87 672.5 124.75"/>
  <path class="cls-29" d="M408.39,788.29c17.92,29.37,49.44,49.28,83.57,53.49l-.52,18.18c-59.59-10.64-110.55-53.7-149.76-97.62-8.09-9.06-15.24-19.02-23.09-28.05v-.52c26.28,23.12,57.62,41.02,89.8,54.52Z"/>
  <path d="M340.91,179.43c-1.63,17.69-24.5,27.58-39.78,30.83-7.98,1.7-18.79,3.51-21.64-6.26-2.05-7.03-2.29-35.89-.75-43.14,3.75-17.63,36.19-31.89,52.43-28.29,11.81,2.61,9.46,15.37,9.67,24.73l-26.92,7.86v-16.88c0-4.21-10.26-.13-9.3,4.2.56,12.02-.9,24.93-.07,36.84.25,3.62-.02,7.96,4.71,6.74,7.83-2.02,4.34-13.38,5.25-19.41l26.4-7.86c-.23,3.45.31,7.24,0,10.65Z"/>
  <path d="M435.91,108.03l31.41-3.11c7.23-.3,22.31-.31,26.12,7.09,2.19,4.25,2.28,18.69,1.28,23.44-2.41,11.45-22.28,10.82-31.3,11.53v28.04l-27.51,2.6v-69.58Z"/>
  <path class="cls-29" d="M614.47,693.78c-1.92-5.76-4.46-11.25-7.27-16.62,2.32.3,5.39-1.15,7.67-1.94,44.65-15.42,87.55-35.55,128.85-58.3l-1.64,20.42c-11.26,6.6-23.19,12.71-35.02,18.45-30.01,14.55-60.99,27.24-92.58,37.98Z"/>
  <path class="cls-29" d="M406.84,674.05c-3.1,5.44-5.64,10.71-7.79,16.62-40.82-14.64-80.39-32.5-118.52-53.06l-1.89-2.26c-.08-6.52-1.4-12.94-1.04-19.46,39.4,21.62,80.55,41.98,123.14,56.74,1.77.61,4.33,1.89,6.11,1.42Z"/>
  <path d="M615.51,112.18v14.02l-16.09-2.08-.52,55.57-26.21-3.11-1.07-.49c-.14-14.39-.59-28.99-.25-43.41.04-1.73,1.18-11.57.54-12.18l-15.32-1.04c-.43.02-1.3-.49-1.3-.78v-13.24c20.19.68,40.25,3.89,60.21,6.75Z"/>
  <path class="cls-29" d="M620.18,725.97c31.1-11.45,61.46-24.96,90.85-40.23,7.57-3.93,15.88-9.52,23.51-12.83.42-.18,1.09-.91,1.41-.15-1.6,5.37-2.78,10.91-4.54,16.23-.65,1.96-1.63,6.18-3.06,7.32-35.22,18.78-71.69,35.14-109.2,48.88.89-6.54,1.24-12.59,1.04-19.21Z"/>
  <path d="M743.2,217.6l-41.7-14.63-.63-.41c-.77-23.19.27-46.41.55-69.61l26.13,8.91-.36,55.15c.49,1.43,13.76,5.42,16.01,6.57v14.02Z"/>
  <path class="cls-29" d="M392.3,721.82c-.34,6.36-.04,12.92.52,19.21-30.56-11.85-60.86-24.83-89.81-40.23-2.82-1.5-9.35-4.49-11.39-6.26-.79-.68-.85-1-1.21-1.9-1.33-3.38-5.52-17.83-5.56-20.93,0-.39-.13-.9.27-.78,34.37,19.58,70.07,37.07,107.19,50.89Z"/>
  <path d="M512.21,104.13c.55-1.78,6.46-.28,8.02-.24,6.68.2,13.38-.44,20.01.5.31,23.23-.9,46.35-.52,69.59l-27.51-.52v-69.32Z"/>
  <path class="cls-10" d="M706.35,732.21c-.7.78-1.54,1.47-2.08,2.08h-.52c.7-.62,1.38-2.01,2.34-2.59l.26.51Z"/>
  <path class="cls-18" d="M318.59,733.76v.52c-.38-.43-1.01-.94-1.56-1.56l.26-.51c.62.3.91,1.21,1.3,1.55Z"/>
  <path class="cls-6" d="M491.97,617.44l-.52-63.87c-30-3.51-60.66-9.04-88.89-19.86-32.89-12.6-71.28-36.77-66.25-77.44,6.6-53.31,74.84-100.09,117.61-125.37,43.79-25.89,90.89-47.07,138.48-65.02l.72,72.12c-32.57,7.38-64.93,16.2-96.09,28.24-35.78,13.82-91.09,40.15-105.64,78.14-20.22,52.82,38.81,72.99,78.68,81.51,6.08,1.3,14.11,3.22,20.15,3.73,3.81.32,4.04-.31,4.37-4.32,1.02-12.32-.83-26,0-38.47-.38-2.76-3.57-2.26-4.13-6.25-1.54-10.93,2.85-26.98-5.49-36.05-4.51-4.91-9.9-4.42-13.68-11.76-.98-1.91-4.07-11.2-4.12-12.98-.02-.89.78-1.62.91-2.55.63-4.57-8.54-9.38-.25-13.71l3.63,5.69,1.81-2.06c-1.46,6.18,2.54,21.12,7.02,25.44,3.55,3.42,14.93,5.13,17.6.48,2.52-4.39-5.51-16.84,2.76-18.53,5.26-1.07,9,.71,9.01,6.37,0,5.62-5.54,8.28,1.56,13.46,6.04,4.4,8.98,1.3,11.74,10.58,3.45,11.58,5.16,24.54,8.29,36.29-.27,1.91-.67,3.83-2.94,3.8l-8.31-21.81c.82,10.47-.3,20.9-.03,31.44.12,4.78.92,10.22,1.08,15.02.21,6.05-.7,13.47-.03,19.25.38,3.29,2.36,3.48,5.1,4.25,10.2,2.87,30.69,2.92,41.87,3.29,8.57.29,17.19-.53,25.72.5l-.52,20.52c-.07,1.15-1.1,1.33-2.05,1.58-15,.13-29.99-.62-44.95-.79l-24.12-1.58v60.76c-2.56-.35-7.33-1.04-9.6-1.04h-12.46c-1.98,0-5.78.76-8.05,1.04Z"/>
  <path class="cls-6" d="M300.42,596.66l9.84-23.66c5.65,2.57,14.03,3.04,12.12,11.11-.53,2.25-4.56,11.92-5.77,13.96-3.84,6.48-10.98-.31-16.2-1.41Z"/>
  <path class="cls-6" d="M629.02,628.33l-6.74-24.07c.23-.74,7.45-2.62,8.67-2.78,2.12-.27,4.82-.57,6.37,1.15,1.38,1.53,6.07,17.68,5.69,19.73-.67,3.7-10.71,5.44-14,5.98Z"/>
  <path class="cls-6" d="M671.05,601.86c5.04-.1,4.91,7.57,6.7,11.13-.22.87-4.59,1.91-5.69,2.16-1.05-.82-2.26-8.19-3.56-9.85-.51-.65-1.42-.25-2.13-.32l3.63,11.42c-1.57-.26-4.72,1.88-5.9,1.52s-7.16-20.92-8.59-23.54c.21-.95,8.44-3.56,9.81-3.74,5.64-.74,9.21,7.28,5.72,11.21Z"/>
  <path class="cls-6" d="M379.84,611.22c3.9,3.91-.58,9.45-1.04,14.02-1.02-.84-6.05-1.31-6.15-2.32.66-2.6,2.61-6.49,2.94-8.98.11-.83.23-1.76-.69-2.2s-.93.89-1.14,1.42c-1.19,2.93-1.95,6.4-2.75,9.48-1.09-.42-6.65-1.67-6.71-2.33l7.76-24.16c4.29,1.59,13.35,2.17,12.87,8.42-.19,2.42-1.86,7.81-5.08,6.64Z"/>
  <path class="cls-6" d="M421.23,609.78c3.99-.82,9.8.79,10.49,5.36.46,3.04-2.17,17.38-4.37,19.45-3.62,3.41-12.4,1.47-13.21-3.94-.4-2.66,1.8-14.05,2.83-16.83.75-2,2.07-3.6,4.26-4.05Z"/>
  <path class="cls-6" d="M697,606.01c-1.6.2-5.04,2.35-6.43,2.13-1.2-.19-.31-4.52-3.12-3.62-1.96.62.97,3.75.14,5.07-.17.27-5.7,2.32-6.19,1.93l-5.99-24.73,9.12-3.62,12.47,22.84Z"/>
  <path class="cls-6" d="M349.73,596.67c-1.01-.46-5.1-1.5-5.49-2.06-.59-.84.84-3.61.3-4.17-1.13-1.19-2.87,1.85-2.38,3.64,1.39,5.05,7.19,4.82,4.04,13.33-2.05,5.52-6.41,6.02-11.27,3.3s-3.41-6.36-2.31-10.92c.28-.25,5.75,1.73,6.01,2.06.39.5-1.87,4.54-1.34,5.21.05.06,1.33.4,1.57.29.59-.27,1.18-1.67,1.33-2.34.99-4.33-4.01-6.21-4.47-10.14-1.03-8.72,6.46-12.26,13-6.77,3.32,2.78,2.1,4.95,1.02,8.58Z"/>
  <path class="cls-6" d="M619.1,610.12c-.95,1.33-5.8-.71-2.57,5.55l4.17-.83c-.46,1.25,1.17,3.67,1.01,4.38-.25,1.14-3.84,1.06-4.13,1.34-.21.21,1.16,5.12,2.33,5.2,4.05.31,3.66-3.69,5.46,4.13l-11.09,2.64-7.08-24.44,10.9-3.13c.05,1.09,1.54,4.4,1,5.15Z"/>
  <path class="cls-6" d="M651.84,595.11c2.23,7.36.52,3.9-2.08,5.98-1.33,1.06.77,3.43.53,4.93.27.29,5.02-3.67,5.5,2.57.13,1.75-3.82,1.32-3.91,2.36-.05.6,1.87,3.71,1.53,4.94l4.69-1.34,1.57,4.65c-.09.53-9.47,3.51-10.16,3.46-.65-.05-1.03-.25-1.19-.91l-7.37-23.52,10.9-3.12Z"/>
  <path class="cls-6" d="M604.08,609.13l1.04,5.19c-.96.24-4.21-.03-4.16,1.29.27,6.68,4.18,2.53,5.18,3.4.18.16,1.2,4.46,1.06,4.66-.13.17-4.03.88-4.16,1.05-.32.41,2.76,8.55,2.63,10.06-.06.35-5.46,1.98-5.94,1.84-1.34-.4-5.8-21.65-6.6-24.56l10.94-2.93Z"/>
  <path class="cls-6" d="M356.98,596.18c-1.14-1.28-4.63.97-2.05-5.74,1.89.3,13.75,3.97,13.97,4.98.07.33-1.19,3.94-1.5,4.16-1,.71-2.99-1.63-3.91-.32l-6.8,18.66c-1.12-.49-5.65-1.39-5.88-2.34.36-2.51,6.9-18.57,6.16-19.4Z"/>
  <path class="cls-6" d="M414.58,608.14c.52.73-.94,4.07-1.01,5.15l-4.14-1.04c-.63,2.41-3.89,19.11-4.72,19.7s-4.85-1.33-6.18-1.01l4.67-19.94c-4.97-1.26-3.69-2.29-2.6-6.54,1.7,1,13.52,3.05,13.97,3.68Z"/>
  <path class="cls-6" d="M704.83,596.64c.89.65,2.95-1.64,4.14-.78.38.27,1.8,4,1.5,4.41s-9.15,4-9.77,3.61c-1.07-.68-8.55-20.5-9.92-23.28l6.21-2.62c1.1,2.31,6.97,18.03,7.83,18.66Z"/>
  <path class="cls-35" d="M396.97,603.43l-6.75,24.92-6.23-1.83,6.5-24.15c.91-1.2,4.96,1.26,6.48,1.06Z"/>
  <path class="cls-35" d="M328.47,580.05c1.19.81,6.3,1.74,6.15,3.28l-9.52,23.09c-1.03-.56-5.74-1.81-5.87-2.72l9.23-23.65Z"/>
  <path class="cls-6" d="M601.49,718.7c.22,5.67-.58,11.38-2.4,17.11-1.68,7.59-4,16.38-7.47,22.88-1.25,2.95-2.42,3.49-5.36,4.77-9.24,4.03-20.31,4.07-30.2,5.15-1.52,0-2.54-1.5-3.37-2.64-.3-.08-.56-.18-.69-.37-6.18-9.14-12.51-18.65-18.55-28.09-.3-.47-.41-1.05-.48-1.66,4.21-14.96,10.04-29.62,11.97-45.15l34.73-5.5c7.74,10.15,16.82,21.72,21.82,33.51Z"/>
  <path class="cls-6" d="M531.93,736.36c.29-.14.53-.24.57-.19,7.21,9.4,13.74,20.33,19.68,30.31l.93,2.77c-3.63,8.15-7.87,16.13-12.65,23.67-1.94,3.07-8.02,12.77-11.09,13.83-2.81.97-11.04,1.67-14.28,1.82-5.98.27-13.22-.25-19.15-1.13-9.17-1.37-10.45-2.24-15.81-9.63-5.86-8.08-10.33-17.84-14.43-26.91.32-1,.87-1.93,1.36-2.86-.13-.33-.21-.63-.09-.83,5.75-9.89,11.88-20.25,19.3-28.77.47-.63.99-1.26,1.55-1.82l44.13-.26Z"/>
  <path class="cls-6" d="M466.53,767c-.4.61-1.44,2.39-1.78,2.64-1.75,1.3-9.81-.25-12.35-.72-4.3-.78-9.05-2.11-13.27-3.35-2.49-.73-13.61-4.09-14.56-5.69-1.72-2.9-3.82-13.4-4.61-17.2-1.44-6.97-2.35-14.03-3.28-21.08l18.93-32.39c11.42,3.72,23.54,4.85,35.51,5.15,3.83,12.61,7.4,25.48,12.44,37.67,1.03,2.51,2.33,3.13,2.17,5.88-6.37,9.19-12.43,18.61-18.17,28.27l-1.04.81Z"/>
  <path class="cls-6" d="M507.04,668.31l.21-30.64c6.58-2.79,13.15-5.74,19.88-8.16,3.28-1.18,11.6-4.48,14.55-4.7,3.56-.27,18.33,7.59,22.07,9.86,4.67,2.83,9.42,6.25,13.58,9.78,1.33,1.13,5.74,4.66,5.98,5.98-.89,8.02-2.48,15.95-3.56,23.94-.24,1.74-.48,8.68-1.1,9.29-11.16,3.16-22.92,4.34-34.43,5.88-9.69-7.83-20.82-14.62-32.19-19.74-1.56-.71-3.24-1.46-5-1.49Z"/>
  <path class="cls-6" d="M462.38,634.06c2.06-1.25,7.94-4.25,10.1-4.17,8.49.33,19.09,2.15,27.03,5.2,1.98.76,5.87,1.62,5.99,3.87-.86,8.83,1.04,19.51,0,28.1-.07.57-.02,1.13-.55,1.52-11.51,7.72-23.3,15.22-33.58,24.56-11.89-.6-24.31-.98-35.46-5.47l-1.55-29.74c7.98-9.19,17.5-18,28.03-23.89Z"/>
  <path class="cls-6" d="M529.76,808.13c.13.08.65,1.25,1.11,1.73,6.39,6.59,15.31,10.98,22.86,16.08,0,1.18-14.58,6.17-16.6,6.75-20.47,5.86-41.72,5.74-62.17-.12-1.69-.48-13.12-4.29-13.62-4.82-.88-.94,2.34-1.62,2.95-1.97,8.82-5.08,16.55-11.79,24.42-18.19,9.58,1.36,19.22,2.58,28.95,1.99,1.81-.11,11.49-1.81,12.1-1.45Z"/>
  <path class="cls-6" d="M420.85,796.6c-1.95-1.98-4.02-4.8-5.61-7.11-15.36-22.23-21.95-50.14-18.26-77.01l7.95,4.76,10.73,5.49c.79,6.29,1.59,12.63,2.84,18.85.99,4.92,4.66,14.61,4.93,18.48.15,2.07-1.83,7.4-2.05,10.33-.51,6.82-.47,17.3,0,24.14.33,1.31.16,2-.52,2.08Z"/>
  <path class="cls-6" d="M602.53,720.78l1.55-1.28,11.43-4.95c2.5,20.01-.75,40.77-9.25,59.03-.66,1.42-4.83,9.68-5.55,10.03-.96.47-.76-.74-.91-1.14-2.19-6.01-7.15-17-7.65-22.74,4.47-12.69,7.72-25.55,9.73-38.56l.66-.39Z"/>
  <path class="cls-6" d="M433.83,657.43c-1.51-1.39-6.19-2.72-8.3-3.12-.21-.79.21-.86.51-1.3,3.82-5.53,23.56-20.4,29.98-21.93,3.59-.86,7.45-.26,11.03-1.16-1.42,1.42-3.48,2.53-5.19,3.63-10.06,7.11-19.11,15.46-28.03,23.89Z"/>
  <path class="cls-21" d="M602.53,720.78c.39,3.33-3.23,16.85-4.3,20.88-1.63,6.11-3.49,12.3-6.08,18.06-.04-.44,0-.91-.52-1.04,1.41-3.33,2.84-8.37,3.89-11.95,2.66-9.06,4.94-18.65,5.97-28.04.22.52.99,1.71,1.04,2.08Z"/>
  <path class="cls-20" d="M552.7,765.96l-.52.52-20.24-30.12,1.04-.52c4.28,5.57,8.11,11.51,11.95,17.39,2.61,3.98,5.1,9.02,7.78,12.73Z"/>
  <path class="cls-20" d="M486.26,738.44c-5.95,7.94-14.59,20.91-19.21,29.6l-.52-1.04c6.3-9.7,11.75-20.17,19.21-29.08-.01.21.21.62.52.52Z"/>
  <path class="cls-20" d="M462.38,634.06c-4.9,2.98-10.15,7.41-14.54,11.16-4.7,4.01-8.87,8.64-13.49,12.73-.07-.3-.36-.37-.52-.52,8.24-9.43,17.53-17.16,28.03-23.89l.52.52Z"/>
  <path class="cls-7" d="M421.37,794.52c.02.26,1.06,2.06.51,3.12-.62.03-.74-.74-1.03-1.04l.52-2.08Z"/>
  <path class="cls-17" d="M388.15,133.99c.84,8.71,2.73,17.27,3.63,25.96l-8.82,1.56c1.07-8.81,2.14-18.38,4.15-27,.33-1.02.67-1.19,1.04-.52Z"/>
  <path class="cls-11" d="M388.15,133.99l-1.04.52c.17-.73-.13-1.53.78-2.07.52.13.21,1.08.26,1.56Z"/>
  <path class="cls-17" d="M653.92,138.15l3.37,27.53-8.59-2.43c.96-8.48,2.84-16.81,4.7-25.1.15-.45.32-.45.52,0Z"/>
  <path class="cls-8" d="M653.92,138.15h-.52c.11-.47-.27-1.56.26-1.56l.26,1.56Z"/>
  <path class="cls-17" d="M463.42,135.03v-17.66c6.21-.1,8.35-.88,8.85,5.95.53,7.31-.12,12.32-8.85,11.71Z"/>
  <path class="cls-29" d="M508.02,486.61c1.97,1.24,5.06,40.94,5.74,46.19l-11.96-1.85,4.7-44.37c.45.07,1.26-.14,1.52.03Z"/>
  <path class="cls-9" d="M308.73,595.11c-.32-.32.53-2.51.79-3.1l5.69-12.47c.86.6.88,1.33.78,2.28s-4.61,11.6-5.26,12.44c-.48.63-1.47,1.38-2,.85Z"/>
  <path class="cls-9" d="M634.2,622.12l-4.15-16.1c1.16-.12,1.37-.12,1.97.88.52.86,4.18,13.18,4.17,14.03-.01,1.19-.99,1.31-1.98,1.18Z"/>
  <path class="cls-4" d="M666.3,600.75c-.05.07-1.14.39-1.47.6.28-1.07-1.9-5.4-1.56-5.71,1.49-1.37,4.03,3.64,3.03,5.11Z"/>
  <path class="cls-13" d="M375.69,608.09c-.42-.42,1.17-5.71,1.81-5.7,2.63.81-.35,7.17-1.81,5.7Z"/>
  <path class="cls-9" d="M423.45,614.33c.71-.11,1.84-.02,2.01.82.15.74-2.33,13.33-2.79,14.77-.7,2.2-1.99,2.77-2.1.48-.2-4.44,2.78-11.34,2.87-16.07Z"/>
  <path class="cls-12" d="M683.51,593.04c.55,1.04,3.66,6.75,3.11,7.27-.56-.09-1.71.2-2.02-.06-.26-.22-1.41-5.72-1.61-6.69-.25-.78-.23-.92.52-.52Z"/>
  <path class="cls-24" d="M683.51,593.04l-.52.52c-.08-.4-.94-1.16-.51-2.07.69-.17.66.85,1.03,1.56Z"/>
  <path class="cls-33" d="M517.4,784.13c-.98-.16-6.01.23-6.23,0-.35-.37.81-5.82-2.6-3.85-.1.79.17,3.69.01,3.85-.22.22-5.25-.16-6.23,0l3.08-23.15c1.5-.22,8.01-.68,8.64.26l3.34,22.88Z"/>
  <path class="cls-23" d="M487.29,774.79c-4.35-3.35-6.2-4.34-5.16-10.62.74-4.47,9.01-4.75,11.88-2.08,1.61,1.5.96,3.98,1.07,5.95-3.52-.1-6.49,1.22-5.72-3.63-1.48-.15-1.67,1.16-1.6,2.34.21,3.42,7.14,3.42,7.83,9.34.49,4.18.2,7.65-4.53,8.44-6.34,1.06-9.91-2.26-8.96-8.7,1.73-.21,3.5-.37,5.29-.48l-.1-.56Z"/>
  <path class="cls-5" d="M534.53,760.77c-.14.82.19,4.48,0,4.68-.22.22-3.94-.23-4.16,0-.17.17-.17,4.51,0,4.68.21.21,3.43-.22,3.64,0,.15.15.15,4.01,0,4.16-.18.17-2.93-.12-3.64,0v9.87h-6.23v-23.37h10.38Z"/>
  <path class="cls-37" d="M487.29,774.79c.53.41,1.78.34,2.33,1.57.57,1.29.19,2.8.26,4.15-3.76,1.26-1.32-3.93-2.07-4.68-.2-.2-4.77.15-5.71,0,.44-1.32,4.23.28,5.19-1.04Z"/>
  <path class="cls-31" d="M510.13,769.59c.18,2.08.45,4.15.52,6.23-3.12.9-1.89-2.22-1.55-4.67.17-1.02.52-1.54,1.04-1.56Z"/>
  <path class="cls-1" d="M510.13,769.59l-1.04,1.56c.17-1.21.25-2.44.52-3.63h.51c.05.68-.05,1.39,0,2.07Z"/>
</svg>