<?xml version="1.0" encoding="UTF-8"?>
<svg id="Layer_1" xmlns="http://www.w3.org/2000/svg" version="1.1" viewBox="0 0 300 300">
  <!-- Generator: Adobe Illustrator 29.1.0, SVG Export Plug-In . SVG Version: 2.1.0 Build 142)  -->
  <defs>
    <style>
      .st0 {
        fill: #f06339;
      }

      .st1 {
        fill: #fcfbfb;
      }

      .st2 {
        fill: #fdf9f8;
      }

      .st3 {
        fill: #f06137;
      }

      .st4 {
        fill: #010103;
      }
    </style>
  </defs>
  <path class="st0" d="M11.3,190.1c3.2,0,25.5-6.9,26.6-6.1s2.8,8.5,3.4,9.9c19.8,51.5,64.7,80.8,120.5,76,49.2-4.3,86.9-39.4,100.3-85.9l26.6,6.1c-4.9,18.2-12.7,35.8-23.7,51.1-24.2,33.7-63.5,54-105,56l-.9.4h-18.5l-15.6-1.9c-33.9-5.4-65.3-22.8-86.4-49.8-12.8-16.3-21.1-34.9-27.2-54.6v-1.1ZM265.8,199.7c-.8-1.1,2.6-5.9,1.4-6.8s-2.5-1-2.6-.9l-3.3,10,16.1,5.6c.6,0,.8-.4,1-.9.4-.7,3-8,2.9-8.6-.6-.2-2.6-1.2-2.9-.9-.8.6-1.2,5.7-2.8,5.9s-2.7-.7-3-1.1c-1.3-2,4.1-5.1-1.2-6.6-.7-.2-.4,0-.6.4-.4.8-1.4,4.3-1.8,4.5-.5.4-3.1-.4-3.3-.6ZM35.3,208.9c2.1-.6,3.6-3.7,3.7-5.7.3-6.1-5-10.8-11-9.5-11.3,2.4-9.6,18.1,1.8,17.8-.2-.5-1-3.5-1.2-3.6-.5-.4-2.8.1-4.2-2.3-3.9-7.1,8.2-12.1,10.8-5.2s-1,4-1,5.4,1.2,2.1,1,3.2ZM265.7,208.3c-4.8-4.8-10.1,2.8-10.6,7.4l15.9,7.6c1.5-3.8,6.5-11.2.5-13.6-2.8-1.1-3.4.4-4.7.3s-.7-1.3-1.1-1.7ZM44.9,214.2c-1.3-.8-16.4,2.3-19.1,2.2.3.5,1.4,3.2,1.5,3.3,1,.6,3.2-1,4.6,0s2.7,4.5,2.8,4.9c.7,1.8-2.3,3-2.3,4.1s1.5,2.7,1.7,2.8c.9.2,10.5-12.3,12.1-13.8.4-.4-1.1-3.4-1.3-3.5ZM252.7,219.3c-.4.1-1.7,2.2-1.6,2.6.5,1.1,8.1,5,9.6,6.6,2.8,3,0,7.2-3.9,6.1s-8.4-6.2-9.8-6.4-2,2.2-1.9,2.7,8.8,6.3,9.8,6.8c6.5,2.9,12.6-4.3,9.8-9.8-.9-1.7-9-7.5-10.9-8.3s-.7-.4-1.1-.3ZM47.5,238.5c.4-.3,2.3.6,3,.6,3,0,5.8-3.2,5.3-6.2s-3.6-7-4.6-7.3-1.8.7-2.4,1.1c-1.4.9-11.4,8-11.7,8.7s.9,2.8,1.6,2.8c1.1,0,7.2-6,5.9-1.5-.4,1.4-2.8,4.5-2.8,5.7s1.7,3,2,3.1c.7.3,1.4-2.6,1.9-2.9.3-.6,1.5-3.9,1.7-4ZM251,251.4c.6-1.7,6.3-6.8,6.3-7.9s-1.6-2.2-2.4-2-3.9,5.3-4.8,5.1c-1.4-.3-10-9.4-10.9-9s-2.6,2.3-1.5,3l12,10.5,1.3.3ZM59,260.6l7.3-16.9c.3-.7-2-2.9-2.4-3-1.4-.4-14.9,6.8-17.5,7.3,2.8,4.6,3.9,1.4,6.2,1.2s4.2,3.6,4.6,4.2c1.1,1.9-1.3,3.8-1.1,4.8s2.5,2.8,2.9,2.5ZM233.9,244.5c-5.3.6-9.1,6.3-7.6,11.4,3.4,11.3,19.9,7.7,17.9-3.1-.4-2.4-1.8-1.9-3.1-.3s.3,2.1-.7,4.1c-3.5,7.2-14.1-.2-10.1-6.4,2.2-3.4,5.2-1.3,6.6-1.9s1.6-1.8,2.2-2.2c-1.4-1.2-3.4-1.8-5.2-1.6ZM64.6,265.3c1.6,1.7,4.5,2.7,6.7,1.6s9.6-11.2,9.5-11.9c-.8-.6-2.2-2.2-3.3-1.6-2.3,2.7-4.7,7.4-7.1,9.7-1.7,1.6-3.7.8-3.7-1.5s.4-1.1.4-1.5c0-.9-2.2-2.4-2.9-2s-1.1,3.3-1.1,3.8c0,.9,1,2.7,1.6,3.4ZM218.5,259.5c.1-.2-1.3-3-2-2.9s-8.2,4.5-8.3,5l8.7,15.3c1.1-.6,8.5-4.5,8.6-5s-1.1-2.7-1.3-2.7c-1.4.2-5.3,3.6-6.4,2.9s-1.7-3.4-1.5-3.6c.7-.3,4.6-2,4.8-2.2s-1-2.8-1.1-2.9c-.8-.5-4.4,2.2-5.3,2.5l-2-3.3,5.9-3ZM88.5,279.5l2.6-17.9c0-.9-2.6-2.3-3.2-2.3-1.1,0-12.8,10.7-14.9,11.9,3.7,3.6,4.4,0,6.2-.5s6.1,2.7,6.3,3c.6.9-.8,3.8-.2,4.7s3,1.4,3.3,1.2ZM95.1,262.5c-.3-.4-1.5-.5-2,0s-2.2,4.2-1.1,4.4,3.8-3.5,3.1-4.4ZM206.7,262.9c-.8-.7-12.2,4.9-14,5.4l.8,3.1c.4.4,4.9-2.5,5.9-1.8s4.5,12.6,5.4,12.9,3.2-.8,3.1-1.6l-5.5-13.2c.7-.3,5-1.6,5.2-1.9s-.6-2.8-.8-2.9ZM94,276.5c-2.6,7.7,10.8,11.6,11.8,3.5s-6-6.2-5.1-9.5,2.9-1.4,3.7.2.3,2.2,3,2.9c2.2-4.1-1.7-7.6-5.9-7.4-3.4.2-5.4,3.9-4.4,7.1s5.1,4,5,6.4-3.9,1.9-4.6.2,0-1.8-.5-2.4-2.8-1.1-3-.9ZM196.7,285.8c.6-.7-4.9-4.9-5.1-5.8s2.2-2.8,1.2-6.3c-1.6-5.7-8.8-3-12.7-1.9.6,2,4.1,16.3,4.8,16.8s3.1,0,3.3-.8-2.5-5.9-.9-6.4c2.1,0,4.2,4.7,5.6,5.1s2.5-.7,3.8-.7ZM128,276.5c.4-.8.8-2.6,0-3.1s-9.2-1.9-9.6-1.6l-3.4,17.3,10,1.8c0-.7.7-2.9.4-3.3s-5.4-.8-6.3-1.1l1-4.1,5.7,1.1c-.3-.8.7-2.8.3-3.3s-4.7-.9-5.5-1.1c0-.6.6-3.6.8-3.7.4-.3,5.5,1.6,6.6,1ZM167.4,273.7c-.8.1-2.1.7-2.8,1.2-8.5,5.8-2.6,20,8.4,16.5,10-3.1,7.8-20-5.6-17.8ZM141.7,279.8c.4-9-14.2-6.7-10.8,1.8,1.1,2.8,6.9,3.4,7.1,5.8s-1.2,2.2-2.7,2c-2.4-.3-2.1-2.7-2.5-2.9s-2.6-.1-3.3-.4c-1.1,8.5,13.3,8.7,12.1.3-.7-4.7-7.8-4.7-7.6-7.4s2.4-2.3,3.6-1.2.5,2.7,4.1,2ZM149.8,286.5c4.4.7,9-1.3,8.5-6.4s-2.7-5-4.6-5h-7.6l.4,18.1h3.3v-6.7Z"/>
  <path class="st4" d="M149.4,2.5c.3,0,.6-.1,1,0l107.1,61.7.6,1.2v102.4c-3.1,49.9-45.6,90.6-94.4,96.5-59.6,7.2-116.8-35.6-121.7-96.2l.2-103.6L149.4,2.5ZM138,18.3c-7.6,4.4-15.3,9-22.9,13.3s-14.6,8.4-21.8,12.6-15.1,8.7-22.5,12.9-1.7.6-2.5,1c-6.5,3.8-13,7.7-19.7,11.1v91.6l21.8-9.8c.7-.8.3-8.4.4-10.2.9-4,1.3-8,2.2-12,3.1-12.8,11-27.1,20.3-36.4,5.8-5.8,14.5-11.9,21.8-15.5s14.9-5.9,22.9-7,13.7-1.2,21.4-.4c7.7.9,15.4,2.8,22.5,5.9s7,3.6,9.9,5.4,7.7,5.4,11.1,8.5c.4.4.6-.2.7-.2.7-.1,1.4-.4,2.1-.7,6.7-2.8,13.4-6.3,20.1-9.3s15.7-6.9,23.3-10.9c-7.6-4.7-15.5-9-23.3-13.5s-14.8-8.3-22.2-12.6c-7.3-4.2-14.5-8.4-21.8-12.6-7.5-4.3-15-8.6-22.5-12.9s-.3-.5-.6-.7c-2.9-1.7-5.8-3.3-8.8-4.8-1.2,0-10.2,6-12,7ZM146.8,73.5c-56.9,2.6-90.7,65.6-60.3,114.4,29.3,46.8,97.7,46.8,127,0,31.8-50.9-7-117.1-66.7-114.4ZM136.5,233.3l-5.5-1.1c0,.6-.7,2.6-.4,2.9s2.5.1,2.6.6c-.2,3.8-2.8,9-2.9,12.6s2.6,1.6,2.8.6l3.4-15.6ZM169.7,232.6c-.4-.3-9.4,1.9-9.5,2.4-1.3,4.1,6.3.2,7,.9l-2.6,14.4,3-.6c.2-4.6,2.3-9.9,2.6-14.4s0-2.5-.4-2.7ZM136.9,245.9c-.2,4.4,4.6,6.7,8.1,4.2,3.4-2.4,4.2-12.2,1-14.9-2.8-2.4-8-1.1-8.7,2.8s3,8,7.7,5.7c-.1,2.5-.8,5.2-3.8,4.7s-.8-3.6-4.3-2.5ZM150.6,247c1.9,7.4,10.1,5.1,10.4-2.4s-1.4-11.1-7.6-10.1-3.4,14.9,4.6,9.2c1,2.4-1.7,7-4.1,4.6s0-2-3.3-1.3Z"/>
  <path class="st2" d="M167.4,273.7c13.3-2.2,15.5,14.6,5.6,17.8-11,3.5-16.9-10.7-8.4-16.5.7-.5,2-1.1,2.8-1.2ZM169.7,276.6c-7.7.4-6.8,12.1.3,12.1s7.1-12.5-.3-12.1Z"/>
  <path class="st2" d="M265.7,208.3c.4.4.8,1.7,1.1,1.7,1.2.1,1.9-1.4,4.7-.3,6,2.4,1,9.7-.5,13.6l-15.9-7.6c.5-4.6,5.8-12.2,10.6-7.4ZM259.1,214.1l3.5,1.5c4-4.8-2.3-7.7-3.5-1.5ZM270.5,213.5c-2.5-2.6-5.2,2.6-4.5,3.6s2.9,1.7,3.5,1.3,1.9-3.9,1-4.9Z"/>
  <path class="st2" d="M47.5,238.5c-.2.1-1.4,3.4-1.7,4-.5.4-1.1,3.3-1.9,2.9s-2-2.6-2-3.1c0-1.2,2.4-4.3,2.8-5.7,1.3-4.5-4.8,1.5-5.9,1.5s-1.9-2-1.6-2.8,10.3-7.8,11.7-8.7,1.6-1.3,2.4-1.1,4.4,6,4.6,7.3c.4,3-2.3,6.2-5.3,6.2s-2.7-.9-3-.6ZM50.3,230c-.2,0-3.5,2.5-3.5,2.7,1.3,1.6,2.2,3.7,4.5,2.4s-.2-5.2-1-5.1Z"/>
  <path class="st2" d="M196.7,285.8c-1.3,0-2.5,1.1-3.8.7s-3.5-5.1-5.6-5.1c-1.7.5,1.1,5.5.9,6.4s-2.6,1.2-3.3.8-4.2-14.8-4.8-16.8c3.9-1.1,11-3.8,12.7,1.9s-1.4,5.5-1.2,6.3,5.7,5.1,5.1,5.8ZM185.3,278.4c2.8.7,6.2-2.3,3.3-4.6-.9-.7-3.6-.3-4,.2-.5.8.9,3.3.7,4.4Z"/>
  <path class="st2" d="M88.5,279.5c-.2.2-3.2-1-3.3-1.2-.5-.8.8-3.7.2-4.7s-5.7-3.1-6.3-3c-1.7.5-2.4,4.1-6.2.5,2.1-1.2,13.8-12,14.9-11.9s3.2,1.4,3.2,2.3l-2.6,17.9ZM87,264.3c-.4-.4-4.4,3.4-4.8,3.9l3.9,2.4c.5-2,1-4.2.9-6.3Z"/>
  <path class="st2" d="M44.9,214.2c.2.1,1.7,3.2,1.3,3.5-1.6,1.5-11.2,14-12.1,13.8s-1.7-2.5-1.7-2.8c0-1.1,3-2.4,2.3-4.1s-2.6-4.8-2.8-4.9c-1.4-1-3.6.6-4.6,0s-1.3-2.8-1.5-3.3c2.7.1,17.8-3,19.1-2.2ZM41.2,217.8l-6.3.7,1.9,4.1c.5.3,1.7-1.1,2-1.5s2.7-3.1,2.4-3.3Z"/>
  <path class="st2" d="M59,260.6c-.4.3-2.8-2.1-2.9-2.5-.2-1,2.2-2.9,1.1-4.8s-4.2-4.2-4.6-4.2c-2.3.2-3.3,3.5-6.2-1.2,2.6-.5,16.1-7.7,17.5-7.3s2.7,2.3,2.4,3l-7.3,16.9ZM61.9,245.1c-1,.4-6.1,2.1-5.9,3.1s2.7,2.9,3.1,2.8l2.8-5.9Z"/>
  <path class="st2" d="M35.3,208.9c.1-1.1-1-2.3-1-3.2,0-1.4,2.3-1.9,1-5.4-2.6-6.8-14.7-1.8-10.8,5.2s3.7,1.9,4.2,2.3,1,3.1,1.2,3.6c-11.3.3-13.1-15.4-1.8-17.8,6-1.3,11.4,3.4,11,9.5-.1,2.1-1.6,5.1-3.7,5.7Z"/>
  <path class="st2" d="M233.9,244.5c1.9-.2,3.8.4,5.2,1.6-.7.5-1.6,2-2.2,2.2-1.4.6-4.4-1.6-6.6,1.9-4,6.2,6.6,13.6,10.1,6.4s-.3-3,.7-4.1,2.6-2.1,3.1.3c2,10.8-14.5,14.4-17.9,3.1-1.5-5.1,2.3-10.9,7.6-11.4Z"/>
  <path class="st2" d="M252.7,219.3c.4-.1.8,0,1.1.3,1.9.8,10,6.6,10.9,8.3,2.8,5.5-3.3,12.7-9.8,9.8-1.1-.5-9.7-6.2-9.8-6.8s1.3-2.8,1.9-2.7c1.4.2,7.5,5.8,9.8,6.4,4,1.1,6.7-3.1,3.9-6.1s-9.1-5.5-9.6-6.6,1.2-2.4,1.6-2.6Z"/>
  <path class="st2" d="M94,276.5c.2-.2,2.7.6,3,.9.6.6.2,1.6.5,2.4.7,1.7,4.5,2.3,4.6-.2s-4.3-4.3-5-6.4c-1-3.2,1-6.9,4.4-7.1,4.2-.2,8.1,3.3,5.9,7.4-2.7-.6-2.2-1-3-2.9s-3.3-1.7-3.7-.2c-.9,3.3,5.7,4.1,5.1,9.5-1,8.2-14.4,4.2-11.8-3.5Z"/>
  <path class="st2" d="M141.7,279.8c-3.5.7-2.8-.7-4.1-2s-3.5-.5-3.6,1.2c-.3,2.7,6.9,2.8,7.6,7.4,1.2,8.4-13.2,8.2-12.1-.3.7.3,3,.2,3.3.4s.1,2.6,2.5,2.9,2.9-.3,2.7-2c-.2-2.5-6-3.1-7.1-5.8-3.4-8.4,11.2-10.8,10.8-1.8Z"/>
  <path class="st2" d="M149.8,286.5v6.6h-3.3s-.4-18.1-.4-18.1h7.6c1.9,0,4.4,3.1,4.6,5,.5,5.1-4,7.1-8.5,6.4ZM149.8,283.2c6.7,1.2,6.5-5.9,0-4.8v4.8Z"/>
  <path class="st2" d="M218.5,259.5l-5.9,3,2,3.3c1-.4,4.6-3,5.3-2.5s1.2,2.8,1.1,2.9c-.2.2-4.1,1.9-4.8,2.2-.2.2,1.3,3.5,1.5,3.6,1.1.7,5-2.7,6.4-2.9.2,0,1.3,2.6,1.3,2.7-.1.5-7.5,4.4-8.6,5l-8.7-15.3c.1-.5,7.9-4.9,8.3-5,.7,0,2.1,2.7,2,2.9Z"/>
  <path class="st2" d="M128,276.5c-1.1.6-6.2-1.3-6.6-1s-.7,3.1-.8,3.7c.8.2,5.3.8,5.5,1.1.3.4-.6,2.5-.3,3.3l-5.7-1.1-1,4.1c.9.4,6,.9,6.3,1.1.3.4-.3,2.6-.4,3.3l-10-1.8,3.4-17.3c.4-.3,9.2,1.3,9.6,1.6.7.5.3,2.4,0,3.1Z"/>
  <path class="st2" d="M265.8,199.7c.2.2,2.8,1,3.3.6s1.4-3.7,1.8-4.5-.1-.6.6-.4c5.3,1.5-.1,4.6,1.2,6.6s2.4,1.2,3,1.1c1.6-.2,2-5.3,2.8-5.9s2.4.7,2.9.9c0,.5-2.5,7.8-2.9,8.6s-.4.8-1,.9l-16.1-5.6,3.3-10c.1,0,2.4.8,2.6.9,1.2.9-2.2,5.7-1.4,6.8Z"/>
  <path class="st2" d="M206.7,262.9c.1.1.8,2.8.8,2.9-.2.2-4.5,1.6-5.2,1.9l5.5,13.2c.1.8-2.7,1.7-3.1,1.6-.9-.3-4.9-12.5-5.4-12.9-.9-.7-5.4,2.2-5.9,1.8l-.8-3.1c1.9-.5,13.3-6,14-5.4Z"/>
  <path class="st2" d="M64.6,265.3c-.6-.7-1.5-2.5-1.6-3.4s.9-3.6,1.1-3.8c.7-.5,2.9,1,2.9,2s-.4,1-.4,1.5c0,2.2,2,3.1,3.7,1.5,2.4-2.3,4.8-7.1,7.1-9.7,1-.6,2.4,1,3.3,1.6.2.7-8.4,11.4-9.5,11.9-2.1,1.1-5.1.1-6.7-1.6Z"/>
  <path class="st2" d="M251,251.4l-1.3-.3-12-10.5c-1.1-.7,1-2.8,1.5-3,.9-.4,9.6,8.8,10.9,9s4.1-4.9,4.8-5.1,2.4,1.4,2.4,2c0,1.1-5.8,6.2-6.3,7.9Z"/>
  <path class="st2" d="M95.1,262.5c.7.9-2,4.7-3.1,4.4s.7-4.1,1.1-4.4,1.7-.3,2,0Z"/>
  <path class="st1" d="M146.8,73.5c59.8-2.8,98.5,63.4,66.7,114.4-29.3,46.8-97.7,46.8-127,0-30.5-48.7,3.4-111.7,60.3-114.4ZM170.5,83c-13.1-3.8-26.7-3.9-39.9-.4.1,43.7-.3,87.5.2,131.2,12.9,3.7,26.9,3.6,39.7-.4v-13.7c-8.8,3.3-18.3,4.6-27.7,3.3v-47.3h27.7v-12.9h-27.7v-49.5c9.5-1.2,18.7.3,27.7,3.3v-13.7ZM125.4,84.8c-11.5,3.9-21.9,11.9-29.3,21.5-28.1,36.3-13.2,89.4,29.3,105.6v-14.4c-12.5-5.6-22.6-17.3-27.3-30.1-9.8-26.3,2.1-56.5,27.3-68.5v-14ZM213.7,124c-5.3-14.8-16.6-27.6-30.3-35.3-2.4-1.3-5.2-2.8-7.8-3.5v126.3c17.3-7,31.8-21.4,38-39.2h-13.9c-2.8,4.8-6.4,11.5-10.9,15s-.5.7-1.1.6v-79.4c.6-.2.7.3,1.1.6,1.3,1,3,3.1,4.1,4.4,2.7,3.3,4.8,6.9,6.8,10.5h13.9Z"/>
  <path class="st3" d="M70.8,57.1c-.2,27.9.3,55.9,0,83.8s.3,9.4-.4,10.2l-21.8,9.8v-91.6c6.7-3.4,13.2-7.4,19.7-11.1s1.9-.7,2.5-1Z"/>
  <path class="st1" d="M93.3,44.2v48.4c-9.3,9.3-17.1,23.6-20.3,36.4-1,4-1.3,8-2.2,12,.3-27.9-.2-55.9,0-83.8,7.4-4.3,15.1-8.6,22.5-12.9Z"/>
  <path class="st3" d="M159.4,16.9v52.8c-7.8-.9-13.7-.7-21.4.4V18.3c1.8-1,10.8-7,12-7,3,1.5,5.9,3.2,8.8,4.8s.5.6.6.7Z"/>
  <path class="st1" d="M138,18.3v51.7c-8,1.1-15.7,3.4-22.9,7V31.6c7.6-4.3,15.3-8.9,22.9-13.3Z"/>
  <path class="st1" d="M181.9,29.8v45.8c-7.1-3.2-14.8-5-22.5-5.9V16.9c7.5,4.3,15,8.6,22.5,12.9Z"/>
  <path class="st3" d="M115.1,31.6v45.4c-7.3,3.6-16,9.7-21.8,15.5v-48.4c7.2-4.1,14.6-8.4,21.8-12.6Z"/>
  <path class="st3" d="M203.7,42.3v46.9c0,0-.3.6-.7.2-3.4-3.1-7.2-6.1-11.1-8.5s-6.9-4-9.9-5.4V29.8c7.3,4.2,14.5,8.4,21.8,12.6Z"/>
  <path class="st1" d="M225.9,54.9v24.4c-6.6,3-13.4,6.5-20.1,9.3s-1.4.5-2.1.7v-46.9c7.4,4.2,14.8,8.3,22.2,12.6Z"/>
  <path class="st0" d="M225.9,79.3v-24.4c7.8,4.5,15.6,8.8,23.3,13.5-7.5,4-15.5,7.3-23.3,10.9Z"/>
  <path class="st2" d="M136.9,245.9c3.6-1,2.5,2.2,4.3,2.5,3,.5,3.7-2.3,3.8-4.7-4.7,2.3-8.6-.3-7.7-5.7s5.8-5.2,8.7-2.8c3.3,2.8,2.5,12.6-1,14.9-3.5,2.5-8.3.2-8.1-4.2ZM142.3,236.4c-3.5.2-3.1,6,.3,5.8,4-.2,3.2-6-.3-5.8Z"/>
  <path class="st2" d="M150.6,247c3.4-.7,2.1,0,3.3,1.3,2.4,2.4,5.1-2.2,4.1-4.6-8,5.7-12.1-8-4.6-9.2s7.7,5.2,7.6,10.1c-.3,7.5-8.4,9.8-10.4,2.4ZM156.7,237.5c-2.7-2.7-6.6,1.6-3.8,4.3s6.4-1.7,3.8-4.3Z"/>
  <path class="st2" d="M169.7,232.6c.3.2.4,2.2.4,2.7-.3,4.5-2.4,9.7-2.6,14.4l-3,.6,2.6-14.4c-.7-.7-8.3,3.2-7-.9s9.1-2.7,9.5-2.4Z"/>
  <path class="st2" d="M136.5,233.3l-3.4,15.6c-.2,1.1-2.8.3-2.8-.6.1-3.6,2.7-8.8,2.9-12.6,0-.5-2.5-.5-2.6-.6-.3-.3.4-2.3.4-2.9l5.5,1.1Z"/>
  <path class="st0" d="M169.7,276.6c7.3-.4,8.1,12.1.3,12.1s-7.9-11.7-.3-12.1Z"/>
  <path class="st0" d="M270.5,213.5c.9,1-.2,4.4-1,4.9s-3.2-.9-3.5-1.3c-.7-1,2-6.2,4.5-3.6Z"/>
  <path class="st0" d="M259.1,214.1c1.2-6.2,7.5-3.4,3.5,1.5l-3.5-1.5Z"/>
  <path class="st0" d="M50.3,230c.8-.1,3.3,3.7,1,5.1s-3.3-.7-4.5-2.4c0-.2,3.3-2.7,3.5-2.7Z"/>
  <path class="st0" d="M185.3,278.4c.2-1-1.3-3.6-.7-4.4s3.1-.9,4-.2c2.9,2.3-.5,5.3-3.3,4.6Z"/>
  <path class="st0" d="M87,264.3c0,2.1-.4,4.2-.9,6.3l-3.9-2.4c.4-.5,4.4-4.3,4.8-3.9Z"/>
  <path class="st0" d="M41.2,217.8c.3.2-2.1,3-2.4,3.3s-1.6,1.8-2,1.5l-1.9-4.1,6.3-.7Z"/>
  <path class="st0" d="M61.9,245.1l-2.8,5.9c-.4,0-3.1-2.5-3.1-2.8-.2-1,4.9-2.7,5.9-3.1Z"/>
  <path class="st0" d="M149.8,283.2v-4.8c6.5-1.1,6.7,6.1,0,4.8Z"/>
  <path class="st3" d="M170.5,83v13.7c-9-3-18.2-4.5-27.7-3.3v49.5h27.7v12.9h-27.7v47.3c9.4,1.2,18.9,0,27.7-3.3v13.7c-12.8,4-26.8,4.1-39.7.4-.5-43.6,0-87.5-.2-131.2,13.1-3.6,26.8-3.5,39.9.4Z"/>
  <path class="st3" d="M213.7,124h-13.9c-2.1-3.6-4.2-7.3-6.8-10.5s-2.8-3.5-4.1-4.4-.5-.7-1.1-.6v79.4c.6.2.7-.3,1.1-.6,4.5-3.4,8-10.2,10.9-15h13.9c-6.2,17.7-20.7,32.1-38,39.2v-126.3c2.5.7,5.4,2.2,7.8,3.5,13.7,7.6,25,20.5,30.3,35.3Z"/>
  <path class="st3" d="M125.4,84.8v14c-25.2,12.1-37.1,42.2-27.3,68.5,4.7,12.8,14.8,24.5,27.3,30.1v14.4c-42.6-16.3-57.5-69.3-29.3-105.6,7.4-9.5,17.9-17.6,29.3-21.5Z"/>
  <path class="st4" d="M142.3,236.4c3.5-.2,4.3,5.7.3,5.8-3.4.1-3.8-5.6-.3-5.8Z"/>
  <path class="st4" d="M156.7,237.5c2.6,2.6-1.1,6.9-3.8,4.3s1.1-7.1,3.8-4.3Z"/>
</svg>