<?xml version="1.0" encoding="utf-8"?>
<!-- Generator: Adobe Illustrator 27.0.0, SVG Export Plug-In . SVG Version: 6.00 Build 0)  -->
<svg version="1.1"
	 id="Capa_1" xmlns:inkscape="http://www.inkscape.org/namespaces/inkscape" xmlns:dc="http://purl.org/dc/elements/1.1/" xmlns:rdf="http://www.w3.org/1999/02/22-rdf-syntax-ns#" xmlns:cc="http://creativecommons.org/ns#" xmlns:sodipodi="http://sodipodi.sourceforge.net/DTD/sodipodi-0.dtd" xmlns:svg="http://www.w3.org/2000/svg" inkscape:version="0.91 r13725"
	 xmlns="http://www.w3.org/2000/svg" xmlns:xlink="http://www.w3.org/1999/xlink" x="0px" y="0px" viewBox="0 0 700 700"
	 style="enable-background:new 0 0 700 700;" xml:space="preserve">
<style type="text/css">
	.st0{fill:#E5254E;}
	.st1{fill:#FFFFFF;}
	.st2{fill:#8AC3EE;}
	.st3{fill:#B19221;}
</style>
<sodipodi:namedview  bordercolor="#666666" borderopacity="1" fit-margin-bottom="0" fit-margin-left="0" fit-margin-right="0" fit-margin-top="0" gridtolerance="10" guidetolerance="10" id="namedview133" inkscape:current-layer="Capa_1" inkscape:cx="213.94043" inkscape:cy="454.46702" inkscape:pageopacity="0" inkscape:pageshadow="2" inkscape:window-height="788" inkscape:window-maximized="1" inkscape:window-width="1440" inkscape:window-x="0" inkscape:window-y="1" inkscape:zoom="1.0450928" objecttolerance="10" pagecolor="#ffffff" showgrid="false">
	</sodipodi:namedview>
<g id="g4538">
	<g id="g4382">
		<path id="path26" inkscape:connector-curvature="0" class="st0" d="M338.5,345.6c-3.3-0.6-6.7-0.3-10.1-0.2
			c4.5,12.3,2.6,26.6-5,37.2c-6.1,8.8-15.8,14.3-26,17.3c7.5,43.5,15.1,87,22.7,130.6c9.9,56.5,19.5,113,29.6,169.5
			c0.8-3.4,1.4-6.9,2-10.4c16.8-96.3,33.6-192.6,50.3-289c-9.3-3-18.2-7.8-24.3-15.5c-7.7-9.3-10.6-22.1-8.3-33.8
			c-3.6-1.3-7.4-2.2-11.2-2.2c-2.3,0.1-4.6,0.4-6.9,0.5C346.8,348.9,343,346.3,338.5,345.6L338.5,345.6z"/>
		<path id="path5" inkscape:connector-curvature="0" class="st0" d="M349.2,145l15.8,0c0-28.4,1.1-63.6,6.6-65.9
			c6.6-2.8,13.5,1.1,8.6,10.8c-5.4,10.7-2.4,18.2,8.2,19.3c8.6,0.9,20.4-0.9,26.3-21.5c7.1-24.6-9.2-30.6-35.8-55.7
			C355.5,9.8,349.2,0,349.2,0s-6.3,9.8-29.8,32c-26.6,25.1-42.9,31.2-35.8,55.7c5.9,20.5,17.7,22.3,26.3,21.5
			c10.6-1.1,13.6-8.6,8.2-19.3c-4.9-9.7,2-13.6,8.6-10.8c5.5,2.3,6.6,37.4,6.6,65.9L349.2,145L349.2,145z"/>
		<path id="path7" inkscape:connector-curvature="0" class="st0" d="M526.6,232.7c3.7-3.1,6-7.6,8.9-10.6c3.3-3.5,7.4-6.4,12.6-6.5
			c-5.1-0.1-9.3-3-12.6-6.5c-2.8-3-5.1-7.5-8.9-10.6c-2.3-2.1-5.4-3.4-8.8-3.4c-5.6,0-10.3,3.5-12.3,8.5c-2.7,0-11.3-0.1-16.1-0.4
			c-5.8-0.4-10.1-0.4-3.2-5.5l3.3-2.5c4.5-2.8,8.2-7,10.3-12c0.3-0.7,0.6-1.4,0.8-2.1c0.4-1,0.6-2.1,0.8-3.2
			c0.3-1.7,0.5-3.4,0.5-5.2c0-14-10.8-25.5-24.4-26.2c-1.7-0.2-3.5-0.1-5.2,0.2c-0.6,0.1-1.2,0.2-1.8,0.4c-2.6,0.7-5.1,1.7-8,3.4
			l-0.7,0.5c-12.9,8.2-19,24.6-19,24.6s3.1-1.7,16.7-4.4c10.1-2,16.3,2.7,14.8,12.4c-2.4,14.6-21.6,18.2-21.6,18.2h-33.8v27.6h33.8
			c0,0,19.3,3.7,21.6,18.2c1.6,9.7-4.7,14.4-14.8,12.4c-13.6-2.7-16.7-4.4-16.7-4.4s6,16.3,19,24.6l0.7,0.5c2.9,1.7,5.4,2.7,8,3.4
			c0.6,0.2,1.2,0.3,1.8,0.4c1.8,0.3,3.5,0.4,5.2,0.2c13.6-0.7,24.4-12.2,24.4-26.2c0-1.8-0.2-3.5-0.5-5.2c-0.2-1.1-0.4-2.1-0.8-3.2
			c-0.3-0.7-0.5-1.5-0.8-2.1c-2.1-5-5.8-9.2-10.3-12l-3.3-2.5c-6.8-5.1-2.5-5.1,3.2-5.5c4.8-0.3,13.4-0.4,16.1-0.4
			c1.9,5,6.7,8.5,12.3,8.5C521.2,236.1,524.3,234.9,526.6,232.7L526.6,232.7z"/>
		<path id="path9" inkscape:connector-curvature="0" class="st0" d="M173.4,232.7c-3.7-3.1-6-7.6-8.9-10.6
			c-3.3-3.5-7.4-6.4-12.6-6.5c5.1-0.1,9.3-3,12.6-6.5c2.8-3,5.1-7.5,8.9-10.6c2.3-2.1,5.4-3.4,8.8-3.4c5.6,0,10.3,3.5,12.3,8.5
			c2.7,0,11.3-0.1,16.1-0.4c5.8-0.4,10.1-0.4,3.2-5.5l-3.3-2.5c-4.5-2.8-8.2-7-10.3-12c-0.3-0.7-0.6-1.4-0.8-2.1
			c-0.4-1-0.6-2.1-0.8-3.2c-0.3-1.7-0.5-3.4-0.5-5.2c0-14.1,10.8-25.5,24.4-26.2c1.7-0.2,3.5-0.1,5.2,0.2c0.6,0.1,1.2,0.2,1.8,0.4
			c2.6,0.7,5.1,1.7,8,3.4l0.7,0.5c12.9,8.2,19,24.6,19,24.6s-3.1-1.7-16.7-4.4c-10.1-2-16.3,2.7-14.8,12.4
			c2.4,14.6,21.6,18.2,21.6,18.2h33.8l0,27.6l-33.8,0c0,0-19.3,3.7-21.6,18.2c-1.6,9.7,4.7,14.4,14.8,12.4
			c13.6-2.7,16.7-4.4,16.7-4.4s-6,16.3-19,24.6l-0.7,0.5c-2.9,1.7-5.4,2.7-8,3.4c-0.6,0.1-1.2,0.3-1.8,0.4c-1.8,0.3-3.5,0.4-5.2,0.2
			c-13.6-0.7-24.4-12.2-24.4-26.2c0-1.8,0.2-3.5,0.5-5.2c0.2-1.1,0.4-2.1,0.8-3.2c0.3-0.7,0.5-1.5,0.8-2.1c2.1-5,5.8-9.2,10.3-12
			l3.3-2.5c6.8-5.1,2.5-5.1-3.2-5.5c-4.8-0.3-13.4-0.4-16.1-0.4c-1.9,5-6.7,8.5-12.3,8.5C178.8,236.1,175.7,234.9,173.4,232.7
			L173.4,232.7z"/>
	</g>
	<g id="g4404">
		<path id="path11" inkscape:connector-curvature="0" sodipodi:nodetypes="cccccccccc" class="st1" d="M300.2,343
			c13.3,16.3,30.1,26.8,47.6,36.2l2.1,1.1l2.1-1.1c17.3-9.3,34.6-20.1,47.7-36.2c31.6-38.9,48.1-96.5,47.5-147.4v-16.3H252.5v16.3
			C251.7,246.2,269.1,304.9,300.2,343z"/>
		<path id="path13" inkscape:connector-curvature="0" class="st2" d="M257.5,184.1c-4,52,13.5,115.9,46.1,156
			c12.7,15.6,28.9,25.8,46.2,35.1c17.2-9.2,33.8-19.7,46.3-35.1c33.3-40.9,49.5-103.3,46-156L257.5,184.1L257.5,184.1z"/>
		<path id="path15" inkscape:connector-curvature="0" class="st1" d="M410.2,217.2c-1.4,17.2-5,39.4-14.8,62.5
			c-14.5,34.3-30.7,50.5-51.2,66.9c3.6,3.6,7,7,8.6,8.7c19.5-16.1,36-34.3,51-67c16.7-36.5,18.5-66.4,18.6-83.3H282.1v12.2
			L410.2,217.2L410.2,217.2z"/>
		<path id="path17" inkscape:connector-curvature="0" class="st1" d="M282.1,231.8l110.1,0c-2,13.4-5.5,28.2-11.8,43
			c-14.5,34.1-23.6,42.3-47.5,60.3c-2.5-2.6-5.6-5.8-7.7-7.9c24.6-17.9,31.6-24.8,45-58.5c3.3-8.3,7.2-24.5,7.2-24.5h-95.3V231.8
			L282.1,231.8z"/>
	</g>
	<g id="g4477">
		<g id="g4471">
			<path id="path19" inkscape:connector-curvature="0" class="st3" d="M299,169.2c26.9-10.8,30.5-13.2,50.7-13.2
				c24.2,0,26.5,2.5,50.7,13.2c2.3-1.4,5.5-4.1,7.4-6.6c0.2-1.9-0.4-4.2-1.7-6.7c-3.9-7.4-13.2-13.9-20.9-14.5
				c-8.6-6.9-22.8-10.9-33.1-8.9c-0.8,0.2-1.6,0.4-2.4,0.6c-0.7-0.2-1.5-0.4-2.4-0.6c-10.3-2-24.5,2-33.1,8.9
				c-7.7,0.6-17,7.1-20.9,14.5c-1.3,2.5-1.8,4.8-1.7,6.7C293.5,165.1,296.7,167.8,299,169.2L299,169.2z"/>
			<path id="path21" inkscape:connector-curvature="0" class="st3" d="M349.7,114.7c-25.9-11.8-38.5-2.1-41.2,11.3
				c-31.8-7.9-28.9,40.6-9.5,48.1l2.7,5.8c16.2-3.1,27.5-4.8,47.9-4.8c14.7,0,36.4,0.9,49.2,2.6l1.3-3.5c19.6-7.3,22.5-56-9.3-48.1
				C388.2,112.5,375.6,102.9,349.7,114.7z M398.2,161.8c-12.7,0.6-11.9-8.4-10.4-15.7c1-5.1,3.6-7,3.6-15c8.2-6.9,17.5,6.1,18.3,15
				C411,161.8,399.1,161.7,398.2,161.8z M353.6,117.8c42.7-19.5,34,44.4,3.8,29.2c-1.8-0.9-1.7-2.8-1.4-4.6
				C357.4,135,356.3,124.9,353.6,117.8L353.6,117.8z M345.8,117.8c-2.7,7.1-3.7,17.1-2.4,24.6c0.3,1.8,0.4,3.7-1.4,4.6
				C311.8,162.2,303.1,98.3,345.8,117.8z M301.2,161.8c-0.8,0-12.7,0.1-11.4-15.8c0.7-8.9,10.1-21.8,18.3-15c0,8,2.5,9.9,3.6,15
				C313.1,153.3,313.9,162.4,301.2,161.8z M349.7,114.7l0.1,0.1L349.7,114.7z"/>
			<path id="path23" inkscape:connector-curvature="0" class="st3" d="M298,175.9l7.2,12.1c-0.2,0.2-0.2,0.4-0.2,0.6v0.3
				c0,0.3,0.2,0.5,0.4,0.8c0.2,0.3,0.4,0.4,0.7,0.4l0.3,0c0.3,0,0.8-0.2,1.1-0.4c2.5-1.2,4.9-2.4,7.4-3.4c3.5-1.3,6.8-2.5,9.9-3.3
				c3.6-1,6.9-1.7,10-2.1c3.7-0.5,6.9-0.8,9.8-0.8c1.9-0.1,3.6-0.1,5,0c1.4-0.1,3-0.1,4.9,0c2.9,0,6.2,0.3,9.9,0.8
				c3.1,0.4,6.4,1.1,10,2.1c3.1,0.8,6.4,1.9,9.9,3.4c2.4,1,4.9,2,7.4,3.3c0.4,0.3,0.8,0.4,1.1,0.4h0.2c0.3,0,0.6-0.2,0.8-0.4
				c0.6-0.6,0.6-1.3,0.2-1.7l7.2-12.1C373.6,156.6,325.4,156.6,298,175.9L298,175.9z"/>
			<path id="path25" inkscape:connector-curvature="0" class="st3" d="M353.7,96.7C353.7,96.6,353.7,96.6,353.7,96.7l-7.7-0.1
				l1.3,4.6l-3.8-1.3v7.9l3.8-1.3l-1.3,6.2l7.7,0l-1.3-6.2l3.8,1.3v-7.9l-3.8,1.3L353.7,96.7L353.7,96.7z"/>
		</g>
		<g id="g4262">
			<path id="path27" inkscape:connector-curvature="0" class="st1" d="M335.2,150.8c0.6-0.6,1-1.5,1-2.4c0-1-0.3-1.8-1-2.5
				c-0.3-0.3-0.5-0.5-0.9-0.8c-0.3-0.1-0.6-0.3-1-0.4c-0.3-0.1-0.5-0.1-0.9-0.1c-0.3,0-0.6,0-1,0.1c-0.3,0.1-0.6,0.2-0.9,0.4
				c-0.3,0.3-0.7,0.5-1,0.8c-0.5,0.6-0.8,1.3-0.9,2.2v0.3l0,0.3c0.1,0.9,0.3,1.6,0.9,2.2c0.3,0.3,0.6,0.5,1,0.7
				c0.3,0.2,0.6,0.4,0.9,0.4c0.2,0.1,0.3,0.1,0.5,0.2c-0.4,4.8-6.7,9-12.1,6.3c-1.1-0.5-2.1-1.4-3.1-2.6c0.4-0.4,0.7-0.9,0.8-1.4
				l0.4,0.1c0.2,0.1,0.3,0.1,0.5,0.2l0.5,0.3c0.3,0.1,0.7,0.3,1.1,0.5c0.1,0,0.2,0.1,0.3,0.2c0.3,0.2,0.5,0.4,0.8,0.5
				c0.3,0.2,0.6,0.3,1,0.6c0.2,0.1,0.3,0.2,0.4,0.3c0.2,0.1,0.3,0.4,0.7,0.5c0.2,0.1,0.4,0.2,0.6,0.3c0.3,0,0.3,0,0.4-0.1
				c0.8-0.2,1.3-1.1,1-1.9c-0.3-0.6-0.3-0.9-0.7-1.4c-0.2-0.1-0.3-0.3-0.3-0.4c-0.1-0.2,0-0.3,0-0.4c0-0.4,0.2-0.6,0.3-0.9
				c0.3-1.3,0-2.1-0.3-2.7c-0.2-0.4-0.3-0.6-0.4-0.8c-0.3-0.4-0.4-0.5-0.6-0.7c-0.4-0.4-0.8-0.5-1.1-0.7c-0.3-0.1-0.4-0.3-0.4-0.5
				c0-1.6-0.3-2-0.6-2.3c-0.1-0.1-0.2-0.1-0.3-0.2s-0.4-0.1-0.8,0.1c-0.4,0.2-1,0.7-1,1.9c0,0.2,0,0.4-0.1,0.6
				c0,0.9-0.2,1.6-0.4,2.2c-0.2,0.3-0.3,0.5-0.6,0.9c-0.3,0.4-0.6,0.9-0.8,1.4c-0.5-0.7-1.4-1.2-2.3-1.2l0.3-0.4
				c1-0.8,1.4-1.4,1.7-2.3c0.3-0.9,0.5-1.2,0.8-2.2c0.1-0.2,0.6-0.8,0.8-1.2c0.2-0.4,0-1.1-0.3-1.2c-0.4-0.2-1-0.3-1.8,0.3
				c-0.5,0.4-0.3,0.4-0.9,1c-0.4,0.5-0.9,0.1-1.2-0.1c-0.4-0.2-1-0.3-1.6-0.3c-0.7-0.1-0.9,0.1-0.9,0.1s-1,0.2-1.5,0.7
				c-0.4,0.5-0.4,0.9-0.6,1.3c-0.2,0.4-0.3,1.2-1,1.1c-0.7-0.1-0.7-0.1-1.3,0c-1,0.3-1.6,0.6-1.8,1.1c-0.2,0.3,0.3,1,0.7,1.2
				c0.3,0.2,0.3,0.2,1.4,0.1c1-0.1,1.2,0.4,2.1,0.7c0.8,0.4,1.6,1,2.9,0.7l0.4-0.1c-0.7,0.5-1.2,1.4-1.2,2.4c-1-0.2-1.3-0.5-2.2-1.1
				c-0.8-0.5-1.2-1.3-2.2-1.7c-0.3-0.1-1-0.3-1.5-0.3c-1,0-1.4,1-1,1.9c0.3,0.5,0.3,0.4,1,0.8c0.5,0.5,0.2,1.2,0.1,1.7
				c-0.3,2,0.3,2.7,0.8,3.3c0.9,1.2,2.1,1.6,2,2.3c-0.3,1.8,0.6,2.7,1,2.9c0.3,0.1,1.6-0.1,1.6-2.2c0-1,0-2.3,0.3-3.2
				c0.3-0.9,0.9-0.9,1-2.1c0.5,0.4,1.1,0.6,1.8,0.6c0.2,6.2-5,8.9-9.8,8.1c-1.2-0.2-2.4-0.6-3.5-1.3c0.3-0.5,0.5-1,0.5-1.6
				c0-1.5-1.2-2.7-2.8-2.7c-1.5,0-2.7,1.2-2.7,2.7c0,1.5,1.2,2.7,2.7,2.7c0.2,0,0.5,0,0.7-0.1c0.7,5.4-3.7,9.2-8.7,6.1
				c0.3-0.4,0.5-0.8,0.5-1.3c0.8,0.3,3.2,1.1,3.7,1.1c0.7,0,0.9-0.5,0.9-0.9c0-0.4-0.3-0.7-0.7-1.1c-0.3-0.4-0.2-1.6-0.5-2.4
				c-0.3-0.7-0.5-0.7-1.2-1.1c-0.7-0.4-0.7-0.2-1-0.5c-0.3-0.2-0.5-0.7-0.5-1.1c0-0.4-0.3-0.5-0.3-0.5s-0.5-0.2-0.9,0.2
				c-0.3,0.4-0.3,0.9-0.3,1.2c0,0.6-0.1,2.1-0.1,2.9c-0.3-0.2-0.7-0.3-1.1-0.3l-0.2,0c-0.1-0.7-0.3-2.1-0.3-2.8
				c0-1.1,0.2-0.9-0.2-1.2c-0.3-0.4-0.9-0.2-1.2,0.2c-0.3,0.4-1.2,1.9-1.9,1.9c-1,0-0.9-0.2-1.6,0.2c-0.7,0.4-2.1,1.9-2.1,2.6
				c0,0.7,0,0.4,0.3,0.7c0.3,0.4,2.1-0.2,3.5,0.2c0.6,0.1,1.1,0.3,1.5,0.3c0,0.2,0.7,0.6,1.5,1.2c0.9,0.7,1.1,1.1,1.1,1.1
				c0.1,0,0.2,0,0.3-0.1c1.2,1.5,3.1,2.6,5.3,2.7l0.8,0c1-0.1,2-0.3,3-0.7c3-1.2,2.5-6.2,2.5-7c0.7,0.7,1.8,1.2,3,1.4
				c2.1,0.4,4.6,0.3,7-0.6c3.8-1.5,4.5-6.8,4.5-8.2c0.2,0.5,1.5,1.7,3.3,2.6c2,1,4.7,1.7,7,1c3.8-1.1,5-3.7,6.8-6.2
				c0.3,0.4,0.6,0.8,1.1,1.2c1.6,1.3,4.4,2.9,7.3,2.7c4-0.4,6.8-4.4,7.5-5.5c0.7,1.1,3.5,5.1,7.4,5.5c2.9,0.3,5.7-1.3,7.4-2.7
				c0.5-0.4,0.9-0.8,1.1-1.2c1.7,2.5,2.9,5.1,6.8,6.2c2.3,0.7,4.9,0,6.9-1c1.8-0.9,3.1-2,3.3-2.6c0,1.4,0.7,6.7,4.5,8.2
				c2.4,0.9,4.9,1.1,7,0.6c1.2-0.3,2.3-0.7,3.1-1.4c0,0.8-0.5,5.8,2.4,7c1,0.4,2.1,0.6,3,0.7h0.8c2.3-0.2,4.2-1.3,5.3-2.7
				c0.1,0,0.2,0.1,0.3,0.1c0,0,0.3-0.4,1.1-1.1c0.8-0.6,1.5-1.1,1.5-1.1c0.4-0.3,0.9-0.4,1.5-0.5c1.4-0.4,3.1,0.2,3.5-0.2
				c0.3-0.4,0.3,0,0.3-0.7c0-0.7-1.4-2.2-2.1-2.6c-0.7-0.4-0.5-0.2-1.6-0.2c-0.7,0-1.6-1.6-1.9-1.9c-0.3-0.4-0.9-0.5-1.2-0.2
				c-0.3,0.4-0.2,0.2-0.2,1.2c0,0.8-0.2,2.1-0.3,2.8l-0.2,0c-0.4,0-0.8,0.1-1.1,0.3c0-0.8-0.1-2.4-0.1-2.9c0-0.4,0-0.9-0.3-1.2
				c-0.3-0.4-0.9-0.2-0.9-0.2s-0.3,0.2-0.3,0.5c0,0.4-0.3,0.9-0.5,1.1c-0.3,0.4-0.3,0.2-1,0.5c-0.7,0.4-0.9,0.4-1.2,1.1
				c-0.3,0.8-0.2,2-0.5,2.4c-0.3,0.4-0.7,0.7-0.7,1.1c0,0.4,0.2,0.9,0.9,0.9c0.6,0,2.9-0.9,3.7-1.1c0,0.5,0.2,0.9,0.5,1.3
				c-5,3.1-9.3-0.7-8.7-6.1c0.2,0.1,0.5,0.1,0.7,0.1c1.5,0,2.7-1.2,2.7-2.7c0-1.5-1.2-2.7-2.7-2.7c-1.5,0-2.7,1.2-2.7,2.7
				c0,0.6,0.2,1.2,0.5,1.6c-1.1,0.7-2.3,1.1-3.6,1.3c-4.8,0.8-9.9-1.9-9.9-8.1c0.8,0,1.5-0.3,2-0.7c0,1.4,0.5,1.4,0.9,2.3
				c0.3,0.9,0.3,2.2,0.3,3.2c0,2.1,1.4,2.3,1.6,2.2c0.4-0.2,1.3-1.2,1-2.9c-0.1-0.7,1.1-1.1,2-2.3c0.4-0.6,1-1.2,0.8-3.3
				c-0.1-0.4-0.4-1.2,0.1-1.7c0.6-0.4,0.6-0.3,1-0.8c0.5-0.9,0.1-1.9-1-1.9c-0.4,0-1.2,0.2-1.4,0.3c-1,0.4-1.5,1.2-2.3,1.7
				c-0.9,0.5-1.2,0.9-2,1.2c-0.2-1.1-0.6-1.9-1.4-2.4l0.4,0.1c1.3,0.3,2.2-0.4,3-0.7c0.8-0.4,1-0.8,2-0.7c1,0.1,1,0.1,1.5-0.1
				c0.3-0.3,0.8-1,0.6-1.2c-0.2-0.4-0.8-0.8-1.7-1.1c-0.7-0.1-0.7-0.1-1.4,0c-0.8,0-0.9-0.7-1-1.2c-0.2-0.4-0.2-0.8-0.6-1.3
				c-0.5-0.5-1.5-0.7-1.5-0.7s-0.2-0.2-0.9-0.1c-0.6,0-1.1,0.1-1.5,0.3c-0.4,0.2-0.8,0.6-1.3,0.1c-0.4-0.6-0.3-0.6-0.9-1
				c-0.8-0.5-1.4-0.4-1.8-0.3c-0.3,0.2-0.4,0.8-0.3,1.2c0.2,0.4,0.7,1.1,0.8,1.2c0.3,1.1,0.4,1.3,0.8,2.2c0.3,0.9,0.7,1.5,1.7,2.3
				l0.5,0.4c-1.1,0-2,0.5-2.5,1.2c-0.4-0.9-1.1-1.7-1.3-2.3c-0.4-0.9-0.5-1.8-0.6-2.8c-0.2-2.1-1.5-2.2-1.8-2
				c-0.3,0.2-0.9,0.5-0.9,2.5c0,0.7-1.3,0.6-2.1,2c-0.4,0.6-1.2,1.5-0.7,3.5c0.1,0.4,0.5,1.2,0,1.8c-0.5,0.5-0.4,0.8-0.7,1.4
				c-0.5,0.9,0.3,2,1.3,1.9c0.5-0.1,1-0.6,1.3-0.8c1.2-0.8,1.5-0.9,2.3-1.4c0.8-0.6,1.1-0.6,1.9-1c0.4-0.1,0.6-0.2,0.9-0.3
				c0.1,0.5,0.4,1,0.8,1.4c-1,1.2-2.1,2-3.1,2.5c-5.4,2.7-11.6-1.5-12.1-6.3c1.8-0.2,3.2-1.8,3.2-3.7c0-2-1.6-3.7-3.6-3.7
				c-2,0-3.6,1.7-3.6,3.7c0,1.5,0.9,2.8,2.2,3.4c-0.2,0.5-0.5,0.9-0.9,1.3c-1.6,2.1-4.2,3.5-8.2,2.9c-4-0.6-5.4-4.3-5.8-5.6
				c1.2-0.3,2.2-1.2,2.7-2.3c0.1,0.6,0.3,1.4,0.8,2.1c0.5,0.6,1.2,1.8,1.6,2.5c0.3,0.7,0.7,1.4,1,1.8c0.3,0.4,0.7,0.4,1,0.4
				c0.3,0,1-0.7,1-1.4c0-0.7,0.2-2.2,0.3-2.5c0.3-0.7,1.9-1.2,1.9-3.4c0-2.1-1.2-2.5-1.6-3.2c-0.2-0.4,0.3-2.2,0.3-2.9
				c0-0.7-0.5-1.4-0.9-1.4c-0.7,0-1.7,0.6-1.9,1.1c-0.3,0.7-0.8,1.2-1.4,1.6c-1,0.8-1.2,1.1-1.7,1.7c-0.3,0.3-0.4,0.7-0.5,1.1
				c-0.4-1.3-1.4-2.3-2.7-2.7l0.5-0.1c1.4-0.4,2.1-1.1,2.8-1.8c0.7-0.7,0.7-1.2,1.7-1.6c1-0.4,1-0.4,1.4-0.7c0.3-0.4,0.3-1.2,0-1.4
				c-0.3-0.4-1-0.7-2.1-0.5c-0.7,0.2-0.7,0.2-1.4,0.5c-0.7,0.4-0.9,0.2-1.2-0.2c-0.3-0.4-0.8-1.2-1.4-1.6c-0.7-0.4-1.2-0.4-1.2-0.4
				s-0.5,0-1.2,0.4c-0.7,0.4-1.1,1.2-1.4,1.6c-0.4,0.4-0.6,0.5-1.3,0.2c-0.7-0.4-0.7-0.4-1.4-0.5c-1-0.2-1.7,0.2-2.1,0.5
				c-0.3,0.3-0.3,1.1,0,1.4c0.3,0.4,0.3,0.4,1.4,0.7c1,0.4,1,0.9,1.7,1.6c0.7,0.7,1.4,1.4,2.9,1.8l0.5,0.1c-1.3,0.3-2.4,1.3-2.8,2.6
				c-0.1-0.4-0.3-0.7-0.5-1c-0.1-0.2-0.2-0.3-0.3-0.4c-0.3-0.3-0.5-0.5-1-0.9c-0.2-0.2-0.3-0.3-0.5-0.4c-0.2-0.1-0.3-0.2-0.4-0.4
				c-0.4-0.3-0.7-0.7-1-1.2c-0.3-0.4-0.6-0.6-1-0.8c-0.3-0.2-0.6-0.3-0.9-0.3c-0.4,0.2-0.9,0.8-0.9,1.4c0,0.7,0.5,2.6,0.3,2.9
				c-0.1,0.2-0.3,0.4-0.5,0.6c-0.4,0.4-0.9,1.1-1,2.3v0.5c0.1,1.1,0.5,1.7,1,2.1c0.3,0.4,0.7,0.6,0.9,1c0.2,0.7,0.3,1.9,0.3,2.5
				c0,0.5,0.3,1.1,0.7,1.2c0.1,0.1,0.3,0.2,0.3,0.2c0.3,0,0.5,0,0.6-0.1c0.2,0,0.3-0.1,0.4-0.3c0.2-0.2,0.4-0.4,0.6-0.8
				c0.2-0.3,0.3-0.6,0.4-1c0.2-0.3,0.3-0.6,0.5-0.9c0.3-0.5,0.7-1.1,1-1.5c0.6-0.7,0.8-1.6,0.9-2.1c0.5,1.2,1.5,2.1,2.8,2.3
				c-0.4,1.3-1.8,5-5.9,5.6c-3.8,0.6-6.5-0.8-8.1-2.9c-0.3-0.4-0.6-0.9-0.9-1.3c0.1,0,0.2-0.1,0.3-0.2
				C334.6,151.4,334.9,151.1,335.2,150.8L335.2,150.8z"/>
			<path id="path29" inkscape:connector-curvature="0" class="st1" d="M349.6,172.9L349.6,172.9z"/>
			<path id="path31" inkscape:connector-curvature="0" class="st1" d="M392,141.7c0-2.6-2-4.7-4.5-4.7c-2.5,0-4.5,2.1-4.5,4.7
				c0,2.5,2,4.6,4.5,4.6C390,146.3,392,144.1,392,141.7L392,141.7z"/>
			<path id="path33" inkscape:connector-curvature="0" class="st1" d="M390,116.2c0-2.4-2-4.4-4.4-4.4c-2.4,0-4.3,2-4.3,4.4
				c0,2.5,1.9,4.5,4.3,4.5C388,120.7,390,118.7,390,116.2z"/>
			<path id="path35" inkscape:connector-curvature="0" class="st1" d="M382.9,111.4c0-1.9-1.6-3.5-3.4-3.5c-1.9,0-3.4,1.6-3.4,3.5
				c0,1.9,1.5,3.4,3.4,3.4C381.3,114.9,382.9,113.3,382.9,111.4z"/>
			<path id="path37" inkscape:connector-curvature="0" class="st1" d="M376.5,109.5c0-1.8-1.5-3.3-3.2-3.3c-1.8,0-3.3,1.5-3.3,3.3
				c0,1.9,1.5,3.3,3.3,3.3C375,112.7,376.5,111.3,376.5,109.5z"/>
			<path id="path39" inkscape:connector-curvature="0" class="st1" d="M369.8,109.3c0-1.5-1.2-2.7-2.7-2.7c-1.5,0-2.7,1.2-2.7,2.7
				c0,1.5,1.2,2.7,2.7,2.7C368.6,112,369.8,110.8,369.8,109.3z"/>
			<path id="path41" inkscape:connector-curvature="0" class="st1" d="M364.4,109.8c0-1.5-1.2-2.7-2.7-2.7c-1.5,0-2.7,1.2-2.7,2.7
				c0,1.5,1.2,2.7,2.7,2.7C363.2,112.6,364.4,111.3,364.4,109.8z"/>
			<path id="path43" inkscape:connector-curvature="0" class="st1" d="M359.2,111.2c0-1.1-0.9-2-2-2c-1.1,0-2,0.9-2,2
				c0,1.1,0.9,2.1,2,2.1C358.4,113.3,359.2,112.4,359.2,111.2z"/>
			<path id="path45" inkscape:connector-curvature="0" class="st1" d="M355.4,112.8c0-0.9-0.8-1.7-1.6-1.7c-1,0-1.7,0.8-1.7,1.7
				c0,1,0.8,1.8,1.7,1.8C354.6,114.6,355.4,113.8,355.4,112.8z"/>
			<path id="path47" inkscape:connector-curvature="0" class="st1" d="M352.3,114.6c0-1.5-1.2-2.7-2.7-2.7c-1.6,0-2.7,1.2-2.7,2.7
				c0,1.6,1.1,2.7,2.7,2.7C351.1,117.3,352.3,116.2,352.3,114.6z"/>
			<path id="path49" inkscape:connector-curvature="0" class="st1" d="M352.7,120.5c0-1.8-1.4-3.2-3.1-3.2c-1.7,0-3.2,1.4-3.2,3.2
				c0,1.8,1.5,3.2,3.2,3.2C351.4,123.7,352.7,122.3,352.7,120.5z"/>
			<path id="path51" inkscape:connector-curvature="0" class="st1" d="M353.4,127.5c0-2.1-1.7-3.9-3.8-3.9c-2.2,0-3.9,1.8-3.9,3.9
				c0,2.2,1.7,3.9,3.9,3.9C351.7,131.4,353.4,129.7,353.4,127.5L353.4,127.5z"/>
			<path id="path53" inkscape:connector-curvature="0" class="st1" d="M354.5,136.3c0-2.7-2.2-5-4.9-5c-2.7,0-4.9,2.2-4.9,5
				c0,2.7,2.3,5,4.9,5C352.3,141.2,354.5,139,354.5,136.3z"/>
			<path id="path55" inkscape:connector-curvature="0" class="st1" d="M414.5,163.4c0-2.2-1.8-4.1-4.1-4.1c-2.3,0-4,1.9-4,4.1
				c0,2.3,1.7,4.2,4,4.2C412.7,167.6,414.5,165.7,414.5,163.4z"/>
			<path id="path57" inkscape:connector-curvature="0" class="st1" d="M418.7,155.8c0-2.6-2.1-4.6-4.6-4.6c-2.4,0-4.5,2-4.5,4.6
				c0,2.6,2.1,4.6,4.5,4.6C416.6,160.4,418.7,158.4,418.7,155.8L418.7,155.8z"/>
			<path id="path59" inkscape:connector-curvature="0" class="st1" d="M420.1,147.5c0-2.4-1.9-4.3-4.2-4.2c-2.3,0-4.2,1.9-4.2,4.2
				c0,2.3,1.9,4.2,4.2,4.2C418.1,151.8,420.1,149.8,420.1,147.5L420.1,147.5z"/>
			<path id="path61" inkscape:connector-curvature="0" class="st1" d="M418.4,139.5c0-2.1-1.6-3.9-3.8-3.9c-2.1,0-3.8,1.8-3.8,3.9
				c0,2.2,1.7,4,3.8,4C416.8,143.4,418.4,141.7,418.4,139.5z"/>
			<path id="path63" inkscape:connector-curvature="0" class="st1" d="M415.1,133.1c0-1.9-1.6-3.5-3.5-3.5c-1.9,0-3.5,1.6-3.5,3.5
				c0,1.9,1.6,3.5,3.5,3.5C413.6,136.6,415.1,135,415.1,133.1z"/>
			<path id="path65" inkscape:connector-curvature="0" class="st1" d="M410.2,128.3c0-1.7-1.4-3.1-3-3.1c-1.6,0-3,1.4-3,3.1
				c0,1.7,1.4,3.1,3,3.1C408.8,131.4,410.2,130,410.2,128.3z"/>
			<path id="path67" inkscape:connector-curvature="0" class="st1" d="M404.6,125.7c0-1.5-1.2-2.7-2.7-2.7c-1.5,0-2.7,1.2-2.7,2.7
				c0,1.5,1.2,2.7,2.7,2.7C403.4,128.4,404.6,127.2,404.6,125.7z"/>
			<path id="path69" inkscape:connector-curvature="0" class="st1" d="M399.3,124.6c0-1.3-1-2.4-2.3-2.4c-1.3,0-2.4,1.1-2.4,2.4
				c0,1.3,1.1,2.4,2.4,2.4C398.2,127,399.3,125.9,399.3,124.6z"/>
			<path id="path71" inkscape:connector-curvature="0" class="st1" d="M316.3,141.7c0-2.6-2-4.7-4.5-4.7c-2.5,0-4.5,2.1-4.5,4.7
				c0,2.5,2,4.6,4.5,4.6C314.3,146.3,316.3,144.1,316.3,141.7z"/>
			<path id="path73" inkscape:connector-curvature="0" class="st1" d="M318.1,116.2c0-2.4-2-4.4-4.4-4.4c-2.4,0-4.3,2-4.3,4.4
				c0,2.5,1.9,4.5,4.3,4.5C316.1,120.7,318.1,118.7,318.1,116.2z"/>
			<path id="path75" inkscape:connector-curvature="0" class="st1" d="M323.1,111.4c0-1.9-1.5-3.5-3.4-3.5c-1.8,0-3.4,1.6-3.4,3.5
				c0,1.9,1.6,3.5,3.4,3.5C321.6,114.9,323.1,113.3,323.1,111.4z"/>
			<path id="path77" inkscape:connector-curvature="0" class="st1" d="M329.3,109.5c0-1.8-1.5-3.3-3.2-3.3c-1.8,0-3.3,1.5-3.3,3.3
				c0,1.9,1.5,3.3,3.3,3.3C327.8,112.7,329.3,111.3,329.3,109.5z"/>
			<path id="path79" inkscape:connector-curvature="0" class="st1" d="M334.8,109.3c0-1.5-1.2-2.7-2.7-2.7c-1.5,0-2.7,1.2-2.7,2.7
				c0,1.5,1.2,2.7,2.7,2.7C333.6,112,334.8,110.8,334.8,109.3z"/>
			<path id="path81" inkscape:connector-curvature="0" class="st1" d="M340.1,109.8c0-1.5-1.1-2.7-2.6-2.7c-1.5,0-2.7,1.2-2.7,2.7
				c0,1.5,1.2,2.7,2.7,2.7C339,112.6,340.1,111.3,340.1,109.8z"/>
			<path id="path83" inkscape:connector-curvature="0" class="st1" d="M344,111.2c0-1.2-1-2-2.1-2c-1.1,0-2,0.9-2,2
				c0,1.2,0.9,2.1,2,2.1C343,113.3,344,112.4,344,111.2z"/>
			<path id="path85" inkscape:connector-curvature="0" class="st1" d="M347.1,112.8c0-0.9-0.8-1.7-1.7-1.7c-0.9,0-1.6,0.8-1.6,1.7
				c0,1,0.8,1.8,1.6,1.8C346.3,114.6,347.1,113.8,347.1,112.8z"/>
			<path id="path87" inkscape:connector-curvature="0" class="st1" d="M289.7,155.8c0-2.6-2-4.6-4.5-4.6c-2.5,0-4.5,2-4.5,4.6
				c0,2.6,2,4.6,4.5,4.6C287.7,160.4,289.7,158.4,289.7,155.8z"/>
			<path id="path89" inkscape:connector-curvature="0" class="st1" d="M287.4,147.5c0-2.3-1.8-4.2-4-4.2c-2.3,0-4.1,1.9-4.1,4.2
				c0,2.2,1.8,4.1,4.1,4.1C285.6,151.6,287.4,149.7,287.4,147.5z"/>
			<path id="path91" inkscape:connector-curvature="0" class="st1" d="M288.4,139.5c0-2-1.7-3.7-3.7-3.7c-2.1,0-3.7,1.7-3.7,3.7
				c0,2.1,1.6,3.8,3.7,3.8C286.6,143.3,288.4,141.6,288.4,139.5L288.4,139.5z"/>
			<path id="path93" inkscape:connector-curvature="0" class="st1" d="M291,133.1c0-1.9-1.6-3.5-3.4-3.5c-1.8,0-3.4,1.6-3.4,3.5
				c0,1.9,1.6,3.4,3.4,3.4C289.4,136.5,291,135,291,133.1L291,133.1z"/>
			<path id="path95" inkscape:connector-curvature="0" class="st1" d="M295.1,128.3c0-1.7-1.4-3.1-3-3.1c-1.6,0-3,1.4-3,3.1
				c0,1.7,1.4,3.1,3,3.1C293.7,131.4,295.1,130,295.1,128.3z"/>
			<path id="path97" inkscape:connector-curvature="0" class="st1" d="M300,125.7c0-1.5-1.1-2.7-2.7-2.7c-1.5,0-2.7,1.2-2.7,2.7
				c0,1.5,1.2,2.7,2.7,2.7C298.9,128.4,300,127.2,300,125.7L300,125.7z"/>
			<path id="path99" inkscape:connector-curvature="0" class="st1" d="M304.7,124.6c0-1.3-1-2.4-2.3-2.4c-1.3,0-2.4,1.1-2.4,2.4
				c0,1.3,1.1,2.4,2.4,2.4C303.7,127,304.7,125.9,304.7,124.6z"/>
			<path id="path101" inkscape:connector-curvature="0" class="st1" d="M394.7,123.5c0-2.6-2.1-4.6-4.6-4.6c-2.5,0-4.5,2-4.5,4.6
				c0,2.6,2,4.6,4.5,4.6C392.6,128.1,394.7,126.1,394.7,123.5z"/>
			<path id="path103" inkscape:connector-curvature="0" class="st1" d="M394.7,123.5c0-2.6-2.1-4.6-4.6-4.6c-2.5,0-4.5,2-4.5,4.6
				c0,2.6,2,4.6,4.5,4.6C392.6,128.1,394.7,126.1,394.7,123.5z"/>
			<path id="path105" inkscape:connector-curvature="0" class="st1" d="M396.4,132.9c0-2.9-2.3-5.3-5.3-5.3c-2.9,0-5.2,2.4-5.2,5.3
				c0,2.9,2.3,5.3,5.2,5.3C394.1,138.2,396.4,135.8,396.4,132.9z"/>
			<path id="path107" inkscape:connector-curvature="0" class="st1" d="M313.5,123.5c0-2.5-1.9-4.5-4.3-4.5c-2.4,0-4.4,2-4.4,4.5
				c0,2.5,2,4.4,4.4,4.4C311.6,127.9,313.5,126,313.5,123.5z"/>
			<path id="path109" inkscape:connector-curvature="0" class="st1" d="M313.3,133.1c0-2.9-2.3-5.3-5.2-5.3c-2.9,0-5.2,2.4-5.2,5.3
				c0,2.9,2.3,5.3,5.2,5.3C311,138.4,313.3,136,313.3,133.1z"/>
			<path id="path111" inkscape:connector-curvature="0" class="st1" d="M349.9,176.3l10.4-6.5l-10.4-6.6l-10.4,6.6
				C342.9,171.9,346.5,174,349.9,176.3z"/>
			<path id="path113" inkscape:connector-curvature="0" class="st1" d="M349.9,164.9c-2.6,1.6-5,3.4-7.6,4.8l7.6,4.9l7.5-4.9
				L349.9,164.9L349.9,164.9z"/>
			<polygon id="polygon115" class="st1" points="331.2,167.4 333.7,175.7 317.4,181.5 314.8,173.1 			"/>
			<polygon id="polygon117" class="st1" points="330.4,169.2 332.1,174.7 318.1,179.6 316.4,174.1 			"/>
			<polygon id="polygon119" class="st1" points="299.5,183.6 304.2,185.8 308,178.6 299.3,178.1 			"/>
			<path id="path121" inkscape:connector-curvature="0" class="st1" d="M298.7,178.5l9.2,0.2l-4.4,7.2c-0.4,0.7,0.6,1.5,0.9,1.2
				l4.7-9.3c-0.1,0-1.1-0.2-10.8-0.8C297.9,177,297.9,178.5,298.7,178.5L298.7,178.5z"/>
			<polygon id="polygon123" class="st1" points="368.5,167.4 366,175.7 382.3,181.5 384.9,173.1 			"/>
			<polygon id="polygon125" class="st1" points="369.3,169.2 367.6,174.7 381.6,179.6 383.3,174.1 			"/>
			<polygon id="polygon127" class="st1" points="399.4,183.6 394.7,185.8 390.9,178.6 399.7,178.1 			"/>
			<path id="path129" inkscape:connector-curvature="0" class="st1" d="M400.3,178.5l-9.2,0.2l4.4,7.2c0.4,0.7-0.6,1.5-0.9,1.2
				l-4.7-9.3c0.1,0,1.1-0.2,10.8-0.8C401.1,177,401.1,178.5,400.3,178.5z"/>
			<path id="path131" inkscape:connector-curvature="0" class="st1" d="M292.7,163.4c0-2.2-1.8-4.1-4.1-4.1c-2.3,0-4.1,1.9-4.1,4.1
				c0,2.3,1.8,4.2,4.1,4.2C290.9,167.6,292.7,165.7,292.7,163.4z"/>
		</g>
	</g>
</g>
</svg>
