<?xml version="1.0" encoding="utf-8"?>
<!-- Generator: Adobe Illustrator 28.3.0, SVG Export Plug-In . SVG Version: 6.00 Build 0)  -->
<svg version="1.1"
	 id="Layer_1" xmlns:dc="http://purl.org/dc/elements/1.1/" xmlns:cc="http://creativecommons.org/ns#" xmlns:rdf="http://www.w3.org/1999/02/22-rdf-syntax-ns#"
	 xmlns="http://www.w3.org/2000/svg" xmlns:xlink="http://www.w3.org/1999/xlink" x="0px" y="0px" viewBox="0 0 300 300"
	 style="enable-background:new 0 0 300 300;" xml:space="preserve">
<style type="text/css">
	.st0{fill:#070809;}
	.st1{fill:#252D4B;}
	.st2{fill:#AB2A30;}
	.st3{fill:#581A16;}
	.st4{fill:#C9CACB;}
	.st5{fill:#FFFFFF;}
	.st6{clip-path:url(#SVGID_00000089532033833345037480000002867881364226324107_);fill:#3F6CB1;}
	.st7{clip-path:url(#SVGID_00000093858614572489360230000014260196925189449383_);fill:#3F6CB1;}
	.st8{clip-path:url(#SVGID_00000052819759371079272910000018098627401726726577_);fill:#3F6CB1;}
	.st9{clip-path:url(#SVGID_00000050637881302797844920000002332658718815550340_);fill:#97C1E9;}
	.st10{clip-path:url(#SVGID_00000056400399587604694970000013766816885770758016_);fill:#97C1E9;}
	.st11{clip-path:url(#SVGID_00000026880593623394276230000013331723974966228137_);fill:#97C1E9;}
	.st12{clip-path:url(#SVGID_00000004546020631368384640000002969585965258218383_);fill:#97C1E9;}
	.st13{clip-path:url(#SVGID_00000071537814608274920710000004915072041984526229_);fill:#97C1E9;}
	.st14{clip-path:url(#SVGID_00000000195746296681696550000011579798538206010279_);fill:#3F6CB1;}
	.st15{clip-path:url(#SVGID_00000047057581712500142480000008849672164717819572_);fill:#3F6CB1;}
	.st16{clip-path:url(#SVGID_00000047742631681808678980000015663290199273715364_);fill:#3F6CB1;}
</style>
<g transform="matrix(1.5682 0 0 1.5682 -340.53 -507.48)">
	<path class="st0" d="M313.3,514.8c-23.9-11.4-53.3-34.2-64-48.4c-10.6-14.2-10.4-26.9-10.4-26.9l-0.5-100.9l64.1-0.3l20-0.1
		l64.1-0.3l0.5,100.9c0,0,0.4,12.7-10.1,27c-10.5,14.4-39.6,37.4-63.5,49.1"/>
	<path class="st1" d="M313.2,503.6c0,0-26.7-14.2-45.8-31.6c-19.1-17.5-18.8-26.6-18.7-40.9l-0.4-83.2l51-0.3l26.5-0.1l51-0.3
		l0.4,83.2c0.2,14.3,0.6,23.4-18.3,41.1s-45.5,32.1-45.5,32.1"/>
	<polyline class="st2" points="277.5,338.3 277.5,333.8 287.4,323.9 297.1,333.1 297.2,352 287.5,358.6 278.3,354.4 276.6,348.2 
		279.1,350.5 281.9,348.5 281.9,337.2 278.6,334.8 278.6,338.3 	"/>
	<polyline class="st3" points="278.6,338.3 278.6,334.8 281.9,337.2 281.9,338.3 	"/>
	<polyline class="st3" points="276.6,348.2 279.1,350.5 281.9,348.5 281.9,347.8 280.9,347.8 280.9,348.6 279.1,349.9 	"/>
	<polyline class="st2" points="302.5,338.2 302.5,333.7 312.4,323.8 322.1,333 322.2,351.9 312.5,358.5 303.3,354.3 301.6,348.1 
		304.2,350.4 307,348.4 306.9,337.1 303.6,334.6 303.6,338.2 	"/>
	<polyline class="st3" points="303.6,338.2 303.6,334.6 306.9,337.1 306.9,338.2 	"/>
	<polyline class="st3" points="301.6,348.1 304.2,350.4 307,348.4 307,347.7 306,347.7 306,348.4 304.2,349.8 	"/>
	<polyline class="st2" points="327.9,338.1 327.9,333.5 337.8,323.6 347.5,332.8 347.6,351.7 337.9,358.4 328.7,354.2 327,347.9 
		329.5,350.2 332.3,348.3 332.3,336.9 329,334.5 329,338.1 	"/>
	<polyline class="st3" points="329,338.1 329,334.5 332.3,336.9 332.3,338 	"/>
	<polyline class="st3" points="327,347.9 329.5,350.2 332.3,348.3 332.3,347.5 331.3,347.5 331.3,348.3 329.5,349.6 	"/>
	<polyline class="st4" points="246.9,343.8 243.6,347 240.4,343.8 243.6,340.6 	"/>
	<polyline class="st0" points="245.1,343.8 243.6,345.3 242.2,343.8 243.6,342.4 	"/>
	<polyline class="st4" points="384.1,343.1 380.9,346.3 377.6,343.1 380.8,339.9 	"/>
	<polyline class="st0" points="382.3,343.1 380.9,344.6 379.4,343.1 380.9,341.6 	"/>
	<polyline class="st4" points="316.6,508.8 313.4,512 310.2,508.8 313.4,505.6 	"/>
	<polyline class="st0" points="314.9,508.8 313.4,510.3 311.9,508.8 313.4,507.3 	"/>
	<polyline class="st2" points="283.9,369.6 248.5,369.8 248.5,367.9 283.9,367.7 	"/>
	<polyline class="st2" points="376.7,369.1 341.3,369.3 341.3,367.4 376.7,367.2 	"/>
	<g>
		<path class="st5" d="M293.5,365.2l0.1,1.7h-0.2c0-0.3-0.1-0.5-0.2-0.6c-0.1-0.2-0.3-0.4-0.4-0.4c-0.2-0.1-0.4-0.1-0.7-0.1h-1v5.4
			c0,0.4,0.1,0.7,0.1,0.8c0.1,0.1,0.4,0.2,0.6,0.2h0.3v0.2H289v-0.2h0.3c0.3,0,0.5-0.1,0.6-0.3c0.1-0.1,0.1-0.4,0.1-0.8v-5.4h-0.9
			c-0.3,0-0.6,0-0.7,0.1c-0.2,0.1-0.3,0.2-0.5,0.4c-0.1,0.2-0.2,0.4-0.2,0.8h-0.2l0.1-1.7"/>
		<path class="st5" d="M301.2,372.3h-1.9l-2.5-3.3h-0.4h-0.2H296v2.1c0,0.4,0.1,0.7,0.2,0.8c0.1,0.2,0.3,0.2,0.6,0.2h0.3v0.2H294
			v-0.2h0.3c0.3,0,0.5-0.1,0.7-0.3c0.1-0.1,0.1-0.4,0.1-0.8v-4.6c0-0.4,0-0.7-0.1-0.8c-0.1-0.2-0.3-0.2-0.6-0.2h-0.3v-0.2h2.6
			c0.8,0,1.3,0,1.7,0.2c0.4,0.1,0.7,0.3,0.9,0.6c0.3,0.3,0.4,0.6,0.4,1.1c0,0.4-0.1,0.8-0.4,1.1s-0.7,0.6-1.3,0.7l1.5,2
			c0.3,0.5,0.6,0.8,0.9,0.9c0.2,0.2,0.6,0.2,1,0.3 M296.1,368.7h0.2h0.1c0.7,0,1.2-0.2,1.6-0.4c0.3-0.3,0.5-0.7,0.5-1.1
			s-0.1-0.8-0.4-1.1s-0.7-0.4-1.1-0.4c-0.2,0-0.5,0-0.8,0.1L296.1,368.7z"/>
		<path class="st5" d="M306.3,365.4v-0.2h2.6v0.2h-0.3c-0.3,0-0.5,0.1-0.7,0.4c-0.1,0.1-0.1,0.4-0.1,0.8v2.9c0,0.7-0.1,1.3-0.2,1.7
			s-0.4,0.7-0.8,1s-1,0.4-1.7,0.4c-0.8,0-1.4-0.1-1.8-0.4s-0.7-0.6-0.9-1.1c-0.1-0.3-0.2-0.9-0.2-1.8v-2.8c0-0.4-0.1-0.7-0.2-0.9
			c-0.1-0.1-0.3-0.2-0.6-0.2h-0.3v-0.2h3.1v0.2h-0.3c-0.3,0-0.5,0.1-0.6,0.3c-0.1,0.1-0.1,0.4-0.1,0.8v3.1c0,0.3,0,0.6,0.1,1
			s0.1,0.6,0.3,0.8c0.1,0.2,0.3,0.4,0.6,0.5s0.6,0.2,0.9,0.2c0.5,0,0.9-0.1,1.3-0.3s0.6-0.5,0.8-0.8c0.1-0.3,0.2-0.9,0.2-1.6v-2.9
			c0-0.4,0-0.7-0.1-0.8c-0.1-0.2-0.3-0.2-0.6-0.2"/>
		<path class="st5" d="M310,365.3v-0.2h3.1v0.2h-0.3c-0.3,0-0.5,0.1-0.6,0.3c-0.1,0.1-0.1,0.4-0.1,0.8v3.5c0,0.5-0.1,1-0.2,1.3
			s-0.3,0.6-0.6,0.9c-0.3,0.2-0.6,0.4-1.1,0.4c-0.3,0-0.6-0.1-0.8-0.2c-0.2-0.2-0.3-0.3-0.3-0.6c0-0.2,0-0.3,0.1-0.4
			s0.3-0.2,0.4-0.2s0.2,0,0.3,0.1s0.2,0.3,0.3,0.6c0.1,0.2,0.2,0.3,0.3,0.3s0.2-0.1,0.3-0.2s0.1-0.3,0.1-0.6v-4.9
			c0-0.4,0-0.6-0.1-0.7c0-0.1-0.1-0.2-0.2-0.2C310.4,365.4,310.3,365.4,310,365.3"/>
		<path class="st5" d="M316.6,372v0.2h-3.1V372h0.3c0.3,0,0.5-0.1,0.6-0.3c0.1-0.1,0.1-0.4,0.1-0.8v-4.6c0-0.4,0-0.6-0.1-0.7
			c0-0.1-0.1-0.2-0.2-0.2c-0.2-0.1-0.3-0.1-0.5-0.1h-0.3v-0.2h3.1v0.2h-0.3c-0.3,0-0.5,0.1-0.6,0.3c-0.1,0.1-0.1,0.4-0.1,0.8v4.6
			c0,0.4,0,0.6,0.1,0.7c0,0.1,0.1,0.2,0.2,0.2c0.2,0.1,0.3,0.1,0.5,0.1"/>
		<path class="st5" d="M323.1,370.2h0.2l-0.6,1.9h-5.6V372h0.3c0.3,0,0.5-0.1,0.7-0.3c0.1-0.1,0.1-0.4,0.1-0.8v-4.6
			c0-0.4-0.1-0.7-0.1-0.8c-0.1-0.2-0.3-0.2-0.6-0.2h-0.3v-0.2h3.3v0.2c-0.4,0-0.6,0-0.8,0.1s-0.3,0.2-0.3,0.3
			c-0.1,0.1-0.1,0.4-0.1,0.8v4.5c0,0.3,0,0.5,0.1,0.6c0,0.1,0.1,0.1,0.2,0.2h0.8h0.5c0.6,0,0.9,0,1.2-0.1c0.2-0.1,0.4-0.2,0.6-0.4
			C322.7,371,322.9,370.7,323.1,370.2"/>
		<path class="st5" d="M329.8,370.2h0.2l-0.6,1.9h-5.6v-0.2h0.3c0.3,0,0.5-0.1,0.7-0.3c0.1-0.1,0.1-0.4,0.1-0.8v-4.6
			c0-0.4,0-0.7-0.1-0.8s-0.3-0.2-0.6-0.2h-0.3V365h3.3v0.2c-0.4,0-0.6,0-0.8,0.1s-0.3,0.2-0.3,0.3c-0.1,0.1-0.1,0.4-0.1,0.8v4.5
			c0,0.3,0,0.5,0.1,0.6c0,0.1,0.1,0.1,0.2,0.2h0.8h0.5c0.5,0,0.9,0,1.2-0.1c0.2-0.1,0.4-0.2,0.6-0.4
			C329.4,370.9,329.6,370.6,329.8,370.2"/>
		<path class="st5" d="M334.1,364.9c0.9,0,1.7,0.3,2.4,1s1,1.6,1,2.6c0,1.1-0.3,2-1,2.7s-1.5,1.1-2.5,1.1s-1.8-0.3-2.5-1
			s-1-1.6-1-2.7s0.4-2.1,1.2-2.8C332.4,365.2,333.2,364.9,334.1,364.9 M334,365.2c-0.6,0-1.2,0.2-1.6,0.7c-0.5,0.6-0.7,1.4-0.7,2.6
			s0.3,2,0.8,2.7c0.4,0.5,0.9,0.7,1.5,0.7c0.7,0,1.2-0.3,1.7-0.8c0.4-0.5,0.7-1.3,0.6-2.5c0-1.2-0.3-2.1-0.7-2.7
			C335.3,365.5,334.7,365.2,334,365.2"/>
		<path class="st5" d="M253.2,382.6l20.7-0.1v1.1h-1c-1.6,0-2.6,0.2-3.2,0.5c-0.6,0.3-1,0.8-1.2,1.3c-0.2,0.6-0.4,1.9-0.3,4.1
			l0.1,18.9c0,3.5,0.3,5.8,0.8,6.9s1.4,2,2.7,2.8c1.3,0.7,2.8,1.1,4.7,1.1c2.2,0,4-0.5,5.5-1.4s2.7-2.3,3.4-3.9
			c0.7-1.7,1.1-4.5,1.1-8.7l-0.1-15.8c0-1.7-0.2-3-0.6-3.7s-0.9-1.2-1.4-1.5c-0.9-0.4-2.1-0.6-3.8-0.6v-1.1l13.9-0.1v1.1h-0.8
			c-1.1,0-2.1,0.2-2.8,0.7c-0.7,0.4-1.3,1.1-1.6,2c-0.2,0.6-0.4,1.7-0.4,3.3L289,404c0,4.5-0.3,7.8-0.9,9.9c-0.6,2-2.1,3.9-4.5,5.6
			s-5.7,2.6-9.9,2.6c-3.5,0-6.2-0.4-8.1-1.3c-2.6-1.2-4.4-2.8-5.5-4.7s-1.6-4.5-1.6-7.7l-0.1-18.9c0-2.2-0.1-3.6-0.4-4.1
			s-0.7-1-1.3-1.3s-1.8-0.5-3.5-0.4"/>
		<path class="st5" d="M331.2,381.3l0.1,13.4h-1.1c-0.9-3.5-2.5-6.2-4.9-8c-2.4-1.9-5.1-2.8-8.1-2.8c-2.5,0-4.8,0.7-6.9,2.1
			s-3.6,3.2-4.6,5.5c-1.2,2.9-1.8,6.1-1.8,9.6s0.5,6.6,1.4,9.5c0.9,2.8,2.4,5,4.3,6.4s4.5,2.2,7.5,2.1c2.5,0,4.8-0.6,6.9-1.6
			c2.1-1.1,4.3-2.9,6.6-5.5v3.3c-2.2,2.3-4.6,3.9-7,5c-2.4,1-5.3,1.5-8.5,1.6c-4.3,0-8.1-0.8-11.4-2.4s-5.9-4-7.8-7.1
			c-1.8-3.1-2.7-6.4-2.8-9.9c0-3.7,1-7.2,3-10.5s4.7-5.9,8.1-7.7s7-2.8,10.9-2.8c2.8,0,5.8,0.5,9,1.7c1.8,0.7,3,1,3.5,1
			c0.6,0,1.2-0.2,1.6-0.7c0.5-0.5,0.8-1.2,0.9-2.1"/>
		<path class="st5" d="M372.9,381.9v1.1c-1.5,0.2-2.8,1-3.9,2.3c-0.8,1-2.1,3.2-3.7,6.7l-13.7,29.6h-1l-13.9-30.7
			c-1.7-3.7-2.8-5.9-3.4-6.5s-1.6-1-3.2-1.2v-1.1l19.3-0.1v1.1h-0.6c-1.8,0-2.9,0.2-3.6,0.6c-0.5,0.3-0.7,0.7-0.7,1.3
			c0,0.3,0.1,0.7,0.2,1.2c0.2,0.5,0.7,1.7,1.6,3.7l8.7,19.2l8-17.1c0.9-2.1,1.5-3.5,1.7-4.2s0.3-1.3,0.3-1.8c0-0.6-0.2-1.1-0.5-1.5
			s-0.8-0.8-1.4-1c-0.9-0.3-2-0.5-3.4-0.5v-1"/>
		<path class="st5" d="M254.7,431.4c0.2,0.1,0.3,0.1,0.3,0.1c0.1,0,0.1,0,0.1-0.1l0.1-0.1h0.1v1.1h-0.1c-0.1-0.3-0.2-0.4-0.4-0.6
			c-0.2-0.3-0.5-0.4-0.8-0.4s-0.6,0.1-0.7,0.4s-0.2,0.7-0.2,1.1s0,0.6,0.1,0.9c0.2,0.4,0.4,0.6,0.8,0.6c0.2,0,0.5-0.1,0.7-0.2
			c0.1-0.1,0.3-0.2,0.4-0.4l0.1,0.1c-0.2,0.2-0.3,0.4-0.5,0.5c-0.3,0.2-0.5,0.3-0.8,0.3c-0.5,0-0.9-0.1-1.2-0.4
			c-0.4-0.3-0.5-0.7-0.5-1.3c0-0.5,0.2-1,0.5-1.3s0.7-0.5,1.2-0.5C254.3,431.3,254.5,431.3,254.7,431.4"/>
		<path class="st5" d="M255.8,434.5c0.1,0,0.2,0,0.3-0.1s0.1-0.1,0.1-0.3v-2.4c0-0.1-0.1-0.2-0.1-0.3c-0.1,0-0.2-0.1-0.3-0.1v-0.1
			h1.7v0.1c-0.2,0-0.3,0-0.4,0.1c-0.1,0-0.1,0.2-0.1,0.4v2.3c0,0.1,0,0.2,0.1,0.2s0.2,0.1,0.3,0c0.3,0,0.5-0.1,0.7-0.2
			c0.2-0.1,0.4-0.4,0.5-0.8h0.1l-0.2,1.1L255.8,434.5"/>
		<path class="st5" d="M260.6,431.3v0.1c-0.2,0-0.3,0-0.4,0.1c-0.1,0.1-0.1,0.2-0.1,0.4v1.6c0,0.2,0,0.4,0.1,0.6s0.3,0.4,0.6,0.4
			c0.4,0,0.6-0.1,0.7-0.4c0.1-0.1,0.1-0.4,0.1-0.6V432c0-0.2,0-0.3-0.1-0.4s-0.2-0.1-0.4-0.1v-0.1h1.1v0.1c-0.2,0-0.3,0.1-0.3,0.1
			s-0.1,0.1-0.1,0.3v1.6c0,0.4-0.1,0.7-0.3,1c-0.2,0.2-0.5,0.3-0.9,0.3c-0.6,0-0.9-0.2-1.1-0.5c-0.1-0.2-0.2-0.4-0.2-0.7V432
			c0-0.2,0-0.3-0.1-0.3c0,0-0.1-0.1-0.3-0.1v-0.1"/>
		<path class="st5" d="M262.5,434.5c0.1,0,0.2,0,0.3-0.1s0.1-0.1,0.1-0.3v-2.4c0-0.1,0-0.2-0.1-0.3c-0.1,0-0.2,0-0.3-0.1v-0.1h1.5
			c0.3,0,0.5,0,0.7,0.1c0.4,0.1,0.5,0.4,0.5,0.7c0,0.2-0.1,0.4-0.2,0.5c-0.1,0.1-0.3,0.2-0.5,0.2v0.1c0.2,0,0.3,0.1,0.5,0.2
			c0.3,0.2,0.4,0.4,0.4,0.7s-0.1,0.5-0.4,0.7c-0.2,0.2-0.6,0.3-1,0.3h-1.6 M264.3,432.6c0.1-0.1,0.2-0.3,0.1-0.5
			c0-0.2,0-0.3-0.1-0.5c-0.1-0.1-0.2-0.2-0.4-0.2c-0.1,0-0.2,0-0.2,0.1c0,0-0.1,0.1-0.1,0.2v1.1C264,432.8,264.2,432.7,264.3,432.6
			 M263.7,434.3c0,0.1,0.1,0.1,0.2,0.1c0.2,0,0.4-0.1,0.5-0.2s0.1-0.3,0.1-0.5c0-0.3-0.1-0.6-0.3-0.7c-0.1-0.1-0.3-0.1-0.6-0.1v1.2
			C263.7,434.2,263.7,434.3,263.7,434.3"/>
		<path class="st5" d="M266.9,434.5c0.1,0,0.2,0,0.3-0.1c0.1,0,0.1-0.1,0.1-0.3v-2.4c0-0.1,0-0.2-0.1-0.3c0,0-0.1,0-0.3-0.1v-0.1
			h1.5c0.6,0,1.1,0.2,1.4,0.5s0.4,0.7,0.4,1.2c0,0.4-0.1,0.8-0.4,1.1s-0.8,0.5-1.3,0.5L266.9,434.5 M268.1,434.3
			c0,0,0.1,0.1,0.2,0.1c0.3,0,0.5-0.1,0.7-0.3c0.2-0.2,0.3-0.6,0.3-1.2c0-0.3-0.1-0.6-0.2-0.9c-0.2-0.4-0.4-0.6-0.8-0.6
			c-0.1,0-0.2,0-0.2,0.1v0.2v2.4V434.3"/>
		<path class="st5" d="M270.4,434.6v-0.1c0.1,0,0.2,0,0.3-0.1s0.1-0.1,0.1-0.3v-2.4c0-0.1,0-0.2-0.1-0.3c-0.1,0-0.2,0-0.3-0.1v-0.1
			h2.8v1h-0.1c-0.1-0.3-0.2-0.5-0.3-0.6s-0.4-0.2-0.8-0.2c-0.1,0-0.2,0-0.3,0.1c0,0-0.1,0.1-0.1,0.2v1.1c0.3,0,0.5-0.1,0.6-0.2
			s0.2-0.3,0.2-0.6h0.1v1.7h-0.1c0-0.3-0.1-0.5-0.2-0.6c-0.1-0.1-0.3-0.2-0.6-0.2v1.2c0,0.1,0,0.2,0.1,0.2s0.2,0.1,0.3,0.1
			c0.3,0,0.6-0.1,0.7-0.2c0.2-0.1,0.4-0.4,0.5-0.7h0.1l-0.2,1"/>
		<path class="st5" d="M273.6,434.4c0.2,0,0.3,0,0.3-0.1c0.1-0.1,0.1-0.2,0.1-0.4v-2.2c0-0.2,0-0.3-0.1-0.3s-0.2-0.1-0.3-0.1v-0.1
			h1.6c0.4,0,0.7,0.1,0.9,0.2c0.2,0.1,0.3,0.4,0.3,0.7c0,0.2,0,0.3-0.1,0.5c-0.1,0.1-0.2,0.3-0.4,0.3c-0.1,0.1-0.3,0.1-0.4,0.1h-0.7
			v0.9c0,0.2,0,0.3,0.1,0.4s0.2,0.1,0.3,0.1v0.1h-1.6 M275.4,432.8c0.2-0.1,0.2-0.3,0.2-0.6c0-0.2,0-0.4-0.1-0.5s-0.2-0.2-0.4-0.2
			h-0.2l-0.1,0.1v1.3C275.1,432.9,275.3,432.8,275.4,432.8"/>
		<path class="st5" d="M279.6,431.6c0.3,0.3,0.5,0.7,0.5,1.3c0,0.5-0.2,0.9-0.5,1.3c-0.3,0.3-0.7,0.5-1.2,0.5s-0.9-0.2-1.3-0.5
			c-0.3-0.3-0.5-0.7-0.5-1.2s0.2-0.9,0.5-1.3c0.3-0.3,0.7-0.5,1.2-0.5C278.8,431.1,279.2,431.3,279.6,431.6 M279.1,433.8
			c0.1-0.2,0.1-0.5,0.1-0.9c0-0.5-0.1-0.9-0.2-1.2c-0.2-0.3-0.4-0.4-0.6-0.4c-0.4,0-0.6,0.2-0.7,0.7c-0.1,0.2-0.1,0.5-0.1,0.9
			s0,0.7,0.1,0.9c0.1,0.4,0.4,0.7,0.8,0.6C278.7,434.4,279,434.2,279.1,433.8"/>
		<path class="st5" d="M280.3,434.4c0.2,0,0.3,0,0.3-0.1c0.1-0.1,0.1-0.2,0.1-0.4v-2.2c0-0.2,0-0.3-0.1-0.4c-0.1,0-0.2-0.1-0.3-0.1
			v-0.1h1.6c0.3,0,0.6,0,0.8,0.1c0.4,0.1,0.6,0.4,0.6,0.7s-0.1,0.5-0.3,0.6s-0.3,0.2-0.5,0.2l1,1.4l0.1,0.1h0.1v0.1h-1l-1.1-1.5v1
			c0,0.2,0,0.3,0.1,0.4s0.2,0.1,0.3,0.1v0.1h-1.6 M282.2,432.7c0.1-0.1,0.2-0.3,0.2-0.6c0-0.2,0-0.3-0.1-0.5s-0.3-0.3-0.5-0.3
			c-0.1,0-0.2,0-0.3,0.1c0,0-0.1,0.1-0.1,0.2v1.2C281.8,432.8,282,432.8,282.2,432.7"/>
		<path class="st5" d="M283.7,431.2h2.9v1h-0.1c0-0.3-0.2-0.6-0.4-0.7c-0.1-0.1-0.3-0.1-0.5-0.1v2.6c0,0.2,0,0.3,0.1,0.4
			s0.2,0.1,0.4,0.1v0.1h-1.7v-0.1c0.2,0,0.3,0,0.4-0.1s0.1-0.2,0.1-0.4v-2.6c-0.2,0-0.4,0-0.5,0.1c-0.2,0.1-0.4,0.4-0.4,0.7h-0.1"/>
		<path class="st5" d="M286.8,434.3c0.1,0,0.2,0,0.3-0.1s0.1-0.1,0.1-0.3v-2.4c0-0.1-0.1-0.2-0.1-0.3h-0.3v-0.1h1.7v0.1h-0.3
			c-0.1,0.1-0.1,0.1-0.1,0.3v2.4c0,0.1,0,0.2,0.1,0.3c0.1,0,0.2,0.1,0.3,0.1v0.1h-1.7"/>
		<path class="st5" d="M290.3,431.2v0.1H290c0,0-0.1,0.1-0.1,0.2v0.1v0.1l0.8,1.8l0.6-1.7v-0.1v-0.1c0-0.1,0-0.1-0.1-0.2
			c-0.1,0-0.2,0-0.3-0.1v-0.1h1v0.1c-0.1,0-0.2,0-0.3,0.1s-0.1,0.2-0.2,0.3l-1.1,2.9h-0.1l-1.3-2.9c0-0.1-0.1-0.2-0.2-0.3
			c0,0-0.1-0.1-0.2-0.1v-0.1"/>
		<path class="st5" d="M295.1,431.5c0.3,0.3,0.5,0.7,0.5,1.3c0,0.5-0.2,0.9-0.5,1.3c-0.3,0.3-0.7,0.5-1.2,0.5s-0.9-0.2-1.3-0.5
			c-0.3-0.3-0.5-0.7-0.5-1.2s0.2-0.9,0.5-1.3c0.3-0.3,0.7-0.5,1.2-0.5C294.4,431.1,294.8,431.2,295.1,431.5 M294.6,433.7
			c0.1-0.2,0.1-0.5,0.1-0.9c0-0.5-0.1-0.9-0.2-1.2c-0.2-0.3-0.4-0.4-0.6-0.4c-0.4,0-0.6,0.2-0.7,0.7c-0.1,0.2-0.1,0.5-0.1,0.9
			s0,0.7,0.1,0.9c0.1,0.4,0.4,0.7,0.8,0.6C294.3,434.4,294.5,434.2,294.6,433.7"/>
		<path class="st5" d="M298.7,431.1v0.1c-0.2,0-0.3,0-0.4,0.1c-0.1,0-0.1,0.2-0.1,0.4v1.6c0,0.2,0,0.4,0.1,0.6s0.3,0.4,0.6,0.4
			c0.4,0,0.6-0.1,0.7-0.4c0.1-0.1,0.1-0.4,0.1-0.6v-1.5c0-0.2,0-0.3-0.1-0.4s-0.2-0.1-0.4-0.1v-0.1h1.1v0.1c-0.2,0-0.3,0.1-0.3,0.1
			c0,0.1-0.1,0.1-0.1,0.3v1.6c0,0.4-0.1,0.7-0.3,1c-0.2,0.2-0.5,0.3-0.9,0.3c-0.6,0-0.9-0.2-1.1-0.5c-0.1-0.2-0.2-0.4-0.2-0.7v-1.6
			c0-0.2,0-0.3-0.1-0.3s-0.2-0.1-0.3-0.1v-0.1"/>
		<path class="st5" d="M300.5,434.3c0.2,0,0.3,0,0.3-0.1c0.1-0.1,0.1-0.2,0.1-0.3v-2.3c-0.2-0.2-0.2-0.3-0.3-0.3c0,0-0.1,0-0.1-0.1
			v-0.1h1l1.7,2v-1.4c0-0.2,0-0.3-0.1-0.4s-0.2-0.1-0.4-0.1v-0.1h1v0.1c-0.1,0-0.2,0.1-0.3,0.1c0,0-0.1,0.1-0.1,0.3v2.9h-0.1
			l-2.1-2.6v1.9c0,0.2,0,0.3,0.1,0.3c0.1,0.1,0.2,0.2,0.4,0.2v0.1h-1.1"/>
		<path class="st5" d="M304,434.3c0.1,0,0.2,0,0.3-0.1s0.1-0.1,0.2-0.3v-2.4c0-0.1-0.1-0.2-0.1-0.3c-0.1,0-0.2,0-0.3-0.1V431h1.7
			v0.1c-0.2,0-0.3,0-0.3,0.1c-0.1,0.1-0.1,0.1-0.1,0.3v2.4c0,0.1,0,0.2,0.1,0.3s0.2,0.1,0.3,0.1v0.1h-1.7"/>
		<path class="st5" d="M307.5,431.1v0.1h-0.3c-0.1,0-0.1,0.1-0.1,0.2v0.1v0.1l0.8,1.8l0.6-1.7v-0.1v-0.1c0-0.1,0-0.2-0.1-0.2h-0.3
			v-0.1h1v0.1c-0.1,0-0.2,0-0.3,0.1s-0.1,0.2-0.2,0.3l-1.1,2.9h-0.1l-1.3-2.9c0-0.1-0.1-0.2-0.2-0.3s-0.1-0.1-0.2-0.1v-0.1"/>
		<path class="st5" d="M309.4,434.4v-0.1c0.1,0,0.2,0,0.3-0.1s0.1-0.1,0.1-0.3v-2.4c0-0.1,0-0.2-0.1-0.3c0,0-0.1,0-0.3-0.1V431h2.8
			v1h-0.1c-0.1-0.3-0.2-0.5-0.3-0.6s-0.4-0.2-0.8-0.2h-0.3c0,0-0.1,0.1-0.1,0.2v1.1c0.3,0,0.5,0,0.6-0.2c0.1-0.1,0.2-0.3,0.2-0.6
			h0.1v1.6h-0.1c0-0.3-0.1-0.5-0.2-0.6s-0.3-0.2-0.6-0.2v1.2c0,0.1,0,0.2,0.1,0.2s0.2,0.1,0.3,0.1c0.3,0,0.6-0.1,0.8-0.2
			s0.4-0.4,0.5-0.7h0.1l-0.2,1"/>
		<path class="st5" d="M312.6,434.2c0.2,0,0.3,0,0.3-0.1c0.1-0.1,0.1-0.2,0.1-0.4v-2.2c0-0.2,0-0.3-0.1-0.4c0,0-0.2-0.1-0.3-0.1
			v-0.1h1.6c0.3,0,0.6,0,0.8,0.1c0.4,0.1,0.6,0.4,0.6,0.7s-0.1,0.5-0.3,0.6s-0.3,0.2-0.5,0.2l1,1.4l0.1,0.1h0.1v0.1h-1l-1.1-1.5v1
			c0,0.2,0,0.3,0.1,0.4s0.2,0.1,0.3,0.1v0.1h-1.6 M314.5,432.5c0.1-0.1,0.2-0.3,0.2-0.6c0-0.2,0-0.3-0.1-0.5s-0.3-0.3-0.5-0.3
			c-0.1,0-0.2,0-0.3,0.1c0,0-0.1,0.1-0.1,0.2v1.2C314.1,432.6,314.3,432.6,314.5,432.5"/>
		<path class="st5" d="M316.2,433.2h0.1c0.1,0.4,0.2,0.6,0.4,0.8s0.4,0.2,0.6,0.2s0.4-0.1,0.5-0.2s0.1-0.2,0.1-0.4
			c0-0.1-0.1-0.3-0.2-0.4s-0.2-0.1-0.4-0.2l-0.3-0.2c-0.3-0.2-0.5-0.3-0.6-0.5s-0.2-0.3-0.2-0.6c0-0.2,0.1-0.5,0.2-0.7
			c0.2-0.2,0.4-0.3,0.8-0.3c0.2,0,0.3,0,0.5,0.1s0.3,0.1,0.3,0.1c0.1,0,0.1,0,0.1-0.1v-0.1h0.1v1.1h-0.1c-0.1-0.2-0.2-0.5-0.3-0.6
			c-0.2-0.2-0.4-0.3-0.6-0.3s-0.3,0.1-0.4,0.1c-0.1,0.1-0.1,0.2-0.1,0.3c0,0.2,0,0.3,0.1,0.4s0.3,0.2,0.6,0.3l0.4,0.2
			c0.2,0.1,0.3,0.2,0.4,0.3c0.2,0.2,0.3,0.4,0.3,0.7c0,0.2-0.1,0.5-0.3,0.7s-0.5,0.3-0.9,0.3H317c-0.1,0-0.2,0-0.3-0.1h-0.1h-0.1
			h-0.1v0.1h-0.1"/>
		<path class="st5" d="M318.8,434.2c0.1,0,0.2,0,0.3-0.1c0.1,0,0.1-0.1,0.1-0.3v-2.4c0-0.1,0-0.2-0.1-0.3h-0.3V431h1.7v0.1h-0.3
			c-0.1,0.1-0.1,0.1-0.1,0.3v2.4c0,0.1,0,0.2,0.1,0.3c0.1,0,0.2,0.1,0.3,0.1v0.1h-1.7"/>
		<path class="st5" d="M320.6,434.2c0.1,0,0.2,0,0.3-0.1s0.1-0.1,0.1-0.3v-2.4c0-0.1,0-0.2-0.1-0.3c-0.1,0-0.1,0-0.3-0.1v-0.1h1.5
			c0.6,0,1.1,0.2,1.4,0.5s0.4,0.7,0.4,1.2c0,0.4-0.1,0.8-0.4,1.1s-0.8,0.5-1.3,0.5h-1.5 M321.9,434.1c0,0,0.1,0.1,0.2,0.1
			c0.3,0,0.5-0.1,0.7-0.3s0.3-0.6,0.3-1.2c0-0.3-0.1-0.6-0.2-0.9c-0.2-0.4-0.4-0.6-0.8-0.6c-0.1,0-0.2,0-0.2,0.1v0.2v2.4
			C321.8,433.9,321.8,434,321.9,434.1"/>
		<path class="st5" d="M324.1,434.2c0.1,0,0.2-0.1,0.3-0.2c0-0.1,0.1-0.2,0.2-0.4l1-2.7h0.1l1.1,2.6c0.1,0.3,0.2,0.5,0.3,0.6
			s0.1,0.1,0.3,0.1v0.1h-1.6v-0.1h0.3c0.1,0,0.1-0.1,0.1-0.2v-0.2c0,0,0-0.1-0.1-0.2l-0.1-0.3h-1.1c-0.1,0.2-0.1,0.3-0.1,0.4
			s-0.1,0.2-0.1,0.3s0,0.1,0.1,0.1h0.2v0.1h-1 M325.9,433.1l-0.5-1.1l-0.4,1.1H325.9z"/>
		<path class="st5" d="M327.6,434.1c0.1,0,0.2,0,0.3-0.1c0.1,0,0.1-0.1,0.1-0.3v-2.4c0-0.1,0-0.2-0.1-0.3c0,0-0.1-0.1-0.3-0.1v-0.1
			h1.5c0.6,0,1,0.2,1.4,0.5c0.3,0.3,0.4,0.7,0.4,1.2c0,0.4-0.1,0.8-0.4,1.1s-0.8,0.5-1.3,0.5h-1.5 M328.8,434c0,0,0.1,0.1,0.2,0.1
			c0.3,0,0.5-0.1,0.7-0.3s0.3-0.6,0.3-1.2c0-0.3-0.1-0.6-0.2-0.9c-0.2-0.4-0.4-0.6-0.8-0.6c-0.1,0-0.2,0-0.2,0.1v0.2v2.4V434"/>
		<path class="st5" d="M334.7,431c0.2,0.1,0.3,0.1,0.3,0.1c0.1,0,0.1,0,0.1-0.1s0.1-0.1,0.1-0.1h0.1v1.1h-0.1
			c-0.1-0.2-0.2-0.4-0.4-0.6c-0.2-0.3-0.5-0.4-0.8-0.4s-0.6,0.1-0.7,0.4s-0.2,0.7-0.2,1.1s0,0.6,0.1,0.9c0.2,0.4,0.4,0.6,0.8,0.6
			c0.3,0,0.5-0.1,0.7-0.2c0.1-0.1,0.3-0.2,0.4-0.4l0.1,0.1c-0.2,0.2-0.3,0.4-0.5,0.5c-0.3,0.2-0.5,0.3-0.8,0.3
			c-0.5,0-0.9-0.1-1.2-0.4c-0.4-0.3-0.5-0.7-0.5-1.3c0-0.5,0.2-1,0.5-1.3s0.7-0.5,1.2-0.5C334.3,430.9,334.5,430.9,334.7,431"/>
		<path class="st5" d="M335.8,434.2v-0.1c0.1,0,0.2,0,0.3-0.1c0.1,0,0.1-0.1,0.1-0.3v-2.4c0-0.1,0-0.2-0.1-0.3
			c-0.1,0-0.2-0.1-0.3-0.1v-0.1h2.8v1h-0.1c-0.1-0.3-0.2-0.5-0.3-0.6c-0.2-0.1-0.4-0.2-0.8-0.2h-0.3c0,0-0.1,0.1-0.1,0.2v1.1
			c0.3,0,0.5,0,0.6-0.2c0.1-0.1,0.2-0.3,0.2-0.6h0.1v1.6h-0.1c0-0.3-0.1-0.5-0.2-0.6s-0.3-0.2-0.6-0.2v1.2c0,0.1,0,0.2,0.1,0.2
			s0.2,0.1,0.3,0.1c0.3,0,0.6-0.1,0.7-0.2c0.2-0.1,0.4-0.3,0.5-0.7h0.1l-0.2,1 M338,430l-0.1,0.1l-0.6,0.4H337l0.6-0.8l0.1-0.1
			c0.1,0,0.1-0.1,0.2-0.1s0.1,0,0.2,0.1c0,0,0.1,0.1,0.1,0.2C338,429.9,338,430,338,430"/>
		<path class="st5" d="M339.1,433.1h0.1c0.1,0.4,0.2,0.6,0.4,0.8s0.4,0.2,0.6,0.2s0.4-0.1,0.5-0.2s0.1-0.2,0.1-0.4
			c0-0.1,0-0.3-0.1-0.4s-0.2-0.1-0.4-0.2l-0.3-0.2c-0.3-0.2-0.5-0.3-0.6-0.5s-0.2-0.3-0.2-0.6c0-0.2,0.1-0.5,0.2-0.7
			c0.2-0.2,0.4-0.3,0.8-0.3c0.2,0,0.3,0,0.5,0.1s0.3,0.1,0.3,0.1s0.1,0,0.1-0.1v-0.1h0.1v1.1h-0.1c-0.1-0.2-0.2-0.5-0.3-0.6
			c-0.2-0.2-0.4-0.3-0.6-0.3s-0.3,0.1-0.4,0.1c-0.1,0.1-0.1,0.2-0.1,0.3c0,0.2,0,0.3,0.1,0.3c0.1,0.1,0.3,0.2,0.6,0.3l0.4,0.2
			c0.2,0.1,0.3,0.2,0.4,0.3c0.2,0.2,0.3,0.4,0.3,0.7c0,0.2-0.1,0.5-0.3,0.7s-0.5,0.3-0.9,0.3H340c-0.1,0-0.2,0-0.3-0.1h-0.1h-0.1
			h-0.1v0.1h-0.1"/>
		<path class="st5" d="M341.7,434.1c0.1,0,0.2-0.1,0.3-0.2c0-0.1,0.1-0.2,0.2-0.4l1.1-2.7h0.1l1.1,2.6c0.1,0.3,0.2,0.5,0.3,0.6
			s0.1,0.1,0.3,0.1v0.1h-1.6v-0.1h0.3c0,0,0.1-0.1,0.1-0.2v-0.2c0-0.1,0-0.1-0.1-0.2l-0.1-0.3h-1.1c-0.1,0.2-0.1,0.3-0.1,0.4
			s-0.1,0.2-0.1,0.3s0.1,0.1,0.1,0.2h0.2v0.1L341.7,434.1 M343.5,433l-0.5-1.1l-0.4,1.1H343.5z"/>
		<path class="st5" d="M345.2,434c0.2,0,0.3,0,0.3-0.1c0.1-0.1,0.1-0.2,0.1-0.4v-2.2c0-0.2,0-0.3-0.1-0.4c0,0-0.1-0.1-0.3-0.1v-0.1
			h1.6c0.3,0,0.6,0,0.8,0.1c0.4,0.1,0.6,0.4,0.6,0.7s-0.1,0.5-0.3,0.6s-0.3,0.2-0.5,0.2l1,1.4c0,0,0,0.1,0.1,0.1h0.1v0.1h-1
			l-1.1-1.5v1c0,0.2,0,0.3,0.1,0.4s0.2,0.1,0.3,0.1v0.1h-1.6 M347,432.3c0.1-0.1,0.2-0.3,0.2-0.6c0-0.2,0-0.3-0.1-0.5
			s-0.2-0.3-0.5-0.3h-0.3c0,0-0.1,0.1-0.1,0.2v1.2C346.7,432.5,346.9,432.4,347,432.3"/>
		<path class="st5" d="M351.4,430.8v0.1h-0.3c0,0-0.1,0.1-0.1,0.2v0.1v0.1l0.8,1.8l0.6-1.7v-0.1v-0.1c0-0.1,0-0.1-0.1-0.2H352v-0.1
			h1v0.1c-0.1,0-0.2,0-0.3,0.1s-0.1,0.2-0.2,0.3l-1.1,2.9h-0.1l-1.3-2.9c0-0.1-0.1-0.2-0.2-0.3s-0.1-0.1-0.2-0.1v-0.1"/>
		<path class="st5" d="M352.6,434c0.1,0,0.2-0.1,0.3-0.2c0-0.1,0.1-0.2,0.2-0.4l1.1-2.7h0.1l1.1,2.6c0.1,0.3,0.2,0.5,0.3,0.6
			s0.1,0.1,0.3,0.1v0.1h-1.6V434h0.3c0.1,0,0.1-0.1,0.1-0.2v-0.2c0,0,0-0.1-0.1-0.2l-0.1-0.3h-1.1c-0.1,0.2-0.1,0.3-0.1,0.4
			s-0.1,0.2-0.1,0.3s0.1,0.1,0.1,0.1h0.2v0.1L352.6,434 M354.4,433l-0.5-1.1l-0.4,1.1H354.4z"/>
		<path class="st5" d="M356.1,434c0.1,0,0.2,0,0.3-0.1s0.1-0.1,0.1-0.3v-2.4c0-0.1,0-0.2-0.1-0.3c-0.1,0-0.1,0-0.3-0.1v-0.1h1.7v0.1
			c-0.2,0-0.3,0-0.4,0.1c-0.1,0-0.1,0.2-0.1,0.4v2.3c0,0.1,0,0.2,0.1,0.2s0.2,0.1,0.3,0.1c0.3,0,0.5-0.1,0.7-0.2s0.4-0.4,0.5-0.8
			h0.1l-0.2,1.1L356.1,434"/>
		<path class="st5" d="M359.3,434c0.1,0,0.2,0,0.3-0.1s0.1-0.1,0.1-0.3v-2.4c0-0.1-0.1-0.2-0.1-0.3c-0.1,0-0.2,0-0.3-0.1v-0.1h1.7
			v0.1c-0.2,0-0.3,0-0.4,0.1c-0.1,0-0.1,0.2-0.1,0.4v2.3c0,0.1,0,0.2,0.1,0.2s0.2,0.1,0.3,0c0.3,0,0.5-0.1,0.7-0.2s0.4-0.4,0.5-0.8
			h0.1l-0.2,1.1L359.3,434"/>
		<path class="st5" d="M362.5,434.1V434c0.1,0,0.2,0,0.3-0.1s0.1-0.1,0.1-0.3v-2.4c0-0.1,0-0.2-0.1-0.3c-0.1,0-0.2,0-0.3-0.1v-0.1
			h2.8v1h-0.1c-0.1-0.3-0.2-0.5-0.3-0.6c-0.2-0.1-0.4-0.2-0.8-0.2h-0.3c0,0-0.1,0.1-0.1,0.2v1.1c0.3,0,0.5,0,0.6-0.2
			c0.1-0.1,0.2-0.3,0.2-0.6h0.1v1.7h-0.1c0-0.3-0.1-0.5-0.2-0.6s-0.3-0.2-0.6-0.2v1.2c0,0.1,0,0.2,0.1,0.2s0.2,0.1,0.3,0.1
			c0.3,0,0.6-0.1,0.7-0.2c0.2-0.1,0.4-0.4,0.5-0.7h0.1l-0.2,1"/>
		<path class="st5" d="M368,430.7v0.1c-0.2,0-0.3,0-0.4,0.1c-0.1,0-0.1,0.2-0.1,0.4v2.1c0,0.3-0.1,0.6-0.3,0.8s-0.5,0.3-0.8,0.3
			c-0.2,0-0.4-0.1-0.6-0.2c-0.1-0.1-0.2-0.3-0.2-0.4s0-0.2,0.1-0.3s0.2-0.1,0.2-0.1c0.1,0,0.2,0,0.2,0.1c0.1,0.1,0.1,0.1,0.1,0.2
			s0,0.2-0.1,0.2c0,0.1-0.1,0.1-0.1,0.1v0.1h0.1c0.1,0,0.2,0,0.3-0.1v-0.3v-2.7c0-0.1-0.1-0.2-0.1-0.3H366v-0.1"/>
		<path class="st5" d="M371.2,431.1c0.3,0.3,0.5,0.7,0.5,1.3c0,0.5-0.2,0.9-0.5,1.3c-0.3,0.3-0.7,0.5-1.2,0.5s-0.9-0.2-1.3-0.5
			c-0.3-0.3-0.5-0.7-0.5-1.2s0.2-0.9,0.5-1.3c0.3-0.3,0.7-0.5,1.2-0.5S370.8,430.8,371.2,431.1 M370.7,433.3
			c0.1-0.2,0.1-0.5,0.1-0.9c0-0.5-0.1-0.9-0.2-1.2s-0.4-0.4-0.6-0.4c-0.4,0-0.6,0.2-0.8,0.7c-0.1,0.2-0.1,0.5-0.1,0.9s0,0.7,0.1,0.9
			c0.1,0.4,0.4,0.7,0.8,0.6C370.3,434,370.6,433.7,370.7,433.3"/>
		<path class="st5" d="M307.4,492v5c0,0.2,0.1,0.3,0.2,0.4s0.3,0.1,0.6,0.1v0.1h-2.3v-0.1c0.3,0,0.5-0.1,0.6-0.1
			c0.1-0.1,0.2-0.2,0.1-0.5v-3.8c0-0.1,0-0.2-0.1-0.3c0-0.1-0.1-0.1-0.2-0.1s-0.2,0-0.3,0.1c-0.1,0-0.2,0.1-0.3,0.1v-0.1L307.4,492"
			/>
		<path class="st5" d="M312.5,492.6c0.3,0.5,0.5,1,0.5,1.6c0,0.4-0.1,0.8-0.2,1.3c-0.2,0.4-0.4,0.8-0.7,1.2
			c-0.4,0.4-0.8,0.7-1.3,0.9c-0.3,0.1-0.7,0.2-1.1,0.3v-0.2c0.3-0.1,0.5-0.1,0.7-0.2c0.3-0.1,0.6-0.3,0.8-0.5
			c0.3-0.3,0.5-0.6,0.7-0.9s0.3-0.6,0.3-0.9l-0.1,0.1c-0.2,0.2-0.4,0.3-0.7,0.3c-0.1,0-0.3,0.1-0.4,0.1c-0.5,0-0.8-0.2-1.1-0.5
			s-0.4-0.7-0.4-1.2c0-0.6,0.2-1.1,0.5-1.4c0.3-0.4,0.7-0.6,1.2-0.6C311.7,491.9,312.2,492.1,312.5,492.6 M311.8,495.1
			c0.2-0.1,0.3-0.2,0.3-0.3v-0.3v-0.4c0-0.6-0.1-1-0.3-1.4s-0.5-0.5-0.8-0.5s-0.5,0.1-0.7,0.4c-0.2,0.2-0.3,0.6-0.2,1.1
			c0,0.4,0.1,0.8,0.2,1.1c0.2,0.3,0.4,0.5,0.8,0.5C311.4,495.2,311.6,495.2,311.8,495.1"/>
		<path class="st5" d="M316.7,492.6c0.3,0.5,0.5,1,0.5,1.6c0,0.4-0.1,0.8-0.2,1.3c-0.2,0.4-0.4,0.8-0.7,1.2s-0.8,0.7-1.3,0.9
			c-0.3,0.1-0.7,0.2-1.1,0.3v-0.2c0.3-0.1,0.5-0.1,0.7-0.2c0.3-0.1,0.6-0.3,0.8-0.5c0.3-0.3,0.5-0.6,0.7-0.9s0.3-0.6,0.3-0.9
			l-0.1,0.1c-0.2,0.2-0.4,0.3-0.7,0.3c-0.1,0-0.3,0.1-0.4,0.1c-0.5,0-0.8-0.2-1.1-0.5s-0.4-0.7-0.4-1.2c0-0.6,0.2-1.1,0.5-1.4
			c0.3-0.4,0.7-0.6,1.3-0.6C315.9,491.9,316.4,492.1,316.7,492.6 M316,495c0.2-0.1,0.3-0.2,0.3-0.3v-0.3V494c0-0.6-0.1-1-0.3-1.4
			s-0.5-0.5-0.8-0.5s-0.5,0.1-0.6,0.4c-0.2,0.2-0.3,0.6-0.3,1.1c0,0.4,0.1,0.8,0.2,1.1c0.2,0.3,0.4,0.5,0.8,0.5
			C315.6,495.2,315.8,495.1,316,495"/>
		<path class="st5" d="M321,497c-0.3,0.4-0.7,0.6-1.3,0.6c-0.5,0-0.9-0.2-1.3-0.7s-0.6-1.1-0.6-1.8c0-1,0.4-1.8,1.1-2.5
			c0.7-0.6,1.5-0.9,2.3-0.9v0.1c-0.3,0.1-0.6,0.2-0.9,0.3c-0.2,0.1-0.5,0.3-0.7,0.5s-0.4,0.4-0.6,0.8c-0.2,0.3-0.3,0.6-0.4,0.9
			c0.2-0.1,0.3-0.2,0.4-0.2c0.2-0.1,0.4-0.1,0.7-0.1c0.4,0,0.8,0.1,1.1,0.5c0.3,0.3,0.5,0.7,0.5,1.3
			C321.5,496.2,321.4,496.6,321,497 M320.6,495c-0.2-0.5-0.5-0.7-1-0.7c-0.4,0-0.7,0.1-0.8,0.4c-0.1,0.2-0.1,0.4-0.1,0.7
			c0,0.4,0.1,0.9,0.3,1.3s0.5,0.6,0.9,0.6c0.3,0,0.6-0.1,0.7-0.4s0.2-0.6,0.2-1C320.8,495.6,320.7,495.3,320.6,495"/>
	</g>
	<g>
		<g>
			<defs>
				<path id="SVGID_1_" d="M325.7,347.5l-26.5,0.1l-51,0.3l0.4,83.2c-0.1,14.3-0.4,23.4,18.7,40.9s45.8,31.6,45.8,31.6h0.1
					c0,0,26.6-14.4,45.5-32.1s18.6-26.8,18.3-41.1l-0.4-83.2L325.7,347.5z"/>
			</defs>
			<clipPath id="SVGID_00000151536932258918405650000004897660268171684743_">
				<use xlink:href="#SVGID_1_"  style="overflow:visible;"/>
			</clipPath>
			<polyline style="clip-path:url(#SVGID_00000151536932258918405650000004897660268171684743_);fill:#3F6CB1;" points="291,488.7 
				283.9,488.8 297.8,442.4 304.9,442.3 			"/>
		</g>
		<g>
			<defs>
				<path id="SVGID_00000043418671928894476940000002851936770678768789_" d="M325.7,347.5l-26.5,0.1l-51,0.3l0.4,83.2
					c-0.1,14.3-0.4,23.4,18.7,40.9s45.8,31.6,45.8,31.6h0.1c0,0,26.6-14.4,45.5-32.1s18.6-26.8,18.3-41.1l-0.4-83.2L325.7,347.5z"/>
			</defs>
			<clipPath id="SVGID_00000088094031300544119310000016630943013955847072_">
				<use xlink:href="#SVGID_00000043418671928894476940000002851936770678768789_"  style="overflow:visible;"/>
			</clipPath>
			<polyline style="clip-path:url(#SVGID_00000088094031300544119310000016630943013955847072_);fill:#3F6CB1;" points="266,488.9 
				258.9,488.9 272.8,442.5 279.9,442.5 			"/>
		</g>
		<g>
			<defs>
				<path id="SVGID_00000075123426299850310990000015948585292535996859_" d="M325.7,347.5l-26.5,0.1l-51,0.3l0.4,83.2
					c-0.1,14.3-0.4,23.4,18.7,40.9s45.8,31.6,45.8,31.6h0.1c0,0,26.6-14.4,45.5-32.1s18.6-26.8,18.3-41.1l-0.4-83.2L325.7,347.5z"/>
			</defs>
			<clipPath id="SVGID_00000080921208835299391390000013090927590411836033_">
				<use xlink:href="#SVGID_00000075123426299850310990000015948585292535996859_"  style="overflow:visible;"/>
			</clipPath>
			<polyline style="clip-path:url(#SVGID_00000080921208835299391390000013090927590411836033_);fill:#3F6CB1;" points="241.8,489 
				234.6,489 248.5,442.6 255.7,442.6 			"/>
		</g>
	</g>
	<g>
		<g>
			<defs>
				<path id="SVGID_00000039837102726484553960000009752091679016994215_" d="M325.7,347.5l-26.5,0.1l-51,0.3l0.4,83.2
					c-0.1,14.3-0.4,23.4,18.7,40.9s45.8,31.6,45.8,31.6h0.1c0,0,26.6-14.4,45.5-32.1s18.6-26.8,18.3-41.1l-0.4-83.2L325.7,347.5z"/>
			</defs>
			<clipPath id="SVGID_00000093170928251759019220000002091344166923957649_">
				<use xlink:href="#SVGID_00000039837102726484553960000009752091679016994215_"  style="overflow:visible;"/>
			</clipPath>
			<polyline style="clip-path:url(#SVGID_00000093170928251759019220000002091344166923957649_);fill:#97C1E9;" points="
				253.8,488.9 246.7,489 260.6,442.6 267.7,442.5 			"/>
		</g>
		<g>
			<defs>
				<path id="SVGID_00000011731350701996831110000004209995827324358535_" d="M325.7,347.5l-26.5,0.1l-51,0.3l0.4,83.2
					c-0.1,14.3-0.4,23.4,18.7,40.9s45.8,31.6,45.8,31.6h0.1c0,0,26.6-14.4,45.5-32.1s18.6-26.8,18.3-41.1l-0.4-83.2L325.7,347.5z"/>
			</defs>
			<clipPath id="SVGID_00000131349239802794039760000004661248115859419785_">
				<use xlink:href="#SVGID_00000011731350701996831110000004209995827324358535_"  style="overflow:visible;"/>
			</clipPath>
			<polyline style="clip-path:url(#SVGID_00000131349239802794039760000004661248115859419785_);fill:#97C1E9;" points="
				278.5,488.8 271.4,488.8 285.3,442.4 292.4,442.4 			"/>
		</g>
		<g>
			<defs>
				<path id="SVGID_00000043444257252429705870000015165089223542438303_" d="M325.7,347.5l-26.5,0.1l-51,0.3l0.4,83.2
					c-0.1,14.3-0.4,23.4,18.7,40.9s45.8,31.6,45.8,31.6h0.1c0,0,26.6-14.4,45.5-32.1s18.6-26.8,18.3-41.1l-0.4-83.2L325.7,347.5z"/>
			</defs>
			<clipPath id="SVGID_00000165953472352466203590000017118806966774796718_">
				<use xlink:href="#SVGID_00000043444257252429705870000015165089223542438303_"  style="overflow:visible;"/>
			</clipPath>
			<polyline style="clip-path:url(#SVGID_00000165953472352466203590000017118806966774796718_);fill:#97C1E9;" points="
				303.7,488.7 296.6,488.7 310.5,442.3 317.6,442.3 			"/>
		</g>
		<g>
			<defs>
				<path id="SVGID_00000152955434482402720330000001342651222897620408_" d="M325.7,347.5l-26.5,0.1l-51,0.3l0.4,83.2
					c-0.1,14.3-0.4,23.4,18.7,40.9s45.8,31.6,45.8,31.6h0.1c0,0,26.6-14.4,45.5-32.1s18.6-26.8,18.3-41.1l-0.4-83.2L325.7,347.5z"/>
			</defs>
			<clipPath id="SVGID_00000116198673922655235570000000217092150247789755_">
				<use xlink:href="#SVGID_00000152955434482402720330000001342651222897620408_"  style="overflow:visible;"/>
			</clipPath>
			<polyline style="clip-path:url(#SVGID_00000116198673922655235570000000217092150247789755_);fill:#97C1E9;" points="
				329.3,488.5 322.1,488.6 336,442.2 343.2,442.1 			"/>
		</g>
		<g>
			<defs>
				<path id="SVGID_00000127738422105779187860000008763020000419876029_" d="M325.7,347.5l-26.5,0.1l-51,0.3l0.4,83.2
					c-0.1,14.3-0.4,23.4,18.7,40.9s45.8,31.6,45.8,31.6h0.1c0,0,26.6-14.4,45.5-32.1s18.6-26.8,18.3-41.1l-0.4-83.2L325.7,347.5z"/>
			</defs>
			<clipPath id="SVGID_00000148621192547661860640000015231911495833189508_">
				<use xlink:href="#SVGID_00000127738422105779187860000008763020000419876029_"  style="overflow:visible;"/>
			</clipPath>
			<polyline style="clip-path:url(#SVGID_00000148621192547661860640000015231911495833189508_);fill:#97C1E9;" points="
				354.3,488.4 347.1,488.4 361,442 368.2,442 			"/>
		</g>
	</g>
	<g>
		<g>
			<defs>
				<path id="SVGID_00000048486844371995431400000013894381610915765123_" d="M325.7,347.5l-26.5,0.1l-51,0.3l0.4,83.2
					c-0.1,14.3-0.4,23.4,18.7,40.9s45.8,31.6,45.8,31.6h0.1c0,0,26.6-14.4,45.5-32.1s18.6-26.8,18.3-41.1l-0.4-83.2L325.7,347.5z"/>
			</defs>
			<clipPath id="SVGID_00000003082855357708511080000012844736614832045448_">
				<use xlink:href="#SVGID_00000048486844371995431400000013894381610915765123_"  style="overflow:visible;"/>
			</clipPath>
			<polyline style="clip-path:url(#SVGID_00000003082855357708511080000012844736614832045448_);fill:#3F6CB1;" points="
				316.6,488.6 309.4,488.6 323.3,442.2 330.5,442.2 			"/>
		</g>
		<g>
			<defs>
				<path id="SVGID_00000155141700045548037550000013468765203631573652_" d="M325.7,347.5l-26.5,0.1l-51,0.3l0.4,83.2
					c-0.1,14.3-0.4,23.4,18.7,40.9s45.8,31.6,45.8,31.6h0.1c0,0,26.6-14.4,45.5-32.1s18.6-26.8,18.3-41.1l-0.4-83.2L325.7,347.5z"/>
			</defs>
			<clipPath id="SVGID_00000116222769317174907760000011437275087721439911_">
				<use xlink:href="#SVGID_00000155141700045548037550000013468765203631573652_"  style="overflow:visible;"/>
			</clipPath>
			<polyline style="clip-path:url(#SVGID_00000116222769317174907760000011437275087721439911_);fill:#3F6CB1;" points="
				341.9,488.5 334.8,488.5 348.7,442.1 355.8,442.1 			"/>
		</g>
		<g>
			<defs>
				<path id="SVGID_00000047047574561724259850000004616726984246610560_" d="M325.7,347.5l-26.5,0.1l-51,0.3l0.4,83.2
					c-0.1,14.3-0.4,23.4,18.7,40.9s45.8,31.6,45.8,31.6h0.1c0,0,26.6-14.4,45.5-32.1s18.6-26.8,18.3-41.1l-0.4-83.2L325.7,347.5z"/>
			</defs>
			<clipPath id="SVGID_00000127756622780343088130000007620414962003548818_">
				<use xlink:href="#SVGID_00000047047574561724259850000004616726984246610560_"  style="overflow:visible;"/>
			</clipPath>
			<polyline style="clip-path:url(#SVGID_00000127756622780343088130000007620414962003548818_);fill:#3F6CB1;" points="
				366.5,488.3 359.3,488.4 373.2,442 380.4,441.9 			"/>
		</g>
	</g>
</g>
</svg>
