<?xml version="1.0" encoding="UTF-8"?>
<svg id="Camada_1" xmlns="http://www.w3.org/2000/svg" version="1.1" viewBox="0 0 1000 1000">
  <!-- Generator: Adobe Illustrator 29.1.0, SVG Export Plug-In . SVG Version: 2.1.0 Build 142)  -->
  <defs>
    <style>
      .st0 {
        fill: #fff;
      }

      .st1 {
        fill: #010101;
      }

      .st2 {
        fill: #ce2044;
      }
    </style>
  </defs>
  <g id="Layer_2">
    <path class="st1" d="M994.18,242.27c-3.84-68.79-34.88-130.54-53.11-167.34l-2.24-4.48-8-16,1.6,17.92c2.24,24.64,7.68,109.11-17.6,157.1-31.36,64.63-122.87,58.55-152.94,56.31l-2.24-.32c-49.59-3.2-210.53-9.28-259.81-8.96-65.27.32-137.26,5.44-195.18,9.92-28.16,2.24-52.79,3.84-69.11,4.48-1.28,0-3.2.32-6.08.64-80.95,7.36-132.46-16.32-152.3-71.03-12.16-33.6-11.84-99.83-11.84-131.82v-22.72l-6.4,11.84c-15.36,28.16-43.51,80.63-53.11,167.66-5.12,102.71,47.99,139.18,88.63,158.06,42.23,19.52,85.43,22.4,99.83,23.36h.96-.32c3.2.64,6.4.64,9.6.96,4.48.32,9.28.64,13.76,1.28-7.68,1.28-17.6,3.2-26.56,4.8-9.28,1.6-18.24,3.2-23.04,4.16-9.6,1.92-50.23,11.52-72.63,19.2-18.88,6.4-38.72,15.68-39.04,16l-3.52,1.6,2.56,3.2c.32.32,7.04,9.6,14.08,16.64,14.4,14.08,54.39,39.36,102.71,33.6,38.4-4.8,59.19-13.76,67.19-17.92,2.56,8.32,8.64,27.52,14.4,42.55,17.6,43.19,56.95,125.74,71.99,154.22,12.16,23.36,24,43.83,31.68,57.27l2.88,5.12c-2.56,8.96-8.96,14.4-13.44,18.56-1.28.96-2.24,1.92-3.2,3.2l-.96.96v1.28c-.32,8-2.24,79.67,46.39,132.14l.64.64.96.32c24.32,9.28,55.99,18.88,106.87,18.88s95.67-12.48,111.35-20.16l.64-.32.64-.64c33.92-40,49.59-100.79,49.91-122.55v-1.92l-.96-.96c-.96-.96-1.6-1.6-2.88-2.56-5.12-5.12-11.84-11.2-15.36-26.24,4.16-7.04,12.16-24,18.88-38.08,3.52-7.68,7.04-14.4,8.64-17.6,14.4-27.84,56.31-118.07,72.95-160.62,10.56-26.88,16.32-40.32,19.2-46.07,7.36,3.84,27.2,12.8,64.63,16.64,48.63,5.12,95.03-27.84,107.83-45.43,2.24-3.2,5.76-7.04,5.76-7.04l3.2-3.2-4.16-1.92c-.32,0-1.92-.96-9.28-3.2l-26.88-9.28-26.88-9.28c-7.04-2.56-40-9.6-64.31-15.04l-18.24-3.84,5.76-.96c56.31-10.56,203.82-36.48,195.5-183.02"/>
    <path class="st2" d="M18.94,212.84c8-41.91,21.44-80.95,40-118.71l.32-.64h.64v.96-.96h.96v.96c-.64,11.2-.96,22.72-.96,34.56,0,27.84,1.92,55.99,8,81.27l.64,2.56-1.92-1.6c-8-7.04-16-15.36-24.32-22.72-7.36,8.32-14.4,17.28-21.76,25.28l-1.92,1.92.32-2.88Z"/>
    <path class="st2" d="M979.78,195.56l-.96.32.96-.32c-10.88-35.52-20.16-71.03-38.08-103.67l-1.28.32c.64,11.2.96,22.4.96,33.6,0,27.2-2.24,53.75-6.72,79.67l-.32,1.28,1.28-.64c8.64-4.16,16.96-9.6,25.6-13.44l21.44,15.36-2.88-12.48Z"/>
    <path class="st2" d="M633.59,574.39l-1.6.96c-12.16,5.12-24.32,10.56-37.44,13.44-8.64,2.24-17.28,3.2-25.6,3.2-26.56,0-51.83-11.2-67.51-34.88l-.64-.96-.64.64c-3.2,2.88-5.12,6.08-8.32,9.28-16.64,19.2-40.96,26.56-65.59,26.56-19.2,0-38.72-4.48-55.03-11.2l-1.6-.96.64,1.6c12.48,33.28,20.16,70.07,20.16,106.87,0,16.64-1.6,33.28-5.12,49.59-2.24,11.2-6.08,23.36-9.28,34.56l-.64,1.6,1.6-.96c35.2-18.88,78.39-28.16,121.59-28.16,40.64,0,81.27,8.64,115.19,25.6,5.44,2.24,10.88,6.08,15.68,7.68l1.28.64-.64-1.28c-9.92-29.12-15.68-60.15-15.68-92.79v-7.36c0-35.52,7.36-70.39,17.92-101.75l1.28-1.92Z"/>
    <path class="st2" d="M288.03,608.63c-3.84-4.8-7.04-9.6-8-15.68l-.32-1.92,1.6.96c6.4,4.16,13.44,5.76,20.48,5.76,14.72,0,30.08-7.04,41.91-15.36l.64-.32.64.64.32.32-.64.64.64-.64.32.32v.32c-1.6,15.04-7.04,32.32-23.04,38.08-2.56.64-4.8.96-7.04.96-10.88-.32-19.84-6.4-27.52-14.08"/>
    <path class="st2" d="M663.34,602.87c-3.2-5.12-5.12-10.56-6.4-16.96l-.32-1.92,1.6,1.28c8,6.4,17.92,8.96,28.16,8.96,11.84,0,24.32-3.84,33.92-9.92l1.92-.96-.96,2.24c-4.8,13.44-16.64,27.84-31.04,30.72-1.28.32-2.56.32-3.52.32-9.28-.64-17.92-5.44-23.36-13.76"/>
    <path class="st2" d="M681.58,622.71c1.92.32,3.84.64,5.44.64,5.44,0,10.88-1.28,16-3.2l1.6-.64-.64,1.6c-19.84,49.59-43.83,97.59-68.47,144.94l-.96,1.6-.64-1.6c-5.12-13.44-6.4-28.16-6.4-42.87,0-10.88.96-21.76,1.28-32.96,3.52-31.68,11.2-62.71,20.8-92.15l.64-1.6.96,1.6c6.72,11.2,17.92,22.72,30.4,24.64"/>
    <path class="st2" d="M368.98,766.37c-29.76-45.75-52.47-93.75-74.55-142.7l-.96-2.24,1.92.96c5.76,3.2,13.76,5.76,21.44,5.76,5.12,0,9.92-.96,14.08-3.84,9.6-6.72,15.36-17.28,19.2-27.84l.64-1.6.96,1.6c16.32,33.28,24.32,73.59,24.32,113.59,0,18.88-1.6,37.76-5.12,55.67v.32l-.32.32-.96.96-.64-.96Z"/>
    <path class="st2" d="M395.22,918.99h0c-30.72-33.6-41.91-76.47-43.83-122.23v-.32l.32-.32c40-29.12,93.43-44.47,146.54-44.47,34.56,0,68.79,6.72,98.87,20.48,19.2,8.64,37.76,17.92,54.39,31.68l-.64.64.64-.64.32.32v.64c-5.12,42.55-20.48,80.95-47.35,113.91v.32h-.32c-32,12.48-70.07,19.52-107.83,19.52-35.52-.64-71.03-6.72-101.11-19.52"/>
    <path class="st2" d="M930.51,470.08s-18.88-7.04-23.68-9.28c-51.51-19.52-118.07-31.36-174.38-32.64-5.44-62.71-12.8-102.07-24.96-137.58l-.32-.64h-.64c-29.12-1.6-158.06-7.04-207.97-7.04s-176.3,7.68-205.41,9.28h0l-.32.64c-11.52,33.92-24.96,75.83-31.36,138.22-56.95,3.52-133.74,19.84-185.26,39.36-3.52,1.28-6.4,2.88-8.32,3.52-.96.64-1.6.96-2.24.96,0,0-.32,0-.32.32l-1.6-1.6.64,2.88q0,.32.32.32c8,8.96,37.12,43.83,91.19,45.11h2.88c17.6,0,47.67-3.2,67.51-12.16,5.12-2.24,14.4-6.08,16.96-7.04.96,1.92,3.84,7.04,5.12,11.2,5.76,16,12.8,39.36,17.6,49.27,7.36,15.04,19.52,27.2,39.68,27.52h.96c17.92,0,30.08-14.4,32.32-17.6l.96-.96h-1.28c-49.91-2.56-70.39-29.12-73.59-68.79v-.64h-.64c-5.76-.96-9.6-1.92-11.84-3.2s-3.2-2.88-4.16-5.76c-.32-1.28-.64-2.88-.64-4.16,0-5.12,1.92-10.24,5.44-16.32,3.84-5.12,9.6-10.24,20.8-10.24,4.8,0,10.24.96,17.28,3.2,15.36,5.12,27.84,15.04,36.48,22.4,10.24,9.28,40.32,40.32,58.55,51.51,10.88,6.4,27.2,12.48,43.83,12.48,13.44,0,26.88-3.84,37.76-14.4,23.36-22.72,25.92-42.23,29.12-54.39l.32-.96h-.96c-40-.96-78.07-5.12-112.95-9.92-4.16-.64-5.12-2.24-5.12-3.52,0-1.6,1.92-3.84,5.12-3.84.64,0,1.28,0,1.92.32,0,0,66.23,8.96,111.99,9.28h.96v-.96c.32-5.44.64-15.04.96-25.6v-.96h-.96c-27.52-.64-73.27-3.52-116.79-12.16-3.84-.96-5.12-3.2-5.12-5.12s1.28-3.2,3.84-3.52c.64,0,1.28,0,1.92.32,6.4,1.6,77.43,11.52,115.83,11.52h1.28v-.96c.32-8.32.32-19.84.32-31.04v-.96h-4.16c-24.96,0-61.11-2.56-112.31-10.24-4.16-.64-5.76-2.88-5.76-4.16,0-1.6,1.28-3.2,4.8-3.2h.96s62.71,9.28,111.67,9.28h4.16v-26.24c0-4.8,2.24-6.72,3.52-6.72s3.2,1.6,3.2,6.08c0,3.2.32,13.12.32,24.96v1.6h.96c47.35-1.28,88.95-7.04,108.47-10.56.96-.32,2.24-.32,3.2-.32,3.84,0,5.12,1.6,5.12,3.2s-1.28,3.2-3.2,3.52c-6.4.96-61.11,11.52-113.27,13.12h-.96v.96c0,9.28.32,21.12.64,31.04v.96h.96c35.2-1.28,75.51-2.56,110.39-10.24,1.6-.32,3.2-.64,4.16-.64,4.16,0,5.44,1.6,5.44,3.2s-1.92,3.84-7.04,4.8c-33.92,5.76-83.19,11.52-113.27,11.84h-.96v.96c.32,8.64.32,18.88.96,25.6v.96h.96c55.99-1.28,108.79-9.28,118.07-10.88.64,0,1.28-.32,1.92-.32,3.52,0,5.12,1.92,5.12,3.52s-1.6,3.84-5.76,4.48c-9.92,1.28-75.51,9.6-117.43,10.88h-.96l.32.96c4.16,14.08,5.12,34.88,25.6,52.47,9.92,8.64,23.68,12.48,37.76,12.48s27.84-3.84,40-10.56c18.56-10.88,47.67-42.55,57.91-51.83,8.64-7.36,28.16-25.6,54.39-25.6h.96c13.44.32,19.84,3.84,23.68,7.68,3.2,3.84,3.84,8,4.8,10.56.64,1.6.96,3.84.96,6.08,0,3.2-.96,6.72-4.16,8.64-4.8,2.88-8.96,2.24-13.76,4.48l-.32.32v.64c-3.2,21.76-10.24,46.71-27.52,59.83-9.28,7.04-21.44,11.2-30.72,13.44-9.6,2.24-16.96,2.56-16.96,2.56h-1.6l.96.96s4.16,4.48,5.44,5.76c3.2,2.88,11.52,7.04,23.04,7.04.96,0,2.56,0,3.52-.32,12.48-.96,26.56-10.56,32.64-16.64,9.28-11.84,17.6-36.8,23.68-52.47,2.24-5.76,7.04-15.36,9.28-20.48,5.12,2.56,8,3.84,17.6,8,20.16,8,45.75,11.52,62.71,11.52h2.88c27.84-.96,59.83-17.6,79.03-35.52,3.2-3.2,9.6-10.88,9.6-10.88l.64-.96-1.28-1.28Z"/>
    <path class="st1" d="M528.96,814.68c-3.2,5.12-4.16,10.88-4.16,16.64,0,9.28,3.52,19.2,8.96,25.92.32.64.96.64,1.28.64.64,0,1.28-.32,1.6-.96v-.64c0-5.44-3.52-10.56-3.52-16.64,0-1.28.32-3.2.96-4.48l.64-1.6.96,1.28c5.44,9.28,14.4,14.72,23.68,17.6,3.52.96,7.04,1.28,10.88,1.28,12.16,0,23.68-5.44,31.68-15.36,3.84-5.12,6.72-12.16,6.72-18.88,0-3.2-.64-6.08-2.24-9.28-5.76-11.2-17.6-17.6-29.44-19.52-1.92-.32-4.16-.32-6.08-.32-17.6.96-33.28,8.64-41.91,24.32"/>
    <path class="st1" d="M462.09,861.72c.96,0,2.24-.96,3.2-2.56,4.48-7.04,7.36-16.32,7.36-25.28,0-5.76-1.28-11.52-4.48-16.64l.64-.32-.64.32c-4.8-9.28-14.4-16.32-23.68-19.52-5.12-1.6-10.88-2.56-16.32-2.56-13.12,0-25.92,5.12-33.92,15.68-3.2,4.16-4.8,9.28-4.8,14.72,0,2.88.64,5.44,1.28,8,4.48,11.84,15.68,21.44,27.84,23.68,2.88.64,5.44.96,8,.96,14.08,0,26.56-7.04,35.52-19.2l.96-.96.64,1.28c.32.96.64,2.24.64,3.2,0,2.56-.64,5.12-.96,7.04-.32,3.52-3.2,6.4-3.2,8.96,0,.96.32,1.6.96,2.56.32.64.64.64.96.64"/>
    <path class="st1" d="M398.42,908.43c30.72-13.12,67.51-20.48,103.99-20.48,27.84,0,55.03,4.16,79.35,13.44,6.08,2.88,12.8,4.8,18.88,6.72,1.6-1.92,2.24-2.56,3.2-4.16-29.76-14.72-65.27-21.44-100.79-21.44-38.08,0-75.83,7.68-107.83,22.08,1.28,1.6,1.92,2.56,3.2,3.84"/>
    <path class="st1" d="M424.97,680.94c18.24,23.04,46.07,32.96,73.91,33.28,10.24,0,20.8-1.28,30.72-3.84,46.71-13.12,74.87-63.99,84.79-108.79-1.28-1.28-2.56-1.6-4.48-2.24-5.76,26.24-17.28,52.15-33.6,73.91-19.84,24-48.95,36.16-78.07,36.16-10.24,0-20.48-1.6-30.08-4.8-42.87-13.44-64.95-60.47-69.11-103.03-1.6,0-3.2,0-4.48.96,3.52,29.76,12.16,55.99,30.4,78.39"/>
    <path class="st0" d="M76.85,240.03c24.64,47.35,74.23,62.71,124.46,60.47,28.16-.32,55.35-3.2,83.19-5.12v1.92c-14.08,40-23.36,80.63-29.12,122.23-72.95,2.88-147.82-3.2-201.58-51.83C17.34,330.58,7.74,279.71,15.74,229.15c8.64-10.24,17.6-19.2,26.88-29.44,11.84,12.8,31.04,22.72,34.24,40.32"/>
    <path class="st0" d="M983.94,218.59c1.92,7.04,2.24,14.08,2.88,21.76,3.52,56.31-20.8,107.83-68.79,136.3-52.15,31.68-112.95,42.55-176.94,44.15-.96-5.76-1.92-13.12-2.56-19.52-5.12-36.8-11.84-74.23-22.4-109.75,68.79-.96,152.62,17.6,198.06-46.07,6.08-8.96,12.16-16.96,17.6-26.24,10.24-4.48,19.84-11.2,29.76-16.32,7.68,4.48,14.08,10.88,22.4,15.68"/>
    <path class="st0" d="M722.54,502.72c.32,21.44-6.72,43.83-25.6,54.07-9.28,5.12-19.52,7.04-29.76,6.4-.32-1.92-.96-4.16-.32-6.72,15.68.64,30.72-5.12,39.36-18.24,5.76-9.6,8-20.16,8-32,2.24-1.6,5.12-2.88,8.32-3.52"/>
    <path class="st0" d="M334.1,561.27c-2.88.64-4.16.96-9.28,0-25.28,0-51.83-20.16-50.23-54.39,3.2-.96,6.4-.96,9.28.32,0,19.52,7.68,46.07,49.27,46.07,2.88,4.16,0,4.8.96,8"/>
  </g>
</svg>