<?xml version="1.0" encoding="UTF-8" standalone="no"?>
<!-- Generator: Adobe Illustrator 23.1.1, SVG Export Plug-In . SVG Version: 6.00 Build 0)  -->

<svg
   version="1.1"
   id="Layer_1"
   x="0px"
   y="0px"
   viewBox="0 0 189.79802 250"
   xml:space="preserve"
   sodipodi:docname="21_Logo_Chivas.svg"
   inkscape:version="1.3.2 (091e20e, 2023-11-25, custom)"
   width="189.79802"
   height="250"
   inkscape:export-filename="21_Logo_Chivas.png"
   inkscape:export-xdpi="1658.88"
   inkscape:export-ydpi="1658.88"
   xmlns:inkscape="http://www.inkscape.org/namespaces/inkscape"
   xmlns:sodipodi="http://sodipodi.sourceforge.net/DTD/sodipodi-0.dtd"
   xmlns="http://www.w3.org/2000/svg"
   xmlns:svg="http://www.w3.org/2000/svg"><defs
   id="defs58" /><sodipodi:namedview
   id="namedview58"
   pagecolor="#ffffff"
   bordercolor="#000000"
   borderopacity="0.25"
   inkscape:showpageshadow="2"
   inkscape:pageopacity="0.0"
   inkscape:pagecheckerboard="0"
   inkscape:deskcolor="#d1d1d1"
   inkscape:zoom="1.9823373"
   inkscape:cx="50.949957"
   inkscape:cy="159.15556"
   inkscape:window-width="1920"
   inkscape:window-height="1009"
   inkscape:window-x="1912"
   inkscape:window-y="398"
   inkscape:window-maximized="1"
   inkscape:current-layer="g30" />
<style
   type="text/css"
   id="style1">
	.st0{fill:#FFFFFF;}
	.st1{fill:#002856;}
	.st2{fill:#B0B3B2;}
	.st3{fill:#CE0E2D;}
	.st4{fill:#FFC629;}
	.st5{fill:#3DAE2B;}
	.st6{fill:#C1531B;}
</style>
<g
   id="g58"
   transform="translate(-29.38,-19.52)">
	<g
   id="g33">
		<g
   id="g32">
			<g
   id="g31">
				<g
   id="g30">
					
					<circle
   style="fill:#ffffff;stroke:none;stroke-width:3.76987"
   id="path58"
   cx="124.41566"
   cy="175.23631"
   r="94.283684" /><g
   id="g29"
   transform="matrix(0.9924598,0,0,0.9924598,0.22153118,0.14718477)">
						<g
   id="g28">
							<g
   id="g27">
								<g
   id="g26">
									<path
   class="st1"
   d="m 145.36,47.04 c -0.03,-0.73 -0.13,-1.44 -0.27,-2.14 -0.15,-0.82 -0.4,-1.62 -0.73,-2.38 -0.94,-2.06 -2.53,-3.75 -4.38,-5.01 -2.44,-1.65 -4.76,-2.23 -4.88,-2.26 0.18,-0.68 0.29,-1.43 0.29,-2.27 0,-0.77 0,-1.56 0,-2.34 0,-1.99 0.25,-4.06 -0.73,-5.87 l -0.59,-0.91 c -0.06,-0.08 -0.11,-0.16 -0.19,-0.24 -1.41,-1.71 -3.99,-3.25 -8.36,-3.82 l -2.2,-0.28 v 9.83 c -1.27,0.48 -3.28,1.36 -5.42,2.7 -3.48,2.18 -7.45,5.69 -8.47,11.06 l -0.57,3.06 8.36,-2.35 c -0.77,2.74 -0.95,5.08 -0.95,6.65 0,1.25 0.11,2 0.13,2.09 l 0.39,2.52 2.33,-1.05 c 0.48,-0.23 1.73,-0.56 2.72,-0.73 0.51,-0.1 0.98,-0.17 1.31,-0.22 0.18,-0.03 0.31,-0.04 0.4,-0.06 0.05,0 0.08,-0.01 0.1,-0.02 l 0.36,-0.03 1.25,0.15 c 1.84,0.2 3.53,0.6 4.77,0.96 0.61,0.18 1.08,0.34 1.42,0.46 0.31,0.1 0.37,0.15 0.52,0.19 0.02,0.01 0.03,0.01 0.05,0.02 l 0.34,0.14 0.91,0.71 0.07,0.05 c 0.11,0.09 0.38,0.31 0.73,0.63 0.49,0.45 1.12,1.06 1.64,1.7 l 1.02,1.27 1.51,-0.83 c 0,0 0.04,-0.07 0.07,-0.07 0.05,-0.03 0.11,-0.06 0.19,-0.1 0.27,-0.17 0.55,-0.34 0.81,-0.53 1.38,-0.93 2.63,-2.07 3.65,-3.39 0.64,-0.84 1.18,-1.76 1.58,-2.75 0.22,-0.52 0.37,-1.07 0.5,-1.64 0.06,-0.29 0.12,-0.59 0.16,-0.88 0.04,-0.26 0.07,-0.51 0.1,-0.77 0.04,-0.32 0.07,-0.63 0.07,-0.97 -0.01,-0.12 -0.01,-0.2 -0.01,-0.28 z"
   id="path3" />
									<g
   id="g7">
										<path
   class="st2"
   d="m 118.31,52.25 c 1.63,-0.74 5.13,-1.19 5.13,-1.19 1.68,-6.81 5.04,-10.71 5.04,-10.71 l -9.04,2.81 c -1.72,5.14 -1.13,9.09 -1.13,9.09 z"
   id="path4" />
										<path
   class="st2"
   d="m 125.46,51.18 c 3.98,0.42 7.21,1.72 7.21,1.72 3.71,-6.12 10.67,-6.27 10.67,-6.27 -0.25,-7.36 -8.7,-9.49 -8.7,-9.49 -7.44,5.69 -9.18,14.04 -9.18,14.04 z"
   id="path5" />
										<path
   class="st2"
   d="m 134.43,54.03 c 0,0 1.56,1.18 2.78,2.72 0,0 5.78,-3.2 6.08,-8.25 0.01,-0.01 -5.38,-0.01 -8.86,5.53 z"
   id="path6" />
										<path
   class="st0"
   d="m 133.47,32.94 v -5.58 c 0,0 0.1,-4.54 -8.18,-5.62 v 8.98 c 0,0 -12.26,3.66 -13.93,12.74 l 18.56,-5.24 c -0.01,0.01 3.55,-0.85 3.55,-5.28 z"
   id="path7" />
									</g>
									<g
   id="g9">
										<path
   class="st1"
   d="m 138.72,66.82 c 0,7.58 -6.14,13.72 -13.72,13.72 -7.58,0 -13.72,-6.14 -13.72,-13.72 0,-7.58 6.15,-13.73 13.72,-13.73 7.58,0 13.72,6.15 13.72,13.73 z"
   id="path8" />
										<path
   class="st1"
   d="m 108.79,66.95 c 0,-8.89 7.25,-16.08 16.21,-16.09 v 0 c 8.95,0.01 16.21,7.2 16.21,16.09 v 0 c 0,8.88 -7.27,16.08 -16.21,16.08 v 0 c -8.96,0 -16.21,-7.2 -16.21,-16.08 z m 4.57,0 c 0.01,6.36 5.21,11.52 11.64,11.54 v 0 c 6.43,-0.01 11.62,-5.17 11.63,-11.54 v 0 C 136.61,60.57 131.43,55.42 125,55.41 v 0 c -6.43,0.02 -11.63,5.17 -11.64,11.54 z"
   id="path9" />
									</g>
									<path
   class="st3"
   d="m 70.55,150.2 -0.02,0.04 v 50.64 h 0.19 l -0.18,0.08 c 2.96,6.34 6.98,12.09 11.86,16.99 l 0.33,0.33 v -85.41 l -0.33,0.34 c -4.87,4.91 -8.9,10.64 -11.85,16.99 z m 24.17,77.26 0.09,0.06 c 3.72,2.17 7.68,3.95 11.86,5.29 l 0.25,0.08 V 128.64 h -12.2 z m 24.17,7.89 0.18,0.02 c 1.96,0.19 3.92,0.3 5.93,0.3 2,0 3.98,-0.11 5.93,-0.3 l 0.17,-0.02 V 128.64 h -12.21 z m 24.19,-2.46 0.25,-0.08 c 4.17,-1.34 8.13,-3.12 11.86,-5.29 l 0.1,-0.06 v -98.82 h -12.21 z m 36.38,-82.69 c -2.96,-6.35 -7,-12.08 -11.87,-16.98 l -0.33,-0.33 v 85.39 l 0.33,-0.32 c 4.86,-4.9 8.9,-10.65 11.87,-16.99 l 0.01,-50.72 z"
   id="path10" />
									<g
   id="g12">
										<path
   class="st1"
   d="m 146.67,95.84 -0.34,0.14 -21.33,8.31 -21.68,-8.45 H 83.95 l 3.08,3.28 c 0,0 0.03,0.02 0.12,0.14 0.7,0.81 3.78,4.83 3.76,10.23 v 52.31 c 0,2.86 0.7,5.58 1.82,8.11 2.66,5.91 7.71,10.84 13.01,14.8 4.34,3.23 8.84,5.81 12.41,7.63 3.29,1.69 5.3,2.54 6.14,2.87 l 0.7,0.27 0.71,-0.27 c 0.82,-0.33 2.83,-1.18 6.12,-2.87 3.57,-1.83 8.07,-4.4 12.41,-7.63 5.3,-3.96 10.35,-8.88 13.02,-14.8 1.12,-2.52 1.81,-5.24 1.81,-8.11 v -52.31 c 0,-3.1 0.98,-5.72 1.98,-7.56 0.49,-0.92 1,-1.65 1.36,-2.13 0.18,-0.24 0.32,-0.42 0.42,-0.53 0.1,-0.11 0.14,-0.14 0.14,-0.14 l 3.07,-3.28 h -19.36 z"
   id="path11" />
										<path
   class="st1"
   d="m 124.88,195.78 -0.71,-0.28 c -0.85,-0.33 -2.86,-1.19 -6.16,-2.88 v 0 c -3.57,-1.84 -8.1,-4.42 -12.45,-7.66 v 0 c -5.32,-3.99 -10.41,-8.94 -13.11,-14.93 v 0 c -1.14,-2.55 -1.84,-5.32 -1.84,-8.24 v 0 -52.29 c 0,-0.05 0,-0.08 0,-0.09 v 0 c 0.01,-5.24 -3.01,-9.18 -3.69,-9.96 v 0 c -0.1,-0.11 -0.11,-0.12 -0.12,-0.13 v 0 l -3.58,-3.81 h 20.17 l 21.61,8.42 21.22,-8.27 0.35,-0.13 0.05,-0.02 h 20.18 l -3.6,3.82 c 0,0 0,0 -0.11,0.12 v 0 c -0.09,0.11 -0.24,0.29 -0.41,0.52 v 0 c -0.36,0.48 -0.85,1.19 -1.34,2.09 v 0 c -0.96,1.8 -1.93,4.34 -1.95,7.35 v 0 l 0.01,0.02 v 52.36 c 0,2.92 -0.71,5.68 -1.84,8.24 v 0 c -2.71,5.99 -7.81,10.94 -13.12,14.93 v 0 c -4.36,3.24 -8.87,5.82 -12.45,7.66 v 0 c -3.3,1.69 -5.32,2.55 -6.16,2.88 v 0 l -0.82,0.33 z M 87.26,98.89 c 0.01,0.01 0.04,0.04 0.13,0.15 v 0 c 0.73,0.85 3.84,4.88 3.85,10.38 v 0 c 0,0.03 0,0.03 0,0.06 v 0 52.31 c 0,2.82 0.68,5.48 1.79,7.97 v 0 c 2.63,5.84 7.64,10.74 12.91,14.68 v 0 c 4.31,3.22 8.81,5.78 12.37,7.61 v 0 c 3.29,1.68 5.29,2.54 6.09,2.85 v 0 l 0.59,0.22 0.59,-0.22 c 0.82,-0.31 2.82,-1.17 6.1,-2.85 v 0 c 3.57,-1.83 8.04,-4.39 12.36,-7.61 v 0 c 5.28,-3.94 10.28,-8.83 12.91,-14.68 v 0 c 1.11,-2.49 1.8,-5.15 1.8,-7.97 v 0 -52.31 0 c 0,-0.01 0,-0.01 0,-0.01 v 0 c 0,-3.15 0.99,-5.82 2.01,-7.71 v 0 c 0.51,-0.93 1.02,-1.67 1.39,-2.16 v 0 c 0.18,-0.25 0.34,-0.44 0.44,-0.56 v 0 c 0.09,-0.11 0.14,-0.15 0.14,-0.15 v 0 l 2.56,-2.72 h -18.56 l -0.28,0.11 -21.46,8.36 -21.73,-8.46 H 84.71 Z m 59.41,-2.72 v -0.32 z"
   id="path12" />
									</g>
									<path
   class="st1"
   d="m 125,112.9 c -34.62,0 -62.68,28.06 -62.68,62.68 0,34.61 28.07,62.68 62.68,62.68 34.61,0 62.68,-28.07 62.68,-62.68 C 187.69,140.97 159.61,112.9 125,112.9 Z m 0,121.44 c -32.45,0 -58.75,-26.31 -58.75,-58.75 0,-32.44 26.3,-58.75 58.75,-58.75 32.44,0 58.75,26.31 58.75,58.75 0,32.44 -26.31,58.75 -58.75,58.75 z m 0,-154.38 c -52.81,0 -95.62,42.81 -95.62,95.63 0,52.8 42.82,95.61 95.62,95.61 52.81,0 95.62,-42.81 95.62,-95.61 0,-52.82 -42.81,-95.63 -95.62,-95.63 z M 125,267 c -50.49,0 -91.42,-40.93 -91.42,-91.42 0,-50.49 40.93,-91.42 91.42,-91.42 50.49,0 91.42,40.93 91.42,91.42 0,50.5 -40.93,91.42 -91.42,91.42 z m 0,-180.72 c -49.32,0 -89.3,39.99 -89.3,89.3 0,49.31 39.98,89.29 89.3,89.29 49.31,0 89.3,-39.97 89.3,-89.29 0,-49.32 -39.99,-89.3 -89.3,-89.3 z m 0,154.21 c -35.85,0 -64.9,-29.05 -64.9,-64.9 0,-35.85 29.05,-64.91 64.9,-64.91 35.84,0 64.9,29.06 64.9,64.91 0,35.85 -29.06,64.9 -64.9,64.9 z"
   id="path13" />
									<path
   class="st1"
   d="m 147.05,158.25 c 0,15.94 -22.05,21.54 -22.05,21.54 0,0 -22.05,-5.6 -22.05,-21.54 0,-2.41 0,-50.81 0,-50.81 h 44.11 c -0.01,0 -0.01,48.39 -0.01,50.81 z"
   id="path14" />
									<path
   class="st4"
   d="m 145.23,140.29 c 0,0 -2.32,0.89 -1.24,3.31 0,0 -1.24,1.97 -0.7,5.33 0,0 0.65,4.15 -1.06,6.37 0,0 -1.64,0.2 -3.76,-4.99 0.54,0.44 1.16,0 1.16,0 -0.12,-0.88 0.91,-0.79 0.91,-0.79 -0.29,-0.9 0.59,-0.94 0.59,-0.94 -0.65,-1.24 0.15,-1.24 0.15,-1.24 l -0.35,-0.79 c -0.34,-0.83 0.35,-1.03 0.35,-1.03 0,0 0.29,-2.23 -1.18,-2.91 -1.5,-0.7 -1.63,-2.13 -1.63,-2.13 l -6.92,2.68 0.58,1.57 c 0,0 2.33,-2.12 2.74,0.15 0,0 0.14,1.97 -2.22,0.89 l -0.15,0.94 c 0,0 2.07,0.89 1.19,2.22 0,0 -2.71,1.18 -6.18,-5.68 h -0.59 v 2.92 c 0,0 1.28,0.25 2.48,1.48 l 2.3,2.81 1.55,0.2 c 0,0 -1.58,1.33 -2.72,0.39 l -3.07,-3.36 h -0.48 v 2.33 c 0,0 1.97,-0.16 4.34,3.6 h 2.06 c 0,0 -0.13,2.42 2.97,3.96 l -3.55,2.31 c 0,0 -1.1,0.94 -2.07,0.09 l -3.17,-2.46 h -0.64 v 1.19 l 5.22,3.51 c 0,0 1.35,0.29 2.94,-1.48 0,0 1.32,-1.04 3.45,-1.04 0,0 -0.35,1.33 1.37,2.42 0,0 -0.29,1.14 -0.43,2.37 0,0 0,1.09 -2.23,1.18 0,0 -1.3,-0.19 -1.73,1.04 h 3.7 l 4.04,-4.15 c 0,0 0.31,-1.08 -0.64,-1.91 0,0 1.49,-1.48 0.8,-3.95 0,0 2.11,-2.86 0.59,-8.06 0,0 -0.9,-2.81 0.9,-4.83 -0.01,-0.01 1.21,-1.44 0.33,-3.52 z m -28.91,8.64 c -0.88,-1.33 1.18,-2.22 1.18,-2.22 l -0.14,-0.94 c -2.37,1.07 -2.23,-0.89 -2.23,-0.89 0.4,-2.26 2.73,-0.15 2.73,-0.15 l 0.59,-1.57 -6.92,-2.68 c 0,0 -0.14,1.43 -1.64,2.13 -1.47,0.68 -1.16,2.91 -1.16,2.91 0,0 0.68,0.2 0.34,1.03 l -0.34,0.79 c 0,0 0.79,0 0.14,1.24 0,0 0.87,0.04 0.59,0.94 0,0 1.04,-0.1 0.91,0.79 0,0 0.63,0.44 1.17,0 -2.13,5.19 -3.76,4.99 -3.76,4.99 -1.72,-2.21 -1.08,-6.37 -1.08,-6.37 0.54,-3.36 -0.7,-5.33 -0.7,-5.33 1.08,-2.41 -1.24,-3.31 -1.24,-3.31 -0.88,2.08 0.35,3.5 0.35,3.5 1.79,2.02 0.89,4.83 0.89,4.83 -1.51,5.2 0.58,8.06 0.58,8.06 -0.68,2.47 0.81,3.95 0.81,3.95 -0.95,0.84 -0.65,1.91 -0.65,1.91 l 4.04,4.15 h 3.7 c -0.42,-1.23 -1.73,-1.04 -1.73,-1.04 -2.21,-0.09 -2.21,-1.18 -2.21,-1.18 -0.15,-1.23 -0.43,-2.37 -0.43,-2.37 1.72,-1.09 1.37,-2.42 1.37,-2.42 2.13,0 3.45,1.04 3.45,1.04 1.58,1.77 2.93,1.48 2.93,1.48 l 5.22,-3.51 v -1.19 h -0.65 l -3.16,2.46 c -0.98,0.84 -2.07,-0.09 -2.07,-0.09 l -3.54,-2.31 c 3.1,-1.53 2.96,-3.96 2.96,-3.96 h 2.07 c 2.37,-3.76 4.34,-3.6 4.34,-3.6 v -2.33 h -0.49 l -3.06,3.36 c -1.14,0.94 -2.72,-0.39 -2.72,-0.39 l 1.54,-0.2 2.31,-2.81 c 1.19,-1.24 2.47,-1.48 2.47,-1.48 v -2.92 h -0.6 c -3.44,6.88 -6.16,5.7 -6.16,5.7 z"
   id="path15" />
									<path
   class="st3"
   d="M 125,170.78"
   id="path16" />
									<path
   class="st5"
   d="m 125,114.04 c -8.73,0 -15.81,5.09 -15.81,11.38 0,6.27 7.08,11.39 15.81,11.39 8.74,0 15.8,-5.11 15.8,-11.39 0,-6.29 -7.06,-11.38 -15.8,-11.38 z"
   id="path17" />
									<path
   class="st1"
   d="m 99.14,95.69 4.26,-2.28 c 1.47,-0.78 2.99,-1.06 4.34,-1.12 v 0 l 0.23,-1.19 c 0.99,-4.43 4.42,-6.84 5.55,-7.58 v 0 c -0.11,-0.39 -0.17,-0.77 -0.17,-1.13 v 0 c 0.22,-2.86 2.15,-3.75 2.24,-3.95 v 0 l 1.27,-0.88 1.29,0.85 c 2.41,1.62 5.19,2.12 6.36,2.24 v 0 c 0.24,0.03 0.39,0.04 0.47,0.04 v 0 c 0.05,0 0.2,0 0.51,-0.04 v 0 c 0.38,-0.04 0.95,-0.12 1.63,-0.27 v 0 c 1.35,-0.3 3.12,-0.89 4.72,-1.97 v 0 l 1.29,-0.85 1.27,0.88 c 0.09,0.19 2.03,1.09 2.24,3.95 v 0 c 0,0.35 -0.04,0.73 -0.15,1.13 v 0 c 1.13,0.74 4.55,3.15 5.55,7.58 v 0 l -2.22,0.44 2.22,-0.44 0.24,1.19 c 1.34,0.06 2.86,0.34 4.34,1.12 v 0 l 4.26,2.28 -25.88,10.45 z m 25.86,5.58 0.51,-0.21 c -0.2,0.02 -0.31,0.03 -0.33,0.03 v 0 l -0.19,0.01 -0.18,-0.01 c -0.02,0 -0.13,-0.02 -0.31,-0.03 v 0 z m 12.02,-10.83 c -0.68,-1.18 -1.75,-2.2 -2.47,-2.76 v 0 c -2.62,0.83 -5.86,2.94 -7.3,4.01 v 0 c -0.54,0.4 -0.83,0.64 -0.83,0.64 v 0 l -1.42,1.13 -1.41,-1.13 c 0,0 -0.3,-0.24 -0.85,-0.64 v 0 c -0.54,-0.4 -1.32,-0.95 -2.23,-1.52 v 0 c -1.51,-0.95 -3.42,-1.97 -5.06,-2.5 v 0 c -0.28,0.22 -0.63,0.51 -0.97,0.85 v 0 c -0.56,0.53 -1.1,1.19 -1.5,1.92 v 0 c 0.83,0.41 1.89,0.9 3.1,1.39 v 0 c 2.76,1.14 6.31,2.22 8.92,2.2 v 0 c 3.76,0.05 9.32,-2.26 12.02,-3.59 z M 125,82.95 l 0.05,-2.26 z"
   id="path18" />
									<path
   class="st2"
   d="m 125,56.68 0.1,0.1 c 0,0 6.33,5.43 13.22,5.73 0,0 -2.75,-8.99 -13.32,-8.99 -10.57,0 -13.33,8.99 -13.33,8.99 6.9,-0.3 13.23,-5.73 13.23,-5.73 z m 0,16.51 c 7.69,-3.67 13.43,-2.37 13.43,-2.37 0.98,-1.88 0.59,-5.44 0.59,-5.44 -8.6,-0.59 -14.02,-5.52 -14.02,-5.52 0,0 -5.43,4.93 -14.03,5.52 0,0 -0.39,3.56 0.6,5.44 0,0 5.73,-1.3 13.43,2.37 z m 12.37,-0.37 c 0,0 -8.06,-0.32 -12.37,3.77 -4.31,-4.09 -12.39,-3.77 -12.39,-3.77 0,0 2.63,6.09 12.39,7.87 9.75,-1.78 12.37,-7.87 12.37,-7.87 z M 125,82.95 c 0,0 -4.25,-0.09 -8.1,-2.65 0,0 -1.68,1.18 -1.18,2.65 0,0 5.83,1.99 9.28,4.54 3.45,-2.55 9.28,-4.54 9.28,-4.54 0.5,-1.48 -1.18,-2.65 -1.18,-2.65 -3.85,2.56 -8.1,2.65 -8.1,2.65 z m 14.81,8.59 c -0.78,-3.94 -4.84,-6.32 -4.84,-6.32 -4.54,0.98 -9.96,5.34 -9.96,5.34 0,0 -5.43,-4.35 -9.97,-5.34 0,0 -4.06,2.38 -4.84,6.32 0,0 8.49,4.75 14.81,4.75 6.31,0 14.8,-4.75 14.8,-4.75 z m -1.67,3.47 c -6.71,3.31 -13.14,3.83 -13.14,3.83 0,0 -6.43,-0.53 -13.14,-3.83 0,0 -4.23,-1.3 -7.39,0.39 l 20.53,8.3 20.53,-8.3 c -3.16,-1.69 -7.39,-0.39 -7.39,-0.39 z"
   id="path19" />
									<path
   class="st6"
   d="m 126.42,159.89 v -22.43 h -2.83 v 22.43 c 0,3.25 -3.27,9.27 -3.27,9.27 1.64,1.15 3.25,1.57 4.68,1.62 1.43,-0.05 3.04,-0.47 4.68,-1.62 0,0.01 -3.26,-6.02 -3.26,-9.27 z"
   id="path20" />
									<path
   class="st4"
   d="M 147.04,97.79 125,106.37 102.97,97.79 H 88.45 c 0,0 4.41,4.68 4.41,11.7 v 52.31 c 0,2.56 0.6,4.99 1.65,7.31 2.44,5.44 7.25,10.2 12.41,14.04 4.22,3.15 8.64,5.67 12.13,7.47 3.25,1.66 5.22,2.49 5.95,2.78 0.74,-0.29 2.71,-1.12 5.95,-2.78 3.5,-1.8 7.92,-4.32 12.14,-7.47 5.15,-3.84 9.98,-8.6 12.39,-14.04 1.04,-2.32 1.66,-4.75 1.66,-7.31 v -52.31 c 0,-7.02 4.41,-11.7 4.41,-11.7 z m 0.01,60.46 c 0,15.94 -22.05,21.54 -22.05,21.54 0,0 -22.05,-5.6 -22.05,-21.54 0,-2.41 0,-50.81 0,-50.81 h 44.11 c -0.01,0 -0.01,48.39 -0.01,50.81 z"
   id="path21" />
									<path
   class="st3"
   d="m 155.51,131.5 h -2.2 l -1.17,1.88 -1.17,-1.88 h -2.27 l 2.32,3.2 -2.42,3.3 h 2.23 l 1.23,-1.96 1.23,1.96 h 2.29 l -2.4,-3.33 z m -27.16,50.67 h -2.21 l -1.14,1.88 -1.14,-1.88 h -2.21 l 2.32,3.16 -2.41,3.33 h 2.3 l 1.14,-1.88 1.14,1.88 h 2.3 l -2.41,-3.33 z m 22.48,-75.63 1.23,-1.97 1.23,1.97 h 2.29 l -2.4,-3.32 2.33,-3.17 h -2.2 l -1.17,1.88 -1.17,-1.88 h -2.27 l 2.32,3.2 -2.42,3.29 z m 3.19,56.42 h -2.19 l -1.16,1.88 -1.18,-1.88 h -2.26 l 2.3,3.18 -2.39,3.31 h 2.21 l 1.25,-1.96 1.21,1.96 h 2.31 l -2.41,-3.33 z m -57.31,-56.42 1.22,-1.97 1.24,1.97 h 2.24 l -2.42,-3.29 2.32,-3.2 h -2.27 l -1.17,1.88 -1.17,-1.88 h -2.21 l 2.32,3.17 -2.4,3.32 z m 6.05,56.42 h -2.24 l -1.19,1.88 -1.17,-1.88 h -2.18 l 2.32,3.16 -2.42,3.33 h 2.31 l 1.21,-1.96 1.26,1.96 h 2.2 l -2.39,-3.31 z m -4.83,-26.93 1.24,1.96 h 2.24 l -2.42,-3.3 2.32,-3.2 h -2.27 l -1.17,1.88 -1.17,-1.88 h -2.21 l 2.32,3.17 -2.4,3.33 h 2.29 z"
   id="path22" />
									<path
   class="st1"
   d="m 194.14,82.86 v -0.6 l -0.02,-0.05 c -0.06,-5.88 -2.21,-10.5 -4.35,-13.62 -1.08,-1.59 -2.16,-2.8 -3,-3.65 -0.41,-0.42 -0.77,-0.75 -1.03,-0.97 -0.13,-0.11 -0.23,-0.2 -0.31,-0.26 -0.09,-0.08 -0.08,-0.08 -0.15,-0.12 -4.03,-3.33 -8.84,-4.37 -13.19,-4.36 -4.04,0 -7.76,0.86 -10.52,1.72 -1.39,0.42 -2.52,0.85 -3.33,1.18 -0.4,0.18 -0.73,0.31 -0.95,0.41 -0.2,0.1 -0.27,0.12 -0.38,0.18 -5.45,2.44 -9.65,2.84 -11.91,2.84 -0.22,0 -0.44,-0.01 -0.63,-0.01 l -2.84,-0.08 0.55,2.78 c 0.45,2.23 1.69,3.69 2.56,4.47 -2.29,2.8 -2.59,6.22 -2.61,8.43 l 0.01,0.72 0.02,3.6 3.23,-1.58 c 0.28,-0.14 0.66,-0.33 1.08,-0.54 -0.03,0.3 -0.03,0.58 -0.03,0.85 -0.01,1.97 0.51,3.44 1.09,4.38 l 1.32,2.15 1.99,-1.55 c 0.42,-0.32 1.17,-0.91 1.96,-1.54 1.33,4.22 4.53,6.63 7.33,7.71 2.47,0.99 4.74,1.21 5.78,1.26 0.27,0.49 0.4,1.05 0.4,1.75 0.02,1.31 -0.54,2.99 -1.12,4.22 l -1.85,3.97 4.3,-0.8 c 1.83,-0.33 3.57,-1.13 4.79,-2.59 1.83,-2.18 2.04,-4.72 2.05,-6.35 0,-0.47 -0.02,-0.88 -0.04,-1.2 5.31,-3.86 6.09,-8.78 6.03,-10.71 v -0.07 l -0.03,-0.63 v -0.07 -0.04 -0.46 c 0.03,-3.17 -1.36,-5.67 -3.05,-7.27 -1.69,-1.62 -3.64,-2.49 -5.12,-3.01 l -3.88,-1.35 0.95,4 c 0.11,0.52 0.18,0.98 0.18,1.33 0,0.67 -0.14,1.22 -0.38,1.72 -0.36,0.77 -0.95,1.31 -1.52,1.67 -0.29,0.18 -0.55,0.3 -0.74,0.38 -0.09,0.04 -0.17,0.06 -0.2,0.07 -0.01,0 -0.02,0 -0.02,0 -0.43,0.1 -0.84,0.13 -1.22,0.13 -1.33,-0.01 -2.16,-0.47 -2.9,-1.17 -0.71,-0.69 -1.2,-1.68 -1.36,-2.29 l -0.03,-0.08 -0.02,-0.08 c -0.28,-0.73 -0.37,-1.36 -0.37,-1.95 0,-1.5 0.69,-2.81 1.78,-3.98 1.07,-1.13 2.51,-2 3.54,-2.43 v 0 c 1.56,-0.53 2.99,-0.72 4.31,-0.72 2.43,0 4.47,0.69 5.95,1.42 0.73,0.36 1.33,0.73 1.71,1 0.39,0.27 0.58,0.45 0.59,0.44 4.51,4.1 5.77,8.57 5.79,12.75 0,3.14 -0.78,6.09 -1.59,8.23 -0.39,1.08 -0.8,1.95 -1.11,2.55 -0.14,0.3 -0.27,0.53 -0.35,0.69 -0.04,0.08 -0.08,0.14 -0.09,0.17 -0.02,0.02 -0.02,0.02 -0.02,0.02 l -12.18,19.45 -0.03,0.06 c -8.23,14.6 -10.75,24.66 -10.75,31.67 -0.03,6.92 2.56,10.78 4.24,12.38 l 2.08,2.03 1.45,-2.5 c 1.58,-2.74 1.84,-5.84 1.86,-8.21 0,-1.03 -0.05,-1.92 -0.12,-2.56 0,-0.03 -0.01,-0.06 -0.01,-0.09 1.84,-0.58 2.88,-2.23 3.24,-3.39 0.34,-0.97 0.44,-1.86 0.5,-2.48 1.33,-0.59 2.25,-1.75 2.67,-2.82 0.53,-1.27 0.62,-2.49 0.64,-3.5 -0.01,-0.65 -0.05,-1.2 -0.1,-1.6 -0.02,-0.21 -0.05,-0.38 -0.07,-0.5 v -0.03 l -0.04,-0.22 c -0.26,-1.29 -0.36,-2.56 -0.36,-3.73 0,-2.95 0.65,-5.5 1.34,-7.34 0.35,-0.92 0.69,-1.65 0.95,-2.15 0.14,-0.26 0.25,-0.45 0.32,-0.58 0.04,-0.07 0.06,-0.12 0.08,-0.14 v -0.01 l 0.03,-0.05 10.1,-16.34 c 6.7,-10.51 7.14,-18.25 7.13,-20.07 0.01,-0.09 0,-0.17 0,-0.22 0,-0.02 0,-0.05 0,-0.07 z m -86.24,-14.61 0.56,-2.79 -2.85,0.09 c -0.19,0.01 -0.4,0.01 -0.63,0.01 -2.26,0 -6.47,-0.4 -11.95,-2.86 v 0 c -0.95,-0.44 -7.47,-3.43 -15.14,-3.47 -4.36,-0.01 -9.19,1.04 -13.22,4.39 -0.52,0.41 -2.43,2.02 -4.46,4.97 -2.17,3.17 -4.35,7.89 -4.35,13.88 0,0.05 0,0.11 0,0.2 l -0.01,0.02 v 0.19 0.02 c 0,0.07 0,0.16 0,0.28 -0.01,1.84 0.45,9.57 7.14,20.07 l 10.05,16.26 1.93,-1.19 -1.92,1.2 c 0.03,0.04 2.75,4.42 2.73,10.3 0,1.18 -0.11,2.44 -0.37,3.72 l -0.04,0.22 v 0.07 c -0.05,0.34 -0.15,1.12 -0.15,2.07 0,1 0.1,2.24 0.62,3.51 0.41,1.07 1.35,2.22 2.7,2.82 0.04,0.63 0.16,1.51 0.48,2.48 0.35,1.16 1.39,2.81 3.23,3.39 -0.06,0.65 -0.12,1.54 -0.13,2.65 0.02,2.36 0.27,5.45 1.83,8.19 l 1.46,2.51 2.08,-2.02 c 1.69,-1.62 4.29,-5.47 4.27,-12.4 0,-7.01 -2.51,-17.07 -10.75,-31.67 L 80.99,115.31 68.75,95.79 v 0 c -0.4,-0.68 -3.14,-5.82 -3.1,-11.58 0.02,-4.19 1.27,-8.65 5.79,-12.75 l -0.04,-0.12 0.07,0.1 c 0.37,-0.33 3.69,-2.88 8.21,-2.84 1.31,0 2.75,0.19 4.31,0.72 1.03,0.42 2.47,1.3 3.55,2.43 1.1,1.17 1.79,2.48 1.79,3.98 0,0.57 -0.11,1.22 -0.37,1.98 l -0.03,0.05 v 0.05 c -0.18,0.63 -0.68,1.62 -1.39,2.31 -0.74,0.7 -1.58,1.17 -2.91,1.18 -0.37,0 -0.79,-0.04 -1.27,-0.15 -0.37,-0.12 -1.87,-0.83 -2.42,-2.1 -0.24,-0.49 -0.37,-1.06 -0.37,-1.73 0,-0.39 0.05,-0.84 0.16,-1.35 l 0.89,-3.98 -3.84,1.35 c -1.46,0.52 -3.4,1.39 -5.1,3.01 -1.69,1.6 -3.08,4.1 -3.06,7.25 v 0.6 l -0.02,0.61 v 0.04 0.04 c -0.05,1.93 0.73,6.86 6.05,10.71 -0.04,0.32 -0.06,0.72 -0.06,1.2 0.01,1.64 0.23,4.17 2.05,6.36 1.22,1.45 2.97,2.26 4.8,2.59 l 4.33,0.78 -1.88,-3.97 c -0.59,-1.22 -1.15,-2.89 -1.14,-4.2 0,-0.69 0.13,-1.27 0.4,-1.75 1.03,-0.05 3.3,-0.25 5.79,-1.26 2.79,-1.08 6.01,-3.49 7.33,-7.71 0.79,0.62 1.53,1.21 1.94,1.52 l 1.98,1.57 1.33,-2.15 c 0.59,-0.94 1.11,-2.42 1.1,-4.38 0,-0.27 -0.01,-0.55 -0.03,-0.85 0.43,0.21 0.81,0.4 1.08,0.53 l 3.16,1.57 0.11,-4.24 c -0.02,-2.27 -0.34,-5.68 -2.62,-8.47 0.92,-0.78 2.09,-2.2 2.58,-4.49 z"
   id="path23" />
									<g
   id="g25">
										<path
   class="st4"
   d="m 149.37,79.33 -0.48,2.39 c -0.22,0.95 -0.3,1.77 -0.3,2.48 0,1.6 0.4,2.6 0.76,3.2 1.13,-0.87 4.82,-3.79 4.82,-3.79 l 0.34,1.97 c 1.57,8.78 11.43,8.8 11.86,8.8 l 0.57,-0.02 0.35,0.46 c 0.86,1.03 1.18,2.3 1.18,3.55 0,1.88 -0.7,3.78 -1.34,5.17 1.47,-0.28 2.66,-0.87 3.48,-1.83 1.26,-1.49 1.51,-3.52 1.51,-4.9 0,-0.88 -0.1,-1.48 -0.1,-1.5 l -0.14,-0.75 0.63,-0.43 c 5.09,-3.46 5.6,-7.69 5.6,-9.22 l -0.02,-0.59 V 84.2 84.08 83.6 c 0,-5.03 -4.1,-7.23 -6.65,-8.13 0.14,0.65 0.23,1.26 0.23,1.85 0,0.98 -0.21,1.89 -0.59,2.7 -1.2,2.53 -3.83,3.3 -3.94,3.33 -5.12,1.15 -7.62,-2.68 -8.25,-4.91 -0.35,-0.96 -0.51,-1.87 -0.51,-2.72 0,-4.47 4.18,-7.46 6.78,-8.52 l 0.06,-0.03 h 0.03 c 8.41,-2.86 14.53,2.36 14.79,2.59 5.03,4.53 6.54,9.77 6.54,14.43 0,7.02 -3.45,12.76 -3.49,12.85 l -12.18,19.43 c -8.1,14.38 -10.45,24.11 -10.45,30.56 0,6.38 2.29,9.52 3.57,10.78 1.25,-2.12 1.55,-4.91 1.55,-7.07 0,-1.88 -0.22,-3.28 -0.22,-3.31 l -0.21,-1.28 1.28,-0.1 c 2.66,-0.19 2.76,-3.89 2.76,-4.48 l -0.03,-1.01 0.9,-0.25 c 2.02,-0.53 2.42,-2.76 2.42,-4.42 0,-1.05 -0.16,-1.89 -0.16,-1.9 -0.29,-1.46 -0.42,-2.86 -0.42,-4.18 0,-6.57 2.95,-11.28 3.1,-11.5 l 10.06,-16.29 c 7.22,-11.33 6.8,-19.06 6.8,-19.15 l -0.03,-0.03 v -0.06 c 0.15,-11.08 -7.88,-17.36 -7.97,-17.42 -9.98,-8.31 -25.85,-0.69 -26.02,-0.61 -6.37,2.86 -11.24,3.12 -13.58,3.05 0.52,2.57 2.44,3.68 2.53,3.74 l 1.4,0.79 -1.18,1.11 c -2.32,2.18 -2.76,5.48 -2.76,7.7 v 0.71 c 1.36,-0.63 5.12,-2.52 5.12,-2.52 z"
   id="path24" />
										<path
   class="st4"
   d="m 74.97,118.32 c 0.14,0.23 3.08,4.94 3.08,11.5 0,1.32 -0.12,2.72 -0.41,4.18 0,0.01 -0.15,0.85 -0.15,1.9 0,1.66 0.39,3.88 2.42,4.42 l 0.9,0.25 -0.02,1.01 c 0,0.59 0.11,4.29 2.75,4.48 l 1.29,0.1 -0.2,1.28 c -0.01,0.03 -0.23,1.43 -0.23,3.31 0,2.15 0.29,4.95 1.52,7.07 1.29,-1.25 3.59,-4.4 3.59,-10.78 0,-6.45 -2.34,-16.17 -10.45,-30.56 L 66.89,97.05 c -0.06,-0.09 -3.5,-5.83 -3.5,-12.85 0,-4.66 1.51,-9.9 6.54,-14.43 0.26,-0.23 6.38,-5.45 14.78,-2.59 h 0.04 l 0.03,0.03 c 2.64,1.06 6.82,4.05 6.82,8.52 0,0.86 -0.17,1.76 -0.5,2.72 -0.64,2.23 -3.13,6.06 -8.26,4.91 -0.12,-0.03 -2.74,-0.8 -3.94,-3.33 -0.39,-0.81 -0.59,-1.71 -0.59,-2.7 0,-0.59 0.07,-1.2 0.21,-1.85 -2.54,0.9 -6.64,3.1 -6.64,8.13 l 0.01,0.48 0.02,0.12 -0.03,0.11 -0.02,0.59 c 0,1.53 0.5,5.76 5.59,9.22 l 0.63,0.43 -0.12,0.75 c 0,0.01 -0.12,0.62 -0.12,1.5 0,1.38 0.25,3.41 1.52,4.9 0.81,0.97 2,1.55 3.5,1.83 -0.66,-1.39 -1.36,-3.29 -1.36,-5.17 0,-1.26 0.33,-2.52 1.18,-3.55 l 0.36,-0.46 0.58,0.02 c 0.4,0 10.27,-0.02 11.84,-8.8 l 0.34,-1.97 c 0,0 3.7,2.92 4.81,3.79 0.38,-0.6 0.77,-1.59 0.77,-3.2 0,-0.71 -0.08,-1.53 -0.28,-2.48 l -0.51,-2.39 c 0,0 3.79,1.89 5.1,2.53 l 0.02,-0.71 c 0,-2.21 -0.44,-5.52 -2.77,-7.7 l -1.18,-1.11 1.4,-0.79 c 0.1,-0.06 2.01,-1.17 2.53,-3.74 -2.34,0.08 -7.21,-0.19 -13.58,-3.05 -0.16,-0.09 -16.04,-7.7 -26.02,0.61 -0.08,0.06 -8.13,6.34 -7.97,17.42 v 0.06 l -0.01,0.03 c 0,0.09 -0.43,7.82 6.78,19.15 z"
   id="path25" />
									</g>
								</g>
							</g>
						</g>
					</g>
					<path
   class="st3"
   d="m 130.39256,25.444985 c -0.44661,-0.387059 -1.04208,-0.714571 -1.60779,-1.012309 -0.93291,-0.49623 -1.75665,-0.803892 -2.81858,-1.032158 v 6.133401 c 0.97261,-0.327511 2.83843,-1.081781 4.43629,-2.342205 0.26797,-0.208416 0.58555,-0.535928 0.59548,-0.843591 0.01,-0.258039 -0.19849,-0.565702 -0.6054,-0.903138 z"
   id="path29"
   style="stroke-width:0.99246" />
					<path
   class="st3"
   d="m 131.36517,33.057152 v -4.07901 c -0.89322,0.674873 -2.57047,1.607785 -5.67687,2.659792 -0.13895,0.0397 -9.98415,2.729265 -12.96153,9.785654 l 15.20449,-4.307276 c 0.17864,-0.04962 3.43391,-0.803892 3.43391,-4.05916 z"
   id="path30"
   style="stroke-width:0.99246" />
				</g>
			</g>
		</g>
	</g>
	<g
   id="g57"
   transform="matrix(0.9924598,0,0,0.9924598,0.22153118,0.14718477)">
		<g
   id="g56">
			<path
   class="st0"
   d="m 58.52,146.01 c 0.98,-2.12 0.11,-4.53 -1.97,-5.49 -2.1,-0.97 -4.5,-0.08 -5.48,2.04 -0.5,1.07 -0.53,2.44 -0.1,3.66 l -2,0.61 c -0.64,-1.7 -0.62,-3.7 0.13,-5.32 1.53,-3.3 5.2,-4.7 8.44,-3.2 3.21,1.49 4.46,5.21 2.91,8.56 -0.74,1.6 -2.19,2.92 -3.8,3.5 l -0.99,-1.98 c 1.25,-0.4 2.34,-1.27 2.86,-2.38 z"
   id="path33" />
			<path
   class="st0"
   d="m 57.28,155.13 -9.83,-2.85 -1.49,5.13 -2.05,-0.6 2.14,-7.4 11.89,3.44 z"
   id="path34" />
			<path
   class="st0"
   d="m 44.49,165.75 c -0.23,1.86 0.79,3.18 2.75,3.42 l 7.16,0.88 -0.29,2.35 -7.16,-0.88 c -3.23,-0.4 -4.98,-2.7 -4.57,-6.03 0.41,-3.35 2.67,-5.21 5.9,-4.81 l 7.16,0.88 -0.29,2.35 -7.16,-0.88 c -1.94,-0.24 -3.27,0.86 -3.5,2.72 z"
   id="path35" />
			<path
   class="st0"
   d="m 51.53,184.76 c -1.36,0.07 -2.44,-0.68 -2.85,-2.01 -0.21,1.66 -1.34,2.71 -2.98,2.8 -2.12,0.11 -3.5,-1.56 -3.65,-4.39 l -0.3,-5.65 12.36,-0.67 0.3,5.49 c 0.12,2.64 -0.98,4.33 -2.88,4.43 z m -5.67,-1.67 c 1.01,-0.05 1.58,-0.99 1.48,-2.49 l -0.16,-3 -3.27,0.18 0.16,3 c 0.06,1.5 0.73,2.36 1.79,2.31 z m 5.11,-0.72 c 0.94,-0.05 1.44,-0.82 1.36,-2.04 l -0.16,-3 -3,0.16 0.16,3 c 0.07,1.22 0.67,1.93 1.64,1.88 z"
   id="path36" />
			<path
   class="st0"
   d="m 53.65,205.26 c -3.43,1.1 -6.72,-0.7 -7.89,-4.33 l -1.55,-4.81 11.78,-3.79 1.57,4.9 c 1.15,3.56 -0.46,6.92 -3.91,8.03 z m -0.76,-2.3 c 2.31,-0.74 3.39,-2.93 2.68,-5.13 l -0.84,-2.61 -7.81,2.51 0.87,2.69 c 0.7,2.18 2.81,3.28 5.1,2.54 z"
   id="path37" />
			<path
   class="st0"
   d="m 64.61,212.92 -1.83,0.97 -3.13,-5.92 -2.7,1.43 2.81,5.31 -1.83,0.97 -2.81,-5.31 -2.75,1.45 3.23,6.11 -1.83,0.97 -4.34,-8.21 10.94,-5.78 z"
   id="path38" />
			<path
   class="st0"
   d="m 68.52,225.4 c -2.25,1.71 -4.64,1.28 -6.52,-1.2 l -1.63,-2.15 -2.9,2.2 -1.43,-1.89 9.86,-7.48 3.07,4.04 c 1.86,2.48 1.72,4.83 -0.45,6.48 z m -1.42,-1.75 c 1.21,-0.92 1.19,-2.17 0.13,-3.58 l -1.56,-2.06 -3.65,2.77 1.56,2.06 c 1.07,1.41 2.28,1.75 3.52,0.81 z"
   id="path39" />
			<path
   class="st0"
   d="m 77.8,236.85 c -2.41,2.62 -6.37,2.7 -9.11,0.17 -2.75,-2.52 -3,-6.48 -0.6,-9.1 2.42,-2.63 6.34,-2.67 9.09,-0.14 2.75,2.52 3.02,6.45 0.62,9.07 z m -7.93,-7.29 c -1.58,1.72 -1.4,4.38 0.27,5.92 1.67,1.53 4.29,1.45 5.87,-0.27 1.58,-1.72 1.42,-4.31 -0.25,-5.85 -1.68,-1.55 -4.31,-1.52 -5.89,0.2 z"
   id="path40" />
			<path
   class="st0"
   d="m 83.46,247.81 0.13,-4.24 c -0.13,-0.06 -0.25,-0.13 -0.38,-0.22 l -2.37,-1.48 -1.93,3.09 -2.01,-1.26 6.56,-10.5 4.38,2.74 c 2.71,1.7 3.44,3.97 2,6.27 -1.03,1.65 -2.51,2.37 -4.21,2.1 l 0.14,4.92 z m -1.53,-7.71 2.37,1.48 c 1.5,0.94 2.74,0.82 3.57,-0.5 0.81,-1.29 0.36,-2.44 -1.14,-3.38 l -2.37,-1.48 z"
   id="path41" />
			<path
   class="st0"
   d="m 102.25,242.94 -0.82,1.94 -3.55,-1.49 -3.98,9.47 -2.2,-0.93 3.98,-9.47 -3.55,-1.49 0.82,-1.94 z"
   id="path42" />
			<path
   class="st0"
   d="m 106.13,243.95 -3.5,11.87 -2.27,-0.67 3.5,-11.87 z"
   id="path43" />
			<path
   class="st0"
   d="m 109.98,244.98 2.03,10.2 5.19,-9.02 2.41,0.39 -6.87,11.42 -2.43,-0.39 -2.85,-13 z"
   id="path44" />
			<path
   class="st0"
   d="m 133.13,252.53 c 0.07,3.55 -2.74,6.35 -6.47,6.42 -3.73,0.07 -6.65,-2.61 -6.72,-6.16 -0.07,-3.57 2.74,-6.31 6.47,-6.39 3.74,-0.07 6.65,2.58 6.72,6.13 z m -10.76,0.21 c 0.05,2.33 2.01,4.13 4.29,4.09 2.26,-0.04 4.1,-1.92 4.05,-4.25 -0.05,-2.33 -1.95,-4.1 -4.22,-4.06 -2.29,0.05 -4.17,1.89 -4.12,4.22 z"
   id="path45" />
			<path
   class="st0"
   d="m 149.82,248.7 1.99,-0.58 1.3,4.46 c -0.95,1.27 -2.6,2.44 -4.25,2.92 -3.55,1.04 -7.05,-0.8 -8.04,-4.21 -1,-3.41 1.03,-6.82 4.66,-7.88 1.71,-0.5 3.66,-0.35 5.15,0.34 l -0.8,2.04 c -1.14,-0.57 -2.55,-0.71 -3.75,-0.36 -2.29,0.67 -3.58,2.94 -2.93,5.18 0.66,2.26 2.99,3.47 5.28,2.81 0.81,-0.24 1.66,-0.8 2.34,-1.5 z"
   id="path46" />
			<path
   class="st0"
   d="m 161.63,248.14 c 1.67,-0.85 2.2,-2.42 1.31,-4.19 l -3.26,-6.44 2.11,-1.07 3.26,6.44 c 1.47,2.9 0.53,5.63 -2.46,7.15 -3.01,1.52 -5.81,0.68 -7.28,-2.22 l -3.26,-6.44 2.11,-1.07 3.26,6.44 c 0.88,1.75 2.53,2.24 4.21,1.4 z"
   id="path47" />
			<path
   class="st0"
   d="m 175.86,238.24 -4.83,3.64 0.7,2.75 -1.96,1.48 -3.12,-13.15 1.96,-1.48 11.73,6.65 -2.03,1.53 z m -1.9,-1.11 -4.85,-2.85 1.38,5.47 z"
   id="path48" />
			<path
   class="st0"
   d="m 186.05,223.03 c 2.66,2.44 2.73,6.19 0.15,9 l -3.42,3.73 -9.13,-8.36 3.47,-3.79 c 2.54,-2.77 6.25,-3.03 8.93,-0.58 z m -1.63,1.79 c -1.79,-1.64 -4.22,-1.49 -5.78,0.22 l -1.85,2.02 6.05,5.54 1.91,-2.09 c 1.54,-1.68 1.45,-4.06 -0.33,-5.69 z"
   id="path49" />
			<path
   class="st0"
   d="m 194.8,216.05 -3.22,5.12 1.63,2.32 -1.31,2.08 -7.58,-11.19 1.31,-2.08 13.32,2.07 -1.36,2.15 z m -2.17,-0.37 -5.55,-0.95 3.23,4.63 z"
   id="path50" />
			<path
   class="st0"
   d="m 189.76,204.36 9.41,4.03 2.1,-4.91 1.97,0.84 -3.03,7.09 -11.38,-4.87 z"
   id="path51" />
			<path
   class="st0"
   d="m 203.87,192.42 -1.47,5.87 2.27,1.7 -0.6,2.38 -10.69,-8.27 0.6,-2.38 13.3,-2.19 -0.62,2.47 z m -2.17,0.33 -5.57,0.83 4.51,3.39 z"
   id="path52" />
			<path
   class="st0"
   d="m 207.86,184.12 c -0.14,1.55 -0.93,2.77 -2.2,3.63 L 204,186.48 c 0.97,-0.75 1.54,-1.69 1.61,-2.5 0.09,-1.02 -0.48,-1.7 -1.65,-1.8 l -6.3,-0.58 -0.39,4.24 -2.1,-0.19 0.6,-6.62 8.45,0.77 c 2.55,0.25 3.86,1.89 3.64,4.32 z"
   id="path53" />
			<path
   class="st0"
   d="m 205.26,168.23 0.33,6.04 2.67,0.95 0.14,2.45 -12.66,-4.74 -0.14,-2.45 12.06,-6.03 0.14,2.54 z m -1.98,0.95 -5.07,2.44 5.31,1.9 z"
   id="path54" />
			<path
   class="st0"
   d="m 205.25,153.61 -3.07,2.93 c 0.05,0.13 0.08,0.27 0.12,0.43 l 0.65,2.72 3.54,-0.84 0.55,2.3 -12.04,2.85 -1.19,-5.02 c -0.74,-3.11 0.33,-5.24 2.98,-5.87 1.89,-0.45 3.45,0.07 4.47,1.46 l 3.36,-3.6 z m -4.33,6.55 -0.65,-2.72 c -0.41,-1.72 -1.38,-2.51 -2.89,-2.15 -1.48,0.35 -1.97,1.49 -1.56,3.21 l 0.65,2.72 z"
   id="path55" />
			<path
   class="st0"
   d="m 197.61,140.67 2.43,5.54 2.84,-0.05 0.99,2.25 h -13.51 l -0.99,-2.25 9.18,-9.88 1.02,2.33 z m -1.52,1.6 -3.89,4.06 5.64,-0.08 z"
   id="path56" />
		</g>
	</g>
</g>
</svg>
