<?xml version="1.0" encoding="UTF-8"?>
<svg id="Layer_1" xmlns="http://www.w3.org/2000/svg" version="1.1" viewBox="0 0 400 400">
  <!-- Generator: Adobe Illustrator 29.2.1, SVG Export Plug-In . SVG Version: 2.1.0 Build 116)  -->
  <defs>
    <style>
      .st0 {
        fill: #fcfcfc;
      }

      .st1 {
        fill: #fff;
      }

      .st2 {
        fill: #fbfbfb;
      }

      .st3 {
        fill: #323b48;
      }

      .st4 {
        fill: #aa1519;
      }

      .st5 {
        fill: #303946;
      }
    </style>
  </defs>
  <path class="st1" d="M189.2,7.9c-16.4.6-33.7,3.3-49.7,6.8-31,6.7-61.6,17.4-90.2,30.9-9.6,33.5-15.3,68.3-16.5,103.2-2.1,61.6,9.3,107.2,49.4,154.3,31.5,37.1,73.3,66.7,116.3,88.9,14.1-6.6,27.6-14.4,40.7-22.8,44.1-28.3,89.1-68.2,111.1-116.7,21.3-46.9,19.8-107.2,12-157.2-2.5-16.2-5.8-32.3-10.2-48C302,23.7,245.4,5.7,189.2,7.9Z"/>
  <path class="st3" d="M43.8,39.9C89.5,19,139,3.1,189.7,1.1c52.8-2.1,115.6,15.2,162.8,38.3s4.8,2.1,5.3,3c9.9,36.8,15.4,75.1,15.8,113.3.7,61.5-13.9,108.1-54.5,154.2-33,37.4-76,66.9-120.3,89.3-16.8-8.2-33-18-48.4-28.5-48-32.8-97.3-80.4-114.4-137.6-12.8-43-11.2-91.9-4.6-135.9,2.9-19.3,7-38.4,12.4-57.2ZM189.2,7.9c-16.4.6-33.7,3.3-49.7,6.8-31,6.7-61.6,17.4-90.2,30.9-9.6,33.5-15.3,68.3-16.5,103.2-2.1,61.6,9.3,107.2,49.4,154.3,31.5,37.1,73.3,66.7,116.3,88.9,14.1-6.6,27.6-14.4,40.7-22.8,44.1-28.3,89.1-68.2,111.1-116.7,21.3-46.9,19.8-107.2,12-157.2-2.5-16.2-5.8-32.3-10.2-48C302,23.7,245.4,5.7,189.2,7.9Z"/>
  <path class="st5" d="M340.6,59.1c3.8,14.2,6.9,28.6,9.1,43.1,7.7,49,9.1,106.8-13.6,152.1-25.2,50.3-80.4,94.2-129.8,119.5-1.6.8-5.7,3.2-7.1,3.5s-.6.2-.9,0c-50.3-26.4-101.4-64.3-130-114.4-22.1-38.6-25.5-82.5-22-126.2,2.1-26.8,7.2-53.5,14.4-79.3,18.3-8.8,37.5-16,57.1-21.8,35.5-10.5,71.5-16,108.6-11.6,39.5,4.7,78.5,18.1,114.2,35ZM212.8,85.2c-.1-.8.2-2,0-2.7s-1-.4-1.1-1.2c-.4-2.2.8-6.9.9-9.4s0-2.1,0-2.9-.9-1.5-.9-2.1,1.6-2.9,1.9-4.3c1-4.6,1.1-9.7-4.5-10.8s-2.5-.4-2.9-.4h-10.3c-.5,0-.6,2.3-.5,2.8.2.7,1.7-.7,1.5,2.1l-3.2,28.7h6c.8,0,1.6-14.6,1.9-15.9,1.9.3,4.6-1,4.7,1.6.2,3.2-1.3,7.6-1.1,10.8s1.5,3.7,3,3.7h4.6ZM176.3,52c-3.4.4-6.8,2.9-7.4,6.4-1.1,6.1.4,15.2-.4,21.6.8,5.4,5.5,6.2,10.1,5.7s8-3,8.4-7.5c.6-6.7,0-14.2.3-20.9-1-5.6-6.2-6-10.9-5.4ZM236.9,53.7c-1.9.3-14.2-1.8-14.7-1s-.7,2.7-.6,2.8l4.1.3c-1.2,10.2-4,20.1-5.3,30.3l6.2.6,5.6-29.9c1.5-.5,2.9.4,4.4.1l.3-3.2ZM157.7,56.7c-1.5-1.5-3.7-1.9-5.6-2.2l-12.5,1.8c0,2-.7,3.7,2.1,3.2l2.1,30.3c.9,0,6.1-.6,6.2-1.1l-2.1-29.9c2.3-1.1,4.8-.9,5.3,2,1,5.9.6,13.3,1.2,19.4s.3,7.5,5.4,7.2,2.5-.3,2.7-.6.2-2.4.1-2.8-1.5-.2-1.8-1.8l-1.5-22.3c-.3-1.2-.7-2.4-1.6-3.3ZM259.5,57.5c-5.9-1-12.7-3.8-16.4,2.8l-5.6,21.7c-.2,3,1.5,5.6,4.3,6.5s9,1.8,9.4,1.5.8-2.6.6-2.9c-1.9-.8-7.1-.4-8-2.5s.8-6.2,1.3-8,.6-2.6,1-2.8l7.5,1.2.6-3.2-7.3-1.2,2.5-9.7c2.2-3.3,6.9,0,9.4-.6s1-2.6.8-2.9ZM136.9,91.3c0-.1-.3-2.8-.4-2.9-.3-.4-1.5-.3-1.6-1.1l-3.1-22.5c-2.1-8.8-17.3-5-17.5,3.2l3.8,27.4,6.2-1.2-1.8-11.9c0-.3,0-.4.3-.6s4.8-1.2,5-1c.8,3.3-.4,10.6,4.3,11.2s4.5-.2,4.8-.6ZM296.6,66.3l-15.3-3.8-11.1,31.8c.3.4,5.3,1.6,5.8,1.3.7-.5,4.2-12.3,5-14l6.7,1.4.6-3.2c-.9-.1-5.6-1-5.9-1.7s3.3-10.5,3.8-10.9c.7-.5,8,2,9.4,2.2l.9-3.2ZM112.5,97.2l-5.6-32.7-.2-.4c-.3-.2-4.9.8-5.4,1.1s-.4.2-.5.4l5.9,33,5.8-1.5ZM93.7,67.5c-.4-.3-8.4,2.4-9.5,3-3.2,1.8-4.1,4.4-3.7,8,.8,6.6,3.7,14.2,4.7,20.9,1.7,4.9,9.6,4.2,12.7,1.4s3.9-6.6,2-7-2.7.8-2.7.9c-.2.3,0,1.3-.1,1.8-.8,3.3-5.5,4.1-6.3.2-.9-6.7-3.8-14-4.5-20.5s-.4-2.6.9-3.4,6.4-1.7,6.8-2.3-.4-2.2-.5-2.9ZM324.2,75.2c-5.5-1.4-13-5.8-16.7,1.1-3.4,6.4-5.7,14.3-8.8,20.9-.3,7.7,13.1,11.1,15.5,3.3-.7,0-2.4-1.1-2.9-.8s-.6,1.1-1.2,1.5c-2.8,2-6.6-.3-4.9-3.7l9-20.7c2-2.2,6.7,1.9,8.9,1.3s1.4-2.6,1.1-2.9ZM288,94c-2.1.6-2.3,4.6,0,5.4,5.3,1.6,5.4-7,0-5.4ZM287.1,121.7c-32-15-67.5-25.6-103.3-21.8-19.8,2.1-41.5,8.4-59.8,16s-10,4.1-10.5,5c-8.6,32.8-13.9,70.5-5,103.7s46.2,69.1,78.7,88c2.8,1.6,8.2,5.1,11,6s1,.4,1.8.2,5.1-2.6,6.4-3.3c31.9-16.8,69-47.2,81.9-81.8,9-24,8.8-52.3,5.6-77.5-1.5-11.6-3.8-23.2-6.8-34.5ZM322.6,105c-2.4-2.4-6.8,1.1-4.2,4,2.7,3,6.9-1.3,4.2-4ZM229.3,338.6c.3-4,2.6-8.3,1.3-12.3-2.6-8.1-15.1-.2-10.6,6.2,4-.7.5-2.4,2.2-4.9s4.7-.5,4.7,2.3-2.5,8.3-2.6,11.6.7,1.5.8,2.4c.4.1.7,0,1.1-.2,2.8-1.2,5.9-4.1,8.7-5.4,1-.3-.1-2.6-.8-2.6s-4.7,3.1-4.9,2.9ZM167.8,338c3.8-.9,10.3-1.5,12.4-5.1,3.7-6.2-8.4-11.9-11.2-5.2.6,0,2,1.5,2.3,1.2s0-.5.3-.7c2.4-2.6,6.9,0,4.3,3.1s-10.2,2.8-13.2,3.9c-.3.1-1.6,1.7-1.7,1.9,0,.4.3.5.5.7,1.2,1.1,5.6,3.6,7.2,4.6s2.2,1.5,2.6,1.2,1.3-1.6,1-1.9-3.3-2-4.1-2.7-.6-.3-.5-.8ZM208.6,332.5c-3.6.6-7,4.5-6.4,8.3.2,1.1,3.5,7.9,4.3,9,3.5,4.9,12.4-.3,11.9-6s-4-9.3-4.8-10.2c-1.3-1.3-3.2-1.4-4.9-1.1ZM189.5,334.3c-1.7.2-3.7,1-4.6,2.5s-3.5,9.5-3.5,10.5c0,5.3,10.9,8,13.7,1.7s2.7-7.6,2.7-9c.2-4.1-4.9-6-8.3-5.7Z"/>
  <path class="st4" d="M287.1,121.7c3,11.3,5.3,22.9,6.8,34.5,3.2,25.2,3.4,53.5-5.6,77.5-13,34.6-50,65-81.9,81.8-1.3.7-5.4,3-6.4,3.3s-1.1,0-1.8-.2c-2.8-.9-8.2-4.4-11-6-32.5-18.9-68.6-50.5-78.7-88s-3.6-70.9,5-103.7c.5-.9,8.9-4.4,10.5-5,18.4-7.6,40-13.9,59.8-16,35.8-3.8,71.3,6.8,103.3,21.8ZM192.2,102.6c-25.8,1.2-52.6,10.1-75.8,20.9-7.3,26.8-11.6,56.3-8.2,84.1,3.8,30.6,19.1,53.8,41.4,74.1,14.7,13.4,31.9,25.1,49.8,33.9,38.3-19.7,79.7-51.4,90-95.5s4.1-45.4,1-66.8c-1.4-9.7-3.4-19.5-6.1-28.9-28.3-13.6-60.3-23.4-92.1-21.8Z"/>
  <path class="st2" d="M212.8,85.2h-4.6c-1.5,0-2.9-2.3-3-3.7-.2-3.2,1.3-7.6,1.1-10.8-.1-2.6-2.9-1.3-4.7-1.6-.3,1.3-1.1,15.9-1.9,15.9h-6l3.2-28.7c.2-2.8-1.3-1.4-1.5-2.1s0-2.8.5-2.8h10.3c.3,0,2.4.3,2.9.4,5.6,1.1,5.5,6.2,4.5,10.8s-1.9,4-1.9,4.3c0,.6.7,1.3.9,2.1s0,2.1,0,2.9c0,2.5-1.3,7.2-.9,9.4s1,.7,1.1,1.2,0,1.9,0,2.7ZM206.5,65.4c.6-.5.8-3,1-3.9s.5-4.8.2-5.8-3.2-1.3-4.2-1.1-.4.8-.5,1.1c-.4,3.3-.7,6.8-.9,10.1,1.1-.1,3.6.3,4.3-.4Z"/>
  <path class="st2" d="M157.7,56.7c.9.9,1.3,2.1,1.6,3.3l1.5,22.3c.3,1.6,1.7,1.4,1.8,1.8s0,2.5-.1,2.8-2.2.5-2.7.6c-5.1.3-5.1-3.2-5.4-7.2-.6-6.1-.2-13.5-1.2-19.4-.5-2.9-3-3.2-5.3-2l2.1,29.9c-.1.5-5.3,1-6.2,1.1l-2.1-30.3c-2.8.4-2-1.2-2.1-3.2l12.5-1.8c2,.3,4.2.7,5.6,2.2Z"/>
  <path class="st2" d="M136.9,91.3c-.3.4-4.1.7-4.8.6-4.6-.6-3.5-7.8-4.3-11.2-.2-.2-4.7.8-5,1s-.3.3-.3.6l1.8,11.9-6.2,1.2-3.8-27.4c.2-8.2,15.5-12,17.5-3.2l3.1,22.5c0,.8,1.3.7,1.6,1.1s.5,2.8.4,2.9ZM127.2,77.5c-.7-3.8-.7-8.4-1.6-12.1s-4.8-2.7-5.2.4c-.4,3.7,1.7,8.9,1.5,12.8l5.3-1.2Z"/>
  <path class="st2" d="M176.3,52c4.7-.6,10-.2,10.9,5.4-.3,6.7.3,14.2-.3,20.9-.4,4.5-4.1,7.1-8.4,7.5s-9.3-.3-10.1-5.7c.8-6.5-.7-15.5.4-21.6.6-3.5,4.1-5.9,7.4-6.4ZM175.8,56.1c-.5.6-.9,1.6-1,2.4-.4,3.9,0,9.1,0,13.2s-1.7,9.9,1.7,10.7,3.6-.7,4.2-2.7c-.7-7,1.1-15.2.3-22s-3.5-3.3-5.2-1.5Z"/>
  <path class="st2" d="M259.5,57.5c.2.3-.4,2.9-.8,2.9-2.4.6-7.2-2.7-9.4.6l-2.5,9.7,7.3,1.2-.6,3.2-7.5-1.2c-.5.2-.9,2.2-1,2.8-.5,1.8-1.9,6.4-1.3,8s6.1,1.7,8,2.5c.2.3-.5,2.8-.6,2.9-.4.3-8.4-1.2-9.4-1.5-2.8-1-4.5-3.6-4.3-6.5l5.6-21.7c3.7-6.6,10.4-3.8,16.4-2.8Z"/>
  <path class="st2" d="M296.6,66.3l-.9,3.2c-1.4-.2-8.7-2.7-9.4-2.2s-4,10.3-3.8,10.9,4.9,1.5,5.9,1.7l-.6,3.2-6.7-1.4c-.8,1.7-4.3,13.5-5,14s-5.5-1-5.8-1.3l11.1-31.8,15.3,3.8Z"/>
  <path class="st2" d="M324.2,75.2c.3.4-.8,2.9-1.1,2.9-2.2.5-6.9-3.5-8.9-1.3l-9,20.7c-1.6,3.5,2.1,5.8,4.9,3.7s.9-1.3,1.2-1.5c.5-.3,2.2.8,2.9.8-2.5,7.8-15.9,4.4-15.5-3.3,3.1-6.6,5.4-14.6,8.8-20.9,3.7-6.9,11.2-2.5,16.7-1.1Z"/>
  <path class="st2" d="M93.7,67.5c.1.7.9,2.3.5,2.9s-5.7,1.6-6.8,2.3-1,2.1-.9,3.4c.7,6.5,3.6,13.9,4.5,20.5.7,3.9,5.4,3.1,6.3-.2s0-1.5.1-1.8,2.6-.9,2.7-.9c1.8.4-.9,6-2,7-3.1,2.8-11,3.5-12.7-1.4-1-6.7-3.9-14.2-4.7-20.9s.4-6.1,3.7-8,9-3.3,9.5-3Z"/>
  <path class="st2" d="M236.9,53.7l-.3,3.2c-1.5.2-3-.6-4.4-.1l-5.6,29.9-6.2-.6c1.3-10.1,4.1-20.1,5.3-30.3l-4.1-.3c-.1,0,.4-2.6.6-2.8.5-.7,12.9,1.3,14.7,1Z"/>
  <path class="st2" d="M112.5,97.2l-5.8,1.5-5.9-33c0-.3.3-.3.5-.4.5-.3,5.1-1.4,5.4-1.1l.2.4,5.6,32.7Z"/>
  <path class="st2" d="M208.6,332.5c1.8-.3,3.6-.2,4.9,1.1s4.7,9,4.8,10.2c.5,5.7-8.4,10.9-11.9,6-.8-1.1-4.1-7.8-4.3-9-.6-3.8,2.8-7.7,6.4-8.3ZM208,335.7c-1.9.2-1.6,2.4-1.1,3.7s3.2,6.9,4,8c1.8,2.3,3.9.5,2.8-2.5-.6-1.5-3-6.6-3.9-7.8s-1.1-1.4-1.8-1.3Z"/>
  <path class="st2" d="M189.5,334.3c3.4-.3,8.5,1.5,8.3,5.7s-2.1,7.6-2.7,9c-2.8,6.3-13.7,3.6-13.7-1.7s2.9-9.6,3.5-10.5c.9-1.4,2.9-2.3,4.6-2.5ZM186.7,349.7c1.1,1.1,2.6,0,3.2-1.2s2.6-7.1,2.8-8.4c.6-3.7-2.1-4.2-3.5-1.2s-2.6,6.9-2.8,8.4-.2,1.9.3,2.4Z"/>
  <path class="st2" d="M229.3,338.6c.2.2,4.2-2.8,4.9-2.9s1.8,2.2.8,2.6c-2.8,1.3-6,4.2-8.7,5.4s-.7.3-1.1.2c-.2-.9-.9-1.4-.8-2.4,0-3.3,2.5-8.3,2.6-11.6s-2.8-5.2-4.7-2.3,1.8,4.2-2.2,4.9c-4.6-6.4,7.9-14.3,10.6-6.2,1.3,4-1,8.3-1.3,12.3Z"/>
  <path class="st2" d="M167.8,338c-.1.5.2.6.5.8.7.6,3.8,2.2,4.1,2.7s-.8,1.8-1,1.9c-.5.3-2.1-.9-2.6-1.2-1.6-1-6-3.5-7.2-4.6s-.6-.2-.5-.7,1.4-1.7,1.7-1.9c3-1.1,11.2-1.6,13.2-3.9s-1.9-5.7-4.3-3.1-.3.7-.3.7c-.4.3-1.7-1.3-2.3-1.2,2.9-6.7,14.9-1,11.2,5.2-2.1,3.6-8.7,4.2-12.4,5.1Z"/>
  <path class="st2" d="M288,94c5.5-1.6,5.4,7,0,5.4s-2.2-4.8,0-5.4Z"/>
  <path class="st2" d="M322.6,105c2.7,2.7-1.5,7-4.2,4-2.6-2.9,1.7-6.4,4.2-4Z"/>
  <path class="st3" d="M192.2,102.6c31.8-1.5,63.8,8.2,92.1,21.8,2.8,9.4,4.7,19.1,6.1,28.9,3.1,21.5,4,45.6-1,66.8-10.3,44.1-51.7,75.8-90,95.5-17.9-8.8-35-20.5-49.8-33.9-22.3-20.3-37.6-43.6-41.4-74.1-3.4-27.8.9-57.3,8.2-84.1,23.2-10.8,50-19.7,75.8-20.9ZM197.1,106.4c-23.3.6-48.9,7.6-70.2,16.8-1.3.6-6.5,2.7-7.2,3.4s-3.1,11.2-3.6,13.2c-8,36.3-10.2,77.5,10.4,110,16.9,26.7,44.9,47.3,72.6,61.7,26.6-13.2,53.4-32.3,70.8-56.8,24.5-34.5,22.7-80.9,13-120.5-.3-1.4-1.3-6.2-2.2-6.9-25.6-11.7-55.1-21.7-83.6-20.9Z"/>
  <path class="st3" d="M206.5,65.4c-.8.7-3.3.2-4.3.4.2-3.4.5-6.8.9-10.1s.1-1,.5-1.1c1-.2,3.8-.1,4.2,1.1s0,4.6-.2,5.8-.4,3.4-1,3.9Z"/>
  <path class="st3" d="M127.2,77.5l-5.3,1.2c.2-3.9-1.9-9.1-1.5-12.8.4-3.2,4.3-3.9,5.2-.4s.9,8.3,1.6,12.1Z"/>
  <path class="st3" d="M175.8,56.1c1.7-1.8,4.9-1.2,5.2,1.5.8,6.8-1,15-.3,22-.5,2.1-2,3.3-4.2,2.7-3.3-.8-1.7-8.1-1.7-10.7,0-4.1-.5-9.3,0-13.2s.4-1.8,1-2.4Z"/>
  <path class="st3" d="M208,335.7c.7,0,1.4.8,1.8,1.3.9,1.3,3.4,6.3,3.9,7.8,1.1,3-1,4.8-2.8,2.5s-3.5-6.6-4-8-.7-3.5,1.1-3.7Z"/>
  <path class="st3" d="M186.7,349.7c-.5-.5-.4-1.7-.3-2.4.2-1.5,2.1-6.9,2.8-8.4,1.4-3,4.1-2.6,3.5,1.2s-2.2,7.3-2.8,8.4-2.1,2.3-3.2,1.2Z"/>
  <path class="st2" d="M197.1,106.4c28.5-.7,58,9.2,83.6,20.9.9.7,1.9,5.5,2.2,6.9,9.7,39.6,11.5,86-13,120.5-17.4,24.5-44.2,43.6-70.8,56.8-27.7-14.5-55.7-35-72.6-61.7-20.6-32.5-18.4-73.7-10.4-110,.4-2,2.7-12.3,3.6-13.2s5.9-2.8,7.2-3.4c21.3-9.2,46.9-16.2,70.2-16.8ZM216.3,109.9c-9-1-18-1.2-27-.6,1.1,1.7,3.7,3.4,3.7,5.6l-.3-.9c-1.7-.7-4.3-4-5.9-4.3s-6.8.6-6.8,1c5.2,2.2,9.9,5.7,13.4,10.1.3.1,0-.9.4-.4,1,.9,3.1,4.6,3.8,5.9,1.4,2.8,2.3,5.7,3,8.8s-.2.5.6.4c1.5-10,7.5-18.3,14.9-24.9.2-.2.6,0,.4-.7ZM222.8,110.7c-.8.2-1.8-.3-2.5-.3s-3.6,2.6-4.3,3.4-1.3,1.7-2.1,2.5c.6.2.8-.2,1.2-.4,1.4-.8,2.8-2.1,4.3-3s2.1-.9,2.9-1.5.5,0,.4-.7ZM185.7,121.6c.3-.3-.9-1.4-1.2-1.6-2.1-2-10.9-8.2-13.7-8.1s-4,1.2-5.7,1.2l8.2,2.3c4.4,1.6,8.5,3.7,12.4,6.3ZM236.3,113.7c-2.2-.1-4.6-1.3-6.7-1.4s-4.5,2.1-6.7,3.3l-2.3,2,8.5-2.8,7.1-1ZM175.7,124.8c0-.7-.8-1.3-1.3-1.8-2.9-2.6-11.3-7.1-15.1-7.8s-6.4,1.7-9.4,1.9l8,1c6.1,1.1,11.9,3.3,17.4,6.1s0,.7.5.6ZM280.7,135.7c.2-.3-1.1-5.8-1.8-6.3-4.2-2.1-8.6-4.1-12.9-5.9-3.2-1.3-7.6-3.3-10.9-4.1s-1-.2-1.5-.1l5,3.7c2.1,1.2,6,7.2,7.5,8.1s5.9,1.1,7.9,1.8,4.5,1.8,6.6,2.9ZM141.1,138.5c-.4,1.5.3,4.9,0,6.6-1-.7-1-2.4-1.4-3.4s-.1-.9-.6-.4-.6,1.8-.6,2.2c0,2.3,2.8,6.9,4.2,8.8,1.4,1.8,6.5,6.7.7,2.8s-3.9-3-5.6-4.6c3.2,9.6,14.8,15.1,24.3,16.2l11.2-14.7c.6-.5,3.7-.3,4.6-.2,2.2.3,9.3,3.7,11.6,4.9s6.1,3.4,8.6,5.8c0,.2-.3.2-.4.1-1.1-.2-5-2.3-6.5-2.9-3.6-1.4-9.3-3.5-12.9-4.1s-1.3-.3-1.2.2c6,2.4,13.1,4.8,18.3,8.6s2.7,1.8,2.3,2.3c-7.1-3.2-15.2-6.6-22.9-8.2s-1.3-.3-1.3.2c5.8,2.1,12,4.5,17.4,7.5s4.4,2.5,5.7,3.7.8.6.7,1.2c-3.3-1.7-6.8-3.2-10.4-4.5-4.7-1.7-10.9-3.9-15.7-4.8s-1.3-.3-1.3.2c10.3,4,20.6,9,29,16.5.3-2.7-3.6-4.3-4.9-6.5l5,1.8v-14.7c-6.3-3-13-5.3-19.7-7.2,0-.4,6.5.4,7.2.5,5,.7,8.9,1.6,12.5,5.3v-6c0-1-2.3-6.7-2.9-8-3.1-7.1-7.6-13.7-13.7-18.6v.4c3.7,4.5,7,9.5,9.5,14.8,1.6,3.8,3.1,7.7,3.3,11.9l-3.6-6c-4.8-6.8-11-12.3-18-16.7-.4-.1-.6,0-.4.4s2.2,1.9,2.8,2.5c2.1,2.2,6.6,7.6,7.7,10.3s.4,1.2-.2,1.2c-5.5-8.7-16.4-14-25.9-17.1-4.5-1.5-17.5-5.1-21.7-4.2l-14.3,6.1-1.2,4.6c9.3-7,21.5-7.6,32.6-5.6,0,.5-.7.3-1,.3-4.5.2-8.7.1-13.1,1.5l12.1,1.9c-.3.4-.8.7-1.3.7-2.1.1-5.9-.8-8.2-.9-3.8-.1-8.2.1-12,.6s-7.1,1-8.6,1.7-.5.2-.7.7c-.9,1.9-1,5.4-1.7,7.5,7.8-6.9,18.3-8.7,28.5-8.2-.4.6-1.2.8-1.8,1.3s-3.7,3.6-3.8,3.8ZM207.2,147c-.1,1.7,0,3.6,0,5.3s-.5.6-.3,1c5.1-.6,10.2-1.3,15.4-.8.4.1,4.3,5.6,4.3,6,.1.6,0,.4-.4.4-.8.1-1.8,0-2.6,0-3.8.3-7.6,1.3-11.3,2.3l-5.1,1.8c6.7-.9,12.9-1.8,19.6-.4s3.3.6,4.2,1.6c-3.9,0-7.7-.1-11.6.3-4.3.5-8.3,2-12.5,2.9,0,0,.2.4.3.4.3.1,6.1-.7,7.2-.8,5.8-.2,12.5-.2,18.1,1l2.9,1c-6.6-.2-13.2,0-19.7,1.3l-10,2.2c10.3-.3,20.7-1.4,30.9.4l3.5,1.1c-9.4-.6-18.9-.4-28.2,1.3l-7.3,1.9c8.1-.2,16.2,0,24.2,1.2s12.5,2.2,17.9,4.4,1.7.5,2,1.1c-5.5-.4-11.1-.2-16.6.3s-6.7.7-9.9,1.3-6.7,1.3-7.3,1.8c-1,.8-.5,10.7-.6,12.7s-.5,2.8-.3,4.2l-2.6-15.9c-5,.8-10,2.3-14.7,4.1,0,.6.6.2.9.2,1.7-.2,3.4-.3,5.1-.2l4.3.9c-2.9.4-5.7,1.1-8.4,2.1l-6,2.9c4-.5,8.5-1.1,12.5,0s.9,0,1,.6c-2.9,0-5.8.8-8.6,1.5l-5.5,2c3.7-.6,6.6-1.1,10.3-.5,7.8,1.3,14,5.9,18.1,12.5s2.8,4.9,2.9,5.9-1,3.8-1.3,4.7c-2.2,5.4-8,9.8-13.3,12,2.6,0,5.9-1.7,8.1-3s5.3-3.6,7.3-5.6c-2.3,5-7,8.4-11.5,11.4l-3.9,2.1c6.6-.8,12.4-4.5,17.2-8.8-1.9,4.5-6.5,8-10.5,10.7l-2.9,1.6c5.8-.6,10.9-3.6,15.1-7.3-1.5,4.3-5.7,8-9.8,9.7,0,.6.5.1.8,0,2.3-.4,4.3-1.4,6.3-2.5s2.5-2.1,2.2-1c-.6,2.5-2.8,4.9-5.4,5.2-6.5.7-13-1.7-18.4-5.2s-3.5-2.4-3.9-2.9c-.5-.8,1.1-4,1.6-4.9,1.6-2.8,4.2-5.2,7-6.8s6.2-2.5,6.3-2.8c.8-2.4-.2-5.8-.3-8.3-3.5-1-7-1.1-10.6-.6l6.2,1,3.2,1.6c-3.5-.8-7.1-1-10.7-.9l-3.1.6c2.7.2,5.8.3,8.5,1.1s3.3,1.1,3.3,2.7c-8.4,1-17,.9-25.3-.9.3.9-.6,3.4-.2,4.1s2.9,1.2,3.6,1.6c4.7,2.7,8.5,6.9,9.6,12.4-3.8,2.8-8.1,5.3-12.6,6.8-.9.3-4.2,1.3-4.8,1.3h-4.3c0,1.2,3.2,8.5,3.7,8.5,1.7-3.9,5.7-5.8,9.6-6.8,7.5-2.1,16.4-1.5,23.4,1.8,0,.6-.6.2-.9.2-5.7-.6-9.5-1-15.3-.1-1.7.3-3.3.8-4.9,1.1,0,.5.7.3,1,.3,4.7-.3,8.7-.4,13.4.4s6.2,1.4,8.8,3c-2,0-4.1-.9-6.1-1.2-3.7-.6-7.5-.5-11.2,0l7.7,1.8c2.3.7,8.9,2.7,9.5,5.2s-.7,1.3-1.2,1.8c-5.9,5.7-15,8-22.9,5.5l-2.3-1.1c5.4-.3,10.7-1,15.7-2.9s1.8-.5,2.2-1.2c-7.7,1.4-15.9,2.6-23.4-.3-6.1-2.3-10-11.5-11.5-17.6s-1.1-4.4-.8-6.5c1.9,1.9,5.1,3.7,7.7,4.4s.4-.1.4-.6c-3.3-1.5-5.9-4.2-7.6-7.4.6-.1.8.1,1.2.4,1.2.9,2.2,1.9,3.5,2.6,2.2,1.3,5.4,2.7,7.9,2.7-5-2.8-9.6-6.8-12-12.1,1.1.5,1.8,1.7,2.8,2.5,3.4,2.9,8.3,5.7,12.8,6-6.3-3.5-12.2-8.4-15-15.1-.5-.4-1.6,4-1.7,4.3-.6,2.5-.7,4.7-1,7.2s-.2,1.8-.5,1.9c-2.3-14-10.5-26.2-17.6-38.1,3.5,2.1,6.5,5.1,9.6,7.8s1.8.7,1.6,1.8l.2-.9c-4.2-7.5-8.8-14.9-14.3-21.5,4.1.4,8.4.1,12.5.6s4.3.6,4.9,1,0,1.4,0,2.1c0,2.8,5.6,5.9,7.8,6.9s5.9,1.8,6.7,2.7,1.2,2.3,1.7,3.3l1.2,4.1c1.3-1.2.6-3.7.7-5.4s.3-1.3.3-2c.1-4.2-.1-8.4-.2-12.6l2.2-1.6,5.4-2.1c-8.8-2.7-18.1-4-27.3-4.1l5.6,1.3c2.8.9,5.5,1.8,8.1,3l3.9,2.7c-2.8-.7-5.6-1.3-8.4-1.7-8.7-1.2-17.4.2-26.1,1.1-10.5-6.6-22.5-11.3-35.2-10.6l-.3,2.9c3.3-1.2,6.1-.8,9.5-.2,9.2,1.5,17.7,5.6,24.6,11.9.8.7,2.8,2.5,3.2,3.2s.5.8.1,1c-9-7-21.7-8.6-32.6-5.5-.9.3-4.2,1.2-4.8,1.6s0,2.1-.2,2.7c2.8-.8,5.4-1.9,8.2-2.5,7-1.4,16-.8,22.7,1.7s.9.1.8.5c-7-1-13.8.6-20.1,3.6l-4.9,2.9c2.5-.6,4.7-2,7.1-2.7s4.6-1.4,5.7-1.4h7.2c0,.8,0,.5-.4.6-6,1.1-10.8,2.6-16,6.1l-3.8,3.1c7.9-4.3,16-6.5,25.1-5.6s1.1.1,1.1.6c-8.3,2.5-17,5.3-24.4,9.9s-6.1,4-6.1,4.9c.8,3.3,1.4,6.7,2.4,9.9s.3,1.7.9,1.5,3.4-3.3,4.3-4c7.9-6.7,17.3-13,27.6-15.1l-7.9,5.2c-4.9,3.7-9.6,7.7-13.5,12.3l-5,6.9c0,.7.5.2.7,0,1.5-1.2,2.8-3,4.3-4.3,4.5-3.9,10.3-7.6,15.6-10.3s3.6-2,5.6-2.3c-7.7,6.5-14.8,14.3-18.5,23.9,0,.9,0,.4.3,0,1.4-2.1,2.7-4.3,4.3-6.3,3.7-4.5,8.7-8.2,14.1-10.3-10.7,8.4-14.8,21.6-12.3,34.8-.7-.4-1-1.7-1.2-2.4-1.4-5-.6-10.4-.5-15.5l-3.1,4.1-3.6,6.6c5,7.9,11,15.2,17.9,21.6-1.4-11.5-1.5-24.7,5.6-34.4-2.4,9.2-3,18.9-1.1,28.3,1.4,6.6,4.2,13.1,9.3,17.6-3.4-11.6-6.4-25.7-1.6-37.3s.3-1.2.7-1.2c-3.1,15.9,2.3,33.7,11.8,46.5,2.6,3.5,4.2,4.3,7.7,6.7s8.8,5.4,13.3,7.9c1.3.2,3.5-1.8,4.6-2.6,12.8-9.8,22.4-25.3,27.2-40.6.5,0,.3.7.3,1,.4,10-3.3,19.8-7,28.8.8-.3,1.4-1.5,1.9-2.2,1-1.5,2-3.5,2.9-5.1s2.3-6,3.3-7.5.4-.4.4-.3c-1.3,7-4,14-7.3,20.3.6,0,.9-.3,1.3-.6,2-1.2,11.1-7.1,12-8.6s1.8-4,2.4-5.5c3.6-8.6,6.2-18.3,6.9-27.6.6.2.7.9.8,1.4,1.8,7.8,0,15.7-.8,23.5,0,.3-.3,1.1.3,1,3.4-10.9,4.8-22.4,4.4-33.8l1.3,4.4c1.4,7.5,2.1,15.3,1.3,22.9,0,0,.4-.2.4-.3.6-1.1,1.4-7.3,1.6-9,1.1-8.2,1.4-16.5,1.2-24.8.8.6,1.1,2.2,1.4,3.2,2.2,7.4,3.1,15.6,3,23.3,1.9-1.6,3.7-3.6,5-5.8-1.5-15.8-4.3-32.3-14.4-45,4.4-8.4,9.1-16.8,12.9-25.5-.9-9.6-3.2-19-6.9-27.8.9-.7,2-1.1,2.9-1.8s3.4-3,4-3.3c1.1-.5,5.4,1.3,6.7,1.9,8,3.4,12.1,7.5,18.6,12.5s.4.6.9.4l-1.5-15c-7.6-2.4-15.7-2.5-23.5-.9.8-.9,5.3-6.6,4.7-7.3-3.3,1.4-6.5,3.7-9.8,5.1s-.8.5-.8,0c2.8-2.1,5.2-5,8.1-7.1,5.3.3,10.5,1.3,15.6,2.9s3,1.4,4.1,1.8.4,0,.4-.4c0-.5-.2-2.7-.4-3.2-.3-.9-5.7-1.8-6.9-1.9-3.2-.4-6.4-.3-9.6-.4-1.9-2.9-3.7-5.8-6.4-8,3.3-.2,6.8.5,10,1.2s7.9,2.5,11.8,4c-.3-1.4-.5-4.9-1.7-5.5-3.2-1.8-11.5-2-15.2-1.8s-4.9.9-6.7.6-3.5-2-4.9-2.5c-4.7-1.6-11.2.7-15.6,2.8,5.5-6.6,15.9-6.1,23.8-6.2l-2.3-1.4c-15.7-8.1-34.4,2.6-37.7,19.3-.6-.2-.3-1.7-.3-2.2.7-6.7,4.6-12.3,8.1-17.8-5.2,3.6-9.5,8.5-12.3,14.2l-2.6,7.3c0-6.1,2-11.9,4.9-17.2s2.9-4.4,4.3-6.6c-5.9,4.3-10.1,10.7-12.9,17.3l-2.2,7.1c-.4-9.8,4.2-18.7,8.7-27-.4.9-1.1.8-1.6,1.3-2,1.7-5.2,5.8-6.6,8.1-4,6.2-5.3,14-5.7,21.2.3,0,.5,0,.7-.3.3-.5,1.1-4.7,1.5-5.9s1-3,1.3-2.7c.2.6-.3,1.3-.3,1.6ZM172.7,129v.3c.2,0,.2-.2,0-.3ZM136.5,160.9c-3.8-6.4-12.8-10.3-19.8-12-.2,1-1.5,7.3-1.2,7.6,7.2.4,14.5,1.5,21.1,4.7,1.1,0,0-.3,0-.3ZM151.6,181c0-.5.6-.9.6-1.3s-2.1-2.5-2.5-2.8c-5-5.3-10.4-8.6-16.7-12.1-5.6-3.1-11.5-6.3-17.8-7.6l-.9,5.9c7.5,0,14.6,1.8,21.3,5l-.4-.7c0-.2.3-.2.4-.1,1.2.4,6,4.1,7.2,5.1,2.9,2.5,5.4,5.6,8.1,8.4l.7.3ZM150.4,181.6c-8.2-6.4-17.3-12.1-27.4-15.1s-3.4-1.1-5.2-1.1l5.7,2.4c9.2,4.3,18.2,9.4,25,17,.4-.6,2.3-2.5,1.9-3.2ZM287.2,185.7v-4.3c0-.9-12.8-7.9-15-7.4,5.7,3,10.4,7.3,15,11.6ZM286.9,200.7c-.4-2.1,1.2-5.2-.3-6.9s-4.5-3.3-5.9-4.1c-2.9-1.7-6.5-3.3-9.7-4,2.9,2.1,5.9,4.1,8.5,6.6s4.8,5.7,7.3,8.4ZM277.2,238c1-1,1.6-2.8,2.2-4.1,3.4-7.9,5.2-16.6,6.6-25.1-5.3-6.2-12.9-10.3-20.8-12.2,1.6,3.6,3.6,7,5.1,10.6,4,9.7,6.4,20.4,6.9,30.9ZM265.1,258l7.9-11.7c.4-.5.4-1.1.3-1.7-.5-8.5-6.7-22.3-11.7-29.2l-3.9-4.8c3.9,10.6,6,22.1,6.8,33.4s0,8.8.3,13.2-.2.8.3.7ZM124.6,242.5l1.5-7.1c-.2-.3-3.3,2.7-3.5,3.1l2,3.9ZM185.4,243.9c-.4-.2-.8.2-.6.3.4.2.8-.2.6-.3ZM208.1,265.7c-.4-.2-.8.2-.6.3.4.2.8-.2.6-.3ZM217.8,293.9s.2-.7.2-.9l-.7.7c0,.3.6.2.6.1Z"/>
  <path class="st3" d="M216.3,109.9c.2.7-.2.5-.4.7-7.4,6.6-13.4,14.9-14.9,24.9-.8,0-.5,0-.6-.4-.7-3-1.6-6-3-8.8s-2.8-5-3.8-5.9-.2.6-.4.4c-3.5-4.5-8.2-8-13.4-10.1,0-.3,6.2-1.1,6.8-1,1.6.4,4.2,3.6,5.9,4.3l.3.9c0-2.2-2.5-3.9-3.7-5.6,9-.6,18.1-.4,27,.6Z"/>
  <path class="st3" d="M277.2,238c-.6-10.4-2.9-21.2-6.9-30.9s-3.5-7-5.1-10.6c7.9,2,15.5,6,20.8,12.2-1.3,8.5-3.2,17.2-6.6,25.1s-1.2,3.1-2.2,4.1Z"/>
  <path class="st3" d="M265.1,258c-.5,0-.3-.4-.3-.7-.2-4.4,0-8.8-.3-13.2-.8-11.3-2.8-22.8-6.8-33.4l3.9,4.8c4.9,7,11.1,20.7,11.7,29.2s0,1.1-.3,1.7l-7.9,11.7Z"/>
  <path class="st3" d="M141.1,138.5c0-.3,3.3-3.4,3.8-3.8s1.4-.8,1.8-1.3c-10.2-.5-20.7,1.3-28.5,8.2.7-2.1.8-5.6,1.7-7.5s.2-.5.7-.7c1.5-.7,6.7-1.5,8.6-1.7,3.8-.5,8.2-.8,12-.6s6.2,1,8.2.9,1-.4,1.3-.7l-12.1-1.9c4.4-1.4,8.6-1.3,13.1-1.5s1.1.2,1-.3c-11.1-2-23.3-1.4-32.6,5.6l1.2-4.6,14.3-6.1c4.2-.9,17.2,2.7,21.7,4.2,9.5,3.1,20.4,8.4,25.9,17.1.6,0,.3-.9.2-1.2-1.1-2.7-5.5-8.1-7.7-10.3s-2.7-2.2-2.8-2.5,0-.6.4-.4c7,4.4,13.3,9.9,18,16.7l3.6,6c-.2-4.2-1.7-8.1-3.3-11.9-2.5-5.3-5.8-10.3-9.6-14.8v-.4c6.2,4.9,10.7,11.5,13.8,18.6s2.9,7,2.9,8v6c-3.7-3.6-7.6-4.5-12.5-5.3s-7.2-.8-7.2-.5c6.7,1.9,13.4,4.2,19.7,7.2v14.7l-5-1.8c1.3,2.2,5.1,3.8,4.9,6.5-8.3-7.4-18.6-12.5-29-16.5,0-.6,1-.3,1.3-.2,4.8,1,11.1,3.1,15.7,4.8,3.5,1.3,7,2.8,10.4,4.5.1-.6-.4-.8-.7-1.2-1.3-1.2-4.1-2.8-5.7-3.7-5.4-3-11.6-5.4-17.4-7.5,0-.6,1-.3,1.3-.2,7.6,1.6,15.8,5,22.9,8.2.4-.5-1.9-2-2.3-2.3-5.3-3.8-12.3-6.2-18.3-8.6,0-.6.9-.3,1.2-.2,3.7.6,9.4,2.7,12.9,4.1s5.4,2.7,6.5,2.9.5,0,.4-.1c-2.5-2.4-5.6-4.2-8.6-5.8s-9.4-4.5-11.6-4.9-4-.3-4.6.2l-11.2,14.7c-9.5-1.1-21.1-6.5-24.3-16.2,1.7,1.7,3.7,3.3,5.6,4.6,5.7,3.9.6-.9-.7-2.8-1.4-1.9-4.1-6.5-4.2-8.8s.4-2,.6-2.2c.5-.5.5.1.6.4.5,1,.5,2.7,1.4,3.4.3-1.7-.4-5.1,0-6.6ZM146.6,157.2c.2-.4-.2-.8-.3-.6-.2.4.2.8.3.6Z"/>
  <path class="st3" d="M280.7,135.7c-2.1-1.1-4.3-2.2-6.6-2.9s-6.6-1.1-7.9-1.8-5.4-6.9-7.5-8.1l-5-3.7c.5,0,1,0,1.5.1,3.2.9,7.6,2.8,10.9,4.1,4.4,1.8,8.7,3.7,12.9,5.9.7.5,2,6.1,1.8,6.3Z"/>
  <path class="st3" d="M136.5,160.9c0,0,1.1.3,0,.3-6.5-3.2-13.9-4.2-21.1-4.7-.3-.3,1-6.7,1.2-7.6,7,1.7,16,5.5,19.8,12Z"/>
  <path class="st3" d="M150.4,181.6c.4.7-1.5,2.5-1.9,3.2-6.9-7.6-15.9-12.7-25-17l-5.7-2.4c1.8,0,3.5.6,5.2,1.1,10.1,3,19.2,8.7,27.4,15.1Z"/>
  <path class="st3" d="M286.9,200.7c-2.5-2.7-4.7-5.8-7.3-8.4s-5.7-4.5-8.5-6.6c3.3.6,6.8,2.3,9.7,4s5,3,5.9,4.1c1.4,1.7-.1,4.9.3,6.9Z"/>
  <path class="st3" d="M175.7,124.8c-.5.1-.2-.4-.5-.6-5.4-2.9-11.3-5.1-17.4-6.1l-8-1c3.1-.2,6.4-2.5,9.4-1.9s12.2,5.2,15.1,7.8,1.3,1,1.3,1.8Z"/>
  <path class="st3" d="M185.7,121.6c-3.9-2.5-8-4.7-12.4-6.3l-8.2-2.3c1.8,0,4.1-1.2,5.7-1.2,2.7,0,11.5,6.1,13.7,8.1s1.5,1.3,1.2,1.6Z"/>
  <path class="st3" d="M287.2,185.7c-4.6-4.3-9.3-8.7-15-11.6,2.2-.6,15,6.5,15,7.4v4.3Z"/>
  <path class="st3" d="M236.3,113.7l-7.1,1-8.5,2.8,2.3-2c2.1-1.2,4.1-3.4,6.7-3.3s4.5,1.3,6.7,1.4Z"/>
  <path class="st3" d="M222.8,110.7c.1.7,0,.5-.4.7-.8.5-2,.9-2.9,1.5-1.5.9-2.9,2.2-4.3,3s-.6.6-1.2.4c.7-.8,1.3-1.8,2.1-2.5s3.4-3.3,4.3-3.4,1.7.5,2.5.3Z"/>
  <path class="st3" d="M124.6,242.5l-2-3.9c.2-.4,3.3-3.4,3.5-3.1l-1.5,7.1Z"/>
  <path class="st3" d="M217.8,293.9s-.6.1-.6-.1l.7-.7c0,.2-.1.8-.2.9Z"/>
  <path class="st3" d="M207.2,147c0-.3.5-1,.3-1.6-.3-.4-1.2,2.3-1.3,2.7-.4,1.2-1.2,5.3-1.5,5.9s-.4.4-.7.3c.4-7.3,1.7-15,5.7-21.2,1.5-2.3,4.6-6.3,6.6-8.1s1.3-.4,1.6-1.3c-4.5,8.3-9.1,17.3-8.7,27l2.2-7.1c2.8-6.7,7-13,12.9-17.3-1.4,2.2-3,4.3-4.3,6.6-2.9,5.3-4.9,11.1-4.9,17.2l2.6-7.3c2.7-5.7,7-10.6,12.3-14.2-3.5,5.5-7.4,11.1-8.1,17.8s-.3,2,.3,2.2c3.3-16.7,22-27.4,37.7-19.3l2.3,1.4c-7.9,0-18.3-.4-23.8,6.2,4.3-2.1,10.8-4.4,15.6-2.8s3.7,2.3,4.9,2.5c1.8.3,4.8-.5,6.7-.6,3.7-.2,12,0,15.2,1.8s1.4,4.1,1.7,5.5c-3.9-1.5-7.7-3.1-11.8-4s-6.7-1.4-10-1.2c2.7,2.3,4.5,5.1,6.4,8,3.2,0,6.4,0,9.6.4s6.6,1,6.9,1.9.4,2.7.4,3.2.1.6-.4.4c-1.1-.3-2.8-1.3-4.1-1.8-5.1-1.7-10.3-2.7-15.6-2.9-2.8,2.1-5.2,4.9-8.1,7.1,0,.6.5.2.8,0,3.3-1.4,6.4-3.7,9.8-5.1.6.7-3.9,6.5-4.7,7.3,7.8-1.5,15.9-1.5,23.5.9l1.5,15c-.5.1-.6-.2-.9-.4-6.5-5-10.6-9.2-18.6-12.5-1.3-.5-5.6-2.4-6.7-1.9s-3.1,2.6-4,3.3-2,1.1-2.9,1.8c3.7,8.8,6,18.2,6.9,27.8-3.9,8.7-8.5,17.1-12.9,25.5,10,12.7,12.9,29.2,14.4,45-1.3,2.2-3.1,4.1-5,5.8.1-7.7-.8-15.9-3-23.3-.3-1-.6-2.5-1.4-3.2.2,8.3-.2,16.6-1.2,24.8s-.9,7.9-1.6,9-.4.4-.4.3c.8-7.6,0-15.4-1.3-22.9l-1.3-4.4c.4,11.4-1,22.9-4.4,33.8-.5,0-.3-.7-.3-1,.8-7.7,2.5-15.7.8-23.5s-.2-1.2-.8-1.4c-.7,9.4-3.3,19-6.9,27.6-.6,1.6-1.6,4.1-2.4,5.5s-9.9,7.4-12,8.6-.8.7-1.3.6c3.4-6.3,6.1-13.3,7.3-20.3,0,0-.4.2-.4.3-1.1,1.6-2.3,5.5-3.3,7.5s-1.9,3.6-2.9,5.1-1.1,2-1.9,2.2c3.8-9.1,7.4-18.8,7-28.8,0-.4.2-1.1-.3-1-4.8,15.2-14.4,30.8-27.2,40.6s-3.4,2.8-4.6,2.6c-4.5-2.5-9-5-13.3-7.9s-5.1-3.2-7.7-6.7c-9.5-12.8-14.9-30.7-11.8-46.5-.4,0-.6.8-.7,1.2-4.8,11.7-1.8,25.7,1.6,37.3-5.1-4.5-7.9-11-9.3-17.6-1.9-9.4-1.3-19.1,1.1-28.3-7.1,9.7-7,22.9-5.6,34.4-6.8-6.4-12.9-13.7-17.9-21.6l3.6-6.6,3.1-4.1c-.1,5.2-.9,10.5.5,15.5s.6,2,1.2,2.4c-2.5-13.2,1.7-26.5,12.3-34.8-5.4,2.1-10.4,5.8-14.1,10.3s-2.9,4.2-4.3,6.3c-.2.3-.3.9-.3,0,3.7-9.6,10.7-17.4,18.5-23.9-2,.3-3.8,1.4-5.6,2.3-5.3,2.7-11.1,6.4-15.6,10.3s-2.8,3.1-4.3,4.3-.7.7-.7,0l5-6.9c4-4.7,8.7-8.7,13.5-12.3l7.9-5.2c-10.3,2.1-19.7,8.4-27.6,15.1s-3.6,3.7-4.3,4-.7-1.1-.9-1.5c-1.1-3.2-1.6-6.6-2.4-9.9,0-.9,5.1-4.3,6.1-4.9,7.4-4.6,16.1-7.4,24.4-9.9,0-.4-.8-.5-1.1-.6-9.1-.9-17.2,1.2-25.1,5.6l3.8-3.1c5.2-3.4,10-5,16-6.1s.5.2.4-.6h-7.2c-1,0-4.5,1-5.7,1.4-2.4.8-4.6,2.2-7.1,2.7l4.9-2.9c6.3-3,13.1-4.5,20.1-3.6,0-.4-.5-.4-.8-.5-6.7-2.5-15.7-3.1-22.7-1.7s-5.5,1.7-8.2,2.5c.1-.6-.3-2.4.2-2.7s3.8-1.4,4.8-1.6c10.9-3.1,23.6-1.5,32.6,5.5.4-.2,0-.8-.1-1-.5-.7-2.5-2.5-3.2-3.2-6.9-6.3-15.4-10.4-24.6-11.9s-6.2-1-9.5.2l.3-2.9c12.7-.7,24.6,4,35.2,10.6,8.7-.9,17.4-2.3,26.1-1.1,2.8.4,5.6,1,8.4,1.7l-3.9-2.7c-2.6-1.3-5.4-2.1-8.1-3l-5.6-1.3c9.2.2,18.5,1.4,27.3,4.1l-5.4,2.1-2.2,1.6c.1,4.2.4,8.4.2,12.6s-.3,1.3-.3,2c0,1.7.6,4.3-.7,5.4l-1.2-4.1c-.6-.9-1-2.5-1.7-3.3s-5.2-2-6.7-2.7c-2.2-1-7.9-4.1-7.8-6.9s.7-1.5,0-2.1-3.9-.9-4.9-1c-4.1-.5-8.4-.2-12.5-.6,5.4,6.6,10.1,14,14.3,21.5l-.2.9c.2-1.1-.9-1.2-1.6-1.8-3-2.7-6.1-5.7-9.6-7.8,7.2,11.9,15.4,24.1,17.6,38.1.4-.2.5-1.5.5-1.9.3-2.5.4-4.7,1-7.2s1.2-4.7,1.7-4.3c2.8,6.7,8.7,11.7,15,15.1-4.5-.3-9.4-3.2-12.8-6s-1.6-2-2.8-2.5c2.5,5.2,7.1,9.2,12,12.1-2.5,0-5.7-1.4-7.9-2.7s-2.4-1.8-3.5-2.6-.6-.5-1.2-.4c1.7,3.2,4.4,5.8,7.6,7.4,0,.4.1.7-.4.6-2.6-.7-5.7-2.5-7.7-4.4-.3,2.1.3,4.4.8,6.5,1.5,6,5.4,15.3,11.5,17.6,7.5,2.9,15.7,1.7,23.4.3-.4.7-1.5.9-2.2,1.2-5.1,2-10.3,2.6-15.7,2.9l2.3,1.1c7.9,2.5,16.9.2,22.9-5.5.5-.5,1.4-1.1,1.2-1.8-.7-2.5-7.2-4.6-9.5-5.2l-7.7-1.8c3.7-.4,7.5-.5,11.2,0s4.1,1.3,6.1,1.2c-2.5-1.6-5.8-2.5-8.8-3-4.7-.8-8.7-.7-13.4-.4s-1.1.2-1-.3c1.7-.2,3.3-.8,4.9-1.1,5.8-.9,9.6-.4,15.3.1.3,0,1,.3.9-.2-7-3.4-16-3.9-23.4-1.8s-7.9,3-9.6,6.8c-.5,0-3.6-7.4-3.7-8.5h4.3c.7,0,3.9-1,4.8-1.3,4.5-1.5,8.9-4,12.6-6.8-1.1-5.5-4.9-9.7-9.6-12.4s-3.5-1.4-3.6-1.6c-.4-.6.6-3.1.2-4.1,8.3,1.7,16.9,1.9,25.3.9,0-1.6-2.1-2.4-3.3-2.7-2.6-.8-5.7-.8-8.5-1.1l3.1-.6c3.6-.1,7.2,0,10.7.9l-3.2-1.6-6.2-1c3.6-.5,7-.4,10.6.6,0,2.5,1.1,5.9.3,8.3-.1.3-5.4,2.2-6.3,2.8-2.8,1.6-5.4,4-7,6.8s-2.2,4.1-1.6,4.9,3.2,2.4,3.9,2.9c5.4,3.4,11.9,5.9,18.4,5.2s4.9-2.7,5.4-5.2-1.9.8-2.2,1c-2,1.1-4,2.1-6.3,2.5s-.9.5-.8,0c4.1-1.7,8.3-5.4,9.8-9.7-4.2,3.8-9.4,6.8-15.1,7.3l2.9-1.6c4-2.7,8.6-6.2,10.5-10.7-4.8,4.3-10.6,8-17.2,8.8l3.9-2.1c4.5-3,9.2-6.4,11.5-11.4-2,2.1-4.8,4.2-7.3,5.6s-5.6,3.1-8.1,3c5.2-2.2,11-6.6,13.3-12s1.4-3.9,1.3-4.7-2.2-4.8-2.9-5.9c-4.1-6.6-10.3-11.2-18.1-12.5s-6.7,0-10.3.5l5.5-2c2.8-.6,5.7-1.4,8.6-1.5-.1-.6-.6-.5-1-.6-4-1.1-8.5-.5-12.5,0l6-2.9c2.7-1,5.5-1.7,8.4-2.1l-4.3-.9c-1.7-.1-3.4,0-5.1.2s-1,.3-.9-.2c4.7-1.9,9.7-3.3,14.7-4.1l2.6,15.9c-.2-1.5.2-2.9.3-4.2,0-2-.4-11.8.6-12.7s6.1-1.6,7.3-1.8c3.2-.6,6.7-1,9.9-1.3,5.5-.5,11.1-.7,16.6-.3-.3-.6-1.3-.8-2-1.1-5.4-2.2-12.1-3.6-17.9-4.4s-16.1-1.4-24.2-1.2l7.3-1.9c9.3-1.7,18.8-2,28.2-1.3l-3.5-1.1c-10.2-1.8-20.6-.7-30.9-.4l10-2.2c6.5-1.3,13.1-1.5,19.7-1.3l-2.9-1c-5.6-1.3-12.3-1.3-18.1-1s-6.9.9-7.2.8-.4-.4-.3-.4c4.2-.9,8.3-2.4,12.5-2.9,3.9-.5,7.7-.3,11.6-.3-.9-.9-2.9-1.3-4.2-1.6-6.7-1.4-13-.5-19.6.4l5.1-1.8c3.7-1,7.4-1.9,11.3-2.3s1.8.1,2.6,0,.6.1.4-.4-4-5.9-4.3-6c-5.1-.5-10.3.2-15.4.8-.2-.4.3-.9.3-1,0-1.7-.1-3.6,0-5.3ZM235.2,206.7c-.2.2-.3.9-.7.6,3.6-6.2,7.7-12.3,12.5-17.8,1.8-2.1,7-5.6.4-4.3s-5.5,1.4-7.9,2.4-3.8,1.7-3.9,1.9c-.4.4-.3,3.1-.5,3.9s-3.6,3-4.6,3.6c-1.6.9-6.9,2.7-7.6,3.6-1.7,2.2-2.9,7.5-2.3,10.2.2.7,3.5,4.3,4.3,5.4,2.9,4.2,5.3,9.4,5.9,14.5.4,0,.5-.4.6-.7,3.4-7.4,4.5-11.7,9.7-18.5,1.3-1.7,2.9-3.6,4.4-5-.3-.5-.6.1-.9.3-2.9,2-4.7,4.6-7.2,6.6s-.7.7-.7,0c.6,0,.5-.3.7-.6,3.2-6.2,7.2-11.9,11.7-17.2.5-1.2-1.7.6-1.9.7-4.1,3.2-7.9,6.9-11.8,10.4ZM181,192.5c-.4-.4-1.1,1-1.5,1.3-2.1,1.5-4.2.7-6.4.9,1,.8,8,4.2,8.5,3.7,0-1,0-5.3-.6-5.9ZM220.4,194.1c-.2,1.3.1,2.9,0,4.3,2.6-.3,5.6-1.6,7.6-3.2-1.9.3-3.8.7-5.6-.5s-1.8-2.3-2.1-.6ZM151.1,207.5c-.4-.2-.8.2-.6.3.4.2.8-.2.6-.3ZM150.3,214.8v.3c.2,0,.2-.2,0-.3ZM167.1,273v.3c.2,0,.2-.2,0-.3ZM193.4,302.4l-8.5-5.5c-5.4-4.1-9.9-9.2-13.5-15l-4.2-8.3c.2,3.5,2,7.2,3.7,10.3,4.6,8.6,12,17.7,22.5,18.5Z"/>
  <path class="st3" d="M185.4,243.9c.2.1-.2.5-.6.3s.2-.5.6-.3Z"/>
  <path class="st3" d="M208.1,265.7c.2.1-.2.5-.6.3s.2-.5.6-.3Z"/>
  <path class="st3" d="M172.7,129c.2,0,.2.2,0,.3v-.3Z"/>
  <path class="st3" d="M151.6,181l-.7-.3c-2.7-2.7-5.2-5.9-8.1-8.4s-6-4.7-7.2-5.1-.5,0-.4.1l.4.7c-6.7-3.2-13.8-5-21.3-5l.9-5.9c6.4,1.2,12.2,4.5,17.8,7.6,6.3,3.5,11.7,6.8,16.7,12.1s2.4,2.7,2.5,2.8c0,.4-.6.8-.6,1.3Z"/>
  <path class="st0" d="M235.2,206.7c3.9-3.5,7.7-7.1,11.8-10.4s2.4-1.9,1.9-.7c-4.5,5.3-8.5,11-11.7,17.2-.2.3,0,.7-.7.6,0,.7.5.2.7,0,2.5-2,4.3-4.6,7.2-6.6s.6-.8.9-.3c-1.5,1.4-3.1,3.3-4.4,5-5.2,6.8-6.3,11.2-9.7,18.5s-.2.7-.6.7c-.7-5.1-3-10.3-5.9-14.5s-4.1-4.7-4.3-5.4c-.6-2.7.6-8,2.3-10.2s6-2.7,7.6-3.6,4.3-2.6,4.6-3.6.2-3.5.5-3.9,3.4-1.7,3.9-1.9c2.4-1,5.3-1.9,7.9-2.4,6.6-1.2,1.4,2.2-.4,4.3-4.8,5.5-8.8,11.6-12.5,17.8.4.3.5-.5.7-.6Z"/>
  <path class="st2" d="M193.4,302.4c-10.5-.8-17.9-9.9-22.5-18.5s-3.4-6.8-3.7-10.3l4.2,8.3c3.6,5.8,8.1,10.9,13.5,15l8.5,5.5Z"/>
  <path class="st2" d="M181,192.5c.6.6.6,4.9.6,5.9-.5.5-7.6-2.9-8.5-3.7,2.3-.2,4.4.6,6.4-.9s1.1-1.7,1.5-1.3Z"/>
  <path class="st2" d="M220.4,194.1c.3-1.8,1.5.2,2.1.6,1.8,1.2,3.6.7,5.6.5-2.1,1.6-5.1,2.9-7.6,3.2.1-1.3-.2-3,0-4.3Z"/>
  <path class="st2" d="M151.1,207.5c.2.1-.2.5-.6.3s.2-.5.6-.3Z"/>
  <path class="st2" d="M167.1,273c.2,0,.2.2,0,.3v-.3Z"/>
  <path class="st2" d="M150.3,214.8c.2,0,.2.2,0,.3v-.3Z"/>
  <path class="st2" d="M146.6,157.2c-.1.2-.5-.2-.3-.6s.5.2.3.6Z"/>
</svg>