<?xml version="1.0" encoding="UTF-8"?>
<svg id="Layer_1" data-name="Layer 1" xmlns="http://www.w3.org/2000/svg" viewBox="0 0 1000 1000">
  <defs>
    <style>
      .cls-1 {
        fill: #0a214e;
      }

      .cls-2 {
        fill: #0a214f;
      }

      .cls-3 {
        fill: #dadde4;
      }

      .cls-4 {
        fill: #fefefe;
      }

      .cls-5 {
        fill: #fdfdfd;
      }
    </style>
  </defs>
  <path class="cls-3" d="M83.81,304.77h-.67v-22.28h.67c1.87,7.29,1.86,14.99,0,22.28Z"/>
  <path class="cls-2" d="M83.81,282.49c.69-56.89,7.45-112.64,13.49-169.1l.67-1.35c1.43-.45,2.91-.82,4.41-.99,33.77-3.76,67.99-4.32,101.81-8.19,97.78-11.21,192.61-38.03,282.72-76.7,76.74,32.78,156.46,57.36,239.12,70.59,49.67,7.95,99.86,10.87,149.98,15.02,3.57,36.31,8.89,72.55,11.52,108.96,10.57,146.35-9.59,286.21-80.86,415.24-75.49,136.66-195.71,239.69-319.77,330.88-126.96-93.24-250.29-199.44-325.17-340.77-53.28-100.57-76.43-207.52-77.93-321.32-.1-7.4-.09-14.87,0-22.28Z"/>
  <path class="cls-5" d="M135.09,150.18c88.42-4.57,175.99-19.29,260.33-45.72,31.04-9.73,61.34-21.47,91.61-33.28,105,44.71,214.86,68.42,328.64,77.65,3.09.25,22.14.78,22.98,1.99,2.02,22.42,5.29,44.77,7.04,67.21,8.94,115.06-1.68,230.89-46.24,337.81-62.69,150.43-184.25,263.56-312.42,358.99-21.31-16.15-42.7-32.26-63.43-49.16-152.62-124.44-264.58-266.85-291.79-468.2-11.13-82.4-6.82-165.07,3.28-247.3Z"/>
  <path class="cls-1" d="M801.08,189.41c1,11.56,2.55,23.13,3.44,34.69,8.09,104.89-.86,210.02-40.16,308.13-54.5,136.07-161.87,241.79-276.12,329.32l-2.2.44c-113.38-86.98-219.8-191.18-275.01-325.73-44.9-109.42-51.92-229.73-38.2-346.48.47-.75,1.62-.95,2.45-1.06,8.58-1.15,18.2-1.14,26.95-2.09,97.74-10.61,193.77-34.21,284.8-70.8,73.36,29.35,149.96,50.93,228.19,63.27,28.48,4.49,57.15,7.54,85.85,10.31Z"/>
  <path class="cls-4" d="M720.8,312.14l-53.93,26.38c-22.59-46.27-64.84-83.28-113.54-100.08-89.62-30.92-187.88,3.96-237.67,83.94-60.8,97.67-27.24,225.92,72.03,282.21,100.05,56.73,228.53,17.13,279.22-85.13l53.88,26.34c.75,1.06-4.92,10.78-5.91,12.55-77.37,137.86-261.53,175.27-387.4,78.79-139.17-106.68-136.23-317.92,5.79-420.67,124.69-90.22,300.92-53.51,378.91,78.4,1.32,2.24,9.47,16.07,8.61,17.28Z"/>
  <path class="cls-4" d="M637.17,354.03l-54.26,26.39c-31.22-61.61-112-78.49-165.38-33.78-54.31,45.48-49.79,131.08,8.49,171.02,53.79,36.87,127.63,17.39,156.89-40.14l54.26,26.39c-18.79,38.14-52.73,68.57-92.78,83.03-71.18,25.7-149.97,1.01-193.9-59.87-57.28-79.38-34.26-190.56,48.52-241.47,83.92-51.61,195.1-19.33,238.16,68.44Z"/>
</svg>