<?xml version="1.0" encoding="UTF-8"?>
<svg id="Camada_1" xmlns="http://www.w3.org/2000/svg" version="1.1" viewBox="0 0 1000 1000">
  <!-- Generator: Adobe Illustrator 29.1.0, SVG Export Plug-In . SVG Version: 2.1.0 Build 142)  -->
  <defs>
    <style>
      .st0 {
        fill: #73263d;
      }

      .st1 {
        fill: #b5985a;
      }
    </style>
  </defs>
  <g id="Layer_2">
    <g id="Layer_1-2">
      <path class="st1" d="M993.6,244.41v-72.49l-17.69-17.92C748.28-62.53,260.76,221.75,95.32,358.75L13.58,485.92l101.62-25.2C-40.98,656.21,14.86,784.65,21.45,797.95c16.42,46.24,53.99,83.24,114.8,107.52,46.24,18.5,98.61,20.69,143.59,18.61,194.11-9.02,423.59-130.06,571.8-259.2l3.47-3.01,29.94-148.44-57.8,32.02c-117.74,51.91-238.19,97.45-360.82,136.42-105.32,32.83-153.64,38.15-188.1,30.17l-4.51-.92c-6.42-2.1-10.97-7.83-11.56-14.57-1.62-65.9,111.68-208.1,168.79-268.79,53.18-57.11,136.77-119.77,207.52-149.6,47.4-19.88,77.92-27.86,92.49-26.36-5.27,15.93-11.84,31.4-19.65,46.24,0,0-55.03,108.56-73.3,144.4-.88,1.84-.1,4.05,1.74,4.93,1.06.51,2.31.48,3.34-.08l350.41-202.89Z"/>
      <path class="st0" d="M544.12,233.78c-65.32,34.68-140.12,104.05-163.59,128.67-190.87,203.36-324.63,475.04,93.41,344.86,123.8-39.31,245.37-85.31,364.17-137.81-570.99,482.32-1109.96,280.35-579.55-226.48-48.32,10.98-97,21.5-144.74,34.68C283.88,237.13,749.44-24.84,957.42,173.08l-222.66,136.19c95.38-186.94-76.42-143.01-191.1-75.49"/>
    </g>
  </g>
</svg>