<?xml version="1.0" encoding="UTF-8"?>
<svg id="Layer_1" xmlns="http://www.w3.org/2000/svg" version="1.1" viewBox="0 0 400 400">
  <!-- Generator: Adobe Illustrator 30.1.0, SVG Export Plug-In . SVG Version: 2.1.1 Build 136)  -->
  <defs>
    <style>
      .st0 {
        fill: #fff;
      }
    </style>
  </defs>
  <path d="M207.3,396.2c-5.2,3.3-10.6,2.6-15.4-.5-25.3-16.6-47.9-36.4-67.6-59.4-9.2-10.8-17.7-21.7-25.6-33.5-24.6-36.8-46.8-85.8-53.3-129.8-1.8-12.5-.7-24.5,3.7-36.2s9.6-19.4,14.5-30.6c3.3-7.9,3.2-16-.4-23.8-4-9.1-10.9-16.1-18.9-22.3L103.1,1.6c58.9,34.2,134.6,34.3,193.7,0l58.8,58.4c-7.8,6.1-14.7,12.9-18.7,21.7-4,8.3-4,16.8-.4,25.1l10,20c8.3,16.7,10.4,31.3,7.4,49.8-2,12.3-5,23.9-8.9,35.8-9,27.9-21.3,53.9-36.5,78.9-6.6,10.9-13.7,20.9-21.5,31-22.4,28.9-48.9,53.9-79.8,73.9ZM329.6,107.3c-3.3-8.7-3.2-17.4.2-25.8,3.3-8.5,8.8-15.5,15.8-21.9l-50-49.7c-59,32.2-132.4,32-191.3,0l-50,49.6c7.5,7.1,13.6,14.9,16.7,24.5,2.4,7.2,2.3,14.2,0,21.4-1.9,4.9-4,9.4-6.4,14.6h270.4s-5.6-12.7-5.6-12.7ZM58.8,202.5c8.9,28.6,20.4,55.8,37,82.4V126.5c.1,0-34.6,0-34.6,0-3,5.8-5.4,11.5-7.3,17.7-5.6,19.5-.2,38.8,4.9,58.4ZM155.2,358.2V126.4s-30.6,0-30.6,0v199.5c9.6,11.1,19,22.1,30.6,32.2ZM203.1,390.7c4-2.6,7.6-5,11.3-7.7V126.6s-30.3,0-30.3,0v255.4s12,8.2,12,8.2c1.9,1.3,4.8,2,7.1.5ZM273.8,328V126.5s-30.6,0-30.6,0v233.4c11.6-10,21.1-20.7,30.6-31.8ZM347.7,173.3c1.7-11,1-21.1-2.2-31.4-1.9-5.4-4-10.4-6.6-15.5h-36.5c0,0,.2,161.2.2,161.2,20.9-32.7,39.3-77,45.1-114.3Z"/>
  <path class="st0" d="M329.6,107.3l5.6,12.7H64.7c2.4-5.3,4.5-9.8,6.4-14.6,2.3-7.1,2.4-14.2,0-21.4-3.1-9.6-9.1-17.3-16.7-24.5L104.4,9.9c58.9,32,132.3,32.1,191.3,0l50,49.7c-7,6.5-12.5,13.4-15.8,21.9-3.5,8.4-3.5,17.1-.2,25.8ZM133,62.8c-3.3-1.6-4.8-4.9-5-7.9s.7-6.5,3.5-8.4c4.1-2.8,9.2-1.9,13.2,1.4,1.3-1.7,2.3-3.5,3.4-5.6-6.3-5-15.2-5.6-21.7-.7s-8.3,18.9-.4,25.2c6.9,5.6,16.9,4.5,23-1.5l-3.7-5.3c-3.5,3.2-7.9,5-12.4,2.8ZM237.8,62.8c-3.3-1.6-4.8-4.9-5-8-.2-3,.8-6.4,3.5-8.3,4.1-2.8,9.2-2,13.2,1.4,1.3-1.7,2.4-3.5,3.5-5.6-6.4-5.1-15.2-5.6-21.8-.7s-8.3,18.6-.7,25c6.9,5.8,17.1,4.8,23.3-1.2-1.4-2.1-2.5-3.7-3.8-5.3-3.7,3.5-8,4.8-12.3,2.7ZM197.1,52h-9.5c0,0,0-7,0-7h11.5c0,0,0-6.3,0-6.3h-18.8s0,31.1,0,31.1h7.3c0,.1.2-11.6.2-11.6h9.5c0,0,0-6.2,0-6.2ZM167,69.9v-6.8c-.1,0-6.9,0-6.9,0v6.7s6.9,0,6.9,0ZM214.3,69.8l-.2-6.7h-6.7c0,0,0,6.8,0,6.8h6.8ZM271.7,69.9v-6.8c-.1,0-6.9,0-6.9,0v6.8s6.9,0,6.9,0ZM259.1,77.4l2.5,3.6,5.1-.2-4-6.1h-7.3s-3.9,6.2-3.9,6.2h5.3s2.3-3.5,2.3-3.5ZM139.3,114v-24.5c0,0,9.6,0,9.6,0v-6c-.1,0-26.5,0-26.5,0v6c0,0,9.5.2,9.5.2v24.7c2.7.2,5.2.3,7.4-.3ZM167.3,114.2v-30.8s-7.4,0-7.4,0v30.9s7.4,0,7.4,0ZM199,101.7v-6c-.1,0-9.6-.1-9.6-.1v-6.1s11.9,0,11.9,0v-6s-19.2,0-19.2,0v30.9s19.8,0,19.8,0v-6.2c0,0-12.5,0-12.5,0v-6.5c.1,0,9.6,0,9.6,0ZM228.3,114.3v-24.9s9.5,0,9.5,0v-6s-26.5,0-26.5,0v5.9s9.6.2,9.6.2v24.8c0,0,7.4,0,7.4,0ZM266,101.7v-6c0,0-9.5,0-9.5,0v-6.1s11.8,0,11.8,0v-6.1s-19.3,0-19.3,0v31s19.9,0,19.9,0v-6.2c0,0-12.5,0-12.5,0v-6.4c.1,0,9.5,0,9.5,0Z"/>
  <path class="st0" d="M203.1,390.7c-2.3,1.5-5.2.8-7.1-.5l-12-8.2V126.6s30.3,0,30.3,0v256.4c-3.7,2.7-7.3,5.1-11.3,7.7Z"/>
  <path class="st0" d="M273.8,328c-9.5,11.1-19.1,21.8-30.6,31.8V126.4s30.6,0,30.6,0v201.5Z"/>
  <path class="st0" d="M155.2,358.2c-11.6-10.1-21-21.1-30.6-32.2V126.5s30.6,0,30.6,0v231.8Z"/>
  <path class="st0" d="M347.7,173.3c-5.8,37.4-24.2,81.6-45.1,114.3l-.2-161.1h36.5c2.6,5,4.7,10,6.6,15.4,3.2,10.2,3.9,20.4,2.2,31.4Z"/>
  <path class="st0" d="M58.8,202.5c-5.2-19.6-10.5-38.9-4.9-58.4,1.9-6.2,4.2-11.9,7.3-17.7h34.8c0,0-.1,158.5-.1,158.5-16.6-26.5-28.1-53.7-37-82.4Z"/>
  <path d="M133,62.8c4.5,2.2,8.9.5,12.4-2.8l3.7,5.3c-6.2,6-16.1,7-23,1.5-7.9-6.3-7.7-19.2.4-25.2s15.4-4.3,21.7.7c-1.1,2.2-2.2,3.9-3.4,5.6-4-3.3-9.1-4.2-13.2-1.4-2.8,1.9-3.7,5.2-3.5,8.4s1.7,6.3,5,7.9Z"/>
  <path d="M237.8,62.8c4.3,2.1,8.6.7,12.3-2.7,1.3,1.6,2.5,3.2,3.8,5.3-6.2,6.1-16.4,7-23.3,1.2-7.6-6.4-7.3-19,.7-25s15.4-4.4,21.8.7c-1.1,2.1-2.2,3.9-3.5,5.6-4-3.3-9.2-4.2-13.2-1.4s-3.7,5.3-3.5,8.3c.2,3.1,1.7,6.4,5,8Z"/>
  <polygon points="266 101.7 256.6 101.8 256.5 108.2 269 108.2 268.9 114.4 249.1 114.3 249.1 83.3 268.4 83.3 268.4 89.4 256.5 89.4 256.5 95.6 265.9 95.6 266 101.7"/>
  <polygon points="199 101.7 189.6 101.7 189.5 108.2 202 108.2 201.9 114.4 182.1 114.3 182.1 83.4 201.3 83.4 201.3 89.4 189.5 89.4 189.4 95.6 198.9 95.7 199 101.7"/>
  <polygon points="197.1 52 197.2 58.1 187.6 58.2 187.4 69.9 180.2 69.8 180.2 38.8 199 38.7 199.1 45 187.6 45 187.6 52 197.1 52"/>
  <polygon points="228.3 114.3 221 114.3 220.9 89.5 211.4 89.3 211.4 83.4 237.8 83.4 237.8 89.4 228.4 89.4 228.3 114.3"/>
  <path d="M139.3,114c-2.2.5-4.7.5-7.3.3v-24.7c0,0-9.5-.2-9.5-.2v-6c0,0,26.3,0,26.3,0v6c.1,0-9.4,0-9.4,0v24.5Z"/>
  <polygon points="167.3 114.2 160 114.3 160 83.4 167.3 83.4 167.3 114.2"/>
  <polygon points="259.1 77.4 256.7 80.9 251.5 80.9 255.4 74.8 262.7 74.7 266.7 80.8 261.6 81 259.1 77.4"/>
  <polygon points="214.3 69.8 207.5 69.9 207.4 63.2 214.1 63.1 214.3 69.8"/>
  <polygon points="167 69.9 160.1 69.9 160.1 63.1 166.9 63.1 167 69.9"/>
  <polygon points="271.7 69.9 264.8 69.9 264.8 63.1 271.6 63.1 271.7 69.9"/>
</svg>