<svg id="Layer_2" data-name="Layer 2" xmlns="http://www.w3.org/2000/svg" xmlns:xlink="http://www.w3.org/1999/xlink" viewBox="0 0 892 600"><defs><style>.cls-1{fill:none;}.cls-2{clip-path:url(#clip-path);}.cls-3{fill:#fff;}.cls-4{fill:#024fa2;}.cls-5{fill:#ed1c27;}.cls-6{fill:#939598;}</style><clipPath id="clip-path"><rect class="cls-1" width="892" height="600" rx="30.93"/></clipPath></defs><title>Coreia do Norte</title><g class="cls-2"><rect class="cls-3" y="297.3" width="891.9" height="297.3"/><rect class="cls-4" width="891.9" height="600"/><rect class="cls-3" x="2" y="100" width="889.9" height="400"/><rect class="cls-5" x="2" y="116.67" width="890" height="366.67"/><ellipse class="cls-3" cx="333.02" cy="300" rx="131.48" ry="133.33"/><g id="star"><g id="cone"><polygon id="triangle" class="cls-5" points="333.02 170.83 293.66 293.68 354.23 313.63 333.02 170.83"/><g id="use12"><polygon class="cls-5" points="333.02 170.83 372.38 293.68 311.81 313.63 333.02 170.83"/></g></g><g id="use14"><polygon class="cls-5" points="454.16 260.08 326.78 260.08 326.78 324.67 454.16 260.08"/><polygon class="cls-5" points="454.16 260.08 351.11 336.01 313.68 283.76 454.16 260.08"/></g><g id="use16"><polygon class="cls-5" points="211.88 260.08 314.93 336.01 352.36 283.76 211.88 260.08"/><polygon class="cls-5" points="211.88 260.08 339.25 260.08 339.25 324.67 211.88 260.08"/></g><g id="use18"><polygon class="cls-5" points="407.89 404.5 368.53 281.65 307.96 301.61 407.89 404.5"/><polygon class="cls-5" points="407.89 404.5 304.84 328.58 342.27 276.33 407.89 404.5"/></g><g id="use20"><polygon class="cls-5" points="258.15 404.5 361.2 328.58 323.76 276.33 258.15 404.5"/><polygon class="cls-5" points="258.15 404.5 297.51 281.65 358.08 301.61 258.15 404.5"/></g></g></g><g id="Layer_1" data-name="Layer 1"><path class="cls-6" d="M861.1,6A25,25,0,0,1,886,30.9V569a24.9,24.9,0,0,1-24.9,24.9H30.9A24.82,24.82,0,0,1,6,569.1V30.9A25,25,0,0,1,30.9,6H861.1m0-6H30.9A30.86,30.86,0,0,0,0,30.9H0V569a30.88,30.88,0,0,0,30.9,31H861a30.86,30.86,0,0,0,30.9-30.9V30.9A30.71,30.71,0,0,0,861.1,0Z"/></g></svg>