<?xml version="1.0" encoding="utf-8"?>
<!-- Generator: Adobe Illustrator 23.0.3, SVG Export Plug-In . SVG Version: 6.00 Build 0)  -->
<svg version="1.1" id="Layer_1" xmlns="http://www.w3.org/2000/svg" xmlns:xlink="http://www.w3.org/1999/xlink" x="0px" y="0px"
	 viewBox="0 0 892 600" style="enable-background:new 0 0 892 600;" xml:space="preserve">
<style type="text/css">
	.st0{clip-path:url(#SVGID_2_);}
	.st1{fill:#002A8F;}
	.st2{fill:#FFFFFF;}
	.st3{fill:#CF142B;}
	.st4{fill:#939598;}
</style>
<title>Cuba</title>
<g>
	<defs>
		<path id="SVGID_1_" d="M30.9,0h830.1C878.2,0,892,13.8,892,30.9v538.1c0,17.1-13.8,30.9-30.9,30.9H30.9C13.8,600,0,586.2,0,569.1
			V30.9C0,13.8,13.8,0,30.9,0z"/>
	</defs>
	<clipPath id="SVGID_2_">
		<use xlink:href="#SVGID_1_"  style="overflow:visible;"/>
	</clipPath>
	<g class="st0">
		<path class="st1" d="M-9.4-5.2H892v610.4H-9.4"/>
		<path class="st2" d="M-9.4,108.2H892v122.1H-9.4v122.1H892v122.1H-9.4"/>
		<path class="st3" d="M519.2,300L-9.4-5.2v610.4"/>
		<polygon class="st2" points="200.1,310.7 253.8,271.8 187.4,271.8 166.8,208.4 146.1,271.8 79.7,271.8 133.4,310.7 112.7,374 
			166.8,335 220.9,374 		"/>
	</g>
</g>
<path class="st4" d="M861.4,6c13.7,0.1,24.7,11.2,24.7,24.9V569c0.1,13.7-11,24.8-24.7,24.9c0,0,0,0,0,0H30.7
	C17,593.9,6,582.8,6,569.1c0,0,0,0,0,0V30.9C6,17.2,17,6.1,30.7,6H861.4 M861.4,0H30.7C13.7,0,0,13.8,0,30.8c0,0,0,0.1,0,0.1l0,0
	V569c-0.1,17,13.5,30.9,30.5,31c0,0,0.1,0,0.1,0h830.7c17,0,30.7-13.8,30.7-30.8c0,0,0-0.1,0-0.1V30.9C892.2,14,878.6,0.2,861.7,0
	C861.6,0,861.5,0,861.4,0z"/>
</svg>
