<?xml version="1.0" encoding="UTF-8"?>
<svg id="Calque_2" xmlns="http://www.w3.org/2000/svg" version="1.1" viewBox="0 0 500 500">
  <!-- Generator: Adobe Illustrator 30.1.0, SVG Export Plug-In . SVG Version: 2.1.1 Build 136)  -->
  <defs>
    <style>
      .st0 {
        fill: #ca9a56;
      }
    </style>
  </defs>
  <g id="Capa_1">
    <g>
      <path class="st0" d="M493.3,250c0,134.4-109,243.3-243.3,243.3S6.7,384.4,6.7,250,115.6,6.7,250,6.7s243.3,108.9,243.3,243.3Z"/>
      <path d="M398.9,398.9c-19.3,19.3-41.9,34.5-66.9,45.1-26,11-53.5,16.5-82,16.5s-56-5.6-82-16.5c-25.1-10.6-47.6-25.8-66.9-45.1-19.3-19.3-34.5-41.9-45.1-66.9-11-26-16.5-53.5-16.5-82s5.6-56,16.5-82c10.6-25.1,25.8-47.6,45.1-66.9,19.3-19.3,41.9-34.5,66.9-45.1,26-11,53.5-16.5,82-16.5s56,5.6,82,16.5c25.1,10.6,47.6,25.8,66.9,45.1,19.3,19.3,34.5,41.9,45.1,66.9,11,26,16.5,53.5,16.5,82s-5.6,56-16.5,82c-10.6,25.1-25.8,47.6-45.1,66.9h0ZM250,23C124.7,23,23,124.6,23,250s101.6,227,227,227,227-101.6,227-227S375.4,23,250,23h0Z"/>
      <polygon points="235.7 373.5 249.1 373.5 249.1 362.6 237.7 362.6 235.7 373.5 235.7 373.5"/>
      <polygon points="208.9 359.9 220.4 360.2 221.2 354.8 211 353.9 208.9 359.9 208.9 359.9"/>
      <polygon points="287.7 365.9 295 366.2 293.8 360.6 286.2 361 287.4 365.9 287.7 365.9 287.7 365.9"/>
      <path d="M120,171.5l14.9-20.7c9.3-12.9,5.7-19.5-1.3-24.6l-3.9-2.9-9.3,12.8c5.2,3.8,4.5,6,.3,11.7l-9.9,13.7c-4.4,6.1-7.6,5.7-13.6,1.2l-4.5-3.3c-5.2-3.8-7.4-7.4-2.5-14.2l10.1-14c2.8-3.8,5.2-5.4,8.2-3.2l1.1.9,9.3-12.8c-11.6-8.8-17.2-9.3-30.4,9l-10.9,15.1c-8.4,11.6-10.5,20.5,1.6,29.5l12.4,9.1c12.1,9,19.9,4.2,28.3-7.4h0Z"/>
      <path d="M170.5,121.1l20-10.3c12.9-6.6,16-15.1,10.2-26.6l-15-29.7-14,7.2,13.4,26.6c3,5.9,2,9.2-3.7,12.2l-13.9,7.2c-5.7,3-9,1.7-11.9-4.1l-13.4-26.6-14,7.2,15,29.7c5.8,11.5,14.4,13.9,27.3,7.3h0Z"/>
      <path d="M242.5,78.5c20.2-.3,22.1,0,22.1,4.4,0,4-3.3,4.4-6.7,4.5l-19.2.3c-4.5,0-6.7-.3-6.9-5.8l-15.7.3v3.6c.2,11.2,6,13.9,20.3,13.6l19-.3c20.9-.3,25.5-2.7,25.3-16.7-.2-15.1-5.9-16.5-30.3-16-16.8.3-18.7.2-18.8-4.3,0-2.8,2.4-4.1,5.9-4.1l17.4-.3c7.2-.1,7.7,1.4,7.7,5.3l15.7-.3v-1.6c-.2-9.1-2-15.3-20.1-15l-21.9.4c-19.8.3-20.5,7.6-20.4,17,.2,12.7,2.9,15.6,26.6,15.2h0Z"/>
      <path d="M307.8,110.1l22.7,11.3c14.2,7.1,20,2.3,23.7-5.6l2.1-4.4-14.1-7c-2.8,5.8-5,5.5-11.4,2.3l-15-7.5c-6.7-3.3-6.8-6.6-3.5-13.3l2.4-5c2.8-5.8,5.9-8.6,13.3-4.9l15.4,7.6c4.2,2.1,6.1,4.3,4.5,7.6l-.6,1.3,14.1,7c6.5-13.1,6-18.8-14-28.8l-16.6-8.3c-12.7-6.3-21.8-6.9-28.4,6.8l-6.8,13.9c-6.6,13.6-.6,20.6,12.1,26.9h0Z"/>
      <path d="M407.9,160.4l-4.4,3.3c-6,4.5-9.2,4.9-13.6-1.2l-11.9-16.4c-4.4-6-3-9,2.9-13.5l4.4-3.3c5.1-3.8,9.2-4.9,14.1,1.9l10.9,15c4.9,6.8,2.7,10.3-2.4,14.2h0ZM408,120.6c-8.4-11.5-16.2-16.3-28.3-7.3l-12.3,9.2c-12.1,9-9.9,18-1.5,29.5l14.9,20.5c8.4,11.5,16.2,16.3,28.3,7.3l12.3-9.2c12.1-9,9.9-18,1.5-29.5l-14.9-20.5h0Z"/>
      <g>
        <polygon points="108.2 346.6 115.9 357.7 121.1 354.1 109.3 337.1 87.9 351.7 91.9 357.6 99.6 352.4 106.6 362.5 111.6 359.1 104.6 349.1 108.2 346.6 108.2 346.6"/>
        <path d="M139.3,373l-10.2,10.4c-2.6,2.6-5.1,2.5-7.2.5-2.1-2-2.2-4.6.4-7.2l10.1-10.3-5.3-5-10.2,10.4c-5.7,5.8-4.9,11.7.4,16.8s11.3,5.8,17.2-.2l10.1-10.2-5.3-5h0Z"/>
        <polygon points="152.1 383.8 148.6 389.1 155.2 393.2 144.6 409.7 150.7 413.5 161.3 397.1 167.9 401.3 171.3 396 152.1 383.8 152.1 383.8"/>
        <path d="M190.9,413.1h0c-.6,1.5-2,1.7-4.1.9l-4.2-1.6,1.7-4.2,4.4,1.7c2,.8,2.8,1.9,2.2,3.2h0ZM188.4,422.5h0c-.6,1.5-2.1,1.8-4.1,1l-5.2-2,1.7-4.4,5.1,2c2.3.9,3,2.1,2.4,3.4h0ZM192.4,405.1l-12.5-4.8-9.5,24,12.5,4.8c5.8,2.3,10.2,1.1,11.8-3h0c1.3-3.3.1-5.7-2.5-7.8,2.5-.1,4.8-1.1,5.9-3.9h0c.7-1.7.6-3.2,0-4.5-.9-1.9-2.7-3.5-5.8-4.7h0Z"/>
        <path d="M229.4,427.3h0c-.6,3.8-3.7,6.5-7.6,5.9-3.9-.6-6.1-4.2-5.5-7.9h0c.6-3.8,3.7-6.5,7.6-5.9,3.9.6,6.1,4.2,5.6,7.9h0ZM224.9,413c-7.9-1.2-14.8,3.8-16,11.1h0c-1.2,7.4,3.8,14.1,11.8,15.4,7.9,1.2,14.8-3.8,16-11.1h0c1.2-7.4-3.8-14.1-11.8-15.4h0Z"/>
        <polygon points="257.4 434.8 256.4 415.3 249.2 415.7 250.5 441.4 270.3 440.4 270 434.2 257.4 434.8 257.4 434.8"/>
        <polygon points="276.9 424.7 278.1 430.7 290 428.5 288.9 422.4 276.9 424.7 276.9 424.7"/>
        <path d="M314.6,423.7c-3.4,1.2-6.9-.7-8.2-4.4h0c-1.3-3.6,0-7.3,3.4-8.6,2.4-.9,4.4-.3,6.4.9l3.7-5.8c-3.3-2.2-7.3-3.1-12.2-1.3-7.4,2.7-10.9,10.2-8.3,17.3h0c2.7,7.3,10.3,10.5,17.3,8,5.4-1.9,7.7-5.4,8.8-9.4l-6.4-1.7c-.8,2.3-1.9,4-4.4,4.9h0Z"/>
        <polygon points="343 410 332.9 393.3 326.7 397 340.1 419 357.1 408.9 353.8 403.5 343 410 343 410"/>
        <path d="M368.4,366.1l-5.5,4.8,9.8,10.8c2.4,2.7,2.1,5.2,0,7.1-2.1,1.9-4.8,1.8-7.3-.9l-9.7-10.6-5.5,4.8,9.8,10.8c5.5,6,11.4,5.7,16.9.8,5.5-4.9,6.6-10.8,1-17l-9.7-10.6h0Z"/>
        <path d="M399.6,359.6l-3.3,4.5-3.9-2.8,3.2-4.4c1.4-1.9,2.8-2.3,4-1.5h0c1.2.9,1.2,2.5-.1,4.2h0ZM391.1,354.7l-2.7,3.6-3.7-2.7,2.8-3.8c1.3-1.7,2.6-2.1,3.8-1.3h0c1.2.9,1.1,2.4-.2,4.1h0ZM404.9,350.3h0c-2.9-2.1-5.5-1.5-8.2.4.5-2.4.1-4.8-2.3-6.6h0c-1.4-1.1-2.9-1.4-4.4-1.2-2.1.3-4.2,1.7-6.1,4.3l-7.9,10.6,21,15.2,7.9-10.7c3.7-4.9,3.7-9.5,0-12.1h.1Z"/>
      </g>
      <path d="M245,389.7c-.9,0-1.8,0-2.8-.1-.4,0-.8,0-1.2,0-.9,0-1.9-.1-2.8-.2-.3,0-.7,0-1-.1-1.1-.1-2.1-.2-3.2-.3-.2,0-.4,0-.6,0-5.3-.6-10.6-1.5-15.8-2.8h0l3.1-9.5-10-.7-3.4,7.2c-1-.3-2-.6-3-1h0c-1-.3-1.9-.7-2.9-1,0,0-.1,0-.2,0-.9-.3-1.8-.7-2.7-1.1-.1,0-.2-.1-.3-.1-.9-.3-1.7-.7-2.6-1.1-.2,0-.3-.1-.5-.2-.8-.3-1.6-.7-2.5-1.1-.2,0-.4-.2-.6-.3-.8-.3-1.6-.7-2.4-1.1-.2-.1-.4-.2-.6-.3-.8-.4-1.5-.8-2.3-1.1-.2-.1-.4-.2-.6-.3-.8-.4-1.6-.8-2.3-1.2h0l19.4-24.5h17.9s5.1-14.4,8.9-16.4l3.9,4.1h13l2.4,5.5h10.9s3.7,4.2,3,10.9h32.4l8.5,9.2s2.4-.2,6.3,0c3,2.7,5.4,7.7,6.6,10.7-.5.3-1,.5-1.5.8-.4.2-.9.5-1.3.7-1,.5-2.1,1.1-3.1,1.6h0c-1,.5-2,1-3,1.4h0c-1,.4-2,.9-3,1.3h0l-11.6.6.6,3.5c-1,.3-1.9.6-2.9.9,0,0-.2,0-.2,0-1,.3-2,.6-3.1.9h0c-2.1.6-4.2,1.1-6.2,1.6h-.1l-3.8-14.3-12,.9,1.9,15.9h0c-1.4.2-2.8.3-4.2.4-.2,0-.4,0-.7,0-1.1.1-2.2.2-3.3.3-.4,0-.8,0-1.2,0-1,0-2,.1-3,.1-.4,0-.8,0-1.2,0-1.4,0-2.7,0-4.1,0s-2.6,0-3.9,0c-.4,0-.8,0-1.1,0h0v.2ZM176.7,369c-2.7-1.6-5.3-3.4-7.8-5.2h0c0-1.7.3-3.4.3-3.4l34.1-28.1s-.2,8.7-1.7,10.6c-1.3,1.6-19.4,20.5-24.9,26.2h0ZM159.8,356.8c-.3-.2-.6-.5-.9-.7-1-.9-2-1.8-3-2.7h0l11.4-7.7h2.9v7.2l-8.4,5.7c-.7-.5-1.4-1.1-2-1.7h0ZM149.9,347.5c-4.1-4.2-7.8-8.6-11.3-13.1,0,0-.1-.1-.1-.2-1.1-1.5-2.3-3-3.3-4.6h0c3.5-7.6,26.6-58.4,28.7-62.2,2.2-4.1,24.5-15.8,24.5-15.8l5.3-2.4s15.3,21.5,16.5,22.8c1.2,1.4,4.4-6.5,4.4-6.5h21.1s30-52.1,32.9-57.1,12.6-11.8,17-15.2c4.4-3.4,13-2.2,13-2.2,0,0,12.8,25.4,20.9,39.7,6-.9,14.5,11.4,14.5,11.4l27.4.7,27.6,20.6h0l-.3,2.9v.2c-.1,1-.2,2-.4,3l-28.8-21.7s-22.8.2-27.9,0c-3.2-8.9-18.2-14-18.2-14l-17.9-35.6-14.3,27.6s3.9,7,4.4,12.6c.5,5.6-6.1,19.6-12.8,34.1-6.7,14.5-19.4,21.8-22.8,22.7,0-1.2-11.6-24.5-11.6-24.5h-14.3s-.5,2.6-1.5,6.5-6.8,14.7-6.8,14.7l-24.5-35.5-12.1,25.4,5.1,4.3s-4.1,10.4-7.2,15.7c-2,3.9,2.7,35.1,2.7,35.1l-12.9-.2-17,10.8h0ZM127.1,316.6l1.7-.4h0s8.6-2.1,8.6-2.1c0,0-3.1,7-5.1,11.3-1.8-2.9-3.5-5.8-5.2-8.7h0ZM117.7,295h.8c0-.1,28.4-4.3,28.4-4.3l-2.3,6.5-24.2,4.9c-.9-2.3-1.8-4.7-2.6-7.1h0ZM111.5,268.4h1.5c0,0,33.3.6,39.8,1.3.2,0,.3,0,.5,0,5.1.7.6,6.2.6,6.2,0,0-19.6.6-30.8.5-4.3,0-7.9,0-10.3-.2-.5-2.6-.9-5.3-1.3-8h0ZM389.7,249.6h0v.4h0c0,1.1,0,2.2,0,3.3,0,1.1,0,2.1-.1,3.2v.2l-3,1.5-4.5-6.5,7.6-2.1h0ZM353,235.3c3.1-1.9,9.5-4.7,16-7.2,7.3-2.9,14.9-5.3,18-6.1.5,2.4.9,4.9,1.3,7.4-4.9,2.4-17.9,7.4-18.6,7.9-.9.6-18.5,0-18.5,0,0,0-.1-.1-.1-.1-.2-.3.6-1,2-1.8h0ZM330.4,225.1s41.5-25.9,48.1-30.1c1.1,2.6,2.1,5.2,3.1,7.8-.4.3-1.1.7-1.9,1.2h0s-30.1,18.5-37.2,23h0c-.2.1-.4.3-.6.4-.2.1-.3.2-.5.3-4.1,2.6-10,3.6-12.1,2.6-3.3-2.8.2-4.2,1.2-5.1h0ZM317.6,212.7s38.1-34.9,43.3-39.7c1-1,2.4-2.2,3.7-3,.3.4.6.9.9,1.3,0,.1.1.2.2.3,1,1.5,2,3,3,4.5h0c.2.2.3.5.4.8-.7.8-1.9,1.9-3.5,3.3-10.2,9.5-44.9,37.3-48,39.3-2-2.8,0-6.8,0-6.8h0ZM308.6,196.1l36.1-48.8c.7.6,1.4,1.3,2,1.9.5.5,1.1,1,1.6,1.5.2.2.3.3.5.5.5.5,1,1,1.5,1.6.4.4.9.9,1.3,1.3h0c-6.9,8.5-30.1,37.1-37.9,46.2-.2.2-.3.3-.4.5-.1.1-.2.2-.3.4-.2.3-.5.5-.6.8-.2.2-.4.4-.5.6-5.4,3.8-3.1-6.4-3.1-6.4h0ZM294.2,185.2h0s2.9-5.8,2.9-5.8h0l.4-.9,24.1-48.5h0c1.3.8,2.6,1.6,3.9,2.5.3.2.5.3.8.5,1.3.9,2.6,1.7,3.8,2.6h0c-4.5,7.9-20.1,35.2-25.9,46-.2.3-.3.6-.5.9,0,0,0,.1,0,.1-.5,1.1-1,1.9-1.3,2.5-.1.2-.2.4-.3.6h0c-.3.6-.6,1.1-1,1.4h0c-.6.9-1.2,1.6-1.5,1.8-.9-.9-6.6-1.3-6.6-1.3l1.2-2.5h0ZM294.3,117.4h0c1.4.4,2.7.9,4.1,1.4.2,0,.3.1.5.2,1.4.5,2.7,1,4.1,1.6-3.9,11.8-14.9,45.3-19.5,59.1-5.8,17-11.4,17.3-11.4,17.3l22.2-79.6h0ZM265,111.1h0c1.4.1,2.8.3,4.2.5.1,0,.3,0,.4,0,1.4.2,2.8.4,4.3.6h.1c-2.2,16.5-9.5,71.8-9.9,76.5-.4,5.6-3.8,19.8-4.7,24.9-.9,5.1-4,4.8-4,4.8l9.6-107.5h0ZM113.1,221.7c.5-2.6,1.2-5.3,1.8-7.8,11.5,5.2,62.4,28.1,68.2,30.7.1,0,.2,0,.2.1,0,0,.1,0,.2,0,3.2,1.4,0,5.2,0,5.2l-70.5-28.3h0ZM110.3,250c0-2.8.1-5.7.3-8.5.6.1,1.6.4,2.8.6h0s49.7,11.3,53.5,12.8c.1,0,.2,0,.2.1,1.3,1,3.1,5.6-2,5.5-4-.1-33.5-6.1-46-8.7-3.7-.8-6.8-1.4-8.7-1.8h0ZM210.8,248c-1.4,7-7,8.2-8.9,6.3s.6-3.2,1.5-3.6c1-.5,1.1-1.6,1.1-2.7l-83.2-52.5c1.1-2.6,2.3-5.1,3.5-7.6l1.6,1.1h0c0,0,78.8,55,78.8,55,.6-1.9,1.5-4.2,1.6-5.8,0-.5.3-.8.7-1.1l-72-67.3c1.7-2.4,3.4-4.7,5.3-7l71,73.3c1.8-.2,3.5-.4,4.3-1.2.7-.8.8-2.1.8-3.4l-62.4-83.4c2.5-2.3,5-4.6,7.6-6.7l56.8,86.9c2.9,0,3.9-1.9,5.5-4.2l-46-94.2c2.6-1.5,5.2-3,7.8-4.3l.6,1.4h0l41.5,97.7c1.1.8,2.4,1.5,3.6,1.5,2.1-.1,2-2.2,2.5-4.1l-28.7-104.6h0c2.4-.8,4.7-1.5,7.1-2.1.5-.1,1-.3,1.4-.4h.1l23.6,104.4c1.8,0,4.2.3,6.1.8l-9.1-108.9h0c.5,0,1-.1,1.5-.1,2.2-.2,4.4-.4,6.7-.5h0l4.7,110.9c.9.8,5.5,3.1,5.5,3.1,0,0-.3,1.2-1.7,3.1-1.4,1.9-5.1.2-7.1-1.7-2-1.9-6,2-9.2,4.4s-9.4.4-10.7,0c-1.4-.3-.7,4.3-2.9,7.5-2.2,3.2-11.1,4.3-11.1,4.3,0,0,.2,1.2,0,6h0ZM346.4,330.6s-6.7-2-9.6-4.4c-2.9-2.4,8.5-1.7,9.6-1.7s10.6,6.1,10.6,6.1c0,0-10.1-.2-10.6,0h0ZM315.9,310.3h9.7l7.8,3.6h-12.1l-5.5-3.6h0ZM321.4,325.7h-9.7l-7.5-5.3h10.2l7.1,5.3h0ZM286.8,304.2h9l5.5,4.1h-7.7l-6.8-4.1h0ZM345,352.5c-.9.8-1.7,1.6-2.6,2.4-.1.1-.3.2-.4.4-.8.7-1.7,1.4-2.5,2.1-.2.1-.3.3-.5.4-1,.8-1.9,1.6-2.9,2.3,0,0,0,0,0,0-5.5,0-13.5,0-18,0-5.1-1.4-18.9-17-22-26.6-3.4-14.8-7.7-16-9-16.7s-7.2-5.1-6.3-8.5c10.4,4.1,18.9,10.6,20.6,20.4,1.7,9.9,20.8,20,20.8,20,0,0,24.5-.5,25.6,0,.2.1.3.4.4.8-.9.9-1.8,1.8-2.8,2.7,0,0-.2.1-.2.2h0ZM300.2,387c2.2-.8,4.4-1.7,6.6-2.6s4.3-1.9,6.4-2.9,4.2-2.1,6.3-3.2c45.5-24.7,76.3-72.9,76.3-128.3h0c0-80.6-65.3-145.9-145.9-145.9S104.1,169.4,104.1,250h0c0,55.4,30.9,103.6,76.3,128.3,2.1,1.1,4.2,2.2,6.3,3.2s4.3,2,6.4,2.9c2.2.9,4.4,1.8,6.6,2.6,15.6,5.7,32.5,8.8,50.2,8.8s34.5-3.1,50.2-8.8h0Z"/>
    </g>
  </g>
</svg>