<?xml version="1.0" encoding="utf-8"?>
<!-- Generator: Adobe Illustrator 28.3.0, SVG Export Plug-In . SVG Version: 6.00 Build 0)  -->
<svg version="1.1"
	 id="svg2" xmlns:dc="http://purl.org/dc/elements/1.1/" xmlns:cc="http://creativecommons.org/ns#" xmlns:rdf="http://www.w3.org/1999/02/22-rdf-syntax-ns#" xmlns:inkscape="http://www.inkscape.org/namespaces/inkscape" xmlns:sodipodi="http://sodipodi.sourceforge.net/DTD/sodipodi-0.dtd" xmlns:svg="http://www.w3.org/2000/svg"
	 xmlns="http://www.w3.org/2000/svg" xmlns:xlink="http://www.w3.org/1999/xlink" x="0px" y="0px" viewBox="0 0 800 800"
	 style="enable-background:new 0 0 800 800;" xml:space="preserve">
<style type="text/css">
	.st0{fill:#FFFFFF;}
	.st1{fill:none;}
</style>
<sodipodi:namedview  bordercolor="#666666" borderopacity="1.0" id="base" inkscape:current-layer="layer1" inkscape:cx="340.60731" inkscape:cy="385.71609" inkscape:document-units="px" inkscape:guide-bbox="true" inkscape:pageopacity="0.0" inkscape:pageshadow="2" inkscape:window-height="706" inkscape:window-maximized="1" inkscape:window-width="1366" inkscape:window-x="-8" inkscape:window-y="-8" inkscape:zoom="0.35355339" pagecolor="#ffffff" showgrid="false" showguides="true">
	</sodipodi:namedview>
<g>
	<path class="st0" d="M389.6,788.3c-5.5-2.4-10.5-4.5-23.9-10.1c-21.4-8.8-68.8-32-76.9-37.6c-1.8-1.2-4.1-2.6-5.2-3.1
		c-2.2-1-4.8-2.6-12.6-7.7c-3-2-5.8-3.5-6.2-3.5c-0.7,0-7.9-5.1-29.6-21c-6.8-5-26.2-21.4-31.9-27c-1.1-1.1-4-3.8-6.5-6
		c-6.1-5.6-20.5-21.8-29.4-33.2c-33.4-42.7-54.7-93.5-63.5-151.8c-1.5-9.6-3.3-21.3-4.1-26c-1.1-6-1.6-71.3-2-229.7L97.3,10.2H400
		h302.7l-0.5,215.4c-0.6,242.2,0,225.8-10.1,279.1c-3.1,16.1-4.9,23-11.3,41.6c-2.4,7.1-5,14.7-5.6,16.9
		c-2.2,7.4-20.1,41.6-28.6,54.6c-20.3,31-50.7,63.1-82.9,87.4c-9.7,7.3-17.9,13.3-18.2,13.3s-5.2,3.1-10.7,7
		c-24.7,17-73.1,41.5-118.6,59.8C404.3,790.1,395.9,791,389.6,788.3L389.6,788.3z"/>
	<path id="path3786" inkscape:connector-curvature="0" class="st1" d="M91.1,0"/>
	<path id="path4636" inkscape:connector-curvature="0" class="st1" d="M91.1,0"/>
	<path id="path4644" inkscape:connector-curvature="0" class="st1" d="M91.1,0"/>
	<path id="path4646" inkscape:connector-curvature="0" class="st1" d="M91.1,0"/>
	<g>
		<path d="M534.9,132.5c8.3,1.4,18.6,0.7,27.4-1.9c10-3,10.9-4.1,11.1-14.2c0.1-4.9-0.3-9.3-0.8-9.8s-2.7,0.4-4.9,2
			c-13,9.7-33.6,9.1-44.5-1.2c-5-4.7-9.4-15.6-9.4-23.2c0-13.9,6.3-24.7,17.7-30.3c6.3-3.1,8.5-3.5,16.9-3.1
			c8.2,0.4,10.8,1.2,16.7,4.8c8.3,5.2,9.1,4.6,8.8-7.4l-0.2-8.5l-7.2-2.3c-16.4-5.2-33.6-4.5-46.7,2c-23.7,11.7-33.3,41.2-21.6,66.1
			C504.7,119.7,518.4,129.6,534.9,132.5z"/>
		<path d="M395.2,129.4c1-1.3,1.4-7.5,1.1-19.9c-0.3-11.8,0-18.4,0.9-18.9c0.8-0.5,8.4-1,17-1.2c8.6-0.1,15.9-0.6,16.3-1
			s0.9-3.4,1.1-6.7c0.6-9.2-0.8-10-18.6-9.7c-8.3,0.1-15.5-0.2-16-0.7c-1.6-1.6-1.4-15.3,0.2-16.7c0.9-0.7,8.6-1.5,17.3-1.7
			l15.7-0.4l0.8-7.3c0.4-4,0.5-7.7,0.3-8.3c-0.3-0.5-12.9-1-28.1-1h-27.6v46.7c0,25.7,0.4,47.1,0.9,47.6
			C378.2,132.2,393.6,131.4,395.2,129.4z"/>
		<path d="M400.6,7.1H92.4l0.5,225c0.4,161.1,0.9,227.5,2,233.6c0.8,4.7,2.7,16.6,4.2,26.4c9,59.3,30.7,110.9,64.7,154.4
			c9.1,11.6,23.8,28.2,29.9,33.8c2.5,2.2,5.4,5,6.6,6.2c5.8,5.7,25.5,22.4,32.5,27.4c22.2,16.2,29.5,21.4,30.2,21.4
			c0.4,0,3.2,1.6,6.3,3.6c7.9,5.1,10.6,6.7,12.8,7.8c1.1,0.5,3.5,2,5.3,3.2c8.3,5.7,56.5,29.3,78.3,38.3
			c13.7,5.6,18.8,7.8,24.4,10.2c6.4,2.8,14.9,1.8,27.2-3.1c46.3-18.7,95.6-43.5,120.7-60.9c5.7-3.9,10.6-7.1,10.9-7.1
			c0.3,0,8.7-6.1,18.6-13.5c32.7-24.7,63.7-57.3,84.4-88.9c8.6-13.2,26.9-48,29.1-55.5c0.6-2.2,3.2-9.9,5.7-17.2
			c6.5-18.9,8.4-25.9,11.5-42.3c10.3-54.2,9.7-37.5,10.3-283.8L709,7L400.6,7.1L400.6,7.1z M123.5,23.7c1.1-0.4,125.6-0.8,276.7-0.8
			c203.2,0,275,0.4,276.4,1.5c1.5,1.2,1.8,11.9,1.8,59.2c0,31.7-0.5,58.4-1.1,59.3c-0.8,1.3-57.3,1.7-275.1,2
			c-150.7,0.2-275.4,0-277-0.4l-3-0.7l-0.3-59.6C121.5,30.8,121.7,24.4,123.5,23.7z M211,494.2c-4.7,4.3-13,12-18.4,17.1
			s-17.7,16.3-27.2,24.8s-18,15.5-18.8,15.5s-1.7-0.7-2-1.7c-2.5-7.7-8.6-28-9.9-33.4c-5.4-21.3-10.2-59.2-11.8-92.5
			c-1.5-31.6-2-244.7-0.6-248.4c0.7-1.9,21.1-2.1,217.8-2.1c129,0,217.3,0.5,217.7,1.2c0.7,1.1-26.7,27.2-48.4,46.2
			c-4.5,3.9-15.1,13.6-23.6,21.6s-20.5,19.1-26.6,24.6s-21.5,19.6-34.3,31.2c-12.7,11.6-32,29.2-42.7,39
			c-56.5,51.5-73.2,66.8-74.4,68.2c-0.7,0.8-8.1,7.6-16.5,15.1c-8.3,7.5-18.1,16.4-21.7,19.8s-16.4,15.1-28.3,25.9
			C229.3,477.4,215.7,489.9,211,494.2z M677,432.7c-1.3,23.8-3.8,46-6.7,60.7c-5,25.6-11.2,47.8-18,64.8
			c-4.8,12-20.5,42.9-23.5,46.4c-1,1.1-1.8,2.5-1.8,3s-3.7,5.9-8.2,12c-29.7,39.8-68.6,73.5-118.3,102.3c-15.4,8.9-52.2,28-54,28
			c-0.6,0-5.1,1.8-10,4.1c-13.1,6-16.2,7.3-22.7,9.8c-3.3,1.2-7.5,3.1-9.4,4.1c-4.2,2.2-3.5,2.2-8.4,0c-2.2-1-10.8-4.6-19.1-8.1
			c-46.8-19.6-91.8-44.4-122.7-67.7c-2.7-2-7.3-5.5-10.2-7.6c-2.9-2.2-5.3-4.9-5.3-6s4.9-6.4,10.8-11.8c12.3-11,33.7-30.7,48.3-44.4
			c5.5-5.1,18.7-17.3,29.5-27.1c35.1-31.9,40.9-37.2,48.9-44.7c4.3-4.1,14.1-13,21.7-19.9c14.6-13.2,29.7-27,56.5-51.8
			c9-8.3,22.3-20.4,29.6-26.9c7.3-6.5,17.2-15.5,21.9-20c4.7-4.5,15.7-14.6,24.4-22.4c8.7-7.9,16.1-14.7,16.5-15.2
			s10.1-9.4,21.7-19.8c11.6-10.4,21.7-19.6,22.4-20.4c1.4-1.6,24-22.1,32.8-29.9c2.8-2.5,7-6.3,9.2-8.5c13.7-13.5,43.1-39,44.2-38.3
			C678.8,278.4,678.8,400.7,677,432.7z"/>
		<path d="M246.2,131.3c18.5,0,36.2-2.7,40-6.1c1.1-1,2.7-1.9,3.5-1.9c2.4,0,12.4-11.9,15.3-18.3c2.4-5.2,2.8-8.6,2.8-21.4
			c0-13.9-0.3-15.8-3.6-22.7c-4.7-9.6-12.9-17.2-22.8-20.9c-6.7-2.6-11.1-3.1-31.2-3.7l-23.4-0.7v46.9c0,25.8,0.4,47.3,0.9,47.8
			C228.2,130.9,236.5,131.3,246.2,131.3z M246.9,82.4l0.4-28.4l11.6,0.3c13.4,0.3,19.4,2.9,24.6,10.5c2.6,3.9,3.3,6.7,3.8,16.4
			c0.5,10.6,0.2,12.4-2.8,18.7c-4,8.1-8.4,11-20,12.9C245.7,115.9,246.4,117.1,246.9,82.4z"/>
	</g>
</g>
</svg>
