<?xml version="1.0" encoding="UTF-8"?>
<!DOCTYPE svg PUBLIC "-//W3C//DTD SVG 1.1//EN" "http://www.w3.org/Graphics/SVG/1.1/DTD/svg11.dtd">
<svg xmlns="http://www.w3.org/2000/svg" version="1.1" width="990px" height="987px" style="shape-rendering:geometricPrecision; text-rendering:geometricPrecision; image-rendering:optimizeQuality; fill-rule:evenodd; clip-rule:evenodd" xmlns:xlink="http://www.w3.org/1999/xlink">
<g><path style="opacity:0.992" fill="#02712c" d="M 216.5,7.5 C 231.735,30.9006 251.402,49.7339 275.5,64C 320.228,89.6875 368.228,106.021 419.5,113C 510.422,127.343 598.088,116.343 682.5,80C 719.106,64.455 748.606,40.2883 771,7.5C 780.591,21.759 792.758,33.259 807.5,42C 843.156,64.0311 881.823,72.8644 923.5,68.5C 915.188,108.441 922.688,145.108 946,178.5C 954.003,188.334 962.503,197.667 971.5,206.5C 967.815,211.019 963.648,215.019 959,218.5C 945.708,234.794 932.041,250.794 918,266.5C 884.317,315.199 864.651,369.199 859,428.5C 857.549,448.647 856.382,468.814 855.5,489C 856.87,540.538 858.87,592.038 861.5,643.5C 862.718,688.196 854.885,731.196 838,772.5C 823.85,803.628 803.35,829.795 776.5,851C 753.978,868.106 729.645,882.439 703.5,894C 641.565,921.09 577.898,943.424 512.5,961C 505.609,963.112 499.276,966.279 493.5,970.5C 486.596,965.247 478.929,961.414 470.5,959C 393.483,939.148 319.483,911.481 248.5,876C 171.718,832.097 131.551,765.597 128,676.5C 126.991,629.459 127.991,582.459 131,535.5C 131.667,507.5 131.667,479.5 131,451.5C 127.596,376.598 103.263,309.598 58,250.5C 44.7156,235.38 30.8822,220.714 16.5,206.5C 24.7939,198.037 32.9606,189.37 41,180.5C 64.9878,146.55 72.8212,109.216 64.5,68.5C 122.55,73.5431 172.05,55.5431 213,14.5C 214.705,12.4234 215.872,10.09 216.5,7.5 Z"/></g>
<g><path style="opacity:0.075" fill="#c6a110" d="M 615.5,11.5 C 616.946,10.3871 618.613,10.2204 620.5,11C 618.866,11.4935 617.199,11.6602 615.5,11.5 Z"/></g>
<g><path style="opacity:1" fill="#fddb00" d="M 771.5,40.5 C 808.485,70.4817 850.819,87.4817 898.5,91.5C 899.009,134.991 913.343,173.158 941.5,206C 930.317,218.201 919.484,230.701 909,243.5C 862.438,305.843 838.105,376.176 836,454.5C 835.333,480.5 835.333,506.5 836,532.5C 838.895,577.794 840.229,623.127 840,668.5C 838.775,708.07 829.108,745.403 811,780.5C 791.078,812.088 764.911,837.254 732.5,856C 678.616,883.743 622.616,906.409 564.5,924C 540.732,930.867 517.066,938.034 493.5,945.5C 445.335,931.5 397.668,916 350.5,899C 319.527,887.846 289.527,874.513 260.5,859C 230.619,842.636 205.452,820.803 185,793.5C 163.63,760.388 151.63,724.054 149,684.5C 146.944,627.124 147.944,569.791 152,512.5C 155.719,449.822 147.386,388.822 127,329.5C 113.349,293.841 94.3488,261.507 70,232.5C 61.7821,223.952 53.9488,215.119 46.5,206C 52.7841,197.271 58.9508,188.438 65,179.5C 76.3244,160.523 83.9911,140.189 88,118.5C 88.9651,109.523 89.4651,100.523 89.5,91.5C 136.434,87.2525 178.267,70.5859 215,41.5C 231.759,58.2872 250.259,72.7872 270.5,85C 313.09,108.419 358.423,124.086 406.5,132C 484.491,145.015 561.491,140.682 637.5,119C 672.726,108.217 705.726,92.8836 736.5,73C 743.5,67.3333 750.5,61.6667 757.5,56C 762.744,51.2613 767.41,46.0946 771.5,40.5 Z"/></g>
<g><path style="opacity:1" fill="#00712c" d="M 210.5,80.5 C 211.873,80.3433 213.207,80.51 214.5,81C 252.082,111.629 294.416,133.629 341.5,147C 426.201,171.144 511.868,175.144 598.5,159C 647.634,148.958 693.968,131.624 737.5,107C 750.381,98.3997 763.048,89.5664 775.5,80.5C 789.693,88.7637 804.359,96.2637 819.5,103C 835.298,108.877 851.298,114.044 867.5,118.5C 772.319,163.923 676.985,209.09 581.5,254C 448.046,315.893 314.713,378.06 181.5,440.5C 180.914,440.291 180.414,439.957 180,439.5C 174.494,349.907 142.66,271.407 84.5,204C 88.2791,196.274 92.4458,188.774 97,181.5C 107.455,161.637 114.621,140.637 118.5,118.5C 144.533,112.211 169.533,103.044 193.5,91C 199.231,87.4748 204.897,83.9748 210.5,80.5 Z"/></g>
<g><path style="opacity:0.999" fill="#01712c" d="M 704.5,250.5 C 705.167,278.833 705.833,307.167 706.5,335.5C 714.622,406.664 683.955,449.998 614.5,465.5C 614.5,452.5 614.5,439.5 614.5,426.5C 635.496,426.329 649.329,416.329 656,396.5C 657.645,390.608 658.645,384.608 659,378.5C 659.167,342.495 659.667,306.495 660.5,270.5C 675.107,263.634 689.774,256.967 704.5,250.5 Z"/></g>
<g><path style="opacity:0.796" fill="#268026" d="M 704.5,250.5 C 704.56,249.957 704.893,249.624 705.5,249.5C 706.5,278.159 706.833,306.826 706.5,335.5C 705.833,307.167 705.167,278.833 704.5,250.5 Z"/></g>
<g><path style="opacity:0.999" fill="#03712c" d="M 480.5,551.5 C 478.537,544.576 477.87,537.243 478.5,529.5C 486.837,527.745 494.004,523.745 500,517.5C 502.137,511.256 501.47,505.256 498,499.5C 489.556,480.945 481.389,462.279 473.5,443.5C 473.833,442.833 474.167,442.167 474.5,441.5C 487.367,435.105 500.367,429.105 513.5,423.5C 516.347,437.556 519.514,451.556 523,465.5C 526.756,448.229 530.423,430.896 534,413.5C 545.483,407.176 557.316,401.509 569.5,396.5C 569.833,397 570.167,397.5 570.5,398C 561.589,429.811 552.756,461.645 544,493.5C 539.19,510.613 530.023,524.78 516.5,536C 505.559,543.637 493.559,548.804 480.5,551.5 Z"/></g>
<g><path style="opacity:1" fill="#02712c" d="M 381.5,407.5 C 393.065,406.248 404.065,408.082 414.5,413C 422.799,419.079 427.966,427.246 430,437.5C 439.1,489.537 423.6,532.704 383.5,567C 372.657,576.172 360.991,584.172 348.5,591C 321.296,604.456 293.963,617.622 266.5,630.5C 265.333,572.17 265.167,513.836 266,455.5C 289.424,444.205 312.924,433.038 336.5,422C 351.129,415.622 366.129,410.789 381.5,407.5 Z"/></g>
<g><path style="opacity:1" fill="#00712c" d="M 804.5,447.5 C 805.969,511.042 808.302,574.875 811.5,639C 811.656,669.607 808.156,699.774 801,729.5C 789.853,765.643 769.019,794.81 738.5,817C 712.051,835.06 683.718,849.726 653.5,861C 602.319,881.727 549.986,899.06 496.5,913C 493.833,913.667 491.167,913.667 488.5,913C 430.963,897.044 374.63,877.71 319.5,855C 288.433,842.646 260.1,825.979 234.5,805C 213.463,786.302 198.463,763.635 189.5,737C 189.833,736.5 190.167,736 190.5,735.5C 395.257,639.452 599.924,543.452 804.5,447.5 Z"/></g>
<g><path style="opacity:1" fill="#fddb00" d="M 350.5,452.5 C 368.45,449.63 379.617,456.964 384,474.5C 387.233,515.197 370.733,545.03 334.5,564C 327.737,567.715 320.737,570.882 313.5,573.5C 312.333,538.505 312.167,503.505 313,468.5C 324.812,461.339 337.312,456.005 350.5,452.5 Z"/></g>
<g><path style="opacity:0.753" fill="#57951e" d="M 478.5,529.5 C 477.87,537.243 478.537,544.576 480.5,551.5C 479.791,552.404 478.791,552.737 477.5,552.5C 477.175,544.648 477.508,536.982 478.5,529.5 Z"/></g>
</svg>
