<?xml version="1.0" encoding="utf-8"?>
<!-- Generator: Adobe Illustrator 23.1.0, SVG Export Plug-In . SVG Version: 6.00 Build 0)  -->
<svg version="1.1" id="Layer_1" xmlns="http://www.w3.org/2000/svg" xmlns:xlink="http://www.w3.org/1999/xlink" x="0px" y="0px"
	 viewBox="0 0 600 600" style="enable-background:new 0 0 600 600;" xml:space="preserve">
<style type="text/css">
	.st0{fill:url(#SVGID_1_);}
	.st1{fill:#FFFFFF;}
	.st2{fill:url(#SVGID_2_);}
	.st3{fill:#FBCA00;}
	.st4{fill:#004596;}
	.st5{fill:#C3C4CA;}
</style>
<g>
	<g>
		<g>
			<linearGradient id="SVGID_1_" gradientUnits="userSpaceOnUse" x1="61.6367" y1="34.3321" x2="538.3633" y2="511.0587">
				<stop  offset="0" style="stop-color:#C9C9C9"/>
				<stop  offset="0.6735" style="stop-color:#434041"/>
				<stop  offset="1" style="stop-color:#F7F7F8"/>
			</linearGradient>
			<path class="st0" d="M484.5,533.4h-369c-42.1,0-76.2-34.1-76.2-76.2v-369c0-42.1,34.1-76.2,76.2-76.2h369
				c42.1,0,76.2,34.1,76.2,76.2v369C560.7,499.3,526.6,533.4,484.5,533.4z"/>
			<g>
				<path class="st1" d="M479.7,518.6H120.3c-36.6,0-66.3-29.7-66.3-66.3V93.1c0-36.6,29.7-66.3,66.3-66.3h359.5
					c36.6,0,66.3,29.7,66.3,66.3v359.1C546.1,488.9,516.4,518.6,479.7,518.6z"/>
				<linearGradient id="SVGID_2_" gradientUnits="userSpaceOnUse" x1="298.8903" y1="512.17" x2="298.8903" y2="33.2205">
					<stop  offset="1.530610e-02" style="stop-color:#003E92"/>
					<stop  offset="0.5816" style="stop-color:#001880"/>
					<stop  offset="0.5908" style="stop-color:#002184"/>
					<stop  offset="0.6121" style="stop-color:#00318C"/>
					<stop  offset="0.6362" style="stop-color:#003B91"/>
					<stop  offset="0.6684" style="stop-color:#003E92"/>
				</linearGradient>
				<path class="st2" d="M201.9,295.3l174.5-41.8L536.3,90.2c-1.2-31.7-27.2-57-59.2-57H120.7c-32.7,0-59.2,26.5-59.2,59.2V453
					c0,32,25.4,58.1,57.2,59.2l42.8-106.7L201.9,295.3z"/>
				<path class="st3" d="M376.4,254.9l-174.5,41.8l-40.4,110.1l-42.8,106.7c0.7,0,1.3,0.1,2,0.1h356.4c32.7,0,59.2-26.5,59.2-59.2
					V93.8c0-0.7,0-1.5-0.1-2.2L376.4,254.9z"/>
			</g>
		</g>
	</g>
	<g>
		<path class="st4" d="M280.5,397.9h-31.4v-7.2H288v15.5c0,2.4-0.3,4.5-1,6.4c-0.7,1.9-1.7,3.5-3,4.8c-1.3,1.3-2.9,2.3-4.8,3
			c-1.9,0.7-4.1,1-6.5,1h-23.5v-18.9h7.5v11.6h15.8c5.4,0,8-2.7,8-8.2V397.9z"/>
		<path class="st4" d="M330.5,421.5h-39.1V406c0-2.4,0.4-4.5,1.1-6.4c0.7-1.9,1.7-3.5,3.1-4.8c1.3-1.3,3-2.4,4.9-3.1
			c1.9-0.7,4-1.1,6.4-1.1h23.7v7.2h-23.6c-2.3,0-4,0.4-5.2,1.2c-1.2,0.8-2,2-2.4,3.5h26.4v6.9h-26.8v4.6h31.6V421.5z"/>
		<path class="st4" d="M339.6,390.7v23.5h16c4,0,6.5-1.5,7.5-4.6h7.8c-0.7,3.9-2.3,6.9-5,8.9c-2.6,2-6,3-10.2,3h-23.7v-30.8H339.6z"
			/>
		<path class="st4" d="M407.4,409.5h-27.6v11.9h-7.5V406c0-2.3,0.3-4.5,1-6.4c0.7-1.9,1.7-3.5,3-4.8c1.3-1.3,2.9-2.3,4.8-3.1
			c1.9-0.7,4-1.1,6.5-1.1h22.3v7.2h-22.1c-2.3,0-4,0.4-5.2,1.2c-1.2,0.8-2,2-2.4,3.5h27.2V409.5z"/>
		<path class="st4" d="M421.2,388h-12.3v-1.3l12.3-3.7V388z M418.6,421.5h-7.5v-30.8h7.5V421.5z"/>
		<path class="st4" d="M463.7,421.5h-7.9c-4.2-5.8-8.4-10.6-12.5-14.3c-4.1-3.7-8.1-6.3-12.1-7.8c-0.3-0.1-0.6-0.2-1-0.3
			c-0.3-0.1-0.7-0.3-1.1-0.4c0.1,1.1,0.1,1.8,0.1,2.2v20.7H422v-30.8h6.5c2.5,0.8,4.9,1.8,7.2,3.1c2.4,1.3,4.7,2.7,6.9,4.3
			c2.2,1.6,4.4,3.4,6.5,5.3c2.1,1.9,4.1,3.9,6,6l1.3,1.5c-0.1-0.9-0.1-1.6-0.1-2v-18.1h7.4V421.5z"/>
	</g>
	<g>
		<path class="st4" d="M256.3,444.9h-7.1c-0.9,0-1.4,0.5-1.5,1.4h8.7v1.7c0,2.6-1.3,3.8-4,3.8h-6.7v-2.2h7.2c0.4,0,0.8-0.1,1-0.4
			c0.2-0.2,0.4-0.6,0.5-1h-8.7v-1.7c0-2.6,1.3-3.8,4-3.8h6.7V444.9z"/>
		<path class="st4" d="M264.8,451.9v-9.1h11.6v1.7c0,2.6-1.3,3.8-4,3.8h-4.5v-2.1h5c0.4,0,0.8-0.1,1-0.4c0.2-0.2,0.4-0.6,0.5-1H267
			v7H264.8z"/>
		<path class="st4" d="M295.3,442.8v4.6c0,0.7-0.1,1.3-0.3,1.9c-0.2,0.6-0.5,1-0.9,1.4c-0.4,0.4-0.8,0.7-1.4,0.9
			c-0.5,0.2-1.2,0.3-1.9,0.3h-7.2v-4.6c0-0.7,0.1-1.3,0.3-1.9c0.2-0.6,0.5-1,0.9-1.4c0.4-0.4,0.8-0.7,1.4-0.9
			c0.5-0.2,1.1-0.3,1.8-0.3H295.3z M293.1,444.9h-5.1c-0.4,0-0.8,0-1.1,0.1c-0.3,0.1-0.5,0.2-0.7,0.4c-0.2,0.2-0.3,0.4-0.4,0.7
			c-0.1,0.3-0.1,0.7-0.1,1.2v2.4h5.1c0.4,0,0.8,0,1.1-0.1c0.3-0.1,0.5-0.2,0.7-0.4c0.2-0.2,0.3-0.4,0.4-0.7c0.1-0.3,0.1-0.7,0.1-1.2
			V444.9z"/>
		<path class="st4" d="M306,446.3h5c0.4,0,0.8-0.1,1-0.4c0.2-0.2,0.4-0.6,0.5-1H305v7h-2.1v-9.1h11.6v1.7c0,2.3-1.1,3.6-3.2,3.8
			l3.3,3.6H312l-3.4-3.5H306V446.3z"/>
		<path class="st4" d="M333,444.9h-4v7h-2.1v-7h-1.5c-0.9,0-1.4,0.5-1.5,1.4h-2c0.2-2.4,1.5-3.5,3.8-3.5h7.3V444.9z"/>
		<path class="st4" d="M341.9,451.9h-2.1v-9.1h2.1V451.9z"/>
		<path class="st4" d="M361.4,451.9h-2.2c-1.2-1.7-2.4-3.1-3.5-4.2c-1.2-1.1-2.3-1.9-3.4-2.3c-0.1,0-0.2-0.1-0.3-0.1
			c-0.1,0-0.2-0.1-0.3-0.1c0,0.3,0,0.5,0,0.6v6.1h-2.1v-9.1h1.8c0.7,0.2,1.4,0.5,2.1,0.9c0.7,0.4,1.3,0.8,2,1.3
			c0.6,0.5,1.3,1,1.8,1.6c0.6,0.6,1.2,1.2,1.7,1.8l0.4,0.4c0-0.3,0-0.5,0-0.6v-5.4h2.1V451.9z"/>
		<path class="st4" d="M380.5,442.8v2.1h-7c-0.4,0-0.8,0-1.1,0.1c-0.3,0.1-0.5,0.2-0.7,0.4c-0.2,0.2-0.3,0.4-0.4,0.8
			c-0.1,0.3-0.1,0.7-0.1,1.2v2.3h4.9c0.3,0,0.6,0,0.9-0.1c0.2-0.1,0.4-0.1,0.6-0.2c0.2-0.1,0.3-0.3,0.4-0.4c0.1-0.2,0.2-0.4,0.2-0.6
			h-1.3v-2.1h3.7c-0.1,1.1-0.2,2-0.4,2.7c-0.2,0.7-0.5,1.3-0.8,1.7c-0.4,0.4-0.8,0.7-1.3,0.9c-0.5,0.2-1.2,0.2-1.9,0.2h-7.1v-4.6
			c0-0.7,0.1-1.3,0.3-1.9c0.2-0.6,0.5-1,0.8-1.4c0.4-0.4,0.8-0.7,1.4-0.9c0.5-0.2,1.2-0.3,1.9-0.3H380.5z"/>
		<path class="st4" d="M411.1,451.9h-10.9v-4.6c0-0.7,0.1-1.3,0.3-1.9c0.2-0.6,0.5-1,0.9-1.4c0.4-0.4,0.8-0.7,1.4-0.9
			c0.5-0.2,1.2-0.3,1.9-0.3h6.5v2.1h-6.5c-1.5,0-2.3,0.8-2.3,2.4v2.4h8.8V451.9z"/>
		<path class="st4" d="M420.8,442.8v6.9h4.5c1.1,0,1.8-0.5,2.1-1.4h2.2c-0.2,1.2-0.7,2-1.4,2.6c-0.7,0.6-1.7,0.9-2.9,0.9h-6.7v-9.1
			H420.8z"/>
		<path class="st4" d="M448.3,442.8v4.3c0,0.8-0.1,1.5-0.3,2.1c-0.2,0.6-0.6,1.1-1,1.5c-0.4,0.4-0.9,0.7-1.5,0.9
			c-0.6,0.2-1.3,0.3-2,0.3h-6.2v-9.1h2.1v6.9h3.5c2.2,0,3.3-0.8,3.3-2.5v-4.4H448.3z"/>
		<path class="st4" d="M455.8,442.8h9.2c1.6,0,2.4,0.8,2.4,2.3c0,0.6-0.1,1.1-0.4,1.5c-0.3,0.4-0.6,0.6-1.1,0.7
			c0.5,0.1,0.8,0.3,1.1,0.7c0.3,0.4,0.4,0.9,0.4,1.6c0,1.5-0.8,2.3-2.4,2.3h-9.2V442.8z M458,449.8h6.5c0.5,0,0.7-0.2,0.7-0.7
			c0-0.5-0.2-0.8-0.7-0.8h-5v-1.9h5c0.5,0,0.7-0.3,0.7-0.8c0-0.4-0.2-0.7-0.7-0.7H458V449.8z"/>
	</g>
	<path class="st5" d="M427,251.4c13.3,9.1,44.2,22.1,44.2,22.1c0.6-5.9-5.5-19.9-38.7-61.9s-134.3-73.7-134.3-73.7
		C267.5,99,167.7,64.9,159,85.1c-5.3,12.4,16.6,24.2,38.2,48.5c10.7,12-15.1,15.2-59.7,82.3c-73.7,110.9-53.7,201.2,0,281.9
		c56.6,85.2,158.4,91.1,175.3,90c6.6-0.4,8.7-1.4,9-2.5c-45.3-6.3-126.4-27.6-157.4-100.5c-23-53.9-15.2-164.9,88.4-208.1
		c64-26.6,117.9,1.4,147.5,23.7c48.9,16.7,80.9,75.8,106.3,53C533,330,427,251.4,427,251.4z"/>
	<path class="st1" d="M252.7,276.9C149.1,320,141.4,431.1,164.3,484.9c31,72.8,112.1,94.2,157.4,100.5c0.4-1.7-4.2-3.6-4.2-3.6
		c-131.5-24.8-155.7-182-87.3-241.1c66.7-57.6,129.5-50.8,163.8-42c2.1,0.5,4.1,1.2,6.1,1.8C370.7,278.2,316.7,250.3,252.7,276.9z"
		/>
</g>
</svg>
