<?xml version="1.0" encoding="UTF-8"?>
<!-- Generator: Adobe Illustrator 24.0.0, SVG Export Plug-In . SVG Version: 6.00 Build 0)  -->
<svg version="1.1" id="Layer_1" xmlns="http://www.w3.org/2000/svg" xmlns:xlink="http://www.w3.org/1999/xlink" x="0px" y="0px" viewBox="0 0 600 600" style="enable-background:new 0 0 600 600;" xml:space="preserve">
<style type="text/css">
	.st0{fill:none;stroke:#8D7807;stroke-width:2;}
	.st1{fill:#007CC7;}
	.st2{fill:#A4CC00;}
	.st3{fill:#1A130E;}
	.st4{fill:#FFDC00;}
</style>
<g>
	<path vector-effect="non-scaling-stroke" class="st0" d="M398.3,415.5c0-59.7-48.4-108-108-108s-108,48.4-108,108l0,0   c0,59.7,48.4,108,108,108S398.3,475.1,398.3,415.5"/>
	<path vector-effect="non-scaling-stroke" class="st0" d="M266.1,350.9c5,0,9.1-5.2,9.1-11.5c0-6.3-4.1-11.5-9.1-11.4   c-5,0-9.1,5.2-9.1,11.5C257,345.8,261.1,350.9,266.1,350.9"/>
	<path vector-effect="non-scaling-stroke" class="st0" d="M287.4,395.3c8.1,15.6-8.1,31.8-19.5,39.4c-1.6,1-1.5,1.3,0.3,0.6   c16.9-6.1,36-28.2,19.9-45.6c-4.9-5.3-10.8-8.6-9.5-17.9c0.5-3.4,2.2-6.8,5.3-10c7.3-7.7,25.4-7,35.3-7.2c7.7-0.2,16-2.7,19-10.4   c0.3-0.6,0.1-0.8-0.5-0.4c-17.9,11.7-47.4-0.6-60.3,20.2c-3.8,6.1-3.8,12.2-0.2,18.4C280.1,386.9,285.2,391.1,287.4,395.3"/>
	<path vector-effect="non-scaling-stroke" class="st0" d="M274,470.5c-11.2-14.6-24.2-38.3-9.8-55.4c7.4-8.8,13.2-17.5,5-27.8   c-3.5-4.5-7.2-9.2-10.9-14.3c-0.9-1.2-0.8-2.8,0.1-3.9c2.3-2.8,5.3-7,5.8-10.7c0.1-1.1-0.1-1.2-0.8-0.3c-2.4,3.3-4.8,6.8-7.4,10.4   c-2.2,3.1,1,8.4,3,11.4c2.4,3.6,4.8,7.3,7.1,11c5.2,8.2,0.1,14.5-5.3,21.1c-7.8,9.6-8,25.4-2.9,36.5c4,8.7,9.2,16.1,15.8,22.3   C274.7,471.6,274.8,471.6,274,470.5"/>
	<path vector-effect="non-scaling-stroke" class="st0" d="M336.3,486.2c-29.4-16.1-66.2-6-93.8,8.3c-0.2,0.1-0.2,0.3-0.1,0.4   c0,0.1,0.1,0.1,0.1,0.1l19.3,11.2c0.3,0.2,0.5,0.2,0.8,0c25.2-14.7,63.2-26.3,88.5-7.2c1.1,0.8,1.2,0.7,0.4-0.4   C347.5,493.7,342.5,489.5,336.3,486.2"/>
	<path vector-effect="non-scaling-stroke" class="st0" d="M259.8,334.1c-2.7,5.6-0.1,14.6,7.5,14c0.7-0.1,1.4-0.6,1.5-1.3   c1.2-4.7-3.6-10.3-7-13.1c-0.6-0.5-1.4-0.4-1.9,0.2C259.9,333.9,259.8,334,259.8,334.1"/>
</g>
<path class="st1" d="M482,48.7l-1.9,2.1c-0.2,0.3-0.6,0.4-0.9,0.4c-0.5-0.1-0.9,0.1-1.2,0.6c-0.2,0.3-0.4,0.4-0.8,0.4H451  c-0.4,0-0.6-0.2-0.6-0.6l0-14.6c0-2.1,1.3-3.8,2.9-3.9c0.5,0,0.9-0.3,1.3-0.6c0.3-0.3,0.7-0.4,1-0.4h26c0.3,0,0.5,0.2,0.5,0.5  l0,15.5C482.3,48.3,482.2,48.5,482,48.7z"/>
<path class="st2" d="M75.5,33.8c6.7,2.5,10.5,7.3,11.4,14.5c1.4,11.4-6.4,20.6-14,28.1c-4.6,4.5-7.4,8.1-12.9,14.3  c-3.8,4.4-7,9.1-9.7,14.2c0,0.1-0.2,0.1-0.2,0.1c-0.1,0-0.1-0.1-0.1-0.2C50,87.7,50,70.5,50,53.3c0-11.9,7.4-20.8,19.7-21  C70.8,32.2,72.7,32.7,75.5,33.8z"/>
<path class="st1" d="M87.7,122.3H102c0.3,0,0.6-0.1,0.8-0.3c1.2-1.2,4.2-0.7,5.8-0.7c0.3,0,0.6-0.1,0.9-0.4c0.6-0.6,1.3-0.8,2.2-0.7  c0.3,0.1,0.6,0,0.8-0.3c0.3-0.4,0.8-0.7,1.3-0.8c0.4-0.1,0.7-0.3,1-0.5c4.4-4,6.3-6.5,7.6-11.8c1.2-4.7,1.1-9.9,1.3-14.9  c0.3-6.9-0.5-13.6-2.5-20.1c-1.7-5.6-5.3-9.4-10.8-11.4c-6-2.2-10.4-1.8-16.1-2c-0.4,0-0.6-0.2-0.5-0.6c1.8-7.5,0.8-14.6-3.1-21.2  c-0.6-1.1-1.3-1.9-2.2-2.5c-0.2-0.2-0.3-0.5-0.2-0.7c0.1-0.1,0.3-0.2,0.4-0.2c23.7-0.3,43.9-2.6,60.1,16.8c0.2,0.2,0.5,0.8,0.9,1.7  c0.4,0.8,1.2,1.3,1.6,2.1c9.7,16.7,10.1,33.5,7.7,52.6c-2,15.8-11.6,28.9-24.9,35.5c-8.6,4.3-21.2,6-30.1,6c-15.2,0-30.3,0-45.5,0  c-0.4,0-0.7-0.2-0.9-0.4c-0.4-0.5-0.9-0.7-1.5-0.6c-0.3,0-0.7-0.1-0.9-0.3l-4-4.1c-0.3-0.3-0.4-0.6-0.4-1c0-0.7-0.2-1.4-0.7-2  c-0.2-0.3-0.4-0.6-0.4-1c0-2.5,0.9-4.7,1-7.1c0.6-14.9,6.3-25.3,15.3-36.7c3.9-5,8.5-9.2,13-13.6c2.2-2.1,3.7-5.1,6.2-7.3  c0.3-0.2,0.5-0.6,0.5-0.9c0.1-0.4,0.3-0.8,0.5-1.1c0.5-0.7,0.7-0.7,0.7,0.2l0,50C87.2,122.1,87.3,122.3,87.7,122.3z"/>
<path class="st1" d="M420.7,87.8c-0.1,11.4-0.1,22.8,0,34.2c0,2.1,1,3.1,2.5,4.3c0.2,0.2,0.5,0.3,0.9,0.3c0.4,0,0.7,0.1,0.9,0.5  c0.2,0.3,0.5,0.5,0.8,0.6c2.3,0.4,4.4,0.1,6.4-0.8c0.2-0.1,0.5-0.2,0.7-0.1c1,0.1,2-0.1,2.8-0.6c1.6-0.9,2.2-0.5,1.9,1.1  c-0.4,1.8,1,4.3,1.1,6.2c0.1,2.1,0.1,4.2,0.1,6.3c0,0.3,0.1,0.6,0.3,0.8c1.5,1.7,0.1,3-0.4,4.4c-0.5,1.2-1.4,2.2-2.7,2.8  c-0.3,0.2-0.6,0.2-1,0.1c-1.2-0.3-2.2-0.1-3.1,0.6c-0.3,0.3-0.7,0.4-1.1,0.4c-2,0-3.9,0-5.8,0c-3.4,0.1-7.2,1.6-11.4,0.6  c-1.5-0.4-2.8-0.6-3.7-0.6c-1.4,0-3.6,0.3-4.9-0.2c-0.3-0.1-0.7-0.2-1-0.3c-4.9-0.9-8.6-3.1-11.1-6.6c-1.3-1.7-3.6-6.2-3.9-9.2  c-0.2-2.7-1.1-4.9-1.1-7.8c0-12.4,0-24.8,0-37.3c0-0.2-0.1-0.3-0.3-0.3l-12,0c-0.3,0-0.5-0.2-0.5-0.5V69c0-0.3,0.2-0.6,0.5-0.8  c0.5-0.3,0.8-0.8,0.8-1.5c0-0.3,0.2-0.6,0.6-0.6c0.5-0.1,1-0.3,1.3-0.7c0.2-0.3,0.5-0.4,0.9-0.4h6.7c1.4,0,2.1-0.7,2.1-2.1V51  c0-0.4,0.1-0.6,0.4-0.8c0.6-0.4,0.8-1,0.7-1.7c0-0.2,0.1-0.4,0.3-0.5c0.1,0,0.1,0,0.2,0c0.8,0.2,1.3,0,1.7-0.7  c0.2-0.4,0.5-0.5,0.9-0.4c0.5,0.1,0.9-0.1,1.1-0.6c0.1-0.3,0.5-0.5,0.9-0.5c0.6,0.1,1-0.1,1.3-0.6c0.1-0.3,0.5-0.5,0.8-0.4  c0.6,0.1,1-0.1,1.3-0.6c0.2-0.3,0.4-0.4,0.7-0.4c0.6,0,1-0.1,1.4-0.5c0.2-0.3,0.5-0.4,0.8-0.5l0.5-0.1c0.3-0.1,0.6-0.3,0.9-0.5  c0.3-0.4,0.8-0.6,1.3-0.6c0.3,0,0.6-0.2,0.8-0.4c0.2-0.5,0.7-0.7,1.3-0.6c0.4,0.1,0.7-0.1,0.8-0.5c0.2-0.5,0.6-0.7,1.1-0.6  c0.4,0.1,0.7-0.1,0.9-0.4l0.2-0.4c0.2-0.3,0.5-0.4,0.9-0.3c0.5,0.1,0.8,0,1-0.6c0.1-0.4,0.5-0.6,0.9-0.5c0.5,0.1,0.9-0.1,1.2-0.6  c0.1-0.3,0.5-0.5,0.8-0.5c0.4,0,0.7,0,1-0.2c1.5-1.2,3.9-2,5.5-2.8c0.8-0.4,1.3-0.2,1.3,0.8l0,30.5c0,0.3,0.2,0.5,0.5,0.5l17,0  c0.3,0,0.5,0.2,0.5,0.5v17.8c0,0.4-0.2,0.7-0.5,0.8c-0.6,0.2-0.8,0.7-0.8,1.4c0,0.3-0.2,0.6-0.5,0.6c0,0-0.1,0-0.1,0  c-0.6-0.1-1.1,0.1-1.3,0.7c-0.1,0.3-0.4,0.5-0.7,0.5l-13.5,0C420.9,87.2,420.7,87.4,420.7,87.8z"/>
<path class="st1" d="M524.8,147.2l-0.2,0.3c-0.1,0.2-0.3,0.3-0.5,0.3h-27.7c-0.1,0-0.2-0.1-0.2-0.2l0,0V37c0-2.2,1.8-3.9,3.9-3.9  l0,0l28.5,0c0.3,0,0.5,0.2,0.5,0.5c0,35.7,0,71.5,0,107.2c0,1.8-1.2,5.9-3.4,6C525.3,146.8,525,147,524.8,147.2z"/>
<path class="st1" d="M201.9,114.1c-0.3,0.8-0.1,1.4,0.6,1.9c0.4,0.2,0.5,0.5,0.5,1l-0.1,1c-0.1,0.5,0.1,0.8,0.5,1  c0.4,0.2,0.6,0.6,0.6,1c0,0.4,0.1,0.7,0.4,1c5.2,5.9,7.8,8.1,16.2,7.6c4.1-0.2,7.3-2.3,10.3-4.9c0.3-0.3,0.6-0.4,1-0.4l33.4-0.1  c0.3,0,0.5,0.2,0.5,0.5c0,0,0,0,0,0c0,0.3,0,0.5-0.1,0.7c-0.1,0.4-0.3,0.7-0.6,0.9c-0.4,0.3-0.6,0.7-0.6,1.3c0,0.4-0.1,0.6-0.4,0.9  c-0.8,0.6-1.3,1.4-1.5,2.3c-0.1,0.3-0.3,0.6-0.5,0.8c-1.7,1.6-2.6,3.7-4.1,5.2c-13.4,13.3-31.3,15.4-49.3,13.5  c-23.4-2.4-42.1-20.8-40.6-45.1c1-15.7,8.2-27.4,21.6-35c4.2-2.4,8.9-4.1,14-5.1c20.2-4,43.4-1.1,57.1,15.6c6.6,8,8.5,18.1,8.1,28.7  c-0.1,2.9-2.5,5.2-5.5,5.3h-60.8C202.2,113.8,202,113.9,201.9,114.1z M233.8,94.8c0-0.6-0.2-1.1-0.7-1.4c-0.2-0.1-0.3-0.3-0.3-0.5  c0-0.1,0-0.2,0-0.3c0-0.2-0.1-0.4-0.2-0.6c-2.1-2.9-4.7-5.2-7.9-6.8c-0.3-0.2-0.6-0.2-1-0.1c-0.6,0.1-1,0-1.3-0.5  c-0.2-0.3-0.6-0.5-1-0.5l-5.8,0c-0.3,0-0.6,0.1-0.7,0.4c-0.4,0.6-0.9,0.8-1.6,0.7c-0.3-0.1-0.6,0-0.9,0.1c-2.4,1.2-4.4,2.7-6.1,4.6  c-1.3,1.4-1.8,3.5-2.9,5.2c-0.2,0.3-0.2,0.6-0.2,0.9c0.1,0.9-0.2,1.6-0.8,2.1c-0.6,0.6-0.5,0.9,0.4,0.9h31.7c0.3,0,0.5-0.1,0.6-0.4  c0.4-1.1,0.2-2.1-0.6-3C233.9,95.4,233.8,95.2,233.8,94.8z"/>
<path class="st1" d="M308.5,77.7c5.9-5.8,10.9-11.3,19.2-13.5c15.3-4,32.7-1.3,39.3,15.2c0.6,1.5,0.5,3.3,1.4,4.9  c0.2,0.3,0.2,0.6,0.2,0.9c0,5,0.5,10.5,0.5,15c0.1,13.2,0.1,26.5-0.2,39.7c0,2.1-0.3,4.1-0.7,5.8c-0.2,0.7-1,1.2-1.7,1  c-0.5-0.1-0.9,0-1.2,0.5c-0.2,0.3-0.5,0.5-0.8,0.5H337c-0.5,0-0.8-0.3-0.8-0.8c0.1-16.9,0.8-34.6-0.9-51.4c-0.3-2.9-2.6-7-6-7.3  c-0.3,0-0.6-0.2-0.8-0.5c-0.1-0.1-0.2-0.2-0.3-0.3c-0.3-0.2-0.5-0.3-0.8-0.3h-6.8c-0.3,0-0.6,0.1-0.8,0.3c-0.2,0.3-0.6,0.5-1,0.6  c-4.5,1.4-7.1,5.5-7.8,10.2c-0.3,1.8-1,3.4-1,5.1c0,13.3,0,26.6,0,39.9c0,0.3-0.1,0.6-0.3,0.8l-2.1,2.1c-0.3,0.3-0.6,0.4-0.9,0.3  c-0.5-0.1-0.8,0.1-0.9,0.6c-0.1,0.3-0.3,0.5-0.7,0.5h-27.5c-0.3,0-0.5-0.2-0.5-0.5v-78c0-0.4,0.2-0.7,0.5-0.9  c0.5-0.3,0.7-0.8,0.8-1.4c0-0.4,0.2-0.6,0.6-0.7c0.6-0.1,1.1-0.4,1.5-0.9c0.2-0.2,0.4-0.4,0.7-0.4h26.2c0.4,0,0.5,0.2,0.5,0.6l0,12  c0,0.2,0.1,0.3,0.3,0.3C308.4,77.8,308.5,77.8,308.5,77.7z"/>
<path class="st1" d="M452.3,65.7c0.5-0.5,1.1-0.7,1.8-0.7h27.6c0.3,0,0.5,0.2,0.5,0.5v78.2c0,0.4-0.1,0.7-0.4,0.9  c-0.4,0.4-0.6,0.9-0.7,1.4c0,0.4-0.4,0.7-0.8,0.6c0,0,0,0,0,0c-0.7-0.1-1.2,0.1-1.5,0.7c-0.2,0.3-0.5,0.5-0.8,0.5h-27.2  c-0.2,0-0.5-0.2-0.5-0.4c0,0,0,0,0,0l0-79.2c0-0.4,0.1-0.7,0.4-0.9L452.3,65.7z"/>
<path class="st1" d="M485.6,162l-1.6,4.7c0,0.1-0.1,0.2-0.3,0.2l-5.5,0c-1.2,0-1.7-0.6-1.4-1.8l0.3-1.6c0.3-1.3,1.1-1.9,2.4-1.9  l5.8,0.1C485.6,161.6,485.7,161.8,485.6,162z"/>
<path class="st1" d="M243.3,189.3c4.4,0.8,7.8-1.6,8.9-6.2c1.5-6.3,2.9-12.7,4.3-19.1c0.2-1,0.9-1.5,1.9-1.5l4.9,0.1  c1,0,1.4,0.5,1.1,1.5c-1.9,6.8-3.6,13.7-5.2,20.8c-2.2,10.1-14.2,12.1-22.5,9.1c-4.4-1.6-6-4.5-5.3-9.1c1.3-8.2,2.9-15.6,4.9-22.3  c0.1-0.2,0.2-0.3,0.4-0.3l7,0.2c0.1,0,0.3,0.1,0.2,0.3c0,0,0,0,0,0c-1.7,6.6-3.2,13.4-4.6,20.3C238.7,186.7,240,188.7,243.3,189.3z"/>
<path class="st1" d="M279.5,188.7c0.3-0.9-0.3-1.9-1.2-2.2c-3-0.9-13.4-2.8-12.7-7.7c0.5-3.8,2.7-6.5,6.3-7.7c1.1-0.4,2-0.9,3.1-0.9  c2.9-0.1,7.9-0.6,10.4,0.8c0.3,0.2,0.6,0.2,0.9,0.2l1,0c0.3,0,0.5,0.2,0.5,0.5l0,2.6c0,0.3-0.1,0.6-0.4,0.9  c-0.5,0.5-0.8,1.1-0.8,1.8c0,0.5-0.2,0.6-0.6,0.2c-1.9-1.8-3.4-1.9-6.2-2.8c-2.2-0.7-4.4-0.3-6.5,1.3c-0.2,0.1-0.3,0.3-0.4,0.6  c-0.4,1.5,0,2.5,1.3,3c3.2,1.4,8.2,1,11,4.8c0.2,0.3,0.3,0.6,0.3,0.9l0,4c0,0.4-0.1,0.7-0.3,1c-5.3,7.3-15,5.4-22.5,3.9  c-0.4-0.1-0.7-0.5-0.6-1c0-0.1,0-0.1,0.1-0.2c0.8-1.6,1.2-3.2,1.1-4.9c0-0.4,0.1-0.4,0.4-0.2c4.3,2.9,9,3.6,14.1,2.1  C278.9,189.4,279.4,189.1,279.5,188.7z"/>
<path class="st1" d="M289.9,180.9c0.1-0.3,0.2-0.6,0.2-0.9c0-0.3,0-0.7,0.2-0.9c1.3-2.8,3.3-5.1,6.1-6.7c1-0.6,2-1.1,3-1.6  c2.3-1.1,4.8-0.8,7.2-0.7c3.5,0,5.3,1,7.6,3.4c0.8,0.8,1.2,1.8,1.3,3c0.4,4.5-0.1,9.2-2.8,12.9c-3.8,5.1-10.8,7.6-16.9,5.5  C289.5,192.8,287.3,187,289.9,180.9z M299.5,190.4c2.9,1.1,6.6-1.6,8.2-5.9c1.6-4.4,0.6-8.8-2.3-9.9c0,0,0,0,0,0  c-2.9-1.1-6.6,1.6-8.2,5.9C295.6,184.9,296.6,189.4,299.5,190.4C299.5,190.4,299.5,190.4,299.5,190.4z"/>
<path class="st1" d="M387.5,174.8c-0.1,0.2-0.4,0.4-0.7,0.5c-1.2,0.2-1.9,0.9-2.3,2c-0.1,0.3-0.1,0.6,0.1,0.8c1,1.4,2.3,1.9,3.9,1.6  c0.4-0.1,0.7,0.1,1,0.4c0.5,0.6,1.2,0.9,2,0.7c0.3-0.1,0.5,0,0.8,0.1l4.5,2c0.3,0.1,0.5,0.4,0.5,0.7c0,0.5,0.3,0.9,0.6,1.3  c0.2,0.2,0.4,0.5,0.4,0.8l0.1,2.5c0,0.4-0.1,0.7-0.5,0.9c-0.4,0.2-0.6,0.6-0.6,1.1c0,0.3-0.1,0.5-0.3,0.8c-1.2,1.3-2.2,2.1-3.9,2.5  c-0.3,0.1-0.6,0.3-0.8,0.5c-0.2,0.2-0.5,0.4-0.8,0.4c-1.1,0.1-3.1-0.2-3.9,0.7c-0.2,0.3-0.5,0.4-0.9,0.4l-4.7,0  c-0.3,0-0.5-0.1-0.6-0.4c-0.2-0.4-0.6-0.6-1.2-0.6c-1.1,0-2.3,0-3.5,0c-0.3,0-0.6-0.2-0.7-0.5c-0.3-0.6-0.8-0.9-1.5-0.8  c-0.5,0.1-0.6-0.1-0.2-0.5c0.1-0.1,0.2-0.2,0.4-0.3c0.2-0.1,0.3-0.3,0.3-0.5l0-3c0-0.3,0.2-0.6,0.5-0.7c1.1-0.5,2-0.3,2.8,0.5  c0.2,0.3,0.5,0.4,0.8,0.4c0.5,0,0.9,0.2,1.2,0.6c0.2,0.3,0.5,0.5,0.9,0.5h7.8c1.1,0,2-0.9,2-2.1c0-0.2,0-0.4-0.1-0.7  c-0.3-1-1.1-1.6-2.2-1.6c-0.4,0-0.8-0.1-1.1-0.4c-0.9-0.7-1.9-0.9-3-0.6c-0.3,0.1-0.7,0-0.9-0.3c-0.5-0.6-1.2-0.9-2-0.8  c-1.8,0.3-3.4-0.9-3.7-2.7c0-0.3,0-0.6,0-0.9c0.1-0.4-0.1-0.7-0.4-0.9c-0.3-0.2-0.4-0.5-0.4-0.8c0-0.5,0.2-0.9,0.5-1.2  c0.2-0.3,0.4-0.6,0.4-0.9c-0.1-3.3,2.7-3.9,4.9-5.3c0.3-0.2,0.6-0.2,0.9-0.1c0.7,0.2,1.3-0.1,1.8-0.6c0.2-0.3,0.5-0.4,0.8-0.4h8.8  c0.4,0,0.7,0.1,1,0.3c1.1,0.8,2.3,1,3.7,0.6c0.2-0.1,0.5,0.1,0.5,0.3c0,0.1,0,0.1,0,0.2c0,0.4-0.2,0.8-0.6,1  c-0.3,0.2-0.4,0.5-0.5,0.8l-0.1,3.6c0,0.4-0.2,0.5-0.5,0.3l-3.5-1.8c-0.3-0.2-0.7-0.2-1.1-0.1c-0.5,0.2-0.9,0-1.1-0.5  c-0.2-0.4-0.5-0.6-0.9-0.6l-3.9,0C387.9,174.3,387.7,174.4,387.5,174.8z"/>
<path class="st1" d="M411.7,170.8c1.7-1.2,5.6-0.8,7.7-0.7c2,0.1,5.4,1.6,6.5,3.3c1.1,1.7,2.3,3.5,2.2,5.7  c-0.2,5.7-2.3,11.1-7.5,14.1c-2.6,1.5-5,2.3-7.1,2.4c-4.5,0.1-10.6-1.4-11.9-6.3c-0.3-1.1-0.3-3.1-0.1-5.8c0.5-5.8,3.2-9.8,8.5-12.2  c0.2-0.1,0.4-0.1,0.7-0.1C411.1,171.1,411.4,171,411.7,170.8z M417.7,175c-0.7-0.7-1.6-0.9-2.6-0.6c-0.3,0.1-0.6,0.2-0.8,0.5  c-0.2,0.2-0.4,0.4-0.7,0.4c-0.3,0.1-0.6,0.2-0.9,0.4c-4.5,3.3-3.7,7.8-3.6,12.3c0,1.2,1,2.2,2.2,2.3c2.3,0.1,5.1,0.4,6.7-1.9  c2.2-3.2,4.2-8.9,1.4-12.6c-0.1-0.1-0.3-0.3-0.6-0.4c-0.1-0.1-0.3-0.1-0.4-0.1C418,175.3,417.8,175.2,417.7,175z"/>
<path class="st1" d="M441.9,173.2c0,1.3,0.4,1.5,1.2,0.3c0.6-0.8,1.3-1.3,2.3-1.4c0.3,0,0.5-0.2,0.7-0.4l0.3-0.4  c0.2-0.3,0.4-0.3,0.7-0.3c1.3,0.3,2.6,0.1,3.7-0.5c0.2-0.1,0.5,0,0.6,0.2c0,0.1,0.1,0.1,0.1,0.2l0.1,3.3c0,0.4-0.1,0.7-0.5,1  c-0.6,0.4-0.8,1-0.7,1.7c0.1,0.4-0.1,0.7-0.6,0.7h-7.3c-1.1,0-2.1,0.8-2.3,1.9l-3.4,14.7c-0.1,0.2-0.3,0.4-0.5,0.4l-6.5,0  c-0.1,0-0.2-0.1-0.2-0.2c0,0,0,0,0-0.1l5.1-22.5c0.1-0.4,0.3-0.6,0.7-0.6l6-0.1c0.4,0,0.5,0.2,0.6,0.5L441.9,173.2z"/>
<path class="st1" d="M462.5,174.2c2.5-1.9,4-3.1,7.3-3c0.4,0,0.7-0.1,0.9-0.3c0.6-0.4,1.2-0.4,1.8,0c0.2,0.2,0.3,0.4,0.2,0.7  c-0.1,0.3-0.3,0.5-0.6,0.7c-0.4,0.2-0.5,0.5-0.5,0.9l0.1,2c0.1,1.5-0.7,2.3-2.2,2.3h-7.3c-0.3,0-0.6,0.1-0.8,0.4  c-0.8,1.1-1.2,2.3-1.5,3.5c-0.7,4-1.7,7.8-2.4,11.8c-0.1,0.7-0.7,1.2-1.4,1.2l-4.3,0c-1,0-1.4-0.5-1.3-1.4c0.4-4.4,2-9.4,3-13.8  c0.2-0.9,0-2.2,0.8-3.1c0.2-0.3,0.4-0.6,0.4-1l0-3.2c0-0.4,0.3-0.8,0.8-0.8l5.8-0.2c0.5,0,0.8,0.2,0.8,0.8l0,2.2  C462,174.3,462.2,174.4,462.5,174.2z"/>
<path class="st1" d="M333.5,192.6c-2.7,1.1-6.2,3-8.9,2.7c-2.8-0.3-6.3-2.5-5.8-5.9c0.7-5.1,1.9-10.8,3.5-17c0.2-1,0.9-1.4,1.9-1.4  l4.1,0c1,0,1.4,0.5,1.2,1.5l-2.9,12.9c-0.6,2.7,0.5,4,3.3,4l1.5,0c2.5-0.1,4.1-1.3,4.8-3.8c0.6-2.1,1.1-4.6,1.5-7.3  c0.3-2,1.6-4.2,1.2-6.6c0-0.3,0.2-0.6,0.5-0.7c0,0,0.1,0,0.1,0l6,0c0.5,0,0.7,0.2,0.8,0.7l0,1.5c0,0.3-0.1,0.6-0.2,0.9  c-0.9,1.8-0.7,3.5-1.3,5.3c-0.3,0.8-0.5,1.5-0.6,2.3c-0.3,1.7-1.3,3.5-1.1,5.4c0,0.4-0.1,0.7-0.3,1c-0.8,1.2-1,2.6-0.7,4  c0.2,1.1-0.5,2.2-1.5,2.4c-0.2,0-0.4,0.1-0.5,0l-4.7-0.3c-0.4,0-0.7-0.3-0.8-0.7c0-0.3-0.1-0.5-0.3-0.7  C334.2,192.6,333.9,192.5,333.5,192.6z"/>
<path class="st1" d="M476,172.3l0-0.8c0-0.2,0.1-0.4,0.3-0.4c0,0,0,0,0,0l6.5,0c0.3,0,0.4,0.1,0.3,0.4c-2.4,7.8-3.6,15.1-5.2,22.5  c-0.1,0.6-0.5,0.9-1.1,0.8l-5.5-0.4c-0.6,0-0.8-0.3-0.6-0.9c1.2-4.6,2.3-9.3,3.3-14.2c0.3-1.3,1.2-3.1,1-5c0-0.3,0.1-0.6,0.3-0.8  l0.4-0.3C475.9,172.9,476,172.6,476,172.3z"/>
<path class="st1" d="M500.9,193c0.1-0.3-0.1-0.6-0.4-0.7c-0.2,0-0.3,0-0.5,0.1c-4,2.7-9.3,4.6-13.4,0.9c-1.5-1.4-1.4-3.2-1.1-5  c1-5.7,2.2-11.1,3.5-16.2c0.2-0.8,0.7-1.2,1.6-1.2l4.7,0.2c0.7,0,1,0.4,0.9,1.1l-3,13.3c-0.6,2.7,0.5,4.1,3.3,4l1.6,0  c2.6-0.1,4.2-1.4,4.7-3.9l3.1-13.3c0.2-0.8,0.7-1.2,1.5-1.2l5,0c0.8,0,1.1,0.4,0.9,1.1c-0.8,3-1.5,5.7-2,8.1  c-0.4,1.7-1.3,4.1-1.2,6.5c0,0.4-0.1,0.7-0.3,1c-0.8,1-1,2.1-0.6,3.4c0.1,0.4,0,0.7-0.3,1c-0.6,0.5-0.9,1.1-0.9,1.9  c0,0.4-0.1,0.5-0.5,0.5l-6.2,0c-0.3,0-0.4-0.2-0.4-0.5L500.9,193z"/>
<path class="st1" d="M357.8,187.6l-10.8,15.2c-0.1,0.1-0.2,0.1-0.3,0.1l-3.5-0.1c-0.2,0-0.3-0.2-0.3-0.3c0-0.1,0-0.1,0-0.1l7.6-15.2  c0.1-0.1,0.2-0.2,0.3-0.2l6.7,0c0.2,0,0.3,0.1,0.3,0.3C357.8,187.5,357.8,187.6,357.8,187.6z"/>
<path class="st1" d="M522.5,190l0.1,2.2c0.1,1.2-0.8,2.2-2,2.3c0,0-0.1,0-0.1,0l-6,0c-0.4,0-0.5-0.2-0.4-0.5  c0.2-0.4,0.4-0.7,0.7-0.9c0.2-0.2,0.4-0.5,0.4-0.8l0-2.2c0-0.4,0.1-0.7,0.4-0.9c0.4-0.4,0.6-0.9,0.7-1.4c0.1-0.4,0.3-0.6,0.7-0.6  l6.2,0.1c0.3,0,0.6,0.3,0.6,0.6c0,0,0,0,0,0c0,0.7-0.3,1.2-1,1.6C522.6,189.5,522.5,189.7,522.5,190z"/>
<path class="st3" d="M320.5,267.3c-0.1-0.6-0.5-1.1-1.1-1.4c-11.4-6.1-15.9,15.8-11.5,21.8c1.6,2.3,6.2,4.2,8.6,1.9  c1.2-1.1,1.6-3,1.9-4.6c0.1-0.3,0.4-0.5,0.7-0.5l4.6,0.9c0.4,0.1,0.6,0.3,0.5,0.7l-1.4,8c-0.1,0.4-0.4,0.7-0.8,0.7  c-16.4,1.4-29.7-7.4-21.1-25.4c5.1-10.8,17.6-9.7,26.4-4.9c0.3,0.2,0.4,0.4,0.3,0.7l-1.3,7c-0.1,0.4-0.3,0.5-0.6,0.4l-4.7-0.8  c-0.3,0-0.5-0.3-0.4-0.6c0,0,0,0,0,0C320.8,269.9,320.8,268.6,320.5,267.3z"/>
<path class="st3" d="M254.6,292.3c1.1,0.2,2.1,0.1,3.2-0.3c0.3-0.1,0.5,0,0.6,0.3l0.5,2.3c0.1,0.2-0.1,0.5-0.3,0.5c0,0,0,0,0,0  l-11.7,2.6c-0.2,0.1-0.5-0.1-0.5-0.3l-0.6-1.9c-0.1-0.4,0-0.6,0.4-0.8c1.6-0.6,2.5-2.3,2.9-5.1c1.2-8.5,2.3-16.9,3.4-25.4  c0-0.3,0.2-0.5,0.5-0.6l6.2-1.4c0.4-0.1,0.7,0,0.9,0.4c6.9,10.8,11.7,18.1,14.2,22c1,1.6,2.5,2.4,4.5,2.6c0.3,0,0.5,0.2,0.6,0.5  l0.5,1.9c0.1,0.3,0,0.4-0.3,0.5l-14.4,3.3c-0.2,0.1-0.4,0-0.5-0.3l-0.5-1.9c-0.1-0.4,0.1-0.7,0.5-0.8c1-0.2,2-0.5,2.8-1.2  c0.3-0.2,0.4-0.6,0.2-0.9l-2.2-3.7c-0.2-0.3-0.5-0.4-0.8-0.4l-9.8,2.3c-0.4,0.1-0.6,0.3-0.6,0.7l-0.3,4.3  C254,291.9,254.3,292.2,254.6,292.3z M255,281.8c0,0.2,0.1,0.4,0.3,0.4c0,0,0.1,0,0.1,0l7.3-1.6c0.2,0,0.3-0.2,0.3-0.4  c0,0,0-0.1,0-0.1l-6-10.1c-0.1-0.2-0.3-0.2-0.5-0.1c-0.1,0.1-0.2,0.2-0.2,0.3L255,281.8z"/>
<path class="st3" d="M340.2,297.3l5.6,2c0.8,0.3,1.7-0.1,2-0.9l1.5-3.5c0.2-0.6,0.6-0.7,1.2-0.5l3.8,1.5c0.4,0.2,0.5,0.4,0.4,0.8  l-3.2,8.3c-0.1,0.4-0.4,0.5-0.8,0.3l-23.9-9.2c-0.3-0.1-0.4-0.4-0.3-0.6c0,0,0,0,0,0l0.8-2c0.1-0.3,0.4-0.4,0.7-0.3  c2.2,0.8,4,1,4.9-1.3c2.2-5.7,4.4-11.4,6.5-17.2c0.9-2.5,0-4-2.8-4.6c-0.2,0-0.3-0.2-0.2-0.4l1.1-2.7c0-0.1,0.1-0.2,0.3-0.1  c5,2.3,10.1,4.2,15.4,5.9c0.1,0,0.1,0.1,0.1,0.2l-1,2.6c-0.1,0.1-0.2,0.2-0.3,0.1c-2.7-1.1-4.4-0.8-5,0.9c-2.6,6.6-5.1,13-7.4,19.1  C339.2,296.5,339.4,297,340.2,297.3z"/>
<path class="st3" d="M229.9,306l-0.9-1.9c-0.1-0.3-0.1-0.5,0.2-0.7c1.8-1.1,3.8-1.9,2.7-4.5c-2.6-5.8-5.2-11.8-8.1-17.9  c-0.4-0.9-1.4-1.3-2.3-1l-2.4,0.7c-0.2,0.1-0.4,0-0.5-0.2l-0.9-2.1c-0.1-0.2,0-0.3,0.1-0.4l14.8-6.6c0.2-0.1,0.4,0,0.5,0.2  c0,0,0,0,0,0l0.8,1.9c0.1,0.3,0.1,0.5-0.2,0.7l-2.1,1.3c-0.8,0.5-1.2,1.6-0.8,2.5c2.6,6,5.3,12,8,18.1c0.9,2,2.6,2.3,5,0.7  c0.1-0.1,0.3,0,0.4,0.1c0,0,0,0,0,0l1.2,2.5c0,0.1,0,0.2-0.1,0.2c0,0,0,0,0,0l-14.9,6.6C230.1,306.3,230,306.2,229.9,306z"/>
<path class="st3" d="M379.9,292.9c-0.7-0.4-1.6-0.2-2.1,0.4c-3,3.8-6,7.5-8.9,11.3c-2.9,3.7-4.6,8.6,0.5,11.6c3.4,2,7-0.3,9.4-3.2  c2.8-3.5,5.5-7,8.2-10.6c1.6-2.1,1.3-3.8-1-5.1c-0.5-0.3-0.5-0.6-0.2-1.1l1.2-1.5c0.3-0.3,0.5-0.4,0.9-0.1l10.9,8.6  c0.1,0.1,0.1,0.2,0,0.3l-1.5,2c-0.1,0.1-0.2,0.1-0.4,0.1c0,0,0,0,0,0c-2.3-1.9-4-2.1-5.2-0.5c-5,6.3-8.3,10.6-10.1,12.7  c-8.8,10.6-28.7-4.9-20.2-15.9c3.3-4.3,6.7-8.7,10.2-13.1c0.6-0.8,0.5-1.9-0.2-2.6l-1.8-1.7c-0.2-0.2-0.2-0.5,0-0.7l1.4-1.6  c0.2-0.2,0.4-0.2,0.6-0.1l12.7,9.9c0.2,0.2,0.2,0.3,0.1,0.5l-1.3,1.7c-0.2,0.2-0.4,0.3-0.6,0.1L379.9,292.9z"/>
<path class="st3" d="M181,326.6c-0.4,0.7-0.2,0.9,0.5,0.4c3.7-2.6,8.4-0.8,12.3,0.2c1.9,0.5,4.6-1,5.7-2.4c1.1-1.3,1.3-3,0.7-5  c-2.6-8.4-5.3-16.9-7.9-25.3c-0.1-0.3,0-0.5,0.2-0.7l5-4c0.3-0.2,0.6-0.2,0.9,0c7.7,4.9,15.4,9.7,23.1,14.5c1.2,0.7,2.6,0.7,4.2,0  c0.3-0.1,0.7-0.1,0.9,0.2l1.2,1.5c0.2,0.2,0.1,0.5-0.1,0.7c0,0,0,0,0,0l-11.7,9.1c-0.2,0.2-0.4,0.1-0.6-0.1l-1.3-1.8  c-0.1-0.2-0.1-0.4,0.1-0.5l2.1-1.9c0.4-0.3,0.4-0.9,0.1-1.2c0-0.1-0.1-0.1-0.2-0.1l-3.3-2.3c-0.5-0.3-0.9-0.3-1.4,0l-7.7,6  c-0.3,0.2-0.3,0.5-0.2,0.8l1.4,3.8c0.2,0.5,0.7,0.7,1.2,0.6c0.9-0.3,1.8-0.8,2.5-1.5c0.2-0.2,0.5-0.2,0.7,0c0,0,0,0,0,0.1l1.3,1.8  c0.2,0.3,0.2,0.6-0.1,0.8c-2.7,1.9-5.4,3.9-8.1,6.1c-3.1,2.5-4.9,5.5-7.2,8.7c-0.2,0.3-0.5,0.4-0.8,0.3c-4.5-1.3-13-4.5-16.8,0.2  c-0.3,0.3-0.2,0.6,0.1,0.8l6.5,4.6c0.9,0.6,2,0.5,2.7-0.3l1.6-1.8c0.2-0.2,0.4-0.2,0.6-0.1l1.8,1.3c0.2,0.1,0.2,0.3,0.1,0.5l-9.5,13  c-0.1,0.2-0.4,0.2-0.5,0.1l-1.8-1.3c-0.3-0.2-0.3-0.4-0.1-0.7c1.3-1.6,2.2-3.3,0.2-4.8c-4.9-3.7-9.9-7.4-14.9-10.9  c-0.7-0.5-1.4-0.9-2.3-1.1c-0.3-0.1-0.6,0-0.8,0.1c-0.9,0.6-1.6,1.3-2.2,2.1c-0.2,0.3-0.5,0.4-0.8,0.2l-1.8-1.2  c-0.3-0.2-0.4-0.5-0.1-0.9c3.6-4.8,12.6-20.4,19.9-18.5C180.8,317.6,183.1,322.3,181,326.6z M202,309.4c0.1,0.2,0.3,0.3,0.4,0.2  c0,0,0.1,0,0.1,0l5.9-4.5c0.1-0.1,0.2-0.3,0.1-0.5c0,0-0.1-0.1-0.1-0.1l-9.8-6.6c-0.1-0.1-0.4-0.1-0.5,0.1c-0.1,0.1-0.1,0.2,0,0.3  L202,309.4z M166.8,328l7.5,5.4c0.2,0.2,0.5,0.1,0.7-0.1l1.4-2c1.6-2.2,1.2-5.1-0.9-6.6c0,0,0,0,0,0l-0.9-0.6  c-2.1-1.5-5-0.9-6.6,1.2l-1.4,2C166.5,327.6,166.5,327.9,166.8,328z"/>
<path class="st3" d="M399.9,415.4c0,60.6-49.1,109.6-109.6,109.6S180.7,476,180.6,415.4v0c0-60.6,49.1-109.6,109.6-109.6l0,0  C350.8,305.8,399.9,354.9,399.9,415.4z M398.3,415.5c0-59.7-48.4-108-108-108s-108,48.4-108,108l0,0c0,59.7,48.4,108,108,108  S398.3,475.1,398.3,415.5z"/>
<path class="st4" d="M398.3,415.5c0,59.7-48.4,108-108,108s-108-48.4-108-108c0-59.7,48.4-108,108-108l0,0  C349.9,307.5,398.3,355.8,398.3,415.5z M266.1,350.9c5,0,9.1-5.2,9.1-11.5c0-6.3-4.1-11.5-9.1-11.4c-5,0-9.1,5.2-9.1,11.5  C257,345.8,261.1,350.9,266.1,350.9z M287.4,395.3c8.1,15.6-8.1,31.8-19.5,39.4c-1.6,1-1.5,1.3,0.3,0.6c16.9-6.1,36-28.2,19.9-45.6  c-4.9-5.3-10.8-8.6-9.5-17.9c0.5-3.4,2.2-6.8,5.3-10c7.3-7.7,25.4-7,35.3-7.2c7.7-0.2,16-2.7,19-10.4c0.3-0.6,0.1-0.8-0.5-0.4  c-17.9,11.7-47.4-0.6-60.3,20.2c-3.8,6.1-3.8,12.2-0.2,18.4C280.1,386.9,285.2,391.1,287.4,395.3z M274,470.5  c-11.2-14.6-24.2-38.3-9.8-55.4c7.4-8.8,13.2-17.5,5-27.8c-3.5-4.5-7.2-9.2-10.9-14.3c-0.9-1.2-0.8-2.8,0.1-3.9  c2.3-2.8,5.3-7,5.8-10.7c0.1-1.1-0.1-1.2-0.8-0.3c-2.4,3.3-4.8,6.8-7.4,10.4c-2.2,3.1,1,8.4,3,11.4c2.4,3.6,4.8,7.3,7.1,11  c5.2,8.2,0.1,14.5-5.3,21.1c-7.8,9.6-8,25.4-2.9,36.5c4,8.7,9.2,16.1,15.8,22.3C274.7,471.6,274.8,471.6,274,470.5z M336.3,486.2  c-29.4-16.1-66.2-6-93.8,8.3c-0.2,0.1-0.2,0.3-0.1,0.4c0,0.1,0.1,0.1,0.1,0.1l19.3,11.2c0.3,0.2,0.5,0.2,0.8,0  c25.2-14.7,63.2-26.3,88.5-7.2c1.1,0.8,1.2,0.7,0.4-0.4C347.5,493.7,342.5,489.5,336.3,486.2z"/>
<path class="st3" d="M406.3,336.1c2.6,4,1.9,7.6-2.1,10.6c-4.4,3.4-8.6,0.5-11.7-3c-4.2-4.9-8.3-9.8-12.2-14.7  c-0.2-0.3-0.2-0.6,0.1-0.8c0,0,0,0,0,0l1.6-1.2c0.3-0.2,0.5-0.2,0.7,0l1.9,1.8c0.6,0.6,1.6,0.6,2.3,0.1c5.4-4.2,10.6-8.5,15.7-12.9  c1.8-1.6,0.5-3.2-0.6-4.5c-0.2-0.3-0.2-0.5,0.1-0.7l1.6-1.4c0.3-0.3,0.6-0.2,0.9,0.1c3.4,4.1,6.7,8.3,10.1,12.5  c2.8,3.6,5.8,9.1,2.2,13c-2.6,2.7-6.1,3.1-10.4,0.9C406.2,335.7,406.1,335.8,406.3,336.1z M408.7,321l-6.4,5.1  c-0.2,0.2-0.3,0.5-0.1,0.7l1.8,2.2c1.7,2.1,4.4,2.7,6.2,1.3c0,0,0,0,0,0l0.9-0.8c1.7-1.4,1.8-4.2,0.1-6.3l-1.8-2.2  C409.3,320.9,409,320.8,408.7,321C408.7,321,408.7,321,408.7,321z M398.8,329.1l-7.8,6.3c-0.2,0.1-0.2,0.3-0.1,0.5l2.1,2.6  c1.9,2.4,5.1,3,7.1,1.4l1.1-0.9c2-1.6,2.1-4.9,0.2-7.3c0,0,0,0,0,0l-2.1-2.6C399.2,329,399,329,398.8,329.1z"/>
<path class="st3" d="M266.1,350.9c-5,0-9.1-5.1-9.1-11.4c0-6.3,4-11.5,9.1-11.5c5,0,9.1,5.1,9.1,11.4  C275.2,345.7,271.1,350.9,266.1,350.9z M259.8,334.1c-2.7,5.6-0.1,14.6,7.5,14c0.7-0.1,1.4-0.6,1.5-1.3c1.2-4.7-3.6-10.3-7-13.1  c-0.6-0.5-1.4-0.4-1.9,0.2C259.9,333.9,259.8,334,259.8,334.1z"/>
<path class="st4" d="M267.3,348c-7.6,0.6-10.2-8.4-7.5-14c0.3-0.7,1.1-0.9,1.8-0.6c0.1,0,0.2,0.1,0.3,0.2c3.4,2.8,8.2,8.4,7,13.1  C268.6,347.4,268,347.9,267.3,348z"/>
<path class="st3" d="M421.3,359.8c1,1.9,1.7,6,4.8,4.3c0.2-0.1,0.5,0,0.7,0.2c0,0,0,0,0,0l1.5,3.6c0.2,0.4,0,0.6-0.3,0.8l-8.7,3.5  c-0.2,0.1-0.4,0-0.5-0.2l-1.6-3.8c-0.1-0.3,0-0.5,0.3-0.6c3.3-1.1,1.5-4.4,0.5-6.5c-0.2-0.3-0.4-0.4-0.8-0.3l-8.6,3.5  c-0.4,0.2-0.5,0.4-0.4,0.9l3.6,8.6c0.5,1.1,1.7,1.7,2.9,1.3l1.6-0.5c0.4-0.1,0.7,0,0.8,0.4l1.4,3.5c0.3,0.7,0.1,1.2-0.6,1.5  l-5.5,2.2c-0.8,0.3-1.3,0.1-1.6-0.7l-10.6-26.3c-0.1-0.3,0-0.6,0.3-0.7l2-0.8c0.4-0.2,0.6,0,0.8,0.3c0.6,1.9,1.6,3.4,3.9,2.5  c6.2-2.3,12.4-4.7,18.5-7.2c0.9-0.4,1.4-1.4,1.1-2.3l-0.6-2.5c-0.1-0.2,0.1-0.5,0.3-0.6l2-0.7c0.3-0.1,0.6,0,0.7,0.3l10.6,26.3  c0.1,0.3,0,0.6-0.3,0.7l-6.5,2.7c-0.2,0.1-0.4,0-0.5-0.2l-1.9-4.5c-0.1-0.3,0-0.5,0.3-0.6c2.1-0.6,3-1.7,2.6-3.1  c-0.5-1.8-1.6-4.7-3.4-8.6c-0.1-0.3-0.3-0.4-0.6-0.3l-7.9,3.1C421.3,359.1,421.2,359.5,421.3,359.8  C421.3,359.8,421.3,359.8,421.3,359.8z"/>
<path class="st3" d="M267.9,434.7c11.5-7.6,27.6-23.8,19.5-39.4c-2.2-4.2-7.3-8.4-10-12.9c-3.6-6.1-3.6-12.3,0.2-18.4  c12.8-20.9,42.4-8.6,60.3-20.2c0.6-0.4,0.7-0.2,0.5,0.4c-3.1,7.7-11.4,10.3-19,10.4c-9.9,0.2-28-0.5-35.3,7.2  c-3.1,3.2-4.8,6.6-5.3,10c-1.2,9.3,4.7,12.6,9.5,17.9c16.1,17.4-3.1,39.6-19.9,45.6C266.4,435.9,266.3,435.7,267.9,434.7z"/>
<path class="st3" d="M162.9,367.7l5.7,2.1c0.9,0.4,2,0,2.5-0.9l1.2-2.3c0.1-0.2,0.3-0.3,0.5-0.2l2.1,1c0.2,0.1,0.3,0.2,0.2,0.5  l-6.1,15.1c0,0.1-0.1,0.1-0.2,0.1l-2.5-1c-0.1-0.1-0.2-0.1-0.1-0.3l0.7-2.5c0.3-1-0.2-2.1-1.2-2.5c-6.1-2.5-12.1-5-18.1-7.4  c-2-0.8-3.4,0-4,2.5c-0.1,0.4-0.5,0.6-0.9,0.5c0,0-0.1,0-0.1,0l-1.7-0.6c-0.5-0.2-0.7-0.6-0.5-1.1c2.1-5.1,4.2-10.3,6.4-15.6  c2-4.9,5.6-9.7,11.8-7.6c9.3,3.3,7.3,11.4,3.7,18.1C161.6,366.7,161.9,367.3,162.9,367.7z M148.7,362l9.1,3.7c0.3,0.1,0.6,0,0.7-0.3  c0,0,0,0,0,0l1.2-2.9c1.1-2.7,0-5.7-2.5-6.7l-1.1-0.5c-2.5-1-5.4,0.4-6.5,3.1l-1.2,2.9C148.3,361.6,148.4,361.9,148.7,362  C148.7,362,148.7,362,148.7,362z"/>
<path class="st3" d="M264.2,415.1c-14.4,17.1-1.3,40.9,9.8,55.4c0.8,1,0.7,1.1-0.2,0.2c-6.5-6.1-11.8-13.6-15.8-22.3  c-5.1-11.1-4.9-27,2.9-36.5c5.4-6.6,10.5-12.9,5.3-21.1c-2.3-3.7-4.7-7.3-7.1-11c-2-3-5.3-8.3-3-11.4c2.6-3.6,5-7.1,7.4-10.4  c0.6-0.9,0.9-0.8,0.8,0.3c-0.4,3.7-3.5,7.9-5.8,10.7c-0.9,1.1-1,2.7-0.1,3.9c3.7,5.1,7.3,9.9,10.9,14.3  C277.4,397.6,271.6,406.3,264.2,415.1z"/>
<path class="st3" d="M336.3,486.2c6.1,3.4,11.2,7.5,15.1,12.4c0.9,1.1,0.7,1.2-0.4,0.4c-25.3-19.1-63.4-7.5-88.5,7.2  c-0.3,0.2-0.5,0.2-0.8,0L242.4,495c-0.2-0.1-0.2-0.3-0.1-0.5c0-0.1,0.1-0.1,0.1-0.1C270.1,480.2,307,470.1,336.3,486.2z"/>
<path class="st3" d="M209.5,521.9c4.5-0.4,8.5,3.5,7.8,8.1c-0.9,5.6-7.5,11.8-13.5,7.5c-1.8-1.3-2.7-3-2.6-5.1  c0-0.4-0.1-0.5-0.4-0.1l-0.8,1c-0.2,0.3-0.7,0.3-1,0.1l-4.7-3.6c-0.3-0.2-0.4-0.5-0.2-0.9c0.1-0.2,0.2-0.3,0.3-0.4  c0.2-0.2,0.5-0.3,0.9-0.2c0.4,0.1,0.7,0.2,0.9,0.3c0.5,0.4,1.2,0.2,1.6-0.3l8.8-12c0.5-0.6,0.3-1.1-0.4-1.4l-0.3-0.1  c-0.8-0.4-1.7-0.2-2.3,0.4c-3,2.9-5.7,5.4-8.4,7.7c-7.3,6.3-19-6.1-12.2-12.9c2.4-2.4,4.9-4.8,7.4-7.1c1.6-1.4,1.7-2.7,0.3-3.8  c-0.3-0.3-0.4-0.8-0.1-1.1c0,0,0.1-0.1,0.1-0.1l0.5-0.4c0.4-0.3,0.8-0.3,1.1,0.1l7.3,7.5c0.3,0.3,0.3,0.6,0,0.8l-0.8,0.7  c-0.2,0.2-0.6,0.2-0.9,0c0,0,0,0,0-0.1c-1-1.2-2-1.4-3.1-0.5c-2.7,2.3-5.6,5.2-8.8,8.7c-1.1,1.3-1.2,3.2-0.1,4.6l0.5,0.6  c1.8,2.1,3.7,2.3,5.9,0.5c2.6-2.2,5.3-4.8,8.2-7.7c1.3-1.3,1.3-2.4,0.2-3.3c-0.6-0.5-0.6-0.9-0.1-1.4l0.3-0.3c0.5-0.5,1-0.4,1.4,0.1  l5.3,5.7c0.2,0.2,0.5,0.2,0.7,0c0.1-0.1,0.2-0.3,0.1-0.4c-0.1-0.4-0.3-0.8-0.7-1c-0.4-0.3-0.6-0.7-0.4-1.2l0.1-0.4  c0.2-0.6,0.5-0.7,1-0.4l5.7,3.9c0.2,0.2,0.3,0.4,0.1,0.6l-5.1,6.9C209,521.8,209.1,521.9,209.5,521.9z M204.2,533.9  c1.6,1.2,4.4,0.1,6.4-2.5c2-2.6,2.3-5.7,0.8-6.9c0,0,0,0,0,0c-1.6-1.2-4.4-0.1-6.4,2.5C203,529.6,202.7,532.7,204.2,533.9  C204.2,533.9,204.2,533.9,204.2,533.9z"/>
<path class="st3" d="M396.8,514.8l-2.6-2.2c-0.3-0.2-0.7-0.3-1-0.1c-0.7,0.4-1.3,0.9-1.8,1.5c-0.3,0.3-0.7,0.3-1,0.1c0,0,0,0,0,0  l-0.6-0.6c-0.3-0.3-0.3-0.6,0-0.8l7.3-7.8c0.3-0.4,0.7-0.4,1,0l0.5,0.5c0.4,0.4,0.4,0.8,0,1.1c-1.2,1-1.1,2.1,0.1,3.3  c1,0.9,2.1,1.9,3.1,2.8c0.3,0.2,0.3,0.5,0.1,0.8c-4.5,8.9-13.1,16.7-22.4,7c-7.4-7.7-0.4-16.6,6.6-21.3c0.2-0.2,0.5-0.1,0.7,0l4,3.7  c0.1,0.1,0.1,0.3,0,0.4c0,0,0,0,0,0l-2.6,2.6c-0.1,0.1-0.2,0.1-0.3,0c-1.3-1.7-3-2.2-4.8-0.7c-8.8,7.4,8.7,22.9,13.8,10.7  C397.2,515.4,397.1,515.1,396.8,514.8z"/>
<path class="st3" d="M355.9,529.5c2.3,3.7,4.7,7.3,7.2,10.9c1,1.4,2,1.7,3.2,0.9c0.4-0.3,1.1-0.2,1.4,0.2l0.3,0.4  c0.3,0.5,0.3,0.8-0.2,1.2l-6.9,4.4c-0.4,0.3-0.9,0.1-1.2-0.3l-0.1-0.2c-0.3-0.5-0.2-1.2,0.3-1.5c0,0,0,0,0.1,0  c1.3-0.7,1.5-1.8,0.6-3.2c-2.3-3.6-4.7-7.1-7.1-10.7c-0.9-1.3-1.9-1.4-3-0.4c-0.3,0.3-0.8,0.3-1.1-0.1c0,0-0.1-0.1-0.1-0.1l-0.4-0.5  c-0.3-0.5-0.2-0.8,0.3-1.1l7.4-4.8c0.3-0.2,0.6-0.2,0.9,0l13.3,10.7c0.4,0.3,0.6,0.2,0.4-0.3l-4.6-16.7c0-0.1,0-0.2,0.1-0.3l7.7-5.1  c0.6-0.4,1-0.2,1.3,0.4l0.1,0.3c0.2,0.4,0.1,1-0.3,1.3c-1.2,0.9-1.6,1.7-1.2,2.4c3.5,5.6,6,9.4,7.4,11.5c0.9,1.3,2,1.4,3.4,0.4  c0.2-0.2,0.6-0.1,0.8,0.1c0,0,0,0,0,0l0.6,0.9c0.2,0.3,0.2,0.6-0.2,0.8l-8.4,5.4c-0.6,0.4-1.1,0.3-1.5-0.4l-0.2-0.3  c-0.2-0.4-0.1-0.9,0.3-1.2c0,0,0,0,0,0c1.5-0.7,1.7-1.8,0.8-3.2c-2.5-3.8-4.9-7.5-7.2-11.1c-0.6-1-0.8-0.9-0.5,0.2l4.8,17.4  c0.1,0.4-0.1,0.9-0.4,1.1l-2.8,1.8c-0.3,0.2-0.6,0.1-0.8,0l-14.3-11.6C355.6,528.7,355.5,528.8,355.9,529.5z"/>
<path class="st3" d="M220,539.1c-2.7,4.3,1.1,9.5,4.4,4.6c0.2-0.3,0.5-0.4,0.8-0.2l3.3,1.7c0.2,0.1,0.3,0.4,0.2,0.6c0,0,0,0.1,0,0.1  c-2.1,2.8-4.6,3.6-7.6,2.4c-6.8-2.6-8.3-7.2-4.4-13.8c5.2-8.8,19.9-1.1,13.5,8.4c-0.2,0.3-0.4,0.3-0.7,0.2l-8.4-4.3  C220.5,538.6,220.2,538.7,220,539.1z M221.9,536.8l3.9,2c0.3,0.1,0.6,0,0.7-0.2l0.1-0.2c1-1.8,0.7-3.9-0.6-4.6l-0.2-0.1  c-1.3-0.7-3.1,0.3-4.1,2.1l-0.1,0.2C221.5,536.3,221.6,536.7,221.9,536.8C221.9,536.8,221.9,536.8,221.9,536.8z"/>
<path class="st3" d="M251.5,536.3c-0.2,0-0.4-0.1-0.6-0.2c-0.3-0.2-0.4-0.5-0.4-0.8l0.2-0.8c0.1-0.3,0.3-0.4,0.6-0.4c0,0,0,0,0,0  l6.8,1.6c0.3,0.1,0.4,0.3,0.3,0.6c-1.7,6.3-3.4,12.5-5,18.7c-0.5,1.7-0.1,2.7,1.2,3c0.4,0.1,0.6,0.5,0.6,0.9c0,0,0,0,0,0.1l-0.1,0.3  c-0.2,0.6-0.5,0.8-1.1,0.6l-8.8-2.3c-0.3-0.1-0.5-0.3-0.4-0.6l0.1-0.8c0.1-0.3,0.3-0.5,0.6-0.4c0,0,0.1,0,0.1,0  c1.3,0.4,2.2,0,2.5-1.4c1.5-5.5,3-11,4.4-16.5c0.2-0.6-0.2-1.3-0.8-1.5C251.6,536.3,251.5,536.3,251.5,536.3z"/>
<path class="st3" d="M242.1,540.5c2.1-0.9,4.2-0.8,6.3,0.3c0.5,0.2,0.6,0.6,0.4,1.1l-1.4,3.5c-0.2,0.4-0.5,0.6-0.9,0.4l-2.1-0.8  c-0.3-0.1-0.5-0.4-0.4-0.7c0.1-0.8-0.2-1.3-0.8-1.6c-3-1.4-5.7,7.2-5.9,8.2c-0.2,0.9,0.2,1.5,1.1,1.9c0.4,0.2,0.7,0.7,0.5,1.1  c0,0,0,0.1-0.1,0.1l-0.2,0.4c-0.2,0.3-0.5,0.4-0.8,0.3l-8.8-3.5c-0.2-0.1-0.3-0.3-0.2-0.5l0.4-0.9c0.1-0.3,0.5-0.5,0.8-0.3  c0,0,0,0,0,0c1.1,0.5,1.9,0.3,2.5-0.9c0.7-1.7,1.8-4.4,3.3-8c0.5-1.3,0.2-2.1-0.8-2.4c-0.4-0.1-0.7-0.6-0.5-1c0,0,0,0,0,0l0.2-0.6  c0.2-0.4,0.4-0.6,0.9-0.4l6.2,2.3c0.3,0.1,0.4,0.4,0.3,0.7l-0.3,0.8C241.4,540.6,241.6,540.7,242.1,540.5z"/>
<ellipse transform="matrix(0.9715 -0.2368 0.2368 0.9715 -118.5196 91.2083)" class="st3" cx="320.4" cy="538.9" rx="3.1" ry="2.7"/>
<path class="st3" d="M269,540.9c-0.6,0.4-1.6,0.9-3,1.6c-0.6,0.3-1.2,0.3-1.6,0c-0.3-0.2-0.3-0.4-0.1-0.6l3.7-3.9  c0.9-1,2.5-1,3.5-0.1c0.3,0.3,0.5,0.6,0.6,0.9l1.9,5c0.1,0.3,0,0.5-0.3,0.5c-1.5,0.1-2.8-2.3-3.8-3.3  C269.6,540.8,269.3,540.7,269,540.9z"/>
<path class="st3" d="M309.5,547.7c-0.1-1.6-0.4-3.3-0.6-4.9c-0.2-1.3-0.9-1.8-2.1-1.5c-0.5,0.1-0.8-0.1-0.8-0.6l-0.1-0.7  c-0.1-0.3,0.2-0.6,0.5-0.7c0,0,0,0,0,0l6.8-1c0.3,0,0.6,0.2,0.6,0.5c0,0,0,0,0,0c0.8,6.6,1.6,13.2,2.4,19.9c0.2,1.3,0.9,1.9,2.1,1.8  c0.4,0,0.7,0.2,0.8,0.5l0.2,0.8c0.1,0.3-0.1,0.5-0.4,0.6l-6.5,1c-0.2,0-0.4-0.1-0.4-0.3l-0.2-1.3c-0.1-0.6-0.3-0.6-0.6-0.1  c-1.2,2.1-3.1,3.1-5.9,3c-5.9-0.3-7.6-6-7.2-10.8c0.5-6,5.7-8.6,11-5.8C309.3,548.1,309.5,548,309.5,547.7z M307.8,561.1  c2-0.3,3.2-3.2,2.7-6.4c0,0,0,0,0,0c-0.5-3.2-2.5-5.6-4.4-5.4s-3.2,3.2-2.7,6.4c0,0,0,0,0,0C303.9,559,305.9,561.4,307.8,561.1z"/>
<path class="st3" d="M343.3,553c-0.1-0.4-0.3-0.4-0.5,0c-1.6,3.8-8.6,7.3-11,2c-2.7-5.9,3.6-8,7.8-9.3c0.3-0.1,0.5-0.3,0.4-0.7  c-0.4-1.6-1.3-3.5-3.1-3.5c-1.7,0-2.9,1.6-2.5,3.3c0.1,0.4-0.1,0.7-0.5,0.8l-3.7,1.3c-0.4,0.1-0.6,0-0.7-0.4c-1-4.9,4.8-7.1,8.5-7.8  c6.4-1.3,7.3,7,9,11.2c0.1,0.3,0.4,0.6,0.7,0.7c0.6,0.2,1.2,0.1,1.8-0.1c0.2-0.1,0.4,0,0.5,0.2l0.3,1c0.1,0.3,0,0.6-0.3,0.7l-5.6,2  c-0.3,0.1-0.7-0.1-0.8-0.4c0,0,0,0,0,0L343.3,553z M339.1,547.9c-2.8,0.9-3.7,2.6-2.6,5.2c0.5,1.1,1.8,1.7,2.9,1.2  c0.2-0.1,0.5-0.3,0.7-0.4c1.7-1.6,2-3.5,0.9-5.7c-0.1-0.2-0.3-0.4-0.6-0.4C340,547.7,339.5,547.8,339.1,547.9z"/>
<path class="st3" d="M328.3,557.3h1.7c0.3,0,0.6,0.2,0.6,0.6l0.1,0.6c0,0.3-0.2,0.6-0.5,0.7l-8.8,2.2c-0.5,0.1-0.9-0.1-1.1-0.6  l-0.1-0.3c-0.2-0.7,0-1,0.7-1.2c1.2-0.2,1.7-1.1,1.3-2.7c-0.7-2.6-1.4-5.1-2.1-7.7c-0.4-1.6-1.3-1.8-2.8-1.5c-0.2,0-0.3-0.1-0.4-0.2  c0,0,0,0,0,0l-0.2-1.3c0-0.1,0.1-0.3,0.2-0.3l6.9-1.9c0.3-0.1,0.4,0,0.5,0.3l3.3,12.7C327.7,557.1,327.9,557.3,328.3,557.3z"/>
<path class="st3" d="M268,561.3c-3.3,2.2-6.4,2.1-9.4-0.4c-0.9-0.8-1.3-1.9-1.2-3.4c0.4-6,6.8-5.5,10.9-4.3c0.8,0.3,1.3,0,1.4-0.9  l0.2-2.1c0.1-0.9-0.3-1.5-1.2-1.9c-2-0.8-3.4-0.2-4.1,1.8c-0.1,0.3-0.3,0.4-0.6,0.3l-4.2-0.9c-0.2,0-0.3-0.2-0.2-0.3c0,0,0,0,0,0  c1-2.6,3-3.8,6.1-3.6c11.9,0.9,9.1,6.5,7.4,14.8c-0.1,0.7,0.1,1.1,0.7,1.5l0.9,0.5c0.3,0.2,0.5,0.5,0.5,0.8l0,0.6  c0,0.3-0.3,0.6-0.6,0.5c0,0-0.1,0-0.1,0l-5.8-1.1c-0.4-0.1-0.5-0.3-0.4-0.7l0.2-1C268.5,561.1,268.4,561,268,561.3z M269,556.1  c0.1-0.3-0.2-0.7-0.5-0.7c0,0,0,0,0,0c-1.2-0.2-2.5-0.6-3.7-0.3c-2.3,0.7-3.3,3.8-1,5.2C266.7,561.9,268.6,558.5,269,556.1z"/>
<path class="st3" d="M285,549.4c2.8-2.4,5.6-2.5,8.4-0.6c2.7,1.9,1.6,9.6,1.4,12.4c-0.1,1,0.5,1.5,1.8,1.6c0.4,0,0.7,0.3,0.7,0.7  l0,0.6c0,0.4-0.3,0.7-0.6,0.7c0,0,0,0,0,0l-8.4-0.3c-0.4,0-0.6-0.2-0.7-0.6c-0.1-0.9,0.3-1.5,1.2-1.6c0.4-0.1,0.7-0.4,0.7-0.7  l0.3-9.3c0-1.1-0.8-1.9-1.9-2c-0.1,0-0.1,0-0.2,0c-4,0.3-3.3,7.3-3.4,10.1c0,1.2,0.3,1.8,1.1,2c0.5,0.1,0.7,0.3,0.7,0.8l0,0.6  c0,0.4-0.2,0.6-0.6,0.6l-8.6-0.3c-0.3,0-0.5-0.2-0.5-0.5l0-0.8c0-0.3,0.2-0.5,0.5-0.6c0.6-0.1,1.1-0.3,1.6-0.6  c0.4-0.2,0.6-0.6,0.6-1l0.3-9.8c0-0.3-0.2-0.6-0.5-0.7l-1.6-0.5c-0.4-0.1-0.5-0.4-0.5-0.8l0-0.7c0-0.4,0.2-0.5,0.6-0.5l6.5,0.1  c0.3,0,0.4,0.1,0.4,0.4l0.1,0.8C284.4,549.7,284.6,549.8,285,549.4z"/>
</svg>