<?xml version="1.0" encoding="UTF-8"?>
<svg version="1.1" xmlns="http://www.w3.org/2000/svg" width="631" height="837">
<path d="M0 0 C2.98753228 1.48249243 5.55239008 3.45409661 8.1953125 5.46484375 C16.37881798 11.48241545 25.06282982 16.35773672 34.0703125 21.02734375 C34.77027344 21.39102051 35.47023438 21.75469727 36.19140625 22.12939453 C57.82432955 33.2065554 81.68662761 40.2653536 106.0703125 41.02734375 C106.9778125 41.06730469 107.8853125 41.10726562 108.8203125 41.1484375 C150.19455003 42.12532922 188.30446297 25.66835213 222.0703125 3.02734375 C224.98700873 6.56907539 227.58460923 10.20813463 230.08984375 14.05078125 C230.46507675 14.62477661 230.84030975 15.19877197 231.22691345 15.79016113 C232.44798097 17.65931261 233.66541839 19.53079812 234.8828125 21.40234375 C235.73772795 22.712551 236.59287389 24.02260788 237.44824219 25.33251953 C239.59343132 28.61886019 241.73575392 31.90705819 243.8772583 35.19580078 C245.62599663 37.88041427 247.37742337 40.56327029 249.12890625 43.24609375 C252.17182977 47.90788908 255.21188197 52.57154773 258.25097656 57.23583984 C260.76304477 61.09023972 263.27703232 64.94338478 265.79199219 68.79589844 C267.04727556 70.72100977 268.30057662 72.64741534 269.55175781 74.57519531 C272.63838592 79.32725845 275.75496747 84.05370698 278.9375 88.7421875 C279.54899902 89.65331299 280.16049805 90.56443848 280.79052734 91.50317383 C281.94800754 93.22605691 283.11704358 94.94125153 284.29931641 96.6472168 C284.81155762 97.41461182 285.32379883 98.18200684 285.8515625 98.97265625 C286.30595703 99.63797363 286.76035156 100.30329102 287.22851562 100.98876953 C288.37210976 103.7582043 287.96741099 105.19410059 287.0703125 108.02734375 C285.89379883 110.35375977 285.89379883 110.35375977 284.40234375 112.78125 C283.84579102 113.70341309 283.28923828 114.62557617 282.71582031 115.57568359 C282.11092773 116.57035645 281.50603516 117.5650293 280.8828125 118.58984375 C242.48111079 183.27004604 223.98915923 255.76926247 242.41015625 329.83203125 C246.6078465 345.91450941 252.8603466 361.07818301 260.0703125 376.02734375 C260.41255859 376.73922852 260.75480469 377.45111328 261.10742188 378.18457031 C265.05144166 386.26714084 269.52655205 393.81839621 274.54125977 401.28466797 C294.67550191 431.28481374 305.86326359 466.6003725 312.0703125 502.02734375 C312.24385254 502.92904297 312.41739258 503.83074219 312.59619141 504.75976562 C317.77152147 531.9724804 317.65580014 563.90138818 312.0703125 591.02734375 C311.76432129 592.5280542 311.76432129 592.5280542 311.45214844 594.05908203 C302.99764591 634.27027127 285.25807139 672.62688769 257.06640625 702.87890625 C255.24646004 704.83775247 253.53313877 706.8503025 251.8203125 708.90234375 C232.78058404 730.66203342 206.34843215 747.84340861 179.3828125 757.90234375 C178.68454346 758.16418457 177.98627441 758.42602539 177.2668457 758.69580078 C164.94253359 763.06799388 152.15486692 765.50704198 139.27746582 767.54925537 C89.12213089 775.57283295 36.68681777 792.67443314 3.4375 833.50390625 C2.0703125 835.02734375 2.0703125 835.02734375 -0.9296875 837.02734375 C-4.8293637 833.21882881 -8.64859196 829.42421975 -12.1171875 825.21484375 C-24.48813631 810.90830431 -41.38610311 800.77811686 -57.9296875 792.02734375 C-59.01765625 791.44339844 -60.105625 790.85945312 -61.2265625 790.2578125 C-86.04837776 777.81777128 -114.0950422 771.47402447 -141.32592773 767.19604492 C-169.91428275 762.69906136 -196.15365566 753.92801351 -219.9296875 737.02734375 C-220.97253906 736.28742187 -222.01539063 735.5475 -223.08984375 734.78515625 C-228.90441727 730.53632756 -234.35205967 726.01453327 -239.640625 721.12890625 C-241.6521673 719.28213192 -243.70970948 717.52746942 -245.8046875 715.77734375 C-281.8027012 684.17988884 -303.75073732 637.25865617 -312.9296875 591.02734375 C-313.10757812 590.15658203 -313.28546875 589.28582031 -313.46875 588.38867188 C-318.78630708 561.02013404 -318.18708008 529.34430651 -312.9296875 502.02734375 C-312.66357666 500.50850586 -312.66357666 500.50850586 -312.39208984 498.95898438 C-306.32536619 464.60661192 -294.90994621 429.05951024 -274.84765625 400.3203125 C-269.94225397 393.23833028 -265.89447729 385.66501589 -261.9296875 378.02734375 C-261.5795459 377.35445313 -261.2294043 376.6815625 -260.86865234 375.98828125 C-231.28250072 318.25920491 -228.80688393 251.66317889 -248.46411133 190.46801758 C-252.78567157 177.24816179 -257.82466017 164.52017284 -263.9296875 152.02734375 C-264.37538086 151.0926123 -264.82107422 150.15788086 -265.28027344 149.19482422 C-271.14307226 136.899847 -277.3536258 125.09245801 -285.00488281 113.80102539 C-288.88010234 107.89894074 -288.88010234 107.89894074 -289.10546875 103.9375 C-287.48822274 99.9346818 -285.28176382 96.61168407 -282.8046875 93.08984375 C-281.70305381 91.48140846 -280.60286128 89.87198541 -279.50390625 88.26171875 C-278.92044434 87.41158203 -278.33698242 86.56144531 -277.73583984 85.68554688 C-274.62958532 81.1139195 -271.62679571 76.47542722 -268.6171875 71.83984375 C-267.33994657 69.87753724 -266.06260185 67.91529828 -264.78515625 65.953125 C-264.14755371 64.9729541 -263.50995117 63.9927832 -262.85302734 62.98291016 C-259.71574136 58.16189161 -256.57241212 53.34481789 -253.4296875 48.52734375 C-252.19009445 46.62630842 -250.95051115 44.72526673 -249.7109375 42.82421875 C-247.10844089 38.83354285 -244.50400247 34.8441419 -241.8984375 30.85546875 C-241.23392578 29.83775391 -240.56941406 28.82003906 -239.88476562 27.77148438 C-238.62877204 25.84796972 -237.37230205 23.92476601 -236.11523438 22.00195312 C-232.00582779 15.70698505 -227.95320634 9.37753267 -223.9296875 3.02734375 C-218.78415533 5.81267667 -213.76366923 8.73205174 -208.8046875 11.83984375 C-181.30687148 28.75670292 -151.33746949 39.30575303 -118.9296875 41.02734375 C-117.34607422 41.11628906 -117.34607422 41.11628906 -115.73046875 41.20703125 C-77.32362999 42.17121967 -33.20398373 27.27893334 -4.28125 1.68359375 C-1.9296875 0.02734375 -1.9296875 0.02734375 0 0 Z " fill="#D6B312" transform="translate(315.9296875,-0.02734375)"/>
<path d="M0 0 C5.03838634 3.24441545 9.88147265 6.64880002 14.625 10.3125 C48.46777627 35.74766059 89.96570765 48.87301226 132.23681641 42.92407227 C159.58288179 38.50819896 184.16264317 26.5420651 206.73095703 10.79199219 C210.7890282 8 210.7890282 8 213 8 C214.35076474 9.97933844 215.56188343 11.94220236 216.75390625 14.015625 C217.12681793 14.65020126 217.49972961 15.28477753 217.88394165 15.93858337 C218.69261531 17.31634798 219.49795692 18.69607241 220.30038452 20.07748413 C221.99896439 23.00129878 223.71334663 25.91571837 225.42738342 28.83049011 C226.30927916 30.33021539 227.19040422 31.83039411 228.07078552 33.33100891 C232.37371446 40.65888032 236.76743781 47.9298561 241.1875 55.1875 C241.856604 56.28803711 242.52570801 57.38857422 243.21508789 58.52246094 C243.85953857 59.58110352 244.50398926 60.63974609 245.16796875 61.73046875 C245.78849121 62.75575684 246.40901367 63.78104492 247.04833984 64.83740234 C248.43677848 67.08731905 249.8463807 69.30318515 251.29931641 71.51025391 C251.67550613 72.09196854 252.05169586 72.67368317 252.43928528 73.27302551 C253.49017589 74.89475533 254.55581203 76.5069023 255.62231445 78.1184082 C257 81 257 81 256.88671875 83.546875 C255.89422577 86.2926265 254.69389436 88.71570495 253.26171875 91.26171875 C252.69477295 92.28475098 252.12782715 93.3077832 251.54370117 94.36181641 C250.93115479 95.45929199 250.3186084 96.55676758 249.6875 97.6875 C227.32861813 138.5541376 209.84818302 183.43260961 206.32421875 230.25390625 C206 234 206 234 205 238 C69.7 238 -65.6 238 -205 238 C-205.99 228.76 -206.98 219.52 -208 210 C-208.86642516 204.8839657 -209.7949724 200.0192463 -211 195 C-211.39065416 193.2513086 -211.78127638 191.50261006 -212.171875 189.75390625 C-219.95887732 155.88983153 -233.93232079 123.47084144 -251.05200195 93.29394531 C-251.55820068 92.39772461 -252.06439941 91.50150391 -252.5859375 90.578125 C-253.0298584 89.80887695 -253.4737793 89.03962891 -253.93115234 88.24707031 C-255.12497477 85.73726182 -255.78354289 83.77754942 -256 81 C-255.05053711 78.76196289 -255.05053711 78.76196289 -253.52734375 76.47265625 C-252.96466797 75.60962891 -252.40199219 74.74660156 -251.82226562 73.85742188 C-251.20029297 72.93509766 -250.57832031 72.01277344 -249.9375 71.0625 C-248.63372495 69.07447422 -247.33035046 67.0861857 -246.02734375 65.09765625 C-245.35558105 64.0833252 -244.68381836 63.06899414 -243.99169922 62.02392578 C-240.9367735 57.38574119 -237.97024744 52.69266948 -235 48 C-233.84816403 46.18847912 -232.69581691 44.37728314 -231.54296875 42.56640625 C-230.96724121 41.66164551 -230.39151367 40.75688477 -229.79833984 39.82470703 C-227.90442652 36.84987983 -226.00897924 33.87603397 -224.11328125 30.90234375 C-223.47712891 29.90396484 -222.84097656 28.90558594 -222.18554688 27.87695312 C-220.96733093 25.96515438 -219.74860824 24.05367841 -218.52929688 22.14257812 C-217.97951172 21.27955078 -217.42972656 20.41652344 -216.86328125 19.52734375 C-216.14072144 18.39413696 -216.14072144 18.39413696 -215.40356445 17.23803711 C-213.90250273 14.84453689 -212.44615174 12.42700129 -211 10 C-206.84913918 11.47041564 -203.51876983 13.54155288 -199.875 16 C-180.77474646 28.49236336 -159.67618015 38.37071966 -137 42 C-135.89785156 42.20238281 -134.79570312 42.40476563 -133.66015625 42.61328125 C-90.00679927 49.70393702 -47.281446 34.08200518 -12 9 C-7.951348 6.063317 -3.96111393 3.05381968 0 0 Z " fill="#017200" transform="translate(315,32)"/>
<path d="M0 0 C17.16 0 34.32 0 52 0 C56.76389949 16.6736482 60.60717393 33.55594891 64.31671143 50.48910522 C66.88637724 62.20053787 69.62851072 73.85908096 72.5 85.5 C75.69693721 98.46393243 78.69969896 111.45696727 81.55511475 124.50021362 C84.09425599 136.08660315 86.80610865 147.62043727 89.63504028 159.13928223 C92.13475321 169.3239346 94.47959716 179.53373404 96.71582031 189.77978516 C98.64008609 198.53171685 100.73796965 207.23585629 102.875 215.9375 C105.92173977 228.34582832 108.7616282 240.78890487 111.49743652 253.26922607 C114.05551741 264.92364683 116.78357247 276.52656616 119.62872314 288.11401367 C122.74005825 300.7939132 125.63684504 313.51278161 128.40136719 326.2734375 C128.79185579 328.05197614 129.19306143 329.82820557 129.60644531 331.6015625 C129.88246582 332.78878906 129.88246582 332.78878906 130.1640625 334 C130.32600098 334.680625 130.48793945 335.36125 130.65478516 336.0625 C131 338 131 338 131 342 C130.16976318 342.13575439 129.33952637 342.27150879 128.48413086 342.41137695 C120.50660431 343.71910468 112.53278823 345.04686336 104.5625 346.39794922 C102.5241601 346.74242196 100.48536832 347.08429651 98.4453125 347.41845703 C72.01443003 351.766641 45.92809303 362.67502496 29.625 384.75 C28.39948125 386.48800841 27.18397731 388.23343068 26 390 C23.28057745 387.3058509 20.60106329 384.58754509 17.9765625 381.80078125 C5.37651362 368.57988228 -8.29349895 360.1809382 -25 353 C-26.56234375 352.30970703 -26.56234375 352.30970703 -28.15625 351.60546875 C-43.97936507 345.04720395 -61.3403208 341.80153754 -78 338 C-76.77016108 328.56473327 -74.78065304 319.48213754 -72.4609375 310.26782227 C-71.43592459 306.19126051 -70.43171437 302.10960775 -69.4296875 298.02734375 C-69.22430359 297.1907724 -69.01891968 296.35420105 -68.80731201 295.49227905 C-66.74063631 287.02324365 -64.85838813 278.51672264 -63 270 C-60.1431182 256.92414098 -57.0686466 243.91530362 -53.86288452 230.92080688 C-51.1824916 220.04212108 -48.66409943 209.14189063 -46.3125 198.1875 C-44.1196062 187.97252856 -41.76926614 177.82071001 -39.19189453 167.69604492 C-35.47539281 153.0719914 -32.19116891 138.34613562 -28.90234375 123.62109375 C-28.14369328 120.22645857 -27.38457821 116.83192772 -26.625 113.4375 C-26.43371521 112.58250916 -26.24243042 111.72751831 -26.04534912 110.84661865 C-23.1018636 97.70869771 -20.01356695 84.61264922 -16.8112793 71.53564453 C-14.0330854 60.18785141 -11.39429458 48.81142694 -8.78710938 37.42333984 C-7.42451147 31.4970533 -6.04307977 25.57516187 -4.66091919 19.65341187 C-4.19735246 17.66721384 -3.73428832 15.68089907 -3.27124023 13.69458008 C-2.98966064 12.48825928 -2.70808105 11.28193848 -2.41796875 10.0390625 C-2.16813232 8.96865723 -1.9182959 7.89825195 -1.66088867 6.79541016 C-1.12439297 4.52615424 -0.56554763 2.26219051 0 0 Z " fill="#017100" transform="translate(290,398)"/>
<path d="M0 0 C1.67163086 2.07568359 1.67163086 2.07568359 3.52734375 5.0234375 C4.58864502 6.67617676 4.58864502 6.67617676 5.67138672 8.36230469 C6.04962585 8.95652222 6.42786499 9.55073975 6.81756592 10.16296387 C8.82582573 13.28300743 10.91798476 16.34563786 13.00390625 19.4140625 C13.90629232 20.74701288 14.80846797 22.08010573 15.71044922 23.41333008 C16.66113166 24.81722083 17.61181528 26.22111079 18.5625 27.625 C19.57572877 29.12195835 20.58891135 30.61894798 21.60205078 32.1159668 C23.69854565 35.21366682 25.79523532 38.31123483 27.89208984 41.40869141 C32.72114277 48.5423361 37.54815394 55.67736197 42.375 62.8125 C43.07968918 63.854133 43.07968918 63.854133 43.7986145 64.91680908 C51.897198 76.88787782 59.98959378 88.86312041 68.08044434 100.8394165 C75.59182006 111.95779748 83.10635381 123.07403423 90.625 134.1875 C91.09649475 134.88442963 91.5679895 135.58135925 92.05377197 136.29940796 C95.36903204 141.19970631 98.68449172 146.09986959 102 151 C105.79180664 156.60407197 109.58352002 162.20820701 113.375 167.8125 C113.84633362 168.50918793 114.31766724 169.20587585 114.80328369 169.92367554 C122.89326278 181.88204774 130.9772362 193.84447128 139.05929565 205.80819702 C148.00647003 219.0524332 156.96013331 232.29226916 165.91796875 245.52929688 C166.38098892 246.21357758 166.84400909 246.89785828 167.32106018 247.60287476 C168.18224705 248.87557997 169.04351861 250.14822788 169.90489197 251.42080688 C175.00060695 258.95170375 175.00060695 258.95170375 174.97265625 261.17578125 C173.52891436 265.36785109 171.03805704 268.62613246 168.4375 272.1875 C167.89101807 272.94635498 167.34453613 273.70520996 166.78149414 274.48706055 C159.46718486 284.58263997 151.55839004 293.94644597 143 303 C142.1853125 303.86882812 141.370625 304.73765625 140.53125 305.6328125 C116.2598104 330.77108923 83.67360333 344.9613846 50.0625 352.625 C49.15048828 352.8415625 48.23847656 353.058125 47.29882812 353.28125 C40.88256175 354.75041629 34.56562797 355.55980178 28 356 C23.80902376 339.04069583 19.74059808 322.06476549 16 305 C13.12041055 291.86902955 10.05968579 278.7938807 6.86157227 265.73706055 C6.53134036 264.38852684 6.20117993 263.03997563 5.87109375 261.69140625 C5.71079178 261.03651718 5.55048981 260.38162811 5.3853302 259.70689392 C3.33605353 251.31184762 1.4122882 242.88838124 -0.515625 234.46484375 C-1.80759353 228.82066389 -3.12695302 223.18318951 -4.45068359 217.54638672 C-7.32585883 205.29797731 -10.12120562 193.03468166 -12.8637085 180.75598145 C-16.16481194 165.97914546 -19.58765329 151.24116288 -23.18896484 136.53466797 C-25.97636252 125.14922986 -28.62334469 113.73492955 -31.23925781 102.30908203 C-32.62394496 96.28595955 -34.03152417 90.26818194 -35.4375 84.25 C-35.87437134 82.37779785 -35.87437134 82.37779785 -36.32006836 80.46777344 C-37.81654312 74.05678166 -39.31741043 67.64685232 -40.82421875 61.23828125 C-43.5984271 49.42398016 -46.34749966 37.60625793 -48.9375 25.75 C-49.14906738 24.78521729 -49.36063477 23.82043457 -49.57861328 22.82641602 C-49.76794434 21.95041748 -49.95727539 21.07441895 -50.15234375 20.171875 C-50.31726318 19.4097168 -50.48218262 18.64755859 -50.65209961 17.86230469 C-51 16 -51 16 -51 14 C-49.72382813 13.77957031 -49.72382813 13.77957031 -48.421875 13.5546875 C-33.66702785 10.82347111 -19.30527619 6.6190869 -5.43359375 0.8828125 C-3 0 -3 0 0 0 Z " fill="#CE0200" transform="translate(393,383)"/>
<path d="M0 0 C0.67353516 0.25168945 1.34707031 0.50337891 2.04101562 0.76269531 C14.9019182 5.54498731 27.57277771 10.10675329 41 13 C41.9796875 13.22300781 42.959375 13.44601562 43.96875 13.67578125 C45.9760521 14.13114145 47.98738555 14.56872547 50 15 C49.3273683 20.16543941 48.36544556 25.19474258 47.21484375 30.2734375 C47.03823212 31.06173447 46.86162048 31.85003143 46.67965698 32.66221619 C46.10212715 35.23387417 45.52008552 37.80448298 44.9375 40.375 C44.73780609 41.26037445 44.53811218 42.1457489 44.33236694 43.05795288 C41.44478784 55.85529281 38.43736646 68.61885942 35.31002808 81.35955811 C32.82865649 91.47143146 30.50416656 101.60842476 28.28393555 111.78076172 C26.35981592 120.53238182 24.26195014 129.23618289 22.125 137.9375 C19.26302821 149.59333159 16.56992964 161.27639093 14 173 C11.27737823 185.42016622 8.39778242 197.79013593 5.36523438 210.13818359 C3.13235374 219.23566346 0.9976969 228.3474119 -1 237.5 C-3.19608506 247.5564719 -5.55687132 257.56392607 -8 267.5625 C-12.29052776 285.13510976 -16.37537991 302.74851586 -20.3359375 320.3984375 C-20.53991653 321.30699997 -20.74389557 322.21556244 -20.95405579 323.1516571 C-21.97775911 327.71258664 -22.99940875 332.27395893 -24.01733398 336.83618164 C-24.39303372 338.51449299 -24.7687647 340.19279735 -25.14453125 341.87109375 C-25.31717499 342.64798553 -25.48981873 343.42487732 -25.66769409 344.22531128 C-26.33593688 347.20449942 -27.03371641 350.10114922 -28 353 C-31.33396001 352.33644267 -34.66709492 351.66883488 -38 351 C-38.86157715 350.82807129 -39.7231543 350.65614258 -40.61083984 350.47900391 C-91.15600919 340.28606181 -135.64974986 319.48088206 -166.875 277.3125 C-167.31537598 276.71912842 -167.75575195 276.12575684 -168.20947266 275.5144043 C-171.54808312 270.89156624 -174.31676648 266.0272983 -177 261 C-164.8382794 242.99665345 -152.67520324 224.99423224 -140.5 207 C-132.49545985 195.16973123 -124.49597479 183.33605965 -116.5 171.5 C-108.46190955 159.60174563 -100.42097632 147.70542329 -92.375 135.8125 C-91.90350525 135.11557037 -91.4320105 134.41864075 -90.94622803 133.70059204 C-87.15875396 128.10231242 -83.37100958 122.5042157 -79.58325195 116.90612793 C-76.26370637 112.00000539 -72.94427131 107.0938081 -69.625 102.1875 C-69.15366638 101.49081207 -68.68233276 100.79412415 -68.19671631 100.07632446 C-61.15310598 89.66466418 -54.11378967 79.25010917 -47.07687378 68.83392334 C-45.50790934 66.51170657 -43.93868852 64.18966326 -42.36938477 61.86767578 C-37.65514272 54.89205055 -32.94207142 47.91565452 -28.23587036 40.93460083 C-26.17100116 37.87218941 -24.10465549 34.81077589 -22.03808594 31.74951172 C-21.07564874 30.32305368 -20.11386618 28.89615368 -19.15283203 27.46875 C-12.91480582 18.20413413 -6.53822763 9.05543209 0 0 Z " fill="#CE0200" transform="translate(240,383)"/>
<path d="M0 0 C111.21 0 222.42 0 337 0 C331.31145708 22.75417167 322.62903456 43.51817019 308 62 C307.33871094 62.86367188 306.67742187 63.72734375 305.99609375 64.6171875 C279.6781207 98.05991568 241.69899612 119.50970935 200 127 C199.20158691 127.16918945 198.40317383 127.33837891 197.58056641 127.51269531 C188.95152566 129.19575436 180.49384026 129.3055541 171.73828125 129.26074219 C169.267976 129.2500776 166.79840747 129.26066357 164.328125 129.2734375 C150.22921506 129.2878694 136.6150412 128.1850053 123 124.25 C122.06486572 123.98469482 121.12973145 123.71938965 120.16625977 123.44604492 C98.72685503 117.23994978 78.55160124 107.96064576 61 94 C60.45972168 93.57251465 59.91944336 93.1450293 59.36279297 92.70458984 C34.40441598 72.74528333 16.29513107 48.09938086 5.125 18.0625 C4.83874756 17.29405762 4.55249512 16.52561523 4.25756836 15.73388672 C2.36391304 10.46215975 1.24429873 5.59934427 0 0 Z " fill="#FEFEFE" transform="translate(147,270)"/>
<path d="M0 0 C3.5743446 1.04760476 6.71551486 2.67776177 9.9753418 4.44067383 C10.66287033 4.80602234 11.35039886 5.17137085 12.0587616 5.54779053 C14.29609127 6.73887537 16.52830911 7.93920539 18.76049805 9.13989258 C20.31672801 9.97100471 21.87320771 10.80164941 23.42993164 11.63183594 C32.46762767 16.45848954 41.47831858 21.33436973 50.45751953 26.26904297 C55.87732435 29.24158921 61.32168839 32.16429762 66.78393555 35.05786133 C67.48664581 35.43020401 68.18935608 35.80254669 68.9133606 36.18617249 C72.38536599 38.02479457 75.85912879 39.8600047 79.33520508 41.69091797 C82.54336909 43.38227095 85.73823995 45.09719014 88.92980957 46.8196106 C90.84279203 47.83792931 92.77117813 48.82145465 94.70288086 49.80371094 C102.20317367 53.7108951 106.93077109 57.1667792 110.57299805 64.88989258 C111.4574041 66.58777528 112.34679694 68.28306902 113.2409668 69.97583008 C113.66941895 70.804375 114.09787109 71.63291992 114.53930664 72.48657227 C116.05289023 75.2466026 117.78834521 77.7478504 119.63549805 80.29125977 C149.28748061 121.17856385 156.11988567 182.90233942 148.52124023 231.54711914 C147.16597202 239.53227579 145.49061237 247.16790592 142.82299805 254.82739258 C142.31256381 256.39727662 141.8035664 257.96762823 141.2956543 259.53833008 C136.69994153 273.4705401 130.98751627 286.58061525 122.82299805 298.82739258 C119.11777724 295.32883099 116.18189757 291.69950647 113.40112305 287.42114258 C112.98828568 286.79695938 112.5754483 286.17277618 112.15010071 285.52967834 C111.25585246 284.17647998 110.3641999 282.82156341 109.47488403 281.46511841 C107.03410283 277.74318876 104.57319825 274.03456655 102.1159668 270.32348633 C101.60182724 269.54577377 101.08768768 268.76806122 100.55796814 267.96678162 C94.89166746 259.40201847 89.14231766 250.89396417 83.38549805 242.38989258 C82.32996179 240.82961349 81.2744606 239.26931068 80.21899414 237.70898438 C78.11668799 234.60159106 76.01378313 231.49460412 73.91040039 228.38793945 C70.91766019 223.96763926 67.92671028 219.54613023 64.9362793 215.12426758 C59.23294385 206.69123719 53.5281107 198.25922072 47.82299805 189.82739258 C44.03119141 184.22332061 40.23947803 178.61918556 36.44799805 173.01489258 C35.97666443 172.31820465 35.50533081 171.62151672 35.01971436 170.90371704 C26.92269212 158.93493386 18.83185481 146.96197862 10.74255371 134.98797607 C3.23117794 123.86959503 -4.28344194 112.75341671 -11.80200195 101.63989258 C-12.26784698 100.95127136 -12.73369202 100.26265015 -13.21365356 99.55316162 C-18.09622515 92.33568654 -22.97955738 85.11872733 -27.86444092 77.90281677 C-29.94717889 74.8260959 -32.02960546 71.74916434 -34.11199951 68.67221069 C-35.09495637 67.21997649 -36.0780639 65.76784426 -37.06134033 64.31582642 C-42.79988875 55.84160332 -48.51452977 47.35268716 -54.17700195 38.82739258 C-51.23175618 36.55104663 -48.2368804 34.72793627 -44.94946289 32.97436523 C-30.051896 24.9860755 -15.16793812 14.42136388 -4.16137695 1.45239258 C-2.17700195 -0.17260742 -2.17700195 -0.17260742 0 0 Z " fill="#017100" transform="translate(446.177001953125,344.172607421875)"/>
<path d="M0 0 C1.96973042 1.20599129 3.74189655 2.47861221 5.53857422 3.9284668 C6.2058252 4.45770752 6.87307617 4.98694824 7.56054688 5.53222656 C8.27130371 6.09611084 8.98206055 6.65999512 9.71435547 7.2409668 C17.4730035 13.29466752 25.54241544 18.39692854 34.12939453 23.18286133 C37.10918252 24.84451871 40.06628102 26.54536507 43.02685547 28.2409668 C37.13089726 37.68925891 30.90110025 46.89960539 24.65185547 56.1159668 C23.5457387 57.7497291 22.43978497 59.3836018 21.33398438 61.01757812 C19.04017164 64.40675226 16.74566418 67.79545447 14.45068359 71.18383789 C9.6131705 78.32739642 4.78506577 85.47730725 -0.0435791 92.62686157 C-12.81556196 111.53636638 -25.60247437 130.43577075 -38.38989258 149.33483887 C-41.70943816 154.2409614 -45.02887322 159.1471587 -48.34814453 164.0534668 C-48.81947815 164.75015472 -49.29081177 165.44684265 -49.77642822 166.16464233 C-57.34613273 177.35395976 -64.91065826 188.54676983 -72.47314453 199.7409668 C-80.5112606 211.63920387 -88.55216587 223.53554506 -96.59814453 235.4284668 C-97.06199554 236.11409698 -97.52584656 236.79972717 -98.00375366 237.50613403 C-100.82972285 241.68320101 -103.65583539 245.86017098 -106.48199463 250.03710938 C-110.73405804 256.32148193 -114.98599766 262.60593821 -119.23773193 268.89053345 C-120.75508417 271.13329624 -122.27255837 273.37597647 -123.79003906 275.61865234 C-124.71175725 276.98103439 -125.6334698 278.34342025 -126.55517578 279.70581055 C-126.9748613 280.3259906 -127.39454681 280.94617065 -127.82695007 281.58514404 C-129.54993885 284.13215729 -131.26740097 286.68235145 -132.97314453 289.2409668 C-133.63314453 289.2409668 -134.29314453 289.2409668 -134.97314453 289.2409668 C-141.20264369 278.45531798 -145.89668332 267.40067632 -150.09765625 255.68286133 C-150.86625835 253.53909162 -151.6537175 251.40346763 -152.44580078 249.26831055 C-170.77438635 197.75769851 -163.02622289 138.92543007 -142.47314453 89.4284668 C-142.03470215 88.36136475 -141.59625977 87.2942627 -141.14453125 86.19482422 C-138.15729166 79.22331676 -134.50462268 73.30212173 -129.97314453 67.2409668 C-128.92397354 65.57136147 -128.92397354 65.57136147 -127.85360718 63.86802673 C-124.90947979 59.76152491 -121.55041824 57.91628311 -117.05957031 55.76538086 C-116.27648499 55.37237793 -115.49339966 54.979375 -114.68658447 54.57446289 C-112.10543782 53.28447314 -109.51243848 52.02054689 -106.91845703 50.7565918 C-105.09664262 49.85282703 -103.27560022 48.94750456 -101.45529175 48.04071045 C-96.65512945 45.65495363 -91.84440674 43.291291 -87.03125 40.93188477 C-82.21726563 38.56696586 -77.41419096 36.18011083 -72.60986328 33.7956543 C-56.71524521 25.91679159 -40.80904932 18.05783825 -24.76211548 10.49261475 C-18.69488409 7.62700738 -12.71318049 4.61266497 -6.84799194 1.35089111 C-2.46908317 -0.94981187 -2.46908317 -0.94981187 0 0 Z " fill="#017100" transform="translate(196.97314453125,354.759033203125)"/>
<path d="M0 0 C11.88 0 23.76 0 36 0 C37.32 3.96 38.64 7.92 40 12 C43.5845628 22.49755485 47.60701696 32.31714409 53 42 C53.56203125 43.04800781 54.1240625 44.09601563 54.703125 45.17578125 C60.71545049 56.00639562 68.40088446 65.51698588 76.796875 74.5859375 C78.61654273 76.57982873 80.38430544 78.59927517 82.13769531 80.65087891 C82.67469055 81.27878326 83.21168579 81.90668762 83.76495361 82.55361938 C84.17251892 83.03092499 84.58008423 83.50823059 85 84 C71.00550462 91.48888521 56.83506486 98.55837154 42.5625 105.5 C28.39450313 112.40308106 14.25203974 119.34953707 0.1796875 126.4453125 C-1.03274904 127.05591055 -2.24521727 127.66644571 -3.4577179 128.2769165 C-9.28425372 131.2115008 -15.10595363 134.15527591 -20.92163086 137.11132812 C-23.02181118 138.17089304 -25.12214464 139.2301545 -27.22265625 140.2890625 C-28.18789215 140.78358917 -29.15312805 141.27811584 -30.14761353 141.78762817 C-31.02581757 142.22847748 -31.90402161 142.66932678 -32.80883789 143.12353516 C-33.95709801 143.7065892 -33.95709801 143.7065892 -35.1285553 144.30142212 C-35.74613205 144.53195282 -36.3637088 144.76248352 -37 145 C-37.66 144.67 -38.32 144.34 -39 144 C-38.07380859 142.38158203 -38.07380859 142.38158203 -37.12890625 140.73046875 C-22.59861176 115.12024627 -10.41887257 88.10458975 -5 59 C-4.81211914 58.00661621 -4.62423828 57.01323242 -4.43066406 55.98974609 C-1.00225542 37.24912783 -0.33223675 19.02055404 0 0 Z " fill="#CE0300" transform="translate(111,270)"/>
<path d="M0 0 C11.88 0 23.76 0 36 0 C36.12375 4.3725 36.2475 8.745 36.375 13.25 C37.75590778 54.33085952 47.90527863 91.18771224 66 128 C65.34 128.33 64.68 128.66 64 129 C62.01074219 128.20239258 62.01074219 128.20239258 59.546875 126.89453125 C58.6297876 126.41218018 57.7127002 125.9298291 56.76782227 125.43286133 C55.77194092 124.89814209 54.77605957 124.36342285 53.75 123.8125 C52.71222412 123.26295654 51.67444824 122.71341309 50.60522461 122.1472168 C43.00622684 118.11051943 35.44982413 113.9956751 27.90722656 109.85473633 C20.33503046 105.70466716 12.71603554 101.64678761 5.08578491 97.60488892 C-5.21318566 92.14928399 -15.50685089 86.6849702 -25.75 81.125 C-26.64203125 80.64353516 -27.5340625 80.16207031 -28.453125 79.66601562 C-29.2678125 79.22193359 -30.0825 78.77785156 -30.921875 78.3203125 C-31.61893555 77.94148926 -32.31599609 77.56266602 -33.03417969 77.17236328 C-35.14241591 75.91506691 -37.0623058 74.50450515 -39 73 C-38.32195312 72.2471875 -37.64390625 71.494375 -36.9453125 70.71875 C-18.91250209 50.30246112 -7.77604268 25.92014226 0 0 Z " fill="#CE0300" transform="translate(484,270)"/>
<path d="M0 0 C6.20722892 -0.09959145 12.41398288 -0.17180805 18.62182617 -0.21972656 C20.72933057 -0.23972278 22.83678034 -0.26692893 24.9440918 -0.30175781 C49.68960901 -0.70021748 49.68960901 -0.70021748 58.6484375 5.97265625 C72.36326879 22.57318734 72.19830333 41.33825486 71 62 C69.77645554 72.62169927 65.64568071 82.14315198 58.25 89.875 C50.47516082 94.95854869 43.38102941 96.59429342 34.1796875 96.390625 C33.19501495 96.38496521 32.21034241 96.37930542 31.1958313 96.37347412 C28.08836713 96.35130111 24.98210843 96.30114185 21.875 96.25 C19.75262096 96.22991031 17.63022363 96.2116639 15.5078125 96.1953125 C10.33808582 96.15149907 5.16924641 96.08260627 0 96 C0.32466248 95.51466797 0.64932495 95.02933594 0.98382568 94.52929688 C2.43945577 90.90617772 2.27819409 87.37634265 2.25878906 83.53125 C2.2622937 82.67877686 2.26579834 81.82630371 2.26940918 80.94799805 C2.27820706 78.13191571 2.27238418 75.31608487 2.265625 72.5 C2.26697221 70.54231722 2.26891321 68.58463476 2.27142334 66.62695312 C2.27437197 62.52470717 2.27008531 58.42254833 2.26074219 54.3203125 C2.24934784 49.06100531 2.2559087 43.80190224 2.26788712 38.54260254 C2.27511273 34.50030986 2.27281455 30.45806561 2.26763153 26.41577148 C2.26629698 24.47648087 2.26793595 22.53718587 2.27259064 20.59790039 C2.27766734 17.88806504 2.26992948 15.17856069 2.25878906 12.46875 C2.26283752 11.66655029 2.26688599 10.86435059 2.27105713 10.0378418 C2.24196665 6.21992438 2.16360719 3.23433705 0 0 Z " fill="#FBFDFB" transform="translate(260,126)"/>
<path d="M0 0 C8.25 0 16.5 0 25 0 C24.67 2.97 24.34 5.94 24 9 C24.39565991 11.73988116 24.39565991 11.73988116 25.35522461 14.10498047 C25.67563217 14.99555145 25.99603973 15.88612244 26.32615662 16.80368042 C26.68129837 17.73213776 27.03644012 18.66059509 27.40234375 19.6171875 C27.75889542 20.59615997 28.11544708 21.57513245 28.48280334 22.58377075 C29.61679074 25.68765279 30.77593399 28.78134566 31.9375 31.875 C33.09051875 34.99168249 34.23822119 38.11022576 35.38148499 41.23049927 C36.09253347 43.16616073 36.81013065 45.09943171 37.53489685 47.02999878 C37.85845657 47.9016568 38.1820163 48.77331482 38.51538086 49.67138672 C38.80263535 50.43699921 39.08988983 51.20261169 39.385849 51.99142456 C40 54 40 54 40 57 C40.66 57 41.32 57 42 57 C42.09603516 56.36860107 42.19207031 55.73720215 42.29101562 55.08666992 C43.27819538 50.78883465 44.81567743 46.74510651 46.34375 42.61328125 C46.67290405 41.71506149 47.00205811 40.81684174 47.34118652 39.8914032 C48.03547993 37.99883236 48.73152219 36.10690229 49.42919922 34.21557617 C50.49955251 31.3137132 51.56469266 28.40997891 52.62890625 25.50585938 C53.30438542 23.6665557 53.98015657 21.82735922 54.65625 19.98828125 C54.97605835 19.11746414 55.2958667 18.24664703 55.62536621 17.34944153 C55.92237427 16.54488022 56.21938232 15.74031891 56.52539062 14.91137695 C56.7866272 14.2025386 57.04786377 13.49370026 57.3170166 12.76338196 C58 11 58 11 59 9 C59.14375422 5.62177584 59.07536348 3.22609045 58 0 C65.92 0 73.84 0 82 0 C81.34 1.32 80.68 2.64 80 4 C79.81880533 6.90789748 79.7473943 9.71747361 79.77294922 12.62402344 C79.77265717 13.49267532 79.77236511 14.36132721 79.77206421 15.25630188 C79.77345623 18.12409495 79.78901147 20.99162738 79.8046875 23.859375 C79.80841808 25.84905861 79.81126484 27.83874407 79.81326294 29.82843018 C79.82089582 35.06289754 79.8405414 40.29725376 79.8626709 45.53167725 C79.88313673 50.87396745 79.89226624 56.21627563 79.90234375 61.55859375 C79.92378756 72.03911131 79.95791941 82.51954641 80 93 C80.66 93 81.32 93 82 93 C82 93.99 82 94.98 82 96 C75.4 96 68.8 96 62 96 C62.66 94.35 63.32 92.7 64 91 C64.28655826 88.15283262 64.28655826 88.15283262 64.22705078 85.1081543 C64.22689972 83.94732834 64.22674866 82.78650238 64.22659302 81.59049988 C64.21110916 79.72619072 64.21110916 79.72619072 64.1953125 77.82421875 C64.19106766 75.90377495 64.19106766 75.90377495 64.18673706 73.9445343 C64.1791278 70.55296925 64.15950293 67.1615775 64.1373291 63.77008057 C64.11681206 60.30442651 64.10772286 56.83874425 64.09765625 53.37304688 C64.07561492 46.58195634 64.04215129 39.79099388 64 33 C63.75832092 33.64400253 63.51664185 34.28800507 63.26763916 34.95152283 C60.97586825 41.05693851 58.68147454 47.16136145 56.38422012 53.26471615 C55.20361914 56.40161496 54.02428446 59.53897616 52.84667969 62.67700195 C51.4888614 66.29474084 50.12756915 69.9111564 48.765625 73.52734375 C48.34879456 74.64020248 47.93196411 75.75306122 47.50250244 76.89964294 C45.19046815 83.02723214 42.74862953 89.05461545 40 95 C38.1488527 92.22327905 37.16878958 89.99027156 36.06054688 86.87353516 C35.68675903 85.82880035 35.31297119 84.78406555 34.92785645 83.70767212 C34.52885132 82.57953094 34.12984619 81.45138977 33.71875 80.2890625 C33.30459839 79.12877533 32.89044678 77.96848816 32.46374512 76.77304077 C31.36344729 73.68860484 30.26660205 70.60297097 29.17156982 67.5166626 C27.63049611 63.17580123 26.08315467 58.83717051 24.53625488 54.49838257 C23.71348009 52.18949532 22.89206108 49.88012439 22.07214355 47.57022095 C21.69835571 46.51918182 21.32456787 45.4681427 20.93945312 44.38525391 C20.6123938 43.46386627 20.28533447 42.54247864 19.94836426 41.59317017 C19.01477499 39.04040015 18.02288062 36.51816328 17 34 C16.95363438 41.49314607 16.91810931 48.98627724 16.89637566 56.47953415 C16.88594392 59.95906394 16.87179599 63.43849549 16.84912109 66.91796875 C16.82320905 70.91928037 16.81352218 74.92048897 16.8046875 78.921875 C16.79436493 80.16990906 16.78404236 81.41794312 16.77340698 82.70379639 C16.77325592 83.86469788 16.77310486 85.02559937 16.77294922 86.22167969 C16.76628738 87.75390167 16.76628738 87.75390167 16.75949097 89.31707764 C16.86577502 92.34082879 16.86577502 92.34082879 19 96 C12.73 96 6.46 96 0 96 C0 95.01 0 94.02 0 93 C0.66 93 1.32 93 2 93 C2.04631499 81.46494117 2.08186498 69.92990441 2.10362434 58.39477158 C2.11406707 53.03870106 2.12823528 47.68269409 2.15087891 42.32666016 C2.17258972 37.15900293 2.18456494 31.99140689 2.18975449 26.82370758 C2.1934534 24.85091437 2.20067633 22.87812456 2.21146011 20.90535736 C2.22595155 18.14483876 2.22797892 15.38457388 2.22705078 12.62402344 C2.23424133 11.80618881 2.24143188 10.98835419 2.24884033 10.14573669 C2.2335901 5.9613902 1.91872196 3.83744393 0 0 Z " fill="#FCFDFC" transform="translate(372,126)"/>
<path d="M0 0 C2.96395259 2.29591146 5.77472981 4.66200509 8.52734375 7.20703125 C11.32158396 9.23318647 12.63037235 9.40387308 16 9 C15.35014905 13.71370756 13.48438608 17.57686444 11.4375 21.8125 C11.10814453 22.50537109 10.77878906 23.19824219 10.43945312 23.91210938 C9.63127749 25.61044948 8.81631623 27.30555769 8 29 C7.34 29 6.68 29 6 29 C5.814375 27.96875 5.62875 26.9375 5.4375 25.875 C3.73334273 19.94645289 -1.00408064 17.2474496 -6 14.125 C-12.63748811 11.64720466 -21.19408218 11.59670069 -27.796875 14.03125 C-34.52590086 18.09576227 -37.57148566 23.91708313 -40.1015625 31.1484375 C-42.70954315 42.32873717 -42.49862592 55.22507217 -37.484375 65.625 C-34.2838489 70.74584176 -30.92388872 75.12877164 -25 77 C-16.60064365 77.99944264 -9.24218052 77.55052821 -2 73 C-1.10474609 72.43925781 -1.10474609 72.43925781 -0.19140625 71.8671875 C4.07312653 68.77872491 5.03198491 65.93687698 6 61 C9 62 9 62 10.82421875 65.4921875 C11.45645873 66.94833599 12.07711137 68.40955756 12.6875 69.875 C13.00783203 70.60847656 13.32816406 71.34195313 13.65820312 72.09765625 C16 77.58015725 16 77.58015725 16 81 C15.30777344 80.90074219 14.61554688 80.80148438 13.90234375 80.69921875 C9.86713908 81.11740281 7.5629567 83.28930893 4.5625 85.8125 C-4.3379089 93.1613653 -12.38043915 95.95690501 -24 95 C-32.76544968 93.24691006 -38.90756666 89.57341492 -45 83 C-45.99 81.948125 -45.99 81.948125 -47 80.875 C-57.27408996 66.10599569 -59.44319775 47.18126639 -56.34375 29.734375 C-53.51346162 17.87644264 -48.27831852 7.00883434 -38 0 C-25.93265099 -7.16567537 -12.1824675 -7.21070374 0 0 Z " fill="#F9FBF8" transform="translate(204,129)"/>
<path d="M0 0 C26.08545035 0 26.08545035 0 32.20703125 4.69140625 C32.73683594 5.30886719 33.26664062 5.92632812 33.8125 6.5625 C34.35519531 7.16191406 34.89789063 7.76132813 35.45703125 8.37890625 C39.93424732 15.98450621 40.55458476 24.1577069 40.5 32.8125 C40.49427979 33.86550293 40.48855957 34.91850586 40.48266602 36.00341797 C40.27728531 44.96686794 39.29374878 53.02037888 33.21484375 60.0703125 C23.49950776 68.93993983 15.15000471 65 0 65 C0 43.55 0 22.1 0 0 Z " fill="#067505" transform="translate(277,141)"/>
<path d="M0 0 C3.1875 0.3125 3.1875 0.3125 5.5 2.125 C8.80598545 6.4105367 8.81633733 11.11352096 8.1875 16.3125 C6.33055749 20.31206849 5.33392404 21.88259099 1.1875 23.4375 C-1.8125 23.3125 -1.8125 23.3125 -4.0625 21.6875 C-7.51149784 17.00671722 -8.42539907 13.1350412 -7.8125 7.3125 C-3.86085165 0.42898352 -3.86085165 0.42898352 0 0 Z " fill="#F5F9F5" transform="translate(350.8125,200.6875)"/>
<path d="M0 0 C3.6025741 0.67548264 4.75005199 1.72923213 7 4.5625 C8.85777259 8.27804519 8.44088954 12.50755816 8 16.5625 C6.16793186 20.57895708 5.121838 22.08512213 1.0625 23.8125 C-2 23.5625 -2 23.5625 -4.875 21.375 C-8.26952755 16.6951659 -7.8215541 11.0523241 -7 5.5625 C-5.06539801 1.69329601 -4.23475935 0.79401738 0 0 Z " fill="#F7FBF7" transform="translate(475,200.4375)"/>
<path d="M0 0 C3.5 0.6875 3.5 0.6875 5.9375 3.0625 C7.97271119 7.78418996 8.30472057 11.62104501 7.5 16.6875 C5.65168961 20.73956508 4.67840595 22.24559777 0.5 23.8125 C-2.5 23.6875 -2.5 23.6875 -4.8125 21.9375 C-8.42981613 17.11441182 -8.09095375 11.47040451 -7.5 5.6875 C-5.47683178 1.56023682 -4.50481981 0.88487532 0 0 Z " fill="#F8FBF8" transform="translate(239.5,200.3125)"/>
</svg>
