<?xml version="1.0" encoding="UTF-8"?>
<svg id="Camada_1" data-name="Camada 1" xmlns="http://www.w3.org/2000/svg" viewBox="0 0 500 500">
  <defs>
    <style>
      .cls-1, .cls-2 {
        fill: #fff;
      }

      .cls-3 {
        fill: #da3c2e;
      }

      .cls-2 {
        fill-rule: evenodd;
      }

      .cls-4 {
        fill: #005ca8;
      }

      .cls-5 {
        fill: #782168;
      }

      .cls-6 {
        fill: #a0d9f7;
      }

      .cls-7 {
        fill: #a68b4b;
      }
    </style>
  </defs>
  <polyline class="cls-1" points="216.99 209.62 84.13 154.54 76.36 154.54 76.36 277.33 216.99 277.33 216.99 212.21"/>
  <polygon class="cls-6" points="214.96 259.36 214.96 276.31 201.55 276.31 77.96 168 77.96 152.04 108.22 165.92 214.96 259.36"/>
  <polyline class="cls-1" points="216.99 332.19 77.81 332.19 77.81 459.82 216.99 402.09"/>
  <rect class="cls-1" x="66.83" y="150.54" width="8.95" height="324.56"/>
  <g>
    <path class="cls-7" d="M126.53,436.49l-47.52,19.75V159.16l-.06-5.16,47.61,19.78,3.12-4.23-45.55-18.49-2.39-1c1.11-.72,1.85-1.97,1.85-3.39v-2.3c0-2.23-1.82-4.05-4.05-4.05h-15.33c-2.22,0-4.05,1.82-4.05,4.05v2.3c0,2.17,1.74,3.95,3.89,4.03V482.29l14.95-7.2v-13.32l51.01-21.13-3.49-4.15Zm-57.35,37.36V150.73h4.7V471.24l-4.7,2.61Z"/>
    <path class="cls-7" d="M347.53,86.77c0-1.31-.45-2.5-1.21-3.44,1.26-1.01,2.08-2.56,2.08-4.31,0-2.1-1.18-3.92-2.9-4.85,.61-.88,.96-1.95,.96-3.08,0-2.64-1.84-4.83-4.29-5.4,.14-.48,.22-.99,.22-1.51,0-3.04-2.5-5.51-5.53-5.51-.41,0-.8,.05-1.18,.13,0-3.04-2.46-5.49-5.49-5.49-.88,0-1.7,.21-2.44,.57h0c0-3.04-2.49-5.51-5.52-5.51-1.26,0-2.42,.43-3.35,1.14-.85-1.94-2.77-3.29-5.04-3.29-2.05,0-3.83,1.12-4.78,2.78-.19-2.34-2.11-4.2-4.53-4.2-1.99,0-3.65,1.26-4.28,3.01-.47-2.03-2.27-3.54-4.46-3.54-1.58,0-2.98,.81-3.8,2.04-.87-1.23-2.3-2.03-3.92-2.03l-.2,.02c-.23-2.42-2.25-4.32-4.7-4.32-.62,0-1.2,.12-1.74,.33-.55-1.56-2.04-2.68-3.76-2.68-1.09,0-2.08,.43-2.8,1.13-.49-1.65-1.99-2.86-3.82-2.86-1.08,0-2.05,.43-2.77,1.12-.5-1.63-2.01-2.84-3.85-2.84-1.07,0-2.04,.43-2.76,1.13-.5-1.64-2.02-2.85-3.85-2.85-1.34,0-2.51,.68-3.23,1.7h-2.54c-.11-3.42-2.22-6.34-5.2-7.59v-5.87h6.54v-6.54h-6.54V7.59h-6.54v6.55h-6.54v6.54h6.54v5.89c-2.99,1.26-5.1,4.17-5.2,7.57h-2.74c-.73-1.02-1.91-1.7-3.26-1.7-1.8,0-3.32,1.22-3.83,2.85-.72-.69-1.69-1.12-2.77-1.12-1.8,0-3.33,1.21-3.84,2.84-.72-.69-1.7-1.12-2.78-1.12-1.81,0-3.32,1.21-3.81,2.85-.71-.69-1.69-1.12-2.77-1.12-1.76,0-3.25,1.12-3.79,2.68-.53-.21-1.1-.33-1.71-.33-2.47,0-4.5,1.91-4.73,4.33l-.21-.02c-1.6,0-3.02,.81-3.89,2.04-.81-1.24-2.21-2.05-3.8-2.05-2.18,0-4.02,1.53-4.48,3.57-.63-1.77-2.3-3.04-4.3-3.04-2.33,0-4.28,1.82-4.52,4.13-.97-1.62-2.75-2.71-4.8-2.71-2.24,0-4.16,1.35-5.01,3.29-.93-.71-2.1-1.14-3.36-1.14-3.02,0-5.53,2.47-5.53,5.51h0c-.73-.35-1.55-.56-2.41-.56-3.08,0-5.51,2.45-5.51,5.49-.38-.08-.77-.13-1.17-.13-3.05,0-5.48,2.46-5.48,5.51,0,.52,.07,1.02,.21,1.5-2.46,.55-4.3,2.75-4.3,5.41,0,1.14,.35,2.2,.95,3.08-1.72,.93-2.88,2.75-2.88,4.85,0,1.75,.8,3.3,2.05,4.31-.74,.94-1.19,2.13-1.19,3.44,0,1.86,.93,3.52,2.36,4.52-.4,.77-.63,1.64-.63,2.56,0,2.29,1.38,4.24,3.33,5.08-.45,.81-.71,1.74-.71,2.72,0,.75,.15,1.46,.42,2.11-1.85,1.45-3.52,3.57-2.98,6.31,1.04,5.58,9.02,2.58,10.48,3.86,1.54,1.27,2.2,4.52,4.34,7.1,2.15,2.58,4.08,2.13,4.95,3.45,.87,1.28-.36,4.05,.78,5.85,1.19,1.85,3.99,.88,5.03,2.96,1.6,3.19,4.97,11.91,4.97,11.91,0,0,37.71-12.27,70.71-12.27,37.77,0,72.92,11.73,72.92,11.73,0,0,3.16-8.18,4.77-11.37,1-2.09,3.83-1.11,5.01-2.96,1.12-1.8-.07-4.57,.79-5.85,.85-1.31,2.8-.87,4.92-3.45,2.16-2.59,2.82-5.83,4.32-7.1,1.5-1.27,9.47,1.72,10.53-3.86,.53-2.73-1.14-4.84-2.99-6.29,.28-.66,.43-1.37,.43-2.12,0-.99-.27-1.92-.72-2.72,1.98-.84,3.36-2.79,3.36-5.08,0-.93-.23-1.81-.64-2.57,1.42-1,2.37-2.65,2.37-4.51M186.86,50.37v-.02s0,.02,0,.02h0Z"/>
    <path class="cls-3" d="M158.79,118.02c0-1.36,1.11-2.47,2.46-2.47s2.47,1.11,2.47,2.47-1.09,2.47-2.47,2.47-2.46-1.11-2.46-2.47"/>
    <path class="cls-3" d="M142.83,86.75c0-1.37,1.13-2.48,2.48-2.48s2.45,1.11,2.45,2.48-1.1,2.46-2.45,2.46-2.48-1.09-2.48-2.46"/>
    <path class="cls-3" d="M141.97,79c0-1.36,1.12-2.47,2.48-2.47s2.46,1.11,2.46,2.47-1.1,2.48-2.46,2.48-2.48-1.1-2.48-2.48"/>
    <path class="cls-3" d="M143.92,71.06c0-1.37,1.1-2.49,2.47-2.49s2.45,1.12,2.45,2.49-1.08,2.45-2.45,2.45-2.47-1.08-2.47-2.45"/>
    <path class="cls-3" d="M148,64.15c0-1.33,1.11-2.45,2.46-2.45s2.51,1.12,2.51,2.45-1.13,2.49-2.51,2.49-2.46-1.11-2.46-2.49"/>
    <path class="cls-3" d="M154.67,58.79c0-1.35,1.11-2.49,2.46-2.49s2.48,1.14,2.48,2.49-1.11,2.47-2.48,2.47-2.46-1.1-2.46-2.47"/>
    <path class="cls-3" d="M162.61,53.85c0-1.35,1.11-2.46,2.47-2.46s2.5,1.11,2.5,2.46-1.13,2.47-2.5,2.47-2.47-1.1-2.47-2.47"/>
    <path class="cls-3" d="M170.96,51.7c0-1.35,1.18-2.47,2.48-2.47,1.42,0,2.48,1.12,2.48,2.47s-1.06,2.46-2.48,2.46c-1.31,0-2.48-1.11-2.48-2.46"/>
    <path class="cls-3" d="M193.64,55.91c0-1.22,.99-2.16,2.12-2.16,1.21,0,2.18,.93,2.18,2.16,0,1.15-.96,2.11-2.18,2.11-1.13,0-2.12-.96-2.12-2.11"/>
    <path class="cls-3" d="M190.43,63.62c0-1.18,.92-2.14,2.12-2.14s2.16,.96,2.16,2.14-.96,2.14-2.16,2.14-2.12-.97-2.12-2.14"/>
    <path class="cls-3" d="M190.43,72.23c0-1.18,.92-2.15,2.12-2.15s2.16,.96,2.16,2.15-.96,2.16-2.16,2.16-2.12-.97-2.12-2.16"/>
    <path class="cls-3" d="M197.72,95.11c0-1.36,1.08-2.47,2.45-2.47s2.48,1.11,2.48,2.47-1.11,2.49-2.48,2.49-2.45-1.13-2.45-2.49"/>
    <path class="cls-3" d="M219.68,93.86c0-1.37,1.08-2.46,2.46-2.46s2.48,1.09,2.48,2.46-1.11,2.46-2.48,2.46-2.46-1.11-2.46-2.46"/>
    <path class="cls-3" d="M147.21,101.63c0-1.38,1.08-2.47,2.44-2.47s2.51,1.09,2.51,2.47-1.1,2.47-2.51,2.47-2.44-1.13-2.44-2.47"/>
    <path class="cls-3" d="M227.66,36.43c0-1.01,.82-1.8,1.82-1.8s1.81,.79,1.81,1.8-.82,1.81-1.81,1.81-1.82-.8-1.82-1.81"/>
    <path class="cls-3" d="M202.03,44.71c0-1.18,.95-2.14,2.14-2.14s2.15,.96,2.15,2.14-.95,2.14-2.15,2.14-2.14-.95-2.14-2.14"/>
    <path class="cls-3" d="M214.45,39.86c0-.96,.8-1.78,1.81-1.78s1.8,.82,1.8,1.78c0,1.03-.79,1.83-1.8,1.83s-1.81-.8-1.81-1.83"/>
    <path class="cls-3" d="M221.06,38.14c0-.99,.78-1.8,1.82-1.8s1.78,.81,1.78,1.8-.79,1.82-1.78,1.82-1.82-.8-1.82-1.82"/>
    <path class="cls-3" d="M180.28,49.47c0-1.4,1.05-2.48,2.44-2.48s2.48,1.08,2.48,2.48-1.09,2.47-2.48,2.47-2.44-1.11-2.44-2.47"/>
    <path class="cls-3" d="M188.98,48.92c0-1.36,1.11-2.45,2.5-2.45s2.47,1.09,2.47,2.45-1.09,2.5-2.47,2.5-2.5-1.11-2.5-2.5"/>
    <path class="cls-3" d="M207.85,41.59c0-.99,.8-1.8,1.82-1.8,.96,0,1.77,.81,1.77,1.8s-.8,1.8-1.77,1.8c-1.02,0-1.82-.8-1.82-1.8"/>
    <path class="cls-3" d="M177.56,103.16c0-1.34,1.11-2.46,2.47-2.46s2.47,1.12,2.47,2.46-1.11,2.5-2.47,2.5-2.47-1.11-2.47-2.5"/>
    <path class="cls-3" d="M323.94,118.02c0-1.36,1.12-2.47,2.48-2.47s2.47,1.11,2.47,2.47-1.13,2.47-2.47,2.47-2.48-1.11-2.48-2.47"/>
    <path class="cls-3" d="M339.9,86.75c0-1.37,1.11-2.48,2.47-2.48s2.47,1.11,2.47,2.48-1.11,2.46-2.47,2.46-2.47-1.09-2.47-2.46"/>
    <path class="cls-3" d="M338.8,71.06c0-1.37,1.13-2.49,2.49-2.49s2.48,1.12,2.48,2.49-1.12,2.45-2.48,2.45-2.49-1.08-2.49-2.45"/>
    <path class="cls-3" d="M334.74,64.15c0-1.33,1.1-2.45,2.48-2.45s2.45,1.12,2.45,2.45-1.07,2.49-2.45,2.49-2.48-1.11-2.48-2.49"/>
    <path class="cls-3" d="M328.06,58.79c0-1.35,1.12-2.49,2.46-2.49,1.4,0,2.51,1.14,2.51,2.49s-1.1,2.47-2.51,2.47-2.46-1.1-2.46-2.47"/>
    <path class="cls-3" d="M320.1,53.85c0-1.35,1.13-2.46,2.5-2.46s2.49,1.11,2.49,2.46-1.11,2.47-2.49,2.47-2.5-1.1-2.5-2.47"/>
    <path class="cls-3" d="M311.73,51.7c0-1.35,1.11-2.47,2.46-2.47s2.5,1.12,2.5,2.47-1.13,2.46-2.5,2.46-2.46-1.11-2.46-2.46"/>
    <path class="cls-3" d="M289.77,55.91c0-1.22,.93-2.16,2.12-2.16s2.14,.93,2.14,2.16c0,1.15-.96,2.11-2.14,2.11s-2.12-.96-2.12-2.11"/>
    <path class="cls-3" d="M292.97,63.62c0-1.18,.96-2.14,2.19-2.14,1.13,0,2.1,.96,2.1,2.14s-.97,2.14-2.1,2.14c-1.24,0-2.19-.97-2.19-2.14"/>
    <path class="cls-3" d="M292.97,72.23c0-1.18,.96-2.15,2.19-2.15,1.13,0,2.1,.96,2.1,2.15s-.97,2.16-2.1,2.16c-1.24,0-2.19-.97-2.19-2.16"/>
    <path class="cls-3" d="M285.02,95.11c0-1.36,1.11-2.47,2.5-2.47s2.43,1.11,2.43,2.47-1.1,2.49-2.43,2.49-2.5-1.13-2.5-2.49"/>
    <path class="cls-3" d="M263.06,93.86c0-1.37,1.13-2.46,2.49-2.46s2.44,1.09,2.44,2.46-1.07,2.46-2.44,2.46-2.49-1.11-2.49-2.46"/>
    <path class="cls-3" d="M335.53,101.63c0-1.38,1.11-2.47,2.45-2.47s2.51,1.09,2.51,2.47-1.13,2.47-2.51,2.47-2.45-1.13-2.45-2.47"/>
    <path class="cls-3" d="M256.44,36.43c0-1.01,.75-1.8,1.77-1.8s1.8,.79,1.8,1.8-.81,1.81-1.8,1.81-1.77-.8-1.77-1.81"/>
    <path class="cls-3" d="M281.38,44.71c0-1.18,.94-2.14,2.1-2.14s2.16,.96,2.16,2.14-.97,2.14-2.16,2.14-2.1-.95-2.1-2.14"/>
    <path class="cls-3" d="M269.61,39.86c0-.96,.82-1.78,1.8-1.78s1.83,.82,1.83,1.78c0,1.03-.83,1.83-1.83,1.83s-1.8-.8-1.8-1.83"/>
    <path class="cls-3" d="M263.02,38.14c0-.99,.8-1.8,1.82-1.8s1.77,.81,1.77,1.8-.8,1.82-1.77,1.82-1.82-.8-1.82-1.82"/>
    <path class="cls-3" d="M302.44,49.47c0-1.4,1.13-2.48,2.49-2.48s2.47,1.08,2.47,2.48-1.08,2.47-2.47,2.47-2.49-1.11-2.49-2.47"/>
    <path class="cls-3" d="M293.73,48.92c0-1.36,1.12-2.45,2.48-2.45s2.5,1.09,2.5,2.45-1.11,2.5-2.5,2.5-2.48-1.11-2.48-2.5"/>
    <path class="cls-3" d="M286.29,49.02c0-1.21,.98-2.15,2.14-2.15s2.17,.94,2.17,2.15-.97,2.12-2.17,2.12-2.14-.96-2.14-2.12"/>
    <path class="cls-3" d="M276.23,41.59c0-.99,.78-1.8,1.81-1.8s1.76,.81,1.76,1.8-.79,1.8-1.76,1.8c-1.03,0-1.81-.8-1.81-1.8"/>
    <path class="cls-3" d="M305.18,103.16c0-1.34,1.1-2.46,2.46-2.46s2.48,1.12,2.48,2.46-1.11,2.5-2.48,2.5-2.46-1.11-2.46-2.5"/>
    <path class="cls-3" d="M241.06,92.15c0-1.34,1.11-2.46,2.45-2.46s2.51,1.12,2.51,2.46-1.12,2.48-2.51,2.48-2.45-1.1-2.45-2.48"/>
    <path class="cls-3" d="M241.06,70.45c0-1.37,1.11-2.46,2.45-2.46s2.51,1.09,2.51,2.46-1.12,2.47-2.51,2.47-2.45-1.07-2.45-2.47"/>
    <path class="cls-3" d="M241.06,64.41c0-1.36,1.11-2.47,2.45-2.47s2.51,1.11,2.51,2.47-1.12,2.47-2.51,2.47-2.45-1.1-2.45-2.47"/>
    <path class="cls-3" d="M241.06,58.35c0-1.34,1.11-2.44,2.45-2.44s2.51,1.1,2.51,2.44-1.12,2.47-2.51,2.47-2.45-1.08-2.45-2.47"/>
    <path class="cls-3" d="M241.06,52.31c0-1.37,1.11-2.48,2.45-2.48s2.51,1.11,2.51,2.48-1.12,2.46-2.51,2.46-2.45-1.08-2.45-2.46"/>
    <path class="cls-3" d="M241.06,46.25c0-1.36,1.11-2.45,2.45-2.45s2.51,1.09,2.51,2.45-1.12,2.48-2.51,2.48-2.45-1.09-2.45-2.48"/>
    <path class="cls-3" d="M241.76,34.11c0-1,.77-1.8,1.79-1.8,.96,0,1.78,.8,1.78,1.8s-.83,1.81-1.78,1.81c-1.02,0-1.79-.8-1.79-1.81"/>
    <path class="cls-3" d="M241.06,40.2c0-1.34,1.11-2.46,2.45-2.46s2.51,1.12,2.51,2.46-1.12,2.48-2.51,2.48-2.45-1.1-2.45-2.48"/>
    <path class="cls-3" d="M165.16,117.97s4.72,.94,8.35,.08c3.67-.86,4.55-7.81,7.76-8.9,3.27-1.09,11.07,.79,13.86-.32,2.81-1.04,4.98-8.57,6.91-9,1.92-.43,5.72,5.64,10.22,5.38,4.56-.24,5.82-5.67,8.61-6.11,2.79-.41,7.96,3.79,12.52,4.09,4.79,.27,10.14-7.58,10.14-7.58v.35c.44,.57,6.19,7.49,10.8,7.23,4.58-.3,9.74-4.51,12.57-4.09,2.76,.44,4.03,5.86,8.59,6.11,4.48,.25,8.3-5.81,10.2-5.38,1.96,.44,4.12,7.97,6.9,9,2.84,1.11,10.62-.77,13.88,.32,3.23,1.09,4.11,8.04,7.71,8.9,3.7,.86,8.4-.08,8.4-.08l.59,4.31s-6.47,.14-10.12-1.36c-3.66-1.5-4.89-6.84-7.44-7.68-2.59-.87-8.17,.65-11.64,0-3.45-.66-7.71-6.02-9.43-6.66-1.71-.65-5.15,3.66-10.6,2.57-5.33-1.09-7.61-5.58-9.11-5.8-1.51-.19-7.82,3.87-11.08,3.65-3.09-.2-9.75-3.61-10.24-3.88,0,.03-6.39,3.67-9.56,3.88-3.23,.21-9.59-3.84-11.08-3.65-1.5,.22-3.8,4.71-9.16,5.8-5.35,1.09-8.82-3.23-10.52-2.57-1.74,.64-6.01,6-9.47,6.66-3.44,.65-9.04-.87-11.63,0-2.58,.84-3.76,6.19-7.42,7.68-3.69,1.51-10.14,1.36-10.14,1.36l.59-4.31Z"/>
    <path class="cls-3" d="M243.52,83.9c-.99,.44-2.69,2.1-4.43,2.1-2.1,0-3.99-3.6-2.85-4.78,1.21-1.19,3.74-.3,4.64-1.95,.85-1.58-.18-4.27,2.64-3.93,2.87-.35,1.81,2.35,2.7,3.93,.9,1.66,3.43,.76,4.6,1.95,1.22,1.18-.73,4.78-2.83,4.78-1.74,0-3.4-1.66-4.47-2.1"/>
    <path class="cls-3" d="M322.05,127.99c1.42,4.1-22.42-8.01-40.29-12.01-15.76-3.55-33.83-3.88-37.86-3.9-4.05,.02-22.17,.32-37.88,3.83-17.9,3.97-41.76,16.03-40.27,11.94,.68-2.1,18.79-10.5,39.26-15.12,14.38-2.95,33.26-3.65,38.25-3.78l.65-.03h.62c4.98,.17,23.85,.91,38.21,3.88,20.51,4.66,38.57,13.09,39.32,15.2"/>
    <path class="cls-3" d="M173.83,56.59c-.43,1.97-17.86,5.15-19.87,18-2.05,12.84,10.35,19.19,10.35,19.19,0,0,2.05,1.19,0,3.43-2.06,2.2-6.51-.7-6.51-.7,0,0-10.66-6.34-8.61-21.47,2.04-15.11,25.1-20.43,24.64-18.45"/>
    <path class="cls-3" d="M175.95,61.73s-11.97,4.26-14.89,9.91c-2.93,5.67,1.37,16.73,1.37,16.73,0,0,2.6-1.94,4.39-2.4,1.82-.46,4.14,.36,6.62-.1,2.5-.46,3.62-6.28,3.62-6.28,0,0-1.66-8.57-1.66-10.38,0-2.81,.54-7.48,.54-7.48"/>
    <path class="cls-3" d="M168.94,88.11c.91-.69,3.61,.7,5.43-.2,1.79-.92,3.61-2.74,3.61-2.74,0,0,.21-.46,1.77,.68,1.56,1.14,3.64,3.17,4.09,4.77,.42,1.58-1.81,0-2.28,1.38-.47,1.32,0,3.38,0,3.38,0,0-5.13,3.78-7.41,4.02-2.28,.22-3.84-1.52-5.21-4.02-1.36-2.48,.42-2.06,.91-2.95,.46-.9-1.82-3.61-.91-4.31"/>
    <path class="cls-3" d="M169.23,103.38c.13,.88,.13,4.7,.13,4.7,0,0,1.94,1.51,2.07,2.27,.14,.74-.66,1.97-1.23,2.41-.52,.45-5.36,.57-5.92,.15-.57-.42,.73-3.83,.16-4.47-.57-.65-3.55,.2-3.83-.42-.28-.65,.64-4.54,1.2-4.92,.62-.39,3.39,0,3.75,0,.34,0,3.49-1.2,3.67,.28"/>
    <path class="cls-3" d="M214.35,92.39c-.57,.72-3.23,3.48-3.23,3.48,0,0,.38,2.4-.04,3.05-.45,.63-1.9,.95-2.57,.92-.66-.09-4.25-3.36-4.39-4.03-.09-.68,3.16-2.26,3.23-3.11,.04-.88-2.7-2.3-2.48-2.96,.28-.64,3.61-2.82,4.31-2.7,.71,.14,2.42,2.36,2.65,2.55,.26,.26,3.36,1.61,2.51,2.8"/>
    <path class="cls-3" d="M186.91,101.15c.03-.92,.78-4.67,.78-4.67,0,0-1.64-1.81-1.6-2.6,0-.76,1.04-1.8,1.62-2.12,.7-.35,5.41,.45,5.88,.95,.48,.54-1.43,3.64-1.01,4.35,.43,.76,3.51,.47,3.67,1.16,.16,.68-1.45,4.29-2.11,4.6-.64,.26-3.31-.65-3.63-.68-.35-.08-3.68,.48-3.61-.99"/>
    <path class="cls-3" d="M194,80.89c.88,.22,4.4,1.69,4.4,1.69,0,0,2.11-1.18,2.88-1,.75,.18,1.53,1.38,1.74,2.06,.17,.66-1.58,5.19-2.19,5.51-.57,.35-3.26-2.12-4.06-1.87-.8,.28-1.14,3.33-1.85,3.36-.71,0-3.94-2.34-4.08-3.05-.11-.71,1.33-3.09,1.46-3.41,.11-.31,.26-3.71,1.7-3.3"/>
    <path class="cls-3" d="M228.73,48.12s-13.11,4.74-17.41,11.4c-4.34,6.71-1.71,15.47-1.71,15.47,0,0,6.58-.61,8.36-1.06,1.8-.48,4.18,.34,6.68-.1,2.47-.46,3.55-6.29,3.55-6.29,0,0-.33-7.27-.33-9.09,0-2.81,.85-10.34,.85-10.34"/>
    <path class="cls-3" d="M229.18,42.82c-1.87,1.91-22.73,11-24.72,21.27-2.02,10.43,8.25,15.07,6.15,17.97-1.25,1.77-13.47-2.26-9.9-19.11,3.58-16.86,30.33-22.05,28.48-20.13"/>
    <path class="cls-3" d="M212.32,83.62c.11-1.44,1.62-.25,2.1-1.78,.43-1.52-.82-4.99-.55-5.51,.26-.54,5.44,1.28,7.46,.92,1.98-.4,1.64-1.72,3.41-2.26,1.8-.54,5.67,6.11,4.7,8.11-1,1.98-4.32,5.38-4.32,5.38,0,0-5.34,2.18-7.73,1.16-2.44-.98-5.13-4.56-5.06-6.01"/>
    <path class="cls-3" d="M178.31,67.85c-.35,11.54,4.25,20.11,7.42,18.46,2.92-1.52-4.31-7.19-4.11-17.1,.24-11.09,7.28-17.37,5.46-18.06-1.79-.67-8.6,7.17-8.77,16.69"/>
    <path class="cls-3" d="M227.25,96.59c.05-.91,.79-4.67,.79-4.67,0,0-1.62-1.84-1.6-2.6,.04-.76,1.05-1.83,1.64-2.14,.64-.32,5.42,.43,5.89,.97,.44,.53-1.44,3.62-1.02,4.37,.42,.74,3.5,.45,3.67,1.14,.16,.69-1.48,4.3-2.14,4.56-.65,.31-3.32-.61-3.63-.69-.36-.04-3.66,.51-3.6-.94"/>
    <path class="cls-3" d="M233.02,36.77c.7-.36,1.19,.31,1.92,2.43,.88,2.87-3.65,17.42-3.65,22.3s2.92,14.12,1.37,17.07c-1.58,2.95-2.96-15.7-3.29-19.18-.36-3.48,3.54-16.61,3.16-19.21-.33-2.61-.25-3.05,.48-3.42"/>
    <path class="cls-3" d="M237.65,48.9c.91,2.08-1.32,1.95-1.19,13.32,.16,11.38,1.64,8.66,1.05,12.71-.59,4.03-4.18-10.61-4.18-14.37s3.45-13.74,4.32-11.66"/>
    <path class="cls-3" d="M311.04,56.59c.47,1.97,17.85,5.15,19.89,18,2.05,12.84-10.35,19.19-10.35,19.19,0,0-2.03,1.19,0,3.43,2.01,2.2,6.47-.7,6.47-.7,0,0,10.68-6.34,8.65-21.47-2.04-15.11-25.08-20.43-24.66-18.45"/>
    <path class="cls-3" d="M310.62,61.73s11.95,4.26,14.89,9.91c2.95,5.67-1.39,16.73-1.39,16.73,0,0-2.58-1.94-4.36-2.4-1.82-.46-4.18,.36-6.65-.1-2.48-.46-3.59-6.28-3.59-6.28,0,0,1.61-8.57,1.61-10.38,0-2.81-.51-7.48-.51-7.48"/>
    <path class="cls-3" d="M317.62,88.11c-.88-.69-3.61,.7-5.45-.2-1.81-.92-3.57-2.74-3.57-2.74,0,0-.18-.46-1.77,.68-1.62,1.14-3.65,3.17-4.13,4.77-.46,1.58,1.85,0,2.3,1.38,.45,1.32,0,3.38,0,3.38,0,0,5.13,3.78,7.43,4.02,2.26,.22,3.83-1.52,5.19-4.02,1.36-2.48-.46-2.06-.88-2.95-.48-.9,1.78-3.61,.88-4.31"/>
    <path class="cls-3" d="M315.65,103.38c-.12,.88-.15,4.7-.15,4.7,0,0-1.93,1.51-2.05,2.27-.13,.74,.66,1.97,1.22,2.41,.53,.45,5.36,.57,5.92,.15,.57-.42-.7-3.83-.15-4.47,.57-.65,3.55,.2,3.84-.42,.27-.65-.62-4.54-1.21-4.92-.61-.39-3.37,0-3.71,0-.32,0-3.49-1.2-3.69,.28"/>
    <path class="cls-3" d="M272.21,92.39c.55,.72,3.17,3.48,3.17,3.48,0,0-.35,2.4,.1,3.05,.43,.63,1.86,.95,2.55,.92,.71-.09,4.28-3.36,4.37-4.03,.11-.68-3.16-2.26-3.17-3.11-.09-.88,2.65-2.3,2.43-2.96-.28-.64-3.57-2.82-4.31-2.7-.67,.14-2.41,2.36-2.66,2.55-.25,.26-3.33,1.61-2.48,2.8"/>
    <path class="cls-3" d="M299.67,101.15c-.05-.92-.8-4.67-.8-4.67,0,0,1.61-1.81,1.61-2.6-.03-.76-1.07-1.8-1.65-2.12-.62-.35-5.42,.45-5.86,.95-.5,.54,1.4,3.64,1.01,4.35-.45,.76-3.52,.47-3.67,1.16-.19,.68,1.46,4.29,2.15,4.6,.62,.26,3.27-.65,3.58-.68,.32-.08,3.65,.48,3.63-.99"/>
    <path class="cls-3" d="M292.57,80.89c-.88,.22-4.39,1.69-4.39,1.69,0,0-2.15-1.18-2.88-1-.77,.18-1.56,1.38-1.74,2.06-.23,.66,1.55,5.19,2.15,5.51,.58,.35,3.26-2.12,4.08-1.87,.77,.28,1.15,3.33,1.85,3.36,.68,0,3.92-2.34,4.06-3.05,.14-.71-1.33-3.09-1.45-3.41-.09-.31-.28-3.71-1.68-3.3"/>
    <path class="cls-3" d="M257.82,48.12s13.11,4.74,17.46,11.4c4.29,6.71,1.65,15.47,1.65,15.47,0,0-6.51-.61-8.33-1.06-1.82-.48-4.18,.34-6.68-.1-2.5-.46-3.56-6.29-3.56-6.29,0,0,.32-7.27,.32-9.09,0-2.81-.85-10.34-.85-10.34"/>
    <path class="cls-3" d="M257.41,42.82c1.84,1.91,22.69,11,24.69,21.27,2.04,10.43-8.25,15.07-6.17,17.97,1.26,1.77,13.48-2.26,9.92-19.11-3.58-16.86-30.35-22.05-28.44-20.13"/>
    <path class="cls-3" d="M274.2,83.62c-.09-1.44-1.62-.25-2.04-1.78-.44-1.52,.81-4.99,.54-5.51-.28-.54-5.47,1.28-7.46,.92-1.97-.4-1.6-1.72-3.39-2.26-1.83-.54-5.69,6.11-4.69,8.11,1,1.98,4.32,5.38,4.32,5.38,0,0,5.26,2.18,7.71,1.16,2.43-.98,5.15-4.56,5.02-6.01"/>
    <path class="cls-3" d="M308.4,67.85c.28,11.54-4.31,20.11-7.5,18.46-2.94-1.52,4.31-7.19,4.1-17.1-.23-11.09-7.25-17.37-5.41-18.06,1.79-.67,8.6,7.17,8.81,16.69"/>
    <path class="cls-3" d="M259.29,96.59c-.04-.91-.8-4.67-.8-4.67,0,0,1.62-1.84,1.61-2.6-.04-.76-1.02-1.83-1.65-2.14-.6-.32-5.39,.43-5.87,.97-.44,.53,1.47,3.62,1.02,4.37-.44,.74-3.52,.45-3.69,1.14-.15,.69,1.49,4.3,2.15,4.56,.66,.31,3.32-.61,3.63-.69,.32-.04,3.65,.51,3.59-.94"/>
    <path class="cls-3" d="M253.52,36.77c-.69-.36-1.19,.31-1.88,2.43-.91,2.87,3.62,17.42,3.62,22.3s-2.93,14.12-1.35,17.07c1.55,2.95,2.89-15.7,3.27-19.18,.36-3.48-3.55-16.61-3.17-19.21,.36-2.61,.23-3.05-.5-3.42"/>
    <path class="cls-3" d="M248.86,48.9c-.82,2.08,1.37,1.95,1.24,13.32-.16,11.38-1.63,8.66-1.08,12.71,.64,4.03,4.22-10.61,4.22-14.37s-3.47-13.74-4.38-11.66"/>
    <path class="cls-3" d="M144.55,93.83c0-1.37,1.11-2.48,2.47-2.48s2.5,1.11,2.5,2.48-1.13,2.47-2.5,2.47-2.47-1.11-2.47-2.47"/>
    <path class="cls-1" d="M168.46,130.61l5.91,12.78s29.37-11.9,68.77-11.9c42.23,0,69.59,11.79,69.59,11.79l7.07-12.75s-33.04-15.84-76.02-15.82c-42.41,.03-74.98,15.77-74.98,15.77"/>
    <polygon class="cls-3" points="243.72 115.45 233.11 121.9 243.72 127.82 253.94 121.9 243.72 115.45"/>
    <path class="cls-7" d="M243.73,128.38l-11.67-6.44,11.67-7.51,11.66,7.51-11.66,6.43Zm-8.75-6.54l8.75,4.83,8.75-4.82-8.75-5.64-8.75,5.63Z"/>
    <polygon class="cls-3" points="320.07 131.19 307.77 132.92 315.18 142.55 326.9 141.16 320.07 131.19"/>
    <path class="cls-7" d="M314.96,143.08l-8.17-10.53,13.68-2.28,7.74,11.51-13.26,1.3Zm-5.45-9.46l6.13,7.9,9.94-.97-5.81-8.64-10.26,1.71Z"/>
    <path class="cls-4" d="M296.76,130.66c0-1.9,1.52-3.41,3.4-3.41s3.44,1.51,3.44,3.41-1.54,3.42-3.44,3.42-3.4-1.55-3.4-3.42"/>
    <path class="cls-4" d="M259.41,122.66c0-1.91,1.55-3.43,3.41-3.43s3.37,1.52,3.37,3.43-1.49,3.38-3.37,3.38-3.41-1.51-3.41-3.38"/>
    <path class="cls-4" d="M184.34,130.67c0-1.88,1.52-3.42,3.44-3.42s3.37,1.53,3.37,3.42-1.5,3.41-3.37,3.41-3.44-1.52-3.44-3.41"/>
    <path class="cls-4" d="M221.53,122.64c0-1.9,1.52-3.43,3.4-3.43s3.4,1.53,3.4,3.43-1.52,3.41-3.4,3.41-3.4-1.51-3.4-3.41"/>
    <path class="cls-3" d="M338.16,93.83c0-1.37,1.13-2.48,2.47-2.48s2.49,1.11,2.49,2.48-1.1,2.47-2.49,2.47-2.47-1.11-2.47-2.47"/>
    <path class="cls-3" d="M340.75,79c0-1.36,1.11-2.47,2.47-2.47s2.51,1.11,2.51,2.47-1.15,2.48-2.51,2.48-2.47-1.1-2.47-2.48"/>
    <path class="cls-3" d="M197.08,49.02c0-1.21,.95-2.15,2.14-2.15s2.16,.94,2.16,2.15-.98,2.12-2.16,2.12-2.14-.96-2.14-2.12"/>
    <polygon class="cls-3" points="167.32 131.28 179.62 132.92 172.29 142.6 160.56 141.3 167.32 131.28"/>
    <path class="cls-7" d="M172.51,143.13l-13.27-1.2,7.66-11.57,13.7,2.18-8.09,10.59Zm-10.64-2.46l9.95,.9,6.07-7.94-10.27-1.63-5.74,8.68Z"/>
    <polygon class="cls-3" points="204.79 119.42 216.45 123.69 207.19 131.55 196.02 127.73 204.79 119.42"/>
    <path class="cls-7" d="M207.29,132.11l-12.69-4.05,9.98-9.63,12.9,5.1-10.19,8.58Zm-9.85-4.71l9.52,3.04,7.65-6.44-9.67-3.82-7.49,7.22Z"/>
    <polygon class="cls-3" points="283.07 119.65 271.35 123.74 280.47 131.75 291.71 128.11 283.07 119.65"/>
    <path class="cls-7" d="M280.37,132.3l-10.05-8.75,12.98-4.89,9.83,9.79-12.75,3.84Zm-7.18-8.23l7.54,6.56,9.57-2.88-7.37-7.35-9.74,3.66Z"/>
    <path class="cls-2" d="M144.16,305.07c0-54.92,44.52-99.47,99.43-99.47s99.46,44.55,99.46,99.47-44.54,99.45-99.46,99.45-99.43-44.51-99.43-99.45m-76.74,0c0-97.31,78.86-176.18,176.17-176.18s176.18,78.86,176.18,176.18-78.85,176.16-176.18,176.16-176.17-78.84-176.17-176.16"/>
    <path class="cls-7" d="M243.49,418.34c-62.44,0-113.24-50.81-113.24-113.27s50.8-113.28,113.24-113.28,113.24,50.82,113.24,113.28-50.8,113.27-113.24,113.27m0-223.99c-61.03,0-110.68,49.67-110.68,110.72s49.65,110.7,110.68,110.7,110.67-49.66,110.67-110.7-49.65-110.72-110.67-110.72m0,212.01c-55.85,0-101.28-45.44-101.28-101.29s45.43-101.29,101.28-101.29,101.31,45.44,101.31,101.29-45.45,101.29-101.31,101.29m0-200.02c-54.43,0-98.72,44.29-98.72,98.73s44.28,98.73,98.72,98.73,98.74-44.29,98.74-98.73-44.3-98.73-98.74-98.73"/>
    <path class="cls-7" d="M243.54,482.02c-97.58,0-176.97-79.38-176.97-176.95s79.39-176.95,176.97-176.95,176.99,79.38,176.99,176.95-79.4,176.95-176.99,176.95m0-351.34c-96.17,0-174.4,78.23-174.4,174.39s78.24,174.39,174.4,174.39,174.42-78.23,174.42-174.39-78.24-174.39-174.42-174.39m0,338.94c-90.73,0-164.55-73.82-164.55-164.55s73.82-164.54,164.55-164.54,164.57,73.81,164.57,164.54-73.83,164.55-164.57,164.55m0-326.53c-89.32,0-161.98,72.66-161.98,161.98s72.67,161.99,161.98,161.99,162.01-72.67,162.01-161.99-72.67-161.98-162.01-161.98"/>
    <path class="cls-1" d="M166.42,370.29c14.09,14.73,13.88,38.1-.6,52.57-14.49,14.49-37.85,14.7-52.59,.6l53.19-53.17Z"/>
    <path class="cls-7" d="M139.47,433.89c-10.12,0-20.17-3.82-27.86-11.17l1.64-1.71c14.41,13.79,38.25,13.77,52.06-.05,13.86-13.86,14.17-36.7,.62-50.83l1.84-1.79c14.51,15.13,14.19,39.59-.64,54.43-7.4,7.41-17.49,11.11-27.65,11.11m.49-11.21c-.32,0-.63,0-.95-.02-7.35-.24-14.1-3.41-18.58-8.53l2.01-1.58c4.01,4.59,10.01,7.33,16.66,7.55,6.97,.21,13.65-2.32,18.31-7,9.38-9.34,9.2-24.76-.4-34.99l1.99-1.62c10.55,11.25,10.59,28.1,.23,38.42-4.95,4.96-11.92,7.77-19.26,7.77"/>
    <path class="cls-7" d="M113.66,344.9c-3.18,0-5.77,2.58-5.77,5.75s2.59,5.79,5.77,5.79,5.75-2.6,5.75-5.79-2.58-5.75-5.75-5.75m0,8.97c-1.77,0-3.2-1.45-3.2-3.23s1.44-3.18,3.2-3.18,3.19,1.4,3.19,3.18-1.43,3.23-3.19,3.23"/>
    <path class="cls-7" d="M128.57,374.59c-3.18,0-5.77,2.58-5.77,5.75s2.59,5.79,5.77,5.79,5.75-2.6,5.75-5.79-2.58-5.75-5.75-5.75m0,8.97c-1.77,0-3.2-1.45-3.2-3.23s1.44-3.18,3.2-3.18,3.19,1.4,3.19,3.18-1.43,3.23-3.19,3.23"/>
    <polygon class="cls-1" points="270.93 230.23 270.93 279.54 382.48 277.33 270.93 230.23"/>
    <polygon class="cls-1" points="272.34 375.92 272.25 333.67 374.89 333.67 272.34 375.92"/>
    <path class="cls-7" d="M457.84,304.83l-237.71-97.81-5.17,2.29v67h-67.56l-4.15,26.85,4.39,30.52h67.32v68.26l4.99,1.52,237.89-98.63Zm-185.6-71.04l102.71,42.38-102.71,.18v-42.57Zm102.64,99.89l-102.64,42.5v-42.5h102.64Z"/>
    <polygon class="cls-5" points="387.49 281.3 267.33 281.3 267.33 231.74 219.95 212.21 219.95 281.31 145.03 281.31 141.5 303.15 145.03 328.68 219.95 328.68 219.95 397.92 267.28 378.1 267.35 328.68 387.54 328.57 444.42 304.87 387.49 281.3"/>
    <path class="cls-7" d="M149.14,334.23c-2.86-9.22-4.41-19.01-4.41-29.17s1.56-19.97,4.42-29.21h-2.68c-2.79,9.25-4.3,19.06-4.3,29.21s1.5,19.92,4.29,29.17h2.68Z"/>
    <path class="cls-7" d="M272.1,303.4c0-.57-.32-1.07-.79-1.32,.17-.24,.26-.53,.26-.84,0-.72-.5-1.32-1.17-1.47l.06-.41c0-.83-.68-1.5-1.51-1.5l-.32,.04c0-.83-.67-1.5-1.5-1.5l-.67,.15c0-.83-.68-1.5-1.5-1.5-.35,0-.66,.12-.92,.31-.23-.53-.76-.9-1.38-.9-.56,0-1.05,.31-1.3,.76-.05-.64-.58-1.14-1.24-1.14-.54,0-.99,.34-1.17,.82-.13-.55-.62-.96-1.22-.96-.43,0-.81,.22-1.04,.56-.24-.34-.63-.55-1.07-.55h-.06c-.06-.66-.62-1.18-1.28-1.18l-.47,.09c-.15-.43-.56-.73-1.03-.73-.3,0-.57,.12-.76,.31-.13-.45-.54-.78-1.04-.78-.29,0-.56,.12-.76,.31-.14-.45-.55-.78-1.05-.78-.29,0-.56,.12-.75,.31-.14-.45-.55-.78-1.05-.78-.36,0-.68,.19-.88,.46h-.69c-.03-.93-.61-1.73-1.42-2.07v-1.6h1.78v-1.79h-1.78v-1.78h-1.78v1.78h-1.78v1.79h1.78v1.61c-.82,.34-1.39,1.14-1.42,2.07h-.75c-.2-.28-.52-.46-.89-.46-.49,0-.91,.33-1.05,.78-.19-.19-.46-.31-.75-.31-.49,0-.91,.33-1.05,.78-.19-.19-.46-.31-.76-.31-.49,0-.91,.33-1.04,.78-.19-.19-.46-.31-.75-.31-.48,0-.89,.3-1.04,.73l-.47-.09c-.67,0-1.23,.52-1.29,1.18h-.06c-.44,0-.83,.22-1.06,.55-.22-.34-.6-.56-1.04-.56-.59,0-1.09,.41-1.22,.97-.17-.48-.63-.83-1.17-.83-.63,0-1.17,.5-1.23,1.13-.27-.44-.75-.74-1.31-.74-.61,0-1.13,.37-1.37,.9-.26-.19-.57-.31-.92-.31-.83,0-1.51,.67-1.51,1.5l-.66-.15c-.84,0-1.5,.67-1.51,1.5l-.32-.03c-.83,0-1.5,.67-1.5,1.5l.06,.41c-.67,.15-1.17,.75-1.17,1.48,0,.31,.1,.6,.26,.84-.47,.25-.79,.75-.79,1.32,0,.48,.22,.9,.56,1.18-.2,.26-.32,.58-.32,.94,0,.51,.26,.96,.64,1.23l-.17,.7c0,.63,.37,1.16,.91,1.39l-.19,.75,.11,.58c-.5,.4-.96,.97-.81,1.72,.28,1.52,2.46,.71,2.86,1.05,.42,.35,.6,1.23,1.18,1.94s1.11,.58,1.35,.94c.24,.35-.1,1.1,.21,1.6,.24,.37,.72,.32,1.07,.5l-1.76,2.66,3.18,.29c.15,.36,.24,.6,.24,.6,0,0,10.47-3.74,19.47-3.74,10.3,0,19.71,3.59,19.71,3.59l.18-.46,3.32-.32-1.79-2.66c.33-.13,.75-.12,.96-.46,.31-.49-.02-1.25,.21-1.6,.23-.36,.76-.24,1.34-.94,.59-.71,.77-1.59,1.18-1.94,.41-.35,2.58,.47,2.87-1.05,.14-.75-.31-1.32-.82-1.72l.11-.58-.19-.75c.54-.23,.92-.76,.92-1.39l-.17-.7c.39-.28,.64-.72,.64-1.23,0-.36-.12-.68-.33-.94,.34-.28,.57-.7,.57-1.18m-1.94-2.85c.37,0,.68,.31,.68,.68s-.31,.67-.68,.67-.68-.29-.68-.67,.31-.68,.68-.68m-1.11-1.87c.37,0,.67,.31,.67,.67s-.29,.68-.67,.68-.68-.3-.68-.68,.3-.67,.68-.67m-1.83-1.47c.38,0,.68,.31,.68,.68s-.3,.67-.68,.67-.67-.3-.67-.67,.31-.68,.67-.68m-2.16-1.34c.38,0,.68,.3,.68,.67s-.3,.67-.68,.67-.68-.3-.68-.67,.31-.67,.68-.67m-2.29-.59c.37,0,.68,.31,.68,.67s-.31,.67-.68,.67-.67-.3-.67-.67,.3-.67,.67-.67m-.84,5.45c0-.77-.14-2.04-.14-2.04,0,0,3.26,1.16,4.06,2.7,.8,1.55-.38,4.56-.38,4.56,0,0-.7-.53-1.19-.65-.5-.13-1.14,.1-1.81-.03-.68-.13-.98-1.71-.98-1.71,0,0,.44-2.34,.44-2.83m-.69,4.35s.48,.49,.97,.75c.5,.25,1.25-.13,1.49,.06l-.24,1.18c.11,.24,.61,.13,.24,.8-.37,.68-.8,1.16-1.42,1.09-.63-.06-2.03-1.09-2.03-1.09,0,0,.12-.56,0-.92-.12-.37-.75,.06-.63-.37,.13-.44,.68-.99,1.13-1.3,.43-.31,.48-.19,.48-.19m.41,4.91c0,.38-.3,.68-.67,.68s-.67-.3-.67-.68,.3-.67,.67-.67,.67,.31,.67,.67m-1.41-15.32c.38,0,.67,.29,.67,.68s-.29,.67-.67,.67-.68-.3-.68-.67,.31-.68,.68-.68m-1.46,1.14c.49-.18,2.34,1.96,2.4,4.56,.08,3.15-1.18,5.49-2.04,5.04-.8-.41,1.18-1.96,1.12-4.66-.07-3.02-1.98-4.74-1.48-4.93m.24,11.65l-.44,.71,.22,1.27c0,.4-.9,.24-.99,.27l-.98,.19-.59-1.26,1-.32-.28-1.19,1.6-.26,.45,.58Zm-2.92-1.8l-1.11,.51-.59-1.5,.48-.56,.79,.27,1.2-.46c.38-.11,.43,.82,.46,.9l.4,.93-1.11,.84-.5-.92Zm.04,2.13c0,.37-.3,.68-.66,.68s-.68-.31-.68-.68,.3-.67,.68-.67,.66,.3,.66,.67m1.42-6.83c.31,0,.58,.26,.58,.58s-.27,.59-.58,.59c-.34,0-.6-.27-.6-.59s.26-.58,.6-.58m-.6-1.76c0-.32,.26-.58,.6-.58,.31,0,.58,.26,.58,.58s-.27,.58-.58,.58c-.34,0-.6-.27-.6-.58m.88-4.68c.38,0,.68,.3,.68,.67s-.3,.68-.68,.68-.67-.3-.67-.68,.31-.67,.67-.67m-1.18,1.99c.32,0,.58,.25,.58,.59,0,.31-.26,.58-.58,.58s-.58-.26-.58-.58c0-.33,.25-.59,.58-.59m-.94-1.88c.33,0,.59,.26,.59,.58s-.26,.58-.59,.58-.58-.26-.58-.58,.27-.58,.58-.58m-1.35-1.18c.32,0,.59,.26,.59,.58s-.27,.58-.59,.58-.57-.26-.57-.58,.25-.58,.57-.58m-1.48-.76l.48,.49-.48,.49c-.28,0-.49-.22-.49-.49s.21-.49,.49-.49m-1.81-.47l.5,.49c0,.28-.23,.5-.5,.5s-.49-.22-.49-.5l.49-.49Zm-1.79-.48l.48,.49-.48,.5-.49-.5,.49-.49Zm5.74,7.26c.97,4.6-2.36,5.69-2.71,5.21-.57-.79,2.24-2.06,1.68-4.9-.55-2.8-6.24-5.28-6.74-5.8-.52-.52,6.78,.89,7.76,5.49m-3.72,8.03c-.23-.32,.61-.69,.68-.76l.73-.7,1.18,.74-.66,.81,.87,.85-1.19,1.1-.7-.25-.03-.83-.87-.95Zm-2.93-1.07s-.91-.92-1.18-1.47c-.27-.54,.78-2.36,1.28-2.21,.49,.15,.39,.51,.92,.62,.54,.1,1.96-.4,2.04-.25,.08,.14-.27,1.09-.15,1.5,.12,.42,.53,.09,.56,.49,.04,.4-.71,1.38-1.37,1.64-.67,.28-2.1-.32-2.1-.32m1.78,1.47c0,.37-.29,.67-.66,.67s-.68-.3-.68-.67,.31-.67,.68-.67,.66,.3,.66,.67m-2.37,.75c.02,.39-.89,.24-.98,.25l-.99,.19-.59-1.24,1.01-.31-.28-1.19,1.6-.26,.45,.58-.44,.71,.22,1.27Zm-.4-13.22s3.58,1.3,4.76,3.11c1.17,1.83,.45,4.22,.45,4.22,0,0-1.78-.16-2.27-.29-.5-.13-1.14,.1-1.82-.03-.68-.12-.97-1.71-.97-1.71,0,0,.09-1.99,.09-2.48,0-.76-.23-2.82-.23-2.82m.11-3.68l.49,.49-.49,.49-.48-.49,.48-.49Zm-1.79,1.25c.19-.58,.32-.76,.51-.66,.2,.1,.23,.22,.14,.93-.1,.71,.96,4.29,.86,5.24-.1,.95-.47,6.04-.89,5.23-.43-.8,.36-3.33,.36-4.65s-1.24-5.3-.99-6.08m-.76,2.65c.25-.57,1.2,2.16,1.2,3.18s-.98,5.02-1.15,3.92c-.15-1.1,.25-.36,.29-3.47,.04-3.1-.56-3.06-.34-3.63m-1.45-4.53l.49,.49-.49,.49-.49-.49,.49-.49Zm0,1.48c.38,0,.69,.31,.69,.67s-.31,.68-.69,.68-.67-.3-.67-.68,.3-.67,.67-.67m0,1.65c.38,0,.69,.3,.69,.67s-.31,.68-.69,.68-.67-.3-.67-.68,.3-.67,.67-.67m0,1.65c.38,0,.69,.3,.69,.68s-.31,.67-.69,.67-.67-.29-.67-.67,.3-.68,.67-.68m0,1.66c.38,0,.69,.3,.69,.66s-.31,.67-.69,.67-.67-.29-.67-.67,.3-.66,.67-.66m0,1.64c.38,0,.69,.3,.69,.67s-.31,.67-.69,.67-.67-.3-.67-.67,.3-.67,.67-.67m0,1.65c.38,0,.69,.3,.69,.67s-.31,.67-.69,.67-.67-.29-.67-.67,.3-.67,.67-.67m-.72,3.07c.23-.43-.05-1.17,.72-1.07,.78-.1,.49,.64,.74,1.07,.25,.45,.93,.21,1.26,.54,.33,.32-.2,1.3-.77,1.3-.47,0-.93-.45-1.22-.57-.27,.12-.73,.57-1.21,.57-.57,0-1.09-.98-.78-1.3,.33-.32,1.02-.08,1.26-.54m1.4,3.52c0,.38-.31,.68-.69,.68s-.67-.3-.67-.68,.3-.67,.67-.67,.69,.31,.69,.67m-5.34-.77l.45-.58,1.61,.26-.28,1.19,1,.31-.58,1.24-.99-.19c-.1,0-1,.14-.98-.25l.22-1.27-.44-.71Zm-2.47,.09c-.66-.27-1.4-1.24-1.38-1.64,.03-.39,.44-.07,.57-.49,.12-.41-.22-1.36-.15-1.5,.07-.15,1.48,.35,2.04,.25,.54-.11,.45-.47,.93-.62,.49-.15,1.55,1.67,1.28,2.21-.27,.54-1.18,1.47-1.18,1.47,0,0-1.46,.6-2.11,.32m1.97,1.15c0,.37-.3,.67-.68,.67s-.67-.3-.67-.67,.29-.67,.67-.67,.68,.3,.68,.67m-3.69,1.38l-.7,.25-1.2-1.1,.88-.85-.68-.81,1.18-.74,.72,.7c.07,.07,.92,.44,.68,.76l-.88,.95v.83Zm4.66-8.56s-.29,1.59-.97,1.71c-.68,.12-1.33-.1-1.82,.03-.49,.12-2.28,.29-2.28,.29,0,0-.72-2.39,.47-4.22,1.17-1.82,4.75-3.11,4.75-3.11,0,0-.23,2.06-.23,2.82,0,.49,.09,2.48,.09,2.48m2.58-5.08c.25,.57-.36,.53-.32,3.63,.04,3.11,.45,2.36,.28,3.47-.16,1.1-1.14-2.89-1.14-3.92s.94-3.75,1.18-3.18m-1.39-2.38c-.09-.71-.07-.84,.13-.93,.19-.1,.32,.08,.52,.66,.24,.78-1,4.75-1,6.08s.8,3.85,.37,4.65c-.43,.81-.81-4.28-.9-5.23-.1-.95,.97-4.53,.86-5.24m-.84-1.52l.49,.49-.49,.49-.49-.49,.49-.49Zm-1.8,.46l.49,.49-.49,.5c-.28,0-.5-.22-.5-.5s.21-.49,.5-.49m-1.81,.48l.49,.49c0,.28-.22,.5-.49,.5s-.49-.22-.49-.5l.49-.49Zm-1.8,.47l.48,.49-.48,.49-.49-.49,.49-.49Zm5.32,.83c-.51,.52-6.2,3-6.74,5.8-.55,2.85,2.25,4.11,1.68,4.9-.34,.48-3.67-.62-2.7-5.21,.98-4.6,8.28-6.02,7.77-5.49m-7.73,12.64l-1.11-.51-.5,.92-1.11-.84,.4-.93c.03-.08,.07-1.01,.46-.9l1.2,.46,.79-.27,.47,.56-.6,1.5Zm.5,1.62c0,.37-.3,.68-.68,.68s-.67-.31-.67-.68,.29-.67,.67-.67,.68,.3,.68,.67m-2.76-6.83c.33,0,.59,.26,.59,.58s-.26,.59-.59,.59-.58-.27-.58-.59,.25-.58,.58-.58m-.58-1.76c0-.32,.25-.58,.58-.58s.59,.26,.59,.58-.26,.58-.59,.58-.58-.27-.58-.58m3.75-5.74c.33,0,.58,.26,.58,.58s-.26,.58-.58,.58-.58-.26-.58-.58,.26-.58,.58-.58m-1.35,1.18c.32,0,.59,.26,.59,.58s-.27,.58-.59,.58-.58-.26-.58-.58,.26-.58,.58-.58m-.95,1.88c.33,0,.59,.25,.59,.59,0,.31-.27,.58-.59,.58-.31,0-.58-.26-.58-.58,0-.33,.27-.59,.58-.59m-1.17-1.99c.38,0,.67,.3,.67,.67s-.3,.68-.67,.68-.68-.3-.68-.68,.3-.67,.68-.67m.58,12.61l-.27,1.19,1,.32-.58,1.26-.99-.19c-.09-.02-1,.13-.98-.27l.21-1.27-.44-.71,.44-.58,1.6,.26Zm-1.83-11.55h0s0,0,0,0h0Zm-1.13-.92c.38,0,.68,.29,.68,.68s-.3,.67-.68,.67-.66-.3-.66-.67,.29-.68,.66-.68m-1.2,5.69c.05-2.6,1.91-4.74,2.39-4.56,.5,.19-1.42,1.9-1.49,4.93-.05,2.7,1.92,4.25,1.12,4.66-.87,.45-2.12-1.89-2.03-5.04m-.09,4.73s.06-.13,.49,.19c.42,.31,.99,.87,1.11,1.3,.11,.43-.49,0-.62,.37-.13,.36,0,.92,0,.92,0,0-1.4,1.03-2.02,1.09-.62,.06-1.05-.41-1.42-1.09-.37-.68,.11-.56,.25-.8l-.25-1.18c.25-.19,.99,.19,1.48-.06,.49-.25,.98-.75,.98-.75m1.24,4.91c0,.38-.3,.68-.67,.68s-.67-.3-.67-.68,.3-.67,.67-.67,.67,.31,.67,.67m-1.48-6.43s-.31,1.59-.99,1.71c-.68,.13-1.31-.1-1.81,.03-.49,.12-1.2,.65-1.2,.65,0,0-1.18-3.02-.37-4.56,.8-1.54,4.06-2.7,4.06-2.7,0,0-.15,1.27-.15,2.04,0,.49,.45,2.83,.45,2.83m-.99-8.28c.39,0,.68,.31,.68,.67s-.29,.67-.68,.67c-.36,0-.68-.3-.68-.67s.32-.67,.68-.67m-2.29,.59c.37,0,.68,.3,.68,.67s-.31,.67-.68,.67-.67-.3-.67-.67,.31-.67,.67-.67m-2.17,1.34c.37,0,.67,.31,.67,.68s-.3,.67-.67,.67-.67-.3-.67-.67,.3-.68,.67-.68m-1.82,1.47c.37,0,.68,.31,.68,.67s-.31,.68-.68,.68-.67-.3-.67-.68,.3-.67,.67-.67m-1.11,1.87c.37,0,.67,.31,.67,.68s-.29,.67-.67,.67-.67-.29-.67-.67,.3-.68,.67-.68m-1.21,2.85c0-.37,.31-.67,.68-.67s.67,.3,.67,.67-.3,.68-.67,.68-.68-.3-.68-.68m.24,2.12c0-.37,.31-.68,.68-.68s.67,.3,.67,.68-.3,.67-.67,.67-.68-.3-.68-.67m1.14,2.6c-.37,0-.67-.3-.67-.67s.3-.68,.67-.68,.68,.3,.68,.68-.31,.67-.68,.67m.72,2.13c-.37,0-.66-.31-.66-.67s.29-.67,.66-.67,.68,.3,.68,.67-.3,.67-.68,.67m-.12-7.93c.56-4.12,6.85-5.57,6.72-5.03-.12,.54-4.87,1.4-5.42,4.91-.56,3.5,2.82,5.24,2.82,5.24,0,0,.56,.32,0,.93-.56,.6-1.78-.19-1.78-.19,0,0-2.91-1.73-2.35-5.85m3.29,12.4c-.37,0-.67-.3-.67-.67s.3-.67,.67-.67,.67,.3,.67,.67-.3,.67-.67,.67m.87-3.28l-1.04-.11,.32-1.34h1.02c.09,0,.95-.33,1,.07l.03,1.28,.57,.62-.34,.66-1.61,.04,.04-1.22Zm2.01,9.03l-2.71-.24,1.34-2.02,.23-.35,2.81,.45-1.66,2.17Zm4.35-2.04c-.52,0-.94-.41-.94-.93s.41-.93,.94-.93,.92,.42,.92,.93-.41,.93-.92,.93m5.23-.99l-2.6-.83,2.04-1.97,2.64,1.04-2.08,1.76Zm4.9-1.19c-.51,0-.92-.41-.92-.93s.41-.94,.92-.94,.93,.42,.93,.94-.41,.93-.93,.93m5.13,.17l-2.39-1.32,2.39-1.53,2.39,1.54-2.39,1.31Zm5.21-.17c-.51,0-.93-.41-.93-.92s.42-.93,.93-.93,.92,.41,.92,.93-.41,.92-.92,.92m4.88,1.26l-2.06-1.79,2.66-1,2.01,2-2.61,.79Zm5.3,.94c-.51,0-.93-.42-.93-.93s.41-.93,.93-.93,.94,.41,.94,.93-.42,.93-.94,.93m6.94,1.76l-2.43,.24-.29,.03-1.67-2.16,2.8-.46,1.59,2.35Zm-11.95-6.7c-4.3-.97-9.23-1.06-10.33-1.07-1.1,0-6.05,.09-10.33,1.05-4.88,1.08-11.39,4.37-10.99,3.26,.19-.58,5.12-2.86,10.71-4.13,3.92-.8,9.07-1,10.43-1.03h.18s.17,0,.17,0c1.36,.05,6.51,.25,10.43,1.06,5.59,1.27,10.52,3.57,10.73,4.14,.38,1.12-6.12-2.18-10.99-3.28m8.54,1.35c-1-.41-1.34-1.86-2.03-2.09-.71-.24-2.23,.18-3.18,0-.94-.18-2.1-1.65-2.57-1.82-.47-.18-1.41,1-2.89,.7-1.45-.3-2.08-1.52-2.48-1.58-.41-.05-2.13,1.05-3.02,1-.84-.06-2.66-.99-2.8-1.06,0,0-1.74,1-2.61,1.06-.88,.06-2.62-1.05-3.02-1-.41,.06-1.04,1.29-2.5,1.58-1.46,.3-2.41-.88-2.87-.7-.47,.17-1.64,1.64-2.58,1.82-.94,.18-2.46-.24-3.17,0-.71,.23-1.03,1.69-2.03,2.09-1.01,.41-2.76,.37-2.76,.37l.16-1.18s1.29,.25,2.28,.02c1-.24,1.24-2.13,2.12-2.43,.89-.3,3.02,.22,3.78-.09,.76-.28,1.35-2.34,1.88-2.46,.52-.12,1.56,1.54,2.79,1.47,1.25-.07,1.59-1.55,2.35-1.67,.76-.11,2.17,1.04,3.42,1.12,1.31,.07,2.77-2.07,2.77-2.07v.1c.12,.15,1.69,2.04,2.95,1.97,1.25-.08,2.66-1.23,3.43-1.12,.75,.12,1.1,1.6,2.34,1.67,1.22,.07,2.27-1.59,2.78-1.47,.54,.12,1.12,2.17,1.88,2.46,.78,.3,2.9-.21,3.79,.09,.88,.3,1.12,2.19,2.1,2.43,1.01,.23,2.29-.02,2.29-.02l.16,1.18s-1.77,.04-2.76-.37m2.01-3.4l.04,1.22-1.61-.04-.33-.66,.56-.62,.04-1.28c.06-.41,.92-.08,1.01-.08h1.01s.33,1.35,.33,1.35l-1.05,.11Zm1.64,3.28c-.37,0-.68-.3-.68-.67s.3-.67,.68-.67,.67,.3,.67,.67-.31,.67-.67,.67m.17-6.54s-1.22,.79-1.77,.19c-.55-.61,0-.93,0-.93,0,0,3.38-1.73,2.82-5.24-.55-3.5-5.3-4.37-5.42-4.91-.11-.54,6.17,.91,6.73,5.03,.55,4.13-2.36,5.85-2.36,5.85m2.98,2.08c-.36,0-.67-.31-.67-.67s.3-.67,.67-.67,.69,.3,.69,.67-.31,.67-.69,.67m.72-2.13c-.36,0-.67-.3-.67-.67s.31-.68,.67-.68,.68,.3,.68,.68-.3,.67-.68,.67m.48-1.93c-.37,0-.67-.3-.67-.67s.3-.68,.67-.68,.67,.3,.67,.68-.31,.67-.67,.67m.23-2.11c-.37,0-.67-.3-.67-.68s.3-.67,.67-.67,.69,.3,.69,.67-.32,.68-.69,.68"/>
    <path class="cls-1" d="M71.94,282.95h68.17c1.87,0,3.37,1.52,3.37,3.36v38.21c0,1.86-1.5,3.34-3.37,3.34H71.94c-1.84,0-3.34-1.48-3.34-3.34v-38.21c0-1.84,1.5-3.36,3.34-3.36"/>
    <path class="cls-7" d="M140.1,329.1H71.94c-2.53,0-4.6-2.06-4.6-4.59v-38.21c0-2.54,2.06-4.61,4.6-4.61h68.17c2.55,0,4.62,2.07,4.62,4.61v38.21c0,2.53-2.07,4.59-4.62,4.59m-68.17-44.9c-1.15,0-2.09,.94-2.09,2.11v38.21c0,1.15,.94,2.09,2.09,2.09h68.17c1.19,0,2.12-.92,2.12-2.09v-38.21c0-1.16-.95-2.11-2.12-2.11H71.94Z"/>
    <path class="cls-7" d="M133.04,321.96h-53.99c-2.58,0-4.6-2-4.6-4.56v-23.95c0-2.54,2.07-4.61,4.6-4.61h53.99c2.52,0,4.58,2.07,4.58,4.61v23.95c0,2.51-2.06,4.56-4.58,4.56m-53.99-30.62c-1.16,0-2.1,.94-2.1,2.11v23.95c0,1.15,.92,2.06,2.1,2.06h53.99c1.16,0,2.08-.9,2.08-2.06v-23.95c0-1.16-.93-2.11-2.08-2.11h-53.99Z"/>
    <path class="cls-1" d="M94.15,309.78c0-3.25,5.32-5.85,11.86-5.85s11.9,2.6,11.9,5.85-5.34,5.87-11.9,5.87-11.86-2.64-11.86-5.87"/>
    <path class="cls-7" d="M106.01,316.91c-7.35,0-13.11-3.13-13.11-7.13s5.64-7.1,13.11-7.1,13.15,3.06,13.15,7.1-5.78,7.13-13.15,7.13m0-11.72c-6.25,0-10.61,2.42-10.61,4.6s4.36,4.62,10.61,4.62,10.65-2.43,10.65-4.62-4.37-4.6-10.65-4.6"/>
    <path class="cls-1" d="M110.51,316.91c0,5.35-1.98,9.68-4.43,9.68s-4.43-4.34-4.43-9.68,1.98-9.68,4.43-9.68,4.43,4.34,4.43,9.68"/>
    <path class="cls-7" d="M106.04,328.2c-3.28,0-5.74-4.79-5.74-11.15s2.47-11.18,5.74-11.18,5.72,4.81,5.72,11.18-2.46,11.15-5.72,11.15m0-19.82c-1.32,0-3.24,3.38-3.24,8.67s1.92,8.64,3.24,8.64,3.22-3.37,3.22-8.64-1.91-8.67-3.22-8.67"/>
    <polygon class="cls-7" points="205.38 453.68 191.85 449.51 201.23 419.09 207.11 420.91 199.69 444.98 207.33 447.34 205.38 453.68"/>
    <path class="cls-7" d="M227.87,458.01l-6.22-1.04,.03-5.98-4.99-.83-1.88,5.68-6.22-1.04,11.78-30.3,6.22,1.04,1.28,32.48Zm-6.19-13.29l.03-1.05c.06-2.57,.18-6.12,.36-10.64-.45,1.8-1.48,5.21-3.08,10.23l-.31,.96,3,.5Z"/>
    <path class="cls-7" d="M261.76,448.81c-.41,3.13-1.17,5.45-2.27,6.98-1.26,1.75-3.1,2.71-5.51,2.86-6.03,.39-9.39-4.86-10.1-15.75-.35-5.42,.19-9.58,1.61-12.5,1.38-2.83,3.53-4.33,6.43-4.52,2.54-.17,4.52,.6,5.96,2.3,1.19,1.41,2.16,3.76,2.92,7.05l-5.8,2.38c-.37-1.95-.71-3.26-1.03-3.94-.4-.88-.96-1.31-1.66-1.26-1,.06-1.66,.84-1.98,2.34-.32,1.49-.36,4.04-.13,7.64,.24,3.63,.61,6.17,1.14,7.62,.52,1.46,1.3,2.15,2.32,2.08,.68-.05,1.18-.46,1.5-1.24,.27-.69,.53-2.06,.76-4.1l5.83,2.04Z"/>
    <path class="cls-7" d="M281.84,437.44c2.34,10.72,.5,16.74-5.52,18.05-5.95,1.3-10.09-3.38-12.41-14.04-2.34-10.72-.51-16.74,5.48-18.04,5.97-1.31,10.12,3.37,12.45,14.04m-6.14,1.44c-.79-3.61-1.58-6.11-2.38-7.48-.73-1.27-1.58-1.8-2.56-1.58-.98,.22-1.54,1.04-1.68,2.46-.14,1.52,.18,4.1,.98,7.74,.79,3.62,1.58,6.11,2.38,7.48,.73,1.27,1.58,1.8,2.56,1.58,.98-.21,1.54-1.03,1.68-2.46,.14-1.55-.19-4.13-.98-7.74"/>
    <path class="cls-7" d="M306.96,445.07l-6.09,2.35-7.19-10.29-1.54,.59,4.38,11.37-5.61,2.16-11.45-29.7,8.28-3.19c4.95-1.91,8.59,.15,10.91,6.18,1.41,3.65,1.36,6.66-.14,9.02l8.45,11.51Zm-13.91-18.13c-.92-2.4-2.11-3.33-3.54-2.77l-2.26,.87,2.8,7.25,2.16-.83c1.5-.58,1.79-2.08,.85-4.52"/>
    <path class="cls-7" d="M321.87,424.16c3.86,6.73,3.24,11.56-1.87,14.5-2.38,1.36-4.68,1.6-6.91,.71-2.34-.89-4.47-2.99-6.37-6.31l-10.39-18.1,5.38-3.08,10.5,18.29c1.54,2.68,3.07,3.58,4.6,2.71,1.46-.84,1.43-2.6-.11-5.28l-10.51-18.3,5.38-3.09,10.3,17.94Z"/>
    <path class="cls-7" d="M347.82,417.97l-3.8,3.12-8.72-4.67c-4.05-2.16-6.75-3.71-8.09-4.65,1.05,1.09,2.98,3.34,5.77,6.74l5.71,6.96-4.45,3.65-20.19-24.6,4.14-3.4,7.14,3.56c3.59,1.8,6.36,3.37,8.29,4.73-1.21-1.24-3.18-3.53-5.91-6.86l-4.53-5.52,4.45-3.65,20.19,24.61Z"/>
    <path class="cls-7" d="M364.32,400.26l-4.22,4.69-5.03-3.24-3.38,3.76,3.78,4.63-4.22,4.69-19.23-26.22,4.22-4.69,28.08,16.37Zm-14.54-1.92l-.88-.59c-2.14-1.43-5.06-3.44-8.78-6.02,1.28,1.35,3.6,4.05,6.97,8.09l.65,.78,2.04-2.26Z"/>
    <path class="cls-7" d="M322.29,390.95c.61,1.29,.81,2.49,.62,3.59-.19,1.1-.74,1.97-1.62,2.6-.76,.54-1.62,.82-2.59,.84-.82,.01-1.33,.09-1.53,.23-.46,.33-.52,.96-.18,1.89l-2.5,1.79c-.62-1.31-.83-2.51-.63-3.6s.74-1.95,1.63-2.59c.76-.54,1.62-.83,2.59-.84,.82-.01,1.33-.09,1.52-.23,.46-.33,.52-.96,.18-1.89l2.5-1.79Z"/>
    <path class="cls-7" d="M131.68,256.3l-2.15,6.16-12.49-1.17-.54,1.56,11.51,4.01-1.98,5.68-30.05-10.48,2.92-8.38c1.74-5.01,5.67-6.45,11.76-4.32,3.69,1.29,5.95,3.27,6.79,5.94l14.24,1.01Zm-22.82-1.12c-2.43-.85-3.9-.54-4.41,.91l-.8,2.29,7.34,2.56,.76-2.18c.53-1.52-.43-2.71-2.89-3.57"/>
    <polygon class="cls-7" points="139.85 240.83 132.68 254.33 104.57 239.4 111.62 226.12 117.36 229.17 113.17 237.07 117.99 239.63 120.72 234.48 126.42 237.51 123.69 242.66 129.79 245.9 134.11 237.78 139.85 240.83"/>
    <path class="cls-7" d="M152.08,224.17l-3.79,5.04-5.3-2.79-3.04,4.05,4.18,4.28-3.79,5.04-21.46-24.42,3.79-5.04,29.41,13.84Zm-14.65-.64l-.92-.51c-2.25-1.24-5.35-2.98-9.27-5.22,1.39,1.23,3.94,3.71,7.65,7.45l.71,.72,1.83-2.43Z"/>
    <polygon class="cls-7" points="162.97 213.54 152.94 223.53 130.48 200.97 134.85 196.62 152.62 214.48 158.28 208.84 162.97 213.54"/>
    <path class="cls-7" d="M178.62,191.45c1.21,2.91,1.71,5.31,1.52,7.18-.21,2.15-1.33,3.89-3.34,5.23-5.03,3.35-10.56,.48-16.61-8.6-3.01-4.52-4.62-8.39-4.84-11.64-.21-3.14,.89-5.51,3.32-7.13,2.12-1.41,4.22-1.74,6.31-.98,1.74,.62,3.75,2.18,6.05,4.65l-3.84,4.96c-1.3-1.5-2.25-2.47-2.86-2.9-.79-.57-1.48-.65-2.07-.26-.84,.56-1.02,1.56-.55,3.02s1.7,3.68,3.71,6.68c2.02,3.02,3.62,5.04,4.79,6.04,1.18,1,2.2,1.21,3.05,.64,.57-.38,.8-.98,.68-1.82-.11-.73-.57-2.04-1.39-3.94l6.07-1.15Z"/>
    <polygon class="cls-7" points="196.96 192.33 184.24 198.54 170.27 169.95 175.8 167.24 186.86 189.87 194.04 186.36 196.96 192.33"/>
    <path class="cls-7" d="M210.66,176.02c2.4,7.38,.8,11.98-4.8,13.8-2.6,.85-4.91,.61-6.91-.71-2.11-1.35-3.76-3.84-4.94-7.48l-6.46-19.84,5.89-1.92,6.53,20.06c.96,2.94,2.28,4.14,3.95,3.59,1.6-.52,1.92-2.25,.97-5.2l-6.54-20.06,5.89-1.92,6.41,19.67Z"/>
    <path class="cls-7" d="M230.67,173.9c1.06,6.43-1.03,10.08-6.29,10.95l-8.9,1.47-5.2-31.4,9.04-1.49c4.9-.81,7.8,1.55,8.72,7.08,.48,2.93-.14,5.23-1.87,6.9,2.43,.89,3.92,3.05,4.49,6.49m-8.41-11.74c-.35-2.09-1.19-3.03-2.55-2.8l-2.68,.44,1.06,6.41,2.75-.46c1.3-.21,1.77-1.41,1.41-3.6m2.5,12.86c-.43-2.6-1.39-3.78-2.89-3.53l-2.82,.47,1.25,7.58,2.89-.48c1.45-.24,1.97-1.58,1.56-4.04"/>
    <path class="cls-7" d="M259.83,167.9c-.3,5.63-1.38,9.68-3.23,12.14-1.85,2.46-4.54,3.6-8.08,3.41l-6.88-.37,1.71-31.78,7.43,.4c3.34,.18,5.76,1.57,7.25,4.19,1.49,2.62,2.09,6.62,1.8,12.01m-6.27-.2c.2-3.78,.06-6.36-.43-7.72-.47-1.24-1.44-1.9-2.9-1.98l-1.1-.06-1.03,19.21,.95,.05c1.49,.08,2.55-.49,3.18-1.69,.68-1.33,1.13-3.93,1.34-7.81"/>
    <polygon class="cls-7" points="274.86 187.21 259.86 184.25 266.02 153.02 280.77 155.93 279.51 162.31 270.73 160.58 269.68 165.93 275.4 167.06 274.15 173.39 268.43 172.26 267.09 179.05 276.12 180.83 274.86 187.21"/>
    <path class="cls-7" d="M300.14,172.78c-2.33,6.51-6.12,8.82-11.39,6.94l-2.07-.74-3.88,10.87-5.66-2.02,10.7-29.98,8.15,2.91c4.99,1.78,6.38,5.79,4.16,12.01m-5.8-1.87c.88-2.46,.55-3.95-.96-4.5l-1.97-.7-2.66,7.45,1.86,.66c1.59,.57,2.83-.41,3.73-2.92"/>
    <path class="cls-7" d="M315.6,187.43c-5.1,9.71-10.38,13.14-15.83,10.28-5.39-2.83-5.55-9.08-.48-18.74,5.1-9.71,10.37-13.14,15.8-10.29,5.41,2.84,5.58,9.09,.51,18.75m-5.63-2.85c1.72-3.28,2.71-5.69,2.99-7.26,.26-1.44-.06-2.39-.94-2.86-.89-.47-1.84-.19-2.87,.81-1.09,1.07-2.5,3.26-4.23,6.56-1.72,3.27-2.72,5.69-2.99,7.26-.26,1.44,.06,2.39,.94,2.86,.89,.47,1.84,.2,2.87-.8,1.1-1.1,2.51-3.28,4.23-6.56"/>
    <path class="cls-7" d="M322.67,212.23l-5.26-3.87,4.8-11.6-1.33-.98-7.22,9.81-4.84-3.56,18.86-25.64,7.15,5.26c4.27,3.15,4.5,7.31,.67,12.52-2.32,3.15-4.88,4.73-7.68,4.74l-5.15,13.31Zm7.79-21.48c1.53-2.08,1.67-3.57,.43-4.48l-1.95-1.44-4.61,6.26,1.86,1.37c1.3,.96,2.72,.38,4.27-1.72"/>
    <polygon class="cls-7" points="351.42 205.16 347.68 201.54 330.16 219.63 325.76 215.37 343.29 197.28 339.55 193.66 344.16 188.89 356.04 200.39 351.42 205.16"/>
    <rect class="cls-7" x="332.75" y="213.31" width="31.83" height="6.2" transform="translate(-58.24 269.55) rotate(-39.27)"/>
    <path class="cls-7" d="M375.65,226.47l-29.9,12.65-3.45-5.06,22.69-23.22,3.67,5.39-6.94,6.37c-4.38,4.02-7.76,6.99-10.15,8.92,2.54-1.49,6.53-3.58,11.97-6.25l8.45-4.16,3.65,5.36Z"/>
    <path class="cls-7" d="M370.89,252.27c-9.84,4.86-16.12,4.53-18.85-.99-2.7-5.46,.84-10.6,10.62-15.44,9.84-4.86,16.11-4.54,18.84,.96,2.71,5.48-.83,10.64-10.61,15.47m-2.88-5.61c3.32-1.64,5.54-3.01,6.69-4.12,1.05-1.01,1.36-1.97,.92-2.87-.45-.9-1.38-1.24-2.79-1.03-1.51,.23-3.94,1.17-7.28,2.82-3.32,1.64-5.55,3.02-6.69,4.13-1.05,1.01-1.36,1.96-.92,2.86,.44,.9,1.38,1.24,2.79,1.03,1.54-.24,3.96-1.18,7.28-2.82"/>
  </g>
</svg>