<?xml version="1.0" encoding="UTF-8"?>
<svg id="Layer_1" xmlns="http://www.w3.org/2000/svg" version="1.1" viewBox="0 0 400 400">
  <!-- Generator: Adobe Illustrator 29.4.0, SVG Export Plug-In . SVG Version: 2.1.0 Build 152)  -->
  <defs>
    <style>
      .st0 {
        fill: #def1f9;
      }

      .st1 {
        fill: #d7eef9;
      }

      .st2 {
        fill: #02a4dd;
      }

      .st3 {
        fill: #f0f1f0;
      }

      .st4 {
        fill: #01a3dc;
      }

      .st5 {
        fill: #423b3e;
      }

      .st6 {
        fill: #4a4446;
      }

      .st7 {
        fill: #f0f0ef;
      }

      .st8 {
        fill: #01a2dc;
      }

      .st9 {
        fill: #3e373a;
      }

      .st10 {
        fill: #00a3dc;
      }

      .st11 {
        fill: #f0f1ef;
      }

      .st12 {
        fill: #efefee;
      }

      .st13 {
        fill: #3e383b;
      }

      .st14 {
        fill: #f1f1f0;
      }

      .st15 {
        fill: #c6e9f6;
      }

      .st16 {
        fill: #eeefed;
      }

      .st17 {
        fill: #f5f6f4;
      }

      .st18 {
        fill: #fbfdfe;
      }

      .st19 {
        fill: #00a2dc;
      }

      .st20 {
        fill: #e5f4fa;
      }

      .st21 {
        fill: #eff0ee;
      }

      .st22 {
        fill: #f6f7f5;
      }

      .st23 {
        fill: #fafcfd;
      }

      .st24 {
        fill: #413b3e;
      }

      .st25 {
        fill: #3a3336;
      }

      .st26 {
        fill: #f1f2f0;
      }

      .st27 {
        fill: #fefefe;
      }

      .st28 {
        fill: #393235;
      }

      .st29 {
        fill: #eff0ef;
      }
    </style>
  </defs>
  <path class="st19" d="M356.3,2.1v210.5c-6.6,81.1-56.1,149.8-132.6,178.1-5.1,1.9-18.6,7.1-23.3,7.2s-18.4-5.1-23.4-7c-76.2-28-125.1-95.3-133.3-175.7V5.1c-.2-.9.6-3,1.3-3h311.2Z"/>
  <path class="st22" d="M52.2,8.3h295.7s1.9,1.6,1.9,1.6l.5,196.6c-4,79.3-51.5,148.5-125.7,177.2-21.6,8.4-25.4,9.1-47.3.9-75.6-28.4-124-99.5-127.4-179.9-2.7-63,2.1-127.8,0-191,0-1.8.5-4.8,2.4-5.5Z"/>
  <path class="st28" d="M54.4,14.4c1-1,3.2-1,4.5-1.1l285.2.4,2.1,1.3.5,177.5c1.8,81.4-44.5,154.2-119.8,184.8s-22.6,9.7-33.8,6.9c-76.8-18.9-132.1-92-138.9-169.3-5.5-63.2,2.3-131.5-.9-195.3,0-1.5,0-4.3,1.1-5.4Z"/>
  <g>
    <path class="st26" d="M238.2,358l-2.2,6.1-5.6-3.5c-.9,1.2,4.4,6.4,1.3,6.9s-5.7-7.9-5.6-9.2c0-5.9,8.3,2.7,8.7,2.2.2-2.5-1.4-9.5,3-8.6s4.9,8.5,4.9,9.1c0,4.3-4.5,0-4.4-3Z"/>
    <path class="st26" d="M280.7,328.5c.2,1.3,4.3,4.2,4.3,4.8s-2,2.2-2.2,2.2c-.6,0-8.2-7.6-8.2-8.2,0-3.1,9.3-1,11.3-1.3,1.2-1-7.1-7.2-3-6.9s8.1,6.8,8.2,7.4c.7,3.4-8.5,1.9-10.4,2.2Z"/>
    <path class="st11" d="M293.8,308.5c1.4,1.2-5.8,5.4-4.3,7.8,2,.6,4-3.4,4.8-3.5s1.6,1.2.9,2.6-5,5.9,0,4.4,6.6-9.2,5.7-3.9c-.3,1.5-6,7.5-7.3,7.3s-7.5-6.3-7.5-7.3,6.3-8.8,7.8-7.4Z"/>
    <path class="st21" d="M301.6,301.5c-.2.3-5.3.7-4.3,4.3,1.3,1.4,5.8-6.8,9.3-3.3,3,3.1-1.5,10-5.8,9.3-1.3-1.2,5.6-4.6,4.3-6.9-1.3-1.4-5.9,7.1-9.6,3-2.8-3.1,2.9-9.2,4.8-9.1s1.8,2,1.3,2.6Z"/>
    <path class="st29" d="M124.5,326.7c-2.4,1.3-5.9-5.2-7.8-3.5-1.2,1.1,3.4,4.3,3.5,4.8.1,4.2-5.3-2.1-5.6-2.2-.8,0-1.5,1.9-1.3,3s8,4.9,3.9,5.7-6.6-6.2-8.2-7.4c1.5-1.5,7.1-7.6,9-7.3s5.7,5.5,6.6,6.8Z"/>
    <path class="st26" d="M262.5,338c1.9,1.7-5.9,4.8-6.1,5.6s.6,2.1,1.7,1.7,3.2-3.8,5.2-.9c-4.6,1.4-7.1,6.8-.6,3.8.5-.2,6.3-4.6,4.9-1.2s-8.5,6.3-9.5,5.6c-.1-2.3-5.5-7.5-5.2-9s8.4-6.7,9.5-5.7Z"/>
    <path class="st3" d="M192.2,363.2c-.1,4.9-5.3-.3-8.7.9l5.2,3.9c-1.2,2.5-5.2-.5-6.1.4-3.3,3.4,7.6,2.3,6.9,6.1-3.9-.9-10.8-.4-10.1-5.2,1.5-10.7,3.8-7.8,12.7-6Z"/>
    <path class="st12" d="M203.6,372.6c3.2,2,7-2.9,9.4-.3-15.9,12.2-18.3-15.8-.9-6.9-2.3,2.6-5.2-1.2-8.3,1.2s-1.4,5.3-.2,6Z"/>
    <path class="st11" d="M111.5,313.7c-1.9.6-2.8-2.3-3.9-2.4-2-.1-6.4,6.8-8.3,5s5.7-5.8,6-7.5-3.3-2.8-.4-4.6c.9,1.6,7.9,8,6.5,9.5Z"/>
    <path class="st16" d="M114.8,317.9c-.2.4-6.6,5-7.2,5.3-1,.5-1.9,1.1-2.2-.5s6.9-6.5,8.2-8.2c1.1.7,1.9,2.2,1.2,3.4Z"/>
    <g>
      <path class="st7" d="M141.1,348.5c-.9,1,1.2,4.7-1.4,4.2-3-1-.6-6.8-2.2-7.8-2.5-1.6-4.1,4.6-6,2.6s5.9-10.3,6.5-10.3,7.1,5.2,7.3,5.7c1.8,5.2-3.4,4.9-4.1,5.6Z"/>
      <path class="st9" d="M142.7,345.8c-2.4.7-7.5-4.5-3.9-5.2s4.6,3.4,3.9,5.2Z"/>
    </g>
    <g>
      <path class="st14" d="M128.9,339.8c-.7.7,1.3,4.8-1.3,4.3-2.6-1.6-.5-6.2-1.5-7.7-2.3-3.6-3.2,4.2-6.8,1.6l7.4-9.3c1.4-.1,7.3,5.5,7.4,7.2.4,4.5-4.8,3.5-5.2,3.9Z"/>
      <path class="st5" d="M131.4,337.1c-1.5,1.5-6.7-3.7-5.2-5.2s6.7,3.7,5.2,5.2Z"/>
    </g>
    <g>
      <path class="st21" d="M170.1,355.6c3.5,2.1,9.9,3.2,8.7,8.5-1.7,8-9.6,5.2-14.3,1.3,1.6-1.6,3.7-9.6,5.5-9.8Z"/>
      <path class="st9" d="M171.1,358.9c7.1-2.3,6.2,12.3-1.4,7.2s-.5-6.6,1.4-7.2Z"/>
    </g>
    <g>
      <path class="st26" d="M270.1,331.2c12.2-3.7,9.3,16.7-2.1,11.3-5.2-2.4-1.8-10.1,2.1-11.3Z"/>
      <path class="st9" d="M271.8,333c5.2-.5,5.3,8.7-.2,8.5-4.5-.2-5.5-7.9.2-8.5Z"/>
    </g>
    <g>
      <path class="st21" d="M226.9,370.1c-.8.8-4.7-2.9-8.1-.9s.1,4.9-3.2,4.4l.9-13c2.2-2.1,12,7.9,10.4,9.5Z"/>
      <path class="st6" d="M220.8,367.5h-2.6s0-3.5,0-3.5h1.3c1.4.9,1.5,1.9,1.3,3.5Z"/>
    </g>
    <g>
      <path class="st21" d="M248.4,345.9c2.6-.4,4.9,1,4.6,3.7s-4,3.1-4.9,4.8,2,4.8-1.7,5.2l-5.6-9.1c0-1,6.3-4.4,7.5-4.6Z"/>
      <path class="st24" d="M250.4,348.4c.7,2.4-5.4,6-6.1,3s4.5-3.4,6.1-3Z"/>
    </g>
    <g>
      <path class="st12" d="M154.9,359.7c-4.8.9-2.2-4.8-6.1-5.8s-3.8,2.7-6.1.1c11-8.6,13.1-11.7,12.1,5.6Z"/>
      <path class="st13" d="M152.3,353.6c-3.7-.5-3.5-2.7,0-3.5v3.5Z"/>
    </g>
    <g>
      <path class="st19" d="M203.5,358.8c.4-32.3,15.3-61.6,25.2-91.6,4-12,9.1-25.3,7.8-38.2-.5-4.6-4.3-11.1-3.5-14.7.2-1,2.2-.2,2.6-.5.9-.9-1.4-6.6,1.4-6,4.2.9,5.9,11.9,11.7,10.4.8-3.3,1.2-6.5.9-9.9s-2.4-6.5-2.6-8.8,1.8-7,0-10.8c2.7.2,5.2,2.9,8.1,2.4s4.2-5.4,7.6-5.9c2.5,7.9-.8,14.9-1.7,22.6,6,1.2,9.6-3.9,13.9-6.9,1.2,4,2,7.5,1.8,11.7s-2.7,8-2.5,10.2,4.2,9.4,5.3,13c1.4,4.4,3.3,10.3,1.1,14.5-2.3-4.4-4.1-11.8-10-12.1-3.4,10.3,2.9,20,10.5,26.4s6.3,2.6,3.4,4.4-6-.8-8.7-.4c.1,2.4,2.5,3.4,3.6,5.5,3.9,6.8,6.4,17.5-.2,23.2.3-4.5-.7-10.1-4.3-13-.5,4.3-1.2,9.6-3.6,13.3-3.3,4.9-10.5,4.8-11.8,11.6s2.7,6.6,3.3,10.6c-4.6.6-7-2.7-8.7-6.5l-2.6-8.3c-.7,10,.9,20.4,6.9,28.6-13,9.4-38.9,24-54.7,25.2Z"/>
      <g>
        <path class="st27" d="M258.2,333.7c-5.8-1.8-7.8-12.5-8.5-18.4s-.7-8.6-.2-9.4c1-1.6,2.1-1.2,3.7-.4.2,1.9,4,13.3,6.5,12.4-5.2-9.2-1-14.7,7.9-19.2,2.1-1.5,3.2-3.9,3.9-6.3,1.1-12.4,6.6-11.2,9.1-.3,1.8-5.6,0-11.6-2.7-16.6-6.6-7.1-4.3-9.7,4.8-7.6-7.1-4.1-13.9-12.6-14.9-20.9-1.7-13.7,6.9-12.7,11.7-2.4-1.7-7.3-4.2-14.5-7.3-21.5.9-3.3,4.3-17,1.4-19-2.7,3-12.4,9.5-14.4,3.3,1.5-6.2,2.3-12.5,2.3-18.8-3.4,3.5-6.5,6.4-12,3l-.8,7.9c4,6.6,4.4,28.8-6.5,17.6l-4.8-7c.8,3.3,0,5.2-2.6,5.7,3,10.4,5.5,19.7,2.1,31-5.8,20.2-12.7,40.2-20.5,60-5.6,15.7-10.1,31.9-11,48.6l-1.8,3.7c-.6,0-1.2,0-1.7,0l-4.3-1.6c-8.5-5.2-18.6-9.2-28.6-8.9-26.5-13.3-45-25.9-62.3-50.9-41.5-59.7-28.6-127.4-30.6-196-.2-.9.6-3,1.3-3h245.6c.7,0,1.5,2.1,1.3,3-.2,86.1,12.6,175.5-66,232.2Z"/>
        <g>
          <path class="st8" d="M201.8,358.8c-16.1.5-20.3-4-33-10.4,2-3.4,8.8-1.1,12-.2,6.4,1.7,16.7,5.6,21,10.7Z"/>
          <path class="st19" d="M200.9,354.5c-10-4.6-20.6-12.4-32.1-9.6-1.2-1.3,4.3-22.6,6.1-23.9,7.7-5.6,26.7,4.1,29.3,12.8l-3.2,20.6Z"/>
          <path class="st19" d="M201.5,326.1c-3.8-3.4-11.6-8.6-16.7-9-1.7-.1-8.8,2.2-9-.5s9.7-18,11.5-18.9c3.1-1.5,7.5-.1,10.6,1.2s13,9.1,12.5,13.1-5.2,17.1-6.4,17.1c-1.2-.7-1.6-2.4-2.5-3.2Z"/>
          <path class="st19" d="M212.2,305.9c-4.6-1.7-7.6-6.1-12.1-8.3s-7-1.6-10.4-3.5c-.2-1,11.6-14.4,13-14.8,3.8-1.3,14.5,3.7,15.5,7.2s-5.2,14.8-5.9,19.3Z"/>
          <path class="st10" d="M212.8,263.5c3-.9,11.8,2.7,12.9,5s-5,15.4-6.1,15.7c-2.9-1.3-4.4-4.1-7.4-5.6s-5.1-.9-6.8-2.8c-.5-1.5,5.5-11.7,7.5-12.3Z"/>
          <path class="st4" d="M220.6,234.9c2.1-.2,12,2.4,12.9,4.2s-1,10-2.2,10.9c-5-2.1-10.3-1.8-15.3-3.1,1.5-5.2-2.6-11.3,4.6-12Z"/>
          <path class="st4" d="M226.9,265.9c-4.6-2.2-8.6-4.7-13.8-5.3.3-9.5,5.1-13.4,14.3-9.5s0,9.8-.5,14.8Z"/>
          <path class="st4" d="M233.9,226v9.5c-3.7-.2-7.1-2.4-10.9-2.6s-7,1.1-7.3.9c-.5-.4-2.4-8-1.8-8.7,7.1-1.4,13.5,2.6,20,.9Z"/>
          <path class="st2" d="M211.2,211.4c.5.3,5.5,7.1,6.6,8.5s2,1.2.4,2.2-5.5,1.5-6.4,1.3-4.6-5.3-4.9-5.9c-1.5-2.7,1.7-7.6,4.1-6.2Z"/>
          <g>
            <path class="st19" d="M138.4,238.2c-.7,4.4-2.3,8-7.5,8.7s-5.3-2.3-7.9-2.4-3.3,2.1-5.4.6c-2.2-9.4,6-9,11.1-13.4,4.3-3.8,8.1-11.1,12.7-15.1,2.5-7.5-7.7-.8-9.1-7.4,9.6-4.5,8.9-13.8,12.8-21s6.8-5.8,7.8-10.4c1.6-7.7-2.8-18.8-11.2-20.5-4.2-2-15.5,1.4-9-5.8s7.3-3.9,12.6-3.8-.9-5.4-1.6-7.9c-3.1-10.9-2.3-23.8,5.2-32.5-3.3,11.6-3.9,23,3.6,33.3,2.7,3.6,7.2,5.7,8.7,9.5,2.3,5.6,1.2,12.9,2.4,18.8,2.4,2.8,4.3-10.5,4.4-11.7.6-8.4-.7-14.4-3.5-22.2,8.9,2.1,5.7,19.9,16.5,10.9s6.4-10.7,1.7-16.9c.9-.8,4.1,1.9,4.8,2.6,1.8,1.8,3.6,7.3,5.2,7,2.9-.6.8-9.3-1.3-10.9,6.2,0,6.1,6.7,6.5,11.7,8.6-8.4,14.2-18.8,12.6-31.2,3.6.2,4.9,5.4,5.2,8.2,1.5,13.4-6.3,18-11.2,28.8-1.8,4-3.5,12.8-6.7,15s-5.7,1.7-8.9,4.1-3.4,4.1-5.3,6.4c-3,4.6-2.7,4.9.9.9,1.8-2,3.5-4.4,5.8-5.9s8.5-2.7,10.2-4.5c4.7-5,8.5-18.4,13.1-25.1,3.6-5.3,8.1-10.7,15.1-7.9.4.5-10,7.4-4.8,9.5s2.3-2.9,5-4.5c4.5-2.7,12.2-2.7,17.1-1.1s12.5,5.6,10.4,7.4c-4.5-1.1-19-.1-19.1,5.7s6.1,6.1,10,8.1,5.9,5.2,1.1,5-7.5-1.9-7.6,3.3c0,4,3.2,3.3,5.5,4.8,4.6,3,5.6,6.9,4,12-2.5-1.6-4.3-4.8-7.8-4.3,3,4.1,8.4,7.1,7.8,13l-5.7.8c-.7,4.7,2.7,7.3-3,10,6.1,4.6,5.4,10.8,5.2,17.8-2.3-2.1-7.8-11.5-11.6-10.4-2.3.7-.7,7-5.7,5.2,4.5,20.8-8.5,12.7-14.6,1.2-5.3-10.1-4.4-24.5-19-27-4.7-.8-14.8-1.2-17.6,3.3,8.2-3,29.3,1.9,24.5,13.7s-16.7,9.9-22.3,9.8c-2.7,0-5.7-1.7-7.7-1.6-8.3.8-10.4,12.8-13.4,18.6s-10.2,14.9-9.8,20.6c.2,2.8,2.1,6.8,4.3,3.4s2.5-10.2,3.8-13.6c2.3-6.3,7.4-19,12.9-22.7,8.4-5.7,17.9-1,26-4.4,2.8-1.2,10.4-12.7,10.5-4.4,0,13.7-15.9,11.6-24,14.3-23,7.8-14.7,36.8-36,42.2-10,2.6-7.4-9.6,1.7-7.4-5.1-8.1-21.7-4.2-13,5.7-4.3,1.8-14.1-8.9-14.6-12.3-.8-5.1,4.8-1,7.5-.7,8.2.6,11-4.4,10.6-11.7-2.2-.3-2-3.4,0-4.3,4-2.7,3.7-2.7-.9,0-.7,2.1-.6,3.2,0,5.2Z"/>
            <g>
              <path class="st20" d="M184.4,171.3c-.9,1-4.6,7.4-6.1,6.1,1-2.8,3.5-4.8,5.2-6.9l.9.9Z"/>
              <path class="st15" d="M139.3,233c-1.7,1.7,0,3.3,0,4.3-.4.1-.8.5-.9.9-2.8-2.3-1.4-3.1,0-5.2.3-.4.6-.4.9,0Z"/>
              <path class="st18" d="M173.1,185.2c-.8,1.3-1.4,3.8-2.6,5.2l2.6.4c-3.5,3.4-7.4,12-11.9,13.3-2.2.6-5.2.2-7.6,1.1-.8-.5.9-2.6,1.3-3,5.7-7.1,11.4-11.2,17.3-16.9h.9Z"/>
              <path class="st23" d="M138.4,233c3.8-5.6,7.9-6.2,6.9,1.7-2.7,0-3.3-4-6.1-1.7h-.9Z"/>
              <path class="st0" d="M174.8,181.8c1.3-1.6,1.3-4,3.5-3.5.6,2.1-1.9,2.5-2.6,3.5h-.9Z"/>
              <path class="st1" d="M175.7,181.8c-.7.9-2.2,2.9-2.6,3.5h-.9c.7-.7,1.8-2.4,2.6-3.5h.9Z"/>
            </g>
          </g>
        </g>
      </g>
    </g>
    <g>
      <path class="st22" d="M167,34.2c2.6.5,11.1-1.3,12,1.4s.5,24.6.1,28.5c-1.2,12.9-7.1,18.4-20.3,16.8-5.6-.7-12.7-5.6-12.7-11.6v-35.2c2.2.5,12.2-2.4,12.2,1.3v33.9c0,3,8.7,3.3,8.7-2.6v-32.5Z"/>
      <path class="st22" d="M251.2,34.2v33.4c0,4.4,8.7,5,8.7,1.7v-33.9c0-3.5,11.3-2.8,12-.7-.6,10.7,1.3,23.2,0,33.6-.9,7.2-5.4,11.8-12.6,12.6-25.5,2.9-19-20-19.4-36.8,0-2.7-1.7-5.9-.8-8.5s9.4-.9,12-1.4Z"/>
      <path class="st22" d="M306.8,34.2c.2,12.8-6.6,7.7-14.4,8.6s-3.5,2.3-3,5.7c.9,7.2,14.6-1.1,14.9,6,.4,9.9-10.4,3.5-14,6s-1.6,10,.6,10.8c6.5,2.2,18.2-4.8,16.8,8.8h-29.5v-46h28.6Z"/>
      <path class="st17" d="M102.8,34.2v46c-4.3-.4-11.4,3.4-12.2-3-1.5-12.7,1.1-28.5.2-41.6.9-2.7,9.5-.9,12-1.4Z"/>
      <rect class="st22" x="184.4" y="34.2" width="12.2" height="46"/>
      <g>
        <path class="st22" d="M237.3,84.5c-10.6,7.9-10.5-.3-16.7-2.8s-7.3-.5-10.8-2.2c-11-5.3-11.3-34.5-3.4-42.4,4.6-4.6,15.5-5,21-2.1,9.2,4.9,9.1,25,7,33.9s-4,7.6-3.9,8.1c.4,2.2,8.2,5.5,6.8,7.5Z"/>
        <path class="st25" d="M216.2,43c8.9-2.7,7.7,13.7,7.2,19.4-.3,3.3-.7,9.4-4.9,9.8s-5.2-5-5.5-8.1c-.4-4-1-19.8,3.2-21.1Z"/>
      </g>
      <g>
        <path class="st22" d="M144.5,82.8c.6.8-7.5,5.8-8.2,5.8-1.5,0-5.7-4.8-7.6-6-8.8-5.2-13.8,1.6-18.6-11.7-3.2-8.9-3.8-30.2,5.6-35.7s14.2-2.7,18.8,0c8.9,5.2,8.6,25.9,6.2,34.6-2,7.3-6.5,8.3,3.9,13Z"/>
        <path class="st28" d="M127.8,71.3c-1.7,1.7-4.8,1-6.3-.7-2.9-3.5-2.2-20.4-.8-25,1.6-5.3,8.1-3.2,8.9,2.1s.5,21.1-1.9,23.6Z"/>
      </g>
    </g>
  </g>
</svg>