<?xml version="1.0" encoding="UTF-8"?>
<svg id="Camada_1" data-name="Camada 1" xmlns="http://www.w3.org/2000/svg" viewBox="0 0 400 400">
  <defs>
    <style>
      .cls-1 {
        fill: #512412;
      }

      .cls-1, .cls-2, .cls-3, .cls-4, .cls-5, .cls-6, .cls-7, .cls-8, .cls-9, .cls-10, .cls-11, .cls-12, .cls-13 {
        stroke-width: 0px;
      }

      .cls-2 {
        fill: #fe1b15;
      }

      .cls-3 {
        fill: #ae5028;
      }

      .cls-4 {
        fill: #77361d;
      }

      .cls-5 {
        fill: #fefdfe;
      }

      .cls-7 {
        fill: #fecf00;
      }

      .cls-8 {
        fill: rgba(207, 91, 37, .99);
      }

      .cls-9 {
        fill: rgba(109, 75, 17, .99);
      }

      .cls-10 {
        fill: #f9da00;
      }

      .cls-11 {
        fill: #cf5b25;
      }

      .cls-12 {
        fill: #007d0a;
      }

      .cls-13 {
        fill: #290d07;
      }
    </style>
  </defs>
  <path class="cls-6" d="M52.63,16.4c2.8.2,6.47.09,9.36.08l15.37-.03h49.77s155.05.02,155.05.02h47.01c5.14,0,18.67-.34,22.94.33.1,6.5-.21,13.06-.28,19.58l-.02,30.51v138.29s0,54.81,0,54.81l.06,14.12c.02,3.76.22,7.12-.54,10.79-7.1,34.02-40.25,54.19-70.97,64.25-26.48,8.68-55.13,15.48-74.48,37.33-.91,1.02-2.98,4.46-4.12,4.5-1.56-1.38-3.88-4.6-5.66-6.44-5.36-5.53-11.44-10.31-18.08-14.21-17.63-10.4-34.49-14.72-53.62-20.87-22.08-7.11-46.45-19.96-60.45-39.01-3.77-5.17-6.77-10.86-8.91-16.89-.67-1.91-1.53-5.73-2.43-7.29.17-2.36.04-6.43.05-8.92v-17.08s.01-53.21.01-53.21V77.36c0-20.06-.31-40.99-.04-60.97ZM201.93,382.13c23.06-31.87,62.25-32.72,94.31-48.66,20.06-9.98,37.67-23.3,45.28-45.46,3.86-11.23,3.23-21.61,3.23-33.32v-22.35s0-49.88,0-49.88V24.45s-285.58-.03-285.58-.03l.02,178.3v46.72c0,9.78-.62,21.34,1.12,30.76,5.75,31.15,34.89,49.56,62.43,59.68,7.96,2.93,16.04,5.21,24.13,7.74,20.42,6.81,42.33,16.32,55.08,34.5Z"/>
  <path class="cls-12" d="M59.16,24.43l285.59.03v158.01s0,49.88,0,49.88v22.35c0,11.71.64,22.09-3.22,33.32-7.62,22.16-25.22,35.48-45.28,45.46-32.06,15.94-71.25,16.79-94.31,48.66-12.75-18.18-34.66-27.69-55.08-34.5-8.09-2.53-16.16-4.81-24.13-7.74-27.54-10.13-56.69-28.53-62.43-59.68-1.74-9.43-1.12-20.99-1.12-30.76v-46.72s-.02-178.3-.02-178.3ZM202.04,332.4c2.16-3.58,5.56-6.98,8.78-9.62,17.03-13.98,38.76-15.95,57.89-25,17.25-8.47,33.97-21.63,35.91-42.57.75-8.13.3-17.19.3-25.44v-46.88s.02-108.58.02-108.58c-15.99.2-32.28.05-48.3.05l-101.18-.03h-36.41c-5.99,0-13.03-.17-18.96.06l-.88.11c-.42.75-.21,30.14-.21,33.49v94.63s-.05,32.36-.05,32.36c0,5.57-.16,12.14.06,17.61.13,3.22.63,6.41,1.51,9.51,4.29,15.22,15.58,25.21,28.93,32.7,25.21,14.13,53.73,12.49,72.58,37.6Z"/>
  <path class="cls-6" d="M100.11,74.4c5.92-.23,12.96-.05,18.96-.05h36.41s101.18.02,101.18.02c16.02,0,32.3.14,48.3-.05v108.58s-.02,46.88-.02,46.88c0,8.25.45,17.31-.3,25.44-1.94,20.93-18.67,34.09-35.91,42.57-19.13,9.05-40.86,11.03-57.89,25-3.22,2.64-6.63,6.04-8.78,9.62-18.84-25.1-47.37-23.46-72.58-37.6-13.35-7.49-24.63-17.48-28.93-32.7-.88-3.1-1.39-6.29-1.51-9.51-.22-5.47-.07-12.03-.06-17.61l.04-32.36v-94.63c.01-3.34-.2-32.74.22-33.49l.88-.11ZM119.68,246.56c1.5.82,3.07,2.62,4.48,3.84-1.1-2.66-1.29-3.84-4.26-4.63l-.22.79ZM102.26,133.51c.17-1.17.45-2.37-.05-3.44-.47,1.28-.44,2.15.05,3.44Z"/>
  <path class="cls-2" d="M252.13,78.23c4.21-.06,8.43-.07,12.64-.03,4.27-.03,8.54-.02,12.82.03,4.12-.04,8.24-.05,12.36-.04h11.93c-.5,13.99-.1,30.2-.1,44.34v83.86s0,30.25,0,30.25c0,6.08.22,13.95-.49,19.86-3.8.03-7.61.04-11.41.01h-12.31c-4.27.02-8.53.02-12.8-.01-4.01.12-8.62,0-12.67,0-4.13.11-8.63.02-12.79.02l-12.5-.02c-4.18.09-8.59.02-12.8.02l-12.61-.02c-3.5.08-26.28.47-28.52-.26,1.35-1.46,8.36-.06,11.15-3.29,4.24-5.02,8.49-11.15,11.45-17.01,1.88-3.71-.13-8.04-2.87-10.67,1.91-3.14,6.17-12.86,8.57-14.19.34-.77.19-3.61.16-4.59-8.21-3.68-11.3-.76-7.29-13.33,1.47-4.62,1.76-11.47,7.05-12.39.43-.68.42-5.1.26-6.05.11-1.1.08-11.87-.09-12.89.24-.81.23-5.03.05-5.84-1.66-.39-3.48-1.25-4.08-2.97-1.83-5.12-3.27-10.53-4.57-15.81-1.28-5.23,4.97-5.78,8.7-6.97,0-1.37.13-3.42-.21-4.65-1.81-1.35-6.64-11.42-8.33-14.26,9.24-8.44-2.58-18.34-6.89-25.84-3.61-6.27-11.72-3.09-14-6.03-.12-.8-.23-.49.08-1.06,1.41-.27,6.21-.15,7.94-.17l21.46-.03c4.13,0,8.49-.08,12.6,0,4.27-.03,8.54-.02,12.81.04,4.16-.05,8.33-.07,12.49-.04,4.23,0,8.59-.06,12.81.04Z"/>
  <path class="cls-7" d="M201.41,78.2c4.13,0,8.49-.08,12.6,0,4.27-.03,8.54-.02,12.81.04,4.16-.05,8.33-.07,12.49-.04,4.23,0,8.59-.06,12.81.04-.05,7.15-.07,14.3-.04,21.46-4.35-.01-8.64.94-12.58,2.79-4.96,2.33-9.18,6.01-12.16,10.61-6.25,9.64-6.31,22.03-.15,31.73,2.99,4.71,7.25,8.46,12.3,10.84,3.74,1.76,7.8,2.71,11.93,2.79l.43.27c.2,1.18.09,6.3.09,7.86l.02,17.11.05,47.66c0,8.16-.18,17.09.07,25.17-4.13.11-8.63.02-12.79.02l-12.5-.02c-4.18.09-8.59.02-12.8.02l-12.61-.02c-3.5.08-26.28.47-28.52-.26,1.35-1.46,8.36-.06,11.15-3.29,4.24-5.02,8.49-11.15,11.45-17.01,1.88-3.71-.13-8.04-2.87-10.67,1.91-3.14,6.17-12.86,8.57-14.19.34-.77.19-3.61.16-4.59-8.21-3.68-11.3-.76-7.29-13.33,1.47-4.62,1.76-11.47,7.05-12.39.43-.68.42-5.1.26-6.05.11-1.1.08-11.87-.09-12.89.24-.81.23-5.03.05-5.84-1.66-.39-3.48-1.25-4.08-2.97-1.83-5.12-3.27-10.53-4.57-15.81-1.28-5.23,4.97-5.78,8.7-6.97,0-1.37.13-3.42-.21-4.65-1.81-1.35-6.64-11.42-8.33-14.26,9.24-8.44-2.58-18.34-6.89-25.84-3.61-6.27-11.72-3.09-14-6.03-.12-.8-.23-.49.08-1.06,1.41-.27,6.21-.15,7.94-.17l21.46-.03Z"/>
  <path class="cls-2" d="M201.41,78.2c4.13,0,8.49-.08,12.6,0l-.02,114.11v43.03c0,6.18-.29,15.26,0,21.18l-12.61-.02c-3.5.08-26.28.47-28.52-.26,1.35-1.46,8.36-.06,11.15-3.29,4.24-5.02,8.49-11.15,11.45-17.01,1.88-3.71-.13-8.04-2.87-10.67,1.91-3.14,6.17-12.86,8.57-14.19.34-.77.19-3.61.16-4.59-8.21-3.68-11.3-.76-7.29-13.33,1.47-4.62,1.76-11.47,7.05-12.39.43-.68.42-5.1.26-6.05.11-1.1.08-11.87-.09-12.89.24-.81.23-5.03.05-5.84-1.66-.39-3.48-1.25-4.08-2.97-1.83-5.12-3.27-10.53-4.57-15.81-1.28-5.23,4.97-5.78,8.7-6.97,0-1.37.13-3.42-.21-4.65-1.81-1.35-6.64-11.42-8.33-14.26,9.24-8.44-2.58-18.34-6.89-25.84-3.61-6.27-11.72-3.09-14-6.03-.12-.8-.23-.49.08-1.06,1.41-.27,6.21-.15,7.94-.17l21.46-.03Z"/>
  <path class="cls-7" d="M192.82,111.33c9.24-8.44-2.58-18.34-6.89-25.84-3.61-6.27-11.72-3.09-14-6.03-.12-.8-.23-.49.08-1.06,1.41-.27,6.21-.15,7.94-.17l21.46-.03c-.08,11.09-.11,22.18-.06,33.27,0,2.21.14,12.5-.2,14.12-1.81-1.35-6.64-11.42-8.33-14.26Z"/>
  <path class="cls-7" d="M192.61,225.27c1.91-3.14,6.17-12.86,8.57-14.19.33,2.37.14,5.33.18,7.78.19,12.51-.23,25.14.03,37.64-3.5.08-26.28.47-28.52-.26,1.35-1.46,8.36-.06,11.15-3.29,4.24-5.02,8.49-11.15,11.45-17.01,1.88-3.71-.13-8.04-2.87-10.67Z"/>
  <path class="cls-7" d="M201.33,206.49c-8.21-3.68-11.3-.76-7.29-13.33,1.47-4.62,1.76-11.47,7.05-12.39.39.97.37,23.11.24,25.72Z"/>
  <path class="cls-7" d="M201.36,130.23c0,8.51.11,17.26-.05,25.75-1.66-.39-3.48-1.25-4.08-2.97-1.83-5.12-3.27-10.53-4.57-15.81-1.28-5.23,4.97-5.78,8.7-6.97Z"/>
  <path class="cls-2" d="M227.2,144.81c2.99,4.71,7.25,8.46,12.3,10.84,3.74,1.76,7.8,2.71,11.93,2.79l.43.27c.2,1.18.09,6.3.09,7.86l.02,17.11.05,47.66c0,8.16-.18,17.09.07,25.17-4.13.11-8.63.02-12.79.02l-12.5-.02c.41-8.37.06-19.7.06-28.33l.03-55.56v-17.91c0-2.28-.09-7.93.3-9.9Z"/>
  <path class="cls-7" d="M239.5,155.65c3.74,1.76,7.8,2.71,11.93,2.79l.43.27c.2,1.18.09,6.3.09,7.86l.02,17.11.05,47.66c0,8.16-.18,17.09.07,25.17-4.13.11-8.63.02-12.79.02.1-.42.08-5.56.08-6.22l.03-18.64.08-76.01Z"/>
  <path class="cls-2" d="M226.83,78.24c4.16-.05,8.33-.07,12.49-.04,4.23,0,8.59-.06,12.81.04-.05,7.15-.07,14.3-.04,21.46-4.35-.01-8.64.94-12.58,2.79-4.96,2.33-9.18,6.01-12.16,10.61-.98-2.75-.47-29.72-.52-34.85Z"/>
  <path class="cls-7" d="M239.32,78.19c4.23,0,8.59-.06,12.81.04-.05,7.15-.07,14.3-.04,21.46-4.35-.01-8.64.94-12.58,2.79-.31-7.66-.18-16.54-.19-24.28Z"/>
  <path class="cls-6" d="M252.09,99.69c4.4.01,8.74,1.01,12.7,2.93,5.07,2.45,9.33,6.31,12.28,11.12,5.76,9.41,5.75,21.26-.01,30.67-2.94,4.8-7.2,8.65-12.27,11.1-4.16,2.01-8.74,3.01-13.36,2.92-4.13-.08-8.19-1.03-11.93-2.79-5.04-2.37-9.31-6.13-12.3-10.84-6.16-9.7-6.1-22.09.15-31.73,2.98-4.6,7.2-8.28,12.16-10.61,3.93-1.85,8.23-2.8,12.58-2.79Z"/>
  <path class="cls-5" d="M240.34,112.96l.59-.04c1.27.6,4.25,5.88,5.72,7.54-1.21,2.45-3.16,7.7-3.94,10.3-1.51.65-6.41,1.84-8.29,2.36l-.3.21c-.95-.28-5.02-5.96-6.01-7.2,1.48-3.84,3.07-7.7,4.61-11.53,2.55-.51,5.09-1.06,7.62-1.65Z"/>
  <path class="cls-5" d="M248.46,104.39c3.92.39,7.96.63,11.9.92,1.48,2.21,3.04,5.28,4.64,7.75-1.87,2.35-4.03,4.8-5.96,7.19-3.45-.29-7.29-.4-10.76-.55-1.8-2.66-3.65-5.28-5.55-7.87,1.75-1.91,4.02-5.26,5.73-7.46Z"/>
  <path class="cls-5" d="M242.97,132.64c.49.09,7.86,6.19,9.12,7.11-.43,2.87-.52,5.73-1.03,8.71-2.87.79-5.7,1.73-8.47,2.82-2.18-1.3-7.51-5.53-9.42-7.25.43-2.31.66-6.37.84-8.78,2.76-1.13,6.11-1.46,8.95-2.61Z"/>
  <path class="cls-5" d="M263.1,133.3c1.71.92,6.25,2.61,8.16,3.3-.27,2.8-.37,5.41-.48,8.22-1.69,1.76-7.31,5.23-9.64,6.75-.98.24-6.83-2.47-8.18-3.02l.92-9.13c2.53-1.51,6.93-4.41,9.22-6.11Z"/>
  <path class="cls-5" d="M266.27,114.3c1.01.11,6.17,2.73,7.46,3.36,1.52,3.39,2.11,7.04,3.56,10.19-1.67,2.09-3.82,5.12-5.57,6.96-2.63-.9-6.03-2.22-8.52-3.41-.76-3.09-1.68-7.11-2.87-10,1.42-1.95,4.29-5.15,5.94-7.1Z"/>
  <path class="cls-5" d="M230.59,111.85l.37.15c.97,1.73-4.35,13.72-6.08,15.34l-.45-.24c-.14-4.01,3.31-12.43,6.16-15.25Z"/>
  <path class="cls-5" d="M229.25,144.26c1.96.04,12.9,8.57,13.53,10.7-4.18-1.6-11.8-6.43-13.53-10.7Z"/>
  <path class="cls-5" d="M272.67,145.93c.39.11.2,0,.53.38-1.37,2.95-8.75,7.06-11.71,8.4-.14-.09-.28-.17-.42-.26.39-1.39,9.85-7.4,11.61-8.53Z"/>
  <path class="cls-5" d="M249.86,101.84c1.78-.26,9.63-.07,10.6,1.41-.67.3-1.14.21-1.87.18-4.17-.18-8.36-.62-12.56-.84l.39-.14c1.34-.5,2.03-.49,3.44-.6Z"/>
  <path class="cls-5" d="M275.31,115.76c2.4,1.01,4.47,9.97,4.05,12.28-1.04-1.08-3.9-10.64-4.05-12.28Z"/>
  <path class="cls-7" d="M277.04,144.41c.21.37.3.49.3.95l.04,88.94v14.54c.02,1.69-.02,6.25.18,7.66-4.27.03-8.53.03-12.8,0-4.01.12-8.62,0-12.67,0-.25-8.08-.06-17.01-.07-25.17l-.05-47.66-.02-17.11c0-1.56.11-6.68-.09-7.86l-.43-.27c4.62.09,9.19-.91,13.36-2.92,5.07-2.45,9.33-6.3,12.27-11.1Z"/>
  <path class="cls-2" d="M264.78,155.52c.31,3.58.11,9.96.1,13.74l-.04,25.48-.02,40.7c0,6.64.18,14.52-.05,21.07-4.01.12-8.62,0-12.67,0-.25-8.08-.06-17.01-.07-25.17l-.05-47.66-.02-17.11c0-1.56.11-6.68-.09-7.86l-.43-.27c4.62.09,9.19-.91,13.36-2.92Z"/>
  <path class="cls-7" d="M289.94,78.19h11.93c-.5,13.99-.1,30.2-.1,44.34v83.86s0,30.25,0,30.25c0,6.08.22,13.95-.49,19.86-3.8.03-7.61.04-11.41.01l.05-47.81v-85.81c0-14.77-.21-29.98.01-44.71Z"/>
  <path class="cls-7" d="M252.13,78.23c4.21-.06,8.43-.07,12.64-.03,4.27-.03,8.54-.02,12.82.03-.19,9.01-.26,18.02-.23,27.03,0,1.34.19,7.61-.3,8.48-2.94-4.81-7.2-8.67-12.28-11.12-3.96-1.91-8.3-2.92-12.7-2.93-.03-7.15-.01-14.31.04-21.46Z"/>
  <path class="cls-2" d="M252.13,78.23c4.21-.06,8.43-.07,12.64-.03.02,7.88-.17,16.64.02,24.42-3.96-1.91-8.3-2.92-12.7-2.93-.03-7.15-.01-14.31.04-21.46Z"/>
  <path class="cls-2" d="M103.68,260.31c8.92.32,19.38.02,28.42.03h56.4s80.67.02,80.67.02c10.41-.03,20.72.13,31.14-.07-5.88,16.86-15.75,25.46-31.29,33.46-10.79,5.96-23.71,8.46-35.15,12.81-12.24,4.66-24.21,10.75-31.86,21.78-16.91-23.42-47.49-23.24-70.66-36.45-12.82-7.31-23.51-16.92-27.67-31.58Z"/>
  <path class="cls-5" d="M183.94,263.48c4.06-.14,7.49,3.01,7.68,7.07.2,4.06-2.9,7.53-6.96,7.79-2.68.17-5.24-1.12-6.7-3.37-1.46-2.25-1.6-5.11-.37-7.49,1.24-2.38,3.66-3.91,6.35-4Z"/>
  <path class="cls-2" d="M183.81,266.32c5.32.68,5.64,7.61.67,9.23-1.84-.18-3.05-.93-3.73-2.74-.51-1.39-.42-2.93.26-4.25.66-1.28,1.48-1.81,2.8-2.24Z"/>
  <path class="cls-5" d="M273.82,263.5c4.09-.14,7.53,3.06,7.68,7.16.15,4.09-3.05,7.54-7.14,7.7-4.11.16-7.56-3.05-7.71-7.16-.15-4.11,3.06-7.56,7.17-7.7Z"/>
  <path class="cls-2" d="M272.76,266.59c5.56-.78,6.94,5.63,2.55,8.78-5.54.78-6.5-5.66-2.55-8.78Z"/>
  <path class="cls-5" d="M121.55,263.82c5.65.08,13.05-1.26,13.22,6.87.05,2.42-.28,3.38-1.64,5.37-2.75,2.74-7.61,1.93-11.6,1.94l.02-14.18Z"/>
  <path class="cls-2" d="M125.02,266.69c1.3-.04,2.81-.18,4.01.41,3.05,1.5,2.71,4.38,1.31,7.01-1.84,1.38-2.97,1.11-5.29,1.06-.1-2.67-.03-5.77-.03-8.47Z"/>
  <path class="cls-5" d="M198.16,263.83c3.17.01,10.62-.79,12.25,2.56.41.86.46,1.84.15,2.74-.5,1.44-1.99,2.16-3.25,2.78,1.27,1.68,2.73,4.22,3.87,6.07l-3.44.02c-1.29-1.12-3.82-6.88-5.57-5.99-.96,1.7-.67,3.99-.63,5.98l-3.4-.04c.09-4.62.02-9.47.02-14.11Z"/>
  <path class="cls-2" d="M201.67,266.38c1.86-.06,4.19-.46,5.41,1.15.11.92.06.9-.33,1.7-1.44.34-3.78.91-4.95-.09-.44-.82-.21-1.79-.13-2.76Z"/>
  <path class="cls-5" d="M203.04,284.04l3.83.07c1.06,1.52,3.94,6.64,4.67,7.33l.29-.16c.36-1.53.2-5.4.19-7.21l3.35.08c-.12,4.73-.16,9.46-.1,14.19l-3.63-.03c-1.93-2.93-3.59-6.07-5.54-9.05.15,3.02.12,6.05.13,9.08l-3.19-.06v-14.24Z"/>
  <path class="cls-5" d="M158.39,263.83c3.57.05,16.22-1.13,11.26,7.15-.83,1.38-2.96,1.64-4.45,1.7h-3.47s.02,5.3.02,5.3l-3.4-.02c.14-4.65.08-9.47.05-14.13Z"/>
  <path class="cls-2" d="M161.9,266.38c1.89-.05,4.48-.39,5.33,1.6-.02.94-.21,1.07-.75,1.83-1.56.57-3.02.45-4.69.47-.05-1.37-.18-2.57.12-3.9Z"/>
  <path class="cls-5" d="M246.9,284.07c1.38,0,2.77.04,4.15.11.65,1.55,5.11,12.91,4.58,13.92-4.02,1.25-2.71-1.67-4.26-2.66-1.73.05-3.56.02-5.3.03l-1.08,2.83-3.25.02c1.41-4.22,3.42-10.24,5.16-14.25Z"/>
  <path class="cls-2" d="M248.8,287.56l.48.39c.44,1.1,1.66,3.75,1.25,4.81l-.78.02c-1.25.09-1.87.44-2.5-.65-.02-1.02,1.1-3.35,1.55-4.57Z"/>
  <path class="cls-5" d="M166.63,284.01l3.54-.02c0,2-.64,9.93.76,10.92,5.84,4.14,4.42-8.06,4.4-10.88l3.57-.04.03,2.42c0,2.77.08,6.45-.25,9.11-2.03,2.78-3.56,3.01-6.93,2.96-6.87-.09-5.16-9.36-5.12-14.48Z"/>
  <path class="cls-5" d="M228.04,283.86c3.94-.29,5.5.47,8.04,3.4-.73.6-1.9,1.34-2.72,1.88-8.85-10.62-9.65,13.71-.22,4.78.21-.19.28-.17.59-.27.97.37,1.71,1.18,2.5,1.89-2.8,2.51-5.85,4.27-9.64,2.41-1.71-.86-3.01-2.36-3.61-4.18-1.49-4.42.68-8.47,5.06-9.92Z"/>
  <path class="cls-5" d="M152.19,283.87c4.05-.26,5.34.47,7.96,3.48l-2.74,1.83c-6.36-8.3-9.92,5.27-4.01,6.67,1.29.31,2.91-1.06,3.82-1.91.2-.2.05-.07.52-.3,1,.36,1.72,1.13,2.54,1.86-2.59,2.52-5.52,4.21-9.2,2.67-1.77-.75-3.16-2.19-3.85-3.99-1.75-4.53.41-8.79,4.97-10.31Z"/>
  <path class="cls-5" d="M186.06,284.11c2.38.03,8.05-.61,9.5.75.25,1.03.24.5-.14,1.62-.94.67-3.64-.08-5.39.34-.9.82-.73,1.99.1,2.82,1.83.59,3.84-.62,4.89.76.12.85.1.79-.14,1.62-1.12.64-3.38-.18-5.05.35l-.23.48c-.11,1.06-.32,1.99.3,2.81,2.15.56,4.69-.86,6.02.99.04.99.16.55-.35,1.37-.81.48-8.04.31-9.5.32-.03-4.74-.02-9.48.02-14.22Z"/>
  <path class="cls-5" d="M141.71,263.87c1.25,0,8.9-.13,9.57.25.87,4.06-4.36,1.23-6.22,2.84-1.14,3.86,3.01,2.04,5.19,2.62l.32.58c.02.82.08.85-.39,1.55-.73.47-3.79.2-5.07.24-.06,1.17-.02,2.42,0,3.6,1.84-.12,4.16-.53,5.7.25.58.65.9,1.21.4,1.99-1.98.37-7.26.18-9.55.16.06-4.7.08-9.39.06-14.09Z"/>
  <path class="cls-5" d="M246.97,263.81h3.41c1.45,2.96,2.87,6.9,4.07,9.99,1.13-3.23,2.58-6.72,3.85-9.92h3.56s-1.28,2.97-1.28,2.97c-1.47,3.71-2.96,7.41-4.47,11.1-1.05.07-2.18.08-3.24.12-1.96-4.1-4.12-9.92-5.9-14.26Z"/>
  <path class="cls-5" d="M216.4,263.9c2.27-.03,12.03-.35,13.6.23.36.73.25,1.23.21,2.05-1.04.95-3.73.57-5.27.51l-.03,6.3.02,4.99-3.4-.02c.09-3.75.1-7.49.04-11.24-1.64-.03-3.66.46-4.88-.33-.52-.98-.32-1.28-.3-2.49Z"/>
  <path class="cls-5" d="M236.83,263.87l3.52-.03c-.07,4.71-.08,9.43-.01,14.14l-3.52-.02v-14.09Z"/>
  <path class="cls-3" d="M123.12,112.93c1.54-2.1,3.12-3.14,4.05-5.53l-.18-.2c-1.66.99-3.13,2.99-4.41,4.39-1.32,1.44-.58,2.72-1.46,3.49l-.43-.14c-3.99-4.99,6.16-9.66,5.19-13.18-1.22-.06-1.16.71-2.29.74.88-3.16,2.65-8.48,6-9.8,1.07-.42,2.26-.42,3.32.01l.11.39c-.31.9-1.28,1.91-1.92,2.68-.37,1.62.24,2.6.89,4.14-.97,1.19-1.34,1.72-2.14,3.03,1.67-.99,1.96-1.26,3.21-2.68-.34-1.07-.89-2.46-1.28-3.53,1.23-1.55,1.75-2.14,2.81-3.95,1.05-.45,5.19-.31,6.45-.26,3.69.11,4.7,4.18,6.84,6.05,2.62,2.28,5.03,2.25,4.02,6.83-.61,2.74-4.88,1.26-6.68.74h-2.55c-4.78,5.53,4.91,5.11,8.3,3.93-.45,8.53-2.47,5.92-9.53,5.89-.43,2.05-.95,3.67.35,5.48,2.37,3.3,6.37,2.24,9.67,1.46.73-.17,3.24.52,4.13.48,1.25.05,2.81-.63,3.82-.37-.39.57-.54.65-1.06,1.09.24,3.03,5.26,2.63,5.94,3.64-1.33,1.3-4.06-.82-4.28,2.44.53.91,1.61,1.87,1.52,2.32-2.7,1-6.66-3.16-9.53-1.34l.07.37c1.81,1.01,4.5.76,6.47,1.77l-.02.38c-1.26,1.03-4.13,1.36-5.73,1.21l-.25.25c.55,2.47,6.16.11,7.65-.47,2.92-1.13,3.83-.69,6.66.43.32.13,1.18-.91,1.38-1.15,1.26-.39,2.7.33,3.88.18,1.6-.2,3.79-2.45,5.44-1.81.43,1.37.28,4.24.22,5.77-4.53-1.44-7.19,1.57-10.75,4.11-2.62-3.49-6.16-3.38-10.26-3.21,3.34.81,6.63,1.49,9.5,3.46-.39.64-.87,1.23-.87,1.94,1.65-.05,8.37-7.53,11.36-5.06.6,1.52-.84,5.24-1.07,7.7,3.03-.59,6.64-.37,9.77-.27l.16.69c.63.28.8.14,1.17.29l-.62.35c.19,1.36,5.01,3.07,4.76,4.7-1,6.6-4.92,1.69-6.46-.11-.62,1.57-.95,3.04-2.39,3.85-2.08-.08-2.13-2.93-3.6-3.98-1.43.46-1.4,3.06-1.63,4.34-1.12-.8-2.27-1.74-3.58-2.13-.13.81,2.08,2.88,2.66,3.65-3.6,2.07-4.65,2.55-6.96,6.11-3.99,1.05-7.74,1.71-11.14,4.14-1.48,1.23-3.13,2.67-4.7,3.74-1.82,1.38-2.97,2.42-4.64,3.98-5.35,5.64-9.76,10.72-9.57,19.34.03,1.31,1.89,2.43,1.36,4.06l-.93.36-.08.38c.95,1.12,1.25,1.59,1.1,3.1-.75,7.56-10.8,13.56-5.45,21.5.98,1.45,3.47.45,3.26,1.6-.45,2.46-5.63,4.7-7.43,5.73.59-.8,1.52-1.86,1.74-2.77l-.38-.33c-1.08.18-1.59.42-2.4-.11-.86-1.95-2.27-7.83-3.92-8.6l-.35.25c-.02.98.36,1.71.72,2.63-3.15,4.2-8.46,5.24-13.43,5.72.24.87.96,2.96.31,3.65-1.95,2.07-5.76,2.75-5.27,6.57.67,5.12,8.28,6.64,12.21,6.31l-.22.79c-.67.2-.49.05-.93.49l-1.1,1.12-.68.15-.11.34c.26.44,2.86,2.78,3.51,3.44-1.39,1.06-2.86,2.41-4.19,3.58.38-1.12.83-1.97.35-3.15-.63-1.55-1.42-3.55-3.53-2.55.07.48,2.42,2.48,3.15,3.28-1.07,2.38-2.87,4.72-5.68,2.17-1.66-1.51-1.54-3.28-1.5-5.37-.75.77-1.45,1.64-2.39,2.09l-.26-.22c0-.81.06-1.11-.2-1.89-.81-.32-.82.49-2.32,1.08l-.48-.23c-.63-1.17-.39-4.61-.36-6.12,3.62-1.76,3.69-3.48,1.44-6.56.03-.07.07-.13.11-.2l.18-.32c1.59-2.88,3.7-4.46,5.24-7.34-1.31-1.35-2.02-1.83-3.56-2.79.23-1.42.42-3.19.96-4.47,2.06-4.83,5.8-2.5,7.37-3.11l.16-.62c-.63-2.08-3.86-2.47-5.23-4.41-.03-.72-.14-.41.3-.95,1.26.05,2.02,1.72,3.07,1.95,1.67.37,5.35-.51,5.77-2.39-1.28-.88-4.18-.06-4.96-1.38l.21-.42c3.67.01,6.22-1.75,7.01-5.43-1.28-3.78,1.62-3.32.4-5.29-1.9-.91-4.77.49-7.25-.2-2.59-.72-4.41-2.06-5.75-4.41-4.17-7.32.17-13.33,2.73-20.14.84-2.25,1.49-5.51,2.07-7.91,1.02-.18,3.84-.98,4.24.34.75,2.47,0,6.3-.78,8.67-1.3,4.52-3.52,3.68-6.46,5.32-4.29,2.4-1.14,11.62.38,14.46,3.33-.17,5.09-.58,7.73,1.62,1.64-1.31,3.33-2.22,4.86-3.84,7.61-8.09,8.64-17.05,12.71-26.78,1.73-4.14,3.9-6.7,5.48-11.03-.94-4.27-.8-4.87-4.66-7.01,1.08-1.45,4.36-4.32,4.51-5.45-1.69-.22-4.03,3.18-5.15,4.49-1.51-1.87-2.24-3.45-4.06-5.28.99-2.23,1.48-2.83,3-4.64-4.49.77-2.21-.3-3.95-2.07-1.09-.31-2.02.02-3.16.25.89-1.86,1.41-2.81,2.53-4.54-.96-.43-1.59-.91-2.46-1.5-.41.9-.6,1.66-1.4,2.1l-.3-.41c-.26-2.03.18-4.39.55-6.39-1.38,1.23-2.7,3.69-4.11,3.92-1.61-1.45.99-4.26,1.93-5.16.46-.44,1.34-4.85,1.21-5.52-1.53,1.18-.99,3.43-3.64,4.14l-.38-.23c-.22-3.46,5.41-4.12,1.29-10.93Z"/>
  <path class="cls-4" d="M150.72,171.82c.35-.37,3.13-2.34,3.91-3.05,1.31-1.2,1.62-1.91,2.74-3.06l.3.06c.01,1.15-.5,1.17-1.22,2.46l1.33.44c-1.48,1.23-3.13,2.67-4.7,3.74-.02-.59.06-.31-.34-.81-.68,0-1.3.53-1.91.93l-.11-.71Z"/>
  <path class="cls-13" d="M150.72,171.82l.11.71-1.33.99c-7.26,4.81-8.11,4.91-12.17,12.27l-.23-.21c.95-6.02,8.94-10.61,13.62-13.76Z"/>
  <path class="cls-4" d="M142.67,106.14c-.22-.33-.19-.25-.54-.49l-1.21.22-.24-.25.12-.49c1.08-1.23,2.93-.76,4.2-.16.4.58.15.34.85.63l-.62.53h-2.55Z"/>
  <path class="cls-13" d="M145,104.99c1.46-.45,1.89-1.24,3.33-1.63-.4.92-1.67,1.7-2.48,2.26-.7-.29-.45-.04-.85-.63Z"/>
  <path class="cls-13" d="M134.23,185.71l.79.57c1.73,3.09-1.37,8.85-.98,11.83,1.16,8.83,4.04,9.69-2.26,17.5-.33-.29-.22-.11-.32-.57,1.25-2,3.19-4.13,3.55-6.61.44-3.02-1.78-7.21-1.69-9.92.17-5.17,2.01-7.37.92-12.8Z"/>
  <path class="cls-6" d="M140.05,94.94c1.9-1.84,4.85,1.23,4.55,3.42-.85,1.48-3.39,2.03-4.59.75-.45-2.08.52-2.85.04-4.17Z"/>
  <path class="cls-11" d="M139.83,99.26c-.67.73-2.85,2-3.87,1.97-2.04-1.58,2.18-6.14,3.93-6.31l.16.02c.48,1.33-.49,2.09-.04,4.17l-.18.14Z"/>
  <path class="cls-13" d="M139.83,99.26c-.67.73-2.85,2-3.87,1.97-2.04-1.58,2.18-6.14,3.93-6.31-.7.89-3.82,4.37-3.97,5.07,1.48.34,2.06-.97,3.91-.73Z"/>
  <path class="cls-13" d="M140.83,110.65c.76.63.33,1.28.53,2.59,1.24,1.26,5.52-.76,7.72-.33l.08.34-.43.33c-.93-.2-1-.23-1.88.14.46.55.98.86,1.57,1.27v.32c-.3.02-.59,0-.84-.19-2.19-1.7-4.95,0-6.75-1.4-.59-1.09-.34-1.89,0-3.06Z"/>
  <path class="cls-6" d="M133.24,113.7c.2.08.45.25.64.37.36,1.57-.09,2.72-.49,4.27.32.92.91,1.82.84,2.68l-.41-.09c-.68-.68-2.32-2.19-2.07-3.17l1-.35c.44-.85.39-2.6.5-3.72Z"/>
  <path class="cls-6" d="M154.9,125.79c.96,0,1.34.04,1.91.81-.52.29-2.57.46-3.85.87l-.33.11c-.92.44-1.01.49-2,.67v-.29c1.62-1.27,2.37-1.59,4.27-2.17Z"/>
  <path class="cls-6" d="M134.09,105.81c1.01.26,3.65,3.31,5.11,3.63.31.07.45.42.72.8-2.36.03-5.06-2.29-5.83-4.43Z"/>
  <path class="cls-13" d="M137.58,102.61c.84.16.82.22,1.44.77.43,1.22.14,2.07-1.25,2.53-.71.23-1.17-.3-1.75-.7l-.66-.76.11-.35c1.09.43,1.38.59,2.52.73l.34-.32c.03-.88-.26-1.15-.75-1.89Z"/>
  <path class="cls-13" d="M166.2,153.57c.95-.02,3.5-.03,4.07.75-.77.28-1.43.17-2.26.13-1.04.11-3.09.41-3.9-.13.7-.51,1.25-.56,2.1-.76Z"/>
  <path class="cls-6" d="M168.91,158.08l.22.26c-.2,2-2.86,4.36-4.67,5.13l-.23-.4.21-.48c2.32-1.48,3.07-2.29,4.48-4.5Z"/>
  <path class="cls-6" d="M130.08,108.21c1.04,1.29.58,4.57.58,6.53-1.24-1.58-1.07-4.66-.58-6.53Z"/>
  <path class="cls-13" d="M127.66,112.77l.56.44c.21,1.4-.55,4.43-.85,5.9-1.12-.95,0-4.85.29-6.33Z"/>
  <path class="cls-6" d="M174.67,149.39c1.82-.09,5.31,1.31,6.27,2.94-1.36-.37-5.19-2.07-6.27-2.94Z"/>
  <path class="cls-13" d="M131.89,122.81l.25.38c-.36.84-.72,1.51-1.16,2.32.38,1.26.78,2.49,1.02,3.79-1.89-1.37-2.19-4.83-.11-6.49Z"/>
  <path class="cls-1" d="M152.67,140.03c.94.25,2.07,1.72,3.23,2,1.01.25,1.05.45,1.47,1.32-2.32-.36-3.68-1.2-4.7-3.32Z"/>
  <path class="cls-6" d="M145.6,131.41c1.42.45,3.79,2.52,4.47,3.85-1.41-.41-3.97-2.45-4.47-3.85Z"/>
  <path class="cls-6" d="M140.13,115.5c.74,1.39-.04,3.08-1.16,4.05l-.19-.18c-.28-1.1.79-2.79,1.35-3.87Z"/>
  <path class="cls-1" d="M171.69,142.72c.68.65.33,2.9.24,3.84l-.6-.47c-.36-1.38-.14-2.02.36-3.37Z"/>
  <path class="cls-7" d="M102.04,78.17c20.18.29,41.54.13,61.77-.02,1.49,2.1,2.7,4.15,4.3,6.28-5.66,10.46-4.72,12.21,2.2,21.94,3.27,4.59,4.59,8.56,10.48,10.51-.4,1.37-.61,3.37-.81,4.84-4.81,2.93-7.55,5.66-11.7,9.39-.76.68-2.82.87-3.85.61-.06-.13-.12-.25-.17-.38.58-.67,3.04-3.03,3.39-3.53.75-1.08.81-4.3.9-5.61-1.4.82-3.93,2.78-5.45,2.59-1.55-.2-.79-6.14-2.87-6.2-.84.6-1.02,1.27-1.46,2.23l-5.27-.31c-.15-2.4-.09-4.3-.02-6.69,3.85,1.33,8.82,1.67,11.03-2.28,2.03-3.61-.99-6.92-2.85-9.61-.16-.23-.47-2.48-.67-3.14-1.57-.98-4.34,1.07-5.4,2.16-6.94-7.21-10.24-11.92-20.95-11.5.98-1.09,1.59-1.91,2.46-3.08-2.39.09-6.72.22-8.52,1.97-.66.64-.78,1.74-1.78,2.51-1.04-.41-.48-1.85-1.64-2.39-2.18,1.29-.75,4.52-.13,6.32-1.44-.12-2.97-.27-4.37-.63-.89-.23-1.2-.54-1.95.04-.23,1.94,1.55,3.49,1.54,4.44-.81.14-1.81-.34-2.63-.62.67,2.18.87,2.7,1.99,4.59-1.16.52-1.93.64-2.3,1.9.42,1.33,2.48,1.45,2.21,2.98-6.25,7.89,3.01,10.65,1.92,13.32-1.35.03-2.4-1.63-3.98-1.23-1.11,1.65.52,4.61,2.04,5.52,1.81,1.09.63,2.59.9,4.04.45,2.48,1.28,4.44,1.43,7.05.74-.46,1.51-1.07,2.33-1.08.52,2.56,2.13,6.48,2.14,8.52,1.06-.74,1.6-1.21,2.84-1.64,1.06.2,1,.57,1.18,1.92.4,3.04,2.94,5.16,5.07,7.26-.11.16-.22.33-.33.49-2.47,3.77-.21,4.76,3.17,6.11-5.47,8.63-7.12,23.57-14.04,32.12-1.15,1.42-4.4,5.02-6.21,5.25-.78-.97.36-4.8-2.56-4.4-1.08,1.41-.02,3.08-1.82,4-2.35-.22-3.43-2.72-3.42-4.78.03-5.66,1.21-6.11,5.95-6.1,2.7-4.74,4.11-8.06,3.66-13.61.36-.49.71-.99,1.06-1.5,5.76-8.48,5.59-22.04-.94-30.1-1.36-1.67-3.16-2.84-4.93-4.03.65-.89,1.79-2.01,1.26-3.07-1.61-.17-2.99,1.48-4.05,2.52-6-1.31-5.89-2.66-2.84-7.84-3.39-2.95-4.49-2.28-7.48.55.33-4.69.07-9.67.15-14.38.2-11.23-.32-23.02.04-34.2Z"/>
  <path class="cls-7" d="M184.57,157.64c1.63.21,4.21,1.26,5.34.42.94-.69,1.33-1,2.48-1.61l.25-.13c3.49,3.34,4.18,3.72,8.62,5.51.17,1.02.2,11.79.09,12.89-5.28,1.91-8.34,3.47-9.94,9.36-1.36,5.01-3.29,10.15-4.09,15.29-.79,5.08,2,8.21,6.32,10.27-1.64,2.26-4.99,9.11-6.38,11.85-7.26-4.75-11.52.3-15.36,5.93-5.78.6-8.52,1.33-11.43-4.49,2.19-3.26,4.34-3.48,6.45-6.48.99-1.4,1.1-4.46,2.6-5.33.92.81,2.78,9.15,5.71,4.59.11-.84-.46-1.63-.88-2.42.45-1.53.83-2.65,1.4-4.14-1.06-2.57-2.61-4.34-4.28-6.57,1.42-.45,2.19-.58,3.65-.83-.91-1.97-1.9-8.75-3.64-8.87-.37.51-.07,1.73-.03,2.66l-.24.25c-2.02-.68-2.07-2.8-6.92-3.94l-.21-.24c-5.53-6.23-12.3-4.26-20.06-4.75.95-5.06,2.52-4.34,6.03-7.66,3.69-3.5,7.39-8.66,11.93-10.94,1.27-.64,5.61-.44,7.11-1.39.91-.15,1.69-2.54,2.47-2.56,6.6-.13,7.57,1.75,8.47-6.03,1.52.83,2.72,1.89,4.06,2.98l.46-3.64Z"/>
  <path class="cls-7" d="M142.79,198.3c2.5.57,5.02,4.14,6.48,6.09l-.36,3.46c-.78.75-1.82,1.63-2.64,2.36,1.33-.28,2.61-.66,3.92-1.02-2.17,2.58-2.77,2.92-2.82,6.18-2.17.35-3.07.48-5.14,1.2,1.39,1.56,1.88,1.98,2.6,3.94l2.63,1.12c-1.8,3.75-1.81,4.65,2.1,6.44-.96.89-1.94,1.54-3.01,2.3l.88.85c1.18,1.12,1.35,1.21,2.11,2.66.77-.7,1.62-1.4,2.42-2.07.67,1.76.88,3.04,1.02,4.89.86-1.06,1.6-2.24,2.94-2.5l.26.35c-.13,1.06-.92,1.95-1.56,2.86,1.24-.74,2.28-1.42,3.48-2.23,1.53,1.44,3.15,6.57,5.27,7.18.53.15.26-.04.72.38.24,3.39,2.13,6.34,3.81,9.33-1.06,1.42-2.08,3.01-3.06,4.5l-40.16-.09c0-1.07-.18-2.46.47-3.24.83-.47,1.73-.36,2.7-.36l-1.47-1.95c-2-3.78-1.9-5.9-6.01-7.67-3.15.81-3.21,1.06-6.52.43-2.77-.53-6.31-5.7-3.45-6.72l.6.29c.76.87.84,1.85,1.11,3.01,2.98-3.37,2.93-4.58,2.9-8.97,5.62-.11,7.26-1.72,11.75-4.84.22,1.81,1.79,4.61.3,5.5-1.13.12-2.25-.33-3.37-.66,4.23,9.13,8.83-.43,15.25.27.52.06.89.46,1.19.86-.63,1.03-2.23.68-3.17,1.84l.13.42c2.28,2.22,4.25.17,5.87-1.68-.46-2.3-2.28-6.12-1.71-7.9.19-.58.31-.44.24-1.35-.71-1.53-2.14-2.45-3.49-3.45,0,1.49.48,2.69-.73,3.65l-.59-.2c-1.35-1.33-1.56-2.22-2.28-3.94,5.41-8.63,8.22-11.29,8.37-21.52Z"/>
  <path class="cls-3" d="M149.15,216c1.07-.36,3.53-1.09,4.28-1.75,5.09-4.8.02-9.9-2.34-14.1-2.44-4.36-4.87-5.89-7.62-9.36l.09-.33c1.44-.85,5.11-.41,6.76-.46,6.26-.2,8.66.14,13.64,3.99,2.86,2.21,4.23,1.39,6.81,5-.88,2.87-4.59,15.01-5.97,16.86-1.29,1.73-3.33,2.76-4.66,4.46-4.48,5.77,2.74,7.6,3.11,10.07-.47.4-.56.47-.89.97l-.23.36c-1.05-.15-.92-.14-1.82.61-1.1-1.11-1.39-1.26-2.7-2.03-.8.53-1.03.75-1.93,1l-.36-.22c0-.98.53-1.79.99-2.7l-3.16,1.54c-.21-.05-.41-.1-.61-.16-1.5-.41-1.46-.83-2.3-2.27-.93-1.6-1.22-1.69-2.67-2.82,1.39-1.76,7.54-6.62,7.3-8.09l.11.41-.04-.45c-1.4.43-2.13,1.47-3.08,2.56-1.02-1.7-1.22-1.84-2.71-3.09Z"/>
  <path class="cls-7" d="M112.02,150.18c.91,1.64,2.22,4.78,4.27,5.01l.46-.27c.43-1.95-1.48-4.11-.15-5.42,2.83-.29,4.22,2.36,4.21,4.84-.03,4.01-1.1,7.82-3.97,10.73l-.25.25c.54-2.45,2.1-4.91,1.85-7.31l-.31-.32c-1.44.29-4.75,4.72-5.54,5.9-1.02-.45-.72-.51-1.54-.24-.39-7.74-7.39-4.92-6.09,2.3.92,5.09,3.03,4,4.52,7.03l-.35.28c-2.03-.5-3.33-2.09-4.91-1.64-1.56,2.68,2.23,4.73,4.32,5.42-1.96,3.62-3.22,7.19-3.53,11.4-.34,4.64.74,10.62,5.1,13.19,1.11.66,2.47,1.02,3.35,1.96.64,2.65-.83,5.77-1.63,8.3-1.57-1.48-2.83-2.76-4.64-3.96l-.28-.19c-.94.6-1.59.9-2.2,1.83-.16,1.67,2.27,1.99,3.59,2.55l-.07.4c-.11.7-.2,4.98-.06,4.75-1.68,2.64-4.32,9.47-6.2,11.59.39-25.34,0-51.24.03-76.63,4.27,1.63,6.61,1.5,10.03-1.73Z"/>
  <path class="cls-7" d="M177.63,86.4c4.11-.06,6.81,6.13,9.02,9.16,7.16,9.78,5.79,10.18-3.68,16.17-.26,0-1.24,0-1.47-.1-3.68-1.71-7.05-8.83-9.6-12.08-1.23-1.57-3.07-5.19-2.46-6.59.98-2.23,6.21-5.34,8.18-6.56Z"/>
  <path class="cls-7" d="M181.42,224.72c2.19.12,8.67,4.73,9.4,6.44,1.47,3.45-6.06,11.58-7.53,14.54-.94,1.9-3,3.78-4.68,4.54-2.47-.21-7.49-4.1-9.01-6.1-1.85-2.42,2.89-8.29,4.31-10.41,1.91-2.84,4.49-7.42,7.51-9.01Z"/>
  <path class="cls-3" d="M184.26,116.46c1.12.16,1.53.18,2.29.86.05.69,0,.46-.04,1-.16,1.82,2.35,2.79,2.34,4.86-1.9,1.61-5.58-.41-6.05,1.77,1.63,1.24,10-1.71,4.28,6.76-1.96-1.35-3.99-2.61-6.07-3.78,1.42,2.68,1.95,3.8,2.81,6.71-1.05-.09-2.23-.32-3.28-.49-1.04-.44-1.9-.65-2.24-1.8,1.38-.16,2.12.45,3.02.07l-.16-.5c-2.79-2.98-7.74,1.14-11.17.89l-.06-.33c1.78-2.16,7.36-6.48,10.24-7.33,3.59-4.2,2.3-6.16,4.1-8.68Z"/>
  <path class="cls-3" d="M109.6,139.14c9.82.78,10.95,1.56,13.49,11.06-2.56-1.77-3.58-3.52-6.89-3.05-2.43.56-4.01.62-6.48.66-.58.01-1.11,1.49-1.49,2.02-.64.89-1.92.9-2.47-.1-.7-1.6.05-3.77.48-5.38-.56-1.17-1.22-2.07-1.94-3.14,3.03.15,3.23.07,5.31-2.07Z"/>
  <path class="cls-7" d="M187.36,133.52c.43.66.14,2.11.14,3,0,1.49.22,2.47.64,3.88-5.31,6.98-4.85.41-8.32,3.08-.46.24-.52.25-1.01.42l-.18-.37c.29-1.25,1.02-5.53,1.75-6.2,3.85.45,4.44-1.27,6.98-3.82Z"/>
  <path class="cls-11" d="M103.92,136.69c.15-1.33.36-4.33.98-5.37,2.07.75,1.46,4.06,8.47,5.46-1.11,1.05-.71.97-2.02,1.27-4.19-.17-2.51-2.83-7.42-1.36Z"/>
  <path class="cls-7" d="M155.82,103.85c1.18,1.25,3.85,3.54,3.14,5.27-.82.55-.97.53-1.97.72-1.98-.1-2.5-.3-4.36-.89,2.03-2.11,2.03-2.5,3.19-5.11Z"/>
  <path class="cls-11" d="M158.96,100.4c.32.17.55.34.68.74,1.09,3.21,2.73,3.71,3.82,7.38-.62,1.83-.75,2.1-2.28,3.26-.89-.76.87-2.89.41-4.59-.64-2.37-2.86-2.97-3.56-5.34.19-.91.17-.66.94-1.45Z"/>
  <path class="cls-11" d="M160.3,232.32c.9-.75.77-.76,1.82-.61,2.37.14,3.82,1.23,4.1,3.69l-.25.53c-1.01.22-1.49-.72-2.11-1.48-.97.47-1.32.85-2.25.73-.7-.83-.69-1.72-1.32-2.87Z"/>
  <path class="cls-10" d="M113.79,203.16c.9-.04,1.8-.06,2.71-.05.93.02,1.32.13,1.97.8.49,1.31-.01,2.17-.51,3.48l-.53.22c-1.72-.1-3.46-2.92-3.65-4.44Z"/>
  <path class="cls-10" d="M143.24,118.43c2.07.1,4.62.07,6.51.79.36.73.29.32-.03,1.3-2.07.35-4.52,1.11-6.21-.01-.48-.68-.32-1.22-.27-2.07Z"/>
  <path class="cls-10" d="M102.07,252.75c2.04.46,5.18,2.11,6.51,3.78-1.61.1-4.24-.05-5.92-.09-.23-1.18-.41-2.49-.59-3.7Z"/>
  <path class="cls-11" d="M189.43,144.35c.2,2.29.33,2.77,1.36,4.94-1.34-.53-2.68-1.08-4.04-1.55-.37-.14-.54,0-1.17-.29l-.16-.69c1.95-.6,2.49-1.03,4.01-2.41Z"/>
  <path class="cls-11" d="M113.37,136.78c2.99.71,3.81,1.17,6.09,3.4-3.23-1.17-4.7-1.72-8.12-2.13,1.31-.3.91-.22,2.02-1.27Z"/>
  <path class="cls-11" d="M118.75,247.05c1.27,1.01,2.59,1.94,3.29,3.43l-.06.58-.48.34c-.76-.22-2.09-2.2-3.85-3.23l1.1-1.12Z"/>
  <path class="cls-10" d="M112.57,163.59c-.35.43-1.22,1.4-1.73,1.53-1.41.34-2.83-.48-3.23-1.81,1.11-.63,1.93.64,3.42.04.82-.27.52-.21,1.54.24Z"/>
  <path class="cls-11" d="M106.66,229.24c1.09.47,1.42.43,1.62,1.62-.35,1.11-1.38,2.06-2.18,2.97l-.59.4c-.03-.47.96-4.09,1.15-4.99Z"/>
  <path class="cls-11" d="M162.42,236.09c1.09.05,1.91.1,2.65.93-.1.94-.23.79-.96,1.67l-.58.44-.49-.12c-.68-.83-.95-1.88-.61-2.92Z"/>
  <path class="cls-11" d="M164.87,230.53c1.42.48,2.72.45,3.7,1.12.12.74-.08.71-.6,1.54-.21.33-.06.17-.52.4-.84-.54-2.02-2.22-2.57-3.07Z"/>
  <path class="cls-8" d="M119.9,245.77c2.97.78,3.16,1.96,4.26,4.63-1.41-1.22-2.98-3.02-4.48-3.84l.22-.79Z"/>
  <path class="cls-9" d="M102.21,130.07c.51,1.07.22,2.27.05,3.44-.5-1.29-.52-2.16-.05-3.44Z"/>
  <path class="cls-5" d="M236.55,36.91c4.77.1,17.16-1.59,19.01,3.91,1.47,4.39-2.33,5.6-5.68,6.69,4.22,1.19,7.18,2.29,6.74,7.25-3.01,5.8-7.25,4.64-12.91,4.69-2.43.02-4.88-.04-7.31-.04.31-7.09.09-15.28.15-22.51Z"/>
  <path class="cls-12" d="M242.01,49.69c3.1-.04,12.14-.46,7.91,5.15-1.77,1.07-5.73.69-7.96.64.04-1.93.06-3.87.06-5.8Z"/>
  <path class="cls-12" d="M241.98,40.94c2.47-.02,11.41-.82,7.95,4.02-1.89,1.22-5.62.84-7.96.8v-4.82Z"/>
  <path class="cls-7" d="M291.65,307.21c4.5.17,7.21,3.22,6.53,7.81-.75,5.05-6.99,8.83-10.94,11.62-1.28-.94-2.66-1.87-3.96-2.79-2.92-2.18-5.8-4.59-6.81-8.26-.94-3.44,1.08-7.48,4.62-8.34,2.34-.57,4.19,1.05,6.02,2.27,1.08-.08,2.18-1.75,4.54-2.32Z"/>
  <path class="cls-7" d="M81.81,134.34c1.51-.13,2.95-.06,4.47-.03,7.11,4.46,3.06,11.05-1.84,15.13-1.58,1.33-3.72,2.86-5.4,4.14-2.95-2.64-6.9-4.23-9.21-7.81-3.06-4.75-2.54-8.39,2.16-11.46,1.27-.08,2.69-.03,3.97-.02,1.53.91,1.95,1.29,3.09,2.55,1.09-1.21,1.46-1.51,2.75-2.5Z"/>
  <path class="cls-7" d="M319.87,198.05c2.72.63,3,.79,5.04,2.7,1.8-1.68,2.31-1.97,4.64-2.67,4.22.61,6.68,2.66,6.19,7.28-.42,3.96-3.11,6.28-6,8.66-1.79,1.37-2.95,2.26-4.89,3.41-4.04-2.64-9.67-6.13-10.83-11.18-.45-1.96-.04-4.01,1.12-5.65,1.28-1.84,2.71-2.14,4.72-2.54Z"/>
  <path class="cls-7" d="M195.98,342.44c3.13-.06,3.69.54,6.04,2.58,1.6-1.51,2.98-2.58,5.33-2.55,1.5.02,2.92.64,3.95,1.73,1.88,2.02,2.08,5.07,1.1,7.55-1.11,2.81-3.31,4.58-5.51,6.49l-4.82,3.61c-4.99-3.44-13.6-8.53-10.35-16.07.79-1.84,2.45-2.72,4.27-3.34Z"/>
  <path class="cls-7" d="M319.24,262.16c2.5-.05,3.43,1.09,5.4,2.11.46.24,3.15-1.59,4.92-2.12l.37-.11c1.68.51,3.55,1.01,4.56,2.52,3.68,5.45-.66,10.14-4.51,13.29-1.73,1.37-3.14,2.38-4.97,3.62-4.07-2.26-9.19-5.77-10.76-10.42-1.55-4.58.66-7.46,4.97-8.88Z"/>
  <path class="cls-7" d="M73.47,69.95c.91.06,1.62.12,2.46.4.81.28,2.56,2.21,3.15,2.03,2.2-.75,2.48-2.84,5.31-2.49,3.6.43,6.13,3.94,5.57,7.48-.63,3.97-3.21,6.2-6.15,8.52-1.53,1.22-3.24,2.36-4.85,3.49-3.59-2.55-9.31-6-10.54-10.49-1.19-4.34.52-7.88,5.06-8.93Z"/>
  <path class="cls-7" d="M72.83,198.24c2.77-.41,4.44.73,6.26,2.6,1.53-1.5,3.18-2.87,5.32-2.69,6.28.51,6.98,8.45,3.22,12.36-1.2,1.25-1.99,1.97-3.18,2.99-1.73,1.46-3.55,2.81-5.45,4.05-3.73-2.58-8.42-5.44-10.26-9.75-1.93-4.52-.34-7.78,4.1-9.56Z"/>
  <path class="cls-7" d="M111.43,307.2c2.71.18,3.4.81,5.15,2.81,2.53-2.53,3.12-2.75,6.62-2.76,8.03,4.53,3.99,11.26-1.41,15.75-1.68,1.26-3.42,2.42-5.16,3.59-2.94-2.02-6.19-4.17-8.53-6.86-3.77-4.34-3.24-11.54,3.33-12.53Z"/>
  <path class="cls-7" d="M73.27,262.19c2.34-.28,4.31,1.23,5.79,2.84,1.8-2.06,2.49-2.22,5.03-3.02,3.48,1.13,6.27,2.86,5.95,7.14-.29,3.91-3.12,6.45-5.97,8.79-1.76,1.35-3.06,2.34-4.96,3.52-3.87-2.08-9.16-5.88-10.61-10.28-1.52-4.6.39-7.53,4.78-8.98Z"/>
  <path class="cls-7" d="M319.22,69.96c2.94.09,3.78.72,5.66,2.87,4.52-5.5,11.31-2.48,10.86,4.32-.25,3.82-3.06,6.22-5.75,8.49-1.71,1.35-3.3,2.48-5.08,3.73-3.92-2.69-9.35-5.99-10.77-10.79-.55-1.84-.31-3.82.67-5.47,1.01-1.73,2.5-2.7,4.41-3.15Z"/>
  <path class="cls-7" d="M317.82,134.33c1.22-.1,2.79-.06,4.03-.06,1.4,1,1.84,1.32,3.03,2.56,1.11-1.09,1.76-1.58,3-2.52,1.32-.07,2.67-.03,4-.02,7.13,3.94,3.6,10.69-1.17,14.85-1.87,1.53-3.88,2.98-5.82,4.42-3.4-2.53-6.99-4.65-9.38-8.25-2.85-4.29-2.18-8.27,2.31-10.98Z"/>
  <path class="cls-5" d="M205.19,36.83l5.38.02c-.03,3.55-.89,14.73,1.05,17.28.68.89,1.65,1.39,2.76,1.47,1.22.09,2.35-.17,3.26-1.03,2.63-2.51,1.63-13.99,1.6-17.72l5.46.04-.04,5.11c-.03,4.11.91,12.33-1.71,15.38-3.61,4.2-16.98,4.05-17.58-3.02-.48-5.64-.21-11.8-.18-17.53Z"/>
  <path class="cls-5" d="M157.2,36.18c5.29-.59,8.69,1.53,11.48,5.9-1.5,1.01-3.02,1.99-4.54,2.96l-.14-.26c-.94-1.8-2.01-3.4-4.1-3.97-1.25-.33-2.57-.15-3.69.5-3.46,1.99-4.08,7.8-2.22,11.08,1.17,2.08,2.83,2.63,4.99,3.24,2.19-.8,3.06-1.18,4.6-2.89l.7-.88c1.38-.16,2.81,1.52,4.48,2.5l.29.17c-4.4,5.68-10.99,7.33-17.28,3.29-6.95-4.47-5.71-18.16,2.28-20.92,1.12-.39,1.96-.55,3.15-.71Z"/>
  <path class="cls-5" d="M179.53,36.68c1.76.03,3.55.02,5.31.03l-.07,18.11,10.43.02v4.47s-15.93-.08-15.93-.08c.27-2.3.22-6.27.22-8.67l.02-13.87Z"/>
  <path class="cls-6" d="M52.61,286.28c-1.51-2.45-1.05-19.96-1.05-23.94v-37.87s0-154.43,0-154.43v-37.88c.01-2.48-.23-13.73.15-15.42l.91-.35c-.26,19.98.04,40.91.04,60.97v129.69s0,53.21,0,53.21v17.08c-.01,2.49.11,6.57-.06,8.92Z"/>
</svg>