<?xml version="1.0" encoding="utf-8"?>
<!-- Generator: Adobe Illustrator 27.9.1, SVG Export Plug-In . SVG Version: 6.00 Build 0)  -->
<svg version="1.1" id="Layer_1" xmlns="http://www.w3.org/2000/svg" xmlns:xlink="http://www.w3.org/1999/xlink" x="0px" y="0px"
	 viewBox="0 0 400 400" style="enable-background:new 0 0 400 400;" xml:space="preserve">
<style type="text/css">
	.st0{fill:#2A3759;}
	.st1{fill:#FBFAFA;}
	.st2{fill:#B8232F;}
	.st3{fill:#FCF8F8;}
	.st4{fill:#B92933;}
	.st5{fill:#0A5325;}
	.st6{fill:#FEFEFE;}
</style>
<g>
	<path class="st0" d="M379.8,129.9c-1,63.6-21.1,120.4-61.4,169.8c-32.5,39.9-71.5,71.9-117.1,95.7c-1,0.5-1.5,0.8-2.6,0.1
		c-52.8-28-97.1-65.7-131.3-114.8c-26.5-38-41.3-80.3-45.9-126.5C17.8,118.1,22,82.9,34.2,48.7c2.5-7,6.1-13.7,8.9-20.6
		c1-2.5,2.2-3,4.7-2.2c16.1,4.9,32.5,8.2,49.4,8.6c33.9,0.6,65.8-6.7,94.5-25.1c6.1-3.9,10.3-4.1,16.6-0.1
		c37,23.4,77.6,29.3,120.4,22.6c8.1-1.3,16-3.9,23.9-6c2.3-0.6,3.3-0.3,4.4,2c11.9,24.5,19,50.3,21.5,77.5
		C379.1,113.5,380,121.6,379.8,129.9z M366.3,129.8c0.2-10.1-0.6-20.1-1.8-30.1c-2.4-19.3-6.7-38-15-55.7c-1.2-2.6-2.3-3.2-5-2.4
		c-4.1,1.3-8.4,2.4-12.6,3.1c-45.5,7.5-88.6,1.2-128.5-22.8c-2.6-1.6-4.4-1.5-6.9,0.1c-6.8,4.3-14,8.1-21.5,11.2
		c-38.8,16-78.5,19.1-119.2,8.5c-2.9-0.8-4.2-0.4-5.4,2.5c-2.4,6-5.2,11.8-7,18C26,122.4,31.1,181.1,57.8,237.3
		c29.8,62.8,78.9,107.6,138.4,141.9c2.8,1.6,5,1.5,7.7-0.1c36.9-20.6,69.1-46.9,96.8-78.7C343.3,251.6,365.8,194.9,366.3,129.8z"/>
	<path class="st1" d="M366.3,129.8c-0.4,65.1-23,121.7-65.6,170.6c-27.7,31.8-59.9,58.1-96.8,78.7c-2.8,1.5-4.9,1.7-7.7,0.1
		c-59.5-34.3-108.6-79.1-138.4-141.9C31.1,181.1,26,122.4,43.4,62.2c1.8-6.2,4.6-12,7-18c1.2-2.9,2.5-3.2,5.4-2.5
		c40.7,10.5,80.4,7.5,119.2-8.5c7.5-3.1,14.6-6.9,21.5-11.2c2.5-1.6,4.3-1.6,6.9-0.1c39.9,24,83,30.4,128.5,22.8
		c4.3-0.7,8.5-1.8,12.6-3.1c2.7-0.8,3.8-0.2,5,2.4c8.2,17.7,12.5,36.5,15,55.7C365.7,109.7,366.4,119.7,366.3,129.8z M352.9,127
		c-0.2-20.9-3.3-43.8-10.8-66c-1.1-3.4-2.5-4.1-6.1-3.5c-46.4,8.5-90.6,2.7-132.3-19.9c-2.6-1.4-4.5-1.6-7.3-0.1
		c-39.8,21.9-82.4,27.9-127,21.1C59,57.1,58.9,56.8,56,66.9c-16.8,59.7-10.7,117.5,17.6,172.3c28.1,54.4,71.9,94,123.7,125.4
		c2.6,1.6,4.2,0.5,6.1-0.7c30.5-18.1,57.7-40.2,81.7-66.4C328.7,250,352.5,194.5,352.9,127z"/>
	<path class="st2" d="M352.9,127c-0.3,67.5-24.1,123-67.7,170.5c-24,26.1-51.2,48.2-81.7,66.4c-1.9,1.1-3.5,2.2-6.1,0.7
		c-51.8-31.4-95.6-71-123.7-125.4C45.4,184.4,39.3,126.6,56,66.9c2.8-10.1,3-9.8,13.3-8.2c44.6,6.8,87.2,0.7,127-21.1
		c2.8-1.5,4.6-1.3,7.3,0.1c41.7,22.6,86,28.5,132.3,19.9c3.5-0.6,4.9,0.1,6.1,3.5C349.6,83.3,352.7,106.2,352.9,127z M147.3,157.4
		c-2.7,1.7-5.4,3.4-8.2,5c-3.7,2.2-7.6,3.5-12,3.1c-4.9-0.4-7.7-3-8.4-7.8c-0.6-4.2,0-8.4,1.3-12.4c12.7-38.9,47.5-53.9,77.8-50
		c17.9,2.3,26.5,11.1,29.1,28.9c1.9,12.7-0.3,25.1-2.2,37.5c-0.7,4.3-2.4,6.4-7,7.7c-20.6,5.6-38.3,15.6-47.9,35.9
		c-0.6,1.2-1.2,2-2.7,1.5c-7.1-2.5-14.2-5-22-7.7c6.9-5.8,13.2-11,18-17.6c4.8-6.7,8.8-13.9,12.8-21.1c4.4-8,8.8-16,13.2-24
		c4.7-8.6,11.1-15.6,19.6-20.6c1.7-1,3-2.2,2.8-4.9c-9.4,3.6-18.5,6.9-26.4,12.9c-12.8,9.7-21.7,22.6-29.8,36.2
		c-5.3,8.7-10.7,17.3-16.9,25.4c-4.9,6.4-9.9,9.2-18.5,7.5c-10.9-2.1-22.2-1.9-32.2,4.4c-3.1,1.9-7.4,3.7-6.6,8.1
		c0.8,4.3,5.5,4.3,8.9,4.7c14.7,1.7,29.3,1.5,43.3-4.2c1.5-0.6,2.9-0.4,4.4-0.4c8.6,0.1,16.8,2.8,25.2,4.4c3.9,0.8,4.9,1.8,4.4,5.9
		c-2,15.3,9.3,27,23.9,25.1c8.6-1.1,15.9-5.1,21.7-11.6c1-1.2,2.1-2.4,1.8-4.3c-2.3,0.5-3.4,2.2-4.9,3.5c-3.7,3.2-7.6,5.9-12.5,6.8
		c-4.7,0.9-8.2-0.6-9.6-4.6c-2.2-6.1-1-12.2,0.9-18.1c1.3-3.9,5.5-2.9,8.3-4.3c4.2-2.1,8.3-4.1,12.1-6.8c11.1-8,20.4-17.6,27.3-29.5
		c0.7-1.2,1-2.9,2.8-3.2c13.2-2.1,26.4-3.6,38.4,3.8c14.1,8.7,15.8,27.2,3.6,38.4c-7.2,6.7-15.9,10.6-25.8,11.5
		c-2.2,0.2-4.5,0.1-6.7-0.4c-1.9-0.5-2.6-1.2-1.4-3c8.2-12.8,15.2-26.8,30.7-32.8c1.6-0.6,2.9-1.6,2.5-3.9
		c-15.8,2.1-30.3,6.6-42,18.3c-10.1,10.1-17.2,22.2-25.1,33.9c-9.3,13.6-18.9,27-31.4,38c-6.4,5.6-13.6,8.5-22.2,7.8
		c-4-0.4-6.7-2.4-8.3-6c-0.8-1.9-1.3-3.9,1.6-4.5c2.2-0.5,2.3-2.1,2.3-3.8c0.1-4.4-2.6-7.8-6.6-8.3c-4.9-0.7-8.3,1.4-9.7,6
		c-2.4,8.2,2.9,15.7,13.4,18.3c12.8,3.2,25.2,1.4,37.3-3.9c22.6-9.8,39.4-25.8,51.3-47.2c3.8-6.8,4.3-6.8,11.7-5.1
		c1.5,0.3,2.9,0.8,4.3,1.3c9.4,3.4,12.7,9.3,10.1,18.9c-2.6,9.6-8,17.7-15,24.7c-11.1,11.1-23.6,10-32.6-2.9
		c-0.5-0.7-0.5-2.4-2.1-1.7c-1.4,0.7-1.1,1.8-0.4,3c3.6,6,8.2,10.7,15.4,12c7.4,1.3,15,1.6,22.4,0c9.9-2.1,19.5-5.6,23.8-15.7
		c6.1-14.5,4-29.8-9-39.2c-0.3-0.2-0.4-0.7-0.6-1.2c10.5-2.1,19.7-6.7,27.8-13.2c14.3-11.3,12.8-28.9-2.7-38.2
		c-14.2-8.6-29.6-10.7-45.8-9.7c-2.6,0.2-5.2,0.3-8.3,0.6c2.8-6.5,4.8-12.4,6.1-18.6c4.5-22.6-6.1-41.3-27.8-48.8
		c-33.2-11.5-63.6-4.1-91.8,14.7c-11.4,7.6-19.9,18.4-23.2,32.1c-1.8,7.5-2.1,15.3,5,21c11.1,8.8,29.9,6.4,38.5-4.8
		C147.5,159.4,148.2,158.7,147.3,157.4z"/>
	<path class="st3" d="M147.3,157.4c0.9,1.3,0.1,2-0.4,2.7c-8.6,11.2-27.4,13.6-38.5,4.8c-7.2-5.7-6.8-13.5-5-21
		c3.3-13.7,11.8-24.5,23.2-32.1c28.2-18.7,58.6-26.2,91.8-14.7c21.7,7.5,32.4,26.2,27.8,48.8c-1.2,6.2-3.3,12.1-6.1,18.6
		c3.1-0.2,5.7-0.4,8.3-0.6c16.2-1,31.6,1.1,45.8,9.7c15.5,9.4,17,26.9,2.7,38.2c-8.1,6.4-17.3,11-27.8,13.2c0.2,0.5,0.3,1,0.6,1.2
		c13,9.4,15.1,24.7,9,39.2c-4.3,10.1-13.9,13.5-23.8,15.7c-7.4,1.6-14.9,1.3-22.4,0c-7.2-1.2-11.9-5.9-15.4-12c-0.7-1.2-1-2.3,0.4-3
		c1.6-0.7,1.6,1,2.1,1.7c9,12.8,21.5,14,32.6,2.9c7-7,12.4-15.1,15-24.7c2.6-9.7-0.8-15.6-10.1-18.9c-1.4-0.5-2.8-1-4.3-1.3
		c-7.5-1.7-8-1.7-11.7,5.1c-11.9,21.4-28.8,37.3-51.3,47.2c-12,5.2-24.5,7-37.3,3.9c-10.6-2.6-15.8-10.1-13.4-18.3
		c1.3-4.6,4.7-6.7,9.7-6c4,0.6,6.7,3.9,6.6,8.3c0,1.6-0.1,3.3-2.3,3.8c-2.9,0.6-2.4,2.7-1.6,4.5c1.6,3.5,4.3,5.6,8.3,6
		c8.6,0.8,15.8-2.2,22.2-7.8c12.5-11,22.1-24.3,31.4-38c7.9-11.6,15.1-23.8,25.1-33.9c11.6-11.6,26.2-16.2,42-18.3
		c0.3,2.3-0.9,3.3-2.5,3.9c-15.5,6-22.4,20-30.7,32.8c-1.2,1.9-0.5,2.6,1.4,3c2.2,0.5,4.5,0.6,6.7,0.4c9.9-0.9,18.5-4.9,25.8-11.5
		c12.2-11.2,10.5-29.8-3.6-38.4c-12.1-7.4-25.3-5.9-38.4-3.8c-1.8,0.3-2.1,2-2.8,3.2c-6.9,11.8-16.2,21.5-27.3,29.5
		c-3.8,2.7-8,4.7-12.1,6.8c-2.8,1.4-7,0.4-8.3,4.3c-1.9,5.9-3,12-0.9,18.1c1.4,3.9,4.8,5.5,9.6,4.6c4.8-1,8.8-3.6,12.5-6.8
		c1.4-1.3,2.5-3,4.9-3.5c0.3,1.9-0.8,3.1-1.8,4.3c-5.9,6.5-13.1,10.5-21.7,11.6c-14.6,1.9-25.8-9.9-23.9-25.1
		c0.5-4.1-0.4-5.2-4.4-5.9c-8.4-1.6-16.5-4.2-25.2-4.4c-1.5,0-3-0.2-4.4,0.4c-14,5.7-28.6,6-43.3,4.2c-3.4-0.4-8-0.4-8.9-4.7
		c-0.9-4.5,3.5-6.2,6.6-8.1c10-6.3,21.3-6.5,32.2-4.4c8.6,1.7,13.7-1.1,18.5-7.5c6.2-8.1,11.7-16.7,16.9-25.4
		c8.1-13.5,17.1-26.5,29.8-36.2c7.8-6,17-9.2,26.4-12.9c0.2,2.7-1.1,3.9-2.8,4.9c-8.5,5-14.9,12-19.6,20.6c-4.4,8-8.9,16-13.2,24
		c-3.9,7.2-7.9,14.4-12.8,21.1c-4.8,6.6-11,11.7-18,17.6c7.8,2.7,14.9,5.2,22,7.7c1.5,0.5,2.1-0.3,2.7-1.5
		c9.7-20.4,27.3-30.3,47.9-35.9c4.6-1.2,6.3-3.3,7-7.7c1.9-12.5,4-24.8,2.2-37.5c-2.6-17.8-11.2-26.6-29.1-28.9
		c-30.4-3.8-65.2,11.1-77.8,50c-1.3,4-1.9,8.2-1.3,12.4c0.7,4.9,3.5,7.4,8.4,7.8c4.4,0.4,8.3-0.9,12-3.1
		C141.9,160.8,144.6,159.1,147.3,157.4z M121.6,201.4c-3.8-0.9-7.3-1.9-10.9-2.7c-4.1-0.9-8.2-1.9-12.4-1.9c-1.8,0-3.6,0.1-5.3,0.5
		c-2.4,0.5-4.1,2.1-4.5,4.5c-0.4,2.6,1.7,3.7,3.6,4.5C99.4,209.6,112.9,210.6,121.6,201.4z M190.7,206.9
		c14.3-6.3,21.8-17.2,28.1-29.4C206.5,184,197,193.1,190.7,206.9z"/>
	<path class="st4" d="M121.6,201.4c-8.7,9.2-22.2,8.2-29.5,5c-1.9-0.8-4-1.9-3.6-4.5c0.4-2.4,2-4,4.5-4.5c1.7-0.4,3.6-0.5,5.3-0.5
		c4.2,0,8.3,1,12.4,1.9C114.2,199.6,117.8,200.5,121.6,201.4z"/>
	<path class="st4" d="M190.7,206.9c6.3-13.9,15.8-23,28.1-29.4C212.5,189.7,205,200.6,190.7,206.9z"/>
</g>
</svg>
