<?xml version="1.0" encoding="UTF-8"?>
<svg version="1.1" xmlns="http://www.w3.org/2000/svg" width="2400" height="1332">
<path d="M0 0 C38.61 0 77.22 0 117 0 C119.77921875 19.00722656 122.5584375 38.01445313 125.421875 57.59765625 C127.23913623 70.02523374 129.05640967 82.45280945 130.8737793 94.88037109 C130.98819075 95.66274225 131.1026022 96.44511341 131.22048067 97.25119278 C132.93999008 109.00957407 134.65953425 120.76795027 136.37910408 132.52632272 C136.74882436 135.05446097 137.11854352 137.58259938 137.48826265 140.1107378 C150.39235424 228.34871742 163.30102048 316.58601792 176.6875 407.875 C176.91103307 409.39938305 176.91103307 409.39938305 177.13908195 410.95456171 C180.75842238 435.63651613 184.37857519 460.31835132 188 485 C186.887012 469.18829604 185.74219657 453.3802587 184.48960876 437.5789814 C184.08470488 432.46492526 183.68460313 427.35049257 183.28417969 422.23608398 C183.20025467 421.16443969 183.11632965 420.09279539 183.02986145 418.98867702 C176.91136629 340.77802281 171.52922933 262.52511711 168.09472656 184.14652252 C168.00348422 182.078953 167.91033422 180.01147985 167.81640625 177.94403076 C165.13787353 118.6712638 165.81909459 59.31687436 166 0 C191.08 0 216.16 0 242 0 C242 210.21 242 420.42 242 637 C206.69 637 171.38 637 135 637 C126.9506197 581.80424938 126.9506197 581.80424938 123.43603516 556.75439453 C123.02933393 553.86152316 122.62226014 550.96870424 122.21520996 548.07588196 C121.24222792 541.15951279 120.27052528 534.24296454 119.29932113 527.32634552 C118.14689656 519.11949673 116.99312313 510.91283771 115.83934586 502.70617901 C113.76084866 487.9217765 111.68354618 473.13720639 109.60693359 458.35253906 C107.63781628 444.33320184 105.667809 430.31399008 103.69677734 416.29492188 C92.23442175 334.76747493 80.80256018 253.23591945 67 154 C67.02590916 154.58447387 67.05181832 155.16894774 67.07851261 155.77113295 C69.71879568 215.34331439 69.71879568 215.34331439 70.69140625 238.65625 C70.71879859 239.3124124 70.74619093 239.96857479 70.77441335 240.6446209 C71.88942197 267.385818 72.84860073 294.13071476 73.65920639 320.8829422 C73.74776308 323.80128334 73.83759884 326.71958283 73.92764282 329.63787842 C74.30081145 341.81167832 74.62940748 353.98618563 74.92876053 366.16201401 C74.99879276 368.95190677 75.07317478 371.7416523 75.14865112 374.53140259 C76.46501745 423.94994005 76.11791288 473.39673328 76.0720278 522.82789779 C76.06064498 535.30765423 76.05530034 547.78741136 76.05032361 560.26717174 C76.0399954 585.84478827 76.02172892 611.42239044 76 637 C50.92 637 25.84 637 0 637 C0 426.79 0 216.58 0 0 Z M189 492 C189 494.31 189 496.62 189 499 C189.33 499 189.66 499 190 499 C190 496.69 190 494.38 190 492 C189.67 492 189.34 492 189 492 Z M190 503 C191 506 191 506 191 506 Z " fill="#1C4189" transform="translate(1679,690)"/>
<path d="M0 0 C38.61 0 77.22 0 117 0 C123.89593151 44.82355479 123.89593151 44.82355479 126.72509766 64.26367188 C127.05533461 66.52471395 127.38570588 68.78573641 127.71619606 71.04674149 C128.41806353 75.8504392 129.11901756 80.65426888 129.81919098 85.45821381 C130.85253289 92.54804195 131.88761448 99.63761545 132.92310995 106.72712931 C134.64942377 118.54656661 136.37449527 130.36618486 138.09881592 142.18591309 C140.64192085 159.61798986 143.18713506 177.04975831 145.73291016 194.48144531 C145.83900056 195.20788264 145.94509097 195.93431997 146.05439624 196.68277055 C147.02090179 203.30075428 147.98742452 209.91873551 148.9539932 216.53671002 C150.03127923 223.91275935 151.10851269 231.28881635 152.1856041 238.6648941 C160.41097707 294.99320295 168.6583621 351.31827025 176.91908169 407.64140701 C177.52892896 411.79953559 178.13872691 415.95767139 178.74852419 420.11580729 C182.16475959 443.41067366 185.58176749 466.7054266 189 490 C188.9027916 488.815271 188.80558319 487.63054199 188.70542908 486.40991211 C181.76631413 401.75363526 175.24193822 317.07317399 170.6875 232.25 C170.64912899 231.54043404 170.61075798 230.83086807 170.57122421 230.09980011 C170.0803859 221.01250067 169.63362731 211.92389065 169.22253418 202.8326416 C169.0687528 199.44864384 168.90507666 196.0652722 168.73596191 192.68200684 C166.82705631 154.19142519 166.74952478 115.75467173 166.85594517 77.22879434 C166.88320929 67.17801749 166.89342025 57.12722086 166.90496635 47.07641602 C166.92341155 31.38423012 166.96335506 15.69217847 167 0 C191.75 0 216.5 0 242 0 C242 210.21 242 420.42 242 637 C206.69 637 171.38 637 135 637 C128.82538015 593.04890652 122.65165117 549.09768802 116.47909373 505.14630485 C116.12611616 502.63294757 115.77313658 500.11959058 115.42015696 497.6062336 C103.06854992 409.65751567 90.72552421 321.70762865 78.4375 233.75 C78.23061538 232.26914712 78.23061538 232.26914712 78.01955128 230.75837803 C74.67791856 206.83916746 71.33777477 182.91974924 68 159 C67.96710941 165.81761501 67.99241125 172.61344757 68.31958008 179.42358398 C68.35383496 180.18501017 68.38808985 180.94643635 68.42338276 181.73093605 C68.49758483 183.37447454 68.57296978 185.01795999 68.64944839 186.66139412 C68.77370967 189.33603141 68.89437703 192.01081089 69.01412964 194.68565369 C69.18807522 198.57007526 69.3629205 202.45445455 69.53842163 206.33880615 C71.1018266 241.0396001 72.48323334 275.74330627 73.5941124 310.46159744 C73.71139643 314.12049413 73.83038246 317.77933466 73.94957924 321.43816948 C75.38465823 366.23513372 76.15399135 410.99402303 76.10139394 455.81499362 C76.09499944 462.21960251 76.09454423 468.62421226 76.09336853 475.02882385 C76.09064649 485.71721822 76.08446737 496.40560365 76.07543945 507.09399414 C76.06617538 518.07381149 76.05913936 529.05362677 76.05493164 540.03344727 C76.05466892 540.71706923 76.05440619 541.4006912 76.05413551 542.10502898 C76.05282991 545.53659775 76.05156634 548.96816654 76.05032361 552.39973533 C76.04005727 580.59982979 76.02167878 608.79991187 76 637 C50.92 637 25.84 637 0 637 C0 426.79 0 216.58 0 0 Z M66 145 C66 146.98 66 148.96 66 151 C66.33 151 66.66 151 67 151 C67 149.02 67 147.04 67 145 C66.67 145 66.34 145 66 145 Z M190 500 C191 504 191 504 191 504 Z " fill="#1C4189" transform="translate(533,690)"/>
<path d="M0 0 C38.61 0 77.22 0 117 0 C120.44584756 19.5264695 120.44584756 19.5264695 121.68417358 28.11405945 C121.82958356 29.10754408 121.97499353 30.10102872 122.12480986 31.12461895 C122.60302433 34.39612905 123.07764781 37.66814906 123.55224609 40.94018555 C123.90004812 43.3246877 124.2480775 45.70915669 124.59631348 48.0935955 C125.34635331 53.2327325 126.09484721 58.37209209 126.84193039 63.51165962 C127.94394405 71.09285515 129.04897525 78.67360868 130.15466447 86.25426891 C131.99514008 98.87311481 133.83341797 111.49227986 135.67041016 124.1116333 C138.26448745 141.93160016 140.86175044 159.75110175 143.4599871 177.57046258 C143.80103329 179.90944338 144.14207305 182.24842511 144.4831109 184.58740711 C145.39475674 190.83985019 146.30640426 197.09229302 147.21808934 203.34473038 C148.59174207 212.76547935 149.96511144 222.1862696 151.33827424 231.60709 C159.55445591 287.97551103 167.79846365 344.3398275 176.05866241 400.70181656 C177.0018481 407.13748792 177.94487692 413.57318226 178.88787842 420.00888062 C182.25761637 443.00606253 185.62814617 466.00312822 189 489 C188.95491523 488.43987591 188.90983046 487.87975182 188.86337948 487.30265427 C181.48533586 395.5909622 174.32559646 303.86456118 168.7265625 187.2890625 C168.63646912 185.31310341 168.63646912 185.31310341 168.54455566 183.29722595 C168.3889494 179.75130605 168.24198439 176.20532985 168.10376549 172.65870285 C168.02835652 170.72655707 167.95119018 168.79447963 167.87296486 166.86244583 C167.09957136 147.46050252 166.86055898 128.10212077 166.89860606 108.68810892 C166.90501146 104.84455468 166.90545657 101.00099894 166.90663147 97.15744019 C166.90969558 89.93357441 166.91783994 82.70972441 166.92798096 75.48586547 C166.94142932 65.68577951 166.94668191 55.88568899 166.95248318 46.08559608 C166.96178533 30.72371898 166.98173621 15.36187513 167 0 C191.75 0 216.5 0 242 0 C242 210.21 242 420.42 242 637 C207.02 637 172.04 637 136 637 C133.7948016 634.7948016 134.05274206 630.04272593 133.63226318 626.98446655 C133.42896269 625.54266684 133.42896269 625.54266684 133.22155511 624.07173985 C132.76314762 620.8131885 132.31081892 617.55382119 131.85839844 614.29443359 C131.53073133 611.95621725 131.20269291 609.61805292 130.87431145 607.27993679 C130.16032451 602.19010955 129.44896491 597.09992214 128.73988724 592.00940895 C127.6928331 584.49265628 126.64098238 576.97658057 125.58806439 569.46064732 C123.83391639 556.9382649 122.08360601 544.41534898 120.33551025 531.89212036 C118.61655476 519.57778045 116.89586665 507.2636847 115.17279053 494.94992065 C115.06620694 494.18823135 114.95962335 493.42654204 114.84980996 492.64177123 C114.31020919 488.7856587 113.77056988 484.92955155 113.23090959 481.07344735 C112.14462366 473.31142473 111.05855919 465.54937113 109.9725647 457.78730774 C109.86470089 457.01636448 109.75683708 456.24542122 109.64570467 455.45111605 C107.99968069 443.68609659 106.35465435 431.92093788 104.71029663 420.15568542 C104.6015812 419.37783674 104.49286577 418.59998805 104.38085593 417.7985682 C103.83385334 413.88478772 103.28686238 409.97100562 102.73987365 406.0572232 C97.84162968 371.00978995 92.9351433 335.96351795 88.0234375 300.91796875 C87.67671146 298.44396726 87.32998599 295.9699657 86.98326111 293.49596405 C85.64990208 283.98208967 84.31649579 274.46822191 82.98298645 264.95436859 C79.7904988 242.17752186 76.5999098 219.40040929 73.40969896 196.62324357 C72.88237585 192.85832975 72.35503817 189.09341796 71.82770014 185.32850623 C70.55176486 176.21900909 69.27586359 167.10950718 68 158 C68.53073349 174.46044029 69.08502414 190.91854271 69.78560638 207.37278748 C69.95226098 211.29070066 70.11551434 215.20875425 70.2790966 219.12679672 C70.36574237 221.20156269 70.45252064 223.27632312 70.53943062 225.35107803 C71.87997457 257.35477441 73.20106074 289.35816128 74.1875 321.375 C74.22406708 322.5468988 74.26063416 323.71879761 74.29830933 324.9262085 C74.51255133 331.86517614 74.70454868 338.80451336 74.88668156 345.74439049 C74.96277892 348.62909492 75.0422305 351.51368285 75.12394619 354.39823341 C75.99683831 385.44451839 76.13614349 416.47297017 76.10139394 447.53010273 C76.09566856 453.53937678 76.09476104 459.5486504 76.09374207 465.55792663 C76.09158184 477.41866696 76.08500644 489.27940021 76.07543945 501.14013672 C76.0661852 512.62548793 76.0591442 524.11083719 76.05493164 535.59619141 C76.05466892 536.3104715 76.05440619 537.02475159 76.05413551 537.76067653 C76.05282997 541.34589792 76.05156638 544.93111932 76.05032361 548.51634073 C76.04004589 578.01089917 76.02166071 607.50544732 76 637 C50.92 637 25.84 637 0 637 C0 426.79 0 216.58 0 0 Z M66 144 C67 148 67 148 67 148 Z M190 498 C190 499.65 190 501.3 190 503 C190.33 503 190.66 503 191 503 C191 501.35 191 499.7 191 498 C190.67 498 190.34 498 190 498 Z " fill="#1C418A" transform="translate(1409,5)"/>
<path d="M0 0 C159.830933 0 159.830933 0 190 30 C214.38585083 55.88046749 220.32374081 92.32811232 220.2746582 126.55517578 C220.27901516 128.58240444 220.28420156 130.60963145 220.29014587 132.63685608 C220.30344394 138.1020984 220.30412467 143.56727117 220.30158257 149.03252649 C220.3005062 153.61673588 220.30541336 158.20093158 220.310188 162.78513801 C220.32125227 173.61425625 220.32173853 184.44333979 220.31567383 195.27246094 C220.30964167 206.39173436 220.32193295 217.51088099 220.3432439 228.63013279 C220.36094237 238.22219965 220.36684817 247.81422646 220.36360615 257.40630901 C220.36180563 263.11497442 220.36430472 268.82354945 220.37832069 274.53219986 C220.39102881 279.90861176 220.38883413 285.28482832 220.37590981 290.66123772 C220.37357212 292.61652509 220.37617566 294.57182679 220.38453293 296.5270977 C220.45144631 313.42174822 219.24604739 330.49171883 214.3125 346.75 C214.05758789 347.60795166 213.80267578 348.46590332 213.54003906 349.34985352 C205.63715398 374.85955455 190.55302191 395.470913 167.01953125 408.671875 C160.5409059 412 160.5409059 412 158 412 C158 412.66 158 413.32 158 414 C158.58265625 414.1134375 159.1653125 414.226875 159.765625 414.34375 C168.46033934 416.89744232 175.8438926 426.02711572 180.10546875 433.609375 C180.80966058 434.94258846 181.50371756 436.28120469 182.1875 437.625 C182.6505957 438.52774658 182.6505957 438.52774658 183.12304688 439.44873047 C205.55180659 485.84197707 209.08186929 545.16260581 218.27367401 595.5165863 C218.74931305 598.12123817 219.22584774 600.7257251 219.70245361 603.3302002 C220.45295375 607.43447675 221.19931987 611.53948486 221.942379 615.6451149 C222.21792314 617.16504787 222.49460787 618.68477455 222.77249527 620.20428085 C223.15346153 622.2894019 223.52997277 624.37527864 223.90527344 626.46142578 C224.11778748 627.63343536 224.33030151 628.80544495 224.54925537 630.01296997 C225 633 225 633 225 637 C195.3 637 165.6 637 135 637 C131.55381238 618.62033269 131.55381238 618.62033269 130.4243927 611.57254028 C130.29115575 610.75173725 130.1579188 609.93093422 130.02064437 609.08525836 C129.58584429 606.40365837 129.15385971 603.72161348 128.72192383 601.03955078 C128.40638217 599.08969452 128.0906677 597.13986622 127.77479553 595.19006348 C126.92603311 589.9475416 126.07977507 584.70461844 125.23408723 579.46159983 C124.34651051 573.96108241 123.45687611 568.46089774 122.56755066 562.96066284 C121.07755128 553.74337234 119.58918296 544.52581959 118.10180664 535.30810547 C116.38106212 524.64426424 114.65773554 513.9808427 112.93304807 503.31763852 C111.27157626 493.04491961 109.61187808 482.77191492 107.95300865 472.49877548 C107.24744235 468.12949279 106.54125519 463.76031111 105.83457375 459.39120865 C105.00493173 454.26137304 104.17683869 449.13128978 103.34996605 444.00100708 C103.04573996 442.11505278 102.74097313 440.22918562 102.43563843 438.34341049 C102.02052445 435.77906841 101.60733445 433.21442376 101.19465637 430.64968872 C101.07219239 429.89602056 100.9497284 429.14235239 100.82355338 428.3658458 C100 423.22831957 100 423.22831957 100 421 C95.38 421 90.76 421 86 421 C86 492.28 86 563.56 86 637 C57.62 637 29.24 637 0 637 C0 426.79 0 216.58 0 0 Z M86 82 C86 169.45 86 256.9 86 347 C106.18831633 347.64004078 106.18831633 347.64004078 123.890625 339.3828125 C132.75476377 330.40694089 134.15443664 317.74480714 134.14044189 305.65965271 C134.14341302 304.84683919 134.14638414 304.03402566 134.1494453 303.19658142 C134.15808075 300.48708209 134.15963617 297.77762721 134.16113281 295.06811523 C134.1657647 293.11937873 134.17078986 291.17064313 134.17617798 289.22190857 C134.18926979 283.936428 134.19574086 278.65096012 134.20018864 273.36546588 C134.20312508 270.05850795 134.207231 266.75155344 134.21169281 263.44459724 C134.22536039 253.08409881 134.23503019 242.72360825 134.2388947 232.36310142 C134.24337121 220.42944475 134.26090339 208.49590286 134.2898953 196.56228107 C134.31156134 187.3212309 134.32160164 178.0802129 134.32293582 168.83913761 C134.32398049 163.32786296 134.32981586 157.8166963 134.34775543 152.30544853 C134.36432098 147.11548952 134.36635068 141.92571871 134.35761642 136.73574257 C134.35685053 134.84040699 134.36112912 132.94506093 134.37107468 131.04975128 C134.68877779 109.14417197 134.68877779 109.14417197 125.28125 90.0703125 C114.04746756 79.32689358 101.5254951 82 86 82 Z " fill="#1C4189" transform="translate(1214,690)"/>
<path d="M0 0 C159.06812566 0 159.06812566 0 190 30 C214.77888802 56.45031385 220.5108751 94.02484602 220.38818359 128.85327148 C220.39226344 130.84035528 220.39761313 132.82743681 220.40411377 134.81451416 C220.41762627 140.14314832 220.41255592 145.47160549 220.40297651 150.80024219 C220.39529444 156.4206298 220.40244903 162.0410039 220.40713501 167.66139221 C220.41256843 177.09468256 220.40546523 186.52790208 220.39111328 195.96118164 C220.37479626 206.81018297 220.38007828 217.65901501 220.3965925 228.50801224 C220.41028231 237.88281416 220.41209053 247.25756564 220.40427649 256.63237435 C220.39964027 262.2051594 220.39886164 267.77786535 220.40888596 273.35064507 C220.41766326 278.59500783 220.41134112 283.83915609 220.39420319 289.08349609 C220.39029479 290.98837493 220.39127293 292.89327238 220.39799118 294.79814339 C220.45265593 311.89701199 219.34803959 329.44622984 214.25 345.875 C213.99323486 346.73029297 213.73646973 347.58558594 213.47192383 348.46679688 C205.52955584 374.09257845 190.48393926 396.11094259 166.44140625 408.953125 C163.64975018 410.36046163 160.85008386 411.71589628 158 413 C158.64066406 413.35191406 159.28132813 413.70382812 159.94140625 414.06640625 C177.98656666 424.36640094 185.48215863 441.72447016 190.84547424 461.04582214 C191.71259909 464.36225 192.5510898 467.68429075 193.375 471.01171875 C193.67902237 472.23658997 193.98304474 473.46146118 194.29627991 474.72344971 C197.34539645 487.16791315 199.95840762 499.68134213 202.4375 512.25 C202.67835327 513.45985565 202.91920654 514.6697113 203.1673584 515.91622925 C208.30246974 541.74674962 213.03631436 567.65234295 217.75 593.5625 C217.93151989 594.55919205 218.11303978 595.55588409 218.30006027 596.58277893 C219.35015364 602.34980238 220.39674103 608.11744211 221.43782616 613.88609886 C221.75847805 615.6616338 222.07991087 617.43702789 222.40215492 619.21227455 C222.84462183 621.65220115 223.28367015 624.09271711 223.72167969 626.53344727 C223.91785967 627.61037024 223.91785967 627.61037024 224.11800289 628.70904922 C224.61951703 631.52218033 225 634.13514959 225 637 C195.3 637 165.6 637 135 637 C132.74999122 627.99996488 132.74999122 627.99996488 132.23853111 624.82243633 C132.11959696 624.09426195 132.00066281 623.36608756 131.87812459 622.61584729 C131.75554898 621.84355198 131.63297337 621.07125667 131.50668335 620.27555847 C131.37021727 619.43371154 131.23375119 618.5918646 131.09314978 617.72450715 C130.64002546 614.92387336 130.19183447 612.12247351 129.74365234 609.32104492 C129.41852926 607.30500677 129.0931075 605.28901677 128.76741028 603.27307129 C127.88625515 597.81328591 127.00944553 592.35281089 126.13355207 586.89217925 C125.21621616 581.17705642 124.29531046 575.46250872 123.37490845 569.74787903 C121.83085813 560.15758303 120.28957848 550.56684491 118.75 540.97583008 C116.96869275 529.87911729 115.1832535 518.78307545 113.39555585 507.68739051 C111.67620217 497.0154272 109.95951165 486.34303725 108.24412918 475.67043495 C107.5136955 471.12609987 106.7823672 466.58191009 106.05033493 462.03783226 C105.18960598 456.69399251 104.33121719 451.34978203 103.47466087 446.00527191 C103.15941799 444.04068613 102.84336984 442.07622938 102.52647209 440.11190987 C102.09525631 437.43812447 101.66692333 434.76389313 101.23934937 432.08952332 C101.11231231 431.3060744 100.98527526 430.52262548 100.85438859 429.71543568 C100.3866122 426.77375851 100 423.98420138 100 421 C95.38 421 90.76 421 86 421 C86 492.28 86 563.56 86 637 C57.62 637 29.24 637 0 637 C0 426.79 0 216.58 0 0 Z M86 81 C86 168.45 86 255.9 86 346 C107.55383946 347.31382323 107.55383946 347.31382323 125.46875 337.875 C135.59728746 325.47270923 134.29758109 307.85967894 134.2746582 292.78588867 C134.27901396 290.8789195 134.28419997 288.97195206 134.29014587 287.06498718 C134.3034546 281.92019871 134.30412363 276.77548407 134.30158257 271.63068175 C134.30050726 267.31948716 134.30541051 263.00830716 134.310188 258.69711572 C134.32125522 248.51738554 134.32173639 238.33769226 134.31567383 228.15795898 C134.30963676 217.69300367 134.32194474 207.2281829 134.3432439 196.76325053 C134.36091751 187.7445453 134.36685218 178.72588266 134.36360615 169.70716077 C134.36180223 164.3356477 134.36433979 158.96423061 134.37832069 153.59273338 C134.39098848 148.53728254 134.38887116 143.48203989 134.37590981 138.42659187 C134.37356379 136.58369752 134.37620676 134.74078811 134.38453293 132.89791107 C134.78574738 110.02038607 134.78574738 110.02038607 125.28125 90.078125 C114.29243429 79.52537341 100.52205634 81 86 81 Z " fill="#1C4189" transform="translate(1143,5)"/>
<path d="M0 0 C22.83229068 21.54992915 29.42962078 54.32765013 31.1640625 84.50390625 C31.30565087 90.38106613 31.30796918 96.25584025 31.30450439 102.13442993 C31.30709261 103.90404619 31.31010704 105.67366188 31.3135078 107.44327676 C31.32152775 112.28004987 31.32336456 117.11680809 31.32410526 121.95358706 C31.32596465 127.18092014 31.33351649 132.40824567 31.34024048 137.63557434 C31.35378983 149.05566571 31.35984353 160.47575355 31.36425114 171.89585161 C31.36701995 179.037394 31.37125851 186.17893505 31.37575531 193.32047653 C31.38794473 213.12319415 31.39824391 232.92591069 31.4016304 252.72863197 C31.40195975 254.62774955 31.40195975 254.62774955 31.40229575 256.56523313 C31.40251403 257.83421657 31.40273231 259.10320001 31.4029572 260.4106375 C31.40340066 262.98176614 31.40384722 265.55289479 31.40429688 268.12402344 C31.40462902 270.03704675 31.40462902 270.03704675 31.40496787 271.988717 C31.40891112 292.62772453 31.42635216 313.26669664 31.4496564 333.90569051 C31.47343164 355.13461031 31.48583509 376.36351241 31.48699832 397.59244573 C31.48791174 409.49573851 31.49357955 421.39898517 31.51181793 433.30226517 C31.52730264 443.44359665 31.53229051 453.58486775 31.52407983 463.72620882 C31.52020242 468.88993819 31.52095849 474.05354631 31.53513718 479.21726036 C31.76297111 567.41143761 31.76297111 567.41143761 1.14453125 599.62890625 C-19.90703879 619.62594495 -50.09113284 623.73653577 -77.8984375 623.69140625 C-78.58568909 623.690802 -79.27294067 623.69019775 -79.98101807 623.6895752 C-109.28037925 623.61966663 -139.22672483 618.91596089 -161.015625 597.51171875 C-177.17948529 580.7780139 -183.68128009 558.44745845 -187.0859375 536.06640625 C-187.24924561 534.99616211 -187.41255371 533.92591797 -187.58081055 532.82324219 C-189.72191149 517.62450536 -189.98616303 502.31804321 -189.96965027 486.99378967 C-189.97152447 485.31045352 -189.97382757 483.6271178 -189.97651559 481.94378275 C-189.98256484 477.37332888 -189.98250823 472.80289348 -189.98132122 468.23243654 C-189.98111544 463.28126716 -189.98665266 458.33010344 -189.99137878 453.37893677 C-189.99964823 443.69882854 -190.00243195 434.01872641 -190.00299116 424.33861495 C-190.00346812 416.46074749 -190.00553182 408.58288201 -190.00869179 400.70501518 C-190.01748854 378.31508462 -190.02211274 355.92515883 -190.02136131 333.53522653 C-190.02132136 332.33081613 -190.0212814 331.12640573 -190.02124023 329.88549805 C-190.02117891 328.076648 -190.02117891 328.076648 -190.02111635 326.23125552 C-190.02071025 306.70555562 -190.03027349 287.17987503 -190.0443786 267.65418071 C-190.05878449 247.55168852 -190.06564646 227.44920572 -190.06478482 207.34670824 C-190.06445429 196.08232235 -190.06713801 184.81795672 -190.07796288 173.55357552 C-190.08712357 163.96029513 -190.08919788 154.36704417 -190.08245345 144.77376128 C-190.07921599 139.89140326 -190.07902945 135.00910151 -190.0878067 130.12674904 C-190.25066791 33.24561698 -190.25066791 33.24561698 -158.7578125 0.33203125 C-121.29358909 -35.46711556 -38.11716134 -33.54940233 0 0 Z M-94.6484375 62.69140625 C-103.69550391 74.32334877 -103.13060912 88.05534963 -103.09663391 102.13961792 C-103.09965802 103.9217619 -103.1035488 105.70390459 -103.10822648 107.486045 C-103.11848172 112.3615966 -103.11633097 117.23707446 -103.11204588 122.11263204 C-103.10957418 127.3792749 -103.11859832 132.64590022 -103.12608337 137.91253662 C-103.13881983 148.22191479 -103.14062539 158.5312669 -103.13828311 168.84065162 C-103.13649869 177.22176472 -103.13825226 185.60286993 -103.14250755 193.98398209 C-103.14310274 195.17769436 -103.14369793 196.37140662 -103.14431116 197.60129199 C-103.14552293 200.02646461 -103.14673706 202.45163723 -103.14795353 204.87680985 C-103.15882492 227.60979274 -103.15666842 250.3427608 -103.15056869 273.07574452 C-103.14539936 293.86263064 -103.15665613 314.6494699 -103.17566691 335.43634675 C-103.19504858 356.79286657 -103.20330076 378.14936421 -103.19954365 399.50589287 C-103.19763218 411.49094251 -103.200114 423.47595226 -103.21425819 435.46099472 C-103.2261771 445.66347877 -103.22757108 455.86589838 -103.21546803 466.06838332 C-103.2095831 471.27099675 -103.20846933 476.47349232 -103.22047043 481.67609787 C-103.23134151 486.44433765 -103.22821124 491.21236135 -103.21420874 495.98059107 C-103.21156522 497.69986298 -103.21391747 499.41915189 -103.22194461 501.1384071 C-103.27499662 513.3549723 -103.31611564 526.44982129 -95.69140625 536.69140625 C-91.01176033 541.26268142 -85.10372165 542.68569488 -78.7109375 542.94140625 C-72.15878113 542.61277145 -67.07271845 541.21219263 -62.5234375 536.31640625 C-53.27019993 524.20444488 -54.53921096 506.42840226 -54.58197021 491.89416504 C-54.5796606 490.16361692 -54.57648073 488.43306978 -54.57251573 486.70252466 C-54.56422792 481.98808754 -54.5682654 477.27373221 -54.57448816 472.55929494 C-54.57903647 467.45901409 -54.57201715 462.35874674 -54.56652832 457.25846863 C-54.55765796 447.28317926 -54.55954581 437.30792008 -54.5653536 427.33262956 C-54.56987938 419.22193872 -54.57047904 411.11125631 -54.56830597 403.00056458 C-54.5679995 401.84405141 -54.56769304 400.68753824 -54.56737728 399.49597922 C-54.5667378 397.1461852 -54.56608937 394.79639118 -54.5654321 392.44659716 C-54.55973571 370.43793466 -54.56627585 348.42928885 -54.57703283 326.42062908 C-54.58596771 307.55628994 -54.58441548 288.69197542 -54.57519531 269.82763672 C-54.56448047 247.89508265 -54.56028497 225.96254318 -54.56641984 204.02998686 C-54.56705691 201.68907388 -54.56768565 199.3481609 -54.56830597 197.00724792 C-54.56861452 195.85562122 -54.56892307 194.70399452 -54.56924097 193.51747003 C-54.57096427 185.42113306 -54.5680607 177.32480538 -54.56334686 169.22846985 C-54.55772453 159.35516358 -54.55928287 149.48188909 -54.56990835 139.60858643 C-54.57514687 134.57584391 -54.57725295 129.54315429 -54.57061005 124.51041222 C-54.56461065 119.89523419 -54.56799093 115.28015764 -54.57856515 110.6649887 C-54.58078237 109.00367478 -54.57970109 107.34235213 -54.57481357 105.68104392 C-53.93503207 83.34635131 -53.93503207 83.34635131 -62.44140625 63.6328125 C-67.80691743 58.69369956 -73.24237776 57.05903364 -80.46484375 57.25390625 C-85.90181348 57.82716171 -90.32604983 59.32954918 -94.6484375 62.69140625 Z " fill="#1C4189" transform="translate(455.8359375,708.49609375)"/>
<path d="M0 0 C24.00491469 22.59286088 29.55728631 57.28483772 31.2734375 88.6875 C31.40205791 94.1137446 31.40079967 99.53712155 31.38696289 104.96435547 C31.38668003 106.54275511 31.38684068 108.12115488 31.3874054 109.69955444 C31.38768952 113.93827147 31.38185565 118.17695955 31.37483144 122.41566992 C31.36853321 126.86257113 31.36798902 131.30947319 31.36680603 135.75637817 C31.36371164 144.1565857 31.35552403 152.55678003 31.34545654 160.95698178 C31.33213376 172.32276289 31.32678019 183.68854767 31.32095432 195.05433464 C31.31158266 212.93206628 31.29165117 230.80977011 31.2734375 248.6875 C2.5634375 248.6875 -26.1465625 248.6875 -55.7265625 248.6875 C-55.76394531 236.77140625 -55.80132813 224.8553125 -55.83984375 212.578125 C-55.87012511 205.02212385 -55.90115301 197.46613794 -55.93554688 189.91015625 C-55.9899811 177.92107538 -56.0413964 165.9320368 -56.07299805 153.94287109 C-56.0960301 145.21020252 -56.12948605 136.47764548 -56.17526406 127.74506545 C-56.19912621 123.12468695 -56.2179008 118.50441843 -56.22417641 113.8839798 C-56.23025911 109.52713576 -56.2503729 105.17057285 -56.28083801 100.81383324 C-56.28956748 99.22246191 -56.29335149 97.63105377 -56.29157066 96.0396595 C-56.25975405 78.53456882 -56.25975405 78.53456882 -63.93359375 63.24609375 C-68.8225545 58.99621284 -75.22803172 58.14949178 -81.52734375 58.40234375 C-86.5764932 59.0570292 -90.41461834 60.70354188 -94.4765625 63.75 C-100.49190478 71.60336353 -101.84879896 80.50677609 -101.85799026 90.18582344 C-101.86106922 91.29247913 -101.86106922 91.29247913 -101.86421037 92.4214915 C-101.8698676 94.8951978 -101.8684247 97.3688482 -101.86700439 99.84255981 C-101.86958876 101.63347464 -101.87260212 103.42438889 -101.8760078 105.21530235 C-101.88407263 110.13826638 -101.88586708 115.06121584 -101.88660526 119.9841857 C-101.88845671 125.29315678 -101.89600452 130.60212032 -101.90274048 135.91108704 C-101.91632066 147.52067031 -101.92234803 159.13025013 -101.92675114 170.73984003 C-101.92951409 177.98945215 -101.93375154 185.23906294 -101.93825531 192.48867416 C-101.95044757 212.5622531 -101.96074697 232.63583097 -101.9641304 252.70941353 C-101.96434997 253.99409495 -101.96456953 255.27877638 -101.96479575 256.60238754 C-101.96512317 258.53400993 -101.96512317 258.53400993 -101.9654572 260.504655 C-101.96590067 263.11410594 -101.96634723 265.72355688 -101.96679688 268.33300781 C-101.9670183 269.6273845 -101.96723973 270.9217612 -101.96746787 272.25536142 C-101.97141565 293.22753433 -101.98886924 314.19967249 -102.0121564 335.17183198 C-102.03587408 356.70559757 -102.04833244 378.23934572 -102.04949832 399.77312458 C-102.05041484 411.86273712 -102.05616153 423.95230438 -102.07431793 436.04190445 C-102.08972451 446.33676022 -102.09483606 456.63155672 -102.08657983 466.92642184 C-102.08267533 472.17748578 -102.08359326 477.42843037 -102.09763718 482.6794796 C-102.11038781 487.49103742 -102.10916829 492.30238634 -102.09704646 497.11394392 C-102.09509149 498.85017316 -102.09815862 500.58641727 -102.10689083 502.32262565 C-102.24007073 521.27082556 -102.24007073 521.27082556 -93.7265625 537.6875 C-86.87611409 542.02145716 -79.41353941 542.68872833 -71.5078125 541.296875 C-65.61505569 539.52904796 -62.59305026 535.99726068 -59.7265625 530.6875 C-56.46228574 521.59743455 -56.28282275 512.44472973 -56.29418945 502.91308594 C-56.2851526 501.36452971 -56.27482073 499.81598058 -56.26330566 498.2674408 C-56.23593504 494.10090952 -56.22647854 489.93451469 -56.22045159 485.76790524 C-56.21101552 481.39967979 -56.18480826 477.03155421 -56.16044617 472.66339111 C-56.11692057 464.40834876 -56.08828826 456.15332595 -56.06512278 447.89820409 C-56.03291489 436.73126909 -55.97746495 425.56445043 -55.92337704 414.39760399 C-55.83888237 396.82760411 -55.78523757 379.25764903 -55.7265625 361.6875 C-27.0165625 361.6875 1.6934375 361.6875 31.2734375 361.6875 C31.35404357 398.37669548 31.35404357 398.37669548 31.37109375 413.88476562 C31.382909 424.54502309 31.39671227 435.20524867 31.42431641 445.86547852 C31.44442063 453.63315974 31.45719375 461.40081482 31.46161449 469.16852134 C31.46419344 473.27115397 31.47013613 477.37371189 31.48489761 481.47632027 C31.62201012 521.19713646 31.72229476 568.03566654 2.2734375 598.6875 C-21.38781737 621.78359751 -55.03835685 624.12119505 -86.3125 623.8359375 C-111.58590442 623.44770339 -138.61246726 618.46641947 -157.7265625 600.6875 C-158.4071875 600.09710937 -159.0878125 599.50671875 -159.7890625 598.8984375 C-183.32781962 577.29059405 -188.2708246 540.83550071 -189.7265625 510.6875 C-189.89751637 504.85199298 -189.86632105 499.01333533 -189.86027527 493.17591858 C-189.86214736 491.44368628 -189.86444964 489.71145441 -189.86714059 487.97922319 C-189.87321594 483.25519076 -189.87313006 478.53117614 -189.87194622 473.80714071 C-189.87174112 468.69783025 -189.87727137 463.58852536 -189.88200378 458.47921753 C-189.89028785 448.48173082 -189.89305762 438.48425 -189.89361616 428.48676015 C-189.89409246 420.35323249 -189.89615289 412.21970677 -189.89931679 404.08617973 C-189.90811784 380.98830362 -189.91273711 357.89043213 -189.91198631 334.79255433 C-189.91194636 333.54898747 -189.9119064 332.30542062 -189.91186523 331.02416992 C-189.91182435 329.77907126 -189.91178347 328.53397261 -189.91174135 327.25114369 C-189.91133521 307.08876789 -189.92089818 286.9264108 -189.9350036 266.76404042 C-189.94939751 246.02436722 -189.9562721 225.28470313 -189.95540982 204.54502481 C-189.95507886 192.91629555 -189.95778168 181.2875859 -189.96858788 169.65886116 C-189.97773271 159.75502035 -189.97983568 149.85120803 -189.97307845 139.94736481 C-189.96983302 134.90350954 -189.9696842 129.85970879 -189.9784317 124.81585884 C-190.12430961 34.88430821 -190.12430961 34.88430821 -161.7265625 3.6875 C-160.86417969 2.70330078 -160.86417969 2.70330078 -159.984375 1.69921875 C-124.30184154 -36.80035682 -38.01703293 -32.24367263 0 0 Z " fill="#1C418A" transform="translate(2156.7265625,708.3125)"/>
<path d="M0 0 C40.59 0 81.18 0 123 0 C124.17997342 8.84980064 125.33466295 17.62811008 126.16752052 26.5044899 C126.32040313 28.09675818 126.32040313 28.09675818 126.47637427 29.72119349 C126.81370659 33.24163478 127.14704825 36.76244175 127.4803772 40.28326416 C127.72522668 42.84734625 127.97032354 45.41140473 128.21564519 47.97544169 C128.74680173 53.53114826 129.27588063 59.08704955 129.80356026 64.64308739 C130.5882106 72.9047359 131.37612145 81.16607124 132.16466637 89.42734882 C133.49141393 103.32819127 134.81550378 117.22928567 136.13801956 131.13053131 C137.44699712 144.8894686 138.75702664 158.648305 140.06849289 172.40700531 C140.19097836 173.69202859 140.19097836 173.69202859 140.31593829 175.00301194 C140.64741773 178.4806096 140.97890414 181.95820659 141.31040006 185.43580268 C144.41747187 218.03097321 147.52148017 250.62643479 150.62394373 283.22204423 C153.38136219 312.19233292 156.14087821 341.16242102 158.90234375 370.13232422 C159.07982588 371.99425674 159.25730799 373.85618927 159.43479009 375.7181218 C159.52253363 376.63862211 159.61027717 377.55912243 159.7006796 378.50751669 C160.14235281 383.14102895 160.58402311 387.77454149 161.02569008 392.40805435 C161.15638775 393.77919394 161.15638775 393.77919394 161.28972578 395.17803331 C163.59703235 419.38404912 165.90295108 443.59019714 168.20839632 467.7963903 C168.29035887 468.65696094 168.37232142 469.51753159 168.45676769 470.40418013 C168.78636136 473.86477546 169.115955 477.32537079 169.4455413 480.78596682 C170.59323532 492.83647937 171.74139892 504.8869471 172.88986494 516.93738609 C174.36878514 532.45524207 175.84674767 547.97318877 177.32304408 563.49129459 C178.10423717 571.70254247 178.88620415 579.91371577 179.66927973 588.12478434 C180.25255896 594.24179224 180.8343648 600.35893941 181.41557436 606.47614428 C181.65189612 608.9609751 181.88870235 611.4457599 182.12602289 613.93049553 C182.44670128 617.28874299 182.76566146 620.64714917 183.08416176 624.00560379 C183.22528879 625.4769854 183.22528879 625.4769854 183.36926687 626.9780919 C183.45332603 627.86827565 183.5373852 628.7584594 183.62399161 629.67561841 C183.69716698 630.44421042 183.77034236 631.21280244 183.84573517 632.00468512 C183.97414846 633.66562724 184 635.33410123 184 637 C153.97 637 123.94 637 93 637 C92.32532943 633.62664714 91.83234907 630.71629011 91.61399841 627.34141541 C91.5235878 625.98140411 91.5235878 625.98140411 91.43135071 624.59391785 C91.36949081 623.61151627 91.30763092 622.62911469 91.24389648 621.61694336 C91.17547546 620.57234955 91.10705444 619.52775574 91.03656006 618.45150757 C90.81130901 614.99783236 90.59102698 611.54386139 90.37109375 608.08984375 C90.21576577 605.68191863 90.06025053 603.27400559 89.90455627 600.86610413 C89.57875344 595.81492912 89.25544559 590.76360199 88.93383789 585.7121582 C88.52293579 579.26178587 88.10556411 572.8118516 87.68624783 566.36202145 C87.36349434 561.38541577 87.04438811 556.40858117 86.72633553 551.43167305 C86.5739959 549.05513672 86.42050396 546.67867395 86.2658062 544.30228996 C86.04905375 540.96469171 85.83727583 537.62681184 85.62670898 534.28881836 C85.56282486 533.3205864 85.49894073 532.35235443 85.43312073 531.3547821 C85.00978932 524.52879512 85 517.87312111 85 511 C67.84 511 50.68 511 33 511 C33 515.62 33 520.24 33 525 C32.85406131 528.71205299 32.68470335 532.40994383 32.46508789 536.11694336 C32.37971519 537.63933121 32.37971519 537.63933121 32.2926178 539.19247437 C32.10655094 542.49183395 31.91478901 545.79083231 31.72265625 549.08984375 C31.59026831 551.407176 31.45814709 553.7245235 31.32627869 556.04188538 C31.05053443 560.87222979 30.77203579 565.70240487 30.49145508 570.5324707 C30.13249433 576.71456121 29.7797896 582.89698955 29.42903996 589.07955074 C29.15761782 593.85379443 28.88325537 598.62786558 28.60796928 603.40188789 C28.47677886 605.68195445 28.34641551 607.96206875 28.21690559 610.24223137 C28.03563907 613.42460477 27.85049659 616.60672971 27.66430664 619.78881836 C27.58554291 621.19081734 27.58554291 621.19081734 27.50518799 622.62113953 C27.4533284 623.49401611 27.40146881 624.3668927 27.34803772 625.26622009 C27.30471345 626.01589019 27.26138918 626.76556028 27.21675205 627.53794765 C26.93787363 630.70568364 26.44971823 633.85197237 26 637 C-2.71 637 -31.42 637 -61 637 C-59.85138407 616.32491334 -59.85138407 616.32491334 -59.15804482 609.34174347 C-59.03969449 608.10313809 -59.03969449 608.10313809 -58.91895324 606.83951038 C-58.65990192 604.13749585 -58.39573844 601.43600886 -58.13150024 598.73449707 C-57.94017477 596.75021329 -57.74917157 594.76589841 -57.55845869 592.78155565 C-57.03795463 587.37541144 -56.51293302 581.96971441 -55.98712039 576.56408429 C-55.41847298 570.70966258 -54.85409739 564.85482882 -54.28918457 559.00004578 C-53.30887478 548.84610657 -52.32589216 538.69242899 -51.34108353 528.53892517 C-50.30192776 517.82502849 -49.26430633 507.11098513 -48.22871017 496.39674377 C-48.16383064 495.72551096 -48.09895111 495.05427814 -48.03210553 494.36270494 C-47.70228908 490.95039489 -47.37250006 487.5380822 -47.04272167 484.12576848 C-44.70506897 459.9378919 -42.36404041 435.75034313 -40.02099609 411.56298828 C-37.77328728 388.35969385 -35.52696544 365.15626591 -33.28271484 341.95263672 C-33.21424538 341.24472762 -33.14577592 340.53681852 -33.07523163 339.80745763 C-32.31771636 331.97544919 -31.56024508 324.14343649 -30.80279851 316.31142139 C-29.43973599 302.2173268 -28.07652309 288.12324675 -26.71322632 274.0291748 C-26.64660645 273.34043793 -26.57998657 272.65170105 -26.51134792 271.94209336 C-24.6442185 252.63919688 -22.77625492 233.33638134 -20.90729223 214.03366226 C-20.53986144 210.23881136 -20.17244892 206.4439587 -19.80504143 202.64910555 C-19.5622857 200.14176968 -19.31952946 197.63443386 -19.07677269 195.12709808 C-18.8975923 193.27641656 -18.8975923 193.27641656 -18.71479211 191.38834754 C-18.12121446 185.25765856 -17.52757491 179.12697559 -16.93381238 172.99630451 C-14.37041467 146.52848536 -11.81152246 120.0602403 -9.26364185 93.59092301 C-8.87454797 89.54883908 -8.48527787 85.50677213 -8.09597003 81.46470881 C-7.84128426 78.82026584 -7.58659921 76.17582281 -7.3319149 73.5313797 C-7.20728699 72.23738012 -7.08265908 70.94338054 -6.95425456 69.61016884 C-6.22192464 62.00526035 -5.4906588 54.40025046 -4.76019567 46.79516244 C-4.31202798 42.13143975 -3.86294441 37.46780558 -3.4136236 32.80419385 C-3.20594289 30.64648894 -2.99866178 28.48874552 -2.7918112 26.33096087 C-2.50897385 23.3809219 -2.22474003 20.4310206 -1.94017601 17.48114777 C-1.81842975 16.20580152 -1.81842975 16.20580152 -1.69422398 14.90469071 C-1.57838669 13.70826992 -1.57838669 13.70826992 -1.46020925 12.487679 C-1.39500041 11.80922168 -1.32979157 11.13076435 -1.2626067 10.4317477 C-0.88654128 6.94936811 -0.43444736 3.47557885 0 0 Z M57 59 C56.13382538 74.39517301 55.28175841 89.79111001 54.4375 105.1875 C54.33826736 106.99583502 54.33826736 106.99583502 54.23703003 108.84070206 C52.44375383 141.56504462 50.76503321 174.29266437 49.25390625 207.03125 C49.21783075 207.81229583 49.18175526 208.59334167 49.14458656 209.39805555 C48.55684191 222.12620575 47.97320663 234.85454467 47.3902998 247.58291721 C45.21547044 295.06987116 42.79061979 342.52482598 39.77734375 389.9675293 C39.65555248 391.89596553 39.5337619 393.82440181 39.41197205 395.75283813 C39.19187118 399.23470586 38.96620008 402.71613732 38.73609924 406.19735718 C38.63717669 407.73906689 38.53836881 409.28078397 38.43969727 410.82250977 C38.35422134 412.12293716 38.26874542 413.42336456 38.18067932 414.76319885 C37.95006731 420.17088597 38 425.58739787 38 431 C51.86 431 65.72 431 80 431 C80 423.40652042 79.9189054 415.98215989 79.42431641 408.43017578 C79.36213551 407.43327728 79.29995461 406.43637878 79.23588943 405.40927124 C79.0278966 402.0877246 78.81465987 398.76653524 78.6015625 395.4453125 C78.44925858 393.02581107 78.29734362 390.60628513 78.14578247 388.18673706 C77.81653737 382.93963423 77.48525054 377.69266463 77.15222168 372.44580078 C76.28361283 358.75661278 75.42902705 345.06654293 74.57380104 331.37651348 C74.42867093 329.05404475 74.28340272 326.73158468 74.1381073 324.40912628 C72.52030469 298.54294137 70.94105528 272.67452568 69.3828125 246.8046875 C69.32801806 245.89501425 69.27322362 244.98534101 69.21676874 244.0481019 C68.39275366 230.36550686 67.57099827 216.68277635 66.75 203 C66.69751382 202.12527448 66.64502764 201.25054895 66.59095097 200.3493166 C66.38213428 196.86914734 66.17332513 193.38897764 65.96452487 189.9088074 C65.45818993 181.46958209 64.95167111 173.03036784 64.44494486 164.59116602 C64.34659385 162.9530885 64.24825689 161.31501013 64.14993429 159.6769309 C62.135471 126.1157564 60.07807348 92.55729306 58 59 C57.67 59 57.34 59 57 59 Z " fill="#1C4189" transform="translate(243,5)"/>
<path d="M0 0 C0.63035156 0.46792969 1.26070312 0.93585937 1.91015625 1.41796875 C18.52213963 14.32158227 25.84038235 36.47194566 30.1875 56.25 C30.3424292 56.93860107 30.4973584 57.62720215 30.65698242 58.33666992 C34.87214807 78.81590422 34.2696776 99.65747773 34.20278788 120.44671416 C34.1901469 125.04839844 34.18909962 129.65008631 34.18673706 134.25178528 C34.18056107 142.9351723 34.16420373 151.61850797 34.14403808 160.30187255 C34.11734014 172.05731223 34.10667502 183.8127663 34.09503365 195.56822872 C34.07631959 214.04552415 34.03644835 232.52271132 34 251 C5.62 251 -22.76 251 -52 251 C-52.04898438 239.61242187 -52.09796875 228.22484375 -52.1484375 216.4921875 C-52.18383608 209.26431546 -52.21972392 202.03645129 -52.2578125 194.80859375 C-52.31813547 183.34425678 -52.37649998 171.87993453 -52.421875 160.41552734 C-52.45493687 152.06447666 -52.49484521 143.71349073 -52.54279006 135.36251175 C-52.56791473 130.94553384 -52.58973647 126.5285981 -52.60334396 122.11156845 C-52.61629291 117.94354954 -52.63848166 113.77567634 -52.66738319 109.60773849 C-52.67635977 108.08815601 -52.6821256 106.56855013 -52.68421364 105.04894257 C-52.38812879 83.1349713 -52.38812879 83.1349713 -62.4375 64.5 C-68.91964305 60.7055748 -75.0676156 60.1046827 -82.3671875 61.4296875 C-88.25718332 63.03605 -91.91899674 65.69988186 -95 71 C-98.23150006 78.89499819 -99.12324987 87.03940881 -99.13142776 95.52208042 C-99.13450672 96.61437273 -99.13450672 96.61437273 -99.13764787 97.72873154 C-99.14329316 100.16386253 -99.14186368 102.59893652 -99.14044189 105.03407288 C-99.14302695 106.79967658 -99.1460405 108.5652797 -99.1494453 110.33088201 C-99.15750208 115.17931607 -99.15930413 120.02773532 -99.16004276 124.87617528 C-99.16189562 130.1067751 -99.16944415 135.33736726 -99.17617798 140.56796265 C-99.18975254 152.00407279 -99.19578468 163.44017942 -99.20018864 174.87629628 C-99.2029526 182.01922572 -99.20719024 189.1621538 -99.21169281 196.30508232 C-99.22388444 216.08789135 -99.23418389 235.8706993 -99.2375679 255.653512 C-99.23778747 256.91934951 -99.23800703 258.18518702 -99.23823325 259.48938325 C-99.23845153 260.7582228 -99.23866981 262.02706236 -99.2388947 263.3343516 C-99.23933816 265.90543687 -99.23978473 268.47652215 -99.24023438 271.04760742 C-99.2404558 272.3229503 -99.24067723 273.59829318 -99.24090537 274.91228282 C-99.24485253 295.572648 -99.26230451 316.23297789 -99.2855939 336.89332945 C-99.30932037 358.11299292 -99.32177035 379.3326387 -99.32293582 400.55231565 C-99.32385186 412.46312503 -99.32958635 424.37388844 -99.34775543 436.28468513 C-99.3631739 446.42794483 -99.36826656 456.57114434 -99.36001733 466.71441353 C-99.35611701 471.88674753 -99.35701026 477.05896037 -99.37107468 482.23127937 C-99.3838505 486.97320361 -99.38258385 491.71491611 -99.37048396 496.45684021 C-99.36853333 498.16548452 -99.37157586 499.87414401 -99.38032833 501.58276702 C-99.43901982 513.82254715 -99.18945451 526.04878042 -93 537 C-87.78008953 542.10391246 -83.33689624 544.04784326 -76.125 544.3125 C-69.55716531 544.14460047 -64.93411936 542.89113893 -60.1875 538.25 C-52.29257758 526.52040097 -52.70130786 512.36014797 -52.68115234 498.64111328 C-52.67182591 497.16122914 -52.66165334 495.68135013 -52.65071106 494.20147705 C-52.62370248 490.2313691 -52.6083495 486.26129602 -52.59528303 482.29112101 C-52.57952311 478.1244503 -52.5527748 473.95784953 -52.5272522 469.79122925 C-52.48068993 461.92229414 -52.44383759 454.05334554 -52.41057932 446.18434417 C-52.36500347 435.53601462 -52.30421391 424.88777221 -52.24433136 414.2395153 C-52.15055084 397.49305416 -52.07691196 380.7465668 -52 364 C-23.62 364 4.76 364 34 364 C34.1209091 402.11323603 34.1209091 402.11323603 34.14648438 418.23242188 C34.16420216 429.30953191 34.18489227 440.38657289 34.22631836 451.46362305 C34.25649018 459.53529818 34.27563791 467.60691665 34.28226548 475.67864662 C34.28613141 479.9412308 34.29502824 484.20365305 34.31719017 488.46618462 C34.50816875 526.71742354 33.54505874 568.65535442 7 599 C6.44570312 599.63808594 5.89140625 600.27617188 5.3203125 600.93359375 C0.58117539 606.02419797 -5.01302018 609.5263827 -11 613 C-12.15435547 613.680625 -12.15435547 613.680625 -13.33203125 614.375 C-40.29851151 629.0756366 -78.46708635 629.3668327 -108 624 C-108.68626465 623.87641113 -109.3725293 623.75282227 -110.07958984 623.62548828 C-124.99341417 620.83232027 -139.12247121 615.65931459 -151 606 C-151.85207031 605.31035156 -152.70414063 604.62070313 -153.58203125 603.91015625 C-175.8166272 584.94241247 -183.04949334 554.12997132 -185.78220892 526.21428335 C-186.25574573 519.22556054 -186.14445262 512.21180726 -186.14044189 505.2101593 C-186.1430287 503.39888308 -186.14604274 501.58760743 -186.1494453 499.77633256 C-186.1574818 494.81523325 -186.159303 489.85414844 -186.16004276 484.8930434 C-186.16189923 479.53553373 -186.16944966 474.17803148 -186.17617798 468.82052612 C-186.18973917 457.11127075 -186.19578289 445.40201881 -186.20018864 433.69275689 C-186.20295546 426.37335338 -186.20719367 419.05395119 -186.21169281 411.73454857 C-186.22388382 391.44722864 -186.23418266 371.15990976 -186.2375679 350.87258625 C-186.23778747 349.57500683 -186.23800703 348.2774274 -186.23823325 346.94052739 C-186.23845153 345.63993189 -186.23866981 344.33933639 -186.2388947 342.99932891 C-186.23933816 340.36405456 -186.23978472 337.72878021 -186.24023438 335.09350586 C-186.2404558 333.7863329 -186.24067723 332.47915994 -186.24090537 331.13237568 C-186.2448494 309.9738926 -186.26229212 288.81544405 -186.2855939 267.65697429 C-186.30935481 245.90493658 -186.32177195 224.15291615 -186.32293582 202.40086526 C-186.32385005 190.19973792 -186.3295384 177.99865555 -186.34775543 165.79754066 C-186.36322067 155.40318453 -186.36823929 145.00888725 -186.36001733 134.61452178 C-186.35613313 129.31953684 -186.35693016 124.02467018 -186.37107468 118.72970009 C-186.47219819 78.50011096 -185.98816763 35.38084178 -157 4 C-120.51493543 -31.79011096 -38.91813047 -31.69891571 0 0 Z " fill="#1C4189" transform="translate(186,706)"/>
<path d="M0 0 C24.11874324 21.01254146 32.3553387 49.69694766 36.140625 80.55859375 C36.25237061 81.46915527 36.36411621 82.3797168 36.47924805 83.31787109 C38.3960222 100.95586466 38.47672202 118.76717543 38.42578125 136.48828125 C38.42390847 138.45223962 38.42248866 140.41619846 38.42149353 142.38015747 C38.41773588 147.46636319 38.40796623 152.55253881 38.39678955 157.63873291 C38.38459477 163.78575011 38.38014094 169.93277755 38.37433624 176.07980347 C38.36474846 185.34358761 38.34554541 194.60730617 38.328125 203.87109375 C10.278125 203.87109375 -17.771875 203.87109375 -46.671875 203.87109375 C-46.72085938 196.60980469 -46.76984375 189.34851563 -46.8203125 181.8671875 C-46.85573656 177.24152331 -46.89171811 172.61587667 -46.9296875 167.99023438 C-46.98977873 160.66319415 -47.04790926 153.33617825 -47.09375 146.0090332 C-47.13087605 140.0956034 -47.17730675 134.18231049 -47.22993851 128.2689991 C-47.24833838 126.02343228 -47.26349825 123.77783627 -47.27521896 121.53222466 C-46.60342713 93.10924425 -46.60342713 93.10924425 -57.671875 67.87109375 C-63.01195096 63.99953868 -68.14169903 63.2192613 -74.671875 63.87109375 C-80.2344252 65.17209536 -84.09659515 67.30268061 -87.671875 71.87109375 C-94.34506451 83.61311711 -94.80734199 97.64860274 -94.875 110.84765625 C-94.88196899 111.76797638 -94.88893799 112.68829651 -94.89611816 113.63650513 C-94.91341133 116.5897484 -94.9198375 119.54280196 -94.921875 122.49609375 C-94.92288208 123.50353638 -94.92388916 124.510979 -94.92492676 125.5489502 C-94.91478518 140.5292551 -94.50274565 155.11606612 -91.671875 169.87109375 C-91.53797363 170.61456055 -91.40407227 171.35802734 -91.26611328 172.12402344 C-83.05520191 216.4928027 -54.90155182 255.79361372 -30.24121094 292.50366211 C-25.4923727 299.59435262 -20.93587689 306.80370264 -16.42773438 314.04931641 C-15.1951824 316.03010558 -13.95920341 318.00876443 -12.72070312 319.98583984 C19.17590945 371.02192879 37.83424374 419.90353913 37.58886719 480.78051758 C37.57811491 483.93655532 37.58886713 487.09202571 37.6015625 490.24804688 C37.63031958 530.08914345 32.73591656 572.18770541 3.640625 602.12109375 C-17.58311633 623.01821129 -47.08696103 629.26269289 -75.97998047 629.17358398 C-105.57642797 628.69679422 -133.02587156 621.8384262 -154.984375 600.93359375 C-181.43653706 573.06337765 -184.03618156 532.71075518 -183.8671875 496.390625 C-183.86344728 493.99639505 -183.86060509 491.60216356 -183.85861206 489.20793152 C-183.85105496 482.97249971 -183.83147659 476.73716431 -183.8092041 470.50177002 C-183.78493164 462.98487591 -183.7759269 455.46794918 -183.76429749 447.95102692 C-183.74504599 436.59098259 -183.70666843 425.23114889 -183.671875 413.87109375 C-155.291875 413.87109375 -126.911875 413.87109375 -97.671875 413.87109375 C-97.62289062 421.08339844 -97.57390625 428.29570312 -97.5234375 435.7265625 C-97.48802142 440.31576861 -97.45204439 444.90495678 -97.4140625 449.49414062 C-97.35392659 456.76649303 -97.29578505 464.03882053 -97.25 471.3112793 C-97.21292619 477.17931436 -97.16650822 483.04721008 -97.11381149 488.91512489 C-97.0953843 491.14559784 -97.08023406 493.37610052 -97.06853104 495.60661888 C-97.91237775 519.44324332 -97.91237775 519.44324332 -89.1015625 540.75 C-84.36961389 545.15304635 -79.65408077 546.59998413 -73.234375 547.18359375 C-67.3532061 546.66770174 -62.64648678 545.28455357 -58.421875 540.99609375 C-50.51105471 530.8650705 -50.51363366 516.5393339 -50.46875 504.31640625 C-50.46304993 503.10145477 -50.45734985 501.8865033 -50.45147705 500.63473511 C-50.44204916 498.06444157 -50.43550188 495.49413606 -50.43164062 492.92382812 C-50.42199423 489.04404781 -50.39097311 485.16481111 -50.359375 481.28515625 C-50.24919482 455.61895678 -54.48814222 434.51294267 -66.671875 411.87109375 C-67.1980542 410.88689453 -67.1980542 410.88689453 -67.73486328 409.8828125 C-71.75619796 402.41119845 -76.05137861 395.15308601 -80.6875 388.046875 C-81.16006729 387.3195517 -81.63263458 386.59222839 -82.11952209 385.84286499 C-88.26392364 376.40068688 -94.47653368 367.00297102 -100.68969727 357.60595703 C-111.29763242 341.557003 -121.81513985 325.45679364 -131.359375 308.74609375 C-131.99528564 307.63484131 -132.63119629 306.52358887 -133.28637695 305.37866211 C-135.08997548 302.21415189 -136.88366548 299.04432016 -138.671875 295.87109375 C-139.11660156 295.08524902 -139.56132812 294.2994043 -140.01953125 293.48974609 C-178.53655044 224.92500277 -194.14191175 136.40935557 -173.046875 59.51953125 C-168.1754928 42.67150794 -161.26970669 27.18197842 -149.671875 13.87109375 C-148.51171875 12.41509766 -148.51171875 12.41509766 -147.328125 10.9296875 C-132.36293711 -7.00867895 -108.05285882 -15.38524545 -85.55664062 -17.88574219 C-56.87649064 -20.30326329 -23.45301556 -18.68697877 0 0 Z " fill="#1C4189" transform="translate(630.671875,18.12890625)"/>
<path d="M0 0 C55.11 0 110.22 0 167 0 C167 27.06 167 54.12 167 82 C140.6 82 114.2 82 87 82 C87 146.02 87 210.04 87 276 C109.77 276 132.54 276 156 276 C156 299.43 156 322.86 156 347 C133.23 347 110.46 347 87 347 C87 415.97 87 484.94 87 556 C113.4 556 139.8 556 167 556 C167 582.73 167 609.46 167 637 C111.89 637 56.78 637 0 637 C0 426.79 0 216.58 0 0 Z " fill="#1C428A" transform="translate(1015,690)"/>
<path d="M0 0 C55.11 0 110.22 0 167 0 C167 26.73 167 53.46 167 81 C140.6 81 114.2 81 87 81 C87 145.35 87 209.7 87 276 C109.77 276 132.54 276 156 276 C156 299.43 156 322.86 156 347 C133.23 347 110.46 347 87 347 C87 415.64 87 484.28 87 555 C113.4 555 139.8 555 167 555 C167 582.06 167 609.12 167 637 C111.89 637 56.78 637 0 637 C0 426.79 0 216.58 0 0 Z " fill="#1C428A" transform="translate(944,5)"/>
<path d="M0 0 C54.78 0 109.56 0 166 0 C166 27.06 166 54.12 166 82 C139.6 82 113.2 82 86 82 C86 146.02 86 210.04 86 276 C109.1 276 132.2 276 156 276 C156 299.43 156 322.86 156 347 C132.9 347 109.8 347 86 347 C86 415.97 86 484.94 86 556 C112.4 556 138.8 556 166 556 C166 582.73 166 609.46 166 637 C111.22 637 56.44 637 0 637 C0 426.79 0 216.58 0 0 Z " fill="#1C4189" transform="translate(2234,690)"/>
<path d="M0 0 C54.78 0 109.56 0 166 0 C166 27.06 166 54.12 166 82 C139.6 82 113.2 82 86 82 C86 146.02 86 210.04 86 276 C108.77 276 131.54 276 155 276 C155 299.43 155 322.86 155 347 C132.23 347 109.46 347 86 347 C86 415.97 86 484.94 86 556 C112.4 556 138.8 556 166 556 C166 582.73 166 609.46 166 637 C111.22 637 56.44 637 0 637 C0 426.79 0 216.58 0 0 Z " fill="#1C4189" transform="translate(1481,690)"/>
<path d="M0 0 C54.78 0 109.56 0 166 0 C166 26.73 166 53.46 166 81 C139.6 81 113.2 81 86 81 C86 145.35 86 209.7 86 276 C108.77 276 131.54 276 155 276 C155 299.43 155 322.86 155 347 C132.23 347 109.46 347 86 347 C86 415.64 86 484.28 86 555 C112.4 555 138.8 555 166 555 C166 582.06 166 609.12 166 637 C111.22 637 56.44 637 0 637 C0 426.79 0 216.58 0 0 Z " fill="#1C4189" transform="translate(0,5)"/>
<path d="M0 0 C55.11 0 110.22 0 167 0 C167 27.06 167 54.12 167 82 C140.6 82 114.2 82 87 82 C87 146.02 87 210.04 87 276 C109.77 276 132.54 276 156 276 C156 299.43 156 322.86 156 347 C133.23 347 110.46 347 87 347 C87 442.7 87 538.4 87 637 C58.29 637 29.58 637 0 637 C0 426.79 0 216.58 0 0 Z " fill="#1C428A" transform="translate(821,690)"/>
<path d="M0 0 C72.27 0 144.54 0 219 0 C219 26.73 219 53.46 219 81 C196.89 81 174.78 81 152 81 C152 264.48 152 447.96 152 637 C123.62 637 95.24 637 66 637 C66 453.52 66 270.04 66 81 C44.22 81 22.44 81 0 81 C0 54.27 0 27.54 0 0 Z " fill="#1C4189" transform="translate(694,5)"/>
</svg>
