<?xml version="1.0" encoding="utf-8"?>
<!-- Generator: Adobe Illustrator 22.1.0, SVG Export Plug-In . SVG Version: 6.00 Build 0)  -->
<svg version="1.1" id="HQFL" xmlns="http://www.w3.org/2000/svg" xmlns:xlink="http://www.w3.org/1999/xlink" x="0px" y="0px"
	 viewBox="0 0 600 600" enable-background="new 0 0 600 600" xml:space="preserve">
<g>
	<path fill="#17479E" d="M293.386,8.649c-12.464,16.298-41.965,27.978-75.158,29.757c-35.348,1.893-66.569-7.623-83.513-25.457
		l-5.606-5.899L46.25,82.252l4.517,6.061c22.247,29.845,33.819,63.692,33.466,97.878c-0.308,29.909-10.988,55.678-22.294,82.96
		l-2.897,7.011c-15.241,37.079-21.793,70.534-20.03,102.274c1.445,25.996,9.209,63.718,37.997,95.806
		c30.755,34.276,71.533,46.656,107.511,57.578c42.567,12.92,80.159,26.402,109.121,60.66L300,600l6.357-7.519
		c28.961-34.258,66.554-47.739,109.121-60.66c35.978-10.923,76.758-23.302,107.512-57.578
		c28.787-32.086,36.552-69.809,37.998-95.805c1.761-31.738-4.789-65.193-20.031-102.274c0-0.001-2.904-7.028-2.904-7.028
		c-11.302-27.277-21.979-53.041-22.288-82.944c-0.353-34.188,11.22-68.033,33.465-97.878l4.519-6.061L470.888,7.049l-5.606,5.899
		c-16.944,17.834-48.164,27.35-83.513,25.457c-33.193-1.779-62.695-13.459-75.157-29.757L300,0L293.386,8.649z"/>
	<path fill="#FFFFFF" d="M499.107,184.664c0-34.915,11.271-69.29,32.464-100.054c-8.418-7.641-51.387-46.636-60.189-54.627
		c-20.942,17.706-54.018,27.003-90.503,25.049C347.228,53.23,317.342,42.352,300,26.039c-17.344,16.312-47.23,27.191-80.88,28.993
		c-36.487,1.954-69.562-7.343-90.504-25.049c-8.803,7.991-51.77,46.985-60.189,54.627c21.195,30.764,32.466,65.14,32.466,100.054
		c0,0.567-0.003,1.133-0.008,1.699c-0.108,10.444-1.358,20.424-3.373,30.06h404.978c-2.015-9.636-3.265-19.616-3.373-30.06
		C499.109,185.797,499.107,185.231,499.107,184.664z M109.896,205.924l0.291-1.673c5.966-34.23-5.553-83.407-27.388-116.934
		l-0.664-1.02l47.045-42.7l0.936,0.661c19.168,13.549,48.258,21.397,79.811,21.534c33.472,0.145,68.489-9.854,89.211-25.474
		L300,39.671l0.858,0.648c20.724,15.619,55.742,25.619,89.214,25.474c31.55-0.137,60.641-7.985,79.811-21.534l0.934-0.661
		l47.049,42.7l-0.665,1.02c-21.836,33.527-33.354,82.704-27.388,116.934l0.293,1.673H109.896z"/>
	<polygon fill="#FFFFFF" points="200.092,169.152 194.374,151.342 188.61,169.12 169.627,169.152 185.007,180.319 179.229,197.956 
		194.218,187.166 209.52,197.956 203.569,180.211 218.871,169.152 	"/>
	<polygon fill="#FFFFFF" points="179.229,115.738 194.218,104.946 209.52,115.738 203.567,97.991 218.871,86.934 200.092,86.934 
		194.374,69.124 188.61,86.902 169.627,86.934 185.007,98.102 	"/>
	<polygon fill="#FFFFFF" points="232.102,115.738 247.093,104.946 262.395,115.738 256.444,97.991 271.746,86.934 252.965,86.934 
		247.249,69.124 241.487,86.902 222.5,86.934 237.882,98.102 	"/>
	<polygon fill="#FFFFFF" points="147.224,169.151 141.508,151.342 135.743,169.12 116.76,169.151 132.139,180.318 126.36,197.955 
		141.351,187.165 156.653,197.955 150.701,180.209 166.004,169.151 	"/>
	<polygon fill="#FFFFFF" points="177.138,139.101 192.44,128.042 173.661,128.042 167.944,110.233 162.179,128.01 143.196,128.042 
		158.577,139.21 152.798,156.846 167.788,146.055 183.09,156.846 	"/>
	<polygon fill="#FFFFFF" points="126.36,115.737 141.349,104.946 156.652,115.737 150.701,97.991 166.003,86.933 147.224,86.933 
		141.506,69.123 135.743,86.901 116.759,86.933 132.139,98.1 	"/>
	<polygon fill="#FFFFFF" points="390.72,115.738 405.711,104.946 421.014,115.738 415.062,97.993 430.366,86.934 411.585,86.934 
		405.868,69.124 400.104,86.902 381.12,86.934 396.502,98.102 	"/>
	<polygon fill="#FFFFFF" points="443.595,115.738 458.585,104.946 473.89,115.738 467.936,97.993 483.24,86.934 464.459,86.934 
		458.742,69.124 452.979,86.902 433.994,86.934 449.376,98.102 	"/>
	<polygon fill="#FFFFFF" points="337.847,115.738 352.836,104.946 368.14,115.738 362.188,97.993 377.49,86.934 358.709,86.934 
		352.992,69.124 347.23,86.902 328.244,86.934 343.626,98.102 	"/>
	<polygon fill="#FFFFFF" points="284.977,115.738 299.968,104.946 315.269,115.738 309.317,97.991 324.621,86.934 305.841,86.934 
		300.124,69.124 294.36,86.902 275.377,86.934 290.757,98.102 	"/>
	<polygon fill="#FFFFFF" points="464.459,169.152 458.741,151.344 452.978,169.122 433.994,169.152 449.375,180.321 
		443.595,197.956 458.585,187.166 473.89,197.956 467.936,180.211 483.239,169.152 	"/>
	<polygon fill="#FFFFFF" points="230.006,139.101 245.308,128.042 226.529,128.042 220.811,110.234 215.048,128.012 
		196.065,128.042 211.445,139.211 205.666,156.846 220.655,146.056 235.957,156.846 	"/>
	<polygon fill="#FFFFFF" points="388.624,139.102 403.928,128.044 385.148,128.044 379.428,110.234 373.666,128.012 
		354.683,128.044 370.064,139.211 364.283,156.848 379.274,146.056 394.577,156.848 	"/>
	<polygon fill="#FFFFFF" points="411.585,169.152 405.868,151.344 400.104,169.122 381.12,169.152 396.502,180.321 390.72,197.956 
		405.711,187.166 421.014,197.956 415.062,180.211 430.366,169.152 	"/>
	<polygon fill="#FFFFFF" points="441.499,139.102 456.803,128.044 438.022,128.044 432.304,110.234 426.542,128.012 
		407.557,128.044 422.94,139.211 417.157,156.848 432.148,146.056 447.452,156.848 	"/>
	<polygon fill="#FFFFFF" points="358.709,169.152 352.992,151.344 347.23,169.122 328.245,169.152 343.627,180.321 337.847,197.956 
		352.836,187.166 368.14,197.956 362.188,180.211 377.49,169.152 	"/>
	<polygon fill="#FFFFFF" points="282.881,139.101 298.183,128.042 279.404,128.042 273.686,110.234 267.923,128.012 
		248.939,128.042 264.32,139.211 258.539,156.846 273.53,146.056 288.834,156.846 	"/>
	<polygon fill="#FFFFFF" points="252.965,169.152 247.249,151.342 241.485,169.12 222.502,169.152 237.882,180.319 232.102,197.956 
		247.093,187.166 262.396,197.956 256.444,180.211 271.748,169.152 	"/>
	<polygon fill="#FFFFFF" points="335.754,139.101 351.057,128.042 332.277,128.042 326.56,110.234 320.795,128.012 301.813,128.042 
		317.195,139.211 311.414,156.846 326.404,146.056 341.707,156.846 	"/>
	<polygon fill="#FFFFFF" points="305.841,169.152 300.124,151.342 294.36,169.12 275.377,169.152 290.757,180.319 284.978,197.956 
		299.968,187.166 315.269,197.956 309.317,180.211 324.621,169.152 	"/>
	<path fill="#FFFFFF" d="M525.557,282.492l-2.885-6.982c-5.702-13.758-11.5-27.749-15.916-42.437H93.244
		c-4.419,14.693-10.219,28.691-15.923,42.454l-2.879,6.967c-12.789,31.117-19.059,59.304-19.059,85.838
		c0,3.083,0.085,6.142,0.254,9.182c1.297,23.331,8.206,57.122,33.767,85.61c27.647,30.814,64.405,41.973,99.953,52.765
		c40.645,12.336,79.7,26.23,110.643,58.765c30.942-32.536,69.996-46.429,110.641-58.765c35.547-10.792,72.306-21.949,99.954-52.765
		c25.56-28.487,32.47-62.278,33.767-85.609c0.169-3.04,0.254-6.1,0.254-9.181C544.616,341.8,538.346,313.614,525.557,282.492z
		 M306.47,557.564l-6.47,5.481l-6.473-5.481c-29.114-24.654-61.321-36.813-91.788-46.278l-11.173-3.4
		c-32.391-9.762-69.104-20.825-93.824-48.748c-21.227-23.978-31.492-49.374-33.287-82.342c-0.697-12.808,0.243-25.867,2.872-39.919
		l1.53-8.172h10.451c-3.755,15.674-5.725,31.563-4.854,47.547c1.555,28.569,9.89,52.647,30.785,76.25
		c12.275,13.865,28.082,23.329,44.941,30.583v-26.736c-10.156-5.321-19.481-12.01-27.115-20.934
		c-15.275-17.865-22.554-36.48-24.249-57.206h49.153v-24.299H98.248c0.957-8.364,2.702-16.782,4.96-25.203h56.664v158.661
		c8.069,3.015,16.254,5.647,24.302,8.116V348.743l15.482,52.224l15.244-52.21v156.235c8.418,2.789,16.501,5.717,24.3,8.9V328.705
		h14.837v191.738c19.311,9.23,37.499,22.04,54.446,35.45C307.811,556.445,307.139,556.997,306.47,557.564z M536.543,376.808
		c-1.851,33.345-12.131,58.753-33.331,82.381c-25.022,27.889-61.865,39.037-94.372,48.869l-10.578,3.228
		c-28.883,8.972-59.325,20.373-87.218,42.536v-26.916c-9.65-7.704-20.195-14.979-32.707-21.932V378.207h32.707v-24.299h-32.707
		v-25.203h43.431v176.355c-0.01,0.007-0.022,0.014-0.032,0.02v28.783c13.848-8.873,28.468-15.911,44.258-22.038v-26.137
		c-6.795,2.408-13.428,4.917-19.925,7.642V328.705h30.649v179.152c6.013-2.124,12.198-4.152,18.573-6.133
		c11.844-3.679,24.537-7.289,37.138-11.659v-25.654c-10.423,3.87-21.151,6.927-31.411,9.947v-96.151h31.411v-24.299h-31.411v-25.203
		h42.168v157.412c19.628-7.661,38.37-17.786,52.574-33.616c18.515-20.638,26.976-41.658,29.868-65.696h-24.497
		c-2.844,17.332-10.065,33.248-23.198,48.608c-3.204,3.745-6.707,7.098-10.445,10.122V328.705h64.761l1.514,8.195
		C536.312,350.698,537.247,364.126,536.543,376.808z"/>
	<path fill="#17479E" d="M214.892,254.896l-15.236,65.885l-15.471-65.885h-0.011h-24.302v73.809h79.327v-73.797
		C232.99,254.907,216.79,254.896,214.892,254.896z"/>
	<polygon fill="#17479E" points="254.037,328.705 278.337,328.705 278.337,279.196 311.043,279.196 311.043,254.896 
		254.037,254.896 	"/>
	<path fill="#17479E" d="M92.006,287.039c-5.501,13.65-10.321,27.57-13.697,41.666h24.9c2.569-9.576,5.802-19.155,9.294-28.652
		c2.573-6.997,5.185-14.012,8.135-20.857h28.543v-24.3H105.04C101.676,263.736,95.541,278.266,92.006,287.039z"/>
	<rect x="321.768" y="254.896" fill="#17479E" width="24.301" height="73.808"/>
	<polygon fill="#17479E" points="443.186,254.896 443.186,328.705 467.488,328.705 467.488,279.196 495.329,279.196 
		495.329,254.896 	"/>
	<polygon fill="#17479E" points="376.717,328.705 401.018,328.705 401.018,279.196 432.429,279.196 432.429,254.896 
		376.717,254.896 	"/>
</g>
</svg>
