<svg id="Layer_2" data-name="Layer 2" xmlns="http://www.w3.org/2000/svg" xmlns:xlink="http://www.w3.org/1999/xlink" viewBox="0 0 892 600"><defs><style>.cls-1{fill:none;}.cls-2{clip-path:url(#clip-path);}.cls-3{fill:#fff;}.cls-4{fill:#00732f;}.cls-5{fill:red;}.cls-6{fill:#939598;}</style><clipPath id="clip-path"><rect class="cls-1" width="892" height="600" rx="30.93"/></clipPath></defs><title>Emirados Árabes</title><g class="cls-2"><path class="cls-3" d="M185.52,257.29l9.3,23.56L219,273.43l-12.62,22,20.9,14.31-25,3.82,1.84,25.27-18.6-17.19L166.91,338.8l1.84-25.27-25-3.82,20.9-14.31-12.62-22,24.22,7.42Z"/><rect id="green" class="cls-4" x="1" width="891" height="200"/><rect class="cls-3" y="200" width="891" height="200"/><rect x="1" y="400" width="891" height="200"/><rect id="red" class="cls-5" width="260" height="600"/></g><g id="Layer_1" data-name="Layer 1"><path class="cls-6" d="M861.1,6A25,25,0,0,1,886,30.9V569a24.9,24.9,0,0,1-24.9,24.9H30.9A24.82,24.82,0,0,1,6,569.1V30.9A25,25,0,0,1,30.9,6H861.1m0-6H30.9A30.86,30.86,0,0,0,0,30.9H0V569a30.88,30.88,0,0,0,30.9,31H861a30.86,30.86,0,0,0,30.9-30.9V30.9A30.71,30.71,0,0,0,861.1,0Z"/></g></svg>