<svg id="Layer_2" data-name="Layer 2" xmlns="http://www.w3.org/2000/svg" xmlns:xlink="http://www.w3.org/1999/xlink" viewBox="0 0 895 600"><defs><style>.cls-1{fill:none;}.cls-2{clip-path:url(#clip-path);}.cls-3{fill:#fff;}.cls-4{fill:#0000bf;}.cls-5{fill:#d50000;}.cls-6{fill:#ffdf00;}.cls-7{fill:#939598;}</style><clipPath id="clip-path"><path class="cls-1" d="M34.72,0H859.28A30.82,30.82,0,0,1,890,30.93V569.07A30.82,30.82,0,0,1,859.28,600H34.72A30.82,30.82,0,0,1,4,569.07V30.93A30.82,30.82,0,0,1,34.72,0Z"/></clipPath></defs><title>ESlovênia</title><g class="cls-2"><path class="cls-3" d="M0,14.33H0V583H0L390.86,293.65Z"/><path class="cls-3" d="M-.33,0H893.9V600H-.33Z"/><path class="cls-4" d="M0,200H895V600H0Z"/><path class="cls-5" d="M0,400H895V600H0Z"/><path class="cls-5" d="M149.41,115.29c-1.84.81-3.68,1.66-5.5,2.53l5.74,90.75A102.13,102.13,0,0,0,222.21,300h0a102.13,102.13,0,0,0,72.56-91.38l5.74-90.75c-1.82-.87-3.65-1.72-5.5-2.53h0l-5.87,92.89A96.48,96.48,0,0,1,222.22,294h0a96.49,96.49,0,0,1-66.92-85.85l-5.88-92.89h0"/><path class="cls-4" d="M295,115.29a180.44,180.44,0,0,0-145.61,0l5.87,92.89A96.51,96.51,0,0,0,222.21,294h0a96.51,96.51,0,0,0,66.93-85.85"/><path class="cls-6" d="M226.62,143.4l3.23-4.4-5.43.59-2.2-5-2.21,5-5.42-.59,3.22,4.4-3.22,4.41,5.42-.6,2.21,5,2.2-5,5.43.6"/><path class="cls-6" d="M206.07,116l3.22-4.4-5.43.59-2.2-5-2.2,5-5.43-.59,3.23,4.4L194,120.4l5.43-.59,2.2,5,2.2-5,5.43.59"/><path class="cls-6" d="M247.17,116l3.23-4.4-5.43.59-2.2-5-2.2,5-5.43-.59,3.23,4.4-3.23,4.41,5.43-.59,2.2,5,2.2-5,5.43.59"/><path class="cls-3" d="M280.94,221.7l-29.36-39.15-11.75,15.66L222.21,163,204.6,198.21l-11.75-15.66L163.49,221.7a19.58,19.58,0,0,0,29.36,17h0a19.54,19.54,0,0,1,19.58,0,19.6,19.6,0,0,0,9.79,2.62h0a19.6,19.6,0,0,0,9.79-2.62,19.54,19.54,0,0,1,19.58,0h0a19.57,19.57,0,0,0,29.36-17"/><path class="cls-3" d="M170.44,243q2,4,4.44,7.83h0a19.53,19.53,0,0,0,18-.83h0a19.6,19.6,0,0,1,9.79-2.62h0a19.62,19.62,0,0,1,9.79,2.62A19.56,19.56,0,0,0,232,250s0,0,0,0a19.6,19.6,0,0,1,9.79-2.62h0a19.6,19.6,0,0,1,9.79,2.62,19.53,19.53,0,0,0,18,.83Q272,247,274,243h0a21.09,21.09,0,0,0-2.84,1.35h0a19.56,19.56,0,0,1-19.58,0,19.6,19.6,0,0,0-9.79-2.62h0a19.63,19.63,0,0,0-9.79,2.62h0a19.56,19.56,0,0,1-19.58,0,19.6,19.6,0,0,0-9.79-2.62h0a19.6,19.6,0,0,0-9.79,2.62h0a19.84,19.84,0,0,1-4.73,2,19.56,19.56,0,0,1-14.85-2,19.33,19.33,0,0,0-2.84-1.34h0"/><path class="cls-3" d="M264.48,258a91,91,0,0,1-42.27,30.09h0A91.07,91.07,0,0,1,180,258a19.54,19.54,0,0,0,12.9-2.38h0a19.6,19.6,0,0,1,9.79-2.62h0a19.65,19.65,0,0,1,9.79,2.62,19.56,19.56,0,0,0,19.58,0s0,0,0,0a19.6,19.6,0,0,1,9.79-2.62h0a19.6,19.6,0,0,1,9.79,2.62,19.52,19.52,0,0,0,12.9,2.37h0"/></g><g id="Layer_1" data-name="Layer 1"><path class="cls-7" d="M863.1,6A25,25,0,0,1,888,30.9V569a24.9,24.9,0,0,1-24.9,24.9H32.9A24.82,24.82,0,0,1,8,569.1V30.9A25,25,0,0,1,32.9,6H863.1m0-6H32.9A30.86,30.86,0,0,0,2,30.9H2V569a30.88,30.88,0,0,0,30.9,31H863a30.86,30.86,0,0,0,30.9-30.9V30.9A30.71,30.71,0,0,0,863.1,0Z"/></g></svg>