<?xml version="1.0" encoding="UTF-8"?>
<!DOCTYPE svg PUBLIC "-//W3C//DTD SVG 1.1//EN" "http://www.w3.org/Graphics/SVG/1.1/DTD/svg11.dtd">
<svg xmlns="http://www.w3.org/2000/svg" version="1.1" width="178px" height="210px" style="shape-rendering:geometricPrecision; text-rendering:geometricPrecision; image-rendering:optimizeQuality; fill-rule:evenodd; clip-rule:evenodd" xmlns:xlink="http://www.w3.org/1999/xlink">
<g><path style="opacity:0.73" fill="#13215d" d="M 177.5,15.5 C 177.5,42.1667 177.5,68.8333 177.5,95.5C 171.742,130.851 156.075,161.018 130.5,186C 119.535,194.952 107.535,202.286 94.5,208C 89.4107,208.826 84.4107,208.492 79.5,207C 46.8167,192.649 23.9833,168.816 11,135.5C 6.04291,121.329 2.20958,106.996 -0.5,92.5C -0.5,66.8333 -0.5,41.1667 -0.5,15.5C 58.8459,-3.14289 118.179,-3.14289 177.5,15.5 Z"/></g>
<g><path style="opacity:1" fill="#f8f8fa" d="M 27.5,13.5 C 38.056,12.4509 48.3893,10.7842 58.5,8.5C 61.6414,7.67871 64.9748,7.17871 68.5,7C 104.105,5.53026 139.105,9.36359 173.5,18.5C 173.667,39.8359 173.5,61.1693 173,82.5C 169.889,111.38 160.555,138.047 145,162.5C 130.441,182.4 111.441,196.066 88,203.5C 55.1321,192.971 32.1321,171.638 19,139.5C 11.5131,121.552 6.84644,102.886 5,83.5C 4.1669,61.8256 4.33357,40.159 5.5,18.5C 12.6996,16.1999 20.033,14.5332 27.5,13.5 Z"/></g>
<g><path style="opacity:1" fill="#c1c3d4" d="M 58.5,8.5 C 48.3893,10.7842 38.056,12.4509 27.5,13.5C 37.5185,10.6642 47.8518,8.99754 58.5,8.5 Z"/></g>
<g><path style="opacity:1" fill="#181818" d="M 83.5,12.5 C 101.574,12.3183 108.408,20.9849 104,38.5C 97.731,47.7134 89.5643,49.8801 79.5,45C 67.7288,32.4326 69.0621,21.5993 83.5,12.5 Z"/></g>
<g><path style="opacity:1" fill="#f2f2f2" d="M 80.5,16.5 C 83.462,17.0609 86.2953,18.0609 89,19.5C 97.1841,14.3278 100.851,16.6612 100,26.5C 101.892,28.0542 103.392,29.8876 104.5,32C 103.391,34.0466 102.724,36.2133 102.5,38.5C 100.143,38.3367 97.8098,38.5034 95.5,39C 90.8333,47.6667 86.1667,47.6667 81.5,39C 79.4233,38.8078 77.4233,38.3078 75.5,37.5C 72.3316,33.2471 72.8316,29.5805 77,26.5C 77.3333,23.8333 77.6667,21.1667 78,18.5C 78.9947,17.9341 79.828,17.2674 80.5,16.5 Z"/></g>
<g><path style="opacity:1" fill="#131314" d="M 84.5,23.5 C 90.6481,21.7877 93.9815,23.9544 94.5,30C 91.5248,36.6536 87.6915,37.1536 83,31.5C 83.3594,28.8877 83.8594,26.221 84.5,23.5 Z"/></g>
<g><path style="opacity:1" fill="#535d89" d="M 28.5,59.5 C 28.5,56.5 28.5,53.5 28.5,50.5C 23.8333,50.5 19.1667,50.5 14.5,50.5C 13.9455,54.0122 14.6122,57.0122 16.5,59.5C 15.791,60.404 14.791,60.7373 13.5,60.5C 13.5,56.8333 13.5,53.1667 13.5,49.5C 18.8333,49.5 24.1667,49.5 29.5,49.5C 29.8128,53.0419 29.4794,56.3752 28.5,59.5 Z"/></g>
<g><path style="opacity:1" fill="#0c1955" d="M 28.5,59.5 C 26.6921,58.0821 26.0254,56.0821 26.5,53.5C 25.4324,52.5655 24.099,52.2322 22.5,52.5C 22.9746,55.0821 22.3079,57.0821 20.5,58.5C 20.5,56.5 20.5,54.5 20.5,52.5C 19.1667,52.5 17.8333,52.5 16.5,52.5C 16.5,54.8333 16.5,57.1667 16.5,59.5C 14.6122,57.0122 13.9455,54.0122 14.5,50.5C 19.1667,50.5 23.8333,50.5 28.5,50.5C 28.5,53.5 28.5,56.5 28.5,59.5 Z"/></g>
<g><path style="opacity:1" fill="#2b2b65" d="M 160.5,50.5 C 161.5,50.5 162.5,50.5 163.5,50.5C 163.5,51.8333 163.5,53.1667 163.5,54.5C 162.5,54.5 161.5,54.5 160.5,54.5C 160.5,53.1667 160.5,51.8333 160.5,50.5 Z"/></g>
<g><path style="opacity:1" fill="#8389a9" d="M 26.5,53.5 C 25.5,53.5 24.5,53.5 23.5,53.5C 23.5,55.5 23.5,57.5 23.5,59.5C 22.209,59.7373 21.209,59.404 20.5,58.5C 22.3079,57.0821 22.9746,55.0821 22.5,52.5C 24.099,52.2322 25.4324,52.5655 26.5,53.5 Z"/></g>
<g><path style="opacity:1" fill="#a6abc2" d="M 20.5,58.5 C 19.8365,56.9581 19.1698,55.2914 18.5,53.5C 17.8313,55.6309 17.1646,57.6309 16.5,59.5C 16.5,57.1667 16.5,54.8333 16.5,52.5C 17.8333,52.5 19.1667,52.5 20.5,52.5C 20.5,54.5 20.5,56.5 20.5,58.5 Z"/></g>
<g><path style="opacity:1" fill="#222761" d="M 160.5,55.5 C 162.017,55.5106 163.184,56.1772 164,57.5C 165.377,65.7899 161.877,69.6233 153.5,69C 148.933,66.3667 147.433,62.5333 149,57.5C 150,56.1667 151,56.1667 152,57.5C 150.409,63.9097 152.909,66.4097 159.5,65C 160.894,64.044 161.561,62.7106 161.5,61C 161.057,59.175 160.723,57.3417 160.5,55.5 Z"/></g>
<g><path style="opacity:1" fill="#1b215c" d="M 14.5,63.5 C 15.675,63.281 16.675,63.6143 17.5,64.5C 15.9139,67.2163 16.2472,69.5497 18.5,71.5C 19.7602,68.9449 21.0936,66.4449 22.5,64C 26.8334,62.5106 29.1667,64.0106 29.5,68.5C 29.5629,70.4809 28.8962,72.1476 27.5,73.5C 26.6919,73.1924 26.0253,72.6924 25.5,72C 26.4061,70.3005 26.7394,68.4672 26.5,66.5C 25.5,66.5 24.5,66.5 23.5,66.5C 23.1371,74.4317 19.9704,76.0983 14,71.5C 13.2782,68.7395 13.4448,66.0728 14.5,63.5 Z"/></g>
<g><path style="opacity:1" fill="#151d58" d="M 160.5,70.5 C 161.5,70.5 162.5,70.5 163.5,70.5C 163.5,71.5 163.5,72.5 163.5,73.5C 162.5,73.5 161.5,73.5 160.5,73.5C 160.5,72.5 160.5,71.5 160.5,70.5 Z"/></g>
<g><path style="opacity:1" fill="#8990ae" d="M 30.5,79.5 C 29.8423,78.6016 29.1757,77.6016 28.5,76.5C 27.6143,77.325 27.281,78.325 27.5,79.5C 26.5655,78.4324 26.2322,77.099 26.5,75.5C 27.8333,75.5 29.1667,75.5 30.5,75.5C 30.5,76.8333 30.5,78.1667 30.5,79.5 Z"/></g>
<g><path style="opacity:1" fill="#1b245f" d="M 75.5,51.5 C 96.2879,51.6602 116.955,53.3268 137.5,56.5C 137.207,77.7152 133.707,98.3819 127,118.5C 117.941,136.23 105.275,150.896 89,162.5C 63.1484,145.297 47.8151,121.297 43,90.5C 41.3855,79.2073 40.7188,67.8739 41,56.5C 52.5589,54.5363 64.0589,52.8696 75.5,51.5 Z"/></g>
<g><path style="opacity:1" fill="#59618c" d="M 110.5,56.5 C 114.79,56.1977 118.79,56.8643 122.5,58.5C 118.267,58.4613 114.267,57.7947 110.5,56.5 Z"/></g>
<g><path style="opacity:1" fill="#f5f6f7" d="M 110.5,56.5 C 114.267,57.7947 118.267,58.4613 122.5,58.5C 124.604,58.2011 126.604,58.5344 128.5,59.5C 104.205,77.655 79.8716,95.8216 55.5,114C 54.552,114.483 53.552,114.649 52.5,114.5C 47.743,99.0375 45.0763,83.2042 44.5,67C 44.8333,64.5 45.1667,62 45.5,59.5C 67.0259,55.6501 88.6926,54.6501 110.5,56.5 Z"/></g>
<g><path style="opacity:1" fill="#e2bd7b" d="M 81.5,75.5 C 82.5,75.5 83.5,75.5 84.5,75.5C 83.7542,79.31 82.7542,79.31 81.5,75.5 Z"/></g>
<g><path style="opacity:1" fill="#e3c288" d="M 50.5,75.5 C 54.9147,75.7086 55.4147,77.0419 52,79.5C 50.8118,78.4366 50.3118,77.1033 50.5,75.5 Z"/></g>
<g><path style="opacity:1" fill="#2b2f67" d="M 98.5,72.5 C 100.728,73.3218 101.395,74.6552 100.5,76.5C 99.2949,75.4231 98.6282,74.0898 98.5,72.5 Z"/></g>
<g><path style="opacity:1" fill="#161e58" d="M 98.5,72.5 C 95.4524,72.506 94.9524,71.506 97,69.5C 98.0386,70.2438 98.5386,71.2438 98.5,72.5 Z"/></g>
<g><path style="opacity:1" fill="#e8c689" d="M 74.5,68.5 C 75.5862,68.62 76.2528,69.2867 76.5,70.5C 75.6964,72.9573 74.6964,72.9573 73.5,70.5C 73.8627,69.8165 74.1961,69.1499 74.5,68.5 Z"/></g>
<g><path style="opacity:1" fill="#e2c28a" d="M 60.5,69.5 C 65.1366,69.6077 65.47,70.6077 61.5,72.5C 60.6143,71.675 60.281,70.675 60.5,69.5 Z"/></g>
<g><path style="opacity:1" fill="#474b7c" d="M 105.5,65.5 C 104.662,65.1583 104.328,64.4916 104.5,63.5C 105.721,62.9717 106.887,62.305 108,61.5C 108.333,61.8333 108.667,62.1667 109,62.5C 109.833,61.5 110.667,60.5 111.5,59.5C 113.781,61.3944 114.948,63.7277 115,66.5C 113.736,64.393 111.903,63.393 109.5,63.5C 109.353,73.2774 108.353,73.6107 106.5,64.5C 105.893,64.6236 105.56,64.9569 105.5,65.5 Z"/></g>
<g><path style="opacity:1" fill="#141d5a" d="M 100.5,66.5 C 101.959,66.4326 103.292,66.7659 104.5,67.5C 104.662,69.5273 104.495,71.5273 104,73.5C 103.009,72.0611 101.676,71.0611 100,70.5C 99.235,68.9343 99.4017,67.6009 100.5,66.5 Z"/></g>
<g><path style="opacity:1" fill="#b1b6c9" d="M 100.5,67.5 C 103.293,67.74 103.793,68.74 102,70.5C 100.961,69.7562 100.461,68.7562 100.5,67.5 Z"/></g>
<g><path style="opacity:1" fill="#a4aac0" d="M 104.5,63.5 C 104.328,64.4916 104.662,65.1583 105.5,65.5C 105.167,66.1667 104.833,66.8333 104.5,67.5C 103.292,66.7659 101.959,66.4326 100.5,66.5C 101.926,65.6588 103.26,64.6588 104.5,63.5 Z"/></g>
<g><path style="opacity:1" fill="#141e5a" d="M 150.5,73.5 C 149.549,74.9187 149.216,76.5853 149.5,78.5C 151.167,78.5 152.833,78.5 154.5,78.5C 154.5,76.8333 154.5,75.1667 154.5,73.5C 156.256,74.5521 156.923,76.2188 156.5,78.5C 158.042,79.1635 159.709,79.8302 161.5,80.5C 160.311,81.4287 158.978,81.762 157.5,81.5C 154.167,81.5 150.833,81.5 147.5,81.5C 147.5,78.1667 147.5,74.8333 147.5,71.5C 149.179,71.2852 150.179,71.9519 150.5,73.5 Z"/></g>
<g><path style="opacity:1" fill="#6c759a" d="M 150.5,73.5 C 150.5,74.8333 150.5,76.1667 150.5,77.5C 151.5,77.5 152.5,77.5 153.5,77.5C 153.232,75.901 153.566,74.5676 154.5,73.5C 154.5,75.1667 154.5,76.8333 154.5,78.5C 152.833,78.5 151.167,78.5 149.5,78.5C 149.216,76.5853 149.549,74.9187 150.5,73.5 Z"/></g>
<g><path style="opacity:1" fill="#5f6890" d="M 156.5,78.5 C 158.5,78.5 160.5,78.5 162.5,78.5C 162.5,79.8333 162.5,81.1667 162.5,82.5C 160.585,82.7845 158.919,82.4511 157.5,81.5C 158.978,81.762 160.311,81.4287 161.5,80.5C 159.709,79.8302 158.042,79.1635 156.5,78.5 Z"/></g>
<g><path style="opacity:1" fill="#16215c" d="M 30.5,79.5 C 30.5,80.1667 30.5,80.8333 30.5,81.5C 30.2436,83.7925 30.5769,85.9592 31.5,88C 31.1667,88.1667 30.8333,88.3333 30.5,88.5C 29.8243,87.3984 29.1577,86.3984 28.5,85.5C 24.3396,84.6888 20.0063,84.6888 15.5,85.5C 15.5,84.5 15.5,83.5 15.5,82.5C 18.5318,82.495 21.5318,82.1616 24.5,81.5C 26.0296,81.3601 27.0296,80.6935 27.5,79.5C 27.281,78.325 27.6143,77.325 28.5,76.5C 29.1757,77.6016 29.8423,78.6016 30.5,79.5 Z"/></g>
<g><path style="opacity:1" fill="#a1a5be" d="M 30.5,81.5 C 31.7682,83.9052 32.4349,86.5718 32.5,89.5C 31.1667,89.5 29.8333,89.5 28.5,89.5C 28.5,88.1667 28.5,86.8333 28.5,85.5C 29.1577,86.3984 29.8243,87.3984 30.5,88.5C 30.8333,88.3333 31.1667,88.1667 31.5,88C 30.5769,85.9592 30.2436,83.7925 30.5,81.5 Z"/></g>
<g><path style="opacity:1" fill="#207d44" d="M 69.5,75.5 C 67.9662,90.8873 69.9662,91.8873 75.5,78.5C 76.0283,77.2794 76.695,76.1127 77.5,75C 78.4835,74.4092 79.1501,74.7425 79.5,76C 78.1726,78.453 77.3393,80.953 77,83.5C 81.4445,80.9918 81.6112,81.4918 77.5,85C 89.4265,79.7412 90.0932,80.7412 79.5,88C 80.5,88.3333 81.5,88.6667 82.5,89C 73.9661,93.0904 65.2994,93.4237 56.5,90C 55.5138,87.6716 53.5138,85.6716 50.5,84C 53.3078,83.7623 55.9744,84.0956 58.5,85C 55.7074,82.2656 56.0407,81.2656 59.5,82C 57.6812,79.9437 57.0145,77.7771 57.5,75.5C 59.1491,77.6499 60.9824,79.6499 63,81.5C 62.8047,79.8739 62.8047,78.2072 63,76.5C 64.5862,78.6705 65.9196,81.0038 67,83.5C 67.1747,79.789 67.6747,76.1224 68.5,72.5C 69.3857,73.325 69.719,74.325 69.5,75.5 Z"/></g>
<g><path style="opacity:1" fill="#387e56" d="M 69.5,75.5 C 70.3091,77.2922 70.8091,79.2922 71,81.5C 71.7485,79.6675 72.7485,78.0009 74,76.5C 74.2784,77.4158 74.7784,78.0825 75.5,78.5C 69.9662,91.8873 67.9662,90.8873 69.5,75.5 Z"/></g>
<g><path style="opacity:1" fill="#242b64" d="M 25.5,91.5 C 27.8333,91.5 30.1667,91.5 32.5,91.5C 32.5,92.5 32.5,93.5 32.5,94.5C 28.753,94.3924 25.0863,94.8924 21.5,96C 20.6198,97.3561 20.2865,98.8561 20.5,100.5C 25.1925,100.46 29.8592,100.127 34.5,99.5C 34.67,100.822 34.3366,101.989 33.5,103C 29.2028,104.092 24.8695,104.425 20.5,104C 15.4468,97.0713 17.1135,92.9047 25.5,91.5 Z"/></g>
<g><path style="opacity:1" fill="#f8f3f4" d="M 131.5,61.5 C 133.845,84.0465 129.678,105.713 119,126.5C 110.609,137.896 101.109,148.396 90.5,158C 89.5,158.667 88.5,158.667 87.5,158C 75.1893,147.359 64.6893,135.192 56,121.5C 55.3333,120.5 55.3333,119.5 56,118.5C 81.5038,99.844 106.67,80.844 131.5,61.5 Z"/></g>
<g><path style="opacity:1" fill="#af1c19" d="M 96.5,89.5 C 98.3904,89.2965 99.8904,89.9632 101,91.5C 106.942,101.107 113.275,110.44 120,119.5C 119.828,122.351 118.661,124.851 116.5,127C 114.887,127.089 113.72,126.255 113,124.5C 106.152,114.323 99.3183,104.156 92.5,94C 94.0182,92.6494 95.3515,91.1494 96.5,89.5 Z"/></g>
<g><path style="opacity:1" fill="#b01f1c" d="M 111.5,78.5 C 112.675,78.281 113.675,78.6143 114.5,79.5C 118.47,85.9687 122.637,92.302 127,98.5C 126.713,102.218 125.879,105.884 124.5,109.5C 118.376,100.753 112.376,91.9199 106.5,83C 108.24,81.483 109.906,79.983 111.5,78.5 Z"/></g>
<g><path style="opacity:1" fill="#b22520" d="M 126.5,67.5 C 128.911,67.1367 130.411,68.1367 131,70.5C 131.696,74.9054 131.363,79.2388 130,83.5C 127.302,79.633 124.802,75.633 122.5,71.5C 123.867,70.16 125.2,68.8267 126.5,67.5 Z"/></g>
<g><path style="opacity:1" fill="#202762" d="M 156.5,89.5 C 157.833,89.5 159.167,89.5 160.5,89.5C 160.5,90.5 160.5,91.5 160.5,92.5C 159.5,92.5 158.5,92.5 157.5,92.5C 157.724,96.2044 157.89,99.871 158,103.5C 153.5,100.333 149,97.1667 144.5,94C 148.563,92.4915 152.563,90.9915 156.5,89.5 Z"/></g>
<g><path style="opacity:1" fill="#9a9fba" d="M 152.5,93.5 C 153.5,93.5 154.5,93.5 155.5,93.5C 155.443,98.1989 153.776,98.6989 150.5,95C 151.416,94.7216 152.082,94.2216 152.5,93.5 Z"/></g>
<g><path style="opacity:1" fill="#af1c1a" d="M 83.5,99.5 C 85.0744,99.9371 86.2411,100.937 87,102.5C 93.7503,113.669 100.75,124.669 108,135.5C 107.707,139.003 105.874,141.669 102.5,143.5C 93.9172,130.67 85.5839,117.67 77.5,104.5C 79.5441,102.781 81.5441,101.114 83.5,99.5 Z"/></g>
<g><path style="opacity:1" fill="#222761" d="M 33.5,105.5 C 34.4959,105.414 35.3292,105.748 36,106.5C 38.6261,111.7 37.7928,116.2 33.5,120C 24.6234,121.477 20.6234,117.643 21.5,108.5C 25.7607,108.102 29.7607,107.102 33.5,105.5 Z"/></g>
<g><path style="opacity:1" fill="#eeeff3" d="M 29.5,110.5 C 30.8333,110.5 32.1667,110.5 33.5,110.5C 33.5,111.833 33.5,113.167 33.5,114.5C 29.8594,118.76 26.8594,118.26 24.5,113C 25.619,111.124 27.2856,110.291 29.5,110.5 Z"/></g>
<g><path style="opacity:1" fill="#898fac" d="M 29.5,110.5 C 30.9187,109.549 32.5853,109.216 34.5,109.5C 34.7845,111.415 34.4511,113.081 33.5,114.5C 33.5,113.167 33.5,111.833 33.5,110.5C 32.1667,110.5 30.8333,110.5 29.5,110.5 Z"/></g>
<g><path style="opacity:1" fill="#1c225d" d="M 149.5,115.5 C 147.485,114.076 145.152,113.41 142.5,113.5C 140.186,109.248 141.186,105.415 145.5,102C 155.879,101.549 158.879,106.049 154.5,115.5C 152.833,116.666 151.166,116.666 149.5,115.5 Z"/></g>
<g><path style="opacity:1" fill="#e5e6ed" d="M 145.5,105.5 C 151.833,104.5 154.5,107.167 153.5,113.5C 149.601,113.369 146.268,112.036 143.5,109.5C 144.18,108.14 144.847,106.807 145.5,105.5 Z"/></g>
<g><path style="opacity:1" fill="#ae1a18" d="M 67.5,111.5 C 68.4959,111.414 69.3292,111.748 70,112.5C 78.2522,125.339 86.7522,138.006 95.5,150.5C 93.8099,153.024 91.6432,155.024 89,156.5C 79.6381,143.304 70.4714,129.971 61.5,116.5C 63.5193,114.81 65.5193,113.144 67.5,111.5 Z"/></g>
<g><path style="opacity:1" fill="#575e8b" d="M 142.5,113.5 C 145.152,113.41 147.485,114.076 149.5,115.5C 146.848,115.59 144.515,114.924 142.5,113.5 Z"/></g>
<g><path style="opacity:1" fill="#21255f" d="M 138.5,115.5 C 143.987,116.328 148.987,118.328 153.5,121.5C 153.167,122.5 152.5,123.167 151.5,123.5C 147.345,122.132 143.345,120.466 139.5,118.5C 138.614,117.675 138.281,116.675 138.5,115.5 Z"/></g>
<g><path style="opacity:1" fill="#181e5a" d="M 37.5,120.5 C 39.3464,120.222 40.6798,120.889 41.5,122.5C 36.9345,124.366 32.4345,126.366 28,128.5C 26.3831,127.464 26.2164,126.297 27.5,125C 31.0421,123.725 34.3755,122.225 37.5,120.5 Z"/></g>
<g><path style="opacity:1" fill="#1e245f" d="M 137.5,121.5 C 141.224,120.773 143.891,122.106 145.5,125.5C 147.5,126.167 149.5,126.833 151.5,127.5C 151.291,128.086 150.957,128.586 150.5,129C 148.236,129.236 146.069,129.736 144,130.5C 143.667,132.934 144.834,133.934 147.5,133.5C 147.5,134.5 147.5,135.5 147.5,136.5C 142.472,135.737 137.972,133.737 134,130.5C 133.333,129.5 133.333,128.5 134,127.5C 135.394,125.612 136.56,123.612 137.5,121.5 Z"/></g>
<g><path style="opacity:1" fill="#e2e3ea" d="M 138.5,125.5 C 143.073,125.976 143.573,127.642 140,130.5C 137.389,129.5 136.889,127.833 138.5,125.5 Z"/></g>
<g><path style="opacity:1" fill="#1d245f" d="M 29.5,131.5 C 34.8437,131.334 40.1771,131.501 45.5,132C 42.6974,136.436 39.5307,140.603 36,144.5C 35.3076,143.975 34.8076,143.308 34.5,142.5C 36.1139,137.781 34.4473,135.114 29.5,134.5C 29.5,133.5 29.5,132.5 29.5,131.5 Z"/></g>
<g><path style="opacity:1" fill="#dbdde6" d="M 36.5,134.5 C 39.5476,134.494 40.0476,135.494 38,137.5C 36.9614,136.756 36.4614,135.756 36.5,134.5 Z"/></g>
<g><path style="opacity:1" fill="#19235e" d="M 129.5,132.5 C 130.222,132.918 130.722,133.584 131,134.5C 131.833,132 133,131.833 134.5,134C 132.559,135.816 131.892,137.816 132.5,140C 134.752,139.95 136.418,138.784 137.5,136.5C 137.631,139.035 137.631,141.535 137.5,144C 138.167,144.667 138.833,144.667 139.5,144C 140.305,142.028 141.639,140.528 143.5,139.5C 144.308,139.808 144.975,140.308 145.5,141C 143.38,143.409 141.38,145.909 139.5,148.5C 135.253,146.418 131.419,143.751 128,140.5C 128.041,137.794 128.541,135.128 129.5,132.5 Z"/></g>
<g><path style="opacity:1" fill="#1e2862" d="M 117.5,154.5 C 121.353,153.834 125.353,153.167 129.5,152.5C 129.376,151.893 129.043,151.56 128.5,151.5C 128.105,148.314 127.105,145.314 125.5,142.5C 125.833,142.167 126.167,141.833 126.5,141.5C 129.91,144.288 133.41,146.955 137,149.5C 137.601,150.965 137.101,151.965 135.5,152.5C 134.186,151.687 133.019,150.687 132,149.5C 131.982,151.797 132.149,154.131 132.5,156.5C 130.473,156.338 128.473,156.505 126.5,157C 129.335,158.44 129.835,160.273 128,162.5C 124.624,159.617 121.124,156.951 117.5,154.5 Z"/></g>
<g><path style="opacity:1" fill="#202963" d="M 47.5,138.5 C 48.3227,141.977 48.8227,145.644 49,149.5C 51.0369,146.361 53.5369,145.528 56.5,147C 52.8333,150.167 49.1667,153.333 45.5,156.5C 44.7817,152.761 44.4484,149.095 44.5,145.5C 42.8067,147.027 40.9734,148.36 39,149.5C 38.3076,148.975 37.8076,148.308 37.5,147.5C 40.8533,144.478 44.1866,141.478 47.5,138.5 Z"/></g>
<g><path style="opacity:1" fill="#8c92af" d="M 128.5,151.5 C 129.043,151.56 129.376,151.893 129.5,152.5C 125.353,153.167 121.353,153.834 117.5,154.5C 116.957,154.44 116.624,154.107 116.5,153.5C 120.647,152.833 124.647,152.166 128.5,151.5 Z"/></g>
<g><path style="opacity:1" fill="#1a245f" d="M 55.5,150.5 C 59.4154,152.743 62.7488,155.743 65.5,159.5C 63.9767,162.188 62.6433,162.022 61.5,159C 60.5,158.333 59.5,158.333 58.5,159C 56.1311,162.226 53.1311,164.392 49.5,165.5C 49.3505,164.448 49.5172,163.448 50,162.5C 52.6277,160.874 54.961,158.874 57,156.5C 57.322,154.311 56.822,152.311 55.5,150.5 Z"/></g>
<g><path style="opacity:1" fill="#17215d" d="M 109.5,160.5 C 110.756,160.461 111.756,160.961 112.5,162C 110.833,163.667 109.167,165.333 107.5,167C 108.333,167.833 109.167,168.667 110,169.5C 111.341,167.789 112.841,166.622 114.5,166C 114.957,166.414 115.291,166.914 115.5,167.5C 114.5,168.833 113.5,170.167 112.5,171.5C 113.035,173.101 114.035,173.601 115.5,173C 116.685,171.647 118.019,170.48 119.5,169.5C 119.833,170 120.167,170.5 120.5,171C 119,173.833 116.833,176 114,177.5C 110.566,174.066 107.066,170.566 103.5,167C 105.706,164.963 107.706,162.797 109.5,160.5 Z"/></g>
<g><path style="opacity:1" fill="#17205c" d="M 66.5,162.5 C 69.4123,164.066 72.079,166.066 74.5,168.5C 74.1667,169.5 73.5,170.167 72.5,170.5C 71.0186,169.52 69.6853,168.353 68.5,167C 66.3333,166.5 65.5,167.333 66,169.5C 67.0736,170.618 68.2402,171.618 69.5,172.5C 69.1924,173.308 68.6924,173.975 68,174.5C 66.8333,173.333 65.6667,172.167 64.5,171C 62.7627,170.388 61.7627,171.054 61.5,173C 63.2026,174.37 64.536,176.036 65.5,178C 65.1667,178.5 64.8333,179 64.5,179.5C 61.8333,177.5 59.5,175.167 57.5,172.5C 60.5222,169.147 63.5222,165.813 66.5,162.5 Z"/></g>
<g><path style="opacity:1" fill="#1b225d" d="M 75.5,171.5 C 79.5174,171.342 82.5174,173.009 84.5,176.5C 84,176.833 83.5,177.167 83,177.5C 81.1397,175.799 78.973,174.799 76.5,174.5C 77.5895,177.43 78.9228,180.264 80.5,183C 78.975,187.722 75.975,188.722 71.5,186C 70.624,184.414 69.624,182.914 68.5,181.5C 69,181.167 69.5,180.833 70,180.5C 71.9858,182.815 74.4858,184.148 77.5,184.5C 76.4105,181.57 75.0772,178.736 73.5,176C 73.5186,174.167 74.1852,172.667 75.5,171.5 Z"/></g>
<g><path style="opacity:1" fill="#161e5b" d="M 98.5,170.5 C 111.557,173.063 112.89,178.73 102.5,187.5C 99.1951,183.859 95.8617,180.192 92.5,176.5C 94.215,174.118 96.215,172.118 98.5,170.5 Z"/></g>
<g><path style="opacity:1" fill="#dddfe8" d="M 98.5,173.5 C 103.835,173.005 106.335,175.338 106,180.5C 104.981,181.687 103.814,182.687 102.5,183.5C 100.5,181.167 98.5,178.833 96.5,176.5C 97.1925,175.482 97.8592,174.482 98.5,173.5 Z"/></g>
</svg>
