<?xml version="1.0" encoding="UTF-8"?>
<svg id="Layer_1" xmlns="http://www.w3.org/2000/svg" version="1.1" viewBox="0 0 400 400">
  <!-- Generator: Adobe Illustrator 29.8.1, SVG Export Plug-In . SVG Version: 2.1.1 Build 2)  -->
  <defs>
    <style>
      .st0 {
        fill: #e41512;
      }

      .st1 {
        fill: #afa074;
      }

      .st2 {
        fill: #e5e6dd;
      }
    </style>
  </defs>
  <path class="st1" d="M69.1.3c10.4-.4,23.2,0,33.8,0h65.9c54,0,108.9-.5,162.8,0,4.6,3.7,10.9,10.7,15.2,15.1v298.6s-64.3,37.8-64.3,37.8c-27.3,15.8-55.2,32.9-82.6,48.3l-146.8-86V15.3c3.9-3.6,12.2-12.8,16-15Z"/>
  <path class="st0" d="M73.8,9.4c17.6-.4,36.6,0,54.3,0h100.8s65.7,0,65.7,0c9.4,0,24.5-.5,33.5.1,3.6,3.3,6.5,6.2,9.5,10,.6,6.5.2,20.2.2,27.3v55.1s0,135.1,0,135.1c0,23.6-.4,48.6.1,72-5.2,3.3-10.8,6.3-16.2,9.4l-41.9,24.4c-4.1,2.6-8.7,4.8-12.8,7.4-21.7,13.6-45.5,25.4-67,39.2-2.9-2.3-7.9-4.9-11.2-6.9-8.3-5.1-17-9.7-25.4-14.6l-100.9-58.8c-.3-4.4-.1-11,0-15.6v-27.4s0-88.2,0-88.2v-103.8s0-32.7,0-32.7c0-7.1-.2-14.8.2-21.8,1.8-2.6,8.4-9.6,11.4-10.1Z"/>
  <path class="st2" d="M176.3,95.3c15.4,0,32.1.3,47.4,0v175.8c0,28.1-.2,56.6.1,84.7-2.7,1.7-5.5,3.2-8.2,4.8-5.2,3-10.4,6-15.5,9.2-7.7-4.2-15.8-9.7-23.8-14.1-.4-10.2-.1-22.1-.1-32.4v-59.7s0-168.2,0-168.2Z"/>
  <path class="st2" d="M84.8,95.4c14.4-.4,29.9,0,44.3,0v158.9s0,50.6,0,50.6c0,3.2.5,21.5-.6,23l-1.1-.5c-10.6-5.7-21.5-12.7-32-18.6-3.9-2.1-10.1-6.3-13.9-7.7-.3-17.4,0-35.5,0-53v-101.7s0-35.2,0-35.2c0-2.2-.2-14.1.1-15.4,1.1-.7,1.8-.4,3.3-.5Z"/>
  <path class="st2" d="M270.9,95.3c15.8.3,31.8-.2,47.7.2v205.6c-3.2,1-14.3,7.9-17.8,10-9.8,5.6-20,11.8-29.9,17.2V95.3Z"/>
  <path class="st2" d="M168.4,29.1c9.2,0,19.9.7,27,7.3,8.5,7.9,8,23.5.1,31.6-6,6.2-13.5,8.1-21.8,8.3-10.5.3-21.8.2-32.3.2-.4-15.2-.1-31.9-.2-47.2l27.2-.2Z"/>
  <path class="st0" d="M158.4,40.2c9.2.5,24-2.6,25,11,.3,4.7-.3,6.9-3.4,10.5-5.9,5.1-14,3.8-21.6,3.7-.2-8.3-.2-17,0-25.3Z"/>
  <path class="st2" d="M262.5,29.3c11.3-.1,22.5-.2,33.8-.1,6.5,0,14,1.1,18.7,6,3,3.2,4,6.9,3.9,11.2-.1,4.3-1.7,8.1-5,11-6.4,5.7-13.3,5.4-21.2,5.1-3.9-3.2-7.6-7.2-11.3-10.8,3.5.3,7.3.2,10.8.2,10.7-.5,12.4-10.2,2.2-11.7-3.9-.6-10.6-.2-14.7-.2,0,11.6-.3,24.9,0,36.4-3.9-.3-12.7,0-17.2,0V29.3Z"/>
  <path class="st2" d="M81.4,29.3c16.3-.2,33.4-.2,49.8,0l-.3,11.4h-32.4c0,8,0,16,0,24.1h13.3c6.5,0,12.9.1,19.4.2v11.5c-16.5-.3-33.2,0-49.6,0V29.3Z"/>
  <path class="st2" d="M209.7,29.2c5.7,0,11.4,0,17.1,0-.4,10.7-.2,23.6,0,34.4,7.1-.5,19.9-.2,27.4,0v12.3s-.2.4-.2.4c-1.4.3-10.2.1-12.4.2h-31.8c-.2-15.6,0-31.5,0-47.2Z"/>
  <path class="st2" d="M100.8,47.5c9.1.4,19.6,0,28.9.2-.2,2.9,0,7.2,0,10.1-6,0-12.4.2-18.4,0-3.1-2.4-7.7-7.4-10.6-10.3Z"/>
</svg>