<?xml version="1.0" encoding="UTF-8"?>
<svg id="Calque_2" data-name="Calque 2" xmlns="http://www.w3.org/2000/svg" viewBox="0 0 597.79 713.37">
  <defs>
    <style>
      .cls-1 {
        fill: #fff;
      }

      .cls-2 {
        fill: #003270;
      }

      .cls-3 {
        fill: #fbdb03;
      }
    </style>
  </defs>
  <g id="Calque_4" data-name="Calque 4">
    <g>
      <path class="cls-1" d="M597.78,405.07c-.05,26.94-5.57,50.75-16.41,70.77-9.48,17.5-22.93,32.4-41.16,45.57-18.4,13.2-35.5,21.17-57.16,26.64-21.71,5.47-49.17,8.54-89.01,9.93-21.23.78-42.9,9.94-64.4,27.21-11.18,9-19.3,17.88-23.15,22.38l-7.6,8.88-7.6-8.88c-3.85-4.5-11.97-13.38-23.14-22.38-21.51-17.27-43.18-26.43-64.38-27.21-39.87-1.39-67.33-4.46-89.04-9.93-21.66-5.47-38.75-13.44-57.19-26.66-18.2-13.15-31.65-28.05-41.12-45.55C5.58,455.82.05,432.01,0,405.05c.03-43.71,11.04-71.26,20.75-95.58l.63-1.57c9.93-24.79,19.31-48.2,19.29-84.44-.07-46.77-23.65-85.71-30.87-96.53l-4.24-6.35,5.01-5.77L103.83,7.56l6.58-7.56,7.55,6.6,36.11,31.57C167.02,31.38,229.72.52,298.74.52h.2c40.68,0,78.83,10.75,103.66,19.78,14.03,5.09,25.42,10.19,32.49,13.58,3.8,1.81,6.73,3.3,8.62,4.29l36.11-31.57,7.55-6.6,6.58,7.56,93.26,107.26,5.01,5.76-4.24,6.35c-7.22,10.82-30.8,49.76-30.87,96.52-.02,36.24,9.36,59.65,19.29,84.43l.63,1.59c9.72,24.32,20.72,51.88,20.75,95.6Z"/>
      <path class="cls-3" d="M479.08,41.02l5.83-5.1,72.4,83.26-103.93,90.88c-18.61-32.88-47.41-59.24-82.12-74.76l107.82-94.27Z"/>
      <path class="cls-2" d="M25.43,405.06c.13-38.52,8.85-60.75,18.93-86.14,10.09-25.09,21.85-53.68,21.74-95.47-.04-32.22-9.43-60.31-18.59-80.53-3.61-7.94-7.21-14.69-10.29-20L112.87,35.92l37.98,33.21,12.11-6.87h0c.35-.2,16.87-9.44,42.1-18.49,25.22-9.08,59.12-17.86,93.84-17.82,35.26-.03,69.69,9.03,95.03,18.26,12.67,4.6,23.07,9.21,30.21,12.62,3.57,1.71,6.33,3.11,8.15,4.07.14.08.27.14.4.21l-77.63,67.88c-17.65-5.89-36.53-9.08-56.16-9.08-97.98,0-177.4,79.42-177.4,177.4,0,11.34,1.08,22.43,3.11,33.18l-98.74,86.34c-.27-3.77-.43-7.67-.44-11.76Z"/>
      <path class="cls-3" d="M102,517.3c-10.6-4.24-19.76-9.53-29.6-16.55-13.95-10.04-25.41-21.91-33.61-37.03-4.49-8.33-8.06-17.74-10.38-28.64l100.28-87.68c10.83,36.85,33.3,68.71,63.15,91.35l-89.83,78.55Z"/>
      <path class="cls-2" d="M206.34,532.65c-.55-.03-1.11-.06-1.66-.08-37.82-1.31-63.98-4.17-83.72-9.17-.65-.17-1.27-.34-1.91-.51l85.89-75.1c.47.29.93.59,1.4.87v83.99Z"/>
      <path class="cls-2" d="M291.18,571.39c-2.23-1.97-4.58-3.98-7.1-6.01-9.43-7.57-20.85-15.35-34.14-21.51-8.61-3.98-18.05-7.29-28.17-9.29v-77.48c21.14,10.22,44.62,16.37,69.42,17.43v96.86Z"/>
      <path class="cls-2" d="M184.36,411.83c-29.32-29.34-47.44-69.78-47.44-114.53,0-44.75,18.12-85.2,47.44-114.53,29.34-29.32,69.78-47.44,114.53-47.44,44.75,0,85.2,18.12,114.53,47.44,29.33,29.34,47.44,69.78,47.44,114.53,0,44.75-18.12,85.2-47.44,114.53-29.33,29.32-69.78,47.44-114.53,47.44-44.75,0-85.2-18.12-114.53-47.44Z"/>
      <path class="cls-2" d="M376.03,534.58c-10.13,2-19.57,5.31-28.17,9.29-16.84,7.82-30.68,18.16-41.24,27.51v-96.86c24.8-1.06,48.28-7.2,69.42-17.43v77.48Z"/>
      <path class="cls-2" d="M460.87,526.73c-17.48,2.99-39.31,4.85-67.74,5.84-.56.02-1.12.06-1.68.09v-83.99c30.39-18.62,54.73-46.13,69.42-78.92v156.99Z"/>
      <path class="cls-2" d="M525.39,500.75c-15.21,10.85-28.78,17.59-48.56,22.64-.18.04-.36.08-.54.13v-226.01c0-.07,0-.14,0-.21,0-26.05-5.62-50.78-15.7-73.06l87.61-76.6c-8.45,19.77-16.48,46.02-16.52,75.81-.12,41.79,11.65,70.38,21.74,95.47,10.08,25.39,18.8,47.63,18.93,86.14-.03,24.84-5.2,43.52-13.36,58.67-8.2,15.12-19.66,26.99-33.61,37.03Z"/>
      <path class="cls-3" d="M385.01,322.61l25.78,13.36c-22.37,43.47-60.68,71.93-111.66,71.93-44.38,0-70.47-16.85-93.66-42.15-7.29-7.97-13.58-16.87-18.65-26.5,9.13-11.64,18.37-30.01,18.37-58.74s-9.24-47.1-18.37-58.74c5.07-9.63,11.36-18.53,18.65-26.5,23.19-25.3,49.28-42.15,93.66-42.15,50.98,0,89.29,28.46,111.66,71.93l-25.78,13.36c-18.87-34-49.05-54.28-85.88-54.28-30.96,0-58.48,15.64-75.97,38.38,6.68,13.37,12.44,28.14,12.44,41.74l114.68-.39.1,16.65-.1,16.65-114.68-.39c0,13.6-5.76,28.37-12.44,41.74,17.49,22.74,45.01,38.38,75.97,38.38,36.83,0,67.01-20.29,85.88-54.28Z"/>
      <g>
        <g>
          <path class="cls-3" d="M220.95,594.25l14.17,43.62c.13.41.52.69.95.69h45.86c.97,0,1.37,1.24.59,1.81l-37.1,26.96c-.35.25-.5.71-.36,1.12l14.17,43.62c.3.92-.76,1.69-1.54,1.12l-37.1-26.96c-.35-.25-.83-.25-1.18,0l-37.1,26.96c-.78.57-1.84-.2-1.54-1.12l14.17-43.62c.13-.41-.01-.86-.36-1.12l-37.1-26.96c-.78-.57-.38-1.81.59-1.81h45.86c.43,0,.82-.28.95-.69l14.17-43.62c.3-.92,1.6-.92,1.9,0Z"/>
          <path class="cls-3" d="M63.89,594.25l14.17,43.62c.13.41.52.69.95.69h45.86c.97,0,1.37,1.24.59,1.81l-37.1,26.96c-.35.25-.5.71-.36,1.12l14.17,43.62c.3.92-.76,1.69-1.54,1.12l-37.1-26.96c-.35-.25-.83-.25-1.18,0l-37.1,26.96c-.78.57-1.84-.2-1.54-1.12l14.17-43.62c.13-.41-.01-.86-.36-1.12L.41,640.36c-.78-.57-.38-1.81.59-1.81h45.86c.43,0,.82-.28.95-.69l14.17-43.62c.3-.92,1.6-.92,1.9,0Z"/>
        </g>
        <g>
          <path class="cls-3" d="M535.8,594.25l14.17,43.62c.13.41.52.69.95.69h45.86c.97,0,1.37,1.24.59,1.81l-37.1,26.96c-.35.25-.5.71-.36,1.12l14.17,43.62c.3.92-.76,1.69-1.54,1.12l-37.1-26.96c-.35-.25-.83-.25-1.18,0l-37.1,26.96c-.78.57-1.84-.2-1.54-1.12l14.17-43.62c.13-.41-.01-.86-.36-1.12l-37.1-26.96c-.78-.57-.38-1.81.59-1.81h45.86c.43,0,.82-.28.95-.69l14.17-43.62c.3-.92,1.6-.92,1.9,0Z"/>
          <path class="cls-3" d="M378.74,594.25l14.17,43.62c.13.41.52.69.95.69h45.86c.97,0,1.37,1.24.59,1.81l-37.1,26.96c-.35.25-.5.71-.36,1.12l14.17,43.62c.3.92-.76,1.69-1.54,1.12l-37.1-26.96c-.35-.25-.83-.25-1.18,0l-37.1,26.96c-.78.57-1.84-.2-1.54-1.12l14.17-43.62c.13-.41-.01-.86-.36-1.12l-37.1-26.96c-.78-.57-.38-1.81.59-1.81h45.86c.43,0,.82-.28.95-.69l14.17-43.62c.3-.92,1.6-.92,1.9,0Z"/>
        </g>
      </g>
      <g>
        <g>
          <path class="cls-3" d="M169.79,364.43l-3.5,1.76-5.75-11.44,13.76-6.91,5.62,11.18-3.5,1.76-3.33-6.62-1.61.81,2.92,5.82-3.34,1.68-2.92-5.82-1.81.91,3.46,6.88Z"/>
          <path class="cls-3" d="M189.73,374.08l-16.44,3.08-2.82-4.26,9.24-13.94,3.09,4.66-5.47,8.04,9.58-1.84,2.82,4.26Z"/>
          <path class="cls-3" d="M189.33,391.12l-2.99,2.53-8.27-9.78,11.76-9.94,8.08,9.56-2.99,2.53-4.79-5.66-1.38,1.17,4.21,4.97-2.86,2.42-4.21-4.97-1.55,1.31,4.97,5.88Z"/>
          <path class="cls-3" d="M196,397.69l-1.03-.96-2.65,2.82-3.78-3.55,10.54-11.23,5.4,5.08c3.13,2.94,3.58,6.44,1.14,9.04-1.52,1.62-3.44,2.12-5.43,1.54l-.9,5.68-4.04-3.79.74-4.62ZM201.51,392.53l-1.38-1.29-2.47,2.63,1.38,1.3c1.04.98,2.01.95,2.77.13.77-.82.74-1.78-.3-2.76Z"/>
          <path class="cls-3" d="M210.86,400.6l-3.61-2.71,2.42-3.22,11.37,8.54-2.42,3.22-3.61-2.71-6.83,9.1-4.15-3.12,6.83-9.1Z"/>
          <path class="cls-3" d="M217.06,409.91c2.35-4.03,7.22-5.11,11.56-2.59,4.33,2.52,5.81,7.3,3.46,11.33-2.35,4.03-7.22,5.11-11.56,2.59-4.33-2.52-5.81-7.3-3.46-11.33ZM227.56,416.02c1.21-2.07.61-4.1-1.05-5.06s-3.71-.48-4.92,1.59c-1.21,2.07-.6,4.1,1.05,5.06,1.65.96,3.72.48,4.92-1.59Z"/>
          <path class="cls-3" d="M251.16,418.38l-5.96,14.21-3.94-1.65-2.69-8.72-2.71,6.45-4.67-1.96,5.96-14.21,3.94,1.65,2.69,8.72,2.71-6.45,4.67,1.96Z"/>
          <path class="cls-3" d="M272.16,423.01l-3.75,15.88-4.6-1.09.23-.96c-.89.63-2.03.76-3.49.42-3.06-.72-5.11-3.65-4.22-7.41.89-3.77,4.02-5.45,7.08-4.73,1.28.3,2.19.86,2.74,1.71l1.17-4.97,4.84,1.14ZM265.05,431.91c.36-1.52-.29-2.49-1.37-2.74-1.07-.25-2.09.32-2.45,1.84-.36,1.52.29,2.51,1.36,2.76,1.07.25,2.09-.34,2.45-1.86Z"/>
          <path class="cls-3" d="M284.95,436.25l-8.29-1.06c.23.96,1,1.55,2.22,1.7,1.09.14,1.74-.07,2.6-.56l2.24,2.92c-1.32,1.12-3.08,1.56-5.46,1.26-4.39-.56-6.89-3.56-6.43-7.12.46-3.62,3.69-5.81,7.55-5.31,3.54.45,6.3,2.97,5.78,7.01-.04.35-.15.8-.21,1.15ZM276.88,432.81l3.84.49c-.07-1.03-.71-1.71-1.72-1.84-1.03-.13-1.8.37-2.12,1.35Z"/>
        </g>
        <g>
          <path class="cls-3" d="M308.01,425.92l-6.27,15.51-5.1.08-6.76-15.3,5.59-.09,3.82,8.94,3.62-9.06,5.11-.08Z"/>
          <path class="cls-3" d="M308.16,425.69l5.17-.49,1.46,15.33-5.17.49-1.46-15.33Z"/>
          <path class="cls-3" d="M330.37,422.35l2.82,15.14-4.19.78-7.03-5.8,1.28,6.88-4.97.93-2.82-15.14,4.19-.78,7.03,5.8-1.28-6.88,4.97-.93ZM320.26,422.95l-2.31.43c-.38-2.28.45-3.95,2.29-4.3,1.6-.3,2.66.82,3.44.68.56-.1.86-.56.79-1.18l2.31-.43c.37,2.21-.46,3.89-2.3,4.23-1.6.3-2.66-.83-3.44-.68-.56.1-.85.58-.78,1.24Z"/>
          <path class="cls-3" d="M346.1,430.79l-5.57,1.78-.17,2.87-5.03,1.61,1.72-16.71,4.86-1.55,11.1,12.62-5.11,1.63-1.8-2.24ZM343.6,427.67l-2.6-3.23-.25,4.14,2.85-.91Z"/>
          <path class="cls-3" d="M354.45,414.03l6.71-3.54c4.55-2.4,9.05-1.46,11.27,2.76,2.22,4.22.46,8.46-4.1,10.86l-6.71,3.54-7.18-13.62ZM366.26,420.63c1.93-1.01,2.64-2.86,1.55-4.94-1.1-2.08-3.02-2.53-4.95-1.52l-1.93,1.02,3.4,6.46,1.93-1.02Z"/>
          <path class="cls-3" d="M386.97,407.83l2.22,3.22-10.54,7.26-8.74-12.68,10.31-7.1,2.22,3.22-6.1,4.21,1.02,1.49,5.36-3.7,2.12,3.08-5.36,3.7,1.15,1.67,6.34-4.37Z"/>
          <path class="cls-3" d="M381.62,397.41l3.95-3.37,7.38,8.65,5.29-4.51,2.61,3.06-9.24,7.88-9.99-11.72Z"/>
        </g>
        <g>
          <path class="cls-3" d="M416.16,384.48l-5.41-4.47,2.18,6.18-1.47,1.75-6.28-.89,5.2,4.35-3.03,3.63-11.81-9.88,2.74-3.27,9.51,1.42-3.16-9.01,2.74-3.27,11.84,9.85-3.03,3.63Z"/>
          <path class="cls-3" d="M424.68,367.18l-3.07,4.98,1.74,2.29-2.77,4.49-9.58-13.8,2.68-4.34,16.64,2.35-2.81,4.57-2.83-.53ZM420.74,366.43l-4.08-.76,2.51,3.3,1.57-2.55Z"/>
          <path class="cls-3" d="M430.4,353.5l-.58,1.28,3.53,1.59-2.13,4.74-14.04-6.31,3.04-6.76c1.76-3.91,4.92-5.48,8.17-4.02,2.03.91,3.12,2.56,3.22,4.63l5.66-1-2.27,5.06-4.61.8ZM423.74,349.98l-.78,1.73,3.29,1.48.78-1.73c.59-1.3.24-2.21-.78-2.67s-1.92-.12-2.51,1.19Z"/>
        </g>
      </g>
    </g>
  </g>
</svg>