<?xml version="1.0" encoding="UTF-8"?>
<!DOCTYPE svg PUBLIC "-//W3C//DTD SVG 1.1//EN" "http://www.w3.org/Graphics/SVG/1.1/DTD/svg11.dtd">
<svg xmlns="http://www.w3.org/2000/svg" version="1.1" width="185px" height="210px" style="shape-rendering:geometricPrecision; text-rendering:geometricPrecision; image-rendering:optimizeQuality; fill-rule:evenodd; clip-rule:evenodd" xmlns:xlink="http://www.w3.org/1999/xlink">
<g><path style="opacity:0.999" fill="#e0ae67" d="M 102.5,6.5 C 105.494,8.99975 108.827,10.9998 112.5,12.5C 115.336,15.7565 119.003,17.7565 123.5,18.5C 127.235,19.3012 130.901,20.3012 134.5,21.5C 136.679,22.6772 139.013,23.6772 141.5,24.5C 144.557,26.0949 147.89,27.2616 151.5,28C 158.758,29.5522 166.091,30.3855 173.5,30.5C 174.833,30.5 176.167,30.5 177.5,30.5C 177.828,57.4075 177.495,84.2408 176.5,111C 177.099,112.622 177.766,114.122 178.5,115.5C 178.451,119.078 177.785,122.411 176.5,125.5C 176.5,124.5 176.5,123.5 176.5,122.5C 176.5,122.167 176.5,121.833 176.5,121.5C 176.167,120.167 175.833,120.167 175.5,121.5C 173.126,124.686 172.126,128.353 172.5,132.5C 171.596,133.209 171.263,134.209 171.5,135.5C 171.5,135.833 171.5,136.167 171.5,136.5C 169.025,137.687 168.025,139.687 168.5,142.5C 166.386,143.784 165.386,145.784 165.5,148.5C 165.5,149.167 165.833,149.5 166.5,149.5C 165.277,153.049 163.277,156.049 160.5,158.5C 160.167,157.167 159.833,157.167 159.5,158.5C 158.833,158.5 158.5,158.833 158.5,159.5C 157.167,159.833 157.167,160.167 158.5,160.5C 158.262,162.404 157.262,163.738 155.5,164.5C 155.167,163.167 154.833,163.167 154.5,164.5C 153.833,164.5 153.5,164.833 153.5,165.5C 152.833,165.5 152.5,165.833 152.5,166.5C 151.833,166.5 151.5,166.833 151.5,167.5C 150.833,167.5 150.5,167.833 150.5,168.5C 149.833,168.5 149.5,168.833 149.5,169.5C 148.833,169.5 148.5,169.833 148.5,170.5C 147.833,170.5 147.5,170.833 147.5,171.5C 146.833,171.5 146.5,171.833 146.5,172.5C 145.833,172.5 145.5,172.833 145.5,173.5C 144.833,173.5 144.5,173.833 144.5,174.5C 143.508,174.328 142.842,174.662 142.5,175.5C 141.833,175.5 141.5,175.833 141.5,176.5C 140.833,176.5 140.5,176.833 140.5,177.5C 139.833,177.5 139.5,177.833 139.5,178.5C 138.833,178.5 138.5,178.833 138.5,179.5C 137.833,179.5 137.5,179.833 137.5,180.5C 136.508,180.328 135.842,180.662 135.5,181.5C 134.833,181.5 134.5,181.833 134.5,182.5C 133.508,182.328 132.842,182.662 132.5,183.5C 131.833,183.5 131.5,183.833 131.5,184.5C 130.833,184.5 130.5,184.833 130.5,185.5C 129.508,185.328 128.842,185.662 128.5,186.5C 127.833,186.5 127.5,186.833 127.5,187.5C 126.508,187.328 125.842,187.662 125.5,188.5C 124.508,188.328 123.842,188.662 123.5,189.5C 122.833,189.5 122.5,189.833 122.5,190.5C 121.833,190.5 121.5,190.833 121.5,191.5C 120.508,191.328 119.842,191.662 119.5,192.5C 118.508,192.328 117.842,192.662 117.5,193.5C 116.833,193.5 116.5,193.833 116.5,194.5C 115.508,194.328 114.842,194.662 114.5,195.5C 113.508,195.328 112.842,195.662 112.5,196.5C 111.833,196.5 111.5,196.833 111.5,197.5C 110.508,197.328 109.842,197.662 109.5,198.5C 108.508,198.328 107.842,198.662 107.5,199.5C 106.833,199.5 106.5,199.833 106.5,200.5C 105.508,200.328 104.842,200.662 104.5,201.5C 101.833,201.833 101.833,202.167 104.5,202.5C 103.791,203.404 102.791,203.737 101.5,203.5C 101.167,202.167 100.833,202.167 100.5,203.5C 99.5084,203.328 98.8417,203.662 98.5,204.5C 97.5084,204.328 96.8417,204.662 96.5,205.5C 95.5084,205.328 94.8417,205.662 94.5,206.5C 93.5084,206.328 92.8417,206.662 92.5,207.5C 67.8672,196.722 46.0338,181.722 27,162.5C 26.6667,162.833 26.3333,163.167 26,163.5C 18.7893,156.408 13.6227,148.074 10.5,138.5C 10.8333,138.5 11.1667,138.5 11.5,138.5C 11.8333,139.833 12.1667,139.833 12.5,138.5C 11.6299,133.776 9.96324,129.443 7.5,125.5C 7.5,125.167 7.5,124.833 7.5,124.5C 7.79472,122.265 7.46138,120.265 6.5,118.5C 6.5,118.167 6.5,117.833 6.5,117.5C 5.56771,88.5147 5.23437,59.5147 5.5,30.5C 6.5,30.5 7.5,30.5 8.5,30.5C 19.6652,30.4197 30.3319,28.4197 40.5,24.5C 57.147,18.8761 71.647,12.2094 84,4.5C 86.0859,2.75054 88.4192,1.41721 91,0.5C 94.7925,2.64566 98.6258,4.64566 102.5,6.5 Z"/></g>
<g><path style="opacity:0.016" fill="#febfbe" d="M 102.5,5.5 C 103.833,6.16667 103.833,6.16667 102.5,5.5 Z"/></g>
<g><path style="opacity:0.012" fill="#feffa9" d="M 113.5,11.5 C 114.833,12.1667 114.833,12.1667 113.5,11.5 Z"/></g>
<g><path style="opacity:0.765" fill="#f9e2c1" d="M 112.5,12.5 C 112.833,12.5 113.167,12.5 113.5,12.5C 116.833,14.5 120.167,16.5 123.5,18.5C 119.003,17.7565 115.336,15.7565 112.5,12.5 Z"/></g>
<g><path style="opacity:1" fill="#3d167b" d="M 81.5,152.5 C 81.44,151.957 81.1067,151.624 80.5,151.5C 79.1944,154.98 79.1944,158.313 80.5,161.5C 81.7447,170.57 84.4114,179.236 88.5,187.5C 88.1667,187.833 87.8333,188.167 87.5,188.5C 64.2042,173.487 54.7042,152.154 59,124.5C 60.6304,118.101 63.1304,112.101 66.5,106.5C 66.1667,106.167 65.8333,105.833 65.5,105.5C 55.752,117.74 50.752,131.74 50.5,147.5C 49.8333,152.833 49.1667,158.167 48.5,163.5C 33.6781,151.534 24.1781,136.201 20,117.5C 18.3927,92.8693 18.0594,68.2027 19,43.5C 45.0685,40.8671 68.9018,32.2005 90.5,17.5C 112.551,32.0175 136.718,40.6842 163,43.5C 163.667,66.5 163.667,89.5 163,112.5C 160.531,133.272 151.365,150.439 135.5,164C 127.686,170.409 119.353,176.075 110.5,181C 105.113,183.456 100.446,182.456 96.5,178C 89.6145,170.613 84.6145,162.113 81.5,152.5 Z"/></g>
<g><path style="opacity:0.016" fill="#ffe9a9" d="M 134.5,21.5 C 134.897,20.475 135.563,20.3083 136.5,21C 135.906,21.4643 135.239,21.631 134.5,21.5 Z"/></g>
<g><path style="opacity:0.016" fill="#ffd5a9" d="M 41.5,22.5 C 41.8966,21.475 42.5632,21.3083 43.5,22C 42.9056,22.4643 42.2389,22.631 41.5,22.5 Z"/></g>
<g><path style="opacity:0.016" fill="#ffe9a9" d="M 138.5,22.5 C 138.897,21.475 139.563,21.3083 140.5,22C 139.906,22.4643 139.239,22.631 138.5,22.5 Z"/></g>
<g><path style="opacity:0.004" fill="#feff00" d="M 32.5,23.5 C 33.8333,24.1667 33.8333,24.1667 32.5,23.5 Z"/></g>
<g><path style="opacity:0.004" fill="#f2d9c1" d="M 144.5,24.5 C 145.601,23.4017 146.934,23.235 148.5,24C 147.207,24.49 145.873,24.6567 144.5,24.5 Z"/></g>
<g><path style="opacity:0.016" fill="#ffdab9" d="M 150.5,25.5 C 151.251,24.4265 152.251,24.2599 153.5,25C 152.552,25.4828 151.552,25.6495 150.5,25.5 Z"/></g>
<g><path style="opacity:0.655" fill="#f4dbb9" d="M 40.5,24.5 C 30.3319,28.4197 19.6652,30.4197 8.5,30.5C 19.102,28.7898 29.7687,26.7898 40.5,24.5 Z"/></g>
<g><path style="opacity:0.004" fill="#000000" d="M 16.5,26.5 C 17.8333,27.1667 17.8333,27.1667 16.5,26.5 Z"/></g>
<g><path style="opacity:0.706" fill="#f5dfc0" d="M 141.5,24.5 C 142.5,24.5 143.5,24.5 144.5,24.5C 149.542,26.4202 154.875,27.4202 160.5,27.5C 164.639,28.5629 168.972,29.2296 173.5,29.5C 173.5,29.8333 173.5,30.1667 173.5,30.5C 166.091,30.3855 158.758,29.5522 151.5,28C 147.89,27.2616 144.557,26.0949 141.5,24.5 Z"/></g>
<g><path style="opacity:0.02" fill="#ebe0b7" d="M 160.5,27.5 C 161.601,26.4017 162.934,26.235 164.5,27C 163.207,27.49 161.873,27.6567 160.5,27.5 Z"/></g>
<g><path style="opacity:0.004" fill="#fe0000" d="M 165.5,26.5 C 166.833,27.1667 166.833,27.1667 165.5,26.5 Z"/></g>
<g><path style="opacity:0.008" fill="#ffde73" d="M 173.5,29.5 C 174.601,28.4017 175.934,28.235 177.5,29C 176.207,29.49 174.873,29.6567 173.5,29.5 Z"/></g>
<g><path style="opacity:1" fill="#fbfafc" d="M 106.5,97.5 C 107.043,97.44 107.376,97.1067 107.5,96.5C 104.355,95.1968 101.355,95.1968 98.5,96.5C 90.358,99.1579 89.0247,97.6579 94.5,92C 100.221,88.4728 106.221,85.4728 112.5,83C 111.5,82.6667 110.5,82.3333 109.5,82C 106.833,78 103.5,74.6667 99.5,72C 106.831,70.9991 113.498,72.6658 119.5,77C 121.134,77.4935 122.801,77.6602 124.5,77.5C 125.204,73.1973 123.87,69.6973 120.5,67C 104.211,57.8401 87.2113,56.3401 69.5,62.5C 70.7287,63.2811 72.062,63.7811 73.5,64C 65.4238,66.2022 58.4238,70.2022 52.5,76C 55.275,75.6263 57.9417,74.6263 60.5,73C 62.5,72.3333 64.5,72.3333 66.5,73C 54.9825,76.8501 46.1492,84.0167 40,94.5C 38.6859,97.0893 38.0192,99.7559 38,102.5C 41.407,97.0705 45.907,93.2372 51.5,91C 42.6384,101.224 36.805,113.058 34,126.5C 30.9268,120.94 29.2601,114.94 29,108.5C 28.5,89.1695 28.3334,69.8362 28.5,50.5C 51.3514,49.383 72.1848,42.383 91,29.5C 109.735,42.6342 130.568,49.8008 153.5,51C 154.659,69.4265 154.825,87.9265 154,106.5C 152.08,126.173 143.913,142.673 129.5,156C 126.298,157.483 122.964,157.817 119.5,157C 102.043,143.676 96.7099,126.843 103.5,106.5C 93.2263,112.949 86.0596,121.949 82,133.5C 82.4554,116.257 90.6221,104.257 106.5,97.5 Z"/></g>
<g><path style="opacity:0.02" fill="#ffcf9a" d="M 178.5,115.5 C 178.333,87.1647 178.5,58.8314 179,30.5C 179.83,59.003 179.664,87.3363 178.5,115.5 Z"/></g>
<g><path style="opacity:1" fill="#401a7e" d="M 113.5,92.5 C 111.167,91.8333 108.833,91.1667 106.5,90.5C 115.183,88.3262 122.85,84.3262 129.5,78.5C 137.64,81.7762 140.807,87.7762 139,96.5C 138.185,98.6228 137.185,100.623 136,102.5C 130.391,95.2297 122.891,91.8964 113.5,92.5 Z"/></g>
<g><path style="opacity:1" fill="#8a72b0" d="M 106.5,90.5 C 108.833,91.1667 111.167,91.8333 113.5,92.5C 110.15,92.665 106.817,92.4983 103.5,92C 104.244,90.9614 105.244,90.4614 106.5,90.5 Z"/></g>
<g><path style="opacity:1" fill="#a795c4" d="M 98.5,96.5 C 101.355,95.1968 104.355,95.1968 107.5,96.5C 107.376,97.1067 107.043,97.44 106.5,97.5C 104.052,96.5269 101.385,96.1936 98.5,96.5 Z"/></g>
<g><path style="opacity:0.004" fill="#fffeab" d="M 3.5,111.5 C 2.33643,84.6698 2.16976,57.6698 3,30.5C 3.49997,57.4979 3.66664,84.4979 3.5,111.5 Z"/></g>
<g><path style="opacity:0.659" fill="#f2e0c4" d="M 5.5,30.5 C 5.23437,59.5147 5.56771,88.5147 6.5,117.5C 5.16667,117.833 5.16667,118.167 6.5,118.5C 7.46138,120.265 7.79472,122.265 7.5,124.5C 6.16667,124.833 6.16667,125.167 7.5,125.5C 9.96324,129.443 11.6299,133.776 12.5,138.5C 12.1667,138.5 11.8333,138.5 11.5,138.5C 11.1667,137.167 10.8333,137.167 10.5,138.5C 5.85636,130.265 3.52303,121.265 3.5,111.5C 4.16667,84.5 4.83333,57.5 5.5,30.5 Z"/></g>
<g><path style="opacity:0.827" fill="#f1dcbb" d="M 175.5,121.5 C 175.833,121.5 176.167,121.5 176.5,121.5C 176.5,121.833 176.5,122.167 176.5,122.5C 175.167,123.5 175.167,124.5 176.5,125.5C 175.275,134.543 171.942,142.543 166.5,149.5C 165.833,149.5 165.5,149.167 165.5,148.5C 165.386,145.784 166.386,143.784 168.5,142.5C 168.025,139.687 169.025,137.687 171.5,136.5C 172.644,137.183 172.644,136.849 171.5,135.5C 171.263,134.209 171.596,133.209 172.5,132.5C 172.126,128.353 173.126,124.686 175.5,121.5 Z"/></g>
<g><path style="opacity:1" fill="#744872" d="M 81.5,152.5 C 80.5233,155.287 80.19,158.287 80.5,161.5C 79.1944,158.313 79.1944,154.98 80.5,151.5C 81.1067,151.624 81.44,151.957 81.5,152.5 Z"/></g>
<g><path style="opacity:0.02" fill="#cbcccb" d="M 159.5,158.5 C 159.833,158.5 160.167,158.5 160.5,158.5C 160.315,159.17 159.981,159.17 159.5,158.5 Z"/></g>
<g><path style="opacity:1" fill="#a0716b" d="M 50.5,147.5 C 50.8288,153.206 50.4954,158.872 49.5,164.5C 48.8933,164.376 48.56,164.043 48.5,163.5C 49.1667,158.167 49.8333,152.833 50.5,147.5 Z"/></g>
<g><path style="opacity:0.016" fill="#bebf7e" d="M 158.5,159.5 C 158.833,159.5 159.167,159.5 159.5,159.5C 159.315,160.17 158.981,160.17 158.5,159.5 Z"/></g>
<g><path style="opacity:0.016" fill="#febfbe" d="M 154.5,164.5 C 154.833,164.5 155.167,164.5 155.5,164.5C 155.315,165.17 154.981,165.17 154.5,164.5 Z"/></g>
<g><path style="opacity:0.016" fill="#bebfbe" d="M 153.5,165.5 C 153.833,165.5 154.167,165.5 154.5,165.5C 154.315,166.17 153.981,166.17 153.5,165.5 Z"/></g>
<g><path style="opacity:0.016" fill="#bebf7e" d="M 152.5,166.5 C 152.833,166.5 153.167,166.5 153.5,166.5C 153.315,167.17 152.981,167.17 152.5,166.5 Z"/></g>
<g><path style="opacity:0.016" fill="#febf7e" d="M 151.5,167.5 C 151.833,167.5 152.167,167.5 152.5,167.5C 152.315,168.17 151.981,168.17 151.5,167.5 Z"/></g>
<g><path style="opacity:0.016" fill="#bebf7e" d="M 150.5,168.5 C 150.833,168.5 151.167,168.5 151.5,168.5C 151.315,169.17 150.981,169.17 150.5,168.5 Z"/></g>
<g><path style="opacity:0.016" fill="#febf7e" d="M 149.5,169.5 C 149.833,169.5 150.167,169.5 150.5,169.5C 150.315,170.17 149.981,170.17 149.5,169.5 Z"/></g>
<g><path style="opacity:0.016" fill="#febfbe" d="M 148.5,170.5 C 148.833,170.5 149.167,170.5 149.5,170.5C 149.315,171.17 148.981,171.17 148.5,170.5 Z"/></g>
<g><path style="opacity:0.016" fill="#bebf7e" d="M 147.5,171.5 C 147.833,171.5 148.167,171.5 148.5,171.5C 148.315,172.17 147.981,172.17 147.5,171.5 Z"/></g>
<g><path style="opacity:0.016" fill="#febf7e" d="M 146.5,172.5 C 146.833,172.5 147.167,172.5 147.5,172.5C 147.315,173.17 146.981,173.17 146.5,172.5 Z"/></g>
<g><path style="opacity:0.016" fill="#febfbe" d="M 145.5,173.5 C 145.833,173.5 146.167,173.5 146.5,173.5C 146.315,174.17 145.981,174.17 145.5,173.5 Z"/></g>
<g><path style="opacity:0.004" fill="#fefffe" d="M 144.5,174.5 C 144.833,174.5 145.167,174.5 145.5,174.5C 145.315,175.17 144.981,175.17 144.5,174.5 Z"/></g>
<g><path style="opacity:0.008" fill="#f1e2e1" d="M 142.5,176.5 C 142.5,176.167 142.5,175.833 142.5,175.5C 143.167,175.5 143.833,175.5 144.5,175.5C 144.158,176.338 143.492,176.672 142.5,176.5 Z"/></g>
<g><path style="opacity:0.02" fill="#cbcc98" d="M 141.5,176.5 C 141.833,176.5 142.167,176.5 142.5,176.5C 142.315,177.17 141.981,177.17 141.5,176.5 Z"/></g>
<g><path style="opacity:0.016" fill="#bebf7e" d="M 140.5,177.5 C 140.833,177.5 141.167,177.5 141.5,177.5C 141.315,178.17 140.981,178.17 140.5,177.5 Z"/></g>
<g><path style="opacity:0.016" fill="#febfbe" d="M 139.5,178.5 C 139.833,178.5 140.167,178.5 140.5,178.5C 140.315,179.17 139.981,179.17 139.5,178.5 Z"/></g>
<g><path style="opacity:0.008" fill="#fefffe" d="M 138.5,179.5 C 138.833,179.5 139.167,179.5 139.5,179.5C 139.315,180.17 138.981,180.17 138.5,179.5 Z"/></g>
<g><path style="opacity:0.004" fill="#fefffe" d="M 137.5,180.5 C 137.833,180.5 138.167,180.5 138.5,180.5C 138.315,181.17 137.981,181.17 137.5,180.5 Z"/></g>
<g><path style="opacity:0.004" fill="#ffe2e1" d="M 135.5,182.5 C 135.5,182.167 135.5,181.833 135.5,181.5C 136.167,181.5 136.833,181.5 137.5,181.5C 137.158,182.338 136.492,182.672 135.5,182.5 Z"/></g>
<g><path style="opacity:0.012" fill="#feaaa9" d="M 134.5,182.5 C 134.833,182.5 135.167,182.5 135.5,182.5C 135.315,183.17 134.981,183.17 134.5,182.5 Z"/></g>
<g><path style="opacity:0.004" fill="#e7e1b3" d="M 132.5,184.5 C 132.5,184.167 132.5,183.833 132.5,183.5C 133.167,183.5 133.833,183.5 134.5,183.5C 134.158,184.338 133.492,184.672 132.5,184.5 Z"/></g>
<g><path style="opacity:0.012" fill="#feffa9" d="M 131.5,184.5 C 131.833,184.5 132.167,184.5 132.5,184.5C 132.315,185.17 131.981,185.17 131.5,184.5 Z"/></g>
<g><path style="opacity:0.008" fill="#fefffe" d="M 130.5,185.5 C 130.833,185.5 131.167,185.5 131.5,185.5C 131.315,186.17 130.981,186.17 130.5,185.5 Z"/></g>
<g><path style="opacity:0.004" fill="#ffe9d3" d="M 128.5,187.5 C 128.5,187.167 128.5,186.833 128.5,186.5C 129.167,186.5 129.833,186.5 130.5,186.5C 130.158,187.338 129.492,187.672 128.5,187.5 Z"/></g>
<g><path style="opacity:0.012" fill="#feffa9" d="M 127.5,187.5 C 127.833,187.5 128.167,187.5 128.5,187.5C 128.315,188.17 127.981,188.17 127.5,187.5 Z"/></g>
<g><path style="opacity:0.004" fill="#ffeddc" d="M 125.5,189.5 C 125.5,189.167 125.5,188.833 125.5,188.5C 126.167,188.5 126.833,188.5 127.5,188.5C 127.158,189.338 126.492,189.672 125.5,189.5 Z"/></g>
<g><path style="opacity:0.012" fill="#c9c593" d="M 123.5,190.5 C 123.5,190.167 123.5,189.833 123.5,189.5C 124.167,189.5 124.833,189.5 125.5,189.5C 125.158,190.338 124.492,190.672 123.5,190.5 Z"/></g>
<g><path style="opacity:0.012" fill="#a9aa54" d="M 122.5,190.5 C 122.833,190.5 123.167,190.5 123.5,190.5C 123.315,191.17 122.981,191.17 122.5,190.5 Z"/></g>
<g><path style="opacity:0.008" fill="#feff7e" d="M 121.5,191.5 C 121.833,191.5 122.167,191.5 122.5,191.5C 122.315,192.17 121.981,192.17 121.5,191.5 Z"/></g>
<g><path style="opacity:0.004" fill="#fffed5" d="M 119.5,193.5 C 119.5,193.167 119.5,192.833 119.5,192.5C 120.167,192.5 120.833,192.5 121.5,192.5C 121.158,193.338 120.492,193.672 119.5,193.5 Z"/></g>
<g><path style="opacity:0.012" fill="#ff9b7b" d="M 117.5,194.5 C 117.5,194.167 117.5,193.833 117.5,193.5C 118.167,193.5 118.833,193.5 119.5,193.5C 119.158,194.338 118.492,194.672 117.5,194.5 Z"/></g>
<g><path style="opacity:0.008" fill="#feff7e" d="M 116.5,194.5 C 116.833,194.5 117.167,194.5 117.5,194.5C 117.315,195.17 116.981,195.17 116.5,194.5 Z"/></g>
<g><path style="opacity:0.004" fill="#ffe9e9" d="M 114.5,196.5 C 114.5,196.167 114.5,195.833 114.5,195.5C 115.167,195.5 115.833,195.5 116.5,195.5C 116.158,196.338 115.492,196.672 114.5,196.5 Z"/></g>
<g><path style="opacity:0.008" fill="#ffac80" d="M 112.5,197.5 C 112.5,197.167 112.5,196.833 112.5,196.5C 113.167,196.5 113.833,196.5 114.5,196.5C 114.158,197.338 113.492,197.672 112.5,197.5 Z"/></g>
<g><path style="opacity:0.016" fill="#bebfbe" d="M 111.5,197.5 C 111.833,197.5 112.167,197.5 112.5,197.5C 112.315,198.17 111.981,198.17 111.5,197.5 Z"/></g>
<g><path style="opacity:0.012" fill="#feaaa9" d="M 109.5,198.5 C 110.833,199.167 110.833,199.167 109.5,198.5 Z"/></g>
<g><path style="opacity:0.008" fill="#ffe2c5" d="M 107.5,200.5 C 107.5,200.167 107.5,199.833 107.5,199.5C 108.167,199.5 108.833,199.5 109.5,199.5C 109.158,200.338 108.492,200.672 107.5,200.5 Z"/></g>
<g><path style="opacity:0.008" fill="#fe7f7e" d="M 106.5,200.5 C 106.833,200.5 107.167,200.5 107.5,200.5C 107.315,201.17 106.981,201.17 106.5,200.5 Z"/></g>
<g><path style="opacity:0.004" fill="#fffe7a" d="M 104.5,202.5 C 104.5,202.167 104.5,201.833 104.5,201.5C 105.167,201.5 105.833,201.5 106.5,201.5C 106.158,202.338 105.492,202.672 104.5,202.5 Z"/></g>
<g><path style="opacity:0.016" fill="#feffbe" d="M 100.5,203.5 C 100.833,203.5 101.167,203.5 101.5,203.5C 101.315,204.17 100.981,204.17 100.5,203.5 Z"/></g>
<g><path style="opacity:0.004" fill="#ff7d3c" d="M 98.5,205.5 C 98.5,205.167 98.5,204.833 98.5,204.5C 99.1667,204.5 99.8333,204.5 100.5,204.5C 100.158,205.338 99.4916,205.672 98.5,205.5 Z"/></g>
<g><path style="opacity:0.004" fill="#ffe9d3" d="M 96.5,206.5 C 96.5,206.167 96.5,205.833 96.5,205.5C 97.1667,205.5 97.8333,205.5 98.5,205.5C 98.1583,206.338 97.4916,206.672 96.5,206.5 Z"/></g>
<g><path style="opacity:0.012" fill="#ffc072" d="M 94.5,207.5 C 94.5,207.167 94.5,206.833 94.5,206.5C 95.1667,206.5 95.8333,206.5 96.5,206.5C 96.1583,207.338 95.4916,207.672 94.5,207.5 Z"/></g>
<g><path style="opacity:0.008" fill="#e9e97f" d="M 92.5,208.5 C 92.5,208.167 92.5,207.833 92.5,207.5C 93.1667,207.5 93.8333,207.5 94.5,207.5C 94.1583,208.338 93.4916,208.672 92.5,208.5 Z"/></g>
<g><path style="opacity:0.012" fill="#fefffe" d="M 89.5,209.5 C 90.209,208.596 91.209,208.263 92.5,208.5C 92.5,208.833 92.5,209.167 92.5,209.5C 91.5,209.5 90.5,209.5 89.5,209.5 Z"/></g>
</svg>
