<?xml version="1.0" encoding="utf-8"?>
<!-- Generator: Adobe Illustrator 27.9.3, SVG Export Plug-In . SVG Version: 9.03 Build 53313)  -->
<svg version="1.1" id="Layer_1" xmlns="http://www.w3.org/2000/svg" xmlns:xlink="http://www.w3.org/1999/xlink" x="0px" y="0px"
	 viewBox="0 0 892 600" style="enable-background:new 0 0 892 600;" xml:space="preserve">
<style type="text/css">
	.st0{fill:#FFFFFF;}
	.st1{fill:#002B7F;}
	.st2{fill:#939598;}
	.st3{fill:#FEFDFD;}
	.st4{fill:#C7102E;}
	.st5{fill:#C81010;}
	.st6{fill:#F8D000;}
	.st7{fill:#183070;}
	.st8{fill:#DD7500;}
	.st9{fill:#CE1126;}
	.st10{fill:#FFC72C;}
	.st11{fill:#FFFF00;}
	.st12{fill:#FCD116;}
	.st13{fill:#BD1021;}
	.st14{fill:#FFC221;}
	.st15{fill:#5A3719;}
	.st16{fill:#7B3C20;}
	.st17{fill:#AA5323;}
	.st18{fill:#999999;}
	.st19{fill:#D22730;}
	.st20{fill:#FED141;}
	.st21{fill:#002F6C;}
	.st22{fill:#007A33;}
	.st23{fill:#C10000;}
	.st24{fill:#FEDD00;}
	.st25{fill:#012169;}
	.st26{fill:none;}
	.st27{fill:#009543;}
	.st28{fill:#FDCE12;}
	.st29{fill:#FCDD09;}
	.st30{fill:#078930;}
	.st31{fill:#0F47AF;}
	.st32{fill:#C8102E;}
	.st33{fill:#00AD50;}
	.st34{fill:#862633;}
	.st35{fill:#215B33;}
</style>
<g>
	<g>
		<defs>
			<path id="SVGID_00000179627732574193556140000012645028178825367980_" d="M30.9,0H861c17.2,0,31,13.8,31,30.9V569
				c0,17.1-13.8,30.9-30.9,30.9H30.9C13.8,600,0,586.2,0,569.1V30.9C0,13.8,13.8,0,30.9,0z"/>
		</defs>
		<use xlink:href="#SVGID_00000179627732574193556140000012645028178825367980_"  style="overflow:visible;fill:#62B5E5;"/>
		<clipPath id="SVGID_00000103233282572194189700000007065308109718827420_">
			<use xlink:href="#SVGID_00000179627732574193556140000012645028178825367980_"  style="overflow:visible;"/>
		</clipPath>
	</g>
</g>
<path class="st25" d="M30.1,0h407.7v224.3H0.1V30C0.1,13.4,13.5,0,30.1,0z"/>
<g>
	<path class="st26" d="M72,68C48.2,53.6,24.4,39.1,0.6,24.7c-0.3,1.7-0.5,3.5-0.5,5.3v39.6c24.6,0,49.3,0,74.4,0
		C73.2,68.8,72.6,68.4,72,68z"/>
	<path class="st26" d="M168.3,53.8c0-18,0-35.9,0-53.8H79.1c28.9,17.6,57.9,35.1,86.8,52.6C166.6,53.1,167.2,53.7,168.3,53.8z"/>
	<path class="st26" d="M272.2,65.2c-0.1,0.1-0.2,0.1-0.3,0.2C271.9,65.3,272,65.3,272.2,65.2c8.7-5.1,17.3-10.4,26-15.7
		c27.2-16.5,54.4-33,81.6-49.5h0c-27.2,16.5-54.3,33-81.5,49.4C289.6,54.7,280.9,60,272.2,65.2z"/>
	<path class="st26" d="M133.4,69.2c-0.1,0.1-0.2,0.2-0.2,0.2C133.2,69.4,133.3,69.3,133.4,69.2c-0.7-0.5-1.4-1-2.1-1.4
		C94.7,45.6,58.1,23.4,21.5,1.2c0,0-0.1,0-0.1,0C58,23.5,94.6,45.6,131.2,67.8C131.9,68.3,132.6,68.7,133.4,69.2z"/>
	<path class="st26" d="M272.8,52.8c29-17.6,58-35.2,87-52.8h-89.2c0,17.9,0,35.8,0,53.7C271.7,53.8,272.2,53.2,272.8,52.8z"/>
	<path class="st26" d="M366.7,174.5c22.4,13.6,44.8,27.2,67.2,40.7c1.3,0.8,2.6,1.6,3.9,2.3V173c-24.3,0-48.7,0-73.4,0
		C365.6,173.8,366.1,174.1,366.7,174.5z"/>
	<path class="st26" d="M250.1,155.2c0-1.3,0.2-2.1,0.7-2.5C250.2,153.1,250,153.8,250.1,155.2c0,23.1,0,46.1,0,69.2h0.1
		C250.1,201.3,250.1,178.2,250.1,155.2z"/>
	<path class="st26" d="M188,89.9c-0.4,0.3-1.1,0.4-2.1,0.4C124,90.3,62,90.3,0.1,90.3v0c61.9,0,123.9,0,185.8,0.1
		C186.9,90.4,187.6,90.3,188,89.9z"/>
	<path class="st26" d="M342.3,173c-11.6,0-23.2,0-34.8,0c-0.6,0-1.3-0.2-1.9,0.2c0.6-0.4,1.3-0.1,1.9-0.1
		C319,173,330.6,173,342.3,173c1.4,0,2.6,0.4,3.8,1.1c27.6,16.8,55.3,33.5,82.9,50.3h0.1c-27.7-16.8-55.3-33.5-83-50.3
		C344.9,173.3,343.7,172.9,342.3,173z"/>
	<path class="st26" d="M270.6,188.8c0,11.9,0,23.7,0,35.5h59.2c-18.8-11.4-37.7-22.9-56.5-34.3C272.5,189.6,271.8,188.9,270.6,188.8
		z"/>
	<path class="st26" d="M73.9,173.4c0-0.2-0.1-0.3-0.1-0.5c-24.5,0-49.1,0-73.6,0v45.2c19-11.5,38-23,57-34.6
		C62.7,180.2,68.3,176.8,73.9,173.4z"/>
	<path class="st26" d="M137,173c9.6,0.1,19.3,0,28.9,0.1c0.8,0,2.1-0.7,2.4,0.6c0.3,1.3,0.3,2.5-1.1,3.5c1.4-1,1.4-2.2,1.1-3.5
		c-0.3-1.3-1.6-0.6-2.4-0.6C156.3,173,146.6,173,137,173c-1.9-0.1-3.5,0.5-5.2,1.5c-27.4,16.6-54.8,33.3-82.3,49.9h0
		c27.4-16.6,54.8-33.2,82.2-49.9C133.4,173.5,135,173,137,173z"/>
	<path class="st26" d="M167,189.2c-19.3,11.7-38.6,23.4-57.9,35.1h59.2c0-11.9,0-23.9,0-35.9C167.6,188.9,167.3,189.1,167,189.2z"/>
	<path class="st26" d="M250.1,87.4c0.1-29.1,0.1-58.3,0.1-87.4h-0.1C250.1,29.2,250.1,58.3,250.1,87.4c-0.1,2.4,0.5,3,2.8,2.9
		c61.6-0.1,123.2-0.1,184.9-0.1v0c-61.6,0-123.2,0-184.8,0.1C250.7,90.3,250.1,89.8,250.1,87.4z"/>
	<path class="st26" d="M365.2,69.6c24.2,0,48.4,0,72.6,0V25c-23.8,14.5-47.7,28.9-71.5,43.4C365.9,68.7,365.1,68.7,365.2,69.6z"/>
	<path class="st3" d="M250.8,152.7c-0.6,0.4-0.8,1.2-0.7,2.5c0,23.1,0.1,46.1,0.1,69.2h20.5c0-11.8,0-23.7,0-35.5
		c1.2,0.1,1.9,0.8,2.6,1.2c18.8,11.4,37.7,22.9,56.5,34.3h59.5c-27.6-16.7-55.2-33.5-82.8-50.2c-0.4-0.2-0.7-0.5-1.2-0.7
		c0.1-0.1,0.2-0.1,0.3-0.2c0.6-0.4,1.3-0.2,1.9-0.2c11.6,0,23.2,0,34.8,0c1.4,0,2.6,0.3,3.8,1.1c27.6,16.8,55.3,33.6,83,50.3h8.7
		v-6.8c-1.3-0.8-2.6-1.6-3.9-2.3c-22.4-13.6-44.8-27.2-67.2-40.7c-0.6-0.3-1.1-0.7-2.3-1.5c24.7,0,49.1,0,73.4,0v-20.6
		c-61.6,0-123.2,0-184.9-0.1C252,152.3,251.3,152.4,250.8,152.7z"/>
	<path class="st3" d="M188.8,155.2c0-2.4-0.6-2.9-2.9-2.9C124,152.3,62,152.3,0.1,152.3V173c24.5,0,49.1,0,73.6,0
		c0,0.2,0.1,0.3,0.1,0.5c-5.6,3.4-11.2,6.8-16.7,10.1c-19,11.5-38,23.1-57,34.6v6.2h49.4c27.4-16.6,54.8-33.3,82.3-49.9
		c1.7-1,3.3-1.5,5.2-1.5c9.6,0.1,19.3,0,28.9,0.1c0.8,0,2.1-0.7,2.4,0.6c0.3,1.3,0.3,2.5-1.1,3.5c-0.1,0.1-0.2,0.1-0.3,0.2
		c-11.3,6.7-22.5,13.6-33.7,20.4c-14.6,8.9-29.2,17.7-43.8,26.6h19.9c19.3-11.7,38.6-23.4,57.9-35.1c0.3-0.2,0.6-0.3,1.3-0.7
		c0,12,0,23.9,0,35.9h20.4C188.7,201.3,188.7,178.2,188.8,155.2z"/>
	<path class="st3" d="M188,89.9c0.6-0.4,0.8-1.2,0.7-2.5c-0.1-29.2-0.1-58.3-0.1-87.5h-20.4c0,17.9,0,35.8,0,53.8
		c-1.1-0.1-1.7-0.7-2.4-1.1C136.9,35.1,108,17.6,79.1,0h-49c-3,0-5.9,0.4-8.6,1.2c36.6,22.2,73.1,44.4,109.7,66.6
		c0.7,0.4,1.4,0.9,2.2,1.4c-0.1,0.1-0.2,0.2-0.3,0.3c-0.6,0.5-1.3,0.2-1.9,0.2c-11.5,0-23,0-34.5,0c-1.5,0-2.8-0.4-4.1-1.1
		C63.2,50.6,33.7,32.8,4.2,14.9c-1.7,3-3,6.3-3.6,9.8C24.4,39.1,48.2,53.6,72,68c0.6,0.4,1.2,0.8,2.5,1.6c-25.1,0-49.8,0-74.4,0
		v20.7c61.9,0,123.9,0,185.8,0.1C186.9,90.3,187.6,90.2,188,89.9z"/>
	<path class="st3" d="M307.7,67.8c-2,1.2-4,1.9-6.4,1.8c-9.4-0.1-18.7,0-28.1-0.1c-0.8,0-2.2,0.9-2.5-0.8c-0.2-1.3-0.2-2.5,1.3-3.5
		c0.1-0.1,0.2-0.1,0.3-0.2c8.8-5.1,17.4-10.5,26.1-15.7c27.2-16.5,54.3-33,81.5-49.4h-19.9c-29,17.6-58,35.2-87,52.8
		c-0.6,0.4-1.2,1-2.2,1c0-17.9,0-35.8,0-53.7h-20.5c0,29.1,0,58.3-0.1,87.4c0,2.4,0.6,2.9,2.9,2.9c61.6-0.1,123.2-0.1,184.8-0.1
		V69.6c-24.2,0-48.4,0-72.6,0c-0.2-0.9,0.6-0.9,1-1.2C390.1,53.9,414,39.5,437.8,25V0h-18.3C382.2,22.6,344.9,45.2,307.7,67.8z"/>
	<path class="st4" d="M272.1,65.2c-0.1,0.1-0.2,0.1-0.2,0.2c-1.4,0.9-1.5,2.1-1.3,3.5c0.3,1.6,1.7,0.7,2.5,0.8
		c9.4,0.1,18.7,0,28.1,0.1c2.4,0,4.4-0.6,6.4-1.8C344.9,45.2,382.2,22.6,419.5,0h-39.7c-27.2,16.5-54.4,33-81.6,49.5
		C289.5,54.7,280.9,60.1,272.1,65.2z"/>
	<path class="st4" d="M250,87.5c0.1-29.2,0.1-58.3,0.1-87.5h-61.4c0,29.2,0,58.3,0.1,87.5c0,1.3-0.2,2.1-0.7,2.5
		c-0.4,0.3-1.1,0.4-2.2,0.4C124,90.3,62,90.3,0.1,90.3v62c61.9,0,123.9,0,185.8-0.1c2.3,0,2.9,0.6,2.9,2.9c0,23-0.1,46.1-0.1,69.1
		h61.4c0-23.1,0-46.1-0.1-69.1c0-1.4,0.2-2.1,0.8-2.5c0.4-0.3,1.1-0.4,2.1-0.4c61.6,0.1,123.2,0.1,184.9,0.1v-62
		c-61.6,0-123.2,0-184.9,0.1C250.6,90.4,250,89.8,250,87.5z"/>
	<path class="st4" d="M166.8,177.4c0.1-0.1,0.2-0.1,0.3-0.2c1.4-1,1.3-2.2,1.1-3.5c-0.3-1.3-1.6-0.6-2.4-0.6
		c-9.6-0.1-19.3,0-28.9-0.1c-2,0-3.6,0.5-5.2,1.5c-27.4,16.6-54.8,33.2-82.2,49.9h39.7c14.6-8.9,29.2-17.7,43.8-26.6
		C144.3,191,155.5,184.1,166.8,177.4z"/>
	<path class="st4" d="M342.2,173c-11.6,0-23.2,0-34.8,0c-0.6,0-1.3-0.2-1.9,0.1c-0.1,0.1-0.2,0.1-0.3,0.2c0.5,0.3,0.8,0.5,1.2,0.7
		c27.6,16.7,55.2,33.5,82.8,50.2H429c-27.6-16.8-55.3-33.5-82.9-50.3C344.8,173.3,343.6,173,342.2,173z"/>
	<path class="st4" d="M96.7,69.7c11.5,0,23,0,34.5,0c0.6,0,1.3,0.3,1.9-0.2c0.1-0.1,0.2-0.1,0.2-0.2c-0.8-0.5-1.5-0.9-2.2-1.4
		C94.6,45.6,58,23.5,21.5,1.3C14.1,3.5,8,8.4,4.2,14.9c29.5,17.9,59,35.8,88.4,53.6C93.9,69.3,95.2,69.7,96.7,69.7z"/>
</g>
<g>
	<g>
		<path class="st0" d="M627.9,120.6v170.9c0,55.9,97.6,89.1,97.6,89.1s97.6-33.2,97.6-89.1V120.6H627.9z"/>
	</g>
	<polygon class="st32" points="739,257.6 739,186.6 823,186.6 823,120.6 627.9,120.6 627.9,186.6 711.9,186.6 711.9,257.6 
		627.9,257.6 627.9,285.6 711.9,285.6 711.9,375.3 725.4,380.6 739,375.3 739,285.6 823,285.6 823,257.6 	"/>
	<g>
		<g>
			<g>
				<ellipse class="st0" cx="643.5" cy="160.8" rx="11" ry="9.1"/>
				<path d="M643.5,170.4c-6.3,0-11.4-4.3-11.4-9.5c0-5.3,5.1-9.5,11.4-9.5s11.4,4.3,11.4,9.5C654.9,166.1,649.8,170.4,643.5,170.4z
					 M643.5,152.1c-5.8,0-10.6,3.9-10.6,8.7s4.7,8.7,10.6,8.7s10.6-3.9,10.6-8.7S649.3,152.1,643.5,152.1z"/>
			</g>
			<g>
				<g>
					<ellipse class="st0" cx="643.5" cy="156.1" rx="9.8" ry="5.1"/>
					<path d="M643.5,161.6c-5.7,0-10.2-2.4-10.2-5.5c0-3.1,4.5-5.5,10.2-5.5s10.2,2.4,10.2,5.5C653.7,159.2,649.2,161.6,643.5,161.6
						z M643.5,151.4c-5.1,0-9.3,2.2-9.3,4.7c0,2.5,4.3,4.7,9.3,4.7s9.3-2.2,9.3-4.7C652.9,153.5,648.6,151.4,643.5,151.4z"/>
				</g>
				<g>
					<ellipse class="st0" cx="643.5" cy="166.3" rx="9.8" ry="5.1"/>
					<path d="M643.5,171.8c-5.7,0-10.2-2.4-10.2-5.5c0-3.1,4.5-5.5,10.2-5.5s10.2,2.4,10.2,5.5C653.7,169.4,649.2,171.8,643.5,171.8
						z M643.5,161.6c-5.1,0-9.3,2.2-9.3,4.7c0,2.5,4.3,4.7,9.3,4.7s9.3-2.2,9.3-4.7C652.9,163.7,648.6,161.6,643.5,161.6z"/>
				</g>
				<g>
					<ellipse class="st0" cx="643.5" cy="160.8" rx="9.8" ry="5.1"/>
					<path d="M643.5,166.3c-5.7,0-10.2-2.4-10.2-5.5s4.5-5.5,10.2-5.5s10.2,2.4,10.2,5.5S649.2,166.3,643.5,166.3z M643.5,156.1
						c-5.1,0-9.3,2.2-9.3,4.7s4.3,4.7,9.3,4.7s9.3-2.2,9.3-4.7S648.6,156.1,643.5,156.1z"/>
				</g>
			</g>
		</g>
		<g>
			<path class="st24" d="M818.2,173.5l-1.6-4.6c0,0-4.4-1.8-4.7-4.3c-0.8-6.4-3-8.8-6.3-9.7c-3.3-0.9-5.5,0.6-5.5,0.6
				c-1,1.5-6,1.5-8.7,1.6c-2.8,0.1-2.8-1.2-2.8-1.2c-2.1,0-3.1-1.6-3.1-1.6c-1.4-2.9-2.5-4-3.1-4.4c3.6,0.1,6.3-1.7,10.3-6.1
				c4.4-4.8,7.6-2.9,7.6-2.9c-2.1,4.5,0.7,4.1,0.7,4.1c5.9-3.1,0.8-10.9-1-10.5c-1.8,0.3-2.3-0.9-2.3-0.9c0.1,1.4-2,2-2,2
				c1.5-8.9-3.6-11.3-3.6-11.3c-0.8,0.8-1.2,2.4-1.2,2.4c-1.4,5.4-6.2,4.6-11.5,1.9c-5.3-2.6-19.5,2.7-23.9,4.6
				c-4.4,1.8-12.5,4.7-19.8,0.5c-7.3-4.2-9.1-3.4-11.9-2.6c-2.9,0.8-8,2.1-9.8,1c-1.9-1-4-1.1-4-1.1c0.5-0.3-0.3-1.5-0.3-1.5
				c-2.2-3.1,0.3-5,0.3-5s-4.1,1.2-2.5,8.5l0.8,1.1c0,0,0.6,2.3,1.8,3l0,0.5c0,0,1-0.5,1.4,1c0.3,1.5,1.9,0.1,2.5-1.1
				c0,0-1.1,6.6,6.9,8.2c0,0-0.9-1-0.6-1.7c0.3-0.7-1-1.3-0.9-2.3c0.1-1-2-1.5-0.3-2.3c1.7-0.8,2.4-2.4,6-0.2
				c3.5,2.2,6.3,1.7,6.3,1.7s-2.2-4.6-1-4.6c1.2,0,6.5,6.9,9.2,6.5s7.7-3.4,10.3-2.3c0,0,0.2-1.4,9.9-3.1c9.7-1.7,21.7-6.7,26.2-2.3
				c0,0,0.5,3.5,2.4,4.4c0,0-0.3,7.2-12.4,3.2l-4.4-1.2c0,0-0.7-2.2-23.6,3.9c0,0-1.3,0.5-2.2,1.2c-0.9,0.7-2.1-0.3-6.6,1.4
				c-4.5,1.7-21.5,7.4-31.8,5.4l0,0c-2.3-0.7-4.4-0.3-4.5-0.7c-0.1-0.5,1.2,0.1,1.2,0.1c-0.8-0.9-1.1-1-1.1-1
				c-8.7-1-7.2-5.1-7.2-5.1l0.4,1.3c1.4-1.9-0.6-6.5-0.6-6.5l-0.1,0c0-0.1,0-0.3-0.1-0.4l0.7-0.5c4.2-3.7,9.1-4.4,9.1-4.4
				c-2.9-3.7-9-1.7-9-1.7c0.1-4.5-1.7-9.6-1.7-9.6c-6,0.7-9.4,5.8-9.4,5.8c-0.2-4.6-5.9-7.2-5.9-7.2c2.1,2.6,0.8,8.9,0.8,8.9
				l0.2,0.1c-0.3,0-0.6,0-0.6,0l-0.1,1.3l-0.2-0.1c0,0-2.1,0.8-4.5,6.5c0,0-0.2,1.4-1.2,2.6c0-0.2,0-0.3,0-0.5c0,0-2.7,3.7-9,0
				c0,0-8.5-5.2-11.5-5c-3,0.2-5,1.6-4.8,2.5c0,0-6.8-0.6-9.2,3.5c0,0-5.2,1.9-0.7,6.3c0,0,0.6,1.9,1.9,2.9c0,0-0.2-4,0.8-2.8
				c0,0,0.2,0.4,0.7,0.7c0.1,0.6,0.5,2.1,1.5,2.9l0.7-0.2c0.1-1,0.3-2.2,0.5-2.8l0.2,0c0,0-0.1,0-0.1,0.1l1.2,1.9l1.4-0.8
				c0.7-0.1,1.5,0.6,1.5,0.6l1.6-1.4c0,0,0,0,0,0c1.6,0.3,2-2.9,2-2.9c1.4,0.4,2.7,0,3.9-0.7c0.7,2.6,6.3,5.4,6.3,5.4l0.2,0
				c-0.5,0.3-0.8,0.5-0.8,0.5c2.5,1.8,7.3,1.4,7.3,1.4c-2,0.8-1.7,4.6-1.7,4.6c-1.2,0.5-1.3,1.7-1.3,1.7c3.9,1.6,6.5,0.3,6.5,0.3
				c0.2,1.3-0.1,1.4-0.1,1.4c-1.5,3.4-2.2,6.8-2.2,6.8c0,0,0.1,0,0.1,0c0,0.1-0.1,0.2-0.1,0.3c0,0-6.7,2.4-9.7,5.8c0,0-0.3-1-1.1-1
				c-0.8,0-3.5-2.2-4.7-2.6c-1.2-0.4-3,0.4-3.5-0.2c-0.4-0.5-0.2-4.5-1-5.1l-0.8-2.4c-0.6,1.3-2.9,1-2.9,1c-0.1,0.1-0.5,0.3-1,0.7
				c-0.5,0-1-0.1-1-0.1c-0.2,0.1-0.5,0.7-0.7,1.4l-0.3,0.2v-0.7c-0.5,0.4-1.4-0.2-1.8-0.2c-0.2,0-0.4,0.6-0.6,1.1
				c-1,0.2-2.2,0.2-2.2,0.2c-0.4,0.2-0.1,3.2-0.1,3.2c-2.7,1.6-1.4,3.9-1.4,3.9c1.5,7.6,14,4.2,14.9,5.1s3.1,1.2,4.2,1.2
				s2.5,2.8,4.1,3.1c1.6,0.3,0-2.2,7.4-4.1s9.9-5,9.9-5c2.3-0.5,3-3.4,3.1-4.5c0,0.5,0.1,1.1,0.2,1.8c0.3,2.6-1.4,3.6-1.4,3.6l6.4-2
				c2.5-0.7,2.2-3,2.2-3c2.4,7.2,6.9,7.7,6.9,7.7c0.9-2.7,0.8-3.6,0.8-3.6l2-0.1c0.1-1.6-1.2-2.7-2-3.2l3.1,2l1.2-0.2
				c0,1.1,1.7,2.2,1.7,2.2l0.2-1.5c1.4,1.9,4.1,1.3,4.1,1.3c-0.1-0.4-0.1-0.7-0.2-1.1c5.7,3.6,14.7-1,14.7-1
				c2.4,0.6,2.8-0.9,2.8-0.9c2.8,0.3,3.4-1.6,3.4-1.6c6.5-0.6,11.1-5.4,11.1-5.4c3.2-0.2,3.3-2.6,3.3-2.6s3.2,0.7,6.3-3.4
				c7.2-10.6,17.9-5.1,17.9-5.1l-6.2,0.4c-16.3-0.1-9.5,11.3-9.5,11.3l1-0.1c1.5,0.3,6.9,4.7,4.9,7.9c0,0.1-0.1,0.1-0.1,0.2
				c-3.3,4.7-9.5,0.2-11.2-3.7c-1.8-4-5.3-3.1-5.3-3.1s-9.2,1.6-5.4,9.2l0.1,0c0.1,1.8,1.2,3.9,4.5,6c1.8,2.7,7.9,3,12.3,2
				c2.1-0.5,13-5.3,13-5.3c0.8-2.5,3.5-1.9,5.9-5.4c2.4-3.5-3.4-4.8-4.8-6.8c-1.3-1.9,0.3-1.6,0.3-1.6c5.3,3,5.7-6.5,5.7-6.5
				c0.6,5.5,5.2,7,5.2,7c2.9-3,0.8-9,0.8-9c6.9,12.7,11,10.7,11,10.7c-3.7-2.4-1.8-5.5-1.8-5.5c3.3,13.5,16.9,1.7,16.9,1.7
				c-0.7,1.9,0,3.1,1.2,4.3c1.2,1.3,2.7,1.8,2,4.1c-0.7,2.3-7,1.8-7,1.8s-6.2-0.3-5.6,5c0.3,1.3,4.4,1.7,6,1.4c0,0-0.6,0.1,1.7,0.5
				c0.8,0.1,1.7,0.1,2.6,0.1c2.6-0.1,5.4-0.5,5.4-0.5c3.5-0.8,3-2.1,3-2.1C817.6,177.3,818.2,173.5,818.2,173.5L818.2,173.5z"/>
			<path d="M745.8,185.6c-3.4,0-6.6-0.8-7.9-2.7c-2.8-1.8-4.3-3.8-4.6-6l-0.1-0.2c-1.1-2.3-1.3-4.3-0.4-6c0.3-0.5,0.6-1,1-1.4
				c-1.8,1-3.9,1.8-6.4,2.1c-0.4,0.8-1.5,1.8-3.4,1.7c-0.1,0.2-0.3,0.4-0.6,0.6c-0.6,0.4-1.4,0.5-2.4,0.3c-1.3,0.6-8.5,3.9-13.9,1.5
				l0.1,0.4l-0.5,0.1c-0.1,0-2.2,0.5-3.8-0.6l-0.2,1.2l-0.8-0.5c-0.2-0.1-1.4-0.9-1.8-2l-0.9,0.2l-0.5-0.3c0.1,0.3,0.1,0.6,0.1,1
				l0,0.5l-2,0.1c-0.1,0.6-0.3,1.5-0.8,3.2l-0.1,0.5l-0.5,0c-0.2,0-4.1-0.5-6.7-6.3c-0.4,0.7-1.1,1.2-2.2,1.5l-6.4,2l-0.5-1.1
				c0,0,0.8-0.5,1.1-1.6c-0.5,0.8-1.3,1.6-2.3,1.8c-0.6,0.7-3.4,3.4-10,5c-4.6,1.1-5.5,2.5-6,3.2c-0.3,0.5-0.7,1-1.6,0.8
				c-1-0.2-1.9-1.1-2.7-1.9c-0.4-0.5-1.1-1.2-1.4-1.2c-1,0-3.5-0.1-4.6-1.3c-0.2-0.1-1.4,0-2.3,0c-4,0.2-11.5,0.6-12.7-5.4
				c-0.5-1-0.8-3,1.3-4.4c-0.3-3.1,0.2-3.3,0.4-3.4l0.1-0.1l0.1,0c0,0,1,0,1.8-0.2c0.3-0.8,0.6-1.2,1-1.2c0.2,0,0.4,0.1,0.7,0.2
				c0.2,0.1,0.6,0.2,0.7,0.2l0.5-0.4c0.2-0.4,0.4-0.6,0.7-0.7l0.2,0l0.1,0c0.1,0,0.4,0.1,0.6,0.1c0.4-0.3,0.8-0.6,0.8-0.6l0.2-0.1
				l0.2,0c0.6,0.1,2,0,2.3-0.6l0.6-1.4l1.3,3.7c0.5,0.6,0.6,1.8,0.8,3.5c0.1,0.6,0.1,1.5,0.2,1.7c0.1,0,0.6-0.1,1-0.1
				c0.7-0.1,1.5-0.2,2.2,0.1c0.6,0.2,1.5,0.8,2.4,1.4c0.7,0.5,1.8,1.2,2.1,1.2c0.6,0,1,0.3,1.2,0.6c2.8-2.8,7.7-4.7,9.1-5.3
				c0.1-0.3,0.7-3.5,2.2-6.9l0.1-0.2c0,0,0-0.1,0-0.2c-1.1,0.3-3.4,0.6-6.2-0.5l-0.4-0.2l0-0.4c0-0.1,0.1-1.3,1.3-2
				c0-0.8,0.1-2.4,0.8-3.6c-1.7,0-4.3-0.3-6.1-1.5l-0.6-0.5l0.5-0.4c-1.5-0.8-4.5-2.7-5.6-4.7c-1,0.5-2.1,0.7-3.1,0.6
				c-0.2,0.7-0.6,1.9-1.3,2.5c-0.3,0.2-0.6,0.3-0.9,0.3l-1.8,1.6l-0.4-0.3c-0.2-0.2-0.7-0.4-1-0.5l-1.8,1l-0.9-1.4
				c-0.1,0.4-0.1,0.9-0.2,1.4l0,0.4l-1.4,0.4l-0.3-0.2c-0.9-0.8-1.4-2.2-1.6-3c-0.1-0.1-0.2-0.2-0.3-0.2c-0.1,0.5-0.1,1.3,0,2
				l0.1,1.3l-1-0.8c-1.2-1-1.8-2.6-2-3.1c-1.5-1.5-2.1-2.9-1.8-4.2c0.4-1.7,2.1-2.6,2.6-2.9c2.2-3.5,7.4-3.7,9.1-3.6
				c0.1-0.1,0.1-0.3,0.3-0.4c0.7-0.9,2.5-1.9,5-2.1c3.1-0.2,11,4.6,11.9,5.1c5.7,3.3,8.1,0.3,8.2,0.2l0.9-1.2
				c0.1-0.4,0.2-0.7,0.2-0.7l0-0.1c2.2-5.2,4.2-6.5,4.7-6.8l0.1-1.3l0.4,0c0.2-1.3,0.9-6-0.7-8.1l0.7-0.9c0.2,0.1,4.9,2.3,6,6.3
				c1.4-1.6,4.5-4.5,9-5l0.5-0.1l0.2,0.5c0.1,0.2,1.6,4.7,1.7,9c1.8-0.4,6.3-1,8.8,2.1l0.6,0.8l-1,0.1c0,0-4.8,0.7-8.8,4.2l-0.4,0.3
				c0.3,0.7,2,5,0.5,7.1l-0.1,0.2c0,0,0,0,0,0.1c0.6,0.9,2.2,2.1,6.4,2.6c0.3,0.1,0.7,0.3,1.4,1.1c0.8,0,1.8,0.1,2.9,0.4l0.2,0
				c9,1.8,24.1-2.5,31.5-5.4c2.9-1.1,4.5-1.1,5.5-1.1c0.6,0,0.8,0,1-0.2c0.9-0.7,2.3-1.2,2.4-1.3c8.3-2.2,21.9-5.5,24.1-3.9l4.2,1.2
				c4.5,1.5,7.9,1.6,9.9,0.2c1.2-0.8,1.6-2,1.7-2.6c-1.6-1.1-2.2-3.7-2.3-4.4c-3.1-2.8-10.4-1-17.5,0.8c-2.7,0.7-5.5,1.4-8.1,1.8
				c-7.7,1.4-9.2,2.5-9.5,2.7l-0.1,0.7l-0.7-0.3c-1.4-0.6-4,0.3-6.3,1.2c-1.4,0.5-2.7,1-3.7,1.1c-1.9,0.2-4.5-2.2-6.8-4.4
				c-0.8-0.7-1.7-1.6-2.2-1.9c0.1,0.7,0.6,2.2,1.3,3.6l0.3,0.7l-0.8,0.1c-0.1,0-3,0.5-6.7-1.8c-2.5-1.6-3.3-1-4.4-0.3
				c-0.3,0.2-0.6,0.4-1,0.6c-0.1,0-0.2,0.1-0.2,0.1c0.1,0.1,0.1,0.1,0.2,0.2c0.3,0.3,0.8,0.8,0.7,1.5c0,0.3,0.1,0.5,0.4,0.9
				c0.3,0.4,0.7,1,0.4,1.6c-0.1,0.2,0.2,0.7,0.5,1.1l-0.6,1c-5.7-1.2-7.1-4.8-7.3-7.1c-0.5,0.4-1,0.7-1.5,0.6c-0.3,0-0.8-0.2-1-1.1
				c-0.1-0.3-0.2-0.5-0.3-0.6c-0.1-0.1-0.2,0-0.2,0l-0.9,0.4l0.1-1.1c-1.1-0.8-1.6-2.5-1.7-3l-0.8-1.2c-1.7-7.7,2.7-9.1,2.9-9.2
				l0.5,1.1c-0.2,0.2-2,1.6-0.2,4.2c0.1,0.2,0.5,0.8,0.6,1.4c0.8,0.1,2.2,0.4,3.6,1.1c0.8,0.5,3.2,0.7,9.4-1.1l0.4-0.1
				c2.8-0.8,4.8-1.4,12,2.8c6.7,3.9,14.2,1.6,19.3-0.5c4.3-1.8,18.7-7.4,24.4-4.6c3.8,1.9,6.6,2.4,8.3,1.6c1.1-0.5,1.9-1.5,2.3-3.2
				c0-0.1,0.5-1.8,1.4-2.7l0.3-0.3l0.4,0.2c0.2,0.1,5.1,2.5,4.1,10.8c0.3-0.2,0.6-0.5,0.6-0.9l1.2-0.3c0,0.1,0.4,0.8,1.6,0.5
				c1.4-0.3,3.2,2,4,4.2c1.1,3.2,0.2,6-2.6,7.4l-0.2,0.1c-0.4,0.1-1.3,0-1.8-0.7c-0.6-0.8-0.5-2,0.2-3.6c-1-0.2-3.3-0.3-6.3,3
				c-3.7,4-6.3,5.8-9.3,6.2c0.7,0.8,1.4,2,2.2,3.6c0,0,0.8,1.3,2.5,1.3c0,0,0,0,0,0l0.6,0l0,0.6c0,0.2,0.5,0.7,2.2,0.7l0.9,0
				c2.3-0.1,6.6-0.2,7.3-1.3l0.2-0.2c0.1-0.1,2.5-1.6,6-0.7c4,1.1,6,4.2,6.7,10.2c0.2,1.7,3.2,3.3,4.3,3.8l0.2,0.1l1.6,4.6l0.1,0.1
				l-0.1,0.4c0,0.2-0.6,4-6,5.2c0,0.1-0.1,0.2-0.1,0.4c-0.4,0.8-1.5,1.4-3.3,1.8c-0.2,0-2.9,0.5-5.6,0.6c-1.1,0-2,0-2.7-0.1
				c-0.9-0.1-1.5-0.2-1.9-0.4c-1.8,0.2-5.8-0.2-6.3-1.9c-0.2-1.7,0.2-3.1,1.1-4.1c1.8-1.9,5-1.7,5.1-1.7c2.4,0.2,6-0.1,6.4-1.4
				c0.4-1.5-0.1-2-1.1-2.8c-0.3-0.2-0.5-0.5-0.8-0.7c-1-1-1.6-2-1.6-3.3c-2.3,1.7-7.4,4.9-11.6,3.6c-0.7-0.2-1.3-0.5-1.8-1l-0.5,0.3
				c-0.4,0.2-4.1,1.6-10-7.8c0.2,2-0.1,4.4-1.6,6l-0.3,0.3l-0.4-0.1c-0.2-0.1-3.3-1.1-4.9-4.6c-0.4,1.7-1.1,3.6-2.6,4.3
				c-1,0.6-2.2,0.5-3.5-0.2c0,0,0,0,0,0c0,0.1,0.1,0.3,0.4,0.7c0.4,0.5,1.2,1.1,2.1,1.6c1.4,0.9,3,1.9,3.3,3.4
				c0.2,0.8,0,1.6-0.6,2.5c-1.3,1.9-2.7,2.7-3.8,3.4c-1,0.6-1.7,1-2,1.9l-0.1,0.3l-0.2,0.1c-0.4,0.2-11,4.9-13.1,5.4
				C749.2,185.4,747.4,185.6,745.8,185.6z M734.1,175.9l0.3,0l0,0.6c0.1,2,1.5,3.8,4.2,5.5l0.2,0.2c1.6,2.3,7.3,2.7,11.7,1.7
				c1.6-0.4,8.8-3.5,12.6-5.2c0.5-1.2,1.5-1.8,2.5-2.4c1.1-0.6,2.3-1.3,3.4-3c0.4-0.6,0.5-1.1,0.5-1.6c-0.2-1-1.6-1.8-2.8-2.6
				c-1-0.6-1.9-1.2-2.4-1.9c-0.4-0.6-0.9-1.4-0.5-2.1c0.4-0.6,1.2-0.5,1.4-0.4l0.2,0.1c1,0.6,1.8,0.7,2.5,0.3c1.8-1,2.3-4.9,2.4-6.3
				l1.2,0c0.4,4.2,3.4,5.9,4.4,6.3c2.2-2.8,0.4-8.1,0.4-8.1l1.1-0.5c4.1,7.5,7.1,9.7,8.7,10.3c-2.1-2.4-0.6-5.1-0.6-5.1l0.7-1.3
				l0.4,1.4c0.8,3.2,2.2,5.1,4.2,5.8c4.8,1.5,11.6-4.3,11.7-4.4l1,0.6c-0.6,1.6-0.1,2.5,1.1,3.7c0.2,0.2,0.5,0.5,0.7,0.7
				c1,0.9,2.1,1.9,1.4,4.1c-0.8,2.6-6.5,2.3-7.6,2.3c0,0-2.7-0.1-4.2,1.4c-0.7,0.7-1,1.7-0.8,3c0.1,0.5,3.5,1.2,5.2,0.8l0.1,0.6
				l0.5,0.1c0-0.3-0.2-0.5-0.3-0.5c0,0,0.3,0.1,1.5,0.3c0.7,0.1,1.5,0.1,2.5,0.1c2.6-0.1,5.3-0.5,5.4-0.5c2.2-0.5,2.5-1.1,2.5-1.3
				l-0.3-0.7l0.8-0.1c4.4-0.8,5.3-3.5,5.5-4.2l-1.5-4.2c-1-0.5-4.5-2.2-4.8-4.6c-0.8-6.9-3.3-8.5-5.9-9.2c-2.7-0.7-4.5,0.2-5,0.4
				c-1.1,1.4-4.4,1.6-8.2,1.7l-0.9,0c-1.3,0.1-2.3-0.2-2.9-0.7c-0.2-0.2-0.3-0.4-0.4-0.5c-2.2-0.2-3.1-1.8-3.1-1.9
				c-1.5-3-2.4-3.9-2.9-4.1l0.3-1.1c3.3,0.1,5.8-1.4,9.9-5.9c4.7-5.1,8.2-3.1,8.3-3.1l0.5,0.3l-0.2,0.5c-1,2.1-0.7,2.8-0.6,3
				c0.2,0.2,0.5,0.2,0.6,0.2c0,0,0,0,0,0c2.8-1.5,2.5-4.2,2-5.7c-0.7-2.4-2.3-3.7-2.7-3.7c-0.9,0.2-1.6,0-2.1-0.3
				c-0.5,0.8-1.4,1.2-2.1,1.4l-0.9,0.3l0.2-0.9c1.2-6.9-1.8-9.6-2.9-10.4c-0.4,0.6-0.7,1.5-0.8,1.8c-0.5,2-1.5,3.3-3,4
				c-2.1,1-5.2,0.4-9.4-1.6c-5.3-2.6-20.4,3.4-23.4,4.6c-5.3,2.2-13.1,4.6-20.3,0.4c-6.8-3.9-8.6-3.4-11.1-2.7l-0.4,0.1
				c-5.4,1.5-8.8,1.8-10.3,1c-1.7-0.9-3.7-1-3.8-1l-0.3-1.1c-0.1,0.1-0.1,0.1-0.1,0.2c0-0.1-0.2-0.6-0.4-0.9c-0.7-1-1-1.9-1-2.6
				c-0.5,1.2-0.7,2.9-0.1,5.6l0.8,1.2c0.1,0.6,0.7,2.1,1.5,2.6l0.3,0.2l0,0.2c0.1,0,0.2,0.1,0.4,0.1c0.5,0.2,0.8,0.7,0.9,1.4
				c0,0.2,0.1,0.2,0.1,0.2c0.2,0,0.9-0.6,1.4-1.5l1.1,0.4c0,0.2-0.8,5.4,5.1,7.2c-0.1-0.3-0.1-0.7,0.1-1.1c0,0-0.2-0.2-0.3-0.4
				c-0.3-0.4-0.7-1-0.7-1.7c0-0.1-0.2-0.4-0.4-0.5c-0.3-0.3-0.7-0.7-0.6-1.2c0.1-0.5,0.6-0.8,1-1c0.3-0.1,0.6-0.3,0.8-0.5
				c1.3-0.8,2.5-1.7,5.7,0.3c2.2,1.3,4.1,1.6,5.1,1.7c-0.7-1.6-1.3-3.5-0.8-4.2c0.2-0.3,0.5-0.4,0.8-0.4c0,0,0,0,0,0
				c0.7,0,1.5,0.7,3.3,2.4c1.8,1.7,4.5,4.3,5.8,4.1c0.9-0.1,2.1-0.6,3.4-1.1c2.3-0.9,4.9-1.8,6.7-1.3c1.4-1.2,6.1-2.3,10-3
				c2.6-0.5,5.3-1.2,8-1.8c7.8-2,15.2-3.8,18.7-0.4l0.1,0.1l0,0.2c0.1,0.9,0.8,3.3,2.1,4l0.4,0.2l0,0.4c0,0.1-0.1,2.4-2.3,3.8
				c-2.3,1.6-6,1.6-10.9-0.1l-4.7-1.3l0-0.1c-0.6-0.2-4.1-0.9-22.9,4.1l0,0c0,0-1.2,0.5-2,1.1c-0.5,0.4-1,0.4-1.7,0.4
				c-1,0-2.4,0-5.1,1c-2.1,0.8-20.2,7.5-31.7,5.5l0,0.1l-0.5-0.1c-1.2-0.4-2.4-0.4-3.2-0.5c-0.9,0-1.6-0.1-1.7-0.7
				c0-0.2,0-0.3,0-0.5c-3.5-0.5-5.8-1.5-6.7-3.1c-0.8-1.4-0.4-2.6-0.4-2.7l0.6-1.5l0.4,1c0-1.3-0.5-2.9-0.9-3.8l-0.1,0l-0.2-0.6
				c0-0.1,0-0.2-0.1-0.4l-0.1-0.4l1.1-0.8c3.1-2.7,6.5-3.8,8.2-4.2c-2.8-2.3-7.5-0.8-7.6-0.8l-0.8,0.3l0-0.8
				c0.1-3.5-1.1-7.6-1.5-8.9c-5.3,0.9-8.5,5.5-8.5,5.5l-1.1-0.3c-0.1-2.6-2.3-4.6-3.9-5.7c0.9,3.1,0,7.3,0,7.5l-0.2,0l-0.2,0.6
				l-0.2,1.7l-0.7-0.3c-0.5,0.4-2.1,1.7-4,6c-0.1,0.3-0.4,1.6-1.3,2.8l-1,1.3l0-0.9c-1.4,0.9-4.3,1.9-8.7-0.7
				c-2.3-1.4-8.9-5.1-11.2-5c-2.7,0.2-4.2,1.4-4.2,1.8l0.2,0.8l-0.8-0.1c-0.1,0-6.5-0.5-8.6,3.2l-0.1,0.2l-0.2,0.1
				c0,0-1.8,0.7-2.1,2.1c-0.2,0.9,0.3,2,1.6,3.2l0.1,0.1l0,0.1c0,0,0.2,0.7,0.7,1.5c0.1-1.7,0.6-1.9,0.8-2c0.2-0.1,0.6-0.1,1,0.4
				c0,0.1,0.2,0.3,0.5,0.5l0.2,0.1l0.1,0.3c0.2,0.8,0.5,1.7,1,2.3c0.1-0.8,0.3-1.9,0.5-2.5l0.2-0.4l1.9,0.3l-0.6,0.6l0.7,1l1.1-0.6
				c0.6-0.1,1.2,0.2,1.6,0.4l0.9-0.7l-0.4-0.7l1.3,0.2c0.1,0,0.2,0,0.4-0.1c0.5-0.4,0.9-1.6,0.9-2.3l0.1-0.7l0.7,0.2
				c1.1,0.3,2.2,0.1,3.4-0.7l0.7-0.4l0.2,0.8c0.5,1.9,4.2,4.1,5.8,5l0.1,0l0,0.1c0,0,0,0,0.1,0l0,0.1l0.3,1c2.4,1.2,6.1,0.8,6.2,0.8
				l0.3,1.2c-1.3,0.5-1.4,3.1-1.3,4l0,0.4l-0.4,0.2c-0.4,0.2-0.7,0.5-0.8,0.8c3.3,1.2,5.4,0.1,5.5,0.1l0.7-0.4l0.1,0.8
				c0.2,0.9,0.1,1.6-0.2,1.9c-1.1,2.5-1.8,5-2,6l0.2,0.1l-0.3,0.7c0,0,0,0.1-0.1,0.1l-0.1,0.3l-0.3,0.1c-0.1,0-6.6,2.4-9.5,5.7
				l-0.7,0.8l-0.3-1c0,0-0.2-0.5-0.5-0.5c-0.6,0-1.4-0.5-2.7-1.4c-0.8-0.5-1.6-1.1-2.1-1.3c-0.5-0.1-1.1-0.1-1.7,0
				c-0.8,0.1-1.6,0.2-2.1-0.4c-0.3-0.3-0.3-1-0.5-2.3c-0.1-0.8-0.2-2.5-0.5-2.8l-0.1-0.1l-0.6-1.7c-0.8,0.5-2,0.5-2.5,0.5
				c-0.2,0.1-0.4,0.3-0.8,0.6l-0.1,0.1l-0.2,0c-0.3,0-0.6,0-0.8-0.1c-0.1,0.2-0.2,0.4-0.3,0.9l-0.1,0.2l-1.4,1.1v-1.2
				c-0.3,0-0.6-0.1-0.9-0.2c0,0-0.1,0-0.1,0c-0.1,0.1-0.1,0.3-0.2,0.6l-0.1,0.3l-0.3,0.1c-0.7,0.1-1.4,0.2-1.9,0.2
				c-0.1,0.5,0,1.6,0.1,2.6l0,0.4l-0.3,0.2c-2.2,1.2-1.2,3-1.2,3.1l0.1,0.2c1,5,7.6,4.7,11.5,4.5c2-0.1,2.8-0.1,3.3,0.3
				c0.7,0.7,2.5,1,3.8,1c0.8,0,1.5,0.7,2.2,1.5c0.6,0.7,1.4,1.5,2,1.6c0.1,0,0.2,0,0.2,0c0,0,0.2-0.2,0.3-0.3
				c0.6-0.9,1.7-2.5,6.7-3.7c7.1-1.7,9.5-4.7,9.5-4.8l0.1-0.2l0.2,0c1.9-0.4,2.5-3,2.7-4l1.2,0.1c0,0.5,0.1,1,0.2,1.8
				c0.1,1.1,0,1.9-0.3,2.5l4.5-1.4c2-0.5,1.8-2.1,1.8-2.3l1.2-0.3c1.8,5.4,4.7,6.8,5.9,7.2c0.6-2.1,0.6-2.8,0.6-2.8l0-0.6l2-0.1
				c-0.2-1-1.1-1.8-1.7-2.2l0.7-1l2.9,1.8l1.7-0.3v0.7c0,0.3,0.3,0.7,0.6,1.1l0.3-1.9l0.9,1.2c0.8,1.1,2.2,1.2,2.9,1.1
				c0-0.1-0.1-0.3-0.1-0.4L705,173l1.3,0.8c5.3,3.4,14-1,14.1-1l0.2-0.1l0.2,0c1.7,0.4,2-0.4,2-0.5l0.1-0.5l0.5,0
				c2.2,0.3,2.7-1.1,2.8-1.2l0.1-0.4l0.4,0c6.2-0.6,10.7-5.1,10.7-5.2l0.2-0.2l0.2,0c2.6-0.2,2.7-1.8,2.8-2l0-0.7l0.7,0.1
				c0.1,0,2.9,0.5,5.7-3.1c7.4-10.9,18.6-5.3,18.7-5.3l-0.2,1.1l-6.2,0.4c-0.1,0-0.2,0-0.2,0c-5,0-8.2,1.1-9.5,3.3
				c-1.4,2.5,0,5.7,0.5,6.8l0.7-0.1l0.1,0c1.2,0.3,4.3,2.6,5.4,5.1c0.6,1.4,0.5,2.6-0.1,3.7c0,0-0.1,0.1-0.1,0.2
				c-1.2,1.7-2.8,2.5-4.7,2.3c-3.2-0.3-6.4-3.3-7.6-6.1c-1.5-3.5-4.5-2.8-4.6-2.7c-0.1,0-4.1,0.8-5.4,3.4
				C733.2,172.6,733.2,174.1,734.1,175.9z M739.9,166.6c1.3,0,3.6,0.5,5,3.5c1,2.4,3.9,5.1,6.6,5.4c1.4,0.2,2.6-0.4,3.5-1.7l0.1-0.1
				c0.5-0.8,0.5-1.6,0-2.6c-0.9-2.2-3.5-4.1-4.5-4.4l-1.3,0.1l-0.2-0.3c-0.1-0.2-1.9-3.3-1.4-6.4c-2.5,3.1-4.9,3.4-6.1,3.4
				c-0.3,1-1.3,2.3-3.5,2.5c-0.3,0.3-0.8,0.8-1.6,1.4c1.2-0.5,2.2-0.7,2.3-0.7C739,166.7,739.4,166.6,739.9,166.6z M786.2,164.4
				c0.1,0.5,0.4,1.1,0.9,1.7C786.7,165.6,786.4,165,786.2,164.4z M759.1,153.6c-1.7,0-3.6,0.3-5.5,1.3c1.6-0.4,3.6-0.6,5.8-0.6
				l3.3-0.2C761.6,153.8,760.4,153.6,759.1,153.6z"/>
		</g>
	</g>
	<g>
		<path d="M638.5,150.1c0,0,0.3-0.7,0.8-0.8c0.4-0.1,0.9,0.3,1.5,0.9l0.3-0.2c0,0-1.5-2.2-0.9-3.7c0.3-0.7,0.9-1.2,1.9-1.4l-0.1-0.4
			c-1.1,0.3-1.9,0.8-2.2,1.6c-0.1,0.3-0.2,0.6-0.2,0.9c0,0.8,0.3,1.5,0.5,2.1c-0.3-0.2-0.6-0.3-1-0.3c-0.6,0.1-0.8,0.5-1,0.8
			L638.5,150.1z M809.1,180c-3.7,0.6-9.1,0.9-9.5-0.2c-0.1-0.2-0.1-1,2.9-3.1l-0.4-0.6c-2.5,1.7-3.5,2.9-3.2,3.9
			c0.8,2.1,8.7,0.9,10.3,0.6L809.1,180z M738.5,182.3c-0.8-1.3-0.5-3.2,1.1-5.4l-0.5-0.4c-1.8,2.5-2.2,4.6-1.1,6.2L738.5,182.3z"/>
	</g>
	<g>
		<path d="M733.5,176.5c0.1,2.3,1.7,4.4,4.7,6.4l0.3-0.6c-2.8-1.8-4.3-3.7-4.4-5.8c-0.1-3.2,3.1-5.6,3.2-5.7l-0.4-0.5
			C736.8,170.4,733.4,173,733.5,176.5L733.5,176.5z M796.5,177.4c-1,1.5-0.7,3.4-0.7,3.5l0.6-0.1c0,0-0.3-1.7,0.6-3
			c0.5-0.8,1.4-1.3,2.5-1.5l-0.1-0.7C798.1,175.8,797.1,176.4,796.5,177.4L796.5,177.4z M652.1,148.1l-0.2-0.1l0,0.2
			c0,0-0.3,2.1-1.2,2.6c-0.2,0.2-0.5,0.2-0.8,0.1l-1.5-1c-0.3-0.3-0.6-0.5-1-0.3c-0.1-0.1-0.4-0.6-0.4-1.4c0-0.1,0-0.2,0-0.3
			c0.1-0.9,0.7-1.8,1.8-2.6l-0.2-0.3c-1.2,0.9-1.9,1.9-2,2.9c-0.1,0.7,0.1,1.5,0.6,2l0.1,0.1l0.1-0.1c0.3-0.2,0.4-0.1,0.8,0.2l1.6,1
			c0.4,0.2,0.8,0.1,1.1-0.1c0.9-0.6,1.2-2.2,1.3-2.7c3.9,0.9,7.1-4.1,7.2-4.3l-0.3-0.2C659.1,144,655.9,149.1,652.1,148.1
			L652.1,148.1z"/>
	</g>
	<g>
		<path d="M642.7,147.3c-0.2,0.8-0.1,1.6,0.4,2.4c0.4,0.7,0.9,1.1,1.3,1.2c0.5,0.1,1-0.3,1.4-0.7c0.3-0.3,0.5-0.5,0.8-0.5l0.3,0.2
			l0.3-0.2l-0.6-0.4c-0.4,0-0.7,0.3-1,0.6c-0.3,0.3-0.7,0.7-1.1,0.6c-0.3,0-0.7-0.4-1-1c-0.4-0.7-0.5-1.4-0.4-2.1
			c0.4-1.8,2.5-3.1,2.5-3.2l-0.2-0.3C645.3,144,643.2,145.3,642.7,147.3L642.7,147.3z M637.3,173.2c0.2-0.7,0.7-1.3,1.5-1.8
			c-0.2,0,0.8,0.8,1.7,0.8l0.5-0.3c0.2,0.2,1.7,1.6,1.7,3.3c0,0.4-0.1,0.8-0.2,1.1l0.3,0.1c1.1-2.6-1.6-5-1.6-5l-0.1-0.1l-0.2,0.1
			l-0.5,0.3c-0.7,0.1-1.6-0.7-1.6-0.7c-1.1,0.5-1.7,1.2-1.9,2L637.3,173.2z M649.8,166.5c-0.8,0.1-3.1,0.5-3.8,1.7
			c-0.3,0.4-0.3,0.9-0.1,1.4l0.3,0.8c0.7,2,1.4,4,2.2,4.4l0.2-0.3c-0.7-0.4-1.4-2.4-2.1-4.2l-0.3-0.8c-0.2-0.4-0.1-0.8,0.1-1.1
			c0.6-1,2.6-1.5,3.5-1.5c0.5,0,0.7,1.9,0.8,3.1l0.4,0C650.8,168.2,650.7,166.4,649.8,166.5L649.8,166.5z"/>
	</g>
	<g>
		<path d="M643.6,168.4c-0.5,0.4-0.4,1.1-0.4,1.1c0,0.2,0.2,5.1,2.5,6.1l0.1-0.4c-2-0.9-2.2-5.7-2.2-5.8c0,0-0.1-0.5,0.3-0.8
			c0.3-0.3,1-0.3,1.9-0.1l0.1-0.4C644.9,167.9,644.1,168,643.6,168.4L643.6,168.4z"/>
	</g>
	<g>
		<path d="M641.9,168.8L641.9,168.8c-1,0.7-0.9,2.7-0.9,2.8l0.4,0c0,0,0-1.9,0.8-2.5c0.3-0.2,0.7-0.2,1.2,0l0.1-0.4
			C642.8,168.5,642.3,168.5,641.9,168.8z"/>
		<path d="M718.2,160.4l0.2-0.3l-0.3-0.2c-2.2-2-7.3-4.3-9.4-5.2l0.7-0.2l-0.7-0.4c-1.7-1-3.5-1.1-4.8-1.2l0,0
			c-0.8-0.9-1.2-1.1-1.3-1.1c-4.5-0.5-6.1-1.8-6.7-2.8c0-0.1,0-0.1-0.1-0.2l0.2-0.3c0.4-0.6,0.6-1.4,0.6-2.2c0-2.1-1-4.5-1.1-4.7
			l0.7-0.7l-0.1-0.2c-5.2-8.5-16.2-8.3-16.3-8.3h0l-0.2,0l-1.6,2.3c-0.9,0.8-2.2,2.5-3.6,5.8l0,0c0,0.1-0.5,2.6-2.6,3.8
			c-1.6,0.9-3.6,0.8-6.1-0.2l-0.3-0.1l0,0.3c0,0.1,0.2,1.6,1.5,2.6c0.2,0.1,0.4,0.2,0.6,0.3l0.1,2c-0.4,0-1.4-0.2-2.4-0.5l-1-0.3
			l0.6,0.9c0.5,0.7,0.6,1.5,0.6,1.9c-2.2,0.4-4,1.9-4.1,1.9l-0.3,0.3l0.3,0.3c1.9,1.4,5,1.5,6.5,1.5c-0.9,1.1-1.1,2.9-1.1,3.7
			c0,0.2,0,0.2,0,0.3c-0.7,0.4-1.1,1-1.3,1.8l0,0.3l0.2,0.1c3.3,1.4,5.6,0.7,6.4,0.4c0,0.1,0,0.3,0,0.3c0,0.3-0.1,0.4-0.1,0.4
			c-1.6,3.5-2.3,6.9-2.3,6.9l-0.1,0.3l0.3,0.1c3.1,1.3,8.6-0.5,11.1-1.4c-0.3,0.6-0.5,1.2-0.5,2c0,0.7,0.1,1.4,0.2,2.3
			c0,0.2,0,0.4,0,0.6c0,1.9-1.2,2.6-1.3,2.7l0.2,0.6l6.4-2c1.5-0.4,2-1.3,2.3-2.1c2.5,6.2,6.5,6.8,6.7,6.8l0.3,0l0.1-0.3
			c0.6-1.9,0.8-2.9,0.8-3.3l2-0.1l0-0.3c0-0.1,0-0.1,0-0.2c0-0.5-0.2-1-0.4-1.5l1.1,0.7l1.1-0.2c0.3,1.1,1.5,2,1.7,2.1l0.4,0.3
			l0.2-1.4c1.6,1.5,3.8,1,3.9,1l0.3-0.1l0-0.3c-0.3-2.2-1.8-4.9-2.6-6.3c2.8,1.3,7.9,1.2,8.2,1.2l0.4,0l-0.1-0.4
			c-0.5-2.4-3.3-6.1-4.5-7.5C714.5,164.1,718.1,160.5,718.2,160.4z M680.1,133c1.3,0,10.7,0.3,15.4,7.8l-0.2,0.2c0,0,0,0,0,0
			l-0.4,0.1c0,0.1,0,0.2,0,0.2l-0.5,0.5l-0.2,0c-1.3-1.4-6.6-6.2-15.4-7.3l0.1-0.2c0.1-0.1,0.2-0.1,0.2-0.1l0-0.1L680.1,133z
			 M686.5,146l-0.2,0.3c0.1,0.1,2.5,2,1.2,4.3l-0.1,0.2c-1,1.7-1.2,2-5.2,3.3c-4,1.3-4.8-0.7-5.8-3.6l-0.2-0.6
			c-0.2-0.4-0.3-0.9-0.4-1.3c0.1,0.2,0.2,0.4,0.3,0.5l-0.1,0h0c0,0,0.6,1.2,1,2.2l0,0.4l0.1-0.2c0.1,0.3,0.2,0.6,0.3,0.8
			c0.1,0.6,0.8,1.2,1.6,1.5c0.8,0.3,1.6,0.3,2.1-0.1l1.1-0.9c0.4-0.4,0.5-0.5,0.8-0.4l0-0.1c0.5,0,1.1-0.1,1.8-0.3l-0.1-0.4
			c-1.4,0.3-2.5,0.4-3.3,0.1l-0.3-0.1c-0.2-0.1-0.4-0.2-0.5-0.3c-0.7-0.7-0.8-1.6-0.7-1.9c0.1,0.1,0.3,0.1,0.4,0.2
			c0.9,0.3,2,0.3,2.5-0.3c0.2-0.2,0.3-0.7-0.1-1.3c-1.4-2.5-3.7-1.5-3.8-1.5c-0.5,0.1-0.7,0.6-0.7,0.9c0,0.1,0,0.2,0,0.2
			c0.1,0.7,0.6,1.2,1.2,1.5c-1.1,0.5-2,0.5-2.7,0c-1-0.7-1.1-2.3-1.1-2.9c0.1-0.7,0.2-1.3,0.4-1.9l0,0c0,0,0.5-1.6,1.7-2.1
			c0.6-0.3,1.2-0.3,1.9,0l0.1-0.4c-0.8-0.3-1.5-0.3-2.2,0v0c0,0-0.1,0-0.1,0.1l-0.3,0c0,0,0-0.1,0-0.1c0-0.5,0.5-2.2,1.6-3.7
			c0.8-1.1,2.5-2.2,3-2.5c7.8,1.8,12.1,6.5,12.5,6.9c-0.3,1.3-1,2.3-1.6,3.2l-0.7,1.2c-0.7,1.3-1.4,1.6-2.1,1.8
			c-0.5,0.2-1,0.3-1.5,0.8C688.5,147.5,686.5,146,686.5,146z M678.8,146.9C678.8,146.9,678.9,146.9,678.8,146.9l0.1-0.1
			c0.1,0,2.1-0.9,3.4,1.3c0.2,0.4,0.3,0.7,0.1,0.9c-0.3,0.4-1.2,0.4-2.1,0.2v0c-0.2,0-0.3-0.1-0.5-0.2l0,0l-0.1,0
			c-0.3-0.1-0.6-0.3-0.9-0.6c0.6,0.2,1.5,0.2,1.5,0.2C679,148.2,678.8,147.3,678.8,146.9z M680.4,151.8l0.2,0.1
			c0.1,0.1,0.2,0.1,0.4,0.2l-0.7,0.9C680.3,152.7,680.4,152.2,680.4,151.8z M680.1,151.5c-0.2,2.1-0.1,2.1,0.1,2.2l0.1,0l0.1-0.2
			l1-1.3c0.2,0.1,0.5,0.1,0.8,0.2c-0.1,0.1-0.1,0.1-0.2,0.2l-1,0.9c-0.6,0.5-1.4,0.3-1.8,0.1c-0.8-0.3-1.3-0.9-1.4-1.2
			c-0.1-0.3-0.2-0.7-0.4-1.1l1.2-1.5c0.3-0.1,0.6-0.2,0.9-0.3C679.4,149.9,679.5,150.7,680.1,151.5L680.1,151.5L680.1,151.5z
			 M677.4,150l0.4,0l-0.5,0.6L677.4,150z M677,150.5c-0.2-0.3-0.3-0.7-0.4-0.9c0.1,0.1,0.3,0.2,0.5,0.2L677,150.5z M666,144.6
			c2.5,1,4.6,1,6.2,0.1c2.2-1.3,2.7-3.9,2.7-4c1.3-3.1,2.5-4.7,3.3-5.5l0.2,0c1,0.1,1.9,0.3,2.8,0.4c-0.7,0.5-2.1,1.4-2.8,2.4l0,0
			c-0.9,1.2-1.7,3.1-1.7,4c0,0.2,0,0.3,0.1,0.4c0,0,0,0,0,0c-0.2,0.2-0.3,0.3-0.5,0.5c-0.1,0.1-0.1,0.1-0.2,0.2
			c0,0.1-0.1,0.1-0.1,0.2c-0.1,0.2-0.2,0.3-0.3,0.4c0,0,0,0,0,0c-0.1,0.2-0.2,0.4-0.2,0.5c-0.2,0.5-0.4,1.2-0.4,1.8l0,0
			c0,0,0,0.1,0,0.2c0,0.2,0,0.5,0,0.7c0,1,0.2,2.1,0.5,3.1l0.2,0.6c1,2.9,1.9,5.3,6.3,3.9c4.2-1.4,4.4-1.7,5.4-3.5l0.3-0.5
			c0.6-1,1.2-1.2,1.9-1.4c0.8-0.2,1.6-0.5,2.4-2l0.7-1.1c0.6-0.9,1.3-1.9,1.6-3.1l0.7-0.8c0,0.2,0,0.5,0,0.8c0,1.9-0.5,4.1-0.9,5.6
			l-0.3,1.2c0,0.1,0,0.3,0,0.4c0,1,0.6,1.8,1.1,2.3c-0.6-0.1-1.4-0.4-1.7-1.1c-0.5-1.1-1.8-1.2-2.4-1l-0.4,0.1l0.4,0.3
			c0.6,0.4,0.6,0.9,0.6,1.9l0.2,2c0.1,0.7,0.4,1.2,0.9,1.5c0.4,0.3,0.9,0.3,1.3,0.4c-1,0.3-2.4,0.4-2.8-0.5
			c-0.9-1.8-3.5-2.3-3.6-2.3l-0.4-0.1l0.2,0.4c0.2,0.4,0.3,0.8,0.3,1.2c0,0.5-0.1,1-0.6,1.4c-0.9,0.9-1,2.6-1,3.6l0,0.3
			c-2.9-1.3-3.4-3.1-3.4-4.2c0-0.4,0.1-0.7,0.1-0.8l0.1-0.3l-0.3,0.1c-1.4,0.2-2,1.4-2,1.5c-0.8,2.5-3,4.5-3.8,5.1
			c0-0.2,0.1-0.5,0.1-0.7c0-0.8-0.2-1.8-0.8-2.5c-1.2-1.2-1.3-5-1.3-5l0-0.7l-0.3,0.6c-1.3,2.4-5,1.2-5,1.2c-0.2-3,3.1-6.8,3.1-6.8
			l0.3-0.4l-0.5,0.1c-1.6,0.2-2.9,0.1-4-0.3l0-0.1l-0.2,0c-0.3-0.1-0.6-0.3-0.8-0.5C666.7,146.1,666.2,145.4,666,144.6z M707.3,162
			c-0.7-0.5-7.2-5.8-10.4-6.4l-0.1,0.7l0,0c3.1,0.6,9.9,6.1,10.1,6.3c0.3,0.3,3.9,4.7,4.7,7.5c-1.4,0-6.6,0-8.4-1.6l-0.1,0.1
			l0.1-0.2c0,0-2.8-1.7-3-4.1l-0.6,0.1l0,0c0.2,2.6,2.8,4.4,3.3,4.6c0.3,0.5,2.5,4,3,6.7c-0.7,0.1-2.4,0.2-3.4-1.2l-0.5-0.6
			l-0.3,1.7c-0.5-0.4-1.1-0.9-1.1-1.6v-0.4l-1.5,0.3l-3-1.9c-0.1-0.1-0.3-0.2-0.5-0.3c-0.3-0.4-2.8-3.9-2.8-6.8h-0.6
			c0,3.2,2.9,7,3,7.2l0.2-0.2l-0.1,0.3l0.5,0.3c0.6,0.4,1.8,1.4,1.9,2.7l-2,0.1l0,0.4v0.1c0,0.2-0.1,1.1-0.7,3.1
			c-0.9-0.2-4.3-1.5-6.3-7.4l-0.6,0.2c0,0.1,0,0.1,0,0.2c0,0.5-0.2,1.9-2,2.4l-5.2,1.6c0.3-0.5,0.7-1.2,0.7-2.2c0-0.2,0-0.5,0-0.7
			c-0.1-0.9-0.2-1.6-0.2-2.2c0-1.2,0.3-2,1.1-2.5c0.4-0.1,0.7-0.3,0.9-0.7c0.3-0.6,0.2-1.4-0.3-2.5l-0.6,0.3v0
			c0.5,1.1,0.5,1.6,0.3,1.8c-0.2,0.3-0.5,0.3-0.5,0.3l0,0.3l-0.1-0.2c-0.1,0-7.7,3.2-11.5,1.9c0.2-0.8,0.8-3.4,2.1-6.3
			c0.2-0.2,0.3-0.7,0.1-1.7l-0.1-0.4l-0.4,0.2c0,0-2.5,1.1-6-0.2c0.1-0.3,0.3-0.8,1-1.1l0.2-0.1l0-0.2c0,0,0-0.2,0-0.4
			c0-1,0.1-3.3,1.5-3.8l-0.1-0.6c0,0-4.2,0.3-6.6-1.1c0.7-0.5,2-1.3,3.6-1.6l0.3,0l0-0.3c0-0.1,0-0.1,0-0.2c0-0.3-0.1-1-0.4-1.7
			c0.9,0.3,2.1,0.5,2.5,0.2l0.1-0.1l-0.1-2.1c1,0.4,2.2,0.5,3.6,0.3c-0.7,0.8-2.9,3.7-2.9,6.5c0,0.1,0,0.3,0,0.4
			c0.3,0.2,3.7,1.2,5.3-0.9c0.1,0.9,0.3,3.8,1.4,4.9c0.6,0.6,0.7,1.5,0.7,2.2c0,0.6-0.1,1.1-0.1,1.1l-0.1,0.5l0.4-0.3
			c0.1-0.1,3.3-2.5,4.3-5.6c0,0,0.5-0.8,1.5-1.1c0,0.1,0,0.3,0,0.5c0,1.2,0.5,3.4,3.9,4.7l0.3,0.1l0-0.3c0-0.2,0-0.4,0-0.6
			c0-0.9,0.1-2.5,0.9-3.3c0.5-0.5,0.7-1.2,0.7-1.7c0-0.4-0.1-0.8-0.2-1c0.7,0.2,2.3,0.7,3,2c1,1.9,4.3,0.4,4.4,0.3l-0.1-0.4
			c0,0-1.4,0.3-2.3-0.3c-0.4-0.3-0.6-0.7-0.7-1.3l-0.2-1.9c0-0.9-0.2-1.4-0.6-1.9c0.4,0,1.3,0,1.7,0.8c0.6,1.3,2.6,1.5,2.7,1.5
			l0.7,0l-0.6-0.4c0,0-1.8-1.2-1.5-2.8l0.3-1.1c0.3-1.4,0.8-3.6,0.9-5.4c0.3,0.9,0.6,2,0.6,3.1c0,0.3-0.2,0.6-0.2,0.9l-0.4-1.1
			l-0.3,0.8c0,0-0.4,1.2,0.3,2.4c1,1.6,3.4,2.7,7.2,3.1h0c0,0,0,0,0.1,0.1c-0.2,0-0.3,0.1-0.3,0.1l-0.2,0.1l0,0.3
			c0.1,0.4,0.5,0.4,1.4,0.5l0.6,0.1l0.4,0.1l-0.1-0.1c0.9,0.1,1.8,0.3,2.9,0.7l-0.8,0.2l0.9,0.4c0.1,0,7,2.9,9.8,5.3
			C716.7,160.9,713.2,163.5,707.3,162z"/>
		<path d="M684.8,148.4c0-0.1-0.1-0.2-0.2-0.2c-0.1,0-0.2,0.1-0.2,0.2s0.1,0.2,0.2,0.2C684.7,148.6,684.8,148.5,684.8,148.4z"/>
		<path d="M684.8,149.1c-0.1,0-0.2,0.1-0.2,0.2c0,0.1,0.1,0.2,0.2,0.2c0.1,0,0.2-0.1,0.2-0.2C685.1,149.2,685,149.1,684.8,149.1z"/>
		<polygon points="686.3,146.3 686.3,146.3 686.3,146.3 		"/>
		<path d="M683.6,148.6c-0.1,0-0.2,0.1-0.2,0.2s0.1,0.2,0.2,0.2s0.2-0.1,0.2-0.2S683.7,148.6,683.6,148.6z"/>
		<path d="M684,150c-0.1,0-0.2,0.1-0.2,0.2c0,0.1,0.1,0.2,0.2,0.2c0.1,0,0.2-0.1,0.2-0.2C684.2,150.1,684.1,150,684,150z"/>
		<path d="M678.5,144.1c0-0.1-0.1-0.2-0.2-0.2c-0.1,0-0.2,0.1-0.2,0.2c0,0.1,0.1,0.2,0.2,0.2C678.4,144.3,678.5,144.2,678.5,144.1z"
			/>
		<path d="M678.5,144.8c-0.1,0-0.2,0.1-0.2,0.2s0.1,0.2,0.2,0.2s0.2-0.1,0.2-0.2S678.6,144.8,678.5,144.8z"/>
		<path d="M677.2,144.3c-0.1,0-0.2,0.1-0.2,0.2s0.1,0.2,0.2,0.2s0.2-0.1,0.2-0.2S677.3,144.3,677.2,144.3z"/>
		<path d="M677.6,145.7c-0.1,0-0.2,0.1-0.2,0.2c0,0.1,0.1,0.2,0.2,0.2c0.1,0,0.2-0.1,0.2-0.2C677.8,145.8,677.7,145.7,677.6,145.7z"
			/>
		<path d="M685.6,143.5c-0.1,0.1-0.2,0.2-0.4,0.3c-0.1-0.4-0.2-0.6-0.2-0.6s-0.8,0.5-0.4,1.3c0.4,0.8-0.6,2.6-0.6,2.6l0.8-1.3
			c0.5-0.8,0.5-1.5,0.4-2C685.4,143.7,685.5,143.6,685.6,143.5z"/>
		<path d="M687.1,142.1c1.2-1.4,1.9-0.3,3.1,0.4c1.2,0.7,1.4,0.8,2.2,0.5l0-0.1v0c-0.9,0.5-2.2-0.4-2.9-1.3c-0.7-0.8-2-1.1-2.9,0.5
			c-0.4,0.6-0.8,1.1-1.1,1.5C686,143.1,686.6,142.7,687.1,142.1z"/>
		<path d="M681.6,137.9c0,0,2.8,1.8,0.1,5.2c0,0,1.3-1,1.5-2.8C683.3,138.6,682.2,137.1,681.6,137.9z"/>
		<path d="M688.7,144.5L688.7,144.5c0.5-0.3,0.9-0.6,1.4-0.2l0,0c0,0,0.7,0.2,0.1-0.3c-0.4-0.3-0.9-0.1-1.5,0.2
			c-1.1,0.1-1.7-0.8-1.8-1.1c0.8-0.5,1.8-1,2.1-0.8c0.5,0.4,1.8,1.5,2.6,1.2c0.8-0.3,0.7-0.4,0.7-0.4c-0.4,0.3-1.1,0.5-1.8-0.1
			c-0.7-0.6-1.3-1.4-2.2-0.9c-0.4,0.2-0.9,0.6-1.4,0.9c0,0,0,0,0,0c0,0,0,0,0,0c-0.6,0.5-1.2,0.9-1.2,0.9s0.3-0.2,0.6-0.4
			c0,0,0,0,0,0s0,0,0,0c0.2-0.1,0.4-0.2,0.6-0.4c0.1,0.3,0.3,1.1,1.2,1.4c0,0-0.1,0-0.1,0c-1,0.3-1.7-1-1.7-1c0,0,0,0,0,0
			c0,0,0.6,1.3,1.4,1.5C687.9,145,688.3,144.7,688.7,144.5C688.7,144.5,688.7,144.5,688.7,144.5z"/>
		<path d="M687.5,143.3c0,0.5,0.3,0.6,0.8,0.6c0.5,0,0.5-0.2,0.4-0.7h0C688.6,143,687.5,142.9,687.5,143.3z"/>
		<polygon points="688.7,144.5 688.7,144.5 688.7,144.5 		"/>
		<path d="M682,142.4c0,0.1,0,0.1-0.1,0.2c0,0,1.1-1.9,0.4-3.3c-0.7-1.4-1.9-1-1.9-1s-0.3,0.3-0.1,0.4h0c0,0,1.9,0,1.9,2
			c0-0.3-0.3-0.5-0.5-0.5c-0.3,0-0.4,0.3-0.4,0.6c0,0.1,0,0.2,0,0.3c0-0.1-0.1-0.2-0.1-0.2c-0.2-0.7,0.3-1.4,0.3-1.4l-0.3-0.2
			c0,0-0.6,0.9-0.4,1.8l0,0c0.1,0.4,0.5,0.8,1,1l0.1-0.4c-0.2-0.1-0.4-0.2-0.5-0.3c0,0,0.1,0,0.1,0c0.3,0,0.5-0.2,0.6-0.5
			C682.3,141.2,682.2,141.8,682,142.4c-0.9-0.8-1.3-1.5-1.3-2.1c0-0.7,0.5-1,0.5-1l-0.2-0.3c0,0-0.6,0.5-0.6,1.4v0
			c0,0.8,0.5,1.6,1.5,2.4L682,142.4z"/>
	</g>
	<g>
		<g>
			<g>
				<path class="st0" d="M638.4,149.5c0,0,0.2,2.1,1.8,3.4c0,0-0.2-2.3,0.3-3.3C640.5,149.6,639.6,148.6,638.4,149.5L638.4,149.5z
					 M641.6,150.9c0,0,0.4,1.9,1.5,2.8l0.7-0.2c0,0,0.3-2.4,0.7-2.7C644.8,150.5,642.8,151.6,641.6,150.9L641.6,150.9z"/>
				<path d="M643,153.9L643,153.9c-1.2-1-1.6-2.9-1.6-3l0-0.2h0.3l0,0c0.8,0.5,2.1,0.1,2.5-0.1c0.2-0.1,0.3-0.1,0.4,0
					c0.1,0.1,0,0.2-0.1,0.3c-0.2,0.2-0.5,1.5-0.6,2.6l0,0.1L643,153.9z M641.8,151.2c0.2,0.6,0.5,1.7,1.3,2.3l0.5-0.1
					c0.1-0.5,0.2-1.7,0.5-2.3C643.5,151.2,642.6,151.5,641.8,151.2z M640.4,153.3l-0.3-0.3c-1.6-1.3-1.8-3.4-1.8-3.5l0-0.1l0.1-0.1
					c0.8-0.6,1.4-0.4,1.8-0.2c0,0,0.5,0.3,0.5,0.5l0,0.1c-0.4,0.9-0.3,3.2-0.3,3.2L640.4,153.3z M638.6,149.6
					c0.1,0.4,0.3,1.8,1.4,2.9c0-0.7,0-2.1,0.3-2.8C640,149.5,639.4,149,638.6,149.6z"/>
			</g>
			<g>
				<path class="st0" d="M644.4,150.8l1.2,1.9l1.4-0.8l-0.3-2.3C646.7,149.6,645.9,149.4,644.4,150.8L644.4,150.8z"/>
				<path d="M645.5,152.9l-1.4-2.2l0.1-0.1c1.6-1.4,2.5-1.2,2.5-1.2l0.1,0l0.3,2.6L645.5,152.9z M644.6,150.8l1,1.7l1.1-0.6
					l-0.2-2.1C646.3,149.8,645.6,149.9,644.6,150.8z"/>
			</g>
			<g>
				<path class="st0" d="M650.1,151.2l-1.6,1.4c0,0-0.8-0.7-1.5-0.6l0.3-2.1C647.3,149.8,648.4,148.9,650.1,151.2z M638.8,171.2
					c0,0-0.3-3,0.1-3.2c0,0,1.1,0.4,1.6-0.1c0,0,0.7,2.4,0.5,3.4S639.6,171.9,638.8,171.2L638.8,171.2z M646,168.1
					c0,0-0.1-2.5,0.4-2.8c0,0,2.3,0.3,2.9-1l0.8,2.4C650.1,166.8,647.5,166.5,646,168.1z"/>
				<path d="M640.3,172.1c-0.5,0-1.1-0.3-1.6-0.7l0,0l0-0.1c-0.1-1.4-0.2-3.2,0.2-3.4l0.1,0l0.1,0c0.3,0.1,1.1,0.3,1.4-0.1l0.2-0.2
					l0.1,0.3c0,0.1,0.7,2.5,0.5,3.5c-0.1,0.4-0.3,0.6-0.5,0.7C640.5,172.1,640.4,172.1,640.3,172.1z M638.9,171.1
					c0.6,0.5,1.2,0.7,1.5,0.6c0.2-0.1,0.2-0.2,0.3-0.4c0.1-0.7-0.2-2.4-0.4-3.1c-0.5,0.2-1.2,0.1-1.4,0
					C638.8,168.6,638.8,169.9,638.9,171.1z M645.8,168.6l0-0.4c0-0.6-0.1-2.7,0.5-3l0.1,0l0.1,0c0,0,2.2,0.3,2.7-0.9l0.2-0.4
					l1.1,3.1l-0.3,0c0,0-2.6-0.3-4,1.3L645.8,168.6z M646.4,165.5c-0.2,0.2-0.3,1.2-0.3,2.2c1.3-1.1,3-1.2,3.7-1.1l-0.6-1.8
					C648.5,165.6,646.8,165.5,646.4,165.5z M648.5,152.7l-0.1-0.1c-0.2-0.2-0.9-0.6-1.4-0.5l-0.2,0l0.3-2.4l0.1,0
					c0,0,0.3-0.3,0.9-0.2c0.7,0.1,1.4,0.6,2.1,1.6l0.1,0.1L648.5,152.7z M647.2,151.7c0.5,0,1.1,0.4,1.3,0.5l1.4-1.2
					c-1.3-1.6-2.2-1.3-2.4-1.2L647.2,151.7z"/>
			</g>
		</g>
		<g>
			<path class="st0" d="M643.5,168.6c0,0,0.5-2.6,0.9-2.7c0,0,1.2,0.4,1.6-0.1l-0.1,3.2C645.9,169,646,167.6,643.5,168.6z
				 M640.7,169c0,0,0.6-2.3,0.9-2.3c0.4,0,1.3,0.6,1.8,0.2v1.7c0,0-2.1-0.5-2.3,2.4L640.7,169z"/>
			<path d="M640.9,171.1l-0.4-2.1l0,0c0.4-1.6,0.8-2.5,1.1-2.5c0.2,0,0.3,0.1,0.6,0.1c0.4,0.1,0.9,0.3,1.1,0.1l0.3-0.2v0.5
				c0.2-0.7,0.4-1.3,0.7-1.3l0,0l0,0c0.3,0.1,1.2,0.3,1.4,0l0.3,0.1l-0.1,3.2c0,0,0,0,0,0l-0.3,0c0,0,0-0.3-0.2-0.4
				c-0.2-0.1-0.7-0.3-1.9,0.2v0.1l-0.2,0l-0.2,0.1l0-0.1c-0.2,0-0.7,0-1.1,0.3c-0.5,0.4-0.8,1-0.9,2L640.9,171.1z M640.9,169
				l0.2,1.1c0.2-0.6,0.5-1,0.9-1.3c0.5-0.4,1-0.4,1.3-0.4v-1.3c-0.4,0.1-0.8-0.1-1.2-0.2c-0.2-0.1-0.4-0.1-0.5-0.1
				C641.5,166.9,641.1,168,640.9,169z M644.4,166.1c-0.2,0.1-0.5,1.1-0.7,2.3c1-0.3,1.6-0.3,2,0c0,0,0,0,0,0l0.1-2.2
				C645.3,166.3,644.6,166.1,644.4,166.1z"/>
		</g>
	</g>
	<g>
		<g>
			<g>
				<g>
					<path class="st33" d="M677.3,217.3c0,0,6.4,6.1,4.7,11.5c0,0,4.1-9.1-0.3-11.8C677.3,214.3,677.1,216.4,677.3,217.3
						L677.3,217.3z"/>
					<path d="M682.3,228.9l-0.7-0.3c1.6-5-4.5-11-4.6-11.1l-0.1-0.1l0-0.1c-0.1-0.8,0.1-1.5,0.6-1.8c0.8-0.5,2.3-0.2,4.4,1.1
						C686.5,219.5,682.5,228.5,682.3,228.9z M677.6,217.1c0.7,0.7,4.4,4.6,4.9,8.8c0.8-2.8,1.5-7-1.1-8.6c-2.5-1.5-3.3-1.3-3.6-1.2
						C677.6,216.4,677.6,216.9,677.6,217.1z"/>
				</g>
				<g>
					<path class="st34" d="M669.2,223.3c0,0-1.7,2.4,0.2,4.1c0,0-2,3-0.5,5.5c0,0-1.2,2.7-0.9,5.5c0,0-1.1,4.4,1.2,6.4
						c0,0,2.4,1.3,3.5,0.2c0,0,2.1-3.3,0.8-6.8c0,0,1.5-2.8-0.2-6.4c0,0,0.5-2-0.9-4.4c0,0,0.9-1.6,0.1-2.8
						C672.6,224.5,669.5,221.2,669.2,223.3L669.2,223.3z"/>
					<path d="M671.4,245.8c-1.2,0-2.3-0.6-2.4-0.6l-0.1-0.1c-2.3-2.1-1.5-6.2-1.3-6.8c-0.2-2.5,0.6-4.8,0.9-5.4
						c-1.2-2.2-0.1-4.7,0.4-5.5c-1.3-1.5-0.6-3.4,0-4.3c0.1-0.6,0.4-0.8,0.7-0.9c1.1-0.3,2.8,1.5,3.3,2c0.7,1.2,0.2,2.6,0,3.1
						c1.1,2.1,1,3.9,0.9,4.4c1.4,3.2,0.5,5.8,0.2,6.5c1.3,3.5-0.8,6.8-0.9,6.9C672.6,245.6,672,245.8,671.4,245.8z M669.4,244.5
						c0.6,0.3,2.3,0.9,3,0.2c0,0,0,0,0,0c0,0,1.9-3.1,0.7-6.3l-0.1-0.2l0.1-0.2c0,0,1.4-2.7-0.2-6.1l-0.1-0.1l0-0.1
						c0,0,0.4-1.9-0.9-4.1l-0.1-0.2l0.1-0.2c0,0,0.8-1.4,0.2-2.4c-0.8-0.9-2.1-1.9-2.5-1.7c-0.1,0-0.1,0.3-0.1,0.3l-0.1,0.2
						c-0.1,0.1-1.4,2.1,0.1,3.6l0.2,0.2l-0.2,0.3c0,0-1.8,2.8-0.4,5.1l0.1,0.2l-0.1,0.2c0,0-1.2,2.6-0.9,5.3l0,0.1l0,0.1
						C668.4,238.5,667.4,242.6,669.4,244.5z"/>
				</g>
				<g>
					<path class="st33" d="M671,215.6c0,0-7.6-15.1-12.9-15.7c-5.3-0.6-5.6-6-5.6-6s0.6,2.5,4.9,2.5c4.2,0,12.4,6.1,13.3,10.8
						c0.9,4.7,1.8,4.1,1.8,4.1L671,215.6L671,215.6z"/>
					<path d="M671.1,216.6l-0.4-0.8c-0.1-0.1-7.5-14.9-12.6-15.5c-5.6-0.7-6-6.3-6-6.3l0.8-0.1c0,0.1,0.6,2.2,4.5,2.2
						c4.4,0,12.8,6.2,13.7,11.2c0.6,3.1,1.2,3.7,1.3,3.8l0.9-0.6L671.1,216.6z M653.3,195.6c0.5,1.5,1.8,3.5,4.9,3.8
						c4.8,0.6,11.1,11.9,12.8,15.1l1.1-3c-0.7-0.4-1.2-1.8-1.7-4.3c-0.9-4.5-8.9-10.5-13-10.5C655.4,196.8,654.1,196.3,653.3,195.6z
						"/>
				</g>
				<g>
					<path class="st33" d="M671,214.5c0,0,2.7-19,14.7-19.3c12-0.3,8,0.9,10.9-1.1c0,0-8,4.4-13,5c-5,0.6-9.1,10.7-9,12.6
						c0.2,1.9-2.7,5.5-4.1,4.2C669.2,214.6,671,214.5,671,214.5L671,214.5z"/>
					<path d="M671.3,216.5c-0.3,0-0.7-0.1-0.9-0.4c-0.2-0.2-0.8-0.7-0.6-1.3c0.1-0.4,0.6-0.6,1-0.7c0.4-2.5,3.5-19.1,15.1-19.4
						c4.8-0.1,7,0,8.2,0.1c0.1,0,0.2,0,0.3,0c1.3-0.6,2.2-1.1,2.2-1.1l0.4,0.7c-0.5,0.4-0.8,0.6-1,0.8c-0.5,0.5-0.7,0.5-1.5,0.5
						c-2.8,1.4-7.4,3.4-10.8,3.8c-4.6,0.6-8.8,10.3-8.6,12.1c0.1,1.5-1.4,4-3,4.7C671.8,216.5,671.5,216.5,671.3,216.5z
						 M671.3,215.8c0.1,0,0.3,0,0.5-0.1c1.2-0.6,2.6-2.8,2.5-3.9c-0.2-2.1,4-12.3,9.3-13c2.8-0.3,6.5-1.9,9.2-3.1
						c-1.3-0.1-3.5-0.1-7,0c-11.5,0.3-14.3,18.8-14.3,19L671.3,215.8z M670.8,214.9c-0.2,0-0.3,0.1-0.3,0.2c0,0,0,0.2,0.4,0.5
						c0,0,0.2,0.1,0.4,0.2L670.8,214.9z"/>
				</g>
				<g>
					<path class="st33" d="M673.8,221.6c0,0,2.7-7.5,7.4-5c0,0-3.6-7.2-10.2-0.9C671,215.6,673.9,219.7,673.8,221.6L673.8,221.6z
						 M664.7,214c0,0,3.9,16.8-2.1,22c0,0,0.2-8.6-3.5-13.8C655.4,217,662.7,211.3,664.7,214L664.7,214z"/>
					<path d="M662.1,236.8l0-0.9c0-0.1,0.1-8.6-3.4-13.6c-2.2-3.1-0.8-6.6,1.8-8.5c1.8-1.3,3.6-1.4,4.4-0.2l0.1,0.1
						c0.2,0.7,3.9,17.1-2.3,22.4L662.1,236.8z M663.2,213.7c-0.7,0-1.5,0.4-2.2,0.9c-1.8,1.3-3.7,4.4-1.6,7.4
						c3,4.3,3.5,10.7,3.6,13.1c4.7-5.4,1.7-19.7,1.4-20.9C664,213.8,663.7,213.7,663.2,213.7z M674.1,221.7l-0.8-0.2
						c0.1-1.4-1.9-4.6-2.7-5.7l-0.2-0.3l0.2-0.2c2.1-2.1,4.2-2.9,6.2-2.6c3,0.5,4.5,3.5,4.6,3.7l0.6,1.1l-1.1-0.6
						c-1-0.5-1.9-0.6-2.8-0.3C675.7,217.6,674.2,221.6,674.1,221.7z M671.6,215.6c0.5,0.8,1.9,2.8,2.4,4.5c0.7-1.4,2-3.6,4-4.3
						c0.8-0.3,1.5-0.3,2.3-0.2c-0.7-0.9-1.8-2-3.4-2.3C675.2,213.2,673.4,213.9,671.6,215.6z"/>
				</g>
				<g>
					<path class="st33" d="M665.1,217c0,0,7.1,7.1,7.6,9.4c0.5,2.4,2.1-7.1-1.2-9.7c-3.3-2.7-7-3.1-7-3.1L665.1,217z"/>
					<path d="M672.9,227.2C672.9,227.2,672.9,227.2,672.9,227.2c-0.4,0-0.5-0.5-0.6-0.7c-0.4-1.8-5.5-7.3-7.5-9.2l-0.1-0.1l-0.7-4.1
						l0.5,0.1c0.2,0,3.8,0.5,7.2,3.2c2.8,2.3,2.3,8.9,1.7,10.3C673.3,227,673.1,227.2,672.9,227.2z M665.5,216.8c1,1,6.3,6.3,7.4,9
						c0.4-1.9,0.5-7-1.6-8.8c-2.5-2-5.1-2.7-6.3-3L665.5,216.8z"/>
				</g>
				<g>
					<path class="st34" d="M652,235.5c0,0,0.6,3,2.4,3.5c0,0,0.1,2.2,1.7,2.9c0,0-0.8,1.8,0.6,3c0,0-0.3,3.6,1,4.4
						c0,0,3.1-0.2,4.3-1.1c0,0,0.6-2.4-1.1-4.8c0,0,0.3-2.3-1.5-3.5c0,0,0.6-3.1-1.7-4.2c0,0-0.4-2.5-1.8-3.7
						C655.9,231.9,653.2,235.8,652,235.5L652,235.5z"/>
					<path d="M657.5,249.7l-0.1-0.1c-1.3-0.8-1.3-3.7-1.2-4.6c-0.9-0.9-0.9-2.2-0.6-2.9c-1.2-0.7-1.5-2.2-1.5-2.8
						c-1.8-0.8-2.4-3.6-2.4-3.7l-0.1-0.6l0.6,0.1c0.5,0.1,2.3-1.7,3.5-3.5l0.3-0.4l0.3,0.3c1.3,1.1,1.7,3.1,1.9,3.8
						c1.9,1.1,1.8,3.5,1.7,4.3c1.5,1.2,1.5,3,1.5,3.6c1.7,2.5,1.1,4.9,1.1,5l0,0.1l-0.1,0.1c-1.2,1-4.4,1.2-4.5,1.2L657.5,249.7z
						 M652.5,235.9c0.2,0.8,0.9,2.5,2,2.8l0.3,0.1l0,0.3c0,0,0.1,2,1.4,2.5l0.4,0.2l-0.2,0.4c0,0.1-0.7,1.6,0.4,2.5l0.2,0.1l0,0.2
						c-0.1,1.3,0,3.4,0.7,4c0.9-0.1,2.9-0.3,3.8-1c0.1-0.5,0.3-2.4-1.1-4.3l-0.1-0.1l0-0.2c0,0,0.2-2.1-1.3-3.2l-0.2-0.1l0-0.2
						c0,0,0.5-2.8-1.5-3.8l-0.2-0.1l0-0.2c0,0-0.3-2-1.3-3.2C655.3,233.4,653.7,235.5,652.5,235.9z"/>
				</g>
				<g>
					<path class="st33" d="M655.5,231.9c0,0-9.3-3.5-14.5,1.5c0,0,8,1.1,9,2.8S655.9,233.5,655.5,231.9L655.5,231.9z"/>
					<path d="M650.7,236.9c-0.6,0-0.9-0.3-1-0.5c-0.7-1.1-5.7-2.2-8.7-2.6l-0.8-0.1l0.6-0.6c5.3-5.2,14.5-1.8,14.9-1.6l0.2,0.1
						l0,0.2c0.3,1.5-2.4,4.2-4.2,4.9C651.2,236.9,650.9,236.9,650.7,236.9z M641.8,233.2c2.2,0.4,7.5,1.4,8.4,2.8
						c0.2,0.3,0.7,0.2,1.1,0c1.7-0.7,3.6-2.9,3.8-3.8C653.7,231.7,646.4,229.5,641.8,233.2z"/>
				</g>
				<g>
					<path class="st33" d="M652.6,237.9c0,0-0.7-0.7-1.7-1.3c-0.9-0.7-8.8-2.9-9.9,5c0,0-2.9-7.8,1.3-8.8
						C646.5,231.7,649.8,234.2,652.6,237.9 M646.5,221.9c0,0,2.9,6.4,3.9,6.8c1.1,0.3,1.8-0.8,1.8-0.8S648.4,222,646.5,221.9
						L646.5,221.9z M644.3,212c0,0-2.4-8.3-5.3-6.1c-2.9,2.2-2.1,8.2-2.1,8.2s-5.8-6.1-2.4-11C637.8,198.1,644.3,203.5,644.3,212z"
						/>
					<path d="M641.2,243.1l-0.5-1.4c-0.1-0.2-1.9-5.1-0.5-7.7c0.4-0.8,1.1-1.3,2-1.6c3.8-1,7.3,0.8,10.7,5.3l-0.6,0.5
						c0,0-0.7-0.7-1.6-1.3c-0.5-0.4-3.5-1.3-6-0.2c-1.8,0.8-2.9,2.4-3.3,5L641.2,243.1z M644.2,232.9c-0.6,0-1.2,0.1-1.8,0.2
						c-0.7,0.2-1.2,0.6-1.5,1.2c-0.8,1.5-0.4,4.1,0.1,5.7c0.6-2,1.7-3.4,3.4-4.1c2.2-0.9,4.6-0.5,6,0
						C648.4,233.9,646.4,232.9,644.2,232.9z M650.8,229.1c-0.2,0-0.3,0-0.5-0.1c-1.1-0.3-3.5-5.4-4.2-7l-0.3-0.6l0.7,0.1
						c2.1,0.2,5.7,5.5,6.1,6.1l0.1,0.2l-0.1,0.2C652.5,228.1,651.8,229.1,650.8,229.1z M647.2,222.6c1.3,2.7,2.8,5.5,3.3,5.7
						c0.5,0.2,1-0.2,1.2-0.4C650.5,226,648.6,223.5,647.2,222.6z M637.4,215.1l-0.8-0.9c-0.2-0.3-5.9-6.4-2.5-11.5
						c1.2-1.7,2.9-2.4,4.7-1.8c2.9,0.9,5.9,5,5.9,11l-0.8,0.1c-0.4-1.5-2-5.6-3.6-6.2c-0.4-0.1-0.7,0-1.1,0.2c-2.7,2-2,7.7-2,7.8
						L637.4,215.1z M637.6,201.6c-1.1,0-2,0.6-2.8,1.7c-2.4,3.5,0.2,7.7,1.6,9.6c-0.1-1.9,0.1-5.6,2.4-7.3c0.6-0.4,1.2-0.6,1.8-0.4
						c1.3,0.4,2.3,2.2,3.1,3.8c-0.8-3.9-3-6.6-5.1-7.3C638.2,201.6,637.9,201.6,637.6,201.6z"/>
				</g>
				<g>
					<path class="st34" d="M650.9,229.1c0,0,0,1.6,1.1,2c1.1,0.5,3,1.3,3,0.3s-1.5-4.6-2.1-4.1C652.2,227.8,651.2,227.8,650.9,229.1
						L650.9,229.1z"/>
					<path d="M654.4,232.3c-0.6,0-1.4-0.3-2.6-0.8c-1.3-0.6-1.3-2.3-1.3-2.4l0-0.1c0.3-1.1,1-1.4,1.6-1.7c0.2-0.1,0.4-0.2,0.5-0.3
						c0.2-0.1,0.4-0.2,0.7-0.1c0.9,0.4,2.1,3.6,2.1,4.4c0,0.3-0.1,0.5-0.3,0.7C654.9,232.2,654.7,232.3,654.4,232.3z M651.3,229.1
						c0,0.2,0.1,1.3,0.8,1.6c2.1,0.9,2.5,0.7,2.5,0.7c0-0.8-1.1-3.3-1.6-3.7c-0.2,0.1-0.4,0.2-0.6,0.3
						C651.9,228.3,651.4,228.5,651.3,229.1z"/>
				</g>
				<g>
					<path class="st33" d="M649.1,219.4c0,0-0.3-7.2,4.2-9.9c0,0,0.9,0.2,1.4-1.3c0,0-3.6,9.1-2.6,13.7l-0.2,0.6"/>
					<path d="M652.3,222.6l-0.8-0.2l0.1-0.5c-0.8-3.4,1-9.2,2-12c-0.1,0-0.2,0-0.3,0c-4.2,2.6-4,9.4-4,9.5l-0.8,0
						c0-0.3-0.3-7.5,4.4-10.2l0.1-0.1l0.1,0c0,0,0.5,0,0.8-0.7c0.1-0.2,0.1-0.3,0.1-0.4l0.7,0.3c0,0.1-0.1,0.3-0.1,0.4
						c-0.6,1.7-3.3,9.2-2.4,13.1l0,0.1L652.3,222.6z"/>
				</g>
				<g>
					<path class="st33" d="M650,210.6c0,0,8.2-17.6,18.2-11.5c0,0-10.5,2.2-14.3,9.9l-3.8,5.8L650,210.6L650,210.6z"/>
					<path d="M649.8,216l-0.2-5.6l0-0.1c0.2-0.4,5-10.6,11.8-12.6c2.4-0.7,4.7-0.4,6.9,1l0.8,0.5l-1,0.2c-0.1,0-10.3,2.3-14,9.7
						L649.8,216z M650.4,210.6l0.1,2.9l3.1-4.8c3.2-6.4,10.8-9.1,13.5-9.8c-1.8-0.8-3.6-1-5.4-0.4
						C655.5,200.4,650.8,209.7,650.4,210.6z"/>
				</g>
				<g>
					<path class="st33" d="M645.6,217c0,0-2.4-11.8-3.9-13.3s-4.1-3.3-7.1-0.6c0,0,5.3-4.9,10.9-0.8c5.6,4.1,4.4,10.5,4.4,10.5
						l-0.6,8.2l-3.8-3.6"/>
					<path d="M649.5,221.8l-4.4-4.2l0.5-0.6l3.2,3l0.5-7.3c0-0.1,1.1-6.3-4.2-10.2c-2.5-1.8-4.9-1.8-6.8-1.2
						c1.2,0.2,2.3,0.9,3.5,2.1c1.6,1.6,3.8,12.3,4,13.5l-0.8,0.2c-0.7-3.2-2.7-11.9-3.8-13.2c-2.2-2.3-4.4-2.5-6.6-0.6l-0.5-0.6
						c0,0,0,0,0,0c0.3-0.3,0.6-0.5,0.9-0.7c1.8-1.2,6.1-3.3,10.5-0.1c5.7,4.2,4.6,10.8,4.6,10.9L649.5,221.8z"/>
				</g>
				<g>
					<path class="st33" d="M654.4,231c0,0-10-19.6-16.5-5.6c0,0-1.2,3.6,0.1,5c0,0-3.6-2.8-2-9.7c1.7-6.9,12.7-3.8,15.9,1.9
						c3.2,5.7,4.1,8.5,3.6,8.8C655.1,231.6,654.4,231,654.4,231z M682.6,236.6c0,0,7.3-15.5,11.5-8.5c0,0,1.2,3.5-0.6,4.9
						c0,0-2.9-3.6-5.5,0.8c-2.6,4.4-1.5,4.1-1.5,4.1S683.8,238.7,682.6,236.6L682.6,236.6z"/>
					<path d="M685.4,238.4c-1.1,0-2.4-0.4-3.1-1.6l-0.1-0.2l0.1-0.2c0.2-0.4,4.9-10.3,9.1-10.5c1.2-0.1,2.2,0.6,3.1,2
						c0.1,0.2,1.3,3.8-0.7,5.4l-0.3,0.2l-0.2-0.3c0,0-1.1-1.3-2.4-1.2c-0.9,0.1-1.7,0.7-2.4,2c-1.8,3-1.7,3.6-1.7,3.7
						c0,0,0-0.1-0.1-0.1c-0.1,0-0.1,0-0.2,0l0.2,0.7c0,0,0,0,0,0C686.3,238.4,685.9,238.4,685.4,238.4z M683,236.6
						c0.8,1.1,2.2,1.1,2.9,1c0-0.6,0.4-1.6,1.8-4c0.9-1.5,1.9-2.3,3-2.4c1.3-0.1,2.3,0.8,2.8,1.2c1.2-1.4,0.2-4.2,0.2-4.2
						c-0.7-1.1-1.4-1.6-2.3-1.6C688.3,226.9,684.4,233.7,683,236.6z M655.3,231.8c-0.6,0-1.1-0.4-1.2-0.5l-0.1-0.1
						c-0.1-0.1-5.4-10.5-10.6-10.5c0,0,0,0-0.1,0c-2,0-3.7,1.6-5.2,4.8c-0.3,0.9-0.9,3.6,0.1,4.6l-0.5,0.6
						c-0.2-0.1-3.8-3.1-2.1-10.1c0.6-2.3,2.2-3.8,4.7-4.2c4.2-0.6,9.8,2.2,11.9,6c2.2,3.9,4.5,8.6,3.5,9.3
						C655.6,231.7,655.5,231.8,655.3,231.8z M654.7,230.7c0.2,0.2,0.5,0.3,0.6,0.3c0-0.5-0.5-2.7-3.7-8.3c-2-3.5-7.2-6.1-11.1-5.6
						c-1.5,0.2-3.5,1-4.1,3.6c-0.9,3.8-0.2,6.2,0.6,7.7c0-1.5,0.5-3.1,0.5-3.2c1.6-3.5,3.6-5.2,5.9-5.3c0,0,0.1,0,0.1,0
						C648.9,219.9,654.1,229.7,654.7,230.7z"/>
				</g>
				<g>
					<path class="st33" d="M693.5,233c0,0,3.9,2.2,2.6,6.6c0,0,5.3-10.5-2-11.5C694.1,228.1,695.5,231.4,693.5,233L693.5,233z
						 M694,222.3c0,0,9.6,2.8,9.9,7.1c0,0,1.7-8.2-3.8-10.7C700,218.7,693.5,219.8,694,222.3z"/>
					<path d="M696.4,239.8l-0.7-0.3c1.2-4-2.3-6.1-2.4-6.1l-0.5-0.3l0.5-0.4c1.7-1.4,0.5-4.4,0.5-4.4l-0.3-0.6l0.7,0.1
						c1.7,0.2,2.9,1,3.6,2.2C699.6,233.4,696.6,239.5,696.4,239.8z M694.1,233c0.8,0.6,2.3,1.9,2.6,4.1c0.7-2,1.3-4.9,0.4-6.7
						c-0.5-0.9-1.2-1.4-2.4-1.7C695,229.7,695.3,231.6,694.1,233z M704.2,229.5l-0.8-0.1c-0.3-3.9-9.5-6.7-9.6-6.7l-0.2-0.1l0-0.2
						c-0.1-0.5,0-1,0.3-1.4c1.2-1.7,5.3-2.5,6-2.7l0.1,0l0.1,0C705.9,221,704.3,229.1,704.2,229.5z M694.3,222
						c1.4,0.4,7.4,2.5,9.3,5.6c0.2-2.4-0.1-6.8-3.7-8.5c-1.7,0.3-4.6,1.1-5.4,2.3C694.4,221.6,694.3,221.8,694.3,222z"/>
				</g>
				<g>
					<path class="st33" d="M698.2,209.3c4.1-8.3,9.3,2.7,9.3,2.7s1.8-8.6-3.3-10.2c-5.2-1.6-8.5,18.4-8.5,18.4l-6.1,1.4
						c0,0,1.7-17.4,10.8-19l1.1,0.2"/>
					<path d="M689.1,222l0.1-0.5c0.1-0.7,1.8-17.7,11.1-19.4l0.1,0l1.1,0.2c0.2-0.2,0.5-0.5,0.8-0.6c0.7-0.4,1.4-0.5,2.1-0.3
						c5.4,1.7,3.7,10.3,3.6,10.7l-0.2,1.1l-0.5-1.1c0-0.1-2.6-5.5-5.4-5.6c0,0,0,0,0,0c-1.1,0-2,0.8-2.9,2.5
						c-1.7,5.1-2.7,11-2.8,11.1l0,0.3L689.1,222z M700.3,202.9c-7.8,1.4-9.9,15.2-10.3,18.1l5.3-1.2c0.2-1.2,1.1-6.2,2.6-10.7
						l-0.1,0c0.1-0.1,0.1-0.3,0.2-0.4c0.8-2.2,1.7-4.3,2.8-5.7L700.3,202.9z M701.7,205.8C701.7,205.8,701.7,205.8,701.7,205.8
						c2.5,0,4.6,3.2,5.6,4.9c0.3-2.3,0.4-7.5-3.2-8.6c-0.5-0.1-0.9-0.1-1.4,0.2c-1.1,0.7-2,2.2-2.9,4.2
						C700.3,206,701,205.8,701.7,205.8z"/>
				</g>
				<g>
					<path class="st33" d="M690.9,214.3c0,0-5.8-12.2-9.7-13.5c-3.9-1.3,2.1-3.1,4.6-0.8c2.4,2.4,7,5.3,6.5,11.6L690.9,214.3
						L690.9,214.3z M685,231.1c0,0,1.7-8.3,6.2-10.8c4.6-2.5,8.8-1.6,8.8-1.6s-5.5,1.3-6.4,4.1c-0.9,2.8-2.4,3-2.4,3L685,231.1z"/>
					<path d="M684.4,232.2l0.2-1.1c0.1-0.3,1.8-8.5,6.4-11.1c4.6-2.6,8.9-1.6,9.1-1.6l1.7,0.4l-1.7,0.4c-0.1,0-5.3,1.2-6.1,3.8
						c-0.8,2.6-2.2,3.1-2.6,3.2L684.4,232.2z M698,218.9c-1.6,0-4.1,0.3-6.6,1.7c-3.3,1.8-5.1,7.1-5.7,9.4l5.4-4.6l0.1,0
						c0,0,1.3-0.2,2.1-2.7C693.9,220.8,696.3,219.6,698,218.9z M690.9,215.2l-0.3-0.7c-0.1-0.1-5.7-12.1-9.5-13.3
						c-1-0.3-1.5-0.7-1.6-1.2c0-0.2,0.1-0.7,0.8-1c1.4-0.6,4.2-0.6,5.7,0.8c0.3,0.3,0.7,0.7,1.1,1c2.5,2.2,5.9,5.3,5.5,10.9l0,0.1
						L690.9,215.2z M680.3,199.9c0,0,0.1,0.3,1,0.5c3.5,1.1,8.3,10.3,9.6,13l1-1.9c0.3-5.2-2.8-7.9-5.3-10.2c-0.4-0.4-0.8-0.7-1.1-1
						c-1.1-1-3.1-1.2-4.4-0.8C680.5,199.6,680.3,199.9,680.3,199.9L680.3,199.9z"/>
				</g>
				<g>
					<path class="st34" d="M682.6,236.6c0,0-2.6,5-2,5.8c0,0-2.7,4.1-1.7,6.1c0,0,2.7,2.2,3.9,1.3c0,0,3.2-4.6,2.3-7.1
						c0,0,2.1-3,1.4-4.9C686.5,237.9,683.3,238,682.6,236.6L682.6,236.6z"/>
					<path d="M682.1,250.4c-1.4,0-3.2-1.4-3.4-1.6l-0.1-0.1c-1-2,1.1-5.5,1.6-6.4c-0.3-1.2,1.1-4.2,2.1-5.9l0.3-0.7l0.4,0.7
						c0.5,1,2.7,1.1,3.6,1.1l0.3,0l0.1,0.3c0.7,1.8-0.9,4.4-1.3,5.1c0.8,2.7-2.3,7-2.4,7.2l-0.1,0.1
						C682.8,250.3,682.5,250.4,682.1,250.4z M679.2,248.3c0.7,0.5,2.6,1.7,3.4,1.2c0.3-0.5,3-4.5,2.2-6.7l-0.1-0.2l0.1-0.2
						c0.5-0.7,1.7-2.8,1.4-4.2c-0.8,0-2.6-0.1-3.6-0.9c-1.1,2.3-1.9,4.5-1.7,4.9l0.2,0.2l-0.2,0.2
						C680.2,243.7,678.6,246.8,679.2,248.3z"/>
				</g>
			</g>
			<g>
				<path d="M669.2,227.7c0.2,0.1,1.7,0.9,2.7,0.5l0.7-0.7l-0.6-0.3c-0.4,0.8-2,0.1-2.6-0.1L669.2,227.7L669.2,227.7z M669,232.5
					l-0.1,0.7c0.1,0,3.2,0.6,4.7-0.7l-0.4-0.5C671.9,233.1,669,232.5,669,232.5L669,232.5z M668.2,238.1l-0.4,0.5
					c0,0,3.6,2.7,5.9-0.2l-0.5-0.4C671.3,240.4,668.3,238.2,668.2,238.1L668.2,238.1z M654.3,238.9l0.1,0.4c0.1-0.1,3.2-1.3,3.4-3.6
					l-0.4,0C657.3,237.6,654.3,238.9,654.3,238.9z M656,241.7l0,0.4c0.1,0,2.9-0.2,3.4-2.3l-0.4-0.1
					C658.7,241.5,656.1,241.7,656,241.7L656,241.7z M656.6,244.7l0,0.4c0.1,0,3.3,0.2,4.3-1.6l-0.3-0.2
					C659.7,244.9,656.6,244.7,656.6,244.7L656.6,244.7z M680.4,242.7c0.1,0.1,1.4,1.4,3,1.4c0.8,0,1.5-0.4,2-1.1l-0.5-0.4
					c-0.5,0.5-1,0.8-1.6,0.9c-1.3,0-2.5-1.2-2.5-1.2L680.4,242.7L680.4,242.7z"/>
			</g>
		</g>
		<g>
			<g>
				<path class="st34" d="M774.6,254.2c-0.2,0.1-0.4,0.2-0.5,0.3L774.6,254.2z M785.7,251.3c-0.1-0.3-0.2-0.2-0.3-0.3
					c-0.2-0.2-0.3-0.7-0.5-0.9c-0.1-0.1-0.2,0-0.3,0l-0.8-1.8c0-0.1,0.1-0.2,0.1-0.3c0-0.2-0.1-0.3-0.1-0.5
					c-0.1-0.1-0.2-0.1-0.3-0.2c-0.1-0.2,0-0.6,0-0.8c0-0.2-0.1-0.3-0.1-0.6c0-0.2,0.1-0.5,0.1-0.7c0-0.1-0.2-0.4-0.2-0.5
					c-0.2-0.4-0.3-0.9-0.4-1.4c0-0.5,0.1-0.8,0.1-1.2c0-0.5-0.2-0.8-0.2-1.3c0-0.4,0.2-0.8,0.2-1.1c0.1-0.5,0.1-1.1,0-1.6
					c0-0.4-0.2-0.7-0.1-1.2c0-0.1,0.1-0.2,0.1-0.4l0-0.4v-0.7l0-0.7c0-0.2-0.1-0.4-0.1-0.5c0-0.3,0.2-0.4,0.1-0.7
					c0-0.2-0.1-0.3-0.1-0.5c-0.1-0.4,0-0.8-0.1-1.3c0-0.2-0.1-0.3-0.1-0.5c0-0.3,0.1-0.4,0.1-0.6c0-0.2,0.1-0.5,0-0.7
					c0-0.3-0.1-0.4-0.1-0.7l-0.1,3.2l-0.2-5.3l-4-2c0,0-0.3,7.7-0.3,8.7c0.1,1.1,0.4,8.4,0.3,9.3s-0.6,5.4-0.6,5.4s-2,1.4-2.7,3
					c-0.8,1.6-0.6,2.1-0.9,2.1l1.9-0.3l-1.4,1c0.3-0.1,0.6-0.1,0.9,0.1c0,0,0.2,0.2,0.3,0.2c0.1,0,0.2-0.2,0.3-0.2
					c0.3-0.1,0.5,0.5,0.8,0.4c0.2,0,0.4-0.2,0.5-0.4c0.1-0.1,0.1-0.4,0.2-0.5c0.1-0.1,0.3,0,0.4,0c0.3,0,0.6,0,0.9,0
					c0.4,0,0.7-0.6,1-0.9c0.3-0.3,0.6-0.4,0.9-0.4c0.4,0,0.7,0.4,1.1,0.4c0.3,0,0.5,0.1,0.7-0.3c0.2-0.2,0.3-0.5,0.4-0.8l1-0.2
					c0.2,0.1,0.4,0.2,0.5,0.2c0.2,0,0.5,0,0.7,0c0.1,0,0.3,0.2,0.3,0.2c0.1,0,0.1-0.3,0.2-0.4C785.8,251.7,785.8,251.4,785.7,251.3
					L785.7,251.3z"/>
				<path d="M776.8,254.9c-0.2,0-0.4-0.2-0.5-0.3c-0.1-0.1-0.2-0.2-0.2-0.2c0,0,0,0,0,0.1c-0.1,0.1-0.2,0.2-0.3,0.2
					c-0.1,0-0.1,0-0.4-0.3c-0.2-0.2-0.4-0.2-0.7-0.1l-0.5,0.3l-0.3-0.3c0.1-0.2,0.3-0.3,0.5-0.4l0.7-0.5l-0.9,0.1c0,0-0.1,0-0.1,0
					l0-0.4c0,0,0,0,0,0c0,0,0.1-0.2,0.1-0.3c0.1-0.3,0.2-0.9,0.7-1.8c0.7-1.5,2.4-2.8,2.7-3.1c0.1-0.7,0.4-4.5,0.6-5.3
					c0.2-0.9-0.2-8.2-0.3-9.2c-0.1-1.1,0.2-8.5,0.3-8.8l0-0.3l4.4,2.2l0.1,2.3l0.2,0l0,0.1c0,0.1,0,0.2,0.1,0.2
					c0,0.1,0.1,0.2,0.1,0.3c0,0.2,0,0.5,0,0.7c0,0.1,0,0.1,0,0.2c0,0.1,0,0.2,0,0.3c0,0.1,0,0.2,0.1,0.3c0,0.1,0,0.1,0.1,0.3
					c0,0.2,0,0.4,0,0.6c0,0.2,0,0.4,0.1,0.7l0,0.1c0,0.1,0.1,0.2,0.1,0.4c0,0.2,0,0.4-0.1,0.5c0,0.1,0,0.1,0,0.2c0,0,0,0.1,0,0.2
					c0,0.1,0.1,0.2,0.1,0.3l0,1.5l0,0.4c0,0.1,0,0.2-0.1,0.3c0,0,0,0.1,0,0.1c0,0.3,0,0.5,0,0.7c0,0.1,0,0.3,0.1,0.4
					c0,0.5,0,1.2,0,1.6c0,0.1-0.1,0.3-0.1,0.4c-0.1,0.2-0.1,0.4-0.1,0.6c0,0.2,0,0.3,0.1,0.5c0.1,0.2,0.1,0.4,0.1,0.8
					c0,0.2,0,0.3-0.1,0.4c0,0.2-0.1,0.5-0.1,0.8c0,0.5,0.2,0.9,0.3,1.4l0,0.1c0.1,0.2,0.2,0.4,0.2,0.5c0,0.1,0,0.3-0.1,0.4
					c0,0.1-0.1,0.2-0.1,0.3c0,0.1,0,0.2,0,0.3c0,0.1,0,0.1,0,0.2c0,0.1,0,0.2,0,0.3c0,0.1,0,0.3,0,0.4l0,0c0.1,0,0.1,0.1,0.2,0.2
					l0,0c0.1,0.2,0.1,0.3,0.1,0.5c0,0.1,0,0.2,0,0.3l0.7,1.6c0.1,0,0.3,0,0.4,0.1c0.1,0.1,0.2,0.3,0.3,0.5c0.1,0.2,0.1,0.4,0.2,0.4
					c0,0,0,0,0.1,0c0,0,0.1,0,0.1,0l0.1-0.1l0.2,0.4c0,0.1,0.1,0.3,0.1,0.5l0,0.2l0,0.1c0,0,0,0.1-0.1,0.2c-0.1,0.2-0.1,0.3-0.2,0.3
					c-0.2,0.1-0.4,0-0.5-0.1c0,0-0.1,0-0.1-0.1c-0.1,0-0.3,0-0.5,0l-0.2,0c-0.2,0-0.4-0.1-0.6-0.2l-0.8,0.1c0,0.1-0.1,0.2-0.1,0.3
					c-0.1,0.2-0.2,0.3-0.3,0.4c-0.3,0.4-0.6,0.4-0.8,0.4l-0.1,0c-0.2,0-0.5-0.1-0.7-0.2c-0.2-0.1-0.3-0.2-0.5-0.2
					c-0.3,0-0.5,0.1-0.8,0.3c-0.1,0.1-0.2,0.2-0.3,0.3c-0.2,0.3-0.5,0.6-0.9,0.6c-0.2,0-0.4,0-0.6,0l-0.3,0c-0.1,0-0.1,0-0.2,0
					c0,0-0.1,0-0.2,0c0,0,0,0.1,0,0.2c0,0.1-0.1,0.2-0.1,0.3C777.4,254.7,777.1,254.9,776.8,254.9
					C776.9,254.9,776.8,254.9,776.8,254.9z M776.1,254.1c0.2,0,0.4,0.2,0.5,0.3c0.1,0.1,0.2,0.2,0.2,0.2c0.1,0,0.2-0.1,0.3-0.3
					c0,0,0.1-0.1,0.1-0.2c0-0.1,0.1-0.2,0.2-0.3c0.1-0.1,0.4-0.1,0.5-0.1c0,0,0.1,0,0.1,0l0.3,0c0.2,0,0.4,0,0.6,0
					c0.2,0,0.4-0.2,0.6-0.5c0.1-0.1,0.2-0.3,0.3-0.4c0.4-0.3,0.7-0.4,1.1-0.4c0.2,0,0.4,0.1,0.6,0.2c0.2,0.1,0.3,0.2,0.5,0.2l0.1,0
					c0.2,0,0.3,0,0.5-0.2c0.1-0.1,0.1-0.2,0.2-0.4c0.1-0.1,0.1-0.3,0.2-0.4l0.1-0.1l1.1-0.2l0.1,0c0.2,0.1,0.3,0.1,0.4,0.1
					c0,0,0,0,0,0l0.2,0c0.2,0,0.4,0,0.6,0c0.1,0,0.1,0.1,0.2,0.1c0,0,0,0,0,0c0-0.1,0-0.1,0.1-0.1l0,0c0-0.1,0-0.3-0.1-0.3l0,0
					c0-0.1,0-0.1,0-0.1c-0.1,0-0.1,0-0.2-0.1c-0.1-0.1-0.2-0.4-0.3-0.6c-0.1-0.1-0.1-0.3-0.2-0.4c-0.1,0-0.1,0.1-0.2,0l-0.1,0
					l-0.9-2l0.1-0.1c0,0,0-0.1,0-0.2c0-0.1-0.1-0.2-0.1-0.4c-0.1,0-0.2-0.1-0.3-0.3c-0.1-0.2-0.1-0.4-0.1-0.6c0-0.1,0-0.2,0-0.3
					c0-0.1,0-0.1,0-0.2c0-0.1-0.1-0.2-0.1-0.4c0-0.1,0-0.3,0.1-0.4c0-0.1,0.1-0.2,0.1-0.3c0-0.1-0.1-0.3-0.1-0.4l0-0.1
					c-0.2-0.5-0.3-0.9-0.4-1.5c0-0.3,0-0.6,0.1-0.9c0-0.1,0-0.3,0.1-0.4c0-0.2,0-0.4-0.1-0.6c-0.1-0.2-0.1-0.4-0.1-0.6
					c0-0.2,0.1-0.5,0.1-0.7c0-0.1,0.1-0.3,0.1-0.4c0.1-0.4,0.1-1,0-1.5c0-0.1,0-0.3-0.1-0.4c0-0.2-0.1-0.5,0-0.9c0-0.1,0-0.1,0-0.2
					c0-0.1,0-0.1,0-0.2l0-1.1l0-0.7c0,0,0-0.1-0.1-0.2c0-0.1-0.1-0.2-0.1-0.3c0-0.1,0-0.3,0.1-0.4c0-0.1,0.1-0.2,0.1-0.3
					c0-0.2,0-0.2-0.1-0.3l0-0.2c-0.1-0.2-0.1-0.4-0.1-0.6h-0.2l-0.2-5.2l-3.6-1.8c-0.1,1.5-0.3,7.5-0.2,8.4c0.1,0.9,0.4,8.4,0.3,9.3
					c-0.2,0.9-0.6,5.3-0.6,5.3l0,0.1l-0.1,0.1c0,0-1.9,1.4-2.7,3c-0.4,0.8-0.5,1.4-0.6,1.7c0,0,0,0,0,0.1l2.4-0.4l-1.6,1.1
					c0.1,0,0.2,0.1,0.3,0.2c0,0,0.1,0.1,0.1,0.1c0.1-0.1,0.1-0.1,0.2-0.2C776,254.1,776,254.1,776.1,254.1z"/>
			</g>
			<g>
				<path class="st34" d="M777.6,254c0.2,0,0.5-0.1,0.7,0.1l0.1,0.2c0.1,0,0.1,0.1,0.2,0c0.1,0.1,0.2,0.1,0.3,0.2c0.1,0,0.3,0,0.4,0
					c0.2,0,0.3,0.1,0.4,0.1c0.3,0.1,0.5,0,0.7-0.2c0.3-0.2,0.4-0.1,0.7,0.2c0.2,0.2,0.2,0.2,0.4,0c0-0.1,0.1-0.1,0.1-0.2
					c0.1,0,0.2-0.1,0.3-0.1c0.2-0.1,0.3-0.1,0.5-0.1c0.2-0.1,0.3-0.2,0.4-0.2c0.1,0,0.3,0.1,0.4,0.2c0.1,0,0.2,0.1,0.3,0.2
					c0.2-0.4,0.6-0.5,0.9-0.7c0.3-0.2,0.5,0,0.9,0c0.2,0,0.2-0.1,0.3-0.1c0.1,0,0.3,0,0.4,0c0.1-0.1,0.2-0.2,0.3-0.2
					c0.3,0,0.6,0.4,0.9,0.5c0.2,0.1,0.9,0.2,0.8-0.3c-0.1-0.5-0.5-0.2-0.6-0.5c-0.1-0.2,0.1-0.5,0-0.7c-0.1-0.2-0.3-0.5-0.4-0.5
					c-0.2-0.1-0.3,0.1-0.4,0c-0.1-0.1-0.2-0.5-0.3-0.7c-0.1,0.1-0.2,0.2-0.4,0.2c-0.2-0.1-0.2-0.1-0.3-0.3c-0.3-0.4-0.5,0.3-0.8,0.2
					c-0.2-0.1-0.5-0.7-0.6-0.9c-0.1-0.1-0.4-0.6-0.5-0.5c-0.2,0.2,0,0.6-0.1,0.8c-0.1,0.1-0.4,0-0.5,0c-0.2,0-0.2,0.1-0.3,0.3
					c-0.3,0.5-0.4,0.8-0.8,0.8c-0.2,0-0.3-0.2-0.5-0.2c-0.2,0.1-0.3,0.3-0.5,0.3c-0.2,0-0.3,0-0.5,0c-0.2-0.1-0.3-0.4-0.5-0.5
					c-0.1,0-0.1-0.1-0.2,0c0,0-0.2-0.1-0.2-0.1c-0.2-0.1-0.2-0.1-0.3,0.3c-0.1,0.2-0.1,0.4-0.2,0.6c-0.1,0.2-0.2,0.4-0.3,0.5
					c-0.2,0.2-0.3,0.1-0.5,0.2c-0.2,0.1-0.4,0.4-0.5,0c-0.1-0.6,0.4-1.4-0.2-1.3c-0.2,0-0.3,0.1-0.4,0.3c-0.1,0.3,0,0.5-0.1,0.8
					c-0.1,0.4-0.8,1-0.6,1.4c0.1,0.2,0.4-0.1,0.5-0.1c0.1,0.1,0.1,0.4,0.2,0.5c0.2,0.3,0.9-0.5,0.9-0.1 M775,251c0,0,0-0.1,0-0.1
					c-0.2,0-0.4-0.2-0.5-0.2c-0.1,0-0.4,0.4-0.5,0.5c-0.3,0.5-0.2,1.3-0.8,1.3c-0.1,0-0.4-0.1-0.5,0c-0.2,0.1-0.1,0.6-0.1,0.9
					c0,0.3,0.1,0,0,0.4c0,0.1-0.2,0.1-0.2,0.3c-0.1,0.5,0.3,0.3,0.4,0.3h1.3c0.3,0,0.4-0.1,0.6-0.2c0.2-0.1,0.5-0.1,0.6-0.2
					c0-0.1,0.2-0.4,0.2-0.5c0-0.2,0-0.4,0-0.5c0.1-0.3,0.3-0.2,0.3-0.5c0.1-0.9-0.8-0.2-0.6-1.1"/>
				<path d="M781.3,255.1c-0.1,0-0.2-0.1-0.3-0.2l-0.1-0.1c-0.2-0.2-0.2-0.2-0.3-0.1c-0.2,0.2-0.5,0.4-0.9,0.2l-0.1-0.1
					c-0.1,0-0.1-0.1-0.2-0.1c0,0,0,0,0,0c0,0-0.1,0-0.1,0c-0.1,0-0.2,0-0.3,0c-0.2,0-0.2-0.1-0.3-0.2c0,0,0,0,0,0
					c-0.1,0-0.2,0-0.3-0.1l-0.1-0.1l-0.1-0.2c-0.1-0.1-0.2-0.1-0.3-0.1c0,0,0,0.1,0,0.1l-0.4,0c0,0,0.1,0.1,0.1,0
					c0,0-0.1,0.1-0.2,0.1c-0.2,0.1-0.6,0.3-0.8,0c-0.1-0.1-0.1-0.2-0.1-0.3c0,0,0,0,0-0.1c-0.1,0.1-0.3,0.1-0.4,0.1
					c-0.1,0-0.2-0.1-0.2-0.2c-0.1-0.3,0.1-0.7,0.3-1c0.1-0.2,0.3-0.4,0.3-0.5c0-0.1,0-0.2,0-0.3c0-0.2,0-0.3,0.1-0.5
					c0.1-0.2,0.3-0.4,0.5-0.4c0.2,0,0.3,0,0.4,0.1c0.2,0.2,0.1,0.4,0.1,0.7c0,0.2-0.1,0.5,0,0.6c0,0,0,0,0,0c0,0,0,0,0.1,0
					c0.1,0,0.1-0.1,0.2-0.1c0.1,0,0.1,0,0.2,0c0.1,0,0.1,0,0.2-0.1c0.1-0.2,0.2-0.3,0.3-0.4c0-0.1,0.1-0.2,0.1-0.3
					c0-0.1,0-0.2,0.1-0.3l0-0.1c0.1-0.2,0.1-0.3,0.2-0.4c0.1-0.1,0.2,0,0.3,0c0,0,0.1,0,0.2,0.1l0,0c0.1,0,0.2,0,0.3,0.1
					c0.1,0,0.1,0.1,0.2,0.2c0.1,0.1,0.1,0.2,0.2,0.2c0.1,0,0.3,0,0.4,0c0.1,0,0.1-0.1,0.2-0.1c0.1-0.1,0.2-0.1,0.3-0.2
					c0.2-0.1,0.4,0,0.5,0.1c0.1,0,0.1,0.1,0.1,0.1c0.2,0,0.3-0.1,0.5-0.5l0.1-0.1c0.1-0.2,0.2-0.4,0.5-0.4c0.1,0,0.2,0,0.3,0
					c0,0,0.1,0,0.1,0c0-0.1,0-0.1,0-0.2c0-0.2,0-0.5,0.2-0.7c0.3-0.2,0.6,0.2,0.8,0.5l0,0.1c0.1,0.1,0.1,0.2,0.2,0.4
					c0.1,0.2,0.2,0.5,0.3,0.5c0,0,0.1-0.1,0.1-0.1c0.1-0.1,0.2-0.2,0.4-0.2c0.1,0,0.2,0.1,0.4,0.2c0,0.1,0.1,0.1,0.1,0.2
					c0,0.1,0,0.1,0.1,0.1c0.1,0,0.1,0,0.2-0.1l0.2-0.2l0.1,0.2c0.1,0.1,0.1,0.2,0.1,0.4c0,0.1,0.1,0.2,0.1,0.3c0.1,0,0.2-0.1,0.3,0
					c0.2,0.1,0.5,0.4,0.5,0.6c0,0.2,0,0.3,0,0.5c0,0.1,0,0.2,0,0.3c0,0,0.1,0,0.1,0c0.2,0,0.5,0.1,0.5,0.5c0.1,0.3,0,0.4-0.1,0.5
					c-0.3,0.3-0.9,0.1-0.9,0.1c-0.2,0-0.3-0.2-0.4-0.3c-0.1-0.1-0.3-0.2-0.3-0.2c0,0,0,0,0,0c0,0,0,0,0,0c0,0-0.1,0.1-0.2,0.2
					c-0.1,0-0.2,0-0.3,0c0,0-0.1,0-0.1,0c0,0,0,0-0.1,0c-0.1,0-0.2,0.1-0.3,0.1c-0.1,0-0.3,0-0.4-0.1c-0.2-0.1-0.3-0.1-0.4,0
					c-0.1,0.1-0.2,0.1-0.3,0.2c-0.2,0.1-0.4,0.2-0.5,0.5l-0.1,0.2l-0.2-0.2c-0.1-0.1-0.1-0.1-0.2-0.1c-0.1,0-0.1-0.1-0.2-0.1
					c-0.1,0-0.1-0.1-0.2-0.1c0,0-0.1,0-0.1,0.1c-0.1,0-0.1,0.1-0.2,0.1c-0.1,0-0.2,0-0.2,0.1c-0.1,0-0.1,0-0.2,0.1l-0.1,0
					c-0.1,0-0.1,0-0.2,0c0,0,0,0.1,0,0.1l0,0.1l-0.1,0.1C781.4,255.1,781.4,255.1,781.3,255.1z M780.7,254.2c0.2,0,0.4,0.2,0.5,0.3
					l0.1,0.1c0,0,0,0,0,0c0,0,0-0.1,0.1-0.1l0-0.1l0.1,0c0.1,0,0.2-0.1,0.3-0.1c0.1,0,0.2-0.1,0.3-0.1c0.1,0,0.1,0,0.2,0
					c0,0,0.1,0,0.1-0.1c0.1-0.1,0.2-0.2,0.4-0.1c0.1,0,0.2,0.1,0.3,0.1c0.1,0,0.1,0.1,0.2,0.1c0.1,0,0.1,0,0.2,0.1
					c0.2-0.2,0.4-0.4,0.6-0.5c0.1,0,0.2-0.1,0.2-0.1c0.3-0.2,0.5-0.1,0.7-0.1c0.1,0,0.2,0.1,0.4,0c0,0,0.1-0.1,0.2-0.1
					c0.1,0,0.2,0,0.3,0c0,0,0.1,0,0.1,0c0,0,0,0,0.1-0.1c0.1-0.1,0.1-0.1,0.3-0.2c0.2,0,0.5,0.2,0.7,0.3c0.1,0.1,0.2,0.2,0.3,0.2
					c0.2,0.1,0.4,0.1,0.5,0c0,0,0-0.1,0-0.1c0-0.1,0-0.1-0.2-0.2c-0.1,0-0.4-0.1-0.5-0.4c0-0.1,0-0.3,0-0.4c0-0.1,0-0.2,0-0.3
					c0-0.1-0.2-0.3-0.3-0.4c0,0,0,0-0.1,0c-0.1,0-0.3,0.1-0.4-0.1c-0.1-0.1-0.2-0.3-0.2-0.5c0,0,0,0,0-0.1c-0.1,0-0.2,0.1-0.3,0
					c-0.2-0.1-0.3-0.1-0.4-0.3c0,0,0-0.1-0.1-0.1c0-0.1-0.1-0.1-0.1-0.1c0,0-0.1,0.1-0.1,0.1c-0.1,0.1-0.3,0.3-0.6,0.2
					c-0.2-0.1-0.4-0.4-0.6-0.7c-0.1-0.1-0.1-0.2-0.2-0.3l0-0.1c-0.1-0.1-0.2-0.2-0.2-0.3c0,0.1,0,0.1,0,0.2c0,0.2,0,0.3-0.1,0.5
					c-0.1,0.2-0.4,0.2-0.6,0.1c0,0-0.1,0-0.1,0c-0.1,0-0.1,0-0.2,0.2l-0.1,0.1c-0.2,0.4-0.5,0.8-1,0.7c-0.1,0-0.2-0.1-0.3-0.1
					c-0.1,0-0.1-0.1-0.1-0.1c-0.1,0-0.1,0.1-0.2,0.1c-0.1,0.1-0.2,0.2-0.4,0.2c-0.2,0-0.4,0-0.6-0.1c-0.1-0.1-0.2-0.2-0.3-0.3
					c-0.1-0.1-0.1-0.1-0.2-0.2l-0.1,0l-0.2-0.1c0,0-0.1-0.1-0.1-0.1c0,0,0,0,0,0c0,0,0,0,0,0.1l0,0.1c0,0.1,0,0.2-0.1,0.2
					c0,0.1-0.1,0.3-0.1,0.4c-0.1,0.2-0.3,0.4-0.4,0.5c-0.2,0.2-0.3,0.2-0.4,0.2c0,0-0.1,0-0.1,0c0,0-0.1,0-0.1,0.1
					c-0.1,0.1-0.3,0.2-0.4,0.1c-0.1,0-0.2-0.2-0.2-0.3c-0.1-0.3,0-0.6,0-0.8c0-0.1,0-0.2,0-0.3c0,0,0,0,0,0c-0.1,0-0.2,0.1-0.2,0.2
					c-0.1,0.2-0.1,0.2,0,0.4c0,0.1,0,0.2,0,0.4c0,0.2-0.2,0.4-0.3,0.7c-0.1,0.1-0.2,0.4-0.3,0.5c0,0,0,0,0,0
					c0.1-0.1,0.3-0.2,0.4-0.1c0.2,0.1,0.2,0.3,0.2,0.4c0,0.1,0,0.1,0.1,0.2c0,0,0.1-0.1,0.2-0.1c0.2-0.1,0.3-0.2,0.5-0.1v-0.2
					c0,0,0.1,0,0.1,0c0.2,0,0.5,0,0.7,0.2l0,0.1l0.1,0.1l0.1,0l0.1,0.1c0,0,0.1,0.1,0.1,0.1c0.1,0,0.1,0.1,0.1,0.1
					c0.1,0,0.1,0,0.2,0c0.1,0,0.1,0,0.2,0c0.2,0,0.3,0.1,0.4,0.1l0.1,0c0.2,0.1,0.3,0,0.5-0.2C780.5,254.2,780.6,254.2,780.7,254.2z
					 M772.5,254.4c-0.1,0-0.2,0-0.3-0.1c-0.1-0.2-0.1-0.4-0.1-0.5c0-0.1,0.1-0.2,0.2-0.3c0-0.1,0.1-0.1,0.1-0.1c0-0.1,0-0.1,0-0.2
					c0-0.1,0-0.2,0-0.2c0-0.3-0.1-0.6,0.2-0.8c0.2-0.1,0.4-0.1,0.6,0c0.1,0,0.1,0,0.1,0c0.1,0,0.2-0.1,0.3-0.5
					c0.1-0.2,0.1-0.4,0.2-0.7c0,0,0.4-0.6,0.7-0.6c0,0,0,0,0,0c0.1,0,0.3,0.1,0.4,0.1c0.1,0,0.1,0.1,0.2,0.1l0.2,0l0,0.2
					c0,0,0,0.1,0,0.1l-0.3,0l0,0.1c-0.1,0-0.1,0-0.2-0.1l0,0c-0.1,0-0.1-0.1-0.2-0.1c-0.1,0-0.1-0.1-0.2-0.1c0,0-0.3,0.3-0.4,0.4
					c-0.1,0.2-0.2,0.4-0.2,0.6c-0.1,0.4-0.2,0.8-0.7,0.8c-0.1,0-0.1,0-0.2,0c-0.1,0-0.2,0-0.3,0c0,0,0,0.3,0,0.4c0,0.1,0,0.2,0,0.3
					c0,0,0,0,0,0h0c0.1,0.1,0,0.2,0,0.4c0,0.1-0.1,0.1-0.1,0.2c0,0,0,0,0,0c0,0,0,0.1,0,0.1c0,0,0.1,0,0.1,0c0,0,0.1,0,0.1,0h1.3
					c0.2,0,0.3,0,0.4-0.1l0.1-0.1c0.1,0,0.2,0,0.2-0.1c0.1,0,0.3,0,0.3-0.1c0,0,0.2-0.4,0.2-0.4c0,0,0-0.1,0-0.2c0-0.1,0-0.2,0-0.3
					c0-0.2,0.2-0.3,0.2-0.3c0.1,0,0.1-0.1,0.1-0.2c0-0.3,0-0.3-0.2-0.3c-0.2-0.1-0.6-0.2-0.5-0.8l0.4,0.1c0,0.2,0,0.2,0.2,0.3
					c0.2,0.1,0.6,0.2,0.5,0.8c0,0.3-0.2,0.4-0.3,0.5c-0.1,0-0.1,0-0.1,0.1c0,0,0,0.1,0,0.2c0,0.1,0,0.2,0,0.3c0,0.1-0.2,0.5-0.3,0.6
					c-0.1,0.2-0.4,0.2-0.6,0.2c-0.1,0-0.1,0-0.2,0l-0.1,0c-0.2,0.1-0.4,0.2-0.6,0.1h-1.3c0,0,0,0-0.1,0
					C772.6,254.4,772.6,254.4,772.5,254.4z M772.5,254L772.5,254L772.5,254z"/>
			</g>
		</g>
		<g>
			<g>
				<path d="M785.2,226.7c0,1.1-0.7,2-1.7,2c-0.9,0-1.7-0.9-1.7-2c0-1.1,0.8-2,1.7-2C784.4,224.7,785.2,225.6,785.2,226.7z
					 M779.7,224.2c0,1.1-0.7,2-1.7,2s-1.7-0.9-1.7-2s0.7-2,1.7-2S779.7,223.1,779.7,224.2z"/>
				<path d="M783.5,229.1c-1.1,0-2.1-1.1-2.1-2.4c0-1.3,0.9-2.4,2.1-2.4c1.1,0,2.1,1.1,2.1,2.4C785.6,228,784.6,229.1,783.5,229.1z
					 M783.5,225.1c-0.7,0-1.3,0.7-1.3,1.7c0,0.9,0.6,1.7,1.3,1.7c0.7,0,1.3-0.7,1.3-1.7C784.8,225.8,784.2,225.1,783.5,225.1z
					 M778,226.6c-1.1,0-2.1-1.1-2.1-2.4c0-1.3,0.9-2.4,2.1-2.4c1.1,0,2.1,1.1,2.1,2.4C780.1,225.5,779.2,226.6,778,226.6z
					 M778,222.5c-0.7,0-1.3,0.7-1.3,1.7s0.6,1.7,1.3,1.7c0.7,0,1.3-0.7,1.3-1.7S778.7,222.5,778,222.5z"/>
			</g>
			<g>
				<path d="M782.6,225c0,1.1-0.7,2-1.7,2c-0.9,0-1.7-0.9-1.7-2c0-1.1,0.7-2,1.7-2C781.8,222.9,782.6,223.8,782.6,225z"/>
				<path d="M780.9,227.4c-1.1,0-2.1-1.1-2.1-2.4c0-1.3,0.9-2.4,2.1-2.4c1.1,0,2.1,1.1,2.1,2.4C783,226.3,782.1,227.4,780.9,227.4z
					 M780.9,223.3c-0.7,0-1.3,0.7-1.3,1.7s0.6,1.7,1.3,1.7c0.7,0,1.3-0.7,1.3-1.7S781.6,223.3,780.9,223.3z"/>
			</g>
			<g>
				<path d="M779.8,226.8c0,1.1-0.8,2-1.7,2s-1.7-0.9-1.7-2s0.7-2,1.7-2S779.8,225.7,779.8,226.8z"/>
				<path d="M778.1,229.3c-1.1,0-2.1-1.1-2.1-2.4c0-1.3,0.9-2.4,2.1-2.4c1.1,0,2.1,1.1,2.1,2.4C780.2,228.2,779.3,229.3,778.1,229.3
					z M778.1,225.2c-0.7,0-1.3,0.7-1.3,1.7c0,0.9,0.6,1.7,1.3,1.7c0.7,0,1.3-0.7,1.3-1.7C779.4,225.9,778.8,225.2,778.1,225.2z"/>
			</g>
			<g>
				<path d="M782.4,228.4c0,1.1-0.8,2-1.7,2c-0.9,0-1.7-0.9-1.7-2c0-1.1,0.8-2,1.7-2S782.4,227.3,782.4,228.4z"/>
				<path d="M780.7,230.8c-1.1,0-2.1-1.1-2.1-2.4c0-1.3,0.9-2.4,2.1-2.4c1.1,0,2.1,1.1,2.1,2.4C782.8,229.7,781.9,230.8,780.7,230.8
					z M780.7,226.8c-0.7,0-1.3,0.7-1.3,1.6c0,0.9,0.6,1.7,1.3,1.7c0.7,0,1.3-0.8,1.3-1.7C782,227.5,781.4,226.8,780.7,226.8z"/>
			</g>
		</g>
		<g>
			<path class="st33" d="M783.2,206.1c0,0,16.8-24.3,34.9,0.9c0,0,0.2,2.5-1.5,5.2l-0.5-2l-1.1,0.3l-0.3-1.3l-2-0.2l0.6-2.7
				l-2.1,1.7l0.3-1.9l-2.4,2.5l0.3-5.3l-2.6,4.6l0.3-3.1l-0.9,1.4l-0.5-1.8l-0.8,1.8l-1.2-0.9v1.3l-2.1-1.9l-0.8,2.5l-1.1-2.7
				l-0.3,1.9l-1.1-2.2l-0.1,2.4l-3.5-1.6l0.8,2.2l-1.7-1.3l0.3,1.3l-2.3-0.5l0.1,1.4l-2.4-0.5l0.5,1.3l-3.3-0.5l1.2,1.4l-0.3,0.6
				c0,0,18.2-6.2,19.5,17.3l-3.3,1.7l0.9-1.9l-0.9-0.6l-2.7-2.2l0.8-3l-0.9,0.3l-0.2-1.7l-0.5,0.3l-1.1-1.7l-0.3,0.6l-0.8-2
				l-0.8,1.4l-0.5-3.5l-1.2,2.2l-0.2-1.3l-0.5,0.8l-1.5-1.9l-0.5,1.3l-0.6-0.9l-0.5,1.1l-1.7-1.6v1.3l-1.1-0.9l-0.5,0.6l-2.6-1.4
				l-0.2,1.3l-1.4-1.3l-0.5,1.3c0,0,16.5,9.7,11.4,25.6l-0.9,2l-0.3-5.3l-1.5,2.8l1.1-6.1l-1.1,1.1l-0.2-2.4l-1.4,2.4l-0.5-2.7
				l-0.6,0.8l-0.9-4.1l-0.8,1.7l-1.2-4.6l-0.9,1.9l-0.6-3.9l-0.6,2.4l-1.8-3.5l-0.3,1.4l-1.1-2.8l-0.6,0.9c0,0-3-0.2-3.9-0.9
				c-0.9-0.8-3.5,4.7-3.5,4.7l0.3-3.3l-1.1,2.2v-2.2l-2,6.6l-0.5-4.7l-1.1,4.1l-0.5-1.3l-0.3,1.7l-0.6-0.6l-0.5,1.9l-1-0.8v2.5
				l-0.9-1.3l-0.8,3.8l-0.5-1.6v1.7l-0.8-0.9l-0.8,3.8l-1.1-1.6l-0.1,2.7l0.5,2l-1.2-0.6l0.5,3.3c0,0-4.7-9.1,0.9-17.9
				c5.6-8.8,13.2-11.1,13.2-11.1l-0.8-0.8l-0.2-0.8l-4.6,2.4l0.2-1.4l-1.2,1.1l-0.3-1.6l-0.8,1.4l-0.1-0.6l-1.1,1.7l-0.6-2.5l-0.8,3
				l-0.7-2.1l-1.6,4.4v-3.3l-1.2,3.5l-0.5-3.8l-0.9,4.4V217l-1.4,3.9l-0.9-3.8l-0.6,3.6l-0.9-2.8l-0.9,4.2l-1.4-3.8l-0.8,5.7
				l-0.9-2.2l-0.2,4.1l-1.1-2.5l1.1,5.3l-1.4-2l0.5,3.3l-2-3.6l0.2,4.2l-1.1-1.4l-0.5,1.6c0,0-0.5-16.3,10.3-19.5
				c10.8-3.1,17.8,0.9,17.8,0.9l-4.1-3.5l0.5-1.1h-1.5l0.6-1.3l-3.2,0.2l0.9-1.3l-2.4,0.3v-0.8l-1.5,1.3l0.6-1.4l-2.1,1.4l-0.1-2.1
				l-1.1,1.8l-0.6-1.9l-4.9,5l1.4-5.2l-0.9,1.1l-0.2-1.1l-1.4,2.2l-0.3-1.6l-0.6,1.9l-0.5-2.2l-1.1,2.2l-1.1-2l-0.5,2.7l-0.8-1.4
				l-0.9,2l-1.2-1.3l-0.2,1.3l-2.4-1.1l0.6,1.9l-1.8-1.6l-0.5,2.5l-1.1-1.3l-0.8,3.1l-0.8-3l-0.8,2.4c0,0,9.5-25.2,33.5-8.8
				c0,0,2.6,2.6,3.2,4.5s0.2,0.3,0.2,0.3l-0.5-17.4l0.9,7.5l0.6-2.7l-0.2,3.9l2.4-5.5c0,0-2.9,9.1-1.8,12.4c0,0,1.1-10.5,4.7-11.8
				l-3.3,7.5l1.1-0.2l-0.8,1.6h0.9l-1.1,2.5l-0.6,1.3l0.6,1.3L783.2,206.1L783.2,206.1z"/>
			<path d="M794.4,245.3l-0.3-5.6l-0.9,1.6l-0.7-0.3l0.8-4.9l-0.8,0.8l-0.1-2l-1.3,2.2l-0.5-2.8l-0.6,0.7l-0.8-3.7l-0.7,1.7
				l-1.2-4.6l-1,2.1l-0.5-3.3l-0.4,1.5l-1.8-3.4l-0.4,1.7l-1.3-3.3l-0.3,0.5l-0.2,0c-0.3,0-3.2-0.2-4.2-1c-0.4,0.1-1.8,2.2-2.9,4.6
				l-0.7-0.2l0.1-1.2l-0.9,1.8v-1.2l-1.2,4l-0.8-0.1l-0.2-2.5l-0.8,3.2l-0.4-1.1l-0.2,1l-0.7-0.7l-0.5,1.8l-0.8-0.6v2.9l-1.1-1.5
				l-0.9,4.5l-0.1-0.5v0.1l-0.9-1.2l-0.8,3.9l-0.9-1.4l-0.1,1.5l0.6,2.8l-1.3-0.7l0.4,2.5l-0.7,0.2c0-0.1-4.7-9.4,0.9-18.3
				c4.8-7.5,10.9-10.4,12.8-11.1l-0.4-0.4l-0.1-0.4l-4.7,2.4l0.1-1.1l-1,0.9l-0.2-1.2l-0.7,1.4l-0.2-0.7l-1.1,1.7l-0.5-1.9l-0.7,2.7
				l-0.8-2.3l-1.2,3.4l-0.8-0.1v-1l-1,2.9l-0.4-3.1l-0.4,2.1l-0.8-0.1v-1.6l-1,3l-0.8-3.2l-0.6,3.3l-1-3l-0.9,4.1L755,220l-0.7,5.5
				l-0.8-1.9l-0.2,4.1l-0.3-0.6l0.3,1.6l-0.7,0.3l-0.4-0.6l0.2,1.6l-0.7,0.2l-1.2-2.2l0.1,3.8l-1.3-1.8l-0.2,0.8l-0.8-0.1
				c0-0.2-0.3-16.7,10.6-19.9c7.2-2.1,12.7-1,15.6-0.1l-2.3-2l0.3-0.8H771l0.6-1.2l-3.3,0.2l0.9-1.2l-2,0.3v-0.4l-2.1,1.8l0.7-1.7
				l-1.6,1.1l-0.1-1.5l-0.9,1.4l-0.7-2.1l-5.4,5.6l1.3-4.9l-0.3,0.4l-0.1-0.9l-1.3,2.1l-0.2-1.1l-0.6,1.8l-0.5-2.5l-0.9,1.9
				l-0.9-1.7l-0.4,2.6l-0.9-1.7l-0.8,1.8l-1-1.1l-0.1,1l-2.1-1l0.8,2.4l-2.4-2l-0.5,2.7l-1.1-1.3l-0.9,3.9l-0.8-3
				c-0.3,0.6-0.4,0.9-0.4,0.9l-0.7-0.3l1.2-3.6l0.2,0.8c1.9-3.4,5.9-9,12.3-11c6.1-1.9,12.9-0.3,20.4,4.9c0.1,0.1,1.7,1.7,2.7,3.4
				l-0.4-15.6l0.8-0.1l0.6,5.3l0.1-0.5l0.8,0.1l-0.1,1.9l1.6-3.6l0.7,0.3c0,0.1-1.3,4.1-1.8,7.7c0.7-3.1,2-6.8,4.2-7.6l0.8-0.3
				l-3.4,7.7l1.1-0.2l-0.8,1.7h0.9l-1.8,4.2l0.3,0.6l0.5-0.5c0.5-0.7,7.6-10.6,17.6-10.7c0,0,0.1,0,0.1,0c6.3,0,12.3,3.9,17.8,11.7
				l0.1,0.1l0,0.1c0,0.1,0.1,2.7-1.6,5.4l-0.5,0.8l-0.6-2.6l-1.1,0.3l-0.3-1.4l-2.1-0.2l0.5-2l-2,1.7l0.3-1.7l-2.3,2.4l0.3-4.7
				l-1.8,3.1l-0.7-0.2l0.1-1.5l-0.5,0.8l-0.5-1.6l-0.6,1.3l-1-0.8v1.3l-2.3-2.1l-0.9,3l-1-2.4l-0.3,1.7l-1-2l-0.1,1.4l-3.2-1.4
				l0.9,2.6l-1.8-1.4l0.2,0.8l-2.4-0.5l0.1,1.4l-2.3-0.4l0.4,1.2l-3-0.4l0.7,0.8c2.1-0.5,7.5-1.4,12.1,1.7c4.2,2.9,6.6,8.3,7,16.2
				l0,0.3l-4.6,2.4l1.3-2.6l-0.6-0.4l-2.9-2.4l0.6-2.5l-0.7,0.2l-0.1-1.6l-0.2,0.2l-0.9-1.5l-0.4,0.8l-0.8-2.1l-0.9,1.7l-0.5-3.5
				l-1.2,2.2l-0.2-1.3l-0.2,0.3l-1.4-1.8l-0.5,1.3l-0.6-1l-0.4,0.9l-1.4-1.3v1.2l-1.4-1.2l-0.4,0.6l-2.4-1.3l-0.2,1.4l-1.5-1.4
				l-0.1,0.4c2.2,1.4,16.1,11.1,11.3,25.9L794.4,245.3z M794.7,236.9l0.3,5.1l0.3-0.6c5-15.3-11.1-25-11.2-25.1l-0.3-0.2l0.8-2.1
				l1.2,1.1l0.1-1.1l2.8,1.5l0.5-0.7l0.7,0.7v-1.3l1.9,1.8l0.5-1.3l0.6,0.9l0.4-1.2l1.6,2l0.8-1.3l0.1,1.2l1.2-2.2l0.5,3.4l0.6-1.1
				l0.7,2l0.2-0.4l1.2,2l0.7-0.5l0.2,1.9l1.1-0.4l-0.9,3.4l2.5,2l1.2,0.8l-0.5,1.1l2.1-1.1c-0.4-7.5-2.7-12.7-6.6-15.4
				c-5.4-3.7-12.2-1.4-12.3-1.4l-1,0.3l0.7-1.2l-1.7-2l3.7,0.5l-0.5-1.3l2.6,0.5l-0.2-1.4l2.2,0.5l-0.4-1.7l1.5,1.1l-0.6-1.8
				l3.8,1.7l0.2-3.3l1.2,2.4l0.3-2.1l1.2,2.9l0.6-2l1.9,1.7v-1.2l1.5,1.1l1-2.3l0.6,2l1.3-2l-0.3,2.9l2.5-4.4l-0.3,6l2.6-2.7
				l-0.3,2.1l2.2-1.8l-0.8,3.3l1.8,0.1l0.3,1.1l1.1-0.3l0.3,1.4c0.9-1.9,1-3.5,1-4c-5.4-7.5-11.1-11.2-17.2-11.2
				c-9.8,0.1-16.9,10.3-17,10.4l0,0l-1.3,1.4l-0.9-1.9l1.5-3.4h-0.9l0.7-1.5l-0.8,0.1c-0.3,1.5-0.5,2.9-0.6,3.8l-0.8,0.1
				c-0.6-1.8-0.1-5,0.5-7.8l-0.4,0.9l-0.7-0.2l0-1.2l-0.4,0l0.3,9.8c0.2,0.7,0.3,0.9-0.1,1c-0.4,0.1-0.4,0-0.8-1.2
				c-0.6-1.8-3.1-4.3-3.1-4.4c-7.2-5-13.9-6.6-19.7-4.7c-5.7,1.8-9.4,6.6-11.4,9.9l1,1.2l0.4-2.4l1.3,1.1l-0.5-1.4l2.7,1.2l0.2-1.5
				l1.4,1.4l1-2.2l0.6,1.1l0.5-2.7l1.2,2.4l1.2-2.5l0.4,1.9l0.6-1.9l0.4,2.1l1.4-2.3l0.2,1.3l1.5-1.8l-1.4,5.5l4.3-4.4l0.5,1.7
				l1.3-2.1l0.2,2.7l2.7-1.8l-0.5,1.1l0.9-0.8v1.2l2.9-0.4l-1,1.3l3-0.2l-0.6,1.3h1.5l-0.6,1.4l3.9,3.3l-0.4,0.6
				c-0.1,0-7-4-17.4-0.9c-6.2,1.8-8.6,8.2-9.5,13.1l1.7,3.1l-0.4-2.9l1.2,1.8l-0.7-3.4l0.7-0.2l0.4,0.9l0.2-4.1l1,2.5l0.8-5.8l1.4,4
				l0.9-4.3l0.9,2.7l0.3-2l0.8,0l0.6,2.5l0.9-2.7l0.8,0.1v0.1l0.1-0.7l0.8,0l0.3,2.1l0.7-1.9l0.8,0.1v1l1.2-3.3l0.7,1.9l0.8-3.2
				l0.8,3.1l1.1-1.7l0.1,0.5l0.8-1.5l0.4,2l1.5-1.3l-0.2,1.7l4.4-2.3l0.2,1.2l1.1,1.2l-0.6,0.2c-0.1,0-7.5,2.4-13,11
				c-3.2,5.1-2.9,10.3-2.2,13.7l1.1,0.6l-0.3-1.3l0.2-3.9l1.2,1.8l0.7-3.7l0.6,0.7v-0.6l0.8-0.1l0,0l0.6-3.1l0.7,1v-2.1l1.2,0.9
				l0.6-2l0.5,0.6l0.4-2.4l0.5,1.4l0.7-2.9l0.8,0.1l0.3,2.7l1.4-4.7l0.8,0.1v0.5l0.3-0.7l0.7,0.2l-0.1,1.3c0.8-1.4,1.8-3,2.6-3.2
				c0.2,0,0.4,0,0.6,0.2c0.6,0.5,2.5,0.8,3.5,0.8l0.9-1.4l0.9,2.3l0.2-1.2l1.9,3.5l0.4-1.4l0.8,0l0.4,2.7l0.8-1.7l1.2,4.5l0.8-1.8
				l1,4.4l0.6-0.8l0.4,2.5l1.5-2.5l0.2,2.8l1.3-1.4l-0.9,5L794.7,236.9z M749.2,228.6l0.6,0.8l-0.2-4.5
				C749.4,226.3,749.3,227.6,749.2,228.6z M743.7,208.7l0.2,0.9l0.5-2.2C744.1,207.8,743.9,208.3,743.7,208.7z M782.9,205.8
				L782.9,205.8L782.9,205.8z M784.6,194.2c-1.1,1.2-1.9,3.4-2.5,5.7L784.6,194.2z"/>
		</g>
	</g>
	<g>
		<path d="M780.7,216.4l0.5,0.4c0.1-0.1,1.6-1.7,4.1,0.5l0.4-0.5C782.7,214.1,780.7,216.3,780.7,216.4z M780,207.8l-0.1,0.6l1.2-0.5
			l-0.8,1.5l1.7-0.6l-2.2,2.9l0.5,0.4l3.4-4.7l-2.1,0.7l0.9-1.7l-1.8,0.8l0.4-2.4l-0.6-0.1L780,207.8L780,207.8z M776.8,208l0.7,1.7
			l-1.2-0.5l3.5,6.4l0.4-0.6l-0.7,1.9l0.6,0.2l1.5-4l-0.6-0.3l-1.2,1.6l-2.1-3.9l1,0.4l-1-2.2l1.3,0.8v-2.4h-0.6v1.2l-2.1-1.4
			L776.8,208L776.8,208z M774.6,216.1l0.3,0.6c0.9-0.4,1.7-0.5,2.3-0.2c0.7,0.3,0.9,1.1,0.9,1.1l0.6-0.2c0,0-0.3-1-1.2-1.5
			C776.7,215.5,775.7,215.6,774.6,216.1z M777.3,222.8l-0.5-3.5l0.6-0.1l0.5,3.5L777.3,222.8z M781.9,222.3l-0.9-2.7l0.6-0.2
			l0.9,2.7L781.9,222.3z M783.6,224.3l-0.6-2.7l0.6-0.2l0.6,2.7L783.6,224.3z"/>
	</g>
	<g>
		<path class="st33" d="M654.1,304.8c0,0-2.8-1.3-4.1-0.4c-1.3,1-1.1,2.4-2.2,2.3c0,0,4.3,1,5.3-0.2c0.9-1.2,1.1-1.5,1.1-1.5
			 M654.6,306.1c0,0-1.9,2.6-1.2,4.1c0.6,1.5,2,1.6,1.7,2.8c0,0,1.9-4.1,1-5.4l-1.2-1.5 M651.5,298.9c0,0-3,1-3.3,2.6
			c-0.3,1.6,0.7,2.6-0.2,3.3c0,0,3.8-2.2,3.8-3.8l-0.1-1.9 M653.2,300c0,0,1.4-2.9,0.5-4.3c-0.9-1.4-2.3-1.3-2.1-2.4
			c0,0-1.1,4.4-0.1,5.4l1.4,1.2 M650.3,298.9c0,0,0.1-3.2-1.3-4.1c-1.4-0.8-2.6-0.1-2.9-1.2c0,0,0.8,4.5,2.2,4.9l1.8,0.5
			 M655.4,304.3c0,0,3.3-1.2,3.5,2.5c0.3,3.7-0.2,2.4-0.2,2.4s-1.7-3.9-3.6-4.6L655.4,304.3L655.4,304.3z"/>
		<path d="M655.5,313.1l-0.7-0.3c0.1-0.4,0-0.5-0.5-1c-0.4-0.4-0.9-0.8-1.2-1.5c-0.7-1.7,1.1-4.2,1.3-4.5l0.5,0.4l0.4-0.3l1.2,1.5
			C657.4,308.7,655.8,312.4,655.5,313.1z M654.8,306.6c-0.5,0.8-1.4,2.5-1,3.4c0.3,0.6,0.6,1,1,1.3c0.1,0.1,0.3,0.3,0.4,0.4
			c0.6-1.5,1-3.3,0.6-3.9L654.8,306.6z M658.9,309.8c-0.1,0-0.4-0.1-0.5-0.5c-0.5-1-2-3.8-3.4-4.3l-0.5-0.2l0.6-0.9l0.1,0
			c0.1,0,1.6-0.6,2.8,0.2c0.8,0.5,1.2,1.4,1.3,2.6C659.5,309.6,659.4,309.7,658.9,309.8C659,309.8,659,309.8,658.9,309.8z
			 M655.9,304.6c1.2,0.7,2.2,2.4,2.7,3.5c0-0.3,0-0.7-0.1-1.2c-0.1-1-0.4-1.7-0.9-2C657.1,304.4,656.3,304.5,655.9,304.6z
			 M650.9,307.6c-1.4,0-2.8-0.3-3.2-0.4l0.1-0.8c0.3,0,0.4-0.1,0.8-0.7c0.2-0.5,0.6-1,1.2-1.5c1.4-1.1,4.2,0.2,4.5,0.3l-0.3,0.6
			l0.5,0.2c0,0-0.2,0.4-1.2,1.6C652.9,307.4,651.9,307.6,650.9,307.6z M648.9,306.6c1.6,0.2,3.4,0.3,3.8-0.2c0.6-0.7,0.9-1.1,1-1.3
			c-0.9-0.4-2.7-0.9-3.5-0.3c-0.5,0.4-0.8,0.9-1,1.3C649.1,306.3,649,306.4,648.9,306.6z M648.2,305.1l-0.4-0.6
			c0.3-0.2,0.3-0.4,0.1-1.1c-0.1-0.5-0.2-1.2-0.1-2c0.2-0.9,1-1.6,1.9-2.1l-1.5-0.4c-1.6-0.5-2.4-4.5-2.5-5.2l0.8-0.2
			c0.1,0.3,0.3,0.4,0.9,0.5c0.5,0.1,1.2,0.1,1.8,0.5c1.4,0.9,1.5,3.6,1.5,4.3c0.1-0.1,0.2-0.1,0.3-0.1c-0.8-1.5,0-4.8,0.2-5.5
			l0.8,0.1c0,0.4,0.1,0.5,0.7,0.8c0.4,0.3,1,0.6,1.4,1.3c1,1.5-0.3,4.3-0.5,4.6l-0.5-0.3l-0.3,0.4l-0.6-0.5l0.1,1.3
			C652.2,302.7,648.9,304.7,648.2,305.1z M651.3,299.4c-0.9,0.3-2.5,1.2-2.7,2.2c-0.1,0.6,0,1.2,0.1,1.7c0,0.2,0.1,0.4,0.1,0.6
			c1.3-0.9,2.7-2.1,2.7-2.8L651.3,299.4z M651.8,294.5c-0.3,1.6-0.4,3.5,0.1,4l1.2,1c0.4-0.9,1-2.7,0.4-3.6
			c-0.4-0.6-0.8-0.8-1.2-1.1C652.1,294.7,651.9,294.6,651.8,294.5z M650.1,298.9l0,0.2c0.1-0.1,0.2-0.1,0.3-0.2L650.1,298.9z
			 M646.7,294.6c0.4,1.6,1.1,3.3,1.7,3.5l1.5,0.4c0-1-0.3-2.9-1.1-3.4c-0.5-0.3-1.1-0.4-1.5-0.4
			C647.1,294.7,646.9,294.7,646.7,294.6z"/>
	</g>
	<g>
		<path d="M654.6,306.1c0.1,0.9,0.2,1.9,0.3,2.8l0.5-0.1l-0.3-2.8c0,0,1.1-6.1,1.1-6.1l-0.5-0.1L654.6,306.1L654.6,306.1z"/>
	</g>
	<g>
		<path d="M651.6,305.2l-0.2,0.5c1.6,0.6,3.8-1.2,3.8-1.3L655,304C655,304,652.9,305.7,651.6,305.2z M655.7,301.7l-7.3-3.8l0.3-0.6
			l7.3,3.8L655.7,301.7z"/>
	</g>
	<g>
		<path d="M650.4,300.8l-0.5-0.5l1.5-1.5l0.5,0.5L650.4,300.8z M653,300.1l-1.6-3.5l0.6-0.3l1.6,3.5L653,300.1z M655.1,304.3l0,0.7
			c2-0.1,2.5,1.2,2.5,1.2l0.6-0.1C658.2,305.7,657.4,304.2,655.1,304.3L655.1,304.3z"/>
	</g>
	<g>
		<g>
			<path class="st0" d="M688.8,305.9c2.4-1.4,2.9-6.4,2.9-6.4c-0.6,1.8-5.1,3.6-5.1,3.6c3.3-2.1,7.3-11.7,7.3-11.7
				c-1.1,3.4-9.8,6.3-15.3,9.5s-2.6,12.5-2.6,12.5c-1.6-1.1-4.6-6.1-5.2-10.4c-0.6-4.3-2.3-6.1-6.1-6.6s-6.1,3.9-6.1,3.9l-5.7,3
				l5.8,0.2c0,0,4.1,1.4,4.1,4.8s-3.6,16.7,2.3,24.2c4.1,5.2,19.5,8.2,19.5,8.2"/>
			<path d="M684.6,341.3c-0.6-0.1-15.5-3.1-19.7-8.4c-4.9-6.1-3.5-16.1-2.8-21.4c0.2-1.4,0.3-2.4,0.3-3.1c0-2.7-3.2-4.1-3.7-4.3
				l-7.5-0.3l7.2-3.8c0.4-0.8,2.7-4.6,6.5-4.1c4.1,0.5,5.9,2.5,6.5,7c0.4,3.2,2.3,6.8,3.8,8.8c-0.6-3-1-8.8,3.3-11.3
				c1.7-1,3.8-2,5.8-2.9c3.9-1.9,8-3.8,9.1-5.8c0.1-0.3,0.2-0.5,0.2-0.5l0.9,0.3c-0.1,0.2-0.1,0.4-0.3,0.6c-0.7,1.6-2.8,6.2-5,9.2
				c1-0.6,1.9-1.3,2.1-2l1,0.2c0,0.2-0.5,5.2-3.2,6.8l-0.5-0.9c1.3-0.7,2-2.7,2.3-4.1c-1.5,1.2-3.7,2.2-4.1,2.3l-0.5-0.9
				c2-1.3,4.2-5.4,5.7-8.3c-1.9,1.4-4.6,2.7-7.5,4c-2,0.9-4,1.9-5.7,2.9c-5.2,3-2.4,11.9-2.4,12l0.4,1.4l-1.2-0.9
				c-1.8-1.3-4.8-6.3-5.4-10.8c-0.6-4.1-2-5.7-5.6-6.1c-3.4-0.5-5.5,3.6-5.5,3.7l-0.1,0.1l-4.2,2.2l4.1,0.2c0.2,0.1,4.4,1.6,4.4,5.2
				c0,0.7-0.2,1.8-0.3,3.2c-0.7,5.2-2,14.9,2.6,20.7c4,5,19,8,19.2,8L684.6,341.3z"/>
		</g>
		<g>
			<path class="st0" d="M677.5,316.2c0,0,1.2-6,5-5.8c3.8,0.2,4.9-4.4,7.1-5.2c2.2-0.7,13.9-3.9,15.1-9.7c0,0-1.1,9.5-11.7,14.3
				c0,0,8.6-2.9,9.6-4.9c0,0-3.8,8.5-13.1,9.8c0,0,8.7-0.7,10-3.1c0,0-3.9,5.4-10.4,6.1c0,0,6,2.5,7.5,0.4c0,0-3.2,3.9-7.2,4.2
				l1.1,0.3c0,0-3.8,4.7-8,1.5c-4.2-3.1-4.3,0.8-4.3,0.8"/>
			<path d="M685.5,325.8c-1,0-2.2-0.3-3.3-1.2c-1.2-0.9-2.2-1.3-2.8-1c-0.5,0.3-0.7,1.1-0.7,1.4l-1,0c0-0.1,0.1-1.7,1.3-2.3
				c0.9-0.5,2.2-0.1,3.8,1.1c2.9,2.2,5.7,0.2,6.8-0.9l-0.3-0.1l0.1-1c2-0.2,3.9-1.3,5.2-2.4c-2.3,0.1-5.2-1.1-5.6-1.3l-1.8-0.7
				l1.9-0.2c3.1-0.3,5.6-1.8,7.3-3.2c-2.8,0.9-6.2,1.2-6.8,1.2l-0.1-1c5.9-0.8,9.5-4.7,11.3-7.2c-2.7,1.6-6.9,3-7.6,3.2l-0.4-0.9
				c6.1-2.7,9-7.1,10.3-10.2c-3.5,3.5-10.3,5.6-12.9,6.4l-0.5,0.1c-0.7,0.2-1.4,1.1-2.1,2c-1.2,1.5-2.6,3.3-5.2,3.2
				c-3.4-0.2-4.5,5.3-4.5,5.4l-1-0.2c0-0.3,1.3-6.2,5.3-6.2c0.1,0,0.1,0,0.2,0c2.1,0.1,3.2-1.4,4.4-2.8c0.8-1,1.6-2,2.6-2.3l0.5-0.2
				c8.8-2.7,13.6-5.8,14.3-9.2l1,0.2c0,0.1-0.8,6.6-7,11.6c1.9-0.9,3.5-1.8,3.9-2.5l0.9,0.4c0,0.1-2.3,5.1-7.6,8.1
				c1.4-0.4,2.5-0.8,3.2-1.4c0.3-0.3,0.4-0.5,0.5-0.5l0.8,0.5c-0.1,0.2-0.3,0.4-0.5,0.6c-1.1,1.3-4,4.2-8.4,5.3
				c1.8,0.5,4.1,1,5.1,0.1c0.1-0.1,0.1-0.2,0.2-0.2l0.8,0.6c-0.1,0.1-0.1,0.2-0.2,0.2c-0.6,0.7-2.8,2.9-5.6,3.8l-0.4,0.5
				C690.9,323,688.6,325.8,685.5,325.8z"/>
		</g>
		<g>
			<path class="st0" d="M686.2,325.2c0,0,4.9,8.5,5.4,13.1c0,0,9.4,10.7,12.9,11.3c0,0-1.7,0.7-4.7-1.9c0,0,2.5,2.7,3,2.8
				s-2.1-0.2-2.4-0.9c0,0,1.1,1.6,1.8,1.8l-0.7-0.2c0,0-1.3-0.2-1.9-0.7c-0.6-0.5-0.2,1.3-0.2,1.3s-1.5-0.4-2-0.9
				c-0.5-0.5,0.2,1.1,0.2,1.1l-1.3-0.3l-0.9,0.6c0,0-0.1,0.6-0.7,0.1c-0.6-0.5-1.7,0-1.7,0s-0.8,0.7-1.2,0.2
				c-0.4-0.5-1.9,1.9-1.9,1.9l-6.2-15.4"/>
			<path d="M690,355.7l-6.5-16.3l0.9-0.4l5.8,14.5c0.6-0.9,1.2-1.4,1.6-1.4c0.2,0,0.4,0.1,0.6,0.3c0.1,0,0.3-0.1,0.4-0.3l0.1-0.1
				c0.1-0.1,1.3-0.6,2.1,0l0.2-0.1l1.1-0.7l0.6,0.1c-0.1-0.5-0.1-0.8,0.2-0.9c0.1-0.1,0.4-0.2,0.8,0.2c0.2,0.2,0.6,0.4,1,0.5
				c-0.1-0.8,0.2-1,0.3-1.1c0.1-0.1,0.4-0.2,0.8,0.1c0.1,0.1,0.2,0.2,0.4,0.2c-0.1-0.2-0.2-0.3-0.3-0.4c0,0,0-0.1-0.1-0.1l0.8-0.5
				c-0.4-0.4-0.8-0.8-1.3-1.3l0.6-0.6c-4-3.3-8.5-8.5-8.8-8.8l-0.1-0.1l0-0.2c-0.5-4.4-5.3-12.8-5.3-12.9l0.9-0.5
				c0.2,0.3,4.9,8.5,5.4,13.1c2.7,3,9.8,10.6,12.5,11l1.7,0.3l-1.6,0.7c-0.1,0-0.6,0.2-1.5,0.1c0.2,0.1,0.2,0.3,0.2,0.4l0,0.4
				L703,351c-0.1,0-0.4,0-0.7-0.1l-0.3,0.9l-0.7-0.2c-0.1,0-0.8-0.1-1.5-0.5c0,0.2,0,0.3,0.1,0.5l0.2,0.8l-0.8-0.2
				c-0.1,0-0.6-0.2-1.1-0.4l0.4,0.8l-2-0.5l-0.6,0.4c-0.1,0.2-0.2,0.4-0.5,0.4c-0.3,0.1-0.6,0-1-0.3c-0.2-0.2-0.8-0.1-1.1,0
				c-0.2,0.2-0.7,0.5-1.2,0.5c-0.2,0-0.3-0.1-0.5-0.2c-0.3,0.3-0.8,1-1.3,1.7L690,355.7z"/>
		</g>
	</g>
	<g>
		<path d="M692,353.1l-7.8-15.3l0.8-0.4l7.8,15.3L692,353.1z M698.8,352l-13.3-15.4l0.7-0.6l13.3,15.4L698.8,352z M701.9,350.7
			L686.7,336l0.6-0.7l15.2,14.6L701.9,350.7z M663.8,301.3c0,0-1-1.8-1.9-1.1s-1.4,0.8-1.5,0.8c0,0,0.9,0,1.4-0.4
			C662.3,300,663.1,300.3,663.8,301.3L663.8,301.3z M658.4,300.5l0.6,1.2c-0.1,0-0.6,1.9-0.6,1.9l0.4,0.1l0.6-2
			c0-0.2-0.6-1.4-0.6-1.4L658.4,300.5L658.4,300.5z"/>
	</g>
	<g>
		<path d="M663.6,301.1c0,0-0.7,0.9-1.8,0.6l-1-0.3l1.4,0.1C662.8,301.5,663.6,301.2,663.6,301.1L663.6,301.1z"/>
	</g>
	<g>
		<path d="M663.3,301.2c0,0-0.9-1-1.5-0.7c0,0,1.1-0.4,1.7,0.6L663.3,301.2z"/>
	</g>
	<g>
		<path d="M663.2,301.1c0,0-1,0.7-2.2-0.1l-0.1-0.1l0.1,0C661.1,300.9,662.5,301.5,663.2,301.1L663.2,301.1z"/>
	</g>
	<g>
		<ellipse cx="662.3" cy="300.9" rx="0.3" ry="0.3"/>
	</g>
	<g>
		<path d="M663.1,329.1c0,0-0.8,1.5-0.4,2.4c0.4,0.9,2.3,1.4,2.6,2.6c0.3,1.2,0.9,1.2,1.8,1.1l1.1-0.2c0,0-3.7-2.1-4.7-5.4
			L663.1,329.1L663.1,329.1z"/>
	</g>
	<g>
		<g>
			<g>
				<path class="st34" d="M783.5,298c0,0,6.8-9.2,12.8-6.8s9.9,3.6,9.9,3.6s0.1,6.2-3.1,6.2c-3.2,0-6.2-6.2-9.1-4.4
					c-2.9,1.8-5.3,4.4-5.5,5.2C788.3,302.8,780.7,303,783.5,298L783.5,298z"/>
				<path d="M786.6,302.6c-1.3,0-2.8-0.4-3.5-1.3c-0.6-0.9-0.6-2,0.2-3.4l0,0c0.3-0.4,7-9.4,13.1-6.9c5.9,2.4,9.9,3.6,9.9,3.6l0.2,0
					l0,0.2c0,0.2,0.1,4.1-1.6,5.7c-0.5,0.5-1.1,0.7-1.7,0.7c-1.5,0-2.9-1.3-4.3-2.5c-1.7-1.5-3.2-2.9-4.7-1.9
					c-2.9,1.8-5.2,4.3-5.4,5.1c-0.1,0.3-0.3,0.4-0.9,0.6C787.5,302.6,787,302.6,786.6,302.6z M783.7,298.1c-0.9,1.6-0.7,2.7,0.4,3.4
					c1.5,0.9,3.9,0.6,4.1,0.3c0.2-1,2.7-3.5,5.6-5.4c1.8-1.1,3.5,0.4,5.3,2c1.3,1.2,2.7,2.4,4,2.4c0.5,0,1-0.2,1.4-0.6
					c1.3-1.3,1.4-4.4,1.4-5.2c-0.8-0.3-4.5-1.4-9.8-3.6C790.5,289.1,783.9,297.8,783.7,298.1z"/>
			</g>
			<g>
				<g>
					<path class="st34" d="M757.7,342.6c0,0-1.9,2-1,2.5c0.8,0.5,2.5-0.1,2.5-0.8C759.2,343.7,758.1,342.4,757.7,342.6z"/>
					<path d="M757.5,345.7c-0.3,0-0.7-0.1-1-0.2c-0.2-0.1-0.4-0.3-0.4-0.6c-0.1-0.9,1.1-2.3,1.3-2.5l0.1-0.1
						c0.1-0.1,0.4-0.1,0.8,0.1c0.5,0.3,1.3,1.3,1.3,2c0,0.4-0.2,0.7-0.7,1C758.6,345.5,758,345.7,757.5,345.7z M757.9,343
						c-0.5,0.6-1.1,1.4-1,1.8c0.4,0.3,1.2,0.1,1.7-0.1c0.2-0.1,0.3-0.3,0.3-0.3C758.9,344,758.2,343.2,757.9,343z"/>
				</g>
				<g>
					<path class="st34" d="M756.2,344.6c0,0-3.5-2-6.2,2.8c-2.7,4.9-5,12.7-6.6,13.8c-1.6,1.1,15.5-7.8,15.7-11.5
						c0,0,1.1-4.8-0.7-4.7C756.7,345.1,756.6,345.3,756.2,344.6L756.2,344.6z"/>
					<path d="M743.1,361.7l-0.1-0.3c-0.1-0.3,0.1-0.5,0.3-0.6c0.8-0.5,1.9-3.3,3.1-6.2c1-2.5,2.1-5.3,3.4-7.5c1-1.8,2.2-2.9,3.7-3.3
						c1.7-0.5,3,0.3,3.1,0.3l0.1,0.1l0.1,0.1c0.2,0.4,0.2,0.4,1,0.3c0.2,0,0.5,0,0.8-0.1c0.4,0,0.7,0.1,1,0.4
						c0.9,1.1,0.2,4.4,0.1,4.7c-0.2,3.9-15.9,11.8-16.1,11.8L743.1,361.7z M754.5,344.5c-0.3,0-0.6,0-0.9,0.1
						c-1.2,0.3-2.3,1.3-3.2,2.9c-1.2,2.1-2.3,4.9-3.3,7.4c-0.9,2.3-1.7,4.1-2.3,5.2c3.9-2.1,13.9-7.9,14-10.5
						c0.3-1.3,0.6-3.5,0.1-4.1c-0.1-0.1-0.2-0.1-0.3-0.1c-0.3,0-0.6,0-0.8,0.1c-1,0.1-1.3,0.1-1.7-0.6
						C755.7,344.7,755.2,344.5,754.5,344.5z"/>
				</g>
			</g>
			<g>
				<path class="st34" d="M756.7,345.1c0,0-3.6,0.9-4.3,6.1c-0.8,5.3-5.7,8-6,8.2 M806.2,294.8c0,0-5.4,2-4.5,5.8"/>
				<path d="M746.5,359.6l-0.3-0.4c0,0,0.1,0,0.1-0.1c1.5-0.9,5.2-3.6,5.8-7.9c0.8-5.3,4.3-6.3,4.5-6.3l0.1,0.5
					c-0.1,0-3.4,0.9-4.1,5.9C752,355.8,748.2,358.6,746.5,359.6C746.6,359.6,746.5,359.6,746.5,359.6z M801.5,300.7
					c-1-4.1,4.6-6.1,4.6-6.1l0.2,0.5c-0.1,0-5.2,1.9-4.3,5.6L801.5,300.7z"/>
			</g>
		</g>
		<g>
			<path class="st24" d="M764.5,306.2c0,0,0.2-13.3,10.7-12.7c2,0.2,1,2.6,1,2.6s2.3-1.6,3.3,1c0,0,3.3-1.6,3.7,1.8
				c0,0,3.6-0.5,3.1,2.5c0,0,2.5-0.6,2.4,1.6c0,0,2.8-1.2,2.6,1.8c0,0,3.1-2.1,2.7,1.7c0,0,3.2-2.3,4.3,1.6
				c1.1,3.9-3.2,12.1-7.5,14.3"/>
			<path d="M790.9,322.6l-0.2-0.4c4.2-2.1,8.5-10.2,7.4-14c-0.3-1.1-0.8-1.7-1.5-2c-1.1-0.4-2.5,0.5-2.5,0.5l-0.4,0.3l0.1-0.5
				c0.1-1,0-1.7-0.4-2c-0.5-0.3-1.5,0.2-1.9,0.4l-0.4,0.3l0-0.5c0.1-0.8-0.1-1.3-0.4-1.6c-0.6-0.5-1.8,0-1.8,0l-0.3,0.1l0-0.4
				c0-0.5-0.1-0.9-0.4-1.1c-0.5-0.4-1.4-0.3-1.7-0.2l-0.3,0.1l0.1-0.4c0.1-0.7,0-1.3-0.4-1.7c-0.8-0.8-2.5-0.6-2.5-0.6l-0.2,0l0-0.2
				c-0.1-0.9-0.4-1.5-0.9-1.8c-1-0.5-2.4,0.1-2.4,0.1l-0.2,0.1l-0.1-0.2c-0.3-0.7-0.7-1.1-1.2-1.3c-0.9-0.2-1.8,0.4-1.8,0.4
				l-0.7,0.5l0.3-0.8c0,0,0.4-1.2,0-1.8c-0.2-0.3-0.5-0.4-0.9-0.5c-2.6-0.2-4.8,0.6-6.5,2.2c-3.8,3.5-3.9,10.3-3.9,10.3l-0.5,0
				c0-0.3,0.1-7,4.1-10.7c1.8-1.7,4.1-2.4,6.9-2.3c0.6,0.1,1,0.3,1.3,0.7c0.3,0.5,0.3,1.2,0.2,1.7c0.4-0.2,1-0.4,1.7-0.2
				c0.6,0.2,1.1,0.6,1.4,1.3c0.5-0.2,1.7-0.5,2.6,0c0.6,0.3,1,1,1.1,1.9c0.5,0,1.9,0,2.6,0.8c0.4,0.4,0.6,1,0.6,1.7
				c0.4-0.1,1.2-0.1,1.8,0.4c0.3,0.3,0.5,0.6,0.5,1.1c0.5-0.1,1.3-0.3,1.9,0.2c0.4,0.3,0.6,0.8,0.6,1.6c0.5-0.3,1.4-0.6,2-0.2
				c0.5,0.3,0.7,1,0.7,2c0.5-0.3,1.5-0.7,2.5-0.4c0.8,0.3,1.4,1.1,1.8,2.3C799.7,312,795.3,320.4,790.9,322.6z"/>
		</g>
	</g>
	<g>
		<path d="M793.7,307c0,0.1,1.4,10.4-4.2,14.2l0.2,0.3c5.9-3.9,4.4-14.5,4.4-14.6L793.7,307z M786.9,318.3l0.3,0.3
			c3.6-3.6,4.3-13.3,4.4-13.7l-0.4,0C791.2,304.9,790.4,314.8,786.9,318.3z M783.6,316l0.4,0c0.5-6,5-12.9,5-12.9l-0.3-0.2
			C788.6,302.9,784,309.9,783.6,316L783.6,316z M780.9,314.2l0.4,0c0.6-7.2,5.3-12.7,5.3-12.7l-0.3-0.3
			C786.3,301.3,781.6,306.9,780.9,314.2L780.9,314.2z M777.3,311.8l0.4,0c0.4-8.5,5.8-12.7,5.8-12.8l-0.2-0.3
			C783.2,298.8,777.6,303.1,777.3,311.8L777.3,311.8z M773.9,309.7l0.4,0c-0.3-7.8,5.5-12.4,5.6-12.5l-0.2-0.3
			C779.5,296.9,773.6,301.7,773.9,309.7L773.9,309.7z M767.8,306.8l0.4,0c1-8.4,8.2-10.6,8.3-10.6l-0.1-0.4
			C776.3,295.9,768.8,298.2,767.8,306.8L767.8,306.8z"/>
	</g>
	<g>
		<path class="st33" d="M758.3,322.3c0,0-1.8-12.3,5.4-16.2c0,0,1.3-0.3,2.1,1.5c0,0,3.8-1.7,3.9,1.6c0,0,1.9-1.6,2.3,0.6
			c0,0,4-0.9,3.3,2.2c0,0,3.4-1,3.1,2c0,0,3.4-1.3,2.8,1.4c0,0,3.6-0.9,2.7,2.1c0,0,4.4-0.5,3.1,2.7c0,0,3.3-0.9,2.5,1.7
			c0,0,4.3,0.8,2.3,3.6c-2,2.8-6.9,7.1-11.8,8.9 M754.5,334.7c0,0-2.9-10.3,2.6-12.9c0,0,1-0.3,1.2,0.8c0,0,1.2-1.7,2.2-0.2
			c0,0,2.8-1.4,3.5,0.8c0,0,1.9-1.7,2.8,0.8c0,0,1.8-0.8,1.8,1.2c0,0,2.4-1.1,2.4,1.3c0,0,2.3-1,1.9,1.7c0,0,3.6,0.6,2.5,2.3
			c0,0,3.2,0.9,2,2.2c0,0,3.5-0.4,1.6,2c0,0,2.6-0.9,1.1,2.1c-1.5,3-6.2,6.3-9.5,6.7 M757.9,342.9c0,0-6.2-6.2-3.3-8.1
			c0,0,1.3,0.4,1.8,1.7c0,0,1.5-2.2,2.3,0.1c0,0,2.3-0.8,2.3,0.8l1.8,1.4c0,0,2.1-0.2,1.7,1.2c0,0,2.3-0.3,2.2,1c0,0,2,0.1,1.8,1.5
			c0,0,3.4,0.6,1.9,2.3c0,0-5.9,1.3-10-0.5C760.3,344.3,758.1,343.5,757.9,342.9L757.9,342.9z"/>
		<path d="M765.7,345.4c-1.8,0-3.8-0.2-5.5-1c-0.5-0.2-2.2-0.8-2.5-1.4c-0.4-0.4-4.4-4.5-4.1-7c0.1-0.5,0.3-0.9,0.7-1.2l-0.1,0
			c-0.1-0.4-2.9-10.5,2.8-13.2c0.1,0,0.6-0.2,1,0.1c-0.3-2.6-0.8-12.4,5.5-15.8l0.1,0c0,0,1.4-0.3,2.2,1.4c0.6-0.2,2-0.7,3,0
			c0.5,0.3,0.8,0.8,0.9,1.5c0.4-0.2,0.9-0.5,1.5-0.3c0.4,0.1,0.7,0.5,0.8,1c0.6-0.1,2.2-0.3,3,0.6c0.4,0.4,0.5,0.9,0.4,1.6
			c0.6-0.1,1.7-0.2,2.4,0.4c0.4,0.4,0.7,0.9,0.7,1.6c0.6-0.2,1.8-0.4,2.5,0.1c0.3,0.3,0.5,0.7,0.4,1.3c0.6-0.1,1.8-0.2,2.4,0.5
			c0.4,0.4,0.5,1,0.3,1.7c0.7,0,2.3,0,3,0.9c0.3,0.5,0.4,1,0.2,1.7c0.6-0.1,1.6-0.2,2.2,0.4c0.3,0.3,0.4,0.8,0.3,1.5
			c0.6,0.2,2.2,0.6,2.7,1.8c0.3,0.6,0.1,1.4-0.4,2.2c-2,2.9-6.8,6.9-11.5,8.8c0,0,0,0,0,0c0.4,0.4,0.3,1.2-0.3,2.3
			c-1.5,3-6,6.2-9.4,6.8c0.1,0.4-0.1,0.8-0.4,1.2l-0.1,0.1l-0.1,0C770.2,345,768.2,345.4,765.7,345.4z M758.1,342.6l0.1,0.3
			c0.1,0.3,1.2,0.9,2.2,1.2c3.8,1.6,9.1,0.6,9.8,0.5c0.2-0.3,0.3-0.6,0.2-0.8c-0.2-0.6-1.5-1-2-1.1l-0.2,0l0-0.2
			c0-0.3,0-0.5-0.2-0.6c-0.3-0.4-1.1-0.5-1.4-0.5l-0.2,0l0-0.2c0-0.2,0-0.3-0.2-0.4c-0.4-0.4-1.4-0.3-1.7-0.3l-0.4,0l0.1-0.3
			c0.1-0.2,0-0.4-0.1-0.5c-0.3-0.3-1.1-0.3-1.4-0.3l-0.1,0l-1.9-1.5v-0.1c0-0.3-0.1-0.5-0.2-0.6c-0.4-0.3-1.4-0.1-1.7,0l-0.2,0.1
			l-0.1-0.2c-0.1-0.4-0.4-0.9-0.7-0.9c-0.4,0-1,0.6-1.2,0.9l-0.3,0.4l-0.2-0.5c-0.4-1-1.2-1.4-1.5-1.6c-0.3,0.2-0.5,0.6-0.6,1
			C753.9,338.2,757.3,341.9,758.1,342.6L758.1,342.6z M768.7,342.2c0.5,0.1,1.5,0.4,2,1c3.2-0.4,7.7-3.7,9.2-6.6
			c0.6-1.2,0.5-1.6,0.3-1.7c-0.2-0.3-0.9-0.1-1.2-0.1l-0.7,0.2l0.5-0.6c0.4-0.6,0.6-1,0.5-1.3c-0.3-0.5-1.4-0.4-1.8-0.4l-0.6,0.1
			l0.4-0.5c0.2-0.2,0.3-0.4,0.2-0.6c-0.2-0.6-1.3-1.1-2.1-1.3l-0.3-0.1l0.2-0.3c0.2-0.3,0.2-0.5,0.1-0.8c-0.3-0.7-1.9-1.1-2.5-1.2
			l-0.2,0l0-0.2c0.1-0.5,0.1-1.1-0.2-1.4c-0.4-0.3-1.1-0.1-1.3,0l-0.3,0.1l0-0.4c0-0.5-0.1-0.9-0.4-1.1c-0.5-0.3-1.4-0.1-1.7,0.1
			l-0.3,0.1v-0.4c0-0.5-0.1-0.8-0.4-1c-0.3-0.2-0.9-0.1-1.1,0l-0.2,0.1l-0.1-0.2c-0.3-0.7-0.6-1-1-1.1c-0.7-0.2-1.4,0.5-1.4,0.5
			l-0.3,0.2l-0.1-0.4c-0.1-0.4-0.4-0.7-0.7-0.9c-1-0.4-2.4,0.3-2.4,0.3l-0.2,0.1l-0.1-0.2c-0.2-0.3-0.4-0.5-0.7-0.5c0,0,0,0,0,0
			c-0.5,0-0.9,0.5-1.1,0.7l-0.3,0.5l-0.1-0.6c0-0.2-0.1-0.4-0.3-0.5c-0.3-0.2-0.6-0.1-0.6-0.1c-5,2.4-2.7,11.6-2.5,12.5l0,0
			c0.1,0,1.2,0.4,1.8,1.5c0.3-0.3,0.8-0.8,1.4-0.7c0.4,0.1,0.8,0.4,1,1c0.4-0.1,1.3-0.3,1.9,0.1c0.3,0.2,0.4,0.5,0.4,0.8l1.6,1.2
			c0.3,0,1.3,0,1.7,0.5c0.1,0.1,0.2,0.3,0.2,0.7c0.5,0,1.3,0,1.8,0.4c0.2,0.2,0.3,0.4,0.3,0.6c0.4,0.1,1.1,0.2,1.5,0.7
			C768.6,341.7,768.7,341.9,768.7,342.2z M779.7,334.3c0.1,0,0.2,0,0.3,0c4.7-1.8,9.6-5.9,11.7-8.8c0.5-0.6,0.6-1.2,0.4-1.7
			c-0.5-1.1-2.6-1.5-2.6-1.5l-0.3,0l0.1-0.3c0.2-0.6,0.1-1-0.1-1.3c-0.5-0.5-1.7-0.3-2.1-0.2l-0.5,0.1l0.2-0.4
			c0.3-0.7,0.3-1.3,0-1.7c-0.7-0.9-2.8-0.7-2.9-0.7l-0.4,0l0.1-0.3c0.2-0.7,0.1-1.2-0.2-1.6c-0.5-0.6-1.8-0.4-2.3-0.3l-0.4,0.1
			l0.1-0.4c0.1-0.6,0.1-0.9-0.2-1.1c-0.5-0.5-1.8-0.1-2.3,0.1l-0.4,0.1l0-0.4c0.1-0.7-0.1-1.3-0.5-1.6c-0.8-0.7-2.3-0.2-2.3-0.2
			l-0.4,0.1l0.1-0.4c0.2-0.7,0.1-1.2-0.2-1.6c-0.8-0.8-2.7-0.4-2.8-0.4l-0.2,0.1l-0.1-0.2c-0.1-0.5-0.3-0.8-0.6-0.9
			c-0.5-0.2-1.2,0.3-1.4,0.5l-0.4,0.3l0-0.5c0-0.8-0.3-1.3-0.7-1.6c-1-0.6-2.8,0.1-2.8,0.1l-0.2,0.1l-0.1-0.2
			c-0.6-1.4-1.6-1.3-1.8-1.3c-6.3,3.5-5.4,14-5.2,15.7c0.3-0.2,0.6-0.5,1.1-0.5c0.4,0,0.7,0.2,0.9,0.5c0.5-0.2,1.7-0.6,2.6-0.2
			c0.4,0.2,0.7,0.5,0.9,0.9c0.3-0.2,0.9-0.5,1.6-0.4c0.5,0.1,1,0.5,1.3,1.2c0.3-0.1,0.9-0.2,1.3,0.1c0.3,0.2,0.5,0.5,0.6,1
			c0.4-0.1,1.2-0.3,1.8,0.1c0.4,0.2,0.6,0.6,0.6,1.2c0.4-0.1,1-0.2,1.5,0.2c0.4,0.3,0.5,0.8,0.4,1.6c0.6,0.1,2.2,0.5,2.6,1.4
			c0.1,0.3,0.1,0.6,0,0.9c0.6,0.2,1.9,0.7,2.1,1.5c0,0.2,0.1,0.4,0,0.6c0.6,0,1.5,0.1,1.8,0.7c0.2,0.3,0.1,0.8-0.2,1.3
			C779.5,334.3,779.6,334.3,779.7,334.3z"/>
	</g>
	<g>
		<path d="M779.2,332.6l0.1,0.4c3.7-1.5,10-10.5,10.3-10.9l-0.3-0.2C789.3,322,782.7,331.2,779.2,332.6L779.2,332.6z M777.1,331
			l0.2,0.3c3.2-1.8,9.6-10.6,9.8-10.9l-0.3-0.2C786.7,320.2,780.2,329.2,777.1,331L777.1,331z M775.3,330.2l0.2,0.3
			c3.4-2.9,8.3-12.5,8.5-12.9l-0.3-0.2C783.6,317.5,778.6,327.4,775.3,330.2L775.3,330.2z M773.6,328l0.4,0.1
			c0.6-4.8,7.2-12.5,7.3-12.5l-0.3-0.3C780.7,315.6,774.3,323,773.6,328L773.6,328z M760.5,322.1l0.4,0c-0.6-6.8,5-14.4,5-14.4
			l-0.3-0.2C765.5,307.5,759.9,315.1,760.5,322.1z M764,322.7l0.4-0.1c-0.9-5.5,5.3-13.3,5.4-13.3l-0.3-0.2
			C769.2,309.4,763,317.1,764,322.7L764,322.7z M769.3,324.7l0.4,0c-0.2-6.3,5.6-12.5,5.7-12.6l-0.3-0.3
			C775,311.9,769.1,318.3,769.3,324.7L769.3,324.7z M756.5,336.1l0.3-0.1c-2.1-5.8,1.5-13.2,1.6-13.3l-0.3-0.2
			C758.1,322.6,754.4,330.1,756.5,336.1L756.5,336.1z M759,336.4l0.4-0.1c-1.8-5.9,1.3-13.8,1.3-13.9l-0.3-0.1
			C760.3,322.4,757.1,330.4,759,336.4L759,336.4z M769,342.3l0.1,0.4c6-2.2,9.9-7.9,9.9-7.9l-0.3-0.2
			C778.8,334.6,774.9,340.1,769,342.3L769,342.3z M767.8,341l0.2,0.4c4.8-2.2,9.2-8.5,9.3-8.5l-0.3-0.2
			C776.9,332.6,772.5,338.8,767.8,341L767.8,341z M766.6,340.5l0.2,0.3c3.7-2.8,8.5-10,8.6-10.1l-0.3-0.2
			C775.1,330.6,770.3,337.7,766.6,340.5L766.6,340.5z M760.7,336.9l0.4-0.1c-0.8-6.2,3-13.5,3.1-13.6l-0.3-0.2
			C763.7,323.2,759.8,330.6,760.7,336.9L760.7,336.9z M763.3,338.6l0.2,0.3c3.9-3.6,5.2-13.3,5.2-13.7l-0.4-0.1
			C768.3,325.2,767,335.1,763.3,338.6L763.3,338.6z M765.9,339.7l0.2,0.3c5.4-4.1,6.9-11.9,6.9-12l-0.4-0.1
			C772.7,328.1,771.2,335.7,765.9,339.7L765.9,339.7z M766.5,322.9l0,1.1c0,0-4.1,13.8-4.1,13.8l0.4,0.1l4.1-13.9
			c-0.6-6.7,5.1-14,5.1-14.1l-0.3-0.2C771.7,309.7,766.5,316.4,766.5,322.9L766.5,322.9z M770.8,326.3c-0.1,0.2-1.3,9.7-6.3,13.2
			l0.2,0.3c5.1-3.6,6.3-13,6.4-13.3c2.2-2.7,7.2-12.2,7.3-12.3l-0.3-0.2C778.1,314,773.1,323.5,770.8,326.3L770.8,326.3z
			 M756.2,336.6c0,0.2,0.9,4.9,1.8,6.6l0.3-0.2c-0.9-1.6-1.8-6.4-1.8-6.4L756.2,336.6L756.2,336.6z M758.6,336.7l-0.1,6.5l0.3,0.1
			c0.2-0.5,0.1-5.7,0.1-6.7L758.6,336.7L758.6,336.7z"/>
	</g>
	<g>
		<path d="M758.8,343.4l0.3,0.2c1.6-3.6,2.1-6,2.1-6.1l-0.4-0.1C760.8,337.4,760.4,339.9,758.8,343.4L758.8,343.4z"/>
	</g>
	<g>
		<path d="M759.2,343.5l0.2,0.3c2.9-1.8,3.6-4.9,3.7-5l-0.4-0.1C762.6,338.8,762,341.8,759.2,343.5L759.2,343.5z"/>
	</g>
	<g>
		<path d="M759.7,343.8l0,0.4c2.9-0.3,4.8-3.9,4.9-4.1l-0.3-0.2C764.3,339.9,762.4,343.5,759.7,343.8L759.7,343.8z"/>
	</g>
	<g>
		<path d="M760,344l0,0.4c4.6-0.3,6.7-3.2,6.8-3.3l-0.3-0.2C766.5,340.9,764.4,343.7,760,344L760,344z"/>
	</g>
	<g>
		<path d="M760.3,344.1l-0.1,0.4c0.2,0.1,6.2,1.4,8.2-1.8l-0.3-0.2C766.2,345.4,760.4,344.1,760.3,344.1z"/>
	</g>
	<g>
		<path d="M725.4,382.8l-0.7-0.2c-0.2-0.1-24.9-8.6-49.2-23.8c-32.6-20.4-49.8-43.7-49.8-67.3v-173h199.3v173
			c0,23.6-17.2,46.9-49.8,67.3c-24.3,15.2-49,23.7-49.2,23.8L725.4,382.8z M630,122.7v168.8c0,51.3,86.9,83.8,95.5,86.9
			c8.6-3.1,95.5-35.5,95.5-86.9V122.7H630z"/>
	</g>
</g>
<g id="Layer_1_00000114054871561168275530000015809218144577631664_">
	<path class="st2" d="M861.1,6C874.8,6,886,17.2,886,30.9V569c0,13.8-11.2,24.9-24.9,24.9H30.9C17.2,594,6,582.8,6,569.1V30.9
		C6,17.2,17.2,6,30.9,6H861.1 M861.1,0H30.9C13.8,0,0,13.8,0,30.9l0,0V569c0,17.2,13.8,31,30.9,31H861c17.1,0,30.9-13.8,30.9-30.9
		V30.9C892,13.8,878.2,0,861.1,0z"/>
</g>
</svg>
