<?xml version="1.0" encoding="utf-8"?>
<!-- Generator: Adobe Illustrator 23.1.0, SVG Export Plug-In . SVG Version: 6.00 Build 0)  -->
<svg version="1.1" id="Layer_1" xmlns="http://www.w3.org/2000/svg" xmlns:xlink="http://www.w3.org/1999/xlink" x="0px" y="0px"
	 viewBox="0 0 500 500" style="enable-background:new 0 0 500 500;" xml:space="preserve">
<style type="text/css">
	.st0{fill:#C7A14B;}
	.st1{fill:#8F1F25;}
	.st2{fill:#BD9648;}
	.st3{fill:#BE9747;}
</style>
<g>
	<g id="IKH1wx.tif">
		<g>
			<path class="st0" d="M248.8,486.6c-54.4,0-98.6-16.8-131.3-49.7c-59.6-60-59.9-151.8-59.9-156.7L55.9,30.8
				c-0.4-3.4,0.3-7.8,3.1-11.4c2.1-2.6,6.1-5.7,13.2-5.7h349.2c0.8-0.1,1.8-0.3,3.1-0.3c5.1,0,9.9,1.9,13.2,5.3
				c4.3,4.3,6.4,10.5,6.4,18.6c-0.1,17.7-0.9,257.5-0.9,260c0,1.8-0.3,47.5-24,93.9c-22.2,43.2-69.6,94.9-169.5,95.3L248.8,486.6z"
				/>
			<path class="st1" d="M72.3,22.9h350c0,0,12.9-3.2,12.9,14.5s-0.9,260-0.9,260s0.3,179.5-184.4,180.2
				C65.1,478.4,66.7,280.1,66.7,280.1L65,30C65,30,63.4,22.9,72.3,22.9z"/>
			<path class="st2" d="M405.1,301.2c-0.5,26.4-9,50.3-22.6,72.6c-18.2,30-44.2,51.3-76.6,63.9c-23.6,9.1-48.6,10.3-73.9,8.2
				c-27.4-2.3-51.4-12.3-73.4-28.2c-24.8-17.9-42.3-41.6-53.2-70.1c-4-10.6-7.5-21.6-8.2-33.1c2.6-5.2,2.3-6.9-1-7.9
				c-1.9-2.2-1.2-4.9-1.2-7.5c0-66.9,0-133.8,0-200.6c0-2.2-1.7-5.5,2.5-6.2c0.3,1.6-0.6,3.5,2.5,3.5c3.4-0.1,6.8,0.5,10.3,0.5
				c22.9,0,45.8,0,68.7,0c8.3,0,8.3,0,8.3,8.6c0,85.8,0,171.5,0,257.4c0,3.8-0.3,7.3-1.4,10.8c-8.1-4.9-14-12.1-20.3-18.8
				c-2.5-2.6-2.9-6-2.9-9.6c0.1-31.2,0-62.3,0.1-93.4c0-5.5-1.7-7.1-7-6.9c-8.2,0.4-16.5,0.3-24.7,0c-4.3-0.1-6.4,1-6.4,5.8
				c0.5,21.2-1.8,42.5,1.4,63.5c3.8,23.9,13.8,45.3,29.7,63.6c16.8,19.2,37.3,32.7,61.8,39.6c18.4,5.2,37.5,6.2,56.4,2.5
				c44-8.7,75.1-33.9,93.9-74.4c6.6-14.3,10-29.3,11-44.9c0.1-1.3,0.6-2.5,1-3.6c3-0.3,3.1-2.5,3-4.7c0-3.2-0.1-6.5,0-9.7
				c0.4-15.1-3-12.7,13.4-13c4.4-0.1,6.2,1.6,6.1,6.1c-0.3,7.1-0.1,14.2,0,21.3C402.8,298,402,300.5,405.1,301.2z M162.7,167.2
				c0-14.4-0.1-29,0.1-43.4c0.1-4.5-1.3-6.1-5.8-6c-8.6,0.3-17.3,0.3-26,0c-4-0.1-6,1-6,5.5c0.1,29,0.1,57.9,0,86.9
				c0,4.3,1.8,5.7,5.8,5.6c8.4-0.1,16.9-0.3,25.3,0c4.9,0.3,6.9-1.2,6.8-6.5C162.4,195.2,162.7,181.2,162.7,167.2z"/>
			<path class="st2" d="M202.9,379.1c-0.1-2.3-0.4-4.7-0.4-7.1c0-89.3,0-178.6,0-267.9c0-2.3-0.5-4.8,0.8-7c3-0.4,6-1,9-1.2
				c25.1-0.1,50.3,0.1,75.3-0.1c4.9,0,6.1,1.7,6.1,6.4c-0.1,94.5-0.1,189.2-0.1,283.7c-7.3,5.3-16,6.4-24.5,7.5c0-47,0-94-0.1-141
				c0-2.5,1.7-5.8-2.3-7.1c-10.3-2.7-20.6-0.6-30.9-1.2c-2.2-0.1-3,1.4-3,3.4c0,1.6,0,3,0,4.5c0,44.9,0,90,0.1,134.9
				c0,5.1-0.5,6.9-6.5,4.9c-6.8-2.2-13.8-3.5-19.7-7.5C206.5,381.9,207.3,378.8,202.9,379.1z M232.4,166.1c0,14.4,0.1,29-0.1,43.4
				c-0.1,4.8,1.6,6.4,6.4,6.2c8.4-0.3,16.9-0.3,25.3,0c4.4,0.1,6.1-1.4,6.1-6c-0.1-28.7-0.1-57.4,0-86.2c0-4.5-1.8-6-6.2-5.8
				c-8.6,0.3-17.3,0.3-26,0c-4.3-0.1-5.6,1.4-5.6,5.6C232.5,137.5,232.4,151.8,232.4,166.1z"/>
			<path class="st2" d="M340.2,338.8c0.5,2.2,0.5,4.4,0,6.6c-3.1,0.8-3,2.2-0.8,4c-0.9,5.8-6,8.8-9.5,12.6
				c-5.5,5.8-10.9,11.9-18.4,15.3c-1.6-1.7-1-3.2-1-4.7c0-91.5,0-183.2,0-274.8c0-1,0.1-2.2,0.3-3.2c8.4,0.4,16.9,1.2,25.3,1.2
				c20.4,0.1,40.9,0.1,61.3,0c4.2,0,5.8,1.2,5.6,5.5c-0.3,5.2-0.1,10.4-0.1,15.6c-18.6,0-37.1,0.3-55.7,0c-5.8-0.1-7.8,1.7-7.8,7.8
				c0.3,27.9,0.3,55.7,0,83.6c0,5.8,1.8,7.4,7.4,7.3c17.5-0.3,35.1,0.1,52.5-0.3c5.3-0.1,6.8,1.8,6.5,6.8c-0.4,5.6-0.4,11.3,0,16.9
				c0.3,4.8-1.3,6.4-6.2,6.4c-17.5-0.3-35.1,0.1-52.5-0.3c-6.1-0.1-8.2,1.9-7.7,7.9c0.4,3.9,0,7.8-0.1,11.7c-1.7,1.2-1.6,3-1.6,4.7
				c0,21.7,0,43.2,0,64.9C337.8,336.1,337.3,338.3,340.2,338.8z"/>
			<path class="st0" d="M293.6,386c0-94.5,0-189.2,0.1-283.7c0-4.7-1.2-6.4-6.1-6.4c-25.1,0.3-50.3,0.1-75.3,0.1c-3,0-6,0.8-9,1.2
				c-0.4-3.8,1-5.3,5.2-5.3c27.9,0.1,55.7,0.1,83.6,0c4.4,0,5.6,1.6,5.5,5.7c-0.3,10.4-0.1,20.8-0.1,31.2c0,82.2,0,164.3-0.1,246.5
				C297.4,378.8,299.5,384,293.6,386z"/>
			<path class="st0" d="M185.6,372.7c1.3-3.5,1.4-7.1,1.4-10.8c0-85.8,0-171.5,0-257.4c0-8.6,0-8.6-8.3-8.6c-22.9,0-45.8,0-68.7,0
				c-3.4,0-6.8-0.6-10.3-0.5c-3.1,0.1-2.1-1.9-2.5-3.5c29.2,0,58.4,0,87.7-0.1c3.6,0,4.8,1,4.7,4.8c-0.3,7.5,0.1,15.2,0.1,22.7
				c0,84.4-0.1,168.8-0.1,253.2C188.5,372.6,187.1,372.7,185.6,372.7L185.6,372.7z"/>
			<path class="st0" d="M266.5,245.3c4,1.3,2.3,4.7,2.3,7.1c0.1,47,0.1,94,0.1,141c-2.1,0.1-2.5-0.9-2.5-2.9c0-4.3-0.1-8.7-0.1-13
				C266.4,333.6,266.4,289.5,266.5,245.3z"/>
			<path class="st0" d="M402.6,117c0-5.2-0.3-10.4,0.1-15.6c0.3-4.3-1.4-5.6-5.6-5.5c-20.4,0.1-40.9,0.3-61.3,0
				c-8.4-0.1-16.9-0.8-25.3-1.2c0-0.4,0.1-0.9,0.1-1.3c0.4-0.4,0.8-0.8,1.2-1.2c20,0.1,40,0.4,60.1,0.5c7.8,0,15.6-0.6,23.2-0.6
				c10.4-0.1,10.4,0,10.4,10c0,3.6,0,7.4,0,11C405.5,114.9,405.6,117,402.6,117z"/>
			<path class="st0" d="M405.1,301.2c-3.2-0.5-2.3-3.1-2.5-5.1c-0.1-7.1-0.1-14.2,0-21.3c0.1-4.4-1.7-6.1-6.1-6.1
				c-16.5,0.4-13-2.1-13.4,13c-0.1,3.2,0,6.5,0,9.7c0,2.2,0,4.4-3,4.7c0.1-8.7-1.6-17.4-0.5-26.2c1.2-0.9,0.9-2.3,1-3.5
				c6.9-0.1,13.8-0.3,20.6-0.4c1.9,0,3.9-0.1,3.9,2.9C405.1,279.6,405.1,290.4,405.1,301.2z"/>
			<path class="st0" d="M340.2,338.8c-2.9-0.5-2.3-2.7-2.3-4.5c0-21.7,0-43.2,0-64.9c0-1.7-0.1-3.5,1.6-4.7
				C339,289.3,341.1,314,340.2,338.8z"/>
			<path class="st0" d="M96.2,306.4c3.4,1,3.5,2.9,1,7.9C95.9,311.8,96.3,309.1,96.2,306.4z"/>
			<path class="st0" d="M202.9,379.1c4.3-0.3,3.6,2.7,3.6,5.5C203.3,384,202.3,382.2,202.9,379.1z"/>
			<path class="st2" d="M185.8,372.7c1.4,0,2.7,0,4.2-0.1c0,1,0.1,2.3-1.3,2.3C187.1,374.9,186.3,373.9,185.8,372.7z"/>
			<path class="st0" d="M339.4,349.5c-2.2-1.8-2.5-3.2,0.8-4C340.6,346.9,340,348.2,339.4,349.5z"/>
			<path class="st2" d="M380.7,266.4c-0.1,1.3,0.1,2.6-1,3.5C379.1,268.4,378.9,267.1,380.7,266.4z"/>
			<path class="st2" d="M311.9,92.1c-0.4,0.4-0.8,0.8-1.2,1.2C310.7,92.6,311,92.2,311.9,92.1z"/>
			<path class="st1" d="M162.7,167.2c0,14-0.3,28,0.1,42.1c0.1,5.3-1.7,6.8-6.8,6.5c-8.4-0.4-16.9-0.3-25.3,0
				c-4.2,0.1-5.8-1.4-5.8-5.6c0.1-29,0.1-57.9,0-86.9c0-4.4,2.1-5.6,6-5.5c8.7,0.1,17.3,0.3,26,0c4.5-0.1,6,1.4,5.8,6
				C162.5,138.2,162.7,152.6,162.7,167.2z"/>
			<path class="st1" d="M232.4,166.1c0-14.3,0.1-28.6-0.1-42.7c0-4.2,1.3-5.7,5.6-5.6c8.6,0.3,17.3,0.3,26,0
				c4.4-0.1,6.2,1.3,6.2,5.8c-0.1,28.7-0.1,57.4,0,86.2c0,4.5-1.7,6.1-6.1,6c-8.4-0.3-16.9-0.3-25.3,0c-4.8,0.1-6.4-1.4-6.4-6.2
				C232.5,194.9,232.4,180.5,232.4,166.1z"/>
			<path class="st1" d="M184.6,48.3c0.6,4.2,4.4,5.6,2.2,8.2c-1,1.3-4.2,1.3-5.2-0.1C179.5,53.7,182.9,52.1,184.6,48.3z"/>
		</g>
	</g>
	<g>
		<path class="st3" d="M106.8,43.8h19.3v3.4h-14.8v7H124v3.2h-12.6v10.1h-4.5V43.8z"/>
		<path class="st3" d="M141,43.8h4.5v20.4h14.8v3.4H141V43.8z"/>
		<path class="st3" d="M191.5,62.2h-11.6l-2.3,5.3h-4.8l11-23.8h3.9l11,23.8H194L191.5,62.2z M190.2,59l-4.4-10.4h-0.1L181.2,59
			H190.2z"/>
		<path class="st3" d="M213.3,43.8h4.3l8.7,15.5l8.6-15.5h4.3v23.8h-4.5V52.7h-0.1l-6.4,11.4h-3.8L218,52.7h-0.1v14.8h-4.5
			L213.3,43.8L213.3,43.8z"/>
		<path class="st3" d="M257.2,43.8h19.3v3.4h-14.8v6.8h12.6v3.2h-12.6v7h14.8v3.4h-19.3V43.8z"/>
		<path class="st3" d="M292.3,43.8h4.3l13.8,16.9h0.1V43.8h4.5v23.8h-4.3l-13.8-16.9h-0.1v16.9h-4.5V43.8z"/>
		<path class="st3" d="M342.6,54.4h10.8v4.8c0,2.3-1,4.4-3.1,6c-2.1,1.6-4.5,2.5-7.7,2.5c-2.3,0-4.4-0.5-6-1.4
			c-1.6-0.8-2.9-1.8-3.5-2.9c-0.3-0.4-0.4-0.6-0.6-1c-0.1-0.4-0.3-0.8-0.4-1.3c-0.3-0.9-0.3-2.9-0.3-5.5c0-2.7,0.1-4.5,0.3-5.6
			c0.3-0.9,0.5-1.7,1-2.2c0.8-1,1.9-2.1,3.5-3c1.6-0.9,3.6-1.3,6-1.3c3,0,5.3,0.6,7.1,2.1c1.8,1.3,3,3,3.5,5.1h-4.9
			c-0.4-0.9-1-1.8-2.1-2.5c-1-0.6-2.3-1-3.8-1c-1,0-1.9,0.1-2.7,0.5s-1.4,0.8-1.9,1.2c-0.6,0.5-1,1.2-1.2,1.9
			c-0.3,0.9-0.4,2.5-0.4,4.8c0,2.3,0.1,3.9,0.4,4.8c0.3,0.8,0.6,1.6,1.2,1.9c0.5,0.5,1.2,0.9,1.9,1.2c0.8,0.4,1.7,0.5,2.7,0.5
			c1.8,0,3.2-0.5,4.4-1.4c1.2-0.9,1.8-2.1,1.8-3.6v-1.3h-6.2v-3.2H342.6z"/>
		<path class="st3" d="M369.1,55.6c0-2.7,0.1-4.7,0.3-5.6c0.3-0.9,0.5-1.7,1-2.2c0.8-1,1.9-2.1,3.5-3c1.6-0.9,3.6-1.3,6-1.3
			c2.5,0,4.4,0.5,6,1.3c1.6,0.9,2.7,1.8,3.5,3c0.5,0.5,0.9,1.3,1,2.2c0.1,0.9,0.3,2.7,0.3,5.6c0,2.7-0.1,4.5-0.3,5.5
			c-0.1,0.9-0.5,1.7-1,2.3c-0.6,1-1.8,2.1-3.5,2.9c-1.6,0.9-3.6,1.3-6,1.4c-2.3,0-4.4-0.5-6-1.4c-1.6-0.8-2.9-1.8-3.5-2.9
			c-0.3-0.4-0.4-0.6-0.6-1c-0.1-0.4-0.3-0.8-0.4-1.3C369.3,60.1,369.1,58.3,369.1,55.6z M373.8,55.6c0,2.3,0.1,3.9,0.4,4.8
			c0.3,0.8,0.6,1.6,1.2,1.9c0.5,0.5,1.2,0.9,1.9,1.2c0.8,0.4,1.7,0.5,2.7,0.5s2.1-0.1,2.9-0.5c0.8-0.3,1.4-0.6,1.8-1.2
			c0.6-0.5,1-1.2,1.2-1.9c0.3-0.8,0.3-2.5,0.3-4.8c0-2.3-0.1-3.9-0.3-4.8c-0.3-0.8-0.6-1.4-1.2-1.9c-0.5-0.5-1-0.9-1.8-1.2
			c-0.8-0.3-1.8-0.5-2.9-0.5c-1,0-2.1,0.1-2.7,0.5c-0.8,0.4-1.4,0.8-1.9,1.2c-0.6,0.5-1,1.2-1.2,1.9
			C373.8,51.7,373.8,53.3,373.8,55.6z"/>
	</g>
</g>
</svg>
