<?xml version="1.0" encoding="UTF-8"?>
<svg id="Layer_1" xmlns="http://www.w3.org/2000/svg" version="1.1" viewBox="0 0 300 300">
  <!-- Generator: Adobe Illustrator 29.1.0, SVG Export Plug-In . SVG Version: 2.1.0 Build 142)  -->
  <defs>
    <style>
      .st0 {
        fill: #019152;
      }

      .st1 {
        fill: #fdfefd;
      }
    </style>
  </defs>
  <path class="st0" d="M154.2.8c1.1.3,2.5.1,3.7.2,13.6.3,27.6,1.5,40.7,5.5.6,1.9.9,3.8,1.4,5.7,3.5,12.9,10.9,20.7,24.8,21.4,4.4.2,8.7-.7,13-1.1l11.6,12.8.2.4v.4c-5.6,7.9-10.3,16.7-12.1,26.3-4.7,24.9,11.2,44.9,29.1,59.8,0,.5,0,1.1,0,1.6,0,4.1-.7,8.9-1.3,13-6.5,50.5-27.8,94.4-68.4,125.7s-30,19.7-46.4,26.8h-.5c-32.7-13.9-62-35.1-82.5-64.5-21.3-30.6-30.3-64.4-33.6-101.3s0-.6-.4-.8v-.4c.5-.1,1-.6,1.3-.9,23.2-19.9,38.2-44.3,22.6-74.8-1.9-3.7-4.3-7.2-6.6-10.8v-.3c3.9-4.4,7.8-8.8,11.9-13.1,1.8,0,3.5.5,5.3.6,8,.8,16.1.4,22.7-4.7s9.5-13.9,11-22c13.1-4.1,27.1-5.1,40.8-5.5s2.2,0,3.3,0l.4-.2h7.9ZM193.7,11.1c-8-2.1-16.3-3.2-24.6-3.7-12.3-.9-25.5-.9-37.8,0s-16.6,1.6-24.6,3.7c-1.9,9-6.2,18.1-14.1,23.3s-13,5.1-19.9,5l-7.8-.7-6.7,7.5c4.9,7.7,9,16.1,10.7,25.2,2.2,11.9.4,22.8-4.7,33.7s-1.8,3.1-1.6,3.3l168.2-29.3c.3-.2.1-1.3.2-1.8,1-11.1,5.3-21.6,11.4-30.8v-.4s-6.8-7.4-6.8-7.4c-9.7,1.3-20.1,1-28.4-4.8-7.5-5.3-11.4-13.9-13.4-22.7ZM230.8,83.4l-171.2,29.6c-1.5,1.7-2.8,3.8-4.2,5.7-4.5,5.8-9.9,11.1-15.4,16v1.9c0,0,1.1,11.1,1.1,11.1l199.8-34.5-3.3-5.7c-3.9-7.4-6.6-15.6-6.8-24ZM42.7,157.4l204.9-35.6-3.8-4.9-.5-.2-201.5,35,.9,5.6ZM260.5,136.7l-214,37.1v.4c1.6,6.5,3.8,12.9,5.9,19.2l204.7-35.5.5-.4,2.9-20.9ZM253.6,175.6l-194.3,33.8c3.2,6.3,6.6,12.4,10.5,18.3h.2c0,0,176.6-30.7,176.6-30.7,2.7-7,5.2-14.2,7-21.5ZM237.7,215.8l-156.5,27.3c5,5.7,10.2,11.4,15.9,16.4s3,2.7,3.4,2.7c40-7.1,80.2-13.7,120.1-21,5.4-6.5,10.3-13.6,14.6-20.9.9-1.5,1.7-3,2.4-4.5ZM200.4,261.9l-81.6,14.3c8.8,5.4,17.8,10.7,27.3,14.9.8.4,3.8,1.8,4.4,1.7,18-7.9,35.1-18,49.9-30.9Z"/>
  <path class="st1" d="M193.7,11.1c2,8.8,5.9,17.4,13.4,22.7,8.2,5.9,18.7,6.1,28.4,4.8l6.8,7.4v.4c-6.1,9.3-10.4,19.7-11.4,30.8,0,.5.2,1.5-.2,1.8l-168.2,29.3c-.2-.2,1.3-2.8,1.6-3.3,5.1-10.9,7-21.7,4.7-33.7-1.7-9.1-5.8-17.4-10.7-25.2l6.7-7.5,7.8.7c7,0,14.1-1.1,19.9-5s12.2-14.3,14.1-23.3c8-2.1,16.3-3.2,24.6-3.7,12.3-.9,25.5-.9,37.8,0,8.3.6,16.6,1.6,24.6,3.7ZM109.1,92.2h4.2l7.1-25.3h4.1l-5.8,24h4.2l3.6-14.3h16.5s2.1,9.2,2.1,9.2h4.2l-1.9-9.2h9v8.2s.2.3.3.3h4v-8.5h14.8c.7,1.2.9,2.7,1.3,4.1h4.2l-4.1-14.3h6v-4.1h-7.2l-7.9-26.9h7.9v-4.1h-9.4l-3.1-10.3h-27.3s-2.6,9.5-2.6,9.5h-7.2c0,0-17.2,61.6-17.2,61.6Z"/>
  <path class="st1" d="M230.8,83.4c.2,8.4,2.9,16.6,6.8,24l3.3,5.7-199.8,34.5-1.2-11.1v-1.9c5.7-4.9,11-10.2,15.5-16s2.7-3.9,4.2-5.7l171.2-29.6ZM218.6,92.4c-.7,0-3.3.2-3.5.8l-2.5,20.2,3.2-.6.6-4.7,6.1-.9c.2,0,1.7,3.7,2.1,4,.6.4,2.4-.4,3.2-.3l-9-18.5ZM207.5,114.1c.3.2,3.2-.3,3.3-.6l-3.2-19.2c-.1-.2-.3-.1-.5-.1-.4,0-2.3.3-2.4.6l2.1,12.6-8.2-11.5c-.7-.5-2.3.3-3.1.2l3.2,19.6c.6-.2,2.7-.1,2.8-.8l-2-12.1,8,11.3ZM187.7,97.5c-.5,0-3.2.3-3.3.6l-2.7,20.4c.6-.1,3-.3,3.3-.7l.5-4.4,5.9-1.1c.2,0,.3.1.4.3.4.6,1.6,3.6,1.8,3.7.7.4,2.5-.4,3.4-.3l-9.2-18.5ZM178,104.7c.3-.5-.8-2.2-1.1-2.6-2-2.5-5.3-3-8.1-1.4-4.4,2.7-3.9,10.4-2,14.5,3.5,7.8,12.8,6.1,12.9-2.4,0-.2-3-.8-3.2-.6,0,2.4-1,5.1-3.9,4.6s-4.2-7.6-3.8-10.3c.5-3.9,5.6-4.3,6.5-.5.4-.2,2.7-1.1,2.8-1.3ZM153.3,110.6l8,11.1c.3.3,3.1-.2,3.2-.4l-3.3-19.4-2.8.3,2.1,12.9-8.1-11.4c-.8-.6-2.2.1-3.2.1l3.2,19.6,2.8-.6-1.9-12.4ZM141.4,105.3c-.2-.1-2.7.2-3,.3s-.3.4-.4.7l-2.5,20c.6-.2,3-.3,3.3-.7l.6-4.5,5.9-.9c.5.1,1.8,3.8,2.1,4,.5.3,2.6-.5,3.3-.3l-9.2-18.5ZM128.7,118.7c.3-.5.9-.5,1.3-.9,2.7-2.1,2.1-7.3-.4-9.3s-8.2.5-11.3.4l3.2,19.6,3.2-.5-1.4-8c2.4-1,3.2.3,4.6,1.9s2.4,3.2,3.6,4.8c1.3.1,2.6-.3,3.8-.5-2-2.6-3.6-6.1-6.5-7.6ZM116.2,112.9c0-.5-.2-3.2-.6-3.3l-10.3,1.8,3.2,19.4,3.2-.4-1.2-8.5,6.2-1c0-.5-.3-3.1-.6-3.2-.8-.3-5.8,1.2-6.2.8,0-.8-.9-3.7-.7-4.3s.2-.2.4-.3c2.1-.5,4.6-.6,6.8-1.1ZM94.8,133.2l-9.1-18.4c-.5-.5-2.5.3-3.3.3l-2.8,20.6,3.4-.5c0-.6.3-4.5.5-4.7,2-.3,4.1-.8,6.2-.9.3.5,1.6,3.9,1.8,4,.5.3,2.6-.5,3.3-.3ZM73.6,136.7l-9.3-18.4c-.5-.4-2.7.3-3.4.4l-2.7,20.5,3.3-.5c0-.7.3-4.7.7-4.8,1.7-.4,4-.4,5.8-.9.5.1,1.8,3.8,2.1,4,.5.3,2.8-.5,3.5-.3ZM99.6,132.3l-.7-3.6c-.4-.3-2.2.4-2.8.3l.5,3.9,3-.5ZM78.2,135.9l-.7-3.6-2.8.3.5,3.9,3-.5Z"/>
  <path class="st1" d="M260.5,136.7l-2.9,20.9-.5.4-204.7,35.5c-2.2-6.3-4.3-12.7-6-19.2v-.4c0,0,214.1-37.1,214.1-37.1Z"/>
  <path class="st1" d="M253.6,175.6c-1.9,7.3-4.3,14.4-7,21.5l-176.6,30.7h-.2c-3.8-5.9-7.3-12.1-10.5-18.3l194.3-33.8Z"/>
  <path class="st1" d="M237.7,215.8c-.7,1.6-1.6,3.1-2.4,4.5-4.3,7.4-9.2,14.4-14.6,20.9-39.9,7.3-80.1,13.9-120.1,21-.4,0-2.9-2.2-3.4-2.7-5.7-5-10.9-10.7-15.9-16.4l156.5-27.3Z"/>
  <polygon class="st1" points="42.7 157.4 41.8 151.8 243.3 116.8 243.8 116.9 247.6 121.8 42.7 157.4"/>
  <path class="st1" d="M200.4,261.9c-14.8,12.9-32,23-49.9,30.9-.6.1-3.6-1.3-4.4-1.7-9.5-4.2-18.5-9.5-27.3-14.9l81.6-14.3Z"/>
  <path class="st0" d="M109.1,92.2l17.2-61.5h7.2c0,0,2.6-9.6,2.6-9.6h27.3s3.1,10.3,3.1,10.3h9.4v4.1h-7.9l7.9,26.9h7.2v4.1h-6l4.1,14.3h-4.2c-.5-1.3-.6-2.9-1.3-4.1h-14.8v8.5h-4s-.3-.2-.3-.3v-8.2h-9l1.9,9.2h-4.2l-2.1-9.2h-16.5s-3.6,14.3-3.6,14.3h-4.2l5.8-24h-4.1l-7.1,25.3h-4.2ZM146.5,72.4h10V31.4h5.7l-1.9-6.2h-20.9c-.8,2.8-1.8,5.7-1.9,8.6l8.8,38.2.3.4ZM132.6,34.7h-3.2l-7.8,28.1h3.8l7.2-28.1ZM171.3,62.3l-8-26.9h-2.6v26.9h10.6ZM139.8,62.8l-4.9-20.5-4.9,20.5h9.9ZM174.3,72.4c-.6-2-1-4.1-1.9-6h-11.7v6h13.6ZM142,72.4c-.3-1.3-.5-4.1-1.1-5.2s0-.2-.3-.3h-11.7c0,0-1.4,5.5-1.4,5.5h14.5Z"/>
  <path class="st0" d="M128.7,118.7c3,1.5,4.5,5,6.5,7.6-1.3.2-2.6.6-3.8.5-1.2-1.6-2.3-3.3-3.6-4.8s-2.2-2.9-4.6-1.9l1.4,8-3.2.5-3.2-19.6c3.1,0,8.7-2.4,11.3-.4s3.1,7.2.4,9.3-1,.4-1.3.9ZM122.7,116.8c2.5-.6,6.2.2,5.8-3.4-.4-3.6-4.2-1.6-6.5-1.5-.2.3.6,4.3.7,4.9Z"/>
  <path class="st0" d="M207.5,114.1l-8-11.3,2,12.1c-.1.7-2.2.6-2.8.8l-3.2-19.6c.8.1,2.4-.7,3.1-.2l8.2,11.5-2.1-12.6c0-.3,2-.6,2.4-.6s.3,0,.5.1l3.2,19.2c0,.3-3,.8-3.3.6Z"/>
  <path class="st0" d="M153.3,110.6l1.9,12.4-2.8.6-3.2-19.6c.9,0,2.4-.7,3.2-.1l8.1,11.4-2.1-12.9,2.8-.3,3.3,19.4c-.1.1-2.9.7-3.2.4l-8-11.1Z"/>
  <path class="st0" d="M141.4,105.3l9.2,18.5c-.7-.2-2.8.6-3.3.3s-1.6-3.9-2.1-4l-5.9.9-.6,4.5c-.2.4-2.7.5-3.3.7l2.5-20c0-.2.1-.6.4-.7s2.9-.4,3-.3ZM139.7,117.6c1-.3,2.6-.2,3.6-.6s.3-.2.3-.4c0-.8-2.7-5.3-3.1-6.4l-.8,7.4Z"/>
  <path class="st0" d="M94.8,133.2c-.7-.2-2.8.6-3.3.3s-1.5-3.5-1.8-4c-2.1.1-4.1.6-6.2.9-.2.2-.5,4.1-.5,4.7l-3.4.5,2.8-20.6c.8,0,2.7-.7,3.3-.3l9.1,18.4ZM84.9,119.6c-.2-.3-.3,0-.4.3-.3,2.4-.5,4.8-.7,7.2l4.1-.7-3-6.7Z"/>
  <path class="st0" d="M187.7,97.5l9.2,18.5c-.8-.1-2.7.7-3.4.3s-1.4-3.1-1.8-3.7-.2-.3-.4-.3l-5.9,1.1-.5,4.4c-.3.4-2.7.6-3.3.7l2.7-20.4c.2-.4,2.8-.6,3.3-.6ZM189.8,109.3c0-.7-.4-1.2-.6-1.8l-2.6-5.1-.7,7.4,3.9-.5Z"/>
  <path class="st0" d="M218.6,92.4l9,18.5c-.8-.1-2.6.7-3.2.3s-1.8-3.9-2.1-4l-6.1.9-.6,4.7-3.2.6,2.5-20.2c.2-.6,2.8-.8,3.5-.8ZM220.7,104l-3.2-6.7-.9,7.4,4.1-.7Z"/>
  <path class="st0" d="M73.6,136.7c-.7-.2-3,.7-3.5.3s-1.6-3.9-2.1-4c-1.8.4-4,.4-5.8.9s-.6,4.1-.7,4.8l-3.3.5,2.7-20.5c.7-.1,3-.8,3.4-.4l9.3,18.4ZM63.5,123.3c-.3-.3-.3,0-.3.3-.3,2.3-.4,4.7-.7,7,.6-.1,4-.5,4.1-.8l-3-6.4Z"/>
  <path class="st0" d="M178,104.7c0,.1-2.4,1.1-2.8,1.3-1-3.8-6-3.4-6.5.5s.5,9.7,3.8,10.3,3.8-2.1,3.9-4.6c.1-.1,3.1.5,3.2.6,0,8.5-9.4,10.3-12.9,2.4-1.8-4.1-2.4-11.9,2-14.5s6.1-1.1,8.1,1.4,1.4,2.2,1.1,2.6Z"/>
  <path class="st0" d="M116.2,112.9c-2.2.5-4.7.6-6.8,1.1s-.4,0-.4.3c-.2.6.7,3.5.7,4.3.5.4,5.4-1.1,6.2-.8s.6,2.7.6,3.2l-6.2,1,1.2,8.5-3.2.4-3.2-19.4,10.3-1.8c.4.1.7,2.8.6,3.3Z"/>
  <polygon class="st0" points="78.2 135.9 75.2 136.4 74.7 132.5 77.5 132.2 78.2 135.9"/>
  <path class="st0" d="M99.6,132.3l-3,.5-.5-3.9c.6.1,2.4-.6,2.8-.3l.7,3.6Z"/>
  <path class="st1" d="M146.5,72.4l-.3-.4-8.8-38.2c.1-2.8,1.2-5.8,1.9-8.5h20.9c0,0,1.9,6.1,1.9,6.1h-5.7v41h-10Z"/>
  <polygon class="st1" points="171.3 62.3 160.7 62.3 160.7 35.4 163.2 35.4 171.3 62.3"/>
  <polygon class="st1" points="139.8 62.8 129.9 62.8 134.9 42.3 139.8 62.8"/>
  <polygon class="st1" points="132.6 34.7 125.4 62.8 121.6 62.8 129.4 34.7 132.6 34.7"/>
  <path class="st1" d="M174.3,72.4h-13.6v-6h11.7c.8,1.9,1.3,4,1.9,6Z"/>
  <path class="st1" d="M142,72.4h-14.5l1.4-5.4h11.7c.2,0,.2,0,.3.2.6,1.1.8,3.9,1.1,5.2Z"/>
  <path class="st1" d="M122.7,116.8c0-.7-.9-4.7-.7-4.9,2.3,0,6.2-2.1,6.5,1.5.4,3.6-3.3,2.9-5.8,3.4Z"/>
  <path class="st1" d="M139.7,117.6l.8-7.4c.4,1.1,3.2,5.7,3.1,6.4s0,.3-.3.4c-1,.3-2.6.2-3.6.6Z"/>
  <path class="st1" d="M84.9,119.6l3,6.7-4.1.7c.2-2.4.4-4.8.7-7.2s.1-.5.4-.3Z"/>
  <path class="st1" d="M189.8,109.3l-3.9.5.7-7.4,2.6,5.1c.2.6.6,1.2.6,1.8Z"/>
  <polygon class="st1" points="220.7 104 216.7 104.7 217.6 97.3 220.7 104"/>
  <path class="st1" d="M63.5,123.3l3,6.4c0,.3-3.5.7-4.1.8.3-2.3.4-4.7.7-7s0-.5.3-.3Z"/>
</svg>