<?xml version="1.0" encoding="UTF-8"?>
<svg xmlns="http://www.w3.org/2000/svg" version="1.1" viewBox="0 0 400 400">
  <defs>
    <style>
      .cls-1 {
        fill: #e53138;
      }

      .cls-2 {
        fill: #fff;
      }
    </style>
  </defs>
  <!-- Generator: Adobe Illustrator 28.7.1, SVG Export Plug-In . SVG Version: 1.2.0 Build 142)  -->
  <g>
    <g id="Ebene_1">
      <g>
        <path class="cls-2" d="M341.4,21.6c-.5-.1-65.1-18.5-140.8-18.5-.2,0-.4,0-.7,0s-.4,0-.7,0c-75.6,0-140.3,18.4-140.8,18.5-3.9,1.1-6.5,4.6-6.5,8.6v206.5l.2,1.7c.2,1.4,20.1,103.3,144.2,157.7,1.1.5,2.4.7,3.6.7s0,0,0,0,0,0,0,0c1.2,0,2.5-.3,3.6-.7,124.1-54.4,144-156.3,144.2-157.7l.2-1.7V30.3c0-4-2.7-7.5-6.5-8.6Z"/>
        <path d="M340,26.6c-.2,0-65.5-18.2-140-18.3-74.5.1-139.8,18.3-140,18.3-1.6.4-2.8,1.9-2.8,3.6v207.2c.1.6,19.3,100.4,141.2,153.9.5.2,1,.3,1.5.3s1-.1,1.5-.3c121.9-53.5,141.1-153.3,141.2-153.9v-.7c0,0,0-206.5,0-206.5,0-1.7-1.1-3.2-2.8-3.6Z"/>
        <path class="cls-2" d="M200,15.8c-30.7,0-59.8,3.2-83.3,6.9v303.7c19.7,20.6,46.7,41.1,83.3,57.4,36.7-16.3,63.6-36.9,83.3-57.4V22.7c-23.5-3.7-52.6-6.8-83.3-6.9Z"/>
        <path d="M159.2,297c-11.5-11.5-16.8-25.1-16.8-38.8h0c0-16.3,7.4-32.6,20.4-45.6h0c10.2-10.2,22.4-16.9,35-19.4h0l-17.7-17.7c-4.7,4.7-23,23-29.8,29.8h0l-2.8,2.7-1,1c-.7.6-1.6,1.1-2.8,1h0c-1.3,0-2.6-.6-3.5-1.6h0l-9.7-9.8c-1-.8-1.7-2.2-1.6-3.5h0c0-1.1.5-2.1,1.2-2.9h0l67.2-67.2-14.8-14.8c-4.7,4.7-23,23-29.8,29.8h0l-2.8,2.7-1,1c-.6.5-1.6,1.1-2.8,1.1h0c-1.3,0-2.6-.6-3.5-1.6h0l-9.7-9.8c-.9-.8-1.7-2.1-1.6-3.5h0c0-1.1.5-2.1,1.2-2.9h0l75.1-75.1c1.5-1.6,3.7-2.6,6.1-2.6h0c2.4,0,4.5,1,6,2.5h0l50,50c.6.7,1.1,1.7,1,2.8h0c0,1.3-.6,2.6-1.6,3.5h0l-.5.5h0c-.3.3-.7.7-1.1,1.1h0c-1,.9-2.2,2.2-3.5,3.5h0c-2.5,2.5-5,5-5,5h0l-1.1,1.1-42.2-42.2-19.2,19.2,70.7,70.7c.6.7,1.1,1.7,1.1,2.8h0c0,1.3-.6,2.6-1.6,3.5h0l-11.3,11.2-42.2-42.2-19.2,19.2,34.8,34.8c6.4,2.8,12.6,6.9,18.3,12.6h0c10.9,11,17,24.2,17,37.4h0c0,9.6-3.3,19-10.2,27.4h0l-1.1,1.4-16.5-16.5.6-1.1c3.1-5.2,4.9-10.6,4.9-15.8h0c0-6.3-2.5-12.6-8.7-18.9h0c-6.7-6.7-14-9.4-21.5-9.4h0c-11.3,0-23.1,6.5-32.3,15.7h0c-9.3,9.3-15.7,21-15.7,32.3h0c0,7.5,2.7,14.8,9.4,21.5h0c5.7,5.7,12,8.1,18.5,8.1h0c7.4,0,15-3.2,21.7-8.8h0l1.1-.9,16.2,16.2-1.3,1.1c-10.4,9.2-22.4,13.9-34.4,13.9h0c-12.7,0-25.3-5.2-35.8-15.7h0Z"/>
        <path class="cls-1" d="M204.7,195.4l-3.2.4c-13,1.8-25.7,8.4-36.3,19h0c-12.5,12.5-19.5,28-19.5,43.3h0c0,12.9,4.9,25.6,15.8,36.5h0c9.9,9.9,21.7,14.7,33.5,14.8h0c10.7,0,21.5-4,31-12h0l-11.8-11.8c-6.9,5.4-14.7,8.6-22.6,8.6h0c-7.3,0-14.5-2.8-20.7-9h0c-7.2-7.2-10.4-15.5-10.4-23.8h0c0-12.5,7-24.9,16.7-34.6h0c9.7-9.7,22-16.7,34.6-16.7h0c8.3,0,16.5,3.1,23.8,10.4h0c6.7,6.7,9.7,14,9.7,21.2h0c0,5.6-1.8,11.1-4.7,16.4h0l12.2,12.2c5.7-7.5,8.3-15.7,8.3-24h0c0-12.2-5.7-24.7-16.1-35.2h0c-5.4-5.5-11.4-9.4-17.5-12h-.3c0-.1-37.5-37.6-37.5-37.6l23.7-23.7,42.2,42.2,9-8.9c.8-.9.6-.5.6-1.2h0c0-.3,0-.4-.2-.6h0l-72.9-72.9,23.7-23.7,42.2,42.2c2.4-2.4,8.1-8.1,9-8.9h0c.8-.9.6-.5.6-1.2h0c0-.3,0-.4-.2-.7h0l-49.9-49.9c-1-1-2.2-1.5-3.7-1.6h0c-1.5,0-2.8.6-3.8,1.6h0l-75,75c-.3.4-.3.5-.3.8h0c0,.6-.1.3.7,1.2h0l9.7,9.8c.9.8.5.6,1.2.7h0c.3,0,.4,0,.7-.2h0l.7-.7h0c0,0,0-.1,0-.1h0c0-.2.2-.3.3-.4h0c.3-.2.6-.6,1.1-1.1h0c.9-.9,2.2-2.2,3.8-3.8h0c3.2-3.2,7.4-7.4,11.6-11.6h0c8.4-8.4,16.8-16.8,16.8-16.8h0l1.1-1.1,19.3,19.3-69.4,69.3c-.3.4-.3.5-.3.8h0c0,.7-.1.3.7,1.2h0l9.7,9.8c.9.8.5.6,1.2.7h0c.3,0,.4,0,.6-.2h0l.8-.8h0s0-.1,0-.1c0,0,.2-.2.3-.3h0c.3-.2.6-.6,1.1-1.1h0c.9-.9,2.2-2.2,3.8-3.8h0c3.2-3.2,7.4-7.4,11.6-11.6h0c8.4-8.4,16.8-16.8,16.8-16.8h0l1.1-1.1,22.2,22.2-1.1,1.1,1.1-1.1,2.3,2.3h0Z"/>
      </g>
    </g>
  </g>
</svg>