<?xml version="1.0" encoding="UTF-8"?>
<svg id="Layer_1" xmlns="http://www.w3.org/2000/svg" version="1.1" viewBox="0 0 400 400">
  <!-- Generator: Adobe Illustrator 30.1.0, SVG Export Plug-In . SVG Version: 2.1.1 Build 136)  -->
  <defs>
    <style>
      .st0 {
        fill: #fdf100;
      }

      .st1 {
        fill: #05774e;
      }

      .st2 {
        fill: #03774f;
      }

      .st3 {
        fill: #027650;
      }

      .st4 {
        fill: #ece906;
      }

      .st5 {
        fill: #06784e;
      }

      .st6 {
        fill: #f9ef02;
      }

      .st7 {
        fill: #fef100;
      }

      .st8 {
        fill: #ff0400;
      }

      .st9 {
        fill: #04774f;
      }

      .st10 {
        fill: #0a7a4d;
      }
    </style>
  </defs>
  <path class="st7" d="M117.7,201.3c2.6-2.5,4.8-5.1,3.7-9.4-10.9,7.6-22.3,6-34.4,1.8,4.5,6.4,9.7,10.1,15.7,10.8-11.3,4.3-23.5,8.6-35.3,13.7-11.8,5-22.5,12.1-33.2,20.5V10.2h332.1v3.3c0,65.4,0,130.7,0,196.1,0,2.6-.8,3.7-3.2,4.7-83.1,33.8-166.2,67.7-249.3,101.6-.8.3-1.6.7-3.2,1.3.5-5.1.7-9.7,1.6-14.3,4.1-23.3,17.1-40.9,35.8-54.6,17-12.4,36.4-19.2,57.1-22.3,12.7-1.9,25.5-2.6,38.4-2,7.9.4,11.2,2.7,13.8,10,1.2,3.4,2.2,4.6,5.4,6.2,3.9-5.9,6-12.4,7-19.3,2.6-16.7.9-33-6.2-48.4-5.5-12.1-15-20.3-26.4-26.6-12.5-6.9-26.1-10.6-40-13.2-1.4-.3-3.1-1.1-3.9-2.3-18.7-25.7-44.2-38.6-75.5-41.1-26.3-2.2-51.7,1.9-76.7,9.8-.1,0-.2.2-.7.8,3.8-.4,7.2-.8,10.7-1.1,25-2.5,49.8-2.8,74.4,3.3,16.2,4,30.9,10.9,43.7,21.8,11.7,9.9,12.8,17.7,4.5,30.6-2,3.2-4.4,6.2-6.9,9.8,1.5-.4,2.6-.5,3.5-.9,6.1-2.5,12.2-5,18.3-7.5,1.6-.6,3.2-1.1,4.9-1.5,7.4-1.5,11,.3,14.4,7.3.2,0,.4,0,.5,0,6-7.2,14.4-6.8,21.6-3.1,14.1,7.4,23.5,19,27.8,34.2,2.6,9.5,4,19.4,5.9,29.1,0,.3,0,.6-.1,1-3.2-.5-5.7-1.4-7.5-4.5-5.1-8.5-13.4-12-22.7-13.5-12.8-2-25.6-1.3-38.4.4-15.9,2.1-31.6,5.1-47.4,7.6-2.2.3-4.4.4-6.6.3-4.9-.3-8.7-2.1-10.4-7.1-.7-2.2-1.9-4.2-2.8-6.2-3.2.5-6.3,1.1-9.6,1.4-.2-.2-.2-.1-.2-.1M110.9,191.3c4.4-.3,7.6-2.7,10.3-6,1.8-2.1,3.7-4.1,6.3-6.9,2.3,4.4,4.3,8.2,6.3,12,1.7-.6,3.5-1,5.3-1.7,9.5-3.8,12.4-12.1,7.3-21-1.1-2-2.7-3.8-4.3-5.3-5.6-5.4-12.4-8.4-19.9-9.7-14.5-2.7-28.7-.7-42.8,3.1-14.6,3.9-28,10.3-40,19.9,16.2-5.3,32.5-9.6,49.7-8.4-.8,10.3.2,13.6,4.5,15.8.4-15.1,1.3-18,6.5-18.9-.2,1-.5,2-.5,2.9,0,3.8-.6,7.8.2,11.5.8,3.8,4.7,5.7,8.7,5.3,4.3-.4,6.9-2.9,7.9-7,.4-1.8,1.5-3.4,2.2-5.1.3,0,.6.1.9.2,0,1.4,0,2.9,0,4.3-.5,6.4-4,11-8.9,14.9,0,0,0,.1.1.2,0-.1,0-.3.4-.2M149.1,44.7c-2.3-8.3-4.6-16.5-6.9-24.9-8.3,0-16.3,0-24.3,0-2.3,0-3.1.8-3.6,2.8-3.8,14.1-7.7,28.2-11.6,42.2-1.1,4-2.2,8-3.4,12.4,6.9,0,13.3,0,19.7,0,.7,0,1.6-1.2,1.8-2.1,1.2-4.3,2.1-8.7,3.2-13.1h9.4c1,4.5,2,8.9,3.1,13.3.2.8,1.1,1.9,1.7,1.9,6.5.1,13,0,19.8,0-3-10.9-6-21.5-9-32.5M70.8,67.3c0-12.4,0-24.9,0-37.3,0-2.2,1-2.8,2.9-2.8,1.9,0,3.3.3,3.2,2.8-.2,3.3,0,6.6,0,10h19.3c0-3,0-5.9,0-8.8,0-5.4-1.6-8.1-6.8-9.6-4-1.2-8.2-1.8-12.4-2.1-6.7-.5-13.4-.2-19.9,2-5.7,1.9-7.7,4.8-7.7,10.7,0,11.3,0,22.7,0,34,0,5.3,1.6,7.7,6.7,9.4,7.6,2.6,15.3,2.8,23,.1,2.4-.9,4.8-2.3,6.6.9.2.3.9.5,1.3.5,3,0,6,0,9,0v-28.3h-23.1v8.6c1.3,0,2.5.2,4,.3,0,3.1.1,6.1,0,9,0,1-.9,2.5-1.6,2.7-1.6.3-3.7,1.1-4.4-2.1M252.3,19.8h-14c-2.4,12.8-4.7,25.5-7.1,38.2-.2,0-.4,0-.6,0-2.3-12.7-4.7-25.4-7-38.1h-20.5c0,.4,0,.7,0,1,4.1,18.2,8.2,36.5,12.4,54.7.2.7,1.3,1.6,2,1.6,9.4.1,18.8,0,28.4,0,4.4-19.1,8.7-38.1,13.1-57.4-2.3,0-4.2,0-6.7,0M305.7,75.7c0,2.2,1.8,1.5,2.9,1.5,14.1,0,28.3,0,42.4,0,.9,0,1.7-.1,2.5-.2v-7.3h-24.5c.6-1.3,1.1-2.2,1.6-3.2,6.4-11.8,12.7-23.6,19.4-35.2,2.1-3.7,2.1-7.3,1.8-11.3h-44.4v7.4h21.4c-.6,1.3-1,2.2-1.5,3.1-6.4,11.7-12.7,23.4-19.2,35-1.7,3.1-2.8,6.1-2.4,10.2M261.7,35.7v41.4h41.3v-7.5h-19.8v-20h17.6v-7.1h-17.6v-15.3h19.7v-7.3h-41.2v15.7M182.9,48.3v-28.3h-21v57.1h39.4v-7.4h-18.4c0-7.2,0-14,0-21.4M335.7,100.9c-1,3.2-2.3,6.4-3.1,9.7-.7,3.2-2.3,4.3-5.6,4-3.5-.3-7,0-11.3,0,3.9,2.9,7,5.3,10.2,7.4,2,1.3,2.2,2.6,1.4,4.7-1.4,3.7-2.5,7.5-3.9,12,3.9-2.8,7.2-5,10.3-7.5,1.8-1.5,3.1-1.4,4.9,0,2.9,2.4,6.1,4.5,9.2,6.8-.4-3.4-1.3-6.4-2.2-9.3-1.8-6-2.3-4.3,2.5-7.8,2.6-1.9,5.2-3.8,8.5-6.2-4.6,0-8.4-.2-12.1,0-2.7.2-3.8-.8-4.6-3.3-1.1-3.7-2.6-7.2-4.2-10.4M196.2,185.7c-.9,1.7-1.8,3.4-2.8,5.1,8.6,2.2,11-4.9,15.8-8.9-5.3-1.6-9.5-.6-13,3.8Z"/>
  <path class="st0" d="M55.3,269.4c1.2-.2,2.4-.3,3.5-.7,18.2-5.9,35.8-13.2,52.5-22.8.4-.2.9-.4,2.1-1-6.3,12.4-10.8,24.7-13.3,37.7-2.5,13-2.7,26.1-1.4,39.6-2.9,1.2-5.9,2.5-8.9,3.7-4.4,1.8-8.9,3.5-13.3,5.5-1.8.8-2.7.5-4-1-17.6-21.2-29.3-45.3-35.1-72.2-.7-3.1-1.1-6.3-1.8-9.4-.3-1.6,0-2.7,1.5-3.7,18.1-11.6,37.9-16.9,59.3-16.4.2,0,.3.1.8.3-13.3,14.2-27.5,27.2-42,40.3-.2.3-.2.5-.2.6.1-.1.2-.3.4-.4Z"/>
  <path class="st6" d="M156.9,217c11.6-1.6,23-3.2,34.4-4.8,9.6-1.3,19.2-3.2,28.9-2.4,3.9.3,7.7,1.1,11.5,1.6,0,.3,0,.5,0,.8-5,.8-9.9,1.6-14.9,2.3-20.6,3-41.2,5.8-61.2,11.6-4,1.1-7.9,1.1-11.1-2.6,3.1-4.2,7.5-5.5,12.4-6.6Z"/>
  <path class="st3" d="M373.7,19.7c0-3.1,0-5.9,0-8.7,0-5.8-2.9-8.7-8.7-8.7-110,0-219.9,0-329.9,0-6,0-8.8,2.8-8.8,8.9,0,71,0,141.9,0,212.9,0,19.7,3.3,38.9,9.8,57.4,32.8,93.3,137.5,140.5,229,103.4,63.5-25.8,108.9-88.9,108.6-161.9-.3-67.7,0-135.3,0-203.3ZM98.6,322c-2.9,1.2-5.9,2.5-8.9,3.7-4.4,1.8-8.9,3.5-13.3,5.5-1.8.8-2.7.5-4-1-17.6-21.2-29.3-45.3-35.1-72.2-.7-3.1-1.1-6.3-1.8-9.4-.3-1.6,0-2.7,1.5-3.7,18.1-11.6,37.9-16.9,59.3-16.4.2,0,.3.1.8.3-13.3,14.2-27.5,27.2-41.8,40.1,0,.4,0,.4,0,.4,1.1-.2,2.3-.3,3.5-.7,18.2-5.9,35.8-13.2,52.5-22.8.4-.2.9-.4,2.1-1-6.3,12.4-10.8,24.7-13.3,37.7-2.5,13-2.7,26.1-1.4,39.6ZM209.9,389.7c.6,0,1.2,0,1.7,0-.6,0-1.2,0-1.7,0ZM365.9,214.8c.1,0,.2.2.3.3,0,0,0,.1,0,.2-.1-.3-.2-.4-.3-.5ZM363.1,214.3c-83.1,33.8-166.2,67.7-249.3,101.6-.8.3-1.6.7-3.2,1.3.5-5.1.7-9.7,1.6-14.3,4.1-23.3,17.1-40.9,35.8-54.6,17-12.4,36.4-19.2,57.1-22.3,12.7-1.9,25.5-2.6,38.4-2,7.9.4,11.2,2.7,13.8,10,1.2,3.4,2.2,4.6,5.4,6.2,3.9-5.9,6-12.4,7-19.3,2.6-16.7.9-33-6.2-48.4-5.5-12.1-15-20.3-26.4-26.6-12.5-6.9-26.1-10.6-40-13.2-1.4-.3-3.1-1.1-3.9-2.3-18.7-25.7-44.2-38.6-75.5-41.1-26.3-2.2-51.7,1.9-76.7,9.8-.1,0-.2.2-.7.8,3.8-.4,7.2-.8,10.7-1.1,25-2.5,49.8-2.8,74.4,3.3,16.2,4,30.9,10.9,43.7,21.8,11.7,9.9,12.8,17.7,4.5,30.6-2,3.2-4.4,6.2-6.9,9.8,1.5-.4,2.6-.5,3.5-.9,6.1-2.5,12.2-5,18.3-7.5,1.6-.6,3.2-1.1,4.9-1.5,7.4-1.5,11,.3,14.4,7.3.2,0,.4,0,.5,0,6-7.2,14.4-6.8,21.6-3.1,14.1,7.4,23.5,19,27.8,34.2,2.6,9.5,4,19.4,5.9,29.1,0,.3,0,.6-.1,1-3.2-.5-5.7-1.4-7.5-4.5-5.1-8.5-13.4-12-22.7-13.5-12.8-2-25.6-1.3-38.4.4-15.9,2.1-31.6,5.1-47.4,7.6-2.2.3-4.4.4-6.6.3-4.9-.3-8.7-2.1-10.4-7.1-.7-2.2-1.9-4.2-2.8-6.2-3.2.5-6.3,1.1-9.4,1.6-.2-.1-.2-.2-.3-.2,2.5-2.6,4.6-5.3,3.5-9.6-10.9,7.6-22.3,6-34.4,1.8,4.5,6.4,9.7,10.1,15.7,10.8-11.3,4.3-23.5,8.6-35.3,13.7-11.8,5-22.5,12.1-33.2,20.5V10.2h332.1v3.3c0,65.4,0,130.7,0,196.1,0,2.6-.8,3.7-3.2,4.7ZM117.8,201.4s0,0,0,0c0,0,0,0,0,0,0,0,0,0,0,0ZM144.5,223.6c3.1-4.2,7.5-5.5,12.1-6.6,11.9-1.6,23.3-3.2,34.7-4.8,9.6-1.3,19.2-3.2,28.9-2.4,3.9.3,7.7,1.1,11.5,1.6,0,.3,0,.5,0,.8-5,.8-9.9,1.6-14.9,2.3-20.6,3-41.2,5.8-61.2,11.6-4,1.1-7.9,1.1-11.1-2.6Z"/>
  <path class="st7" d="M117.7,201.2c0,0,0,.1.1.2,0,0,0,0,0,0,0,0,0-.1,0-.1Z"/>
  <path class="st2" d="M149.2,44.9c3,10.8,5.9,21.4,8.9,32.3-6.9,0-13.4,0-19.8,0-.6,0-1.5-1.1-1.7-1.9-1.1-4.4-2.1-8.7-3.1-13.3h-9.4c-1.1,4.4-2,8.8-3.2,13.1-.2.8-1.2,2.1-1.8,2.1-6.4.2-12.8,0-19.7,0,1.2-4.4,2.3-8.4,3.4-12.4,3.9-14.1,7.8-28.1,11.6-42.2.6-2.1,1.4-2.9,3.6-2.8,8,.2,16,0,24.3,0,2.3,8.3,4.6,16.6,6.9,25.1M126.2,51.6c0,.7-.2,1.3-.3,2.1h5.8c-.9-5.3-1.8-10.3-2.7-15.4-.2,0-.4,0-.6,0-.7,4.3-1.4,8.5-2.2,13.3Z"/>
  <path class="st9" d="M70.8,67.6c.7,2.9,2.9,2.1,4.4,1.8.7-.1,1.5-1.7,1.6-2.7.2-3,0-6,0-9-1.5-.1-2.6-.2-4-.3v-8.6h23.1v28.3c-3.1,0-6,0-9,0-.5,0-1.2-.2-1.3-.5-1.8-3.3-4.1-1.8-6.6-.9-7.6,2.7-15.4,2.5-23-.1-5.1-1.8-6.7-4.1-6.7-9.4,0-11.3,0-22.7,0-34,0-5.9,2-8.8,7.7-10.7,6.5-2.2,13.2-2.5,19.9-2,4.2.3,8.4.9,12.4,2.1,5.2,1.5,6.8,4.2,6.8,9.6,0,2.9,0,5.8,0,8.8h-19.3c0-3.4-.1-6.7,0-10,.1-2.5-1.4-2.8-3.2-2.8-1.9,0-2.9.5-2.9,2.8,0,12.4,0,24.9,0,37.6Z"/>
  <path class="st2" d="M252.6,19.8c2.2,0,4.1,0,6.4,0-4.4,19.3-8.7,38.3-13.1,57.4-9.6,0-19,0-28.4,0-.7,0-1.8-.9-2-1.6-4.2-18.2-8.3-36.5-12.4-54.7,0-.3,0-.6,0-1h20.5c2.3,12.7,4.7,25.4,7,38.1.2,0,.4,0,.6,0,2.3-12.7,4.7-25.4,7.1-38.2,4.9,0,9.5,0,14.3,0Z"/>
  <path class="st2" d="M110.5,191.1c4.9-3.7,8.4-8.3,8.8-14.7.1-1.4,0-2.9,0-4.3-.3,0-.6-.1-.9-.2-.8,1.7-1.8,3.3-2.2,5.1-.9,4.1-3.5,6.6-7.9,7-4,.4-7.9-1.5-8.7-5.3-.7-3.7-.2-7.7-.2-11.5,0-1,.3-1.9.5-2.9-5.1.9-6.1,3.8-6.5,18.9-4.4-2.1-5.3-5.5-4.5-15.8-17.2-1.2-33.5,3.1-49.7,8.4,12-9.6,25.4-16,40-19.9,14.1-3.7,28.3-5.7,42.8-3.1,7.5,1.4,14.4,4.4,19.9,9.7,1.6,1.6,3.2,3.4,4.3,5.3,5.1,8.9,2.2,17.2-7.3,21-1.7.7-3.6,1.2-5.3,1.7-2-3.9-4-7.6-6.3-12-2.6,2.8-4.5,4.8-6.3,6.9-2.7,3.3-5.9,5.6-10.6,5.8-.2-.1-.2-.1-.2-.1Z"/>
  <path class="st5" d="M305.7,75.4c-.4-3.8.7-6.8,2.4-9.9,6.5-11.6,12.8-23.3,19.2-35,.5-.9.9-1.7,1.5-3.1h-21.4v-7.4h44.4c.3,4,.3,7.6-1.8,11.3-6.7,11.6-13,23.5-19.4,35.2-.5.9-1,1.9-1.6,3.2h24.5v7.3c-.8,0-1.6.2-2.5.2-14.1,0-28.3,0-42.4,0-1.1,0-2.8.7-2.9-1.8Z"/>
  <path class="st1" d="M261.7,35.4v-15.4h41.2v7.3h-19.7v15.3h17.6v7.1h-17.6v20h19.8v7.5h-41.3v-41.7Z"/>
  <path class="st2" d="M182.9,48.6c0,7.1,0,13.9,0,21.1h18.4v7.4h-39.4V20h21v28.7Z"/>
  <path class="st8" d="M335.8,100.8c1.4,3.4,3,6.9,4,10.6.7,2.5,1.9,3.5,4.6,3.3,3.7-.3,7.5,0,12.1,0-3.3,2.4-5.9,4.2-8.5,6.2-4.8,3.6-4.3,1.8-2.5,7.8.9,2.9,1.9,5.8,2.2,9.3-3.1-2.2-6.2-4.4-9.2-6.8-1.8-1.5-3.1-1.5-4.9,0-3.1,2.5-6.4,4.7-10.3,7.5,1.4-4.5,2.5-8.3,3.9-12,.8-2.1.6-3.4-1.4-4.7-3.3-2.1-6.3-4.5-10.2-7.4,4.4,0,7.9-.2,11.3,0,3.3.3,4.9-.8,5.6-4,.7-3.3,2-6.5,3.2-9.9Z"/>
  <path class="st10" d="M196.4,185.5c3.4-4.2,7.6-5.3,12.9-3.6-4.8,4-7.2,11.1-15.8,8.9.9-1.7,1.8-3.4,2.9-5.3Z"/>
  <path class="st2" d="M110.5,191.1c0,.1,0,.3,0,.4,0,0,0-.1,0-.3,0-.1,0-.1,0-.1Z"/>
  <path class="st3" d="M55.3,269.4c-.1.1-.3.3-.4.4,0-.1,0-.2.2-.4.2,0,.2,0,.2,0Z"/>
  <path class="st4" d="M126.2,51.4c.8-4.5,1.5-8.8,2.2-13,.2,0,.4,0,.6,0,.9,5,1.8,10.1,2.7,15.4h-5.8c0-.7.2-1.4.3-2.3Z"/>
</svg>