<?xml version="1.0" encoding="utf-8"?>
<!-- Generator: Adobe Illustrator 24.0.0, SVG Export Plug-In . SVG Version: 6.00 Build 0)  -->
<svg version="1.1" id="Layer_1" xmlns="http://www.w3.org/2000/svg" xmlns:xlink="http://www.w3.org/1999/xlink" x="0px" y="0px"
	 viewBox="0 0 550 550" style="enable-background:new 0 0 550 550;" xml:space="preserve">
<style type="text/css">
	.st0{fill:none;stroke:#809EB9;stroke-width:2;}
	.st1{fill:#003D72;}
	.st2{fill:#FFFFFF;}
	.st3{fill:#23378E;}
</style>
<g>
	<path vector-effect="non-scaling-stroke" class="st0" d="M258.6,211.5l-0.1,6.2c0,0.2,0.2,0.4,0.4,0.4l0,0l14.3,0
		c0.3,0,0.5-0.2,0.5-0.5V175c0-0.3-0.2-0.5-0.5-0.5l-38.5,0c-0.4,0-0.5,0.2-0.5,0.5v15.3c0,0.4,0.2,0.6,0.5,0.6l21,0
		c0.6,0,0.7,0.2,0.4,0.7c-5.5,7.6-12.6,11.5-21.4,11.6c-24.9,0.4-36.2-29.1-21.5-47.6c11.9-14.9,32.5-11.9,43.3,2.1
		c1.3,1.6,2.5,3.3,3.7,5c0.2,0.3,0.5,0.4,0.8,0.2l12.1-7.4c0.2-0.1,0.3-0.4,0.2-0.7c-8.8-17.9-26.3-28.8-46.5-25.6
		c-31.6,4.9-44.7,41.1-31.2,67.9c11.2,22.2,42.2,32.3,62.2,14.2c0.1-0.1,0.4-0.1,0.5,0C258.6,211.3,258.6,211.4,258.6,211.5"/>
	<path vector-effect="non-scaling-stroke" class="st0" d="M292,211.3c6,5.4,12.7,8.4,20,9c35.3,2.8,55.6-32.1,44.4-63.1
		c-6.1-16.9-20.7-27.8-38.5-28.5c-18.5-0.7-33.1,10-41.3,26.1c-0.1,0.3,0,0.6,0.2,0.7L289,163c0.2,0.1,0.5,0.1,0.7-0.2c0,0,0,0,0,0
		c9.9-17.1,31.4-24.5,46.3-8c12.4,13.7,8.7,35.6-6.8,44.9c-12.4,7.4-27.4,3-35.5-8.4c-0.1-0.2-0.1-0.4,0.1-0.5
		c0.1,0,0.1-0.1,0.2-0.1l21.2,0c0.4,0,0.5-0.2,0.5-0.5l0-15.3c0-0.3-0.2-0.5-0.5-0.5h-38.5c-0.3,0-0.5,0.2-0.5,0.5v42.7
		c0,0.3,0.2,0.5,0.5,0.5h14.1c0.3,0,0.5-0.2,0.5-0.5l0-6.1C291.4,211,291.6,210.9,292,211.3"/>
</g>
<path class="st1" d="M380,241.4c0,0.2-0.2,0.4-0.4,0.4l0,0H170c-0.2,0-0.4-0.2-0.4-0.4l0,0v-213c0-0.2,0.2-0.3,0.4-0.3l0,0h209.6
	c0.2,0,0.4,0.2,0.4,0.3v0V241.4z M258.6,211.5l-0.1,6.2c0,0.2,0.2,0.4,0.4,0.4l0,0l14.3,0c0.3,0,0.5-0.2,0.5-0.5V175
	c0-0.3-0.2-0.5-0.5-0.5l-38.5,0c-0.4,0-0.5,0.2-0.5,0.5v15.3c0,0.4,0.2,0.6,0.5,0.6l21,0c0.6,0,0.7,0.2,0.4,0.7
	c-5.5,7.6-12.6,11.5-21.4,11.6c-24.9,0.4-36.2-29.1-21.5-47.6c11.9-14.9,32.5-11.9,43.3,2.1c1.3,1.6,2.5,3.3,3.7,5
	c0.2,0.3,0.5,0.4,0.8,0.2l12.1-7.4c0.2-0.1,0.3-0.4,0.2-0.7c-8.8-17.9-26.3-28.8-46.5-25.6c-31.6,4.9-44.7,41.1-31.2,67.9
	c11.2,22.2,42.2,32.3,62.2,14.2c0.1-0.1,0.4-0.1,0.5,0C258.6,211.3,258.6,211.4,258.6,211.5z M292,211.3c6,5.4,12.7,8.4,20,9
	c35.3,2.8,55.6-32.1,44.4-63.1c-6.1-16.9-20.7-27.8-38.5-28.5c-18.5-0.7-33.1,10-41.3,26.1c-0.1,0.3,0,0.6,0.2,0.7L289,163
	c0.2,0.1,0.5,0.1,0.7-0.2c0,0,0,0,0,0c9.9-17.1,31.4-24.5,46.3-8c12.4,13.7,8.7,35.6-6.8,44.9c-12.4,7.4-27.4,3-35.5-8.4
	c-0.1-0.2-0.1-0.4,0.1-0.5c0.1,0,0.1-0.1,0.2-0.1l21.2,0c0.4,0,0.5-0.2,0.5-0.5l0-15.3c0-0.3-0.2-0.5-0.5-0.5h-38.5
	c-0.3,0-0.5,0.2-0.5,0.5v42.7c0,0.3,0.2,0.5,0.5,0.5h14.1c0.3,0,0.5-0.2,0.5-0.5l0-6.1C291.4,211,291.6,210.9,292,211.3z"/>
<path class="st2" d="M258,211.2c-20,18.1-51,8-62.2-14.2c-13.5-26.8-0.5-63,31.2-67.9c20.2-3.1,37.6,7.7,46.5,25.6
	c0.1,0.2,0,0.5-0.2,0.7l-12.1,7.4c-0.3,0.2-0.6,0.1-0.8-0.2c-1.2-1.7-2.4-3.4-3.7-5c-10.8-14-31.5-17-43.3-2.1
	c-14.8,18.6-3.5,48.1,21.5,47.6c8.7-0.2,15.9-4,21.4-11.6c0.3-0.5,0.2-0.7-0.4-0.7l-21,0c-0.4,0-0.5-0.2-0.5-0.6V175
	c0-0.3,0.2-0.5,0.5-0.5l38.5,0c0.3,0,0.5,0.2,0.5,0.5v42.7c0,0.3-0.2,0.5-0.5,0.5l-14.3,0c-0.2,0-0.4-0.2-0.4-0.4l0,0l0.1-6.2
	c0-0.2-0.2-0.4-0.4-0.4C258.2,211.1,258.1,211.2,258,211.2z"/>
<path class="st2" d="M291.4,211.5l0,6.1c0,0.3-0.2,0.5-0.5,0.5h-14.1c-0.3,0-0.5-0.2-0.5-0.5V175c0-0.3,0.2-0.5,0.5-0.5h38.5
	c0.3,0,0.5,0.2,0.5,0.5l0,15.3c0,0.4-0.2,0.5-0.5,0.5l-21.2,0c-0.2,0-0.4,0.2-0.4,0.4c0,0.1,0,0.2,0.1,0.2
	c8.1,11.3,23.1,15.8,35.5,8.4c15.5-9.3,19.3-31.2,6.8-44.9c-14.9-16.4-36.3-9.1-46.3,8c-0.1,0.2-0.4,0.3-0.7,0.2c0,0,0,0,0,0
	l-12.3-7.6c-0.2-0.1-0.3-0.5-0.2-0.7c8.2-16.1,22.8-26.8,41.3-26.1c17.8,0.7,32.4,11.6,38.5,28.5c11.2,31.1-9.1,65.9-44.4,63.1
	c-7.3-0.6-14-3.6-20-9C291.6,210.9,291.4,211,291.4,211.5z"/>
<path class="st1" d="M95.1,361.4c-6.3,6.9-14.2,10.3-23.6,10.4c-21.6,0.1-39.1-16.4-42.7-37c-1.2-6.6-0.8-13.5,0.9-20.7
	c5.2-21.5,22.6-33.9,44.3-33.8c15.6,0,28.4,7.9,36.2,21.4c0.2,0.3,0.1,0.6-0.2,0.7l-19.4,9.5c-0.1,0.1-0.3,0-0.4-0.1c0,0,0,0,0,0
	c-1.2-3.1-3.2-5.6-6.1-7.4c-8.4-5.1-16.2-4.8-23.6,1.2c-8.1,6.6-10.1,18.9-7.7,28.8c2.6,11,12.3,19.8,24,18
	c8.4-1.3,13.9-7.6,17.6-14.8c0.2-0.4,0.1-0.5-0.3-0.5l-21-0.1c-0.4,0-0.5-0.2-0.5-0.5v-16.5c0-0.4,0.2-0.5,0.5-0.5h41.8
	c0.4,0,0.6,0.2,0.6,0.5V370c0,0.3-0.2,0.5-0.5,0.5H96c-0.3,0-0.5-0.2-0.5-0.5l0-8.5C95.5,361.1,95.4,361,95.1,361.4z"/>
<path class="st1" d="M153.5,334.5l0,16.4c0,0.2,0.2,0.4,0.4,0.4l34.8,0c0.2,0,0.4,0.2,0.4,0.4v18.5c0,0.2-0.2,0.4-0.4,0.4h-58.2
	c-0.2,0-0.4-0.2-0.4-0.4l0,0v-89c0-0.2,0.2-0.4,0.4-0.4l0,0h58.2c0.2,0,0.4,0.2,0.4,0.4l0,0l0,18.8c0,0.2-0.2,0.4-0.4,0.4h-34.8
	c-0.2,0-0.4,0.2-0.4,0.4l0,14.4c0,0.2,0.2,0.4,0.4,0.4l29.3,0c0.2,0,0.4,0.2,0.4,0.4v0l-0.2,17.9c0,0.2-0.2,0.4-0.4,0.4h0h-29.1
	C153.6,334.2,153.5,334.3,153.5,334.5z"/>
<path class="st1" d="M247.9,335.4l24.6,34.8c0.1,0.1,0,0.2,0,0.3c0,0-0.1,0-0.1,0h-27.5c-0.2,0-0.5-0.1-0.6-0.3L224.9,339
	c-0.4-0.6-0.6-0.6-0.6,0.2l0,30.9c0,0.4-0.2,0.5-0.6,0.5H202c-0.4,0-0.5-0.2-0.5-0.5l0-88.5c0-0.4,0.2-0.6,0.6-0.6
	c15-0.2,26.9-0.2,35.7,0.1c16.6,0.6,29.2,9.4,29.8,27.2c0.4,14-6.1,22.8-19.4,26.5C247.7,334.9,247.6,335.1,247.9,335.4z
	 M224.3,300.3l-0.1,22c0,0.3,0.3,0.6,0.6,0.6c0,0,0,0,0,0l9.9,0.1c5.9,0,10.8-4.5,10.8-10.2l0-2.7c0-5.6-4.8-10.3-10.7-10.3
	c0,0,0,0,0,0l-9.9,0C224.6,299.7,224.3,300,224.3,300.3z"/>
<path class="st1" d="M353.8,311.5c6.1,19.5-0.9,45.2-20.3,54.7c-4.8,2.3-10.9,3.7-18.3,4.2c-4.6,0.3-15.5,0.3-32.6,0
	c-0.3,0-0.4-0.1-0.4-0.4v-88.5c0-0.4,0.2-0.6,0.6-0.6c10.2-0.1,20.3-0.1,30.3,0C333.4,281,347.9,292.8,353.8,311.5z M305.3,302.3
	l-0.1,46.8c0,0.3,0.2,0.5,0.5,0.5l7.4,0c10.1,0,18.3-8.6,18.3-19.2l0-9.3c0-10.6-8.2-19.3-18.3-19.3c0,0,0,0,0,0l-7.4,0
	C305.5,301.8,305.3,302,305.3,302.3z"/>
<path class="st1" d="M415.1,354.1h-30.6c-0.1,0-0.3,0.1-0.3,0.2l-4.2,16c0,0.1-0.2,0.2-0.3,0.2h-23.9c-0.2,0-0.3-0.1-0.3-0.3
	c0,0,0-0.1,0-0.1l30-89c0-0.1,0.2-0.2,0.3-0.2l27.2,0c0.1,0,0.3,0.1,0.3,0.2l31.7,88.9c0.1,0.2,0,0.3-0.2,0.4c0,0-0.1,0-0.1,0
	l-24.3,0c-0.1,0-0.3-0.1-0.3-0.2l-4.5-16C415.4,354.2,415.3,354.1,415.1,354.1z M399.6,302.8c-0.2-0.6-0.4-0.6-0.6,0l-9.1,32.2
	c-0.1,0.4,0,0.6,0.4,0.6h19.2c0.4,0,0.5-0.2,0.4-0.5L399.6,302.8z"/>
<path class="st1" d="M471.3,336.9c0,9,6.9,13.4,15.2,12.5c8-0.9,12.1-5.4,12-13.6c-0.1-18.1-0.1-36.3,0-54.4c0-0.3,0.2-0.5,0.5-0.5
	h22.2c0.2,0,0.4,0.2,0.4,0.4c0,18.7,0,37.5,0,56.3c0,2.4-0.7,6.1-2.2,11c-3.3,11-10.5,17.8-21.7,20.5c-22.5,5.5-48.5-1.7-48.8-29.5
	c-0.2-19.4-0.4-38.8-0.4-58.2c0-0.2,0.2-0.4,0.5-0.4H471c0.2,0,0.4,0.2,0.4,0.4C471.5,299.8,471.4,318.3,471.3,336.9z"/>
<circle class="st3" cx="217.6" cy="428.5" r="12.5"/>
<path class="st3" d="M85.4,456.1c8.5-7.5,15.8-11.4,27.4-10c7.7,0.9,13.5,4.5,17.4,10.9c0.2,0.3,0.4,0.3,0.7,0
	c7.5-8.8,17.2-12.4,28.9-11c9.6,1.2,17.6,8.1,17.7,18.3c0.2,11.9,0.2,23.7,0.3,35.6c0,8.8,4.6,7.2,11.2,7.2c0.3,0,0.5,0.2,0.5,0.5
	v10.7c0,0.4-0.3,0.7-0.7,0.7c0,0,0,0,0,0H148c-0.6,0-1-0.4-1-1v-10c0-0.5,0.4-0.9,0.9-0.9c3.5,0,7.6,0,7.7-4.8
	c0.1-10,0.1-19.9,0.1-29.9c-0.1-8.4-1.8-13.4-11.3-13.1c-9.5,0.3-12.2,8.4-12.2,16.7c0,8.1-0.1,16.2-0.1,24.3
	c-0.1,6.7,3.1,6.8,8.6,6.8c0.3,0,0.5,0.2,0.5,0.5l0,10.5c0,0.6-0.5,1-1,1l0,0h-38c-0.5,0-1-0.4-1-1v-10c0-0.5,0.4-0.9,0.9-0.9
	c3.8-0.1,8.1,0.1,8.1-5.1c0-9.8,0-19.7,0-29.5c0-9.1-3.4-14.9-13.5-12.9c-7.3,1.4-9.7,7.8-9.8,14.4c-0.2,9.1-0.2,18.2-0.2,27.2
	c0,5.5,3.6,6.3,8.3,5.7c0.3,0,0.6,0.2,0.7,0.5c0,0,0,0.1,0,0.1v10.7c0,0.4-0.3,0.8-0.7,0.8L54,519c-0.8,0-1.2-0.4-1.2-1.2l0-10.2
	c0-0.3,0.2-0.5,0.5-0.5c4.6-0.1,10.8,1.6,10.9-4.8c0.2-12.2,0.3-24.5,0.3-36.7c0-6.9-6.5-5.1-11.2-5.5c-0.3,0-0.5-0.2-0.5-0.5v-11
	c0-0.4,0.3-0.7,0.7-0.7c0,0,0,0,0,0h31c0.4,0,0.7,0.3,0.7,0.7c0,0,0,0,0,0.1l-0.5,7.3C84.7,456.4,84.9,456.5,85.4,456.1z"/>
<path class="st3" d="M280.1,458.1c1.2-1.3,2.5-2.5,3.8-3.8c8.3-8,18.1-10.5,29.4-7.4c6.6,1.8,11,5.5,13.2,11.1
	c1,2.6,1.5,7.3,1.6,14.2c0,9.9,0.1,19.9,0.2,29.8c0.1,6.6,6.9,5,11.1,5c0.3,0,0.5,0.2,0.5,0.5l0,10.5c0,0.6-0.4,1-1,1h-41.3
	c-0.5,0-1-0.4-1-1v-10.5c0-0.3,0.2-0.5,0.5-0.5c4.8-0.1,9.2,0.8,9-5.9c-0.3-9.9-0.1-19.9-0.2-29.9c-0.1-10.2-7.6-13.6-16.5-10.4
	c-6.8,2.4-7.9,9.6-8,16c-0.1,7.8-0.1,15.6,0,23.4c0.1,7,2.5,6.7,8.5,6.8c0.3,0,0.5,0.2,0.5,0.5V518c0,0.6-0.4,1-1,1h-40.8
	c-0.4,0-0.8-0.3-0.8-0.8v-10.7c0-0.3,0.2-0.5,0.5-0.5c3.9-0.1,10.5,1.5,10.6-4.6c0.2-12.2,0.3-24.5,0.3-36.7c0-7-6.3-5.4-10.9-5.7
	c-0.3,0-0.5-0.2-0.5-0.5v-11.2c0-0.3,0.2-0.5,0.5-0.5h30.7c0.8,0,1.2,0.4,1.1,1.2l-0.4,9C279.6,458.4,279.8,458.4,280.1,458.1z"/>
<path class="st3" d="M362.3,457.9c-0.5,0.2-0.5,0.4-0.1,0.6c5.9,3.4,8,7.9,4.8,13.6c-2.7,4.8-9.5,6.5-14.5,4.4
	c-7.8-3.3-9-14.9-4.5-21.3c8-11.2,29.8-10.4,41.3-8.4c10.9,1.9,19.3,8.4,19.4,20.2c0.1,12.2,0.1,25,0.1,38.5c0,1.3,1,2.3,2.3,2.4
	l0.9,0c2,0,3-0.9,3.1-3l0.2-11.8c0-0.3,0.2-0.5,0.5-0.5h8.7c0.3,0,0.5,0.2,0.5,0.5c0.9,10.3,0.9,23.7-11.1,27.3
	c-9.1,2.8-21.4,1.2-26.1-8.5c-0.2-0.4-0.6-0.5-1-0.4c-0.1,0-0.2,0.1-0.2,0.2c-4.9,5.6-11.2,8.8-18.9,9.7
	c-15.3,1.8-27.4-7.6-24.8-23.8c1.1-6.8,3.8-9.8,10.2-12.8c5.8-2.7,11.9-4.5,18.3-5.4c1.3-0.2,3.6-0.9,6.9-2c6.1-2.1,10-5,8.3-12
	C384.3,455.7,369.7,455.2,362.3,457.9z M386.6,485.8c-5.4,1.9-10.3,3.5-14.6,4.8c-4.7,1.3-7.1,4.2-7,8.5c0,12.5,16.3,9.9,20.6,2
	c2.1-3.8,1.2-10.7,1.2-15.2C386.7,485.9,386.7,485.8,386.6,485.8C386.6,485.8,386.6,485.8,386.6,485.8z"/>
<path class="st3" d="M442.6,513.7l-1,4.3c-0.1,0.6-0.6,1-1.2,1l-9.4,0c-0.5,0-0.9-0.4-0.9-0.9l0-25.1c0-0.5,0.4-0.9,0.9-0.9
	c0,0,0,0,0,0l9.5,0c0.6,0,1,0.3,1.2,0.9c4.2,12.8,15.2,18.9,28.2,16.3c5.7-1.1,9.5-6.3,4.3-11.3c-1.1-1-4-2.1-8.8-3.3
	c-11.7-2.8-30.4-5.2-34.5-18.2c-0.9-2.7-1.1-6-0.8-10c0.9-11.1,9.3-18,19.8-19.9c11.3-2,22.4-0.9,31.6,6.4c0.4,0.3,0.6,0.2,0.7-0.2
	l1.1-4.4c0.1-0.3,0.3-0.5,0.7-0.5l9.2,0c0.5,0,0.9,0.4,0.9,0.9V472c0,0.5-0.4,1-1,1c0,0,0,0,0,0l-10.3,0c-0.4,0-0.8-0.3-1-0.7
	c-4.2-10.7-12.3-15.5-24.2-14.6c-4.2,0.3-10.3,3.7-7.4,8.9c0.7,1.3,2.1,2.3,4.2,3c5.5,1.8,11,3.2,16.7,4.3
	c9.7,1.9,22.5,6.5,24.9,17.4c5.6,24.9-18,33.4-37.9,29.4c-5.5-1.1-10.4-3.6-14.9-7.4C443,513.2,442.7,513.3,442.6,513.7z"/>
<path class="st3" d="M207.5,466.8c0-8.3-5.6-6.5-11.3-6.6c-0.4,0-0.6-0.2-0.6-0.6l0-10.9c0-0.5,0.4-0.8,0.8-0.8h32.3
	c0.4,0,0.8,0.3,0.8,0.8c0,17.7,0,35.5,0.1,53.3c0,6.8,6.7,5.2,11.1,5.3c0.3,0,0.5,0.2,0.5,0.5l0,10.6c0,0.5-0.4,0.9-0.9,0.9l0,0
	l-43.7,0c-0.5,0-1-0.4-1-1l0-10.5c0-0.3,0.2-0.5,0.5-0.5c5.2-0.1,11.2,1.9,11.3-5.9C207.4,489.7,207.5,478.2,207.5,466.8z"/>
</svg>
