<svg id="Layer_2" data-name="Layer 2" xmlns="http://www.w3.org/2000/svg" xmlns:xlink="http://www.w3.org/1999/xlink" viewBox="0 0 895 600"><defs><style>.cls-1{fill:none;}.cls-2{clip-path:url(#clip-path);}.cls-3{fill:#fff;}.cls-4{fill:red;}.cls-5{clip-path:url(#clip-path-2);}.cls-6{clip-path:url(#clip-path-3);}.cls-7{clip-path:url(#clip-path-4);}.cls-8{clip-path:url(#clip-path-5);}.cls-9{clip-path:url(#clip-path-6);}.cls-10{clip-path:url(#clip-path-7);}.cls-11{clip-path:url(#clip-path-8);}.cls-12{clip-path:url(#clip-path-9);}.cls-13{fill:#939598;}</style><clipPath id="clip-path"><path class="cls-1" d="M34.72,0H859.28A30.82,30.82,0,0,1,890,30.93V569.07A30.82,30.82,0,0,1,859.28,600H34.72A30.82,30.82,0,0,1,4,569.07V30.93A30.82,30.82,0,0,1,34.72,0Z"/></clipPath><clipPath id="clip-path-2"><path class="cls-1" d="M212.78,59.1a315.15,315.15,0,0,0,0,116.5C240.06,320.08,367,429.35,519.35,429.35L-1,420.67c152.4,0,145.64-100.59,172.92-245.07a313.12,313.12,0,0,0,5.43-58.25,313.12,313.12,0,0,0-5.43-58.25"/></clipPath><clipPath id="clip-path-3"><path class="cls-1" d="M134.09,96.92a313.31,313.31,0,0,0,58.26,5.43,313.12,313.12,0,0,0,58.25-5.43C395.08,69.64,386.79,151.4,386.79-1L504.35,444.35c0-152.4-109.27-279.29-253.75-306.57a315.15,315.15,0,0,0-116.5,0"/></clipPath><clipPath id="clip-path-4"><path class="cls-1" d="M726.11,58.71a315.21,315.21,0,0,0,0,116.51C753.4,319.69,741.5,430.33,893.9,430.33L512.33,420.28c152.41,0,145.64-100.59,172.92-245.06a315.21,315.21,0,0,0,0-116.51"/></clipPath><clipPath id="clip-path-5"><path class="cls-1" d="M647.43,96.54A314,314,0,0,0,705.68,102a314.08,314.08,0,0,0,58.26-5.43C908.41,69.25,895,152.4,895,0l-.33,443.33c0-152.4,13.74-278.65-130.73-305.93a315.21,315.21,0,0,0-116.51,0"/></clipPath><clipPath id="clip-path-6"><path class="cls-1" d="M725.68,421.71a315.78,315.78,0,0,0,0,116.51c10.77,57,1.11,51.7,10.77,57C751.27,603.37,793.73,600,886,600l-345.74-1c89.88,0,128.37.66,139.07-5.1,7.45-4-5.7,3.58,5.5-55.68a315.21,315.21,0,0,0,0-116.51"/></clipPath><clipPath id="clip-path-7"><path class="cls-1" d="M647,459.54a315.21,315.21,0,0,0,116.51,0C908,432.25,894.57,515.4,894.57,363l-.18,237c0-152.4,13.59-72.27-130.88-99.55a315.21,315.21,0,0,0-116.51,0"/></clipPath><clipPath id="clip-path-8"><path class="cls-1" d="M207.91,420.38a315.21,315.21,0,0,0,0,116.51c10.76,57,1.11,51.69,10.76,57,14.82,8.14,57.28,4.78,149.55,4.78l-345.74-1c89.89,0,128.37.65,139.08-5.1,7.44-4-5.7,3.58,5.49-55.68a314.17,314.17,0,0,0,5.43-58.26,314.06,314.06,0,0,0-5.43-58.25"/></clipPath><clipPath id="clip-path-9"><path class="cls-1" d="M129.22,458.2a315.21,315.21,0,0,0,116.51,0c144.47-27.28,131.06,55.87,131.06-96.53l-.17,237c0-152.41,13.58-72.27-130.89-99.56a315.21,315.21,0,0,0-116.51,0"/></clipPath></defs><title>Geórgia-152</title><g class="cls-2"><rect class="cls-3" x="-1" y="-1" width="900" height="600"/><path class="cls-4" d="M386.79-1V239H-1V359H386.79V599H506.11V359H893.9V239H506.11V-1Z"/><g id="smallcross"><g class="cls-5"><path id="varm" class="cls-4" d="M212.78,59.1a167.89,167.89,0,0,1-20.43,1.25,167.89,167.89,0,0,1-20.43-1.25A164.78,164.78,0,0,1,64.78,0c-.07-.08-5.05,0-5.15,0C42,0,47.61,0,42,0,34.41.05,30.11,0,28.28,0c-.72,0-1,0-1,0l0,.55V339.35A165,165,0,0,1,171.92,175.6a167.58,167.58,0,0,1,40.86,0"/></g><g class="cls-6"><path class="cls-4" d="M0,0c91.13,0,135.35,26.27,135.35,117.4S99.13,239,8,239H386.79c-91.13,0-137.44-30.52-137.44-121.65S295.65,6,386.78,6Z"/></g></g><g id="smallcross-2" data-name="smallcross"><g class="cls-7"><path id="varm-2" data-name="varm" class="cls-4" d="M726.11,58.71A165.9,165.9,0,0,1,705.68,60a166.14,166.14,0,0,1-20.43-1.26A164.73,164.73,0,0,1,578.11-.38c-.07-.09-5,0-5.15,0-17.65,0-12,0-17.65,0-7.57,0-11.87,0-13.7,0-.72,0-1,0-.94,0V339A165.15,165.15,0,0,1,726.11,175.22"/></g><g class="cls-8"><path class="cls-4" d="M513.33-.43c91.13,0,135.35,26.27,135.35,117.4S612.46,238.62,521.33,238.62H900.12C809,238.62,762.68,208.09,762.68,117S809,5.62,900.11,5.62Z"/></g></g><g id="smallcross-3" data-name="smallcross"><g class="cls-9"><path id="varm-3" data-name="varm" class="cls-4" d="M725.69,421.71a165,165,0,0,1-148-59.09c-.07-.09-5,0-5.15,0-17.65,0-12-.05-17.65,0-7.57.05-11.87,0-13.7,0-.72,0-1,0-.94-.05l0,.55V599c0-84.21,63.08-50.72,144.56-60.78a167.66,167.66,0,0,1,40.87,0"/></g><g class="cls-10"><path class="cls-4" d="M512.91,362.57c91.12,0,135.35,26.27,135.35,117.4S611.79,599,520.67,599l373.72,1c-91.12,0-132.13-28.86-132.13-120s41.19-111.33,132.32-111.33Z"/></g></g><g id="smallcross-4" data-name="smallcross"><g class="cls-11"><path id="varm-4" data-name="varm" class="cls-4" d="M207.91,420.38a165,165,0,0,1-148-59.09c-.07-.09-5,0-5.16,0-17.65,0-12-.05-17.65,0-7.56.05-11.86,0-13.69,0-.73,0-1,0-.95,0l0,.56V597.67c0-84.21,63.08-50.72,144.57-60.78a166.26,166.26,0,0,1,40.86,0"/></g><g class="cls-12"><path class="cls-4" d="M-4.87,361.23c91.12,0,135.35,26.28,135.35,117.4S94,597.67,2.89,597.67l373.73,1c-91.13,0-132.14-28.86-132.14-120S285.67,367.31,376.8,367.31Z"/></g></g></g><g id="Layer_1" data-name="Layer 1"><path class="cls-13" d="M863.1,6A25,25,0,0,1,888,30.9V569a24.9,24.9,0,0,1-24.9,24.9H32.9A24.82,24.82,0,0,1,8,569.1V30.9A25,25,0,0,1,32.9,6H863.1m0-6H32.9A30.86,30.86,0,0,0,2,30.9H2V569a30.88,30.88,0,0,0,30.9,31H863a30.86,30.86,0,0,0,30.9-30.9V30.9A30.71,30.71,0,0,0,863.1,0Z"/></g></svg>