<?xml version="1.0" encoding="UTF-8"?>
<svg id="Camada_1" xmlns="http://www.w3.org/2000/svg" version="1.1" xmlns:xlink="http://www.w3.org/1999/xlink" viewBox="0 0 1000 1000">
  <!-- Generator: Adobe Illustrator 29.1.0, SVG Export Plug-In . SVG Version: 2.1.0 Build 142)  -->
  <defs>
    <style>
      .st0 {
        mask: url(#mask);
      }

      .st1 {
        fill: #fff;
      }

      .st1, .st2, .st3 {
        fill-rule: evenodd;
      }

      .st2 {
        fill: #fbb92c;
      }

      .st3 {
        fill: #1e4389;
      }
    </style>
    <mask id="mask" x="15.82" y="12.15" width="975.7" height="975.7" maskUnits="userSpaceOnUse">
      <g id="mask-2">
        <polygon id="path-1" class="st1" points="15.82 12.15 991.52 12.15 991.52 987.75 15.82 987.75 15.82 12.15"/>
      </g>
    </mask>
  </defs>
  <g id="GSW">
    <g id="Group">
      <g id="Group-3">
        <g class="st0">
          <path id="Fill-1" class="st3" d="M991.52,500c0,269.43-218.42,487.85-487.85,487.85S15.82,769.43,15.82,500,234.24,12.15,503.67,12.15s487.85,218.42,487.85,487.85"/>
        </g>
      </g>
      <path id="Fill-4" class="st2" d="M503.67,926.87c-53.21,0-104.93-9.68-153.16-28.19-1.98-29.2-3.89-64.09-5.73-102.25l-38.94-13.26.02,95.3c-6.21-3.26-12.35-6.67-18.4-10.24l.02-90.48,18.36.65v.6l19.91.11,35.95,1.27,449.24,15.91c-1.79,1.86-3.59,3.72-5.42,5.55-80.63,80.62-187.82,125.02-301.84,125.02h0ZM176.18,773.81l67.07,2.37c-1.34,20.72-2.81,40.39-4.41,58.64-12.86-10.21-25.23-21.2-37.01-32.98-9.02-9.02-17.55-18.38-25.65-28.03h0ZM252.22,564.55c-1.41,54.16-3.41,110.08-6.11,162.14l-36.74,1.24,42.85-163.37ZM254.95,378.06c-.07,37.7-.54,83.09-1.48,131.68l-57.34,218.63-39.6,1.33,98.42-351.64ZM106.41,656.76c-9.83-24.93-17.28-50.82-22.25-77.38,15.77-12.56,37.97-32.98,64.43-64.8l-42.18,142.18ZM114.18,675.2l55.62-187.49c22.5-29.94,47.3-67.56,73.34-114.59l-99.69,356.17c-11.09-17.35-20.86-35.42-29.27-54.09h0ZM305.76,394.85v26.26s-19.88,0-19.88,0v24.39h19.89v26.26s-19.89,0-19.89,0v24.39h19.9v49.25s-19.9,0-19.9,0v24.4h19.91v50.65s-19.91,0-19.91,0v24.39h19.93l.02,79.83-18.34.62.08-371.33h18.19v16.5s-19.87,0-19.87,0v24.39h19.88ZM833.84,706.92l-11.41-25.5c18.82,7.59,37.76,14.86,56.81,21.83-.4.73-.8,1.45-1.2,2.18l-44.2,1.48ZM848.4,751.87c-2.89,3.93-5.84,7.82-8.87,11.67l-496.22-9.72-.21-4.78,505.3,2.84ZM375.06,722.35l-33.55,1.13c-2.06-49.12-3.96-100.73-5.67-150.69l39.22,149.57ZM426.82,720.61l-38.74,1.3-54.15-206.45c-1.71-53.23-3.17-102.46-4.29-142.06l97.18,347.21ZM484.6,718.66l-44.72,1.5-98.41-351.61c8.63,9.51,17.47,18.81,26.55,27.85,9.53,9.51,19.3,18.78,29.24,27.85l87.33,294.4ZM538.21,716.86l-40.5,1.36-82.45-277.92c5.83,5.07,11.72,10.08,17.65,15.03,10.42,8.67,20.99,17.14,31.71,25.43l73.59,236.1ZM593.44,715.01l-42.06,1.41-69.33-222.41c16.03,11.96,32.35,23.52,48.93,34.7l62.45,186.29ZM646.86,713.21l-40.18,1.35-58.48-174.43c8.94,5.82,17.94,11.55,27.01,17.16l18.67,11.44,2.52,1.48,50.46,142.99ZM705.06,711.25l-44.89,1.51-46.79-132.62c2.96,1.72,5.89,3.49,8.88,5.14l9.56,5.32c6.39,3.53,12.73,7.14,19.15,10.61l14.82,7.83,39.26,102.2ZM751.85,651.17c17.72,8.06,35.58,15.82,53.55,23.29l14.73,32.93-44.1,1.48-24.18-57.69ZM762.46,709.32l-43.97,1.48-35.67-92.86,6.99,3.51,19.58,9.8c6.56,3.19,13.18,6.27,19.77,9.41,1.87.88,3.75,1.73,5.62,2.61l27.69,66.05ZM201.83,198.16c80.63-80.62,187.82-125.02,301.84-125.02s221.22,44.4,301.84,125.02c80.63,80.63,125.03,187.82,125.03,301.84,0,61.33-12.87,120.67-37.29,174.98-51.74-17.45-102.73-37.15-152.64-59.32-6.55-2.94-13.13-5.81-19.66-8.79l-19.47-9.19-9.74-4.59-9.65-4.79-19.27-9.61c-6.39-3.26-12.71-6.66-19.07-9.99l-9.53-5.01c-3.18-1.67-6.28-3.46-9.44-5.18l-18.84-10.44-18.61-10.82c-49.51-29.06-97.22-61.27-142.19-96.93-22.46-17.85-44.26-36.55-65.02-56.31-10.38-9.87-20.47-20.04-30.25-30.46-2.44-2.61-4.88-5.22-7.24-7.89-2.4-2.64-4.76-5.31-7.08-8.01-2.35-2.68-4.61-5.41-6.87-8.14-.09-.11-.18-.22-.26-.33-.85-31.35-1.31-50.09-1.31-50.09l-21.38-5.03v28.64s-18.16,0-18.16,0v-30.07s-22.91,5.45-22.91,5.45l.18,10.92-10.71,5.83c.29,8.97.51,20.68.65,34.63-8.67,15.13-103.28,178.54-174.03,228.81-2.6-19.15-3.95-38.6-3.95-58.26,0-114.02,44.4-221.22,125.02-301.84h0ZM822.76,180.91c-85.23-85.23-198.55-132.17-319.09-132.17s-233.86,46.94-319.09,132.17C99.35,266.14,52.41,379.46,52.41,500s46.94,233.86,132.17,319.09c85.23,85.23,198.55,132.17,319.09,132.17s233.86-46.94,319.09-132.17c85.23-85.23,132.17-198.55,132.17-319.09s-46.94-233.86-132.17-319.09h0Z"/>
    </g>
  </g>
</svg>