<?xml version="1.0" encoding="UTF-8"?>
<svg id="Layer_1" xmlns="http://www.w3.org/2000/svg" version="1.1" viewBox="0 0 400 400">
  <!-- Generator: Adobe Illustrator 30.1.0, SVG Export Plug-In . SVG Version: 2.1.1 Build 136)  -->
  <defs>
    <style>
      .st0 {
        fill: #a9f1fd;
      }

      .st1 {
        fill: #a7f0f6;
      }
    </style>
  </defs>
  <g>
    <path d="M199.9,3.14c-.1.06-2.95,14.74-6.34,32.6-3.41,17.87-6.23,32.52-6.24,32.56-.02.04-.43.14-.91.2-.47.08-1.83.32-3.01.53-1.18.22-3.27.69-4.63,1.02-1.36.33-3.25.87-4.22,1.16l-1.77.53c-34.75-39.73-44.94-51.28-45.05-51.3-.1,0-.2.1-.2.24s5,14.26,11.11,31.4c6.13,17.14,11.15,31.32,11.19,31.5.06.24-.14.47-.77.95-.47.35-1.62,1.28-2.54,2.09-.91.79-2.4,2.15-3.31,2.99l-1.64,1.56c-53.13-10.54-68.75-13.63-68.99-13.67-.33-.06-.43-.02-.41.16.02.14,12.15,8.06,26.95,17.61,14.79,9.55,26.95,17.41,27.03,17.49.06.06-.08.51-.33,1.02l-.43.93c-55,0-61.23.04-61.23.2,0,.1.43,1.02.98,2.03.53,1.02,1.44,2.82,2.01,4,.57,1.2,1.48,3.21,2.03,4.49.55,1.28,1.44,3.47,1.97,4.89.53,1.4,1.36,3.78,1.83,5.28.49,1.5,1.2,3.9,1.62,5.36.39,1.46,1.02,3.9,1.36,5.44.35,1.54.89,4.18,1.2,5.85.3,1.65.73,4.43.95,6.15.24,1.71.53,4.31.65,5.77.14,1.44.33,3.74.43,5.12.14,1.81.22,23.15.3,79.92.08,70.94.12,77.6.35,79.06.16.89.45,2.46.67,3.53s.67,2.76.98,3.76c.32,1,.87,2.56,1.22,3.45.33.87,1.18,2.68,1.85,4,.69,1.32,1.77,3.23,2.44,4.24.67,1,1.81,2.6,2.54,3.53s2.29,2.68,3.49,3.88c1.2,1.22,3.07,2.95,4.16,3.84,1.1.89,2.97,2.25,4.16,3.03,1.18.79,3.53,2.11,5.2,2.92,1.65.83,3.74,1.77,4.63,2.09.87.33,2.52.89,3.66,1.22,1.14.35,3.33.87,4.87,1.18,1.54.3,5.56,1.08,8.94,1.75,3.37.67,8.37,1.69,11.09,2.3s7.13,1.65,9.81,2.3c2.68.67,6.6,1.69,8.71,2.27,2.11.59,4.91,1.38,6.23,1.79,1.32.39,4.04,1.26,6.07,1.93,2.01.65,5.06,1.73,6.78,2.36,1.71.65,4.24,1.65,5.59,2.25,1.36.57,3.55,1.6,4.87,2.27,1.32.65,3.29,1.73,4.39,2.38,1.1.65,2.7,1.71,3.55,2.34.85.65,2.17,1.71,2.92,2.4l1.36,1.24c1.99-1.85,3.21-2.9,4.04-3.51.81-.59,2.27-1.58,3.23-2.19.97-.59,2.97-1.71,4.47-2.46,1.48-.77,4-1.93,5.58-2.6,1.58-.67,3.78-1.56,4.87-1.97,1.1-.41,3.11-1.14,4.47-1.62,1.36-.49,3.98-1.34,5.83-1.93,1.85-.57,5.12-1.54,7.27-2.15,2.15-.61,6.46-1.75,9.57-2.54,3.11-.77,7.78-1.89,10.38-2.46,2.58-.57,6.99-1.52,9.81-2.09,2.82-.57,6.54-1.3,8.29-1.62,1.77-.32,4.27-.87,5.59-1.2,1.32-.33,3.29-.93,4.39-1.32s2.74-1.04,3.66-1.46c.93-.41,2.58-1.22,3.68-1.83,1.08-.59,2.82-1.64,3.82-2.3,1-.69,2.62-1.85,3.59-2.62s2.82-2.46,4.08-3.74c1.28-1.28,2.88-3.01,3.53-3.84.67-.85,1.67-2.21,2.27-3.03.57-.85,1.5-2.32,2.05-3.29s1.42-2.66,1.91-3.76c.49-1.1,1.18-2.82,1.54-3.84.35-1,.91-2.88,1.22-4.16.32-1.28.73-3.33.93-4.57l.37-2.23c.16-136.74.22-156.12.37-157.87.1-1.28.33-3.74.51-5.48.18-1.75.49-4.41.71-5.93.22-1.52.59-3.76.81-5,.24-1.22.71-3.53,1.06-5.12.35-1.58.98-4.18,1.42-5.75.43-1.6,1.32-4.47,1.97-6.4.65-1.93,1.62-4.63,2.17-6.01.53-1.36,1.38-3.37,1.87-4.47.47-1.1,1.69-3.62,2.7-5.59.98-1.99,1.81-3.66,1.81-3.72,0-.08-13.79-.12-30.65-.12h-30.65l-.95-1.93c38.91-25.1,51.14-33,52.28-33.73,1.3-.85,2.01-1.4,1.91-1.48-.1-.1-13.63,2.52-34.85,6.72l-34.67,6.88c-2.92-2.8-4.61-4.31-5.67-5.2-1.04-.89-2.09-1.71-2.29-1.83l-.37-.24c18.18-51.14,22.48-63.41,22.38-63.49s-1.69,1.62-3.72,3.94c-1.95,2.23-12.1,13.81-22.54,25.75-18.2,20.78-19.01,21.69-19.4,21.53-.22-.08-1.48-.47-2.78-.85-1.32-.37-3.45-.93-4.73-1.2-1.26-.28-3.27-.67-4.45-.87l-2.17-.37c-9.44-49.58-12.25-64.28-12.33-64.65-.08-.41-.2-.63-.3-.55Z"/>
    <path class="st1" d="M200.01,398.56l-2.38-2.17c-.69-.63-1.94-1.65-2.82-2.32-.74-.55-2.3-1.59-3.4-2.24-1.07-.63-3.01-1.7-4.29-2.33-1.38-.7-3.52-1.7-4.78-2.23-1.4-.61-3.92-1.61-5.55-2.23-1.84-.68-4.82-1.73-6.71-2.34-2.06-.68-4.77-1.54-6.04-1.92-1.4-.44-4.52-1.32-6.2-1.79-2.02-.55-5.92-1.57-8.67-2.25-2.71-.66-7.12-1.7-9.78-2.3-2.64-.59-7.58-1.61-11.05-2.3-3.38-.67-7.4-1.46-8.93-1.75-1.61-.33-3.84-.85-5.03-1.22-1.15-.34-2.85-.9-3.76-1.25-1-.36-3.22-1.38-4.76-2.15-1.68-.81-4.1-2.17-5.36-3.01-1.27-.84-3.18-2.24-4.26-3.11-1.11-.9-3.02-2.68-4.29-3.96-1.28-1.29-2.87-3.08-3.6-4.01-.79-1-1.97-2.66-2.61-3.62-.72-1.08-1.84-3.06-2.52-4.37-.66-1.29-1.55-3.19-1.92-4.15-.36-.91-.93-2.51-1.25-3.54-.32-1.01-.79-2.75-1.02-3.91-.22-1.08-.52-2.67-.68-3.56-.26-1.6-.3-6.11-.38-79.32-.08-56.42-.16-78.05-.29-79.81-.1-1.38-.29-3.67-.43-5.09-.11-1.41-.4-3.96-.64-5.71-.23-1.79-.66-4.55-.94-6.09-.31-1.67-.84-4.27-1.19-5.78-.31-1.44-.92-3.8-1.35-5.38-.43-1.53-1.12-3.85-1.59-5.28-.47-1.5-1.28-3.83-1.81-5.21-.5-1.32-1.37-3.48-1.95-4.82-.56-1.3-1.46-3.29-2.01-4.44-.56-1.16-1.46-2.94-1.99-3.95-1.15-2.1-1.15-2.46-1.15-2.72,0-1.54,1.24-1.56,3.31-1.6,1.45-.03,3.95-.05,8.18-.06,7.96-.03,22.02-.04,49.97-.04-3.1-2.02-12.16-7.88-25.8-16.68q-27.49-17.75-27.62-18.66c-.07-.59.12-1.1.49-1.45.62-.58,1.41-.44,1.67-.4.19.03,8.16,1.6,68.26,13.53l1.07-1.02c.88-.82,2.41-2.21,3.36-3.04.91-.8,2.1-1.76,2.62-2.16-1.03-2.94-5.56-15.72-10.93-30.74-11.2-31.43-11.2-31.57-11.2-31.91,0-.96.76-1.74,1.7-1.74l.24.02q.63.1,10.42,11.25c7.41,8.43,19.14,21.82,34.88,39.82l.85-.25c1.01-.31,2.94-.85,4.29-1.18,1.37-.34,3.49-.82,4.72-1.04,1.1-.2,2.35-.42,2.91-.51.67-3.42,3.04-15.81,6.05-31.58,6.01-31.69,6.27-33.09,6.94-33.55l.6-.48.86.28c.93.34,1.12,1.36,1.19,1.69.07.31,2.45,12.76,12.14,63.64l1.14.2c1.14.19,3.18.59,4.52.88,1.31.28,3.48.84,4.82,1.22.81.23,1.61.47,2.16.65,1.46-1.45,6.65-7.37,18.48-20.88,10.44-11.94,20.59-23.52,22.54-25.75,3.9-4.46,4.5-5.15,5.79-4.12.87.69.79.9-.41,4.42-.67,1.96-1.77,5.11-3.44,9.85-3.41,9.69-9.03,25.53-17.66,49.82.59.46,1.4,1.13,1.83,1.5,1.21,1.01,2.91,2.56,5.18,4.72l33.91-6.72c10.61-2.1,19.3-3.8,25.35-4.97,9.87-1.9,10.2-1.97,10.79-1.4l.54.43-.03.79c-.04.86-.59,1.33-2.6,2.64-.65.41-4.74,3.05-15,9.67l-36,23.23h29.5c8.43,0,16.1,0,21.66.03,2.78,0,5.04.02,6.59.04,3.08.03,3.9.04,3.9,1.55q0,.41-1.97,4.39c-1.04,2.03-2.23,4.5-2.67,5.52-.48,1.07-1.32,3.06-1.85,4.43-.57,1.42-1.54,4.13-2.14,5.94-.65,1.94-1.53,4.77-1.94,6.32-.42,1.55-1.05,4.1-1.4,5.69-.34,1.55-.82,3.84-1.05,5.08-.2,1.13-.58,3.41-.79,4.93-.21,1.43-.52,4.06-.7,5.87-.18,1.73-.41,4.17-.51,5.44-.15,1.68-.21,21.5-.37,157.76l-.02.25-.38,2.23c-.2,1.27-.63,3.38-.95,4.68-.32,1.31-.89,3.23-1.26,4.3-.35,1.02-1.05,2.76-1.58,3.95-.49,1.09-1.38,2.84-1.98,3.9-.59,1.04-1.55,2.56-2.11,3.38-.64.89-1.65,2.27-2.33,3.12-.68.86-2.28,2.61-3.64,3.97-1.27,1.29-3.16,3.03-4.2,3.86-.97.78-2.58,1.94-3.67,2.68-1.05.7-2.82,1.77-3.95,2.39-1.12.62-2.81,1.44-3.79,1.88-.95.43-2.61,1.08-3.77,1.5-1.13.41-3.17,1.02-4.53,1.36-1.33.34-3.89.9-5.7,1.22-1.81.33-5.62,1.07-8.26,1.61-2.83.57-7.19,1.51-9.78,2.08-2.53.56-7.14,1.66-10.35,2.45-3.18.81-7.46,1.94-9.52,2.53-2.2.63-5.44,1.58-7.24,2.14-1.89.6-4.44,1.43-5.76,1.91-1.37.48-3.36,1.2-4.46,1.61-1.07.41-3.26,1.29-4.81,1.95-1.49.63-4,1.79-5.47,2.55-1.46.73-3.43,1.83-4.38,2.41-.93.59-2.37,1.56-3.13,2.12-.84.62-2.08,1.7-3.9,3.39l-1.01.94ZM66.49,116.31c.56,1.07,1.44,2.82,2,3.98.56,1.19,1.49,3.23,2.06,4.55.59,1.38,1.49,3.6,2,4.95.54,1.42,1.38,3.83,1.86,5.35.48,1.45,1.18,3.82,1.63,5.4.44,1.64,1.06,4.05,1.38,5.53.35,1.53.89,4.18,1.21,5.89.28,1.59.73,4.42.96,6.24.25,1.78.54,4.4.66,5.84.14,1.43.34,3.75.43,5.14.14,1.86.22,22.8.3,80.03.08,68.61.11,77.45.34,78.82.15.85.44,2.41.66,3.47.21,1.05.66,2.69.95,3.61.3.96.84,2.49,1.18,3.34.3.79,1.11,2.52,1.8,3.88.65,1.25,1.72,3.12,2.35,4.08.7,1.05,1.81,2.59,2.47,3.43.68.86,2.19,2.57,3.37,3.75,1.21,1.23,3.02,2.9,4.04,3.74,1.02.82,2.83,2.14,4.04,2.95,1.15.77,3.45,2.05,5.02,2.81,1.63.82,3.67,1.74,4.48,2.03.87.33,2.49.88,3.58,1.19,1.11.34,3.26.85,4.75,1.15,1.52.29,5.54,1.08,8.93,1.75,3.49.69,8.46,1.71,11.13,2.31,2.67.6,7.1,1.65,9.84,2.31,2.78.69,6.7,1.72,8.75,2.27,2.53.71,5.03,1.42,6.28,1.81,1.3.39,3.98,1.24,6.09,1.94,1.91.62,4.95,1.69,6.82,2.38,1.68.63,4.25,1.66,5.67,2.28,1.3.55,3.53,1.58,4.95,2.3,1.35.66,3.34,1.76,4.48,2.43,1.09.64,2.74,1.73,3.68,2.43.92.71,2.25,1.78,3.04,2.5l.34.31c1.38-1.25,2.39-2.12,3.15-2.68.82-.6,2.31-1.61,3.32-2.25,1.01-.62,3.05-1.76,4.6-2.54,1.53-.8,4.09-1.97,5.66-2.64,1.58-.67,3.82-1.57,4.92-1.99,1.12-.42,3.14-1.15,4.51-1.63,1.35-.49,3.94-1.33,5.87-1.94,1.82-.56,5.1-1.53,7.31-2.16,2.09-.59,6.4-1.74,9.62-2.55,3.24-.8,7.88-1.91,10.43-2.47,2.6-.58,6.99-1.52,9.83-2.09,2.65-.54,6.49-1.29,8.33-1.62,1.74-.31,4.21-.85,5.49-1.18,1.29-.33,3.2-.9,4.26-1.28,1.08-.39,2.68-1.02,3.56-1.41.91-.41,2.53-1.2,3.57-1.78,1.06-.58,2.76-1.6,3.72-2.24,1-.69,2.57-1.82,3.48-2.54.95-.75,2.75-2.41,3.94-3.62,1.26-1.26,2.82-2.96,3.42-3.72.65-.83,1.63-2.15,2.22-2.98.5-.74,1.41-2.18,1.97-3.16.55-.97,1.4-2.63,1.84-3.63.5-1.11,1.17-2.78,1.49-3.72.35-.98.89-2.82,1.18-4.02.3-1.24.71-3.23.9-4.45l.36-2.12c.16-140.34.22-156.1.38-157.88.1-1.28.34-3.75.51-5.5.19-1.84.51-4.53.72-5.99.24-1.68.64-4.04.82-5.05.25-1.28.73-3.61,1.08-5.19.36-1.62,1-4.24,1.44-5.83.43-1.59,1.33-4.5,1.99-6.48.62-1.85,1.61-4.63,2.2-6.09.55-1.4,1.41-3.44,1.89-4.53.51-1.19,1.79-3.82,2.73-5.67.26-.53.54-1.08.79-1.59-3.94-.04-13.17-.07-28.29-.07h-31.59l-1.94-3.97,38.41-24.78c5.13-3.31,8.72-5.63,11.11-7.17-4.93.94-13.41,2.6-27.95,5.47l-35.44,7.03-.56-.54c-2.5-2.4-4.33-4.08-5.6-5.13-1.06-.9-1.96-1.6-2.12-1.72l-1.39-.88.4-1.13c10.68-30.04,17.08-48.1,20.13-56.85-3.36,3.84-12.3,14.05-21.47,24.53-9.02,10.3-13.85,15.81-16.4,18.64-2.84,3.15-3.43,3.81-4.69,3.3-.13-.05-1.36-.43-2.64-.8-1.29-.37-3.38-.91-4.63-1.18-1.3-.29-3.27-.67-4.38-.85l-3.2-.55-.19-1.02c-6.33-33.26-9.57-50.21-11.1-58.24-1.13,5.77-2.87,14.82-4.92,25.63-6.23,32.67-6.26,32.73-6.38,32.97-.36.73-1.11.88-2.06,1-.41.07-1.76.3-2.93.52-1.13.21-3.2.67-4.54,1.01-1.3.32-3.16.84-4.14,1.14l-2.71.81-.64-.73c-23.25-26.59-34.95-39.92-40.49-46.2,1.98,5.61,5.16,14.56,8.9,25.05,3.27,9.14,11.15,31.24,11.24,31.68.31,1.24-.76,2.04-1.33,2.47-.41.31-1.52,1.2-2.46,2.02-.93.81-2.42,2.17-3.27,2.96l-2.19,2.08-.76-.15c-31.84-6.32-52.77-10.47-62.55-12.4,4.55,2.98,11.74,7.66,21.2,13.77,27.06,17.47,27.11,17.53,27.28,17.7.88.88.25,2.15-.06,2.75l-.82,1.75h-.95c-38.54,0-53.85.02-58.88.09ZM227.07,70.19s.07.02.1.03c-.03-.01-.06-.02-.1-.03Z"/>
  </g>
  <g>
    <path class="st0" d="M195.21,80.42c-.49.02-1.18.08-1.56.12l-.67.08v18.08c.55-.14,3.66-.24,7.29-.3l6.6-.1v-17.77c-2.8-.18-5.22-.22-7.19-.2-1.97,0-4,.04-4.47.08ZM180.85,82.78c-1.2.32-3.53,1.02-5.2,1.6-1.65.55-3.66,1.26-4.43,1.6l-1.38.57c0,12.9.04,16.65.12,16.65.06-.02.79-.22,1.64-.47.83-.28,2.52-.73,3.74-1.06,1.22-.32,3.61-.85,5.26-1.18l3.03-.59.1-17.67c-.57.02-1.69.28-2.88.57ZM216.19,82.43c-.04.1-.06,4.08-.04,8.81l.06,8.63c5.18,1.06,7.66,1.62,8.85,1.93s2.78.77,3.53.98c.73.24,1.36.41,1.38.41.04,0,.04-3.76,0-8.35l-.04-8.35c-2.72-1.08-4.59-1.77-5.89-2.21-1.32-.43-3.49-1.08-4.79-1.44-1.32-.33-2.54-.61-2.68-.61-.16,0-.33.08-.37.2ZM158.14,92.61c-1.16.79-2.92,2.05-3.88,2.84-.97.77-2.8,2.44-4.08,3.72-1.28,1.28-2.58,2.66-2.92,3.05l-.57.71.08,11.13c2.09-1.42,3.53-2.32,4.55-2.94,1-.59,3.41-1.87,5.34-2.84,1.93-.97,3.61-1.75,3.7-1.75.16,0,.22-1.64.22-7.68,0-4.75-.06-7.68-.16-7.68-.08,0-1.1.65-2.29,1.44ZM239.26,98.78v7.6c2.8,1.3,4.49,2.13,5.59,2.7,1.1.57,2.78,1.5,3.76,2.07.97.57,2.38,1.48,3.15,1.99.77.51,1.42.93,1.48.93.04,0,.06-2.46.06-5.48v-5.48c-1.34-1.62-2.72-3.07-3.92-4.26-1.22-1.2-3.01-2.82-3.98-3.59-.97-.77-2.64-1.99-3.74-2.74-1.1-.73-2.09-1.34-2.19-1.34-.16-.02-.22,1.62-.22,7.58ZM119.78,153.8c-.04.1-.06,39.62-.04,87.8l.04,87.62,20.03.08c0-92.23.06-108.33.18-108.29.08.02,8.27,21.59,18.2,47.97,9.91,26.36,19.09,50.71,20.37,54.14l2.36,6.21,14.36-.1.08-175.62h-20.11c0,97.85-.04,108.8-.2,108.76-.12-.04-9.34-24.51-20.49-54.37l-20.29-54.31c-12.9-.08-14.44-.04-14.5.12ZM213.57,191.49c0,33.51.02,38.04.24,39.32.14.79.39,1.91.55,2.48.18.57.63,1.69,1.02,2.48.39.79,1.06,1.95,1.5,2.56.43.61,1.22,1.6,1.75,2.17.53.57,1.46,1.44,2.05,1.95.61.49,1.71,1.26,2.46,1.71.75.45,1.93,1.04,2.64,1.32.69.26,1.89.63,2.62.81,1.26.32,1.95.33,9.4.39l8.02.04v-20.47h-12.14v-72.65h-20.11v37.88ZM260.03,231.2v77.62h-26.34v-27.84h-20.11c0,25.65.06,31.13.18,31.97.1.67.35,1.85.55,2.6.22.73.71,1.99,1.1,2.8.37.79,1.14,2.05,1.69,2.8.55.75,1.48,1.83,2.05,2.4.57.57,1.65,1.5,2.4,2.07.75.55,2.07,1.36,2.95,1.77.89.43,2.3.97,3.19,1.2.89.22,2.38.47,3.35.55.97.08,8.04.16,15.72.16s14.79-.08,15.82-.16c1-.08,2.5-.32,3.35-.53.83-.22,2.17-.69,2.95-1.06.79-.35,1.89-.98,2.46-1.36.57-.39,1.54-1.14,2.17-1.67.61-.53,1.5-1.42,1.97-1.97s1.24-1.58,1.69-2.29c.47-.71,1.08-1.77,1.36-2.4.28-.61.63-1.58.81-2.15.18-.57.43-1.69.55-2.48.2-1.26.24-12.08.24-80.53v-79.09h-20.11v77.6Z"/>
    <path class="st0" d="M179.9,330.83l-2.73-7.18c-.58-1.56-2.77-7.38-5.92-15.73-3.81-10.13-9.02-23.97-14.46-38.42-6.54-17.39-12.2-32.33-15.4-40.71-.06,12.92-.08,43.45-.08,100.5v1.51l-23.03-.09-.04-89.12c-.03-85.17,0-87.92.14-88.33h0q.44-1.19,15.91-1.09h1.03s20.65,55.29,20.65,55.29c8.11,21.71,14.36,38.34,17.71,47.18.06-11.82.07-40.02.07-101.05v-1.5h23.11l-.08,178.61-16.89.12ZM139.68,219.39l.67.17q.79.2,2.52,4.71c.93,2.44,2.28,5.96,3.93,10.31,3.3,8.69,7.83,20.68,12.8,33.87,5.43,14.45,10.64,28.29,14.46,38.41,3.14,8.35,5.34,14.17,5.92,15.72l1.99,5.22,11.83-.08.08-172.63h-17.11c0,49.87-.01,74.97-.04,89.27q-.04,18.63-.73,19.17l-.58.45-.82-.21q-.72-.24-2.62-5.2c-1.06-2.77-2.57-6.76-4.43-11.7-3.71-9.86-8.81-23.44-14.38-38.37l-19.93-53.34c-6.09-.04-10.13-.05-11.97-.01-.03,6.88-.05,40.28-.03,86.44l.04,86.13,17.04.07c0-43.62.01-71.31.04-87.07.01-7.79.03-12.71.06-15.69q.04-4.76.7-5.24l.56-.4ZM246.77,330.81c-7.51,0-14.76-.08-15.84-.16-1.1-.09-2.68-.37-3.58-.59-1.01-.27-2.54-.84-3.49-1.31-1-.46-2.41-1.34-3.19-1.91-.76-.58-1.91-1.55-2.57-2.22s-1.6-1.77-2.2-2.57c-.62-.84-1.43-2.18-1.84-3.04-.41-.85-.94-2.18-1.19-3.01-.21-.8-.48-2.04-.6-2.81-.12-.84-.19-3.53-.19-32.19v-1.5h23.11v27.84h23.34v-155.21h23.11v80.59c0,72.31-.04,79.42-.25,80.76-.12.8-.39,2.02-.6,2.69-.19.61-.57,1.64-.87,2.32-.33.75-1.01,1.92-1.48,2.62-.5.79-1.32,1.86-1.8,2.43-.52.61-1.45,1.54-2.12,2.12-.71.6-1.72,1.37-2.3,1.78-.67.44-1.85,1.11-2.7,1.49-.9.43-2.34.92-3.19,1.15-.93.24-2.51.49-3.61.58-1.12.09-8.57.16-15.94.16ZM215.07,282.48c0,21.19.05,29.43.16,30.27.08.57.32,1.68.52,2.42.19.63.65,1.81,1,2.52.34.71,1.04,1.87,1.55,2.56.5.68,1.37,1.7,1.9,2.23.5.5,1.53,1.38,2.25,1.94.63.46,1.87,1.23,2.68,1.61.81.39,2.14.9,2.94,1.11.74.18,2.18.43,3.08.51.88.07,7.74.15,15.6.15s14.76-.08,15.7-.15c.92-.07,2.34-.3,3.09-.49.78-.21,2.02-.65,2.68-.97.71-.32,1.74-.9,2.28-1.26.48-.33,1.4-1.04,2.02-1.57.54-.47,1.37-1.3,1.8-1.8.41-.48,1.14-1.44,1.57-2.12.47-.7,1.02-1.68,1.25-2.2.25-.56.59-1.48.75-1.99.15-.48.39-1.52.5-2.26.18-1.18.22-14.68.22-80.31v-77.59h-17.11v155.21h-29.34v-27.84h-17.11ZM247.32,248.23l-9.52-.05c-7.56-.06-8.3-.08-9.75-.44-.74-.18-1.99-.57-2.78-.86-.81-.31-2.07-.94-2.89-1.44-.81-.49-1.96-1.29-2.63-1.83-.66-.57-1.63-1.47-2.21-2.1-.61-.65-1.43-1.69-1.88-2.32-.5-.7-1.21-1.96-1.62-2.76-.4-.8-.9-2.01-1.12-2.71-.18-.64-.44-1.81-.6-2.67-.24-1.4-.26-4.73-.26-39.58v-39.38h23.11v72.65h12.14v23.47ZM215.07,155.1v36.38c0,32.09.02,37.89.21,39.07.13.74.38,1.81.52,2.33.14.44.56,1.49.92,2.21.39.77,1.02,1.86,1.38,2.36.38.54,1.13,1.48,1.63,2.01.49.53,1.37,1.35,1.93,1.84.52.42,1.57,1.15,2.26,1.56.67.41,1.78.96,2.41,1.2.65.24,1.79.59,2.43.75,1.08.27,1.67.29,9.06.35l6.51.03v-17.46h-12.14v-72.65h-17.11ZM145.29,116.89l-.1-14.47.91-1.13c.41-.49,1.78-1.93,3.02-3.17,1.32-1.32,3.21-3.04,4.2-3.84.98-.8,2.78-2.1,3.97-2.9h.01c2.54-1.7,2.64-1.7,3.12-1.7,1.54,0,1.57,1.18,1.62,3.53.03,1.33.04,3.27.04,5.65,0,3.09-.02,4.99-.05,6.15-.04,1.37-.08,2.79-1.33,3-.43.18-1.71.79-3.37,1.62-1.84.92-4.24,2.2-5.25,2.79-1.24.74-2.7,1.68-4.47,2.88l-2.32,1.58ZM148.2,103.46l.06,7.82c.84-.54,1.6-1.02,2.3-1.44,1.08-.64,3.52-1.93,5.44-2.89,1.48-.74,2.41-1.19,3.02-1.47.07-1.48.07-4.98.07-6.62,0-2.27-.01-3.9-.03-5.05-.02.02-.05.03-.08.05-1.14.77-2.84,2-3.77,2.75-.92.73-2.73,2.39-3.97,3.62-1.26,1.26-2.54,2.62-2.83,2.96l-.21.26ZM160.02,105.08c-.06.01-.12.03-.17.05.07-.02.12-.04.17-.05ZM253.25,115.57c-.51,0-.74-.13-2.31-1.18-.8-.54-2.18-1.41-3.08-1.95-.9-.52-2.57-1.45-3.69-2.03-1.23-.64-3.04-1.51-5.54-2.67l-.87-.4v-8.56c0-8.08.04-8.11.7-8.7l.51-.45.59.06c.39,0,.68.1,2.93,1.59,1.2.81,2.88,2.04,3.85,2.82,1,.79,2.83,2.45,4.1,3.69,1.42,1.4,2.81,2.91,4.02,4.37l.34.42v6.02c0,1.51,0,2.89-.01,3.88-.02,1.93-.03,3.09-1.54,3.09ZM240.76,105.43c2.09.98,3.67,1.74,4.79,2.32,1.17.61,2.87,1.55,3.83,2.1.7.41,1.64,1.01,2.43,1.51,0-.76,0-1.68,0-2.78v-4.93c-1.06-1.25-2.25-2.53-3.47-3.73-1.18-1.16-2.95-2.76-3.86-3.48-.91-.72-2.54-1.92-3.65-2.67-.01,0-.02-.01-.03-.02-.03,1.69-.03,3.92-.03,5.03v6.65ZM229.96,104.69c-.18,0-.34,0-1.84-.49-.7-.2-2.28-.65-3.45-.96-1.25-.33-4.03-.94-8.76-1.91l-1.19-.24-.07-9.84c-.04-8.75.02-9.05.14-9.35.26-.7.97-1.16,1.78-1.16.13,0,.46,0,3.05.66,1.37.37,3.54,1.03,4.89,1.47,1.47.49,3.48,1.24,5.98,2.24l.94.37.04,9.36q.08,8.9-.43,9.42l-.44.44h-.63ZM217.7,98.64c4.12.85,6.53,1.38,7.74,1.71.97.26,2.21.61,3.05.85,0-1.46,0-3.67-.03-6.34l-.03-7.34c-2.01-.79-3.64-1.4-4.87-1.81-1.27-.42-3.43-1.07-4.71-1.41-.44-.11-.85-.21-1.19-.29-.01,1.47-.02,3.99,0,7.23l.05,7.41ZM169.96,104.69c-1.49,0-1.53-1.52-1.55-2.25-.01-.56-.03-1.44-.04-2.73-.02-2.55-.03-6.72-.03-13.17v-1l2.3-.96c.81-.35,2.87-1.08,4.53-1.63,1.63-.56,4.01-1.29,5.29-1.62h.02c1.67-.42,2.59-.6,3.19-.62l1.56-.05-.11,20.46-4.24.83c-1.71.35-4.03.87-5.17,1.16l-.58.16c-1.07.29-2.4.66-3.06.87-.64.2-1.19.35-1.48.43l-.39.11h-.23ZM171.34,87.55c0,5.24,0,10.86.04,13.66.73-.23,1.91-.55,2.95-.84l.6-.16c1.2-.31,3.6-.85,5.36-1.21l1.84-.36.08-14.65c-.29.07-.63.15-.99.24-1.23.32-3.51,1.02-5.09,1.56-1.88.63-3.69,1.28-4.32,1.55l-.48.2ZM191.54,100.51l-.06-1.8v-19.42l1.99-.23c.41-.04,1.12-.1,1.64-.13.6-.04,2.66-.08,4.56-.08,2.36-.02,4.82.04,7.29.2l1.41.09v20.65l-8.08.12c-5.99.1-6.89.24-6.97.26l-1.78.34ZM194.49,81.97v15.1c1.09-.06,2.86-.11,5.76-.16l5.12-.08v-14.87c-1.92-.09-3.82-.13-5.68-.12-2.13,0-4,.04-4.36.07h-.07c-.24.01-.52.03-.79.05Z"/>
  </g>
</svg>