<svg id="Layer_2" data-name="Layer 2" xmlns="http://www.w3.org/2000/svg" xmlns:xlink="http://www.w3.org/1999/xlink" viewBox="0 0 892 600"><defs><style>.cls-1{fill:none;}.cls-2{clip-path:url(#clip-path);}.cls-3{fill:#0d5eaf;}.cls-4{fill:#fff;}.cls-5{fill:#939598;}</style><clipPath id="clip-path"><rect class="cls-1" width="892" height="600" rx="30.93"/></clipPath></defs><title>Grecia</title><g class="cls-2"><rect class="cls-3" width="892" height="600"/><rect class="cls-4" y="332.35" width="892" height="67.33"/><rect class="cls-4" y="465.68" width="892" height="67.33"/><rect class="cls-4" x="338.67" y="199.1" width="553.33" height="67.33"/><rect class="cls-4" x="338.67" y="65.01" width="553.33" height="67.33"/><rect class="cls-4" x="135.33" y="-0.1" width="68" height="332.44"/><rect class="cls-4" y="132.35" width="338.67" height="66.67"/></g><g id="Layer_1" data-name="Layer 1"><path class="cls-5" d="M861.1,6A25,25,0,0,1,886,30.9V569a24.9,24.9,0,0,1-24.9,24.9H30.9A24.82,24.82,0,0,1,6,569.1V30.9A25,25,0,0,1,30.9,6H861.1m0-6H30.9A30.86,30.86,0,0,0,0,30.9H0V569a30.88,30.88,0,0,0,30.9,31H861a30.86,30.86,0,0,0,30.9-30.9V30.9A30.71,30.71,0,0,0,861.1,0Z"/></g></svg>