<?xml version="1.0" encoding="utf-8"?>
<!-- Generator: Adobe Illustrator 23.1.0, SVG Export Plug-In . SVG Version: 6.00 Build 0)  -->
<svg version="1.1"
	 id="svg37" xmlns:cc="http://creativecommons.org/ns#" xmlns:dc="http://purl.org/dc/elements/1.1/" xmlns:inkscape="http://www.inkscape.org/namespaces/inkscape" xmlns:rdf="http://www.w3.org/1999/02/22-rdf-syntax-ns#" xmlns:sodipodi="http://sodipodi.sourceforge.net/DTD/sodipodi-0.dtd" xmlns:svg="http://www.w3.org/2000/svg"
	 xmlns="http://www.w3.org/2000/svg" xmlns:xlink="http://www.w3.org/1999/xlink" x="0px" y="0px" viewBox="0 0 597.2 597.2"
	 style="enable-background:new 0 0 597.2 597.2;" xml:space="preserve">
<style type="text/css">
	.st0{fill-rule:evenodd;clip-rule:evenodd;fill:#F8E502;stroke:#000000;stroke-width:2.3286;stroke-miterlimit:2.8042;}
	.st1{fill-rule:evenodd;clip-rule:evenodd;fill:#F8E502;stroke:#000000;stroke-width:2.4992;stroke-miterlimit:2.8042;}
	.st2{fill-rule:evenodd;clip-rule:evenodd;}
	.st3{fill-rule:evenodd;clip-rule:evenodd;fill:#FFFFFF;}
	.st4{fill-rule:evenodd;clip-rule:evenodd;fill:#F8E502;}
</style>
<sodipodi:namedview  bordercolor="#666666" borderopacity="1" gridtolerance="10" guidetolerance="10" id="namedview39" inkscape:current-layer="svg37" inkscape:cx="619.11437" inkscape:cy="553.05921" inkscape:pageopacity="0" inkscape:pageshadow="2" inkscape:window-height="837" inkscape:window-maximized="1" inkscape:window-width="1600" inkscape:window-x="-8" inkscape:window-y="-8" inkscape:zoom="0.472" objecttolerance="10" pagecolor="#ffffff" showgrid="false">
	</sodipodi:namedview>
<g id="Capa_x0020_1-3" transform="matrix(0.70105571,0,0,0.70105571,872.34306,-95.545918)" inkscape:export-xdpi="86.598991" inkscape:export-ydpi="86.598991">
	<g id="_453402017984-2">
		<path id="path9-0" inkscape:connector-curvature="0" class="st0" d="M-821.5,976.1c-46.6-18.6-160.4-68.3-215.2-114.9
			c-62.1-52.8-96.2-120-96.2-190.4v-1c-1-34.1,12.4-79.7,25.9-127.3c9.3-35.2,19.7-71.4,25.9-105.5
			c17.6-103.5-38.3-156.2-39.3-156.2l-3.1-3.1l37.2-87.9l6.2,1c2.1,0,12.4,1,30,1c19.7,0,53.8-1,98.3-8.3
			c62.1-9.3,108.6-25.9,130.4-35.2l3.1-1l3.1,1c21.7,9.3,68.3,25.9,130.4,35.2c44.5,7.2,78.6,8.3,98.3,8.3c19.7,0,30-1,31-1l5.2-1
			l37.2,87.9l-3.1,3.1c-3.1,2.1-56.9,53.8-39.3,156.2c6.2,34.1,16.6,70.4,25.9,104.5c13.5,48.6,26.9,94.2,25.9,128.3v1
			c0,70.4-34.1,137.6-96.2,190.4c-54.8,46.6-168.7,96.2-215.2,114.9l-3.1,1L-821.5,976.1z"/>
		<path id="path13-6" inkscape:connector-curvature="0" class="st1" d="M-534.9,274.7l-24.5-62.4c-5.3,0-11.7,0-20.3,0
			c-21.3,0-57.6-1.2-105.6-9.2c-60.8-10.4-108.8-27.7-133.3-38.2c-24.5,10.4-72.5,27.7-134.4,38.2c-46.9,8.1-83.2,9.2-104.5,9.2
			c-8.5,0-14.9,0-20.3,0l-24.5,62.4c9.6,13.9,27.7,41.6,36.3,83.2h494.9C-561.6,316.3-544.5,288.6-534.9,274.7L-534.9,274.7z"/>
		<path id="path15-1" inkscape:connector-curvature="0" class="st2" d="M-581.4,365h-66.2v500.4v11.4c14.5-8.3,27.9-17.6,38.3-26.9
			c57.9-49.7,90-112.9,90-179.2v-2.1c1-31.1-11.4-75.6-24.8-123.3c-9.3-35.2-19.7-71.5-25.9-106.7c-5.2-28-5.2-51.8-2.1-73.6H-581.4
			z"/>
		<path id="path17-3" inkscape:connector-curvature="0" class="st2" d="M-1064.6,364.5c3.1,21.8,3.1,45.6-2.1,73.6
			c-6.2,35.3-16.6,72.6-25.9,107.9c-13.5,46.7-25.9,91.3-24.8,123.4v1c0,66.4,32.1,129.6,90,179.4c10.3,9.3,23.8,18.7,37.2,27v-11.4
			V364.5h-65.2L-1064.6,364.5z"/>
		<path id="path19-1" inkscape:connector-curvature="0" class="st2" d="M-897,916v10.4c31,14.5,60,26.9,78.6,35.2
			c18.6-8.3,47.6-20.7,78.6-35.2V916V364.7H-897V916z"/>
		<path id="path21-7" inkscape:connector-curvature="0" class="st2" d="M-818.4,725.7c-68.3,0-124.2-55.9-124.2-124.2
			c0-69.3,55.9-124.2,124.2-124.2s124.2,54.8,124.2,124.2c0,34.1-13.5,66.2-37.2,89C-755.3,713.3-786.3,725.7-818.4,725.7z"/>
		<path id="path23-1" inkscape:connector-curvature="0" class="st3" d="M-818.4,717.3c-64.3,0-116.6-52.2-116.6-116.4
			c0-64.2,52.3-116.4,116.6-116.4s116.6,52.2,116.6,116.4c0,32.1-12.1,61.2-35.2,83.3C-759.1,705.3-788.2,717.3-818.4,717.3
			L-818.4,717.3z"/>
		<path id="path25-3" inkscape:connector-curvature="0" class="st2" d="M-818.4,715.4c-63.1,0-114.9-50.7-114.9-113.8
			s51.7-114.9,114.9-114.9s114.9,51.7,114.9,114.9c0,31-12.4,60-35.2,81.7C-760.4,704-789.4,715.4-818.4,715.4z"/>
		<path id="path27-2" inkscape:connector-curvature="0" class="st4" d="M-818.4,713.3c-61,0-111.7-50.7-111.7-111.7
			c0-62.1,50.7-111.7,111.7-111.7c61,0,111.7,49.7,111.7,111.7c0,30-12.4,59-34.1,79.7C-761.5,700.9-789.4,713.3-818.4,713.3z"/>
		<path id="path29-4" inkscape:connector-curvature="0" sodipodi:nodetypes="csccccc" class="st2" d="M-815.3,505.1
			c-2.9,7.9-7.8,15.8-13.9,25.8c-2.7,4.4-5.7,9.2-8.8,14.5c41.4,2.1,71.4,18.6,70.4,45.5c-40.4-1-72.4-10.3-94.2-24.8
			c2.1-9.3,3.1-14.5,10.3-19.7C-839.1,526.8-829.1,510.5-815.3,505.1L-815.3,505.1z"/>
		<path id="path31-9" inkscape:connector-curvature="0" sodipodi:nodetypes="ccccccccccccc" class="st2" d="M-862.9,569.9
			c-4.1,13.5-13.5,32.1-24.8,53.8c-4.1,9.3-2.1,13.5,7.2,12.4l-0.6,7.8l4.5-0.5l-5,3c-2.1,26.9,1,35.2,20.7,25.9
			c13.5-1,18.6,5.2,17.6,15.5l-18.6,15.5c40.4,16.6,78.6,8.3,114.9-15.5c-41.4-20.7-45.5-31-21.7-32.1c21.7,3.1,18.6-19.7-1-61
			C-815.3,591.6-846.3,583.3-862.9,569.9L-862.9,569.9z"/>
		<path id="path33-8" inkscape:connector-curvature="0" d="M-992.2,248.7l2.1,24.8h-2.1c-2.1-6.2-4.1-11.4-7.2-14.5
			c-3.1-4.1-8.3-6.2-15.5-6.2c-8.3,0-14.5,4.1-19.7,11.4c-3.1,7.2-5.2,14.5-5.2,23.8c0,7.2,1,14.5,4.1,19.7
			c2.1,6.2,5.2,11.4,9.3,13.5c4.1,3.1,8.3,4.1,12.4,4.1c3.1,0,5.2,0,7.2-1c2.1,0,5.2-1,7.2-3.1v-21.7c0-4.1-1-7.2-1-8.3
			c-1-1-1-2.1-2.1-2.1c-1-1-3.1-1-6.2-1V286h25.9v2.1h-1c-2.1,0-4.1,1-5.2,3.1c-1,1-1,4.1-1,8.3v22.8c-4.1,3.1-7.2,4.1-11.4,6.2
			c-3.1,1-7.2,1-12.4,1c-12.4,0-22.8-4.1-30-14.5c-5.2-7.2-7.2-15.5-7.2-24.8c0-6.2,1-13.5,4.1-19.7c3.1-7.2,8.3-12.4,14.5-16.6
			c4.1-3.1,10.3-5.2,17.6-5.2c2.1,0,4.1,0,6.2,1c2.1,0,5.2,1,8.3,3.1c2.1,0,3.1,1,4.1,1s1-1,2.1-1c0-1,0-2.1,0-4.1L-992.2,248.7z
			 M-932.2,252.9v-2.1h23.8v2.1h-2.1c-3.1,0-5.2,1-6.2,3.1c-1,2.1-1,4.1-1,8.3v32.1c0,7.2-1,13.5-2.1,17.6s-4.1,8.3-8.3,11.4
			s-9.3,4.1-15.5,4.1c-7.2,0-13.5-1-17.6-4.1c-3.1-3.1-6.2-7.2-7.2-12.4c-1-3.1-2.1-9.3-2.1-18.6v-30c0-5.2-1-8.3-2.1-9.3
			c-1-2.1-3.1-2.1-5.2-2.1h-2.1v-2.1h29v2.1h-3.1c-2.1,0-4.1,1-5.2,3.1c-1,1-2.1,4.1-2.1,8.3v33.1c0,3.1,1,7.2,1,10.3
			c0,4.1,1,7.2,3.1,9.3c1,2.1,3.1,4.1,5.2,5.2c2.1,2.1,5.2,2.1,8.3,2.1c5.2,0,8.3-1,12.4-3.1c3.1-2.1,5.2-5.2,7.2-8.3
			c1-3.1,2.1-9.3,2.1-17.6v-31c0-5.2-1-8.3-2.1-9.3c-1-1-3.1-2.1-5.2-2.1L-932.2,252.9z M-859.8,302.5h-26.9l-4.1,11.4
			c-1,3.1-2.1,5.2-2.1,7.2c0,1,1,2.1,2.1,3.1s3.1,1,6.2,1v2.1h-21.7v-2.1c3.1,0,5.2-1,5.2-2.1c2.1-1,4.1-5.2,6.2-10.3l23.8-64.2h2.1
			l22.8,64.2c2.1,5.2,4.1,8.3,5.2,10.3c2.1,1,4.1,2.1,7.2,2.1v2.1h-26.9v-2.1c2.1,0,4.1,0,5.2-1s1-2.1,1-3.1c0-2.1,0-4.1-2.1-8.3
			L-859.8,302.5z M-861.8,297.3l-11.4-31l-11.4,31H-861.8z M-763.5,327.4h-18.6l-22.8-36.2c-2.1,1-3.1,1-4.1,1c-1,0-1,0-1,0
			c-1,0-1,0-2.1-1v22.8c0,5.2,1,8.3,1,9.3c2.1,2.1,3.1,2.1,6.2,2.1h2.1v2.1h-29v-2.1h3.1c3.1,0,5.2-1,6.2-3.1c0-1,1-4.1,1-8.3v-49.7
			c0-5.2-1-8.3-2.1-9.3c-1-1-3.1-2.1-5.2-2.1h-3.1v-2.1h24.8c7.2,0,12.4,0,16.6,1c3.1,2.1,6.2,4.1,8.3,7.2c2.1,3.1,4.1,7.2,4.1,11.4
			c0,5.2-2.1,9.3-4.1,12.4c-3.1,3.1-7.2,6.2-13.5,7.2l14.5,21.7c3.1,5.2,6.2,9.3,8.3,10.3c2.1,2.1,5.2,3.1,9.3,3.1V327.4z
			 M-812.2,288c1,0,1,0,2.1,0c0,0,0,0,1,0c6.2,0,11.4-1,14.5-5.2c3.1-3.1,4.1-7.2,4.1-11.4c0-5.2-1-9.3-3.1-12.4
			c-3.1-3.1-6.2-4.1-10.3-4.1c-2.1,0-5.2,0-8.3,1L-812.2,288z M-718,302.5h-25.9l-5.2,11.4c-1,3.1-1,5.2-1,7.2c0,1,0,2.1,1,3.1
			c1,1,3.1,1,6.2,1v2.1h-21.7v-2.1c3.1,0,5.2-1,6.2-2.1c1-1,3.1-5.2,5.2-10.3l23.8-64.2h2.1l23.8,64.2c2.1,5.2,3.1,8.3,5.2,10.3
			c1,1,3.1,2.1,6.2,2.1v2.1h-26.9v-2.1c3.1,0,4.1,0,5.2-1c1-1,2.1-2.1,2.1-3.1c0-2.1-1-4.1-2.1-8.3L-718,302.5z M-720.1,297.3
			l-11.4-31l-11.4,31H-720.1z M-692.2,250.8h17.6l42.4,57.9v-44.5c0-5.2-1-8.3-2.1-9.3c-1-2.1-3.1-2.1-6.2-2.1h-2.1v-2.1h23.8v2.1
			h-2.1c-3.1,0-5.2,1-6.2,3.1c-1,1-1,3.1-1,8.3v65.2h-2.1l-44.5-63.1v47.6c0,5.2,0,8.3,1,9.3c1,2.1,3.1,2.1,6.2,2.1h2.1v2.1H-689
			v-2.1h3.1c2.1,0,4.1-1,6.2-2.1c0-2.1,1-4.1,1-9.3v-52.8c-2.1-3.1-4.1-5.2-5.2-6.2c-1,0-2.1-1-4.1-2.1c-1,0-2.1,0-4.1,0V250.8z
			 M-585.6,325.3v2.1h-29v-2.1h2.1c3.1,0,5.2,0,6.2-2.1c1-1,1-4.1,1-9.3v-49.7c0-4.1,0-6.2,0-8.3c-1-1-1-1-2.1-2.1
			c-2.1-1-3.1-1-5.2-1h-2.1v-2.1h29v2.1h-2.1c-3.1,0-5.2,1-6.2,2.1c-1,2.1-1,4.1-1,9.3v49.7c0,4.1,0,7.2,0,8.3c1,1,1,1,2.1,2.1
			c2.1,1,3.1,1,5.2,1H-585.6z"/>
	</g>
</g>
</svg>
