<?xml version="1.0" encoding="utf-8"?>
<!-- Generator: Adobe Illustrator 28.1.0, SVG Export Plug-In . SVG Version: 6.00 Build 0)  -->
<svg version="1.1" id="SÃO_LUIZ" xmlns="http://www.w3.org/2000/svg" xmlns:xlink="http://www.w3.org/1999/xlink" x="0px" y="0px"
	 viewBox="0 0 512 512" style="enable-background:new 0 0 512 512;" xml:space="preserve">
<style type="text/css">
	.st0{fill:#EA1D25;}
	.st1{fill:#FFFFFF;}
</style>
<g>
	<path class="st0" d="M252.9,511.1c1.9,1.2,4.4,1.2,6.3,0c205.2-130.6,230.1-320.9,230.1-395.2c0-58.2-5.4-88.3-8.5-100.8
		c-0.9-3.7-5-5.5-8.4-3.8c-114.4,60.6-195,4.4-212.7-10c-2.1-1.7-5.2-1.7-7.3,0c-17.7,14.4-98.3,70.6-212.7,10
		c-3.3-1.8-7.5,0.1-8.4,3.8c-3.1,12.5-8.5,42.6-8.5,100.8C22.7,190.2,47.6,380.5,252.9,511.1z"/>
	<path class="st1" d="M325.7,442.6c21.4-19.1,39.7-38.9,55.4-58.9V183.6h-55.4V442.6z"/>
	<path class="st1" d="M424.2,317.1c25.5-48.7,38-95.6,43.8-133.4h-43.8V317.1z"/>
	<path class="st1" d="M85.6,312.7V183.6H44C49.7,220.4,61.6,265.6,85.6,312.7z"/>
	<path class="st1" d="M128.7,380.9c15.6,20.3,34,40.3,55.4,59.7v-257h-55.4V380.9z"/>
	<path class="st1" d="M227.2,475.4c8.3,6,16.9,11.8,25.9,17.5c1.8,1.1,4,1.1,5.8,0c8.2-5.2,16.1-10.5,23.7-16V183.6h-55.4V475.4z"/>
	<circle class="st1" cx="256" cy="102" r="66.2"/>
	<g>
		<path d="M253.4,72.8v-7.2H272v17c-1.8,1.7-4.4,3.3-7.9,4.6c-3.4,1.3-6.9,2-10.4,2c-4.5,0-8.4-0.9-11.7-2.8
			c-3.3-1.9-5.8-4.6-7.5-8.1c-1.7-3.5-2.5-7.3-2.5-11.4c0-4.5,0.9-8.4,2.8-11.9c1.9-3.5,4.6-6.1,8.2-8c2.7-1.4,6.2-2.1,10.2-2.1
			c5.3,0,9.5,1.1,12.4,3.3c3,2.2,4.9,5.3,5.8,9.2l-8.6,1.6c-0.6-2.1-1.7-3.8-3.4-5c-1.7-1.2-3.7-1.8-6.2-1.8c-3.8,0-6.8,1.2-9,3.6
			c-2.2,2.4-3.3,5.9-3.3,10.6c0,5.1,1.1,8.9,3.4,11.4c2.3,2.5,5.2,3.8,8.9,3.8c1.8,0,3.6-0.4,5.4-1.1c1.8-0.7,3.4-1.6,4.7-2.6v-5.4
			H253.4z"/>
	</g>
	<g>
		<path d="M213.4,142.3V99.5h29.3v7.2H222v10.1h17.9v7.2H222v18.2H213.4z"/>
	</g>
	<g>
		<path d="M290.2,126.5l8.4,2.7c-1.3,4.7-3.4,8.1-6.4,10.4c-3,2.3-6.8,3.4-11.4,3.4c-5.7,0-10.3-1.9-14-5.8
			c-3.7-3.9-5.5-9.2-5.5-15.9c0-7.1,1.8-12.6,5.5-16.6c3.7-3.9,8.5-5.9,14.5-5.9c5.2,0,9.5,1.5,12.7,4.6c1.9,1.8,3.4,4.5,4.4,7.9
			l-8.5,2c-0.5-2.2-1.6-4-3.2-5.3c-1.6-1.3-3.6-1.9-5.8-1.9c-3.2,0-5.7,1.1-7.7,3.4c-2,2.3-3,6-3,11.1c0,5.4,1,9.3,2.9,11.6
			c1.9,2.3,4.5,3.4,7.6,3.4c2.3,0,4.3-0.7,5.9-2.2C288.3,132,289.5,129.7,290.2,126.5z"/>
	</g>
</g>
</svg>
