<?xml version="1.0" encoding="UTF-8"?>
<svg version="1.1" xmlns="http://www.w3.org/2000/svg" width="350" height="443">
<path d="M0 0 C115.5 0 231 0 350 0 C350.0825 56.265 350.165 112.53 350.25 170.5 C350.28641602 188.26134766 350.32283203 206.02269531 350.36035156 224.32226562 C350.37841797 246.02246094 350.37841797 246.02246094 350.3817749 256.18347168 C350.38549925 263.27532271 350.40014735 270.36704714 350.42230225 277.4588623 C350.44784145 285.64616569 350.45932565 293.83334801 350.4537798 302.02069148 C350.45137971 306.20503429 350.45506981 310.38910683 350.47686052 314.57339954 C350.49649763 318.36742825 350.49718415 322.1609986 350.48360443 325.95504951 C350.48113987 327.95545602 350.49822364 329.95585825 350.51632309 331.95618439 C350.4045025 349.18581793 345.74530991 364.91023164 333.6484375 377.58984375 C315.45161366 394.14949022 289.99223977 398.45825588 266.75 403.61328125 C244.0441854 408.68606085 221.34191923 414.3727439 201 426 C200.42121094 426.3285498 199.84242188 426.65709961 199.24609375 426.99560547 C192.39199828 430.92291017 186.16469408 435.23089268 180.21875 440.43359375 C177.69789043 442.2132851 176.08383537 442.87625059 173 443 C171.25390625 441.8828125 171.25390625 441.8828125 169.5625 440.125 C144.89969021 416.93734892 108.09332545 408.91077499 76.18582153 401.93722534 C23.62469754 390.43704631 23.62469754 390.43704631 10 370 C2.10628706 356.5262486 -0.46580242 343.99846118 -0.36076355 328.41508484 C-0.36207929 326.99247057 -0.36471639 325.56985703 -0.36854553 324.14724731 C-0.37521748 320.26739638 -0.36331305 316.38779774 -0.34821819 312.50797878 C-0.33504129 308.24879667 -0.33950706 303.98962468 -0.34167194 299.73042774 C-0.34326169 291.47682815 -0.32946094 283.22332713 -0.31016796 274.96975281 C-0.28850585 265.41525047 -0.28618032 255.8608067 -0.28381348 246.30627441 C-0.26808427 221.10000074 -0.22620069 195.89374887 -0.1875 170.6875 C-0.125625 114.360625 -0.06375 58.03375 0 0 Z " fill="#344286" transform="translate(0,0)"/>
<path d="M0 0 C108.24 0 216.48 0 328 0 C328 20.79 328 41.58 328 63 C309.71250042 75.19166638 291.14097187 81.96515759 268.99609375 82.0546875 C255.60775771 82.15435253 246.92978004 82.69994147 236 91 C234.84044407 91.79567027 233.6762348 92.58459535 232.5078125 93.3671875 C223.77924134 99.29078539 213.95863787 105.96863252 207.23046875 114.15234375 C203.75256265 117.03334127 199.76568233 117.63138919 195.4375 118.6875 C176.94610809 123.61383999 161.16121933 132.45214252 146 144 C143.15352317 142.68288024 140.90621883 141.18740557 138.5 139.1875 C130.09102464 132.79106234 118.03889645 128.24697882 107.4375 127.875 C101.68694427 126.41122218 98.18756065 122.03516525 94 118 C92.69249161 116.93136334 91.38032884 115.86838335 90.0625 114.8125 C84.0378952 109.60269831 77.56857342 102.13714683 74 95 C71.3258031 94.4742772 68.69656402 94.05661143 66 93.6875 C48.95696458 91.06575646 31.94317972 86.9228721 19.81640625 73.859375 C13.93441384 67.83823869 8.48503791 66.69700758 0 65 C0 43.55 0 22.1 0 0 Z " fill="#FCFCFD" transform="translate(11,10)"/>
<path d="M0 0 C0.33 0 0.66 0 1 0 C1.06857277 29.28306106 1.12159848 58.56611639 1.15319599 87.84924144 C1.1569477 91.31355692 1.1608307 94.77787225 1.16479492 98.2421875 C1.16558185 98.93181316 1.16636878 99.62143882 1.16717956 100.33196223 C1.180201 111.46946966 1.20383667 122.60693021 1.23145839 133.74440992 C1.25960373 145.18925353 1.2759712 156.63405926 1.28226548 168.07893848 C1.28616471 174.50029403 1.29528169 180.92154354 1.31719017 187.34286499 C1.3376769 193.39699657 1.34380929 199.45097926 1.33932304 205.50514221 C1.34014282 207.71730867 1.34603531 209.92948053 1.35761642 212.14161682 C1.45570778 231.85910291 1.01191732 250.59323145 -13.1875 265.875 C-31.38632547 282.47160329 -58.00682739 286.15250366 -81.30419922 291.19287109 C-108.24038262 297.07548586 -135.70239147 304.28648233 -157.44921875 322.07763672 C-159.046875 323.32421875 -159.046875 323.32421875 -162 325 C-165.97997359 324.22444623 -168.72139223 321.84090514 -171.875 319.375 C-196.47502868 301.33065179 -226.91131686 294.74885056 -256.19921875 288.44921875 C-304.67677713 277.99406427 -304.67677713 277.99406427 -318.375 258.5625 C-326.02706403 246.06845195 -327.31465591 233.01064993 -327.22705078 218.61230469 C-327.22734283 217.33283463 -327.22763489 216.05336456 -327.22793579 214.73512268 C-327.22850365 211.26687757 -327.21684255 207.79877416 -327.20278788 204.33056164 C-327.1901847 200.69110543 -327.18910253 197.05164507 -327.18673706 193.41217041 C-327.18055021 186.53829987 -327.16417771 179.66449384 -327.14403808 172.79065156 C-327.12159147 164.95739963 -327.11066374 157.12414443 -327.10064721 149.29086828 C-327.07980862 133.19387458 -327.04468772 117.09694555 -327 101 C-324.03 101 -321.06 101 -318 101 C-317.99668985 101.665921 -317.99337971 102.331842 -317.98996925 103.01794243 C-317.90859916 119.25294334 -317.81646132 135.48784428 -317.71247292 151.72271538 C-317.66244123 159.57391301 -317.61599758 167.4251007 -317.578125 175.27636719 C-317.54508977 182.12289986 -317.50519567 188.96935312 -317.45720994 195.81579792 C-317.43205905 199.43787264 -317.41024473 203.05989546 -317.39665604 206.68203354 C-317.38132367 210.73458942 -317.35067238 214.78689551 -317.31884766 218.83935547 C-317.31668747 220.02834946 -317.31452728 221.21734344 -317.31230164 222.44236755 C-317.16867792 236.80026949 -314.66456423 249.13004642 -304.48046875 259.74609375 C-300.6410296 263.23484397 -296.63712253 265.70569872 -292 268 C-291.18917969 268.41636719 -290.37835938 268.83273437 -289.54296875 269.26171875 C-274.89940251 276.05822021 -258.1151465 278.56801517 -242.44338989 282.05493164 C-235.52759656 283.61020577 -228.67001605 285.34817343 -221.81640625 287.15625 C-220.76876099 287.43114258 -219.72111572 287.70603516 -218.64172363 287.98925781 C-216.09407462 288.65797025 -213.54684609 289.32823733 -211 290 C-211.0149139 278.45521519 -211.05668254 266.91086267 -211.13209057 255.36630535 C-211.16628139 250.00480824 -211.19145825 244.64359369 -211.19555664 239.28198242 C-211.19985653 234.10105316 -211.22845925 228.92076047 -211.27343178 223.74003029 C-211.28635285 221.77027923 -211.29073372 219.80045179 -211.28615379 217.83066368 C-211.26697218 207.06914923 -211.42439117 198.52321445 -217 189 C-221.96641211 177.17156306 -221.31820186 164.00817615 -217.265625 152.02734375 C-216 149 -216 149 -215.01417542 147.26142883 C-212.11624009 142.10548225 -211.47611545 138.11849783 -211.63671875 132.265625 C-211.63685303 130.62369779 -211.63617856 128.98177035 -211.63476562 127.33984375 C-211.6557239 124.78293463 -211.68792948 122.22696497 -211.7355957 119.67041016 C-211.77434524 117.18045509 -211.77048609 114.69330065 -211.76171875 112.203125 C-211.8019239 111.05774261 -211.8019239 111.05774261 -211.84294128 109.88922119 C-211.82299805 107.72363281 -211.82299805 107.72363281 -211 104 C-208.75631967 101.85718591 -206.97915482 101.18544757 -204 100 C-200.0625 100.25 -200.0625 100.25 -197 101 C-196.67 101.99 -196.34 102.98 -196 104 C-192.67165165 106.09415219 -188.80894789 107.23548651 -185.125 108.5625 C-183.93132812 108.99691406 -182.73765625 109.43132812 -181.5078125 109.87890625 C-174.39069087 112.15353198 -167.59981748 112.19194184 -160.1875 112.1875 C-158.5161499 112.1884668 -158.5161499 112.1884668 -156.81103516 112.18945312 C-149.18615795 112.14106215 -141.83195737 111.6234156 -134.3046875 110.4375 C-127.9365132 109.5888521 -121.41293691 109.92495832 -115 110 C-114.99589111 110.88671387 -114.99178223 111.77342773 -114.98754883 112.68701172 C-114.9603401 116.0238899 -114.91102179 119.35900337 -114.84741211 122.6953125 C-114.82442594 124.13042125 -114.80988253 125.56569405 -114.80444336 127.00097656 C-114.76815421 135.006922 -114.5053612 141.80502946 -110.2421875 148.86669922 C-104.35685077 158.97402476 -104.6850213 172.38954942 -107.2265625 183.4765625 C-108.97074874 189.16719032 -111.33934028 194.67868055 -114 200 C-114.12272611 202.83684446 -114.18574561 205.65071994 -114.20532227 208.48876953 C-114.21522186 209.36688293 -114.22512146 210.24499634 -114.23532104 211.14971924 C-114.26698274 214.06072262 -114.29171191 216.97174235 -114.31640625 219.8828125 C-114.33697175 221.89778067 -114.35796811 223.91274449 -114.37937927 225.92770386 C-114.43464171 231.23773681 -114.48403257 236.54780897 -114.53222656 241.85791016 C-114.58241115 247.27379862 -114.63811308 252.68962997 -114.69335938 258.10546875 C-114.80099197 268.73693041 -114.9024256 279.3684416 -115 290 C-114.38279587 289.83755295 -113.76559174 289.6751059 -113.12968445 289.50773621 C-101.04891868 286.33188903 -88.96565452 283.20085607 -76.8125 280.3125 C-72.20739432 279.21220958 -67.60297433 278.10917502 -63 277 C-61.93450928 276.7436377 -60.86901855 276.48727539 -59.77124023 276.22314453 C-42.83137606 272.07858225 -25.42218078 267.10353858 -15 252 C-13.33158813 248.74784194 -12.07757305 245.4887761 -11 242 C-10.65863636 240.98671946 -10.31727272 239.97343891 -9.96556473 238.9294529 C-8.70665041 234.47672602 -8.72964037 230.17417861 -8.76190186 225.57406616 C-8.75956334 224.17993687 -8.75956334 224.17993687 -8.75717759 222.75764334 C-8.7542301 219.6539441 -8.76538145 216.55045612 -8.77636719 213.44677734 C-8.77689159 211.21743268 -8.77645537 208.98808762 -8.77513123 206.75874329 C-8.77379885 201.96355639 -8.77820085 197.16842074 -8.78673553 192.37324142 C-8.79911942 184.79336103 -8.7921681 177.21357582 -8.78131104 169.63369751 C-8.76727882 159.00970421 -8.75588401 148.38572009 -8.75146484 137.76171875 C-8.75117909 137.08811926 -8.75089335 136.41451977 -8.75059894 135.72050817 C-8.74649011 124.79264583 -8.7577339 113.86483796 -8.77284035 102.9369878 C-8.7878039 91.71001103 -8.77945938 80.48319672 -8.75222325 69.25623095 C-8.73790682 62.95539307 -8.73495933 56.65498751 -8.75844574 50.35416794 C-8.78051627 44.43275012 -8.77512596 38.51200525 -8.74846077 32.59061241 C-8.74367724 30.41575199 -8.74920029 28.24084128 -8.76569176 26.06603813 C-8.78669961 23.10052249 -8.77100014 20.13739917 -8.74603271 17.17196655 C-8.76845822 15.87610723 -8.76845822 15.87610723 -8.79133677 14.55406892 C-8.6891633 8.8224439 -8.6891633 8.8224439 -6.68481493 6.43046498 C-5.18766344 5.20379752 -3.59545145 4.09576929 -2 3 C-1.34 2.01 -0.68 1.02 0 0 Z " fill="#FAFAFB" transform="translate(338,101)"/>
<path d="M0 0 C0.11427411 28.53568592 0.20265695 57.07134286 0.25532665 85.60721314 C0.26157954 88.98269 0.26805121 92.3581664 0.2746582 95.73364258 C0.27596976 96.40558686 0.27728131 97.07753114 0.2786326 97.76983737 C0.30033838 108.6235392 0.33973295 119.47710745 0.38576398 130.33073027 C0.43266359 141.48287697 0.45995 152.63497829 0.47044247 163.78722471 C0.47694284 170.04487307 0.49214772 176.30221934 0.52865028 182.55977058 C0.56278044 188.45884491 0.5730186 194.35749487 0.56553841 200.25665855 C0.56690536 202.41282081 0.57673546 204.56899839 0.59602737 206.72507477 C0.7253255 221.93117759 0.26672899 237.38536727 -11 249 C-11.57363281 249.60070312 -12.14726562 250.20140625 -12.73828125 250.8203125 C-27.64587716 265.07975206 -50.7230719 268.57675683 -70.14717102 272.81686401 C-71.13779793 273.03319992 -71.13779793 273.03319992 -72.1484375 273.25390625 C-72.80712326 273.39772736 -73.46580902 273.54154846 -74.14445496 273.68972778 C-81.73255106 275.36008805 -89.25756065 277.27255201 -96.77783203 279.22265625 C-98.1485083 279.57457031 -98.1485083 279.57457031 -99.546875 279.93359375 C-100.33932617 280.14040771 -101.13177734 280.34722168 -101.94824219 280.56030273 C-104 281 -104 281 -107 281 C-107.11619867 269.45554396 -107.20486968 257.9112286 -107.25906086 246.36630535 C-107.28507896 241.00465321 -107.32033418 235.64340319 -107.37719727 230.28198242 C-107.43179542 225.10129189 -107.46147902 219.92098648 -107.47438622 214.74003029 C-107.48357637 212.77017981 -107.50152207 210.80034879 -107.52865028 208.83066368 C-107.67048706 198.09895755 -107.69371769 189.4703946 -102 180 C-100.34690477 175.7019524 -99.35560133 171.58240802 -99 167 C-98.88398438 165.51693359 -98.88398438 165.51693359 -98.765625 164.00390625 C-98.36816317 154.27713195 -99.89003409 142.96917526 -105.56835938 134.72216797 C-107.38579013 131.26644612 -107.34264519 128.84053997 -107.29296875 124.94921875 C-107.28872391 124.29041214 -107.28447906 123.63160553 -107.28010559 122.95283508 C-107.26341196 120.86396115 -107.22578058 118.77607861 -107.1875 116.6875 C-107.17244097 115.26498797 -107.15875469 113.8424607 -107.14648438 112.41992188 C-107.11354003 108.94629649 -107.06182408 105.47324513 -107 102 C-101.06009416 101.78372254 -95.79771677 102.19776583 -90.0625 103.75 C-89.36938721 103.93264404 -88.67627441 104.11528809 -87.9621582 104.3034668 C-74.28636555 108.00888783 -63.53867836 114.23373307 -53.19140625 123.984375 C-48.91071682 128.07771072 -48.91071682 128.07771072 -43.25 129.1875 C-42.1775 129.125625 -41.105 129.06375 -40 129 C-39.43700608 124.49604865 -39.67788989 121.88441499 -42.3125 118.125 C-46.57510055 112.97808372 -51.61418907 108.91883174 -57 105 C-57.92554688 104.31808594 -58.85109375 103.63617188 -59.8046875 102.93359375 C-68.9950163 96.95871078 -79.15144195 94.45965569 -89.69482422 91.87670898 C-96.69714797 90.12310218 -102.13850121 88.25289198 -108 84 C-107.9453125 81.734375 -107.9453125 81.734375 -107 79 C-104.60214549 77.4990529 -102.44177392 76.37405869 -99.875 75.25 C-98.40790651 74.56075813 -96.94310839 73.86661241 -95.48046875 73.16796875 C-94.35970947 72.63502197 -94.35970947 72.63502197 -93.21630859 72.09130859 C-78.63132417 64.90967383 -63.9696237 55.30329071 -55.78515625 40.85546875 C-53.05678997 38.01963947 -49.64145714 37.52799452 -45.9375 36.625 C-34.9900179 33.66827966 -25.08480023 28.92208687 -18.75390625 19.05859375 C-16.89375654 15.57677506 -15.94846491 12.72370216 -15.5 8.8125 C-15.09375 6.83203125 -15.09375 6.83203125 -14 5 C-9.8590488 2.54279763 -4.90735717 0 0 0 Z " fill="#CF332C" transform="translate(330,110)"/>
<path d="M0 0 C0.92053527 8.1007104 -2.35378784 15.3045161 -7.01953125 21.8203125 C-12.49169301 28.24123786 -18.58890186 33.26672409 -27 35 C-28.63965479 35.05714569 -30.28159121 35.06202173 -31.921875 35.02734375 C-32.86546875 35.01509766 -33.8090625 35.00285156 -34.78125 34.99023438 C-36.74487042 34.95535428 -38.70842246 34.91635833 -40.671875 34.87304688 C-46.46999291 34.80608492 -51.50077051 35.06248077 -57 37 C-57.33 37.99 -57.66 38.98 -58 40 C-49.42 40 -40.84 40 -32 40 C-33.2377009 48.66390632 -36.00177505 54.08742162 -42.859375 59.55859375 C-56.96843269 69.05903588 -72.28090367 71.99518431 -89 71 C-92.21320593 70.2650646 -94.93363313 69.24733568 -98 68 C-98.99 68 -99.98 68 -101 68 C-101 68.99 -101 69.98 -101 71 C-92.17246118 74.44859625 -83.3501889 74.68543448 -74 75 C-83.43228643 89.49252593 -97.7451305 97.86287222 -113.07324219 105.08886719 C-115.17200181 106.08133689 -117.26518448 107.08328968 -119.3515625 108.1015625 C-120.00205566 108.41689941 -120.65254883 108.73223633 -121.32275391 109.05712891 C-123.18416799 110.0042461 -123.18416799 110.0042461 -125 112 C-125.24287489 114.44012949 -125.24287489 114.44012949 -125.125 117.125 C-125.10695312 118.03507812 -125.08890625 118.94515625 -125.0703125 119.8828125 C-125.04710937 120.58148438 -125.02390625 121.28015625 -125 122 C-121.0407873 123.65280227 -117.03445989 124.97896798 -112.9375 126.25 C-112.25067139 126.46543457 -111.56384277 126.68086914 -110.85620117 126.90283203 C-106.90653801 128.13361024 -102.9463708 129.30436889 -98.9609375 130.4140625 C-83.28740679 134.82182434 -68.14959729 140.47378959 -58.375 154.4375 C-57 157 -57 157 -57 159 C-60.69287653 157.42103644 -63.2673765 155.0993665 -66.25 152.4375 C-83.63523213 137.55334896 -102.88136561 131.82366747 -125.5625 131.8125 C-126.84447266 131.80025391 -128.12644531 131.78800781 -129.44726562 131.77539062 C-143.57679655 131.4365954 -143.57679655 131.4365954 -157 135 C-165.0794721 135.9457576 -172.48643976 134.71292854 -180.3125 132.8125 C-181.14765137 132.61640137 -181.98280273 132.42030273 -182.84326172 132.21826172 C-189.78749179 130.42046085 -195.24677795 127.42545752 -200.625 122.6875 C-202.89776615 120.83441871 -202.89776615 120.83441871 -205.6875 120.4375 C-209.74225943 121.12604405 -212.70339675 122.75889812 -216.2421875 124.80859375 C-230.59522282 131.00926765 -249.84058631 126.71980456 -264 122 C-266.09458393 121.91565616 -268.19182647 121.89275377 -270.28808594 121.90234375 C-272.23590973 121.90729858 -272.23590973 121.90729858 -274.2230835 121.91235352 C-275.26410847 121.91853195 -275.26410847 121.91853195 -276.32616425 121.92483521 C-278.50425699 121.93761667 -280.68228867 121.94411971 -282.8604126 121.94897461 C-288.27334735 121.96233777 -293.68622447 121.98646742 -299.09912109 122.01037598 C-303.66896494 122.03016814 -308.23878667 122.04578768 -312.80866241 122.05593872 C-314.94619211 122.06238485 -317.08363038 122.07489622 -319.22113037 122.08764648 C-320.53228821 122.09094971 -321.84344604 122.09425293 -323.19433594 122.09765625 C-324.91617096 122.10551147 -324.91617096 122.10551147 -326.67279053 122.11352539 C-330.17616252 121.99398928 -333.54114596 121.55561383 -337 121 C-336 119.5625 -336 119.5625 -334 118 C-327.17342569 116.8876341 -320.32545958 116.6968514 -313.421875 116.48242188 C-304.87482382 116.13503406 -298.41723207 114.59873426 -291.125 109.875 C-286.19864566 106.90110782 -282.11016693 104.86702488 -276.24609375 105.40625 C-270.98160774 106.79790543 -267.25157773 109.71713283 -263.5 113.5625 C-259.34365434 117.61493702 -255.14483529 119.74114057 -249.375 120.4375 C-244.34100144 119.78494463 -241.27690472 118.17868128 -237.5625 114.75 C-235.75662002 112.0455259 -235.75662002 112.0455259 -235.8125 108.6875 C-238.29383896 100.98228956 -244.05620455 96.39121074 -250.92578125 92.48828125 C-254.0109356 90.99470589 -257.12247387 89.737111 -260.31518555 88.49755859 C-275.11364457 82.75180166 -275.11364457 82.75180166 -280 76 C-280 74.68 -280 73.36 -280 72 C-271.53795229 71.69778401 -263.36254017 72.85079203 -255 74 C-255 72.35 -255 70.7 -255 69 C-255.95777344 69.04640625 -256.91554688 69.0928125 -257.90234375 69.140625 C-276.21624913 69.75473284 -293.06296677 65.34643005 -307.5 53.625 C-314.19660761 47.2049914 -319.63611109 39.03839876 -322 30 C-321.67 29.34 -321.34 28.68 -321 28 C-320.32195312 28.51949219 -319.64390625 29.03898437 -318.9453125 29.57421875 C-306.47914552 38.91521091 -294.82309788 44.81221225 -279 44 C-279 43.34 -279 42.68 -279 42 C-280.22074219 41.79246094 -281.44148438 41.58492187 -282.69921875 41.37109375 C-302.87242835 37.6989408 -316.97029632 28.99159585 -329 12 C-332 7.1010101 -332 7.1010101 -332 4 C-326.30194647 3.53485277 -322.50085134 4.5401619 -318 8 C-316.96103224 9.06595394 -315.94116797 10.15074461 -314.9375 11.25 C-303.80673395 22.8810252 -282.94495901 30.49470031 -266.92480469 31.07519531 C-263.9568598 31.18711304 -261.63781408 31.47084438 -259.31469727 33.39819336 C-257.63074994 35.3203008 -256.12132914 37.30364691 -254.625 39.375 C-253.5024002 40.83908309 -252.37738107 42.30131418 -251.25 43.76171875 C-250.42822266 44.84332275 -250.42822266 44.84332275 -249.58984375 45.94677734 C-246.01585608 50.56244631 -242.09379681 54.83993669 -238 59 C-237.20335937 59.82951172 -237.20335937 59.82951172 -236.390625 60.67578125 C-232.07823596 64.44356446 -226.88057023 64.90000513 -221.41015625 65.76977539 C-210.94052529 67.52314936 -197.91955464 71.54276655 -191 80 C-191 82 -191 82 -192.57421875 83.5859375 C-193.27160156 84.17632812 -193.96898437 84.76671875 -194.6875 85.375 C-195.41453125 85.99761719 -196.1415625 86.62023437 -196.890625 87.26171875 C-198.53541527 88.61714777 -200.22808987 89.91453501 -201.9375 91.1875 C-204.14917993 93.13109752 -204.69079773 94.11411219 -205 97 C-201.07190539 95.68385086 -198.94308162 94.18925165 -196.1875 91.125 C-179.98975914 74.44454501 -156.87788178 60.64456997 -134 56 C-126.89702072 54.52970861 -122.85115194 52.36068212 -118 47 C-112.40486915 41.56912987 -106.53576688 36.79422036 -100.125 32.375 C-99.19010742 31.72869629 -99.19010742 31.72869629 -98.23632812 31.06933594 C-96.92683466 30.18365917 -95.60581576 29.31484934 -94.27539062 28.4609375 C-92.59701785 27.38332133 -90.94267275 26.2680631 -89.30273438 25.1328125 C-81.48609152 20.0424243 -75.46785796 19.07577932 -66.25 19.25 C-63.76813335 19.22583335 -61.28633321 19.19333974 -58.8046875 19.15234375 C-57.62616211 19.1354248 -56.44763672 19.11850586 -55.23339844 19.10107422 C-36.10352204 18.50308503 -15.85842608 0 0 0 Z " fill="#FCFCFD" transform="translate(343,76)"/>
<path d="M0 0 C11.57239031 8.93744605 19.98536265 19.73472543 23.2890625 34.2109375 C24.39699189 45.90465105 24.03705878 57.35614338 19.2890625 68.2109375 C18.9384375 69.01402344 18.5878125 69.81710937 18.2265625 70.64453125 C11.51776406 84.08542258 -0.18094678 92.65819168 -13.75390625 98.265625 C-27.80644176 102.75798113 -42.72642729 101.03060504 -55.76171875 94.73828125 C-67.35028205 88.50961254 -75.26901763 80.14914923 -80.7109375 68.2109375 C-81.1234375 67.42976563 -81.5359375 66.64859375 -81.9609375 65.84375 C-87.01497953 54.85822809 -86.32026554 39.48870338 -83.1484375 28.0234375 C-76.70670885 10.74789247 -64.40080029 0.61530031 -48.22265625 -6.953125 C-32.97933502 -12.58709865 -13.21963001 -8.72419387 0 0 Z " fill="#384688" transform="translate(205.7109375,225.7890625)"/>
<path d="M0 0 C0.33 0.99 0.66 1.98 1 3 C4.32834835 5.09415219 8.19105211 6.23548651 11.875 7.5625 C13.06867188 7.99691406 14.26234375 8.43132812 15.4921875 8.87890625 C22.60930913 11.15353198 29.40018252 11.19194184 36.8125 11.1875 C37.9267334 11.18814453 39.0409668 11.18878906 40.18896484 11.18945312 C47.81384205 11.14106215 55.16804263 10.6234156 62.6953125 9.4375 C69.0634868 8.5888521 75.58706309 8.92495832 82 9 C82.00410889 9.88671387 82.00821777 10.77342773 82.01245117 11.68701172 C82.0396599 15.0238899 82.08897821 18.35900337 82.15258789 21.6953125 C82.17557406 23.13042125 82.19011747 24.56569405 82.19555664 26.00097656 C82.23184579 34.006922 82.4946388 40.80502946 86.7578125 47.86669922 C92.63897798 57.96686115 92.32748018 71.39825129 89.76953125 82.4765625 C85.92873051 95.07126949 85.92873051 95.07126949 82 99 C80.68925901 95.06777704 81.69578222 93.84525597 83.375 90.125 C88.73793113 78.17075687 89.12463391 62.84578909 85 50.375 C78.59736842 35.19572738 67.869704 25.52107131 53 19 C52.18015625 18.63648438 51.3603125 18.27296875 50.515625 17.8984375 C38.65031229 13.66082582 23.23920566 14.69346696 12 20 C-2.05577527 26.95743262 -11.90705892 36.94822677 -17.4375 51.8125 C-21.9377045 68.20889728 -19.63903276 84.07889863 -12 99 C-12.99 99 -13.98 99 -15 99 C-22.72010434 82.9495064 -26.12513239 68.35009377 -20.265625 51.02734375 C-19 48 -19 48 -18.01417542 46.26142883 C-15.11624009 41.10548225 -14.47611545 37.11849783 -14.63671875 31.265625 C-14.63685303 29.62369779 -14.63617856 27.98177035 -14.63476562 26.33984375 C-14.6557239 23.78293463 -14.68792948 21.22696497 -14.7355957 18.67041016 C-14.77434524 16.18045509 -14.77048609 13.69330065 -14.76171875 11.203125 C-14.8019239 10.05774261 -14.8019239 10.05774261 -14.84294128 8.88922119 C-14.82299805 6.72363281 -14.82299805 6.72363281 -14 3 C-9.74323518 -1.06539895 -5.57493418 -1.36529 0 0 Z " fill="#F8F7F9" transform="translate(141,202)"/>
<path d="M0 0 C10.97355595 -1.26597365 10.97355595 -1.26597365 15.45117188 2.14013672 C18.2304372 5.59574678 20.24485862 8.85905716 20.98632812 13.26513672 C18.91802202 19.41295457 16.02995195 27.16018305 9.96777344 30.31591797 C3.87238702 32.2599254 -3.92083104 33.49447086 -10.01367188 31.26513672 C-14.47628251 27.79034354 -18.02260861 24.0744073 -21.01367188 19.26513672 C-21.17060348 15.01716052 -19.89275663 12.01737852 -18.01367188 8.26513672 C-17.76359375 7.37310547 -17.51351562 6.48107422 -17.25585938 5.56201172 C-16.01367188 3.26513672 -16.01367188 3.26513672 -13.28320312 2.12060547 C-8.86400483 1.26672648 -4.45862898 0.58706002 0 0 Z " fill="#FCFCFD" transform="translate(171.013671875,224.73486328125)"/>
<path d="M0 0 C1.97265625 2.1796875 1.97265625 2.1796875 4.0625 4.875 C4.75472656 5.75929687 5.44695312 6.64359375 6.16015625 7.5546875 C10.28895999 13.04222708 10.28895999 13.04222708 9.828125 17.30859375 C9.74046875 18.13810547 9.6528125 18.96761719 9.5625 19.82226562 C9.459375 20.68529297 9.35625 21.54832031 9.25 22.4375 C9.16234375 23.29666016 9.0746875 24.15582031 8.984375 25.04101562 C8.15453175 32.46926524 8.15453175 32.46926524 6 36 C3.57421875 37.484375 3.57421875 37.484375 0.6875 38.75 C-0.25738281 39.17796875 -1.20226562 39.6059375 -2.17578125 40.046875 C-5.12757106 41.04305303 -6.92411815 41.46574867 -10 41 C-14.76819694 38.24349491 -19.21003503 34.72361056 -20.78515625 29.29296875 C-20.88700919 26.05581663 -20.55665009 23.19341367 -20 20 C-19.88785156 19.32324219 -19.77570313 18.64648438 -19.66015625 17.94921875 C-19.27863102 15.7662651 -18.84119718 13.60387378 -18.375 11.4375 C-18.23562012 10.74648193 -18.09624023 10.05546387 -17.95263672 9.34350586 C-17.02903862 5.6385659 -16.32956946 4.21309511 -13.08203125 2.11328125 C-3.76094891 -1.25364964 -3.76094891 -1.25364964 0 0 Z " fill="#FBFCFD" transform="translate(149,246)"/>
<path d="M0 0 C1.52040718 -0.05506505 3.04142704 -0.09326375 4.5625 -0.125 C5.83287109 -0.15980469 5.83287109 -0.15980469 7.12890625 -0.1953125 C10.85570486 0.05821122 13.55150662 0.48564454 17 2 C18.9711306 4.53841341 20.14791775 7.29407313 21.375 10.25 C21.88740234 11.37728516 21.88740234 11.37728516 22.41015625 12.52734375 C25.95790868 20.56237197 25.95790868 20.56237197 26 25 C24.78157414 27.52902577 23.62572993 29.59087561 22.0625 31.875 C21.67642578 32.46796875 21.29035156 33.0609375 20.89257812 33.671875 C19.94359786 35.12463491 18.97382132 36.56377337 18 38 C15.93690624 37.88521587 13.87451646 37.75773802 11.8125 37.625 C10.66394531 37.55539062 9.51539063 37.48578125 8.33203125 37.4140625 C2.79044384 36.72542444 2.79044384 36.72542444 0 35 C-1.76359396 32.54393104 -3.03058872 29.91916293 -4.3125 27.1875 C-4.67150391 26.47529297 -5.03050781 25.76308594 -5.40039062 25.02929688 C-8.79409589 18.04149614 -8.79409589 18.04149614 -8 14 C-6.74389106 11.45133254 -5.47160306 9.10122731 -4 6.6875 C-3.6184375 6.04232422 -3.236875 5.39714844 -2.84375 4.73242188 C-1.90552382 3.14916519 -0.95405689 1.57376795 0 0 Z " fill="#FBFCFD" transform="translate(195,239)"/>
<path d="M0 0 C0.64122684 1.26205529 1.2800882 2.5253126 1.91796875 3.7890625 C2.2739917 4.49240723 2.63001465 5.19575195 2.99682617 5.92041016 C4.63700569 9.32051947 5.33041303 11.16720887 5 15 C2.40998636 18.76448283 -0.7262733 21.82965414 -4 25 C-4.74378906 25.80953125 -5.48757812 26.6190625 -6.25390625 27.453125 C-11.45156479 32.77165932 -11.45156479 32.77165932 -15.54296875 33.375 C-18.16803618 33.18437483 -20.46971997 32.71398991 -23 32 C-23.69867188 31.85175781 -24.39734375 31.70351563 -25.1171875 31.55078125 C-27 31 -27 31 -30 29 C-31.31608934 26.04912703 -31.75895425 23.20738428 -32 20 C-32.13277344 18.90171875 -32.26554688 17.8034375 -32.40234375 16.671875 C-31.840921 11.54821107 -29.65165857 9.11423011 -26.125 5.5 C-25.51382324 4.8714209 -24.90264648 4.2428418 -24.27294922 3.59521484 C-16.86544026 -3.17024851 -9.25319513 -1.90938947 0 0 Z " fill="#FCFCFD" transform="translate(212,280)"/>
<path d="M0 0 C2.95248502 1.61582762 4.6229849 2.8508031 6.15380859 5.87695312 C6.68175374 8.71612479 6.81468295 11.32954594 6.80615234 14.21289062 C7.05365234 15.45039063 7.30115234 16.68789063 7.55615234 17.96289062 C6.45561917 22.73186772 3.56063399 24.28278487 -0.32275391 27.02539062 C-4.65175457 28.81588886 -7.90460728 28.13860655 -12.2019043 26.40087891 C-14.31616008 25.41494102 -16.38019332 24.36304426 -18.44384766 23.27539062 C-19.15025391 22.91509766 -19.85666016 22.55480469 -20.58447266 22.18359375 C-23.58036133 20.64309418 -26.38442097 19.08584175 -29.19384766 17.21289062 C-29.41492553 14.42436172 -29.47492301 11.86635882 -29.38134766 9.08789062 C-29.3678125 8.33378906 -29.35427734 7.5796875 -29.34033203 6.80273438 C-29.30494751 4.93914935 -29.25113933 3.07593085 -29.19384766 1.21289062 C-27.59094236 0.39790501 -25.98647488 -0.41400865 -24.38134766 -1.22460938 C-23.48802734 -1.67707031 -22.59470703 -2.12953125 -21.67431641 -2.59570312 C-13.94675 -6.30736888 -7.37188165 -3.57401374 0 0 Z " fill="#FCFCFD" transform="translate(171.19384765625,289.787109375)"/>
<path d="M0 0 C3.95833245 3.95833245 4.55143105 4.79171571 5.625 9.875 C6.28788243 12.92425917 6.92362458 15.79842942 8.03024292 18.71902466 C9.14378499 22.4864672 9.24027392 25.63864513 9.22705078 29.56591797 C9.22734283 30.29831192 9.22763489 31.03070587 9.22793579 31.78529358 C9.22655094 34.18771529 9.21102997 36.58982048 9.1953125 38.9921875 C9.19157936 40.66512889 9.18873381 42.33807248 9.18673706 44.01101685 C9.1791243 48.40045272 9.15949619 52.7897549 9.1373291 57.17913818 C9.11681976 61.66367789 9.10772448 66.14823934 9.09765625 70.6328125 C9.07624796 79.42193615 9.04214065 88.21095141 9 97 C6.03 97 3.06 97 0 97 C0 64.99 0 32.98 0 0 Z " fill="#F2F2F7" transform="translate(11,92)"/>
<path d="M0 0 C16 0 16 0 21 4 C22.85035348 7.70070696 22.4754747 11.96155254 22 16 C20.91546245 18.41534564 19.72477676 19.9518276 18 22 C18.29648438 22.556875 18.59296875 23.11375 18.8984375 23.6875 C20.04459481 26.09361747 20.85521772 28.44961024 21.625 31 C21.88539062 31.845625 22.14578125 32.69125 22.4140625 33.5625 C23 36 23 36 23 40 C20.36 40 17.72 40 15 40 C14.16280617 37.70967689 13.3301071 35.41789043 12.5 33.125 C12.26152344 32.47402344 12.02304688 31.82304688 11.77734375 31.15234375 C10 26.2265625 10 26.2265625 10 24 C9.34 24 8.68 24 8 24 C8 29.28 8 34.56 8 40 C5.36 40 2.72 40 0 40 C0 26.8 0 13.6 0 0 Z " fill="#394889" transform="translate(96,24)"/>
<path d="M0 0 C2.37174189 2.37174189 2.95815317 4.3000692 4.125 7.4375 C10.73615032 23.48491429 22.46116747 32.27729776 37.9609375 39.0546875 C53.10471137 45.20167463 69.6168764 48.20949533 85.51953125 51.7734375 C86.41494629 51.97420898 87.31036133 52.17498047 88.23291016 52.38183594 C90.11471294 52.80222809 91.9972311 53.21942803 93.88037109 53.63378906 C121.04033793 59.67934811 149.28177394 69.51514542 170.015625 88.8828125 C172.00052316 90.29609469 172.00052316 90.29609469 174.4765625 89.41015625 C177.07225544 87.95962196 179.13137894 86.38590777 181.375 84.4375 C206.6713718 63.80491356 239.2852351 56.02505286 270.45141602 49.10839844 C308.63157295 41.29270755 308.63157295 41.29270755 337.39453125 16.875 C340.41786507 11.46095209 342.7317094 5.76627719 345 0 C346.77397762 5.32193285 343.38083751 10.1735002 341 15 C329.96409442 34.09430198 310.8783962 42.0376144 290.48828125 47.53125 C281.94868861 49.73189057 273.35877063 51.70389423 264.75 53.61328125 C242.0441854 58.68606085 219.34191923 64.3727439 199 76 C198.42121094 76.3285498 197.84242188 76.65709961 197.24609375 76.99560547 C190.39199828 80.92291017 184.16469408 85.23089268 178.21875 90.43359375 C175.69789043 92.2132851 174.08383537 92.87625059 171 93 C169.25390625 91.8828125 169.25390625 91.8828125 167.5625 90.125 C142.89969021 66.93734892 106.09332545 58.91077499 74.18582153 51.93722534 C21.51069415 40.41210279 21.51069415 40.41210279 8 20 C0.85951547 7.33378781 0.85951547 7.33378781 0 0 Z " fill="#EEF0F5" transform="translate(2,350)"/>
<path d="M0 0 C2.31 0 4.62 0 7 0 C9.64 6.27 12.28 12.54 15 19 C15.33 12.73 15.66 6.46 16 0 C18.31 0 20.62 0 23 0 C23 13.2 23 26.4 23 40 C20.69 40 18.38 40 16 40 C12.94845152 34.11487079 10.40312694 28.17946927 8 22 C7.67 27.94 7.34 33.88 7 40 C4.69 40 2.38 40 0 40 C0 26.8 0 13.6 0 0 Z " fill="#374588" transform="translate(181,24)"/>
<path d="M0 0 C3.75531015 0.76462801 5.27259905 2.3588869 7.37890625 5.484375 C8.19140625 8.796875 8.19140625 8.796875 8.37890625 11.484375 C6.06890625 12.144375 3.75890625 12.804375 1.37890625 13.484375 C1.04890625 12.164375 0.71890625 10.844375 0.37890625 9.484375 C-1.60109375 9.484375 -3.58109375 9.484375 -5.62109375 9.484375 C-6.79941996 13.01935362 -6.80506684 16.24330571 -6.80859375 19.921875 C-6.82986328 21.89994141 -6.82986328 21.89994141 -6.8515625 23.91796875 C-6.64338278 27.1394617 -6.34278141 28.82358499 -4.62109375 31.484375 C-2.64109375 31.154375 -0.66109375 30.824375 1.37890625 30.484375 C1.70890625 29.164375 2.03890625 27.844375 2.37890625 26.484375 C0.72890625 26.484375 -0.92109375 26.484375 -2.62109375 26.484375 C-2.62109375 23.514375 -2.62109375 20.544375 -2.62109375 17.484375 C1.33890625 17.484375 5.29890625 17.484375 9.37890625 17.484375 C9.56855412 20.38327815 9.70676596 23.26976369 9.81640625 26.171875 C9.87505859 26.98849609 9.93371094 27.80511719 9.99414062 28.64648438 C10.16243861 34.58499887 10.16243861 34.58499887 7.93237305 37.14477539 C3.51644411 40.42057674 -0.10741817 41.57189366 -5.62109375 41.484375 C-10.07445814 39.68590092 -12.00345813 37.33850025 -13.99609375 33.109375 C-16.68721078 25.49767997 -16.9698763 16.632757 -14.43359375 8.921875 C-10.78408429 2.00039155 -7.82778429 -0.41997054 0 0 Z " fill="#3D4B8B" transform="translate(222.62109375,23.515625)"/>
<path d="M0 0 C3.65071496 2.53314916 4.75599629 4.00521566 5.8125 8.3125 C5.874375 9.199375 5.93625 10.08625 6 11 C3.69 11.66 1.38 12.32 -1 13 C-1.99 11.68 -2.98 10.36 -4 9 C-5.95894361 9.11306697 -5.95894361 9.11306697 -8 10 C-10.64446944 14.23115111 -10.56755904 19.17163544 -10 24 C-9.20405061 26.51667236 -8.20684866 28.63658804 -7 31 C-5.02 30.67 -3.04 30.34 -1 30 C-0.67 28.68 -0.34 27.36 0 26 C-1.65 26 -3.3 26 -5 26 C-5 23.03 -5 20.06 -5 17 C-1.04 17 2.92 17 7 17 C7.18964787 19.89890315 7.32785971 22.78538869 7.4375 25.6875 C7.49615234 26.50412109 7.55480469 27.32074219 7.61523438 28.16210938 C7.78326185 34.09107902 7.78326185 34.09107902 5.57104492 36.65820312 C1.07645579 40.01325929 -3.35770666 41.65775369 -9 41 C-13.1715937 38.68244794 -15.07960972 36.51373181 -16.875 32.125 C-19.03394212 24.40710512 -19.74707631 14.69368083 -16.25 7.3125 C-15.53704257 6.18406049 -14.79066844 5.07541966 -14 4 C-13.46375 3.175 -12.9275 2.35 -12.375 1.5 C-8.46012685 -0.97255146 -4.4780401 -0.83329225 0 0 Z " fill="#3C4A8B" transform="translate(34,24)"/>
<path d="M0 0 C2.64 0 5.28 0 8 0 C8.02505615 0.83772949 8.0501123 1.67545898 8.07592773 2.53857422 C8.17100357 5.64352256 8.27024025 8.74830181 8.37231445 11.85302734 C8.43698251 13.85894807 8.49683106 15.86502228 8.55664062 17.87109375 C8.61948242 19.75634766 8.61948242 19.75634766 8.68359375 21.6796875 C8.72025146 22.84226074 8.75690918 24.00483398 8.79467773 25.20263672 C8.81821659 27.9535501 8.81821659 27.9535501 10 30 C11.32 30 12.64 30 14 30 C15.39560045 27.20879909 15.21808288 24.79794308 15.31640625 21.6796875 C15.35830078 20.42285156 15.40019531 19.16601562 15.44335938 17.87109375 C15.48267578 16.55238281 15.52199219 15.23367187 15.5625 13.875 C15.60569512 12.53514249 15.64930973 11.19529844 15.69335938 9.85546875 C15.79970981 6.57042185 15.90173808 3.28529719 16 0 C18.64 0 21.28 0 24 0 C24.08767743 4.49987562 24.14062009 8.999529 24.1875 13.5 C24.21263672 14.7684375 24.23777344 16.036875 24.26367188 17.34375 C24.3262545 25.35432554 24.33024616 32.06425454 18.9375 38.4375 C15.29330906 41.37636366 12.65156913 41.39420077 8 41 C4.99247858 39.49623929 3.51022757 38.14281805 2.13061523 35.05273438 C-0.28768284 27.62138445 -0.34957211 20.63783847 -0.1875 12.875 C-0.17396484 11.63234375 -0.16042969 10.3896875 -0.14648438 9.109375 C-0.11144295 6.07245169 -0.06231433 3.03646533 0 0 Z " fill="#3F4D8C" transform="translate(235,24)"/>
<path d="M0 0 C2.64 0 5.28 0 8 0 C8.02505615 0.83772949 8.0501123 1.67545898 8.07592773 2.53857422 C8.17100357 5.64352256 8.27024025 8.74830181 8.37231445 11.85302734 C8.43698251 13.85894807 8.49683106 15.86502228 8.55664062 17.87109375 C8.61948242 19.75634766 8.61948242 19.75634766 8.68359375 21.6796875 C8.72025146 22.84226074 8.75690918 24.00483398 8.79467773 25.20263672 C8.81821659 27.9535501 8.81821659 27.9535501 10 30 C11.32 30 12.64 30 14 30 C15.05836661 26.82490018 15.20243789 24.35717617 15.31640625 21.01953125 C15.35830078 19.85615234 15.40019531 18.69277344 15.44335938 17.49414062 C15.48267578 16.27919922 15.52199219 15.06425781 15.5625 13.8125 C15.60568359 12.58595703 15.64886719 11.35941406 15.69335938 10.09570312 C15.7995309 7.06391619 15.90157952 4.03204685 16 1 C18.31 1 20.62 1 23 1 C23.09935088 5.30495015 23.17169268 9.60928183 23.21972656 13.91503906 C23.23976332 15.37772252 23.26700104 16.84032666 23.30175781 18.30273438 C23.35063225 20.4129601 23.37304659 22.52212136 23.390625 24.6328125 C23.41157227 25.90012207 23.43251953 27.16743164 23.45410156 28.47314453 C22.8195506 33.40149032 20.58483597 36.36051451 17.1875 39.875 C13.93479128 41.54782163 11.60256642 41.44242044 8 41 C3.85502166 38.73910272 2.17872181 36.03542965 0.60205078 31.63476562 C-0.71655519 25.86412668 -0.29987759 19.88397524 -0.1875 14 C-0.17242476 12.63933774 -0.15874138 11.27865931 -0.14648438 9.91796875 C-0.11130983 6.61156157 -0.06208288 3.30599316 0 0 Z " fill="#3A488A" transform="translate(44,24)"/>
<path d="M0 0 C2.05078125 0.03255208 4.1015625 0.06510417 6.15234375 0.09765625 C8.43937311 8.21563574 10.44864823 16.37912756 12.33984375 24.59765625 C12.61248047 25.76296875 12.88511719 26.92828125 13.16601562 28.12890625 C13.42318359 29.24265625 13.68035156 30.35640625 13.9453125 31.50390625 C14.17758545 32.50744141 14.4098584 33.51097656 14.64916992 34.54492188 C15.15234375 37.09765625 15.15234375 37.09765625 15.15234375 40.09765625 C12.51234375 40.09765625 9.87234375 40.09765625 7.15234375 40.09765625 C6.65734375 37.62265625 6.65734375 37.62265625 6.15234375 35.09765625 C3.18234375 34.76765625 0.21234375 34.43765625 -2.84765625 34.09765625 C-2.84765625 36.07765625 -2.84765625 38.05765625 -2.84765625 40.09765625 C-5.48765625 40.09765625 -8.12765625 40.09765625 -10.84765625 40.09765625 C-9.58548236 31.06531195 -7.87217941 22.22385207 -5.78515625 13.34765625 C-5.38200195 11.58808594 -5.38200195 11.58808594 -4.97070312 9.79296875 C-2.72638991 0.14410095 -2.72638991 0.14410095 0 0 Z " fill="#394789" transform="translate(318.84765625,23.90234375)"/>
<path d="M0 0 C2.64 0 5.28 0 8 0 C10.76782778 7.66347511 12.51894512 15.40713545 14.1875 23.375 C14.46013672 24.64472656 14.73277344 25.91445313 15.01367188 27.22265625 C17 36.59175282 17 36.59175282 17 40 C14.36 40 11.72 40 9 40 C9 38.02 9 36.04 9 34 C6.03 34 3.06 34 0 34 C-0.33 35.98 -0.66 37.96 -1 40 C-3.31 40 -5.62 40 -8 40 C-7.49945412 31.23064535 -5.49265452 22.87664756 -3.4375 14.375 C-3.1042237 12.97540173 -2.77153707 11.57566291 -2.43945312 10.17578125 C-1.63308532 6.7822088 -0.81878389 3.39060101 0 0 Z " fill="#394789" transform="translate(128,24)"/>
<path d="M0 0 C2.64 0 5.28 0 8 0 C9.53354888 4.37695163 10.70203687 8.7395035 11.7265625 13.26171875 C11.87910492 13.93419144 12.03164734 14.60666412 12.18881226 15.29951477 C12.50792149 16.71015872 12.82549685 18.12115045 13.14160156 19.5324707 C13.62615757 21.69266056 14.11745415 23.85124243 14.609375 26.00976562 C14.91967514 27.38532553 15.22958476 28.76097359 15.5390625 30.13671875 C15.95986084 32.00396606 15.95986084 32.00396606 16.38916016 33.90893555 C17 37 17 37 17 40 C14.36 40 11.72 40 9 40 C9 38.02 9 36.04 9 34 C5.7 34 2.4 34 -1 34 C-1 35.98 -1 37.96 -1 40 C-3.64 40 -6.28 40 -9 40 C-6.43718115 26.54162167 -3.44213675 13.26069074 0 0 Z " fill="#394789" transform="translate(77,24)"/>
<path d="M0 0 C6.6 0 13.2 0 20 0 C20 2.97 20 5.94 20 9 C15.71 9 11.42 9 7 9 C7 10.98 7 12.96 7 15 C10.96 15 14.92 15 19 15 C19 17.64 19 20.28 19 23 C15.04 23 11.08 23 7 23 C7 25.64 7 28.28 7 31 C11.29 31 15.58 31 20 31 C20 33.97 20 36.94 20 40 C13.4 40 6.8 40 0 40 C0 26.8 0 13.6 0 0 Z " fill="#364587" transform="translate(263,24)"/>
<path d="M0 0 C7.59 0 15.18 0 23 0 C23 3.3 23 6.6 23 10 C20.36 10 17.72 10 15 10 C15 19.9 15 29.8 15 40 C12.36 40 9.72 40 7 40 C7 30.1 7 20.2 7 10 C4.69 10 2.38 10 0 10 C0 6.7 0 3.4 0 0 Z " fill="#3E4C8C" transform="translate(285,24)"/>
<path d="M0 0 C7.59 0 15.18 0 23 0 C23 3.3 23 6.6 23 10 C20.36 10 17.72 10 15 10 C15 19.9 15 29.8 15 40 C12.69 40 10.38 40 8 40 C8 30.1 8 20.2 8 10 C5.36 10 2.72 10 0 10 C0 6.7 0 3.4 0 0 Z " fill="#374588" transform="translate(143,24)"/>
<path d="M0 0 C2.31 0 4.62 0 7 0 C7 12.87 7 25.74 7 39 C4.69 39 2.38 39 0 39 C0 26.13 0 13.26 0 0 Z " fill="#324185" transform="translate(169,25)"/>
<path d="M0 0 C0.33 0 0.66 0 1 0 C1.14006064 5.47454399 0.70778559 10.44707878 -0.4375 15.8125 C-1.4273568 20.64828645 -2.17214018 25.3076733 -2.4375 30.25 C-2.68523845 33.83143624 -2.79944253 34.73866754 -5.0625 37.6875 C-5.701875 38.120625 -6.34125 38.55375 -7 39 C-10.65140278 26.85834361 -7.164842 14.19123248 -1.75 3.1875 C-1.1725 2.135625 -0.595 1.08375 0 0 Z " fill="#F0F1F6" transform="translate(130,243)"/>
<path d="M0 0 C2.6219806 0.99832734 3.78712624 1.62573175 5.1953125 4.1015625 C11.60039319 21.48678152 11.45560506 36.40990998 4.21875 53.53125 C3 56 3 56 1 58 C-0.31074099 54.06777704 0.69578222 52.84525597 2.375 49.125 C7.85947193 36.8998363 8.13370211 21.4820329 3.5625 8.875 C2.73372946 6.90578454 1.88518683 4.94450878 1 3 C0.67 2.01 0.34 1.02 0 0 Z " fill="#F4E3E4" transform="translate(222,243)"/>
<path d="M0 0 C0.33 0.66 0.66 1.32 1 2 C-5.23172308 14.00552401 -14.03737002 24.26321008 -27 29 C-26.07343506 25.17791961 -24.39814944 23.30883537 -21.46875 20.875 C-16.73883479 16.83300484 -12.37264766 12.48440626 -8 8.0625 C-7.22527344 7.28326172 -6.45054687 6.50402344 -5.65234375 5.70117188 C-3.76589243 3.8030758 -1.88183755 1.90266851 0 0 Z " fill="#ECEDF3" transform="translate(223,291)"/>
<path d="M0 0 C1.92005859 -0.00386719 1.92005859 -0.00386719 3.87890625 -0.0078125 C6.88057844 0.10421478 9.52836189 0.42144645 12.4375 1.125 C12.4375 1.785 12.4375 2.445 12.4375 3.125 C9.44187057 4.62281471 6.29277383 4.41500606 3 4.5625 C-2.82283276 4.86389425 -8.35763281 5.54474307 -14.078125 6.71484375 C-17.93977776 7.35238076 -21.65706366 7.25304709 -25.5625 7.125 C-18.42745464 0.88183531 -9.11870177 -0.01840303 0 0 Z " fill="#F6F7FA" transform="translate(174.5625,218.875)"/>
<path d="M0 0 C1.01578125 0.50789063 2.0315625 1.01578125 3.078125 1.5390625 C4.06921265 2.0345459 4.06921265 2.0345459 5.08032227 2.54003906 C6.53666973 3.26829473 7.99288547 3.99681389 9.44897461 4.72558594 C12.79248072 6.39862651 16.13752383 8.06806891 19.48828125 9.7265625 C24.75742898 12.33770305 29.93658833 15.00798402 35 18 C35 18.33 35 18.66 35 19 C21.64272726 17.99190394 9.19517755 11.81607379 0 2 C0 1.34 0 0.68 0 0 Z " fill="#ECEDF4" transform="translate(135,305)"/>
<path d="M0 0 C0.66 0 1.32 0 2 0 C9.69322949 8.93344784 14.71764522 19.166768 15 31 C10.60960187 27.13011299 8.53824124 23.45558059 6.375 18.0625 C5.80094167 16.67777821 5.22544104 15.29365338 4.6484375 13.91015625 C4.37612305 13.2464502 4.10380859 12.58274414 3.82324219 11.89892578 C3.06189338 10.14276594 2.17987351 8.44026173 1.2890625 6.74609375 C0 4 0 4 0 0 Z " fill="#F2F3F7" transform="translate(212,235)"/>
<path d="M0 0 C0.66 0 1.32 0 2 0 C2.00410889 0.68400879 2.00821777 1.36801758 2.01245117 2.07275391 C2.17179429 17.23457034 3.02340201 29.33884766 10 43 C9.01 43 8.02 43 7 43 C0.28088306 29.03061063 -3.79179577 15.56471005 0 0 Z " fill="#D5D8E5" transform="translate(119,258)"/>
<path d="M0 0 C0.75990234 -0.00773438 1.51980469 -0.01546875 2.30273438 -0.0234375 C7.52926955 -0.00558426 12.0383606 0.80963239 17.0625 2.25 C16.7325 3.24 16.4025 4.23 16.0625 5.25 C15.0725 5.25 14.0825 5.25 13.0625 5.25 C13.0625 4.59 13.0625 3.93 13.0625 3.25 C9.91674793 3.19103132 6.7711414 3.15608397 3.625 3.125 C2.74650391 3.10824219 1.86800781 3.09148437 0.96289062 3.07421875 C-7.03926468 3.01516225 -14.10496775 4.25033849 -21.5 7.375 C-22.34691406 7.72820312 -23.19382813 8.08140625 -24.06640625 8.4453125 C-24.68386719 8.71085938 -25.30132812 8.97640625 -25.9375 9.25 C-26.2675 8.59 -26.5975 7.93 -26.9375 7.25 C-25.25301982 6.45192802 -23.56473873 5.66187699 -21.875 4.875 C-20.93527344 4.43414062 -19.99554688 3.99328125 -19.02734375 3.5390625 C-12.54918488 0.83641721 -6.93023907 -0.07017964 0 0 Z " fill="#556199" transform="translate(173.9375,216.75)"/>
<path d="M0 0 C-0.33 0.66 -0.66 1.32 -1 2 C-3.85364605 2.83312995 -6.66261461 3.54656005 -9.55859375 4.19921875 C-10.41808121 4.39852493 -11.27756866 4.59783112 -12.1631012 4.80317688 C-13.98385566 5.22320642 -15.8055828 5.63903803 -17.62817383 6.05102539 C-20.42481871 6.68462695 -23.21732989 7.33445606 -26.00976562 7.98632812 C-27.77581743 8.3916034 -29.54208675 8.79593219 -31.30859375 9.19921875 C-32.14821152 9.39496994 -32.98782928 9.59072113 -33.85289001 9.79240417 C-39.76962987 11.11518506 -39.76962987 11.11518506 -42 10 C-36.50651189 7.45024842 -31.06798862 5.85077892 -25.1875 4.4375 C-23.92969727 4.12522461 -23.92969727 4.12522461 -22.64648438 3.80664062 C-6.48675969 -0.15565928 -6.48675969 -0.15565928 0 0 Z " fill="#F4F5F8" transform="translate(288,397)"/>
<path d="M0 0 C0.6796875 1.734375 0.6796875 1.734375 1 4 C-4.06474362 13.42113149 -13.36161778 20.79416049 -23 25 C-23.33 24.34 -23.66 23.68 -24 23 C-23.34773437 22.62488281 -22.69546875 22.24976563 -22.0234375 21.86328125 C-12.39853591 16.22746129 -5.08083854 10.16167708 0 0 Z " fill="#485692" transform="translate(221,296)"/>
<path d="M0 0 C4.16705391 1.48823354 5.25793246 3.79207374 7.125 7.6875 C10.54337872 14.93965537 12.65902169 19.87079374 11 28 C10.67 28 10.34 28 10 28 C9.86464844 27.15179688 9.72929687 26.30359375 9.58984375 25.4296875 C7.84660089 15.93057968 4.65406959 8.39007615 0 0 Z " fill="#4D5A95" transform="translate(217,239)"/>
<path d="M0 0 C0.99 0.33 1.98 0.66 3 1 C-3.27 7.27 -9.54 13.54 -16 20 C-17.32 19.34 -18.64 18.68 -20 18 C-19.071875 17.566875 -18.14375 17.13375 -17.1875 16.6875 C-10.55939955 12.93882024 -4.20950255 6.31425382 0 0 Z " fill="#4E5B96" transform="translate(216,295)"/>
<path d="M0 0 C2.97 0.495 2.97 0.495 6 1 C6.04254356 2.99954746 6.04080783 5.00041636 6 7 C5 8 5 8 2.4375 8.0625 C1.633125 8.041875 0.82875 8.02125 0 8 C0 5.36 0 2.72 0 0 Z " fill="#F6F7F9" transform="translate(104,32)"/>
<path d="M0 0 C0 0.33 0 0.66 0 1 C-0.99 1.06058594 -1.98 1.12117187 -3 1.18359375 C-4.33335957 1.26781482 -5.66669121 1.35247878 -7 1.4375 C-8.02915527 1.50191284 -8.02915527 1.50191284 -9.07910156 1.56762695 C-12.66684417 1.80343903 -16.1989365 2.12680576 -19.75 2.6875 C-23 3 -23 3 -26 1 C-16.96922274 -0.85927767 -9.12452285 -1.52075381 0 0 Z " fill="#6671A4" transform="translate(184,224)"/>
<path d="M0 0 C0.99 0.33 1.98 0.66 3 1 C2.66226563 1.6290625 2.32453125 2.258125 1.9765625 2.90625 C-0.80555028 8.24533348 -2.79807011 13.09961692 -4 19 C-6 16 -6 16 -5.9375 13.4375 C-4.62173748 8.61303744 -2.35360519 4.39455433 0 0 Z " fill="#E5E6EF" transform="translate(126,242)"/>
<path d="M0 0 C1.81248985 3.6249797 2.31888915 5.37259584 2.625 9.25 C2.69976562 10.14203125 2.77453125 11.0340625 2.8515625 11.953125 C2.90054687 12.62859375 2.94953125 13.3040625 3 14 C1.35 14 -0.3 14 -2 14 C-1.34 9.38 -0.68 4.76 0 0 Z " fill="#E4E6EF" transform="translate(320,35)"/>
<path d="M0 0 C0.80256019 2.31055545 1.17740468 3.53345509 0.29296875 5.859375 C-0.07183594 6.48328125 -0.43664062 7.1071875 -0.8125 7.75 C-2.9989537 11.77489054 -4.04199577 15.52931359 -5 20 C-5.66 19.67 -6.32 19.34 -7 19 C-6.67422369 11.83292123 -3.34556372 6.23072876 0 0 Z " fill="#55629A" transform="translate(129,241)"/>
<path d="M0 0 C0.33 0 0.66 0 1 0 C1.66 3.96 2.32 7.92 3 12 C1.35 12 -0.3 12 -2 12 C-2.17835515 7.45194365 -1.99785435 4.1205746 0 0 Z " fill="#E9EBF2" transform="translate(132,37)"/>
<path d="M0 0 C0.33 0 0.66 0 1 0 C1.66 3.96 2.32 7.92 3 12 C1.35 12 -0.3 12 -2 12 C-2.17835515 7.45194365 -1.99785435 4.1205746 0 0 Z " fill="#EAECF3" transform="translate(81,37)"/>
<path d="M0 0 C1.98 0 3.96 0 6 0 C3.265625 5.37109375 3.265625 5.37109375 2 7 C0.68 7.33 -0.64 7.66 -2 8 C-1.34 5.36 -0.68 2.72 0 0 Z " fill="#414F8E" transform="translate(320,14)"/>
<path d="M0 0 C0.66 0 1.32 0 2 0 C1.5188509 5.77378925 -0.18467181 9.95859836 -3 15 C-3.66 14.67 -4.32 14.34 -5 14 C-3.46527032 9.27775484 -1.76054874 4.64144669 0 0 Z " fill="#EAE6ED" transform="translate(227,286)"/>
<path d="M0 0 C-4.66727239 2.63282032 -9.61076854 4.6227538 -15 5 C-15.66 4.34 -16.32 3.68 -17 3 C-14.73194205 2.30190555 -12.46133393 1.61628983 -10.1875 0.9375 C-9.54490234 0.73833984 -8.90230469 0.53917969 -8.24023438 0.33398438 C-3.33984375 -1.11328125 -3.33984375 -1.11328125 0 0 Z " fill="#E6E8F0" transform="translate(247,407)"/>
<path d="M0 0 C0.33 0 0.66 0 1 0 C1.22155127 2.93705131 1.42774197 5.87380363 1.625 8.8125 C1.68945312 9.64587891 1.75390625 10.47925781 1.8203125 11.33789062 C1.871875 12.14033203 1.9234375 12.94277344 1.9765625 13.76953125 C2.02893066 14.50792236 2.08129883 15.24631348 2.13525391 16.00708008 C2 18 2 18 0 21 C-1 20 -1 20 -1.02172852 18.05053711 C-0.97459717 17.2178833 -0.92746582 16.38522949 -0.87890625 15.52734375 C-0.83056641 14.62822266 -0.78222656 13.72910156 -0.73242188 12.80273438 C-0.67634766 11.85720703 -0.62027344 10.91167969 -0.5625 9.9375 C-0.51029297 8.98810547 -0.45808594 8.03871094 -0.40429688 7.06054688 C-0.27418642 4.70673048 -0.13920888 2.35329301 0 0 Z " fill="#CCCAD9" transform="translate(229,266)"/>
<path d="M0 0 C-3.16275494 2.10850329 -6.13471538 3.28830876 -9.6875 4.625 C-10.86699219 5.07101563 -12.04648438 5.51703125 -13.26171875 5.9765625 C-14.16535156 6.31429687 -15.06898438 6.65203125 -16 7 C-16.33 6.34 -16.66 5.68 -17 5 C-15.29870914 4.15238178 -13.58856916 3.3225132 -11.875 2.5 C-10.92367187 2.0359375 -9.97234375 1.571875 -8.9921875 1.09375 C-5.78803369 -0.07748116 -3.38282687 -0.20076124 0 0 Z " fill="#4D5A95" transform="translate(164,219)"/>
<path d="M0 0 C0 0.66 0 1.32 0 2 C-1.55759343 2.53532823 -3.12138045 3.05265378 -4.6875 3.5625 C-5.55761719 3.85253906 -6.42773438 4.14257812 -7.32421875 4.44140625 C-10.24631074 5.05141961 -12.14400553 4.77703633 -15 4 C-10.22894198 1.32820751 -5.46088946 0 0 0 Z " fill="#E6E8F0" transform="translate(301,393)"/>
<path d="M0 0 C1.71017726 2.5652659 2.90417811 4.87960965 4.125 7.6875 C4.47820312 8.49574219 4.83140625 9.30398438 5.1953125 10.13671875 C5.46085938 10.75160156 5.72640625 11.36648438 6 12 C5.01 12 4.02 12 3 12 C2.29773859 10.75823305 1.61370891 9.50614401 0.9375 8.25 C0.36322266 7.20585937 0.36322266 7.20585937 -0.22265625 6.140625 C-1.1312406 3.63859372 -0.88336837 2.4667645 0 0 Z " fill="#E6E7F0" transform="translate(123,289)"/>
<path d="M0 0 C1.00289062 0.10183594 2.00578125 0.20367187 3.0390625 0.30859375 C3.80992187 0.39238281 4.58078125 0.47617187 5.375 0.5625 C5.375 1.5525 5.375 2.5425 5.375 3.5625 C3.77004433 3.44807539 2.16601881 3.32055306 0.5625 3.1875 C-0.33082031 3.11789062 -1.22414062 3.04828125 -2.14453125 2.9765625 C-4.625 2.5625 -4.625 2.5625 -7.625 0.5625 C-4.89657939 -0.80171031 -3.01546682 -0.31557211 0 0 Z " fill="#5A669D" transform="translate(165.625,322.4375)"/>
<path d="M0 0 C0.65234375 1.765625 0.65234375 1.765625 1 4 C0.00390625 5.921875 0.00390625 5.921875 -1.4375 7.75 C-1.91058594 8.36359375 -2.38367188 8.9771875 -2.87109375 9.609375 C-3.24363281 10.06828125 -3.61617187 10.5271875 -4 11 C-4.99 10.67 -5.98 10.34 -7 10 C-6.57847656 9.44570313 -6.15695313 8.89140625 -5.72265625 8.3203125 C-5.17480469 7.59585937 -4.62695312 6.87140625 -4.0625 6.125 C-3.51722656 5.40570313 -2.97195312 4.68640625 -2.41015625 3.9453125 C-0.96035376 2.05642921 -0.96035376 2.05642921 0 0 Z " fill="#505D97" transform="translate(221,296)"/>
<path d="M0 0 C3.3 0.99 6.6 1.98 10 3 C9.67 3.66 9.34 4.32 9 5 C6.03 4.01 3.06 3.02 0 2 C0 1.34 0 0.68 0 0 Z " fill="#E9EBF2" transform="translate(115,409)"/>
<path d="M0 0 C2.97 0.33 5.94 0.66 9 1 C9 1.66 9 2.32 9 3 C2.84765625 2.4140625 2.84765625 2.4140625 1 2 C0.67 1.34 0.34 0.68 0 0 Z " fill="#F1F2F6" transform="translate(62,397)"/>
<path d="M0 0 C1.98362069 2.91708924 1.9876191 4.12380904 1.625 7.75 C1.41875 8.8225 1.2125 9.895 1 11 C0.67 11 0.34 11 0 11 C-0.19491452 9.54263913 -0.38069358 8.08405407 -0.5625 6.625 C-0.66691406 5.81289063 -0.77132812 5.00078125 -0.87890625 4.1640625 C-1 2 -1 2 0 0 Z " fill="#626EA2" transform="translate(227,256)"/>
<path d="M0 0 C-0.33 0.99 -0.66 1.98 -1 3 C-1.99 3 -2.98 3 -4 3 C-4 2.34 -4 1.68 -4 1 C-5.65 1 -7.3 1 -9 1 C-5.64919071 -1.10976881 -3.77897651 -1.0497157 0 0 Z " fill="#717CAA" transform="translate(191,219)"/>
<path d="M0 0 C5.75 1.75 5.75 1.75 8 4 C5 5 5 5 2.3125 3.6875 C1.549375 3.130625 0.78625 2.57375 0 2 C0 1.34 0 0.68 0 0 Z " fill="#E8EAF1" transform="translate(28,384)"/>
<path d="M0 0 C1.65 0 3.3 0 5 0 C5 0.99 5 1.98 5 3 C3.35 3 1.7 3 0 3 C0 2.01 0 1.02 0 0 Z " fill="#5A669D" transform="translate(61,186)"/>
</svg>
