<svg id="Layer_2" data-name="Layer 2" xmlns="http://www.w3.org/2000/svg" xmlns:xlink="http://www.w3.org/1999/xlink" viewBox="0 0 892 600"><defs><style>.cls-1{fill:none;}.cls-2{clip-path:url(#clip-path);}.cls-3{fill:#0073cf;}.cls-4{fill:#fff;}.cls-5{fill:#939598;}</style><clipPath id="clip-path"><rect class="cls-1" width="892" height="600" rx="30.93"/></clipPath></defs><title>Honduras</title><g class="cls-2"><rect class="cls-3" y="-0.91" width="892" height="601.83"/><rect class="cls-4" y="199.7" width="892" height="200.61"/><g id="star"><g id="cone"><polygon id="triangle" class="cls-3" points="446 266.56 435.67 298.36 451.57 303.53 446 266.56"/><g id="use12"><polygon class="cls-3" points="446 266.56 456.33 298.36 440.43 303.53 446 266.56"/></g></g><g id="use14"><polygon class="cls-3" points="477.8 289.67 444.36 289.67 444.36 306.38 477.8 289.67"/><polygon class="cls-3" points="477.8 289.67 450.75 309.32 440.92 295.8 477.8 289.67"/></g><g id="use16"><polygon class="cls-3" points="414.2 289.67 441.25 309.32 451.08 295.8 414.2 289.67"/><polygon class="cls-3" points="414.2 289.67 447.64 289.67 447.64 306.38 414.2 289.67"/></g><g id="use18"><polygon class="cls-3" points="465.65 327.05 455.32 295.25 439.42 300.42 465.65 327.05"/><polygon class="cls-3" points="465.65 327.05 438.6 307.4 448.43 293.87 465.65 327.05"/></g><g id="use20"><polygon class="cls-3" points="426.35 327.05 453.4 307.4 443.57 293.87 426.35 327.05"/><polygon class="cls-3" points="426.35 327.05 436.68 295.25 452.58 300.42 426.35 327.05"/></g></g><polygon class="cls-3" points="613.17 213.07 602.84 244.87 618.74 250.03 613.17 213.07"/><polygon class="cls-3" points="613.17 213.07 623.51 244.87 607.61 250.03 613.17 213.07"/><polygon class="cls-3" points="644.97 236.17 611.54 236.17 611.54 252.89 644.97 236.17"/><polygon class="cls-3" points="644.97 236.17 617.92 255.82 608.1 242.3 644.97 236.17"/><polygon class="cls-3" points="581.38 236.17 608.42 255.82 618.25 242.3 581.38 236.17"/><polygon class="cls-3" points="581.38 236.17 614.81 236.17 614.81 252.89 581.38 236.17"/><polygon class="cls-3" points="632.83 273.55 622.49 241.75 606.6 246.92 632.83 273.55"/><polygon class="cls-3" points="632.83 273.55 605.78 253.9 615.6 240.38 632.83 273.55"/><polygon class="cls-3" points="593.52 273.55 620.57 253.9 610.75 240.38 593.52 273.55"/><polygon class="cls-3" points="593.52 273.55 603.85 241.75 619.75 246.92 593.52 273.55"/><polygon class="cls-3" points="613.17 313.37 602.84 345.17 618.74 350.34 613.17 313.37"/><polygon class="cls-3" points="613.17 313.37 623.51 345.17 607.61 350.34 613.17 313.37"/><polygon class="cls-3" points="644.97 336.48 611.54 336.48 611.54 353.19 644.97 336.48"/><polygon class="cls-3" points="644.97 336.48 617.92 356.13 608.1 342.61 644.97 336.48"/><polygon class="cls-3" points="581.38 336.48 608.42 356.13 618.25 342.61 581.38 336.48"/><polygon class="cls-3" points="581.38 336.48 614.81 336.48 614.81 353.19 581.38 336.48"/><polygon class="cls-3" points="632.83 373.86 622.49 342.06 606.6 347.23 632.83 373.86"/><polygon class="cls-3" points="632.83 373.86 605.78 354.21 615.6 340.68 632.83 373.86"/><polygon class="cls-3" points="593.52 373.86 620.57 354.21 610.75 340.68 593.52 373.86"/><polygon class="cls-3" points="593.52 373.86 603.85 342.06 619.75 347.23 593.52 373.86"/><polygon class="cls-3" points="278.83 213.07 268.49 244.87 284.39 250.03 278.83 213.07"/><polygon class="cls-3" points="278.83 213.07 289.16 244.87 273.26 250.03 278.83 213.07"/><polygon class="cls-3" points="310.62 236.17 277.19 236.17 277.19 252.89 310.62 236.17"/><polygon class="cls-3" points="310.62 236.17 283.57 255.82 273.75 242.3 310.62 236.17"/><polygon class="cls-3" points="247.03 236.17 274.08 255.82 283.9 242.3 247.03 236.17"/><polygon class="cls-3" points="247.03 236.17 280.46 236.17 280.46 252.89 247.03 236.17"/><polygon class="cls-3" points="298.48 273.55 288.15 241.75 272.25 246.92 298.48 273.55"/><polygon class="cls-3" points="298.48 273.55 271.43 253.9 281.25 240.38 298.48 273.55"/><polygon class="cls-3" points="259.17 273.55 286.22 253.9 276.4 240.38 259.17 273.55"/><polygon class="cls-3" points="259.17 273.55 269.51 241.75 285.4 246.92 259.17 273.55"/><polygon class="cls-3" points="278.83 313.37 268.49 345.17 284.39 350.34 278.83 313.37"/><polygon class="cls-3" points="278.83 313.37 289.16 345.17 273.26 350.34 278.83 313.37"/><polygon class="cls-3" points="310.62 336.48 277.19 336.48 277.19 353.19 310.62 336.48"/><polygon class="cls-3" points="310.62 336.48 283.57 356.13 273.75 342.61 310.62 336.48"/><polygon class="cls-3" points="247.03 336.48 274.08 356.13 283.9 342.61 247.03 336.48"/><polygon class="cls-3" points="247.03 336.48 280.46 336.48 280.46 353.19 247.03 336.48"/><polygon class="cls-3" points="298.48 373.86 288.15 342.06 272.25 347.23 298.48 373.86"/><polygon class="cls-3" points="298.48 373.86 271.43 354.21 281.25 340.68 298.48 373.86"/><polygon class="cls-3" points="259.17 373.86 286.22 354.21 276.4 340.68 259.17 373.86"/><polygon class="cls-3" points="259.17 373.86 269.51 342.06 285.4 347.23 259.17 373.86"/></g><g id="Layer_1" data-name="Layer 1"><path class="cls-5" d="M861.1,6A25,25,0,0,1,886,30.9V569a24.9,24.9,0,0,1-24.9,24.9H30.9A24.82,24.82,0,0,1,6,569.1V30.9A25,25,0,0,1,30.9,6H861.1m0-6H30.9A30.86,30.86,0,0,0,0,30.9H0V569a30.88,30.88,0,0,0,30.9,31H861a30.86,30.86,0,0,0,30.9-30.9V30.9A30.71,30.71,0,0,0,861.1,0Z"/></g></svg>