<?xml version="1.0" encoding="UTF-8"?>
<svg id="Layer_1" data-name="Layer 1" xmlns="http://www.w3.org/2000/svg" viewBox="0 0 500 500">
  <defs>
    <style>
      .cls-1 {
        fill: #020202;
      }

      .cls-1, .cls-2, .cls-3, .cls-4, .cls-5, .cls-6, .cls-7, .cls-8, .cls-9, .cls-10, .cls-11, .cls-12, .cls-13, .cls-14, .cls-15, .cls-16, .cls-17, .cls-18, .cls-19, .cls-20, .cls-21, .cls-22, .cls-23, .cls-24, .cls-25, .cls-26, .cls-27, .cls-28, .cls-29, .cls-30, .cls-31 {
        fill-rule: evenodd;
        stroke-width: 0px;
      }

      .cls-2 {
        fill: #0d2039;
      }

      .cls-3 {
        fill: #122a4c;
      }

      .cls-4 {
        fill: #e6e6e6;
      }

      .cls-5 {
        fill: #1b3f73;
      }

      .cls-7 {
        fill: #494949;
      }

      .cls-8 {
        isolation: isolate;
        opacity: 1;
      }

      .cls-9 {
        fill: #202020;
      }

      .cls-10 {
        fill: #265ca7;
      }

      .cls-11 {
        fill: #0f2441;
      }

      .cls-12 {
        fill: #f9f1b9;
      }

      .cls-13 {
        fill: #010101;
      }

      .cls-14 {
        fill: #0a192d;
      }

      .cls-15 {
        fill: #060606;
      }

      .cls-16 {
        fill: #a4a4a4;
      }

      .cls-17 {
        fill: #404040;
      }

      .cls-18 {
        fill: #070707;
      }

      .cls-19 {
        fill: #f8f0b2;
      }

      .cls-20 {
        fill: #fbfbfb;
      }

      .cls-21 {
        fill: #de1900;
      }

      .cls-22 {
        fill: #ef8a7c;
      }

      .cls-23 {
        fill: #080808;
      }

      .cls-24 {
        fill: #030303;
      }

      .cls-25 {
        fill: #fefefe;
      }

      .cls-26 {
        fill: #ead113;
      }

      .cls-27 {
        fill: #275ca7;
      }

      .cls-28 {
        fill: #275da8;
      }

      .cls-29 {
        fill: #8b8b8b;
      }

      .cls-30 {
        fill: #838383;
      }

      .cls-31 {
        fill: #fcfcfc;
      }
    </style>
  </defs>
  <path class="cls-8" d="m31.98-.08c21.88,12.68,45.06,22.42,69.51,29.21,38.33,10.52,77.36,16.69,117.09,18.49,41.88,2.15,83.54.01,124.98-6.41,30.72-4.7,60.55-12.67,89.48-23.91,12.07-4.88,23.65-10.68,34.76-17.38.15.05.27.13.37.25,16.06,75.72,17.13,151.64,3.2,227.77-8.32,44.61-22.78,87.09-43.39,127.44-16.34,31.71-37.33,60.02-62.98,84.92-23.46,22.28-50.42,39.21-80.85,50.78-10.44,3.8-21.13,6.76-32.05,8.87-.56.19-1.09.15-1.6-.12-.19-.9-.36-1.8-.49-2.71-.14.91-.3,1.81-.49,2.71-.51.27-1.04.31-1.6.12-31.14-6.29-59.57-18.61-85.29-36.98-24.2-17.63-45.11-38.54-62.74-62.74-21.57-30.07-38.58-62.7-51.03-97.86-18.9-54.01-28.85-109.64-29.83-166.88C18.1,89.8,22.41,44.6,31.98-.08Z"/>
  <path class="cls-2" d="m69.45,22.36c-.49,105.92-.66,211.91-.49,317.99-.25-106.04-.33-212.12-.25-318.24.32-.06.56.02.74.25Z"/>
  <path class="cls-10" d="m69.45,22.36c16.68,6.46,33.73,11.72,51.15,15.78.12,51.93.16,103.86.12,155.79-8.86,28.1-8.86,56.2,0,84.31.04,47.16,0,94.33-.12,141.49-20.96-23.91-38.18-50.37-51.64-79.38-.16-106.08,0-212.08.49-317.99Z"/>
  <path class="cls-27" d="m430.83,22.36c.25,105.96.33,211.95.25,317.99-13.41,28.82-30.5,55.11-51.27,78.88-.25-47.21-.33-94.45-.25-141.74,8.63-27.9,8.54-55.75-.25-83.57-.04-51.93,0-103.86.12-155.79,17.44-4.25,34.57-9.5,51.4-15.78Z"/>
  <path class="cls-14" d="m430.83,22.36c.01-.13.1-.22.25-.25.08,53.04.17,106.08.25,159.12,0,53.08-.08,106.12-.25,159.12.08-106.04,0-212.04-.25-317.99Z"/>
  <path class="cls-3" d="m172.99,47.5c-.49,25.88-.66,51.85-.49,77.9,0,.16-.08.25-.25.25V47.25c.32-.06.56.02.74.25Z"/>
  <path class="cls-27" d="m172.99,47.5c17.03,2.12,34.12,3.52,51.27,4.19v52.01c-18.81,3.64-36.06,10.87-51.77,21.69-.16-26.05,0-52.01.49-77.9Z"/>
  <path class="cls-27" d="m327.05,47.5c.49,25.88.66,51.85.49,77.9-15.74-10.74-32.99-17.97-51.77-21.69v-52.01c17.14-.84,34.23-2.24,51.27-4.19Z"/>
  <path class="cls-11" d="m327.05,47.5c.18-.22.42-.3.74-.25v78.39c-.17,0-.25-.08-.25-.25.16-26.05,0-52.01-.49-77.9Z"/>
  <path class="cls-25" d="m275.78,103.7c18.77,3.72,36.03,10.95,51.77,21.69,0,.16.08.25.25.25,24.38,17.29,41.56,40.05,51.52,68.28,8.79,27.81,8.87,55.67.25,83.57-.22.18-.31.42-.25.74-9.92,28.48-27.18,51.41-51.77,68.78-15.73,10.74-32.99,17.97-51.77,21.69-17.18,3.29-34.35,3.29-51.52,0-18.81-3.64-36.07-10.87-51.77-21.69-24.59-17.37-41.85-40.29-51.77-68.78-8.86-28.11-8.86-56.21,0-84.31,9.84-28.32,27.02-51.08,51.52-68.28.16,0,.25-.08.25-.25,15.7-10.83,32.96-18.06,51.77-21.69,17.17-3.27,34.34-3.27,51.52,0Z"/>
  <path class="cls-26" d="m312.26,169.77c.08.16.17.33.25.49-22.68,1.95-40.23,12.38-52.63,31.31-6.07,9.82-9.35,20.5-9.86,32.05-1.57-21.68-11.06-38.89-28.47-51.64-10.46-7.17-22.04-11.07-34.76-11.71.25-.16.49-.33.74-.49,22.69-1.95,40.23-12.39,52.63-31.31,6.07-10.07,9.36-21,9.86-32.79,1.21,21.7,10.45,38.99,27.73,51.89,10.32,7.34,21.83,11.4,34.51,12.2Z"/>
  <path class="cls-12" d="m187.53,169.77c-.25.16-.49.33-.74.49-.83.04-1.65,0-2.47-.12,1.05-.26,2.12-.39,3.2-.37Z"/>
  <path class="cls-19" d="m312.26,169.77c.92-.03,1.83.1,2.71.37-.82.12-1.64.16-2.47.12-.08-.16-.17-.33-.25-.49Z"/>
  <path class="cls-21" d="m183.59,296.72c-.16.33-.33.66-.49.99-2.17-22.16-12.53-39.29-31.06-51.4-10.06-6.15-20.99-9.51-32.79-10.11,24.45-1.8,42.98-13.1,55.59-33.89,4.94-8.99,7.74-18.61,8.38-28.84,2.73,26.96,16.33,46.15,40.8,57.56,7.18,2.98,14.66,4.71,22.43,5.18-23.56,2.06-41.6,13.03-54.11,32.91-4.97,8.55-7.89,17.75-8.75,27.61Z"/>
  <path class="cls-18" d="m302.9,220.3c2.39-.3,4.16.6,5.3,2.71,1.26,2.65,1.88,5.44,1.85,8.38h-2.71c-.31-1.3-.6-2.62-.86-3.94-1.04-1.93-2.35-2.18-3.94-.74-.79,1.55-1.28,3.2-1.48,4.93-.22,3.63-.14,7.24.25,10.85.19,1.63.88,2.99,2.1,4.07,1.57.31,2.59-.31,3.08-1.85.34-1.13.59-2.28.74-3.45.92-.24,1.86-.32,2.83-.25-.05,3.23-.83,6.27-2.34,9.12-2.31,2.53-4.69,2.61-7.15.25-1.59-3.08-2.5-6.37-2.71-9.86-.45-4.93-.04-9.78,1.23-14.54.61-1.55,1.35-3.03,2.22-4.44.57-.39,1.11-.8,1.6-1.23Z"/>
  <path class="cls-15" d="m375.12,220.3c2.08-.33,3.77.32,5.05,1.97,1.54,2.41,2.45,5.04,2.71,7.89.17,3.94.17,7.89,0,11.83-.2,3.03-1.1,5.82-2.71,8.38-1.64,1.7-3.57,2.15-5.79,1.36-.86-.53-1.56-1.23-2.1-2.1-1.35-2.98-2.17-6.1-2.47-9.37-.39-4.58-.06-9.1.99-13.56.65-2.72,2.09-4.85,4.31-6.41Z"/>
  <path class="cls-6" d="m259.26,232.38c1.84.24,3.73.33,5.67.25v-11.83h2.71v30.81h-2.71v-13.56h-5.67v13.56h-2.71v-30.81h2.71v11.59Z"/>
  <path class="cls-16" d="m264.93,220.79v11.83c-1.94.08-3.83,0-5.67-.25h5.42c-.08-3.91,0-7.77.25-11.59Z"/>
  <path class="cls-23" d="m270.6,242.24v-21.2h2.71c-.08,7.27,0,14.5.25,21.69.08,1.01.28,2,.62,2.96.93,1.74,2.08,1.91,3.45.49.48-1.19.81-2.42.99-3.7.12-7.23.17-14.46.12-21.69h2.96c.04,7.48,0,14.96-.12,22.43-.08,2.51-.65,4.89-1.73,7.15-1.82,1.83-3.91,2.2-6.29,1.11-1.11-.94-1.81-2.13-2.1-3.57-.53-1.85-.82-3.74-.86-5.67Z"/>
  <path class="cls-17" d="m273.56,242.73c-.25-7.19-.33-14.42-.25-21.69h-2.71v21.2c-.25-7.11-.33-14.26-.25-21.45h3.2v21.94Z"/>
  <path class="cls-15" d="m288.1,220.79h3.7c1.62,10.28,3.26,20.55,4.93,30.81h-3.2c-.17-2-.5-3.97-.99-5.92-1.72-.25-3.44-.33-5.18-.25-.3,2.05-.55,4.1-.74,6.16h-2.96c1.46-10.27,2.94-20.54,4.44-30.81Z"/>
  <path class="cls-9" d="m314.97,220.79v.25h-2.47v30.57c-.25-10.23-.33-20.5-.25-30.81h2.71Z"/>
  <path class="cls-13" d="m314.97,221.04v11.59c1.94.08,3.83,0,5.67-.25.25-3.74.33-7.52.25-11.34h2.47v30.57h-2.71v-13.56h-5.67v13.56h-2.47v-30.57h2.47Z"/>
  <path class="cls-30" d="m314.97,220.79c.25,3.82.33,7.68.25,11.59h5.42c-1.84.24-3.73.33-5.67.25v-11.83Z"/>
  <path class="cls-7" d="m323.36,251.61v-30.57h-2.47c.08,3.82,0,7.6-.25,11.34v-11.59h2.96c.08,10.31,0,20.58-.25,30.81Z"/>
  <path class="cls-6" d="m326.07,220.79h2.96v30.81h-2.96v-30.81Z"/>
  <path class="cls-24" d="m331.74,220.79c2.22-.04,4.44,0,6.66.12,1.33.43,2.28,1.29,2.83,2.59,1.53,5.04,1.44,10.05-.25,15.04-.52.94-1.29,1.55-2.34,1.85-1.31.12-2.63.16-3.94.12v11.09h-2.96v-30.81Z"/>
  <path class="cls-15" d="m348.25,220.79h3.7c1.62,10.28,3.26,20.55,4.93,30.81h-3.2c-.17-2-.5-3.97-.99-5.92-1.72-.25-3.44-.33-5.18-.25-.29,2.05-.54,4.1-.74,6.16h-2.96c1.46-10.27,2.94-20.54,4.44-30.81Z"/>
  <path class="cls-1" d="m368.47,220.79v5.42h-4.19v25.39h-2.71v-25.14h-4.19v-5.67h11.09Z"/>
  <path class="cls-20" d="m375.61,225.72c1.32-.14,2.35.35,3.08,1.48.74,1.48,1.23,3.04,1.48,4.68.28,3.72.11,7.42-.49,11.09-.37,1.6-1.15,2.96-2.34,4.07-1.26.39-2.21.02-2.83-1.11-.78-1.55-1.27-3.2-1.48-4.93-.17-3.2-.17-6.41,0-9.61.18-2.23,1.04-4.12,2.59-5.67Z"/>
  <path class="cls-29" d="m368.47,220.79c.24,1.84.33,3.73.25,5.67h-4.19c.08,8.42,0,16.8-.25,25.14v-25.39h4.19v-5.42Z"/>
  <path class="cls-31" d="m334.69,226.46c3.44-.79,5,.57,4.68,4.07.06,1.4-.15,2.75-.62,4.07-.29.29-.57.58-.86.86-1.06.12-2.13.16-3.2.12v-9.12Z"/>
  <path class="cls-4" d="m289.83,228.43c.87,3.78,1.44,7.64,1.73,11.59h-3.2c.4-3.87.89-7.74,1.48-11.59Z"/>
  <path class="cls-4" d="m349.98,228.43c.87,3.78,1.44,7.64,1.73,11.59h-3.2c.4-3.87.89-7.74,1.48-11.59Z"/>
  <path class="cls-28" d="m249.9,239.77c2.66,26.28,15.81,45.21,39.44,56.82,7.3,3.24,14.95,5.13,22.93,5.67-22.28,2.34-39.66,12.73-52.14,31.18-5.94,9.59-9.3,20.02-10.11,31.31-2.3-23.96-13.76-42-34.39-54.11-8.99-4.71-18.52-7.51-28.59-8.38,23.49-1.94,41.44-12.83,53.86-32.66,5.33-9.23,8.33-19.18,9-29.83Z"/>
  <path class="cls-5" d="m379.56,277.49c-.08,47.29,0,94.54.25,141.74-.07.19-.19.36-.37.49-.12-47.16-.17-94.33-.12-141.49-.06-.32.02-.56.25-.74Z"/>
  <path class="cls-22" d="m183.59,296.72c.04,1.01-.08,1.99-.37,2.96-.12-.65-.16-1.31-.12-1.97.16-.33.33-.66.49-.99Z"/>
  <path class="cls-10" d="m172.49,347c15.7,10.82,32.95,18.05,51.77,21.69v121.03c-18.4-5.81-35.61-14.03-51.64-24.65-.12-39.36-.16-78.72-.12-118.08Z"/>
  <path class="cls-10" d="m327.55,347c.04,39.36,0,78.72-.12,118.08-16.03,10.62-33.24,18.84-51.64,24.65v-121.03c18.78-3.72,36.03-10.95,51.77-21.69Z"/>
</svg>