<?xml version="1.0" encoding="utf-8"?>
<!-- Generator: Adobe Illustrator 22.1.0, SVG Export Plug-In . SVG Version: 6.00 Build 0)  -->
<svg version="1.1" id="CA_Huracan" xmlns="http://www.w3.org/2000/svg" xmlns:xlink="http://www.w3.org/1999/xlink" x="0px" y="0px"
	 viewBox="0 0 600 600" enable-background="new 0 0 600 600" xml:space="preserve">
<g>
	<path id="Fondo_1_" fill="#FFFFFF" d="M478.225,183.31c0,0.946,0,1.895,0,2.842c-0.596,32.105-8.158,57.194-19.103,78.96
		c-6.142,12.218-13.421,23.306-21.872,33.247c-1.01,1.188-1.36,2.612-1.896,4.227c-12.14,36.687-24.65,73.396-36.818,110.166
		c-0.495,1.495-1.28,3.143-1.313,4.813c-0.037,1.862-0.161,3.889,0.072,6.052c0.758,7.006,1.943,14.229,2.917,21.581
		c1.656,12.498,3.399,25.062,5.177,37.694c0.251,1.784,0.377,3.653,0.729,5.395c0.096,0.474-0.346,6.076,0.989,7.196
		c3.65,3.061,11.465,4.274,11.187,11.249c-0.168,4.177-2.229,7.568-4.448,10.062c-2.341,2.63-5.06,4.413-8.02,6.49
		c0,2.04-1.421,11.603,0.254,13.263c0.745,0.737,8.077,1.855,8.13,3.373c0.24,6.945-0.097,9.817-0.364,16.684
		c-0.05,1.251,0.067,2.373-0.51,3.062c-2.538,3.025-6.186,5.813-9.697,8.31c-10.472,7.453-23.152,13.144-36.819,17.135
		c-18.698,5.458-40.145,8.381-63.504,8.385c-23.829,0.002-45.027-2.804-63.356-8.532c-18.347-5.73-34.282-13.985-45.861-26.027
		c-0.131-3.724-0.072-8.383-0.072-12.978c0-4.309-0.235-1.943,0-5.486c0.125-1.893,6.634-2.213,8.177-2.598
		c1.697-0.422,0.742-11.334,0.791-13.132c-6.179-3.973-12.444-7.425-14.509-15.093c-2.219-8.235,5.446-10.542,9.839-14.138
		c0.485-0.397-0.354-7.131-0.216-8.098c2.958-20.833,6.079-42.058,8.896-62.847c0.235-1.738,0.595-3.623,0.584-5.687
		c-0.011-1.952,0.142-3.971-0.438-5.615c-12.394-35.145-25.141-70.681-37.548-105.863c-0.286-0.815-0.535-1.612-0.948-2.187
		c-0.403-0.563-0.931-1.01-1.459-1.604c-9.799-11.054-18.261-23.292-25.444-36.891c-11.521-21.816-19.111-47.257-19.977-79.763
		c0-1.484,0-2.966,0-4.448c0.07-1.725,0.134-3.696,0.219-5.468c1.242-26.301,7.283-47.624,15.966-66.494
		c9.261-20.12,21.404-37.15,36.09-51.837c14.631-14.631,31.694-26.819,51.839-36.091c20.149-9.273,43.589-15.542,71.887-16.113
		c1.484,0,2.966,0,4.448,0c28.502,0.529,51.834,6.961,72.034,16.187c20.23,9.238,37.365,21.618,51.984,36.236
		c14.599,14.596,26.88,31.9,36.09,52.13C471.55,131.307,477.75,154.73,478.225,183.31z"/>
	<path id="Cuerpo" fill="#FF0000" d="M482.176,180.724c0,0.967,0,1.937,0,2.906c-0.61,32.816-8.338,58.461-19.526,80.71
		c-6.279,12.489-13.718,23.822-22.357,33.984c-1.033,1.214-1.391,2.67-1.938,4.321c-12.409,37.5-25.197,75.023-37.634,112.607
		c-0.506,1.528-1.309,3.213-1.342,4.919c-0.038,1.903-0.165,3.975,0.073,6.186c0.775,7.161,1.986,14.545,2.981,22.059
		c1.693,12.775,3.474,25.617,5.292,38.529c0.257,1.824,0.386,3.734,0.745,5.514c0.098,0.485,0.209,0.678,0.596,0.969
		c1.472,1.099,2.958,1.985,4.323,3.129c3.731,3.129,7.812,7.625,7.528,14.755c-0.172,4.269-2.278,7.736-4.547,10.285
		c-2.393,2.688-5.172,4.51-8.197,6.634c0,2.085,0,4.172,0,6.259c2.837,0.689,6.037,0.391,7.749,2.087
		c0.761,0.753,0.766,2.548,0.82,4.099c0.245,7.099-0.1,14.594-0.372,21.613c-0.051,1.278,0.069,2.425-0.521,3.13
		c-2.594,3.092-6.323,5.942-9.912,8.495c-10.704,7.618-23.665,13.436-37.635,17.515c-19.113,5.579-41.035,8.567-64.912,8.57
		c-24.357,0.002-46.025-2.867-64.761-8.721c-18.753-5.857-35.042-14.295-46.877-26.604c-0.134-3.807-0.074-8.569-0.074-13.266
		c0-4.404-0.24-8.825,0-12.446c0.127-1.935,2.223-2.587,3.8-2.981c1.734-0.432,3.324-0.624,5.292-0.67
		c0.173-1.716,0.026-3.75,0.075-5.589c-6.317-4.061-12.72-7.589-14.831-15.427c-2.268-8.418,2.961-14.357,7.452-18.034
		c0.495-0.405,1.817-1.296,2.012-1.863c0.266-0.773,0.232-1.843,0.373-2.832c3.023-21.294,6.214-42.99,9.093-64.24
		c0.24-1.777,0.608-3.703,0.597-5.814c-0.011-1.995,0.145-4.059-0.448-5.739c-12.669-35.924-25.699-72.247-38.381-108.209
		c-0.292-0.833-0.547-1.647-0.969-2.236c-0.412-0.575-0.951-1.033-1.491-1.639c-10.016-11.299-18.666-23.808-26.007-37.709
		c-11.777-22.3-19.534-48.304-20.42-81.531c0-1.516,0-3.032,0-4.546c0.072-1.763,0.137-3.778,0.224-5.589
		c1.27-26.884,7.444-48.68,16.32-67.968c9.466-20.566,21.878-37.974,36.89-52.986c14.955-14.955,32.396-27.413,52.988-36.89
		C244.841,6.991,268.801,0.583,297.726,0c1.516,0,3.032,0,4.546,0c29.134,0.541,52.983,7.116,73.63,16.545
		c20.678,9.443,38.193,22.097,53.136,37.039c14.922,14.919,27.475,32.607,36.89,53.285
		C475.353,127.568,481.69,151.51,482.176,180.724z M471.816,181.469c0.002-16.12-2.394-30.79-5.738-43.524
		c-0.005-0.044-0.011-0.088-0.075-0.074c-9.66,14.46-19.208,29.035-28.915,43.447c4.832,7.3,9.676,14.772,14.607,22.135
		c4.716,7.044,9.373,14.436,14.234,21.314c0.08,0.113,0.159,0.551,0.446,0.448C469.767,212.451,471.815,197.544,471.816,181.469z
		 M461.68,240.492c0.274-0.758,0.773-1.831,0.745-2.162c-0.023-0.291-0.603-0.943-0.967-1.491
		c-10.275-15.408-20.339-30.821-30.556-45.982c-1.551,2.112-3.298,4.8-4.919,7.23c-3.947,5.918-7.907,11.917-11.848,17.885
		c-0.796,1.204-1.899,2.432-2.384,3.577c-0.468,1.098-0.682,2.435-1.045,3.651c-11.155,37.5-23.332,75.714-34.355,112.905
		c20.255-9.966,37.477-23.552,52.092-39.796C442.338,280.87,453.874,262.068,461.68,240.492z M462.053,124.904
		c0.012-0.314-0.42-1.17-0.67-1.863c-0.243-0.675-0.557-1.368-0.745-1.863c-14.728-38.683-40.726-67.525-73.929-87.344
		c-9.825,8.408-20.865,15.602-33.535,21.165c25.872,39.043,51.762,78.058,77.729,117.004c9.731-14.617,19.476-29.391,29.288-44.044
		C460.728,127.157,462.033,125.543,462.053,124.904z M407.204,516.085c1.97-1.832,4.481-4.577,2.832-7.825
		c-1.486-2.922-4.62-4.958-7.527-6.708c-7.582-4.562-17.562-7.696-27.127-9.986c-4.674,13.436-9.088,27.13-13.638,40.69
		c9.972-1.727,19.351-3.989,28.17-7.08C396.102,523.009,402.747,520.226,407.204,516.085z M424.643,181.469
		c-5.7-8.734-11.441-17.426-17.291-26.009c-6.056,8.948-12.315,17.692-18.333,26.679c6.07,8.537,12.001,17.214,18.109,25.712
		C412.937,199.026,418.784,190.242,424.643,181.469z M389.691,415.849c10.922-32.999,22.11-66.126,32.938-98.969
		c-14.478,13.172-31.102,24.195-50.378,32.567c-6.723,22.141-13.471,44.263-20.196,66.402
		C364.6,415.849,377.144,415.849,389.691,415.849z M401.539,217.836c-6.294-8.586-12.526-17.879-18.854-26.679
		c-9.507,13.744-19.078,27.822-28.618,41.286c0-6.012,0-12.023,0-18.036c7.405-10.802,14.934-21.484,22.283-32.343
		c-6.965-9.971-13.937-19.803-20.942-29.809c-0.474-0.676-1.342-1.724-1.342-2.236c0-5.738,0-11.637,0-17.663
		c9.608,13.494,19.039,27.166,28.618,40.692c6.153-8.977,12.321-17.937,18.557-26.83c-19.275-29.139-38.583-58.25-57.98-87.268
		c-4.967,1.79-10.192,3.324-15.725,4.547c6.469,19.912,13.212,39.95,19.526,59.768c-3.602,0-7.206,0-10.807,0
		c-6.295-19.292-12.684-38.488-18.928-57.832c-10.786,1.651-24.556,1.905-35.772,0.448c-5.834,19.082-11.489,38.345-17.364,57.384
		c-3.553-0.049-7.303,0.1-10.732-0.075c5.955-19.657,11.842-39.38,17.812-59.023c-6.484-1.34-12.537-3.113-18.333-5.141
		c-18.77,27.885-37.507,55.795-56.191,83.766c7.416,9.922,14.88,19.798,22.282,29.734c10.502-13.927,20.737-28.529,31.152-42.254
		c0,5.762,0,11.525,0,17.289c-4.07,5.625-8.206,11.28-12.296,16.918c-4.104,5.656-8.398,11.133-12.223,16.841
		c7.716,10.225,15.261,20.414,23.029,30.705c0.525,0.694,1.376,1.572,1.49,2.162c0.245,1.258,0,2.839,0,4.247
		c0,4.38,0,8.417,0,12.744c-10.376-13.697-20.631-27.513-31.002-41.213c-5.493,7.488-10.762,14.764-16.322,22.283
		c-0.438,0.592-2.205,2.574-2.236,3.278c-0.016,0.373,0.443,1.206,0.67,1.938c12.987,41.899,26.171,84.346,39.051,125.873
		c12.412,4.579,26.165,8.217,41.51,9.613c-9.609-38.485-19.173-77.011-28.691-115.587c3.551,0,7.104,0,10.657,0
		c9.546,38.897,19.294,77.585,28.841,116.482c6.31,0.294,13.056,0.146,19.152-0.224c9.755-38.42,19.065-77.266,28.618-115.886
		c3.528,0,7.055,0,10.582,0c-9.286,38.353-18.734,76.559-28.17,114.768c15.163-2.054,28.628-5.803,40.914-10.732
		C376.405,300.519,388.869,259.069,401.539,217.836z M397.366,487.541c-1.968-14.723-3.968-29.417-6.036-44.044
		c-4.214,12.752-8.501,25.434-12.744,38.157C385.151,483.312,391.469,485.215,397.366,487.541z M386.187,426.207
		c-10.706,0-21.414,0-32.12,0c-0.116,0.02-0.05,0.163,0,0.224c4.135,16.797,8.506,34.458,12.744,51.422
		c0.176,0.709,0.108,1.164,0.67,1.417c0.278,0.124,0.429,0.026,0.82,0.149c0.967-2.105,1.582-4.357,2.311-6.558
		C375.76,457.307,381.093,441.762,386.187,426.207z M376.202,29.065c0.253-0.203,0.761-0.404,0.595-0.597
		c-15.141-7.588-32.261-13.597-52.092-16.246c7.611,11.319,15.039,22.821,22.731,34.058
		C358.051,41.723,367.779,35.759,376.202,29.065z M354.961,561.173 M367.557,554.464 M376.426,562.14 M376.426,562.14
		c0-2.949-4.129-7.41-11.362-7.41s-10.102,6.442-10.102,9.24c0,2.798,0,17.696,0,17.696c1.221,0.781,19.141-3.121,21.465-5.516
		C376.426,576.151,376.426,565.089,376.426,562.14z M356.005,477.332c-3.394-13.672-6.727-27.406-10.211-40.989
		c-3.87,12.873-7.805,25.681-11.7,38.529C341.586,475.503,348.929,476.286,356.005,477.332z M350.192,534.046
		c5.016-14.861,9.982-29.763,14.905-44.715c-10.737-2.032-22.138-3.399-33.983-4.323c-5.418,17.091-10.571,34.442-15.8,51.719
		C327.541,536.435,339.055,535.428,350.192,534.046z M341.25,415.849c6.221-20.533,12.502-41.007,18.706-61.558
		c-11.922,4.027-25.176,7.367-39.796,8.943c-3.911,15.449-7.967,31.607-11.851,47.25c-0.523,2.107-1.08,3.519-0.224,5.365
		C319.14,415.849,330.194,415.849,341.25,415.849z M338.045,426.207c-9.093,0-18.185,0-27.276,0
		c-0.086,0.013-0.082,0.119-0.075,0.224c3.835,15.419,7.789,31.195,11.626,46.653c0.162,0.655,0.129,1.204,0.821,1.118
		c0.449-0.057,0.537-0.51,0.745-1.193C328.635,457.284,333.392,441.752,338.045,426.207z M324.407,53.658
		c4.457-1.057,8.802-2.227,12.966-3.577c-8.021-12.183-16.364-24.811-24.517-37.037c-0.445-0.665-1.327-2.26-1.79-2.386
		c-0.258-0.07-0.565,0.054-0.82,0c-0.126,0.031,0.016,0.096,0,0.224C315.026,25.081,319.525,39.559,324.407,53.658z
		 M289.976,567.208 M303.241,559.459 M315.911,566.984 M315.911,566.984c0-3.81-5.159-7.526-12.669-7.526s-13.265,4.377-13.265,7.75
		s0,21.463,0,21.463c10.852,1.423,17.542,1.104,25.934,0.076C315.911,588.746,315.911,570.795,315.911,566.984z M313.974,55.447
		c-4.244-13.184-8.655-26.468-12.968-39.499c-0.621-1.875-1.038-3.826-1.938-5.589c-0.248,0-0.497,0-0.745,0
		c-0.105,0.02-0.085,0.163-0.149,0.224c-4.476,15.124-9.116,30.084-13.563,45.236C293.864,56.855,305.101,56.689,313.974,55.447z
		 M311.812,473.754c-3.251-12.921-6.385-25.959-9.688-38.827c-3.264,12.981-6.537,25.957-9.836,38.902
		C298.769,473.678,305.255,473.666,311.812,473.754z M304.36,536.951c5.393-17.461,10.675-35.034,16.022-52.54
		c-9.922-0.444-20.625-0.487-30.703-0.149c-4.391,17.247-8.807,34.469-13.117,51.795
		C285.551,536.631,294.772,536.974,304.36,536.951z M302.272,392.15c2.241-9.41,4.69-18.613,6.931-28.023
		c-4.507,0.221-9.436,0.221-13.935,0.224C297.677,373.542,299.819,383.002,302.272,392.15z M296.311,415.849
		c0.788-1.971,0.296-3.363-0.224-5.44c-3.888-15.566-7.781-31.454-11.626-46.727c-14.815-1.232-27.928-4.167-40.169-7.974
		c-0.021-0.278-0.184,0.219,0,0.149c6.166,20.043,12.399,40.015,18.632,59.992C274.052,415.849,285.181,415.849,296.311,415.849z
		 M293.627,426.207c-9.14,0-18.282,0-27.424,0c-0.116,0.02-0.052,0.163,0,0.224c4.782,15.435,9.672,31.175,14.458,46.505
		c0.129,0.413,0.108,1.15,0.67,1.34c0.419-0.291,0.415-0.915,0.521-1.34C285.744,457.359,289.814,441.798,293.627,426.207z
		 M287.219,11.329c0.088-0.565,0.056-0.448-0.224-0.521c-0.472-0.126-1.175,0.276-1.863,0.149
		c-8.717,13.094-17.554,26.068-26.233,39.2c4.908,1.551,9.884,3.035,15.353,4.025c3.958-12.983,8.25-27.464,12.296-40.84
		C286.726,12.752,287.131,11.888,287.219,11.329z M278.723,485.381c0.165-0.899,0.038-0.544-0.448-0.522
		c-10.51,0.492-20.935,1.924-30.778,3.354c-3.916,14.068-7.741,28.229-11.626,42.329c9.536,2.066,19.665,3.538,30.183,4.622
		c3.741-14.728,7.55-29.448,11.254-44.27C277.67,489.442,278.435,486.949,278.723,485.381z M271.27,13.117
		c0.127-0.237,0.297-0.325-0.075-0.373c-0.473-0.06-1.198,0.25-1.863,0.373c-18.349,3.411-34.199,9.015-48.291,16.395
		c7.961,6.596,17.546,12.214,27.797,16.769c2.03-2.659,3.86-5.503,5.738-8.348c4.668-7.065,9.436-14.11,14.161-21.164
		C269.394,15.787,270.692,14.187,271.27,13.117z M270.45,475.021c-3.456-11-6.737-22.179-10.358-33.013
		c-3.134,11.845-6.461,23.497-9.614,35.324C256.925,476.351,263.651,475.65,270.45,475.021z M253.831,563.706
		c-0.073-2.842-3.03-8.093-11.626-9.091c-8.597-0.998-12.221,4.547-12.221,6.036s0,14.533,0,14.533
		c0.739,1.097,14.775,5.99,23.847,7.377C253.831,582.561,253.904,566.548,253.831,563.706z M253.831,563.706 M253.757,426.207
		c-11.304,0-22.607,0-33.909,0c5.816,16.732,12.268,34.558,18.258,51.573c0.175,0.492,0.438,1.508,0.82,1.49
		c0.389-0.019,0.582-1.088,0.67-1.417C244.256,460.561,249.098,443.27,253.757,426.207z M216.271,415.849
		c11.925,0,23.849,0,35.772,0c-6.632-21.589-13.375-43.066-20.047-64.612c-18.768-7.54-35.137-17.876-49.411-29.662
		c5.568,15.7,11.275,31.459,16.843,47.248c5.192,14.725,10.489,29.553,15.651,44.194
		C215.416,413.973,215.705,414.996,216.271,415.849z M225.81,528.084c3.425-12.525,7.014-25.28,10.284-37.71
		c-11.247,2.515-22.549,5.626-31.523,10.806c-2.912,1.682-6.065,3.697-7.751,6.336c-0.649,1.015-1.198,2.309-0.894,3.875
		c0.516,2.658,3.265,4.869,5.291,6.334C208.104,522.707,216.969,525.49,225.81,528.084z M226.928,337.747
		c0.289,0.134,0.626,0.374,0.969,0.297c-9.072-29.635-18.84-59.948-27.872-89.803c-3.041-10.053-6.139-20.084-9.315-29.958
		c-0.24-0.747-1.02-1.53-1.49-2.236c-6.888-10.332-13.96-20.896-20.793-30.928c-1.388,1.706-2.863,4.109-4.248,6.186
		c-9.389,14.081-19.028,28.119-28.245,42.18c7.962,24.616,20.016,45.565,35.622,62.751c7.787,8.574,16.151,16.635,25.563,23.623
		C206.217,326.616,216.202,332.741,226.928,337.747z M243.101,55c-11.986-5.303-22.416-12.164-31.898-19.972
		c-32.927,20.29-57.59,48.827-72.364,87.268c9.785,14.787,19.696,29.441,29.587,44.119C193.267,129.223,218.256,92.186,243.101,55z
		 M228.418,481.579c-4.758-13.847-9.883-27.975-14.829-41.883c-2.283,16.274-4.593,32.524-6.858,48.814
		C213.453,485.693,220.667,483.367,228.418,481.579z M194.733,205.689c6.114-8.021,12.005-16.264,17.961-24.444
		c-7.423-9.742-14.681-19.65-22.133-29.363c-5.266,8-10.652,15.878-15.949,23.847C181.353,185.682,188.052,195.677,194.733,205.689z
		 M162.166,175.656c-9.202-13.504-18.196-27.214-27.426-40.692c-1.688,5.95-3.284,12.675-4.396,19.75
		c-3.267,20.749-2.781,46.26,2.012,65.284C142.269,205.491,152.258,190.417,162.166,175.656z"/>
	<path id="H_1_" fill="#FF0000" d="M321.053,128.481c9.265,0,18.531,0,27.797,0c-0.049,34.653,0.1,69.509-0.075,104.037
		c-9.167,0-18.333,0-27.498,0c0-13.713,0-27.425,0-41.138c-13.316,0-26.63,0-39.947,0c-0.173,13.439-0.024,27.201-0.073,40.765
		c-8.621,0-17.242,0-25.861,0c0-34.48,0-68.963,0-103.441c-0.007-0.106-0.013-0.211,0.073-0.224c8.645,0,17.291,0,25.936,0
		c0,12.247,0,24.494,0,36.742c13.19,0,26.38,0,39.572,0C321.153,153.124,321.003,140.704,321.053,128.481z"/>
</g>
</svg>
