<?xml version="1.0" encoding="UTF-8"?>
<svg id="Camada_1" xmlns="http://www.w3.org/2000/svg" version="1.1" viewBox="0 0 500 500">
  <!-- Generator: Adobe Illustrator 30.1.0, SVG Export Plug-In . SVG Version: 2.1.1 Build 136)  -->
  <defs>
    <style>
      .st0 {
        fill: #f6a51c;
      }

      .st1 {
        fill: #fff;
      }

      .st2 {
        fill: #0690b8;
      }

      .st3 {
        fill: none;
      }

      .st4 {
        fill: #f5a719;
      }

      .st5 {
        fill: #282828;
      }

      .st6 {
        fill: #cb1922;
      }

      .st7 {
        fill: #fefefe;
      }
    </style>
  </defs>
  <ellipse class="st7" cx="387.4" cy="288.1" rx="43.4" ry="45.1"/>
  <path class="st7" d="M72.7,107.1s-2.1,172.9,4.2,199.9,30.7,78.5,30.7,78.5l7.1,11.3,34.8,36.6,93.6,62.8,72.8-47.6,43.9-37.9,32.1-42.5,21-37.2,7.7-20.9c7.5-13.9,7.6-23.7,6.2-30.2-1.3-5.9-2.5-20.6-8.9-27s-1.7-6.2-2.2-8l1.1-85.2v-55.6s-64.5-11-64.5-11l-36.3-4.8-123.6-5.7-46.4,8.5-67.6,12.9-5.6,3.2Z"/>
  <g>
    <path class="st1" d="M264.8,8.1c-6.4-1.6-12.8-2.5-19-2.6-11,0-21.4,2.3-30.9,6.5-3.2,1.4-6.3,3.1-9.4,5.1-6.5,4.1-12.2,8.8-17,14.1-12.2,13.6-19.6,31.6-19.6,51.3,0,29.7,16.9,55.6,41.6,68.4,4.9,2.4,10.2,4.4,15.9,5.9,6.6,1.8,13.3,2.7,19.8,2.7.4,0,.8,0,1.1,0,.2,0,.5,0,.7,0,5.8-.2,11.4-1,16.7-2.3.1,0,.3,0,.4-.1.4,0,.7-.2,1-.3,16-4.5,30.5-14.3,41.4-28.7.4-.5.8-1,1.1-1.3,8.8-12.5,14-27.8,14-44.3s0-3.6-.2-5.3c-1.9-16.7-7.5-32-18.9-45-10.6-12.1-23.5-20.1-38.9-24.1h0Z"/>
    <path class="st0" d="M245.8,5.5c6.2,0,12.6,1,19,2.6,15.5,3.9,28.4,11.9,38.9,24.1,11.3,13,17,28.2,18.9,45,.1,1.8.2,3.5.2,5.3,0,16.5-5.2,31.7-14,44.3-.4.3-.7.7-1.1,1.3-10.9,14.4-25.4,24.2-41.4,28.7-.3,0-.7.2-1,.3-.1,0-.3,0-.4.1-5.4,1.4-11,2.2-16.7,2.3-.2,0-.5,0-.7,0-.4,0-.8,0-1.1,0-6.5,0-13.2-.9-19.8-2.7-5.7-1.5-11-3.5-15.9-5.9-24.7-12.8-41.6-38.6-41.6-68.4s7.4-37.7,19.6-51.3c4.9-5.3,10.6-10,17-14.1,3.1-1.9,6.2-3.6,9.4-5.1,9.4-4.1,19.9-6.5,30.9-6.5M245.9,3.2h0c-11.1,0-21.8,2.2-31.8,6.7-3.3,1.5-6.6,3.3-9.7,5.2-6.5,4.1-12.4,9-17.5,14.5-13.1,14.6-20.2,33.4-20.2,52.9,0,29.8,16.4,56.8,42.9,70.5h0c5.1,2.5,10.5,4.5,16.3,6.1,6.7,1.8,13.6,2.7,20.4,2.8.4,0,.8,0,1.2,0,.2,0,.5,0,.7,0,5.9-.2,11.7-1,17.3-2.4h.2c0,0,.2,0,.3-.1.3,0,.6-.2.9-.3h.2c16.8-4.7,31.6-15,42.7-29.6.4-.5.6-.7.7-.8l.3-.2.2-.3c9.4-13.4,14.4-29.2,14.4-45.6s0-3.6-.2-5.5h0c-2.1-18.6-8.5-33.8-19.4-46.4-10.8-12.5-24.4-20.8-40.1-24.8-6.6-1.7-13.2-2.6-19.6-2.7h0,0Z"/>
  </g>
  <g>
    <path class="st7" d="M392.2,318.8c0,0,.2,0,.3.1h-.3c-.3-.3-.5-.5-.7-.8l-.3.4c.4,0,.7.2,1.1.2h0ZM420.7,309.3c1.3-.3,1.4-1.4,1.5-2.4,2.3-1.9,2.6-4.7,3.9-7.2.3-1.1.1-2.2.6-3.3.9-2.7.4-5.7.3-8.5,0-1-.6-1.5-1.5-1.2-.5.1-1.1.3-1,1.2.4,4,.7,7.9,1.1,11.9-1.1,2.4-2.2,4.8-3.2,7.2-.5.8-1,1.6-1.6,2.4-.1.2-.9.1-.3.6,0-.2.1-.4.2-.6h0ZM381.9,295.1c2.2-1.2,4.3-2.4,6.4-3.7-2.4.8-4.9,1.4-6.5,3.6-.2,0-.4.1-.7.2.1.1.2.3.3.4.1-.2.3-.4.4-.6h0ZM416.6,313.7c2.2.6,2.2-1,2.3-2.5l-2.3,2.6c-2.8-.2-4.9-1.9-7.4-2.9.2-5.5.4-11,.5-16.5,2.6-3.1,5.1-6.2,7.7-9.2.6-.6.5-.7.1-1.4-1-2-1.7-4.1-2.7-6.1-4.3-8.3-6.6-9.4-15.7-7.3-1.3.3-2.6.6-3.8.9-.6.1-1.3-.4-1.1,1.1.8,4.4.3,8.9,0,13.3-.1,1.3,0,1.9,1.4,2.5,4.3,1.9,8.5,4,12.3,6.8,1.7,5.3.7,10.6-.1,15.9-2.8,2.7-6.1,4.8-9.6,6.1-4,1.5-4.6,4.1-4.5,7.8,0,2.7,1.1,3,3.2,2.9,9.5-.5,15.9-5.3,19.6-14h0ZM168.7,103.5c-25.8,2.5-51.2,7.4-76.5,12.7-3.1.6-3.5,2.1-3.5,4.9,0,51.1,0,102.1,0,153.2s.3,14.5,1.3,21.7c5.3,35.7,21.4,66.4,44.4,93.8,1.2,1.5,2.1,1.6,3.6.6,2.7-1.8,5.5-3.6,8.4-5,3-1.5,2.6-2.8.7-5-4.5-5.2-8.7-10.5-12.7-16.1-19.2-27.4-29.5-57.5-29.2-91.4.4-45.4.1-90.8.1-136.2s0-1.3,0-2c0-1.6.6-2.3,2.2-2.6,13.7-2.7,27.4-5.3,41.2-7.3,9-1.3,17.9-2.6,26.9-3.9,2.4,1.4,4.4,4.4,3.9,6.2-.6,2.2-4.1,2.2-6.8,1.9-1.1-.1-2.4.1-3.5.3-9.5,1.3-19.1,2.4-28.6,3.9-8.2,1.3-16.3,3-24.5,4.3-3,.5-4,1.6-4,4.8.1,44.7.1,89.5.1,134.3,0,12.7,1.6,25.2,5.1,37.4,7,24.2,20,44.9,36.3,63.8,1.8,2.1,3,1.2,4.6.2,44.9-27.3,89.8-54.6,134.7-81.9,19.9-12.1,39.8-24.3,59.7-36.3,7.4-4.5,14.4-9.9,23.1-11.9,2.9-.7,3.4-2,3.4-4.6,0-21.8,0-43.6,0-65.3s-.1-23.5.1-35.2c0-3.5-1-4.8-4.4-5.2-5.9-.7-11.7-1.9-17.5-2.9-13.5-2.4-26.9-5-40.6-5.2-2.1,0-4.5.1-5.8-1.6-1.7-2.2-2.5-1.3-3.7.3-19.6,25.8-50.7,37-81.3,28.7-27.4-7.4-46-25-54.2-51.9-10.5-34.4,2.8-68.6,33.4-87.8,18.3-11.5,38.3-14.3,59.3-8.9,15.5,3.9,28.4,11.9,38.9,24.1,11.6,13.3,17.2,28.9,19,46,.5,5.2,0,10.5,0,16.1,1.6-1.3,3.3-1.2,5.1-.9,1.9.3,3.9.8,5.8,1,24.2,2.9,48.2,7.3,72,12.8,6.7,1.5,6.7,1.4,6.7,8.1,0,44.4,0,88.7,0,133.1,0,1.4-.6,3.2.6,4.2,2.7,2.3,5.7,4.4,8.9,6.8,0-1.8.2-2.9.2-4.1,0-33.8,0-67.6,0-101.4s0-32.2,0-48.3c0-2.7-.6-4.1-3.6-4.9-29.6-7.9-59.8-12.8-90.1-16.6-2.9-.4-4-1.5-4-4.1,0-1.1-.1-2.1-.2-3.2-1.5-20.7-9.7-38.2-25.1-52.1C278.2,6.1,254-.3,227,6.2c-26.5,6.3-44.6,22.7-54.9,47.8-3.3,8.1-5,16.7-5.2,25.4,0,2,0,4.1-3.1,4.5-14.1,1.8-28.2,3.6-42.3,6.1-16.2,3-32.3,6.3-48.3,10.4-3.1.8-4,2.2-4,5.4.1,57.2,0,114.3,0,171.5s1.1,22.4,3.4,33.4c6.8,32.1,21.3,60.5,41.9,86,4.2,5.2,4.1,5.1,9.8,1.6,2.2-1.3,2.1-2.3.6-4.1-6.1-7.4-11.9-15.1-17-23.2-11.7-18.5-20.5-38.2-25.3-59.7-3.3-14.9-4-30-4-45.2,0-50.6,0-101.1,0-151.7,0-4.3,1.3-6,5.3-6.9,26.6-6.2,53.5-10.9,80.6-14,1-.1,2.4-.6,2.7.8.6,3,2.3,5.9,1.4,9.1h0ZM192.2,412.5c.3,1.6,1.5,2,2.4,2.7,15.4,12,31.9,22.4,48.6,32.4,2,1.2,3.5,1,5.4-.1,16-9.5,31.6-19.6,46.5-30.7,18.3-13.7,34.8-29.2,49.2-46.9,4.5-5.5,8.8-11.2,12.6-18.2-55.5,20.5-110.1,40.7-164.7,60.8h0ZM166.8,422c.6.8.8,1.1,1.1,1.4,23.2,19.8,48.6,36.1,75.3,50.7,1.7,1,3.1.8,4.8-.1,4.6-2.6,9.3-4.9,13.8-7.6,23.8-14.2,46.6-29.7,67.2-48.2,22.1-19.9,41.1-42.4,54.7-69,1.3-2.6,2.4-5.3,4-8.7-6.9,2.6-12.8,4.8-18.7,6.9-1.7.6-2.4,2-3.1,3.4-10.5,18.2-23.9,34-39.1,48.4-23.6,22.4-50.2,40.5-78.3,56.6-1.9,1.1-3.4,1.2-5.4,0-19.3-11.1-38.1-23.1-55.6-37-1.9-1.5-4-2-6.3-1.6-4.9,1-9.4,3-14.4,4.9h0ZM412.8,330.8c-3.4,1.5-6.2,2.8-9.2,3.9-1.9.7-2.9,1.8-3.7,3.7-14,34.3-36.6,62.5-63.9,87-25,22.4-52.8,40.8-82.2,57-5.8,3.2-10.2,3.4-16.2.1-26.4-14.6-51.9-30.7-74.7-50.6-5.3-4.6-9.6-6.1-15.5-2.6-.3.2-.6.5-1.5,1.2,1.3,1,2.5,1.8,3.6,2.8,28.3,25.2,59.9,45.5,93.6,62.8,1.7.8,3.1,1.1,4.8.2,12.6-6.5,24.9-13.5,37-20.9,10.3-6.3,20.3-13.2,30-20.4,26.7-19.7,50.7-42.3,70-69.5,11.9-16.7,21.5-34.6,27.9-54.7h0ZM402.3,182.4c0-20.5,0-40.9,0-61.4,0-3.2-1-4.4-4-4.9-4.8-.8-9.5-2.1-14.3-3-19.9-3.8-39.8-7.6-60.1-9.2-2.7-.2-2.9,1.2-3.3,2.6-1.1,3.4-2.2,6.7-3.7,9.9-1.9,4.2-1.6,4.7,3.2,5.3,21.2,2.5,42.2,5.9,63.1,10.3,2.4.5,3.2,1.4,3.2,3.9-.1,11.6,0,23.2,0,34.8,0,23.6,0,47.3,0,70.9,0,3.2.4,4.9,4.2,4.5,2.6-.2,5.3.3,7.8,1.1,3.6,1.1,4.1-.2,4.1-3.5-.1-20.5,0-40.9,0-61.4h0ZM150.4,407.2c1.2-1.5,3.7-.4,5.7-1.4,15.6-7.2,31.5-13.8,46.9-21.4,9.9-4.8,20.4-8.7,30.5-13.1,8-3.5,16-7.1,24-10.7,12.1-5.4,24-11.2,36.2-16.3,20.8-8.7,41.1-18.5,61.9-27.3,2.3-1,2.7-1.9,1.4-3.9-1.9-3.1-3.7-6.3-5.5-9.5-.8-1.5-1.4-1.7-3-.8-6.9,3.8-14,7.4-21,11.1-12.4,6.6-24.7,13.2-37.2,19.7-11.6,6.1-23.4,12-35,18.1-23.2,12.1-46.4,24.2-69.5,36.4-12.1,6.4-24.4,12.3-35.5,19h0ZM294.2,63.3c-7.2.1-13.7.5-18.8-4.9-1.4-1.4-3.3-1.3-4.9-1-6,1.2-11.2-1.4-16.3-3.6-2.9-1.2-5.1-3.7-3.8-7.3,1.3-3.6,4.5-3.5,7.7-3.2,1.6.2,3.1,1,5.5.3-11.2-10.4-23.9-11-36.8-7.5-8.9,2.4-16.7,7.3-18.9,17.7,13-2.1,27,3.1,31,11.3,2.6,5.4,3.4,11,2.7,16.9-.7,6.2-4.3,10.6-9.4,13.8.4.5.6.8.8.8.5,0,1,0,1.4-.2,6.1-1.5,10-5.6,12.6-11.1.8-1.7,1.3-2.8,3.7-1.3,10.5,6.7,21.7,7.7,33.3,3.4,6-2.2,11.6-5.1,17-9.5-16.1-1.7-17.6-2.2-20.7-7,6.5.6,10.7-2.6,14.1-7.9h0ZM210.6,115.7c4,0,7.7-.5,10.9-3,1.9-1.5,2.4-.6,2.6,1.4.3,3.1-.7,5.9-1.7,9.1,6.9-1.6,10.8-6.2,13.9-11.8,3.4,2.9,4.1,6.9,5.3,11,6.7-5.4,10.9-11.7,10.7-20.3,0-2.7.2-4.5,3.6-4.6,1.6,0,3.2-1,4.8-1.7,1.1-.4,1.7-1.5,1.9-2.4.3-1.7-1.5-1-2.3-1.3-2.7-1.1-5.5-1.7-8-3.3-2-1.3-3-.7-4.2,1.3-3.1,5.1-7.6,8.5-13.5,10.1-7.3,2-14,0-20.7-2.7-.7-.3-1.8-2-2.4-.2-1.5,4.2-5.2,5.8-9.1,7.4,3.1,2.3,6.1,2.9,9.3,2.2,2.4-.5,2.4.6,2.1,2.4-.4,2.4-2.3,4.1-3.3,6.3h0ZM199.8,98.9c1.6-9.7,5.5-17.3,14.1-21.2,8.9-4,17.2-.4,25.5,3.8.4-7-.3-13.2-5.5-18.6-1.6,5.9-2.3,6.6-6.1,6-10-1.6-19.1-.3-26,9.3-1.4-9.8,2.4-16.3,10.4-21.4-15,1.9-25.1,19.2-12.4,42.2h0ZM277.3,121.9c-3.3-4.9-5.8-9.3-6.9-14.4-1.1-5-.9-5,4-4.2,8.4,1.5,16-.1,22.8-6.1-8.3-1.9-15.3-7-23.9-4.3-2.9.9-6.3,0-8.2,3.6-.5,1-2,2-3.2,2.1-5.7.6-6.8,3.9-7.1,9.1-.2,3,.2,5,2.3,6.6,5.8,4.3,12.2,7.2,20.2,7.5h0ZM379.7,303.7h0c0-2-.1-4,0-5.9.1-1.2,0-1.7-1.3-2.3-3.7-1.7-7.2-3.7-10.7-5.8-1.4-.8-2.2-.7-3.2.5-7.3,8.2-7.3,9.6-2.6,18.4,3,5.8,5.8,6.8,12.2,5.5,5.2-1,5.6-1.6,5.6-6.9v-3.6h0ZM215.8,128c.7,2.3,1.7,3.3,3.5,4,4.1,1.7,8.2,2,12.3.4,1.6-.6,2.8-.9,3.4,1.1,1.3,4.7,4.5,7,9.3,7.1,5,.1,8.9-1.7,11-6.9-5.8-.7-9.5-3.9-10.4-9.6-2.3.3-3.2,2.6-5.6,2.9-.4-3.3.1-6.9-2.4-9.9-5.4,6.5-12.3,10.1-20.9,10.9h0ZM277.9,39.9c-4,6.4-9.7,7.4-16.1,6.5-1.2-.2-2.3-.5-3.5-.6-2,0-4.7-1-5.5,1.7-.8,2.7,1.6,3.8,3.5,5,.6.3,1.2.6,1.8.8,5.6,1.8,11.4,2.3,17.2,1.7,5.6-.6,9.9-3.8,13.3-8,.6-.7,1-1.7.3-2.6-.8-1-1.6,0-2.4.4-1.7.7-3.4,1.5-5.1,2.2-2.8,1.1-3.8,0-3.1-2.7.4-1.4,0-2.6-.6-4.2h0ZM381.8,256.6c-10.6-1-18.1,3-22.1,12.9,2.6.8,4.9,3.8,6.8,3.7,2.3,0,4.5-3.2,6.8-4.9.9-.7,2-1.2,3.1-1.7,2.9-1.2,5.3-2.7,4.8-6.5-.2-1.1.4-2.3.6-3.5h0ZM255.9,131.3c4.7,0,8.8-2.7,9.7-7.4.7-3.8-3.8-2.5-5.2-4.3-.2-.3-.6-.5-1-.7-2.8-1.1-4.2-6-6.8-4.8-2.3,1-3.6,4.9-5.9,7-.5.4-1,.9-.9,1.6.5,4.1,5.7,8.5,10.1,8.5h0ZM287,118.4c3.4,0,4.3-1.5,2.6-4.5-1-1.9-2-3.7-2-5.9,0-1.9-.8-2.5-2.7-2.1-3.4.8-6.8.8-10.1,0-2.2-.6-2.3.2-1.9,2.2,1.5,7.4,5.4,10.4,14.1,10.4h0ZM214.3,93.9c7,4.5,14.9,3.1,20.6-3.3,4.9-5.5,4.3-7.5-2.6-9.9-1.4-.5-2.1-.5-2.5,1.2-2.1,7.8-7,12.1-15.5,12.1ZM212.1,92.9c6.2-.3,10.3-1.9,13.2-6.1,1.5-2.2,3.6-5.2,2.5-7-1.4-2.4-5.1-1-7.8-1.1-1.6,0-2.3.8-2.3,2.5.1,4.4-.5,8.5-5.6,11.8h0ZM220.1,117.2c-1.8.4-3.5,1-5.3,1.3-1.9.3-3.9.6-5.8.7-2.2,0-2.3,1.4-2,2.9.4,2.2,2,3.3,4.1,3.6,4.6.9,8.9-3.2,8.9-8.6h0ZM241.6,31.8c3,.4,5.6.6,8.1,1.3,2.2.6,3.2-.3,4-2.1.9-2.1.8-4.4.2-6.5-.3-1.1-1-2.1-2.1-.6-2.6,3.5-6.2,5.8-10.1,7.9h0ZM265,130.3c5.3,1.7,9.9.5,11.9-3.1.6-1,1.5-2.2-.6-2.6-2.4-.5-5-1.7-7.3-1.3-1.5.2-1.3,3.2-2.2,4.7-.5.8-1.1,1.4-1.8,2.3ZM230.5,32.6c2.2-.6,4.6.2,5.8-1.8.8-1.4-.2-2.9-1.8-3.7-1.3,1.8-2.5,3.4-4,5.4ZM402.7,256.6c3.3,1.3,4.7,5.7,9.9,5.2-3.2-2.9-6.1-4.8-9.9-5.2ZM365.7,288.1c.5-3.6.5-6.3,0-10.1-.4,3.8-.5,6.5,0,10.1ZM389.4,317.4c-.2,0-.4.2-.6.3.1,0,.2.2.3.2.2,0,.4-.1.6-.2,0,0-.2-.2-.3-.3ZM233.8,62.6c0,0-.2-.2-.3-.2-.2,0-.3.1-.5.2,0,0,.2.3.2.2.2,0,.3-.1.5-.2h0Z"/>
    <path class="st2" d="M168.7,103.5c2.6,5.7,5.1,11.4,7,17.4-9,1.3-17.9,2.6-26.9,3.9-13.8,1.9-27.6,4.6-41.2,7.3-1.6.3-2.3,1.1-2.2,2.6,0,.7,0,1.3,0,2,0,45.4.3,90.8-.1,136.2-.3,33.8,10,63.9,29.2,91.4,3.9,5.6,8.2,11,12.7,16.1,1.9,2.2,2.3,3.5-.7,5-2.9,1.5-5.7,3.3-8.4,5-1.5,1-2.4.8-3.6-.6-23-27.4-39.1-58-44.4-93.8-1.1-7.2-1.3-14.4-1.3-21.7,0-51.1,0-102.1,0-153.2,0-2.7.4-4.2,3.5-4.9,25.3-5.3,50.7-10.2,76.5-12.7h0Z"/>
    <path class="st6" d="M192.2,412.5c54.6-20.2,109.2-40.3,164.7-60.8-3.8,7-8.2,12.7-12.6,18.2-14.4,17.7-30.9,33.3-49.2,46.9-14.9,11.1-30.5,21.2-46.5,30.7-1.9,1.1-3.5,1.3-5.4.1-16.7-10-33.2-20.4-48.6-32.4-.9-.7-2.2-1.1-2.4-2.7h0Z"/>
    <path class="st2" d="M166.8,422c5-1.9,9.5-3.9,14.4-4.9,2.3-.5,4.4,0,6.3,1.6,17.5,13.8,36.3,25.8,55.6,37,2,1.2,3.5,1.1,5.4,0,28.1-16.1,54.8-34.2,78.3-56.6,15.2-14.4,28.5-30.3,39.1-48.4.8-1.3,1.4-2.7,3.1-3.4,5.9-2.1,11.8-4.3,18.7-6.9-1.6,3.5-2.7,6.2-4,8.7-13.7,26.6-32.6,49.1-54.7,69-20.6,18.6-43.5,34-67.2,48.2-4.5,2.7-9.3,5-13.8,7.6-1.7,1-3,1.1-4.8.1-26.6-14.6-52.1-31-75.3-50.7-.3-.2-.5-.6-1.1-1.4h0Z"/>
    <path class="st4" d="M412.8,330.8c-6.4,20-16.1,37.9-27.9,54.7-19.3,27.2-43.3,49.8-70,69.5-9.7,7.2-19.7,14.1-30,20.4-12.1,7.4-24.4,14.4-37,20.9-1.8.9-3.2.7-4.8-.2-33.6-17.3-65.2-37.6-93.6-62.8-1.1-1-2.3-1.8-3.6-2.8.9-.7,1.2-1,1.5-1.2,5.9-3.5,10.2-2,15.5,2.6,22.8,19.9,48.2,36,74.7,50.6,6,3.3,10.4,3.1,16.2-.1,29.4-16.2,57.2-34.6,82.2-57,27.4-24.5,49.9-52.7,63.9-87,.8-1.9,1.9-3,3.7-3.7,2.9-1.1,5.8-2.5,9.2-3.9h0Z"/>
    <path class="st2" d="M402.3,182.4c0,20.5,0,40.9,0,61.4,0,3.3-.5,4.6-4.1,3.5-2.5-.8-5.2-1.3-7.8-1.1-3.8.3-4.2-1.4-4.2-4.5.1-23.6,0-47.3,0-70.9s0-23.2,0-34.8c0-2.5-.8-3.4-3.2-3.9-20.9-4.4-41.9-7.8-63.1-10.3-4.7-.6-5.1-1-3.2-5.3,1.5-3.2,2.6-6.6,3.7-9.9.5-1.4.6-2.8,3.3-2.6,20.3,1.6,40.1,5.5,60.1,9.2,4.8.9,9.5,2.2,14.3,3,3,.5,4,1.7,4,4.9-.2,20.5,0,40.9,0,61.4h0Z"/>
    <path class="st6" d="M150.4,407.2c11.2-6.7,23.5-12.6,35.5-19,23.1-12.2,46.3-24.3,69.5-36.4,11.6-6.1,23.4-12,35-18.1,12.4-6.5,24.8-13.2,37.2-19.7,7-3.7,14.1-7.3,21-11.1,1.6-.9,2.2-.6,3,.8,1.8,3.2,3.6,6.4,5.5,9.5,1.2,2,.9,2.9-1.4,3.9-20.8,8.7-41.1,18.6-61.9,27.3-12.2,5.1-24.1,10.9-36.2,16.3-8,3.6-16,7.2-24,10.7-10.2,4.4-20.6,8.3-30.5,13.1-15.5,7.5-31.3,14.2-46.9,21.4-2.1,1-4.6-.1-5.7,1.4h0Z"/>
    <path class="st6" d="M294.2,63.3c-3.4,5.2-7.6,8.5-14.1,7.9,3.2,4.9,4.7,5.3,20.7,7-5.4,4.4-11,7.3-17,9.5-11.6,4.3-22.8,3.3-33.3-3.4-2.4-1.5-2.8-.4-3.7,1.3-2.6,5.5-6.5,9.5-12.6,11.1-.5.1-1,.2-1.4.2-.2,0-.4-.4-.8-.8,5.1-3.2,8.7-7.7,9.4-13.8.7-5.9-.2-11.5-2.7-16.9-3.9-8.2-17.9-13.4-31-11.3,2.2-10.4,10-15.3,18.9-17.7,12.9-3.4,25.7-2.9,36.8,7.5-2.4.6-3.9-.1-5.5-.3-3.1-.4-6.4-.4-7.7,3.2-1.3,3.5,1,6.1,3.8,7.3,5.2,2.2,10.3,4.8,16.3,3.6,1.6-.3,3.5-.5,4.9,1,5.1,5.4,11.6,5,18.8,4.9h0ZM258.8,81.4c6.5,0,11.4-4.6,11.4-11,0-6.4-5-11.7-11.3-11.8-5.9-.1-10.8,5.2-10.8,11.7,0,6.5,4.3,11,10.7,11.1Z"/>
    <path class="st4" d="M210.6,115.7c1-2.3,2.8-3.9,3.3-6.3.3-1.7.3-2.9-2.1-2.4-3.2.7-6.3,0-9.3-2.2,3.9-1.6,7.6-3.2,9.1-7.4.6-1.8,1.7,0,2.4.2,6.7,2.7,13.4,4.7,20.7,2.7,5.9-1.6,10.4-5,13.5-10.1,1.2-2,2.2-2.6,4.2-1.3,2.5,1.6,5.3,2.2,8,3.3.7.3,2.5-.3,2.3,1.3-.1.9-.8,2-1.9,2.4-1.6.6-3.2,1.6-4.8,1.7-3.3.1-3.6,1.9-3.6,4.6.2,8.6-4,14.9-10.7,20.3-1.3-4.1-1.9-8.1-5.3-11-3.1,5.7-7,10.2-13.9,11.8.9-3.2,1.9-6,1.7-9.1-.2-2-.7-2.9-2.6-1.4-3.2,2.5-6.9,3-10.9,3h0Z"/>
    <path class="st5" d="M199.8,98.9c-12.7-23-2.6-40.3,12.4-42.2-7.9,5.1-11.8,11.5-10.4,21.4,6.9-9.6,16-10.8,26-9.3,3.9.6,4.5-.1,6.1-6,5.2,5.4,5.9,11.6,5.5,18.6-8.3-4.3-16.6-7.9-25.5-3.8-8.6,3.9-12.5,11.5-14.1,21.2h0Z"/>
    <path class="st6" d="M277.3,121.9c-8-.3-14.4-3.2-20.2-7.5-2.1-1.6-2.5-3.5-2.3-6.6.3-5.2,1.4-8.5,7.1-9.1,1.2-.1,2.7-1.1,3.2-2.1,1.9-3.6,5.3-2.7,8.2-3.6,8.7-2.7,15.6,2.4,23.9,4.3-6.9,5.9-14.5,7.5-22.8,6.1-4.9-.9-5-.8-4,4.2,1.1,5.1,3.6,9.6,6.9,14.4h0Z"/>
    <path class="st5" d="M408,295c-3.8-2.9-8-5-12.3-6.8-1.4-.6-1.5-1.1-1.4-2.5.4-4.4.9-8.9,0-13.3-.3-1.5.5-1,1.1-1.1,1.3-.3,2.6-.6,3.8-.9,9-2.1,11.4-1.1,15.7,7.3,1,2,1.7,4.1,2.7,6.1.4.7.4.8-.1,1.4-2.7,3-5.2,6.1-7.7,9.2-.6.2-1.2.5-1.8.7h0Z"/>
    <path class="st5" d="M379.7,303.7v3.6c0,5.3-.5,5.9-5.6,6.9-6.4,1.3-9.1.3-12.2-5.5-4.7-8.8-4.7-10.3,2.6-18.4,1.1-1.2,1.8-1.3,3.2-.5,3.5,2.1,7.1,4.1,10.7,5.8,1.2.6,1.4,1.1,1.3,2.3-.2,2,0,3.9,0,5.9h0Z"/>
    <path class="st2" d="M215.8,128c8.5-.8,15.4-4.4,20.9-10.9,2.6,3,2,6.6,2.4,9.9,2.4-.3,3.3-2.6,5.6-2.9,1,5.7,4.7,8.9,10.4,9.6-2.1,5.2-6,7-11,6.9-4.8-.1-7.9-2.5-9.3-7.1-.6-2-1.8-1.7-3.4-1.1-4.1,1.6-8.2,1.4-12.3-.4-1.8-.8-2.8-1.8-3.5-4h0Z"/>
    <path class="st4" d="M277.9,39.9c.5,1.7,1,2.8.6,4.2-.8,2.8.3,3.8,3.1,2.7,1.7-.7,3.4-1.4,5.1-2.2.8-.3,1.6-1.4,2.4-.4.7.8.2,1.9-.3,2.6-3.5,4.3-7.8,7.4-13.3,8-5.8.7-11.6.1-17.2-1.7-.6-.2-1.3-.4-1.8-.8-1.9-1.2-4.3-2.3-3.5-5,.8-2.7,3.4-1.8,5.5-1.7,1.2,0,2.3.4,3.5.6,6.4.9,12.1-.2,16.1-6.5h0Z"/>
    <path class="st5" d="M409.2,310.8c2.5,1,4.6,2.7,7.4,2.9h0c-3.7,8.6-10.1,13.4-19.6,13.9-2.2.1-3.2-.2-3.2-2.9,0-3.7.5-6.2,4.5-7.8,3.5-1.3,6.8-3.4,9.6-6.1.5,0,.9,0,1.4,0h0Z"/>
    <path class="st5" d="M381.7,256.6c-.2,1.2-.8,2.4-.6,3.5.5,3.8-1.9,5.3-4.8,6.5-1.1.5-2.2,1-3.1,1.7-2.3,1.7-4.5,4.9-6.8,4.9-1.9,0-4.2-3-6.8-3.7,4.1-9.9,11.5-13.9,22.1-12.9h0Z"/>
    <path class="st2" d="M255.9,131.3c-4.5,0-9.7-4.5-10.1-8.5,0-.8.4-1.2.9-1.6,2.3-2.2,3.6-6,5.9-7,2.7-1.2,4,3.8,6.8,4.8.4.1.7.4,1,.7,1.5,1.9,5.9.5,5.2,4.3-.9,4.6-5,7.4-9.7,7.4h0Z"/>
    <path class="st2" d="M287,118.4c-8.7,0-12.6-3-14.1-10.4-.4-2-.3-2.8,1.9-2.2,3.4.9,6.8.9,10.1,0,1.9-.5,2.7.1,2.7,2.1,0,2.2,1,4,2,5.9,1.7,3,.8,4.6-2.6,4.5h0Z"/>
    <path class="st5" d="M214.3,93.9c8.5,0,13.4-4.3,15.5-12.1.4-1.6,1.1-1.7,2.5-1.2,6.9,2.4,7.5,4.5,2.6,9.9-5.7,6.4-13.6,7.8-20.6,3.3Z"/>
    <path class="st5" d="M212.1,92.9c5.1-3.2,5.8-7.3,5.6-11.8,0-1.6.7-2.5,2.3-2.5,2.7,0,6.4-1.3,7.8,1.1,1.1,1.8-1,4.8-2.5,7-2.9,4.2-7,5.9-13.2,6.1h0Z"/>
    <path class="st2" d="M220.1,117.2c0,5.4-4.3,9.4-8.9,8.6-2.1-.4-3.7-1.5-4.1-3.6-.3-1.5-.2-2.9,2-2.9,1.9,0,3.9-.4,5.8-.7,1.8-.3,3.5-.8,5.3-1.3h0Z"/>
    <path class="st4" d="M241.6,31.8c4-2.2,7.5-4.5,10.1-7.9,1.1-1.5,1.8-.4,2.1.6.6,2.2.7,4.4-.2,6.5-.7,1.8-1.8,2.6-4,2.1-2.5-.6-5.1-.8-8.1-1.3h0Z"/>
    <path class="st2" d="M265,130.3c.7-.9,1.3-1.5,1.8-2.3,1-1.6.8-4.5,2.2-4.7,2.3-.3,4.9.8,7.3,1.3,2.1.5,1.1,1.6.6,2.6-2,3.5-6.5,4.8-11.9,3.1Z"/>
    <path class="st4" d="M230.5,32.6c1.5-2,2.7-3.6,4-5.4,1.5.8,2.6,2.2,1.8,3.7-1.1,2-3.6,1.1-5.8,1.8Z"/>
    <path class="st5" d="M425.5,299.8c-.3-4-.6-7.9-1.1-11.9-.1-1,.5-1.1,1-1.2.9-.3,1.5.2,1.5,1.2,0,2.9.6,5.8-.3,8.5-.4,1.2-.3,2.2-.6,3.3-.2,0-.4,0-.6,0h0Z"/>
    <path class="st5" d="M402.7,256.6c3.7.5,6.6,2.4,9.9,5.2-5.1.5-6.6-4-9.9-5.2Z"/>
    <path class="st5" d="M409.2,310.8c-.5,0-.9,0-1.4,0,.9-5.3,1.8-10.6.1-15.9.6-.2,1.2-.5,1.8-.7-.2,5.5-.4,11-.5,16.5h0Z"/>
    <path class="st5" d="M381.8,295c1.6-2.2,4.1-2.8,6.5-3.6-2.2,1.2-4.3,2.4-6.4,3.7h0Z"/>
    <path class="st5" d="M425.5,299.8c.2,0,.4,0,.6,0-1.2,2.4-1.6,5.3-3.9,7.2h0c0,0,3.2-7.1,3.2-7.1h0Z"/>
    <path class="st5" d="M416.6,313.7h0c.8-.8,1.5-1.6,2.3-2.5-.2,1.4-.1,3.1-2.3,2.5Z"/>
    <path class="st5" d="M365.7,288.1c-.6-3.6-.4-6.3,0-10.1.6,3.8.6,6.5,0,10.1Z"/>
    <path class="st5" d="M422.2,306.9c-.1,1.1-.2,2.1-1.5,2.4h0c.5-.8,1-1.6,1.6-2.4h0Z"/>
    <path class="st2" d="M389.4,317.4c.1,0,.2.2.3.3-.2,0-.4.2-.6.2,0,0-.2-.1-.3-.2.2,0,.4-.2.6-.3Z"/>
    <path class="st2" d="M392.2,318.8l-1.1-.2c.1-.1.2-.3.3-.4.3.2.5.4.7.6h0s0,0,0,0Z"/>
    <path class="st2" d="M381.9,295.1c-.1.2-.3.4-.4.6-.1-.1-.2-.3-.3-.4.2,0,.4-.1.7-.2h0Z"/>
    <path class="st2" d="M420.7,309.3c0,.2-.1.4-.2.6-.6-.5,0-.4.3-.6h0s0,0,0,0Z"/>
    <path class="st2" d="M392.1,318.9c.1,0,.2,0,.3.1,0,0-.2,0-.3-.1h0Z"/>
    <path class="st7" d="M192.4,270.9c0-5.7-.2-11.3,0-17,.3-7,4.3-11.3,11.1-11.8,6.3-.4,12.6-.2,19-.3,2.2,0,2.2,1.2,2.2,2.8,0,1.7-.6,2.4-2.3,2.3-4.7,0-9.5-.1-14.2,0-6.8.2-9.4,2.9-9.6,9.7-.2,5.2,2.3,7.8,7.4,7.8s8.4.1,12.7,0c2.3,0,2.9.9,2.9,3,0,2.4-1.3,2.4-3.1,2.4-5.5,0-11.1,0-16.6,0-2.5,0-3.5.6-3.3,3.3.2,4.7-.1,9.5.1,14.2.2,4-3.1,2.6-4.7,3.1-1.8.7-1.7-1.7-1.8-3,0-5.5,0-11.1,0-16.6h.2,0Z"/>
    <path class="st7" d="M242.7,265.1c.2-3.4-.5-7.9.6-12.4.9-3.5,2.7-6.2,5.6-8.3,7.3-5.2,21.4-4.4,27.7,1.7,1,1,3,2.1,1.4,3.7-1.4,1.3-3.3,2.9-5.4.6-4.2-4.5-9.6-4.5-15.1-3.7-4.6.7-7.6,4.3-8.1,9-.7,6.7-.7,13.4,0,20.1.5,4.8,3.4,8.1,8.1,9,6.1,1.1,11.9.8,16.3-4.4,2-2.3,3.1,0,4.5.9,2,1.2.4,2.3-.3,3.1-5.1,5.8-11.9,6.3-18.9,5.9-11-.6-16.5-6.4-16.5-17.5,0-2.2,0-4.5,0-7.8h0Z"/>
    <path class="st7" d="M264.4,195.4c2.6-2.3,4.6-4,7.5-4.4,6.2-.8,10.6,2.2,11,8.4.4,7.2,0,14.5.2,21.7,0,2.7-2,2-3.3,2.3-1.8.4-2.2-1-2.2-2.4v-16.6c0-5.8-1.6-8.7-5-9-3.7-.3-8,4.3-8.2,9.2-.2,5.1-.2,10.3,0,15.4.1,2.7-1.1,3.5-3.3,3.6-2.6.2-2.5-1.7-2.5-3.5,0-11.3,0-22.7,0-34,0-2.7.5-5.5-1.2-8-1.1-1.7,1.1-2.4,1.9-3.4,1-1.2,1.9-.2,2.6.5,1.9,1.7,2.4,4,2.4,6.5,0,4.3,0,8.7,0,13.7h0Z"/>
    <path class="st7" d="M147.2,194.7c4.6-4.2,9.5-5.1,14.5-2.6,5.1,2.6,6.7,7.5,6.9,12.9.1,3.4.3,6.8-.9,10.1-3.4,9.2-12.2,11.6-20.2,5.2,0,3.3-2.1,3-4.1,2.8-2.7-.3-1.5-2.4-1.5-3.7,0-11.9,0-23.7,0-35.6s.3-3.3-.8-4.6c-2.2-2.4,0-3.6,1.4-4.6,2-1.3,2.8.8,3.6,2,1.3,2,1.2,4.5,1.3,6.9,0,3.5,0,7,0,11.1h0ZM147.3,207.4h0c0,1.6,0,3.2,0,4.7.2,3.8,2.5,6.1,6,6.9,3.5.8,6.7-.4,8.4-3.7,2.6-5.2,2.6-10.7,0-15.9-1.6-3.1-4.5-4.5-7.9-3.8-3.5.7-5.9,3-6.3,6.7-.2,1.7,0,3.4,0,5.1h0Z"/>
    <path class="st7" d="M221.5,208.8c.5,3.3-1.1,7.3,1.4,11,1,1.5-.6,2-1.3,2.8-.9,1-1.9,1.5-3,.3-1.7-1.7-3.4-2.8-5.4-.3-.3.3-1,.2-1.5.3-8.2,2.4-13.2.4-14.7-5.7-1.6-6.6,2.2-11,10.7-12.4,1.2-.2,2.3-.4,3.5-.6,2-.3,4.5-.1,4.6-3.2,0-2.8-1.3-4.8-4.1-5.6-2.9-.8-5.9-.6-8.1,1.6-1.8,1.8-3.1,1.5-4.5-.2-1.6-2,.3-3,1.4-3.7,4.9-3.1,10.3-3.2,15.5-1,4.7,2,5.6,6.3,5.5,10.9,0,1.7,0,3.4,0,5.7h0ZM216.2,210.3c.6-2.5-.8-3.3-3.2-2.2-2.2.9-4.4,1.3-6.7,1.5-2.9.2-4.3,2.2-4.1,5.2.2,3.1,2.4,4.3,5,4.5,4.7.3,8.9-3.9,9.1-9h0Z"/>
    <path class="st7" d="M363.4,209.2c.7,3.2-1.3,7.3,1.6,10.9.9,1.1-.2,2.2-1.3,2.8-1.2.6-2.6,1.3-3.4-.2-1.7-3.3-3.1-2-5.4-.5-3.9,2.6-8.3,2.8-12.4.4-3.8-2.3-4-6.2-3.4-10.2.6-3.8,3.3-5.6,6.6-6.6,2.6-.8,5.4-1,8.1-1.5,1.6-.3,3.7-.3,4-2.5.3-2.2-.6-4.1-2.5-5.5-2.6-1.8-7.1-1.6-9.9.9-1.9,1.7-3.1,1.3-4.5-.3-1.8-2,.5-2.9,1.5-3.6,4.9-3.3,10.2-3.2,15.5-1.1,4.8,2,5.4,6.4,5.5,10.9,0,1.9,0,3.7,0,6.1h0ZM358.1,210.6c-.5-.8,1.1-3.1-1.3-2.8-3.4.4-6.9.5-10,2-2.3,1.1-3.1,3.1-2.7,5.6.3,2.5,1.9,3.6,4.3,3.9,5.6.8,9.6-2.7,9.7-8.7h0Z"/>
    <path class="st7" d="M312.9,196.2c2.8-4.5,6.4-6.1,11.2-5,4.5,1,7,3.4,7.2,8,.3,7.2,0,14.5.2,21.7,0,2.2-1.3,2.1-2.8,2.2-1.8,0-2.6-.5-2.6-2.4,0-5.4,0-10.8,0-16.2,0-1.7,0-3.5-.4-5.1-1-4-5.5-5.2-8.8-2.5-2.6,2.2-4.2,5-4.2,8.6,0,5,0,10,0,15,0,2.1-.6,2.7-2.7,2.7-2.1,0-2.7-.8-2.7-2.8,0-6.4,0-12.9,0-19.4,0-1.6.3-3.4-.7-4.6-1.8-2.3-.5-3.7,1.2-4.8,2.2-1.3,2.8,1,3.9,2.2.5.5.6,1.3,1.1,2.4h0Z"/>
    <path class="st7" d="M228.9,207.2v-4.7c0-4.7,1.7-8.7,6.3-10.5,5.1-1.9,10.3-1.9,15,1.6,2.2,1.6,1.9,2.9,0,4.6-1.3,1.1-1.9.6-2.9-.3-2.6-2.6-5.7-3.3-9.1-1.8-3.5,1.5-4,4.6-4,7.9,0,2.4,0,4.7,0,7.1,0,3.2.6,6.1,3.9,7.5,3.2,1.3,6.4.5,8.6-1.6,2.2-2.1,3.1-.8,4.4.4,2,1.9.1,2.8-1,3.7-4.6,3.5-9.8,3.6-15,1.6-4.8-1.9-6.4-6-6.3-10.9v-4.7h0Z"/>
    <path class="st7" d="M182.1,196.5c2.5-3.6,5.2-6.4,9.9-5.5,1.9.3,3.3.8,2.7,3.3-.5,2.2-1.2,3.1-3.7,2.1-2.5-1-4.7.2-6.2,2.3-1.9,2.6-2.9,5.6-2.9,8.9,0,4.2,0,8.4,0,12.6,0,2-.3,3.1-2.8,3.1-2.3,0-2.9-.8-2.9-3,.1-6.6,0-13.2,0-19.8,0-1.6.3-3.3-.8-4.6-1.8-2.1,0-3.1,1.2-4.1,1.6-1.4,2.7,0,3.5,1.1.7.9,1.1,2.1,1.9,3.6h0Z"/>
    <path class="st7" d="M292.1,205.3c0-3.8,0-7.6,0-11.4,0-2,.9-2.4,2.6-2.4,1.7,0,3.1,0,3,2.4-.1,6.3,0,12.6,0,18.9,0,2.3-.4,4.6,1.2,6.8,1.3,1.7-.9,2.4-1.7,3.4-1.1,1.4-2.1.4-2.9-.5-1.5-1.6-2.2-3.6-2.2-5.7,0-3.8,0-7.6,0-11.4h0Z"/>
    <path class="st7" d="M132.2,205.8c.9,4.1-1.5,9.3,1.5,14.2.8,1.3-1.2,2.1-2,3-1,1.1-1.9.3-2.7-.5-1.4-1.3-2.2-2.8-2.2-4.8,0-7.9,0-15.8-.1-23.7,0-2.3,1-2.5,2.9-2.6,2.1,0,2.7.8,2.7,2.8-.1,3.6,0,7.1,0,11.6h0Z"/>
    <path class="st7" d="M295.9,289c-3.5-1.8-6.9-1.6-10.4.5,1.1-3.9,2.7-7.7-2.9-9.6,4.7.4,7.5-1.1,8-5.9,1.3,4,3.1,6.8,8.1,5.6-3.8,2.5-5.6,5.2-2.8,9.3h0Z"/>
    <path class="st7" d="M233.6,289.1c-3.6-3.7-6.6-2.7-9.8.2,1.8-4.1,1.6-7.2-3-9.2,4.3,0,7.6-.8,7.6-6.2,1.5,4.1,3,7.3,8.3,5.7-3.6,2.4-5.6,5-3.1,9.5h0Z"/>
    <path class="st7" d="M132.8,181.6c-.2,2.2-1.2,3.7-3.4,3.7s-3.3-1.6-3.4-3.6c0-2.2,1.1-3.9,3.6-3.8,2.3,0,3,1.8,3.2,3.7h0Z"/>
    <path class="st7" d="M291.5,181.6c.2-2.3,1.3-3.7,3.4-3.6,2.1,0,3.4,1.6,3.2,3.7-.2,2.2-1.1,4.2-3.7,4.1-2.5-.2-2.5-2.5-2.9-4.1h0Z"/>
    <path class="st7" d="M258.8,81.4c-6.4,0-10.7-4.7-10.7-11.1,0-6.6,4.9-11.8,10.8-11.7,6.3.1,11.4,5.4,11.3,11.8,0,6.4-5,11.1-11.4,11ZM263.2,62c-.4-.6-1-.9-1.4-.4-.3.4.3.8.7.9,2.5,6.1,1.8,11.7-3.2,16.8,4.5-.5,7.6-2.3,8.6-6.5,1.2-5.1-.4-8.4-4.7-10.8h0ZM250.6,70.4c0,5.7,3.5,8.7,7.3,6.4,2-1.1,2.7-3.2,3.2-5.2.8-3.2.4-6.3-1.9-8.7-1.1-1.2-2.7-1.8-4.3-.8-3.1,1.9-4.2,4.9-4.3,8.4h0Z"/>
    <path class="st6" d="M147.3,207.4c0-1.7-.2-3.4,0-5.1.4-3.7,2.8-6,6.3-6.7,3.4-.7,6.3.7,7.9,3.8,2.7,5.2,2.6,10.7,0,15.9-1.6,3.3-4.8,4.5-8.4,3.7-3.5-.8-5.7-3.1-6-6.9,0-1.6,0-3.2,0-4.7h0Z"/>
    <path class="st6" d="M216.2,210.3c-.2,5.1-4.4,9.3-9.1,9-2.6-.2-4.8-1.4-5-4.5-.2-3,1.3-5,4.1-5.2,2.4-.2,4.5-.6,6.7-1.5,2.4-1,3.8-.3,3.2,2.2h0Z"/>
    <path class="st6" d="M358.1,210.6c0,5.9-4.2,9.5-9.7,8.7-2.4-.3-3.9-1.4-4.3-3.9s.4-4.5,2.7-5.6c3.2-1.5,6.7-1.5,10-2,2.3-.3.8,1.9,1.3,2.8h0Z"/>
    <path class="st4" d="M250.6,70.4c.1-3.5,1.2-6.5,4.3-8.4,1.6-.9,3.2-.4,4.3.8,2.4,2.5,2.8,5.5,1.9,8.7-.5,2-1.2,4.1-3.2,5.2-3.8,2.2-7.2-.8-7.3-6.4h0Z"/>
    <path class="st6" d="M263.2,62c4.3,2.4,5.8,5.7,4.7,10.8-1,4.2-4.1,6.1-8.6,6.5,5-5.1,5.7-10.7,3.2-16.8l.7-.6h0Z"/>
    <path class="st6" d="M262.5,62.6c-.4-.2-1-.5-.7-.9.5-.6,1.1-.2,1.4.4-.2.2-.5.4-.7.6h0Z"/>
  </g>
  <g>
    <path class="st6" d="M374.9,137.5c-5.9-.7-11.7-1.9-17.5-2.9-13.5-2.4-26.9-5-40.6-5.2-2.1,0-4.5.1-5.8-1.6-1.1-1.4-1.8-1.6-2.6-1-10.1,14.4-25.1,25.2-42.5,30-.3,0-.7.2-1,.3-.1,0-.3,0-.4.1-5.4,1.4-11.1,2.2-16.7,2.3-.2,0-.5,0-.7,0-.4,0-.8,0-1.1,0h-.3c-12.8,0-24.8-3.1-35.4-8.6-10.9-5.4-19.9-12.9-26.8-22.4-.3,0-.7,0-1.1-.1-.9-.2-1.8-.6-2.7-1-.8,2.1-4.1,2.1-6.7,1.7-1.1-.1-2.4.1-3.5.3-9.5,1.3-19.1,2.4-28.6,3.9-8.2,1.3-16.3,3-24.5,4.3-3,.5-4,1.6-4,4.8.1,44.7.1,89.5.1,134.3,0,12.7,1.6,25.2,5.1,37.4,7,24.2,20,44.9,36.3,63.8,1.8,2.1,3,1.2,4.6.2,44.9-27.3,89.8-54.6,134.7-81.9,19.9-12.1,39.8-24.3,59.7-36.3,7.4-4.5,14.4-9.9,23.1-11.9,2.9-.7,3.4-2,3.4-4.6,0-21.8,0-43.6,0-65.3s-.1-23.5.1-35.2c0-3.5-1-4.8-4.4-5.2h0ZM129.6,177.9c2.3,0,3,1.8,3.2,3.7-.2,2.2-1.2,3.7-3.4,3.7s-3.3-1.6-3.4-3.6c0-2.2,1.1-3.9,3.6-3.8h0ZM131.7,223.1c-1,1.1-1.9.3-2.7-.5-1.4-1.3-2.2-2.8-2.2-4.8,0-7.9,0-15.8-.1-23.7,0-2.3,1-2.5,2.9-2.6,2.1,0,2.7.8,2.7,2.8-.1,3.6,0,7.1,0,11.6.9,4.1-1.5,9.3,1.5,14.2.8,1.3-1.2,2.1-2,3h0ZM167.7,215.1c-3.4,9.2-12.2,11.6-20.2,5.2,0,3.3-2.1,3-4.1,2.8-2.7-.3-1.5-2.4-1.5-3.7,0-11.9,0-23.7,0-35.6s.3-3.3-.8-4.6c-2.2-2.4,0-3.6,1.4-4.6,2-1.3,2.8.8,3.6,2,1.3,2,1.2,4.5,1.3,6.9,0,3.5,0,7,0,11.1,4.6-4.2,9.5-5.1,14.5-2.6,5.1,2.6,6.7,7.5,6.9,12.9.1,3.4.3,6.8-.9,10.1h0ZM294.9,177.9c2.1,0,3.4,1.6,3.2,3.7-.2,2.2-1.1,4.2-3.7,4.1-2.5-.2-2.5-2.5-2.9-4.1.2-2.3,1.3-3.7,3.4-3.6h0ZM211.8,195.4c-2.9-.8-5.9-.6-8.1,1.6-1.8,1.8-3.1,1.5-4.5-.2-1.6-2,.3-3,1.4-3.7,4.9-3.1,10.3-3.2,15.5-1,4.7,2,5.6,6.3,5.5,10.9,0,1.7,0,3.4,0,5.7.5,3.3-1.1,7.3,1.4,11,1,1.5-.6,2-1.3,2.8-.9,1-1.9,1.5-3,.3-1.7-1.7-3.4-2.8-5.4-.3-.3.3-1,.2-1.5.3-8.2,2.4-13.2.4-14.7-5.7-1.6-6.6,2.2-11,10.7-12.4,1.2-.2,2.3-.4,3.5-.6,2-.3,4.5-.1,4.6-3.2,0-2.8-1.3-4.8-4.1-5.6h0ZM184.8,198.6c-1.9,2.6-2.9,5.6-2.9,8.9,0,4.2,0,8.4,0,12.6,0,2-.3,3.1-2.8,3.1-2.3,0-2.9-.8-2.9-3,.1-6.6,0-13.2,0-19.8,0-1.6.3-3.3-.8-4.6-1.8-2.1,0-3.1,1.2-4.1,1.6-1.4,2.7,0,3.5,1.1.7.9,1.1,2.1,1.9,3.6,2.5-3.6,5.2-6.4,9.9-5.5,1.9.3,3.3.8,2.7,3.3-.5,2.2-1.2,3.1-3.7,2.1-2.5-1-4.7.2-6.2,2.3h0ZM218.5,270c-5.5,0-11.1,0-16.6,0-2.5,0-3.5.6-3.3,3.3.2,4.7-.1,9.5.1,14.2.2,4-3.1,2.6-4.7,3.1-1.8.7-1.7-1.7-1.8-3,0-5.5,0-11.1,0-16.6h.2c0-5.7-.2-11.3,0-17,.3-7,4.3-11.3,11.1-11.8,6.3-.4,12.6-.2,19-.3,2.2,0,2.2,1.2,2.2,2.8,0,1.7-.6,2.4-2.3,2.3-4.7,0-9.5-.1-14.2,0-6.8.2-9.4,2.9-9.6,9.7-.2,5.2,2.3,7.8,7.4,7.8s8.4.1,12.7,0c2.3,0,2.9.9,2.9,3,0,2.4-1.3,2.4-3.1,2.4h0ZM233.6,289.1c-3.6-3.7-6.6-2.7-9.8.2,1.8-4.1,1.6-7.2-3-9.2,4.3,0,7.6-.8,7.6-6.2,1.5,4.1,3,7.3,8.3,5.7-3.6,2.4-5.6,5-3.1,9.5h0ZM235.2,222.8c-4.8-1.9-6.4-6-6.3-10.9v-4.7h0v-4.7c0-4.7,1.7-8.7,6.3-10.5,5.1-1.9,10.3-1.9,15,1.6,2.2,1.6,1.9,2.9,0,4.6-1.3,1.1-1.9.6-2.9-.3-2.6-2.6-5.7-3.3-9.1-1.8-3.5,1.5-4,4.6-4,7.9,0,2.4,0,4.7,0,7.1,0,3.2.6,6.1,3.9,7.5,3.2,1.3,6.4.5,8.6-1.6,2.2-2.1,3.1-.8,4.4.4,2,1.9.1,2.8-1,3.7-4.6,3.5-9.8,3.6-15,1.6h0ZM278,284.5c-5.1,5.8-11.9,6.3-18.9,5.9-11-.6-16.5-6.4-16.5-17.5,0-2.2,0-4.5,0-7.8.2-3.4-.5-7.9.6-12.4.9-3.5,2.7-6.2,5.6-8.3,7.3-5.2,21.4-4.4,27.7,1.7,1,1,3,2.1,1.4,3.7-1.4,1.3-3.3,2.9-5.4.6-4.2-4.5-9.6-4.5-15.1-3.7-4.6.7-7.6,4.3-8.1,9-.7,6.7-.7,13.4,0,20.1.5,4.8,3.4,8.1,8.1,9,6.1,1.1,11.9.8,16.3-4.4,2-2.3,3.1,0,4.5.9,2,1.2.4,2.3-.3,3.1h0ZM279.8,223.4c-1.8.4-2.2-1-2.2-2.4v-16.6c0-5.8-1.6-8.7-5-9-3.7-.3-8,4.3-8.2,9.2-.2,5.1-.2,10.3,0,15.4.1,2.7-1.1,3.5-3.3,3.6-2.6.2-2.5-1.7-2.5-3.5,0-11.3,0-22.7,0-34,0-2.7.5-5.5-1.2-8-1.1-1.7,1.1-2.4,1.9-3.4,1-1.2,1.9-.2,2.6.5,1.9,1.7,2.4,4,2.4,6.5,0,4.3,0,8.7,0,13.7,2.6-2.3,4.6-4,7.5-4.4,6.2-.8,10.6,2.2,11,8.4.4,7.2,0,14.5.2,21.7,0,2.7-2,2-3.3,2.3h0ZM295.9,289c-3.5-1.8-6.9-1.6-10.4.5,1.1-3.9,2.7-7.7-2.9-9.6,4.7.4,7.5-1.1,8-5.9,1.3,4,3.1,6.8,8.1,5.6-3.8,2.5-5.6,5.2-2.8,9.3h0ZM297.1,223c-1.1,1.4-2.1.4-2.9-.5-1.5-1.6-2.2-3.6-2.2-5.7,0-3.8,0-7.6,0-11.4h0c0-3.8,0-7.6,0-11.4,0-2,.9-2.4,2.6-2.4,1.7,0,3.1,0,3,2.4-.1,6.3,0,12.6,0,18.9,0,2.3-.4,4.6,1.2,6.8,1.3,1.7-.9,2.4-1.7,3.4h0ZM328.6,223.1c-1.8,0-2.6-.5-2.6-2.4,0-5.4,0-10.8,0-16.2,0-1.7,0-3.5-.4-5.1-1-4-5.5-5.2-8.8-2.5-2.6,2.2-4.2,5-4.2,8.6,0,5,0,10,0,15,0,2.1-.6,2.7-2.7,2.7-2.1,0-2.7-.8-2.7-2.8,0-6.4,0-12.9,0-19.4,0-1.6.3-3.4-.7-4.6-1.8-2.3-.5-3.7,1.2-4.8,2.2-1.3,2.8,1,3.9,2.2.5.5.6,1.3,1.1,2.4,2.8-4.5,6.4-6.1,11.2-5,4.5,1,7,3.4,7.2,8,.3,7.2,0,14.5.2,21.7,0,2.2-1.3,2.1-2.8,2.2h0ZM363.7,222.8c-1.2.6-2.6,1.3-3.4-.2-1.7-3.3-3.1-2-5.4-.5-3.9,2.6-8.3,2.8-12.4.4-3.8-2.3-4-6.2-3.4-10.2.6-3.8,3.3-5.6,6.6-6.6,2.6-.8,5.4-1,8.1-1.5,1.6-.3,3.7-.3,4-2.5.3-2.2-.6-4.1-2.5-5.5-2.6-1.8-7.1-1.6-9.9.9-1.9,1.7-3.1,1.3-4.5-.3-1.8-2,.5-2.9,1.5-3.6,4.9-3.3,10.2-3.2,15.5-1.1,4.8,2,5.4,6.4,5.5,10.9,0,1.9,0,3.7,0,6.1.7,3.2-1.3,7.3,1.6,10.9.9,1.1-.2,2.2-1.3,2.8h0Z"/>
    <path class="st3" d="M132.2,205.8c0-4.5,0-8,0-11.6,0-2-.5-2.8-2.7-2.8-1.9,0-2.9.3-2.9,2.6.1,7.9.1,15.8.1,23.7,0,2,.8,3.5,2.2,4.8.8.7,1.6,1.6,2.7.5.8-.9,2.8-1.8,2-3-3-4.9-.6-10.1-1.5-14.2h0Z"/>
    <path class="st3" d="M307.4,201c0,6.5,0,12.9,0,19.4,0,2,.5,2.8,2.7,2.8,2.1,0,2.8-.6,2.7-2.7-.1-5,0-10,0-15,0-3.6,1.5-6.4,4.2-8.6,3.3-2.7,7.7-1.4,8.8,2.5.4,1.6.4,3.4.4,5.1,0,5.4,0,10.8,0,16.2,0,1.9.8,2.5,2.6,2.4,1.5,0,2.9,0,2.8-2.2-.1-7.2,0-14.5-.2-21.7-.2-4.6-2.7-7-7.2-8-4.8-1.1-8.4.6-11.2,5-.5-1.1-.6-1.9-1.1-2.4-1-1.2-1.7-3.5-3.9-2.2-1.7,1-3,2.5-1.2,4.8,1,1.3.6,3,.7,4.6h0Z"/>
    <path class="st3" d="M129.3,185.3c2.2,0,3.2-1.5,3.4-3.7-.2-1.9-.9-3.6-3.2-3.7-2.5-.1-3.6,1.6-3.6,3.8,0,2,1.1,3.6,3.4,3.6h0Z"/>
    <path class="st3" d="M342.5,222.4c4,2.4,8.5,2.2,12.4-.4,2.3-1.5,3.7-2.8,5.4.5.8,1.5,2.2.8,3.4.2,1.2-.6,2.2-1.7,1.3-2.8-2.9-3.6-1-7.7-1.6-10.9,0-2.4,0-4.3,0-6.1,0-4.5-.6-8.9-5.5-10.9-5.3-2.1-10.6-2.2-15.5,1.1-1,.7-3.3,1.5-1.5,3.6,1.4,1.6,2.6,2,4.5.3,2.7-2.5,7.3-2.7,9.9-.9,1.9,1.3,2.8,3.2,2.5,5.5-.3,2.2-2.4,2.2-4,2.5-2.7.5-5.5.7-8.1,1.5-3.3,1-6,2.8-6.6,6.6-.6,4-.4,7.9,3.4,10.2h0Z"/>
    <path class="st3" d="M168.6,82.5c0-19.7,7.4-37.7,19.6-51.3-18.1,19.6-24.6,46.6-16.3,73.7,6.5,21.3,19.6,36.8,38.3,46-24.7-12.8-41.6-38.6-41.6-68.4h0Z"/>
    <path class="st3" d="M264.5,157.1c-5.4,1.4-11,2.2-16.7,2.3,5.7-.1,11.3-.9,16.7-2.3Z"/>
    <path class="st3" d="M278.4,281.4c-1.4-.9-2.5-3.2-4.5-.9-4.5,5.2-10.2,5.5-16.3,4.4-4.7-.9-7.7-4.2-8.1-9-.7-6.7-.6-13.4,0-20.1.5-4.7,3.5-8.3,8.1-9,5.4-.8,10.9-.8,15.1,3.7,2.1,2.3,4,.7,5.4-.6,1.7-1.6-.4-2.8-1.4-3.7-6.3-6.1-20.4-6.9-27.7-1.7-2.9,2.1-4.7,4.8-5.6,8.3-1.1,4.5-.4,8.9-.6,12.4,0,3.3,0,5.5,0,7.8,0,11.1,5.5,16.9,16.5,17.5,7,.4,13.8,0,18.9-5.9.8-.9,2.3-1.9.3-3.1h0Z"/>
    <path class="st3" d="M266,156.7c-.3,0-.7.2-1,.3.4,0,.7-.2,1-.3Z"/>
    <path class="st3" d="M214.6,12c9.4-4.1,19.9-6.5,30.9-6.5-10.7-.2-21,2-30.9,6.5Z"/>
    <path class="st3" d="M247,159.5c-.4,0-.8,0-1.1,0,.4,0,.8,0,1.1,0Z"/>
    <path class="st3" d="M161.7,192.1c-5-2.5-9.9-1.6-14.5,2.6,0-4.1,0-7.6,0-11.1,0-2.4,0-4.9-1.3-6.9-.7-1.1-1.6-3.3-3.6-2-1.4,1-3.6,2.2-1.4,4.6,1.1,1.2.8,3,.8,4.6,0,11.9,0,23.7,0,35.6,0,1.3-1.1,3.4,1.5,3.7,2,.2,4.2.4,4.1-2.8,8,6.5,16.8,4,20.2-5.2,1.2-3.3,1.1-6.7.9-10.1-.2-5.4-1.8-10.3-6.9-12.9h0Z"/>
    <path class="st3" d="M297.7,212.8c0-6.3,0-12.6,0-18.9,0-2.4-1.3-2.4-3-2.4-1.7,0-2.7.3-2.6,2.4.1,3.8,0,7.6,0,11.4h0c0,3.8,0,7.6,0,11.4,0,2.2.7,4.1,2.2,5.7.8.9,1.8,1.9,2.9.5.8-1,3-1.6,1.7-3.4-1.6-2.2-1.2-4.5-1.2-6.8h0Z"/>
    <path class="st3" d="M211.3,204.2c-1.2.2-2.3.4-3.5.6-8.5,1.4-12.3,5.8-10.7,12.4,1.5,6.1,6.5,8,14.7,5.7.5-.1,1.2,0,1.5-.3,2-2.5,3.7-1.3,5.4.3,1.1,1.1,2.2.7,3-.3.7-.8,2.3-1.3,1.3-2.8-2.5-3.6-1-7.7-1.4-11,0-2.3,0-4,0-5.7.1-4.6-.8-8.9-5.5-10.9-5.2-2.2-10.6-2.1-15.5,1-1.1.7-3,1.7-1.4,3.7,1.4,1.7,2.8,2,4.5.2,2.3-2.2,5.2-2.5,8.1-1.6,2.7.8,4.1,2.8,4.1,5.6,0,3-2.5,2.8-4.6,3.2h0Z"/>
    <path class="st3" d="M192.4,270.9h-.2c0,5.5,0,11.1,0,16.6,0,1.3,0,3.7,1.8,3,1.6-.6,4.9.8,4.7-3.1-.3-4.7.1-9.5-.1-14.2-.1-2.7.9-3.3,3.3-3.3,5.5.1,11.1,0,16.6,0,1.7,0,3.1,0,3.1-2.4,0-2.1-.6-3.1-2.9-3-4.2.1-8.4,0-12.7,0-5.1,0-7.6-2.6-7.4-7.8.2-6.8,2.8-9.5,9.6-9.7,4.7-.2,9.5-.1,14.2,0,1.7,0,2.3-.7,2.3-2.3,0-1.6,0-2.9-2.2-2.8-6.3.2-12.7,0-19,.3-6.8.5-10.8,4.7-11.1,11.8-.3,5.7,0,11.3,0,17h0Z"/>
    <path class="st3" d="M176.7,191.8c-1.2,1-3,2-1.2,4.1,1.1,1.3.8,3,.8,4.6,0,6.6,0,13.2,0,19.8,0,2.2.6,3,2.9,3,2.4,0,2.8-1.1,2.8-3.1-.1-4.2,0-8.4,0-12.6,0-3.3,1-6.2,2.9-8.9,1.5-2.1,3.7-3.3,6.2-2.3,2.4,1,3.2.1,3.7-2.1.6-2.5-.8-2.9-2.7-3.3-4.6-.9-7.3,1.9-9.9,5.5-.8-1.5-1.2-2.6-1.9-3.6-.8-1.1-1.9-2.5-3.5-1.1h0Z"/>
    <path class="st3" d="M235.2,222.8c5.1,2,10.3,1.9,15-1.6,1.1-.9,3-1.8,1-3.7-1.3-1.3-2.2-2.5-4.4-.4-2.2,2-5.4,2.9-8.6,1.6-3.4-1.4-3.9-4.4-3.9-7.5,0-2.4,0-4.7,0-7.1,0-3.3.5-6.4,4-7.9,3.4-1.4,6.5-.8,9.1,1.8.9.9,1.5,1.4,2.9.3,2-1.7,2.2-3,0-4.6-4.7-3.5-9.9-3.6-15-1.6-4.6,1.7-6.3,5.7-6.3,10.5,0,1.6,0,3.2,0,4.7h0v4.7c0,4.9,1.6,9,6.3,10.9h0Z"/>
    <path class="st3" d="M258.7,186.1c0,11.3,0,22.7,0,34,0,1.8-.1,3.6,2.5,3.5,2.2-.1,3.4-.9,3.3-3.6-.3-5.1-.2-10.3,0-15.4.2-4.9,4.4-9.4,8.2-9.2,3.4.3,5,3.1,5,9,0,5.5,0,11.1,0,16.6,0,1.5.4,2.8,2.2,2.4,1.3-.3,3.4.4,3.3-2.3-.1-7.2.2-14.5-.2-21.7-.3-6.2-4.8-9.2-11-8.4-2.9.4-4.9,2.1-7.5,4.4,0-5,0-9.4,0-13.7,0-2.4-.5-4.7-2.4-6.5-.8-.7-1.6-1.7-2.6-.5-.8,1-3,1.7-1.9,3.4,1.7,2.6,1.2,5.3,1.2,8h0Z"/>
    <path class="st3" d="M285.5,289.5c3.5-2.2,7-2.4,10.4-.5-2.8-4.1-1-6.8,2.8-9.3-5.1,1.1-6.8-1.7-8.1-5.6-.5,4.8-3.2,6.4-8,5.9,5.6,1.9,4,5.7,2.9,9.6h0Z"/>
    <path class="st3" d="M223.8,289.2c3.2-2.9,6.2-3.9,9.8-.2-2.5-4.5-.5-7.1,3.1-9.5-5.3,1.6-6.9-1.6-8.3-5.7,0,5.4-3.3,6.1-7.6,6.2,4.6,2,4.8,5.2,3,9.2h0Z"/>
    <path class="st3" d="M294.4,185.7c2.6.2,3.5-1.9,3.7-4.1.2-2.1-1-3.6-3.2-3.7-2.2,0-3.3,1.3-3.4,3.6.4,1.6.4,4,2.9,4.1h0Z"/>
    <path class="st4" d="M421.9,105.6c0-2.7-.6-4.1-3.6-4.9-29.6-7.9-59.8-12.8-90.1-16.6-2.9-.4-4-1.5-4-4.1,0-1.1-.1-2.1-.2-3.2-1.5-20.7-9.7-38.2-25.1-52.1C278.2,6.1,254-.3,227,6.2c-26.5,6.3-44.6,22.7-54.9,47.8-3.3,8.1-5,16.7-5.2,25.4,0,2,0,4.1-3.1,4.5-14.1,1.8-28.2,3.6-42.3,6.1-16.2,3-32.3,6.3-48.3,10.4-3.1.8-4,2.2-4,5.4.1,57.2,0,114.3,0,171.5s1.1,22.4,3.4,33.4c6.8,32.1,21.3,60.5,41.9,86,4.2,5.2,4.1,5.1,9.8,1.6,2.2-1.3,2.1-2.3.6-4.1-6.1-7.4-11.9-15.1-17-23.2-11.7-18.5-20.5-38.2-25.3-59.7-3.3-14.9-4-30-4-45.2,0-50.6,0-101.1,0-151.7,0-4.3,1.3-6,5.3-6.9,26.6-6.2,53.5-10.9,80.6-14,1-.1,2.4-.6,2.7.8.7,0,1.4,0,2.1,0-3.9-23.4,3.1-46,18.8-63.1,7.3-8.1,16.3-14.7,26.4-19.2,9.9-4.5,20.2-6.6,30.9-6.5h0c40.7,0,74.1,31.6,76.8,71.7,0,.3,0,.7.1,1,.5,5.2,0,10.5,0,16.1,1.6-1.3,3.3-1.2,5.1-.9,1.9.3,3.9.8,5.8,1,24.2,2.9,48.2,7.3,72,12.8,6.7,1.5,6.7,1.4,6.7,8.1,0,44.4,0,88.7,0,133.1,0,1.4-.6,3.2.6,4.2,2.7,2.3,5.7,4.4,8.9,6.8,0-1.8.2-2.9.2-4.1,0-33.8,0-67.6,0-101.4s0-32.2,0-48.3h0Z"/>
    <g>
      <path class="st1" d="M264.9,157c-.1,0-.3,0-.4.1.1,0,.3,0,.4-.1Z"/>
      <path class="st0" d="M264.9,157c0,0-.1,0-.2,0,0,0,.1,0,.2,0M264.7,157.1c0,0-.1,0-.2,0,0,0,.1,0,.2,0"/>
    </g>
    <g>
      <path class="st1" d="M247.8,159.4c-.2,0-.5,0-.7,0,.2,0,.5,0,.7,0Z"/>
      <path class="st0" d="M247.8,159.4h-.4.4M247.4,159.4h-.4.4M247.7,157.1h-.7v4.8h.8v-4.8h-.1Z"/>
    </g>
  </g>
  <ellipse class="st5" cx="255.6" cy="69.6" rx="1.7" ry="3.3"/>
  <path class="st0" d="M245.8,5.5c6.2,0,12.6,1,19,2.6,15.5,3.9,28.4,11.9,38.9,24.1,11.3,13,17,28.2,18.9,45,.1,1.8.2,3.5.2,5.3,0,16.5-5.2,31.7-14,44.3-.4.3-.7.7-1.1,1.3-10.9,14.4-25.4,24.2-41.4,28.7-.3,0-.7.2-1,.3-.1,0-.3,0-.4.1-5.4,1.4-11,2.2-16.7,2.3-.2,0-.5,0-.7,0-.4,0-.8,0-1.1,0-6.5,0-13.2-.9-19.8-2.7-5.7-1.5-11-3.5-15.9-5.9-24.7-12.8-41.6-38.6-41.6-68.4s7.4-37.7,19.6-51.3c4.9-5.3,10.6-10,17-14.1,3.1-1.9,6.2-3.6,9.4-5.1,9.4-4.1,19.9-6.5,30.9-6.5M245.9,3.2h0c-11.1,0-21.8,2.2-31.8,6.7-3.3,1.5-6.6,3.3-9.7,5.2-6.5,4.1-12.4,9-17.5,14.5-13.1,14.6-20.2,33.4-20.2,52.9,0,29.8,16.4,56.8,42.9,70.5h0c5.1,2.5,10.5,4.5,16.3,6.1,6.7,1.8,13.6,2.7,20.4,2.8.4,0,.8,0,1.2,0,.2,0,.5,0,.7,0,5.9-.2,11.7-1,17.3-2.4h.2c0,0,.2,0,.3-.1.3,0,.6-.2.9-.3h.2c16.8-4.7,31.6-15,42.7-29.6.4-.5.6-.7.7-.8l.3-.2.2-.3c9.4-13.4,14.4-29.2,14.4-45.6s0-3.6-.2-5.5h0c-2.1-18.6-8.5-33.8-19.4-46.4-10.8-12.5-24.4-20.8-40.1-24.8-6.6-1.7-13.2-2.6-19.6-2.7h0,0Z"/>
</svg>