<?xml version="1.0" encoding="utf-8"?>
<!-- Generator: Adobe Illustrator 26.4.1, SVG Export Plug-In . SVG Version: 6.00 Build 0)  -->
<svg version="1.1" id="Camada_1" xmlns="http://www.w3.org/2000/svg" xmlns:xlink="http://www.w3.org/1999/xlink" x="0px" y="0px"
	 viewBox="0 0 400 400" style="enable-background:new 0 0 400 400;" xml:space="preserve">
<style type="text/css">
	.st0{display:none;}
	.st1{display:inline;fill:#010101;}
	.st2{display:inline;fill:#F9F8F8;}
	.st3{fill:#F9F8F8;}
	.st4{fill:#010101;}
</style>
<g>
	<g class="st0">
		<path class="st1" d="M197.4-110.5h2.3c3.3,9.7,6.8,19.4,9.8,29.2l19.5-0.1c5,0,10.1,0.3,15-0.4c-3.3,3.2-7.4,5.7-11,8.4
			c-5.7,4.2-11.2,8.6-17,12.6l6.6,19.9c1.3,4.1,2.4,8.2,4,12.2c-9-6.6-18.5-12.7-27.3-19.6l-18.8,13.2c-3.2,2.3-6.8,4.4-9.7,7.1
			c1.7-4.2,3-8.6,4.3-12.9c2-6.5,4.1-13,6.4-19.4c-9.4-6.9-18.3-14.4-27.8-21.1c11.3,0.5,22.7,0.1,34,0.1c0.8-3.4,2.3-6.9,3.4-10.2
			C193.1-97.9,195-104.3,197.4-110.5z"/>
		<path class="st2" d="M198.4-105.3c0.2,0.2,0.4,0.3,0.5,0.5c0.4,0.5,8.2,23.7,8.8,25.8c9.6,0.3,19.3-0.1,28.9,0
			c-8.1,5.4-15.4,12.1-23.6,17.4c3.6,8.4,5.7,17.6,8.6,26.2c-7.3-5.1-14.6-10.5-22.1-15.2c-0.2-0.2-0.5-0.1-0.8-0.2
			c-3.2,1.9-6.3,4.2-9.4,6.3c-4.5,3.1-9.1,6-13.3,9.3c1.9-5.5,3.5-11.2,5.1-16.8c0.9-3.1,1.7-6.3,2.9-9.3
			c-7.4-6-15.1-11.7-22.5-17.6c9.3,0.2,18.7-0.1,28,0c0.7-3.4,2-6.7,3.1-9.9C194.7-94.3,196.6-99.8,198.4-105.3z"/>
		<path class="st1" d="M198.6-99.1c0.1,0.1,0.3,0.1,0.4,0.2c0.2,0.2,6.8,19.9,7.5,21.9l25.7-0.2c-3.5,1.6-6.5,4.1-9.6,6.3
			c-3.8,2.7-7.7,5.4-11.6,8.1c2.8,7.6,4.5,15.6,7.4,23.1c-6.1-4.6-12.2-9.1-18.3-13.5l-0.8-0.6c-1.1,0.1-18.1,12.7-20,14.4
			c2.1-7.7,5.4-15.2,7.2-23c-6.3-4.7-12.3-9.9-18.8-14.3c7.7,0.2,15.5-0.4,23.1,0.2C193.1-84.1,195.8-91.7,198.6-99.1z"/>
	</g>
	<g>
		<path class="st3" d="M188.5,7.6C248,6.3,307.3,14.9,364,32.9c3.3,32.9,1.2,70-4.1,102.7c-12.5,75.7-50,148.6-101,205.6
			c-15.9,17.8-33.2,34.3-52.6,48.2c-2.1,1.5-4.1,2.9-6.3,4.3c-33.6-21.9-63.9-55.7-87.4-87.9C64.6,240.3,37.4,162,34.6,81
			c-0.4-10.8-0.2-21.4,0.3-32.2c0.2-5.2,0.3-10.6,1.1-15.8c37.1-12,75.5-19.8,114.4-23.1C163,8.7,175.8,7.9,188.5,7.6z"/>
		<path class="st4" d="M195.9,17.6c7.6-0.3,15.2,0.1,22.8,0.3c31.6,1.1,63.1,5,94.1,11.6c9.6,2.1,19.1,4.5,28.5,7.1
			c3.8,1,7.8,2.8,11.7,3.3c2.2,32.5,0.4,65.1-5.4,97.1c-13,74.6-51.2,145.9-102.4,201.3c-13.3,14.4-28,28.8-44.1,40.1l-2.2,1.4
			c-17.8-12-35.8-30-50.2-45.9C88.6,268,52.2,184,45.1,95.1c-1.3-18.3-1-36.6-0.1-54.9C81.8,29,119.7,21.9,158.1,19.1
			C170.7,18.2,183.3,17.9,195.9,17.6z"/>
		<path class="st3" d="M218.1,24.7c12.6,0.1,25.2,1.9,37.8,2.6l0,27.3c3.2,1.4,6.4,2.8,9.5,4.6c2.7,1.5,5.1,3.5,7.7,5.2
			c7.6,5.2,15,10.2,20.6,17.6c-0.3-16.4,0-32.9,0-49.3c7.3,1.4,14.6,2.9,21.8,4.5c5.3,1.2,10.7,2.9,16.1,3.7l0,96.9l0,22.3
			c0,5.1,0.6,11.1-0.6,16.1c-1.1,4.5-2.8,8.9-4.3,13.2c-5.7,16.7-12.5,32.9-20.4,48.7c-4,7.9-8.8,15.6-12.5,23.6
			c-0.6-18.1-0.1-36.5-0.1-54.6c0-7.6,0.5-15.7-0.2-23.3c-0.8,4.3-1.1,8.7-2.2,13c-5.4,21.2-18,38.8-35.2,52
			c-0.1,2.8-0.2,5.5-0.3,8.3c0.4-0.8,0.9-1.7,1.5-2.5c2-2.7,5.6-5.3,9-5.8c1.8-0.3,3.6,0.1,5,1.2c2.4,1.8,3,4.3,3.4,7.1
			c1,0,2.1-0.1,3,0.3c2.3,0.9,4.2,2.8,5.2,5c1.1,2.3,1.4,4.9,0.4,7.3c-1.6,4.1-5.3,6.3-9.1,7.9l-5.4-2.1c0.8,1.6,1.7,3.2,2.7,4.8
			c-2.3,2-5.1,3.4-7.5,5.4c-1.5-1.3-2.9-2.6-4.6-3.7l-2.6,1.4c0.1,1.8,0.6,3.9,0.3,5.7c-0.3,1.7-1.1,3.1-1.2,4.8
			c-0.3,7.2,0.2,14.5-0.1,21.7c-2.6,3.5-5.5,6.8-8.4,10.1c-5.8,6.6-11.8,13.1-18.1,19.3c-3.7,3.7-7.5,7.2-11.2,10.9
			c-0.3-11.3-0.1-22.6-0.1-34l0-18.9c-2.8,0.8-5.7,1.3-8.5,0.3c-2.8-0.9-4.6-2.9-5.9-5.5c-0.2,1.8-0.5,3.5-0.8,5.3
			c-2.9,1.8-6.2,2.7-9.6,2.6c-4.5-0.1-8.1-2.2-11.2-5.4c-0.6,1.7-1.6,3.6-1.8,5.5c-0.8,5.7-0.3,13.3-0.3,19.2
			c0,10.3-0.3,20.7,0.1,31c-3.3-3.8-7.5-7.2-11.2-10.7c-9.1-9-19-19.3-26.7-29.6c-0.1-5.2,0-10.4,0-15.7c0-2.4,0.2-5.1-0.2-7.5
			c-0.3-1.8-3.6-3.1-5.1-4.1c0.1-1.3,0.3-2.6,0.4-3.9c-1,0.4-1.9,0.7-3,0.8c-7,0.8-13.5-4.5-18.6-8.5c2.1-3.3,4.1-6.7,6.1-10
			c2.3-3.7,4.7-7.4,6.7-11.3c4.8,0.7,9.4,2,13.6,4.4c-0.1-3.5,0-7.1-0.1-10.6c-2.5-2.8-6.6-5.4-9.4-8.1
			c-10.4-10.1-19-22.9-23.6-36.7c-1.1-3.3-2.1-6.6-2.9-10c-0.6-2.4-1-7.9-2-9.7c-0.3,1,0.2,10.2,0.2,12l0,41.2
			c0,7.8,0.3,15.8-0.2,23.6c-3.2-6.2-6.8-12.2-10-18.5c-8.4-16.1-15.6-32.8-21.7-50c-2-5.6-4.3-11.3-5.5-17.2
			c-1.1-5.1-0.6-10.9-0.6-16.1l0-24.5l0-94.5c6.6-1.3,13.2-3,19.8-4.5c6-1.3,12.1-2.3,18.1-3.7c0.4,16.8,0,33.6,0.1,50.4
			c4.2-5,9.4-10.7,14.9-14.2c4-2.5,7.9-3.5,12.5-2.5c-0.9-1.6-1.8-3.1-2.6-4.8c4.1-2.4,8.5-4.8,12.9-6.6l0-27.7
			c11.8-0.8,23.6-2,35.5-2.5l2.2,0l0,18.5c7.5-1.9,15.8-1.5,23.5-1.7c3.8-0.1,8-0.5,11.7,0.1c1,0.2,1.9,0.6,2.7,1.1
			C218.1,36.7,218,30.7,218.1,24.7z"/>
	</g>
	<g>
		<g>
			<path class="st4" d="M194.7,82.3c50.2-2.4,92.8,36.3,95.2,86.4c2.4,50.1-36.3,92.7-86.5,95.1c-50.1,2.4-92.7-36.3-95.1-86.4
				C105.9,127.3,144.6,84.8,194.7,82.3z"/>
			<path class="st3" d="M194.1,92.9c44.3-3.5,83,29.5,86.5,73.8c3.5,44.3-29.6,83-73.8,86.5c-44.3,3.5-83-29.6-86.5-73.8
				C116.7,135.1,149.8,96.4,194.1,92.9z"/>
			<path class="st4" d="M197.5,98.9c40.9-1.6,75.4,30.2,77.1,71.1c1.7,40.9-30.1,75.4-71,77.1c-41,1.7-75.5-30.1-77.2-71.1
				S156.5,100.6,197.5,98.9z"/>
			<path class="st4" d="M256,86.3c1.1,0.7,2.1,1.6,3.2,2.4c2.3,1.6,4.6,3.1,6.8,4.8c1.7,1.4,3.3,3.1,4.9,4.7
				c2.2,2.1,4.5,4.2,6.5,6.5c4.3,5,8.1,10.6,12,15.9c1.3-1.3,2.9-2.5,4.3-3.8l0,41.8c0,1.2-0.2,2.2-0.5,3.3c-0.3-3.4-0.7-6.7-1.4-10
				c-3.8-17.8-13.7-34.5-26.8-47.1c-2.8-2.6-5.8-5.4-9-7.5C255.8,93.8,255.8,90,256,86.3z"/>
			<path class="st4" d="M141,84.2l0.6,0.5c1.5,3.1,0.7,8.7,0.7,12.2c-1.5,1.7-3.5,3.1-5.2,4.5c-2.4,2-4.7,4.2-6.9,6.4
				c-11.2,11.7-19.3,26.1-23.4,41.9c-1,3.9-1.3,7.9-2.4,11.7l-0.2-0.1l-0.1-0.9c0.5-14.3,0.4-28.7,0.2-43c1.8,1.2,3.5,2.5,5.3,3.8
				c3.1-4.5,5.8-9.3,9.4-13.4c2.9-3.4,5.9-7,9.1-10.1C133.4,92.4,137.6,92.1,141,84.2z"/>
			<path class="st4" d="M180.1,265.9c12.3,2.5,25.7,2.6,38,0.1c-0.1,2.9,0,5.9,0,8.8c-2.1-0.5-4-0.9-6.2-0.8
				c-3.6,0.8-5.6,2.4-7.8,5.2c-2.7-1.9-5.7-3.5-9.1-4c-5.2-0.8-9.8,1.2-13.9,4.3C179.6,275.1,180,270.4,180.1,265.9z"/>
			<path class="st4" d="M195.2,69.8c4.6-0.1,9.5-0.4,14.1,0.1c2.9,0.3,5.8,1.1,8.6,1.7c0.1,2.9,0,5.9,0,8.8
				c-5-1.3-10.1-1.7-15.2-1.9c-7.6-0.3-15.3,0.3-22.7,1.9l0-9C185.2,70.6,190,69.9,195.2,69.8z"/>
		</g>
		<path class="st3" d="M207.4,108.3c3.5,1.7,7,3.4,9.4,6.6c-0.4,1.1-0.7,2.2-1.1,3.2c1.4-0.8,2.8-1.6,4.3-2.3
			c-0.7,0.9-2.5,2.8-2.6,3.9c2.2,1.9,7,1.4,9.1,3.1c0.9,0.7,0.2,2.2,1.1,2.7c1.7,1,4.2,0.5,4.2,3.7c0,0.4-0.1,0.5-0.4,0.9
			c-0.9,0.3-1.9,0.4-2.3,1.2c0.8,2.2,3.8,4.2,5.8,5.1c3.7,1.7,5.7,0,7.3,4.3c0.6,1.6,0.9,2.7,0.1,4.4c-0.6,1.3-1.1,2.1-1.3,3.6
			c-0.3-0.5-0.4-0.7-0.3-1.3c0.3-1.7,1.7-3.4,0.8-5.2l-0.3,0c-1,1.5-1.7,3.2-2.6,4.7c-2.1-0.8-4.2-1.4-6-2.9c-0.3,1-0.6,2.1-1,3.1
			c1.4,0,3.1-0.1,4.4,0.3l0.2,0.3c-1.3,1-4.3,0.8-5,1.8l-0.4,0.1l-0.4-0.6c-0.1-0.1-0.1-0.1-0.2-0.2c-1-0.6-2.1-0.6-3.1-1.4
			c-4.2-3.7-3.8-7.6-10.3-9.7c-2,0.6-3.7,1.7-5.7,2.4c-1.2-0.5-2.3-1-3.4-1.7c1.6,4.3,2.8,9.4,7.4,11.5c3.3,1.5,7.1,1.9,10.7,1.5
			c-1.5,1.3-2.9,1.8-4.5,2.7c0.3,1,2.4,2.2,3.3,2.8c9.2,6.9,14,14.3,12.9,26.2c-0.4,3.9-1.1,8.3-2.8,11.9c-1.6,3.3-4,6.3-5.9,9.3
			c0.6-2.3,0.9-4.7,1-7.1c-5.2,6.1-7.4,9.8-8.9,17.9c-1.4-3.3-2-6.3-2.4-9.9c-4.1,3.2-9.5,5.8-14.6,7c1.6-1.4,3.2-2.7,4.9-4
			c-2.9,0.6-5.8,0.8-8.7,1c-6.6,0.5-10.4,4.8-14.6,9.3c2.4-5.4,4.8-10.6,7.5-15.8c-2.3,2.6-4.1,4.7-7.8,4.9
			c-2.6,0.1-5.4-0.2-7.9-0.5c3.3-1.3,6.3-2.9,7.8-6.2c0.9-2.2,1-4.6,0.1-6.8c-0.9-2.3-2.8-4.2-5.1-5.2c-2.3-1-4.9-1-7.3-0.1
			c-4.2,1.7-6.9,5.9-8.6,10c-1.9,4.6-2.9,9.4-3,14.3c-0.1,2.6,0.1,5.2-0.2,7.8c-1.3-8.6-1.7-13.9-0.7-22.6c-1.7,3.8-3.1,7.6-4,11.6
			c-0.6,2.6-0.9,5.3-1.7,7.8c-0.7-13,2.8-26.5,11.7-36.4c4.4-5,10.9-9.8,17.7-10.2c1.2-0.1,3.2-0.2,4.2,0.5l-0.1,0.4l-0.2,0.1
			c-2.4,1.1-4.9,2.4-6.8,4.3c4.1-0.9,7.7-0.9,11.7,0.9c-2.1,0.2-4,0.4-6,1.2c2.1,1.3,4.4,2.6,6.1,4.4c2.7-3.1,5.5-4.5,9.3-5.8
			c-2.4,2.4-4.6,5.1-4.6,8.7c0,2,0.8,4,2.2,5.4c1.6,1.5,3.7,2.1,5.8,2c2.1-0.1,3.8-0.8,5.6-1.7c-1.5-0.6-3-1.1-4.4-1.8
			c1.7,0.2,5.5,1.1,6.9,0c0.7-0.5,1.9-2.1,2.1-3c0-0.1,0-0.2,0-0.3l-0.3-0.2c-0.7,0.2-1.7,0.8-2.4,0.5c0.3-1.5,2-2.4,2.9-3.5
			c2.2-3,1-8.6-1-11.4c-2.2-3.2-6.7-5.4-10.1-7.2c1,1.8,2.1,3.4,3.2,5.1c-5.6-2.3-6.9-4.3-10.8-8.7c-1.4-1.5-2.9-3-4.2-4.6
			c-1.5,1.8-3.3,3.1-5.5,3.9c0.7-1.4,1.5-2.7,2-4.2c-0.6-3.9-2.5-7.1-3.4-10.9c-0.5-2,0-4.7-0.9-6.5c-0.3-0.6-0.5-0.9-0.4-1.5
			c0.4-0.2,0.8-0.2,1.3-0.2c0.6-0.7,0.8-2,1.1-3c1.2-3.9,3.4-7.2,7.5-8.4l1.3-0.4l0.1-0.3c-0.7-0.4-2-0.1-2.8,0.2
			c-3.4,1-5.5,4.1-7.5,6.8c1.5-8.3,7.1-8.2,8.4-11.8c-0.9-0.6-2.1,0.2-3-0.4c0.5-0.9,1.5-1.4,2.5-1.7c1-0.3,2.2-0.3,3.2-0.4
			c-3.1-4-6-5.8-10.7-7.7c4.7-1.3,9.1-1.4,13.4,1.2c2.2,1.2,3.7,3.1,5.4,4.9c1,0.1,2.8,0.5,3.7,0.1l0.1-0.2c0.2-0.7,0.3-1.1,0.7-1.7
			c0.7,0.3,1,0.8,1.7,0.6c0.3-0.5,0.3-0.8,0.1-1.3C211,111.7,208.9,109.8,207.4,108.3z"/>
		<path class="st4" d="M224,138.2c1.8,0.1,4.5,2.2,5.7,3.5c1.1,1.3,0.2,2.7,0.1,4.3l0,0.3c-0.4,0-0.5,0-0.8-0.3
			C227.2,144.5,224.2,140.6,224,138.2z"/>
		<path class="st4" d="M220.1,124.9c0.2,0,0.3,0,0.5,0.1c1.7,0.4,4,2.2,4.9,3.7c0.1,0.2,0.1,0.3,0,0.6l-0.5,0.1
			c-1.5-0.3-3.3-0.7-4.6-1.3c-0.8-0.3-1.2-0.6-1.5-1.4C219,125.8,219.6,125.4,220.1,124.9z"/>
	</g>
	<g>
		<path class="st4" d="M224.3,287.8c-0.5-2.8-1.8-5.5-4.2-7.1c-2.1-1.4-4.3-1.6-6.7-1.5c-2.8,0.4-5.1,1.2-6.8,3.5
			c-1.7,2.3-2.3,5.1-1.8,7.9c0.4,2.9,1.7,5.8,4.1,7.5c2,1.4,4.2,1.7,6.7,1.6c2.9-0.5,5.4-1.4,7.2-3.8
			C224.4,293.6,224.8,290.6,224.3,287.8z M219.5,293c-0.9,2-2.3,2.8-4.3,3.5c-1.1-0.2-2.1-0.4-3.1-1c-1.6-1.1-2.6-3-3-4.8
			c-0.4-1.9-0.3-4,0.8-5.7c1-1.5,2.3-2.1,4-2.5c0.7,0,1.5,0.1,2.2,0.4c1.6,0.6,2.8,2.1,3.4,3.7C220.3,288.6,220.4,291,219.5,293z"/>
		<path class="st4" d="M143.1,270.4c-0.2-2.2-1.4-3.7-3-5.1c-2.5-2-5.5-3.5-8.1-5.5c-3.5,5.9-7.2,11.6-10.9,17.3
			c3.8,2.1,7.3,5.1,11.6,5.9c3-0.3,5.2-1.8,7.1-4.1C141.7,276.7,143.4,273.5,143.1,270.4z M138.3,273.2c-1,2.7-3.2,5.1-5.8,6.4
			c-2.2-0.8-4-2-5.9-3.3c2.4-3.7,4.6-7.4,7-11c1.5,0.6,3.9,2.4,4.6,3.9C139,270.4,138.8,271.8,138.3,273.2z"/>
		<path class="st4" d="M160.2,275.6c-3.1-3-8.5-3.9-12.3-5.9c-2.2,6.3-5,12.6-7.6,18.7c1.4,0.5,2.6,1,3.8,1.8
			c1.2-2.7,2.3-5.5,3.6-8.2c3.8,2.8,3.8,6,4.7,10.4c0.2,0.6,0.1,0.9,0.7,1.2c1.3,0.7,2.9,1.1,4.2,1.9c-1-3.7-1.2-7.3-2.7-10.9
			c1.8,0.1,3.2,0.3,4.7-0.9c1.3-1.1,2.4-2.9,2.5-4.6C161.9,277.8,161.2,276.5,160.2,275.6z M155.5,281.7c-2.3-0.4-4.6-1.6-6.9-2.2
			c0.6-1.7,1.3-3.4,1.9-5.1c1.8,1.2,4.2,1.5,5.8,2.9c0.5,0.4,0.9,1,0.9,1.7C157.3,280.1,156.3,281,155.5,281.7z"/>
		<path class="st4" d="M238.8,272l0.4,0.2c1.1,2,1.7,4.6,2.5,6.8c1.4,4.1,3.1,8.1,4.3,12.3c-1.3,0.1-2.4,0.5-3.7,0.7
			c-2.6-0.7-9.5-7-12-9.1c1.7,3.9,2.6,8.2,4.4,12.1c-1.3,0.5-2.5,1-3.8,1.6c-2.2-6.4-4.5-12.8-6.9-19.2c1.3-0.4,2.5-0.9,3.8-1.4
			c4.2,3.1,8.3,6.5,12.2,10c-1.6-4.2-3.1-8.5-4.6-12.7L238.8,272z"/>
		<path class="st4" d="M191.7,280.5c2,0,3.9,0,5.7,0.9c2.4,1.1,3.4,3,4.3,5.4c-1.4,0.2-2.7,0.4-4,0.7c-0.9-1.4-1.9-2.6-3.5-3.2
			c-1.3-0.4-2.7-0.4-3.9,0.3c-1.4,0.8-2.4,2.2-2.8,3.7c-0.6,2.1-0.5,4.5,0.5,6.4c1.1,2,2.6,2.6,4.7,3.2c1.2-0.3,2.6-0.6,3.7-1.2
			c0.6-0.3,1.4-1.1,1.5-1.8c0.1-0.4-0.1-0.5-0.3-0.8c-1.3-0.7-3.1-0.7-4.5-0.8c-0.4-0.6-0.3-1.8-0.3-2.5l0.1-0.3
			c1.1-0.8,7-0.2,8.8-0.3l-0.2,8.3c-1.8,1.3-4,2.2-6.1,2.5c-2.9,0.5-5.9,0.1-8.4-1.6c-2.2-1.6-3.5-4-4-6.7c-0.5-3,0.1-6.2,1.9-8.6
			C186.6,281.8,188.9,280.9,191.7,280.5z"/>
		<path class="st4" d="M250,265.8l-3.5,2c0.5,4.1,1.3,8.3,2.1,12.4c0.5,3,0.9,6.1,1.6,9.1c1.3-0.8,2.5-1.6,3.8-2.4
			c-0.3-1.6-0.7-3.2-1-4.8l3.4-2c1.1-0.7,2.3-1.3,3.3-2.1l4.1,3.1c1.2-1,2.6-1.7,3.9-2.5C264.9,277,251.3,265.8,250,265.8z
			 M255.4,276.6l-3.1,2c-0.5-2.5-1-5-1.2-7.6c0,0,0.1,0,0.1,0.1c1.3,1,4.8,3.3,5.1,4.9L255.4,276.6z"/>
		<path class="st4" d="M175.3,278.7c-1.4-0.3-2.8-0.4-4.1-1c-4.4,5.8-7.9,12.4-12.2,18.3c1.4,0.2,2.9,0.5,4.3,0.9
			c1.1-1.4,2.1-2.9,3-4.5c1,0.4,2,0.7,3.1,0.9c1.5,0.3,3.1,0.7,4.6,1c0.1,1.6,0.2,3.2,0.5,4.8c1.5,0.2,2.9,0.6,4.4,1
			C178.2,293,176.6,285.8,175.3,278.7z M169.5,290c-0.6-0.1-0.8-0.1-1.2-0.5c1-2.2,2.6-4.3,3.9-6.3c0.7,1,0.9,6.2,1,7.7
			C172,290.5,170.7,290.2,169.5,290z"/>
		<path class="st4" d="M266.6,253.6c2.3-0.2,3.8,0.6,5.8,1.5c-0.7,0.9-1.7,2.5-2.9,2.8c-0.6-0.2-1.3-0.5-1.9-0.5
			c-1.1,0-2.2,0.7-3,1.5c-0.8,0.8-1.4,1.6-1.4,2.7c0.3,0.7,0.4,0.7,1,1.1c2.3,0.3,5.3-2.3,7.5-3.1c1.5-0.5,3-0.7,4.5,0
			c1.6,0.8,2.9,1.9,3.5,3.6c0.5,1.7,0.2,3.6-0.6,5.1c-1.5,2.8-4.3,4.7-7.2,5.6c-2.6,0.1-4-0.7-6.1-2c0.9-1.1,1.8-2.2,2.7-3.3
			c0.5,0.3,1.1,0.7,1.7,0.9c1,0.4,2,0.2,3-0.2c1.2-0.5,2.2-1.4,2.6-2.6c0.3-0.8,0.2-1.6-0.2-2.3c-1.6-2.9-8.5,3.6-12.7,2.1
			c-1.3-0.5-2.4-1.7-3-2.9c-0.6-1.3-0.5-2.8,0-4.1C261,256.7,263.7,254.8,266.6,253.6z"/>
	</g>
	<g>
		<path class="st4" d="M230.2,52c-2.5-3.4-7.2-4.5-11.2-5c-1.4-0.2-2.8-0.3-4.3-0.4c-1.5,6.4-2.7,12.9-3.7,19.4
			c5.2,1.3,10.8,2.9,15.9,0.3c2.7-2,4.2-4.5,4.7-7.9C232,56.2,231.6,53.9,230.2,52z M226.5,57.8c-0.2,2.3-1.5,4.1-3.2,5.5
			c-2.3,1.2-4.4,0.8-6.8,0.4c0.6-4.4,1.5-9,2.6-13.3c2.4,0.5,4.5,0.9,6.1,2.8C226.3,54.5,226.7,56.1,226.5,57.8z"/>
		<path class="st4" d="M134,72c-1.9-1.6-3.9-2.3-6.3-2.2c-5.2,0.7-9,4.5-12.9,7.8c3.8,5,7.5,10.2,11.5,15.1l0.4,0.6
			c1.5-0.1,7-4.9,8.1-6.1c1.9-2.1,3-4.6,2.9-7.5C137.6,76.7,136.2,73.9,134,72z M131.3,85.7c-0.6,0.7-1.7,1.8-2.7,1.9
			c-2.5-3.5-5.2-6.9-7.9-10.3c1.7-1.5,3.2-2.4,5.3-3.2c1.6,0,2.9,0.4,4.2,1.4c1.5,1.2,2.5,3.1,2.7,5
			C133.1,82.3,132.5,84.3,131.3,85.7z"/>
		<path class="st4" d="M265.3,63.7c1.6,0.6,3.3,2.1,4.7,3c-0.4,5.4-0.7,10.7-1.7,16.1c2.4-4,5.5-7.8,7.6-11.9c1.2,1.1,2.6,2,3.9,2.9
			c-1.7,2.4-10.6,15.8-11.8,16.5c-1.3-1.1-2.6-2.1-4-3c0.5-5.6,0.9-11.3,1.8-16.9c-2.6,4.3-5.6,8.3-8.3,12.5c-1.3-1-2.6-2-4-2.9
			C257.2,76.3,262.2,68.2,265.3,63.7z"/>
		<path class="st4" d="M203.6,45.5c1.3-0.1,2.7,0,4,0l0.3,20.1c-1.7,0-3.4,0.1-5.1,0.2c-2.9-4.9-6-9.5-8.5-14.6
			c0.5,4.8,0.4,9.8,0.5,14.7c-1.4,0.3-3.2,0.1-4.6,0.1c0-6.7-0.1-13.4-0.1-20.2l5.5,0c3,4.3,5.6,8.9,7.8,13.7c0-0.4-0.1-0.9-0.1-1.3
			C203.2,55.9,202.4,46.8,203.6,45.5z"/>
		<path class="st4" d="M109.5,82.1c1,0.3,13.3,11.7,15.3,13.3l-3.5,4c-5.3-1.6-10.9-2.2-16.2-3.9c3.6,3.3,7.4,6.5,11,9.8l-2.2,2.5
			l-0.6,0.6c-0.2,0-0.3,0.1-0.5,0c-0.8-0.4-2-1.8-2.8-2.5c-3.8-3.4-7.8-7.6-12-10.4c1.2-1.6,2.5-3,3.9-4.5
			c5.1,1.1,10.3,1.8,15.1,3.6c-3.4-3.1-6.9-6.1-10.4-9.1C107.7,84.5,108.6,83.3,109.5,82.1z"/>
		<path class="st4" d="M168.3,56.2c-0.3-1.4-1.1-2.6-2.3-3.4c-1.6-1.1-3.5-1.1-5.4-0.9c-3.2,0.6-6.1,1.8-9.1,3
			c2.4,6.2,4.5,12.7,6.5,19.1l2.8-1l1.2-0.4c0.5-0.9,0.2-2-0.1-3c-0.5-1.4-1-2.8-1.5-4.2c2.7-0.5,5.2-1.7,6.8-4
			C168.3,59.8,168.6,58,168.3,56.2z M163.3,59.3c-0.6,1.5-1.7,2-3,2.6c-0.4,0.2-0.4,0.2-0.8,0.1c-1.2-1.3-1.7-4-2.3-5.7l3.4-0.9
			c0.3,0,0.6,0,1,0.1c0.7,0.2,1.5,0.7,1.8,1.3C163.8,57.7,163.7,58.5,163.3,59.3z"/>
		<path class="st4" d="M297.8,92.2c1.4,0.5,7,8.8,8.2,10.4c-1.1,0.7-2.2,1.7-3.2,2.5c-1.3-2.4-3.2-4.8-4.9-6.9
			c-0.9,0.9-2.1,1.7-3.1,2.5c1.5,2.2,3.1,4.3,4.7,6.3c-1.1,0.7-2.1,1.5-3.2,2.3c-0.8-1.2-3.8-5.8-4.9-6.3c-1.1,1-2.2,1.8-3.5,2.7
			c1.7,2.3,3.4,4.7,5.1,7c-1,0.9-2,1.6-3.1,2.4c-2.3-3.9-5.5-7.3-7.9-11.1C285,102.2,295.5,94.7,297.8,92.2z"/>
		<path class="st4" d="M145.9,57.2c0.8,0.5,1.6,2.4,2,3.3c-2.5,1.2-4.9,2.6-7.3,4l2.1,3.8c2.1-1.5,4.4-2.7,6.7-4
			c0.5,1.2,1.1,2.5,1.7,3.7c-2.4,0.9-4.6,2.1-6.8,3.3c0.5,1.5,1.4,2.8,2.1,4.2c1.6-0.8,5.9-3.8,7.5-3.7c0.3,0,0.4,0.3,0.6,0.6
			c0.4,0.8,1.1,1.5,1.6,2.3c-3.6,2.2-9.3,3.9-12.2,6.8c-2.9-6.1-6.3-12.3-9.6-18.2C138.4,61.4,142.2,59.3,145.9,57.2z"/>
		<path class="st4" d="M248.2,55c3.7,2.2,7.9,3.9,11.8,5.8c-0.5,1.2-1.1,2.4-1.7,3.6c-2.3-1.4-4.8-2.6-7.2-3.8
			c-0.6,1.3-1.3,2.6-1.9,3.8c2.4,1,4.8,2.2,7.2,3.4l-1.8,3.3c-1.6-0.8-5.4-3.3-7.1-3l-0.4,0.8c-0.5,1.1-1.1,2.1-1.7,3.1
			c2.8,1.2,5.5,2.5,8.2,3.9c-0.7,1.1-1.2,2.2-1.8,3.3l-12.3-5.8C242.2,67.1,245.2,61,248.2,55z"/>
		<path class="st4" d="M182.9,46.8c0.6-0.1,0.8-0.1,1.4,0.1c0.5,0.9,0.4,2.2,0.4,3.3c-2.6,0.3-5.2,0.8-7.8,1.2
			c0.1,1.4,0.4,2.8,0.7,4.2c2.6-0.5,5.1-1,7.7-1.5c0.2,1.3,0.4,2.6,0.5,3.9c-2.5,0.2-4.9,0.7-7.4,1.1c0.1,1.6,0.3,3.3,0.5,4.9
			c2.9-0.6,5.8-1.1,8.7-1.7c0.3,1.3,0.4,2.6,0.5,3.9c-4.5,0.7-9,1.4-13.4,2.2c-0.9-6.6-1.9-13.4-3.4-19.9
			C175.1,48.1,179,47.3,182.9,46.8z"/>
		<path class="st4" d="M283.5,77c3.6,2.5,8.2,8.2,11.8,11.4c-1,0.9-1.9,2-2.8,3c-1.4-1.5-2.8-2.9-4.1-4.4c-2,2.3-4.3,4.5-6.5,6.7
			c-1.7,1.7-3.4,3.4-5,5.2c-1-1.3-2.1-2.4-3.3-3.5c3.5-4.1,7.8-7.5,11.3-11.7c-1.3-1.3-2.6-2.6-3.9-4L283.5,77z"/>
		<path class="st4" d="M238.2,51.4c1.5,0.8,2.8,1.3,4.5,1.5c-2.1,6.4-4,13.2-6.7,19.3c-1.5-0.6-3-1.1-4.5-1.6
			C233.7,64.2,235.7,57.6,238.2,51.4z"/>
		<path class="st4" d="M94.6,100.3c5.2,4.1,11.2,7.4,16.7,11.2l-2.5,4.1c-5.6-3.8-11.2-7.5-16.9-11.2L94.6,100.3z"/>
		<path class="st4" d="M278.6,82.6c0.3,0.3,0.4,0.5,0.5,0.9c-0.7,2.3-4.1,4.8-5.8,6.5l-0.2,0l-0.1-0.3
			C274.6,87.3,276.6,84.8,278.6,82.6z"/>
		<path class="st4" d="M288.2,92.9l0.6,0.2l0.2,0.5c-0.9,2-4.9,4.2-6.7,5.6l-0.4,0.1C281.9,98.3,287.1,94,288.2,92.9z"/>
	</g>
</g>
</svg>
