<svg xmlns="http://www.w3.org/2000/svg" viewBox="11.01 7.52 1660.15 1854.28"><!-- Source: https://football-logos.cc -->


<path fill="#e90914" fill-rule="evenodd" d="M 1670.790 376.910 A 1.682 1.678 -45.625 0 1 1670.810 378.990 Q 1659.460 393.660 1645.370 413.600 Q 1624.340 443.370 1610.610 464.840 Q 1600.410 480.780 1588.530 500.000 Q 1578.170 516.750 1558.230 554.460 Q 1547.690 574.390 1534.660 604.250 C 1525.230 625.850 1517.760 647.930 1511.540 670.250 Q 1506.200 689.430 1503.970 705.470 C 1502.950 712.830 1501.910 718.440 1501.340 724.440 Q 1498.750 752.220 1502.290 778.500 Q 1504.020 791.330 1507.980 807.660 Q 1510.520 818.160 1516.630 834.760 Q 1525.940 860.120 1526.510 861.460 Q 1531.560 873.380 1536.140 885.080 C 1538.240 890.460 1540.640 895.100 1542.930 900.600 C 1555.140 929.860 1571.020 968.000 1584.110 1002.240 Q 1595.770 1032.740 1597.350 1037.120 Q 1599.920 1044.210 1607.480 1067.210 C 1614.760 1089.350 1620.170 1110.330 1625.190 1132.520 C 1633.780 1170.460 1637.550 1208.630 1634.360 1247.740 Q 1632.450 1271.100 1626.910 1292.700 C 1616.050 1334.980 1597.300 1375.620 1570.300 1409.800 C 1552.460 1432.370 1538.440 1452.430 1517.480 1472.100 Q 1504.350 1484.430 1498.210 1489.700 C 1490.640 1496.190 1476.930 1506.620 1466.010 1516.020 C 1461.610 1519.820 1457.480 1522.860 1452.720 1526.730 Q 1420.850 1552.670 1386.480 1576.470 Q 1381.430 1579.970 1364.280 1589.760 Q 1355.440 1594.800 1318.170 1615.230 Q 1295.320 1627.760 1271.460 1639.500 C 1244.270 1652.870 1219.860 1664.610 1196.260 1674.900 C 1191.370 1677.030 1187.240 1679.270 1182.510 1681.270 Q 1145.410 1696.970 1118.750 1707.200 Q 1104.600 1712.640 1069.470 1725.030 Q 1054.130 1730.440 1040.730 1735.990 Q 1015.610 1746.390 1012.330 1747.830 C 977.640 1763.090 941.920 1781.430 909.060 1801.970 C 892.270 1812.460 875.830 1824.490 862.220 1838.470 Q 851.150 1849.830 841.700 1861.450 A 0.952 0.951 41.725 0 1 840.290 1861.530 Q 838.850 1860.120 837.650 1858.600 Q 816.700 1832.100 789.390 1813.110 Q 763.120 1794.850 734.930 1779.850 Q 691.950 1756.970 651.830 1740.560 C 639.180 1735.380 627.620 1730.390 615.050 1726.110 Q 580.370 1714.280 563.030 1707.440 C 542.620 1699.390 530.980 1694.960 514.040 1687.560 Q 484.600 1674.690 480.150 1672.600 Q 413.100 1641.180 395.950 1632.290 Q 354.560 1610.840 316.860 1589.640 Q 297.640 1578.840 280.100 1565.900 Q 273.450 1560.990 250.220 1543.460 C 230.810 1528.810 208.290 1510.080 191.320 1496.430 Q 167.420 1477.210 139.830 1445.920 Q 132.700 1437.830 111.360 1409.900 Q 67.100 1351.950 52.340 1280.450 Q 45.910 1249.310 46.360 1215.030 Q 46.480 1206.070 47.160 1198.480 C 48.240 1186.490 48.330 1179.590 50.010 1169.680 C 51.420 1161.370 52.120 1153.950 53.830 1146.100 Q 54.390 1143.550 56.100 1134.790 Q 57.360 1128.310 64.380 1101.300 Q 69.130 1083.050 74.060 1068.150 Q 82.150 1043.710 91.930 1017.260 Q 101.130 992.380 105.770 980.990 Q 120.560 944.710 121.620 942.360 C 124.480 936.010 126.110 931.450 128.980 924.660 Q 149.270 876.820 158.360 853.670 Q 161.970 844.460 170.600 818.630 Q 175.000 805.460 178.130 787.270 Q 180.810 771.770 181.070 755.140 Q 181.630 720.790 174.180 686.760 Q 171.490 674.470 168.210 662.810 Q 165.210 652.150 160.730 639.300 Q 145.610 595.880 120.920 549.110 Q 100.250 509.920 82.270 481.580 C 74.840 469.850 65.390 456.140 57.930 444.600 Q 50.680 433.390 40.430 418.920 C 28.360 401.900 22.870 394.020 15.230 384.620 C 13.660 382.690 12.440 380.560 11.230 378.400 A 1.671 1.669 -41.549 0 1 11.340 376.590 C 17.660 367.970 24.040 359.860 30.130 351.600 Q 41.340 336.370 87.750 274.970 Q 100.660 257.890 109.390 246.600 C 119.410 233.650 129.330 220.320 138.250 208.810 C 176.550 159.350 199.250 130.030 219.440 103.440 Q 227.000 93.480 234.740 83.730 Q 236.680 81.290 238.520 83.200 C 247.080 92.060 256.160 100.560 266.440 108.580 Q 295.100 130.940 326.490 147.980 Q 333.730 151.910 344.920 156.880 Q 357.590 162.510 363.690 165.110 Q 369.690 167.660 397.640 176.980 Q 400.990 178.100 405.950 179.330 Q 414.230 181.400 414.320 181.420 Q 441.130 187.660 450.250 188.780 Q 457.150 189.620 464.350 190.760 Q 471.170 191.840 478.460 192.570 Q 506.800 195.410 535.500 193.790 Q 538.960 193.590 552.050 192.290 Q 559.320 191.570 568.510 189.970 C 580.620 187.860 589.730 186.490 599.570 183.950 Q 600.020 183.840 613.160 180.570 Q 638.640 174.230 665.710 161.710 Q 706.820 142.690 742.490 114.470 C 749.460 108.960 757.700 101.610 764.020 96.020 Q 771.440 89.440 782.550 77.550 Q 796.440 62.670 803.830 54.090 Q 813.400 42.960 834.500 15.690 C 836.110 13.600 838.360 9.750 840.350 7.750 A 0.757 0.757 48.504 0 1 841.490 7.820 C 847.370 15.410 852.970 23.560 858.850 31.090 Q 874.560 51.210 891.690 70.040 Q 905.980 85.750 916.660 95.320 Q 920.460 98.720 928.960 106.150 C 938.180 114.200 949.870 123.240 960.100 129.870 Q 968.430 135.280 968.790 135.560 C 973.540 139.240 978.750 142.000 986.140 146.590 Q 989.100 148.430 1008.520 158.390 Q 1019.520 164.030 1031.520 168.530 Q 1052.620 176.440 1063.870 179.620 Q 1069.080 181.100 1084.960 184.820 Q 1096.900 187.620 1106.260 189.040 Q 1131.260 192.830 1146.330 193.810 Q 1157.720 194.550 1182.490 194.030 C 1190.080 193.870 1197.190 192.790 1204.970 192.310 Q 1208.860 192.060 1213.960 191.340 C 1242.720 187.270 1271.500 181.570 1298.680 172.100 Q 1350.760 153.960 1395.980 122.970 Q 1407.740 114.900 1426.290 99.090 Q 1431.660 94.520 1433.990 92.150 C 1437.870 88.190 1440.760 84.620 1444.100 82.400 A 1.101 1.090 -40.455 0 1 1445.450 82.500 Q 1446.500 83.460 1447.600 84.870 Q 1465.180 107.420 1474.490 119.790 Q 1485.030 133.780 1501.410 154.570 Q 1530.240 191.150 1567.690 240.740 C 1569.200 242.740 1571.660 245.390 1573.180 247.590 C 1577.460 253.730 1581.350 258.330 1585.360 263.700 Q 1592.990 273.910 1602.660 286.550 Q 1608.060 293.600 1629.540 322.030 Q 1643.030 339.880 1664.760 369.080 Q 1668.290 373.810 1670.790 376.910 Z M 254.190 133.110 Q 254.660 132.560 254.140 132.130 Q 247.590 126.750 240.710 121.910 Q 240.380 121.680 239.980 121.700 Q 239.840 121.710 239.690 122.160 Q 239.520 121.530 238.850 121.720 A 0.330 0.312 -80.280 0 0 238.730 121.810 Q 226.380 137.790 214.100 153.640 Q 178.720 199.330 174.600 205.070 Q 171.650 209.180 168.420 213.060 Q 165.510 216.550 162.130 220.950 Q 145.090 243.100 129.190 263.980 Q 107.640 292.260 86.160 320.700 Q 73.370 337.640 60.670 354.690 Q 52.530 365.630 44.190 376.230 A 0.714 0.712 45.757 0 0 44.180 377.100 C 75.170 419.170 103.990 464.160 129.150 508.570 Q 142.080 531.410 156.510 560.870 Q 164.040 576.250 170.190 590.760 Q 178.510 610.370 182.520 621.210 Q 191.240 644.790 198.080 672.680 Q 204.210 697.650 207.160 733.290 C 209.270 758.690 206.490 783.860 200.800 808.600 Q 197.430 823.270 189.110 846.160 Q 179.890 871.540 165.020 906.730 Q 157.970 923.400 133.040 983.870 C 124.230 1005.240 115.790 1027.560 108.660 1047.390 Q 95.620 1083.650 86.490 1119.900 C 79.550 1147.410 75.190 1172.800 73.480 1199.500 C 71.410 1231.860 74.300 1265.350 83.380 1296.840 Q 95.620 1339.290 119.200 1375.640 Q 127.520 1388.470 138.980 1403.110 Q 153.930 1422.210 160.100 1429.510 Q 182.280 1455.740 210.040 1478.000 Q 234.520 1497.630 249.300 1509.610 C 262.780 1520.530 272.900 1527.910 289.360 1540.440 Q 308.610 1555.080 317.810 1560.200 C 341.880 1573.600 365.460 1586.970 387.690 1598.430 Q 436.830 1623.790 480.180 1643.790 Q 513.100 1658.980 554.910 1675.930 C 588.210 1689.430 629.680 1703.170 661.730 1716.080 Q 699.500 1731.290 742.960 1754.080 Q 775.550 1771.180 810.160 1795.820 Q 826.860 1807.710 840.180 1822.090 A 0.800 0.794 -44.287 0 0 841.340 1822.100 C 845.420 1817.890 848.030 1814.820 852.050 1811.460 Q 865.570 1800.170 870.410 1796.660 C 877.320 1791.650 888.990 1783.270 898.200 1777.550 Q 926.200 1760.150 955.400 1745.670 C 979.550 1733.700 999.240 1724.310 1020.080 1716.090 Q 1053.040 1703.090 1099.450 1686.660 Q 1105.160 1684.640 1114.880 1680.810 Q 1194.270 1649.580 1281.250 1605.160 Q 1294.590 1598.350 1313.250 1588.190 Q 1340.120 1573.560 1345.050 1570.810 C 1362.690 1560.960 1381.150 1549.290 1398.770 1535.690 Q 1416.560 1521.950 1420.030 1519.250 Q 1438.430 1504.910 1477.490 1472.990 Q 1504.780 1450.690 1525.970 1423.980 Q 1533.030 1415.080 1547.820 1395.900 C 1561.360 1378.330 1571.620 1362.400 1579.810 1345.050 Q 1585.730 1332.500 1591.930 1316.450 C 1606.840 1277.870 1611.490 1236.440 1608.100 1194.500 Q 1605.240 1158.950 1595.970 1122.240 Q 1586.780 1085.870 1574.660 1052.040 Q 1560.650 1012.920 1539.600 961.660 C 1526.400 929.510 1504.890 880.820 1490.550 839.740 C 1484.170 821.470 1479.500 805.340 1476.870 786.420 Q 1471.430 747.390 1476.920 708.730 Q 1483.140 664.970 1498.670 623.590 C 1502.650 612.970 1506.740 601.640 1511.620 590.720 C 1520.970 569.820 1527.920 554.730 1536.380 538.880 Q 1553.650 506.490 1564.380 488.350 Q 1565.740 486.050 1579.700 463.060 C 1589.960 446.140 1601.400 429.130 1612.620 412.420 C 1620.810 400.240 1629.040 389.200 1637.410 377.790 A 1.062 1.059 -45.527 0 0 1637.400 376.520 Q 1601.240 328.160 1583.050 303.990 Q 1579.400 299.150 1569.240 286.010 Q 1551.220 262.720 1533.380 239.180 Q 1518.650 219.760 1497.430 192.440 Q 1474.420 162.820 1445.670 125.580 Q 1443.420 122.670 1442.610 121.830 A 0.660 0.653 54.278 0 0 1441.840 121.700 Q 1441.470 121.880 1437.960 125.130 Q 1436.750 126.240 1434.050 128.360 Q 1416.670 142.030 1399.880 153.040 C 1393.160 157.440 1387.330 160.710 1378.570 165.840 Q 1369.940 170.900 1362.260 174.810 Q 1312.610 200.080 1258.290 211.500 Q 1222.140 219.100 1186.490 220.740 Q 1130.880 223.310 1073.850 210.350 Q 1069.230 209.290 1062.470 207.220 C 1053.070 204.330 1043.240 201.760 1034.230 198.530 Q 1012.660 190.780 988.430 178.570 Q 974.050 171.320 957.500 160.760 C 930.140 143.290 906.020 123.140 882.960 99.830 C 867.840 84.540 854.210 67.910 840.750 51.090 A 0.335 0.333 -45.956 0 0 840.220 51.100 C 812.560 88.020 779.900 120.950 743.580 147.700 Q 735.550 153.610 725.350 160.080 Q 712.180 168.450 706.510 171.480 Q 686.710 182.060 681.040 184.530 C 666.910 190.680 657.500 195.260 646.350 198.840 Q 624.440 205.890 616.870 207.870 Q 572.480 219.510 524.750 221.170 Q 502.700 221.930 474.510 219.240 Q 413.080 213.380 360.920 193.040 C 344.130 186.490 329.400 180.220 312.710 171.430 C 303.430 166.530 293.030 159.800 282.580 153.690 Q 275.840 149.750 254.190 133.110 Z" data-source="https://football-logos.cc"></path>
<path fill="#ffffff" fill-rule="evenodd" d="M 239.690 122.160 L 254.190 133.110 Q 275.840 149.750 282.580 153.690 C 293.030 159.800 303.430 166.530 312.710 171.430 C 329.400 180.220 344.130 186.490 360.920 193.040 Q 413.080 213.380 474.510 219.240 Q 502.700 221.930 524.750 221.170 Q 572.480 219.510 616.870 207.870 Q 624.440 205.890 646.350 198.840 C 657.500 195.260 666.910 190.680 681.040 184.530 Q 686.710 182.060 706.510 171.480 Q 712.180 168.450 725.350 160.080 Q 735.550 153.610 743.580 147.700 C 779.900 120.950 812.560 88.020 840.220 51.100 A 0.335 0.333 -45.956 0 1 840.750 51.090 C 854.210 67.910 867.840 84.540 882.960 99.830 C 906.020 123.140 930.140 143.290 957.500 160.760 Q 974.050 171.320 988.430 178.570 Q 1012.660 190.780 1034.230 198.530 C 1043.240 201.760 1053.070 204.330 1062.470 207.220 Q 1069.230 209.290 1073.850 210.350 Q 1130.880 223.310 1186.490 220.740 Q 1222.140 219.100 1258.290 211.500 Q 1312.610 200.080 1362.260 174.810 Q 1369.940 170.900 1378.570 165.840 C 1387.330 160.710 1393.160 157.440 1399.880 153.040 Q 1416.670 142.030 1434.050 128.360 Q 1436.750 126.240 1437.960 125.130 Q 1441.470 121.880 1441.840 121.700 A 0.660 0.653 54.278 0 1 1442.610 121.830 Q 1443.420 122.670 1445.670 125.580 Q 1474.420 162.820 1497.430 192.440 Q 1518.650 219.760 1533.380 239.180 Q 1551.220 262.720 1569.240 286.010 Q 1579.400 299.150 1583.050 303.990 Q 1601.240 328.160 1637.400 376.520 A 1.062 1.059 -45.527 0 1 1637.410 377.790 C 1629.040 389.200 1620.810 400.240 1612.620 412.420 C 1601.400 429.130 1589.960 446.140 1579.700 463.060 Q 1565.740 486.050 1564.380 488.350 Q 1553.650 506.490 1536.380 538.880 C 1527.920 554.730 1520.970 569.820 1511.620 590.720 C 1506.740 601.640 1502.650 612.970 1498.670 623.590 Q 1483.140 664.970 1476.920 708.730 Q 1471.430 747.390 1476.870 786.420 C 1479.500 805.340 1484.170 821.470 1490.550 839.740 C 1504.890 880.820 1526.400 929.510 1539.600 961.660 Q 1560.650 1012.920 1574.660 1052.040 Q 1586.780 1085.870 1595.970 1122.240 Q 1605.240 1158.950 1608.100 1194.500 C 1611.490 1236.440 1606.840 1277.870 1591.930 1316.450 Q 1585.730 1332.500 1579.810 1345.050 C 1571.620 1362.400 1561.360 1378.330 1547.820 1395.900 Q 1533.030 1415.080 1525.970 1423.980 Q 1504.780 1450.690 1477.490 1472.990 Q 1438.430 1504.910 1420.030 1519.250 Q 1416.560 1521.950 1398.770 1535.690 C 1381.150 1549.290 1362.690 1560.960 1345.050 1570.810 Q 1340.120 1573.560 1313.250 1588.190 Q 1294.590 1598.350 1281.250 1605.160 Q 1194.270 1649.580 1114.880 1680.810 Q 1105.160 1684.640 1099.450 1686.660 Q 1053.040 1703.090 1020.080 1716.090 C 999.240 1724.310 979.550 1733.700 955.400 1745.670 Q 926.200 1760.150 898.200 1777.550 C 888.990 1783.270 877.320 1791.650 870.410 1796.660 Q 865.570 1800.170 852.050 1811.460 C 848.030 1814.820 845.420 1817.890 841.340 1822.100 A 0.800 0.794 -44.287 0 1 840.180 1822.090 Q 826.860 1807.710 810.160 1795.820 Q 775.550 1771.180 742.960 1754.080 Q 699.500 1731.290 661.730 1716.080 C 629.680 1703.170 588.210 1689.430 554.910 1675.930 Q 513.100 1658.980 480.180 1643.790 Q 436.830 1623.790 387.690 1598.430 C 365.460 1586.970 341.880 1573.600 317.810 1560.200 Q 308.610 1555.080 289.360 1540.440 C 272.900 1527.910 262.780 1520.530 249.300 1509.610 Q 234.520 1497.630 210.040 1478.000 Q 182.280 1455.740 160.100 1429.510 Q 153.930 1422.210 138.980 1403.110 Q 127.520 1388.470 119.200 1375.640 Q 95.620 1339.290 83.380 1296.840 C 74.300 1265.350 71.410 1231.860 73.480 1199.500 C 75.190 1172.800 79.550 1147.410 86.490 1119.900 Q 95.620 1083.650 108.660 1047.390 C 115.790 1027.560 124.230 1005.240 133.040 983.870 Q 157.970 923.400 165.020 906.730 Q 179.890 871.540 189.110 846.160 Q 197.430 823.270 200.800 808.600 C 206.490 783.860 209.270 758.690 207.160 733.290 Q 204.210 697.650 198.080 672.680 Q 191.240 644.790 182.520 621.210 Q 178.510 610.370 170.190 590.760 Q 164.040 576.250 156.510 560.870 Q 142.080 531.410 129.150 508.570 C 103.990 464.160 75.170 419.170 44.180 377.100 A 0.714 0.712 45.757 0 1 44.190 376.230 Q 52.530 365.630 60.670 354.690 Q 73.370 337.640 86.160 320.700 Q 107.640 292.260 129.190 263.980 Q 145.090 243.100 162.130 220.950 Q 165.510 216.550 168.420 213.060 Q 171.650 209.180 174.600 205.070 Q 178.720 199.330 214.100 153.640 Q 226.380 137.790 238.730 121.810 A 0.330 0.312 -80.280 0 1 238.850 121.720 Q 239.520 121.530 239.690 122.160 Z M 840.570 89.750 Q 830.080 102.720 818.060 115.060 Q 795.470 138.220 768.870 159.120 Q 751.870 172.480 736.680 181.930 Q 709.190 199.030 679.910 211.890 Q 677.280 213.040 664.260 218.450 C 649.510 224.590 634.860 228.700 619.190 232.660 A 0.980 0.969 83.241 0 0 618.450 233.610 L 618.450 547.200 A 0.587 0.581 -16.873 0 0 619.360 547.680 Q 644.760 530.800 670.970 518.290 C 711.960 498.730 757.240 485.800 802.810 480.960 Q 861.220 474.760 919.560 485.610 Q 942.570 489.880 962.620 496.250 Q 985.450 503.500 1004.260 511.540 Q 1034.020 524.260 1063.530 543.200 A 0.462 0.462 16.196 0 0 1064.240 542.810 L 1064.240 234.670 A 1.755 1.742 7.913 0 0 1062.960 232.990 Q 1045.800 228.170 1042.150 227.070 Q 1020.780 220.600 1000.370 211.330 Q 984.570 204.140 975.390 199.350 Q 948.400 185.270 926.990 169.750 Q 878.680 134.740 841.030 89.750 A 0.298 0.298 -50.923 0 0 840.570 89.750 Z M 307.050 1522.380 Q 307.210 1522.150 307.210 1521.730 Q 307.250 1503.990 307.250 1502.500 Q 307.310 658.650 307.350 575.000 Q 307.420 393.110 307.330 208.250 Q 307.330 202.570 307.160 197.220 A 1.201 1.192 -76.341 0 0 306.550 196.210 Q 291.980 188.010 291.310 187.640 Q 282.000 182.550 276.560 178.800 C 271.110 175.040 263.920 170.850 257.450 166.030 Q 255.760 164.770 244.350 156.320 A 0.950 0.944 36.271 0 0 243.020 156.520 Q 234.530 168.020 232.130 171.130 C 220.450 186.270 199.520 212.290 187.770 227.740 C 174.290 245.460 165.090 257.220 150.470 276.460 Q 111.230 328.060 107.480 332.950 Q 89.530 356.340 75.430 375.940 A 2.273 2.270 46.614 0 0 75.360 378.490 C 77.880 382.470 81.110 386.440 83.730 390.330 Q 93.750 405.210 108.250 427.520 Q 130.550 461.840 150.420 496.600 Q 177.370 543.770 197.810 593.530 C 209.030 620.840 218.030 650.150 223.780 676.730 Q 230.260 706.690 231.620 735.990 Q 233.370 773.610 225.170 811.530 Q 222.020 826.060 214.910 846.720 Q 208.680 864.800 202.050 881.070 Q 182.720 928.520 171.150 955.810 Q 153.220 998.090 145.110 1019.530 C 129.460 1060.940 116.470 1096.550 107.220 1136.410 C 98.500 1173.950 94.590 1211.620 98.720 1249.750 C 102.410 1283.880 113.690 1316.740 130.200 1346.850 C 138.930 1362.780 150.880 1379.120 162.790 1394.150 Q 177.780 1413.070 187.960 1424.170 C 203.050 1440.630 221.150 1455.680 239.280 1470.230 Q 275.570 1499.360 295.850 1515.310 C 298.850 1517.670 302.830 1520.280 306.120 1522.530 Q 306.670 1522.910 307.050 1522.380 Z M 1539.380 1365.700 L 1541.320 1362.480 Q 1541.200 1362.870 1541.660 1362.190 Q 1551.710 1347.160 1558.810 1332.300 Q 1561.180 1327.370 1562.810 1323.370 C 1566.180 1315.130 1569.560 1307.740 1571.860 1300.690 C 1585.760 1258.000 1587.490 1212.880 1580.690 1168.550 Q 1576.370 1140.400 1570.930 1120.990 Q 1564.610 1098.430 1559.000 1081.220 Q 1552.770 1062.130 1537.250 1020.990 Q 1534.250 1013.040 1534.140 1012.760 Q 1520.520 978.380 1484.430 892.200 C 1479.890 881.360 1474.050 865.860 1470.130 855.380 Q 1464.950 841.470 1458.610 818.380 Q 1453.400 799.360 1451.510 780.330 Q 1449.160 756.610 1449.890 738.380 C 1451.460 698.730 1460.410 660.010 1473.150 622.260 Q 1480.570 600.250 1491.810 574.970 Q 1511.790 530.010 1536.560 487.310 Q 1568.650 432.020 1606.510 378.020 A 1.407 1.407 8.887 0 0 1606.510 376.400 Q 1602.490 370.660 1596.240 362.280 C 1561.700 315.950 1521.690 263.880 1490.550 223.400 C 1475.120 203.340 1456.760 180.290 1441.350 159.900 Q 1439.610 157.590 1438.140 156.380 A 0.682 0.678 -43.450 0 0 1437.300 156.360 C 1418.180 170.590 1397.470 184.170 1375.880 195.670 A 1.183 1.169 76.153 0 0 1375.260 196.710 L 1375.260 1521.750 A 0.637 0.637 73.158 0 0 1376.250 1522.280 Q 1378.820 1520.590 1380.680 1519.170 Q 1413.930 1493.640 1454.160 1460.610 C 1468.980 1448.440 1482.710 1436.160 1493.540 1424.040 Q 1505.170 1411.010 1518.140 1394.640 Q 1528.780 1381.210 1539.380 1365.700 Z M 1227.013 845.779 A 383.270 383.100 -5.100 0 0 811.205 498.267 A 383.270 383.100 -5.100 0 0 463.507 913.921 A 383.270 383.100 -5.100 0 0 879.315 1261.433 A 383.270 383.100 -5.100 0 0 1227.013 845.779 Z M 1050.550 1677.850 L 1063.000 1673.510 A 1.823 1.808 80.576 0 0 1064.220 1671.790 L 1064.310 1220.710 L 1064.310 1216.700 A 0.329 0.325 73.886 0 0 1063.810 1216.420 Q 1042.270 1230.260 1022.940 1239.800 Q 960.110 1270.810 890.370 1278.660 C 854.830 1282.660 818.410 1281.540 783.640 1276.300 C 757.540 1272.370 731.810 1265.410 706.490 1256.250 Q 660.900 1239.760 619.410 1212.060 A 0.599 0.594 16.977 0 0 618.480 1212.550 L 618.480 1671.140 A 2.748 2.745 10.324 0 0 620.260 1673.710 C 640.210 1681.220 666.130 1690.540 688.120 1700.260 C 712.910 1711.220 736.640 1721.870 759.320 1734.660 Q 776.140 1744.160 778.790 1745.700 Q 807.630 1762.560 833.780 1782.840 C 835.550 1784.210 838.300 1786.830 840.390 1788.550 A 0.763 0.753 44.018 0 0 841.370 1788.540 Q 850.720 1780.340 862.520 1772.030 C 888.780 1753.540 914.300 1738.670 942.770 1723.960 C 954.880 1717.700 966.820 1712.520 980.240 1705.990 C 987.520 1702.460 995.920 1699.170 1003.750 1695.810 C 1018.540 1689.480 1034.940 1683.690 1050.550 1677.850 Z"></path>
<path fill="#e90914" fill-rule="evenodd" d="M 840.570 89.750 A 0.298 0.298 -6.158 0 1 841.030 89.750 Q 878.680 134.740 926.990 169.750 Q 948.400 185.270 975.390 199.350 Q 984.570 204.140 1000.370 211.330 Q 1020.780 220.600 1042.150 227.070 Q 1045.800 228.170 1062.960 232.990 A 1.755 1.742 7.913 0 1 1064.240 234.670 L 1064.240 542.810 A 0.462 0.462 16.196 0 1 1063.530 543.200 Q 1034.020 524.260 1004.260 511.540 Q 985.450 503.500 962.620 496.250 Q 942.570 489.880 919.560 485.610 Q 861.220 474.760 802.810 480.960 C 757.240 485.800 711.960 498.730 670.970 518.290 Q 644.760 530.800 619.360 547.680 A 0.587 0.581 -16.873 0 1 618.450 547.200 L 618.450 233.610 A 0.980 0.969 83.241 0 1 619.190 232.660 C 634.860 228.700 649.510 224.590 664.260 218.450 Q 677.280 213.040 679.910 211.890 Q 709.190 199.030 736.680 181.930 Q 751.870 172.480 768.870 159.120 Q 795.470 138.220 818.060 115.060 Q 830.080 102.720 840.570 89.750 Z"></path>
<path fill="#000000" fill-rule="evenodd" d="M 254.190 133.110 L 239.690 122.160 Q 239.840 121.710 239.980 121.700 Q 240.380 121.680 240.710 121.910 Q 247.590 126.750 254.140 132.130 Q 254.660 132.560 254.190 133.110 Z"></path>
<path fill="#e90914" fill-rule="evenodd" d="M 307.050 1522.380 Q 306.670 1522.910 306.120 1522.530 C 302.830 1520.280 298.850 1517.670 295.850 1515.310 Q 275.570 1499.360 239.280 1470.230 C 221.150 1455.680 203.050 1440.630 187.960 1424.170 Q 177.780 1413.070 162.790 1394.150 C 150.880 1379.120 138.930 1362.780 130.200 1346.850 C 113.690 1316.740 102.410 1283.880 98.720 1249.750 C 94.590 1211.620 98.500 1173.950 107.220 1136.410 C 116.470 1096.550 129.460 1060.940 145.110 1019.530 Q 153.220 998.090 171.150 955.810 Q 182.720 928.520 202.050 881.070 Q 208.680 864.800 214.910 846.720 Q 222.020 826.060 225.170 811.530 Q 233.370 773.610 231.620 735.990 Q 230.260 706.690 223.780 676.730 C 218.030 650.150 209.030 620.840 197.810 593.530 Q 177.370 543.770 150.420 496.600 Q 130.550 461.840 108.250 427.520 Q 93.750 405.210 83.730 390.330 C 81.110 386.440 77.880 382.470 75.360 378.490 A 2.273 2.270 46.614 0 1 75.430 375.940 Q 89.530 356.340 107.480 332.950 Q 111.230 328.060 150.470 276.460 C 165.090 257.220 174.290 245.460 187.770 227.740 C 199.520 212.290 220.450 186.270 232.130 171.130 Q 234.530 168.020 243.020 156.520 A 0.950 0.944 36.271 0 1 244.350 156.320 Q 255.760 164.770 257.450 166.030 C 263.920 170.850 271.110 175.040 276.560 178.800 Q 282.000 182.550 291.310 187.640 Q 291.980 188.010 306.550 196.210 A 1.201 1.192 -76.341 0 1 307.160 197.220 Q 307.330 202.570 307.330 208.250 Q 307.420 393.110 307.350 575.000 Q 307.310 658.650 307.250 1502.500 Q 307.250 1503.990 307.210 1521.730 Q 307.210 1522.150 307.050 1522.380 Z"></path>
<path fill="#e90914" fill-rule="evenodd" d="M 1541.320 1362.480 Q 1538.330 1364.730 1539.380 1365.700 Q 1528.780 1381.210 1518.140 1394.640 Q 1505.170 1411.010 1493.540 1424.040 C 1482.710 1436.160 1468.980 1448.440 1454.160 1460.610 Q 1413.930 1493.640 1380.680 1519.170 Q 1378.820 1520.590 1376.250 1522.280 A 0.637 0.637 73.158 0 1 1375.260 1521.750 L 1375.260 196.710 A 1.183 1.169 76.153 0 1 1375.880 195.670 C 1397.470 184.170 1418.180 170.590 1437.300 156.360 A 0.682 0.678 -43.450 0 1 1438.140 156.380 Q 1439.610 157.590 1441.350 159.900 C 1456.760 180.290 1475.120 203.340 1490.550 223.400 C 1521.690 263.880 1561.700 315.950 1596.240 362.280 Q 1602.490 370.660 1606.510 376.400 A 1.407 1.407 56.632 0 1 1606.510 378.020 Q 1568.650 432.020 1536.560 487.310 Q 1511.790 530.010 1491.810 574.970 Q 1480.570 600.250 1473.150 622.260 C 1460.410 660.010 1451.460 698.730 1449.890 738.380 Q 1449.160 756.610 1451.510 780.330 Q 1453.400 799.360 1458.610 818.380 Q 1464.950 841.470 1470.130 855.380 C 1474.050 865.860 1479.890 881.360 1484.430 892.200 Q 1520.520 978.380 1534.140 1012.760 Q 1534.250 1013.040 1537.250 1020.990 Q 1552.770 1062.130 1559.000 1081.220 Q 1564.610 1098.430 1570.930 1120.990 Q 1576.370 1140.400 1580.690 1168.550 C 1587.490 1212.880 1585.760 1258.000 1571.860 1300.690 C 1569.560 1307.740 1566.180 1315.130 1562.810 1323.370 Q 1561.180 1327.370 1558.810 1332.300 Q 1551.710 1347.160 1541.660 1362.190 Q 1541.200 1362.870 1541.320 1362.480 Z"></path>
<path fill="#e90914" fill-rule="evenodd" d="M 1227.013 845.779 A 383.270 383.100 -5.100 0 1 879.315 1261.433 A 383.270 383.100 -5.100 0 1 463.507 913.921 A 383.270 383.100 -5.100 0 1 811.205 498.267 A 383.270 383.100 -5.100 0 1 1227.013 845.779 Z M 570.220 660.950 Q 569.630 660.040 567.930 662.220 Q 533.980 705.720 514.970 757.460 Q 514.840 757.810 515.020 758.140 Q 515.100 758.300 515.610 758.220 Q 506.720 782.020 500.950 810.160 Q 491.940 854.030 493.880 894.240 Q 499.080 1001.810 561.580 1087.730 Q 574.870 1106.000 587.300 1118.940 Q 601.810 1134.040 614.990 1145.470 Q 670.450 1193.570 740.470 1215.510 C 790.190 1231.080 843.520 1235.080 895.050 1228.280 Q 912.150 1226.020 935.310 1220.000 Q 955.710 1214.700 974.300 1207.070 Q 1009.510 1192.630 1037.810 1174.030 C 1072.400 1151.310 1104.130 1121.280 1128.750 1087.260 Q 1145.320 1064.370 1156.370 1043.670 Q 1187.150 986.040 1194.890 918.050 C 1195.690 911.030 1195.920 903.830 1196.450 894.740 C 1197.500 876.860 1196.370 859.150 1194.440 840.990 Q 1189.290 792.530 1169.940 745.810 Q 1146.600 689.430 1106.430 644.830 C 1063.150 596.760 1006.820 560.990 944.340 542.490 Q 904.970 530.830 862.920 529.020 C 821.760 527.250 780.850 531.510 741.680 543.700 C 690.620 559.600 643.530 587.110 604.750 623.750 Q 584.360 643.010 570.220 660.950 Z"></path>
<path fill="#ffffff" fill-rule="evenodd" d="M 515.610 758.220 Q 534.790 705.200 570.220 660.950 Q 584.360 643.010 604.750 623.750 C 643.530 587.110 690.620 559.600 741.680 543.700 C 780.850 531.510 821.760 527.250 862.920 529.020 Q 904.970 530.830 944.340 542.490 C 1006.820 560.990 1063.150 596.760 1106.430 644.830 Q 1146.600 689.430 1169.940 745.810 Q 1189.290 792.530 1194.440 840.990 C 1196.370 859.150 1197.500 876.860 1196.450 894.740 C 1195.920 903.830 1195.690 911.030 1194.890 918.050 Q 1187.150 986.040 1156.370 1043.670 Q 1145.320 1064.370 1128.750 1087.260 C 1104.130 1121.280 1072.400 1151.310 1037.810 1174.030 Q 1009.510 1192.630 974.300 1207.070 Q 955.710 1214.700 935.310 1220.000 Q 912.150 1226.020 895.050 1228.280 C 843.520 1235.080 790.190 1231.080 740.470 1215.510 Q 670.450 1193.570 614.990 1145.470 Q 601.810 1134.040 587.300 1118.940 Q 574.870 1106.000 561.580 1087.730 Q 499.080 1001.810 493.880 894.240 Q 491.940 854.030 500.950 810.160 Q 506.720 782.020 515.610 758.220 Z M 1015.620 1072.580 Q 1013.620 1073.890 1012.800 1074.550 Q 980.860 1100.000 945.410 1114.870 C 918.940 1125.980 889.680 1133.220 860.760 1134.210 Q 833.650 1135.130 810.410 1131.520 Q 737.110 1120.120 680.400 1071.360 Q 662.270 1055.780 648.950 1038.830 Q 593.530 968.320 594.420 877.730 Q 594.700 849.460 601.190 823.060 Q 618.370 753.200 669.080 702.360 Q 705.840 665.500 756.020 644.220 Q 762.310 641.550 774.090 637.620 Q 788.460 632.820 792.470 631.900 Q 831.850 622.950 865.260 624.830 Q 886.680 626.030 898.000 628.000 Q 961.180 639.000 1011.370 678.000 C 1014.750 680.620 1017.910 682.360 1020.760 678.240 Q 1038.420 652.730 1059.200 621.050 A 0.717 0.714 -53.490 0 0 1059.060 620.100 C 1017.700 586.020 967.570 563.180 915.080 553.670 Q 894.930 550.020 875.440 548.470 Q 855.840 546.910 835.490 548.090 Q 802.110 550.040 769.310 558.150 C 705.330 573.970 646.550 610.230 602.670 659.750 C 597.940 665.080 593.240 671.070 590.140 674.820 Q 584.620 681.520 581.210 686.480 Q 532.860 756.710 522.560 838.780 Q 514.560 902.630 531.030 964.740 Q 542.370 1007.470 563.120 1043.660 Q 594.470 1098.340 642.330 1137.060 Q 682.460 1169.520 730.600 1188.020 C 800.300 1214.800 876.640 1217.220 948.260 1195.900 C 984.690 1185.060 1018.990 1167.460 1049.230 1144.720 Q 1053.130 1141.790 1056.330 1137.980 A 1.205 1.202 49.636 0 0 1056.440 1136.600 C 1053.720 1132.080 1051.670 1127.660 1048.620 1122.640 Q 1044.220 1115.380 1024.200 1081.830 Q 1022.690 1079.290 1017.610 1074.740 C 1016.940 1074.140 1016.870 1073.080 1016.490 1072.680 A 0.690 0.683 -38.159 0 0 1015.620 1072.580 Z M 843.170 715.990 A 0.850 0.850 0.000 0 0 842.320 715.140 L 762.880 715.140 A 0.850 0.850 0.000 0 0 762.030 715.990 L 762.030 1063.490 A 0.850 0.850 0.000 0 0 762.880 1064.340 L 842.320 1064.340 A 0.850 0.850 0.000 0 0 843.170 1063.490 L 843.170 715.990 Z M 937.020 949.520 A 0.290 0.290 0.955 0 1 937.320 949.230 Q 959.280 949.770 980.750 949.040 Q 993.620 948.600 1005.480 946.730 C 1035.780 941.950 1057.480 923.450 1069.000 895.750 C 1081.630 865.420 1083.200 832.300 1077.460 799.980 Q 1073.550 777.950 1061.920 758.650 Q 1051.040 740.580 1034.420 730.070 C 1022.240 722.370 1006.370 718.050 992.020 716.710 Q 975.110 715.130 961.500 715.110 Q 916.450 715.060 861.480 715.160 A 0.810 0.800 90.000 0 0 860.680 715.970 L 860.680 1063.730 A 0.620 0.610 90.000 0 0 861.290 1064.350 L 936.060 1064.350 A 0.970 0.960 90.000 0 0 937.020 1063.380 L 937.020 949.520 Z"></path>
<path fill="#e90914" fill-rule="evenodd" d="M 1016.490 1072.680 C 1016.870 1073.080 1016.940 1074.140 1017.610 1074.740 Q 1022.690 1079.290 1024.200 1081.830 Q 1044.220 1115.380 1048.620 1122.640 C 1051.670 1127.660 1053.720 1132.080 1056.440 1136.600 A 1.205 1.202 49.636 0 1 1056.330 1137.980 Q 1053.130 1141.790 1049.230 1144.720 C 1018.990 1167.460 984.690 1185.060 948.260 1195.900 C 876.640 1217.220 800.300 1214.800 730.600 1188.020 Q 682.460 1169.520 642.330 1137.060 Q 594.470 1098.340 563.120 1043.660 Q 542.370 1007.470 531.030 964.740 Q 514.560 902.630 522.560 838.780 Q 532.860 756.710 581.210 686.480 Q 584.620 681.520 590.140 674.820 C 593.240 671.070 597.940 665.080 602.670 659.750 C 646.550 610.230 705.330 573.970 769.310 558.150 Q 802.110 550.040 835.490 548.090 Q 855.840 546.910 875.440 548.470 Q 894.930 550.020 915.080 553.670 C 967.570 563.180 1017.700 586.020 1059.060 620.100 A 0.717 0.714 -53.490 0 1 1059.200 621.050 Q 1038.420 652.730 1020.760 678.240 C 1017.910 682.360 1014.750 680.620 1011.370 678.000 Q 961.180 639.000 898.000 628.000 Q 886.680 626.030 865.260 624.830 Q 831.850 622.950 792.470 631.900 Q 788.460 632.820 774.090 637.620 Q 762.310 641.550 756.020 644.220 Q 705.840 665.500 669.080 702.360 Q 618.370 753.200 601.190 823.060 Q 594.700 849.460 594.420 877.730 Q 593.530 968.320 648.950 1038.830 Q 662.270 1055.780 680.400 1071.360 Q 737.110 1120.120 810.410 1131.520 Q 833.650 1135.130 860.760 1134.210 C 889.680 1133.220 918.940 1125.980 945.410 1114.870 Q 980.860 1100.000 1012.800 1074.550 Q 1013.620 1073.890 1015.620 1072.580 A 0.690 0.683 -38.159 0 1 1016.490 1072.680 Z" data-source="https://football-logos.cc"></path>
<path fill="#000000" fill-rule="evenodd" d="M 570.220 660.950 Q 534.790 705.200 515.610 758.220 Q 515.100 758.300 515.020 758.140 Q 514.840 757.810 514.970 757.460 Q 533.980 705.720 567.930 662.220 Q 569.630 660.040 570.220 660.950 Z"></path>
<path fill="#e90914" fill-rule="evenodd" d="M 843.170 1063.490 A 0.850 0.850 0.000 0 1 842.320 1064.340 L 762.880 1064.340 A 0.850 0.850 0.000 0 1 762.030 1063.490 L 762.030 715.990 A 0.850 0.850 0.000 0 1 762.880 715.140 L 842.320 715.140 A 0.850 0.850 0.000 0 1 843.170 715.990 L 843.170 1063.490 Z"></path>
<path fill="#e90914" fill-rule="evenodd" d="M 937.020 949.520 L 937.020 1063.380 A 0.970 0.960 90.000 0 1 936.060 1064.350 L 861.290 1064.350 A 0.620 0.610 -90.000 0 1 860.680 1063.730 L 860.680 715.970 A 0.810 0.800 -90.000 0 1 861.480 715.160 Q 916.450 715.060 961.500 715.110 Q 975.110 715.130 992.020 716.710 C 1006.370 718.050 1022.240 722.370 1034.420 730.070 Q 1051.040 740.580 1061.920 758.650 Q 1073.550 777.950 1077.460 799.980 C 1083.200 832.300 1081.630 865.420 1069.000 895.750 C 1057.480 923.450 1035.780 941.950 1005.480 946.730 Q 993.620 948.600 980.750 949.040 Q 959.280 949.770 937.320 949.230 A 0.290 0.290 0.955 0 0 937.020 949.520 Z M 936.812 831.167 Q 936.849 863.410 936.819 871.413 A 0.427 0.421 89.951 0 0 937.240 871.840 Q 949.600 872.070 964.260 871.420 Q 970.040 871.170 977.952 869.145 C 996.548 864.390 1002.893 848.589 1002.873 831.091 C 1002.853 813.593 996.472 797.807 977.865 793.095 Q 969.948 791.088 964.168 790.851 Q 949.506 790.234 937.147 790.493 A 0.427 0.421 89.918 0 0 936.727 790.920 Q 936.775 798.923 936.812 831.167 Z"></path>
<path fill="#ffffff" fill-rule="evenodd" d="M 1002.873 831.091 C 1002.893 848.589 996.548 864.390 977.952 869.145 Q 970.040 871.170 964.260 871.420 Q 949.600 872.070 937.240 871.840 A 0.427 0.421 89.951 0 1 936.819 871.413 Q 936.849 863.410 936.812 831.167 Q 936.775 798.923 936.727 790.920 A 0.427 0.421 89.918 0 1 937.147 790.493 Q 949.506 790.234 964.168 790.851 Q 969.948 791.088 977.865 793.095 C 996.472 797.807 1002.853 813.593 1002.873 831.091 Z"></path>
<path fill="#e90914" fill-rule="evenodd" d="M 1064.310 1220.710 Q 1064.050 1219.820 1063.760 1219.800 Q 1063.070 1219.760 1063.090 1221.280 Q 1063.200 1235.640 1063.000 1253.190 Q 1062.610 1287.480 1062.720 1293.240 Q 1063.190 1317.350 1063.140 1333.270 Q 1063.000 1380.300 1063.400 1429.850 C 1063.450 1436.510 1063.090 1445.960 1063.130 1453.500 Q 1063.640 1562.740 1063.110 1666.210 A 3.028 2.787 42.618 0 0 1063.150 1666.690 Q 1063.660 1669.450 1063.170 1671.790 A 1.457 1.441 -3.760 0 1 1062.230 1672.850 L 1050.380 1676.980 A 0.330 0.327 75.267 0 0 1050.160 1677.360 Q 1050.220 1677.710 1050.550 1677.850 C 1034.940 1683.690 1018.540 1689.480 1003.750 1695.810 C 995.920 1699.170 987.520 1702.460 980.240 1705.990 C 966.820 1712.520 954.880 1717.700 942.770 1723.960 C 914.300 1738.670 888.780 1753.540 862.520 1772.030 Q 850.720 1780.340 841.370 1788.540 A 0.763 0.753 44.018 0 1 840.390 1788.550 C 838.300 1786.830 835.550 1784.210 833.780 1782.840 Q 807.630 1762.560 778.790 1745.700 Q 776.140 1744.160 759.320 1734.660 C 736.640 1721.870 712.910 1711.220 688.120 1700.260 C 666.130 1690.540 640.210 1681.220 620.260 1673.710 A 2.748 2.745 10.324 0 1 618.480 1671.140 L 618.480 1212.550 A 0.599 0.594 16.977 0 1 619.410 1212.060 Q 660.900 1239.760 706.490 1256.250 C 731.810 1265.410 757.540 1272.370 783.640 1276.300 C 818.410 1281.540 854.830 1282.660 890.370 1278.660 Q 960.110 1270.810 1022.940 1239.800 Q 1042.270 1230.260 1063.810 1216.420 A 0.329 0.325 73.886 0 1 1064.310 1216.700 L 1064.310 1220.710 Z"></path>
<path fill="#000000" fill-rule="evenodd" d="M 1064.310 1220.710 L 1064.220 1671.790 A 1.823 1.808 80.576 0 1 1063.000 1673.510 L 1050.550 1677.850 Q 1050.220 1677.710 1050.160 1677.360 A 0.330 0.327 75.267 0 1 1050.380 1676.980 L 1062.230 1672.850 A 1.457 1.441 -3.760 0 0 1063.170 1671.790 Q 1063.660 1669.450 1063.150 1666.690 A 3.028 2.787 42.618 0 1 1063.110 1666.210 Q 1063.640 1562.740 1063.130 1453.500 C 1063.090 1445.960 1063.450 1436.510 1063.400 1429.850 Q 1063.000 1380.300 1063.140 1333.270 Q 1063.190 1317.350 1062.720 1293.240 Q 1062.610 1287.480 1063.000 1253.190 Q 1063.200 1235.640 1063.090 1221.280 Q 1063.070 1219.760 1063.760 1219.800 Q 1064.050 1219.820 1064.310 1220.710 Z"></path>
<path fill="#000000" fill-rule="evenodd" d="M 1541.320 1362.480 L 1539.380 1365.700 Q 1538.330 1364.730 1541.320 1362.480 Z" data-source="https://football-logos.cc"></path>

<!-- source: https://football-logos.cc --></svg>