<?xml version="1.0" encoding="UTF-8"?>
<!DOCTYPE svg PUBLIC "-//W3C//DTD SVG 1.1//EN" "http://www.w3.org/Graphics/SVG/1.1/DTD/svg11.dtd">
<svg xmlns="http://www.w3.org/2000/svg" version="1.1" width="500px" height="647px" style="shape-rendering:geometricPrecision; text-rendering:geometricPrecision; image-rendering:optimizeQuality; fill-rule:evenodd; clip-rule:evenodd" xmlns:xlink="http://www.w3.org/1999/xlink">
<g><path style="opacity:0.984" fill="#fffcfc" d="M 7.5,11.5 C 169.167,11.5 330.833,11.5 492.5,11.5C 492.667,148.5 492.5,285.5 492,422.5C 482.254,495.863 446.754,553.029 385.5,594C 310.149,641.049 231.483,647.382 149.5,613C 77.8615,579.698 32.0281,524.865 12,448.5C 10.2332,439.899 8.89985,431.232 8,422.5C 7.5,285.5 7.33333,148.5 7.5,11.5 Z"/></g>
<g><path style="opacity:1" fill="#ed2025" d="M 19.5,27.5 C 173.167,27.5 326.833,27.5 480.5,27.5C 480.667,154.834 480.5,282.167 480,409.5C 472.827,484.949 437.327,542.782 373.5,583C 302.203,625.025 228.537,629.691 152.5,597C 86.8348,566.001 44.3348,515.501 25,445.5C 23.1167,434.867 21.4501,424.2 20,413.5C 19.5,284.834 19.3333,156.167 19.5,27.5 Z"/></g>
<g><path style="opacity:1" fill="#f7a287" d="M 363.5,50.5 C 378.324,49.5039 393.324,49.1706 408.5,49.5C 408.819,54.3633 408.486,59.03 407.5,63.5C 407.5,59.1667 407.5,54.8333 407.5,50.5C 392.833,50.5 378.167,50.5 363.5,50.5 Z"/></g>
<g><path style="opacity:1" fill="#f7a186" d="M 413.5,50.5 C 428.324,49.5039 443.324,49.1706 458.5,49.5C 458.819,54.3633 458.486,59.03 457.5,63.5C 457.5,59.1667 457.5,54.8333 457.5,50.5C 442.833,50.5 428.167,50.5 413.5,50.5 Z"/></g>
<g><path style="opacity:1" fill="#fffbfa" d="M 43.5,130.5 C 43.1795,125.305 43.5128,120.305 44.5,115.5C 48.8499,119.174 53.8499,121.508 59.5,122.5C 69.9651,120.217 72.1318,114.55 66,105.5C 59.3014,99.1359 52.9681,92.4692 47,85.5C 38.2325,70.1417 41.7325,58.6417 57.5,51C 66.6546,48.416 75.3213,49.5827 83.5,54.5C 84.8333,59.1667 84.8333,63.8333 83.5,68.5C 78.9499,65.928 74.1165,64.2614 69,63.5C 59.6876,64.1361 57.3543,68.4695 62,76.5C 70.0705,83.9003 77.4038,91.9003 84,100.5C 89.4294,111.449 88.2627,121.616 80.5,131C 67.9977,139.725 55.6643,139.558 43.5,130.5 Z"/></g>
<g><path style="opacity:1" fill="#fffbfa" d="M 130.5,118.5 C 127.016,117.835 123.349,117.501 119.5,117.5C 115.435,117.511 111.768,118.178 108.5,119.5C 107.178,124.429 106.178,129.429 105.5,134.5C 99.5907,135.455 93.5907,135.789 87.5,135.5C 94.8333,106.833 102.167,78.1667 109.5,49.5C 116.167,49.5 122.833,49.5 129.5,49.5C 136.833,78.1667 144.167,106.833 151.5,135.5C 145.5,135.5 139.5,135.5 133.5,135.5C 132.977,129.744 131.977,124.078 130.5,118.5 Z"/></g>
<g><path style="opacity:1" fill="#fffefd" d="M 155.5,50.5 C 161.206,50.1712 166.872,50.5046 172.5,51.5C 180.005,67.8442 188.005,83.8442 196.5,99.5C 197.499,83.1803 197.833,66.8469 197.5,50.5C 202.833,50.5 208.167,50.5 213.5,50.5C 213.5,78.8333 213.5,107.167 213.5,135.5C 208.125,135.828 202.792,135.495 197.5,134.5C 189.661,117.489 181.328,100.822 172.5,84.5C 171.501,101.487 171.167,118.487 171.5,135.5C 166.167,135.5 160.833,135.5 155.5,135.5C 155.5,107.167 155.5,78.8333 155.5,50.5 Z"/></g>
<g><path style="opacity:1" fill="#fefffe" d="M 275.5,50.5 C 275.5,55.5 275.5,60.5 275.5,65.5C 268.978,65.1765 262.645,65.5098 256.5,66.5C 256.5,89.5 256.5,112.5 256.5,135.5C 250.5,135.5 244.5,135.5 238.5,135.5C 238.5,112.5 238.5,89.5 238.5,66.5C 232.355,65.5098 226.022,65.1765 219.5,65.5C 219.5,60.5 219.5,55.5 219.5,50.5C 238.167,50.5 256.833,50.5 275.5,50.5 Z"/></g>
<g><path style="opacity:1" fill="#fffcfb" d="M 329.5,133.5 C 324.265,135.45 318.598,136.117 312.5,135.5C 311.871,129.485 310.537,123.652 308.5,118C 301.508,117.5 294.508,117.334 287.5,117.5C 286.916,123.338 285.582,129.005 283.5,134.5C 277.872,135.495 272.206,135.829 266.5,135.5C 273.973,107.611 281.139,79.6107 288,51.5C 294.744,50.5212 301.578,50.1878 308.5,50.5C 315.653,78.1123 322.653,105.779 329.5,133.5 Z"/></g>
<g><path style="opacity:1" fill="#fefefe" d="M 363.5,50.5 C 378.167,50.5 392.833,50.5 407.5,50.5C 407.5,54.8333 407.5,59.1667 407.5,63.5C 398.833,63.5 390.167,63.5 381.5,63.5C 381.5,70.8333 381.5,78.1667 381.5,85.5C 389.65,86.4927 397.983,86.8261 406.5,86.5C 406.5,90.5 406.5,94.5 406.5,98.5C 397.983,98.1739 389.65,98.5073 381.5,99.5C 381.5,111.5 381.5,123.5 381.5,135.5C 375.5,135.5 369.5,135.5 363.5,135.5C 363.5,107.167 363.5,78.8333 363.5,50.5 Z"/></g>
<g><path style="opacity:1" fill="#fffdfc" d="M 413.5,50.5 C 428.167,50.5 442.833,50.5 457.5,50.5C 457.5,54.8333 457.5,59.1667 457.5,63.5C 448.833,63.5 440.167,63.5 431.5,63.5C 431.5,70.8333 431.5,78.1667 431.5,85.5C 440.167,85.5 448.833,85.5 457.5,85.5C 457.5,89.8333 457.5,94.1667 457.5,98.5C 448.651,98.1736 439.984,98.507 431.5,99.5C 431.5,107.167 431.5,114.833 431.5,122.5C 440.167,122.5 448.833,122.5 457.5,122.5C 457.5,126.833 457.5,131.167 457.5,135.5C 442.833,135.5 428.167,135.5 413.5,135.5C 413.5,107.167 413.5,78.8333 413.5,50.5 Z"/></g>
<g><path style="opacity:1" fill="#fab29b" d="M 276.5,50.5 C 276.167,50.5 275.833,50.5 275.5,50.5C 256.833,50.5 238.167,50.5 219.5,50.5C 219.5,55.5 219.5,60.5 219.5,65.5C 226.022,65.1765 232.355,65.5098 238.5,66.5C 231.833,66.5 225.167,66.5 218.5,66.5C 218.5,60.8333 218.5,55.1667 218.5,49.5C 238.007,49.1697 257.341,49.503 276.5,50.5 Z"/></g>
<g><path style="opacity:1" fill="#fbcfbe" d="M 275.5,50.5 C 275.833,50.5 276.167,50.5 276.5,50.5C 276.5,55.8333 276.5,61.1667 276.5,66.5C 269.833,66.5 263.167,66.5 256.5,66.5C 262.645,65.5098 268.978,65.1765 275.5,65.5C 275.5,60.5 275.5,55.5 275.5,50.5 Z"/></g>
<g><path style="opacity:1" fill="#ed2e2b" d="M 118.5,72.5 C 119.496,72.4142 120.329,72.7476 121,73.5C 123.362,84.1414 125.528,94.8081 127.5,105.5C 122.167,105.5 116.833,105.5 111.5,105.5C 113.678,94.4555 116.012,83.4555 118.5,72.5 Z"/></g>
<g><path style="opacity:1" fill="#ed2b29" d="M 297.5,72.5 C 298.931,72.8807 299.764,73.8807 300,75.5C 301.954,85.2251 304.12,94.8917 306.5,104.5C 301.208,105.495 295.875,105.828 290.5,105.5C 292.451,94.4128 294.784,83.4128 297.5,72.5 Z"/></g>
<g><path style="opacity:1" fill="#fac3ae" d="M 381.5,85.5 C 390.167,85.5 398.833,85.5 407.5,85.5C 407.5,90.1667 407.5,94.8333 407.5,99.5C 398.833,99.5 390.167,99.5 381.5,99.5C 389.65,98.5073 397.983,98.1739 406.5,98.5C 406.5,94.5 406.5,90.5 406.5,86.5C 397.983,86.8261 389.65,86.4927 381.5,85.5 Z"/></g>
<g><path style="opacity:1" fill="#f6a085" d="M 457.5,85.5 C 458.486,89.97 458.819,94.6367 458.5,99.5C 449.5,99.5 440.5,99.5 431.5,99.5C 439.984,98.507 448.651,98.1736 457.5,98.5C 457.5,94.1667 457.5,89.8333 457.5,85.5 Z"/></g>
<g><path style="opacity:1" fill="#f48d71" d="M 44.5,115.5 C 43.5128,120.305 43.1795,125.305 43.5,130.5C 42.1853,125.32 42.1853,119.986 43.5,114.5C 44.1067,114.624 44.44,114.957 44.5,115.5 Z"/></g>
<g><path style="opacity:1" fill="#f38367" d="M 130.5,118.5 C 123.08,118.203 115.746,118.536 108.5,119.5C 111.768,118.178 115.435,117.511 119.5,117.5C 123.349,117.501 127.016,117.835 130.5,118.5 Z"/></g>
<g><path style="opacity:1" fill="#f59478" d="M 105.5,134.5 C 102.913,135.816 99.9134,136.483 96.5,136.5C 93.3138,136.498 90.3138,136.165 87.5,135.5C 93.5907,135.789 99.5907,135.455 105.5,134.5 Z"/></g>
<g><path style="opacity:1" fill="#f59579" d="M 329.5,133.5 C 330.404,134.209 330.737,135.209 330.5,136.5C 324.31,136.823 318.31,136.49 312.5,135.5C 318.598,136.117 324.265,135.45 329.5,133.5 Z"/></g>
<g><path style="opacity:1" fill="#f69d81" d="M 457.5,122.5 C 458.486,126.97 458.819,131.637 458.5,136.5C 443.324,136.829 428.324,136.496 413.5,135.5C 428.167,135.5 442.833,135.5 457.5,135.5C 457.5,131.167 457.5,126.833 457.5,122.5 Z"/></g>
<g><path style="opacity:1" fill="#fde6da" d="M 458.5,159.5 C 319.833,159.5 181.167,159.5 42.5,159.5C 42.5,244.833 42.5,330.167 42.5,415.5C 41.5007,330.002 41.1673,244.335 41.5,158.5C 180.668,158.167 319.668,158.5 458.5,159.5 Z"/></g>
<g><path style="opacity:1" fill="#fffefe" d="M 458.5,159.5 C 458.667,245.834 458.5,332.167 458,418.5C 450.065,482.893 418.565,532.06 363.5,566C 287.243,608.291 211.243,607.958 135.5,565C 84.4695,532.933 53.6362,487.099 43,427.5C 42.5012,423.514 42.3345,419.514 42.5,415.5C 42.5,330.167 42.5,244.833 42.5,159.5C 181.167,159.5 319.833,159.5 458.5,159.5 Z"/></g>
<g><path style="opacity:1" fill="#ed1d24" d="M 346.5,334.5 C 385.015,331.169 413.182,346.502 431,380.5C 443.346,415.111 436.179,444.944 409.5,470C 385.342,487.97 359.008,491.97 330.5,482C 295.599,464.711 280.099,436.544 284,397.5C 292.379,363.955 313.212,342.955 346.5,334.5 Z"/></g>
</svg>
