<?xml version="1.0" encoding="UTF-8" standalone="no"?>
<!DOCTYPE svg PUBLIC "-//W3C//DTD SVG 1.1//EN" "http://www.w3.org/Graphics/SVG/1.1/DTD/svg11.dtd">
<svg xmlns="http://www.w3.org/2000/svg" version="1.1" viewBox="0.00 0.00 300.00 300.00">
<g stroke-width="2.00" fill="none" stroke-linecap="butt">
<path stroke="#f4f4f3" vector-effect="non-scaling-stroke" d="
  M 137.78 52.85
  Q 138.07 54.11 137.25 54.12
  C 133.47 54.16 129.88 55.07 126.13 55.40
  Q 124.88 55.52 122.41 57.54
  Q 122.00 57.87 121.48 57.87
  L 121.04 57.87
  Q 120.65 57.87 120.38 58.15
  Q 119.30 59.27 117.76 59.12
  Q 117.32 59.07 117.00 59.39
  Q 116.33 60.06 115.39 59.86
  Q 115.39 59.86 115.39 59.86
  Q 115.36 59.83 115.38 59.89
  Q 115.39 59.91 115.41 59.91
  Q 121.29 59.74 123.50 57.99
  Q 126.19 55.85 130.53 55.23
  Q 134.50 54.66 136.51 54.83
  Q 136.67 54.84 136.51 54.88
  Q 136.46 54.89 136.41 54.88
  A 0.53 0.19 11.4 0 0 136.06 54.93
  C 134.02 56.22 132.45 55.89 130.83 56.97
  Q 128.69 58.40 128.47 58.51
  Q 125.60 59.86 122.82 61.38
  Q 120.33 62.73 117.80 62.73
  A 2.06 2.06 0.0 0 0 115.74 64.93
  Q 115.75 65.18 116.56 65.50
  C 117.57 65.90 119.31 65.54 120.54 65.80
  Q 122.22 66.16 123.50 66.08
  Q 128.77 65.76 133.68 67.81
  Q 134.21 68.03 134.77 67.88
  Q 135.43 67.70 135.88 68.11
  A 1.09 0.13 44.6 0 0 136.56 68.64
  Q 145.43 71.03 154.24 73.51
  Q 156.87 74.25 159.58 77.31
  Q 161.74 79.75 163.46 80.80
  Q 166.38 82.58 169.48 84.04
  C 170.06 84.32 170.52 85.04 171.27 85.32
  Q 173.12 86.00 174.81 87.03
  Q 175.22 87.28 175.69 87.33
  C 177.85 87.57 180.17 88.62 181.79 88.98
  Q 190.90 91.02 199.74 89.21
  Q 205.75 87.98 215.09 85.59
  C 217.65 84.94 219.73 83.41 222.23 82.48
  A 1.61 1.61 0.0 0 1 224.40 84.15
  Q 224.36 84.52 224.58 85.25
  Q 224.71 85.70 225.10 86.19
  Q 226.91 88.44 226.73 91.10
  A 1.45 1.45 0.0 0 0 227.95 92.64
  Q 229.58 92.90 230.70 91.92
  Q 231.13 91.54 230.95 91.00
  L 230.00 88.19
  Q 229.85 87.74 229.96 87.27
  Q 230.54 84.78 232.75 83.37
  Q 236.24 81.15 237.77 77.34
  Q 237.95 76.88 238.39 76.67
  Q 239.00 76.36 239.11 76.00
  Q 240.01 73.07 241.11 70.21
  C 241.41 69.43 241.38 67.80 241.75 67.29
  Q 242.52 66.25 242.16 67.51
  L 240.27 74.08
  Q 240.15 74.48 239.83 74.76
  Q 239.30 75.22 239.46 75.97
  A 1.02 1.01 50.6 0 1 239.40 76.59
  Q 237.43 80.92 234.26 84.38
  Q 232.76 86.02 231.90 87.84
  A 1.84 1.84 0.0 0 0 233.78 90.45
  Q 236.01 90.18 238.02 91.10
  Q 238.12 91.15 238.12 91.26
  Q 238.13 91.38 238.12 91.51
  Q 238.11 91.94 238.53 91.88
  Q 244.62 91.07 246.53 85.49
  Q 246.69 85.04 247.02 84.69
  C 248.31 83.32 248.22 80.11 248.17 77.98
  C 248.10 74.69 248.74 72.06 249.40 69.00
  Q 249.42 68.91 249.51 68.86
  Q 249.64 68.80 249.76 68.74
  Q 249.93 68.66 249.96 68.47
  Q 250.68 61.65 256.35 58.14
  A 4.56 3.95 -87.3 0 0 257.80 56.62
  Q 258.16 55.99 257.78 55.34
  Q 257.50 54.87 256.82 54.67
  Q 254.02 53.89 251.72 55.08
  Q 251.01 55.45 247.58 57.55
  C 244.60 59.38 244.30 61.47 242.61 64.22
  C 241.74 65.63 241.51 67.03 240.30 68.45
  Q 239.99 68.81 239.93 69.28
  Q 239.81 70.22 239.14 70.88
  Q 238.87 71.14 238.87 71.52
  L 238.87 72.50
  A 1.43 1.41 67.0 0 1 238.48 73.48
  L 234.01 78.13
  Q 233.02 79.17 232.05 78.32
  Q 231.92 78.20 231.96 77.43
  Q 231.98 77.05 232.16 76.58
  Q 233.35 73.36 232.63 70.01
  A 0.79 0.78 -1.5 0 0 231.97 69.39
  Q 229.19 68.97 227.24 70.97
  Q 226.87 71.35 226.37 71.50
  C 222.83 72.54 220.08 75.17 217.43 76.41
  Q 215.41 77.37 213.33 78.20
  Q 211.52 78.92 209.00 79.02
  Q 206.56 79.11 204.15 79.52
  Q 203.65 79.60 203.24 79.92
  Q 202.00 80.90 200.46 80.90
  Q 199.90 80.89 199.40 81.13
  Q 189.62 85.78 179.36 82.64
  C 176.89 81.88 174.63 80.21 172.42 78.76
  C 167.05 75.24 162.43 69.02 155.98 68.13
  Q 155.53 68.07 155.14 67.86
  L 153.60 67.02
  Q 153.13 66.77 152.61 66.83
  Q 151.05 67.04 150.86 66.42
  Q 150.76 66.08 150.41 66.07
  C 146.26 65.95 140.22 66.78 139.23 63.08
  A 1.16 1.13 52.2 0 1 139.33 62.21
  L 140.72 59.74"
/>
<path stroke="#f4f4f3" vector-effect="non-scaling-stroke" d="
  M 270.24 51.73
  Q 270.36 52.83 269.62 52.89
  A 1.59 1.59 0.0 0 0 268.19 54.75
  Q 268.37 55.76 267.67 56.68"
/>
<path stroke="#e2e0df" vector-effect="non-scaling-stroke" d="
  M 267.67 56.68
  Q 266.84 58.77 265.92 59.78"
/>
<path stroke="#f4f4f3" vector-effect="non-scaling-stroke" d="
  M 265.92 59.78
  Q 264.43 61.17 263.42 62.78
  Q 261.78 65.37 261.28 66.00
  Q 255.52 73.19 253.40 77.26
  C 251.87 80.19 250.67 82.53 252.83 85.15
  Q 253.14 85.52 253.61 85.58
  C 255.90 85.88 256.11 89.11 255.77 91.00
  Q 255.37 93.18 252.99 96.24
  Q 250.82 99.03 251.41 104.03
  Q 251.44 104.32 251.24 104.52
  L 251.00 104.75
  Q 250.73 105.03 250.56 104.68
  Q 249.78 103.06 248.32 102.00
  C 246.77 100.87 244.27 101.35 244.32 98.26
  Q 244.33 97.71 243.83 97.49
  Q 243.00 97.12 242.31 97.45
  Q 241.68 97.76 241.43 98.84
  Q 240.40 103.35 239.71 107.93
  Q 239.66 108.31 239.99 108.51
  Q 240.27 108.67 240.52 108.54
  Q 240.89 108.32 241.18 108.65
  Q 241.41 108.90 241.48 109.33"
/>
<path stroke="#e2e0df" vector-effect="non-scaling-stroke" d="
  M 241.48 109.33
  C 240.12 112.26 244.72 115.05 246.68 110.77"
/>
<path stroke="#f4f4f3" vector-effect="non-scaling-stroke" d="
  M 246.68 110.77
  Q 246.69 109.89 247.11 109.57
  Q 247.63 109.19 247.63 109.83
  L 247.63 111.01
  Q 247.63 111.49 247.34 111.86
  L 245.37 114.42
  Q 245.02 114.86 245.37 115.30
  Q 246.28 116.45 247.12 117.62
  Q 247.93 118.74 249.29 119.67
  C 251.56 121.23 252.73 122.97 255.34 124.11
  C 260.41 126.33 266.91 131.49 265.60 137.61
  Q 264.66 141.98 263.86 143.00
  Q 262.81 144.34 262.13 145.87
  Q 261.92 146.34 261.47 146.59
  Q 260.51 147.11 260.46 147.23
  Q 258.69 150.70 261.86 148.44
  Q 263.16 147.51 264.06 145.53
  Q 264.22 145.18 264.55 145.00
  Q 264.95 144.77 264.96 144.34
  Q 264.96 143.89 265.34 143.66
  Q 266.28 143.06 266.84 141.55
  Q 268.43 137.21 268.60 135.87
  Q 269.33 130.22 265.57 126.07
  Q 264.58 124.97 263.55 123.92
  Q 262.65 123.00 261.13 122.34
  Q 258.18 121.06 256.28 118.99
  Q 252.89 115.28 254.67 108.61"
/>
<path stroke="#f4f4f3" vector-effect="non-scaling-stroke" d="
  M 264.73 117.84
  Q 264.84 118.06 264.87 118.25
  Q 264.96 118.88 264.31 118.88
  L 263.04 118.88
  A 0.37 0.37 0.0 0 0 262.84 119.56
  Q 264.13 120.38 267.60 122.13
  C 274.31 125.49 273.34 136.50 271.30 142.26"
/>
<path stroke="#e2e0df" vector-effect="non-scaling-stroke" d="
  M 271.30 142.26
  Q 268.71 147.70 264.62 151.28"
/>
<path stroke="#f4f4f3" vector-effect="non-scaling-stroke" d="
  M 264.62 151.28
  Q 262.97 151.71 261.63 152.70
  Q 261.24 152.98 260.76 153.03
  C 258.58 153.25 257.27 154.55 255.36 155.48
  C 253.69 156.29 252.70 157.98 251.78 158.88
  C 249.86 160.76 248.46 162.13 246.50 164.57
  Q 243.51 168.30 238.45 170.48
  A 0.83 0.81 -38.9 0 1 237.68 170.41
  Q 236.43 169.58 237.68 168.72
  Q 238.53 168.15 237.51 168.20
  Q 234.42 168.37 231.75 166.25
  Q 231.26 165.86 230.90 166.15
  Q 230.55 166.43 230.80 166.81
  Q 231.11 167.25 230.50 167.94
  A 0.90 0.88 -81.1 0 1 230.19 168.17
  C 226.50 169.82 222.82 171.23 219.53 173.73
  C 217.36 175.39 214.94 176.84 212.95 178.72
  Q 211.78 179.83 210.55 180.85
  C 209.39 181.82 207.75 182.21 206.48 183.35
  Q 206.15 183.64 205.70 183.63
  Q 205.06 183.60 204.74 183.87
  Q 199.76 188.11 194.07 191.29
  C 192.92 191.94 191.35 192.12 190.06 193.06
  Q 189.67 193.35 189.20 193.46
  L 181.42 195.24"
/>
<path stroke="#e2e0df" vector-effect="non-scaling-stroke" d="
  M 181.42 195.24
  C 174.02 196.57 168.70 196.87 162.63 196.87
  Q 158.32 196.88 154.03 196.54
  L 141.80 195.57
  Q 141.25 195.52 141.34 196.07
  C 142.06 200.45 136.84 199.48 135.13 197.61
  Q 131.07 193.19 125.78 191.63"
/>
<path stroke="#f4f4f3" vector-effect="non-scaling-stroke" d="
  M 125.78 191.63
  Q 125.62 190.67 123.56 190.89"
/>
<path stroke="#e2e0df" vector-effect="non-scaling-stroke" d="
  M 123.56 190.89
  L 120.17 189.53"
/>
<path stroke="#f4f4f3" vector-effect="non-scaling-stroke" d="
  M 120.17 189.53
  C 118.53 188.07 116.16 186.33 114.05 185.67
  Q 113.65 185.54 113.40 185.20
  Q 113.10 184.78 112.62 184.61
  Q 109.92 183.70 107.99 181.67
  Q 107.48 181.13 105.63 180.69
  Q 105.09 180.56 104.88 180.04
  Q 104.65 179.46 104.02 179.63
  A 0.76 0.74 56.5 0 1 103.33 179.48
  Q 100.54 177.15 97.28 175.59
  C 95.12 174.56 93.40 173.38 91.41 172.25
  C 89.84 171.37 88.78 169.76 86.83 169.11
  C 85.58 168.70 84.77 168.11 83.54 167.77
  Q 83.05 167.63 82.72 167.24
  Q 81.52 165.83 79.54 165.93
  Q 79.29 165.94 79.14 165.75
  Q 79.05 165.64 78.95 165.54
  Q 78.78 165.38 78.51 165.32
  Q 71.72 163.83 69.50 164.35
  C 67.14 164.90 64.58 164.79 62.34 165.59
  Q 61.18 166.01 59.98 166.30
  C 57.92 166.79 56.48 168.06 54.44 168.69"
/>
<path stroke="#e2e0df" vector-effect="non-scaling-stroke" d="
  M 54.44 168.69
  L 46.37 175.62
  Q 45.99 175.94 45.86 176.42
  Q 45.56 177.57 44.51 177.64
  C 42.89 177.75 42.37 176.08 42.40 174.74
  Q 42.49 171.21 43.84 168.28
  C 44.33 167.20 45.13 166.41 45.81 165.37
  C 47.19 163.28 49.81 161.66 51.76 160.11
  Q 51.90 160.00 51.79 159.86
  L 51.78 159.86
  Q 51.68 159.73 51.54 159.83
  C 48.24 162.49 43.57 164.83 42.25 169.27
  Q 41.44 171.99 41.13 174.55
  A 3.37 3.36 -70.3 0 0 42.66 177.80
  Q 43.52 178.35 44.95 177.73
  C 45.76 177.38 46.38 176.32 47.26 175.83
  Q 47.99 175.42 47.52 176.12
  Q 46.46 177.68 44.78 178.38"
/>
<path stroke="#f4f4f3" vector-effect="non-scaling-stroke" d="
  M 44.78 178.38
  C 43.23 178.65 42.04 178.86 40.48 178.21
  Q 36.86 176.69 32.98 176.25
  Q 32.52 176.20 32.28 175.81
  Q 31.64 174.79 30.33 174.47"
/>
<path stroke="#d7d5d3" vector-effect="non-scaling-stroke" d="
  M 95.24 178.26
  Q 96.22 178.45 96.77 178.01
  Q 97.15 177.71 97.61 177.86
  Q 98.44 178.12 98.94 178.83
  Q 99.23 179.23 99.69 179.39
  Q 102.44 180.34 103.25 181.01
  Q 106.65 183.81 108.94 184.85
  Q 112.51 186.48 114.41 187.79
  Q 114.89 188.13 115.48 188.13
  L 116.58 188.14
  Q 116.77 188.14 116.63 188.02
  Q 116.53 187.92 116.37 187.96
  Q 116.24 187.99 116.13 187.90
  Q 115.93 187.72 115.68 187.65
  Q 115.56 187.61 115.69 187.62
  Q 115.86 187.62 116.03 187.61
  Q 116.25 187.60 116.42 187.73
  Q 118.18 189.11 120.17 189.53"
/>
<path stroke="#d7d5d3" vector-effect="non-scaling-stroke" d="
  M 123.56 190.89
  L 122.68 190.96
  Q 122.54 190.97 122.66 191.04
  Q 124.59 192.19 125.78 191.63"
/>
<path stroke="#d7d5d3" vector-effect="non-scaling-stroke" d="
  M 181.42 195.24
  C 183.72 195.67 185.85 194.68 187.48 194.41
  C 193.41 193.43 198.55 190.52 203.94 188.38
  A 1.08 1.05 -1.5 0 0 204.54 187.76
  Q 204.72 187.25 205.04 187.03
  Q 209.07 184.42 212.97 181.62
  C 213.99 180.89 215.24 180.80 216.18 179.56
  Q 216.50 179.14 216.98 178.94
  Q 222.00 176.85 226.51 173.84
  A 1.44 1.42 -56.7 0 1 227.53 173.62
  Q 228.60 173.81 229.39 173.07
  Q 229.76 172.72 230.26 172.63
  L 232.61 172.19
  Q 233.08 172.11 233.53 172.26
  C 238.45 173.95 240.53 171.78 244.27 169.41
  Q 246.04 168.30 247.51 166.76
  Q 255.44 158.42 264.62 151.28"
/>
<path stroke="#d7d5d3" vector-effect="non-scaling-stroke" d="
  M 54.44 168.69
  Q 54.41 168.89 53.92 168.96
  Q 53.63 169.01 53.63 169.30
  L 53.63 169.70
  Q 53.63 170.15 54.08 170.08
  C 55.60 169.84 56.31 168.91 57.57 168.47
  Q 60.59 167.43 63.79 166.81
  Q 64.33 166.71 64.38 167.26
  Q 64.42 167.65 64.64 167.96
  Q 64.94 168.37 65.45 168.38
  L 70.78 168.40"
/>
<path stroke="#d7d5d3" vector-effect="non-scaling-stroke" d="
  M 36.40 182.22
  L 38.95 182.63
  Q 39.44 182.71 39.85 182.43
  L 44.73 179.20
  Q 44.93 179.07 44.69 179.02
  Q 44.57 179.00 44.42 179.01
  Q 44.16 179.03 44.38 178.89
  Q 44.76 178.65 44.78 178.38"
/>
<path stroke="#d7d5d3" vector-effect="non-scaling-stroke" d="
  M 259.46 83.29
  Q 258.84 83.32 258.55 82.53
  Q 258.41 82.14 258.03 82.32
  Q 257.54 82.56 257.28 81.98
  C 256.46 80.12 257.57 75.96 258.60 72.93
  Q 259.52 70.19 261.69 66.97
  Q 264.00 63.54 265.92 59.78"
/>
<path stroke="#d7d5d3" vector-effect="non-scaling-stroke" d="
  M 275.61 129.41
  Q 274.07 131.53 274.09 134.99
  Q 274.12 138.86 271.30 142.26"
/>
<path stroke="#d7d5d3" vector-effect="non-scaling-stroke" d="
  M 270.95 52.73
  Q 268.91 55.08 267.87 57.85
  Q 267.80 58.03 267.63 58.13
  Q 267.28 58.34 267.37 57.94
  L 267.67 56.68"
/>
<path stroke="#d7d5d3" vector-effect="non-scaling-stroke" d="
  M 259.48 90.43
  Q 259.23 90.85 258.93 91.11
  Q 258.43 91.55 258.12 90.96
  Q 257.96 90.68 257.50 90.78
  Q 257.22 90.84 257.13 91.11
  C 255.73 95.30 253.26 98.41 253.28 102.12
  Q 253.28 102.57 253.66 102.83
  C 254.78 103.60 254.51 105.31 254.46 106.42"
/>
<path stroke="#d7d5d3" vector-effect="non-scaling-stroke" d="
  M 246.68 110.77
  C 246.72 107.77 243.45 106.30 241.48 109.33"
/>
<path stroke="#e2e0df" vector-effect="non-scaling-stroke" d="
  M 264.45 183.71
  Q 260.34 182.35 256.14 184.80"
/>
<path stroke="#f4f4f3" vector-effect="non-scaling-stroke" d="
  M 250.44 190.48
  L 245.80 191.66"
/>
<path stroke="#e2e0df" vector-effect="non-scaling-stroke" d="
  M 245.80 191.66
  Q 239.84 193.91 235.96 191.26"
/>
<path stroke="#d7d5d3" vector-effect="non-scaling-stroke" d="
  M 251.05 192.57
  Q 244.97 195.50 240.48 193.97
  Q 238.36 193.25 240.57 193.59
  Q 241.69 193.77 243.30 193.64
  Q 243.48 193.62 243.30 193.63
  Q 242.05 193.68 240.48 193.54
  Q 240.42 193.53 240.42 193.48
  L 240.45 193.17
  Q 240.46 192.96 240.67 192.97
  Q 243.42 192.98 245.80 191.66"
/>
<path stroke="#f4f4f3" vector-effect="non-scaling-stroke" d="
  M 49.99 65.56
  C 49.31 66.18 48.25 66.26 47.72 67.49
  A 1.52 1.52 0.0 0 0 47.85 68.94
  Q 49.05 70.73 50.27 69.24
  Q 50.56 68.88 51.02 68.89
  Q 51.54 68.90 51.61 68.23
  Q 52.17 67.51 53.04 67.62
  A 1.40 1.38 31.8 0 0 53.96 67.41
  C 57.40 65.22 59.83 63.06 64.44 62.48
  C 65.82 62.31 66.91 61.57 68.00 61.31
  Q 73.29 60.09 78.69 59.79
  Q 80.71 59.67 83.17 58.91
  Q 85.40 58.22 87.73 57.98
  Q 93.99 57.35 94.24 57.31
  C 100.30 56.28 105.53 56.79 110.47 54.04
  Q 110.91 53.80 110.83 53.30
  Q 110.58 51.75 109.12 52.13
  C 105.46 53.07 102.39 54.20 98.25 53.53
  C 96.15 53.19 95.80 51.51 93.19 51.66
  Q 79.72 52.46 68.76 54.39
  Q 63.58 55.30 58.63 58.63
  C 57.94 59.10 57.36 60.00 56.54 60.53
  Q 53.07 62.80 49.99 65.56"
/>
<path stroke="#f4f4f3" vector-effect="non-scaling-stroke" d="
  M 33.96 88.04
  Q 33.55 88.25 33.31 88.65
  Q 32.75 89.61 32.68 89.70
  Q 27.90 95.11 27.36 97.12
  C 26.66 99.70 25.40 102.04 25.00 104.54
  Q 24.10 110.10 24.38 114.75
  Q 24.40 115.05 24.72 115.21
  Q 25.06 115.37 25.11 115.73
  Q 25.36 117.65 27.00 118.50
  Q 27.55 118.79 27.78 118.21
  C 28.27 116.92 28.93 116.42 29.13 115.00
  C 30.61 103.86 35.48 96.76 42.39 87.15
  C 44.40 84.36 46.32 82.53 48.93 80.56
  A 1.14 1.14 0.0 0 0 48.80 78.65
  Q 46.17 77.18 44.21 79.40
  Q 43.90 79.76 43.46 79.93
  Q 41.87 80.55 40.33 81.29
  Q 36.27 83.24 34.58 87.36
  Q 34.39 87.81 33.96 88.04"
/>
<path stroke="#e2e0df" vector-effect="non-scaling-stroke" d="
  M 221.33 101.90
  Q 217.91 104.75 221.16 106.60
  Q 221.61 106.85 222.11 106.73
  Q 225.04 105.98 228.00 105.34
  Q 232.61 104.35 234.72 100.95"
/>
<path stroke="#80a6d3" vector-effect="non-scaling-stroke" d="
  M 234.72 100.95
  Q 238.44 98.61 238.05 94.31
  A 2.26 2.25 -0.1 0 0 235.99 92.27
  C 232.95 92.02 226.72 96.29 223.99 97.98
  Q 222.03 99.20 221.33 101.90"
/>
<path stroke="#6287b2" vector-effect="non-scaling-stroke" d="
  M 234.72 100.95
  Q 230.26 102.55 226.25 103.76
  Q 222.56 104.88 221.33 101.90"
/>
<path stroke="#e2e0df" vector-effect="non-scaling-stroke" d="
  M 62.72 99.37
  Q 58.97 103.65 63.18 106.96
  Q 64.07 107.66 64.97 106.98
  L 65.26 106.76
  A 0.73 0.72 40.6 0 0 65.16 105.54
  Q 63.24 104.53 62.37 102.49
  Q 62.17 102.04 62.60 101.81
  Q 62.82 101.69 62.95 101.50"
/>
<path stroke="#80a6d3" vector-effect="non-scaling-stroke" d="
  M 62.95 101.50
  C 64.39 104.97 68.32 107.19 71.44 104.36
  C 78.72 97.75 66.23 88.93 62.72 99.37"
/>
<path stroke="#6287b2" vector-effect="non-scaling-stroke" d="
  M 62.95 101.50
  Q 62.62 100.34 62.72 99.37"
/>
<path stroke="#e2e0df" vector-effect="non-scaling-stroke" d="
  M 180.60 98.92
  Q 178.80 99.97 178.79 101.08
  Q 178.67 119.79 178.75 138.52
  C 178.76 140.85 179.61 142.41 181.58 143.44
  Q 193.10 149.48 201.67 141.76"
/>
<path stroke="#80a6d3" vector-effect="non-scaling-stroke" d="
  M 201.67 141.76
  Q 207.81 136.85 209.18 129.25
  C 210.93 119.50 208.14 104.58 194.45 106.87
  C 193.10 107.10 192.05 107.89 190.77 108.49
  Q 190.16 108.78 190.18 108.11
  C 190.28 105.10 191.16 98.05 189.04 95.84
  C 186.38 93.07 180.81 94.56 180.60 98.92"
/>
<path stroke="#6287b2" vector-effect="non-scaling-stroke" d="
  M 201.67 141.76
  Q 192.74 145.15 184.56 141.42
  C 181.89 140.20 180.63 138.83 180.66 135.67
  Q 180.80 117.33 180.60 98.92"
/>
<path stroke="#e2e0df" vector-effect="non-scaling-stroke" d="
  M 77.30 102.57
  Q 75.51 104.06 75.50 106.74
  Q 75.48 121.12 75.53 135.50
  C 75.55 140.39 79.08 144.32 83.83 145.53
  Q 90.96 147.35 95.49 142.13"
/>
<path stroke="#80a6d3" vector-effect="non-scaling-stroke" d="
  M 95.49 142.13
  Q 97.43 140.27 98.48 137.73"
/>
<path stroke="#e2e0df" vector-effect="non-scaling-stroke" d="
  M 98.48 137.73
  Q 99.44 138.66 100.22 140.10
  C 103.11 145.52 112.87 148.18 116.26 141.81"
/>
<path stroke="#e2e0df" vector-effect="non-scaling-stroke" d="
  M 116.26 141.81
  Q 116.53 141.65 116.78 141.70
  Q 117.26 141.78 117.31 142.28
  C 117.75 146.40 125.63 146.70 125.80 142.65"
/>
<path stroke="#809dd5" vector-effect="non-scaling-stroke" d="
  M 125.80 142.65
  C 127.59 141.75 128.47 140.50 128.47 138.37
  Q 128.52 125.42 128.48 112.46
  C 128.46 108.02 121.52 106.93 118.26 106.94
  Q 105.04 107.01 100.46 119.17"
/>
<path stroke="#80a6d3" vector-effect="non-scaling-stroke" d="
  M 100.46 119.17
  Q 100.27 119.26 100.18 119.43"
/>
<path stroke="#e2e0df" vector-effect="non-scaling-stroke" d="
  M 100.18 119.43
  Q 96.02 126.37 98.19 134.31
  Q 98.25 134.51 98.05 134.54
  Q 97.90 134.56 97.76 134.56"
/>
<path stroke="#80a6d3" vector-effect="non-scaling-stroke" d="
  M 97.76 134.56
  C 94.16 130.40 91.10 137.72 88.26 134.21
  C 86.08 131.51 86.97 121.93 87.05 118.25"
/>
<path stroke="#e2e0df" vector-effect="non-scaling-stroke" d="
  M 87.05 118.25
  C 89.59 118.18 93.44 119.17 94.06 115.61"
/>
<path stroke="#80a6d3" vector-effect="non-scaling-stroke" d="
  M 94.06 115.61
  Q 97.22 113.60 96.43 110.15
  C 95.44 105.83 90.92 107.14 87.50 107.03
  Q 86.97 107.02 86.97 106.49
  C 86.99 104.12 87.62 100.39 84.62 99.41
  Q 78.93 97.55 77.30 102.57"
/>
<path stroke="#6287b2" vector-effect="non-scaling-stroke" d="
  M 94.06 115.61
  L 87.73 115.68
  Q 87.17 115.69 87.05 116.24
  Q 86.86 117.17 87.05 118.25"
/>
<path stroke="#6287b2" vector-effect="non-scaling-stroke" d="
  M 97.76 134.56
  Q 98.70 135.76 98.48 137.73"
/>
<path stroke="#6287b2" vector-effect="non-scaling-stroke" d="
  M 95.49 142.13
  Q 82.72 145.96 78.81 137.66
  Q 77.34 134.53 77.36 126.60
  Q 77.41 114.59 77.30 102.57"
/>
<path stroke="#6287b2" vector-effect="non-scaling-stroke" d="
  M 119.19 139.91
  Q 118.79 139.57 118.50 139.79
  Q 117.84 140.28 116.26 141.81"
/>
<path stroke="#6287b2" vector-effect="non-scaling-stroke" d="
  M 116.26 141.81
  C 100.74 146.96 97.55 130.55 100.18 119.43"
/>
<path stroke="#627eb5" vector-effect="non-scaling-stroke" d="
  M 125.80 142.65
  C 123.23 143.11 119.78 142.93 119.19 139.91"
/>
<path stroke="#0044a9" vector-effect="non-scaling-stroke" d="
  M 119.19 139.91
  L 119.63 139.65
  Q 120.11 139.36 120.45 139.80
  C 122.38 142.31 127.07 142.12 127.08 138.00
  Q 127.11 125.10 127.07 112.19
  A 1.53 1.51 -63.7 0 0 126.79 111.34
  C 124.09 107.64 114.10 108.32 110.39 109.87
  C 105.46 111.92 103.39 115.84 101.31 120.59
  Q 100.97 121.37 100.64 120.59
  Q 100.43 120.09 100.46 119.17"
/>
<path stroke="#e2e0df" vector-effect="non-scaling-stroke" d="
  M 132.80 110.51
  Q 131.10 112.22 131.14 115.01
  Q 131.25 123.69 131.08 140.27
  Q 131.05 143.13 132.35 144.32
  C 134.17 145.98 139.53 146.31 139.63 142.67"
/>
<path stroke="#80a6d3" vector-effect="non-scaling-stroke" d="
  M 139.63 142.67
  Q 142.54 141.55 142.50 139.26
  Q 142.29 127.98 142.74 116.66"
/>
<path stroke="#e2e0df" vector-effect="non-scaling-stroke" d="
  M 142.74 116.66
  Q 147.84 118.17 147.86 120.75
  Q 147.90 130.04 147.86 139.36
  Q 147.84 142.45 148.73 143.70
  C 150.41 146.07 156.11 146.53 156.55 142.68"
/>
<path stroke="#80a6d3" vector-effect="non-scaling-stroke" d="
  M 156.55 142.68
  C 158.58 141.75 159.47 140.32 159.44 137.98
  Q 159.34 127.34 159.69 116.61"
/>
<path stroke="#e2e0df" vector-effect="non-scaling-stroke" d="
  M 159.69 116.61
  Q 164.87 118.01 164.85 121.00
  Q 164.80 130.60 164.78 140.22
  Q 164.78 142.85 165.83 143.99
  C 167.85 146.19 172.84 146.39 173.52 142.64"
/>
<path stroke="#80a6d3" vector-effect="non-scaling-stroke" d="
  M 173.52 142.64
  Q 176.23 141.44 176.24 139.51
  Q 176.31 130.04 176.22 120.58
  C 176.18 115.14 175.42 110.27 170.70 107.80
  Q 163.58 104.07 157.96 110.38
  Q 157.60 110.79 157.18 110.44
  C 156.50 109.88 155.88 109.05 155.27 108.64
  Q 148.94 104.31 142.66 108.95
  Q 142.32 109.21 141.98 108.94
  Q 135.93 104.08 132.80 110.51"
/>
<path stroke="#6287b2" vector-effect="non-scaling-stroke" d="
  M 173.52 142.64
  C 169.21 143.71 166.71 141.94 166.70 137.44
  Q 166.67 128.35 166.76 119.25
  C 166.80 114.66 162.93 114.13 159.69 116.61"
/>
<path stroke="#6287b2" vector-effect="non-scaling-stroke" d="
  M 156.55 142.68
  C 152.24 143.62 149.76 141.94 149.73 137.45
  Q 149.68 128.24 149.75 119.04
  C 149.76 116.91 148.97 115.68 147.00 115.07
  Q 145.12 114.48 142.74 116.66"
/>
<path stroke="#6287b2" vector-effect="non-scaling-stroke" d="
  M 139.63 142.67
  Q 136.22 143.40 134.38 141.90
  Q 133.01 140.79 132.99 137.63
  Q 132.91 124.33 132.80 110.51"
/>
<path stroke="#e2e0df" vector-effect="non-scaling-stroke" d="
  M 63.41 110.53
  Q 61.42 111.60 61.43 113.50
  Q 61.53 126.35 61.37 139.21
  C 61.32 143.25 62.62 145.79 67.01 145.44
  Q 69.59 145.24 70.48 142.55"
/>
<path stroke="#80a6d3" vector-effect="non-scaling-stroke" d="
  M 70.48 142.55
  Q 73.01 141.25 73.01 138.25
  Q 73.02 124.79 73.01 111.33
  C 73.01 109.72 72.39 108.38 71.00 107.70
  Q 65.46 105.01 63.41 110.53"
/>
<path stroke="#6287b2" vector-effect="non-scaling-stroke" d="
  M 70.48 142.55
  Q 66.87 143.60 64.93 141.82
  Q 63.57 140.57 63.52 137.27
  Q 63.35 123.91 63.41 110.53"
/>
<path stroke="#e2e0df" vector-effect="non-scaling-stroke" d="
  M 212.76 120.26
  Q 210.98 123.10 211.52 127.01
  C 211.74 128.59 210.60 130.26 210.86 132.03
  C 212.33 141.94 221.87 146.53 230.99 145.17
  Q 235.22 144.55 236.93 141.25"
/>
<path stroke="#809dd5" vector-effect="non-scaling-stroke" d="
  M 236.93 141.25
  C 240.19 138.93 242.72 134.37 238.51 131.93
  A 2.74 2.74 0.0 0 0 235.65 132.00
  C 231.13 134.91 224.55 135.89 221.71 130.07
  A 0.45 0.45 0.0 0 1 222.18 129.42
  L 224.03 129.69"
/>
<path stroke="#e2e0df" vector-effect="non-scaling-stroke" d="
  M 224.03 129.69
  Q 223.33 131.48 224.22 131.67
  Q 231.95 133.39 235.84 128.07"
/>
<path stroke="#809dd5" vector-effect="non-scaling-stroke" d="
  M 235.84 128.07
  Q 241.40 124.05 241.18 118.53
  C 240.77 108.08 229.39 104.68 221.27 108.95
  Q 214.91 112.30 212.76 120.26"
/>
<path stroke="#627eb5" vector-effect="non-scaling-stroke" d="
  M 235.84 128.07
  Q 229.92 130.17 224.03 129.69"
/>
<path stroke="#627eb5" vector-effect="non-scaling-stroke" d="
  M 236.93 141.25
  Q 227.75 144.84 219.73 140.09
  Q 213.99 136.68 213.01 131.01
  Q 212.38 127.39 212.76 120.26"
/>
<path stroke="#f4f4f3" vector-effect="non-scaling-stroke" d="
  M 32.78 120.10
  Q 32.03 121.03 31.64 122.51
  Q 28.33 135.28 28.95 147.75
  Q 29.02 149.12 29.24 149.82
  Q 29.38 150.29 29.35 150.78
  C 29.23 152.49 30.31 153.41 30.63 154.77
  Q 32.36 162.08 33.66 163.86
  Q 35.83 166.84 37.13 170.00
  A 1.07 1.07 0.0 0 0 39.08 170.05
  Q 40.21 167.65 40.09 164.85
  C 40.04 163.71 39.28 162.90 39.37 161.56
  Q 39.40 161.06 39.16 160.61
  Q 37.93 158.26 37.87 155.63
  C 37.83 154.02 37.11 152.57 37.10 151.25
  Q 37.10 150.47 36.64 150.37
  Q 35.95 145.32 36.14 140.23
  Q 36.15 140.14 36.06 140.13
  Q 35.94 140.12 35.81 140.02
  Q 35.78 139.99 35.78 139.96
  C 35.55 132.41 37.78 127.14 40.24 120.73
  Q 40.29 120.63 40.40 120.62
  Q 40.53 120.62 40.66 120.62
  Q 40.77 120.62 40.77 120.51
  Q 40.81 119.68 41.65 117.37
  Q 42.45 115.16 41.83 111.06
  A 0.73 0.73 0.0 0 0 41.31 110.47
  C 38.06 109.55 38.08 112.06 36.80 113.68
  C 35.42 115.44 33.60 116.82 33.15 119.28
  Q 33.07 119.74 32.78 120.10"
/>
<path stroke="#e2e0df" vector-effect="non-scaling-stroke" d="
  M 195.35 185.55
  L 207.20 176.94"
/>
<path stroke="#f4f4f3" vector-effect="non-scaling-stroke" d="
  M 207.20 176.94
  Q 212.21 174.38 215.51 170.02
  Q 215.84 169.59 216.18 169.45
  Q 216.39 169.37 216.56 169.22
  L 220.47 165.78
  Q 221.19 165.15 220.23 165.11
  Q 217.74 165.01 215.49 166.21
  Q 215.07 166.43 214.60 166.39
  Q 213.59 166.29 213.25 166.49
  C 211.04 167.76 208.78 168.33 206.63 169.72
  Q 205.77 170.27 204.75 170.52
  Q 201.51 171.31 198.33 172.26
  C 196.25 172.88 194.30 174.40 192.15 174.68
  C 190.73 174.86 189.38 175.61 188.14 175.84
  Q 186.43 176.15 184.75 176.63
  Q 184.48 176.70 184.40 176.90
  Q 184.30 177.16 184.03 177.19
  L 178.77 177.75
  Q 178.26 177.81 177.91 177.43
  C 176.33 175.69 172.07 176.85 170.16 177.46
  Q 169.21 177.76 166.98 179.44
  Q 164.77 181.10 161.75 180.94
  Q 161.54 180.93 161.45 181.09
  Q 161.33 181.29 161.10 181.32
  C 158.09 181.70 152.92 182.14 150.06 181.03
  Q 149.69 180.88 149.29 180.91
  Q 145.87 181.10 142.46 181.25
  C 138.07 181.44 133.78 180.68 129.33 180.28
  Q 127.25 180.09 125.25 179.47
  Q 123.25 178.84 121.24 178.26
  Q 117.81 177.26 115.48 175.87
  C 112.54 174.12 110.04 171.68 107.06 170.11
  Q 106.15 169.62 105.44 168.85
  C 104.60 167.93 103.69 167.43 102.68 166.80
  A 0.53 0.53 0.0 0 1 102.52 166.05
  Q 102.67 165.82 102.92 165.63
  Q 103.29 165.34 103.95 165.35
  C 113.43 165.51 121.85 166.45 131.65 163.30
  C 133.17 162.81 134.19 161.55 135.70 160.81
  Q 136.09 160.62 136.25 160.21
  Q 137.00 158.32 135.26 157.90
  C 133.16 157.39 130.15 158.18 126.73 157.60
  Q 126.30 157.52 126.06 157.78
  Q 125.75 158.11 125.29 158.14
  Q 119.32 158.50 113.33 158.63
  C 112.27 158.66 111.19 158.21 110.09 158.13
  C 106.85 157.92 103.68 156.78 100.42 156.37
  Q 96.04 155.82 93.22 154.92
  Q 89.53 153.75 85.87 152.49
  A 1.43 1.41 -43.3 0 0 85.00 152.47
  Q 83.17 153.00 81.49 152.28
  Q 80.99 152.06 80.44 152.10
  Q 79.10 152.20 77.74 152.11
  Q 74.90 151.90 72.29 153.09
  Q 71.63 153.39 72.26 153.75
  Q 72.72 154.01 73.34 153.91
  Q 73.35 153.90 73.34 153.91
  Q 72.93 154.07 73.51 154.69
  A 0.54 0.48 68.3 0 0 73.81 154.84
  Q 75.66 155.04 77.38 155.15
  Q 79.25 155.27 80.95 155.95
  Q 83.65 157.02 86.44 157.85
  A 1.14 1.12 -3.3 0 1 87.15 158.47
  Q 87.76 159.79 89.11 159.89
  Q 89.61 159.93 89.98 160.27
  C 91.43 161.67 93.10 162.40 94.57 163.72
  Q 96.50 165.46 98.51 166.49
  Q 98.79 166.64 99.21 166.63
  Q 99.67 166.62 99.88 167.02
  C 101.25 169.59 103.65 169.85 105.13 171.81
  Q 105.42 172.20 105.88 172.38
  Q 106.92 172.77 107.39 173.11
  Q 111.29 175.87 115.42 178.27
  Q 116.86 179.11 118.16 180.23
  C 121.07 182.76 123.96 184.31 128.93 185.87
  C 131.94 186.81 135.21 187.24 138.43 187.92
  C 149.17 190.22 159.34 190.27 170.05 187.66
  Q 170.10 187.64 170.14 187.61
  L 170.37 187.38
  A 0.89 0.85 22.4 0 1 171.01 187.13
  C 173.10 187.23 175.26 186.92 176.95 185.60
  C 178.27 184.57 179.62 185.71 180.97 184.46
  Q 181.40 184.06 181.65 183.98
  Q 182.04 183.87 182.45 183.87
  Q 182.96 183.86 183.42 183.65
  L 188.72 181.18
  Q 190.99 180.12 189.80 182.34
  Q 189.54 182.83 188.28 183.92
  Q 187.26 184.82 187.49 187.38
  Q 187.54 187.85 188.01 187.86
  C 189.56 187.91 190.57 188.08 192.02 187.26
  Q 193.59 186.38 195.35 185.55"
/>
<path stroke="#d7d5d3" vector-effect="non-scaling-stroke" d="
  M 207.20 176.94
  L 211.42 171.73
  Q 211.86 171.19 211.19 171.37
  Q 208.59 172.07 206.14 173.17
  A 4.45 0.21 -24.9 0 1 203.57 174.22
  C 202.53 174.54 201.49 174.44 200.43 175.09
  Q 198.81 176.09 197.01 176.74
  A 1.13 1.13 0.0 0 0 196.56 177.03
  L 190.64 183.26
  Q 190.25 183.67 190.37 184.22
  Q 190.57 185.09 191.18 185.80
  Q 191.53 186.21 192.07 186.12
  L 195.35 185.55"
/>
<path stroke="#6287b2" vector-effect="non-scaling-stroke" d="
  M 198.49 130.62
  Q 201.26 125.26 199.33 119.19"
/>
<path stroke="#80a6d3" vector-effect="non-scaling-stroke" d="
  M 199.33 119.19
  C 197.86 114.00 192.35 114.64 190.69 119.14
  Q 190.28 120.24 190.27 122.39
  Q 190.24 128.01 190.27 133.62
  Q 190.27 134.14 190.78 134.27
  Q 196.48 135.71 198.49 130.62"
/>
<path stroke="#e2e0df" vector-effect="non-scaling-stroke" d="
  M 199.33 119.19
  Q 199.12 119.41 199.11 119.66
  Q 199.09 119.93 198.82 119.90
  C 198.60 119.88 198.36 119.69 198.28 119.47
  Q 197.02 115.88 193.27 117.03
  Q 192.82 117.17 192.90 117.60
  Q 192.99 118.06 193.47 118.11
  C 198.53 118.59 198.64 126.87 198.49 130.62"
/>
<path stroke="#0044a9" vector-effect="non-scaling-stroke" d="
  M 214.40 129.79
  C 215.59 139.42 226.41 142.70 234.71 140.56
  C 237.15 139.93 238.71 138.75 239.10 136.27
  Q 239.45 134.00 237.60 132.99
  Q 237.16 132.75 236.73 132.98
  C 233.84 134.52 230.20 136.54 226.80 135.64
  Q 222.31 134.45 220.26 129.93
  A 0.61 0.61 0.0 0 1 221.00 129.10
  Q 221.63 129.30 221.87 128.74
  Q 222.07 128.27 222.58 128.27
  C 225.35 128.25 230.23 128.70 232.69 127.56
  C 235.91 126.06 238.10 125.61 239.05 121.76
  C 241.01 113.80 236.48 108.46 228.35 108.54
  C 220.76 108.61 217.40 112.97 214.54 119.25
  Q 213.66 121.21 213.78 123.45
  Q 213.94 126.32 214.03 129.22
  Q 214.03 129.28 214.07 129.32
  Q 214.16 129.41 214.25 129.50
  Q 214.37 129.62 214.40 129.79"
/>
<path stroke="#80a6d3" vector-effect="non-scaling-stroke" d="
  M 223.51 117.30
  L 221.32 120.56
  A 0.82 0.81 -65.4 0 0 221.78 121.80
  Q 226.85 123.21 231.31 121.18"
/>
<path stroke="#6287b2" vector-effect="non-scaling-stroke" d="
  M 231.31 121.18
  C 236.07 116.35 226.75 111.94 223.51 117.30"
/>
<path stroke="#e2e0df" vector-effect="non-scaling-stroke" d="
  M 231.31 121.18
  C 229.63 116.73 226.86 118.00 223.51 117.30"
/>
<path stroke="#80a6d3" vector-effect="non-scaling-stroke" d="
  M 111.62 118.17
  C 108.81 121.22 108.47 126.30 109.48 130.13
  C 110.66 134.58 114.92 135.76 117.53 131.41"
/>
<path stroke="#6287b2" vector-effect="non-scaling-stroke" d="
  M 117.53 131.41
  C 119.80 127.67 119.01 120.38 118.82 116.05
  Q 118.80 115.55 118.29 115.52
  Q 114.22 115.29 111.62 118.17"
/>
<path stroke="#e2e0df" vector-effect="non-scaling-stroke" d="
  M 117.53 131.41
  L 117.22 118.93
  A 0.98 0.98 0.0 0 0 115.99 118.01
  Q 113.67 118.65 111.62 118.17"
/>
</g>
<path fill="#ffffff" d="
  M 137.78 52.85
  Q 138.07 54.11 137.25 54.12
  C 133.47 54.16 129.88 55.07 126.13 55.40
  Q 124.88 55.52 122.41 57.54
  Q 122.00 57.87 121.48 57.87
  L 121.04 57.87
  Q 120.65 57.87 120.38 58.15
  Q 119.30 59.27 117.76 59.12
  Q 117.32 59.07 117.00 59.39
  Q 116.33 60.06 115.39 59.86
  Q 115.39 59.86 115.39 59.86
  Q 115.36 59.83 115.38 59.89
  Q 115.39 59.91 115.41 59.91
  Q 121.29 59.74 123.50 57.99
  Q 126.19 55.85 130.53 55.23
  Q 134.50 54.66 136.51 54.83
  Q 136.67 54.84 136.51 54.88
  Q 136.46 54.89 136.41 54.88
  A 0.53 0.19 11.4 0 0 136.06 54.93
  C 134.02 56.22 132.45 55.89 130.83 56.97
  Q 128.69 58.40 128.47 58.51
  Q 125.60 59.86 122.82 61.38
  Q 120.33 62.73 117.80 62.73
  A 2.06 2.06 0.0 0 0 115.74 64.93
  Q 115.75 65.18 116.56 65.50
  C 117.57 65.90 119.31 65.54 120.54 65.80
  Q 122.22 66.16 123.50 66.08
  Q 128.77 65.76 133.68 67.81
  Q 134.21 68.03 134.77 67.88
  Q 135.43 67.70 135.88 68.11
  A 1.09 0.13 44.6 0 0 136.56 68.64
  Q 145.43 71.03 154.24 73.51
  Q 156.87 74.25 159.58 77.31
  Q 161.74 79.75 163.46 80.80
  Q 166.38 82.58 169.48 84.04
  C 170.06 84.32 170.52 85.04 171.27 85.32
  Q 173.12 86.00 174.81 87.03
  Q 175.22 87.28 175.69 87.33
  C 177.85 87.57 180.17 88.62 181.79 88.98
  Q 190.90 91.02 199.74 89.21
  Q 205.75 87.98 215.09 85.59
  C 217.65 84.94 219.73 83.41 222.23 82.48
  A 1.61 1.61 0.0 0 1 224.40 84.15
  Q 224.36 84.52 224.58 85.25
  Q 224.71 85.70 225.10 86.19
  Q 226.91 88.44 226.73 91.10
  A 1.45 1.45 0.0 0 0 227.95 92.64
  Q 229.58 92.90 230.70 91.92
  Q 231.13 91.54 230.95 91.00
  L 230.00 88.19
  Q 229.85 87.74 229.96 87.27
  Q 230.54 84.78 232.75 83.37
  Q 236.24 81.15 237.77 77.34
  Q 237.95 76.88 238.39 76.67
  Q 239.00 76.36 239.11 76.00
  Q 240.01 73.07 241.11 70.21
  C 241.41 69.43 241.38 67.80 241.75 67.29
  Q 242.52 66.25 242.16 67.51
  L 240.27 74.08
  Q 240.15 74.48 239.83 74.76
  Q 239.30 75.22 239.46 75.97
  A 1.02 1.01 50.6 0 1 239.40 76.59
  Q 237.43 80.92 234.26 84.38
  Q 232.76 86.02 231.90 87.84
  A 1.84 1.84 0.0 0 0 233.78 90.45
  Q 236.01 90.18 238.02 91.10
  Q 238.12 91.15 238.12 91.26
  Q 238.13 91.38 238.12 91.51
  Q 238.11 91.94 238.53 91.88
  Q 244.62 91.07 246.53 85.49
  Q 246.69 85.04 247.02 84.69
  C 248.31 83.32 248.22 80.11 248.17 77.98
  C 248.10 74.69 248.74 72.06 249.40 69.00
  Q 249.42 68.91 249.51 68.86
  Q 249.64 68.80 249.76 68.74
  Q 249.93 68.66 249.96 68.47
  Q 250.68 61.65 256.35 58.14
  A 4.56 3.95 -87.3 0 0 257.80 56.62
  Q 258.16 55.99 257.78 55.34
  Q 257.50 54.87 256.82 54.67
  Q 254.02 53.89 251.72 55.08
  Q 251.01 55.45 247.58 57.55
  C 244.60 59.38 244.30 61.47 242.61 64.22
  C 241.74 65.63 241.51 67.03 240.30 68.45
  Q 239.99 68.81 239.93 69.28
  Q 239.81 70.22 239.14 70.88
  Q 238.87 71.14 238.87 71.52
  L 238.87 72.50
  A 1.43 1.41 67.0 0 1 238.48 73.48
  L 234.01 78.13
  Q 233.02 79.17 232.05 78.32
  Q 231.92 78.20 231.96 77.43
  Q 231.98 77.05 232.16 76.58
  Q 233.35 73.36 232.63 70.01
  A 0.79 0.78 -1.5 0 0 231.97 69.39
  Q 229.19 68.97 227.24 70.97
  Q 226.87 71.35 226.37 71.50
  C 222.83 72.54 220.08 75.17 217.43 76.41
  Q 215.41 77.37 213.33 78.20
  Q 211.52 78.92 209.00 79.02
  Q 206.56 79.11 204.15 79.52
  Q 203.65 79.60 203.24 79.92
  Q 202.00 80.90 200.46 80.90
  Q 199.90 80.89 199.40 81.13
  Q 189.62 85.78 179.36 82.64
  C 176.89 81.88 174.63 80.21 172.42 78.76
  C 167.05 75.24 162.43 69.02 155.98 68.13
  Q 155.53 68.07 155.14 67.86
  L 153.60 67.02
  Q 153.13 66.77 152.61 66.83
  Q 151.05 67.04 150.86 66.42
  Q 150.76 66.08 150.41 66.07
  C 146.26 65.95 140.22 66.78 139.23 63.08
  A 1.16 1.13 52.2 0 1 139.33 62.21
  L 140.72 59.74
  C 145.37 62.78 152.84 62.17 158.24 62.34
  C 167.17 62.63 169.82 67.62 174.03 74.24
  C 177.66 79.96 187.13 80.41 192.75 78.46
  C 195.69 77.44 199.32 74.99 203.81 74.95
  C 210.84 74.90 217.37 71.13 222.11 66.11
  C 224.60 63.46 230.14 61.62 233.52 58.90
  C 239.31 54.25 244.57 50.95 251.75 48.69
  C 257.58 46.86 266.12 46.70 270.24 51.73
  Q 270.36 52.83 269.62 52.89
  A 1.59 1.59 0.0 0 0 268.19 54.75
  Q 268.37 55.76 267.67 56.68
  Q 266.84 58.77 265.92 59.78
  Q 264.43 61.17 263.42 62.78
  Q 261.78 65.37 261.28 66.00
  Q 255.52 73.19 253.40 77.26
  C 251.87 80.19 250.67 82.53 252.83 85.15
  Q 253.14 85.52 253.61 85.58
  C 255.90 85.88 256.11 89.11 255.77 91.00
  Q 255.37 93.18 252.99 96.24
  Q 250.82 99.03 251.41 104.03
  Q 251.44 104.32 251.24 104.52
  L 251.00 104.75
  Q 250.73 105.03 250.56 104.68
  Q 249.78 103.06 248.32 102.00
  C 246.77 100.87 244.27 101.35 244.32 98.26
  Q 244.33 97.71 243.83 97.49
  Q 243.00 97.12 242.31 97.45
  Q 241.68 97.76 241.43 98.84
  Q 240.40 103.35 239.71 107.93
  Q 239.66 108.31 239.99 108.51
  Q 240.27 108.67 240.52 108.54
  Q 240.89 108.32 241.18 108.65
  Q 241.41 108.90 241.48 109.33
  C 240.12 112.26 244.72 115.05 246.68 110.77
  Q 246.69 109.89 247.11 109.57
  Q 247.63 109.19 247.63 109.83
  L 247.63 111.01
  Q 247.63 111.49 247.34 111.86
  L 245.37 114.42
  Q 245.02 114.86 245.37 115.30
  Q 246.28 116.45 247.12 117.62
  Q 247.93 118.74 249.29 119.67
  C 251.56 121.23 252.73 122.97 255.34 124.11
  C 260.41 126.33 266.91 131.49 265.60 137.61
  Q 264.66 141.98 263.86 143.00
  Q 262.81 144.34 262.13 145.87
  Q 261.92 146.34 261.47 146.59
  Q 260.51 147.11 260.46 147.23
  Q 258.69 150.70 261.86 148.44
  Q 263.16 147.51 264.06 145.53
  Q 264.22 145.18 264.55 145.00
  Q 264.95 144.77 264.96 144.34
  Q 264.96 143.89 265.34 143.66
  Q 266.28 143.06 266.84 141.55
  Q 268.43 137.21 268.60 135.87
  Q 269.33 130.22 265.57 126.07
  Q 264.58 124.97 263.55 123.92
  Q 262.65 123.00 261.13 122.34
  Q 258.18 121.06 256.28 118.99
  Q 252.89 115.28 254.67 108.61
  Q 257.38 115.34 264.73 117.84
  Q 264.84 118.06 264.87 118.25
  Q 264.96 118.88 264.31 118.88
  L 263.04 118.88
  A 0.37 0.37 0.0 0 0 262.84 119.56
  Q 264.13 120.38 267.60 122.13
  C 274.31 125.49 273.34 136.50 271.30 142.26
  Q 268.71 147.70 264.62 151.28
  Q 262.97 151.71 261.63 152.70
  Q 261.24 152.98 260.76 153.03
  C 258.58 153.25 257.27 154.55 255.36 155.48
  C 253.69 156.29 252.70 157.98 251.78 158.88
  C 249.86 160.76 248.46 162.13 246.50 164.57
  Q 243.51 168.30 238.45 170.48
  A 0.83 0.81 -38.9 0 1 237.68 170.41
  Q 236.43 169.58 237.68 168.72
  Q 238.53 168.15 237.51 168.20
  Q 234.42 168.37 231.75 166.25
  Q 231.26 165.86 230.90 166.15
  Q 230.55 166.43 230.80 166.81
  Q 231.11 167.25 230.50 167.94
  A 0.90 0.88 -81.1 0 1 230.19 168.17
  C 226.50 169.82 222.82 171.23 219.53 173.73
  C 217.36 175.39 214.94 176.84 212.95 178.72
  Q 211.78 179.83 210.55 180.85
  C 209.39 181.82 207.75 182.21 206.48 183.35
  Q 206.15 183.64 205.70 183.63
  Q 205.06 183.60 204.74 183.87
  Q 199.76 188.11 194.07 191.29
  C 192.92 191.94 191.35 192.12 190.06 193.06
  Q 189.67 193.35 189.20 193.46
  L 181.42 195.24
  C 174.02 196.57 168.70 196.87 162.63 196.87
  Q 158.32 196.88 154.03 196.54
  L 141.80 195.57
  Q 141.25 195.52 141.34 196.07
  C 142.06 200.45 136.84 199.48 135.13 197.61
  Q 131.07 193.19 125.78 191.63
  Q 125.62 190.67 123.56 190.89
  L 120.17 189.53
  C 118.53 188.07 116.16 186.33 114.05 185.67
  Q 113.65 185.54 113.40 185.20
  Q 113.10 184.78 112.62 184.61
  Q 109.92 183.70 107.99 181.67
  Q 107.48 181.13 105.63 180.69
  Q 105.09 180.56 104.88 180.04
  Q 104.65 179.46 104.02 179.63
  A 0.76 0.74 56.5 0 1 103.33 179.48
  Q 100.54 177.15 97.28 175.59
  C 95.12 174.56 93.40 173.38 91.41 172.25
  C 89.84 171.37 88.78 169.76 86.83 169.11
  C 85.58 168.70 84.77 168.11 83.54 167.77
  Q 83.05 167.63 82.72 167.24
  Q 81.52 165.83 79.54 165.93
  Q 79.29 165.94 79.14 165.75
  Q 79.05 165.64 78.95 165.54
  Q 78.78 165.38 78.51 165.32
  Q 71.72 163.83 69.50 164.35
  C 67.14 164.90 64.58 164.79 62.34 165.59
  Q 61.18 166.01 59.98 166.30
  C 57.92 166.79 56.48 168.06 54.44 168.69
  L 46.37 175.62
  Q 45.99 175.94 45.86 176.42
  Q 45.56 177.57 44.51 177.64
  C 42.89 177.75 42.37 176.08 42.40 174.74
  Q 42.49 171.21 43.84 168.28
  C 44.33 167.20 45.13 166.41 45.81 165.37
  C 47.19 163.28 49.81 161.66 51.76 160.11
  Q 51.90 160.00 51.79 159.86
  L 51.78 159.86
  Q 51.68 159.73 51.54 159.83
  C 48.24 162.49 43.57 164.83 42.25 169.27
  Q 41.44 171.99 41.13 174.55
  A 3.37 3.36 -70.3 0 0 42.66 177.80
  Q 43.52 178.35 44.95 177.73
  C 45.76 177.38 46.38 176.32 47.26 175.83
  Q 47.99 175.42 47.52 176.12
  Q 46.46 177.68 44.78 178.38
  C 43.23 178.65 42.04 178.86 40.48 178.21
  Q 36.86 176.69 32.98 176.25
  Q 32.52 176.20 32.28 175.81
  Q 31.64 174.79 30.33 174.47
  Q 22.52 161.85 18.80 145.49
  C 15.65 131.65 13.68 117.80 15.47 104.28
  Q 19.93 70.73 50.89 53.70
  C 57.19 50.24 65.29 47.66 72.77 47.67
  Q 72.81 47.67 77.72 48.21
  Q 82.85 48.78 88.24 46.51
  Q 91.14 45.29 94.30 46.36
  C 96.67 47.15 98.22 50.30 101.25 49.54
  Q 107.49 47.96 111.72 50.88
  Q 113.80 52.32 115.08 52.58
  C 122.31 54.04 131.67 46.71 137.78 52.85
  Z
  M 49.99 65.56
  C 49.31 66.18 48.25 66.26 47.72 67.49
  A 1.52 1.52 0.0 0 0 47.85 68.94
  Q 49.05 70.73 50.27 69.24
  Q 50.56 68.88 51.02 68.89
  Q 51.54 68.90 51.61 68.23
  Q 52.17 67.51 53.04 67.62
  A 1.40 1.38 31.8 0 0 53.96 67.41
  C 57.40 65.22 59.83 63.06 64.44 62.48
  C 65.82 62.31 66.91 61.57 68.00 61.31
  Q 73.29 60.09 78.69 59.79
  Q 80.71 59.67 83.17 58.91
  Q 85.40 58.22 87.73 57.98
  Q 93.99 57.35 94.24 57.31
  C 100.30 56.28 105.53 56.79 110.47 54.04
  Q 110.91 53.80 110.83 53.30
  Q 110.58 51.75 109.12 52.13
  C 105.46 53.07 102.39 54.20 98.25 53.53
  C 96.15 53.19 95.80 51.51 93.19 51.66
  Q 79.72 52.46 68.76 54.39
  Q 63.58 55.30 58.63 58.63
  C 57.94 59.10 57.36 60.00 56.54 60.53
  Q 53.07 62.80 49.99 65.56
  Z
  M 33.96 88.04
  Q 33.55 88.25 33.31 88.65
  Q 32.75 89.61 32.68 89.70
  Q 27.90 95.11 27.36 97.12
  C 26.66 99.70 25.40 102.04 25.00 104.54
  Q 24.10 110.10 24.38 114.75
  Q 24.40 115.05 24.72 115.21
  Q 25.06 115.37 25.11 115.73
  Q 25.36 117.65 27.00 118.50
  Q 27.55 118.79 27.78 118.21
  C 28.27 116.92 28.93 116.42 29.13 115.00
  C 30.61 103.86 35.48 96.76 42.39 87.15
  C 44.40 84.36 46.32 82.53 48.93 80.56
  A 1.14 1.14 0.0 0 0 48.80 78.65
  Q 46.17 77.18 44.21 79.40
  Q 43.90 79.76 43.46 79.93
  Q 41.87 80.55 40.33 81.29
  Q 36.27 83.24 34.58 87.36
  Q 34.39 87.81 33.96 88.04
  Z
  M 221.33 101.90
  Q 217.91 104.75 221.16 106.60
  Q 221.61 106.85 222.11 106.73
  Q 225.04 105.98 228.00 105.34
  Q 232.61 104.35 234.72 100.95
  Q 238.44 98.61 238.05 94.31
  A 2.26 2.25 -0.1 0 0 235.99 92.27
  C 232.95 92.02 226.72 96.29 223.99 97.98
  Q 222.03 99.20 221.33 101.90
  Z
  M 62.72 99.37
  Q 58.97 103.65 63.18 106.96
  Q 64.07 107.66 64.97 106.98
  L 65.26 106.76
  A 0.73 0.72 40.6 0 0 65.16 105.54
  Q 63.24 104.53 62.37 102.49
  Q 62.17 102.04 62.60 101.81
  Q 62.82 101.69 62.95 101.50
  C 64.39 104.97 68.32 107.19 71.44 104.36
  C 78.72 97.75 66.23 88.93 62.72 99.37
  Z
  M 180.60 98.92
  Q 178.80 99.97 178.79 101.08
  Q 178.67 119.79 178.75 138.52
  C 178.76 140.85 179.61 142.41 181.58 143.44
  Q 193.10 149.48 201.67 141.76
  Q 207.81 136.85 209.18 129.25
  C 210.93 119.50 208.14 104.58 194.45 106.87
  C 193.10 107.10 192.05 107.89 190.77 108.49
  Q 190.16 108.78 190.18 108.11
  C 190.28 105.10 191.16 98.05 189.04 95.84
  C 186.38 93.07 180.81 94.56 180.60 98.92
  Z
  M 77.30 102.57
  Q 75.51 104.06 75.50 106.74
  Q 75.48 121.12 75.53 135.50
  C 75.55 140.39 79.08 144.32 83.83 145.53
  Q 90.96 147.35 95.49 142.13
  Q 97.43 140.27 98.48 137.73
  Q 99.44 138.66 100.22 140.10
  C 103.11 145.52 112.87 148.18 116.26 141.81
  Q 116.53 141.65 116.78 141.70
  Q 117.26 141.78 117.31 142.28
  C 117.75 146.40 125.63 146.70 125.80 142.65
  C 127.59 141.75 128.47 140.50 128.47 138.37
  Q 128.52 125.42 128.48 112.46
  C 128.46 108.02 121.52 106.93 118.26 106.94
  Q 105.04 107.01 100.46 119.17
  Q 100.27 119.26 100.18 119.43
  Q 96.02 126.37 98.19 134.31
  Q 98.25 134.51 98.05 134.54
  Q 97.90 134.56 97.76 134.56
  C 94.16 130.40 91.10 137.72 88.26 134.21
  C 86.08 131.51 86.97 121.93 87.05 118.25
  C 89.59 118.18 93.44 119.17 94.06 115.61
  Q 97.22 113.60 96.43 110.15
  C 95.44 105.83 90.92 107.14 87.50 107.03
  Q 86.97 107.02 86.97 106.49
  C 86.99 104.12 87.62 100.39 84.62 99.41
  Q 78.93 97.55 77.30 102.57
  Z
  M 132.80 110.51
  Q 131.10 112.22 131.14 115.01
  Q 131.25 123.69 131.08 140.27
  Q 131.05 143.13 132.35 144.32
  C 134.17 145.98 139.53 146.31 139.63 142.67
  Q 142.54 141.55 142.50 139.26
  Q 142.29 127.98 142.74 116.66
  Q 147.84 118.17 147.86 120.75
  Q 147.90 130.04 147.86 139.36
  Q 147.84 142.45 148.73 143.70
  C 150.41 146.07 156.11 146.53 156.55 142.68
  C 158.58 141.75 159.47 140.32 159.44 137.98
  Q 159.34 127.34 159.69 116.61
  Q 164.87 118.01 164.85 121.00
  Q 164.80 130.60 164.78 140.22
  Q 164.78 142.85 165.83 143.99
  C 167.85 146.19 172.84 146.39 173.52 142.64
  Q 176.23 141.44 176.24 139.51
  Q 176.31 130.04 176.22 120.58
  C 176.18 115.14 175.42 110.27 170.70 107.80
  Q 163.58 104.07 157.96 110.38
  Q 157.60 110.79 157.18 110.44
  C 156.50 109.88 155.88 109.05 155.27 108.64
  Q 148.94 104.31 142.66 108.95
  Q 142.32 109.21 141.98 108.94
  Q 135.93 104.08 132.80 110.51
  Z
  M 63.41 110.53
  Q 61.42 111.60 61.43 113.50
  Q 61.53 126.35 61.37 139.21
  C 61.32 143.25 62.62 145.79 67.01 145.44
  Q 69.59 145.24 70.48 142.55
  Q 73.01 141.25 73.01 138.25
  Q 73.02 124.79 73.01 111.33
  C 73.01 109.72 72.39 108.38 71.00 107.70
  Q 65.46 105.01 63.41 110.53
  Z
  M 212.76 120.26
  Q 210.98 123.10 211.52 127.01
  C 211.74 128.59 210.60 130.26 210.86 132.03
  C 212.33 141.94 221.87 146.53 230.99 145.17
  Q 235.22 144.55 236.93 141.25
  C 240.19 138.93 242.72 134.37 238.51 131.93
  A 2.74 2.74 0.0 0 0 235.65 132.00
  C 231.13 134.91 224.55 135.89 221.71 130.07
  A 0.45 0.45 0.0 0 1 222.18 129.42
  L 224.03 129.69
  Q 223.33 131.48 224.22 131.67
  Q 231.95 133.39 235.84 128.07
  Q 241.40 124.05 241.18 118.53
  C 240.77 108.08 229.39 104.68 221.27 108.95
  Q 214.91 112.30 212.76 120.26
  Z
  M 32.78 120.10
  Q 32.03 121.03 31.64 122.51
  Q 28.33 135.28 28.95 147.75
  Q 29.02 149.12 29.24 149.82
  Q 29.38 150.29 29.35 150.78
  C 29.23 152.49 30.31 153.41 30.63 154.77
  Q 32.36 162.08 33.66 163.86
  Q 35.83 166.84 37.13 170.00
  A 1.07 1.07 0.0 0 0 39.08 170.05
  Q 40.21 167.65 40.09 164.85
  C 40.04 163.71 39.28 162.90 39.37 161.56
  Q 39.40 161.06 39.16 160.61
  Q 37.93 158.26 37.87 155.63
  C 37.83 154.02 37.11 152.57 37.10 151.25
  Q 37.10 150.47 36.64 150.37
  Q 35.95 145.32 36.14 140.23
  Q 36.15 140.14 36.06 140.13
  Q 35.94 140.12 35.81 140.02
  Q 35.78 139.99 35.78 139.96
  C 35.55 132.41 37.78 127.14 40.24 120.73
  Q 40.29 120.63 40.40 120.62
  Q 40.53 120.62 40.66 120.62
  Q 40.77 120.62 40.77 120.51
  Q 40.81 119.68 41.65 117.37
  Q 42.45 115.16 41.83 111.06
  A 0.73 0.73 0.0 0 0 41.31 110.47
  C 38.06 109.55 38.08 112.06 36.80 113.68
  C 35.42 115.44 33.60 116.82 33.15 119.28
  Q 33.07 119.74 32.78 120.10
  Z
  M 195.35 185.55
  L 207.20 176.94
  Q 212.21 174.38 215.51 170.02
  Q 215.84 169.59 216.18 169.45
  Q 216.39 169.37 216.56 169.22
  L 220.47 165.78
  Q 221.19 165.15 220.23 165.11
  Q 217.74 165.01 215.49 166.21
  Q 215.07 166.43 214.60 166.39
  Q 213.59 166.29 213.25 166.49
  C 211.04 167.76 208.78 168.33 206.63 169.72
  Q 205.77 170.27 204.75 170.52
  Q 201.51 171.31 198.33 172.26
  C 196.25 172.88 194.30 174.40 192.15 174.68
  C 190.73 174.86 189.38 175.61 188.14 175.84
  Q 186.43 176.15 184.75 176.63
  Q 184.48 176.70 184.40 176.90
  Q 184.30 177.16 184.03 177.19
  L 178.77 177.75
  Q 178.26 177.81 177.91 177.43
  C 176.33 175.69 172.07 176.85 170.16 177.46
  Q 169.21 177.76 166.98 179.44
  Q 164.77 181.10 161.75 180.94
  Q 161.54 180.93 161.45 181.09
  Q 161.33 181.29 161.10 181.32
  C 158.09 181.70 152.92 182.14 150.06 181.03
  Q 149.69 180.88 149.29 180.91
  Q 145.87 181.10 142.46 181.25
  C 138.07 181.44 133.78 180.68 129.33 180.28
  Q 127.25 180.09 125.25 179.47
  Q 123.25 178.84 121.24 178.26
  Q 117.81 177.26 115.48 175.87
  C 112.54 174.12 110.04 171.68 107.06 170.11
  Q 106.15 169.62 105.44 168.85
  C 104.60 167.93 103.69 167.43 102.68 166.80
  A 0.53 0.53 0.0 0 1 102.52 166.05
  Q 102.67 165.82 102.92 165.63
  Q 103.29 165.34 103.95 165.35
  C 113.43 165.51 121.85 166.45 131.65 163.30
  C 133.17 162.81 134.19 161.55 135.70 160.81
  Q 136.09 160.62 136.25 160.21
  Q 137.00 158.32 135.26 157.90
  C 133.16 157.39 130.15 158.18 126.73 157.60
  Q 126.30 157.52 126.06 157.78
  Q 125.75 158.11 125.29 158.14
  Q 119.32 158.50 113.33 158.63
  C 112.27 158.66 111.19 158.21 110.09 158.13
  C 106.85 157.92 103.68 156.78 100.42 156.37
  Q 96.04 155.82 93.22 154.92
  Q 89.53 153.75 85.87 152.49
  A 1.43 1.41 -43.3 0 0 85.00 152.47
  Q 83.17 153.00 81.49 152.28
  Q 80.99 152.06 80.44 152.10
  Q 79.10 152.20 77.74 152.11
  Q 74.90 151.90 72.29 153.09
  Q 71.63 153.39 72.26 153.75
  Q 72.72 154.01 73.34 153.91
  Q 73.35 153.90 73.34 153.91
  Q 72.93 154.07 73.51 154.69
  A 0.54 0.48 68.3 0 0 73.81 154.84
  Q 75.66 155.04 77.38 155.15
  Q 79.25 155.27 80.95 155.95
  Q 83.65 157.02 86.44 157.85
  A 1.14 1.12 -3.3 0 1 87.15 158.47
  Q 87.76 159.79 89.11 159.89
  Q 89.61 159.93 89.98 160.27
  C 91.43 161.67 93.10 162.40 94.57 163.72
  Q 96.50 165.46 98.51 166.49
  Q 98.79 166.64 99.21 166.63
  Q 99.67 166.62 99.88 167.02
  C 101.25 169.59 103.65 169.85 105.13 171.81
  Q 105.42 172.20 105.88 172.38
  Q 106.92 172.77 107.39 173.11
  Q 111.29 175.87 115.42 178.27
  Q 116.86 179.11 118.16 180.23
  C 121.07 182.76 123.96 184.31 128.93 185.87
  C 131.94 186.81 135.21 187.24 138.43 187.92
  C 149.17 190.22 159.34 190.27 170.05 187.66
  Q 170.10 187.64 170.14 187.61
  L 170.37 187.38
  A 0.89 0.85 22.4 0 1 171.01 187.13
  C 173.10 187.23 175.26 186.92 176.95 185.60
  C 178.27 184.57 179.62 185.71 180.97 184.46
  Q 181.40 184.06 181.65 183.98
  Q 182.04 183.87 182.45 183.87
  Q 182.96 183.86 183.42 183.65
  L 188.72 181.18
  Q 190.99 180.12 189.80 182.34
  Q 189.54 182.83 188.28 183.92
  Q 187.26 184.82 187.49 187.38
  Q 187.54 187.85 188.01 187.86
  C 189.56 187.91 190.57 188.08 192.02 187.26
  Q 193.59 186.38 195.35 185.55
  Z"
/>
<path fill="#e9e9e7" d="
  M 49.99 65.56
  Q 53.07 62.80 56.54 60.53
  C 57.36 60.00 57.94 59.10 58.63 58.63
  Q 63.58 55.30 68.76 54.39
  Q 79.72 52.46 93.19 51.66
  C 95.80 51.51 96.15 53.19 98.25 53.53
  C 102.39 54.20 105.46 53.07 109.12 52.13
  Q 110.58 51.75 110.83 53.30
  Q 110.91 53.80 110.47 54.04
  C 105.53 56.79 100.30 56.28 94.24 57.31
  Q 93.99 57.35 87.73 57.98
  Q 85.40 58.22 83.17 58.91
  Q 80.71 59.67 78.69 59.79
  Q 73.29 60.09 68.00 61.31
  C 66.91 61.57 65.82 62.31 64.44 62.48
  C 59.83 63.06 57.40 65.22 53.96 67.41
  A 1.40 1.38 31.8 0 1 53.04 67.62
  Q 52.17 67.51 51.61 68.23
  Q 51.54 68.90 51.02 68.89
  Q 50.56 68.88 50.27 69.24
  Q 49.05 70.73 47.85 68.94
  A 1.52 1.52 0.0 0 1 47.72 67.49
  C 48.25 66.26 49.31 66.18 49.99 65.56
  Z"
/>
<path fill="#e9e9e7" d="
  M 270.24 51.73
  L 270.95 52.73
  Q 268.91 55.08 267.87 57.85
  Q 267.80 58.03 267.63 58.13
  Q 267.28 58.34 267.37 57.94
  L 267.67 56.68
  Q 268.37 55.76 268.19 54.75
  A 1.59 1.59 0.0 0 1 269.62 52.89
  Q 270.36 52.83 270.24 51.73
  Z"
/>
<path fill="#c4c1be" d="
  M 270.95 52.73
  Q 272.88 57.18 269.83 61.61
  C 264.95 68.72 258.93 73.20 259.46 83.29
  Q 258.84 83.32 258.55 82.53
  Q 258.41 82.14 258.03 82.32
  Q 257.54 82.56 257.28 81.98
  C 256.46 80.12 257.57 75.96 258.60 72.93
  Q 259.52 70.19 261.69 66.97
  Q 264.00 63.54 265.92 59.78
  Q 266.84 58.77 267.67 56.68
  L 267.37 57.94
  Q 267.28 58.34 267.63 58.13
  Q 267.80 58.03 267.87 57.85
  Q 268.91 55.08 270.95 52.73
  Z"
/>
<path fill="#e9e9e7" d="
  M 137.78 52.85
  C 139.41 55.14 138.55 57.41 140.72 59.74
  L 139.33 62.21
  A 1.16 1.13 52.2 0 0 139.23 63.08
  C 140.22 66.78 146.26 65.95 150.41 66.07
  Q 150.76 66.08 150.86 66.42
  Q 151.05 67.04 152.61 66.83
  Q 153.13 66.77 153.60 67.02
  L 155.14 67.86
  Q 155.53 68.07 155.98 68.13
  C 162.43 69.02 167.05 75.24 172.42 78.76
  C 174.63 80.21 176.89 81.88 179.36 82.64
  Q 189.62 85.78 199.40 81.13
  Q 199.90 80.89 200.46 80.90
  Q 202.00 80.90 203.24 79.92
  Q 203.65 79.60 204.15 79.52
  Q 206.56 79.11 209.00 79.02
  Q 211.52 78.92 213.33 78.20
  Q 215.41 77.37 217.43 76.41
  C 220.08 75.17 222.83 72.54 226.37 71.50
  Q 226.87 71.35 227.24 70.97
  Q 229.19 68.97 231.97 69.39
  A 0.79 0.78 -1.5 0 1 232.63 70.01
  Q 233.35 73.36 232.16 76.58
  Q 231.98 77.05 231.96 77.43
  Q 231.92 78.20 232.05 78.32
  Q 233.02 79.17 234.01 78.13
  L 238.48 73.48
  A 1.43 1.41 67.0 0 0 238.87 72.50
  L 238.87 71.52
  Q 238.87 71.14 239.14 70.88
  Q 239.81 70.22 239.93 69.28
  Q 239.99 68.81 240.30 68.45
  C 241.51 67.03 241.74 65.63 242.61 64.22
  C 244.30 61.47 244.60 59.38 247.58 57.55
  Q 251.01 55.45 251.72 55.08
  Q 254.02 53.89 256.82 54.67
  Q 257.50 54.87 257.78 55.34
  Q 258.16 55.99 257.80 56.62
  A 4.56 3.95 -87.3 0 1 256.35 58.14
  Q 250.68 61.65 249.96 68.47
  Q 249.93 68.66 249.76 68.74
  Q 249.64 68.80 249.51 68.86
  Q 249.42 68.91 249.40 69.00
  C 248.74 72.06 248.10 74.69 248.17 77.98
  C 248.22 80.11 248.31 83.32 247.02 84.69
  Q 246.69 85.04 246.53 85.49
  Q 244.62 91.07 238.53 91.88
  Q 238.11 91.94 238.12 91.51
  Q 238.13 91.38 238.12 91.26
  Q 238.12 91.15 238.02 91.10
  Q 236.01 90.18 233.78 90.45
  A 1.84 1.84 0.0 0 1 231.90 87.84
  Q 232.76 86.02 234.26 84.38
  Q 237.43 80.92 239.40 76.59
  A 1.02 1.01 50.6 0 0 239.46 75.97
  Q 239.30 75.22 239.83 74.76
  Q 240.15 74.48 240.27 74.08
  L 242.16 67.51
  Q 242.52 66.25 241.75 67.29
  C 241.38 67.80 241.41 69.43 241.11 70.21
  Q 240.01 73.07 239.11 76.00
  Q 239.00 76.36 238.39 76.67
  Q 237.95 76.88 237.77 77.34
  Q 236.24 81.15 232.75 83.37
  Q 230.54 84.78 229.96 87.27
  Q 229.85 87.74 230.00 88.19
  L 230.95 91.00
  Q 231.13 91.54 230.70 91.92
  Q 229.58 92.90 227.95 92.64
  A 1.45 1.45 0.0 0 1 226.73 91.10
  Q 226.91 88.44 225.10 86.19
  Q 224.71 85.70 224.58 85.25
  Q 224.36 84.52 224.40 84.15
  A 1.61 1.61 0.0 0 0 222.23 82.48
  C 219.73 83.41 217.65 84.94 215.09 85.59
  Q 205.75 87.98 199.74 89.21
  Q 190.90 91.02 181.79 88.98
  C 180.17 88.62 177.85 87.57 175.69 87.33
  Q 175.22 87.28 174.81 87.03
  Q 173.12 86.00 171.27 85.32
  C 170.52 85.04 170.06 84.32 169.48 84.04
  Q 166.38 82.58 163.46 80.80
  Q 161.74 79.75 159.58 77.31
  Q 156.87 74.25 154.24 73.51
  Q 145.43 71.03 136.56 68.64
  A 1.09 0.13 44.6 0 1 135.88 68.11
  Q 135.43 67.70 134.77 67.88
  Q 134.21 68.03 133.68 67.81
  Q 128.77 65.76 123.50 66.08
  Q 122.22 66.16 120.54 65.80
  C 119.31 65.54 117.57 65.90 116.56 65.50
  Q 115.75 65.18 115.74 64.93
  A 2.06 2.06 0.0 0 1 117.80 62.73
  Q 120.33 62.73 122.82 61.38
  Q 125.60 59.86 128.47 58.51
  Q 128.69 58.40 130.83 56.97
  C 132.45 55.89 134.02 56.22 136.06 54.93
  A 0.53 0.19 11.4 0 1 136.41 54.88
  Q 136.46 54.89 136.51 54.88
  Q 136.67 54.84 136.51 54.83
  Q 134.50 54.66 130.53 55.23
  Q 126.19 55.85 123.50 57.99
  Q 121.29 59.74 115.41 59.91
  Q 115.39 59.91 115.38 59.89
  Q 115.36 59.83 115.39 59.86
  Q 115.39 59.86 115.39 59.86
  Q 116.33 60.06 117.00 59.39
  Q 117.32 59.07 117.76 59.12
  Q 119.30 59.27 120.38 58.15
  Q 120.65 57.87 121.04 57.87
  L 121.48 57.87
  Q 122.00 57.87 122.41 57.54
  Q 124.88 55.52 126.13 55.40
  C 129.88 55.07 133.47 54.16 137.25 54.12
  Q 138.07 54.11 137.78 52.85
  Z"
/>
<path fill="#e9e9e7" d="
  M 265.92 59.78
  Q 264.00 63.54 261.69 66.97
  Q 259.52 70.19 258.60 72.93
  C 257.57 75.96 256.46 80.12 257.28 81.98
  Q 257.54 82.56 258.03 82.32
  Q 258.41 82.14 258.55 82.53
  Q 258.84 83.32 259.46 83.29
  L 259.48 90.43
  Q 259.23 90.85 258.93 91.11
  Q 258.43 91.55 258.12 90.96
  Q 257.96 90.68 257.50 90.78
  Q 257.22 90.84 257.13 91.11
  C 255.73 95.30 253.26 98.41 253.28 102.12
  Q 253.28 102.57 253.66 102.83
  C 254.78 103.60 254.51 105.31 254.46 106.42
  Q 254.92 107.87 254.67 108.61
  Q 252.89 115.28 256.28 118.99
  Q 258.18 121.06 261.13 122.34
  Q 262.65 123.00 263.55 123.92
  Q 264.58 124.97 265.57 126.07
  Q 269.33 130.22 268.60 135.87
  Q 268.43 137.21 266.84 141.55
  Q 266.28 143.06 265.34 143.66
  Q 264.96 143.89 264.96 144.34
  Q 264.95 144.77 264.55 145.00
  Q 264.22 145.18 264.06 145.53
  Q 263.16 147.51 261.86 148.44
  Q 258.69 150.70 260.46 147.23
  Q 260.51 147.11 261.47 146.59
  Q 261.92 146.34 262.13 145.87
  Q 262.81 144.34 263.86 143.00
  Q 264.66 141.98 265.60 137.61
  C 266.91 131.49 260.41 126.33 255.34 124.11
  C 252.73 122.97 251.56 121.23 249.29 119.67
  Q 247.93 118.74 247.12 117.62
  Q 246.28 116.45 245.37 115.30
  Q 245.02 114.86 245.37 114.42
  L 247.34 111.86
  Q 247.63 111.49 247.63 111.01
  L 247.63 109.83
  Q 247.63 109.19 247.11 109.57
  Q 246.69 109.89 246.68 110.77
  C 246.72 107.77 243.45 106.30 241.48 109.33
  Q 241.41 108.90 241.18 108.65
  Q 240.89 108.32 240.52 108.54
  Q 240.27 108.67 239.99 108.51
  Q 239.66 108.31 239.71 107.93
  Q 240.40 103.35 241.43 98.84
  Q 241.68 97.76 242.31 97.45
  Q 243.00 97.12 243.83 97.49
  Q 244.33 97.71 244.32 98.26
  C 244.27 101.35 246.77 100.87 248.32 102.00
  Q 249.78 103.06 250.56 104.68
  Q 250.73 105.03 251.00 104.75
  L 251.24 104.52
  Q 251.44 104.32 251.41 104.03
  Q 250.82 99.03 252.99 96.24
  Q 255.37 93.18 255.77 91.00
  C 256.11 89.11 255.90 85.88 253.61 85.58
  Q 253.14 85.52 252.83 85.15
  C 250.67 82.53 251.87 80.19 253.40 77.26
  Q 255.52 73.19 261.28 66.00
  Q 261.78 65.37 263.42 62.78
  Q 264.43 61.17 265.92 59.78
  Z"
/>
<path fill="#180e0e" fill-opacity="0.192" d="
  M 267.83 66.91
  Q 267.96 66.72 268.17 66.58
  Q 268.87 66.08 268.87 66.94
  L 268.87 67.37
  Q 268.87 67.83 269.19 68.16
  Q 272.56 71.70 269.17 75.66
  Q 265.86 79.53 262.05 82.79
  A 0.35 0.35 0.0 0 1 261.48 82.59
  C 261.16 80.92 260.61 78.48 261.90 77.08
  Q 262.25 76.70 262.14 76.20
  Q 261.88 75.09 262.56 74.25
  Q 262.85 73.88 262.89 73.43
  L 262.95 72.77
  Q 262.98 72.35 263.40 72.24
  C 263.83 72.13 266.39 68.50 267.25 67.72
  Q 267.32 67.65 267.83 66.91
  Z"
/>
<path fill="#e9e9e7" d="
  M 34.58 87.36
  Q 36.27 83.24 40.33 81.29
  Q 41.87 80.55 43.46 79.93
  Q 43.90 79.76 44.21 79.40
  Q 46.17 77.18 48.80 78.65
  A 1.14 1.14 0.0 0 1 48.93 80.56
  C 46.32 82.53 44.40 84.36 42.39 87.15
  C 35.48 96.76 30.61 103.86 29.13 115.00
  C 28.93 116.42 28.27 116.92 27.78 118.21
  Q 27.55 118.79 27.00 118.50
  Q 25.36 117.65 25.11 115.73
  Q 25.06 115.37 24.72 115.21
  Q 24.40 115.05 24.38 114.75
  Q 24.10 110.10 25.00 104.54
  C 25.40 102.04 26.66 99.70 27.36 97.12
  Q 27.90 95.11 32.68 89.70
  Q 32.75 89.61 33.31 88.65
  Q 33.55 88.25 33.96 88.04
  Q 34.39 87.81 34.58 87.36
  Z"
/>
<path fill="#c4c1be" d="
  M 259.48 90.43
  L 254.46 106.42
  C 254.51 105.31 254.78 103.60 253.66 102.83
  Q 253.28 102.57 253.28 102.12
  C 253.26 98.41 255.73 95.30 257.13 91.11
  Q 257.22 90.84 257.50 90.78
  Q 257.96 90.68 258.12 90.96
  Q 258.43 91.55 258.93 91.11
  Q 259.23 90.85 259.48 90.43
  Z"
/>
<path fill="#004da6" d="
  M 234.72 100.95
  Q 230.26 102.55 226.25 103.76
  Q 222.56 104.88 221.33 101.90
  Q 222.03 99.20 223.99 97.98
  C 226.72 96.29 232.95 92.02 235.99 92.27
  A 2.26 2.25 -0.1 0 1 238.05 94.31
  Q 238.44 98.61 234.72 100.95
  Z"
/>
<path fill="#004da6" d="
  M 62.95 101.50
  Q 62.62 100.34 62.72 99.37
  C 66.23 88.93 78.72 97.75 71.44 104.36
  C 68.32 107.19 64.39 104.97 62.95 101.50
  Z"
/>
<path fill="#004da6" d="
  M 201.67 141.76
  Q 192.74 145.15 184.56 141.42
  C 181.89 140.20 180.63 138.83 180.66 135.67
  Q 180.80 117.33 180.60 98.92
  C 180.81 94.56 186.38 93.07 189.04 95.84
  C 191.16 98.05 190.28 105.10 190.18 108.11
  Q 190.16 108.78 190.77 108.49
  C 192.05 107.89 193.10 107.10 194.45 106.87
  C 208.14 104.58 210.93 119.50 209.18 129.25
  Q 207.81 136.85 201.67 141.76
  Z
  M 198.49 130.62
  Q 201.26 125.26 199.33 119.19
  C 197.86 114.00 192.35 114.64 190.69 119.14
  Q 190.28 120.24 190.27 122.39
  Q 190.24 128.01 190.27 133.62
  Q 190.27 134.14 190.78 134.27
  Q 196.48 135.71 198.49 130.62
  Z"
/>
<path fill="#004da6" d="
  M 94.06 115.61
  L 87.73 115.68
  Q 87.17 115.69 87.05 116.24
  Q 86.86 117.17 87.05 118.25
  C 86.97 121.93 86.08 131.51 88.26 134.21
  C 91.10 137.72 94.16 130.40 97.76 134.56
  Q 98.70 135.76 98.48 137.73
  Q 97.43 140.27 95.49 142.13
  Q 82.72 145.96 78.81 137.66
  Q 77.34 134.53 77.36 126.60
  Q 77.41 114.59 77.30 102.57
  Q 78.93 97.55 84.62 99.41
  C 87.62 100.39 86.99 104.12 86.97 106.49
  Q 86.97 107.02 87.50 107.03
  C 90.92 107.14 95.44 105.83 96.43 110.15
  Q 97.22 113.60 94.06 115.61
  Z"
/>
<path fill="#c4c1be" d="
  M 180.60 98.92
  Q 180.80 117.33 180.66 135.67
  C 180.63 138.83 181.89 140.20 184.56 141.42
  Q 192.74 145.15 201.67 141.76
  Q 193.10 149.48 181.58 143.44
  C 179.61 142.41 178.76 140.85 178.75 138.52
  Q 178.67 119.79 178.79 101.08
  Q 178.80 99.97 180.60 98.92
  Z"
/>
<path fill="#c4c1be" d="
  M 62.72 99.37
  Q 62.62 100.34 62.95 101.50
  Q 62.82 101.69 62.60 101.81
  Q 62.17 102.04 62.37 102.49
  Q 63.24 104.53 65.16 105.54
  A 0.73 0.72 40.6 0 1 65.26 106.76
  L 64.97 106.98
  Q 64.07 107.66 63.18 106.96
  Q 58.97 103.65 62.72 99.37
  Z"
/>
<path fill="#c4c1be" d="
  M 234.72 100.95
  Q 232.61 104.35 228.00 105.34
  Q 225.04 105.98 222.11 106.73
  Q 221.61 106.85 221.16 106.60
  Q 217.91 104.75 221.33 101.90
  Q 222.56 104.88 226.25 103.76
  Q 230.26 102.55 234.72 100.95
  Z"
/>
<path fill="#c4c1be" d="
  M 77.30 102.57
  Q 77.41 114.59 77.36 126.60
  Q 77.34 134.53 78.81 137.66
  Q 82.72 145.96 95.49 142.13
  Q 90.96 147.35 83.83 145.53
  C 79.08 144.32 75.55 140.39 75.53 135.50
  Q 75.48 121.12 75.50 106.74
  Q 75.51 104.06 77.30 102.57
  Z"
/>
<path fill="#004da6" d="
  M 173.52 142.64
  C 169.21 143.71 166.71 141.94 166.70 137.44
  Q 166.67 128.35 166.76 119.25
  C 166.80 114.66 162.93 114.13 159.69 116.61
  Q 159.34 127.34 159.44 137.98
  C 159.47 140.32 158.58 141.75 156.55 142.68
  C 152.24 143.62 149.76 141.94 149.73 137.45
  Q 149.68 128.24 149.75 119.04
  C 149.76 116.91 148.97 115.68 147.00 115.07
  Q 145.12 114.48 142.74 116.66
  Q 142.29 127.98 142.50 139.26
  Q 142.54 141.55 139.63 142.67
  Q 136.22 143.40 134.38 141.90
  Q 133.01 140.79 132.99 137.63
  Q 132.91 124.33 132.80 110.51
  Q 135.93 104.08 141.98 108.94
  Q 142.32 109.21 142.66 108.95
  Q 148.94 104.31 155.27 108.64
  C 155.88 109.05 156.50 109.88 157.18 110.44
  Q 157.60 110.79 157.96 110.38
  Q 163.58 104.07 170.70 107.80
  C 175.42 110.27 176.18 115.14 176.22 120.58
  Q 176.31 130.04 176.24 139.51
  Q 176.23 141.44 173.52 142.64
  Z"
/>
<path fill="#004da6" d="
  M 70.48 142.55
  Q 66.87 143.60 64.93 141.82
  Q 63.57 140.57 63.52 137.27
  Q 63.35 123.91 63.41 110.53
  Q 65.46 105.01 71.00 107.70
  C 72.39 108.38 73.01 109.72 73.01 111.33
  Q 73.02 124.79 73.01 138.25
  Q 73.01 141.25 70.48 142.55
  Z"
/>
<path fill="#003bab" d="
  M 125.80 142.65
  C 123.23 143.11 119.78 142.93 119.19 139.91
  L 119.63 139.65
  Q 120.11 139.36 120.45 139.80
  C 122.38 142.31 127.07 142.12 127.08 138.00
  Q 127.11 125.10 127.07 112.19
  A 1.53 1.51 -63.7 0 0 126.79 111.34
  C 124.09 107.64 114.10 108.32 110.39 109.87
  C 105.46 111.92 103.39 115.84 101.31 120.59
  Q 100.97 121.37 100.64 120.59
  Q 100.43 120.09 100.46 119.17
  Q 105.04 107.01 118.26 106.94
  C 121.52 106.93 128.46 108.02 128.48 112.46
  Q 128.52 125.42 128.47 138.37
  C 128.47 140.50 127.59 141.75 125.80 142.65
  Z"
/>
<path fill="#003bab" d="
  M 235.84 128.07
  Q 229.92 130.17 224.03 129.69
  L 222.18 129.42
  A 0.45 0.45 0.0 0 0 221.71 130.07
  C 224.55 135.89 231.13 134.91 235.65 132.00
  A 2.74 2.74 0.0 0 1 238.51 131.93
  C 242.72 134.37 240.19 138.93 236.93 141.25
  Q 227.75 144.84 219.73 140.09
  Q 213.99 136.68 213.01 131.01
  Q 212.38 127.39 212.76 120.26
  Q 214.91 112.30 221.27 108.95
  C 229.39 104.68 240.77 108.08 241.18 118.53
  Q 241.40 124.05 235.84 128.07
  Z
  M 214.40 129.79
  C 215.59 139.42 226.41 142.70 234.71 140.56
  C 237.15 139.93 238.71 138.75 239.10 136.27
  Q 239.45 134.00 237.60 132.99
  Q 237.16 132.75 236.73 132.98
  C 233.84 134.52 230.20 136.54 226.80 135.64
  Q 222.31 134.45 220.26 129.93
  A 0.61 0.61 0.0 0 1 221.00 129.10
  Q 221.63 129.30 221.87 128.74
  Q 222.07 128.27 222.58 128.27
  C 225.35 128.25 230.23 128.70 232.69 127.56
  C 235.91 126.06 238.10 125.61 239.05 121.76
  C 241.01 113.80 236.48 108.46 228.35 108.54
  C 220.76 108.61 217.40 112.97 214.54 119.25
  Q 213.66 121.21 213.78 123.45
  Q 213.94 126.32 214.03 129.22
  Q 214.03 129.28 214.07 129.32
  Q 214.16 129.41 214.25 129.50
  Q 214.37 129.62 214.40 129.79
  Z"
/>
<path fill="#c4c1be" d="
  M 246.68 110.77
  C 244.72 115.05 240.12 112.26 241.48 109.33
  C 243.45 106.30 246.72 107.77 246.68 110.77
  Z"
/>
<path fill="#004da6" d="
  M 214.25 129.50
  Q 214.16 129.41 214.07 129.32
  Q 214.03 129.28 214.03 129.22
  Q 213.94 126.32 213.78 123.45
  Q 213.66 121.21 214.54 119.25
  C 217.40 112.97 220.76 108.61 228.35 108.54
  C 236.48 108.46 241.01 113.80 239.05 121.76
  C 238.10 125.61 235.91 126.06 232.69 127.56
  C 230.23 128.70 225.35 128.25 222.58 128.27
  Q 222.07 128.27 221.87 128.74
  Q 221.63 129.30 221.00 129.10
  A 0.61 0.61 0.0 0 0 220.26 129.93
  Q 222.31 134.45 226.80 135.64
  C 230.20 136.54 233.84 134.52 236.73 132.98
  Q 237.16 132.75 237.60 132.99
  Q 239.45 134.00 239.10 136.27
  C 238.71 138.75 237.15 139.93 234.71 140.56
  C 226.41 142.70 215.59 139.42 214.40 129.79
  Q 214.37 129.62 214.25 129.50
  Z
  M 223.51 117.30
  L 221.32 120.56
  A 0.82 0.81 -65.4 0 0 221.78 121.80
  Q 226.85 123.21 231.31 121.18
  C 236.07 116.35 226.75 111.94 223.51 117.30
  Z"
/>
<path fill="#004da6" d="
  M 119.19 139.91
  Q 118.79 139.57 118.50 139.79
  Q 117.84 140.28 116.26 141.81
  C 100.74 146.96 97.55 130.55 100.18 119.43
  Q 100.27 119.26 100.46 119.17
  Q 100.43 120.09 100.64 120.59
  Q 100.97 121.37 101.31 120.59
  C 103.39 115.84 105.46 111.92 110.39 109.87
  C 114.10 108.32 124.09 107.64 126.79 111.34
  A 1.53 1.51 -63.7 0 1 127.07 112.19
  Q 127.11 125.10 127.08 138.00
  C 127.07 142.12 122.38 142.31 120.45 139.80
  Q 120.11 139.36 119.63 139.65
  L 119.19 139.91
  Z
  M 111.62 118.17
  C 108.81 121.22 108.47 126.30 109.48 130.13
  C 110.66 134.58 114.92 135.76 117.53 131.41
  C 119.80 127.67 119.01 120.38 118.82 116.05
  Q 118.80 115.55 118.29 115.52
  Q 114.22 115.29 111.62 118.17
  Z"
/>
<path fill="#e9e9e7" d="
  M 33.15 119.28
  C 33.60 116.82 35.42 115.44 36.80 113.68
  C 38.08 112.06 38.06 109.55 41.31 110.47
  A 0.73 0.73 0.0 0 1 41.83 111.06
  Q 42.45 115.16 41.65 117.37
  Q 40.81 119.68 40.77 120.51
  Q 40.77 120.62 40.66 120.62
  Q 40.53 120.62 40.40 120.62
  Q 40.29 120.63 40.24 120.73
  C 37.78 127.14 35.55 132.41 35.78 139.96
  Q 35.78 139.99 35.81 140.02
  Q 35.94 140.12 36.06 140.13
  Q 36.15 140.14 36.14 140.23
  Q 35.95 145.32 36.64 150.37
  Q 37.10 150.47 37.10 151.25
  C 37.11 152.57 37.83 154.02 37.87 155.63
  Q 37.93 158.26 39.16 160.61
  Q 39.40 161.06 39.37 161.56
  C 39.28 162.90 40.04 163.71 40.09 164.85
  Q 40.21 167.65 39.08 170.05
  A 1.07 1.07 0.0 0 1 37.13 170.00
  Q 35.83 166.84 33.66 163.86
  Q 32.36 162.08 30.63 154.77
  C 30.31 153.41 29.23 152.49 29.35 150.78
  Q 29.38 150.29 29.24 149.82
  Q 29.02 149.12 28.95 147.75
  Q 28.33 135.28 31.64 122.51
  Q 32.03 121.03 32.78 120.10
  Q 33.07 119.74 33.15 119.28
  Z"
/>
<path fill="#c4c1be" d="
  M 63.41 110.53
  Q 63.35 123.91 63.52 137.27
  Q 63.57 140.57 64.93 141.82
  Q 66.87 143.60 70.48 142.55
  Q 69.59 145.24 67.01 145.44
  C 62.62 145.79 61.32 143.25 61.37 139.21
  Q 61.53 126.35 61.43 113.50
  Q 61.42 111.60 63.41 110.53
  Z"
/>
<path fill="#c4c1be" d="
  M 132.80 110.51
  Q 132.91 124.33 132.99 137.63
  Q 133.01 140.79 134.38 141.90
  Q 136.22 143.40 139.63 142.67
  C 139.53 146.31 134.17 145.98 132.35 144.32
  Q 131.05 143.13 131.08 140.27
  Q 131.25 123.69 131.14 115.01
  Q 131.10 112.22 132.80 110.51
  Z"
/>
<path fill="#c4c1be" d="
  M 156.55 142.68
  C 156.11 146.53 150.41 146.07 148.73 143.70
  Q 147.84 142.45 147.86 139.36
  Q 147.90 130.04 147.86 120.75
  Q 147.84 118.17 142.74 116.66
  Q 145.12 114.48 147.00 115.07
  C 148.97 115.68 149.76 116.91 149.75 119.04
  Q 149.68 128.24 149.73 137.45
  C 149.76 141.94 152.24 143.62 156.55 142.68
  Z"
/>
<path fill="#c4c1be" d="
  M 173.52 142.64
  C 172.84 146.39 167.85 146.19 165.83 143.99
  Q 164.78 142.85 164.78 140.22
  Q 164.80 130.60 164.85 121.00
  Q 164.87 118.01 159.69 116.61
  C 162.93 114.13 166.80 114.66 166.76 119.25
  Q 166.67 128.35 166.70 137.44
  C 166.71 141.94 169.21 143.71 173.52 142.64
  Z"
/>
<path fill="#c4c1be" d="
  M 231.31 121.18
  C 229.63 116.73 226.86 118.00 223.51 117.30
  C 226.75 111.94 236.07 116.35 231.31 121.18
  Z"
/>
<path fill="#c4c1be" d="
  M 94.06 115.61
  C 93.44 119.17 89.59 118.18 87.05 118.25
  Q 86.86 117.17 87.05 116.24
  Q 87.17 115.69 87.73 115.68
  L 94.06 115.61
  Z"
/>
<path fill="#c4c1be" d="
  M 117.53 131.41
  L 117.22 118.93
  A 0.98 0.98 0.0 0 0 115.99 118.01
  Q 113.67 118.65 111.62 118.17
  Q 114.22 115.29 118.29 115.52
  Q 118.80 115.55 118.82 116.05
  C 119.01 120.38 119.80 127.67 117.53 131.41
  Z"
/>
<path fill="#ffffff" d="
  M 199.33 119.19
  Q 199.12 119.41 199.11 119.66
  Q 199.09 119.93 198.82 119.90
  C 198.60 119.88 198.36 119.69 198.28 119.47
  Q 197.02 115.88 193.27 117.03
  Q 192.82 117.17 192.90 117.60
  Q 192.99 118.06 193.47 118.11
  C 198.53 118.59 198.64 126.87 198.49 130.62
  Q 196.48 135.71 190.78 134.27
  Q 190.27 134.14 190.27 133.62
  Q 190.24 128.01 190.27 122.39
  Q 190.28 120.24 190.69 119.14
  C 192.35 114.64 197.86 114.00 199.33 119.19
  Z"
/>
<path fill="#c4c1be" d="
  M 199.33 119.19
  Q 201.26 125.26 198.49 130.62
  C 198.64 126.87 198.53 118.59 193.47 118.11
  Q 192.99 118.06 192.90 117.60
  Q 192.82 117.17 193.27 117.03
  Q 197.02 115.88 198.28 119.47
  C 198.36 119.69 198.60 119.88 198.82 119.90
  Q 199.09 119.93 199.11 119.66
  Q 199.12 119.41 199.33 119.19
  Z"
/>
<path fill="#ffffff" d="
  M 223.51 117.30
  C 226.86 118.00 229.63 116.73 231.31 121.18
  Q 226.85 123.21 221.78 121.80
  A 0.82 0.81 -65.4 0 1 221.32 120.56
  L 223.51 117.30
  Z"
/>
<path fill="#e9e9e7" d="
  M 264.73 117.84
  Q 273.67 120.74 275.61 129.41
  Q 274.07 131.53 274.09 134.99
  Q 274.12 138.86 271.30 142.26
  C 273.34 136.50 274.31 125.49 267.60 122.13
  Q 264.13 120.38 262.84 119.56
  A 0.37 0.37 0.0 0 1 263.04 118.88
  L 264.31 118.88
  Q 264.96 118.88 264.87 118.25
  Q 264.84 118.06 264.73 117.84
  Z"
/>
<path fill="#ffffff" d="
  M 117.53 131.41
  C 114.92 135.76 110.66 134.58 109.48 130.13
  C 108.47 126.30 108.81 121.22 111.62 118.17
  Q 113.67 118.65 115.99 118.01
  A 0.98 0.98 0.0 0 1 117.22 118.93
  L 117.53 131.41
  Z"
/>
<path fill="#c4c1be" d="
  M 100.18 119.43
  C 97.55 130.55 100.74 146.96 116.26 141.81
  C 112.87 148.18 103.11 145.52 100.22 140.10
  Q 99.44 138.66 98.48 137.73
  Q 98.70 135.76 97.76 134.56
  Q 97.90 134.56 98.05 134.54
  Q 98.25 134.51 98.19 134.31
  Q 96.02 126.37 100.18 119.43
  Z"
/>
<path fill="#c4c1be" d="
  M 212.76 120.26
  Q 212.38 127.39 213.01 131.01
  Q 213.99 136.68 219.73 140.09
  Q 227.75 144.84 236.93 141.25
  Q 235.22 144.55 230.99 145.17
  C 221.87 146.53 212.33 141.94 210.86 132.03
  C 210.60 130.26 211.74 128.59 211.52 127.01
  Q 210.98 123.10 212.76 120.26
  Z"
/>
<path fill="#c4c1be" d="
  M 235.84 128.07
  Q 231.95 133.39 224.22 131.67
  Q 223.33 131.48 224.03 129.69
  Q 229.92 130.17 235.84 128.07
  Z"
/>
<path fill="#c4c1be" d="
  M 275.61 129.41
  C 280.25 157.22 245.65 177.51 224.70 185.96
  Q 214.97 189.88 205.00 193.25
  Q 176.06 203.00 145.70 199.42
  A 0.36 0.34 23.5 0 0 145.43 199.52
  C 139.38 206.02 135.69 198.35 130.56 196.53
  C 117.36 191.86 106.45 186.84 95.24 178.26
  Q 96.22 178.45 96.77 178.01
  Q 97.15 177.71 97.61 177.86
  Q 98.44 178.12 98.94 178.83
  Q 99.23 179.23 99.69 179.39
  Q 102.44 180.34 103.25 181.01
  Q 106.65 183.81 108.94 184.85
  Q 112.51 186.48 114.41 187.79
  Q 114.89 188.13 115.48 188.13
  L 116.58 188.14
  Q 116.77 188.14 116.63 188.02
  Q 116.53 187.92 116.37 187.96
  Q 116.24 187.99 116.13 187.90
  Q 115.93 187.72 115.68 187.65
  Q 115.56 187.61 115.69 187.62
  Q 115.86 187.62 116.03 187.61
  Q 116.25 187.60 116.42 187.73
  Q 118.18 189.11 120.17 189.53
  L 123.56 190.89
  L 122.68 190.96
  Q 122.54 190.97 122.66 191.04
  Q 124.59 192.19 125.78 191.63
  Q 131.07 193.19 135.13 197.61
  C 136.84 199.48 142.06 200.45 141.34 196.07
  Q 141.25 195.52 141.80 195.57
  L 154.03 196.54
  Q 158.32 196.88 162.63 196.87
  C 168.70 196.87 174.02 196.57 181.42 195.24
  C 183.72 195.67 185.85 194.68 187.48 194.41
  C 193.41 193.43 198.55 190.52 203.94 188.38
  A 1.08 1.05 -1.5 0 0 204.54 187.76
  Q 204.72 187.25 205.04 187.03
  Q 209.07 184.42 212.97 181.62
  C 213.99 180.89 215.24 180.80 216.18 179.56
  Q 216.50 179.14 216.98 178.94
  Q 222.00 176.85 226.51 173.84
  A 1.44 1.42 -56.7 0 1 227.53 173.62
  Q 228.60 173.81 229.39 173.07
  Q 229.76 172.72 230.26 172.63
  L 232.61 172.19
  Q 233.08 172.11 233.53 172.26
  C 238.45 173.95 240.53 171.78 244.27 169.41
  Q 246.04 168.30 247.51 166.76
  Q 255.44 158.42 264.62 151.28
  Q 268.71 147.70 271.30 142.26
  Q 274.12 138.86 274.09 134.99
  Q 274.07 131.53 275.61 129.41
  Z"
/>
<path fill="#c4c1be" d="
  M 119.19 139.91
  C 119.78 142.93 123.23 143.11 125.80 142.65
  C 125.63 146.70 117.75 146.40 117.31 142.28
  Q 117.26 141.78 116.78 141.70
  Q 116.53 141.65 116.26 141.81
  Q 117.84 140.28 118.50 139.79
  Q 118.79 139.57 119.19 139.91
  Z"
/>
<path fill="#e9e9e7" d="
  M 264.62 151.28
  Q 255.44 158.42 247.51 166.76
  Q 246.04 168.30 244.27 169.41
  C 240.53 171.78 238.45 173.95 233.53 172.26
  Q 233.08 172.11 232.61 172.19
  L 230.26 172.63
  Q 229.76 172.72 229.39 173.07
  Q 228.60 173.81 227.53 173.62
  A 1.44 1.42 -56.7 0 0 226.51 173.84
  Q 222.00 176.85 216.98 178.94
  Q 216.50 179.14 216.18 179.56
  C 215.24 180.80 213.99 180.89 212.97 181.62
  Q 209.07 184.42 205.04 187.03
  Q 204.72 187.25 204.54 187.76
  A 1.08 1.05 -1.5 0 1 203.94 188.38
  C 198.55 190.52 193.41 193.43 187.48 194.41
  C 185.85 194.68 183.72 195.67 181.42 195.24
  L 189.20 193.46
  Q 189.67 193.35 190.06 193.06
  C 191.35 192.12 192.92 191.94 194.07 191.29
  Q 199.76 188.11 204.74 183.87
  Q 205.06 183.60 205.70 183.63
  Q 206.15 183.64 206.48 183.35
  C 207.75 182.21 209.39 181.82 210.55 180.85
  Q 211.78 179.83 212.95 178.72
  C 214.94 176.84 217.36 175.39 219.53 173.73
  C 222.82 171.23 226.50 169.82 230.19 168.17
  A 0.90 0.88 -81.1 0 0 230.50 167.94
  Q 231.11 167.25 230.80 166.81
  Q 230.55 166.43 230.90 166.15
  Q 231.26 165.86 231.75 166.25
  Q 234.42 168.37 237.51 168.20
  Q 238.53 168.15 237.68 168.72
  Q 236.43 169.58 237.68 170.41
  A 0.83 0.81 -38.9 0 0 238.45 170.48
  Q 243.51 168.30 246.50 164.57
  C 248.46 162.13 249.86 160.76 251.78 158.88
  C 252.70 157.98 253.69 156.29 255.36 155.48
  C 257.27 154.55 258.58 153.25 260.76 153.03
  Q 261.24 152.98 261.63 152.70
  Q 262.97 151.71 264.62 151.28
  Z"
/>
<path fill="#e9e9e7" d="
  M 207.20 176.94
  L 211.42 171.73
  Q 211.86 171.19 211.19 171.37
  Q 208.59 172.07 206.14 173.17
  A 4.45 0.21 -24.9 0 1 203.57 174.22
  C 202.53 174.54 201.49 174.44 200.43 175.09
  Q 198.81 176.09 197.01 176.74
  A 1.13 1.13 0.0 0 0 196.56 177.03
  L 190.64 183.26
  Q 190.25 183.67 190.37 184.22
  Q 190.57 185.09 191.18 185.80
  Q 191.53 186.21 192.07 186.12
  L 195.35 185.55
  Q 193.59 186.38 192.02 187.26
  C 190.57 188.08 189.56 187.91 188.01 187.86
  Q 187.54 187.85 187.49 187.38
  Q 187.26 184.82 188.28 183.92
  Q 189.54 182.83 189.80 182.34
  Q 190.99 180.12 188.72 181.18
  L 183.42 183.65
  Q 182.96 183.86 182.45 183.87
  Q 182.04 183.87 181.65 183.98
  Q 181.40 184.06 180.97 184.46
  C 179.62 185.71 178.27 184.57 176.95 185.60
  C 175.26 186.92 173.10 187.23 171.01 187.13
  A 0.89 0.85 22.4 0 0 170.37 187.38
  L 170.14 187.61
  Q 170.10 187.64 170.05 187.66
  C 159.34 190.27 149.17 190.22 138.43 187.92
  C 135.21 187.24 131.94 186.81 128.93 185.87
  C 123.96 184.31 121.07 182.76 118.16 180.23
  Q 116.86 179.11 115.42 178.27
  Q 111.29 175.87 107.39 173.11
  Q 106.92 172.77 105.88 172.38
  Q 105.42 172.20 105.13 171.81
  C 103.65 169.85 101.25 169.59 99.88 167.02
  Q 99.67 166.62 99.21 166.63
  Q 98.79 166.64 98.51 166.49
  Q 96.50 165.46 94.57 163.72
  C 93.10 162.40 91.43 161.67 89.98 160.27
  Q 89.61 159.93 89.11 159.89
  Q 87.76 159.79 87.15 158.47
  A 1.14 1.12 -3.3 0 0 86.44 157.85
  Q 83.65 157.02 80.95 155.95
  Q 79.25 155.27 77.38 155.15
  Q 75.66 155.04 73.81 154.84
  A 0.54 0.48 68.3 0 1 73.51 154.69
  Q 72.93 154.07 73.34 153.91
  Q 73.35 153.90 73.34 153.91
  Q 72.72 154.01 72.26 153.75
  Q 71.63 153.39 72.29 153.09
  Q 74.90 151.90 77.74 152.11
  Q 79.10 152.20 80.44 152.10
  Q 80.99 152.06 81.49 152.28
  Q 83.17 153.00 85.00 152.47
  A 1.43 1.41 -43.3 0 1 85.87 152.49
  Q 89.53 153.75 93.22 154.92
  Q 96.04 155.82 100.42 156.37
  C 103.68 156.78 106.85 157.92 110.09 158.13
  C 111.19 158.21 112.27 158.66 113.33 158.63
  Q 119.32 158.50 125.29 158.14
  Q 125.75 158.11 126.06 157.78
  Q 126.30 157.52 126.73 157.60
  C 130.15 158.18 133.16 157.39 135.26 157.90
  Q 137.00 158.32 136.25 160.21
  Q 136.09 160.62 135.70 160.81
  C 134.19 161.55 133.17 162.81 131.65 163.30
  C 121.85 166.45 113.43 165.51 103.95 165.35
  Q 103.29 165.34 102.92 165.63
  Q 102.67 165.82 102.52 166.05
  A 0.53 0.53 0.0 0 0 102.68 166.80
  C 103.69 167.43 104.60 167.93 105.44 168.85
  Q 106.15 169.62 107.06 170.11
  C 110.04 171.68 112.54 174.12 115.48 175.87
  Q 117.81 177.26 121.24 178.26
  Q 123.25 178.84 125.25 179.47
  Q 127.25 180.09 129.33 180.28
  C 133.78 180.68 138.07 181.44 142.46 181.25
  Q 145.87 181.10 149.29 180.91
  Q 149.69 180.88 150.06 181.03
  C 152.92 182.14 158.09 181.70 161.10 181.32
  Q 161.33 181.29 161.45 181.09
  Q 161.54 180.93 161.75 180.94
  Q 164.77 181.10 166.98 179.44
  Q 169.21 177.76 170.16 177.46
  C 172.07 176.85 176.33 175.69 177.91 177.43
  Q 178.26 177.81 178.77 177.75
  L 184.03 177.19
  Q 184.30 177.16 184.40 176.90
  Q 184.48 176.70 184.75 176.63
  Q 186.43 176.15 188.14 175.84
  C 189.38 175.61 190.73 174.86 192.15 174.68
  C 194.30 174.40 196.25 172.88 198.33 172.26
  Q 201.51 171.31 204.75 170.52
  Q 205.77 170.27 206.63 169.72
  C 208.78 168.33 211.04 167.76 213.25 166.49
  Q 213.59 166.29 214.60 166.39
  Q 215.07 166.43 215.49 166.21
  Q 217.74 165.01 220.23 165.11
  Q 221.19 165.15 220.47 165.78
  L 216.56 169.22
  Q 216.39 169.37 216.18 169.45
  Q 215.84 169.59 215.51 170.02
  Q 212.21 174.38 207.20 176.94
  Z"
/>
<path fill="#180e0e" fill-opacity="0.192" d="
  M 239.81 180.80
  Q 240.97 179.49 242.50 179.03
  Q 242.90 178.91 243.16 178.58
  Q 243.25 178.47 243.36 178.37
  Q 243.47 178.26 243.66 178.22
  Q 245.44 177.83 246.61 176.51
  A 1.37 1.26 -77.5 0 1 247.10 176.17
  Q 248.48 175.62 249.58 174.65
  Q 249.93 174.34 250.37 174.19
  Q 251.76 173.75 252.40 172.75
  Q 252.82 172.09 253.50 172.10
  Q 253.94 172.10 254.15 171.73
  Q 255.33 169.68 257.58 168.81
  Q 257.98 168.65 258.25 168.31
  C 259.53 166.63 261.34 165.32 262.56 164.01
  Q 264.99 161.41 267.49 158.87
  Q 269.85 156.46 272.08 152.23
  Q 272.39 151.64 272.65 152.26
  Q 273.05 153.20 272.33 154.01
  C 270.56 155.97 270.46 158.09 269.66 159.66
  Q 268.41 162.14 266.95 164.56
  Q 266.70 164.97 266.71 165.46
  Q 266.75 166.76 265.54 168.25
  Q 260.54 174.39 257.94 177.03
  Q 257.69 177.28 257.66 177.62
  Q 257.62 177.98 257.62 178.27
  Q 257.62 178.47 257.42 178.50
  Q 255.89 178.74 254.97 180.06
  Q 254.66 180.51 254.19 180.78
  Q 252.02 182.01 250.57 184.06
  A 2.03 1.97 5.9 0 1 249.71 184.74
  C 247.30 185.70 246.70 185.70 244.14 185.35
  Q 243.68 185.28 243.26 185.48
  Q 242.10 186.02 240.78 186.11
  Q 240.33 186.14 240.03 186.47
  Q 239.44 187.14 238.50 187.12
  Q 237.95 187.11 237.56 187.50
  C 235.13 189.91 233.81 191.29 233.62 194.33
  Q 233.59 194.76 233.16 194.86
  Q 231.38 195.25 229.88 196.21
  Q 229.48 196.47 229.01 196.54
  Q 227.89 196.72 227.16 197.52
  Q 226.84 197.87 226.37 197.89
  Q 225.26 197.93 224.78 198.41
  C 222.92 200.30 220.66 199.98 218.83 200.54
  Q 214.43 201.87 210.05 203.31
  Q 209.66 203.44 209.27 203.36
  Q 208.80 203.27 208.49 203.71
  Q 203.11 205.45 197.52 206.20
  C 193.30 206.77 190.15 207.31 186.45 207.68
  C 184.28 207.90 182.18 209.11 179.75 209.13
  C 175.56 209.15 171.32 209.89 167.41 209.80
  Q 159.96 209.61 152.53 209.23
  C 148.64 209.03 145.13 209.67 141.36 210.21
  A 1.39 1.38 56.9 0 1 140.43 210.01
  Q 137.29 208.01 134.26 205.85
  Q 131.61 203.96 124.94 201.88
  Q 123.88 201.55 121.72 200.51
  C 120.30 199.82 118.68 199.57 117.35 198.81
  Q 110.42 194.87 103.70 190.58
  C 102.76 189.98 102.02 188.84 100.93 188.19
  Q 99.85 187.55 99.66 187.41
  Q 94.84 183.89 89.96 180.43
  C 87.05 178.37 83.58 177.83 80.99 176.99
  C 75.82 175.33 67.67 173.98 62.45 175.96
  C 58.63 177.41 54.87 178.46 52.13 182.17
  Q 51.27 183.33 50.17 184.33
  A 1.40 1.36 -19.1 0 0 49.73 185.21
  Q 49.60 186.42 48.50 186.88
  Q 48.01 187.08 47.71 187.49
  Q 46.63 188.96 45.31 190.19
  Q 44.90 190.56 44.36 190.69
  L 41.30 191.43
  Q 40.86 191.53 40.44 191.35
  Q 35.24 189.08 32.99 184.05
  C 32.04 181.94 30.58 180.12 29.85 177.85
  Q 29.77 177.61 29.99 177.51
  Q 30.13 177.44 30.26 177.37
  A 0.42 0.42 0.0 0 1 30.87 177.75
  L 30.87 178.25
  Q 30.87 178.54 31.07 178.75
  Q 31.72 179.45 32.31 180.20
  C 33.36 181.52 34.75 182.40 35.82 183.82
  Q 36.08 184.17 36.49 184.30
  L 40.56 185.64
  Q 41.10 185.82 41.63 185.61
  Q 42.55 185.24 43.49 185.04
  Q 46.01 184.50 47.31 182.34
  Q 47.46 182.08 47.76 182.10
  Q 47.99 182.11 48.16 181.89
  Q 50.16 179.28 52.45 176.92
  Q 52.80 176.56 52.95 176.09
  Q 53.19 175.35 53.89 175.12
  Q 54.24 175.01 54.54 174.80
  L 56.74 173.32
  Q 57.13 173.06 57.59 173.15
  Q 58.23 173.27 58.58 172.58
  A 0.32 0.32 0.0 0 1 58.76 172.43
  L 60.60 171.82
  Q 61.04 171.68 61.42 171.40
  Q 62.13 170.88 63.00 170.82
  Q 63.27 170.80 63.37 170.55
  Q 63.42 170.41 63.49 170.28
  Q 63.56 170.13 63.73 170.13
  L 74.46 170.13
  Q 74.89 170.13 75.24 170.37
  Q 77.09 171.64 79.36 170.98
  Q 79.86 170.83 80.18 171.24
  Q 80.76 171.97 81.24 172.11
  Q 84.42 173.05 87.15 174.84
  Q 87.46 175.04 87.93 175.16
  Q 88.11 175.21 88.28 175.27
  Q 88.66 175.42 88.84 175.79
  Q 89.06 176.23 89.52 176.35
  A 2.43 0.86 14.7 0 1 91.62 177.77
  Q 91.51 178.29 92.28 178.24
  Q 92.78 178.21 93.16 178.53
  L 97.03 181.79
  Q 97.40 182.10 97.87 182.13
  Q 98.25 182.16 98.52 182.36
  Q 103.62 186.18 105.26 187.09
  Q 107.77 188.48 108.54 189.05
  A 0.68 0.67 53.7 0 0 109.17 189.15
  Q 109.64 189.00 109.82 189.40
  Q 110.03 189.84 110.49 189.95
  L 111.54 190.20
  A 1.02 1.01 -8.3 0 1 112.19 190.68
  Q 112.57 191.30 113.27 191.12
  Q 113.92 190.95 113.86 191.62
  Q 113.79 192.31 114.68 192.25
  A 0.93 0.91 71.7 0 1 115.55 192.70
  Q 116.02 193.49 116.98 193.37
  A 1.11 1.11 0.0 0 1 117.83 193.62
  Q 118.74 194.37 119.98 194.11
  A 0.96 0.93 60.9 0 1 120.85 194.37
  Q 121.72 195.24 122.95 195.13
  Q 123.50 195.08 123.91 195.45
  L 124.51 195.98
  Q 124.79 196.23 125.12 196.40
  Q 126.63 197.15 128.19 197.14
  Q 128.69 197.14 129.10 197.43
  C 130.74 198.56 132.15 199.08 133.75 200.55
  Q 135.12 201.82 136.94 202.45
  A 0.29 0.28 -78.9 0 1 137.12 202.73
  Q 137.10 202.94 137.35 203.11
  Q 137.51 203.22 137.70 203.17
  Q 139.20 202.83 140.50 203.59
  Q 140.90 203.83 141.35 203.70
  L 144.27 202.85
  A 0.97 0.93 -83.1 0 0 144.83 202.39
  Q 145.80 200.60 148.03 201.23
  A 0.93 0.01 28.0 0 1 148.84 201.65
  Q 149.70 202.11 150.75 202.11
  Q 161.00 202.13 171.25 202.12
  Q 172.29 202.12 173.03 201.53
  Q 173.41 201.23 173.91 201.20
  L 181.19 200.84
  Q 181.44 200.83 181.56 200.61
  Q 181.67 200.42 181.76 200.23
  Q 181.82 200.12 181.94 200.12
  C 185.91 200.18 188.05 199.30 191.00 198.99
  Q 191.45 198.94 191.81 198.66
  C 193.24 197.56 195.00 198.45 196.25 197.33
  A 1.23 1.19 24.0 0 1 197.08 197.03
  Q 200.38 197.14 202.33 195.69
  Q 203.67 194.70 205.03 194.85
  Q 205.47 194.89 205.82 194.62
  Q 206.77 193.86 207.95 193.86
  Q 208.43 193.86 208.83 193.59
  Q 209.87 192.90 211.20 192.90
  A 0.19 0.17 -62.0 0 0 211.31 192.86
  Q 212.75 191.94 213.64 191.79
  Q 214.01 191.73 214.31 191.50
  Q 215.12 190.90 216.16 191.13
  Q 216.71 191.26 217.18 190.93
  Q 218.02 190.35 219.10 190.15
  Q 219.57 190.06 219.81 189.65
  Q 220.27 188.85 221.37 189.13
  Q 221.87 189.26 222.15 188.83
  Q 222.87 187.76 224.21 188.15
  Q 224.78 188.31 225.00 187.76
  Q 225.40 186.78 226.56 187.18
  A 0.64 0.64 0.0 0 0 227.39 186.69
  Q 227.55 185.85 228.47 186.16
  A 0.84 0.84 0.0 0 0 229.35 185.94
  Q 230.24 185.02 231.49 185.12
  Q 232.07 185.17 232.12 184.58
  Q 232.15 184.15 232.61 184.10
  Q 232.82 184.08 233.01 183.99
  L 237.44 181.82
  Q 237.71 181.69 237.94 181.50
  Q 238.44 181.09 239.12 181.11
  Q 239.54 181.12 239.81 180.80
  Z"
/>
<path fill="#c4c1be" d="
  M 54.44 168.69
  Q 54.41 168.89 53.92 168.96
  Q 53.63 169.01 53.63 169.30
  L 53.63 169.70
  Q 53.63 170.15 54.08 170.08
  C 55.60 169.84 56.31 168.91 57.57 168.47
  Q 60.59 167.43 63.79 166.81
  Q 64.33 166.71 64.38 167.26
  Q 64.42 167.65 64.64 167.96
  Q 64.94 168.37 65.45 168.38
  L 70.78 168.40
  Q 59.83 167.93 52.04 175.05
  C 47.71 179.00 43.66 188.08 36.40 182.22
  L 38.95 182.63
  Q 39.44 182.71 39.85 182.43
  L 44.73 179.20
  Q 44.93 179.07 44.69 179.02
  Q 44.57 179.00 44.42 179.01
  Q 44.16 179.03 44.38 178.89
  Q 44.76 178.65 44.78 178.38
  Q 46.46 177.68 47.52 176.12
  Q 47.99 175.42 47.26 175.83
  C 46.38 176.32 45.76 177.38 44.95 177.73
  Q 43.52 178.35 42.66 177.80
  A 3.37 3.36 -70.3 0 1 41.13 174.55
  Q 41.44 171.99 42.25 169.27
  C 43.57 164.83 48.24 162.49 51.54 159.83
  Q 51.68 159.73 51.78 159.86
  L 51.79 159.86
  Q 51.90 160.00 51.76 160.11
  C 49.81 161.66 47.19 163.28 45.81 165.37
  C 45.13 166.41 44.33 167.20 43.84 168.28
  Q 42.49 171.21 42.40 174.74
  C 42.37 176.08 42.89 177.75 44.51 177.64
  Q 45.56 177.57 45.86 176.42
  Q 45.99 175.94 46.37 175.62
  L 54.44 168.69
  Z"
/>
<path fill="#e9e9e7" d="
  M 120.17 189.53
  Q 118.18 189.11 116.42 187.73
  Q 116.25 187.60 116.03 187.61
  Q 115.86 187.62 115.69 187.62
  Q 115.56 187.61 115.68 187.65
  Q 115.93 187.72 116.13 187.90
  Q 116.24 187.99 116.37 187.96
  Q 116.53 187.92 116.63 188.02
  Q 116.77 188.14 116.58 188.14
  L 115.48 188.13
  Q 114.89 188.13 114.41 187.79
  Q 112.51 186.48 108.94 184.85
  Q 106.65 183.81 103.25 181.01
  Q 102.44 180.34 99.69 179.39
  Q 99.23 179.23 98.94 178.83
  Q 98.44 178.12 97.61 177.86
  Q 97.15 177.71 96.77 178.01
  Q 96.22 178.45 95.24 178.26
  C 87.95 172.61 79.99 168.65 70.78 168.40
  L 65.45 168.38
  Q 64.94 168.37 64.64 167.96
  Q 64.42 167.65 64.38 167.26
  Q 64.33 166.71 63.79 166.81
  Q 60.59 167.43 57.57 168.47
  C 56.31 168.91 55.60 169.84 54.08 170.08
  Q 53.63 170.15 53.63 169.70
  L 53.63 169.30
  Q 53.63 169.01 53.92 168.96
  Q 54.41 168.89 54.44 168.69
  C 56.48 168.06 57.92 166.79 59.98 166.30
  Q 61.18 166.01 62.34 165.59
  C 64.58 164.79 67.14 164.90 69.50 164.35
  Q 71.72 163.83 78.51 165.32
  Q 78.78 165.38 78.95 165.54
  Q 79.05 165.64 79.14 165.75
  Q 79.29 165.94 79.54 165.93
  Q 81.52 165.83 82.72 167.24
  Q 83.05 167.63 83.54 167.77
  C 84.77 168.11 85.58 168.70 86.83 169.11
  C 88.78 169.76 89.84 171.37 91.41 172.25
  C 93.40 173.38 95.12 174.56 97.28 175.59
  Q 100.54 177.15 103.33 179.48
  A 0.76 0.74 56.5 0 0 104.02 179.63
  Q 104.65 179.46 104.88 180.04
  Q 105.09 180.56 105.63 180.69
  Q 107.48 181.13 107.99 181.67
  Q 109.92 183.70 112.62 184.61
  Q 113.10 184.78 113.40 185.20
  Q 113.65 185.54 114.05 185.67
  C 116.16 186.33 118.53 188.07 120.17 189.53
  Z"
/>
<path fill="#c4c1be" d="
  M 207.20 176.94
  L 195.35 185.55
  L 192.07 186.12
  Q 191.53 186.21 191.18 185.80
  Q 190.57 185.09 190.37 184.22
  Q 190.25 183.67 190.64 183.26
  L 196.56 177.03
  A 1.13 1.13 0.0 0 1 197.01 176.74
  Q 198.81 176.09 200.43 175.09
  C 201.49 174.44 202.53 174.54 203.57 174.22
  A 4.45 0.21 -24.9 0 0 206.14 173.17
  Q 208.59 172.07 211.19 171.37
  Q 211.86 171.19 211.42 171.73
  L 207.20 176.94
  Z"
/>
<path fill="#e9e9e7" d="
  M 30.33 174.47
  Q 31.64 174.79 32.28 175.81
  Q 32.52 176.20 32.98 176.25
  Q 36.86 176.69 40.48 178.21
  C 42.04 178.86 43.23 178.65 44.78 178.38
  Q 44.76 178.65 44.38 178.89
  Q 44.16 179.03 44.42 179.01
  Q 44.57 179.00 44.69 179.02
  Q 44.93 179.07 44.73 179.20
  L 39.85 182.43
  Q 39.44 182.71 38.95 182.63
  L 36.40 182.22
  Q 32.95 179.00 30.33 174.47
  Z"
/>
<path fill="#ffffff" d="
  M 264.45 183.71
  Q 260.34 182.35 256.14 184.80
  C 254.90 179.17 264.25 176.85 264.45 183.71
  Z"
/>
<path fill="#c4c1be" d="
  M 264.45 183.71
  Q 262.68 187.37 257.75 186.28
  Q 256.79 186.06 256.14 184.80
  Q 260.34 182.35 264.45 183.71
  Z"
/>
<path fill="#ffffff" d="
  M 250.44 190.48
  L 245.80 191.66
  Q 239.84 193.91 235.96 191.26
  C 239.20 187.17 247.32 184.73 250.44 190.48
  Z"
/>
<path fill="#e9e9e7" d="
  M 250.44 190.48
  Q 250.90 190.92 251.05 192.57
  Q 244.97 195.50 240.48 193.97
  Q 238.36 193.25 240.57 193.59
  Q 241.69 193.77 243.30 193.64
  Q 243.48 193.62 243.30 193.63
  Q 242.05 193.68 240.48 193.54
  Q 240.42 193.53 240.42 193.48
  L 240.45 193.17
  Q 240.46 192.96 240.67 192.97
  Q 243.42 192.98 245.80 191.66
  L 250.44 190.48
  Z"
/>
<path fill="#e9e9e7" d="
  M 123.56 190.89
  Q 125.62 190.67 125.78 191.63
  Q 124.59 192.19 122.66 191.04
  Q 122.54 190.97 122.68 190.96
  L 123.56 190.89
  Z"
/>
<path fill="#c4c1be" d="
  M 235.96 191.26
  Q 239.84 193.91 245.80 191.66
  Q 243.42 192.98 240.67 192.97
  Q 240.46 192.96 240.45 193.17
  L 240.42 193.48
  Q 240.42 193.53 240.48 193.54
  Q 242.05 193.68 243.30 193.63
  Q 243.48 193.62 243.30 193.64
  Q 241.69 193.77 240.57 193.59
  Q 238.36 193.25 240.48 193.97
  Q 244.97 195.50 251.05 192.57
  C 250.88 201.75 236.20 198.97 235.65 193.52
  Q 235.51 192.14 235.96 191.26
  Z"
/>
<circle fill="#003bab" cx="125.13" cy="215.24" r="4.96"/>
<path fill="#003bab" d="
  M 73.02 226.05
  C 78.76 221.39 85.16 219.96 90.53 226.14
  Q 90.86 226.53 91.21 226.16
  Q 96.83 220.24 104.50 222.75
  C 108.69 224.12 109.39 227.67 109.38 231.95
  Q 109.38 238.24 109.36 244.57
  A 1.68 1.68 0.0 0 0 111.03 246.26
  L 113.29 246.27
  Q 114.05 246.28 114.05 247.04
  L 114.04 250.23
  Q 114.04 251.00 113.27 251.00
  L 97.89 251.00
  Q 97.28 251.00 97.26 250.39
  L 97.15 247.05
  Q 97.13 246.49 97.69 246.41
  L 99.15 246.17
  A 1.83 1.82 85.4 0 0 100.69 244.35
  L 100.64 230.76
  A 3.36 3.36 0.0 0 0 97.26 227.42
  L 96.30 227.43
  Q 91.64 227.45 91.46 232.11
  Q 91.08 241.77 91.34 244.67
  Q 91.50 246.49 94.30 246.33
  Q 94.98 246.29 94.95 246.97
  L 94.82 250.47
  A 0.55 0.54 -88.9 0 1 94.28 251.00
  L 80.02 251.00
  Q 79.05 251.00 79.05 250.02
  L 79.04 247.20
  A 0.92 0.91 2.6 0 1 80.04 246.29
  Q 81.21 246.39 82.13 245.70
  Q 82.62 245.33 82.61 244.73
  L 82.56 230.56
  A 3.18 3.17 -1.0 0 0 79.28 227.40
  L 78.09 227.44
  Q 73.60 227.59 73.46 232.08
  Q 73.23 239.39 73.29 244.25
  Q 73.32 246.50 76.28 246.33
  A 0.65 0.65 0.0 0 1 76.97 247.00
  L 76.85 250.21
  Q 76.82 251.00 76.04 251.00
  L 60.75 251.00
  Q 59.99 251.00 59.99 250.25
  L 59.99 247.03
  Q 59.99 246.30 60.72 246.29
  L 62.98 246.25
  A 1.67 1.66 -0.3 0 0 64.63 244.59
  L 64.62 229.46
  A 1.70 1.69 0.7 0 0 62.96 227.77
  L 60.72 227.71
  Q 59.99 227.70 59.99 226.97
  L 59.99 223.67
  Q 59.99 222.83 60.83 222.83
  L 72.35 222.82
  Q 72.90 222.82 72.83 223.36
  L 72.53 225.78
  A 0.30 0.30 0.0 0 0 73.02 226.05
  Z"
/>
<path fill="#003bab" d="
  M 149.54 225.95
  Q 149.27 227.90 150.50 226.37
  Q 155.31 220.35 163.50 222.72
  C 167.62 223.92 168.70 227.20 168.73 231.41
  Q 168.78 237.99 168.74 244.46
  A 1.81 1.81 0.0 0 0 170.55 246.27
  L 172.52 246.27
  A 0.89 0.89 0.0 0 1 173.41 247.14
  L 173.46 250.26
  Q 173.47 251.00 172.74 251.00
  L 157.02 251.00
  A 0.74 0.73 89.6 0 1 156.29 250.27
  L 156.24 247.00
  Q 156.23 246.30 156.93 246.33
  Q 159.95 246.45 160.01 244.50
  Q 160.18 238.64 159.87 231.00
  A 3.53 3.53 0.0 0 0 156.20 227.61
  L 155.25 227.65
  Q 150.51 227.83 150.36 232.57
  Q 150.08 241.99 150.27 244.74
  Q 150.40 246.57 153.24 246.31
  Q 153.95 246.24 153.92 246.96
  L 153.77 250.26
  Q 153.74 251.00 152.99 251.00
  L 138.00 251.00
  Q 137.00 251.00 137.00 250.00
  L 137.00 247.03
  Q 137.00 246.31 137.72 246.30
  L 140.02 246.25
  A 1.52 1.52 0.0 0 0 141.51 244.73
  L 141.52 229.67
  A 1.91 1.90 -89.2 0 0 139.67 227.76
  L 137.47 227.70
  Q 137.00 227.69 137.00 227.22
  L 137.00 223.29
  Q 137.00 222.83 137.46 222.83
  L 149.27 222.82
  A 0.62 0.62 0.0 0 1 149.88 223.53
  L 149.54 225.95
  Z"
/>
<path fill="#003bab" d="
  M 182.33 227.21
  Q 182.97 227.84 183.79 228.17
  A 0.94 0.94 0.0 0 1 184.32 228.73
  Q 185.91 233.16 181.56 234.39
  C 175.92 235.99 173.84 228.33 177.42 224.92
  C 181.47 221.06 191.69 221.59 195.94 223.29
  Q 200.52 225.11 200.60 230.75
  Q 200.71 238.09 200.67 245.59
  A 1.11 1.11 0.0 0 0 201.90 246.70
  L 202.30 246.66
  A 0.88 0.87 -87.7 0 0 203.06 245.95
  Q 203.48 243.59 203.08 241.23
  A 0.46 0.46 0.0 0 1 203.52 240.69
  L 206.54 240.59
  Q 207.11 240.57 207.14 241.14
  C 207.44 246.83 207.08 251.67 199.99 251.88
  Q 194.78 252.04 192.43 248.42
  Q 192.04 247.82 191.57 248.36
  L 190.67 249.40
  A 1.21 0.91 -3.5 0 1 190.46 249.58
  C 183.58 254.40 172.42 252.05 174.90 241.45
  C 176.62 234.06 193.05 237.32 192.08 230.45
  C 191.45 226.06 185.93 225.98 182.54 226.53
  A 0.40 0.40 0.0 0 0 182.33 227.21
  Z
  M 191.00 238.22
  L 185.14 240.26
  Q 183.84 240.71 183.47 242.03
  C 181.94 247.49 189.00 247.60 191.34 244.12
  C 192.36 242.59 191.81 240.78 192.07 239.11
  Q 192.27 237.78 191.00 238.22
  Z"
/>
<path fill="#003bab" d="
  M 213.93 249.45
  L 213.75 250.44
  A 0.69 0.69 0.0 0 1 213.07 251.00
  L 209.84 251.00
  Q 209.19 251.00 209.19 250.35
  L 209.16 241.01
  Q 209.16 240.44 209.73 240.43
  L 212.96 240.35
  Q 213.55 240.34 213.76 240.90
  Q 216.60 248.50 225.01 247.03
  Q 227.38 246.62 227.62 244.48
  A 1.23 1.22 -61.0 0 0 227.36 243.57
  C 223.61 238.96 210.80 241.82 209.34 233.68
  C 207.19 221.64 221.22 219.80 228.95 224.50
  Q 229.40 224.77 229.66 224.67
  Q 230.02 224.53 230.02 223.86
  Q 230.02 222.89 231.00 222.88
  L 233.53 222.87
  Q 234.42 222.87 234.43 223.77
  L 234.45 232.16
  Q 234.45 232.77 233.84 232.77
  L 230.30 232.77
  Q 229.73 232.77 229.50 232.25
  C 227.72 228.31 221.42 224.25 217.26 227.99
  A 1.76 1.75 42.2 0 0 217.40 230.71
  Q 218.81 231.75 220.77 232.07
  C 226.73 233.05 235.64 234.94 235.56 242.75
  C 235.46 252.08 224.75 253.24 218.01 251.05
  C 216.80 250.66 215.80 249.74 214.62 249.12
  Q 214.05 248.81 213.93 249.45
  Z"
/>
<path fill="#003bab" d="
  M 129.77 243.23
  C 129.77 246.19 131.02 246.54 133.65 246.26
  Q 134.50 246.17 134.49 247.02
  L 134.45 250.03
  Q 134.44 251.00 133.47 251.00
  L 117.25 251.00
  Q 116.50 251.00 116.48 250.25
  L 116.38 246.97
  Q 116.35 246.20 117.11 246.28
  Q 121.11 246.70 121.13 244.34
  Q 121.19 237.27 121.16 229.63
  A 1.89 1.88 89.8 0 0 119.28 227.75
  L 117.30 227.74
  Q 116.37 227.74 116.40 226.81
  L 116.49 223.66
  Q 116.51 222.82 117.34 222.82
  L 129.22 222.83
  Q 129.77 222.83 129.77 223.37
  Q 129.79 233.37 129.77 243.23
  Z"
/>
</svg>
