<svg xmlns="http://www.w3.org/2000/svg" xmlns:xlink="http://www.w3.org/1999/xlink" viewBox="0 0 1200 600"><defs><style>.cls-1{fill:none;}.cls-2{clip-path:url(#clip-path);}.cls-3{fill:#003893;}.cls-4{fill:#fff;}.cls-5,.cls-6{fill:#de0000;}.cls-6{fill-rule:evenodd;}.cls-7{fill:#fcd115;}.cls-8{fill:#939598;}</style><clipPath id="clip-path" transform="translate(154.05)"><path class="cls-1" d="M861.05,6.5A25,25,0,0,1,886,31.4V569.5a24.9,24.9,0,0,1-24.9,24.9H30.85A24.82,24.82,0,0,1,6,569.6V31.4A25,25,0,0,1,30.85,6.5h830.2"/></clipPath></defs><g id="Layer_2" data-name="Layer 2"><g id="Layer_1-2" data-name="Layer 1"><g class="cls-2"><path class="cls-3" d="M-154,0H1046V600H-154Z" transform="translate(154.05)"/><path class="cls-4" d="M-154,200H1046V600H-154Z" transform="translate(154.05)"/><path class="cls-5" d="M-154,400H1046V600H-154Z" transform="translate(154.05)"/><path class="cls-6" d="M446,117.26l41,126.26H619.74l-107.4,78,41,126.27L446,369.81l-107.41,78,41-126.27-107.41-78H404.92Z" transform="translate(154.05)"/><path class="cls-7" d="M563.5,461.8,446,376.4,328.39,461.8l44.9-138.19L255.74,238.2H401L446,100l44.9,138.19H636.16L518.61,323.61ZM288.57,248.86l97.26,70.68L348.68,433.88,446,363.21l97.27,70.67L506.07,319.54l97.26-70.68H483.1L446,134.52,408.79,248.86Z" transform="translate(154.05)"/></g><path class="cls-8" d="M861.1,6A25,25,0,0,1,886,30.9V569a24.9,24.9,0,0,1-24.9,24.9H30.9A24.82,24.82,0,0,1,6,569.1V30.9A25,25,0,0,1,30.9,6H861.1m0-6H30.9A30.86,30.86,0,0,0,0,30.9H0V569a30.88,30.88,0,0,0,30.9,31H861a30.86,30.86,0,0,0,30.9-30.9V30.9A30.71,30.71,0,0,0,861.1,0Z" transform="translate(154.05)"/></g></g></svg>