<?xml version="1.0" encoding="utf-8"?>
<!-- Generator: Adobe Illustrator 26.4.1, SVG Export Plug-In . SVG Version: 6.00 Build 0)  -->
<svg version="1.1" id="Camada_1" xmlns="http://www.w3.org/2000/svg" xmlns:xlink="http://www.w3.org/1999/xlink" x="0px" y="0px"
	 viewBox="0 0 756.1 756.1" style="enable-background:new 0 0 756.1 756.1;" xml:space="preserve">
<style type="text/css">
	.st0{fill:#FEFEFE;}
	.st1{fill:#007CBC;}
</style>
<path class="st0" d="M371.8,756.1c-27.6-19-54.2-46.9-78.4-70.2c-14.7-14.2-30.7-28.8-44.3-43.9c-86.1-94.5-143.6-211.5-165.9-337.4
	c-3.5-18.9-6.2-38-8-57.2c-2.2-24.4-2-50.3-2.6-74.8c-0.3-17.6-0.2-35.4,1-53c0.2-2.6,1.6-6.9,3.1-9c5.6-7.8,19.3-5.2,27.8-4.9
	c14.1,0.4,28.2,1.9,42.3,1.8c66.4-0.6,143.8-9.5,193.1-58.9c4.9-5,10.4-9.6,14.8-15c6.1-7.4,9.5-17.8,20.4-19.1
	c4.2-0.5,6.4-0.1,9.8,2.7c5.3,4.3,9.1,11,13.6,16.2c7.5,8.6,16.6,19,25.7,26.1c50.5,39.8,126.9,47.9,189.3,47.9
	c17.3,0,40.8-4.2,57.8-0.7c2.8,0.6,6.8,5.2,8.4,7.7c2,50.3,1.9,109.4-4.4,159.2C656.9,412.3,596.3,542,501.6,645
	c-29.8,32.2-60.6,62-94.4,89.8c-7.6,6.3-18.6,17.3-27,21.5h-8.5V756.1z"/>
<path class="st1" d="M376.1,28.4c2.2,1.7,11,13.3,13.5,16.3c5.4,6.3,11,12.4,17,18.2c46.3,45.6,131.7,58,193.6,59
	c22,0.4,44.1-2,66.1-2.2c1.9,42.5,1.2,85.2-2.2,127.6c-11.8,146.2-78.4,286.2-177.9,393.3c-35.6,38.3-69.5,67.3-109.2,101
	c-11.6-3.7-101.2-91.8-114.2-105.8c-22.3-24-41.5-49.6-60.1-76.5C138.2,467,99.1,359.2,89.1,246.9c-3.8-40.4-3.8-86.6-2.2-127.2
	c17.4,0.1,35.1,1.8,52.6,2.2c31.4,0.6,62.8-1.9,93.7-7.5c44.4-8.4,85.4-23.9,117.2-56.3C360.8,47.5,367.5,41,376.1,28.4z"/>
<path class="st0" d="M376.1,59.4c3.3,1.6,18.4,18.8,23,22.6c68.4,56.9,165.5,61.8,249.2,57.9c0,14.1,0.8,28.4,0.6,42.5
	c-0.3,35.8-3.3,71.6-9,107c-16.3,102.5-57.7,199.4-120.4,282c-15.5,20.5-33.4,40.7-50.6,59.7c-21.2,23.1-43.7,44.8-67.5,65.1
	c-7.4,6.4-16.9,14.8-24.7,20.5c-2.4-0.5-12.1-9.1-14.7-11.3c-36.4-30.7-70.3-64.3-101.4-100.3C168.2,498.5,113.8,364,105.8,222.9
	c-2-30.5-3.4-52.2-1-82.6c14.3-0.1,28.8,1,43.1,0.9C235.6,140.5,315.4,126.7,376.1,59.4z"/>
<path class="st1" d="M217.8,165.6c9.9,0.5,23.3,0.1,33.6,0.1h65.4l218.8,0.2l-0.1,38.5c-44.6,1.1-94.8,0.1-139.9,0.1
	c-1.3,26.9-1,54.8-1.1,81.7V395c0,9,1.4,53.8-0.3,60.1c-27.3,1.1-53.9,1-81.1,1c-31.8,0.2-63.6-0.1-95.3-0.8l-0.1-38.5h140.3
	c1.2-20.9,0.2-47.9,0.4-69.4c0.4-47.7,0.4-95.4-0.1-143.1c-46.5-0.7-93.4,0.3-140-0.1C217.4,191.6,217.8,178.3,217.8,165.6z"/>
<path class="st1" d="M428.3,227.6c9.2,0.4,20.5,0,29.9,0.1c25.6,0.3,51.6-0.5,77.2,0.3v38.6c-22.3,0.8-48.1,0.3-70.7,0.4
	c0.5,24.3,0.3,52.1-0.1,76.4l38.8,0.2c10.7,0,21.4,0.1,32.1,0.3c-0.1,12.7-0.4,25.7-0.6,38.4c-33.9,0.9-72.9,0.2-107,0.1
	L428.3,227.6z"/>
<path class="st1" d="M218.4,227.7c35.5,0.4,71.4-0.1,107,0.1l-0.1,38.7c-22.3,0.8-48,0.2-70.6,0.2l0.1,25.4h70.5v21.1v17.5
	c-23.5-0.1-47.1-0.1-70.6,0.1c-0.6,16.3-0.2,34.9-0.2,51.4c-12,0.6-24.8,0.3-36.9,0.3L218.4,227.7z"/>
<path class="st1" d="M399.3,533.4c7-0.2,12.9,3.6,14.5,10.5c2.8,12.3,4.3,30.3-10.1,35.2c-19.6,0.7-18-27.3-12.4-39.7
	C393,535.8,395.6,534.4,399.3,533.4z"/>
<path class="st0" d="M400.8,539.8c1.4,0.2,3.1,0.3,3.9,1.5c4.3,6.5,4.1,26.2-0.8,31.2c-0.9-0.1-1.7-0.1-2.6-0.2
	c-8-0.8-5.1-19.6-5-25.3C396.3,543.5,398,541.9,400.8,539.8z"/>
<path class="st1" d="M303.5,533.4c6.7-0.3,11.3,3.2,13.2,9.7c3.4,11.8,3.6,31.5-10.2,36.3c-8,0-12.4-3.9-14.4-11.7
	C289.1,556.2,289.9,537.2,303.5,533.4z"/>
<path class="st0" d="M301.9,539.8c5.7,0.6,7.8,3,8.5,8.6c1.1,7.6,0.8,18.4-3.5,24.8C294.1,571,298.4,548.1,301.9,539.8z"/>
<path class="st1" d="M357.2,534.7c4.6,0,15.4-0.6,19.1,1.3c10,5.2,6.8,30.6,3.1,38.4c-5.6,4.7-15.3,3.6-22.5,3.4L357.2,534.7z"/>
<path class="st0" d="M364.3,540.8c2.5,0,3.5,0,5.9,0.4c8.3,4.7,4.8,22,2.8,29.6c-2.9,0.8-5.5,1.6-8.1,0.3
	C363.8,565.3,364.2,547.3,364.3,540.8z"/>
<path class="st1" d="M260.8,534.8c6.9,0,23.4-1.7,25.9,7.4c1.1,4.2-4.3,9.8-4.6,13.8c0-0.1,2.9,3,3.1,3.8c1.3,5.8,1.6,12,2.4,18
	c-2.6,0.1-4.6,0.3-7.2,0c-2-1.8-1.4-1.4-1.7-4.9c-0.1-4.2,0.8-10.4-2.3-13.1c-15.2-3.8-4.8,10.1-9,16.7c-2,1.5-4.1,1.8-6.1,0.3
	C260,572.1,260.6,541.3,260.8,534.8z"/>
<path class="st0" d="M268.4,539.9c2.1,0.2,4.6,0.4,6.6,1.2c1.5,0.6,2.7,1.8,3.3,3.3c1.1,2.6-0.2,5.5-1.2,8c-1,0.2-4.4,0.9-5.3,0.8
	c-1.1-0.1-2.2-0.6-2.9-1.5C266.6,549.2,267.9,543.2,268.4,539.9z"/>
<path class="st1" d="M373.4,476.9c17.8-0.5,31.8-0.4,21.8,22.2c-0.4,0.9,7.7,14.4,2.7,20.3c-2.5,0.8-3,0.6-5.6,0.1
	c-1.7-1.9-1.2-2.6-1.4-5.6c-0.1-4.6-0.6-7.5-1.3-12l-9.4-0.6v3.1c0,3.4,0.7,13.2-1.5,15.4c-2.9,0-3.2,0.4-5.4-0.8
	C372.1,513.2,373.4,484.6,373.4,476.9z"/>
<path class="st0" d="M380.4,482.7c8.5-0.1,13.5,2.2,8.7,11.5c-3.6,1-5,1.6-8.2,0.1C378.8,490.9,379.9,486.9,380.4,482.7z"/>
<path class="st1" d="M324.5,534.7c2.5,0,4.3,0.1,6.8,0.4c3.6,2.7,8.4,22.1,10,27.5c0.9-6.1,0.3-25.1,2.6-27.6c1.9-0.4,2.2-0.4,4,0
	c3,4,1.9,35.9,1.8,42.9c-8.5,0.3-9.2-2.8-11.7-10.6c-2.2-6.9-3.6-11.7-7-18.2c0.2,8.2,0.5,17,0.5,25.2c0,1.3-1.3,2.5-2.2,3.3
	c-2.6,0.7-1.7,0.8-3.9-0.2C323.4,573.5,324.4,541.5,324.5,534.7z"/>
<path class="st1" d="M421.5,534.7c5,0,7.3,0,9.5,5.3c3.3,7.7,5.5,16.1,8.2,24.2c0.8-6.5-1-26.2,1.7-29.1c1.7-0.3,2.5-0.5,3.9,0.4
	c3,5.8,1.8,34.3,1.7,42.2c-2.7,0.3-4.7,0.6-7.3-0.2c-1.5-2.4-8.8-24.7-10.4-29.2c-0.5,5.1,0.8,27-1.6,29.3c-3-0.1-3.8,0.5-5.7-1.1
	C420.5,570.7,421.2,541.8,421.5,534.7z"/>
<path class="st1" d="M437.5,476.8c2.7,0,3.7,0.1,6.4,0.5c3,1.8,8.4,23.2,11.1,29.4c0.6-5.7-0.4-26.9,2.2-29.4
	c2.8,0.1,3.2-0.4,4.9,1.1c0.8,5.7,0.3,34.2,0.2,41.3c-2.9,0.4-3.7,0.7-6.5,0.1c-2.3-1.9-9.3-23.6-11.9-29.6
	c-0.3,9,0.5,19.7-0.2,28.7c0,0.5-0.8,0.7-1.4,1.1c-2,0-3,0.2-4.5-1C436.6,513.4,437.4,484,437.5,476.8z"/>
<path class="st1" d="M476.2,534.9h9.8c3.6,11.4,6.8,29,8.8,41.1c0.1,0.6-0.4,0.9-0.9,1.5c-2.3,0.3-3,0.5-5.3,0
	c-2.2-2-2.6-7-3.3-10.3l-8.7-0.3c-0.9,4.5-0.4,8.3-3.8,10.9c-2.7,0.2-2.7,0.6-4.8-0.4C467.5,571.7,474.4,541.6,476.2,534.9z"/>
<path class="st0" d="M480.8,545.8c2,3.3,4.3,12.2,1.7,15.5c-2.6-0.9-2.6-0.4-4-2.2C477.8,554.9,479.3,550,480.8,545.8z"/>
<path class="st1" d="M414.1,477c2.9-0.2,5.8-0.6,8.5,0.5c2.9,3,9,35.7,9.4,41.1l-1.1,1.1c-2.2,0.2-3.2,0.5-5.3-0.3
	c-2-2.2-2.2-7.1-2.8-10.5c-13.8-0.3-6,3.2-11.5,10.6c-2.5,0.6-2.9,0.6-5.4,0.3l-0.8-1.6C404.9,513.8,412.2,481.9,414.1,477z"/>
<path class="st0" d="M418.3,487.9c1.1,3.9,2.8,9,2.6,13.1c-0.1,1.9-0.6,1.8-2.2,3.1c-2.1-1.1-2-0.6-3.1-2.4
	C415.4,496.9,416.9,492.3,418.3,487.9z"/>
<path class="st1" d="M349.8,477.1l9.9-0.2c1.2,6.6,9.3,39.3,7.5,42.5c-2.5,0.5-2.9,0.6-5.4,0.3c-2.4-2.6-2.5-6.7-3.1-10.5
	c-15.2-0.9-7.5,5.8-11.3,10.4c-2.3,1-3.3,0.7-5.8,0.3C340.4,517.5,348,481.4,349.8,477.1z"/>
<path class="st0" d="M354.5,487.9l0.9,1c0.7,4.6,2.6,11.6,0.4,15.1c-2.7-1.2-2.2-0.5-3.6-2.7C351.6,496.5,352.8,492.4,354.5,487.9z"
	/>
<path class="st1" d="M476.4,476.7l9.6,0.3c1.5,5.2,9.5,39.7,7.6,42.5c-2.1,0.3-3.5,0.7-5.4-0.2c-1.7-1.7-2-6.6-2.9-9.9
	c-2.7-0.2-5.9-0.2-8.7-0.3c-0.6,3.4-0.9,8.4-3.3,10.5c-2.3,0.6-2.6,0.5-4.9,0.1C466.5,516.3,474.9,482.7,476.4,476.7z"/>
<path class="st0" d="M480.5,487.8c2,3.6,4.5,12.7,1.8,16c-2.7-0.8-2.5-0.2-4-2.1C477.8,497.2,479.5,492.4,480.5,487.8z"/>
<path class="st1" d="M317.4,476.9c6.2-0.1,15.5-1.2,20.8,2.5c2.2,1.5,3.4,4.5,3.7,7.1c1.4,13.7-6.5,14.4-17.4,15.7
	c0,7.3,1.4,13.8-2.9,18.5l-2-0.1C315.8,516.9,317.4,484.2,317.4,476.9z"/>
<path class="st0" d="M324.6,482.6c10.2,0.4,10.9,3.7,8.4,12.5c-3.5,0.6-5.2,1.3-8-0.9C323.8,491.5,324.4,485.8,324.6,482.6z"/>
<path class="st1" d="M269.8,477c2.6-0.2,3.8-0.3,6.4,0.4c2.1,3.4,1.4,26.1,1.1,31.2c-0.6,11.1-8,16.9-18.2,9.4
	c-1-3.4-2.4-7.9-0.5-11.1c2.5-0.6,2.9-0.5,5.4,0.1c0.9,1.8,0.9,4,1.1,6c1.5,2,0.7,1.6,2.8,1.9C271.6,511.1,269.9,483.9,269.8,477z"
	/>
<path class="st1" d="M453.9,534.8c2.7-0.1,5.2-0.4,7,1.3c1,8.2,0.4,32.4,0.4,41.8c-2.6,0.1-4.6,0.3-6.9-0.7
	C453,573.3,453.9,540.9,453.9,534.8z"/>
<path class="st1" d="M284.9,476.9c2.6-0.1,3.3-0.2,5.9,0.3c2,2.3,1.1,37.1,1,42.7c-2.9,0-4.8,0.3-7-1.1
	C284,513.2,284.9,484.5,284.9,476.9z"/>
<path class="st1" d="M298.4,500.8c3.8-0.1,8.8-0.9,11.8,0.8c1.2,2.3,0.8,1.9,0.5,5c-3.7,0.2-9.3,1.1-12.2-0.8
	C297.5,503.4,297.9,503.9,298.4,500.8z"/>
</svg>
