<?xml version="1.0" encoding="UTF-8"?>
<svg id="Layer_1" data-name="Layer 1" xmlns="http://www.w3.org/2000/svg" viewBox="0 0 1000 1000">
  <defs>
    <style>
      .cls-1 {
        fill: #fff;
      }

      .cls-1, .cls-2, .cls-3 {
        fill-rule: evenodd;
      }

      .cls-1, .cls-3 {
        stroke-width: 0px;
      }

      .cls-2 {
        fill: none;
        stroke: #fff;
        stroke-miterlimit: 22.93;
        stroke-width: .22px;
      }

      .cls-3 {
        fill: #63003d;
      }
    </style>
  </defs>
  <path class="cls-3" d="M500,952.06c-249,0-452.09-203.07-452.09-452.06S251,47.94,500,47.94s452.09,203.07,452.09,452.06-203.09,452.06-452.09,452.06Z"/>
  <path class="cls-1" d="M500,912c-223.29,0-405.41-185.08-405.41-411.99S276.71,88.01,500,88.01s405.41,185.07,405.41,411.99-182.12,411.99-405.41,411.99h0ZM499.69,879.1c205.64,0,373.37-170.44,373.37-379.42S705.33,120.26,499.69,120.26,126.32,290.7,126.32,499.68s167.72,379.42,373.36,379.42h0ZM501.45,232.25c43.22,18.12,44.84,66.43,45.38,108.14,1.07,96.06,1.07,233.85,1.07,293.68,0,68.62-36.19,120.22-82.1,120.77-45.92,1.1-106.42-32.94-105.34-79.6,29.71-2.74,64.82-2.74,72.38-48.3,18.01-117.5-171.6-132.48-168.54,1.09,5.26,229.33,291.21,229.85,420.26,108.69-3.79-7.68-27.01-15.36-27.01-30.73,0-47.21-7.56-354.62,12.42-371.08,18.9-15.92,36.73-30.75,68.6-24.15-49.7-54.9-65.36-29.65-102.09-31.3-23.23-62.03-80.48-104.84-189.06-68.62,25.38,3.3,50.77,18.12,54.01,21.41Z"/>
  <path class="cls-2" d="M500,912c-223.29,0-405.41-185.08-405.41-411.99S276.71,88.01,500,88.01s405.41,185.07,405.41,411.99-182.12,411.99-405.41,411.99h0ZM499.69,879.1c-205.64,0-373.36-170.44-373.36-379.42S294.04,120.26,499.69,120.26s373.37,170.45,373.37,379.42-167.73,379.42-373.37,379.42h0ZM501.45,232.25c43.22,18.12,44.84,66.43,45.38,108.14,1.07,96.06,1.07,233.85,1.07,293.68,0,68.62-36.19,120.22-82.1,120.77-45.92,1.1-106.42-32.94-105.34-79.6,29.71-2.74,64.82-2.74,72.38-48.3,18.01-117.5-171.6-132.48-168.54,1.09,5.26,229.33,291.21,229.85,420.26,108.69-3.79-7.68-27.01-15.36-27.01-30.73,0-47.21-7.56-354.62,12.42-371.08,18.9-15.92,36.73-30.75,68.6-24.15-49.7-54.9-65.36-29.65-102.09-31.3-23.23-62.03-80.48-104.84-189.06-68.62,25.38,3.3,50.77,18.12,54.01,21.41Z"/>
</svg>