<?xml version="1.0" encoding="utf-8"?>
<!-- Generator: Adobe Illustrator 27.1.1, SVG Export Plug-In . SVG Version: 6.00 Build 0)  -->
<svg version="1.1" id="Layer_1" xmlns="http://www.w3.org/2000/svg" xmlns:xlink="http://www.w3.org/1999/xlink" x="0px" y="0px"
	 viewBox="0 0 400 400" style="enable-background:new 0 0 400 400;" xml:space="preserve">
<style type="text/css">
	.st0{fill:#2E5099;}
	.st1{fill:#FFFFFF;}
</style>
<path class="st0" d="M249.4,1.1l98.5,38.6l-3.6,119.9c-1.6,53.5-14.1,91.6-34.9,124.2c-25.7,40.4-67,78.9-109.4,115.2
	c-42.4-36.2-83.7-74.8-109.4-115.2c-20.7-32.6-33.3-70.6-34.9-124.2L52.1,39.7l98.5-38.6L200,13.3L249.4,1.1z"/>
<path class="st1" d="M65.6,48.6l3.3,110.6c0.7,25,3.9,46.8,9.7,66.6c5.3,18.1,12.9,34.8,23.1,50.8c13.1,20.6,30.6,40.8,49.8,60.1
	V14.9L65.6,48.6z M248.5,14.9v321.8c19.2-19.3,36.7-39.5,49.8-60.1c10.2-16.1,17.8-32.7,23.1-50.8c5.8-19.9,9-41.7,9.7-66.6
	l3.3-110.6L248.5,14.9z"/>
<path class="st0" d="M120,82.6h-0.3l0,0.3c-0.1,0.7-0.3,1.2-0.6,1.5c-0.3,0.3-0.6,0.4-1,0.4c-0.2,0-1.2-0.3-2.6-0.8
	c-2.5-1-4.9-1.5-7.2-1.5c-3.1,0-6,0.8-8.7,2.3c-2.7,1.5-4.9,3.7-6.5,6.4c-1.6,2.8-2.4,5.7-2.4,8.7c0,2.9,0.7,5.7,2.2,8.3
	c1.5,2.6,3.5,4.6,6.2,6c2.7,1.4,5.7,2.1,9.1,2.1c2.6,0,4.9-0.4,6.9-1.3c2-0.9,3.9-2.2,5.6-4.1l0.1-0.1V107l-0.6,0.7
	c-1.8,2.1-3.5,3.6-5.1,4.4c-1.6,0.8-3.4,1.3-5.3,1.3c-2.4,0-4.2-0.6-5.7-1.7c-1.5-1.1-2.5-2.8-3.2-5.1c-0.7-2.3-1.1-4.8-1.1-7.6
	c0-2.8,0.5-5.4,1.4-7.7c0.7-1.8,1.9-3.2,3.5-4.3c1.6-1.1,3.3-1.6,5.2-1.6c2.3,0,4.3,0.7,6.1,2.2c1.8,1.5,3,3.6,3.7,6.4l0.1,0.3h1.6
	V82.6L120,82.6"/>
<path class="st1" d="M201.3,104.2h-8.4l4.3-9.6L201.3,104.2z M214.8,113.3c-0.6-0.5-1.5-2.1-2.6-4.5l-11.5-26.1h-0.9l-11.4,25.4
	c-1.1,2.4-2,4-2.6,4.7c-0.7,0.7-1.5,1.1-2.6,1.3l-0.3,0v1.5h11.2v-1.6l-0.3,0c-1.6-0.1-2.7-0.3-2.9-0.5c-0.6-0.4-0.9-0.9-0.9-1.6
	c0-0.6,0.2-1.4,0.6-2.4l1.2-2.8h10.7l1.6,3.7c0.4,1,0.7,1.6,0.7,1.7c0.1,0.3,0.1,0.5,0.1,0.8c0,0.4-0.1,0.6-0.4,0.8
	c-0.4,0.3-1.2,0.4-2.4,0.4h-1v1.6h16v-1.6l-0.3,0C215.9,114,215.2,113.7,214.8,113.3"/>
<path class="st0" d="M291.9,83.4v1.6h1.7c0.8,0,1.5,0.1,1.9,0.4c0.5,0.3,0.8,0.6,0.9,0.9c0.1,0.3,0.2,1.3,0.2,2.9V106
	c0,3.3-0.1,5.3-0.3,5.9c-0.2,0.7-0.4,1.1-0.8,1.4c-0.4,0.3-0.8,0.4-1.4,0.4c-0.9,0-1.6-0.2-2.1-0.6c-0.3-0.3-0.5-0.5-0.5-0.8
	c0-0.1,0.2-0.5,0.6-1.1c0.4-0.6,0.7-1,0.8-1.2c0.1-0.4,0.2-0.8,0.2-1.3c0-1-0.4-1.8-1.1-2.5c-0.7-0.7-1.6-1-2.6-1
	c-1,0-2,0.4-2.7,1.1c-0.7,0.7-1.1,1.7-1.1,2.9c0,1.8,0.9,3.5,2.6,4.9c1.7,1.5,4,2.2,6.7,2.2c2.2,0,4.2-0.5,5.8-1.4
	c1.6-1,2.7-2.2,3.4-3.6c0.6-1.5,0.9-3.7,0.9-6.7V89.1c0-1.6,0.1-2.6,0.2-2.8c0.2-0.5,0.5-0.8,0.8-0.9c0.5-0.3,1.2-0.4,2.1-0.4h1.4
	v-1.6L291.9,83.4z"/>
</svg>
