<?xml version="1.0" encoding="UTF-8" standalone="no"?>
<!-- Created with sK1/UniConvertor (http://sk1project.org/) -->

<svg
   xmlns:dc="http://purl.org/dc/elements/1.1/"
   xmlns:cc="http://creativecommons.org/ns#"
   xmlns:rdf="http://www.w3.org/1999/02/22-rdf-syntax-ns#"
   xmlns:svg="http://www.w3.org/2000/svg"
   xmlns="http://www.w3.org/2000/svg"
   xmlns:sodipodi="http://sodipodi.sourceforge.net/DTD/sodipodi-0.dtd"
   xmlns:inkscape="http://www.inkscape.org/namespaces/inkscape"
   width="181.80766pt"
   height="189.5pt"
   viewBox="0 0 181.80766 189.5"
   version="1.1"
   id="svg36"
   sodipodi:docname="Kashima_Antlers_FC (1).svg"
   style="fill-rule:evenodd"
   inkscape:version="0.92.4 (5da689c313, 2019-01-14)">
  <metadata
     id="metadata42">
    <rdf:RDF>
      <cc:Work
         rdf:about="">
        <dc:format>image/svg+xml</dc:format>
        <dc:type
           rdf:resource="http://purl.org/dc/dcmitype/StillImage" />
        <dc:title />
      </cc:Work>
    </rdf:RDF>
  </metadata>
  <defs
     id="defs40" />
  <sodipodi:namedview
     pagecolor="#ffffff"
     bordercolor="#666666"
     borderopacity="1"
     objecttolerance="10"
     gridtolerance="10"
     guidetolerance="10"
     inkscape:pageopacity="0"
     inkscape:pageshadow="2"
     inkscape:window-width="1366"
     inkscape:window-height="705"
     id="namedview38"
     showgrid="false"
     fit-margin-top="1"
     fit-margin-bottom="1"
     fit-margin-right="1"
     fit-margin-left="1"
     inkscape:zoom="1.189304"
     inkscape:cx="379.87184"
     inkscape:cy="188.91774"
     inkscape:window-x="-8"
     inkscape:window-y="-8"
     inkscape:window-maximized="1"
     inkscape:current-layer="svg36" />
  <g
     id="g34"
     transform="matrix(0.33127208,0,0,0.33127208,-8.477893,-35.072217)">
    <path
       style="fill:#ffffff;stroke:none"
       d="M 489.832,537.159 C 549.1,464.64 571.39,379.259 571.39,291.892 V 208.533 C 420.186,151.607 367.251,113.378 300,113.378 c -67.224,0 -120.142,38.229 -271.3894,95.155 v 83.359 c 0,130.404 49.6443,256.337 197.7704,341.664 22.849,13.163 58.833,29.36 73.619,41.334 14.786,-11.974 50.789,-28.171 73.646,-41.334 45.032,-25.935 80.963,-55.631 109.152,-88.059 l 7.034,-8.338"
       id="path2"
       inkscape:connector-curvature="0" />
    <path
       style="fill:#1f211d;stroke:none"
       d="m 300,113.378 c -67.224,0 -120.142,38.229 -271.3894,95.155 v 83.359 c 0,130.404 49.6443,256.337 197.7704,341.664 22.849,13.163 58.833,29.36 73.619,41.334 14.786,-11.974 50.789,-28.171 73.646,-41.334 45.032,-25.935 80.963,-55.631 109.152,-88.059 h -3.797 C 450.92,577.517 415.246,606.912 370.666,632.616 349.228,644.963 316.205,659.988 300,671.661 283.795,659.988 250.808,644.963 229.335,632.616 81.2529,547.271 31.5908,421.338 31.5908,290.916 V 209.935 C 181.632,153.469 233.494,115.4 300,115.95 c 66.488,0.586 118.368,37.519 268.409,93.985 v 80.981 c 0,86.605 -21.882,171.24 -79.979,243.317 l 1.402,2.926 C 549.1,464.64 571.39,379.259 571.39,291.892 V 208.533 C 420.186,151.607 367.251,113.378 300,113.378 Z"
       id="path4"
       inkscape:connector-curvature="0" />
    <path
       style="fill:#beb1aa;fill-opacity:1;stroke:none;stroke-opacity:1"
       d="M 300,663.323 C 287.325,652.307 269.807,644.573 246.435,632.368 92.6948,551.954 39.1479,420.45 39.1479,297.16 V 214.121 C 126.906,187.724 225.254,123.56 300,123.56 v 539.763"
       id="path6"
       inkscape:connector-curvature="0" />
    <path
       style="fill:#b7183f;fill-opacity:1;stroke:none;stroke-opacity:1"
       d="m 300,663.323 c 12.684,-11.016 30.21,-18.75 53.591,-30.955 C 507.305,551.954 560.896,420.45 560.896,297.16 V 214.121 C 473.103,187.724 374.772,123.56 300,123.56 v 539.763"
       id="path8"
       inkscape:connector-curvature="0" />
    <path
       style="fill:#1f211d;stroke:none"
       d="m 341.608,381.618 -18.857,-40.872 c 5.925,-10.164 19.789,-28.17 30.867,-38.317 11.078,-10.183 26.299,-30.725 26.299,-65.14 0,-17.083 -8.276,-45.272 -26.752,-61.432 37.875,14.777 54.949,59.8 48.5,96.078 40.633,-20.791 99.768,-33.723 99.768,-97.923 0,-25.421 -15.717,-48.962 -37.9,-65.122 83.145,29.075 69.308,117.312 20.329,151.957 28.65,4.613 53.592,17.562 65.593,45.733 -21.705,-17.562 -38.327,-27.266 -69.265,-27.266 -66.062,0 -118.27,46.194 -138.582,102.304"
       id="path10"
       inkscape:connector-curvature="0" />
    <path
       style="fill:#1f211d;stroke:none"
       d="m 288.163,515.339 c 0,0 -0.435,-6.208 -0.674,-11.299 -0.231,-5.109 -1.392,-9.012 -2.759,-12.241 l -16.825,-41.582 v -18.449 l -9.039,-8.799 v -20.79 l 25.864,-56.341 h 30.54 l 25.864,56.341 v 20.79 l -9.03,8.799 v 18.449 l -16.834,41.582 c -1.367,3.229 -2.529,7.132 -2.768,12.241 -0.213,5.091 -0.692,11.299 -0.692,11.299 h -23.647"
       id="path12"
       inkscape:connector-curvature="0" />
    <path
       style="fill:#1f211d;stroke:none"
       d="m 258.392,381.618 18.875,-40.872 c -5.935,-10.164 -19.798,-28.17 -30.876,-38.317 -11.087,-10.183 -26.308,-30.725 -26.308,-65.14 0,-17.083 8.302,-45.272 26.778,-61.432 -37.892,14.777 -54.966,59.8 -48.5,96.078 -40.677,-20.791 -99.7853,-33.723 -99.7853,-97.923 0,-25.421 15.7353,-48.962 37.8743,-65.122 -83.1282,29.075 -69.2649,117.312 -20.312,151.957 -28.6409,4.613 -53.5828,17.562 -65.5926,45.733 21.6865,-17.562 38.3442,-27.266 69.2646,-27.266 66.089,0 118.261,46.194 138.582,102.304"
       id="path14"
       inkscape:connector-curvature="0" />
    <path
       style="fill:#1f211d;stroke:none"
       d="m 271.227,596.623 c -0.276,1.206 0.124,2.27 1.197,2.554 0.727,0.195 1.578,0.142 2.51,-0.107 l 255.167,-53.999 -3.611,5.056 -264.328,64.058 c -3.974,0.549 -8.098,0.958 -10.52,-0.816 -2.049,-1.508 -1.854,-3.655 -1.011,-7.38 l 13.73,-53.219 c 0.346,-1.632 -1.073,-2.377 -3.432,-1.933 -4.817,0.958 -8.702,3.423 -14.13,6.51 -13.899,7.929 -27.922,17.261 -41.094,26.982 l 49.192,-13.908 -3.814,11.602 -63.384,15.824 -42.743,34.29 c -8.293,7.628 -14.707,12.383 -27.532,13.11 l 5.668,-5.074 45.866,-37.945 -48.953,12.595 c -2.767,0.355 -6.741,-0.567 -7.814,-3.015 l 72.226,-21.288 c 27.302,-20.968 54.257,-40.269 84.61,-53.84 4.31,-1.898 11.3,-3.69 15.025,-0.354 2.306,2.075 1.996,5.907 1.304,8.586 l -14.129,51.711"
       id="path16"
       inkscape:connector-curvature="0" />
    <path
       style="fill:#1f211d;stroke:none"
       d="m 427.468,534.481 c -3.104,7.433 -9.828,13.482 -14.972,16.657 0.399,-5.055 5.073,-14.848 12.524,-18.361 2.191,-0.851 2.954,0.267 2.448,1.704 m -44.048,15.007 c 2.883,-10.892 7.895,-20.773 16.818,-29.234 1.161,-1.1 2.492,-2.377 3.956,-1.721 1.108,0.479 1.366,1.969 0.603,3.601 -1.632,3.513 -4.231,7.717 -6.865,11.141 -4.054,5.232 -9.358,11.53 -14.512,16.213 m 112.895,-17.917 c -1.144,-6.776 -8.736,-13.162 -14.679,-15.628 0,0 -8.116,16.32 -11.478,21.536 -2.945,3.849 -5.339,7.716 -8.993,10.271 -0.799,0.461 -2.564,1.543 -2.564,0.124 0.585,-7.521 9.65,-12.985 5.286,-20.312 -2.119,-3.601 -12.657,-3.814 -18.759,-5.392 -3.291,12.382 -8.418,24.037 -19.984,32.073 -3.637,2.554 -9.012,5.712 -11.477,3.228 5.428,-3.636 22.449,-15.575 21.464,-27.159 -0.363,-3.796 -3.264,-5.659 -5.304,-6.351 -2.652,-0.905 -7.317,-0.78 -11.202,1.65 -10.272,6.244 -17.731,18.857 -16.311,32.339 -3.496,2.271 -16.916,10.431 -20.463,1.047 11.264,-9.118 26.485,-24.658 31.124,-41.05 0.727,-2.43 0.248,-6.705 -2.475,-8.71 -6.918,-5.109 -15.895,-0.851 -21.456,4.79 -12.604,13.5 -19.451,29.306 -19.691,47.471 -3.85,3.512 -8.409,6.386 -13.349,7.522 -1.783,0.39 -2.812,-1.278 -2.723,-3.034 0.346,-8.87 2.723,-15.77 7.335,-24.143 l 10.36,-2.448 c 0.922,-2.023 2.218,-4.772 2.812,-6.67 l -9.739,2.997 c 2.333,-4.594 5.96,-8.958 9.34,-13.145 -11.824,-1.738 -21.235,8.639 -25.43,18.113 -4.852,2.412 -12.081,2.182 -14.662,8.231 l 11.842,-2.644 -3.247,9.811 c -3.929,5.321 -15.859,17.58 -18.077,17.757 -1.685,0.177 -0.017,-4.169 0.71,-6.457 2.306,-7.22 6.848,-10.875 7.397,-16.782 0.196,-2.164 -2.421,-3.92 -6.359,-2.749 -9.739,2.891 -18.698,13.357 -26.273,22.21 l -0.798,0.904 c 2.076,-5.393 5.686,-10.981 8.923,-15.806 -18.999,1.792 -23.105,24.623 -27.346,36.934 l 9.305,-1.632 c 8.373,-10.484 15.788,-20.844 26.086,-30.246 l 1.401,-1.1 c -1.543,2.36 -4.053,7.876 -5.109,10.963 -1.215,3.637 -3.051,10.981 0.134,14.05 1.233,1.188 3.539,1.561 5.357,1.047 8.152,-2.307 16.09,-9.757 23.052,-17.776 -0.079,5.287 1.872,9.544 6.067,10.343 7.823,1.561 19.47,-5.996 25.555,-10.662 7.246,9.633 24.019,0.479 33.297,-4.31 0,0 1.907,1.365 3.601,1.72 17.003,3.832 32.17,-16.693 40.854,-30.831 1.047,0.07 3.761,0.408 4.719,0.745 0.417,0.142 0.692,0.514 0.47,0.975 -2.359,5.482 -7.841,11.886 -5.224,17.545 1.099,2.395 4.159,3.477 6.678,3.14 12.613,-1.686 19.328,-16.427 25.981,-26.255 3.361,1.81 5.96,4.985 5.915,7.823 -0.018,3.034 -0.851,4.329 -3.14,5.695 -1.756,1.011 -4.559,1.046 -6.705,0.213 -1.508,2.04 -4.63,6.475 -6.484,8.604 7.522,-0.107 15.186,-1.899 20.729,-7.008 3.069,-2.821 4.612,-7.983 3.707,-13.571"
       id="path18"
       inkscape:connector-curvature="0" />
    <path
       style="fill:#1f211d;stroke:none"
       d="m 140.689,503.064 h 4.417 l -3.636,6.102 3.548,6.475 h -4.417 l -2.98,-5.605 v 5.534 H 133.7 v -12.506 h 3.921 v 5.003 l 3.068,-5.003"
       id="path20"
       inkscape:connector-curvature="0" />
    <path
       style="fill:#1f211d;stroke:none"
       d="m 186.014,503.685 c 0,0.017 -0.905,-0.869 -3.539,-0.869 -2.803,0 -5.615,1.241 -5.615,4.257 0,1.401 1.056,2.448 2.067,2.927 1.127,0.479 3.167,0.993 3.149,1.544 -0.018,0.603 -0.878,0.815 -1.552,0.815 -1.029,0 -2.555,-0.549 -3.335,-1.028 v 3.565 c 0,0 1.357,0.941 3.956,0.941 2.527,0 5.791,-1.491 5.791,-4.169 0,-1.863 -0.647,-2.395 -2.359,-3.247 -1.073,-0.55 -2.776,-0.638 -2.776,-1.419 0,-0.816 0.692,-0.887 1.756,-0.887 0.79,0 2.182,0.532 2.457,0.869 v -3.299"
       id="path22"
       inkscape:connector-curvature="0" />
    <path
       style="fill:#1f211d;stroke:none"
       d="m 159.653,510.39 h 2.076 l -1.038,-4.346 -1.038,4.346 m -0.541,2.981 -0.568,2.253 h -4.284 l 3.087,-12.613 h 6.67 l 3.069,12.613 h -4.213 l -0.603,-2.253 h -3.158"
       id="path24"
       inkscape:connector-curvature="0" />
    <path
       style="fill:#1f211d;stroke:none"
       d="m 265.284,510.39 h 2.075 l -1.055,-4.346 -1.02,4.346 m -0.506,2.981 -0.603,2.253 h -4.266 l 3.069,-12.613 h 6.669 l 3.069,12.613 h -4.213 l -0.621,-2.253 h -3.104"
       id="path26"
       inkscape:connector-curvature="0" />
    <path
       style="fill:#1f211d;stroke:none"
       d="m 204.321,510.816 v 4.825 h 4.346 v -12.648 h -4.346 v 4.683 h -2.501 v -4.683 h -4.328 v 12.648 h 4.328 v -4.825 h 2.501"
       id="path28"
       inkscape:connector-curvature="0" />
    <path
       style="fill:none;stroke:#000000;stroke-width:4.30518007"
       d="M 221.449,515.624 V 503.011"
       id="path30"
       inkscape:connector-curvature="0" />
    <path
       style="fill:#1f211d;stroke:none"
       d="m 243.251,515.641 2.324,-7.504 v 7.504 h 4 v -12.577 h -6.067 l -1.526,6.564 -1.525,-6.564 h -6.067 v 12.577 h 3.991 v -7.504 l 2.307,7.504 h 2.563"
       id="path32"
       inkscape:connector-curvature="0" />
  </g>
</svg>
