<?xml version="1.0" encoding="utf-8"?>
<!-- Generator: Adobe Illustrator 29.6.1, SVG Export Plug-In . SVG Version: 9.03 Build 0)  -->
<svg version="1.0" id="Layer_1" xmlns="http://www.w3.org/2000/svg" xmlns:xlink="http://www.w3.org/1999/xlink" x="0px" y="0px"
	 viewBox="0 0 300 300" style="enable-background:new 0 0 300 300;" xml:space="preserve">
<style type="text/css">
	.st0{fill:#FFFFFF;}
	.st1{fill:#006400;}
	.st2{fill:#FF0001;}
</style>
<g>
	<path class="st0" d="M258.8,106.6v101.5l-2.5,7c-7.4,21.1-20.2,32.9-55.6,51.3c-21.5,11.2-33.8,18.6-48.3,28.8
		c-0.7,0.5-3.8-1-8.5-4.3c-11.7-8-18.9-12.2-38.6-22.5c-23-11.9-34.8-19.7-43.6-28.7c-7.7-7.8-11.8-14.1-15.4-24.1l-2.5-6.7
		l-0.3-102.2L43.4,4.6l107.7,0.2l107.7,0.3V106.6z"/>
	<path class="st1" d="M151.1,298.1c-1.6,0-4.3-1.1-9.8-4.9c-11.5-7.9-18.7-12-38.3-22.3c-23.2-12.1-35.2-20-44.3-29.2
		c-8.1-8.2-12.4-14.9-16.1-25.1l-2.6-7.1L39.5,1.9L150,2.1l110.5,0.3v206.2l-2.6,7.4c-7.7,21.8-21,34.1-56.9,52.9
		c-21.4,11.2-33.5,18.4-48,28.6l-0.1,0.1C152.4,297.9,151.8,298.1,151.1,298.1z M45.6,208.5l2.3,6.2c3.4,9.4,7.3,15.5,14.8,23.1
		c8.7,8.7,20.3,16.4,42.9,28.2c19.9,10.4,27.1,14.6,38.9,22.7c3.5,2.5,5.3,3.4,6.2,3.7c14.3-10.1,26.5-17.3,47.8-28.4
		c34.9-18.2,47.1-29.4,54.2-49.8l2.3-6.5V7.8L150,7.6L45,7.4L45.6,208.5z"/>
	<g>
		<path class="st2" d="M134.8,123.1c0.7,0,1.4,0.6,1.4,1.5c0,0.8,0.5,1.3,1.1,1.1c1.3-0.5,2.2-2.7,1-2.5c-1.7,0.3-2.5-0.2-1.3-0.9
			c0.9-0.6,0.6-0.8-1.2-0.7c-1.4,0.1-2.9,0.6-3.3,1.1c-0.5,0.6-0.5,1.6,0,2.3c0.7,1.2,0.9,1.1,0.9-0.3
			C133.5,123.9,134.1,123.1,134.8,123.1z"/>
		<path class="st2" d="M82.3,133.1c1.4-2.2,0.1-4.5-2.6-4.5c-1.4,0-2.6,0.6-2.9,1.5c-0.7,2,0.9,4.5,2.9,4.5
			C80.6,134.6,81.8,134,82.3,133.1z"/>
		<path class="st2" d="M50.8,12.9v26.2v26.2l64.6-0.2l64.5-0.3l0.3-26l0.2-25.9h-64.8H50.8z M78.4,53.3c-8.7,0.1-10.1-0.1-10.1-1.4
			c0-0.7,0.6-1.4,1.3-1.4c1.9,0,1.9-23.5,0-24.2c-2.9-1.1-0.9-2.2,4.2-2.2c3,0,5.5,0.4,5.5,0.8s-0.6,1.1-1.4,1.4
			c-1.7,0.6-1.9,8.6-0.3,10.3c0.7,0.7,0.7,1.4-0.1,2.4c-0.6,0.7-1,3.3-0.8,6.2c0.2,3.9,0.6,5,2,5.1c1.4,0.3,1.7-0.1,1.3-2
			c-0.3-1.3,0.1-3.1,0.7-3.9c2-2.8,4.4-0.4,4.8,4.5C85.8,53.4,86.3,53.1,78.4,53.3z M92.5,54.2c-1.6,0-4-2.6-4-4.1
			c0-1.5,2.5-4.1,3.9-4.1c0.6,0,1.8,0.6,2.8,1.6c0.9,0.8,1.7,1.9,1.7,2.4C96.7,51.3,93.9,54.2,92.5,54.2z M161,47.3
			c1.4-1.6,2.8-1.7,5-0.1c3.5,2.5-0.2,8.7-3.8,6.5C160.2,52.4,159.6,49.1,161,47.3z M143.9,32c1.8-6,5.2-9.5,8.4-8.5
			c1,0.4,2.7,0.6,3.8,0.6c1.6,0,1.8,0.5,1.7,3.4c-0.1,4.1-0.9,5.7-3.2,5.7c-1.9,0-2.8-1.8-2.1-4.6c0.5-1.7,0.2-1.9-1.2-1.7
			c-1.6,0.3-1.7,1.3-1.7,11.8c0,10.8,0.1,11.5,1.8,11.5c1.5,0,1.9-0.7,2.3-4.1c0.4-2.9,0.9-4.2,2.1-4.4c1.3-0.3,1.6,0.4,1.6,4
			c0,5.3-1.8,7.7-6,7.7c-4.9,0-7.7-4.8-9-15.2C142.3,37.6,143,34.9,143.9,32z M127.1,46.9c2.6,1.5,2.3,5.3-0.6,6.6
			c-1.7,0.7-2.6,0.7-3.7-0.2c-1.7-1.4-1.8-4.7-0.3-6.2C124,45.7,124.8,45.7,127.1,46.9z M123.6,27.5c-0.6,5-1,5.6-2.9,5.6
			c-2,0-2.9-1.8-2.2-4.6c0.5-1.7,0.2-1.9-1.7-1.7c-1.9,0.3-2.2,0.7-2.2,4.4c0,3.9,0.2,4.1,2.6,4.4c3.2,0.4,3,3-0.3,3.9
			c-1.8,0.5-2.4,1.2-2.6,3.6c-0.5,4.2,0.5,7.4,2.1,7.4c0.7,0,1.4,0.6,1.4,1.3c0,0.9-1.4,1.3-5.5,1.3c-3.9,0-5.5-0.4-5.5-1.2
			c0-0.6,0.6-1.4,1.4-1.7c1.7-0.6,1.9-9.7,0.3-11.4c-0.8-0.8-0.8-1.4,0-2.2c0.6-0.6,1.1-2.8,1.1-5.1c0-2.9-0.5-4.1-1.8-4.9
			c-3.4-1.8-1-2.6,7.7-2.6l8.6,0.1L123.6,27.5z"/>
		<path class="st2" d="M251.4,30.8l-0.6-17.9h-15.1h-15l0.2,25.9l0.3,26l14.8,0.3l14.8,0.2l0.6-8.3
			C251.8,52.4,251.8,40.6,251.4,30.8z"/>
		<path class="st2" d="M50.7,105.7l0.3,47.9l0.3,48l2.6,7.3c4.8,13.5,13.3,23.8,27.8,33.6c3.6,2.4,15.4,9.1,26.2,14.9
			c19.4,10.3,35.5,19.8,40.7,24.2c2.7,2.2,2.7,2.2,4.6,0.4c1.9-1.7,19.2-13,24.3-15.9l2.8-1.6v-79.5v-79.5h-64.8H50.7z M104,134.7
			c-0.7-1.5-0.7-2.8-0.1-3.9c0.6-1,0.6-2.5,0.1-3.9c-1.4-3.6,1.4-6,4.6-3.9c0.8,0.6,0.9,1,0.2,1.4c-0.7,0.5-0.6,1.5,0.4,3.4
			c1.1,2,1.2,3.1,0.4,4.6c-0.6,1-0.7,2.9-0.5,4.1c0.4,1.2,0,3.7-0.8,5.5c-0.7,1.8-1.4,4.3-1.4,5.5c0,3.2-1.4,2.7-3.2-1.1
			c-1.5-3.1-1.5-3.6-0.1-6.4C104.6,137.6,104.7,136.4,104,134.7z M118.3,142.8c-0.3-1.7-0.1-3.2,0.5-3.6c1.2-0.7,1.2-4.7,0-7
			c-1-1.7-0.6-3.6,0.7-3.6c0.4,0,1.9,1.2,3.5,2.7c2.3,2.1,2.8,3.1,2.5,5.2c-0.3,1.5-1.1,3.4-1.8,4.2c-0.8,0.9-1.1,2.3-0.7,3.4
			c1,3.2-0.4,5.5-4.4,7.5c-2.1,1.1-4.6,2.6-5.4,3.4c-1.6,1.3-1.7,1.2-1.7-0.8c0.1-2.7,1.4-4.5,4.9-6.8
			C118.6,146,118.9,145.4,118.3,142.8z M134.7,139.8c-1.2,0.5-3.9,6.2-3.9,8c0,3.3-3.6,6.2-10.7,8.7c-3.9,1.4-7.2,2.3-7.4,2.1
			c-0.2-0.3,1.3-1.7,3.4-3c8-5.5,9.2-6.8,9.2-9.9c0-2.8,3.1-10.7,4.2-10.7c0.3,0,1.7,0.6,3.1,1.4C135.2,137.8,136,139.2,134.7,139.8
			z M136.5,141.8c0.6-0.8,1.6-0.7,3.9,0.4c1.7,0.8,3.1,1.8,3.1,2.2c0,0.4-0.8,0.8-1.8,1.1c-1.2,0.3-1.8,1.3-1.8,2.8
			c0,1.4-0.7,2.8-1.8,3.3c-1,0.6-1.8,1.7-1.8,2.8c0,1-1.7,2.9-4.3,4.8c-3.9,2.8-5.1,3-11,3.1c-7.2,0.1-9-1-3.2-1.9
			c8-1.3,14.9-6,14.9-10.2C132.5,148.8,134.6,144.6,136.5,141.8z M114.4,185.6c-0.5,0-1.7-1.3-2.8-2.8c-1.2-1.6-2.7-2.8-3.4-2.8
			c-1.8,0-2.8-1.9-1.3-2.8c2.1-1.4,3.3-0.9,5.8,2C115,181.9,115.9,185.6,114.4,185.6z M117.5,177.1c3.8,3,5.7,10.3,2.8,10.3
			c-1.6,0-2.4-1.1-4-5.5C113.5,174.8,113.7,174,117.5,177.1z M118.5,227.7c2.4,3,3.1,4.8,2.1,4.8c-1.4,0-8.3-5.6-8.3-6.7
			C112.3,224.4,117.1,225.9,118.5,227.7z M92.8,164.5c-1.7,0-2.3-0.4-1.9-1.4c0.4-0.7,0.9-1.4,1.3-1.4c0.4,0,1.2,0.6,1.8,1.4
			C95,164.3,94.7,164.5,92.8,164.5z M89.3,170.8c-0.7-1.4-0.6-2.2,0.2-3.2c1.6-1.8,3-1.1,3.4,1.7C93.2,172.3,90.8,173.4,89.3,170.8z
			 M94.6,159.6c0.3,0.6-0.4,0.8-1.5,0.6c-1.1-0.3-1.7-0.8-1.4-1.4C92.4,157.8,94.2,158.2,94.6,159.6z M92.7,156.1
			c0.7-1.3,3.1-0.9,3.1,0.5c0,0.8-0.6,1.1-1.8,0.8C93,157.1,92.4,156.6,92.7,156.1z M94.2,171.8c0.4-1.3,0.6-3,0.6-3.9
			c0-0.9,0.4-1.5,0.8-1.1c0.5,0.3,1.1,0.1,1.5-0.5c0.7-1.2,1-1.2,2.7,0.6c1.8,1.8,1.8,4.4,0,6.2c-1.9,1.9-3.1,1.1-2.8-2
			c0.2-1.4,0.1-1.7-0.1-0.9c-0.2,0.8-1,2-1.8,2.8C93.8,173.9,93.7,173.8,94.2,171.8z M95.5,187.1c0.7-0.7,2.1-0.8,2.1-0.1
			c0,0.3-0.6,1.1-1.4,1.8c-1.1,1.2-1.4,1.2-1.4,0.1C94.9,188.3,95.2,187.4,95.5,187.1z M97.2,195.1c0.7,1,1.2,1.9,1,2.2
			c-0.8,0.7-2.4-0.9-2.4-2.4C95.9,193.6,96,193.6,97.2,195.1z M97,189.7c0.4-0.7,1.3-1.4,2.1-1.4c1.5,0,1.5,0.2-0.1,1.8
			C97.2,192.2,96.2,192,97,189.7z M99.8,193.9c0.2,0,0.8,0.6,1.5,1.4c0.9,1.1,0.9,1.4-0.4,1.4c-0.8,0-1.5-0.6-1.5-1.4
			C99.5,194.5,99.7,193.9,99.8,193.9z M101.3,190.3v-2.2l2.1,2.2c1.2,1.2,2.9,2.7,3.9,3.2c1.3,0.8,1.5,1.4,0.7,2.2
			c-0.8,0.8-1.6,0.8-3.2-0.1C102.1,194.2,101.3,193,101.3,190.3z M104.9,189c-1.7-1.5-2.4-3.4-1.3-3.4c0.3,0,1.7,0.7,3,1.6
			c3.1,2,3.9,3,3.2,4.5C109.4,192.9,108.9,192.7,104.9,189z M108.3,185.9c-3.8-2.9-4.9-7.1-1.3-4.7c1.1,0.7,2.8,2.5,3.9,3.8
			C113.4,188.4,112.1,189,108.3,185.9z M105.9,164.9c-0.5-1.3-1.3-2.3-1.8-2.3c-0.5,0-0.9-1-0.9-2.3c0-2.9,1.2-2.9,3.6,0.1
			c1.1,1.4,1.9,3,1.9,3.7c0,0.7,0.6,1.3,1.5,1.3c0.7,0,1.1,0.4,0.8,0.9C109.9,168,106.8,167.2,105.9,164.9z M110.9,163.5
			c-0.6,0-1.3-0.5-1.3-0.9c0-0.6-1.2-2.2-2.8-3.9c-2.7-2.8-3.9-8.1-1.8-8.1c0.6,0,0.9,0.4,0.9,0.8s1,2,2.1,3.5
			C111.1,158.6,112.7,163.5,110.9,163.5z M107.2,168.6c0.3,0.8,1.1,1.1,2.1,0.7c1.6-0.6,1.6-0.5,0,1.2c-1.4,1.5-1.7,1.6-2.5,0.4
			c-0.7-1.1-0.9-1-0.9,0.6c0,2.5-2.3,4.4-4.2,3.7c-1.2-0.5-1.3-0.8-0.4-1.9c0.7-0.8,0.9-2.6,0.6-4.4c-0.3-1.7-0.3-3.3,0-3.7
			C102.6,164.4,106.6,166.9,107.2,168.6z M99.2,121.6c1.9-1.5,3.3-0.6,2.2,1.5c-0.5,0.8-0.6,2.1-0.2,2.8c1,1.6,1,12.8,0.1,15.2
			c-0.4,1-0.4,2.8,0.1,3.9c1.1,2.8-0.5,2.7-2.8-0.4c-1.4-1.7-1.8-3.4-1.6-5.3c0.2-1.5,0.1-3.7-0.4-4.8
			C95.6,131.6,97.3,122.9,99.2,121.6z M69,121.8c2.6-1.5,6.5-2,5.3-0.8c-0.7,0.8-7.9,3-7.9,2.5C66.4,123.3,67.5,122.6,69,121.8z
			 M67.7,139.1c-1.9-1.8-2.6-2.7-1.3-1.8c1.3,0.8,3.2,1.9,4.4,2.6c1.1,0.6,2,1.4,2,1.8C72.8,143.1,71.3,142.4,67.7,139.1z
			 M77.4,171.8c-0.5,0-0.9-0.6-0.9-1.4c0-0.7,0.5-1.4,0.9-1.4c0.6,0,0.9,0.6,0.9,1.4C78.4,171.2,78,171.8,77.4,171.8z M73.9,140.9
			c-1.4-1.2-4.3-3.5-6.5-5.1c-7.8-5.9-7.4-8.4,1.7-11.4c3.1-1.1,6.2-2.4,6.8-3c0.6-0.6,2.5-1,4.3-1.1c1.7-0.1,4.2-0.5,5.5-0.8
			c1.9-0.6,1.7-0.7-1.8-0.9c-3.9-0.2-3.9-0.3-1.4-0.9c3.7-0.9,7.8-1,11.4-0.4c3.2,0.6,3.4,1.1,1.6,3.6c-1.1,1.6-1.3,1.6-3.4,0.2
			c-2.9-2.1-4.2-1.9-2.3,0.2c1.7,1.9,1.3,5.6-0.6,5.6c-0.6,0-0.8,0.3-0.5,0.6c0.3,0.3,1.8-0.4,3.4-1.5l2.8-2l-0.2,5.4
			c0,2.9,0.2,6.7,0.6,8.3c0.8,3.6-0.2,3.8-3.1,0.6c-2.8-2.9-8.6-2.8-9.1,0.1c-0.2,1.7-0.2,1.7,0.7,0.2c1.4-2.1,4.9-2,6.9,0.3
			c1.7,1.9,1.3,4.4-0.9,5.1c-0.7,0.3-2,0.6-2.8,0.9c-0.8,0.3-1.4,0.7-1.1,0.9c0.3,0.3,2.4-0.2,4.9-0.9c4-1.2,4.6-1.2,5.6,0.3
			c2,2.7,1.5,2.9-4.9,2.9c-7.1,0-14.1-1.6-12.2-2.8c0.8-0.6,0.6-0.9-0.9-1.4C77.3,143.4,75.2,142.1,73.9,140.9z M79.1,161.9
			c-1.2-1.2-0.2-2.9,1.7-2.9c1.1,0,1.2,0.4,0.3,1.9C80.4,162.2,79.7,162.5,79.1,161.9z M81.8,170c-0.1,2-1.6,2.6-1.6,0.6
			c0-1.1,0.8-2.5,1.5-2.5C81.8,168.1,81.8,169,81.8,170z M82,163.3c0-1.6,0.9-2.5,2.5-2.5c1,0,1,0.4,0.1,1.8
			C83.2,164.7,82,165,82,163.3z M83.6,171.3c-0.7-0.7,0.3-3.1,1.3-3.1c0.5,0,0.8,0.8,0.8,1.8C85.7,171.7,84.7,172.4,83.6,171.3z
			 M85.1,165.9c-0.4-1-0.1-2,0.6-2.5c1.6-1,2.7-1,2.7-0.2c0,0.5-0.6,1.6-1.4,2.5C85.8,167.4,85.7,167.4,85.1,165.9z M88.9,177
			c0.7,0.4,1.1,0.9,0.8,1.4c-0.6,1-2.2,0.2-2.2-1C87.5,176.9,88.2,176.7,88.9,177z M86.6,180.1c0-1.2,1-1.2,2.8,0
			c1.1,0.7,1,0.9-0.6,0.9C87.5,181,86.6,180.5,86.6,180.1z M89.4,197.5c-0.5,0-0.9-0.6-0.9-1.4c0-0.7,0.5-1.4,0.9-1.4
			c0.6,0,0.9,0.6,0.9,1.4C90.3,196.9,89.9,197.5,89.4,197.5z M88.5,175c-0.9-1.2-0.8-1.4,0.8-1.4c1,0,1.9,0.4,1.9,0.8
			C91.2,176.1,89.6,176.4,88.5,175z M91.2,187.1c0-0.7,0.3-1.6,0.6-1.8c0.8-0.8,3-0.8,3,0.1c0,0.4-0.8,1.2-1.8,1.8
			C91.6,188.2,91.2,188.2,91.2,187.1z M92.6,195c0.6-1.5,0.7-1.5,1.5,0.6c0.5,1.2,0.6,2.4,0.4,2.7C93.4,199.3,91.9,196.7,92.6,195z
			 M94.5,206.7c-0.9,0-1.5-0.7-1.5-2c0-1.1,0.1-1.7,0.3-1.6c0.1,0.2,0.8,1.1,1.5,1.9C95.9,206.4,95.8,206.7,94.5,206.7z M98.9,205
			c-0.8,1.4-3.1-0.3-3.1-2.2c0-1.7,0.1-1.7,1.8-0.2C98.7,203.5,99.2,204.5,98.9,205z M101,203c-1.9,0-2.5-0.5-2.5-2
			c0-1.9,0-1.9,2.1-0.2c1.1,0.9,2.2,1.8,2.4,1.9C103.2,202.9,102.3,203,101,203z M103.3,198.5c-0.2-0.6,0.4-1,1.2-1
			c0.8,0,1.4,0.5,1.2,1c-0.2,0.6-0.7,0.9-1.2,0.9C104.1,199.5,103.5,199.1,103.3,198.5z M105.3,202.7c-0.4-0.3,0.2-1.2,1.2-1.9
			c2.2-1.7,2.2-1.7,2.2,0C108.7,202.3,106.2,203.7,105.3,202.7z M108.8,203.4c0.8-1,1.4-1.1,1.6-0.4c0.2,0.6-0.1,1.6-0.6,2.1
			C108.2,206.6,107.3,205.2,108.8,203.4z M110,207.2c2.3-1.7,2.4-1.7,2.4,0c0,0.8-0.8,1.4-2,1.4C108.3,208.5,108.2,208.5,110,207.2z
			 M113.3,244.1c-1.5,2.5-2.8-0.2-2.6-5c0.2-3.2,0.4-3.6,1.6-2.8c0.8,0.6,0.7,0.3-0.3-0.8c-1.8-2.2-1.2-5,1.1-5c0.8,0,2.6,1.1,4,2.3
			c2.8,2.5,3,3.2,1.2,3.2c-2.1,0-2.8,2-1.2,3.2c2.3,1.7,1.9,3.2-0.7,3.2C115.3,242.5,113.8,243.3,113.3,244.1z M115.5,248.6
			c-0.9-2.4,0.3-4.2,2.8-4.2c1.3,0,2.3,0.3,2.3,0.6c0,0.5-1,1.7-2.3,2.8C116.4,249.8,115.9,249.9,115.5,248.6z M122.9,249.9
			c-0.7,0.6-1.4,1.7-1.4,2.5c0,1.9-2.2,0.9-2.7-1.1c-0.5-2.5,3.7-5.3,4.9-3.3C124,248.4,123.6,249.2,122.9,249.9z M124.1,228.8
			c-0.3,1-5.4-3.3-8-6.7c-1.4-1.7-0.8-1.8,3.5-1c2.1,0.5,2.8,1.1,2.8,2.6c0,1.1,0.5,2.5,1,3C124,227.2,124.4,228.1,124.1,228.8z
			 M127.6,250.4c-0.3,0.8-0.6,1.8-0.6,2.3c0,0.5-0.6,0.8-1.4,0.8c-1.7,0-1.8-3.3-0.2-3.9C127.6,248.7,128.1,249,127.6,250.4z
			 M127.8,224.2c-0.2,0.6-2.2-0.7-4.6-2.8c-2.4-2.1-4.1-4.1-3.9-4.6c0.5-0.7,4.3-0.3,6.2,0.7c0.4,0.2,0.6,1.1,0.6,2
			c0,0.8,0.5,2,1,2.6C127.7,222.6,128,223.5,127.8,224.2z M131.1,254.5c-1.3,0-1.7-2.8-0.6-3.9c1.2-1.2,1.9-0.6,1.9,1.7
			C132.4,253.6,131.8,254.5,131.1,254.5z M134.9,253.6c-0.7-0.6-1.1-1.7-0.8-2.4c0.8-2.1,2.1-1.5,2.1,1.1
			C136.2,254.3,136,254.5,134.9,253.6z M139,253.6c-0.5,0-0.9-0.8-0.9-1.9c0-1,0.5-1.6,0.9-1.3c0.6,0.3,0.9,1.2,0.9,1.9
			S139.5,253.6,139,253.6z M138.4,210.9c-1.5,0.9-3.2,2.3-3.9,3c-1.1,1.3-1.2,1.2-0.7-0.6c0.4-1.4,0.1-2-0.6-1.7
			c-0.6,0.2-1.1,1.8-1.1,3.7c0,4.6-0.8,5-4.5,1.7c-1.7-1.5-3.7-2.9-4.3-3.1c-1.6-0.6-0.2-2.6,1.7-2.6c2.5,0,5.7-2.7,5.1-4.1
			c-0.4-0.7-0.4-2-0.1-2.7c0.5-1.1,1.4-0.9,5,0.9c2.4,1.3,4.8,2.7,5.2,3.1C140.6,208.9,139.8,210,138.4,210.9z M147.8,188.4
			c-1.8-1-3.6-1.4-3.9-0.9c-0.3,0.5-2.8,0.8-5.7,0.8c-3.4,0-6.1,0.6-7.3,1.5c-2.4,1.7-3.2,1.4-2.4-0.9c0.8-2.1,5.1-4.2,8.8-4.2
			c1.7,0,4.3-0.7,5.8-1.7l2.8-1.7l3.5,2.7c1.8,1.5,3.4,3.3,3.4,3.9C152.8,190,151.3,190.2,147.8,188.4z M152.8,204
			c0,1-0.4,1.8-0.9,1.8c-0.5,0-0.9-0.8-0.9-1.8c0-1,0.5-1.8,0.9-1.8C152.4,202.1,152.8,202.9,152.8,204z M146.5,194.3
			c-1.5-1.1-2.4-1.2-3.8-0.5c-1.1,0.6-3.9,0.7-7.1,0.4c-4.7-0.6-5.1-0.8-3.6-1.9c1-0.6,3.7-1.2,6.1-1.2c2.4,0,4.7-0.5,5-0.9
			c0.7-1.2,0.6-1.2,3.9,0.6c1.7,0.8,2.9,2.1,2.9,3.2C150,196.1,149.2,196.2,146.5,194.3z M147.7,198.4c0,2.1-0.3,2.3-4.1,1.9
			c-4.7-0.4-11.2-2.7-10.6-3.8c0.2-0.4,3.6-0.6,7.5-0.6C147.5,196.2,147.7,196.2,147.7,198.4z M128.9,208.2c0.2,0.3-0.2,0.8-0.9,1.3
			c-2.2,1.4-3.3,1-1.3-0.4C127.6,208.4,128.6,208,128.9,208.2z M141.7,252.2c-0.5-0.3-0.9-0.9-0.9-1.5c0-0.5,0.5-0.8,0.9-0.8
			c0.6,0,0.9,0.6,0.9,1.5C142.7,252.1,142.3,252.5,141.7,252.2z M140.8,206.2c-0.6-0.7-1.7-1.3-2.3-1.3c-1.4,0-6.1-4.2-5.3-4.9
			c0.6-0.6,3,0.2,4.6,1.5c0.6,0.5,1.8,0.6,2.7,0.3c1.8-0.7,4,1,4,3.1C144.5,207.1,142.2,207.9,140.8,206.2z M145.5,250.8
			c-0.6,0-1-0.5-1-0.9c0-0.6,0.2-0.9,0.4-0.9c0.3,0,0.7,0.4,1,0.9C146.1,250.3,146,250.8,145.5,250.8z M147.2,204
			c0-0.6,0.5-0.9,0.9-0.9c0.6,0,0.9,0.4,0.9,0.9c0,0.5-0.4,0.9-0.9,0.9C147.7,204.9,147.2,204.4,147.2,204z M154.5,245.8
			c-1.6,1.9-6.3,4.3-6.3,3.1c0-0.5,1.6-1.7,3.5-2.7C155.9,244,156.1,244,154.5,245.8z M154.1,204.9c-0.8-1.3,0.1-3.7,1.4-3.7
			c0.5,0,0.9,1,0.9,2.3C156.4,205.9,155.1,206.5,154.1,204.9z M157.9,215.9c-0.3,0-0.7-0.5-1-0.9c-0.3-0.6-0.1-0.9,0.4-0.9
			c0.6,0,1,0.4,1,0.9C158.3,215.4,158.1,215.9,157.9,215.9z M158.4,212.2c-1.1,0-1.9-0.5-1.9-0.9c0-0.6,0.6-0.9,1.3-0.9
			s1.7,0.4,1.9,0.9C159.9,211.8,159.4,212.2,158.4,212.2z M160.9,196.6c1.4,0,1.9,0.4,1.5,0.8c-1.4,1.3-5.1,2.1-5.1,1.2
			C157.3,197.3,158.5,196.6,160.9,196.6z M158.8,193.4c2.3-1.7,4-1.7,4,0c0,0.9-0.9,1.4-2.9,1.4
			C157.2,194.8,157.1,194.7,158.8,193.4z M160.9,204.5c0.3,1.5,0.1,1.6-1.2,0.5c-1.7-1.5-1.9-3.1-0.3-2.7
			C160,202.6,160.7,203.5,160.9,204.5z M158.6,207.1c1.2,0.3,3.2,0.2,4.4-0.3c2.9-1.2,3.7-1.2,3.3,0.1c-0.5,1.4-6.1,2.7-8.3,2
			C155.5,208.2,156.2,206.4,158.6,207.1z M168.4,198.4c0.6,0,0.9,0.4,0.9,0.9c0,0.5-0.4,0.9-0.9,0.9c-0.5,0-0.9-0.5-0.9-0.9
			C167.5,198.8,167.9,198.4,168.4,198.4z M167.5,210.4c0,0.5-0.8,0.9-1.9,0.9c-1,0-1.6-0.5-1.3-0.9c0.3-0.6,1.2-0.9,1.9-0.9
			C166.9,209.5,167.5,209.8,167.5,210.4z M165.6,198.9c0.6,0.3,0.9,1.5,0.9,2.6c0,1.7-0.2,1.7-0.9,0.6
			C164.4,200.3,164.4,198.2,165.6,198.9z M163,204.9c-1.1,0-3-3.7-2.4-4.7c0.8-1.3,3.1,0.8,3.1,2.9
			C163.8,204.1,163.5,204.9,163,204.9z M162,189.3c-0.9,0-2.2,0.6-2.8,1.4c-0.6,0.7-1.6,1.4-2.1,1.4c-0.5,0-0.3-0.7,0.6-1.7
			c0.9-0.9,1.6-2.4,1.6-3.2c0-1.8,1.9-2,3.5-0.5C164.2,188.3,164.1,189.3,162,189.3z M155.1,177.7c0.8-0.4,2.6,0.7,4.3,2.5
			c2.8,2.9,2.9,3.1,1,3.4c-1.1,0.2-2.4,1.4-3,3c-0.6,1.5-1.7,2.7-2.4,2.7c-1.6,0-1.6-0.1-0.4-3.2c0.6-1.6,0.6-2.9,0-3.9
			c-0.7-1.3-0.8-1.2-0.9,0.7c0,2.3-0.1,2.3-1.7,0.5c-0.8-1-2.5-2.7-3.6-3.6c-1.8-1.6-2.3-1.6-4.1-0.4c-1.2,0.7-4.3,1.7-7,2
			c-6.5,0.8-9.1,2.1-10.5,5.3c-1.7,3.6-2.9,2.8-3.3-2.1c-0.2-2.2-0.7-4.6-1.4-5.2c-1.7-2.1,1.1-2.9,9.5-2.7
			c6.8,0.2,8.2-0.1,10.6-1.8c1.6-1.1,3.4-1.8,4.1-1.5c0.7,0.3,2.3,0.7,3.5,1c1.1,0.2,2.5,1.2,2.9,2.1
			C153.3,177.4,154.3,178,155.1,177.7z M153.4,164.4c0.2,0.8,0.7,2.1,1,2.8c0.4,0.7,0.5,3,0.2,5.1l-0.5,3.7l-1.7-3
			c-1.5-2.8-1.9-2.9-5.5-2.7c-2.1,0.2-5.3,1.2-7.1,2.3c-2.7,1.7-4.6,2-11.7,2c-4.6,0-8.7,0.4-9,0.9c-0.3,0.5-0.9,0.9-1.4,0.9
			c-1.1,0-3.9-5.5-3-5.6c0.5-0.1,4.3,0,8.6,0.1c9.6,0.2,15.2-2,18.4-7.1c1.6-2.6,2.4-3,3.9-2.6c1,0.4,3.1,0.8,4.5,1.1
			C151.7,162.6,153.1,163.5,153.4,164.4z M145.4,125.9c0.6,0,0.9,0.2,0.9,0.4c0,0.3-0.4,0.7-0.9,1c-0.5,0.3-0.9,0.1-0.9-0.4
			C144.5,126.3,144.9,125.9,145.4,125.9z M146.7,148.5c0.9,2.3,0.6,7.5-0.4,8.2c-0.6,0.4-1.6,0.2-2.2-0.5c-1-0.7-1.7-0.4-3.1,2
			c-1.1,1.7-3.6,4.7-5.6,6.6c-4.6,4.5-10.1,5.3-17,2.6l-4.5-1.7l6.8-1c11-1.7,15.1-4.5,22-15.4C144.2,146.6,145.9,146.4,146.7,148.5
			z M143.2,124c0.2,0,0.4,0.6,0.4,1.4c0,0.7-0.4,1.4-0.9,1.4c-0.5,0-0.6-0.6-0.4-1.4C142.7,124.7,143,124,143.2,124z M131.6,125.4
			c-2.2-3.9-2.3-5.1-0.5-5.1c1.4,0,1.6-0.6,1.7-4.4c0-1.1,0.5-1.9,1-1.7c0.6,0.2,1,0.9,1,1.7c0,2.4,2.1,3.8,4,2.7
			c2.3-1.2,3.8-1.2,3.8,0.1c0,0.6-0.6,0.8-1.3,0.6c-1-0.4-1.1,0.2-0.6,2.4c0.7,3.5,0.3,5.2-1.4,5.2c-0.6,0-1.7,0.6-2.3,1.4
			c-0.6,0.7-1.5,1.1-1.9,0.8c-0.5-0.3-0.6,0.1-0.3,0.8c0.3,0.7-0.2,1.7-0.9,2.4c-1,0.9-1.6,0.7-2.8-1c-2.1-3-1.9-4.8,0.4-3.5l1.8,1
			L131.6,125.4z M128.9,118.5c1,0.6,1.1,1.1,0.3,1.9c-0.8,0.8-1.4,0.7-2.5-0.3C124.6,118.1,126.2,116.8,128.9,118.5z M123.5,125.6
			c1,0.8,1.7,1,1.7,0.5c0-0.6,0.6-1.1,1.4-1.1c0.7,0,1.4,0.7,1.4,1.7c0,0.9,0.8,2.8,1.9,4.1c2.1,2.7,1.4,3.1-1.6,1
			c-1.1-0.7-2.2-1-2.6-0.7c-0.3,0.3-1.3-0.1-2.1-0.8c-0.9-0.8-2.7-1.9-3.9-2.6c-2.8-1.5-4,0.2-2.6,3.4c0.7,1.7,0.7,3-0.1,5.2
			c-0.6,1.7-1.1,4.2-1.1,5.7c0,1.9-1,3.6-3.6,6.1c-2,1.8-3.9,3.1-4.1,2.8c-1.1-1.2-0.5-4.7,1.3-6.9c1.7-2.3,2.5-9.6,1.7-16.4
			c-0.3-2.1,0-2.3,3.6-2.4c2.2,0,4.2-0.3,4.5-0.6C120.4,123.7,121.7,124,123.5,125.6z"/>
		<path class="st2" d="M251,105.7h-15.2h-15.2v68c0,37.4,0.3,68,0.6,68c1.5,0,10-7.2,14.9-12.4c10.7-11.8,14.6-22.8,15.1-43.4
			c0.2-7,0.2-27.8,0.1-46.5L251,105.7z"/>
	</g>
	<g>
		<path class="st1" d="M233.6,84.5c-8.3-0.5-8.6-0.6-9.3-2.8l-0.6-2.3l-0.2,2.3c-0.2,2.3-0.2,2.3-1.4-0.5c-0.7-1.6-1.3-3.8-1.3-5.1
			c0.1-2.2,0.1-2.2,1.4,0.5c1,2,1.3,2.2,0.9,0.6c-0.3-1.6,0.1-2,1.6-2.1h2l-1.9-0.8c-1-0.4-4.2-3-7.1-5.9c-4.8-4.8-5.1-5.5-5.5-10
			l-0.3-4.8l-0.2,4.8l-0.2,4.7l-4.6-1.5l-4.5-1.5l-0.4-9.2l-0.3-9.3l-0.2,8.9c-0.1,4.9-0.5,9.1-0.8,9.3c-0.5,0.3-2.7,0.7-5.1,1.1
			l-4.3,0.6l-0.4-4.4l-0.3-4.5l-0.2,5.2c-0.2,4.2-0.6,5.3-1.9,5.8c-0.9,0.3-3.5,2.3-5.7,4.5l-4,4l-35.4,0.6c-19.5,0.4-37,0.9-39,1.3
			s13.2,0.9,34,1.4c20.7,0.4,37.8,0.8,37.9,1c0.2,0.2,0.1,1.6-0.3,3l-0.6,2.8L163,83.1c-6.9,0.3-28.3,0.8-47.5,1.2L80.6,85l19.3,0.6
			c10.7,0.3,27.9,0.6,38.6,0.7c10.7,0,23.3,0.4,28.2,0.7l8.9,0.6l0.6,2.7c0.4,1.5,0.5,2.8,0.3,3c-0.2,0.2-16.2,0.6-35.5,1
			c-19.4,0.4-35.4,0.9-35.5,1.3c-0.3,0.4,16.2,1,36.6,1.4l36.9,0.6l4.2,3.9l4.1,3.8l0.6,17.5c0.4,9.6,0.9,31,1.3,47.8l0.7,30.3
			l0.6-23c0.4-12.7,0.7-33.6,0.9-46.6l0.4-23.5l2.8,0.4c2.4,0.4,2.3,0.3-0.7-0.9c-4.2-1.6-5.2-2.4-2.8-2.3c2.9,0.1,8.2,2.4,7.9,3.5
			c-0.2,1.1,5.8,0.6,9.8-1c1.8-0.6,2-0.6,1.2,0.5c-0.7,0.9-0.8,11.8-0.2,40.7c1.2,49.1,1.5,55.5,1.7,39.9c0.1-6.8,0.6-28.1,1.1-47.3
			l0.9-34.9l4.5-4.9c2.5-2.6,5-4.8,5.5-4.8c1.3,0,1.4-1.6,0.1-2c-0.6-0.2-0.4-1.8,0.4-4.4l1.2-4.1l8.6-0.5l8.6-0.6L233.6,84.5z
			 M219.6,87.9c-2.2,2.3-2.3,2.3-6,0.8c-3.2-1.3-3.8-1.9-4.8-6c-1.1-4.3-1.1-4.7,1.3-7.8c2.9-3.8,2.4-3.6,6.2-2
			c2.7,1.1,3.1,1.9,4.2,7C221.9,85.6,221.9,85.6,219.6,87.9z M194.8,79.7c1.8-1.8,3.5-3.4,3.7-3.4c0.2,0,2.1,0.5,4.2,1
			c3.5,0.8,4.1,1.4,5.1,4.5c1.5,5.1,1.3,5.8-2.1,9.1l-3.1,3l-4.4-1.3c-4.1-1.2-4.5-1.5-5.5-5.3C191.6,83.3,191.7,83.1,194.8,79.7z
			 M190.3,93.6c-3.3,2.5-3.4,2.4-6.5-0.6c-2.8-2.8-2.9-3-1.7-7.8c0.9-3.2,1.1-3.3,4.4-2.8c1.8,0.3,3.7,0.7,3.9,1.1
			c0.3,0.3,1,2.3,1.5,4.4C192.9,91.5,192.8,91.8,190.3,93.6z M206.4,63.5c0.4-0.6,2.1,0.5,4.3,2.7c2,2,4.7,3.9,6,4.2
			c1.2,0.3,2.2,0.9,2.2,1.5c0,0.8-1.7,0.5-6-1.1C210.3,69.8,205.8,64.6,206.4,63.5z M193.6,64.4c2,0,5.3-0.4,7.3-0.9
			c5.1-1.1,5.2-1.1,4.5,0c-0.3,0.6,0.9,2.6,2.8,4.5l3.4,3.5l-2.1,2.9c-1.9,2.6-2.6,2.8-5.4,2.3c-5.3-1-6.4-2-6.4-6
			c0-3.3-0.2-3.6-3.9-5l-3.9-1.4H193.6z M184.2,68.3c2.9-3,4.8-3.2,10.5-1.1c1.5,0.6,2.1,1.7,2.4,4.4c0.3,3.4-0.1,4.1-2.9,7
			c-2.3,2.2-4.1,3.2-6,3.2c-4.1,0-5.2-1.2-6-6.1C181.4,71.5,181.6,71,184.2,68.3z M179,85.2c0.7-2.6,1-5.9,0.7-7.3
			c-0.3-1.4-0.1-2.5,0.4-2.5s1.2,1.4,1.5,3.1c0.7,3.9-1.1,11.6-2.7,11.6C177.9,90.1,178,89.1,179,85.2z M187.8,103.8
			c-0.6,0-1.3-1.1-1.6-2.5c-0.4-1.4-2.3-4-4.2-6c-1.9-1.8-3.5-3.6-3.5-3.9c0-1.5,2.8-0.2,5.2,2.4c1.6,1.7,3,3.9,3.3,4.9
			c0.2,1,0.7,2.6,1.1,3.4C188.5,103.2,188.4,103.8,187.8,103.8z M196.4,105.2c-2-0.7-4.3-1.3-5.1-1.4c-1.5,0-3.6-3.6-3.6-6
			c0-1.5,4.5-5,6.4-5.1c0.7,0,2.9,0.5,4.9,1c2.6,0.6,3.9,1.7,5,4c1.7,3.5,1.3,5.3-1.7,7.3C200.3,106.3,199.6,106.3,196.4,105.2z
			 M211.7,102.9c-2.4,0.6-5.3,1.9-6.5,2.9c-3.3,2.6-4.5,1.9-1.7-0.9c1.4-1.4,4.2-2.9,6.4-3.6c5-1.3,5.1-1.3,5.6-0.5
			C215.8,101.3,214.1,102.2,211.7,102.9z M215.6,96.4c-0.5,2.3-1.2,3-3.9,3.8c-4.8,1.3-5.1,1.2-6.8-2.3c-1.5-3.2-1.5-3.2,1.3-6.4
			c3.2-3.7,3.6-3.8,7.3-1.8C216.3,91.1,216.5,91.7,215.6,96.4z M221.8,88.9c-1.8,2.7-4.4,9.4-4,10.6c0.1,0.5-0.2,0.7-0.7,0.7
			c-2.2,0-0.1-8.5,2.9-11.7C222.7,85.6,224,85.8,221.8,88.9z"/>
		<path class="st1" d="M202.8,66.2c1.2-0.5,1.3-0.8,0.5-0.8c-0.7,0-2.2,0.4-3.2,0.8c-1.2,0.5-1.3,0.8-0.5,0.8
			C200.3,67,201.8,66.6,202.8,66.2z"/>
		<path class="st1" d="M188.5,66.8c-0.2-0.2-1.7,1-3.4,2.7c-1.7,1.7-2.7,3.1-2.2,3.1C183.8,72.6,189,67.3,188.5,66.8z"/>
		<path class="st1" d="M183.4,76.7c0.3,0.9,1.1,1.4,1.9,1c0.7-0.3,2.5-0.1,3.8,0.5c3.2,1.2,6.3-1.2,5-3.9c-0.6-0.9-0.9-2.7-0.9-3.9
			c0-3.5-2.7-3-6.8,1.2C184,74.1,183,75.7,183.4,76.7z"/>
		<path class="st1" d="M212.3,77.6c-2.9,3.5-2.7,7,0.6,7c1.1,0,2.8,0.6,3.9,1.4c3.1,2.2,3.9-0.4,2.3-6.5
			C217.4,73.5,216,73.2,212.3,77.6z"/>
		<path class="st1" d="M195.9,87.6c0,1.7,0.6,2.8,2.1,3.5c1.8,0.8,2.6,0.6,5.6-2.5c4-4,4-7.2-0.1-8c-1.5-0.4-3.4-0.8-4.4-1.1
			c-1.2-0.4-2.5,0-3.4,1.1c-1.1,1.2-1.3,2.1-0.7,3C195.5,84.4,195.9,86.1,195.9,87.6z"/>
		<path class="st1" d="M201.4,100.6c-0.5-0.3-0.9-1.6-0.9-2.8c0-2-1.6-3.3-3.9-3.2c-0.6,0.1-2.6,1.3-4.3,2.8c-2.8,2.4-2.9,2.9-1.8,4
			c1.7,1.5,8.9,3.3,10.7,2.7C202.5,103.6,202.8,101.4,201.4,100.6z"/>
		<path class="st1" d="M198.2,110.3l0.6,25c0.4,13.8,0.7,35.4,0.8,48c0.3,28.6,1.6,23.1,1.8-7.8c0.2-11.8,0.5-31.4,0.8-43.4
			l0.6-21.8h-2.3H198.2z"/>
	</g>
</g>
</svg>
