<?xml version="1.0" encoding="utf-8"?>
<!-- Generator: Adobe Illustrator 27.9.0, SVG Export Plug-In . SVG Version: 6.00 Build 0)  -->
<svg version="1.1" id="Layer_1" xmlns="http://www.w3.org/2000/svg" xmlns:xlink="http://www.w3.org/1999/xlink" x="0px" y="0px"
	 viewBox="0 0 400 400" style="enable-background:new 0 0 400 400;" xml:space="preserve">
<style type="text/css">
	.st0{fill:#32448B;}
	.st1{fill:#FAFAFB;}
</style>
<g>
	<path class="st0" d="M393.4,251.1c0,6.4,0,12.9,0,19.3c-0.5,0.1-0.6,0.5-0.6,0.9c-1.3,13.7-5.5,26.5-12.2,38.4
		c-14.4,25.6-35.2,43.1-64,50.7c-16.9,4.5-34.2,6.2-51.4,8.9c-17.3,2.8-33.8,7.3-48.5,17.4c-5.4,3.7-11.2,6.8-16.1,11.3
		c-0.4,0-0.8,0-1.2,0c-2.6-3-6.2-4.6-9.3-6.8c-10.8-7.5-22.1-14.2-35-17.6c-17-4.4-34.4-6.2-51.7-9c-11.7-1.9-23.2-4.4-34.2-9
		c-13.9-5.8-25.7-14.6-35.6-26c-12.8-14.5-21.3-31.2-25.1-50.2c-0.7-3.6-0.5-7.3-1.8-10.8c0-5.6,0-11.3,0-16.9
		c0.8-0.2,0.6-0.9,0.6-1.5c0.7-10.2,3.2-19.9,6.3-29.6c4.5-13.7,10.5-26.9,15.4-40.5c6.8-19.2,9.3-38.7,3.8-58.7
		C29,108,22.1,96,15.3,83.9c-1.3-2.3-2.9-4.5-3.8-7.2c6.9,0.6,13.5,1.8,20.3,1.6C46,77.9,58.8,71,61.7,55.8c0.9-4.5,2.8-6.3,7.4-7.3
		C83.5,45.7,92.1,34.7,92.5,20c0.2-6-0.2-12-0.7-18c0.2,0,0.4,0,0.6,0c0.3,1.1,1.3,1.3,2,1.9c8.1,7.1,16.5,13.7,26.2,18.7
		c17.9,9.2,36.8,15.1,56.6,18.7c12.6,2.3,25.2,3.1,37.9,1.3c16.7-2.4,33-6.6,48.7-12.8C280.2,23.4,295,14.4,307.6,2
		c0.2,0,0.4,0,0.6,0c-0.2,2.4-0.3,4.8-0.5,7.2c-0.4,6.7-0.9,13.5,1.2,20c3.5,10.8,11.3,17.2,22.2,19.4c4.3,0.9,6.3,2.5,7.1,6.9
		c3.2,16.1,15.9,22.3,30.1,22.8c6.7,0.2,13.3-1,20-1.6c0.4,0.9-0.2,1.4-0.5,2c-3.8,6.9-7.8,13.8-11.5,20.8
		c-11.1,20.7-14.8,42.6-9.4,65.7c2.8,11.9,7.4,23.2,11.9,34.6c5.5,13.6,10.6,27.2,13.1,41.8C392.4,244.7,392.2,248,393.4,251.1z
		 M33.2,90.5c-0.1,1.3,0.7,2.2,1.2,3.1c14.7,27.3,17.3,55.7,7.5,85.2c-4.5,13.6-10.3,26.6-15.1,40.1c-7,19.5-11.1,39.5-6.2,60.1
		c8.1,34.1,28.4,57.7,62.1,68.7c16,5.2,32.9,6.9,49.5,9.1c23.8,3.1,45.8,10.4,65.2,24.9c2.1,1.5,3.5,1.4,5.5-0.1
		c16.6-12,34.8-19.9,55.1-23.2c15.8-2.5,31.7-4.5,47.4-7.5c29.7-5.8,51.8-21.8,65.9-48.5c12.3-23.3,12.8-47.6,5.7-72.4
		c-3.9-13.6-9.6-26.4-14.6-39.6c-5.3-13.9-9.4-28-9.9-43c-0.6-18.9,4.3-36.4,13-53c0.6-1.2,1.6-2.3,1.7-3.8
		c-1.9-0.3-3.8-0.5-5.7-0.8c-16.3-2.5-27.8-11-33.4-26.8c-0.8-2.1-1.8-3.2-4-3.9c-12.6-4-21.3-12.2-25.8-24.7
		c-0.8-2.3-1.4-4.8-2.1-7.3c-0.5,0.2-0.8,0.3-1.2,0.5c-15.2,9.7-31.9,16.1-49.2,20.9c-15.5,4.3-31.2,7.6-47.3,7.1
		c-24-0.7-46.9-6.8-69.1-15.7c-8.8-3.5-17.2-7.8-25.2-13c-0.2,0.7-0.4,1.2-0.5,1.7C100.1,44.4,90.5,54.7,75,59.5
		c-1.6,0.5-2.1,1.5-2.6,2.9C68.6,73.8,61.3,82,50.1,86.7C44.7,89,39,89.8,33.2,90.5z"/>
	<path class="st1" d="M33.2,90.5c5.8-0.6,11.5-1.5,16.9-3.8C61.3,82,68.6,73.8,72.4,62.4c0.5-1.4,0.9-2.4,2.6-2.9
		c15.5-4.8,25.1-15,28.6-30.9c0.1-0.5,0.3-1,0.5-1.7c8,5.2,16.4,9.5,25.2,13c22.2,8.9,45,15,69.1,15.7c16.1,0.4,31.8-2.8,47.3-7.1
		c17.3-4.8,34-11.2,49.2-20.9c0.3-0.2,0.7-0.3,1.2-0.5c0.7,2.5,1.2,5,2.1,7.3c4.5,12.5,13.2,20.7,25.8,24.7c2.1,0.7,3.2,1.7,4,3.9
		c5.6,15.8,17.1,24.3,33.4,26.8c1.9,0.3,3.8,0.5,5.7,0.8c0,1.5-1,2.6-1.7,3.8c-8.7,16.6-13.6,34.2-13,53c0.5,15,4.6,29.1,9.9,43
		c5,13.1,10.7,26,14.6,39.6c7.1,24.8,6.6,49.1-5.7,72.4C357,329,334.9,345,305.2,350.8c-15.7,3.1-31.6,5-47.4,7.5
		c-20.3,3.3-38.5,11.2-55.1,23.2c-2,1.5-3.4,1.6-5.5,0.1c-19.3-14.5-41.4-21.8-65.2-24.9c-16.6-2.2-33.4-3.9-49.5-9.1
		c-33.7-11-54-34.6-62.1-68.7c-4.9-20.6-0.8-40.6,6.2-60.1c4.8-13.4,10.6-26.5,15.1-40.1c9.8-29.5,7.1-57.9-7.5-85.2
		C33.9,92.7,33,91.8,33.2,90.5z M342.9,118.6C269.2,193.7,196,268.2,122.5,343c4.4,0.7,8.2,1.3,12,1.8c22.8,3.1,44.5,9.3,63.6,22.7
		c1.5,1,2.5,1,4,0c17.1-11.7,36.1-18.3,56.4-21.5c14.9-2.4,29.9-4.2,44.7-7.1c28.2-5.5,48.1-21.6,59.7-47.6
		c8.7-19.3,7.8-39.1,1.8-59c-4.1-13.8-10.1-26.9-15.1-40.4c-7.2-19.3-11.2-39-8.8-59.7C341.4,127.9,342.2,123.7,342.9,118.6z
		 M38.5,294.1c79.7-81.1,159-161.9,238.4-242.7c-1.3-0.8-2,0-2.8,0.3c-10.7,4.3-21.8,7.8-33,10.5c-17.7,4.2-35.6,7.1-53.8,5
		c-26-3-50.9-9.9-74.4-21.4c-1.6-0.8-2.3-0.7-3.2,1C104,56.9,95.6,64.1,84.9,68.7c-1.5,0.6-2.4,1.5-3.1,3
		C75.9,84.6,66.3,93.6,53,98.5c-2.3,0.8-2.2,1.6-1.4,3.5c4.8,11.9,7.6,24.3,8.2,37.2c0.9,19.4-3.7,37.7-10.6,55.6
		c-5.3,13.8-11.4,27.3-15.1,41.6C29,256.1,29.4,275.2,38.5,294.1z M345.8,98.3c-0.9-0.5-1.5-0.8-2.2-1.1
		c-11.4-5.3-19.9-13.6-25.1-25c-0.9-1.9-2.1-3-3.9-3.8c-6.8-2.9-12.8-7.2-17.8-12.7c-3.4-3.8-3.4-3.8-7-0.2
		c-60.9,62-121.8,124-182.7,186c-20.2,20.5-40.4,41.1-60.6,61.6c-1.1,1.1-2.1,1.8-0.7,3.7c8.5,11.4,18.8,20.7,32.1,26.3
		c8.6,3.6,17.6,5.5,26.7,7.2c2.1,0.4,3.5-0.1,5-1.6c61.8-63,123.6-125.9,185.4-188.8C312,132.8,328.8,115.7,345.8,98.3z"/>
	<path class="st0" d="M342.9,118.6c-0.8,5.1-1.5,9.2-2,13.4c-2.4,20.7,1.6,40.4,8.8,59.7c5,13.5,11,26.6,15.1,40.4
		c5.9,19.9,6.8,39.7-1.8,59c-11.7,26.1-31.5,42.1-59.7,47.6c-14.8,2.9-29.8,4.7-44.7,7.1c-20.4,3.2-39.4,9.8-56.4,21.5
		c-1.5,1-2.5,1.1-4,0c-19.1-13.4-40.8-19.6-63.6-22.7c-3.8-0.5-7.5-1.1-12-1.8C196,268.2,269.2,193.7,342.9,118.6z M278.7,285.2
		c0,1.2,0,2.1,0,3c-0.1,1.7-0.1,3.5-2.2,4.2c-1.8,0.6-2.7-0.3-3.8-1.8c-1.1-1.5-3.6-1-5-0.4c-1.5,0.7-0.5,2.5,0.1,3.7
		c1.9,3.6,5.3,3.8,8.9,3.7c3.6-0.1,6.4-1.6,7.3-5.2c1.9-7.8,1.9-15.8,0.2-23.6c-0.9-4-3.9-5.7-8.5-5.7c-4.6,0-7.3,1.8-8.5,5.7
		c-0.9,3-1,6.1-0.7,9.3C267.1,285.8,271.5,288.4,278.7,285.2z M313.1,275.3c0.1-1.5,0.4-2.6,0.3-3.6c-0.2-2.3,0.8-3,3-2.8
		c2.2,0.2,4.4,0,6.6,0.1c2,0.1,2-1.2,1.9-2.6c0-1.3,0.3-2.7-1.8-2.6c-4.3,0.1-8.7,0.1-13,0c-1.2,0-1.6,0.5-1.7,1.6
		c-0.2,4.9-0.5,9.8-0.7,14.8c0,0.6,0,1.4,0.8,1.4c1.9-0.1,4,1.1,5.5-1.2c0.8-1.2,2.2-1.3,3.5-1c1.5,0.3,2.1,1.6,2.2,2.9
		c0.1,1.6,0.2,3.2,0.1,4.8c-0.1,2.2,0.4,5.1-2.8,5.5c-3.3,0.3-3.3-2.4-3.6-4.8c-0.3-2.7-2.5-1.2-3.8-1.5c-0.9-0.2-2-0.4-2.2,1.2
		c-0.6,4.8,2,9,6.4,9.9c6.4,1.3,10.7-0.9,12-6.4c0.6-2.5,0.6-5,0.5-7.5C325.9,275.5,320.9,272.2,313.1,275.3z M259.7,280.4
		c0-4.9,0-9.9,0-14.8c0-0.9,0.4-2.3-1.2-2.3c-1.3,0-3.1-0.9-3.8,0.8c-1.4,3.4-4,4.7-7.3,4.9c-2.4,0.2-1.6,1.8-1.7,3
		c-0.2,1.6,0.9,1.8,2.1,1.7c0.9,0,1.8,0.1,2.7,0c2.3-0.4,2.8,0.6,2.8,2.8c-0.2,5.8,0.1,11.7-0.1,17.5c-0.1,2.9,1.2,2.9,3.3,3
		c2.4,0.1,3.4-0.5,3.2-3.1C259.5,289.5,259.7,284.9,259.7,280.4z M300.9,280.2c0-4.8,0-9.6,0-14.5c0-0.9,0.6-2.4-1-2.4
		c-1.3,0-3.2-1-4,1c-1.3,3.2-3.9,4.5-7.1,4.7c-2.4,0.1-1.7,1.6-1.8,2.9c-0.2,1.8,0.9,1.9,2.2,1.9c0.8,0,1.6,0.1,2.4,0
		c2.2-0.3,3,0.4,2.9,2.8c-0.2,6.1,0,12.3-0.1,18.4c-0.1,3.1,2.2,1.9,3.6,2c1.4,0.1,3,0.6,2.9-2C300.8,290,300.9,285.1,300.9,280.2z"
		/>
	<path class="st0" d="M38.5,294.1c-9-19-9.5-38.1-4.4-57.6c3.7-14.3,9.8-27.8,15.1-41.6c6.9-17.9,11.5-36.2,10.6-55.6
		c-0.6-12.9-3.4-25.3-8.2-37.2c-0.8-2-0.8-2.7,1.4-3.5c13.3-4.9,22.9-13.9,28.8-26.8c0.7-1.5,1.6-2.3,3.1-3
		c10.7-4.6,19.1-11.8,24.8-22.1c0.9-1.7,1.5-1.7,3.2-1c23.5,11.5,48.4,18.4,74.4,21.4c18.3,2.1,36.1-0.8,53.8-5
		c11.3-2.7,22.3-6.1,33-10.5c0.8-0.3,1.5-1.1,2.8-0.3C197.5,132.2,118.1,213,38.5,294.1z"/>
	<path class="st0" d="M345.8,98.3c-17.1,17.4-33.9,34.5-50.7,51.6c-61.8,62.9-123.7,125.9-185.4,188.8c-1.5,1.5-2.9,2-5,1.6
		c-9.1-1.8-18.2-3.6-26.7-7.2c-13.3-5.6-23.6-14.8-32.1-26.3c-1.4-1.8-0.4-2.6,0.7-3.7c20.2-20.5,40.4-41.1,60.6-61.6
		c60.9-62,121.8-124,182.7-186c3.5-3.6,3.5-3.6,7,0.2c5,5.6,10.9,9.8,17.8,12.7c1.9,0.8,3.1,1.9,3.9,3.8c5.3,11.4,13.7,19.7,25.1,25
		C344.3,97.5,344.9,97.9,345.8,98.3z M190.6,195c7.2,4.5,14.4,8.9,21.5,13.5c1.6,1,2.7,1,3.8-0.5c0.4-0.6,0.9-1.1,1.5-1.5
		c2-1.5,2.2-3,0.6-5.2c-4.7-6.8-9-13.8-13.6-20.9c1.6-0.3,2.2,0.9,2.9,1.6c4.6,4.5,9.2,9,13.8,13.5c3.6,3.5,3.5,3.5,7.1-0.1
		c1.4-1.3,1.6-2.1,0-3.5c-6.4-6.1-12.7-12.4-19-18.6c-2.1-2.1-4.2-5.9-6.6-5.7c-2.3,0.2-4.3,3.9-6.5,5.9c-1.5,1.3-1.3,2.3-0.3,3.8
		c4.8,7.3,9.5,14.7,14.2,22.1c-0.1,0.1-0.3,0.3-0.4,0.4c-5.6-3.4-11.2-6.7-16.8-10c-2.6-1.5-5.1-4.5-7.7-4.2c-2.7,0.3-4.3,4-6.6,5.9
		c-1.7,1.4-1.4,2.3,0.1,3.7c7.4,7.1,14.7,14.3,22,21.5c3.5,3.4,3.4,3.3,6.9-0.1c1.5-1.4,1.6-2.2,0-3.8c-5.9-5.6-11.6-11.4-17.3-17.2
		C190.3,195.4,190.5,195.2,190.6,195z M243.6,143.4c0.6-0.2,1.6,0.3,2.5,0.5c8.1,2.1,16.1,4.2,24.2,6.3c1.5,0.4,7.2-3.9,7-5.3
		c-0.1-0.4-0.5-0.8-0.9-1.2c-8.2-8.1-16.5-16.2-24.8-24.3c-0.4-0.4-0.9-1.2-1.4-0.8c-1.6,1.5-3.5,2.9-4.6,4.7c-0.6,1,1.3,2,2.2,2.9
		c4.2,4.2,8.5,8.3,12.7,12.5c0.7,0.7,2,1.3,1.5,2.4c-0.7,1.4-1.8,0-2.5-0.2c-6.4-1.6-12.9-3-19.2-5.2c-4.4-1.5-7.2-0.7-10,2.8
		c-1.4,1.8-1.1,2.4,0.2,3.8c7.3,7.1,14.5,14.2,21.8,21.3c3.6,3.5,3.5,3.4,7.1-0.1c1.6-1.5,1.3-2.3-0.1-3.7
		C254.1,154.4,248.9,148.8,243.6,143.4z M296.8,71.3c-0.7,0.6-1.2,1-1.6,1.4c-5.6,5.7-11.2,11.5-17,17.2c-1.3,1.3-0.9,2,0.2,3.1
		c8.1,7.9,16.1,15.8,24.1,23.7c1.3,1.3,1.9,1.1,3.1-0.1c5.7-5.9,11.4-11.7,17.1-17.5c1.3-1.3,1.6-2.2,0-3.3
		c-0.6-0.4-1.1-0.9-1.5-1.5c-1.2-1.5-2.1-1.6-3.5-0.1c-2.5,2.8-5.2,5.3-7.8,8c-5.5,5.6-5.5,5.6-11-0.2c-1.1-1.1-0.9-1.7,0.1-2.6
		c2.9-2.8,5.7-5.7,8.5-8.6c3.3-3.4,3.3-3.3-0.2-6.7c-1.3-1.2-2-1.1-3.1,0.1c-2.4,2.7-5,5.2-7.6,7.8c-3.9,3.9-3.8,3.8-7.8,0.1
		c-1.5-1.5-1.2-2.2,0.1-3.5c3.5-3.4,6.8-6.8,10.2-10.3c0.7-0.7,2.3-1.4,1.7-2.5C299.9,74.2,298.2,72.9,296.8,71.3z M240.4,159.2
		c-1.2-0.9-2.5-1.5-3.4-2.5c-1.4-1.6-2.3-1.6-3.7,0c-2.3,2.6-4.9,5.1-7.4,7.6c-3.9,3.9-3.8,3.9-7.8,0c-1.3-1.3-1.4-2,0-3.3
		c3.3-3.1,6.4-6.4,9.5-9.7c3.1-3.1,3-3.1-0.2-6.3c-1.2-1.3-2-1.5-3.3-0.1c-5.4,5.7-10.9,11.3-16.5,16.8c-1.3,1.3-1.4,2,0,3.3
		c8,7.8,16,15.6,23.9,23.5c1.2,1.2,1.9,1.5,3.3,0.1c5.6-5.9,11.4-11.7,17.1-17.4c1.3-1.3,1.6-2.2,0-3.3c-0.6-0.5-1.2-1.1-1.7-1.7
		c-1.1-1.4-1.9-1.3-3.1,0c-2.6,2.8-5.3,5.5-8,8.2c-5.4,5.5-5.3,5.5-10.8-0.1c-1.1-1.1-1.2-1.7-0.1-2.8c3.4-3.3,6.7-6.7,10-10.1
		C238.9,160.9,239.3,160.4,240.4,159.2z M102.2,299.9c-0.6-1.4-1.9-2.1-2.8-3.2c-1.3-1.7-2.3-1.5-3.7,0.1c-2.3,2.6-4.9,5.1-7.4,7.6
		c-3.8,3.8-3.7,3.7-7.6,0.1c-1.6-1.5-1.5-2.3,0-3.7c3.1-3,6.1-6.2,9.1-9.2c3.3-3.3,3.2-3.2,0-6.5c-1.3-1.3-2-1.4-3.3,0
		c-5.4,5.7-10.9,11.3-16.5,16.8c-1.3,1.3-1.3,2,0,3.3c8.1,7.8,16.1,15.8,24.1,23.7c1.1,1,1.7,1.3,2.8,0.1c5.8-6,11.7-12,17.6-17.9
		c1.1-1.1,1.4-1.8,0-2.8c-0.7-0.5-1.4-1.2-1.9-1.9c-1.2-1.6-2.1-1.2-3.3,0.1c-2.6,2.8-5.3,5.5-8,8.2c-5.1,5.2-5.1,5.2-10.3,0.1
		c-1.5-1.4-1.3-2.2,0.1-3.5c3.3-3.1,6.4-6.4,9.6-9.7C101.3,301,101.7,300.4,102.2,299.9z M273.5,99.3c-7.3,0-16,8.4-16.2,15.7
		c-0.1,1.6,0.2,3.2,0.9,4.7c2.9,6.4,8.8,8.5,15,5.2c3.7-2,7.2-4.4,10.9-6.5c1.6-0.9,3.4-1.3,5,0.4c1.5,1.7,1.4,3.5,0.5,5.3
		c-1.3,2.3-3,4.3-5.3,5.6c-1.7,1-3.7,1.6-5.4,0.4c-1.7-1.2-2.7-0.5-3.8,0.8c-0.7,0.8-1.5,1.7-2.3,2.4c-1.2,1-0.9,1.7,0.2,2.5
		c3.1,2.3,6.7,3.1,10.3,1.9c6.9-2.5,11.8-7.2,13.9-14.4c1.4-4.8-0.7-8.7-4.3-11.7c-3.4-2.8-7-2.6-10.7-0.7c-2,1-3.8,2.2-5.7,3.4
		c-2.2,1.3-4.2,2.7-6.5,3.8c-2.5,1.2-4.9-0.4-5.2-3.1c-0.4-3.9,6.4-10.5,10.5-7.8c1.1,0.8,1.9,0.6,2.8-0.4c0.9-1.1,1.9-2.1,3-3
		c1-0.9,0.9-1.6-0.2-2.3C278.4,100,276.1,99.2,273.5,99.3z M181.1,242.7c0.9,0.1,1.2-0.5,1.6-0.9c5.9-6,11.8-12.1,17.8-18.1
		c1.1-1.1,0.9-1.8-0.1-2.6c-0.7-0.6-1.4-1.2-1.9-1.9c-1.2-1.5-2-1.3-3.3,0.1c-2.6,2.8-5.3,5.5-8,8.2c-5.3,5.4-5.3,5.3-10.5,0
		c-1.2-1.2-1.3-1.9,0-3.1c3.4-3.3,6.6-6.8,10-10.1c1.1-1.1,1.5-2,0.1-3.1c-0.7-0.5-1.4-1.2-1.9-1.9c-1.1-1.5-2-1-3.1,0.1
		c-2.4,2.6-4.9,5.1-7.4,7.6c-4.2,4.3-4.2,4.3-8.4-0.1c-1-1.1-1-1.6,0-2.6c3.3-3.2,6.5-6.6,9.8-9.9c3.2-3.2,3.1-3.1,0-6.3
		c-1.4-1.4-2.2-1.4-3.6,0c-5.4,5.6-10.8,11.1-16.3,16.6c-1.2,1.2-1.6,1.9-0.1,3.3c8.1,7.8,16.1,15.8,24.1,23.7
		C180.2,242,180.7,242.4,181.1,242.7z M140.3,266.1c-1.3,1.4-2.6,2.8-4,4.1c-1.2,1.1-1.2,2-0.5,3.4c1.6,3.3,0.9,6.3-1.5,8.9
		c-2.5,2.8-5.7,3.6-9.1,2.3c-5.7-2.2-9.8-6.2-11.8-12.1c-1.1-3.3-0.1-6.1,2.3-8.5c2.4-2.4,5.3-3.4,8.5-1.9c1.5,0.7,2.4,0.4,3.4-0.8
		c0.6-0.8,1.3-1.6,2.1-2.2c2.3-1.7,1.4-2.8-0.6-3.7c-5.8-2.7-11.2-2-16.2,1.8c-5.5,4.2-8.9,9.6-7.3,16.7c2,9.3,8.2,15.3,17.1,18.4
		c6.9,2.4,14.2-0.9,18.7-7.6C145.2,279.1,144.8,272,140.3,266.1z M138.3,232.1c-0.9,1.1-2,2.5-3.3,3.7c-1.3,1.2-1.5,1.9-0.1,3.3
		c8.1,7.8,16.1,15.7,24.1,23.7c1.2,1.2,1.9,1.3,3.1,0c4.6-4.8,9.3-9.5,14-14.2c3.6-3.7,3.5-3.6-0.1-7.1c-1.1-1.1-1.7-1.2-2.8,0
		c-3.2,3.5-6.7,6.7-9.9,10.2c-1.4,1.5-2.2,1.9-3.9,0.1c-6-6.2-12.3-12.2-18.5-18.2C140.2,233,139.8,232.2,138.3,232.1z M157,267.5
		c-0.1-0.6-4.8-5.1-5.4-5c-0.7,0.1-5.3,5-5.2,5.6c0.1,0.5,4.8,4.9,5.2,4.9C152.2,273,157,268.1,157,267.5z M123.6,301.6
		c-0.1-0.2-0.2-0.5-0.4-0.6c-1.6-1.5-3-3.6-4.9-4.3c-1.2-0.5-2.5,2-3.6,3.2c-0.6,0.7-2.4,1.3-1.4,2.5c1.5,1.7,2.9,3.6,5,4.6
		C118.6,307.1,123.5,302.1,123.6,301.6z"/>
	<path class="st1" d="M278.7,285.2c-7.2,3.2-11.6,0.6-12.3-7c-0.3-3.1-0.2-6.2,0.7-9.3c1.2-4,3.8-5.7,8.5-5.7c4.6,0,7.6,1.7,8.5,5.7
		c1.7,7.8,1.7,15.8-0.2,23.6c-0.9,3.6-3.7,5-7.3,5.2c-3.5,0.1-6.9-0.1-8.9-3.7c-0.6-1.2-1.6-3-0.1-3.7c1.5-0.7,4-1.1,5,0.4
		c1.1,1.5,2,2.4,3.8,1.8c2-0.7,2.1-2.5,2.2-4.2C278.7,287.3,278.7,286.4,278.7,285.2z M278.7,274.9c-0.1-1.4-0.1-2.8-0.3-4.2
		c-0.3-1.6-1.2-2.5-2.9-2.4c-1.5,0.1-2.4,0.9-2.6,2.4c-0.4,2.8-0.4,5.6,0,8.4c0.2,1.4,1,2.3,2.6,2.4c1.7,0.1,2.6-0.9,2.9-2.4
		C278.6,277.7,278.6,276.3,278.7,274.9z"/>
	<path class="st1" d="M313.1,275.3c7.7-3.1,12.8,0.1,13.1,8.2c0.1,2.5,0.2,5-0.5,7.5c-1.4,5.4-5.6,7.7-12,6.4
		c-4.3-0.9-7-5.1-6.4-9.9c0.2-1.6,1.3-1.4,2.2-1.2c1.3,0.3,3.5-1.2,3.8,1.5c0.3,2.4,0.2,5.1,3.6,4.8c3.2-0.3,2.7-3.2,2.8-5.5
		c0.1-1.6,0-3.2-0.1-4.8c-0.1-1.4-0.7-2.6-2.2-2.9c-1.3-0.3-2.7-0.3-3.5,1c-1.5,2.3-3.6,1.1-5.5,1.2c-0.8,0-0.8-0.7-0.8-1.4
		c0.2-4.9,0.5-9.8,0.7-14.8c0-1.1,0.5-1.6,1.7-1.6c4.3,0,8.7,0.1,13,0c2.1-0.1,1.8,1.3,1.8,2.6c0,1.4,0.1,2.7-1.9,2.6
		c-2.2-0.1-4.4,0.1-6.6-0.1c-2.2-0.2-3.2,0.5-3,2.8C313.5,272.8,313.2,273.9,313.1,275.3z"/>
	<path class="st1" d="M259.7,280.4c0,4.5-0.2,9.1,0.1,13.6c0.1,2.6-0.8,3.2-3.2,3.1c-2.2-0.1-3.5-0.1-3.3-3c0.3-5.8,0-11.7,0.1-17.5
		c0.1-2.2-0.5-3.2-2.8-2.8c-0.9,0.1-1.8,0-2.7,0c-1.2,0.1-2.3-0.1-2.1-1.7c0.1-1.2-0.7-2.9,1.7-3c3.3-0.2,5.9-1.5,7.3-4.9
		c0.7-1.7,2.5-0.8,3.8-0.8c1.6,0,1.2,1.4,1.2,2.3C259.7,270.5,259.7,275.5,259.7,280.4z"/>
	<path class="st1" d="M300.9,280.2c0,4.9-0.1,9.8,0,14.8c0.1,2.6-1.5,2.1-2.9,2c-1.4-0.1-3.6,1.1-3.6-2c0.1-6.1-0.1-12.3,0.1-18.4
		c0.1-2.3-0.7-3.1-2.9-2.8c-0.8,0.1-1.6,0-2.4,0c-1.3,0.1-2.4-0.1-2.2-1.9c0.2-1.3-0.6-2.8,1.8-2.9c3.2-0.2,5.8-1.5,7.1-4.7
		c0.8-2,2.6-1,4-1c1.6,0,1,1.5,1,2.4C301,270.5,300.9,275.4,300.9,280.2z"/>
	<path class="st1" d="M210,199.4c-4.7-7.4-9.4-14.8-14.2-22.1c-1-1.5-1.2-2.5,0.3-3.8c2.3-2,4.2-5.7,6.5-5.9
		c2.4-0.2,4.4,3.6,6.6,5.7c6.3,6.2,12.6,12.5,19,18.6c1.5,1.4,1.3,2.2,0,3.5c-3.6,3.6-3.5,3.6-7.1,0.1c-4.6-4.5-9.2-9.1-13.8-13.5
		c-0.7-0.7-1.3-1.9-2.9-1.6c4.6,7.1,8.9,14.1,13.6,20.9c1.5,2.2,1.4,3.7-0.6,5.2c-0.6,0.4-1.1,0.9-1.5,1.5c-1.1,1.5-2.2,1.5-3.8,0.5
		c-7.1-4.6-14.3-9-21.5-13.5c-0.5-0.1-0.9-0.4-1.3,0.1c0.3,0.2,0.6,0.3,0.9,0.5c5.8,5.7,11.5,11.6,17.3,17.2c1.6,1.5,1.5,2.3,0,3.8
		c-3.6,3.5-3.5,3.5-6.9,0.1c-7.3-7.2-14.6-14.4-22-21.5c-1.5-1.4-1.8-2.3-0.1-3.7c2.3-1.9,3.9-5.6,6.6-5.9c2.6-0.3,5.1,2.7,7.7,4.2
		c5.6,3.3,11.2,6.7,16.8,10c0.1,0.3,0.3,0.5,0.6,0.3C210.2,200,210.1,199.6,210,199.4z"/>
	<path class="st1" d="M243.6,143.4c5.2,5.5,10.4,11,15.8,16.5c1.4,1.4,1.7,2.2,0.1,3.7c-3.6,3.5-3.5,3.6-7.1,0.1
		c-7.3-7.1-14.5-14.3-21.8-21.3c-1.4-1.3-1.6-2-0.2-3.8c2.8-3.5,5.7-4.3,10-2.8c6.2,2.2,12.7,3.6,19.2,5.2c0.8,0.2,1.9,1.6,2.5,0.2
		c0.5-1-0.8-1.7-1.5-2.4c-4.2-4.2-8.5-8.3-12.7-12.5c-0.9-0.9-2.8-1.8-2.2-2.9c1.1-1.8,2.9-3.3,4.6-4.7c0.5-0.4,1,0.4,1.4,0.8
		c8.3,8.1,16.5,16.2,24.8,24.3c0.3,0.3,0.8,0.8,0.9,1.2c0.2,1.4-5.5,5.7-7,5.3c-8.1-2.1-16.1-4.2-24.2-6.3
		C245.2,143.6,244.3,143.2,243.6,143.4z"/>
	<path class="st1" d="M296.8,71.3c1.5,1.6,3.1,2.9,4.1,4.5c0.7,1.1-1,1.8-1.7,2.5c-3.3,3.5-6.7,7-10.2,10.3
		c-1.3,1.3-1.7,2.1-0.1,3.5c4,3.8,3.9,3.8,7.8-0.1c2.5-2.6,5.2-5.1,7.6-7.8c1.1-1.2,1.8-1.4,3.1-0.1c3.4,3.3,3.5,3.3,0.2,6.7
		c-2.8,2.9-5.6,5.8-8.5,8.6c-1,1-1.1,1.5-0.1,2.6c5.5,5.8,5.5,5.8,11,0.2c2.6-2.7,5.3-5.2,7.8-8c1.4-1.5,2.3-1.5,3.5,0.1
		c0.4,0.6,0.9,1.1,1.5,1.5c1.6,1.1,1.3,2,0,3.3c-5.8,5.8-11.5,11.6-17.1,17.5c-1.1,1.2-1.8,1.4-3.1,0.1c-8-8-16-15.9-24.1-23.7
		c-1.1-1.1-1.5-1.8-0.2-3.1c5.7-5.7,11.3-11.5,17-17.2C295.6,72.3,296.1,72,296.8,71.3z"/>
	<path class="st1" d="M240.4,159.2c-1.1,1.2-1.6,1.7-2.1,2.2c-3.3,3.4-6.6,6.8-10,10.1c-1.2,1.1-1,1.7,0.1,2.8
		c5.4,5.5,5.4,5.6,10.8,0.1c2.7-2.7,5.4-5.4,8-8.2c1.2-1.3,2-1.3,3.1,0c0.5,0.6,1.1,1.2,1.7,1.7c1.6,1.1,1.3,2,0,3.3
		c-5.8,5.8-11.5,11.5-17.1,17.4c-1.4,1.4-2.1,1.2-3.3-0.1c-7.9-7.9-15.9-15.7-23.9-23.5c-1.4-1.3-1.3-2.1,0-3.3
		c5.6-5.5,11.1-11.1,16.5-16.8c1.3-1.4,2-1.2,3.3,0.1c3.2,3.2,3.3,3.1,0.2,6.3c-3.2,3.2-6.3,6.5-9.5,9.7c-1.3,1.3-1.3,2,0,3.3
		c4,3.9,3.9,3.9,7.8,0c2.5-2.5,5-4.9,7.4-7.6c1.4-1.6,2.3-1.7,3.7,0C237.9,157.7,239.3,158.3,240.4,159.2z"/>
	<path class="st1" d="M102.2,299.9c-0.5,0.5-0.9,1.1-1.4,1.6c-3.2,3.2-6.3,6.5-9.6,9.7c-1.4,1.3-1.5,2.1-0.1,3.5
		c5.3,5.1,5.2,5.1,10.3-0.1c2.7-2.7,5.4-5.4,8-8.2c1.2-1.3,2.1-1.7,3.3-0.1c0.5,0.7,1.2,1.4,1.9,1.9c1.4,1,1,1.8,0,2.8
		c-5.9,5.9-11.8,11.9-17.6,17.9c-1.2,1.2-1.8,1-2.8-0.1c-8-7.9-16-15.9-24.1-23.7c-1.3-1.3-1.3-2,0-3.3c5.6-5.5,11.1-11.1,16.5-16.8
		c1.3-1.4,2.1-1.3,3.3,0c3.2,3.2,3.3,3.2,0,6.5c-3,3.1-6,6.3-9.1,9.2c-1.5,1.4-1.6,2.2,0,3.7c3.8,3.6,3.8,3.7,7.6-0.1
		c2.5-2.5,5-4.9,7.4-7.6c1.4-1.6,2.4-1.8,3.7-0.1C100.3,297.8,101.6,298.5,102.2,299.9z"/>
	<path class="st1" d="M273.5,99.3c2.6-0.1,4.9,0.8,7.1,2.2c1.1,0.7,1.2,1.4,0.2,2.3c-1,0.9-2.1,1.9-3,3c-0.9,1.1-1.7,1.2-2.8,0.4
		c-4-2.7-10.9,3.9-10.5,7.8c0.3,2.7,2.7,4.3,5.2,3.1c2.3-1.1,4.3-2.5,6.5-3.8c1.9-1.1,3.8-2.3,5.7-3.4c3.7-1.9,7.4-2.1,10.7,0.7
		c3.7,3.1,5.7,6.9,4.3,11.7c-2,7.2-6.9,12-13.9,14.4c-3.6,1.3-7.1,0.5-10.3-1.9c-1.2-0.8-1.4-1.5-0.2-2.5c0.8-0.7,1.6-1.5,2.3-2.4
		c1.1-1.3,2-1.9,3.8-0.8c1.8,1.2,3.7,0.6,5.4-0.4c2.3-1.4,4.1-3.3,5.3-5.6c1-1.8,1.1-3.6-0.5-5.3c-1.5-1.7-3.3-1.3-5-0.4
		c-3.7,2.1-7.2,4.5-10.9,6.5c-6.2,3.3-12,1.1-15-5.2c-0.7-1.5-1-3.1-0.9-4.7C257.5,107.6,266.1,99.3,273.5,99.3z"/>
	<path class="st1" d="M181.1,242.7c-0.4-0.3-0.8-0.7-1.3-1.1c-8-7.9-16-15.9-24.1-23.7c-1.5-1.4-1.1-2.1,0.1-3.3
		c5.5-5.5,10.9-11,16.3-16.6c1.4-1.4,2.2-1.5,3.6,0c3.1,3.2,3.2,3.1,0,6.3c-3.3,3.3-6.5,6.6-9.8,9.9c-1,1-1,1.6,0,2.6
		c4.2,4.4,4.1,4.5,8.4,0.1c2.5-2.5,5-5,7.4-7.6c1.1-1.2,1.9-1.6,3.1-0.1c0.5,0.7,1.2,1.4,1.9,1.9c1.4,1.1,1.1,2-0.1,3.1
		c-3.4,3.3-6.6,6.8-10,10.1c-1.3,1.2-1.1,1.9,0,3.1c5.3,5.4,5.2,5.4,10.5,0c2.7-2.7,5.5-5.4,8-8.2c1.3-1.4,2.1-1.6,3.3-0.1
		c0.5,0.7,1.2,1.3,1.9,1.9c1.1,0.9,1.2,1.6,0.1,2.6c-6,6-11.9,12-17.8,18.1C182.3,242.2,182,242.8,181.1,242.7z"/>
	<path class="st1" d="M140.3,266.1c4.6,5.9,4.9,13,1,18.7c-4.5,6.7-11.9,10-18.7,7.6c-8.8-3.1-15-9-17.1-18.4
		c-1.5-7.1,1.8-12.5,7.3-16.7c5-3.8,10.4-4.5,16.2-1.8c2.1,1,2.9,2,0.6,3.7c-0.8,0.6-1.5,1.4-2.1,2.2c-0.9,1.1-1.9,1.5-3.4,0.8
		c-3.2-1.5-6.1-0.5-8.5,1.9c-2.4,2.4-3.5,5.2-2.3,8.5c2,5.9,6.1,9.9,11.8,12.1c3.4,1.3,6.6,0.4,9.1-2.3c2.4-2.6,3.1-5.6,1.5-8.9
		c-0.7-1.4-0.7-2.3,0.5-3.4C137.7,268.9,138.9,267.5,140.3,266.1z"/>
	<path class="st1" d="M138.3,232.1c1.5,0.1,1.9,0.9,2.5,1.4c6.2,6.1,12.4,12,18.5,18.2c1.7,1.7,2.5,1.4,3.9-0.1
		c3.2-3.5,6.7-6.7,9.9-10.2c1.1-1.2,1.7-1.1,2.8,0c3.6,3.5,3.7,3.5,0.1,7.1c-4.7,4.7-9.4,9.4-14,14.2c-1.2,1.3-1.9,1.2-3.1,0
		c-8-8-16-15.9-24.1-23.7c-1.5-1.4-1.2-2.1,0.1-3.3C136.3,234.6,137.4,233.2,138.3,232.1z"/>
	<path class="st1" d="M157,267.5c0.1,0.6-4.7,5.4-5.4,5.4c-0.4,0-5.1-4.4-5.2-4.9c-0.1-0.5,4.5-5.5,5.2-5.6
		C152.1,262.4,156.9,266.9,157,267.5z"/>
	<path class="st1" d="M123.6,301.6c-0.1,0.5-5,5.6-5.3,5.4c-2.1-1-3.5-2.9-5-4.6c-1.1-1.2,0.7-1.9,1.4-2.5c1.2-1.2,2.4-3.6,3.6-3.2
		c1.9,0.7,3.3,2.8,4.9,4.3C123.4,301.1,123.5,301.4,123.6,301.6z"/>
	<path class="st0" d="M278.7,274.9c-0.1,1.4-0.1,2.8-0.3,4.2c-0.3,1.5-1.2,2.5-2.9,2.4c-1.6-0.1-2.4-1-2.6-2.4
		c-0.5-2.8-0.4-5.6,0-8.4c0.2-1.5,1.1-2.3,2.6-2.4c1.7-0.1,2.7,0.8,2.9,2.4C278.6,272.1,278.6,273.5,278.7,274.9z"/>
	<path class="st0" d="M190.2,195.6c-0.3-0.2-0.6-0.3-0.9-0.5c0.4-0.4,0.9-0.2,1.3-0.1C190.5,195.2,190.3,195.4,190.2,195.6z"/>
	<path class="st0" d="M210,199.4c0.1,0.2,0.2,0.6,0.1,0.7c-0.3,0.2-0.5,0-0.6-0.3C209.7,199.6,209.9,199.5,210,199.4z"/>
</g>
</svg>
