<?xml version="1.0" encoding="utf-8"?>
<!-- Generator: Adobe Illustrator 19.0.0, SVG Export Plug-In . SVG Version: 6.00 Build 0)  -->
<svg version="1.1" id="Capa_1" xmlns="http://www.w3.org/2000/svg" xmlns:xlink="http://www.w3.org/1999/xlink" x="0px" y="0px"
	 viewBox="0 0 500 500" style="enable-background:new 0 0 500 500;" xml:space="preserve">
<style type="text/css">
	.st0{fill:#FFDB00;}
	.st1{fill:#017935;}
	.st2{fill:#008037;}
	.st3{fill:url(#XMLID_53_);}
	.st4{fill:#FFFFFF;}
	.st5{fill:#008039;}
	.st6{fill-rule:evenodd;clip-rule:evenodd;fill:#FFDD00;}
	.st7{fill:#FFEB8A;}
	.st8{fill:#D1A903;}
	.st9{fill-rule:evenodd;clip-rule:evenodd;fill:#008037;}
</style>
<path id="XMLID_50_" class="st0" d="M431.2,38.2l-0.4-0.2C358.7,3.7,271.3,2,254.5,2c-1.3,0-2.2,0-2.4,0c-0.3,0-1.1,0-2.5,0
	C232.8,2,145.3,3.7,73.2,38.1l-0.4,0.2c-5.4,2.7-8.9,8.4-8.9,14.4l0,9.1v311l0.1,7.4h0.1c0.6,20.6,3.7,33.9,10.7,45.6
	c10,16.6,27.4,27.6,53.3,33.6c7.3,1.7,15,3,22.5,4.3c3.6,0.6,7.4,1.3,11,2c10.3,1.9,20.9,4.4,31.4,7.3c1.8,0.5,3.6,1,5.4,1.5
	c12.9,3.4,26.1,7,36.1,13.3l0.3,0.2c3.8,2.2,7.4,4.3,8.1,4.7c1.8,1.2,3.4,1.8,4.3,2.1c1.6,0.5,3.2,0.7,4.9,0.7h0
	c1.7,0,3.3-0.3,4.8-0.7c1-0.3,2.5-0.9,4.3-2.1c0.6-0.4,4.3-2.5,8.1-4.7l0.3-0.2c9.9-6.3,23.2-9.9,36.1-13.3c1.8-0.5,3.6-1,5.4-1.5
	c10.5-2.9,21.1-5.3,31.4-7.3c3.7-0.7,7.4-1.3,11-2l0.1,0c7.4-1.3,15.1-2.6,22.4-4.3c25.9-6,43.3-17,53.3-33.6
	c7-11.7,10.2-25,10.7-45.6h0.2V61.8l0-9.2C440.1,46.6,436.6,41,431.2,38.2z"/>
<path id="XMLID_49_" class="st1" d="M428.5,43.4l-0.2-0.1C357.3,9.6,271,7.9,254.5,7.9c-1.5,0-2.4,0-2.4,0c-0.1,0-0.9,0-2.5,0
	C233,7.9,146.7,9.6,75.7,43.4l-0.1,0.1c-3.5,1.7-5.8,5.3-5.8,9.2l0,9.1l0,311.1l0.1,0.9c0.1,23.4,2.9,37.2,10,49
	c9.1,15.2,25.3,25.3,49.6,30.9c7.2,1.7,14.8,3,22.2,4.3c3.7,0.6,7.4,1.3,11.1,2c10.4,2,21.2,4.5,31.9,7.4c1.8,0.5,3.6,1,5.4,1.5
	c13.3,3.6,27,7.2,37.8,14.1c0.1,0,7.1,4,8.4,4.9c1.4,0.9,2.5,1.3,2.7,1.3c1,0.3,2.1,0.5,3.2,0.5h0c1.1,0,2.2-0.2,3.1-0.5
	c0.3-0.1,1.3-0.4,2.8-1.3c0.8-0.5,3.8-2.3,8.3-4.9l0.2-0.1c10.7-6.8,24.4-10.5,37.8-14.1c1.8-0.5,3.6-1,5.4-1.4
	c10.7-2.9,21.4-5.4,31.9-7.4c3.6-0.7,7.4-1.3,11.1-2c7.3-1.3,14.9-2.6,22.1-4.3c24.3-5.7,40.5-15.8,49.6-30.9
	c7.1-11.8,9.9-25.4,10-48.4h0.1V61.8l0-9.1C434.3,48.7,432,45.1,428.5,43.4z"/>
<path id="XMLID_48_" class="st2" d="M252,9.4c0,0-97.4-1.9-175.6,35.3l-0.1,0.1c-2.9,1.4-4.9,4.4-4.9,7.8l0,9.1v311h0.1
	c0,22.8,2.4,36.9,9.8,49.2c9.6,16,26.7,25.1,48.6,30.2c10.7,2.5,22.3,4.2,33.2,6.2c11,2.1,21.8,4.6,32,7.4
	c15.1,4.1,31.2,7.8,43.5,15.7c0,0,7.1,4.1,8.5,5c1.4,0.9,2.3,1.1,2.3,1.1c0.9,0.3,1.8,0.4,2.7,0.4c0.9,0,1.9-0.2,2.7-0.4
	c0,0,0.9-0.2,2.3-1.1c1.4-0.9,8.5-5,8.5-5c12.4-7.9,28.4-11.6,43.5-15.7c10.2-2.8,21-5.3,32-7.4c10.9-2,22.4-3.7,33.2-6.2
	c21.8-5.1,39-14.2,48.6-30.2c7.3-12.3,9.8-26.3,9.8-49.2h0.1v-311l0-9.1c0-3.5-2-6.4-4.9-7.8l-0.1-0.1C349.4,7.5,252,9.4,252,9.4z"
	/>
<path id="XMLID_47_" class="st1" d="M341.4,190.9c-12.5,0-24.1,6.1-31.2,16.4l-0.1,0.2L163.7,422c-1.2,1.7-1.8,3.7-1.8,5.8
	c0,4.7,3.4,8.9,8,9.8c8.2,1.6,16.3,3.2,24.3,4.9c4,0.9,8.4,1.7,12.9,2.5c12.1,2.3,25.9,4.8,35.9,9c0.8,0.3,1.8,0.8,2.8,1.3
	c2.2,1.1,4.5,2.3,6.3,2.4l0.1,0l0.1,0c1.8-0.1,4.1-1.2,6.3-2.4c1-0.5,1.9-1,2.8-1.3c10-4.2,23.7-6.7,35.9-9
	c4.6-0.8,8.9-1.6,12.9-2.5c8.3-1.8,17-3.5,25.5-5.1c10.1-1.9,20.5-4,30.5-6.2c13.6-3,22.9-6.5,30.5-15.6
	c10.5-12.7,11.3-28.6,11.3-48.1V190.9H341.4z"/>
<linearGradient id="XMLID_53_" gradientUnits="userSpaceOnUse" x1="284.8752" y1="172.1528" x2="284.8752" y2="436.4674">
	<stop  offset="0" style="stop-color:#FFFFFF"/>
	<stop  offset="1" style="stop-color:#F2F2F2"/>
</linearGradient>
<path id="XMLID_46_" class="st3" d="M311.4,208.4L165,422.9c-1,1.4-1.5,3.1-1.5,4.9c0,4.1,2.9,7.5,6.8,8.3
	c8.2,1.6,16.4,3.2,24.3,4.9c15.1,3.2,35.3,5.8,49.1,11.5c2.7,1.1,6.4,3.5,8.6,3.6c2.2-0.1,5.9-2.4,8.6-3.6
	c13.8-5.7,33.9-8.3,49.1-11.5c18.3-3.9,37.7-7.2,56-11.3c13.3-2.9,22.3-6.3,29.6-15.1c9.7-11.7,11-26,11-47.1v-175h-1h-53.7h-10.2
	c-12.4,0-23.4,6.2-29.9,15.7L311.4,208.4"/>
<path id="XMLID_45_" class="st1" d="M408,66.3L408,66.3c-0.3-3.1-2.3-5.8-5.2-6.9c-1.7-0.9-3.5-1.5-3.8-1.6
	c-6.4-2.5-62.8-23.6-147-23.6S111.4,55.3,105,57.8c-0.3,0.1-2.1,0.7-3.8,1.6c-2.9,1.2-4.9,3.8-5.2,6.9L96,66.3v112H408V67L408,66.3z
	"/>
<g id="XMLID_110_">
	<path id="XMLID_111_" class="st1" d="M152.4,412.4h-7.5v-26.8H162v6.5h-9.6v3.8h9v6.5h-9V412.4z M146.8,410.5h3.8v-10h9v-2.7h-9
		v-7.6h9.6v-2.8h-13.3V410.5z"/>
</g>
<polygon id="XMLID_42_" class="st4" points="145.8,386.5 161.1,386.5 161.1,391.1 151.5,391.1 151.5,396.8 160.4,396.8 160.4,401.4 
	151.5,401.4 151.5,411.4 145.8,411.4 "/>
<path id="XMLID_41_" class="st5" d="M186.3,408.4c1.8-2.2,4.1-3.3,6.8-3.3c3.7,0,6.4,1.5,8.1,4.4c0.9,1.7,1.4,3.3,1.5,5h-4.6
	c-0.3-1.3-0.7-2.3-1.1-2.9c-0.8-1.2-2-1.7-3.7-1.7c-1.7,0-3,0.8-3.9,2.5c-1,1.6-1.4,4-1.4,7c0,3,0.5,5.2,1.5,6.7
	c1,1.5,2.3,2.2,3.8,2.2c1.6,0,2.8-0.6,3.6-1.9c0.5-0.7,0.8-1.7,1.1-3.1h4.6c-0.4,2.9-1.4,5.3-3,7.1c-1.6,1.8-3.7,2.7-6.3,2.7
	c-3.2,0-5.6-1.2-7.4-3.7c-1.8-2.5-2.7-5.9-2.7-10.2C183.2,414.5,184.2,410.9,186.3,408.4"/>
<path id="XMLID_98_" d="M319.5,285.4c-35.3,0-63.9,28.7-63.9,63.9c0,35.3,28.7,63.9,63.9,63.9c35.3,0,63.9-28.7,63.9-63.9
	C383.5,314,354.8,285.4,319.5,285.4z M352.5,388.3c-13.7,0.2-20.7-1.3-22.4-1.7c-4.7-12.6-7.4-23.8-7.7-25.3
	c8.8-10.9,14.1-19.6,15.2-21.3c1.8,0.1,14.8,1.2,24.1,3c4,7.5,6.9,20.7,7.5,23.6C365.1,378.5,354,387.2,352.5,388.3z M285.7,297.6
	c6.7-4.4,14.3-7.6,22.5-9.1c0.2,0,10.2,2.1,20.2,11.1c-0.8,1.7-4.2,9.5-7.4,18.1c-14.8,2.5-23.4,7.1-25.2,8.1
	c-6.3-4.1-15.3-9.2-17.7-10.5C279.5,307.7,285.6,297.8,285.7,297.6z M361.7,341.6c-9.8-1.9-23.4-2.9-24.2-3
	c-6.9-11.7-13.7-19.2-15-20.5c3.2-8.6,6.6-16.4,7.3-17.9c2.5-0.1,11.5-0.3,20.3,3c3.3,2.7,12.5,11,17.8,22.8
	C366.5,332.8,362.7,339.9,361.7,341.6z M296.3,353.6c10.4,5.1,22.6,7.8,24.8,8.3c0.6,2.5,3.2,13.1,7.7,25
	c-8.1,8.5-15.8,13.5-17.7,14.7c-1.5-0.2-14.5-1.8-25.9-8.9c-1.3-2.5-5.5-11-7.4-22.9C279.2,368.4,286.4,361.2,296.3,353.6z
	 M285.1,394.3c10.9,6.6,23,8.4,25.5,8.7c2.4,4,5.7,6.6,8.3,8.1c-15.2-0.2-29.1-5.8-39.8-15.1C280.7,395.8,283,395.3,285.1,394.3z
	 M378.9,332.1c-4.2-4.3-9.2-6.9-10.1-7.3c-5.7-12.2-15.4-20.6-18.3-23c0-0.2,0.5-3.5,0-5.9C364.1,303.7,374.4,316.7,378.9,332.1z
	 M260.1,332.2c7.2-9,15.5-14.8,17.1-16c1.7,1,11.3,6.3,17.9,10.6c-1.2,13.5,0.1,23.6,0.4,25.6c-9.7,7.4-16.7,14.4-18.5,16.2
	c-1.6-0.7-11.8-5.3-18.8-11.6c-0.3-2.6-0.5-5.2-0.5-7.8C257.7,343.4,258.6,337.6,260.1,332.2z M349.2,403.5c3.6-6.6,4-12.6,4.1-14.1
	c1.4-1.1,12.7-9.7,17.1-22.1c1.3-0.2,2.5-0.4,3.5-0.8c2.6-0.8,4.5-2.1,5.9-3.3C375.7,380.6,364.4,395.2,349.2,403.5z"/>
<path id="XMLID_84_" class="st6" d="M257.6,227.6c-0.1-2.1-2-3.7-3.5-5c-1.5-1.2-3.6-2.8-5.3-3.6c-2.9-1.2-6.9-0.2-10.1-1.5
	c-1.4-0.5-5.8-4-5.9-5.3c-0.2-2.9,3.9-4.1,3.9-7.1c-0.1-4.6-7.2-6.8-11.6-6.2c-5.1,0.7-7.5,5-13.3,3.8c-2.1-2.3-1-7.9-3.6-9.8
	c-2.9-0.9-4.7,0.3-6.8,1.5c-1.9,1-4,3-5.9,3c-1.4,0-2.8-1.5-4.4-2.4c-1.6-0.8-3.8-1.9-5-2.1c-2.9-0.5-7.9,0.1-12.4,0
	c-8.5-0.1-17.1-1.9-17.5,5c2.2,2,5.4,0.8,8,1.8c3.5,1.3,6.8,5.3,5.9,9.5c-2.2,1.7-4.2,0.3-6.5,0.3c-2.9,0-7,0.5-11,0.9
	c-4,0.4-8,0.1-11,0.6c-3.4,0.6-7.3,4.8-9.2,7.4c-1.4,2-2,4.8-3.8,6.2c-0.9,0.7-2.5,0.8-3.8,1.5c-6.1,3-12.3,7-18.1,10.1
	c-4.3,2.2-8.6,4.3-10.7,8c-1,1.8-2.8,8.8,0.3,9.2c3.1,0.4,3.6-6.4,7.1-4.7c-0.7,5.5-6.8,9.8-5.3,17.5c0.4,2,2.2,4.6,3.6,6.2
	c1.4,1.7,3.6,3.4,5.6,4.1c1.4-1,2.1-2.5,3.8-3.3c0.8-0.3,2.3-0.4,3.6-0.9c3.4-1.4,5.7-5.1,8.9-5.3c5.6-0.3,9.4,9,6.2,13
	c-1.7,2.1-9.1,5.4-11.6,4.7c-2.9-0.8-0.9-3.9-3.8-5c-1.6-0.6-1.7,2.9-3,3.5c-1.5,0.5-3.7,0.3-4.4,1.5c-0.2,3.4,1.3,6.6,2.7,10.4
	c0.9,2.6,1.6,8.5,5.3,8.6c2.3,0.1,4-2.6,6.2-3.8c2.9-1.7,6.9-3.2,11.5-3c4.7,0.2,8.7,2.8,13.3,3.6c2.3,0.4,5,0.6,7.4,0.6
	c2,0,4-1.3,5.9,1.2c-3.3,5.8-9.9,9-15.7,11.9c-2,1-4.5,1.9-5.6,3.9c1.5,1.2,1.4,6.8,4.1,6.5c1.6-0.1,2-3.9,3.8-4.1
	c1.9-0.3,4.7,1.8,6.5,2.7c2.4,1.1,3.8,2.2,7.1,2.4c1.6-5.2,0.5-16.6,5.9-16.3c3.9,0.2,2.8,5.9,3.3,9.5c1.2,2.1,4.4,2.3,5.3,5
	c1.2,3.3,0.2,7.8,0.6,11.6c-2,2-4.9,0.9-7.4,1.2c-4.4,0.4-10.4,1.5-12.7,3.9c-3.5,3.4-1.7,7.8-2.1,14.5c1.5,0.8,2.4-0.5,4.1-0.3
	c2.3,1.5,3.3,3.8,6.2,4.1c6,0.6,6.6-5,10.4-6.8c3.1-1.5,5.3-1,8-2.7c1.4-2,2.7-2,4.1-4.1c1.1-1.6,1.2-4.6,3.3-5
	c2.2-0.5,4.1,2.4,6.2,2.1c2.8-0.4,4.2-6.5,6.2-9.2c2.5-3.2,6.4-4.9,8.3-8.3c1.3-2.2,2.2-5,3-8c0.5-2.3-0.3-5.4,0-7.4
	c0.1-0.8,0.7-1.4,1.2-2.4c0.4-1,0.5-2.1,0.9-3c0.8-1.8,2.1-3.4,3-5.3c0.9-1.9,2.2-4,2.7-5.6c0.9-3.2,0.4-6,2.7-6.2
	c1.3-0.1,2.5,1.3,2.7,2.4c0.4,2.3-1.7,5.2-2.7,7.4c-1.1,2.6-2.7,4.8-2.4,7.1c3.5-0.7,7.4-4.6,10.4-8.3c3-3.7,5.8-8.4,6.2-12.7
	c0.6-6.1-4-6.2-4.7-11.3c2.5-2.3,6.1,1.6,9.8,0c2.8-4.3,3-11.2,3.6-17.8c1.9-0.9,4.3,0.5,6.2-0.3c2.3-2.8-0.4-8.5,0.3-13
	c0.3-1.7,1.3-2.6,1.5-4.1c-0.9-2.3-2.7-5.1-2.4-7.7C253.4,227.2,256,229.4,257.6,227.6z M146.5,229.4c1.9,0.6,3.8,2.4,5,3.6
	c-0.1,1.8-2.7,1.7-4.4,2.1c-3.3,0.6-8.3,1.9-11.6,0C136.8,231,141.5,227.8,146.5,229.4z M146.8,279.2c-0.8-0.3-2.9-1.6-3.9-2.4
	c-2.7-2.2-9.4-12-8.6-16.6h0.6c4.2,2.2,4.7,5.7,8.9,8.3c1.7,1.1,5.8,2.5,8.6,3.6c3,1.1,7.3,2.1,7.1,4.7
	C159.4,280.3,149.8,280.2,146.8,279.2z M204,244.2c4.4-0.4,8.9,9,6.8,13c-3.2,0.1-4.2-2-5.9-4.1c-1.1-1.4-3.7-4.2-3.6-6.2
	C201.4,245.6,202.5,244.4,204,244.2z M211.7,243.3c3.7-1.5,5.9,5.9,3,6.8C212.1,250.9,207.7,245,211.7,243.3z M193,256.7
	c-0.1,2.7-4.6,3-6.8,1.8c-2.5-1.3-6-4.7-6.5-7.1C182.6,249.8,193.2,253.1,193,256.7z M188.3,238.6c3.4-1.4,4.8,1.5,6.5,4.1
	c0.9,1.5,2.5,2.9,1.8,4.1C193.7,247.7,186.1,242.5,188.3,238.6z M187.1,265.9c2.2-0.7,4.7-1.8,6.8-2.1c1.3-0.2,4.6-0.3,5,2.4
	c0.3,2-2.7,5.2-3.8,6.5c-1.6,1.9-4.1,4.6-5.6,4.7c-2.3,0.1-2.5-2.1-4.4-2.4c-2.1-0.3-3.6,1.4-5.3,1.2c-4.2-0.6-2.9-6.4,0.6-8.3
	C182.5,266.7,184.6,266.6,187.1,265.9z M188.9,205.1c3-0.5,4.8-4.6,8-2.4c1.5,1.1,1.9,4.5,1.5,6.8c-0.7,3.4-4.7,6.8-8.3,7.1
	c-4.4,0.4-9.8-3.4-10.4-7.7C178.7,201.5,185,202.7,188.9,205.1z M164,255.8c0.2-1,1.4-2.1,3-2.4c3.7-0.1,2.8,3.3,6.5,4.7
	c2.9,1.2,6.1-0.2,6.5,2.4c0.3,1.9-1.7,3.3-3.6,3.6C172.1,264.7,162.7,261.3,164,255.8z M177,301.1c-0.7,2.3-0.3,4.6-1.5,5.6
	c-1.3,0.4-2.2,0.9-3-0.3c-0.8-1.2-0.7-2.8-0.6-4.7c-2.5,0.2-2.3,3.2-5.6,2.7c-2.6-1.2-1-7,0-9.8c1.2-3.5,3-7,7.1-3.9
	c0.1,3-1.3,4.7-1.2,7.7c1.9-0.5,2.3-2.7,4.7-2.7C179.7,296.9,177.8,298.6,177,301.1z M214,291.3c-1.4,0.8-3.2,1.1-4.4,2.1
	c-0.9,4.5,0.4,9.1-0.9,12.4c-0.4,1-1.4,2.4-2.1,3.6c-2,3.3-4.3,7.1-6.2,10.4c-3.7,1-7.5,1.2-11,2.1c-3.3,0.8-6.2,3.2-9.5,2.7
	c-1.9-1-1.1-3.7-1.2-5.6c-0.2-4.6-0.4-10.1-0.3-14.8c5.6-4.3,11.3-6.9,15.4-13.3c1.4-2.3,1.7-6,3.9-5.6c2.9,0.5,0.8,4.6-0.3,6.5
	c-2.8,4.7-4.9,6.7-8.3,10.7c-0.9,1.1-3.8,4.2-3.8,5.6c-0.1,1.5,2.7,5.5,4.4,5.6c2.1,0.2,4.8-3.1,5.9-4.1c2.2-1.9,3.6-2.6,5-5
	c0.6-5.4-0.9-8.4,0.3-12.1c0.6-1.9,2.8-4,4.4-5.3c1.9-1.5,4.6-2.1,5.3-3.8c1.1-2.5-0.3-10.1-0.9-12.7c-0.4-1.8-1.9-3.5-0.9-5.3
	c3.9-1.9,3.4,4,5.9,6.8c1.9,2.1,3.9,1.5,5.3,3.6C218.9,281.4,216.6,286.5,214,291.3z M235.7,261.4c-2.2,0-3.4-2.3-4.7-3.9
	c-1.2-1.5-2.5-3-3.8-4.4c-3.6-4-7.8-7.9-7.4-14.5c-2.3-2.2-2.8-4.9-8-5.6c-4.7-0.7-8.6-2.2-9.5-5.9c-1-4.4,0.8-8.7,3-9.2
	c3.1-0.7,6,2.3,8.3,4.4c1.6,1.5,4.7,5.9,7.1,5.3c3.3-0.7,1.2-4.7-0.6-7.1c-1.6-2.1-3.6-4.7-5.3-5.6c-2.3-1.3-5.1-0.8-6.5-3
	c0-3.6,1.6-5.7,5.9-4.7c2.3,0.5,5.7,4,7.4,5.6c1.5,1.4,5.2,4.5,5.9,6.8c1.2,3.6-0.9,6.9-0.6,10.7c0.2,2.8,2.4,5.4,2.7,8.3
	c0.2,1.5-0.3,3,0,4.4c0.8,4.3,5.3,6.4,6.5,9.8C236.8,255.3,237.7,259.2,235.7,261.4z"/>
<path id="XMLID_18_" class="st6" d="M406.5,66.9c-0.1-2.8-1.8-5.2-4.3-6.2c-1.8-1-3.7-1.6-3.7-1.6c-6.7-2.6-62.5-23.5-146.5-23.5
	S112.2,56.6,105.6,59.2c0,0-1.9,0.6-3.7,1.6c-2.5,1-4.3,3.3-4.3,6.2l0,0v109.8H252h154.5L406.5,66.9L406.5,66.9z"/>
<g id="XMLID_81_">
	<path id="XMLID_17_" class="st7" d="M407.1,177.4H96.9v-1.2h309v-109l0-0.2c0-1.2-0.4-2.4-1.1-3.4l1-0.7c0.8,1.1,1.2,2.4,1.3,3.8
		l0,0l0,0.3V177.4z"/>
</g>
<g id="XMLID_78_">
	<g id="XMLID_79_">
		<path id="XMLID_16_" class="st8" d="M98.2,176.8h-1.2V66.7l0,0c0.2-2.9,2-5.4,4.7-6.5c1.8-1,3.7-1.6,3.7-1.6
			c6.1-2.4,62.4-23.5,146.6-23.5s140.5,21.1,146.7,23.5c0,0,1.9,0.6,3.7,1.6c1.4,0.5,2.5,1.5,3.4,2.7l-1,0.7c-0.7-1-1.7-1.8-2.8-2.2
			l-0.1,0c-1.7-0.9-3.6-1.5-3.6-1.5C392.1,57.4,336,36.4,252,36.4s-140.1,21-146.2,23.4c-0.1,0-1.9,0.6-3.6,1.5l-0.1,0
			c-2.3,0.9-3.9,3.1-3.9,5.6l0,0.3V176.8z"/>
	</g>
</g>
<g id="XMLID_59_">
	<g id="XMLID_74_">
		<path id="XMLID_75_" class="st7" d="M173.7,167.9H109v-9.1l1.5-0.1c4.6-0.2,8.3-4,8.3-8.6l0-2.9V78.7l0-0.9c0-3.1-2.5-5.6-5.5-5.6
			c-0.7,0-1.4,0.1-2.1,0.4l-2.1,0.9v-7.3l1-0.4c0.2-0.1,16-5.7,38.2-10.6l1.3-0.3l3.1,7.3l-2,0.3c-4.9,0.7-8.5,5-8.5,9.9v78.2
			c0,0.8,0.4,1.4,1,1.8c2.3,1.4,4.8,2.1,7.5,2.1c4.6,0,8.9-2.2,11.7-6c4.9-6.7,7.5-21.5,7.5-21.7l0-0.1c0.3-1.3,0.6-3.9,0.6-3.9
			l0.2-1.4h7L173.7,167.9z M112.1,164.8h58.8l3.3-40.1h-0.9c-0.1,0.9-0.3,2-0.5,2.8c-0.2,1.1-2.8,15.8-8,23
			c-3.4,4.6-8.6,7.3-14.2,7.3c-3.2,0-6.4-0.9-9.1-2.6l-0.1,0c-1.4-1-2.3-2.5-2.4-4.3l0-0.1V72.5c0-5.8,3.9-10.9,9.3-12.6l-0.6-1.4
			c-18.1,4.1-31.8,8.6-35.5,9.9v0.8c0.4,0,0.7-0.1,1.1-0.1c4.8,0,8.7,3.9,8.7,8.7l0,0.9l0,71.4c0,5.8-4.2,10.6-9.8,11.6V164.8z"/>
	</g>
	<g id="XMLID_70_">
		<path id="XMLID_71_" class="st7" d="M236.3,167.9h-59.7v-9.7l1.5-0.1c3.5-0.1,6.2-3,6.2-6.5V62.5c0-2.4-1.9-4.3-4.3-4.3
			c-0.6,0-1.1,0.1-1.6,0.3l-2.1,0.9v-9.3l1.3-0.2c0.3,0,26.4-4.3,58.1-5.2l1.4,0l6,35.8l-9.7,0.8l-0.4-1.1c-0.1-0.1-1.3-3.6-1.8-5.4
			c-0.8-2.7-3.8-11.7-7.5-15c-3.1-2.7-7.9-3.7-15.2-3.3v43.8c2.2-0.6,7.4-4,9.5-23l0.2-1.4h6v63.5h-6L218,138
			c-2.1-19-7.3-22.4-9.5-23v38.1c0,0.6,0.5,1.1,1.1,1.1l3.4,0c6.5,0,12.6-3.1,16.5-8.5c6.3-8.6,8.6-18.4,8.7-18.5l0.3-1.2l6.8,0v1.7
			l0,0.2L236.3,167.9z M179.8,164.8h54.1l7.9-35.7h-0.8c-0.8,3-3.4,11.1-8.9,18.5c-4.6,6.2-11.5,9.8-19,9.8l-3.4,0
			c-2.3,0-4.2-1.9-4.2-4.2v-40.9l1.1-0.3c0.1,0,0.5-0.1,1.2-0.1c3.1,0,10.5,2.4,13.2,24.5h0.1V79H221c-2.8,22.1-10.1,24.5-13.2,24.5
			c-0.6,0-1.1-0.1-1.2-0.1l-1.1-0.3V53.6l1.4-0.1c1.8-0.1,3.4-0.2,4.9-0.2c6.4,0,10.8,1.3,14.1,4.2c4.2,3.7,7.3,12.7,8.5,16.4
			c0.3,1.1,1,2.9,1.4,4.1l3.9-0.3l-5-29.8c-26.9,0.9-49.5,4.1-55,4.9v2.4c0.2,0,0.4,0,0.6,0c4.1,0,7.4,3.3,7.4,7.4v89.2
			c0,4.7-3.3,8.5-7.7,9.4V164.8z"/>
	</g>
	<g id="XMLID_64_">
		<path id="XMLID_65_" class="st7" d="M285.8,167.6c-3.8,0-7.4-0.7-10.8-2.2c-3.4-1.4-6.6-3.5-9.5-6.1c-2.9-2.6-5.5-5.7-7.9-9.4
			c-2.3-3.6-4.4-7.8-6-12.4c-1.6-4.5-2.9-9.5-3.8-14.8c-0.9-5.3-1.3-11-1.3-16.9c0-5.8,0.5-11.4,1.3-16.6c0.9-5.2,2.2-10.1,3.8-14.4
			c1.6-4.4,3.7-8.4,6-12c2.4-3.6,5-6.7,7.9-9.1c2.9-2.5,6.1-4.4,9.5-5.8c3.4-1.4,7-2.1,10.8-2.1c3.7,0,7.4,0.7,10.8,2.1
			c3.4,1.4,6.6,3.3,9.5,5.9c2.9,2.5,5.5,5.6,7.9,9.1c2.3,3.5,4.4,7.6,6,12c1.6,4.4,2.9,9.2,3.8,14.4c0.9,5.2,1.3,10.7,1.3,16.5
			c0,6.1-0.5,11.9-1.3,17.2c-0.9,5.4-2.2,10.4-3.8,15c-1.6,4.6-3.7,8.7-6,12.3c-2.4,3.6-5,6.8-7.9,9.3c-2.9,2.6-6.1,4.6-9.5,5.9
			C293.2,167,289.5,167.6,285.8,167.6z M285.8,49c-3.3,0-6.6,0.6-9.6,1.8c-3.1,1.2-6,3-8.6,5.3c-2.7,2.3-5.1,5.1-7.3,8.5
			c-2.2,3.4-4.1,7.2-5.7,11.4c-1.6,4.2-2.8,8.9-3.7,13.9c-0.9,5-1.3,10.4-1.3,16c0,5.7,0.4,11.3,1.3,16.4c0.9,5.1,2.1,9.9,3.7,14.3
			c1.6,4.3,3.5,8.3,5.7,11.7c2.2,3.4,4.7,6.4,7.3,8.8c2.6,2.4,5.5,4.2,8.6,5.5c3,1.3,6.3,1.9,9.6,1.9c3.3,0,6.6-0.6,9.6-1.8
			c3.1-1.2,6-3,8.6-5.4c2.7-2.4,5.1-5.3,7.3-8.7c2.2-3.4,4.1-7.4,5.7-11.7c1.6-4.4,2.8-9.2,3.7-14.4c0.9-5.2,1.3-10.8,1.3-16.7
			c0-5.6-0.4-10.9-1.3-15.9c-0.9-5-2.1-9.6-3.7-13.8c-1.6-4.2-3.5-8-5.7-11.3c-2.2-3.3-4.7-6.2-7.3-8.5c-2.6-2.3-5.5-4.1-8.6-5.3
			C292.4,49.6,289.1,49,285.8,49z M285.2,158c-3.2,0-6-1.5-8.3-4.4c-2.2-2.7-4-6.4-5.4-11.1c-1.4-4.6-2.5-10-3.2-16.3
			c-0.7-6.2-1.1-13-1.1-20.4c0-7.2,0.4-13.9,1.1-19.9c0.7-6,1.8-11.3,3.2-15.7c1.4-4.5,3.2-8,5.4-10.6c2.3-2.7,5.1-4.1,8.3-4.1
			c3.1,0,5.9,1.4,8.2,4.1c2.2,2.5,4,6.1,5.4,10.6c1.4,4.4,2.5,9.7,3.2,15.7c0.7,6,1.1,12.7,1.1,19.9c0,7.3-0.4,14.2-1.1,20.4
			c-0.7,6.2-1.8,11.7-3.2,16.3c-1.4,4.7-3.2,8.4-5.4,11C291.1,156.5,288.3,158,285.2,158z M285.2,58.7c-2.2,0-4.2,1-5.9,3
			c-1.9,2.2-3.5,5.4-4.8,9.5c-1.3,4.2-2.4,9.3-3,15.1c-0.7,5.9-1,12.5-1,19.6c0,7.2,0.4,13.9,1,20c0.7,6,1.7,11.3,3.1,15.7
			c1.3,4.3,2.9,7.6,4.8,10c1.8,2.2,3.7,3.2,5.9,3.2c2.2,0,4.1-1,5.8-3.2c1.9-2.4,3.5-5.7,4.8-10c1.3-4.4,2.4-9.7,3.1-15.7
			c0.7-6.1,1-12.8,1-20c0-7.1-0.4-13.7-1-19.6c-0.7-5.9-1.7-10.9-3.1-15.1c-1.3-4.1-2.9-7.3-4.8-9.5
			C289.3,59.7,287.4,58.7,285.2,58.7z"/>
	</g>
	<g id="XMLID_60_">
		<path id="XMLID_61_" class="st7" d="M387.5,167.9h-8.3L339.7,94v55.3c0,4.5,3.5,8,8.1,8.2l1.5,0.1v10.4h-31.3v-8.8l0-1.5l1.5,0
			c4.6-0.2,8.1-3.9,8.1-8.5V66.5c0-4.4-3.6-8-8-8l-0.2,0l-1.6,0v-1.6V49l1.7,0.2c12,1.4,28.9,4.9,29.1,5l0.7,0.1l24.6,46.4V77.9
			c0-4.9-3.1-9.2-7.7-10.8h-1.3l0-1.6v-7.7l1.9,0.5c15.3,3.8,26.9,8.1,27,8.2l1,0.4v7.6h-1.6c-3.3,0-6,2.7-6,6V167.9z M381,164.8
			h3.4V80.5c0-4.5,3.3-8.2,7.5-8.9v-2.5c-3-1.1-12.1-4.2-23.7-7.2v2.6c5.4,2.2,9,7.5,9,13.4v35.4l-29.8-56.1
			c-3.2-0.6-16.1-3.2-26.3-4.5v2.9c5.5,0.7,9.8,5.3,9.8,11v82.6c0,5.7-4.1,10.5-9.6,11.4v4.3h25v-4.4c-5.5-0.9-9.6-5.5-9.6-11.1
			V81.6L381,164.8z"/>
	</g>
</g>
<g id="XMLID_52_">
	<path id="XMLID_5_" class="st9" d="M171.9,123.1c0,0-0.3,2.7-0.7,4.1c0,0-2.5,15.2-7.8,22.4c-2.9,4-7.6,6.6-12.9,6.6
		c-3,0-5.9-0.9-8.3-2.4c-1-0.7-1.7-1.8-1.7-3.1V78.2v-5.7c0-5.8,4.3-10.6,9.9-11.5l-1.8-4.3c-22.3,4.9-38,10.6-38,10.6v3.9
		c0.8-0.3,1.7-0.5,2.6-0.5c3.9,0,7.1,3.2,7.1,7.1l0,0.9v68.5l0,2.9c0,5.5-4.3,10-9.8,10.2v6h61.7l3.5-43.2H171.9z"/>
	<path id="XMLID_4_" class="st9" d="M207,153.1c0,1.5,1.2,2.7,2.7,2.7l3.4,0c7.3,0,13.8-3.6,17.8-9.1c6.6-9,8.9-19.1,8.9-19.1h4v0
		l-8.6,38.8h-56.9v-6.7v0c4.3-0.2,7.7-3.7,7.7-8v-6.3v-80v-2.1v-0.7c0-3.2-2.6-5.8-5.8-5.8c-0.8,0-1.5,0.2-2.2,0.4v-5.7
		c0,0,26-4.2,57.9-5.2l5.5,32.8l-6.8,0.6c0,0-1.2-3.6-1.8-5.3c-1.5-4.9-4.4-12.6-8-15.7c-4-3.5-10-4.2-17.8-3.6v46.9
		c0,0,9.6,2.8,12.6-24.4h3.1v60.4h-3.1c-3-27.2-12.6-24.4-12.6-24.4v39.1V153.1z"/>
	<path id="XMLID_54_" class="st2" d="M278.1,152.6c-2-2.5-3.8-6-5.1-10.5c-1.4-4.5-2.4-9.8-3.1-16c-0.7-6.2-1.1-12.9-1.1-20.2
		c0-7.2,0.4-13.8,1.1-19.7c0.7-6,1.7-11.1,3.1-15.4c1.4-4.3,3.1-7.7,5.1-10.1c2-2.4,4.4-3.6,7.1-3.6c2.7,0,5,1.2,7,3.6
		c2,2.4,3.7,5.7,5.1,10.1c1.4,4.3,2.4,9.5,3.1,15.4c0.7,6,1.1,12.6,1.1,19.7c0,7.3-0.4,14-1.1,20.2c-0.7,6.2-1.7,11.5-3.1,16
		c-1.4,4.5-3.1,8-5.1,10.5c-2,2.5-4.4,3.8-7,3.8C282.5,156.4,280.1,155.2,278.1,152.6 M296,164.1c3.2-1.3,6.3-3.2,9-5.7
		c2.8-2.5,5.3-5.5,7.6-9c2.3-3.5,4.2-7.5,5.8-12c1.6-4.5,2.9-9.4,3.7-14.7c0.9-5.3,1.3-11,1.3-17c0-5.7-0.4-11.1-1.3-16.2
		c-0.9-5.1-2.1-9.8-3.7-14.1c-1.6-4.3-3.6-8.2-5.8-11.6c-2.3-3.5-4.8-6.4-7.6-8.8c-2.8-2.4-5.8-4.3-9-5.6c-3.2-1.3-6.6-2-10.2-2
		c-3.6,0-7,0.6-10.2,2c-3.2,1.3-6.3,3.2-9,5.5c-2.8,2.4-5.3,5.3-7.6,8.8c-2.3,3.5-4.2,7.4-5.8,11.7c-1.6,4.3-2.9,9-3.7,14.2
		c-0.9,5.1-1.3,10.6-1.3,16.3c0,5.9,0.4,11.4,1.3,16.6c0.9,5.2,2.1,10.1,3.7,14.6c1.6,4.5,3.6,8.5,5.8,12c2.3,3.6,4.8,6.6,7.6,9.1
		c2.8,2.5,5.8,4.4,9,5.8c3.2,1.4,6.6,2,10.2,2C289.3,166.1,292.7,165.4,296,164.1"/>
	<path id="XMLID_1_" class="st9" d="M319.5,56.9c0.1,0,0.1,0,0.2,0c5.3,0,9.5,4.3,9.5,9.5v11.2v69.6v1.8c0,5.4-4.3,9.8-9.6,10h0v7.3
		h28.1V159c-5.3-0.2-9.6-4.3-9.6-9.7v-15.4V87.8l41.9,78.6h5.9V84.2v-3.7c0-4.2,3.4-7.5,7.5-7.5v-5c0,0-11.5-4.3-26.9-8.1v5.7h0
		c5.2,1.7,9,6.5,9,12.3v11.9V107l-27.2-51.3c0,0-16.9-3.5-28.9-4.9L319.5,56.9"/>
</g>
</svg>
