<?xml version="1.0" encoding="UTF-8"?>
<svg id="Layer_1" xmlns="http://www.w3.org/2000/svg" version="1.1" viewBox="0 0 300 300">
  <!-- Generator: Adobe Illustrator 29.1.0, SVG Export Plug-In . SVG Version: 2.1.0 Build 142)  -->
  <defs>
    <style>
      .st0 {
        fill: #e10721;
      }

      .st1 {
        fill: #fefdfc;
      }
    </style>
  </defs>
  <path class="st0" d="M284.4,1.4c.3,3.6.9,7.3,1.2,10.9,7.9,93-15.4,186.7-85.8,250.8-13,11.9-29.2,24.3-44.5,33.1-1.2.7-4,2.5-5.1,2.9s-.6.3-1,.1c-47.6-27.3-86.6-69-109.2-119.1-13.6-30.2-23.4-63.1-25.8-96.4-1.6-22.7-1.7-45.6,0-68.3.4-4.7,1-9.4,1.5-14,.4-.4,7.3,3.9,8.3,4.5,23.1,12.1,50.6,18.8,76.7,15.2,17.7-2.5,34.4-9.8,48.7-20.2,3.5,1.5,6.4,4.1,9.6,6,33.4,20,74.5,18.2,109.3,2.7,5.5-2.4,10.6-5.5,16-8.1ZM277,14c-10.4,4.7-21.1,8.9-32.3,11.5-29.7,6.9-60.9,3.7-87.7-10.8-1.3-.7-6.5-4.2-7.2-4.2s-4.9,2.8-6.1,3.5c-30.5,16.8-66,18.8-99.1,8.6s-14.8-5.3-21.8-8.6l-.4.5c-3.1,28.2-2,57.1,2.5,85.1,12.6,78.8,55.1,148.7,124.4,189.5.8.4,1.7-.4,2.5-.8,4.1-2.2,8.8-5.6,12.6-8.3,74.8-51.8,111.2-131.9,114.7-221.9.5-13,.2-27.1-1.2-40-.1-1.4-.4-2.8-.6-4.2Z"/>
  <path class="st1" d="M277,14c.2,1.4.5,2.8.6,4.2,1.4,12.9,1.7,27.1,1.2,40-3.5,90-39.9,170.1-114.7,221.9-3.9,2.7-8.6,6.1-12.6,8.3s-1.7,1.1-2.5.8C79.8,248.3,37.3,178.4,24.7,99.6c-4.5-28-5.5-57-2.5-85.1l.4-.5c7.1,3.3,14.4,6.3,21.8,8.6,33.1,10.2,68.6,8.2,99.1-8.6,1.2-.7,5.1-3.5,6.1-3.5s5.9,3.5,7.2,4.2c26.8,14.5,58,17.7,87.7,10.8s21.9-6.8,32.3-11.5ZM31.1,88.7h236.6c1.6-10.2,1.8-20.6,2.8-30.9-.3-10.5.6-21.1-.6-31.5-5.6,2-11.2,4.3-16.9,6-34.3,10-67.2,7-98.8-9.2-1.1-.6-3.4-2.3-4.5-2.3s-7.4,3.8-9,4.6c-29.4,14-64.7,15.6-95.8,6.3-5.3-1.6-10.4-3.8-15.7-5.4-.2,9.1-1.1,18.1-.9,27.2.1,5.4.5,10.9.9,16.3s1.6,12.6,1.8,18.9ZM167.4,97.7h-35.1v8.2c0,.1.3.4.5.4l2.9.4c-12.1,4.1-21.8,13.2-26.8,24.9h11.1c-5.6,9.3-7.5,21.3-3,31.5l1.7,2.3,12.8-33.8h-10.8c3.7-5.9,8.8-10.6,15.4-13.2l-4.3,13.2h8.5c.3,0,.5-1.4.9-1.5l2.3,1.5c-1.1,0-2,.5-3.1,0l-9.5,27.7h12.5s.5-.4.5-.5v-27.2h8v27.2s.4.5.5.5h21.1l-11.1-27.7h9.1l17.1,39.7c.9.7,3.8-3.7,4.8-4s3.7,1.8,4,2.4c.5.9-2,3.6-2.3,4.6h48.5c6.7-13.7,11.6-28.2,15.8-42.8h-87.7l-7.1-16.6c7,1.2,12.2,6.5,17.1,11.4l5.9-4.6v-.4c0,0-11-17.3-11-17.3-.3-.2-.6,0-.9,0s-5.3,2.4-5.5,2.7c-.3.4,0,1.8,0,2.4l-5.5-2.6c.5-.4,3.1.2,3.1-.6v-8.2ZM179.4,174.3c-.3-.8-.5-.6-.6-.9-.4-1.1-2.4-7.8-3.3-7.8h-23.4s-.5.4-.5.5v8.2h-8v-7.8s-.4-.5-.5-.5h-14.5c-1.4,2.5-2.3,5.5-2.9,8.3h17.5v11.4c-6.9-1.7-12.5-6.2-18.1-10.2l.3-1.2h-14.3c-1.3-2.3-2.3-4.8-3.2-7.2-1.6-4.4-2.4-9.6-4.2-13.7-.8-1.9-2-3.4-3.5-4.8,1.8-.8,3.4-2.1,4.4-3.9l3.9-13.1H40.7c3.8,14.7,9.4,28.9,15.7,42.7h54.7c.2,1.7,1.9,3.8,1.7,5.3-2.5,6.6-4.6,13.4-7.7,19.7h-7.5v7.7h27.4v-7.5c-2-1.4-4.5-2.2-6.8-3.2.4-1.3,3.1-10,3.9-10.1,6.1,4.7,13.5,7.2,20.7,9.6v3.3s-7.3,0-7.3,0c-.6,2.3,0,4.6-.3,6.9,0,.3.2.6.4.8.6.5,6.7.3,8,.3,8.1-.2,17.7.3,25.5-.3,1.9-.2,3.4-.5,4.6-2.2l6.3-9.5c-1.9,0-5.5-2.1-7.2-1.8s-2.9,5-6.8,5.5-8.4-.5-12.3-.7c-.7-.2-.5-1.2-.5-1.8,10.8-.7,20.9-4.4,30.3-9.5l3.6,8.9c-2.5.5-4.6,2.4-7.1,3.1v7.7h27.4v-7.7h-6.5c-2.6-6.9-5.6-13.7-8.5-20.5l1.8-3.8c-4.9,0-9.8,0-14.8,0,.4,1.1.4,2.6,1.2,3.7-8.5,6-18.5,7.1-28.6,8.3v-12c9.1,0,18.3,0,27.4,0ZM217.6,217.3H82.5c-.1.5.3.8.5,1.2,1.3,2.2,4,5.2,5.7,7.3,15.4,18.9,36.1,37.6,56.8,50.6.8.5,3.7,2.5,4.3,2.5,23.2-13.6,43.7-31.5,60.8-52.2l7.1-9.4Z"/>
  <path class="st0" d="M31.1,88.7c-.3-6.3-1.4-12.6-1.8-18.9s-.8-10.9-.9-16.3c-.2-9.1.8-18.1.9-27.2,5.3,1.6,10.4,3.8,15.7,5.4,31.1,9.3,66.4,7.7,95.8-6.3,1.6-.8,8-4.6,9-4.6s3.4,1.8,4.5,2.3c31.6,16.2,64.5,19.3,98.8,9.2s11.3-4,16.9-6c1.2,10.4.4,21,.6,31.5-.9,10.3-1.2,20.7-2.8,30.9H31.1ZM129,84.1h6.5v-4.8c0-4,5.6-11.6,6.3-16.4s-.8-4.4-.8-7.1c2,.8,3,3.1,3.1,5.1s-.8,2.1.1,2.9,5.7,1.8,6.6,2c3.8.8,7.2,1.2,10.8-.5-1.5-2.2-.9-4.8-1.4-7.1s-2.2-3.7-.9-4c3.9.8,3.2,6.6,4.2,10,1.3,4.7,4.6,6.6,7.4,10.2s3,5.4,2.2,9.7h6.2c0-5.4-.7-10.8-.3-16.2s.5-5.9,1.6-4.8c0,2.9,0,6.4,2,8.6.7.1.5-.3.5-.8,0-3.9-.9-12.3-1.8-16.1-2.5-10.7-18-17.5-28.3-15.8l-11.5.9c-.4.3,2.7,4.5,2.9,5.2,1,3.5-2.5,2.4-3.8,3.6s-.6,1.7-1,2.4c-.7,1.5-4.6,5.6-6.2,5.1s-.6-.4-.5-.7,3.1-2.6,3.7-3.4c1-1.3,1.9-4.1,2.8-4.9s3.4-.5,3.1-2.4-2.8-4-3.2-4.5c-2.5-2.7-7.1-6.1-10.8-4.1s-1.9,2.1-2.8,2.4-1.7,0-2.6.2c-3.9.9-6.1,2.6-8.2,6s-5.3,13.6-9.3,9.5,6.4-15.6-2.6-14.6c-3.4.4-2.1,4.4.3,2.8s1.7-3.1,2.1.3c.5,4.7-6.7,8.3-3.2,14.3s19.5,3.1,25.9,1.6c1.2,8.4,3.2,16.8,1.2,25.2ZM141,77.8c.2,1.5-.2,3.5,0,5.1h5.7c.2,0,.4-.5.4-.7.1-1.7-1.8-6.1-2.3-8.2s-.8-7.2-1.1-7.4c-1.1-.7-1.7,2-2.1,2.7-.6,1-2.5,3.2-2.7,4.1s1.8,3.4,2,4.5ZM168.7,82.3c.2-1.7,1-4.6.6-6.2s-1.6-2-1.9-2.4-3.7-4-4-4c-.4,0-.4.6-.3.9.4,3.9,2.2,7.6.8,11.7h4.9Z"/>
  <path class="st0" d="M217.6,217.3l-7.1,9.4c-17.1,20.7-37.6,38.6-60.8,52.2-.6,0-3.5-2-4.3-2.5-20.7-13-41.3-31.8-56.8-50.6-1.7-2-4.4-5.1-5.7-7.3s-.6-.7-.5-1.2h135.1ZM125.3,228.1c-2.6-.6-3.2,1.8-4.9,3.2s-3.7,1.3-3.1,5.4l4.6-2.5v14.5h3.4v-20.6ZM133.6,243.2c.3,8.5,11,7.8,12.8,0s.8-14.8-6.2-15.2-9.5,7.9-5.3,12.3c2.4,2.5,5.6,2,8.5.6-.3,2.1-1.4,5.5-4.1,5.2-2.4-.2-2.3-2.8-2.7-3s-2.4,0-3,0ZM150.5,248.7h13.8v-3.4h-8.9l3.1-2.6c1.9-2.1,5.1-4.3,5.7-7.2,2-9.4-13.8-10.1-13.1-.6,4.8,1,2.5-.9,4.2-2.8s5.9-.9,5.3,2.9-10.9,8.5-10.1,13.7ZM182.2,228.4h-13.2v3.4h8.6c-3.5,5-5.9,10.7-6.2,16.9,5,.6,3.3-1.1,4.1-4.7s1.9-5.6,3-7.7c1.5-2.6,4.3-4.6,3.6-7.9Z"/>
  <path class="st0" d="M167.4,97.7v8.2c0,.8-2.6.2-3.1.6l5.5,2.6c.1-.6-.2-2,0-2.4s5.1-2.6,5.5-2.7.6-.2.9,0l11.1,17.3v.4c0,0-6,4.6-6,4.6-4.9-4.8-10.1-10.1-17.1-11.4l7.1,16.6h87.7c-4.3,14.6-9.2,29.1-15.8,42.8h-48.5c.3-1,2.8-3.7,2.3-4.6s-3.2-2.6-4-2.4c-1.1.3-3.9,4.6-4.8,4l-17.1-39.7h-9.1l11.1,27.7h-21.1s-.5-.4-.5-.5v-27.2h-8v27.2s-.4.5-.5.5h-12.5l9.5-27.7c1.1.5,2,0,3.1,0l-2.3-1.5c-.4.1-.6,1.5-.9,1.5h-8.5l4.3-13.2c-6.5,2.6-11.6,7.4-15.4,13.2h10.8l-12.8,33.8-1.7-2.3c-4.5-10.2-2.6-22.2,3-31.5h-11.1c5-11.8,14.6-20.8,26.8-24.9l-2.9-.4c-.2,0-.5-.3-.5-.4v-8.2h35.1ZM152.8,131.5c2.8-.1,5.7,0,8.5,0-2.2-6.3-5-12.5-8.1-18.4-2.5-1.1-5-1.1-6.6,1.4s-2.5,5.8-2.9,7.2-.3,1-.2,1.5c3.1.4,12.9-1.4,13.5,3s-2.8,3.6-4.6,5.2c0,.9.3.2.5.2Z"/>
  <path class="st0" d="M179.4,174.3c4.9,0,9.8,0,14.8,0l-1.8,3.8c3,6.8,6,13.6,8.5,20.5h6.5v7.7h-27.4v-7.7c2.5-.7,4.6-2.6,7.1-3.1l-3.6-8.9c-9.4,5.1-19.5,8.8-30.3,9.5,0,.6-.2,1.6.5,1.8,3.9.2,8.4,1.1,12.3.7s4.9-5.1,6.8-5.5,5.2,1.7,7.2,1.8l-6.3,9.5c-1.1,1.7-2.6,2-4.6,2.2-7.9.6-17.4.1-25.5.3s-7.4.2-8-.3-.4-.5-.4-.8c.2-2.3-.3-4.6.3-6.9h7.4v-3.3c-7.3-2.3-14.7-4.9-20.8-9.6-.7.2-3.4,8.8-3.9,10.1,2.2,1.1,4.8,1.8,6.8,3.2v7.5h-27.4v-7.7h7.5c3.1-6.3,5.2-13.1,7.7-19.7.2-1.5-1.6-3.6-1.7-5.2h-54.7c-6.3-13.9-12-28.1-15.7-42.8h68l-3.9,13.1c-1,1.8-2.5,3.1-4.4,3.9,1.6,1.4,2.7,2.8,3.5,4.8,1.7,4.1,2.5,9.3,4.2,13.7.9,2.5,1.9,4.9,3.2,7.2h14.3l-.3,1.2c5.6,4,11.2,8.5,18.1,10.2v-11.4h-17.5c.7-2.8,1.6-5.8,2.9-8.3h14.5s.5.4.5.5v7.8h8v-8.2s.4-.5.5-.5h23.4c.9,0,2.9,6.7,3.3,7.8s.3.1.6.9c-9.1,0-18.3,0-27.4,0v12c10.1-1.2,20.1-2.3,28.6-8.3-.8-1.1-.9-2.6-1.2-3.7Z"/>
  <path class="st1" d="M129,84.1c2-8.4,0-16.8-1.2-25.2-6.4,1.5-21.9,5.5-25.9-1.6s3.7-9.6,3.2-14.3c-.3-3.4-1.4-.8-2.1-.3-2.5,1.6-3.8-2.4-.3-2.8,9-.9,0,12,2.6,14.6,4,4.1,7.9-7.2,9.3-9.5,2.1-3.4,4.3-5.1,8.2-6s1.7,0,2.6-.2,1.8-1.8,2.8-2.4c3.8-2.1,8.3,1.3,10.8,4.1s3.2,4.1,3.2,4.5c.3,2-2.1,1.4-3.1,2.4s-1.7,3.7-2.8,4.9-3.6,3-3.7,3.4.2.7.5.7c1.7.5,5.5-3.6,6.2-5.1s.3-1.9,1-2.4c1.3-1.1,4.8,0,3.8-3.6s-3.3-4.9-2.9-5.2l11.5-.9c10.3-1.7,25.8,5.1,28.3,15.8s1.7,12.2,1.8,16.1.2.9-.5.8c-2.1-2.3-1.9-5.7-2-8.6-1-1.2-1.5,4.4-1.6,4.8-.3,5.4.3,10.8.3,16.2h-6.2c.9-4.3.4-6.3-2.2-9.7s-6-5.5-7.4-10.2c-.9-3.3-.3-9.1-4.2-10-1.3.3.8,3.2.9,4,.5,2.3-.1,4.9,1.4,7.1-3.6,1.7-7.1,1.4-10.8.5s-6.2-1.7-6.6-2c-1-.8-.1-2-.1-2.9,0-2-1.1-4.3-3.1-5.1,0,2.7,1.3,4.1.8,7.1-.8,4.8-6.3,12.4-6.3,16.4v4.8h-6.5ZM130.4,37.7c-2.3.4-5.4,3.3-5.7,5.6s0,1.6,0,2.4-1.3,2.4-.1,2.6,1.5-1.2,1.7-1.7c.5-1.3,0-2.5.5-3.8s3.2-3.6,4.8-3.5,4.3,3.4,5,1.8-3.2-3.2-3.9-3.5-1.3-.3-2.1-.2ZM115.4,46.9c.4,1.8,3.1,3.1,4.3,1.3-.8-2-2.5-1.9-4.3-1.3Z"/>
  <path class="st1" d="M141,77.8c-.2-1.1-2.1-3.7-2-4.5s2.1-3.1,2.7-4.1,1-3.4,2.1-2.7.8,6.2,1.1,7.4c.4,2,2.4,6.5,2.3,8.2s-.3.7-.4.7h-5.7c-.2-1.6.2-3.6,0-5.1Z"/>
  <path class="st1" d="M168.7,82.3h-4.9c1.4-4.1-.4-7.8-.8-11.7,0-.3,0-.9.3-.9s3.6,3.5,4,4,1.9,2.2,1.9,2.4c.5,1.7-.3,4.5-.6,6.2Z"/>
  <path class="st1" d="M133.6,243.2c.7.1,2.6-.2,3,0s.3,2.8,2.7,3c2.8.3,3.8-3.1,4.1-5.2-2.9,1.4-6,1.9-8.5-.6-4.2-4.4-1.2-12.7,5.3-12.3s7.4,10,6.2,15.2c-1.8,7.7-12.5,8.4-12.8,0ZM139,231.3c-3.7.9-3.4,8.2,1.1,7.9s4.2-9.2-1.1-7.9Z"/>
  <path class="st1" d="M150.5,248.7c-.8-5.2,9.6-9.9,10.1-13.7s-3.3-5.1-5.3-2.9.7,3.8-4.2,2.8c-.8-9.5,15.1-8.7,13.1.6s-3.8,5.1-5.7,7.2l-3.1,2.6h8.9v3.4h-13.8Z"/>
  <path class="st1" d="M182.2,228.4c.6,3.3-2.1,5.3-3.6,7.9-1.2,2.1-2.5,5.4-3,7.7-.8,3.6.9,5.3-4.1,4.7.3-6.2,2.6-11.9,6.2-16.9h-8.6v-3.4h13.2Z"/>
  <path class="st1" d="M125.3,228.1v20.6h-3.4v-14.5l-4.6,2.5c-.6-4.1.7-3.5,3.1-5.4s2.3-3.8,4.9-3.2Z"/>
  <path class="st1" d="M152.8,131.5c-.1,0-.5.8-.5-.2,1.7-1.5,4.9-2.2,4.6-5.2-.6-4.4-10.3-2.6-13.5-3,0-.5,0-1,.2-1.5.4-1.4,2.2-6.1,2.9-7.2,1.6-2.5,4.1-2.5,6.6-1.4,3.1,5.9,5.9,12.1,8.1,18.4-2.8,0-5.7-.1-8.5,0Z"/>
  <path class="st0" d="M130.4,37.7c.8-.1,1.3-.1,2.1.2s4.3,2.5,3.9,3.5c-.7,1.6-3.6-1.7-5-1.8s-4.3,2-4.8,3.5,0,2.5-.5,3.8-1.2,1.8-1.7,1.7c-1.1-.2,0-2.1.1-2.6.1-.8,0-1.6,0-2.4.3-2.4,3.4-5.3,5.7-5.6Z"/>
  <path class="st0" d="M115.4,46.9c1.8-.6,3.5-.6,4.3,1.3-1.2,1.8-3.9.4-4.3-1.3Z"/>
  <path class="st0" d="M139,231.3c5.3-1.2,5.7,7.6,1.1,7.9s-4.8-7.1-1.1-7.9Z"/>
</svg>