<?xml version="1.0" encoding="UTF-8"?>
<!DOCTYPE svg PUBLIC "-//W3C//DTD SVG 1.1//EN" "http://www.w3.org/Graphics/SVG/1.1/DTD/svg11.dtd">
<svg xmlns="http://www.w3.org/2000/svg" version="1.1" width="375px" height="472px" style="shape-rendering:geometricPrecision; text-rendering:geometricPrecision; image-rendering:optimizeQuality; fill-rule:evenodd; clip-rule:evenodd" xmlns:xlink="http://www.w3.org/1999/xlink">
<g><path style="opacity:1" fill="#1c9f4e" d="M 124.5,6.5 C 123.254,11.8336 121.254,16.8336 118.5,21.5C 117.094,21.9731 116.427,22.9731 116.5,24.5C 116.167,24.5 115.833,24.5 115.5,24.5C 113.11,25.8908 111.443,27.8908 110.5,30.5C 105.142,34.8634 99.8088,39.1968 94.5,43.5C 93.1667,45.5 91.5,47.1667 89.5,48.5C 88.5416,48.9528 87.7083,49.6195 87,50.5C 86.5045,48.5273 86.3379,46.5273 86.5,44.5C 86.462,34.94 89.462,26.6066 95.5,19.5C 98.729,17.0584 101.729,14.3918 104.5,11.5C 104.973,10.0937 105.973,9.42702 107.5,9.5C 111.112,8.75654 114.112,7.08987 116.5,4.5C 117.78,3.06873 119.447,2.40206 121.5,2.5C 122.967,1.7084 124.3,1.7084 125.5,2.5C 124.754,3.73619 124.421,5.06953 124.5,6.5 Z"/></g>
<g><path style="opacity:1" fill="#4db175" d="M 158.5,2.5 C 152.763,4.214 146.763,5.214 140.5,5.5C 142.811,3.93175 145.478,3.09842 148.5,3C 151.817,2.50166 155.15,2.33499 158.5,2.5 Z"/></g>
<g><path style="opacity:1" fill="#119e4a" d="M 158.5,2.5 C 159.833,2.5 161.167,2.5 162.5,2.5C 155.647,13.6902 146.314,22.0235 134.5,27.5C 134.167,27.5 133.833,27.5 133.5,27.5C 127.769,27.6837 122.102,28.3504 116.5,29.5C 116.5,28.5 116.5,27.5 116.5,26.5C 116.5,25.8333 116.5,25.1667 116.5,24.5C 117.906,24.0269 118.573,23.0269 118.5,21.5C 119.833,20.1667 121.167,18.8333 122.5,17.5C 125.427,16.2427 127.761,14.2427 129.5,11.5C 132.044,7.72258 135.711,5.72258 140.5,5.5C 146.763,5.214 152.763,4.214 158.5,2.5 Z"/></g>
<g><path style="opacity:0.643" fill="#72b892" d="M 125.5,-0.5 C 126.5,-0.5 127.5,-0.5 128.5,-0.5C 128.002,2.32635 126.669,4.65968 124.5,6.5C 124.421,5.06953 124.754,3.73619 125.5,2.5C 124.3,1.7084 122.967,1.7084 121.5,2.5C 122.59,1.14294 123.924,0.142944 125.5,-0.5 Z"/></g>
<g><path style="opacity:0.714" fill="#6dbc91" d="M 116.5,4.5 C 114.112,7.08987 111.112,8.75654 107.5,9.5C 109.748,6.60657 112.748,4.9399 116.5,4.5 Z"/></g>
<g><path style="opacity:0.835" fill="#79ca9e" d="M 104.5,11.5 C 101.729,14.3918 98.729,17.0584 95.5,19.5C 97.436,15.6891 100.436,13.0225 104.5,11.5 Z"/></g>
<g><path style="opacity:0.918" fill="#79ca9e" d="M 129.5,11.5 C 127.761,14.2427 125.427,16.2427 122.5,17.5C 124.239,14.7573 126.573,12.7573 129.5,11.5 Z"/></g>
<g><path style="opacity:0.169" fill="#89cfa7" d="M 162.5,2.5 C 163.873,2.34332 165.207,2.50999 166.5,3C 159.833,9 153.5,15.3333 147.5,22C 143.61,24.9465 139.277,26.7798 134.5,27.5C 146.314,22.0235 155.647,13.6902 162.5,2.5 Z"/></g>
<g><path style="opacity:0.004" fill="#81c99f" d="M 115.5,24.5 C 115.5,25.1667 115.5,25.8333 115.5,26.5C 114.833,26.5 114.5,26.8333 114.5,27.5C 113.363,28.7888 112.03,29.7888 110.5,30.5C 111.443,27.8908 113.11,25.8908 115.5,24.5 Z"/></g>
<g><path style="opacity:0.173" fill="#7ec69f" d="M 115.5,26.5 C 115.833,26.5 116.167,26.5 116.5,26.5C 116.5,27.5 116.5,28.5 116.5,29.5C 122.102,28.3504 127.769,27.6837 133.5,27.5C 131.708,28.3091 129.708,28.8091 127.5,29C 132.684,29.1739 137.684,29.6739 142.5,30.5C 137.167,30.5 131.833,30.5 126.5,30.5C 123.857,29.4931 123.523,29.4931 125.5,30.5C 123.039,31.531 120.373,32.1977 117.5,32.5C 116.282,31.8386 114.949,31.1719 113.5,30.5C 114.127,29.5832 114.461,28.5832 114.5,27.5C 115.167,27.5 115.5,27.1667 115.5,26.5 Z"/></g>
<g><path style="opacity:1" fill="#079d48" d="M 125.5,30.5 C 125.833,30.5 126.167,30.5 126.5,30.5C 131.833,30.5 137.167,30.5 142.5,30.5C 143.167,30.5 143.833,30.5 144.5,30.5C 148.301,31.6389 152.301,32.4723 156.5,33C 155.944,33.3826 155.611,33.8826 155.5,34.5C 152.911,34.461 150.911,35.461 149.5,37.5C 144.984,40.2562 140.651,43.2562 136.5,46.5C 134.181,46.9925 132.181,47.9925 130.5,49.5C 126.383,50.3545 122.383,51.5212 118.5,53C 109.086,54.0273 99.7522,55.5273 90.5,57.5C 89.8333,57.1667 89.1667,56.8333 88.5,56.5C 89.1272,55.5832 89.4606,54.5832 89.5,53.5C 93.8333,49.8333 97.8333,45.8333 101.5,41.5C 104.473,39.8532 107.14,37.8532 109.5,35.5C 111.642,33.3382 114.309,32.3382 117.5,32.5C 120.373,32.1977 123.039,31.531 125.5,30.5 Z"/></g>
<g><path style="opacity:0.7" fill="#83c6a1" d="M 144.5,30.5 C 148.915,30.3054 153.249,30.8054 157.5,32C 158.609,33.813 157.942,34.6463 155.5,34.5C 155.611,33.8826 155.944,33.3826 156.5,33C 152.301,32.4723 148.301,31.6389 144.5,30.5 Z"/></g>
<g><path style="opacity:1" fill="#1ba04e" d="M 77.5,35.5 C 79.554,38.0076 80.554,41.0076 80.5,44.5C 80.5,52.1667 80.5,59.8333 80.5,67.5C 77.3055,80.6727 69.9721,90.6727 58.5,97.5C 57.5,97.5 56.5,97.5 55.5,97.5C 56.331,90.8689 56.6643,84.2022 56.5,77.5C 56.9769,68.7172 59.9769,61.0505 65.5,54.5C 70.058,49.0775 73.2246,42.7441 75,35.5C 75.7697,34.4019 76.603,34.4019 77.5,35.5 Z"/></g>
<g><path style="opacity:0.184" fill="#81cba3" d="M 155.5,34.5 C 153.967,36.2451 151.967,37.2451 149.5,37.5C 150.911,35.461 152.911,34.461 155.5,34.5 Z"/></g>
<g><path style="opacity:0.655" fill="#81c9a2" d="M 110.5,30.5 C 110.141,32.371 109.141,33.871 107.5,35C 108.094,35.4643 108.761,35.631 109.5,35.5C 107.14,37.8532 104.473,39.8532 101.5,41.5C 101.631,40.7611 101.464,40.0944 101,39.5C 98.9307,41.0854 96.764,42.4187 94.5,43.5C 99.8088,39.1968 105.142,34.8634 110.5,30.5 Z"/></g>
<g><path style="opacity:0.008" fill="#76c59b" d="M 149.5,37.5 C 146,41.7463 141.667,44.7463 136.5,46.5C 140.651,43.2562 144.984,40.2562 149.5,37.5 Z"/></g>
<g><path style="opacity:0.871" fill="#64b085" d="M 44.5,49.5 C 43.7677,48.1917 42.9344,46.8584 42,45.5C 40.9179,47.6181 39.7512,49.6181 38.5,51.5C 38.8568,47.7604 40.1901,44.427 42.5,41.5C 44.0538,43.9329 44.7204,46.5995 44.5,49.5 Z"/></g>
<g><path style="opacity:1" fill="#119e4a" d="M 44.5,49.5 C 46.0828,51.6626 47.4161,53.9959 48.5,56.5C 49.9768,61.597 51.6435,66.597 53.5,71.5C 53.5,71.8333 53.5,72.1667 53.5,72.5C 53.5,78.1667 53.5,83.8333 53.5,89.5C 53.5,89.8333 53.5,90.1667 53.5,90.5C 50.961,95.1119 50.1277,100.112 51,105.5C 52.045,104.627 52.8783,103.627 53.5,102.5C 55.0443,102.297 56.3777,101.63 57.5,100.5C 57.8333,101.167 58.1667,101.833 58.5,102.5C 57.5331,104.762 56.8664,107.095 56.5,109.5C 56.6982,117.534 56.3649,125.534 55.5,133.5C 54.2318,135.905 53.5651,138.572 53.5,141.5C 51.7073,143.426 50.7073,145.759 50.5,148.5C 50.573,150.027 49.9063,151.027 48.5,151.5C 46.127,153.579 44.7936,156.246 44.5,159.5C 43.5,160.833 42.5,162.167 41.5,163.5C 39.3862,162.216 38.3862,160.216 38.5,157.5C 37.1667,146.5 37.1667,135.5 38.5,124.5C 40.1765,123.817 40.8432,122.483 40.5,120.5C 41.2341,119.292 41.5674,117.959 41.5,116.5C 43.0435,114.072 44.0435,111.406 44.5,108.5C 44.3465,106.03 43.3465,104.03 41.5,102.5C 39.8958,101.713 39.2291,100.38 39.5,98.5C 39.2671,95.4582 38.2671,92.7916 36.5,90.5C 35.596,89.791 35.2627,88.791 35.5,87.5C 34.4921,80.5282 34.3255,73.5282 35,66.5C 36.8081,61.6527 37.9747,56.6527 38.5,51.5C 39.7512,49.6181 40.9179,47.6181 42,45.5C 42.9344,46.8584 43.7677,48.1917 44.5,49.5 Z"/></g>
<g><path style="opacity:1" fill="#5fb584" d="M 101.5,41.5 C 97.8333,45.8333 93.8333,49.8333 89.5,53.5C 92.5,48.5 96.5,44.5 101.5,41.5 Z"/></g>
<g><path style="opacity:0.282" fill="#92d8b3" d="M 136.5,46.5 C 135.089,48.539 133.089,49.539 130.5,49.5C 132.181,47.9925 134.181,46.9925 136.5,46.5 Z"/></g>
<g><path style="opacity:0.506" fill="#88c5a4" d="M 86.5,44.5 C 86.3379,46.5273 86.5045,48.5273 87,50.5C 87.7083,49.6195 88.5416,48.9528 89.5,48.5C 89.4754,51.179 88.142,52.5123 85.5,52.5C 85.1936,49.6146 85.5269,46.9479 86.5,44.5 Z"/></g>
<g><path style="opacity:0.424" fill="#74c498" d="M 130.5,49.5 C 125.857,51.9956 120.857,53.8289 115.5,55C 106.033,55.66 96.6997,57.16 87.5,59.5C 86.8333,59.1667 86.1667,58.8333 85.5,58.5C 86.1539,56.1419 87.4872,54.4752 89.5,53.5C 89.4606,54.5832 89.1272,55.5832 88.5,56.5C 89.1667,56.8333 89.8333,57.1667 90.5,57.5C 99.7522,55.5273 109.086,54.0273 118.5,53C 122.383,51.5212 126.383,50.3545 130.5,49.5 Z"/></g>
<g><path style="opacity:1" fill="#60b682" d="M 77.5,35.5 C 76.603,34.4019 75.7697,34.4019 75,35.5C 73.2246,42.7441 70.058,49.0775 65.5,54.5C 69.028,47.4357 72.028,40.1024 74.5,32.5C 76.4668,31.9029 77.4668,32.9029 77.5,35.5 Z"/></g>
<g><path style="opacity:0.09" fill="#585858" d="M 137.5,57.5 C 135.629,57.1412 134.129,56.1412 133,54.5C 132.722,55.4158 132.222,56.0825 131.5,56.5C 131.238,55.0222 131.571,53.6888 132.5,52.5C 134.521,53.8545 136.188,55.5212 137.5,57.5 Z"/></g>
<g><path style="opacity:0.997" fill="#050506" d="M 258.5,56.5 C 258.427,58.0269 259.094,59.0269 260.5,59.5C 261.609,59.5569 262.609,59.8902 263.5,60.5C 263.5,62.5 264.5,63.5 266.5,63.5C 269.586,64.6982 272.252,66.3648 274.5,68.5C 276.426,70.2927 278.759,71.2927 281.5,71.5C 286.24,72.6363 290.907,73.9696 295.5,75.5C 295.918,76.2216 296.584,76.7216 297.5,77C 300.146,77.4974 302.813,77.6641 305.5,77.5C 310.833,77.5 316.167,77.5 321.5,77.5C 324.187,77.6641 326.854,77.4974 329.5,77C 330.416,76.7216 331.082,76.2216 331.5,75.5C 331.833,75.5 332.167,75.5 332.5,75.5C 337.36,75.5404 341.693,74.2071 345.5,71.5C 347.25,70.1302 349.25,69.1302 351.5,68.5C 353.38,68.7709 354.713,68.1042 355.5,66.5C 355.842,65.6618 356.508,65.3284 357.5,65.5C 359.027,65.573 360.027,64.9063 360.5,63.5C 362.223,61.7819 364.223,60.4486 366.5,59.5C 369.075,58.4322 371.242,56.7655 373,54.5C 373.167,137.001 373.667,219.334 374.5,301.5C 374.5,303.167 374.5,304.833 374.5,306.5C 374.167,306.5 373.833,306.5 373.5,306.5C 371.742,309.854 370.742,313.521 370.5,317.5C 369.326,318.514 368.66,319.847 368.5,321.5C 366.674,323.147 365.34,325.147 364.5,327.5C 364.5,327.833 364.5,328.167 364.5,328.5C 361.833,329.167 360.167,330.833 359.5,333.5C 357.596,333.738 356.262,334.738 355.5,336.5C 355.5,337.833 354.833,338.5 353.5,338.5C 351.973,338.427 350.973,339.094 350.5,340.5C 348.847,340.66 347.514,341.326 346.5,342.5C 344.181,342.992 342.181,343.992 340.5,345.5C 338.447,345.402 336.78,346.069 335.5,347.5C 334.432,348.434 333.099,348.768 331.5,348.5C 328.807,348.572 326.14,348.905 323.5,349.5C 321.97,349.64 320.97,350.307 320.5,351.5C 319.167,351.5 317.833,351.5 316.5,351.5C 313.447,351.111 310.78,351.777 308.5,353.5C 306.283,354.369 303.95,354.702 301.5,354.5C 298.99,354.054 296.99,354.72 295.5,356.5C 293.958,357.301 292.292,357.634 290.5,357.5C 288.447,357.402 286.78,358.069 285.5,359.5C 283.62,359.229 282.287,359.896 281.5,361.5C 280.791,362.404 279.791,362.737 278.5,362.5C 276.326,362.75 274.659,363.75 273.5,365.5C 273.158,366.338 272.492,366.672 271.5,366.5C 269.246,367.124 267.579,368.457 266.5,370.5C 265.5,372.167 264.167,373.5 262.5,374.5C 261.094,374.973 260.427,375.973 260.5,377.5C 260.5,378.167 260.167,378.5 259.5,378.5C 258.094,378.973 257.427,379.973 257.5,381.5C 257.672,382.492 257.338,383.158 256.5,383.5C 255.094,383.973 254.427,384.973 254.5,386.5C 254.5,386.833 254.5,387.167 254.5,387.5C 253.883,387.611 253.383,387.944 253,388.5C 252.722,387.584 252.222,386.918 251.5,386.5C 251.346,384.03 250.346,382.03 248.5,380.5C 247.974,378.77 246.974,377.436 245.5,376.5C 244.833,376.5 244.5,376.167 244.5,375.5C 243.5,372.5 241.5,370.5 238.5,369.5C 236.223,368.551 234.223,367.218 232.5,365.5C 232.027,364.094 231.027,363.427 229.5,363.5C 228.508,363.672 227.842,363.338 227.5,362.5C 226.486,361.326 225.153,360.66 223.5,360.5C 219.225,359.681 215.225,358.347 211.5,356.5C 209.562,354.837 207.228,354.171 204.5,354.5C 201.96,352.587 199.293,352.254 196.5,353.5C 196.167,353.5 195.833,353.5 195.5,353.5C 194.082,351.692 192.082,351.025 189.5,351.5C 187.05,351.702 184.717,351.369 182.5,350.5C 180.162,348.96 177.495,348.294 174.5,348.5C 173.167,348.5 171.833,348.5 170.5,348.5C 170.737,349.791 170.404,350.791 169.5,351.5C 168.596,352.209 168.263,353.209 168.5,354.5C 166.375,357.088 165.042,360.088 164.5,363.5C 162.265,366.291 160.265,369.291 158.5,372.5C 156.844,374.46 155.177,376.46 153.5,378.5C 151.11,379.891 149.443,381.891 148.5,384.5C 148.5,385.833 147.833,386.5 146.5,386.5C 144.251,387.08 142.585,388.413 141.5,390.5C 140.738,392.262 139.404,393.262 137.5,393.5C 135.77,394.026 134.436,395.026 133.5,396.5C 131.326,396.75 129.659,397.75 128.5,399.5C 126.539,401.312 124.206,402.312 121.5,402.5C 119.847,402.66 118.514,403.326 117.5,404.5C 116.432,405.434 115.099,405.768 113.5,405.5C 111.102,405.259 109.102,405.926 107.5,407.5C 97.7229,410.389 87.7229,411.056 77.5,409.5C 74.3157,407.586 70.649,406.92 66.5,407.5C 63.619,405.32 60.2856,404.32 56.5,404.5C 55.4863,403.326 54.153,402.66 52.5,402.5C 47.9136,401.54 43.9136,399.54 40.5,396.5C 39.5637,395.026 38.2303,394.026 36.5,393.5C 34.368,393.446 33.0347,392.446 32.5,390.5C 31.0892,388.086 29.0892,386.419 26.5,385.5C 24.1667,383.833 22.1667,381.833 20.5,379.5C 20.2624,377.596 19.2624,376.262 17.5,375.5C 17.573,373.973 16.9063,372.973 15.5,372.5C 13.1782,371.198 11.8449,369.198 11.5,366.5C 11.0075,364.181 10.0075,362.181 8.5,360.5C 8.00751,358.181 7.00751,356.181 5.5,354.5C 3.59025,351.548 2.59025,348.214 2.5,344.5C 2.82943,341.772 2.16276,339.438 0.5,337.5C 0.5,336.833 0.166667,336.5 -0.5,336.5C -0.5,334.833 -0.5,333.167 -0.5,331.5C 0.223404,323.316 0.890071,314.983 1.5,306.5C 1.45728,305.584 1.12395,304.917 0.5,304.5C 1.50086,301.162 2.50086,297.829 3.5,294.5C 5.5848,292.316 6.5848,289.649 6.5,286.5C 7.90632,286.027 8.57298,285.027 8.5,283.5C 10.2277,277.707 13.2277,272.707 17.5,268.5C 20.9031,266.1 23.5698,263.1 25.5,259.5C 28.2901,255.372 31.9568,252.372 36.5,250.5C 38.2303,249.974 39.5637,248.974 40.5,247.5C 42.0269,247.573 43.0269,246.906 43.5,245.5C 45.2163,243.975 47.2163,242.975 49.5,242.5C 50.9952,242.011 52.3285,241.345 53.5,240.5C 53.8333,240.5 54.1667,240.5 54.5,240.5C 55.1667,240.5 55.5,240.167 55.5,239.5C 55.8333,239.5 56.1667,239.5 56.5,239.5C 59.716,239.655 62.3826,238.655 64.5,236.5C 69.114,235.555 73.7807,234.888 78.5,234.5C 85.8447,234.629 93.1781,234.962 100.5,235.5C 103.059,235.198 105.393,235.532 107.5,236.5C 109.102,238.074 111.102,238.741 113.5,238.5C 114.959,238.433 116.292,238.766 117.5,239.5C 118.514,240.674 119.847,241.34 121.5,241.5C 122.78,242.931 124.447,243.598 126.5,243.5C 128.17,243.751 129.67,244.418 131,245.5C 131.5,182.501 131.667,119.501 131.5,56.5C 132.222,56.0825 132.722,55.4158 133,54.5C 134.129,56.1412 135.629,57.1412 137.5,57.5C 138.262,59.2624 139.596,60.2624 141.5,60.5C 143.122,61.1224 144.455,62.1224 145.5,63.5C 145.973,64.9063 146.973,65.573 148.5,65.5C 150.153,65.6596 151.486,66.3263 152.5,67.5C 153.287,69.1042 154.62,69.7709 156.5,69.5C 157.287,71.1042 158.62,71.7709 160.5,71.5C 163.008,73.554 166.008,74.554 169.5,74.5C 171.099,74.2322 172.432,74.5655 173.5,75.5C 176.845,77.217 180.511,77.8836 184.5,77.5C 189.833,77.5 195.167,77.5 200.5,77.5C 205.894,77.8758 210.894,76.8758 215.5,74.5C 218.285,72.9049 221.285,71.9049 224.5,71.5C 227.241,71.2927 229.574,70.2927 231.5,68.5C 233.848,68.4077 235.514,67.4077 236.5,65.5C 238.027,65.573 239.027,64.9063 239.5,63.5C 241.147,61.6736 243.147,60.3403 245.5,59.5C 248.427,58.2427 250.761,56.2427 252.5,53.5C 252.56,52.9569 252.893,52.6236 253.5,52.5C 255.186,53.8569 256.852,55.1902 258.5,56.5 Z"/></g>
<g><path style="opacity:1" fill="#51b175" d="M 80.5,44.5 C 81.9967,48.2227 82.6633,52.2227 82.5,56.5C 82.7058,60.4687 82.0392,64.1354 80.5,67.5C 80.5,59.8333 80.5,52.1667 80.5,44.5 Z"/></g>
<g><path style="opacity:0.122" fill="#9f9f9f" d="M 137.5,57.5 C 139.404,57.7376 140.738,58.7376 141.5,60.5C 139.596,60.2624 138.262,59.2624 137.5,57.5 Z"/></g>
<g><path style="opacity:0.902" fill="#5c5c5c" d="M 252.5,53.5 C 250.761,56.2427 248.427,58.2427 245.5,59.5C 247.193,56.8103 249.527,54.8103 252.5,53.5 Z"/></g>
<g><path style="opacity:0.682" fill="#868686" d="M 258.5,56.5 C 259.906,56.9731 260.573,57.9731 260.5,59.5C 259.094,59.0269 258.427,58.0269 258.5,56.5 Z"/></g>
<g><path style="opacity:0.949" fill="#8fbea7" d="M 115.5,63.5 C 115.5,62.1667 114.833,61.5 113.5,61.5C 114.427,59.5241 115.76,59.1908 117.5,60.5C 117.058,61.7387 116.391,62.7387 115.5,63.5 Z"/></g>
<g><path style="opacity:0.82" fill="#838182" d="M 263.5,60.5 C 264.833,61.1667 265.833,62.1667 266.5,63.5C 264.5,63.5 263.5,62.5 263.5,60.5 Z"/></g>
<g><path style="opacity:1" fill="#68be8b" d="M 48.5,56.5 C 51.8438,60.8488 53.5105,65.8488 53.5,71.5C 51.6435,66.597 49.9768,61.597 48.5,56.5 Z"/></g>
<g><path style="opacity:1" fill="#139e4b" d="M 113.5,61.5 C 114.833,61.5 115.5,62.1667 115.5,63.5C 115.771,65.3797 115.104,66.713 113.5,67.5C 112.094,69.4736 110.594,71.4736 109,73.5C 108.517,74.448 108.351,75.448 108.5,76.5C 107.504,76.4142 106.671,76.7476 106,77.5C 104.705,80.2917 103.205,82.9584 101.5,85.5C 98.7699,90.2197 94.7699,93.553 89.5,95.5C 81.1949,97.4866 73.1949,100.32 65.5,104C 63.8333,104.667 62.1667,104.667 60.5,104C 65.1367,100.206 68.8034,95.7059 71.5,90.5C 71.8449,87.8021 73.1782,85.8021 75.5,84.5C 78.8333,81.8333 81.8333,78.8333 84.5,75.5C 86.7946,74.8645 88.4613,73.5311 89.5,71.5C 89.8333,71.5 90.1667,71.5 90.5,71.5C 95.1024,69.8501 99.4357,67.8501 103.5,65.5C 103.833,65.5 104.167,65.5 104.5,65.5C 108.288,65.691 111.288,64.3577 113.5,61.5 Z"/></g>
<g><path style="opacity:0.086" fill="#7b7a7b" d="M 145.5,63.5 C 147.027,63.427 148.027,64.0937 148.5,65.5C 146.973,65.573 145.973,64.9063 145.5,63.5 Z"/></g>
<g><path style="opacity:0.545" fill="#80c89f" d="M 113.5,61.5 C 111.288,64.3577 108.288,65.691 104.5,65.5C 107.388,64.0204 110.388,62.6871 113.5,61.5 Z"/></g>
<g><path style="opacity:0.91" fill="#817f80" d="M 239.5,63.5 C 239.027,64.9063 238.027,65.573 236.5,65.5C 236.973,64.0937 237.973,63.427 239.5,63.5 Z"/></g>
<g><path style="opacity:1" fill="#fcfcfc" d="M 365.5,69.5 C 366.498,94.3278 366.831,119.328 366.5,144.5C 290.833,144.5 215.167,144.5 139.5,144.5C 139.333,119.164 139.5,93.8311 140,68.5C 167.702,87.3682 197.202,90.5348 228.5,78C 237.198,73.9473 245.365,69.114 253,63.5C 289.086,90.5341 326.586,92.5341 365.5,69.5 Z"/></g>
<g><path style="opacity:0.82" fill="#737172" d="M 360.5,63.5 C 360.027,64.9063 359.027,65.573 357.5,65.5C 357.973,64.0937 358.973,63.427 360.5,63.5 Z"/></g>
<g><path style="opacity:1" fill="#5bb07e" d="M 103.5,65.5 C 99.4357,67.8501 95.1024,69.8501 90.5,71.5C 93.9505,67.7461 98.2838,65.7461 103.5,65.5 Z"/></g>
<g><path style="opacity:0.816" fill="#5a5959" d="M 236.5,65.5 C 235.514,67.4077 233.848,68.4077 231.5,68.5C 232.659,66.7497 234.326,65.7497 236.5,65.5 Z"/></g>
<g><path style="opacity:0.541" fill="#aaaaaa" d="M 355.5,66.5 C 354.713,68.1042 353.38,68.7709 351.5,68.5C 352.514,67.3263 353.847,66.6596 355.5,66.5 Z"/></g>
<g><path style="opacity:0.58" fill="#858585" d="M 152.5,67.5 C 154.153,67.6596 155.486,68.3263 156.5,69.5C 154.62,69.7709 153.287,69.1042 152.5,67.5 Z"/></g>
<g><path style="opacity:0.541" fill="#757374" d="M 156.5,69.5 C 158.153,69.6596 159.486,70.3263 160.5,71.5C 158.62,71.7709 157.287,71.1042 156.5,69.5 Z"/></g>
<g><path style="opacity:0.631" fill="#797979" d="M 231.5,68.5 C 229.574,70.2927 227.241,71.2927 224.5,71.5C 226.32,69.5516 228.654,68.5516 231.5,68.5 Z"/></g>
<g><path style="opacity:0.631" fill="#656364" d="M 274.5,68.5 C 277.346,68.5516 279.68,69.5516 281.5,71.5C 278.759,71.2927 276.426,70.2927 274.5,68.5 Z"/></g>
<g><path style="opacity:1" fill="#6f6f6f" d="M 365.5,69.5 C 365.56,68.9569 365.893,68.6236 366.5,68.5C 367.829,93.9968 367.829,119.33 366.5,144.5C 366.831,119.328 366.498,94.3278 365.5,69.5 Z"/></g>
<g><path style="opacity:0.671" fill="#81c8a0" d="M 89.5,71.5 C 88.4613,73.5311 86.7946,74.8645 84.5,75.5C 85.5846,73.4131 87.2512,72.0798 89.5,71.5 Z"/></g>
<g><path style="opacity:0.949" fill="#605f5f" d="M 160.5,71.5 C 163.785,71.9281 166.785,72.9281 169.5,74.5C 166.008,74.554 163.008,73.554 160.5,71.5 Z"/></g>
<g><path style="opacity:0.8" fill="#60b984" d="M 38.5,51.5 C 37.9747,56.6527 36.8081,61.6527 35,66.5C 34.3255,73.5282 34.4921,80.5282 35.5,87.5C 34.7784,87.0825 34.2784,86.4158 34,85.5C 33.3333,78.1667 33.3333,70.8333 34,63.5C 35.2099,59.2767 36.7099,55.2767 38.5,51.5 Z"/></g>
<g><path style="opacity:0.4" fill="#7dcba1" d="M 113.5,67.5 C 113.06,71.2515 111.393,74.2515 108.5,76.5C 108.351,75.448 108.517,74.448 109,73.5C 110.594,71.4736 112.094,69.4736 113.5,67.5 Z"/></g>
<g><path style="opacity:0.937" fill="#737172" d="M 345.5,71.5 C 341.693,74.2071 337.36,75.5404 332.5,75.5C 336.617,73.7965 340.951,72.4632 345.5,71.5 Z"/></g>
<g><path style="opacity:0.533" fill="#6b6b6b" d="M 173.5,75.5 C 177.425,75.4299 181.091,76.0966 184.5,77.5C 180.511,77.8836 176.845,77.217 173.5,75.5 Z"/></g>
<g><path style="opacity:0.816" fill="#646464" d="M 215.5,74.5 C 210.894,76.8758 205.894,77.8758 200.5,77.5C 205.273,75.9783 210.273,74.9783 215.5,74.5 Z"/></g>
<g><path style="opacity:1" fill="#6a6a6a" d="M 295.5,75.5 C 299.078,75.5488 302.411,76.2154 305.5,77.5C 302.813,77.6641 300.146,77.4974 297.5,77C 296.584,76.7216 295.918,76.2216 295.5,75.5 Z"/></g>
<g><path style="opacity:0.722" fill="#636363" d="M 331.5,75.5 C 331.082,76.2216 330.416,76.7216 329.5,77C 326.854,77.4974 324.187,77.6641 321.5,77.5C 324.589,76.2154 327.922,75.5488 331.5,75.5 Z"/></g>
<g><path style="opacity:0.839" fill="#6fc197" d="M 84.5,75.5 C 81.8333,78.8333 78.8333,81.8333 75.5,84.5C 77.5,80.5 80.5,77.5 84.5,75.5 Z"/></g>
<g><path style="opacity:0.973" fill="#71c094" d="M 108.5,76.5 C 107.25,80.408 104.917,83.408 101.5,85.5C 103.205,82.9584 104.705,80.2917 106,77.5C 106.671,76.7476 107.504,76.4142 108.5,76.5 Z"/></g>
<g><path style="opacity:1" fill="#cbcbcb" d="M 262.5,103.5 C 262.5,100.167 262.5,96.8333 262.5,93.5C 251.5,93.5 240.5,93.5 229.5,93.5C 229.5,94.5 229.5,95.5 229.5,96.5C 228.566,95.4324 228.232,94.099 228.5,92.5C 240.167,92.5 251.833,92.5 263.5,92.5C 263.815,96.3714 263.482,100.038 262.5,103.5 Z"/></g>
<g><path style="opacity:1" fill="#101010" d="M 316.5,94.5 C 318.265,95.4614 320.265,95.7947 322.5,95.5C 322.5,98.8333 322.5,102.167 322.5,105.5C 321.5,105.5 320.5,105.5 319.5,105.5C 314.551,96.5692 308.051,95.2359 300,101.5C 295.225,110.721 295.558,119.721 301,128.5C 301.903,129.701 303.069,130.535 304.5,131C 307.833,131.667 311.167,131.667 314.5,131C 317.52,128.999 320.52,127.332 323.5,126C 324.167,126.667 324.833,127.333 325.5,128C 314.531,140.041 303.031,140.541 291,129.5C 282.435,113.202 286.268,101.035 302.5,93C 307.331,92.222 311.997,92.722 316.5,94.5 Z"/></g>
<g><path style="opacity:1" fill="#121212" d="M 194.5,125.5 C 194.5,128.833 194.5,132.167 194.5,135.5C 183.167,135.5 171.833,135.5 160.5,135.5C 160.461,133.641 161.294,132.308 163,131.5C 163.667,120.5 163.667,109.5 163,98.5C 161.117,97.3474 160.284,95.6807 160.5,93.5C 165.833,93.5 171.167,93.5 176.5,93.5C 176.716,95.6807 175.883,97.3474 174,98.5C 173.5,109.495 173.333,120.495 173.5,131.5C 177.846,131.666 182.179,131.499 186.5,131C 188.605,129.807 190.272,128.14 191.5,126C 192.448,125.517 193.448,125.351 194.5,125.5 Z"/></g>
<g><path style="opacity:1" fill="#0e0e0e" d="M 262.5,103.5 C 259.033,103.554 256.366,102.054 254.5,99C 250.179,98.501 245.846,98.3343 241.5,98.5C 241.5,102.833 241.5,107.167 241.5,111.5C 245.596,112.285 248.93,111.118 251.5,108C 252.448,107.517 253.448,107.351 254.5,107.5C 254.5,111.5 254.5,115.5 254.5,119.5C 253.5,119.5 252.5,119.5 251.5,119.5C 251.047,118.542 250.381,117.708 249.5,117C 246.854,116.503 244.187,116.336 241.5,116.5C 241.334,121.511 241.501,126.511 242,131.5C 242.995,132.066 243.828,132.733 244.5,133.5C 239.604,135.446 234.271,136.113 228.5,135.5C 229.139,133.24 230.306,131.24 232,129.5C 232.667,119.5 232.667,109.5 232,99.5C 230.955,98.6266 230.122,97.6266 229.5,96.5C 229.5,95.5 229.5,94.5 229.5,93.5C 240.5,93.5 251.5,93.5 262.5,93.5C 262.5,96.8333 262.5,100.167 262.5,103.5 Z"/></g>
<g><path style="opacity:0.984" fill="#72b38c" d="M 31.5,98.5 C 30.2921,97.7659 28.9587,97.4326 27.5,97.5C 27.7373,98.791 27.404,99.791 26.5,100.5C 26.1924,98.076 26.5258,95.7427 27.5,93.5C 28.9527,95.1848 30.286,96.8514 31.5,98.5 Z"/></g>
<g><path style="opacity:1" fill="#484848" d="M 316.5,94.5 C 318.833,94.5 321.167,94.5 323.5,94.5C 323.5,98.5 323.5,102.5 323.5,106.5C 321.901,106.768 320.568,106.434 319.5,105.5C 320.5,105.5 321.5,105.5 322.5,105.5C 322.5,102.167 322.5,98.8333 322.5,95.5C 320.265,95.7947 318.265,95.4614 316.5,94.5 Z"/></g>
<g><path style="opacity:0.569" fill="#81cea1" d="M 36.5,90.5 C 38.2671,92.7916 39.2671,95.4582 39.5,98.5C 37.4152,96.3155 36.4152,93.6489 36.5,90.5 Z"/></g>
<g><path style="opacity:0.6" fill="#72c898" d="M 53.5,90.5 C 53.1564,94.2283 52.4898,97.8949 51.5,101.5C 51.9569,102.298 52.6236,102.631 53.5,102.5C 52.8783,103.627 52.045,104.627 51,105.5C 50.1277,100.112 50.961,95.1119 53.5,90.5 Z"/></g>
<g><path style="opacity:0.824" fill="#75c396" d="M 53.5,72.5 C 54.3171,74.9686 54.8171,77.6353 55,80.5C 55.2321,79.2625 55.7321,78.2625 56.5,77.5C 56.6643,84.2022 56.331,90.8689 55.5,97.5C 56.5,97.5 57.5,97.5 58.5,97.5C 59.0906,98.1515 59.7573,98.8182 60.5,99.5C 59.6744,100.451 59.5078,101.451 60,102.5C 64.0956,98.5424 67.929,94.5424 71.5,90.5C 68.8034,95.7059 65.1367,100.206 60.5,104C 62.1667,104.667 63.8333,104.667 65.5,104C 73.1949,100.32 81.1949,97.4866 89.5,95.5C 80.6241,100.908 70.9575,104.575 60.5,106.5C 58.9589,107.286 57.6256,108.286 56.5,109.5C 56.8664,107.095 57.5331,104.762 58.5,102.5C 58.1667,101.833 57.8333,101.167 57.5,100.5C 56.3777,101.63 55.0443,102.297 53.5,102.5C 53.9528,101.542 54.6195,100.708 55.5,100C 54.572,99.6121 53.9054,98.9454 53.5,98C 54.7321,95.0169 54.7321,92.1836 53.5,89.5C 53.5,83.8333 53.5,78.1667 53.5,72.5 Z"/></g>
<g><path style="opacity:0.373" fill="#88c8a5" d="M 41.5,102.5 C 43.3465,104.03 44.3465,106.03 44.5,108.5C 42.461,107.089 41.461,105.089 41.5,102.5 Z"/></g>
<g><path style="opacity:1" fill="#1da04f" d="M 83.5,122.5 C 82.7629,129.639 80.5963,136.305 77,142.5C 70.8981,150.44 63.7314,157.106 55.5,162.5C 53.5588,162.869 51.7255,163.536 50,164.5C 49.6124,162.924 50.1124,161.591 51.5,160.5C 52.4453,157.212 53.112,153.879 53.5,150.5C 53.9629,147.518 54.2962,144.518 54.5,141.5C 55.9773,138.409 57.6439,135.409 59.5,132.5C 62.2307,130.054 64.2307,127.054 65.5,123.5C 65.8333,122.833 66.1667,122.167 66.5,121.5C 69.0892,120.581 71.0892,118.914 72.5,116.5C 74.7317,114.037 77.3984,112.037 80.5,110.5C 81.7942,109.71 82.9609,108.71 84,107.5C 84.5883,112.528 84.4216,117.528 83.5,122.5 Z"/></g>
<g><path style="opacity:0.98" fill="#71bf95" d="M 83.5,122.5 C 84.4216,117.528 84.5883,112.528 84,107.5C 82.9609,108.71 81.7942,109.71 80.5,110.5C 81.7608,107.901 83.4275,105.568 85.5,103.5C 85.8333,104.5 86.1667,105.5 86.5,106.5C 86.1522,112.104 85.1522,117.437 83.5,122.5 Z"/></g>
<g><path style="opacity:1" fill="#a3a3a3" d="M 254.5,107.5 C 255.485,111.634 255.818,115.968 255.5,120.5C 253.901,120.768 252.568,120.434 251.5,119.5C 252.5,119.5 253.5,119.5 254.5,119.5C 254.5,115.5 254.5,111.5 254.5,107.5 Z"/></g>
<g><path style="opacity:1" fill="#7bc29b" d="M 4.5,110.5 C 3.51836,113.962 3.18503,117.629 3.5,121.5C 2.35159,117.019 2.18492,112.352 3,107.5C 4.03859,108.244 4.53859,109.244 4.5,110.5 Z"/></g>
<g><path style="opacity:1" fill="#22a151" d="M 31.5,98.5 C 34.8577,101.879 37.191,105.879 38.5,110.5C 39.8333,113.167 39.8333,115.833 38.5,118.5C 38.3284,119.492 38.6618,120.158 39.5,120.5C 39.8333,120.5 40.1667,120.5 40.5,120.5C 40.8432,122.483 40.1765,123.817 38.5,124.5C 38.1667,120.5 37.8333,120.5 37.5,124.5C 36.6618,124.842 36.3284,125.508 36.5,126.5C 35.6618,126.842 35.3284,127.508 35.5,128.5C 34.71,129.609 34.21,130.942 34,132.5C 33.4947,139.539 33.4947,146.539 34,153.5C 32.483,151.76 30.983,150.094 29.5,148.5C 28.2101,147.942 27.3768,146.942 27,145.5C 26.5065,147.134 26.3398,148.801 26.5,150.5C 26.4095,153.152 27.0762,155.485 28.5,157.5C 29.7143,159.808 29.7143,162.141 28.5,164.5C 19.2845,158.958 12.6178,151.291 8.5,141.5C 8.29662,134.973 6.62996,128.973 3.5,123.5C 3.5,122.833 3.5,122.167 3.5,121.5C 3.18503,117.629 3.51836,113.962 4.5,110.5C 6.95427,112.103 8.95427,114.103 10.5,116.5C 12.5,119.167 14.8333,121.5 17.5,123.5C 19.4331,124.642 20.9331,126.308 22,128.5C 21.6827,118.806 23.1827,109.472 26.5,100.5C 27.404,99.791 27.7373,98.791 27.5,97.5C 28.9587,97.4326 30.2921,97.7659 31.5,98.5 Z"/></g>
<g><path style="opacity:0.18" fill="#96d9b6" d="M 38.5,110.5 C 39.9851,112.249 40.9851,114.249 41.5,116.5C 41.5674,117.959 41.2341,119.292 40.5,120.5C 40.1667,120.5 39.8333,120.5 39.5,120.5C 39.6716,119.508 39.3382,118.842 38.5,118.5C 39.8333,115.833 39.8333,113.167 38.5,110.5 Z"/></g>
<g><path style="opacity:0.2" fill="#89d2aa" d="M 10.5,116.5 C 13.8333,117.833 16.1667,120.167 17.5,123.5C 14.8333,121.5 12.5,119.167 10.5,116.5 Z"/></g>
<g><path style="opacity:0.898" fill="#8fd6ac" d="M 72.5,116.5 C 71.0892,118.914 69.0892,120.581 66.5,121.5C 67.9108,119.086 69.9108,117.419 72.5,116.5 Z"/></g>
<g><path style="opacity:0.718" fill="#78c79b" d="M 65.5,123.5 C 64.2307,127.054 62.2307,130.054 59.5,132.5C 60.37,129.622 61.7033,126.955 63.5,124.5C 63.9569,123.702 64.6236,123.369 65.5,123.5 Z"/></g>
<g><path style="opacity:1" fill="#111111" d="M 209.5,127.5 C 215.643,128.026 216.976,130.86 213.5,136C 208.545,137.376 206.379,135.542 207,130.5C 207.698,129.309 208.531,128.309 209.5,127.5 Z"/></g>
<g><path style="opacity:1" fill="#181818" d="M 268.5,127.5 C 273.796,127.611 275.796,130.111 274.5,135C 270.088,137.73 267.088,136.73 265.5,132C 266.315,130.357 267.315,128.857 268.5,127.5 Z"/></g>
<g><path style="opacity:1" fill="#131313" d="M 339.5,127.5 C 345.643,128.026 346.976,130.86 343.5,136C 336,136.196 334.667,133.363 339.5,127.5 Z"/></g>
<g><path style="opacity:1" fill="#60b983" d="M 3.5,123.5 C 6.62996,128.973 8.29662,134.973 8.5,141.5C 7.88258,141.389 7.38258,141.056 7,140.5C 5.30298,134.918 4.13632,129.251 3.5,123.5 Z"/></g>
<g><path style="opacity:0.8" fill="#85d5ad" d="M 55.5,133.5 C 55.4249,136.206 55.0916,138.873 54.5,141.5C 54.1667,141.5 53.8333,141.5 53.5,141.5C 53.5651,138.572 54.2318,135.905 55.5,133.5 Z"/></g>
<g><path style="opacity:1" fill="#424141" d="M 194.5,125.5 C 195.482,128.962 195.815,132.629 195.5,136.5C 183.655,136.828 171.988,136.495 160.5,135.5C 171.833,135.5 183.167,135.5 194.5,135.5C 194.5,132.167 194.5,128.833 194.5,125.5 Z"/></g>
<g><path style="opacity:1" fill="#403f3f" d="M 244.5,133.5 C 245.404,134.209 245.737,135.209 245.5,136.5C 239.642,136.822 233.975,136.489 228.5,135.5C 234.271,136.113 239.604,135.446 244.5,133.5 Z"/></g>
<g><path style="opacity:0.8" fill="#8cd5a8" d="M 22.5,132.5 C 24.4454,135.393 25.7787,138.727 26.5,142.5C 24.2345,139.738 22.9011,136.405 22.5,132.5 Z"/></g>
<g><path style="opacity:1" fill="#68ba8a" d="M 37.5,124.5 C 37.8333,124.5 38.1667,124.5 38.5,124.5C 37.1667,135.5 37.1667,146.5 38.5,157.5C 36.8156,152.612 35.8156,147.445 35.5,142C 36.3031,136.863 36.6364,131.697 36.5,126.5C 37.3382,126.158 37.6716,125.492 37.5,124.5 Z"/></g>
<g><path style="opacity:0.024" fill="#7bcba0" d="M 53.5,141.5 C 53.4484,144.346 52.4484,146.68 50.5,148.5C 50.7073,145.759 51.7073,143.426 53.5,141.5 Z"/></g>
<g><path style="opacity:1" fill="#575656" d="M 374.5,52.5 C 374.5,135.5 374.5,218.5 374.5,301.5C 373.667,219.334 373.167,137.001 373,54.5C 371.242,56.7655 369.075,58.4322 366.5,59.5C 368.523,56.4797 371.19,54.1464 374.5,52.5 Z"/></g>
<g><path style="opacity:1" fill="#74bd96" d="M 35.5,128.5 C 34.7437,137.725 34.4103,146.892 34.5,156C 36.7877,159.707 38.7877,163.54 40.5,167.5C 37.7113,166.081 36.0447,163.748 35.5,160.5C 35.1667,161.167 34.8333,161.833 34.5,162.5C 33.5686,169.796 33.2353,177.129 33.5,184.5C 32.2212,175.485 32.2212,166.318 33.5,157C 31.9706,154.29 30.6372,151.457 29.5,148.5C 30.983,150.094 32.483,151.76 34,153.5C 33.4947,146.539 33.4947,139.539 34,132.5C 34.21,130.942 34.71,129.609 35.5,128.5 Z"/></g>
<g><path style="opacity:1" fill="#1a378d" d="M 185.5,152.5 C 185.5,216.167 185.5,279.833 185.5,343.5C 180.967,343.696 176.801,342.696 173,340.5C 176.985,315.881 172.485,293.215 159.5,272.5C 159.333,232.832 159.5,193.165 160,153.5C 168.415,152.517 176.915,152.183 185.5,152.5 Z"/></g>
<g><path style="opacity:1" fill="#1a378d" d="M 214.5,152.5 C 222.833,152.5 231.167,152.5 239.5,152.5C 239.667,221.167 239.5,289.834 239,358.5C 238.329,359.252 237.496,359.586 236.5,359.5C 229.079,355.797 221.412,352.463 213.5,349.5C 213.17,283.762 213.504,218.096 214.5,152.5 Z"/></g>
<g><path style="opacity:1" fill="#1a378c" d="M 267.5,152.5 C 276.167,152.5 284.833,152.5 293.5,152.5C 293.833,218.17 293.5,283.837 292.5,349.5C 284.431,351.852 276.764,355.185 269.5,359.5C 267.503,290.841 266.837,221.841 267.5,152.5 Z"/></g>
<g><path style="opacity:1" fill="#1a378b" d="M 320.5,152.5 C 329.5,152.5 338.5,152.5 347.5,152.5C 347.667,212.834 347.5,273.168 347,333.5C 339.209,339.474 330.375,342.808 320.5,343.5C 320.5,279.833 320.5,216.167 320.5,152.5 Z"/></g>
<g><path style="opacity:0.361" fill="#8ad3ab" d="M 26.5,150.5 C 28.1628,152.438 28.8294,154.772 28.5,157.5C 27.0762,155.485 26.4095,153.152 26.5,150.5 Z"/></g>
<g><path style="opacity:0.639" fill="#89d8ad" d="M 48.5,151.5 C 47.6743,154.485 46.341,157.151 44.5,159.5C 44.7936,156.246 46.127,153.579 48.5,151.5 Z"/></g>
<g><path style="opacity:1" fill="#20356d" d="M 267.5,152.5 C 266.837,221.841 267.503,290.841 269.5,359.5C 268.791,360.404 267.791,360.737 266.5,360.5C 266.167,290.998 266.501,221.665 267.5,152.5 Z"/></g>
<g><path style="opacity:1" fill="#139d4b" d="M 70.5,167.5 C 70.7931,170.754 70.1264,173.754 68.5,176.5C 66.7073,178.426 65.7073,180.759 65.5,183.5C 63.9925,185.181 62.9925,187.181 62.5,189.5C 61.1497,190.483 60.1497,191.816 59.5,193.5C 58.9348,191.456 57.9348,189.79 56.5,188.5C 55.3263,187.486 54.6596,186.153 54.5,184.5C 52.4602,180.974 52.1268,177.308 53.5,173.5C 53.3284,172.508 53.6618,171.842 54.5,171.5C 59.827,166.339 64.9937,161.006 70,155.5C 70.4988,159.486 70.6655,163.486 70.5,167.5 Z"/></g>
<g><path style="opacity:1" fill="#1b2f67" d="M 214.5,152.5 C 213.504,218.096 213.17,283.762 213.5,349.5C 212.833,316.835 212.5,284.002 212.5,251C 212.5,217.826 213.167,184.993 214.5,152.5 Z"/></g>
<g><path style="opacity:1" fill="#111a2d" d="M 239.5,152.5 C 240.665,221.665 240.832,290.999 240,360.5C 238.421,361.8 237.255,361.466 236.5,359.5C 237.496,359.586 238.329,359.252 239,358.5C 239.5,289.834 239.667,221.167 239.5,152.5 Z"/></g>
<g><path style="opacity:1" fill="#1a264c" d="M 185.5,152.5 C 176.915,152.183 168.415,152.517 160,153.5C 159.5,193.165 159.333,232.832 159.5,272.5C 158.335,232.669 158.169,192.669 159,152.5C 167.932,151.172 176.765,151.172 185.5,152.5 Z"/></g>
<g><path style="opacity:1" fill="#119e4a" d="M 40.5,167.5 C 43.2411,169.975 45.2411,172.975 46.5,176.5C 47.3403,178.853 48.6736,180.853 50.5,182.5C 51.1667,182.833 51.8333,183.167 52.5,183.5C 54.2965,187.315 55.6298,191.315 56.5,195.5C 57.7784,206.826 57.7784,218.159 56.5,229.5C 56.5,229.833 56.5,230.167 56.5,230.5C 55.2154,233.589 54.5488,236.922 54.5,240.5C 54.1667,240.5 53.8333,240.5 53.5,240.5C 52.2719,239.694 51.2719,238.694 50.5,237.5C 48.5745,231.975 45.9078,226.975 42.5,222.5C 42.1667,222.5 41.8333,222.5 41.5,222.5C 41.7709,220.62 41.1042,219.287 39.5,218.5C 39.6716,217.508 39.3382,216.842 38.5,216.5C 38.5,215.5 38.5,214.5 38.5,213.5C 38.7406,211.102 38.0739,209.102 36.5,207.5C 36.7845,205.585 36.4511,203.919 35.5,202.5C 35.5,202.167 35.5,201.833 35.5,201.5C 35.3755,196.951 34.7089,192.618 33.5,188.5C 33.5,187.167 33.5,185.833 33.5,184.5C 33.2353,177.129 33.5686,169.796 34.5,162.5C 34.8333,161.833 35.1667,161.167 35.5,160.5C 36.0447,163.748 37.7113,166.081 40.5,167.5 Z"/></g>
<g><path style="opacity:1" fill="#6ab68b" d="M 70.5,167.5 C 70.6655,163.486 70.4988,159.486 70,155.5C 64.9937,161.006 59.827,166.339 54.5,171.5C 55.0476,169.606 56.0476,167.94 57.5,166.5C 61.8333,162.167 66.1667,157.833 70.5,153.5C 71.8124,158.318 71.8124,162.985 70.5,167.5 Z"/></g>
<g><path style="opacity:0.435" fill="#81ba9a" d="M 86.5,165.5 C 85.609,164.89 84.609,164.557 83.5,164.5C 83.3832,162.516 84.0499,160.85 85.5,159.5C 86.4656,161.396 86.7989,163.396 86.5,165.5 Z"/></g>
<g><path style="opacity:0.141" fill="#79c49d" d="M 44.5,159.5 C 44.4348,161.696 43.7681,163.696 42.5,165.5C 41.7025,165.043 41.3691,164.376 41.5,163.5C 42.5,162.167 43.5,160.833 44.5,159.5 Z"/></g>
<g><path style="opacity:1" fill="#65b584" d="M 53.5,150.5 C 53.112,153.879 52.4453,157.212 51.5,160.5C 50.1124,161.591 49.6124,162.924 50,164.5C 51.7255,163.536 53.5588,162.869 55.5,162.5C 52.8292,165.161 49.8292,167.494 46.5,169.5C 46.1667,169 45.8333,168.5 45.5,168C 48.3362,162.167 51.0028,156.333 53.5,150.5 Z"/></g>
<g><path style="opacity:1" fill="#179f4c" d="M 83.5,164.5 C 84.609,164.557 85.609,164.89 86.5,165.5C 87.9714,176.588 87.6381,187.588 85.5,198.5C 83.9261,200.102 83.2594,202.102 83.5,204.5C 83.539,207.089 82.539,209.089 80.5,210.5C 78.231,212.242 76.8976,214.576 76.5,217.5C 76.573,219.027 75.9063,220.027 74.5,220.5C 72.1782,221.802 70.8449,223.802 70.5,226.5C 70.2178,227.778 69.5511,228.778 68.5,229.5C 65.5222,230.478 63.5222,232.478 62.5,235.5C 61.2058,236.29 60.0391,237.29 59,238.5C 58.8306,233.839 58.9973,229.172 59.5,224.5C 59.5,220.833 59.5,217.167 59.5,213.5C 60.4682,211.393 60.8016,209.059 60.5,206.5C 60.3354,203.482 60.502,200.482 61,197.5C 61.2784,196.584 61.7784,195.918 62.5,195.5C 64.0652,193.491 65.0652,191.157 65.5,188.5C 65.5,187.833 65.5,187.167 65.5,186.5C 66.404,185.791 66.7373,184.791 66.5,183.5C 67.1667,183.5 67.8333,183.5 68.5,183.5C 71.2003,181.766 73.2003,179.432 74.5,176.5C 78.4707,173.224 81.4707,169.224 83.5,164.5 Z"/></g>
<g><path style="opacity:1" fill="#74be95" d="M 18.5,176.5 C 15.4765,175.572 12.6432,174.238 10,172.5C 8.97008,172.836 8.47008,173.503 8.5,174.5C 6.89578,173.713 6.22911,172.38 6.5,170.5C 11.379,170.872 15.379,172.872 18.5,176.5 Z"/></g>
<g><path style="opacity:1" fill="#20a150" d="M 18.5,176.5 C 19.8333,178.5 21.5,180.167 23.5,181.5C 28.1952,186.239 31.1952,191.905 32.5,198.5C 32.4021,200.553 33.0687,202.22 34.5,203.5C 34.5,203.833 34.5,204.167 34.5,204.5C 34.2322,206.099 34.5655,207.432 35.5,208.5C 35.5,208.833 35.5,209.167 35.5,209.5C 35.446,212.992 36.446,215.992 38.5,218.5C 38.8333,218.5 39.1667,218.5 39.5,218.5C 39.6596,220.153 40.3263,221.486 41.5,222.5C 41.2627,223.791 41.596,224.791 42.5,225.5C 42.5,226.167 42.8333,226.5 43.5,226.5C 43.3284,227.492 43.6618,228.158 44.5,228.5C 44.5,229.167 44.5,229.833 44.5,230.5C 44.5,231.833 45.1667,232.5 46.5,232.5C 46.5,232.833 46.5,233.167 46.5,233.5C 46.5,234.167 46.8333,234.5 47.5,234.5C 47.5,234.833 47.5,235.167 47.5,235.5C 47.8333,236.5 48.5,237.167 49.5,237.5C 49.5,237.833 49.5,238.167 49.5,238.5C 48.0011,239.494 46.3344,239.494 44.5,238.5C 39.4587,235.972 34.7921,232.805 30.5,229C 27.5498,226.257 25.2164,223.09 23.5,219.5C 22.2965,215.643 20.2965,212.31 17.5,209.5C 13.9017,201.673 11.9017,193.34 11.5,184.5C 11.196,181.478 10.696,178.478 10,175.5C 9.61742,174.944 9.11742,174.611 8.5,174.5C 8.47008,173.503 8.97008,172.836 10,172.5C 12.6432,174.238 15.4765,175.572 18.5,176.5 Z"/></g>
<g><path style="opacity:0.941" fill="#77c099" d="M 83.5,164.5 C 81.4707,169.224 78.4707,173.224 74.5,176.5C 77.016,172.134 80.016,168.134 83.5,164.5 Z"/></g>
<g><path style="opacity:0.78" fill="#7bc79e" d="M 46.5,176.5 C 48.1942,177.527 49.5275,178.861 50.5,180.5C 50.5,181.167 50.5,181.833 50.5,182.5C 48.6736,180.853 47.3403,178.853 46.5,176.5 Z"/></g>
<g><path style="opacity:1" fill="#7dc79b" d="M 53.5,173.5 C 52.1268,177.308 52.4602,180.974 54.5,184.5C 53.8333,184.167 53.1667,183.833 52.5,183.5C 52.573,181.973 51.9063,180.973 50.5,180.5C 50.5516,177.654 51.5516,175.32 53.5,173.5 Z"/></g>
<g><path style="opacity:0.29" fill="#72c597" d="M 8.5,174.5 C 9.11742,174.611 9.61742,174.944 10,175.5C 10.696,178.478 11.196,181.478 11.5,184.5C 9.59025,181.548 8.59025,178.214 8.5,174.5 Z"/></g>
<g><path style="opacity:0.788" fill="#9fe8c2" d="M 18.5,176.5 C 21.1667,177.167 22.8333,178.833 23.5,181.5C 21.5,180.167 19.8333,178.5 18.5,176.5 Z"/></g>
<g><path style="opacity:0.11" fill="#7dcba4" d="M 68.5,176.5 C 68.233,178.965 67.5664,181.299 66.5,183.5C 66.1667,183.5 65.8333,183.5 65.5,183.5C 65.7073,180.759 66.7073,178.426 68.5,176.5 Z"/></g>
<g><path style="opacity:0.89" fill="#82cca2" d="M 74.5,176.5 C 73.2003,179.432 71.2003,181.766 68.5,183.5C 69.412,181.405 70.5787,179.405 72,177.5C 72.6708,176.748 73.5041,176.414 74.5,176.5 Z"/></g>
<g><path style="opacity:0.902" fill="#75c299" d="M 65.5,183.5 C 65.5,184.5 65.5,185.5 65.5,186.5C 64.1667,187.167 64.1667,187.833 65.5,188.5C 65.0652,191.157 64.0652,193.491 62.5,195.5C 62.5408,191.757 61.8741,191.59 60.5,195C 59.5509,195.617 58.7175,195.451 58,194.5C 57.187,192.564 56.687,190.564 56.5,188.5C 57.9348,189.79 58.9348,191.456 59.5,193.5C 60.1497,191.816 61.1497,190.483 62.5,189.5C 62.9925,187.181 63.9925,185.181 65.5,183.5 Z"/></g>
<g><path style="opacity:0.541" fill="#88d4aa" d="M 85.5,198.5 C 85.7406,200.898 85.0739,202.898 83.5,204.5C 83.2594,202.102 83.9261,200.102 85.5,198.5 Z"/></g>
<g><path style="opacity:0.463" fill="#8cd1aa" d="M 33.5,188.5 C 34.7089,192.618 35.3755,196.951 35.5,201.5C 34.6618,201.842 34.3284,202.508 34.5,203.5C 33.0687,202.22 32.4021,200.553 32.5,198.5C 33.2216,198.918 33.7216,199.584 34,200.5C 33.7326,196.559 33.5659,192.559 33.5,188.5 Z"/></g>
<g><path style="opacity:0.4" fill="#8acdaa" d="M 35.5,202.5 C 36.4511,203.919 36.7845,205.585 36.5,207.5C 35.8333,207.5 35.5,207.833 35.5,208.5C 34.5655,207.432 34.2322,206.099 34.5,204.5C 35.3382,204.158 35.6716,203.492 35.5,202.5 Z"/></g>
<g><path style="opacity:0.4" fill="#b4ebcd" d="M 58.5,205.5 C 59.1667,205.833 59.8333,206.167 60.5,206.5C 60.8016,209.059 60.4682,211.393 59.5,213.5C 59.1667,213.5 58.8333,213.5 58.5,213.5C 58.5,210.833 58.5,208.167 58.5,205.5 Z"/></g>
<g><path style="opacity:0.6" fill="#80c9a0" d="M 36.5,207.5 C 38.0739,209.102 38.7406,211.102 38.5,213.5C 37.1667,214.5 37.1667,215.5 38.5,216.5C 38.5,217.167 38.5,217.833 38.5,218.5C 36.446,215.992 35.446,212.992 35.5,209.5C 36.3382,209.158 36.6716,208.492 36.5,207.5 Z"/></g>
<g><path style="opacity:0.11" fill="#82cca3" d="M 80.5,210.5 C 80.4452,213.614 79.1119,215.948 76.5,217.5C 76.8976,214.576 78.231,212.242 80.5,210.5 Z"/></g>
<g><path style="opacity:0.545" fill="#68bb8b" d="M 17.5,209.5 C 20.2965,212.31 22.2965,215.643 23.5,219.5C 20.335,216.972 18.335,213.639 17.5,209.5 Z"/></g>
<g><path style="opacity:0.431" fill="#81caa1" d="M 74.5,220.5 C 73.6597,222.853 72.3264,224.853 70.5,226.5C 70.8449,223.802 72.1782,221.802 74.5,220.5 Z"/></g>
<g><path style="opacity:1" fill="#74c393" d="M 42.5,222.5 C 45.9078,226.975 48.5745,231.975 50.5,237.5C 50.1667,237.5 49.8333,237.5 49.5,237.5C 48.5,237.167 47.8333,236.5 47.5,235.5C 48.8333,235.167 48.8333,234.833 47.5,234.5C 46.8333,234.5 46.5,234.167 46.5,233.5C 47.8333,233.167 47.8333,232.833 46.5,232.5C 45.1667,232.5 44.5,231.833 44.5,230.5C 45.8333,229.833 45.8333,229.167 44.5,228.5C 44.6716,227.508 44.3382,226.842 43.5,226.5C 42.8333,226.5 42.5,226.167 42.5,225.5C 42.5,224.5 42.5,223.5 42.5,222.5 Z"/></g>
<g><path style="opacity:0.239" fill="#85d2a8" d="M 68.5,229.5 C 66.785,231.882 64.785,233.882 62.5,235.5C 63.5222,232.478 65.5222,230.478 68.5,229.5 Z"/></g>
<g><path style="opacity:0.2" fill="#757374" d="M 78.5,234.5 C 81.1459,233.836 83.9792,233.502 87,233.5C 91.7584,233.366 96.2584,234.032 100.5,235.5C 93.1781,234.962 85.8447,234.629 78.5,234.5 Z"/></g>
<g><path style="opacity:1" fill="#63b285" d="M 56.5,195.5 C 57.2216,195.918 57.7216,196.584 58,197.5C 58.4974,200.146 58.6641,202.813 58.5,205.5C 58.5,208.167 58.5,210.833 58.5,213.5C 58.185,217.371 58.5184,221.038 59.5,224.5C 58.9973,229.172 58.8306,233.839 59,238.5C 60.0391,237.29 61.2058,236.29 62.5,235.5C 62.8417,236.338 63.5084,236.672 64.5,236.5C 62.3826,238.655 59.716,239.655 56.5,239.5C 56.1667,236.833 55.8333,236.833 55.5,239.5C 55.5,240.167 55.1667,240.5 54.5,240.5C 54.5488,236.922 55.2154,233.589 56.5,230.5C 57.337,236.474 57.337,236.141 56.5,229.5C 57.7784,218.159 57.7784,206.826 56.5,195.5 Z"/></g>
<g><path style="opacity:0.839" fill="#636263" d="M 107.5,236.5 C 109.898,236.259 111.898,236.926 113.5,238.5C 111.102,238.741 109.102,238.074 107.5,236.5 Z"/></g>
<g><path style="opacity:0.196" fill="#888788" d="M 117.5,239.5 C 119.38,239.229 120.713,239.896 121.5,241.5C 119.847,241.34 118.514,240.674 117.5,239.5 Z"/></g>
<g><path style="opacity:0.6" fill="#79b695" d="M 50.5,237.5 C 51.2719,238.694 52.2719,239.694 53.5,240.5C 52.3285,241.345 50.9952,242.011 49.5,242.5C 47.8333,241.167 46.1667,239.833 44.5,238.5C 46.3344,239.494 48.0011,239.494 49.5,238.5C 50.1667,238.5 50.5,238.167 50.5,237.5 Z"/></g>
<g><path style="opacity:1" fill="#f3f3f3" d="M 61.5,240.5 C 62.675,240.281 63.675,240.614 64.5,241.5C 62.4164,245.336 60.083,249.003 57.5,252.5C 47.0862,257.04 38.0862,263.54 30.5,272C 25.885,273.655 21.2183,274.655 16.5,275C 27.9312,258.722 42.9312,247.222 61.5,240.5 Z"/></g>
<g><path style="opacity:1" fill="#f3f3f3" d="M 109.5,240.5 C 129.583,246.37 145.583,257.87 157.5,275C 152.961,275.732 148.628,275.066 144.5,273C 136.56,265.03 127.56,258.53 117.5,253.5C 114.059,249.612 111.392,245.279 109.5,240.5 Z"/></g>
<g><path style="opacity:0.792" fill="#7b7b7b" d="M 121.5,241.5 C 123.553,241.402 125.22,242.069 126.5,243.5C 124.447,243.598 122.78,242.931 121.5,241.5 Z"/></g>
<g><path style="opacity:0.753" fill="#777777" d="M 43.5,245.5 C 43.0269,246.906 42.0269,247.573 40.5,247.5C 40.9731,246.094 41.9731,245.427 43.5,245.5 Z"/></g>
<g><path style="opacity:0.188" fill="#868686" d="M 40.5,247.5 C 39.5637,248.974 38.2303,249.974 36.5,250.5C 37.0347,248.554 38.368,247.554 40.5,247.5 Z"/></g>
<g><path style="opacity:1" fill="#fbfbfb" d="M 56.5,255.5 C 61.5687,255.85 66.5687,256.683 71.5,258C 76.0854,259.795 80.7521,261.295 85.5,262.5C 85.6665,272.172 85.4998,281.839 85,291.5C 75.9005,298.282 66.5671,304.615 57,310.5C 48.6116,307.445 40.1116,304.778 31.5,302.5C 30.0842,293.147 30.2509,283.813 32,274.5C 39.2416,266.817 47.4083,260.483 56.5,255.5 Z"/></g>
<g><path style="opacity:1" fill="#fbfbfb" d="M 108.5,255.5 C 113.618,254.889 118.285,256.056 122.5,259C 129.576,263.406 136.076,268.572 142,274.5C 142.5,283.827 142.666,293.161 142.5,302.5C 134.759,304.85 127.092,307.35 119.5,310C 117.5,310.667 115.5,310.667 113.5,310C 105.333,303.833 97.1667,297.667 89,291.5C 88.1679,281.816 88.3345,272.149 89.5,262.5C 95.866,259.937 102.199,257.604 108.5,255.5 Z"/></g>
<g><path style="opacity:0.957" fill="#505050" d="M 25.5,259.5 C 23.5698,263.1 20.9031,266.1 17.5,268.5C 19.4302,264.9 22.0969,261.9 25.5,259.5 Z"/></g>
<g><path style="opacity:0.533" fill="#767575" d="M 8.5,283.5 C 8.57298,285.027 7.90632,286.027 6.5,286.5C 6.42702,284.973 7.09368,283.973 8.5,283.5 Z"/></g>
<g><path style="opacity:0.2" fill="#6b6a6a" d="M 6.5,286.5 C 6.5848,289.649 5.5848,292.316 3.5,294.5C 3.98023,291.557 4.98023,288.89 6.5,286.5 Z"/></g>
<g><path style="opacity:1" fill="#fbfbfb" d="M 29.5,305.5 C 39.2061,307.791 48.7061,310.791 58,314.5C 61.1705,324.678 64.3372,334.844 67.5,345C 62.4168,352.493 57.0835,359.827 51.5,367C 42.1596,367.056 33.493,364.556 25.5,359.5C 20.0565,349.838 16.3898,339.505 14.5,328.5C 19.0969,320.57 24.0969,312.903 29.5,305.5 Z"/></g>
<g><path style="opacity:1" fill="#fbfbfb" d="M 140.5,305.5 C 143.614,306.091 146.114,307.758 148,310.5C 151.581,315.328 154.915,320.328 158,325.5C 157.823,338.047 154.323,349.547 147.5,360C 141.211,362.32 134.878,364.653 128.5,367C 126.167,367.667 123.833,367.667 121.5,367C 116.789,360.411 111.955,353.911 107,347.5C 106.333,345.5 106.333,343.5 107,341.5C 110.152,332.56 113.152,323.56 116,314.5C 124.171,311.259 132.338,308.259 140.5,305.5 Z"/></g>
<g><path style="opacity:0.8" fill="#787777" d="M 373.5,306.5 C 373.483,310.534 372.483,314.201 370.5,317.5C 370.742,313.521 371.742,309.854 373.5,306.5 Z"/></g>
<g><path style="opacity:1" fill="#f4f4f4" d="M 2.5,317.5 C 6.16516,320.333 9.33183,323.666 12,327.5C 13.4777,339.456 16.9777,350.789 22.5,361.5C 21.7905,365.804 21.2905,370.137 21,374.5C 8.13694,357.743 1.97027,338.743 2.5,317.5 Z"/></g>
<g><path style="opacity:1" fill="#f3f3f3" d="M 170.5,317.5 C 172.077,338.615 166.243,357.615 153,374.5C 151.437,369.282 151.104,363.949 152,358.5C 157.027,348.729 160.36,338.396 162,327.5C 164.669,324 167.502,320.667 170.5,317.5 Z"/></g>
<g><path style="opacity:0.016" fill="#b5b5b5" d="M 370.5,317.5 C 370.771,319.38 370.104,320.713 368.5,321.5C 368.66,319.847 369.326,318.514 370.5,317.5 Z"/></g>
<g><path style="opacity:1" fill="#454545" d="M 0.5,304.5 C 1.12395,304.917 1.45728,305.584 1.5,306.5C 0.890071,314.983 0.223404,323.316 -0.5,331.5C -0.5,323.5 -0.5,315.5 -0.5,307.5C 0.403972,306.791 0.737305,305.791 0.5,304.5 Z"/></g>
<g><path style="opacity:0.518" fill="#7e7d7e" d="M 368.5,321.5 C 368.155,324.198 366.822,326.198 364.5,327.5C 365.34,325.147 366.674,323.147 368.5,321.5 Z"/></g>
<g><path style="opacity:0.192" fill="#767576" d="M 364.5,328.5 C 363.167,330.5 361.5,332.167 359.5,333.5C 360.167,330.833 361.833,329.167 364.5,328.5 Z"/></g>
<g><path style="opacity:0.188" fill="#757474" d="M 359.5,333.5 C 358.738,335.262 357.404,336.262 355.5,336.5C 356.262,334.738 357.596,333.738 359.5,333.5 Z"/></g>
<g><path style="opacity:0.098" fill="#a2a0a1" d="M 353.5,338.5 C 353.027,339.906 352.027,340.573 350.5,340.5C 350.973,339.094 351.973,338.427 353.5,338.5 Z"/></g>
<g><path style="opacity:1" fill="#636363" d="M 0.5,337.5 C 2.16276,339.438 2.82943,341.772 2.5,344.5C 0.837238,342.562 0.170572,340.228 0.5,337.5 Z"/></g>
<g><path style="opacity:0.29" fill="#929292" d="M 350.5,340.5 C 349.713,342.104 348.38,342.771 346.5,342.5C 347.514,341.326 348.847,340.66 350.5,340.5 Z"/></g>
<g><path style="opacity:0.333" fill="#7a7a7a" d="M 346.5,342.5 C 345.089,344.539 343.089,345.539 340.5,345.5C 342.181,343.992 344.181,342.992 346.5,342.5 Z"/></g>
<g><path style="opacity:0.216" fill="#838684" d="M 340.5,345.5 C 339.22,346.931 337.553,347.598 335.5,347.5C 336.78,346.069 338.447,345.402 340.5,345.5 Z"/></g>
<g><path style="opacity:1" fill="#fcfcfc" d="M 69.5,347.5 C 80.8382,347.333 92.1716,347.5 103.5,348C 109.083,355.173 114.417,362.507 119.5,370C 115.729,378.443 110.395,385.776 103.5,392C 92.4858,393.943 81.4858,393.943 70.5,392C 63.6856,385.523 58.0189,378.19 53.5,370C 59.0525,362.621 64.3858,355.121 69.5,347.5 Z"/></g>
<g><path style="opacity:1" fill="#757576" d="M 331.5,348.5 C 328.159,350.236 324.492,351.236 320.5,351.5C 320.97,350.307 321.97,349.64 323.5,349.5C 326.14,348.905 328.807,348.572 331.5,348.5 Z"/></g>
<g><path style="opacity:0.698" fill="#808182" d="M 174.5,348.5 C 177.495,348.294 180.162,348.96 182.5,350.5C 179.505,350.706 176.838,350.04 174.5,348.5 Z"/></g>
<g><path style="opacity:0.498" fill="#6f6f6f" d="M 189.5,351.5 C 192.082,351.025 194.082,351.692 195.5,353.5C 193.302,353.125 191.302,352.458 189.5,351.5 Z"/></g>
<g><path style="opacity:1" fill="#828282" d="M 316.5,351.5 C 314.162,353.04 311.495,353.706 308.5,353.5C 310.78,351.777 313.447,351.111 316.5,351.5 Z"/></g>
<g><path style="opacity:0.659" fill="#5d5d5d" d="M 196.5,353.5 C 199.293,352.254 201.96,352.587 204.5,354.5C 201.794,354.425 199.127,354.092 196.5,353.5 Z"/></g>
<g><path style="opacity:1" fill="#129e4b" d="M 168.5,354.5 C 171.339,356.42 174.339,358.087 177.5,359.5C 188.521,365.891 194.188,375.557 194.5,388.5C 194.9,394.829 195.233,401.162 195.5,407.5C 199.308,407.163 202.974,407.663 206.5,409C 207.282,411.74 207.782,414.574 208,417.5C 208.383,416.944 208.883,416.611 209.5,416.5C 209.537,419.702 211.203,421.368 214.5,421.5C 215.492,421.328 216.158,421.662 216.5,422.5C 218.579,424.873 221.246,426.206 224.5,426.5C 225.823,428.686 227.823,430.186 230.5,431C 236.037,433.346 241.703,435.179 247.5,436.5C 250.146,438.253 253.146,439.253 256.5,439.5C 259.146,441.253 262.146,442.253 265.5,442.5C 268.809,444.37 272.475,445.37 276.5,445.5C 276.833,445.5 277.167,445.5 277.5,445.5C 277.611,446.117 277.944,446.617 278.5,447C 282.358,447.81 286.024,447.643 289.5,446.5C 290.167,446.5 290.833,446.5 291.5,446.5C 291.62,447.586 292.287,448.253 293.5,448.5C 299.119,449.825 304.786,450.825 310.5,451.5C 314.806,455.635 319.306,459.635 324,463.5C 324.384,465.197 324.218,466.863 323.5,468.5C 321.324,470.031 318.824,470.697 316,470.5C 308.482,469.909 300.982,469.242 293.5,468.5C 292.602,467.842 291.602,467.176 290.5,466.5C 292.347,462.857 291.347,460.524 287.5,459.5C 285.216,459.025 283.216,458.025 281.5,456.5C 280.089,454.461 278.089,453.461 275.5,453.5C 259.57,448.41 243.903,442.577 228.5,436C 225.243,434.957 221.91,434.457 218.5,434.5C 215.024,433.357 211.358,433.19 207.5,434C 206.944,434.383 206.611,434.883 206.5,435.5C 200.581,437.921 198.248,435.921 199.5,429.5C 203.842,429.739 208.176,430.073 212.5,430.5C 212.912,428.027 211.912,426.694 209.5,426.5C 207.585,426.784 205.919,426.451 204.5,425.5C 202.485,424.076 200.152,423.41 197.5,423.5C 192.705,425.392 187.705,426.392 182.5,426.5C 173.818,427.717 165.152,427.717 156.5,426.5C 152.631,426.149 149.131,424.816 146,422.5C 140.642,419.418 135.808,415.751 131.5,411.5C 130.402,410.603 130.402,409.77 131.5,409C 133.723,408.434 135.723,407.6 137.5,406.5C 142.124,406.237 146.458,405.237 150.5,403.5C 151.167,403.5 151.833,403.5 152.5,403.5C 157.5,403.5 162.5,403.5 167.5,403.5C 168.833,403.167 168.833,402.833 167.5,402.5C 165.914,401.852 164.247,401.352 162.5,401C 158.195,395.555 154.529,389.722 151.5,383.5C 152.187,381.823 152.854,380.156 153.5,378.5C 155.177,376.46 156.844,374.46 158.5,372.5C 160.479,375.146 162.812,377.479 165.5,379.5C 168.474,388.121 172.974,395.788 179,402.5C 175.073,394.645 171.073,386.645 167,378.5C 164.967,373.705 164.134,368.705 164.5,363.5C 165.042,360.088 166.375,357.088 168.5,354.5 Z"/></g>
<g><path style="opacity:0.298" fill="#78c198" d="M 169.5,351.5 C 171.812,354.479 174.479,357.146 177.5,359.5C 174.339,358.087 171.339,356.42 168.5,354.5C 168.263,353.209 168.596,352.209 169.5,351.5 Z"/></g>
<g><path style="opacity:0.102" fill="#797778" d="M 204.5,354.5 C 207.228,354.171 209.562,354.837 211.5,356.5C 208.848,356.59 206.515,355.924 204.5,354.5 Z"/></g>
<g><path style="opacity:0.102" fill="#80807f" d="M 301.5,354.5 C 299.898,356.074 297.898,356.741 295.5,356.5C 296.99,354.72 298.99,354.054 301.5,354.5 Z"/></g>
<g><path style="opacity:0.502" fill="#7b7b7b" d="M 5.5,354.5 C 7.00751,356.181 8.00751,358.181 8.5,360.5C 6.46095,359.089 5.46095,357.089 5.5,354.5 Z"/></g>
<g><path style="opacity:0.345" fill="#878587" d="M 290.5,357.5 C 289.365,359.213 287.698,359.88 285.5,359.5C 286.78,358.069 288.447,357.402 290.5,357.5 Z"/></g>
<g><path style="opacity:0.102" fill="#9b9b9b" d="M 285.5,359.5 C 284.486,360.674 283.153,361.34 281.5,361.5C 282.287,359.896 283.62,359.229 285.5,359.5 Z"/></g>
<g><path style="opacity:0.463" fill="#727272" d="M 8.5,360.5 C 10.0075,362.181 11.0075,364.181 11.5,366.5C 9.46095,365.089 8.46095,363.089 8.5,360.5 Z"/></g>
<g><path style="opacity:0.227" fill="#898989" d="M 223.5,360.5 C 225.153,360.66 226.486,361.326 227.5,362.5C 225.62,362.771 224.287,362.104 223.5,360.5 Z"/></g>
<g><path style="opacity:0.588" fill="#8b8b8b" d="M 229.5,363.5 C 231.027,363.427 232.027,364.094 232.5,365.5C 230.973,365.573 229.973,364.906 229.5,363.5 Z"/></g>
<g><path style="opacity:0.11" fill="#8e8c8d" d="M 278.5,362.5 C 277.341,364.25 275.674,365.25 273.5,365.5C 274.659,363.75 276.326,362.75 278.5,362.5 Z"/></g>
<g><path style="opacity:0.125" fill="#868685" d="M 271.5,366.5 C 270.461,368.531 268.795,369.864 266.5,370.5C 267.579,368.457 269.246,367.124 271.5,366.5 Z"/></g>
<g><path style="opacity:1" fill="#656565" d="M 238.5,369.5 C 241.5,370.5 243.5,372.5 244.5,375.5C 242.167,373.833 240.167,371.833 238.5,369.5 Z"/></g>
<g><path style="opacity:0.192" fill="#757575" d="M 15.5,372.5 C 16.9063,372.973 17.573,373.973 17.5,375.5C 16.0937,375.027 15.427,374.027 15.5,372.5 Z"/></g>
<g><path style="opacity:0.071" fill="#acaaab" d="M 262.5,374.5 C 262.573,376.027 261.906,377.027 260.5,377.5C 260.427,375.973 261.094,374.973 262.5,374.5 Z"/></g>
<g><path style="opacity:0.063" fill="#7c7c7c" d="M 17.5,375.5 C 19.2624,376.262 20.2624,377.596 20.5,379.5C 18.7376,378.738 17.7376,377.404 17.5,375.5 Z"/></g>
<g><path style="opacity:1" fill="#d4efdf" d="M 164.5,363.5 C 164.134,368.705 164.967,373.705 167,378.5C 171.073,386.645 175.073,394.645 179,402.5C 172.974,395.788 168.474,388.121 165.5,379.5C 162.812,377.479 160.479,375.146 158.5,372.5C 160.265,369.291 162.265,366.291 164.5,363.5 Z"/></g>
<g><path style="opacity:0.2" fill="#898989" d="M 245.5,376.5 C 246.974,377.436 247.974,378.77 248.5,380.5C 246.554,379.965 245.554,378.632 245.5,376.5 Z"/></g>
<g><path style="opacity:0.192" fill="#9c9c9c" d="M 259.5,378.5 C 259.573,380.027 258.906,381.027 257.5,381.5C 257.427,379.973 258.094,378.973 259.5,378.5 Z"/></g>
<g><path style="opacity:0.184" fill="#6b6b6b" d="M 248.5,380.5 C 250.346,382.03 251.346,384.03 251.5,386.5C 249.654,384.97 248.654,382.97 248.5,380.5 Z"/></g>
<g><path style="opacity:0.486" fill="#7d7d7d" d="M 256.5,383.5 C 256.715,385.179 256.048,386.179 254.5,386.5C 254.427,384.973 255.094,383.973 256.5,383.5 Z"/></g>
<g><path style="opacity:0.106" fill="#605e5f" d="M 146.5,386.5 C 145.415,388.587 143.749,389.92 141.5,390.5C 142.585,388.413 144.251,387.08 146.5,386.5 Z"/></g>
<g><path style="opacity:0.945" fill="#6e6d6e" d="M 26.5,385.5 C 29.0892,386.419 31.0892,388.086 32.5,390.5C 29.9108,389.581 27.9108,387.914 26.5,385.5 Z"/></g>
<g><path style="opacity:0.4" fill="#7e7e7e" d="M 251.5,386.5 C 252.222,386.918 252.722,387.584 253,388.5C 253.383,387.944 253.883,387.611 254.5,387.5C 254.719,388.675 254.386,389.675 253.5,390.5C 251.889,389.68 251.222,388.346 251.5,386.5 Z"/></g>
<g><path style="opacity:0.6" fill="#70bd90" d="M 153.5,378.5 C 152.854,380.156 152.187,381.823 151.5,383.5C 154.529,389.722 158.195,395.555 162.5,401C 164.247,401.352 165.914,401.852 167.5,402.5C 167.5,402.833 167.5,403.167 167.5,403.5C 162.5,403.5 157.5,403.5 152.5,403.5C 155.305,402.681 158.305,402.181 161.5,402C 157.5,395.793 153.166,389.96 148.5,384.5C 149.443,381.891 151.11,379.891 153.5,378.5 Z"/></g>
<g><path style="opacity:0.843" fill="#797979" d="M 36.5,393.5 C 38.2303,394.026 39.5637,395.026 40.5,396.5C 38.368,396.446 37.0347,395.446 36.5,393.5 Z"/></g>
<g><path style="opacity:1" fill="#f5f4f4" d="M 65.5,395.5 C 77.6709,396.681 89.8375,396.681 102,395.5C 107.22,396.362 112.053,398.195 116.5,401C 96.3981,408.493 76.3981,408.326 56.5,400.5C 59.4791,398.633 62.4791,396.967 65.5,395.5 Z"/></g>
<g><path style="opacity:0.2" fill="#aba9aa" d="M 137.5,393.5 C 136.965,395.446 135.632,396.446 133.5,396.5C 134.436,395.026 135.77,394.026 137.5,393.5 Z"/></g>
<g><path style="opacity:0.376" fill="#7a7979" d="M 133.5,396.5 C 132.341,398.25 130.674,399.25 128.5,399.5C 129.659,397.75 131.326,396.75 133.5,396.5 Z"/></g>
<g><path style="opacity:0.141" fill="#7a7879" d="M 52.5,402.5 C 54.153,402.66 55.4863,403.326 56.5,404.5C 54.6203,404.771 53.287,404.104 52.5,402.5 Z"/></g>
<g><path style="opacity:0.141" fill="#7f7f7f" d="M 121.5,402.5 C 120.713,404.104 119.38,404.771 117.5,404.5C 118.514,403.326 119.847,402.66 121.5,402.5 Z"/></g>
<g><path style="opacity:0.988" fill="#585858" d="M 56.5,404.5 C 60.2856,404.32 63.619,405.32 66.5,407.5C 62.9161,407.025 59.5828,406.025 56.5,404.5 Z"/></g>
<g><path style="opacity:1" fill="#81caa2" d="M 150.5,403.5 C 146.458,405.237 142.124,406.237 137.5,406.5C 141.474,404.425 145.808,403.425 150.5,403.5 Z"/></g>
<g><path style="opacity:0.267" fill="#6c6c6c" d="M 113.5,405.5 C 111.898,407.074 109.898,407.741 107.5,407.5C 109.102,405.926 111.102,405.259 113.5,405.5 Z"/></g>
<g><path style="opacity:0.855" fill="#66bb8c" d="M 194.5,388.5 C 196.228,394.238 196.895,400.238 196.5,406.5C 200.24,406.241 203.906,406.574 207.5,407.5C 208.489,410.438 209.156,413.438 209.5,416.5C 208.883,416.611 208.383,416.944 208,417.5C 207.782,414.574 207.282,411.74 206.5,409C 202.974,407.663 199.308,407.163 195.5,407.5C 195.233,401.162 194.9,394.829 194.5,388.5 Z"/></g>
<g><path style="opacity:1" fill="#444444" d="M 66.5,407.5 C 70.649,406.92 74.3157,407.586 77.5,409.5C 73.6125,409.354 69.9458,408.687 66.5,407.5 Z"/></g>
<g><path style="opacity:0.78" fill="#8fd5b1" d="M 137.5,406.5 C 135.723,407.6 133.723,408.434 131.5,409C 130.402,409.77 130.402,410.603 131.5,411.5C 129.348,410.923 129.015,409.756 130.5,408C 132.74,407.023 135.073,406.523 137.5,406.5 Z"/></g>
<g><path style="opacity:0.467" fill="#8dd1a7" d="M 209.5,416.5 C 211.342,418.052 213.009,419.718 214.5,421.5C 211.203,421.368 209.537,419.702 209.5,416.5 Z"/></g>
<g><path style="opacity:0.039" fill="#76c299" d="M 216.5,422.5 C 219.485,423.326 222.151,424.659 224.5,426.5C 221.246,426.206 218.579,424.873 216.5,422.5 Z"/></g>
<g><path style="opacity:0.161" fill="#8ad6af" d="M 197.5,423.5 C 200.152,423.41 202.485,424.076 204.5,425.5C 201.848,425.59 199.515,424.924 197.5,423.5 Z"/></g>
<g><path style="opacity:0.522" fill="#71be92" d="M 156.5,426.5 C 165.152,427.717 173.818,427.717 182.5,426.5C 177.935,428.04 173.102,428.707 168,428.5C 164.5,428.333 161,428.167 157.5,428C 156.944,427.617 156.611,427.117 156.5,426.5 Z"/></g>
<g><path style="opacity:0.463" fill="#7bc299" d="M 209.5,426.5 C 211.912,426.694 212.912,428.027 212.5,430.5C 208.176,430.073 203.842,429.739 199.5,429.5C 198.248,435.921 200.581,437.921 206.5,435.5C 205.848,436.725 204.681,437.392 203,437.5C 198.668,437.191 197.001,434.857 198,430.5C 198.899,428.632 200.399,427.632 202.5,427.5C 204.884,428.012 207.217,428.679 209.5,429.5C 210.562,428.575 210.562,427.575 209.5,426.5 Z"/></g>
<g><path style="opacity:0.169" fill="#6fc492" d="M 218.5,434.5 C 214.452,434.395 210.452,434.728 206.5,435.5C 206.611,434.883 206.944,434.383 207.5,434C 211.358,433.19 215.024,433.357 218.5,434.5 Z"/></g>
<g><path style="opacity:0.831" fill="#75c499" d="M 224.5,426.5 C 232.392,429.459 240.059,432.792 247.5,436.5C 241.703,435.179 236.037,433.346 230.5,431C 227.823,430.186 225.823,428.686 224.5,426.5 Z"/></g>
<g><path style="opacity:0.027" fill="#80c9a4" d="M 247.5,436.5 C 250.916,436.528 253.916,437.528 256.5,439.5C 253.146,439.253 250.146,438.253 247.5,436.5 Z"/></g>
<g><path style="opacity:0.424" fill="#84cea8" d="M 256.5,439.5 C 259.854,439.747 262.854,440.747 265.5,442.5C 262.146,442.253 259.146,441.253 256.5,439.5 Z"/></g>
<g><path style="opacity:0.024" fill="#79c39a" d="M 265.5,442.5 C 269.525,442.63 273.191,443.63 276.5,445.5C 272.475,445.37 268.809,444.37 265.5,442.5 Z"/></g>
<g><path style="opacity:0.62" fill="#6ebd91" d="M 277.5,445.5 C 281.466,446.162 285.466,446.495 289.5,446.5C 286.024,447.643 282.358,447.81 278.5,447C 277.944,446.617 277.611,446.117 277.5,445.5 Z"/></g>
<g><path style="opacity:1" fill="#67ba8a" d="M 291.5,446.5 C 298.15,447.431 304.484,449.097 310.5,451.5C 304.786,450.825 299.119,449.825 293.5,448.5C 292.287,448.253 291.62,447.586 291.5,446.5 Z"/></g>
<g><path style="opacity:0.584" fill="#7dcca3" d="M 275.5,453.5 C 278.089,453.461 280.089,454.461 281.5,456.5C 279.181,456.008 277.181,455.008 275.5,453.5 Z"/></g>
<g><path style="opacity:0.29" fill="#78c297" d="M 310.5,451.5 C 311.552,451.351 312.552,451.517 313.5,452C 317.762,455.717 321.928,459.55 326,463.5C 326.747,465.928 325.914,467.594 323.5,468.5C 324.218,466.863 324.384,465.197 324,463.5C 319.306,459.635 314.806,455.635 310.5,451.5 Z"/></g>
<g><path style="opacity:1" fill="#5fb282" d="M 287.5,459.5 C 291.347,460.524 292.347,462.857 290.5,466.5C 291.602,467.176 292.602,467.842 293.5,468.5C 286.936,468.129 280.602,466.796 274.5,464.5C 279.164,463.277 283.831,463.277 288.5,464.5C 289.167,464.167 289.833,463.833 290.5,463.5C 289.09,462.431 288.09,461.097 287.5,459.5 Z"/></g>
<g><path style="opacity:1" fill="#6cbb8e" d="M 293.5,468.5 C 300.982,469.242 308.482,469.909 316,470.5C 318.824,470.697 321.324,470.031 323.5,468.5C 323.443,469.609 323.11,470.609 322.5,471.5C 316.833,471.5 311.167,471.5 305.5,471.5C 301.36,471.021 297.36,470.021 293.5,468.5 Z"/></g>
</svg>
