<?xml version="1.0" encoding="UTF-8"?>
<svg id="Camada_1" xmlns="http://www.w3.org/2000/svg" version="1.1" viewBox="0 0 1000 1000">
  <!-- Generator: Adobe Illustrator 29.1.0, SVG Export Plug-In . SVG Version: 2.1.0 Build 142)  -->
  <defs>
    <style>
      .st0 {
        fill: #fff;
      }

      .st1 {
        fill: #fab72a;
      }

      .st2 {
        fill: #010101;
      }

      .st3 {
        fill: #552d82;
      }

      .st4 {
        fill: #542781;
      }
    </style>
  </defs>
  <path class="st0" d="M220.99,331.8s84.1-137.5,256.3-137.5,252.31,133.51,252.31,133.51h233.6l-9.28,57.4s-6.71,22.7-17.42,25.42h15.99s5.28,19.99-26.7,89.39h68.11s2.71,121.51-144.22,178.91c0,0-76.11,23.99-114.8-17.42,0,0-77.39,144.22-257.73,144.22s-261.73-148.21-261.73-148.21H6.1l33.41-60.11h-22.85l26.7-49.4h45.41l8-18.71h-21.28l52.12-96.1h29.41l11.99-29.41h-25.42l38.7-72.11h38.7v.14Z"/>
  <path class="st1" d="M479.87,773.58c147.36,0,266.87-121.23,266.87-270.87s-119.51-270.87-266.87-270.87-266.73,121.23-266.73,270.87,119.37,270.87,266.73,270.87"/>
  <path class="st3" d="M399.48,569.68c-3.57-.14-5.85-2.57-6.71-5-1.14-3.43-1-9.42.29-12.14l61.68-109.52c1-2,3.57-6.28,6.57-6.28,5.43,0,7.85-7.14-1.43-7.14h-49.4c-9.28,0-9.28,7-.43,7,3.57,0,5,3.57,4,5.71l-13.71,24.7c-1.71,2.71-5.43,3-9.42,3h-11.71c-.86,0-1.43.71-1.43,1.43,0,.86.71,1.43,1.43,1.43h11.71c3.14,0,5.71,1,3.86,4.57l-45.55,82.96c-3.28,4.57-9.85,5.57-9.42-3.14l16.14-121.51c.57-3.86-.43-6.43-4.43-6.43h-24.42c-2.86,0-4.71,1.43-6.14,3.28l-8.71,10.99c-1.14,1.14-3.57,1.14-6.28,1.14h-20.56c-.86,0-1.43.71-1.43,1.43,0,.86.71,1.43,1.43,1.43h16.71c3,0,6.43.71,5.14,2.14l-23.56,29.56c-.71.86-3,1-4.43,1h-6.57c-.86,0-1.43.71-1.43,1.43,0,.86.71,1.43,1.43,1.43h5.57c1.71,0,1.71.86,1,1.57l-22.13,27.7c-1.14,1.14-3.28,1.29-5.57,1.29h-19.56c-.86,0-1.43.71-1.43,1.43,0,.86.71,1.43,1.43,1.43h16.71c2.57,0,4.57.43,3.14,2.14l-31.41,39.41c-5.85,7.57-34.27,11.28-39.84,11.28l106.23-198.76c1-2.28,5-5.71,9-5.71h22.56c10.57,0,10.28-7.14,1.14-7.14h-113.37c-9.28,0-9.57,7.14,1,7.14h20.99c6,0,7.85,3.57,6.28,6.57l-3,5.43c-1,1.71-2.43,2.43-8.14,2.43h-37.12c-.86,0-1.43.71-1.43,1.43,0,.86.71,1.43,1.43,1.43h36.98c2,0,5,.57,3.14,4.14l-5.14,9.71c-.86,1.43-3.14,2.14-5.71,2.14h-16.85c-.86,0-1.43.71-1.43,1.43,0,.86.71,1.43,1.43,1.43h16.71c2.43,0,2.43,1.57,1,3.86l-11.99,22.13c-1,1.86-3,2.14-6.71,2.14h-6.71c-.86,0-1.43.71-1.43,1.43,0,.86.71,1.43,1.43,1.43h6.57c2.57,0,3.14,1.43,2,3.86l-9.85,18.28c-1.43,2.57-3.57,3.57-10.14,3.57h-37.12c-.86,0-1.43.71-1.43,1.43s.71,1.43,1.43,1.43h36.98c4.14,0,5.71,1.86,4.14,4.85l-19.13,35.98c-1.14,1.57-4.28,1.86-9.57,1.86h-37.12c-.86,0-1.43.71-1.43,1.43,0,.86.71,1.43,1.43,1.43h36.98c4.43,0,7.14.14,5.85,2.57l-10.99,20.7c-2,3.14-7.71,3.14-10,3.14h-11.71c-.86,0-1.43.71-1.43,1.43,0,.86.71,1.43,1.43,1.43h11.71c4.14,0,6.28.71,5.28,3l-14.71,27.7c-1,3.71-6.71,3.86-11.14,3.86h-57.4c-.86,0-1.43.71-1.43,1.43,0,.86.71,1.43,1.43,1.43h57.26c3.86,0,8.57.43,6.85,3.57l-9.42,17.71c-.86,1.43-4.14,1.57-8.71,1.57h-11.71c-.86,0-1.43.71-1.43,1.43,0,.86.71,1.43,1.43,1.43h11.71c2.86,0,6.28.29,5.14,2.43l-5.85,11.28c-1.86,2.86-3.86,5.28-8.28,5.28h-28.99c-10.57,0-10.28,7.14-1,7.14l168.92.14c5,0,5.14-.71,7.42-4.28l24.99-43.69h128.08c9.28.14,7-6.85,1.57-7.14M298.95,556.69c-1.29,7.28-8.57,11.99-17.56,14.42l-9.42,2.43,7.71-13.85c2-3.86-2.43-6-7.28-.43-32.7,38.12-43.12,56.4-93.53,56.4h-13.56c-4.14,0-8.57-1.57-5.85-5.57l17.85-33.27h67.82c9.28,0,6.85-7,1.43-7.14-3.57-.14-7.57-2.14-10.28-6.57-.71-1.29-2.43-6,.14-9.71l25.99-34.55h43.12l-6.57,37.84ZM308.66,513.14h-42.12l53.26-70.25-11.14,70.25Z"/>
  <path class="st3" d="M601.38,530.41c-24.99,30.27-38.98,40.55-64.4,40.55-8.57,0-13.14-1.86-10.71-6.14l29.99-60.4h11.42c12.85,0,10.99,10.71,7.57,25.42-.57,2,.86,2.14,2.43.43l28.56-50.12c1.43-3.14-2.14-3.86-4-1.43-14.28,19.42-29.27,17.99-35.7,17.99h-5.14l32.13-61.26h12.99c16.28,1,23.85,14.85,19.13,48.12h6.71l23.56-46.55c1.86-3.86-2.14-7.57-6.57-7.57h-160.07c-9.28,0-9.71,7.14-.86,7.14,7.14,0,6.85,10.28.43,15.28l-67.97,53.97,13.71,63.68c1,4.85,4.14,7.14,9.42,7.14h132.36c5.43,0,7.71-2.28,9.42-4.57l23.99-41.41c3.43-5.71-4.14-5.28-8.42-.29M509.28,501.43l-11.71-.14c-.86,0-1.43.71-1.43,1.43s.71,1.43,1.43,1.43l11.85-.14c4,0,7.71.57,6.71,2.28l-30.56,58.4c-3.86,7-11.85,5.14-13.14-.43l-15.14-78.25,53.26-41.27c5.28-4.57,15.42-11.99,20.7-11.85h11.57c7.14,0,9.57,3.28,7.85,7.57l-2,4c-1.29,2.28-5.57,2.43-9,2.43h-6.71c-.86,0-1.43.71-1.43,1.43,0,.86.71,1.43,1.43,1.43h6.57c2.86,0,6.43,0,5.14,2.14l-24.7,47.12c-1.29,2-6.43,2.43-10.71,2.43"/>
  <path class="st3" d="M949.35,534.84c-.71-3.43-2-1.29-4.28,3-.71,1.29-2.86,1.43-5.14,1.43h-6.71c-.86,0-1.43.71-1.43,1.43,0,.86.71,1.43,1.43,1.43h6.71c2.57,0,2.57,1.71,1.43,4.28-4.71,10-9.42,16.56-15.85,24.56-1,1.29-3.57,2.28-5.57,2.28h-6.85c-.86,0-1.43.71-1.43,1.43,0,.86.71,1.43,1.43,1.43h6.71c3.28,0,0,2-.57,2.86-11.85,15.71-19.99,22.85-28.7,29.84-1,.86-5.85.57-9.28.57h-6.71c-.86,0-1.43.71-1.43,1.43,0,.86.71,1.43,1.43,1.43h6.57c5,0,1.29,2.86.57,3.57-18.42,15.28-45.83,20.28-58.4,18.71-40.69-5.14-49.12-35.98-52.12-48.41-.57-2.57-2.57-7.85-3.28-11.14-1.29-6.43,17.13-8.28,22.13-4.85,7.71,5.14,25.7,10.42,39.84,10.42,12.99,0,39.84-9.42,47.55-31.84,7.85-22.99-11.99-48.41-20.85-57.26-11.28-11.28-21.85-29.13-17.28-42.12,3.43-9.85,9-14.42,21.13-14.42,15.56,0,26.99,10,26.99,24.27,0,1.29-.86,2.71-1.86,2.71h-5.57c-.86,0-1.43.71-1.43,1.43,0,.86.71,1.43,1.43,1.43h5.14c1.43,0,2.43,1.14,2,2.86-1,4.71-1.29,8.14-2.43,12.85-.57,2.71,3.43,4.71,4.85,2.71l24.56-43.69c1.71-3.28-2.14-4.14-5.14-3.14-6.71,2.28-17.56,4-21.42,1.14-9.14-6.57-17.56-10.85-30.27-10.85-21.7,0-36.98,5.43-46.83,23.27-.71,1.43-2.86,1.43-4.71,1.43h-4.14c-.86,0-1.43.71-1.43,1.43,0,.86.71,1.43,1.43,1.43h3.57c1.57,0,2.57.43,1.86,2.14-.71,1.57-1.29,3.28-1.86,5.14-2.43,7.71-1.71,18.71,2.14,28.27.29.57-.57,1-2,1h-6.71c-.86,0-1.43.71-1.43,1.43s.71,1.43,1.43,1.43h6.71c3,0,3.71.29,5,2.14,3.43,4.85,7,8.42,11.42,13.99,1.43,1.71-4.57,2.28-7.71,2.28h-26.42c-.86,0-1.43.71-1.43,1.43,0,.86.71,1.43,1.43,1.43h26.7c4.28,0,11.71,0,12.42.86,6.43,7.42,14.28,18.99,15.56,28.7.43,2.71-.71,4-4.14,4h-3.57c-.86,0-1.43.71-1.43,1.43,0,.86.71,1.43,1.43,1.43h3.14c2.71,0,4.14.43,3.57,2.43-3.43,11.14-8.71,19.13-29.84,18.99-22.13-.14-26.7-21.85-20.13-44.55,1.29-4.57,0-6.43-2.14-2.86l-15.42,24.27c-.43.57-1.86,2-4.28,2h-2.14c-.86,0-1.43.71-1.43,1.43,0,.86.71,1.43,1.57,1.43,2,0,2.71,1,2,2.14l-5.71,8.85c-9.28-21.28-24.99-47.55-33.27-57.12l.14-.43c20.56-1.29,50.98-20.56,55.83-37.7,8.57-29.84-20.42-40.98-36.27-40.98h-69.54c-9.28,0-9.85,7-1,7,4.85,0,9,4.14,6.85,8.42l-15.42,27.7c-1.29,2.28-6,2.14-12.28,2.14h-6.71c-.86,0-1.43.71-1.43,1.43,0,.86.71,1.43,1.43,1.43h6.57c4.43,0,9.28.29,7.71,3.43l-18.28,32.84c-.86,1.57-3.28,1.71-9.42,1.71h-6.71c-.86,0-1.43.71-1.43,1.43,0,.86.71,1.43,1.43,1.43h6.57c4.85,0,6.71.71,5.28,3.14l-24.27,43.98c-2.86,3.14-6.43,3.71-12.28,3.71-8.85,0-8.71,7,.43,7h59.54c9.28,0,6.85-7.14,1.43-7.14-3.14,0-6.57-5.85-4.43-9.42l30.41-57.54h3.14c13.56,0,16.85,22.13,19.28,46.41.14,1.71-3.14,1.86-9.85,1.86h-16.85c-.86,0-1.43.71-1.43,1.43,0,.86.71,1.43,1.43,1.43h16.71c4.43,0,10.57,0,10.85,1.43,1.14,10.57,2,19.99,4,28.56.57,2.71-4.14,2.28-9.14,2.28h-21.56c-.86,0-1.43.71-1.43,1.43,0,.86.71,1.43,1.43,1.43h21.56c6.71,0,10.28,0,10.57,1.43,9.28,33.98,48.98,60.68,87.67,59.26,33.13-1.29,61.11-19.28,75.53-30.84,18.99-15.28,47.12-47.26,58.4-70.68,1.71-3.14,5.14-8.57,4.43-12.42M726.46,489.58c-4.71,3.86-11.99,8.14-13.42,6.85-2-2-8.14-6.14-11.42-7.71l27.56-50.4c1.14-1.71,2.43-2.71,5.43-2.71,10.71,0,14.28,11.71,9.28,26.13-3.43,10.14-9.14,21.13-17.42,27.84"/>
  <g>
    <path class="st4" d="M391.19,384.91c-5.57,7.28-12.99,9-21.28,9h-2.28l14.71-28.99c.71-1.29,2.28-2.43,4.14-2.43s1.57-3.71-.86-3.71h-23.13c-2,0-2.71,3.71-.86,3.71,2,0,2.28,2.14,1.43,4l-13.14,25.84c-.86,1.43-2.28,1.71-4,2.14-1.86.57-3.28,4.14-1,4.14h36.84c2.86,0,3.57-1,4.28-2.14l7.42-11.42c1-1.43-1.14-1.57-2.28-.14"/>
    <path class="st4" d="M502.28,359.93c-1.14.57-3.71,1-4.85,0-3-2.43-8.71-4.28-11.71-4.28-8.71,0-14.99,1.71-18.71,9.85-3.28,7,.14,12.85,7.71,16.42,3.28,1.57,7.71,3.57,6,7.57-1.29,2.86-4.57,3.28-7.71,3.14-4.14,0-10.28-3.14-11.28-9-.29-1.86-2.57-1.43-3.14-.43l-5.28,10.42c-.86,1.43,1.29,3,2.14,2,1.71-1.86,5.57-2.28,7.57-1.14,2.57,1.71,9.28,4.85,13.28,4.71,8.85,0,14.56-2.28,19.42-9.85,4.43-6.85,1.71-13.71-6.28-17.56-4.28-2-7.85-5.57-6-9.42,1.29-2.57,5-2,6.85-1.71,3.57.57,8.14,4,8.71,7,.29,1.29,1.86,1.57,2.57.43l2.71-6.43c.71-1.14-1.29-2.14-2-1.71"/>
    <path class="st4" d="M758.02,370.35l3.14-5.85c1.43-2.57-.86-5.57-4.57-5.57h-42.98c-3.14,0-2.14,3.28-.86,3.28,2.71,0,3.57,3.43,1.86,6.14l-12.99,23.85c-1.86,2.28-3.14,3.28-6,3.28-2.28,0-3,3.28.14,3.28h43.55c1.71,0,2.57-.57,3.14-1.57l6-7.85c1.43-1.86-1.71-1.86-2.57-1-7.57,7.57-15.56,7.28-21.42,7.28h-5l6-13.28h1.29c3.86,0,8.28,0,9.42,2.86.29.71,2.14,1.29,3,0l5.14-10.14c.86-1.57-1.43-1.86-2.14-.71-2,3.57-10.85,2.57-13.14,2.57h-1.29l7.42-14.71h8.28c5.14,0,9.57,3.71,10.99,7.57.29,1,3,1.71,3.57.57"/>
    <path class="st4" d="M647.93,358.78h-15.28c-3.14,0-2.14,3.28-.86,3.28,3.28,0,6.28,3.86,4.43,7.42l-6.28,11.57-13.99-20.42c-1-1.29-3.14-1.86-5-1.86h-15.14c-3.14,0-2.43,3.14-1.14,3.14,3.14,0,2.43,2.43,1.57,4.14l-11.99,23.13c-.71,1.86-4,2.14-5-.29l-9.28-30.27c-.43-1.14-5.85-1.14-7.14,0l-23.27,19.13h-11.99c-2.43,0-3.28,1-3.28,2.28s.86,2.43,3.43,2.43h6.28l-6.28,5.14c-3.57,2.57-7.14,6.14-9.42,6.14h-1.43c-2.28,0-3.57.43-3.57,2.14,0,1.86,1,2.43,3.14,2.43h18.85c3.57,0,2.86-4.57,1.14-4.57-2,0-5.14-2.43-2.14-6l5.71-5.43h11.28c6.71,0,11.42,7.71,7.42,10.14l-3.14,1.71c-1.43.71-2.14,4.14,0,4.14h36.7c2.71,0,2.14-3.57.86-3.57-3.71,0-2-5.43-1.29-6.85l9.71-18.28,13.56,26.27c.86,1.57,1.71,2.43,3.28,2.43h5.14c1.71,0,2.14-1,3-2.28l15.42-27.84c2.43-5,4.43-6.43,7.57-6.43.57.29,1.57-3-1.57-3M545.26,377.92l14.28-11.71v11.71h-14.28Z"/>
    <path class="st4" d="M430.46,357.07c-12.85,0-26.27,6.43-28.84,19.85-2.28,11.85,5.85,23.99,20.28,23.99s26.42-9,28.99-21.99c2.43-12.99-7.28-21.85-20.42-21.85M434.17,381.91c-4.14,8.14-10.99,12.99-15.28,10.85-4.43-2.14-4.57-10.57-.43-18.71,4.14-8.14,10.99-12.99,15.28-10.85,4.28,2.14,4.43,10.57.43,18.71"/>
    <path class="st4" d="M691.62,376.92h-16.56c-3.14,0-2.14,3.28-.86,3.28s2.57.71,2.57,2.71c0,6.71-2.86,9.28-8.57,9.28-6.28,0-8.57-7.71-4.28-16.99,2.71-6,9.85-11.57,18.42-11.57,5.28,0,9.57,1.14,10.28,6,.14,1.14,2,1.14,2.57,0l4-7c.43-.71-.29-1.71-1.43-1.71-1,0-3.28,1.29-4.71.14-3.28-2.43-10.57-4.85-15.99-4.85-8.85,0-21.28,2-29.7,16.56-7.57,13.14,3.43,27.13,13.71,27.13,5.71,0,12.28-4.14,16.14-5.85l4.28,2.86c.57.71,2,1.71,3.28,1.71h1.57c1.43,0,2-2,2.57-3.28l6.57-15.71c.14-1.57-.29-2.71-3.86-2.71"/>
    <path class="st4" d="M918.79,359.93c-1.14.57-3.71,1-4.85,0-3-2.43-8.71-4.28-11.71-4.28-8.71,0-14.99,1.71-18.71,9.85-3.28,7,.14,12.85,7.71,16.42,3.28,1.57,7.71,3.57,6,7.57-1.29,2.86-4.71,3.28-7.71,3.14-4.14,0-10.28-3.14-11.28-9-.29-1.86-2.57-1.43-3.14-.43l-5.28,10.42c-.86,1.43,1.29,3,2.14,2,1.71-1.86,5.57-2.28,7.57-1.14,2.57,1.71,9.28,4.85,13.28,4.71,8.85,0,14.56-2.28,19.42-9.85,4.43-6.85,1.71-13.71-6.28-17.56-4.28-2-7.85-5.57-6-9.42,1.29-2.57,5-2,6.85-1.71,3.57.57,8.14,4,8.71,7,.29,1.29,1.86,1.57,2.57.43l2.71-6.43c.71-1.14-1.29-2.14-2-1.71"/>
    <path class="st4" d="M803.42,384.91c-5.57,7.28-12.99,9-21.28,9h-2.28l14.71-28.99c.71-1.29,2.28-2.43,4.14-2.43s1.57-3.71-.86-3.71h-23.13c-2,0-2.71,3.71-.86,3.71,2,0,2.28,2.14,1.43,4l-13.14,25.84c-.86,1.43-2.28,1.71-4,2.14-1.86.57-3.28,4.14-1,4.14h36.84c2.86,0,3.57-1,4.28-2.14l7.42-11.42c1-1.43-1.14-1.57-2.28-.14"/>
    <path class="st4" d="M859.11,362.21c5.14,0,9.57,3.71,10.99,7.57.29,1,3.14,1.71,3.71.57l3.14-5.85c1.43-2.57-.86-5.57-4.57-5.57h-43.12c-3.14,0-2.14,3.28-.86,3.28,2.71,0,3.57,3.43,1.86,6.14l-12.99,23.85c-2,2.28-3.14,3.28-6,3.28-2.14,0-3,3.28.14,3.28h43.55c1.71,0,2.57-.57,3.14-1.57l6-7.85c1.43-1.86-1.71-1.86-2.57-1-7.57,7.57-15.56,7.28-21.42,7.28h-5l6-13.28h1.29c3.86,0,8.28,0,9.42,2.86.29.71,2.14,1.29,3,0l5.14-10.14c.86-1.57-1.43-1.71-2.14-.71-2,3.57-10.85,2.57-13.14,2.57h-1.29l7.42-14.71s8.28,0,8.28,0Z"/>
  </g>
  <g>
    <path class="st3" d="M391.19,384.91c-5.57,7.28-12.99,9-21.28,9h-2.28l14.71-28.99c.71-1.29,2.28-2.43,4.14-2.43s1.57-3.71-.86-3.71h-23.13c-2,0-2.71,3.71-.86,3.71,2,0,2.28,2.14,1.43,4l-13.14,25.84c-.86,1.43-2.28,1.71-4,2.14-1.86.57-3.28,4.14-1,4.14h36.84c2.86,0,3.57-1,4.28-2.14l7.42-11.42c1-1.43-1.14-1.57-2.28-.14"/>
    <path class="st3" d="M502.28,359.93c-1.14.57-3.71,1-4.85,0-3-2.43-8.71-4.28-11.71-4.28-8.71,0-14.99,1.71-18.71,9.85-3.28,7,.14,12.85,7.71,16.42,3.28,1.57,7.71,3.57,6,7.57-1.29,2.86-4.57,3.28-7.71,3.14-4.14,0-10.28-3.14-11.28-9-.29-1.86-2.57-1.43-3.14-.43l-5.28,10.42c-.86,1.43,1.29,3,2.14,2,1.71-1.86,5.57-2.28,7.57-1.14,2.57,1.71,9.28,4.85,13.28,4.71,8.85,0,14.56-2.28,19.42-9.85,4.43-6.85,1.71-13.71-6.28-17.56-4.28-2-7.85-5.57-6-9.42,1.29-2.57,5-2,6.85-1.71,3.57.57,8.14,4,8.71,7,.29,1.29,1.86,1.57,2.57.43l2.71-6.43c.71-1.14-1.29-2.14-2-1.71"/>
    <path class="st3" d="M758.02,370.35l3.14-5.85c1.43-2.57-.86-5.57-4.57-5.57h-42.98c-3.14,0-2.14,3.28-.86,3.28,2.71,0,3.57,3.43,1.86,6.14l-12.99,23.85c-1.86,2.28-3.14,3.28-6,3.28-2.28,0-3,3.28.14,3.28h43.55c1.71,0,2.57-.57,3.14-1.57l6-7.85c1.43-1.86-1.71-1.86-2.57-1-7.57,7.57-15.56,7.28-21.42,7.28h-5l6-13.28h1.29c3.86,0,8.28,0,9.42,2.86.29.71,2.14,1.29,3,0l5.14-10.14c.86-1.57-1.43-1.86-2.14-.71-2,3.57-10.85,2.57-13.14,2.57h-1.29l7.42-14.71h8.28c5.14,0,9.57,3.71,10.99,7.57.29,1,3,1.71,3.57.57"/>
    <path class="st3" d="M647.93,358.78h-15.28c-3.14,0-2.14,3.28-.86,3.28,3.28,0,6.28,3.86,4.43,7.42l-6.28,11.57-13.99-20.42c-1-1.29-3.14-1.86-5-1.86h-15.14c-3.14,0-2.43,3.14-1.14,3.14,3.14,0,2.43,2.43,1.57,4.14l-11.99,23.13c-.71,1.86-4,2.14-5-.29l-9.28-30.27c-.43-1.14-5.85-1.14-7.14,0l-23.27,19.13h-11.99c-2.43,0-3.28,1-3.28,2.28s.86,2.43,3.43,2.43h6.28l-6.28,5.14c-3.57,2.57-7.14,6.14-9.42,6.14h-1.43c-2.28,0-3.57.43-3.57,2.14,0,1.86,1,2.43,3.14,2.43h18.85c3.57,0,2.86-4.57,1.14-4.57-2,0-5.14-2.43-2.14-6l5.71-5.43h11.28c6.71,0,11.42,7.71,7.42,10.14l-3.14,1.71c-1.43.71-2.14,4.14,0,4.14h36.7c2.71,0,2.14-3.57.86-3.57-3.71,0-2-5.43-1.29-6.85l9.71-18.28,13.56,26.27c.86,1.57,1.71,2.43,3.28,2.43h5.14c1.71,0,2.14-1,3-2.28l15.42-27.84c2.43-5,4.43-6.43,7.57-6.43.57.29,1.57-3-1.57-3M545.26,377.92l14.28-11.71v11.71h-14.28Z"/>
    <path class="st3" d="M430.46,357.07c-12.85,0-26.27,6.43-28.84,19.85-2.28,11.85,5.85,23.99,20.28,23.99s26.42-9,28.99-21.99c2.43-12.99-7.28-21.85-20.42-21.85M434.17,381.91c-4.14,8.14-10.99,12.99-15.28,10.85-4.43-2.14-4.57-10.57-.43-18.71,4.14-8.14,10.99-12.99,15.28-10.85,4.28,2.14,4.43,10.57.43,18.71"/>
    <path class="st3" d="M691.62,376.92h-16.56c-3.14,0-2.14,3.28-.86,3.28s2.57.71,2.57,2.71c0,6.71-2.86,9.28-8.57,9.28-6.28,0-8.57-7.71-4.28-16.99,2.71-6,9.85-11.57,18.42-11.57,5.28,0,9.57,1.14,10.28,6,.14,1.14,2,1.14,2.57,0l4-7c.43-.71-.29-1.71-1.43-1.71-1,0-3.28,1.29-4.71.14-3.28-2.43-10.57-4.85-15.99-4.85-8.85,0-21.28,2-29.7,16.56-7.57,13.14,3.43,27.13,13.71,27.13,5.71,0,12.28-4.14,16.14-5.85l4.28,2.86c.57.71,2,1.71,3.28,1.71h1.57c1.43,0,2-2,2.57-3.28l6.57-15.71c.14-1.57-.29-2.71-3.86-2.71"/>
    <path class="st3" d="M918.79,359.93c-1.14.57-3.71,1-4.85,0-3-2.43-8.71-4.28-11.71-4.28-8.71,0-14.99,1.71-18.71,9.85-3.28,7,.14,12.85,7.71,16.42,3.28,1.57,7.71,3.57,6,7.57-1.29,2.86-4.71,3.28-7.71,3.14-4.14,0-10.28-3.14-11.28-9-.29-1.86-2.57-1.43-3.14-.43l-5.28,10.42c-.86,1.43,1.29,3,2.14,2,1.71-1.86,5.57-2.28,7.57-1.14,2.57,1.71,9.28,4.85,13.28,4.71,8.85,0,14.56-2.28,19.42-9.85,4.43-6.85,1.71-13.71-6.28-17.56-4.28-2-7.85-5.57-6-9.42,1.29-2.57,5-2,6.85-1.71,3.57.57,8.14,4,8.71,7,.29,1.29,1.86,1.57,2.57.43l2.71-6.43c.71-1.14-1.29-2.14-2-1.71"/>
    <path class="st3" d="M803.42,384.91c-5.57,7.28-12.99,9-21.28,9h-2.28l14.71-28.99c.71-1.29,2.28-2.43,4.14-2.43s1.57-3.71-.86-3.71h-23.13c-2,0-2.71,3.71-.86,3.71,2,0,2.28,2.14,1.43,4l-13.14,25.84c-.86,1.43-2.28,1.71-4,2.14-1.86.57-3.28,4.14-1,4.14h36.84c2.86,0,3.57-1,4.28-2.14l7.42-11.42c1-1.43-1.14-1.57-2.28-.14"/>
    <path class="st3" d="M859.11,362.21c5.14,0,9.57,3.71,10.99,7.57.29,1,3.14,1.71,3.71.57l3.14-5.85c1.43-2.57-.86-5.57-4.57-5.57h-43.12c-3.14,0-2.14,3.28-.86,3.28,2.71,0,3.57,3.43,1.86,6.14l-12.99,23.85c-2,2.28-3.14,3.28-6,3.28-2.14,0-3,3.28.14,3.28h43.55c1.71,0,2.57-.57,3.14-1.57l6-7.85c1.43-1.86-1.71-1.86-2.57-1-7.57,7.57-15.56,7.28-21.42,7.28h-5l6-13.28h1.29c3.86,0,8.28,0,9.42,2.86.29.71,2.14,1.29,3,0l5.14-10.14c.86-1.57-1.43-1.71-2.14-.71-2,3.57-10.85,2.57-13.14,2.57h-1.29l7.42-14.71s8.28,0,8.28,0Z"/>
  </g>
  <g>
    <path class="st2" d="M689.48,327.37c-3.28-3.86-7.85-11.85-40.69-40.55-48.26-42.12-112.23-61.26-172.34-61.26-44.26,0-83.1,10-125.94,33.56-54.69,30.13-77.39,64.68-82.96,71.82-4.14,5.14-4.71,8.14-2,9.71,1.86,1.14,5.57-2.86,9-7.42,16.28-21.56,37.7-42.84,60.11-55.26,7,1,16.85,10.71,20.56,15.99-14.42,7.85-38.27,25.99-47.41,32.98-7.85,6-10.57,9.42-8.42,11.85,1.71,2,7.71-2,12.71-6.14,8.71-7.14,34.41-25.27,47.12-32.13,8.71,10.14,5.85,28.84,2.86,32.98-1.57,2.14-1.86,4.57,0,5.57s3.71-1.57,6.28-5.14c5.85-8.57,3.57-29.13-1.57-36.55,15.56-9.57,37.84-16.14,51.26-19.13,1.14,2.14,17.56,49.98,20.56,58.69,1.71,4.71,3.43,10.42,6.85,9.42,2.28-.71.71-5.85-1.14-11.14-2.43-6.43-14.71-46.55-18.56-58.54,4.43-2.43,31.27-7.85,37.98-7.57-3.28,17.42,9,24.7,22.99,33.84,7.42,4.85,54.69,31.98,64.54,38.12,5.57,3.43,10,5.71,11.14,4,1.43-1.86-2.43-5.85-7.57-8.85-4.14-2.43-48.12-27.84-66.4-39.55-13.14-8.28-20.13-17.13-16.99-28.84,4.28-1.29,17.56-1.43,31.27-1.29,93.67.71,168.78,54.4,177.06,63.11,4.28,4.43,10.14,8.14,12.42,6.28,1.86-1.43-.71-6.28-2.71-8.57M363.06,290.39c-2.57-4.28-14.42-15.14-20.85-17.28,14.99-11.14,49.83-27.13,63.11-29.84,2.28,3.86,8.42,19.99,10.42,26.84-11.71,2.57-42.84,13.71-52.69,20.28M465.3,260.26c-12.28.71-34.41,5.57-42.27,7.85-2-5.28-7.57-21.85-9.42-27.13,22.56-6.43,48.55-8.57,68.68-6.85-5.43,4.28-14.85,21.28-16.99,26.13M526.13,259.55c-20.28-1.43-36.84-2-51.4-.57,4.14-10.57,12.57-20.42,19.13-24.85,13.85.57,28.13,2.57,39.41,4.85,36.27,7.14,92.53,29.27,116.8,61.83-32.27-21.7-86.1-38.7-123.94-41.27"/>
    <path class="st2" d="M709.75,647.93c3.43-6.43,6.28-10,3.28-11.71-2.71-1.57-5.28,4.43-8.71,10.14-10.99,18.99-22.85,34.7-49.83,59.26-29.84,27.27-64.25,43.12-76.25,47.12-10.14-28.56-48.98-150.5-49.98-153.93-1.57-5.14-2.86-6.71-4.57-6.14-2,.71-.71,3.57.29,8.14,1,4.57,47.26,148.78,48.69,153.78-9.14,4.57-46.41,14.99-72.39,15.85-23.13.71-50.4,0-64.11-3.14-16.14-12.99-52.69-64.68-66.68-92.24-16.42-32.41-27.27-62.26-29.99-74.96-1.29-6-3-10.42-6.14-9.85-3.28.57-1.43,5.43.57,11.85,5,16.71,12.99,40.41,29.99,74.11,18.13,35.7,50.4,77.53,59.83,88.96-29.56-6.14-65.4-19.99-99.38-45.41-29.41-21.85-54.54-49.69-67.25-70.11-2.14-3.43-4.71-8.42-7.85-6.28-1.43,1,.29,4.85,2.57,8.85,18.42,33.13,63.4,79.96,120.94,105.66,67.11,29.99,140.22,28.41,205.61,3,57.12-22.13,106.81-67.68,131.36-112.95"/>
  </g>
  <g>
    <path class="st2" d="M689.48,327.37c-3.28-3.86-7.85-11.85-40.69-40.55-48.26-42.12-112.23-61.26-172.34-61.26-44.26,0-83.1,10-125.94,33.56-54.69,30.13-77.39,64.68-82.96,71.82-4.14,5.14-4.71,8.14-2,9.71,1.86,1.14,5.57-2.86,9-7.42,16.28-21.56,37.7-42.84,60.11-55.26,7,1,16.85,10.71,20.56,15.99-14.42,7.85-38.27,25.99-47.41,32.98-7.85,6-10.57,9.42-8.42,11.85,1.71,2,7.71-2,12.71-6.14,8.71-7.14,34.41-25.27,47.12-32.13,8.71,10.14,5.85,28.84,2.86,32.98-1.57,2.14-1.86,4.57,0,5.57s3.71-1.57,6.28-5.14c5.85-8.57,3.57-29.13-1.57-36.55,15.56-9.57,37.84-16.14,51.26-19.13,1.14,2.14,17.56,49.98,20.56,58.69,1.71,4.71,3.43,10.42,6.85,9.42,2.28-.71.71-5.85-1.14-11.14-2.43-6.43-14.71-46.55-18.56-58.54,4.43-2.43,31.27-7.85,37.98-7.57-3.28,17.42,9,24.7,22.99,33.84,7.42,4.85,54.69,31.98,64.54,38.12,5.57,3.43,10,5.71,11.14,4,1.43-1.86-2.43-5.85-7.57-8.85-4.14-2.43-48.12-27.84-66.4-39.55-13.14-8.28-20.13-17.13-16.99-28.84,4.28-1.29,17.56-1.43,31.27-1.29,93.67.71,168.78,54.4,177.06,63.11,4.28,4.43,10.14,8.14,12.42,6.28,1.86-1.43-.71-6.28-2.71-8.57M363.06,290.39c-2.57-4.28-14.42-15.14-20.85-17.28,14.99-11.14,49.83-27.13,63.11-29.84,2.28,3.86,8.42,19.99,10.42,26.84-11.71,2.57-42.84,13.71-52.69,20.28M465.3,260.26c-12.28.71-34.41,5.57-42.27,7.85-2-5.28-7.57-21.85-9.42-27.13,22.56-6.43,48.55-8.57,68.68-6.85-5.43,4.28-14.85,21.28-16.99,26.13M526.13,259.55c-20.28-1.43-36.84-2-51.4-.57,4.14-10.57,12.57-20.42,19.13-24.85,13.85.57,28.13,2.57,39.41,4.85,36.27,7.14,92.53,29.27,116.8,61.83-32.27-21.7-86.1-38.7-123.94-41.27"/>
    <path class="st2" d="M709.75,647.93c3.43-6.43,6.28-10,3.28-11.71-2.71-1.57-5.28,4.43-8.71,10.14-10.99,18.99-22.85,34.7-49.83,59.26-29.84,27.27-64.25,43.12-76.25,47.12-10.14-28.56-48.98-150.5-49.98-153.93-1.57-5.14-2.86-6.71-4.57-6.14-2,.71-.71,3.57.29,8.14,1,4.57,47.26,148.78,48.69,153.78-9.14,4.57-46.41,14.99-72.39,15.85-23.13.71-50.4,0-64.11-3.14-16.14-12.99-52.69-64.68-66.68-92.24-16.42-32.41-27.27-62.26-29.99-74.96-1.29-6-3-10.42-6.14-9.85-3.28.57-1.43,5.43.57,11.85,5,16.71,12.99,40.41,29.99,74.11,18.13,35.7,50.4,77.53,59.83,88.96-29.56-6.14-65.4-19.99-99.38-45.41-29.41-21.85-54.54-49.69-67.25-70.11-2.14-3.43-4.71-8.42-7.85-6.28-1.43,1,.29,4.85,2.57,8.85,18.42,33.13,63.4,79.96,120.94,105.66,67.11,29.99,140.22,28.41,205.61,3,57.12-22.13,106.81-67.68,131.36-112.95"/>
  </g>
</svg>