<?xml version="1.0" encoding="utf-8"?>
<!-- Generator: Adobe Illustrator 26.4.1, SVG Export Plug-In . SVG Version: 6.00 Build 0)  -->
<svg version="1.1" id="Camada_1" xmlns="http://www.w3.org/2000/svg" xmlns:xlink="http://www.w3.org/1999/xlink" x="0px" y="0px"
	 viewBox="0 0 400 400" style="enable-background:new 0 0 400 400;" xml:space="preserve">
<style type="text/css">
	.st0{fill:#507344;}
	.st1{fill:#90C84B;}
	.st2{fill:#FEFEFE;}
	.st3{fill:#5E725A;}
	.st4{display:none;}
	.st5{display:inline;fill:#507344;}
	.st6{display:inline;}
	.st7{fill:url(#SVGID_1_);}
	.st8{fill:#575D59;}
	.st9{fill:#8BB086;fill-opacity:2.352941e-02;}
</style>
<g>
	<g>
		<path class="st0" d="M118.4,88.5c3-1,4.9-0.7,7.8-1.2c13.8-2.6,26.8-8.6,39.2-15c6-3.1,11.7-5.7,17.8-8.4c27.7-12,53.8-6,79.7,7.2
			c11.7,6,24.3,11.9,37,15.2c3,0.8,6.5,1,9.2,2.2c1.6,5.3,2.1,9.7,3,15c2.6,15.1,2.6,30.6,0.8,45.8c-0.8,6.6-2.6,12.5-3.7,18.9
			c-0.4,3.5-8,22.8-10.2,25.3c-1.5,3.9-3.6,7-5.1,10.7c-2.9,6.7-5.4,10.1-9.8,15.9c-15,19.9-34.9,35.9-56.1,48.8
			c-6.6,4.1-12.7,6.9-19.6,10.4c-10.8-4.8-26.5-14.5-35.8-21.8c-4.4-3.4-9.8-9-14.3-12.7c-3,3.1-6,5.8-9.2,8.7
			c-1.7,1.5-3.3,3.6-4.9,5.3c-13.9,14-24.1,31.6-31.2,49.9c-1.2,3.2-1.7,6.5-2.7,9.7c-7,23.7-4.8,48.8,4,71.7
			c0.6,1.6,2.6,5.9,1.3,7.1c-3.4,3.3-7.1-8.1-8-10.3c-4.6-10.4-9-20.9-13.2-31.4c-0.7-1.9-2.9-8.6-3.7-10c-0.6-0.6-2.5-5.3-2.9-6.3
			c-14-32.7-14-69.5-0.2-102.2c8.2-19.5,19.2-34.6,33.9-49.7c-0.3-0.6-0.6-1.1-0.8-1.7c-1.1-2.6-3.1-9.7-3.7-12.5
			c-5.8-23.1-5.6-47.1-1.4-70.4C115.7,99.6,117.4,91.1,118.4,88.5z M93.9,341.7c0.1-0.5-0.2-5.4-0.2-6.5c0-3.8-0.1-7.5,0-11.3
			c0-4.2,0.4-8.5,1-12.6c4.7-31.9,21.7-61.3,44.8-83.4c0.6-0.6,1.8-1.3,1.9-2.1c-0.8-1-8.9-13-9.5-14.1
			c-8.6,9.4-15.6,17.9-22.4,28.7c-13.6,21.6-20.9,47.3-20.2,72.8C89.5,318.4,91.8,337.8,93.9,341.7z"/>
		<path class="st1" d="M306.7,167.7c0.8,0.6,1.2,0.5,2.3,0.5c-0.4,3.5-8,22.8-10.2,25.3c-1.5,3.9-3.6,7-5.1,10.7
			c-2.9,6.7-5.4,10.1-9.8,15.9c-15,19.9-34.9,35.9-56.1,48.8c-6.6,4.1-12.7,6.9-19.6,10.4c-10.8-4.8-26.5-14.5-35.8-21.8
			c-4.4-3.4-9.8-9-14.3-12.7c-3,3.1-6,5.8-9.2,8.7c-1.7,1.5-3.3,3.6-4.9,5.3c-13.9,14-24.1,31.6-31.2,49.9c-1.2,3.2-1.7,6.5-2.7,9.7
			c-7,23.7-4.8,48.8,4,71.7c0.6,1.6,2.6,5.9,1.3,7.1c-3.4,3.3-7.1-8.1-8-10.3c-4.6-10.4-9-20.9-13.2-31.4c-0.7-1.9-2.9-8.6-3.7-10
			c1.6-0.3,2.5-0.7,3.9-1.2c-0.2-0.8-0.5-1.7-0.4-2.5c0.1-0.5-0.2-5.4-0.2-6.5c0-3.8-0.1-7.5,0-11.3c0-4.2,0.4-8.5,1-12.6
			c4.7-31.9,21.7-61.3,44.8-83.4c0.6-0.6,1.8-1.3,1.9-2.1c0.6-0.5,1.1-1,1.7-1.5c31.8-28.6,71.4-46.1,113.5-52.9
			c12.1-2,24.3-3.1,36.5-3.4C294.8,168,306,168.2,306.7,167.7z"/>
		<path class="st0" d="M296.4,193.8c1.1-0.5,1.3-0.6,2.4-0.2c-1.5,3.9-3.6,7-5.1,10.7c-2.9,6.7-5.4,10.1-9.8,15.9
			c-15,19.9-34.9,35.9-56.1,48.8c-6.6,4.1-12.7,6.9-19.6,10.4c-10.8-4.8-26.5-14.5-35.8-21.8c-4.4-3.4-9.8-9-14.3-12.7
			c0.7-0.6,1.2-1.1,1.9-1.7c6.9-5.4,13-10,20.4-14.8c19.7-12.5,41.3-21.8,63.9-27.6c15-3.8,30.3-6.2,45.7-7.1
			C291.2,193.7,295.6,193.3,296.4,193.8z"/>
	</g>
	<g>
		<path class="st2" d="M160,243.3c6.9-5.4,13-10,20.4-14.8c19.7-12.5,41.3-21.8,63.9-27.6c15-3.8,30.3-6.2,45.7-7.1
			c1.2-0.1,5.6-0.5,6.4,0c-1.3,2.7-7.4,15.2-8.8,16.9c-3.8,1.8-10,2.2-14.3,2.9c-4.5,0.7-9,1.6-13.5,2.6
			c-26,5.6-50.8,15.7-73.4,29.7c-4.2,2.7-9.6,6.2-13.5,9.3C168.6,251.2,164.3,247.4,160,243.3z"/>
		<path class="st2" d="M133.8,210c2.7-2.6,5.5-5.1,8.3-7.5c45.5-39,109-55.2,168-50.7c-0.9,6.1-1.7,10-3.4,15.9
			c-0.7,0.5-11.9,0.3-13.5,0.3c-12.2,0.3-24.4,1.4-36.5,3.4c-42.1,6.8-81.7,24.3-113.5,52.9c-0.6,0.5-1.1,1-1.7,1.5
			c-0.8-1-8.9-13-9.5-14.1C132.7,210.8,132.8,210.6,133.8,210z"/>
		<path class="st2" d="M209.2,59.5c1.3-0.2,6.9-0.2,8.4-0.1c24.3,1,44.2,15,66.1,23.8c4.4,1.8,8.8,3.3,13.4,4.6
			c2.4,0.6,7.8,1.7,9.7,2.5c0.9,1,1.4,4.3,1.7,5.7c2.1,10.3,3.2,20.9,3.3,31.4c-3.2-0.1-7.7-0.7-11-1c-5.3-0.4-10.7-0.6-16.1-0.6
			c-36.1-0.5-71.9,6.9-104.9,21.6c-19,8.5-42.6,23.5-57.1,38.6c-0.5-1.9-1.4-4.3-2-6.3c-1.2-3.7-2.2-7.5-3.1-11.3
			c-4.2-19.5-4.7-39.6-1.6-59.2c1-6.5,2.4-12.7,3.8-19.2c12.5-1.1,23-4.8,34.3-10C172.1,71.6,188.9,60.9,209.2,59.5z"/>
	</g>
	<path class="st3" d="M132,211.7c0.7-0.9,0.8-1,1.7-1.7c2.7,4.8,6.2,9.8,9.4,14.3c-0.6,0.5-1.1,1-1.7,1.5
		C140.6,224.8,132.6,212.8,132,211.7z"/>
	<g>
		<path class="st0" d="M219.1,84.6c-4.2-3.5-9.7-4.3-15-3.9c-0.1,0-0.3,0-0.4,0c-9.6,1.5-13.6,7.9-13.8,17.1
			c-0.1,6.7-0.7,13.9,5.7,18.3c6,4.1,13.8,3.8,20.4,2l0.1-4.5l-5.2,0c-5.8-0.1-10.2-1.1-12.1-7.3c7.1-0.2,16.2-0.9,21.5-6.3
			C224.7,95.6,223.7,88.4,219.1,84.6z M213.3,95.2c-1.6,2.6-4.4,3.6-7.2,4.4c-2.1,0.5-4.9,0.7-7.1,1c0.3-6.3-1.5-13.2,7.3-14.2
			c3.2,0.1,6.6,1,7.6,4.4C214.3,92.2,214.1,93.8,213.3,95.2z"/>
		<path class="st0" d="M242.1,80.7c4.4-0.6,9.9-0.2,14.2,1.3l0,4.3c-5.3,0-14.8-0.9-18.7,2.7c-1.4,1.2-2.1,3.8-2,5.6
			c0.3,3.8-0.4,9.2,0.2,12.8c1.2,7.8,14.7,6.3,20.6,6.3c0,1.5-0.1,3-0.1,4.4c-9.1,2.9-29.2,2.2-29.6-10.9c-0.1-3.9-0.4-13,0.4-16.6
			c0.4-1.8,1.2-3.4,2.4-4.8C232.4,82.3,237.6,81.2,242.1,80.7z"/>
		<path class="st0" d="M168.9,80.7l9.1,0l0,16.7c0,10-1.8,15.7,10.7,16.4c-0.1,1.6,0,4,0,5.6c-4.6,0.9-12.8-1.2-16.2-4.6
			c-1.6-1.5-2.6-3.5-3.1-5.6c-0.7-2.8-0.4-8.4-0.4-11.5L168.9,80.7z"/>
	</g>
	<g class="st4">
		<path class="st5" d="M215.3,0.5c0.2,0.1,0.4,0.2,0.6,0.4c2.3,3.9,4.1,8.7,6.7,12.4c4.9,0.8,8.5,0.9,13.8,2.1
			c-1.1,0.8-8.9,8.7-10.2,10.1c1,4.8,1.2,9.5,2.7,14.3c-3.2-2.1-8.9-4.5-12.7-6.8c-0.4,0-1,0.1-1.4,0.3c-4,2.2-7.9,4.2-12,6.1
			c1.1-3.9,1.6-8.6,2.3-12.6c0.3-1.7-0.9-2.8-2.1-4c-2.6-2.5-5.2-4.9-7.6-7.5c3.9-0.7,7.8-1.3,11.8-1.9c0.8-0.1,2.4-0.9,2.8-1.7
			C211.7,8,213.5,4.3,215.3,0.5z"/>
		<path class="st5" d="M265.7,20.3c1,0.5,5.9,10.9,6.8,12.7c4.6,0.4,9.8,1.4,14.2,1.7c-2.3,1.9-8.2,7.9-10.3,10.2
			c0,3.5,1.8,10.6,2.3,14.6c-4.2-2.2-8.3-4.4-12.4-6.7c-0.3-0.1-0.6-0.1-0.8,0c-4.5,2.2-8.1,4.4-12.9,6.3c1.2-3.2,2.4-10.8,2.7-14.3
			c-1.4-1.4-8.9-8.5-9.6-9.7c1-1.1,12.2-1.4,13.5-2.9C261.7,29,263.1,23.6,265.7,20.3z"/>
		<path class="st5" d="M161,20.2c1.6,0.7,5.2,10,6.8,12.5c4.1,0.6,10.1,1.1,14,2.1c-3.1,3.3-7.2,7-10.1,10.2
			c1.1,3.9,1.8,10,2.4,14.1c-2.7-1.2-9.8-5.1-12.5-6.7c-3.4,1.4-9.6,4.8-13,6.5c0.3-4.1,1.5-10,2.3-14.1c-3.2-3.4-6.8-6.6-10.1-10.2
			c4.6-0.7,9.5-1.3,14-2.2C156.7,29.5,159.4,23.5,161,20.2z"/>
	</g>
	<g class="st4">
		<g class="st6">
			<path class="st0" d="M228.6,309.7c1.1-0.1,1.1-0.3,1.8,0.2c0.2,0.9,0,7.9,0,9.1c0,5.7,0,11.4,0.1,17.2c-3.9-0.2-10.7,0.3-14-1.3
				c-1-0.5-2-1-2.7-2c-2.4-3.5-1.6-11-0.9-14.9c4.2-4.6,7.3-3.7,12.8-4c-0.3-1.4-0.7-2.9,0.3-4C226.9,309.6,227.7,309.7,228.6,309.7
				z M218.5,318.4c-1.4,3.2-2.3,11.6,1.3,13.6c1.8,0.5,3.7,1.2,5.5,0.8c0.5-0.4,0.5-0.5,0.5-1.3c0-4.3,0.3-9.7-0.4-13.9
				c-0.3-0.2-0.2-0.2-0.4-0.2C222.1,317.5,221.2,317.5,218.5,318.4z"/>
			<path class="st0" d="M239,314.2c6.4-0.5,9.9,0.7,11.4,7.2c-0.5,1.6-0.6,2.4-1.7,3.8c-2.6,3-8,3.2-11.7,3.4c1.1,1.4,1.7,2.2,3,3.5
				c1.5,0,3,0.1,4.5,0.2c1,0,1.5,0.1,2.2,0.9c0.2,1.2-0.6,2.2-1.7,2.4c-11.7,2.5-15-7.8-11.6-16.9C234.3,316.2,236.7,315,239,314.2z
				 M237.4,325.3c1.7-0.2,2.7-0.2,4.3-0.9c2-0.9,4.4-2.1,3.1-5c-0.7-1.7-2.6-2-4.3-1.9C236.9,318.9,237.7,321.8,237.4,325.3z"/>
			<path class="st0" d="M297.3,314.2c4.6-0.3,9.5-0.1,11.7,5c0.3,1.3,0.1,3.9-0.5,5c-2.4,4.5-8.4,3.4-11.9,4.5l-0.1,0.4
				c0.4,1,1.8,2.3,2.6,3.1c1,0,2,0,3,0.1c1.5,0,3.5-0.1,3.6,2c-1.2,2.3-6.5,1.9-8.5,1.3c-5-1.5-5.9-5.9-5.8-10.5
				C291.4,319.5,292.2,316.8,297.3,314.2z M296.4,325.3c1.8-0.2,2.9-0.5,4.7-0.9c5.5-2.7,3.4-7.1-2.1-6.9
				C295.7,319.4,296.7,322,296.4,325.3z"/>
			<path class="st0" d="M185.1,314.2c0.6,0,1.2-0.1,1.8-0.1c2.9,0,5.6,0.4,7.7,2.5c1.2,1.2,1.8,2.7,1.8,4.4c0,6.5-7.9,7.5-12.9,7.4
				c0.8,2.1,1,2.3,2.8,3.7c1.5,0.1,3.1,0.1,4.5,0.1c0.9,0.1,1.4,0.2,2.1,0.9c1,4-7.8,3-10.2,1.6c-5.4-3.1-4.8-11.6-2.9-16.5
				C180.7,316.1,183.1,314.8,185.1,314.2z M184,319.6c-0.3,2.1-0.3,3.6-0.4,5.7c1.6-0.2,3.2-0.3,4.7-0.9l2.1-1
				c2.7-4.1-0.1-6.2-4.3-5.9C185.1,318.2,184.8,318.5,184,319.6z"/>
			<path class="st0" d="M261.4,313.6c2.4,0.1,4.6,0.8,6.3,2.5c2.9,3,2.4,7.1,2.4,10.9c0,3,0,6.1,0,9.1c-1.9,0-3.3-0.2-5.2-0.4
				c-0.1-4.4,0.3-12.5-0.3-16.4l-1.9-1.8c-0.8-0.2-1.6-0.4-2.3-0.5c-0.5,0.2-2.3,1-2.4,1.2c-1.5,2.9-0.9,14.8-0.8,17.9
				c-1.6,0-3.6-0.3-5.2-0.6c0.2-1.7-0.1-5.5-0.1-7.4c0-4.7,0-9.4,0-14.1C254.5,314.3,258.6,313.9,261.4,313.6z"/>
			<path class="st0" d="M153.2,314.2c1.6,0,3.2-0.1,4.8-0.2l0,4.9c-0.1,4,0.9,12.1-1.5,14.7c-6.2,6.6-17.6,2.5-16.2-7.2
				c0.4-2.5-0.6-10.9,0.6-12.4c0.7,0,3.8,0,4,0.6c2,4.6-1,13.4,1.7,17.5c1.1,1.7,6.4,1.6,6.6-2.7
				C153.5,324.3,153.2,319.3,153.2,314.2z"/>
			<path class="st0" d="M277.4,314.2c2.4-0.1,9-0.7,10.6,0.7c0.3,0.8,0.3,0.5,0.1,1.3c-1.9,2.7-9.5-0.1-11.4,2.7c0,0.5,0,1,0.5,1.3
				c4.4,2.7,9.2,1.1,12.8,5.6c0.2,0.7,0.3,1.5,0.3,2.3c0.2,4.9-2.8,7.7-7.5,7.9c-2.7,0.1-5.5,0.1-8.2,0.2c-1.1,0-2,0-2.7-0.9
				c-0.1-0.8-0.2-1.1,0.2-1.8c1.9-1.9,8.2-0.5,10.9-1.3c1.8-0.5,1.8-0.7,2.9-2.4c-0.6-0.8-1.4-1.5-2.1-2.2c-3-0.8-6.6-1-9.4-2.4
				c-2.8-1.4-3.3-5.3-1.8-7.8C273.7,315.1,275.2,314.8,277.4,314.2z"/>
			<path class="st0" d="M173.2,314.1c2,0.1,2.8,0.1,4.8-0.2c-0.6,2.1-1.1,4.4-1.9,6.4c-1.3,3.9-3.5,12.9-5.3,16
				c-1.8-0.1-2.6-0.2-4.5-0.5c-1.1-3.4-6.4-19.6-6.4-21.8c0.9,0,3.8,0,4.2,0.5c1.8,2,4.1,11.3,4.6,13.7
				C170.2,323.9,171.3,317.5,173.2,314.1z"/>
			<path class="st0" d="M124.3,310.3c1.6-0.1,3.4-0.1,5.1-0.1c0.1,6.2-0.1,12.7,0,18.7c0.1,5.8,6,3.4,8.7,5.4
				c0.6,0.4,0.5,1.6,0.5,2.4c-5.5,0.2-12.7,0.5-14.1-6.3c-0.5-2.6-0.3-5.7-0.3-8.3C124.2,318.2,124.3,314.3,124.3,310.3z"/>
			<path class="st0" d="M198.4,313.9c3.2,0.9,10-0.1,13.4,0.4c0.2,0.2,0.4,0.3,0.5,0.5c0.2,0.7,0.2,0.8,0.1,1.5
				c-2.4,2-6.1-0.4-9,3.9l0,6.8l0,9.1c-1.9,0-3.2-0.1-5.1-0.4C198.1,332.7,197.8,316.2,198.4,313.9z"/>
		</g>
		<g class="st6">
			<path class="st3" d="M302.5,304.4c0.7,0.1,2.9,0.2,3,0c0.9-1.6-0.7-4.6,0.8-6.4c0.7-0.2,0.4-0.2,1.1,0.1c1,1.3,0.6,4.2,0.6,6
				c0,1.3,0.4,5.1-1,5.6c-1.1-0.6-1.3-2.5-1.5-3.7c-6.1-0.6-5.7-1.9-5.6-7.3c0-0.3,0.3-0.7,0.5-1C303,298.2,302.4,302.3,302.5,304.4
				z"/>
			
				<linearGradient id="SVGID_1_" gradientUnits="userSpaceOnUse" x1="77.1691" y1="316.2533" x2="75.9838" y2="318.3077" gradientTransform="matrix(3.6429 0 0 -3.6405 -2.6429 1460.8605)">
				<stop  offset="0" style="stop-color:#74807A"/>
				<stop  offset="1" style="stop-color:#52624E"/>
			</linearGradient>
			<path class="st7" d="M278.3,298.5c1.1,0.7,1.5,1.6,2.2,2.8c-0.5,0.7-0.9,1.5-1.5,2.1c-1.4,0.4-4.3,0.9-5.1,2
				c-0.1,0.9-0.1,1.8-0.1,2.6c1,0.9,5-0.3,6.1,0.8c-0.4,1.2-6.7,0.7-8.1,0.8c0-1.9-0.3-4.4,1.1-5.9c1.4-1.4,4.7-0.2,4.9-3.1
				c0-0.3,0-0.7,0-1C278.1,299.4,278.2,298.9,278.3,298.5z"/>
			<path class="st3" d="M291.4,298.4c0.3,0.2,0.9,0.6,1.2,0.9c-0.2,2.5-0.1,6.2,0,8.8c1.4,0.6,1.6,0.8,3.1,0.9
				c0.7,0.1,1,0.1,1.7,0.1c-0.8,0.4-2.5,0.9-3.3,1.2c-1.3-0.5-2.1-0.9-3.3-1.5C290.6,306.6,290.2,300.2,291.4,298.4z"/>
			<path class="st3" d="M285.9,298.1c1,0.1,1.7,0.1,2.3,0.9c1.6,2.1,1.7,8,0.2,10.1c-0.8,0-1.4,0-2.1-0.2c1.2-1.5,1.2-3.1,1.2-5
				c-0.1-3.9,0.1-5-3.9-4.4C283.8,297.8,284.3,299.4,285.9,298.1z"/>
			<path class="st0" d="M297.3,298.5c0.8,0.6,1.1,1,1.2,2.1c0.2,2.1,0.3,6-0.3,7.9c-0.2,0.3-0.4,0.5-0.8,0.7c-0.7,0-1,0-1.7-0.1
				c0.1-0.1,0.2-0.2,0.2-0.3l0.1-0.2c1-1.6,0.1-6.8,0.6-9.2C297.1,299.2,297.1,298.9,297.3,298.5z"/>
			<path class="st0" d="M281.7,309.2c-0.6-0.9-0.8-2.6-0.8-3.7c0.1-5.1-0.8-7.4,5-7.4c-1.6,1.4-2.1-0.3-2.4,1.3
				c-1.3,1.6-0.7,5.7-0.5,7.7c0,0.3,0.1,0.5,0.1,0.8C282.3,308.3,282.2,308.5,281.7,309.2z"/>
			<path class="st3" d="M283.1,307.9c1.3,1.1,1.5,1.3,3.2,0.9c0.7,0.3,1.4,0.2,2.1,0.2c-0.4,0.2-0.9,0.4-1.3,0.6
				c-2.3,0.8-3.4,0.6-5.5-0.5C282.2,308.5,282.3,308.3,283.1,307.9z"/>
			<path class="st8" d="M277.9,299.7c-1.5-0.5-4.1-0.1-5.5-1.2c0.9-0.8,4.7-0.3,5.9,0C278.2,298.9,278.1,299.4,277.9,299.7z"/>
			<path class="st8" d="M291.4,298.4c2-0.5,4-0.7,5.9,0.1c-0.2,0.4-0.3,0.6-0.7,0.8c-1.2-0.3-2.8-0.2-4,0
				C292.4,299.1,291.8,298.7,291.4,298.4z"/>
		</g>
		<g class="st6">
			<path class="st0" d="M157.6,349.9c5.3-0.1,8-0.5,12.9,1.6c1.2,1.5,1.6,2.2,1.9,4c-0.2,1.5-0.1,4.4,0.1,6
				c-0.6,5.8-5.7,6.7-10.7,6.2c0.2,2.1,0.1,5.2,0.2,7.4l-4.1,0.2C157.6,367,158.2,357.9,157.6,349.9z M161.9,364.8
				c1.5,0,3.9,0.1,5.2-0.4c1.7-2,1.1-3,1.3-5.5c0.3-4.8-0.8-6.4-5.8-6.4C161.3,354.3,162.1,362.1,161.9,364.8z"/>
			<path class="st0" d="M278.6,343.3c0.5,0,0.9,0,1.4,0c3.3,0,2.3,4.2,2.3,6.6c3.9-0.4,5.7,0.3,9.1,2.1c1.8,3.9,2.5,10.8-0.8,14
				c-2.1,1.4-10.2,2.8-11.9,1C278.1,365,278.1,344.9,278.6,343.3z M282.2,364.9c2-0.1,3.8,0.1,5.4-1.1l1.1-1.5c0-4,1-6.6-2.3-9.1
				c-1.1-0.2-3.1-0.6-4.2-0.5C282,356.8,282.3,360.8,282.2,364.9z"/>
			<path class="st0" d="M173,356.1c0.3-2.2,0.4-3.8,2.3-5.3c3.7-2.8,7.6-1.3,10.8,1c1.5,3.1,1.4,4.5,1.5,7.8
				c0.3,7.8-6.4,10.9-13,6.9c-1.8-2.8-1.3-2.5-1.9-5.2C173,359.8,173.1,357.6,173,356.1z M181.3,365.3c0.8-0.4,1.4-0.6,1.6-1.5
				c0.5-1.8,0.5-3.7,0.5-5.6c-0.1-3.4,0-6.1-4.1-5.9c-0.9,0.5-1.5,0.9-1.6,2c-0.3,2.1-0.6,8.3,0.2,10.1
				C178.8,365.5,179.8,365.3,181.3,365.3z"/>
			<path class="st0" d="M216.2,349.9c3.2-0.1,4.6,0.6,7.3,2.1c1.4,2.2,1.2,2.9,1.2,5.4c-2.4,4.1-6.7,4.2-10.9,4.2
				c1.3,1.5,1.7,1.9,3.3,3l3.8,0.2c0.9,0.3,1.1,0.5,1.3,1.4c-1.4,3-10.2,1.7-11.2-2.7c-0.8-3.4-1.1-6.1,0.3-9.5
				C212.3,351.3,213.9,350.8,216.2,349.9z M214.2,359l3.7-0.3c4.5-2,3.5-6.3-0.7-6.2C214,354.3,214.4,355.6,214.2,359z"/>
			<path class="st0" d="M299.9,350.1c1.6-0.6,5.4,0.6,6.5,2c5.4,7.2-3.2,9.8-9.2,9.5c1.1,1.3,1.6,2,3,3l2.5,0.2
				c1.3,0,1.5-0.1,2.4,0.7c0.3,1.4-0.9,2.1-2.2,2.3c-4.1,0.7-8.7-1.8-9.2-6.1C293.1,356.5,293.9,351,299.9,350.1z M297.8,359.1
				c0.6-0.1,1.9-0.4,2.5-0.5c2.4-0.7,2.6-0.8,4.2-2.8c-0.6-1.2-1.2-3-2.9-2.9C296.9,353,298.1,355.6,297.8,359.1z"/>
			<path class="st0" d="M131.7,343.4c2-0.1,7.2-0.5,8.3,1.5c0,0.7,0.1,0.8-0.3,1.3c-0.3,0-0.5,0-0.8-0.1c-1.9-0.1-7.9-0.3-9.2,1.1
				c-1.5,1.5-1,4.8-1,6.9c1.9,0,3.8,0.1,5.8,0.1c1.1,0,2.2,0,2.4,1.3c-1.5,2.1-6.8,0.4-8.1,1.5c-0.6,1.7-0.3,6,1.1,7.4
				c2.5,0.2,8.3-0.4,9.8,0.9c0.4,0.8,0.3,0.4,0.2,1.3c-1.2,1.5-11.8,1.2-13.6-0.8c-2.6-2.6-2-7.6-2.1-11.1
				C124.1,348.2,123.9,344.5,131.7,343.4z"/>
			<path class="st0" d="M265.5,349.8c0.2,3.6-0.5,11.4,1.1,14.6c0.3,0.5,2.1,1.2,2.7,1.2c4.8-0.4,1.3-13.7,3-15.6
				c0.9-0.4,2.5-0.2,3.6-0.2l-0.1,3c0.1,3,0.1,6.1,0.1,9.2c0,8.3-14,8.6-14.3,0.1c-0.1-2.9-0.5-9.7,0.1-12.2
				C262.7,349.7,264.4,349.8,265.5,349.8z"/>
			<path class="st0" d="M147.4,349.9c1.2-0.1,5-0.2,6.3,0c0.4,0.1,0.8,0.9,1,1.5c-0.5,2.7-7.3,0.4-9.6,2.7c1.2,2.5,11.7,2,11.5,7.6
				c-0.2,5-3.3,6.1-7.7,6.2c-1.4,0-6.4,0-7.3-0.7c-1.5-4.9,11.1,0.3,10.9-4.9c-1.4-3-10.6-1.3-11-6
				C141.2,351.6,143.5,350.3,147.4,349.9z"/>
			<path class="st0" d="M242.4,343.4c2-0.1,6-0.5,7.1,1.6c-1.2,2.1-6.8,0.6-10.3,2.7c-0.5,0.7-0.5,3.7-0.5,4.6c0.2,2.7-0.6,9.9,1,12
				c1.6,0.8,7.2,0.6,9.2,0.6c0.4,0.8,0.5,0.9,0.4,1.8c-0.3,0.4-0.4,0.7-0.9,0.8c-12.3,1.4-14.4-0.5-13.7-12.9
				C235.2,347.2,233.4,344.7,242.4,343.4z"/>
			<path class="st0" d="M201.1,346.2c1.3,0.3,3.2,0.2,3.9,1.7c0.3,0.8-0.4,1.5,0.1,2.5c1.1,0.6,2-0.2,3.6,0.2
				c0.6,0.5,0.5,0.2,0.6,1.1c-0.7,2-2.9,1.5-3.7,2.5c-0.9,1.1-0.5,7.6-0.5,9.2c1.3,1.1,1.9,1.3,3.5,1.6c0.5,0.3,0.7,0.9,0.8,1.4
				c-0.2,0.7-0.1,0.5-0.7,1c-3.1,0.9-5.6-0.6-7.5-2.9C200.7,361.2,200.2,349.2,201.1,346.2z"/>
			<path class="st0" d="M252.1,343.4c0.8,0,3.2-0.3,3.4,0.8c1,6.2-0.5,13.1,0.7,19.2c0.2,1.2,3.1,1.1,4.1,2.3c0.3,0.7,0,1.5-0.2,2.3
				c-1.8-0.3-3.5-0.6-5.2-1.2c-1.9-0.6-3.2-3.6-3-5.3C252.1,358.2,251,345.8,252.1,343.4z"/>
			<path class="st0" d="M189.2,349.8c0.8,0,2.2,0.2,3.1,0.2c1.6,0.2,7.4-1,7.7,1.1c-0.9,1.3-4.8,1.9-6.8,2.8
				c-0.9,1.2-0.5,5.7-0.5,7.5c0,2.1,0.7,5.1-1.1,6.4c-1,0.2-2.3-0.3-3.3-0.6c-0.3-5.1,0.2-11,0-16.2
				C188.4,350.4,188.8,350.1,189.2,349.8z"/>
			<path class="st9" d="M172.4,355.5l0.3-1.2c0.2,0.6,0.2,1,0.3,1.7c0.1,1.5,0,3.8-0.2,5.3l-0.3,0.1
				C172.3,359.9,172.2,357.1,172.4,355.5z"/>
		</g>
	</g>
</g>
</svg>
