<?xml version="1.0" encoding="UTF-8"?>
<svg id="Camada_1" data-name="Camada 1" xmlns="http://www.w3.org/2000/svg" viewBox="0 0 400 400">
  <defs>
    <style>
      .cls-1 {
        fill: #fefefe;
      }

      .cls-1, .cls-2, .cls-3, .cls-4, .cls-5, .cls-6, .cls-7, .cls-8, .cls-9 {
        stroke-width: 0px;
      }

      .cls-2 {
        fill: #152759;
      }

      .cls-3 {
        fill: #142658;
      }

      .cls-4 {
        fill: #f5f5f7;
      }

      .cls-5 {
        fill: #f4f4f7;
      }

      .cls-6 {
        fill: #fff;
      }

      .cls-7 {
        fill: #5f94bf;
      }

      .cls-8 {
        fill: #eeeff3;
      }

      .cls-9 {
        fill: #f5f6f8;
      }
    </style>
  </defs>
  <path class="cls-2" d="M199.64,384.64c-13.87-16.73-32.89-23.61-51.58-30.94-20.02-7.85-40.42-14.78-59.01-25.91-28.64-17.15-43.56-42.1-44.18-75.84-.49-26.76,6.58-50.66,23.76-71.38,3.51-4.23,6.76-8.72,9.81-13.3,5.57-8.36,6.32-17.33,2.65-26.68-6.27-15.96-17.58-28.38-28.73-40.88-7.1-7.96-7.21-7.81,2.37-12.89,46.69-24.77,93.39-49.5,139.99-74.44,3.63-1.94,6.15-1.92,9.78.02,47.72,25.49,95.52,50.83,143.39,76.02,4.91,2.59,6.07,4.02,1.56,8.59-10.58,10.72-20.13,22.36-27.75,35.5-8.29,14.31-7.6,27.65,2.97,40.63,8.55,10.51,17.47,20.98,21.96,34.04,11.92,34.67,12.62,68.44-10.98,98.99-13.1,16.95-31.91,26.16-51.05,34.47-18.77,8.14-38.46,14.01-56.91,22.98-10.56,5.13-20.39,11.24-28.05,21.03Z"/>
  <path class="cls-1" d="M199.65,167.24c33.91,0,67.81.09,101.72-.11,4.49-.03,7.23.84,9.34,5.21,3.41,7.1,8.7,13.04,13.67,19.11,23.66,28.91,22.56,76.74,8.06,99.75-9.54,15.15-23.38,24.91-38.91,32.66-18.18,9.07-37.57,15.22-56.34,22.86-12.39,5.04-24.41,10.69-35.03,18.99-1.3,1.02-2.3,2.3-4.28.74-20.48-16.28-45.43-23.01-69.09-32.49-16.31-6.54-32.44-13.4-46.21-24.75-23.24-19.14-28.19-44.71-25.53-72.94,1.68-17.86,8.58-33.54,19.83-47.41,4.81-5.92,9.79-11.8,12.93-18.83,1.58-3.54,4.27-2.76,6.86-2.76,34.33-.03,68.66-.02,102.99-.02Z"/>
  <path class="cls-1" d="M335.08,95.25c-9.09,10.64-17.94,21.2-24.33,33.52-4.05,7.81-7.16,16-6.21,24.95.48,4.51-1.41,4.7-4.91,4.69-24.56-.12-49.12-.06-73.69-.06-41.71,0-83.43-.06-125.14.08-4.53.02-6.71-.37-6.21-5.99.94-10.35-3.61-19.38-8.63-28.1-6.06-10.52-13.92-19.69-22-29.31,20.72-10.98,41.21-21.83,61.69-32.71,23.14-12.29,46.29-24.57,69.4-36.94,2.68-1.44,4.85-2.41,8.05-.7,43.22,23.12,86.52,46.07,129.79,69.07.7.37,1.32.9,2.17,1.49Z"/>
  <path class="cls-7" d="M243.45,255.4c0,24.24-.1,48.49.1,72.73.03,4.06-1.23,6.04-5.01,7.43-12.53,4.62-24.76,9.94-35.85,17.52-2.25,1.54-3.97,1.58-6.24.02-11.07-7.62-23.32-12.92-35.83-17.56-3.74-1.39-5.05-3.3-5.03-7.39.15-48.27.15-96.54,0-144.82-.01-4.51.8-6.26,5.83-6.2,25.42.27,50.85.27,76.27,0,4.99-.05,5.9,1.62,5.86,6.18-.21,24.03-.1,48.06-.1,72.09Z"/>
  <path class="cls-7" d="M275.42,248.34c0-21.67.12-43.34-.1-65-.05-4.6,1.22-5.56,5.88-6.33,15.09-2.52,23.56,4.33,32.44,16.14,18.3,24.35,23.11,50.46,16.07,79.24-4.18,17.1-15.96,28.63-30.73,37.19-6.03,3.5-12.45,6.29-18.62,9.56-3.87,2.06-5.04,1.13-5.01-3.26.15-22.52.07-45.03.07-67.55Z"/>
  <path class="cls-7" d="M123.74,249.44c0,21.45,0,42.91,0,64.36,0,7.43-.02,7.47-7.04,4.26-14.13-6.46-27.7-13.68-37.53-26.37-7.93-10.25-11.55-21.95-12.54-34.72-1.94-24.89,5.43-46.23,20.66-66.26,8.06-10.6,15.78-14.99,28.57-13.77,6.16.59,8.19,1.53,8.04,8.12-.47,21.44-.17,42.91-.17,64.36Z"/>
  <path class="cls-3" d="M129.16,113.95c-1.22,10.1-2.46,20.2-3.66,30.31-.25,2.09.03,4.23-3.31,4.07-3.39-.16-2.81-2.69-3.05-4.53-1.09-8.19-1.98-16.41-2.99-24.62-.2-1.61-.63-3.2-2.06-4.8-.54,9.46-1.11,18.92-1.6,28.38-.15,2.93.51,5.79-4.33,5.64-5.17-.16-3.2-3.56-3.07-5.73,1.16-19.07,2.67-38.11,3.68-57.19.24-4.47,3.38-5,6.08-6.11,2.68-1.1,2.35,1.41,2.54,2.98,1.41,11.79,2.81,23.58,4.29,36.09,2.96-6.05,2.6-12.08,3.4-17.83,1.16-8.4,2.1-16.85,2.73-25.3.32-4.28,3.59-5.01,6.31-6.12,2.74-1.13,2.26,1.49,2.33,3.02.93,19.09,1.83,38.18,2.76,57.26.25,5.09.49,10.18.88,15.26.18,2.25-.07,3.77-2.85,3.55-2.16-.17-4.63.82-4.73-3.08-.21-8.27-.83-16.54-1.28-24.8-.2-4.1-.99-8.15-1.29-11.83.06,3.45.06,1.45-.78,5.4Z"/>
  <path class="cls-2" d="M215.51,43.45c7.41,1.33,9.74,5.44,10.34,12.77,2.34,28.54,5.61,57.01,8.28,85.53.19,2.07,3.32,6.23-2.51,6.55-3.19.18-5.26-.18-4.98-4.2.16-2.29-1.06-4.72-.7-6.93,1.33-8.1-3.97-7.02-8.86-6.95-2.08.03-3.02.58-3.12,2.82-.16,3.6-.9,7.18-.91,10.78-.01,3.55-1.31,4.55-4.84,4.56-4.63.02-3.17-2.93-2.96-5.1,2.73-28.3,5.49-56.6,8.41-84.88.51-4.98-.03-10.15,1.83-14.96Z"/>
  <path class="cls-3" d="M163.01,54.8c3.23,30.15,6.42,60.25,9.74,90.34.23,2.11.18,3.44-2.22,3.05-1.99-.32-5.02,1.6-5.63-2.13-.34-2.08-.26-4.23-.42-6.35-.53-7.05-3.43-8.98-10.25-7.21-1.94.5-2.14,1.64-2.25,3.2-.21,2.96-.75,5.91-.71,8.87.05,4.44-2.96,3.65-5.59,3.67-4.44.03-2.34-3.06-2.14-4.91,2.75-25.07,5.66-50.12,8.36-75.19,1.05-9.77,1.63-10.73,11.12-13.35Z"/>
  <path class="cls-2" d="M198.75,75.45c-1.2-2.47-1.72-3.55-2.24-4.62-1.16-2.36-1.44-5.92-5.07-5.54-3.34.36-3.86,3.74-4.49,6.28-3.71,15.1-3.6,30.32-.52,45.48.63,3.1,1.02,7.61,5.06,8.03,4.45.46,4.08-4.56,5.83-7.17.31-.46.55-.98,1.43-2.59,0,9.57.04,17.94-.02,26.31-.03,4.54-2.37,7.85-6.6,9-4.41,1.21-6.5-2.3-8.07-5.63-5.83-12.37-6.95-25.78-7.68-39.12-.98-17.88-.13-35.7,4.81-53.08.75-2.64,1.75-5.24,2.96-7.7,1.64-3.32,3.8-6.77,8.15-5.45,4.14,1.25,6.45,4.57,6.45,9.15,0,8.29,0,16.59,0,26.63Z"/>
  <path class="cls-3" d="M237.87,54.61c5.01,2.7,9.09,4.83,13.11,7.07,3.93,2.18,6.43,5.53,7.05,10,1.84,13.28,3.69,26.59-3.87,38.93-1.28,2.09-.37,4.08.07,6.13,2.19,10.31,4.36,20.63,6.52,30.92-6.27,1.91-9.55.67-10.26-6.5-.8-8.12-2.96-16.11-5.35-24.02,0,9.19-.09,18.37.06,27.56.05,2.77-.8,3.71-3.58,3.64-2.47-.07-3.82-.34-3.81-3.41.1-29.71.06-59.43.06-90.3Z"/>
  <path class="cls-2" d="M275.54,74.81c6.58,1.91,9.51,5.75,10.3,13.04,2.05,18.75,5.33,37.35,8.03,56.03.25,1.73,1.81,4.62-2.13,4.34-2.17-.16-5.46,1.46-5.5-2.95,0-1.05-.56-2.11-.48-3.14.38-4.93-1.76-6.14-6.61-6.28-5.22-.15-5.99,2.44-6.25,6.35-.09,1.27-.11,2.55-.29,3.81-.56,3.87-3.59,1.81-5.54,2.18-2.49.48-2.55-1.03-2.25-3.05,3.35-22.87,6.62-45.76,9.94-68.63.09-.6.5-1.14.77-1.71Z"/>
  <path class="cls-6" d="M129.16,113.95c.84-2.95-.16-2.95.84-5.95,0,4,1,8,1.23,12.38-1.71-1.81.18-4.8-2.07-6.43Z"/>
  <path class="cls-5" d="M220.34,72.21c1,11.34,1.93,22.68,3.06,34,.3,3.05.09,4.68-3.69,4.65-3.79-.03-3.82-1.58-3.5-4.68,1.17-11.29,2-22.62,2.96-33.94.39,0,.78-.02,1.17-.03Z"/>
  <path class="cls-9" d="M158.39,79.43c.75,6.65,1.52,13.3,2.24,19.96.41,3.8.67,7.62,1.17,11.41.35,2.63.45,4.43-3.21,4.31-3.1-.09-4.61-.46-4.17-4.18,1.22-10.45,2.09-20.94,3.1-31.41.29-.03.58-.07.87-.1Z"/>
  <path class="cls-8" d="M245.06,88.07c0-3.16-.03-6.31.02-9.47.02-1.16-.44-2.66,1.28-3.08,1.38-.33,2.33.38,3.19,1.46,2.54,3.19,2.83,18.15.42,21.47-.95,1.31-2.22,2.11-3.68,1.7-1.48-.41-1.22-1.99-1.23-3.24,0-2.95,0-5.89,0-8.84Z"/>
  <path class="cls-4" d="M279.74,93.23c1.14,9.26,2.05,17.38,3.2,25.47.45,3.17-.61,3.99-3.65,3.96-3.13-.03-3.79-.82-3.27-4.05,1.3-8.06,1.49-16.3,3.72-25.38Z"/>
</svg>