<?xml version="1.0" encoding="utf-8"?>
<!-- Generator: Adobe Illustrator 23.0.1, SVG Export Plug-In . SVG Version: 6.00 Build 0)  -->
<svg version="1.1" id="Layer_1" xmlns="http://www.w3.org/2000/svg" xmlns:xlink="http://www.w3.org/1999/xlink" x="0px" y="0px"
	 viewBox="0 0 595.3 595.3" style="enable-background:new 0 0 595.3 595.3;" xml:space="preserve">
<style type="text/css">
	.st0{fill-rule:evenodd;clip-rule:evenodd;fill:#112B83;}
	.st1{fill-rule:evenodd;clip-rule:evenodd;fill:#FFDC01;}
	.st2{fill-rule:evenodd;clip-rule:evenodd;fill:#FFFFFF;}
	.st3{fill:none;stroke:#112B83;stroke-width:9.919;stroke-linejoin:round;stroke-miterlimit:10;}
	.st4{fill:none;stroke:#112B83;stroke-width:1.417;stroke-linejoin:round;stroke-miterlimit:10;}
	.st5{fill:none;stroke:#112B83;stroke-width:1.417;stroke-miterlimit:383.0649;}
	.st6{fill:none;stroke:#112B83;stroke-width:8.502;stroke-linejoin:round;stroke-miterlimit:10;}
	.st7{fill-rule:evenodd;clip-rule:evenodd;fill:#2A2E92;}
	.st8{fill:none;stroke:#FFFFFF;stroke-width:7.085;stroke-linejoin:round;stroke-miterlimit:10;}
	.st9{fill:none;stroke:#FFFFFF;stroke-width:5.668;stroke-linejoin:round;stroke-miterlimit:10;}
</style>
<g>
	<path class="st0" d="M215.3,11.4L379,11.5c12.5,56.5,55.9,93.8,124.7,114.4c-2.4,83.5-4.7,160.3-18.2,224.2
		c-20.9,93.5-88.5,163.6-188.9,233.7c-122.2-85.8-174.9-156.9-190-240.7C91.5,265.5,93.6,197.6,90.3,126
		C159.1,104.3,203.2,66.9,215.3,11.4L215.3,11.4z M215.3,11.4L215.3,11.4L215.3,11.4z M490.5,136.7c-2.3,93.4-3.9,187.8-27.7,246.5
		c-29.3,72.9-86.6,126.6-165.4,182.4c-94.3-62.5-160.8-133.8-177.7-220.4c-13.8-62.9-16.3-135.5-16.7-208.6
		c57-18.5,103.4-48.7,119.9-112.2h148.1C385.6,82.9,428.5,117.6,490.5,136.7L490.5,136.7z"/>
	<path class="st1" d="M490.5,136.7c-2.3,93.4-3.9,187.8-27.7,246.5c-29.3,72.9-86.6,126.6-165.5,182.4
		c-94.2-62.5-160.7-133.7-177.7-220.4c-13.8-62.9-16.3-135.5-16.7-208.6c57-18.5,103.5-48.7,119.9-112.2h148
		C385.6,82.9,428.5,117.5,490.5,136.7L490.5,136.7z M490.5,136.7L490.5,136.7L490.5,136.7z M476.9,148
		c-0.6,53.9-3.3,106.3-9.3,157.4c-5.1,64-34.3,127.2-103.4,188.8L298.8,544c-24.5-13.3-48.4-29.7-71-52.3
		c-68.5-56.9-93.7-117.2-100.6-179c-6.4-43-11.9-125.6-10.1-165.3C180.1,126.7,217.9,89,232.5,36l129.7,0.5
		C375.4,81.8,404.1,122,476.9,148L476.9,148z"/>
	<path class="st2" d="M476.9,148c-0.6,53.8-3.3,106.3-9.2,157.4c-5.1,64-34.3,127.1-103.4,188.7L298.8,544
		c-24.5-13.3-48.4-29.7-71-52.3c-68.5-56.9-93.7-117.2-100.6-178.9c-6.4-43.1-11.8-125.6-10.1-165.3
		C180.2,126.7,217.9,89,232.5,36.1l129.7,0.5C375.4,81.8,404.1,122,476.9,148L476.9,148z"/>
	<path class="st1" d="M296.9,225.6l90,79.2l-90.3,80.1l-90.4-80.1L296.9,225.6L296.9,225.6z M296.9,225.6L296.9,225.6L296.9,225.6z
		 M296.9,234.9l79.3,69.9l-79.5,70.7L217,304.8L296.9,234.9L296.9,234.9z"/>
	<polygon class="st0" points="296.9,234.9 376.2,304.8 296.6,375.6 217,304.8 296.9,234.9 	"/>
	<path class="st0" d="M151,143.2c-1.6,23.9-2.5,48.5-5.6,72.2l13-0.1c0.4-19.2,2.1-38.5,3.3-56.7l15.1,56.8h13.7l20.4-56.7
		l-1.2,55.9l12.9,0.8l1.6-72.1l-20-0.2c-6.3,17.8-13.4,35.2-18.8,53.3l-14.4-53.2L151,143.2L151,143.2z"/>
	<path class="st3" d="M151,143.2c-1.6,23.9-2.5,48.5-5.6,72.2l13-0.1c0.4-19.2,2.1-38.5,3.3-56.7l15.1,56.8h13.7l20.4-56.7
		l-1.2,55.9l12.9,0.8l1.6-72.1l-20-0.2c-6.3,17.8-13.4,35.2-18.8,53.3l-14.4-53.2L151,143.2L151,143.2z"/>
	<path class="st0" d="M240.6,163.6l-1.3,9.5c6.8-2.6,13.6-4.7,20.5-4.1c7.5,0.4,10.4,5.6,6.9,9.8c-0.7,0.9-1.2,1-2.2,1.4
		c-9.8,4.2-24.7,4-30.4,14.9c-0.6,1.1-0.8,1.7-1,2.9c-1.9,10.5,3,15.1,11.5,18c5.1,0.6,10.3,1,15.3-0.2l2.4-9.5
		c-5.2,2.5-10.7,2.5-14.8-0.2c-3.5-3.1-2-9.4,2.4-11.4c6.1-3.4,13.7-3.3,18.1-7.3l-1.3,27.7l13.6-0.1c0.4-13.7,1-27.2,1.6-40.6
		c0.1-2.5,0.2-3.8-1-6.1c-2.8-5.5-8.5-7.6-16.3-8C256.5,160.1,248.5,161.4,240.6,163.6L240.6,163.6z"/>
	<path class="st3" d="M240.6,163.6l-1.3,9.5c6.8-2.6,13.6-4.7,20.5-4.1c7.5,0.4,10.4,5.6,6.9,9.8c-0.7,0.9-1.2,1-2.2,1.4
		c-9.8,4.2-24.7,4-30.4,14.9c-0.6,1.1-0.8,1.7-1,2.9c-1.9,10.5,3,15.1,11.5,18c5.1,0.6,10.3,1,15.3-0.2l2.4-9.5
		c-5.2,2.5-10.7,2.5-14.8-0.2c-3.5-3.1-2-9.4,2.4-11.4c6.1-3.4,13.7-3.3,18.1-7.3l-1.3,27.7l13.6-0.1c0.4-13.7,1-27.2,1.6-40.6
		c0.1-2.5,0.2-3.8-1-6.1c-2.8-5.5-8.5-7.6-16.3-8C256.5,160.1,248.5,161.4,240.6,163.6L240.6,163.6z"/>
	<path class="st0" d="M347.4,163.9l-1.3,9.5c6.8-2.6,13.6-4.7,20.5-4.1c7.5,0.4,10.4,5.6,6.9,9.8c-0.7,0.9-1.2,1-2.2,1.4
		c-9.8,4.2-24.7,4-30.4,14.9c-0.6,1.1-0.8,1.7-1,2.9c-1.9,10.5,3,15.1,11.5,18c5.1,0.6,10.3,1,15.3-0.2l2.4-9.5
		c-5.2,2.5-10.7,2.5-14.8-0.2c-3.5-3.1-2-9.4,2.4-11.4c6.1-3.4,13.7-3.3,18.1-7.3l-1.3,27.7l13.6-0.1c0.4-13.7,1-27.2,1.6-40.6
		c0.1-2.5,0.2-3.8-1-6.1c-2.8-5.5-8.5-7.6-16.3-8C363.3,160.4,355.3,161.7,347.4,163.9L347.4,163.9z"/>
	<path class="st3" d="M347.4,163.9l-1.3,9.5c6.8-2.6,13.6-4.7,20.5-4.1c7.5,0.4,10.4,5.6,6.9,9.8c-0.7,0.9-1.2,1-2.2,1.4
		c-9.8,4.2-24.7,4-30.4,14.9c-0.6,1.1-0.8,1.7-1,2.9c-1.9,10.5,3,15.1,11.5,18c5.1,0.6,10.3,1,15.3-0.2l2.4-9.5
		c-5.2,2.5-10.7,2.5-14.8-0.2c-3.5-3.1-2-9.4,2.4-11.4c6.1-3.4,13.7-3.3,18.1-7.3l-1.3,27.7l13.6-0.1c0.4-13.7,1-27.2,1.6-40.6
		c0.1-2.5,0.2-3.8-1-6.1c-2.8-5.5-8.5-7.6-16.3-8C363.3,160.4,355.3,161.7,347.4,163.9L347.4,163.9z"/>
	<path class="st0" d="M332.7,162.5l0.9,11.7c-10.3-4.2-17.3-3.7-22.5,0.2c-6,5.5-7.2,14.6-4.7,22.6c0.7,2.2,1.1,3,2.7,4.7
		c6,6,14.4,3.9,22.8,1.6l-1.6,11.6c-10.8,2.3-20.5,2.7-27.3-1.1c-8.5-5.2-10.1-11.6-11.3-18.5c-1.8-12.3,0.4-21.4,8.5-29.5
		C305.2,160.6,321,158.8,332.7,162.5L332.7,162.5z"/>
	<path class="st3" d="M332.7,162.5l0.9,11.7c-10.3-4.2-17.3-3.7-22.5,0.2c-6,5.5-7.2,14.6-4.7,22.6c0.7,2.2,1.1,3,2.7,4.7
		c6,6,14.4,3.9,22.8,1.6l-1.6,11.6c-10.8,2.3-20.5,2.7-27.3-1.1c-8.5-5.2-10.1-11.6-11.3-18.5c-1.8-12.3,0.4-21.4,8.5-29.5
		C305.2,160.6,321,158.8,332.7,162.5L332.7,162.5z"/>
	<path class="st0" d="M443.9,202.9c-0.6,4-1.4,8.1-1.4,11.8c-7.4,1.7-14.9,2.3-22.8,1.7c-2.1-0.2-3.5-0.4-5.5-1
		c-10.1-3.2-16-11-16.2-24.9c0-13.9,5.6-25.3,19.2-29.4c21.4-3.6,32.6,5.2,31,27.2l-36.4-0.1c-0.9,11.2,3.6,16.6,11.5,18.4
		c1.7,0.4,2.5,0.4,4.2,0.3C433.6,206.6,439.2,205.5,443.9,202.9L443.9,202.9z M443.9,202.9L443.9,202.9L443.9,202.9z M422.8,141.6
		l14.8,0l-8.8,13.1l-10.6-0.6L422.8,141.6L422.8,141.6z M422.8,141.6L422.8,141.6L422.8,141.6z M412.2,182l23-0.2l-0.2-3.5
		c0-0.9-0.1-1.3-0.3-2.2c-1.6-5.3-5.3-7.2-10.7-6.6c-2.8,0.3-5.1,0.9-7.3,2.7C414,174.5,412.5,177.8,412.2,182L412.2,182z"/>
	<path class="st3" d="M443.9,202.9c-0.6,4-1.4,8.1-1.4,11.8c-7.4,1.7-14.9,2.3-22.8,1.7c-2.1-0.2-3.5-0.4-5.5-1
		c-10.1-3.2-16-11-16.2-24.9c0-13.9,5.6-25.3,19.2-29.4c21.4-3.6,32.6,5.2,31,27.2l-36.4-0.1c-0.9,11.2,3.6,16.6,11.5,18.4
		c1.7,0.4,2.5,0.4,4.2,0.3C433.6,206.6,439.2,205.5,443.9,202.9L443.9,202.9z M443.9,202.9L443.9,202.9L443.9,202.9z M422.8,141.6
		l14.8,0l-8.8,13.1l-10.6-0.6L422.8,141.6L422.8,141.6z M422.8,141.6L422.8,141.6L422.8,141.6z M412.2,182l23-0.2l-0.2-3.5
		c0-0.9-0.1-1.3-0.3-2.2c-1.6-5.3-5.3-7.2-10.7-6.6c-2.8,0.3-5.1,0.9-7.3,2.7C414,174.5,412.5,177.8,412.2,182L412.2,182z"/>
	<polygon class="st0" points="422.8,141.6 437.6,141.6 428.8,154.7 418.3,154.1 422.8,141.6 	"/>
	<polygon class="st3" points="422.8,141.6 437.6,141.6 428.8,154.7 418.3,154.1 422.8,141.6 	"/>
	<path class="st1" d="M307.6,300.7c-2.2-7.1-5-12.4-10.3-16.7c-1.8-1.5-4.5-3.7-6.9-3.8c-9.7-0.3-16.1,1.6-18.8,5.2
		c-3.1,5.2-2.6,8.9-2.8,14.4c-0.1,3.3-3.9,7.1-7.2,8.4c-5.6,2.7-8.2-1.6-8.2-4.7c0.5-6.6,2-12,6.4-18.6c4.7-5.9,13.9-8.5,28.9-6.8
		c-4.7-7.9-13.2-12.6-25-14.3l6.6-5.8c11.3,1,19.3,6.9,24.2,17.3c12-12.3,25.5-14,40.1-7.1l4.7,4.2c-8.1,2.6-12.6,9.5-23.7,6.8
		c-7.9-3.8-13.7-5.2-18.6-1.3c-0.4,1.7,0.5,1.6,2.4,1.8C311.9,281.8,311.9,290.2,307.6,300.7L307.6,300.7z"/>
	<path class="st1" d="M289.7,281.1c1.3-0.6,2.5,0.5,2.2,2c-1.8,14.2-1.3,27.9,5.9,39.7l-7.3,4l-3.7-3.3c-4.5-16.3-3.8-29.9,1.7-40.8
		C288.7,282,288.9,281.5,289.7,281.1L289.7,281.1z"/>
	<path class="st1" d="M242.2,327.8c5.8-4,13.4-5.6,24.4-2.6c5.1,2,10.5,2.3,16.5-0.6c8.5-3,16.5-2.1,24.1,1.2
		c5.9,2.1,11.8,1.8,17.8-1.3c7-2.7,16.7-3.3,27,1.4l-7.9,7.1c-5.5-2.3-10.7-1.7-15.8,0.2c-8.7,3.9-16.9,4.6-24.3,1.3
		c-5.6-2.9-12-3.6-17.8-1.1c-1.6,0.7-2.5,1.2-4.3,1.6c-6.7,1.7-12.8,1-18.6-1c-5.3-1.9-10.1-1.8-13.7,0.4L242.2,327.8L242.2,327.8z"
		/>
	<path class="st1" d="M20.8,458.4l47.5-33.1c-1.1,5.8,1.3,8.9,5.9,10.5c14.6,4.4,40.2,3.4,60.3,7c7.5,3.6,9.7,8.5,4,10.8
		c-3.3,1.3-3,1.6-6.3,1.1c-15.8-2.4-31.1-4.4-33.4,2.8l-25.5,17.9C46.1,472.6,17.1,470.2,20.8,458.4L20.8,458.4z"/>
	<path class="st4" d="M20.8,458.4l47.5-33.1c-1.1,5.8,1.3,8.9,5.9,10.5c14.6,4.4,40.2,3.4,60.3,7c7.5,3.6,9.7,8.5,4,10.8
		c-3.3,1.3-3,1.6-6.3,1.1c-15.8-2.4-31.1-4.4-33.4,2.8l-25.5,17.9C46.1,472.6,17.1,470.2,20.8,458.4L20.8,458.4z"/>
	<path class="st1" d="M37.7,348.2l70.2,67.2c3.7,5.1,2.5,7.6-2.3,8.3c-6.4,0.9-12.8,0.7-19.2-0.2c-6.6-2.1-12.7-2.1-18.1,1.7
		l-29,20.2c0.3-9.3,6.8-23.3-5.2-31.6c-6.3-3.7-20.8,0.2-30,3.9c9.3-22.2,25.5-33.5,51.2-29.9C37.1,379.2,34.7,364.7,37.7,348.2
		L37.7,348.2z"/>
	<path class="st4" d="M37.7,348.2l70.2,67.2c3.7,5.1,2.5,7.6-2.3,8.3c-6.4,0.9-12.8,0.7-19.2-0.2c-6.6-2.1-12.7-2.1-18.1,1.7
		l-29,20.2c0.3-9.3,6.8-23.3-5.2-31.6c-6.3-3.7-20.8,0.2-30,3.9c9.3-22.2,25.5-33.5,51.2-29.9C37.1,379.2,34.7,364.7,37.7,348.2
		L37.7,348.2z"/>
	<path class="st0" d="M110.4,421.5l-0.9,0.7c0.2-0.2,0.4-0.5,0.5-0.8L110.4,421.5L110.4,421.5z M110.4,421.5L110.4,421.5
		L110.4,421.5z M108.3,423l-22,15.6c-14-1-20.8-4.7-18-13.4c5.4-3.8,11.6-3.8,18.1-1.7c6.4,0.9,12.8,1.1,19.3,0.2
		C106.7,423.5,107.6,423.3,108.3,423L108.3,423z"/>
	<path class="st4" d="M110.4,421.5l-0.9,0.7c0.2-0.2,0.4-0.5,0.5-0.8L110.4,421.5L110.4,421.5z M110.4,421.5L110.4,421.5
		L110.4,421.5z M108.3,423l-22,15.6c-14-1-20.8-4.7-18-13.4c5.4-3.8,11.6-3.8,18.1-1.7c6.4,0.9,12.8,1.1,19.3,0.2
		C106.7,423.5,107.6,423.3,108.3,423L108.3,423z"/>
	<path class="st0" d="M142.3,451.3l-34,26c-8.3-5.2-11.6-12-9.3-20.5c2.9-6.5,17.8-4.6,33.2-2.2c3.4,0.5,3,0.2,6.3-1.1
		c1.5-0.6,2.4-1.4,2.9-2.3L142.3,451.3L142.3,451.3z"/>
	<path class="st4" d="M142.3,451.3l-34,26c-8.3-5.2-11.6-12-9.3-20.5c2.9-6.5,17.8-4.6,33.2-2.2c3.4,0.5,3,0.2,6.3-1.1
		c1.5-0.6,2.4-1.4,2.9-2.3L142.3,451.3L142.3,451.3z"/>
	<path class="st1" d="M574.5,459.1L526.9,426c1.1,5.8-1.3,8.9-5.9,10.5c-14.5,4.4-40.2,3.4-60.3,7c-7.5,3.6-9.6,8.5-4,10.8
		c3.3,1.3,3,1.6,6.3,1.1c15.8-2.4,31.1-4.4,33.4,2.8l25.5,17.9C549.2,473.3,578.2,470.9,574.5,459.1L574.5,459.1z"/>
	<path class="st4" d="M574.5,459.1L526.9,426c1.1,5.8-1.3,8.9-5.9,10.5c-14.5,4.4-40.2,3.4-60.3,7c-7.5,3.6-9.6,8.5-4,10.8
		c3.3,1.3,3,1.6,6.3,1.1c15.8-2.4,31.1-4.4,33.4,2.8l25.5,17.9C549.2,473.3,578.2,470.9,574.5,459.1L574.5,459.1z"/>
	<path class="st1" d="M557.6,349l-70.2,67.2c-3.7,5.1-2.4,7.6,2.3,8.3c6.4,0.9,12.9,0.7,19.2-0.2c6.6-2.1,12.7-2.1,18.1,1.7l29,20.2
		c-0.3-9.3-6.8-23.3,5.2-31.6c6.3-3.7,20.8,0.2,30,3.9c-9.3-22.2-25.5-33.5-51.2-29.9C558.2,379.9,560.5,365.4,557.6,349L557.6,349z
		"/>
	<path class="st4" d="M557.6,349l-70.2,67.2c-3.7,5.1-2.4,7.6,2.3,8.3c6.4,0.9,12.9,0.7,19.2-0.2c6.6-2.1,12.7-2.1,18.1,1.7l29,20.2
		c-0.3-9.3-6.8-23.3,5.2-31.6c6.3-3.7,20.8,0.2,30,3.9c-9.3-22.2-25.5-33.5-51.2-29.9C558.2,379.9,560.5,365.4,557.6,349L557.6,349z
		"/>
	<path class="st0" d="M484.9,422.2l0.9,0.7c-0.2-0.2-0.4-0.5-0.5-0.8L484.9,422.2L484.9,422.2z M484.9,422.2L484.9,422.2
		L484.9,422.2z M487,423.7l22,15.6c14-1,20.8-4.7,18-13.4c-5.4-3.8-11.6-3.8-18.1-1.7c-6.4,0.9-12.8,1.1-19.3,0.2
		C488.6,424.3,487.7,424,487,423.7L487,423.7z"/>
	<path class="st4" d="M484.9,422.2l0.9,0.7c-0.2-0.2-0.4-0.5-0.5-0.8L484.9,422.2L484.9,422.2z M484.9,422.2L484.9,422.2
		L484.9,422.2z M487,423.7l22,15.6c14-1,20.8-4.7,18-13.4c-5.4-3.8-11.6-3.8-18.1-1.7c-6.4,0.9-12.8,1.1-19.3,0.2
		C488.6,424.3,487.7,424,487,423.7L487,423.7z"/>
	<path class="st0" d="M453,452.1l34,26c8.4-5.2,11.7-12,9.3-20.5c-3-6.5-17.8-4.6-33.2-2.2c-3.3,0.5-3,0.2-6.3-1.1
		c-1.5-0.6-2.5-1.4-2.9-2.3L453,452.1L453,452.1z"/>
	<path class="st4" d="M453,452.1l34,26c8.4-5.2,11.7-12,9.3-20.5c-3-6.5-17.8-4.6-33.2-2.2c-3.3,0.5-3,0.2-6.3-1.1
		c-1.5-0.6-2.5-1.4-2.9-2.3L453,452.1L453,452.1z"/>
	<path class="st1" d="M73.3,475.4l25.5-17.9c-1.6,9,1,17.5,18.4,24.1c78.7,28.2,260.3,33.7,363.1-0.2c13.4-7.7,21.6-16,14.4-26
		l28.4,20.2c5.1,19.7-4.2,35.7-26.8,48.3c-110.2,46.4-281,40.1-370.7,10.6c-17.4-5.7-32.9-11-45.5-25.2
		C70.8,498.9,68.4,487.6,73.3,475.4L73.3,475.4z"/>
	<path class="st5" d="M73.3,475.4l25.5-17.9c-1.6,9,1,17.5,18.4,24.1c78.7,28.2,260.3,33.7,363.1-0.2c13.4-7.7,21.6-16,14.4-26
		l28.4,20.2c5.1,19.7-4.2,35.7-26.8,48.3c-110.2,46.4-281,40.1-370.7,10.6c-17.4-5.7-32.9-11-45.5-25.2
		C70.8,498.9,68.4,487.6,73.3,475.4L73.3,475.4z"/>
	<path class="st0" d="M411.9,418.2c-0.4,2.3-0.9,4.6-0.9,6.7c-4.8,1-9.6,1.3-14.6,1c-1.4-0.1-2.3-0.2-3.6-0.6
		c-6.5-1.9-10.3-6.3-10.4-14.3c0-7.9,3.6-14.5,12.3-16.8c13.8-2,20.9,3,19.9,15.6l-23.4-0.1c-0.6,6.4,2.3,9.5,7.4,10.5
		c1.1,0.2,1.6,0.2,2.7,0.2C405.3,420.2,408.9,419.6,411.9,418.2L411.9,418.2z M411.9,418.2L411.9,418.2L411.9,418.2z M391.6,406.2
		l14.8-0.1l-0.1-2c0-0.5,0-0.7-0.2-1.3c-1-3.1-3.4-4.2-6.9-3.8c-1.7,0.2-3.2,0.5-4.6,1.6C392.7,401.9,391.8,403.8,391.6,406.2
		L391.6,406.2z"/>
	<path class="st6" d="M411.9,418.2c-0.4,2.3-0.9,4.6-0.9,6.7c-4.8,1-9.6,1.3-14.6,1c-1.4-0.1-2.3-0.2-3.6-0.6
		c-6.5-1.9-10.3-6.3-10.4-14.3c0-7.9,3.6-14.5,12.3-16.8c13.8-2,20.9,3,19.9,15.6l-23.4-0.1c-0.6,6.4,2.3,9.5,7.4,10.5
		c1.1,0.2,1.6,0.2,2.7,0.2C405.3,420.2,408.9,419.6,411.9,418.2L411.9,418.2z M411.9,418.2L411.9,418.2L411.9,418.2z M391.6,406.2
		l14.8-0.1l-0.1-2c0-0.5,0-0.7-0.2-1.3c-1-3.1-3.4-4.2-6.9-3.8c-1.7,0.2-3.2,0.5-4.6,1.6C392.7,401.9,391.8,403.8,391.6,406.2
		L391.6,406.2z"/>
	<path class="st0" d="M370.8,386.8l-8.5,2l0.1,5.6h-5l-0.4,5.7h0.4v0.1h4.1l-0.5,17.9c-0.7,7,4.5,9.5,16.5,6.8
		c0.1-1.9,0.2-3.6,0.7-5.4l-3.9,0.4c-2.7,0-4.6-0.9-4.5-3.9l0.7-15.8h8.4v-5.5v-0.2h-8.2V386.8L370.8,386.8z"/>
	<path class="st6" d="M370.8,386.8l-8.5,2l0.1,5.6h-5l-0.4,5.7h0.4v0.1h4.1l-0.5,17.9c-0.7,7,4.5,9.5,16.5,6.8
		c0.1-1.9,0.2-3.6,0.7-5.4l-3.9,0.4c-2.7,0-4.6-0.9-4.5-3.9l0.7-15.8h8.4v-5.5v-0.2h-8.2V386.8L370.8,386.8z"/>
	<path class="st0" d="M342.4,394.2v4.2c2-3.7,7.5-6,12.1-4.6l-0.2,7c-5.2-1.1-8.8,0.1-10.6,3.6c-2.7,3.8-1.7,13.8-1.8,20.7l-9.2-0.2
		c1-9.5,1.4-19.7,0.9-30.8L342.4,394.2L342.4,394.2z"/>
	<path class="st6" d="M342.4,394.2v4.2c2-3.7,7.5-6,12.1-4.6l-0.2,7c-5.2-1.1-8.8,0.1-10.6,3.6c-2.7,3.8-1.7,13.8-1.8,20.7l-9.2-0.2
		c1-9.5,1.4-19.7,0.9-30.8L342.4,394.2L342.4,394.2z"/>
	<path class="st0" d="M308.8,393.3c11.8,0.1,18.1,5.4,18.1,16.5c-0.4,10.4-6.8,15.5-18.1,16.5c-11.4-0.2-17.6-5.5-18.1-16.5
		C291.1,401.3,296.1,394.8,308.8,393.3L308.8,393.3z M308.8,393.3L308.8,393.3L308.8,393.3z M299.8,409.9c0.2-5.8,3.4-9.9,9.9-9.8
		c6.2,0.1,7.6,4.4,8.2,10.8c-0.7,6-3.8,8.8-7.9,9.3c-0.9,0.1-1.7,0.1-2.6,0C302,419.6,299.4,416.2,299.8,409.9L299.8,409.9z"/>
	<path class="st6" d="M308.8,393.3c11.8,0.1,18.1,5.4,18.1,16.5c-0.4,10.4-6.8,15.5-18.1,16.5c-11.4-0.2-17.6-5.5-18.1-16.5
		C291.1,401.3,296.1,394.8,308.8,393.3L308.8,393.3z M308.8,393.3L308.8,393.3L308.8,393.3z M299.8,409.9c0.2-5.8,3.4-9.9,9.9-9.8
		c6.2,0.1,7.6,4.4,8.2,10.8c-0.7,6-3.8,8.8-7.9,9.3c-0.9,0.1-1.7,0.1-2.6,0C302,419.6,299.4,416.2,299.8,409.9L299.8,409.9z"/>
	<path class="st0" d="M251.8,395c8.3-1.8,16.5-2.8,24.1-0.7c6.9,2,12.3,8.2,9.6,20.5c-3.6,14.4-20.2,13.5-25.5,6.2
		c-0.8,5.8-0.4,11.6-0.6,18.4l-9.3,0C251.2,424.8,251.3,410.3,251.8,395L251.8,395z M251.8,395L251.8,395L251.8,395z M263.1,400
		c1.9-0.6,4.5-0.6,6.7-0.3c2,0.3,3.6,1.1,5,2.5c2.8,2.7,2.9,7,1.4,12.3c-2.6,6.1-9.1,6.2-13,3.5c-2.4-1.7-2.9-3.3-3-6.1
		c-0.1-2.9,0-5.7,0.3-8.5C260.8,401.2,260.7,400.8,263.1,400L263.1,400z"/>
	<path class="st6" d="M251.8,395c8.3-1.8,16.5-2.8,24.1-0.7c6.9,2,12.3,8.2,9.6,20.5c-3.6,14.4-20.2,13.5-25.5,6.2
		c-0.8,5.8-0.4,11.6-0.6,18.4l-9.3,0C251.2,424.8,251.3,410.3,251.8,395L251.8,395z M251.8,395L251.8,395L251.8,395z M263.1,400
		c1.9-0.6,4.5-0.6,6.7-0.3c2,0.3,3.6,1.1,5,2.5c2.8,2.7,2.9,7,1.4,12.3c-2.6,6.1-9.1,6.2-13,3.5c-2.4-1.7-2.9-3.3-3-6.1
		c-0.1-2.9,0-5.7,0.3-8.5C260.8,401.2,260.7,400.8,263.1,400L263.1,400z"/>
	<path class="st0" d="M244.3,394.7l0.1,5.9c-6.8-1.9-11.8-1.5-12.9,0.9c-1.2,2,1.3,3.6,4.6,5.6c5.8,3.9,10,8.1,6.8,13.9
		c-3.8,4.8-8.4,5.1-13,4.9c-3.2-0.2-6.2-0.7-9.3-1.5l-0.9-6.2c4,1.2,8.2,1.9,12.7,1.7c3.7-0.9,3.4-4.9,0-6.8
		c-9.4-6.2-13.7-12.2-6.5-18C230.7,392.4,239.9,393,244.3,394.7L244.3,394.7z"/>
	<path class="st6" d="M244.3,394.7l0.1,5.9c-6.8-1.9-11.8-1.5-12.9,0.9c-1.2,2,1.3,3.6,4.6,5.6c5.8,3.9,10,8.1,6.8,13.9
		c-3.8,4.8-8.4,5.1-13,4.9c-3.2-0.2-6.2-0.7-9.3-1.5l-0.9-6.2c4,1.2,8.2,1.9,12.7,1.7c3.7-0.9,3.4-4.9,0-6.8
		c-9.4-6.2-13.7-12.2-6.5-18C230.7,392.4,239.9,393,244.3,394.7L244.3,394.7z"/>
	<path class="st0" d="M181.6,425.3l32.4-0.1l0.3-6.6l-22.4,0.3l0.4-11.7l19.7-0.1l0-6.5l-19.2,0.5l0.4-11.4l22,0.2l0.2-6.3
		l-31.9-0.2C183.5,397.3,182.2,411.5,181.6,425.3L181.6,425.3z"/>
	<path class="st6" d="M181.6,425.3l32.4-0.1l0.3-6.6l-22.4,0.3l0.4-11.7l19.7-0.1l0-6.5l-19.2,0.5l0.4-11.4l22,0.2l0.2-6.3
		l-31.9-0.2C183.5,397.3,182.2,411.5,181.6,425.3L181.6,425.3z"/>
	<g>
		<path class="st7" d="M131.7,497.3c0-0.3,0.1-0.6,0.2-0.7c0.2-0.2,0.3-0.2,0.5-0.2l18.5,3.7c0.3,0.1,0.5,0.2,0.7,0.4
			c0.1,0.2,0.2,0.5,0.2,0.9v5.6c0,0.3-0.1,0.5-0.2,0.7c-0.2,0.2-0.4,0.3-0.7,0.2l-11.8-2.4v7.1l8.7,1.7c0.2,0.1,0.4,0.2,0.6,0.4
			c0.2,0.2,0.2,0.5,0.2,0.8v5.5c0,0.2-0.1,0.5-0.2,0.7c-0.2,0.2-0.4,0.3-0.6,0.2l-8.7-1.7v10.4c0,0.6-0.3,0.9-0.9,0.8l-5.9-1.2
			c-0.5-0.2-0.7-0.6-0.7-1.1V497.3L131.7,497.3z M131.7,497.3L131.7,497.3L131.7,497.3z M164,522.9c0,1.1,0.2,2.1,0.4,2.9
			c0.2,0.8,0.6,1.5,1,2.1c0.4,0.6,0.9,1,1.5,1.3c0.6,0.3,1.2,0.5,1.8,0.6c0.6,0.1,1.3,0.1,1.8-0.1c0.6-0.2,1.1-0.5,1.5-0.9
			c0.4-0.5,0.8-1.1,1-1.8c0.3-0.7,0.4-1.6,0.4-2.6v-19.5c0-0.2,0.1-0.5,0.2-0.6c0.2-0.2,0.4-0.2,0.6-0.2l5.7,0.9
			c0.3,0.1,0.5,0.2,0.7,0.4c0.2,0.2,0.2,0.5,0.2,0.7v19.3c0,2.7-0.3,4.8-1,6.6c-0.7,1.7-1.6,3.1-2.7,4c-1.1,0.9-2.4,1.5-3.9,1.8
			c-1.5,0.2-3,0.3-4.7,0c-1.6-0.2-3.2-0.7-4.7-1.5c-1.5-0.7-2.8-1.7-3.9-3c-1.1-1.3-2-2.9-2.7-4.8c-0.7-1.9-1-4.2-1-6.8v-19.3
			c0-0.3,0.1-0.5,0.2-0.7c0.1-0.2,0.3-0.2,0.5-0.2l5.8,0.9c0.2,0,0.4,0.2,0.6,0.4c0.2,0.2,0.3,0.5,0.3,0.8V522.9L164,522.9z
			 M164,522.9L164,522.9L164,522.9z M185.2,506.6c0-0.3,0.1-0.5,0.3-0.7c0.2-0.2,0.4-0.2,0.6-0.2l21,2.7c0.2,0,0.5,0.2,0.6,0.3
			c0.2,0.2,0.3,0.5,0.3,0.8v5.7c0,0.3-0.1,0.5-0.2,0.8c-0.2,0.2-0.4,0.3-0.7,0.3l-6.7-0.9v25c0,0.3-0.1,0.5-0.3,0.7
			c-0.2,0.2-0.4,0.3-0.6,0.2l-5.7-0.7c-0.2,0-0.4-0.2-0.6-0.4c-0.2-0.2-0.3-0.5-0.3-0.8v-25l-6.7-0.9c-0.3,0-0.5-0.2-0.6-0.4
			c-0.2-0.2-0.3-0.5-0.3-0.9V506.6L185.2,506.6z M185.2,506.6L185.2,506.6L185.2,506.6z M212.7,509.8c0-0.3,0.1-0.6,0.2-0.7
			c0.2-0.2,0.4-0.3,0.6-0.2l19.4,1.6c0.3,0,0.5,0.2,0.6,0.4c0.2,0.2,0.2,0.5,0.2,0.8v5.6c0,0.3-0.1,0.5-0.2,0.7
			c-0.2,0.2-0.4,0.3-0.7,0.3l-12.7-1v5.6l9.8,0.8c0.2,0,0.5,0.1,0.6,0.2c0.2,0.2,0.2,0.4,0.2,0.7v5c0,0.2-0.1,0.4-0.2,0.6
			c-0.2,0.2-0.4,0.3-0.6,0.2l-9.8-0.8v5.8l13.1,1.1c0.6,0,0.9,0.4,0.9,1.1v5.8c0,0.2,0,0.3-0.2,0.4c-0.1,0.4-0.3,0.6-0.8,0.6
			l-19.8-1.6c-0.3,0-0.5-0.1-0.6-0.3c-0.2-0.2-0.2-0.4-0.2-0.8V509.8L212.7,509.8z M212.7,509.8L212.7,509.8L212.7,509.8z
			 M239.1,511.9c0-0.3,0.1-0.6,0.2-0.7c0.2-0.2,0.4-0.3,0.6-0.3l13,0.6c1.1,0,2.2,0.3,3.2,0.9c1,0.6,1.9,1.3,2.7,2.2
			c0.8,0.9,1.3,2,1.8,3.2c0.4,1.2,0.7,2.5,0.7,3.9c0,1.1-0.2,2.2-0.5,3.2c-0.3,1-0.8,1.8-1.3,2.6c0.9,1,1.7,2.3,2.3,3.7
			c0.6,1.4,0.8,2.9,0.8,4.5c0,1.4-0.2,2.7-0.7,3.9c-0.5,1.2-1.1,2.3-1.9,3.2c-0.8,0.9-1.7,1.6-2.7,2.1c-1,0.5-2.1,0.7-3.3,0.7
			l-14.2-0.6c-0.3,0-0.5-0.1-0.6-0.3c-0.2-0.2-0.2-0.4-0.2-0.8V511.9L239.1,511.9z M239.1,511.9L239.1,511.9L239.1,511.9z
			 M254.9,535c0-0.5-0.1-0.9-0.2-1.4c-0.2-0.5-0.4-0.9-0.6-1.3c-0.3-0.4-0.6-0.7-1-0.9c-0.4-0.2-0.8-0.4-1.2-0.4l-5.2-0.2v7.7
			l5.2,0.2c0.5,0,0.9-0.1,1.2-0.3c0.4-0.2,0.7-0.5,0.9-0.8c0.3-0.4,0.5-0.8,0.6-1.2C254.9,535.9,254.9,535.5,254.9,535L254.9,535z
			 M254.9,535L254.9,535L254.9,535z M253.9,521.6c0-0.5-0.1-0.9-0.2-1.3c-0.2-0.4-0.3-0.8-0.6-1.1c-0.3-0.3-0.6-0.6-0.9-0.8
			c-0.4-0.2-0.8-0.3-1.2-0.3l-4.2-0.2v6.6l4.1,0.2c0.5,0,0.9,0,1.2-0.2c0.4-0.2,0.7-0.4,0.9-0.6c0.3-0.3,0.5-0.6,0.6-1
			C253.8,522.5,253.9,522.1,253.9,521.6L253.9,521.6z M253.9,521.6L253.9,521.6L253.9,521.6z M273,529.2c0,1.3,0.2,2.5,0.5,3.6
			c0.4,1.1,0.9,2.1,1.6,2.9c0.6,0.8,1.4,1.5,2.3,2c0.9,0.5,1.9,0.7,3,0.8c1.1,0,2.1-0.2,3-0.7c0.9-0.4,1.7-1.1,2.3-1.9
			c0.7-0.8,1.2-1.7,1.6-2.9c0.4-1.1,0.6-2.3,0.6-3.5c0-1.3-0.2-2.4-0.6-3.6c-0.4-1.1-0.9-2.1-1.6-2.9c-0.6-0.9-1.4-1.5-2.3-2
			c-0.9-0.5-1.9-0.7-3-0.8c-1.1,0-2.1,0.2-3,0.7c-0.9,0.5-1.7,1.1-2.3,1.9c-0.7,0.8-1.2,1.7-1.6,2.8
			C273.2,526.7,273,527.9,273,529.2L273,529.2z M273,529.2L273,529.2L273,529.2z M265.4,529.1c0-1.6,0.2-3.2,0.5-4.6
			c0.4-1.5,0.9-2.9,1.5-4.2c0.6-1.3,1.4-2.5,2.4-3.5c0.9-1,1.9-1.9,3-2.7c1.1-0.7,2.3-1.3,3.6-1.7c1.3-0.4,2.6-0.6,4-0.6
			c1.4,0,2.7,0.2,4,0.7c1.3,0.4,2.4,1,3.6,1.8c1.1,0.8,2.1,1.7,3,2.8c0.9,1.1,1.7,2.3,2.4,3.6c0.6,1.3,1.2,2.7,1.5,4.2
			c0.4,1.5,0.6,3,0.6,4.7c0,1.6-0.2,3.2-0.6,4.7c-0.3,1.5-0.9,2.8-1.5,4.1c-0.6,1.3-1.4,2.4-2.4,3.5c-0.9,1-1.9,1.9-3,2.7
			c-1.1,0.7-2.3,1.3-3.6,1.7c-1.3,0.4-2.6,0.6-4,0.6c-1.4,0-2.7-0.2-4-0.7c-1.3-0.4-2.5-1-3.6-1.8c-1.1-0.8-2.1-1.7-3-2.8
			c-0.9-1.1-1.7-2.3-2.4-3.6c-0.7-1.3-1.2-2.7-1.5-4.2C265.6,532.3,265.4,530.7,265.4,529.1L265.4,529.1z M265.4,529.1L265.4,529.1
			L265.4,529.1z M299.5,513.5c0-0.3,0.1-0.5,0.2-0.7c0.2-0.2,0.4-0.3,0.6-0.3h5.8c0.2,0,0.4,0.1,0.6,0.3c0.2,0.2,0.3,0.4,0.3,0.7
			v24.9h10.8c0.2,0,0.4,0.1,0.6,0.3c0.2,0.2,0.2,0.4,0.2,0.7v6c0,0.3-0.1,0.5-0.2,0.7c-0.2,0.2-0.4,0.3-0.6,0.3h-17.5
			c-0.6,0-0.9-0.3-0.9-1V513.5L299.5,513.5z M299.5,513.5L299.5,513.5L299.5,513.5z M357.8,512.9c0.2,0.1,0.4,0.3,0.5,0.6
			c0.1,0.2,0.1,0.5-0.1,0.9l-3.3,5.7c-0.2,0.3-0.3,0.4-0.5,0.5c-0.2,0-0.4,0-0.6-0.2c-0.6-0.5-1.3-0.9-2.1-1.2
			c-0.8-0.2-1.6-0.4-2.4-0.3c-1.1,0.1-2.1,0.4-2.9,0.9c-0.9,0.5-1.7,1.2-2.4,2.1c-0.6,0.9-1.1,1.9-1.5,3c-0.4,1.1-0.6,2.3-0.6,3.6
			c0,1.3,0.2,2.4,0.6,3.5c0.4,1.1,0.9,2,1.5,2.8c0.7,0.8,1.4,1.4,2.4,1.8c0.9,0.4,1.9,0.6,2.9,0.5c0.9-0.1,1.7-0.3,2.5-0.6
			c0.8-0.4,1.5-0.8,2.1-1.4c0.2-0.2,0.4-0.3,0.6-0.2c0.2,0,0.3,0.2,0.5,0.4l3.3,5.4c0.2,0.3,0.2,0.6,0.1,0.9
			c-0.1,0.2-0.3,0.4-0.5,0.6c-1.2,1-2.5,1.9-3.9,2.5c-1.4,0.6-2.9,1-4.5,1.1c-1.4,0.1-2.7,0-4-0.4c-1.3-0.3-2.5-0.8-3.6-1.5
			c-1.1-0.7-2.1-1.6-3-2.5c-0.9-1-1.7-2.1-2.4-3.4c-0.6-1.2-1.2-2.6-1.5-4.1c-0.4-1.4-0.6-3-0.6-4.6c0-1.6,0.2-3.2,0.6-4.7
			c0.3-1.5,0.9-2.9,1.5-4.3c0.6-1.3,1.4-2.6,2.4-3.7c0.9-1.1,1.9-2.1,3-2.9c1.1-0.8,2.3-1.5,3.6-2c1.3-0.5,2.6-0.8,4-0.9
			c1.6-0.1,3,0,4.4,0.5C355.2,511.4,356.5,512,357.8,512.9L357.8,512.9z M357.8,512.9L357.8,512.9L357.8,512.9z M362.5,511.2
			c0-0.3,0.1-0.5,0.2-0.7c0.2-0.2,0.4-0.3,0.6-0.3l5.8-0.5c0.2,0,0.4,0.1,0.6,0.2c0.2,0.2,0.3,0.4,0.3,0.7v24.9l10.8-0.9
			c0.2,0,0.4,0.1,0.6,0.2c0.2,0.2,0.3,0.4,0.3,0.7v6c0,0.3-0.1,0.5-0.2,0.7c-0.2,0.2-0.4,0.4-0.6,0.4l-17.5,1.5
			c-0.6,0.1-0.9-0.2-0.9-0.9V511.2L362.5,511.2z M362.5,511.2L362.5,511.2L362.5,511.2z M393.7,527.6c0,1.1,0.1,2.1,0.4,2.8
			c0.2,0.8,0.6,1.3,1,1.8c0.4,0.4,0.9,0.7,1.5,0.9c0.6,0.2,1.2,0.2,1.8,0.1c0.6-0.1,1.3-0.3,1.8-0.6c0.6-0.3,1.1-0.8,1.5-1.4
			c0.5-0.6,0.8-1.3,1-2.1c0.2-0.8,0.4-1.7,0.4-2.7v-19.4c0-0.3,0.1-0.5,0.3-0.7c0.2-0.2,0.4-0.3,0.6-0.4l5.7-0.8
			c0.3,0,0.6,0.1,0.7,0.2c0.2,0.2,0.2,0.4,0.2,0.6v19.3c0,2.7-0.3,5-1,6.9c-0.6,1.9-1.6,3.5-2.7,4.7s-2.4,2.2-3.9,2.9
			c-1.5,0.7-3.1,1.1-4.7,1.3c-1.7,0.2-3.2,0.2-4.7-0.2c-1.5-0.3-2.8-0.9-3.9-1.9c-1.1-1-2.1-2.3-2.7-4c-0.7-1.7-1-3.9-1-6.6v-19.3
			c0-0.2,0.1-0.5,0.2-0.7c0.2-0.2,0.3-0.4,0.6-0.4l5.8-0.8c0.2,0,0.4,0.1,0.6,0.2c0.2,0.2,0.3,0.4,0.3,0.7V527.6L393.7,527.6z
			 M393.7,527.6L393.7,527.6L393.7,527.6z M416.4,505.1c0-0.3,0.1-0.6,0.2-0.8c0.1-0.2,0.3-0.3,0.6-0.4l12.9-2.1
			c1.2-0.2,2.2-0.1,3.2,0.2c1,0.3,1.9,0.9,2.6,1.7c0.8,0.8,1.4,1.7,1.8,2.8c0.4,1.1,0.7,2.4,0.7,3.8c0,1.1-0.2,2.2-0.5,3.2
			c-0.3,1-0.7,2-1.3,2.8c0.9,0.9,1.7,1.9,2.2,3.2c0.6,1.3,0.9,2.7,0.9,4.3c0,1.4-0.2,2.8-0.7,4.1c-0.4,1.3-1,2.5-1.8,3.6
			c-0.8,1.1-1.7,2-2.7,2.7c-1,0.7-2.1,1.2-3.2,1.3l-14.1,2.4c-0.2,0-0.5,0-0.6-0.2c-0.2-0.1-0.2-0.4-0.2-0.7V505.1L416.4,505.1z
			 M416.4,505.1L416.4,505.1L416.4,505.1z M432.1,524.8c0-0.5-0.1-0.9-0.2-1.3c-0.2-0.4-0.4-0.8-0.6-1.1c-0.3-0.3-0.6-0.6-1-0.7
			c-0.4-0.2-0.8-0.2-1.2-0.2l-5.1,0.9v7.6l5.1-0.9c0.4-0.1,0.8-0.2,1.2-0.5c0.4-0.3,0.7-0.6,0.9-1c0.3-0.4,0.5-0.9,0.6-1.3
			C432,525.8,432.1,525.3,432.1,524.8L432.1,524.8z M432.1,524.8L432.1,524.8L432.1,524.8z M431,511.7c0-0.5-0.1-0.9-0.2-1.2
			c-0.2-0.4-0.3-0.7-0.6-0.9c-0.2-0.3-0.6-0.5-0.9-0.6c-0.4-0.1-0.8-0.1-1.2-0.1l-4.2,0.7v6.6l4.1-0.7c0.5-0.1,0.9-0.2,1.2-0.4
			s0.7-0.5,0.9-0.9c0.2-0.3,0.5-0.7,0.6-1.1C431,512.6,431,512.2,431,511.7L431,511.7z M431,511.7L431,511.7L431,511.7z
			 M443.8,500.2c0-0.3,0.1-0.6,0.2-0.8c0.2-0.2,0.4-0.4,0.6-0.4l19.1-4c0.3,0,0.5,0,0.7,0.2c0.2,0.2,0.2,0.4,0.2,0.8v5.7
			c0,0.2-0.1,0.5-0.2,0.8c-0.2,0.3-0.4,0.5-0.7,0.5l-12.5,2.6v5.7l9.7-2c0.2-0.1,0.4,0,0.6,0.1c0.2,0.1,0.2,0.3,0.2,0.6v5
			c0,0.2-0.1,0.4-0.2,0.7c-0.1,0.2-0.3,0.4-0.6,0.4l-9.7,2v5.8l13-2.7c0.6-0.1,0.9,0.2,0.9,0.9v5.7c0,0.2,0,0.3-0.2,0.5
			c0,0.4-0.3,0.7-0.8,0.8l-19.5,4.1c-0.3,0.1-0.5,0-0.6-0.1c-0.2-0.1-0.2-0.3-0.2-0.7V500.2L443.8,500.2z"/>
	</g>
	<polygon class="st0" points="297.2,51 301.8,67.1 317.6,63.9 306.5,75.9 317.2,88.5 301.5,84.5 296.4,100.3 291.8,84.2 276,87.3 
		287.1,75.3 276.4,62.7 292.1,66.8 297.2,51 	"/>
	<path class="st2" d="M151,143.2c-1.6,23.9-2.5,48.5-5.6,72.2l13-0.1c0.4-19.2,2.1-38.5,3.3-56.7l15.1,56.8h13.7l20.4-56.7
		l-1.2,55.9l12.9,0.8l1.6-72.1l-20-0.2c-6.3,17.8-13.4,35.2-18.8,53.3l-14.4-53.2L151,143.2L151,143.2z"/>
	<path class="st8" d="M151,143.2c-1.6,23.9-2.5,48.5-5.6,72.2l13-0.1c0.4-19.2,2.1-38.5,3.3-56.7l15.1,56.8h13.7l20.4-56.7
		l-1.2,55.9l12.9,0.8l1.6-72.1l-20-0.2c-6.3,17.8-13.4,35.2-18.8,53.3l-14.4-53.2L151,143.2L151,143.2z"/>
	<path class="st2" d="M240.6,163.6l-1.3,9.5c6.8-2.6,13.6-4.7,20.5-4.1c7.5,0.4,10.4,5.6,6.9,9.8c-0.7,0.9-1.2,1-2.2,1.4
		c-9.8,4.2-24.7,4-30.4,14.9c-0.6,1.1-0.8,1.7-1,2.9c-1.9,10.5,3,15.1,11.5,18c5.1,0.6,10.3,1,15.3-0.2l2.4-9.5
		c-5.2,2.5-10.7,2.5-14.8-0.2c-3.5-3.1-2-9.4,2.4-11.4c6.1-3.4,13.7-3.3,18.1-7.3l-1.3,27.7l13.6-0.1c0.4-13.7,1-27.2,1.6-40.6
		c0.1-2.5,0.2-3.8-1-6.1c-2.8-5.5-8.5-7.6-16.3-8C256.5,160.1,248.5,161.4,240.6,163.6L240.6,163.6z"/>
	<path class="st8" d="M240.6,163.6l-1.3,9.5c6.8-2.6,13.6-4.7,20.5-4.1c7.5,0.4,10.4,5.6,6.9,9.8c-0.7,0.9-1.2,1-2.2,1.4
		c-9.8,4.2-24.7,4-30.4,14.9c-0.6,1.1-0.8,1.7-1,2.9c-1.9,10.5,3,15.1,11.5,18c5.1,0.6,10.3,1,15.3-0.2l2.4-9.5
		c-5.2,2.5-10.7,2.5-14.8-0.2c-3.5-3.1-2-9.4,2.4-11.4c6.1-3.4,13.7-3.3,18.1-7.3l-1.3,27.7l13.6-0.1c0.4-13.7,1-27.2,1.6-40.6
		c0.1-2.5,0.2-3.8-1-6.1c-2.8-5.5-8.5-7.6-16.3-8C256.5,160.1,248.5,161.4,240.6,163.6L240.6,163.6z"/>
	<path class="st2" d="M347.4,163.9l-1.3,9.5c6.8-2.6,13.6-4.7,20.5-4.1c7.5,0.4,10.4,5.6,6.9,9.8c-0.7,0.9-1.2,1-2.2,1.4
		c-9.8,4.2-24.7,4-30.4,14.9c-0.6,1.1-0.8,1.7-1,2.9c-1.9,10.5,3,15.1,11.5,18c5.1,0.6,10.3,1,15.3-0.2l2.4-9.5
		c-5.2,2.5-10.7,2.5-14.8-0.2c-3.5-3.1-2-9.4,2.4-11.4c6.1-3.4,13.7-3.3,18.1-7.3l-1.3,27.7l13.6-0.1c0.4-13.7,1-27.2,1.6-40.6
		c0.1-2.5,0.2-3.8-1-6.1c-2.8-5.5-8.5-7.6-16.3-8C363.3,160.4,355.3,161.7,347.4,163.9L347.4,163.9z"/>
	<path class="st8" d="M347.4,163.9l-1.3,9.5c6.8-2.6,13.6-4.7,20.5-4.1c7.5,0.4,10.4,5.6,6.9,9.8c-0.7,0.9-1.2,1-2.2,1.4
		c-9.8,4.2-24.7,4-30.4,14.9c-0.6,1.1-0.8,1.7-1,2.9c-1.9,10.5,3,15.1,11.5,18c5.1,0.6,10.3,1,15.3-0.2l2.4-9.5
		c-5.2,2.5-10.7,2.5-14.8-0.2c-3.5-3.1-2-9.4,2.4-11.4c6.1-3.4,13.7-3.3,18.1-7.3l-1.3,27.7l13.6-0.1c0.4-13.7,1-27.2,1.6-40.6
		c0.1-2.5,0.2-3.8-1-6.1c-2.8-5.5-8.5-7.6-16.3-8C363.3,160.4,355.3,161.7,347.4,163.9L347.4,163.9z"/>
	<path class="st2" d="M332.7,162.5l0.9,11.7c-10.3-4.2-17.3-3.7-22.5,0.2c-6,5.5-7.2,14.6-4.7,22.6c0.7,2.2,1.1,3,2.7,4.7
		c6,6,14.4,3.9,22.8,1.6l-1.6,11.6c-10.8,2.3-20.5,2.7-27.3-1.1c-8.5-5.2-10.1-11.6-11.3-18.5c-1.8-12.3,0.4-21.4,8.5-29.5
		C305.2,160.6,321,158.8,332.7,162.5L332.7,162.5z"/>
	<path class="st8" d="M332.7,162.5l0.9,11.7c-10.3-4.2-17.3-3.7-22.5,0.2c-6,5.5-7.2,14.6-4.7,22.6c0.7,2.2,1.1,3,2.7,4.7
		c6,6,14.4,3.9,22.8,1.6l-1.6,11.6c-10.8,2.3-20.5,2.7-27.3-1.1c-8.5-5.2-10.1-11.6-11.3-18.5c-1.8-12.3,0.4-21.4,8.5-29.5
		C305.2,160.6,321,158.8,332.7,162.5L332.7,162.5z"/>
	<path class="st2" d="M443.9,202.9c-0.6,4-1.4,8.1-1.4,11.8c-7.4,1.7-14.9,2.3-22.8,1.7c-2.1-0.2-3.5-0.4-5.5-1
		c-10.1-3.2-16-11-16.2-24.9c0-13.9,5.6-25.3,19.2-29.4c21.4-3.6,32.6,5.2,31,27.2l-36.4-0.1c-0.9,11.2,3.6,16.6,11.5,18.4
		c1.7,0.4,2.5,0.4,4.2,0.3C433.6,206.6,439.2,205.5,443.9,202.9L443.9,202.9z M443.9,202.9L443.9,202.9L443.9,202.9z M422.8,141.6
		l14.8,0l-8.8,13.1l-10.6-0.6L422.8,141.6L422.8,141.6z M422.8,141.6L422.8,141.6L422.8,141.6z M412.2,182l23-0.2l-0.2-3.5
		c0-0.9-0.1-1.3-0.3-2.2c-1.6-5.3-5.3-7.2-10.7-6.6c-2.8,0.3-5.1,0.9-7.3,2.7C414,174.5,412.5,177.8,412.2,182L412.2,182z"/>
	<path class="st8" d="M443.9,202.9c-0.6,4-1.4,8.1-1.4,11.8c-7.4,1.7-14.9,2.3-22.8,1.7c-2.1-0.2-3.5-0.4-5.5-1
		c-10.1-3.2-16-11-16.2-24.9c0-13.9,5.6-25.3,19.2-29.4c21.4-3.6,32.6,5.2,31,27.2l-36.4-0.1c-0.9,11.2,3.6,16.6,11.5,18.4
		c1.7,0.4,2.5,0.4,4.2,0.3C433.6,206.6,439.2,205.5,443.9,202.9L443.9,202.9z M443.9,202.9L443.9,202.9L443.9,202.9z M422.8,141.6
		l14.8,0l-8.8,13.1l-10.6-0.6L422.8,141.6L422.8,141.6z M422.8,141.6L422.8,141.6L422.8,141.6z M412.2,182l23-0.2l-0.2-3.5
		c0-0.9-0.1-1.3-0.3-2.2c-1.6-5.3-5.3-7.2-10.7-6.6c-2.8,0.3-5.1,0.9-7.3,2.7C414,174.5,412.5,177.8,412.2,182L412.2,182z"/>
	<polygon class="st2" points="422.8,141.6 437.6,141.6 428.8,154.7 418.3,154.1 422.8,141.6 	"/>
	<polygon class="st8" points="422.8,141.6 437.6,141.6 428.8,154.7 418.3,154.1 422.8,141.6 	"/>
	<path class="st0" d="M151,143.2c-1.6,23.9-2.5,48.5-5.6,72.2l13-0.1c0.4-19.2,2.1-38.5,3.3-56.7l15.1,56.8h13.7l20.4-56.7
		l-1.2,55.9l12.9,0.8l1.6-72.1l-20-0.2c-6.3,17.8-13.4,35.2-18.8,53.3l-14.4-53.2L151,143.2L151,143.2z"/>
	<path class="st0" d="M240.6,163.6l-1.3,9.5c6.8-2.6,13.6-4.7,20.5-4.1c7.5,0.4,10.4,5.6,6.9,9.8c-0.7,0.9-1.2,1-2.2,1.4
		c-9.8,4.2-24.7,4-30.4,14.9c-0.6,1.1-0.8,1.7-1,2.9c-1.9,10.5,3,15.1,11.5,18c5.1,0.6,10.3,1,15.3-0.2l2.4-9.5
		c-5.2,2.5-10.7,2.5-14.8-0.2c-3.5-3.1-2-9.4,2.4-11.4c6.1-3.4,13.7-3.3,18.1-7.3l-1.3,27.7l13.6-0.1c0.4-13.7,1-27.2,1.6-40.6
		c0.1-2.5,0.2-3.8-1-6.1c-2.8-5.5-8.5-7.6-16.3-8C256.5,160.1,248.5,161.4,240.6,163.6L240.6,163.6z"/>
	<path class="st0" d="M347.4,163.9l-1.3,9.5c6.8-2.6,13.6-4.7,20.5-4.1c7.5,0.4,10.4,5.6,6.9,9.8c-0.7,0.9-1.2,1-2.2,1.4
		c-9.8,4.2-24.7,4-30.4,14.9c-0.6,1.1-0.8,1.7-1,2.9c-1.9,10.5,3,15.1,11.5,18c5.1,0.6,10.3,1,15.3-0.2l2.4-9.5
		c-5.2,2.5-10.7,2.5-14.8-0.2c-3.5-3.1-2-9.4,2.4-11.4c6.1-3.4,13.7-3.3,18.1-7.3l-1.3,27.7l13.6-0.1c0.4-13.7,1-27.2,1.6-40.6
		c0.1-2.5,0.2-3.8-1-6.1c-2.8-5.5-8.5-7.6-16.3-8C363.3,160.4,355.3,161.7,347.4,163.9L347.4,163.9z"/>
	<path class="st0" d="M332.7,162.5l0.9,11.7c-10.3-4.2-17.3-3.7-22.5,0.2c-6,5.5-7.2,14.6-4.7,22.6c0.7,2.2,1.1,3,2.7,4.7
		c6,6,14.4,3.9,22.8,1.6l-1.6,11.6c-10.8,2.3-20.5,2.7-27.3-1.1c-8.5-5.2-10.1-11.6-11.3-18.5c-1.8-12.3,0.4-21.4,8.5-29.5
		C305.2,160.6,321,158.8,332.7,162.5L332.7,162.5z"/>
	<path class="st0" d="M443.9,202.9c-0.6,4-1.4,8.1-1.4,11.8c-7.4,1.7-14.9,2.3-22.8,1.7c-2.1-0.2-3.5-0.4-5.5-1
		c-10.1-3.2-16-11-16.2-24.9c0-13.9,5.6-25.3,19.2-29.4c21.4-3.6,32.6,5.2,31,27.2l-36.4-0.1c-0.9,11.2,3.6,16.6,11.5,18.4
		c1.7,0.4,2.5,0.4,4.2,0.3C433.6,206.6,439.2,205.5,443.9,202.9L443.9,202.9z M443.9,202.9L443.9,202.9L443.9,202.9z M422.8,141.6
		l14.8,0l-8.8,13.1l-10.6-0.6L422.8,141.6L422.8,141.6z M422.8,141.6L422.8,141.6L422.8,141.6z M412.2,182l23-0.2l-0.2-3.5
		c0-0.9-0.1-1.3-0.3-2.2c-1.6-5.3-5.3-7.2-10.7-6.6c-2.8,0.3-5.1,0.9-7.3,2.7C414,174.5,412.5,177.8,412.2,182L412.2,182z"/>
	<polygon class="st0" points="422.8,141.6 437.6,141.6 428.8,154.7 418.3,154.1 422.8,141.6 	"/>
	<path class="st2" d="M411.9,418.2c-0.4,2.3-0.9,4.6-0.9,6.7c-4.8,1-9.6,1.3-14.6,1c-1.4-0.1-2.3-0.2-3.6-0.6
		c-6.5-1.9-10.3-6.3-10.4-14.3c0-7.9,3.6-14.5,12.3-16.8c13.8-2,20.9,3,19.9,15.6l-23.4-0.1c-0.6,6.4,2.3,9.5,7.4,10.5
		c1.1,0.2,1.6,0.2,2.7,0.2C405.3,420.2,408.9,419.6,411.9,418.2L411.9,418.2z M411.9,418.2L411.9,418.2L411.9,418.2z M391.6,406.2
		l14.8-0.1l-0.1-2c0-0.5,0-0.7-0.2-1.3c-1-3.1-3.4-4.2-6.9-3.8c-1.7,0.2-3.2,0.5-4.6,1.6C392.7,401.9,391.8,403.8,391.6,406.2
		L391.6,406.2z"/>
	<path class="st9" d="M411.9,418.2c-0.4,2.3-0.9,4.6-0.9,6.7c-4.8,1-9.6,1.3-14.6,1c-1.4-0.1-2.3-0.2-3.6-0.6
		c-6.5-1.9-10.3-6.3-10.4-14.3c0-7.9,3.6-14.5,12.3-16.8c13.8-2,20.9,3,19.9,15.6l-23.4-0.1c-0.6,6.4,2.3,9.5,7.4,10.5
		c1.1,0.2,1.6,0.2,2.7,0.2C405.3,420.2,408.9,419.6,411.9,418.2L411.9,418.2z M411.9,418.2L411.9,418.2L411.9,418.2z M391.6,406.2
		l14.8-0.1l-0.1-2c0-0.5,0-0.7-0.2-1.3c-1-3.1-3.4-4.2-6.9-3.8c-1.7,0.2-3.2,0.5-4.6,1.6C392.7,401.9,391.8,403.8,391.6,406.2
		L391.6,406.2z"/>
	<path class="st2" d="M370.8,386.8l-8.5,2l0.1,5.6h-5l-0.4,5.7h0.4v0.1h4.1l-0.5,17.9c-0.7,7,4.5,9.5,16.5,6.8
		c0.1-1.9,0.2-3.6,0.7-5.4l-3.9,0.4c-2.7,0-4.6-0.9-4.5-3.9l0.7-15.8h8.4v-5.5v-0.2h-8.2V386.8L370.8,386.8z"/>
	<path class="st9" d="M370.8,386.8l-8.5,2l0.1,5.6h-5l-0.4,5.7h0.4v0.1h4.1l-0.5,17.9c-0.7,7,4.5,9.5,16.5,6.8
		c0.1-1.9,0.2-3.6,0.7-5.4l-3.9,0.4c-2.7,0-4.6-0.9-4.5-3.9l0.7-15.8h8.4v-5.5v-0.2h-8.2V386.8L370.8,386.8z"/>
	<path class="st2" d="M342.4,394.2v4.2c2-3.7,7.5-6,12.1-4.6l-0.2,7c-5.2-1.1-8.8,0.1-10.6,3.6c-2.7,3.8-1.7,13.8-1.8,20.7l-9.2-0.2
		c1-9.5,1.4-19.7,0.9-30.8L342.4,394.2L342.4,394.2z"/>
	<path class="st9" d="M342.4,394.2v4.2c2-3.7,7.5-6,12.1-4.6l-0.2,7c-5.2-1.1-8.8,0.1-10.6,3.6c-2.7,3.8-1.7,13.8-1.8,20.7l-9.2-0.2
		c1-9.5,1.4-19.7,0.9-30.8L342.4,394.2L342.4,394.2z"/>
	<path class="st2" d="M308.8,393.3c11.8,0.1,18.1,5.4,18.1,16.5c-0.4,10.4-6.8,15.5-18.1,16.5c-11.4-0.2-17.6-5.5-18.1-16.5
		C291.1,401.3,296.1,394.8,308.8,393.3L308.8,393.3z M308.8,393.3L308.8,393.3L308.8,393.3z M299.8,409.9c0.2-5.8,3.4-9.9,9.9-9.8
		c6.2,0.1,7.6,4.4,8.2,10.8c-0.7,6-3.8,8.8-7.9,9.3c-0.9,0.1-1.7,0.1-2.6,0C302,419.6,299.4,416.2,299.8,409.9L299.8,409.9z"/>
	<path class="st9" d="M308.8,393.3c11.8,0.1,18.1,5.4,18.1,16.5c-0.4,10.4-6.8,15.5-18.1,16.5c-11.4-0.2-17.6-5.5-18.1-16.5
		C291.1,401.3,296.1,394.8,308.8,393.3L308.8,393.3z M308.8,393.3L308.8,393.3L308.8,393.3z M299.8,409.9c0.2-5.8,3.4-9.9,9.9-9.8
		c6.2,0.1,7.6,4.4,8.2,10.8c-0.7,6-3.8,8.8-7.9,9.3c-0.9,0.1-1.7,0.1-2.6,0C302,419.6,299.4,416.2,299.8,409.9L299.8,409.9z"/>
	<path class="st2" d="M251.8,395c8.3-1.8,16.5-2.8,24.1-0.7c6.9,2,12.3,8.2,9.6,20.5c-3.6,14.4-20.2,13.5-25.5,6.2
		c-0.8,5.8-0.4,11.6-0.6,18.4l-9.3,0C251.2,424.8,251.3,410.3,251.8,395L251.8,395z M251.8,395L251.8,395L251.8,395z M263.1,400
		c1.9-0.6,4.5-0.6,6.7-0.3c2,0.3,3.6,1.1,5,2.5c2.8,2.7,2.9,7,1.4,12.3c-2.6,6.1-9.1,6.2-13,3.5c-2.4-1.7-2.9-3.3-3-6.1
		c-0.1-2.9,0-5.7,0.3-8.5C260.8,401.2,260.7,400.8,263.1,400L263.1,400z"/>
	<path class="st9" d="M251.8,395c8.3-1.8,16.5-2.8,24.1-0.7c6.9,2,12.3,8.2,9.6,20.5c-3.6,14.4-20.2,13.5-25.5,6.2
		c-0.8,5.8-0.4,11.6-0.6,18.4l-9.3,0C251.2,424.8,251.3,410.3,251.8,395L251.8,395z M251.8,395L251.8,395L251.8,395z M263.1,400
		c1.9-0.6,4.5-0.6,6.7-0.3c2,0.3,3.6,1.1,5,2.5c2.8,2.7,2.9,7,1.4,12.3c-2.6,6.1-9.1,6.2-13,3.5c-2.4-1.7-2.9-3.3-3-6.1
		c-0.1-2.9,0-5.7,0.3-8.5C260.8,401.2,260.7,400.8,263.1,400L263.1,400z"/>
	<path class="st2" d="M244.3,394.7l0.1,5.9c-6.8-1.9-11.8-1.5-12.9,0.9c-1.2,2,1.3,3.6,4.6,5.6c5.8,3.9,10,8.1,6.8,13.9
		c-3.8,4.8-8.4,5.1-13,4.9c-3.2-0.2-6.2-0.7-9.3-1.5l-0.9-6.2c4,1.2,8.2,1.9,12.7,1.7c3.7-0.9,3.4-4.9,0-6.8
		c-9.4-6.2-13.7-12.2-6.5-18C230.7,392.4,239.9,393,244.3,394.7L244.3,394.7z"/>
	<path class="st9" d="M244.3,394.7l0.1,5.9c-6.8-1.9-11.8-1.5-12.9,0.9c-1.2,2,1.3,3.6,4.6,5.6c5.8,3.9,10,8.1,6.8,13.9
		c-3.8,4.8-8.4,5.1-13,4.9c-3.2-0.2-6.2-0.7-9.3-1.5l-0.9-6.2c4,1.2,8.2,1.9,12.7,1.7c3.7-0.9,3.4-4.9,0-6.8
		c-9.4-6.2-13.7-12.2-6.5-18C230.7,392.4,239.9,393,244.3,394.7L244.3,394.7z"/>
	<path class="st2" d="M181.6,425.3l32.4-0.1l0.3-6.6l-22.4,0.3l0.4-11.7l19.7-0.1l0-6.5l-19.2,0.5l0.4-11.4l22,0.2l0.2-6.3
		l-31.9-0.2C183.5,397.3,182.2,411.5,181.6,425.3L181.6,425.3z"/>
	<path class="st9" d="M181.6,425.3l32.4-0.1l0.3-6.6l-22.4,0.3l0.4-11.7l19.7-0.1l0-6.5l-19.2,0.5l0.4-11.4l22,0.2l0.2-6.3
		l-31.9-0.2C183.5,397.3,182.2,411.5,181.6,425.3L181.6,425.3z"/>
	<path class="st0" d="M411.9,418.2c-0.4,2.3-0.9,4.6-0.9,6.7c-4.8,1-9.6,1.3-14.6,1c-1.4-0.1-2.3-0.2-3.6-0.6
		c-6.5-1.9-10.3-6.3-10.4-14.3c0-7.9,3.6-14.5,12.3-16.8c13.8-2,20.9,3,19.9,15.6l-23.4-0.1c-0.6,6.4,2.3,9.5,7.4,10.5
		c1.1,0.2,1.6,0.2,2.7,0.2C405.3,420.2,408.9,419.6,411.9,418.2L411.9,418.2z M411.9,418.2L411.9,418.2L411.9,418.2z M391.6,406.2
		l14.8-0.1l-0.1-2c0-0.5,0-0.7-0.2-1.3c-1-3.1-3.4-4.2-6.9-3.8c-1.7,0.2-3.2,0.5-4.6,1.6C392.7,401.9,391.8,403.8,391.6,406.2
		L391.6,406.2z"/>
	<path class="st0" d="M370.8,386.8l-8.5,2l0.1,5.6h-5l-0.4,5.7h0.4v0.1h4.1l-0.5,17.9c-0.7,7,4.5,9.5,16.5,6.8
		c0.1-1.9,0.2-3.6,0.7-5.4l-3.9,0.4c-2.7,0-4.6-0.9-4.5-3.9l0.7-15.8h8.4v-5.5v-0.2h-8.2V386.8L370.8,386.8z"/>
	<path class="st0" d="M342.4,394.2v4.2c2-3.7,7.5-6,12.1-4.6l-0.2,7c-5.2-1.1-8.8,0.1-10.6,3.6c-2.7,3.8-1.7,13.8-1.8,20.7l-9.2-0.2
		c1-9.5,1.4-19.7,0.9-30.8L342.4,394.2L342.4,394.2z"/>
	<path class="st0" d="M308.8,393.3c11.8,0.1,18.1,5.4,18.1,16.5c-0.4,10.4-6.8,15.5-18.1,16.5c-11.4-0.2-17.6-5.5-18.1-16.5
		C291.1,401.3,296.1,394.8,308.8,393.3L308.8,393.3z M308.8,393.3L308.8,393.3L308.8,393.3z M299.8,409.9c0.2-5.8,3.4-9.9,9.9-9.8
		c6.2,0.1,7.6,4.4,8.2,10.8c-0.7,6-3.8,8.8-7.9,9.3c-0.9,0.1-1.7,0.1-2.6,0C302,419.6,299.4,416.2,299.8,409.9L299.8,409.9z"/>
	<path class="st0" d="M251.8,395c8.3-1.8,16.5-2.8,24.1-0.7c6.9,2,12.3,8.2,9.6,20.5c-3.6,14.4-20.2,13.5-25.5,6.2
		c-0.8,5.8-0.4,11.6-0.6,18.4l-9.3,0C251.2,424.8,251.3,410.3,251.8,395L251.8,395z M251.8,395L251.8,395L251.8,395z M263.1,400
		c1.9-0.6,4.5-0.6,6.7-0.3c2,0.3,3.6,1.1,5,2.5c2.8,2.7,2.9,7,1.4,12.3c-2.6,6.1-9.1,6.2-13,3.5c-2.4-1.7-2.9-3.3-3-6.1
		c-0.1-2.9,0-5.7,0.3-8.5C260.8,401.2,260.7,400.8,263.1,400L263.1,400z"/>
	<path class="st0" d="M244.3,394.7l0.1,5.9c-6.8-1.9-11.8-1.5-12.9,0.9c-1.2,2,1.3,3.6,4.6,5.6c5.8,3.9,10,8.1,6.8,13.9
		c-3.8,4.8-8.4,5.1-13,4.9c-3.2-0.2-6.2-0.7-9.3-1.5l-0.9-6.2c4,1.2,8.2,1.9,12.7,1.7c3.7-0.9,3.4-4.9,0-6.8
		c-9.4-6.2-13.7-12.2-6.5-18C230.7,392.4,239.9,393,244.3,394.7L244.3,394.7z"/>
	<path class="st0" d="M181.6,425.3l32.4-0.1l0.3-6.6l-22.4,0.3l0.4-11.7l19.7-0.1l0-6.5l-19.2,0.5l0.4-11.4l22,0.2l0.2-6.3
		l-31.9-0.2C183.5,397.3,182.2,411.5,181.6,425.3L181.6,425.3z"/>
</g>
</svg>
