<?xml version="1.0" encoding="UTF-8"?>
<!DOCTYPE svg PUBLIC "-//W3C//DTD SVG 1.1//EN" "http://www.w3.org/Graphics/SVG/1.1/DTD/svg11.dtd">
<svg xmlns="http://www.w3.org/2000/svg" version="1.1" width="198px" height="214px" style="shape-rendering:geometricPrecision; text-rendering:geometricPrecision; image-rendering:optimizeQuality; fill-rule:evenodd; clip-rule:evenodd" xmlns:xlink="http://www.w3.org/1999/xlink">
<g><path style="opacity:0.035" fill="#6e6b6a" d="M 47.5,-0.5 C 48.1667,-0.5 48.8333,-0.5 49.5,-0.5C 48.8333,0.833333 48.1667,0.833333 47.5,-0.5 Z"/></g>
<g><path style="opacity:0.063" fill="#7d7a7b" d="M 59.5,-0.5 C 60.1667,-0.5 60.8333,-0.5 61.5,-0.5C 60.8333,0.833333 60.1667,0.833333 59.5,-0.5 Z"/></g>
<g><path style="opacity:0.094" fill="#686666" d="M 131.5,-0.5 C 131.833,-0.5 132.167,-0.5 132.5,-0.5C 132.315,0.170143 131.981,0.170143 131.5,-0.5 Z"/></g>
<g><path style="opacity:0.016" fill="#6a6869" d="M 143.5,-0.5 C 144.167,-0.5 144.833,-0.5 145.5,-0.5C 144.833,0.833333 144.167,0.833333 143.5,-0.5 Z"/></g>
<g><path style="opacity:0.513" fill="#423f40" d="M -0.5,26.5 C 0.166667,26.5 0.833333,26.5 1.5,26.5C 1.5,42.1667 1.5,57.8333 1.5,73.5C 0.833333,73.1667 0.166667,72.8333 -0.5,72.5C -0.5,57.1667 -0.5,41.8333 -0.5,26.5 Z"/></g>
<g><path style="opacity:1" fill="#fafcfc" d="M 9.5,104.5 C 8.86084,99.3039 7.86084,94.3039 6.5,89.5C 5.82215,82.7876 4.82215,76.1209 3.5,69.5C 66.8333,69.5 130.167,69.5 193.5,69.5C 188.811,95.4488 184.311,121.449 180,147.5C 153.26,168.742 126.093,189.409 98.5,209.5C 71.2439,189.288 44.0773,168.955 17,148.5C 14.0096,133.906 11.5096,119.239 9.5,104.5 Z"/></g>
<g><path style="opacity:1" fill="#f4d939" d="M 29.5,71.5 C 29.8313,99.3384 29.4979,127.005 28.5,154.5C 24.5275,152.026 21.0275,149.026 18,145.5C 14.2629,121.077 10.0963,96.7438 5.5,72.5C 13.4723,71.5023 21.4723,71.169 29.5,71.5 Z"/></g>
<g><path style="opacity:1" fill="#fbf2c1" d="M 29.5,71.5 C 30.8294,99.3362 30.8294,127.336 29.5,155.5C 28.8933,155.376 28.56,155.043 28.5,154.5C 29.4979,127.005 29.8313,99.3384 29.5,71.5 Z"/></g>
<g><path style="opacity:1" fill="#71c5ee" d="M 34.5,71.5 C 44.8333,71.5 55.1667,71.5 65.5,71.5C 65.8332,108.173 65.4999,144.839 64.5,181.5C 54.8078,173.974 44.9745,166.641 35,159.5C 34.5,130.169 34.3334,100.835 34.5,71.5 Z"/></g>
<g><path style="opacity:1" fill="#72c5ee" d="M 83.5,71.5 C 93.8333,71.5 104.167,71.5 114.5,71.5C 114.667,112.835 114.5,154.168 114,195.5C 108.989,199.181 103.989,202.848 99,206.5C 93.7645,203.767 88.9311,200.434 84.5,196.5C 83.5001,154.839 83.1668,113.172 83.5,71.5 Z"/></g>
<g><path style="opacity:1" fill="#6fc4ed" d="M 132.5,71.5 C 142.5,71.5 152.5,71.5 162.5,71.5C 162.667,100.835 162.5,130.169 162,159.5C 152.049,166.449 142.383,173.783 133,181.5C 132.5,144.835 132.333,108.168 132.5,71.5 Z"/></g>
<g><path style="opacity:1" fill="#f6e05b" d="M 168.5,71.5 C 168.169,99.0051 168.502,126.338 169.5,153.5C 169.44,154.043 169.107,154.376 168.5,154.5C 167.171,126.67 167.171,99.0029 168.5,71.5 Z"/></g>
<g><path style="opacity:1" fill="#f4d939" d="M 168.5,71.5 C 176.167,71.5 183.833,71.5 191.5,71.5C 187.265,96.9066 182.599,122.24 177.5,147.5C 174.804,149.509 172.137,151.509 169.5,153.5C 168.502,126.338 168.169,99.0051 168.5,71.5 Z"/></g>
<g><path style="opacity:0.722" fill="#4a4748" d="M 2.5,80.5 C 3.76265,85.0164 4.92932,89.6831 6,94.5C 6.49351,92.8659 6.66018,91.1992 6.5,89.5C 7.86084,94.3039 8.86084,99.3039 9.5,104.5C 8.73209,103.737 8.23209,102.737 8,101.5C 7.83333,102.667 7.66667,103.833 7.5,105C 9.9897,118.104 11.9897,131.271 13.5,144.5C 9.205,123.401 5.53833,102.067 2.5,80.5 Z"/></g>
<g><path style="opacity:0.796" fill="#595657" d="M 191.5,98.5 C 190.462,108.07 188.795,117.403 186.5,126.5C 187.163,116.866 188.829,107.533 191.5,98.5 Z"/></g>
<g><path style="opacity:1" fill="#2a2728" d="M 184.5,25.5 C 184.389,26.1174 184.056,26.6174 183.5,27C 123.332,27.1671 63.3319,27.6671 3.5,28.5C 3.5,28.8333 3.5,29.1667 3.5,29.5C 3.5,41.8333 3.5,54.1667 3.5,66.5C 66.8333,66.5 130.167,66.5 193.5,66.5C 193.833,66.5 194.167,66.5 194.5,66.5C 195.83,60.3693 196.497,53.8693 196.5,47C 196.465,39.7872 196.132,32.6206 195.5,25.5C 196.167,25.8333 196.833,26.1667 197.5,26.5C 197.5,41.8333 197.5,57.1667 197.5,72.5C 195.287,81.112 193.287,89.7787 191.5,98.5C 188.829,107.533 187.163,116.866 186.5,126.5C 185.539,134.597 184.039,142.597 182,150.5C 154.315,171.364 126.815,192.364 99.5,213.5C 98.8333,213.5 98.1667,213.5 97.5,213.5C 70.9276,192.535 43.9276,172.035 16.5,152C 13.9586,150.152 12.9586,147.652 13.5,144.5C 11.9897,131.271 9.9897,118.104 7.5,105C 7.66667,103.833 7.83333,102.667 8,101.5C 8.23209,102.737 8.73209,103.737 9.5,104.5C 11.5096,119.239 14.0096,133.906 17,148.5C 44.0773,168.955 71.2439,189.288 98.5,209.5C 126.093,189.409 153.26,168.742 180,147.5C 184.311,121.449 188.811,95.4488 193.5,69.5C 130.167,69.5 66.8333,69.5 3.5,69.5C 4.82215,76.1209 5.82215,82.7876 6.5,89.5C 6.66018,91.1992 6.49351,92.8659 6,94.5C 4.92932,89.6831 3.76265,85.0164 2.5,80.5C 1.63137,78.283 1.29803,75.9496 1.5,73.5C 1.5,57.8333 1.5,42.1667 1.5,26.5C 4.96192,25.5184 8.62859,25.185 12.5,25.5C 12.5,18.5 12.5,11.5 12.5,4.5C 69.8343,4.33334 127.168,4.50001 184.5,5C 185.816,11.8331 185.816,18.6664 184.5,25.5 Z"/></g>
<g><path style="opacity:1" fill="#fffefa" d="M 3.5,29.5 C 66.8333,29.5 130.167,29.5 193.5,29.5C 193.5,41.8333 193.5,54.1667 193.5,66.5C 130.167,66.5 66.8333,66.5 3.5,66.5C 3.5,54.1667 3.5,41.8333 3.5,29.5 Z"/></g>
<g><path style="opacity:1" fill="#f0d93a" d="M 5.5,31.5 C 67.5,31.5 129.5,31.5 191.5,31.5C 191.5,42.5 191.5,53.5 191.5,64.5C 165.328,64.1689 139.328,64.5022 113.5,65.5C 77.5,65.5 41.5,65.5 5.5,65.5C 5.5,54.1667 5.5,42.8333 5.5,31.5 Z"/></g>
<g><path style="opacity:1" fill="#605627" d="M 166.5,55.5 C 166.833,55.5 167.167,55.5 167.5,55.5C 167.5,57.1667 167.5,58.8333 167.5,60.5C 162.637,60.8195 157.97,60.4861 153.5,59.5C 157.833,59.5 162.167,59.5 166.5,59.5C 166.5,58.1667 166.5,56.8333 166.5,55.5 Z"/></g>
<g><path style="opacity:1" fill="#564c26" d="M 104.5,36.5 C 104.5,44.1667 104.5,51.8333 104.5,59.5C 110.5,59.5 116.5,59.5 122.5,59.5C 116.355,60.4902 110.022,60.8235 103.5,60.5C 103.174,52.3159 103.508,44.3159 104.5,36.5 Z"/></g>
<g><path style="opacity:1" fill="#605527" d="M 95.5,55.5 C 95.5,55.1667 95.5,54.8333 95.5,54.5C 97.8333,54.5 100.167,54.5 102.5,54.5C 102.5,56.5 102.5,58.5 102.5,60.5C 98.1667,60.5 93.8333,60.5 89.5,60.5C 89.5,60.1667 89.5,59.8333 89.5,59.5C 93.5,59.5 97.5,59.5 101.5,59.5C 101.5,58.1667 101.5,56.8333 101.5,55.5C 99.5,55.5 97.5,55.5 95.5,55.5 Z"/></g>
<g><path style="opacity:1" fill="#6d6129" d="M 53.5,58.5 C 54.0431,58.56 54.3764,58.8933 54.5,59.5C 52.0268,60.7969 49.6934,60.7969 47.5,59.5C 49.7354,59.7947 51.7354,59.4614 53.5,58.5 Z"/></g>
<g><path style="opacity:1" fill="#655a28" d="M 26.5,36.5 C 29.2869,35.5233 32.2869,35.19 35.5,35.5C 35.1746,43.3516 35.508,51.0182 36.5,58.5C 38.6834,59.8434 40.6834,59.51 42.5,57.5C 42.5,58.5 42.5,59.5 42.5,60.5C 38.1667,60.5 33.8333,60.5 29.5,60.5C 29.8195,55.6367 29.4861,50.97 28.5,46.5C 28.281,45.325 28.6143,44.325 29.5,43.5C 30.4948,48.7921 30.8282,54.1254 30.5,59.5C 31.8333,59.5 33.1667,59.5 34.5,59.5C 34.5,51.8333 34.5,44.1667 34.5,36.5C 31.8333,36.5 29.1667,36.5 26.5,36.5 Z"/></g>
<g><path style="opacity:1" fill="#91822e" d="M 135.5,36.5 C 135.5,44.1667 135.5,51.8333 135.5,59.5C 137.167,59.5 138.833,59.5 140.5,59.5C 136.5,60.8333 132.5,60.8333 128.5,59.5C 130.167,59.5 131.833,59.5 133.5,59.5C 133.5,58.1667 133.5,56.8333 133.5,55.5C 134.167,49.1667 134.833,42.8333 135.5,36.5 Z"/></g>
<g><path style="opacity:1" fill="#a69430" d="M 89.5,36.5 C 89.5,44.1667 89.5,51.8333 89.5,59.5C 89.5,59.8333 89.5,60.1667 89.5,60.5C 86.8806,60.2317 84.3806,60.565 82,61.5C 81.5065,59.8659 81.3398,58.1992 81.5,56.5C 82.404,57.209 82.7373,58.209 82.5,59.5C 84.1667,59.5 85.8333,59.5 87.5,59.5C 87.5,58.1667 87.5,56.8333 87.5,55.5C 88.1667,49.1667 88.8333,42.8333 89.5,36.5 Z"/></g>
<g><path style="opacity:1" fill="#81732b" d="M 62.5,47.5 C 64.9479,46.5269 67.6146,46.1936 70.5,46.5C 70.1872,50.0419 70.5206,53.3752 71.5,56.5C 71.5,57.5 71.5,58.5 71.5,59.5C 73.1667,59.5 74.8333,59.5 76.5,59.5C 73.1667,60.8333 69.8333,60.8333 66.5,59.5C 67.5,59.5 68.5,59.5 69.5,59.5C 69.5,55.5 69.5,51.5 69.5,47.5C 67.1667,47.5 64.8333,47.5 62.5,47.5 Z"/></g>
<g><path style="opacity:1" fill="#98882f" d="M 174.5,55.5 C 172.318,52.9847 170.318,52.9847 168.5,55.5C 168.167,55.5 167.833,55.5 167.5,55.5C 167.167,55.5 166.833,55.5 166.5,55.5C 163.941,55.8016 161.607,55.4682 159.5,54.5C 164.526,53.9929 169.526,53.3263 174.5,52.5C 174.5,53.5 174.5,54.5 174.5,55.5 Z"/></g>
<g><path style="opacity:1" fill="#73672a" d="M 20.5,47.5 C 19.5151,51.6344 19.1818,55.9677 19.5,60.5C 17.2646,60.7947 15.2646,60.4614 13.5,59.5C 15.1667,59.5 16.8333,59.5 18.5,59.5C 18.3341,54.4889 18.5007,49.4889 19,44.5C 20.0386,45.2438 20.5386,46.2438 20.5,47.5 Z"/></g>
<g><path style="opacity:1" fill="#201c1f" d="M 26.5,36.5 C 29.1667,36.5 31.8333,36.5 34.5,36.5C 34.5,44.1667 34.5,51.8333 34.5,59.5C 33.1667,59.5 31.8333,59.5 30.5,59.5C 30.8282,54.1254 30.4948,48.7921 29.5,43.5C 28.6143,44.325 28.281,45.325 28.5,46.5C 27.617,51.1317 26.9504,55.7984 26.5,60.5C 24.8561,60.7135 23.3561,60.3802 22,59.5C 21.6082,55.4724 21.1082,51.4724 20.5,47.5C 20.5386,46.2438 20.0386,45.2438 19,44.5C 18.5007,49.4889 18.3341,54.4889 18.5,59.5C 16.8333,59.5 15.1667,59.5 13.5,59.5C 13.5,51.8333 13.5,44.1667 13.5,36.5C 16.5,36.5 19.5,36.5 22.5,36.5C 23.393,52.2799 24.7264,52.2799 26.5,36.5 Z"/></g>
<g><path style="opacity:1" fill="#201c1f" d="M 69.5,40.5 C 69.5,41.5 69.5,42.5 69.5,43.5C 67.8333,43.5 66.1667,43.5 64.5,43.5C 64.7373,42.209 64.404,41.209 63.5,40.5C 62.5,40.5 61.5,40.5 60.5,40.5C 60.3341,45.5111 60.5007,50.5111 61,55.5C 63.125,56.8515 64.2917,56.1848 64.5,53.5C 63.2455,51.6663 62.5789,49.6663 62.5,47.5C 64.8333,47.5 67.1667,47.5 69.5,47.5C 69.5,51.5 69.5,55.5 69.5,59.5C 68.5,59.5 67.5,59.5 66.5,59.5C 64.5122,59.8271 62.5122,60.1604 60.5,60.5C 58.626,60.6102 57.126,59.9436 56,58.5C 54.4725,52.5851 54.1392,46.5851 55,40.5C 57.9132,35.3106 62.0799,34.1439 67.5,37C 68.8228,37.8159 69.4894,38.9826 69.5,40.5 Z"/></g>
<g><path style="opacity:1" fill="#bba733" d="M 63.5,40.5 C 64.404,41.209 64.7373,42.209 64.5,43.5C 66.1667,43.5 67.8333,43.5 69.5,43.5C 69.5,42.5 69.5,41.5 69.5,40.5C 70.4345,41.5676 70.7678,42.901 70.5,44.5C 68.0799,44.2924 65.7466,44.6258 63.5,45.5C 62.9478,43.9974 62.9478,42.3307 63.5,40.5 Z"/></g>
<g><path style="opacity:1" fill="#221e20" d="M 168.5,55.5 C 170.318,52.9847 172.318,52.9847 174.5,55.5C 175.209,56.404 176.209,56.7373 177.5,56.5C 177.657,55.1266 177.49,53.7932 177,52.5C 174.154,50.7433 171.488,48.7433 169,46.5C 168.4,36.4372 172.733,33.4372 182,37.5C 183.128,39.3453 183.628,41.3453 183.5,43.5C 181.5,43.5 179.5,43.5 177.5,43.5C 177.5,42.5 177.5,41.5 177.5,40.5C 176.5,40.5 175.5,40.5 174.5,40.5C 174.351,41.552 174.517,42.552 175,43.5C 177.414,45.2907 179.914,46.9574 182.5,48.5C 185.257,58.2455 181.591,62.0789 171.5,60C 169.859,58.871 168.859,57.371 168.5,55.5 Z"/></g>
<g><path style="opacity:1" fill="#0b091c" d="M 145.5,37.5 C 145.5,37.1667 145.5,36.8333 145.5,36.5C 147.167,36.5 148.833,36.5 150.5,36.5C 150.5,44.1667 150.5,51.8333 150.5,59.5C 148.5,59.5 146.5,59.5 144.5,59.5C 144.371,57.7839 144.038,56.1172 143.5,54.5C 143.369,53.7611 143.536,53.0944 144,52.5C 144.813,54.4357 145.313,56.4357 145.5,58.5C 146.833,58.5 148.167,58.5 149.5,58.5C 149.83,51.4684 149.497,44.4684 148.5,37.5C 147.673,41.4592 147.173,45.4592 147,49.5C 146.824,45.3123 146.324,41.3123 145.5,37.5 Z"/></g>
<g><path style="opacity:1" fill="#0c0b1d" d="M 89.5,36.5 C 91.1667,36.5 92.8333,36.5 94.5,36.5C 94.5,42.5 94.5,48.5 94.5,54.5C 93.5111,49.0247 93.1778,43.358 93.5,37.5C 92.5,37.5 91.5,37.5 90.5,37.5C 90.5,44.5 90.5,51.5 90.5,58.5C 93.8984,58.8204 97.2317,58.487 100.5,57.5C 98.7086,56.8302 97.0419,56.1635 95.5,55.5C 97.5,55.5 99.5,55.5 101.5,55.5C 101.5,56.8333 101.5,58.1667 101.5,59.5C 97.5,59.5 93.5,59.5 89.5,59.5C 89.5,51.8333 89.5,44.1667 89.5,36.5 Z"/></g>
<g><path style="opacity:1" fill="#231e20" d="M 159.5,54.5 C 161.607,55.4682 163.941,55.8016 166.5,55.5C 166.5,56.8333 166.5,58.1667 166.5,59.5C 162.167,59.5 157.833,59.5 153.5,59.5C 153.5,51.8333 153.5,44.1667 153.5,36.5C 158.167,36.5 162.833,36.5 167.5,36.5C 167.5,38.1667 167.5,39.8333 167.5,41.5C 164.833,41.5 162.167,41.5 159.5,41.5C 159.5,42.8333 159.5,44.1667 159.5,45.5C 161.833,45.5 164.167,45.5 166.5,45.5C 166.5,47.1667 166.5,48.8333 166.5,50.5C 164.167,50.5 161.833,50.5 159.5,50.5C 159.5,51.8333 159.5,53.1667 159.5,54.5 Z"/></g>
<g><path style="opacity:1" fill="#73662a" d="M 145.5,36.5 C 147.265,35.5386 149.265,35.2053 151.5,35.5C 151.5,43.8333 151.5,52.1667 151.5,60.5C 148.941,60.8016 146.607,60.4682 144.5,59.5C 146.5,59.5 148.5,59.5 150.5,59.5C 150.5,51.8333 150.5,44.1667 150.5,36.5C 148.833,36.5 147.167,36.5 145.5,36.5 Z"/></g>
<g><path style="opacity:1" fill="#211d1f" d="M 135.5,36.5 C 137.833,36.5 140.167,36.5 142.5,36.5C 142.605,40.3189 143.438,43.9855 145,47.5C 145.498,44.1832 145.665,40.8499 145.5,37.5C 146.324,41.3123 146.824,45.3123 147,49.5C 147.173,45.4592 147.673,41.4592 148.5,37.5C 149.497,44.4684 149.83,51.4684 149.5,58.5C 148.167,58.5 146.833,58.5 145.5,58.5C 145.313,56.4357 144.813,54.4357 144,52.5C 143.536,53.0944 143.369,53.7611 143.5,54.5C 142.776,51.9174 141.943,49.2507 141,46.5C 140.501,50.8206 140.334,55.1539 140.5,59.5C 138.833,59.5 137.167,59.5 135.5,59.5C 135.5,51.8333 135.5,44.1667 135.5,36.5 Z"/></g>
<g><path style="opacity:1" fill="#1f1b1f" d="M 104.5,36.5 C 106.167,36.5 107.833,36.5 109.5,36.5C 109.5,42.8333 109.5,49.1667 109.5,55.5C 112.167,55.5 114.833,55.5 117.5,55.5C 118.45,49.4196 119.783,43.4196 121.5,37.5C 124.086,36.52 126.753,36.1866 129.5,36.5C 130.726,42.8548 132.059,49.1882 133.5,55.5C 133.5,56.8333 133.5,58.1667 133.5,59.5C 131.833,59.5 130.167,59.5 128.5,59.5C 127.566,58.4324 127.232,57.099 127.5,55.5C 125.833,55.5 124.167,55.5 122.5,55.5C 122.5,56.8333 122.5,58.1667 122.5,59.5C 116.5,59.5 110.5,59.5 104.5,59.5C 104.5,51.8333 104.5,44.1667 104.5,36.5 Z"/></g>
<g><path style="opacity:1" fill="#8f822e" d="M 124.5,45.5 C 124.077,47.7812 124.744,49.4479 126.5,50.5C 125.791,51.404 124.791,51.7373 123.5,51.5C 123.205,49.2646 123.539,47.2646 124.5,45.5 Z"/></g>
<g><path style="opacity:1" fill="#d9cd39" d="M 126.5,50.5 C 124.744,49.4479 124.077,47.7812 124.5,45.5C 124.351,44.448 124.517,43.448 125,42.5C 126.375,44.9368 126.875,47.6035 126.5,50.5 Z"/></g>
<g><path style="opacity:1" fill="#716429" d="M 89.5,36.5 C 91.2646,35.5386 93.2646,35.2053 95.5,35.5C 95.5,41.8333 95.5,48.1667 95.5,54.5C 95.1667,54.5 94.8333,54.5 94.5,54.5C 94.5,48.5 94.5,42.5 94.5,36.5C 92.8333,36.5 91.1667,36.5 89.5,36.5 Z"/></g>
<g><path style="opacity:1" fill="#211e1f" d="M 94.5,54.5 C 94.8333,54.5 95.1667,54.5 95.5,54.5C 95.5,54.8333 95.5,55.1667 95.5,55.5C 97.0419,56.1635 98.7086,56.8302 100.5,57.5C 97.2317,58.487 93.8984,58.8204 90.5,58.5C 90.5,51.5 90.5,44.5 90.5,37.5C 91.5,37.5 92.5,37.5 93.5,37.5C 93.1778,43.358 93.5111,49.0247 94.5,54.5 Z"/></g>
<g><path style="opacity:1" fill="#1f1b1f" d="M 87.5,55.5 C 87.5,56.8333 87.5,58.1667 87.5,59.5C 85.8333,59.5 84.1667,59.5 82.5,59.5C 82.7373,58.209 82.404,57.209 81.5,56.5C 78.324,54.7271 76.6573,55.7271 76.5,59.5C 74.8333,59.5 73.1667,59.5 71.5,59.5C 71.5,58.5 71.5,57.5 71.5,56.5C 72.6192,49.7834 73.9525,43.1167 75.5,36.5C 78.1667,36.5 80.8333,36.5 83.5,36.5C 84.8327,42.8319 86.166,49.1653 87.5,55.5 Z"/></g>
<g><path style="opacity:1" fill="#6d6229" d="M 78.5,47.5 C 79.1667,51.5 79.8333,51.5 80.5,47.5C 81.4345,48.5676 81.7678,49.901 81.5,51.5C 80.1667,51.5 78.8333,51.5 77.5,51.5C 77.2322,49.901 77.5655,48.5676 78.5,47.5 Z"/></g>
<g><path style="opacity:1" fill="#dfcb38" d="M 80.5,47.5 C 79.8333,51.5 79.1667,51.5 78.5,47.5C 79.1667,40.8333 79.8333,40.8333 80.5,47.5 Z"/></g>
<g><path style="opacity:1" fill="#231f20" d="M 53.5,58.5 C 51.7354,59.4614 49.7354,59.7947 47.5,59.5C 47.5,58.1667 47.5,56.8333 47.5,55.5C 45.2188,55.0773 43.5521,55.744 42.5,57.5C 40.6834,59.51 38.6834,59.8434 36.5,58.5C 37.8347,51.1577 39.168,43.8244 40.5,36.5C 43.5,36.5 46.5,36.5 49.5,36.5C 50.5153,43.8939 51.8487,51.2273 53.5,58.5 Z"/></g>
<g><path style="opacity:1" fill="#e3d83a" d="M 44.5,42.5 C 45.2537,45.0227 45.9204,47.6894 46.5,50.5C 45.5,51.8333 44.5,51.8333 43.5,50.5C 44.3928,47.9159 44.7261,45.2492 44.5,42.5 Z"/></g>
<g><path style="opacity:1" fill="#f8e46a" d="M 5.5,31.5 C 67.6644,30.5009 129.998,30.1676 192.5,30.5C 192.5,42.1667 192.5,53.8333 192.5,65.5C 166.167,65.5 139.833,65.5 113.5,65.5C 139.328,64.5022 165.328,64.1689 191.5,64.5C 191.5,53.5 191.5,42.5 191.5,31.5C 129.5,31.5 67.5,31.5 5.5,31.5 Z"/></g>
<g><path style="opacity:1" fill="#b1b1b8" d="M 3.5,29.5 C 3.5,29.1667 3.5,28.8333 3.5,28.5C 67.1667,28.5 130.833,28.5 194.5,28.5C 194.5,41.1667 194.5,53.8333 194.5,66.5C 194.167,66.5 193.833,66.5 193.5,66.5C 193.5,54.1667 193.5,41.8333 193.5,29.5C 130.167,29.5 66.8333,29.5 3.5,29.5 Z"/></g>
<g><path style="opacity:1" fill="#0a080c" d="M 184.5,25.5 C 188.167,25.5 191.833,25.5 195.5,25.5C 196.132,32.6206 196.465,39.7872 196.5,47C 196.497,53.8693 195.83,60.3693 194.5,66.5C 194.5,53.8333 194.5,41.1667 194.5,28.5C 130.833,28.5 67.1667,28.5 3.5,28.5C 63.3319,27.6671 123.332,27.1671 183.5,27C 184.056,26.6174 184.389,26.1174 184.5,25.5 Z"/></g>
<g><path style="opacity:1" fill="#e3cc36" d="M 107.5,12.5 C 108.167,12.5 108.833,12.5 109.5,12.5C 111.781,12.0773 113.448,12.744 114.5,14.5C 113.833,14.5 113.5,14.8333 113.5,15.5C 111.777,17.78 111.111,20.4467 111.5,23.5C 112.5,23.5 113.5,23.5 114.5,23.5C 114.263,22.209 114.596,21.209 115.5,20.5C 115.5,21.8333 115.5,23.1667 115.5,24.5C 131.149,25.5313 153.482,25.8646 182.5,25.5C 127.336,26.499 72.0025,26.8323 16.5,26.5C 45.6638,25.6677 74.9971,25.1677 104.5,25C 103.263,24.7679 102.263,24.2679 101.5,23.5C 103.722,23.822 105.556,23.1554 107,21.5C 107.498,18.5184 107.665,15.5184 107.5,12.5 Z"/></g>
<g><path style="opacity:1" fill="#f4db39" d="M 182.5,7.5 C 182.5,13.5 182.5,19.5 182.5,25.5C 153.482,25.8646 131.149,25.5313 115.5,24.5C 115.5,23.1667 115.5,21.8333 115.5,20.5C 115.629,18.7839 115.962,17.1172 116.5,15.5C 116.328,14.5084 116.662,13.8417 117.5,13.5C 118.434,12.4324 118.768,11.099 118.5,9.5C 115.5,9.5 112.5,9.5 109.5,9.5C 109.5,10.5 109.5,11.5 109.5,12.5C 108.833,12.5 108.167,12.5 107.5,12.5C 105.947,9.74597 103.614,8.91264 100.5,10C 97.8555,12.9495 97.8555,15.7829 100.5,18.5C 100.5,18.8333 100.5,19.1667 100.5,19.5C 98.1403,20.9076 98.4736,22.2409 101.5,23.5C 102.263,24.2679 103.263,24.7679 104.5,25C 74.9971,25.1677 45.6638,25.6677 16.5,26.5C 16.1667,26.5 15.8333,26.5 15.5,26.5C 15.5,20.1667 15.5,13.8333 15.5,7.5C 71.1667,7.5 126.833,7.5 182.5,7.5 Z"/></g>
<g><path style="opacity:1" fill="#b9b7ba" d="M 91.5,14.5 C 91.9175,15.2216 92.5842,15.7216 93.5,16C 92.5842,16.2784 91.9175,16.7784 91.5,17.5C 90.5655,18.5676 90.2322,19.901 90.5,21.5C 91.791,21.7373 92.791,21.404 93.5,20.5C 94.2679,19.7375 94.7679,18.7375 95,17.5C 95.4935,19.1341 95.6602,20.8008 95.5,22.5C 93.7116,23.6225 91.7116,23.7891 89.5,23C 87.4468,21.3221 87.1134,19.4888 88.5,17.5C 91.1667,16.5 91.1667,15.5 88.5,14.5C 89.5246,10.5822 90.5246,10.5822 91.5,14.5 Z"/></g>
<g><path style="opacity:1" fill="#99948e" d="M 113.5,15.5 C 113.343,16.8734 113.51,18.2068 114,19.5C 114.2,17.6803 115.034,16.347 116.5,15.5C 115.962,17.1172 115.629,18.7839 115.5,20.5C 114.596,21.209 114.263,22.209 114.5,23.5C 113.5,23.5 112.5,23.5 111.5,23.5C 111.111,20.4467 111.777,17.78 113.5,15.5 Z"/></g>
<g><path style="opacity:1" fill="#918c89" d="M 95.5,22.5 C 95.6602,20.8008 95.4935,19.1341 95,17.5C 94.7679,18.7375 94.2679,19.7375 93.5,20.5C 93.7148,18.8212 93.0481,17.8212 91.5,17.5C 91.9175,16.7784 92.5842,16.2784 93.5,16C 92.5842,15.7216 91.9175,15.2216 91.5,14.5C 90.5246,10.5822 89.5246,10.5822 88.5,14.5C 87.6973,10.1712 89.6973,8.67119 94.5,10C 95,10.5 95.5,11 96,11.5C 96.2813,15.1873 96.1146,18.8539 95.5,22.5 Z"/></g>
<g><path style="opacity:1" fill="#817121" d="M 100.5,19.5 C 100.5,19.1667 100.5,18.8333 100.5,18.5C 101.833,18.5 103.167,18.5 104.5,18.5C 104.5,19.5 104.5,20.5 104.5,21.5C 102.801,21.4729 101.467,20.8062 100.5,19.5 Z"/></g>
<g><path style="opacity:1" fill="#cdba1c" d="M 91.5,17.5 C 93.0481,17.8212 93.7148,18.8212 93.5,20.5C 91.9519,20.1788 91.2852,19.1788 91.5,17.5 Z"/></g>
<g><path style="opacity:1" fill="#6b5e2a" d="M 91.5,17.5 C 91.2852,19.1788 91.9519,20.1788 93.5,20.5C 92.791,21.404 91.791,21.7373 90.5,21.5C 90.2322,19.901 90.5655,18.5676 91.5,17.5 Z"/></g>
<g><path style="opacity:1" fill="#b2b0b4" d="M 107.5,12.5 C 107.665,15.5184 107.498,18.5184 107,21.5C 105.556,23.1554 103.722,23.822 101.5,23.5C 98.4736,22.2409 98.1403,20.9076 100.5,19.5C 101.467,20.8062 102.801,21.4729 104.5,21.5C 104.5,20.5 104.5,19.5 104.5,18.5C 103.167,18.5 101.833,18.5 100.5,18.5C 97.8555,15.7829 97.8555,12.9495 100.5,10C 103.614,8.91264 105.947,9.74597 107.5,12.5 Z"/></g>
<g><path style="opacity:1" fill="#574b34" d="M 88.5,14.5 C 91.1667,15.5 91.1667,16.5 88.5,17.5C 88.5,16.5 88.5,15.5 88.5,14.5 Z"/></g>
<g><path style="opacity:1" fill="#867927" d="M 101.5,11.5 C 102.5,11.5 103.5,11.5 104.5,11.5C 104.5,13.1667 104.5,14.8333 104.5,16.5C 103.5,16.5 102.5,16.5 101.5,16.5C 101.5,14.8333 101.5,13.1667 101.5,11.5 Z"/></g>
<g><path style="opacity:1" fill="#9d8a16" d="M 91.5,14.5 C 91.281,13.325 91.6143,12.325 92.5,11.5C 93.7979,13.0517 93.4646,14.0517 91.5,14.5 Z"/></g>
<g><path style="opacity:1" fill="#d3d5e3" d="M 77.5,13.5 C 77.5,12.1667 78.1667,11.5 79.5,11.5C 80.4959,11.5858 81.3292,11.2524 82,10.5C 82.8265,14.5411 82.6599,18.5411 81.5,22.5C 80.5159,19.5719 80.1826,16.5719 80.5,13.5C 79.5,13.5 78.5,13.5 77.5,13.5 Z"/></g>
<g><path style="opacity:1" fill="#d9dae2" d="M 117.5,13.5 C 116.662,13.8417 116.328,14.5084 116.5,15.5C 115.034,16.347 114.2,17.6803 114,19.5C 113.51,18.2068 113.343,16.8734 113.5,15.5C 113.5,14.8333 113.833,14.5 114.5,14.5C 115.404,13.791 115.737,12.791 115.5,11.5C 113.801,11.6602 112.134,11.4935 110.5,11C 112.81,10.5034 115.143,10.3367 117.5,10.5C 117.5,11.5 117.5,12.5 117.5,13.5 Z"/></g>
<g><path style="opacity:1" fill="#74693f" d="M 77.5,13.5 C 78.5,13.5 79.5,13.5 80.5,13.5C 80.1826,16.5719 80.5159,19.5719 81.5,22.5C 82.6599,18.5411 82.8265,14.5411 82,10.5C 81.3292,11.2524 80.4959,11.5858 79.5,11.5C 80.287,9.89578 81.6203,9.22911 83.5,9.5C 83.5,14.1667 83.5,18.8333 83.5,23.5C 82.1667,23.5 80.8333,23.5 79.5,23.5C 79.9396,19.8215 79.273,16.4882 77.5,13.5 Z"/></g>
<g><path style="opacity:1" fill="#6d6551" d="M 117.5,13.5 C 117.5,12.5 117.5,11.5 117.5,10.5C 115.143,10.3367 112.81,10.5034 110.5,11C 112.134,11.4935 113.801,11.6602 115.5,11.5C 115.737,12.791 115.404,13.791 114.5,14.5C 113.448,12.744 111.781,12.0773 109.5,12.5C 109.5,11.5 109.5,10.5 109.5,9.5C 112.5,9.5 115.5,9.5 118.5,9.5C 118.768,11.099 118.434,12.4324 117.5,13.5 Z"/></g>
<g><path style="opacity:1" fill="#dcc537" d="M 182.5,7.5 C 126.833,7.5 71.1667,7.5 15.5,7.5C 15.5,13.8333 15.5,20.1667 15.5,26.5C 14.5093,20.021 14.176,13.3543 14.5,6.5C 70.6691,6.16767 126.669,6.50101 182.5,7.5 Z"/></g>
</svg>
