<?xml version="1.0" encoding="UTF-8"?>
<svg id="Layer_1" data-name="Layer 1" xmlns="http://www.w3.org/2000/svg" viewBox="0 0 1000 1000">
  <defs>
    <style>
      .cls-1 {
        fill: #e20613;
      }

      .cls-2 {
        fill: #fefefe;
      }
    </style>
  </defs>
  <path class="cls-1" d="M478.1,79.43c208.03-8.03,411.39,124.81,455.31,333.71,55.65,264.66-163,486.85-420.18,495.71-215.35,7.42-424.41-137.15-457.3-356.35C17.44,296.02,230.53,88.99,478.1,79.43Z"/>
  <path class="cls-2" d="M470.87,83.44c145.43-6.59,286.5,49.79,378.44,163.22,162.37,200.34,92.78,478.23-126.34,600.45-226.46,126.31-535.81,39.74-637.83-204.16C-29.17,369.66,191.26,96.11,470.87,83.44Z"/>
  <path class="cls-1" d="M332.89,193.24l163.87,142.63,163.82-142.24c-24.32-13.15-50.29-22.5-76.93-29.88-11.02-3.06-22.51-2.67-30.71-11.86-14.24-15.97-1.44-37.84,18.1-39.76,12.13-1.2,37.71,6.41,50.19,10.03,195.05,56.68,330.44,245.16,283.93,450.96-26.54,117.45-114.06,216.22-222.35,265.97-2.42,1.11-16.35,7.53-17.44,6.76l-36.94-103.62c92.12-37.24,167.63-117.02,190.79-214.88,26.62-112.49-16.32-227.99-106.04-298.58l-173.08,151.99-3.99,4.85-.06,296.37c8.3,65.6,30.13,129.38,62.68,186.68-19.71,4.41-39.78,8.32-59.93,10.35-48.4,4.89-96.83.79-144.07-10.35,32.54-57.29,54.41-121.08,62.68-186.68l-.06-296.37-4.79-5.65-172.28-151.18c-.85-.07-11.64,9.18-13.28,10.64-80.03,71.11-117.33,179.09-93.57,284.73,22.24,98.87,98.17,180.94,191.57,217.64l-37.41,104.43c-125.23-50.73-223.98-163.83-244.37-299.33-30.29-201.23,108.65-376.75,298.47-427.3,10.82-2.88,29.22-8.34,39.92-7.44,18.47,1.54,32.33,20.77,20.68,37.52-8.13,11.67-25.26,12.05-38.11,15.71-24.88,7.07-48.25,16.3-71.31,27.89Z"/>
  <path class="cls-1" d="M298.98,332.4c57.94-6.54,95.05,61.27,109.01,108.2,16.8,56.49,18.18,127.72-6.68,182.05-33.44,73.08-98.12,73.85-142.15,9.35s-54.05-171.08-22.78-241.73c11.04-24.94,33.38-54.57,62.61-57.86Z"/>
  <path class="cls-1" d="M644.52,455.05c1.4.35,1.61-.57,2.42-1.2,5.1-3.94,9.73-8.51,15-12.31,65.97-47.52,104.51-1.77,94.91,68.41-4.87,35.62-23.37,72.22-44.55,100.82-25.28,34.13-57.82,59.98-91.48,85.2l-18.86-53.76c14.15-6.09,27.93-15.84,39.73-25.75,27.84-23.39,57.35-67.22,37.5-104.12-15.67-29.15-40.6-9.95-58.34,4.58-12.82,10.49-24.34,22.56-35.76,34.51v-152.99l127.7-109.63c.36,22.83-.71,45.47-1.19,68.27l-67.07,53.4v44.57Z"/>
  <path class="cls-2" d="M309.42,411.1c37.21-4.27,56.26,56.74,58,85.31,1.57,25.69-4.17,74.96-32.94,85.11-35.91,12.66-58.04-42.39-62.4-69.29-4.61-28.4-1.2-96.71,37.34-101.14Z"/>
</svg>