<?xml version="1.0" encoding="utf-8"?>
<!-- Generator: Adobe Illustrator 27.9.0, SVG Export Plug-In . SVG Version: 6.00 Build 0)  -->
<svg version="1.1" id="Layer_1" xmlns="http://www.w3.org/2000/svg" xmlns:xlink="http://www.w3.org/1999/xlink" x="0px" y="0px"
	 viewBox="0 0 400 400" style="enable-background:new 0 0 400 400;" xml:space="preserve">
<style type="text/css">
	.st0{fill:#0393DC;}
	.st1{fill:#FDFEFE;}
	.st2{fill:#FCFEFE;}
	.st3{fill:#FCFCFC;}
	.st4{fill:#D82A22;}
</style>
<g>
	<path class="st0" d="M200.5,398c-0.1,0-0.2,0-0.3,0c-2.2-2.7-4.3-5.4-6.5-8c-5.7-6.8-11.3-13.6-17.8-19.7
		c-6.7-6.3-14.3-11.2-23-14.5c-8.6-3.2-17.4-6-26.1-9.1c-7.5-2.7-14.9-5.6-22-9.3c-10.4-5.4-19.7-12.4-27.5-21.2
		c-8.5-9.6-14.7-20.4-19.1-32.4c-4.2-11.3-5.8-23.1-5.9-35.1c0-1.2,0.3-2.3,0.2-3.5c-0.1-2.6,0.2-5.2,0.5-7.8
		c0.6-5.5,1.4-10.9,2.6-16.3c0.7-3,1.3-6.1,2.3-9c1-2.7,2-5.4,2.8-8.2c1.8-6.1,2.9-12.4,3.2-18.8c0.1-3,0.1-6.1-0.1-9.1
		c-0.3-3.8-0.8-7.6-1.7-11.3c-3.5-14.3-11.2-25.8-23.3-34.4c-6.4-4.6-13.7-7.6-20.9-10.5c0-19.4,0-38.8,0-58.2c0.7,0,1.4,0,2.2,0
		c29.3,0,58.6,0,87.9,0c0.6,0,1.2,0,1.9,0c0.8,0.1,1.3-0.2,1.6-1.1c1.8-4.2,3.9-8.3,6.3-12.2c5.2-8.5,11.6-16,19.1-22.5
		c7.6-6.6,16-11.9,25.3-15.9c5-2.2,10.2-3.9,15.5-5.2c2.8-0.7,5.6-1.2,8.5-1.6c2.8-0.4,5.7-0.6,8.6-1c1.3-0.1,2.7,0.3,4-0.2
		c1,0,2.1,0,3.1,0c1.4,0.5,2.9,0.1,4.3,0.3c1,0.1,1.9,0.2,2.9,0.3c6.5,0.5,12.8,1.8,19,3.6c9.2,2.7,17.7,6.7,25.6,12
		c6.6,4.4,12.7,9.5,18,15.4c4.6,5.1,8.7,10.6,12.2,16.5c2,3.3,3.7,6.8,5.2,10.3c0.4,0.9,0.9,1.3,1.8,1.2c0.3,0,0.5,0,0.8,0
		c29.4,0,58.9,0,88.3,0c0.7,0,1.4,0,2.2,0c0,19.5,0,39,0,58.5c-0.3-0.1-0.6,0.1-0.9,0.2c-2.9,1.3-5.9,2.5-8.8,3.8
		c-7.8,3.6-14.8,8.4-20.6,14.8c-6.6,7.3-11,15.7-13.4,25.2c-1.6,6.3-2.2,12.7-2,19.2c0.1,2.9,0.3,5.8,0.7,8.8
		c0.8,5.7,2.2,11.3,4.1,16.8c0.6,1.7,1.4,3.4,1.9,5.2c1.4,5.6,2.6,11.2,3.5,16.9c0.9,6.3,1.4,12.6,1.5,18.9c0,4.5-0.3,8.9-0.9,13.4
		c-0.8,6-2.1,12-4,17.7c-2.4,7.3-5.6,14.1-9.6,20.7c-6.7,11.3-15.3,20.7-26,28.3c-7.8,5.6-16.4,9.8-25.3,13.4
		c-6.9,2.8-14,5.1-21.1,7.5c-5.3,1.8-10.5,3.6-15.7,5.7c-3.4,1.4-6.7,2.9-9.8,4.9c-6.9,4.4-12.8,10-18.3,16
		c-5.7,6.2-10.9,12.8-16.2,19.2C200.9,397.1,200.4,397.4,200.5,398z M294.1,74.9c6.7,29.7,1.9,57.3-16.5,81.7
		c-18.4,24.4-43.3,37.3-73.9,38.7c-18.2,0.8-35.3-3.5-51.2-12.5c-15.2-8.6-27.3-20.5-36-35.7c-13-22.7-16-46.9-10.1-72.3
		c-0.7-0.2-1.3-0.1-2-0.1c-16.6,0-33.2,0-49.8,0c-7.4,0-14.8,0-22.1,0c-1.4,0-1.4,0-1.4,1.5c0,11.2,0,22.5,0,33.7
		c0,1.1,0.4,1.6,1.4,2c3.2,1.4,6.3,3,9.3,4.8c12.4,7.5,21.8,17.6,28,30.8c4.3,9.3,6.6,19.1,7.1,29.3c0.6,11.7-1.1,23.1-4.7,34.3
		c-0.8,2.3-1.7,4.5-2.3,6.9c-2.1,7.7-3.5,15.6-4.1,23.6c-0.5,6.9-0.4,13.8,0.5,20.7c1.5,10.6,4.9,20.5,10,29.9
		c7.5,13.7,17.9,24.4,31.5,32.2c8.5,4.8,17.5,8.2,26.7,11.4c7.6,2.6,15.3,5.1,22.8,7.9c7.5,2.9,14.5,6.4,20.8,11.4
		c5.5,4.3,10.5,9.2,15.1,14.3c2.2,2.4,4.3,5,6.5,7.5c0.4,0.5,0.8,0.6,1.2,0c0.1-0.2,0.3-0.4,0.5-0.6c4.5-5.4,9.2-10.6,14.3-15.4
		c7.5-7.1,15.9-12.8,25.6-16.5c7.1-2.7,14.3-5.2,21.6-7.6c8.5-2.9,17-5.8,25-9.8c13.6-6.7,24.7-16.2,32.9-28.9
		c9.7-15.1,14.5-31.5,14.3-49.4c-0.1-7.2-0.9-14.4-2.3-21.5c-0.7-3.6-1.3-7.2-2.6-10.6c-2.6-7.1-4.6-14.3-5.7-21.8
		c-1.6-11.2-1.3-22.3,1.4-33.3c3-12.4,8.8-23.3,17.7-32.5c7-7.3,15.2-12.8,24.4-16.8c1.2-0.5,1.5-1.1,1.5-2.3c0-11,0-22.1,0-33.1
		c0-0.4,0-0.7,0-1.1c0-0.5-0.2-0.8-0.7-0.8c-0.3,0-0.5,0-0.8,0c-24.1,0-48.2,0-72.3,0C295.1,74.7,294.6,74.6,294.1,74.9z
		 M200.3,184.2c47.6-0.1,85.5-38.8,85.4-85.4c-0.1-47.3-38.3-85.4-85.6-85.4c-46.8,0-85.5,38.2-85.3,85.9
		C115,146.3,153.2,184.2,200.3,184.2z"/>
	<path class="st1" d="M294.1,74.9c0.5-0.3,1-0.2,1.6-0.2c24.1,0,48.2,0,72.3,0c0.3,0,0.5,0,0.8,0c0.5,0,0.8,0.2,0.7,0.8
		c0,0.4,0,0.7,0,1.1c0,11,0,22.1,0,33.1c0,1.2-0.3,1.8-1.5,2.3c-9.2,4.1-17.4,9.6-24.4,16.8c-8.9,9.2-14.7,20.1-17.7,32.5
		c-2.7,11-3,22.1-1.4,33.3c1.1,7.5,3,14.7,5.7,21.8c1.3,3.4,1.9,7.1,2.6,10.6c1.4,7.1,2.2,14.3,2.3,21.5
		c0.2,17.9-4.6,34.4-14.3,49.4c-8.3,12.8-19.4,22.2-32.9,28.9c-8.1,4-16.5,7-25,9.8c-7.2,2.4-14.4,4.9-21.6,7.6
		c-9.7,3.7-18,9.4-25.6,16.5c-5.1,4.8-9.8,10-14.3,15.4c-0.2,0.2-0.3,0.4-0.5,0.6c-0.4,0.6-0.8,0.5-1.2,0c-2.1-2.5-4.3-5-6.5-7.5
		c-4.7-5.2-9.7-10-15.1-14.3c-6.3-5-13.3-8.6-20.8-11.4c-7.5-2.9-15.2-5.3-22.8-7.9c-9.2-3.1-18.2-6.6-26.7-11.4
		c-13.6-7.7-24-18.5-31.5-32.2c-5.1-9.4-8.5-19.3-10-29.9c-1-6.9-1-13.8-0.5-20.7c0.6-8,2-15.8,4.1-23.6c0.6-2.3,1.6-4.6,2.3-6.9
		c3.6-11.1,5.3-22.6,4.7-34.3c-0.5-10.2-2.7-20-7.1-29.3c-6.2-13.1-15.6-23.3-28-30.8c-3-1.8-6.1-3.5-9.3-4.8c-1-0.4-1.4-0.9-1.4-2
		c0-11.2,0-22.5,0-33.7c0-1.4,0-1.5,1.4-1.5c7.4,0,14.8,0,22.1,0c16.6,0,33.2,0,49.8,0c0.6,0,1.2-0.1,2,0.1
		c-5.9,25.4-2.9,49.6,10.1,72.3c8.7,15.2,20.8,27.1,36,35.7c15.9,9,33,13.3,51.2,12.5c30.6-1.4,55.5-14.3,73.9-38.7
		C296,132.2,300.7,104.6,294.1,74.9z M219.7,318c0-7.6,0-15.2,0-22.7c0-1.7,0-1.7-1.7-1.5c-0.1,0-0.1,0-0.2,0
		c-5.2,0.7-10.4,1-15.6,1.1c-5.6,0.1-11.2-0.2-16.8-0.8c-1.1-0.1-2.3-0.3-3.4-0.4c-1.2-0.1-1.2-0.1-1.2,1.1c0,0.1,0,0.2,0,0.3
		c0,15.3,0,30.5,0,45.8c0,0.9,0.3,1.5,1.1,2c1.8,1.2,3.6,2.6,5.3,4c4.1,3.4,8,7,11.6,10.9c1.4,1.5,1.5,1.5,3,0
		c5.2-5.4,10.8-10.5,16.9-14.9c0.8-0.5,1-1.1,1-2C219.6,333.3,219.7,325.6,219.7,318z M104.3,145.2c0,31,0,61.8,0,92.6
		c0,0,0.1,0.1,0.1,0.1c0,0,0.1,0,0.1,0.1c0.5-0.1,0.8-0.4,1.2-0.7c6.1-4.2,12.2-8.5,18.3-12.7c4.1-2.8,8.1-5.6,12.2-8.5
		c0.7-0.5,1.1-0.5,1.7,0.1c1.2,1.1,2.5,2.1,3.8,3.2c0.4,0.3,0.7,0.8,1.3,0.8c0.3-0.5,0.2-1,0.2-1.5c0-9.5,0-19.1,0-28.6
		c0-0.2,0-0.4,0-0.6c0.1-0.7-0.2-1.2-0.8-1.5c-0.3-0.1-0.5-0.3-0.8-0.5c-15.7-10.5-27.9-24.2-36.4-41.1
		C104.9,145.9,104.9,145.5,104.3,145.2z M295.9,238c0.2-0.1,0.2-0.3,0.2-0.4c0-30.7,0.1-61.4-0.1-92.1c0,0-0.1-0.1-0.1-0.1
		c-0.2-0.1-0.1,0.2-0.2-0.1c-0.3,0.5-0.5,1-0.8,1.6c-3.8,7.5-8.4,14.4-13.9,20.8c-6.6,7.8-14.2,14.5-22.8,20.1
		c-0.7,0.4-1.1,0.9-1.1,1.8c0,9.9,0,19.9,0,29.8c0,0.3-0.1,0.6,0.3,0.8c0.3,0,0.5-0.3,0.8-0.5c1.4-1.2,2.9-2.3,4.3-3.6
		c0.6-0.5,1-0.5,1.6-0.1c0.3,0.3,0.7,0.5,1,0.7c9.9,6.9,19.9,13.9,29.8,20.8C295.3,237.7,295.6,238,295.9,238z M104.5,257.8
		c-0.4,0.5-0.3,0.8-0.3,1.2c0,15.8,0,31.6,0,47.3c0,0.9,0.3,1.5,1.1,2c4.6,3.5,9.6,6.4,14.8,8.9c6.9,3.2,14,5.7,21.2,8.1
		c1.8,0.6,1.8,0.6,1.8-1.4c0-13,0-26.1,0-39.1c0-0.3,0-0.6,0-0.9c0-0.6-0.2-1-0.8-1.2c-0.3-0.1-0.7-0.3-1-0.4
		c-11.6-5.3-22.3-12-32-20.3C107.7,260.6,106.1,259.2,104.5,257.8z M296,257.9c-0.6,0.2-0.9,0.6-1.3,1c-2.6,2.4-5.3,4.6-8,6.8
		c-8.7,6.7-18,12.3-28,16.8c-0.8,0.4-1.3,0.7-1.3,1.8c0,13.5,0,27,0,40.5c0,0.3-0.1,0.7,0.3,1c0.2-0.1,0.5-0.1,0.7-0.2
		c5.8-2,11.6-3.9,17.3-6.3c6.8-2.8,13.2-6.2,19.1-10.6c1.1-0.8,1.5-1.6,1.5-2.9c0-15.4,0-30.8,0-46.2
		C296.2,259,296.3,258.5,296,257.9z M219.7,221.4c0-5.6,0-11.1,0-16.7c0-1.4,0-1.5-1.3-1.2c-3.5,0.6-7,1-10.6,1.3
		c-7.8,0.5-15.6,0.3-23.3-0.9c-0.9-0.1-1.8-0.3-2.7-0.4c-0.7-0.1-1,0.1-0.9,0.8c0,0.2,0,0.4,0,0.6c0,11,0,22,0,33.1
		c0,1.5,0,1.5,1.4,1.8c12,2.8,24,2.8,36,0c1.4-0.3,1.4-0.3,1.4-1.8C219.7,232.4,219.7,226.9,219.7,221.4z M66.7,86.5
		C66.7,86.5,66.7,86.5,66.7,86.5c-7.3,0-14.6,0-22,0c-2.1,0-1.9-0.1-1.9,1.9c0,4.5,0,9.1,0,13.6c0,1.9-0.2,1.8,1.7,1.8
		c10.6,0,21.2,0,31.9,0c4.2,0,8.5,0,12.7,0c1.3,0,1.3,0,1.3-1.2c0-4.9,0-9.9,0-14.8c0-1.2,0-1.2-1.2-1.2c-0.3,0-0.6,0-0.9,0
		C81.2,86.5,74,86.5,66.7,86.5z M194.3,287.3c18,0,28.6-1.3,41.1-4.7c21.7-5.8,40.8-16.5,57-32.1c0.9-0.9,1.7-1.8,2.6-2.6
		c0.5-0.5,0.4-0.8-0.1-1.1c-0.2-0.1-0.4-0.3-0.6-0.4c-6-4.2-12-8.4-18-12.6c-3.8-2.7-7.7-5.3-11.5-8.1c-0.7-0.5-1.3-0.6-1.9,0.1
		c-0.1,0.1-0.2,0.2-0.4,0.3c-7.4,6.1-15.4,11-24.1,14.9c-11.4,5.1-23.4,8.1-35.9,8.4c-10.9,0.3-21.6-1.5-31.9-5
		c-12.1-4.1-23-10.3-32.9-18.4c-1.3-1-1-1-2.3-0.1c-9.8,6.8-19.6,13.7-29.4,20.5c-1.2,0.9-1.3,0.7-0.1,2
		c8.4,8.6,17.9,15.9,28.4,21.7C154.7,281.6,176.7,287.2,194.3,287.3z M333.9,86.5c-7.3,0-14.6,0-22,0c-0.4,0-0.7,0-1.1,0
		c-0.6,0-0.9,0.2-0.8,0.8c0,0.3,0,0.6,0,0.9c0,4.6,0,9.3,0,13.9c0,1.8-0.2,1.6,1.7,1.7c0.1,0,0.1,0,0.2,0c14.6,0,29.2,0,43.8,0
		c0.3,0,0.6,0,0.9,0c0.7,0.1,1.1-0.2,1-0.9c0-0.3,0-0.5,0-0.8c0-4.6,0-9.3,0-13.9c0-0.3,0-0.6,0-0.9c0-0.5-0.2-0.8-0.8-0.8
		c-0.4,0-0.8,0-1.2,0C348.3,86.5,341.1,86.5,333.9,86.5z"/>
	<path class="st2" d="M200.3,184.2c-47,0-85.2-37.9-85.5-84.9c-0.3-47.7,38.4-85.9,85.3-85.9c47.4,0,85.6,38.1,85.6,85.4
		C285.7,145.4,247.9,184.2,200.3,184.2z M182.6,98.8c0,18.3,0,36.6,0,54.9c0,5.3,0,10.6,0,15.9c0,1.5,0,1.5,1.6,1.9
		c2.9,0.7,5.9,1.1,8.8,1.4c1.3,0.1,1.3,0.2,1.4-1.3c0-0.4,0-0.7,0-1.1c0-17.7,0-35.5,0-53.2c0-4,0-8,0-12.1c0-1.3,0-1.3,1.3-1.3
		c3.7,0,7.4,0,11.1,0c1.9,0,1.8-0.3,1.8,1.9c0,21.2,0,42.5,0,63.7c0,0.7,0,1.3,0,2c0,1.2,0.1,1.2,1.3,1.1c2.9-0.4,5.8-0.9,8.6-1.7
		c2.3-0.6,1.8-0.3,1.8-2.4c0-46.6,0-93.1,0-139.7c0-0.3,0-0.5,0-0.8c0.1-0.8-0.2-1.2-1-1.4c-3.4-0.8-6.8-1.5-10.3-1.9
		c-8.4-1-16.8-0.6-25.1,1.3c-1.3,0.3-1.3,0.3-1.4,1.7c0,0.4,0,0.7,0,1.1C182.6,52.2,182.6,75.5,182.6,98.8z M176.3,169.3
		c0.3-0.6,0.2-1.2,0.2-1.7c0-45.9,0-91.8,0-137.7c0-0.3,0-0.6,0-0.9c0-0.6-0.2-0.8-0.9-0.6c-1.7,0.7-3.4,1.4-5.2,2
		c-1.1,0.4-1.6,1.1-2.1,2.1c-5,11.4-9.9,22.8-14.9,34.1c-0.2,0.4-0.2,1-0.8,1.3c-2.7-6.1-5.4-12.2-8.1-18.4c-1.2,1.1-2,2.2-2.9,3.3
		c-11.4,14.8-16.7,31.5-15.8,50.2c0.4,7.6,2,15,4.7,22.1c0.5,1.3,0.5,1.3,1.9,1.3c3.5,0,7,0,10.5,0c0.3,0,0.7,0.1,1.1-0.4
		c-3.9-8.1-6.1-16.8-6.3-25.8c-0.2-9.1,2.8-23.3,5.4-26.2c3.2,7.1,6.3,14.2,9.6,21.7c4-9,7.8-17.6,11.7-26.4
		c0.4,0.6,0.3,1.1,0.3,1.6c0,30,0,60,0,90c0,0.8,0,1.7,0,2.5c0,0.6,0.1,1,0.7,1.2C168.8,166.5,172.4,168.1,176.3,169.3z M226.6,29.1
		c0,46.6,0,92.9,0,139.1c0.7,0.2,1.3-0.2,1.8-0.5c8.9-3.7,16.9-8.9,23.8-15.6c7.1-7,12.7-15,16.6-24.2c0.7-1.5,0.6-1.5-1-1.5
		c-3.2,0-6.5,0.1-9.7,0c-1.3,0-2,0.4-2.6,1.6c-3.9,7.5-9.2,13.9-15.8,19.2c-0.4,0.3-0.7,0.8-1.3,0.8c-0.3-2.1-0.2-97.3,0.1-98.5
		c0.5,0.1,0.9,0.5,1.3,0.8c5.4,4.4,10,9.6,13.6,15.5c0.5,0.9,1.1,1.2,2.1,1.2c3.6-0.1,7.2,0,10.8,0c0.4,0,0.7,0.1,1.2-0.3
		c-3.6-7.6-8.4-14.4-14.3-20.3C245.6,38.8,236.8,33.1,226.6,29.1z"/>
	<path class="st0" d="M219.7,318c0,7.6,0,15.3,0,22.9c0,0.9-0.2,1.5-1,2c-6.2,4.3-11.7,9.4-16.9,14.9c-1.5,1.6-1.5,1.6-3,0
		c-3.7-3.8-7.5-7.5-11.6-10.9c-1.7-1.4-3.4-2.8-5.3-4c-0.8-0.5-1.1-1.1-1.1-2c0-15.3,0-30.5,0-45.8c0-0.1,0-0.2,0-0.3
		c0-1.2,0-1.2,1.2-1.1c1.1,0.1,2.3,0.2,3.4,0.4c5.6,0.6,11.2,0.9,16.8,0.8c5.2-0.1,10.4-0.4,15.6-1.1c0.1,0,0.1,0,0.2,0
		c1.7-0.2,1.7-0.2,1.7,1.5C219.7,302.9,219.7,310.4,219.7,318z"/>
	<path class="st0" d="M104.3,145.2c0.6,0.3,0.7,0.7,0.8,1.1c8.5,16.9,20.7,30.6,36.4,41.1c0.3,0.2,0.5,0.4,0.8,0.5
		c0.6,0.3,0.9,0.8,0.8,1.5c0,0.2,0,0.4,0,0.6c0,9.5,0,19.1,0,28.6c0,0.5,0.1,1-0.2,1.5c-0.6,0-0.9-0.5-1.3-0.8
		c-1.3-1-2.6-2.1-3.8-3.2c-0.6-0.6-1-0.5-1.7-0.1c-4,2.9-8.1,5.7-12.2,8.5c-6.1,4.2-12.2,8.5-18.3,12.7c-0.4,0.3-0.7,0.6-1.2,0.7
		c-0.1,0-0.1,0-0.1-0.1c0,0-0.1-0.1-0.1-0.1C104.3,207,104.3,176.2,104.3,145.2z"/>
	<path class="st0" d="M295.9,238c-0.4,0.1-0.6-0.2-0.9-0.4c-9.9-6.9-19.9-13.9-29.8-20.8c-0.3-0.2-0.7-0.4-1-0.7
		c-0.6-0.5-1-0.4-1.6,0.1c-1.4,1.2-2.8,2.4-4.3,3.6c-0.2,0.2-0.4,0.5-0.8,0.5c-0.4-0.2-0.2-0.5-0.3-0.8c0-9.9,0-19.9,0-29.8
		c0-0.9,0.4-1.4,1.1-1.8c8.6-5.6,16.1-12.3,22.8-20.1c5.4-6.4,10.1-13.3,13.9-20.8c0.3-0.5,0.5-1,0.8-1.6c0.1,0.3,0,0,0.2,0.1
		c0,0,0.1,0.1,0.1,0.1c0.2,30.7,0,61.4,0.1,92.1C296.2,237.7,296.1,237.9,295.9,238z"/>
	<path class="st0" d="M104.5,257.8c1.7,1.4,3.2,2.9,4.8,4.2c9.7,8.3,20.4,15,32,20.3c0.3,0.1,0.7,0.3,1,0.4c0.6,0.2,0.8,0.6,0.8,1.2
		c0,0.3,0,0.6,0,0.9c0,13,0,26.1,0,39.1c0,2,0,2-1.8,1.4c-7.2-2.4-14.3-4.9-21.2-8.1c-5.2-2.5-10.2-5.4-14.8-8.9
		c-0.7-0.5-1.1-1.1-1.1-2c0-15.8,0-31.6,0-47.3C104.2,258.6,104.1,258.2,104.5,257.8z"/>
	<path class="st0" d="M296,257.9c0.3,0.6,0.2,1.1,0.2,1.6c0,15.4,0,30.8,0,46.2c0,1.3-0.4,2.1-1.5,2.9c-5.9,4.4-12.4,7.8-19.1,10.6
		c-5.7,2.4-11.5,4.3-17.3,6.3c-0.2,0.1-0.5,0.1-0.7,0.2c-0.4-0.3-0.3-0.7-0.3-1c0-13.5,0-27,0-40.5c0-1,0.5-1.4,1.3-1.8
		c10-4.5,19.4-10.1,28-16.8c2.8-2.2,5.4-4.4,8-6.8C295.1,258.5,295.4,258.1,296,257.9z"/>
	<path class="st0" d="M219.7,221.4c0,5.5,0,11,0,16.5c0,1.5,0,1.5-1.4,1.8c-12,2.8-24,2.8-36,0c-1.4-0.3-1.4-0.3-1.4-1.8
		c0-11,0-22,0-33.1c0-0.2,0-0.4,0-0.6c0-0.7,0.3-0.9,0.9-0.8c0.9,0.2,1.8,0.3,2.7,0.4c7.7,1.2,15.5,1.4,23.3,0.9
		c3.5-0.2,7.1-0.6,10.6-1.3c1.3-0.2,1.3-0.2,1.3,1.2C219.7,210.3,219.7,215.8,219.7,221.4z"/>
	<path class="st0" d="M66.7,86.5c7.2,0,14.4,0,21.6,0c0.3,0,0.6,0,0.9,0c1.2,0,1.2,0,1.2,1.2c0,4.9,0,9.9,0,14.8
		c0,1.2,0,1.2-1.3,1.2c-4.2,0-8.5,0-12.7,0c-10.6,0-21.2,0-31.9,0c-1.9,0-1.7,0.1-1.7-1.8c0-4.5,0-9.1,0-13.6c0-2.1-0.2-1.9,1.9-1.9
		C52.1,86.5,59.4,86.5,66.7,86.5C66.7,86.5,66.7,86.5,66.7,86.5z"/>
	<path class="st0" d="M194.3,287.3c-17.6-0.1-39.6-5.7-60-17.1c-10.5-5.9-20-13.1-28.4-21.7c-1.2-1.3-1.1-1.1,0.1-2
		c9.8-6.8,19.6-13.7,29.4-20.5c1.3-0.9,1.1-0.9,2.3,0.1c9.9,8.1,20.8,14.3,32.9,18.4c10.3,3.5,21,5.4,31.9,5
		c12.5-0.4,24.5-3.3,35.9-8.4c8.7-3.9,16.8-8.8,24.1-14.9c0.1-0.1,0.3-0.2,0.4-0.3c0.6-0.7,1.1-0.6,1.9-0.1
		c3.8,2.7,7.7,5.4,11.5,8.1c6,4.2,12,8.4,18,12.6c0.2,0.1,0.4,0.3,0.6,0.4c0.5,0.3,0.6,0.6,0.1,1.1c-0.9,0.9-1.7,1.8-2.6,2.6
		c-16.2,15.7-35.3,26.3-57,32.1C223,286,212.3,287.3,194.3,287.3z M107.8,247.4c0.2,0.7,0.6,0.9,1,1.3c6.7,6.7,14.1,12.5,22.2,17.4
		c19.3,11.8,40.2,18.1,62.7,19.2c18.2,0.9,35.9-1.8,53-8.2c16.9-6.3,31.9-15.6,44.8-28.3c0.3-0.3,0.6-0.6,0.9-0.9
		c0.3-0.3,0.3-0.6-0.1-0.9c-0.3-0.2-0.6-0.4-0.9-0.6c-8.8-6.1-17.5-12.2-26.3-18.3c-1.3-0.9-1.1-1-2.3,0.1
		c-10.7,8.6-22.6,14.9-35.7,18.9c-14.9,4.5-30,5.4-45.2,2.2c-16.4-3.5-31-10.6-44.1-21c-1.1-0.9-0.9-1.2-2.5-0.1
		c-7.6,5.3-15.2,10.6-22.8,15.9C110.9,245.2,109.3,246.3,107.8,247.4z"/>
	<path class="st0" d="M333.9,86.5c7.2,0,14.4,0,21.7,0c0.4,0,0.8,0,1.2,0c0.5,0,0.7,0.3,0.8,0.8c0,0.3,0,0.6,0,0.9
		c0,4.6,0,9.3,0,13.9c0,0.3,0,0.5,0,0.8c0.1,0.8-0.3,1-1,0.9c-0.3,0-0.6,0-0.9,0c-14.6,0-29.2,0-43.8,0c-0.1,0-0.1,0-0.2,0
		c-1.8,0-1.7,0.1-1.7-1.7c0-4.6,0-9.3,0-13.9c0-0.3,0-0.6,0-0.9c0-0.6,0.3-0.8,0.8-0.8c0.4,0,0.7,0,1.1,0
		C319.2,86.5,326.5,86.5,333.9,86.5z"/>
	<path class="st0" d="M182.6,98.8c0-23.3,0-46.6,0-69.9c0-0.4,0-0.7,0-1.1c0-1.4,0-1.4,1.4-1.7c8.3-1.9,16.6-2.3,25.1-1.3
		c3.5,0.4,6.9,1.1,10.3,1.9c0.8,0.2,1.1,0.6,1,1.4c0,0.3,0,0.5,0,0.8c0,46.6,0,93.1,0,139.7c0,2.1,0.5,1.8-1.8,2.4
		c-2.8,0.7-5.7,1.3-8.6,1.7c-1.2,0.2-1.2,0.1-1.3-1.1c0-0.7,0-1.3,0-2c0-21.2,0-42.5,0-63.7c0-2.1,0.1-1.9-1.8-1.9
		c-3.7,0-7.4,0-11.1,0c-1.3,0-1.3,0-1.3,1.3c0,4,0,8,0,12.1c0,17.7,0,35.5,0,53.2c0,0.4,0,0.7,0,1.1c0,1.4,0,1.4-1.4,1.3
		c-3-0.3-5.9-0.7-8.8-1.4c-1.5-0.4-1.6-0.3-1.6-1.9c0-5.3,0-10.6,0-15.9C182.6,135.4,182.6,117.1,182.6,98.8z M194.3,64.8
		c0,8.9,0,17.8,0,26.7c0,1.5,0,1.5,1.4,1.5c3.8,0,7.6,0,11.4,0c1.4,0,1.4,0,1.4-1.3c0-0.2,0-0.3,0-0.5c0-17.5,0-35,0-52.6
		c0-0.3,0-0.5,0-0.8c0-1.1,0-1.1-1.1-1.2c-3.7-0.5-7.5-0.5-11.3-0.3c-0.4,0-0.7,0.1-1.1,0.1c-0.5,0.1-0.8,0.3-0.7,0.8
		c0,0.4,0,0.8,0,1.2C194.3,47.3,194.3,56.1,194.3,64.8z"/>
	<path class="st0" d="M176.3,169.3c-3.9-1.3-7.4-2.9-10.9-4.7c-0.5-0.3-0.7-0.7-0.7-1.2c0-0.8,0-1.6,0-2.5c0-30,0-60,0-90
		c0-0.5,0.1-0.9-0.3-1.6c-3.9,8.8-7.8,17.5-11.7,26.4c-3.3-7.4-6.4-14.5-9.6-21.7c-2.7,2.9-5.6,17.1-5.4,26.2
		c0.2,9.1,2.3,17.7,6.3,25.8c-0.3,0.5-0.7,0.4-1.1,0.4c-3.5,0-7,0-10.5,0c-1.4,0-1.4,0-1.9-1.3c-2.7-7.1-4.3-14.5-4.7-22.1
		c-0.9-18.7,4.4-35.4,15.8-50.2c0.8-1.1,1.7-2.2,2.9-3.3c2.7,6.2,5.4,12.3,8.1,18.4c0.6-0.3,0.6-0.8,0.8-1.3
		c5-11.4,10-22.7,14.9-34.1c0.4-1,1-1.7,2.1-2.1c1.7-0.6,3.5-1.3,5.2-2c0.6-0.2,0.9-0.1,0.9,0.6c0,0.3,0,0.6,0,0.9
		c0,45.9,0,91.8,0,137.7C176.4,168.2,176.5,168.7,176.3,169.3z"/>
	<path class="st0" d="M226.6,29.1c10.3,3.9,19.1,9.7,26.7,17.4c5.9,6,10.7,12.7,14.3,20.3c-0.5,0.3-0.9,0.2-1.2,0.3
		c-3.6,0-7.2,0-10.8,0c-1,0-1.6-0.3-2.1-1.2c-3.6-5.9-8.2-11.1-13.6-15.5c-0.4-0.3-0.7-0.7-1.3-0.8c-0.3,1.1-0.4,96.3-0.1,98.5
		c0.6,0,0.9-0.5,1.3-0.8c6.6-5.3,11.9-11.7,15.8-19.2c0.6-1.2,1.3-1.6,2.6-1.6c3.2,0.1,6.5,0,9.7,0c1.6,0,1.6,0,1,1.5
		c-3.9,9.2-9.5,17.2-16.6,24.2c-6.9,6.7-14.9,11.9-23.8,15.6c-0.6,0.2-1.1,0.6-1.8,0.5C226.6,122,226.6,75.7,226.6,29.1z"/>
	<path class="st3" d="M107.8,247.4c1.5-1.1,3.1-2.2,4.6-3.2c7.6-5.3,15.2-10.6,22.8-15.9c1.6-1.1,1.4-0.8,2.5,0.1
		c13.1,10.4,27.7,17.5,44.1,21c15.3,3.2,30.3,2.4,45.2-2.2c13.1-4,25-10.4,35.7-18.9c1.3-1,1.1-0.9,2.3-0.1
		c8.8,6.1,17.5,12.2,26.3,18.3c0.3,0.2,0.6,0.4,0.9,0.6c0.4,0.3,0.4,0.5,0.1,0.9c-0.3,0.3-0.6,0.6-0.9,0.9
		c-12.9,12.6-27.9,22-44.8,28.3c-17.1,6.4-34.8,9.1-53,8.2c-22.5-1.1-43.5-7.5-62.7-19.2c-8.1-4.9-15.5-10.7-22.2-17.4
		C108.4,248.3,108,248.1,107.8,247.4z M135.3,241.4L135.3,241.4c-0.1,0.7-0.3,1.5-0.8,2c-0.5,0.5-0.6,1.2-0.7,1.7
		c-0.2,1.1-0.6,2.2-0.9,3.3c-1,3.1-2,6.3-3,9.4c-0.1,0.3-0.4,0.7-0.1,1c0.5,0.6,1.2,1,1.8,1.4c0.5,0.3,0.9-0.3,1.3-0.6
		c3.9-2.8,7.9-5.7,11.8-8.5c0.2-0.2,0.4-0.4,0.7-0.2c0.4,0.3,0,0.5-0.1,0.8c-1.5,2.8-3,5.5-4.5,8.3c-0.8,1.4-1.6,2.9-2.4,4.3
		c-0.2,0.3-0.4,0.6,0,0.9c1.1,0.8,2.2,1.6,3.4,2.5c1-2,2-3.9,2.9-5.7c2.4-4.6,4.8-9.3,7.2-13.9c0.4-0.7,0.4-1.2-0.3-1.6
		c-0.8-0.5-1.5-1.1-2.3-1.6c-1-0.7-1-0.7-2,0c-3.2,2.3-6.5,4.6-9.7,6.9c-1,0.7-1.9,1.3-2.6,2.3l0.1,0c-0.1-0.4,0.1-0.8,0.3-1.2
		c1.7-4.6,3-9.3,4.6-13.9c0.2-0.5,0.1-0.9-0.4-1.2c-1-0.7-2-1.4-3-2.2c-0.4-0.3-0.7-0.3-1.1,0.1c-0.2,0.2-0.4,0.4-0.5,0.5
		c-4.8,4.8-9.6,9.7-14.3,14.5c-0.3,0.3-0.7,0.5-0.7,1c0.8,0.6,1.7,1.2,2.6,1.9c1.1,0.8,1,0.7,1.8-0.2
		C127.9,249.4,131.6,245.4,135.3,241.4z M198.7,281c-1.9-3.7-3.7-7.2-5.5-10.7c1.2-0.3,2.2-0.6,3.2-1.3c3.1-2.2,3.5-8.9-1.5-10.6
		c-0.7-0.2-1.4-0.5-2.1-0.6c-2.7-0.4-5.4-0.5-8.2-0.7c-0.7,0-0.9,0.2-0.9,0.9c-0.1,2.4-0.3,4.8-0.5,7.2c-0.3,4.5-0.6,9-1,13.6
		c-0.1,0.9,0.2,1.1,1,1.1c1,0,2,0.1,2.9,0.2c0.8,0.1,0.9-0.3,1-1c0.2-2.7,0.4-5.3,0.6-8c0-0.3-0.2-0.7,0.4-0.9
		c0.3,0.5,0.5,1,0.8,1.5c1.3,2.7,2.5,5.3,3.8,8c0.2,0.5,0.4,1,1,1C195.3,280.8,196.9,280.9,198.7,281z M171.4,277.8
		c0.3-0.6,0.2-1,0.1-1.5c-0.2-3.7-0.4-7.3-0.6-11c-0.2-3.6-0.4-7.2-0.6-10.8c0-1-0.4-1.4-1.3-1.6c-1-0.3-2-0.6-2.9-0.9
		c-1.2-0.4-1.2-0.4-2,0.6c-4.6,5.7-9.2,11.4-13.8,17.1c-0.2,0.3-0.5,0.5-0.5,1c1.3,0.4,2.7,0.9,4,1.3c0.5,0.2,0.9,0.1,1.2-0.4
		c0.6-0.9,1.4-1.8,2-2.8c0.4-0.6,0.8-0.7,1.4-0.5c2.2,0.8,4.5,1.5,6.8,2.2c0.7,0.2,0.8,0.6,0.9,1.2c0,1.1,0.1,2.3,0.2,3.4
		c0,0.4,0,0.8,0.5,1C168.4,276.8,169.9,277.3,171.4,277.8z M283,251.3c-0.1-0.2-0.2-0.3-0.3-0.3c-6.5-4.2-13-8.4-19.6-12.7
		c-0.5-0.3-0.8-0.3-1.2,0.1c-1,0.7-2,1.5-3,2.2c-0.7,0.5-0.8,1-0.6,1.8c1.5,5.2,2.8,10.4,4.3,15.6c0.6,2.2,1.2,4.4,1.8,6.8
		c1.5-0.8,2.6-1.9,3.9-2.7c0.4-0.3,0.3-0.6,0.1-1c-0.4-1.1-0.7-2.2-1.1-3.2c-0.2-0.6-0.2-1,0.4-1.4c1.9-1.4,3.9-2.7,5.8-4.2
		c0.6-0.4,1-0.4,1.5,0c1,0.7,2,1.3,3,2c0.4,0.3,0.7,0.3,1.1,0C280.4,253.1,281.7,252.2,283,251.3z M225.9,255.2
		c-1,0.3-2.1,0.5-3.1,0.8c-1.2,0.3-1.2,0.3-0.9,1.6c1,3.9,2.1,7.9,3.2,11.8c0.7,2.7,1.4,5.4,2.2,8.1c0.1,0.5,0.2,1,1,0.8
		c3.6-1,7.3-2,10.9-2.9c0.5-0.1,0.7-0.3,0.5-0.9c-0.3-0.8-0.5-1.7-0.7-2.5c-0.1-0.7-0.5-0.8-1.1-0.6c-1.8,0.5-3.7,1-5.5,1.5
		c-1.1,0.3-1.2,0.3-1.5-0.8c-1-3.5-1.9-7.1-2.8-10.6c-0.5-1.8-1-3.7-1.5-5.5C226.4,255.6,226.4,255.1,225.9,255.2z M213.5,268.8
		C213.5,268.8,213.5,268.8,213.5,268.8c-0.2-3.4-0.5-6.9-0.7-10.3c-0.1-1.1-0.1-1.1-1.3-1.1c-0.8,0-1.5,0.1-2.3,0.1
		c-1.3,0.1-1.4,0.1-1.3,1.4c0.2,2.8,0.4,5.6,0.6,8.5c0.3,4,0.6,8,0.8,12c0.1,0.9,0.4,1,1.1,1c0.9-0.1,1.8-0.1,2.8-0.2
		c1.1-0.1,1.1-0.1,1-1.2C214,275.6,213.8,272.2,213.5,268.8z M254.6,269c-0.1-0.3-0.2-0.6-0.4-0.9c-1.3-2.9-2.6-5.8-3.9-8.7
		c-1.4-3.2-2.9-6.5-4.3-9.7c-0.5-1.1-0.5-1.1-1.7-0.6c-0.7,0.3-1.3,0.6-2,0.9c-1.3,0.6-1.4,0.5-0.8,1.8c2.3,5.1,4.5,10.2,6.8,15.2
		c0.5,1.2,1.1,2.4,1.6,3.7c0.2,0.4,0.4,0.7,0.9,0.5c1.1-0.5,2.2-1,3.2-1.4C254.4,269.5,254.6,269.3,254.6,269z M208.3,255
		c0.7,0.6,0.9,1.5,1.8,1.2c1.7-0.5,3.5-0.9,5.3-1.6c-0.5-0.6-1-1.1-1.5-1.7c-0.3-0.4-0.6-0.4-1.1-0.2
		C211.3,253.5,209.9,254.2,208.3,255z"/>
	<path class="st2" d="M194.3,64.8c0-8.8,0-17.5,0-26.3c0-0.4,0-0.8,0-1.2c0-0.5,0.3-0.7,0.7-0.8c0.4,0,0.7-0.1,1.1-0.1
		c3.8-0.2,7.5-0.2,11.3,0.3c1.1,0.1,1.1,0.1,1.1,1.2c0,0.3,0,0.5,0,0.8c0,17.5,0,35,0,52.6c0,0.2,0,0.3,0,0.5c0,1.3,0,1.3-1.4,1.3
		c-3.8,0-7.6,0-11.4,0c-1.4,0-1.4,0-1.4-1.5C194.3,82.6,194.3,73.7,194.3,64.8z"/>
	<path class="st4" d="M134.8,254c0.7-1,1.7-1.6,2.6-2.3c3.2-2.3,6.5-4.6,9.7-6.9c1-0.7,1-0.7,2,0c0.8,0.5,1.5,1.1,2.3,1.6
		c0.7,0.5,0.7,0.9,0.3,1.6c-2.4,4.6-4.8,9.2-7.2,13.9c-0.9,1.8-1.9,3.7-2.9,5.7c-1.2-0.9-2.3-1.7-3.4-2.5c-0.4-0.3-0.2-0.6,0-0.9
		c0.8-1.4,1.6-2.9,2.4-4.3c1.5-2.8,3-5.5,4.5-8.3c0.1-0.2,0.5-0.5,0.1-0.8c-0.2-0.2-0.5,0.1-0.7,0.2c-3.9,2.8-7.8,5.7-11.8,8.5
		c-0.4,0.3-0.8,0.9-1.3,0.6c-0.7-0.3-1.4-0.8-1.8-1.4c-0.2-0.3,0-0.7,0.1-1c1-3.1,2-6.3,3-9.4c0.3-1.1,0.7-2.1,0.9-3.3
		c0.1-0.6,0.3-1.2,0.7-1.7c0.4-0.5,0.7-1.3,0.7-2c0,0,0,0.1,0,0.1l0.1-0.1c-3.7,4-7.4,8-11.1,12c-0.9,0.9-0.8,1-1.8,0.2
		c-0.9-0.6-1.7-1.3-2.6-1.9c0-0.6,0.4-0.8,0.7-1c4.8-4.8,9.5-9.7,14.3-14.5c0.2-0.2,0.4-0.4,0.5-0.5c0.3-0.4,0.6-0.4,1.1-0.1
		c1,0.7,2,1.5,3,2.2c0.5,0.3,0.5,0.7,0.4,1.2c-1.6,4.6-2.9,9.3-4.6,13.9C135,253.2,134.8,253.5,134.8,254
		C134.9,253.9,134.8,253.9,134.8,254C134.9,253.9,134.9,253.9,134.8,254z"/>
	<path class="st4" d="M198.7,281c-1.8-0.1-3.4-0.2-5-0.3c-0.7,0-0.8-0.5-1-1c-1.3-2.7-2.5-5.3-3.8-8c-0.2-0.5-0.5-1-0.8-1.5
		c-0.5,0.2-0.3,0.6-0.4,0.9c-0.2,2.7-0.4,5.3-0.6,8c0,0.7-0.2,1.1-1,1c-1-0.1-2-0.2-2.9-0.2c-0.8,0-1.1-0.3-1-1.1
		c0.4-4.5,0.7-9,1-13.6c0.2-2.4,0.4-4.8,0.5-7.2c0-0.6,0.2-0.9,0.9-0.9c2.7,0.2,5.5,0.3,8.2,0.7c0.7,0.1,1.4,0.3,2.1,0.6
		c5,1.8,4.6,8.4,1.5,10.6c-0.9,0.7-1.9,1-3.2,1.3C195.1,273.9,196.9,277.4,198.7,281z M190.3,267.2c0.3,0,0.7,0,1.2-0.1
		c1.5-0.2,2.1-0.8,2.3-2.4c0.2-1.5-0.4-2.6-1.7-3c-0.8-0.3-1.7-0.4-2.6-0.5c-0.8-0.1-1.1,0.1-1.1,1c0,1-0.2,1.9-0.2,2.9
		C188.1,267.4,187.7,267.1,190.3,267.2z"/>
	<path class="st4" d="M171.4,277.8c-1.6-0.5-3.1-1-4.6-1.5c-0.5-0.2-0.5-0.6-0.5-1c-0.1-1.1-0.2-2.3-0.2-3.4c0-0.6-0.2-1-0.9-1.2
		c-2.3-0.7-4.5-1.4-6.8-2.2c-0.6-0.2-1.1-0.1-1.4,0.5c-0.6,0.9-1.3,1.8-2,2.8c-0.3,0.5-0.7,0.6-1.2,0.4c-1.3-0.5-2.7-0.9-4-1.3
		c0-0.5,0.3-0.7,0.5-1c4.6-5.7,9.2-11.4,13.8-17.1c0.8-1,0.8-1,2-0.6c1,0.3,1.9,0.7,2.9,0.9c0.9,0.2,1.2,0.6,1.3,1.6
		c0.1,3.6,0.4,7.2,0.6,10.8c0.2,3.7,0.4,7.3,0.6,11C171.6,276.7,171.7,277.1,171.4,277.8z M166,266.9c0-3.4,0-6.6,0-10.1
		c-1.8,3.1-4,5.4-5.8,8.2C162.3,265.6,164.1,266.2,166,266.9z"/>
	<path class="st4" d="M283,251.3c-1.3,0.9-2.6,1.9-3.8,2.8c-0.4,0.3-0.7,0.2-1.1,0c-1-0.7-2-1.3-3-2c-0.5-0.4-0.9-0.4-1.5,0
		c-1.9,1.4-3.8,2.8-5.8,4.2c-0.6,0.4-0.6,0.8-0.4,1.4c0.4,1.1,0.7,2.2,1.1,3.2c0.1,0.4,0.2,0.7-0.1,1c-1.3,0.9-2.4,1.9-3.9,2.7
		c-0.6-2.3-1.2-4.6-1.8-6.8c-1.4-5.2-2.8-10.4-4.3-15.6c-0.2-0.8-0.1-1.3,0.6-1.8c1-0.7,2-1.4,3-2.2c0.4-0.3,0.8-0.4,1.2-0.1
		c6.5,4.2,13,8.5,19.6,12.7C282.8,251,282.8,251.1,283,251.3z M262.8,243.3c1.3,3,1.9,6.3,3.2,9.5c1.7-1.2,3.3-2.4,5-3.6
		C268.2,247.1,265.4,245.4,262.8,243.3z"/>
	<path class="st4" d="M225.9,255.2c0.5,0,0.5,0.4,0.6,0.7c0.5,1.8,1,3.7,1.5,5.5c0.9,3.5,1.9,7.1,2.8,10.6c0.3,1.1,0.3,1.1,1.5,0.8
		c1.8-0.5,3.7-0.9,5.5-1.5c0.6-0.2,1-0.1,1.1,0.6c0.2,0.9,0.4,1.7,0.7,2.5c0.2,0.6-0.1,0.7-0.5,0.9c-3.6,1-7.3,1.9-10.9,2.9
		c-0.8,0.2-0.8-0.3-1-0.8c-0.7-2.7-1.4-5.4-2.2-8.1c-1.1-3.9-2.1-7.9-3.2-11.8c-0.3-1.2-0.3-1.2,0.9-1.6
		C223.8,255.7,224.9,255.4,225.9,255.2z"/>
	<path class="st4" d="M213.5,268.8c0.2,3.4,0.5,6.8,0.7,10.2c0.1,1.1,0.1,1.1-1,1.2c-0.9,0.1-1.8,0.1-2.8,0.2
		c-0.7,0.1-1.1-0.1-1.1-1c-0.2-4-0.6-8-0.8-12c-0.2-2.8-0.4-5.6-0.6-8.5c-0.1-1.4-0.1-1.4,1.3-1.4c0.8,0,1.5-0.1,2.3-0.1
		c1.2-0.1,1.2-0.1,1.3,1.1C213.1,261.9,213.3,265.4,213.5,268.8C213.5,268.8,213.5,268.8,213.5,268.8z"/>
	<path class="st4" d="M254.6,269c0,0.4-0.2,0.5-0.5,0.6c-1.1,0.5-2.2,0.9-3.2,1.4c-0.5,0.3-0.7,0-0.9-0.5c-0.5-1.2-1.1-2.5-1.6-3.7
		c-2.3-5.1-4.5-10.2-6.8-15.2c-0.6-1.4-0.6-1.3,0.8-1.8c0.7-0.3,1.3-0.6,2-0.9c1.2-0.5,1.2-0.5,1.7,0.6c1.5,3.2,2.9,6.5,4.3,9.7
		c1.3,2.9,2.6,5.8,3.9,8.7C254.4,268.4,254.5,268.7,254.6,269z"/>
	<path class="st4" d="M208.3,255c1.6-0.8,3-1.5,4.5-2.3c0.4-0.2,0.8-0.2,1.1,0.2c0.5,0.5,0.9,1.1,1.5,1.7c-1.8,0.7-3.6,1.1-5.3,1.6
		C209.2,256.5,209,255.6,208.3,255z"/>
	<path class="st3" d="M135.3,241.4L135.3,241.4C135.2,241.4,135.2,241.4,135.3,241.4C135.2,241.4,135.3,241.4,135.3,241.4z"/>
	<path class="st3" d="M134.8,254C134.9,253.9,134.9,253.9,134.8,254C134.8,253.9,134.9,253.9,134.8,254
		C134.9,254,134.8,254,134.8,254z"/>
	<path class="st3" d="M190.3,267.2c-2.5-0.1-2.2,0.2-2.1-2.1c0-1,0.2-1.9,0.2-2.9c0-0.8,0.4-1,1.1-1c0.9,0.1,1.7,0.2,2.6,0.5
		c1.3,0.5,1.9,1.6,1.7,3c-0.2,1.5-0.8,2.2-2.3,2.4C191,267.2,190.6,267.2,190.3,267.2z"/>
	<path class="st3" d="M166,266.9c-1.9-0.6-3.8-1.2-5.8-1.9c1.8-2.8,4-5.2,5.8-8.2C166,260.3,166,263.4,166,266.9z"/>
	<path class="st3" d="M262.8,243.3c2.6,2.1,5.4,3.8,8.2,5.9c-1.8,1.3-3.3,2.4-5,3.6C264.8,249.6,264.1,246.4,262.8,243.3z"/>
</g>
</svg>
