<svg id="Layer_1" data-name="Layer 1" xmlns="http://www.w3.org/2000/svg" viewBox="0 0 500 500"><defs><style>.cls-1{fill:#006bb1;}.cls-2{fill:#fff;}</style></defs><title>matonense</title><path class="cls-1" d="M71.92,101.31c6.92-18.22,19.46-42.23,38.14-57,30,15.57,53.28,10.7,67.9-21.9,4.51,3.39,8.85,7,13.52,10.09a25.75,25.75,0,0,0,18.08,4.44c7.24-1,11-6.16,14-11.85,2.38-4.54,3.73-9.62,5.71-14.39.41-1,1.55-2.36,2.37-2.37,17.61-.14,35.22-.11,52.26-.11C286.8,14.73,289.28,21,292.25,27c5.26,10.64,16.8,12.54,26.16,8,6.53-3.16,12.19-8.09,18.14-12.16,2.9,4.58,5.75,9.9,9.39,14.61,6.4,8.3,14.33,14.06,25.43,15,10.55.9,20.08-1.7,29.11-6.62,2.82-1.53,4.77-1.2,6.94.81a113.82,113.82,0,0,1,23.06,29c4.31,8,8,16.24,11.93,24.38.15.3.14.67,0,.13-8.22,1.67-16.56,2.58-24.37,5.11-14.56,4.73-25.64,14.2-33.48,27.45-8,13.44-10.39,28.16-9.21,43.34a85.21,85.21,0,0,0,21.52,50.8c8.62,9.75,18.44,18.43,27.51,27.79,8.88,9.17,16.4,19.3,21.12,31.36,4.44,11.33,5,23,2.81,34.68-1.35,7.06-3,14.35-6.06,20.75-6,12.43-12.9,24.49-20,36.35-8.17,13.63-19,25.17-30.69,35.85-10.8,9.89-22.91,18-35.75,25.11-15.59,8.65-32.12,14.87-48.85,20.76-14,4.93-27.66,10.9-39.46,20.18-3.93,3.09-7.1,7.13-10.49,10.61-10.55-15.45-27.73-22.34-44.88-29s-35-12.34-51.37-21.35a222.42,222.42,0,0,1-32.42-21.7C113,405.77,100.51,391,90,374.43c-9.73-15.29-18.4-31.12-22.7-49-5.41-22.5-.57-42.56,14.08-60.23,5.5-6.64,11.54-12.85,17.55-19.05,4.49-4.63,9.59-8.68,14-13.41,13-14.09,22.11-30.21,25.41-49.43,2.72-15.87,1.43-31.27-5.61-45.66-10-20.37-26.44-32.44-49.11-35.61-1.92-.27-3.83-.57-5.76-.69S74,101.31,71.92,101.31ZM90.55,349.5l21-13.82Q234,254.9,356.61,174.25c5.29-3.47,9.28-6.73,8.08-13.65A15.18,15.18,0,0,1,365,157c2-24.94,13.75-44.05,34.82-57.24,7.51-4.7,15.73-8.26,23.91-12.49C419.29,77.14,412,68.92,403,62.11a2.24,2.24,0,0,0-1.69-.46c-5.13,1.46-10.94,1.93-15.23,4.72C349.9,89.87,314,113.8,278,137.6c-48.88,32.3-97.58,64.85-146.71,96.76-19,12.32-34.87,27.19-45.75,47.05C73,304.31,75.86,328.49,90.55,349.5Zm54.1-139.29L364.76,64.83A46.53,46.53,0,0,1,334.34,44.4c-6.23,2-12,4.33-18,5.79-13.56,3.28-25-.37-33.29-11.87A100,100,0,0,1,275.4,25c-1.08-2.12-2.15-3.1-4.67-3a202.83,202.83,0,0,1-21.64-.07c-5.61-.45-9,1.1-10.51,6.64a19.28,19.28,0,0,1-2.21,4.21c-9.31,16.32-22,21.7-40.12,16.7-5-1.39-9.84-3.42-14.82-5.17-.47.57-1,1.11-1.39,1.7C172.52,56.59,162.38,63,149.5,65c-11.1,1.7-21.92,0-32.66-2.76-1.41-.36-3.45-.63-4.43.09A63.32,63.32,0,0,0,91.64,87.76c2.91,1.21,5.61,2.29,8.26,3.45,14.45,6.3,27.38,14.72,36.88,27.57,13.8,18.69,16.14,40,13.32,62.21C148.87,190.74,146.53,200.34,144.65,210.21Zm211-18.81c-6,3.91-11.11,7.44-16.42,10.64-2.53,1.52-3.29,3.35-3.29,6.23Q336,320.61,336,433c0,1.3.11,2.6.21,4.64,5.74-3.11,10.87-6.08,16.19-8.69,2.94-1.43,3.85-3.28,3.83-6.55q-.41-109.73-.59-219.46C355.63,199.36,355.64,195.82,355.64,191.4ZM308.55,449c4.84-1.73,8.91-3.33,13.07-4.62,2.57-.8,3.23-2.23,3.23-4.82q-.11-112.11-.07-224.23c0-1-.16-2-.28-3.52-4.42,2.88-8.28,5.67-12.4,8-2.84,1.61-3.63,3.62-3.62,6.8q.13,108.81.07,217.63ZM217.39,281.92c-6,3.89-11.3,7.53-16.82,10.85-2.41,1.46-3.12,3.14-3.11,5.89.1,33.76.06,67.51.06,101.26,0,14.19,0,28.37,0,42.56,0,1.16.45,3,1.19,3.35,6,2.44,12.2,4.58,18.63,6.92ZM185.75,440.61V302.55c-4.32,2.85-8.07,5.52-12,7.86a5,5,0,0,0-2.73,5c.1,17.86.06,35.72.06,53.58,0,20.31,0,40.62.06,60.93,0,1.35.57,3.36,1.54,3.94C176.73,436.28,181.05,438.25,185.75,440.61Z"/><path class="cls-2" d="M90.55,349.5c-14.69-21-17.59-45.19-5-68.09,10.88-19.86,26.78-34.73,45.75-47.05C180.39,202.45,229.09,169.9,278,137.6c36-23.8,71.93-47.73,108.14-71.23,4.29-2.79,10.1-3.26,15.23-4.72a2.24,2.24,0,0,1,1.69.46c9,6.81,16.26,15,20.72,25.12-8.18,4.23-16.4,7.79-23.91,12.49C378.77,112.91,367,132,365,157a15.18,15.18,0,0,0-.33,3.64c1.2,6.92-2.79,10.18-8.08,13.65Q234,254.79,111.55,335.68ZM258.32,169.67l-7.87,5.24c-6.91,4.61-6.91,4.61-4.45,12.39q1.2,3.84,2.42,7.68c.78,2.46,1.57,4.93,2.35,7.4l-.82.46-18.27-15.4-14.87,9.91L239,230.54,248,224.4l-15.84-23.89a233.41,233.41,0,0,1,20,16.19c2.39,2.14,4.11,2.58,6.84.55,4.67-3.47,4.8-3.29,3-8.89-.33-1-.72-2.08-1.05-3.12l-6.18-19.57.7-.32,15.79,23.55,9-6.15Zm-62.59,59.76-17.79,11.82c-1.25-1.9-2.37-3.57-3.66-5.52l19.15-12.82L188.82,216l-30.44,20.38,22.1,33.12,31.08-20.76-5-7.15-19.71,13c-1.6-2.46-3-4.55-4.42-6.76l17.69-11.95Zm-83.48,70.14c3,1.72,5.32,3.57,7.94,4.4,8.64,2.75,25-7.52,27.43-17,2.27-8.73-3.4-15.38-12.45-14.45a32.88,32.88,0,0,0-6.74,1.6c-3.36,1.1-6.6,2.57-10,3.54-1,.29-3-.25-3.38-1s0-2.63.68-3.56c2.1-2.89,5.43-3.51,8.81-2.15a3.3,3.3,0,0,0,2.55.11c3-2,5.86-4.26,8.91-6.53-3.18-3.65-6.85-5.24-11-4.27a31.31,31.31,0,0,0-19.47,13.32c-2.5,3.73-2.7,7.86.07,11.67s6.52,4.72,10.74,3.63c4.71-1.22,9.3-2.91,14-4.3,2.29-.69,4.83-1.15,6.1,1.53,1.21,2.52-.36,4.45-2.27,6-3.84,3.07-7.62,2.62-11.26-.54ZM345.42,159.39c-9.17-6.1-17.79-11.87-26.46-17.57-3.14-2.07-6.4-5.55-9.58-5.52s-6.3,3.74-9.61,5.56c-2.26,1.25-2.6,2.85-2.12,5.14,1.32,6.33,2.51,12.69,3.76,19,1.3,6.53,2.61,13.07,4,20,3.2-2.11,5.86-4,8.7-5.66,2.2-1.26,2.94-2.7,1.78-5-1.33-2.72-.23-4.37,2.29-5.8,3.38-1.93,6.53-4.27,10.22-6.73,4,6.28,8,3.11,12,0C341.83,161.69,343.4,160.75,345.42,159.39Z"/><path class="cls-2" d="M144.65,210.21c1.88-9.87,4.22-19.47,5.45-29.22,2.82-22.2.48-43.52-13.32-62.21-9.5-12.85-22.43-21.27-36.88-27.57-2.65-1.16-5.35-2.24-8.26-3.45a63.32,63.32,0,0,1,20.77-25.41c1-.72,3-.45,4.43-.09C127.58,65,138.4,66.72,149.5,65c12.88-2,23-8.43,30.54-19,.42-.59.92-1.13,1.39-1.7,5,1.75,9.81,3.78,14.82,5.17,18.09,5,30.81-.38,40.12-16.7a19.28,19.28,0,0,0,2.21-4.21c1.49-5.54,4.9-7.09,10.51-6.64a202.83,202.83,0,0,0,21.64.07c2.52-.07,3.59.91,4.67,3A100,100,0,0,0,283,38.32c8.29,11.5,19.73,15.15,33.29,11.87,6-1.46,11.81-3.76,18-5.79a46.53,46.53,0,0,0,30.42,20.43Zm6-91a41,41,0,1,0,41-40.38C169.42,78.74,150.83,97.05,150.66,119.21Z"/><path class="cls-2" d="M355.64,191.4c0,4.42,0,8,0,11.49q.25,109.73.59,219.46c0,3.27-.89,5.12-3.83,6.55-5.32,2.61-10.45,5.58-16.19,8.69-.1-2-.21-3.34-.21-4.64q0-112.35-.07-224.68c0-2.88.76-4.71,3.29-6.23C344.53,198.84,349.65,195.31,355.64,191.4Z"/><path class="cls-2" d="M308.55,449v-4.76q0-108.83-.07-217.63c0-3.18.78-5.19,3.62-6.8,4.12-2.33,8-5.12,12.4-8,.12,1.49.28,2.5.28,3.52q0,112.11.07,224.23c0,2.59-.66,4-3.23,4.82C317.46,445.65,313.39,447.25,308.55,449Z"/><path class="cls-2" d="M217.39,281.92V452.75c-6.43-2.34-12.59-4.48-18.63-6.92-.74-.3-1.18-2.19-1.19-3.35-.08-14.19,0-28.37,0-42.56,0-33.75,0-67.5-.06-101.26,0-2.75.7-4.43,3.11-5.89C206.09,289.45,211.41,285.81,217.39,281.92Z"/><path class="cls-2" d="M185.75,440.61c-4.7-2.36-9-4.33-13.09-6.73-1-.58-1.53-2.59-1.54-3.94-.09-20.31-.06-40.62-.06-60.93,0-17.86,0-35.72-.06-53.58a5,5,0,0,1,2.73-5c4-2.34,7.7-5,12-7.86Z"/><path class="cls-1" d="M258.32,169.67l22.05,33.08-9,6.15-15.79-23.55-.7.32L261,205.24c.33,1,.72,2.08,1.05,3.12,1.77,5.6,1.64,5.42-3,8.89-2.73,2-4.45,1.59-6.84-.55a233.41,233.41,0,0,0-20-16.19L248,224.4,239,230.54l-22.16-33.19,14.87-9.91L250,202.84l.82-.46c-.78-2.47-1.57-4.94-2.35-7.4s-1.62-5.12-2.42-7.68c-2.46-7.78-2.46-7.78,4.45-12.39Z"/><path class="cls-1" d="M195.73,229.43l4.37,6.51-17.69,11.95c1.45,2.21,2.82,4.3,4.42,6.76l19.71-13,5,7.15-31.08,20.76-22.1-33.12L188.82,216l4.61,6.88-19.15,12.82c1.29,2,2.41,3.62,3.66,5.52Z"/><path class="cls-1" d="M112.25,299.57l10.58-8c3.64,3.16,7.42,3.61,11.26.54,1.91-1.54,3.48-3.47,2.27-6-1.27-2.68-3.81-2.22-6.1-1.53-4.66,1.39-9.25,3.08-14,4.3-4.22,1.09-8.06.06-10.74-3.63s-2.57-7.94-.07-11.67A31.31,31.31,0,0,1,125,260.27c4.2-1,7.87.62,11,4.27-3,2.27-5.91,4.5-8.91,6.53a3.3,3.3,0,0,1-2.55-.11c-3.38-1.36-6.71-.74-8.81,2.15-.68.93-1.14,2.72-.68,3.56s2.37,1.3,3.38,1c3.39-1,6.63-2.44,10-3.54a32.88,32.88,0,0,1,6.74-1.6c9.05-.93,14.72,5.72,12.45,14.45-2.46,9.46-18.79,19.73-27.43,17C117.57,303.14,115.27,301.29,112.25,299.57Z"/><path class="cls-1" d="M345.42,159.39c-2,1.36-3.59,2.3-5,3.41-4,3.14-8,6.31-12,0-3.69,2.46-6.84,4.8-10.22,6.73-2.52,1.43-3.62,3.08-2.29,5.8,1.16,2.35.42,3.79-1.78,5-2.84,1.62-5.5,3.55-8.7,5.66-1.39-7-2.7-13.5-4-20-1.25-6.35-2.44-12.71-3.76-19-.48-2.29-.14-3.89,2.12-5.14,3.31-1.82,6.4-5.54,9.61-5.56s6.44,3.45,9.58,5.52C327.63,147.52,336.25,153.29,345.42,159.39ZM309.7,148.71l-.77.44c1.22,4.49,2.43,9,3.78,14l8.39-5.67Z"/><path class="cls-1" d="M150.66,119.21c.17-22.16,18.76-40.47,41-40.38a41,41,0,1,1-41,40.38Zm40.6,33.89c2.07-.1,3.53-.26,5-.22,5.57.14,9.2-2.47,11-7.69.27-.81.52-2.06.11-2.6-5.05-6.63-9.17-14.94-20-12.06-.11,0-.27,0-.36,0-1.08.61-2.52,1-3.14,1.91-2.18,3.24-4.11,6.65-6.06,10-.4.69-.92,1.91-.62,2.29,2.37,3,3.46,7.55,8.46,7.79C187.72,152.66,189.78,153,191.26,153.1Zm34.91-32.38-.81-.37a10.54,10.54,0,0,0-.37-2.13c-2-5-6.32-7-11.41-5.19a40.19,40.19,0,0,1-5.53,1.91c-3.1.58-4.06,2.69-5.26,5.29-2.81,6.07-2.24,11.12,3,15.5a18.1,18.1,0,0,1,2.09,2.55c2.76,3.38,9.9,3,11.81-1C222.21,131.92,224,126.25,226.17,120.72Zm-68.85.19c2.51,5.91,4.74,12,7.62,17.68,2.28,4.55,8.93,4.42,11.52.14,1.46-2.41,2.77-4.91,4.38-7.2,1.41-2,1.25-3.82.82-6.15-1.22-6.71-4.63-10.65-11.64-11.09a14,14,0,0,1-2.81-.81C163.75,112.5,158.08,116.93,157.32,120.91Zm35.46-21.38c-1.46,4.75,1.05,8.38,6,10.84,1,.48,1.72,1.44,2.7,1.85a5.5,5.5,0,0,0,3.31.57c3.73-1.09,7.41-2.4,11-3.81.85-.33,2-1.29,2.06-2.07.51-4.52.86-9.06-3.87-12-2.69-1.66-5.28-3.48-7.85-5.32-4.37-3.12-8.37-.77-11.81,1.45-1.34.86-1.09,4.22-1.54,6.44A16.15,16.15,0,0,0,192.78,99.53Zm-3.11.29c0-9,.06-9.33-6.23-10.65-2.15-.46-5.05.57-7,1.83a80.49,80.49,0,0,0-9.63,7.8c-1.7,1.51-2.63,8.46-1.54,10.32a3.12,3.12,0,0,0,1.72,1.14c3.51,1,7,2,10.59,2.88a3.76,3.76,0,0,0,2.79-.15C184.9,109.28,192.29,107.35,189.67,99.82Zm-28.41,42.62,1.06-.35L154.16,120A33.12,33.12,0,0,0,161.26,142.44Zm-.39-44.91c1.12.33,1.78.73,2,.56,5.53-4.42,11-8.9,16.5-13.37C171.72,86.41,166.05,91.06,160.87,97.53Zm43.72,57.92H181.22C189,158.67,196.58,158.15,204.59,155.45Zm18.13-15.36c4.34-3.44,7.8-15.6,6.31-20.21C227.08,126.14,224.9,133.11,222.72,140.09ZM220.4,95.88c-2.52-4.93-12.47-11.62-16.85-11.5Z"/><path class="cls-2" d="M309.7,148.71l11.4,8.78-8.39,5.67c-1.35-5-2.56-9.52-3.78-14Z"/><path class="cls-2" d="M191.26,153.1c-1.48-.15-3.54-.44-5.61-.54-5-.24-6.09-4.74-8.46-7.79-.3-.38.22-1.6.62-2.29,1.95-3.38,3.88-6.79,6.06-10,.62-.92,2.06-1.3,3.14-1.91.09,0,.25,0,.36,0,10.8-2.88,14.92,5.43,20,12.06.41.54.16,1.79-.11,2.6-1.77,5.22-5.4,7.83-11,7.69C194.79,152.84,193.33,153,191.26,153.1Z"/><path class="cls-2" d="M226.17,120.72c-2.13,5.53-4,11.2-6.49,16.54-1.91,4-9.05,4.4-11.81,1a18.1,18.1,0,0,0-2.09-2.55c-5.23-4.38-5.8-9.43-3-15.5,1.2-2.6,2.16-4.71,5.26-5.29a40.19,40.19,0,0,0,5.53-1.91c5.09-1.78,9.37.15,11.41,5.19a10.54,10.54,0,0,1,.37,2.13Z"/><path class="cls-2" d="M157.32,120.91c.76-4,6.43-8.41,9.89-7.43a14,14,0,0,0,2.81.81c7,.44,10.42,4.38,11.64,11.09.43,2.33.59,4.15-.82,6.15-1.61,2.29-2.92,4.79-4.38,7.2-2.59,4.28-9.24,4.41-11.52-.14C162.06,132.87,159.83,126.82,157.32,120.91Z"/><path class="cls-2" d="M192.78,99.53a16.15,16.15,0,0,1,0-2c.45-2.22.2-5.58,1.54-6.44,3.44-2.22,7.44-4.57,11.81-1.45,2.57,1.84,5.16,3.66,7.85,5.32,4.73,2.92,4.38,7.46,3.87,12-.09.78-1.21,1.74-2.06,2.07-3.62,1.41-7.3,2.72-11,3.81a5.5,5.5,0,0,1-3.31-.57c-1-.41-1.73-1.37-2.7-1.85C193.83,107.91,191.32,104.28,192.78,99.53Z"/><path class="cls-2" d="M189.67,99.82c2.62,7.53-4.77,9.46-9.32,13.17a3.76,3.76,0,0,1-2.79.15c-3.55-.87-7.08-1.86-10.59-2.88a3.12,3.12,0,0,1-1.72-1.14c-1.09-1.86-.16-8.81,1.54-10.32a80.49,80.49,0,0,1,9.63-7.8c2-1.26,4.87-2.29,7-1.83C189.73,90.49,189.67,90.8,189.67,99.82Z"/><path class="cls-2" d="M161.26,142.44a33.12,33.12,0,0,1-7.1-22.42l8.16,22.07Z"/><path class="cls-2" d="M160.87,97.53c5.18-6.47,10.85-11.12,18.48-12.81-5.49,4.47-11,9-16.5,13.37C162.65,98.26,162,97.86,160.87,97.53Z"/><path class="cls-2" d="M204.59,155.45c-8,2.7-15.64,3.22-23.37,0Z"/><path class="cls-2" d="M222.72,140.09c2.18-7,4.36-14,6.31-20.21C230.52,124.49,227.06,136.65,222.72,140.09Z"/><path class="cls-2" d="M220.4,95.88l-16.85-11.5C207.93,84.26,217.88,91,220.4,95.88Z"/></svg>