<?xml version="1.0" encoding="utf-8"?>
<!-- Generator: Adobe Illustrator 22.1.0, SVG Export Plug-In . SVG Version: 6.00 Build 0)  -->
<svg version="1.1" id="Layer_1" xmlns="http://www.w3.org/2000/svg" xmlns:xlink="http://www.w3.org/1999/xlink" x="0px" y="0px"
	 viewBox="0 0 600 600" enable-background="new 0 0 600 600" xml:space="preserve">
<g>
	<g>
		<g>
			<path fill="#F6AD1B" d="M59.249,4.839h481.502v481.049h-0.033c-33.089,57.963-92.604,63.423-157.789,67.795
				c-32.642,3.369-59.883,17.468-81.11,41.137l0.006,0.341c-0.053-0.055-0.102-0.116-0.158-0.169
				c-0.052,0.053-0.099,0.108-0.152,0.169v-0.341c-21.434-23.662-49.235-37.501-82.194-40.87
				c-65.829-4.378-126.557-10.073-159.958-68.061h-0.113L59.249,4.839L59.249,4.839z"/>
		</g>
	</g>
	<g>
		<g>
			<path fill="#151310" d="M67.541,15.003h464.922v464.486h-0.034c-31.951,55.966-89.416,61.236-152.355,65.457
				c-31.523,3.261-57.824,16.875-78.318,39.724l0.006,0.327c-0.053-0.053-0.102-0.108-0.155-0.163
				c-0.052,0.055-0.096,0.104-0.149,0.163v-0.327c-20.693-22.843-47.537-36.208-79.36-39.463
				c-63.563-4.232-122.197-9.729-154.451-65.719h-0.107L67.541,15.003L67.541,15.003z"/>
		</g>
	</g>
	<g>
		<path fill="#DF1F26" d="M447.482,537.143c35.024-7.493,64.97-22.662,84.947-57.655h0.034V398.16L211.697,15.003H67.541v68.3
			L447.482,537.143z"/>
	</g>
	<g>
		<path fill="#FFFFFF" d="M86.297,81.363V33.604h32.225v5.64H92.624v14.789h22.404v5.637H92.624v21.696h-6.328V81.363z
			 M126.456,81.363V33.604h17.928c3.646,0,6.569,0.49,8.771,1.447c2.214,0.965,3.938,2.458,5.183,4.468
			c1.245,2.004,1.879,4.104,1.879,6.308c0,2.036-0.552,3.958-1.669,5.76c-1.099,1.802-2.776,3.258-5.013,4.369
			c2.887,0.845,5.104,2.292,6.661,4.326c1.557,2.048,2.334,4.46,2.334,7.239c0,2.235-0.479,4.314-1.424,6.239
			c-0.945,1.922-2.117,3.403-3.503,4.447c-1.391,1.047-3.136,1.825-5.226,2.359c-2.089,0.533-4.658,0.8-7.705,0.8h-18.217V81.363z
			 M132.784,53.673h10.331c2.789,0,4.803-0.189,6.026-0.554c1.602-0.479,2.811-1.268,3.625-2.38c0.814-1.111,1.224-2.5,1.224-4.17
			c0-1.58-0.38-2.98-1.132-4.182c-0.772-1.211-1.858-2.033-3.261-2.477c-1.415-0.446-3.835-0.668-7.271-0.668h-9.543v14.431H132.784
			z M132.784,75.722h11.888c2.047,0,3.48-0.076,4.305-0.221c1.455-0.266,2.665-0.702,3.643-1.312
			c0.979-0.601,1.779-1.491,2.414-2.648c0.622-1.167,0.945-2.502,0.945-4.025c0-1.777-0.455-3.328-1.367-4.649
			c-0.91-1.312-2.179-2.234-3.801-2.767c-1.616-0.523-3.947-0.793-6.986-0.793h-11.042v16.414H132.784z M205.296,64.618l6.328,1.601
			c-1.324,5.182-3.713,9.14-7.151,11.874c-3.445,2.725-7.65,4.081-12.632,4.081c-5.145,0-9.33-1.044-12.555-3.135
			c-3.222-2.102-5.681-5.139-7.359-9.108c-1.679-3.979-2.523-8.25-2.523-12.807c0-4.975,0.943-9.309,2.844-13.011
			c1.904-3.706,4.602-6.516,8.116-8.44c3.503-1.924,7.365-2.881,11.579-2.881c4.778,0,8.793,1.211,12.052,3.646
			c3.255,2.436,5.526,5.85,6.804,10.266l-6.213,1.464c-1.111-3.479-2.715-6-4.827-7.594c-2.1-1.59-4.748-2.38-7.948-2.38
			c-3.674,0-6.728,0.881-9.199,2.636c-2.468,1.767-4.202,4.126-5.192,7.095c-1.001,2.957-1.499,6.017-1.499,9.163
			c0,4.069,0.589,7.604,1.767,10.642c1.19,3.025,3.024,5.294,5.526,6.795c2.502,1.499,5.203,2.248,8.119,2.248
			c3.534,0,6.527-1.023,8.986-3.059C202.77,71.667,204.427,68.631,205.296,64.618L205.296,64.618z M237.742,81.363V33.604h9.517
			l11.301,33.817c1.044,3.146,1.812,5.501,2.281,7.072c0.543-1.736,1.388-4.296,2.543-7.664l11.432-33.225h8.507v47.759h-6.09
			V41.388L263.35,81.363h-5.705l-13.81-40.654v40.654L237.742,81.363L237.742,81.363z M293.65,81.363V33.604h34.526v5.64h-28.211
			v14.62h26.419v5.606h-26.419v16.254h29.323v5.641H293.65V81.363z M337.754,81.363V33.604h6.328v42.118h23.513v5.641H337.754
			L337.754,81.363z M397.479,62.626v-5.593L417.699,57v17.715c-3.097,2.479-6.303,4.337-9.605,5.594
			c-3.304,1.243-6.694,1.867-10.159,1.867c-4.696,0-8.969-1-12.79-3.012c-3.835-2.001-6.728-4.915-8.685-8.709
			c-1.955-3.801-2.934-8.05-2.934-12.74c0-4.649,0.979-8.986,2.928-13.011c1.931-4.037,4.731-7.029,8.379-8.985
			c3.649-1.946,7.851-2.923,12.611-2.923c3.444,0,6.569,0.554,9.363,1.68c2.789,1.111,4.978,2.666,6.562,4.667
			c1.587,2.003,2.789,4.605,3.625,7.817l-5.705,1.57c-0.723-2.436-1.616-4.348-2.666-5.74c-1.074-1.389-2.595-2.502-4.571-3.333
			c-1.971-0.834-4.171-1.258-6.569-1.258c-2.896,0-5.399,0.444-7.499,1.322c-2.114,0.88-3.801,2.038-5.101,3.47
			c-1.295,1.435-2.296,3.002-3.018,4.727c-1.208,2.946-1.822,6.148-1.822,9.608c0,4.256,0.729,7.816,2.201,10.684
			c1.467,2.867,3.604,4.993,6.41,6.381c2.8,1.391,5.763,2.091,8.913,2.091c2.745,0,5.414-0.536,8.021-1.59
			c2.607-1.044,4.577-2.169,5.923-3.369v-8.896h-14.029V62.626z M421.773,81.363l18.345-47.759h6.807l19.552,47.759h-7.206
			L453.7,66.896h-19.97l-5.241,14.469h-6.716V81.363z M435.547,61.748h16.202l-4.993-13.221c-1.516-4.014-2.645-7.317-3.38-9.908
			c-0.61,3.069-1.467,6.104-2.581,9.129L435.547,61.748L435.547,61.748z M471.62,81.363V33.604h21.171
			c4.262,0,7.492,0.434,9.709,1.294c2.21,0.854,3.976,2.365,5.313,4.533c1.327,2.178,1.98,4.579,1.98,7.206
			c0,3.389-1.087,6.238-3.292,8.561c-2.19,2.324-5.579,3.801-10.164,4.436c1.68,0.799,2.949,1.59,3.814,2.38
			c1.846,1.691,3.591,3.814,5.252,6.35l8.303,12.999h-7.945l-6.317-9.943c-1.847-2.856-3.374-5.058-4.57-6.569
			c-1.193-1.52-2.258-2.592-3.205-3.193c-0.948-0.612-1.901-1.032-2.882-1.277c-0.723-0.145-1.885-0.224-3.521-0.224h-7.324v21.207
			h-6.32V81.363z M477.94,54.688h13.589c2.875,0,5.144-0.303,6.763-0.901c1.641-0.598,2.873-1.555,3.716-2.869
			c0.843-1.313,1.269-2.736,1.269-4.279c0-2.26-0.814-4.116-2.459-5.571c-1.633-1.458-4.223-2.181-7.772-2.181H477.94V54.688
			L477.94,54.688z"/>
	</g>
	<g>
		<g>
			<defs>
				<path id="SVGID_1_" d="M406.957,103.481c17.178,0,31.192,13.958,31.192,31.07s-14.014,31.07-31.192,31.07
					c-4.087,0-7.988-0.79-11.562-2.219h-5.319c3.426,26.63,15.56,53.26,36.166,79.891c17.657,49.045-14.566,98.999-63.539,115.405
					c-43.022,9.067-82.545,9.8-122.542,1.111c-54.788-18.756-82.352-59.955-70.345-116.516
					c19.491-24.669,36.912-50.015,40.427-79.891h-1.604v-1.965c-4.59,2.657-9.922,4.183-15.597,4.183
					c-17.181,0-31.195-13.959-31.195-31.07s14.014-31.07,31.195-31.07s31.195,13.958,31.195,31.07c0,1.505-0.11,2.987-0.321,4.439
					h152.159c-0.21-1.452-0.318-2.932-0.318-4.439C375.759,117.44,389.773,103.481,406.957,103.481L406.957,103.481z
					 M364.439,163.402h-19.871v165.569c36.892,3.915,70.66-43.567,53.305-86.787C376.238,216.279,371.533,189.447,364.439,163.402
					L364.439,163.402z M337.876,327.689V163.402h-22.282v150.71C322.765,321.216,330.325,325.594,337.876,327.689L337.876,327.689z
					 M308.914,309.868V163.402H286.63v146.466C294.057,309.868,301.483,309.868,308.914,309.868L308.914,309.868z M279.945,315.847
					V163.402h-22.28v166.261C265.653,328.01,273.309,323.632,279.945,315.847L279.945,315.847z M250.98,330.439V163.402h-16.476
					c-7.438,27.832-22.187,54.778-37.455,79.891C174.955,280.892,214.34,331.363,250.98,330.439L250.98,330.439z"/>
			</defs>
			<clipPath id="SVGID_2_">
				<use xlink:href="#SVGID_1_"  overflow="visible"/>
			</clipPath>
			<rect x="174.955" y="330.937" clip-path="url(#SVGID_2_)" fill="#F7B11A" width="76.025" height="0.426"/>
			<rect x="174.955" y="326.563" clip-path="url(#SVGID_2_)" fill="#F7B219" width="76.025" height="4.374"/>
			<rect x="174.955" y="322.189" clip-path="url(#SVGID_2_)" fill="#F7B219" width="76.025" height="4.374"/>
			<rect x="174.955" y="317.815" clip-path="url(#SVGID_2_)" fill="#F7B319" width="76.025" height="4.374"/>
			<rect x="174.955" y="313.441" clip-path="url(#SVGID_2_)" fill="#F7B419" width="76.025" height="4.374"/>
			<rect x="174.955" y="309.066" clip-path="url(#SVGID_2_)" fill="#F7B519" width="76.025" height="4.374"/>
			<rect x="174.955" y="304.692" clip-path="url(#SVGID_2_)" fill="#F7B518" width="76.025" height="4.374"/>
			<rect x="174.955" y="300.318" clip-path="url(#SVGID_2_)" fill="#F7B618" width="76.025" height="4.374"/>
			<rect x="174.955" y="295.944" clip-path="url(#SVGID_2_)" fill="#F7B718" width="76.025" height="4.374"/>
			<rect x="174.955" y="291.57" clip-path="url(#SVGID_2_)" fill="#F7B818" width="76.025" height="4.374"/>
			<rect x="174.955" y="287.196" clip-path="url(#SVGID_2_)" fill="#F7B818" width="76.025" height="4.374"/>
			<rect x="174.955" y="282.821" clip-path="url(#SVGID_2_)" fill="#F7B917" width="76.025" height="4.374"/>
			<rect x="174.955" y="278.447" clip-path="url(#SVGID_2_)" fill="#F7BA17" width="76.025" height="4.374"/>
			<rect x="174.955" y="274.073" clip-path="url(#SVGID_2_)" fill="#F7BA17" width="76.025" height="4.374"/>
			<rect x="174.955" y="269.699" clip-path="url(#SVGID_2_)" fill="#F7BB17" width="76.025" height="4.374"/>
			<rect x="174.955" y="265.325" clip-path="url(#SVGID_2_)" fill="#F7BC16" width="76.025" height="4.374"/>
			<rect x="174.955" y="260.951" clip-path="url(#SVGID_2_)" fill="#F7BC16" width="76.025" height="4.374"/>
			<rect x="174.955" y="256.576" clip-path="url(#SVGID_2_)" fill="#F8BD16" width="76.025" height="4.374"/>
			<rect x="174.955" y="252.202" clip-path="url(#SVGID_2_)" fill="#F8BE16" width="76.025" height="4.374"/>
			<rect x="174.955" y="247.828" clip-path="url(#SVGID_2_)" fill="#F8BF15" width="76.025" height="4.374"/>
			<rect x="174.955" y="243.454" clip-path="url(#SVGID_2_)" fill="#F8BF15" width="76.025" height="4.374"/>
			<rect x="174.955" y="239.08" clip-path="url(#SVGID_2_)" fill="#F8C015" width="76.025" height="4.374"/>
			<rect x="174.955" y="234.706" clip-path="url(#SVGID_2_)" fill="#F8C114" width="76.025" height="4.374"/>
			<rect x="174.955" y="230.331" clip-path="url(#SVGID_2_)" fill="#F8C114" width="76.025" height="4.374"/>
			<rect x="174.955" y="225.957" clip-path="url(#SVGID_2_)" fill="#F8C214" width="76.025" height="4.374"/>
			<rect x="174.955" y="221.583" clip-path="url(#SVGID_2_)" fill="#F8C313" width="76.025" height="4.374"/>
			<rect x="174.955" y="217.209" clip-path="url(#SVGID_2_)" fill="#F8C413" width="76.025" height="4.374"/>
			<rect x="174.955" y="212.835" clip-path="url(#SVGID_2_)" fill="#F8C413" width="76.025" height="4.374"/>
			<rect x="174.955" y="208.461" clip-path="url(#SVGID_2_)" fill="#F8C512" width="76.025" height="4.374"/>
			<rect x="174.955" y="204.086" clip-path="url(#SVGID_2_)" fill="#F8C612" width="76.025" height="4.374"/>
			<rect x="174.955" y="199.712" clip-path="url(#SVGID_2_)" fill="#F8C612" width="76.025" height="4.374"/>
			<rect x="174.955" y="195.338" clip-path="url(#SVGID_2_)" fill="#F8C711" width="76.025" height="4.374"/>
			<rect x="174.955" y="190.964" clip-path="url(#SVGID_2_)" fill="#F8C811" width="76.025" height="4.374"/>
			<rect x="174.955" y="186.59" clip-path="url(#SVGID_2_)" fill="#F8C810" width="76.025" height="4.374"/>
			<rect x="174.955" y="182.216" clip-path="url(#SVGID_2_)" fill="#F9C910" width="76.025" height="4.374"/>
			<rect x="174.955" y="177.841" clip-path="url(#SVGID_2_)" fill="#F9CA10" width="76.025" height="4.374"/>
			<rect x="174.955" y="173.467" clip-path="url(#SVGID_2_)" fill="#F9CA0F" width="76.025" height="4.374"/>
			<rect x="174.955" y="169.093" clip-path="url(#SVGID_2_)" fill="#F9CB0F" width="76.025" height="4.374"/>
			<rect x="174.955" y="164.719" clip-path="url(#SVGID_2_)" fill="#F9CC0E" width="76.025" height="4.374"/>
			<rect x="174.955" y="163.402" clip-path="url(#SVGID_2_)" fill="#F9CD0E" width="76.025" height="1.317"/>
			<rect x="257.665" y="326.563" clip-path="url(#SVGID_2_)" fill="#F7B219" width="22.28" height="3.1"/>
			<rect x="257.665" y="322.189" clip-path="url(#SVGID_2_)" fill="#F7B219" width="22.28" height="4.374"/>
			<rect x="257.665" y="317.815" clip-path="url(#SVGID_2_)" fill="#F7B319" width="22.28" height="4.374"/>
			<rect x="257.665" y="313.441" clip-path="url(#SVGID_2_)" fill="#F7B419" width="22.28" height="4.374"/>
			<rect x="257.665" y="309.066" clip-path="url(#SVGID_2_)" fill="#F7B519" width="22.28" height="4.374"/>
			<rect x="257.665" y="304.692" clip-path="url(#SVGID_2_)" fill="#F7B518" width="22.28" height="4.374"/>
			<rect x="257.665" y="300.318" clip-path="url(#SVGID_2_)" fill="#F7B618" width="22.28" height="4.374"/>
			<rect x="257.665" y="295.944" clip-path="url(#SVGID_2_)" fill="#F7B718" width="22.28" height="4.374"/>
			<rect x="257.665" y="291.57" clip-path="url(#SVGID_2_)" fill="#F7B818" width="22.28" height="4.374"/>
			<rect x="257.665" y="287.196" clip-path="url(#SVGID_2_)" fill="#F7B818" width="22.28" height="4.374"/>
			<rect x="257.665" y="282.821" clip-path="url(#SVGID_2_)" fill="#F7B917" width="22.28" height="4.374"/>
			<rect x="257.665" y="278.447" clip-path="url(#SVGID_2_)" fill="#F7BA17" width="22.28" height="4.374"/>
			<rect x="257.665" y="274.073" clip-path="url(#SVGID_2_)" fill="#F7BA17" width="22.28" height="4.374"/>
			<rect x="257.665" y="269.699" clip-path="url(#SVGID_2_)" fill="#F7BB17" width="22.28" height="4.374"/>
			<rect x="257.665" y="265.325" clip-path="url(#SVGID_2_)" fill="#F7BC16" width="22.28" height="4.374"/>
			<rect x="257.665" y="260.951" clip-path="url(#SVGID_2_)" fill="#F7BC16" width="22.28" height="4.374"/>
			<rect x="257.665" y="256.576" clip-path="url(#SVGID_2_)" fill="#F8BD16" width="22.28" height="4.374"/>
			<rect x="257.665" y="252.202" clip-path="url(#SVGID_2_)" fill="#F8BE16" width="22.28" height="4.374"/>
			<rect x="257.665" y="247.828" clip-path="url(#SVGID_2_)" fill="#F8BF15" width="22.28" height="4.374"/>
			<rect x="257.665" y="243.454" clip-path="url(#SVGID_2_)" fill="#F8BF15" width="22.28" height="4.374"/>
			<rect x="257.665" y="239.08" clip-path="url(#SVGID_2_)" fill="#F8C015" width="22.28" height="4.374"/>
			<rect x="257.665" y="234.706" clip-path="url(#SVGID_2_)" fill="#F8C114" width="22.28" height="4.374"/>
			<rect x="257.665" y="230.331" clip-path="url(#SVGID_2_)" fill="#F8C114" width="22.28" height="4.374"/>
			<rect x="257.665" y="225.957" clip-path="url(#SVGID_2_)" fill="#F8C214" width="22.28" height="4.374"/>
			<rect x="257.665" y="221.583" clip-path="url(#SVGID_2_)" fill="#F8C313" width="22.28" height="4.374"/>
			<rect x="257.665" y="217.209" clip-path="url(#SVGID_2_)" fill="#F8C413" width="22.28" height="4.374"/>
			<rect x="257.665" y="212.835" clip-path="url(#SVGID_2_)" fill="#F8C413" width="22.28" height="4.374"/>
			<rect x="257.665" y="208.461" clip-path="url(#SVGID_2_)" fill="#F8C512" width="22.28" height="4.374"/>
			<rect x="257.665" y="204.086" clip-path="url(#SVGID_2_)" fill="#F8C612" width="22.28" height="4.374"/>
			<rect x="257.665" y="199.712" clip-path="url(#SVGID_2_)" fill="#F8C612" width="22.28" height="4.374"/>
			<rect x="257.665" y="195.338" clip-path="url(#SVGID_2_)" fill="#F8C711" width="22.28" height="4.374"/>
			<rect x="257.665" y="190.964" clip-path="url(#SVGID_2_)" fill="#F8C811" width="22.28" height="4.374"/>
			<rect x="257.665" y="186.59" clip-path="url(#SVGID_2_)" fill="#F8C810" width="22.28" height="4.374"/>
			<rect x="257.665" y="182.216" clip-path="url(#SVGID_2_)" fill="#F9C910" width="22.28" height="4.374"/>
			<rect x="257.665" y="177.841" clip-path="url(#SVGID_2_)" fill="#F9CA10" width="22.28" height="4.374"/>
			<rect x="257.665" y="173.467" clip-path="url(#SVGID_2_)" fill="#F9CA0F" width="22.28" height="4.374"/>
			<rect x="257.665" y="169.093" clip-path="url(#SVGID_2_)" fill="#F9CB0F" width="22.28" height="4.374"/>
			<rect x="257.665" y="164.719" clip-path="url(#SVGID_2_)" fill="#F9CC0E" width="22.28" height="4.374"/>
			<rect x="257.665" y="163.402" clip-path="url(#SVGID_2_)" fill="#F9CD0E" width="22.28" height="1.317"/>
			<rect x="286.63" y="309.066" clip-path="url(#SVGID_2_)" fill="#F7B519" width="22.283" height="0.802"/>
			<rect x="286.63" y="304.692" clip-path="url(#SVGID_2_)" fill="#F7B518" width="22.283" height="4.374"/>
			<rect x="286.63" y="300.318" clip-path="url(#SVGID_2_)" fill="#F7B618" width="22.283" height="4.374"/>
			<rect x="286.63" y="295.944" clip-path="url(#SVGID_2_)" fill="#F7B718" width="22.283" height="4.374"/>
			<rect x="286.63" y="291.57" clip-path="url(#SVGID_2_)" fill="#F7B818" width="22.283" height="4.374"/>
			<rect x="286.63" y="287.196" clip-path="url(#SVGID_2_)" fill="#F7B818" width="22.283" height="4.374"/>
			<rect x="286.63" y="282.821" clip-path="url(#SVGID_2_)" fill="#F7B917" width="22.283" height="4.374"/>
			<rect x="286.63" y="278.447" clip-path="url(#SVGID_2_)" fill="#F7BA17" width="22.283" height="4.374"/>
			<rect x="286.63" y="274.073" clip-path="url(#SVGID_2_)" fill="#F7BA17" width="22.283" height="4.374"/>
			<rect x="286.63" y="269.699" clip-path="url(#SVGID_2_)" fill="#F7BB17" width="22.283" height="4.374"/>
			<rect x="286.63" y="265.325" clip-path="url(#SVGID_2_)" fill="#F7BC16" width="22.283" height="4.374"/>
			<rect x="286.63" y="260.951" clip-path="url(#SVGID_2_)" fill="#F7BC16" width="22.283" height="4.374"/>
			<rect x="286.63" y="256.576" clip-path="url(#SVGID_2_)" fill="#F8BD16" width="22.283" height="4.374"/>
			<rect x="286.63" y="252.202" clip-path="url(#SVGID_2_)" fill="#F8BE16" width="22.283" height="4.374"/>
			<rect x="286.63" y="247.828" clip-path="url(#SVGID_2_)" fill="#F8BF15" width="22.283" height="4.374"/>
			<rect x="286.63" y="243.454" clip-path="url(#SVGID_2_)" fill="#F8BF15" width="22.283" height="4.374"/>
			<rect x="286.63" y="239.08" clip-path="url(#SVGID_2_)" fill="#F8C015" width="22.283" height="4.374"/>
			<rect x="286.63" y="234.706" clip-path="url(#SVGID_2_)" fill="#F8C114" width="22.283" height="4.374"/>
			<rect x="286.63" y="230.331" clip-path="url(#SVGID_2_)" fill="#F8C114" width="22.283" height="4.374"/>
			<rect x="286.63" y="225.957" clip-path="url(#SVGID_2_)" fill="#F8C214" width="22.283" height="4.374"/>
			<rect x="286.63" y="221.583" clip-path="url(#SVGID_2_)" fill="#F8C313" width="22.283" height="4.374"/>
			<rect x="286.63" y="217.209" clip-path="url(#SVGID_2_)" fill="#F8C413" width="22.283" height="4.374"/>
			<rect x="286.63" y="212.835" clip-path="url(#SVGID_2_)" fill="#F8C413" width="22.283" height="4.374"/>
			<rect x="286.63" y="208.461" clip-path="url(#SVGID_2_)" fill="#F8C512" width="22.283" height="4.374"/>
			<rect x="286.63" y="204.086" clip-path="url(#SVGID_2_)" fill="#F8C612" width="22.283" height="4.374"/>
			<rect x="286.63" y="199.712" clip-path="url(#SVGID_2_)" fill="#F8C612" width="22.283" height="4.374"/>
			<rect x="286.63" y="195.338" clip-path="url(#SVGID_2_)" fill="#F8C711" width="22.283" height="4.374"/>
			<rect x="286.63" y="190.964" clip-path="url(#SVGID_2_)" fill="#F8C811" width="22.283" height="4.374"/>
			<rect x="286.63" y="186.59" clip-path="url(#SVGID_2_)" fill="#F8C810" width="22.283" height="4.374"/>
			<rect x="286.63" y="182.216" clip-path="url(#SVGID_2_)" fill="#F9C910" width="22.283" height="4.374"/>
			<rect x="286.63" y="177.841" clip-path="url(#SVGID_2_)" fill="#F9CA10" width="22.283" height="4.374"/>
			<rect x="286.63" y="173.467" clip-path="url(#SVGID_2_)" fill="#F9CA0F" width="22.283" height="4.374"/>
			<rect x="286.63" y="169.093" clip-path="url(#SVGID_2_)" fill="#F9CB0F" width="22.283" height="4.374"/>
			<rect x="286.63" y="164.719" clip-path="url(#SVGID_2_)" fill="#F9CC0E" width="22.283" height="4.374"/>
			<rect x="286.63" y="163.402" clip-path="url(#SVGID_2_)" fill="#F9CD0E" width="22.283" height="1.317"/>
			<rect x="315.594" y="326.563" clip-path="url(#SVGID_2_)" fill="#F7B219" width="22.282" height="1.126"/>
			<rect x="315.594" y="322.189" clip-path="url(#SVGID_2_)" fill="#F7B219" width="22.282" height="4.374"/>
			<rect x="315.594" y="317.815" clip-path="url(#SVGID_2_)" fill="#F7B319" width="22.282" height="4.374"/>
			<rect x="315.594" y="313.441" clip-path="url(#SVGID_2_)" fill="#F7B419" width="22.282" height="4.374"/>
			<rect x="315.594" y="309.066" clip-path="url(#SVGID_2_)" fill="#F7B519" width="22.282" height="4.374"/>
			<rect x="315.594" y="304.692" clip-path="url(#SVGID_2_)" fill="#F7B518" width="22.282" height="4.374"/>
			<rect x="315.594" y="300.318" clip-path="url(#SVGID_2_)" fill="#F7B618" width="22.282" height="4.374"/>
			<rect x="315.594" y="295.944" clip-path="url(#SVGID_2_)" fill="#F7B718" width="22.282" height="4.374"/>
			<rect x="315.594" y="291.57" clip-path="url(#SVGID_2_)" fill="#F7B818" width="22.282" height="4.374"/>
			<rect x="315.594" y="287.196" clip-path="url(#SVGID_2_)" fill="#F7B818" width="22.282" height="4.374"/>
			<rect x="315.594" y="282.821" clip-path="url(#SVGID_2_)" fill="#F7B917" width="22.282" height="4.374"/>
			<rect x="315.594" y="278.447" clip-path="url(#SVGID_2_)" fill="#F7BA17" width="22.282" height="4.374"/>
			<rect x="315.594" y="274.073" clip-path="url(#SVGID_2_)" fill="#F7BA17" width="22.282" height="4.374"/>
			<rect x="315.594" y="269.699" clip-path="url(#SVGID_2_)" fill="#F7BB17" width="22.282" height="4.374"/>
			<rect x="315.594" y="265.325" clip-path="url(#SVGID_2_)" fill="#F7BC16" width="22.282" height="4.374"/>
			<rect x="315.594" y="260.951" clip-path="url(#SVGID_2_)" fill="#F7BC16" width="22.282" height="4.374"/>
			<rect x="315.594" y="256.576" clip-path="url(#SVGID_2_)" fill="#F8BD16" width="22.282" height="4.374"/>
			<rect x="315.594" y="252.202" clip-path="url(#SVGID_2_)" fill="#F8BE16" width="22.282" height="4.374"/>
			<rect x="315.594" y="247.828" clip-path="url(#SVGID_2_)" fill="#F8BF15" width="22.282" height="4.374"/>
			<rect x="315.594" y="243.454" clip-path="url(#SVGID_2_)" fill="#F8BF15" width="22.282" height="4.374"/>
			<rect x="315.594" y="239.08" clip-path="url(#SVGID_2_)" fill="#F8C015" width="22.282" height="4.374"/>
			<rect x="315.594" y="234.706" clip-path="url(#SVGID_2_)" fill="#F8C114" width="22.282" height="4.374"/>
			<rect x="315.594" y="230.331" clip-path="url(#SVGID_2_)" fill="#F8C114" width="22.282" height="4.374"/>
			<rect x="315.594" y="225.957" clip-path="url(#SVGID_2_)" fill="#F8C214" width="22.282" height="4.374"/>
			<rect x="315.594" y="221.583" clip-path="url(#SVGID_2_)" fill="#F8C313" width="22.282" height="4.374"/>
			<rect x="315.594" y="217.209" clip-path="url(#SVGID_2_)" fill="#F8C413" width="22.282" height="4.374"/>
			<rect x="315.594" y="212.835" clip-path="url(#SVGID_2_)" fill="#F8C413" width="22.282" height="4.374"/>
			<rect x="315.594" y="208.461" clip-path="url(#SVGID_2_)" fill="#F8C512" width="22.282" height="4.374"/>
			<rect x="315.594" y="204.086" clip-path="url(#SVGID_2_)" fill="#F8C612" width="22.282" height="4.374"/>
			<rect x="315.594" y="199.712" clip-path="url(#SVGID_2_)" fill="#F8C612" width="22.282" height="4.374"/>
			<rect x="315.594" y="195.338" clip-path="url(#SVGID_2_)" fill="#F8C711" width="22.282" height="4.374"/>
			<rect x="315.594" y="190.964" clip-path="url(#SVGID_2_)" fill="#F8C811" width="22.282" height="4.374"/>
			<rect x="315.594" y="186.59" clip-path="url(#SVGID_2_)" fill="#F8C810" width="22.282" height="4.374"/>
			<rect x="315.594" y="182.216" clip-path="url(#SVGID_2_)" fill="#F9C910" width="22.282" height="4.374"/>
			<rect x="315.594" y="177.841" clip-path="url(#SVGID_2_)" fill="#F9CA10" width="22.282" height="4.374"/>
			<rect x="315.594" y="173.467" clip-path="url(#SVGID_2_)" fill="#F9CA0F" width="22.282" height="4.374"/>
			<rect x="315.594" y="169.093" clip-path="url(#SVGID_2_)" fill="#F9CB0F" width="22.282" height="4.374"/>
			<rect x="315.594" y="164.719" clip-path="url(#SVGID_2_)" fill="#F9CC0E" width="22.282" height="4.374"/>
			<rect x="315.594" y="163.402" clip-path="url(#SVGID_2_)" fill="#F9CD0E" width="22.282" height="1.317"/>
			<rect x="344.567" y="330.937" clip-path="url(#SVGID_2_)" fill="#F7B11A" width="70.66" height="1.949"/>
			<rect x="344.567" y="326.563" clip-path="url(#SVGID_2_)" fill="#F7B219" width="70.66" height="4.374"/>
			<rect x="344.567" y="322.189" clip-path="url(#SVGID_2_)" fill="#F7B219" width="70.66" height="4.374"/>
			<rect x="344.567" y="317.815" clip-path="url(#SVGID_2_)" fill="#F7B319" width="70.66" height="4.374"/>
			<rect x="344.567" y="313.441" clip-path="url(#SVGID_2_)" fill="#F7B419" width="70.66" height="4.374"/>
			<rect x="344.567" y="309.066" clip-path="url(#SVGID_2_)" fill="#F7B519" width="70.66" height="4.374"/>
			<rect x="344.567" y="304.692" clip-path="url(#SVGID_2_)" fill="#F7B518" width="70.66" height="4.374"/>
			<rect x="344.567" y="300.318" clip-path="url(#SVGID_2_)" fill="#F7B618" width="70.66" height="4.374"/>
			<rect x="344.567" y="295.944" clip-path="url(#SVGID_2_)" fill="#F7B718" width="70.66" height="4.374"/>
			<rect x="344.567" y="291.57" clip-path="url(#SVGID_2_)" fill="#F7B818" width="70.66" height="4.374"/>
			<rect x="344.567" y="287.196" clip-path="url(#SVGID_2_)" fill="#F7B818" width="70.66" height="4.374"/>
			<rect x="344.567" y="282.821" clip-path="url(#SVGID_2_)" fill="#F7B917" width="70.66" height="4.374"/>
			<rect x="344.567" y="278.447" clip-path="url(#SVGID_2_)" fill="#F7BA17" width="70.66" height="4.374"/>
			<rect x="344.567" y="274.073" clip-path="url(#SVGID_2_)" fill="#F7BA17" width="70.66" height="4.374"/>
			<rect x="344.567" y="269.699" clip-path="url(#SVGID_2_)" fill="#F7BB17" width="70.66" height="4.374"/>
			<rect x="344.567" y="265.325" clip-path="url(#SVGID_2_)" fill="#F7BC16" width="70.66" height="4.374"/>
			<rect x="344.567" y="260.951" clip-path="url(#SVGID_2_)" fill="#F7BC16" width="70.66" height="4.374"/>
			<rect x="344.567" y="256.576" clip-path="url(#SVGID_2_)" fill="#F8BD16" width="70.66" height="4.374"/>
			<rect x="344.567" y="252.202" clip-path="url(#SVGID_2_)" fill="#F8BE16" width="70.66" height="4.374"/>
			<rect x="344.567" y="247.828" clip-path="url(#SVGID_2_)" fill="#F8BF15" width="70.66" height="4.374"/>
			<rect x="344.567" y="243.454" clip-path="url(#SVGID_2_)" fill="#F8BF15" width="70.66" height="4.374"/>
			<rect x="344.567" y="239.08" clip-path="url(#SVGID_2_)" fill="#F8C015" width="70.66" height="4.374"/>
			<rect x="344.567" y="234.706" clip-path="url(#SVGID_2_)" fill="#F8C114" width="70.66" height="4.374"/>
			<rect x="344.567" y="230.331" clip-path="url(#SVGID_2_)" fill="#F8C114" width="70.66" height="4.374"/>
			<rect x="344.567" y="225.957" clip-path="url(#SVGID_2_)" fill="#F8C214" width="70.66" height="4.374"/>
			<rect x="344.567" y="221.583" clip-path="url(#SVGID_2_)" fill="#F8C313" width="70.66" height="4.374"/>
			<rect x="344.567" y="217.209" clip-path="url(#SVGID_2_)" fill="#F8C413" width="70.66" height="4.374"/>
			<rect x="344.567" y="212.835" clip-path="url(#SVGID_2_)" fill="#F8C413" width="70.66" height="4.374"/>
			<rect x="344.567" y="208.461" clip-path="url(#SVGID_2_)" fill="#F8C512" width="70.66" height="4.374"/>
			<rect x="344.567" y="204.086" clip-path="url(#SVGID_2_)" fill="#F8C612" width="70.66" height="4.374"/>
			<rect x="344.567" y="199.712" clip-path="url(#SVGID_2_)" fill="#F8C612" width="70.66" height="4.374"/>
			<rect x="344.567" y="195.338" clip-path="url(#SVGID_2_)" fill="#F8C711" width="70.66" height="4.374"/>
			<rect x="344.567" y="190.964" clip-path="url(#SVGID_2_)" fill="#F8C811" width="70.66" height="4.374"/>
			<rect x="344.567" y="186.59" clip-path="url(#SVGID_2_)" fill="#F8C810" width="70.66" height="4.374"/>
			<rect x="344.567" y="182.216" clip-path="url(#SVGID_2_)" fill="#F9C910" width="70.66" height="4.374"/>
			<rect x="344.567" y="177.841" clip-path="url(#SVGID_2_)" fill="#F9CA10" width="70.66" height="4.374"/>
			<rect x="344.567" y="173.467" clip-path="url(#SVGID_2_)" fill="#F9CA0F" width="70.66" height="4.374"/>
			<rect x="344.567" y="169.093" clip-path="url(#SVGID_2_)" fill="#F9CB0F" width="70.66" height="4.374"/>
			<rect x="344.567" y="164.719" clip-path="url(#SVGID_2_)" fill="#F9CC0E" width="70.66" height="4.374"/>
			<rect x="344.567" y="163.402" clip-path="url(#SVGID_2_)" fill="#F9CD0E" width="70.66" height="1.317"/>
			<rect x="157.81" y="365.93" clip-path="url(#SVGID_2_)" fill="#F6AC1B" width="286.09" height="2.568"/>
			<rect x="157.81" y="361.556" clip-path="url(#SVGID_2_)" fill="#F6AC1B" width="286.09" height="4.374"/>
			<rect x="157.81" y="357.182" clip-path="url(#SVGID_2_)" fill="#F6AD1B" width="286.09" height="4.374"/>
			<rect x="157.81" y="352.808" clip-path="url(#SVGID_2_)" fill="#F6AD1B" width="286.09" height="4.374"/>
			<rect x="157.81" y="348.434" clip-path="url(#SVGID_2_)" fill="#F6AE1A" width="286.09" height="4.374"/>
			<rect x="157.81" y="344.06" clip-path="url(#SVGID_2_)" fill="#F7AF1A" width="286.09" height="4.374"/>
			<rect x="157.81" y="339.685" clip-path="url(#SVGID_2_)" fill="#F7B01A" width="286.09" height="4.374"/>
			<rect x="157.81" y="335.311" clip-path="url(#SVGID_2_)" fill="#F7B01A" width="286.09" height="4.374"/>
			<rect x="157.81" y="330.937" clip-path="url(#SVGID_2_)" fill="#F7B11A" width="286.09" height="4.374"/>
			<rect x="157.81" y="326.563" clip-path="url(#SVGID_2_)" fill="#F7B219" width="286.09" height="4.374"/>
			<rect x="157.81" y="322.189" clip-path="url(#SVGID_2_)" fill="#F7B219" width="286.09" height="4.374"/>
			<rect x="157.81" y="317.815" clip-path="url(#SVGID_2_)" fill="#F7B319" width="286.09" height="4.374"/>
			<rect x="157.81" y="313.441" clip-path="url(#SVGID_2_)" fill="#F7B419" width="286.09" height="4.374"/>
			<rect x="157.81" y="309.066" clip-path="url(#SVGID_2_)" fill="#F7B519" width="286.09" height="4.374"/>
			<rect x="157.81" y="304.692" clip-path="url(#SVGID_2_)" fill="#F7B518" width="286.09" height="4.374"/>
			<rect x="157.81" y="300.318" clip-path="url(#SVGID_2_)" fill="#F7B618" width="286.09" height="4.374"/>
			<rect x="157.81" y="295.944" clip-path="url(#SVGID_2_)" fill="#F7B718" width="286.09" height="4.374"/>
			<rect x="157.81" y="291.57" clip-path="url(#SVGID_2_)" fill="#F7B818" width="286.09" height="4.374"/>
			<rect x="157.81" y="287.196" clip-path="url(#SVGID_2_)" fill="#F7B818" width="286.09" height="4.374"/>
			<rect x="157.81" y="282.821" clip-path="url(#SVGID_2_)" fill="#F7B917" width="286.09" height="4.374"/>
			<rect x="157.81" y="278.447" clip-path="url(#SVGID_2_)" fill="#F7BA17" width="286.09" height="4.374"/>
			<rect x="157.81" y="274.073" clip-path="url(#SVGID_2_)" fill="#F7BA17" width="286.09" height="4.374"/>
			<rect x="157.81" y="269.699" clip-path="url(#SVGID_2_)" fill="#F7BB17" width="286.09" height="4.374"/>
			<rect x="157.81" y="265.325" clip-path="url(#SVGID_2_)" fill="#F7BC16" width="286.09" height="4.374"/>
			<rect x="157.81" y="260.951" clip-path="url(#SVGID_2_)" fill="#F7BC16" width="286.09" height="4.374"/>
			<rect x="157.81" y="256.576" clip-path="url(#SVGID_2_)" fill="#F8BD16" width="286.09" height="4.374"/>
			<rect x="157.81" y="252.202" clip-path="url(#SVGID_2_)" fill="#F8BE16" width="286.09" height="4.374"/>
			<rect x="157.81" y="247.828" clip-path="url(#SVGID_2_)" fill="#F8BF15" width="286.09" height="4.374"/>
			<rect x="157.81" y="243.454" clip-path="url(#SVGID_2_)" fill="#F8BF15" width="286.09" height="4.374"/>
			<rect x="157.81" y="239.08" clip-path="url(#SVGID_2_)" fill="#F8C015" width="286.09" height="4.374"/>
			<rect x="157.81" y="234.706" clip-path="url(#SVGID_2_)" fill="#F8C114" width="286.09" height="4.374"/>
			<rect x="157.81" y="230.331" clip-path="url(#SVGID_2_)" fill="#F8C114" width="286.09" height="4.374"/>
			<rect x="157.81" y="225.957" clip-path="url(#SVGID_2_)" fill="#F8C214" width="286.09" height="4.374"/>
			<rect x="157.81" y="221.583" clip-path="url(#SVGID_2_)" fill="#F8C313" width="286.09" height="4.374"/>
			<rect x="157.81" y="217.209" clip-path="url(#SVGID_2_)" fill="#F8C413" width="286.09" height="4.374"/>
			<rect x="157.81" y="212.835" clip-path="url(#SVGID_2_)" fill="#F8C413" width="286.09" height="4.374"/>
			<rect x="157.81" y="208.461" clip-path="url(#SVGID_2_)" fill="#F8C512" width="286.09" height="4.374"/>
			<rect x="157.81" y="204.086" clip-path="url(#SVGID_2_)" fill="#F8C612" width="286.09" height="4.374"/>
			<rect x="157.81" y="199.712" clip-path="url(#SVGID_2_)" fill="#F8C612" width="286.09" height="4.374"/>
			<rect x="157.81" y="195.338" clip-path="url(#SVGID_2_)" fill="#F8C711" width="286.09" height="4.374"/>
			<rect x="157.81" y="190.964" clip-path="url(#SVGID_2_)" fill="#F8C811" width="286.09" height="4.374"/>
			<rect x="157.81" y="186.59" clip-path="url(#SVGID_2_)" fill="#F8C810" width="286.09" height="4.374"/>
			<rect x="157.81" y="182.216" clip-path="url(#SVGID_2_)" fill="#F9C910" width="286.09" height="4.374"/>
			<rect x="157.81" y="177.841" clip-path="url(#SVGID_2_)" fill="#F9CA10" width="286.09" height="4.374"/>
			<rect x="157.81" y="173.467" clip-path="url(#SVGID_2_)" fill="#F9CA0F" width="286.09" height="4.374"/>
			<rect x="157.81" y="169.093" clip-path="url(#SVGID_2_)" fill="#F9CB0F" width="286.09" height="4.374"/>
			<rect x="157.81" y="164.719" clip-path="url(#SVGID_2_)" fill="#F9CC0E" width="286.09" height="4.374"/>
			<rect x="157.81" y="160.345" clip-path="url(#SVGID_2_)" fill="#F9CD0E" width="286.09" height="4.374"/>
			<rect x="157.81" y="155.971" clip-path="url(#SVGID_2_)" fill="#F9CD0D" width="286.09" height="4.374"/>
			<rect x="157.81" y="151.596" clip-path="url(#SVGID_2_)" fill="#F9CE0D" width="286.09" height="4.374"/>
			<rect x="157.81" y="147.222" clip-path="url(#SVGID_2_)" fill="#F9CF0C" width="286.09" height="4.374"/>
			<rect x="157.81" y="142.848" clip-path="url(#SVGID_2_)" fill="#F9CF0C" width="286.09" height="4.374"/>
			<rect x="157.81" y="138.474" clip-path="url(#SVGID_2_)" fill="#F9D00B" width="286.09" height="4.374"/>
			<rect x="157.81" y="134.1" clip-path="url(#SVGID_2_)" fill="#F9D10A" width="286.09" height="4.374"/>
			<rect x="157.81" y="129.726" clip-path="url(#SVGID_2_)" fill="#F9D10A" width="286.09" height="4.374"/>
			<rect x="157.81" y="125.352" clip-path="url(#SVGID_2_)" fill="#F9D209" width="286.09" height="4.374"/>
			<rect x="157.81" y="120.977" clip-path="url(#SVGID_2_)" fill="#F9D308" width="286.09" height="4.374"/>
			<rect x="157.81" y="116.603" clip-path="url(#SVGID_2_)" fill="#F9D308" width="286.09" height="4.374"/>
			<rect x="157.81" y="112.229" clip-path="url(#SVGID_2_)" fill="#F9D407" width="286.09" height="4.374"/>
			<rect x="157.81" y="107.855" clip-path="url(#SVGID_2_)" fill="#F9D507" width="286.09" height="4.374"/>
			<rect x="157.81" y="103.481" clip-path="url(#SVGID_2_)" fill="#F9D506" width="286.09" height="4.374"/>
		</g>
	</g>
	<g>
		<g>
			<path fill="#FFFFFF" d="M300.608,446.785c16.201,0,29.407-13.214,29.407-29.407c0-16.205-13.207-29.413-29.407-29.413
				c-16.195,0-29.407,13.207-29.407,29.413C271.201,433.573,284.415,446.785,300.608,446.785L300.608,446.785z"/>
		</g>
		<g>
			<polygon fill="#1D1D1B" points="300.611,406.26 306.564,410.717 312.638,415.006 310.244,422.047 308.046,429.146 
				300.611,429.042 293.177,429.146 290.978,422.047 288.583,415.006 294.655,410.717 			"/>
		</g>
		<g>
			<path fill="#1D1D1B" d="M289.412,392.362c3.737,0.68,8.087,1.956,11.302,3.553c4.546-1.543,7.997-2.885,11.652-3.394
				C310.163,386.162,293.138,384.783,289.412,392.362L289.412,392.362z"/>
		</g>
		<g>
			<path fill="#1D1D1B" d="M328.065,419.224c-1.68-3.406-4.419-5.871-6.833-8.525c0.198-4.786-0.24-9.14-0.768-12.794
				c5.077,0.765,9.093,5.162,9.91,17.511C329.943,417.378,329.263,418.373,328.065,419.224L328.065,419.224z"/>
		</g>
		<g>
			<path fill="#1D1D1B" d="M325.215,429.686c-3.269,1.925-6.764,3.255-10.235,4.153c-2.458,4.11-4.789,7.117-7.234,9.892
				c4.66,2.13,10.197,0.51,17.656-9.376C326.12,432.486,325.746,431.059,325.215,429.686L325.215,429.686z"/>
		</g>
		<g>
			<path fill="#1D1D1B" d="M276.004,429.686c3.273,1.925,6.761,3.255,10.235,4.153c2.462,4.098,4.794,7.117,7.241,9.879
				c-4.663,2.143-10.2,0.522-17.66-9.363C275.103,432.486,275.476,431.059,276.004,429.686L276.004,429.686z"/>
		</g>
		<g>
			<path fill="#1D1D1B" d="M272.793,419.224c1.682-3.406,4.427-5.871,6.837-8.525c-0.198-4.786,0.234-9.14,0.761-12.794
				c-5.071,0.765-9.093,5.162-9.901,17.511C270.92,417.378,271.603,418.373,272.793,419.224L272.793,419.224z"/>
		</g>
		<g>
			<path fill="#FFFFFF" d="M196.686,493.509l19.255-16.146l2.92,1.621l-2.975,25.169l-3.091-1.718l1.05-7.542l-8.58-4.754
				l-5.696,4.967L196.686,493.509L196.686,493.509z M207.276,488.361l6.958,3.861l1.003-6.868c0.309-2.088,0.607-3.776,0.912-5.057
				c-0.997,1.166-2.086,2.271-3.286,3.302L207.276,488.361L207.276,488.361z M225.349,504.936l8.406-21.895l9.706,3.727
				c1.952,0.747,3.36,1.519,4.223,2.302c0.867,0.778,1.408,1.785,1.639,3.016c0.224,1.228,0.103,2.441-0.358,3.649
				c-0.601,1.554-1.601,2.672-3.018,3.346c-1.415,0.685-3.231,0.758-5.44,0.242c0.632,0.667,1.073,1.251,1.33,1.767
				c0.549,1.099,0.979,2.386,1.287,3.836l1.525,7.414L241,510.95l-1.144-5.672c-0.344-1.639-0.656-2.914-0.937-3.82
				c-0.277-0.912-0.577-1.584-0.905-2.029c-0.327-0.443-0.692-0.807-1.099-1.093c-0.304-0.195-0.825-0.431-1.58-0.723l-3.359-1.287
				l-3.734,9.721L225.349,504.936L225.349,504.936z M232.942,493.82l6.23,2.392c1.321,0.504,2.41,0.772,3.264,0.778
				c0.854,0.018,1.587-0.201,2.207-0.656c0.616-0.45,1.064-1.033,1.336-1.744c0.394-1.033,0.352-2.029-0.149-2.981
				c-0.492-0.954-1.552-1.749-3.179-2.375l-6.932-2.652L232.942,493.82L232.942,493.82z M254.829,512.661l4.071-23.099l16.698,2.939
				l-0.476,2.733l-13.647-2.41l-1.245,7.069l12.778,2.258l-0.476,2.713l-12.781-2.258l-1.385,7.869l14.18,2.497l-0.479,2.732
				L254.829,512.661L254.829,512.661z M301.162,514.015c1.397,1.044,2.707,1.803,3.903,2.313l-0.989,2.124
				c-1.657-0.662-3.31-1.686-4.937-3.054c-1.767,0.912-3.704,1.324-5.803,1.257c-2.124-0.073-4.028-0.662-5.722-1.744
				c-1.688-1.08-2.969-2.569-3.838-4.451c-0.867-1.893-1.26-3.995-1.178-6.32c0.079-2.315,0.619-4.402,1.627-6.267
				c1.001-1.864,2.386-3.261,4.159-4.202c1.761-0.918,3.716-1.348,5.857-1.269c2.167,0.073,4.095,0.65,5.804,1.744
				c1.697,1.087,2.972,2.569,3.823,4.457c0.845,1.881,1.223,3.982,1.144,6.309c-0.07,1.925-0.414,3.649-1.059,5.168
				C303.317,511.603,302.387,512.915,301.162,514.015L301.162,514.015z M294.469,509.801c1.774,0.571,3.222,1.371,4.348,2.404
				c1.882-1.61,2.881-4.075,2.999-7.402c0.067-1.899-0.201-3.576-0.794-5.022c-0.595-1.432-1.5-2.563-2.709-3.394
				c-1.22-0.825-2.599-1.262-4.147-1.316c-2.307-0.085-4.256,0.644-5.834,2.175c-1.586,1.529-2.426,3.867-2.532,7.012
				c-0.11,3.048,0.562,5.41,2.01,7.098c1.458,1.677,3.352,2.563,5.696,2.646c1.114,0.036,2.161-0.134,3.164-0.516
				c-0.953-0.667-1.962-1.147-3.03-1.444L294.469,509.801L294.469,509.801z M326.816,490.256l3.066-0.54l2.35,13.358
				c0.412,2.315,0.472,4.208,0.189,5.666c-0.288,1.458-1.039,2.733-2.261,3.826c-1.22,1.111-2.94,1.846-5.165,2.242
				c-2.162,0.382-4.005,0.321-5.507-0.183c-1.511-0.498-2.684-1.403-3.521-2.719c-0.839-1.312-1.469-3.188-1.901-5.629l-2.35-13.347
				l3.054-0.539l2.347,13.328c0.356,2.016,0.808,3.456,1.347,4.336c0.534,0.887,1.31,1.507,2.304,1.86
				c0.998,0.364,2.159,0.425,3.47,0.181c2.251-0.394,3.762-1.176,4.538-2.368c0.775-1.19,0.908-3.231,0.399-6.127L326.816,490.256
				L326.816,490.256z M346.505,511.367l-6.469-22.551l2.984-0.851l6.466,22.545L346.505,511.367L346.505,511.367z M361.671,509.012
				l-8.402-21.903l8.263-3.176c1.446-0.552,2.587-0.912,3.407-1.062c1.147-0.236,2.175-0.236,3.103-0.018
				c0.918,0.224,1.773,0.711,2.563,1.438c0.79,0.741,1.397,1.647,1.811,2.739c0.708,1.858,0.727,3.667,0.037,5.411
				c-0.692,1.742-2.584,3.211-5.679,4.396l-5.617,2.161l3.416,8.896L361.671,509.012L361.671,509.012z M360.159,496.413l5.666-2.181
				c1.87-0.717,3.068-1.566,3.588-2.575c0.513-0.995,0.533-2.13,0.046-3.389c-0.348-0.916-0.884-1.619-1.598-2.094
				c-0.714-0.475-1.485-0.667-2.322-0.583c-0.539,0.061-1.464,0.341-2.78,0.845l-5.599,2.149L360.159,496.413L360.159,496.413z
				 M384.693,503.395l-4.787-24.669l2.835-1.774l20.573,14.805l-3.002,1.87l-6.087-4.565l-8.32,5.191l1.586,7.396L384.693,503.395
				L384.693,503.395z M385.328,491.633l6.746-4.215l-5.519-4.208c-1.676-1.275-3.009-2.356-3.982-3.249
				c0.54,1.44,0.975,2.926,1.294,4.474L385.328,491.633L385.328,491.633z"/>
			<path fill="#FFFFFF" d="M304.103,518.519l-0.046-0.019c-1.645-0.655-3.302-1.679-4.925-3.039
				c-1.627,0.832-3.431,1.254-5.366,1.254c-0.143,0-0.287-0.003-0.431-0.007c-2.107-0.073-4.041-0.663-5.748-1.754
				c-1.688-1.08-2.986-2.584-3.857-4.472c-0.866-1.892-1.264-4.026-1.183-6.344c0.079-2.315,0.629-4.432,1.634-6.289
				c0.999-1.861,2.405-3.281,4.18-4.224c1.638-0.853,3.45-1.284,5.393-1.284c0.163,0,0.326,0.003,0.491,0.009
				c2.164,0.073,4.125,0.663,5.829,1.754c1.7,1.088,2.994,2.595,3.843,4.479c0.841,1.874,1.228,4.005,1.149,6.332
				c-0.071,1.945-0.428,3.69-1.064,5.187c-0.63,1.504-1.557,2.819-2.758,3.908c1.32,0.982,2.611,1.746,3.842,2.271l0.049,0.021
				l-0.022,0.049L304.103,518.519z M299.147,515.336l0.025,0.022c1.608,1.352,3.249,2.37,4.877,3.027l0.945-2.03
				c-1.238-0.534-2.538-1.308-3.864-2.299l-0.051-0.039l0.048-0.042c1.211-1.088,2.146-2.406,2.779-3.914
				c0.63-1.485,0.985-3.217,1.055-5.149c0.079-2.312-0.305-4.427-1.14-6.288c-0.841-1.864-2.121-3.356-3.804-4.435
				c-1.688-1.079-3.631-1.664-5.776-1.736c-2.12-0.079-4.073,0.348-5.832,1.263c-1.756,0.932-3.148,2.339-4.137,4.182
				c-0.997,1.843-1.543,3.943-1.621,6.242c-0.081,2.302,0.314,4.421,1.173,6.297c0.863,1.87,2.147,3.36,3.819,4.43
				c1.691,1.08,3.608,1.664,5.695,1.736c2.096,0.068,4.037-0.354,5.777-1.251L299.147,515.336z M272.108,515.763l-0.051-0.009
				l-17.289-3.051l4.089-23.2l0.051,0.009l16.749,2.947l-0.494,2.834l-0.051-0.009l-13.596-2.402l-1.227,6.967l12.778,2.259
				l-0.494,2.815l-0.051-0.009l-12.73-2.25l-1.367,7.768l14.18,2.498L272.108,515.763z M254.888,512.619l17.135,3.024l0.461-2.63
				l-14.18-2.498l1.403-7.97l0.051,0.009l12.73,2.25l0.458-2.613l-12.778-2.259l1.262-7.169l0.051,0.009l13.596,2.402l0.458-2.632
				l-16.595-2.92L254.888,512.619z M322.381,515.106c-1.079,0-2.052-0.144-2.91-0.432c-1.516-0.499-2.709-1.421-3.549-2.74
				c-0.834-1.305-1.476-3.206-1.908-5.649l-2.358-13.397l3.156-0.557l2.355,13.378c0.351,1.987,0.801,3.439,1.34,4.319
				c0.522,0.866,1.287,1.485,2.277,1.837c0.985,0.358,2.143,0.419,3.443,0.18c2.228-0.391,3.743-1.18,4.503-2.347
				c0.764-1.173,0.896-3.22,0.392-6.089l-2.367-13.394l3.168-0.557l0.009,0.051l2.35,13.359c0.41,2.302,0.474,4.215,0.189,5.684
				c-0.29,1.464-1.055,2.761-2.278,3.853c-1.22,1.112-2.917,1.85-5.189,2.254C324.072,515.022,323.195,515.106,322.381,515.106z
				 M311.774,492.97l2.341,13.296c0.431,2.43,1.069,4.317,1.893,5.61c0.828,1.299,2.003,2.207,3.495,2.699
				c1.489,0.499,3.335,0.56,5.482,0.181c2.251-0.403,3.932-1.131,5.137-2.231c1.205-1.077,1.962-2.355,2.247-3.797
				c0.282-1.456,0.218-3.356-0.189-5.646l-2.341-13.308l-2.966,0.522l2.35,13.293c0.51,2.895,0.373,4.968-0.407,6.163
				c-0.776,1.192-2.314,1.996-4.571,2.391c-1.317,0.245-2.492,0.184-3.497-0.183c-1.012-0.36-1.797-0.993-2.33-1.881
				c-0.545-0.89-1-2.355-1.352-4.354l-2.338-13.277L311.774,492.97z M293.807,514.059c-0.1,0-0.201-0.002-0.303-0.004
				c-2.341-0.083-4.269-0.979-5.733-2.665c-1.451-1.69-2.133-4.09-2.023-7.133c0.107-3.149,0.964-5.519,2.549-7.047
				c1.586-1.54,3.563-2.28,5.872-2.191c1.55,0.055,2.954,0.501,4.174,1.326c1.214,0.835,2.131,1.985,2.727,3.418
				c0.596,1.45,0.865,3.148,0.798,5.042c-0.119,3.326-1.134,5.828-3.017,7.441l-0.036,0.03l-0.034-0.031
				c-1.103-1.014-2.543-1.813-4.281-2.378l-0.793,2.141c1.051,0.299,2.057,0.782,2.992,1.436l0.08,0.057l-0.092,0.036
				C295.764,513.887,294.819,514.059,293.807,514.059z M293.813,495.118c-2.131,0-3.961,0.728-5.445,2.167
				c-1.564,1.508-2.41,3.855-2.517,6.976c-0.108,3.017,0.564,5.393,1.998,7.062c1.444,1.663,3.348,2.547,5.658,2.629
				c1.083,0.033,2.077-0.12,3.051-0.477c-0.917-0.63-1.904-1.095-2.933-1.381l-0.054-0.016l0.02-0.052l0.847-2.287l0.047,0.015
				c1.755,0.565,3.213,1.366,4.333,2.384c1.837-1.592,2.828-4.06,2.945-7.334c0.067-1.88-0.199-3.562-0.789-5.001
				c-0.589-1.413-1.494-2.547-2.691-3.37c-1.202-0.813-2.589-1.254-4.119-1.308C294.047,495.119,293.929,495.118,293.813,495.118z
				 M244.719,512.423l-0.088-0.033l-3.676-1.401l-0.005-0.028l-1.144-5.672c-0.346-1.644-0.661-2.928-0.937-3.815
				c-0.273-0.899-0.574-1.577-0.897-2.012c-0.323-0.438-0.689-0.801-1.087-1.08c-0.293-0.189-0.807-0.424-1.569-0.716l-3.31-1.271
				l-3.735,9.722l-0.048-0.018l-2.942-1.132l0.019-0.049l8.425-21.942l0.048,0.018l9.706,3.726c1.943,0.745,3.37,1.523,4.239,2.314
				c0.863,0.774,1.421,1.798,1.656,3.045c0.224,1.228,0.102,2.465-0.361,3.677c-0.606,1.568-1.63,2.703-3.044,3.376
				c-1.376,0.663-3.162,0.762-5.308,0.281c0.577,0.624,0.979,1.168,1.222,1.656c0.545,1.092,0.98,2.388,1.291,3.85L244.719,512.423z
				 M241.045,510.912l3.534,1.348l-1.505-7.322c-0.31-1.453-0.742-2.74-1.283-3.824c-0.256-0.513-0.688-1.086-1.322-1.755
				l0.05-0.086c2.197,0.516,4.017,0.437,5.406-0.236c1.389-0.661,2.395-1.779,2.992-3.32c0.455-1.193,0.575-2.412,0.355-3.622
				c-0.23-1.222-0.776-2.228-1.623-2.986c-0.86-0.783-2.275-1.554-4.206-2.293l-9.657-3.708l-8.37,21.798l2.797,1.076l3.735-9.722
				l0.048,0.018l3.358,1.288c0.768,0.297,1.288,0.535,1.589,0.728c0.409,0.287,0.783,0.658,1.112,1.104
				c0.334,0.452,0.633,1.121,0.913,2.045c0.277,0.89,0.593,2.176,0.938,3.824L241.045,510.912z M346.469,511.431l-0.015-0.049
				l-6.482-22.601l0.049-0.015l3.035-0.865l0.015,0.049l6.479,22.596l-0.049,0.015L346.469,511.431z M340.099,488.852l6.441,22.451
				l2.882-0.828l-6.438-22.446L340.099,488.852z M361.641,509.078l-0.019-0.048l-8.419-21.951l0.048-0.019l8.263-3.176
				c1.486-0.568,2.604-0.915,3.418-1.064c1.147-0.238,2.173-0.242,3.124-0.018c0.912,0.221,1.782,0.709,2.586,1.449
				c0.801,0.752,1.415,1.681,1.825,2.761c0.713,1.872,0.725,3.706,0.034,5.448c-0.697,1.754-2.617,3.243-5.708,4.426l-5.568,2.141
				l3.417,8.897l-0.048,0.019L361.641,509.078z M353.336,487.139l8.364,21.806l2.806-1.079l-3.417-8.897l0.048-0.019l5.617-2.161
				c3.063-1.171,4.964-2.641,5.65-4.366c0.679-1.716,0.667-3.525-0.037-5.374c-0.409-1.079-0.997-1.969-1.798-2.721
				c-0.791-0.727-1.644-1.207-2.538-1.424c-0.944-0.22-1.953-0.213-3.081,0.018c-0.808,0.149-1.92,0.495-3.4,1.061L353.336,487.139z
				 M215.929,504.236l-0.068-0.037l-3.122-1.736l0.005-0.036l1.045-7.506l-8.517-4.72l-5.696,4.967l-0.032-0.016l-2.95-1.633
				l0.058-0.049l19.283-16.169l0.031,0.016l2.951,1.639l-0.004,0.034L215.929,504.236z M212.853,502.407l2.992,1.663l2.962-25.057
				l-2.859-1.587l-19.17,16.075l2.786,1.543l5.696-4.967l0.032,0.016l8.611,4.772l-0.005,0.036L212.853,502.407z M384.656,503.48
				l-0.013-0.074l-4.794-24.705l0.03-0.019l2.864-1.792l0.028,0.021l20.638,14.849l-3.099,1.93l-0.028-0.021l-6.059-4.545
				l-8.26,5.154l1.586,7.395l-0.031,0.019L384.656,503.48z M379.964,478.751l4.766,24.559l2.702-1.688l-1.586-7.395l0.031-0.019
				l8.35-5.209l0.028,0.021l6.059,4.544l2.905-1.812l-20.482-14.739L379.964,478.751z M242.53,497.044
				c-0.031,0-0.063-0.001-0.094-0.001c-0.844-0.006-1.917-0.262-3.281-0.782l-6.279-2.41l0.019-0.049l2.796-7.288l0.048,0.018
				l6.931,2.653c1.631,0.629,2.71,1.437,3.207,2.402c0.502,0.956,0.552,1.972,0.151,3.023c-0.274,0.718-0.73,1.312-1.354,1.767
				C244.07,496.819,243.35,497.044,242.53,497.044z M233.009,493.79l6.182,2.372c1.352,0.517,2.413,0.77,3.245,0.776
				c0.031,0.001,0.062,0.001,0.093,0.001c0.798,0,1.498-0.218,2.084-0.648c0.607-0.444,1.051-1.022,1.318-1.719
				c0.39-1.022,0.341-2.011-0.146-2.94c-0.485-0.941-1.546-1.733-3.152-2.351l-6.883-2.635L233.009,493.79z M360.129,496.48
				l-0.019-0.049l-3.017-7.876l0.048-0.019l5.598-2.149c1.308-0.499,2.248-0.785,2.794-0.847c0.838-0.082,1.639,0.114,2.357,0.591
				c0.722,0.482,1.266,1.193,1.618,2.119c0.489,1.263,0.473,2.418-0.049,3.431c-0.526,1.018-1.708,1.868-3.614,2.599L360.129,496.48
				z M357.227,488.614l2.962,7.732l5.617-2.164c1.883-0.721,3.048-1.554,3.561-2.549c0.507-0.985,0.522-2.112,0.043-3.347
				c-0.343-0.905-0.874-1.601-1.577-2.07c-0.593-0.394-1.239-0.593-1.926-0.593c-0.119,0-0.241,0.007-0.364,0.019
				c-0.535,0.061-1.467,0.343-2.767,0.841L357.227,488.614z M214.274,492.303l-0.065-0.036l-7.023-3.897l0.057-0.049l5.587-4.763
				c1.161-0.999,2.264-2.107,3.279-3.296l0.09,0.046c-0.293,1.235-0.591,2.889-0.91,5.053L214.274,492.303z M207.367,488.353
				l6.827,3.787l0.992-6.793c0.302-2.049,0.586-3.641,0.863-4.855c-0.98,1.131-2.04,2.189-3.152,3.146L207.367,488.353z
				 M385.292,491.716l-1.477-7.27c-0.309-1.501-0.743-3.003-1.291-4.467l0.085-0.056c0.938,0.862,2.24,1.923,3.978,3.246
				l5.579,4.255l-0.062,0.04L385.292,491.716z M382.696,480.142c0.514,1.406,0.926,2.846,1.22,4.283l1.447,7.124l6.621-4.136
				l-5.46-4.163C384.877,481.998,383.623,480.98,382.696,480.142z"/>
		</g>
		<g>
			<path fill="#088B44" d="M222.104,442.092c19.072,0,30.846,5.118,31.948,17.718C236.579,458.432,225.929,452.523,222.104,442.092
				L222.104,442.092z"/>
		</g>
		<g>
			<path fill="#088B44" d="M234.199,464.813c17.943-6.468,30.749-5.647,36.061,5.835
				C253.357,475.281,241.333,473.332,234.199,464.813L234.199,464.813z"/>
		</g>
		<g>
			<path fill="#088B44" d="M255.949,457.247c-12.016-14.816-15.454-27.171-6.364-35.972
				C259.525,435.715,261.645,447.702,255.949,457.247L255.949,457.247z"/>
		</g>
		<g>
			<path fill="#088B44" d="M259.914,443.493c-0.51,15.606,5.938,23.966,16.219,25.211
				C275.47,454.369,268.345,446.902,259.914,443.493L259.914,443.493z"/>
		</g>
		<g>
			<path fill="#088B44" d="M237.089,430.598c-17.974-6.618-27.252-15.502-23.832-27.719
				C229.232,410.238,237.178,419.467,237.089,430.598L237.089,430.598z"/>
		</g>
		<g>
			<path fill="#088B44" d="M211.216,426.565c19.06-0.65,30.998,4.075,32.525,16.625
				C226.233,442.407,215.387,436.864,211.216,426.565L211.216,426.565z"/>
		</g>
		<g>
			<path fill="#088B44" d="M240.65,432.632c-8.053-17.287-8.382-30.117,2.575-36.437
				C249.352,412.618,248.492,424.769,240.65,432.632L240.65,432.632z"/>
		</g>
		<g>
			<path fill="#088B44" d="M255.287,479.459c17.998,6.32,30.798,5.379,36.014-6.139
				C274.353,468.834,262.352,470.885,255.287,479.459L255.287,479.459z"/>
		</g>
		<g>
			<path fill="#088B44" d="M272.75,449.099c3.689,15.435,10.105,23.966,20.512,22.417
				C288.769,457.649,281.931,450.174,272.75,449.099L272.75,449.099z"/>
		</g>
		<g>
			<path fill="#088B44" d="M286.685,484.771c9.181-2.07,14.294-5.804,13.462-11.986
				C291.884,475.336,287.396,479.331,286.685,484.771L286.685,484.771z"/>
		</g>
		<g>
			<path fill="#088B44" d="M301.337,473.283c4.512,8.265,9.516,12.148,15.23,9.642C311.842,475.683,306.762,472.469,301.337,473.283
				L301.337,473.283z"/>
		</g>
		<g>
			<path fill="#088B44" d="M380.924,442.092c-19.072,0-30.843,5.118-31.948,17.718C366.45,458.432,377.101,452.523,380.924,442.092
				L380.924,442.092z"/>
		</g>
		<g>
			<path fill="#088B44" d="M368.831,464.813c-17.946-6.468-30.752-5.647-36.058,5.835
				C349.674,475.281,361.696,473.332,368.831,464.813L368.831,464.813z"/>
		</g>
		<g>
			<path fill="#088B44" d="M347.081,457.247c12.011-14.816,15.454-27.171,6.361-35.972
				C343.505,435.715,341.382,447.702,347.081,457.247L347.081,457.247z"/>
		</g>
		<g>
			<path fill="#088B44" d="M343.113,443.493c0.513,15.606-5.938,23.966-16.214,25.211
				C327.556,454.369,334.685,446.902,343.113,443.493L343.113,443.493z"/>
		</g>
		<g>
			<path fill="#088B44" d="M365.941,430.598c17.968-6.618,27.25-15.502,23.832-27.719
				C373.798,410.238,365.852,419.467,365.941,430.598L365.941,430.598z"/>
		</g>
		<g>
			<path fill="#088B44" d="M391.814,426.565c-19.066-0.65-31.002,4.075-32.525,16.625
				C376.797,442.407,387.64,436.864,391.814,426.565L391.814,426.565z"/>
		</g>
		<g>
			<path fill="#088B44" d="M362.378,432.632c8.052-17.287,8.383-30.117-2.576-36.437
				C353.675,412.618,354.538,424.769,362.378,432.632L362.378,432.632z"/>
		</g>
		<g>
			<path fill="#088B44" d="M347.74,479.459c-17.995,6.32-30.798,5.379-36.011-6.139C328.677,468.834,340.676,470.885,347.74,479.459
				L347.74,479.459z"/>
		</g>
		<g>
			<path fill="#088B44" d="M330.278,449.099c-3.687,15.435-10.105,23.966-20.506,22.417
				C314.258,457.649,321.099,450.174,330.278,449.099L330.278,449.099z"/>
		</g>
	</g>
</g>
</svg>
