<?xml version="1.0" encoding="UTF-8"?>
<!DOCTYPE svg PUBLIC "-//W3C//DTD SVG 1.1//EN" "http://www.w3.org/Graphics/SVG/1.1/DTD/svg11.dtd">
<svg xmlns="http://www.w3.org/2000/svg" version="1.1" width="300px" height="300px" style="shape-rendering:geometricPrecision; text-rendering:geometricPrecision; image-rendering:optimizeQuality; fill-rule:evenodd; clip-rule:evenodd" xmlns:xlink="http://www.w3.org/1999/xlink">
<g><path style="opacity:0.012" fill="#fafbfa" d="M 92.5,3.5 C 93.6009,2.40168 94.9343,2.23502 96.5,3C 95.2068,3.49001 93.8734,3.65668 92.5,3.5 Z"/></g>
<g><path style="opacity:0.012" fill="#f0f0f0" d="M 202.5,3.5 C 204.288,2.37753 206.288,2.21086 208.5,3C 206.527,3.49546 204.527,3.66212 202.5,3.5 Z"/></g>
<g><path style="opacity:0.012" fill="#f3f3f3" d="M 85.5,4.5 C 86.9464,3.38705 88.6131,3.22039 90.5,4C 88.8659,4.49351 87.1992,4.66018 85.5,4.5 Z"/></g>
<g><path style="opacity:0.004" fill="#eaeaea" d="M 209.5,4.5 C 210.946,3.38705 212.613,3.22039 214.5,4C 212.866,4.49351 211.199,4.66018 209.5,4.5 Z"/></g>
<g><path style="opacity:0.012" fill="#f5f5f5" d="M 85.5,4.5 C 84.3991,5.59832 83.0657,5.76498 81.5,5C 82.7932,4.50999 84.1266,4.34332 85.5,4.5 Z"/></g>
<g><path style="opacity:0.012" fill="#f4f4f4" d="M 58.5,11.5 C 59.2506,10.4265 60.2506,10.2599 61.5,11C 60.552,11.4828 59.552,11.6495 58.5,11.5 Z"/></g>
<g><path style="opacity:0.012" fill="#f5f5f5" d="M 54.5,12.5 C 55.5676,11.5655 56.901,11.2322 58.5,11.5C 58.5,11.8333 58.5,12.1667 58.5,12.5C 57.1667,12.5 55.8333,12.5 54.5,12.5 Z"/></g>
<g><path style="opacity:0.012" fill="#f4f4f4" d="M 242.5,12.5 C 243.251,11.4265 244.251,11.2599 245.5,12C 244.552,12.4828 243.552,12.6495 242.5,12.5 Z"/></g>
<g><path style="opacity:0.012" fill="#f4f4f4" d="M 51.5,13.5 C 52.209,12.596 53.209,12.2627 54.5,12.5C 53.791,13.404 52.791,13.7373 51.5,13.5 Z"/></g>
<g><path style="opacity:0.012" fill="#f4f4f4" d="M 249.5,13.5 C 248.448,13.6495 247.448,13.4828 246.5,13C 247.749,12.2599 248.749,12.4265 249.5,13.5 Z"/></g>
<g><path style="opacity:0.012" fill="#f4f4f4" d="M 48.5,14.5 C 49.209,13.596 50.209,13.2627 51.5,13.5C 50.791,14.404 49.791,14.7373 48.5,14.5 Z"/></g>
<g><path style="opacity:0.004" fill="#ededed" d="M 249.5,13.5 C 251.308,13.4914 252.975,13.9914 254.5,15C 253.552,15.4828 252.552,15.6495 251.5,15.5C 250.833,14.8333 250.167,14.1667 249.5,13.5 Z"/></g>
<g><path style="opacity:0.012" fill="#fafbfa" d="M 48.5,14.5 C 48.1034,15.525 47.4368,15.6917 46.5,15C 47.0944,14.5357 47.7611,14.369 48.5,14.5 Z"/></g>
<g><path style="opacity:0.012" fill="#fafbfa" d="M 43.5,16.5 C 43.8966,15.475 44.5632,15.3083 45.5,16C 44.9056,16.4643 44.2389,16.631 43.5,16.5 Z"/></g>
<g><path style="opacity:0.004" fill="#e9e9e9" d="M 262.5,19.5 C 262.897,18.475 263.563,18.3083 264.5,19C 263.906,19.4643 263.239,19.631 262.5,19.5 Z"/></g>
<g><path style="opacity:0.012" fill="#fafbfa" d="M 19.5,49.5 C 19.8966,48.475 20.5632,48.3083 21.5,49C 20.9056,49.4643 20.2389,49.631 19.5,49.5 Z"/></g>
<g><path style="opacity:0.004" fill="#e9e9e9" d="M 279.5,50.5 C 280.833,49.1667 282.167,49.1667 283.5,50.5C 282.167,50.5 280.833,50.5 279.5,50.5 Z"/></g>
<g><path style="opacity:0.012" fill="#f7f7f7" d="M 283.5,50.5 C 285.527,50.3379 287.527,50.5045 289.5,51C 287.288,51.7891 285.288,51.6225 283.5,50.5 Z"/></g>
<g><path style="opacity:0.012" fill="#fafbfa" d="M 8.5,76.5 C 7.34434,69.0113 7.17767,61.3446 8,53.5C 8.49969,61.1594 8.66635,68.8261 8.5,76.5 Z"/></g>
<g><path style="opacity:0.012" fill="#f3f3f3" d="M 291.5,72.5 C 291.334,66.4908 291.501,60.4908 292,54.5C 292.819,60.6812 292.653,66.6812 291.5,72.5 Z"/></g>
<g><path style="opacity:0.012" fill="#f6f6f6" d="M 290.5,72.5 C 290.833,72.5 291.167,72.5 291.5,72.5C 291.815,76.3714 291.482,80.0381 290.5,83.5C 290.5,79.8333 290.5,76.1667 290.5,72.5 Z"/></g>
<g><path style="opacity:0.012" fill="#fafbfa" d="M 289.5,83.5 C 289.833,83.5 290.167,83.5 290.5,83.5C 290.806,86.3854 290.473,89.0521 289.5,91.5C 289.5,88.8333 289.5,86.1667 289.5,83.5 Z"/></g>
<g><path style="opacity:0.004" fill="#eaeaea" d="M 287.5,104.5 C 287.34,102.801 287.506,101.134 288,99.5C 288.78,101.387 288.613,103.054 287.5,104.5 Z"/></g>
<g><path style="opacity:0.012" fill="#fafbfa" d="M 284.5,172.5 C 284.833,172.5 285.167,172.5 285.5,172.5C 285.672,173.492 285.338,174.158 284.5,174.5C 284.5,173.833 284.5,173.167 284.5,172.5 Z"/></g>
<g><path style="opacity:0.012" fill="#fafbfa" d="M 281.5,177.5 C 281.833,177.5 282.167,177.5 282.5,177.5C 282.315,178.17 281.981,178.17 281.5,177.5 Z"/></g>
<g><path style="opacity:0.004" fill="#ebebeb" d="M 280.5,178.5 C 280.833,178.5 281.167,178.5 281.5,178.5C 281.5,180.5 280.5,181.5 278.5,181.5C 278.5,181.167 278.5,180.833 278.5,180.5C 279.167,180.5 279.5,180.167 279.5,179.5C 280.167,179.5 280.5,179.167 280.5,178.5 Z"/></g>
<g><path style="opacity:0.012" fill="#fafbfa" d="M 277.5,181.5 C 277.833,181.5 278.167,181.5 278.5,181.5C 278.315,182.17 277.981,182.17 277.5,181.5 Z"/></g>
<g><path style="opacity:0.012" fill="#fafbfa" d="M 276.5,182.5 C 276.833,182.5 277.167,182.5 277.5,182.5C 277.315,183.17 276.981,183.17 276.5,182.5 Z"/></g>
<g><path style="opacity:0.012" fill="#f2f2f2" d="M 274.5,184.5 C 274.5,184.167 274.5,183.833 274.5,183.5C 275.167,183.5 275.833,183.5 276.5,183.5C 276.158,184.338 275.492,184.672 274.5,184.5 Z"/></g>
<g><path style="opacity:0.012" fill="#fafbfa" d="M 273.5,184.5 C 273.833,184.5 274.167,184.5 274.5,184.5C 274.315,185.17 273.981,185.17 273.5,184.5 Z"/></g>
<g><path style="opacity:0.004" fill="#e9e9e9" d="M 271.5,186.5 C 271.5,186.167 271.5,185.833 271.5,185.5C 272.167,185.5 272.833,185.5 273.5,185.5C 273.158,186.338 272.492,186.672 271.5,186.5 Z"/></g>
<g><path style="opacity:0.012" fill="#f4f4f4" d="M 268.5,187.5 C 268.5,187.167 268.5,186.833 268.5,186.5C 269.5,186.5 270.5,186.5 271.5,186.5C 270.791,187.404 269.791,187.737 268.5,187.5 Z"/></g>
<g><path style="opacity:0.012" fill="#fafbfa" d="M 265.5,188.5 C 265.5,188.167 265.5,187.833 265.5,187.5C 266.5,187.5 267.5,187.5 268.5,187.5C 267.791,188.404 266.791,188.737 265.5,188.5 Z"/></g>
<g><path style="opacity:0.012" fill="#fafbfa" d="M 261.5,192.5 C 261.833,192.5 262.167,192.5 262.5,192.5C 262.672,193.492 262.338,194.158 261.5,194.5C 261.5,193.833 261.5,193.167 261.5,192.5 Z"/></g>
<g><path style="opacity:0.012" fill="#fafbfa" d="M 249.5,215.5 C 249.833,215.5 250.167,215.5 250.5,215.5C 250.672,216.492 250.338,217.158 249.5,217.5C 249.5,216.833 249.5,216.167 249.5,215.5 Z"/></g>
<g><path style="opacity:0.627" fill="#e9e9e9" d="M 141.5,-0.5 C 147.167,-0.5 152.833,-0.5 158.5,-0.5C 173.056,0.420914 187.723,1.75425 202.5,3.5C 215.788,6.15233 229.121,9.15233 242.5,12.5C 245.215,14.0719 248.215,15.0719 251.5,15.5C 254.939,17.2043 258.605,18.5376 262.5,19.5C 263.568,20.4345 264.901,20.7678 266.5,20.5C 265.753,28.248 267.087,35.5814 270.5,42.5C 270.291,43.086 269.957,43.586 269.5,44C 272.084,47.4506 275.418,49.6172 279.5,50.5C 282.599,51.8654 285.932,52.8654 289.5,53.5C 290.46,59.7734 290.793,66.1067 290.5,72.5C 289.518,75.9619 289.185,79.6286 289.5,83.5C 288.167,86.1667 288.167,88.8333 289.5,91.5C 289.662,93.5273 289.495,95.5273 289,97.5C 288.333,92.1667 287.667,92.1667 287,97.5C 286.204,100.039 286.371,102.372 287.5,104.5C 287.219,109.794 286.219,114.96 284.5,120C 284.394,135.396 284.56,150.896 285,166.5C 285.92,166.93 286.753,167.264 287.5,167.5C 286.972,169.336 286.306,171.003 285.5,172.5C 285.167,167.167 284.833,167.167 284.5,172.5C 283.167,173.167 283.167,173.833 284.5,174.5C 284.573,176.027 283.906,177.027 282.5,177.5C 282.167,176.167 281.833,176.167 281.5,177.5C 280.833,177.5 280.5,177.833 280.5,178.5C 279.833,178.5 279.5,178.833 279.5,179.5C 278.833,179.5 278.5,179.833 278.5,180.5C 277.833,180.5 277.5,180.833 277.5,181.5C 276.833,181.5 276.5,181.833 276.5,182.5C 275.508,182.328 274.842,182.662 274.5,183.5C 273.833,183.5 273.5,183.833 273.5,184.5C 272.508,184.328 271.842,184.662 271.5,185.5C 270.209,185.263 269.209,185.596 268.5,186.5C 267.209,186.263 266.209,186.596 265.5,187.5C 261.5,187.833 261.5,188.167 265.5,188.5C 264.341,189.74 263.341,191.074 262.5,192.5C 262.167,188.5 261.833,188.5 261.5,192.5C 260.167,193.167 260.167,193.833 261.5,194.5C 259.124,202.254 255.458,209.254 250.5,215.5C 250.167,214.167 249.833,214.167 249.5,215.5C 248.167,216.167 248.167,216.833 249.5,217.5C 245.905,224.362 241.572,230.696 236.5,236.5C 236.167,235.167 235.833,235.167 235.5,236.5C 234.833,236.5 234.5,236.833 234.5,237.5C 233.167,237.833 233.167,238.167 234.5,238.5C 234.262,240.404 233.262,241.738 231.5,242.5C 231.167,241.167 230.833,241.167 230.5,242.5C 229.833,242.5 229.5,242.833 229.5,243.5C 228.833,243.5 228.5,243.833 228.5,244.5C 227.167,244.833 227.167,245.167 228.5,245.5C 228.262,247.404 227.262,248.738 225.5,249.5C 225.167,248.167 224.833,248.167 224.5,249.5C 223.833,249.5 223.5,249.833 223.5,250.5C 222.833,250.5 222.5,250.833 222.5,251.5C 221.833,251.5 221.5,251.833 221.5,252.5C 220.833,252.5 220.5,252.833 220.5,253.5C 219.833,253.5 219.5,253.833 219.5,254.5C 218.833,254.5 218.5,254.833 218.5,255.5C 217.833,255.5 217.5,255.833 217.5,256.5C 216.833,256.5 216.5,256.833 216.5,257.5C 215.167,257.833 215.167,258.167 216.5,258.5C 215.415,260.587 213.749,261.92 211.5,262.5C 211.167,261.167 210.833,261.167 210.5,262.5C 209.833,262.5 209.5,262.833 209.5,263.5C 208.833,263.5 208.5,263.833 208.5,264.5C 207.833,264.5 207.5,264.833 207.5,265.5C 206.167,265.833 206.167,266.167 207.5,266.5C 207.027,267.906 206.027,268.573 204.5,268.5C 204.167,267.167 203.833,267.167 203.5,268.5C 202.833,268.5 202.5,268.833 202.5,269.5C 201.833,269.5 201.5,269.833 201.5,270.5C 200.508,270.328 199.842,270.662 199.5,271.5C 198.833,271.5 198.5,271.833 198.5,272.5C 197.833,272.5 197.5,272.833 197.5,273.5C 196.508,273.328 195.842,273.662 195.5,274.5C 194.833,274.5 194.5,274.833 194.5,275.5C 193.833,275.5 193.5,275.833 193.5,276.5C 192.508,276.328 191.842,276.662 191.5,277.5C 190.833,277.5 190.5,277.833 190.5,278.5C 189.508,278.328 188.842,278.662 188.5,279.5C 187.833,279.5 187.5,279.833 187.5,280.5C 186.508,280.328 185.842,280.662 185.5,281.5C 184.833,281.5 184.5,281.833 184.5,282.5C 183.508,282.328 182.842,282.662 182.5,283.5C 181.508,283.328 180.842,283.662 180.5,284.5C 179.833,284.5 179.5,284.833 179.5,285.5C 178.508,285.328 177.842,285.662 177.5,286.5C 176.508,286.328 175.842,286.662 175.5,287.5C 174.833,287.5 174.5,287.833 174.5,288.5C 173.508,288.328 172.842,288.662 172.5,289.5C 171.508,289.328 170.842,289.662 170.5,290.5C 169.508,290.328 168.842,290.662 168.5,291.5C 167.508,291.328 166.842,291.662 166.5,292.5C 165.508,292.328 164.842,292.662 164.5,293.5C 163.508,293.328 162.842,293.662 162.5,294.5C 161.508,294.328 160.842,294.662 160.5,295.5C 159.508,295.328 158.842,295.662 158.5,296.5C 157.209,296.263 156.209,296.596 155.5,297.5C 154.508,297.328 153.842,297.662 153.5,298.5C 151.167,298.5 148.833,298.5 146.5,298.5C 124.909,289.137 106.076,277.137 90,262.5C 89.2825,263.451 88.4491,263.617 87.5,263C 85.8333,261.333 84.1667,259.667 82.5,258C 82.8333,257.667 83.1667,257.333 83.5,257C 79.83,253.301 75.9967,250.135 72,247.5C 71.3828,246.551 71.5494,245.718 72.5,245C 70.8156,243.26 68.9823,242.094 67,241.5C 67.6171,239.905 67.2837,238.572 66,237.5C 64.8687,238.604 64.0354,238.271 63.5,236.5C 56.814,228.208 50.4807,218.542 44.5,207.5C 45.3256,206.549 45.4922,205.549 45,204.5C 44,204.167 43,203.833 42,203.5C 40.4185,199.143 39.0852,194.81 38,190.5C 37.6667,191.167 37.3333,191.833 37,192.5C 36.5,190.667 35.3333,189.5 33.5,189C 34.8333,188.667 36.1667,188.333 37.5,188C 32.7421,186.749 28.2421,184.915 24,182.5C 23.2825,183.451 22.4491,183.617 21.5,183C 17.5417,179.579 14.7084,175.412 13,170.5C 12.3333,155.167 12.3333,139.833 13,124.5C 13.4652,123.069 14.2986,121.903 15.5,121C 13.2645,113.325 11.5978,105.491 10.5,97.5C 10.7092,96.0055 11.3759,94.8388 12.5,94C 11.7256,91.595 11.2256,89.095 11,86.5C 10.6667,88.8333 10.3333,91.1667 10,93.5C 9.09597,87.8646 8.59597,82.198 8.5,76.5C 9.49239,68.6841 9.82572,60.6841 9.5,52.5C 16.0905,52.5202 22.0905,50.6869 27.5,47C 26.8333,46.6667 26.1667,46.3333 25.5,46C 32.56,39.2668 35.06,31.1001 33,21.5C 41.3842,18.8677 49.8842,15.8677 58.5,12.5C 85.8174,5.07548 113.484,0.742151 141.5,-0.5 Z"/></g>
<g><path style="opacity:1" fill="#060606" d="M 131.5,1.5 C 175.738,-0.0154446 218.738,6.48456 260.5,21C 261.237,30.0828 264.071,38.5828 269,46.5C 274.411,51.804 280.911,54.4707 288.5,54.5C 288.408,76.6465 285.741,98.4799 280.5,120C 280.509,121.404 281.009,122.57 282,123.5C 282.667,139.833 282.667,156.167 282,172.5C 280.221,176.612 277.388,179.778 273.5,182C 269.533,183.6 265.533,185.1 261.5,186.5C 241.374,234.794 207.707,270.294 160.5,293C 154.335,297.121 148.002,297.454 141.5,294C 93.7134,271.548 59.5467,236.048 39,187.5C 18.3784,181.942 10.8784,168.609 16.5,147.5C 16.6667,139.833 16.8333,132.167 17,124.5C 18.2362,123.601 19.0696,122.434 19.5,121C 13.8385,99.2243 11.1718,77.0576 11.5,54.5C 24.5356,53.6325 33.0356,46.9658 37,34.5C 36.9277,29.6918 37.761,25.1918 39.5,21C 69.4116,10.3192 100.078,3.81915 131.5,1.5 Z"/></g>
<g><path style="opacity:1" fill="#fbfbfb" d="M 137.5,218.5 C 144.971,220.548 152.304,223.215 159.5,226.5C 162.861,231.915 164.861,237.915 165.5,244.5C 164.403,250.023 161.736,254.69 157.5,258.5C 153.692,261.115 149.525,263.115 145,264.5C 136.642,264.064 129.476,261.064 123.5,255.5C 121.193,249.922 119.526,244.255 118.5,238.5C 118.34,236.801 118.506,235.134 119,233.5C 125.123,229.711 130.29,224.878 134.5,219C 135.448,218.517 136.448,218.351 137.5,218.5 Z"/></g>
<g><path style="opacity:1" fill="#f7f7f7" d="M 190.5,259.5 C 190.351,254.425 189.685,249.425 188.5,244.5C 190.642,237.935 192.475,231.268 194,224.5C 197.62,222.541 200.954,220.208 204,217.5C 205.653,217.82 206.653,218.82 207,220.5C 207.886,232.844 204.886,244.177 198,254.5C 195.901,256.797 193.401,258.464 190.5,259.5 Z"/></g>
<g><path style="opacity:1" fill="#373737" d="M 138.5,217.5 C 145.874,219.361 152.874,222.027 159.5,225.5C 159.5,225.833 159.5,226.167 159.5,226.5C 152.304,223.215 144.971,220.548 137.5,218.5C 138.167,218.5 138.5,218.167 138.5,217.5 Z"/></g>
<g><path style="opacity:1" fill="#c21e31" d="M 242.5,174.5 C 244.099,174.232 245.432,174.566 246.5,175.5C 237.675,197.847 225.342,217.847 209.5,235.5C 209.279,232.721 209.612,230.054 210.5,227.5C 223.93,211.664 234.597,193.998 242.5,174.5 Z"/></g>
<g><path style="opacity:1" fill="#060606" d="M 132.5,191.5 C 131.952,193.394 130.952,195.06 129.5,196.5C 132.39,203.27 134.39,210.27 135.5,217.5C 136.5,217.5 137.5,217.5 138.5,217.5C 138.5,218.167 138.167,218.5 137.5,218.5C 136.448,218.351 135.448,218.517 134.5,219C 130.29,224.878 125.123,229.711 119,233.5C 118.506,235.134 118.34,236.801 118.5,238.5C 118.167,238.5 117.833,238.5 117.5,238.5C 117.66,236.801 117.494,235.134 117,233.5C 111.043,230.031 105.543,226.031 100.5,221.5C 101.955,213.551 104.288,205.885 107.5,198.5C 108.167,197.833 108.833,197.167 109.5,196.5C 115.832,196.056 122.165,195.556 128.5,195C 129.705,193.624 131.038,192.458 132.5,191.5 Z"/></g>
<g><path style="opacity:1" fill="#5b5b5b" d="M 106.5,186.5 C 107.209,185.596 108.209,185.263 109.5,185.5C 109.5,189.167 109.5,192.833 109.5,196.5C 108.833,197.167 108.167,197.833 107.5,198.5C 107.817,194.298 107.483,190.298 106.5,186.5 Z"/></g>
<g><path style="opacity:1" fill="#212121" d="M 135.5,188.5 C 134.833,189.833 133.833,190.833 132.5,191.5C 132.5,189.5 133.5,188.5 135.5,188.5 Z"/></g>
<g><path style="opacity:1" fill="#4b4b4b" d="M 141.5,183.5 C 140.089,185.914 138.089,187.581 135.5,188.5C 136.911,186.086 138.911,184.419 141.5,183.5 Z"/></g>
<g><path style="opacity:1" fill="#3c3c3c" d="M 171.5,186.5 C 172.167,186.5 172.833,186.5 173.5,186.5C 177.519,193.607 179.519,201.274 179.5,209.5C 178.833,209.833 178.167,210.167 177.5,210.5C 177.992,201.799 175.992,193.799 171.5,186.5 Z"/></g>
<g><path style="opacity:1" fill="#f2f2f2" d="M 106.5,186.5 C 107.483,190.298 107.817,194.298 107.5,198.5C 104.288,205.885 101.955,213.551 100.5,221.5C 98.5,221.5 97.5,222.5 97.5,224.5C 95.2918,225.894 93.7918,227.894 93,230.5C 90.2752,216.124 92.9418,202.791 101,190.5C 102.451,188.536 104.284,187.203 106.5,186.5 Z"/></g>
<g><path style="opacity:1" fill="#c11d31" d="M 57.5,174.5 C 64.8895,194.303 75.5561,211.969 89.5,227.5C 89.5751,230.206 89.9084,232.873 90.5,235.5C 74.1794,218.132 61.846,198.132 53.5,175.5C 54.5676,174.566 55.901,174.232 57.5,174.5 Z"/></g>
<g><path style="opacity:1" fill="#fafafa" d="M 183.5,181.5 C 185.8,183.984 188.467,185.984 191.5,187.5C 195.545,191.38 199.045,195.713 202,200.5C 206.258,210.612 203.591,217.945 194,222.5C 189.589,217.583 184.755,213.25 179.5,209.5C 179.519,201.274 177.519,193.607 173.5,186.5C 176.387,183.948 179.72,182.282 183.5,181.5 Z"/></g>
<g><path style="opacity:1" fill="#353535" d="M 183.5,181.5 C 186.891,182.529 189.557,184.529 191.5,187.5C 188.467,185.984 185.8,183.984 183.5,181.5 Z"/></g>
<g><path style="opacity:1" fill="#2d2d2d" d="M 147.5,179.5 C 145.853,181.326 143.853,182.66 141.5,183.5C 142.802,181.178 144.802,179.845 147.5,179.5 Z"/></g>
<g><path style="opacity:1" fill="#fcfcfc" d="M 147.5,179.5 C 156.194,179.671 164.194,182.004 171.5,186.5C 175.992,193.799 177.992,201.799 177.5,210.5C 171.878,215.974 165.878,220.974 159.5,225.5C 152.874,222.027 145.874,219.361 138.5,217.5C 137.5,217.5 136.5,217.5 135.5,217.5C 134.39,210.27 132.39,203.27 129.5,196.5C 130.952,195.06 131.952,193.394 132.5,191.5C 133.833,190.833 134.833,189.833 135.5,188.5C 138.089,187.581 140.089,185.914 141.5,183.5C 143.853,182.66 145.853,181.326 147.5,179.5 Z"/></g>
<g><path style="opacity:1" fill="#f1ebec" d="M 53.5,175.5 C 61.846,198.132 74.1794,218.132 90.5,235.5C 91.6675,238.819 92.5008,242.153 93,245.5C 73.676,225.19 59.176,201.856 49.5,175.5C 50.8333,175.5 52.1667,175.5 53.5,175.5 Z"/></g>
<g><path style="opacity:1" fill="#f2eded" d="M 246.5,175.5 C 251,175.219 251.833,176.886 249,180.5C 238.962,204.518 224.962,225.852 207,244.5C 207.645,241.439 208.478,238.439 209.5,235.5C 225.342,217.847 237.675,197.847 246.5,175.5 Z"/></g>
<g><path style="opacity:1" fill="#e8e8e8" d="M 191.5,187.5 C 189.557,184.529 186.891,182.529 183.5,181.5C 180.477,178.474 177.81,175.141 175.5,171.5C 175.833,171.167 176.167,170.833 176.5,170.5C 183.674,174.182 189.841,179.182 195,185.5C 196.301,187.402 196.968,189.402 197,191.5C 195.549,189.536 193.716,188.203 191.5,187.5 Z"/></g>
<g><path style="opacity:1" fill="#f8f8f8" d="M 147.5,179.5 C 144.802,179.845 142.802,181.178 141.5,183.5C 138.911,184.419 136.911,186.086 135.5,188.5C 133.5,188.5 132.5,189.5 132.5,191.5C 131.038,192.458 129.705,193.624 128.5,195C 122.165,195.556 115.832,196.056 109.5,196.5C 109.5,192.833 109.5,189.167 109.5,185.5C 117.041,170.234 129.041,165.068 145.5,170C 148.174,172.848 148.841,176.015 147.5,179.5 Z"/></g>
<g><path style="opacity:1" fill="#34265f" d="M 242.5,174.5 C 234.597,193.998 223.93,211.664 210.5,227.5C 211.208,200.069 199.541,179.902 175.5,167C 198.175,167.564 220.508,170.064 242.5,174.5 Z"/></g>
<g><path style="opacity:1" fill="#33265e" d="M 89.5,227.5 C 75.5561,211.969 64.8895,194.303 57.5,174.5C 79.4491,169.635 101.782,167.135 124.5,167C 100.049,179.732 88.3821,199.899 89.5,227.5 Z"/></g>
<g><path style="opacity:1" fill="#f0f0f0" d="M 138.5,164.5 C 144.176,164.334 149.843,164.501 155.5,165C 148.829,168.922 141.829,169.588 134.5,167C 135.858,166.066 137.192,165.232 138.5,164.5 Z"/></g>
<g><path style="opacity:1" fill="#6e6e6e" d="M 137.5,157.5 C 139.279,159.344 141.612,160.01 144.5,159.5C 142.052,160.473 139.385,160.806 136.5,160.5C 136.263,159.209 136.596,158.209 137.5,157.5 Z"/></g>
<g><path style="opacity:1" fill="#e5e5e5" d="M 153.5,150.5 C 156.833,150.5 160.167,150.5 163.5,150.5C 163.5,151.833 163.5,153.167 163.5,154.5C 161.071,154.116 158.737,153.449 156.5,152.5C 156.5,154.167 156.5,155.833 156.5,157.5C 158.484,157.617 160.15,156.95 161.5,155.5C 162.731,156.651 162.731,157.817 161.5,159C 152.78,161.127 150.113,158.293 153.5,150.5 Z"/></g>
<g><path style="opacity:1" fill="#efefef" d="M 144.5,159.5 C 141.612,160.01 139.279,159.344 137.5,157.5C 138.886,155.387 138.552,153.387 136.5,151.5C 141.12,150.507 145.786,150.173 150.5,150.5C 150.5,151.833 150.5,153.167 150.5,154.5C 148.633,154.045 146.8,153.378 145,152.5C 144.167,152.833 143.333,153.167 142.5,153.5C 143.5,154.167 144.5,154.833 145.5,155.5C 144.975,156.192 144.308,156.692 143.5,157C 144.252,157.671 144.586,158.504 144.5,159.5 Z"/></g>
<g><path style="opacity:1" fill="#858585" d="M 191.5,139.5 C 191.5,141.5 191.5,143.5 191.5,145.5C 193.415,145.216 195.081,145.549 196.5,146.5C 194.5,146.5 192.5,146.5 190.5,146.5C 190.198,143.941 190.532,141.607 191.5,139.5 Z"/></g>
<g><path style="opacity:1" fill="#a6a6a6" d="M 186.5,138.5 C 187.468,140.607 187.802,142.941 187.5,145.5C 183.958,145.813 180.625,145.479 177.5,144.5C 180.5,144.5 183.5,144.5 186.5,144.5C 186.5,142.5 186.5,140.5 186.5,138.5 Z"/></g>
<g><path style="opacity:1" fill="#7d7d7d" d="M 200.5,139.5 C 201.167,139.5 201.833,139.5 202.5,139.5C 202.5,141.833 202.5,144.167 202.5,146.5C 201.833,146.5 201.167,146.5 200.5,146.5C 200.5,144.167 200.5,141.833 200.5,139.5 Z"/></g>
<g><path style="opacity:1" fill="#7a7a7a" d="M 41.5,139.5 C 40.8476,140.449 40.5143,141.615 40.5,143C 40.6083,144.681 41.2749,145.848 42.5,146.5C 42.0825,147.222 41.4158,147.722 40.5,148C 41.3366,149.011 41.67,150.178 41.5,151.5C 40.8333,152.5 40.1667,153.5 39.5,154.5C 39.3337,147.825 39.5004,141.158 40,134.5C 41.0086,136.025 41.5086,137.692 41.5,139.5 Z"/></g>
<g><path style="opacity:1" fill="#555555" d="M 65.5,123.5 C 66.4794,126.625 66.8128,129.958 66.5,133.5C 67.5,133.5 68.5,133.5 69.5,133.5C 68.4324,134.434 67.099,134.768 65.5,134.5C 65.1667,131.833 64.8333,129.167 64.5,126.5C 65.404,125.791 65.7373,124.791 65.5,123.5 Z"/></g>
<g><path style="opacity:1" fill="#676767" d="M 206.5,123.5 C 206.198,126.059 206.532,128.393 207.5,130.5C 207.5,131.167 207.167,131.5 206.5,131.5C 204.901,131.768 203.568,131.434 202.5,130.5C 203.5,130.5 204.5,130.5 205.5,130.5C 205.198,127.941 205.532,125.607 206.5,123.5 Z"/></g>
<g><path style="opacity:1" fill="#f0f0f0" d="M 263.5,128.5 C 266.685,128.02 269.519,128.686 272,130.5C 273.011,129.663 274.178,129.33 275.5,129.5C 275.425,132.206 275.092,134.873 274.5,137.5C 271.886,137.723 270.219,136.556 269.5,134C 268.207,133.51 266.873,133.343 265.5,133.5C 265.33,134.822 265.663,135.989 266.5,137C 273.167,138.619 275.333,142.786 273,149.5C 270.717,156.875 266.717,158.208 261,153.5C 259.644,154.38 258.144,154.714 256.5,154.5C 256.833,151.833 257.167,149.167 257.5,146.5C 260.245,146.373 262.245,147.54 263.5,150C 264.793,150.49 266.127,150.657 267.5,150.5C 267.5,149.5 267.5,148.5 267.5,147.5C 264.901,147.451 262.734,146.451 261,144.5C 259.834,138.758 260.668,133.425 263.5,128.5 Z"/></g>
<g><path style="opacity:1" fill="#8e8e8e" d="M 169.5,117.5 C 166.5,117.5 163.5,117.5 160.5,117.5C 161.256,121.793 161.923,126.126 162.5,130.5C 162.497,133.025 162.163,135.359 161.5,137.5C 161.336,130.441 160.67,123.441 159.5,116.5C 163.042,116.187 166.375,116.521 169.5,117.5 Z"/></g>
<g><path style="opacity:1" fill="#0b0b0b" d="M 202.5,130.5 C 203.568,131.434 204.901,131.768 206.5,131.5C 206.468,134.994 205.135,137.661 202.5,139.5C 201.833,139.5 201.167,139.5 200.5,139.5C 199.514,135.03 199.181,130.363 199.5,125.5C 200.5,125.5 201.5,125.5 202.5,125.5C 202.5,127.167 202.5,128.833 202.5,130.5 Z"/></g>
<g><path style="opacity:1" fill="#f4f4f4" d="M 247.5,125.5 C 255.332,124.334 258.999,127.667 258.5,135.5C 258.567,141.801 256.567,147.301 252.5,152C 244.074,153.071 240.407,149.238 241.5,140.5C 241.555,134.659 243.555,129.659 247.5,125.5 Z"/></g>
<g><path style="opacity:1" fill="#111111" d="M 250.5,131.5 C 251.117,131.611 251.617,131.944 252,132.5C 253.107,137.697 252.107,142.364 249,146.5C 246.728,141.219 247.228,136.219 250.5,131.5 Z"/></g>
<g><path style="opacity:1" fill="#efeeee" d="M 64.5,126.5 C 64.8333,129.167 65.1667,131.833 65.5,134.5C 64.1667,134.5 62.8333,134.5 61.5,134.5C 61.5,133.167 61.5,131.833 61.5,130.5C 59.8333,130.5 58.1667,130.5 56.5,130.5C 56.5,131.5 56.5,132.5 56.5,133.5C 57.8333,133.5 59.1667,133.5 60.5,133.5C 60.5,135.833 60.5,138.167 60.5,140.5C 59.5,140.5 58.5,140.5 57.5,140.5C 57.5,141.5 57.5,142.5 57.5,143.5C 59.5,143.5 61.5,143.5 63.5,143.5C 63.5,141.5 63.5,139.5 63.5,137.5C 64.8333,137.5 66.1667,137.5 67.5,137.5C 68.3671,141.535 68.3671,145.535 67.5,149.5C 59.8932,151.077 52.2265,152.41 44.5,153.5C 42.9704,153.36 41.9704,152.693 41.5,151.5C 41.67,150.178 41.3366,149.011 40.5,148C 41.4158,147.722 42.0825,147.222 42.5,146.5C 42.0074,144.194 41.6741,141.861 41.5,139.5C 41.5086,137.692 41.0086,136.025 40,134.5C 39.5004,141.158 39.3337,147.825 39.5,154.5C 38.4415,153.4 37.6082,152.066 37,150.5C 36.5065,152.134 36.3398,153.801 36.5,155.5C 34.4086,155.318 32.4086,155.652 30.5,156.5C 29.8076,155.975 29.3076,155.308 29,154.5C 29,150.5 29,146.5 29,142.5C 26.6519,138.13 25.1519,133.463 24.5,128.5C 27.8411,127.995 31.1745,127.828 34.5,128C 36.1229,131.054 36.7895,130.554 36.5,126.5C 39.7861,125.793 43.1194,125.46 46.5,125.5C 46.5,126.5 46.5,127.5 46.5,128.5C 46.5674,129.959 46.2341,131.292 45.5,132.5C 46.3266,136.807 46.9933,141.14 47.5,145.5C 49.1667,145.5 50.8333,145.5 52.5,145.5C 52.1667,140.833 51.8333,136.167 51.5,131.5C 50.209,131.737 49.209,131.404 48.5,130.5C 48.7678,128.901 48.4345,127.568 47.5,126.5C 47.7911,125.351 48.6244,124.684 50,124.5C 54.7886,123.452 59.6219,122.785 64.5,122.5C 64.5,123.833 64.5,125.167 64.5,126.5 Z"/></g>
<g><path style="opacity:1" fill="#373737" d="M 31.5,138.5 C 34.1443,141.425 35.1443,144.759 34.5,148.5C 32.7498,145.435 31.7498,142.102 31.5,138.5 Z"/></g>
<g><path style="opacity:1" fill="#131212" d="M 41.5,139.5 C 41.6741,141.861 42.0074,144.194 42.5,146.5C 41.2749,145.848 40.6083,144.681 40.5,143C 40.5143,141.615 40.8476,140.449 41.5,139.5 Z"/></g>
<g><path style="opacity:1" fill="#151515" d="M 48.5,130.5 C 49.209,131.404 50.209,131.737 51.5,131.5C 51.8333,136.167 52.1667,140.833 52.5,145.5C 50.8333,145.5 49.1667,145.5 47.5,145.5C 46.9933,141.14 46.3266,136.807 45.5,132.5C 46.7777,132.218 47.7777,131.551 48.5,130.5 Z"/></g>
<g><path style="opacity:1" fill="#7f7f7f" d="M 47.5,126.5 C 48.4345,127.568 48.7678,128.901 48.5,130.5C 47.7777,131.551 46.7777,132.218 45.5,132.5C 46.2341,131.292 46.5674,129.959 46.5,128.5C 47.3382,128.158 47.6716,127.492 47.5,126.5 Z"/></g>
<g><path style="opacity:1" fill="#7f7f7f" d="M 239.5,123.5 C 238.167,123.5 236.833,123.5 235.5,123.5C 235.737,124.791 235.404,125.791 234.5,126.5C 234.5,125.167 234.5,123.833 234.5,122.5C 236.415,122.216 238.081,122.549 239.5,123.5 Z"/></g>
<g><path style="opacity:1" fill="#ecebec" d="M 234.5,126.5 C 235.404,125.791 235.737,124.791 235.5,123.5C 236.833,123.5 238.167,123.5 239.5,123.5C 240.5,123.5 241.5,123.5 242.5,123.5C 242.5,125.833 242.5,128.167 242.5,130.5C 241.5,130.5 240.5,130.5 239.5,130.5C 238.314,137.136 237.314,143.802 236.5,150.5C 234.208,150.756 232.041,150.423 230,149.5C 229.16,143.806 228.16,138.139 227,132.5C 226.342,134.8 225.842,137.133 225.5,139.5C 226.892,142.703 227.559,146.036 227.5,149.5C 218.985,148.879 210.651,147.879 202.5,146.5C 202.5,144.167 202.5,141.833 202.5,139.5C 205.135,137.661 206.468,134.994 206.5,131.5C 207.167,131.5 207.5,131.167 207.5,130.5C 208.091,127.06 209.091,123.727 210.5,120.5C 212.353,119.24 214.186,119.24 216,120.5C 216.5,127.506 217,134.506 217.5,141.5C 219.5,141.5 221.5,141.5 223.5,141.5C 223.234,137.429 223.567,133.429 224.5,129.5C 222.777,127.132 222.11,124.466 222.5,121.5C 226.106,121.211 229.606,121.544 233,122.5C 233.375,127.21 234.042,131.877 235,136.5C 236.023,135.4 236.523,134.067 236.5,132.5C 235.796,130.465 235.129,128.465 234.5,126.5 Z"/></g>
<g><path style="opacity:1" fill="#1d1d1d" d="M 208.5,137.5 C 209.5,137.5 210.5,137.5 211.5,137.5C 211.5,138.5 211.5,139.5 211.5,140.5C 208.433,140.879 207.433,139.879 208.5,137.5 Z"/></g>
<g><path style="opacity:1" fill="#5e5e5e" d="M 210.5,130.5 C 211.782,131.708 211.782,133.042 210.5,134.5C 209.374,133.192 209.374,131.858 210.5,130.5 Z"/></g>
<g><path style="opacity:1" fill="#e9e8e8" d="M 84.5,126.5 C 84.5,128.5 84.5,130.5 84.5,132.5C 83.1667,132.5 81.8333,132.5 80.5,132.5C 80.7852,130.712 80.4519,129.045 79.5,127.5C 79.1667,128.833 78.8333,130.167 78.5,131.5C 79.0531,134.817 79.3865,138.15 79.5,141.5C 80.5,141.5 81.5,141.5 82.5,141.5C 82.5,143.833 82.5,146.167 82.5,148.5C 79.1016,148.82 75.7683,148.487 72.5,147.5C 73.4071,142.127 73.4071,136.627 72.5,131C 72.1667,130.167 71.8333,129.333 71.5,128.5C 70.8302,130.291 70.1635,131.958 69.5,133.5C 68.5,133.5 67.5,133.5 66.5,133.5C 66.8128,129.958 66.4794,126.625 65.5,123.5C 66.3339,122.252 67.6672,121.585 69.5,121.5C 74.1405,120.769 78.8072,120.436 83.5,120.5C 83.2053,122.735 83.5386,124.735 84.5,126.5 Z"/></g>
<g><path style="opacity:1" fill="#edeced" d="M 84.5,126.5 C 84.5,124.167 84.5,121.833 84.5,119.5C 87.85,119.386 91.1833,119.053 94.5,118.5C 99.7859,118.452 102.453,121.119 102.5,126.5C 101.334,130.526 101.501,134.526 103,138.5C 104.842,132.955 106.176,127.289 107,121.5C 111.333,116.167 115.667,116.167 120,121.5C 123.356,129.067 123.189,136.567 119.5,144C 111.816,146.696 107.316,143.863 106,135.5C 105.754,138.89 105.254,142.223 104.5,145.5C 102.926,146.631 101.259,146.798 99.5,146C 97.9799,143.404 97.1466,140.571 97,137.5C 95.9887,136.663 94.8221,136.33 93.5,136.5C 93.5,137.833 93.5,139.167 93.5,140.5C 94.5,140.5 95.5,140.5 96.5,140.5C 96.5,142.833 96.5,145.167 96.5,147.5C 93.1667,147.5 89.8333,147.5 86.5,147.5C 86.3543,144.174 87.021,141.007 88.5,138C 87.6898,134.208 87.3564,130.375 87.5,126.5C 86.5,126.5 85.5,126.5 84.5,126.5 Z"/></g>
<g><path style="opacity:1" fill="#040304" d="M 92.5,126.5 C 93.8333,126.5 95.1667,126.5 96.5,126.5C 96.5,127.5 96.5,128.5 96.5,129.5C 95.1667,129.5 93.8333,129.5 92.5,129.5C 92.5,128.5 92.5,127.5 92.5,126.5 Z"/></g>
<g><path style="opacity:1" fill="#171717" d="M 112.5,124.5 C 114.017,124.511 115.184,125.177 116,126.5C 116.667,130.167 116.667,133.833 116,137.5C 113.443,138.646 112.11,137.646 112,134.5C 111.253,131.076 111.42,127.743 112.5,124.5 Z"/></g>
<g><path style="opacity:1" fill="#eeeeee" d="M 193.5,118.5 C 197.833,118.5 202.167,118.5 206.5,118.5C 206.5,120.167 206.5,121.833 206.5,123.5C 205.532,125.607 205.198,127.941 205.5,130.5C 204.5,130.5 203.5,130.5 202.5,130.5C 202.5,128.833 202.5,127.167 202.5,125.5C 201.5,125.5 200.5,125.5 199.5,125.5C 199.181,130.363 199.514,135.03 200.5,139.5C 200.5,141.833 200.5,144.167 200.5,146.5C 199.167,146.5 197.833,146.5 196.5,146.5C 195.081,145.549 193.415,145.216 191.5,145.5C 191.5,143.5 191.5,141.5 191.5,139.5C 193.29,135.948 194.29,131.948 194.5,127.5C 194.167,126.833 193.833,126.167 193.5,125.5C 192.571,126.689 192.238,128.022 192.5,129.5C 191.167,129.5 189.833,129.5 188.5,129.5C 188.5,127.833 188.5,126.167 188.5,124.5C 189.461,122.735 189.795,120.735 189.5,118.5C 190.833,118.5 192.167,118.5 193.5,118.5 Z"/></g>
<g><path style="opacity:1" fill="#7f7f7f" d="M 187.5,117.5 C 189.735,117.205 191.735,117.539 193.5,118.5C 192.167,118.5 190.833,118.5 189.5,118.5C 189.795,120.735 189.461,122.735 188.5,124.5C 188.167,124.5 187.833,124.5 187.5,124.5C 187.5,122.167 187.5,119.833 187.5,117.5 Z"/></g>
<g><path style="opacity:1" fill="#858585" d="M 123.5,117.5 C 123.185,120.211 123.852,122.544 125.5,124.5C 124.5,124.5 123.5,124.5 122.5,124.5C 122.198,121.941 122.532,119.607 123.5,117.5 Z"/></g>
<g><path style="opacity:1" fill="#f3f2f3" d="M 169.5,117.5 C 169.5,119.5 169.5,121.5 169.5,123.5C 168.5,123.5 167.5,123.5 166.5,123.5C 166.181,128.363 166.514,133.03 167.5,137.5C 169.167,137.5 170.833,137.5 172.5,137.5C 172.5,135.833 172.5,134.167 172.5,132.5C 173.833,132.5 175.167,132.5 176.5,132.5C 176.5,134.167 176.5,135.833 176.5,137.5C 177.5,137.5 178.5,137.5 179.5,137.5C 179.437,130.759 178.77,124.092 177.5,117.5C 180.833,117.5 184.167,117.5 187.5,117.5C 187.5,119.833 187.5,122.167 187.5,124.5C 186.351,124.791 185.684,125.624 185.5,127C 185.021,129.312 184.688,131.645 184.5,134C 184.569,135.986 185.235,137.486 186.5,138.5C 186.5,140.5 186.5,142.5 186.5,144.5C 183.5,144.5 180.5,144.5 177.5,144.5C 171.5,144.5 165.5,144.5 159.5,144.5C 158.99,141.612 159.656,139.279 161.5,137.5C 162.163,135.359 162.497,133.025 162.5,130.5C 161.923,126.126 161.256,121.793 160.5,117.5C 163.5,117.5 166.5,117.5 169.5,117.5 Z"/></g>
<g><path style="opacity:1" fill="#919191" d="M 169.5,123.5 C 167.652,127.854 166.985,132.52 167.5,137.5C 166.514,133.03 166.181,128.363 166.5,123.5C 167.5,123.5 168.5,123.5 169.5,123.5 Z"/></g>
<g><path style="opacity:1" fill="#f0f0f0" d="M 147.5,116.5 C 152.963,115.784 156.463,118.117 158,123.5C 158.839,128.921 158.506,134.254 157,139.5C 153.128,145.756 148.795,146.089 144,140.5C 141.021,134.337 140.687,128.003 143,121.5C 144.059,119.341 145.559,117.674 147.5,116.5 Z"/></g>
<g><path style="opacity:1" fill="#181818" d="M 149.5,123.5 C 150.496,123.414 151.329,123.748 152,124.5C 152.167,126.333 152.333,128.167 152.5,130C 152.695,132.793 152.029,135.293 150.5,137.5C 146.879,133.165 146.545,128.498 149.5,123.5 Z"/></g>
<g><path style="opacity:1" fill="#f0eff0" d="M 125.5,124.5 C 123.852,122.544 123.185,120.211 123.5,117.5C 138.494,112.994 143.494,118.16 138.5,133C 136.19,133.497 133.857,133.663 131.5,133.5C 132.702,137.048 133.369,140.715 133.5,144.5C 130.167,144.5 126.833,144.5 123.5,144.5C 124.77,137.908 125.437,131.241 125.5,124.5 Z"/></g>
<g><path style="opacity:1" fill="#292929" d="M 130.5,123.5 C 131.833,123.5 133.167,123.5 134.5,123.5C 134.5,124.833 134.5,126.167 134.5,127.5C 133.167,127.5 131.833,127.5 130.5,127.5C 130.5,126.167 130.5,124.833 130.5,123.5 Z"/></g>
<g><path style="opacity:1" fill="#f6f2f4" d="M 261.5,112.5 C 264.488,98.6068 265.821,84.6068 265.5,70.5C 252.515,63.336 244.181,52.5027 240.5,38C 224.731,31.7445 208.397,27.7445 191.5,26C 152.452,21.0756 113.785,23.0756 75.5,32C 69.6177,33.4051 63.951,35.4051 58.5,38C 55.5355,52.7654 47.3688,63.5987 34,70.5C 33.3333,76.5 33.3333,82.5 34,88.5C 35.1225,96.5242 36.2891,104.524 37.5,112.5C 35.2986,113.566 32.9653,114.233 30.5,114.5C 27.54,98.6193 26.04,82.6193 26,66.5C 40.9674,59.855 49.4674,48.355 51.5,32C 117.132,10.0187 182.799,10.0187 248.5,32C 250.803,48.116 259.303,59.616 274,66.5C 274.632,80.9485 273.632,95.2819 271,109.5C 270.735,111.651 269.735,113.318 268,114.5C 265.953,113.391 263.787,112.724 261.5,112.5 Z"/></g>
<g><path style="opacity:1" fill="#c22134" d="M 261.5,112.5 C 260.005,112.011 258.671,111.345 257.5,110.5C 260.498,98.3433 261.665,86.01 261,73.5C 249.148,65.8104 241.315,55.1437 237.5,41.5C 207.93,31.0224 177.43,26.6891 146,28.5C 117.336,27.4064 89.503,31.5731 62.5,41C 58.5765,55.0058 50.4098,65.8392 38,73.5C 37.754,85.9603 38.9207,98.2937 41.5,110.5C 40.4863,111.674 39.153,112.34 37.5,112.5C 36.2891,104.524 35.1225,96.5242 34,88.5C 33.3333,82.5 33.3333,76.5 34,70.5C 47.3688,63.5987 55.5355,52.7654 58.5,38C 63.951,35.4051 69.6177,33.4051 75.5,32C 113.785,23.0756 152.452,21.0756 191.5,26C 208.397,27.7445 224.731,31.7445 240.5,38C 244.181,52.5027 252.515,63.336 265.5,70.5C 265.821,84.6068 264.488,98.6068 261.5,112.5 Z"/></g>
<g><path style="opacity:1" fill="#352861" d="M 257.5,110.5 C 254.012,110.46 250.679,109.793 247.5,108.5C 247.828,96.6547 247.495,84.988 246.5,73.5C 245.167,73.5 243.833,73.5 242.5,73.5C 242.5,75.1667 242.5,76.8333 242.5,78.5C 239.167,78.5 235.833,78.5 232.5,78.5C 232.039,82.2122 231.373,85.8789 230.5,89.5C 229.5,89.5 228.5,89.5 227.5,89.5C 227.5,85.8333 227.5,82.1667 227.5,78.5C 223.167,78.5 218.833,78.5 214.5,78.5C 213.542,78.0472 212.708,77.3805 212,76.5C 211.501,72.5138 211.334,68.5138 211.5,64.5C 210.167,64.5 208.833,64.5 207.5,64.5C 207.5,69.1667 207.5,73.8333 207.5,78.5C 204.515,80.4451 201.182,81.4451 197.5,81.5C 197.5,82.5 197.5,83.5 197.5,84.5C 196.167,84.5 194.833,84.5 193.5,84.5C 193.5,82.5 193.5,80.5 193.5,78.5C 191.5,78.5 189.5,78.5 187.5,78.5C 187.5,73.1667 187.5,67.8333 187.5,62.5C 185.708,62.366 184.042,62.6993 182.5,63.5C 181.67,72.6577 181.17,81.991 181,91.5C 180.819,88.3054 180.319,85.3054 179.5,82.5C 178.5,82.5 177.5,82.5 176.5,82.5C 175.483,73.8664 174.816,65.1997 174.5,56.5C 170.833,56.5 167.167,56.5 163.5,56.5C 163.666,60.8461 163.499,65.1794 163,69.5C 162.333,70.1667 161.667,70.8333 161,71.5C 160.824,74.8818 160.324,78.2152 159.5,81.5C 158.614,80.675 158.281,79.675 158.5,78.5C 155.167,78.5 151.833,78.5 148.5,78.5C 148.5,80.8333 148.5,83.1667 148.5,85.5C 147.167,85.5 145.833,85.5 144.5,85.5C 144.5,80.5 144.5,75.5 144.5,70.5C 141.833,70.5 139.167,70.5 136.5,70.5C 136.716,68.3193 135.883,66.6526 134,65.5C 133.333,66.1667 132.667,66.8333 132,67.5C 131.501,73.4908 131.334,79.4908 131.5,85.5C 130.5,85.5 129.5,85.5 128.5,85.5C 128.5,82.1667 128.5,78.8333 128.5,75.5C 125.833,75.5 123.167,75.5 120.5,75.5C 120.5,63.5 120.5,51.5 120.5,39.5C 115.5,39.5 110.5,39.5 105.5,39.5C 104.505,51.989 104.171,64.6557 104.5,77.5C 101.5,77.5 98.5,77.5 95.5,77.5C 95.5,73.5 95.5,69.5 95.5,65.5C 92.1667,65.5 88.8333,65.5 85.5,65.5C 85.8256,69.8839 85.4922,74.2172 84.5,78.5C 83.6687,71.1892 83.1687,63.8559 83,56.5C 80.0337,53.7348 77.367,54.0682 75,57.5C 74.6667,61.8333 74.3333,66.1667 74,70.5C 71.708,71.7899 69.708,73.4565 68,75.5C 67.3124,92.6464 66.479,92.6464 65.5,75.5C 61.1667,75.5 56.8333,75.5 52.5,75.5C 52.5,86.5 52.5,97.5 52.5,108.5C 49.0542,109.687 45.3875,110.354 41.5,110.5C 38.9207,98.2937 37.754,85.9603 38,73.5C 50.4098,65.8392 58.5765,55.0058 62.5,41C 89.503,31.5731 117.336,27.4064 146,28.5C 177.43,26.6891 207.93,31.0224 237.5,41.5C 241.315,55.1437 249.148,65.8104 261,73.5C 261.665,86.01 260.498,98.3433 257.5,110.5 Z"/></g>
<g><path style="opacity:1" fill="#675d86" d="M 246.5,73.5 C 247.495,84.988 247.828,96.6547 247.5,108.5C 245.901,108.768 244.568,108.434 243.5,107.5C 244.5,107.5 245.5,107.5 246.5,107.5C 246.5,96.1667 246.5,84.8333 246.5,73.5 Z"/></g>
<g><path style="opacity:1" fill="#fbfaf9" d="M 105.5,39.5 C 110.5,39.5 115.5,39.5 120.5,39.5C 120.5,51.5 120.5,63.5 120.5,75.5C 123.167,75.5 125.833,75.5 128.5,75.5C 128.5,78.8333 128.5,82.1667 128.5,85.5C 129.5,85.5 130.5,85.5 131.5,85.5C 131.334,79.4908 131.501,73.4908 132,67.5C 132.667,66.8333 133.333,66.1667 134,65.5C 135.883,66.6526 136.716,68.3193 136.5,70.5C 139.167,70.5 141.833,70.5 144.5,70.5C 144.5,75.5 144.5,80.5 144.5,85.5C 145.833,85.5 147.167,85.5 148.5,85.5C 148.5,83.1667 148.5,80.8333 148.5,78.5C 151.833,78.5 155.167,78.5 158.5,78.5C 158.281,79.675 158.614,80.675 159.5,81.5C 160.324,78.2152 160.824,74.8818 161,71.5C 161.667,70.8333 162.333,70.1667 163,69.5C 163.499,65.1794 163.666,60.8461 163.5,56.5C 167.167,56.5 170.833,56.5 174.5,56.5C 174.816,65.1997 175.483,73.8664 176.5,82.5C 177.5,82.5 178.5,82.5 179.5,82.5C 179.5,85.8333 179.5,89.1667 179.5,92.5C 180.5,92.5 181.5,92.5 182.5,92.5C 182.5,82.8333 182.5,73.1667 182.5,63.5C 184.042,62.6993 185.708,62.366 187.5,62.5C 187.5,67.8333 187.5,73.1667 187.5,78.5C 189.5,78.5 191.5,78.5 193.5,78.5C 193.5,80.5 193.5,82.5 193.5,84.5C 194.833,84.5 196.167,84.5 197.5,84.5C 197.5,83.5 197.5,82.5 197.5,81.5C 201.182,81.4451 204.515,80.4451 207.5,78.5C 207.5,73.8333 207.5,69.1667 207.5,64.5C 208.833,64.5 210.167,64.5 211.5,64.5C 211.334,68.5138 211.501,72.5138 212,76.5C 212.708,77.3805 213.542,78.0472 214.5,78.5C 218.298,79.4834 222.298,79.8168 226.5,79.5C 226.5,83.1667 226.5,86.8333 226.5,90.5C 228.099,90.7678 229.432,90.4345 230.5,89.5C 231.373,85.8789 232.039,82.2122 232.5,78.5C 235.833,78.5 239.167,78.5 242.5,78.5C 242.5,76.8333 242.5,75.1667 242.5,73.5C 243.833,73.5 245.167,73.5 246.5,73.5C 246.5,84.8333 246.5,96.1667 246.5,107.5C 245.5,107.5 244.5,107.5 243.5,107.5C 191.689,100.042 139.689,98.5418 87.5,103C 75.7058,104.327 64.0391,106.16 52.5,108.5C 52.5,97.5 52.5,86.5 52.5,75.5C 56.8333,75.5 61.1667,75.5 65.5,75.5C 66.479,92.6464 67.3124,92.6464 68,75.5C 69.708,73.4565 71.708,71.7899 74,70.5C 74.3333,66.1667 74.6667,61.8333 75,57.5C 77.367,54.0682 80.0337,53.7348 83,56.5C 83.1687,63.8559 83.6687,71.1892 84.5,78.5C 85.4922,74.2172 85.8256,69.8839 85.5,65.5C 88.8333,65.5 92.1667,65.5 95.5,65.5C 95.5,69.5 95.5,73.5 95.5,77.5C 98.6248,78.4794 101.958,78.8128 105.5,78.5C 105.5,65.5 105.5,52.5 105.5,39.5 Z"/></g>
<g><path style="opacity:1" fill="#8f88a8" d="M 214.5,78.5 C 218.833,78.5 223.167,78.5 227.5,78.5C 227.5,82.1667 227.5,85.8333 227.5,89.5C 228.5,89.5 229.5,89.5 230.5,89.5C 229.432,90.4345 228.099,90.7678 226.5,90.5C 226.5,86.8333 226.5,83.1667 226.5,79.5C 222.298,79.8168 218.298,79.4834 214.5,78.5 Z"/></g>
<g><path style="opacity:1" fill="#a9a4bb" d="M 182.5,63.5 C 182.5,73.1667 182.5,82.8333 182.5,92.5C 181.5,92.5 180.5,92.5 179.5,92.5C 179.5,89.1667 179.5,85.8333 179.5,82.5C 180.319,85.3054 180.819,88.3054 181,91.5C 181.17,81.991 181.67,72.6577 182.5,63.5 Z"/></g>
<g><path style="opacity:1" fill="#615784" d="M 105.5,39.5 C 105.5,52.5 105.5,65.5 105.5,78.5C 101.958,78.8128 98.6248,78.4794 95.5,77.5C 98.5,77.5 101.5,77.5 104.5,77.5C 104.171,64.6557 104.505,51.989 105.5,39.5 Z"/></g>
<g><path style="opacity:1" fill="#252525" d="M 100.5,221.5 C 99.8333,222.833 98.8333,223.833 97.5,224.5C 97.5,222.5 98.5,221.5 100.5,221.5 Z"/></g>
<g><path style="opacity:1" fill="#fafafa" d="M 100.5,221.5 C 105.543,226.031 111.043,230.031 117,233.5C 117.494,235.134 117.66,236.801 117.5,238.5C 117.793,244.675 119.459,250.342 122.5,255.5C 120.521,258.146 118.188,260.479 115.5,262.5C 110.309,261.389 105.809,259.055 102,255.5C 96.9103,248.231 94.2436,240.231 94,231.5C 95.1932,229.114 96.3599,226.78 97.5,224.5C 98.8333,223.833 99.8333,222.833 100.5,221.5 Z"/></g>
<g><path style="opacity:0.012" fill="#fafbfa" d="M 235.5,236.5 C 235.833,236.5 236.167,236.5 236.5,236.5C 236.315,237.17 235.981,237.17 235.5,236.5 Z"/></g>
<g><path style="opacity:0.012" fill="#fafbfa" d="M 234.5,237.5 C 234.833,237.5 235.167,237.5 235.5,237.5C 235.315,238.17 234.981,238.17 234.5,237.5 Z"/></g>
<g><path style="opacity:0.012" fill="#fafbfa" d="M 230.5,242.5 C 230.833,242.5 231.167,242.5 231.5,242.5C 231.315,243.17 230.981,243.17 230.5,242.5 Z"/></g>
<g><path style="opacity:0.012" fill="#fafbfa" d="M 229.5,243.5 C 229.833,243.5 230.167,243.5 230.5,243.5C 230.315,244.17 229.981,244.17 229.5,243.5 Z"/></g>
<g><path style="opacity:1" fill="#3c3c3c" d="M 117.5,238.5 C 117.833,238.5 118.167,238.5 118.5,238.5C 119.526,244.255 121.193,249.922 123.5,255.5C 123.167,255.5 122.833,255.5 122.5,255.5C 119.459,250.342 117.793,244.675 117.5,238.5 Z"/></g>
<g><path style="opacity:0.012" fill="#fafbfa" d="M 228.5,244.5 C 228.833,244.5 229.167,244.5 229.5,244.5C 229.315,245.17 228.981,245.17 228.5,244.5 Z"/></g>
<g><path style="opacity:1" fill="#414141" d="M 188.5,244.5 C 189.685,249.425 190.351,254.425 190.5,259.5C 189.833,260.167 189.167,260.833 188.5,261.5C 188.666,257.486 188.499,253.486 188,249.5C 187.764,247.881 186.931,246.881 185.5,246.5C 186.29,245.599 187.29,244.932 188.5,244.5 Z"/></g>
<g><path style="opacity:1" fill="#fbfbfb" d="M 185.5,246.5 C 186.931,246.881 187.764,247.881 188,249.5C 188.499,253.486 188.666,257.486 188.5,261.5C 184.461,266.867 179.128,270.2 172.5,271.5C 166.039,273.78 159.373,274.78 152.5,274.5C 150.52,272.105 149.187,269.271 148.5,266C 151.67,263.659 154.67,261.159 157.5,258.5C 162.141,256.24 165.141,252.573 166.5,247.5C 172.822,246.986 179.155,246.653 185.5,246.5 Z"/></g>
<g><path style="opacity:0.012" fill="#fafbfa" d="M 224.5,249.5 C 224.833,249.5 225.167,249.5 225.5,249.5C 225.315,250.17 224.981,250.17 224.5,249.5 Z"/></g>
<g><path style="opacity:0.012" fill="#fafbfa" d="M 223.5,250.5 C 223.833,250.5 224.167,250.5 224.5,250.5C 224.315,251.17 223.981,251.17 223.5,250.5 Z"/></g>
<g><path style="opacity:0.012" fill="#fafbfa" d="M 222.5,251.5 C 222.833,251.5 223.167,251.5 223.5,251.5C 223.315,252.17 222.981,252.17 222.5,251.5 Z"/></g>
<g><path style="opacity:0.012" fill="#fafbfa" d="M 221.5,252.5 C 221.833,252.5 222.167,252.5 222.5,252.5C 222.315,253.17 221.981,253.17 221.5,252.5 Z"/></g>
<g><path style="opacity:0.012" fill="#fafbfa" d="M 220.5,253.5 C 220.833,253.5 221.167,253.5 221.5,253.5C 221.315,254.17 220.981,254.17 220.5,253.5 Z"/></g>
<g><path style="opacity:0.012" fill="#fafbfa" d="M 219.5,254.5 C 219.833,254.5 220.167,254.5 220.5,254.5C 220.315,255.17 219.981,255.17 219.5,254.5 Z"/></g>
<g><path style="opacity:0.012" fill="#fafbfa" d="M 218.5,255.5 C 218.833,255.5 219.167,255.5 219.5,255.5C 219.315,256.17 218.981,256.17 218.5,255.5 Z"/></g>
<g><path style="opacity:1" fill="#474747" d="M 165.5,244.5 C 166.404,245.209 166.737,246.209 166.5,247.5C 165.141,252.573 162.141,256.24 157.5,258.5C 161.736,254.69 164.403,250.023 165.5,244.5 Z"/></g>
<g><path style="opacity:0.012" fill="#fafbfa" d="M 217.5,256.5 C 217.833,256.5 218.167,256.5 218.5,256.5C 218.315,257.17 217.981,257.17 217.5,256.5 Z"/></g>
<g><path style="opacity:0.012" fill="#fafbfa" d="M 216.5,257.5 C 216.833,257.5 217.167,257.5 217.5,257.5C 217.315,258.17 216.981,258.17 216.5,257.5 Z"/></g>
<g><path style="opacity:0.012" fill="#fafbfa" d="M 210.5,262.5 C 210.833,262.5 211.167,262.5 211.5,262.5C 211.315,263.17 210.981,263.17 210.5,262.5 Z"/></g>
<g><path style="opacity:1" fill="#e5e5e5" d="M 107.5,262.5 C 107.56,261.957 107.893,261.624 108.5,261.5C 111.172,262.501 113.839,263.501 116.5,264.5C 117.971,267.136 119.637,269.636 121.5,272C 119.721,271.956 118.055,271.289 116.5,270C 113.335,267.665 110.335,265.165 107.5,262.5 Z"/></g>
<g><path style="opacity:0.012" fill="#fafbfa" d="M 209.5,263.5 C 209.833,263.5 210.167,263.5 210.5,263.5C 210.315,264.17 209.981,264.17 209.5,263.5 Z"/></g>
<g><path style="opacity:0.012" fill="#fafbfa" d="M 208.5,264.5 C 208.833,264.5 209.167,264.5 209.5,264.5C 209.315,265.17 208.981,265.17 208.5,264.5 Z"/></g>
<g><path style="opacity:0.012" fill="#fafbfa" d="M 207.5,265.5 C 207.833,265.5 208.167,265.5 208.5,265.5C 208.315,266.17 207.981,266.17 207.5,265.5 Z"/></g>
<g><path style="opacity:0.012" fill="#fafbfa" d="M 203.5,268.5 C 203.833,268.5 204.167,268.5 204.5,268.5C 204.315,269.17 203.981,269.17 203.5,268.5 Z"/></g>
<g><path style="opacity:0.012" fill="#fafbfa" d="M 202.5,269.5 C 202.833,269.5 203.167,269.5 203.5,269.5C 203.315,270.17 202.981,270.17 202.5,269.5 Z"/></g>
<g><path style="opacity:0.012" fill="#fafbfa" d="M 201.5,270.5 C 201.833,270.5 202.167,270.5 202.5,270.5C 202.315,271.17 201.981,271.17 201.5,270.5 Z"/></g>
<g><path style="opacity:0.004" fill="#e9e9e9" d="M 199.5,272.5 C 199.5,272.167 199.5,271.833 199.5,271.5C 200.167,271.5 200.833,271.5 201.5,271.5C 201.158,272.338 200.492,272.672 199.5,272.5 Z"/></g>
<g><path style="opacity:0.012" fill="#fafbfa" d="M 198.5,272.5 C 198.833,272.5 199.167,272.5 199.5,272.5C 199.315,273.17 198.981,273.17 198.5,272.5 Z"/></g>
<g><path style="opacity:1" fill="#373737" d="M 172.5,271.5 C 172.737,272.791 172.404,273.791 171.5,274.5C 171.265,273.903 170.765,273.57 170,273.5C 164.312,275.259 158.479,275.925 152.5,275.5C 152.5,275.167 152.5,274.833 152.5,274.5C 159.373,274.78 166.039,273.78 172.5,271.5 Z"/></g>
<g><path style="opacity:0.012" fill="#fafbfa" d="M 197.5,273.5 C 197.833,273.5 198.167,273.5 198.5,273.5C 198.315,274.17 197.981,274.17 197.5,273.5 Z"/></g>
<g><path style="opacity:0.004" fill="#e9e9e9" d="M 195.5,275.5 C 195.5,275.167 195.5,274.833 195.5,274.5C 196.167,274.5 196.833,274.5 197.5,274.5C 197.158,275.338 196.492,275.672 195.5,275.5 Z"/></g>
<g><path style="opacity:1" fill="#dadadb" d="M 171.5,274.5 C 163.862,279.403 155.529,281.07 146.5,279.5C 147.728,276.929 149.728,275.595 152.5,275.5C 158.479,275.925 164.312,275.259 170,273.5C 170.765,273.57 171.265,273.903 171.5,274.5 Z"/></g>
<g><path style="opacity:0.012" fill="#fafbfa" d="M 194.5,275.5 C 194.833,275.5 195.167,275.5 195.5,275.5C 195.315,276.17 194.981,276.17 194.5,275.5 Z"/></g>
<g><path style="opacity:0.012" fill="#fafbfa" d="M 193.5,276.5 C 193.833,276.5 194.167,276.5 194.5,276.5C 194.315,277.17 193.981,277.17 193.5,276.5 Z"/></g>
<g><path style="opacity:0.004" fill="#e9e9e9" d="M 191.5,278.5 C 191.5,278.167 191.5,277.833 191.5,277.5C 192.167,277.5 192.833,277.5 193.5,277.5C 193.158,278.338 192.492,278.672 191.5,278.5 Z"/></g>
<g><path style="opacity:0.012" fill="#fafbfa" d="M 190.5,278.5 C 190.833,278.5 191.167,278.5 191.5,278.5C 191.315,279.17 190.981,279.17 190.5,278.5 Z"/></g>
<g><path style="opacity:0.004" fill="#e9e9e9" d="M 188.5,280.5 C 188.5,280.167 188.5,279.833 188.5,279.5C 189.167,279.5 189.833,279.5 190.5,279.5C 190.158,280.338 189.492,280.672 188.5,280.5 Z"/></g>
<g><path style="opacity:0.012" fill="#fafbfa" d="M 187.5,280.5 C 187.833,280.5 188.167,280.5 188.5,280.5C 188.315,281.17 187.981,281.17 187.5,280.5 Z"/></g>
<g><path style="opacity:0.004" fill="#e9e9e9" d="M 185.5,282.5 C 185.5,282.167 185.5,281.833 185.5,281.5C 186.167,281.5 186.833,281.5 187.5,281.5C 187.158,282.338 186.492,282.672 185.5,282.5 Z"/></g>
<g><path style="opacity:0.012" fill="#fafbfa" d="M 184.5,282.5 C 184.833,282.5 185.167,282.5 185.5,282.5C 185.315,283.17 184.981,283.17 184.5,282.5 Z"/></g>
<g><path style="opacity:0.004" fill="#e9e9e9" d="M 182.5,284.5 C 182.5,284.167 182.5,283.833 182.5,283.5C 183.167,283.5 183.833,283.5 184.5,283.5C 184.158,284.338 183.492,284.672 182.5,284.5 Z"/></g>
<g><path style="opacity:0.012" fill="#fafbfa" d="M 180.5,285.5 C 180.5,285.167 180.5,284.833 180.5,284.5C 181.167,284.5 181.833,284.5 182.5,284.5C 182.158,285.338 181.492,285.672 180.5,285.5 Z"/></g>
<g><path style="opacity:0.012" fill="#fafbfa" d="M 179.5,285.5 C 179.833,285.5 180.167,285.5 180.5,285.5C 180.315,286.17 179.981,286.17 179.5,285.5 Z"/></g>
<g><path style="opacity:0.004" fill="#e9e9e9" d="M 177.5,287.5 C 177.5,287.167 177.5,286.833 177.5,286.5C 178.167,286.5 178.833,286.5 179.5,286.5C 179.158,287.338 178.492,287.672 177.5,287.5 Z"/></g>
<g><path style="opacity:0.012" fill="#fafbfa" d="M 175.5,288.5 C 175.5,288.167 175.5,287.833 175.5,287.5C 176.167,287.5 176.833,287.5 177.5,287.5C 177.158,288.338 176.492,288.672 175.5,288.5 Z"/></g>
<g><path style="opacity:0.012" fill="#fafbfa" d="M 174.5,288.5 C 174.833,288.5 175.167,288.5 175.5,288.5C 175.315,289.17 174.981,289.17 174.5,288.5 Z"/></g>
<g><path style="opacity:0.004" fill="#e9e9e9" d="M 172.5,290.5 C 172.5,290.167 172.5,289.833 172.5,289.5C 173.167,289.5 173.833,289.5 174.5,289.5C 174.158,290.338 173.492,290.672 172.5,290.5 Z"/></g>
<g><path style="opacity:0.004" fill="#e9e9e9" d="M 170.5,291.5 C 170.5,291.167 170.5,290.833 170.5,290.5C 171.167,290.5 171.833,290.5 172.5,290.5C 172.158,291.338 171.492,291.672 170.5,291.5 Z"/></g>
<g><path style="opacity:0.004" fill="#e9e9e9" d="M 168.5,292.5 C 168.5,292.167 168.5,291.833 168.5,291.5C 169.167,291.5 169.833,291.5 170.5,291.5C 170.158,292.338 169.492,292.672 168.5,292.5 Z"/></g>
<g><path style="opacity:0.012" fill="#fafbfa" d="M 166.5,293.5 C 166.5,293.167 166.5,292.833 166.5,292.5C 167.167,292.5 167.833,292.5 168.5,292.5C 168.158,293.338 167.492,293.672 166.5,293.5 Z"/></g>
<g><path style="opacity:0.012" fill="#fafbfa" d="M 164.5,294.5 C 164.5,294.167 164.5,293.833 164.5,293.5C 165.167,293.5 165.833,293.5 166.5,293.5C 166.158,294.338 165.492,294.672 164.5,294.5 Z"/></g>
<g><path style="opacity:0.012" fill="#fafbfa" d="M 162.5,295.5 C 162.5,295.167 162.5,294.833 162.5,294.5C 163.167,294.5 163.833,294.5 164.5,294.5C 164.158,295.338 163.492,295.672 162.5,295.5 Z"/></g>
<g><path style="opacity:0.012" fill="#fafbfa" d="M 160.5,296.5 C 160.5,296.167 160.5,295.833 160.5,295.5C 161.167,295.5 161.833,295.5 162.5,295.5C 162.158,296.338 161.492,296.672 160.5,296.5 Z"/></g>
<g><path style="opacity:0.004" fill="#e9e9e9" d="M 158.5,297.5 C 158.5,297.167 158.5,296.833 158.5,296.5C 159.167,296.5 159.833,296.5 160.5,296.5C 160.158,297.338 159.492,297.672 158.5,297.5 Z"/></g>
<g><path style="opacity:0.012" fill="#f4f4f4" d="M 155.5,298.5 C 155.5,298.167 155.5,297.833 155.5,297.5C 156.5,297.5 157.5,297.5 158.5,297.5C 157.791,298.404 156.791,298.737 155.5,298.5 Z"/></g>
<g><path style="opacity:0.012" fill="#fafbfa" d="M 144.5,299.5 C 144.842,298.662 145.508,298.328 146.5,298.5C 146.5,298.833 146.5,299.167 146.5,299.5C 145.833,299.5 145.167,299.5 144.5,299.5 Z"/></g>
<g><path style="opacity:0.012" fill="#fafbfa" d="M 153.5,299.5 C 153.5,299.167 153.5,298.833 153.5,298.5C 154.167,298.5 154.833,298.5 155.5,298.5C 155.5,298.833 155.5,299.167 155.5,299.5C 154.833,299.5 154.167,299.5 153.5,299.5 Z"/></g>
</svg>
