<?xml version="1.0" encoding="UTF-8"?>
<svg id="Camada_1" xmlns="http://www.w3.org/2000/svg" version="1.1" viewBox="0 0 1000 1000">
  <!-- Generator: Adobe Illustrator 29.1.0, SVG Export Plug-In . SVG Version: 2.1.0 Build 142)  -->
  <defs>
    <style>
      .st0 {
        fill: #f6a123;
      }

      .st1 {
        fill: #971a32;
      }

      .st2 {
        fill: #fff;
      }

      .st3 {
        fill: #010101;
      }
    </style>
  </defs>
  <g id="b">
    <g id="c">
      <path class="st3" d="M938.73,329.36c-35.18-38.75-112.98-70.35-213.15-89.43.6-11.63,7.45-16.4,19.97-25.04,6.26-4.47,13.71-9.84,21.46-16.69,32.49-30.71-5.66-77.51-7.15-79.89l-20.87-25.64,5.07,32.49c3.28,22.06-4.77,30.11-29.22,47.1-2.98,2.09-5.96,4.47-8.05,6.86,1.19-14.91,1.79-31.6-3.28-52.47-5.07-20.87-15.2-29.51-15.2-29.51l-2.68,30.11c0,.3-2.09,23.55-33.39,51.87,2.68-2.98,5.37-5.96,7.45-9.54,15.2-22.06,10.73-47.7,5.96-76.91l-1.19-5.96c-5.37-30.41,2.98-49.49,8.35-53.06,5.37-6.26,15.2-16.69,15.2-16.69,0,0-5.37-2.38-20.57-.6-19.38,2.68-52.47,14.31-51.57,41.14.3,11.63,4.17,22.95,7.45,32.79,3.58,10.43,6.86,20.57,3.88,25.64-2.38,4.17-9.84,7.15-21.17,9.54-45.91,8.35-81.09,29.81-99.27,60.82-5.96,10.14-9.84,21.17-11.92,32.49-114.18.3-222.39,14.61-306.16,40.54-93.91,29.22-145.78,68.86-149.65,114.48-2.09,24.15,8.65,58.73,69.16,92.41l-.3.6,17.29,8.35h0l9.24,4.47h0c27.72,12.52,60.52,23.25,96.59,31.9-13.12,7.15-25.04,15.8-35.48,25.34-58.43,48-92.12,119.25-92.12,194.97,0,67.37,26.23,130.87,73.93,178.57,47.7,47.7,111.2,73.93,178.57,73.93,119.54,0,223.29-84.66,247.14-201.23,20.57-61.11,17.89-126.4,17.29-151.14-2.09-56.05,25.64-87.05,42.93-101.06,79.89-9.84,150.25-27.43,203.01-50.98h0l8.65-4.17h0l18.18-8.65-.6-.6c42.33-23.55,65.88-51.28,68.57-80.79,1.19-19.08-6.26-38.16-22.36-56.34M856.45,378.55c7.15,8.05,6.56,13.12,6.56,14.61-.89,9.24-12.22,19.97-31.3,30.11h0c-40.25,21.17-109.11,37.26-191.39,45.31,3.58-2.09,7.45-4.47,11.92-5.96l1.49-.6c23.55-9.84,50.38-20.57,51.57-59.62.3-5.96.6-25.34,3.88-32.2,4.47-8.94,15.8-22.06,25.64-25.64.3,0-16.69-3.28-16.69-3.28-.89,0-1.79,0-2.38-.3,5.66-4.17,9.84-8.94,12.52-14.01,66.78,14.01,111.79,33.09,128.19,51.57M135.61,388.09c2.68-32.2,118.95-74.83,306.46-81.38-17.59,13.12-37.86,35.77-43.23,72.74l-2.09,13.71c-1.19,8.65-2.68,17.29-5.96,25.94-7.15,18.78-27.72,34.58-49.19,46.51-75.72-9.54-138.62-25.64-175.59-45.31h0c-19.97-11.03-31.3-22.66-30.41-32.2"/>
      <path class="st1" d="M112.36,750.3c6.56,33.39,25.64,73.04,63.5,99.57,11.33,8.05,23.85,14.31,37.26,19.38-8.05-13.71-17.89-28.02-27.43-42.03-17.89-26.53-36.97-54.26-48.59-83.77-12.22-30.71-15.5-62.6-10.14-94.8-9.84,25.94-14.91,54.26-14.91,84.07-.6,5.66-.3,11.33.3,17.59"/>
      <path class="st1" d="M153.2,736.59c11.03,28.02,29.51,54.55,46.8,80.79,13.71,19.97,26.83,39.65,36.97,59.32,11.03,2.38,22.66,4.17,34.28,5.07-12.22-17.29-22.66-36.97-31.6-59.32-34.88-87.05-29.81-194.97,13.71-257.27,22.36-32.2,49.19-53.96,84.07-73.04,29.51-16.4,48.29-21.17,67.37-32.49,20.57-12.22,31.6-32.79,17.89-78.7-3.88-13.71-4.77-24.15-3.88-32.49-4.77,9.24-8.35,19.68-9.84,31.9h0c-2.09,13.12-2.98,27.43-8.65,41.74-18.18,47.7-106.13,73.93-117.75,77.51-33.39,9.84-60.22,25.64-81.09,44.12-61.11,53.96-71.85,134.45-48.29,192.88"/>
      <path class="st1" d="M520.48,306.11c.89,2.98,1.79,5.96,2.09,8.65,2.09,16.69-2.68,30.11-23.25,33.39-21.17,3.28-28.32-14.91-29.81-29.81-.3-5.37.3-9.54.6-12.22-3.58,0-6.86,0-10.43.3-6.56,3.88-15.5,9.84-23.85,18.18-4.17,9.24-9.24,21.46-1.49,50.68,13.71,51.57,7.75,82.58-33.39,100.46-52.77,22.66-86.45,36.07-131.77,92.71-21.76,27.13-33.39,71.85-35.18,116.86-2.09,43.82,7.15,90.63,22.36,128.78,10.14,25.64,22.36,48,36.67,66.78,14.01-.6,28.62-2.38,42.63-5.66-15.8-18.18-24.74-40.84-26.23-65.88-5.37-83.77,39.65-118.65,108.81-174.4l31-25.94c123.72-104.94,87.65-211.66,101.06-302.88-9.54.6-19.68.3-29.81,0"/>
      <path class="st1" d="M569.96,307.9c-3.88,18.18-5.66,37.26-6.56,56.94-5.07,79.6-2.38,169.33-103.15,258.46l-30.41,24.74c-67.37,53.96-105.83,87.65-103.15,160.98.89,24.15,11.03,45.31,28.32,62.01,18.78-5.66,37.56-13.71,55.45-23.85,87.65-49.49,142.5-124.01,163.66-218.81,13.42-60.22,13.12-109.11,12.82-148.46,0-19.97,2.38-59.03,2.38-59.03,2.68-24.74,6.56-59.03,35.18-104.64.89-1.49,2.09-2.98,2.68-4.47-18.18-1.49-37.26-2.98-57.24-3.88"/>
      <path class="st1" d="M599.48,563.38h0c-2.68,14.31-3.58,30.41-5.37,46.21-.89,5.96-1.79,11.92-2.38,17.89-.3,1.79-.6,3.28-1.19,4.77-22.06,100.46-79.3,178.27-171.12,230.44-15.8,8.94-31.9,16.4-48,22.06,26.83,17.89,58.43,23.25,80.19,20.27,82.58-12.52,122.82-66.18,142.2-124.01,19.97-59.03,17.89-122.23,16.99-148.16-3.28-87.35,64.09-119.54,64.09-119.54-52.47-2.98-69.76,19.97-75.42,50.08"/>
      <path class="st1" d="M544.33,885.05c-33.69,28.32-70.06,34.28-86.75,36.97-32.49,5.07-70.95-2.68-104.94-29.51-.6-.6-1.19-.89-1.79-1.49-14.61,3.88-29.22,6.26-43.82,7.75,33.39,35.77,76.91,56.05,136.24,60.22h.89c39.95-15.8,74.83-41.44,101.36-74.83-.4.4-.79.7-1.19.89"/>
      <path class="st1" d="M237.27,944.97c.6-18.18-4.47-36.67-13.12-54.55-20.27-5.96-39.95-14.31-59.03-25.94-10.73-6.56-20.57-16.4-28.92-25.64h0c22.06,45.02,57.54,81.98,101.06,106.13h0Z"/>
      <path class="st1" d="M405.41,970.31c-33.09-7.45-61.11-19.38-85.56-37.86-12.82-9.84-24.15-20.57-34.58-32.79-13.42-.3-26.53-1.49-39.65-3.88,7.15,18.78,11.03,37.86,8.65,57.83h0c30.71,14.01,64.99,21.76,101.06,21.76,17.59,0,34.28-2.09,50.68-5.37-.2.2-.4.3-.6.3"/>
      <path class="st1" d="M688.32,372c-5.66,18.78-24.45,16.69-29.51,6.26-8.65-16.1-5.37-28.62,3.58-37.26,8.94-8.65,23.55-13.12,37.56-19.38h.3c-16.4-2.68-33.69-5.37-52.47-7.45l-.89.89c-1.79,2.09-3.28,3.58-5.07,5.66-29.51,44.12-33.09,76.91-36.07,101.95l-.89,7.75c-1.79,13.42-1.79,29.81-1.49,49.19v8.05c-.3,6.56-.6,13.42-.89,19.97h.3c.3-2.68.3-3.58.3-2.09,8.35-26.23,23.55-42.63,45.31-51.28,23.25-9.54,46.21-17.89,47.4-51.87.6-14.01,1.49-28.32,4.77-35.48,5.96-13.12,16.4-16.69,16.4-16.69-10.73-.89-22.95,3.88-28.62,21.76"/>
      <path class="st0" d="M716.64,238.14c1.79-22.66,22.95-26.83,43.82-46.51,26.53-25.34-8.05-67.37-8.05-67.37,4.47,28.32-8.94,39.05-32.79,56.05-7.45,5.37-13.12,12.82-13.71,22.06-.89,10.43-1.79,21.76-3.88,33.39,4.77.89,9.54,1.79,14.61,2.38"/>
      <path class="st0" d="M643.3,198.79c-6.26,4.77-12.52,9.84-17.89,14.61-3.88,3.88-7.75,7.45-11.33,11.33,23.25,2.09,45.91,4.77,67.97,7.75,13.71-25.64,20.87-54.26,12.52-103.74-.3.3-2.38,33.69-51.28,70.06"/>
      <path class="st0" d="M512.73,219.96c26.53.3,53.06,1.49,78.4,2.98.89-.89,1.79-1.79,2.38-2.38,17.29-18.18,43.82-33.98,57.83-54.55,14.01-20.87,8.65-45.91,3.28-76.62-9.24-52.77,13.42-62.6,13.42-62.6,0,0-44.72,5.96-43.82,31.9,1.19,34.58,36.97,67.08-16.69,76.91-59.03,10.73-95.69,42.63-103.74,84.37h8.94"/>
      <path class="st2" d="M512.43,233.97c-246.84-2.38-452.83,61.11-459.99,142.5-2.68,32.49,26.23,62.31,77.81,87.35,31.9,15.2,72.74,28.62,119.54,38.75,9.54-4.17,19.08-8.05,29.51-11.03,8.05-2.38,23.25-7.45,39.95-14.61-69.16-9.84-124.91-25.64-159.79-44.42-25.64-13.71-39.05-29.22-37.56-45.31,4.77-54.26,177.68-96.89,386.06-94.8,208.38,2.09,373.54,48,368.77,102.25-1.49,14.61-14.91,28.92-38.75,41.14-43.52,22.95-120.44,40.54-214.05,48.89-3.28,4.47-5.96,9.54-8.35,14.91,42.33-16.1,91.52,7.75,91.52,7.75,0,0,3.28,1.49,5.66,2.68,62.01-11.03,115.37-26.83,155.32-45.61,47.1-22.36,76.02-49.49,78.4-79,7.45-81.38-187.21-149.06-434.05-151.44"/>
    </g>
  </g>
</svg>