<?xml version="1.0" encoding="utf-8"?>
<!-- Generator: Adobe Illustrator 23.0.1, SVG Export Plug-In . SVG Version: 6.00 Build 0)  -->
<svg version="1.1" id="Layer_1" xmlns="http://www.w3.org/2000/svg" xmlns:xlink="http://www.w3.org/1999/xlink" x="0px" y="0px"
	 viewBox="0 0 600 600" style="enable-background:new 0 0 600 600;" xml:space="preserve">
<style type="text/css">
	.st0{fill:#FFFFFF;}
	.st1{fill:#182983;}
	.st2{fill:#316F2D;}
	.st3{fill:#1687C8;}
	.st4{fill:#B02430;}
	.st5{fill:#1D8BCA;}
	.st6{fill:#1989C9;}
	.st7{fill:#1A8AC9;}
	.st8{fill:#1888C9;}
	.st9{fill:#1C8ACA;}
	.st10{fill:#218DCB;}
	.st11{fill:#B63540;}
	.st12{fill:#172983;}
	.st13{fill:#489425;}
	.st14{fill:#FEFEFE;}
</style>
<g>
	<g>
		<path d="M302.93,594.65c-46.28,0-87.45-15.12-122.36-44.95c-27.82-23.77-51.71-56.86-71-98.36
			c-32.22-69.28-40.78-139.5-41.13-142.46c-9.37-53.55-18.73-150.55-22.25-187.07C44.16,100.84,50,69.62,72.47,44.88
			c21.75-23.95,54.64-36.61,95.13-36.61h275.44c34.93,0,65.86,12.84,87.09,36.15c20.21,22.19,30.23,51.84,27.47,81.35
			c-0.13,1.35-13.33,134.39-20.11,173.68c-0.28,1.65-0.61,3.67-1,6.02c-4.44,27.16-16.22,99.29-50.03,164.61
			C443.68,552.74,381.93,594.65,302.93,594.65z"/>
		<path class="st0" d="M167.59,13.88c-38.86,0-70.32,12.02-90.97,34.77c-21.23,23.38-26.76,52.84-24.85,72.62
			c3.52,36.49,12.88,133.4,22.21,186.72l0.02,0.17c0.08,0.71,8.3,71.31,40.71,140.93c43.22,92.86,106.54,139.94,188.22,139.94
			c82.81,0,189.6-49.35,228.01-284.47c0.39-2.37,0.72-4.41,1.01-6.07c6.75-39.1,19.92-171.93,20.06-173.27
			c2.61-27.92-6.88-56.01-26.03-77.03c-14.26-15.65-40.23-34.31-82.95-34.31H167.59z"/>
	</g>
	<g>
		<path class="st1" d="M79.67,307.62c0,0,29.64,275.01,222.07,275.01c184.74,0,216.52-245.37,223.11-283.8
			s15.37-115.28,20.31-168.52L79.67,307.62z"/>
		<path class="st2" d="M78.69,308.05c-8.78-50.5-17.57-141.07-21.41-181.15S79.79,19.86,171.46,19.86s192.13,0,265.13,0
			S549.12,77.5,544.18,130.74c0,0-30.37,48.31-170.9,66.97c-47.06,6.25-42.33,28.27-80.14,41.72
			c-29.45,10.48-63.48-0.01-91.12,10.98C138.42,275.69,78.69,308.05,78.69,308.05z"/>
		<path class="st0" d="M267.76,211.89c0,0,10.16-1.92,14.55-2.47c4.39-0.55,10.7,0,16.47-1.92c5.76-1.92,15.92-6.86,23.88-12.35
			c7.96-5.49,9.61-7.41,13.17-8.78c3.57-1.37,7.96,0.82,10.16-1.92c2.2-2.74,2.47-10.98,0-11.8c-2.47-0.82-8.78,0-8.78,0
			s1.37-6.59-1.65-6.59s-2.2-1.37-2.47,1.65c-0.27,3.02-3.84,11.53-6.59,13.45c-2.74,1.92-11.25,2.2-16.74,4.94
			c-5.49,2.74-12.35,6.59-15.1,7.69c-2.74,1.1-26.62,0.55-30.47,0.55c-3.84,0-4.94-0.55-6.86-1.65c-1.92-1.1-2.47-6.04-1.65-6.86
			c0.82-0.82,3.84-2.74,3.57-4.12c-0.27-1.37-2.47-3.57-2.47-3.57s0.08-7.48-1.47-12.39c-1.55-4.9-5.94-16.43-21.59-16.43
			s-27.45,12.35-27.45,12.35s-6.31-9.33-11.25-12.35c-4.94-3.02-16.74-6.04-24.15-11.25c-7.41-5.21-15.64-22.78-15.64-22.78
			s-2.2,6.59-1.37,9.06c0.82,2.47,3.57,8.78,3.57,8.78s-3.11-0.27-3.75,1.1c-0.64,1.37-0.64,12.63,8.97,16.19s14.82,4.67,28,7.96
			c13.17,3.29,13.17,11.25,13.72,15.37c0.55,4.12,0,9.33,4.94,13.17c4.94,3.84,7.41,7.69,6.86,9.88c-0.55,2.2-6.59,1.65-8.51,3.29
			c-1.92,1.65-10.16,15.92-14,21.96s-12.35,18.39-15.1,22.51c-2.74,4.12-10.43,15.1-15.1,17.02c-4.67,1.92-11.53,0-16.19,3.84
			s-25.8,18.66-33.48,19.49s-17.02-2.74-23.33-1.1s-8.23,1.37-6.59,3.29c1.65,1.92,7.41,0.82,7.14,3.02
			c-0.27,2.2-3.32,3.84-7.7,5.49c-4.38,1.65-7.4,2.74-4.93,3.84c2.47,1.1,7.14-1.65,8.23,0c1.1,1.65-10.83,6.31-9.12,8.78
			c1.71,2.47,11.32-5.21,12.14-3.57s-8.23,7.14-6.31,8.78s12.63-6.59,13.72-4.94c1.1,1.65-4.67,8.23-2.47,9.06
			s10.16-6.86,15.37-12.08c5.21-5.21,15.37-11.25,26.35-14.55c10.98-3.29,36.5-10.43,42.54-15.92c6.04-5.49,10.7-12.9,14.55-14.82
			c3.84-1.92,13.05-4.39,19.15-3.02c6.1,1.37,20.65,20.58,27.51,22.51c6.86,1.92,15.1,3.02,20.86,6.31
			c5.76,3.29,17.29,18.94,20.86,19.21c3.57,0.27,2.47-1.37,6.59-1.65c4.12-0.27,12.08,6.04,20.04,5.49
			c7.96-0.55,12.9-1.92,18.11-7.69c5.21-5.76,15.64-13.72,18.11-15.92c2.47-2.2,1.1-9.88-1.65-12.63c-2.74-2.74-6.31-6.86-6.31-6.86
			l21.68-0.82c0,0,10.16,11.8,17.57,11.8c7.41,0,8.23-3.84,14-5.49s10.98,1.92,19.76-3.29c8.78-5.21,13.12-5.17,12.66-16.74
			c-0.27-6.86-26.65-4.39-30.77-4.39s-3.84-3.57-10.7,0.27c-6.86,3.84-11.53,2.74-18.11-2.2c-6.59-4.94-14-9.61-14-9.61
			s11.53-7.68,18.39-14.27c6.86-6.59,14-14,18.66-15.37c4.67-1.37,17.29-1.37,22.78-3.84s20.86-9.33,29.37-11.8
			s11.8-2.74,17.57-2.47c5.76,0.27,8.23,6.59,14.82,3.84c6.59-2.74,6.31-6.31,10.98-7.69c4.67-1.37,23.6-4.12,26.35-6.59
			c2.74-2.47,5.21-4.39,5.21-4.39s11.25,0.82,17.84-3.57c6.59-4.39,15.92-9.33,16.74-25.53c0.82-16.19-6.86-34.58-28.82-34.58
			s-33.48,16.47-33.21,29.92c0.27,13.45,9.61,23.33,9.61,23.33s-20.04-0.82-22.78,0c-2.74,0.82-7.68,8.23-10.16,9.06
			c-2.47,0.82-37.05,1.37-45.56,2.2s-32.94,7.96-36.78,8.51c-3.84,0.55-14.55,1.65-18.94,4.94c-4.39,3.29-28.27,17.84-33.48,20.86
			c-5.21,3.02-14.27,11.8-17.29,12.9s-9.88,1.65-11.8,4.39c-1.92,2.74-1.92,5.21-3.29,6.59c-1.37,1.37-12.35,3.02-15.37-0.82
			s0.27-7.68-2.47-10.7C274.35,217.38,267.76,211.89,267.76,211.89z"/>
	</g>
	<g>
		<path class="st0" d="M116.57,43.22h9.39l3.62,14.05l3.59-14.05h9.38v23.1h-5.84V48.71l-4.5,17.61h-5.29l-4.5-17.61v17.61h-5.84
			V43.22z"/>
		<path class="st0" d="M145.77,43.22h7.15v23.1h-7.15V43.22z"/>
		<path class="st0" d="M156.48,43.22h6.66l8.7,12.78V43.22h6.73v23.1h-6.73l-8.65-12.68v12.68h-6.71V43.22z"/>
		<path class="st0" d="M195.58,62.51h-8.1l-1.13,3.81h-7.29l8.68-23.1h7.78l8.68,23.1h-7.47L195.58,62.51z M194.1,57.51l-2.55-8.3
			l-2.52,8.3H194.1z"/>
		<path class="st0" d="M203.62,58.68l6.79-0.43c0.15,1.1,0.45,1.94,0.9,2.52c0.73,0.93,1.79,1.4,3.15,1.4c1.02,0,1.8-0.24,2.36-0.72
			c0.55-0.48,0.83-1.03,0.83-1.66c0-0.6-0.26-1.13-0.79-1.61c-0.53-0.47-1.74-0.92-3.65-1.34c-3.13-0.7-5.36-1.64-6.7-2.8
			c-1.34-1.17-2.02-2.65-2.02-4.46c0-1.19,0.34-2.31,1.03-3.36c0.69-1.06,1.72-1.89,3.1-2.49c1.38-0.6,3.27-0.91,5.68-0.91
			c2.95,0,5.2,0.55,6.75,1.65c1.55,1.1,2.47,2.84,2.77,5.24l-6.73,0.39c-0.18-1.04-0.55-1.8-1.13-2.27
			c-0.57-0.47-1.36-0.71-2.37-0.71c-0.83,0-1.45,0.18-1.87,0.53c-0.42,0.35-0.63,0.78-0.63,1.28c0,0.37,0.17,0.7,0.52,0.99
			c0.34,0.3,1.13,0.59,2.39,0.85c3.12,0.67,5.35,1.35,6.7,2.04c1.35,0.69,2.33,1.54,2.95,2.56c0.61,1.02,0.92,2.16,0.92,3.42
			c0,1.48-0.41,2.85-1.23,4.1s-1.96,2.2-3.43,2.84c-1.47,0.65-3.32,0.97-5.56,0.97c-3.93,0-6.65-0.76-8.16-2.27
			C204.67,62.93,203.82,61.01,203.62,58.68z"/>
		<path class="st0" d="M235.98,43.22h7.15v23.1h-7.15V43.22z"/>
		<path class="st0" d="M262.02,56.87l6.25,1.89c-0.42,1.75-1.08,3.22-1.99,4.4c-0.9,1.18-2.02,2.06-3.36,2.66
			c-1.34,0.6-3.04,0.9-5.11,0.9c-2.51,0-4.56-0.37-6.15-1.09c-1.59-0.73-2.96-2.01-4.12-3.85s-1.73-4.19-1.73-7.05
			c0-3.82,1.02-6.76,3.05-8.81c2.03-2.05,4.91-3.08,8.63-3.08c2.91,0,5.2,0.59,6.86,1.76c1.67,1.18,2.9,2.98,3.71,5.42l-6.3,1.4
			c-0.22-0.7-0.45-1.22-0.69-1.54c-0.4-0.55-0.89-0.97-1.47-1.26c-0.58-0.29-1.22-0.44-1.94-0.44c-1.62,0-2.86,0.65-3.72,1.95
			c-0.65,0.97-0.98,2.48-0.98,4.55c0,2.56,0.39,4.31,1.17,5.26c0.78,0.95,1.87,1.42,3.28,1.42c1.37,0,2.4-0.38,3.1-1.15
			C261.19,59.44,261.7,58.33,262.02,56.87z"/>
		<path class="st0" d="M270.11,43.22h19.13v4.93h-11.97v3.67h11.11v4.71h-11.11v4.55h12.32v5.23h-19.47V43.22z"/>
		<path class="st0" d="M290.57,58.68l6.79-0.43c0.15,1.1,0.45,1.94,0.9,2.52c0.73,0.93,1.79,1.4,3.15,1.4c1.02,0,1.8-0.24,2.36-0.72
			c0.55-0.48,0.83-1.03,0.83-1.66c0-0.6-0.26-1.13-0.79-1.61s-1.74-0.92-3.65-1.34c-3.13-0.7-5.36-1.64-6.7-2.8
			c-1.34-1.17-2.02-2.65-2.02-4.46c0-1.19,0.34-2.31,1.03-3.36c0.69-1.06,1.72-1.89,3.1-2.49c1.38-0.6,3.27-0.91,5.68-0.91
			c2.95,0,5.2,0.55,6.75,1.65c1.55,1.1,2.47,2.84,2.77,5.24l-6.73,0.39c-0.18-1.04-0.55-1.8-1.13-2.27
			c-0.57-0.47-1.36-0.71-2.37-0.71c-0.83,0-1.45,0.18-1.87,0.53c-0.42,0.35-0.63,0.78-0.63,1.28c0,0.37,0.17,0.7,0.52,0.99
			c0.34,0.3,1.13,0.59,2.39,0.85c3.12,0.67,5.35,1.35,6.7,2.04c1.35,0.69,2.33,1.54,2.95,2.56c0.61,1.02,0.92,2.16,0.92,3.42
			c0,1.48-0.41,2.85-1.23,4.1s-1.96,2.2-3.43,2.84c-1.47,0.65-3.32,0.97-5.56,0.97c-3.93,0-6.65-0.76-8.16-2.27
			C291.62,62.93,290.76,61.01,290.57,58.68z"/>
		<path class="st0" d="M313.47,43.22h11.86c2.58,0,4.52,0.61,5.81,1.84c1.29,1.23,1.93,2.98,1.93,5.25c0,2.33-0.7,4.15-2.1,5.47
			c-1.4,1.31-3.54,1.97-6.42,1.97h-3.91v8.57h-7.17V43.22z M320.63,53.07h1.75c1.38,0,2.34-0.24,2.9-0.72
			c0.56-0.48,0.83-1.09,0.83-1.84c0-0.72-0.24-1.34-0.72-1.84c-0.48-0.5-1.39-0.76-2.73-0.76h-2.03V53.07z"/>
		<path class="st0" d="M344.35,43.22h13.36c2.23,0,3.94,0.55,5.13,1.65c1.19,1.1,1.79,2.47,1.79,4.1c0,1.37-0.43,2.54-1.28,3.51
			c-0.57,0.65-1.4,1.17-2.49,1.54c1.66,0.4,2.88,1.08,3.66,2.06c0.78,0.97,1.17,2.19,1.17,3.66c0,1.2-0.28,2.27-0.83,3.23
			c-0.56,0.96-1.32,1.71-2.29,2.27c-0.6,0.35-1.5,0.6-2.71,0.76c-1.61,0.21-2.67,0.32-3.2,0.32h-12.32V43.22z M351.55,52.28h3.1
			c1.11,0,1.89-0.19,2.32-0.57c0.44-0.38,0.65-0.94,0.65-1.66c0-0.67-0.22-1.2-0.65-1.58c-0.44-0.38-1.19-0.57-2.28-0.57h-3.15
			V52.28z M351.55,61.36h3.64c1.23,0,2.1-0.22,2.6-0.65c0.5-0.44,0.76-1.02,0.76-1.76c0-0.68-0.25-1.23-0.75-1.65
			c-0.5-0.41-1.37-0.62-2.62-0.62h-3.62V61.36z"/>
		<path class="st0" d="M367.91,66.32v-23.1h11.89c2.21,0,3.89,0.19,5.06,0.57c1.17,0.38,2.11,1.08,2.82,2.1
			c0.72,1.02,1.07,2.27,1.07,3.74c0,1.28-0.27,2.39-0.82,3.32c-0.55,0.93-1.3,1.68-2.25,2.26c-0.61,0.37-1.45,0.67-2.51,0.91
			c0.85,0.28,1.47,0.57,1.86,0.85c0.26,0.19,0.64,0.59,1.14,1.21c0.5,0.62,0.83,1.1,1,1.44l3.46,6.69h-8.06l-3.82-7.06
			c-0.48-0.91-0.91-1.51-1.29-1.78c-0.52-0.36-1.1-0.54-1.75-0.54h-0.63v9.37H367.91z M375.08,52.58h3.01c0.33,0,0.96-0.1,1.89-0.32
			c0.47-0.09,0.86-0.34,1.16-0.72c0.3-0.39,0.45-0.83,0.45-1.34c0-0.75-0.24-1.32-0.71-1.72c-0.47-0.4-1.36-0.6-2.66-0.6h-3.14
			V52.58z"/>
		<path class="st0" d="M405.5,62.51h-8.1l-1.12,3.81h-7.29l8.68-23.1h7.78l8.68,23.1h-7.47L405.5,62.51z M404.02,57.51l-2.55-8.3
			l-2.52,8.3H404.02z"/>
		<path class="st0" d="M413.54,58.68l6.79-0.43c0.15,1.1,0.45,1.94,0.9,2.52c0.74,0.93,1.79,1.4,3.15,1.4c1.02,0,1.8-0.24,2.36-0.72
			c0.55-0.48,0.83-1.03,0.83-1.66c0-0.6-0.26-1.13-0.79-1.61c-0.52-0.47-1.74-0.92-3.65-1.34c-3.13-0.7-5.36-1.64-6.69-2.8
			c-1.34-1.17-2.02-2.65-2.02-4.46c0-1.19,0.34-2.31,1.03-3.36c0.69-1.06,1.72-1.89,3.1-2.49c1.38-0.6,3.27-0.91,5.68-0.91
			c2.95,0,5.2,0.55,6.75,1.65c1.55,1.1,2.47,2.84,2.77,5.24l-6.73,0.39c-0.18-1.04-0.55-1.8-1.13-2.27s-1.36-0.71-2.37-0.71
			c-0.83,0-1.45,0.18-1.87,0.53c-0.42,0.35-0.63,0.78-0.63,1.28c0,0.37,0.17,0.7,0.52,0.99c0.34,0.3,1.13,0.59,2.39,0.85
			c3.12,0.67,5.35,1.35,6.7,2.04c1.35,0.69,2.33,1.54,2.95,2.56c0.61,1.02,0.92,2.16,0.92,3.42c0,1.48-0.41,2.85-1.23,4.1
			c-0.82,1.25-1.96,2.2-3.43,2.84c-1.47,0.65-3.32,0.97-5.56,0.97c-3.93,0-6.65-0.76-8.16-2.27
			C414.6,62.93,413.74,61.01,413.54,58.68z"/>
		<path class="st0" d="M436.75,43.22h7.15v23.1h-7.15V43.22z M440.22,37.11h5.51l-5.09,4.71h-3.07L440.22,37.11z"/>
		<path class="st0" d="M447.42,43.22h7.14v17.41h11.14v5.69h-18.27V43.22z"/>
		<path class="st0" d="M467.61,43.22h7.15v23.1h-7.15V43.22z"/>
		<path class="st0" d="M492.46,62.51h-8.1l-1.12,3.81h-7.29l8.68-23.1h7.78l8.68,23.1h-7.47L492.46,62.51z M490.98,57.51l-2.55-8.3
			l-2.52,8.3H490.98z"/>
		<path class="st0" d="M250.86,99.93h-9.15l-2.77,5.1h-4.88l13.06-23.1h5.28l3.75,23.1h-4.51L250.86,99.93z M250.28,96.09l-1.34-9.3
			l-5.58,9.3H250.28z"/>
		<path class="st0" d="M258.15,97.55l4.52-0.24c0.06,1.44,0.31,2.41,0.74,2.91c0.69,0.82,1.97,1.23,3.84,1.23
			c1.55,0,2.68-0.28,3.37-0.83c0.69-0.56,1.04-1.23,1.04-2.02c0-0.68-0.28-1.26-0.85-1.73c-0.4-0.35-1.49-0.91-3.29-1.69
			c-1.79-0.78-3.1-1.43-3.92-1.95c-0.82-0.52-1.47-1.19-1.95-2.02s-0.71-1.8-0.71-2.91c0-1.94,0.7-3.55,2.11-4.84
			c1.41-1.28,3.44-1.92,6.11-1.92c2.71,0,4.81,0.64,6.29,1.91c1.49,1.27,2.3,2.96,2.45,5.07l-4.55,0.2c-0.12-1.1-0.51-1.95-1.2-2.54
			c-0.68-0.59-1.69-0.88-3.02-0.88c-1.31,0-2.25,0.23-2.81,0.69c-0.56,0.46-0.84,1.05-0.84,1.75c0,0.66,0.26,1.21,0.77,1.64
			c0.51,0.44,1.65,1.05,3.42,1.81c2.66,1.14,4.35,2.07,5.07,2.79c1.08,1.05,1.62,2.4,1.62,4.05c0,2.04-0.81,3.78-2.42,5.22
			c-1.61,1.44-3.86,2.17-6.73,2.17c-1.99,0-3.7-0.33-5.16-1c-1.45-0.67-2.48-1.59-3.08-2.78C258.38,100.46,258.11,99.1,258.15,97.55
			z"/>
		<path class="st0" d="M297.96,105.04h-4.51l-0.83-19.3l-3.67,19.3h-4.29l4.82-23.1h6.77l0.71,16.18l7.88-16.18h6.85l-4.84,23.1
			h-4.33l4.55-19.16L297.96,105.04z"/>
		<path class="st0" d="M309.74,105.04l4.84-23.1h4.74l-4.82,23.1H309.74z"/>
		<path class="st0" d="M335.76,105.04h-4.43l-6.24-15.52l-3.25,15.52h-4.43l4.82-23.1h4.44l6.26,15.45l3.23-15.45h4.41
			L335.76,105.04z"/>
		<path class="st0" d="M354.11,99.93h-9.15l-2.77,5.1h-4.88l13.06-23.1h5.28l3.75,23.1h-4.5L354.11,99.93z M353.52,96.09l-1.34-9.3
			l-5.58,9.3H353.52z"/>
		<path class="st0" d="M361.4,97.55l4.52-0.24c0.06,1.44,0.31,2.41,0.74,2.91c0.69,0.82,1.97,1.23,3.84,1.23
			c1.55,0,2.68-0.28,3.37-0.83c0.69-0.56,1.04-1.23,1.04-2.02c0-0.68-0.28-1.26-0.85-1.73c-0.4-0.35-1.49-0.91-3.29-1.69
			c-1.79-0.78-3.1-1.43-3.92-1.95c-0.82-0.52-1.47-1.19-1.95-2.02c-0.47-0.83-0.71-1.8-0.71-2.91c0-1.94,0.7-3.55,2.11-4.84
			s3.45-1.92,6.11-1.92c2.71,0,4.81,0.64,6.29,1.91c1.49,1.27,2.3,2.96,2.45,5.07l-4.55,0.2c-0.12-1.1-0.52-1.95-1.2-2.54
			c-0.68-0.59-1.69-0.88-3.02-0.88c-1.31,0-2.25,0.23-2.81,0.69s-0.84,1.05-0.84,1.75c0,0.66,0.26,1.21,0.77,1.64
			c0.51,0.44,1.65,1.05,3.42,1.81c2.66,1.14,4.35,2.07,5.07,2.79c1.08,1.05,1.62,2.4,1.62,4.05c0,2.04-0.81,3.78-2.42,5.22
			c-1.61,1.44-3.86,2.17-6.73,2.17c-1.99,0-3.7-0.33-5.16-1c-1.45-0.67-2.48-1.59-3.08-2.78C361.63,100.46,361.35,99.1,361.4,97.55z
			"/>
	</g>
	<g>
		<path class="st0" d="M275.68,536.96l-4.43-0.66c0.36-2.14,1.19-3.78,2.5-4.92c1.31-1.14,2.94-1.71,4.91-1.71
			c2.15,0,3.84,0.58,5.07,1.75c1.23,1.17,1.84,2.65,1.84,4.44c0,0.91-0.19,1.83-0.57,2.75c-0.38,0.92-1,1.88-1.86,2.89
			c-0.62,0.72-1.63,1.73-3.04,3.03c-1.41,1.31-2.34,2.2-2.8,2.68c-0.46,0.48-0.9,0.98-1.32,1.52h8l-0.85,4.13h-14.04
			c0.15-1.13,0.48-2.21,1-3.24c0.52-1.02,1.17-1.98,1.95-2.86c0.78-0.88,2.2-2.31,4.27-4.27c1.55-1.49,2.54-2.46,2.95-2.92
			c0.73-0.82,1.24-1.53,1.51-2.13c0.27-0.6,0.41-1.14,0.41-1.62c0-0.78-0.23-1.41-0.69-1.89c-0.46-0.48-1.04-0.72-1.74-0.72
			c-0.71,0-1.34,0.27-1.87,0.81C276.36,534.56,275.95,535.54,275.68,536.96z"/>
		<path class="st0" d="M285.57,545.34c0-2.32,0.39-4.67,1.18-7.06c0.97-2.91,2.21-5.07,3.72-6.49c1.51-1.42,3.19-2.13,5.04-2.13
			c1.87,0,3.41,0.68,4.61,2.03s1.8,3.32,1.8,5.91c0,2.36-0.44,4.86-1.31,7.49c-0.88,2.63-2.06,4.65-3.55,6.05
			c-1.49,1.4-3.17,2.1-5.04,2.1s-3.41-0.68-4.62-2.03C286.18,549.86,285.57,547.9,285.57,545.34z M290.01,546.25
			c0,1.24,0.2,2.11,0.6,2.62c0.4,0.5,0.91,0.76,1.54,0.76c0.84,0,1.59-0.39,2.24-1.17c0.87-1.04,1.64-3.09,2.32-6.14
			c0.54-2.43,0.8-4.35,0.8-5.77c0-1.15-0.2-1.99-0.61-2.5c-0.4-0.51-0.92-0.76-1.55-0.76c-0.8,0-1.51,0.38-2.13,1.15
			c-0.91,1.11-1.7,3.07-2.36,5.88C290.29,542.74,290.01,544.72,290.01,546.25z"/>
		<path class="st0" d="M303.65,539.59l0.85-4.03c3.9-1.7,6.91-3.68,9.04-5.94h2.76l-4.87,23.24h-4.55l3.36-16.01
			c-0.95,0.61-2.04,1.17-3.27,1.67C305.73,539.02,304.63,539.38,303.65,539.59z"/>
		<path class="st0" d="M324.67,536.96l-4.43-0.66c0.36-2.14,1.19-3.78,2.5-4.92c1.31-1.14,2.94-1.71,4.91-1.71
			c2.15,0,3.84,0.58,5.07,1.75c1.23,1.17,1.84,2.65,1.84,4.44c0,0.91-0.19,1.83-0.57,2.75c-0.38,0.92-1,1.88-1.86,2.89
			c-0.62,0.72-1.63,1.73-3.04,3.03c-1.41,1.31-2.34,2.2-2.8,2.68c-0.46,0.48-0.9,0.98-1.32,1.52h8l-0.85,4.13H318.1
			c0.15-1.13,0.48-2.21,1-3.24c0.52-1.02,1.17-1.98,1.95-2.86c0.78-0.88,2.2-2.31,4.27-4.27c1.55-1.49,2.54-2.46,2.95-2.92
			c0.74-0.82,1.24-1.53,1.51-2.13c0.27-0.6,0.41-1.14,0.41-1.62c0-0.78-0.23-1.41-0.68-1.89c-0.46-0.48-1.04-0.72-1.74-0.72
			c-0.71,0-1.34,0.27-1.87,0.81C325.35,534.56,324.95,535.54,324.67,536.96z"/>
	</g>
	<path class="st0" d="M180.41,477.35c0,0-2.44,8.07,3.33,10.62c6.49,2.87,10.86,0.85,23.5-3.78s30.01-14.24,30.01-14.24
		s-38.68,32.7-62.06,24.41C159.78,488.9,180.41,477.35,180.41,477.35z"/>
	<g>
		<path class="st3" d="M209.52,452.32c6.9,0,13.8,0.18,20.68-0.06c4.68-0.17,6.8,3.41,6.97,6.58c0.16,3.12,0.05,6.26,0.08,9.38
			c0.01,0.66-0.26,1.06-0.77,1.43c-11.29,8.04-23.16,14.91-36.8,18.15c-4.12,0.98-8.31,1.51-12.57,0.94
			c-0.74-0.1-1.49-0.21-2.22-0.41c-2.81-0.77-3.19-1.29-3.19-4.21c0-7.94,0-15.88,0-23.82c0-1.52,0.15-3,0.82-4.4
			c1.13-2.36,2.9-3.62,5.61-3.6C195.27,452.35,202.4,452.32,209.52,452.32z"/>
		<path class="st3" d="M337.5,503.53c-6.09,0-12.18-0.04-18.26,0.03c-1.35,0.02-1.62-0.34-1.5-1.67
			c1.07-11.82,2.06-23.66,3.08-35.48c0.3-3.52,0.67-7.03,0.92-10.56c0.07-1,0.45-1.21,1.38-1.21c12.12,0.03,24.24,0.04,36.35-0.01
			c1.24,0,1.45,0.45,1.34,1.53c-0.28,2.65-0.53,5.3-0.68,7.96c-0.07,1.27-0.91,0.97-1.59,0.97c-6.96,0.01-13.92,0.07-20.87-0.04
			c-1.67-0.03-2.26,0.47-2.26,2.09c0.01,1.33-0.14,2.66-0.34,3.98c-0.2,1.28,0.15,1.69,1.52,1.67c6.43-0.08,12.87,0,19.31-0.06
			c1.33-0.01,1.86,0.2,1.62,1.71c-0.34,2.11-0.51,4.26-0.55,6.4c-0.03,1.52-0.43,2.08-2.09,2.05c-6.38-0.11-12.76,0-19.13-0.08
			c-1.39-0.02-1.76,0.42-1.8,1.74c-0.06,2.08-0.25,4.17-0.55,6.23c-0.19,1.26,0.15,1.59,1.4,1.58c7.25-0.05,14.5,0.03,21.74-0.06
			c1.59-0.02,1.99,0.41,1.79,1.94c-0.34,2.58-0.55,5.19-0.68,7.79c-0.06,1.22-0.53,1.54-1.69,1.53
			C349.8,503.51,343.65,503.53,337.5,503.53z"/>
		<path class="st3" d="M383.2,453.94c3.68-0.13,7.28,0.24,10.73,1.66c5.59,2.31,7.21,7.14,7.59,11.88c0.06,0.76-0.27,1.01-0.99,1.05
			c-3.88,0.21-7.75,0.44-11.62,0.7c-0.95,0.06-1.22-0.27-1.41-1.21c-0.88-4.36-5.38-6.43-9.43-4.41c-1.39,0.69-2.31,1.77-2.29,3.4
			c0.02,1.63,1.23,2.34,2.53,2.72c2.77,0.82,5.6,1.46,8.38,2.25c1.84,0.52,3.67,1.09,5.44,1.79c8.91,3.53,11.92,11.74,7.45,20.26
			c-2.17,4.14-5.44,7.09-9.85,8.59c-7.19,2.44-14.5,2.39-21.7,0.12c-5.75-1.81-9.9-8.61-9.35-14.64c0.07-0.73,0.35-0.83,0.94-0.87
			c4.05-0.26,8.09-0.53,12.14-0.83c0.68-0.05,0.96,0.15,0.95,0.83c0,0.34,0.11,0.68,0.17,1.03c0.93,5.49,6.21,8.11,11.18,5.52
			c1.82-0.95,2.98-2.44,2.95-4.56c-0.03-2.04-1.33-3.23-3.08-4.03c-2.55-1.16-5.32-1.6-7.99-2.36c-2.23-0.64-4.39-1.45-6.49-2.44
			c-9.93-4.7-8.73-15.26-3.52-20.76c3.75-3.96,8.59-5.28,13.79-5.67C380.87,453.87,382.04,453.94,383.2,453.94z"/>
		<path class="st3" d="M286.82,481.97c0.06,1.21,0.07,2.43,0.19,3.64c0.33,3.22,1.6,5.92,4.92,6.88c3.54,1.03,6.92,0.58,9.6-2.27
			c1.49-1.59,2.42-3.53,3.04-5.6c0.28-0.95,0.67-1.11,1.58-0.8c3.4,1.14,6.82,2.22,10.24,3.29c0.84,0.26,1.03,0.62,0.76,1.51
			c-2.77,9.18-10.3,15.13-19.96,15.7c-3.13,0.18-6.24,0.01-9.35-0.5c-7.81-1.29-12.59-6.11-14.6-13.39
			c-2.41-8.77-1.32-17.42,3.19-25.36c4.04-7.11,10.66-10.39,18.63-11.08c4-0.35,8-0.21,11.88,1c6.57,2.04,9.79,6.98,11.47,13.27
			c0.25,0.92-0.26,0.92-0.86,1.06c-3.73,0.84-7.45,1.69-11.17,2.56c-0.6,0.14-1.01,0.14-1.18-0.55c-1.02-4.13-3.65-6.15-7.9-6.06
			c-4.02,0.08-7.31,2.51-8.87,6.64c-0.43,1.13-0.76,2.32-0.99,3.5C287.04,477.56,286.88,479.76,286.82,481.97z"/>
		<path class="st3" d="M420.63,454.66c3.71,0.16,8.31-0.37,12.86,0.22c8.1,1.04,12.08,6.11,11.36,14.3
			c-0.26,3.03-0.87,5.96-2.47,8.6c-2.97,4.89-7.58,6.91-13.04,7.46c-3.12,0.31-6.26,0.28-9.38,0.15c-1.6-0.07-1.95,0.58-2.05,1.95
			c-0.34,4.79-0.79,9.58-1.12,14.38c-0.09,1.34-0.47,1.9-1.95,1.85c-3.88-0.11-7.77-0.08-11.65-0.01c-1.13,0.02-1.36-0.36-1.27-1.41
			c1.25-14.02,2.47-28.03,3.7-42.05c0.12-1.38,0.33-2.77,0.33-4.15c0.01-1.12,0.48-1.32,1.47-1.3
			C411.54,454.69,415.65,454.66,420.63,454.66z"/>
		<path class="st3" d="M237.2,471.29c0.01,9.51,0.1,19.02,0,28.52c-0.05,4.6-2.69,6.99-7.22,6.99c-13.51,0-27.02,0-40.53,0
			c-5.16,0-7.15-1.81-7.73-7.02c0.3-0.81,1.09-0.79,1.74-0.95c10.83-2.73,20.83-7.45,30.6-12.71c7.68-4.13,15-8.81,21.72-14.38
			C236.2,471.41,236.62,471.11,237.2,471.29z"/>
		<path class="st3" d="M263.78,454.66c1.8,0,3.6,0.1,5.39-0.03c1.5-0.11,2.02,0.26,1.87,1.89c-0.7,7.26-1.27,14.54-1.9,21.81
			c-0.66,7.67-1.37,15.34-1.95,23.02c-0.12,1.6-0.41,2.33-2.27,2.24c-3.76-0.18-7.53-0.09-11.3-0.03c-1.11,0.02-1.35-0.33-1.25-1.41
			c1.36-15.29,2.69-30.57,3.96-45.87c0.1-1.26,0.41-1.72,1.72-1.64C259.95,454.75,261.87,454.66,263.78,454.66z"/>
		<path class="st4" d="M237.2,471.29c-4.4,3.39-8.77,6.82-13.52,9.73c-13.12,8.04-26.73,15-41.81,18.68
			c-0.05,0.01-0.1,0.06-0.14,0.09c-3.49,0.51-6.95,1.28-10.51,1.12c-1.46-0.07-2.89-0.24-4.26-0.71c-3.71-1.24-5.28-4.41-3.99-8.12
			c1.05-3.04,3.12-5.39,5.33-7.62c3.63-3.67,7.72-6.75,12.07-9.66c0.49,2.03,0.05,3.52-1.41,4.89c-2.11,1.99-3.88,4.3-5.14,6.94
			c-2.31,4.84-0.41,8.24,4.95,8.74c5.59,0.52,10.96-0.81,16.2-2.5c16.1-5.18,30.65-13.21,43.65-24.04c0.31-0.26,0.65-0.48,0.97-0.72
			c0.39-0.12,0.51,0.07,0.47,0.42C239.09,469.46,238.15,470.38,237.2,471.29z"/>
		<path class="st5" d="M427.4,441.58c0-4.24,0-4.24,4.26-4.23c0.17,0,0.35-0.02,0.52,0c0.61,0.1,1.56-0.35,1.53,0.82
			c-0.03,1.04-0.88,0.68-1.45,0.72c-0.69,0.05-1.39,0.03-2.09,0.01c-0.63-0.02-0.97,0.17-0.96,0.88c0.02,0.72,0.41,0.87,1.01,0.85
			c0.81-0.02,1.62,0.01,2.44,0c0.58-0.01,0.84,0.23,0.82,0.83c-0.02,0.55-0.34,0.67-0.8,0.67c-0.75,0-1.51,0.03-2.26,0
			c-0.73-0.03-1.2,0.1-1.22,1.01c-0.02,0.96,0.39,1.21,1.25,1.16c0.81-0.04,1.62,0,2.43-0.01c0.57-0.01,1.02,0.05,1,0.82
			c-0.02,0.82-0.56,0.73-1.08,0.74c-0.35,0-0.7,0-1.04,0C427.4,445.86,427.4,445.86,427.4,441.58z"/>
		<path class="st6" d="M338.47,441.52c0-0.29-0.1-0.63,0.02-0.86c0.58-1.05-1.37-3.16,1.29-3.3c4.05-0.21,5.5,0.74,5.71,3.54
			c0.3,4.02-2.39,6.07-6.41,4.95c-0.65-0.18-0.6-0.6-0.6-1.04C338.46,443.72,338.47,442.62,338.47,441.52z"/>
		<path class="st6" d="M397.63,441.4c0-0.17-0.06-0.38,0.01-0.51c0.63-1.14-1.52-3.4,1.6-3.57c4.61-0.25,5.36,1.6,5.45,4.06
			c0.11,2.88-1.11,4.36-3.61,4.48c-3.44,0.17-3.44,0.17-3.44-3.24C397.63,442.21,397.63,441.8,397.63,441.4z"/>
		<path class="st7" d="M287.02,440.74c0,0.52,0.01,1.04,0,1.57c-0.08,3.01-1.52,4.17-4.5,3.59c-1.19-0.23-1.98-0.87-2.18-2.15
			c-0.29-1.85-0.07-3.7-0.14-5.55c-0.02-0.58,0.27-0.83,0.84-0.84c0.64-0.01,0.97,0.22,0.96,0.91c-0.02,1.45,0,2.9,0.01,4.35
			c0.01,1.07,0.44,1.83,1.61,1.83c1.19,0,1.59-0.77,1.59-1.84c0-1.39,0.02-2.78-0.01-4.17c-0.01-0.68,0.13-1.09,0.94-1.09
			c0.88,0,0.89,0.51,0.87,1.14C287,439.23,287.02,439.98,287.02,440.74z"/>
		<path class="st8" d="M375.39,445.69c-1.27,0.37-2.06,0.19-2.4-1.07c-0.34-1.25-1.43-0.61-2.2-0.73c-0.72-0.11-1.39-0.03-1.62,0.86
			c-0.15,0.56-0.29,1.11-1.08,1.12c-0.79,0-1.24-0.07-0.83-1.05c0.9-2.18,1.75-4.39,2.57-6.6c0.24-0.66,0.63-0.87,1.29-0.87
			c0.65,0,1.05,0.2,1.3,0.86C373.35,440.67,374.36,443.11,375.39,445.69z"/>
		<path class="st8" d="M227.29,445.84c-0.66,0.04-0.97-0.11-1.25-0.61c-1.1-1.98-3.02-1.95-4.21,0.07
			c-0.44,0.75-1.11,0.67-1.65,0.49c-0.68-0.24-0.15-0.78-0.01-1.15c0.79-2.1,1.65-4.18,2.42-6.29c0.26-0.7,0.6-1.03,1.37-1.01
			c0.67,0.02,1.03,0.26,1.27,0.9c0.84,2.21,1.74,4.39,2.63,6.58C228.17,445.59,228.18,446.08,227.29,445.84z"/>
		<path class="st8" d="M250.12,441.86c-0.04-1.94,0.45-3.4,2.01-4.2c1.36-0.7,2.79-0.73,4.11,0.19c0.62,0.43,1.39,1.14,0.95,1.78
			c-0.48,0.71-1.28,0.5-1.99-0.27c-0.98-1.07-2.5-0.62-3.05,0.75c-0.36,0.89-0.32,1.81-0.09,2.73c0.2,0.79,0.64,1.37,1.45,1.57
			c0.85,0.21,1.55-0.15,1.88-0.89c0.42-0.96,1.04-0.83,1.65-0.41c0.83,0.58,0.07,1.13-0.23,1.56c-0.87,1.25-2.65,1.67-4.23,1.11
			C250.98,445.18,250.11,443.72,250.12,441.86z"/>
		<path class="st9" d="M192.7,441.56c0-4.78,0-4.78,4.89-4.21c0.06,0.01,0.12,0.01,0.17,0.01c0.57,0,0.83,0.28,0.81,0.86
			c-0.02,0.55-0.33,0.68-0.79,0.68c-0.81,0-1.62,0.03-2.43,0c-0.66-0.03-0.92,0.22-0.91,0.9c0.01,0.62,0.14,0.99,0.86,0.95
			c0.63-0.04,1.27,0,1.91,0c0.47,0,0.76,0.15,0.78,0.69c0.02,0.57-0.19,0.88-0.79,0.86c-0.12,0-0.23,0.02-0.35,0
			c-1.94-0.36-2.77,0.37-2.41,2.37c0.12,0.66,0.06,1.25-0.93,1.22c-0.94-0.04-0.79-0.64-0.8-1.19
			C192.69,443.64,192.7,442.6,192.7,441.56z"/>
		<path class="st10" d="M310.03,441.57c0-1.04,0.02-2.08-0.01-3.13c-0.02-0.68,0.14-1.1,0.94-1.11c0.77-0.01,1,0.36,0.99,1.07
			c-0.02,1.5,0.05,3.01-0.02,4.51c-0.05,1.04,0.27,1.51,1.37,1.4c0.69-0.07,1.39-0.01,2.08,0c0.5,0,0.73,0.29,0.73,0.77
			c-0.01,0.46-0.18,0.78-0.71,0.78c-1.56,0-3.13,0-4.69-0.01c-0.67,0-0.68-0.49-0.67-0.98
			C310.03,443.77,310.03,442.67,310.03,441.57z"/>
		<path class="st11" d="M240.04,468.55c-0.16-0.14-0.31-0.28-0.47-0.42c1.09-1.05,2.17-2.09,3.26-3.14
			c0.12,0.12,0.24,0.23,0.36,0.35C242.39,466.62,241.26,467.62,240.04,468.55z"/>
		<path class="st12" d="M423.29,464.75c0.87,0,1.74-0.07,2.6,0.01c2.51,0.26,4,1.44,4.47,3.44c0.54,2.32-0.31,4.73-2.24,5.95
			c-2.67,1.7-5.68,1.25-8.61,1.25c-0.6,0-0.51-0.48-0.47-0.9c0.25-2.76,0.57-5.53,0.7-8.3c0.06-1.34,0.62-1.67,1.81-1.52
			c0.57,0.07,1.16,0.01,1.73,0.01C423.29,464.72,423.29,464.73,423.29,464.75z"/>
		<path class="st12" d="M340.21,441.58c0-0.35-0.04-0.7,0.01-1.04c0.08-0.53-0.32-1.31,0.34-1.55c0.68-0.25,1.54-0.3,2.17,0.19
			c1.31,1.02,1.04,2.44,0.77,3.82c-0.25,1.31-1.28,1.28-2.29,1.32c-0.73,0.03-1.06-0.25-1.01-1
			C340.24,442.74,340.21,442.16,340.21,441.58z"/>
		<path class="st12" d="M399.37,441.58c0-0.35,0-0.69,0-1.04c0.01-1.63,0.52-2.05,2.07-1.56c1.62,0.51,1.42,1.93,1.39,3.18
			c-0.03,1.12-0.39,2.02-1.76,2.15c-1.17,0.11-1.95-0.07-1.71-1.51C399.43,442.4,399.37,441.98,399.37,441.58z"/>
		<path class="st12" d="M371.06,439.78c0.53,0.87,0.84,1.65,0.95,2.51C369.89,442.56,369.89,442.56,371.06,439.78z"/>
		<path class="st12" d="M223.85,439.76c0.56,0.87,0.83,1.67,0.97,2.53C222.72,442.55,222.72,442.55,223.85,439.76z"/>
	</g>
	<g>
		<path class="st13" d="M254.71,319.02h114.36c0,0,0.74,30.56-1.46,35.86c-2.2,5.31-10.8,25.43-10.61,33.48s3.29,19.4-0.73,24.52
			c-4.03,5.12-6.95,8.97-6.95,8.97l-3.48,5.12c0,0-10.43,1.83-16.47-4.03c-6.04-5.86-6.22-18.48-16.65-17.75
			c-10.43,0.73-4.88,14.27-14.7,14.82c-9.82,0.55-7.51-12.08-15.62-11.34c-8.11,0.73-8.11,4.21-10.85,2.2
			c-2.74-2.01-2.01-7.14-4.21-7.68s-12.63-1.46-12.63-1.46V319.02z"/>
		<path class="st14" d="M291.45,324.51l2.2-1.1l20.49,34.95l7.32,6.77c0,0,7.5-12.63,8.05-12.99c0.55-0.37,2.93,0,2.93,0
			l12.63-28.73l10.25,14.27c0,0-4.76,21.41-11.34,30.92c-6.59,9.51-13.54,15.92-13.54,16.47s7.14,15,7.14,15l6.22,5.86l-1.28,6.77
			l-9.15-0.73l0.55-8.05l-9.51-14.82c0,0-12.63,3.84-24.7,3.29c-12.08-0.55-31.11-4.94-31.11-4.94l1.28-14.32l2.74-1.05l0.37-4.03
			c0,0,12.63,3.84,19.76,4.03c7.14,0.18,19.21-2.01,19.21-2.01l-1.83-8.97L291.45,324.51z"/>
		<g>
			<path d="M278.67,374.7l4.47,0.39l1.14,6.85l2.3-6.55l4.47,0.39l-0.96,11l-2.79-0.24l0.73-8.39l-2.88,8.2l-2.52-0.22l-1.41-8.58
				l-0.73,8.39l-2.79-0.24L278.67,374.7z"/>
		</g>
		<g>
			<path d="M303.62,377.18l6.32-0.92c1.05-0.15,1.9-0.01,2.54,0.43c0.64,0.44,1.02,1.05,1.13,1.82c0.09,0.65-0.03,1.23-0.36,1.75
				c-0.22,0.35-0.58,0.65-1.07,0.9c0.81,0.07,1.44,0.32,1.87,0.72c0.44,0.41,0.71,0.96,0.81,1.65c0.08,0.57,0.02,1.1-0.17,1.59
				c-0.2,0.49-0.51,0.9-0.93,1.23c-0.26,0.2-0.67,0.38-1.23,0.54c-0.75,0.21-1.24,0.33-1.49,0.37l-5.83,0.85L303.62,377.18z
				 M307.65,380.97l1.47-0.21c0.53-0.08,0.88-0.22,1.06-0.43c0.18-0.21,0.24-0.49,0.19-0.83c-0.05-0.32-0.18-0.55-0.42-0.7
				c-0.23-0.15-0.61-0.19-1.12-0.11l-1.49,0.22L307.65,380.97z M308.27,385.27l1.72-0.25c0.58-0.08,0.98-0.25,1.19-0.49
				c0.21-0.24,0.29-0.53,0.24-0.88c-0.05-0.32-0.2-0.57-0.47-0.73c-0.27-0.16-0.69-0.2-1.29-0.11l-1.72,0.25L308.27,385.27z"/>
		</g>
		<g>
			<path d="M321.79,368.52l7.29-7.39l1.94,1.91l-2.44,2.48l5.92,5.84l-2.4,2.43l-5.92-5.84l-2.44,2.48L321.79,368.52z"/>
		</g>
		<g>
			<path d="M345.8,348.61l2.26-2.15c0.63,0.59,1.08,1.21,1.36,1.86c0.28,0.65,0.38,1.33,0.31,2.03c-0.07,0.7-0.34,1.48-0.83,2.34
				c-0.59,1.04-1.23,1.81-1.91,2.3c-0.68,0.49-1.54,0.76-2.57,0.8c-1.04,0.05-2.15-0.27-3.34-0.94c-1.59-0.9-2.57-2.02-2.94-3.35
				c-0.37-1.33-0.12-2.77,0.76-4.31c0.69-1.21,1.47-2.02,2.35-2.44c0.88-0.42,1.93-0.5,3.13-0.26l-0.91,2.95
				c-0.35-0.08-0.61-0.1-0.81-0.08c-0.32,0.04-0.61,0.14-0.87,0.31c-0.26,0.17-0.47,0.41-0.64,0.7c-0.38,0.67-0.4,1.34-0.07,2.01
				c0.25,0.5,0.8,0.99,1.66,1.48c1.06,0.6,1.89,0.86,2.46,0.76c0.58-0.1,1.04-0.44,1.37-1.02c0.32-0.57,0.41-1.09,0.25-1.56
				C346.67,349.56,346.33,349.08,345.8,348.61z"/>
		</g>
	</g>
</g>
</svg>
