<?xml version="1.0" encoding="UTF-8"?>
<svg id="Camada_1" xmlns="http://www.w3.org/2000/svg" version="1.1" viewBox="0 0 1000 1000">
  <!-- Generator: Adobe Illustrator 29.1.0, SVG Export Plug-In . SVG Version: 2.1.0 Build 142)  -->
  <defs>
    <style>
      .st0 {
        fill: #094776;
      }

      .st1 {
        fill: #fff;
      }

      .st2 {
        fill: #0a4775;
      }
    </style>
  </defs>
  <path class="st2" d="M482.57,8.83c.86-.39,2.02-.37,2.88,0,1.06-.39,2.3-.37,3.36,0,3.5-.42,7.08-.38,10.57,0,4.46-.4,8.99-.42,13.45,0,1.7-.38,3.56-.4,5.29,0,1.04-.37,2.33-.4,3.36,0,43.99-1.19,84.58,17.93,120.34,40.77,9.91,5.43,21.51,11.76,32.99,11.73,22.34-.05,39.43-15.82,53.91-31.18l19.41-20.96c1.29-.51,2.76-.46,3.99.18l140.94,85.87c1.03,1.53.51,3.48-.61,5.49-12.07,25.2-23.64,50.63-34.73,76.28l.08,593.78c-7.39,66.42-76.51,90.13-131.49,106.91l-62.32,18.42c-61.64,18.34-125.17,42.48-166.79,94.02-.84,1.27-1.81,1.66-2.98,1.07-31.88-52.8-93.63-78.16-152-95.07-31.05-8.67-61.88-17.64-92.49-26.93-49.45-15.42-107.16-42.16-112.67-100.53l.06-595.13-29.77-71.36-1.02-4.94v-.96l.48-1.36c46.07-28.92,92.25-57.58,138.54-85.97,1.21-.26,2.25.04,3.01,1.01,11.48,13.58,24.3,27.75,39.95,37.7,28.38,18.04,49.1,11.78,77.69-1.68,36.02-18.91,74.53-38.19,116.52-37.15Z"/>
  <g>
    <g>
      <path class="st1" d="M496.5,478.3l-1.39-442.51c1.16-.32,2.31-.49,3.53-.55,38.85-2.19,70.23,7.18,104.05,24.76,43.34,22.53,66.32,42.22,114.78,12.46,13.26-8.14,24.86-18.56,36.71-28.49l107.89,64.88c.64,1.1-4.38,9.2-5.31,10.65-7.56,11.83-26.82,33.52-26.82,47.66v311.14h-333.44Z"/>
      <path class="st1" d="M495.06,499.92v426.22c-19.99-18.57-46.98-28.11-72.66-36.17-36.84-11.55-75.09-19.35-112.42-29.32-41.45-11.08-113.25-30.01-137.03-68.14-1.59-2.55-7.01-13.16-7.01-15.58v-277.02h329.12Z"/>
    </g>
    <g>
      <path class="st1" d="M381.67,68.17c13.58-10.96,30.93-20.06,48.53-21.87l5.76,431.99h-54.29V68.17Z"/>
      <polygon class="st1" points="219.75 478.3 165.94 478.3 165.94 89.8 219.75 57.36 219.75 478.3"/>
      <path class="st1" d="M327.86,89.56v388.74h-54.29V73.7c5.18,2.48,9.93,5.76,15.2,8.1,12.24,5.43,25.69,7.95,39.09,7.76Z"/>
      <path class="st1" d="M613.73,499.92v377.93c-17.31,8.59-35.59,15.37-53.81,21.86v-399.79h53.81Z"/>
      <path class="st1" d="M721.84,499.92v340.69c-17.34,8.4-35.14,16.12-53.81,21.14v-361.83h53.81Z"/>
      <path class="st1" d="M829.94,499.92v275.58c0,2.1-5.08,10.09-6.54,12.2-11.09,16.01-29.35,28.82-47.27,36.09v-323.87h53.81Z"/>
    </g>
  </g>
  <path class="st0" d="M685.81,307.47l23.03-25.45c60.39,12.82,115.64-47.45,111.49-105.73-1.79-25.1-16.8-41.97-41.3-46.63-62.94-11.96-117.42,65.73-96.59,123.99,1.52,4.24,3.74,8.14,5.23,12.38l-19.33,20.01-19.93-19.98c23.33-44.31-.69-104.78-43-128.07-37.99-20.92-86.64-11.02-90.16,38.29-3.97,55.49,42.42,107.38,98.24,107.87l16.56-2.18,20.69,25.49-105.03,109.8,17.33,18.26,105.63-110.48,100.73,110.48c.7.19.8-.19,1.2-.47,2.72-1.89,6.92-7.04,9.59-9.63,1.81-1.76,7.74-6.31,8.69-8.16.19-.37.32-.59,0-.95l-103.08-108.84ZM792.46,142.41c1.4.37,2.93,1.54,4.07,2.41,4.81,3.66,9.33,9.76,10.34,15.85h-14.41v-18.26ZM792.46,174.61h17.3c1.53,7.6,1.2,15.45,0,23.07h-17.3v-23.07ZM792.46,210.17h14.41c-1.81,9.01-7.45,16.83-14.41,22.58v-22.58ZM759.31,139.05c7.89-1.7,15.3-2.14,23.06.48v21.14h-23.06v-21.62ZM759.31,174.61h23.06v23.07h-23.06v-23.07ZM759.31,210.17h23.06v23.07h-23.06v-23.07ZM759.31,245.73h23.06c.37.32-1.79,2.94-2.16,3.37-5.19,6.13-13.48,12.03-20.91,14.89v-18.26ZM732.18,149.64c3.48-2.83,7.94-6.12,12.24-7.22v18.26h-22.1c2.42-4.36,6.04-7.93,9.86-11.04ZM722.32,174.61h22.1v23.07h-22.1v-23.07ZM722.32,210.17h22.1v23.07h-22.1v-23.07ZM722.32,245.73h22.1v22.34c0,2.48-19.48,4.94-22.1,4.08v-26.43ZM708.86,267.83c-4.09-1.89-7.7-6.03-10.2-9.74-2.4-3.55-4.79-8.1-5.18-12.36h15.37v22.1ZM708.86,175.09v22.58h-15.86c3.5-8.54,9-16.44,15.86-22.58ZM690.11,219.52c.22-3.09,1.12-6.38,1.94-9.35h16.82v23.07h-17.54c-1.47,0-1.34-12.06-1.22-13.71ZM544.06,232.75c-5.76-5.9-10.17-14.53-12.01-22.58h12.01v22.58ZM544.06,197.67h-16.1c-.66,0-1.59-5.96-1.67-6.98-.14-1.75.05-16.09,1.67-16.09h16.1v23.07ZM544.06,160.67h-12.49c1.12-6.69,4.63-13.85,10.08-18.03.72-.55,1.42-1.29,2.41-1.19v19.22ZM589.71,141.45c9.7,3.56,17.44,11.09,23.54,19.22h-23.54v-19.22ZM579.62,263.51c-.85.03-1.69.06-2.53-.11-4.94-1-20.01-12.09-23.18-16.22-.37-.48-.93-.61-.72-1.44h25.7c.05,0,.72.67.72.72v17.06ZM579.62,232.51c0,.05-.67.72-.72.72h-25.7v-23.07h25.7c.05,0,.72.67.72.72v21.62ZM579.62,197.67h-26.43v-23.07h26.43v23.07ZM579.62,160.67h-26.43c.33-3.12-1.51-22.2-.01-23.32.59-.44,6.8-1.57,7.95-1.66,5.94-.49,13.13.03,18.49,2.64v22.34ZM613.73,272.15c-5.38,0-11.16.1-16.43-1.1-1.35-.31-7.59-2.62-7.59-3.94v-20.66c0-.05.67-.72.72-.72h23.3v26.43ZM613.73,233.23h-24.02v-23.07h24.02v23.07ZM613.73,197.67h-24.02v-23.07h24.02v23.07ZM627.67,174.61c2.62,1.35,4.39,4.91,5.7,7.52,2.36,4.73,4.24,10.38,5.35,15.55h-11.05v-23.07ZM627.67,267.83v-22.1h15.37c-1.17,9.18-6.72,18.23-15.37,22.1ZM646.4,233.23h-18.74v-23.07h15.13c3.42,7.09,3.76,15.3,3.6,23.07Z"/>
  <path class="st0" d="M445.33,641.68c-.05,0-.72-.67-.72-.72v-70.16c0-1.37-2.07-8.08-2.66-9.83-7.78-23.05-27.5-35.41-51.37-36.56-17.81-.86-42.43,9.32-47.59,27.9-3.81-17.86-22.85-24.61-38.99-26.85-9.76-1.35-16.67-1.36-26.11,1.62-18.6,5.87-37.58,21.63-39.4,42.28v72.32h-14.89v20.18h14.89v10.57h20.66c-.26-.61.48-1.42.48-1.68v-8.89h72.07v11.53c-39.19-.46-83.06,25.16-92.41,64.95-11.32,48.19,27.47,83.22,70.3,94.34,27.34,7.1,61.88,5.48,87.62-6.56,13.1-6.13,24.25-15.52,34.41-25.64-3.69-2.77-7.68-8.91-11.26-11.32-.45-.3-.77-.62-1.37-.4-10.51,11.58-23.48,20.09-38.31,25.16-36.57,12.5-81.16,8.07-108.33-21.36-40.79-44.17.91-97.85,51.48-102.78,2.64-.26,5.31.32,7.87-.54v83.61h21.62v-82.89c0-.24.79-.79,1.2-.74,4.15.57,8.22.79,12.35,1.61,20.34,4.05,35.78,18.47,52.12,30.05l12.64-11.71c-10.8-10.85-22.46-21.49-36.66-27.71-13.05-5.72-27.47-7.64-41.64-8.09v-11.53h69.67v10.57h21.62v-10.57h14.89v-20.18h-14.17ZM422.99,641.68h-163.12c-.05,0-.72-.67-.72-.72v-69.2c0-33.04,57.97-38.67,70.38-7.92.51,1.25,2.17,5.95,2.17,6.96v32.44h21.62v-30.51c0-1.02,1.55-5.82,2.04-7.09,8.53-22.24,44.26-24.92,60.65-10.43,2.43,2.15,6.98,8.54,6.98,11.76v74.72Z"/>
</svg>