<?xml version="1.0" encoding="UTF-8"?>
<svg id="Camada_1" xmlns="http://www.w3.org/2000/svg" xmlns:xlink="http://www.w3.org/1999/xlink" version="1.1" viewBox="0 0 618 618">
  <!-- Generator: Adobe Illustrator 29.2.0, SVG Export Plug-In . SVG Version: 2.1.0 Build 108)  -->
  <defs>
    <style>
      .st0 {
        fill: #fefefe;
      }
    </style>
  </defs>
  <path d="M18,316.1c8.7-4.6,17.1-9.7,25.6-14.6l47.1-27,147-84.6,54.3-31.3,16.3-9.4c3.2-1.8,6.4-3.9,9.7-5.3,3.9,1.7,7.7,4.2,11.4,6.3l18,10.4,60.7,35,139.8,80.4c23.4,13.4,46.6,27.1,70.2,40.2v.6c-23,12.8-45.7,26.2-68.5,39.3l-136.9,78.9-65.1,37.6-19.3,11.1c-3.2,1.8-6.8,3.6-9.7,5.8h-1.1c-2.8-2.2-6.3-3.8-9.4-5.6l-16.9-9.7-60.2-34.7L18,316.8v-.7Z"/>
  <path class="st0" d="M317.9,150c.5,0,.9.2,1.4.4,9.1,5,18.1,10.4,27.1,15.5l54,31.1,163.4,94.1,27.9,16c5.3,3.1,10.7,6.3,16.1,9.1-11.4,6.4-22.6,13.1-33.9,19.7l-64,37.1-191.4,110.1c-.9.1-1.2-.1-2-.5-8.8-4.7-17.4-9.9-26-14.9l-51.3-29.5-138.6-80c-24-13.8-47.9-28-72.2-41.4,3.5-1.7,6.9-3.9,10.3-5.9l19.8-11.5,61.9-35.9,197.6-113.5Z"/>
  <path d="M317.4,157.3c10.2,5.7,20.3,11.7,30.5,17.5l63,36.2,183.3,105.5-276.6,159.4c-7.2-3.8-14.2-8.2-21.2-12.3l-49.4-28.4-142.1-82-41.3-23.8c-7.5-4.3-14.9-8.8-22.5-12.8,10.1-5.2,21.2-12.2,31.1-18l60.5-35,184.7-106.3Z"/>
  <path class="st0" d="M381.3,212.6l.2.3c.2,3.5-.5,7.2-.6,10.7-.3,9.6.1,19.7,2.6,29,3,11.2,9.7,20.5,15.1,30.5,13.8,25.7,22.9,53.9,19.6,83.4-.9,8.3-2.9,16.4-4.9,24.4-4.8,2.5-9.4,5.4-14.1,8.1-11.8,6.8-23.5,13.9-35.5,20.4,4.2-7.3,8.4-17.4,11.8-25.3,17.5-40.1,17.7-65,4.4-106.5-4.6-14.3-11.4-31.8-12.8-46.7-22.1,9.9-31.3,28.2-49.5,42.4-4.2-3.3-8.2-6.8-12-10.6-8.1-8.3-15.4-17.4-24.8-24.4-3.9-2.9-8-5.2-12.4-7.4-1,5.6-2.4,11.1-3.9,16.5-3.9,14.3-9.2,28.2-13.1,42.5-3.4,12.3-5.9,25.4-5.9,38.3,0,28.7,13.4,55.9,25.8,81.1-16.6-9.4-33.1-18.9-49.5-28.6-11.1-39.4-4-71.8,14.5-107.5,5.1-9.8,11.9-19.1,14.8-29.9,3.7-13.4,3-27.5,2.5-41.2,5.7,2.9,11.2,5.7,16.6,9.1,15.6,9.8,35.3,26.3,47.3,40.2,4.9-4.2,9.3-9.3,14-13.8,14.9-14.2,30.9-26.5,49.8-35.2Z"/>
  <path class="st0" d="M343.8,296.3c1.3,0,2.5,0,3.8-.1,5.9,0,14.4.2,18.8,4.6,5.6,5.5,3.5,22.2,3.6,29.9-6.4-.1-12.8.3-19.1-.3-.1-4.6.7-13.2,0-17.2-.2-1.2-.7-2.5-1.7-3.2-.7-.4-1.4-.5-2.1-.3-.8.2-1.5.7-1.9,1.5-.7,1.4-.6,3.6-.6,5.2-.2,9.8.2,19.7.2,29.5,0,9.7-.4,19.5,0,29.2,0,1.7.2,3.5.8,5.1.5.6,1,.9,1.8,1,.7.1,1.5,0,2-.6,3.4-3.1,1.2-15.5,1.5-20.1h2.9c0,0,16.4,0,16.4,0,0,7.9,1.9,22.6-3.3,29-2.3,2.9-5.9,4.2-9.5,4.5-7.3.7-21.5,1.9-27.4-3.1-3.1-2.6-4.2-5.4-4.4-9.4-.3-4.9,0-9.9,0-14.9v-23.4s0-21.2,0-21.2c0-4.7-.4-9.6.3-14.3.3-2.3,1.3-4.6,2.8-6.3,3.9-4.4,9.9-4.7,15.3-5.1Z"/>
  <path class="st0" d="M269.7,296.8h34.2s0,13,0,13c-4.9,0-9.9,0-14.8,0-1.1,7.2-.1,16.8-.5,24.4,5.1.2,10.2,0,15.3,0v12.9s-14.8,0-14.8,0c-.8,10.9-.3,22.1-.3,33.1v.4c1.9,1.3,12.4.5,15.2.5,0,4.4,0,8.8,0,13.2h-34.2c-.4-10.4,0-20.9,0-31.3-.1-22.1,0-44.3.2-66.4Z"/>
</svg>