<?xml version="1.0" encoding="UTF-8"?>
<svg id="Camada_1" xmlns="http://www.w3.org/2000/svg" version="1.1" viewBox="0 0 1000 1000">
  <!-- Generator: Adobe Illustrator 29.1.0, SVG Export Plug-In . SVG Version: 2.1.0 Build 142)  -->
  <defs>
    <style>
      .st0 {
        fill: #20274d;
      }

      .st1 {
        fill: #916b4f;
      }

      .st2 {
        fill: #eeb509;
      }

      .st3 {
        fill: #fff;
      }

      .st4 {
        fill: #ffe597;
      }

      .st5 {
        fill: #fee497;
      }

      .st6 {
        fill: #f6b307;
      }

      .st7 {
        fill: #212850;
      }

      .st8 {
        fill: #f8ba09;
      }

      .st9 {
        fill: #f9ba08;
      }

      .st10 {
        fill: #f5b309;
      }
    </style>
  </defs>
  <path class="st7" d="M953.72,404.99l12.05-52.75-33.48-37.52-36.16-67.69-33.48-48.84-121.88-39.6h-65.63l-10.71,24.07s-37.5-62.14-88.4-94.29c-45.04-28.45-72.25,35.43-100.85,115.48-20.22-3.71-41.06-5.66-62.36-5.66-189.73,0-343.54,153.81-343.54,343.54s153.81,343.54,343.54,343.54c126.2,0,236.48-68.06,296.2-169.46l29.07,8.74,99.11-8.97,44.2-54.91,4.02-88.8-56.25,25.45-8.04-55.58,45.54-70.31,87.06-66.43Z"/>
  <g>
    <path class="st0" d="M540.97,58.87c3.88-.81,8.83-.81,12.71,0,11.22-1.09,21.9,4.84,31.42,10.36,29.99,17.38,57.92,42.83,80.36,68.32,20.86-3.2,42.4-3.63,63.13.55,6.12-7.09,11.74-14.59,16.86-22.51,16.62-24.11,35.52-22.26,56.35-4.35,17.53,15.07,23.89,33.55,29.91,55.41,17.67,8.93,33.31,19.4,48.23,32.02,18.28,6.19,31.4,14.83,46.3,26.96,4.37,3.56,13.82,11.93,14.06,17.4-2.28,8.19-3.51,13.75-2.6,22.64,2.72,10.9,3.35,21.53,1.89,31.86,26.28,17.47,52.04,43.89,50.98,77.34.3.68.57,1.48.79,2.38v24.61c-.26,1.12-.53,2.18-.79,3.18.83,24.42-17.01,50.43-38.27,61.49-2.9,29.8-22.78,59.55-53.59,67.11-10.1,2.48-10.6,1.14-9.02-8.09,1.58-4.02,4.9-28.7,2.36-30.66-.6-.46-4.3.1-5.46.28-35.57,5.45-46.83,43.84-35.93,74.49l-.34,1.36c13.77-8.8,25.96-19.62,34.56-33.92,1.54-2.03,4.33-.75,5.27,1.17,12.08,24.49,10.52,53.57.26,77.71,13.67,54.34-16.16,107.32-67.94,128.1-5.83,2.34-25.28,9.02-30.24,7.4-3.97-1.3,3.01-16.28,6.9-16.16.12-.66-.14-.93-.79-.79-.37.57-.75,1.12-1.22,1.59-3.82,3.89-37.24,11.79-42.3,9.73-.62-.25-1.19-.61-1.76-.99-5.32,2.71-14.01,2.41-19.06-.79l-1.84,1.35c-8.03-1.26-16.01-3.26-23.53-6.38l-.85-2.12c-2.71,2.2-8.85-2.84-9.34-6.43-2.63.06-4.53-.58-6.84-1.78-8.18-4.28-27.08-28.24-28.9-37.34-.12-.6.77-1.24,1.39-1.68l-1.59-.73v-60.24l1.59-.95-1.67-.79c-.64-5.23-2.39-9.59-5.06-14.01l1.18-1.47c.81-.89,1.89.56,2.38,1.59,3.63,1.18,6.65,3.82,9.06,7.91,10.33,15.86,18.36,33.07,24.09,51.64,10.32,16,17.82,21.3,36.08,15.45,9.17-2.94,17.18-7.25,25.65-11.85,1.68-.08,2.13,1.04,2.3,2.64-4.03,8.68-9.06,16.75-15.09,24.22,13.73,1.63,28.97-1.64,42.53-6.04l4.06.2,1.68-2.38c15.29-6.26,28.62-16.14,38.1-29.75.82-.16,1.72-.17,2.44.33,2.57,1.79-.93,22.62-2.47,26.58,13.42-5.99,22.38-16.48,27.62-30.04,1.06-2.74,4-13,2.49-15.69-3.99-7.12-56.9-2.24-66.21,1.16-9.95,1.34-20.23,1.94-30.04-.56l-2.21-2.04c-.51.27-1.03.52-1.57.66-2.83.74-12.25-4.08-15.44-5.77-40.88-21.68-78.15-82.14-79.62-128.35s23.25-95.21,68.45-107.29c-1.73-33.92,18.68-58.89,51.2-66.75,3.04-.73,24.18-3.91,17.65,3-21.01,8.54-43.53,22.81-43.86,47.88-.19,14.41,4.52,31,17.94,38.23,29.29,15.77,97.81,13.01,122.35-10.77,7.79-7.55,13.03-19.59,1.57-25.71-17.84-7.5-32.01-17.45-44.28-32.52l-13.48-12.46.12-1.86-6.1-4.12c-10.22-12.65-21.95-22.26-35.17-28.82-12.6.23-25.27,1.32-38.01,3.26-16.39,1.7-30.99-3.33-45.15-10.67-20.99-9.08-44.65-8.99-66.54-2.71l-3.65-.59c-1.1.35-1.34.28-.79-.79.22-.62.46-1.23.79-1.78,3.6-5.96,25.7-13.4,33.37-14.1l2.07-1.77,11.14-1.25c-3.2-4.81-5.69-9.74-7.45-14.79-.47.29-.95.53-1.46.6-13.84,1.93-27.67,4.76-41.11,8.66-21.65,6.28-40.38,15.52-60.1,26.02l-1.59,1.59-.51,2.01c-40.41,26.1-64.57,67.39-86.6,109.08-1.47,2.77-3.12,5.51-5.04,8,.29.59-.2.82-.79.79l-.79,2.38q-.24.31,0,0l.79-1.59c.36-.68.82-1.38,1.59-1.59,6.14-12.37,16.83-23.09,26.7-32.73,22.55-22.02,47.81-37.1,77.34-47.9,11.94-4.37,27.4-9.85,39.77-11.94,1.59-.27,3.19.07,4.73.47,1.75-.58,3.08-.58,3.97,0,.69.23.68.49,0,.79-.63.78-1.29,1.54-2.02,2.22s-1.43,1.29-2.25,1.76c-45.15,25.55-83.09,47.37-117.67,87.41-18.77,21.74-33.9,45.95-45.32,71.51-4.76,10.66-9.14,20.55-9.51,32.24-.76,23.94,4.67,48.04,10.34,71.56l-.39,2.46c.29.56.63,1.45.28,1.72-2.28,1.75-19.49,13.46-20.63,13.02-19.06-14.17-40.73-21.9-64.53-22.4-8.86-16.37-16.9-33.39-22.59-51.15-.22-.69-.19-1.47-.15-2.27s.2-1.62.39-2.43c.78-.55,1.57-1.08,2.41-1.5,5.67-2.89,26.21-6.06,33.57-6.74,2.02-.39,3.61-.54,3.73,1.89l1.67.96c2.39,9.02,5.23,17.86,8.51,26.51,3.56-39.51,15.57-79.01,28.78-116.45,40.54-114.97,138.61-173.36,252.99-198.34,11.65-2.54,24.17-3.76,36.07-2.86,9.35.71,21.64,2.15,28.64,8.32.5.21.5-.05,0-.79l-1.19-.39c-13.62-16.96-28.84-33-48.04-43.85-1.71-1.85-2.48-2.94-.08-3.83,3.1-1.14,13.85,1.64,17.57,2.7,25.01,7.14,44.27,22.13,59.78,42.39,39.65,36.4,23.84-19.28,14.96-37.45.31-1.78.69-2.83,2.52-2.4,1.99.47,9.32,9.49,11.01,11.77,12.57,16.97,27.52,51.88,8.08,68.64-2.96,2.55-9.66,7.16-12.97,4.51-1.17.66-1.43,1.19-.79,1.59l2.16-.65c6.15,1.87,21.65,22.88,25.28,27.8,6.58,9.76,13.4,19.28,20.46,28.56l5.11-5.51,1.81.62.79-.79c.23-.69.49-.68.79,0v.79c.68.22.67.48,0,.79l-.79.79.98,1.87c-3.65,8.88-2.96,19.66,7.47,22.95,2.75-10.18,16.38-23.4,22.75-7.93,3.55,8.61-2.03,14.45-10.33,16.04,7.95,5.62,18.94,6.94,28.63,7.6,1.17-3.88,1.84-7.88,2.01-12l1.7-.75c-.57-1.28-.83-3.19.79-2.38l2.18,1.77c1.16,3.98,1.93,8.07,1.69,12.12,4.13-2.78,8.06-5.76,11.75-9.11-4.41-3.55-2.74-18.96,1.83-21.31,5.3-2.73,7.81,4.52,6.37,8.58h.79l-.47-.79c.58-10.99-.14-19.3-9.98-25.97l.12-1.83-4.16-2.44c-11.51-10.43-23.78-19.92-36.81-28.49-22.52-14.29-47.73-48.07-25.15-72.03.47-3.77-48.74-32.09-54.49-35.05-20-10.33-41.12-20.17-63.67-22.54,11.47,6.69,19.8,17.07,25.86,28.73,1.74,3.35,5.43,10.53,5.86,13.88.13,1-.28,1.96-.75,2.83.58,1.71.32,2.24-.79,1.59l-2.81-.8c-23.98-31.28-62.66-46.17-101.2-48.32,2.23,4.12,1.22,10.83.33,15.59-3.28,17.53-17.19,33.54-31.87,43.06-5.96,3.87-10.24,5.55-6.86-2.76,20.75-36.57-19.62-79.33-46.76-101.31-22.29-18.06-47.97-33.64-69.97-6.04l-2.2.55-2.38,2.38c-8.58,13.47-15.66,27.71-22,42.82-7.49,17.87-14.47,36.18-21.22,54.14-3.45,9.18-6.98,18.72-8.1,28.45,3.19,7.42,8.56,13.87,16.09,19.35l1.06,2.91,2.51-.02c8.45,6.09,17.41,11.34,26.9,15.75,2.23,2.78.98,3.56-2.12,4.51-8.58,2.66-22.98,2.42-31.85.89-4.14-.71-11.38-2.93-13.71-6.06l-1.59-.47c-30.45,18.14-60.78,38.49-90.97,61.07l-3.55,1.33c-.18-.69-.34-1.37-.38-2.07s-.05-1.32.15-1.89c8.58-25.18,25.95-45.31,43.22-64.03,3.94-9.38,7.24-19.03,9.9-28.96l1.92-.71c-.18-.7-.34-1.41-.39-2.12-.19-2.72,5.81-21.52,7.55-23.48.46-.52,1.01-.97,1.58-1.4-.16-.79-.3-1.59-.32-2.39-.1-3.77,7.99-26.56,10.45-29.34.53-.6,1.14-1.12,1.78-1.62.68-8.55,5.63-18.75,11.12-25.41-.13-5.72,2.21-11.15,6.35-15.09l-.68-2.5c11.28-27.46,31.72-76.8,63.73-84.22,3.31-.77,7.51-.98,10.82-.61Z"/>
    <path class="st7" d="M449.62,186.69c-4.24,10.59-8.27,22.48-11.92,33.35-1.76.73-3.59,1.49-5.52,1.58-31.71,1.43-59.86,2.75-91.19,9.53-54.87,11.88-103.49,34.31-144.82,72.74-104.29,96.96-142.23,242.16-81.09,373.49,2.69,5.78,32.9,61.23,35.75,59.24,1.08-.75,9.89-21.34,9.06-24.28-11.07-23.85-9.23-65.37,22-72.62,2.26,3.5,4.17,7.21,5.74,11.12l17.27-39.08c-2.86.16-5.56-.2-8.1-1.1-3.17-14.19-5.87-29.74-5.85-44.32,0-.46,1.08-1.82,1.42-1.88,58.78-10.87,117.75-21.54,177.01-29.2,5.51,19.1,14.38,36.94,23.15,54.66,23.85.04,45.29,7.77,63.97,22.24l20.12-13.39c.36-.58.74-1.14,1.2-1.62,3.63-3.8,23.21-7.16,29.44-7.85,23.59-2.59,49.05,2.41,68.16,16.79,8.22-11.15,29.15-10.78,42.36-9.94,3.14-.39,5.86.22,8.17,1.83.47-.61,1-1.31,1.78-1.53,2.62-.74,14.01,1.12,16.92,2.43,4.85,2.19,11.14,8.42,13.86,12.6.72,2.6,2.68,4.61,3.55,7.17.58,1.7,2.01,7.68,2.01,9.11v61.93c0,8.19,22.32,35.97,30.39,38.69,1.69.57,4.85.44,5.25.71.42.28.54,3.03,1.71,4.25.25.26,5.52,3.21,6.33,3.59-.15,1-.33,1.99-.63,2.95s-.59,1.87-1.1,2.66c-69.17,106.47-195.38,165.78-321.4,157.42C152.78,884.53-2.72,656.99,65.67,435.43c49.94-161.78,208.19-268.1,377.67-250.96,1.07.11,2.11.46,3.17.83s2.09.87,3.11,1.39Z"/>
    <path class="st7" d="M428.97,247.03c-2.84,8.14-6.67,23.77-10.44,30.45-3,5.32-12.84,13.47-17.34,19.19-11.14,14.15-21.02,31.04-27.03,48.01-37.32,27.83-72.18,56.78-112.07,81.31-20.88,12.84-43.04,25.53-67.04,31.44-.91-.05-.22-1.72-.06-2.44,12.55-58.02,51.65-157.22,108.99-183.24,10.54-4.78,23.08-8.78,34.27-11.8,29.32-7.89,60.42-11.87,90.73-12.93Z"/>
    <path class="st7" d="M361.45,511.42c-56.94,8.73-113.92,18-170.38,29.39-.86-14.7-2.48-31.82-1.23-46.49.14-1.66.51-5.2,1.61-6.33,34.79-12.68,68.6-28.87,98.44-50.87,24.04-17.73,47.57-36.45,71.56-54.32l1.46.94c-7.77,40.52-7.22,85.02.7,126.7l-2.16.97Z"/>
    <path class="st0" d="M413.88,345.48c-13.01,39.49-19.62,74.3-16.67,116.31,1.01,14.48,3.36,29.12,6.35,43.28-14.02,1.68-28.13,4.21-42.1,6.35,1.09-1.33.55-2.39.29-3.81-5.99-33.32-8.04-65.86-4.16-99.7l3.87-25.11c17.17-12.79,34.19-25.66,51.63-38.11.85-.64,1.22-.25.79.79Z"/>
  </g>
  <path class="st3" d="M460.74,161.29c-3.49,8.51-7.76,17.02-11.12,25.41-80.29-8.72-161.05,8.95-229.5,51.28C43.63,347.11-2.93,584.85,120.12,753.03c83.07,113.54,224.4,167.24,363.02,138.44,91.21-18.95,174.97-76,224.65-154.57,7.1,3.35,18.4,6.18,26.21,7.15-7.59,14.11-17.69,27.65-27.82,40.07-159.45,195.57-461.15,186.35-608.76-17.93C-60.44,547.72,51.29,240.1,309.65,171.04c49.29-13.17,100.44-15.73,151.1-9.75Z"/>
  <g>
    <path class="st9" d="M467.1,146.2c-2.1,5.02-4.3,10.07-6.35,15.09-2.22.52-4.49.99-6.77.85-35.52-2.18-66.35-3.42-101.91,1.8C196.6,186.76,73.11,302.03,36.8,453.89c-56.58,236.63,120.87,465.37,365.22,469.73,132.48,2.37,258.66-64.19,328.56-176.7l3.41-2.88c6.35.78,12.65.98,19.06.79-65.85,112.78-189.55,189.73-320.91,196.11-2.86.22-5.78.48-8.74.79h-29.39c-2.96-.31-5.87-.58-8.74-.79-177.55-8.61-330.57-141.46-367.53-314.25C-37.19,369.87,163.53,132.08,425.43,142.2l41.67,4Z"/>
    <path class="st2" d="M482.7,288.68c-6.02,1.68-11.82,3.89-17.42,6.63-.79-.48,2.18-11.88,4.99-12.55-.3-.06-.78-.86-1.94-.86-3.52,0-20.78,11.37-25,14.03-23.6,14.84-46.82,32.09-69.17,48.76-2.53.82-4.92,1.94-7.15,3.38-33.37,26-67.03,51.37-102.45,74.53-16.3,10.66-34.76,20.96-52.88,27.94-2.6,1-14.3,5.28-15.03,4.86-1.95-1.11,10.51-38.91,11.99-43.23,17.88-52.26,49.5-120.72,103.74-142.22,35.7-14.15,72.21-17.64,110.39-21.08,2.17-.2,4.22-1.01,6.2-1.85,3.09-8.85,5.87-18.43,8.74-26.99-83.68-.65-172.32,20.08-235.93,76.6-121.99,108.4-156.71,276.74-67.84,418.75,1.89,3.02,15.26,23.2,16.62,23.88,1.35.68,1.25-.97,1.54-1.6,1.69-3.7,9.61-21.08,9.83-23.61.15-1.77-3.17-7.93-3.92-10.81-6.06-23.1-3-54.58,23.56-62.31l5.92,14.17,19.86-44.86-9.49-.43c-2.83-14.29-4.64-28.71-5.4-43.27l.56-.78c58.74-10.51,117.61-20.29,176.39-30.54,11.29-1.97,22.55-4.48,33.9-6.2,1.87-.28,4.08-1.2,5.81-.15l1.58-1.5c.59-1.86,3.44-21.47,3.03-22.53-1.27-3.29-8.75-2.83-10.17.22-2.19-.5-4.44-.97-6.69-.74-11.69,1.18-24.57,3.01-35.41,7.09-2.77,0-5.54.05-8.3.2-2.76.16-5.51.33-8.22.74-51.34,7.78-102.76,16.18-153.43,27.37l.96-2.32c-.93-6.84-2.52-47.2-.16-48.15,34.65-13.94,65.54-26.76,96.09-49.08,21.71-15.86,43.2-32.36,64.44-48.92,1.57-1.23,3.02-2.62,4.46-4.03,1.44-1.42,2.81-2.91,4.16-4.43,18.44-10.61,35.92-23.77,51.63-38.11.71.17,1.18-.13.79-.79.69-.24,1.22-.77,1.59-1.59.8-.07,1.59-.17,2.35-.37.73-.19,1.44-.4,2.04-.78,25.15-15.98,49.42-30.63,77.27-42.35.18-.41.33-.81.39-1.24.35-2.37-12.42-8.8-14.82-8.9ZM117.34,494.1c1.31-5.94,4.4-20.85,7.02-25.54,1.12-2.01,2.45,2.27,3.58,3.54,9.54,10.65,25.77,15.29,39.65,16.34l-1.88,54-53.67,9.47c-1.93-19.29,1.15-38.99,5.3-57.81ZM141.42,668.62c.41.77.76,1.82,0,2.38-.85-1.19-2.04-2.05-3.02-3.73-10.62-18.21-16.96-45.97-20.56-66.78-.52-2.99-3.63-19.47-2.55-20.71l53.16-11.64,7.98,47.61c-26.94,7.77-35.01,26.45-35.01,52.87ZM171.6,462.19c-13.81,1.4-27.4-3.46-34.79-15.63-5.22-8.59-3-10.31.75-18.79,20.03-45.35,54.36-86.67,93.62-116.43,1.12-1.05,1.53-.61.79.79-13.38,14.95-24.42,37.88-32.15,56.4-12.45,29.85-21.7,61.99-28.23,93.66Z"/>
  </g>
  <g>
    <path class="st6" d="M680.78,282.76c-12.56,3.72-23.27,8.66-34.16,15.88.22.86-.82,1.26-1.59.79,0,.51.27.77.79.79.01-.87.87-1.35,1.59-.79,21.01-6.35,41.55-7.7,62.75-1.19,12.84,3.95,20.96,10.94,35.45,13,18.47,2.63,33.19-2.26,50.75-3.07,8.6-.4,14.75,5.45,21.05,10.7,8.61,7.17,16.84,16.14,24.61,24.23-4.93-2.77-17.28-6.28-23.22-8.15-60.7-19.11-112.48-22.12-174.57-7.73-1.14,1.08-2.73,1.61-4.77,1.59-66.5,16.1-106.3,37.23-148.54,92.1-.25.34-.51.33-.79,0,4.15-10.92,9.93-22.07,15.75-32.29,16.28-28.6,39.71-60.11,66.15-79.97,3.1-2.33,6.73-5.27,10.24-6.83.42-.51.9-1.01,1.59-.79,3.17-2.42,6.86-3.88,10.59-5.2,21.73-7.69,58.47-13.67,81.61-14.3,1.65-.04,3.22.6,4.71,1.24Z"/>
    <path class="st6" d="M761.02,540.79l2.43-13.11c-.69-18.83-7.68-35.51-17.54-51.19,27.96,8.53,44.65,42.39,48.36,69.56,1.18,8.62,2.72,11.91-3.87,18.18-5.24,4.99-25.79,20.1-32.25,20.96-6.06.81-10.36-1.49-15.44-4.28-27.43-15.07-48-55.31-42.68-86.35.31-1.82,2.8-11.52,3.73-12.15,3.53-2.37,14.84,4.31,18.24,6.45,18.35,11.57,32.03,31.59,39,51.93Z"/>
    <path class="st6" d="M761.01,644.8c29.54,7.91,55.75-8.88,88.34-2.94,11.03,2.01,13.66.9,11.36,12.48-3.75,18.85-16,33.38-33.76,40.48,2.52-9.17,4.46-16.94,3.97-26.61-.05-.89.52-2.18-.78-1.97-8.92,14.27-24.93,24.96-40.52,30.96l-28.6-52.4Z"/>
    <path class="st6" d="M879.75,280.39c-10.78-12.8-17.93-33.6-7.09-48.41,2.58-3.53,6.16-2.22.27-7.49-7.74-6.92-23.25-15.81-32.55-21.45-24.96-15.13-58.2-32.22-87.73-34.59-.87-.07-2.96-.59-2.76.77,19.25,8.24,31.27,27.54,37.33,46.85.13,1.5-.13,2.03-.79,1.59-6.02-6.8-10.78-13.14-17.9-19.03-23.76-19.67-56.04-31.18-86.96-30.99,3.84,27.53-15.41,48.66-37.32,61.93-.93-1.17,5.27-12.78,5.94-15.09,11.78-40.33-47.89-96.15-80.87-111.29-15.32-7.03-35.99.02-44.23,14.43-.97.66-1.5,1.45-1.59,2.38-1.97,2.23-3.75,5.04-5.05,7.76-6.57,13.79-12.68,35.08-16.91,50.16-8.14,29.05-14.13,54.54-14.64,84.98-.01.78.26,1.57.54,2.39.28.82.68,1.61,1.1,2.38,10.35,8.48,16.28,10.42,27.56,16.52.74.4,1.75.77,1.83,1.74-11.45,2.13-23.3,3.69-34.83,1.08-4.47-1.01-8.34-3.29-12.83-4.24-1.53.08-2.51-.74-3.41.98-1.99,3.83-3.03,9.92-4.53,14.1.76.76,17.46-7.72,20.26-7.61.87.03,10.55,4.97,12.07,5.87.56.33,2.19.89,1.44,1.75-15.21,7.15-30.65,14.08-45.43,22.09-12.61,6.83-23.55,14.1-35.21,22.37l-.79,1.59c-.8.27-1.39,1-.79,1.59-.65.68-1.28,1.38-1.81,2.14-.52.75-1.03,1.48-1.29,2.29-16.39,49.72-20.65,98.93-9.8,150.44.18.83.59,1.62,1.03,2.41.44.81.99,1.56,1.56,2.3,2.9-.35,5.78-1.03,8.74-.79-.45,7.48-3.43,17.37-3.17,24.61.14,3.85,2.3,7.91,2.97,11.72l8.14,23.21c1.21-20.25,4.58-40.14,9.77-59.71,4.89-18.47,11.15-37.16,16.86-55.4,36.94-118.06,136.92-179.76,252.99-205.25,22.2-4.88,44.7-5.3,65.94,3.58.35-.28.36-.55,0-.79-7.73-12.6-23.52-28.48-35.5-37.17-4.71-3.42-9.99-6.07-14.55-9.67,20.24.64,44.56,12.36,59.59,25.78,10.08,9.01,20.04,26.15,32.8,30.73,18.64,6.68,12.9-20.47,9.68-30.32l-7.95-21.43c16.46,13.42,32.49,44.87,27.17,66.06-2.35,9.36-10.16,16.34-19.62,18.1-2.04.46-2.31.98-.79,1.59,6,2.91,10.78,8.92,15.07,13.91,11.71,13.64,21.13,29.22,31.77,43.67.84.8.96.69,1.66-.13,2.26-2.64,3.29-4.43,6.31-6.64l.79-.79h.79l.79-.79,1.77.61c20.25-12.79,41.61-11,63.58-7.4.58.1,1.08-.55,1.38-1.15-17.08-20-43.83-30.7-60.78-50.8ZM613.77,235.64c-1.94,1.93-11.85,10.51-14,9.45-3.15-1.55-8.98-14.79-10.12-18.53-3.26-10.67-3.28-21.75-4.59-32.72-15.57,16.14-22.46,40.12-21.04,62.31.11,1.78,1.84,6.6,1.21,7.56-1.72,2.63-2.83-1.59-4.07-3.12-2.37-2.92-6.18-6.39-8.14-9.33-4.68-7.02-6.26-15.55-9.27-23.27-6.37,10.01-11.43,20.99-15.5,32.13-1.21,3.3-1.69,7.69-2.98,10.52-.38.83-.7,2.03-1.77,1-1.65-1.59-3.85-17.84-4.02-21-1.31-24.14,7.93-62.25,15.17-85.73,21.64-70.12,79.66-21.46,93.9,23.55,6.22,19.68-.73,33.23-14.79,47.18Z"/>
    <path class="st10" d="M899.92,244.56c-.12.21-3.22,1.6-4.25,2.5-1.46,1.26-3.62,3.27-4.79,4.73-3.05,3.81-3.97,11.12-7.89,5.53-5.29-7.55-.96-22.45,9.92-19.44,1.85.51,8.39,4.33,7.02,6.68Z"/>
  </g>
  <g>
    <path class="st4" d="M940.53,331.19c1.44.7,6.86,6.09,7.94,7.54,4.49,6.04,3.9,13.98,2.38,21.04-.23.69-.49.68-.79,0-.39-1.21-2.03-6.72-2.51-7.01-6.29-3.82-7.66,12.5-6.02,16.73.49,1.26,2.31,2.16,2.13,3.27s-12.19,10.3-13.87,10.82c-1.99.61-1.07-4.28-1.28-5.84-.45-3.44-1.25-6.73-2.28-10.03-1.34-.15-1.22-2.06-.79-3.18-.87-.58-1.14-.58-.79,0,.54,1.6.8,3.45.79,5.56-.42,2.72-.98,13.53-2.88,14.19-2.22.77-14.46-1.45-17.47-2.18-2.24-.54-4.49-1.26-6.63-2.1-.86-.34-10.37-4.47-8.75-5.94,8.97-.54,16.56-5.87,11.75-15.35-6.65-13.08-18.11,2.39-19.7,10.58-13.43-4.17-14.27-15.34-9.52-27l.79-.79c.11-.21-.11-.59,0-.79l.79-1.59c1.63-1.6,7.69-4.5,10.04-5.44,11.73-4.74,26.2-6.5,38.8-5.66,3.8.25,14.81,1.67,17.88,3.17Z"/>
    <path class="st4" d="M914.31,497.13c-1.03,1.05-1.31.6-.79-.79.98-10.09,1.49-20.24-.8-30.17-2.57.36-3.07,2.65-6,3.12-3.6.59-6.3-.71-9.46-.78-13.53-.28-27.06.35-40.14,4l-1.59-10.32c-4.44,10.12-9.44,20.73-16.04,29.62-1.18,1.59-13.22,15.98-14.94,14.04l1.62-25.76-1.62-23.46c14.03,2.14,29.31.31,43.06-3.4,14.27-3.86,21.41-10.02,37.34-7.5,3.75.59,24.15,6.22,25.11,9.04,1.61,4.73-2.12,18.51-4.03,23.5-2.71,7.08-6.86,13.12-11.73,18.85Z"/>
    <path class="st4" d="M781.66,293.87c-30.05,9.19-63.73-2.31-73.08-34.12,30.09-7.88,62.3,3.48,73.08,34.12Z"/>
    <path class="st4" d="M583.87,300.23c29-20.83,68.13-31.89,103.22-36.51,2.27,6.4,6.81,11.74,10.37,17.45-5.6.08-11.12,1.2-16.68,1.6-31.08,2.18-67.5,7.56-96.91,18.26-.44-.24-.43-.5,0-.79Z"/>
    <path class="st4" d="M875.39,579.7c-1.61,14.83-6.56,29.69-16.65,40.89-11.92-3.4-24.54-4.28-36.96-3.57-6.08.35-12.99,2.19-19.04,2.41-1.17.04-5.9.31-5.97-1.22-.05-.98,10.22-13.29,9.61-16.98,18.29,3.53,37.93,2.21,53.54-8.81,4.71-3.33,8.63-8.1,13.08-11.54.8-.61,1.01-1.54,2.38-1.18Z"/>
    <path class="st4" d="M801.52,575.73v18.66c0,2.19-2.26,9.47-3.16,11.93-2.07,5.68-8.87,16.9-15.06,18.32-7.43,1.71-24.46-10.3-28.65-16.74,14.03-5.32,26.22-13.9,37.35-23.82,3.03-2.7,5.75-6.96,9.52-8.35Z"/>
    <path class="st5" d="M911.93,287.52c-9.66-.8-8.17-9.03-9.91-15.89-.75-2.95-2.85-5.52-2.79-8.71,10.6,2.18,12.88,15.34,12.7,24.61Z"/>
    <path class="st4" d="M884.39,380.55c-12.39-7.04-14.15-9.71-23.26-19.63-2.48-2.7-16.81-16.54-19.1-17.83-7.6-5.88-18.94-9.02-28.61-11.47-35.11-8.88-63.91-15.69-100.63-14.96-18.62.37-45.35,2.24-62.91,7.66-2.04.63-3.91,1.64-5.64,2.89-.68.3-.69.57,0,.79-.05.57-.31,1.1-.79,1.59-62.71,31.93-115.45,69.14-152.36,130.76-7.71,12.88-23.63,43.71-25.5,57.87-1.4,10.6.27,27.85,1.63,38.72,1.79,14.22,5.42,28.09,9.42,41.8,32.53-13.31,69.53-11.53,98.78,8.65,4.44-4.71,9.11-7.14,15.44-8.42,9.93-2,24.7-1.33,35.11-1.03l-.31-2.84c-5.26-5.96-11.78-10.57-18.39-14.9,21.01,3.84,39.21,17.92,53.65,32.83,17.73,17.93,21.65,34.38,30.15,56.8,3.58,9.45,14.62,21.43,25.14,22.55,6.84.73,22.14-5.48,28.65-8.55,4.16-1.97,7.86-4.83,12.17-6.49l-4.43,9.46-13.04,18.32c16.98.71,34.19-1.84,50.04-7.94l.94-1.6c-8.87-16.25-17.74-32.51-26.61-48.77l-2.92-2.04c-47.04-12.6-89.1-78.76-94.43-125.15-5.27-45.93,20.21-101.84,67.32-114.73.2-20.78,6.04-40.64,23.21-53.42,10.45-7.78,29.3-15.63,42.44-13.97,1.11.14,2.3.43,1.17,1.58-17.42,6.89-35.9,17.95-42.48,36.55-5.03,14.21-.56,39.14,11.57,48.74,27.05,21.42,118.41,17.98,135.63-15.95,9.25-18.24-8.91-21.01-21.05-27.91ZM793.23,397.91c-3.5-.49-3.86-6.28-1.53-7.05,8.03-2.67,7.65,7.9,1.53,7.05ZM801.75,380.18c-5.83-4.7,2.77-14,8.1-8.48,4.49,4.65-2.07,13.34-8.1,8.48ZM821.18,405.63c-4.85,4.93-10.35-7.49-2.64-6.92,3.85.28,4.91,4.61,2.64,6.92ZM835.39,389.66c-6.83,6.82-17.26-3.25-10.86-10.46,6.33-7.12,18.21,3.11,10.86,10.46ZM844.8,412.26c-4.33-.22-4.32-6.1-1.45-7.1,6.65-2.34,8.49,7.47,1.45,7.1ZM851.81,396.04c-6.47-5.9,1.78-17.96,10.14-11.32,7.48,5.95-2.72,18.09-10.14,11.32Z"/>
    <path class="st4" d="M968.33,390.74c.17-9.93-2.84-19.45-6.36-28.58-1.49-.31-1.92.75-2.71,1.65-5.73,6.53-7.62,14.04-15.18,20.56-2.81,2.42-10.35,6.32-11.83,8.82-1.93,3.23-1.76,11.32-3.26,15.8-1.17,3.5-8.43,13.51-7.17,15.89,1.05,1.98,7.5,3.92,9.81,4.54,6.67,1.77,18.22,3.83,24.26.1,9.61-5.93,11.44-21.39,12.44-31.62-8.87,2.87-9.06-9.88,0-7.15ZM949.29,403.91c-6.95,2.12-9.03-8.36-4.25-9.84,8.85-2.73,10.73,7.86,4.25,9.84ZM955.9,415.26c-5.77,1.91-3.83-8.52,1.21-5.36,1.23.77.66,4.74-1.21,5.36Z"/>
    <path class="st4" d="M523.5,120c-6.17,13.19-12.33,32.85-16.89,47.03-10.41,32.34-18.88,66.41-18.06,100.65-4.32-3.54-18.19-15.7-18.7-21-.7-7.26,7.26-27.91,10.15-35.59,8.37-22.28,19.39-50.84,29.62-72.02,2.93-6.07,8.62-14.01,13.1-19.07h.79Z"/>
  </g>
  <g>
    <g>
      <path class="st3" d="M635.31,626.73l.63,128.47c-.63,1.93-1.29,2.16-3.17,2.39-11.09,1.32-25.02-.94-36.42-.2l-1.75-1.42-.26-128.1c.27-.82.92-1.19,1.65-1.53,2.4-1.12,30.67-.99,35.19-.62,1.45.12,2.91.12,4.15,1.01Z"/>
      <path class="st3" d="M584.27,682.11l-2.41-1.56-37.71.37c-.97.55-1.36,1.35-1.56,2.41-1.56,8.32,3.24,17.33-3.56,24.23-20.57,20.87-56.13-.73-45.53-29.63,6.78-18.48,31.72-22.95,45.53-9.34,1.97,1.94,3.85,6.98,6.8,6.77l31.73-13.44c8.62-3.49,1.64-11.22-2.1-16.25-22.02-29.66-65.37-36.82-95.9-15.8-9.76,6.72-16.7,15.45-23.18,25.24-36.45-64.76-134.14-39.74-133.45,34.96l-27.85-64.27c-4.02-5.6-10.85-5.67-14.99,0-5.84,8.01-10.67,26.18-15.64,35.97-.52,1.03-.93,2.12-1.88,2.86l-17.21-38.36c-3.15-5.23-10.01-6.44-14.2-1.75-19.24,41.15-36.24,83.67-53.96,125.57-.57,3.69,2.14,4.04,5.1,4.31,4.37.39,32.88.46,35.2-.62,1.42-.66,2.73-3.06,3.5-4.44,4.27-7.7,7.98-21.24,12.7-27.79,3.42-4.76,5.29.03,7.67,3.19,3.52,4.67,16.92,27.64,20.73,28.48,1.49.33,2.72-1.11,3.6-2.08,7.46-8.18,13.37-21.52,20.39-30.42,1.03-1.83,3.51-1.92,4.59,0,5.08,8.55,8.05,21.45,13.44,29.44,1.11,1.64,2.14,3.12,4.08,3.86l37.6.19c1.19-.6,2.81-1.86,2.79-3.25-.02-1.45-3.72-9.42-4.61-11.67-.38-.46-.62-.98,0-.79,9.92,7.32,16.99,13.62,29.4,17.06,28.79,7.99,56.08-.86,75.07-23.41l8.32-11.91c13.56,26.67,40.42,40.68,70.3,38.09,3.63-.32,11.27-3.09,14.18-2.41,2.16.51-.13,8.76,4.13,8.75l37.18-.11,1.53-1.64c1.1-26.78.72-53.98.19-80.8ZM396.72,715.38c-35.82,3.92-41.94-50.47-6.85-54.47,37.74-4.3,41.67,50.66,6.85,54.47Z"/>
    </g>
    <g>
      <path class="st8" d="M353.51,809.15c-3.56,8.23,13.4,8,11.6,1.56-1.52-5.45-18.74-4.37-20.29-13.91-1.42-8.77,3.06-15.69,11.66-17.63,10.03-2.27,26.37-.62,23.07,13.53-1.21,5.17-8.46,2.24-12.53,2.95,5.11-9.56-12.52-9.69-10.2-2.14,1.72,5.62,20.68,2.53,20.44,15.96s-12.22,16.51-23.34,15.55c-9.99-.86-14.58-5.72-12.33-15.87h11.92Z"/>
      <path class="st8" d="M440.09,778.98c.62,6.23-7.15,30.68-4.05,34.61,2.09,2.65,10.07,1.13,10.8-2.86l5.96-31.76h11.12c-1.48,9.59-2.49,20.32-4.87,29.67-2.73,10.75-7.69,16.05-19.32,16.42-28.18.88-11.48-30.04-10.76-46.09h11.12Z"/>
      <path class="st8" d="M502.84,778.98l-1.63,10.28c-.85.82-16.46-.83-19.32.14-1.74.59-1.83,5.96-2.09,7.84h16.68l-1.6,9.52c-.62.64-13.7-.71-16.17.12-1.9.64-1.22,5.15-2.09,7.04h19.86l-1.59,10.32h-30.58c-.25,0-1.29-1.04-.88-1.63l7.63-43.62h31.77Z"/>
      <path class="st8" d="M582.28,778.98l-1.67,10.24c-1.12.95-16.21-.83-19.27.19-1.85.62-1.46,5.87-2.09,7.83h16.68l-1.6,9.52c-.66.68-15.07-.83-16.56.11-.92.58-.69,5.69-1.7,7.04h19.86l-1.59,10.32h-30.98l7.15-45.26h31.77Z"/>
      <path class="st8" d="M547.33,778.98l-1.63,10.28-15.85.04c-1.51,10.07-2.61,21.31-4.99,31.14-.29,1.18-.5,3.23-1.87,3.69-1.45.49-10.12.56-10.41-1.04l6.15-33.78h-15.09l1.59-10.32h42.1Z"/>
      <path class="st1" d="M295.52,801.21v.79c-.41-.25-1.6.45-1.6-.4-.01-.83,1.25-.19,1.6-.4Z"/>
      <path class="st8" d="M420.05,786.7c-2.44-11.82-25.82-10.21-32.25-.84-3.17,4.62-7.17,24.43-6.13,29.69.74,3.74,2.75,6.53,6.23,8.08,1.11.49,3.24.43,3.61.75.27.23,1.39,5.14,2.36,6.78,3.4,5.76,11.4,7.52,17.64,7.38-.26-1.51.34-9.2,0-9.54-.2-.2-3.98.12-5.6-.36-1.25-.37-5.38-2.86-3.94-4.4.47-.5,7.87-.39,11.78-6.09,3.44-5.01,7.49-25.71,6.31-31.44ZM403.08,813.84c-1.86,1.19-7.35,1.41-8.87-.11-.89-.89-.99-2.81-.93-4.05.16-3.17,2.37-15.2,3.75-17.76,2.17-4.01,9.05-5.07,10.87-1.01,1.27,2.84-2.1,21.19-4.82,22.93Z"/>
      <path class="st8" d="M295.52,802c-.6-.03-.6-.3,0-.79,5.57-3.37,7.81-15.53,2.81-19.88-5.11-4.43-21.45-1.51-28.19-2.31l-7.67,43.58c-.41.59.63,1.63.88,1.63h23.83c1.01,0,6.94-2.97,7.95-3.97,4.49-4.47,6.71-14.45.4-18.26ZM275.67,813.91c.61-1.43.92-7.34,1.7-7.83,1.1-.69,8.83-.52,9.83,1.48,3.26,6.56-7.43,6.99-11.52,6.35ZM278.84,798.03c.36-1.37.49-8.42.79-8.74.29-.31,7.68-.28,8.39.75,3.67,5.31-4.3,9.71-9.19,7.99Z"/>
      <path class="st8" d="M336.03,778.98h-20.26l-16.28,45.26h11.52c2.27-1.75,1.72-7.02,3.16-8.75,1.44-1.72,8.3-.36,10.74-.78-2.89,11.63,1.89,10.5,11.57,8.78l-.45-44.51ZM324.92,805.98c-.29.29-5.9-.21-7.15,0,.38-2.12,3.43-15.26,4.05-15.79.52-.44,2.91.08,3.89-.09-.25,1.99-.23,15.32-.79,15.89Z"/>
    </g>
  </g>
</svg>