<?xml version="1.0" encoding="UTF-8"?>
<!DOCTYPE svg PUBLIC "-//W3C//DTD SVG 1.1//EN" "http://www.w3.org/Graphics/SVG/1.1/DTD/svg11.dtd">
<svg xmlns="http://www.w3.org/2000/svg" version="1.1" width="402px" height="430px" style="shape-rendering:geometricPrecision; text-rendering:geometricPrecision; image-rendering:optimizeQuality; fill-rule:evenodd; clip-rule:evenodd" xmlns:xlink="http://www.w3.org/1999/xlink">
<g><path style="opacity:0.036" fill="#15325a" d="M 347.5,17.5 C 344.036,14.5375 340.703,11.3709 337.5,8C 292.168,7.50001 246.835,7.33334 201.5,7.5C 208.497,5.66325 215.664,3.99658 223,2.5C 258,3.83333 293,3.83333 328,2.5C 332.843,4.68462 337.676,6.85128 342.5,9C 344.82,11.4778 346.486,14.3111 347.5,17.5 Z"/></g>
<g><path style="opacity:0.946" fill="#fe9b00" d="M 201.5,7.5 C 246.835,7.33334 292.168,7.50001 337.5,8C 340.703,11.3709 344.036,14.5375 347.5,17.5C 355.833,26.1667 364.167,34.8333 372.5,43.5C 373.545,44.8776 374.878,45.8776 376.5,46.5C 376.427,48.0269 377.094,49.0269 378.5,49.5C 382.048,53.4157 385.715,57.249 389.5,61C 368.641,85.8921 357.808,114.725 357,147.5C 356.297,160.524 356.631,173.524 358,186.5C 361.545,209.434 364.545,232.434 367,255.5C 368.487,275.966 366.154,295.966 360,315.5C 353.4,329.43 343.9,340.93 331.5,350C 306.512,364.442 280.512,376.775 253.5,387C 233.441,395.017 215.774,406.517 200.5,421.5C 192.903,413.072 184.236,405.906 174.5,400C 146.953,387.059 119.286,374.393 91.5,362C 73.0288,354.189 58.1954,342.022 47,325.5C 42.7073,318.254 39.5406,310.588 37.5,302.5C 35.0374,287.609 34.0374,272.609 34.5,257.5C 36.9641,233.417 40.1308,209.417 44,185.5C 46.6476,158.797 44.6476,132.464 38,106.5C 32.4633,89.5853 23.9633,74.4186 12.5,61C 15.9899,56.6768 19.6566,52.5102 23.5,48.5C 29.8333,42.8333 35.8333,36.8333 41.5,30.5C 49.2983,23.2025 56.9649,15.7025 64.5,8C 109.029,7.82563 153.529,7.32563 198,6.5C 199.138,6.98913 200.305,7.32246 201.5,7.5 Z M 221.5,222.5 C 223.38,222.229 224.713,222.896 225.5,224.5C 223.62,224.771 222.287,224.104 221.5,222.5 Z"/></g>
<g><path style="opacity:1" fill="#16325a" d="M 226.5,173.5 C 230.417,171.588 234.083,169.255 237.5,166.5C 237.5,204.833 237.5,243.167 237.5,281.5C 235.53,278.672 233.697,275.672 232,272.5C 230.202,270.028 227.868,268.361 225,267.5C 226.156,265.907 227.322,264.073 228.5,262C 225.382,257.603 222.382,253.103 219.5,248.5C 219.667,248.167 219.833,247.833 220,247.5C 223.314,251.648 226.814,255.648 230.5,259.5C 231.276,256.014 231.942,252.514 232.5,249C 229.656,245.653 226.989,242.153 224.5,238.5C 225.002,237.479 225.668,237.312 226.5,238C 227.851,241.195 230.185,243.028 233.5,243.5C 233.649,242.448 233.483,241.448 233,240.5C 229.353,238.021 226.187,235.021 223.5,231.5C 223.833,231.167 224.167,230.833 224.5,230.5C 227.047,234.06 230.38,236.394 234.5,237.5C 232.346,233.546 229.013,230.713 224.5,229C 219.699,225.276 215.365,221.109 211.5,216.5C 212.716,215.904 214.049,215.737 215.5,216C 211.919,212.252 208.919,208.085 206.5,203.5C 207.833,203.167 209.167,202.833 210.5,202.5C 206.826,198.071 204.492,193.071 203.5,187.5C 206.383,190.157 207.05,189.49 205.5,185.5C 204.817,185.863 204.15,186.196 203.5,186.5C 200.147,183.796 198.48,180.462 198.5,176.5C 199.584,177.665 200.417,178.998 201,180.5C 201.654,181.696 202.154,181.696 202.5,180.5C 199.617,175.401 197.283,170.067 195.5,164.5C 196.53,164.446 197.697,164.112 199,163.5C 201.836,155.353 203.169,147.019 203,138.5C 201.271,132.239 198.938,126.239 196,120.5C 192.297,117.133 188.964,113.466 186,109.5C 185.218,106.743 185.718,104.243 187.5,102C 184.856,104.003 182.356,103.503 180,100.5C 178.916,101.665 178.083,102.998 177.5,104.5C 178.274,105.711 179.107,105.711 180,104.5C 180,105.833 180,107.167 180,108.5C 186.425,114.921 192.091,121.921 197,129.5C 198.993,140.057 196.16,148.89 188.5,156C 185.206,155.462 181.873,155.129 178.5,155C 177.889,166.704 179.889,178.037 184.5,189C 183.258,189.311 182.258,188.811 181.5,187.5C 181.167,187.833 180.833,188.167 180.5,188.5C 182.368,193.437 184.035,198.437 185.5,203.5C 184.689,204.216 184.022,205.05 183.5,206C 185.927,216.014 189.594,225.514 194.5,234.5C 195.251,233.624 195.751,232.624 196,231.5C 197.822,237.098 199.322,242.765 200.5,248.5C 199.167,248.5 197.833,248.5 196.5,248.5C 196.704,251.518 197.037,254.518 197.5,257.5C 196.074,255.321 195.408,252.821 195.5,250C 195.968,247.143 196.134,244.309 196,241.5C 192.953,235.701 190.286,229.701 188,223.5C 188.341,229.546 189.341,235.546 191,241.5C 192.451,247.639 191.284,253.139 187.5,258C 184.761,259.026 182.428,260.526 180.5,262.5C 180.167,259.5 181.5,258.167 184.5,258.5C 184.667,243.83 184.5,229.163 184,214.5C 183.902,211.478 183.068,208.811 181.5,206.5C 181.875,203.093 180.875,202.593 178.5,205C 136,236.167 93.5,267.333 51,298.5C 47.5823,286.993 46.0823,275.16 46.5,263C 46.5493,254.472 47.0493,245.972 48,237.5C 51.3222,216.579 53.9888,195.579 56,174.5C 59.697,133.784 50.197,96.6174 27.5,63C 43.1295,47.038 59.1295,31.3714 75.5,16C 158.833,15.3333 242.167,15.3333 325.5,16C 341.532,31.6997 357.865,47.033 374.5,62C 325.521,98.489 276.188,134.489 226.5,170C 225.316,171.145 225.316,172.312 226.5,173.5 Z M 221.5,222.5 C 223.38,222.229 224.713,222.896 225.5,224.5C 223.62,224.771 222.287,224.104 221.5,222.5 Z"/></g>
<g><path style="opacity:0.01" fill="#15325a" d="M 41.5,30.5 C 35.8333,36.8333 29.8333,42.8333 23.5,48.5C 27.8333,40.8333 33.8333,34.8333 41.5,30.5 Z"/></g>
<g><path style="opacity:1" fill="#e2e4e8" d="M 94.5,52.5 C 94.6658,47.8215 94.4992,43.1548 94,38.5C 92.9914,40.0249 92.4914,41.6916 92.5,43.5C 91.8333,46.5 91.1667,49.5 90.5,52.5C 89.325,52.719 88.325,52.3857 87.5,51.5C 86.3345,47.5057 85.1679,43.5057 84,39.5C 83.501,43.8206 83.3343,48.1539 83.5,52.5C 82.5,52.5 81.5,52.5 80.5,52.5C 80.5,46.5 80.5,40.5 80.5,34.5C 82.5,34.5 84.5,34.5 86.5,34.5C 87.2221,38.506 88.0555,42.506 89,46.5C 90.2695,42.8586 91.4361,39.1919 92.5,35.5C 94.0453,34.5481 95.712,34.2148 97.5,34.5C 97.5,40.5 97.5,46.5 97.5,52.5C 96.5,52.5 95.5,52.5 94.5,52.5 Z"/></g>
<g><path style="opacity:1" fill="#e3e5e9" d="M 103.5,34.5 C 111.955,34.696 115.122,39.0293 113,47.5C 109.819,53.2524 105.819,53.9191 101,49.5C 100.333,45.5 100.333,41.5 101,37.5C 102.045,36.6266 102.878,35.6266 103.5,34.5 Z"/></g>
<g><path style="opacity:1" fill="#e6e8eb" d="M 115.5,34.5 C 117.144,34.2865 118.644,34.6198 120,35.5C 123.855,47.7285 125.355,47.3951 124.5,34.5C 125.5,34.5 126.5,34.5 127.5,34.5C 127.5,40.5 127.5,46.5 127.5,52.5C 125.408,52.4386 123.908,51.4386 123,49.5C 118.888,37.998 117.388,38.998 118.5,52.5C 117.5,52.5 116.5,52.5 115.5,52.5C 115.5,46.5 115.5,40.5 115.5,34.5 Z"/></g>
<g><path style="opacity:1" fill="#e5e6ea" d="M 134.5,34.5 C 136.451,34.2267 137.951,34.8934 139,36.5C 140.487,41.7788 141.653,47.1121 142.5,52.5C 139.53,52.2542 138.197,50.5876 138.5,47.5C 136.833,47.5 135.167,47.5 133.5,47.5C 133.803,50.5876 132.47,52.2542 129.5,52.5C 130.764,46.3758 132.431,40.3758 134.5,34.5 Z"/></g>
<g><path style="opacity:1" fill="#e3e5e9" d="M 147.5,34.5 C 152.709,33.3961 155.709,35.3961 156.5,40.5C 154.176,40.3385 152.509,39.1718 151.5,37C 150.216,36.3162 149.049,36.4829 148,37.5C 147.333,41.5 147.333,45.5 148,49.5C 151.537,50.8183 153.371,49.485 153.5,45.5C 152.325,45.719 151.325,45.3857 150.5,44.5C 152.396,43.5344 154.396,43.2011 156.5,43.5C 156.817,46.5719 156.484,49.5719 155.5,52.5C 152.604,52.2934 149.604,52.1267 146.5,52C 142.236,45.8309 142.569,39.9976 147.5,34.5 Z"/></g>
<g><path style="opacity:1" fill="#e5e6ea" d="M 163.5,34.5 C 165.451,34.2267 166.951,34.8934 168,36.5C 169.487,41.7788 170.653,47.1121 171.5,52.5C 168.53,52.2542 167.197,50.5876 167.5,47.5C 165.833,47.5 164.167,47.5 162.5,47.5C 162.803,50.5876 161.47,52.2542 158.5,52.5C 159.764,46.3758 161.431,40.3758 163.5,34.5 Z"/></g>
<g><path style="opacity:1" fill="#e5e7ea" d="M 175.5,34.5 C 180.175,33.3395 182.841,35.0061 183.5,39.5C 181.328,38.1989 178.995,37.1989 176.5,36.5C 176.343,37.8734 176.51,39.2068 177,40.5C 179.627,41.3136 181.96,42.6469 184,44.5C 184.494,51.3241 181.328,53.8241 174.5,52C 173.139,50.4157 172.472,48.5824 172.5,46.5C 173.5,46.5 174.5,46.5 175.5,46.5C 175.408,50.0714 177.074,51.2381 180.5,50C 181.022,49.4387 181.355,48.772 181.5,48C 178.897,45.6611 176.063,43.4944 173,41.5C 172.333,40.1667 172.333,38.8333 173,37.5C 174.045,36.6266 174.878,35.6266 175.5,34.5 Z"/></g>
<g><path style="opacity:1" fill="#e5e7ea" d="M 194.5,34.5 C 199.175,33.3395 201.841,35.0061 202.5,39.5C 200.328,38.1989 197.995,37.1989 195.5,36.5C 195.343,37.8734 195.51,39.2068 196,40.5C 198.627,41.3136 200.96,42.6469 203,44.5C 203.494,51.3241 200.328,53.8241 193.5,52C 192.139,50.4157 191.472,48.5824 191.5,46.5C 192.5,46.5 193.5,46.5 194.5,46.5C 194.408,50.0714 196.074,51.2381 199.5,50C 200.022,49.4387 200.355,48.772 200.5,48C 197.897,45.6611 195.063,43.4944 192,41.5C 191.333,40.1667 191.333,38.8333 192,37.5C 193.045,36.6266 193.878,35.6266 194.5,34.5 Z"/></g>
<g><path style="opacity:1" fill="#e1e3e7" d="M 205.5,34.5 C 209.839,33.8461 213.673,34.8461 217,37.5C 217.877,43.1276 215.377,45.7943 209.5,45.5C 209.5,47.8333 209.5,50.1667 209.5,52.5C 208.167,52.5 206.833,52.5 205.5,52.5C 205.5,46.5 205.5,40.5 205.5,34.5 Z"/></g>
<g><path style="opacity:1" fill="#e7e8ec" d="M 221.5,34.5 C 225.684,33.7036 228.85,35.037 231,38.5C 231.667,41.8333 231.667,45.1667 231,48.5C 228.947,52.2916 225.781,53.4582 221.5,52C 217.524,46.1004 217.524,40.267 221.5,34.5 Z"/></g>
<g><path style="opacity:1" fill="#f0f1f3" d="M 234.5,34.5 C 238.257,34.0708 241.757,34.7375 245,36.5C 245.895,39.4663 245.395,42.1329 243.5,44.5C 244.695,46.7513 245.695,49.0846 246.5,51.5C 245.311,52.4287 243.978,52.762 242.5,52.5C 242.162,50.146 241.662,47.8127 241,45.5C 239.989,44.6634 238.822,44.33 237.5,44.5C 237.5,47.1667 237.5,49.8333 237.5,52.5C 236.5,52.5 235.5,52.5 234.5,52.5C 234.5,46.5 234.5,40.5 234.5,34.5 Z"/></g>
<g><path style="opacity:1" fill="#dadde2" d="M 246.5,34.5 C 250.555,34.1758 254.555,34.5091 258.5,35.5C 257.311,36.4287 255.978,36.762 254.5,36.5C 254.5,41.8333 254.5,47.1667 254.5,52.5C 253.167,52.5 251.833,52.5 250.5,52.5C 250.5,47.1667 250.5,41.8333 250.5,36.5C 248.517,36.8432 247.183,36.1765 246.5,34.5 Z"/></g>
<g><path style="opacity:1" fill="#e1e3e7" d="M 267.5,34.5 C 273.008,33.6777 275.675,36.0111 275.5,41.5C 274.5,41.5 273.5,41.5 272.5,41.5C 273.263,37.8622 271.93,36.3622 268.5,37C 267.167,41.3333 267.167,45.6667 268.5,50C 271.49,50.8469 272.824,49.6802 272.5,46.5C 273.5,46.5 274.5,46.5 275.5,46.5C 275.822,48.7224 275.155,50.5557 273.5,52C 266.526,53.5983 263.193,50.765 263.5,43.5C 262.985,39.5396 264.318,36.5396 267.5,34.5 Z"/></g>
<g><path style="opacity:1" fill="#f3f3f5" d="M 278.5,34.5 C 279.5,34.5 280.5,34.5 281.5,34.5C 281.5,39.8333 281.5,45.1667 281.5,50.5C 283.924,50.1924 286.257,50.5258 288.5,51.5C 285.232,52.487 281.898,52.8204 278.5,52.5C 278.5,46.5 278.5,40.5 278.5,34.5 Z"/></g>
<g><path style="opacity:1" fill="#eff1f3" d="M 289.5,34.5 C 290.5,34.5 291.5,34.5 292.5,34.5C 292.334,39.1785 292.501,43.8452 293,48.5C 294.396,50.5268 296.062,50.8602 298,49.5C 298.499,44.5111 298.666,39.5111 298.5,34.5C 299.5,34.5 300.5,34.5 301.5,34.5C 301.666,39.5111 301.499,44.5111 301,49.5C 297.531,52.9163 293.864,53.2496 290,50.5C 289.501,45.1771 289.334,39.8437 289.5,34.5 Z"/></g>
<g><path style="opacity:1" fill="#e1e3e7" d="M 303.5,34.5 C 306.85,34.335 310.183,34.5017 313.5,35C 315.751,37.0158 316.084,39.3492 314.5,42C 317.387,45.6671 317.054,49.0004 313.5,52C 310.183,52.4983 306.85,52.665 303.5,52.5C 303.5,46.5 303.5,40.5 303.5,34.5 Z"/></g>
<g><path style="opacity:1" fill="#1d365d" d="M 105.5,36.5 C 106.822,36.33 107.989,36.6634 109,37.5C 109.667,41.1667 109.667,44.8333 109,48.5C 107.451,51.0026 105.784,51.0026 104,48.5C 102.994,44.1985 103.494,40.1985 105.5,36.5 Z"/></g>
<g><path style="opacity:1" fill="#15325a" d="M 209.5,36.5 C 213.473,37.0755 214.473,39.2421 212.5,43C 211.552,43.4828 210.552,43.6495 209.5,43.5C 209.5,41.1667 209.5,38.8333 209.5,36.5 Z"/></g>
<g><path style="opacity:1" fill="#233a60" d="M 223.5,36.5 C 227.305,36.6425 228.971,38.6425 228.5,42.5C 228.406,44.9228 227.906,47.2562 227,49.5C 225.667,50.8333 224.333,50.8333 223,49.5C 220.965,45.0595 221.132,40.7261 223.5,36.5 Z"/></g>
<g><path style="opacity:1" fill="#293f64" d="M 237.5,36.5 C 242.159,36.0146 243.492,37.848 241.5,42C 240.207,42.49 238.873,42.6567 237.5,42.5C 237.5,40.5 237.5,38.5 237.5,36.5 Z"/></g>
<g><path style="opacity:1" fill="#1a355c" d="M 307.5,36.5 C 308.833,36.5 310.167,36.5 311.5,36.5C 312.244,39.9496 310.91,41.6162 307.5,41.5C 307.5,39.8333 307.5,38.1667 307.5,36.5 Z"/></g>
<g><path style="opacity:1" fill="#757f94" d="M 94.5,52.5 C 93.8333,49.5 93.1667,46.5 92.5,43.5C 92.4914,41.6916 92.9914,40.0249 94,38.5C 94.4992,43.1548 94.6658,47.8215 94.5,52.5 Z"/></g>
<g><path style="opacity:1" fill="#253c61" d="M 135.5,38.5 C 136.612,40.5994 137.279,42.9327 137.5,45.5C 136.5,45.5 135.5,45.5 134.5,45.5C 134.993,43.1944 135.326,40.861 135.5,38.5 Z"/></g>
<g><path style="opacity:1" fill="#253c61" d="M 164.5,38.5 C 165.612,40.5994 166.279,42.9327 166.5,45.5C 165.5,45.5 164.5,45.5 163.5,45.5C 163.993,43.1944 164.326,40.861 164.5,38.5 Z"/></g>
<g><path style="opacity:1" fill="#1e375d" d="M 307.5,43.5 C 312.328,43.3852 313.661,45.5519 311.5,50C 310.207,50.49 308.873,50.6567 307.5,50.5C 307.5,48.1667 307.5,45.8333 307.5,43.5 Z"/></g>
<g><path style="opacity:0.004" fill="#15325a" d="M 372.5,43.5 C 374.973,43.0882 376.306,44.0882 376.5,46.5C 374.878,45.8776 373.545,44.8776 372.5,43.5 Z"/></g>
<g><path style="opacity:0.004" fill="#3b4654" d="M 376.5,46.5 C 377.906,46.9731 378.573,47.9731 378.5,49.5C 377.094,49.0269 376.427,48.0269 376.5,46.5 Z"/></g>
<g><path style="opacity:0.999" fill="#16315b" d="M 354.5,97.5 C 354.5,92.1667 354.5,86.8333 354.5,81.5C 357.956,79.2167 361.29,76.7167 364.5,74C 365.332,73.3123 365.998,73.479 366.5,74.5C 362.201,82.1019 358.201,89.7686 354.5,97.5 Z"/></g>
<g><path style="opacity:1" fill="#15315a" d="M 343.5,89.5 C 343.5,164.5 343.5,239.5 343.5,314.5C 342.955,316.593 342.122,318.593 341,320.5C 338.616,324.047 335.783,327.047 332.5,329.5C 332.5,252.167 332.5,174.833 332.5,97.5C 336.167,94.8333 339.833,92.1667 343.5,89.5 Z"/></g>
<g><path style="opacity:1" fill="#d41420" d="M 332.5,97.5 C 332.5,174.833 332.5,252.167 332.5,329.5C 329.5,333.167 326.167,336.5 322.5,339.5C 322.5,261.5 322.5,183.5 322.5,105.5C 325.52,102.484 328.854,99.8171 332.5,97.5 Z"/></g>
<g><path style="opacity:1" fill="#153259" d="M 322.5,105.5 C 322.5,183.5 322.5,261.5 322.5,339.5C 319.287,342.274 315.62,344.274 311.5,345.5C 311.5,268.167 311.5,190.833 311.5,113.5C 314.601,110.067 318.268,107.4 322.5,105.5 Z"/></g>
<g><path style="opacity:1" fill="#d4141f" d="M 311.5,113.5 C 311.5,190.833 311.5,268.167 311.5,345.5C 308.534,347.988 305.201,349.988 301.5,351.5C 301.5,274.5 301.5,197.5 301.5,120.5C 304.475,117.677 307.808,115.344 311.5,113.5 Z"/></g>
<g><path style="opacity:1" fill="#193159" d="M 301.5,120.5 C 301.5,197.5 301.5,274.5 301.5,351.5C 297.957,353.438 294.29,355.105 290.5,356.5C 290.5,280.5 290.5,204.5 290.5,128.5C 293.981,125.591 297.648,122.925 301.5,120.5 Z"/></g>
<g><path style="opacity:1" fill="#f2f3f5" d="M 135.5,69.5 C 136.497,69.4701 137.164,69.9701 137.5,71C 141.504,83.5243 143.837,96.3576 144.5,109.5C 145.675,109.281 146.675,109.614 147.5,110.5C 146.674,111.451 146.508,112.451 147,113.5C 154.744,117.909 161.244,123.742 166.5,131C 170.82,134.503 175.486,137.337 180.5,139.5C 182.102,138.45 182.935,139.117 183,141.5C 184.441,140.13 186.108,139.13 188,138.5C 188.496,136.965 188.33,135.465 187.5,134C 189.116,131.066 190.116,128.232 190.5,125.5C 191.002,124.479 191.668,124.312 192.5,125C 196.02,130.518 196.353,136.185 193.5,142C 194.426,147.646 192.259,151.813 187,154.5C 184.113,154.097 181.779,152.764 180,150.5C 177.957,146.615 176.124,142.615 174.5,138.5C 173.522,138.977 172.689,139.643 172,140.5C 164.54,135.374 158.04,129.207 152.5,122C 150.37,120.739 148.203,120.239 146,120.5C 145.027,118.608 144.36,116.608 144,114.5C 142.933,113.809 141.766,113.309 140.5,113C 142.215,112.223 143.215,110.89 143.5,109C 141.612,99.6686 139.112,90.502 136,81.5C 135.501,77.5138 135.334,73.5138 135.5,69.5 Z"/></g>
<g><path style="opacity:1" fill="#d41420" d="M 290.5,128.5 C 290.5,204.5 290.5,280.5 290.5,356.5C 287.386,358.542 284.052,360.209 280.5,361.5C 280.833,286.331 280.499,211.331 279.5,136.5C 282.952,133.601 286.618,130.934 290.5,128.5 Z"/></g>
<g><path style="opacity:1" fill="#dbe1e7" d="M 201.5,127.5 C 206.267,127.768 208.934,130.268 209.5,135C 207.109,135.691 207.109,136.691 209.5,138C 208.552,138.483 207.552,138.649 206.5,138.5C 206.769,136.571 206.269,134.905 205,133.5C 204.641,136.544 203.974,136.878 203,134.5C 202.338,132.187 201.838,129.854 201.5,127.5 Z"/></g>
<g><path style="opacity:1" fill="#304469" d="M 203.5,129.5 C 206.001,129.826 207.168,131.159 207,133.5C 205.373,132.468 204.207,131.134 203.5,129.5 Z"/></g>
<g><path style="opacity:1" fill="#15325a" d="M 279.5,136.5 C 280.499,211.331 280.833,286.331 280.5,361.5C 276.957,363.438 273.29,365.105 269.5,366.5C 269.5,292.167 269.5,217.833 269.5,143.5C 272.796,141.179 276.129,138.846 279.5,136.5 Z"/></g>
<g><path style="opacity:1" fill="#d41420" d="M 269.5,143.5 C 269.5,217.833 269.5,292.167 269.5,366.5C 265.957,368.438 262.29,370.105 258.5,371.5C 258.5,298.167 258.5,224.833 258.5,151.5C 262.167,148.833 265.833,146.167 269.5,143.5 Z"/></g>
<g><path style="opacity:1" fill="#153259" d="M 258.5,151.5 C 258.5,224.833 258.5,298.167 258.5,371.5C 255.251,373.028 251.918,374.361 248.5,375.5C 248.5,303.5 248.5,231.5 248.5,159.5C 251.52,156.484 254.854,153.817 258.5,151.5 Z"/></g>
<g><path style="opacity:1" fill="#f0f1f3" d="M 224.5,173.5 C 223.761,173.369 223.094,173.536 222.5,174C 224.501,176.325 226.834,178.158 229.5,179.5C 230.81,181.148 232.143,182.814 233.5,184.5C 232.855,185.646 232.022,186.646 231,187.5C 227.907,182.417 223.74,178.917 218.5,177C 223.057,181.054 227.057,185.554 230.5,190.5C 228.667,192.833 226.833,195.167 225,197.5C 224.667,197.167 224.333,196.833 224,196.5C 224.077,197.738 223.911,198.738 223.5,199.5C 221.768,197.717 220.268,195.717 219,193.5C 218.8,196.284 219.634,198.784 221.5,201C 221.167,201.5 220.833,202 220.5,202.5C 217.639,196.712 213.972,191.546 209.5,187C 208.852,185.56 208.519,184.06 208.5,182.5C 207.5,182.5 206.5,182.5 205.5,182.5C 203.955,177.438 202.455,172.438 201,167.5C 204.331,171.492 207.164,175.825 209.5,180.5C 209.833,180 210.167,179.5 210.5,179C 206.694,173.418 204.361,167.252 203.5,160.5C 203.833,159.833 204.167,159.167 204.5,158.5C 209.068,161.9 212.735,166.066 215.5,171C 216.332,171.688 216.998,171.521 217.5,170.5C 216.243,168.321 214.743,166.321 213,164.5C 212.312,163.668 212.479,163.002 213.5,162.5C 217.521,165.854 221.188,169.521 224.5,173.5 Z"/></g>
<g><path style="opacity:1" fill="#d41420" d="M 248.5,159.5 C 248.5,231.5 248.5,303.5 248.5,375.5C 245.021,377.403 241.354,379.07 237.5,380.5C 237.5,357.833 237.5,335.167 237.5,312.5C 240.136,302.137 240.136,291.804 237.5,281.5C 237.5,243.167 237.5,204.833 237.5,166.5C 240.917,163.745 244.583,161.412 248.5,159.5 Z"/></g>
<g><path style="opacity:0.573" fill="#898ea0" d="M 224.5,173.5 C 225.167,173.5 225.833,173.5 226.5,173.5C 228.71,176.423 231.377,178.923 234.5,181C 232.811,180.866 231.144,180.366 229.5,179.5C 226.834,178.158 224.501,176.325 222.5,174C 223.094,173.536 223.761,173.369 224.5,173.5 Z"/></g>
<g><path style="opacity:0.929" fill="#e48d0a" d="M 203.5,187.5 C 203.5,187.167 203.5,186.833 203.5,186.5C 204.15,186.196 204.817,185.863 205.5,185.5C 207.05,189.49 206.383,190.157 203.5,187.5 Z"/></g>
<g><path style="opacity:1" fill="#d31a21" d="M 354.5,81.5 C 354.5,86.8333 354.5,92.1667 354.5,97.5C 344.645,128.134 341.812,159.467 346,191.5C 349.322,210.072 351.988,228.739 354,247.5C 355.436,266.448 353.769,285.115 349,303.5C 347.663,307.507 345.83,311.173 343.5,314.5C 343.5,239.5 343.5,164.5 343.5,89.5C 347.167,86.8333 350.833,84.1667 354.5,81.5 Z"/></g>
<g><path style="opacity:0.988" fill="#d3131f" d="M 225.5,224.5 C 224.713,222.896 223.38,222.229 221.5,222.5C 221.5,221.833 221.167,221.5 220.5,221.5C 220.672,220.508 220.338,219.842 219.5,219.5C 218.313,218.466 217.48,217.133 217,215.5C 216.333,210.167 216.333,204.833 217,199.5C 217.833,201.5 218.667,203.5 219.5,205.5C 222.522,203.312 225.022,200.645 227,197.5C 227.167,202 227.333,206.5 227.5,211C 227.493,215.886 226.826,220.386 225.5,224.5 Z"/></g>
<g><path style="opacity:1" fill="#d21420" d="M 181.5,206.5 C 183.068,208.811 183.902,211.478 184,214.5C 184.5,229.163 184.667,243.83 184.5,258.5C 181.5,258.167 180.167,259.5 180.5,262.5C 178.228,263.441 176.228,264.774 174.5,266.5C 174.5,248.833 174.5,231.167 174.5,213.5C 177.027,211.395 179.36,209.061 181.5,206.5 Z"/></g>
<g><path style="opacity:1" fill="#153259" d="M 174.5,213.5 C 174.5,231.167 174.5,248.833 174.5,266.5C 170.458,270.54 166.791,274.873 163.5,279.5C 163.5,259.833 163.5,240.167 163.5,220.5C 166.917,217.745 170.583,215.412 174.5,213.5 Z"/></g>
<g><path style="opacity:1" fill="#d21521" d="M 163.5,220.5 C 163.5,240.167 163.5,259.833 163.5,279.5C 162.182,284.923 161.182,290.423 160.5,296C 160.957,303.047 162.29,309.881 164.5,316.5C 163.503,337.66 163.169,358.993 163.5,380.5C 159.947,378.646 156.28,376.979 152.5,375.5C 152.5,326.5 152.5,277.5 152.5,228.5C 155.607,225.108 159.274,222.442 163.5,220.5 Z"/></g>
<g><path style="opacity:1" fill="#153259" d="M 152.5,228.5 C 152.5,277.5 152.5,326.5 152.5,375.5C 149.162,374.164 145.829,372.831 142.5,371.5C 142.5,326.5 142.5,281.5 142.5,236.5C 145.52,233.484 148.854,230.817 152.5,228.5 Z"/></g>
<g><path style="opacity:1" fill="#d21421" d="M 142.5,236.5 C 142.5,281.5 142.5,326.5 142.5,371.5C 138.917,369.64 135.251,367.973 131.5,366.5C 131.832,325.663 131.499,284.997 130.5,244.5C 134.223,241.449 138.223,238.782 142.5,236.5 Z"/></g>
<g><path style="opacity:1" fill="#153259" d="M 130.5,244.5 C 131.499,284.997 131.832,325.663 131.5,366.5C 127.849,365.341 124.515,363.674 121.5,361.5C 121.5,324.833 121.5,288.167 121.5,251.5C 124.28,248.936 127.28,246.603 130.5,244.5 Z"/></g>
<g><path style="opacity:1" fill="#d21420" d="M 121.5,251.5 C 121.5,288.167 121.5,324.833 121.5,361.5C 117.387,360.607 113.72,358.94 110.5,356.5C 110.5,324.167 110.5,291.833 110.5,259.5C 113.952,256.601 117.618,253.934 121.5,251.5 Z"/></g>
<g><path style="opacity:0.023" fill="#163259" d="M 34.5,257.5 C 34.0374,272.609 35.0374,287.609 37.5,302.5C 33.2199,299.109 30.8865,294.609 30.5,289C 30.5,282.333 30.5,275.667 30.5,269C 31.2665,265.208 32.5999,261.375 34.5,257.5 Z"/></g>
<g><path style="opacity:1" fill="#153259" d="M 110.5,259.5 C 110.5,291.833 110.5,324.167 110.5,356.5C 106.849,355.341 103.515,353.674 100.5,351.5C 100.5,323.167 100.5,294.833 100.5,266.5C 103.833,264.167 107.167,261.833 110.5,259.5 Z"/></g>
<g><path style="opacity:1" fill="#d21520" d="M 100.5,266.5 C 100.5,294.833 100.5,323.167 100.5,351.5C 96.3447,350.258 92.678,348.258 89.5,345.5C 89.5,321.833 89.5,298.167 89.5,274.5C 92.8115,271.482 96.4782,268.815 100.5,266.5 Z"/></g>
<g><path style="opacity:1" fill="#153259" d="M 89.5,274.5 C 89.5,298.167 89.5,321.833 89.5,345.5C 85.827,344 82.4937,342 79.5,339.5C 79.5,320.5 79.5,301.5 79.5,282.5C 82.5203,279.484 85.8536,276.817 89.5,274.5 Z"/></g>
<g><path style="opacity:1" fill="#d21421" d="M 79.5,282.5 C 79.5,301.5 79.5,320.5 79.5,339.5C 75.5428,336.878 71.8761,333.878 68.5,330.5C 68.5,317.167 68.5,303.833 68.5,290.5C 71.6012,287.067 75.2679,284.4 79.5,282.5 Z"/></g>
<g><path style="opacity:1" fill="#163159" d="M 68.5,290.5 C 68.5,303.833 68.5,317.167 68.5,330.5C 63.8486,325.871 60.1819,320.537 57.5,314.5C 57.5,309.167 57.5,303.833 57.5,298.5C 60.6267,295.102 64.2934,292.435 68.5,290.5 Z"/></g>
<g><path style="opacity:0.999" fill="#d31920" d="M 57.5,298.5 C 57.5,303.833 57.5,309.167 57.5,314.5C 55.0188,310.871 53.0188,306.871 51.5,302.5C 53.1764,300.663 55.1764,299.33 57.5,298.5 Z"/></g>
<g><path style="opacity:1" fill="#f5f5f6" d="M 203.5,186.5 C 203.5,186.833 203.5,187.167 203.5,187.5C 204.492,193.071 206.826,198.071 210.5,202.5C 209.167,202.833 207.833,203.167 206.5,203.5C 208.919,208.085 211.919,212.252 215.5,216C 214.049,215.737 212.716,215.904 211.5,216.5C 215.365,221.109 219.699,225.276 224.5,229C 229.013,230.713 232.346,233.546 234.5,237.5C 230.38,236.394 227.047,234.06 224.5,230.5C 224.167,230.833 223.833,231.167 223.5,231.5C 226.187,235.021 229.353,238.021 233,240.5C 233.483,241.448 233.649,242.448 233.5,243.5C 230.185,243.028 227.851,241.195 226.5,238C 225.668,237.312 225.002,237.479 224.5,238.5C 226.989,242.153 229.656,245.653 232.5,249C 231.942,252.514 231.276,256.014 230.5,259.5C 226.814,255.648 223.314,251.648 220,247.5C 219.833,247.833 219.667,248.167 219.5,248.5C 222.382,253.103 225.382,257.603 228.5,262C 227.322,264.073 226.156,265.907 225,267.5C 227.868,268.361 230.202,270.028 232,272.5C 233.697,275.672 235.53,278.672 237.5,281.5C 240.136,291.804 240.136,302.137 237.5,312.5C 234.67,317.481 231.336,322.148 227.5,326.5C 224.003,329.083 220.336,331.416 216.5,333.5C 213.301,334.899 209.968,335.899 206.5,336.5C 202.833,336.5 199.167,336.5 195.5,336.5C 191.864,335.674 188.197,335.008 184.5,334.5C 181.106,331.779 177.439,329.446 173.5,327.5C 170.848,323.518 167.848,319.851 164.5,316.5C 162.29,309.881 160.957,303.047 160.5,296C 161.182,290.423 162.182,284.923 163.5,279.5C 166.791,274.873 170.458,270.54 174.5,266.5C 176.228,264.774 178.228,263.441 180.5,262.5C 182.428,260.526 184.761,259.026 187.5,258C 191.284,253.139 192.451,247.639 191,241.5C 189.341,235.546 188.341,229.546 188,223.5C 190.286,229.701 192.953,235.701 196,241.5C 196.134,244.309 195.968,247.143 195.5,250C 195.408,252.821 196.074,255.321 197.5,257.5C 198.5,257.5 199.5,257.5 200.5,257.5C 200.5,254.5 200.5,251.5 200.5,248.5C 199.322,242.765 197.822,237.098 196,231.5C 195.751,232.624 195.251,233.624 194.5,234.5C 189.594,225.514 185.927,216.014 183.5,206C 184.022,205.05 184.689,204.216 185.5,203.5C 184.035,198.437 182.368,193.437 180.5,188.5C 180.833,188.167 181.167,187.833 181.5,187.5C 182.258,188.811 183.258,189.311 184.5,189C 179.889,178.037 177.889,166.704 178.5,155C 181.873,155.129 185.206,155.462 188.5,156C 196.16,148.89 198.993,140.057 197,129.5C 192.091,121.921 186.425,114.921 180,108.5C 180,107.167 180,105.833 180,104.5C 179.107,105.711 178.274,105.711 177.5,104.5C 178.083,102.998 178.916,101.665 180,100.5C 182.356,103.503 184.856,104.003 187.5,102C 185.718,104.243 185.218,106.743 186,109.5C 188.964,113.466 192.297,117.133 196,120.5C 198.938,126.239 201.271,132.239 203,138.5C 203.169,147.019 201.836,155.353 199,163.5C 197.697,164.112 196.53,164.446 195.5,164.5C 197.283,170.067 199.617,175.401 202.5,180.5C 202.154,181.696 201.654,181.696 201,180.5C 200.417,178.998 199.584,177.665 198.5,176.5C 198.48,180.462 200.147,183.796 203.5,186.5 Z"/></g>
<g><path style="opacity:1" fill="#19345b" d="M 199.5,305.5 C 204.305,308.071 208.972,310.904 213.5,314C 212.545,317.099 211.711,320.266 211,323.5C 210.477,325.223 209.477,326.556 208,327.5C 203.154,328.808 198.32,328.808 193.5,327.5C 190.769,323.204 188.435,318.704 186.5,314C 191.24,311.64 195.574,308.807 199.5,305.5 Z"/></g>
<g><path style="opacity:1" fill="#818ea1" d="M 165.5,287.5 C 165.5,288.833 165.5,290.167 165.5,291.5C 164.756,295.119 164.423,298.785 164.5,302.5C 163.353,298.354 163.186,294.02 164,289.5C 164.278,288.584 164.778,287.918 165.5,287.5 Z"/></g>
<g><path style="opacity:1" fill="#1c365c" d="M 231.5,285.5 C 234.41,289.496 236.41,293.996 237.5,299C 235.078,304.791 232.578,310.625 230,316.5C 230,314.5 230,312.5 230,310.5C 227.96,308.959 225.793,307.626 223.5,306.5C 224.815,300.97 224.815,295.47 223.5,290C 226.391,288.726 229.058,287.226 231.5,285.5 Z"/></g>
<g><path style="opacity:1" fill="#18335a" d="M 168.5,285.5 C 168.833,285.5 169.167,285.5 169.5,285.5C 171.674,288.27 174.34,289.27 177.5,288.5C 175.927,291.361 175.261,294.528 175.5,298C 175.525,300.755 175.859,303.422 176.5,306C 173.98,307.697 171.647,309.53 169.5,311.5C 167.831,309.408 166.164,307.408 164.5,305.5C 164.5,304.5 164.5,303.5 164.5,302.5C 164.423,298.785 164.756,295.119 165.5,291.5C 167.008,289.819 168.008,287.819 168.5,285.5 Z"/></g>
<g><path style="opacity:1" fill="#9d9e9e" d="M 213.5,282.5 C 216.472,284.322 219.472,286.156 222.5,288C 218.866,286.856 215.199,285.689 211.5,284.5C 212.167,283.833 212.833,283.167 213.5,282.5 Z"/></g>
<g><path style="opacity:1" fill="#8b8c8e" d="M 186.5,283.5 C 187.492,283.328 188.158,283.662 188.5,284.5C 184.736,285.548 181.069,286.881 177.5,288.5C 180.008,286.076 183.008,284.41 186.5,283.5 Z"/></g>
<g><path style="opacity:1" fill="#8b94a1" d="M 169.5,285.5 C 169.167,285.5 168.833,285.5 168.5,285.5C 169.218,283.863 169.384,282.197 169,280.5C 167.787,282.925 166.621,285.259 165.5,287.5C 165.971,282.89 167.804,278.89 171,275.5C 171.214,278.934 170.714,282.267 169.5,285.5 Z"/></g>
<g><path style="opacity:1" fill="#e8eaed" d="M 168.5,285.5 C 168.008,287.819 167.008,289.819 165.5,291.5C 165.5,290.167 165.5,288.833 165.5,287.5C 166.621,285.259 167.787,282.925 169,280.5C 169.384,282.197 169.218,283.863 168.5,285.5 Z"/></g>
<g><path style="opacity:1" fill="#19335a" d="M 195.5,269.5 C 200.807,268.974 205.807,269.64 210.5,271.5C 211.703,275.11 212.703,278.777 213.5,282.5C 212.833,283.167 212.167,283.833 211.5,284.5C 207.914,286.877 204.081,288.877 200,290.5C 196.035,288.69 192.202,286.69 188.5,284.5C 188.158,283.662 187.492,283.328 186.5,283.5C 187.56,277.332 190.56,272.666 195.5,269.5 Z"/></g>
<g><path style="opacity:1" fill="#838b98" d="M 213.5,267.5 C 211.771,268.236 210.771,269.57 210.5,271.5C 205.807,269.64 200.807,268.974 195.5,269.5C 201.35,268.704 207.35,268.037 213.5,267.5 Z"/></g>
<g><path style="opacity:1" fill="#2b3d5b" d="M 213.5,267.5 C 212.969,265.376 211.635,263.876 209.5,263C 213.113,262.792 216.446,263.792 219.5,266C 222.167,268.333 224.833,270.667 227.5,273C 225.024,272.253 222.691,270.919 220.5,269C 218.26,268.023 215.927,267.523 213.5,267.5 Z"/></g>
<g><path style="opacity:1" fill="#313f5a" d="M 189.5,262.5 C 190.552,262.351 191.552,262.517 192.5,263C 189.758,264.12 187.258,265.62 185,267.5C 182.842,268.451 180.675,268.951 178.5,269C 181.647,265.767 185.314,263.6 189.5,262.5 Z"/></g>
<g><path style="opacity:1" fill="#ce1a26" d="M 200.5,248.5 C 200.5,251.5 200.5,254.5 200.5,257.5C 199.5,257.5 198.5,257.5 197.5,257.5C 197.037,254.518 196.704,251.518 196.5,248.5C 197.833,248.5 199.167,248.5 200.5,248.5 Z"/></g>
<g><path style="opacity:0.929" fill="#374c6f" d="M 207.5,219.5 C 208.793,218.355 209.959,218.689 211,220.5C 216,228.167 221,235.833 226,243.5C 226.688,244.332 226.521,244.998 225.5,245.5C 221.114,241.705 217.948,237.038 216,231.5C 212.899,227.609 210.066,223.609 207.5,219.5 Z"/></g>
<g><path style="opacity:1" fill="#576683" d="M 182.5,159.5 C 184.017,159.511 185.184,160.177 186,161.5C 188.075,167.177 191.242,172.011 195.5,176C 194.216,176.684 193.049,176.517 192,175.5C 189.062,169.946 185.896,164.613 182.5,159.5 Z"/></g>
<g><path style="opacity:1" fill="#9aa3b0" d="M 164.5,305.5 C 166.164,307.408 167.831,309.408 169.5,311.5C 170.958,314.327 171.958,317.327 172.5,320.5C 168.522,316.211 165.855,311.211 164.5,305.5 Z"/></g>
<g><path style="opacity:1" fill="#15325a" d="M 164.5,316.5 C 167.848,319.851 170.848,323.518 173.5,327.5C 173.5,347.167 173.5,366.833 173.5,386.5C 170.131,384.485 166.798,382.485 163.5,380.5C 163.169,358.993 163.503,337.66 164.5,316.5 Z"/></g>
<g><path style="opacity:1" fill="#143159" d="M 237.5,312.5 C 237.5,335.167 237.5,357.833 237.5,380.5C 234.202,382.485 230.869,384.485 227.5,386.5C 227.5,366.5 227.5,346.5 227.5,326.5C 231.336,322.148 234.67,317.481 237.5,312.5 Z"/></g>
<g><path style="opacity:1" fill="#d21621" d="M 173.5,327.5 C 177.439,329.446 181.106,331.779 184.5,334.5C 184.5,345.5 184.5,356.5 184.5,367.5C 183.512,362.36 183.179,357.026 183.5,351.5C 179.511,351.708 177.677,353.708 178,357.5C 178.667,356.833 179.333,356.167 180,355.5C 180.499,359.486 180.666,363.486 180.5,367.5C 179.325,367.281 178.325,367.614 177.5,368.5C 179.743,369.474 182.076,369.808 184.5,369.5C 184.5,377.167 184.5,384.833 184.5,392.5C 180.38,391.274 176.713,389.274 173.5,386.5C 173.5,366.833 173.5,347.167 173.5,327.5 Z"/></g>
<g><path style="opacity:1" fill="#d41721" d="M 227.5,326.5 C 227.5,346.5 227.5,366.5 227.5,386.5C 223.664,388.584 219.997,390.917 216.5,393.5C 216.5,380.167 216.5,366.833 216.5,353.5C 218.288,353.215 219.955,353.548 221.5,354.5C 218.151,358.966 216.817,363.966 217.5,369.5C 218.5,369.5 219.5,369.5 220.5,369.5C 220.337,367.143 220.503,364.81 221,362.5C 222.537,358.771 224.037,355.105 225.5,351.5C 222.5,351.5 219.5,351.5 216.5,351.5C 216.5,345.5 216.5,339.5 216.5,333.5C 220.336,331.416 224.003,329.083 227.5,326.5 Z"/></g>
<g><path style="opacity:1" fill="#585f6a" d="M 172.5,320.5 C 177.331,323.811 182.331,326.978 187.5,330C 195.061,332.85 202.727,333.183 210.5,331C 216.209,328.68 221.542,326.013 226.5,323C 214.809,333.73 201.476,336.397 186.5,331C 180.87,328.695 176.203,325.195 172.5,320.5 Z"/></g>
<g><path style="opacity:1" fill="#16325a" d="M 184.5,334.5 C 188.197,335.008 191.864,335.674 195.5,336.5C 195.5,341.5 195.5,346.5 195.5,351.5C 190.669,350.667 188.336,352.667 188.5,357.5C 188.336,362.333 190.669,364.333 195.5,363.5C 195.256,367.789 193.589,368.456 190.5,365.5C 187.972,366.517 187.972,367.684 190.5,369C 192.134,369.494 193.801,369.66 195.5,369.5C 195.5,380.5 195.5,391.5 195.5,402.5C 191.808,399.138 188.141,395.805 184.5,392.5C 184.5,384.833 184.5,377.167 184.5,369.5C 187.167,368.833 187.167,368.167 184.5,367.5C 184.5,356.5 184.5,345.5 184.5,334.5 Z"/></g>
<g><path style="opacity:1" fill="#d21621" d="M 195.5,336.5 C 199.167,336.5 202.833,336.5 206.5,336.5C 206.5,341.5 206.5,346.5 206.5,351.5C 201.342,353.137 200.342,356.137 203.5,360.5C 200.152,365.156 201.152,368.156 206.5,369.5C 206.5,380.167 206.5,390.833 206.5,401.5C 204.868,404.133 202.868,406.467 200.5,408.5C 198.81,406.481 197.144,404.481 195.5,402.5C 195.5,391.5 195.5,380.5 195.5,369.5C 198.46,367.146 199.793,363.98 199.5,360C 199.885,356.273 198.552,353.44 195.5,351.5C 195.5,346.5 195.5,341.5 195.5,336.5 Z"/></g>
<g><path style="opacity:1" fill="#15325a" d="M 216.5,333.5 C 216.5,339.5 216.5,345.5 216.5,351.5C 213.833,352.167 213.833,352.833 216.5,353.5C 216.5,366.833 216.5,380.167 216.5,393.5C 213.48,396.516 210.146,399.183 206.5,401.5C 206.5,390.833 206.5,380.167 206.5,369.5C 213.821,368.681 215.154,365.514 210.5,360C 213.976,354.86 212.643,352.026 206.5,351.5C 206.5,346.5 206.5,341.5 206.5,336.5C 209.968,335.899 213.301,334.899 216.5,333.5 Z"/></g>
<g><path style="opacity:1" fill="#fbf5f6" d="M 184.5,367.5 C 187.167,368.167 187.167,368.833 184.5,369.5C 182.076,369.808 179.743,369.474 177.5,368.5C 178.325,367.614 179.325,367.281 180.5,367.5C 180.666,363.486 180.499,359.486 180,355.5C 179.333,356.167 178.667,356.833 178,357.5C 177.677,353.708 179.511,351.708 183.5,351.5C 183.179,357.026 183.512,362.36 184.5,367.5 Z"/></g>
<g><path style="opacity:1" fill="#efdfe0" d="M 195.5,351.5 C 198.552,353.44 199.885,356.273 199.5,360C 199.793,363.98 198.46,367.146 195.5,369.5C 193.801,369.66 192.134,369.494 190.5,369C 187.972,367.684 187.972,366.517 190.5,365.5C 193.589,368.456 195.256,367.789 195.5,363.5C 190.669,364.333 188.336,362.333 188.5,357.5C 188.336,352.667 190.669,350.667 195.5,351.5 Z"/></g>
<g><path style="opacity:1" fill="#efe0e1" d="M 206.5,351.5 C 212.643,352.026 213.976,354.86 210.5,360C 215.154,365.514 213.821,368.681 206.5,369.5C 201.152,368.156 200.152,365.156 203.5,360.5C 200.342,356.137 201.342,353.137 206.5,351.5 Z"/></g>
<g><path style="opacity:1" fill="#1e375d" d="M 192.5,353.5 C 194.89,353.685 195.89,355.018 195.5,357.5C 194.167,362.833 192.833,362.833 191.5,357.5C 191.623,356.075 191.957,354.742 192.5,353.5 Z"/></g>
<g><path style="opacity:1" fill="#17335b" d="M 206.5,353.5 C 209.956,354.536 210.29,356.203 207.5,358.5C 206.548,356.955 206.215,355.288 206.5,353.5 Z"/></g>
<g><path style="opacity:1" fill="#faeeee" d="M 216.5,351.5 C 219.5,351.5 222.5,351.5 225.5,351.5C 224.037,355.105 222.537,358.771 221,362.5C 220.503,364.81 220.337,367.143 220.5,369.5C 219.5,369.5 218.5,369.5 217.5,369.5C 216.817,363.966 218.151,358.966 221.5,354.5C 219.955,353.548 218.288,353.215 216.5,353.5C 213.833,352.833 213.833,352.167 216.5,351.5 Z"/></g>
<g><path style="opacity:1" fill="#d4282d" d="M 206.5,361.5 C 206.5,363.5 206.5,365.5 206.5,367.5C 203.833,365.5 203.833,363.5 206.5,361.5 Z"/></g>
<g><path style="opacity:1" fill="#20385f" d="M 206.5,361.5 C 208.926,362.353 209.76,364.019 209,366.5C 208.329,367.252 207.496,367.586 206.5,367.5C 206.5,365.5 206.5,363.5 206.5,361.5 Z"/></g>
</svg>
