<?xml version="1.0" encoding="UTF-8"?>
<svg id="Layer_1" xmlns="http://www.w3.org/2000/svg" version="1.1" viewBox="0 0 400 400">
  <!-- Generator: Adobe Illustrator 29.1.0, SVG Export Plug-In . SVG Version: 2.1.0 Build 142)  -->
  <defs>
    <style>
      .st0 {
        fill: #020202;
      }

      .st1 {
        fill: #fff;
      }

      .st2 {
        fill: #050505;
      }

      .st3 {
        fill: #eee;
      }
    </style>
  </defs>
  <ellipse class="st0" cx="200" cy="200.3" rx="197" ry="199.7"/>
  <path class="st1" d="M200,385.7c-49.2,0-95.4-19.4-130.2-54.7-34.8-35.3-53.9-82.2-53.9-132.1s19.1-96.8,53.9-132.1C104.6,31.5,150.8,12.1,200,12.1s95.4,19.4,130.2,54.7c34.8,35.3,53.9,82.2,53.9,132.1s-19.1,96.8-53.9,132.1c-34.8,35.3-81,54.7-130.2,54.7ZM200,18.8C102.2,18.8,22.6,99.6,22.6,198.9s79.6,180.1,177.4,180.1,177.4-80.8,177.4-180.1S297.8,18.8,200,18.8Z"/>
  <path class="st3" d="M283.5,129.6c68.3,78.9-2.8,198.9-104.5,178.6-76.6-15.3-113.4-105.9-68-170.2,41.3-58.4,125.7-62.6,172.5-8.4ZM268.8,127.5c-72.6-66.2-187.8,0-166,96,15.1,66.5,91.7,98.8,150.3,63.4,57-34.5,65.2-114.2,15.7-159.4Z"/>
  <path class="st3" d="M74.8,126.5c-.7.7,5.8,9.9,4.7,12.2-3.3.4-6.5.9-9.8,1.4s-2.4-.4-1.7,1,12.4,5.8,13.2,7.1-.7,7.1-4.2,5.6-11.2-5.7-15.7-8-7.4-3.7-7.6-5.3,2-4.7,2.6-5.1c1.9-1,13.2-1.6,13.7-2-1-4.9-6.6-9.9-5.1-14.9s1.9-3.3,2.2-3.4c2.2-.5,21,11.1,24.6,12.6,1.9,1.1-.8,6.2-1.7,6.4l-15.2-7.4Z"/>
  <path class="st3" d="M273,59.6c1.6,2.7,1.2,14.9,2.2,18.8,1.8.4,1.1-.4,1.4-1,1-1.6,5.5-10.6,6-10.9,2.1-1.3,6.2.9,6.2,3.4s-8,15.3-9.4,17.7c-3.2,5.2-4.1,10.1-10.2,3.8l-2.2-18.5c-2.6,1.6-5.8,11.5-7.4,12.6s-6-2-6.2-3.4c-.2-2.8,11.7-19.5,12.9-23.7,1-2.3,6.1.3,6.6,1.2Z"/>
  <path class="st3" d="M122.2,79.8c-.8.7,6.9,10.7,6.8,13.2s-4.4,3.5-5.5,2.7c-1.6-3.1-14.6-22.7-14.2-24.3s3.9-3,4.9-3c2.4.1,16.7,8,17.4,7.3.1-3.6-6.8-10.4-6.8-13.2s3.7-2.9,5-3.7c1.9,3.6,14.8,22.3,14.6,24.7s-3.6,3.1-5.1,3.1c-2.5-.1-16.4-7.6-17.3-6.8Z"/>
  <path class="st3" d="M234.4,46.1c13.6-1,22.2,15.3,13,25.9-6.9,7.9-20.2,6.8-25.3-2.4-5.6-10,.9-22.7,12.4-23.5ZM229.3,55c-7.9,7.5,1.5,20.7,10.9,14.7,11-7.1-.8-24.2-10.9-14.7Z"/>
  <path class="st3" d="M92.9,86c13.1-2.7,23.7,9.4,18.4,21.8-6.9,16-32.1,9.6-29.7-8.7.7-5.3,5.9-12,11.3-13.1ZM94.9,92.1c-11.1,1.6-8.2,19.3,3,18.6,12.7-.7,9.9-20.5-3-18.6Z"/>
  <path class="st3" d="M204.5,44.9c15.3,11-1.2,37.6-18.6,25.1-16.1-11.6,1.1-37.6,18.6-25.1ZM188.7,50.2c-3.9,3.8-3.2,12.3,1.6,15.3,8.4,5.1,17.5-5.1,12-13.4-2.9-4.4-9.9-5.6-13.7-1.9Z"/>
  <path class="st3" d="M153.5,56.3c-.8.7-1.3,2.8-.2,3.6,3.4,2.4,16.1-2.7,18.7,5.7,3.2,10.3-7.5,14.9-16.1,13.4s-6.9-1.9-5.3-4.3c3.9-5.6,5.7-1.2,10.4-1.7s6.8-2.5,4.2-4.7-7.3-.3-10.9-.7c-15.2-1.6-8.2-24.1,8.4-17.9,2.4.9,4.1,1.4,2.9,4.2-2.8,6.4-7.9-1.8-12.2,2.4Z"/>
  <path class="st3" d="M336.2,137.9c-.7-1.1,1.4-3.7,1.1-5.5s-3.1-5.2-4.8-6.1c-9.6-4.7-18.1,8.7-10.6,14.7s6.6.4,4.6,6.7-4.8.4-6.2-.3c-9.5-4.7-9.6-18.9-1.8-25.3s24.6-1.5,25.1,10.8-.4,6.1-1.4,6.8-5.7-1.3-6-1.9Z"/>
  <path class="st3" d="M315.6,90.8c.8.3,10.3,11.9,10.7,12.7.8,1.7-1,3.3-2.4,4.3-3.4,2.4-6.8-8.8-10.3-7.5-9,3.2,4.6,7.5.5,12.1s-6.1-4.1-9.5-4.1-6.7,6.8-8.5,5.8-4.4-4.5-3.2-5.7l19.8-17.1c.9-.8,1.8-.9,2.9-.5Z"/>
  <path class="st3" d="M255.4,320.3c6.5-.9,5.8,3.6,7.7,6.8.6,1,1.8,1.3,2.5,2.3,1.6,2.2,1.9,4.8.6,7.2s-11.3,7.4-13.1,5.2c-.4-3.9-7.2-13.7-7.1-16.6,0-1.8,7.6-4.7,9.3-4.9ZM252.2,325.6c-1.5,2.4.7,5.2,4.2,3.2,5.7-3.3-2.8-5.4-4.2-3.2ZM261.5,331.7c-1.6-1-9.1,1.6-5.7,4.7,2.8,2.5,8.8-2.6,5.7-4.7Z"/>
  <path class="st3" d="M218,349.7c-1.1,1.1-4.2,2.5-5.7,2.8-2.3.4-9.5,1.6-9.6-1.5l-1.1-18c9.3-3.9,22.2.3,19,12.3-.2.8-2,3.9-2.6,4.5ZM206.8,336.4c.3,2.6-1.1,12.4,2.9,12.1s8.7-5.2,5.6-10c-1.8-2.8-5.6-2-8.4-2.1Z"/>
  <path class="st3" d="M123.1,315.6c5.1-4.8,15.1-2.8,17.4,4.1,3.4,9.9-5.7,18.5-15.2,13.8s-7.5-13-2.2-18ZM125.7,328.7c5.2,5.7,15.5-3.8,9.2-9.6-6.2-5.7-14.5,3.8-9.2,9.6Z"/>
  <path class="st3" d="M242.8,334.8c0,.2,1,.2,1.1.7,4.5,11.4-9.4,18.3-15,9.4s-4.2-13.3-3.9-14.3,2.9-1.9,4-1.5c1.7,1.2,3.1,19.7,9.3,14.4,4-3.4-3.2-14.6-1.6-16.8s4-1.7,4.8-.7c1.8,2.4.8,7.8,1.2,8.7Z"/>
  <path class="st3" d="M289.9,322.3c1,1.7-.8,3.5-2.4,3.8s-4.2-3.1-8,.7-.6,3.2-1.3,4.8-3.4,2.9-4.4.3-3.6-13-3.9-15.7,1.4-6.5,5.3-5.3,10.6,9.6,14.7,11.4ZM275.1,317.4l1.3,5.8c6.1-.1,2.8-5.3-1.3-5.8Z"/>
  <path class="st3" d="M158.7,347.2c-4.9.6-4.5-5-5.1-5.5s-5.2-1.8-5.5-1.8c-1.3,0-1.7,1.7-3.3,1.9-2.2.3-4.8-.7-3.5-3.2,3-1.9,10.6-14.5,13.1-15s5,2.1,5,3.6l-.7,19.9ZM154.6,330.3l-3.7,3.4c-1.3,3.2.9,3.7,3.7,3.4v-6.8Z"/>
  <path class="st3" d="M98.6,313.9c-.6-.9,0-2.6.6-3.5l11.1-13.3c6,2.4,14.1,10.1,7.4,16.3s-9.8-1.4-12.2-1.4-3,3.2-4.2,3.3-2.7-1.2-2.8-1.4ZM111.7,303.2c-.9.2-4,3.9-3.8,5,9.6,7.9,8.2-5.7,3.8-5Z"/>
  <path class="st3" d="M287.9,300.6c1.4,3.8,10.7,11.4,11.5,14.6s-1.5,3.4-2.4,3.5-13.5-14.1-13.7-15.3,3.1-3.8,4.6-2.8Z"/>
  <path class="st3" d="M178,341.1c.3,0,5.6.6,6,.7,1,.3,1.4,1.3,1.1,2.3-.9,3.1-12.2-2-7.1-3Z"/>
  <path class="st2" d="M268.8,127.5c49.5,45.2,41.3,124.9-15.7,159.4-58.6,35.4-135.2,3.1-150.3-63.4-21.8-95.9,93.5-162.2,166-96ZM178.3,125.8c-9.5,1.6-19.2,7.5-26.7,13.6-29.4,23.4-36.9,65.1-18.8,97.9,23.4,42.3,78.6,53.3,116.5,22.8,36.9-29.6,39.6-87.1,3.1-118.1-1.2,1.8-6.7,8.8-6.3,10.4,30.4,30.3,24.9,80.9-12.3,102.9-31.1,18.4-71.6,7.6-89.4-23.5-20.5-35.8-3.3-80.4,35-93.9l-1.1-12.2ZM236.6,126.5h-44v133.7c0,0,.9,1,1,1h12.9c0,0,1-.9,1-1v-88.7c0-1.9,7-.5,8-1.1s4.7-11.3,4.7-11.9-.5-1.6-.9-1.6h-11.8v-16.2h25.4c1.4,0,3.2-12.2,3.7-14.2ZM216.2,184.4v28.1c1.2.3,1.3-.4,1.9-1.1,4.1-5.4,6.1-15.4,10.9-20.5l4.2,47.6c.7,2.3,3.1,0,4.3-.9,2.4-1.8,8.5-6.3,8.5-9.1l-5.1-68.7c-.9-1.9-9.8-1.7-11.7-1.1s-1.3,1.5-1.5,1.7c-1.6,2.8-11.2,22.2-11.6,24.1ZM183.8,212.5v-27.4l-13-26c-2,0-10.2-.8-11.1.5l-5.1,65.4c.2,3,5.7,8.1,8.2,10.1s2.2,1.7,3.4,2.4l5.1-47.4c1-.4,1.8,2.4,2.2,3.2,2.1,4.8,5.5,14.1,8.4,18s.7,1.4,1.9,1.1Z"/>
  <path class="st2" d="M229.3,55c10.2-9.5,21.9,7.5,10.9,14.7-9.4,6.1-18.9-7.2-10.9-14.7Z"/>
  <path class="st2" d="M94.9,92.1c12.9-1.9,15.8,18,3,18.6-11.2.6-14.2-17-3-18.6Z"/>
  <path class="st2" d="M188.7,50.2c3.8-3.7,10.7-2.5,13.7,1.9,5.5,8.3-3.6,18.5-12,13.4s-5.5-11.5-1.6-15.3Z"/>
  <path class="st2" d="M261.5,331.7c3.1,2-2.9,7.2-5.7,4.7-3.4-3.1,4.1-5.7,5.7-4.7Z"/>
  <path class="st2" d="M252.2,325.6c1.4-2.2,9.9,0,4.2,3.2s-5.7-.8-4.2-3.2Z"/>
  <path class="st2" d="M206.8,336.4c2.8,0,6.6-.7,8.4,2.1,3.1,4.8-.3,9.5-5.6,10s-2.6-9.4-2.9-12.1Z"/>
  <path class="st2" d="M125.7,328.7c-5.3-5.8,3-15.3,9.2-9.6,6.3,5.8-4,15.3-9.2,9.6Z"/>
  <path class="st2" d="M275.1,317.4c4.1.5,7.4,5.7,1.3,5.8l-1.3-5.8Z"/>
  <path class="st2" d="M154.6,330.3v6.8c-2.8.3-5-.2-3.7-3.4l3.7-3.4Z"/>
  <path class="st2" d="M111.7,303.2c4.4-.8,5.8,12.9-3.8,5-.2-1,2.9-4.8,3.8-5Z"/>
  <path class="st3" d="M178.3,125.8l1.1,12.2c-38.4,13.5-55.5,58.1-35,93.9,17.8,31.1,58.3,41.9,89.4,23.5,37.2-22,42.8-72.6,12.3-102.9-.3-1.6,5.2-8.6,6.3-10.4,36.4,31,33.7,88.4-3.1,118.1-37.9,30.5-93.1,19.5-116.5-22.8-18.2-32.9-10.6-74.5,18.8-97.9s17.2-12,26.7-13.6Z"/>
  <path class="st3" d="M236.6,126.5c-.6,2-2.4,14.2-3.7,14.2h-25.4v16.2h11.8c.4,0,.9,1,.9,1.6s-4.2,11.5-4.7,11.9c-1,.6-8-.8-8,1.1v88.7c0,0-.9,1-1,1h-12.9c0,0-1-.9-1-1V126.5h44Z"/>
  <path class="st3" d="M216.2,184.4c.4-1.9,10-21.3,11.6-24.1s1.4-1.7,1.5-1.7c1.9-.6,10.7-.8,11.7,1.1l5.1,68.7c0,2.8-6.1,7.3-8.5,9.1s-3.6,3.3-4.3.9l-4.2-47.6c-4.9,5.2-6.8,15.1-10.9,20.5s-.7,1.4-1.9,1.1v-28.1Z"/>
  <path class="st3" d="M183.8,212.5c-1.2.3-1.3-.4-1.9-1.1-3-3.9-6.3-13.2-8.4-18s-1.1-3.7-2.2-3.2l-5.1,47.4c-1.2-.7-2.4-1.5-3.4-2.4-2.5-2.1-8-7.2-8.2-10.1l5.1-65.4c.9-1.3,9.1-.4,11.1-.5l13,26v27.4Z"/>
</svg>