<?xml version="1.0" encoding="UTF-8"?>
<svg id="Camada_1" data-name="Camada 1" xmlns="http://www.w3.org/2000/svg" viewBox="0 0 1000 1000">
  <defs>
    <style>
      .cls-1 {
        fill: #fefefe;
      }

      .cls-1, .cls-2, .cls-3, .cls-4, .cls-5, .cls-6, .cls-7 {
        stroke-width: 0px;
      }

      .cls-2 {
        fill: #0e5028;
      }

      .cls-3 {
        fill: #f6c026;
      }

      .cls-4 {
        fill: #0e4f28;
      }

      .cls-5 {
        fill: #fbd18f;
      }

      .cls-6 {
        fill: #f89c26;
      }

      .cls-7 {
        fill: #fcfcfc;
      }
    </style>
  </defs>
  <path class="cls-4" d="M369.51,558.81c-.6.11-1.34-.23-1.72.55-.69.86-1.71,1.02-2.69,1.25-4.65,1.8-9.3,3.6-13.95,5.41-6.45,2.51-12.91,5.02-19.36,7.52-7.3,2.82-14.58,5.7-21.92,8.43-6.92,2.57-13.89,5.01-20.86,7.46-12.99,4.56-25.97,9.12-38.99,13.57-3.09,1.06-6.34,1.62-9.31,3.05-.91.71-2.08.66-3.09,1.09-7.13,2.2-14.26,4.4-21.39,6.59-.43.67-1.11.69-1.8.71-10.56,3.15-21.1,6.36-31.68,9.43-6.77,1.96-13.61,3.66-20.38,5.62-1.39.4-1.95.16-2.51-1.11-2.92-6.64-6.16-13.14-8.8-19.88-2.77-7.08-5.91-14.02-8.51-21.16-3.63-9.97-7.46-19.87-10.91-29.91-3.03-8.85-6.15-17.66-8.98-26.57-5.69-17.95-10.89-36.03-15.76-54.22-2.7-10.08-5.05-20.24-7.64-30.35-2.11-8.24-3.89-16.59-5.64-24.91-1.48-7.05-3.05-14.12-4.21-21.22-1.39-8.5-3.42-16.88-4.38-25.45-.49-4.35-1.71-8.61-2.42-12.94-.73-4.46-1.21-8.96-1.88-13.42-.78-5.15-1.67-10.27-2.48-15.42-.23-1.49.31-3.03-.22-4.52-.56-.77.11-1.76-.46-2.52-.04-.58-.08-1.16-.12-1.74-.56-.7.19-1.69-.52-2.37-.04-.85-.08-1.69-.12-2.54-.39-.81-.13-1.74-.44-2.56-.66-5.87-1.32-11.74-1.98-17.61-.43-1.02-.1-2.15-.46-3.18.38-.8-.84-1.51-.14-2.32-.48-1.06.04-2.26-.46-3.32-.05-.93-.11-1.86-.16-2.79-.49-1.02.11-2.19-.46-3.2-.06-.97-.11-1.94-.17-2.91-.42-1.07.06-2.25-.43-3.31-.05-.93-.1-1.86-.16-2.8-.44-1.22-.04-2.55-.47-3.78-.05-.98-.1-1.97-.15-2.95-.42-1.2-.02-2.49-.42-3.69-.07-1.01-.13-2.02-.2-3.03-.65-1.42.09-2.98-.46-4.41-.05-1.18-.1-2.36-.15-3.54-.49-1.27.1-2.67-.45-3.93-.06-1.34-.12-2.68-.17-4.01-.46-1.28.1-2.67-.44-3.93-.06-1.54-.12-3.08-.17-4.62-.49-1.48.14-3.07-.44-4.54-.06-1.54-.12-3.08-.17-4.62-.64-1.84.28-3.81-.45-5.64-.05-1.59-.1-3.17-.15-4.76-.54-1.89.18-3.88-.44-5.77-.06-2.15-.11-4.3-.17-6.46-.65-2.3.15-4.68-.45-6.98-.06-2.36-.11-4.72-.17-7.08-.25-1.01-.4-2.02-.02-3.03,9.47-5.58,19.31-10.49,28.99-15.69,32.46-17.42,65.28-34.15,98.42-50.24,17.6-8.54,35.34-16.76,53.29-24.54,23.25-10.09,46.76-19.51,70.75-27.7,25.5-8.71,51.41-15.9,77.87-21.03,13.02-2.52,26.17-4.25,39.33-5.8,1.07-.43,2.26.05,3.33-.43,1.13-.06,2.26-.12,3.39-.18,1.43-.53,2.99.19,4.41-.46,1.38-.05,2.76-.11,4.14-.16,1.89-.53,3.88.19,5.76-.44,2.76-.05,5.53-.11,8.29-.16,7.53-.32,15.06-.31,22.59,0,2.56.06,5.12.11,7.68.17,1.68.6,3.46-.06,5.15.43,1.75.06,3.49.12,5.24.18,1.26.55,2.66-.03,3.93.44,1.14.06,2.27.11,3.41.17,1.06.5,2.24.02,3.31.43.93.06,1.86.12,2.8.18,1.06.51,2.25,0,3.32.45,11.63,1.84,23.32,3.28,34.9,5.52,16.83,3.27,33.45,7.31,49.94,11.99,32.87,9.33,64.83,21.23,96.36,34.28,23.34,9.66,46.36,20.04,69.23,30.77,28.58,13.41,56.92,27.3,85.12,41.49.54.27,1.18.38,1.45,1.04-2.13,3.51-4.3,7.09-6.47,10.66-.23.74-.69,1.32-1.26,1.82-3.34,4.89-6.79,9.72-9.96,14.72-.67,1.06-1.86,1.77-2.1,3.1-.53,1.09-.99,2.22-2.04,2.95-4.57,6.2-9.12,12.42-13.73,18.59-5.5,7.36-10.97,14.75-16.63,22-10.64,13.62-21.8,26.82-33.2,39.81-5.16,5.88-10.47,11.63-15.71,17.44-.41.81-1.07,1.39-1.81,1.88-9.37,9.51-18.6,19.18-28.15,28.52-40.57,39.68-84.6,75.13-131.48,107.07-16.06,10.94-32.4,21.45-49.1,31.4-3.43,2.04-6.76,4.25-10.14,6.39-.46,1.02-1.61.92-2.37,1.45-5.12,2.75-10.3,5.4-14.94,8.97-.43.33-1.1.35-1.65.51-.43,1.11-1.61,1.01-2.42,1.49-4.63,1.67-8.47,4.78-12.82,6.98-8.35,4.23-16.53,8.76-24.8,13.14-5.55,2.94-11.13,5.82-16.7,8.73-.49.6-1.08,1-1.89.99-6.31,3.06-12.62,6.13-18.94,9.19-.54,1-1.68.84-2.5,1.3-4.8,2.18-9.61,4.35-14.41,6.56-9.27,4.26-18.45,8.73-27.83,12.72-4.03,1.71-8.14,3.25-12.06,5.23-.78.62-1.71.88-2.64,1.13-3.01,1.22-6.15,2.11-8.97,3.78-.77.59-1.69.84-2.6,1.12Z"/>
  <path class="cls-3" d="M595.72,652.98c-5.17,4.23-10.42,8.38-15.57,12.63-8.94,7.38-18.26,14.3-27.45,21.37-7.38,5.68-14.81,11.3-22.22,16.95-1.02.78-2.52.85-3.17,2.17-.83,1.14-2.01,1.81-3.22,2.46-11.9,8.36-23.69,16.88-35.72,25.04-12.57,8.52-25.37,16.7-38.08,25.03-.4.77-1.24.89-1.89,1.31-3.06,1.84-6.14,3.67-9.19,5.53-4.42,2.69-8.8,5.44-13.23,8.11-8.99,5.42-18.01,10.81-27.02,16.22-.89.93-2.1,1.31-3.19,1.9-1.39.77-2.77,1.53-4.16,2.3-1.18,1.35-2.96,1.68-4.4,2.59-2.39,1.3-4.77,2.61-7.16,3.91-.76.72-1.68,1.16-2.62,1.59-5.25,2.83-10.5,5.66-15.75,8.49-.89.93-2.1,1.32-3.2,1.9-5.64,2.92-11.28,5.85-16.93,8.77-.8.97-2.03,1.17-3.08,1.68h.02c-.67.69-1.66.77-2.44,1.24-.47.02-.99-.07-1.25.48-.96,1.1-2.41,1.3-3.6,1.98-7.07,3.46-14.19,6.84-21.19,10.44-2.36,1.21-3.92.76-5.31-1.27-.58-.53-1.13-1.09-1.64-1.68-8.5-9.11-16.74-18.43-24.65-28.07-5.3-6.46-10.63-12.91-15.77-19.5-11.12-14.26-21.55-29.01-31.46-44.13-5.72-8.72-11.16-17.61-16.72-26.43-.65-.62-.68-1.58-1.23-2.25-7.59-12.63-14.9-25.41-21.59-38.55-1.45-2.85-3.13-5.6-4.51-8.5-.74-1.56-.55-2.15,1.29-2.68,14.47-4.17,28.94-8.37,43.33-12.79,13.38-4.11,26.69-8.44,39.99-12.8,25.83-8.46,51.43-17.55,76.82-27.26,19.09-7.3,38.05-14.92,56.84-22.95,15.57-6.65,31.02-13.56,46.37-20.7,17.37-8.08,34.59-16.48,51.55-25.35,30.51-15.95,60.3-33.16,89.58-51.32,44.35-27.51,86.2-58.32,125.87-92.16,17.98-15.33,35.44-31.25,51.99-48.12,11.56-11.77,22.98-23.7,34.03-35.95,16.63-18.44,32.59-37.47,47.71-57.2,15.74-20.54,30.62-41.67,44.79-63.31.88-1.34,1.65-2.75,2.53-4.09.86-1.32,1.78-2.59,2.79-4.06.87,1.09.27,2.16.56,3.06-.46,1.41-.05,2.91-.46,4.32l-.15,2.38c-.62.97-.01,2.12-.45,3.11-.04.62-.09,1.24-.13,1.87-.38.98-.05,2.07-.51,3.04-2.4,14.34-5.48,28.54-9.29,42.57-3.19,11.77-6.69,23.45-10.64,34.99-4.54,13.28-10.26,26.07-15.85,38.92-.2.45-.28.96-.41,1.44-.37.85-.56,1.79-1.17,2.53v.02c-.48.76-.62,1.68-1.16,2.4-3.46,6.98-6.72,14.07-10.29,20.96-4.18,8.08-8.47,16.15-13.07,24.02-5.14,8.79-10.18,17.63-15.26,26.45-.54.86-.87,1.86-1.67,2.55-5.76,8.78-11.53,17.56-17.28,26.34-1.44,2.19-2.83,4.42-4.24,6.63-.73,1.04-1.15,2.3-2.21,3.1-5.11,6.99-10.23,13.97-15.33,20.96-1.72,2.35-3.38,4.74-5.07,7.11-.49.58-.56,1.46-1.33,1.83-3.1,3.43-5.76,7.21-8.47,10.95-.34.8-.98,1.35-1.58,1.94-3.55,4.48-7.03,9.02-10.68,13.42-4.23,5.11-8.62,10.09-12.93,15.14-2.81,3.3-5.59,6.63-8.39,9.95-.43.63-.76,1.34-1.43,1.77-7.56,8.34-15.05,16.74-22.69,25-5.17,5.59-10.54,11.01-15.85,16.48-4.59,4.73-9.22,9.43-13.83,14.14-.42.83-1.04,1.45-1.87,1.87-7.01,6.71-14.02,13.42-21.04,20.12-3.96,3.77-7.94,7.52-11.91,11.28-.53.62-1.15,1.14-1.77,1.66l-.04.03c-.56.67-1.08,1.38-1.92,1.75-1.4,1.23-2.81,2.47-4.21,3.7-.49.74-1.07,1.4-1.87,1.81-6.97,6.07-13.95,12.13-20.92,18.2-3.03,2.64-6.02,5.31-9.03,7.97-.38,1.16-1.68,1.2-2.39,1.96-.82.68-1.63,1.37-2.45,2.05-.56.61-1.15,1.19-1.87,1.6-.8.67-1.6,1.34-2.41,2.01-.54.65-1.13,1.26-1.9,1.65Z"/>
  <path class="cls-6" d="M499.2,969.02c-1.22.65-2.44,1.31-3.66,1.96-.79.39-1.54.88-2.4,1.11-2.48,1.96-4.68.78-6.86-.6-1.45-.67-2.97-1.21-4.17-2.34-4.06-2-8.15-3.97-12.19-6.02-1.56-.79-3.03-1.77-4.53-2.67-.89-.65-2.12-.76-2.84-1.7-7.2-3.22-13.79-7.55-20.55-11.53-9.56-5.64-18.94-11.6-28.08-17.92-1.47-1.02-2.9-2.1-4.35-3.15-1.01-.36-1.76-1.11-2.63-1.69-1.16-.86-2.33-1.73-3.49-2.59-1.05-.28-1.63-1.3-2.61-1.69-9.17-6.88-18.45-13.63-27.48-20.69-6.71-5.25-13.09-10.91-19.61-16.39-.84-.7-1.67-1.41-2.5-2.11-1.53-1.07-2.59-2.68-4.2-3.66-2.71-2.43-5.38-4.92-8.15-7.28-1.65-1.41-1.85-2.06.45-3.17,8.31-3.99,16.58-8.08,24.7-12.43,18.65-9.98,37.21-20.13,55.52-30.73,30.94-17.91,61.14-36.97,90.68-57.07,19.6-13.34,38.96-27.04,57.74-41.54,11.47-8.85,23.06-17.57,34.41-26.57,8.65-6.86,17.03-14.07,25.52-21.14,11.53-9.61,22.8-19.51,33.95-29.56,6.9-6.21,13.66-12.57,20.54-18.79,10.02-9.04,19.4-18.75,29.02-28.2,10.41-10.22,20.66-20.64,30.5-31.4,13.37-14.63,26.56-29.43,39.19-44.72,10.46-12.65,20.59-25.56,30.52-38.63,10.46-13.77,20.43-27.89,30.05-42.24,7.64-11.4,15.04-22.97,21.92-34.87,4.61-7.98,9.28-15.94,13.89-23.93.65-.91.74-2.15,1.72-2.86,2.09-4.9,4.87-9.45,7.41-14.11.58-.12.87.05.7.69-.12,2.02-.98,3.95-.7,6.01-.38.79-.02,1.73-.5,2.5-1.59,8.24-3.25,16.46-4.73,24.72-.86,4.81-2.31,9.5-2.69,14.4-.43.77.01,1.72-.52,2.46-1.18,4.86-2.52,9.68-3.15,14.65-.41.77-.03,1.72-.57,2.45-1.43,5.78-2.88,11.56-4.3,17.35-1.69,6.88-3.03,13.85-5.26,20.6-.24.74-.18,1.59-.27,2.38-.48.73.16,1.84-.8,2.41.08,1.54-1.33,2.73-1.03,4.33-.28.58-.12,1.3-.54,1.84-.82,1.52-1.22,3.15-1.3,4.87-.48.73.16,1.84-.8,2.41-1.63,5.59-3.23,11.2-4.91,16.78-2.8,9.29-5.65,18.56-8.48,27.84-.19,1.11-.6,2.13-1.22,3.07-2.62,7.49-5.24,14.97-7.84,22.47-.29.84-.46,1.72-.69,2.59-.03.94-.66,1.64-.97,2.46-2.46,5.58-4.42,11.33-6.37,17.1-.26,1.09-.58,2.16-1.31,3.04-1.17,3.05-2.72,5.96-3.49,9.17-.6.96-.5,2.24-1.4,3.06-2.62,6.32-5.23,12.64-7.85,18.96-.12.96-.53,1.77-1.2,2.46-1.41,3.25-2.81,6.5-4.22,9.75-.47,1.28-1.02,2.53-1.73,3.71-2.6,4.74-4.77,9.68-6.84,14.67-.25.9-.59,1.76-1.27,2.43-1.07,1.51-2.01,3.08-2.36,4.93-1.58,3.29-2.89,6.71-4.98,9.74-.87,1.1-1.6,2.27-1.74,3.71-.53.75-.49,1.83-1.36,2.39-3.24,6.72-7.43,12.92-10.47,19.75-.78,1.75-2.39,3.18-2.9,5.17-.91,1.44-1.25,3.21-2.58,4.4-1.24,1.12-1.82,2.62-2.31,4.16-.8,1.28-1.05,2.92-2.45,3.82-4.67,7.72-9.35,15.43-14.02,23.15-.54.86-.87,1.86-1.67,2.55-.5.74-1.44,1.2-1.41,2.27-.5.94-.79,2.04-1.83,2.59-1.83,2.81-3.67,5.61-5.5,8.42-.52.93-.78,2.04-1.84,2.58-2.47,3.6-5.36,6.91-7.33,10.85-.4,1.05-1.15,1.84-1.96,2.57-1.87,2.9-4.39,5.34-5.98,8.43-.2.92-.98,1.4-1.57,2.02-.75.92-1.96,1.51-2.1,2.88-.38,1.04-1.16,1.78-1.89,2.56l.04-.05c-.27.86-.96,1.38-1.59,1.94-4.33,5.5-8.66,11-12.99,16.51-.54.53-.56,1.48-1.41,1.76-.16.2-.31.39-.47.59-.26.86-1,1.33-1.59,1.93-1.68,1.67-3.35,3.35-4.49,5.46-.41.74-1,1.32-1.62,1.88-.68.8-1.36,1.6-2.05,2.4-.59.87-1.18,1.75-2.01,2.43-1.06.27-.85,1.55-1.63,2.04-.89.95-1.68,1.98-2.64,2.85-3.01,2.86-5.72,6-8.37,9.19-.41.74-1,1.32-1.62,1.88-1.7,1.82-3.4,3.64-5.1,5.46-.42.81-1.06,1.4-1.83,1.87-.2.21-.4.41-.6.62-.62.99-1.46,1.78-2.41,2.45-6.12,6.17-12.25,12.35-18.37,18.52-1.38,1.42-2.62,2.99-4.32,4.07-3.88,3.61-7.76,7.22-11.64,10.83-.27.85-1.24.85-1.73,1.42l-.66.56c-.46.8-1.03,1.48-1.92,1.84-.57.16-.93.54-1.18,1.06-.92.99-1.83,1.99-3.06,2.62-1.97,1.42-3.96,2.81-5.5,4.73-.96.95-1.88,1.96-3.1,2.6-.79.61-1.57,1.22-2.36,1.83-.47.78-1,1.5-1.91,1.8l.05-.04c-.77.71-1.55,1.41-2.48,1.91-6.08,4.79-12.16,9.57-18.24,14.35-.62.49-1.27.92-1.91,1.39-.3.85-1.23.89-1.81,1.39-3.86,2.87-8.09,5.24-11.57,8.63-.54.54-1.29.74-1.92,1.13-6.25,4.17-12.5,8.35-18.76,12.52-2.89,1.92-5.79,3.82-8.69,5.73-.53.54-1.1,1.02-1.84,1.25-2.31.84-4,2.65-6.08,3.83-1.02.6-1.9,1.45-3.09,1.75-5.69,3.29-11.38,6.58-17.07,9.87-.75,1.07-2.03,1.2-3.07,1.75-1.03.57-2.05,1.14-3.08,1.7-.96,1.1-2.41,1.31-3.61,1.97-1.45.75-2.9,1.49-4.35,2.24-.92,1.2-2.4,1.38-3.63,2.02h.02c-1.09.88-2.43,1.27-3.68,1.84Z"/>
  <path class="cls-7" d="M486.99,41.63c-7.53,0-15.06,0-22.59,0,1.49-1.01,3.17-.53,4.74-.47,5.95.21,11.93-.69,17.85.46Z"/>
  <path class="cls-7" d="M793.1,666.43c1.66-3.25,3.32-6.49,4.98-9.74-1.06,3.55-2,7.16-4.98,9.74Z"/>
  <path class="cls-7" d="M647.08,864.49c1.44-1.36,2.88-2.71,4.32-4.07-.88,1.96-2.17,3.47-4.32,4.07Z"/>
  <path class="cls-7" d="M66.6,198.56c.63,2.3.46,4.65.45,6.98-1.4-2.25-.51-4.64-.45-6.98Z"/>
  <path class="cls-7" d="M347.05,877.35c1.84.71,3.14,2.06,4.2,3.66-2.01-.52-3.01-2.2-4.2-3.66Z"/>
  <path class="cls-7" d="M482.11,969.16c1.45.66,3.09,1,4.17,2.34-1.9.13-3.21-.78-4.17-2.34Z"/>
  <path class="cls-7" d="M387.21,796.59c1.28-1.17,2.85-1.86,4.4-2.59-.86,1.89-2.62,2.25-4.4,2.59Z"/>
  <path class="cls-7" d="M67.81,222.53c.6,1.84.52,3.74.45,5.64-1.56-1.77,0-3.78-.45-5.64Z"/>
  <path class="cls-7" d="M774.04,701.85c.68-1.57,1.37-3.14,2.58-4.4-.34,1.77-.71,3.52-2.58,4.4Z"/>
  <path class="cls-7" d="M626.89,882.81c.83-1.09,1.82-2,3.06-2.62-.65,1.31-.89,3.09-3.06,2.62Z"/>
  <path class="cls-7" d="M456.11,41.8c-1.89.58-3.83.49-5.76.44,1.86-.99,3.84-.34,5.76-.44Z"/>
  <path class="cls-7" d="M67.21,212c.68,1.88.47,3.83.44,5.77-1-1.86-.34-3.84-.44-5.77Z"/>
  <path class="cls-7" d="M769.28,709.83c.82-1.27,1.63-2.54,2.45-3.82-.31,1.6-.45,3.31-2.45,3.82Z"/>
  <path class="cls-7" d="M70.25,257.37c.61,1.42.55,2.92.46,4.41-1.41-1.34-.68-2.9-.46-4.41Z"/>
  <path class="cls-1" d="M499.82,42.23c-1.73.02-3.47.2-5.15-.43,1.72.12,3.5-.56,5.15.43Z"/>
  <path class="cls-7" d="M331.19,826.62c1.2-.66,2.4-1.32,3.6-1.98-.68,1.62-2.09,1.89-3.6,1.98Z"/>
  <path class="cls-7" d="M689.7,820.44c.66-1.16,1.36-2.28,2.64-2.85-.32,1.48-1.3,2.33-2.64,2.85Z"/>
  <path class="cls-7" d="M808.55,634.65c.3-1.37.86-2.61,1.73-3.71.05,1.53-.4,2.82-1.73,3.71Z"/>
  <path class="cls-7" d="M902.69,193.31c-.01-1.46-.2-2.94.46-4.32.52,1.51.16,2.93-.46,4.32Z"/>
  <path class="cls-7" d="M618.29,890.14c.88-1.05,1.86-1.99,3.1-2.6-.59,1.39-1.43,2.49-3.1,2.6Z"/>
  <path class="cls-7" d="M524.09,708.56c.86-1.1,2.02-1.8,3.22-2.46-.42,1.68-1.63,2.31-3.22,2.46Z"/>
  <path class="cls-7" d="M798.9,436.62c.58-1.14,1.19-2.27,2.21-3.1-.26,1.37-.53,2.74-2.21,3.1Z"/>
  <path class="cls-7" d="M499.2,969.02c1.12-.83,2.29-1.56,3.68-1.85-.8,1.46-2.15,1.84-3.68,1.85Z"/>
  <path class="cls-7" d="M502.87,967.18c1.04-.97,2.36-1.46,3.63-2.02-.63,1.72-2.08,1.96-3.63,2.02Z"/>
  <path class="cls-7" d="M510.85,962.92c1.08-.89,2.28-1.55,3.61-1.97-.68,1.62-2.09,1.9-3.61,1.97Z"/>
  <path class="cls-7" d="M446.2,42.4c-1.42.6-2.92.55-4.41.46,1.39-.98,2.94-.35,4.41-.46Z"/>
  <path class="cls-7" d="M836.99,202.44c.68-.98,1.36-1.97,2.04-2.95.06,1.5-.57,2.51-2.04,2.95Z"/>
  <path class="cls-7" d="M828.43,587.55c.36-1.05.53-2.18,1.31-3.04.68,1.5-.31,2.28-1.31,3.04Z"/>
  <path class="cls-7" d="M395.77,791.7c.9-.92,2.03-1.43,3.19-1.9-.58,1.46-1.8,1.81-3.19,1.9Z"/>
  <path class="cls-7" d="M358.47,812.48c.88-.95,2.05-1.41,3.2-1.9-.58,1.46-1.81,1.82-3.2,1.9Z"/>
  <path class="cls-7" d="M338.47,822.92c.87-.84,1.97-1.28,3.08-1.68-.46,1.6-1.77,1.64-3.08,1.68Z"/>
  <path class="cls-7" d="M669.77,841.9c.8-.82,1.61-1.64,2.41-2.45-.17,1.44-.99,2.25-2.41,2.45Z"/>
  <path class="cls-7" d="M406.94,924.48c1.2.05,1.94.84,2.63,1.69-1.2-.06-2.32-.23-2.63-1.69Z"/>
  <path class="cls-7" d="M901.45,203.7c0-1.04-.16-2.11.51-3.04.63,1.15.39,2.15-.51,3.04Z"/>
  <path class="cls-7" d="M68.44,232.79c.59,1.47.48,3.01.44,4.54-.98-1.43-.35-3.02-.44-4.54Z"/>
  <path class="cls-7" d="M537.68,947.62c.89-.83,1.82-1.59,3.09-1.75-.68,1.2-1.62,1.94-3.09,1.75Z"/>
  <path class="cls-7" d="M517.54,959.25c.89-.82,1.92-1.39,3.07-1.75-.4,1.67-1.75,1.69-3.07,1.75Z"/>
  <path class="cls-7" d="M70.91,264.82c.5,1.19.5,2.43.42,3.69-.66-1.17-.89-2.39-.42-3.69Z"/>
  <path class="cls-7" d="M71.48,271.46c.61,1.2.52,2.49.47,3.78-.71-1.19-1.05-2.43-.47-3.78Z"/>
  <path class="cls-7" d="M879.23,382.22c-.43,1.04-.81,2.11-1.72,2.86.1-1.24.19-2.48,1.72-2.86Z"/>
  <path class="cls-7" d="M462.56,958.78c1.04.42,2.11.78,2.84,1.7-1.23-.1-2.45-.2-2.84-1.7Z"/>
  <path class="cls-7" d="M845.6,539.88c.41-1.02.81-2.05,1.22-3.07.77,1.49-.34,2.24-1.22,3.07Z"/>
  <path class="cls-1" d="M508.99,42.85c-1.33.05-2.67.15-3.93-.44,1.31.09,2.71-.5,3.93.44Z"/>
  <path class="cls-7" d="M743,751.39c.61-.86,1.23-1.72,1.84-2.58-.09,1.23-.25,2.42-1.84,2.58Z"/>
  <path class="cls-7" d="M800.43,651.76c.42-.81.85-1.62,1.27-2.43.47,1.28-.23,1.94-1.27,2.43Z"/>
  <path class="cls-7" d="M722.16,780.7c.3-1.1,1.01-1.89,1.89-2.56.08,1.38-.7,2.13-1.89,2.56Z"/>
  <path class="cls-7" d="M733.7,764.81c.49-.98,1.02-1.93,1.96-2.57.07,1.41-.71,2.17-1.96,2.57Z"/>
  <path class="cls-7" d="M66.4,188.46c0,1.01.02,2.02.02,3.03-.45-1.01-1.52-2.01-.02-3.03Z"/>
  <path class="cls-7" d="M753.58,735.53c.36-.98.83-1.88,1.67-2.55-.11,1.14-.28,2.24-1.67,2.55Z"/>
  <path class="cls-7" d="M69.05,241.96c.59,1.26.5,2.6.44,3.93-.93-1.22-.37-2.61-.44-3.93Z"/>
  <path class="cls-7" d="M69.66,249.9c.56,1.26.49,2.6.45,3.93-.95-1.22-.38-2.61-.45-3.93Z"/>
  <path class="cls-5" d="M887.35,368.79c-.23-.23-.47-.46-.7-.69.02-.63.24-1.58.84-1.28.89.44.42,1.33-.14,1.97Z"/>
  <path class="cls-7" d="M750.34,740.39c.61-.86,1.22-1.73,1.83-2.59-.09,1.24-.25,2.42-1.83,2.59Z"/>
  <path class="cls-7" d="M822.64,400.55c.41-.94.81-1.9,1.67-2.55-.12,1.14-.29,2.24-1.67,2.55Z"/>
  <path class="cls-7" d="M73.93,295.9c.66.99.5,2.09.46,3.18-.73-.97-1.06-2.01-.46-3.18Z"/>
  <path class="cls-7" d="M604.35,645.67c.8-.65,1.59-1.31,2.39-1.96-.05,1.57-1.25,1.72-2.39,1.96Z"/>
  <path class="cls-7" d="M823.54,599.77c.33-1.08.6-2.19,1.4-3.06.01,1.24-.1,2.42-1.4,3.06Z"/>
  <path class="cls-7" d="M438.01,528.27c.68-.72,1.58-1.03,2.5-1.3-.11,1.81-1.48,1.22-2.5,1.3Z"/>
  <path class="cls-7" d="M377.43,802.09c.71-.8,1.66-1.21,2.62-1.59-.37,1.36-1.46,1.54-2.62,1.59Z"/>
  <path class="cls-7" d="M704.15,803.38c.33-.8.87-1.44,1.59-1.93.8,1.74-.71,1.58-1.59,1.93Z"/>
  <path class="cls-7" d="M237.61,607.14c.91-.7,2-.91,3.09-1.09-.7,1.31-1.93,1.11-3.09,1.09Z"/>
  <path class="cls-7" d="M693.98,815.55c.45-.99,1.13-1.79,2.01-2.43-.06,1.32-.81,2.06-2.01,2.43Z"/>
  <path class="cls-7" d="M611.59,895.65c.71-.79,1.4-1.6,2.48-1.91-.44,1.14-1.16,1.91-2.48,1.91Z"/>
  <path class="cls-7" d="M400.84,920.21c1.2.05,1.92.85,2.61,1.69-1.32.14-2-.73-2.61-1.69Z"/>
  <path class="cls-7" d="M814.49,621.2c.4-.82.8-1.64,1.2-2.46.63,1.32-.18,1.94-1.2,2.46Z"/>
  <path class="cls-7" d="M836.11,567.4c.08-.91.36-1.75.97-2.46.69,1.22-.19,1.82-.97,2.46Z"/>
  <path class="cls-7" d="M878.21,418.89c-.06-.87-.12-1.74.52-2.46.18.9,1.04,1.93-.52,2.46Z"/>
  <path class="cls-7" d="M493.14,972.1c.67-.64,1.44-1.09,2.4-1.11-.6.81-1.08,1.87-2.4,1.11Z"/>
  <path class="cls-7" d="M862.94,326.57c.1-.94.48-1.74,1.15-2.4.04,1-.11,1.91-1.15,2.4Z"/>
  <path class="cls-7" d="M77.57,325.89c.53.77.55,1.64.46,2.52-1.38-.61-.46-1.65-.46-2.52Z"/>
  <path class="cls-7" d="M886.15,377.31c-.07-.88-.13-1.76.5-2.5.57.98.33,1.8-.5,2.5Z"/>
  <path class="cls-7" d="M600.02,649.32c.62-.53,1.25-1.07,1.87-1.6-.14,1.1-.8,1.6-1.87,1.6Z"/>
  <path class="cls-7" d="M595.72,652.98c.47-.74,1.08-1.32,1.9-1.65-.12,1.14-.78,1.66-1.9,1.65Z"/>
  <path class="cls-7" d="M365.1,560.62c.9-.42,1.79-.84,2.69-1.25-.44,1.4-1.54,1.39-2.69,1.25Z"/>
  <path class="cls-7" d="M789.99,672.53c.31-.88.64-1.75,1.36-2.39.03,1.07-.11,2.05-1.36,2.39Z"/>
  <path class="cls-1" d="M679.45,577.19c.62-.62,1.25-1.25,1.87-1.87-.02,1.23-.64,1.85-1.87,1.87Z"/>
  <path class="cls-7" d="M369.51,558.81c.73-.69,1.61-1.02,2.6-1.12-.53,1.14-1.51,1.26-2.6,1.12Z"/>
  <path class="cls-7" d="M381.07,553.91c.77-.65,1.65-1.01,2.64-1.13-.54,1.18-1.54,1.28-2.64,1.13Z"/>
  <path class="cls-7" d="M213.21,713.71c.76.56,1.24,1.27,1.23,2.25-1.03-.41-1.29-1.25-1.23-2.25Z"/>
  <path class="cls-7" d="M448.4,759.94c.46-.68,1.15-1.03,1.89-1.31.02,1.38-.92,1.36-1.89,1.31Z"/>
  <path class="cls-7" d="M726.15,775.26c.32-.83.8-1.53,1.57-2.02.1,1.15-.39,1.86-1.57,2.02Z"/>
  <path class="cls-7" d="M720.61,782.6c.32-.82.81-1.5,1.59-1.94.11,1.17-.44,1.8-1.59,1.94Z"/>
  <path class="cls-7" d="M438.4,43.03c-1.05.6-2.19.49-3.33.43,1.01-.88,2.2-.4,3.33-.43Z"/>
  <path class="cls-1" d="M515.71,43.46c-1.14.11-2.26.1-3.31-.43,1.11.06,2.3-.43,3.31.43Z"/>
  <path class="cls-7" d="M706.21,800.86c.47-.59.94-1.18,1.41-1.76.02.98-.07,1.87-1.41,1.76Z"/>
  <path class="cls-1" d="M521.82,44.09c-1.14.09-2.27.13-3.32-.45,1.12.06,2.31-.45,3.32.45Z"/>
  <path class="cls-7" d="M851.09,181.67c.42-.61.84-1.21,1.26-1.82.58,1.3-.49,1.46-1.26,1.82Z"/>
  <path class="cls-7" d="M733.69,519.69c.48-.59.96-1.18,1.43-1.77.7,1.54-.65,1.43-1.43,1.77Z"/>
  <path class="cls-7" d="M902.09,198.8c-.08-1.07-.1-2.13.45-3.11-.08,1.05.38,2.17-.45,3.11Z"/>
  <path class="cls-7" d="M72.1,278.03c.49,1.06.54,2.18.43,3.31-.86-1.01-.39-2.19-.43-3.31Z"/>
  <path class="cls-7" d="M459.45,517.77l1.89-.99c-.23,1.09-.74,1.65-1.89.99Z"/>
  <path class="cls-7" d="M644.74,610.25c.41-.75.98-1.32,1.77-1.66-.11,1.06-.75,1.56-1.77,1.66Z"/>
  <path class="cls-7" d="M336.04,824.16c.66-.71,1.5-1.09,2.44-1.25-.44,1.15-1.39,1.31-2.44,1.25Z"/>
  <path class="cls-7" d="M860.21,492.19c.28-.8.11-1.75.8-2.41.51,1.06.38,1.91-.8,2.41Z"/>
  <path class="cls-7" d="M679.71,831.5c.54-.63,1.08-1.25,1.62-1.88,0,1.09-.51,1.74-1.62,1.88Z"/>
  <path class="cls-7" d="M303.05,834.09c.85.27,1.35.88,1.64,1.68-1.01-.11-1.56-.67-1.64-1.68Z"/>
  <path class="cls-7" d="M672.77,838.83c.61-.62,1.22-1.25,1.83-1.87-.02,1.2-.63,1.82-1.83,1.87Z"/>
  <path class="cls-7" d="M642.78,612.03c.5-.73,1.09-1.38,1.92-1.75-.12,1.15-.74,1.76-1.92,1.75Z"/>
  <path class="cls-7" d="M515.66,487.94c.81-.5,1.62-1,2.42-1.49-.22,1.46-1.28,1.55-2.42,1.49Z"/>
  <path class="cls-7" d="M633.71,876.74c.58-.47,1.15-.95,1.73-1.42.11,1.32-.76,1.43-1.73,1.42Z"/>
  <path class="cls-7" d="M862.3,484.91c-.04-.68-.02-1.34.54-1.84.21.73,1.04,1.64-.54,1.84Z"/>
  <path class="cls-7" d="M631.13,879.14c.64-.61,1.28-1.22,1.92-1.84-.04,1.24-.67,1.86-1.92,1.84Z"/>
  <path class="cls-7" d="M767.12,479.41c.32-.82.86-1.45,1.58-1.94.04,1.11-.45,1.78-1.58,1.94Z"/>
  <path class="cls-7" d="M874.5,436c-.04-.87-.11-1.75.57-2.45.55.99.28,1.79-.57,2.45Z"/>
  <path class="cls-7" d="M614.02,893.77c.64-.6,1.28-1.2,1.91-1.8-.05,1.23-.64,1.88-1.91,1.8Z"/>
  <path class="cls-7" d="M72.7,284.26c.58,1.01.54,2.1.46,3.2-.88-.96-.42-2.12-.46-3.2Z"/>
  <path class="cls-7" d="M589.63,912.78c.6-.46,1.2-.93,1.81-1.39.09,1.37-.82,1.43-1.81,1.39Z"/>
  <path class="cls-7" d="M73.33,290.25c.53,1.06.55,2.18.46,3.32-.92-1-.42-2.2-.46-3.32Z"/>
  <path class="cls-7" d="M576.14,922.54c.51-.59,1.01-1.2,1.92-1.13-.11,1.27-1.04,1.16-1.92,1.13Z"/>
  <path class="cls-7" d="M214.42,614.45c.44-.65,1.19-.51,1.8-.71-.38.8-.64,1.89-1.8.71Z"/>
  <path class="cls-7" d="M546.85,942.04c.43-.69,1.13-.97,1.84-1.25-.38.75-.55,1.83-1.84,1.25Z"/>
  <path class="cls-7" d="M636.69,617.54c.62-.6,1.25-1.21,1.87-1.81-.06,1.18-.69,1.79-1.87,1.81Z"/>
  <path class="cls-7" d="M755.91,302.14c.6-.63,1.21-1.25,1.81-1.88-.02,1.19-.62,1.82-1.81,1.88Z"/>
  <path class="cls-7" d="M76.37,316.68c.58.78.5,1.67.44,2.56-.81-.74-1.01-1.59-.44-2.56Z"/>
  <path class="cls-7" d="M863.87,478.74c.3-.79.1-1.75.8-2.41.51,1.06.38,1.91-.8,2.41Z"/>
  <path class="cls-7" d="M534.67,476.96c.79-.48,1.58-.97,2.37-1.45-.25,1.37-1.27,1.48-2.37,1.45Z"/>
  <path class="cls-7" d="M777.17,466.52c.25-.75.65-1.39,1.33-1.83.03.95,0,1.87-1.33,1.83Z"/>
  <path class="cls-7" d="M76.93,321.78c.76.66.55,1.53.52,2.37-1.65-.47-.04-1.65-.52-2.37Z"/>
  <path class="cls-7" d="M864.1,324.15c.12-.97.47-1.83,1.17-2.53.1,1.07-.05,2.02-1.17,2.53Z"/>
  <path class="cls-7" d="M698.04,810.71c.32-.82.89-1.42,1.62-1.88,0,1.09-.51,1.74-1.62,1.88Z"/>
  <path class="cls-3" d="M569.9,150.35c5.06,13.52,9.97,26.65,14.88,39.77,5.58,14.94,11.18,29.87,16.71,44.83.67,1.82,1.53,2.69,3.66,2.77,13.32.45,26.63,1.06,39.94,1.65,16.15.72,32.31,1.47,48.46,2.2.48.02.97.08,2.08.17-5.63,4.49-10.82,8.63-16.01,12.77-18.37,14.63-36.73,29.29-55.16,43.86-1.47,1.16-1.58,2.14-1.11,3.82,7.81,27.97,15.56,55.95,23.31,83.94.24.86.39,1.74.75,3.37-3.27-2.13-5.96-3.85-8.61-5.6-22.3-14.75-44.6-29.49-66.86-44.31-1.6-1.06-2.64-1.07-4.24,0-24.03,16-48.11,31.92-72.18,47.85-.83.55-1.69,1.06-2.68,1.68-.77-1.64.14-2.92.48-4.15,7.48-27.21,14.97-54.42,22.67-81.58.81-2.87.18-4.29-1.99-6-22.9-18.09-45.72-36.28-68.57-54.44-.31-.25-.59-.54-1.25-1.15,3.43-.24,6.48-.52,9.54-.65,16.36-.69,32.73-1.33,49.09-2.01,10.06-.42,20.11-.95,30.18-1.28,2.95-.1,4.55-.99,5.67-4.04,10.03-27.35,20.28-54.63,30.47-81.92.14-.38.37-.72.79-1.52Z"/>
  <path class="cls-1" d="M312.13,480.47c-3.95-2.21-7.21-4.59-10.42-7.03-20.63-15.63-36.64-35.46-51.15-56.63-10.35-15.1-19.76-30.8-29-46.59-1.6-2.74-3.23-4.07-6.61-3.85-5.68.36-11.4.21-17.1.04-2.35-.07-3.06.5-3.05,2.98.1,22.1,0,44.21.14,66.31.02,2.95-.92,3.43-3.54,3.38-8.04-.16-16.09-.16-24.13,0-2.44.05-3.27-.44-3.27-3.1.08-74.06.07-148.11,0-222.17,0-2.33.62-2.83,2.87-2.82,20.26.09,40.53-.3,60.78.19,12.87.31,24.69,5.08,35.34,12.13,26.53,17.59,37.75,42.82,34.55,74.08-2.92,28.57-17.76,49.44-43.76,62.06-1.3.63-1.74.95-.79,2.34,12.98,18.85,23.94,39.01,37.27,57.64,6.23,8.7,12.78,17.14,20.44,24.65.9.88,1.48,1.76,1.47,3.15-.06,10.89-.03,21.79-.03,33.26Z"/>
  <path class="cls-1" d="M372.62,187.28c-20.22,25.97-40.45,51.94-60.87,78.17-20.41-26.17-40.66-52.14-60.92-78.11-1.16.58-.65,1.51-.66,2.19-.05,6.72-.08,13.44,0,20.16.02,1.99-.51,2.21-2.24,1.39-7.41-3.51-15.14-5.93-23.43-6.05-2.18-.03-1.45-1.55-1.45-2.57-.04-11.61-.03-23.21-.03-34.82,0-1.43-.07-2.85.01-4.28.4-7.3.65-14.54-6.3-19.31.87-1.26,1.76-.82,2.48-.83,8.55-.04,17.11.04,25.66-.07,2.05-.03,3.29.63,4.53,2.23,20.02,25.81,40.1,51.58,60.17,77.35.67.86,1.37,1.71,2.18,2.72,9.19-11.81,18.18-23.37,27.16-34.93,11.68-15.03,23.37-30.04,35.01-45.1,1.21-1.56,2.44-2.32,4.54-2.29,9.23.14,18.46.06,27.88.06-.16.52-.16.87-.33,1.03-5.32,4.77-5.93,10.83-5.89,17.62.24,40.43.09,80.86.19,121.29,0,2.75-.7,3.35-3.34,3.26-6.81-.21-13.63-.2-20.44-.01-2.57.07-3.37-.44-3.36-3.24.12-30.86.08-61.72.08-92.58v-3c-.21-.11-.41-.21-.62-.32Z"/>
  <path class="cls-1" d="M315.94,386.49c0-30.34.03-60.67-.06-91.01,0-2.47.49-3.21,3.1-3.2,26.17.11,52.33.1,78.5,0,2.45,0,3.01.7,2.95,3.02-.15,6-.13,12.01,0,18.01.04,2.1-.55,2.74-2.72,2.73-18.3-.09-36.6.03-54.89-.13-2.84-.02-3.28.84-3.26,3.39.12,15.17.12,30.34,0,45.51-.02,2.46.72,2.96,3.04,2.95,18.3-.1,36.6-.03,54.9-.12,2.18-.01,3.02.42,2.95,2.81-.18,6.1-.17,12.21,0,18.31.06,2.25-.75,2.63-2.78,2.62-18.33-.08-36.65.02-54.98-.11-2.59-.02-3.13.7-3.12,3.18.1,27.59.02,55.19.14,82.78.01,2.83-.77,3.56-3.52,3.45-5.69-.22-11.41-.21-17.1,0-2.55.09-3.19-.61-3.18-3.16.09-30.34.06-60.67.06-91.01h-.02Z"/>
  <path class="cls-2" d="M194.86,288.67c0-14.66.04-29.31-.05-43.97-.01-2.03.38-2.74,2.61-2.79,11.29-.25,22.59-.79,33.75,1.53,17.26,3.59,28.7,14.12,34.04,30.64,5.42,16.8,2.05,32.18-9.41,45.88-9.89,11.83-23.14,15.13-37.57,15.66-6.91.25-13.84-.07-20.75.05-2.17.04-2.68-.62-2.67-2.73.09-14.76.05-29.52.05-44.28Z"/>
  <path class="cls-1" d="M223.03,269.71c0-6.41.07-12.83-.04-19.24-.03-1.9.42-2.45,2.37-2.23,9.1,1.03,17.12,4.22,23.35,11.21,1.01,1.13,1.47,2.3,1.46,3.84-.06,8.65-.08,17.31,0,25.96.02,1.88-.32,2.65-2.45,2.61-7.43-.14-14.86-.14-22.29,0-2.12.04-2.48-.72-2.45-2.6.1-6.51.04-13.03.04-19.54Z"/>
</svg>