<?xml version="1.0" encoding="utf-8" ?><svg xmlns="http://www.w3.org/2000/svg" xmlns:xlink="http://www.w3.org/1999/xlink" width="400" height="400" viewBox="0 0 400 400"><path fill="#00275E" transform="scale(1.01266 1.01266)" d="M176.736 0L218.41 0C218.452 0.0377331 218.492 0.0770743 218.535 0.113199C219.698 1.08583 226.533 1.30035 228.562 1.64808C239.012 3.33878 249.319 5.8211 259.393 9.0736C316.536 27.9315 362.049 71.6768 383.154 128.028C388.194 141.377 391.949 155.695 393.782 169.873C394.043 171.897 393.915 175.377 395 176.639L395 217.268C394.732 217.63 394.413 218.149 394.372 218.595C393.107 232.548 390.133 245.976 385.755 259.347C368.334 311.431 330.184 354.011 280.321 377.028C261.172 385.927 240.575 391.736 219.552 394.038C217.752 394.235 213.678 393.973 212.424 395L181.596 395C180.634 394.174 179.301 394.298 178.071 394.192C164.865 393.048 152.026 390.284 139.337 386.385C75.7019 366.659 26.2196 316.304 7.60886 252.334C4.75572 242.616 2.66027 232.691 1.34134 222.648C0.991358 220.108 1.34077 213.844 0 212.376L0 181.602C0.278182 181.32 0.624116 180.918 0.663373 180.492C0.982941 177.027 1.02644 173.492 1.59089 170.057C2.25191 166.034 2.87683 162.01 3.65429 158.015C15.8185 98.1433 54.9164 47.2283 109.619 20.0224C117.389 16.0903 125.422 12.7004 133.659 9.87698C141.626 7.18707 149.747 4.97664 157.978 3.25757C161.982 2.42391 166.016 1.77926 170.052 1.13505C171.891 0.841436 175.378 1.00933 176.736 0Z"/><path fill="#6CAEDF" transform="scale(1.01266 1.01266)" d="M193.153 7.38683C298.067 4.87343 385.125 87.9404 387.536 192.856C389.946 297.772 306.793 384.749 201.875 387.056C97.1031 389.36 10.2732 306.348 7.86635 201.578C5.45951 96.8082 88.3858 9.89674 193.153 7.38683Z"/><path fill="#00275E" transform="scale(1.01266 1.01266)" d="M191.121 11.6229C293.602 7.98696 379.634 88.1045 383.294 190.585C386.954 293.066 306.856 379.117 204.376 382.8C101.862 386.485 15.7775 306.355 12.1165 203.841C8.45562 101.326 88.6052 15.26 191.121 11.6229Z"/><path fill="white" transform="scale(1.01266 1.01266)" d="M191.162 19.8872C289.123 16.2711 371.458 92.7718 375.039 190.734C378.62 288.697 302.09 371.004 204.126 374.55C106.212 378.094 23.955 301.611 20.3759 203.699C16.7967 105.786 93.2503 23.5014 191.162 19.8872Z"/><path fill="#00275E" transform="scale(1.01266 1.01266)" d="M189.963 59.1221C266.244 54.8482 331.541 113.23 335.798 189.512C340.055 265.793 281.658 331.078 205.376 335.317C129.118 339.556 63.8583 281.181 59.6029 204.924C55.3475 128.667 113.707 63.3946 189.963 59.1221Z"/><path fill="white" transform="scale(1.01266 1.01266)" d="M190.2 67.6348C261.784 63.4879 323.17 118.17 327.293 189.755C331.415 261.34 276.713 322.708 205.127 326.807C133.574 330.904 72.2416 276.233 68.1206 204.682C63.9996 133.13 118.65 71.7798 190.2 67.6348Z"/><path fill="#6CAEDF" transform="scale(1.01266 1.01266)" d="M192.926 75.1054C260.341 72.461 317.143 124.949 319.821 192.362C322.499 259.775 270.039 316.604 202.627 319.315C135.168 322.028 78.2909 269.523 75.6112 202.063C72.9315 134.603 125.465 77.7517 192.926 75.1054Z"/><path fill="#00275E" transform="scale(1.01266 1.01266)" d="M197.638 87.9046C197.911 88.1664 211.262 136.864 212.414 141.952C215.195 139.152 218.048 135.533 221.089 132.467C231.582 121.89 241.886 115.405 255.148 108.953C244.341 126.662 241.518 137.925 236.489 157.137C254.853 152.289 274.436 146.837 292.81 142.398C279.508 155.259 265.925 169.442 252.82 182.606C266.55 183.403 292.027 193.902 302.496 202.866C299.006 202.514 294.585 202.783 291.092 202.987C277.359 203.789 264.736 206.825 251.676 210.883C255.432 214.004 260.857 220.069 264.518 223.634C274.045 232.909 283.289 242.863 292.844 252.084C280.304 248.643 267.467 245.608 254.921 242.136C249.407 240.61 243.513 239.263 238.093 237.555C243.19 250.533 245.825 264.346 245.865 278.289C245.894 282.63 245.559 287.004 245.453 291.359C238.559 276.522 224.722 262.031 212.975 250.938C211.082 257.17 209.317 264.23 207.59 270.558L198.043 305.678L197.833 306.423C197.053 305.905 184.766 258.272 182.776 252.527C172.169 267.231 156.293 277.26 140.467 285.326C150.581 268.099 154.234 256.525 158.859 237.236C140.575 242.565 121.226 246.861 102.789 252.079C106.49 247.829 112.343 242.311 116.486 238.136L142.562 211.852C139.987 211.797 135.295 210.639 132.707 210.036C116.803 206.33 105.717 200.295 92.3547 191.423C95.8731 191.955 100.075 191.68 103.637 191.521C117.971 190.884 130.024 187.465 143.597 183.657L116.438 156.288C112.365 152.181 106.528 145.903 102.31 142.196C120.055 147.351 139.265 151.923 157.249 156.801C151.052 139.353 147.794 121.963 150.144 103.377C150.51 104.269 150.966 105.113 151.435 105.955C158.27 118.239 167.43 129.091 177.514 138.828C179.137 140.395 180.771 141.954 182.32 143.595C188.155 125.483 192.041 106.139 197.638 87.9046Z"/><path fill="#FED303" transform="scale(1.01266 1.01266)" d="M213.271 170.775C215.852 169.863 220.008 168.882 222.755 168.16L238.929 163.915C247.894 161.564 260.295 157.85 269.102 156.038L266.41 158.764C262.914 162.744 258.433 166.935 254.715 170.784C246.067 179.737 236.982 188.456 228.327 197.376C227.004 196.931 224.264 197.013 222.833 197.158L222.509 197.512C222.268 202.249 221.243 205.535 219.087 209.728C215.909 214.215 214.851 215.354 210.177 218.532C205.942 220.854 202.526 221.851 197.645 222.002C192.39 221.646 189.995 220.949 185.395 218.748C184.465 220.292 183.225 222.583 181.805 223.616C179.342 224.722 172.105 226.321 168.99 227.145C161.901 229.093 154.797 230.983 147.677 232.816C143.098 234.016 137.677 235.295 133.21 236.707C132.211 236.069 132.146 235.916 132.359 234.831C131.181 235.063 131.211 234.898 130.211 234.387C132.038 232.089 137.977 226.384 140.341 224.002L159.744 204.42C160.882 203.279 166.389 198.036 166.953 196.969C168.317 197.198 171.479 197.886 172.51 197.067C172.805 196.832 172.893 195.893 172.985 195.428C173.649 190.849 174.25 189.097 176.185 185.036C176.527 184.684 177.49 183.234 177.832 182.759C179.991 179.767 182.326 177.913 185.343 175.902C190.009 173.377 192.495 172.808 197.702 172.54C201.259 172.816 207.243 173.61 209.981 176.029C211.201 174.39 211.96 172.206 213.271 170.775Z"/><path fill="#CA9B2D" transform="scale(1.01266 1.01266)" d="M172.985 195.428C173.014 198.904 173.216 202.017 174.412 205.351C172.994 206.491 162.897 214.578 162.148 215.511C161.832 216.576 160.972 217.306 160.131 218.009C161.588 217.956 161.425 217.558 162.521 217.6C159.669 219.271 156.903 220.974 153.884 222.331C152.881 223.212 149.951 224.849 148.68 225.576L137.591 231.85C136.385 232.53 133.326 234.143 132.359 234.831C131.181 235.063 131.211 234.898 130.211 234.387C132.038 232.089 137.977 226.384 140.341 224.002L159.744 204.42C160.882 203.279 166.389 198.036 166.953 196.969C168.317 197.198 171.479 197.886 172.51 197.067C172.805 196.832 172.893 195.893 172.985 195.428Z"/><path fill="#152503" transform="scale(1.01266 1.01266)" d="M153.884 222.331C154.171 221.629 161.067 216.337 162.148 215.511C161.832 216.576 160.972 217.306 160.131 218.009C161.588 217.956 161.425 217.558 162.521 217.6C159.669 219.271 156.903 220.974 153.884 222.331Z"/><path fill="#CA9B2D" transform="scale(1.01266 1.01266)" d="M241.164 172.129C240.877 172.451 264.2 158.625 264.236 158.614L264.425 158.812C263.406 159.572 262.365 160.294 261.475 161.201C261.77 161.764 261.752 161.854 262.313 162.163C263.854 161.149 263.887 159.694 266.41 158.764C262.914 162.744 258.433 166.935 254.715 170.784C246.067 179.737 236.982 188.456 228.327 197.376C227.004 196.931 224.264 197.013 222.833 197.158L222.509 197.512C222.479 194.538 221.959 191.973 221.04 189.164C225.482 185.565 229.883 181.917 234.244 178.221C236.494 176.278 238.947 174.367 241.26 172.474L241.164 172.129Z"/><path fill="#00275E" transform="scale(1.01266 1.01266)" d="M232.54 177.139L234.244 178.221C229.883 181.917 225.482 185.565 221.04 189.164C221.959 191.973 222.479 194.538 222.509 197.512C222.268 202.249 221.243 205.535 219.087 209.728C215.909 214.215 214.851 215.354 210.177 218.532C205.942 220.854 202.526 221.851 197.645 222.002C192.39 221.646 189.995 220.949 185.395 218.748C186.34 216.881 187.249 215.338 188.156 213.381C194.432 216.12 200.275 216.931 206.561 213.516C210.907 211.185 214.132 207.202 215.508 202.465C216.986 197.37 216.336 192.576 213.766 187.962C220.001 184.316 226.26 180.708 232.54 177.139Z"/><path fill="#00275E" transform="scale(1.01266 1.01266)" d="M197.702 172.54C201.259 172.816 207.243 173.61 209.981 176.029C209.016 177.664 207.935 179.596 206.925 181.173C202.544 178.701 197.496 177.996 192.636 179.385C187.848 180.777 183.812 184.018 181.419 188.392C179.04 192.651 178.488 197.691 179.887 202.364C180.278 203.683 180.961 205.38 181.618 206.595C175.299 210.145 168.837 214.206 162.521 217.6C161.425 217.558 161.588 217.956 160.131 218.009C160.972 217.306 161.832 216.576 162.148 215.511C162.897 214.578 172.994 206.491 174.412 205.351C173.216 202.017 173.014 198.904 172.985 195.428C173.649 190.849 174.25 189.097 176.185 185.036C176.527 184.684 177.49 183.234 177.832 182.759C179.991 179.767 182.326 177.913 185.343 175.902C190.009 173.377 192.495 172.808 197.702 172.54Z"/><path fill="#090E01" transform="scale(1.01266 1.01266)" d="M241.164 172.129L241.26 172.474C238.947 174.367 236.494 176.278 234.244 178.221L232.54 177.139C235.377 175.404 238.252 173.734 241.164 172.129Z"/><path fill="#CA9B2D" transform="scale(1.01266 1.01266)" d="M197.725 114.295L209.828 158.433C210.412 160.505 212.624 169.476 213.271 170.775C211.96 172.206 211.201 174.39 209.981 176.029C207.243 173.61 201.259 172.816 197.702 172.54C192.495 172.808 190.009 173.377 185.343 175.902C184.537 173.772 183.147 172.71 182.396 170.597C187.161 153.862 192.156 136.023 196.395 119.165L197.725 114.295Z"/><path fill="#FED303" transform="scale(1.01266 1.01266)" d="M196.395 119.165C197.149 118.586 196.86 118.626 197.607 118.698C198.179 119.475 197.705 126.63 197.703 128.038L197.675 154.168C197.626 158.768 197.342 168.231 197.702 172.54C192.495 172.808 190.009 173.377 185.343 175.902C184.537 173.772 183.147 172.71 182.396 170.597C187.161 153.862 192.156 136.023 196.395 119.165Z"/><path fill="#CA9B2D" transform="scale(1.01266 1.01266)" d="M222.509 197.512L222.833 197.158C224.264 197.013 227.004 196.931 228.327 197.376C232.549 201.017 239.05 208.073 243.145 212.226C251.071 220.263 259.431 228.315 267.221 236.427C267.915 237.041 268.935 238.321 269.575 239.079C265.509 237.409 258.352 235.793 253.864 234.613L227.867 227.802C223.272 226.604 217.372 225.232 212.939 223.785C212.819 223.115 210.774 219.955 210.177 218.532C214.851 215.354 215.909 214.215 219.087 209.728C221.243 205.535 222.268 202.249 222.509 197.512Z"/><path fill="#FED303" transform="scale(1.01266 1.01266)" d="M222.509 197.512L222.833 197.158C224.264 197.013 227.004 196.931 228.327 197.376C232.549 201.017 239.05 208.073 243.145 212.226C251.071 220.263 259.431 228.315 267.221 236.427C266.492 237.079 266.29 237.105 265.388 236.944C264.076 235.077 261.645 234.228 259.69 233.078L248.492 226.518C242.225 222.847 235.938 219.212 229.63 215.611C226.323 213.719 222.466 211.39 219.087 209.728C221.243 205.535 222.268 202.249 222.509 197.512Z"/><path fill="#FED303" transform="scale(1.01266 1.01266)" d="M185.395 218.748C189.995 220.949 192.39 221.646 197.645 222.002C202.526 221.851 205.942 220.854 210.177 218.532C210.774 219.955 212.819 223.115 212.939 223.785C208.718 239.486 203.605 256.689 199.764 272.378C199.072 274.93 198.262 277.66 197.845 280.25C197.231 278.157 196.643 276.056 196.081 273.948C195.21 272.149 194.639 268.34 194.022 266.833C191.681 261.107 184.204 226.327 181.805 223.616C183.225 222.583 184.465 220.292 185.395 218.748Z"/><path fill="#CA9B2D" transform="scale(1.01266 1.01266)" d="M185.395 218.748C189.995 220.949 192.39 221.646 197.645 222.002C197.447 224.513 197.665 228.616 197.685 231.289C197.738 237.65 197.748 244.01 197.714 250.371C197.283 254.151 198.261 272.3 196.739 273.606L196.245 273.7L196.081 273.948C195.21 272.149 194.639 268.34 194.022 266.833C191.681 261.107 184.204 226.327 181.805 223.616C183.225 222.583 184.465 220.292 185.395 218.748Z"/><path fill="#E5B523" transform="scale(1.01266 1.01266)" d="M196.081 273.948L196.245 273.7L196.739 273.606C198.261 272.3 197.283 254.151 197.714 250.371C197.856 253.785 197.446 272.826 198.538 274.378L198.769 274.197C198.791 273.276 198.77 272.809 199.764 272.378C199.072 274.93 198.262 277.66 197.845 280.25C197.231 278.157 196.643 276.056 196.081 273.948Z"/><path fill="#CA9B2D" transform="scale(1.01266 1.01266)" d="M130.223 156.904C134.519 157.693 140.145 159.466 144.475 160.615L172.006 167.804C174.278 168.383 180.463 170.42 182.396 170.597C183.147 172.71 184.537 173.772 185.343 175.902C182.326 177.913 179.991 179.767 177.832 182.759C177.49 183.234 176.527 184.684 176.185 185.036C174.25 189.097 173.649 190.849 172.985 195.428C172.893 195.893 172.805 196.832 172.51 197.067C171.479 197.886 168.317 197.198 166.953 196.969C154.518 184.908 142.03 171.896 129.746 159.574C130.519 158.835 130.143 159.044 131.167 158.769C130.794 158.293 130.48 157.484 130.223 156.904Z"/><path fill="#FED303" transform="scale(1.01266 1.01266)" d="M129.746 159.574C130.519 158.835 130.143 159.044 131.167 158.769C136.669 161.794 141.99 165.231 147.44 168.343C155.971 173.214 164.499 178.093 173.021 182.984C173.972 183.53 174.887 184.155 175.901 184.574L176.185 185.036C174.25 189.097 173.649 190.849 172.985 195.428C172.893 195.893 172.805 196.832 172.51 197.067C171.479 197.886 168.317 197.198 166.953 196.969C154.518 184.908 142.03 171.896 129.746 159.574Z"/><path fill="#CA9B2D" transform="scale(1.01266 1.01266)" d="M237.469 127.513C237.824 128.518 236.57 130.992 236.141 132.123C232.774 140.981 231.157 150.157 228.691 159.214C225.161 160.288 221.473 161.009 217.998 162.15L217.299 159.564C216.437 156.606 215.603 153.641 214.799 150.667C221.95 141.05 228.264 134.925 237.469 127.513Z"/><path fill="#CA9B2D" transform="scale(1.01266 1.01266)" d="M218.072 232.254C220.484 233.144 226.635 234.626 229.48 235.427C234.57 246.949 236.2 254.97 238.139 267.068L236.193 264.724C230.733 258.249 221.684 248.508 214.904 243.106C216.023 239.602 216.886 235.608 218.072 232.254Z"/><path fill="#CA9B2D" transform="scale(1.01266 1.01266)" d="M176.43 232.54L176.977 232.442C178.062 233.262 180.098 241.854 180.574 243.593C176.17 250.646 166.674 259.834 160.23 265.063L157.384 267.24C161.372 257.829 164.457 245.146 166.627 235.172C169.868 234.39 173.205 233.425 176.43 232.54Z"/><path fill="#CA9B2D" transform="scale(1.01266 1.01266)" d="M157.278 127.653C158.146 128.09 159.836 130.269 160.515 131.11C166.536 138.558 173.41 144.924 180.467 151.383C179.564 154.352 178.824 157.178 178.053 160.187L177.474 162.155C174.643 161.183 169.107 159.885 165.874 158.967C161.003 147.121 159.14 140.172 157.278 127.653Z"/><path fill="#CA9B2D" transform="scale(1.01266 1.01266)" d="M148.727 189.549C148.801 189.54 148.876 189.516 148.951 189.521C150.354 189.597 155.863 195.861 157.255 197.176C154.472 199.925 151.563 203.032 148.661 205.612C141.775 204.896 136.254 203.583 129.653 201.841C124.756 200.388 121.405 199.146 116.673 197.178C126.362 196.266 139.476 192.331 148.727 189.549Z"/><path fill="#CA9B2D" transform="scale(1.01266 1.01266)" d="M246.437 188.966C252.871 188.678 272.605 194.027 278.226 197.164C273.984 197.641 269.091 198.823 264.875 199.757C258.102 201.455 252.747 203.004 246.115 205.181C244.025 203.007 240.351 199.131 238.127 197.27L246.437 188.966Z"/><path fill="#E5B523" transform="scale(1.01266 1.01266)" d="M125.763 238.875C127.101 237.419 128.792 235.805 130.211 234.387C131.211 234.898 131.181 235.063 132.359 234.831C132.146 235.916 132.211 236.069 133.21 236.707C131.158 237.108 127.71 238.157 125.763 238.875Z"/><path fill="#E5B523" transform="scale(1.01266 1.01266)" d="M125.873 155.677C127.52 156.249 128.517 156.519 130.223 156.904C130.48 157.484 130.794 158.293 131.167 158.769C130.143 159.044 130.519 158.835 129.746 159.574C128.413 158.433 127.091 156.962 125.873 155.677Z"/><path fill="#00275E" transform="scale(1.01266 1.01266)" d="M207.725 343.045C212.347 342.774 215.948 343.219 219.266 346.846C221.673 349.477 222.389 353.149 222.03 356.605C221.906 357.796 220.971 358.962 220.889 360.46C221.376 361.264 222.42 361.766 223.264 362.288C222.232 363.6 221.214 364.923 220.211 366.258L217.446 364.018C216.607 364.673 216.397 364.803 215.434 365.255C214.608 365.629 213.754 365.935 212.878 366.169C209.859 366.989 206.419 366.611 203.696 365.046C201.001 363.491 199.036 360.925 198.237 357.917C197.384 354.786 197.842 351.443 199.505 348.657C201.412 345.467 204.225 343.917 207.725 343.045Z"/><path fill="white" transform="scale(1.01266 1.01266)" d="M209.236 347.527C215.558 347.188 216.977 352.218 216.797 357.356C214.968 356.346 213.976 355.625 212.543 354.135C211.458 355.622 210.563 356.77 209.37 358.172L212.056 360.024L213.672 361.264C211.264 361.875 209.297 362.319 206.89 361.089C205.177 360.209 203.907 358.658 203.383 356.806C202.02 352.134 204.72 348.572 209.236 347.527Z"/><path fill="#00275E" transform="scale(1.01266 1.01266)" d="M155.968 338.238C162.555 337.208 168.726 341.722 169.742 348.311C170.757 354.9 166.23 361.062 159.639 362.063C153.067 363.061 146.928 358.551 145.916 351.982C144.904 345.413 149.401 339.264 155.968 338.238Z"/><path fill="white" transform="scale(1.01266 1.01266)" d="M156.67 343.196C160.483 342.556 164.097 345.112 164.765 348.92C165.432 352.728 162.902 356.36 159.1 357.055C155.258 357.757 151.58 355.196 150.906 351.349C150.231 347.503 152.819 343.843 156.67 343.196Z"/><path fill="#00275E" transform="scale(1.01266 1.01266)" d="M251.884 38.6016C257.983 37.3266 263.966 41.2186 265.273 47.311C266.58 53.4035 262.719 59.4071 256.634 60.7458C250.503 62.0944 244.445 58.1988 243.129 52.0611C241.812 45.9235 245.739 39.886 251.884 38.6016Z"/><path fill="white" transform="scale(1.01266 1.01266)" d="M252.86 43.2202C256.415 42.4965 259.889 44.7745 260.642 48.3236C261.396 51.8727 259.147 55.3656 255.604 56.1489C252.019 56.9414 248.476 54.6599 247.713 51.0685C246.951 47.477 249.262 43.9525 252.86 43.2202Z"/><path fill="#00275E" transform="scale(1.01266 1.01266)" d="M89.1284 69.6306C93.1431 68.9618 97.2076 70.5003 99.7731 73.6599C102.339 76.8195 103.01 81.1134 101.531 84.9051C100.052 88.6969 96.651 91.4025 92.6237 91.9908C86.4832 92.8878 80.7657 88.6722 79.8073 82.541C78.8489 76.4097 83.0071 70.6503 89.1284 69.6306Z"/><path fill="white" transform="scale(1.01266 1.01266)" d="M89.1528 74.4632C91.4671 73.7993 93.9594 74.4498 95.654 76.1601C97.3486 77.8705 97.976 80.3686 97.2907 82.6767C96.6053 84.9848 94.7162 86.7357 92.3628 87.2441C88.8875 87.9948 85.443 85.8544 84.5769 82.406C83.7108 78.9577 85.7352 75.4437 89.1528 74.4632Z"/><path fill="#00275E" transform="scale(1.01266 1.01266)" d="M199.488 28.2663C204.698 28.5325 212.024 28.2657 215.767 32.38C220.016 37.0512 219.248 43.5335 214.785 47.7393C209.404 51.5656 204.523 50.2513 198.044 49.7123C198.53 42.7275 198.739 35.1988 199.488 28.2663Z"/><path fill="white" transform="scale(1.01266 1.01266)" d="M203.77 32.9815C206.618 32.9117 209.447 33.0267 211.694 35.0389C212.881 36.0816 213.589 37.5647 213.655 39.1434C213.737 41.2635 212.693 43.1001 211.348 44.637C208.803 46.4554 205.958 45.9635 202.984 45.7389C203.439 42.3167 203.584 36.5502 203.77 32.9815Z"/><path fill="#00275E" transform="scale(1.01266 1.01266)" d="M175.81 342.443C179.811 342.706 184.176 342.897 188.045 343.594C191.757 344.477 194.332 346.892 194.252 350.925C194.167 355.21 192.272 356.626 188.797 358.481C190.449 361.317 192.128 364.14 193.632 367.057C192.424 366.869 191.191 366.787 189.972 366.685L187.7 366.43C186.336 363.834 184.807 361.154 183.389 358.573L179.585 358.407C179.26 360.776 179.129 363.14 178.966 365.524C177.057 365.525 175.767 365.429 173.863 365.234C174.635 357.827 175.173 349.906 175.81 342.443Z"/><path fill="white" transform="scale(1.01266 1.01266)" d="M180.561 347.43C184.707 347.687 191.415 347.418 188.198 353.607C186.243 354.861 182.366 354.189 180.003 353.974C180.033 351.892 180.315 349.508 180.561 347.43Z"/><path fill="#00275E" transform="scale(1.01266 1.01266)" d="M70.2347 86.0873C71.2122 86.329 85.6131 97.7205 87.5112 99.2427C86.5414 100.326 85.4563 101.775 84.5374 102.935C80.9981 100.034 76.8924 96.9721 73.2396 94.1809C74.5563 97.0725 75.9966 101.554 77.0909 104.646C73.2988 104.646 69.6699 104.3 65.9136 103.829L70.6226 107.441C72.7766 109.12 74.9543 110.769 77.1551 112.387C76.1893 113.98 75.4191 114.853 74.2275 116.258C73.0152 115.069 69.8491 112.771 68.3583 111.632C64.5779 108.784 60.84 105.881 57.1461 102.923C58.457 101.711 59.2442 100.52 60.1883 99.0248C63.7625 99.3836 67.3183 99.6227 70.8931 100.062C69.8999 96.8668 68.4432 93.3617 67.2117 90.214L70.2347 86.0873Z"/><path fill="#00275E" transform="scale(1.01266 1.01266)" d="M263.28 328.491C264.066 328.811 264.779 331.032 265.619 332.386C262.282 334.124 257.594 335.922 254.069 337.322C254.696 338.823 255.389 340.249 256.09 341.713C259.383 340.111 262.704 338.585 266.15 337.341C266.615 339.384 266.772 339.698 267.84 341.411C264.743 342.859 260.852 344.503 257.675 345.756C258.392 347.485 258.874 348.54 259.777 350.175C262.693 348.706 266.873 347.016 269.944 345.661C270.405 345.413 270.375 345.436 270.901 345.469C271.669 346.338 272.376 348.217 272.927 349.385L256.671 356.371C255.958 354.057 253.691 349.058 252.625 346.614C251.178 343.297 249.239 338.318 247.591 335.242C252.741 333.083 258.227 330.829 263.28 328.491Z"/><path fill="#00275E" transform="scale(1.01266 1.01266)" d="M113.679 50.4362C114.862 51.4051 123.992 66.1186 125.669 68.5738L122.085 70.811C116.776 68.7449 111.403 67.0441 106.107 64.8703C108.224 68.7548 111.161 72.5177 113.436 76.5147C112.428 77.0882 111.116 77.9983 110.116 78.6503C109.748 78.8403 109.872 78.7721 109.406 78.7719C108.436 77.5846 106.856 74.8464 105.935 73.4782C103.219 69.4424 100.621 64.9937 97.7754 61.0622C98.8958 60.1721 100.285 59.2883 101.489 58.4814C105.218 60.1577 113.005 62.6813 117.067 64.1446C115.222 61.2411 111.737 55.5258 109.716 53.1882C111.163 52.2531 112.307 51.4754 113.679 50.4362Z"/><path fill="#00275E" transform="scale(1.01266 1.01266)" d="M243.128 336.765L243.509 336.816C243.97 337.422 245.572 344.13 245.869 345.31C246.776 348.917 248.334 353.472 246.419 356.961C243.909 361.535 236.704 363.717 232.077 361.204C227.624 358.671 226.466 350.419 225.288 345.655C224.928 344.202 224.642 343.196 224.155 341.781C225.971 341.239 227.405 340.863 229.256 340.461C230.051 344.159 232.31 355.856 235.064 356.839C247.297 361.204 239.533 340.914 238.587 338.049C240.109 337.65 241.623 337.222 243.128 336.765Z"/><path fill="#00275E" transform="scale(1.01266 1.01266)" d="M225.89 30.5818C230.632 31.8145 236.807 33.1457 241.637 34.0052C241.548 35.4191 241.168 36.778 240.835 38.1562C237.549 37.7223 232.928 36.5484 229.698 35.7514L228.545 40.0772C231.298 40.4745 235.555 41.5318 238.486 42.1057C238.249 43.5059 237.997 44.9036 237.73 46.2982C234.662 45.72 231.61 45.0627 228.576 44.3268L228.013 44.3266C227.388 44.8707 226.97 47.6705 226.79 48.586C230.581 49.3036 234.412 50.2036 238.281 50.9343C237.878 52.5321 237.631 53.654 237.378 55.2782C234.416 54.4225 224.328 52.2628 221.312 51.8922C222.618 44.9359 224.372 37.5318 225.89 30.5818Z"/><path fill="#00275E" transform="scale(1.01266 1.01266)" d="M155.141 33.769L155.623 33.7407C156.464 34.2727 156.793 36.5101 157.051 37.6056C153.762 38.7731 149.418 39.9698 145.989 41.0229C146.487 42.2809 146.909 43.8665 147.297 45.1895C150.395 44.0887 153.887 43.0875 157.05 42.1118C157.43 43.4684 157.927 44.8721 158.377 46.2151C155.344 46.9687 151.72 48.2502 148.515 49.1254C149.095 50.4533 149.503 52.0792 149.901 53.4924C153.065 52.548 156.288 51.4862 159.443 50.4874C160.056 50.2592 160.311 50.0817 160.923 50.2843C161.637 51.1036 161.922 52.6618 162.468 53.9786L146.691 58.9622L140.307 38.2923C145.224 36.861 150.216 35.2506 155.141 33.769Z"/><path fill="#00275E" transform="scale(1.01266 1.01266)" d="M284.596 55.2773C291.299 54.9105 295.922 58.3142 297.804 64.7236L293.277 65.8342C289.267 53.5578 275.236 62.7205 281.569 71.2485C284.32 73.3964 285.337 73.2634 288.79 73.2355L289.507 77.3611C283.172 78.3896 276.981 75.754 275.367 69.1104C274.669 66.1782 275.185 63.0886 276.796 60.5414C278.662 57.5283 281.247 56.0837 284.596 55.2773Z"/><path fill="#00275E" transform="scale(1.01266 1.01266)" d="M181.057 29.1141C181.765 28.9554 181.447 28.9065 182.05 29.1784C181.613 32.1068 180.528 36.3567 179.825 39.3467C178.904 43.2612 177.978 47.9004 176.84 51.6773C175.699 51.9634 173.966 52.1535 172.754 52.3214C171.055 48.7837 165.941 40.7191 163.801 37.1176C162.799 35.449 161.778 33.7921 160.737 32.1472C162.526 31.8848 164.318 31.6414 166.112 31.417C168.505 35.9946 171.487 41.1041 174.11 45.5712C174.495 41.3855 176.218 34.1162 177.046 29.6629C178.445 29.3453 179.633 29.2536 181.057 29.1141Z"/><path fill="#00275E" transform="scale(1.01266 1.01266)" d="M130.75 327.846C131.495 328.09 132.815 328.739 133.568 329.086C138.319 331.274 143.358 333.201 148.037 335.513C147.413 337.346 147.063 338.098 146.152 339.813C143.963 338.835 141.988 337.947 139.858 336.84C138.858 339.683 136.863 343.937 135.624 346.813C134.644 349.172 133.592 351.501 132.471 353.797C130.832 352.997 129.523 352.397 127.83 351.726C130.103 347.401 133.226 339.583 135.233 334.927C132.995 334.073 130.798 333.076 128.605 332.111C129.483 330.879 130.129 329.25 130.75 327.846Z"/><path fill="#00275E" transform="scale(1.01266 1.01266)" d="M326.738 88.3242C327.412 88.7429 329.485 91.5465 330.281 92.4722C329.523 94.7603 327.383 99.599 326.366 101.821C329.531 101.631 333.369 101.336 336.484 100.969C337.229 102.212 338.75 104.09 339.679 105.449C335.881 105.459 331.164 105.924 327.312 106.204C325.351 106.318 324.811 106.217 323.026 107.35C321.04 108.61 319.226 110.062 317.437 111.587C316.622 110.39 315.293 108.786 314.377 107.609C320.716 103.591 321.7 102.714 324.176 95.5196C324.953 93.2618 326.052 90.7626 326.738 88.3242Z"/><path fill="#00275E" transform="scale(1.01266 1.01266)" d="M134.538 40.4853L135.001 40.4989C135.582 40.9796 136.592 43.3967 136.981 44.2341C135.339 45.1536 132.784 46.1836 131.006 46.9615C132.206 50.1141 136.676 59.4621 138.272 62.5399C136.772 63.2307 135.406 63.8643 133.942 64.6456C133.093 63.0166 132.268 61.1028 131.495 59.4158C129.839 55.9546 128.248 52.4619 126.726 48.9396C124.725 49.9678 122.763 50.8493 120.717 51.7753C119.913 50.1211 119.545 49.3897 119.061 47.6393C123.954 45.5808 129.675 42.7825 134.538 40.4853Z"/><path fill="#00275E" transform="scale(1.01266 1.01266)" d="M311.171 72.1691C313.257 73.529 321.534 82.4772 323.832 84.7619C322.816 85.8189 321.622 86.8873 320.541 87.8942C319.179 86.3343 317.501 84.685 316.043 83.1863C313.486 85.6274 310.89 88.2975 308.375 90.8018C306.839 92.2981 305.33 93.8222 303.85 95.3733C303.052 94.3734 301.349 92.7458 300.399 91.7827C303.898 88.8226 309.23 83.2364 312.726 79.8516L307.968 75.1452L311.171 72.1691Z"/><path fill="#00275E" transform="scale(1.01266 1.01266)" d="M344.858 198.494C348.502 198.179 349.101 200.855 352.492 201.506C355.137 202.679 359.427 198.178 361.257 198.561C365.882 199.53 365.499 201.648 371.066 201.539C371.023 202.983 370.893 204.269 370.75 205.707C367.787 205.941 367.019 205.825 364.529 204.214C360.04 201.207 359.654 203.894 355.538 205.548C351.931 206.998 349.045 203.973 345.939 202.472C343.881 203.208 341.643 204.748 339.756 205.927C339.859 204.463 339.882 202.902 339.928 201.426C341.649 200.327 343.036 199.453 344.858 198.494Z"/><path fill="#00275E" transform="scale(1.01266 1.01266)" d="M49.5921 178.665C51.6597 179.342 54.2505 181.119 56.388 182.202C55.8464 183.664 55.7741 184.747 55.5815 186.298C53.1322 184.868 50.7844 182.31 47.8476 183.61C42.6927 187.265 40.7253 186.945 35.4445 183.569C32.5172 181.697 28.6921 187.718 25.1618 186.127C24.5372 185.359 24.8397 183.142 24.9089 182.087C30.185 181.894 30.1927 179.73 33.8899 178.78C36.0534 179.062 37.5649 180.57 39.5031 181.495C43.5419 183.422 46.0092 179.766 49.5921 178.665Z"/><path fill="#00275E" transform="scale(1.01266 1.01266)" d="M32.8481 208.252C37.0933 207.641 38.0907 211.677 42.4837 211.177C45.7077 210.809 45.672 209.536 48.1169 208.433C50.2429 207.474 54.2471 210.284 56.087 211.305C56.2501 212.695 56.3551 214.235 56.4817 215.641C52.8828 214.58 52.3482 212.491 48.7195 212.389C46.7817 213.656 44.7797 215.084 42.4419 215.49C39.9781 215.917 39.2601 215.052 37.4388 213.788C33.5631 211.099 31.8045 213.518 28.4518 215.113C27.8274 215.41 26.3653 215.643 25.6122 215.764C25.2128 214.338 25.0871 212.761 24.9221 211.281C28.6492 211.306 29.7664 210.218 32.8481 208.252Z"/><path fill="#00275E" transform="scale(1.01266 1.01266)" d="M345.435 178.713C347.376 178.835 349.149 180.396 350.848 181.322C355.226 183.709 357.624 179.649 361.395 178.694C365.507 180.029 365.1 181.843 370.499 182.06L370.488 186.325C367.574 186.21 366.525 186.066 364.151 184.324C360.257 181.767 359.089 184.543 355.583 185.896C351.871 187.33 350.096 184.96 347.136 183.512C344.793 182.366 342.211 184.957 340.033 186.001L339.737 186.141C339.588 184.75 339.391 183.364 339.147 181.986C340.831 181.405 343.357 179.626 345.435 178.713Z"/><path fill="#00275E" transform="scale(1.01266 1.01266)" d="M344.539 208.278C348.72 207.866 348.834 210.418 352.808 211.228C356.147 211.909 358.904 208.003 361.283 208.283C365.928 208.829 364.898 211.424 370.52 211.222C370.345 213.119 370.594 215.003 368.519 215.63C367.005 215.6 365.143 214.306 363.906 213.474C360.209 210.874 358.827 214.038 355.398 215.21C351.703 216.472 350.167 214.326 347.276 212.822C344.798 211.532 341.91 214.545 339.317 215.47L338.989 215.584L339.34 211.266C340.851 210.6 343.066 209.169 344.539 208.278Z"/><path fill="#00275E" transform="scale(1.01266 1.01266)" d="M33.557 198.24C36.403 198.591 36.3731 199.55 38.2975 200.371C48.5656 204.752 43.7901 193.839 55.4716 201.311L55.5001 205.812C53.6749 204.627 51.617 203.172 49.6301 202.354C48.8935 202.689 48.1599 203.031 47.4294 203.38C40.7494 208.116 40.0769 204.929 34.2764 202.459L33.9685 202.329C29.4197 204.254 30.8078 205.574 24.6412 205.749C24.4995 204.484 24.4963 202.717 24.4574 201.403C29.6564 201.777 29.3754 199.931 33.557 198.24Z"/><path fill="#00275E" transform="scale(1.01266 1.01266)" d="M344.659 188.739C348.749 188.367 349.177 191.215 352.933 191.829C355.534 192.67 359.134 188.366 361.197 188.761C365.902 189.662 365.474 191.893 370.999 191.734C371.137 196.394 369.843 197.325 365.557 195.017C360.839 191.745 360.662 192.838 356.321 195.386C352.669 197.529 349.706 194.421 346.687 193.094C344.892 192.304 341.833 194.855 340.115 195.812L339.87 191.78C341.655 190.523 342.725 189.811 344.659 188.739Z"/><path fill="#00275E" transform="scale(1.01266 1.01266)" d="M32.8408 188.757C36.6707 188.359 36.5398 190.204 38.6356 190.888C49.0902 194.296 43.6421 184.49 55.5144 191.603C55.4337 193.004 55.4159 194.505 55.3752 195.917C52.8341 194.42 50.5534 191.828 47.613 193.524C39.5445 199.386 39.5919 193.708 34.0304 193.03C31.6743 192.742 30.6449 196.196 24.5227 195.967C24.4584 194.567 24.4929 192.97 24.4919 191.553C28.5144 192.065 29.4581 190.907 32.8408 188.757Z"/><path fill="#00275E" transform="scale(1.01266 1.01266)" d="M303.514 65.8788C303.972 66.0817 306.662 68.3822 307.36 68.9338C302.733 74.3574 298.176 79.8403 293.689 85.381C293.086 85.3089 290.504 83.0228 289.807 82.455C293.982 77.838 299.611 70.7933 303.514 65.8788Z"/><path fill="#00275E" transform="scale(1.01266 1.01266)" d="M190.471 28.6097C190.928 28.5976 191.402 28.6191 191.861 28.6303C192.735 29.5068 192.934 47.6149 193.023 50.1268L190.39 50.2795C189.617 50.3288 189.067 50.4721 188.439 50.0687C188.129 48.3394 188.054 44.435 187.971 42.5184C187.74 37.9321 187.57 33.3428 187.461 28.752L190.471 28.6097Z"/></svg>