<?xml version="1.0" encoding="UTF-8"?>
<!DOCTYPE svg PUBLIC "-//W3C//DTD SVG 1.1//EN" "http://www.w3.org/Graphics/SVG/1.1/DTD/svg11.dtd">
<svg xmlns="http://www.w3.org/2000/svg" version="1.1" width="220px" height="210px" style="shape-rendering:geometricPrecision; text-rendering:geometricPrecision; image-rendering:optimizeQuality; fill-rule:evenodd; clip-rule:evenodd" xmlns:xlink="http://www.w3.org/1999/xlink">
<g><path style="opacity:0.894" fill="#fcfefc" d="M 75.5,-0.5 C 77.5,-0.5 79.5,-0.5 81.5,-0.5C 82.1667,0.833333 82.8333,0.833333 83.5,-0.5C 85.1667,-0.5 86.8333,-0.5 88.5,-0.5C 96.5,0.833333 104.5,0.833333 112.5,-0.5C 114.167,-0.5 115.833,-0.5 117.5,-0.5C 118.5,0.833333 119.5,0.833333 120.5,-0.5C 122.5,-0.5 124.5,-0.5 126.5,-0.5C 126.389,0.117425 126.056,0.617425 125.5,1C 134.524,2.31366 143.524,2.48032 152.5,1.5C 153.696,1.84569 153.696,2.34569 152.5,3C 154.956,2.93568 157.289,3.10234 159.5,3.5C 164.094,4.98468 168.76,5.81801 173.5,6C 173.167,6.33333 172.833,6.66667 172.5,7C 175.759,8.21059 178.592,10.0439 181,12.5C 183.272,16.8213 186.105,20.988 189.5,25C 189.167,25.3333 188.833,25.6667 188.5,26C 196.986,44.4989 203.986,63.1656 209.5,82C 211.92,89.4639 214.087,97.2973 216,105.5C 216.654,104.304 217.154,104.304 217.5,105.5C 216.354,108.3 216.354,111.133 217.5,114C 217.684,115.376 218.351,116.209 219.5,116.5C 219.5,117.167 219.5,117.833 219.5,118.5C 218.167,121.833 218.167,125.167 219.5,128.5C 219.5,129.167 219.5,129.833 219.5,130.5C 216.807,134.186 214.474,137.852 212.5,141.5C 185.964,165.182 157.631,185.515 127.5,202.5C 122.366,204.823 117.033,206.656 111.5,208C 112.056,208.383 112.389,208.883 112.5,209.5C 109.833,209.5 107.167,209.5 104.5,209.5C 69.2121,192.3 36.7121,169.3 7,140.5C 4.69889,136.841 2.19889,133.508 -0.5,130.5C -0.5,129.5 -0.5,128.5 -0.5,127.5C 0.833333,123.833 0.833333,120.167 -0.5,116.5C -0.5,116.167 -0.5,115.833 -0.5,115.5C 0.833333,114.833 0.833333,114.167 -0.5,113.5C -0.5,112.5 -0.5,111.5 -0.5,110.5C 0.117425,110.611 0.617425,110.944 1,111.5C 2.18627,108.144 2.35294,104.811 1.5,101.5C 1.84569,100.304 2.34569,100.304 3,101.5C 3.93329,97.2667 5.09996,93.1 6.5,89C 6.26454,88.1268 5.9312,87.2935 5.5,86.5C 5.84569,85.3044 6.34569,85.3044 7,86.5C 7.83333,84 8.66667,81.5 9.5,79C 7.85917,77.3542 8.1925,76.3542 10.5,76C 10.0426,75.586 9.70931,75.086 9.5,74.5C 12.1803,71.692 13.1803,68.5254 12.5,65C 13.6667,64.5 14.5,63.6667 15,62.5C 16.3701,57.9317 17.8701,53.5984 19.5,49.5C 20.9299,46.8026 22.2632,43.9692 23.5,41C 22.1669,39.1598 22.3335,38.6598 24,39.5C 27.2658,31.0197 31.9324,22.3531 38,13.5C 43.0555,7.56325 49.2222,4.22991 56.5,3.5C 56.8333,2.83333 57.1667,2.16667 57.5,1.5C 64.138,2.34111 70.8047,2.17445 77.5,1C 76.5842,0.721579 75.9175,0.221579 75.5,-0.5 Z"/></g>
<g><path style="opacity:0.004" fill="#fefffe" d="M 159.5,2.5 C 160.833,3.16667 160.833,3.16667 159.5,2.5 Z"/></g>
<g><path style="opacity:1" fill="#88ce81" d="M 122.5,13.5 C 102.492,13.4526 82.4919,13.7859 62.5,14.5C 64.9686,13.6829 67.6353,13.1829 70.5,13C 88.0049,12.1715 105.338,12.3382 122.5,13.5 Z"/></g>
<g><path style="opacity:1" fill="#51b84a" d="M 122.5,13.5 C 138.421,13.3265 154.088,15.1598 169.5,19C 171.464,20.451 172.797,22.2843 173.5,24.5C 168.789,20.0358 163.122,17.7025 156.5,17.5C 128.379,15.2979 100.379,14.9646 72.5,16.5C 67.1988,16.0993 62.6988,17.766 59,21.5C 46.6286,42.5746 37.2953,64.9079 31,88.5C 29.8243,94.2029 28.4909,99.8696 27,105.5C 25.8898,111.426 26.5564,117.092 29,122.5C 38.1621,133.006 48.4954,142.006 60,149.5C 68.9179,139.579 78.7513,130.745 89.5,123C 91.4068,121.878 93.4068,121.045 95.5,120.5C 97.4892,123.467 99.8226,126.134 102.5,128.5C 88.2413,132.72 76.0746,140.386 66,151.5C 65.3333,152.5 65.3333,153.5 66,154.5C 79.616,164.727 94.116,173.561 109.5,181C 112.5,181.667 115.5,181.667 118.5,181C 125.143,178.013 131.476,174.513 137.5,170.5C 160.756,157.43 181.923,141.43 201,122.5C 202.555,117.618 202.888,112.618 202,107.5C 200.639,102.528 199.473,97.5279 198.5,92.5C 199.167,93.5 199.833,94.5 200.5,95.5C 204.225,105.757 206.058,116.424 206,127.5C 201.911,133.593 197.078,139.093 191.5,144C 168.803,162.684 144.469,179.018 118.5,193C 114.847,194.273 111.181,195.44 107.5,196.5C 73.6713,180.829 43.5046,159.829 17,133.5C 12.7349,127.498 11.4016,120.831 13,113.5C 19.5542,80.4949 31.2209,49.4949 48,20.5C 51.8346,16.2237 56.6679,14.2237 62.5,14.5C 82.4919,13.7859 102.492,13.4526 122.5,13.5 Z"/></g>
<g><path style="opacity:1" fill="#046727" d="M 72.5,16.5 C 78.1764,16.3339 83.8431,16.5006 89.5,17C 88.1706,28.9313 88.1706,40.7646 89.5,52.5C 88.8333,53.1667 88.1667,53.8333 87.5,54.5C 85.847,54.6596 84.5137,55.3263 83.5,56.5C 82.5655,57.5676 82.2322,58.901 82.5,60.5C 74.031,66.0678 65.031,70.5678 55.5,74C 50.4033,80.5469 52.07,82.8802 60.5,81C 65.1087,76.8616 70.4421,74.0282 76.5,72.5C 79.1018,73.4344 81.1018,75.1011 82.5,77.5C 78.8445,83.4721 75.1778,89.4721 71.5,95.5C 75.0484,95.6186 78.715,95.7853 82.5,96C 83,96.5 83.5,97 84,97.5C 82.9155,101.05 81.7488,104.716 80.5,108.5C 78.4528,111.902 78.1194,115.569 79.5,119.5C 80.1067,119.376 80.44,119.043 80.5,118.5C 83.9166,115.745 87.5833,113.412 91.5,111.5C 92.0231,114.878 93.3565,117.878 95.5,120.5C 93.4068,121.045 91.4068,121.878 89.5,123C 78.7513,130.745 68.9179,139.579 60,149.5C 48.4954,142.006 38.1621,133.006 29,122.5C 26.5564,117.092 25.8898,111.426 27,105.5C 28.4909,99.8696 29.8243,94.2029 31,88.5C 37.2953,64.9079 46.6286,42.5746 59,21.5C 62.6988,17.766 67.1988,16.0993 72.5,16.5 Z"/></g>
<g><path style="opacity:1" fill="#16712b" d="M 72.5,16.5 C 100.379,14.9646 128.379,15.2979 156.5,17.5C 157.484,46.1226 157.817,74.7893 157.5,103.5C 151.301,103.652 145.301,104.318 139.5,105.5C 136.545,106.159 133.545,106.492 130.5,106.5C 127.573,105.243 125.239,103.243 123.5,100.5C 125.288,100.785 126.955,100.452 128.5,99.5C 126.11,91.1762 126.11,82.8429 128.5,74.5C 132.302,75.7786 135.469,78.1119 138,81.5C 140.5,85.3333 143,89.1667 145.5,93C 147.167,93.8333 148.833,94.6667 150.5,95.5C 153.675,93.9229 154.009,92.0896 151.5,90C 152.308,89.6924 152.975,89.1924 153.5,88.5C 152.5,87.6667 151.5,86.8333 150.5,86C 151.167,85.6667 151.833,85.3333 152.5,85C 145.006,80.5035 139.173,74.3369 135,66.5C 132.815,64.4598 130.315,63.1264 127.5,62.5C 126.833,61.1667 125.833,60.1667 124.5,59.5C 124.167,58.5 123.5,57.8333 122.5,57.5C 122.158,56.6618 121.492,56.3284 120.5,56.5C 120.158,55.6618 119.492,55.3284 118.5,55.5C 117.22,54.0687 115.553,53.4021 113.5,53.5C 112.659,51.6208 112.325,49.6208 112.5,47.5C 115.292,47.5479 117.125,46.2146 118,43.5C 118.498,40.1832 118.665,36.8499 118.5,33.5C 119.675,33.719 120.675,33.3857 121.5,32.5C 120.347,29.848 118.513,27.848 116,26.5C 115.667,25.1667 115.333,23.8333 115,22.5C 112.56,23.6564 110.06,23.6564 107.5,22.5C 104.463,23.9016 101.463,25.2349 98.5,26.5C 97.5722,29.1296 96.5722,31.7963 95.5,34.5C 96.9669,37.2665 97.8003,40.2665 98,43.5C 99.0641,45.2688 100.231,46.9355 101.5,48.5C 101.457,49.4164 101.124,50.0831 100.5,50.5C 98.4352,50.5172 96.4352,50.8505 94.5,51.5C 93.8333,51.5 93.5,51.8333 93.5,52.5C 92.5,52.5 91.5,52.5 90.5,52.5C 90.1667,52.5 89.8333,52.5 89.5,52.5C 88.1706,40.7646 88.1706,28.9313 89.5,17C 83.8431,16.5006 78.1764,16.3339 72.5,16.5 Z"/></g>
<g><path style="opacity:1" fill="#14752c" d="M 156.5,17.5 C 163.122,17.7025 168.789,20.0358 173.5,24.5C 175.341,26.8485 176.674,29.5152 177.5,32.5C 177.343,33.8734 177.51,35.2068 178,36.5C 180.38,42.525 183.213,48.1917 186.5,53.5C 186.824,58.4608 188.491,62.7942 191.5,66.5C 191.5,66.8333 191.5,67.1667 191.5,67.5C 193.952,75.7362 196.285,84.0695 198.5,92.5C 199.473,97.5279 200.639,102.528 202,107.5C 202.888,112.618 202.555,117.618 201,122.5C 181.923,141.43 160.756,157.43 137.5,170.5C 137.187,157.754 137.52,145.087 138.5,132.5C 142.94,134.374 147.273,136.541 151.5,139C 152.329,140.816 153.163,142.649 154,144.5C 154.725,145.059 155.558,145.392 156.5,145.5C 162.989,143.256 169.656,141.589 176.5,140.5C 176.67,139.178 176.337,138.011 175.5,137C 168.628,136.302 161.961,134.968 155.5,133C 151.332,129.998 147.665,126.498 144.5,122.5C 151.313,121.884 156.98,124.051 161.5,129C 176.514,131.989 183.347,125.822 182,110.5C 179.876,106.687 176.709,104.187 172.5,103C 161.725,104.714 150.725,105.547 139.5,105.5C 145.301,104.318 151.301,103.652 157.5,103.5C 157.817,74.7893 157.484,46.1226 156.5,17.5 Z"/></g>
<g><path style="opacity:1" fill="#f8f9f7" d="M 113.5,53.5 C 113.038,55.7567 112.038,57.7567 110.5,59.5C 106.452,57.1096 103.118,54.1096 100.5,50.5C 101.124,50.0831 101.457,49.4164 101.5,48.5C 100.231,46.9355 99.0641,45.2688 98,43.5C 97.8003,40.2665 96.9669,37.2665 95.5,34.5C 96.5722,31.7963 97.5722,29.1296 98.5,26.5C 101.463,25.2349 104.463,23.9016 107.5,22.5C 110.06,23.6564 112.56,23.6564 115,22.5C 115.333,23.8333 115.667,25.1667 116,26.5C 118.513,27.848 120.347,29.848 121.5,32.5C 120.675,33.3857 119.675,33.719 118.5,33.5C 118.665,36.8499 118.498,40.1832 118,43.5C 117.125,46.2146 115.292,47.5479 112.5,47.5C 112.325,49.6208 112.659,51.6208 113.5,53.5 Z"/></g>
<g><path style="opacity:1" fill="#5eb15e" d="M 177.5,32.5 C 181.287,39.0835 184.287,46.0835 186.5,53.5C 183.213,48.1917 180.38,42.525 178,36.5C 177.51,35.2068 177.343,33.8734 177.5,32.5 Z"/></g>
<g><path style="opacity:0.004" fill="#fefffe" d="M 19.5,49.5 C 18.8333,48.1667 18.8333,48.1667 19.5,49.5 Z"/></g>
<g><path style="opacity:1" fill="#eb1e25" d="M 100.5,50.5 C 103.118,54.1096 106.452,57.1096 110.5,59.5C 112.038,57.7567 113.038,55.7567 113.5,53.5C 115.553,53.4021 117.22,54.0687 118.5,55.5C 119.15,57.4352 119.483,59.4352 119.5,61.5C 119.417,71.9162 118.417,82.2495 116.5,92.5C 116.703,95.1969 117.036,97.8636 117.5,100.5C 111.398,101.867 105.398,103.867 99.5,106.5C 100.12,97.9169 101.954,89.5835 105,81.5C 108.107,68.9792 104.607,58.9792 94.5,51.5C 96.4352,50.8505 98.4352,50.5172 100.5,50.5 Z"/></g>
<g><path style="opacity:1" fill="#e92125" d="M 87.5,54.5 C 94.0733,56.2592 97.9066,60.5925 99,67.5C 99.6667,71.8333 99.6667,76.1667 99,80.5C 96.6667,87.1667 94.3333,93.8333 92,100.5C 91.3658,103.555 91.5325,106.555 92.5,109.5C 92.1667,110.167 91.8333,110.833 91.5,111.5C 87.5833,113.412 83.9166,115.745 80.5,118.5C 79.5565,115.332 79.5565,111.999 80.5,108.5C 81.7488,104.716 82.9155,101.05 84,97.5C 83.5,97 83,96.5 82.5,96C 78.715,95.7853 75.0484,95.6186 71.5,95.5C 75.1778,89.4721 78.8445,83.4721 82.5,77.5C 84.2279,75.7745 86.2279,74.4411 88.5,73.5C 89.4794,76.6248 89.8128,79.9581 89.5,83.5C 88.6548,86.8264 88.1548,90.1597 88,93.5C 95.4692,83.8044 96.1359,73.8044 90,63.5C 88.549,61.5359 86.7157,60.2026 84.5,59.5C 83.596,58.791 83.2627,57.791 83.5,56.5C 84.5137,55.3263 85.847,54.6596 87.5,54.5 Z"/></g>
<g><path style="opacity:1" fill="#71be6d" d="M 186.5,53.5 C 188.734,57.5225 190.401,61.8558 191.5,66.5C 188.491,62.7942 186.824,58.4608 186.5,53.5 Z"/></g>
<g><path style="opacity:1" fill="#954931" d="M 83.5,56.5 C 83.2627,57.791 83.596,58.791 84.5,59.5C 84.1583,60.3382 83.4916,60.6716 82.5,60.5C 82.2322,58.901 82.5655,57.5676 83.5,56.5 Z"/></g>
<g><path style="opacity:1" fill="#e51d28" d="M 90.5,52.5 C 91.5,52.5 92.5,52.5 93.5,52.5C 100.409,57.4787 104.076,64.312 104.5,73C 103.533,81.0335 101.7,88.8668 99,96.5C 98.5017,99.8168 98.335,103.15 98.5,106.5C 97.2196,107.931 95.5529,108.598 93.5,108.5C 93.3354,105.482 93.502,102.482 94,99.5C 97.7243,90.9961 100.224,82.1627 101.5,73C 101.081,64.3229 97.4141,57.4896 90.5,52.5 Z"/></g>
<g><path style="opacity:1" fill="#7d3b68" d="M 122.5,57.5 C 123.5,57.8333 124.167,58.5 124.5,59.5C 125.029,61.7832 125.363,64.1166 125.5,66.5C 123.198,77.7126 122.198,89.0459 122.5,100.5C 122.167,100.5 121.833,100.5 121.5,100.5C 120.931,97.5508 120.598,94.5508 120.5,91.5C 121.5,83.5 122.5,75.5 123.5,67.5C 123.355,64.1327 123.022,60.7994 122.5,57.5 Z"/></g>
<g><path style="opacity:1" fill="#f8f4f2" d="M 84.5,59.5 C 86.7157,60.2026 88.549,61.5359 90,63.5C 96.1359,73.8044 95.4692,83.8044 88,93.5C 88.1548,90.1597 88.6548,86.8264 89.5,83.5C 90.8077,79.9813 90.8077,76.3147 89.5,72.5C 88.8933,72.6236 88.56,72.9569 88.5,73.5C 86.2279,74.4411 84.2279,75.7745 82.5,77.5C 81.1018,75.1011 79.1018,73.4344 76.5,72.5C 70.4421,74.0282 65.1087,76.8616 60.5,81C 52.07,82.8802 50.4033,80.5469 55.5,74C 65.031,70.5678 74.031,66.0678 82.5,60.5C 83.4916,60.6716 84.1583,60.3382 84.5,59.5 Z"/></g>
<g><path style="opacity:1" fill="#f0f5f0" d="M 127.5,62.5 C 130.315,63.1264 132.815,64.4598 135,66.5C 139.173,74.3369 145.006,80.5035 152.5,85C 151.833,85.3333 151.167,85.6667 150.5,86C 151.5,86.8333 152.5,87.6667 153.5,88.5C 152.975,89.1924 152.308,89.6924 151.5,90C 154.009,92.0896 153.675,93.9229 150.5,95.5C 148.833,94.6667 147.167,93.8333 145.5,93C 143,89.1667 140.5,85.3333 138,81.5C 135.469,78.1119 132.302,75.7786 128.5,74.5C 128.763,70.3998 128.43,66.3998 127.5,62.5 Z"/></g>
<g><path style="opacity:1" fill="#5e4179" d="M 118.5,55.5 C 119.492,55.3284 120.158,55.6618 120.5,56.5C 121.229,61.1304 121.563,65.7971 121.5,70.5C 120.833,67.5 120.167,64.5 119.5,61.5C 119.483,59.4352 119.15,57.4352 118.5,55.5 Z"/></g>
<g><path style="opacity:1" fill="#e31e29" d="M 120.5,56.5 C 121.492,56.3284 122.158,56.6618 122.5,57.5C 123.022,60.7994 123.355,64.1327 123.5,67.5C 122.5,75.5 121.5,83.5 120.5,91.5C 120.598,94.5508 120.931,97.5508 121.5,100.5C 120.5,100.5 119.5,100.5 118.5,100.5C 118.092,90.347 119.092,80.347 121.5,70.5C 121.563,65.7971 121.229,61.1304 120.5,56.5 Z"/></g>
<g><path style="opacity:1" fill="#72c16d" d="M 191.5,67.5 C 195.244,76.5067 198.244,85.84 200.5,95.5C 199.833,94.5 199.167,93.5 198.5,92.5C 196.285,84.0695 193.952,75.7362 191.5,67.5 Z"/></g>
<g><path style="opacity:1" fill="#f6787c" d="M 88.5,73.5 C 88.56,72.9569 88.8933,72.6236 89.5,72.5C 90.8077,76.3147 90.8077,79.9813 89.5,83.5C 89.8128,79.9581 89.4794,76.6248 88.5,73.5 Z"/></g>
<g><path style="opacity:1" fill="#823965" d="M 119.5,61.5 C 120.167,64.5 120.833,67.5 121.5,70.5C 119.092,80.347 118.092,90.347 118.5,100.5C 118.167,100.5 117.833,100.5 117.5,100.5C 117.036,97.8636 116.703,95.1969 116.5,92.5C 118.417,82.2495 119.417,71.9162 119.5,61.5 Z"/></g>
<g><path style="opacity:1" fill="#e52d2b" d="M 124.5,59.5 C 125.833,60.1667 126.833,61.1667 127.5,62.5C 128.43,66.3998 128.763,70.3998 128.5,74.5C 126.11,82.8429 126.11,91.1762 128.5,99.5C 126.955,100.452 125.288,100.785 123.5,100.5C 123.167,100.5 122.833,100.5 122.5,100.5C 122.198,89.0459 123.198,77.7126 125.5,66.5C 125.363,64.1166 125.029,61.7832 124.5,59.5 Z"/></g>
<g><path style="opacity:1" fill="#773c6c" d="M 89.5,52.5 C 89.8333,52.5 90.1667,52.5 90.5,52.5C 97.4141,57.4896 101.081,64.3229 101.5,73C 100.224,82.1627 97.7243,90.9961 94,99.5C 93.502,102.482 93.3354,105.482 93.5,108.5C 93.5,109.167 93.1667,109.5 92.5,109.5C 91.5325,106.555 91.3658,103.555 92,100.5C 94.3333,93.8333 96.6667,87.1667 99,80.5C 99.6667,76.1667 99.6667,71.8333 99,67.5C 97.9066,60.5925 94.0733,56.2592 87.5,54.5C 88.1667,53.8333 88.8333,53.1667 89.5,52.5 Z"/></g>
<g><path style="opacity:1" fill="#743c6e" d="M 94.5,51.5 C 104.607,58.9792 108.107,68.9792 105,81.5C 101.954,89.5835 100.12,97.9169 99.5,106.5C 99.1667,106.5 98.8333,106.5 98.5,106.5C 98.335,103.15 98.5017,99.8168 99,96.5C 101.7,88.8668 103.533,81.0335 104.5,73C 104.076,64.312 100.409,57.4787 93.5,52.5C 93.5,51.8333 93.8333,51.5 94.5,51.5 Z"/></g>
<g><path style="opacity:1" fill="#f9faf8" d="M 117.5,100.5 C 117.833,100.5 118.167,100.5 118.5,100.5C 119.5,100.5 120.5,100.5 121.5,100.5C 121.833,100.5 122.167,100.5 122.5,100.5C 122.833,100.5 123.167,100.5 123.5,100.5C 125.239,103.243 127.573,105.243 130.5,106.5C 135.539,111.537 140.206,116.871 144.5,122.5C 147.665,126.498 151.332,129.998 155.5,133C 161.961,134.968 168.628,136.302 175.5,137C 176.337,138.011 176.67,139.178 176.5,140.5C 169.656,141.589 162.989,143.256 156.5,145.5C 155.558,145.392 154.725,145.059 154,144.5C 153.163,142.649 152.329,140.816 151.5,139C 147.273,136.541 142.94,134.374 138.5,132.5C 135.029,129.86 132.029,126.694 129.5,123C 126.518,122.502 123.518,122.335 120.5,122.5C 120.663,127.547 120.329,132.547 119.5,137.5C 117.504,144.443 117.17,151.443 118.5,158.5C 121.754,161.471 125.42,163.971 129.5,166C 130.337,167.011 130.67,168.178 130.5,169.5C 123.194,168.622 115.861,167.956 108.5,167.5C 108.742,162.441 109.409,157.441 110.5,152.5C 109.126,147.825 108.126,142.992 107.5,138C 107.544,136.236 107.878,134.569 108.5,133C 106.34,131.668 104.34,130.168 102.5,128.5C 99.8226,126.134 97.4892,123.467 95.5,120.5C 93.3565,117.878 92.0231,114.878 91.5,111.5C 91.8333,110.833 92.1667,110.167 92.5,109.5C 93.1667,109.5 93.5,109.167 93.5,108.5C 95.5529,108.598 97.2196,107.931 98.5,106.5C 98.8333,106.5 99.1667,106.5 99.5,106.5C 105.398,103.867 111.398,101.867 117.5,100.5 Z"/></g>
<g><path style="opacity:1" fill="#56ba4f" d="M 144.5,122.5 C 140.206,116.871 135.539,111.537 130.5,106.5C 133.545,106.492 136.545,106.159 139.5,105.5C 150.725,105.547 161.725,104.714 172.5,103C 176.709,104.187 179.876,106.687 182,110.5C 183.347,125.822 176.514,131.989 161.5,129C 156.98,124.051 151.313,121.884 144.5,122.5 Z"/></g>
<g><path style="opacity:1" fill="#f2f9f1" d="M 163.5,104.5 C 168.328,103.84 170.161,105.84 169,110.5C 168.044,111.894 166.711,112.561 165,112.5C 163.175,112.057 161.342,111.723 159.5,111.5C 159.961,108.697 161.295,106.363 163.5,104.5 Z"/></g>
<g><path style="opacity:1" fill="#f4faf3" d="M 170.5,104.5 C 173.226,104.264 175.559,105.097 177.5,107C 178.517,108.049 178.684,109.216 178,110.5C 172.545,112.563 170.045,110.563 170.5,104.5 Z"/></g>
<g><path style="opacity:1" fill="#f1f9f0" d="M 178.5,121.5 C 176.259,120.7 175.259,119.034 175.5,116.5C 175.701,112.65 177.534,111.65 181,113.5C 181.977,116.817 181.144,119.484 178.5,121.5 Z"/></g>
<g><path style="opacity:1" fill="#f5fbf5" d="M 167.5,117.5 C 166.529,119.483 165.529,121.483 164.5,123.5C 162.901,123.768 161.568,123.434 160.5,122.5C 159.061,120.412 158.394,118.079 158.5,115.5C 159.152,114.275 160.319,113.608 162,113.5C 165.133,113.142 166.967,114.475 167.5,117.5 Z"/></g>
<g><path style="opacity:1" fill="#9d3c24" d="M 80.5,108.5 C 79.5565,111.999 79.5565,115.332 80.5,118.5C 80.44,119.043 80.1067,119.376 79.5,119.5C 78.1194,115.569 78.4528,111.902 80.5,108.5 Z"/></g>
<g><path style="opacity:1" fill="#f8fcf7" d="M 176.5,122.5 C 174.206,126.252 170.872,127.419 166.5,126C 165.944,125.617 165.611,125.117 165.5,124.5C 166.882,119.922 169.882,118.422 174.5,120C 175.066,120.995 175.733,121.828 176.5,122.5 Z"/></g>
<g><path style="opacity:1" fill="#c1e6bd" d="M 158.5,115.5 C 158.394,118.079 159.061,120.412 160.5,122.5C 159.778,122.918 159.278,123.584 159,124.5C 157.445,122.557 156.278,120.39 155.5,118C 156.13,116.69 157.13,115.856 158.5,115.5 Z"/></g>
<g><path style="opacity:1" fill="#9ed799" d="M 175.5,116.5 C 175.259,119.034 176.259,120.7 178.5,121.5C 178.158,122.338 177.492,122.672 176.5,122.5C 175.733,121.828 175.066,120.995 174.5,120C 169.882,118.422 166.882,119.922 165.5,124.5C 164.833,124.5 164.5,124.167 164.5,123.5C 165.529,121.483 166.529,119.483 167.5,117.5C 170.459,119.06 173.126,118.727 175.5,116.5 Z"/></g>
<g><path style="opacity:1" fill="#136f2a" d="M 138.5,132.5 C 137.52,145.087 137.187,157.754 137.5,170.5C 131.476,174.513 125.143,178.013 118.5,181C 115.5,181.667 112.5,181.667 109.5,181C 94.116,173.561 79.616,164.727 66,154.5C 65.3333,153.5 65.3333,152.5 66,151.5C 76.0746,140.386 88.2413,132.72 102.5,128.5C 104.34,130.168 106.34,131.668 108.5,133C 107.878,134.569 107.544,136.236 107.5,138C 108.126,142.992 109.126,147.825 110.5,152.5C 109.409,157.441 108.742,162.441 108.5,167.5C 115.861,167.956 123.194,168.622 130.5,169.5C 130.67,168.178 130.337,167.011 129.5,166C 125.42,163.971 121.754,161.471 118.5,158.5C 118.578,151.485 118.911,144.485 119.5,137.5C 120.329,132.547 120.663,127.547 120.5,122.5C 123.518,122.335 126.518,122.502 129.5,123C 132.029,126.694 135.029,129.86 138.5,132.5 Z"/></g>
<g><path style="opacity:1" fill="#83b28e" d="M 119.5,137.5 C 118.911,144.485 118.578,151.485 118.5,158.5C 117.17,151.443 117.504,144.443 119.5,137.5 Z"/></g>
<g><path style="opacity:0.004" fill="#fefffe" d="M 127.5,202.5 C 128.833,203.167 128.833,203.167 127.5,202.5 Z"/></g>
</svg>
