<?xml version="1.0" encoding="UTF-8"?>
<svg xmlns="http://www.w3.org/2000/svg" version="1.1" viewBox="0 0 500 500">
  <defs>
    <style>
      .cls-1 {
        fill: #c00;
      }

      .cls-2 {
        fill: #fff;
      }

      .cls-3 {
        fill: #006;
      }
    </style>
  </defs>
  <!-- Generator: Adobe Illustrator 28.7.3, SVG Export Plug-In . SVG Version: 1.2.0 Build 164)  -->
  <g>
    <g id="Camada_1">
      <g>
        <path class="cls-1" d="M72.3,3.2c117.7-.4,236.7-.2,354.9-.2,5.3,9.4,9.7,19.2,13.7,29.2,22.6,56.9,29.8,120.1,19.3,180.5-6.4,37.7-19.7,74.1-38.3,107.5-18,32.5-40.8,62.3-66.4,89.1-31.7,33.2-67.7,62-105.6,87.6-44.9-30.4-87.1-65.4-122.5-106.7-23.6-27.6-44.1-58-59.6-90.8-16.4-34.6-27.1-72-30.8-110.1-5.3-53.3,2.6-107.8,22.2-157.7,3.9-9.7,8.1-19.5,13.2-28.6"/>
        <g>
          <path class="cls-2" d="M95.3,42c-.4-4.3,3.1-8.5,7.5-8.5,4.6-.3,8.5,4,8,8.5,4-.9,8.5,1.6,9.4,5.8,1.1,4.1-1.9,8.4-5.9,9.4,22.6,23.5,45.1,47.1,67.6,70.7,0-23.6,0-47.1,0-70.7-3.7-1-6.7-4.6-6.1-8.6.4-4.5,5.1-7.7,9.5-6.7-.3-4.2,3-8.4,7.3-8.5,4.6-.4,8.6,4,8.2,8.5,4-.9,8.3,1.6,9.3,5.6,1.3,4.2-1.8,8.7-6,9.6,0,34.7,0,69.3,0,104,3.9,1,7,5.1,6.1,9.2-.7,4.3-5.3,7-9.4,6.1.5,4.6-3.6,9-8.2,8.6-4.3-.2-7.7-4.3-7.3-8.6-4.5,1-9.3-2.5-9.5-7.1-.3-3.8,2.5-7.1,6-8.1-22.6-23.7-45.3-47.4-67.9-71.1,0,23.7,0,47.3,0,71,4,.8,7.2,4.7,6.5,8.8-.5,4.5-5.2,7.5-9.5,6.5.5,4.5-3.4,8.8-8,8.6-4.4,0-7.8-4.3-7.5-8.6-4.5,1-9.3-2.4-9.4-7.1-.4-3.7,2.4-7,5.8-8.1,0-34.7,0-69.4,0-104.1-1.8-.8-3.7-1.7-4.7-3.5-2.3-3.5-1-8.7,2.7-10.7,1.7-1.1,3.8-1.1,5.7-.9Z"/>
          <path class="cls-2" d="M78.7,299.1h342.7c-16.5,33.7-38.5,64.6-63.7,92.4h-215.5c-25.2-27.7-47-58.7-63.5-92.4Z"/>
          <path class="cls-2" d="M250.6,114.4h200.8c4.3,30.6,4.1,61.8-.6,92.3h-200.2v-92.3Z"/>
        </g>
        <g>
          <path class="cls-3" d="M250.6,13.4h169c4.9,8.8,8.9,18,12.7,27.4,9.2,23.7,15.6,48.4,19.2,73.6h-200.8V13.4Z"/>
          <path class="cls-3" d="M49.4,206.7h401.4c-5,32.1-15,63.3-29.3,92.4H78.7c-14.2-29.1-24.4-60.3-29.3-92.4h0Z"/>
          <path class="cls-3" d="M142.2,391.4h215.5c-31.9,35.1-68.8,65.2-108,91.8-39.1-26.5-75.8-56.7-107.5-91.8h0Z"/>
        </g>
      </g>
    </g>
  </g>
</svg>