<?xml version="1.0" encoding="utf-8"?>
<!-- Generator: Adobe Illustrator 28.3.0, SVG Export Plug-In . SVG Version: 6.00 Build 0)  -->
<svg version="1.1"
	 id="svg2" xmlns:dc="http://purl.org/dc/elements/1.1/" xmlns:cc="http://creativecommons.org/ns#" xmlns:rdf="http://www.w3.org/1999/02/22-rdf-syntax-ns#" xmlns:inkscape="http://www.inkscape.org/namespaces/inkscape" xmlns:sodipodi="http://sodipodi.sourceforge.net/DTD/sodipodi-0.dtd" xmlns:svg="http://www.w3.org/2000/svg"
	 xmlns="http://www.w3.org/2000/svg" xmlns:xlink="http://www.w3.org/1999/xlink" x="0px" y="0px" viewBox="0 0 800 800"
	 style="enable-background:new 0 0 800 800;" xml:space="preserve">
<style type="text/css">
	.st0{fill:#161616;}
	.st1{fill:#FE1821;}
	.st2{fill:#FDFDFD;}
	.st3{fill:#00559A;}
	.st4{fill:#02569B;}
</style>
<sodipodi:namedview  bordercolor="#666666" borderopacity="1.0" id="base" inkscape:current-layer="layer1" inkscape:cx="340.60731" inkscape:cy="385.71609" inkscape:document-units="px" inkscape:guide-bbox="true" inkscape:pageopacity="0.0" inkscape:pageshadow="2" inkscape:window-height="706" inkscape:window-maximized="1" inkscape:window-width="1366" inkscape:window-x="-8" inkscape:window-y="-8" inkscape:zoom="0.35355339" pagecolor="#ffffff" showgrid="false" showguides="true">
	</sodipodi:namedview>
<g>
	<path class="st0" d="M41,176.6c-0.1-21.2,0.6-42.4,2.5-63.5c0.4-3.9,1.7-4.6,5.2-4.2c82.2,9,160.6-5.9,236-38.4
		c39.7-17.1,77-38.4,111.2-64.9c2.5-1.9,3.7-2,6.3,0C472.9,59.8,552,94.4,640,108.2c36.6,5.7,73.5,6.7,110.4,2.3
		c4.2-0.5,5.7,0.2,6.1,4.8c2.9,31.9,3.1,63.8,1.7,95.7c-3.2,74.8-15.1,148.1-38.1,219.4C688.7,527.7,639,614,565,685.5
		c-47,45.4-100.6,81.1-159.6,109c-2.2,1.1-4.1,1.9-7.1,0.5c-81.1-37.7-151.2-89.8-207.9-159.2c-57.1-69.7-95.2-149.2-119.2-235.6
		C50.9,327.1,41.4,252.5,41,176.6z M728.9,311.8c0.4-1.4,0.9-2.7,1.1-4.1c5.2-33.4,8.4-67,9.7-100.7c0.9-23.8,1.1-47.5-0.5-71.3
		c-0.2-3.4-0.2-5.7-5-5.3c-29,2.7-57.9,0.7-86.8-2.2c-8.7-1.4-17.4-2.6-26-4.3C541.6,108.6,468.9,77,403,29.7
		c-2.9-2.1-4.7-2.5-7.8-0.2c-67.9,48.3-142.7,80.4-225,94.4c-34.1,5.8-68.6,8.1-103.1,5.2c-4.7-0.4-6.4,0.8-6.3,5.6
		c0.1,5.2-0.7,10.4-0.8,15.7c-1.5,63,3.4,125.6,15.6,187.5c6.3,31.9,14,63.6,25.3,94.2c0.2,1.2,0.3,2.4,0.7,3.5
		c21.6,62.6,51.2,121,91.5,173.7c10.7,14.3,22.3,27.9,34.5,40.9c48.9,52.3,106,93.2,170.5,124.2c2.9,1.4,4.7,0.9,7.1-0.3
		c11.6-6.1,23.4-11.8,34.7-18.3c94.2-53.5,166.5-128.3,217.5-223.8c25-46.8,43.5-96.2,56.9-147.5
		C720.3,360.5,725.8,336.4,728.9,311.8z"/>
	<path class="st1" d="M100.8,431.9c-11.3-30.6-18.9-62.2-25.3-94.2c-12.3-61.9-17.1-124.4-15.6-187.5c0.1-5.2,0.9-10.5,0.8-15.7
		c-0.1-4.8,1.6-6,6.3-5.6c34.6,2.9,69,0.6,103.1-5.2c82.3-14,157.1-46.1,225-94.4c3.2-2.3,4.9-1.9,7.8,0.2
		c65.9,47.4,138.6,79,218.3,94.2c8.6,1.6,17.3,2.9,26,4.3C465.2,229.4,283,330.7,100.8,431.9z"/>
	<path class="st2" d="M100.8,431.9C283,330.7,465.2,229.4,647.3,128.2c28.9,2.9,57.8,4.9,86.8,2.2c4.8-0.4,4.8,1.9,5,5.3
		c1.6,23.8,1.4,47.5,0.5,71.3c-1.2,33.7-4.5,67.3-9.7,100.7c-0.2,1.4-0.7,2.7-1.1,4.1c-5.8,3.2-11.6,6.4-17.4,9.7
		C571.9,399,432.3,476.6,292.7,554.2c-33.2,18.4-66.5,36.7-99.7,55c-40.3-52.7-69.9-111.1-91.5-173.7
		C101.1,434.3,101,433.1,100.8,431.9z M443.9,354.7c2.8-1.4,4.3,1.1,6.1,2.2c20,12.3,40.1,24.7,60,37.2c3.4,2.1,6,2.5,9.6,0.4
		c8.8-5.2,17.8-10.1,26.8-14.8c3.2-1.7,4.1-2.9,2.1-6.4c-20.6-37.1-41.2-74.4-61.6-111.7c-1.9-3.5-3.5-2.6-6-1.2
		c-8.5,4.8-16.9,9.7-25.6,14.1c-4.3,2.2-5.1,3.8-2.5,8.3c9.7,16.8,19,34,28.3,51.1c0.8,1.4,2.9,2.8,1.1,5.2
		c-2.1-1.2-4.1-2.4-6.1-3.7c-18.4-11.7-37-23.3-55.2-35.4c-4.3-2.8-7.3-2.7-11.5-0.2c-8.3,5-16.8,9.8-25.5,14.1
		c-4.8,2.4-6.4,4.4-3,9.4c3.8,5.7,6.8,12,10.1,18c16.5,29.9,33.1,59.8,49.4,89.9c2.4,4.5,4.3,4.9,8.4,2.3c7-4.4,14.2-8.8,21.8-12
		c7.5-3.2,6.6-6.7,3.3-12.6c-10.2-17.9-20-36.2-29.9-54.3L443.9,354.7z M408.9,424.1c0-7.5-1.5-14.6-4.2-21.5
		c-1.6-4-3.2-4.4-6.7-2.3c-9,5.2-18.2,10.3-27.4,15.1c-3.5,1.8-3.9,3.9-3,7.5c2.8,12,0.1,19.5-8.6,24.8c-9.7,5.9-19.1,5-28.2-2.9
		c-10.5-9.3-17-21-19.9-34.6c-2.4-11.5,1.4-20.9,10.8-26.4c9.4-5.5,17.1-4.5,26.5,4c2.1,1.9,3.6,2.3,6.1,0.9
		c9.5-5.4,19-10.7,28.7-15.8c3.4-1.8,3.3-3.3,1.2-5.9c-7.7-9.3-16.3-17.3-28.1-21.1c-31.1-10-73.7,13.6-83.2,46.8
		c-7.3,25.7,0.8,48.3,16.5,68.7c17,22.1,42.3,30.5,69.1,23.4C388.4,476.7,409.2,451.9,408.9,424.1z"/>
	<path class="st3" d="M193,609.2c33.2-18.3,66.5-36.6,99.7-55C432.3,476.6,571.9,399,711.4,321.5c5.8-3.2,11.6-6.4,17.4-9.7
		c-3.1,24.6-8.6,48.7-14.8,72.6c-13.3,51.3-31.9,100.6-56.9,147.5C606.3,627.4,534,702.1,439.8,755.6c-11.4,6.5-23.2,12.2-34.7,18.3
		c-2.4,1.2-4.2,1.7-7.1,0.3c-64.4-31-121.6-71.9-170.5-124.2C215.3,637,203.7,623.5,193,609.2z"/>
	<path class="st4" d="M444,354.7c9.9,18.1,19.7,36.3,29.9,54.3c3.4,5.9,4.3,9.5-3.3,12.6c-7.6,3.2-14.8,7.6-21.8,12
		c-4.2,2.6-6,2.2-8.4-2.3c-16.3-30.1-32.9-59.9-49.4-89.9c-3.3-6-6.3-12.3-10.1-18c-3.4-5-1.8-7.1,3-9.4c8.7-4.3,17.2-9.1,25.5-14.1
		c4.2-2.5,7.2-2.6,11.5,0.2c18.2,12.1,36.8,23.7,55.2,35.4c2,1.3,4,2.4,6.1,3.7c1.8-2.4-0.3-3.8-1.1-5.2
		c-9.3-17.1-18.6-34.2-28.3-51.1c-2.6-4.5-1.8-6.2,2.5-8.3c8.7-4.4,17.1-9.3,25.6-14.1c2.5-1.4,4.1-2.3,6,1.2
		c20.4,37.3,40.9,74.5,61.6,111.7c1.9,3.5,1,4.8-2.1,6.4c-9,4.7-18,9.6-26.8,14.8c-3.6,2.1-6.2,1.8-9.6-0.4
		c-19.9-12.5-39.9-24.9-60-37.2c-1.8-1.1-3.3-3.7-6.1-2.3c0.1-0.3,0.3-0.6,0.4-0.9c-0.2-0.1-0.4-0.2-0.5-0.2
		C443.9,354,443.9,354.3,444,354.7z"/>
	<path class="st4" d="M408.9,424.1c0.2,27.8-20.5,52.6-50.5,60.6c-26.8,7.1-52.2-1.3-69.1-23.4c-15.6-20.4-23.8-42.9-16.5-68.7
		c9.4-33.2,52.1-56.8,83.2-46.8c11.8,3.8,20.4,11.8,28.1,21.1c2.1,2.6,2.2,4.1-1.2,5.9c-9.7,5.1-19.2,10.4-28.7,15.8
		c-2.5,1.4-4,1-6.1-0.9c-9.4-8.4-17.1-9.5-26.5-4c-9.4,5.5-13.2,14.8-10.8,26.4c2.9,13.7,9.4,25.4,19.9,34.6c9,8,18.5,8.8,28.2,2.9
		c8.6-5.2,11.4-12.8,8.6-24.8c-0.8-3.6-0.5-5.6,3-7.5c9.3-4.8,18.4-9.9,27.4-15.1c3.5-2,5.2-1.7,6.7,2.3
		C407.4,409.5,409,416.6,408.9,424.1z"/>
	<path class="st2" d="M444,354.7c-0.1-0.4-0.2-0.7-0.3-1.1c0.2,0.1,0.4,0.2,0.5,0.2c-0.1,0.3-0.3,0.6-0.4,0.9
		C443.9,354.7,444,354.7,444,354.7z"/>
</g>
</svg>
