<?xml version="1.0" encoding="utf-8"?>
<!-- Generator: Adobe Illustrator 27.9.3, SVG Export Plug-In . SVG Version: 9.03 Build 53313)  -->
<svg version="1.1" id="Layer_1" xmlns="http://www.w3.org/2000/svg" xmlns:xlink="http://www.w3.org/1999/xlink" x="0px" y="0px"
	 viewBox="0 0 300 300" style="enable-background:new 0 0 300 300;" xml:space="preserve">
<style type="text/css">
	.st0{fill:#CCCCCC;}
	.st1{fill:#FFFFFF;}
	.st2{fill:#F20706;}
	.st3{fill:none;stroke:#FFFFFF;stroke-width:0;stroke-linecap:round;stroke-linejoin:round;}
</style>
<g>
	<path class="st0" d="M68.6,6c0,0,29.8,26.8,84.1-6c-0.7,0.7,21.6,29.7,79.6,8.1c0-1.4,48.5,48.1,48.5,48.1s-46.3,30.9-23.7,89.7
		c3.5,14,23.6,49.5,1.3,88.6c-17.9,27.9-25.1,29.4-85,51.2c0,0-14.7,6.1-20.7,14.3c-0.7-0.7-23.1-13.4-27.5-14.9
		c-4.5-1.5-59.8-16.5-78.9-42.4c-14.8-20.2-15.8-65.5,3.2-110.3c3-9.8,8.7-29.2-8.4-55.3c0-0.7-21.9-19.8-21.9-19.8L68.6,6L68.6,6z"
		/>
	<path class="st1" d="M71.6,11.6c0,0,28.6,25.7,80.7-5.7c-0.7,0.7,20.7,28.5,76.4,7.8c0-1.4,43.5,42.2,43.5,42.2
		s-41.4,33.6-19.8,89.9c3.4,13.4,22.6,47.5,1.2,84.9c-17.2,26.8-24.1,28.2-81.5,49.1c0,0-14.1,5.9-19.8,13.7
		c-0.7-0.7-22.1-12.9-26.4-14.3c-4.3-1.4-57.4-15.8-75.7-40.7c-14.2-19.3-15.2-62.8,3-105.8c2.8-9.4,10.5-30.6-5.9-55.6
		c0-0.7-20-21.4-20-21.4L71.6,11.6L71.6,11.6z"/>
	<g>
		<path d="M152.3,294l-0.2-0.2c-0.6-0.6-21.9-12.7-26.3-14.2c-0.3-0.1-0.9-0.3-1.8-0.6c-37.3-11.2-62.9-25.1-74-40.2
			c-13.2-18-16.4-60.2,3-106c0.1-0.4,0.3-0.9,0.4-1.3c3-9.8,9.3-30.3-6.3-54l0-0.1v-0.1C46.8,76.5,35,64.1,27.2,56L27,55.9
			l44.5-44.5l0.2,0l0.1,0c0.1,0.1,7.3,6.4,20.7,8.9c12.4,2.3,32.8,1.6,59.7-14.6l0.3,0.4c0.1-0.1,0.1-0.1,0.1-0.1
			c0,0.4,2.5,3.9,8.4,7.5c9.5,5.8,30.9,13.6,67.6,0l0.1-0.1c0.3-0.1,0.7-0.3,22.4,21c10.6,10.5,21.3,21.1,21.4,21.2l0.2,0.2
			l-0.2,0.2c-0.1,0.1-10.4,8.5-17.9,23.8c-7,14-12.9,36.9-1.8,65.9c0.6,2.3,1.6,5.1,2.8,8.4c6.1,17,16.3,45.5-1.5,76.8
			c-16.4,25.5-24,28.3-73.5,46.2c-2.6,0.9-5.3,1.9-8.1,2.9c-0.1,0.1-14.1,6-19.7,13.7L152.3,294z M47.6,77.1
			c15.7,23.9,9.4,44.5,6.3,54.4c-0.1,0.5-0.3,0.9-0.4,1.3c-19.4,45.7-16.2,87.7-3.1,105.5c11,15,36.5,28.8,73.7,40
			c0.9,0.3,1.5,0.5,1.8,0.6c3.9,1.3,23.8,12.4,26.3,14.2c5.8-7.7,19.7-13.6,19.8-13.6c2.8-1,5.5-2,8.1-2.9
			c50.5-18.3,57-20.7,73.3-46c17.7-31.1,7.6-59.4,1.5-76.4c-1.2-3.3-2.2-6.1-2.8-8.4C241,116.7,247,93.7,254,79.6
			c7-14.1,16.3-22.4,17.9-23.7c-16.5-16.4-41.1-40.8-43.1-41.9c-21.7,8-40.7,9.8-56.4,5.1c-12.2-3.6-18.6-10.2-20-12.4
			c-0.1-0.2-0.2-0.3-0.2-0.4C125.3,22.4,104.8,23,92.4,20.8c-12.4-2.3-19.5-7.8-20.7-8.8L27.7,55.9C34.9,63.3,46.7,75.6,47.6,77.1
			L47.6,77.1z"/>
	</g>
	<path class="st2" d="M43.9,222.4l159-202.5c0,0,13.4-0.1,24.7-6.1c2.1-0.7,37.9,33.8,37.9,33.8l-172.6,219
		C92.8,266.5,44.3,248,43.9,222.4"/>
	<path d="M92.9,267L92.9,267c-0.2-0.1-12.2-4.7-24.2-12.4c-11.1-7.2-24.4-18.6-25-32.2l0,0l0,0L202.8,19.8h0.1
		c0.1,0,13.5-0.2,24.6-6.1c2.1-0.8,33.8,31,37.4,34.6l0.1,0.1l-0.1,0.1L92.9,267z M43.9,222.5c0.7,13.5,13.9,24.8,24.9,31.9
		c11.4,7.4,22.9,11.9,24,12.3L264.6,48.4c-13.9-14-35.1-34.5-37-34.5c0,0,0,0-0.1,0c-10.8,5.8-23.7,6.1-24.7,6.1L43.9,222.5z"/>
	<path class="st1" d="M235.5,144.9c0,44.2-36.2,80.1-80.8,80.1s-80.8-35.8-80.8-80.1c0-44.2,36.2-80.1,80.8-80.1
		C199.3,64.9,235.5,100.7,235.5,144.9"/>
	<path d="M154.6,225.3c-44.7,0-81.1-36-81.1-80.3c0-44.3,36.4-80.3,81.1-80.3c44.7,0,81.1,36,81.1,80.3
		C235.7,189.2,199.4,225.3,154.6,225.3z M154.6,65.1c-44.4,0-80.6,35.8-80.6,79.8s36.2,79.8,80.6,79.8s80.6-35.8,80.6-79.8
		S199.1,65.1,154.6,65.1z"/>
	<g>
		<path d="M82.3,149.4c2.9,53.5,55.7,65.7,55.7,65.7v-12.8c0,0-40-6.1-45-52.8c-5-46.8,45-60.7,45-60.7V74.8v0
			C138,74.8,79.5,95.9,82.3,149.4z"/>
		<path d="M100.6,138.7c-4.5,23.6,17.7,44.4,17.7,44.4s4-11.5,4-11.8c-9.4-2.7-9.4-22-9.4-22l13.9,0.3v43.6H138V95.9l0,0
			C126.7,97.5,105.2,115.2,100.6,138.7z M126.8,115.7v23h-13.9C112.9,138.7,112.4,121.8,126.8,115.7L126.8,115.7L126.8,115.7z"/>
		<line class="st3" x1="126.8" y1="115.7" x2="126.8" y2="115.7"/>
		<path class="st1" d="M112.9,138.7h13.9v-23C112.4,121.8,112.9,138.7,112.9,138.7z"/>
		<path d="M221.6,138.7c-1.1-33.2-31.5-54.3-31.6-54.3v118.9l11.5-8v-12.6C201.5,182.6,222.7,171.9,221.6,138.7z M201.8,168.1v-52.5
			l0,0c0,0,9.9,5.6,9.9,26.2C211.7,162.5,201.8,168.1,201.8,168.1z"/>
		<polygon points="190,84.4 190,84.4 190,84.4 		"/>
		<path class="st1" d="M201.8,115.7L201.8,115.7l0,52.5c0,0,9.9-5.6,9.9-26.2C211.7,121.3,201.8,115.7,201.8,115.7z"/>
		<path d="M172.9,166.8h-4l-9.9-92h-12.8l0,0v140.3h11.5v-64.3h2.8c0,0,7.6,63.1,7.9,63.1l13.1-5.8V83.3l-9.9-6.2L172.9,166.8z"/>
	</g>
</g>
</svg>
