<?xml version="1.0" encoding="UTF-8"?>
<svg id="Layer_1" xmlns="http://www.w3.org/2000/svg" version="1.1" viewBox="0 0 400 400">
  <!-- Generator: Adobe Illustrator 29.8.2, SVG Export Plug-In . SVG Version: 2.1.1 Build 3)  -->
  <defs>
    <style>
      .st0 {
        fill: #518668;
      }

      .st1 {
        fill: #a9548c;
      }

      .st2 {
        fill: #f8f2f6;
      }

      .st3 {
        fill: #036835;
      }

      .st4 {
        fill: #528768;
      }

      .st5 {
        fill: #fbfcfb;
      }

      .st6 {
        fill: #fcfdfc;
      }

      .st7 {
        fill: #518567;
      }

      .st8 {
        fill: #518667;
      }

      .st9 {
        fill: #528568;
      }

      .st10 {
        fill: #046936;
      }

      .st11 {
        fill: #056937;
      }

      .st12 {
        fill: #719c83;
      }

      .st13 {
        fill: #f7f0f4;
      }

      .st14 {
        fill: #fbfbfb;
      }

      .st15 {
        fill: #f8f1f6;
      }

      .st16 {
        fill: #f1f2f2;
      }

      .st17 {
        fill: #f8faf9;
      }

      .st18 {
        fill: #538769;
      }

      .st19 {
        fill: #eff3f1;
      }

      .st20 {
        fill: #036836;
      }

      .st21 {
        fill: #4e8465;
      }

      .st22 {
        fill: #fefefd;
      }

      .st23 {
        fill: #046836;
      }

      .st24 {
        fill: #f8f3f7;
      }

      .st25 {
        fill: #fbfafb;
      }

      .st26 {
        fill: #fbf9fa;
      }

      .st27 {
        fill: #548669;
      }

      .st28 {
        fill: #026735;
      }

      .st29 {
        fill: #649378;
      }

      .st30 {
        fill: #aa558d;
      }

      .st31 {
        fill: #a9558c;
      }

      .st32 {
        fill: #f3f6f4;
      }

      .st33 {
        fill: #f9f3f7;
      }

      .st34 {
        fill: #f58735;
      }

      .st35 {
        fill: #066938;
      }

      .st36 {
        fill: #508567;
      }

      .st37 {
        fill: #f58635;
      }

      .st38 {
        fill: #fefefe;
      }

      .st39 {
        fill: #f9fbfa;
      }

      .st40 {
        fill: #f0f4f2;
      }

      .st41 {
        fill: #fdfcfc;
      }

      .st42 {
        fill: #f9fafa;
      }

      .st43 {
        fill: #f9f4f7;
      }

      .st44 {
        fill: #fcfdfd;
      }

      .st45 {
        fill: #fdfdfd;
      }

      .st46 {
        fill: #f58736;
      }
    </style>
  </defs>
  <path class="st41" d="M198.36,396.17c-.25-.19-.33-.47-.5-.55-5.03-2.28-10.08-4.52-15.11-6.81-3.28-1.49-6.53-3.03-9.77-4.61-8.54-4.15-17.13-8.22-25.58-12.55-7.2-3.69-14.26-7.66-21.32-11.61-10.63-5.95-20.92-12.45-30.85-19.5-5.39-3.82-10.61-7.91-15.68-12.15-4.92-4.11-9.74-8.38-14.26-12.92-7.22-7.26-13.61-15.21-18.84-24.08-4.55-7.72-7.89-15.9-9.65-24.66-.74-3.69-1.04-7.52-1.11-11.29-.16-8.2-.02-16.4-.06-24.6-.02-4.47-.16-8.93-.26-13.4-.06-2.61-.17-5.22-.27-7.83-.18-4.67-.34-9.35-.55-14.02-.15-3.36-.35-6.71-.54-10.07-.27-4.7-.53-9.39-.82-14.09-.15-2.46-.33-4.91-.54-7.36-.34-3.91-.74-7.82-1.07-11.73-.22-2.63-.32-5.27-.57-7.9-.3-3.18-.71-6.36-1.05-9.54-.21-1.95-.35-3.9-.58-5.85-.34-2.95-.72-5.9-1.07-8.85-.28-2.38-.52-4.77-.84-7.14-.4-2.94-.86-5.87-1.3-8.8-.46-3.06-.89-6.12-1.41-9.17-.72-4.21-1.38-8.44-2.29-12.62-1.68-7.68-3.51-15.33-5.32-22.98-.57-2.41-1.32-4.78-2.07-7.08-.09-.56-.09-1.2-.09-1.97,3.19.24,6.37.61,9.56.96,2.61.29,5.21.6,7.83.81,2.94.24,5.91.64,8.84.49,3.71-.19,7.49-.52,11.09-1.39,6.34-1.54,12.66-3.27,18.81-5.42,6.16-2.15,12.17-4.77,18.12-7.46,6.61-2.99,13.03-6.39,19.61-9.46,13.45-6.27,27.09-12.07,41.29-16.45,7.47-2.3,14.99-4.4,22.7-5.7,4.45-.75,8.89-1.54,13.35-2.14,2.7-.36,5.44-.45,8.16-.57,3.15-.14,6.31-.37,9.45-.24,4.96.21,9.92.57,14.86,1.07,8.97.92,17.65,3.16,26.15,6.16,8.59,3.04,16.56,7.43,24.74,11.37,8.24,3.97,16.51,7.85,24.86,11.57,10.65,4.74,21.43,9.16,32.61,12.49,6.51,1.94,13.11,3.62,19.75,5.07,3.5.77,7.15.93,10.74,1.13,3.26.18,6.54.14,9.8.01,4.88-.18,9.76-.52,14.64-.79.96-.05,1.92-.06,2.97-.18.1.55.1,1.2.1,1.96-.18.2-.48.25-.51.37-2.52,8.71-5.14,17.4-7.48,26.16-1.14,4.25-1.78,8.64-2.61,12.97-.65,3.42-1.29,6.84-1.86,10.27-.44,2.67-.75,5.36-1.14,8.03-.42,2.93-.9,5.86-1.3,8.8-.33,2.46-.58,4.94-.88,7.4-.35,2.82-.74,5.63-1.07,8.44-.23,1.94-.36,3.9-.57,5.85-.35,3.32-.74,6.64-1.07,9.96-.22,2.22-.37,4.45-.56,6.67-.36,4.27-.73,8.54-1.08,12.8-.11,1.34-.2,2.68-.27,4.02-.19,3.67-.36,7.35-.55,11.02-.18,3.59-.37,7.18-.55,10.77-.18,3.68-.4,7.36-.53,11.04-.14,4.06-.23,8.12-.28,12.17-.11,8.73-.02,17.46-.34,26.18-.16,4.46-.69,8.98-1.66,13.33-1.1,4.94-2.66,9.81-4.41,14.57-2.7,7.35-6.36,14.26-10.71,20.76-2.83,4.23-5.93,8.27-8.99,12.34-5.36,7.12-11.68,13.38-18.17,19.42-5.18,4.82-10.66,9.35-16.31,13.62-6.97,5.28-14.15,10.3-21.42,15.16-5.08,3.4-10.36,6.54-15.73,9.47-9.02,4.92-18.11,9.73-27.32,14.29-6.72,3.33-13.67,6.23-20.55,9.22-5.26,2.29-10.59,4.42-15.89,6.64-.27.11-.49.34-.64.59-.64.08-1.38.08-2.23.08"/>
  <path class="st37" d="M351.66,251.06c-1.12,9.96-4.29,19.16-8.72,27.95-7.16,14.2-17.05,26.35-28.41,37.36-14.42,13.98-30.65,25.58-47.83,35.88-21.17,12.69-43.45,23.12-66.35,32.25-.52.21-1.27.23-1.77,0-28.17-12.56-55.96-25.87-82.14-42.27-13.96-8.75-27.32-18.3-39.36-29.6-9.03-8.48-17.1-17.74-23.1-28.66-5.58-10.15-8.44-20.93-8.36-32.62.1-14.49-.15-29-.58-43.49-.37-12.54-.97-25.08-1.9-37.59-1.2-16.07-2.62-32.13-4.33-48.16-1.77-16.61-4.35-33.11-8.06-49.41-.73-3.22-1.54-6.42-2.31-9.63-.07-.3-.1-.61-.18-1.1,1.93.22,3.76.4,5.58.63,4.72.61,9.41.23,14.08-.47,18.2-2.71,35.09-9.35,51.47-17.43,15.76-7.77,31.64-15.21,48.31-20.86,11.94-4.05,24.11-7.17,36.63-8.78,22.28-2.87,43.94-.69,64.56,8.65,9.15,4.14,18.05,8.83,27.13,13.11,16.95,8,34.17,15.37,52.19,20.67,10.01,2.95,20.17,5.21,30.65,5.46,3.61.08,7.24-.24,10.86-.37.36-.01.72,0,1.24,0-.08.44-.11.82-.23,1.18-4.69,14.67-7.27,29.79-9.35,44.99-1.8,13.18-3.38,26.4-4.8,39.63-1,9.32-1.62,18.67-2.3,28.02-1.66,23.15-2.38,46.32-2.22,69.53.01,1.67-.25,3.34-.4,5.13M40.52,97.37s0-.02-.03.22c.82,5.91,1.76,11.81,2.43,17.73,1.27,11.19,2.52,22.38,3.53,33.59.91,10.09,1.55,20.21,2.19,30.32.46,7.27.82,14.55,1.08,21.84.35,9.64.64,19.28.81,28.92.13,7.61.12,15.22.02,22.83-.09,7.45,1.34,14.57,4.1,21.44,4.49,11.15,11.57,20.55,19.79,29.16,10.56,11.07,22.6,20.35,35.25,28.87,15.34,10.34,31.46,19.35,47.93,27.74,3.18,1.62,6.42,3.15,9.79,4.8.23.14.46.29.7.41,10.21,4.77,20.41,9.55,30.64,14.26.55.25,1.43.18,2.01-.07,9.35-4.03,18.67-8.12,28.02-12.16,1.16-.5,1.84-1.27,2.37-2.4,23.38-50.5,46.78-101,70.19-151.49,19.45-41.95,38.91-83.9,58.35-125.86.47-1.02.84-2.1,1.09-3.19.74-3.17,1.37-6.37,2.1-9.54.52-2.27,1.14-4.51,1.74-6.86-.6,0-1.05-.01-1.5,0-6.64.17-13.2-.52-19.72-1.72-12.42-2.3-24.37-6.18-36.14-10.66-18.68-7.11-36.73-15.61-54.52-24.68-20.62-10.51-42.46-13.73-65.28-11.2-12.37,1.37-24.39,4.32-36.2,8.21-16.11,5.31-31.53,12.26-46.69,19.82-10.75,5.36-21.7,10.19-33.15,13.85-8.99,2.87-18.1,5.2-27.53,5.92-3.05.23-6.14.04-9.07.04,1.87,9.95,3.68,19.63,5.5,29.47.07.12.15.24.2.35Z"/>
  <path class="st22" d="M40.32,96.86c-1.82-9.69-3.63-19.37-5.5-29.32,2.93,0,6.01.2,9.07-.04,9.44-.72,18.55-3.05,27.53-5.92,11.45-3.66,22.41-8.5,33.15-13.85,15.16-7.55,30.57-14.51,46.69-19.82,11.81-3.89,23.83-6.84,36.2-8.21,22.83-2.53,44.66.69,65.28,11.2,17.79,9.06,35.84,17.57,54.52,24.68,11.77,4.48,23.73,8.36,36.14,10.66,6.52,1.21,13.08,1.9,19.72,1.72.45-.01.89,0,1.5,0-.6,2.35-1.22,4.59-1.74,6.86-.73,3.17-1.36,6.37-2.1,9.54-.25,1.09-.62,2.18-1.09,3.19-19.44,41.96-38.9,83.91-58.35,125.86-23.41,50.49-46.81,100.99-70.19,151.49-.53,1.14-1.21,1.9-2.37,2.4-9.35,4.04-18.67,8.13-28.02,12.16-.58.25-1.46.32-2.01.07-10.23-4.72-20.44-9.49-30.64-14.26-.24-.11-.47-.27-.79-.55-1.01-2.11-1.92-4.08-2.84-6.04-39.08-82.46-78.17-164.93-117.26-247.39-2.21-4.65-4.46-9.28-6.7-13.92,0,0,0,.02,0-.05-.07-.19-.14-.32-.21-.44M223.79,290.4s0-.02-.19-.03c-.08.1-.15.21-.36.42-.45.72-.83.35-1.27-.04-1.69-1.5-3.61-2.13-6.03-1.63-5.05-1.49-10.21-2.09-15.76-2.33,2.73,4.35,5.71,8.01,10.03,10.63-.32,2.1-.64,4.19-.96,6.29.14.03.27.07.41.1.28-.49.52-1.02.85-1.47.77-1.04,1.48-2.17,2.42-3.04,1.16-1.07,2.58-.59,2.78.93-4.64,5.27-9.65,10.15-15.29,14.4-6.1-4.52-11.48-9.66-16.45-15.4.49-.17.87-.31,1.44-.41,2.37.81,2.96,3.19,4.27,4.93l.36-.09c-.33-2.15-.67-4.29-.83-6.5,4.22-2.46,7.23-6.03,9.91-10.39-5.63.32-10.82.84-16.1,2.39-2.25-.58-4.11.37-5.99,1.37-1.63-2.35-3.25-4.7-5.01-7.24,6.68-.35,10.64-4.14,13.92-9.48-6.03.67-11.9.69-16.87,4.62-1.27-2.24-2.52-4.46-3.82-6.75-.22.2-.39.34-.64.35-.11-.3-.21-.61-.13-.94.04-.24.19-.53.11-.72-.36-.87-.79-1.71-.96-2.56,4.09.53,6.16-.64,7.34-4.21.27-.81.44-1.66.61-2.49.25-1.26,1.01-1.66,2.04-.87.73.56,1.29,1.37,1.88,2.1.32.4.55.87.83,1.31.19-4.02-.76-7.6-3.58-10.62.48-.72.95-1.43,1.62-2.44-6.08.59-11.82.78-16.76,4.31-.69-1.74-1.35-3.42-1.93-5.24,1.98-2.07,2.95-4.62,3.43-7.38.33-1.91,1.31-2.57,2.93-1.53,1.36.87,2.42,2.24,3.54,3.45.51.55.85,1.25,1.27,1.89.14-1.46.09-2.82-.14-4.14-.61-3.59-1.85-6.9-4.51-9.52-3-2.96-6.77-3.24-10.22-.79-.43.3-.9.56-1.37.7-.07-.05-.14-.1-.2-.12,0,0,.02,0,.07-.23-.43-2.54-.86-5.07-1.3-7.61-.22-1.22-.15-2.29.48-3.48,1.41-2.64,1.56-5.58,1.56-8.18-.93-.48-1.73-.72-2.27-1.23-1.03-.95-1.9-.9-2.99-.09-.76.56-1.7.88-2.68,1.36-.53,3.08.25,6.55,2.19,9.43.15.22.27.47.31.72.39,2.54.76,5.09.89,7.64-2.31-.2-4,.92-5.36,2.63-1.56,1.95-2.45,4.23-2.84,6.67-.29,1.77-.39,3.57-.61,5.68,1.03-1.18,1.69-2.12,2.53-2.85,1.39-1.22,3.02-1.83,4.89-1.2,2.03.69,2.61,2.65,1.09,4.14-.91.89-2.1,1.55-3.26,2.11-1.13.54-2.39.82-3.81,1.28,4.48,1.96,8.79,3.47,13.62,2.62,1.21,3.1,2.43,6.19,3.55,9.37,0,0-.09.09-.29.06-4.48-2.03-9.25-2.47-14.35-2.79,2.76,4.37,5.9,7.79,10.74,9.21-.81.77-1.81,1.41-2.41,2.33-2.35,3.6-2.76,7.7-2.95,12.12.93-1.59,1.61-3.01,2.55-4.24.38-.5,1.29-.6,1.96-.88.21.55.51,1.08.61,1.65.52,3.11,1.02,6.21,3.89,8.33.07.04.13.08.2.1,0,0-.02,0-.08.2,2.53,4.17,5.76,7.49,10.67,8.99-.34,2.27-.68,4.55-1.01,6.82.14.03.29.05.43.08.27-.41.46-.9.81-1.21.9-.79,1.79-1.67,2.84-2.18,1.24-.6,2.73,0,3.32,1.06.69,1.24.28,2.41-.7,3.15-1.16.88-2.55,1.49-3.85,2.18-.43.23-.92.36-1.39.53,1.86.98,3.69,1.79,5.6,2.27,4.72,1.18,7.75-.49,9.51-5.04.11-.29.28-.56.52-.67,4.46,4.95,9.31,9.47,14.84,13.72-4.18,2.41-8.16,4.7-12.2,7.02.12.26.27.58.43.93.26-.09.49-.14.67-.24,3.72-2.13,7.46-4.24,11.15-6.43.69-.41,1.12-.48,1.78.01,1.34,1,2.72,1.95,4.17,2.8,2.88,1.68,5.81,3.26,8.82,4.95.54-1.18.96-2.1,1.29-2.82-4.26-2.49-8.33-4.86-12.59-7.35,1.27-1.04,2.26-1.75,3.13-2.58,3.89-3.71,7.75-7.46,11.67-11,.32.89.58,1.81.96,2.68,1.1,2.51,2.95,4.15,5.75,4.35,3.25.23,6.13-1,9.16-2.56-.81-.27-1.41-.37-1.91-.64-1.26-.69-2.56-1.34-3.67-2.23-.9-.71-1.2-1.85-.58-2.95.66-1.17,1.88-1.68,3.02-1.19,1.19.51,2.18,1.49,3.21,2.33.33.27.51.74.76,1.11.14-.05.29-.1.43-.15-.35-2.31-.7-4.62-.86-6.97,4.89-1.43,8.26-4.64,10.7-9.19,1.84-1.36,2.83-3.23,3.28-5.42.24-1.15.49-2.3.61-3.46.12-1.19.85-1.21,1.6-.85.53.26,1.01.77,1.35,1.28.58.86,1.03,1.8,1.54,2.88.12.25.24.49.46.96,0-.56,0-.86.02-1.41-.17-1.57-.22-3.17-.55-4.71-.71-3.35-1.66-6.61-4.66-8.61,4.83-1.34,7.96-4.67,10.38-8.96-2.86.2-5.7.38-8.44,1.01-2.5.58-4.88,1.66-7.34,2.32.34-.6.69-1.2,1.03-1.8.23-.41.55-.8.68-1.24.21-.71.22-1.49.46-2.18.62-1.82,1.32-3.61,2.19-5.39,5.06,1.84,9.53-.13,14.39-2.06-.9-.24-1.46-.29-1.93-.52-1.77-.87-3.7-1.55-5.2-2.77-1.76-1.43-1.08-3.55,1.1-4.25,1.67-.54,3.18-.07,4.44.98.98.81,1.76,1.85,2.7,2.87.09-3.92-.47-7.63-2.51-10.98-1.7-2.79-4.04-4.37-7.42-3.83.32-1.78.67-3.56.94-5.34.18-1.2.17-2.4,1.51-3.08.46-.23.75-.89,1-1.42,1.22-2.57,1.42-5.29,1.24-7.74-1.16-.62-2.14-1.03-3-1.62-.89-.62-1.59-.59-2.44.08-.7.55-1.55.91-2.51,1.45.05.83.03,1.92.19,2.98.37,2.46.63,4.96,2.64,6.81.24.22.24.83.18,1.23-.38,2.55-.81,5.09-1.34,7.77-.4.34-.8.68-1.2,1.01-.51-.38-.9-.68-1.31-.97-3.33-2.37-7.09-2.2-10,.64-3.87,3.78-4.88,8.64-5.08,14.07,1.13-1.54,1.94-2.98,3.07-4.07.89-.85,2.14-1.41,3.32-1.84.77-.28,1.38.18,1.52,1.21.44,3.4,1.63,6.47,4.27,8.94-.65,1.69-1.31,3.38-1.96,5.07-5.1-4.41-11.21-4.39-17.14-5-.05.11-.1.23-.15.34.52.73,1.04,1.46,1.46,2.37-3.05,2.82-3.73,6.49-3.79,10.4.29-.25.47-.54.65-.83.21-.35.38-.73.64-1.03.49-.58.97-1.22,1.58-1.65,1.09-.76,1.72-.39,2.06.89.37,1.39.7,2.82,1.33,4.1,1.05,2.12,3.11,3.08,5.42,2.76.89-.12,1.77-.33,2.65-.34.01.05.02.11-.06.33-.99,1.89-1.98,3.79-3.14,5.8-1.04,1.83-2.09,3.66-3.1,5.44-4.87-4.92-11.22-4.56-17.54-5.46,3.54,5.74,7.85,9.66,15.04,9.53-1.22,1.82-2.31,3.41-3.36,5.02-.37.57-.65,1.2-.95,1.82,0,0,0-.02-.19-.09-.03.12-.06.24-.07.36M277.04,150.6h16.86v-81.15c-6.35-1.25-12.62-2.48-19.03-3.74v43.81c-.42-.37-.63-.79-.8-1.23-6.04-15.08-12.08-30.15-18.1-45.24-.33-.84-.75-1.28-1.69-1.45-4.85-.9-9.68-1.89-14.52-2.84-2.47-.49-4.95-.97-7.52-1.47v93.22h23.02v-48.61c.41.26.57.57.7.89,6.5,15.62,12.99,31.25,19.47,46.88.28.68.59,1.09,1.61.95M163.11,57.91c-.28-1.05-1.01-.46-1.52-.36-15.22,3.02-30.43,6.06-45.64,9.1-3.54.71-7.08,1.43-10.59,2.14v81.7h57.69v-29.32c-7.69.48-15.3.96-23.03,1.45v13.64c-5.18.17-10.23.34-15.33.51v-57.9c5.13-.85,10.19-1.7,15.43-2.57v8.5c7.32-1.09,14.47-2.18,21.64-3.18,1.11-.15,1.4-.51,1.4-1.59-.04-7.29-.02-14.59-.03-22.13M201.36,150.6h20.48v-15.11h-27.33v-23h16.84v-15.19h-16.86v-24.9h27.36v-15.08h-48.52v93.28c9.31,0,18.54,0,28.04,0M204.93,261.35c12.35-2.68,20.39-14.69,18.35-27.4-1.93-12-12.6-20.46-25.14-19.95-11.54.47-21.55,10.26-22.44,21.96-1.23,16.13,13.15,28.74,29.23,25.38M239.81,187.49v5.38h6.02v-19.14c.31.32.42.66.52,1,1.68,5.72,3.34,11.45,5.04,17.16.11.38.42.98.66.99,1.74.09,3.49.05,5.19.05v-35.96h-5.92v17.7c-.09,0-.18.02-.27.03-1.72-5.92-3.45-11.83-5.16-17.71h-6.08v30.51M122.83,166.83v-9.9h-6.01v17.61c-.42-.35-.58-.74-.7-1.14-1.51-5.16-3-10.32-4.53-15.47-.11-.38-.43-.97-.67-.98-1.88-.08-3.76-.05-5.63-.05v35.97h5.96v-19.3c.3.37.42.75.53,1.13,1.7,5.76,3.39,11.53,5.11,17.28.11.36.46.9.72.92,1.7.08,3.41.04,5.22.04,0-8.73,0-17.28,0-26.1M210.69,166.83v-9.87h-16.31v35.88h5.96v-13.09h4.38v13.1h5.98v-26.02M141.95,167.1v-10.14h-16.26v35.86h5.96v-13.09h4.35v13.11h5.95v-25.76M175.9,181.24v11.59h6.07v-13.29h1.88c.9,4.46,1.8,8.89,2.7,13.33h6.19c0-.23.03-.41,0-.58-1.01-4.59-2-9.19-3.07-13.76-.26-1.12-.25-2,.79-2.7,1.41-.95,1.74-2.29,1.69-3.97-.12-4.48-.04-8.97-.04-13.45,0-.48,0-.96,0-1.43h-16.2v24.26M267.35,169.74c-.37-.42-1.03-.83-1.05-1.27-.12-1.83-.05-3.68-.05-5.52h3.68v4.16h5.88v-10.13h-15.58c0,4.84-.02,9.6.03,14.35,0,.39.38.88.72,1.14,2.66,2.03,5.36,4.01,8.04,6.03.33.25.78.65.79.99.07,2.61.04,5.22.04,7.85h-3.64v-5.81h-5.88v11.3h15.59c0-5.44.02-10.78-.04-16.12,0-.42-.47-.94-.86-1.23-2.48-1.9-5-3.75-7.66-5.74M155.1,192.94c1-.11,2.11.5,2.44-1.37,1.65-9.25,3.49-18.47,5.26-27.71.44-2.28.85-4.57,1.29-6.93h-6.07c-1.23,6.39-2.46,12.77-3.68,19.15-.1,0-.21-.02-.31-.02-1.22-6.36-2.45-12.72-3.68-19.11h-6.03c.06.47.09.88.16,1.28,1.98,10.39,3.97,20.77,5.95,31.16.67,3.54.66,3.54,4.69,3.54M223.09,170.91v21.94h13.74v-5.78h-7.7v-8.37h5.06v-6.32h-5.03v-9.67h7.63v-5.73h-13.7c0,4.61,0,9.13,0,13.93M284.71,182.87v-4.15h5.09v-6.39h-5.01v-9.61h7.69v-5.76h-13.66v35.88h13.7v-5.77h-7.8c0-1.41,0-2.67,0-4.2M166.99,161.12v31.72h5.91v-35.86h-5.91v4.14M217.66,156.89h-3.34v35.96h5.84v-35.96h-2.49M252.63,269.91c.81-.41,1.61-.81,2.42-1.22-.06-.13-.13-.26-.19-.39-1.48.62-3.24.56-4.48,1.75.05.14.1.28.15.42.63-.17,1.27-.33,2.1-.56M148.18,270.34c.19-.03.38-.06.58-.09-.16-.24-.27-.62-.48-.7-1.29-.46-2.6-.84-3.9-1.25-.06.17-.13.34-.19.51,1.27.5,2.53.99,4,1.53Z"/>
  <path class="st21" d="M40.51,97.47c2.25,4.52,4.51,9.15,6.71,13.8,39.09,82.46,78.17,164.92,117.26,247.39.93,1.96,1.84,3.93,2.76,6.01-3.2-1.46-6.43-2.99-9.62-4.62-16.47-8.39-32.59-17.4-47.93-27.74-12.65-8.53-24.69-17.81-35.25-28.87-8.22-8.61-15.3-18.01-19.79-29.16-2.77-6.88-4.2-14-4.1-21.44.09-7.61.11-15.22-.02-22.83-.17-9.64-.46-19.29-.81-28.92-.26-7.28-.62-14.56-1.08-21.84-.64-10.11-1.28-20.23-2.19-30.32-1.01-11.21-2.26-22.41-3.53-33.59-.67-5.93-1.61-11.82-2.41-17.85Z"/>
  <path class="st21" d="M40.32,96.94c.07.05.14.17.21.37-.07-.05-.14-.17-.21-.37Z"/>
  <path class="st37" d="M276.92,150.6c-.9.14-1.21-.27-1.49-.95-6.47-15.63-12.97-31.26-19.47-46.88-.13-.32-.29-.62-.7-.89v48.61h-23.02V57.28c2.57.5,5.05.98,7.52,1.47,4.84.95,9.67,1.94,14.52,2.84.94.17,1.35.61,1.69,1.45,6.01,15.09,12.06,30.16,18.1,45.24.17.44.38.86.8,1.23v-43.81c6.41,1.26,12.68,2.49,19.03,3.74v81.15c-5.65,0-11.25,0-16.98,0Z"/>
  <path class="st34" d="M163.11,58.04c0,7.42-.02,14.71.03,22.01,0,1.08-.29,1.44-1.4,1.59-7.17,1-14.32,2.09-21.64,3.18v-8.5c-5.24.87-10.3,1.71-15.43,2.57v57.9c5.1-.17,10.15-.34,15.33-.51v-13.64c7.73-.49,15.33-.96,23.03-1.45v29.32h-57.69v-81.7c3.51-.71,7.05-1.43,10.59-2.14,15.21-3.04,30.43-6.08,45.64-9.1.51-.1,1.24-.69,1.52.48Z"/>
  <path class="st46" d="M201.22,150.6c-9.36,0-18.59,0-27.9,0V57.31h48.52v15.08h-27.36v24.9h16.86v15.19h-16.84v23h27.33v15.11c-6.83,0-13.65,0-20.61,0Z"/>
  <path class="st0" d="M204.82,261.38c-15.97,3.33-30.35-9.28-29.12-25.41.89-11.7,10.89-21.49,22.44-21.96,12.54-.51,23.21,7.95,25.14,19.95,2.04,12.7-6,24.72-18.46,27.43M202.85,227.11c-.07.01-.15.02-.22.03.06.07.13.15.27.38.52.43,1.01.92,1.58,1.28,1.36.86,2.12,1.97,2.02,3.67-.05.92.19,1.86.3,2.79.44-1.69.72-3.38.91-5.07.03-.25-.28-.65-.54-.79-1.38-.76-2.8-1.47-4.31-2.3M219.19,235.2c-.07,0-.14,0-.19-.2-.1-.46-.06-1.01-.31-1.37-1.28-1.8-2.6-3.57-3.97-5.3-.21-.26-.79-.46-1.11-.37-1.34.37-2.66.83-3.97,1.33-.28.11-.61.46-.65.74-.37,2.72-.69,5.44-1.18,8.15-.11,0-.22,0-.58-.04-1.71.1-3.41.21-5.12.3-1.73.1-3.61-.23-4.74,1.44.8-1.12.59-2.14-.23-3.16-.44-.56-.75-1.23-1.14-1.84-.95-1.47-1.61-3.5-2.97-4.24-1.42-.77-3.52-.35-5.32-.31-.49.01-1.16.42-1.43.85-1.13,1.74-2.16,3.55-3.17,5.35-.39.69-.66,1.45-1.14,2.17-.11,0-.22.01-.55-.01-1.31-.22-2.61-.43-3.95-.65,0,5.64,3.36,13.15,7,15.29.09-2.64.16-5.09.39-7.53.1,0,.19,0,.44.17,3.14-.07,6.28-.14,9.45,0,.2.38.34.81.62,1.13,1.46,1.72,3.05,3.34,4.4,5.14.87,1.16,1.84,1.38,3.12,1.16,1.19-.21,2.41-.3,3.59-.58.5-.12,1.08-.46,1.34-.88,1.32-2.15,2.57-4.34,3.8-6.54.19-.34.15-.81.27-1.33.04-.07.11-.13.31-.02.35.07.72.25,1.04.17,1.04-.25,2.04-.69,3.08-.87,1.29-.22,1.84-.92,2.02-2.17.07,0,.14,0,.18.23.13,1.63.26,3.25.38,4.88.17,0,.35-.01.52-.02,1.61-3.91,2.08-7.96,1.34-12.14-.98-.24-1.32.21-1.56,1.04M183.68,225.5c.07.06.12.13.19.4.48.71,1.03,1.38,1.42,2.14.72,1.4,1.81,1.68,3.33,1.92,3.29.53,5.75-.66,8.04-2.75,1.03-.93,2.77-1.57,3.08-2.66.31-1.09-.82-2.55-1.24-3.87-.26-.81-.73-1.12-1.57-1.15-2.11-.08-4.22-.22-6.38-.53-.16-.46-.31-.91-.51-1.47-4.02,2.11-7.41,4.69-9.58,8.76.03.04.05.07.08.11,0-.06,0-.12.19-.04.94-.31,1.89-.62,2.94-.85M207.06,217.51c-3.38-1.44-5.82.6-8.48,2.21.48,1.21.83,2.4,1.4,3.46.38.7.96,1.41,1.64,1.8,2.19,1.27,4.46,2.41,6.72,3.56.37.19.88.36,1.24.26,1.47-.42,2.91-.96,4.34-1.45-.12-5.66-1.02-7.74-6.86-9.85M200.35,254.54c-1.62,1.06-3.26,2.1-4.86,3.2-.29.2-.61.72-.54.99.08.3.57.62.93.68,3.39.62,6.77.46,10.02-.66,1.95-.67,3.78-1.66,5.64-2.49-3.31-4.06-7.15-3.02-11.19-1.73M188.97,255.5c-1.45-.75-2.9-1.5-4.35-2.25-.07.14-.14.28-.2.42,2.77,2.76,6.12,4.48,10.05,5.2-1.54-1.45-3.5-2.25-5.49-3.37M183.67,227.61c-.85-.08-1.71-.16-2.56-.24l-.02.36c1.24.59,2.47,1.17,4.08,1.93-.61-.84-.99-1.37-1.49-2.05M218.64,246.5c-.32-.77-.64-1.54-.98-2.36-.57.15-1.01.26-1.74.45,1.01.81,1.83,1.46,2.72,1.91M218.77,246.93s-.06.05-.06.07.04.05.06.08c.02-.02.05-.05,0-.15Z"/>
  <path class="st3" d="M239.81,187.36v-30.38h6.08c1.71,5.88,3.44,11.79,5.16,17.71.09,0,.18-.02.27-.03v-17.7h5.92v35.96c-1.7,0-3.45.04-5.19-.05-.24-.01-.55-.61-.66-.99-1.7-5.72-3.36-11.44-5.04-17.16-.1-.34-.21-.67-.52-1v19.14h-6.02v-5.51Z"/>
  <path class="st20" d="M122.83,166.96v25.97c-1.81,0-3.52.04-5.22-.04-.26-.01-.61-.56-.72-.92-1.72-5.76-3.41-11.52-5.11-17.28-.11-.38-.23-.76-.53-1.13v19.3h-5.96v-35.97c1.87,0,3.75-.04,5.63.05.24.01.56.61.67.98,1.53,5.15,3.02,10.32,4.53,15.47.12.4.28.8.7,1.14v-17.61h6.01c0,3.32,0,6.61,0,10.03Z"/>
  <path class="st10" d="M210.69,166.96v25.88h-5.98v-13.1h-4.38v13.09h-5.96v-35.88h16.31v10.01M204.7,166.56v-3.69h-4.36v10.28h4.36v-6.59Z"/>
  <path class="st28" d="M141.95,167.24v25.62h-5.95v-13.11h-4.35v13.09h-5.96v-35.86h16.26v10.27M135.28,162.76h-3.6v10.4h4.29c0-3.29,0-6.5-.02-9.71,0-.23-.26-.46-.67-.69Z"/>
  <path class="st3" d="M175.9,181.1v-24.13h16.2c0,.47,0,.95,0,1.43,0,4.48-.08,8.97.04,13.45.04,1.68-.28,3.02-1.69,3.97-1.03.7-1.05,1.58-.79,2.7,1.07,4.58,2.06,9.17,3.07,13.76.04.17,0,.35,0,.58h-6.19c-.9-4.44-1.8-8.87-2.7-13.33h-1.88v13.29h-6.07v-11.73M186.06,173.07v-9.92h-4.07v11.77h4.07v-1.85Z"/>
  <path class="st11" d="M267.42,169.8c2.58,1.93,5.1,3.78,7.58,5.68.39.3.86.81.86,1.23.06,5.34.04,10.68.04,16.12h-15.59v-11.3h5.88v5.81h3.64c0-2.63.03-5.24-.04-7.85,0-.34-.45-.74-.79-.99-2.67-2.02-5.37-4-8.04-6.03-.34-.26-.72-.75-.72-1.14-.05-4.75-.03-9.5-.03-14.35h15.58v10.13h-5.88v-4.16h-3.68c0,1.84-.07,3.69.05,5.52.03.44.69.85,1.13,1.33Z"/>
  <path class="st3" d="M154.97,192.94c-3.9,0-3.88,0-4.56-3.54-1.98-10.39-3.97-20.78-5.95-31.16-.08-.4-.1-.8-.16-1.28h6.03c1.23,6.39,2.45,12.75,3.68,19.11.1,0,.21.02.31.02,1.23-6.38,2.45-12.76,3.68-19.15h6.07c-.44,2.36-.85,4.65-1.29,6.93-1.77,9.23-3.61,18.45-5.26,27.71-.33,1.87-1.45,1.26-2.57,1.37Z"/>
  <path class="st1" d="M150.61,232.48c.45-.28.91-.53,1.34-.84,3.45-2.44,7.21-2.17,10.22.79,2.66,2.62,3.9,5.93,4.51,9.52.23,1.33.28,2.69.14,4.14-.42-.63-.76-1.34-1.27-1.89-1.12-1.21-2.18-2.58-3.54-3.45-1.62-1.04-2.6-.38-2.93,1.53-.48,2.77-1.46,5.31-3.57,7.49-.98.61-1.83,1.12-2.68,1.63-4.78,1.06-9.09-.45-13.57-2.41,1.42-.46,2.68-.74,3.81-1.28,1.16-.56,2.35-1.22,3.26-2.11,1.52-1.49.93-3.45-1.09-4.14-1.88-.64-3.5-.02-4.89,1.2-.84.73-1.49,1.67-2.53,2.85.22-2.1.32-3.9.61-5.68.39-2.44,1.28-4.71,2.84-6.67,1.36-1.71,3.05-2.83,5.58-2.62,1.33.56,2.44,1.11,3.56,1.66,0,0-.02,0,0,.05.07.12.13.18.2.22M150.53,239.01c2.51,2.9,2.29,5.31-.67,7.77-.24.2-.29.61-.43.93.37-.01.84.12,1.11-.06,2.98-1.92,3.69-5.27,1.75-8.25-.44-.67-1.07-1.22-1.59-1.84-.86-1.02-.74-1.67.32-2.37.27-.18.36-.61.61-1.06-1.89-.16-2.48.89-2.83,2.19-.57-.16-1.04-.33-1.52-.43-2.43-.51-4.45.2-6.1,2.05-.56.63-.44,1.01.33,1.25,3.15-3.02,5.7-3.11,9.02-.18M159.09,235c-3.24-1.31-6.53.32-6.6,3.52.44-.19.88-.44,1.11-.81,1.46-2.37,3.85-2.79,5.96-.99.37.32.63.79,1.02,1.07.31.22.75.26,1.13.38l.32-.58c-.92-.82-1.83-1.65-2.93-2.58Z"/>
  <path class="st1" d="M244.48,250.4c-2.73-2.28-3.91-5.35-4.36-8.75-.13-1.03-.74-1.49-1.52-1.21-1.19.42-2.44.98-3.32,1.84-1.14,1.1-1.95,2.54-3.07,4.07.2-5.44,1.2-10.3,5.08-14.07,2.91-2.84,6.68-3.01,10-.64.4.29.79.59,1.31.97.4-.33.8-.67,1.34-1.1.55-.32.96-.55,1.37-.78,3.44-.79,5.78.78,7.48,3.58,2.04,3.35,2.6,7.06,2.51,10.98-.94-1.02-1.72-2.06-2.7-2.87-1.27-1.04-2.77-1.51-4.44-.98-2.18.7-2.86,2.83-1.1,4.25,1.5,1.21,3.43,1.9,5.2,2.77.47.23,1.04.29,1.93.52-4.86,1.93-9.34,3.91-14.55,1.98-.49-.24-.82-.4-1.15-.56M249.71,234.69c-.58-.24-1.16-.48-1.74-.71-.1.13-.21.27-.31.4.22.28.37.71.66.83,1.19.51.94,1.29.45,2.09-.25.41-.68.72-1.01,1.09-3.04,3.37-2.22,7.86,1.77,9.66.85-.65.25-.99-.27-1.41-2.85-2.29-2.9-5.55-.14-7.97,2.87-2.52,5.52-2.36,8.71.55.14-.08.3-.16.44-.27.1-.08.17-.2.3-.36-2.08-2.96-4.87-3.4-8.03-2.31-.26-.55-.47-1-.83-1.59M240.32,234.95c-1.03.88-2.07,1.75-3.08,2.61.94,1.26,1.28.47,1.7-.02,2.38-2.75,5.1-2.56,6.86.53.45.78.79.63,1.29.19-1.22-3.26-3.54-4.44-6.78-3.31Z"/>
  <path class="st35" d="M223.09,170.77v-13.79h13.7v5.73h-7.63v9.67h5.03v6.32h-5.06v8.37h7.7v5.78h-13.74c0-7.31,0-14.63,0-22.08Z"/>
  <path class="st31" d="M251.54,280.89c-.5-.9-.95-1.85-1.53-2.7-.34-.51-.81-1.02-1.35-1.28-.76-.36-1.48-.34-1.6.85-.12,1.16-.37,2.31-.61,3.46-.45,2.19-1.45,4.06-3.45,5.51-1.35.13-2.53.16-3.76.18-.05-.02-.14-.04-.18-.04s-.05-.08-.09-.12c-.1-.09-.17-.12-.35-.14-1.47-.62-2.84-1.25-4.48-1.99.92-.41,1.57-.56,2.04-.94,1.02-.83,2.13-1.65,2.87-2.71.74-1.06.27-2.51-.64-3.14-.92-.64-2.05-.48-3.02.56-.65.7-1.15,1.54-1.82,2.45,0-1.28,0-2.39,0-3.57.02-.11.03-.16.1-.24.11-.11.14-.19.15-.4.09-1.07.19-2.02.29-2.97.99-1.89,1.98-3.79,3.06-5.8.05-.2.02-.29-.02-.38-.89.17-1.77.38-2.66.51-2.31.32-4.37-.64-5.42-2.76-.63-1.27-.97-2.71-1.33-4.1-.34-1.28-.96-1.64-2.06-.89-.61.42-1.09,1.07-1.58,1.65-.26.31-.43.69-.64,1.03-.18.29-.36.59-.65.83.06-3.91.74-7.58,3.92-10.52,2.5-1.45,4.53-.71,6.3,1,2.58-2.01,4.42-1.83,6.06.57.45.66.84,1.42,1.04,2.19.43,1.6.71,3.24,1.07,4.94.08.14.14.22.15.36-.13.36-.22.64-.31.95-.41-.48-.8-.94-1.23-1.49-.68-.47-1.32-1.16-1.97-1.17-.78,0-1.86.36-2.25.94-.32.47-.04,1.7.41,2.23.55.66,1.54.94,2.41,1.46.55.31,1.03.55,1.59.83-.23.21-.39.35-.63.52-.35.26-.63.49-.9.81.14.2.26.32.48.42.99.51,1.89,1.03,2.82,1.57.6-.53,1.27-1.13,2.06-1.76,1-.12,1.88-.21,2.77-.29,3.2,1.96,4.15,5.22,4.86,8.57.33,1.54.38,3.14.42,4.84-.21.14-.29.14-.36.15M231.92,259c-1.41,2.7-.88,4.9,1.56,6.43,1.03-.61.3-1.02-.15-1.5-1.47-1.54-1.38-3.56.23-5.19,1.55-1.58,3.11-1.59,4.74-.13.25.22.75.15,1.48.27-1.44-2.38-3.17-2.85-5.01-2.32-.75-.59-1.35-1.07-1.95-1.54-.16.09-.31.18-.47.27.34.98,1.48,1.99-.03,2.79-.61-1.4-1.47-2.61-3.14-2.61-1.61,0-2.63,1.02-3.33,2.39q.78.57,1.44-.16c1.4-1.54,2.58-1.44,3.71.26.24.36.69.59.92,1.04M243.08,275.08c.27-.43.59-.84.82-1.29.89-1.73,2.16-1.85,3.33-.28.24.32.39.73.67,1.01.13.13.5.13.71.05.12-.05.23-.36.21-.55-.09-.88-1.65-2.45-2.67-2.7-1.3-.32-2.19.31-2.87,1.31-.37.54-.66,1.14-1,1.73-1.83-1.1.05-2.32-.13-3.43-.13-.08-.25-.17-.38-.25-.59.63-1.18,1.25-1.84,1.95-2.05-.48-3.35-.06-4.38,1.61-.18.29-.08.76-.11,1.15.35-.17.8-.26,1.02-.53,1.37-1.64,2.75-1.73,4.24-.22,2.06,2.09,2.21,5.35.41,7.68-.23.3-.2.81-.29,1.22.17.06.35.12.52.17.42-.51.91-.98,1.26-1.53,1.45-2.26,1.11-4.57.19-6.97.03-.03.07-.07.29-.12Z"/>
  <path class="st23" d="M284.71,183.01c0,1.4,0,2.66,0,4.07h7.8v5.77h-13.7v-35.88h13.66v5.76h-7.69v9.61h5.01v6.39h-5.09c0,1.46,0,2.81,0,4.28Z"/>
  <path class="st1" d="M215.85,300.13c-.36-1.42-1.78-1.91-2.93-.83-.94.87-1.65,2-2.42,3.04-.33.45-.57.98-.85,1.47-.14-.03-.27-.07-.41-.1.32-2.1.64-4.19,1.03-6.47,1.1-3.44,2.54-6.41,5.85-7.99,2.24-.63,4.16,0,5.85,1.5.44.39.82.76,1.42-.05.24-.16.32-.24.4-.32,0,0,0,.02.06-.01.11-.11.16-.19.21-.27,0,0,0,.02.08.02.64-.26,1.2-.51,1.85-.71.85.18,1.61.31,2.42.52,2.16,1.48,3.1,3.66,3.87,5.94.35,2.31.7,4.62,1.05,6.94-.14.05-.29.1-.43.15-.25-.38-.42-.84-.76-1.11-1.03-.84-2.02-1.82-3.21-2.33-1.14-.49-2.36.02-3.02,1.19-.62,1.1-.32,2.23.58,2.95,1.11.88,2.42,1.54,3.67,2.23.5.27,1.1.38,1.91.64-3.04,1.56-5.92,2.79-9.16,2.56-2.8-.2-4.65-1.84-5.75-4.35-.38-.87-.64-1.79-.98-2.89-.13-.7-.23-1.2-.33-1.7M221.58,296.74c-.45-2.05-1.82-3.47-3.48-3.63-1.87-.18-3.6,1.02-4.53,3.14.8.88,1.1.09,1.51-.43,1.79-2.29,3.78-2.12,5.24.36.22.37.87.5,1.32.93-2,3.63-1.36,6.75,1.79,8.54.85-.56.36-.95-.14-1.42-2.23-2.11-2.22-4.9-.07-7.18,1.77-1.88,4.92-2.48,6.57.02.14.21.69.14,1.29.25-1.43-2.8-3.27-3.46-6.71-2.66-.27-1.09-.8-1.96-2.47-1.93,1.22,1.61,1.75,3.1-.31,3.99Z"/>
  <path class="st1" d="M182.94,302.88c-.14.28-.31.55-.42.84-1.76,4.56-4.79,6.22-9.51,5.04-1.91-.48-3.74-1.28-5.6-2.27.46-.17.95-.3,1.39-.53,1.31-.69,2.69-1.29,3.85-2.18.98-.74,1.39-1.91.7-3.15-.59-1.06-2.08-1.67-3.32-1.06-1.05.51-1.94,1.4-2.84,2.18-.35.31-.55.8-.81,1.21-.14-.03-.29-.05-.43-.08.34-2.27.68-4.55,1.06-7.02.85-2.46,1.94-4.53,3.98-6.04.51-.11.93-.21,1.46-.3,1.22.43,2.36.78,3.42,1.3.52.26.88.71,1.24-.11,1.79-1.18,3.64-2.13,6.09-1.48,3.34,1.81,4.82,4.73,5.83,7.99.33,2.15.67,4.29,1,6.44l-.36.09c-1.31-1.75-1.9-4.12-4.45-5.01-1.09-.32-1.63-.08-1.75.96-.12,1.07-.35,2.12-.53,3.18M176.19,305.55c2.59-1.99,3.35-4.57,2.05-7.27-.39-.8-1.02-1.48-1.52-2.23-.52-.78-1.05-1.55.17-2.26.23-.14.26-.64.43-1.1-1.55,0-2.13.83-2.39,1.95-3.5-.78-5.54-.02-6.43,2.6.47-.04.95-.14,1.23-.44,1.38-1.47,3.15-1.82,4.91-.83,3.32,1.86,4.21,6.17,1.17,8.44-.68.51-.62.92.38,1.12M184.69,296.52c.34-.04.69-.09,1.47-.19-1.02-1.06-1.66-1.96-2.51-2.56-2.17-1.53-5.16-.32-5.8,2.27-.06.24.11.54.17.81.29-.12.61-.2.85-.39.16-.12.19-.4.31-.59,1.16-1.98,2.96-2.21,4.57-.57.31.32.56.7.96,1.22Z"/>
  <path class="st3" d="M166.99,160.98v-4.01h5.91v35.86h-5.91v-31.85Z"/>
  <path class="st28" d="M217.8,156.89h2.36v35.96h-5.84v-35.96h3.47Z"/>
  <path class="st30" d="M156.17,286.63c-2.88-1.98-3.38-5.08-3.9-8.18-.1-.57-.4-1.1-.61-1.65-.67.28-1.58.38-1.96.88-.93,1.24-1.62,2.66-2.55,4.24.18-4.41.59-8.52,2.95-12.12.6-.91,1.59-1.56,2.57-2.41,1.08.02,2,.13,2.97.31.71.65,1.36,1.23,1.97,1.78.74-.6,1.4-1.13,2.15-1.67.94.24,1.96.28,2.6.8.8.64,1.28,1.67,1.9,2.54.11.3.21.61.39,1.09.45,2.52.83,4.85,1.2,7.3-.05.53-.09.94-.14,1.41-.67-.94-1.18-1.86-1.88-2.6-.79-.84-1.81-1.25-2.93-.53-.98.62-1.42,1.99-.72,3.13.6.96,1.51,1.76,2.4,2.48.61.49,1.43.72,2.3,1.13-.53.33-.93.61-1.36.83-1.12.57-2.25,1.12-3.47,1.67-1.3-.06-2.51-.11-3.72-.15,0,0,.02,0,0-.05-.06-.11-.11-.16-.17-.2M156.64,275.18s-.01,0-.03.19c-1.6,2.87-.93,6.96,1.94,8.44-.16-.69-.14-1.17-.36-1.47-1.72-2.27-1.75-5.08-.01-7.25,1.61-2.02,3.03-2.02,4.75-.09.22.25.72.25,1.39.46-1.27-2.74-2.33-3.25-5-2.88-.66-.7-1.22-1.3-1.79-1.9l-.41.23c.18,1.22,1.4,2.5-.12,3.66-.15-.34-.3-.66-.45-.98-.55-1.2-1.27-2.27-2.73-2.35-1.45-.08-2.32.9-2.97,2.03-.21.36-.17.86-.24,1.29.39-.23.8-.45,1.18-.71.67-.47,1.39-1.42,1.96-1.33.68.11,1.21,1.11,1.82,1.7.34.34.72.64,1.07.94Z"/>
  <path class="st9" d="M155.6,267.63c-.92-.11-1.83-.22-2.87-.33-5.06-1.25-8.2-4.67-10.96-9.04,5.1.32,9.87.76,14.48,2.86.17-.03.21-.12.25-.22-1.21-3.1-2.43-6.19-3.66-9.39.82-.61,1.67-1.12,2.61-1.66.75,1.64,1.42,3.31,2.11,5.06,4.94-3.53,10.69-3.72,16.76-4.31-.67,1-1.14,1.72-1.76,2.49-2.52-1.3-4.55-.58-6.31,1.16-2.3-1.7-3.54-1.79-5.08-.59-1.78,1.38-3.57,6.8-2.75,9.16.55-.5,1.13-1.04,1.77-1.48.58,1.23,1.1,2.36,1.56,3.57-.87.42-1.67.76-2.77,1.23,1.64.63,3.01,1.16,4.38,1.69.41.85.83,1.69,1.2,2.56.08.19-.06.48-.2.73-.72-.85-1.2-1.88-2-2.52-.64-.51-1.65-.56-2.62-.9-.39-.17-.66-.34-.93-.32-1.07.06-2.15.17-3.22.26Z"/>
  <path class="st18" d="M182.99,302.96c.13-1.14.36-2.19.48-3.26.12-1.04.65-1.28,1.65-.98-.3.2-.67.33-1.16.5,4.97,5.74,10.35,10.87,16.45,15.4,5.64-4.25,10.65-9.13,15.37-14.45.18.45.28.95.38,1.55-3.87,3.84-7.73,7.59-11.62,11.31-.87.83-1.87,1.54-3.13,2.58,4.27,2.49,8.34,4.87,12.59,7.35-.33.73-.75,1.64-1.29,2.82-3.01-1.68-5.95-3.27-8.82-4.95-1.44-.84-2.82-1.8-4.17-2.8-.67-.49-1.09-.42-1.78-.01-3.69,2.19-7.42,4.3-11.15,6.43-.19.11-.41.15-.67.24-.17-.35-.31-.67-.43-.93,4.04-2.33,8.02-4.62,12.2-7.02-5.53-4.24-10.38-8.77-14.89-13.8Z"/>
  <path class="st31" d="M160.14,261.24c-.59.53-1.17,1.07-1.72,1.57-.82-2.35.97-7.78,2.75-9.16,1.54-1.2,2.78-1.11,5.08.59,1.76-1.74,3.79-2.46,6.25-1.08,3.02,2.88,3.97,6.46,3.78,10.49-.27-.44-.5-.91-.83-1.31-.59-.73-1.14-1.54-1.88-2.1-1.03-.79-1.79-.39-2.04.87-.16.84-.34,1.68-.61,2.49-1.18,3.57-3.25,4.74-7.46,4.21-1.49-.53-2.86-1.06-4.5-1.69,1.1-.47,1.9-.81,2.87-1.24.64-.48,1.3-.79,1.57-1.3.31-.57.57-1.48.32-1.96-.29-.55-1.15-1-1.81-1.09-.56-.07-1.19.44-1.79.69M166.2,263.65q-1.05,1.06-.33,1.75c2.4-1.66,2.81-3.56,1.48-6.56.3-.25.65-.43.86-.72,1.38-1.97,2.21-2.01,3.94-.26.26.26.79.24,1.19.35-.67-1.65-1.6-2.72-3.17-2.76-1.8-.05-2.61,1.33-3.29,2.66-1.87-.86.39-2-.48-3.14-.59.51-1.16,1-1.84,1.59-1.55-.46-3.11-.23-4.36,1.24-.55.64-.44,1.02.35,1.24,1.52-1.46,2.16-1.76,3.27-1.45,2.59.74,4.11,3.93,2.38,6.05Z"/>
  <path class="st8" d="M165.87,279.41c-.38-2.34-.76-4.68-1.17-7.13.14-.26.3-.4.52-.6,1.3,2.29,2.55,4.51,3.82,6.75,4.97-3.93,10.84-3.96,16.87-4.62-3.28,5.34-7.24,9.13-13.92,9.48,1.76,2.54,3.39,4.89,5.06,7.32-.31.9-.67.45-1.2.2-1.06-.52-2.19-.87-3.46-1.37-2.29-3.4-4.41-6.72-6.54-10.03Z"/>
  <path class="st0" d="M225.88,289.35c-.56.25-1.11.51-1.76.76.23-.61.5-1.24.88-1.81,1.05-1.61,2.14-3.2,3.36-5.02-7.19.14-11.5-3.78-15.04-9.53,6.32.9,12.67.54,17.54,5.46,1.02-1.78,2.06-3.61,3.19-5.5-.01.89-.11,1.84-.26,2.95-.11.22-.15.3-.15.4-.01.04-.03.09-.12.26-.59.98-1.21,1.78-1.56,2.7-.57,1.49-1.28,2.78-2.4,3.99-1.45,1.57-2.46,3.55-3.66,5.35Z"/>
  <path class="st8" d="M150.43,232.1c-1.14-.43-2.25-.98-3.46-1.54-.47-2.56-.84-5.11-1.23-7.65-.04-.25-.17-.51-.31-.72-1.94-2.88-2.72-6.35-2.19-9.43.98-.48,1.93-.8,2.68-1.36,1.09-.81,1.96-.86,2.99.09.55.51,1.35.74,2.27,1.23,0,2.6-.14,5.54-1.56,8.18-.64,1.19-.7,2.26-.48,3.48.45,2.53.87,5.07,1.28,7.72Z"/>
  <path class="st36" d="M246.72,267.31c-.99.11-1.87.19-2.98.3-1.3-.08-2.37-.12-3.43-.31-.32-.06-.57-.49-.85-.75.16-.14.32-.29.56-.49-.56-.28-1.05-.52-1.56-.93.45-1.21.93-2.24,1.4-3.27.39.46.78.92,1.19,1.41.09-.31.18-.59.37-1.04.08-.23.07-.3.05-.37,0,0-.02.02-.02.02,2.43-.86,4.82-1.94,7.32-2.52,2.74-.64,5.58-.82,8.44-1.01-2.42,4.29-5.55,7.62-10.48,8.98Z"/>
  <path class="st4" d="M251.33,230.59c-.44.36-.85.59-1.34.84.33-2.52.76-5.07,1.14-7.62.06-.4.06-1.01-.18-1.23-2.01-1.85-2.28-4.35-2.64-6.81-.16-1.06-.14-2.16-.19-2.98.96-.54,1.81-.9,2.51-1.45.85-.67,1.54-.7,2.44-.08.85.59,1.83,1,3,1.62.18,2.45-.02,5.17-1.24,7.74-.25.52-.54,1.18-1,1.42-1.34.68-1.33,1.88-1.51,3.08-.27,1.79-.62,3.56-.97,5.47Z"/>
  <path class="st36" d="M216.02,289.19c-3.22,1.65-4.66,4.61-5.76,7.94-4.38-2.33-7.36-5.98-10.09-10.33,5.55.24,10.72.85,15.85,2.39Z"/>
  <path class="st36" d="M189.11,297.19c-1.1-3.23-2.58-6.16-5.8-7.95,4.97-1.62,10.16-2.15,15.79-2.47-2.68,4.36-5.69,7.93-9.99,10.42Z"/>
  <path class="st7" d="M232.37,295.84c-.87-2.26-1.8-4.43-3.9-5.99,3.35-1.88,6.98-2.43,10.69-2.82.08-.02.11-.06.13-.11,1.18-.03,2.37-.07,3.66-.13-2.22,4.39-5.59,7.6-10.58,9.05Z"/>
  <path class="st36" d="M156.31,286.97c1.24-.05,2.45,0,3.88.06,3.84.45,7.47.9,10.71,2.79-1.95,1.5-3.05,3.58-3.9,5.93-4.96-1.19-8.19-4.51-10.69-8.78Z"/>
  <path class="st27" d="M241.19,261.87c-.34-1.63-.63-3.27-1.05-4.87-.2-.77-.59-1.53-1.04-2.19-1.64-2.4-3.48-2.59-6.06-.57-1.77-1.71-3.8-2.45-6.25-1.09-.6-.71-1.12-1.44-1.64-2.17.05-.11.1-.23.15-.34,5.93.62,12.04.6,17.14,5,.65-1.69,1.3-3.38,2-5.16.37.07.7.23,1.09.45-.61,1.87-1.31,3.66-1.93,5.49-.24.7-.25,1.47-.46,2.18-.13.44-.45.83-.68,1.24-.34.6-.69,1.2-1.02,1.91.01.1.02.09-.04.07-.11,0-.16.02-.2.04Z"/>
  <path class="st29" d="M252.53,269.94c-.73.2-1.37.36-2,.53-.05-.14-.1-.28-.15-.42,1.24-1.18,3-1.13,4.48-1.75.06.13.13.26.19.39-.81.41-1.61.81-2.52,1.25Z"/>
  <path class="st29" d="M148.08,270.32c-1.37-.52-2.63-1.02-3.9-1.51.06-.17.13-.34.19-.51,1.3.41,2.62.8,3.9,1.25.22.08.32.46.48.7-.19.03-.38.06-.67.07Z"/>
  <path class="st30" d="M251.54,280.97c.07-.09.15-.1.35-.11.12.3.12.6.12,1.16-.23-.47-.34-.71-.47-1.05Z"/>
  <path class="st30" d="M237.15,267.56s.07.1.07.21c-.05-.02-.06-.08-.07-.21Z"/>
  <path class="st0" d="M223.69,290.37c.01.09-.07.16-.24.27,0-.07.07-.18.24-.27Z"/>
  <path class="st0" d="M223.95,290.07c.05.11,0,.19-.12.3-.04-.09,0-.21.12-.3Z"/>
  <path class="st8" d="M150.6,232.41c-.06.03-.12-.03-.19-.16.04,0,.11.04.19.16Z"/>
  <path class="st36" d="M156.16,286.7c.07-.03.12.02.18.14-.05.01-.12-.03-.18-.14Z"/>
  <path class="st6" d="M182.13,238.73c.32-.73.59-1.49.98-2.18,1.02-1.81,2.05-3.61,3.17-5.35.28-.43.94-.84,1.43-.85,1.8-.04,3.9-.46,5.32.31,1.36.73,2.01,2.77,2.97,4.24.39.61.7,1.27,1.14,1.84.81,1.03,1.02,2.05.24,3.26.02.1.03.09-.06.11-.13.2-.16.37-.19.54,0,0,.01-.02-.08,0-.13.2-.16.37-.19.54,0,0,.01-.02-.08,0-.13.2-.16.37-.19.54,0,0,.01-.02-.08,0-.13.2-.16.37-.19.54,0,0,.01-.02-.08,0-.13.2-.16.37-.19.54,0,0,0-.02-.09.03-.13.3-.15.55-.17.79,0,0,.01-.02-.11-.03-.13.19-.15.38-.17.57,0,0,.01-.02-.11-.03-.13.19-.15.38-.17.57,0,0,.01-.02-.11-.03-.13.19-.15.38-.17.57,0,0,.01-.02-.1-.02-.13.19-.15.38-.17.57,0,0,.01-.02.01-.02-3.14.07-6.28.14-9.5.02-1.08-2.49-2.08-4.78-3.08-7.08Z"/>
  <path class="st45" d="M197.4,240.11c1.1-1.88,2.98-1.55,4.71-1.65,1.71-.1,3.41-.2,5.27-.2,1.58,2.05,3.01,3.99,4.43,5.93-.06.41-.02.88-.21,1.22-1.23,2.2-2.48,4.4-3.8,6.54-.26.42-.85.77-1.34.88-1.18.28-2.39.37-3.59.58-1.28.22-2.25,0-3.12-1.16-1.35-1.8-2.94-3.42-4.4-5.14-.27-.32-.41-.75-.63-1.23-.01-.1-.02-.09.06-.1.12-.19.16-.36.2-.54,0,0,0,.01.08,0,.12-.19.16-.36.2-.54,0,0,0,.01.08,0,.12-.19.16-.36.2-.54,0,0,0,.01.08,0,.12-.19.16-.36.2-.54,0,0,0,.01.09-.03.12-.29.15-.54.18-.79,0,0,0,.01.1.02.13-.18.15-.37.17-.57,0,0,0,.01.1.02.13-.18.15-.37.17-.57,0,0,0,.01.1.02.13-.18.15-.37.17-.57,0,0,0,.01.1.02.13-.18.15-.37.17-.57,0,0,0,.01.1.02.13-.18.15-.37.17-.57,0,0-.01.01-.02.02Z"/>
  <path class="st44" d="M207.97,238.2c.33-2.72.65-5.45,1.02-8.17.04-.28.37-.64.65-.74,1.3-.5,2.62-.96,3.97-1.33.32-.09.9.11,1.11.37,1.37,1.73,2.7,3.5,3.97,5.3.25.35.22.91.27,1.56-.31,2.13-.57,4.07-.83,6,.02,1.25-.53,1.94-1.82,2.17-1.05.18-2.04.62-3.08.87-.31.08-.69-.11-1.12-.33-1.44-2.01-2.79-3.86-4.13-5.71Z"/>
  <path class="st6" d="M207.17,217.53c5.73,2.09,6.63,4.16,6.75,9.83-1.43.49-2.87,1.02-4.34,1.45-.36.1-.87-.07-1.24-.26-2.26-1.15-4.52-2.29-6.72-3.56-.67-.39-1.26-1.1-1.64-1.8-.57-1.06-.92-2.24-1.4-3.46,2.65-1.61,5.09-3.65,8.59-2.19Z"/>
  <path class="st6" d="M190.61,219.18c2.11.12,4.22.27,6.33.34.83.03,1.31.34,1.57,1.15.42,1.32,1.55,2.79,1.24,3.87-.31,1.09-2.05,1.73-3.08,2.66-2.29,2.09-4.75,3.28-8.04,2.75-1.52-.25-2.61-.53-3.33-1.92-.39-.76-.94-1.43-1.36-2.28.37-.57.68-1,.98-1.43,0,0,0,0,.1.05.13-.08.15-.2.17-.33,0,0,0,0,.06.1.21-.06.35-.21.48-.37,0,0,0,0,.09,0,.99-.82,1.88-1.64,2.79-2.47.02-.02.1-.11.18-.16.66-.61,1.24-1.17,1.89-1.8.02-.12-.02-.16-.07-.21,0,0-.01.02-.01.02Z"/>
  <path class="st5" d="M200.44,254.49c3.95-1.24,7.79-2.28,11.1,1.78-1.85.83-3.69,1.82-5.64,2.49-3.25,1.12-6.63,1.28-10.02.66-.36-.07-.85-.39-.93-.68-.07-.27.25-.79.54-.99,1.6-1.1,3.24-2.14,4.95-3.26Z"/>
  <path class="st5" d="M184.71,245.83c-.08,2.45-.16,4.9-.24,7.53-3.65-2.14-7.01-9.65-7-15.29,1.34.22,2.64.44,4.1.76,1.15,2.41,2.15,4.7,3.15,7Z"/>
  <path class="st42" d="M188.72,221.22s-.08.09-.17,0c-1,.8-1.91,1.69-2.82,2.58,0,0,0,0-.07-.09-.2.06-.34.21-.48.36,0,0,0,0-.07,0-.12.1-.15.19-.19.28,0,0,0,0-.09-.01-.48.36-.87.73-1.26,1.1-.94.31-1.89.62-2.92.86-.09-.06-.08-.05-.08-.05,2.07-4.03,5.45-6.61,9.48-8.72.19.56.35,1.02.54,1.57.03.09.04.08-.03.05-.1,0-.15.03-.27.1-.58.68-1.07,1.33-1.56,1.98Z"/>
  <path class="st17" d="M219.4,235.2c.04-.82.38-1.28,1.35-1.04.74,4.18.27,8.22-1.34,12.14-.17,0-.35.01-.52.02-.13-1.63-.26-3.25-.33-5.1.31-2.15.58-4.09.84-6.02Z"/>
  <path class="st32" d="M189.06,255.55c1.9,1.07,3.86,1.88,5.4,3.33-3.93-.71-7.27-2.44-10.05-5.2.07-.14.14-.28.2-.42,1.45.75,2.9,1.5,4.44,2.29Z"/>
  <path class="st19" d="M202.96,227.22c1.4.72,2.82,1.43,4.2,2.19.26.14.56.54.54.79-.19,1.7-.47,3.39-.91,5.07-.11-.93-.35-1.87-.3-2.79.1-1.7-.66-2.81-2.02-3.67-.57-.36-1.05-.85-1.58-1.4,0-.12.07-.19.07-.19Z"/>
  <path class="st12" d="M184.78,245.83c-1.07-2.3-2.07-4.6-3.11-6.99.07-.1.18-.1.37-.11,1.08,2.3,2.08,4.6,3.09,6.99-.09.1-.18.1-.35.1Z"/>
  <path class="st12" d="M207.89,238.2c1.43,1.85,2.78,3.7,4.15,5.64-.05.12-.11.18-.19.3-1.45-1.89-2.88-3.83-4.34-5.85.08-.09.18-.09.37-.09Z"/>
  <path class="st19" d="M183.73,227.69c.44.6.83,1.13,1.43,1.97-1.6-.76-2.84-1.35-4.08-1.93l.02-.36c.85.08,1.71.16,2.62.31Z"/>
  <path class="st12" d="M219.29,235.2c-.16,1.94-.42,3.87-.72,5.9-.11.1-.17.1-.34.1.16-1.94.42-3.87.72-5.9.11-.1.17-.1.34-.1Z"/>
  <path class="st40" d="M218.6,246.6c-.85-.55-1.67-1.21-2.68-2.02.73-.19,1.17-.3,1.74-.45.34.83.66,1.6.94,2.47Z"/>
  <path class="st12" d="M183.62,225.46c.33-.4.72-.77,1.2-1.14-.22.43-.52.86-.91,1.34-.12-.03-.17-.11-.3-.2Z"/>
  <path class="st19" d="M202.85,227.33c-.1-.04-.16-.11-.23-.18.07-.01.15-.02.28.02.05.06-.02.12-.05.16Z"/>
  <path class="st40" d="M218.8,246.97c0,.06-.01.08-.04.11-.02-.03-.06-.05-.06-.08s.04-.05.09-.03Z"/>
  <path class="st42" d="M180.54,226.23c0,.05,0,.11,0,.17-.03-.04-.05-.07-.03-.13.05-.02.04-.03.03-.04Z"/>
  <path class="st39" d="M204.7,166.69v6.45h-4.36v-10.28h4.36v3.82Z"/>
  <path class="st38" d="M135.41,162.77c.28.23.54.46.54.69.03,3.21.02,6.41.02,9.71h-4.29v-10.4c1.2,0,2.4,0,3.74,0Z"/>
  <path class="st45" d="M186.06,173.21v1.72h-4.07v-11.77h4.07v10.06Z"/>
  <path class="st43" d="M150.46,238.94c-3.24-2.86-5.8-2.76-8.95.25-.77-.24-.89-.62-.33-1.25,1.64-1.86,3.67-2.56,6.1-2.05.48.1.95.27,1.52.43.35-1.3.95-2.35,2.83-2.19-.25.45-.35.88-.61,1.06-1.06.7-1.19,1.35-.32,2.37.52.62,1.15,1.17,1.59,1.84,1.94,2.98,1.23,6.33-1.75,8.25-.27.17-.73.05-1.11.06.14-.31.2-.73.43-.93,2.96-2.46,3.18-4.87.6-7.84Z"/>
  <path class="st2" d="M159.18,235.06c1,.88,1.92,1.7,2.84,2.53l-.32.58c-.38-.12-.82-.16-1.13-.38-.39-.28-.65-.75-1.02-1.07-2.1-1.8-4.49-1.38-5.96.99-.23.37-.66.62-1.11.81.08-3.19,3.37-4.83,6.69-3.46Z"/>
  <path class="st2" d="M249.78,234.76c.28.52.49.96.76,1.52,3.16-1.1,5.96-.65,8.03,2.31-.13.16-.2.28-.3.36-.14.11-.3.18-.44.27-3.19-2.91-5.84-3.07-8.71-.55-2.76,2.42-2.71,5.69.14,7.97.52.42,1.12.76.27,1.41-3.98-1.8-4.8-6.29-1.77-9.66.33-.37.76-.67,1.01-1.09.49-.79.74-1.58-.45-2.09-.29-.12-.44-.54-.66-.83.1-.13.21-.27.31-.4.58.24,1.16.48,1.81.79Z"/>
  <path class="st15" d="M240.42,234.91c3.14-1.09,5.46.08,6.68,3.34-.5.43-.85.59-1.29-.19-1.76-3.09-4.48-3.28-6.86-.53-.43.49-.77,1.29-1.7.02,1.01-.86,2.04-1.73,3.17-2.65Z"/>
  <path class="st14" d="M239.12,287.02c-3.67.39-7.3.95-10.7,2.75-.82-.05-1.58-.18-2.44-.36,1.11-1.85,2.12-3.83,3.56-5.4,1.12-1.22,1.83-2.5,2.4-3.99.35-.91.98-1.72,1.56-2.63.08,1.06.08,2.17.08,3.44.67-.92,1.17-1.76,1.82-2.45.98-1.05,2.1-1.2,3.02-.56.91.63,1.38,2.08.64,3.14-.74,1.06-1.85,1.88-2.87,2.71-.47.38-1.12.53-2.04.94,1.64.75,3.01,1.37,4.52,2.04.19.12.26.15.35.13,0,0,0,.07.02.12.01.05.08.12.08.12Z"/>
  <path class="st33" d="M242.68,275.3c1.03,2.3,1.36,4.61-.08,6.87-.35.55-.84,1.02-1.26,1.53-.17-.06-.35-.12-.52-.17.09-.41.06-.92.29-1.22,1.8-2.33,1.65-5.58-.41-7.68-1.49-1.51-2.88-1.42-4.24.22-.23.27-.68.36-1.02.53.03-.39-.07-.85.11-1.15,1.03-1.67,2.32-2.08,4.38-1.61.66-.7,1.25-1.33,1.84-1.95.13.08.25.17.38.25.17,1.11-1.7,2.33.13,3.43.34-.59.63-1.19,1-1.73.68-1,1.58-1.63,2.87-1.31,1.02.25,2.58,1.82,2.67,2.7.02.18-.08.5-.21.55-.21.08-.58.08-.71-.05-.28-.28-.43-.69-.67-1.01-1.17-1.57-2.44-1.45-3.33.28-.23.45-.54.86-.95,1.26-.18.06-.22.16-.26.25Z"/>
  <path class="st33" d="M232.49,258.18c1.34-.91.2-1.92-.14-2.89.16-.09.31-.18.47-.27.6.47,1.2.95,1.95,1.54,1.84-.53,3.56-.07,5.01,2.32-.72-.12-1.23-.05-1.48-.27-1.63-1.47-3.19-1.45-4.74.13-1.6,1.63-1.7,3.66-.23,5.19.46.48,1.18.89.15,1.5-2.44-1.53-2.97-3.73-1.44-6.55.23-.31.34-.51.45-.7Z"/>
  <path class="st26" d="M239.82,261.76c-.44,1.12-.91,2.15-1.42,3.28-.84-.34-1.83-.63-2.38-1.28-.44-.53-.72-1.76-.41-2.23.39-.58,1.47-.95,2.25-.94.65,0,1.28.7,1.97,1.17Z"/>
  <path class="st13" d="M232.41,258.13c-.02.25-.13.44-.3.67-.41-.25-.86-.48-1.1-.84-1.14-1.7-2.32-1.8-3.71-.26q-.66.73-1.44.16c.7-1.37,1.72-2.39,3.33-2.39,1.67,0,2.53,1.21,3.23,2.66Z"/>
  <path class="st16" d="M239.39,266.57c.36.24.61.67.93.73,1.05.18,2.13.23,3.31.34-.56.61-1.23,1.2-1.83,1.73-.92-.54-1.82-1.07-2.86-1.65-.24-.18-.35-.31-.45-.43.28-.23.55-.47.91-.73Z"/>
  <path class="st30" d="M238.49,267.38c.09.04.2.16.34.36-.08-.04-.21-.16-.34-.36Z"/>
  <path class="st22" d="M241.21,261.94c.02-.09.07-.11.19-.12.09.09.1.16.06.32-.11.02-.17-.06-.25-.2Z"/>
  <path class="st30" d="M239.15,287.02s-.1-.07-.08-.12c.02-.04.12-.03.17,0,.03.07,0,.1-.09.12Z"/>
  <path class="st30" d="M238.97,286.74c-.05.05-.12.03-.21-.09.04-.03.11,0,.21.09Z"/>
  <path class="st30" d="M233.68,277.02c-.05-.05-.02-.13.1-.24.05.05.01.13-.1.24Z"/>
  <path class="st43" d="M221.61,296.94c2.04-1.1,1.5-2.58.28-4.2,1.67-.03,2.2.84,2.47,1.93,3.44-.81,5.28-.14,6.71,2.66-.6-.1-1.15-.04-1.29-.25-1.65-2.5-4.8-1.9-6.57-.02-2.15,2.28-2.16,5.06.07,7.18.5.47.99.86.14,1.42-3.14-1.79-3.79-4.91-1.79-8.63,0-.09-.02-.08-.02-.08Z"/>
  <path class="st43" d="M221.62,296.93c-.44-.24-1.09-.37-1.31-.74-1.45-2.49-3.45-2.66-5.24-.36-.41.52-.71,1.31-1.51.43.93-2.13,2.65-3.32,4.53-3.15,1.67.16,3.03,1.58,3.5,3.73.01.1.02.09.03.09Z"/>
  <path class="st25" d="M170.98,289.82c-3.33-1.88-6.95-2.33-10.7-2.77,1-.56,2.13-1.11,3.25-1.68.43-.22.83-.51,1.36-.83-.87-.41-1.69-.64-2.3-1.13-.9-.72-1.81-1.52-2.4-2.48-.7-1.13-.26-2.5.72-3.13,1.13-.71,2.14-.3,2.93.53.7.74,1.21,1.66,1.88,2.6.04-.47.08-.89.14-1.41,2.14,3.21,4.26,6.52,6.43,9.91-.37.17-.79.28-1.3.39Z"/>
  <path class="st15" d="M176.09,305.59c-.91-.24-.97-.65-.29-1.17,3.03-2.28,2.15-6.58-1.17-8.44-1.75-.98-3.53-.63-4.91.83-.28.3-.77.4-1.23.44.88-2.62,2.92-3.38,6.43-2.6.26-1.12.84-1.94,2.39-1.95-.17.46-.19.96-.43,1.1-1.22.7-.69,1.48-.17,2.26.5.75,1.14,1.43,1.52,2.23,1.3,2.7.54,5.27-2.14,7.31Z"/>
  <path class="st43" d="M184.63,296.44c-.34-.44-.59-.82-.9-1.14-1.6-1.64-3.41-1.4-4.57.57-.11.19-.15.47-.31.59-.24.18-.56.26-.85.39-.06-.27-.23-.57-.17-.81.64-2.59,3.63-3.8,5.8-2.27.85.6,1.49,1.5,2.51,2.56-.78.1-1.12.15-1.52.11Z"/>
  <path class="st43" d="M156.65,275.19c-.36-.32-.74-.62-1.09-.95-.61-.6-1.14-1.6-1.82-1.7-.57-.09-1.29.86-1.96,1.33-.37.26-.78.47-1.18.71.07-.43.03-.93.24-1.29.66-1.13,1.52-2.11,2.97-2.03,1.46.08,2.18,1.15,2.73,2.35.15.32.29.64.45.98,1.52-1.16.31-2.44.12-3.66l.41-.23c.57.6,1.13,1.2,1.79,1.9,2.66-.37,3.73.14,5,2.88-.67-.21-1.17-.21-1.39-.46-1.71-1.94-3.13-1.93-4.75.09-1.74,2.17-1.71,4.98.01,7.25.22.29.2.78.36,1.47-2.86-1.48-3.53-5.57-1.89-8.56.03-.1.01-.08,0-.06Z"/>
  <path class="st16" d="M155.65,267.69c1.01-.15,2.09-.26,3.16-.32.27-.01.54.15.84.33-.63.64-1.29,1.17-2.03,1.77-.61-.55-1.26-1.13-1.97-1.78Z"/>
  <path class="st26" d="M160.19,261.33c.55-.34,1.18-.85,1.73-.78.66.09,1.52.54,1.81,1.09.25.47-.01,1.39-.32,1.96-.28.51-.93.82-1.51,1.22-.62-1.13-1.14-2.26-1.72-3.49Z"/>
  <path class="st22" d="M156.46,260.95c0,.06-.04.15-.11.19-.03-.06.06-.15.11-.19Z"/>
  <path class="st24" d="M166.27,263.57c1.66-2.04.14-5.23-2.44-5.97-1.11-.32-1.75-.02-3.27,1.45-.79-.22-.9-.6-.35-1.24,1.25-1.46,2.8-1.69,4.36-1.24.68-.59,1.25-1.08,1.84-1.59.88,1.14-1.39,2.28.48,3.14.68-1.33,1.49-2.71,3.29-2.66,1.57.04,2.5,1.11,3.17,2.76-.4-.11-.94-.1-1.19-.35-1.74-1.75-2.56-1.71-3.94.26-.2.29-.56.47-.86.72,1.34,3,.92,4.9-1.48,6.56q-.72-.69.4-1.83Z"/>
  <path class="st0" d="M195.96,242.85c.07.2.04.45-.08.75-.07-.2-.05-.46.08-.75Z"/>
  <path class="st0" d="M197.33,240.11c.07.17.05.36-.08.55-.08-.18-.04-.35.08-.55Z"/>
  <path class="st0" d="M197.06,240.65c.07.17.05.36-.08.55-.08-.18-.04-.35.08-.55Z"/>
  <path class="st0" d="M196.79,241.2c.07.17.05.36-.08.55-.08-.18-.04-.35.08-.55Z"/>
  <path class="st0" d="M196.52,241.74c.07.17.05.36-.08.55-.08-.18-.04-.35.08-.55Z"/>
  <path class="st0" d="M196.24,242.29c.07.17.05.36-.08.55-.08-.18-.04-.35.08-.55Z"/>
  <path class="st0" d="M195.68,243.62c.08.18.04.35-.08.55-.07-.17-.05-.36.08-.55Z"/>
  <path class="st0" d="M195.41,244.16c.08.18.04.35-.08.55-.07-.17-.05-.36.08-.55Z"/>
  <path class="st0" d="M195.14,244.71c.08.18.04.35-.08.55-.07-.17-.05-.36.08-.55Z"/>
  <path class="st0" d="M194.86,245.25c.08.18.04.35-.08.55-.07-.17-.05-.36.08-.55Z"/>
  <path class="st12" d="M185.82,223.8c.82-.89,1.73-1.78,2.7-2.56-.83.93-1.72,1.74-2.7,2.56Z"/>
  <path class="st12" d="M188.8,221.17c.41-.6.9-1.25,1.51-1.88.17.08.24.12.31.15-.58.56-1.16,1.12-1.83,1.73Z"/>
  <path class="st12" d="M185.25,224.16c.07-.24.21-.39.42-.45-.07.24-.21.39-.42.45Z"/>
  <path class="st0" d="M190.69,219.37c-.14.04-.2,0-.29-.12,0-.08.05-.11.16-.12.11.07.15.12.13.24Z"/>
  <path class="st12" d="M185.02,224.39c-.07-.14-.03-.23.09-.33.06.12.04.25-.09.33Z"/>
  <path class="st31" d="M242.74,275.25s.03-.14.12-.2c0,.08-.03.11-.12.2Z"/>
  <path class="st30" d="M156.65,275.19s.04-.04.02-.04c-.04.02-.03.03-.02.04Z"/>
</svg>