<?xml version="1.0" standalone="no"?>
<!DOCTYPE svg PUBLIC "-//W3C//DTD SVG 20010904//EN"
 "http://www.w3.org/TR/2001/REC-SVG-20010904/DTD/svg10.dtd">
<svg version="1.0" xmlns="http://www.w3.org/2000/svg"
 width="2400.000000pt" height="2000.000000pt" viewBox="0 0 2400.000000 2000.000000"
 preserveAspectRatio="xMidYMid meet">

<g transform="translate(0.000000,2000.000000) scale(0.100000,-0.100000)"
fill="#000000" stroke="none">
<path d="M7166 18625 c-487 -80 -839 -418 -953 -917 -23 -100 -23 -355 0 -454
24 -104 72 -229 116 -303 69 -115 61 -112 111 -35 86 133 207 230 352 282 65
23 88 26 208 27 112 0 149 -4 214 -23 188 -54 365 -181 426 -305 l30 -62 -2
-1538 -3 -1539 -120 -34 c-568 -164 -1032 -531 -1270 -1005 -203 -402 -241
-912 -100 -1336 142 -428 471 -737 949 -892 122 -40 276 -74 276 -62 0 4 -18
25 -41 46 -92 90 -184 262 -226 424 -33 130 -41 327 -19 463 57 347 235 617
519 787 l37 23 -2 -2174 -3 -2173 -25 -49 c-28 -55 -107 -139 -172 -184 -203
-139 -470 -183 -684 -112 -130 43 -269 158 -353 292 l-36 57 -37 -57 c-176
-272 -214 -618 -103 -949 141 -422 484 -709 924 -774 133 -19 371 -7 514 25
222 51 475 153 672 271 l80 48 55 -32 c298 -170 587 -278 837 -311 144 -20
384 -8 506 23 193 51 351 137 491 268 357 333 472 878 275 1299 -41 88 -96
180 -108 180 -3 0 -24 -28 -46 -63 -85 -133 -238 -250 -375 -287 -118 -32
-283 -30 -410 6 -71 21 -198 84 -261 130 -62 45 -124 116 -158 179 l-26 50 -3
1998 c-1 1098 1 1997 6 1997 4 0 59 -39 122 -86 575 -431 1098 -1086 1470
-1839 204 -414 335 -792 385 -1110 14 -89 15 -380 13 -2690 l-3 -2590 -24 -85
c-102 -364 -362 -652 -650 -720 -80 -19 -205 -15 -273 9 -111 38 -220 130
-289 241 l-32 52 -23 -29 c-39 -49 -102 -175 -133 -268 -97 -294 -48 -632 129
-896 59 -87 189 -215 279 -274 435 -286 1035 -236 1703 141 l96 54 99 -57
c295 -170 616 -283 892 -313 618 -68 1127 272 1243 830 29 138 22 348 -16 475
-31 103 -90 230 -136 294 l-32 43 -35 -53 c-174 -268 -451 -323 -745 -149 -90
54 -230 188 -296 283 -106 154 -171 320 -192 487 -8 70 -10 757 -8 2615 l3
2520 22 111 c49 244 123 485 226 734 71 174 107 250 116 250 9 0 1561 -1904
1575 -1932 24 -49 -63 -187 -166 -264 -72 -53 -220 -126 -291 -143 -322 -77
-612 34 -770 295 -17 29 -35 54 -40 54 -13 0 -86 -122 -118 -199 -77 -185
-103 -386 -75 -579 41 -276 157 -505 350 -690 148 -141 297 -224 505 -280 89
-24 112 -26 306 -26 182 -1 223 2 309 22 221 49 493 158 691 277 l80 47 40
-22 c319 -179 569 -276 815 -315 123 -19 343 -19 456 0 515 90 889 501 945
1038 24 230 -37 491 -156 672 -20 30 -40 55 -43 55 -4 0 -21 -24 -39 -53 -185
-304 -556 -405 -901 -246 -156 72 -264 167 -316 279 l-21 45 -3 2173 -2 2173
22 -6 c54 -16 187 -106 263 -177 161 -152 270 -351 321 -590 26 -116 26 -361
1 -478 -37 -169 -120 -338 -222 -448 -30 -33 -55 -62 -55 -65 0 -10 162 27
276 64 345 112 633 320 799 578 256 397 306 948 133 1450 -211 613 -781 1083
-1511 1245 l-27 6 2 1533 3 1532 25 49 c74 150 286 291 497 332 287 55 548
-55 709 -297 l46 -70 25 33 c42 57 121 229 143 313 90 348 11 715 -217 1012
-159 208 -391 349 -673 410 -135 29 -388 24 -550 -10 -220 -46 -493 -155 -714
-284 l-68 -41 -75 44 c-646 383 -1284 414 -1721 84 -368 -277 -541 -778 -421
-1220 22 -82 102 -256 142 -308 l24 -32 43 64 c51 79 167 191 241 233 105 60
179 78 324 78 105 0 145 -5 209 -23 186 -54 364 -180 425 -304 l31 -61 0
-1719 0 -1719 -31 -17 c-308 -169 -624 -382 -859 -580 -218 -183 -530 -494
-661 -659 -19 -23 -36 -42 -39 -42 -4 0 -3523 4264 -3834 4645 l-69 84 18 47
c25 65 135 177 231 235 171 102 385 142 560 103 164 -36 331 -155 419 -299 22
-36 42 -65 46 -66 13 0 105 168 135 248 49 132 66 228 66 377 1 505 -303 939
-766 1097 -287 97 -603 87 -951 -32 -123 -42 -346 -145 -469 -217 l-68 -41
-75 44 c-229 136 -487 238 -720 285 -133 26 -369 33 -487 14z m3607 -5897
l1539 -1891 -38 -81 c-88 -192 -174 -390 -219 -503 -27 -68 -51 -123 -55 -123
-3 0 -34 71 -69 158 -348 864 -824 1606 -1406 2187 -376 376 -746 651 -1237
919 l-68 37 0 594 c0 327 3 595 8 594 4 0 699 -851 1545 -1891z m3947 -1743
c0 -443 -2 -805 -4 -805 -3 0 -174 205 -381 456 l-376 455 37 42 c138 153 235
253 345 353 125 113 357 303 372 304 4 0 7 -362 7 -805z"/>
<path d="M18160 8095 l0 -34 58 -3 57 -3 3 -167 2 -168 40 0 40 0 0 170 0 170
60 0 60 0 0 35 0 35 -160 0 -160 0 0 -35z"/>
<path d="M18560 7925 l0 -205 40 0 40 0 0 152 c0 83 3 148 7 144 4 -4 30 -71
58 -149 l50 -142 40 0 40 0 55 150 55 150 5 -150 5 -150 40 0 40 0 3 203 2
202 -72 0 -73 0 -44 -123 c-24 -67 -48 -126 -52 -130 -7 -9 -13 7 -73 176
l-28 77 -69 0 -69 0 0 -205z"/>
</g>
</svg>
