<?xml version="1.0" encoding="UTF-8"?>
<svg id="Camada_1" xmlns="http://www.w3.org/2000/svg" version="1.1" viewBox="0 0 1000 1000">
  <!-- Generator: Adobe Illustrator 29.1.0, SVG Export Plug-In . SVG Version: 2.1.0 Build 142)  -->
  <defs>
    <style>
      .st0 {
        fill: #1e325c;
      }

      .st1 {
        fill: #fff;
      }

      .st2 {
        fill: #e73e2a;
      }

      .st3 {
        fill: #fbbb34;
      }

      .st4 {
        fill: #0a7ec2;
      }
    </style>
  </defs>
  <path class="st2" d="M813.46,335.03l-1.33,4.54c-.72,2.44-1.39,4.88-2.11,7.26-.72,2.38-1.66,5.54-2.44,8.2-.78,2.66-1.61,5.1-2.38,7.65l-1.33,4.21c60.84-11.08,120.76-20.8,179.76-29.15-56.62-4.32-113.44-5.22-170.17-2.72ZM239.12,469.96l-2.44-4.82c-75.46,31.54-148.16,69.33-217.32,112.98,68.67-24.86,139.6-48.63,212.78-71.31,4.21-8.64,8.37-17.34,12.63-25.99l-4.21-7.98c-.5-.94-.94-1.94-1.44-2.88ZM490.36,525.37c-3.49-7.2-5.54-10.03-8.98-17.23l-5.54,15.13-24.49,19.5-9.59,4.43.44,3.55c19.06-.13,38.06-2.24,56.69-6.32,0-7.2,0-14.79-.44-22.55l-8.09,3.49ZM547.71,497l-4.77,4.99-30.53,13.41c.33,8.76.55,17.18.55,25.27,18.51-4.65,34.8-9.53,49.32-14.63,1.23-11.08,3.38-22.03,6.43-32.75-4.58,1.66-9.29,2.96-14.07,3.88-2.31.26-4.64.2-6.93-.17ZM452.79,364.35l15.07-15.9,11.86-2.66c-3.55-23.16-7.15-44.33-10.2-60.95-51.67,7.5-102.22,21.35-150.5,41.23l1.55,3.27c8.58,17.38,18.53,34.06,29.76,49.87,4.29-1.44,8.61-2.77,12.97-3.99,14.78-3.92,29.42-7.74,43.94-11.47,13.52-3.55,34.96-10.58,45.55.61ZM561.73,541.66c-14.57,4.93-30.75,9.59-48.93,14.13,0,6.15,0,41.67-10.03,61.89,28.24-7.97,54.92-20.68,78.91-37.57-12.74-6.15-19.39-22.11-19.95-38.73v.28ZM544.38,332.04l-5.54,14.19-.55,1.44,16.62-17.73c17.01-3.32,33.97-6.43,50.98-9.48l-2.83,8.53c8.33-6.69,18.33-10.96,28.92-12.36h1.44c2.63-10.75,4.59-21.65,5.87-32.64l-8.64-1.88c-23.04-2.48-46.2-3.7-69.38-3.66-25.93-.01-51.83,1.52-77.58,4.6,3.05,16.62,6.54,37.01,10.03,59.68,16.85-3.71,33.58-7.26,50.65-10.69ZM401.14,566.6c5.98,7.39,12.14,14.78,18.45,22.16,5.85-6.46,9.03-14.89,8.92-23.61-6.76,0-14.07-.55-21.72-1.22l-5.65,2.66ZM306.11,331.76c-6.7,2.88-13.35,5.93-19.95,9.03,5.98,21.11,13.02,41.72,20.95,61.84h.33l2.55-2.27.61-.44c2.22-1.72,4.49-3.27,6.82-4.82h.44l3.1-1.94.5-.33c2.38-1.44,4.82-2.77,7.26-4.05h.5l3.16-1.61.66-.33,3.66-1.72c-10.93-15.46-20.62-31.77-28.98-48.76l-1.61-4.6ZM429.13,598.9c3.16,3.49,6.37,6.87,9.64,10.31l1.05,1.11c5.15,5.54,10.42,10.64,15.74,15.85,8.2-.78,16.62-1.88,24.27-3.32,1.95-1.74,3.8-3.59,5.54-5.54.15-.3.36-.56.61-.78,8.09-8.26,12.08-29.31,13.08-57.85-18.47,3.89-37.26,5.98-56.13,6.26.37,12.81-4.75,25.17-14.07,33.97h.28ZM654.65,287.66c-.72,8.73-1.96,17.41-3.71,25.99,10.58-1.66,21.17-3.21,31.75-4.77l-13.13,52.36-21.11,22.16,17.95-5.54c-5.65,22.5-11.19,44.66-17.29,66.83l-22.94,24.1c-9.64,3.99-25.6,11.64-40.95,18.06-3.65,11.01-6.5,22.27-8.53,33.69,52.53-21.11,79.46-47.99,108.66-94.2,10.06-43.34,8.97-88.52-3.16-131.33-9.12-2.55-18.3-5.01-27.54-7.37ZM575.25,536.51c-.33,32.42,19.84,31.03,23.11,30.53,30.82-25.64,55.33-58.02,71.65-94.64-24.44,28.7-52.14,48.04-94.75,64.11Z"/>
  <path class="st3" d="M517.95,679.8c-19.42-14.34-37.93-29.89-55.41-46.55h0l-7.43-7.09c-5.54-5.21-10.58-10.47-15.74-15.85l-1.05-1.11c-3.27-3.44-6.48-6.82-9.64-10.31-3.16-3.49-6.21-6.93-9.09-10.14-6.32-7.39-12.47-14.78-18.45-22.16l-3.77,1.77-16.62,7.81c36.68,42.6,78.85,80.14,125.4,111.65,3.93-2.55,7.81-5.15,11.69-7.76h0l.11-.28ZM507.26,268.98c-89.26,2.37-177.02,23.54-257.55,62.12,9.13,32.23,20.69,63.72,34.58,94.2l9.48-9.92c.94-1.11,1.94-2.11,2.94-3.16.21-.16.4-.34.55-.55l2.6-2.55.5-.44c2.05-1.99,4.16-3.82,6.32-5.54h0c-7.92-20.11-14.96-40.73-20.95-61.84,6.59-3.1,13.24-6.15,19.95-9.03l13.19-5.54c48.28-19.88,98.83-33.73,150.5-41.23,4.77-.72,9.48-1.33,14.24-1.94,25.74-3.08,51.65-4.61,77.58-4.6,23.18-.02,46.33,1.22,69.38,3.71-40.54-8.63-81.84-13.21-123.29-13.69Z"/>
  <path class="st0" d="M353.66,421.92c-20.61,43.63-40.47,87.55-59.57,131.77,13.19-6.04,26.32-11.97,39.51-17.84,17.69-41.85,35.98-83.43,54.86-124.73-11.69,3.55-23.27,7.2-34.8,10.81ZM501.55,221.05c-120.35,0-213.56,29.76-319.78,84.45l7.15,28.76c11.56,46.98,28.41,92.51,50.2,135.7.5.94.94,1.94,1.44,2.88,1.39,2.66,2.77,5.54,4.21,7.98-4.27,8.64-8.42,17.34-12.63,25.99-15.33,31.99-30.22,64.19-44.66,96.58-7.15,16.29-22.66,44.88.83,55.08,21.56,5.54,42.28-8.87,60.95-18.34l10.03-5.04,13.08-6.65,2.33-1.16c8.15-4.1,16.24-8.15,24.38-12.14,5.54-2.72,16.12-7.92,29.59-14.35,2.83,3.21,5.54,6.37,8.7,9.53l1.16,1.27c2.77,2.99,5.54,5.93,8.37,8.87l.5.44c45.91,46.74,97.73,87.27,154.15,120.58,126.06-75.58,210.12-164.46,265.98-281.71.94-1.88,1.83-3.82,2.72-5.54,1.61-3.49,3.16-6.98,4.77-10.53l.5-1.11c.94-2.22,1.94-4.43,2.88-6.7.33-.66.61-1.39.89-2.11,9.64-22.55,18.29-46.21,26.1-70.93.78-2.55,1.55-5.1,2.38-7.65s1.61-5.54,2.44-8.2,1.39-4.82,2.11-7.26c3.14-11.08,6.17-22.44,9.09-34.08-106.28-54.91-199.43-84.61-319.84-84.61ZM318.53,583.22c-16.62,8.31-33.25,16.62-49.87,25.1-15.24,7.76-36.85,22.16-54.14,17.79-15.68-6.76-1-33.25,3.82-43.72,18.47-41.34,37.61-82.29,57.41-122.85,6.4-13.94,14.59-26.98,24.38-38.79,17.84-19.73,40.12-30.42,65.11-37.24,14.59-3.92,29.16-7.74,43.72-11.47,10.75-2.66,35.41-11.58,40.12,2.99,2.38,11.08-4.99,23.44-9.2,33.25-11.3,26.56-22.39,53.2-33.25,79.9-4.76,12.56-10.45,24.74-17.01,36.46-17.01,27.48-42.72,44.61-71.09,58.57ZM459.33,390.11c4.77-11.47,9.7-23,14.57-34.08,18.84-4.27,37.79-8.42,56.74-12.3-8.53,22.16-16.97,44.33-25.32,66.49,17.84-24.27,35.93-48.28,54.25-72.04,11.08-2.22,22.35-4.34,33.8-6.37-2.88,8.92-5.54,17.79-8.76,26.71l-11.69,2.72c-13.85,20.21-27.58,40.64-41.17,61.29,7.65,16.99,15.22,34.02,22.72,51.09-12.3,5.54-24.55,10.75-36.85,16.24-7.94-16.25-15.94-32.45-23.99-48.6-8.83,23.68-17.53,47.41-26.1,71.2-18.95,8.75-37.92,17.57-56.91,26.43,5.54-14.74,11.53-29.42,17.4-44.33,14.19-36.13,28.68-72.18,43.5-108.16l-12.19,3.71ZM627.5,349.38c-7.39,25.86-14.94,51.72-22.66,77.58,5.98-2.22,11.91-4.43,17.95-6.59,1.99-7.2,3.99-14.46,6.04-21.67,8.64-2.84,17.25-5.58,25.82-8.2-4.1,16.03-8.24,32.05-12.41,48.04-16.44,6.76-32.82,13.61-49.15,20.56-5.05,2.46-10.37,4.32-15.85,5.54-16.12,1.33-11.08-17.01-7.76-27.04l24.44-76.47c2.31-8.58,6.51-16.53,12.3-23.27,7.31-7.05,16.73-11.5,26.82-12.69,12.8-2.11,25.66-4.1,38.46-5.98-2.94,11.64-5.54,23.33-8.81,34.96l-23.22,5.54c1.27-4.49,2.49-9.03,3.77-13.58l-15.74,3.27ZM568.99,493.45c-3.05,10.72-5.2,21.67-6.43,32.75-14.52,5.1-30.81,9.97-49.32,14.63,0-8.09,0-16.62-.55-25.27l30.53-13.41,4.77-4.99c2.3.31,4.63.31,6.93,0,4.69-.93,9.31-2.23,13.8-3.88l.28.17ZM498.89,544.43c-18.61,4.17-37.61,6.38-56.69,6.59l-.44-3.55,9.59-4.43,24.55-19.73,5.54-15.13c3.55,7.2,5.54,10.03,8.98,17.23l8.09-3.55c.22,7.48.39,15.07.39,22.55ZM501.55,717.93c-57.05-34.55-108.9-77.03-153.99-126.17l33.25-15.85,16.62-7.81,9.42-4.43c7.65.66,14.96,1.05,21.72,1.22.17,8.82-3.04,17.36-8.98,23.88,3.05,3.49,6.15,6.98,9.25,10.42,9.33-8.79,14.45-21.15,14.07-33.97,18.73-.23,37.4-2.25,55.74-6.04-1,28.54-4.99,49.87-13.08,57.85-.25.22-.46.48-.61.78-1.74,1.95-3.59,3.8-5.54,5.54,7.87-1.44,15.57-3.27,23.22-5.54,9.86-20.61,9.97-56.13,10.14-62.28,18.17-4.54,34.36-9.2,48.93-14.13.55,16.62,7.2,32.58,19.95,38.46,5.54-4.05,11.08-8.37,16.62-12.8-3.27.5-23.44,1.88-23.11-30.53,42.61-16.07,70.32-35.41,94.75-64.33,6.52-14.69,11.66-29.96,15.35-45.6-29.2,46.05-56.13,72.92-108.66,94.2,2.03-11.42,4.88-22.68,8.53-33.69,15.35-6.43,31.31-14.07,40.95-18.06l23-24.33c6.1-22.16,11.64-44.33,17.18-66.83l-17.95,5.54,21.11-22.16,13.47-52.36c-10.58,1.55-21.17,3.1-31.75,4.77,1.75-8.58,2.99-17.26,3.71-25.99h0c-3.38-.89-6.82-1.66-10.2-2.49l-2.05-.44-3.1-.72h0c-1.29,10.91-3.26,21.74-5.87,32.42h-1.44c-10.59,1.39-20.6,5.67-28.92,12.36l2.83-8.53c-17.01,3.05-33.97,6.15-50.98,9.48l-16.62,17.73.55-1.44,5.54-14.19c-16.62,3.44-33.25,6.98-50.31,10.64-3.49-22.66-6.98-43.11-10.03-59.68-4.77.61-9.48,1.22-14.24,1.94,3.05,16.62,6.65,37.68,10.2,60.95l-11.86,2.66-15.57,16.01c-10.58-11.08-32.03-4.16-45.55-.72-14.78,3.69-29.42,7.52-43.94,11.47-4.36,1.22-8.68,2.55-12.97,3.99-11.22-15.81-21.17-32.49-29.76-49.87l-1.55-3.27-13.19,5.54,1.88,3.88c8.36,16.99,18.05,33.3,28.98,48.76l-3.66,1.72-.66.33-3.16,1.61h-.5c-2.44,1.27-4.88,2.6-7.26,4.05l-.5.33-3.1,1.94-.66.72c-2.33,1.55-4.6,3.1-6.82,4.82l-.39.72-2.83,2.27-.5.39c-2.16,1.77-4.27,3.6-6.32,5.54l-.5.44-2.6,2.44c-.16.21-.34.4-.55.55-1,1.05-1.99,2.05-2.94,3.16l-9.48,9.92-13.47,14.07c-5.18,6.03-9.85,12.48-13.96,19.28-13.13-26.42-24.44-53.71-33.86-81.68-6.58-19.47-12.45-39.64-17.62-60.51,98.24-48.87,185.24-74.92,296.17-74.86s197.99,25.99,296.01,74.86c-48.15,181.03-135.92,302.66-296.01,401.4v.28Z"/>
  <path class="st1" d="M982.97,380.19c-62.03,5.07-123.66,14.14-184.52,27.15,4.16-11.08,8.03-22.16,11.75-33.25,59.11-10.68,117.31-20.08,174.6-28.2,11.8-1.22,11.8-15.4-.55-16.24-53.2-4.04-106.59-5.11-159.92-3.21,2.22-8.37,4.38-16.62,6.43-25.21-110.44-56.96-203.8-88.38-329.2-88.38s-218.82,31.42-329.26,88.33l8.7,35.08c10.5,42.98,25.35,84.77,44.33,124.73-73.05,31-143.47,67.88-210.56,110.27-18.17,10.75-8.59,21.28,7.2,14.63,62.8-22.9,127.63-44.79,194.49-65.66-12.41,26.49-24.57,53.03-36.46,79.63-9.2,20.83-25.21,52.81,5.54,66.22,2.99.8,6.05,1.32,9.14,1.55-45.76,31.59-89.61,65.86-131.33,102.62-16.29,14.41-4.1,21.83,9.42,13.3,89.27-49.21,183.47-97.3,282.27-143.35,44.33,42.55,93.5,79.74,146.51,110.82,119.97-72.04,209.95-156.81,271.52-283.65,72.11-25.86,143.17-49.57,213.17-71.15,12.52-2.72,12.14-17.4-3.27-16.01ZM766.86,460.82l.5-1.05c-55.69,117.25-139.75,206.13-265.98,281.71-56.36-33.31-108.13-73.85-153.99-120.58,3.05,3.21,6.15,6.32,9.31,9.48-100.46,47.04-196.77,95.86-287.81,146.23,59.49-52.3,123.17-99.63,190.39-141.52l-10.03,5.04c-18.67,9.48-39.4,23.94-60.95,18.34-23.49-10.2-7.98-38.79-.83-55.08,14.41-32.4,29.29-64.59,44.66-96.58-73.07,22.57-144,46.34-212.78,71.31,69.17-43.65,141.86-81.45,217.32-112.98l2.44,4.82c-21.8-43.2-38.64-88.72-50.2-135.7l-7.15-28.76c106.22-54.69,199.48-84.45,319.78-84.45s213.56,29.7,319.89,84.45c-3.03,11.53-6.13,22.83-9.31,33.91l1.33-4.54c56.73-2.51,113.55-1.6,170.17,2.72-58.92,8.61-118.84,18.45-179.76,29.53l1.33-4.21c-7.81,24.71-16.62,48.37-26.1,70.93,2.11-4.93,4.21-9.97,6.26-15.02,65.31-14.65,131.56-24.76,198.26-30.25-71.19,21.61-143.44,45.7-216.77,72.26ZM306.67,402.8l.5-.39h-.33l-.17.39ZM501.55,241.39c-110.82,0-197.93,25.93-296.12,74.86,5.13,20.91,10.99,41.08,17.57,60.51,9.4,27.98,20.69,55.29,33.8,81.73,4.12-6.83,8.81-13.3,14.02-19.34l13.47-14.19c-13.89-30.48-25.45-61.97-34.58-94.2,80.56-38.46,168.31-59.52,257.55-61.78,41.47.28,82.8,4.68,123.4,13.13l8.64,1.88h0l3.1.72,2.05.44c3.38.83,6.82,1.61,10.2,2.49h0c9.2,2.33,18.43,4.86,27.71,7.59,28.36,99.21-4.52,205.8-83.84,271.79-5.54,4.43-11.08,8.76-16.62,12.8-23.99,16.89-50.67,29.59-78.91,37.57-7.65,2.16-15.35,3.99-23.22,5.54-7.87,1.55-16.07,2.55-24.27,3.32l7.2,6.82,16.35-2.66c144.3-24.42,241.77-160.83,218.1-305.26-.33-1.88-.72-3.82-1.05-5.54v-9.14l-.28-1.11v-3.27c-.78-2.99-1.44-5.54-2.16-8.09l11.08,3.49c7.76,2.55,15.02,5.15,22.16,7.87,18.17,6.76,34.3,13.69,47.65,20.06-39.77,139.03-125.93,260.27-244.14,343.55l-9.64,6.76h0c-3.88,2.6-7.76,5.21-11.69,7.76-47.52-31.3-90.63-68.83-128.17-111.6l-33.25,15.85c45.11,49.04,96.96,91.43,153.99,125.9,159.97-98.74,247.75-220.37,295.9-401.4-98.02-48.87-185.13-74.86-296.01-74.86ZM401.14,566.6l5.54-2.66-9.42,4.43,3.88-1.77ZM473.9,356.03c-4.88,11.41-9.81,22.83-14.57,34.3l12.19-3.38c-14.78,35.91-29.28,71.96-43.5,108.16-5.87,14.74-11.64,29.42-17.4,44.33,18.99-9.24,37.96-18.23,56.91-26.99,8.61-23.79,17.31-47.52,26.1-71.2,8.09,16.18,16.09,32.38,23.99,48.6,12.3-5.54,24.55-11.08,36.85-16.24-7.39-16.99-14.96-34.02-22.72-51.09,13.63-20.65,27.35-41.23,41.17-61.73l11.69-2.72c2.94-8.92,5.87-17.79,8.76-26.71-11.3,2.07-22.57,4.19-33.8,6.37-18.47,23.86-36.55,47.88-54.25,72.04,8.35-22.16,16.79-44.33,25.32-66.49-18.95,4.1-37.9,8.26-56.74,12.74ZM662.58,354.37c2.99-11.64,5.87-23.33,8.81-34.96-12.8,1.88-25.66,3.88-38.46,5.98-10.13,1.12-19.61,5.54-26.99,12.58-5.79,6.74-9.99,14.69-12.3,23.27l-24.44,76.47c-3.16,10.03-8.37,28.37,7.76,27.04,5.48-1.22,10.8-3.08,15.85-5.54,16.33-6.91,32.71-13.76,49.15-20.56,4.17-16.03,8.31-32.05,12.41-48.04-8.57,2.66-17.18,5.39-25.82,8.2-2.05,7.2-4.05,14.46-6.04,21.67-6.04,2.16-11.97,4.38-17.95,6.59,7.39-25.86,14.94-51.72,22.66-77.58l15.9-3.38c-1.27,4.54-2.49,9.09-3.77,13.58l23.22-5.32ZM389.62,524.71c6.56-11.72,12.25-23.9,17.01-36.46,10.86-26.71,21.94-53.34,33.25-79.9,4.21-9.97,11.58-22.55,9.2-33.25-4.71-14.57-29.37-5.54-40.12-2.99-14.55,3.69-29.13,7.52-43.72,11.47-24.99,6.82-47.27,17.51-65.11,37.24-9.79,11.81-17.98,24.85-24.38,38.79-19.95,40.64-39.08,81.58-57.41,122.85-4.82,10.75-19.5,36.96-3.82,43.72,17.29,4.49,38.79-10.03,54.14-17.79,16.62-8.48,33.25-16.62,49.87-25.1,28.37-14.02,54.08-31.14,71.09-58.57ZM294.09,553.69c19.1-44.22,38.95-88.14,59.57-131.77,11.53-3.6,23.11-7.26,34.8-11.08-18.95,41.52-37.16,83.19-54.64,125.01-13.41,5.87-26.54,11.8-39.73,17.84Z"/>
  <path class="st4" d="M785.37,418.59c-2.05,5.04-4.16,10.08-6.26,15.02-.28.72-.55,1.44-.89,2.11-.94,2.27-1.94,4.49-2.88,6.7l-.5,1.11c-1.61,3.55-3.16,7.04-4.77,10.53-.89,1.88-1.77,3.82-2.72,5.54l-.5,1.05c73.33-26.38,145.58-50.48,216.77-72.31-66.71,5.49-132.95,15.6-198.26,30.25ZM346.9,620.46c-2.83-2.94-5.54-5.87-8.37-8.87l-1.16-1.27c-2.94-3.16-5.87-6.32-8.7-9.53-13.47,6.43-24.1,11.64-29.59,14.35-8.15,3.99-16.24,8.03-24.38,12.14l-2.33,1.16-13.08,6.65c-67.23,41.89-130.9,89.22-190.39,141.52,91.04-50.37,187.35-99.19,287.81-146.23-3.16-3.16-6.26-6.26-9.31-9.48l-.5-.44ZM724.14,309.38c-7.26-2.72-14.52-5.54-22.16-7.87l-11.08-3.49c.72,2.49,1.39,5.1,2.16,8.09v3.27l.28,1.11v9.14c.33,1.88.72,3.82,1.05,5.54,23.88,143.58-72.07,279.69-215.33,305.43l-16.35,2.66h0c17.48,16.66,35.99,32.2,55.41,46.55h0l9.64-6.76c118.1-83.35,204.14-204.6,243.81-343.61-13.13-6.37-29.26-13.3-47.43-20.06Z"/>
</svg>