<svg id="Layer_2" data-name="Layer 2" xmlns="http://www.w3.org/2000/svg" xmlns:xlink="http://www.w3.org/1999/xlink" viewBox="0 0 892 600"><defs><style>.cls-1,.cls-12{fill:none;}.cls-2{clip-path:url(#clip-path);}.cls-10,.cls-11,.cls-13,.cls-14,.cls-15,.cls-16,.cls-17,.cls-18,.cls-19,.cls-20,.cls-21,.cls-22,.cls-23,.cls-24,.cls-25,.cls-3,.cls-6,.cls-7,.cls-8,.cls-9{fill:#fff;}.cls-4{fill:#db161b;}.cls-5{fill:green;}.cls-10,.cls-11,.cls-12,.cls-13,.cls-14,.cls-15,.cls-16,.cls-17,.cls-18,.cls-19,.cls-20,.cls-21,.cls-22,.cls-23,.cls-24,.cls-25,.cls-6,.cls-7,.cls-8,.cls-9{stroke:#db161b;}.cls-6{stroke-width:0.38px;}.cls-10,.cls-11,.cls-13,.cls-14,.cls-15,.cls-17,.cls-19,.cls-20,.cls-23,.cls-24,.cls-6,.cls-7,.cls-8{fill-rule:evenodd;}.cls-7{stroke-width:0.35px;}.cls-8{stroke-width:0.22px;}.cls-9{stroke-width:1.33px;}.cls-10{stroke-width:0.56px;}.cls-11,.cls-12,.cls-25{stroke-width:0.33px;}.cls-13,.cls-16{stroke-width:0.45px;}.cls-14{stroke-width:0.39px;}.cls-15{stroke-width:0.45px;}.cls-17{stroke-width:0.41px;}.cls-18{stroke-width:4.46px;}.cls-19{stroke-width:0.25px;}.cls-20{stroke-width:0.43px;}.cls-21,.cls-24{stroke-width:0.36px;}.cls-22{stroke-width:0.38px;}.cls-23{stroke-width:0.36px;}.cls-26{fill:#939598;}</style><clipPath id="clip-path"><rect class="cls-1" x="6" width="892" height="600" rx="30.93"/></clipPath></defs><title>Omã</title><g class="cls-2"><path class="cls-3" d="M123.51,271.93a84.54,84.54,0,0,0,84.55-84.54,90.54,90.54,0,0,1-38,44.71l-7.22-5.37L177,216.11l-17.12-4.38,9.05-15.35-17.68,2.54,2.62-17.54-15.36,9.19-4.38-17.33-10.62,14.15L112.9,173.24l-4.46,17.26-15.28-9.05,2.62,17.68-17.69-2.61,9.2,15.35L70,216.26l14.15,10.61-7.08,5.45A89.66,89.66,0,0,1,39,187.6a84.54,84.54,0,0,0,84.54,84.55Z"/><path class="cls-3" d="M82.76,396.45l-37.92-4.67,23,30.42-35.17,15,35.17,14.86-23,30.42,37.92-4.67-4.67,38,30.43-23,15,35.23,14.86-35.23,30.56,23.06L164.27,478l37.92,4.74-23-30.42,35.16-14.86-35.16-15,23-30.43-37.92,4.6,4.66-37.92-30.42,23-15-35.31-14.85,35.16-30.57-23,4.67,37.92Z"/><path class="cls-4" d="M0,0H891V601H0Z"/><path class="cls-3" d="M300.5,0H892V200.33H300.5Z"/><path class="cls-5" d="M300.5,400.67H892V601H300.5Z"/><g id="a"><path class="cls-6" d="M69.18,102.81h32.3a3.12,3.12,0,0,1,3.22,3V121a3.12,3.12,0,0,1-3.22,3H69.18A3.13,3.13,0,0,1,66,121V105.83A3.13,3.13,0,0,1,69.18,102.81Z"/><path class="cls-7" d="M70,103.69h30.64a2.92,2.92,0,0,1,3,2.77v14a2.92,2.92,0,0,1-3,2.76H70A2.92,2.92,0,0,1,67,120.41v-14A2.92,2.92,0,0,1,70,103.69Z"/><path class="cls-8" d="M84,109l1.86.06.08.84,1.52.77,1.18-1,1.44.77-1.35.85.34,1.16,1.68-.06V114l-1.35-.07-.67,1,1.52,1.1-1.18.9-1.27-1-1.86.39.09,1.43-2,.13-.25-1.37-1.69-.71-.92,1-1.44-.71.85-1.1-1-.71H78.14l-.09-2,1.44.13,1-1.16-1.18-.91,1.52-1,1.09.84,1.86-.25Z"/><ellipse class="cls-9" cx="84.6" cy="113.21" rx="2.04" ry="1.75"/><path class="cls-7" d="M71.92,104.58l-3,2.66m5-2.66-3,2.66m5-2.66-3,2.66m5-2.66-3,2.66m5-2.66-3,2.66m5-2.66-3,2.66m5-2.66-3,2.66m5-2.66-3,2.66m5-2.66-3,2.66m5-2.66-3,2.66m5-2.66-3,2.66m5-2.66-3,2.66m-5-2.66-3,2.66m12.91-2.66-3,2.66m5-2.66-3,2.66m5-2.66-3,2.66m5-2.66-3,2.66m0-2.66,3,2.66m-5-2.66,3,2.66m-5-2.66,3,2.66m-5-2.66,3,2.66m-5-2.66,3,2.66m-5-2.66,3,2.66m-5-2.66,3,2.66m-5-2.66,3,2.66m-5-2.66,3,2.66m-5-2.66,3,2.66m-5-2.66,3,2.66m-5-2.66,3,2.66m5-2.66,3,2.66M74.9,104.58l3,2.66m-5-2.66,3,2.66m-5-2.66,3,2.66m-5-2.66,3,2.66m0,12.39-3,2.66m5-2.66-3,2.66m5-2.66-3,2.66m5-2.66-3,2.66m5-2.66-3,2.66m5-2.66-3,2.66m5-2.66-3,2.66m5-2.66-3,2.66m5-2.66-3,2.66m5-2.66-3,2.66m5-2.66-3,2.66m5-2.66-3,2.66m-5-2.66-3,2.66m12.91-2.66-3,2.66m5-2.66-3,2.66m5-2.66-3,2.66m5-2.66-3,2.66m0-2.66,3,2.66m-5-2.66,3,2.66m-5-2.66,3,2.66m-5-2.66,3,2.66m-5-2.66,3,2.66m-5-2.66,3,2.66m-5-2.66,3,2.66m-5-2.66,3,2.66m-5-2.66,3,2.66m-5-2.66,3,2.66m-5-2.66,3,2.66m-5-2.66,3,2.66m5-2.66,3,2.66M74.9,119.63l3,2.66m-5-2.66,3,2.66m-5-2.66,3,2.66m-5-2.66,3,2.66"/></g><path class="cls-6" d="M231.32,102.81H199a3.12,3.12,0,0,0-3.22,3V121a3.12,3.12,0,0,0,3.22,3h32.3a3.13,3.13,0,0,0,3.22-3V105.83A3.13,3.13,0,0,0,231.32,102.81Z"/><path class="cls-7" d="M230.49,103.69H199.85a2.92,2.92,0,0,0-3,2.77v14a2.92,2.92,0,0,0,3,2.76h30.64a2.92,2.92,0,0,0,3-2.76v-14A2.92,2.92,0,0,0,230.49,103.69Z"/><path class="cls-8" d="M216.46,109l-1.86.06-.08.84-1.52.77-1.18-1-1.44.77,1.35.85-.34,1.16-1.68-.06V114l1.35-.07.67,1-1.52,1.1,1.18.9,1.27-1,1.86.39-.09,1.43,2,.13.25-1.37,1.69-.71.92,1,1.44-.71-.85-1.1,1-.71h1.43l.09-2-1.44.13-1-1.16,1.18-.91-1.52-1-1.09.84-1.86-.25Z"/><ellipse class="cls-9" cx="215.9" cy="113.21" rx="2.04" ry="1.75"/><path class="cls-7" d="M228.58,104.58l3,2.66m-5-2.66,3,2.66m-5-2.66,3,2.66m-5-2.66,3,2.66m-5-2.66,3,2.66m-5-2.66,3,2.66m-5-2.66,3,2.66m-5-2.66,3,2.66m-5-2.66,3,2.66m-5-2.66,3,2.66m-5-2.66,3,2.66m-5-2.66,3,2.66m5-2.66,3,2.66m-12.91-2.66,3,2.66m-5-2.66,3,2.66m-5-2.66,3,2.66m-5-2.66,3,2.66m0-2.66-3,2.66m5-2.66-3,2.66m5-2.66-3,2.66m5-2.66-3,2.66m5-2.66-3,2.66m5-2.66-3,2.66m5-2.66-3,2.66m5-2.66-3,2.66m5-2.66-3,2.66m5-2.66-3,2.66m5-2.66-3,2.66m5-2.66-3,2.66m-5-2.66-3,2.66m12.91-2.66-3,2.66m5-2.66-3,2.66m5-2.66-3,2.66m5-2.66-3,2.66m0,12.39,3,2.66m-5-2.66,3,2.66m-5-2.66,3,2.66m-5-2.66,3,2.66m-5-2.66,3,2.66m-5-2.66,3,2.66m-5-2.66,3,2.66m-5-2.66,3,2.66m-5-2.66,3,2.66m-5-2.66,3,2.66m-5-2.66,3,2.66m-5-2.66,3,2.66m5-2.66,3,2.66m-12.91-2.66,3,2.66m-5-2.66,3,2.66m-5-2.66,3,2.66m-5-2.66,3,2.66m0-2.66-3,2.66m5-2.66-3,2.66m5-2.66-3,2.66m5-2.66-3,2.66m5-2.66-3,2.66m5-2.66-3,2.66m5-2.66-3,2.66m5-2.66-3,2.66m5-2.66-3,2.66m5-2.66-3,2.66m5-2.66-3,2.66m5-2.66-3,2.66m-5-2.66-3,2.66m12.91-2.66-3,2.66m5-2.66-3,2.66m5-2.66-3,2.66m5-2.66-3,2.66"/><g id="b"><path class="cls-10" d="M126.72,147.37C78.53,194.49,58,200.45,67.62,204.25s40.68-20.52,73-52.84S192.66,90.35,183,86.56,178,97.24,126.72,147.37Z"/><path class="cls-11" d="M86.15,181.61,103,186c-15.89,15.05-33.76,21.25-38.73,18.6s8.94-8.85,21.85-23Z"/><path class="cls-11" d="M86.15,183.39l13.91,3.54c-15.48,14.48-30.79,18.59-34.75,16.83S73.57,197,86.15,183.39Z"/><path class="cls-12" d="M138,145.3c0,.23-.15,1.24-.25,1.64a9.69,9.69,0,0,1-.12,1.43c-.16.38-.13.73-.62.87a1.9,1.9,0,0,1-1,.77,5.36,5.36,0,0,1-1.25.65,2.53,2.53,0,0,1-1.47.11c-.44-.27-.75-.54-1.11-.76-.09-.35-.16-.86-.25-1.2a5.08,5.08,0,0,1,.25,1.41,2.49,2.49,0,0,1-.49,1.2m1.72,1.2-.12-.11c.29.26.17.14-.5-.21a5.92,5.92,0,0,0-1.6-.44h-1.72a5.64,5.64,0,0,0-1.61.22c-.35.31-.87.48-1.23.76a2,2,0,0,0-.74.88c-.34.3-.56.76-.87,1-.13.5-.42.48-.61.87a2,2,0,0,1,1.35.43c.52.24-.43-.23-.61-.43a2.94,2.94,0,0,0-1.11-.22c-.56-.16-.91.13-1.49.22a1.42,1.42,0,0,1-.86.22m5.06,2.29a5.44,5.44,0,0,1-1.85,0,1.82,1.82,0,0,1-1.11-.77c-.15-.29,0,.53,0,.88,0,.64-.27.65-.61,1.1-.37.2-.75.49-1.12.65a4,4,0,0,1-1.11.55,5,5,0,0,0-1.11.54c-.41.26-.37.58-.61,1a1.28,1.28,0,0,0,.49,1.1,3,3,0,0,0,.74,1c.3.5.64.73-.13.87-.42.16-.65,0-1.1,0m-.25.77c-.3-.06-1.38-.38-1.86-.55h-1.72a3.52,3.52,0,0,0-1.36.44,3.44,3.44,0,0,1-1.11.77,7.76,7.76,0,0,0-1,1.2,3.88,3.88,0,0,0-.25,1.42,11.73,11.73,0,0,0,.25,1.31,3.34,3.34,0,0,0,.74,1.31.28.28,0,0,0,.24.22m.17,1.43s-.17.28-.35.52a1,1,0,0,1-1.05.43c-.54,0-.49-.21-.88-.35a8.89,8.89,0,0,1-.61-.86,7.3,7.3,0,0,0-.44-.77c-.16-.26-.36-.45-.53-.69a1.29,1.29,0,0,0-.43-.17c.5.08.54.25.87.51a8.32,8.32,0,0,1,.44.78,6.79,6.79,0,0,1,.17,1.12,2.76,2.76,0,0,1-.17,1.2,3.91,3.91,0,0,1-.61.61,4.43,4.43,0,0,0-.62.68c-.27.17-.47.31-.78.52a2.32,2.32,0,0,1-1,.35,2.46,2.46,0,0,1-1-.35c-.33-.24-.59-.39-.88-.6a2.7,2.7,0,0,1-.62-.69,1,1,0,0,0-1,.17,2.32,2.32,0,0,0-.61.6c-.15.07-.38.28-.53.35m1,.2c.14.06.64.41.87.55a6.93,6.93,0,0,1,.43,1.18,6.18,6.18,0,0,1,.11,1.51,7.06,7.06,0,0,1-.54,1.39,8.76,8.76,0,0,1-1,.65,9.62,9.62,0,0,1-1.41.11,2.17,2.17,0,0,1-1.31,0,3.94,3.94,0,0,1-1.2-.43c-.4-.23-.65-.44-1.09-.65-.21-.31-.54-.59-.87-1a4.64,4.64,0,0,1-.65-1c.16.46.4.86.54,1.29a2.38,2.38,0,0,1,.44,1.18,4.92,4.92,0,0,1,.11,1.5,5.69,5.69,0,0,1-.22,1.3v.33m-10.33,1.71v.16c0-.42,0-.21.17.62a1.92,1.92,0,0,0,1.75.31c.57-.41.55-.73,1.58-.93a3.82,3.82,0,0,1,1.93.62,2.58,2.58,0,0,1,1.4,1.09c.22.53.34.89-.35,1.1a4.59,4.59,0,0,1-1.93.63c-.81,0-1.39-.09-1.75.31-.56.51-.52.82-.52,1.71a10.78,10.78,0,0,0-.36,1.41,3.3,3.3,0,0,1-1.57.31,18.36,18.36,0,0,1-.53-1.87,4.46,4.46,0,0,0-.52-1.72,4.61,4.61,0,0,0-1.23-1.1,2.17,2.17,0,0,0-1-.62c.69.31.78.65.87,1.41a3.12,3.12,0,0,1-1.75.47,1.68,1.68,0,0,1-1.57-.78,8,8,0,0,1-.53,1.72,16.53,16.53,0,0,0-.87,1.55c.15.76.48.79.52,1.72.23.61.2,1.2.7,1.57.22.24.39.29.88.31a4.22,4.22,0,0,1-2.28-.47c-.52-.28-.91-.64-1.4-.94a7.2,7.2,0,0,0-2.1-.94c-.81,0-1.4-.08-1.76.31a2.8,2.8,0,0,0-1.05,1.57,2.1,2.1,0,0,0,.18,1.87,1.35,1.35,0,0,1,0,1.56c-.41.51-1,.57-1.93.78a6.57,6.57,0,0,1-1.75-.31"/><path class="cls-13" d="M181.71,104.83C203.1,67.92,217.29,36.5,213.39,34.7S189,61.41,167.59,98.33Z"/><path class="cls-14" d="M180.3,104.18C200.92,68.57,215.14,38.5,212,37.06S189.64,63.37,169,99"/><path class="cls-15" d="M176.75,85.6c-2.51,4.17-5.16,8.93-7.75,13.38l11.3,5.2c2.57-4.45,5.39-9.14,7.74-13.37Z"/><path class="cls-15" d="M177.71,87c-2.51,4.16-4.26,7.35-6.84,11.8l8.47,3.9c2.58-4.45,4.49-7.57,6.84-11.8Z"/><path class="cls-16" d="M183.85,91.86l-5.65-2.6-5,8.66,5.65,2.6Z"/><path class="cls-15" d="M183.86,91.86,173.2,97.92m5.64,2.6-.63-11.26m31.17-41.45-5.65-2.6"/></g><path class="cls-10" d="M173.78,147.37c48.19,47.12,68.75,53.08,59.1,56.88s-40.68-20.52-73-52.84-52.07-61.06-42.42-64.85S122.52,97.24,173.78,147.37Z"/><path class="cls-11" d="M214.35,181.61,197.47,186c15.89,15.05,33.76,21.25,38.73,18.6s-8.94-8.85-21.85-23Z"/><path class="cls-11" d="M214.35,183.39l-13.91,3.54c15.48,14.48,30.79,18.59,34.75,16.83S226.93,197,214.35,183.39Z"/><path class="cls-12" d="M162.48,145.3c0,.23.15,1.24.25,1.64a9.69,9.69,0,0,0,.12,1.43c.16.38.13.73.62.87a1.9,1.9,0,0,0,1,.77,5.36,5.36,0,0,0,1.25.65,2.53,2.53,0,0,0,1.47.11c.44-.27.75-.54,1.11-.76.09-.35.16-.86.25-1.2a5.08,5.08,0,0,0-.25,1.41,2.49,2.49,0,0,0,.49,1.2m-1.72,1.2.12-.11c-.29.26-.17.14.5-.21a5.92,5.92,0,0,1,1.6-.44H171a5.64,5.64,0,0,1,1.61.22c.35.31.87.48,1.23.76a2,2,0,0,1,.74.88c.34.3.56.76.87,1,.13.5.42.48.61.87a2,2,0,0,0-1.35.43c-.52.24.43-.23.61-.43a2.94,2.94,0,0,1,1.11-.22c.56-.16.91.13,1.49.22a1.42,1.42,0,0,0,.86.22m-5.06,2.29a5.44,5.44,0,0,0,1.85,0,1.82,1.82,0,0,0,1.11-.77c.15-.29,0,.53,0,.88.05.64.27.65.61,1.1.37.2.75.49,1.12.65a4,4,0,0,0,1.11.55,5,5,0,0,1,1.11.54c.41.26.37.58.61,1a1.28,1.28,0,0,1-.49,1.1,3,3,0,0,1-.74,1c-.3.5-.64.73.13.87.42.16.65,0,1.1,0m.25.77c.3-.06,1.38-.38,1.86-.55h1.72a3.52,3.52,0,0,1,1.36.44,3.44,3.44,0,0,0,1.11.77,7.76,7.76,0,0,1,1,1.2,3.88,3.88,0,0,1,.25,1.42,11.73,11.73,0,0,1-.25,1.31,3.34,3.34,0,0,1-.74,1.31.28.28,0,0,1-.24.22m-.17,1.43s.17.28.35.52a1,1,0,0,0,1,.43c.54,0,.49-.21.88-.35a8.89,8.89,0,0,0,.61-.86,7.3,7.3,0,0,1,.44-.77c.16-.26.36-.45.53-.69a1.29,1.29,0,0,1,.43-.17c-.5.08-.54.25-.87.51a8.32,8.32,0,0,0-.44.78,6.79,6.79,0,0,0-.17,1.12,2.76,2.76,0,0,0,.17,1.2,3.91,3.91,0,0,0,.61.61,4.43,4.43,0,0,1,.62.68c.27.17.47.31.78.52a2.32,2.32,0,0,0,1,.35,2.46,2.46,0,0,0,1.05-.35c.33-.24.59-.39.88-.6a2.7,2.7,0,0,0,.62-.69,1,1,0,0,1,1,.17,2.32,2.32,0,0,1,.61.6c.15.07.38.28.53.35m-1,.2c-.14.06-.64.41-.87.55a6.93,6.93,0,0,0-.43,1.18,6.18,6.18,0,0,0-.11,1.51,7.06,7.06,0,0,0,.54,1.39,8.76,8.76,0,0,0,1,.65,9.62,9.62,0,0,0,1.41.11,2.17,2.17,0,0,0,1.31,0,3.94,3.94,0,0,0,1.2-.43c.4-.23.65-.44,1.09-.65.21-.31.54-.59.87-1a4.64,4.64,0,0,0,.65-1c-.16.46-.4.86-.54,1.29a2.38,2.38,0,0,0-.44,1.18,4.92,4.92,0,0,0-.11,1.5,5.69,5.69,0,0,0,.22,1.3v.33m10.33,1.71v.16c0-.42,0-.21-.17.62a1.92,1.92,0,0,1-1.75.31c-.57-.41-.55-.73-1.58-.93a3.82,3.82,0,0,0-1.93.62,2.58,2.58,0,0,0-1.4,1.09c-.22.53-.34.89.35,1.1a4.59,4.59,0,0,0,1.93.63c.81,0,1.39-.09,1.75.31.56.51.52.82.52,1.71a10.78,10.78,0,0,1,.36,1.41,3.3,3.3,0,0,0,1.57.31,18.36,18.36,0,0,0,.53-1.87,4.46,4.46,0,0,1,.52-1.72,4.61,4.61,0,0,1,1.23-1.1,2.17,2.17,0,0,1,1.05-.62c-.69.31-.78.65-.87,1.41a3.12,3.12,0,0,0,1.75.47,1.68,1.68,0,0,0,1.57-.78,8,8,0,0,0,.53,1.72,16.53,16.53,0,0,1,.87,1.55c-.15.76-.48.79-.52,1.72-.23.61-.2,1.2-.7,1.57-.22.24-.39.29-.88.31a4.22,4.22,0,0,0,2.28-.47c.52-.28.91-.64,1.4-.94a7.2,7.2,0,0,1,2.1-.94c.81,0,1.4-.08,1.76.31a2.8,2.8,0,0,1,1.05,1.57,2.1,2.1,0,0,1-.18,1.87,1.35,1.35,0,0,0,0,1.56c.41.51,1,.57,1.93.78a6.57,6.57,0,0,0,1.75-.31"/><path class="cls-13" d="M118.79,104.83C97.4,67.92,83.21,36.5,87.11,34.7s24.42,26.71,45.8,63.63Z"/><path class="cls-14" d="M120.2,104.18C99.58,68.57,85.36,38.5,88.48,37.06s22.38,26.31,43,61.92"/><path class="cls-15" d="M123.75,85.6c2.51,4.17,5.16,8.93,7.75,13.38l-11.3,5.2c-2.57-4.45-5.39-9.14-7.74-13.37Z"/><path class="cls-15" d="M122.79,87c2.51,4.16,4.26,7.35,6.84,11.8l-8.47,3.9c-2.58-4.45-4.49-7.57-6.84-11.8Z"/><path class="cls-16" d="M116.65,91.86l5.65-2.6,5,8.66-5.65,2.6Z"/><path class="cls-15" d="M116.64,91.86l10.66,6.06m-5.64,2.6.63-11.26M91.12,47.81l5.65-2.6"/><path class="cls-17" d="M135.49,85.1c0,31,.18,42.67-2.11,44.28s-62.45,0-62.45,8.85,49.66,17.71,64.56,17.71q29.79,0,29.79-26.56V85.1Z"/><path class="cls-7" d="M135.49,94v4.43a100.56,100.56,0,0,0,29.8,0V94A100.56,100.56,0,0,1,135.49,94Zm0-8.85v4.43a101.24,101.24,0,0,0,29.8,0V85.1A100.56,100.56,0,0,1,135.49,85.1Z"/><path class="cls-7" d="M135.49,89.53V94a100.56,100.56,0,0,0,29.8,0V89.53A101.24,101.24,0,0,1,135.49,89.53Zm0,8.85v4.43a101.24,101.24,0,0,0,29.8,0V98.38A100.56,100.56,0,0,1,135.49,98.38Z"/><ellipse class="cls-18" cx="136.84" cy="92.04" rx="1.35" ry="0.96"/><ellipse class="cls-18" cx="142.26" cy="92.52" rx="1.35" ry="0.96"/><ellipse class="cls-18" cx="147.67" cy="93" rx="1.35" ry="0.96"/><ellipse class="cls-18" cx="153.09" cy="93" rx="1.35" ry="0.96"/><ellipse class="cls-18" cx="158.51" cy="92.52" rx="1.35" ry="0.96"/><ellipse class="cls-18" cx="163.93" cy="92.04" rx="1.35" ry="0.96"/><path class="cls-7" d="M135.49,107.24l29.8,23.91m-26.83-23.91,26.83,21.24m-22.85-20.36,22.85,17.71m-19.87-17.71,19.87,15m-16.89-15,16.89,12.4m-13.92-12.4,13.92,9.75m-10.93-9.75,10.93,7.08m-8-7.08,8,5.32m-5-5.32,5,3.55m-2-3.55,2,1.77m-29.8,0,29.8,23.91m0-26.56L132.51,133.8m29.79-26.56-28.8,23m24.83-22.14-22.84,17.71m19.86-17.71-19.86,15m16.88-15-16.88,12.4m13.9-12.4-13.9,9.75m10.92-9.75-10.92,7.08m7.94-7.08-7.94,5.32m5-5.32-5,3.55m2-3.55-2,1.77m29.8,0-32.78,26.57m32.78-23.91-32.78,26.56m32.78-23.91-32.78,26.58m32.78-23.91-32.78,26.56m32.78-23.91-32.78,26.56m32.78-23.91-32.78,26.57m32.78-23.91-32.78,26.56m32.78-23.9-32.78,26.57m32.78-23.91-30.8,24.79m30.8-22.14-27.82,22.14m26.81-18.59-21.84,17.71m20.85-14.18-17.87,14.18m15.89-9.75-8.94,7.08m-16.88-39.84,28.79,23M135.49,115.2l28.79,23m-28.79-20.36L163.29,140m-27.8-19.48,27.8,22.14m-27.8-19.49,26.81,21.26M134.49,125l26.82,21.25m-26.82-18.6,24.84,19.48m-25.83-17.7,24.83,19.48m-25.82-17.71,23.83,18.59M132.51,133.8l22.84,17.71m-22.84-15,19.86,15.93"/><path class="cls-7" d="M135.49,102.81v4.43a101.24,101.24,0,0,0,29.8,0v-4.43A101.24,101.24,0,0,1,135.49,102.81Zm-3,36.3,17.87,14.18m-17.87-11.51,15.89,12.39m-15.89-9.74,13.9,10.63m-13.9-8,9.93,8m-9.93-5.32,7.94,6.2m-7.94-3.55,5,3.55"/><ellipse class="cls-18" cx="136.84" cy="105.33" rx="1.35" ry="0.96"/><ellipse class="cls-18" cx="142.26" cy="105.8" rx="1.35" ry="0.96"/><ellipse class="cls-18" cx="147.67" cy="106.28" rx="1.35" ry="0.96"/><ellipse class="cls-18" cx="153.09" cy="106.28" rx="1.35" ry="0.96"/><ellipse class="cls-18" cx="158.51" cy="105.8" rx="1.35" ry="0.96"/><ellipse class="cls-18" cx="163.93" cy="105.33" rx="1.35" ry="0.96"/><path class="cls-7" d="M92.78,148.86l35.75-18.6M90.79,148l33.77-17.71M89.8,146.2l30.79-15.94M88.81,144.43l26.81-14.17m-28.8,12.4,24.83-12.4M87.81,140l16.88-8.85m-17.87,7.08,12.91-7.08m-12.91,4.43,8.94-4.43m0,18.59L129.53,132m-30.79,18.6,31.78-16.83m-28.8,17.71,29.79-15.93m-26.82,16.81,24.84-13.28m-20.86,13.28,21.85-11.51m-18.87,12.41,18.87-9.75m-15.89,10.63,14.9-8m-10.93,8,11.92-6.2m-8,7.09,8-4.43m-4,4.43,5-2.67"/><path class="cls-7" d="M133.5,129.38h-5a71.87,71.87,0,0,0,0,26.56h5A71.45,71.45,0,0,1,133.5,129.38Zm-58.6,12.4,11.92-8.86M74.9,135.58,86.82,146.2"/><path class="cls-19" d="M92.78,131.15l-6,.88a32.58,32.58,0,0,0,0,15.94l6,1.77a44.13,44.13,0,0,1,0-18.59Z"/><path class="cls-20" d="M165.24,86.87V82.41c-4.45,0-7.44-2.62-7.44-5.32l-14.87,0c0,2.66-3,5.31-7.44,5.31v4.43Z"/><path class="cls-21" d="M144,71.82h12.75v5.31H144Zm1.06-5.32h10.63v5.32H145.05Zm0-5.31h10.63V66.5H145.05Z"/><path class="cls-21" d="M146.11,54.11h8.51v7.08h-8.51Z"/><path class="cls-22" d="M145.75,47.91H155v6.2h-9.24Z"/><ellipse class="cls-9" cx="150.88" cy="42.15" rx="12.32" ry="8.41"/><path class="cls-23" d="M157,41.71c0,2.32,3.08,6.2,3.08,6.2a17.58,17.58,0,0,1-9.24,2.66c-3.39,0-7.63-.64-9.23-2.66,0,0,3.07-3.88,3.07-6.2s-3.07-5.31-3.07-5.31a17.36,17.36,0,0,1,18.47,0S157,39.39,157,41.71Z"/><path class="cls-23" d="M155,41.71c0,2.32,3.07,7.08,3.07,7.08-2.22,1.53-3.78,1.78-7.18,1.78s-5.58.25-7.18-1.78c0,0,3.07-4.76,3.07-7.08s-3.07-6.2-3.07-6.2c2.22-1.52,3.79-1.77,7.18-1.77s5,.25,7.18,1.77C158.06,35.51,155,39.39,155,41.71Z"/><ellipse class="cls-9" cx="138.57" cy="42.6" rx="3.08" ry="2.66"/><ellipse class="cls-9" cx="163.2" cy="42.6" rx="3.08" ry="2.66"/><ellipse class="cls-9" cx="150.88" cy="42.6" rx="3.08" ry="2.66"/><ellipse class="cls-9" cx="150.88" cy="33.74" rx="3.08" ry="2.66"/><ellipse class="cls-9" cx="141.86" cy="84.22" rx="3.19" ry="2.66"/><ellipse class="cls-9" cx="158.87" cy="84.22" rx="3.19" ry="2.66"/><path class="cls-24" d="M142.93,77.13H157.8l-7.43,8Z"/><ellipse class="cls-9" cx="150.37" cy="83.33" rx="4.25" ry="3.54"/><path class="cls-25" d="M135.23,109.9H155.6a1.12,1.12,0,0,1,1.24.94v3.44a1.12,1.12,0,0,1-1.24.94H135.23a1.12,1.12,0,0,1-1.24-.94v-3.44A1.12,1.12,0,0,1,135.23,109.9Z"/><path class="cls-11" d="M163.79,105.48a4.8,4.8,0,0,0-5,4.62v4a5,5,0,0,0,9.94,0v-4A4.79,4.79,0,0,0,163.79,105.48Zm0,1.77c-1.65,0-3,1.65-3,3.7v2.34c0,2,1.33,3.69,3,3.69s3-1.64,3-3.69V111C166.77,108.9,165.45,107.25,163.79,107.25ZM138,106.37c-1.65,0-3,1.64-3,3.69v4.11c0,2,1.33,3.71,3,3.71s3-1.66,3-3.71v-4.11C140.94,108,139.62,106.37,138,106.37Zm0-1.78a4.8,4.8,0,0,0-5,4.63V115a5,5,0,0,0,9.94,0v-5.8A4.8,4.8,0,0,0,138,104.59Z"/><path class="cls-11" d="M130,108.13c-1.66,0-3,1.65-3,3.71v1c0,2,1.33,3.7,3,3.7s3-1.65,3-3.7v-1C133,109.78,131.68,108.13,130,108.13Zm0-1.76a4.79,4.79,0,0,0-5,4.62v2.66a5,5,0,0,0,9.93,0V111A4.79,4.79,0,0,0,130,106.37Z"/><path class="cls-11" d="M118.11,105.69c-3,0-5.36,1.84-5.36,4.13v4.59c0,2.29,2.38,4.14,5.36,4.14s5.36-1.85,5.36-4.14v-4.59C123.47,107.53,121.08,105.69,118.11,105.69Zm0-2c-5,0-8.94,2.32-8.94,5.18v6.48c0,2.87,4,5.17,8.94,5.17s8.93-2.3,8.93-5.17v-6.48C127,106,123.05,103.7,118.11,103.7Zm64.55,2.87c-3,0-5.36,1.85-5.36,4.14v4.59c0,2.3,2.39,4.14,5.36,4.14S188,117.6,188,115.3v-4.59C188,108.42,185.63,106.57,182.66,106.57Zm0-2c-4.95,0-8.94,2.31-8.94,5.17v6.48c0,2.87,4,5.17,8.94,5.17s8.94-2.3,8.94-5.17v-6.48c0-2.86-4-5.17-8.94-5.17Z"/><path class="cls-25" d="M166.42,109.9h10.63c.35,0,.64.42.64.94v3.44c0,.52-.29.94-.64.94H166.42c-.35,0-.64-.42-.64-.94v-3.44C165.78,110.32,166.07,109.9,166.42,109.9Z"/><path class="cls-25" d="M155.24,109h6.19c.21,0,.38.56.38,1.25v4.58c0,.69-.17,1.26-.38,1.26h-6.19c-.21,0-.38-.57-.38-1.26v-4.58C154.86,109.58,155,109,155.24,109Z"/><path class="cls-25" d="M122.46,109h6.2c.21,0,.38.56.38,1.25v4.58c0,.69-.17,1.26-.38,1.26h-6.2c-.21,0-.38-.57-.38-1.26v-4.58C122.08,109.58,122.25,109,122.46,109Z"/><path class="cls-25" d="M101,108.13h12.4c.41,0,.75.7.75,1.57v5.72c0,.86-.34,1.56-.75,1.56H101c-.42,0-.75-.7-.75-1.56V109.7C100.23,108.83,100.56,108.13,101,108.13Z"/><path class="cls-25" d="M187.33,109h11.51c.39,0,.7.7.7,1.57v5.72c0,.87-.31,1.57-.7,1.57H187.33c-.39,0-.7-.7-.7-1.57v-5.72C186.63,109.72,186.94,109,187.33,109Z"/></g><g id="Layer_1" data-name="Layer 1"><path class="cls-26" d="M861.1,6A25,25,0,0,1,886,30.9V569a24.9,24.9,0,0,1-24.9,24.9H30.9A24.82,24.82,0,0,1,6,569.1V30.9A25,25,0,0,1,30.9,6H861.1m0-6H30.9A30.86,30.86,0,0,0,0,30.9H0V569a30.88,30.88,0,0,0,30.9,31H861a30.86,30.86,0,0,0,30.9-30.9V30.9A30.71,30.71,0,0,0,861.1,0Z"/></g></svg>