<?xml version="1.0" encoding="UTF-8"?>
<svg id="Layer_1" data-name="Layer 1" xmlns="http://www.w3.org/2000/svg" viewBox="0 0 1000 1000">
  <defs>
    <style>
      .cls-1 {
        fill: #c90717;
      }

      .cls-2 {
        fill: #292e6d;
      }

      .cls-3 {
        fill: #fefefe;
      }

      .cls-4 {
        fill: #409841;
      }

      .cls-5 {
        fill: #292e6e;
      }
    </style>
  </defs>
  <path class="cls-3" d="M129.88,50.37h722.66c.08,0,1.1,1.02,1.1,1.1v811.37c0,10.67-12.63,21.16-23.07,20.86l-243.1-.02c-11.97,1.42-24.03,3.08-35.45,7.02-26.23,9.05-45.91,34.18-60.44,56.72-1.01.25-1.26-.61-1.71-1.21-3.09-4.16-5.8-9.32-9.03-13.67-23.76-31.88-47.38-46.71-88.06-48.86l-243.11.02c-9.26-.21-20.87-10.82-20.87-20.13V51.47c0-.2.86-.73,1.1-1.1Z"/>
  <path class="cls-2" d="M831.68,661.83v177.58c0,11.35-11.24,20.96-22.34,20.86l-228.46-.02c-8,1.07-16.08,1.91-23.92,3.91-29.86,7.6-49.28,30.63-65.39,55.44-1.35.34-7.9-10.8-9.28-12.68-22.52-30.58-44.85-44.56-83.67-46.67l-228.46.02c-9.46-.64-19.41-10.56-19.41-20.13v-178.31h680.93Z"/>
  <path class="cls-1" d="M830.94,78.2v563.86h-222.58v-138.04c5.62-2.28,11.88-3.57,17.75-5.68,41.74-14.97,72.31-47.65,91.34-86.96h-52.35c-13.95,20.5-32.96,36.76-56.74,44.67v-218.95c27.25,8.03,49.63,29.04,62.24,54.19h51.25c-17.94-43.89-50.29-81.01-95.73-97.21-5.87-2.09-12.18-3.29-17.75-5.68v-110.21h222.58Z"/>
  <path class="cls-4" d="M374.06,78.2v114.97c-44.66,14.11-80.19,50.78-96.46,94.28-31.6,84.48,9.59,182.59,95.73,211.81v142.8h-221.48c-.08,0-1.1-1.02-1.1-1.1V78.2h223.31Z"/>
  <path class="cls-5" d="M700.62,278.11h-22.33c-33.09-56.98-107-77.59-163.64-41.73,13.07,13.93,24.45,28.82,32.34,46.36,26.39,58.65,13.73,128.31-32.33,172.95,51.2,34.28,122.79,18.61,156.67-31.85h24.16c-1.4,3.84-4.31,7.83-6.73,11.21-36.33,50.95-101.54,72.99-160.93,49.92-10.43-4.05-19.94-9.99-29.55-15.58-73.9,50.96-170.16,19.33-205.62-61.17-29.72-67.47-7.02-149.84,55.84-189,46.62-29.04,104.59-27.3,149.66,3.94,5.46-2.63,10.37-6.34,15.73-9.14,70.17-36.64,153.25-5.68,186.72,64.09Z"/>
  <polygon class="cls-3" points="260.68 744.48 301.57 745.32 268.8 769.81 280.34 808.29 247.76 785.62 214.46 809.02 226.72 769.81 193.95 745.32 234.85 744.48 247.76 706.49 260.68 744.48"/>
  <polygon class="cls-3" points="464.85 745.32 432.77 769.93 444.35 808.29 411.77 785.61 378.46 808.28 390.06 769.99 357.96 745.32 398.88 744.5 412.13 706.5 424.55 744.24 464.85 745.32"/>
  <polygon class="cls-3" points="623.74 745.32 591.65 769.93 603.23 808.29 570.66 785.61 537.34 808.28 548.94 769.99 516.84 745.32 557.77 744.5 571.01 706.5 583.44 744.24 623.74 745.32"/>
  <polygon class="cls-3" points="746.85 744.48 787.74 745.32 755.62 769.99 766.51 807.55 733.93 785.61 700.62 808.28 712.93 769.93 680.85 745.32 721.15 744.24 733.57 706.5 746.85 744.48"/>
  <path class="cls-3" d="M482.42,236.38c-57.65,55.84-62.05,148.77-9.5,209.77,1.32,1.53,9.04,8.41,8.77,9.51-8.85,6.29-19.04,10.74-29.46,13.77-65.59,19.04-129.63-22.79-147.36-86.6-23.07-83,36.14-169.74,125.23-164.06,18.66,1.19,36.22,8.76,52.32,17.61Z"/>
  <path class="cls-3" d="M498.27,249.61c56.04,49.13,55.72,143.45.53,193.19-2.4.42-13.32-12.92-15.2-15.38-40.86-53.51-35.4-132.34,14.67-177.82Z"/>
  <path class="cls-4" d="M374.06,449.47c-18.16-7.96-34.48-24.56-44.52-41.52-33.45-56.5-15.19-135.1,44.52-164.99v206.5Z"/>
</svg>