<?xml version="1.0" encoding="UTF-8"?>
<svg id="Layer_1" data-name="Layer 1" xmlns="http://www.w3.org/2000/svg" viewBox="0 0 720 705">
  <defs>
    <style>
      .cls-1 {
        fill: #fff;
      }

      .cls-2 {
        fill: none;
      }
    </style>
  </defs>
  <path d="M47.4,109.7H670.9c-1.4,3.9-5,10.5-7,14.3l-13.7,25.8-44.8,82.8-137.6,255-79.4,146.8c-9.2,17.1-19.6,34.8-28.5,51.9-11-20.9-23-41.7-34.2-62.6L181.5,358.5c-2.2-.3-4.5-.3-6.8-.4-1.9-3.2-2.8-4.8-4.2-8.3,1.9-.2,3.8-.4,5.7-.6-2.8-6.2-8.1-15.3-11.5-21.6l-20.7-38.4-38.5-71c-16.9-31.2-34.1-62.3-50.9-93.5-2.6-4.8-5.3-9.7-7.3-14.7l.1-.3Z"/>
  <path class="cls-1" d="M66.9,121.1c25,.4,50.9,0,75.9,0h145.5l363.3,.4c-2.1,4.9-5.2,10.3-7.8,15l-12.1,22.4-34.3,63.6c-6.1,11.3-13.1,23.5-18.7,35-38.9-.4-78.9,0-117.9,0-.3,17.7,0,36.4,0,54.1v136.2c0,5.6,.7,24.4-1.1,28.5-10.2,23.7-24.9,45.9-36.6,68.9-4.2,8.2-9.2,16.2-13.2,24.5-.6-9.9-.3-21.5-.3-31.5l-.2-38.5-1.2-242c-4.8-.4-9.8-.3-14.7-.3l-21.6-.2c-20.8,0-41.2,0-62,.4-.4,25.3,0,51.4,0,76.7v200.1c0,11.1,.2,22.9-.2,33.8-2.2-3.8-4.7-7.5-6.8-11.3-13.7-25.3-27.2-50.7-41.2-75.8-2.7-5.3-8.6-13.7-10-19.4-2.1-9.2-1.3-22.6-1.3-32.2v-33.7l-.2-83.6c0-18.2,.2-36.7,0-54.8l-110.7-.2c-1.7-5.6-11.9-22.8-15.1-28.8l-43-79.7c-3-5.7-6.1-11.3-9.2-16.9-1.6-3.1-4.3-7.6-5.3-10.8v.1Z"/>
  <path d="M515,148.5c25.5-2.7,48.3,15.8,51.1,41.3,2.7,25.5-15.7,48.4-41.1,51.2-25.6,2.8-48.6-15.7-51.3-41.3-2.7-25.6,15.8-48.5,41.4-51.2h-.1Z"/>
  <path class="cls-1" d="M538.9,171.1c9.3,1.6,10.4,2.2,13.4,11.8,1.1,3.6,2.5,7,3.2,10.9-1.6,3.6-3.8,6-6.2,9.2-1.3,.3-7.7-2.1-9.1-2.8-2.8-3.5-6.6-16.8-7.1-21.3,1.7-3.6,3-4.8,5.8-7.7v-.1Z"/>
  <path class="cls-1" d="M499.9,171.6c2.5,0,6.3,5.5,6.5,7.8,.1,2.9-1,6.3-1.9,9-3.2,10.1-2.7,12.1-13.3,13.6-2.2,0-6.3-5.5-6.8-7.5-.4-2.8,1.1-6.5,2-9,3.7-10.5,2.3-11.8,13.5-13.9h0Z"/>
  <path class="cls-1" d="M499.9,202.5c2.2-.4,4.6,1.9,6.4,3.2,11.4,8.3,12.4,6.4,12.2,20-2.8,.7-5.9,1.6-8.7,2.4-3.4,.7-7.2-3.4-10.1-5.1-9.3-5.9-8.7-8.2-8.6-18.1,3.2-.4,5.7-1.3,8.8-2.3v-.1Z"/>
  <path class="cls-1" d="M539.1,202.5c3.3,.3,6.3,1.9,9.1,3.6,.2,3.2,.2,7.3-.2,10.5-2.3,2.5-13.9,10.8-17.1,11.9-3.3-.7-6.5-1.9-9.8-2.8,0-2.7-.2-7.7,.8-9.9,1.5-3.5,14-11.8,17.3-13.2l-.1-.1Z"/>
  <path class="cls-1" d="M508.9,161c7,.3,14.6,.2,21.6,.3,2.4,2.4,4,5,5.8,7.9-1.7,3.3-2.8,5.5-5.6,8-.2,0-.5,.2-.8,.2-8,1.2-30.4,3.5-24.5-11,.4-1.1,2.8-4.3,3.5-5.4h0Z"/>
  <path class="cls-1" d="M504.3,154l.8,.2c1.1,1.3,1.4,2.6,2,4.2-2.6,8.8-9.1,12.7-18,12.9-6.5-4,.6-8.4,4.2-11.5,3-2.6,7.2-4.6,11-5.8h0Z"/>
  <path class="cls-1" d="M562.4,195.3l.9,.2c2.2,4.2-4.1,20.2-6.9,23.9-1.1,.2-.8,0-2.1-.7l-3-1.9c-.7-9.4-.1-19.3,11.3-21.5h-.2Z"/>
  <path class="cls-1" d="M476.2,195.2c1.8,.1,3.2,.4,5,.7,6.6,5.7,9.8,13.8,6.2,22.1-.9,.7-1.2,.7-2.2,1.1-6.5-.3-8.9-18.9-9-23.9h0Z"/>
  <path class="cls-1" d="M534.4,154.1c5.6,.3,18.8,8.9,19.4,14.4-.4,.9-1.4,1.4-2.3,1.9-2.5,1.1-7.4,0-9.7-1.4-5.3-3.2-11-8.3-7.4-15v.1Z"/>
  <path d="M190.3,148.6c25.5-2.9,48.6,15.4,51.5,40.9,2.9,25.5-15.5,48.6-41,51.4-25.5,2.9-48.5-15.5-51.4-41-2.9-25.5,15.4-48.5,40.9-51.4v.1Z"/>
  <path class="cls-1" d="M214.3,171.4c2.5,0,8.2,.8,9.7,2.8,2.9,3.7,6.5,14.8,7,19.6,.3,2.9-3.8,6.8-5.7,8.7-1.5,1-9.1-1.4-10.1-3.3-3-5.7-5.1-13.1-6.3-19.5-.4-2.2,3.9-6.7,5.3-8.3h.1Z"/>
  <path class="cls-1" d="M175.6,202.1c2.4,.2,14.7,9.9,18.6,12.2v11.2c-2.7,.7-5.8,1.7-8.5,2.5-4,.7-13.2-7.7-16.7-10.1-2.8-1.9-2.3-9.9-2.3-13.2,3.4-.8,5.5-1.5,8.8-2.6h.1Z"/>
  <path class="cls-1" d="M175.4,171.6h.6c2.5,.9,4.6,4.5,5.9,6.8-.3,5.4-2.8,15.4-5.6,20.2-1.6,2.6-6.7,3.1-9.6,3.6-2.2-.3-5.8-5.7-6.8-7.8,.5-4.3,4.3-16.1,6.5-19.8,3.5-2,5-2.2,9-2.9v-.1Z"/>
  <path class="cls-1" d="M215.6,202.5c3.6,.8,5.3,1.7,8.3,3.6,.3,2.7,.9,8.1-.6,10.4-1.9,2.8-14.2,11.2-16.9,11.7-3.2-.8-6.2-1.8-9.5-2.5,0-4.2-.1-7.6,1.2-11.5,2.6-2.6,13.8-10.7,17.5-11.6v-.1Z"/>
  <path class="cls-1" d="M184.5,161.1l21.9,.2c2.2,2.8,3.7,4.8,5.6,7.7-1.6,3.8-3,5.9-6.3,8.5-3.9,1-14.5,1.5-18.6,.4-4.2-1.1-6.1-4.7-8-8.1,1.9-2.9,3.7-5.6,5.3-8.6l.1-.1Z"/>
  <path class="cls-1" d="M180.4,154c.7,.1,.5,0,1.1,.5,3.7,9.7-9.3,19-17.4,16.4-1-.9-2.1-2-3-3,4.3-6,12-12.2,19.3-13.9h0Z"/>
  <path class="cls-1" d="M235.3,195.7c1.2-.1,2.6-.2,3.9-.3,0,7.8-1.4,12.2-4.6,19.3-.7,1.5-1.6,3.7-2.8,4.8l-.8-.2c-1.8-1-3-1.2-3.8-3.2-1.5-3.8-.7-8.8,.7-12.5,1.4-3.8,3.7-6.3,7.3-7.9h.1Z"/>
  <path class="cls-1" d="M151.8,195.5c3.2,.1,4,.3,6.7,2,5.1,3,8.4,14.9,4.6,19.8-1,.8-2.2,1.5-3.2,2.2-6-8.1-8-13.9-8.1-24.1v.1Z"/>
  <path class="cls-1" d="M195.5,228c7.4,.3,9.9,1.8,12.7,8.7-4.8,1.3-7,1.6-12,1.8-2.3,0-11.2-.4-12.8-1.5-.5-1.7,.4-3.7,1.1-5.3,3.5-2.2,6.9-3.1,10.9-3.7h.1Z"/>
  <path class="cls-1" d="M210.1,153.7c7.9,2.2,15,7.3,19.5,14.2l-2.3,2.7c-4.8,2.9-22.5-5.2-17.2-16.9Z"/>
  <path d="M356.8,148.3c25.5-.5,46.7,19.7,47.4,45.2s-19.4,46.8-44.9,47.7c-25.8,.9-47.3-19.4-48-45.2s19.8-47.2,45.5-47.7Z"/>
  <path class="cls-1" d="M375.8,171c10.1,1.6,11.4,1.7,14.6,12.1,1.1,3.6,2.2,7.4,3.2,11-1.2,2.1-4.3,6.1-5.8,8.1l-.4,.6c-1.6,.4-6.2-1.3-7.6-2-4.5-2.2-7.9-16.5-9-21.6,2-2.8,3.4-5.2,5-8.2h0Z"/>
  <path class="cls-1" d="M337.7,202.5c2.3-.5,5.1,2.1,6.9,3.4,10.9,8.2,12.3,5.8,11.7,19.5-3,1.1-5.7,2-8.8,2.9-3.6-.3-14.2-9.1-18.6-11.7v-11.8l8.7-2.3h.1Z"/>
  <path class="cls-1" d="M338.3,171.6h.9c1.6,1.7,4,5.9,5.3,8-.6,3.8-4,16-6.3,19.3-1.8,2.5-7,2.9-10.1,3.4-2-1.2-5.4-6.5-6.6-8.7,1.7-6,4.6-13.8,7-19.4,2.8-.9,6.8-1.8,9.7-2.5l.1-.1Z"/>
  <path class="cls-1" d="M376.4,202.9c4.1-.5,6.2,1,9.5,3,1,9.5,.9,11-7.3,16.4-3.2,2.1-6,4.5-9.7,6.1-3.2,0-6.8-1.8-9.8-3.1-.4-8.3,.4-11.6,7.8-16.4,3.2-2,6-4.3,9.5-6Z"/>
  <path class="cls-1" d="M350.6,161c5.6-.3,11.9-.1,17.5-.1l6.1,8.5c-1.5,2.4-3.2,5.4-5.1,7.4-1.6,1.7-2.3,1.4-4.5,1.4h-17.1c-2.4-2.6-4.2-4.9-6.2-7.8,2.3-4.9,3.7-8.3,9.4-9.4h-.1Z"/>
  <path class="cls-1" d="M342.4,153.6h.5c4,5,0,10.2-3.7,13.9-3.3,3.2-8.2,3.9-12.8,3.6-1.4-1-2.1-1.8-3.3-3,4.7-7.4,11.5-10.9,19.3-14.4v-.1Z"/>
  <path class="cls-1" d="M314.1,195.3c1.6,0,3.2,.1,4.8,.2,6,4.8,11.1,14.9,6,21.9-.9,.8-1.1,1-2.3,1.5-6.5-.7-8.5-18.5-8.6-23.7l.1,.1Z"/>
  <path class="cls-1" d="M399.1,195.3c1.3,0,1.2-.2,2,.5,1.5,5.3-3.4,21.7-8,23.7l-.8-.4c-1.2-1-2.4-2.1-3.6-3.2-.2-5.8-.6-9.7,2.9-15,2-3,3.9-4.9,7.5-5.6Z"/>
  <path class="cls-1" d="M371.7,153.5c9.4,2.3,14.3,6.8,20.6,13.9l-2.3,2.1c-5.9,4-13.4-1.3-17-6.1-2.6-3.4-1.9-5.9-1.3-9.9h0Z"/>
  <path class="cls-1" d="M358.1,228.4c6.9-.6,10.2,2.3,12.1,8.7-4.5,.8-7.6,1.2-12.1,1.2s-8.1-.3-12.7-1.2c.4-1.9,.9-4,1.4-5.8,4.4-1.5,6.9-2.4,11.4-2.9h-.1Z"/>
  <path d="M575.3,19c13.5-.5,16.5,.7,28.6,2.8v18.5c-13.3-2.3-33.4-4.6-42.8,7.8-5.7,7.4-5.5,21.4,2.9,26.8,9.7,6.2,28.5,4.2,39.5,2.1-.9,6.8-1,13.4-3.6,19.9-1.4,1.4-4,1.5-5.9,1.6-27.7,2.3-67.7,2.1-70.2-34.5-2.2-31.5,24.3-43.6,51.6-45h-.1Z"/>
  <path d="M248.3,499.4c-2.5-8.4-9.8-22.4-17.5-27.2-3.4-2.1-7-2.1-10.7-1.8-8.2,1.8-23.4,9.6-28,16.7-6.7,10.5,3.7,27.8,10.2,36,4.3,5.5,9.6,7.5,16.5,6.9,8.4-1.8,22.9-9.2,28-16.7,2.5-3.7,2.9-9.6,1.6-14l-.1,.1Zm-31,16.6c-8.3,1.3-16.8-13.8-13.5-20.6,2.4-5,12.2-9.4,17.3-11,8-.6,11.5,6.8,14,13.2,3.9,10-10.4,16.4-17.9,18.4h.1Z"/>
  <path class="cls-2" d="M26.4,145.3s.2,0,.2-.1c0,0-.2,0-.2,.1Z"/>
  <path class="cls-2" d="M44.9,146.8c-.7-1-1.4-1.8-2.3-2.6,.8,.7,1.6,1.6,2.3,2.6Z"/>
  <path class="cls-2" d="M17.9,152.2c1.3-2.1,3.7-4.1,6.4-5.8-3,1.8-5.6,3.9-6.7,6.2-2.5,5.1,1.6,14.9,7.4,18.9-5.1-4-10.4-13.9-7-19.4l-.1,.1Z"/>
  <path class="cls-2" d="M24.9,146.1c.2,0,.3-.2,.5-.3-.2,0-.3,.2-.5,.3Z"/>
  <path class="cls-2" d="M35.9,141.6h-1c-2,.6-4.8,1.7-7.5,3.1,2.8-1.4,5.6-2.4,7.8-3.1h.7Z"/>
  <path class="cls-2" d="M29.3,173.3h1.8c3.6-1,9-3,13-6-4,2.8-9.3,5-12.9,5.9h-1.8l-.1,.1Z"/>
  <path class="cls-2" d="M49.5,159.5c.2-1.3,.1-2.6-.3-4,.3,1.4,.4,2.7,.3,4Z"/>
  <path d="M62,156.6c-2.5-8.4-9.8-22.4-17.5-27.2-3.4-2.1-7-2.1-10.7-1.8-8.2,1.8-23.4,9.6-28,16.7-6.7,10.5,3.7,27.8,10.2,36,4.3,5.5,9.6,7.5,16.5,6.9,8.4-1.8,22.9-9.2,28-16.7,2.5-3.7,2.9-9.6,1.6-14l-.1,.1Zm-12.5,2.9c-.5,3-2.7,5.6-5.5,7.7-4,3-9.3,5-13,6h-1.8c-1.5-.2-2.9-.8-4.3-1.7-5.8-4-9.9-13.8-7.4-18.9,1.1-2.3,3.7-4.4,6.7-6.2,.2-.1,.4-.2,.6-.4,.2,0,.3-.2,.5-.3,.3-.2,.7-.4,1-.5,0,0,.2,0,.2-.1,.3-.1,.5-.3,.8-.4,2.7-1.4,5.5-2.5,7.5-3.1h1c2.7,0,4.9,1,6.7,2.6,.8,.7,1.6,1.6,2.3,2.6,1.7,2.4,3,5.3,4,8.1,0,.2,.2,.4,.2,.7,.4,1.4,.5,2.8,.3,4l.2-.1Z"/>
  <path d="M574.6,365.9c-6.4-3.2-10.5-5.4-18.1-4.8-8.1,2.1-11.9,9.8-15.6,16.7-3.8,7-7.6,14-11.3,21,11.9,7,25.4,13.7,37.6,20.5l5.4,2.8c2.4-4.4,5.6-10.5,7.9-14.5,10.5-18.3,17.3-29.9-6-41.6l.1-.1Zm-5.5,39.2l-1.9-.9c-6.6-3.3-15.1-8.2-21.8-11.8,2.7-5.2,7.1-15.6,11.9-18.3,6.4-.5,16.5,5.3,20.2,10.3,2.2,3-6.4,19.6-8.5,20.7h.1Z"/>
  <path d="M450.6,637.7c-3.1-10.4-23.1-20.5-33.3-19.4-6.4,1.8-10.3,6.5-13.3,12.2-4.3,8.3-9.7,17.2-13.7,25.4,12.1,6.8,24.5,13.3,36.7,20,2,1.1,4.2,2.2,6.1,3.4,3.1-5.3,6.4-11.4,9.2-16.7,3.6-6.6,10.5-17.2,8.3-24.9h0Zm-16.8,17.8c-1.2,2.3-2.2,4.6-3.7,6.8-1,.1-1-.1-2.1-.8-7.2-4.1-14.6-7.8-21.8-12,2.7-5.4,6.8-15.1,11.7-18.2,3.6-.3,6.3,.7,9.5,2.3,4,2,9.9,4.5,11,9.4,.9,4.1-2.7,9-4.6,12.5Z"/>
  <path d="M606.3,318.1c-7.2-3.8-12.4-7.8-21.1-7.6-5.9,.9-10,4.2-13.2,9-7.7,11.6-16.9,28.1-1.3,37.9,7.2,4.5,15.7,10.1,24.5,9.7,7.3-1.7,10.9-5.9,14.7-11.9,8.6-13.6,13.8-27.9-3.6-37.2v.1Zm-10.9,35.7c-3.1,.1-4.3-.2-7.1-1.3-12.9-5.3-18.5-10.6-9.3-23.6,1.9-2.7,2.9-3.7,6.1-5.1,6-.1,16.7,5.2,19.7,10.4,3.2,5.6-4.4,17-9.5,19.5l.1,.1Z"/>
  <path d="M465.5,574.5c-7.4-3.8-12.3-7.5-21.1-6.8-8.5,2.5-12,8.7-16,15.7-11.3,19.6-5.2,28.9,14,37.7,5.7,2.6,8.4,3.4,14.7,2.9,7.2-1.8,10.8-7.4,14.3-13.2,8.8-14.5,11.6-27.3-5.9-36.3h0Zm-10.3,36.5c-5.7,0-17.9-5.8-19.8-11.2-2.2-6.1,5-17.2,10.9-19.1,5.9,.7,17.5,5.9,19.5,11.5,2.1,5.7-5,16.8-10.7,18.7l.1,.1Z"/>
  <path d="M207.5,424.8c-2.7-6.6-6.1-12.1-9.4-18.4-2.6-4.7-5.7-11-8.5-15.4l-.7-.2c-14.9,8.3-30.3,16.3-45.1,24.6,1.8,3.2,5.3,9.2,6.7,12.3,4.6-2.6,10.4-6,15-8.2,2.4,4.1,10.6,17.6,10.3,21.6-1.1,2.1-5.9,4.2-8.1,5.4-1.7,.9-3.7,1.9-5.3,2.9,2.1,4.2,4.3,8.2,6.6,12.3,1.7-.9,3.5-1.8,5.2-2.7,6.1-3.5,11.7-4.7,13-12.5,3.2,.3,5.3,.6,8.4-.3,10.2-2.9,16.3-10.7,11.9-21.4h0Zm-21,9.6c-3.4-3.7-9.2-15.1-11.5-20,3.7-2,7.2-3.9,11-5.8,1.6,1.5,8,14.1,9.1,16.6,2.8,6-2,10.3-8.6,9.2h0Z"/>
  <path d="M146.1,311.8c-2.5-6.4-6.2-12-9.4-18.1-2.8-5.2-5.6-10.8-8.7-15.8l-.5-.2-45.2,24.5,6.9,12.4c3.3-2.4,11.2-6.4,15-8.4,3.3,6.3,9,15.4,11,21.8-3,2.4-5.8,3.8-9.2,5.5-1.7,1-3.4,1.8-5,3l6.7,12c2.7-1.4,5.5-2.9,8.2-4.3,5-2.8,9.4-4.7,10-11,7,.8,10.9,0,16.6-4.4s6.2-10.7,3.7-17h-.1Zm-11.4,4.3c-1.1,3.8-5.5,6-9.9,4.9-2.8-2.4-9.4-15.8-11.3-19.8,3.4-1.6,7.4-4,10.8-5.8,1.2,.8,11,18.6,10.4,20.7h0Z"/>
  <path d="M651.5,173.7c14.2,7.3,28.9,15.6,43.1,23.3-1.4,3.2-3.9,7.7-5.7,10.7-9.2-5.2-18.8-10.2-28.1-15.3,6.6,8.6,14.7,18.8,21.8,27-2,3.9-4.1,7.6-6.2,11.5-11.5-1.4-22.8-2.5-34.2-3.8,3.5,2.2,8.3,4.7,12,6.7,5,2.8,10.8,6.1,15.9,8.6-1.8,3.6-3.7,7-5.7,10.5-5.6-2.7-11.7-6.2-17.3-9.2l-25.8-14c2.8-5,5.4-10.2,8.2-15.2,10.6,.4,26.2,2.8,37.4,3.9-7.7-9.9-15.7-19.7-23.6-29.4,2.6-5.2,5.5-9.9,8.1-15.2l.1-.1Z"/>
  <path d="M532.3,496.9c1.9-4.1,4.5-8.1,6.1-12-6.2-3.1-14.7-10.1-21.3-6.5-.6-.6-.7-1-1-1.8-1.2-3.6-5.5-6.5-8.8-8-2.5-1.1-4.5-1.6-7.3-1.7-4.6,.7-7.8,2.9-10.5,6.7-6.6,9.4-11.7,22.4-17.9,31.8,4.6,2.5,41.6,22.9,43.1,22.7,1.5-1.5,5.8-9.1,5.9-11-4.5-2.5-9.3-5.3-13.9-7.5,2.4-4.5,8.4-16.7,11.6-19.8,3.4,.9,10.9,4.9,13.8,7.1h.2Zm-29.8-.3c-1,1.8-3.3,7.4-4.7,8l-1.4-.6-8.9-4.9c2.5-4.7,8-17.1,12-19.1,12.4,1.6,7.1,9.6,2.9,16.6h.1Z"/>
  <path d="M84.5,197.5c-2.8-4.1-9.3-19.1-11.9-21.5-14.6,7.9-30.9,16.4-45.2,24.6,2.1,4.4,4.3,8.1,6.4,12.3,4.7-2.5,9.5-5.1,14.1-7.8l7.1,13c9.3,16.7,18.6,20.7,33.7,6.5,7.1-6.7,.3-20.8-4.1-27.1h-.1Zm-15.5,21.7c-3.3-3.1-9-14.8-11.2-19.3,3.6-1.8,7.6-4.1,11.3-6l.5,.2c2.9,4.6,5.6,9.9,8.1,14.7,3.6,7.1-1.7,11.3-8.7,10.4h0Z"/>
  <path d="M100.9,227.7c1.3,2,2.7,4.6,3.8,6.8,5.9,11.8,13.6,23.6,19,35.5-3.3,1.7-6.5,3.4-9.8,5.2-5.4-10-10.9-19.9-16.2-29.9-2.9,1.7-5.6,3-8.6,4.5,5.3,10,10.9,20,16.2,30-2.8,1.4-6.2,3-8.6,4.9-3.1-5.9-6.7-12.3-9.9-18.2l-6.4-11.9c-2.9,1.7-5.6,3.1-8.6,4.6,5.5,9.6,11,20.3,16.3,30.1-3.4,1.8-6.5,3.5-9.8,5.4l-23-42.4c4.4-2,11-5.9,15.3-8.2l30.2-16.4h.1Z"/>
  <path d="M279.7,557.5l-57.3,2.5c1.4,2.6,5.9,10.5,6.7,12.8,3.6-.2,7.9-.3,11.5-.7,2.9,6.9,9.3,17.1,12.9,24.3l-1.4,2.1c-1.4,2-3.8,5-4.9,7.1,1.9,3.8,5,8.9,6.6,12.4,2.6-4.1,6.2-8.9,9.1-13l15.9-22.3c2.5-3.6,6.4-8.6,8.5-12.3-1.1-1.9-6.6-12.5-7.5-13l-.1,.1Zm-19.2,29.1l-.5-.6c-2.6-5-5.3-9.9-8-14.8l14.5-.7,6.1-.2c-1.5,2.3-10.7,15.4-12.1,16.3Z"/>
  <path d="M167.7,350.4h-3.4c0,.1-54.3,2.4-54.3,2.4,1.8,3.4,5.2,9.4,6.6,12.7,3.7-.2,7.7-.4,11.4-.7,3.1,6.6,9.5,18,13.2,24.5l-2.6,3.6c-1.2,1.7-2.8,3.7-3.8,5.5,2.1,4.1,4.4,8.5,6.8,12.5,1.4-2.7,5.4-8.1,7.4-10.8l16.8-23.5c2.5-3.4,7.2-9.7,9.1-13.2-2.3-4.3-4.6-8.7-7-12.9l-.2-.1Zm-19.4,29.1l-.2,.3-2.1-3.9-6.3-11.9,18.6-.9c.9,0,.6-.1,1.4,0-.2,1.7-9.5,13.5-11.3,16.3l-.1,.1Z"/>
  <path d="M604.9,259.7c3.2,1.4,6.5,3.4,9.6,5.1-2,4.8-14.8,25.9-14,28.7,1.3,1.9,3.3,2.6,5.4,3.5,10.2-8.3,9.7-33.2,29.6-22.6,15.4,8.1,7.6,18,1.5,29.1l-10.5,19.3c-3.3-1.5-6.4-3.4-9.6-5.2,1.9-3.5,15.2-26.7,14.8-28.9-.2-1.2-2.3-3.4-3.5-3.8-6.3-2.1-11.1,20.8-20.3,24.1-3.7,1.3-7.7,0-11.1-1.6-3.7-1.8-7.9-4.6-9.2-8.8-.6-2.1-.4-4.2,.3-6.3,1.4-4.6,4.2-9,6.5-13.2,3.5-6.4,7.1-12.8,10.4-19.2l.1-.2Z"/>
  <path d="M537.6,425.2c-7.2-.3-14.4-.5-21.6-.9-2.1,3.5-5.2,8.9-6.7,12.6,1.8,3.3,5.6,8.3,7.9,11.5l14.8,20.8c2.6,3.6,6.3,8.4,8.5,12.1,2.2-4,4.7-8,6.6-12.2-1.5-2-3.2-4.4-4.8-6.3-.4-.7-1.3-1.7-1-2.4,3.4-7,8.6-15.9,12.1-22.7,3.2,.1,7.4,.2,10.6,.5,2.2-3.9,4.2-7.6,6.2-11.6-10.8-.1-21.7-1-32.5-1.4h-.1Zm-.3,21.2l-2.9,5.5c-1.8-2.6-10.6-13.6-11.1-15.7,6.1,.6,12.7,.7,18.8,.9-1.5,3.1-3.2,6.3-4.8,9.4v-.1Z"/>
  <path d="M467.5,512.8c.2,0,.5,.2,.7,.3,8.4,4.2,16.7,8.9,24.9,13.3,3.9,2.1,8.9,5.6,10.5,9.9,2.1,5.8,.1,12.6-2.5,17.8-3.6,7-8,15.7-16,18.4-7.4,2.4-16.6-3.6-22.9-7.1l-12.5-6.8c-1.4-.9-3.5-1.9-5-2.7,1.6-3.5,4.3-8.2,6.2-11.6,5.3,2.9,27.8,16.7,32.6,15.7,1.7-.3,3-1.9,4-3.2,2.1-3,6.2-9.3,5.4-13.1-.4-2-2.2-3.6-3.7-4.7-2.7-2.1-6.1-3.6-9.1-5.2-6.1-3.2-12.3-6.4-18.2-10,1.4-2.4,5.1-8.6,5.7-11h-.1Z"/>
  <path d="M301.7,620c12.3-1.2,16.8,8.1,21.8,17.3,3.1,5.7,6.2,11.4,9.2,17.3-3.2,1.7-6.9,3.5-9.8,5.5-3.6-6.6-7.2-13.2-10.8-19.8-1.2-2.1-3.7-5.9-6.1-6.5-3.8-.9-10.6,2.9-14.1,4.8-3.7,2-6.7,4.5-7.8,8.6,.8,5.7,10,19.7,13,26.7-3.1,1.8-6.6,3.6-9.7,5.3-5-7.7-12.6-22.3-15.5-30.8-5-14.5,18.8-26.4,30-28.5l-.2,.1Z"/>
  <path d="M643.8,75.1c28.1-.4,34,24,.7,26.1-27.5,.4-35.2-24.2-.7-26.1Z"/>
  <path d="M426.8,75.1c6.8,0,12.4,.6,18.2,4.5,4.7,3.3,7.5,9.2,3.4,14.1-4.5,5.3-13.2,6.7-19.7,7.4-6.8,.2-14.9-1.1-20.1-5.4-11-9.1-.3-18,9.6-19.6,3.3-.5,5.3-.8,8.6-1Z"/>
  <path d="M147.6,31.4c-12.2-9.9-30.5-12.9-45.8-12.1-16.1,1.1-31.6,4.9-42.9,17.3-12.6,13.9-11.8,37.5,2.5,49.8,12.5,10.8,30.3,13.7,46.3,13h.2c16.5-1.2,32.1-5.2,43.6-17.9,12.4-13.7,10.2-38.7-4-50.2l.1,.1Zm-42.4,49.3c-11.8,.3-21.5-9.1-21.7-20.9-.2-11.8,9.2-21.5,21-21.6,11.7-.1,21.3,9.2,21.5,20.9,.2,11.7-9.1,21.3-20.8,21.6Z"/>
  <path d="M369.7,26.5c-.5-1.5-1.6-3.9-3.1-4.4-4.6-1.9-11.9-1.4-17-1.3-9.4,.2-19.4,.2-28.7,.6-2.8,4.8-5.6,11.2-8.1,16.3l-13.8,28.6-9.9,20.3c-1.5,3-4,8-5,11,12.8,.1,26.3-.2,39.1,.2,1-1.9,4.9-9.9,6-11.1l22.2-.4c1.7,3.2,4.8,8.4,6.2,11.5h22.9c3.5,0,9.5-.2,12.9,.2-8.4-23.5-16.1-47.6-23.7-71.3v-.2Zm-29.2,42.2h-6.1c1.9-8.9,5.9-20.5,8.4-29.7,1.1,1.9,5.2,26.4,5.5,29.8h-7.7l-.1-.1Z"/>
  <path d="M213.5,78.9c-6.7-3.6-14.4-4.3-21.8-3.6-31.9,4.2-17.8,29.3,10.7,25.3,5.8-1.3,13-3.2,16.5-8.4,3.5-5.2-.7-10.8-5.4-13.3Z"/>
  <path d="M218.6,445c.7,.3,6,10.4,6.8,11.9-2.5,1.5-5.1,3-7.7,4.4-12.6,6.5-24.9,14.1-37.6,20.3h-.2c-.9-.8-5.7-10.2-6.6-11.9,4.5-2.9,12.2-6.7,17.1-9.4,9.3-5.1,18.9-10.4,28.2-15.2v-.1Z"/>
  <path d="M638.6,245.9c3.2,1.7,5.2,2.6,8.2,4.7-3.5,5.7-7.3,13.4-10.5,19.4-2.6-1.3-5.5-2.9-7.9-4.5,2.1-5,7.5-14.3,10.3-19.6h-.1Z"/>
  <path d="M266.6,616.5c1.2,.6,5.4,9.3,6.1,10.8-3.4,1.8-7.2,3.8-10.3,5.9-1-.7-5.2-9.3-6-11,3.6-1.9,6.8-3.6,10.3-5.7h-.1Z"/>
  <path d="M676.8,127.5c3.2,1.4,6.5,3.4,9.6,5.1-2,4.8-14.8,25.9-14,28.7,1.3,1.9,3.3,2.6,5.4,3.5,10.2-8.3,9.7-33.2,29.6-22.6,15.4,8.1,7.6,18,1.5,29.1l-10.5,19.3c-3.3-1.5-6.4-3.4-9.6-5.2,1.9-3.5,15.2-26.7,14.8-28.9-.2-1.2-2.3-3.4-3.5-3.8-6.3-2.1-11.1,20.8-20.3,24.1-3.7,1.3-7.7,0-11.1-1.6-3.7-1.8-7.9-4.6-9.2-8.8-.6-2.1-.4-4.2,.3-6.3,1.4-4.6,4.2-9,6.5-13.2,3.5-6.4,7.1-12.8,10.4-19.2l.1-.2Z"/>
</svg>