<?xml version="1.0" encoding="utf-8"?>
<!-- Generator: Adobe Illustrator 26.0.0, SVG Export Plug-In . SVG Version: 6.00 Build 0)  -->
<svg version="1.1" id="Camada_1" xmlns="http://www.w3.org/2000/svg" xmlns:xlink="http://www.w3.org/1999/xlink" x="0px" y="0px"
	 viewBox="0 0 203.6 259.5" style="enable-background:new 0 0 203.6 259.5;" xml:space="preserve">
<style type="text/css">
	.st0{fill:#FFFFFF;}
	.st1{clip-path:url(#SVGID_00000003793400579636113940000009531932005737118611_);fill:#007B31;}
	.st2{fill:none;stroke:#007B31;stroke-width:3.6148;stroke-miterlimit:4;}
	.st3{fill:#094C98;}
	.st4{fill:#FFCC00;}
	.st5{fill:none;stroke:#000000;stroke-width:1.8074;stroke-miterlimit:4;}
	.st6{fill:#007B31;}
	
		.st7{clip-path:url(#SVGID_00000013903840471351139470000012544915291186289071_);fill:#FFFFFF;stroke:#000000;stroke-width:0.4518;stroke-miterlimit:4;}
	.st8{clip-path:url(#SVGID_00000141446898276520501740000014338644215632715668_);fill:none;}
	.st9{clip-path:url(#SVGID_00000170993005101337558180000003739296572341521033_);}
	.st10{clip-path:url(#SVGID_00000024002825597331849840000016223412869177464752_);fill:none;}
	.st11{clip-path:url(#SVGID_00000025413194327077016950000007798526051621279873_);}
	.st12{clip-path:url(#SVGID_00000054241760966963630230000007522213478562170513_);fill:none;}
	.st13{clip-path:url(#SVGID_00000136403223128161699710000001304277422433669545_);}
	.st14{clip-path:url(#SVGID_00000011750937720413737170000005140763992610910373_);fill:none;}
	.st15{clip-path:url(#SVGID_00000052101019053806098540000016419603401600762765_);}
	.st16{clip-path:url(#SVGID_00000143608578437939554140000012660299646137897358_);fill:none;}
	.st17{clip-path:url(#SVGID_00000162344279348525871020000000913663469467824060_);}
	.st18{clip-path:url(#SVGID_00000060748794599163549130000017016472661169381271_);fill:#FFFFFF;}
	.st19{clip-path:url(#SVGID_00000131348397976960067010000008585240192812151227_);}
	
		.st20{clip-path:url(#SVGID_00000073700268980060134430000003026012884740524689_);fill:#FFFFFF;stroke:#000000;stroke-width:0.4518;stroke-miterlimit:4;}
	.st21{clip-path:url(#SVGID_00000150084311395771782970000011444551007591089050_);}
	.st22{clip-path:url(#SVGID_00000076566595861374629370000003133120330744376204_);fill:none;}
	.st23{clip-path:url(#SVGID_00000057840832716072407830000017065118975321436806_);}
	.st24{clip-path:url(#SVGID_00000182490132697543097190000007584613415758369718_);}
	.st25{clip-path:url(#SVGID_00000111167151365063819220000016065533104312372154_);}
	.st26{clip-path:url(#SVGID_00000139288645408919473700000008664587879879192240_);fill:none;}
	.st27{clip-path:url(#SVGID_00000075848932479175071390000008207745050998560647_);}
	.st28{clip-path:url(#SVGID_00000020375463795205058640000002592445476925917364_);}
	.st29{clip-path:url(#SVGID_00000104687429274552152380000010668657719394391425_);}
	.st30{clip-path:url(#SVGID_00000170985274834441222280000017998522341236562075_);fill:none;}
	.st31{clip-path:url(#SVGID_00000029028169219530219540000009818783096587178668_);}
	.st32{clip-path:url(#SVGID_00000088095547149104579450000002275895270582920082_);}
	.st33{clip-path:url(#SVGID_00000005266465574319431610000005142212614543899070_);}
	.st34{clip-path:url(#SVGID_00000129919642429779634750000013718853742697191841_);fill:none;}
	.st35{clip-path:url(#SVGID_00000019666091486752125020000018231746957979273362_);}
	.st36{clip-path:url(#SVGID_00000114756008267781227640000018294027197083870339_);}
	.st37{clip-path:url(#SVGID_00000060741821003322958430000002621845054439182507_);}
	.st38{clip-path:url(#SVGID_00000041271019861577336230000017793290271429109908_);fill:none;}
	.st39{clip-path:url(#SVGID_00000153676722307164792540000004467075784645665724_);}
	.st40{clip-path:url(#SVGID_00000041973617118178746830000011642425525111960990_);}
	
		.st41{clip-path:url(#SVGID_00000006672029689519040560000017888442770125707162_);fill:none;stroke:#000000;stroke-width:0.4518;stroke-miterlimit:4;}
	.st42{clip-path:url(#SVGID_00000011028570217650900370000013321135889508727999_);fill:#FFFFFF;}
	.st43{clip-path:url(#SVGID_00000180366667299233232410000012466725964278576000_);fill:#FFFFFF;}
	.st44{fill:none;stroke:#000000;stroke-width:0.4518;stroke-miterlimit:4;}
	.st45{fill:none;}
	.st46{fill:none;stroke:#000000;stroke-width:0.9037;stroke-miterlimit:4;}
	.st47{fill:#FFFFFF;stroke:#000000;stroke-width:1.8074;stroke-miterlimit:4;}
	.st48{fill:#FFFFFF;stroke:#000000;stroke-width:0.9037;stroke-miterlimit:4;}
	.st49{fill:#FF0011;}
</style>
<path class="st0" d="M1.8,4.9h200v194.4c-0.1,7.4-3.2,20.3-11.5,28.7c-17,17.2-40.1,13-61.9,13c-13,0-20.1,4.4-26.6,15
	c-6.8-10.6-13-15-25.2-15c-16.2,0-54.4,6.2-68.7-20c-4.3-8-5.8-13.6-6-21.7L1.8,4.9L1.8,4.9L1.8,4.9z"/>
<g>
	<defs>
		<path id="SVGID_1_" d="M1.8,4.9h200v194.4c-0.1,7.4-3.2,20.3-11.5,28.7c-17,17.2-40.1,13-61.9,13c-13,0-20.1,4.4-26.6,15
			c-6.8-10.6-13-15-25.2-15c-16.2,0-54.4,6.2-68.7-20c-4.3-8-5.8-13.6-6-21.7L1.8,4.9L1.8,4.9L1.8,4.9z"/>
	</defs>
	<clipPath id="SVGID_00000037676079736586127020000003309310185015382662_">
		<use xlink:href="#SVGID_1_"  style="overflow:visible;"/>
	</clipPath>
	<polygon style="clip-path:url(#SVGID_00000037676079736586127020000003309310185015382662_);fill:#007B31;" points="1.8,145.4 
		201.8,20 201.8,96.4 1.8,219.7 	"/>
</g>
<path class="st2" d="M1.8,4.9h200v194.4c-0.1,7.4-3.2,20.3-11.5,28.7c-17,17.2-40.1,13-61.9,13c-13,0-20.1,4.4-26.6,15
	c-6.8-10.6-13-15-25.2-15c-16.2,0-54.4,6.2-68.7-20c-4.3-8-5.8-13.6-6-21.7L1.8,4.9L1.8,4.9L1.8,4.9z"/>
<polygon class="st3" points="45.7,218.2 188,218.2 183.2,225.4 45.7,225.4 "/>
<g>
	<polygon class="st4" points="112.9,41.5 116.2,51.8 127.1,51.8 118.3,58.1 121.7,68.4 112.9,62 104.2,68.4 107.6,58.1 98.8,51.8 
		109.6,51.8 	"/>
	<polygon class="st4" points="157.3,13.6 160.6,23.9 171.5,23.9 162.6,30.2 166,40.5 157.3,34.1 148.6,40.5 152,30.2 143.2,23.9 
		154,23.9 	"/>
	<polygon class="st4" points="29,90 32.3,100.4 43.2,100.3 34.4,106.6 37.8,117 29,110.5 20.3,117 23.7,106.6 14.9,100.3 
		25.7,100.4 	"/>
</g>
<polyline class="st5" points="183.1,212.1 172.6,121.5 165.1,121.5 154.9,210.6 "/>
<g>
	<path class="st6" d="M153.7,178.8c-2.1-3.5-4.9-5.3-9-5.4c-5.6-0.2-10.2,3.5-11.1,9l2.4,0.3c2.6-3.4,5.3-4.9,9.6-5.4
		C148.8,176.9,150.9,177.3,153.7,178.8L153.7,178.8z"/>
	<path class="st6" d="M149.2,166.8c-3.6-1.8-7.4-1.3-10.3,1.5c-3.3,3.1-3.8,7.9-1.2,11.6l4.3-0.3c-1.8-2.9-1.8-5.9,0-8.8
		C143.7,168.1,146,166.8,149.2,166.8L149.2,166.8z"/>
	<path class="st6" d="M137.8,162.3c-3.9,0.7-6.4,3.1-7.3,6.9c-1,4.4,1.1,8.6,5.3,10.4l3.5-2.6c-3.1-1.6-4.6-3.9-4.8-7.4
		C134.3,166.5,135.3,164.2,137.8,162.3L137.8,162.3z"/>
	<path class="st6" d="M114,180.3c2.5-0.4,4-0.5,6.5-0.5c4.6-0.1,7.2,0.2,11.6,1.2l-0.3-4.3c-3.4-0.6-5.4-0.6-8.8,0
		C119.3,177.4,117.2,178.2,114,180.3L114,180.3z"/>
	<path class="st6" d="M125.4,192c-0.3-2-0.1-3.3,0.8-5.1c1.6-3.1,4.2-4.6,7.7-4.5l-0.7-4.9c-4.2-0.8-8,1.3-9.6,5.2
		C122.2,186.2,122.9,189.4,125.4,192L125.4,192z"/>
	<path class="st6" d="M115.2,173.4c2-0.5,3.3-0.5,5.4-0.1c4.5,0.8,7.3,2.7,9.6,6.7l4.9-4.8c-3.7-2.4-6.4-3.3-10.8-3.4
		C120.7,171.6,118.5,172,115.2,173.4L115.2,173.4z"/>
	<path class="st6" d="M120.9,164.1c1.5,1,2.4,1.7,3.6,3c2.7,2.9,3.9,5.2,4.8,9.1l3.6-2.4c-0.3-3.4-1.5-5.6-4.3-7.7
		C126.2,164.2,124,163.7,120.9,164.1L120.9,164.1z"/>
</g>
<path class="st0" d="M65.4,210.9c0-14.7,11.9-26.7,26.7-26.7c14.7,0,26.7,11.9,26.7,26.7c0,14.7-11.9,26.7-26.7,26.7
	C77.4,237.5,65.4,225.6,65.4,210.9L65.4,210.9z"/>
<g>
	<defs>
		<path id="SVGID_00000106141393335664009380000003611861909188086704_" d="M65.4,210.9c0-14.7,11.9-26.7,26.7-26.7
			c14.7,0,26.7,11.9,26.7,26.7c0,14.7-11.9,26.7-26.7,26.7C77.4,237.5,65.4,225.6,65.4,210.9L65.4,210.9z"/>
	</defs>
	<clipPath id="SVGID_00000014624035838635519230000008544150863509710752_">
		<use xlink:href="#SVGID_00000106141393335664009380000003611861909188086704_"  style="overflow:visible;"/>
	</clipPath>
	
		<path style="clip-path:url(#SVGID_00000014624035838635519230000008544150863509710752_);fill:#FFFFFF;stroke:#000000;stroke-width:0.4518;stroke-miterlimit:4;" d="
		M65.4,210.9c0-14.7,11.9-26.7,26.7-26.7c14.7,0,26.7,11.9,26.7,26.7c0,14.7-11.9,26.7-26.7,26.7C77.4,237.5,65.4,225.6,65.4,210.9
		L65.4,210.9z"/>
</g>
<g>
	<defs>
		<path id="SVGID_00000012446699600795430260000014792974085421489318_" d="M65.4,210.9c0-14.7,11.9-26.7,26.7-26.7
			c14.7,0,26.7,11.9,26.7,26.7c0,14.7-11.9,26.7-26.7,26.7C77.4,237.5,65.4,225.6,65.4,210.9L65.4,210.9z"/>
	</defs>
	<clipPath id="SVGID_00000038403132967436774850000005246830049231889077_">
		<use xlink:href="#SVGID_00000012446699600795430260000014792974085421489318_"  style="overflow:visible;"/>
	</clipPath>
	<path style="clip-path:url(#SVGID_00000038403132967436774850000005246830049231889077_);fill:none;" d="M106.9,226.5l4.1,0.7
		c-1.6,2.6-2.1,4.6-1.9,7.7c0.1,2.4,0.6,3.8,1.8,5.9l-3.5,2.4c-1.4-2.3-2.7-3.4-5.1-4.6c-2.1-1-3.5-1.3-5.9-1.2l0-4.4
		c2.3-0.2,3.7-0.6,5.7-1.7C104.4,229.8,105.6,228.7,106.9,226.5L106.9,226.5z"/>
</g>
<g>
	<defs>
		<path id="SVGID_00000080167739408793167280000015674505275439863710_" d="M65.4,210.9c0-14.7,11.9-26.7,26.7-26.7
			c14.7,0,26.7,11.9,26.7,26.7c0,14.7-11.9,26.7-26.7,26.7C77.4,237.5,65.4,225.6,65.4,210.9L65.4,210.9z"/>
	</defs>
	<clipPath id="SVGID_00000132084067959285220670000013458644577455399339_">
		<use xlink:href="#SVGID_00000080167739408793167280000015674505275439863710_"  style="overflow:visible;"/>
	</clipPath>
	<path style="clip-path:url(#SVGID_00000132084067959285220670000013458644577455399339_);" d="M107.3,228l1.7,0.4
		c-0.9,2.3-1.2,3.7-1.1,6.2c0,2.2,0.3,3.5,1.1,5.6l-1.5,0.8c-1.4-1.8-2.5-2.6-4.6-3.6c-1.8-0.9-3-1.2-5-1.4l0-1.9
		c2.1-0.3,3.2-0.8,5-1.9C105,231,106,230,107.3,228L107.3,228z"/>
</g>
<g>
	<defs>
		<path id="SVGID_00000084488786271714699080000000288825343303279269_" d="M65.4,210.9c0-14.7,11.9-26.7,26.7-26.7
			c14.7,0,26.7,11.9,26.7,26.7c0,14.7-11.9,26.7-26.7,26.7C77.4,237.5,65.4,225.6,65.4,210.9L65.4,210.9z"/>
	</defs>
	<clipPath id="SVGID_00000157269675866518987590000013932982506470603148_">
		<use xlink:href="#SVGID_00000084488786271714699080000000288825343303279269_"  style="overflow:visible;"/>
	</clipPath>
	<path style="clip-path:url(#SVGID_00000157269675866518987590000013932982506470603148_);fill:none;" d="M83.7,227.4l-3.9,0
		c-0.2,2.6-0.6,4.2-1.8,6.5c-0.7,1.4-1.2,2.2-2.3,3.4l7.1,6c1.4-2.3,2.7-3.4,5.1-4.6c2.1-1,3.5-1.3,5.9-1.2l0-4.4
		c-2.3-0.2-3.7-0.6-5.7-1.7C86.1,230.3,85,229.3,83.7,227.4L83.7,227.4z"/>
</g>
<g>
	<defs>
		<path id="SVGID_00000086664825435712481730000016297237420956246433_" d="M65.4,210.9c0-14.7,11.9-26.7,26.7-26.7
			c14.7,0,26.7,11.9,26.7,26.7c0,14.7-11.9,26.7-26.7,26.7C77.4,237.5,65.4,225.6,65.4,210.9L65.4,210.9z"/>
	</defs>
	<clipPath id="SVGID_00000139994392085620550670000007495641900044184479_">
		<use xlink:href="#SVGID_00000086664825435712481730000016297237420956246433_"  style="overflow:visible;"/>
	</clipPath>
	<path style="clip-path:url(#SVGID_00000139994392085620550670000007495641900044184479_);" d="M83.3,228.7h-2
		c-0.4,2.3-0.9,3.6-2,5.7c-0.7,1.2-1.1,1.9-2,2.9l5.5,3.9c1.4-1.8,2.5-2.6,4.6-3.6c1.8-0.9,3-1.2,5-1.4l0-1.9
		c-2.1-0.3-3.2-0.8-5-1.9C85.5,231.5,84.5,230.5,83.3,228.7L83.3,228.7z"/>
</g>
<g>
	<defs>
		<path id="SVGID_00000125561409682185854780000016881413115879322042_" d="M65.4,210.9c0-14.7,11.9-26.7,26.7-26.7
			c14.7,0,26.7,11.9,26.7,26.7c0,14.7-11.9,26.7-26.7,26.7C77.4,237.5,65.4,225.6,65.4,210.9L65.4,210.9z"/>
	</defs>
	<clipPath id="SVGID_00000179630527183472843490000015287140933013172133_">
		<use xlink:href="#SVGID_00000125561409682185854780000016881413115879322042_"  style="overflow:visible;"/>
	</clipPath>
	<path style="clip-path:url(#SVGID_00000179630527183472843490000015287140933013172133_);fill:none;" d="M58.3,211.5l2.3,3.7
		c1.9-1.2,3.3-1.6,5.5-1.7c2.4-0.1,3.9,0.2,6,1.4l2.2-3.7c-1.3-1.3-2-2.2-2.6-3.9c-0.8-2.2-0.9-3.6-0.3-5.9l-8.1-0.4
		c0,2.3-0.3,3.7-1.3,5.8C61,209,60.1,210.1,58.3,211.5L58.3,211.5z"/>
</g>
<g>
	<defs>
		<path id="SVGID_00000053518362978881372010000003964572514391890359_" d="M65.4,210.9c0-14.7,11.9-26.7,26.7-26.7
			c14.7,0,26.7,11.9,26.7,26.7c0,14.7-11.9,26.7-26.7,26.7C77.4,237.5,65.4,225.6,65.4,210.9L65.4,210.9z"/>
	</defs>
	<clipPath id="SVGID_00000060739949432406356180000013586253814042625944_">
		<use xlink:href="#SVGID_00000053518362978881372010000003964572514391890359_"  style="overflow:visible;"/>
	</clipPath>
	<path style="clip-path:url(#SVGID_00000060739949432406356180000013586253814042625944_);" d="M59.9,211.8l1.1,1.8
		c1.8-0.8,2.9-1.1,4.8-1.2c2.2-0.2,3.6,0,5.7,0.7l0.7-1.5c-1.2-1.5-1.7-2.5-2.2-4.3c-0.4-1.7-0.5-2.7-0.3-4.4l-5.1-0.3
		c-0.2,2.1-0.6,3.3-1.5,5.1C62.3,209.5,61.5,210.4,59.9,211.8L59.9,211.8z"/>
</g>
<g>
	<defs>
		<path id="SVGID_00000172398412156952740930000014063727756283992973_" d="M65.4,210.9c0-14.7,11.9-26.7,26.7-26.7
			c14.7,0,26.7,11.9,26.7,26.7c0,14.7-11.9,26.7-26.7,26.7C77.4,237.5,65.4,225.6,65.4,210.9L65.4,210.9z"/>
	</defs>
	<clipPath id="SVGID_00000023239117208859048230000006054783037663226293_">
		<use xlink:href="#SVGID_00000172398412156952740930000014063727756283992973_"  style="overflow:visible;"/>
	</clipPath>
	<path style="clip-path:url(#SVGID_00000023239117208859048230000006054783037663226293_);fill:none;" d="M68.6,196.4l4,1.6
		c0.8-2.1,1.7-3.2,3.5-4.6c2.3-1.8,4.2-2.4,7.1-2.3l0.1-4.2c-3.3,0.7-5.6,0.4-8.6-1.1c-2-0.9-3-1.8-4.5-3.4l-3.6,2.6
		c1.4,1.9,1.9,3.2,2.3,5.5C69.3,192.8,69.2,194.2,68.6,196.4L68.6,196.4z"/>
</g>
<g>
	<defs>
		<path id="SVGID_00000142178445505705997510000010496025620414005897_" d="M65.4,210.9c0-14.7,11.9-26.7,26.7-26.7
			c14.7,0,26.7,11.9,26.7,26.7c0,14.7-11.9,26.7-26.7,26.7C77.4,237.5,65.4,225.6,65.4,210.9L65.4,210.9z"/>
	</defs>
	<clipPath id="SVGID_00000176033071120191384110000009147561473840742844_">
		<use xlink:href="#SVGID_00000142178445505705997510000010496025620414005897_"  style="overflow:visible;"/>
	</clipPath>
	<path style="clip-path:url(#SVGID_00000176033071120191384110000009147561473840742844_);" d="M70,195.7l2,0.8
		c0.9-1.7,1.7-2.6,3.2-3.8c2.1-1.7,3.6-2.4,6.3-2.8l0.1-1.6c-2.9,0.3-4.7,0-7.4-1.2c-1.8-0.8-2.8-1.5-4.2-2.8l-1.5,1.1
		c1.1,1.8,1.5,3,1.8,5C70.6,192.4,70.5,193.6,70,195.7L70,195.7z"/>
</g>
<g>
	<defs>
		<path id="SVGID_00000088855477507868865970000004969251624177778598_" d="M65.4,210.9c0-14.7,11.9-26.7,26.7-26.7
			c14.7,0,26.7,11.9,26.7,26.7c0,14.7-11.9,26.7-26.7,26.7C77.4,237.5,65.4,225.6,65.4,210.9L65.4,210.9z"/>
	</defs>
	<clipPath id="SVGID_00000109030093325968314570000011532287939146177169_">
		<use xlink:href="#SVGID_00000088855477507868865970000004969251624177778598_"  style="overflow:visible;"/>
	</clipPath>
	<path style="clip-path:url(#SVGID_00000109030093325968314570000011532287939146177169_);fill:none;" d="M86,187.3l-0.1,3.6
		c2.4,0.5,3.9,1.3,5.6,3.1c1.3,1.4,1.9,2.4,2.4,4.3l4.2,0c0-2.5,0.4-4.1,1.6-6.3c1.2-2.1,2.2-3.1,4.1-4.4l-2.5-3.8
		c-2.4,1.3-3.9,1.9-6.5,2.6C91.5,187.2,89.5,187.5,86,187.3L86,187.3z"/>
</g>
<g>
	<defs>
		<path id="SVGID_00000152252944646006977160000011525815845878139035_" d="M65.4,210.9c0-14.7,11.9-26.7,26.7-26.7
			c14.7,0,26.7,11.9,26.7,26.7c0,14.7-11.9,26.7-26.7,26.7C77.4,237.5,65.4,225.6,65.4,210.9L65.4,210.9z"/>
	</defs>
	<clipPath id="SVGID_00000020365818030625710540000000754010708424794496_">
		<use xlink:href="#SVGID_00000152252944646006977160000011525815845878139035_"  style="overflow:visible;"/>
	</clipPath>
	<path style="clip-path:url(#SVGID_00000020365818030625710540000000754010708424794496_);" d="M87.1,188.7v1.4
		c2.4,0.4,3.8,1.1,5.5,2.9c1.3,1.3,1.9,2.3,2.4,4h2c0.1-1,0.2-1.6,0.5-2.6c0.8-3.1,1.9-4.8,4.4-6.8l-1.5-1.6c-1.8,1-2.9,1.5-5,2.1
		C92.2,188.8,90.3,189,87.1,188.7L87.1,188.7z"/>
</g>
<g>
	<defs>
		<path id="SVGID_00000002381486216636530510000002686222515704770999_" d="M65.4,210.9c0-14.7,11.9-26.7,26.7-26.7
			c14.7,0,26.7,11.9,26.7,26.7c0,14.7-11.9,26.7-26.7,26.7C77.4,237.5,65.4,225.6,65.4,210.9L65.4,210.9z"/>
	</defs>
	<clipPath id="SVGID_00000081628045278353499490000008931931483655766462_">
		<use xlink:href="#SVGID_00000002381486216636530510000002686222515704770999_"  style="overflow:visible;"/>
	</clipPath>
	<path style="clip-path:url(#SVGID_00000081628045278353499490000008931931483655766462_);fill:#FFFFFF;" d="M65.4,210.9
		c0-14.7,11.9-26.7,26.7-26.7c14.7,0,26.7,11.9,26.7,26.7c0,14.7-11.9,26.7-26.7,26.7C77.4,237.5,65.4,225.6,65.4,210.9L65.4,210.9z
		"/>
</g>
<g>
	<defs>
		<path id="SVGID_00000121996887211102419430000013731369338126282640_" d="M65.4,210.9c0-14.7,11.9-26.7,26.7-26.7
			c14.7,0,26.7,11.9,26.7,26.7c0,14.7-11.9,26.7-26.7,26.7C77.4,237.5,65.4,225.6,65.4,210.9L65.4,210.9z"/>
	</defs>
	<clipPath id="SVGID_00000157266720964526376270000009848052568362160319_">
		<use xlink:href="#SVGID_00000121996887211102419430000013731369338126282640_"  style="overflow:visible;"/>
	</clipPath>
</g>
<g>
	<defs>
		<path id="SVGID_00000101801443868356593250000007756335094043283133_" d="M65.4,210.9c0-14.7,11.9-26.7,26.7-26.7
			c14.7,0,26.7,11.9,26.7,26.7c0,14.7-11.9,26.7-26.7,26.7C77.4,237.5,65.4,225.6,65.4,210.9L65.4,210.9z"/>
	</defs>
	<defs>
		<path id="SVGID_00000150805448387779353100000017019563914442372527_" d="M65.4,210.9c0-14.7,11.9-26.7,26.7-26.7
			c14.7,0,26.7,11.9,26.7,26.7c0,14.7-11.9,26.7-26.7,26.7C77.4,237.5,65.4,225.6,65.4,210.9L65.4,210.9z"/>
	</defs>
	<clipPath id="SVGID_00000175312760144915345980000008739354738217583255_">
		<use xlink:href="#SVGID_00000101801443868356593250000007756335094043283133_"  style="overflow:visible;"/>
	</clipPath>
	
		<clipPath id="SVGID_00000080199614375060623050000009770342230070551448_" style="clip-path:url(#SVGID_00000175312760144915345980000008739354738217583255_);">
		<use xlink:href="#SVGID_00000150805448387779353100000017019563914442372527_"  style="overflow:visible;"/>
	</clipPath>
	
		<path style="clip-path:url(#SVGID_00000080199614375060623050000009770342230070551448_);fill:#FFFFFF;stroke:#000000;stroke-width:0.4518;stroke-miterlimit:4;" d="
		M65.4,210.9c0-14.7,11.9-26.7,26.7-26.7c14.7,0,26.7,11.9,26.7,26.7c0,14.7-11.9,26.7-26.7,26.7C77.4,237.5,65.4,225.6,65.4,210.9
		L65.4,210.9z"/>
</g>
<g>
	<defs>
		<path id="SVGID_00000166663985747374828950000002728640088567192195_" d="M65.4,210.9c0-14.7,11.9-26.7,26.7-26.7
			c14.7,0,26.7,11.9,26.7,26.7c0,14.7-11.9,26.7-26.7,26.7C77.4,237.5,65.4,225.6,65.4,210.9L65.4,210.9z"/>
	</defs>
	<defs>
		<path id="SVGID_00000079471087405407293260000017089727309495688854_" d="M65.4,210.9c0-14.7,11.9-26.7,26.7-26.7
			c14.7,0,26.7,11.9,26.7,26.7c0,14.7-11.9,26.7-26.7,26.7C77.4,237.5,65.4,225.6,65.4,210.9L65.4,210.9z"/>
	</defs>
	<clipPath id="SVGID_00000181079297991554452000000004072230482938775448_">
		<use xlink:href="#SVGID_00000166663985747374828950000002728640088567192195_"  style="overflow:visible;"/>
	</clipPath>
	
		<clipPath id="SVGID_00000173129353146202664020000003350726701430339992_" style="clip-path:url(#SVGID_00000181079297991554452000000004072230482938775448_);">
		<use xlink:href="#SVGID_00000079471087405407293260000017089727309495688854_"  style="overflow:visible;"/>
	</clipPath>
	<path style="clip-path:url(#SVGID_00000173129353146202664020000003350726701430339992_);fill:none;" d="M106.9,226.5l4.1,0.7
		c-1.6,2.6-2.1,4.6-1.9,7.7c0.1,2.4,0.6,3.8,1.8,5.9l-3.5,2.4c-1.4-2.3-2.7-3.4-5.1-4.6c-2.1-1-3.5-1.3-5.9-1.2l0-4.4
		c2.3-0.2,3.7-0.6,5.7-1.7C104.4,229.8,105.6,228.7,106.9,226.5L106.9,226.5z"/>
</g>
<g>
	<defs>
		<path id="SVGID_00000009561484155178564770000005444901143353122997_" d="M65.4,210.9c0-14.7,11.9-26.7,26.7-26.7
			c14.7,0,26.7,11.9,26.7,26.7c0,14.7-11.9,26.7-26.7,26.7C77.4,237.5,65.4,225.6,65.4,210.9L65.4,210.9z"/>
	</defs>
	<defs>
		<path id="SVGID_00000085949064546209033060000011006724189830694533_" d="M65.4,210.9c0-14.7,11.9-26.7,26.7-26.7
			c14.7,0,26.7,11.9,26.7,26.7c0,14.7-11.9,26.7-26.7,26.7C77.4,237.5,65.4,225.6,65.4,210.9L65.4,210.9z"/>
	</defs>
	<clipPath id="SVGID_00000111872381040750192430000008050384960723567038_">
		<use xlink:href="#SVGID_00000009561484155178564770000005444901143353122997_"  style="overflow:visible;"/>
	</clipPath>
	
		<clipPath id="SVGID_00000136402933080686701920000000424119909638744499_" style="clip-path:url(#SVGID_00000111872381040750192430000008050384960723567038_);">
		<use xlink:href="#SVGID_00000085949064546209033060000011006724189830694533_"  style="overflow:visible;"/>
	</clipPath>
	<path style="clip-path:url(#SVGID_00000136402933080686701920000000424119909638744499_);" d="M107.3,228l1.7,0.4
		c-0.9,2.3-1.2,3.7-1.1,6.2c0,2.2,0.3,3.5,1.1,5.6l-1.5,0.8c-1.4-1.8-2.5-2.6-4.6-3.6c-1.8-0.9-3-1.2-5-1.4l0-1.9
		c2.1-0.3,3.2-0.8,5-1.9C105,231,106,230,107.3,228L107.3,228z"/>
</g>
<g>
	<defs>
		<path id="SVGID_00000034791449896988030680000000497032639043969727_" d="M65.4,210.9c0-14.7,11.9-26.7,26.7-26.7
			c14.7,0,26.7,11.9,26.7,26.7c0,14.7-11.9,26.7-26.7,26.7C77.4,237.5,65.4,225.6,65.4,210.9L65.4,210.9z"/>
	</defs>
	<defs>
		<path id="SVGID_00000170974577119615603090000001241384909873436552_" d="M65.4,210.9c0-14.7,11.9-26.7,26.7-26.7
			c14.7,0,26.7,11.9,26.7,26.7c0,14.7-11.9,26.7-26.7,26.7C77.4,237.5,65.4,225.6,65.4,210.9L65.4,210.9z"/>
	</defs>
	<clipPath id="SVGID_00000039827714821140959430000014691580602511513016_">
		<use xlink:href="#SVGID_00000034791449896988030680000000497032639043969727_"  style="overflow:visible;"/>
	</clipPath>
	
		<clipPath id="SVGID_00000089544869362624008110000004531608615250630586_" style="clip-path:url(#SVGID_00000039827714821140959430000014691580602511513016_);">
		<use xlink:href="#SVGID_00000170974577119615603090000001241384909873436552_"  style="overflow:visible;"/>
	</clipPath>
	<path style="clip-path:url(#SVGID_00000089544869362624008110000004531608615250630586_);fill:none;" d="M83.7,227.4l-3.9,0
		c-0.2,2.6-0.6,4.2-1.8,6.5c-0.7,1.4-1.2,2.2-2.3,3.4l7.1,6c1.4-2.3,2.7-3.4,5.1-4.6c2.1-1,3.5-1.3,5.9-1.2l0-4.4
		c-2.3-0.2-3.7-0.6-5.7-1.7C86.1,230.3,85,229.3,83.7,227.4L83.7,227.4z"/>
</g>
<g>
	<defs>
		<path id="SVGID_00000165208470482143154470000000699727776510585754_" d="M65.4,210.9c0-14.7,11.9-26.7,26.7-26.7
			c14.7,0,26.7,11.9,26.7,26.7c0,14.7-11.9,26.7-26.7,26.7C77.4,237.5,65.4,225.6,65.4,210.9L65.4,210.9z"/>
	</defs>
	<defs>
		<path id="SVGID_00000087380701421466007060000018169821232604096953_" d="M65.4,210.9c0-14.7,11.9-26.7,26.7-26.7
			c14.7,0,26.7,11.9,26.7,26.7c0,14.7-11.9,26.7-26.7,26.7C77.4,237.5,65.4,225.6,65.4,210.9L65.4,210.9z"/>
	</defs>
	<clipPath id="SVGID_00000080196979975468782320000016903223061015543425_">
		<use xlink:href="#SVGID_00000165208470482143154470000000699727776510585754_"  style="overflow:visible;"/>
	</clipPath>
	
		<clipPath id="SVGID_00000150102781084792878190000001866532612286121623_" style="clip-path:url(#SVGID_00000080196979975468782320000016903223061015543425_);">
		<use xlink:href="#SVGID_00000087380701421466007060000018169821232604096953_"  style="overflow:visible;"/>
	</clipPath>
	<path style="clip-path:url(#SVGID_00000150102781084792878190000001866532612286121623_);" d="M83.3,228.7h-2
		c-0.4,2.3-0.9,3.6-2,5.7c-0.7,1.2-1.1,1.9-2,2.9l5.5,3.9c1.4-1.8,2.5-2.6,4.6-3.6c1.8-0.9,3-1.2,5-1.4l0-1.9
		c-2.1-0.3-3.2-0.8-5-1.9C85.5,231.5,84.5,230.5,83.3,228.7L83.3,228.7z"/>
</g>
<g>
	<defs>
		<path id="SVGID_00000096061767738713198900000009969057266020065416_" d="M65.4,210.9c0-14.7,11.9-26.7,26.7-26.7
			c14.7,0,26.7,11.9,26.7,26.7c0,14.7-11.9,26.7-26.7,26.7C77.4,237.5,65.4,225.6,65.4,210.9L65.4,210.9z"/>
	</defs>
	<defs>
		<path id="SVGID_00000175310560292338342400000015188850160981517745_" d="M65.4,210.9c0-14.7,11.9-26.7,26.7-26.7
			c14.7,0,26.7,11.9,26.7,26.7c0,14.7-11.9,26.7-26.7,26.7C77.4,237.5,65.4,225.6,65.4,210.9L65.4,210.9z"/>
	</defs>
	<clipPath id="SVGID_00000018202346096073890560000006893738613241082535_">
		<use xlink:href="#SVGID_00000096061767738713198900000009969057266020065416_"  style="overflow:visible;"/>
	</clipPath>
	
		<clipPath id="SVGID_00000017500431943186473610000017109991697378591923_" style="clip-path:url(#SVGID_00000018202346096073890560000006893738613241082535_);">
		<use xlink:href="#SVGID_00000175310560292338342400000015188850160981517745_"  style="overflow:visible;"/>
	</clipPath>
	<path style="clip-path:url(#SVGID_00000017500431943186473610000017109991697378591923_);fill:none;" d="M58.3,211.5l2.3,3.7
		c1.9-1.2,3.3-1.6,5.5-1.7c2.4-0.1,3.9,0.2,6,1.4l2.2-3.7c-1.3-1.3-2-2.2-2.6-3.9c-0.8-2.2-0.9-3.6-0.3-5.9l-8.1-0.4
		c0,2.3-0.3,3.7-1.3,5.8C61,209,60.1,210.1,58.3,211.5L58.3,211.5z"/>
</g>
<g>
	<defs>
		<path id="SVGID_00000063592694408290440060000006982992193700786050_" d="M65.4,210.9c0-14.7,11.9-26.7,26.7-26.7
			c14.7,0,26.7,11.9,26.7,26.7c0,14.7-11.9,26.7-26.7,26.7C77.4,237.5,65.4,225.6,65.4,210.9L65.4,210.9z"/>
	</defs>
	<defs>
		<path id="SVGID_00000014612261260098488360000003407996597831511685_" d="M65.4,210.9c0-14.7,11.9-26.7,26.7-26.7
			c14.7,0,26.7,11.9,26.7,26.7c0,14.7-11.9,26.7-26.7,26.7C77.4,237.5,65.4,225.6,65.4,210.9L65.4,210.9z"/>
	</defs>
	<clipPath id="SVGID_00000108290189462566870220000006039843495368047237_">
		<use xlink:href="#SVGID_00000063592694408290440060000006982992193700786050_"  style="overflow:visible;"/>
	</clipPath>
	
		<clipPath id="SVGID_00000037670803933553928120000001324554543316895417_" style="clip-path:url(#SVGID_00000108290189462566870220000006039843495368047237_);">
		<use xlink:href="#SVGID_00000014612261260098488360000003407996597831511685_"  style="overflow:visible;"/>
	</clipPath>
	<path style="clip-path:url(#SVGID_00000037670803933553928120000001324554543316895417_);" d="M59.9,211.8l1.1,1.8
		c1.8-0.8,2.9-1.1,4.8-1.2c2.2-0.2,3.6,0,5.7,0.7l0.7-1.5c-1.2-1.5-1.7-2.5-2.2-4.3c-0.4-1.7-0.5-2.7-0.3-4.4l-5.1-0.3
		c-0.2,2.1-0.6,3.3-1.5,5.1C62.3,209.5,61.5,210.4,59.9,211.8L59.9,211.8z"/>
</g>
<g>
	<defs>
		<path id="SVGID_00000164503901878327794380000006884845280708743825_" d="M65.4,210.9c0-14.7,11.9-26.7,26.7-26.7
			c14.7,0,26.7,11.9,26.7,26.7c0,14.7-11.9,26.7-26.7,26.7C77.4,237.5,65.4,225.6,65.4,210.9L65.4,210.9z"/>
	</defs>
	<defs>
		<path id="SVGID_00000100358938820112764960000006128030010800580753_" d="M65.4,210.9c0-14.7,11.9-26.7,26.7-26.7
			c14.7,0,26.7,11.9,26.7,26.7c0,14.7-11.9,26.7-26.7,26.7C77.4,237.5,65.4,225.6,65.4,210.9L65.4,210.9z"/>
	</defs>
	<clipPath id="SVGID_00000058568526584960807980000000709636731014966427_">
		<use xlink:href="#SVGID_00000164503901878327794380000006884845280708743825_"  style="overflow:visible;"/>
	</clipPath>
	
		<clipPath id="SVGID_00000076590929843394223130000009389449281957433255_" style="clip-path:url(#SVGID_00000058568526584960807980000000709636731014966427_);">
		<use xlink:href="#SVGID_00000100358938820112764960000006128030010800580753_"  style="overflow:visible;"/>
	</clipPath>
	<path style="clip-path:url(#SVGID_00000076590929843394223130000009389449281957433255_);fill:none;" d="M68.6,196.4l4,1.6
		c0.8-2.1,1.7-3.2,3.5-4.6c2.3-1.8,4.2-2.4,7.1-2.3l0.1-4.2c-3.3,0.7-5.6,0.4-8.6-1.1c-2-0.9-3-1.8-4.5-3.4l-3.6,2.6
		c1.4,1.9,1.9,3.2,2.3,5.5C69.3,192.8,69.2,194.2,68.6,196.4L68.6,196.4z"/>
</g>
<g>
	<defs>
		<path id="SVGID_00000102512766741400913940000009500298678056845452_" d="M65.4,210.9c0-14.7,11.9-26.7,26.7-26.7
			c14.7,0,26.7,11.9,26.7,26.7c0,14.7-11.9,26.7-26.7,26.7C77.4,237.5,65.4,225.6,65.4,210.9L65.4,210.9z"/>
	</defs>
	<defs>
		<path id="SVGID_00000140015422169321731000000004725650825914954885_" d="M65.4,210.9c0-14.7,11.9-26.7,26.7-26.7
			c14.7,0,26.7,11.9,26.7,26.7c0,14.7-11.9,26.7-26.7,26.7C77.4,237.5,65.4,225.6,65.4,210.9L65.4,210.9z"/>
	</defs>
	<clipPath id="SVGID_00000001661942374185296050000002154539792150090412_">
		<use xlink:href="#SVGID_00000102512766741400913940000009500298678056845452_"  style="overflow:visible;"/>
	</clipPath>
	
		<clipPath id="SVGID_00000019649805486326842960000005684876167679570852_" style="clip-path:url(#SVGID_00000001661942374185296050000002154539792150090412_);">
		<use xlink:href="#SVGID_00000140015422169321731000000004725650825914954885_"  style="overflow:visible;"/>
	</clipPath>
	<path style="clip-path:url(#SVGID_00000019649805486326842960000005684876167679570852_);" d="M70,195.7l2,0.8
		c0.9-1.7,1.7-2.6,3.2-3.8c2.1-1.7,3.6-2.4,6.3-2.8l0.1-1.6c-2.9,0.3-4.7,0-7.4-1.2c-1.8-0.8-2.8-1.5-4.2-2.8l-1.5,1.1
		c1.1,1.8,1.5,3,1.8,5C70.6,192.4,70.5,193.6,70,195.7L70,195.7z"/>
</g>
<g>
	<defs>
		<path id="SVGID_00000133492590351410692450000000145451311324242315_" d="M65.4,210.9c0-14.7,11.9-26.7,26.7-26.7
			c14.7,0,26.7,11.9,26.7,26.7c0,14.7-11.9,26.7-26.7,26.7C77.4,237.5,65.4,225.6,65.4,210.9L65.4,210.9z"/>
	</defs>
	<defs>
		<path id="SVGID_00000143594783661896036920000018423420815200659385_" d="M65.4,210.9c0-14.7,11.9-26.7,26.7-26.7
			c14.7,0,26.7,11.9,26.7,26.7c0,14.7-11.9,26.7-26.7,26.7C77.4,237.5,65.4,225.6,65.4,210.9L65.4,210.9z"/>
	</defs>
	<clipPath id="SVGID_00000135675460925999208990000001662949270471923391_">
		<use xlink:href="#SVGID_00000133492590351410692450000000145451311324242315_"  style="overflow:visible;"/>
	</clipPath>
	
		<clipPath id="SVGID_00000121976198873921221050000014514217976066519468_" style="clip-path:url(#SVGID_00000135675460925999208990000001662949270471923391_);">
		<use xlink:href="#SVGID_00000143594783661896036920000018423420815200659385_"  style="overflow:visible;"/>
	</clipPath>
	<path style="clip-path:url(#SVGID_00000121976198873921221050000014514217976066519468_);fill:none;" d="M86,187.3l-0.1,3.6
		c2.4,0.5,3.9,1.3,5.6,3.1c1.3,1.4,1.9,2.4,2.4,4.3l4.2,0c0-2.5,0.4-4.1,1.6-6.3c1.2-2.1,2.2-3.1,4.1-4.4l-2.5-3.8
		c-2.4,1.3-3.9,1.9-6.5,2.6C91.5,187.2,89.5,187.5,86,187.3L86,187.3z"/>
</g>
<g>
	<defs>
		<path id="SVGID_00000145058120271904692450000010661971655847774103_" d="M65.4,210.9c0-14.7,11.9-26.7,26.7-26.7
			c14.7,0,26.7,11.9,26.7,26.7c0,14.7-11.9,26.7-26.7,26.7C77.4,237.5,65.4,225.6,65.4,210.9L65.4,210.9z"/>
	</defs>
	<defs>
		<path id="SVGID_00000116954896371106832090000004322123334537865402_" d="M65.4,210.9c0-14.7,11.9-26.7,26.7-26.7
			c14.7,0,26.7,11.9,26.7,26.7c0,14.7-11.9,26.7-26.7,26.7C77.4,237.5,65.4,225.6,65.4,210.9L65.4,210.9z"/>
	</defs>
	<clipPath id="SVGID_00000034055361701707846620000008588077284415541911_">
		<use xlink:href="#SVGID_00000145058120271904692450000010661971655847774103_"  style="overflow:visible;"/>
	</clipPath>
	
		<clipPath id="SVGID_00000127730600368803112800000008345995774000731804_" style="clip-path:url(#SVGID_00000034055361701707846620000008588077284415541911_);">
		<use xlink:href="#SVGID_00000116954896371106832090000004322123334537865402_"  style="overflow:visible;"/>
	</clipPath>
	<path style="clip-path:url(#SVGID_00000127730600368803112800000008345995774000731804_);" d="M87.1,188.7v1.4
		c2.4,0.4,3.8,1.1,5.5,2.9c1.3,1.3,1.9,2.3,2.4,4h2c0.1-1,0.2-1.6,0.5-2.6c0.8-3.1,1.9-4.8,4.4-6.8l-1.5-1.6c-1.8,1-2.9,1.5-5,2.1
		C92.2,188.8,90.3,189,87.1,188.7L87.1,188.7z"/>
</g>
<g>
	<defs>
		<path id="SVGID_00000164510264746629807250000012060919638842011823_" d="M65.4,210.9c0-14.7,11.9-26.7,26.7-26.7
			c14.7,0,26.7,11.9,26.7,26.7c0,14.7-11.9,26.7-26.7,26.7C77.4,237.5,65.4,225.6,65.4,210.9L65.4,210.9z"/>
	</defs>
	<clipPath id="SVGID_00000131357425597049736530000008994124484312709504_">
		<use xlink:href="#SVGID_00000164510264746629807250000012060919638842011823_"  style="overflow:visible;"/>
	</clipPath>
	
		<path style="clip-path:url(#SVGID_00000131357425597049736530000008994124484312709504_);fill:none;stroke:#000000;stroke-width:0.4518;stroke-miterlimit:4;" d="
		M65.4,210.9c0-14.7,11.9-26.7,26.7-26.7c14.7,0,26.7,11.9,26.7,26.7c0,14.7-11.9,26.7-26.7,26.7C77.4,237.5,65.4,225.6,65.4,210.9
		L65.4,210.9z"/>
</g>
<g>
	<defs>
		<path id="SVGID_00000101097634698862930580000002325697491915359670_" d="M65.4,210.9c0-14.7,11.9-26.7,26.7-26.7
			c14.7,0,26.7,11.9,26.7,26.7c0,14.7-11.9,26.7-26.7,26.7C77.4,237.5,65.4,225.6,65.4,210.9L65.4,210.9z"/>
	</defs>
	<clipPath id="SVGID_00000141440530372299312820000003161599173567305345_">
		<use xlink:href="#SVGID_00000101097634698862930580000002325697491915359670_"  style="overflow:visible;"/>
	</clipPath>
	<polygon style="clip-path:url(#SVGID_00000141440530372299312820000003161599173567305345_);fill:#FFFFFF;" points="114,190.8 
		120,197.8 116.8,206.4 107.7,208 101.7,201 104.9,192.4 	"/>
</g>
<g>
	<defs>
		<path id="SVGID_00000129200714016649159750000017035808305997039247_" d="M65.4,210.9c0-14.7,11.9-26.7,26.7-26.7
			c14.7,0,26.7,11.9,26.7,26.7c0,14.7-11.9,26.7-26.7,26.7C77.4,237.5,65.4,225.6,65.4,210.9L65.4,210.9z"/>
	</defs>
	<clipPath id="SVGID_00000083782995714337689020000003768310610114918042_">
		<use xlink:href="#SVGID_00000129200714016649159750000017035808305997039247_"  style="overflow:visible;"/>
	</clipPath>
	<polygon style="clip-path:url(#SVGID_00000083782995714337689020000003768310610114918042_);fill:#FFFFFF;" points="70.4,217.8 
		76.4,224.7 73.2,233.3 64.1,234.9 58.1,227.9 61.3,219.3 	"/>
</g>
<path class="st44" d="M65.4,210.9c0-14.7,11.9-26.7,26.7-26.7c14.7,0,26.7,11.9,26.7,26.7c0,14.7-11.9,26.7-26.7,26.7
	C77.4,237.5,65.4,225.6,65.4,210.9L65.4,210.9z"/>
<g>
	<path class="st45" d="M99,200.3h-4.4c0,2.2-0.4,3.6-1.5,5.6c-1.2,2.1-2.3,3.2-4.4,4.4l2,3.8c2.3-1.3,4-1.8,6.6-1.7
		c2.2,0.1,3.5,0.4,5.4,1.5l2.4-3.8c-2-1.2-3-2.2-4.2-4.2C99.7,203.9,99.2,202.6,99,200.3L99,200.3z"/>
	<path d="M97.9,201.5h-2.1c-0.3,1.9-0.6,3-1.5,4.8c-1,2-1.9,3-3.6,4.4l0.9,1.4c2.1-0.9,3.5-1.1,5.7-1.1c2,0.1,3.1,0.3,4.9,1.1l1-1.6
		c-1.6-1.3-2.5-2.2-3.5-4C98.7,204.8,98.2,203.6,97.9,201.5L97.9,201.5z"/>
	<path class="st45" d="M75.7,212l-2.1,3.8c1.9,1.2,2.9,2.1,4.1,4c1.3,2.1,1.8,3.5,2,6l3.9,0c-0.1-2.7,0.4-4.3,1.8-6.6
		c1.1-1.9,2.1-2.8,3.9-4l-2.1-3.9c-2,1.1-3.4,1.5-5.7,1.6C79.2,213.1,77.8,212.9,75.7,212L75.7,212z"/>
	<path d="M76.2,213.5l-1,1.8c1.6,1.2,2.4,2,3.4,3.6c1.2,1.9,1.7,3.1,2.1,5.3l1.7-0.1c0.2-2.3,0.7-3.6,1.8-5.5c1-1.7,1.8-2.6,3.3-3.8
		l-0.9-1.6c-1.9,0.8-3.1,1.1-5.2,1.2C79.4,214.4,78.2,214.2,76.2,213.5L76.2,213.5z"/>
	<path class="st45" d="M107.5,211.9l-1.9,3.9c1.2,1.4,1.7,2.4,2.1,4.2c0.4,1.9,0.3,3.2-0.4,5l4.1,0.8c0.5-3.1,1.3-4.9,3.4-7.2
		c1.2-1.3,2-2,3.5-2.9l0.6-5.1c-2,1.2-3.3,1.7-5.6,1.9C111.1,212.9,109.7,212.7,107.5,211.9L107.5,211.9z"/>
	<path d="M108.1,213.4l-0.9,1.9c1.2,1.4,1.7,2.4,2,4.2c0.3,1.7,0.2,2.7-0.4,4.3l2,0.4c0.2-2.8,0.9-4.5,2.8-6.5
		c1.3-1.4,2.2-2,3.9-2.7l-0.8-1.7c-1.3,0.5-2,0.6-3.4,0.7C111.4,214.2,110.1,214,108.1,213.4L108.1,213.4z"/>
</g>
<g>
	<polygon class="st0" points="99.8,214.6 105.1,222.1 101.2,230.5 92.1,231.3 86.9,223.8 90.7,215.4 	"/>
	<polygon class="st0" points="85.2,193.7 91.2,200.7 88,209.3 78.8,210.8 72.8,203.9 76,195.3 	"/>
	<path class="st0" d="M12.3,202.9c3.7-2.3,6.4-15.5,6.4-31.6c0-15.3-2.8-23.4-6.2-21.3c-3.6,2.3-6.3,15-6.3,31
		c0,7.5,0.6,13.5,1.8,17.7C9.3,202.8,10.6,204,12.3,202.9L12.3,202.9z M12.4,195.4c-2.3,1.5-2.9-8.6-2.9-16.7
		c0-8.5,0.8-19.7,3.1-21.2c2.2-1.4,2.8,8.7,2.8,16.4c0,4.1-0.1,8.9-0.6,12.9C14.3,191.2,13.5,194.6,12.4,195.4L12.4,195.4z"/>
	<path class="st0" d="M27.9,168.5c1.6-2.3,2.8-8.4,2.8-15.6c0-5.5-0.8-9.2-2-10.3c-1-0.9-2.2-0.3-3.3,0.4l-6.4,4.1v6.1l0.2-0.1
		c1.3-0.5,1.3,1.2,1.3,6.1v24.1c0,5.2,0,6.6-1.3,7.8l-0.1,0.2v6.1l6.1-3.9v-6.1l-0.2,0.1c-1.3,0.5-1.4-1.1-1.4-6.1v-8.5l0.9-0.6
		l3.7,19.3l3.9-2.5v-6.1c-1.2,0.3-1.5-1.1-2.1-4.5L27.9,168.5L27.9,168.5z M23.6,165.7v-10.6c0-0.9,0-2.4,0.1-3.2
		c0.2-1.1,0.9-1.7,1.3-1.9c0.5-0.3,1.2-0.6,1.7,0.6c0.4,1,0.8,3,0.8,5c0,3-0.5,5.5-1.1,7.1c-0.6,1.7-1.4,2-2.1,2.5L23.6,165.7
		L23.6,165.7z"/>
	<path class="st0" d="M38,179.1l-0.2,0.1c-0.4,0.2-1,0.1-1.3-1c-0.2-1-0.2-3.7-0.2-5.3v-23.7c0-1.6-0.1-4.5,0.2-5.8
		c0.3-1.3,0.9-2,1.3-2.3v-6.1l-6.1,3.9v6.1l0.1,0c0.4-0.2,1-0.1,1.2,1c0.2,1.1,0.2,3.8,0.2,5.3v23.7c0,1.6,0.1,4.5-0.2,5.9
		c-0.3,1.2-0.9,1.9-1.3,2.3v6.1l6.1-3.9L38,179.1L38,179.1L38,179.1z"/>
	<path class="st0" d="M46.1,141.5l-1.3,0.9c0,1.9-0.1,5-0.3,6.7c-0.3,2-1,2.2-1.4,2.5l-0.5,0.3v-5.3c0-1.6-0.1-5.1,0.2-6.5
		c0.2-1.4,1.2-2.1,1.5-2.3c1.9-1.2,3.3,2.3,4.3,8.2l1.2-3.2L48,128.6l-9.8,6.3v6.1l0.4,0c1.1,0.1,1,2.3,1,6.3v23.7
		c0,4.6,0,6.2-1.1,7.7l-0.3,0.4v6.1l10.1-6.5l1.9-18.6l-1.2-1.7c-1.3,9.1-2.7,14.9-5.1,16.4c-0.4,0.2-1.1,0.7-1.3-1
		c-0.1-1.1-0.1-6-0.1-7.3v-7.7l0.3-0.2c0.5-0.3,1.2-0.9,1.5,0.9c0.3,1.6,0.4,3.9,0.4,5.9l1.3-0.9L46.1,141.5L46.1,141.5L46.1,141.5z
		"/>
	<path class="st0" d="M54.9,124.1l-5,3.2v6.1c0.5-0.1,1.1-0.2,1.3,1c0.2,1.1,0.2,3.8,0.2,5.3v23.7c0,1.6,0,4.5-0.2,5.8
		c-0.3,1.3-0.8,2-1.3,2.4v6.1l4.5-2.9v-6.1c-0.5,0.1-1.1,0.2-1.3-1c-0.2-1.1-0.2-3.8-0.2-5.3v-25.5l5.3,35.4l2.1-1.4v-37
		c0-5.3,0.1-6.9,1.5-8.2v-6.1l-4.6,2.9v6.1c1.4-0.5,1.5,1.1,1.5,6.3v15.7L54.9,124.1L54.9,124.1z"/>
	<path class="st0" d="M66.2,153.9c0,1.5,0,4.2-0.2,5.5c-0.2,1.6-0.8,2.3-1.2,2.6l-0.2,0.1v6.1l6.2-4v-6.1l-0.2,0.1
		c-0.4,0.2-1,0.2-1.2-1.1c-0.2-1-0.2-3.8-0.2-5.3v-28.5c0-1.4,0-1.8,0.3-2c0.6-0.4,1.3,1,1.8,2.5c0.5,1.6,0.8,3.7,1.2,6.3l1.2-2.9
		L72.3,113l-9.3,6l-1.4,16.1l1.2,1.3c0.4-3.1,0.7-5.6,1.2-7.8c0.4-2.1,1.1-4.3,1.8-4.7c0.3-0.2,0.3,0.2,0.3,1.6L66.2,153.9
		L66.2,153.9L66.2,153.9z"/>
	<path class="st0" d="M81.4,118.9l-1.3,0.8c0,1.9-0.1,5-0.3,6.7c-0.3,2-1,2.2-1.4,2.5l-0.5,0.3v-5.3c0-1.6-0.1-5.1,0.2-6.5
		c0.2-1.4,1.2-2.1,1.5-2.3c1.9-1.2,3.3,2.3,4.3,8.2l1.2-3.2L83.3,106l-9.8,6.3v6.1l0.4,0c1.1,0.1,1,2.3,1,6.3v23.7
		c0,4.6,0,6.2-1.1,7.7l-0.3,0.4v6.1l10.1-6.5l1.9-18.6l-1.2-1.7c-1.3,9.1-2.7,14.9-5.1,16.4c-0.4,0.2-1.1,0.7-1.3-1
		c-0.1-1.1-0.1-6-0.1-7.3V136l0.3-0.2c0.5-0.3,1.2-0.9,1.5,0.9c0.3,1.6,0.4,3.9,0.4,5.9l1.3-0.9L81.4,118.9L81.4,118.9L81.4,118.9z"
		/>
	<path class="st0" d="M94.4,128.7l1.4-0.9c2.4-1.5,5-5.5,5-18.2c0-5.3-0.6-9.9-1.7-11.7c-1-1.5-2.2-0.7-3.2-0.1l-5.9,3.8v6.1
		c1.4-0.3,1.4,1.1,1.4,6.4v23.6c0,5.3,0,6.8-1.4,8.1v6.1l5.8-3.7v-6.1c-1.3,0.4-1.3-1.2-1.3-6.4L94.4,128.7L94.4,128.7L94.4,128.7z
		 M94.4,122v-11.8c0-1.1,0-2.8,0.2-3.7c0.2-1,0.7-1.4,1-1.6c1.1-0.7,2,1.6,2,6.8c0,2.4-0.3,5.3-0.7,7c-0.5,1.9-1.4,2.7-2,3L94.4,122
		L94.4,122z"/>
	<path class="st0" d="M108.6,101.5l-1.3,0.8c0,1.9-0.1,5-0.3,6.7c-0.3,2-1,2.2-1.4,2.5l-0.5,0.3v-5.3c0-1.6-0.1-5.1,0.2-6.5
		c0.2-1.4,1.2-2.1,1.5-2.3c1.9-1.2,3.3,2.3,4.3,8.2l1.2-3.2l-1.7-14.2l-9.8,6.3v6.1l0.4,0c1.1,0.1,1,2.3,1,6.3v23.7
		c0,4.6,0,6.2-1.1,7.7l-0.3,0.4v6.1l10.1-6.5l1.9-18.6l-1.2-1.7c-1.3,9.1-2.7,14.9-5.1,16.4c-0.4,0.2-1.1,0.7-1.3-1
		c-0.1-1.1-0.1-6-0.1-7.3v-7.7l0.3-0.2c0.5-0.3,1.2-0.9,1.5,0.9c0.3,1.6,0.4,3.9,0.4,5.9l1.3-0.8L108.6,101.5L108.6,101.5
		L108.6,101.5z"/>
	<path class="st0" d="M116.6,121.6c0,1.5,0,4.2-0.2,5.5c-0.2,1.6-0.8,2.3-1.2,2.6l-0.2,0.1v6.1l6.2-4v-6.1L121,126
		c-0.4,0.2-1,0.2-1.2-1.1c-0.2-1-0.2-3.8-0.2-5.3V91.2c0-1.4,0-1.8,0.3-2c0.6-0.4,1.3,1,1.8,2.5c0.5,1.6,0.8,3.7,1.2,6.3l1.2-2.9
		l-1.4-14.4l-9.3,6l-1.4,16.1l1.2,1.3c0.4-3.1,0.7-5.6,1.2-7.8c0.4-2.1,1.1-4.3,1.8-4.7c0.3-0.2,0.3,0.1,0.3,1.6L116.6,121.6
		L116.6,121.6L116.6,121.6z"/>
	<path class="st0" d="M132.7,101.4c1.6-2.3,2.8-8.4,2.8-15.6c0-5.5-0.8-9.2-2-10.3c-1-0.9-2.2-0.3-3.3,0.4l-6.4,4.1V86l0.2-0.1
		c1.3-0.5,1.3,1.2,1.3,6.1v24.1c0,5.2,0,6.6-1.3,7.8l-0.1,0.2v6.1l6.1-3.9v-6.1l-0.2,0.1c-1.3,0.5-1.4-1.1-1.4-6.1v-8.5l0.9-0.6
		l3.7,19.3l3.9-2.5v-6.1c-1.2,0.3-1.5-1.1-2.1-4.5L132.7,101.4L132.7,101.4z M128.4,98.7V88.1c0-0.9,0-2.4,0.1-3.2
		c0.2-1.1,0.9-1.7,1.3-1.9c0.5-0.3,1.2-0.6,1.7,0.6c0.4,1,0.8,3,0.8,5c0,3-0.5,5.5-1.1,7.1c-0.6,1.7-1.4,2-2.1,2.5L128.4,98.7
		L128.4,98.7z"/>
	<path class="st0" d="M143,119.2c3.7-2.3,6.4-15.5,6.4-31.6c0-15.3-2.8-23.4-6.2-21.3c-3.6,2.3-6.3,15-6.3,31
		c0,7.5,0.6,13.5,1.8,17.7C140,119.1,141.4,120.3,143,119.2L143,119.2z M143.2,111.7c-2.3,1.5-2.9-8.6-2.9-16.7
		c0-8.5,0.8-19.7,3.1-21.2c2.2-1.4,2.8,8.7,2.8,16.4c0,4.1-0.1,8.9-0.6,12.9C145.1,107.5,144.3,111,143.2,111.7L143.2,111.7z"/>
	<path class="st0" d="M160.9,89l-1.2-1.9c-0.9,7.7-2.4,15-4.4,16.2c-1.2,0.7-1-0.7-1-4.9V73.8c0-1.6-0.1-4.5,0.2-5.8
		c0.3-1.3,0.9-2,1.3-2.4v-6.1l-6,3.8v6.1c1.4-0.2,1.4,1,1.4,6.3v23.7c0,5.3,0,6.7-1.4,8.1v6.1l9.3-5.9L160.9,89L160.9,89z"/>
	<path class="st0" d="M168.2,63.4l-1.3,0.8c0,1.9-0.1,5-0.3,6.7c-0.3,2-1,2.2-1.4,2.5l-0.5,0.3v-5.3c0-1.6-0.1-5.1,0.2-6.5
		c0.2-1.4,1.2-2.1,1.5-2.3c1.9-1.2,3.3,2.3,4.3,8.2l1.2-3.2l-1.7-14.2l-9.8,6.3v6.1l0.4,0c1.1,0.1,1,2.3,1,6.3v23.7
		c0,4.6,0,6.2-1.1,7.7l-0.3,0.4v6.1l10.1-6.5l1.9-18.6l-1.2-1.7c-1.3,9.1-2.7,14.9-5.1,16.4c-0.4,0.2-1.1,0.7-1.3-1
		c-0.1-1.1-0.1-6-0.1-7.3v-7.7l0.3-0.2c0.5-0.3,1.2-0.9,1.5,0.9c0.3,1.6,0.4,3.9,0.4,5.9l1.3-0.9L168.2,63.4L168.2,63.4L168.2,63.4z
		"/>
	<path class="st0" d="M180.9,70.6c1.6-2.3,2.8-8.4,2.8-15.6c0-5.5-0.8-9.2-2-10.3c-1-0.9-2.2-0.3-3.3,0.4l-6.4,4.1v6.1l0.2-0.1
		c1.3-0.5,1.3,1.2,1.3,6.1v24.1c0,5.2,0,6.6-1.3,7.8l-0.1,0.2v6.1l6.1-3.9v-6.1l-0.2,0.1c-1.3,0.5-1.4-1.1-1.4-6.1v-8.5l0.9-0.6
		l3.7,19.3l3.9-2.5v-6.1c-1.2,0.3-1.5-1.1-2.1-4.5L180.9,70.6L180.9,70.6z M176.5,67.9V57.3c0-0.9,0-2.4,0.1-3.2
		c0.2-1.1,0.9-1.7,1.3-1.9c0.5-0.3,1.2-0.6,1.7,0.6c0.4,1,0.8,3,0.8,5c0,3-0.5,5.5-1.1,7.1c-0.6,1.7-1.4,2-2.1,2.5L176.5,67.9
		L176.5,67.9z"/>
	<path class="st0" d="M191.2,88.4c3.7-2.3,6.4-15.5,6.4-31.6c0-15.3-2.8-23.4-6.2-21.3c-3.6,2.3-6.3,15-6.3,31
		c0,7.5,0.6,13.5,1.8,17.7C188.1,88.3,189.5,89.5,191.2,88.4L191.2,88.4z M191.3,80.9c-2.3,1.5-2.9-8.6-2.9-16.7
		c0-8.5,0.8-19.7,3.1-21.2c2.2-1.4,2.8,8.7,2.8,16.4c0,4.1-0.1,8.9-0.6,12.9C193.2,76.7,192.4,80.2,191.3,80.9L191.3,80.9z"/>
</g>
<path class="st46" d="M168.8,121.4v90.2 M154.2,211.7l27.2-12.9l-12.6-7.4l10.8-4.7l-10.5-9.9h9.6l-9.9-8.4h9.2l-9.2-8.9h8.1
	l-8.1-7.2h7.4l-7.4-6.3h6.5l-6.5-5.6 M183.3,211.7l-27.2-12.9l12.6-7.4l-10.8-4.7l10.5-9.9h-9.6l9.9-8.4h-9.2l9.2-8.9h-8.1l8.1-7.2
	h-7.4l7.4-6.3h-6.5l6.5-5.6"/>
<path class="st45" d="M156,198.8h25.6 M157.8,186.8h22.1"/>
<g>
	<path class="st6" d="M134.8,193.3c-0.4-1.8-0.5-2.8-0.4-4.7c0.1-4,0.9-6.4,3.1-9.8l-4.2-0.9c-2.2,2.6-2.9,5.1-2.4,8.4
		C131.2,189.5,132.3,191.4,134.8,193.3L134.8,193.3z"/>
	<path class="st6" d="M147.5,186.5c-2.1-0.4-3.2-0.9-5-2.1c-3.8-2.5-5.6-5.5-6-10l-3.3,2.9c1.1,3.3,2.4,5.1,5.3,7
		C141.5,186.3,143.9,186.9,147.5,186.5L147.5,186.5z"/>
	<polygon class="st6" points="165.3,214.7 165.9,209.9 165,209.9 166,206 164.5,206.3 166,203.8 165.1,202.7 166,199.7 165,199.7 
		165.3,196.4 164.1,196 164.1,192.2 162.9,192.3 161.7,189.5 160.6,189.9 158.4,187.5 157.5,188 156,185.3 155.2,186 153.6,183.8 
		153,184.4 150.7,181.4 150.6,182 148.1,179.9 147.8,180.9 143.9,178.8 142.9,179.6 141.2,178.1 138.8,179.9 141.7,181.2 141.4,182 
		146.2,182.6 146,183.3 148.8,183.9 149.1,184.5 151.9,186 151.6,186.6 154.2,187.4 153.3,188.1 156,189 155.5,189.5 158.5,191.1 
		157.8,192 160,193.4 159.3,194 161.2,195.7 159.9,196.3 162.3,199.4 160.6,199.9 161.2,202.6 160.8,203.5 161.5,205.9 160.5,206.3 
		161.4,210.1 160.2,210.2 161.7,214.7 	"/>
	<polygon class="st6" points="164.5,160.5 164.5,166.5 165.4,166.8 164.5,168.7 165.4,169 164.8,172.3 165.7,172.8 165,175.7 
		166.2,175.7 165.1,177.9 165.7,178.2 165,180.8 165.6,180.8 165,182.9 166,183.2 164.8,186.3 165.9,186.5 165.1,188.9 165.7,189.3 
		165.4,192.8 166.5,192.9 165.4,198.1 162,196.4 162.3,193.2 162.7,192.9 161.4,189 162.6,189 161.7,186.3 162.4,186.3 161.4,183.3 
		162.6,183 161.1,180.5 162,180.5 161.2,178.5 162.6,178.1 161.4,175.8 162.6,175.8 161.1,172.3 162.1,172.6 161.5,169 162.7,169 
		161.5,166.6 162.1,166.2 	"/>
	<path class="st6" d="M175.4,163.5c3.2-3.5,2.1-9.8-2.1-12c-4.9-2.6-12.7,3.7-11.1,9l2.4,0.3c-0.5-4.3,6.2-8.1,9.6-5.4
		C176.7,157.3,177.2,160.8,175.4,163.5L175.4,163.5z"/>
	<path class="st6" d="M177.8,144.8c-3.9-1.1-6.9-0.7-10.3,1.5c-4.6,3-6.5,7.6-5.3,12.9l-0.6-0.9c2.8-4.3,4.9-6.5,9.1-9.5
		C173.2,147,174.8,146.1,177.8,144.8L177.8,144.8z"/>
	<path class="st6" d="M166.3,140.3c-3.9,0.7-6.4,3.1-7.3,6.9c-1,4.4,1.1,8.6,5.3,10.4l3.5-2.6c-3.1-1.6-4.6-3.9-4.8-7.4
		C162.9,144.5,163.9,142.3,166.3,140.3L166.3,140.3z"/>
	<path class="st6" d="M142.6,158.4c2.5-0.4,4-0.5,6.5-0.5c4.6-0.1,7.2,0.2,11.6,1.2l-0.3-4.3c-3.4-0.6-5.4-0.6-8.8,0
		C147.9,155.4,145.8,156.3,142.6,158.4L142.6,158.4z"/>
	<path class="st6" d="M154,170.1c-0.3-2-0.1-3.3,0.8-5.1c1.6-3.1,4.2-4.6,7.7-4.5l-0.7-4.9c-4.2-0.8-8,1.3-9.6,5.2
		C150.8,164.2,151.4,167.4,154,170.1L154,170.1z"/>
	<path class="st6" d="M143.8,151.4c2-0.5,3.3-0.5,5.4-0.1c4.5,0.8,7.3,2.7,9.6,6.7l1.8-3.9c-2.3-2.6-4.3-3.7-7.7-4.3
		C149.3,149.2,146.9,149.6,143.8,151.4L143.8,151.4z"/>
	<path class="st6" d="M149.5,142.1c1.5,1,2.4,1.7,3.6,3c2.7,2.9,3.9,5.2,4.8,9.1l4,1.7c1.1-4.8-0.6-8.9-4.6-11.8
		C154.7,142.3,152.6,141.8,149.5,142.1L149.5,142.1z"/>
	<path class="st6" d="M163.3,171.4c-0.4-1.8-0.5-2.8-0.4-4.7c0.1-4,0.9-6.4,3.1-9.8l-4.2-0.9c-2.2,2.6-2.9,5.1-2.4,8.4
		C159.7,167.5,160.9,169.4,163.3,171.4L163.3,171.4z"/>
	<path class="st6" d="M173.9,164.2c-2.1-0.4-3.2-0.9-5-2.1c-3.8-2.5-5.6-5.5-6-10l-3.3,2.9c1,3.3,2.4,5.1,5.3,7
		C167.9,164,170.3,164.6,173.9,164.2L173.9,164.2z"/>
	<path class="st6" d="M188.9,216.1h-71.3l1.2-5.4l1.5,0.3l2.4,3.6c0.5-0.4,0.8-0.7,1.2-1.2c0.6-0.9,0.9-1.6,0.9-2.7
		c1,0.7,1.5,1.5,1.5,2.7c0,0.6-0.1,1-0.3,1.5c0.8-1.7,1.4-2.6,2.7-3.9c1.5-1.6,2.6-2.4,4.5-3.3c-1.1,2.2,0.3,5.1,2.7,5.7
		c3,0.7,2.6-8.8-0.3-7.8c2,0.7,3.1,1.4,4.8,2.7c1.6,1.3,2.5,2.2,3.6,3.9l1.8-3c-0.5,1.1,0,2.5,1.2,3c1.4,0.5,3.2-0.9,3-2.4l2.4,1.2
		l3.3-1.2l0.9,2.1l2.4,0.9l2.4,1.5l4.8-1.8c0.7-0.6,0.9-1.2,0.9-2.1c0-1.2-0.7-2-1.8-2.4c1.5,1.1,3.4,1,4.8-0.3
		c0.8-0.7,1.1-1.4,1.2-2.4c0,1.6,0.7,2.8,2.1,3.6c1.3,0.8,2.5,0.9,3.9,0.3c-1.5,0.2-2.5,1.5-2.4,3c0.1,0.9,0.4,1.6,1.2,2.1
		c1.3,0.9,3.3,0.3,3.9-1.2c0.5-1.1,0.3-2.2-0.6-3l6.3,0.3c1.4,0.7,2.2,1.5,2.7,3C189,214.4,189,215,188.9,216.1L188.9,216.1z"/>
	<path class="st6" d="M65.3,215.5H46.6c-1.5-1.5-2-3-1.8-5.1c0.3-3.5,3.4-6,6.9-5.7c-0.2,1.3-0.3,2-0.6,3.3c-0.3,1.2-0.5,1.9-0.9,3
		c0.2-1.1,1.3-1.8,2.4-1.5c1.1,0.2,1.8,1.3,1.5,2.4c1,0,1.8-0.4,2.4-1.2c0.7-0.8,0.9-1.7,0.6-2.7c-0.3,2.3,0.8,4.3,3,5.1
		c1.7,0.6,3.1,0.4,4.5-0.6L65.3,215.5L65.3,215.5z"/>
</g>
<polygon class="st47" points="160,125.6 176.6,125.6 176.6,129.5 160,129.5 "/>
<polygon class="st48" points="169.1,140.6 174.2,134 164.2,134 "/>
<g>
	<polygon class="st49" points="33,23.6 40.9,23.6 40.9,84.2 33,84.2 	"/>
	<polygon class="st49" points="28.5,23.3 45.4,23.3 45.4,30.8 28.5,30.8 	"/>
	<polygon class="st49" points="28.5,76.9 45.4,76.9 45.4,84.5 28.5,84.5 	"/>
	<polygon class="st49" points="67.2,50.5 67.2,58.4 6.7,58.4 6.7,50.5 	"/>
	<polygon class="st49" points="67.5,46 67.5,62.9 60,62.9 60,46 	"/>
	<polygon class="st49" points="13.9,46 13.9,62.9 6.4,62.9 6.4,46 	"/>
	<polygon class="st49" points="46.9,10.3 54.7,10.3 54.7,70.9 46.9,70.9 	"/>
	<polygon class="st49" points="42.3,10 59.2,10 59.2,17.6 42.3,17.6 	"/>
	<polygon class="st49" points="42.3,63.7 59.2,63.7 59.2,71.2 42.3,71.2 	"/>
	<polygon class="st49" points="81.1,37.3 81.1,45.1 20.5,45.1 20.5,37.3 	"/>
	<polygon class="st49" points="81.4,32.7 81.4,49.6 73.9,49.6 73.9,32.7 	"/>
	<polygon class="st49" points="27.8,32.7 27.8,49.6 20.2,49.6 20.2,32.7 	"/>
</g>
<polygon class="st4" points="70.8,67.4 74.1,77.7 85,77.7 76.2,84 79.6,94.3 70.8,87.9 62.1,94.3 65.5,84 56.7,77.7 67.5,77.7 "/>
</svg>
