<?xml version="1.0" encoding="UTF-8"?>
<svg id="Camada_1" xmlns="http://www.w3.org/2000/svg" version="1.1" viewBox="0 0 1000 1000">
  <!-- Generator: Adobe Illustrator 29.1.0, SVG Export Plug-In . SVG Version: 2.1.0 Build 142)  -->
  <defs>
    <style>
      .st0 {
        fill: #2556a3;
      }

      .st1 {
        fill: #fff;
      }

      .st2 {
        fill: #2254a2;
      }

      .st3 {
        fill: #081a22;
      }
    </style>
  </defs>
  <path class="st3" d="M286.59,292.31v-100.49l-65.02,100.49h-93.09l57.54,54.97-72.14,111.49,116.72-68.91,55.99,53.49v-86.55l109.24-64.49h-109.24Z"/>
  <path class="st2" d="M277.14,301.81v-77.94l-50.42,77.94h-74.58l46.09,44.03-54.57,84.34,88.28-52.13,45.2,43.16v-69.84l83.95-49.57h-83.95Z"/>
  <path class="st1" d="M264.04,314.98v-46.67l-30.21,46.67h-48.88l30.21,28.85-30.21,46.69,48.88-28.85,30.21,28.85v-46.69l48.86-28.85h-48.86Z"/>
  <path class="st3" d="M164.95,535.41v-93.06l-60.22,93.06H19.04l52.97,50.57L4.87,689.72l108.62-64.11,51.46,49.14v-79.51l101.35-59.83h-101.35Z"/>
  <path class="st2" d="M155.47,544.91v-70.53l-45.63,70.53H42.71l41.5,39.62-49.56,76.59,80.18-47.33,40.64,38.81v-62.81l76.06-44.89h-76.06Z"/>
  <path class="st1" d="M143.03,557.43v-40.8l-26.41,40.8h-42.72l26.41,25.21-26.41,40.8,42.72-25.21,26.41,25.21v-40.8l42.7-25.21h-42.7Z"/>
  <path class="st3" d="M676.55,220.21c-42.55,0-83.35,8.98-120.74,25.85v-106.15l-77.47,119.74h-111.27l68.77,65.68-19.05,29.44v-39.71l-87.08,134.59h-128l79.1,75.54-94.68,146.33,153.2-90.44,25.31,24.17c1.75,8.53,3.83,17.01,6.29,25.38h-91.55l68.35,63.99-88.3,136.47,147.42-87.04c3.85-2.16,6.43-.71,10.83,2.8.96.76,20.73,17.11,22.42,18.44,29.19,22.77,73.96,55.32,125.4,74.85,35.52,13.26,72.86,19.98,111.03,19.98,175.67,0,318.58-143.53,318.58-319.95s-142.92-319.95-318.58-319.95"/>
  <path class="st2" d="M676.55,229.67c-47.85,0-91.6,11.26-130.2,31.13v-88.87l-62.89,97.19h-92.73l57.32,54.73-40.71,62.93v-39.71l-72.5,112.04h-109.44l67.63,64.61-77.11,119.17,124.76-73.66,32.6,31.15c2.66,13.55,6.15,26.83,10.52,39.69h-80.48l56.63,53.02-70.83,109.46,112.95-66.68c2.77-1.55,5.54-2.4,8.17-2.4,3.94,0,8.3,1.95,13.32,5.96,2.34,1.85,19.39,16.07,22.35,18.37,35.43,27.64,76.54,55.84,122.94,73.48,33.52,12.52,69.82,19.35,107.69,19.35,170.75,0,309.16-139.01,309.16-310.49s-138.41-310.49-309.16-310.49Z"/>
  <path class="st1" d="M676.55,246.78c-53.16,0-102.95,14.33-145.87,39.24h-1.13v-57.08l-36.93,57.08h-59.78l36.93,35.27-36.93,57.08.07-.03c-18.38,27.87-32.13,59.06-40.21,92.51v-74.19l-49.92,77.14h-80.77l49.93,47.67-49.91,77.14,80.77-47.69,47,44.91c3.32,17.27,8.17,33.96,14.34,50l-6.24,11.48h-50.89s30.81,28.85,35.26,33.01l-38.97,60.21,50.11-29.58c15.78-8.89,29.33-4.3,40.88,4.92,5.28,4.21,68.97,62.67,138.94,88.73,32.2,12,66.96,18.89,103.34,18.89,161.33,0,292.13-131.36,292.13-293.38s-130.8-293.38-292.13-293.38"/>
  <path class="st0" d="M479.73,359.91c19.68-12.02,45.7-20.15,72.48-20.15,108.03,0,184.71,94.08,266.41,102.77-21.87-77.56-74.85-138.61-142.92-158.67-27.59-8.13-56.9-6.41-84.15,2.78-43.32,14.62-81.68,40.11-111.82,73.27Z"/>
  <path class="st0" d="M702.54,273.94c70.25,21.53,122.32,88.32,144.53,168.19,40.07-6.08,57.71-34.67,43.81-60.78-43.69-59.34-111.18-99.9-188.34-107.41Z"/>
  <path class="st2" d="M445.16,535.26s228.72-5.58,386.18-8.01c-.63-18.77-2.58-36.98-5.81-54.51-102.77-5.97-177.56-108.58-283.67-108.58-56.34,0-94.18,33.31-114.59,81.62-11.02,29.37-17.1,61.16-17.1,94.39s6.19,65.68,17.43,95.27c20.41,48.29,57.9,81.2,114.24,81.2,106.11,0,180.89-102.59,283.67-108.58,3.23-17.51,5.17-35.72,5.81-54.51-157.46-2.44-386.18-8.01-386.18-8.01v-10.29l.02.02Z"/>
  <path class="st0" d="M853.9,471.94c3.35,17.9,5.35,36.27,6.03,54.89,33.32-.45,61.89-.71,82.56-.69-2.06-39-12.31-75.76-29.35-108.55.53,26.4-20.39,48.83-59.23,54.35"/>
  <path class="st0" d="M818.62,638.28c-81.7,8.69-158.37,102.77-266.41,102.77-26.29,0-51.8-7.86-71.36-19.51,5.16,5.61,10.51,11.05,16.11,16.2,28.9,26.52,63.66,46.67,102.09,58.38,23.74,7.23,49.15,8.36,73.1,1.85,69.75-18.96,124.21-80.77,146.48-159.69"/>
  <path class="st0" d="M891.56,698c12.52-25.69-5.14-53.37-44.47-59.33-22.02,79.13-73.34,145.34-142.59,167.51,76.76-8.03,143.78-48.83,187.06-108.19Z"/>
  <path class="st0" d="M942.47,554.66c-20.66.02-49.24-.22-82.56-.69-.67,18.61-2.68,36.97-6.03,54.89,38.75,5.53,59.66,27.87,59.23,54.18,16.9-32.75,27.3-69.41,29.38-108.31,0-.02-.02-.03-.04-.07"/>
</svg>