<?xml version="1.0" encoding="utf-8" ?><svg xmlns="http://www.w3.org/2000/svg" xmlns:xlink="http://www.w3.org/1999/xlink" width="454" height="454" viewBox="0 0 454 454"><path fill="#EEEDED" d="M0 218.05C0.484642 216.794 0.571923 214.927 0.632895 213.548C0.837498 208.923 1.31817 204.421 1.89062 199.828C3.14633 190.302 4.98043 180.862 7.38276 171.559C20.7544 121.859 50.7072 78.2199 92.2771 47.8748C139.344 13.5558 198.501 -1.1238 256.027 7.32468C268.903 9.21558 281.127 11.6835 293.486 15.8446C308.948 20.9424 323.859 27.5833 337.992 35.667C375.221 57.6843 405.363 89.9072 424.849 128.522C451.802 181.772 456.294 243.603 437.32 300.19C418.559 356.543 378.232 403.166 325.171 429.851C308.407 438.099 289.342 445.153 271.062 448.81C261.782 450.715 252.401 452.083 242.963 452.905C240.68 453.104 231.546 453.429 230.416 454L217.892 454C216.396 453.364 206.46 452.965 204.207 452.762C200.025 452.375 195.856 451.861 191.705 451.223C154.135 445.523 120.921 431.946 90.4239 409.175C49.6559 378.881 20.3552 335.668 7.30059 286.583C4.73358 277.092 3.26932 267.566 1.79776 257.881C1.18214 253.829 1.11376 243.999 0 240.938L0 218.05Z"/><path fill="#00A0F6" d="M215.473 29.518C326.783 24.1997 421.339 110.104 426.693 221.413C432.046 332.722 346.172 427.305 234.864 432.694C123.507 438.086 28.8724 352.164 23.5164 240.805C18.1604 129.446 104.112 34.8386 215.473 29.518Z"/><path fill="#EEEDED" d="M214.324 43.3373C318.006 37.399 406.873 116.631 412.822 220.312C418.77 323.994 339.546 412.869 235.865 418.827C132.17 424.786 43.2806 345.55 37.3316 241.854C31.3827 138.158 110.627 49.2765 214.324 43.3373Z"/><path fill="#00A0F6" d="M267.911 173.158L268.138 173.116L268.403 173.369C267.865 175.887 254.669 196.066 252.462 199.581L221.81 248.499C216.457 257.034 210.513 266.096 205.394 274.692C224.896 274.812 244.398 274.816 263.9 274.705L263.969 288.252L214.164 288.256C203.682 288.256 192.635 288.427 182.192 288.174C181.386 288.075 181.697 288.256 181.134 287.807C181.079 286.894 184.436 282.277 185.142 281.162L194.165 266.691L227.778 213.035L236.981 198.374C239.377 194.552 241.829 190.906 243.681 186.782C240.772 187.22 228.68 187.009 225.041 187.01L185.592 186.956C185.497 182.412 185.61 177.737 185.668 173.182C189.577 173.278 193.624 173.3 197.537 173.244C220.92 172.905 244.549 173.712 267.911 173.158Z"/><path fill="#00A0F6" d="M254.013 137.171C278.963 145.145 299.744 162.666 311.82 185.909C323.77 209.066 326.013 236.027 318.052 260.839C314.175 272.842 308.013 283.981 299.905 293.643C298.432 295.415 295.717 298.566 293.996 300.024C290.853 296.721 287.487 293.535 284.298 290.223C300.143 274.052 309.175 253.315 308.973 230.534C308.886 207.944 299.722 186.338 283.543 170.573C275.503 162.671 265.944 156.482 255.444 152.379C252.432 151.178 249.342 150.186 246.194 149.41C245.005 149.128 240.381 148.44 239.886 147.633C240.858 146.45 252.246 138.312 254.013 137.171Z"/><path fill="#00A0F6" d="M195.525 137.281C197.482 138.334 209.231 146.479 209.686 147.876C209.072 148.822 205.498 149.021 204.205 149.302C200.901 150.049 197.661 151.056 194.517 152.315C183.987 156.394 174.392 162.561 166.308 170.445C150.442 185.823 141.25 206.816 140.71 228.905C140.325 252.993 148.926 273.371 165.576 290.547C162.327 292.872 158.569 297.225 155.639 300.198C144.613 289.088 136.378 275.522 131.607 260.614C123.757 235.838 126.021 208.963 137.905 185.85C149.948 162.689 170.66 145.23 195.525 137.281Z"/><path fill="#00A0F6" d="M364.518 200.419C379.709 198.84 393.303 209.875 394.881 225.065C396.459 240.255 385.424 253.849 370.234 255.426C355.044 257.004 341.452 245.969 339.874 230.78C338.296 215.591 349.329 201.998 364.518 200.419Z"/><path fill="#EEEDED" d="M365.639 211.85C375.087 211.428 382.963 214.717 385.339 225.021C386.237 228.914 385.288 233.402 382.987 236.702C379.623 241.525 375.001 243.208 369.368 244.242C364.151 244.499 359.104 243.565 354.937 240.199C351.62 237.517 349.513 233.621 349.085 229.377C348.391 221.921 353.784 214.592 360.893 212.591C362.559 212.122 363.91 211.994 365.639 211.85Z"/><path fill="#00A0F6" d="M80.2474 200.485C95.3879 199.163 108.742 210.346 110.097 225.484C111.453 240.621 100.299 254 85.1648 255.389C69.9829 256.782 56.5537 245.586 55.1936 230.401C53.8336 215.216 65.0595 201.812 80.2474 200.485Z"/><path fill="#EEEDED" d="M81.2574 211.851C85.9824 211.738 89.5599 212.025 93.6119 214.764C97.1999 217.189 99.8502 221.029 100.609 225.321C101.314 229.394 100.365 233.579 97.9727 236.949C94.5983 241.742 90.0717 243.319 84.5614 244.239C79.2495 244.443 74.0951 243.333 69.9587 239.795C66.7572 237.099 64.7901 233.217 64.5099 229.041C64.1859 224.922 65.5196 220.845 68.2147 217.714C71.8583 213.496 75.9219 212.219 81.2574 211.851Z"/><path fill="#00A0F6" d="M175.401 68.7285C176.329 69.0376 178.943 72.4627 179.687 73.3617C189.709 85.4594 199.692 97.588 209.748 109.657C210.629 110.715 211.464 111.862 212.14 113.062C208.789 114.077 205.214 115.526 201.909 116.323C198.657 112.749 195.491 108.39 192.06 104.586C190.662 105.364 189.352 105.854 187.87 106.447C183.137 108.072 177.943 109.97 173.108 111.13C173.071 116.266 172.936 121.402 172.703 126.533C169.242 127.286 166.559 128.626 162.423 129.395C162.729 119.881 163.341 110.174 163.718 100.624C164.035 91.3083 164.248 81.9889 164.356 72.6681C167.986 71.493 171.944 70.3001 175.401 68.7285Z"/><path fill="#EEEDED" d="M173.774 82.6445C175.844 83.9669 183.886 94.4811 185.893 97.0481L182.069 97.9647C179.172 98.9711 176.25 99.9055 173.306 100.767C173.785 96.4883 173.748 87.1981 173.774 82.6445Z"/><path fill="#00A0F6" d="M334.199 113.592C346.946 112.166 359.754 121.936 362.803 134.167C364.475 140.774 363.429 147.776 359.898 153.606C357.426 152.096 353.765 149.693 351.22 148.643C352.687 144.497 354.338 140.569 353.056 136.08C346.44 112.915 312.787 127.088 318.631 147.342C322.963 157.82 331.416 161.91 342.219 157.881C343.083 159.585 343.857 161.332 344.538 163.116C344.973 164.268 345.772 166.341 345.272 167.472C343.769 168.477 339.932 169.11 338.124 169.371C323.18 171.395 309.939 159.176 308.021 144.768C305.986 129.48 319.361 115.214 334.199 113.592Z"/><path fill="#00A0F6" d="M261.886 65.6024C272.505 64.7953 283.237 72.2175 283.735 83.4328C280.391 83.7787 276.971 84.1705 273.622 84.371C273.233 82.2998 273.094 81.4924 272.085 79.4965C269.527 74.438 259.027 72.4431 257.573 79.2935C256.844 83.5258 262.026 86.7128 264.941 88.6259C271.923 93.2063 280.568 97.3834 279.12 107.208C278.505 111.59 276.144 115.538 272.574 118.154C268.157 121.369 263.281 121.807 258.055 121.016C250.046 119.414 242.778 115.1 240.089 106.962C239.265 104.47 239.138 102.103 238.919 99.5132C242.224 99.3655 245.424 99.2477 248.715 98.9C249.033 102.661 250.09 106.446 253.077 108.969C256.64 112.032 263.518 113.673 266.846 109.482C271.296 104.169 263.325 98.9343 259.046 96.6092C249.046 91.1744 241.813 81.8738 250.009 71.1937C252.767 67.6005 257.348 65.988 261.886 65.6024Z"/><path fill="#00A0F6" d="M102.885 120.049C113.148 119.217 108.876 123.882 107.643 130.327L107.577 130.68L107.38 130.658C104.001 130.308 100.568 130.17 97.8093 132.49C96.0966 133.93 94.0165 137.383 94.0165 139.749C94.0165 140.905 95.3611 143.03 96.2141 143.788C101.748 148.704 114.831 132.505 124.187 132.495C127.887 132.491 131.459 134.578 133.983 137.164C137.159 140.42 138.508 144.52 138.415 149.022C138.291 155.067 135.1 160.581 130.789 164.662C125.902 169.288 121.094 170.451 114.561 170.273C112.425 170.08 110.445 170.231 109.081 168.644C108.416 166.79 110.784 161.417 111.469 158.792C117.62 161.546 122.345 160.766 126.558 155.431C129.184 152.105 129.89 146.888 125.896 144.428C120.901 141.352 113.967 149.004 109.959 151.303C107.557 152.828 104.493 154.73 101.639 155.192C86.6212 157.621 79.348 140.774 88.2536 129.439C92.8304 123.614 95.7932 121.367 102.885 120.049Z"/><path fill="#00A0F6" d="M161.271 342.881C170.35 342.017 178.423 348.646 179.342 357.72C180.261 366.793 173.681 374.906 164.614 375.881C155.467 376.863 147.269 370.214 146.342 361.062C145.415 351.91 152.113 343.752 161.271 342.881Z"/><path fill="#EEEDED" d="M162.288 348.543C175.293 347.467 176.998 366.711 163.844 369.997C148.796 370.739 149.616 351.889 162.288 348.543Z"/><path fill="#FC4339" d="M284.298 290.223C287.487 293.535 290.853 296.721 293.996 300.024C291.983 302.331 288.753 305.1 286.384 307.013C275.636 315.816 263.08 322.141 249.609 325.539C248.865 321.179 247.535 316.443 246.384 312.144C257.575 309.136 268.026 303.854 277.084 296.628C279.478 294.707 281.969 292.292 284.298 290.223Z"/><path fill="#00A041" d="M155.639 300.198C158.569 297.225 162.327 292.872 165.576 290.547C175.496 299.91 189.55 309.134 203.007 312.093C201.654 316.743 200.575 320.813 199.635 325.563C182.812 320.685 167.994 312.839 155.639 300.198Z"/><path fill="#00A0F6" d="M199.291 355.338C205.489 356.352 219.31 355.74 221.373 363.747C223.166 370.704 219.96 375.592 213.077 377.586C214.434 379.376 218.977 387.725 220.084 390.004C217.523 390.028 216.08 389.924 213.555 389.66C210.877 388.136 208.904 375.663 203.47 376.885C203.011 377.379 202.114 386.77 201.966 388.003C199.92 387.92 197.815 387.661 195.772 387.445C197.37 377.857 198.117 365.368 199.291 355.338Z"/><path fill="#EEEDED" d="M204.542 361.949C207.684 361.996 212.14 362.211 214.518 364.546C216.612 366.602 215.188 369.245 213.428 370.994C210.848 372.515 206.748 371.751 203.744 371.469C204.119 368.845 204.461 364.575 204.542 361.949Z"/><path fill="#00A0F6" d="M316.807 318.404C317.519 318.657 336.059 340.639 337.978 343.036C336.521 344.406 334.669 345.902 332.97 346.957C324.83 344.967 316.294 342.492 308.237 340.163C308.452 340.389 308.664 340.618 308.872 340.85C310.713 342.906 321.731 354.988 321.645 356.549C320.503 358.248 318.757 359.371 317.106 360.564C315.688 357.876 310.542 352.173 308.329 349.61C304.451 345.12 300.478 340.354 296.537 335.936C298.118 334.472 299.659 333.193 301.313 331.82C308.143 333.199 320.155 336.51 326.479 339.265C323.199 334.037 316.096 327.645 312.338 322.062C314.229 320.727 315.049 320.002 316.807 318.404Z"/><path fill="#00A0F6" d="M346.413 284.326C347.661 284.184 349.43 284.261 350.728 284.28C350.774 286.416 350.562 288.073 350.186 290.157C343.837 290.846 339.223 291.971 338.334 299.77C337.677 305.54 345.305 311.113 350.617 310.999C355.626 310.891 360.942 305.44 360.396 300.237C360.092 297.118 359.404 296.362 357.286 294.385C356.701 296.641 354.878 299.816 353.78 302.055C352.735 301.423 350.45 300.469 349.249 299.93C350.364 297.054 354.484 289.83 356.248 287.103L356.658 286.888C357.563 287.077 357.834 287.409 358.552 287.858C367.008 293.146 368.699 302.255 362.906 310.37C360.63 313.543 356.846 316.654 352.782 317.147C337.924 318.951 326.557 303.592 335.765 290.638C338.449 286.863 341.945 285.009 346.413 284.326Z"/><path fill="#00A0F6" d="M128.08 313.443C129.341 313.661 132.622 317.408 133.803 318.565C137.221 321.914 141.206 325.576 140.82 330.805C140.621 333.496 139.499 335.707 137.536 337.399C130.29 343.642 123.498 338.614 118.471 332.7C118.291 332.584 118.127 332.63 117.846 332.619C116.113 333.899 111.643 339.572 110.15 339.639C108.175 339.042 107.009 337.504 105.569 336.006C110.432 331.202 115.261 326.362 120.055 321.489C122.495 319.001 125.516 315.699 128.08 313.443Z"/><path fill="#EEEDED" d="M128.346 321.92C132.172 322.554 139.436 333.844 129.071 333.687C126.345 332.443 124.176 330.055 121.769 328.132C123.544 326.755 126.598 323.61 128.346 321.92Z"/><path fill="#00A0F6" d="M103.737 282.797C111.188 282.807 116.727 291.584 114.906 298.695C113.753 303.199 111.398 303.569 108.324 299.532C107.459 298.395 108.264 297.34 108.975 296.15C111.654 291.661 102.442 285.456 102.018 292.628C101.702 298.693 106.123 307.639 98.8095 311.479C96.6958 312.589 93.5279 312.433 91.2062 311.963C89.9046 311.477 88.929 310.898 87.8599 310.016C85.001 307.634 83.1825 304.232 82.79 300.532C82.4948 297.459 83.3486 290.646 87.3337 290.523C88.9536 291.158 89.8813 292.526 90.9791 293.868C89.7852 296.029 88.0416 298.527 88.6183 300.988C88.8449 302.372 90.1845 304.975 91.6108 305.545C98.5397 308.359 96.8211 300.779 96.0815 296.885C94.7444 289.846 95.9659 284.75 103.737 282.797Z"/><path fill="#DAAA73" d="M224.223 123.199C226.202 125.458 227.813 132.757 228.999 135.742C231.3 135.83 240.451 135.34 241.537 136.114C241.335 137.176 233.006 142.855 231.522 143.966C232.968 147.666 234.769 153.299 235.865 157.137C232.11 154.367 228.741 151.621 224.88 148.888C223.988 149.235 214.913 155.89 213.372 156.964C215.038 152.662 216.199 148.096 217.914 143.866C214.424 141.28 210.065 138.319 206.803 135.566C211.14 135.818 216.016 135.771 220.36 135.76C221.778 131.825 222.874 127.28 224.223 123.199Z"/><path fill="#00A0F6" d="M258.1 353.586C258.833 353.474 260.11 353.49 260.896 353.474C261.277 355.518 261.408 356.736 261.547 358.816C258.378 359.287 255.213 359.781 252.052 360.297C254.027 368.293 255.52 378.152 257.177 386.437C254.878 387.017 253.391 387.239 251.042 387.428C250.619 385.34 250.169 383.257 249.69 381.181C248.631 375.077 247.046 367.535 246.33 361.557C242.645 362.303 240.201 362.736 236.497 362.978C236.219 361.323 236.049 359.04 235.871 357.329C240.545 357.166 252.46 354.424 258.1 353.586Z"/><path fill="#00A0F6" d="M276.438 219.277C279.346 219.07 283.154 219.461 281.738 223.375C279.321 225.239 275.724 220.144 272.887 226.588C273.146 227.103 273.82 226.854 274.467 226.761C280.812 225.844 284.955 229.507 282.319 235.791C278.288 241.578 271.141 240.532 269.145 234.555C266.916 227.884 269.897 221.426 276.438 219.277Z"/><path fill="#EEEDED" d="M274.956 229.807C279.92 229.637 279.843 234.574 276.88 235.862C272.148 235.62 271.244 231.038 274.956 229.807Z"/><path fill="#00A0F6" d="M280.755 344.561C280.819 344.617 292.767 370.67 294.31 373.353C292.398 375.13 290.714 375.444 288.278 375.931C287.649 374.843 287.13 373.336 286.599 372.15C282.793 363.653 278.702 355.274 274.911 346.772C276.453 346.348 279.179 345.181 280.755 344.561Z"/><path fill="#00A0F6" d="M172.65 219.274C176.332 219.054 180.538 221.709 180.334 225.6C180.117 229.737 174.2 232.608 171.316 235.035C174.134 235.122 177.048 235.161 179.847 235.433C179.904 236.536 179.843 237.888 179.823 239.011C176.215 239.219 172.572 239.102 168.957 239.03C168.757 239.017 168.557 239.003 168.357 238.986C166.808 238.843 166.717 238.194 166.941 236.646C167.705 231.373 174.262 229.837 175.962 225.383C176.433 223.825 173.201 222.58 172.4 223.253C170.766 224.623 169.128 229.601 166.274 225.986C165.436 223.15 170.345 220.018 172.65 219.274Z"/></svg>