<?xml version="1.0" encoding="UTF-8"?>
<svg xmlns="http://www.w3.org/2000/svg" version="1.1" viewBox="0 0 500 500">
  <defs>
    <style>
      .cls-1 {
        fill: #1d193b;
      }

      .cls-2 {
        fill: #fac901;
      }

      .cls-3 {
        fill: #fafafb;
      }

      .cls-4 {
        fill: #e10613;
      }

      .cls-5 {
        fill: #fefefe;
      }

      .cls-6 {
        fill: #e7e7e7;
      }
    </style>
  </defs>
  <!-- Generator: Adobe Illustrator 28.7.1, SVG Export Plug-In . SVG Version: 1.2.0 Build 142)  -->
  <g>
    <g id="Layer_1">
      <g>
        <path class="cls-6" d="M83.4,321.6c3.7-6.6,9.1-10.4,16.8-10.7,3.8-.2,7.7-.2,11.6,0,3.3.2,3.1-1.1,2-3.4-2-4-3.3-8.2-4.8-12.4-7.1-20-9.2-40.6-7.8-61.6,1.3-18.8,6.2-36.8,14.2-54,8.1-17.3,19-32.6,32.7-45.8,9.9-9.5,21-17.6,33.2-24.1,16.5-8.9,34.1-14.4,52.5-16.7,12.2-1.5,24.6-1.3,36.9.3,18,2.3,34.9,7.9,50.9,16.3,11.1,5.8,21.1,13.2,30.4,21.5,11,9.8,20,21,27.7,33.4,10.5,16.9,17.1,35.3,20.6,54.9,2,11.3,2.5,22.7,2,34.1-.7,15.3-3.6,30.2-9,44.6-1.3,3.5-2.7,7-4.2,10.4-.9,1.9-.4,2.4,1.6,2.5,4.2.1,8.4-.5,12.5.5,6.6,1.6,11.3,5.3,13.4,11.9.3.9.6,159,.4,159.8-1.7,5.9-5.2,10.2-11.2,12.4-.8.3-311,.6-311.8.3-5.5-2.1-9.5-5.7-11.4-11.3-.3-.8,0-162,.5-162.9ZM249.7,492.3c49.2,0,98.4,0,147.5,0,10.8,0,16.1-5.3,16.1-16.1,0-48.1,0-96.3,0-144.4,0-.9,0-1.9,0-2.8-.4-7.9-5.9-13.2-13.8-13.3-4.9,0-9.8,0-14.7,0-4,0-3.9,0-2.3-3.6,24.5-53.9,21.5-106.2-13.1-154.4-33.3-46.4-80.1-66.1-136.9-59.6-34.8,4-64.2,19.9-87.7,45.9-30.5,33.7-43,73.5-38.4,118.7,1.8,17.7,6.9,34.4,14.9,50.3,1,2.1.9,2.8-1.6,2.7-5.8-.2-11.7,0-17.5,0-10.7,0-15.9,5.2-15.9,15.9,0,48.3,0,96.5,0,144.8,0,10.6,5.3,16,15.9,16,49.2,0,98.4,0,147.5,0Z"/>
        <path class="cls-1" d="M294.1,35.9c-8.9,6.5-16.8,12.3-24.9,18.1-1.8,1.3-2.2,2.4-1.5,4.6,3.2,9.2,6.1,18.6,9.1,27.8-1.3.8-1.8-.3-2.5-.7-7.4-5.3-14.8-10.6-22.1-16.1-1.7-1.3-2.8-1.3-4.5,0-8,6-16.2,11.8-25,18.2,2-6.3,3.8-11.7,5.5-17.2,1.3-4.1,2.5-8.3,4-12.3.8-2.1.3-3.1-1.4-4.3-8.1-5.7-16-11.6-24.1-17.4.9-1.2,2.1-.6,3-.6,8.9,0,17.8-.1,26.6,0,2.4,0,3.5-.6,4.2-3,2.4-8.1,5.1-16.2,7.8-24.3.5-1.4,1-2.8,1.7-4.7,3.3,10,6.4,19.3,9.3,28.7.7,2.4,1.7,3.3,4.3,3.2,9.8-.2,19.6,0,30.5,0ZM280.3,40.8c0-.2-.2-.5-.3-.7-6.4,0-12.8-.1-19.2,0-2.5,0-3.7-.6-4.4-3.1-1.9-6.4-4.1-12.8-6.5-19.9-1.9,5.9-3.6,11.1-5.3,16.3q-2.2,6.6-9.1,6.6h-15.8c5.2,4.5,10.4,8.5,15.7,12.1,2.1,1.4,2.3,2.7,1.5,4.9-2.2,6.2-4.1,12.5-6.2,18.8,1.5.3,2.1-.7,3-1.3,4.3-3.1,8.7-6,12.7-9.3,2.5-2.1,4.3-2.1,6.8,0,4.7,3.8,9.9,7.2,14.9,10.9.6-1.7,0-2.7-.4-3.8-1.7-5.2-3.2-10.5-5.1-15.6-.8-2.1-.3-3.1,1.4-4.3,5.4-3.8,10.7-7.8,16.1-11.7Z"/>
        <path class="cls-1" d="M249.7,492.3c-49.2,0-98.4,0-147.5,0-10.5,0-15.9-5.4-15.9-16,0-48.3,0-96.5,0-144.8,0-10.7,5.2-15.9,15.9-15.9,5.8,0,11.7-.1,17.5,0,2.6,0,2.7-.7,1.6-2.7-8-15.9-13.1-32.6-14.9-50.3-4.6-45.2,7.9-85,38.4-118.7,23.5-25.9,52.9-41.9,87.7-45.9,56.8-6.5,103.6,13.2,136.9,59.6,34.5,48.2,37.6,100.5,13.1,154.4-1.6,3.6-1.7,3.6,2.3,3.6,4.9,0,9.8,0,14.7,0,7.9.1,13.4,5.4,13.8,13.3,0,.9,0,1.9,0,2.8,0,48.1,0,96.3,0,144.4,0,10.9-5.2,16.1-16.1,16.1-49.2,0-98.4,0-147.5,0ZM303.5,388c-.4,11.7-.7,23.3.2,35,.6,8.7,5.8,14.6,13.6,16.7,4.9,1.3,10,1.4,14.9.6,9.9-1.6,15.6-7.3,16.7-17.4.7-6.2.3-12.6.4-18.9,0-1.5-.7-1.7-1.9-1.7-4,0-7.9,0-11.9,0-1.9,0-2.4.7-2.3,2.5,0,4.5.1,9.1,0,13.7-.2,4.2-2.6,6.3-6.8,6.3-4.6,0-6.8-2.4-6.9-7.7-.1-9.7-.2-19.4-.3-29,0-1.3.2-2.5.2-3.8,0-11.7,0-23.4,0-35,0-4.8,2.3-7.1,6.8-7.1,4.5,0,6.7,2.1,6.9,6.9.1,3,.1,6.1,0,9.1,0,1.8.5,2.5,2.4,2.4,3.8-.1,7.7,0,11.6,0,1.6,0,2.3-.4,2.3-2.1-.1-4.6.1-9.1-.2-13.7-.8-9.9-6.1-16-15.6-18.1-2-.5-4.2-.7-6.2-.7-11.6-.1-22.7,3.3-23.7,19.3-.9,14.2-.5,28.5,0,42.7ZM244.7,388c0-.3,0-.7,0-1-2.8-19.1-5.7-38.3-8.4-57.4-.3-1.9-1.3-1.8-2.7-1.8-5.6,0-11.2.2-16.8,0-2.4,0-3.2.8-3.5,3-2.8,19.1-5.6,38.3-8.4,57.4-.9,5.7-1.8,11.5-2.7,17.3-1.5,10.4-3,20.7-4.6,31.1-.4,2.2.3,2.9,2.5,2.8,3.6-.2,7.2-.1,10.8,0,2,0,2.8-.4,3-2.6.6-6.1,1.6-12.2,2.4-18.4,1.3-10,2.5-20.1,3.8-30.1,1.5-10.2,2.9-20.4,4.4-30.6.2,0,.4,0,.7,0,1.4,10.2,2.8,20.4,4.2,30.6.2,1.6.3,3.2.6,4.9,1.9,14.6,3.8,29.1,5.7,43.7.2,1.8.9,2.6,2.9,2.5,3.6-.2,7.2-.2,10.9,0,2.4.1,3.2-.4,2.7-3.1-1.1-5.5-1.7-11.1-2.5-16.6-1.6-10.5-3.3-21-4.9-31.4ZM177.4,388.7c1.4,2.4,3.4,4.6,3.4,7.5,0,7.5.2,14.9,0,22.4-.1,3.8-2.1,5.6-5.5,6.1-5.1.7-8-1.8-8.2-7-.1-4.3,0-8.6,0-13,0-1.5-.2-2.4-2-2.4-4.1.1-8.2,0-12.2,0-1.5,0-2,.5-2,2,.1,5.6-.2,11.2.2,16.8.9,11.1,6.5,17.4,16.9,19.2,3.9.7,7.9.7,11.9,0,9.7-1.5,15.4-7,16.7-16.6,1.4-10.3.6-20.7.4-31.1,0-1.5-.2-3.3-1.2-4.7-1.9-7.7-7.1-12.9-13.1-17.5-3.5-2.6-6.9-5.1-9.9-8.3-3.4-3.7-6-7.7-5.6-13.1.4-4.7,2.5-7,6.9-7.1,4.5,0,6.7,2.1,7,6.9.2,3.1.1,6.3,0,9.4,0,1.6.3,2.3,2.1,2.2,4.1-.1,8.2,0,12.3,0,1.3,0,1.9-.3,1.9-1.7-.1-4.7.2-9.4-.3-14-1.2-10.7-6.4-16.5-16.2-18.4-4.8-.9-9.7-.8-14.6.3-7.9,1.8-12.7,6.7-14.4,14.5-3.1,14.9.4,27.5,13.3,36.7,4.5,3.2,8.7,6.7,12.4,10.7ZM297.5,387.9c-1.9-7.7-7.2-12.9-13.2-17.5-4.2-3.2-8.3-6.3-11.7-10.5-2.9-3.5-4.2-7.5-3.5-12,.6-4.2,2.9-6,7.2-5.9,4,.2,6.2,2.2,6.4,6.4.2,3.4.1,6.8,0,10.2,0,1.5.4,2.1,2,2.1,4.1,0,8.2,0,12.3,0,1.5,0,2-.5,2-2-.1-4.7.1-9.4-.2-14-.8-9.9-6.4-16.2-16-18.1-4.8-.9-9.7-.9-14.6.2-7.7,1.8-12.6,6.4-14.3,14.1-3.2,14.7-.2,27.4,12.5,36.6,4.4,3.2,8.7,6.7,12.6,10.6,1.7,2.9,4,5.4,3.9,9.2-.1,6.7,0,13.3,0,20,0,5.2-2.1,7.5-6.6,7.6-4.7,0-7-2.3-7.1-7.5-.1-4.2,0-8.4,0-12.6,0-1.6-.4-2.3-2.1-2.3-4,0-7.9,0-11.9,0-1.8,0-2.2.7-2.1,2.3,0,5.1-.2,10.3,0,15.4.6,10.6,5.1,17,13.6,19.5,6.3,1.8,12.7,1.8,19,0,6.8-1.9,11.3-6.6,12.4-13.4,2.1-11.7,1-23.5.6-35.3,0-1-.6-2-.9-2.9ZM100.6,388c0,10.7-.4,21.5,0,32.2.4,11.6,6.4,18.4,17,20.2,3.8.6,7.7.6,11.5,0,9.7-1.4,15.6-6.8,16.8-16.4,1.6-11.9.5-24,.5-36,0-13.9.3-27.8,0-41.6-.2-10-5.4-16.9-13.8-19.2-5.5-1.5-11.1-1.6-16.6-.4-8.8,1.9-14.1,7.3-15,16.2-1.5,15-.5,30-.5,45.1ZM399.1,388c.4-14.7.8-29.4-.3-44.1-.7-9.8-7-16-16.6-17.5-3.6-.6-7.2-.5-10.8-.2-10,1-17.1,7.3-17.9,17.4-1.1,14.8-.6,29.6-.3,44.4-.4,11.3-.6,22.6.1,33.9.7,10.5,6.8,17,17.2,18.5,3.6.5,7.2.5,10.8,0,10.1-1.3,16.6-7.6,17.4-17.5,1-11.6.6-23.3.3-34.9ZM249.8,316.6h32.2c25.7,0,51.4,0,77.1,0,2.2,0,3.7-.4,4.6-2.6,1.6-3.7,3.5-7.4,5.4-11,.7-1.4.5-2.3-.6-3.4-4.9-4.7-9.7-9.4-15.3-13.3-15.3-10.5-32.4-16.9-50.3-21.4-2.2-.6-3.2-1.4-3.9-3.7-5-18.2-10.1-36.4-17.4-53.9-4.4-10.7-9-21.3-17.3-29.8-7.8-7.9-16.7-7.9-24.7-.1-5.3,5.1-9.1,11.2-12.5,17.6-11.1,20.8-18.2,43.2-25.1,65.6-.9,2.9-2.2,4-5,4.8-23.5,6.2-44.8,16.5-62.6,33.5-4.6,4.3-4.7,4.3-1.7,9.8.9,1.6,2,3.2,2.7,4.9,1.1,2.4,2.8,3.2,5.5,3.2,36.2-.1,72.4,0,108.6,0ZM309.1,125.5c-.6-1.6-1.9-1.8-2.8-2.3-12.5-5.4-25.4-8.9-39.1-10.2-17-1.6-32.3,3.7-47,11-31.5,15.6-51.7,41.8-66.9,72.5-.8,1.7-.9,3.3.3,4.9,7.7,10.3,17.1,18.8,28.1,25.5,2.1,1.3,3.3.9,4.1-1.4,2.1-6,4.5-11.8,7.1-17.5,9.9-21.6,22.9-40.8,41.8-55.8,15.9-12.6,33.7-20.8,53.7-24,6.8-1.1,13.7-1.9,20.7-2.8ZM362.3,172.1c-.1-.6-.1-.9-.3-1.2-.3-.6-.7-1.2-1.1-1.8-8.9-12.6-20-23.1-32-32.6-1.7-1.3-3.6-1.6-5.6-1.6-11.1,0-22.2.7-33.1,2.8-21.2,4.1-40.2,12.7-56.1,27.6-18.2,17.1-29.7,38.5-38.8,61.4-2.4,6.1-2.2,6.2,4.2,8.3,2.6.9,3.7.4,4.7-2.4,4.6-12.5,9.7-24.8,16.2-36.4,4.2-7.6,8.9-14.8,15.2-20.9,10.5-10,22.4-10.1,32.9-.2,4.9,4.6,8.6,10.1,11.9,16,1,1.8,1.6,2,3.3.7,5.6-4.3,11.6-7.8,18.1-10.5,17.2-7.3,35.3-9.5,53.8-9.1,2.2,0,4.3,0,6.6,0ZM373,290.4c0-8.9,0-16.8-.5-24.8-2-30.1-12.2-57-30.6-80.8-1.4-1.9-2.8-2.6-5.3-2.4-12.6,1-24.5,4.5-35.8,10-1.4.7-1.7,1.3-.7,2.5,2.4,3,4.7,6.1,7,9.2,14.4,18.8,25.8,39.1,31,62.5.7,3.2,2.1,5.1,5.2,6.1,3.1,1.1,6,2.6,8.9,4.1,7.2,3.6,13.9,8,20.7,13.7ZM132.8,185.2c-6.5,13.7-11.3,27.3-12.9,41.8-.4,3.3-1.8,6.8-.1,10,7.6,14.3,16.7,27.5,29.4,37.9,1.7,1.4,2.9,1.6,4.9.5,11.2-5.6,22.8-10.1,35-12.9,4-.9,6.3-2.6,7.1-6.8.5-2.6,1.5-5.2,2.5-7.6.9-2.3.7-3.4-2-4.2-24.8-7.8-43.4-23.5-56.7-45.7-2.4-4.1-4.6-8.4-7.2-13ZM328.2,266.5c-.2-.9-.2-1.3-.3-1.8-6.5-24.5-19.6-45.2-35.9-64.3-1-1.2-2-1.7-3.2-.6-1,1-3.1,1.4-2,3.7,1.3,2.7,2.5,5.5,3.6,8.4,6.1,14.9,10.9,30.3,15.5,45.7.4,1.3.4,2.9,2.4,3.5,6.5,1.6,13,3.5,19.9,5.4ZM208,119.8c-2-.6-2.9,0-3.8.4-26.8,10.5-48,27.8-64,51.7-.5.8-1.2,1.7-.9,2.6,1.6,5,3.8,9.8,7,15.1,14.5-29.1,33.8-53,61.7-69.8ZM351.9,182c17.8,24.8,28.3,51.9,30.3,82.5,1.1-1.6,1.2-3,1.4-4.4,1.5-13.5,1-27.1-1.6-40.4-2.3-11.8-5.8-23.3-11.2-34.1-.6-1.2-1-2.9-2.6-3-5.2-.3-10.3-1.2-16.2-.7ZM211.2,464c0,3.4-.1,6.8,0,10.2.1,2.5-1.2,6.5.7,7.2,3.2,1.2,7.1.9,10.6-.3,1.5-.5,2.8-1.7,3-3.2.6-6,2.3-12.2-1.1-18-.7-1.1.2-1.3.5-1.9,1.8-2.8,1.6-5.8.3-8.7-1.2-2.6-3.8-3.3-6.5-3.2-1.3,0-2.6.2-3.8,0-2.8-.4-3.9.4-3.7,3.5.3,4.8,0,9.6,0,14.4ZM235,464c0,3.7-.1,7.5,0,11.2.2,4.7,2.7,7,7.3,7.1,4.8,0,7.3-2,7.5-6.8.3-7.7.3-15.4,0-23.1-.1-4.9-2.9-7.1-7.8-6.9-4.6.2-6.9,2.4-7.1,7.3-.1,3.7,0,7.5,0,11.2ZM360.3,463.7v10.5c0,8.5.2,8.6,8.7,7.5,3.7-.5,5.7-2.3,6-6.1.3-4,0-7.9,0-11.9,0-1.1-.2-2.2-1-2.9-1.1-1.1-1-1.7-.1-3.1,3.4-5.3,0-11.4-6.3-11.5-1.8,0-3.5.1-5.3,0-1.7-.1-2.2.5-2.1,2.2,0,5.1,0,10.3,0,15.4ZM127.5,463.8c0,3.8,0,7.7,0,11.5,0,4.7,2.5,6.9,7.3,6.9,4.7,0,7.3-2.3,7.4-6.9.1-7.7.1-15.4,0-23.1,0-4.6-2.7-6.8-7.5-6.8-4.6,0-7,2.3-7.2,6.7-.1,3.8,0,7.7,0,11.5ZM335.7,462.1c0,4.3,0,8.6,0,13,0,5,2.4,7.2,7.4,7.2,4.8,0,7.3-2.4,7.3-7.4,0-8.8,0-17.5,0-26.3,0-2-.6-2.5-2.6-2.6-2.3,0-3,.6-2.9,2.9.1,8.4,0,16.8,0,25.2,0,1.4-.1,2.7-1.9,2.8-1.9,0-2.3-1.2-2.3-2.8,0-.7,0-1.4,0-2.1,0-7.6,0-15.2,0-22.8,0-1.7.4-3.4-2.5-3.3-2.6,0-2.7,1.1-2.7,3.1.1,4.3,0,8.6,0,13ZM110.4,470.6c-1.1-7.8-2.2-14.9-2.9-22.1-.3-3.5-2.5-2.2-4.2-2.3-2.5-.1-1.2,1.7-1.1,2.7,1.4,10,2.9,20.1,4.4,30.1.3,1.8.6,3.3,2.9,2.8,1.9-.4,4.7,1.4,5.2-2.5,1.3-9.9,2.8-19.8,4.5-29.7.6-3.3-.8-3.6-3.5-3.4-2.3.1-1.8,1.8-2,3-1.1,7-1.5,14.1-3.4,21.5ZM119.2,255.8c.6,13.4,3.1,25.2,7.8,37,5-4,10-7.6,15.3-10.9-4-4.3-8.5-7.6-12-12-3.5-4.4-7-8.8-11.2-14ZM289.9,463.7c0,0,.1,0,.2,0,0,4.3-.1,8.6,0,12.9.1,3.2,2.1,5,5.3,5.5,6.5,1,9.4-1.9,9.4-9.4,0-2.1-.5-2.8-2.7-2.8-2,0-3.1.4-2.8,2.7.1.7,0,1.4,0,2.1,0,1.3-.6,2.3-2.1,2.3-1.7,0-2.2-1.1-2.2-2.5,0-.9,0-1.9,0-2.8,0-5.7,0-11.4,0-17.1,0-1.6-.3-3.5,2.2-3.6,2.3,0,2,1.7,2.1,3.2,0,.5,0,.9,0,1.4.4,1.8,1.9,1,2.8,1,.9,0,2.4.7,2.5-1,.2-2.9.3-6-2-8.2-2.6-2.4-5.7-2.3-8.9-1.3-3,1-3.9,3.5-4,6.4-.1,3.7,0,7.5,0,11.2ZM180.4,446.1c-1,0-2.1.1-3.1,0-3-.5-4,.6-3.9,3.7.3,7.2,0,14.5,0,21.7,0,11.5,0,11.4,11.6,10.4,2.3-.2,1.9-1.5,1.9-2.9,0-1.5.1-2.8-2.1-2.7-1.9,0-4.6,1-5.6-.5-1-1.5-.4-4-.4-6.1,0-1,0-2.1,0-3.1,0-4.7,0-4.8,4.6-4.8,2.1,0,2.4-.8,2.5-2.6,0-1.9-.3-2.9-2.4-2.6-.8.1-1.6,0-2.4,0-2,.3-2.3-.7-2.2-2.4,0-1.6-.1-3.1,2.3-2.8.9.1,1.9,0,2.8,0,2,.2,3.2-.2,3.2-2.7,0-2.6-1.2-2.8-3.2-2.7-1.2,0-2.3,0-3.5,0ZM384.3,463.7c0,5.2,0,10.5,0,15.7,0,1.8.5,2.5,2.4,2.4,3-.1,6.1-.1,9.1,0,2,0,2.1-1.1,1.9-2.4-.1-1.2.8-2.9-1.7-3-2,0-4.9,1-5.9-.6-1-1.6-.3-4.3-.3-6.5,0-1.3.2-2.6,0-3.8-.5-3.1.6-4.4,3.8-3.8,2.9.6,3.6-.9,3.3-3.5-.4-2.9-2.5-1.4-3.8-1.5-3.1-.2-4.2-1.4-3.1-4.2.9-2.2,3-.9,4.5-1,2-.1,3.4,0,3.4-2.8,0-2.8-1.4-2.6-3.2-2.5-2.6,0-5.1.1-7.7,0-2-.1-2.6.5-2.6,2.5.1,5,0,10,0,15ZM151.8,463.9c0,2.4-.1,4.9,0,7.3.2,3.5-1.6,8.2.8,10,2.2,1.7,6.7.5,10.2.5.3,0,.7,0,1,0,1.1,0,1.4-.6,1.5-1.5.2-2.4.3-4.3-3.2-4-4.8.3-4.9,0-4.9-4.9,0-7.6,0-15.2,0-22.7,0-1.9-.4-2.7-2.5-2.6-1.7.1-3.1,0-3,2.5.2,5.1,0,10.3,0,15.4ZM259.4,463.7c0,5.2,0,10.5,0,15.7,0,1.8.4,2.5,2.3,2.4,3-.1,6.1-.2,9.1,0,2.2.1,2.1-1.2,2.1-2.7,0-1.3.4-3-1.9-2.8-.7,0-1.4,0-2.1,0-3.2.5-4.4-.5-4.3-4,.3-8,0-16.1.1-24.1,0-2.5-1.4-2.1-2.9-2.2-1.6,0-2.5.1-2.5,2.2.2,5.1,0,10.3,0,15.4ZM314.1,463.9c0,2.6-.1,5.1,0,7.7.2,3.3-1.5,7.8.7,9.7,1.9,1.6,6.2.5,9.5.5,3.2,0,4.2-1.3,3.2-4.2-.8-2.4-3-1.2-4.5-1.1-2.8.1-3.8-.6-3.7-3.6.2-8.2,0-16.3.1-24.5,0-2.3-1.1-2.3-2.8-2.3-1.8,0-2.7.3-2.6,2.4.2,5.1,0,10.3,0,15.4ZM201.3,464.2c0-5.2-.1-10.5,0-15.7,0-2.1-.8-2.5-2.6-2.4-1.6,0-2.9-.2-2.9,2.3.1,10.4.1,20.7,0,31.1,0,2.5,1.3,2.3,3.1,2.5,2.2.2,2.4-.9,2.4-2.7,0-5,0-10,0-15Z"/>
        <path class="cls-2" d="M280.3,40.8c-5.3,3.9-10.6,7.9-16.1,11.7-1.7,1.2-2.2,2.2-1.4,4.3,1.9,5.1,3.4,10.4,5.1,15.6.3,1.1,1,2.1.4,3.8-5.1-3.7-10.2-7.1-14.9-10.9-2.6-2.1-4.3-2-6.8,0-4.1,3.3-8.4,6.3-12.7,9.3-.8.6-1.5,1.6-3,1.3,2.1-6.3,4-12.6,6.2-18.8.8-2.2.5-3.5-1.5-4.9-5.4-3.6-10.6-7.6-15.7-12.1h15.8q6.9,0,9.1-6.6c1.7-5.2,3.4-10.4,5.3-16.3,2.3,7.1,4.6,13.5,6.5,19.9.7,2.5,1.9,3.2,4.4,3.1,6.4-.2,12.8,0,19.2,0,0,.2.2.5.3.7Z"/>
        <path class="cls-4" d="M249.8,316.6c-36.2,0-72.4,0-108.6,0-2.7,0-4.4-.7-5.5-3.2-.8-1.7-1.9-3.2-2.7-4.9-3-5.5-2.9-5.4,1.7-9.8,17.8-16.9,39.1-27.3,62.6-33.5,2.8-.7,4.1-1.9,5-4.8,6.9-22.4,14-44.8,25.1-65.6,3.4-6.4,7.3-12.5,12.5-17.6,8-7.8,16.9-7.8,24.7.1,8.3,8.4,12.9,19.1,17.3,29.8,7.2,17.5,12.4,35.7,17.4,53.9.6,2.3,1.7,3.1,3.9,3.7,17.8,4.6,35,10.9,50.3,21.4,5.6,3.9,10.5,8.6,15.3,13.3,1.1,1,1.3,2,.6,3.4-1.9,3.6-3.8,7.3-5.4,11-1,2.2-2.4,2.6-4.6,2.6-25.7,0-51.4,0-77.1,0h-32.2ZM287.4,261.6c-4.7-19.7-9.4-38.8-17.1-57-2.6-6.1-5.4-12.2-10.1-17.1-5.5-5.8-11.5-5.8-17.1-.3-4,3.9-6.7,8.7-9,13.6-8.6,18.1-13.7,37.4-18.9,56.6-1.1,4.2-1,4.3,3.5,3.6,10-1.7,20.1-2.3,30.3-2.4,12.7-.1,25.3.9,38.4,3ZM256.7,288.4v-14c0-7,0-6.8-7-7-2.9,0-3.5,1-3.5,3.6.1,10.1,0,20.3,0,30.4,0,7.8,0,7.7,7.9,7.4,2.1,0,2.5-.8,2.5-2.7,0-5.9,0-11.9,0-17.8ZM270.7,288.7c0-4.4,0-8.9,0-13.3,0-7.4,0-7.3-7.3-7.5-2.5,0-3.2.6-3.2,3.1.1,10.1,0,20.3,0,30.5,0,7.8,0,7.7,7.9,7.5,2,0,2.5-.8,2.5-2.7,0-5.8,0-11.7,0-17.5ZM243.2,288.5h-.1c0-6,0-11.9,0-17.9,0-1,.4-2.6-.8-2.7-2.8-.2-5.7-.2-8.2.6-1.3.4-.9,3.1-1,4.8,0,9.3-.1,18.7-.2,28,0,7.8,0,7.7,7.7,7.5,2.2,0,2.7-.9,2.7-2.9-.1-5.8,0-11.7,0-17.5ZM229.3,288.8c0-4.2,0-8.4,0-12.6,0-7.8,0-7.7-7.6-6.5-2.3.4-3,1.4-2.9,3.7.1,9.3,0,18.7,0,28,0,7.8,0,7.7,7.9,7.5,2,0,2.6-.6,2.6-2.6-.1-5.8,0-11.7,0-17.5ZM274.3,288.8v13.3c0,7.1,0,7,7.2,6.8,2.2,0,2.6-.9,2.7-2.9.5-9.3.2-18.6.3-28,0-7.6,0-7.6-7.6-8.9-2.2-.4-2.6.2-2.6,2.2,0,5.8,0,11.7,0,17.5ZM187.9,293.9s0,0-.1,0v-7.7c0-7.7,0-7.6-7-4.8-2.4,1-3.4,2.2-3.2,4.8.2,4.9.1,9.8,0,14.7-.2,8.4-.2,8.3,7.9,7.9,2.1,0,2.5-1,2.4-2.8,0-4.1,0-8.1,0-12.2ZM315.6,293.8s0,0,0,0c0,2.3,0,4.7,0,7-.2,8-.2,7.8,7.7,8,2.5,0,2.9-.9,2.8-3-.1-5,0-10,0-15q0-8.4-7.8-11c-.1,0-.2,0-.3-.1-1.7-.8-2.3-.1-2.3,1.6,0,4.2,0,8.4,0,12.6ZM215.4,290.5c0-5.6,0-11.2,0-16.8,0-.9.4-2.3-1.4-2.2-1.2,0-2.4.2-2.7,1.6-2,9.3-5.5,18.4-6.1,27.9-.5,9.5-1.9,7.5,7.7,7.8,2,0,2.6-.6,2.6-2.6-.1-5.2,0-10.5,0-15.7ZM173.9,297.1c0-3.3,0-6.5,0-9.8,0-1.5-.4-1.8-1.9-1.3-7.5,2.5-8.4,3.7-8.4,11.5,0,1.4,0,2.8,0,4.2,0,7.2,0,7.1,7.1,7.2,2.4,0,3.4-.5,3.2-3.1-.2-2.9,0-5.8,0-8.8ZM329.5,285.1c0,5.9,0,11.4,0,16.9,0,7.6,0,7.5,7.6,6.8,1.6-.1,2.2-.6,2.3-2.3,0-4.4.3-8.8.4-13.2,0-1.3,0-2.6-1.3-3.4-2.7-1.7-5.4-3.6-9-4.8ZM288.2,271.1c0,10.7,0,21.2,0,31.6,0,6.2,0,6.1,6.3,6.2,2.6,0,3.2-.8,2.6-3.2-2.4-10.7-4.6-21.3-6.9-32-.2-1-.2-2.1-2-2.5ZM311.3,308.2c.3,0,.5,0,.8,0,0-9.6,0-19.1,0-28.7,0-1,.3-2.2-1.1-2.6-2.6-.7-5-2-8-2.1,2.9,11.3,5.6,22.3,8.4,33.3ZM160.4,293.3c-4,1.7-6.7,3.7-9.2,6.2-2.4,2.4-2.1,5.5-1.3,8.2.7,2.5,3.4.7,5.2,1.1,1,.2,2.1,0,3.1,0,1.7.1,2.2-.7,2.2-2.3,0-4.3,0-8.5,0-13.3ZM343.6,293v8.7q0,7.9,7.9,7.2c.7,0,1.4,0,1.9-.6.9-1.2-.2-8.6-1.4-9.5-2.5-1.8-5.1-3.6-8.4-5.8ZM191.4,296.8c.2,0,.4,0,.6,0,1.9-6.9,3.7-13.8,5.8-21.5-2.6,1.8-6.4.4-6.4,4.4,0,5.7,0,11.4,0,17.1Z"/>
        <path class="cls-4" d="M309.1,125.5c-7,1-13.9,1.8-20.7,2.8-20,3.2-37.8,11.4-53.7,24-18.8,14.9-31.9,34.2-41.8,55.8-2.6,5.7-5,11.6-7.1,17.5-.8,2.4-1.9,2.7-4.1,1.4-11-6.6-20.4-15.1-28.1-25.5-1.2-1.6-1.2-3.2-.3-4.9,15.1-30.8,35.4-56.9,66.9-72.5,14.7-7.3,30-12.7,47-11,13.6,1.3,26.6,4.8,39.1,10.2,1,.4,2.3.6,2.8,2.3Z"/>
        <path class="cls-4" d="M362.3,172.1c-2.3,0-4.5,0-6.6,0-18.5-.3-36.6,1.8-53.8,9.1-6.5,2.8-12.5,6.3-18.1,10.5-1.7,1.3-2.3,1.1-3.3-.7-3.2-5.9-7-11.4-11.9-16-10.6-9.9-22.4-9.8-32.9.2-6.3,6-11,13.3-15.2,20.9-6.4,11.7-11.6,23.9-16.2,36.4-1,2.8-2,3.2-4.7,2.4-6.4-2.1-6.6-2.2-4.2-8.3,9.1-22.9,20.6-44.2,38.8-61.4,15.8-14.9,34.9-23.5,56.1-27.6,10.9-2.1,22-2.9,33.1-2.8,2,0,3.9.3,5.6,1.6,12,9.5,23.1,20,32,32.6.4.6.7,1.2,1.1,1.8.1.3.2.6.3,1.2Z"/>
        <path class="cls-4" d="M373,290.4c-6.9-5.6-13.5-10.1-20.7-13.7-2.9-1.5-5.8-3-8.9-4.1-3.1-1.1-4.4-2.9-5.2-6.1-5.2-23.3-16.6-43.7-31-62.5-2.3-3.1-4.6-6.1-7-9.2-1-1.3-.8-1.8.7-2.5,11.3-5.5,23.2-9,35.8-10,2.4-.2,3.8.6,5.3,2.4,18.4,23.9,28.6,50.7,30.6,80.8.5,7.9.6,15.8.5,24.8Z"/>
        <path class="cls-4" d="M132.8,185.2c2.6,4.7,4.7,9,7.2,13,13.3,22.2,31.9,37.8,56.7,45.7,2.7.9,2.9,1.9,2,4.2-1,2.5-2,5-2.5,7.6-.8,4.1-3.1,5.8-7.1,6.8-12.2,2.9-23.8,7.3-35,12.9-2,1-3.2.8-4.9-.5-12.7-10.4-21.8-23.6-29.4-37.9-1.7-3.2-.2-6.6.1-10,1.6-14.5,6.4-28.1,12.9-41.8Z"/>
        <path class="cls-6" d="M353.3,388c-.4-14.8-.9-29.6.3-44.4.8-10.1,7.9-16.4,17.9-17.4,3.6-.3,7.2-.4,10.8.2,9.6,1.5,15.9,7.7,16.6,17.5,1.1,14.7.6,29.4.3,44.1-5.3,0-10.7,0-16,0,0-1.2-.2-2.3-.2-3.5,0-11.5,0-23.1,0-34.6,0-5.4-2.1-7.9-6.6-8-4.5-.1-6.7,2.3-7.1,7.6,0,1,0,2.1,0,3.1,0,11.8,0,23.6,0,35.3-5.3,0-10.6,0-15.9,0Z"/>
        <path class="cls-6" d="M100.6,388c0-15-1-30.1.5-45.1.9-8.9,6.2-14.2,15-16.2,5.5-1.2,11.1-1.1,16.6.4,8.4,2.3,13.6,9.2,13.8,19.2.3,13.9,0,27.8,0,41.6-5.3,0-10.6,0-15.9,0,0-1.3-.1-2.6-.1-3.8,0-11.4,0-22.9,0-34.3,0-3.3-.6-6.3-4.4-7.5-5.7-1.7-9.5,1.2-9.5,7.5-.1,12.7-.1,25.4-.2,38.1-5.3,0-10.5,0-15.8,0Z"/>
        <path class="cls-6" d="M278.8,388c-3.9-3.9-8.1-7.3-12.6-10.6-12.7-9.2-15.7-21.9-12.5-36.6,1.7-7.7,6.6-12.3,14.3-14.1,4.9-1.1,9.7-1.2,14.6-.2,9.7,1.9,15.2,8.1,16,18.1.4,4.6.1,9.3.2,14,0,1.5-.4,2-2,2-4.1,0-8.2,0-12.3,0-1.6,0-2-.6-2-2.1,0-3.4.1-6.8,0-10.2-.2-4.2-2.3-6.2-6.4-6.4-4.3-.2-6.6,1.7-7.2,5.9-.7,4.6.6,8.5,3.5,12,3.4,4.1,7.5,7.3,11.7,10.5,6.1,4.5,11.3,9.8,13.2,17.5-6.2,0-12.4.1-18.7.2Z"/>
        <path class="cls-6" d="M177.4,388.7c-3.7-4-7.9-7.5-12.4-10.7-12.9-9.1-16.4-21.8-13.3-36.7,1.6-7.8,6.5-12.7,14.4-14.5,4.9-1.1,9.7-1.2,14.6-.3,9.7,1.8,15,7.7,16.2,18.4.5,4.6.2,9.3.3,14,0,1.4-.6,1.8-1.9,1.7-4.1,0-8.2-.1-12.3,0-1.8,0-2.1-.7-2.1-2.2,0-3.1.1-6.3,0-9.4-.3-4.8-2.5-6.9-7-6.9-4.4,0-6.5,2.3-6.9,7.1-.4,5.4,2.2,9.4,5.6,13.1,3,3.2,6.4,5.7,9.9,8.3,6.1,4.5,11.2,9.8,13.1,17.5-3.4,0-6.7-.1-10.1,0-2.7.1-5.5-.8-8.1.6Z"/>
        <path class="cls-5" d="M383.1,388c5.3,0,10.7,0,16,0,.4,11.7.8,23.3-.3,34.9-.9,9.9-7.4,16.2-17.4,17.5-3.6.5-7.2.5-10.8,0-10.3-1.5-16.5-8-17.2-18.5-.7-11.3-.5-22.6-.1-33.9,5.3,0,10.6,0,15.9,0,0,2.6,0,5.1,0,7.7,0,7.7,0,15.4.3,23.1,0,3.1,1.7,5.2,5,5.8,5.5.9,8.5-1.5,8.5-7.2,0-9.8.1-19.6.2-29.4Z"/>
        <path class="cls-5" d="M100.6,388c5.3,0,10.5,0,15.8,0,0,1.3.1,2.6.1,3.8,0,8.4,0,16.8,0,25.2,0,5.8,3.2,8.5,8.7,7.5,3.5-.6,5.2-2.9,5.2-7.5,0-9.7,0-19.4.1-29,5.3,0,10.6,0,15.9,0,0,12,1,24-.5,36-1.3,9.6-7.2,15-16.8,16.4-3.8.6-7.7.6-11.5,0-10.7-1.7-16.7-8.5-17-20.2-.4-10.7,0-21.4,0-32.2Z"/>
        <path class="cls-6" d="M205,388c2.8-19.1,5.6-38.3,8.4-57.4.3-2.2,1.1-3.1,3.5-3,5.6.2,11.2,0,16.8,0,1.3,0,2.4,0,2.7,1.8,2.8,19.2,5.6,38.3,8.4,57.4,0,.3,0,.7,0,1-5.1,0-10.2,0-15.3,0-1.4-10.2-2.8-20.4-4.2-30.6-.2,0-.4,0-.7,0-1.5,10.2-2.9,20.4-4.4,30.6-5.1,0-10.1,0-15.2,0Z"/>
        <path class="cls-6" d="M303.5,388c-.5-14.2-.8-28.5,0-42.7,1-16,12-19.4,23.7-19.3,2.1,0,4.2.3,6.2.7,9.5,2.1,14.8,8.2,15.6,18.1.4,4.5.1,9.1.2,13.7,0,1.8-.7,2.2-2.3,2.1-3.9,0-7.7-.1-11.6,0-1.9,0-2.4-.7-2.4-2.4.1-3,.1-6.1,0-9.1-.2-4.8-2.4-6.9-6.9-6.9-4.4,0-6.7,2.2-6.8,7.1,0,11.7,0,23.4,0,35,0,1.3-.2,2.5-.2,3.8-5.2,0-10.5,0-15.7,0Z"/>
        <path class="cls-3" d="M278.8,388c6.2,0,12.4-.1,18.7-.2.3,1,.9,2,.9,2.9.4,11.8,1.4,23.6-.6,35.3-1.2,6.8-5.7,11.4-12.4,13.4-6.3,1.8-12.7,1.8-19,0-8.5-2.5-13-8.9-13.6-19.5-.3-5.1,0-10.3,0-15.4,0-1.6.4-2.3,2.1-2.3,4,0,7.9,0,11.9,0,1.8,0,2.2.7,2.1,2.3,0,4.2-.1,8.4,0,12.6.1,5.3,2.4,7.6,7.1,7.5,4.5,0,6.6-2.4,6.6-7.6,0-6.7,0-13.3,0-20,0-3.7-2.1-6.3-3.9-9.2Z"/>
        <path class="cls-3" d="M303.5,388c5.2,0,10.5,0,15.7,0,0,9.7.1,19.4.3,29,0,5.4,2.3,7.8,6.9,7.7,4.2,0,6.6-2.1,6.8-6.3.2-4.5.2-9.1,0-13.7,0-1.8.4-2.5,2.3-2.5,4,.1,7.9,0,11.9,0,1.2,0,2,.2,1.9,1.7-.1,6.3.3,12.6-.4,18.9-1.1,10-6.8,15.8-16.7,17.4-5,.8-10,.7-14.9-.6-7.8-2.1-13-8.1-13.6-16.7-.9-11.6-.5-23.3-.2-35Z"/>
        <path class="cls-3" d="M177.4,388.7c2.6-1.4,5.4-.5,8.1-.6,3.4-.2,6.7,0,10.1,0,1,1.4,1.1,3.1,1.2,4.7.2,10.4,1,20.8-.4,31.1-1.3,9.6-7,15.1-16.7,16.6-3.9.6-7.9.6-11.9,0-10.4-1.8-16-8.1-16.9-19.2-.4-5.6-.1-11.2-.2-16.8,0-1.5.5-2,2-2,4.1,0,8.2,0,12.2,0,1.9,0,2.1.9,2,2.4,0,4.3-.1,8.6,0,13,.1,5.2,3.1,7.7,8.2,7,3.4-.5,5.4-2.3,5.5-6.1.2-7.5.1-14.9,0-22.4,0-2.9-2-5.1-3.4-7.5Z"/>
        <path class="cls-4" d="M328.2,266.5c-6.9-1.9-13.4-3.7-19.9-5.4-2-.5-2-2.1-2.4-3.5-4.6-15.4-9.4-30.8-15.5-45.7-1.1-2.8-2.3-5.6-3.6-8.4-1.2-2.3,1-2.7,2-3.7,1.2-1.1,2.2-.6,3.2.6,16.3,19,29.4,39.8,35.9,64.3.1.4.2.9.3,1.8Z"/>
        <path class="cls-3" d="M229.5,388c5.1,0,10.2,0,15.3,0,1.6,10.5,3.3,21,4.9,31.4.9,5.5,1.5,11.1,2.5,16.6.5,2.7-.3,3.2-2.7,3.1-3.6-.2-7.2-.2-10.9,0-2,0-2.6-.7-2.9-2.5-1.9-14.6-3.8-29.2-5.7-43.7-.2-1.6-.4-3.2-.6-4.9Z"/>
        <path class="cls-3" d="M205,388c5.1,0,10.1,0,15.2,0-1.3,10-2.5,20.1-3.8,30.1-.8,6.1-1.8,12.2-2.4,18.4-.2,2.2-1,2.7-3,2.6-3.6-.1-7.2-.2-10.8,0-2.2,0-2.8-.5-2.5-2.8,1.6-10.3,3.1-20.7,4.6-31.1.9-5.8,1.8-11.5,2.7-17.3Z"/>
        <path class="cls-4" d="M208,119.8c-27.9,16.7-47.2,40.6-61.7,69.8-3.2-5.3-5.4-10.1-7-15.1-.3-.9.4-1.8.9-2.6,16-23.8,37.2-41.2,64-51.7.9-.4,1.9-1,3.8-.4Z"/>
        <path class="cls-4" d="M351.9,182c5.9-.5,11,.4,16.2.7,1.6,0,2,1.8,2.6,3,5.5,10.8,8.9,22.3,11.2,34.1,2.6,13.3,3,26.8,1.6,40.4-.1,1.4-.3,2.8-1.4,4.4-2-30.6-12.5-57.7-30.3-82.5Z"/>
        <path class="cls-3" d="M211.2,464c0-4.8.2-9.6,0-14.4-.2-3.1.9-3.9,3.7-3.5,1.3.2,2.6,0,3.8,0,2.7,0,5.3.5,6.5,3.2,1.3,2.8,1.6,5.8-.3,8.7-.4.6-1.2.7-.5,1.9,3.4,5.8,1.7,11.9,1.1,18-.1,1.5-1.5,2.7-3,3.2-3.5,1.2-7.5,1.5-10.6.3-1.9-.7-.5-4.7-.7-7.2-.2-3.4,0-6.8,0-10.2ZM216.6,469c0,1.7,0,3.5,0,5.2,0,.9-.4,2.2,1.3,2.2,1.2,0,2.6,0,2.8-1.4.5-3.8.4-7.6,0-11.4-.2-1.5-1.6-1.9-3-1.8-1.7,0-1.1,1.5-1.1,2.4-.1,1.6,0,3.2,0,4.9ZM216.5,454.3c.4.8-.8,2.6,1.6,2.4,1.8-.2,2.7-1.1,2.7-2.9,0-1.8-1.1-2.3-2.7-2.4-2.2,0-1.4,1.6-1.6,2.9Z"/>
        <path class="cls-3" d="M235,464c0-3.7-.1-7.5,0-11.2.2-4.9,2.5-7.1,7.1-7.3,4.9-.2,7.6,2,7.8,6.9.2,7.7.2,15.4,0,23.1-.2,4.8-2.7,6.8-7.5,6.8-4.7,0-7.1-2.3-7.3-7.1-.2-3.7,0-7.5,0-11.2ZM240.4,463.9c0,3.3,0,6.5,0,9.8,0,1.5-.2,3.3,2,3.3,2.1,0,2.3-1.6,2.3-3.2,0-6.6,0-13.3,0-19.9,0-1.5-.2-2.9-2.1-3-2.2,0-2.2,1.6-2.2,3.2,0,3.3,0,6.5,0,9.8Z"/>
        <path class="cls-3" d="M360.3,463.7c0-5.1,0-10.3,0-15.4,0-1.7.4-2.3,2.1-2.2,1.7.1,3.5,0,5.3,0,6.3.1,9.7,6.2,6.3,11.5-.9,1.4-1,2,.1,3.1.7.7,1,1.9,1,2.9,0,4,.2,7.9,0,11.9-.2,3.8-2.3,5.6-6,6.1-8.5,1.1-8.7.9-8.7-7.5s0-7,0-10.5ZM365.4,469.2c0,1.8,0,3.5,0,5.3,0,1.2.1,2.1,1.6,2,1.3,0,2.5-.2,2.5-1.8,0-3.6,0-7.2,0-10.9,0-1.7-1.4-2-2.7-2.1-1.7-.1-1.4,1.2-1.4,2.2,0,1.8,0,3.5,0,5.3ZM369.6,454c.2-1.6-.4-2.5-2.2-2.6-1.9-.1-2.2,1-1.9,2.4.2,1-1,2.8,1.3,2.9,1.7,0,3-.5,2.9-2.6Z"/>
        <path class="cls-3" d="M127.5,463.8c0-3.8,0-7.7,0-11.5.1-4.4,2.6-6.7,7.2-6.7,4.8,0,7.4,2.2,7.5,6.8.1,7.7.1,15.4,0,23.1,0,4.6-2.6,6.9-7.4,6.9-4.8,0-7.2-2.2-7.3-6.9,0-3.8,0-7.7,0-11.5ZM136.9,463.8c0-3.4,0-6.7,0-10.1,0-1.3,0-2.7-1.8-2.8-1.8-.1-2.4,1-2.4,2.7,0,6.9,0,13.7,0,20.6,0,1.5.4,2.9,2.3,2.8,2,0,1.9-1.6,1.9-3,0-3.4,0-6.7,0-10.1Z"/>
        <path class="cls-3" d="M335.7,462.1c0-4.3,0-8.6,0-13,0-2,0-3.1,2.7-3.1,2.9,0,2.5,1.6,2.5,3.3,0,7.6,0,15.2,0,22.8,0,.7,0,1.4,0,2.1,0,1.6.4,2.9,2.3,2.8,1.8,0,1.9-1.4,1.9-2.8,0-8.4,0-16.8,0-25.2,0-2.3.7-3,2.9-2.9,2,0,2.6.6,2.6,2.6-.1,8.8,0,17.5,0,26.3,0,5-2.5,7.3-7.3,7.4-5,0-7.3-2.2-7.4-7.2,0-4.3,0-8.6,0-13Z"/>
        <path class="cls-3" d="M110.4,470.6c1.9-7.4,2.3-14.5,3.4-21.5.2-1.2-.3-2.9,2-3,2.7-.2,4,.1,3.5,3.4-1.7,9.9-3.2,19.8-4.5,29.7-.5,4-3.3,2.2-5.2,2.5-2.3.5-2.7-1-2.9-2.8-1.4-10-2.9-20.1-4.4-30.1-.1-1-1.4-2.8,1.1-2.7,1.7,0,3.9-1.2,4.2,2.3.7,7.2,1.8,14.3,2.9,22.1Z"/>
        <path class="cls-4" d="M119.2,255.8c4.2,5.2,7.7,9.6,11.2,14,3.5,4.4,8,7.7,12,12-5.3,3.3-10.3,6.9-15.3,10.9-4.8-11.8-7.3-23.6-7.8-37Z"/>
        <path class="cls-3" d="M289.9,463.7c0-3.7,0-7.5,0-11.2,0-2.8.9-5.4,4-6.4,3.1-1,6.3-1.1,8.9,1.3,2.4,2.2,2.2,5.3,2,8.2,0,1.7-1.6,1-2.5,1-1,0-2.5.8-2.8-1,0-.4,0-.9,0-1.4,0-1.5.2-3.3-2.1-3.2-2.5,0-2.2,2-2.2,3.6,0,5.7,0,11.4,0,17.1,0,.9,0,1.9,0,2.8,0,1.5.5,2.5,2.2,2.5,1.5,0,2-1,2.1-2.3,0-.7.1-1.4,0-2.1-.4-2.3.7-2.6,2.8-2.7,2.2,0,2.7.6,2.7,2.8,0,7.5-2.9,10.5-9.4,9.4-3.2-.5-5.2-2.2-5.3-5.5-.2-4.3,0-8.6,0-12.9,0,0-.1,0-.2,0Z"/>
        <path class="cls-6" d="M180.4,446.1c1.2,0,2.3,0,3.5,0,2-.1,3.2,0,3.2,2.7,0,2.6-1.1,2.9-3.2,2.7-.9,0-1.9,0-2.8,0-2.4-.3-2.2,1.1-2.3,2.8,0,1.7.2,2.7,2.2,2.4.8-.1,1.6,0,2.4,0,2.1-.3,2.5.7,2.4,2.6,0,1.9-.3,2.6-2.5,2.6-4.6,0-4.6,0-4.6,4.8,0,1,0,2.1,0,3.1,0,2.1-.6,4.6.4,6.1,1,1.4,3.7.5,5.6.5,2.2,0,2.1,1.2,2.1,2.7,0,1.3.4,2.7-1.9,2.9-11.6,1-11.6,1.1-11.6-10.4,0-7.2.2-14.5,0-21.7-.1-3.1.8-4.2,3.9-3.7,1,.2,2.1,0,3.1,0Z"/>
        <path class="cls-3" d="M384.3,463.7c0-5,0-10,0-15,0-2,.6-2.6,2.6-2.5,2.6.2,5.1,0,7.7,0,1.8,0,3.3-.3,3.2,2.5,0,2.9-1.4,2.7-3.4,2.8-1.5,0-3.7-1.2-4.5,1-1.1,2.8,0,4,3.1,4.2,1.3,0,3.4-1.4,3.8,1.5.3,2.6-.4,4.1-3.3,3.5-3.1-.6-4.2.7-3.8,3.8.2,1.3,0,2.6,0,3.8,0,2.2-.7,4.9.3,6.5,1,1.6,3.9.5,5.9.6,2.5,0,1.5,1.8,1.7,3,.2,1.4,0,2.5-1.9,2.4-3-.1-6.1-.1-9.1,0-1.9,0-2.4-.6-2.4-2.4,0-5.2,0-10.5,0-15.7Z"/>
        <path class="cls-6" d="M151.8,463.9c0-5.1.1-10.3,0-15.4,0-2.6,1.3-2.4,3-2.5,2.1-.1,2.5.7,2.5,2.6,0,7.6,0,15.2,0,22.7,0,5,0,5.2,4.9,4.9,3.6-.2,3.4,1.7,3.2,4,0,.9-.4,1.6-1.5,1.5-.3,0-.7,0-1,0-3.5,0-8,1.2-10.2-.5-2.3-1.8-.6-6.6-.8-10-.1-2.4,0-4.9,0-7.3Z"/>
        <path class="cls-3" d="M259.4,463.7c0-5.1.1-10.3,0-15.4,0-2.1.9-2.3,2.5-2.2,1.5,0,3-.3,2.9,2.2-.1,8,.2,16.1-.1,24.1-.1,3.5,1,4.6,4.3,4,.7-.1,1.4,0,2.1,0,2.4-.2,1.8,1.5,1.9,2.8,0,1.5.2,2.8-2.1,2.7-3-.2-6.1-.1-9.1,0-1.9,0-2.4-.6-2.3-2.4.1-5.2,0-10.5,0-15.7Z"/>
        <path class="cls-3" d="M314.1,463.9c0-5.1.1-10.3,0-15.4,0-2.2.8-2.5,2.6-2.4,1.7,0,2.8,0,2.8,2.3-.1,8.2.1,16.3-.1,24.5,0,3,.9,3.7,3.7,3.6,1.4,0,3.7-1.3,4.5,1.1,1,2.9,0,4.2-3.2,4.2-3.2,0-7.6,1.1-9.5-.5-2.2-1.9-.5-6.3-.7-9.7-.1-2.6,0-5.1,0-7.7Z"/>
        <path class="cls-6" d="M201.3,464.2c0,5,0,10,0,15,0,1.8-.2,2.8-2.4,2.7-1.7-.1-3.1,0-3.1-2.5.1-10.4.1-20.7,0-31.1,0-2.4,1.3-2.2,2.9-2.3,1.8-.1,2.7.2,2.6,2.4-.2,5.2,0,10.5,0,15.7Z"/>
        <path class="cls-1" d="M287.4,261.6c-13.1-2.1-25.7-3.2-38.4-3-10.1.1-20.3.7-30.3,2.4-4.4.7-4.6.6-3.5-3.6,5.2-19.2,10.3-38.5,18.9-56.6,2.4-5,5-9.7,9-13.6,5.6-5.5,11.6-5.4,17.1.3,4.6,4.9,7.5,10.9,10.1,17.1,7.6,18.2,12.3,37.3,17.1,57Z"/>
        <path class="cls-1" d="M256.7,288.4c0,5.9,0,11.9,0,17.8,0,1.9-.4,2.6-2.5,2.7-7.9.3-7.9.3-7.9-7.4,0-10.1,0-20.3,0-30.4,0-2.6.5-3.7,3.5-3.6,7,.1,7,0,7,7s0,9.3,0,14Z"/>
        <path class="cls-1" d="M270.7,288.7c0,5.8,0,11.7,0,17.5,0,1.9-.5,2.6-2.5,2.7-7.9.2-7.9.3-7.9-7.5,0-10.2,0-20.3,0-30.5,0-2.5.7-3.1,3.2-3.1,7.3.2,7.3.1,7.3,7.5s0,8.9,0,13.3Z"/>
        <path class="cls-1" d="M243.2,288.5c0,5.8,0,11.7,0,17.5,0,2-.5,2.8-2.7,2.9-7.7.1-7.7.2-7.7-7.5,0-9.3,0-18.7.2-28,0-1.7-.3-4.4,1-4.8,2.5-.8,5.5-.7,8.2-.6,1.3,0,.8,1.7.8,2.7,0,6,0,11.9,0,17.9h.1Z"/>
        <path class="cls-1" d="M229.3,288.8c0,5.8,0,11.7,0,17.5,0,2-.6,2.5-2.6,2.6-7.9.2-7.9.3-7.9-7.5,0-9.3,0-18.7,0-28,0-2.3.6-3.3,2.9-3.7,7.6-1.2,7.6-1.3,7.6,6.5s0,8.4,0,12.6Z"/>
        <path class="cls-1" d="M274.3,288.8c0-5.8,0-11.7,0-17.5,0-2,.4-2.6,2.6-2.2,7.6,1.3,7.7,1.2,7.6,8.9,0,9.3.2,18.6-.3,28-.1,2-.5,2.8-2.7,2.9-7.2.2-7.2.3-7.2-6.8,0-4.4,0-8.9,0-13.3Z"/>
        <path class="cls-1" d="M187.9,293.9c0,4.1,0,8.1,0,12.2,0,1.8-.3,2.7-2.4,2.8-8.1.4-8.1.5-7.9-7.9,0-4.9.2-9.8,0-14.7-.1-2.7.8-3.9,3.2-4.8,7.1-2.8,7-2.9,7,4.8v7.7s0,0,.1,0Z"/>
        <path class="cls-1" d="M315.6,293.8c0-4.2,0-8.4,0-12.6,0-1.8.6-2.4,2.3-1.6.1,0,.2.1.3.1q7.8,2.7,7.8,11c0,5,0,10,0,15,0,2.1-.3,3.1-2.8,3-7.9-.2-7.9,0-7.7-8,0-2.3,0-4.7,0-7,0,0,0,0,0,0Z"/>
        <path class="cls-1" d="M215.4,290.5c0,5.2,0,10.5,0,15.7,0,2-.6,2.7-2.6,2.6-9.6-.3-8.2,1.6-7.7-7.8.6-9.5,4.1-18.6,6.1-27.9.3-1.5,1.5-1.6,2.7-1.6,1.7,0,1.4,1.3,1.4,2.2,0,5.6,0,11.2,0,16.8Z"/>
        <path class="cls-1" d="M173.9,297.1c0,2.9-.2,5.9,0,8.8.2,2.6-.8,3.1-3.2,3.1-7.1,0-7.1,0-7.1-7.2,0-1.4,0-2.8,0-4.2,0-7.9.9-9.1,8.4-11.5,1.4-.5,1.9-.2,1.9,1.3,0,3.3,0,6.5,0,9.8Z"/>
        <path class="cls-1" d="M329.5,285.1c3.6,1.3,6.2,3.1,9,4.8,1.3.8,1.3,2.1,1.3,3.4-.1,4.4-.3,8.8-.4,13.2,0,1.6-.7,2.1-2.3,2.3-7.6.7-7.6.7-7.6-6.8,0-5.5,0-10.9,0-16.9Z"/>
        <path class="cls-1" d="M288.2,271.1c1.8.4,1.8,1.6,2,2.5,2.3,10.7,4.6,21.4,6.9,32,.5,2.4,0,3.3-2.6,3.2-6.3,0-6.3,0-6.3-6.2,0-10.5,0-20.9,0-31.6Z"/>
        <path class="cls-1" d="M311.3,308.2c-2.8-11-5.6-22-8.4-33.3,3,0,5.4,1.4,8,2.1,1.4.4,1.1,1.6,1.1,2.6,0,9.6,0,19.1,0,28.7-.3,0-.5,0-.8,0Z"/>
        <path class="cls-1" d="M160.4,293.3c0,4.8,0,9,0,13.3,0,1.6-.5,2.4-2.2,2.3-1,0-2.1.2-3.1,0-1.8-.4-4.5,1.3-5.2-1.1-.8-2.7-1.1-5.9,1.3-8.2,2.5-2.4,5.2-4.5,9.2-6.2Z"/>
        <path class="cls-1" d="M343.6,293c3.3,2.2,5.9,4,8.4,5.8,1.2.9,2.3,8.2,1.4,9.5-.5.7-1.2.5-1.9.6q-7.9.7-7.9-7.2v-8.7Z"/>
        <path class="cls-1" d="M191.4,296.8c0-5.7,0-11.4,0-17.1,0-4.1,3.8-2.6,6.4-4.4-2.1,7.7-3.9,14.6-5.8,21.5-.2,0-.4,0-.6,0Z"/>
        <path class="cls-1" d="M383.1,388c0,9.8,0,19.6-.2,29.4,0,5.6-3.1,8.1-8.5,7.2-3.3-.6-4.9-2.7-5-5.8-.2-7.7-.2-15.4-.3-23.1,0-2.6,0-5.1,0-7.7,0-11.8,0-23.6,0-35.3,0-1,0-2.1,0-3.1.4-5.3,2.6-7.7,7.1-7.6,4.5.1,6.6,2.6,6.6,8,0,11.5,0,23.1,0,34.6,0,1.2,0,2.3.2,3.5Z"/>
        <path class="cls-1" d="M130.6,388c0,9.7,0,19.4-.1,29,0,4.6-1.7,6.9-5.2,7.5-5.4,1-8.6-1.7-8.7-7.5,0-8.4,0-16.8,0-25.2,0-1.3,0-2.6-.1-3.8,0-12.7,0-25.4.2-38.1,0-6.3,3.8-9.2,9.5-7.5,3.8,1.2,4.4,4.2,4.4,7.5,0,11.4,0,22.9,0,34.3,0,1.3,0,2.6.1,3.8Z"/>
        <path class="cls-1" d="M216.6,469c0-1.6,0-3.2,0-4.9,0-.9-.6-2.3,1.1-2.4,1.3,0,2.8.3,3,1.8.4,3.8.4,7.6,0,11.4-.2,1.5-1.5,1.4-2.8,1.4-1.7,0-1.3-1.3-1.3-2.2,0-1.7,0-3.5,0-5.2Z"/>
        <path class="cls-1" d="M216.5,454.3c.3-1.2-.6-2.9,1.6-2.9,1.6,0,2.7.6,2.7,2.4,0,1.8-.9,2.7-2.7,2.9-2.4.3-1.2-1.6-1.6-2.4Z"/>
        <path class="cls-1" d="M240.4,463.9c0-3.3,0-6.5,0-9.8,0-1.6,0-3.2,2.2-3.2,1.9,0,2.1,1.5,2.1,3,0,6.6,0,13.3,0,19.9,0,1.6-.2,3.2-2.3,3.2-2.2,0-2-1.8-2-3.3,0-3.3,0-6.5,0-9.8Z"/>
        <path class="cls-1" d="M365.4,469.2c0-1.8,0-3.5,0-5.3,0-1-.3-2.3,1.4-2.2,1.3,0,2.7.4,2.7,2.1,0,3.6,0,7.2,0,10.9,0,1.6-1.3,1.7-2.5,1.8-1.5,0-1.7-.8-1.6-2,0-1.8,0-3.5,0-5.3Z"/>
        <path class="cls-1" d="M369.6,454c.1,2.2-1.2,2.7-2.9,2.6-2.3,0-1.1-1.8-1.3-2.9-.3-1.4,0-2.5,1.9-2.4,1.8.1,2.4,1,2.2,2.6Z"/>
        <path class="cls-1" d="M136.9,463.8c0,3.4,0,6.7,0,10.1,0,1.4,0,3-1.9,3-1.9,0-2.3-1.3-2.3-2.8,0-6.9,0-13.7,0-20.6,0-1.6.6-2.8,2.4-2.7,1.8.1,1.8,1.5,1.8,2.8,0,3.4,0,6.7,0,10.1Z"/>
      </g>
    </g>
  </g>
</svg>