<?xml version="1.0" encoding="UTF-8"?>
<svg id="Layer_1" data-name="Layer 1" xmlns="http://www.w3.org/2000/svg" version="1.1" xmlns:xlink="http://www.w3.org/1999/xlink" viewBox="0 0 400 400">
  <defs>
    <style>
      .cls-1 {
        fill: #7c6367;
      }

      .cls-1, .cls-2, .cls-3, .cls-4, .cls-5, .cls-6, .cls-7, .cls-8, .cls-9, .cls-10, .cls-11, .cls-12, .cls-13, .cls-14, .cls-15, .cls-16, .cls-17, .cls-18, .cls-19, .cls-20, .cls-21, .cls-22, .cls-23, .cls-24, .cls-25, .cls-26, .cls-27, .cls-28, .cls-29, .cls-30, .cls-31, .cls-32, .cls-33, .cls-34, .cls-35, .cls-36, .cls-37, .cls-38, .cls-39, .cls-40, .cls-41, .cls-42, .cls-43, .cls-44, .cls-45, .cls-46, .cls-47, .cls-48, .cls-49, .cls-50, .cls-51, .cls-52, .cls-53, .cls-54, .cls-55, .cls-56, .cls-57, .cls-58, .cls-59, .cls-60, .cls-61, .cls-62, .cls-63, .cls-64, .cls-65, .cls-66, .cls-67, .cls-68, .cls-69, .cls-70 {
        stroke-width: 0px;
      }

      .cls-2 {
        fill: #c6e1a4;
      }

      .cls-3 {
        fill: #57be89;
      }

      .cls-4 {
        fill: url(#linear-gradient-12);
      }

      .cls-5 {
        fill: #899b46;
      }

      .cls-6 {
        fill: #6b7056;
      }

      .cls-7 {
        fill: #9a4a48;
      }

      .cls-8 {
        fill: url(#linear-gradient);
      }

      .cls-9 {
        opacity: .78;
      }

      .cls-9, .cls-15 {
        fill: #0c0c0c;
      }

      .cls-10 {
        fill: #9fd4ac;
      }

      .cls-11 {
        fill: url(#linear-gradient-6);
      }

      .cls-12 {
        opacity: .99;
      }

      .cls-12, .cls-58 {
        fill: #c4c2c2;
      }

      .cls-13 {
        fill: #54b848;
      }

      .cls-14 {
        fill: #b3c4b0;
      }

      .cls-16 {
        fill: url(#linear-gradient-11);
      }

      .cls-17 {
        fill: #461414;
      }

      .cls-18 {
        fill: #27ac57;
      }

      .cls-19 {
        fill: url(#linear-gradient-5);
      }

      .cls-20 {
        fill: #858f74;
      }

      .cls-21 {
        fill: #281a14;
      }

      .cls-22 {
        fill: #4e6735;
      }

      .cls-23 {
        fill: #333718;
      }

      .cls-24 {
        fill: #379e47;
      }

      .cls-25 {
        fill: #379144;
      }

      .cls-26 {
        fill: url(#linear-gradient-13);
      }

      .cls-27 {
        fill: #f69062;
      }

      .cls-28 {
        fill: #4a986e;
      }

      .cls-29 {
        fill: #b48e80;
      }

      .cls-30 {
        fill: #eaf4e1;
      }

      .cls-31 {
        fill: #42231f;
      }

      .cls-32 {
        fill: #908c8c;
      }

      .cls-33 {
        fill: url(#linear-gradient-14);
      }

      .cls-34 {
        fill: url(#linear-gradient-2);
      }

      .cls-35 {
        fill: #2f6f37;
      }

      .cls-36 {
        fill: #bebeb7;
      }

      .cls-37 {
        fill: #b2ddcb;
      }

      .cls-38 {
        fill: #c3464a;
      }

      .cls-39 {
        opacity: .98;
      }

      .cls-39, .cls-62 {
        fill: #a98e75;
      }

      .cls-40 {
        fill: #433e32;
      }

      .cls-41 {
        fill: url(#linear-gradient-7);
      }

      .cls-42 {
        fill: #205026;
      }

      .cls-43 {
        fill: url(#linear-gradient-3);
      }

      .cls-44 {
        opacity: .01;
      }

      .cls-44, .cls-50 {
        fill: #fdfdfe;
      }

      .cls-45 {
        fill: #a47647;
      }

      .cls-46 {
        fill: url(#linear-gradient-9);
      }

      .cls-47 {
        fill: #341415;
      }

      .cls-48 {
        fill: #eb383a;
      }

      .cls-49 {
        fill: #4baf48;
      }

      .cls-51 {
        fill: #f6dce2;
      }

      .cls-52 {
        fill: #f4c1be;
      }

      .cls-53 {
        fill: url(#linear-gradient-8);
      }

      .cls-54 {
        fill: #507e64;
      }

      .cls-55 {
        fill: #152716;
      }

      .cls-56 {
        fill: #d9ebc5;
      }

      .cls-57 {
        fill: url(#linear-gradient-10);
      }

      .cls-59 {
        fill: #a45c5a;
      }

      .cls-60 {
        fill: url(#linear-gradient-4);
      }

      .cls-61 {
        fill: #54443f;
      }

      .cls-63 {
        fill: #625e56;
      }

      .cls-64 {
        fill: #1e1a16;
      }

      .cls-65 {
        fill: #363236;
      }

      .cls-66 {
        fill: #b7d1ac;
      }

      .cls-67 {
        fill: #e0dedf;
      }

      .cls-68 {
        fill: #4e4c4a;
      }

      .cls-69 {
        fill: #63954e;
      }

      .cls-70 {
        fill: #219c61;
      }
    </style>
    <linearGradient id="linear-gradient" x1="17.73" y1="319.77" x2="14.04" y2="324.32" gradientTransform="translate(-3.09 1642.09) scale(4.09 -4.09)" gradientUnits="userSpaceOnUse">
      <stop offset="0" stop-color="#c4cabf"/>
      <stop offset="1" stop-color="#fbf7f7"/>
    </linearGradient>
    <linearGradient id="linear-gradient-2" x1="59.35" y1="367.85" x2="59.2" y2="366.76" gradientTransform="translate(-3.09 1642.09) scale(4.09 -4.09)" gradientUnits="userSpaceOnUse">
      <stop offset="0" stop-color="#8da192"/>
      <stop offset="1" stop-color="#86b8aa"/>
    </linearGradient>
    <linearGradient id="linear-gradient-3" x1="67.12" y1="367.73" x2="69.84" y2="370.26" gradientTransform="translate(-3.09 1642.09) scale(4.09 -4.09)" gradientUnits="userSpaceOnUse">
      <stop offset="0" stop-color="#3b331a"/>
      <stop offset="1" stop-color="#544f4f"/>
    </linearGradient>
    <linearGradient id="linear-gradient-4" x1="63.78" y1="348.48" x2="62.29" y2="340.46" gradientTransform="translate(-3.09 1642.09) scale(4.09 -4.09)" gradientUnits="userSpaceOnUse">
      <stop offset="0" stop-color="#953336"/>
      <stop offset="1" stop-color="#d14949"/>
    </linearGradient>
    <linearGradient id="linear-gradient-5" x1="68.81" y1="347.8" x2="68.55" y2="348.86" gradientTransform="translate(-3.09 1642.09) scale(4.09 -4.09)" gradientUnits="userSpaceOnUse">
      <stop offset="0" stop-color="#eecbce"/>
      <stop offset="1" stop-color="#d4d5d4"/>
    </linearGradient>
    <linearGradient id="linear-gradient-6" x1="52.69" y1="350.1" x2="56.02" y2="350.11" gradientTransform="translate(-3.09 1642.09) scale(4.09 -4.09)" gradientUnits="userSpaceOnUse">
      <stop offset="0" stop-color="#9b9c9d"/>
      <stop offset="1" stop-color="#c3bfbe"/>
    </linearGradient>
    <linearGradient id="linear-gradient-7" x1="56.83" y1="350.36" x2="55.59" y2="349.64" gradientTransform="translate(-3.09 1642.09) scale(4.09 -4.09)" gradientUnits="userSpaceOnUse">
      <stop offset="0" stop-color="#a5a3a2"/>
      <stop offset="1" stop-color="#c8c7c8"/>
    </linearGradient>
    <linearGradient id="linear-gradient-8" x1="33.77" y1="358.71" x2="39.36" y2="358.16" gradientTransform="translate(-3.09 1642.09) scale(4.09 -4.09)" gradientUnits="userSpaceOnUse">
      <stop offset="0" stop-color="#f8c878"/>
      <stop offset="1" stop-color="#fcf498"/>
    </linearGradient>
    <linearGradient id="linear-gradient-9" x1="59.15" y1="372.68" x2="57.8" y2="373.61" gradientTransform="translate(-3.09 1642.09) scale(4.09 -4.09)" gradientUnits="userSpaceOnUse">
      <stop offset="0" stop-color="#50433c"/>
      <stop offset="1" stop-color="#5f5749"/>
    </linearGradient>
    <linearGradient id="linear-gradient-10" x1="57.41" y1="371.44" x2="52.59" y2="372.46" gradientTransform="translate(-3.09 1642.09) scale(4.09 -4.09)" gradientUnits="userSpaceOnUse">
      <stop offset="0" stop-color="#524431"/>
      <stop offset="1" stop-color="#5e4a45"/>
    </linearGradient>
    <linearGradient id="linear-gradient-11" x1="53.36" y1="325.57" x2="51.93" y2="328.17" gradientTransform="translate(-3.09 1642.09) scale(4.09 -4.09)" gradientUnits="userSpaceOnUse">
      <stop offset="0" stop-color="#edf3d4"/>
      <stop offset="1" stop-color="#e9e6eb"/>
    </linearGradient>
    <linearGradient id="linear-gradient-12" x1="58.91" y1="361.85" x2="57.02" y2="366.25" gradientTransform="translate(-3.09 1642.09) scale(4.09 -4.09)" gradientUnits="userSpaceOnUse">
      <stop offset="0" stop-color="#170e0d"/>
      <stop offset="1" stop-color="#1e211d"/>
    </linearGradient>
    <linearGradient id="linear-gradient-13" x1="62.92" y1="377.08" x2="62.29" y2="376.96" gradientTransform="translate(-3.09 1642.09) scale(4.09 -4.09)" gradientUnits="userSpaceOnUse">
      <stop offset="0" stop-color="#6a201c"/>
      <stop offset="1" stop-color="#8a393f"/>
    </linearGradient>
    <linearGradient id="linear-gradient-14" x1="61.44" y1="338.98" x2="61.52" y2="338.57" gradientTransform="translate(-3.09 1642.09) scale(4.09 -4.09)" gradientUnits="userSpaceOnUse">
      <stop offset="0" stop-color="#594729"/>
      <stop offset="1" stop-color="#644532"/>
    </linearGradient>
  </defs>
  <ellipse class="cls-50" cx="196.4" cy="199.99" rx="179.59" ry="175.74"/>
  <path class="cls-64" d="M369.03,128.8c-19.24-45.47-55.99-81.28-101.94-99.33,0,0-4.48-1.24-4.97-1.36-3.77-2.76-6.89-8.26-4.23-12.78v-.29c-2.06.7-3.84,1.59-5.8,2.53l-1.17-1.3c-5.17-5.83-10.8-3.98-17.65-7.62.26,1.37.37,1.58-.57,2.95-.2.3-.41.59-.62.88-9.95-3.91-14.21-2.33-23.42-2.47-1.72.66-3.43,1.37-5.12,2.13,1.41,1.09,3.36,2.26,2.19,4.17-2.62,1.41-4.43.85-6.62,1.49-27.62-1.41-58.51,7.27-82.87,19.85-21.61,11.16-40.66,26.86-56.22,45.55-25.15,29.88-39.81,67.19-41.74,106.2-1.77,35.72,5.84,70.04,23.72,101.19,2.64,4.6,5.77,8.9,8.2,13.64.66-.37,2.6-2.21,3.37-2.86,2.11-1.76,3.01-2.01,5.31-3.26-12.33-18.99-21.97-39.03-26.78-61.28-9.75-45.32-.87-92.67,24.65-131.37,20.5-31.24,50.57-55.01,85.7-67.75,9.64-3.45,22.34-6.33,32.35-8.47,2.73-.5,3.77-.31,6.42.77.53.21,1.09.65,1.58.75,1.03.91,1.66,1.45,1.17,2.95-1.66,5.15-11.79,16.95-8.34,22.3.89.62,1.38.53,2.51.61.14,6.05-.84,9.48-1,14.71-.76,3.08-1.86,12.78-5.06,13.55-5.14.99-17.71,4.11-21.3,7.66l-1.82.62c-13.11,5.86-23.79,14.24-33.89,24.4-2.09,2.1-6.48,6.53-7.41,9.19l-.62.9c-2.07,1.31-3.69,3.6-5.02,5.63-7.42,11.34-13.55,24.72-16.5,37.91-.13.62-.28,1.23-.43,1.84-.86,2.73-4.28,28.92-4,30.23l.64.77c.43,1.66.35,3.41.55,5.14.43,3.66.79,7.27,1.35,10.93,1.72,11.13,5.64,22.07,10.55,32.17.79,1.62,1.79,3.84,3,5.09l.44.14c.38-.83.39-2.73.35-3.66-.45-10.12,3.15-19.17,4.81-28.85,1.49.52,2.76,1.89,4.07,2.92-4.63,9.53-6.25,30.06-2.32,40.15,2.62,6.71,8.77,11.87,13.62,16.81.02,1.13-.09,2.18-1.01,2.94-3.16,2.59-7.32,2.76-10.57,5.69-2.62,2.36-3.71,7.45-6.06,9.39-2.02,2.35-4.34.78-7.14,1.3,6.48.36,13.29,1.65,17.78,6.68,5.6,6.27-1.01,10.61-5.98,13.2-.92.63-2.17,1.72-3.1,2.02-1.05,0-1.53.06-2.58.2-2.11.15-2.35-.02-4.03-1.25-.72.84-.69,1.14-.94,2.26-1.67-.14-1.96-.29-3.47.45l-1.57-.38c-1.53.17-2.65.72-4.02,1.38-1.93-.23-3.88-.18-5.8.14l.31-1.3-2.16.15c-4.43.3-8.87.41-13.31.32l.3.47-.27.27-.29-.26.03.44.18-.05c.1.67.2.79-.03,1.4v.76c-.74.74-3.32,2.16-4.41,2.85-2.32,1.48-4.57,3.05-6.76,4.7-10.5,7.98-43.58,36.5-30.68,54.67,2.17,3.06,14.76,3.62,18.46,3.53,7.56-.3,15.1-.9,22.66-1.2,18.07-.72,36.1.08,53.35-6.41,5.01-1.88,14.35-5.8,14.16-12.68-.07-2.71-2.14-6.39-2.84-9.25,1.59.69,2.92,1.66,5.2,2.56,43.19,17.01,94.96,17.02,137.69-1.16,38.87-16.43,70.9-45.72,90.74-82.96,2.11-4.04,4.16-8.15,5.99-12.33,19.74-44.88,20.41-99.36,1.04-144.65ZM90.32,188.14c-.57-.61-.41-.75-.56-1.77l1.17.73c-.17.55-.24.57-.6,1.03ZM165.84,132.41c-3.37,2.09-8.54,3.82-11.12,5.65-.42,2.03-1.83,6.43-4.27,6.65-.31-1.22-1.04-3.14-1.47-4.38-2.48,1.04-3.38,1.72-5.62,3.29-2.05.82-8.83,1.31-11.06,1.11,1.32-6.35-7.53-11.64-12.13-14.18.81-.92.99-1.38,1.55-2.46,9.12,1.88,11.65,4.8,17,11.83,10.83-5.93,7.47-2.75,6.98-14.41,1.67-.04,2.7-.49,4.38-.54.75,2.61,1.58,5.21,2.48,7.78,5.36-2.76,8.99-3.77,14.19-6.03-.48,2.22-.74,3.44-.91,5.69ZM269.08,149.18c1.54-.66,3.6-1.43,5.21-1.84.72.36,1.46.78,2.23.97,1.92.71,5.94,1.86,7.45,2.65-5.01,4.77-8.59,5.94-15.11,4.05-.65-1.66-.06-3.99.22-5.83ZM244.65,119.42v-.26l.67.06c1.97.99,5.63,2.72,7.78,2.65.15.79.21,1.41.53,2.16.36,1.01,1.41,4.17,1.84,5l-.4.38c-1.04-.04-1.3-.09-2.33-.32-1.57-.59-3.93-.71-5.94-1.32-1.09-.31-1.65-.56-2.68-1.03,1.5-3.64.53-3.87.53-7.31ZM186.44,90.95c1.51,1.71,2.62,3.41,3.75,5.39-1.78,2.45-2.31,3.64-3.3,6.51-3.9,1.82-6.68,2.88-10.82,4.04,2.61-7.3,3.98-10.99,10.37-15.94ZM197.34,352.94c.11-.34.21-.7.3-1.05,1.48-5.69,2.19-15.73-1.06-20.83-2.4-3.78-5.69-5.53-9.92-6.61-3.43-1.53-4.79-4.23-6.99-7.09,3.04.43,13.04,1.53,15.89,1.25.93,2.93,2.09,7.01,5.12,8.43,2.76,1.3,8.28,1.53,10.97,2.73-1.56,5.54-1.15,8.99,1.54,14.32,1.55,3.07,2.65,2.97,4.26,4.81-8.06,4.47-11.82,4.24-20.11,4.06ZM222.26,147.05c.64-1.46,1.21-2.1,2.2-3.31,1.8-.6,4.47-1.57,6.04-2.53,1.1-.43,2.24-1.21,3.25-1.85.7.79,1.38,1.59,2.11,2.35.22,1.75.48,3.24.8,4.97-3.34-.45-7.78-.11-11.09.48-.99-.18-2.29-.12-3.32-.11ZM349.46,286.26c-17.57,29.57-42.78,54.27-74.56,68.41-.28.12-.87.13-1.18.12-4.56-.88-5.3,2.87-9.61,4.17l-.85.31c-6.38,1.85-9.31,3.7-15.78,2.38-.72-1.48-1.23-2.45-2.09-3.86,5.18-4.34,4.3-14.8-.35-19.16-4.8-4.5-13.54-2.23-19.65-1.96-.01-.54-.08-2.43.11-2.72,1.92-2.85,12.36-1.97,15.27-3.54.82-1.38,0-6.22-.11-8.2.37-.53,2.42-2.38,3.14-3.16,2.73-2.94,3.52-6.54,4.73-10.36,2.5-1.01,4.25-1.83,6.54-3.28.11-.03.52-.16.6-.2,23.2-11.76,43.62-33.64,53.62-57.31,7.5-17.74,10.5-27.52,3.69-45.04,3.46-.06,5.88,3.51,10.82,5.33-1.29-5.93-1.79-5.63-5.03-10.75,1.1-7.46-1.7-22.11-3.66-29.54.73-.4,14.11-5.13,14.85-5.21,11.21-1.2,15.57-3.18,22.34-13.17.31-4.97-1.2-11.76-3.96-16-3.08-4.73-8.23-8.78-11.86-13.31-3.94-3.87-8.79-13.33-12.87-16.59-7.18-5.73-8.89-3.29-12.15-13.49-3.47-10.84-14.04-22.89-25.85-24.45-1.2-.16-3.78-.44-4.71-1.08l-.45.4c-.59.41-3.57.37-4.67.46.29-1.72,1.03-4.82,1.59-6.44,1.21-3.47-4.23-12.76-3.17-14.95,1.16.54,2.43,1.19,3.65,1.52l4.22,2.37c17.57,10.08,30.29,19.31,44.05,33.87,51.94,54.98,62.12,139.16,23.33,204.45ZM311.34,197.7c-3.3,1.14-5.85,1.92-9.39,1.69-1.58-1.36-1.62-3.16-1.99-5.22l.23-1.49c3.88,1.78,7.75,2.57,11.14,5.02ZM302.22,183.6c1.9,1.08,6.31,6.38,7.02,8.45-5.53-1.11-6.61-3.09-7.02-8.45Z"/>
  <g>
    <path class="cls-18" d="M74.65,243c5.17-.45,9.17,1.31,11.31,6.09,1.54,3.44,8.97,17.94,8.17,20.77-1.64,1.97-25.81,12.17-29.56,13.81-1.81.82-3.66,1.76-5.59,2.19-1-.71-5.53-10.93-6.43-12.98-2.45-5.59-5.24-9.52-3.07-15.48,5.09-5.12,9.49-5.37,15.81-2.54-.09-6.84,2.6-10.16,9.36-11.86ZM78.6,264l3.37-1.85c-1.35-3.79-1.43-6.72-6.03-6.41-4.26,1.87-2.94,4.26-1.31,7.82l.89,1.91,3.09-1.46ZM63.59,270.72c1.02-.44,2.6-.88,2.97-1.99,1-2.95-1.6-5.11-4.39-5.38-3.55,1.57-3.9,5.67-.51,7.84.41.26,1.43-.27,1.92-.47Z"/>
    <path class="cls-18" d="M72.96,194.5c.47.23.41.28.79.72.66,2.62,1.62,8.98.99,11.63-.26,1.09-3.88,2.5-5.11,3.04.44,3.72.69,7.14,1.33,10.88,2.26.31,4.29.61,6.53,1.04,1.1,4.9,1.41,7.29,1.6,12.31-9.56-.82-19.09-1.89-28.59-3.23-4.06-.27-8.1-.69-12.13-1.26-.86-3.92-3.05-15.42-2.08-18.75,2.09-2.24,31.68-14.16,36.66-16.39ZM47.21,218.53c1.29.19,2.58.39,3.86.6,2.06.25,7.68,1.25,9.29.31.82-1.54.24-4.03-.55-5.5-.15-.03-.57-.15-.69-.14-4.41,1.13-7.3,3.37-11.91,4.74Z"/>
    <path class="cls-18" d="M43.51,148.19c1.27.18,5.05,1.54,6.19,2.08,6.51,3.05-2.15,11.19-.3,17.55,2.76.8,3.6-1.65,4.53-3.81,1.84-4.29,3.6-9.74,8.38-11.56,5.6-2.14,16.21,1.3,17.87,7.47,2.2,8.14-2.01,20.4-5.74,27.86-.18.04-.83.07-1.04.08-2.18-1.02-5.54-2.35-7.16-3.96-.42-1.01.25-3.04.6-4.07,1.61-4.66,2.5-8.78,3.1-13.66-1.14-.13-2.36-.38-3.5-.59-4.44,13.05-6.55,19.82-22.46,14.11-11.43-4.11-3.96-23.88-.46-31.5Z"/>
    <path class="cls-18" d="M71.9,95.89c1.97,1.04,9.15,15.37,11.18,18.57,6.21,1.87,15.84,1.92,21.85,3.66.21,2.01-5.71,9.42-7.36,10.87-5.02-1.14-12.39-2-17.78-2.97,3.82,3.24,8.67,5.8,12.22,9.21,1.42,1.36-4.19,9.37-5.89,10.39-1.64-.55-7.84-4.88-9.56-6.08-7.48-5.22-16.08-10.67-23.15-16.41.95-2.67,4.49-7.83,6.65-9.75,3.3,1.45,8.81,5.42,12.29,7.46-.07-.85-6.45-11.63-7.45-14.19l-.14-.36c1.91-3.55,4.72-7.18,7.15-10.39Z"/>
    <path class="cls-18" d="M107.56,62.77c2.11.74,4.68,6.01,5.56,8.03-2.36,2.54-5.13,3.86-7.73,6-3.43,2.81-1.64,5.04.71,7.43,3.07-2.48,6.63-5.73,9.84-7.79,1.43,1.81,4.34,4.57,5.07,6.59-.6,2.29-6.87,5.2-8.64,8.06-.14.68-.19,1.16.08,1.82.34.85,1.13,1.82,2.03,2.09,2.31.67,10.13-7.24,12.62-8.78,1.98,1.89,4.9,4.52,5.55,7.11-.25,1.24-.17.85-1.22,1.91-1.82,1.23-5.04,4-6.86,5.46-4.39,3.56-8.84,7.05-13.35,10.46-2.25-2.49-5.45-7.21-7.81-10.1l-10.6-13.06c-2.03-2.51-4.73-5.66-6.46-8.3,1.67-1.81,5.91-4.93,8.1-6.63,4.34-3.37,8.73-7.04,13.12-10.3Z"/>
    <path class="cls-18" d="M150.36,41.01c1.41-.1,4.23,6.65,4.95,8.09-2.15,1.71-5.71,3.2-8.27,4.34,1.78,3.97,3.35,7.86,5.27,11.8,1.53,3.13,6.21,12.4,6.86,15.4-.26.71-.7,1.22-1.4,1.56-9.89,4.76-8.46,5.68-12.85-3.57-1.26-2.99-8.1-17.41-9.84-19.14-1.56.12-6.29,2.58-7.96,3.39-1.52-2.27-3.29-6.22-4.34-8.75,3.07-1.8,9.59-4.69,13-6.36,3.71-1.82,10.97-5.54,14.58-6.73Z"/>
  </g>
  <path class="cls-15" d="M173.49,38.26c.65-.04.86-.14,1.39.22l-.25.52c-1.88,1.32-5.13,2.68-7.32,3.39-.42.51-.17.34-.8.45l-.02-.55c.67-1.17,4.73-2.53,6.69-3.82l.32-.21Z"/>
  <path class="cls-48" d="M172.09,84.89c.43.52.76,1.17,1.39,1.16,2.61-.03,6.67-1.43,9.17-2.15,1.21,2.52,2.41,4.62,3.79,7.04-6.39,4.95-7.76,8.65-10.37,15.94-6.38,6.73-7.22,11.01-9.32,19.82-5.2,2.26-8.83,3.27-14.19,6.03-.9-2.57-1.72-5.16-2.48-7.78-1.68.05-2.71.5-4.38.54-.98-8.07-.73-19.76,1.35-27.62.36-2.08.66-3.08,1.9-4.73l1.82-.62c3.59-3.55,16.16-6.67,21.31-7.66Z"/>
  <path class="cls-50" d="M150.09,124.97c-1.68.05-2.12,4.12-4.38.54-.98-8.07-.73-19.76,1.35-27.61.36-2.08.66-3.08,1.9-4.73l1.82-.62c-.52,2.02-1.07,4.07-1.5,6.1-1.01,9.85-.71,16.5.81,26.31Z"/>
  <path class="cls-47" d="M171,88.11l.28.45c-1.38,2.1-4.1,4.82-6.3,6.02-.43-.58-.29-.34-.44-1.09.84-2.55,4.21-4.14,6.47-5.37Z"/>
  <path class="cls-48" d="M107.66,126.76c.93-2.66,5.32-7.09,7.41-9.19,10.1-10.16,20.78-18.53,33.89-24.4-1.24,1.65-1.54,2.65-1.9,4.73-2.08,7.86-2.33,19.55-1.35,27.62.49,11.66,3.85,8.48-6.98,14.41-5.34-7.03-7.88-9.94-17-11.83-4.5-1.08-6.85-1.28-11.35-1.47l-2.72.13Z"/>
  <path class="cls-9" d="M280.45,64.99c-.68-.85-.9-.81-.93-1.66.9.34.68.35,1.38,1.26l-.45.4Z"/>
  <path class="cls-18" d="M267.08,29.48c45.96,18.05,82.7,53.85,101.94,99.33,19.38,45.29,18.71,99.77-1.04,144.65-1.84,4.18-3.88,8.28-6,12.32-19.84,37.24-51.88,66.53-90.74,82.96-42.73,18.18-94.5,18.17-137.69,1.16-2.27-.89-3.6-1.87-5.19-2.55-1.85-1.34-2.82-9.8-2.4-12.12,0-7.27,3.42-12.56,7.09-18.51,5.61-.94,13.6-2.21,15.27-8.71,1.56-6.09-7.9-10.76-.95-15.44,1.73-1.16,2.12-3.14,2.41-5.01,7.86,4.76,20.95,7.82,29.88,9.8,2.2,2.86,3.56,5.57,6.99,7.09,4.23,1.08,7.52,2.83,9.93,6.61,3.26,5.11,2.54,15.15,1.06,20.83-.09.35-.19.7-.3,1.05,8.29.18,12.05.4,20.11-4.06-1.61-1.83-2.72-1.73-4.27-4.8-2.69-5.33-3.1-8.77-1.54-14.32,8.05.41,13.78.64,21.07-3.48,2.1-1.19,5.84-3.31,7.93-4.06.12,1.98.94,6.82.12,8.2-2.91,1.57-13.35.69-15.27,3.54-.19.28-.12,2.18-.11,2.72,6.11-.27,14.85-2.54,19.65,1.96,4.65,4.36,5.53,14.82.35,19.16.85,1.41,1.37,2.38,2.09,3.86,6.46,1.31,9.4-.53,15.78-2.38l.85-.31c4.32-1.29,5.05-5.05,9.62-4.17.3,0,.89,0,1.18-.12,31.78-14.15,56.99-38.84,74.56-68.41,38.79-65.28,28.61-149.46-23.33-204.44-13.76-14.56-26.48-23.79-44.05-33.87l-4.22-2.37c-1.22-.33-2.49-.98-3.65-1.52h-.25c-.65-.86-.82-2.55-.74-3.6v-.72c-1.45-1.54-4.29-3.77-6-5.2-.6-2.05-1.98-2.17-2.02-3.68.53-.88.9-.93,1.89-1.38Z"/>
  <path class="cls-50" d="M263.3,359.67c-3.86,1.29-7.58,3.32-11.45,4.5-37.34,11.4-78.37,10.18-114.65-4.43-3.34-1.35-7.87-3.63-11.23-4.53,0-7.28,3.42-12.56,7.09-18.51,5.61-.94,13.6-2.21,15.27-8.71,1.56-6.1-7.9-10.76-.95-15.44,1.73-1.16,2.12-3.14,2.41-5.01,7.86,4.76,20.95,7.83,29.88,9.8,14.97,3.15,3.56,5.57,6.99,7.09,4.24,1.08,7.52,2.83,9.93,6.61,3.25,5.11,2.54,15.15,1.06,20.83-.09.35-.19.7-.3,1.05,9.22-15.61,12.05.4,20.11-4.06-1.61-1.83-2.72-1.73-4.26-4.81-2.69-5.33-3.1-8.77-1.54-14.32,8.05.41,13.78.64,21.07-3.48,2.1-1.19,5.84-3.31,7.93-4.07.12,1.98.94,6.83.12,8.2-2.91,1.57-13.35.69-15.27,3.54-.19.28-.12,2.18-.11,2.72,6.11-.27,14.85-2.54,19.65,1.96,4.65,4.36,5.53,14.82.35,19.16.86,1.41,8.42-3.52,9.14-2.04,6.46,1.32,2.35,5.37,8.73,3.53l.04.4Z"/>
  <g>
    <path class="cls-48" d="M343.45,180.12c4.36-.41,13.2.62,16.87,3.55,7.12,5.68,6.7,23.63,1.71,30.5-2.75,3.77-8.22,4.84-12.65,5.32-9.32.13-21.85-.83-22.55-12.63-.96-16.08-1.19-24.69,16.62-26.75ZM336.7,205.06c3.83.75,14.83.53,19.22.45.36-3.63-.08-7.13-.46-10.73-4.91-1.3-13.78-.86-19.18-.71-.36,4.59-.42,6.35.42,10.99Z"/>
    <path class="cls-48" d="M274.67,302.78c3-.09,11.5,8.96,14.16,11.27,5.37,4.67,10.85,9.56,16.02,14.46-2.66,2.09-8.41,5.64-11.56,6.66-2.12-1.27-2.68-1.67-4.54-3.34-2.01.85-9.88,4.66-9.39,6.95.32,1.46.83,3.27.69,4.7-1.38,2.03-8.54,6.18-10.94,7.49-1.72-4.23-3.43-10.68-4.7-15.17-2.09-7.31-4.13-14.65-6.09-22,3.25-3.72,11.81-8.5,16.35-11.03ZM276.05,328.4c1.69-1.24,3.4-2.46,5.11-3.67-1.69-1.69-3.52-3.65-5.43-5.04l-2.65-1.92c.59,2.8,1.04,4.82,1.9,7.55l1.07,3.08Z"/>
    <path class="cls-48" d="M309.91,266.23c1.69.69,5.07,5.51,6.24,7.13-2.86,3.57-11.45,9.15-9.14,14.34,2.59,1.44,10.18-11.06,17.19-10.57,6.05.43,12.72,6.68,12.4,12.65-.42,7.81-12.07,19.52-17.79,24.62-1.79-.24-5.61-5.01-6.92-6.57,2.51-2.41,13.18-12.08,11.37-15.39-.42-.2-1.16-.64-1.6-.38-5.13,3.18-8.83,9.41-15.44,9.48-5.11.05-13.31-6.96-12.79-12.12.88-8.74,10.38-17.48,16.48-23.19Z"/>
    <path class="cls-48" d="M325.81,228.02c2.96,1.46,4.52,2.43,7.06,4.53-.73,2.26-2.18,5.11-2.95,7.46-2.54,7.76,1.45,7.86,7.54,9.73,2.83.87,5.89,1.86,8.76,2.65,2.87-4.64,3.78-12.69,4.95-14.19,1.89-.32,7.57.85,8.77,2.29.63,3.01-.99,7.5-2.02,10.41-4.17,10.41-8.84,16.03-20.67,13.34-11.39-2.59-21.57-8.65-18.1-21.7,1.13-4.26,2.92-12.09,6.65-14.53Z"/>
    <path class="cls-48" d="M196.58,331.06c-2.41-3.78-5.69-5.53-9.93-6.61-6.1-.91-15.75-2.64-20.95,1.33-7.36,5.61-10.48,23.75-4.62,31.3,3.36,4.32,10.06,5.98,15.22,6.64,10.43,1.27,17.1-.44,20.82-10.82l.23.04c.11-.34.21-.7.3-1.05,1.48-5.69,2.19-15.73-1.06-20.83ZM182.34,352.92c-2.4.56-7.66-.07-10.41-.29.37-4.64,1.77-14.17,2.8-18.43,3.53-.18,7,.31,10.53.62-.44,3.71-1.8,15.07-2.92,18.09Z"/>
    <path class="cls-48" d="M211.65,329.76c8.05.41,13.78.64,21.07-3.48,2.1-1.19,5.84-3.31,7.93-4.06.12,1.98.94,6.82.12,8.2-2.91,1.57-13.35.69-15.27,3.54-.19.28-.12,2.18-.11,2.72,6.11-.27,14.85-2.54,19.65,1.96,4.65,4.36,5.53,14.82.35,19.16-1.2.43-4.1,2.26-6.05,2.91-7.91,2.62-15.04,3.2-23.2,3.83-.32-3.27-.33-7.11-.42-10.45,3.67-.13,17.82-.9,19.07-4.49-.16-1.05.09-.66-.6-1.27-1.47-.06-4.11.21-5.58.52-3.02.65-8.56-.41-11.16.04-1.61-1.83-2.72-1.73-4.27-4.8-2.69-5.33-3.1-8.77-1.54-14.32Z"/>
  </g>
  <path class="cls-55" d="M273.22,39.74c3.95,1.89,6.79,4.27,8.86,8.2l-4.22-2.37c-1.22-.33-2.49-.98-3.65-1.52h-.25c-.65-.86-.82-2.55-.74-3.6v-.72Z"/>
  <path class="cls-18" d="M273.21,40.46c1.62,1.14,4.76,2.95,4.65,5.12-1.22-.33-2.49-.98-3.65-1.52h-.25c-.65-.86-.82-2.55-.74-3.6Z"/>
  <path class="cls-50" d="M264.11,358.97c4.32-1.29-3.43-8.53,9.62-4.17l.08.5c-1.98,1.3-7.46,3.96-9.7,3.67Z"/>
  <path class="cls-18" d="M50.19,304.24c-2.42-4.74-5.56-9.04-8.2-13.64-17.88-31.15-25.48-65.48-23.72-101.19,1.93-39.01,16.59-76.31,41.74-106.2,15.56-18.69,34.61-34.39,56.22-45.54,24.37-12.58,55.25-21.27,82.87-19.85v.34c-6.53,2.71-10.96,3.97-17.92,5.62-.78.19-6.81,1.78-7.37,2.02-1.07.87-.75.4-1.11,1.89,1.24.49,1.3.34,2.09,1.56-10.01,2.14-22.7,5.02-32.35,8.47-35.13,12.74-65.19,36.51-85.7,67.75-25.52,38.7-34.41,86.05-24.65,131.37,4.8,22.25,14.44,42.29,26.78,61.28-2.3,1.25-3.2,1.5-5.31,3.26-.77.65-2.72,2.49-3.37,2.86Z"/>
  <path class="cls-42" d="M165.71,27.39c2.29-.24,5.63-1.14,8.11-1.6-1.07.87-.75.4-1.11,1.89-1.95.1-4.97-.17-7-.29Z"/>
  <path class="cls-50" d="M131.68,322.34c3.41-1.47,5.3-1.78,8.97-1.1.79.95,1.69,1.98,2.42,2.96-1.14,1.42-1.7,2.36-2.64,3.93-5.87,2.36-9.13.02-14.16,1.96-.14.02-.29.04-.43.07l-2.48-.83c-.95.26-.57,0-1.14.87-.03.74-.07,1.38-.05,2.12l.25.34c2.14,2.88,4.9,3.01,4.74,5.08-.84,1.03-1.23,1.18-2.35,1.86-.18,1.87-1.98,7.14-2.67,9.18-.02,1.99-.08,2.47-.55,4.39-.23,4.18-.33,6.21.49,10.4l.97,3.74c-.35.78-.33.83-.9,1.5-.17-.16-.64-.47-.86-.62-1.08.86-1.44,1.19-2.37,2.22l-.56-.44c-3.7,4.33-5.01,4.52-10.52,5.96-2.96.76-12.09,1.79-14.87,1.2-.85-.86-.71-1.13-1.04-2.41-3.84.85-18.38,2.19-22.7,2.48l-1.86.66-1.27.1c-1.29-.18-2.52-.26-3.81-.35-3.78-.24-7.01.55-11.05-.46-1.34-5.56-2.23-9.96-4.05-15.45l.66-1.05c-4.19.57-7.45,1.31-11.36,3.15l-1.01.07c-.79.57-1.07.71-1.95,1.14l-.23-.19c1.15-1.49,1.12-1,1.21-2.64,6.38-8.6,21.91-21.54,31.4-26.76,1.63-1.1,1.73-.75,3.5-.32l.37-.29-.16-1.36c.79.18,2.65.53,3.25.88l4.89-3.43c.96-.58,1.18-.68,1.96-1.45l-.3-.55h.24c1.92-.31,3.87-.35,5.8-.13,1.37-.67,2.5-1.21,4.02-1.38l1.57.38c1.51-.74,1.8-.59,3.47-.45.25-1.13.22-1.42.94-2.26,1.68,1.23,1.92,1.4,4.03,1.24,1.05-.14,1.53-.19,2.58-.2.92-.3,2.18-1.39,3.1-2.02,1.16.59,1.31.37,2.72.32l.52-.11c1.16.18,1.3.4,2.28,1.14,1.32-.62,1.58-.58,3.05-.57,3.17.45,4.89.1,7.46.34l.97,1.01c4.23-1.21,5.79-1.81,9.52-3.86Z"/>
  <path class="cls-25" d="M102.08,326.1c.92-.3,2.18-1.39,3.1-2.02,1.16.59,1.31.37,2.72.32l.52-.11c1.16.18,1.3.4,2.28,1.14,1.32-.62,1.58-.58,3.05-.57,3.17.45,4.89.1,7.46.34l.97,1.01c-.54.21-1.54.57-1.99.85-3.29,1.27-8.79,3.57-11.43,5.96-3.06,2.17-5.36,3.83-7.89,6.71-.7,1.1-1.72,2.83-2.46,3.84l-.23-.41c-1.24,1.6-2.94,4.41-4.75,4.78-1.28-.87-.43-1.7-1.83-3.26l-.2.39c-.6-.17-2.55-1.68-3.54-1.98-7.25-2.24-17.02-1.52-23.56,1.51-.94-.15-.94-.15-1.8-.56l.32-.55c1.38-.79,8.35-7.63,10.08-9.17l4.89-3.43c.96-.58,1.18-.68,1.96-1.45l-.3-.55h.24c1.92-.31,3.87-.35,5.8-.13,1.37-.67,2.5-1.21,4.02-1.38l1.57.38c1.51-.74,1.8-.59,3.47-.45.25-1.13.22-1.42.94-2.26,1.68,1.23,1.92,1.4,4.03,1.24,1.05-.14,1.53-.19,2.58-.2Z"/>
  <path class="cls-49" d="M102.08,326.1c.92-.3,2.18-1.39,3.1-2.02,1.16.59,1.31.37,2.72.32l.52-.11c1.16.18,1.3.4,2.28,1.14,1.32-.62,1.58-.58,3.05-.57,3.17.45,4.89.1,7.46.34l.97,1.01c-.54.21-1.54.57-1.99.85-3.29,1.27-8.79,3.57-11.43,5.96-3.06,2.17-5.36,3.83-7.89,6.71-.93-.16-2.33-.09-3.31-.09-.43-1.31-1.2-2.39-1.94-3.55-3.91-2.07-8.49-2.16-12.86-2.34.93-.53,1.5.11,2.56-.55l.2-.94c-.66-1.44-.62-2.02,0-3.48,1.37-.67,2.5-1.21,4.02-1.38l1.57.38c1.51-.74,1.8-.59,3.47-.45.25-1.13.22-1.42.94-2.26,1.68,1.23,1.92,1.4,4.03,1.24,1.05-.14,1.53-.19,2.58-.2Z"/>
  <path class="cls-30" d="M91.07,327.77c1.51-.74,1.8-.59,3.47-.45l.45.78c1.18.38,1.94.37,3.16.45,1.56.57,4.78,2.3,4.85,4.13-2.04,2.69-13.51-.95-17.51-.42-.66-1.44-.62-2.02,0-3.48,1.37-.67,2.5-1.21,4.02-1.38l1.57.38Z"/>
  <path class="cls-10" d="M91.07,327.77c1.51-.74,1.8-.59,3.47-.45l.45.78c-1.7.02-2.25.06-3.91-.33Z"/>
  <path class="cls-30" d="M102.08,326.1c.92-.3,2.18-1.39,3.1-2.02,1.16.59,1.31.37,2.72.32l.52-.11c1.16.18,1.3.4,2.28,1.14.62,1.1.88,1.33.73,2.51-1.63,2.3-5.6,1.29-7.39-.16-.18-.15-.34-.33-.45-.54-.56-.78-.58-.72-1.5-1.12Z"/>
  <path class="cls-69" d="M102.08,326.1c.92-.3,2.18-1.39,3.1-2.02,1.16.59,1.31.37,2.72.32-2.56.66-2.76.7-4.32,2.83-.56-.78-.58-.72-1.5-1.12Z"/>
  <path class="cls-30" d="M82.73,333.74c4.37.18,8.95.27,12.86,2.34.74,1.16,1.52,2.25,1.94,3.55l-1.68.8c-2.51-2.43-11.93-4.02-15.58-3.8-1.67.1-4.67.34-5.81-.78,3.39-1.47,4.55-1.65,8.27-2.1Z"/>
  <path class="cls-66" d="M95.85,340.43c-3.69,1.97-7.07-.25-10.96-.8-2.93-.42-9.33.6-11.46-.98-.58-1.08-.47-.53-.41-1.71.65-.94.32-.63,1.44-1.09,1.15,1.12,4.14.88,5.81.78,3.65-.22,13.07,1.37,15.58,3.8Z"/>
  <path class="cls-50" d="M81.49,362.63c1.92-.84,3.06-.85,5.1-.95,5.06,1,6.89,3.63,10.95,6.81,3.41.03,7.91-.53,10.9-2.27l1.92-1.05c2.32.09,3.63.04,5.44,1.77,1.19,2.02,1.67,1.82,2.55,3.06-3.7,4.33-5.01,4.52-10.52,5.96-2.96.76-12.09,1.79-14.87,1.2-.85-.86-.71-1.13-1.04-2.41-3.84.85-18.38,2.19-22.7,2.48-1.43-3.01,4.37-9.32,6.4-11.12,1.84-1.05,4.12-2.32,5.87-3.46Z"/>
  <path class="cls-13" d="M69.06,358.38c1.87.05,4.19.05,6.02.22,1.15.1,5.16.38,5.96.74.96.7,1.5.87,2.61,1.28-1.25.6-1.54.74-2.15,2.01-1.75,1.14-4.03,2.41-5.87,3.46-2.03,1.8-7.83,8.11-6.4,11.12l-1.86.66-1.27.1c-1.29-.18-2.52-.26-3.81-.35-3.78-.24-7.01.55-11.05-.46-1.34-5.56-2.23-9.96-4.05-15.45l.66-1.05c5.89-1.25,15.16-1.9,21.22-2.27Z"/>
  <path class="cls-42" d="M66.84,377.24c2.13-3.26,4.19-11.04,8.78-11.15-2.03,1.8-7.83,8.11-6.4,11.12l-1.86.66-1.27.1c-1.29-.18-2.52-.26-3.81-.35,1.28-.19,3.22-.27,4.57-.37Z"/>
  <path class="cls-66" d="M113.81,345.54l.1.98.79.43c2.93,1.71,3.97,1.89,7.45,1.83-.02,1.99-.08,2.47-.55,4.39-.23,4.18-.33,6.21.49,10.4l.97,3.74c-.35.78-.33.83-.9,1.5-.17-.16-.64-.47-.86-.62-1.08.86-1.44,1.19-2.37,2.22l-.56-.44c-.87-1.24-1.36-1.04-2.55-3.06-1.81-1.73-3.12-1.68-5.44-1.77l-1.92,1.05c.85-1.8,2.25-1.47,3.17-3.14l-.69-.48-1.97,1.14c-.29-2.94,2.75-7.56,2.49-9.62l-.89.29-.43-.25c-.31-1.35-1.09-5.12-.6-6.31,1.04-.83,1.72-.89,3.01-1.22l1.26-1.07Z"/>
  <path class="cls-69" d="M110.93,362.58c.87-1.16,4.92-5.52,6.54-3.63,1.99,2.32-.26,5.73,2.55,8.46.87-1.03,1.54-2.59,2.06-3.84l.97,3.74c-.35.78-.33.83-.9,1.5-.17-.16-.64-.47-.86-.62-1.08.86-1.44,1.19-2.37,2.22l-.56-.44c-.87-1.24-1.36-1.04-2.55-3.06-1.81-1.73-3.12-1.68-5.44-1.77l-1.92,1.05c.85-1.8,2.25-1.47,3.17-3.14l-.69-.48Z"/>
  <path class="cls-2" d="M110.37,365.16c1.97-1.67,3.87-3.4,5.71-5.21-.02,2.43-.01,4.55-.27,6.98-1.81-1.73-3.12-1.68-5.44-1.77Z"/>
  <path class="cls-42" d="M114.69,346.95c2.93,1.71,3.97,1.89,7.45,1.83-.02,1.99-.08,2.47-.55,4.39-1.97.4-7.01,1.14-8.85.49.03-1.32,1.45-5.42,1.95-6.71Z"/>
  <path class="cls-35" d="M113.81,345.54l.1.98.79.43c-.51,1.29-1.92,5.38-1.95,6.71-.17-.32-.24-.44-.56-.64-3.22-2.03-1.3-4.09.37-6.4l1.26-1.07Z"/>
  <path class="cls-50" d="M64.29,344.59c6.54-3.03,16.31-3.75,23.56-1.51.99.31,2.94,1.81,3.54,1.98.48,1.05.8,1.43.53,2.47l-.57.69c-3.06,2.5-5.16.93-8.74.67-1.89-.48-5.53-.62-7.6-.76-2.76.29-5.94.77-8.68.59-1.56-.1-1.74-.44-2.58-1.43l.54-2.71Z"/>
  <path class="cls-10" d="M75,348.14c.44-.81.53-1.1.68-2.01,1.79-1.46,13.51,1.09,15.66,2.09-3.06,2.5-5.16.93-8.74.67-1.89-.48-5.53-.62-7.6-.76Z"/>
  <path class="cls-13" d="M62.48,344.04c.87.4.86.4,1.8.56l-.54,2.71c.84.99,1.02,1.33,2.58,1.43,2.74.18,5.92-.3,8.68-.59,2.07.14,5.71.28,7.6.76l-.52.36c.39,1.01,1.02,1.53,1.78,2.32l.48.08-.61.63.88.35-1.12.76c-3.41.72-14.7,1.21-17.57.18-1.72.16-4.99-1.39-5.84-2.91-.82-1.47-.61-1.96-.26-3.51.86-1.2,1.49-2.25,2.68-3.13Z"/>
  <path class="cls-49" d="M83.85,351.58l.48.08-.61.63.88.35-1.12.76c-3.41.72-14.7,1.21-17.57.18,2.99-2.4,13.06,1.01,17.95-2Z"/>
  <path class="cls-49" d="M62.48,344.04c.87.4.86.4,1.8.56l-.54,2.71c-.75.46-1.22.78-2.04,1.11-.75-.44-1.19-.73-1.9-1.24.86-1.2,1.49-2.25,2.68-3.13Z"/>
  <path class="cls-25" d="M113.81,345.54c4.01-3.78,5.8-4.19,11.01-5.94-.18,1.87-1.98,7.14-2.67,9.18-3.48.06-4.52-.12-7.45-1.83l-.79-.43-.1-.98Z"/>
  <path class="cls-24" d="M91.39,345.06l.2-.39c1.4,1.56.55,2.39,1.83,3.26,1.81-.37,3.51-3.18,4.75-4.78l.23.41c-.85,2.19-2.25,3.6-3.87,5.26-1.42.99-2.74,1.92-4.21,2.83-2.42.77-4.31,1.31-6.84,1.75l1.12-.76-.88-.35.61-.63-.48-.08c-.76-.79-1.39-1.31-1.78-2.32l.52-.36c3.58.26,5.69,1.83,8.74-.67l.57-.69c.27-1.04-.05-1.41-.53-2.47Z"/>
  <path class="cls-30" d="M69.62,333.44c.79.18,2.65.53,3.25.88-1.73,1.54-8.7,8.37-10.08,9.17l.18-.28c.65-1.03.7-1.16,1.59-1.93l.04-.51-.53-.16c-1.72,1.23-3.33,3.52-4.79,3.87l-.62-.34c1.2-1.09,7.36-7.13,8.09-8.22l-.84-.5c1.63-1.1,1.73-.75,3.5-.32l.37-.29-.16-1.36Z"/>
  <path class="cls-22" d="M86.98,360.41c5.87,2.13,6.34,2.73,10.86,6.98,4.4-.39,7.91-.3,11.12-3.66l1.97-1.14.69.48c-.92,1.67-2.32,1.35-3.17,3.14-2.99,1.74-7.5,2.3-10.9,2.27-4.06-3.18-5.89-5.8-10.95-6.81l.38-1.26Z"/>
  <path class="cls-30" d="M108.74,333.01c2.64-2.39,8.14-4.69,11.43-5.96-.67,1.13-1.48,1.35-2.67,1.88-1.12,1.54.7,3.5-2.19,4.04-1.01.19-4.43.51-5.1.86l-.14.56-1.35.02c.5-.37.63-.38.91-.91l-.89-.48Z"/>
  <path class="cls-25" d="M81.04,359.34c2.26.25,3.71.56,5.94,1.07l-.38,1.26c-2.05.11-3.18.11-5.1.95.61-1.26.9-1.4,2.15-2.01-1.1-.41-1.64-.58-2.61-1.28Z"/>
  <path class="cls-2" d="M90.31,351.65c1.47-.91,2.79-1.84,4.21-2.83-.04.76-.13,1.6-.01,2.33l-.75-.03c-.74.73-.83.86-1.4,1.72l-2.05-1.2Z"/>
  <path class="cls-30" d="M69.06,358.38c.98-.7,2.9-.24,3.65-.36.25-.04.75-1.8,1.69-2.27,1.1.96.8,1.41.68,2.85-1.83-.17-4.15-.17-6.02-.22Z"/>
  <path class="cls-65" d="M122.17,332.32c-.58-1.75-.68-1.45-2.2-2.86v-.39c1.51-.25,1.94-.09,3.39.27-.95.26-.57,0-1.14.87-.03.74-.07,1.38-.05,2.12Z"/>
  <path class="cls-69" d="M92.36,352.84c.56-.87.66-1,1.4-1.72l.75.03c-.1,1.11-.13,1.13-.82,1.96l-.68.2-.64-.47Z"/>
  <path class="cls-6" d="M108.72,334.4l1.35-.02c.19.7.19.35-.1,1.1-.94.57-.46.48-1.47.37l-.23-.59.45-.86Z"/>
  <path class="cls-20" d="M58.67,344.14l.62.34c-.3.82-.43,1.3-1.29,1.43-.16-.94-.06-.69.67-1.76Z"/>
  <path class="cls-20" d="M106.6,336.27l.18.23c-.04.55-5.55,7.98-6.18,8.56-.53-.57-.36-.24-.52-1,1.16-1.81,4.95-6.12,6.53-7.79Z"/>
  <path class="cls-22" d="M96.14,348.83l.72.26c.58.84.37.67.23,2.01-1.32-.58-1-.97-.95-2.26Z"/>
  <path class="cls-62" d="M208.04,13.34l1.84.07c11.49.47,15.42,1.89,23.38,10.52,1.07-3.37,2.07-6.76,3-10.17,3.72.18,6.76.39,10.12,2.35,4.29,2.49-.5,6.26-2.61,9.09l.42.91c2.35-2.6,7.53-6.91,11.25-6.15.2.23.62.54.48.85-1.83,4.25-5.34,7.53-7.89,11.55-3.76,5.94-6.23,14.53-13.52,16.66-.46-2.29-1.08-5-1.32-7.29-.62,2.31-1.71,8.17-3.94,9.02-6.14,2.34-12.4-13.83-14.01-17.99-.77,1.1-1.81,2.7-2.62,3.71-1.4-2.46-2.59-4.47-4.83-6.3-1.42-1.16-4.6-3.32-6.46-2.54-.52,1.39,1.44,2.32,2.52,3.08-11.58,6.55-17.93,23.91-18.36,36.6,1.59-1.21,3.16-2.42,4.64-3.77.63-.58,1.36-1.57,1.92-2.06l-.31-.49c-1.12.98-2.55,2.37-3.85,2.97l-.47-.14c-1.96-3.85,7.24-24.68,11.74-26.71.6-.27,2.29-1.04,3-1.34-2.3,6.53-3.39,8.8-2.15,15.93,1.02,5.88,3.02,11.02,9.16,13.23,2.86,1.03,7.42,1.06,10.22-.16,1.98-.93,4.9-3.68,6.72-4.28-.24.68-7.43,8.84-8.64,10.47,4.35-3.08,5.17-3.52,8.4-7.73-.78,8.84-2.48,20.09,1.97,28.01,2.1,3.74,4.86,6.75,6.27,10.91-7.52-.36-16.19-4.33-23.53-6.41-7.49-2.12-5.53,1.41-11.02,5.23-.53.2-.56.23-1.02.52-2.73,1.73-6.38,1.75-9.48,1.22l-2.18.13c1-2.87,1.53-4.06,3.31-6.5-1.13-1.98-2.24-3.68-3.75-5.39-1.38-2.42-2.58-4.53-3.79-7.04-2.51.72-6.56,2.12-9.17,2.15-.63,0-.96-.64-1.39-1.16,3.19-.77,4.3-10.47,5.06-13.55.16-5.23,1.14-8.67,1-14.71-1.13-.08-1.63,0-2.52-.61-3.45-5.35,6.68-17.14,8.34-22.3.49-1.5-.15-2.05-1.17-2.95l.93-.26c1.7,1.44.75,3.36,1.94,4.55l.44-.41.11.55c.77-.77,3.12-4.02,3.94-5.08-2.48-.59-5.03-.71-7.57-.9,5.38-3.44,13.7-9.07,19.98-9.71,7.31-.75,11.55,2.47,16.82,6.79l.77-.33c-4.07-4.58-8.08-7.49-12.11-12.62Z"/>
  <path class="cls-21" d="M177.14,71.34l.34-.28c.72-1.66.63-2.46.64-4.26l.39-.33c.3.34.41.41.78.66l.39.26c.07,3.92.14,9.38-.28,13.27,1.97-.38,3.69-.61,5.69-.86,2.24,9.04,7.94,14.95,14.47,21.17-.53.2-.56.23-1.02.52-2.73,1.73-6.38,1.75-9.48,1.22l-2.18.13c1-2.87,1.53-4.06,3.31-6.5-1.13-1.98-2.24-3.68-3.75-5.39-1.38-2.42-2.58-4.53-3.79-7.04-2.51.72-6.56,2.12-9.17,2.15-.63,0-.96-.64-1.39-1.16,3.19-.77,4.3-10.47,5.06-13.55Z"/>
  <path class="cls-38" d="M190.19,96.35c2.07,2.09,3.76,3.8,5.99,5.72-2.75.07-4.37.17-7.11.66l-2.18.13c1-2.87,1.53-4.06,3.31-6.5Z"/>
  <path class="cls-15" d="M182.8,30.77l.93-.26c1.7,1.44.75,3.36,1.94,4.55l.44-.41.11.55-.12.21c-2.88,4.84-8.33,10.95-7.83,17.17,1.41.9,1.78-.24,2.76.79-.46,4.81-1.39,9.15-1.34,14.04l-.39-.26c-.37-.25-.48-.31-.78-.66l-.39.33c0,1.8.08,2.6-.64,4.26l-.34.28c.16-5.23,1.14-8.67,1-14.71-1.13-.08-1.63,0-2.52-.61-3.45-5.35,6.68-17.14,8.34-22.3.49-1.5-.15-2.05-1.17-2.95Z"/>
  <path class="cls-15" d="M191.75,61c.4-.85.35-1.17,1-1.49.68,1.15,2.47,17.36,2.84,19.96,2.71.72,4.61,1.11,7.09,2.52-3.12-.26-5.3-.61-8.31-1.57-1.24-5.67-2.1-13.11-2.31-18.92l-.31-.49Z"/>
  <path class="cls-31" d="M243.77,25.2l.42.91c-1.58,1.83-3.09,4.11-4.49,6.11,1.2-2.93,2.23-4.48,4.06-7.02Z"/>
  <path class="cls-63" d="M221.28,27.06c1.52,1.28,2.34,2.19,3.27,3.93-1.44-1.25-2.84-2.54-4.21-3.86l.95-.07Z"/>
  <path class="cls-21" d="M220.15,25.96l1.13,1.1-.95.07-.95-.85.77-.33Z"/>
  <path class="cls-55" d="M217.64,275.67c-1.49-.84-4.63-2.37-4.8-4.17,1.39-1.18,4.43-.25,6.16.08,1.4,1.44,2.45,2.78,3.7,4.34,1.74,1.61,4.09,4.72,5.64,6.66-1.35.1-3.26-.14-4.65-.27l-.43.51c-1.21-.12-7.41-1.18-7.95-1.14l.27.88c1.55.51,2.4-.98,4.2.62l-1.8.07-.1.18c1.76.76,4.06,1.1,6.22,1.95-1.61.45-6.27-1.35-8.58-1.54l-.13.25c.87.31,5.39,1.89,5.92,2.16l-.31.37c-1.22-.06-4.93-1.56-6.41-2.06l-1.38.41c-.05,1.01-.01,2.3-.43,3.17-1.67.2-2.37.32-4.06.18l-.49-.24c0-.67-.01-1-.21-1.66l-.05-.28c.16-1.55.25-2.24,1.14-3.5l-.72-.98c-.92-1.21-1.32-1.83-.95-3.32,1.41-1.55,7.16-1.76,10.19-2.69Z"/>
  <path class="cls-28" d="M222.7,275.92c1.74,1.61,4.09,4.72,5.64,6.66-1.35.1-3.26-.14-4.65-.27-1.7-.72-9.15-.59-10.83-2.11,1.08-1.07,4.59-1.05,6.22-1.14,1.53-1,2.35-1.86,3.63-3.14Z"/>
  <path class="cls-30" d="M211.99,286.46c-.56-1.27-1.16-2.08-.54-3.42l.64.21-.76.27.74-.36c.62.5.8,1.08,1.14,1.81-.05,1.01-.01,2.3-.43,3.17-1.67.2-2.37.32-4.06.18.84-.86,2.15-1.34,3.28-1.87Z"/>
  <path class="cls-18" d="M209.11,282.66c.54.99,1.27,1.97,1.1,2.99-.88.65-.92.43-2.24.5.16-1.55.25-2.24,1.14-3.5Z"/>
  <path class="cls-15" d="M202.75,288.93c-2.58-.24-7.6-1.17-7.56-4.41.48-1.03.65-1.17,1.53-1.91l.75-.64.29-.25c.13-.94.18-1.63.23-2.58,1.91-2.1,6.36,2.3,7.82,3.65l.07-.33h.32s1.13,1.4,1.13,1.4l.49-.42c-.02-.67.17-.93.46-1.53l.12-.23.72.98c-.89,1.25-.98,1.94-1.14,3.5l.05.28c.2.66.22.99.21,1.66l.49.24c1.69.14,2.39.02,4.06-.18l.91.57c-2.71,1.67-7.98.69-10.94.21Z"/>
  <path class="cls-64" d="M208.4,281.68l.72.98c-.89,1.25-.98,1.94-1.14,3.5l.05.28c.2.66.22.99.21,1.66l.49.24c1.69.14,2.39.02,4.06-.18l.91.57c-2.71,1.67-7.98.69-10.94.21l1.92-.23c-1.48-.35-2.04-.26-2.87-1.31h-.32c-.9-1.01-2.75-1.6-2.88-2.77,1.08-.51,2.11-.34,3.33-.3l-.02,1.22c1.88-.68,2.88-.92,3.89-2.73l.07-.33h.32s1.13,1.4,1.13,1.4l.49-.42c-.02-.67.17-.93.46-1.53l.12-.23Z"/>
  <path class="cls-28" d="M208.4,281.68l.72.98c-.89,1.25-.98,1.94-1.14,3.5l.05.28c-2.14-.08-4.94.92-6.1-.9,1.88-.68,2.88-.92,3.89-2.73l.07-.33h.32s1.13,1.4,1.13,1.4l.49-.42c-.02-.67.17-.93.46-1.53l.12-.23Z"/>
  <path class="cls-14" d="M201.48,287.38c-1.66-.07-5.56-.68-5.02-2.98,1.25-1.34,1.53-1.22,3.42-1.4.71-1.07-.39-1.76.27-2.94,1.28-.15,3.12,1.41,3.33,2.72-.24.78-.59.9-1.28,1.37l-.25.17c-1.22-.04-2.26-.21-3.33.3.13,1.16,1.97,1.76,2.88,2.76Z"/>
  <path class="cls-42" d="M213.21,284.98l1.38-.41c-.19,1.23-.4,3.09-.9,4.16l-.91-.57c.42-.87.38-2.17.43-3.17Z"/>
  <path class="cls-48" d="M36.49,363.8c3.9-1.84,7.17-2.58,11.36-3.15l-.66,1.05c1.82,5.49,2.7,9.89,4.05,15.45,4.04,1.02,7.27.22,11.05.46,1.29.09,2.52.17,3.81.35l1.27-.1,1.86-.66c4.32-.28,18.86-1.62,22.7-2.48.33,1.28.19,1.56,1.04,2.41,2.78.59,11.91-.43,14.87-1.2,5.52-1.45,6.83-1.64,10.52-5.96l.56.44c.92-1.03,1.28-1.36,2.37-2.22.21.15.68.46.86.62-.57,1.15-.97,2.05-1.74,3.1l1.92.45c.64-.63,1.53-1.26,2.26-1.81,1.02,1.96,3.13,5.51,2.37,7.7-1.05,3.02-7.27,6.77-10.21,7.19-1.79.81-4.48,1.94-6.42,2.26-19.42,4.12-40.82,5.68-60.69,5.76-5.35.02-12.74-.14-17.87-.98-2.19,0-5.67-.7-6.86-2.71.16-1.8-1.12-4.05-.72-6.62l1.13-.3c0-1.52.06-2.53.21-4.05-.7-.16-.36-.01-.91-.86.81-2.25,2.37-5.54,4.06-7.24l1.05.09c2.88-3.29,2.93-4.12,6.77-7.02Z"/>
  <path class="cls-50" d="M36.49,363.8c3.9-1.84,7.17-2.58,11.36-3.15l-.66,1.05c1.82,5.49,2.7,9.89,4.05,15.45-5.86-.27-13.65-.85-19.35-.77-.04,1.1-.08,3.59-.27,4.53-2.26-.59-3.92-1.24-6.09-2.08-.7-.16-.36-.01-.91-.86.81-2.25,2.37-5.54,4.06-7.24l1.05.09c2.88-3.29,2.93-4.12,6.77-7.02Z"/>
  <path class="cls-35" d="M36.49,363.8c3.9-1.84,7.17-2.58,11.36-3.15l-.66,1.05c-6.87.96-11.73,3.56-15.84,8.81-.17.22-1.33.29-1.63.3,2.88-3.29,2.93-4.12,6.77-7.02Z"/>
  <path class="cls-51" d="M33.71,391.18c2.11.19,5.85.11,8.16.2,17.13.67,34.8,0,51.76-2.6,5.82-.89,9.96-1.09,15.8-2.58.5.59.72.76.88,1.52-19.42,4.12-40.82,5.68-60.69,5.76-5.35.02-12.74-.14-17.87-.98l.06-.4c.61-.81.63-.58,1.9-.92Z"/>
  <path class="cls-56" d="M121.29,368.2c.21.15.68.46.86.62-.57,1.15-.97,2.05-1.74,3.1-3.5,4.93-6.99,5.75-12.33,7.6-2.36.52-15.13,2.88-16.7,2.01.32-1.28.45-5.23.55-6.79.33,1.28.19,1.56,1.04,2.41,2.78.59,11.91-.43,14.87-1.2,5.52-1.45,6.83-1.64,10.52-5.96l.56.44c.92-1.03,1.28-1.36,2.37-2.22Z"/>
  <path class="cls-20" d="M107.83,375.95c5.52-1.45,6.83-1.64,10.52-5.96l.56.44c-3.07,3.53-5.98,6.45-11.09,5.53Z"/>
  <path class="cls-23" d="M31.88,376.37c5.7-.08,13.49.5,19.35.77,4.04,1.02,7.27.22,11.05.46,1.29.09,2.52.17,3.81.35-8.27.78-24.62.62-32.6-.07-.09,2.42-.28,2.85-1.19,5.16l-.68-2.14c.19-.95.23-3.43.27-4.53Z"/>
  <path class="cls-64" d="M69.22,377.21c4.32-.28,18.86-1.62,22.7-2.48-.1,1.56-.23,5.51-.55,6.79-.66-1.27-.76-3.57-.91-5.09-2.71-.14-6.1.52-8.88.8-4.93.5-9.29.84-14.23.63l1.86-.66Z"/>
  <path class="cls-10" d="M25.52,378.83c2.17.83,3.83,1.48,6.09,2.08l.68,2.14-.14.41c-1.47.25-5.19-.34-6.85-.59,0-1.52.06-2.53.21-4.05Z"/>
  <path class="cls-45" d="M108.07,379.52c5.34-1.85,8.84-2.67,12.33-7.6l1.92.45c-4.61,5.38-5.46,5.77-12.94,7.14-.31.06-.98.03-1.31,0Z"/>
  <path class="cls-52" d="M24.89,389.79c2.73.56,6.04,1.18,8.81,1.39-1.27.33-1.28.1-1.9.92l-.06.4c-2.19,0-5.67-.7-6.86-2.71Z"/>
  <path class="cls-52" d="M109.43,386.19c1.83-.39,5.82-1.53,7.31-.74-1.79.81-4.48,1.94-6.42,2.26-.16-.77-.38-.93-.88-1.52Z"/>
  <path class="cls-67" d="M50.19,304.24c.66-.38,2.6-2.22,3.37-2.86,2.11-1.76,3.01-2.01,5.31-3.26.92.81,1.68,1.52,2.7,2.22.27.76.71,1.9.87,2.66,1.74,2.11,2.93,3.77,4.47,6,2.14-.05,6.71-1.51,8.85-2.29,9.36-3.38,14.84-4.87,24.75-3.81-2.02,2.35-4.34.78-7.14,1.3,6.48.36,13.29,1.65,17.78,6.68,5.6,6.27-1.01,10.61-5.98,13.2-.92.63-2.17,1.72-3.1,2.02-1.05,0-1.53.06-2.58.2-2.11.15-2.35-.02-4.03-1.24-.72.84-.69,1.14-.94,2.26-1.67-.14-1.96-.29-3.47.45l-1.57-.38c-1.53.17-2.65.72-4.02,1.38-1.93-.23-3.88-.18-5.8.14l.3-1.3-2.16.15c-4.43.3-8.87.41-13.31.32l.3.47-.27.27-.29-.26.03.44.18-.05c.1.67.2.79-.03,1.4-5.6-.86-13.26-1.3-17.29-5.67-.9-.97-1.35-2.42-1.79-3.66.48-1.77,1.4-3.7,2.16-5.4-3.25-1.72-9.94-3.45-9.86-8.24.01-.8.17-1.61.88-2.12,3.65-2.65,5.45,2.48,8.78,2.65,1.72-.62,2.07-1.96,2.9-3.67ZM45.35,321.03c.44,1.24.89,2.69,1.79,3.66,4.03,4.37,11.69,4.81,17.29,5.67.23-.61.13-.73.03-1.4l-.18.05-.03-.44.29.26.27-.27-.3-.47c4.44.09,8.88-.02,13.31-.32-.99-.96-1.17-1-2.53-1.34l.93-.21c.87-1.24.64.09,1.26-2.24-1.68-.36-10.1-1.92-10.9-2.84l-.28-.73-1.11-.37c-4.47.42-12.53,1.29-15.2-3.49-2.88-5.18,1.6-12.02,6.02-14.75.69-.43,3.02-1.25,3.84-1,.04,1.24-3.4,3.92-4.18,4.86-13.56,16.45,11.94,11.6,19.99,10.21,3.26-.57,6.3-.73,8.95-.87,2.85.04,6.22,0,8.98.64l1.3.34,1.43-1.15c.69-2.02.9-3.75.87-5.95-.01-.93.57.49.51-.99-1.19-.38-2.59-.18-4.31-.77-9.05-.65-33.69,12.8-39.52,7.09-.31-.91-.41-.72-.14-1.4,1.56-.63,12.14-1.23,15.94-2.22,4.24-1.11,13.81-5.19,16.94-5.27,2.54,1.4,5.45,2.71,6.58-.84l.17-.26c2.81-.53,5.13,1.05,7.14-1.3-9.91-1.06-15.38.43-24.75,3.81-2.14.77-6.7,2.23-8.85,2.29-1.55-2.23-2.73-3.89-4.47-6-.16-.76-.6-1.9-.87-2.66-1.02-.7-1.78-1.41-2.7-2.22-2.3,1.25-3.2,1.5-5.31,3.26-.77.65-2.72,2.49-3.37,2.86-.82,1.7-1.17,3.04-2.9,3.67-3.33-.17-5.13-5.3-8.78-2.65-.7.51-.86,1.32-.88,2.12-.08,4.79,6.61,6.52,9.86,8.24-.75,1.7-1.68,3.63-2.16,5.4Z"/>
  <path class="cls-44" d="M86.63,305.31c1.38-.48,4.96-.69,6.58-.84-1.13,3.55-4.04,2.24-6.58.84Z"/>
  <path class="cls-15" d="M50.19,304.24c.66-.38,2.6-2.22,3.37-2.86,2.11-1.76,3.01-2.01,5.31-3.26.92.81,1.68,1.52,2.7,2.22.27.76.71,1.9.87,2.66,1.74,2.11,2.93,3.77,4.47,6,2.14-.05,6.71-1.51,8.85-2.29,9.36-3.38,14.84-4.87,24.75-3.81-2.02,2.35-4.34.78-7.14,1.3l-.17.26c-1.62.15-5.2.37-6.58.84-3.13.07-12.7,4.16-16.94,5.27-3.8.99-14.38,1.59-15.94,2.22-.27.68-.17.49.14,1.4,5.82,5.7,30.47-7.75,39.52-7.09,1.73.59,3.13.39,4.31.77.06,1.48-.53.06-.51.99.03,2.2-.18,3.93-.87,5.95l-1.43,1.15-1.3-.34c-2.76-.63-6.13-.6-8.98-.64-2.66.14-5.69.3-8.95.87-8.05,1.4-33.54,6.25-19.99-10.21.78-.94,4.23-3.62,4.18-4.86-.82-.25-3.15.57-3.84,1-4.41,2.72-8.9,9.57-6.02,14.75,2.66,4.79,10.73,3.91,15.2,3.49l1.11.37.28.73c.81.92,9.22,2.48,10.9,2.84-.62,2.33-.4,1.01-1.26,2.24l-.93.21c1.35.33,1.53.37,2.53,1.34-4.43.3-8.87.41-13.31.32l.3.47-.27.27-.29-.26.03.44.18-.05c.1.67.2.79-.03,1.4-5.6-.86-13.26-1.3-17.29-5.67-.9-.97-1.35-2.42-1.79-3.66.48-1.77,1.4-3.7,2.16-5.4-3.25-1.72-9.94-3.45-9.86-8.24.01-.8.17-1.61.88-2.12,3.65-2.65,5.45,2.48,8.78,2.65,1.72-.62,2.07-1.96,2.9-3.67ZM46.97,313.57c.71-.88.51-.48.67-1.64-.81-1.83-3.66-2.65-5.63-4.07h-.26c-1.18.77-1.16.47-1.41,1.48.84,1.99,4.57,3.1,6.63,4.23ZM63.25,323.1c-2.11-.27-3.33-.49-5.44.07l.04.38c.7.25,1.16.45,1.92.53,1.53-.67,1.78-.78,3.48-.98Z"/>
  <path class="cls-8" d="M64.51,328.08c-4.66-.19-10.27-.49-14.29-3.02-1.93-1.21-3.94-3.79-2.15-5.97,1.08-.49.6-.42,1.79-.15,1.65,1.31,1.59,2.65,1.84,4.72,6.96,3.48,16.05,3.32,23.59,2.76,1.35.33,1.53.37,2.53,1.34-4.43.3-8.87.41-13.31.32Z"/>
  <path class="cls-70" d="M54.46,310.45c.05-.08.1-.15.14-.23l.25-.38c1.96-3.02,4.51-4.96,7.59-6.84,1.74,2.11,2.93,3.77,4.47,6-2.19,1.06-9.82,1.4-12.46,1.45Z"/>
  <path class="cls-65" d="M84.62,314.99c1.67-.48,2.29-.36,2.91-2.09,1.42.99,4.14,1.32,5.79,1.11-.22,1.15-.31.63.28,1.62-2.76-.63-6.13-.6-8.98-.64Z"/>
  <path class="cls-50" d="M87.53,312.9c2.34-1.27,4.27-1.18,5.79,1.11-1.65.2-4.37-.12-5.79-1.11Z"/>
  <path class="cls-58" d="M82.07,310.99c.91.45.57.13,1.11.9l-.41.62c-1.5.75-1.89.72-3.55.83-.23-.02-.5-.19-.74-.3l.22-.49c1.28-.87,1.95-1.06,3.38-1.57Z"/>
  <path class="cls-67" d="M63.25,323.1l2.11.65c-.46.98-.11.68-.87,1.14-1.96-.17-2.81-.35-4.73-.81,1.53-.67,1.78-.78,3.48-.98Z"/>
  <path class="cls-12" d="M59.77,324.08c-.75-.08-1.21-.28-1.92-.53l-.04-.38c2.11-.56,3.33-.35,5.44-.07-1.7.2-1.95.31-3.48.98Z"/>
  <path class="cls-36" d="M65.37,323.74c1.05.11,1.91.05,2.64.73-.62.91-2.54.7-3.51.41.75-.46.41-.17.87-1.14Z"/>
  <path class="cls-64" d="M65.2,320.03c3.41-.85,15.09-2.34,18.48-2.37l.21.24c-.59.62-.48.28-.5,1.01-.02,1.06-.28,2.35.43,3.06,1.43,1.44,5.68,1.04,7.84,1.18l1.86-.55.14.32c.57.84.67.84,1.61,1.32l.2.82c-.72.84-.69,1.14-.94,2.26-1.67-.14-1.96-.29-3.47.45l-1.57-.38c-1.53.17-2.65.72-4.02,1.38-1.93-.23-3.88-.18-5.8.14l.3-1.3-2.16.15c-.99-.96-1.17-1-2.53-1.34l.93-.21c.87-1.24.64.09,1.26-2.24-1.68-.36-10.1-1.92-10.9-2.84l-.28-.73-1.11-.37Z"/>
  <path class="cls-50" d="M93.52,322.59l.14.32c.57.84.67.84,1.61,1.32l.2.82c-.72.84-.69,1.14-.94,2.26-1.67-.14-1.96-.29-3.47.45l-1.57-.38c-1.53.17-2.65.72-4.02,1.38-1.93-.23-3.88-.18-5.8.14l.3-1.3,1.99-.28c-.58-.58-.83-2.01-.45-2.76.42-.84.96-.73,1.82-.9,1.65.17,5.44.45,6.84.93,1.11-.45.73-.24,1.48-1.46l1.86-.55Z"/>
  <path class="cls-66" d="M93.52,322.59l.14.32c.57.84.67.84,1.61,1.32l.2.82c-.72.84-.69,1.14-.94,2.26-1.67-.14-1.96-.29-3.47.45l-1.57-.38c.67-.23,1.34-.66,1.97-1.01-1.47-.04-1.57,0-2.45-.87l1.15-.9c1.11-.45.73-.24,1.48-1.46l1.86-.55Z"/>
  <path class="cls-15" d="M93.52,322.59l.14.32c-.24,1.85-.73,2.28-2.19,3.46-1.47-.04-1.57,0-2.45-.87l1.15-.9c1.11-.45.73-.24,1.48-1.46l1.86-.55Z"/>
  <path class="cls-55" d="M81.97,327.33c1.91-.23,5.19-1.2,7.05-1.83.88.88.98.83,2.45.87-.63.36-1.3.78-1.97,1.01-1.53.17-2.65.72-4.02,1.38-1.93-.23-3.88-.18-5.8.14l.3-1.3,1.99-.28Z"/>
  <path class="cls-58" d="M66.58,321.13c6.15-.47,10.6,1.73,16.76,2.54-.85.17-1.4.06-1.82.9-.38.75-.13,2.18.45,2.76l-1.99.28-2.16.15c-.99-.96-1.17-1-2.53-1.34l.93-.21c.87-1.24.64.09,1.26-2.24-1.68-.36-10.1-1.92-10.9-2.84Z"/>
  <path class="cls-65" d="M77.49,323.97c2.12.46,3.27.77,5.31,1.49-1.67.3-4.83.72-6.57.75.87-1.24.64.09,1.26-2.24Z"/>
  <path class="cls-64" d="M93.4,307.11c5.23-.1,10.87.91,14.74,4.63,5.34,5.13-1.48,7.98-4.18,10.68-.56.09-.78.25-1.34-.26-3.68-3.34-2.92-4.32-7.72-6.19l1.43-1.15c.69-2.02.9-3.75.87-5.95-.01-.93.57.49.51-.99-1.19-.38-2.59-.18-4.31-.77Z"/>
  <path class="cls-13" d="M99.57,316.89c-1.19-.46-2.08-1.01-2.26-2.37-.16-1.21.17-2.43.91-3.4,2.15-2.78,4.46-1.95,6.78-.19,5.55,4.09,4.43,6.25-1.21,9.57-1.81-1.34-2.63-2.03-4.23-3.61Z"/>
  <path class="cls-38" d="M99.57,316.89c-1.19-.46-2.08-1.01-2.26-2.37-.16-1.21.17-2.43.91-3.4,2.15-2.78,4.46-1.95,6.78-.19-3.3,2.3-3.02,3.6-5.43,5.96Z"/>
  <path class="cls-50" d="M83.39,318.9c3.41.03,8.72-.56,11.37,1.45l.22.62c.27.97.53,1.13.18,1.78-.56-.04-1.08-.07-1.64-.15l-1.86.55c-2.16-.14-6.41.26-7.84-1.18-.71-.71-.45-2-.43-3.06Z"/>
  <path class="cls-65" d="M83.68,317.66c3.83-1.16,11.46.25,14.11,3.54l-.08.4c-1.12.11-1.68-.11-2.74-.63l-.22-.62c-2.65-2.01-7.96-1.42-11.37-1.45.02-.73-.09-.38.5-1.01l-.21-.24Z"/>
  <path class="cls-48" d="M107.66,126.76l2.72-.13c4.5.19,6.85.39,11.35,1.47-.56,1.08-.74,1.54-1.55,2.46,4.6,2.54,13.45,7.83,12.13,14.18-5.22,1.17-9.69,4.04-12.33,8.79-1.65.76-4.15,2.73-5.44,4.03-3.62.66-10.6,1.29-13.18,4.12-.81.89-1.17,4.11-1.8,5.36-1.56,3.09-11.33,5.75-14.46,6,.15-.61.29-1.22.43-1.83,2.95-13.19,9.07-26.57,16.5-37.91,1.33-2.03,2.95-4.32,5.02-5.63l.62-.9Z"/>
  <path class="cls-50" d="M110.38,126.63c4.5.19,6.85.39,11.35,1.47-.56,1.08.81,1.7,0,2.62-3.33-.7-8.14-1.73-11.6-2.44l.25-1.66Z"/>
  <path class="cls-50" d="M107.66,126.76l2.72-.13-.25,1.66c-1.2-.14-1.97-.16-3.1-.62l.62-.9Z"/>
  <g>
    <path class="cls-18" d="M272.94,243.76c1.9-7.23,15.58-19.05,19.45-26.63,1.43-2.8,2.75-8.55,4.64-10.14,3.97-3.36,10.95-4.42,15.95-4.13,6.81,17.53,3.8,27.3-3.69,45.04-10,23.67-30.42,45.56-53.62,57.32-.08.04-.5.16-.6.2l-.12-.33c-.92-1.34-3.57-3.47-5.04-4.19.18-2.46,1.04-7.6,1.6-10,4.41-4.13,12.07-6.25,17.35-9.32,13.56-7.87-2.83-25.23-.64-29.97.89-1.93,5.16-3.1,7.08-3.81-.55-1.17-1.65-2.88-2.36-4.03Z"/>
    <path class="cls-18" d="M210.82,260.96c1.92,1.71,6.81,8.28,8.17,10.62,1.4,1.44,2.45,2.78,3.7,4.34,1.74,1.61,4.09,4.72,5.64,6.66-1.35.1-3.26-.14-4.65-.27l-.43.51c-1.21-.12-7.41-1.18-7.95-1.14l.27.88c1.55.51,2.4-.98,4.2.62l-1.8.07-.1.18c1.76.76,4.06,1.1,6.22,1.95-1.61.45-6.27-1.35-8.58-1.54l-.13.25c.87.31,5.39,1.89,5.92,2.16l-.31.37c1.54.77,2.36,1.14,3.98,1.71-5.89,3.92-9.3,5.47-16.66,6.03-1.56.12-3.41.34-4.94.07-5.11,7.45-9.35,14.81-7.81,24.17-2.85.28-12.85-.82-15.89-1.25-8.93-1.98-22.02-5.04-29.88-9.8-.45-3.24.26-4.57,3.4-5.91,6.83-2.94,16.08-3.26,22.64-6.49,4.26-2.1,6.42-14.61,8.98-18.71,2.51-4.49,4.6-7.63,7.85-11.82,5.6,2.98,15.53,3.39,18.17-3.66Z"/>
    <path class="cls-18" d="M106.86,227.92c19.33,10.57,27.95,9.43,48.2,2.54l-1.8,15.76c-7.3.09-17.62,2.12-22.8,7.54-4.9,5.13-8.11,14.66-9.96,21.52-.71,2.64-1.35,7.31-2.33,9.61-4.85-4.94-11-10.1-13.62-16.81-3.93-10.09-2.31-30.61,2.32-40.15Z"/>
    <path class="cls-18" d="M81.74,204.04c2.84-.08,5.75.07,8.6.17,1.7,5.84,4,10.78,7.94,15.45.81.96,4.03,4.51,4.51,5.33-1.66,9.68-5.25,18.73-4.81,28.85.04.93.03,2.82-.35,3.66l-.44-.14c-1.21-1.24-2.21-3.47-3-5.09-4.91-10.11-8.83-21.04-10.55-32.17-.57-3.66-.93-7.26-1.35-10.93-.2-1.72-.12-3.47-.55-5.14Z"/>
    <path class="cls-18" d="M211.76,257.86c1.79-6.84,6.31-16.39,11.67-21.01,3.22,4.74,3.35,7.98,4.53,13.45.79,3.66,2.74,7.51,2.76,11.27,0,.24-1.41,3.22-1.62,3.7l.09.45c1.09,5.43,5.37,11.44,2.97,16.32-.15.31-.11.32-.13.71-1.62.62-2.08.47-3.7-.18-1.55-1.94-3.9-5.05-5.64-6.66-1.25-1.56-2.3-2.9-3.7-4.34-1.36-2.34-6.26-8.9-8.17-10.62l.94-3.1Z"/>
  </g>
  <path class="cls-30" d="M211.76,257.86c3.85,4.2,7.98,10.41,11.9,14.93,1.47,1.7,7.56,8.63,8.37,9.97-1.62.62-2.08.47-3.7-.18-1.55-1.94-3.9-5.05-5.64-6.66-1.25-1.56-2.3-2.9-3.7-4.34-1.36-2.34-6.26-8.9-8.17-10.62l.94-3.1Z"/>
  <path class="cls-48" d="M302.56,170.02c4.08-.54,8.61-1.07,12.56-2.12,1.96,7.43,4.76,22.07,3.66,29.54-2.7-1.86-6.57-3.71-9.53-5.39-.71-2.06-5.12-7.37-7.02-8.45.11-.29.23-11.85.34-13.58Z"/>
  <path class="cls-48" d="M111.48,308.9c3.78,1.06,7.78,2.01,11.44,3.35,3.48,1.27,11.13,3.49,8.25,8.5l.5,1.59c-3.73,2.04-5.29,2.65-9.52,3.86l-.97-1.01c-2.57-.23-4.29.11-7.46-.34-1.47-.01-1.74-.05-3.05.57-.98-.74-1.12-.95-2.28-1.14,4.38-1.86,6.1-6.12,5.85-10.6-.59-1.73-1.75-3.26-2.78-4.78Z"/>
  <path class="cls-5" d="M114.26,313.68c1.66.41,4.03,1.76,5.46,2.71-2.02,3.21-7.42,5.61-7.31,7.21.5.63.61.84,1.32,1.26-1.47-.01-1.74-.05-3.05.57-.98-.74-1.12-.95-2.28-1.14,4.38-1.86,6.1-6.12,5.85-10.6Z"/>
  <path class="cls-47" d="M121.2,325.19c3.56-.94,7.15-1.95,9.98-4.44l.5,1.59c-3.73,2.04-5.29,2.65-9.52,3.86l-.97-1.01Z"/>
  <path class="cls-67" d="M143.08,324.2c1.43,1.8,1.45,3.82-.55,5.21-4.8,3.34-11.52,3.11-16.69.75.14-.02.29-.04.43-.07,5.04-1.94,8.3.4,14.16-1.96.94-1.57,1.5-2.51,2.64-3.93Z"/>
  <path class="cls-67" d="M227.08,286.21c.7-.76.76-.74,1.79-.99,2.25,1.24,2.47,1.33,4.74,2.18,3.17,1.2,9.38-.23,10.67,2.19-.56,2.03-2.99,1.61-4.61,1.06-4.16-1.42-8.63-2.58-12.6-4.45Z"/>
  <path class="cls-28" d="M249.91,300.89c1.47.72,4.12,2.85,5.04,4.19l.12.33c-2.29,1.44-4.04,2.27-6.54,3.28-.17-1.24.98-5.84,1.31-7.32l.08-.48Z"/>
  <path class="cls-10" d="M249.91,300.89c1.47.72,4.12,2.85,5.04,4.19-1.92.6-4.68-1.87-5.11-3.71l.08-.48Z"/>
  <path class="cls-38" d="M143.37,143.63c2.24-1.57,3.14-2.26,5.62-3.3.43,1.25,1.16,3.16,1.47,4.38-2.24-.14-5.2-.06-7.08-1.09Z"/>
  <path class="cls-66" d="M34.52,362.18c-.1,1.64-.06,1.15-1.21,2.64l.23.19c.88-.43,1.15-.58,1.95-1.14l1.01-.07c-3.84,2.9-3.89,3.73-6.77,7.02l-1.05-.09c1.83-2.94,3.62-5.91,5.85-8.55Z"/>
  <path class="cls-56" d="M74.76,330.83c1.25-.16,2.2-.54,3,.06l-4.89,3.43c-.6-.35-2.47-.7-3.25-.88,1.85-.79,3.38-1.65,5.14-2.61Z"/>
  <path class="cls-20" d="M219.76,283.18c1.89.81,6.99,1.26,9.11,2.04-1.04.24-1.1.23-1.79.99-.99-.23-2.02-.54-3-.82-2.16-.85-4.46-1.19-6.22-1.95l.1-.18,1.8-.07Z"/>
  <path class="cls-28" d="M262.12,28.12c.49.12,5,1.36,4.97,1.36-.99.45-1.36.5-1.89,1.38.04,1.51,1.42,1.63,2.02,3.68-1.5-1.12-4.73-4.49-5.09-6.42Z"/>
  <path class="cls-5" d="M123.05,367.32c.42.95,1,2.4,1.53,3.25-.73.55-1.61,1.18-2.26,1.81l-1.92-.45c.77-1.04,1.17-1.95,1.74-3.1.57-.67.56-.73.9-1.5Z"/>
  <path class="cls-51" d="M114.54,157.56c1.29-1.31,3.79-3.27,5.44-4.03-1.11,4.04-1.21,3.95-5.44,4.03Z"/>
  <path class="cls-66" d="M24.61,377.97c.55.85.21.7.91.86-.15,1.51-.2,2.52-.21,4.05l-1.13.3c-.17-2.26.01-3,.43-5.2Z"/>
  <path class="cls-2" d="M79.43,328.9l.3.55c-.79.76-1.01.87-1.96,1.45-.8-.61-1.75-.22-3-.06,1.66-1.12,2.75-1.57,4.67-1.93Z"/>
  <path class="cls-62" d="M273.92,71.95c2.29-1.28,5.52-3.14,8.04-1.73l1.16-.29c8.74,1.16,12.95,3.35,18.76,10.57,3.12,3.87,7.94,13.6,7.93,18.43l-.42,1.76c15.18,5.09,13.7,9.02,22.38,20.72-3.45.47-4.52.39-7.88.46l.41.4c-.96.41-4.19.24-5.28.1-5.05.5-8.83,2.87-12.42,6.38-.74,1.58-2.65,4.34-3.66,5.9-15.51-3.92-17.81-11.71-25.18-23.38-6.05-2.68-9.4-2.43-13.86-8.45l-1.5-.08c1.56,2.77,2.51,4.5,4.96,6.68,5.19,4.62,8.13,3.33,9.33,10.82,1.8.72,4.35,5.08,5.57,6.94,3.15,2.85,9.23,6.5,11.33,9.18.38,2.46.45,3.81.33,6.32-2.57,2.35-5.08,4.22-8.76,4.21l.14,1.15,1.09.55c.3,1.32-1.34,1.96-2.45,2.38-1.51-.79-5.52-1.93-7.45-2.65-.77-.19-1.51-.61-2.23-.97-1.62.41-3.67,1.18-5.21,1.84-.28,1.83-.87,4.17-.22,5.83l-1.73-.32-.74-.32c-1.56-.42-5.32-2.28-7.09-2.97-2.85-1.11-4.92-1.65-7.86-2.44-1.12-.02-2.96-.43-4.12-.65-1.98-.12-2.54-.16-4.43-.68-2.07-.34-4.15-.66-6.23-.95-.33-1.73-.58-3.23-.8-4.97-.73-.76-1.42-1.56-2.11-2.35.22-.44,4.2-4.12,5.18-5.28l1.59-2.9c.46-.61,1-1.46,1.44-2.11l.91-.73.11-.37c.34-.33.8-.87,1.13-1.24,1.03.47,1.59.72,2.68,1.03,2.02.61,4.38.73,5.95,1.32,1.03.23,1.28.28,2.33.32l.4-.38c-.43-.83-1.47-3.99-1.84-5,.39-1.47.63-1.43,1.76-2.11-.02-1.3-1.81-7.38-2.22-9.15.25-2.17,0-4.35-.17-6.53.28-.57.55-1.15.82-1.73.06-3.3.41-7.27.19-10.56-.06-.92-.94-1.28-1.65-1.73-.55-.48-.95-1.13-1.38-1.73.67-.79.77-.86,1.17-1.8.65-.94.88-1.12,1.75-1.87,2.73-1.68,3.72-2.43,5.79-4.85.57-.95.8-1.51,1.7-2.15,1.33-.15.86-.15,2.23.56.8-.91,2.06-1.98,2.98-2.82l2.56,1.61c.37-2.13.63-3.21,1.27-5.27.12-1.23.07-2.66,1.14-3.35,2.15.68.19.58,2.35,1.4Z"/>
  <path class="cls-37" d="M244.12,126.74c1.03.47,1.59.72,2.68,1.03,2.02.61,4.38.73,5.95,1.32,1.03.23,1.28.28,2.33.32l.4-.38c.85.68,1.95,2.98,2.54,4.07.85.97,1.54,2.08,2.26,3.15-.13.14-.59.61-.68.75l-.24.85c.2,2.99-.4,6.77-3.18,8.5-1.84,1.63-2.81,1.31-4.72,2.62-1.12-.02-2.96-.43-4.12-.65-1.98-.12-2.54-.16-4.43-.68-2.07-.34-4.15-.66-6.23-.95-.33-1.73-.58-3.23-.8-4.97-.73-.76-1.42-1.56-2.11-2.35.22-.44,4.2-4.12,5.18-5.28l1.59-2.9c.46-.61,1-1.46,1.44-2.11l.91-.73.11-.37c.34-.33.8-.87,1.13-1.24Z"/>
  <path class="cls-14" d="M244.12,126.74c1.03.47,1.59.72,2.68,1.03,2.02.61,4.38.73,5.95,1.32,1.03.23,1.28.28,2.33.32l.4-.38c.85.68,1.95,2.98,2.54,4.07.85.97,1.54,2.08,2.26,3.15-.13.14-.59.61-.68.75l-.24.85c-1.02,0-2.32-.15-3.17.32l-.31.43-1.28-.36c-.55.49-.36.19-.53.95-1.15.25-1.52.25-2.72.29-.92.17-1.79.23-2.54.78l-.71-.77c-.63.48-1.13.78-1.57,1.43l-.04-.3-.84-1.12-.55.1c-.33-.44-.27-.37-.66-.73l-.05,1.12-.38.04c-1.75-.94-2.16-.08-2.46-1.9-.25-.81-.03-.49-.59-1.03l-1.26.2-.88-1.38c.46-.56.31-.34.54-1.07l-.42-.77,1.59-2.9c.46-.61,1-1.46,1.44-2.11l.91-.73.11-.37c.34-.33.8-.87,1.13-1.24Z"/>
  <path class="cls-36" d="M244.12,126.74c1.03.47,1.59.72,2.68,1.03,2.02.61,4.38.73,5.95,1.32,1.03.23,1.28.28,2.33.32l.4-.38c.85.68,1.95,2.98,2.54,4.07.85.97,1.54,2.08,2.26,3.15-.13.14-.59.61-.68.75-.5-1.27-.98-2.64-2.41-2.84-.55.38-.7.47-1.15.98l-.3.35c-.99-.08-.57.1-1.29-.62-.97.5-1.2.13-2.14-.27-.53-1.09-.46-.54-.26-1.69-1.23-.37-1.41-.7-2.31-1.64.06-.51.03-.3-.22-.88-2.08-1.99-4.05.33-5.69.74-.49-.66-.79-.69-1.53-.93l-.32-1.13.91-.73.11-.37c.34-.33.8-.87,1.13-1.24Z"/>
  <path class="cls-50" d="M255.47,129.03c.85.68,1.95,2.98,2.54,4.07l-.44.16c-.15-.06-4.43-3.75-4.83-4.17,1.03.23,0-2.35,2.33.32l.4-.38Z"/>
  <path class="cls-67" d="M244.12,126.74c1.03.47,1.59.72,2.68,1.03-1.15.6-2.13,1.24-3.4,1.33-.48-.4-.33-.14-.52-.74l.11-.37c.34-.33.8-.87,1.13-1.24Z"/>
  <path class="cls-1" d="M252.03,132.92c1.22.75,1.47.88,2.39,1.95-.97.5-1.2.13-2.14-.27-.53-1.09-.46-.54-.26-1.69Z"/>
  <path class="cls-58" d="M243.81,131.14c1.64-.41,3.61-2.73,5.69-.74.25.58.28.37.22.88-.19.62-.48,1.35-.49,1.98-.65.11-1.07.22-1.73.12-.2-1.2.04-.86-.77-1.49-1.99,0-4.02,2.19-5.06,3.75l-.28.45-.37-.14c-.23-2.27,1.05-3.59,2.79-4.8Z"/>
  <path class="cls-59" d="M241.67,135.63c1.04-1.56,3.08-3.76,5.06-3.75.81.63.57.29.77,1.49-.19.61-.24.66-.31,1.28-.74,1.98-3.12,2.08-5.02,2.02-.57-.55-.39-.22-.51-1.05Z"/>
  <path class="cls-59" d="M249.72,131.28c.9.94,1.09,1.28,2.31,1.64-.21,1.15-.27.6.26,1.69l-1.16.82c-.4-.28-.78-.51-1.23-.7-1.23.23-1.46.17-2.71-.06.06-.63.12-.67.31-1.28.66.09,1.08-.02,1.73-.12.01-.63.29-1.36.49-1.98Z"/>
  <path class="cls-66" d="M245.64,139.5c.62-1.64,1.31-2.85,3.38-2.21l.14.52c-.5.75-.53.76-1.15,1.33l.09.34c-.63.48-1.13.78-1.57,1.43l-.04-.3-.84-1.12Z"/>
  <path class="cls-34" d="M238.81,135.92l.88,1.38,1.26-.2c.56.54.34.22.59,1.03-.19,1.77-.23,1.89-1.23,3.27-.64.79-.26.53-1.14.89l-1.06-.71c-.93-1.89-.73-4.09.71-5.66Z"/>
  <path class="cls-66" d="M239.69,137.31l1.26-.2c.56.54.34.22.59,1.03-.19,1.77-.23,1.89-1.23,3.27-1.04-1.75-1.34-2.12-.62-4.1Z"/>
  <path class="cls-10" d="M241.53,138.13c.3,1.83.71.97,2.46,1.9l.38-.04.05-1.12c.39.36.33.29.66.73l.55-.1.84,1.12c-.42.05-1.56.05-2.04.06,1.22.72.83.31,1.46,1.58-.13,1.26.07.85-.64,1.81.85.72,1.52,1.51,2.56,1.56-.74.94-.52,1.21-.5,2.69-1.98-.12-2.54-.16-4.43-.68.16-.48.19-.87.26-1.37-.69-.5-1.27-1.14-1.87-1.75-.77-.57-.9-1.53-2.13-2.22.88-.36.5-.1,1.14-.89,1-1.38,1.04-1.5,1.23-3.27Z"/>
  <path class="cls-54" d="M245.26,144.06c-1.2-.87-2-1.45-2.16-2.99l.38-.42.96.02c1.22.72.83.31,1.46,1.58-.13,1.26.07.85-.64,1.81Z"/>
  <path class="cls-37" d="M241.29,144.52c1-.32,1.03-.31,2.06,0l.53.49c-.13.99.08.57-.72,1.25-.69-.5-1.27-1.14-1.87-1.75Z"/>
  <path class="cls-10" d="M255.87,138.6l.31-.43c.85-.47,2.14-.33,3.17-.32.2,2.99-.4,6.77-3.18,8.5-.81.05-2.3.55-2.82,1.17-.94.12-.53.22-1.28-.24.32-.92,1.72-.34,2.75-1.52.85-.93,1.61-1.46,1.86-2.55-.59-.47-.25-.29-1.12-.39.37-1.88.5-2.32.32-4.22Z"/>
  <path class="cls-28" d="M254.07,139.19c.17-.76-.02-.47.53-.95l1.28.36c.18,1.9.05,2.34-.32,4.22l-1.57,1.55-.96-1.2c.14-.15.27-.3.4-.46,1.04-1.26.81-1.9.64-3.52Z"/>
  <path class="cls-70" d="M251.35,139.48c1.2-.04,1.57-.04,2.72-.29.17,1.62.4,2.27-.64,3.52-.13.16-.27.31-.4.46-.38-.58-1.07-.85-1.72-1.19l.04-2.5Z"/>
  <path class="cls-28" d="M244.45,140.68c.48-.01,1.62,0,2.04-.06l.04.3c-.9,3.97,2.06,2.17,1.3,4.71-1.04-.05-1.71-.84-2.56-1.56.71-.96.51-.55.64-1.81-.63-1.27-.24-.86-1.46-1.58Z"/>
  <path class="cls-3" d="M248.81,140.25c.75-.55,1.62-.61,2.54-.78l-.04,2.5c-1.38-.55-1.51-.53-2.5-1.73Z"/>
  <path class="cls-28" d="M248.78,144.13l-.49-.86.26-.41c1.78.02,3.31.85,4.48,2.14-2.21.69-2.96,1.16-4.25-.86Z"/>
  <path class="cls-17" d="M253.82,104.51c.81,8.92,1.41,15.17,5.75,23.35,4.36,8.21,8.3,11,16.13,15.28.52.35,1.02.75,1.62.9l7.69,2.65.17.2.14,1.15,1.09.55c.3,1.32-1.34,1.96-2.45,2.38-1.51-.79-5.52-1.93-7.45-2.65-.77-.19-1.51-.61-2.23-.97-1.62.41-3.67,1.18-5.21,1.84-.28,1.83-.87,4.17-.22,5.83l-1.73-.32-.74-.32c-1.56-.42-5.32-2.28-7.09-2.97-2.85-1.11-4.92-1.65-7.86-2.44,1.91-1.31,2.89-.99,4.72-2.62,2.78-1.73,3.38-5.51,3.18-8.5l.24-.85c.09-.14.55-.61.68-.75-.72-1.08-1.41-2.18-2.26-3.15-.59-1.08-1.69-3.38-2.54-4.07-.43-.83-1.47-3.99-1.84-5,.39-1.47.63-1.43,1.76-2.11-.02-1.3-1.81-7.38-2.22-9.15.25-2.17,0-4.35-.17-6.53.28-.57.55-1.15.82-1.73Z"/>
  <path class="cls-50" d="M273.04,151.11c-.28,1.83-4.83,2.24-4.18,3.89l-1.73-.32-.74-.32c-1.56-.42-5.32-2.28-7.09-2.97-2.85-1.11-4.92-1.65-7.86-2.44,1.91-1.31,2.89-.99,4.72-2.62,2.78-1.72,3.38-5.51,3.18-8.49l.24-.85c.08-.14.55-.61.68-.75,2.84,3.39,5.25,5.6,8.96,8.09.83.56,4.77,2.65,5.07,3-1.62.41.29,3.11-1.26,3.77Z"/>
  <path class="cls-38" d="M253.63,124.03c.39-1.47.63-1.43,1.76-2.11,3.86,8.97,6.64,13.75,14.83,19.95,1.46,1.1,5.76,2.97,7.01,4,.45.97,1,1.32,1.8,2l-.05.25c-1.09.23-1.35.23-2.46.2-.77-.19-1.51-.61-2.23-.97-.3-.35-4.24-2.44-5.07-3-3.72-2.49-6.12-4.7-8.97-8.09-.72-1.08-1.41-2.18-2.26-3.15-.59-1.08-1.69-3.38-2.54-4.07-.43-.83-1.47-3.99-1.84-5Z"/>
  <path class="cls-59" d="M277.24,145.86c3.11.53,5.1,1.09,8.08,2.17l1.09.55c.3,1.32-1.34,1.96-2.45,2.38-1.51-.79-5.52-1.93-7.45-2.65,1.11.03,1.38.03,2.46-.2l.05-.25c-.8-.68-1.35-1.03-1.8-2Z"/>
  <path class="cls-63" d="M264.15,102.03c2.01.68,3.02,1.99,4.76,2.79,4.04,1.85,8.65,2.37,13.03,2.83,2.23,5.87,5.42,10.42,10.49,14.24,3.58,2.71,9.68,7.05,14.18,6.86-.74,1.58-2.65,4.34-3.66,5.9-15.51-3.92-17.81-11.71-25.18-23.38-6.05-2.68-9.4-2.43-13.86-8.45l.24-.79Z"/>
  <path class="cls-68" d="M282.27,127.17c3.15,2.85,9.23,6.5,11.33,9.18.38,2.46.45,3.81.33,6.32-2.57,2.35-5.08,4.22-8.76,4.21l-.17-.2-7.69-2.65c.78-2.82,2.2-14.52,3.9-15.54l.64.45c.4-.64.36-1.03.41-1.78Z"/>
  <path class="cls-62" d="M277.32,144.04c.78-2.82,2.2-14.52,3.9-15.54l.64.45c3.33,4.34,3.3,11.47,3.55,16.98-.11.22-.27.58-.4.76l-7.69-2.65Z"/>
  <path class="cls-43" d="M276.7,120.23c1.8.72,4.35,5.08,5.57,6.94-.06.75-.02,1.14-.41,1.78l-.64-.45c-1.7,1.02-3.12,12.72-3.9,15.54-.6-.15-1.1-.55-1.62-.9,3.77-6.6.66-16.39,1-22.91Z"/>
  <path class="cls-68" d="M259.69,81.96c.57-.95.8-1.51,1.7-2.15,1.33-.15.86-.15,2.23.56l-1.27,1.82c-2.66,3.94-4.49,4.9-6.87,7.97-.4-.87-1.12-2.59-1.58-3.35,2.73-1.68,3.72-2.43,5.79-4.85Z"/>
  <path class="cls-40" d="M259.69,81.96c.57-.95.8-1.51,1.7-2.15,1.33-.15.86-.15,2.23.56l-1.27,1.82c-.87.27-1.73-.03-2.65-.23Z"/>
  <path class="cls-15" d="M319.03,122.38l.19-.46c-2.27-2.63-4.45-5.45-7.04-7.73-1.69-1.49-4.94-3.11-6.29-4.58l.41-.06c6.74,2.86,10.44,6.16,14.77,12,.36.49,2.2.34,2.84.33l.41.4c-.96.41-4.19.24-5.28.1Z"/>
  <path class="cls-31" d="M300.62,99.04c3.06-.23,6.12-.14,9.19-.1l-.42,1.76c-2.29-.69-6.11-1.08-8.77-1.66Z"/>
  <path class="cls-61" d="M270.42,73.9c.12-1.23.07-2.66,1.14-3.35,2.15.68.19.58,2.35,1.4-1.36.91-2.03,1.25-3.49,1.95Z"/>
  <path class="cls-40" d="M260.86,98.11c1.2,1.62,1.85,2.53,3.28,3.92l-.24.79-1.5-.08c-.51-1.1-1.16-3.38-1.55-4.63Z"/>
  <path class="cls-21" d="M281.96,70.22l1.16-.29c.28,1.79.6,3.56.63,5.37-.73-1.67-1.43-3.28-1.79-5.08Z"/>
  <path class="cls-50" d="M167.01,220.27c1.44-2.12,4.14-6.12,5.07-8.3,3.11-7.3,3.95-10.96,10.7-16,7.59-5.68,17.59-13.03,27.64-11.92,7.14.79,15.51,6.96,20.5,11.96,1.87,1.87,5.81,7.12,7.58,9.35,5.32,5,8.3,6,15.09,8.11,2.84.66,7.23,1.73,10.11,1.83,12.37.66,15.74-2.11,26.91-4.36-.63,2.83-.82,3.95-2.42,6.36-.68.86-4.21,5.5-4.85,5.92-5.99,7.45-9.2,11.35-14.35,19.19,2.57,4.88-1.7,4.76-5.18,5.4-5.81,1.08-12.06,1.44-17.92.54-3-.47-6.84-2.53-9.67-3.76l-.64.1c-1.4-.66-1.93-.97-3.11-1.98l-.23.36v-.03s1.5,1.14,1.5,1.14l-.4.34c-3.24.5-4.86-4.86-5.21-7.37-.74-2.97-.43-2.8.59-5.7,1.22-4.96,1.59-7.32,2.45-12.22-.99-.07-1.9.25-2.92.45-.69-.71-.82-2.05-1.1-3.17l-.14-.36c-1.9,1.03-.86,2.83-1.3,4.7-.31,1.97-.41,2.97-1.86,4.42l-.17.17.69,2.33c-5.84,7.14-8.21,10.53-12.97,18.28-.55,2.32-1.39,4.57-2.5,6.68-6.06-12.23-12.68-21.77-26.19-26.88-2.89-1.09-6.05-1.77-9.05-2.53l.09-.32c.38-1.37.82-2.23.21-3.31-2.32.15-4.64.34-6.95.58Z"/>
  <path class="cls-58" d="M167.01,220.27c1.44-2.12,4.14-6.12,5.07-8.3,3.11-7.3,3.95-10.96,10.7-16,7.59-5.68,17.59-13.03,27.64-11.92,7.14.79,15.51,6.96,20.5,11.96,1.87,1.87,5.81,7.12,7.58,9.35-.79-.23-1.52-.28-2.34-.38-.08-.05-.16-.1-.24-.15-3.2-2.12-5.85-5.01-8.88-7.35-4.58-3.52-15-9.86-20.96-8.7-7.05,1.37-24.16,18.15-28.09,24.15-1.04,1.59-2.49,3.88-2.72,5.75.36.54.12.4.63.58-.31.1-2.02.48-1.94.44-2.32.15-4.64.34-6.95.58Z"/>
  <path class="cls-60" d="M281.05,221.22l.37-.14c.38-.14.6-.24.96-.4l.93.46-1,1.17,1.04.9c-5.99,7.45-9.2,11.35-14.35,19.19,2.57,4.88-1.7,4.76-5.18,5.4-5.81,1.08-12.06,1.44-17.92.54-3-.47-6.84-2.53-9.67-3.76l-.64.1c-1.4-.66-1.93-.97-3.11-1.98l-.23.36v-.03s1.5,1.14,1.5,1.14l-.4.34c-3.24.5-4.86-4.86-5.21-7.37-.74-2.97-.43-2.8.59-5.7.25,1.26,4.01,4.53,5.2,5.55,8.23,7.07,18.76,7.54,29.1,6.61,4.58-13.78,8.49-12.75,18.03-22.39Z"/>
  <path class="cls-67" d="M282.3,222.32l1.04.9c-5.99,7.45-9.2,11.35-14.35,19.19-1.27.16-1,.32-1.93-.18-1.56-4.18,12.14-16.65,15.24-19.92Z"/>
  <path class="cls-17" d="M228.12,237.15c2.01,3.07,2.73,3.64,5.82,5.83.45.32,2.02,1.26,2.27,1.61l-.64.1c-1.4-.66-1.93-.97-3.11-1.98l-.23.36v-.03s1.5,1.14,1.5,1.14l-.4.34c-3.24.5-4.86-4.86-5.21-7.37Z"/>
  <path class="cls-38" d="M175.91,219.25c3.32-.3,11.47,3,14.89,4.14,8.33,2.77,14.15,9.74,17.86,17.42.71,1.44,1.75,4.06,2.75,5.23-.55,2.32-1.39,4.57-2.5,6.68-6.06-12.23-12.68-21.77-26.19-26.88-2.89-1.09-6.05-1.77-9.05-2.53l.09-.32c.38-1.37.82-2.23.21-3.31-.09.04,1.63-.34,1.94-.44Z"/>
  <path class="cls-19" d="M263.71,215.3c12.37.66,15.74-2.11,26.91-4.36-.63,2.83-.82,3.95-2.42,6.36-.68.86-4.21,5.5-4.85,5.92l-1.04-.9,1-1.17-.93-.46c-.36.17-.59.26-.96.4l-.37.14c1.28-1.86,2.56-3.72,3.82-5.6-.18-.16-.37-.31-.55-.47-4.95.17-11.09,2.58-16.03,1.57-.68-.14-3.81-1.19-4.58-1.43Z"/>
  <path class="cls-7" d="M284.87,215.63c.93-.71,1.76-1.49,2.87-1.7l.24.45c-.28.81-.4,1.18-.79,1.94l1.01.98c-.68.86-4.21,5.5-4.85,5.92l-1.04-.9,1-1.17-.93-.46c-.36.17-.59.26-.96.4l-.37.14c1.28-1.86,2.56-3.72,3.82-5.6Z"/>
  <path class="cls-52" d="M287.19,216.32l1.01.98c-.68.86-4.21,5.5-4.85,5.92l-1.04-.9,1-1.17c1.22-1.1,2.84-3.44,3.88-4.83Z"/>
  <g>
    <path class="cls-11" d="M210.86,197.75c6.33,2.47,13.66,9.44,15.65,16.07l.5,2.33c-1.9,1.03-.86,2.83-1.3,4.7-.19-2.26-1.15-3.61-1.74-5.63-2.57-8.73-6.41-11.93-13.11-17.47Z"/>
    <path class="cls-41" d="M224.27,199.32c2.59,3.89,7.95,15.24,6.9,19.91-.99-.07-1.9.25-2.92.45-.69-.71-.82-2.05-1.1-3.17l-.14-.36-.5-2.33c1.46-.3,1.29-.66,1.66-1.93-1.15-4.67-2.53-8.08-3.9-12.57Z"/>
    <path class="cls-67" d="M228.16,211.89c.25,1.39.79,3.14.18,4.33-.6.26-.56.27-1.2.28l-.14-.36-.5-2.33c1.46-.3,1.29-.66,1.66-1.93Z"/>
    <path class="cls-58" d="M236.17,204.98c.82.09,1.54.14,2.34.38,5.32,5,8.3,6,15.09,8.11-2.16-.09-2.66.54-5.35.09-6.51-1.08-8.49-3.5-12.08-8.57Z"/>
    <path class="cls-32" d="M198.8,202.9l.31.09c6.04,1.79,13.12,6.26,17.65,10.52,1.69,1.59,3.12,3.29,4.81,4.77l.24.21-.84,1.18c-6.13-9.62-14.3-10.71-22.16-16.77Z"/>
    <path class="cls-36" d="M221.8,218.49c.98.82,2.2,1.86,3.23,2.56l.69-.2c-.31,1.97-.41,2.97-1.86,4.42l-.17.17-.39-1.02c-.46-1.25-1.68-3.48-2.33-4.75l.84-1.18Z"/>
    <path class="cls-58" d="M225.03,221.05l.69-.2c-.31,1.97-.41,2.97-1.86,4.42l-.17.17-.39-1.02c.32-2.05.23-1.98,1.74-3.37Z"/>
    <path class="cls-32" d="M244.18,218.05c3.98-.17,8.35-.03,12.17,1.17-8.63.16-10.31-1.09-18.75,1.32,3.86.94,7.06.66,10.83,2.56v.3s-1.03-.13-1.03-.13c-2.67-.5-7.03-1.66-9.48-1.83-.63.85.07,2.21-.51,3.8l-.54.04c-.81-1.08,0-2.34-.81-3.8-1.08-.21-2.21.86-3.86,1.31l-.04-.46c1.55-1.58,9.61-3.83,12.03-4.29Z"/>
  </g>
  <path class="cls-62" d="M163.74,226.24c11.94-.5,18.05.73,28.23,7.55,6.22,4.17,12.13,10.58,13.48,18.18-1.39.03-3.64-.13-4.58.72-10.11,9.02-15.12,9.79-20.96,24.25-1.13,2.8-3.89,10.27-5.21,12.59-3.75,4.89-10.76,4.32-16.34,6-4.61,1.39-9.11,4.02-13.56,5.33l-3.01-.76c-1.74-1.18-5.25-5.21-6.7-6.91l-.17.53c-.67.2-.35.12-1.2-.16l-.13-.42c-.95-.82-4.63-2.34-5.94-2.94-1.6-.24-3.65-.83-5.54-1.14,1.64-9.61,4.82-24.36,11.39-32.06,4.95-5.8,16.79-6.04,24.13-6.3.52-6.16.92-16.09,3.62-21.68.41-.86,1.74-2.07,2.49-2.76Z"/>
  <path class="cls-63" d="M163.74,226.24c11.94-.5,18.05.73,28.23,7.55,6.22,4.17,12.13,10.58,13.48,18.18-1.39.03-3.64-.13-4.58.72-1.08-6.34-7.07-13.8-12.23-17.42-6.56-4.61-14.25-5.95-22.18-5.19-1.3,4.58-3.25,8.83-4.06,13.53-.32,1.82.97,5.09.89,6.98-1.1,1.85-2.01,3.17-2.84,5.31,2.03,1.13,5.28,2.8,7.04,4.17,2.86,1.57,4.42,3.23,5.69,6.27l.64.68,1.01,1.28c-6.39,3.16-8.22,4.79-13.87,8.34-5.34.04-9.61.1-14.89.81,5.3-5.41,8.51-13.56,10.82-20.73-9.18.12-15.8,3.07-22.79,9.38-4.15,3.75-6.07,18.38-6.45,24.1-1.6-.24-3.65-.83-5.54-1.14,1.64-9.61,4.82-24.36,11.39-32.06,4.95-5.8,16.79-6.04,24.13-6.3.52-6.16.92-16.09,3.62-21.68.41-.86,1.74-2.07,2.49-2.76Z"/>
  <path class="cls-40" d="M167.49,260.05c2.86,1.57,4.42,3.23,5.69,6.27-1.79-.98-5.36-4.2-5.69-6.27Z"/>
  <path class="cls-63" d="M141.8,300.09c3.15-5.64,3.79-1.91,6.65-3.38,5.92-3.06,19.58-8.86,26.26-7.19-3.75,4.89-10.76,4.32-16.34,6-4.61,1.39-9.11,4.02-13.56,5.33l-3.01-.76Z"/>
  <path class="cls-61" d="M173.82,267c2.57-.95,6.74-2.59,9.29-3.25-3.01,2.43-4.77,3.09-8.28,4.53l-1.01-1.28Z"/>
  <path class="cls-21" d="M138.51,283.66c-.78,3.31-2.46,6.21-3.41,9.52l-.17.53c-.67.2-.35.12-1.2-.16l-.13-.42c.57-.42,3.77-7.76,4.91-9.46Z"/>
  <g>
    <path class="cls-27" d="M134.3,159.4l.34.09c3.16.84,7.08.99,9.95,1.66,3.32.78,12.88,4.94,14.79,7.72l.1.78c-.72.79-1.17.81-2.33,1.08,1.21.34,1.44.16,1.96.94l-.46.76c1.88-.31,3.04-.44,4.94-.56,2.4,3.46,5.08,7.12,6.7,10.99-1.17,2.62-3.17,7.95-4.47,9.96-7.67,11.85-19.59,22.32-32.95,27.2-5.37,1.96-17.9,5.91-23.53,3.69-1.33-.52-4.7-3.43-5.88-3.88l-.67-.06c-.76-.86-.71-1.26-.91-2.45l-.56-.14c-9.68-11.39-9.24-27.66-2.49-40.37.17,2.08.4,4.17.68,6.24,2.42.05,5.39.24,7.73-.23,4.66-.94,3.84-12.21,8.04-13.08,1.13-.37,1.94-.81,3.02-.46.92.79,1.17,2.18,1.56,3.41,3.73.03,6.25.06,9.86-1.27,1.33-2.7,3.86-9.06,4.56-12.02Z"/>
    <path class="cls-27" d="M134.3,159.4l.34.09c3.16.84,7.08.99,9.95,1.66,3.32.78,12.88,4.94,14.79,7.72l.1.78c-.72.79-1.17.81-2.33,1.08-15.01,3.97-22.23,7-34.32,16.75-7.96,7.62-13.87,13.93-18.42,24.25-.74,1.69-1.98,3.89-2.54,5.59l-.56-.14c-9.68-11.39-9.24-27.66-2.49-40.37.17,2.08.4,4.17.68,6.24,2.42.05,5.39.24,7.73-.23,4.66-.94,3.84-12.21,8.04-13.08,1.13-.37,1.94-.81,3.02-.46.92.79,1.17,2.18,1.56,3.41,3.73.03,6.25.06,9.86-1.27,1.33-2.7,3.86-9.06,4.56-12.02Z"/>
    <path class="cls-53" d="M134.3,159.4l.34.09c3.16.84,7.08.99,9.95,1.66,3.32.78,12.88,4.94,14.79,7.72l.1.78c-.72.79-1.17.81-2.33,1.08-15.01,3.97-22.23,7-34.32,16.75-.24-.34-.16-.26-.25-.7,5.21-4.54,9.25-6.91,15.23-10.28l-.02-.26c-1.28-1.2-1.41-6.84-1.92-8.81-.41-1.58,2.01-6.32-.4-7.22-1.5,1.39-4.05,9.03-5.27,11.7-2.14.65-6.02,1.53-8.27,1.49-2.04-.03-2.92-1.83-4.17-3.34-1.04-.41-1.32-.34-2.47-.33,1.13-.37,1.94-.81,3.02-.46.92.79,1.17,2.18,1.56,3.41,3.73.03,6.25.06,9.86-1.27,1.33-2.7,3.86-9.06,4.56-12.02Z"/>
    <path class="cls-15" d="M122.84,187.48c12.09-9.76,19.3-12.78,34.32-16.75,1.21.34,1.44.16,1.96.94l-.46.76c-6.17,1.2-18.76,5.7-24.1,8.93-6.49,3.92-17.91,13.32-21.86,19.72-3.58,5.79-7.47,12.25-9.23,18.75l-.67-.06c-.76-.86-.71-1.26-.91-2.45.56-1.7,1.79-3.9,2.54-5.59,4.56-10.31,10.47-16.63,18.42-24.25Z"/>
  </g>
  <path class="cls-50" d="M218.01,152.73c3.54,3.42,9.84,3.03,15.01,4.04-1.52,1.69-5.34,4.79-7.26,6.15,2.13,2.78,3.1,3.26,6.14,5.16,3.71-1.17,7.35-2.54,10.91-4.1-.78,2.85-3.36,6.69-3.2,7.98,3.71,1.42,3.77,4,7.56,3.06l.34-.29c.51-.44,1-.8,1.54-1.19,3.36-1.66,5.47-3.91,9.17-4.95l4.7,1.26c-1.63,1.09-4.67,2.94-6.06,4.04.28,1.59.35,2.59,1.16,3.99,1.28,1.31,3.17,3.4,4.81,4.06,4.79-.97,8-2.37,12.52-3.79,3.18-1,7.59.84,11.12-1.55,2.14-1.45,3.23-4.74,4.45-5.46,1.09-.08,2.26-.56,3.7-.66,1.37.07,1.53-.16,2.43.59,1.12,2.5.73,6.22.97,9.24.03,3.37-.44,9.86,2.18,12.36l-.24,1.49c.36,2.06.4,3.86,1.99,5.22-.95.93-1.44,1.03-2.69,1.47-6.4,3.02-12.11,7.44-18.97,9.36-9.23,2.59-18.66.98-27.68-1.58-2.72-.77-6.33-1.57-8.54-3.46-2.43-2.07-4.38-5.48-6.43-7.95-4.6-5.55-9.66-9.5-15.89-12.93-5.12-2.93-6.98-4.03-12.89-5.03,3.5-1.22,3.29-1.54,5.75-4.27,2.68-2.97,6.52-6.03,6.87-10.36.37-4.54-1.94-7.96-4.78-11.21l1.3-.7Z"/>
  <path class="cls-67" d="M218.01,152.73c3.54,3.42,9.84,3.03,15.01,4.04-1.52,1.69-5.34,4.79-7.26,6.15,2.13,2.78,3.1,3.26,6.14,5.16,3.71-1.17,7.35-2.54,10.91-4.1-.78,2.85-3.36,6.69-3.2,7.98-2.22,1.34-8,1.12-8.49,3-.8.39-.84.34-1.3,1.14-1.3.77-2.42,1.43-3.65,2.31,3.43,4.03,4.55,3.7,7.85,6.59-2.93-.95-7.84-3.53-10.37-2.75-.48.15-1.53,1.57-1.9,2.06-5.12-2.93-6.98-4.03-12.89-5.03,3.5-1.22,3.29-1.54,5.75-4.27,2.68-2.97,6.52-6.03,6.87-10.36.37-4.54-1.94-7.96-4.78-11.21l1.3-.7Z"/>
  <path class="cls-67" d="M290.94,171.15c1.09-.08,2.26-.56,3.7-.66,1.37.07,1.53-.16,2.43.59,1.12,2.5.73,6.22.97,9.24-1.35.25-2.45.55-3.81.38v-.2c-.97.16-2.72.05-3.69-.16l-.31.79-.49-.37c-2.41.45-4.95,2.79-7.31,3.61-4.68,1.64-9.65.92-14.31,2.48-1.61.54-4.53-2.8-5.06-4.3-.07-.2-.14-.4-.2-.6,4.79-.97,8-2.37,12.52-3.79,3.18-1,7.59.84,11.12-1.55,2.14-1.45,3.23-4.74,4.45-5.46Z"/>
  <path class="cls-17" d="M290.94,171.15c1.09-.08,2.26-.56,3.7-.66,1.37.07,1.53-.16,2.43.59,1.12,2.5.73,6.22.97,9.24-1.35.25-2.45.55-3.81.38v-.2c-.97.16-2.72.05-3.69-.16.09-1.78.81-8.16.41-9.19Z"/>
  <path class="cls-58" d="M294.64,170.49c1.37.07,1.53-.16,2.43.59,1.12,2.5.73,6.22.97,9.24-1.35.25-2.45.55-3.81.38v-.2c.19-3.34.33-6.67.42-10.01Z"/>
  <path class="cls-38" d="M290.22,181.13l.31-.79c.96.21,2.71.32,3.67.16v.2c1.37.17,2.47-.13,3.83-.38.03,3.37-.44,9.86,2.18,12.36l-.24,1.49c.36,2.06.4,3.86,1.99,5.22-.95.93-1.44,1.03-2.69,1.47-1.42-.92-3.38-3.3-4.41-3.8-4.12-2.02-4.79-1.25-8.57-4.2.95-3.73,2.61-8.06,3.93-11.74Z"/>
  <g>
    <path class="cls-50" d="M294.21,180.7c1.36.17,2.46-.13,3.81-.38.03,3.37-.44,9.86,2.18,12.36l-.24,1.49c-2.57-1.17-4.88-1.11-7.48-2.62-.17-.26-.33-.52-.5-.78.19-2.64,1.68-7.49,2.23-10.07Z"/>
    <path class="cls-58" d="M229.83,176.1c.46-.8.49-.76,1.3-1.14,1.74,1.23,6.76,4.69,7.93,6.3l1.6,1.52c6.86,6.35,8.15,7.95,17.69,9.52,2.72.45,4.38.92,7.43.9,2.54-.01,8.55-1.31,10.46-1.09l-.13.3c-9.53,1.76-12.57,1.66-22.12,1.92,6.75,4.18,11.97,8.98,20.49,9.11,1.09.08,3.97.1,4.66.52l-.22.28c-7.24.46-10.94-.08-17.71-2.54-13.29-4.85-18.36-20.13-31.37-25.6Z"/>
    <path class="cls-36" d="M239.05,181.26l1.6,1.52-.17.15-.45-.03c-.7-.69-.78-.72-.98-1.64Z"/>
    <path class="cls-58" d="M258.24,168.59l4.7,1.26c-1.63,1.09-4.67,2.94-6.06,4.04.28,1.59.35,2.59,1.16,3.99-3.62,1.52-7.31-1.21-8.98-4.35,3.36-1.66,5.47-3.91,9.17-4.95Z"/>
    <path class="cls-67" d="M274.47,203.44c3.04-.06,6.17-.19,9.18.25-1.43.16-3.36.32-4.74.56l.22-.28c-.69-.43-3.57-.44-4.66-.52Z"/>
  </g>
  <path class="cls-62" d="M202.46,104.56c.25-1.63,3.79-5.79,5.34-6.83.52-.35,1.1-.03,1.64.14,1.41,1.33,1.53.74,2.28,2.7.97,1.67,2.42,4,3.26,5.66l1.7-.51c-.65-2.26-2.1-4.28-3.65-5.98,1.5.41,2.32.6,3.72,1.29,8.93,3.83,14.26,3.37,23.77,3.19l.27.06c1.35-.05,1.11-.25,2.03.36.9,2.63-.54,6.94-1.3,9.6-.18,1.41-.44,3.04-.56,4.44.11.18.02.06.36.27.94-3.93.57-5.24,2.04-9.25l.24.12c.11,1.4.2,2.79.25,4.19l.48.24c-.05,1.46-.2,3.33.05,4.72l.26.2v.26c0,3.45.97,3.67-.54,7.31-.33.37-.79.91-1.13,1.24l-.11.37-.91.73c-.44.65-.97,1.5-1.44,2.11l-1.59,2.9c-.97,1.16-4.96,4.84-5.18,5.28-1.02.63-2.16,1.42-3.25,1.85-1.58.95-4.24,1.93-6.04,2.53-.99,1.2-1.55,1.85-2.2,3.31-.57.54-3.68.67-4.86.83-.03,1.89-.13,3.06.61,4.85l-1.3.7c-3.61-3.78-11.88-12.04-14.37-15.88-.3-.98-.84-1.52-1.49-2.32-5.79-3.34-16.19-3.34-22.61-1.76-.73.17-1.58.35-2.3.56-.37-.12-.47-.24-.8-.46-.35-1.23.05-5.3.28-6.65,2.25-13.41,8.23-14.69,16.77-21.22,1.98-.94,4.1-1.65,6.17-2.4l2.92,2.16c.69-.31.64-.37,1.19-.9Z"/>
  <path class="cls-62" d="M202.46,104.56c.25-1.63,3.79-5.79,5.34-6.83.52-.35,1.1-.03,1.64.14,1.41,1.33,1.53.74,2.28,2.7.97,1.67,2.42,4,3.26,5.66l.09.6-.33.73c-.78,1.79-1.51,3.46-2.39,5.21-4.17,6.6-7.48,10.67-7.51,18.57-.19-.72-.36-2.19-.49-3l-.5-.35-.7.49c-.48,2.66-1.03,6.4-.83,9.09-.3-.98-.84-1.52-1.49-2.32-5.79-3.34-16.19-3.34-22.61-1.76-.73.17-1.58.35-2.3.56-.37-.12-.47-.24-.8-.46-.35-1.23.05-5.3.28-6.65,2.25-13.41,8.23-14.69,16.77-21.22,1.98-.94,4.1-1.65,6.17-2.4l2.92,2.16c.69-.31.64-.37,1.19-.9Z"/>
  <path class="cls-61" d="M202.46,104.56c.25-1.63,3.79-5.79,5.34-6.83.52-.35,1.1-.03,1.64.14,1.41,1.33,1.53.74,2.28,2.7-2.99,2.97-5.68,5.42-10.45,4.89.69-.31.64-.37,1.19-.9Z"/>
  <path class="cls-32" d="M202.46,104.56c.25-1.63,3.79-5.79,5.34-6.83.52-.35,1.1-.03,1.64.14-1.2,1.49-5.34,6.45-6.99,6.7Z"/>
  <path class="cls-52" d="M213.28,106.39l.74-.14c.74.67.48.27.74,1.31-.78,1.79-1.51,3.46-2.39,5.21-4.17,6.6-7.48,10.67-7.51,18.57-.19-.72-.36-2.19-.49-3l-.5-.35-.7.49c.32-1.59,1.11-4.04,1.58-5.66,1.25-1.41,6.08-10.88,7.19-13,.76-1.1.96-2.13,1.34-3.42Z"/>
  <path class="cls-59" d="M200.86,135.23c.38-3.8,1.26-9.64,3.9-12.43-.47,1.62-1.26,4.07-1.58,5.66-.48,2.66-1.03,6.4-.83,9.09-.3-.98-.84-1.52-1.49-2.32Z"/>
  <path class="cls-40" d="M204.68,110.2c4.46-2.09,4.89-1.8,8.22-5.21l.39.19v1.21c-.39,1.29-.58,2.32-1.35,3.42-1.64-.31-5.43.23-7.26.4Z"/>
  <path class="cls-17" d="M240.97,118.67c.11.18.02.06.36.27.94-3.93.57-5.24,2.04-9.25l.24.12c.11,1.4.2,2.79.25,4.19l.48.24c-.05,1.46-.2,3.33.05,4.72l.26.2v.26c0,3.45.97,3.67-.54,7.31-.33.37-.79.91-1.13,1.24l-.11.37-.91.73c-.44.65-.97,1.5-1.44,2.11l-1.59,2.9c-.97,1.16-4.96,4.84-5.18,5.28-1.02.63-2.16,1.42-3.25,1.85-1.58.95-4.24,1.93-6.04,2.53-.99,1.2-1.55,1.85-2.2,3.31-.57.54-3.68.67-4.86.83-.03,1.89-.13,3.06.61,4.85l-1.3.7c-3.61-3.78-11.88-12.04-14.37-15.88-.19-2.69.36-6.43.83-9.09l.7-.49.5.35c.13.81.3,2.27.49,3,.03-7.9,3.34-11.96,7.51-18.57,1.14.4.81.1,1.32,1.05-.14.79-.28,1.57-.44,2.35-1.03,2.22-2.11,4.41-3.23,6.58l.26,1.6c-.35,2.58-.76,4.27.06,6.77.4.94.97,3.81,1.12,4.88,1.47,1.88,2.72,3.54,5.17,4.09,6.23,1.32,11.81-1.53,16.35-5.53,5.42-4.79,6.35-9.14,7.99-15.88Z"/>
  <path class="cls-50" d="M243.16,146.26c-.07.51-.1.89-.26,1.38-2.07-.34-4.15-.66-6.23-.95-.33-1.73-2.69-2.42-2.91-4.16-.73-.76.7-2.37,0-3.16.22-.44,4.2-4.12,5.17-5.28l.42.77c-.23.73-.08.5-.54,1.06l.88,1.38,1.26-.2c.56.54.34.22.59,1.03-.19,1.77-.23,1.89-1.23,3.27-.64.79-.26.53-1.14.89,1.22.69,1.36,1.66,2.13,2.22.6.61,1.18,1.25,1.87,1.74Z"/>
  <path class="cls-50" d="M224.46,143.74c3.45,1.7,2.68,2.32-2.2,3.31-.57.54-3.68.67-4.86.84-.03,1.89-.13,3.06.61,4.85l-1.3.7c-3.61-3.78-11.88-12.04-14.38-15.88-.19-2.69.36-6.43.83-9.09l.7-.49.5.35c.13.81.3,2.27.49,3,1.14,4.15,3.87,10.36,8.77,11.17,3.65,1.99,6.85,1.6,10.83,1.25Z"/>
  <path class="cls-38" d="M212.36,112.76c1.14.4.81.1,1.32,1.05-.14.79-.28,1.57-.44,2.35-1.03,2.22-2.11,4.41-3.23,6.58l.26,1.6c-.35,2.58-.76,4.27.06,6.77.4.94.97,3.81,1.12,4.88-2.02-.78-1.32-1.94-3.69-2.87,2.31,6.16,3.62,4.9,6.97,7.98.64.51,1.15.9,1.82,1.36-1.11-.23-1.95-.54-2.93.04-4.9-.81-7.63-7.03-8.77-11.17.03-7.9,3.34-11.96,7.51-18.57Z"/>
  <path class="cls-31" d="M210.02,122.74l.26,1.6c-.35,2.58-.76,4.27.06,6.77.4.94.97,3.81,1.12,4.88-2.02-.78-1.32-1.94-3.69-2.87-1.09-4.22.35-6.55,2.25-10.38Z"/>
  <path class="cls-59" d="M238.67,131.08l1.85.11-1.59,2.9c-.97,1.16-4.96,4.84-5.18,5.28-1.02.63-2.16,1.42-3.25,1.85-1.58.95-4.24,1.93-6.04,2.53-3.98.35-7.18.74-10.83-1.25.98-.57,1.82-.27,2.93-.04-.67-.46-1.18-.86-1.82-1.36,5.81,1.86,6.02.3,10.75.09,5.64-2.49,9.68-5.12,13.19-10.11Z"/>
  <path class="cls-59" d="M244.4,118.96l.26.2v.26c0,3.45.97,3.67-.54,7.31-.33.37-.79.91-1.13,1.24-.09-.94-.62-1.23-.89-2.64.73-2.57,1.08-4,2.3-6.38Z"/>
  <path class="cls-7" d="M242.1,125.34c.27,1.41.79,1.7.89,2.64l-.11.37-.91.73c-.44.65-.97,1.5-1.44,2.11l-1.85-.11c.36-.89,2.66-4.34,3.43-5.74Z"/>
  <path class="cls-62" d="M213.04,99.73c1.5.41,2.32.6,3.72,1.29,8.93,3.83,14.26,3.37,23.77,3.19l.27.06c1.35-.05,1.11-.25,2.03.36.9,2.63-.54,6.94-1.3,9.6l-.37-.74c-3.97-.35-6.64,11.5-8.32,13.06l-1.43.02-.03-.32c-1.96-6.85-7.44-15.36-12.06-20.59l-.81,1.81-1.82-1.75c-.65-2.26-2.1-4.28-3.65-5.98Z"/>
  <path class="cls-46" d="M240.8,104.27c1.35-.05,1.11-.25,2.03.36.9,2.63-.54,6.94-1.3,9.6l-.37-.74c-3.97-.35-6.64,11.5-8.32,13.06l-1.43.02-.03-.32c1.48-.93,4.62-11.04,4.98-13.1.28-1.59-.36-3.48.34-5.51,1.01.04.38.5,1.61,1.05.96-.9,1.98-3.17,2.48-4.42Z"/>
  <path class="cls-40" d="M213.04,99.73c1.5.41,2.32.6,3.72,1.29l-.52.41c.32,1.13,2.17,2.42,3.08,4.23l-.81,1.81-1.82-1.75c-.65-2.26-2.1-4.28-3.65-5.98Z"/>
  <path class="cls-57" d="M219.32,105.66c4.62,5.23,10.1,13.75,12.06,20.59l.03.32-.72.61c-2.75-10-4.2-8.52-10.05-15.18-2.05,3.17-4.02,6.36-5.96,9.61-2.11,3.53-4.14,5.18-4.34,9.51-.81-2.5-.41-4.19-.06-6.77l-.26-1.6c1.12-2.17,2.2-4.37,3.23-6.58.15-.78.3-1.57.44-2.35-.51-.95-.18-.65-1.32-1.05.88-1.75,1.61-3.42,2.39-5.21l.33-.73-.09-.6,1.7-.51,1.82,1.75.81-1.81Z"/>
  <path class="cls-7" d="M215.08,106.82c.98,1.53,1.56,1.9.92,3.73-.9,1.77-1.85,3.93-2.75,5.61.15-.78.3-1.57.44-2.35-.51-.95-.18-.65-1.32-1.05.88-1.75,1.61-3.42,2.39-5.21l.33-.73Z"/>
  <path class="cls-47" d="M216,110.55l.88.82c-1.83,3.46-5.28,9.54-6.6,12.97l-.26-1.6c1.12-2.17,2.2-4.37,3.23-6.58.91-1.68,1.85-3.84,2.75-5.61Z"/>
  <path class="cls-31" d="M214.99,106.22l1.7-.51,1.82,1.75c-.52,1.64-.86,2.35-1.62,3.9l-.88-.82c.64-1.83.06-2.21-.92-3.73l-.09-.6Z"/>
  <path class="cls-61" d="M231.41,126.57l1.43-.02c-.54.86-1.4,2.48-2.2,2.92-.31-.8-.08-1.34.04-2.29l.72-.61Z"/>
  <path class="cls-21" d="M217.78,120.84c-.76-.5,6.2,6.48,6.14,6.41-3.43-.83-6.36-2.32-6.14-6.41Z"/>
  <path class="cls-62" d="M152.86,151.22c1.08-1.49.65-2.71,1.82-4.16,2.02-2.52,5.02-5.41,7.72-7.13,5.77-3.67,8.44-4.69,8.52-12.09.06-5.39,2.85-13.37,7.15-16.88,2.82-2.31,10.43-5.64,14.12-5.28-8.54,6.53-14.53,7.81-16.77,21.22-.23,1.35-.63,5.42-.28,6.65.34.22.43.34.8.46.72-.2,1.57-.38,2.3-.56.28.88.06.48.81,1.19,1.11.23,2.09.22,2.9.4,4.53.4,9.76.83,13.97,2.58,2.04.91,3.25,1.55,4.91,3.1-2.95,7.19-6.24,10.7-11.95,15.74-6.24,5.51-12.23,7.65-19.53,11.18-.03-2.52-.15-4.3-.38-6.78-1.39.04-8.16.3-9.19.59-3.02.06-16.88-4.01-19.83-5.51-5.61-2.86-3.24-4.44-11.17-4.72,7.75-3.27,16.54-4.94,24.08-.02Z"/>
  <path class="cls-63" d="M195.92,137.63c2.04.91,3.25,1.55,4.91,3.1-2.95,7.19-6.24,10.7-11.95,15.74-6.24,5.51-12.23,7.65-19.53,11.18-.03-2.52-.15-4.3-.38-6.78-1.39.04-8.16.3-9.19.59.56-.68,1.61-2.73,2.28-2.75,6.27-.25,9.78.55,15.93-2.13,9.48-4.14,14.06-9.57,17.94-18.96Z"/>
  <path class="cls-63" d="M152.86,151.22c1.08-1.49.65-2.71,1.82-4.16,2.02-2.52,5.02-5.41,7.72-7.13,5.77-3.67,8.44-4.69,8.52-12.09.06-5.39,2.85-13.37,7.15-16.88,2.82-2.31,10.43-5.64,14.12-5.28-8.54,6.53-14.53,7.81-16.77,21.22-.23,1.35-.63,5.42-.28,6.65.34.22.43.34.8.46.72-.2,1.57-.38,2.3-.56.28.88.06.48.81,1.19,1.11.23,2.09.22,2.9.4l-3.46.26c-6.36,1.47-15.4,7.07-19.3,12.52-1.26,1.76-.94,4.36-1.45,6.24-1.49-.48-3.75-1.76-4.88-2.85Z"/>
  <path class="cls-64" d="M175.95,134.03c.72-.2,1.57-.38,2.3-.56.28.88.06.48.81,1.19,1.11.23,2.09.22,2.9.4l-3.46.26c-1.11,0-2.4.12-2.94-.96l.4-.32Z"/>
  <path class="cls-35" d="M232.28,296.85c2.11-1.31,2.45-1.07,4.69-.38,1.86.02,3.33.08,5.05.87.08.26.22.64.25.89.66.2.9.3,1.58.39l1.1.08c.74,1-.06,4.76-.2,6.18-1.41,13.53-10.38,16.73-21.86,20.68-5.93.22-14.85.45-20.15-2.63-2.55-1.48-3.71-6.97-1.97-9.38l-.23-.63c-.66-2.73.75-5.82,1.73-8.39,1.25-2.48,1.87-3.88,4.06-5.61l.63.28.39,1.04c.21-.25.85-1.04,1.11-1.14,3.64-1.44,12.24-3.27,15.99-2.73l1.8.09c1.49-.29,3.87-.75,5.26-.07l.77.45Z"/>
  <path class="cls-50" d="M232.28,296.85c2.11-1.31,2.45-1.07,4.69-.38,1.86.02,3.33.08,5.05.87.08.26.22.64.25.89.66.2.9.3,1.58.39l1.1.08c.74,1-.06,4.76-.2,6.18-1.41,13.53-10.38,16.73-21.86,20.68-.06-.57-.14-1-.24-1.56-2.07-2.1-5.7-.04-8.92-2.26,2.17-1.38,4.59-2.93,6.95-3.89l.86-1.4-1.63-.97c-.65-1.08-.64-.69-.42-1.64.85-.58,1.84-.52,2.9-.6,5.48-.92,7.77-2.09,10.46-7.12,1.44-2.07,1.72-3.37,2.4-5.76l-.42-.95-.65-.05c-.47-1.08-1.1-1.64-1.9-2.51Z"/>
  <path class="cls-22" d="M232.28,296.85c2.11-1.31,2.45-1.07,4.69-.38-.96,1.64-1.13,2.08-1.72,3.89l-.42-.95-.65-.05c-.47-1.08-1.1-1.64-1.9-2.51Z"/>
  <path class="cls-65" d="M243.85,298.62c-.97,1.9-2.11,7.64-3.05,8.29l-.2-.2c-.23-.81-.28-1.12.09-1.96.94-2.13.96-4.23,1.57-6.51.66.2.9.3,1.58.39Z"/>
  <path class="cls-54" d="M221.54,316.45c1.67,1.52,1.97,2.36,2.74,4.43,1.08-.65,1.93-1.34,3.15-1.35l.12.36c-.93.94-2.17,1.55-3.49,1.68-1.81-1.04-.86-3.21-3.37-3.72l.86-1.4Z"/>
  <path class="cls-32" d="M235.55,314.4l.48.41c-.21.9-2.92,1.26-3.96,1.88-1.12.67-1.88,1.14-2.91,1.94-.3-.11-.14-.01-.39-.4,1.04-1.93,4.8-3.23,6.79-3.83Z"/>
  <path class="cls-68" d="M239.48,311l.21.25c-.02,1.29-1.31,4.25-1.91,5.47-.5-.29-.45-.28-.69-.82.66-1.96,1.36-3.1,2.38-4.9Z"/>
  <path class="cls-38" d="M202.98,309.4c1.06.63.81.71,1.82.65.91.22,1.72.29,2.29,1.01-.08.15-.21.4-.32.5l.61.15c1.16-.66,3.81-.08,5.18.11,2.63.94,4.9,2.31,7.34,3.66l1.63.97-.86,1.4c-2.36.97-4.78,2.52-6.95,3.89,3.22,2.21,6.85.16,8.92,2.26.1.56.18.99.24,1.56-5.93.22-14.85.45-20.15-2.63-2.55-1.48-3.71-6.97-1.97-9.38l-.23-.63c.1-.74.13-1.4.48-2.04.35.18.7.37,1.04.56l.92-2.05Z"/>
  <path class="cls-13" d="M207.39,311.71c1.16-.66,3.81-.08,5.18.11,2.63.94,4.9,2.31,7.34,3.66l1.63.97-.86,1.4c-2.36.97-4.78,2.52-6.95,3.89-1.06-.67-3.32-1.06-4.37-1.95-1.4-1.18-1.13-2.65-2.96-3.49.53-1.49.72-3.04.98-4.6Z"/>
  <path class="cls-50" d="M202.98,309.4c1.06.63.81.71,1.82.65.91.22,1.72.29,2.29,1.01-.08.15-.21.4-.32.5l.61.15c-.26,1.56-.45,3.11-.98,4.6-.44,1.48-.34,2.23-1.92,2.25-1.7-.96-2.77-3.28-3.72-5l-.23-.63c.1-.74.13-1.4.48-2.04.35.18.7.37,1.04.56l.92-2.05Z"/>
  <path class="cls-22" d="M202.98,309.4c1.06.63.81.71,1.82.65.91.22,1.72.29,2.29,1.01-.08.15-.21.4-.32.5-2.09-.31-2.59-.28-4.71-.1l.92-2.05Z"/>
  <path class="cls-16" d="M207.36,300.25c.21-.25.85-1.04,1.11-1.14,3.64-1.44,12.24-3.27,15.99-2.73-.92,1.02-1.37,1.38-2.43,2.23-3.37,2.65-7.43,4.18-10.09,6.52-.69,1.02-1.07,1.37-1.06,2.56.44,1.26,1.65,2.03,2.75,2.85-.16.19-.93,1.17-1.05,1.28-1.38-.19-4.02-.77-5.18-.11l-.61-.15c.11-.1.23-.35.32-.5-.56-.72-1.37-.79-2.29-1.01-1.01.06-.77-.01-1.82-.65l-.92,2.05c-.34-.19-.69-.38-1.04-.56-.35.64-.38,1.3-.48,2.04-.66-2.73.75-5.82,1.73-8.39,1.25-2.48,1.87-3.88,4.06-5.61l.63.28.39,1.04Z"/>
  <path class="cls-54" d="M206.34,298.93l.63.28.39,1.04c-1.77,4.13,1.78,5.11-.99,7.19-.56.75-1.42,1.73-1.56,2.6-1.01.06-.77-.01-1.82-.65l-.92,2.05c-.34-.19-.69-.38-1.04-.56-.35.64-.38,1.3-.48,2.04-.66-2.73.75-5.82,1.73-8.39,1.25-2.48,1.87-3.88,4.06-5.61Z"/>
  <path class="cls-30" d="M202.27,304.54c.81-.07.87.06,1.4-.35l.15-.12.09.07c.2.52.4,1.11.66,1.59-.53,1.66-.77,2.15-1.59,3.67l-.92,2.05c-.34-.19-.69-.38-1.04-.56-.35.64-.38,1.3-.48,2.04-.66-2.73.75-5.82,1.73-8.39Z"/>
  <path class="cls-14" d="M206.34,298.93c.24,1.14-1.64,4.2-2.42,5.2l-.09-.07-.15.12c-.53.42-.59.28-1.4.35,1.25-2.48,1.87-3.88,4.06-5.61Z"/>
  <path class="cls-25" d="M221.49,303.88c2.32,1.28,7.72,5.06,9.51,1.61.55.49,1.11.5,1.85.63-2.69,5.03-4.97,6.2-10.46,7.12-1.07.08-2.06.02-2.9.6-.22.95-.23.57.42,1.64-2.44-1.35-4.71-2.72-7.34-3.66.13-.1.9-1.08,1.05-1.28-1.1-.82-2.31-1.59-2.75-2.85-.01-1.19.37-1.54,1.06-2.56l1.24,1.67.8-.86c1.13-.44,2.31-.58,3.52-.79,1.58-.35,2.58-.5,4-1.27Z"/>
  <path class="cls-30" d="M217.49,305.15c2.92.02,8.97,1.44,9.52,4.8-.7.66-1.52.8-2.49.69-2.91-1.58-7.69-2.32-10.55-4.71,1.13-.44,2.31-.58,3.52-.79Z"/>
  <path class="cls-13" d="M213.18,306.8l.8-.86c2.85,2.39,7.63,3.13,10.55,4.71-1.33.4-2.51.98-3.85.8-2.55-.33-5.92-.97-7.67-2.98-.27-1.19-.36-.66.18-1.67Z"/>
  <path class="cls-56" d="M213.62,310.54c3.26,1.91,5,2.22,8.77,2.7-1.07.08-2.06.02-2.9.6-.22.95-.23.57.42,1.64-2.44-1.35-4.71-2.72-7.34-3.66.13-.1.9-1.08,1.05-1.28Z"/>
  <path class="cls-2" d="M221.49,303.88c-.8-.61-1.04-.58-1.34-1.36.69-.52,2.04-.42,2.89-.3,2.88.43,5.61,1.56,7.96,3.27-1.78,3.45-7.18-.33-9.51-1.61Z"/>
  <path class="cls-56" d="M224.95,299.3l4.11.24c1.11.74,1.93,1.14,2.64,2.27v.65c-1.69.87-7.38-1.42-8.28-3.02l1.53-.13Z"/>
  <path class="cls-56" d="M226.25,296.47c1.49-.29,3.87-.75,5.26-.07l.77.45c.8.87,1.43,1.43,1.9,2.51-.98-.12-1.85-.38-2.8-.64-1.93-.34-3.35-.53-5.17-1.23l.05-1.02Z"/>
  <path class="cls-42" d="M224.45,296.38l1.8.09-.05,1.02.31,1.52-1.57.29-1.53.13c-.37-.08-1.03-.58-1.39-.82,1.05-.85,1.51-1.21,2.43-2.23Z"/>
  <path class="cls-48" d="M204.55,145.58c.63.39,1.66,1.39,2.22,2.01,3.68,4.06,8.11,9.03,10.21,14.09.26.62.23,2.96.22,3.69-1.74,2.25-14.66,13.38-17.28,14.75-7.86,4.12-12.5,6.58-19.68,12.1l-2.86,2.33c-1.3-8.59-2.71-14.89-8.19-22.01,3.56-1.68,7.69-3.31,11.07-5.01,5.89-2.97,12.22-8.12,16.72-12.89,2.5-2.65,4.61-6.18,7.27-8.79l.28-.27Z"/>
  <path class="cls-62" d="M284.98,155.67c1.72-1.52,3.11-2.29,5.09-4.21,5.77-5.5,11.31-12.78,19.26-15.13,3.92-1.16,4.58.5,7.52,1.27,5.72,2.84,9.5,6.4,11.58,12.57.06.18.12.37.18.56-2.83,1.41-5.25,3.55-8.02,5-4.42,2.31-9.56,2.89-14.26,4.34,7.5,1.34,15.57-2.85,21.52-6.99.5-.35,1-.71,1.5-1.06.14,1.97.31,3.93.26,5.9-2.78,1.54-5.47,2.86-8.47,3.95-7.67,2.77-25.45,5.73-33.26,4.7-1.86-2.13-7.22-6.18-9.72-8.22,1.71-.83,5.07-2.63,6.83-2.66Z"/>
  <path class="cls-68" d="M284.98,155.67c1.72-1.52,3.11-2.29,5.09-4.21,5.77-5.5,11.31-12.78,19.26-15.13,3.92-1.16,4.58.5,7.52,1.27-7.04,1.13-10.37,2.72-16.59,6.94-4.78,3.24-7.67,9.6-12.95,11.75-.34.14-1.85-.39-2.33-.61Z"/>
  <path class="cls-62" d="M225.58,147.17c3.31-.59,7.75-.93,11.09-.48,2.08.29,4.16.61,6.23.95,1.89.52,2.46.56,4.43.68,1.15.21,3,.63,4.12.65,2.95.78,5.01,1.33,7.86,2.44,1.76.69,5.53,2.55,7.09,2.97l-.38,1.52,1.15.63c1.86.96,27.81,11.82,16.62,17.86-.55.3-4.08.41-4.95.44-3.61-6.14-2.47-5.68-7.45-10.52-1.76,1.24-4.35,3.17-6.16,4.18-4.81-1.63-6.88-2.48-11.86.08-2.12,1.09-5.52,2.67-7.4,4-1.52-.88-3.03-1.76-4.54-2.66,2.2-3.84,8.97-8.83,12.97-10.8,3.9.73,7.79,1.51,11.67,2.33-5.85-2.97-14.45-7-18.98.35-8.13-.46-7.96.96-15.03,3.8-.8-.86-1.74-1.94-2.62-2.7,1.19-1.3,2.26-2.46,3.53-3.69.2-.49.41-.98.62-1.47l-.58-.96c-5.17-1.01-11.47-.62-15.01-4.04-.74-1.79-.64-2.95-.61-4.85,1.17-.17,4.29-.29,4.86-.83,1.03,0,2.33-.07,3.32.11Z"/>
  <path class="cls-4" d="M222.26,147.05c1.03,0,2.33-.07,3.32.11l-.03.57.72.78c-1.93.32-4.98.48-5.54,2.76,1.4,2.86,13.43,1.94,16.66,2.42.64.1,3.52-.74,4.43-.78,4.04-.18,7.48,1.68,10.65,3.95-9.98-3.28-10.75-3.72-19.48,2.34.2-.49.41-.98.62-1.47l-.58-.96c-5.17-1.01-11.47-.62-15.01-4.04-.74-1.79-.64-2.95-.61-4.85,1.17-.17,4.29-.29,4.86-.83Z"/>
  <path class="cls-15" d="M225.58,147.17c3.31-.59,7.75-.93,11.09-.48,2.08.29,4.16.61,6.23.95,1.89.52,2.46.56,4.43.68,1.15.21,3,.63,4.12.65,2.95.78,5.01,1.33,7.86,2.44,1.76.69,5.53,2.55,7.09,2.97l-.38,1.52c-6.66-3.03-13.08-3.88-20.05-5.35-7.74-1.64-11.54-2.75-19.7-2.03l-.72-.78.03-.57Z"/>
  <path class="cls-62" d="M264.34,254.66c3.12,5.3,8.46,11.97,6.83,18.47-1.86,7.45-13.09,12.91-20.1,13.36-.59.72-1.27,1.75-2.09,2.04l-.43-.24-.19-.71c-.77.03-.81-.03-1.54.21-2.1,0-1.92-1.05-3.7-1.44-1.85-.41-6.6.49-8.01-.72-.71-1.1-.63-1.21-.48-2.51.51-6.87,1.01-9.76-2.54-15.74-.43-.73.87-3.29,1.82-3.87,2.08.82,3.32,3.73,6.22,4.53,2.72.76,4.39.34,6.72.03,11.25-1.5,5.77-7.64,12.86-11.19l.2-.16c1.48-.67,2.96-1.36,4.43-2.06Z"/>
  <path class="cls-38" d="M235.1,285.63c2.05-3.69,6.66-2.77,9.86-1.4.76,1.23,1.46,2.18,1.85,3.57-2.1,0-1.92-1.05-3.7-1.44-1.85-.41-6.6.49-8.01-.72Z"/>
  <path class="cls-64" d="M259.71,256.88l.2-.16c2.81,1.76,5.97,6.41,6.65,9.74.83,4.03-1.09,7.82-3.22,11.14,1.6-5.59,3.1-9.51.2-15.11-1.11-2.14-3.63-4.09-3.84-5.6Z"/>
  <path class="cls-17" d="M238.81,281.32c4.26.9,8.65,1.14,9.55,6.26-.77.03-.81-.03-1.54.21-.39-1.39-1.09-2.34-1.85-3.57-3.2-1.37-7.81-2.29-9.86,1.4-.71-1.1-.63-1.21-.48-2.51,1.53-.74,2.57-1.25,4.19-1.8Z"/>
  <g>
    <path class="cls-27" d="M146.29,215.06c8.73-5.65,14.83-11.12,20.26-20.19,1.42-2.36,3.35-6.15,4.72-8.27,2.45,9.68,1.16,17.69-3.94,26.37-1.74,2.97-6.79,8.9-9.9,10.3-2.36,2.28-6.9,4.41-9.93,5.51-10.72,3.93-22.57,3.38-32.87-1.52,5.67-1.8,11.2-2.83,16.76-4.57,4.81-1.51,10.6-5.03,14.91-7.64Z"/>
    <path class="cls-48" d="M146.29,215.06c-1.64,2.52-5.29,3.36-5.54,5.16,1.3,2.38,5.34,3.31,7.29,4.86-.1.39-.18.73-.26,1.02,6.43,1.18,6.23-2.84,9.64-2.82-2.36,2.28-6.9,4.41-9.93,5.51-10.72,3.93-22.57,3.38-32.87-1.52,5.67-1.8,11.2-2.83,16.76-4.57,4.81-1.51,10.6-5.03,14.91-7.64Z"/>
  </g>
  <g>
    <path class="cls-70" d="M306.51,133.66c2.04-4.78,6.93-9.14,12.36-9.51,11.44-.77,21.51,1.7,26.49,13.29.76,1.85,1.51,3.69,1.82,5.69,1.1,3.73,1.07,5.05-1.36,8.29l-2.21-.06c-.72.5-1.48,1.01-2.16,1.56l1.35,1.36c-2.93,2.09-4.88,2.49-8.29,3.52-.06-2.12-.49-4.62-.79-6.75-.73-2.17-1.15-3.32-2.15-5.37-.68-.99-1.41-1.94-2.2-2.84-7.17-8.22-12.97-8.5-22.84-9.18Z"/>
    <g>
      <path class="cls-3" d="M345.35,137.44c.76,1.85,1.51,3.69,1.82,5.69,1.1,3.73,1.07,5.05-1.36,8.29l-2.21-.06c-.72.5-1.48,1.01-2.16,1.56-2.16.14-2.7-.56-3.66-2.37,1.71-4.14,5.74-8.02,6.3-10.45.41-1.09.71-1.64,1.27-2.66Z"/>
      <path class="cls-70" d="M347.17,143.12c1.1,3.73,1.07,5.05-1.36,8.29l-2.21-.06c1.51-2.09,1.6-2.32,3.53-4.18l.04-4.06Z"/>
      <path class="cls-18" d="M337.78,150.55l-.18.05c.01-.51.02-.66-.05-1.17-.47-.04-.82-.08-1.28-.16l-.32-.63c1.93-6.05,6.48-4.79,7.92-8.98l.21.43c-.56,2.43-4.59,6.31-6.3,10.45Z"/>
      <path class="cls-18" d="M331.55,145.67c2.64-.92,1.8.49,3.97-.32,1.99,1.14-.49,3.55-1.63,4.39l.32.74c-.14.16-.35.44-.51.56-.73-2.17-1.15-3.32-2.15-5.37Z"/>
    </g>
  </g>
  <path class="cls-62" d="M258.93,39.91c5.8,3.11,7.59,11.76,8.71,17.63-1.24-.07-2.38-.24-3.54.11-1.1,1.64-1.26,4.09-2.14,6.06-1.99,4.46-4.5,6.78-8.88,8.6.12,2.06-.29,3.77-.5,5.7-.85,7.47-3.48,10.7-8.25,16.25l-2.41,2.54c-1.17-4.2-2.27-14.33-1.33-18.6,1.44-6.54,2.8-7.65,2.27-14.91,2.67.34,3.84.65,6.35,1.57-1.29-1.9-1.7-2.58-2.62-4.67,10.76-2.71,11.15-10.81,12.35-20.28Z"/>
  <path class="cls-50" d="M116.1,293.2c11.17-2.93,15.91.96,23.26,8.33,1.32,1.33,4.15,2.47,5.97,4.17.34,5-5.09,5.75-6.86,1.24-2.72-1.13-6.77-2.93-9.52-3.51l-.02.27c3.58,1.93,8.24,2.45,7.79,6.97,2.14.74,4.37,3.26,3.27,5.57-.98,2.07-2.71,2.33-4.69,3-.71-1.94-1.26-3.2-2.55-4.87-7.19-4.7-12.15-5.48-20.25-7.45-.85-.09-1.7-.21-2.54-.37-1.45-.27-3.79-.5-4.59-1.66.95-1.31,5.69-2.19,7.48-2.7-1.8-.81-3.61-1.6-5.44-2.35.24-.46.49-.92.77-1.36,1.9-3.17,4.48-4.41,7.92-5.28Z"/>
  <path class="cls-67" d="M116.1,293.2c.49,4.11,2.01,8.02-2.99,9.34l-.6,4.39c-.85-.09-1.7-.21-2.54-.37-1.45-.27-3.79-.5-4.59-1.66.95-1.31,5.69-2.19,7.48-2.7-1.8-.81-3.61-1.6-5.44-2.35.24-.46.49-.92.77-1.36,1.9-3.17,4.48-4.41,7.92-5.28Z"/>
  <path class="cls-67" d="M132.76,314.38c3.05-.71,3.07-.83,3.97-3.7,2.14.74,4.37,3.26,3.27,5.57-.98,2.07-2.71,2.33-4.69,3-.71-1.94-1.26-3.2-2.55-4.87Z"/>
  <path class="cls-67" d="M145.34,305.71c.34,5-5.09,5.75-6.86,1.24,2.72.41,4.41.19,6.86-1.24Z"/>
  <path class="cls-50" d="M207.16,37.18c2.37,1.06,8.4,6.25,10.29,8.14,3.36,3.36,4.18,5.38,8.49,7.96-.98,3.82-2.89,5.42-5.98,7.53-8.48,4.54-15.48-1.15-17.06-9.73-.97-5.25,1.33-9.71,4.26-13.9Z"/>
  <path class="cls-64" d="M215.17,45.87c6.36.91,4.89,10.05-1.05,12.37-6.47-.85-5.38-10.55,1.05-12.37Z"/>
  <path class="cls-50" d="M217.04,48.84c.65.4.6.46.97,1.15.03,1.02-.11,1.11-.71,2-.65-.57-.67-.69-1.1-1.42.1-1.15-.01-.73.83-1.74Z"/>
  <path class="cls-67" d="M243.85,104.12c.12-6.53,1.35-7.42,5.44-12.48.83-1.03,1.46-2.3,2.46-3.2l.41.24c-.4.94-.49,1.01-1.17,1.8.43.61.83,1.25,1.38,1.73.71.45,1.59.81,1.65,1.73.22,3.29-.13,7.27-.19,10.56-.26.58-.54,1.16-.82,1.73.17,2.18.42,4.36.17,6.53.41,1.77,2.2,7.85,2.22,9.15-1.13.68-1.37.64-1.76,2.11-.32-.75-.39-1.36-.53-2.16-2.15.07-5.81-1.65-7.78-2.65l-.66-.06-.26-.2c-.25-1.39-.1-3.26-.05-4.72l-.48-.24c-.06-1.4-.14-2.79-.25-4.19l-.24-.12c-1.47,4.01-1.11,5.32-2.04,9.25-.33-.22-.24-.1-.36-.27.12-1.4.37-3.03.56-4.44.75-2.66,2.2-6.97,1.3-9.6-.92-.61-.68-.41-2.03-.36l-.27-.06c.66-.27,2.5-.12,3.32-.09Z"/>
  <path class="cls-7" d="M249.42,92.48c.44-.64,1.07-1.38,1.56-2,.43.61.83,1.25,1.38,1.73.71.45,1.59.81,1.65,1.73.22,3.29-.13,7.27-.19,10.56-.26.58-.54,1.16-.82,1.73.17,2.18.42,4.36.17,6.53-.19-.67-.31-1.13-.45-1.81-.01.9.06,1.71-.32,2.52l-.35-.2-.06-.89-.52-.2c-.36-1.61-.62-3.75-.69-5.41-.61-2.52-.86-11.13-.84-13.8l-.54-.5Z"/>
  <path class="cls-26" d="M252.36,92.22c.71.45,1.59.81,1.65,1.73.22,3.29-.13,7.27-.19,10.56-.26.58-.54,1.16-.82,1.73-.36-.72-1.13-1.86-1.58-2.58.23-1.39.28-3.14.36-4.58.58-2.54.11-4.89.57-6.86Z"/>
  <path class="cls-47" d="M243.85,104.12c.12-6.53,1.35-7.42,5.44-12.48.83-1.03,1.46-2.3,2.46-3.2l.41.24c-.4.94-.49,1.01-1.17,1.8-.5.62-1.12,1.35-1.56,2-1.28,1.61-1.71,2.18-2.66,3.98.17,3.01.34,5.89.38,8.91-1.25.65-1.15,1.58-2.21,2.64-.41,1.63-.48,4.46-.58,6.23l-.48-.24c-.06-1.4-.14-2.79-.25-4.19l-.24-.12c-1.47,4.01-1.11,5.32-2.04,9.25-.33-.22-.24-.1-.36-.27.12-1.4.37-3.03.56-4.44.75-2.66,2.2-6.97,1.3-9.6-.92-.61-.68-.41-2.03-.36l-.27-.06c.66-.27,2.5-.12,3.32-.09Z"/>
  <path class="cls-7" d="M244.93,108.01c.08-3.91.33-7.88,1.83-11.54.17,3.01.34,5.89.38,8.91-1.25.65-1.15,1.58-2.21,2.64Z"/>
  <path class="cls-59" d="M244.93,108.01c1.06-1.06.96-1.98,2.21-2.64-.15,3.47.27,11.36-2.15,13.54l.33.31-.66-.06-.26-.2c-.25-1.39-.1-3.26-.05-4.72.1-1.77.17-4.6.58-6.23Z"/>
  <path class="cls-59" d="M251.49,112.19l.52.2.06.89.35.2c.38-.81.31-1.62.32-2.52.14.68.26,1.14.45,1.81.41,1.77,2.2,7.85,2.22,9.15-1.13.68-1.37.64-1.76,2.11-.32-.75-.39-1.36-.53-2.16.19-.68-1.56-7.05-1.62-9.68Z"/>
  <path class="cls-50" d="M251.86,32.6c3.01,3.32,4.39,6.39,4.17,11.15-.21,4.66-2.05,10.86-7.16,12.33-1.18.34-2.76.58-4.02.82-2.43-.73-5.21-2.09-6.65-4.26-.08-.52-.26-.82.02-1.07,1.82-1.68,2.95-1.71,4.5-3.94.8-1.54,1.89-3.25,2.8-4.75,1.98-3.9,3.2-7.25,6.34-10.28Z"/>
  <path class="cls-64" d="M245.53,42.88l1.13.24,1.1-.57.69,1.02c.28-.17.62-.21.93-.11.31.1.57.33.7.63.03-.75.15-.85.51-1.51,2.97,2.11,3.06,5.97,1.1,8.83-2.74,4-7.98,3.65-7.88-1.95.01-.47.03-.93.07-1.39l-1.15-.44c.8-1.54,1.89-3.25,2.8-4.75Z"/>
  <path class="cls-36" d="M245.53,42.88l1.13.24c-1.54,1.95-1.92,2.53-2.77,4.95l-1.15-.44c.8-1.54,1.89-3.25,2.8-4.75Z"/>
  <path class="cls-67" d="M248.45,43.58c.28-.17.62-.21.93-.11.31.1.57.33.7.63.25.56.01,1.22-.54,1.49-.55.27-1.22.06-1.51-.48s-.11-1.21.41-1.53Z"/>
  <path class="cls-65" d="M247.75,42.56c1.21-.32,1.63-.41,2.84.03-.36.66-.48.75-.51,1.51-.13-.3-.39-.53-.7-.63-.31-.1-.65-.06-.93.11l-.69-1.02Z"/>
  <path class="cls-62" d="M231.63,248.03c3.38.68,6.55,2.48,9.81,2.94,8.15,1.43,13.99.64,22.16-.1-2.81,2.36-6.27,3.81-9.39,5.73-4.11,2.52-6.52,5.49-11.65,5.05-.76-.07-1.52-.16-2.28-.26-1.99-.32-2.46-.67-4.18-1.62-2.08-3.35-3.29-7.91-4.47-11.74Z"/>
  <path class="cls-68" d="M231.63,248.03c3.38.68,6.55,2.48,9.81,2.94l-1.51.17c-1.36,1.86.37,7.64.35,10.25-1.99-.32-2.46-.67-4.18-1.62-2.08-3.35-3.29-7.91-4.47-11.74Z"/>
  <path class="cls-33" d="M247.99,254.24c1.13.31.81.06,1.51.85.19,1.03,0,1.3-.38,2.33-.65-.08-.79-.14-1.42-.34-.36-1.11-.02-1.57.29-2.84Z"/>
  <path class="cls-62" d="M261.74,31.89c1.87,1.13,5.01,4.69,6.26,6.48,6.02,8.6,7.53,18.95,5.72,29.12-1.66-.43-2.76-.95-4.33-1.63-.83,2.69-1.98,5.28-3.41,7.7l-2.22,2.85c.43-6.61,1.27-9.95.99-16.92,1.1,0,2.93,0,4.04.13.19.02.62.63,1.64.84-.73-8-3.63-14.12-6.41-21.53-.72-1.91-2.03-5.1-2.29-7.04Z"/>
  <path class="cls-62" d="M118.61,160.39c.23-.03.35.08.63.2.28,1.04,0,3.59-.08,4.8-9.45,1.85-7.84,7.55-11.57,14.24-.91,1.63-2.77,1.25-4.43,1.13-1.37-1.18-1.37-1.76-1.38-3.62-.03-3.31.43-11.05,2.94-13.46,3.44-3.31,9.46-3.2,13.89-3.29Z"/>
  <path class="cls-62" d="M127.17,154.31c1.9-.2,7.01-.86,7.98,1.05-1.15,1.27-1.48.47-2.09,2.28-1.4,4.18-3.39,7.9-4.82,12.11-2.14,1.15-3.73,1.11-6.09,1.13-.86-7.01-.23-9.54.14-16.41,1.63.06,3.25-.06,4.88-.15Z"/>
  <path class="cls-27" d="M232.55,53.95c7.49,2.33,8.93,13.58,5.11,19.4l-.49.07c-1.98-4.44-4.12-6.48-8.38-8.72.43-5.08.9-6.62,3.76-10.75Z"/>
  <path class="cls-62" d="M270.65,167.44c3.17,1.11,4.2,4.72,5.09,7.55-3.5,1.19-7,2.86-10.56,3.72-1.22.24-1.64.43-2.82.09-1.14-.78-1.47-1.75-2.11-3,3.13-3.11,6.84-5.79,10.41-8.36Z"/>
  <path class="cls-62" d="M260.5,68.87l.73.25c1.64,3.38-2.36,11.11-4.67,13.67-.6.67-1.71,1.46-2.46,1.99-.55-.14-.3-.06-.78-.58-.49-6.73,2.2-10.85,7.17-15.34Z"/>
  <path class="cls-29" d="M87.87,176.09c3.2-1.21,5.19-1.92,8.55-2.74-1.44,3.08-5.15,10.64-5.5,13.76l-1.17-.73c-.19-2.98-1.22-7.27-1.88-10.28Z"/>
  <path class="cls-29" d="M86.39,188.64c1.43.94,4.34,9.74,3.51,11.61l-.94.27-4.04.83c.76-3.28,1.24-9.25,1.47-12.72Z"/>
  <path class="cls-29" d="M229.92,88.38c2.26.87,4.01,5.01,6.22,4.67.75-.73.93-.96,1.55-1.82.68.73.98,4.6,1.12,5.75-.15,1.17.07.9-.64,1.46-3.71.2-7.59-6.77-8.26-10.07Z"/>
  <path class="cls-68" d="M198.03,257.43c2.67.17,4.99,1.93,6.97,3.49-1.15.55-2.27,1.01-3.44,1.5-.44.01-.88.02-1.32.02-1.92-.01-4.93-.23-4.9-2.65.54-1.12,1.62-1.64,2.7-2.36Z"/>
  <path class="cls-63" d="M163.41,163.71l3.98-.16c-.54,2.15-.43,3.95-2.84,4.02-2.17-1.44-3.68-2.36-5.97-3.63,1.61-.05,3.22-.13,4.83-.24Z"/>
  <path class="cls-38" d="M229.45,74.53c2.17.57,4.02,2.73,4.49,4.9-.52.1-1.05.18-1.58.22-2.96.24-2.74-3.05-2.91-5.12Z"/>
  <path class="cls-28" d="M343.6,151.36l2.21.06c-1.06,1.08-1.85,1.9-3.02,2.86l-1.35-1.36c.68-.55,1.44-1.06,2.16-1.56Z"/>
  <path class="cls-39" d="M89.75,186.38l1.17.73c-.17.55-.24.57-.6,1.04-.57-.61-.41-.75-.57-1.77Z"/>
  <path class="cls-15" d="M257.89,15.05c.63-.27.89-.44,1.46-.83,2.3-1.57,5.16-2.06,7.89-2.31l.44.2c-2.12,2.67-7.54,2.3-9.79,3.23v-.29Z"/>
  <path class="cls-50" d="M145.15,90.16"/>
</svg>