<?xml version="1.0" encoding="UTF-8"?>
<svg id="Camada_1" xmlns="http://www.w3.org/2000/svg" version="1.1" xmlns:xlink="http://www.w3.org/1999/xlink" viewBox="0 0 1000 1000">
  <!-- Generator: Adobe Illustrator 29.1.0, SVG Export Plug-In . SVG Version: 2.1.0 Build 142)  -->
  <defs>
    <style>
      .st0 {
        fill: url(#Gradiente_sem_nome_5);
      }

      .st1 {
        fill: #0d65a5;
      }

      .st2 {
        fill: #c4143d;
      }

      .st3 {
        fill: #fff;
      }

      .st4 {
        fill: #f9b043;
      }

      .st5 {
        fill: #025b9c;
      }

      .st6 {
        fill: #db2145;
      }

      .st7 {
        fill: url(#Gradiente_sem_nome_6);
      }

      .st8 {
        fill: #e6e5e5;
      }

      .st9 {
        fill: #010101;
      }
    </style>
    <linearGradient id="Gradiente_sem_nome_5" data-name="Gradiente sem nome 5" x1="68.39" y1="959.2" x2="72.05" y2="967.2" gradientTransform="translate(-8.73 9739.78) scale(9.73 -9.73)" gradientUnits="userSpaceOnUse">
      <stop offset="0" stop-color="#004a76"/>
      <stop offset="1" stop-color="#0161a5"/>
    </linearGradient>
    <linearGradient id="Gradiente_sem_nome_6" data-name="Gradiente sem nome 6" x1="58.62" y1="961.03" x2="62.2" y2="967.2" gradientTransform="translate(-8.73 9739.78) scale(9.73 -9.73)" gradientUnits="userSpaceOnUse">
      <stop offset="0" stop-color="#014a78"/>
      <stop offset="1" stop-color="#0760a5"/>
    </linearGradient>
  </defs>
  <path class="st3" d="M216.02,10.19h3.32c3.1,2.34,18.43,6.6,23.22,8.22,21.52,7.1,43.28,13.48,65.23,19.11,10.7,2.72,31.61,5.69,40.65,9.72,4.8,2.14,25.33,22.96,29.17,27.59,1.35,13.58-.13,40.13.76,54.48.35.29.7.57,1.05.86,2.23-.19,2.29-.21,4.04-1.52,2.92-6.28,6.4-29.59,9.69-38.87-3.31-10.51-7.54-28.1-11.21-37.47,8.36,1.36,16.66,1.6,25.04,2.58,64.26,7.43,129.19,7.19,193.4-.73,12.21-1.42,24.25-3.82,36.43-5.36,4.12-.52,3.71,8.93,3.81,11.52,4.5-4.65,9.23-9.71,13.98-14.03,17.12-2.85,120.45-28.57,129.49-36.1h3.72c-4.14,16.28-9.52,38.31-11.73,54.85-.66,4.94-.31,21.44-.32,27.42l-.03,45.45c0,7.39.32,19.9-.5,26.86,16.31,7.4,34.38,26.51,39.31,43.54,6.79,23.44,1.84,57.54.82,81.73l-4.94,117.27-10.46,260.13c-.53,11.09-.96,22.56-1.85,33.61-.49,6.08-2.59,10.69-2.53,17.43,10.13,10.97,18.21,19.93,26.26,32.77,7.18,11.45,13.56,24.94,21.11,35.89-9.05-.32-17.93-.59-26.98-1.32,1.74,10.49.26,29.24-.81,40.19-5.46-2.52-10.84-5.19-16.15-8.01-3.94,7.8-6.91,13.88-12.67,20.67-19.34,22.84-54.28,29.2-82.95,27.55-36.4,36.46-99.19,80.52-146.01,102.43-7.9,3.74-15.93,7.19-24.07,10.34-3.55,1.39-28.47,10.19-29.31,10.84h-7.96c-5.03-2.36-16.91-6.21-22.73-8.36-11.08-4.06-21.96-8.66-32.58-13.79-40.3-18.98-80.55-46.96-115.01-74.96-10.26-8.33-19.54-17.87-29.39-26.18-1.99.07-3.98.08-5.97.02-27.17-.83-56.83-5.66-76.33-26.98-6.42-7.02-9.48-16.64-13.02-20.42-4.67.28-9.82,4.74-14.97,5.39l-.97-.81c-1.33-5.5-2.01-32.34-1.2-37.99-8.09,1.12-18.42,1.34-26.75,1.71,8.4-13.7,15.54-28.53,24.62-42.05,7.45-11.09,14.19-18.37,23.39-28.01-4.88-16.85-3.55-31.16-4.72-48.71-2.57-38.54-3.05-77.47-4.69-116.01l-8.28-200.5-3.15-71.85c-.9-18.84-4.22-49.44-.36-67.31,4.94-22.91,24.42-39.63,44.41-51.01-3.41-31.63,1.62-67.6-1.33-99.42-1.39-15.06-7.43-37.01-10.98-52.42Z"/>
  <g>
    <path class="st9" d="M486.86,434.9l.59,1.81c5.18-2.15,7.92-31.13,12.05-33.96,4.34,4.26,7.11,29.01,11.2,32.35.48-2.47.36-5.33,1.54-6.75,3.52,1.79,18.28,23.02,21.54,27.51,5.99,8.24,8.29,20.05,8,30.18,10.5,6.03,16.85,10.11,25.3,19.19,14.42-3.2,32.7-2.41,45.09,6.01,30.45,20.67,6.55,51.8-20.34,58.56l-.56,7.74,1.05,1.17,1.02-.18c11.61-4.52,27.46,2.81,34.66,12.3,4.92,6.41,7,14.56,5.76,22.55-1.99,13.53-12.02,19.79-22.23,27.25,8-.3,20.24,3.04,27.63,6.23,21.56,9.3,33.26,23.12,41.93,44.19,7.99,2.99,17.01,6.45,23.74,11.71.43-.26.86-.51,1.3-.76,10.38-5.84,31.24-5.65,42.24-2.13,38.68,12.37,59.51,44.68,78.01,77.34-7.35-.15-14.97.11-22.19-1,4.18,14.29,3.35,21.99,2.49,36.58-3.94-2.61-9.63-4.92-14.05-6.89-9.97,42.93-52.22,53.93-90.92,51.41-18.4,9.34-29.28,15.04-51.13,16.46-19.64,21.63-38.2,40.54-70.68,31.1-20.75,16.6-33.69,25.05-61,30.09-26.66,4.93-54.13-.83-77.67-14.21-7.13-4.05-14.06-10.7-20.74-15.36l-.5-.34c-32.14,8.32-50.94-8.5-70.17-30.94-11.42-1.13-24.84-4.12-35.44-8.55-4.82-2.02-11.81-6.69-16.66-7.64-5.55-.9-11.65-.17-17.19-.63-24.42-2.01-50.88-8.21-64.75-30.52-4.28-6.88-6.36-13.15-9.08-20.75-4.45,2.07-8.87,4.21-13.25,6.4,0-13.21-2.18-22.38,1.82-35.92-5.93.74-15.67.62-21.93.7,5.26-8.45,9.76-17.47,15.43-25.72,17.75-25.85,44.88-52.62,78.13-53.93,10.09-.39,19.33.3,28.31,5.11,7.81-5.92,17.87-9.89,27.33-12.31,12.64-30.15,34.94-46.28,67.3-49.88-6.12-4.61-13.76-9.52-17.82-15.95-4.26-6.69-5.67-14.79-3.93-22.52,4.42-18.89,24.5-27.44,42.43-23.03l-.93-8.97c-16.31-6.31-38.78-20.62-33.2-41.7,5.91-22.28,38.33-28.41,57.79-23.04,4.7-4.61,9.16-8.87,14.74-12.44l.48-.34c3.15-2.48,4.02-2.77,7.78-4.29-.86-14.21,3.34-25.74,11.67-36.97,2.77-3.74,14.74-21.02,17.97-21.58.83,1.82.36,3.22.06,5.26Z"/>
    <g>
      <g>
        <path class="st6" d="M457.16,488.2c-.86-14.21,3.34-25.74,11.67-36.97,2.77-3.74,14.74-21.02,17.97-21.58.83,1.82.36,3.22.06,5.26-4.04,1.57-2.56,3.61-4.28,6.31-11.04,14.87-21.65,26.59-20.12,46.2.26,3.31-.07,3.34-2.9,4.57-3.58,2.13-6.76,4.01-10.18,6.44-3.17,2.78-11.45,11.39-15.35,11.8-.44.05-2.97-.42-3.49-.52-13.87-2.1-28.44-1.1-40.1,7.35-11.03,8-12.67,21.28-4.05,31.74,7.51,9.11,17.63,13.97,28.68,17.27.07,6.47-.03,13.72.71,20.06-6.55-2.09-11.61-4.09-18.65-3.14-10.49,1.43-20.42,8.17-23.69,18.57-1.86,5.79-1.28,12.09,1.6,17.45,5.54,10.21,20.95,19.08,30.95,25.19-34.74,2.66-67.86,12.05-79.13,49.93-8.48,2.65-23.45,8.66-30.4,12.71-1.42.82-24.38-6.64-28.57-4.58-36.62,2.02-68.35,36.97-83.96,67.29-.34.68-.66,1.36-.97,2.05,6.7-.39,13.42-.6,20.13-.64-4.81,13.9-6.41,18.85-4.87,34.07,4.57-2.83,7.75-4.32,12.56-6.55,4.54,18.45,9.1,30.86,26.34,41.84,14.77,9.42,44.54,13.64,61.97,11.5,17.03,9.41,32.6,16.34,52.66,16.67,22.58,26.71,34.02,37.15,70.38,31,17.81,15.76,34.27,25.98,58.15,30.08,35.98,6.16,70.81-4.59,96.84-30.06,18.01,2.9,30.98,4.04,47.27-7.21,10.07-6.96,15.84-15.65,23.9-23.98,22.92-1.47,33.14-5.91,52.77-16.66,12.09,1.71,25.59-.13,37.54-2.37,26.73-5,46.08-21.58,49.66-49.39.07-.59.15-1.19.22-1.78,4.16,2.11,9.14,4.48,13.11,6.78.48-12.54.51-22.06-5.15-33.91,7.06.01,14.12.16,21.17.44-4.94-7.53-9.33-15.26-14.75-22.57-18.35-24.75-44.89-48.56-77.86-46.32-10.21.7-12.86,3.35-21.8,5.36-9.65-6.95-15.63-9.07-26.7-12.71-12-38.6-44.57-50.28-81.52-50.79,12.19-7.57,29.93-16.05,33.33-30.28,1.5-6.35.36-13.03-3.16-18.52-6.23-9.71-18.38-14.34-29.58-12.5l-1.08-.51c-.44-1.4-.8-2.65-1.17-4.06,11.61-4.52,27.46,2.81,34.66,12.3,4.92,6.41,7,14.56,5.76,22.55-1.99,13.53-12.02,19.79-22.23,27.25,8-.3,20.24,3.04,27.63,6.23,21.56,9.3,33.26,23.12,41.93,44.19,7.99,2.99,17.01,6.45,23.74,11.71.43-.26.86-.51,1.3-.76,10.38-5.84,31.24-5.65,42.24-2.13,38.68,12.37,59.51,44.68,78.01,77.34-7.35-.15-14.97.11-22.19-1,4.18,14.29,3.35,21.99,2.49,36.58-3.94-2.61-9.63-4.92-14.05-6.89-9.97,42.93-52.22,53.93-90.92,51.41-18.4,9.34-29.28,15.04-51.13,16.46-19.64,21.63-38.2,40.54-70.68,31.1-20.75,16.6-33.69,25.05-61,30.09-26.66,4.93-54.13-.83-77.67-14.21-7.13-4.05-14.06-10.7-20.74-15.36l-.5-.34c-32.14,8.32-50.94-8.5-70.17-30.94-11.42-1.13-24.84-4.12-35.44-8.55-4.82-2.02-11.81-6.69-16.66-7.64-5.55-.9-11.65-.17-17.19-.63-24.42-2.01-50.88-8.21-64.75-30.52-4.28-6.88-6.36-13.15-9.08-20.75-4.45,2.07-8.87,4.21-13.25,6.4,0-13.21-2.18-22.38,1.82-35.92-5.93.74-15.67.62-21.93.7,5.26-8.45,9.76-17.47,15.43-25.72,17.75-25.85,44.88-52.62,78.13-53.93,10.09-.39,19.33.3,28.31,5.11,7.81-5.92,17.87-9.89,27.33-12.31,12.64-30.15,34.94-46.28,67.3-49.88-6.12-4.61-13.76-9.52-17.82-15.95-4.26-6.69-5.67-14.79-3.93-22.52,4.42-18.89,24.5-27.44,42.43-23.03l-.93-8.97c-16.31-6.31-38.78-20.62-33.2-41.7,5.91-22.28,38.33-28.41,57.79-23.04,4.7-4.61,9.16-8.87,14.74-12.44l.48-.34c3.15-2.48,4.02-2.77,7.78-4.29Z"/>
        <path class="st6" d="M486.86,434.9l.59,1.81c5.18-2.15,7.92-31.13,12.05-33.96,4.34,4.26,7.11,29.01,11.2,32.35.48-2.47.36-5.33,1.54-6.75,3.52,1.79,18.28,23.02,21.54,27.51,5.99,8.24,8.29,20.05,8,30.18,10.5,6.03,16.85,10.11,25.3,19.19,14.42-3.2,32.7-2.41,45.09,6.01,30.45,20.67,6.55,51.8-20.34,58.56l-.56,7.74,1.05,1.17,1.02-.18c.38,1.41.73,2.67,1.17,4.06l1.08.51c-2.06.94-7.94,2.51-10.38,3.23.36-3.27.68-7.07,1.39-10.23.21-3.12.21-6.71.28-9.87,20.15-6.17,50.55-27.27,24.61-49.22-12.04-10.19-31.67-8.63-46.61-6.39-8.9-10.16-16.73-15.3-28.46-21.39,2.15-21.96-7.7-32.36-20.39-48.61-.32,7.78-1.95,16.38-3.48,24-.67-4.82-10.76-42.43-13.65-43.15-4.28,13.84-7.54,26.84-12.61,40.73-.45-3.64-2.35-18.35-3.72-20.99,1.72-2.7.24-4.73,4.28-6.31Z"/>
      </g>
      <path class="st4" d="M398.24,591.08c19.48-1.24,27.3,24.52,52.91,24.33,21.38-.16,34.06-26.5,52.46-24,14.23,1.94,28.12,24.03,46.78,24.11,24.52.1,32.27-24.05,51.99-24.38,4.98.24,11.48,3.39,14.44,7.3,13.5,17.82-11.46,29.14-23.02,37.43-5.86,4.2-11.34,8.18-17,12.63,6.01-15.97,12.32-21.08,24.57-32.57-2.45.98-4.87,2.02-7.27,3.11-18.78,8.64-31.96,22.5-21.81,43.38,5.59,9.57,19.63,21.38,13.91,33.09-3.84,7.87-18.4,11.15-26.39,10.42-18.7-1.7-37.34-5.05-56.21-5.29-13.25.11-27.05,1.4-40.19,3.02-13.93,1.72-27.49,5.69-40.93-.96-6.17-3.05-7.92-7.34-9.89-13.59,3.36-12.29,12.17-18.9,17.53-30.32,10.12-21.57-13.28-35.7-30.11-43.42,11.77,10.7,21.32,18.28,24.77,34.04-7.71-7.02-14.16-11.51-22.7-17.41-13.68-9.44-23.33-12-19.96-30.56,5.54-6.59,7.69-8.34,16.13-10.38Z"/>
      <g>
        <path class="st5" d="M211.51,755.87c13.56-20.59,36.78-41.62,62.51-41.57,20.11.04,34.18,14.19,43.99,30.4,5.49,9.08,8.5,17.5,16.11,25.19-7.58,7.41-15.2,14.78-22.85,22.11,12.78-5.25,28.99-14.2,40.55-22.45,14.62-10.43,35.17-31,51.27-37.89,8.4-3.6,33.64-2.25,42.99-1.42-13.48,15.12-25.13,9.45-39.57,17.59-11.85,6.68-23.02,13.36-35.47,19.72,18.91-4.01,35.72-7.72,54.27.87,12.27,5.68,23.05,11.85,33.85,19.97-17.98,9.41-25.86,7.51-44.92,1.95-4.7,1.4-33.04,10.29-35.15,12.4,1.37,1.41,1.36.91,4.07,1.02l.77,1.73c-1.35,1.48-1.32,1.09-3.6,1.75l-1.39.39c.91,1.05,25.23,7.22,29.02,8.61,16.13,5.91,28.19,21.51,37.54,35.5-23.77,6.96-33.04-1.86-54.1-11.05-9.06,1.51-15,4.34-25.1,5.31,9.6,6.9,21.54,24.7,25.82,36.09-14.53-9.16-21.6-18.87-31.17-32.58-24.75,1.53-36.65-3.42-57.26-16.88-6.62-4.32-13.32-8.32-19.89-13.06,1.55,3.83,3.08,8.74,4.44,12.72-28.75-5.77-52.52-6.37-57.79-41.45.83-.34,5.36-2.1,5.7-1.68,10.18,12.65,17.03,15.35,33.68,18.38-2.53-1.67-5.35-2.76-8.03-4.32-13.83-8.04-13.76-21-17.24-35.17-7.66,2.36-22.88,9.6-31.34,12.97,4.74-18.56,11.4-26.39,25.75-38.04-13.43,4.24-15.66,7.37-27.47,12.9Z"/>
        <path class="st1" d="M383.15,803.75l.77,1.73c-1.35,1.48-1.32,1.09-3.6,1.75-.76-.55-.81-.75-1.42-1.49.85-1.44,2.22-1.39,4.25-1.98Z"/>
        <path class="st5" d="M396.85,658.31c9.12.04,13.22.8,21.86,2.73-5.19,6.83-13.09,14.84-14.94,23.22-4.92,22.21,15.46,29.82,32.12,33.82-3.91.79-6.65,1.26-10.69,1.24-9.87-.04-22.59-5.58-31.56-1.32l-5.28,3.28c-2.12-3.23-4.5-6.29-7.11-9.15-11.12-12.02-24.87-17.49-40.96-18.21,13.85-25.01,28.08-33.51,56.56-35.62Z"/>
        <path class="st5" d="M339.7,709.58c16.28-1.57,30.93,4.36,41.97,16.1-12.36,7-25.49,21.4-34.98,31.79l-5.98,5.9c-9.7-6.34-13.19-18.87-19.9-28.83-4.52-6.72-6.79-9.92-12.13-16.22,12.76-5.99,17.1-6.98,31.02-8.74Z"/>
      </g>
      <g>
        <path class="st5" d="M722.81,714.36c28.9-2.16,49.94,20.68,65.81,41.44-9.47-3.4-14.85-8.78-27.53-12.79,15.92,12.88,19.58,18.96,25.64,38.25-10.67-4.52-21.14-9.44-31.98-13.54-.95,9.29-3.68,26.11-11.74,31.84-2.25,1.6-7.61,4.55-8.84,6.44,14.98.93,21.31-9.7,30.08-17.2,2.79.23,3.58,1.38,4.58,3.62-5.36,32.93-29.64,35.2-57.58,39.54,2.53-4.98,4.69-10.6,6.82-15.79-3.87,2.38-10.96,7.81-14.71,10.6-23.74,17.63-35.25,24.24-65.01,22.83-7.62,13.31-18.28,25.01-31.6,32.74,4.79-9.48,17.3-29.83,26.29-35.94-8.3-1.84-16.48-3.89-24.76-5.77-19.26,8.35-26,15.82-48.01,12.71-2.72-.86-3.09-.46-4.52-2.46.21-2.8,5.51-8.44,7.24-10.7,9.04-11.58,16.91-20.47,31.44-24.88,4.84-1.47,24.19-5.3,26.29-8.08-2.17-.63-3.87-.66-4.91-2.18,1.67-1.98,3.55-.38,5.65-2.42-1.95-1.4-31.94-11.02-36.02-12.29-19.05,5.65-27.3,7.43-44.81-2.06,2.57-1.88,5.19-3.69,7.86-5.42,32.64-21.41,43.99-22.87,80.72-15.26-6.28-3.1-12.71-6.21-18.82-9.59-6.12-3.29-12.95-8.8-19.38-11.29-14.65-5.69-26.45-3.39-37.2-16.76,9.18-.41,34.14-1.8,42.23,1.44,17.03,6.83,38.05,28.59,53.56,39.22,12.74,8.73,24.72,14.75,38.21,21.34-4.79-5.81-16.44-16.45-22.26-22.07,9.96-9.94,14.34-24.74,23.72-35.78,10.12-11.91,18-17.95,33.54-19.76Z"/>
        <path class="st5" d="M602.67,658.29c28.34-.21,46.88,10.32,60.07,35.17-1.73.15-3.46.31-5.19.49-22.58,2.28-32.73,10.27-46.48,27.1-16.57-11.67-34.71,4.2-42.1-3.66.99-.91,12.94-1.8,18.95-7.24,20.71-18.72,9.75-31.53-4.14-48.94,7.64-1.79,11.27-2.33,18.89-2.91Z"/>
        <path class="st5" d="M653.09,709.59c12.63-1.13,26.91,3.3,38.18,8.85-6.2,6.78-11.56,14.27-15.98,22.32-3.37,6.04-9.79,20.87-17.02,21.87-13.71-12.91-22.88-26.84-40.29-37.32,12.56-11.53,18.7-13.65,35.12-15.72Z"/>
      </g>
      <g>
        <path class="st5" d="M495.09,493.44c22.68-2.38,40.42,6.33,57.45,20.18-19.42,7.22-35.92,17.63-48.91,33.91-.76,1.01-1.23,1.51-2.08,2.42l-1.34-.24c-10.95-16.39-33.23-29.74-51.52-36.25,15.29-11.62,26.41-18.5,46.4-20.02Z"/>
        <path class="st5" d="M577.1,524.81c12.99-.85,20.9-.25,30.21,9.28-.48,1.01-1.02,2-1.6,2.96-2.54,4.18-8.6,11.17-13.56,12.34-2.56-1.34,1.09-2.04-.54-5.98-17.76-10.26-43.69,10.07-56.39,21.87-2.91,3.12-12.26,13.81-15.22,14.05-14.88,1.28-12.95-10.77-6.1-19.52,16.04-20.49,38.04-30.67,63.21-35.01Z"/>
        <path class="st5" d="M412.17,524.79c27.15-1.7,73.61,16.49,81.05,47.64.97,4.05-3.88,7.24-7.87,6.98-6.55-.43-8.12-2.93-12.26-7.53-12.65-14.14-39.59-37.11-61.01-29.58-1.69.59-2.03,1.57-2.44,3.11.74,1.59,1.07,2.02,1.14,3.81-4.45.47-31.22-16.6,1.4-24.43Z"/>
        <path class="st5" d="M499.33,450.36c8.22,7.07,12.16,19.78,11.96,30.33,2.42-3.02,6.88-10.82,10.01-11.85,2.91,2.41,3.73,11.72,4.42,15.88-9.77-2.9-15.11-3.53-25.1-3.71-11.49.25-16.73,1.41-27.42,4.54.35-3.36.86-6.7,1.54-10.01.51-2.43.94-4.62,3.07-6,4.83.54,4.41,4.8,8.49,8.03,1.49-.36,1.48-2.45,1.82-4.67,1.26-8.22,6.59-15.58,11.2-22.53Z"/>
      </g>
      <path class="st4" d="M448.06,712.26h72.62c6,0,27.03-.56,31.5.11-.81,1.44-2.08,1.7-3.8,2.57-5.65,1.49-11.37,2.66-17.14,3.51-16.47,2.32-70.48,3.39-83.18-6.19Z"/>
      <g>
        <g>
          <path class="st3" d="M428.47,548.44c7.33,3.62,14.92,10.51,20.65,16.23,2.97,2.99,8.96,8.66,10.51,12.22,6.86,5.68,2.97,14.76-3.68,15.34-2.23-1.05-1.54-.74-3.06-3.19l-.5-2.52c-3.23,3.89-3.11,15.77-2.98,20.89-1.9-.71-4.23-1.5-6.05-2.31-3.52-1.37-6.28-2.78-9.66-4.48-8.2-19.06-8.86-31.75-5.23-52.18Z"/>
          <path class="st3" d="M552.81,564.62c6.82-7.19,12.74-11.13,20.78-16.88,2.27,22.02,3.26,31.57-5.51,52.8-3.2,1.6-6.59,3.39-9.91,4.65-1.78,1.07-2.75,1.51-4.59.82-3.13-6.64-1.12-23.43-9.6-28.38l-1.81-.96c2.45-3.83,7.38-8.9,10.64-12.05Z"/>
        </g>
        <g>
          <path class="st6" d="M449.13,564.67c2.97,2.99,8.96,8.66,10.51,12.22,6.86,5.68,2.97,14.76-3.68,15.34-2.23-1.05-1.54-.74-3.06-3.19l-.5-2.52c-3.23,3.89-3.11,15.77-2.98,20.89-1.9-.71-4.23-1.5-6.05-2.31-3.12-13.68-2.95-28.66,5.77-40.43Z"/>
          <path class="st6" d="M552.81,564.62c7.95,13.78,8.4,25.51,5.36,40.57-1.78,1.07-2.75,1.51-4.59.82-3.13-6.64-1.12-23.43-9.6-28.38l-1.81-.96c2.45-3.83,7.38-8.9,10.64-12.05Z"/>
          <path class="st6" d="M467.28,585.9c4.23,3.42,4.58,4.23,9.7,6.15l-5.09,4.21c-1.95,1.48-4.48,3.12-6.54,4.54,1.37-5.52,1.67-9.28,1.92-14.89Z"/>
          <path class="st6" d="M533.01,587.38l1,1.06c.79,3.32,2.5,8.14.89,10.99-2.07.16-2.27-.7-4.29-2.41-1.67-1.41-4.35-3.21-6.21-4.55,4.12-1.75,5.31-2.14,8.61-5.08Z"/>
        </g>
        <g>
          <path class="st3" d="M542.17,576.67l1.81.96c.73,4.73,1.66,15.8-6.06,14.36-5.09-5.84.28-10.99,4.26-15.32Z"/>
          <path class="st3" d="M459.64,576.89c6.86,5.68,2.97,14.76-3.68,15.34-2.23-1.05-1.54-.74-3.06-3.19.75-6.27,2.42-7.33,6.75-12.15Z"/>
        </g>
      </g>
      <g>
        <path class="st6" d="M469.66,730.14c27.02-4.68,55.17,20.63,65.87,43.64-4.98,4.04-9.28,7.52-13.38,12.48,6.19,12.86,16.28,19.71,29.95,22.86,3.63,5.16,6.42,8.56,11.09,12.78-6.23,5.52-11.81,11.77-17.3,18-2.22-1.34-4.85-2.61-7.18-3.8-19.87-10.88-50.37-27.42-70.63-36.77,4.29-4.36,6.76-7.98,10-13-11.78-12.37-27.71-22.15-43.67-28.06,15.34-7.07,21.97-10.44,28.29-26.23.68-1.7,5.06-1.67,6.96-1.89Z"/>
        <path class="st6" d="M422.38,808.83c14.28,1.75,22.47,1.6,36.48-2.75l81.45,42.48c-2.03,2.19-4.06,4.32-5.91,6.67,7.36,5.38,18.13,10.58,27.2,11.99l-10.35,13.81c-14.4-10.1-25.25-11.14-42.46-7.95-35.22,6.55-51.76,11.6-84.93-5.57,17.24,1.33,27.37-3.63,41.74-11.76-11.35-14.49-28.36-39.5-47.01-45.22l3.79-1.69Z"/>
        <path class="st6" d="M414.36,873.43c1.78.73,5.51,3.07,7.34,4.18,18.42,11.47,38.33,13.01,59.3,10.69,22.16-2.46,41.99-11.67,62.85-.36-3.99,3.81-6.25,5.8-10.67,9.18-33.09,24.69-78.46,25.47-106.54-7.45-3.98-4.67-9.83-10.65-12.28-16.25Z"/>
        <path class="st6" d="M522.88,728.2c4.18-.39,8.94-.48,13.17-.66.44,1.6.93,3.19,1.5,4.75,5.89,16.25,12.69,18.94,27.47,25.83-5.19,2.16-11.02,5.31-16.1,7.89-.8.56-2.7,1.93-3.4,1.79-2.02-.41-8.39-11.22-9.37-12.87-6.84-11.49-16.9-18.54-27.34-26.21,4.62.03,9.45-.29,14.08-.53Z"/>
        <path class="st6" d="M589.66,864.12l.36.8c-4.09,10.95-17.91,26.52-26.69,34.3l-1.14-.59c-.64-4.35-1.91-7.01-3.93-10.82,5.77-5.7,10.26-12.74,14.78-19.45,5.71-1.69,10.69-1.69,16.62-4.23Z"/>
        <path class="st6" d="M551.16,896l.56.99c0,16.61-26.2,22.04-39.23,24.15l-.5-.49.48-.88c14.25-4.91,27.35-13.98,38.69-23.76Z"/>
        <path class="st6" d="M578.63,808.84l1.99-.21.4.73c-2.21,2.24-7.07,4.33-10.08,5.64l-6.1-5.14c4.39-.03,9.36-.61,13.78-1.02Z"/>
        <path class="st2" d="M418.59,810.52c-4.21-1.1-15.46-2.45-17.4-4.17l.17-.78c3.93-1.04,16.25,2.2,21.02,3.25l-3.79,1.69Z"/>
      </g>
    </g>
  </g>
  <g>
    <g>
      <path class="st2" d="M757.08,258.82c.92-40.66.15-84.41.17-125.31l.07-44.8c.12-20.8.32-31.43,5.65-51.62-21.28,5.56-42.07,13.15-63.7,17.88-11.38,2.49-25.69,4.97-36.25,9.18-3.72,1.48-16.01,14.75-19.37,18.17l.21,167.09-.15,44.09c4.14,4.11,15.71,15.04,18.82,19.06,15.8,3.4,31.52,7.16,47.14,11.27,1.31.33,5.76,1.53,6.84,1.63,14.68,4.84,31.53,9.49,46.56,14.12-8.49-29.62-5.74-49.7-6-80.76ZM716.51,286c-2.22.81-8.81-.55-11.65-.93-5.91-1.09-15.74-2.21-20.35-5.63l.08-122.88c0-8.57-.95-57.93,1.61-61.54,5.14-3.12,23.23-5.2,30-6.06l.41,142.63c.02,17.12-.57,37.68-.1,54.41Z"/>
      <path class="st2" d="M340.67,204.6c6.44-5.31,13.59-10.97,19.59-16.67l-.1-105.02c-3.19-3.33-16.07-17.34-19.53-18.63-13.46-5.02-32.31-8.04-46.86-11.81-18.48-4.8-35.24-10.32-53.24-15.46,6.45,24.78,5.19,35.09,5.16,60.75l.02,44.36.18,104.56c.04,18.88-.26,38.8.22,57.6-.82,11.55-1.94,23.58-6.25,34.38,13.37-5.3,31.89-10.3,46.1-14.08,2.81-.73,3.3-.24,4.67-2.61.09-4.35-2.1-9.73-3.43-14.26-2.28-15.44-1.02-39.94-1.28-56.54-.16-10.49-.43-34.13.75-43.63,11.25-2.36,40.69-2.21,53.99-2.94ZM286.06,132.48c-.02-14.01-.11-28.41.58-42.37,8.83.17,23.53,2.85,31.6,6.22.67,12.8.27,27.69.43,40.61.09,7.25.51,25.93-1,32.16-5.71.82-25.35-.15-30.97-1.19-.89-11.38-.62-23.91-.64-35.42Z"/>
    </g>
    <g>
      <path class="st2" d="M497.11,248.54c-2.63-12.65-6.36-26.51-9.43-39.2l-17.9-74.31c-1.89-7.86-3.84-16.38-5.85-24.13-3.92-15.08-5.82-18.55.28-32.98-18.56-1.42-39.37-2.45-57.59-4.4,1.37,3.76,4.73,11.93,4.33,15.51-1.32,11.8-5.39,25.64-8.08,37.32-7.7,33.44-15.19,66.92-22.47,100.45-1.39,6.32-8.64,37.36-8.93,42.51-3.88,15.74-6.78,24.67-13.75,39.74,14.68-3.45,38.36-6.48,53.65-7.93-1.28-3.49-2.82-6.87-4.32-10.27,1.34-7.11,7.99-40.25,10.65-44.3,6.81-3.02,18.41-1.94,26.6-3.04l.84-.12c11.41.09,10.68,4.38,12.71,14.23,1.15,6.91,5.04,21.7,6.96,28.57-1.72,3.69-2.75,7.04-4.01,10.88,14.2-.66,39.44-.8,53.5-.07-10.52-21.01-11.61-25.18-17.2-48.46ZM435.21,212.79l-11.3-.07c4.22-15.6,7.98-34.08,11.55-50.04l.52.64c1.76,13.01,7.8,35.36,10.55,49.41l-11.31.06Z"/>
      <path class="st2" d="M584.5,107.68c-.82,12.83-.17,29.67-.29,42.73-.3,30.93.38,62.13-.16,93.05.39,20.56-2.18,38.85,6.09,57.94-9.22-.83-46.5-4.92-53.42-4.1,3.85-8.34,5.93-13.45,6.38-22.81-.52-11.03-.14-24.69-.16-36.02l-.17-80.47c-.03-15.63.32-33.17-.48-48.59-14.23-1.86-34.02,1.73-48.11,4.1.79-7.39,5.43-27.21,7.52-34.71,17.16.28,36.67-1.17,53.81-2.46,21.73-1.63,47.76-3.59,69.19-7.39,1.83,10.97,5.46,25.39,7.9,36.43-16.22-.35-32.02-2.37-48.1,2.28Z"/>
      <path class="st5" d="M342.5,369.57c2.03-1.7,5.16-4.19,6.88-6.06.14-10.54.19-21.09.16-31.64-1.89-1.46-3.84-3.01-5.8-4.36-9.67-.78-23.44-.5-33.36-.3,1.37,9.51,1.61,84.95-.2,93.73,5.57-1.87,30.19-8.78,33.34-10.68,1.57-1.51,3.84-3.56,5.24-5.14.3-9.36,1.25-22.29.06-31.79-.16-1.3-4.96-3.17-6.33-3.77ZM336.16,400.95c-1.43,1.77-3.37,1.99-5.67,2.66l-6.35,1.46c.08-6.78-1.23-20.77.79-27.29.29-.94,2.08-1.05,3.4-1.38l8.02-.47c.03,6.02.59,19.8-.18,25.03ZM336.25,364.53c-3.91.65-7.92,1.09-11.86,1.57-.29-9.02-.05-18.48.05-27.54,4.12-.09,8.33-.07,12.45-.1.05,7.24.14,19.18-.64,26.07Z"/>
      <path class="st5" d="M497.89,330.97c-3.58-2.12-4.79-2.97-8.85-3.55l-.6-.09c-5.23-.75-14.77-.26-20.39-.08-3.84.71-5.37,1.6-8.91,3.31-.26,18.71-.86,38.68-.85,57.29l.77.41c8.79,4.6,12.53-.85,12.28,10.51,3.16-.1,11.18.08,13.3-1.63l-.03-1.29c-.06-3.09-.55-2.68.89-4.68,4.97-2.26,7.1-1.76,12.26-4.05.29-17.64.59-38.56.11-56.14ZM484.3,382.33c-4.06.23-8.38.12-12.46.09.07-15.11-.19-32.15.74-47.07,3.89-.2,8.36-.15,12.29-.2.01,15.73-.18,31.45-.57,47.18Z"/>
      <path class="st5" d="M388.96,337.45c-.45-1.65-.45-7.76-.53-9.9-3.16-.79-13.16-.56-16.94-.56.54,1.54,1.3,3.7.96,5.32-3.86,18.01-8.44,35.89-12.48,53.87-1.54,6.87-3.29,15.53-5.89,21.98,5.02-1.55,9.82-2.41,15.01-3.15.04-7.59,1.33-12.81,3.36-20.01l7.98-1.4c4.71-.57,5.31-1.27,7.72,3.94,1.52,3.28-.05,10.8,1.88,12.81,5.08-.5,9.65-2.18,14.27-2.56-6.88-19.62-9.93-40.31-15.34-60.35ZM374.43,374.22c1.98-4.87,3.04-10.03,4.03-15.18.4-1.85.7-4.62,2-5.78,1.06,2.11.98,4.19,1.14,6.59.22,4.48,1.67,9.68,2.77,14.1l-9.94.27Z"/>
      <path class="st0" d="M653.2,327l38.23.06c.14,4.79.73,8.01,1.93,12.61-9.18-1.39-17.24-1.17-26.49-1.15.02,3.93.05,8.68-.27,12.54-1.17,13.97,1.06,14.68,13.57,13.95-.16,5.07-.33,9.02.48,14.07-.87-.42-1.75-.8-2.65-1.15-3.26-1.24-7.5-2.63-10.69-1.18-.7,3.69-.91,22.19.49,25.25,10.32,3.37,15,4.52,25.74,5.65-1.25,5.05-1.79,7.38-2.25,12.56-12.48-3.79-24.99-7.46-37.54-11,1.74-6.42.97-72.67-.55-82.19Z"/>
      <path class="st5" d="M532.7,327.06c3.88-.02,12.9-1.49,15.08,1.53l-.7,2.95c-.32,18.42.27,38.14.51,56.65-2.19.92-4.62,2.19-6.78,3.25-9.57-1.4-24.08.73-31.34-4.49-2.88-7.49-.02-46.87-2.1-58.93l-.16-.87c3.54.21,11.11-.15,14.93-.22-1.68,7.43-.84,45.63-.79,55.43,4.32.23,8.64.56,12.95.3.08-10.44.42-47.13-1.61-55.59Z"/>
      <path class="st5" d="M419.07,327.18c7.9-.15,15.8-.13,23.7.04l6.61,4.01c-.33,4.64-.36,7.64.75,12.12l-15.14.54c.88-3.09,1.98-5.03-.11-7.78-2.79-1.23-8.21-.46-11.52-.25l.03,21.14c6.07-.55,12.53-.88,18.64-1.3l6.67,3.92c.14,9.39-.1,19.37-.18,28.81-4.26,3.6-5.52,4.13-10.94,4.88-7.16,1.17-14.33,1.72-21.76,3.02-8.41-4.32-5.1-7.37-7.19-15.58l-.21-.8c4.72-.34,10.73-1.33,15.52-1.98l-1.39,8.63c4.2-.79,8.85-.92,13.15-1.17l.08-20.94c-10.38,1.07-16,2.73-25.46-1.47-.2-10.17.08-21.43.14-31.68,3-1.85,5.13-3.44,8.59-4.15Z"/>
      <path class="st7" d="M557.71,326.96c12.54.16,25.08.17,37.61.03,1.64,3.75,2.29,6.55,3.32,10.52-8.84-2.46-17.53-1.85-26.7-1.8.02,6.72.34,13.83.54,20.58,5.19.29,7.9.24,12.99-.56l.06,11.17c-5.17-1.25-7.72-1.55-13.01-1.91l.33,18.74c-.05,1.06-.13.51.81,1.62,8.51,1.77,17.15,2.81,25.84,3.11l-1.94,9.07c-11.78-.97-25.29-3.49-37.96-4.65-.33-.51.63-56.36-1.69-65.23-.06-.23-.13-.47-.19-.7Z"/>
      <path class="st5" d="M603.55,327.09l41.28-.1c.58,3.81,1.23,7.62,1.96,11.4-5.63-.73-10.37-.91-16.02-1.15-.41,17.16.56,39.06.7,56.81.37,4.5.56,6.14,1.71,10.46-5.24-1.4-10.27-2.33-15.59-3.37,1.98-7.13.27-53.53-.2-64.53-6.88-.35-9.89-.22-16.66,1.12.81-3.46,1.89-7.19,2.82-10.64Z"/>
    </g>
  </g>
  <g>
    <g>
      <path class="st8" d="M257.72,657.8c3.81-1.05,7.89.04,10.66,2.85,2.77,2.82,3.8,6.91,2.69,10.7-1.11,3.79-4.19,6.68-8.04,7.55-5.77,1.31-11.52-2.23-12.96-7.97-1.44-5.73,1.96-11.57,7.66-13.14Z"/>
      <path class="st8" d="M289.65,628.47c5.35-.46,10.12,3.36,10.85,8.68.73,5.33-2.85,10.28-8.13,11.27-3.66.68-7.39-.7-9.72-3.6-2.33-2.9-2.87-6.85-1.4-10.27,1.46-3.42,4.69-5.75,8.4-6.07Z"/>
      <path class="st8" d="M227.15,629.1c5.17-1.92,10.92.69,12.89,5.84,1.97,5.15-.58,10.93-5.71,12.95-5.21,2.05-11.08-.54-13.08-5.77-2-5.23.65-11.08,5.9-13.02Z"/>
      <path class="st8" d="M320.07,599.16c5.1-.14,9.37,3.81,9.65,8.9.28,5.09-3.55,9.48-8.63,9.89-3.42.28-6.71-1.32-8.61-4.17-1.9-2.85-2.1-6.51-.52-9.55,1.58-3.04,4.68-4.99,8.11-5.08Z"/>
      <path class="st8" d="M260.21,599.2c5.04-.19,9.33,3.64,9.69,8.68.36,5.03-3.33,9.44-8.34,9.98-3.4.36-6.72-1.16-8.67-3.97-1.95-2.81-2.21-6.46-.69-9.51,1.53-3.06,4.6-5.04,8.01-5.17Z"/>
      <path class="st8" d="M350.03,627.99c4.85.95,11.1,4.5,9.96,10.21-1.77,2.7-7.46,5.17-10.65,6.93-10.89,6.02-14.39-13.74.69-17.14Z"/>
      <path class="st8" d="M317.38,657.39c3.91-.18,7.39-.33,9.9,2.94.69,4.75-5.73,12.46-8.7,16.95-.66,1.08-.27.59-1.91,1.16-2.08-.6-3.98-1.86-5-3.76-4.41-8.22-.86-13.21,5.71-17.29Z"/>
      <path class="st8" d="M229.36,686.01c3.29.26,10.72,2.13,11.01,6-2.04,4.45-7.88,6.65-12.3,8.92-2.1,1.54-2.72,2.06-5.12,3.02-2.45-.39-1.53.04-3.33-1.76-2.73-7.38,3.27-13.59,9.74-16.17Z"/>
      <path class="st8" d="M349.02,570.19c4.59-.6,8.83,2.54,9.6,7.1.76,4.57-2.23,8.92-6.77,9.83-3.08.62-6.25-.48-8.27-2.88-2.02-2.4-2.58-5.71-1.44-8.64,1.14-2.93,3.78-5,6.89-5.41Z"/>
      <path class="st8" d="M227.64,570.8c2.9-1.15,6.2-.64,8.61,1.34,2.41,1.98,3.56,5.11,3,8.18-.56,3.07-2.74,5.6-5.7,6.59-4.41,1.49-9.21-.8-10.81-5.18-1.6-4.37.57-9.22,4.89-10.94Z"/>
      <path class="st8" d="M289.49,570.2c4.64-.48,8.8,2.83,9.39,7.46.59,4.62-2.62,8.87-7.22,9.57-3.08.47-6.18-.77-8.08-3.23-1.91-2.47-2.33-5.77-1.1-8.64,1.23-2.86,3.91-4.84,7.02-5.16Z"/>
      <path class="st8" d="M257.99,541.49c2.69-.94,5.68-.35,7.82,1.54,2.14,1.89,3.08,4.78,2.48,7.57-.6,2.79-2.67,5.03-5.39,5.86-4.1,1.26-8.46-1-9.79-5.08-1.34-4.08.84-8.47,4.89-9.89Z"/>
      <path class="st8" d="M317.88,541.57c2.67-.9,5.62-.27,7.7,1.64,2.08,1.91,2.96,4.79,2.29,7.53-.66,2.74-2.76,4.91-5.48,5.65-4.04,1.11-8.24-1.2-9.46-5.22-1.22-4.01.97-8.27,4.95-9.6Z"/>
      <path class="st8" d="M288.72,512.15c3.69-1.03,7.52,1.09,8.59,4.77,1.07,3.67-1.02,7.53-4.69,8.63-3.72,1.12-7.63-1-8.72-4.73-1.09-3.73,1.08-7.62,4.82-8.67Z"/>
      <path class="st8" d="M348.35,512.21c3.64-1.09,7.48.93,8.64,4.55,1.16,3.62-.8,7.5-4.4,8.72-2.38.81-5.02.27-6.89-1.42-1.87-1.68-2.69-4.24-2.14-6.7.55-2.46,2.38-4.42,4.79-5.15Z"/>
      <path class="st8" d="M229.28,512.07c3.72-.71,7.32,1.69,8.09,5.39.77,3.71-1.57,7.34-5.26,8.18-2.44.55-4.99-.26-6.67-2.12-1.68-1.86-2.22-4.47-1.43-6.85.79-2.37,2.81-4.13,5.26-4.6Z"/>
      <path class="st8" d="M318.43,483.2c3.22-1.15,6.77.53,7.91,3.75,1.14,3.22-.55,6.76-3.78,7.89-3.21,1.12-6.73-.56-7.86-3.77-1.14-3.21.53-6.73,3.74-7.88Z"/>
      <path class="st8" d="M258.48,483.18c2.11-.78,4.48-.35,6.18,1.12,1.7,1.47,2.46,3.76,1.97,5.96-.48,2.2-2.13,3.96-4.29,4.59-3.18.93-6.52-.83-7.56-3.97-1.04-3.14.59-6.55,3.7-7.7Z"/>
      <path class="st8" d="M378.28,483.13c2.14-.68,4.48-.11,6.09,1.46,1.61,1.57,2.22,3.9,1.59,6.06-.63,2.16-2.39,3.8-4.59,4.27-3.18.68-6.34-1.26-7.17-4.41-.83-3.15.96-6.39,4.07-7.37Z"/>
      <path class="st8" d="M348.88,453.82c1.92-.46,3.93.15,5.28,1.6,1.34,1.45,1.79,3.51,1.18,5.39-.61,1.87-2.19,3.27-4.13,3.65-2.91.57-5.74-1.29-6.37-4.18-.63-2.89,1.16-5.76,4.04-6.46Z"/>
      <path class="st8" d="M408.51,453.91c2.88-.81,5.87.88,6.66,3.76.8,2.88-.91,5.86-3.8,6.64-2.87.77-5.82-.91-6.61-3.78-.79-2.86.88-5.82,3.74-6.63Z"/>
      <path class="st8" d="M289.01,453.97c1.85-.5,3.83.04,5.17,1.4,1.35,1.37,1.86,3.35,1.34,5.19-.52,1.84-1.99,3.27-3.86,3.72-2.84.7-5.71-1.02-6.43-3.85-.73-2.83.96-5.72,3.78-6.47Z"/>
      <path class="st8" d="M229.25,454.05c2.73-.85,5.65.62,6.6,3.32.95,2.7-.42,5.67-3.09,6.7-1.81.7-3.86.36-5.34-.88-1.49-1.25-2.17-3.21-1.79-5.11.38-1.9,1.77-3.45,3.63-4.03Z"/>
      <path class="st8" d="M437.99,425.18c2.26-1.07,4.96-.14,6.09,2.09,1.13,2.23.28,4.95-1.92,6.15-1.47.8-3.27.74-4.69-.17-1.41-.91-2.23-2.51-2.12-4.18.11-1.68,1.12-3.16,2.64-3.88Z"/>
      <path class="st8" d="M378.8,425.07c1.58-.54,3.33-.17,4.55.97,1.22,1.14,1.72,2.86,1.3,4.47-.42,1.62-1.7,2.87-3.33,3.26-2.35.56-4.74-.82-5.41-3.14-.68-2.32.59-4.77,2.88-5.55Z"/>
      <path class="st8" d="M259.51,424.48c1.23.19,1.94.48,3.11.86,2.93,3.54,2.07,5.55-.73,9.05-6.79-1.57-6.53-5.45-2.38-9.91Z"/>
      <path class="st8" d="M288.19,397.15c1.14-1.16,2.98-1.26,4.23-.22,1.26,1.03,1.51,2.85.6,4.2-.67.98-1.84,1.5-3.02,1.34-1.18-.16-2.16-.97-2.55-2.1-.38-1.12-.1-2.37.73-3.22Z"/>
      <path class="st8" d="M228.74,397.01c.87-.75,2.09-.94,3.15-.51,1.06.44,1.79,1.44,1.88,2.58.09,1.14-.47,2.24-1.45,2.84-1.36.82-3.12.47-4.05-.81-.93-1.28-.72-3.07.48-4.1Z"/>
      <path class="st8" d="M286.04,687.68c2.81.14,7.93.01,9.97,1.59l-.11,1.35c-3.5-.73-6.78-.48-10.2-1.6l.34-1.34Z"/>
      <path class="st8" d="M439.3,483.91l2.34.48.27.75c-2.48,1.38-3.24,1.93-5.12,4.06l-.86,1.09-.65-.53c.28-3.37,1.17-4.08,4.01-5.85Z"/>
    </g>
    <g>
      <path class="st8" d="M736.02,657.8c3.81-1.04,7.89.07,10.65,2.9,2.76,2.83,3.77,6.93,2.64,10.72-1.14,3.79-4.23,6.66-8.09,7.5-5.76,1.26-11.48-2.3-12.89-8.03-1.41-5.73,2.01-11.53,7.69-13.09Z"/>
      <path class="st8" d="M768.2,628.31c5.48-.26,10.17,3.86,10.63,9.32.45,5.46-3.5,10.3-8.94,10.95-3.7.44-7.34-1.17-9.5-4.21-2.16-3.03-2.49-7-.86-10.35,1.63-3.35,4.95-5.54,8.67-5.72Z"/>
      <path class="st8" d="M705.36,629.08c5.23-1.98,11.07.66,13.03,5.89,1.96,5.23-.7,11.07-5.94,13.01-5.21,1.93-11.01-.71-12.96-5.92-1.95-5.2.67-11.01,5.87-12.98Z"/>
      <path class="st8" d="M735.82,599.63c3.27-1.07,6.86-.28,9.37,2.07,2.51,2.35,3.55,5.88,2.71,9.21-.84,3.33-3.43,5.94-6.76,6.81-4.93,1.29-9.99-1.58-11.42-6.46-1.44-4.89,1.27-10.03,6.11-11.62Z"/>
      <path class="st8" d="M678.66,599.21c5.13-.19,9.45,3.78,9.69,8.91.24,5.12-3.68,9.49-8.8,9.79-3.36.2-6.57-1.43-8.4-4.25-1.83-2.83-2-6.42-.45-9.41,1.55-2.99,4.59-4.91,7.96-5.03Z"/>
      <path class="st8" d="M647.91,570.2c4.66-.72,9.04,2.45,9.81,7.1.77,4.65-2.34,9.06-6.99,9.89-3.05.54-6.16-.6-8.14-2.98-1.98-2.39-2.52-5.65-1.42-8.55,1.1-2.9,3.67-4.98,6.74-5.45Z"/>
      <path class="st8" d="M764.61,686.89c2.23-.29,4.24-.57,6.48-.11,3.05.6,5.68,2.5,7.2,5.21,1.82,3.2,3.06,9.66-.94,11.68l-1.89-.78c-6.23-3.45-11.89-6.59-18.33-9.6,2.97-3.13,3.95-3.9,7.49-6.41Z"/>
      <path class="st8" d="M707.99,570.18c3.11-.27,6.13,1.17,7.87,3.77,1.74,2.59,1.94,5.93.51,8.71-1.43,2.78-4.26,4.56-7.38,4.66-4.65.14-8.56-3.44-8.83-8.08-.27-4.64,3.2-8.65,7.83-9.05Z"/>
      <path class="st8" d="M767.67,570.25c4.63-.51,8.81,2.78,9.4,7.4.59,4.62-2.63,8.86-7.24,9.53-3.05.44-6.1-.8-7.98-3.24-1.88-2.44-2.3-5.71-1.09-8.55,1.21-2.83,3.85-4.8,6.91-5.14Z"/>
      <path class="st8" d="M648.6,628.05c8.11,1.54,13.97,9.39,8.57,16.06-2.68.78-1.62.64-4.87-.34-4.63-2.59-12.97-4.4-12-10.77,1.76-2.6,5.38-4.07,8.29-4.94Z"/>
      <path class="st8" d="M676.48,541.46c2.74-.93,5.78-.28,7.91,1.69,2.12,1.97,3,4.95,2.27,7.76-.73,2.81-2.93,4.99-5.75,5.68-4.1,1.01-8.27-1.39-9.45-5.44-1.19-4.06,1.03-8.32,5.03-9.68Z"/>
      <path class="st8" d="M677.69,657.33c12.67-.07,14.84,10.88,7.98,20.3-1.76-.93-10.91-15.01-12.66-17.75,1.55-1.92,2.1-1.65,4.68-2.55Z"/>
      <path class="st8" d="M736.2,541.54c2.67-.93,5.63-.34,7.73,1.55,2.1,1.88,3.02,4.76,2.4,7.51-.62,2.76-2.69,4.95-5.4,5.74-4.05,1.18-8.29-1.08-9.58-5.1-1.28-4.01.87-8.32,4.85-9.71Z"/>
      <path class="st8" d="M647.57,512.05c3.73-.84,7.44,1.49,8.32,5.21.88,3.72-1.41,7.46-5.12,8.38-2.44.6-5.01-.15-6.74-1.98s-2.34-4.43-1.61-6.83c.73-2.4,2.7-4.23,5.15-4.78Z"/>
      <path class="st8" d="M766.88,512.19c3.67-1.05,7.51,1.05,8.6,4.71,1.09,3.66-.97,7.52-4.62,8.65-2.4.74-5.01.14-6.84-1.58s-2.59-4.29-2-6.72c.59-2.44,2.45-4.37,4.86-5.06Z"/>
      <path class="st8" d="M707.11,512.19c3.69-1.06,7.54,1.06,8.62,4.74,1.08,3.68-1.02,7.54-4.7,8.64-3.7,1.1-7.59-1.02-8.67-4.72-1.08-3.71,1.05-7.59,4.76-8.66Z"/>
      <path class="st8" d="M617.05,483.14c2.13-.78,4.53-.33,6.23,1.18,1.7,1.51,2.44,3.83,1.92,6.04-.52,2.21-2.21,3.97-4.4,4.56-3.2.87-6.52-.94-7.52-4.1-1-3.16.66-6.55,3.78-7.69Z"/>
      <path class="st8" d="M736.85,483.2c3.16-1.17,6.68.43,7.87,3.58,1.2,3.16-.37,6.68-3.52,7.91-3.18,1.24-6.76-.35-7.98-3.55-1.21-3.19.42-6.76,3.62-7.94Z"/>
      <path class="st8" d="M676.97,483.19c2.14-.79,4.55-.33,6.24,1.2,1.69,1.53,2.4,3.87,1.83,6.08-.57,2.21-2.31,3.92-4.54,4.45-3.16.74-6.35-1.1-7.28-4.2s.71-6.4,3.75-7.53Z"/>
      <path class="st8" d="M587.77,453.94c2.74-.91,5.71.48,6.79,3.16,1.08,2.68-.11,5.73-2.72,6.98-1.84.88-4.01.66-5.64-.56-1.63-1.22-2.44-3.25-2.12-5.26.33-2.01,1.75-3.67,3.68-4.31Z"/>
      <path class="st8" d="M767.49,453.83c1.94-.39,3.94.32,5.21,1.84,1.27,1.52,1.6,3.61.87,5.46-.73,1.84-2.41,3.14-4.38,3.38-2.89.35-5.53-1.64-5.99-4.52s1.43-5.59,4.28-6.16Z"/>
      <path class="st8" d="M708.01,453.36c6.68.18,7.87,7.36,1.68,11.76-7.65-2.52-8.28-7.31-1.68-11.76Z"/>
      <path class="st8" d="M647.76,454.02c1.87-.5,3.86.06,5.19,1.46,1.34,1.4,1.8,3.42,1.21,5.26-.59,1.84-2.13,3.22-4.03,3.59-2.8.55-5.53-1.22-6.17-4-.64-2.78,1.03-5.57,3.79-6.31Z"/>
      <path class="st8" d="M557.66,425.17c1.57-.66,3.38-.39,4.68.71,1.31,1.1,1.88,2.83,1.5,4.5-.39,1.66-1.67,2.97-3.32,3.38-2.3.57-4.65-.72-5.4-2.97-.75-2.25.36-4.7,2.54-5.62Z"/>
      <path class="st8" d="M738.21,424.62c1.51,0,1.81.28,3.19.91,2.98,3.76,1.47,6-1.86,9.03-3.43-1.65-4.83-1.86-5.38-5.6.8-2.37,1.98-2.86,4.05-4.34Z"/>
      <path class="st8" d="M617.41,425.35c1.43-.71,3.14-.59,4.46.31,1.32.9,2.05,2.45,1.91,4.04-.14,1.59-1.13,2.99-2.59,3.64-2.2.99-4.79.04-5.82-2.15-1.03-2.18-.12-4.78,2.04-5.85Z"/>
      <path class="st8" d="M767.07,397.25c1.18-.9,2.87-.69,3.8.47.93,1.16.77,2.85-.36,3.81-.76.65-1.81.83-2.75.48-.94-.35-1.61-1.18-1.75-2.18-.14-.99.26-1.98,1.06-2.59Z"/>
      <path class="st8" d="M703.21,688.36c2.37-.19,9.08-1.07,10.62.63l-1.22.51-1.04.19c-2.67.47-6.71,1.56-8.79.11l.43-1.43Z"/>
      <path class="st8" d="M708.67,396.11c1.75.44,1.73.34,3.02,1.73.49,2.12-.23,3.06-1.18,5.14-1.6-.16-1.51-.27-2.81-1.26-.67-2.15.14-3.42.97-5.6Z"/>
      <path class="st8" d="M557.15,483.62c3.04.19,6.38,1.26,6.7,4.59l-.6.08c-2.28-1.59-4.05-2.74-6.1-4.68Z"/>
    </g>
  </g>
</svg>