<?xml version="1.0" encoding="utf-8"?>
<!-- Generator: Adobe Illustrator 16.0.0, SVG Export Plug-In . SVG Version: 6.00 Build 0)  -->
<!DOCTYPE svg PUBLIC "-//W3C//DTD SVG 1.1//EN" "http://www.w3.org/Graphics/SVG/1.1/DTD/svg11.dtd">
<svg version="1.1" id="Capa_1" xmlns="http://www.w3.org/2000/svg" xmlns:xlink="http://www.w3.org/1999/xlink" x="0px" y="0px"
	 width="612px" height="681px" viewBox="0 0 612 681" enable-background="new 0 0 612 681" xml:space="preserve">
<g>
	<path fill-rule="evenodd" clip-rule="evenodd" fill="#201A17" d="M608.908,193.585v-78.352
		C484.021,112.451,376.595,62.443,308.206,3h-2.119c-64.998,56.498-179.789,112.233-300.7,112.233v52.94
		c0,124.885,44.631,232.117,91.115,311.231c16.403,27.918,66.563,92.439,91,110.173c17.908,12.999,34.856,30.348,55.027,44.5
		c6.498,4.561,58.907,38.088,63.557,38.088c18.775,0,100.575-65.087,115.909-78.914c36.977-33.339,61.792-62.891,89.925-104.895
		c25.129-37.516,47.771-84.629,63.374-131.446c8.245-24.745,15.169-48.581,20.747-76.665
		C597.652,272.138,608.697,193.915,608.908,193.585z"/>
	<path fill-rule="evenodd" clip-rule="evenodd" fill="#DA2925" d="M261.619,299.466l-0.203,315.861l45.03,27.79l46.229-28.127
		V299.466c-25.968,0-26.609,3.062-31.764-19.059h-36C267.663,280.407,291.19,299.466,261.619,299.466z"/>
	<path fill-rule="evenodd" clip-rule="evenodd" fill="#DA2925" d="M433.145,185.115c32.469,0,71.999-2.562,71.999,29.646v8.47
		c0,23.227-16.875,33.883-40.234,33.883h-21.177v42.352h-10.588v245.643c15.354-10.28,88.94-111.971,88.94-133.41V136.41
		c0-7.399-36.539-13.083-42.839-14.337c-15.25-3.037-32.366-12.05-46.102-13.192V185.115z"/>
	<path fill-rule="evenodd" clip-rule="evenodd" fill="#DA2925" d="M181.148,303.701c-47.437,0-71.999-11.988-71.999-59.293v-4.235
		c0-42.873,28.213-55.058,71.999-55.058v-76.234c-6.955,0.579-36.138,9.82-44.769,12.405c-7.829,2.345-44.17,6.89-44.17,15.125
		v275.288c0,21.439,73.585,123.13,88.939,133.41V303.701z"/>
	<path fill-rule="evenodd" clip-rule="evenodd" fill="#DA2925" d="M261.619,235.938c5.875-8.455,15.891-52.94,25.411-52.94
		l33.411,0.177l32.235,82.41l-0.217-196.629l-44.458-32.365l-46.382,32.057V235.938z"/>
	
		<polygon fill-rule="evenodd" clip-rule="evenodd" fill="#FFFFFF" stroke="#FFFFFF" stroke-width="0.5669" stroke-miterlimit="22.9256" points="
		238.324,299.466 261.619,299.466 276.291,299.315 284.913,280.407 320.912,280.407 326.767,299.468 352.676,299.466 
		367.603,299.319 320.44,183.174 280.16,183.324 	"/>
	
		<path fill-rule="evenodd" clip-rule="evenodd" fill="#FFFFFF" stroke="#FFFFFF" stroke-width="0.5669" stroke-miterlimit="22.9256" d="
		M433.145,299.466h10.588v-42.352h21.177c23.359,0,40.234-10.656,40.234-33.883v-8.47c0-32.208-39.53-29.646-71.999-29.646h-25.411
		v114.351H433.145z"/>
	<path fill-rule="evenodd" clip-rule="evenodd" fill="#DA2925" d="M183.267,269.819v-50.822c-2.835-2.464-5.435-6.353-10.588-6.353
		h-6.353c-11.513,0-21.177,9.77-21.177,21.175v19.059c0,13.669,7.928,25.411,21.177,25.411
		C174.349,278.29,179.82,274.522,183.267,269.819z"/>
	<path fill-rule="evenodd" clip-rule="evenodd" fill="#DA2925" d="M443.732,233.819h12.706c7.137,0,14.824-3.742,14.824-10.588
		v-2.117c0-8.7-11.643-12.706-21.177-12.706h-6.354V233.819z"/>
	<polygon fill-rule="evenodd" clip-rule="evenodd" fill="#DA2925" points="288.833,254.904 313.648,254.625 300.556,215.002 	"/>
	
		<path fill-rule="evenodd" clip-rule="evenodd" fill="#FFFFFF" stroke="#FFFFFF" stroke-width="0.5669" stroke-miterlimit="22.9256" d="
		M181.148,303.701c6.685-0.105,37.482-11.702,38.118-40.235c-35.066-8.17-22.415-13.935-36,6.353
		c-3.447,4.704-8.918,8.471-16.941,8.471c-13.249,0-21.177-11.742-21.177-25.411v-19.059c0-11.405,9.664-21.175,21.177-21.175h6.353
		c5.153,0,7.753,3.889,10.588,6.353l4.342,8.956l31.658-6.838c-8.967-24.338-26.207-32.897-38.118-36
		c-41.496-5.234-71.999,12.185-71.999,55.058v4.235C109.15,291.713,131.749,308.281,181.148,303.701z"/>
</g>
</svg>
