<?xml version="1.0" encoding="UTF-8"?>
<svg xmlns="http://www.w3.org/2000/svg" version="1.1" viewBox="0 0 400 400">
  <defs>
    <style>
      .cls-1, .cls-2 {
        fill: #bb262c;
      }

      .cls-3, .cls-4 {
        fill: #fff;
      }

      .cls-4, .cls-2, .cls-5 {
        fill-rule: evenodd;
      }

      .cls-6 {
        fill: none;
      }
    </style>
  </defs>
  <!-- Generator: Adobe Illustrator 28.6.0, SVG Export Plug-In . SVG Version: 1.2.0 Build 709)  -->
  <g>
    <g id="Layer_1">
      <g>
        <path class="cls-4" d="M200,399.3c-9.8-16-19.8-31.7-30.5-47.2-7.1,1.3-14.4,3.2-21.7,3.6-5.7.3-11.2-.6-16.3-3.5-7.6-4.3-14.4-9.7-20.4-15.8-6.3-7-12.5-15.4-16.3-24.1-10.8,4-21.8,6.8-33.2,7.4-13.6.6-23.6-2.4-34.5-9.3,8.2-4.9,16-10.1,22.8-17.6-6.2-4.1-11.1-8.7-14.7-14.9-3.6-5.9-5.4-12.7-7.3-19.3,3,1.7,5.1,3,8.1,4.6,6.2,3.2,11.7,4.4,18.4,4.1,10.9-.3,21.2-4.1,31-8.2-8.5-6.6-17.3-12.8-26.3-18.2-10.6-6.5-21.5-11.9-32.8-17.3,8.9-6,18-12,26.1-19.6,9.8-9.7,16-21.4,17.1-35.3,1-12.8-3.5-22.5-10.4-30.2-7.3-7.8-17.1-13.6-27.1-18.7V.7c29,10,57.6,18.7,87.7,24.2,26.7,4.9,53.2,7.4,80.4,7.4s53.7-2.5,80.4-7.4c30.1-5.5,58.7-14.2,87.7-24.2v119.2c-10,5.1-19.8,10.9-27.1,18.7-7,7.8-11.4,17.4-10.4,30.2,1.1,13.9,7.3,25.6,17.1,35.3,7.9,7.6,17.1,13.6,26.1,19.6-11.2,5.4-22.2,10.8-32.8,17.3-9,5.4-17.9,11.6-26.3,18.2,9.8,4.1,20.1,7.9,30.9,8.2,6.8.3,12.3-1,18.4-4.1,3.2-1.6,5.2-2.9,8.2-4.6-1.9,6.6-3.6,13.5-7.3,19.3-3.8,6.2-8.7,10.8-14.7,14.9,6.8,7.4,14.6,12.7,22.8,17.6-10.9,7-20.9,10-34.5,9.3-11.4-.6-22.2-3.5-32.9-7.4-5.9,8.7-11.1,16.6-17.6,23.4-5.9,6.5-11.7,12.2-19.3,16.5-4.9,2.9-10.9,3.8-16.5,3.5-7.3-.5-14.6-2.4-21.7-3.6-10.8,15.5-20.7,31.2-30.6,47.2h0Z"/>
        <path class="cls-2" d="M200,392.1c-44.3-71.9-92.9-135.2-166.2-169,19.2-13.5,39.9-28,39.6-59.8-3-24.5-16.8-35.3-37.7-45.7V6c113.2,40,215.2,40,328.6,0v111.6c-20.9,10.4-34.8,21.2-37.7,45.7-.3,31.8,20.3,46.4,39.6,59.8-73.3,33.9-121.9,97.2-166.2,169Z"/>
        <path class="cls-4" d="M48.1,110.7V23.2c49.5,15.8,99.9,25.2,151.9,25.2s102.4-9.3,151.9-25.2v87.5c-46.7,26.3-49.5,76.8-8.7,110.5-61.9,35.6-105.3,88.8-143.2,148-37.4-58.2-81.5-114.1-143.2-148,17.6-11.9,29.6-36.1,28.3-57.3-1.1-20.6-13.6-41.2-37-53.2h0Z"/>
        <path class="cls-5" d="M55.3,105.4V33.3c46.4,15.4,95.4,23,144.7,23s98.3-7.6,144.7-23v72c-42.4,24.2-52.5,82.5-13.1,114.7-55.1,31.2-98.8,81.7-131.5,134.5-33.6-54-76.3-101.6-131.5-134.5,37.8-30.9,30.9-92.9-13.1-114.7h0Z"/>
        <path class="cls-4" d="M338.3,41.9v60.3c-44.6,15.2-91.5,20.1-138.3,20.1s-94.6-4.3-138.3-20.1v-60.3c44.6,13.8,91.6,20.4,138.3,20.4s93.5-6.6,138.3-20.4Z"/>
        <polygon class="cls-6" points="113.6 66.3 120.5 64.2 113.6 66.3 113.6 66.3"/>
        <path class="cls-6" d="M312.2,64.8v-7.4h0v7.5s0,0,0,0Z"/>
        <path class="cls-6" d="M312.2,85.6h0c1.4-.2,2.7-.6,4.1-1-1.4-6.3-2.7-12.7-4.1-19.2v-.6c-1.3,7.3-2.5,14.6-3.8,21.8,1.4-.5,2.5-.6,3.8-1.1Z"/>
        <polygon class="cls-6" points="93.5 72.4 93.5 72.4 102.5 69.6 102.5 69.6 93.5 72.4"/>
        <polygon class="cls-6" points="312.2 85.6 312.2 92.7 312.2 92.7 312.2 85.6 312.2 85.6"/>
        <path class="cls-1" d="M113.6,66.3l6.9-2.1h0s0,0,0,0c-2.2-.3-4.1-.6-6.2-1-.3,1-.5,2-.8,3Z"/>
        <g>
          <path class="cls-6" d="M312.2,64.8v-7.4h0v7.5s0,0,0,0Z"/>
          <path class="cls-6" d="M312.2,85.6h0c1.4-.2,2.7-.6,4.1-1-1.4-6.3-2.7-12.7-4.1-19.2v-.6c-1.3,7.3-2.5,14.6-3.8,21.8,1.4-.5,2.5-.6,3.8-1.1Z"/>
          <polygon class="cls-6" points="312.2 85.6 312.2 92.7 312.2 92.7 312.2 85.6 312.2 85.6"/>
          <path class="cls-1" d="M103.8,106c3.2.5,6.2,1.1,9.3,1.6.6-3,1.3-6,1.9-9.2,1.9.2,3.6.5,5.5.8v-7c-1.4-.2-2.7-.5-4-.5,1.3-6.8,2.4-13.5,3.8-20.3,0,.2,0,.5.2.6v-7.9l-6.9,2.1c-3.4,13.2-6.6,26.5-9.8,39.7Z"/>
          <path class="cls-1" d="M93.5,71.8c0,.2,0,.4,0,.6l9.1-2.7c-.7-2.5-1.9-4.5-3.8-6.2-2.4-2.4-6.2-4.1-11.4-5.9v6c1.5.6,2.9,1.5,4.1,2.5,1.3,1.4,2.1,3.5,2.1,5.7Z"/>
          <path class="cls-1" d="M81.1,76.1v-13.9c2.1.3,4.1.8,6.2,1.4v-6c-1-.2-2.1-.5-3-.6l-12.8-3.8v45c3.2.9,6.5,1.9,9.7,2.8v-18.5c1.7.5,3.3.8,4.9,1.3.5.2,1,.2,1.3.2v-6.2c-2.1-.2-4.2-.7-6.2-1.6h0Z"/>
          <path class="cls-1" d="M93.5,72.4c-.1,2.4-.9,3.9-2.2,4.7-1.1.6-2.5.6-4,.6h0v6.2c4.9,1.1,8.7.8,11.4-.6,3-1.6,4.4-4.4,4.4-8.7s-.2-3.4-.6-4.9l-9.1,2.7Z"/>
          <path class="cls-1" d="M295.9,67.8v-6.8h-.2c-9.5,1.9-19,3.3-28.6,4.7v6.8c3.2-.5,6.3-.8,9.7-1.3v38.1c3-.5,6.3-1.1,9.7-1.6v-38.1c3.2-.6,6.2-1.3,9.3-1.9h0s.2,0,.2,0Z"/>
          <path class="cls-1" d="M312.2,85.6c-1.3.5-2.4.6-3.8,1.1,1.3-7.3,2.5-14.6,3.8-21.8v-7.5c-1.9.5-4,1-6,1.4-3.5,15.7-7,31.2-10.4,46.8v.5c3-.6,6.2-1.3,9.2-2.1.6-3.2,1.3-6.6,1.9-10,1.9-.5,3.6-.9,5.4-1.4h0s0,0,0,0v-7.1Z"/>
          <path class="cls-1" d="M318.4,55.8c-1.9.5-4,1.1-6.2,1.6h0v7.4s0,0,0,0v.6c1.4,6.5,2.7,12.8,4.1,19.2-1.4.3-2.7.8-4.1,1h0s0,0,0,0v7.1c1.9-.3,3.6-.9,5.5-1.4.5,3.2,1.1,6.3,1.6,9.3,3.2-1,6.3-1.7,9.5-2.7-3.5-14.1-7-28-10.4-42.1Z"/>
          <path class="cls-1" d="M250.2,85.7c-2.7-1.6-6.8-3.8-6.8-7.4s.3-2.5,1.4-3.5c.8-.8,2.1-1.4,3.6-1.4,1.4-.2,2.5.2,3.6,1.1.8.8,1.4,2.1,1.9,3.8,2.8-.6,5.7-1.3,8.7-1.9-.6-3.5-2.1-5.9-4.4-7.4-2.4-1.6-5.7-2.2-9.7-1.7-4.1.3-7.4,1.6-10.3,3.8-2.5,2.2-4,4.9-4,8.1,0,4.7,3.2,8.7,7,11.1,3.6,2.4,12.8,6.8,12.8,11.4s-.6,2.5-1.4,3.5c-1.1.8-2.4,1.4-4.1,1.4-1.9.2-3.2-.2-4.3-1.3-1-1.1-1.9-2.7-2.2-4.9-3,.5-6,1-9,1.6h0c.5,4,2.1,6.8,4.9,8.9,2.7,1.9,6.2,2.8,10.6,2.4,4.3-.2,7.9-1.7,10.6-4.1,2.8-2.4,4.1-5.4,4.1-8.7s-.8-4.3-2.7-6.5c-2.9-3.3-6.6-5.7-10.4-8.1Z"/>
          <path class="cls-1" d="M215.7,114.1c3.3-.2,6.5-.3,9.7-.3v-44.3c-3.2.2-6.3.3-9.7.3v44.3Z"/>
          <path class="cls-1" d="M162.5,100.3c0,2.5-.3,4.3-1.1,5.2-.8,1-2.2,1.4-4.1,1.3-1.9-.2-3.2-.8-4-1.7-.8-1.1-1.3-2.7-1.3-5.2v-31.8c-3.2-.2-6.5-.6-9.8-.8v30.4c0,5.2,1.3,9,3.6,11.7,2.5,2.5,6.2,4,11.6,4.3,5.1.3,9-.5,11.4-2.8,2.4-2.2,3.6-5.9,3.6-11.1v-30.2c-3.3-.3-6.5-.3-10-.6v31.5Z"/>
          <path class="cls-1" d="M120.5,64.2h0v7.9c1.2,6.9,2.6,13.8,4,20.7-1.4-.3-2.7-.5-4-.6v7c1.7.3,3.5.5,5.2.8.5,3.3,1.1,6.5,1.7,9.8,3.2.5,6.3.8,9.5,1.1-3.5-15.2-7-30.4-10.4-45.7-2.1-.3-4-.6-6-1Z"/>
          <path class="cls-1" d="M191.8,69.9c-3,0-6.3-.2-9.5-.2v44.2h0c9.2.2,18.2.2,27.2.2v-7h-17.7v-37.2Z"/>
        </g>
        <g>
          <polygon class="cls-3" points="97.9 189.9 97.9 189.9 97.9 189.9 97.9 189.9"/>
          <path class="cls-3" d="M97.9,222l-5.7,5.7c1.9,1.3,3.8,2.7,5.7,4.1h0c4.3,3,8.4,6,12.5,9.3l16.5-16.8v-32l-29,29.6h0Z"/>
          <polygon class="cls-3" points="307.3 135.7 307.3 135.7 307.3 135.7 307.3 135.7"/>
          <path class="cls-3" d="M94.9,193l3-3.2v-7.6c-.8,3.6-1.8,7.2-3,10.8Z"/>
          <path class="cls-3" d="M97.9,125.5l5.7-5.7c-1.9-.5-3.8-1-5.7-1.3v7h0Z"/>
          <path class="cls-3" d="M247.2,229.8l53.8-55.1-.3-1.4c-.5-12.3,1.3-23.4,5.5-35l1.1-2.5-60.1,61.9v32.1Z"/>
          <path class="cls-3" d="M97.9,118.5h0c-7.1-1.6-14.2-3.5-21.2-5.4,5.5,6.2,10.3,12.3,14.2,19.5l7-7.1v-7Z"/>
          <path class="cls-3" d="M186.9,323.6c4.4,6.2,8.5,12.5,12.7,18.8l.5.6.3-.6c14.1-21.5,29.6-42.3,46.8-61.3v-19.3l-60.3,61.7Z"/>
          <polygon class="cls-3" points="247.2 281.2 247.2 281.2 247.2 281.2 247.2 281.2"/>
          <path class="cls-3" d="M307.9,199.7l-60.8,62.2v19.3c21.7-24.1,46.1-45.3,74.1-62.2-5.4-5.9-10-12.3-13.3-19.3Z"/>
          <path class="cls-3" d="M247.2,197.6l-3.6,3.5c-.5-7.9-2.8-17.3-7.9-23.9l11.6-11.7h0s0,0,0,0v-32.1l-28.8,29.4c-8.5-4.3-19.2-5.5-28.3-3l30.4-31.3c-10.4.5-21.1.5-31.3.2l-62.2,63.8v32l30.4-31c-2.2,8.9-.3,20.1,3.8,28.2l-33.4,34.2c5.5,5.1,10.9,10.3,16.1,15.7l32.1-32.9c7.8,4.9,14.9,7,24.1,7.4l-40.8,42.1c5,5.6,9.7,11.4,14.2,17.4l73.8-75.7v-32.1Z"/>
          <path class="cls-3" d="M130.4,124.3l-3.5,3.6-28.2,28.8c1,8.5.8,17.1-.8,25.5h0s0,0,0,0v7.6l29-29.6,31.8-32.9c-9.5-.8-18.8-1.6-28.3-3Z"/>
          <path class="cls-3" d="M247.2,165.5l43.5-44.6c-12.2,2.2-24.4,4.1-36.7,5.4l-6.8,7.1h0s0,0,0,0v32.1Z"/>
        </g>
        <path class="cls-2" d="M200,163.6c21.2,0,38.6,17.6,38.6,38.6s-17.4,38.8-38.6,38.8-38.6-17.6-38.6-38.8,17.3-38.6,38.6-38.6Z"/>
        <path class="cls-4" d="M218,229.8c-5.2,3.5-11.4,5.5-18,5.5s-13.1-2.2-18.4-5.7c12-5.5,24.1-5.9,36.4.2ZM218,174.7c-11.9,5.4-23.7,5.9-35.9-.2,5.3-3.4,11.5-5.2,17.9-5.2,6.7,0,12.8,1.9,18,5.4Z"/>
        <path class="cls-4" d="M182.6,189.9h-4.9c.6-3.5,1.9-7,3.6-10.4-1.1-.3-2.4-1-3.5-1.6-6.5,6.2-10.8,14.9-10.8,24.4s4.1,18,10.6,24.1c1.3-.5,2.5-1,3.6-1.6-1.6-3.5-2.7-7-3.6-10.6h4.6c.8,3.1,1.9,6.1,3.3,9,9.5-3,19-3.6,28.5-.5,1.4-2.7,2.5-5.6,3.3-8.5h4.9c-.6,3.5-2.1,7-3.8,10.4,1.3.6,2.5,1.1,3.8,1.9,6.5-6,10.6-14.7,10.6-24.2s-4.1-18.4-10.8-24.4c-1.3.5-2.5,1-3.6,1.4,1.3,3.6,2.5,7.1,3.5,10.6h-4.6c-.6-3-1.9-6-3-9-9.5,3.2-19,3.8-28.6.5-1.3,2.9-2.4,5.7-3.2,8.6h0Z"/>
        <path class="cls-5" d="M204.9,191.8c2.2,0,4,.8,5.1,2.4.9,1.6,1.4,4.3,1.4,7.9s-.5,6.5-1.4,8.2c-1.1,1.4-2.8,2.4-5.1,2.4v-3c.8,0,1.4-.5,1.7-1.6.3-.9.5-3,.5-6s-.2-4.7-.5-5.9c-.3-1-1-1.6-1.7-1.6v-2.9h0ZM198.6,202.1c0,4,.5,6.5,1.4,8.2.8,1.6,2.5,2.4,4.9,2.4v-3c-.9,0-1.6-.5-1.7-1.6-.5-.9-.5-3-.5-6s0-4.7.5-5.9c.2-1,.8-1.6,1.7-1.6v-2.9c-2.4,0-4.1.8-4.9,2.4-1,1.6-1.4,4.3-1.4,7.9ZM192.4,203c-.6.6-1.3.8-1.7,1.1,0,0-.2,0-.3.2v-2.8c.3,0,.5-.2.8-.3.5,0,.8-.3,1.3-.6v-1.9c0-1.4,0-2.5-.5-3.2-.3-.6-.8-.9-1.6-.9v-2.9c2.2,0,4,1,4.9,2.4.9,1.6,1.4,4.3,1.4,8.1s-.5,6.5-1.4,8.1c-1,1.4-2.7,2.2-4.9,2.4v-2.8c.8,0,1.4-.5,1.6-1.1.5-.8.5-2.7.5-5.5ZM190.3,204.3v8.2-2.8h-.2c-.8,0-1.3-.3-1.4-.8-.5-.5-.6-1.1-.6-2.2h-3.8v.2c0,1.7.5,3.2,1.4,4.1,1.1,1.1,2.5,1.6,4.4,1.6h.2v-11.1c-.8,0-1.3-.3-1.6-.8-.5-.5-.6-1.1-.6-2.4s.2-2.4.6-3c.2-.6.6-.8,1.4-.8h.2v-2.9h-.2c-2.1,0-3.5.6-4.6,1.7-1.1,1.3-1.7,3-1.7,5.4s.6,3,1.4,4.1c.8.9,2.1,1.4,3.5,1.4h1.6ZM181.8,212.2h-4v-16h-3.6v-1.9c.8-.3,1.6-.5,2.4-1,.8-.5,1.6-.8,2.4-1.4h2.8v20.3h0ZM221.7,203c-.6.6-1.3.8-1.9,1.1,0,0-.2,0-.3.2v-2.8c.3,0,.5-.2,1-.3.3,0,.6-.3,1.1-.6.2-.3.2-.5.2-.6v-1.3c0-1.4-.2-2.5-.6-3.2-.3-.6-.8-.9-1.6-.9v-2.9c2.2,0,4,1,4.9,2.4,1,1.6,1.6,4.3,1.6,8.1s-.6,6.5-1.6,8.1c-.9,1.4-2.7,2.2-4.9,2.4v-2.8c.8,0,1.4-.5,1.6-1.1.5-.8.6-2.7.6-5.5ZM219.5,204.3v8.2-2.8h-.2c-.8,0-1.3-.3-1.4-.8-.5-.5-.5-1.1-.5-2.2h-4v.2c0,1.7.5,3.2,1.4,4.1,1.3,1.1,2.5,1.6,4.4,1.6h.2v-11.1c-.8,0-1.3-.3-1.6-.8-.5-.5-.5-1.1-.5-2.4s0-2.4.5-3c.2-.6.6-.8,1.4-.8h.2v-2.9h-.2c-1.9,0-3.5.6-4.6,1.7-1,1.3-1.6,3-1.6,5.4s.5,3,1.3,4.1c.8.9,2.1,1.4,3.6,1.4h1.4ZM199.8,300.8c24.8,0,49.7,5.4,60.1,7.4,8.2,1.9,16.9,3.5,26.1,3.5s13.1-2.1,15.7-8.5c0,.2,1.9.8,1.9.8,15.7,6.6,42.3,12.8,59.2,4.6.8.5,1.3,1,2.7,1.6-17.2,11.1-45.4,4.3-63-2.7-3.2,5.5-10.9,7.3-16.8,7.3-9.7,0-18.8-1.6-27.1-3.3,0,0-37.4-7.4-58.9-7.4s-58.9,7.4-58.9,7.4c-8.5,1.7-17.6,3.3-27.1,3.3s-13.6-1.7-16.9-7.3c-17.6,7-45.6,13.8-62.8,2.7,1.4-.6,1.7-1.1,2.7-1.6,16.8,8.2,43.4,2.1,59.2-4.6,0,0,1.6-.6,1.9-.8,2.5,6.5,9.2,8.5,15.5,8.5,9.2,0,18-1.6,26.3-3.5,10.4-2.1,35.1-7.4,60.1-7.4ZM88.4,261.7c-7.3,3.3-14.1,6.2-20.9,7.6-11.9,2.9-22.8,3.2-33.6-2.9.6,2.1,1.1,3.8,1.7,4.9,11.2,4.6,20.3,4.3,32.4,1.4,7.6-1.9,15.4-4.9,23.3-8.5l-3-2.5h0Z"/>
        <path class="cls-2" d="M94.6,267.1c-9.3,4.3-21.7,8.5-35,10.6-12.8,2.1-21.7-2.2-21.7-2.2,0,0,5.2,10,17.7,16.5-4.6,5.7-9.7,10.1-15.7,14.4,2.2.8,7.4,2.8,16.6,2.8s26.9-2.8,41.6-9.7c0,0,1.6-6,16.5-13.9-6.2-6.5-13.1-12.7-20.1-18.5h0Z"/>
        <path class="cls-5" d="M117.7,288.6c-7.3,3.3-16.1,8.5-15.5,14.4.5,4.4,5.5,5.4,12,5.4s13.9-1.4,19.3-2.5c-5.2-5.9-10.3-11.7-15.8-17.3h0ZM311.4,262c7,3.2,13.9,5.9,20.7,7.3,11.9,2.9,22.6,3.2,33.4-2.7-.6,1.9-1.1,3.3-1.7,4.4-11.1,4.8-20.3,4.6-32.3,1.7-7.6-1.9-15.2-4.7-23-8.4l2.9-2.4h0Z"/>
        <path class="cls-2" d="M305.2,267.3c9.3,4.1,21.7,8.5,34.8,10.4,12.8,2.1,21.5-2.2,21.5-2.2,0,0-5.2,10.3-17.9,16.3,4.6,5.7,9.8,10.3,15.7,14.6-1.9.8-7.1,2.8-16.3,2.8s-26.9-2.8-41.5-9.7c0,0-1.7-6-16.6-13.8,6.5-6.5,13.2-12.6,20.3-18.5h0Z"/>
        <path class="cls-5" d="M282.3,288.6c7.1,3.3,15.8,8.4,15.2,14.1-.6,4.6-5.5,5.5-12.2,5.5s-13.5-1.3-18.8-2.4c5.2-6,10.3-11.7,15.8-17.2Z"/>
        <path class="cls-4" d="M97,307.6c1.6,7,16.3,31.2,36.4,41.5v-.2s2.1.8,8.2.8c9.2,0,26.3-7.1,58.4-7.1s49.2,7.1,58.4,7.1,8.2-.8,8.2-.8l2.7-1.7c12.3-8.5,31-34.5,33.4-39.7,0,0-.2,0-.2.2-3.3,5.4-10.9,7.1-16.8,7.1-9.7,0-18.8-1.6-27.1-3.3,0,0-37.4-7.4-58.9-7.4s-58.9,7.4-58.9,7.4c-8.5,1.7-17.6,3.3-27.1,3.3s-13.5-1.7-16.9-7.1h0Z"/>
        <path class="cls-2" d="M137.2,346.2c12.3,0,35.3-7.9,62.2-7.9s49.7,7.9,62,7.9,9.8-.2,13-3.2c8.5-7.9,18.4-20.3,23.9-28.5v-.2c-1.6,1.6-5.5,3.8-13,3.8-31.5,0-45.9-10.3-85.9-10.3s-54.8,10.3-86.1,10.3-10.8-1.9-13.1-3.5c4.6,8.4,13.6,20.7,25.2,29.4,3.3,2.4,7.9,2.1,11.9,2.1h0Z"/>
        <path class="cls-5" d="M200,342.6c-32.1,0-49.2,7.1-58.4,7.1s-8.2-.8-8.2-.8c0,0,4,3,12.5,3s28-6.3,54.1-6.3,45.3,6.3,54.1,6.3,12.5-3,12.5-3c0,0-2.1.8-8.2.8-9.2,0-26.3-7.1-58.4-7.1h0Z"/>
        <polygon class="cls-4" points="258.1 341.3 258.1 319.5 263 320 263 342 258.1 341.3"/>
        <polygon class="cls-4" points="243.2 333.9 243.2 330.4 245.3 330.9 243.2 320.6 243.2 316.8 246.4 317.3 251.6 340.1 246.7 339.3 246.1 334.4 243.2 333.9"/>
        <path class="cls-4" d="M258.1,318.1v-3c1.6.5,3.3.6,4.9,1v2.7l-4.9-.6Z"/>
        <polygon class="cls-4" points="243.2 316.8 240.2 316.2 235 337.2 239.6 338 240.7 333.4 243.2 333.9 243.2 330.4 241.3 330.3 243.2 320.3 243.2 320.6 243.2 316.8 243.2 316.8"/>
        <path class="cls-4" d="M207.8,334.2v-3.3h.5c.5,0,.8-.3,1.1-.6.6-.5.9-1.3,1.3-2.4.2-1.3.3-2.5.3-4.4s-.2-3.3-.3-4.4c-.3-1.1-.6-2.1-1.3-2.5-.3-.3-.6-.6-1.1-.8-.2,0-.3,0-.5-.2v-3c1.1,0,1.9.2,2.7.5,1.1.3,2.1.8,2.8,1.6,1,1,1.6,2.2,2.2,3.6.3,1.4.6,3.2.6,5.4s-.3,4.1-.6,5.5c-.6,1.3-1.3,2.4-2.2,3.3-.8.7-1.8,1.1-2.8,1.4-.8.2-1.6.3-2.7.3h0Z"/>
        <polygon class="cls-4" points="223.7 335.8 223.7 313.8 228.6 314.4 228.6 336.4 223.7 335.8"/>
        <path class="cls-4" d="M207.8,312.5c-.6-.2-1.3-.2-2.1-.3l-5.9-.2v21.8l5.9.3h2.1v-3.3c-.5.2-1.1.2-2.1,0h-1.1v-15.5l1.1.2h2.1v-3h0Z"/>
        <path class="cls-4" d="M175.9,335.5v-22l4.6-.3c1.9,3.6,3.8,7.3,5.7,11.1.6,1.1.8,1.7,1.1,2.8-.2-1.3-.3-2.1-.3-3.3v-11.2l4.4-.5v22l-4.1.5c-2.1-4.1-4.1-8.1-6.2-12.2-.5-1.1-.9-1.6-1.1-2.8.2,1.6.2,2.5.2,4.1v11.6l-4.3.3h0Z"/>
        <path class="cls-3" d="M143.8,335v-15.8l-4.9.6v16c0,1.3-.3,2.1-.6,2.5-.3.5-1.3.6-2.4,1h-1v3.3h.2c.8,0,1.4,0,1.7-.2,1.1-.2,2.2-.5,3-.6.8-.5,1.6-.8,2.1-1.1.8-.6,1.3-1.3,1.6-2.1.2-.8.3-2.1.3-3.6"/>
        <path class="cls-3" d="M156.9,316.8l-4.9.6v15.2c0,.2,0,.4,0,.7l4.9-1v-15.5Z"/>
        <polygon class="cls-3" points="162.3 315.7 162.3 331.2 167.4 330.1 167.4 315.1 162.3 315.7"/>
        <path class="cls-3" d="M162.3,331.4c0,1.3-.2,2.2-.5,2.7-.6.6-1.3,1.1-2.2,1.1-.9.2-1.6,0-2.1-.3-.3-.3-.6-1.1-.6-2.4v-.2l-4.9,1c.1,2.2.7,3.7,1.9,4.6,1.1,1,3,1.3,5.7.8,2.7-.3,4.6-1.4,5.9-2.9,1.3-1.3,1.9-3.2,1.9-5.7l-5.1,1.1v.2Z"/>
      </g>
    </g>
  </g>
</svg>