<?xml version="1.0" encoding="UTF-8"?>
<svg id="Camada_1" xmlns="http://www.w3.org/2000/svg" version="1.1" viewBox="0 0 1000 1000">
  <!-- Generator: Adobe Illustrator 29.1.0, SVG Export Plug-In . SVG Version: 2.1.0 Build 142)  -->
  <defs>
    <style>
      .st0 {
        fill: #fff;
      }

      .st1 {
        fill: #d71b21;
      }

      .st2 {
        fill: #d71a21;
      }
    </style>
  </defs>
  <g>
    <path class="st2" d="M983.99,473.97c.67,1.47.63,3.42,0,4.85.63,1.26.62,2.78,0,4.04.59,1.32.59,2.7,0,4.04.24,2.9.51,5.86.81,8.89v8.08c-.69,3.2-.7,6.49,0,9.7v2.42c-.28,1.39-.55,2.74-.81,4.04.63,1.74.67,3.92,0,5.66-7.13,215.62-172.64,403.36-381.19,448.15C279.95,1043.17-15.09,777.81,17.7,450.15,41.21,215.32,240.2,23.94,477.41,15.88c1.45-.66,3.39-.63,4.85,0,1.21-.64,2.82-.62,4.04,0,2.55-.68,5.51-.63,8.08,0,3.69-.7,7.65-.63,11.31,0,2.87-.67,6.01-.63,8.89,0,2.12-.25,4.28-.52,6.46-.81h.81l47.15,4.96c224.05,30.06,406.47,227.05,414.99,453.94Z"/>
    <path class="st0" d="M836.66,162.39c171.76,171.32,187.78,445.28,35.81,635.14-161.92,202.29-456.55,239.3-662.85,80.38C-3.69,713.6-39.93,405.02,132.44,196.47,311.22-19.82,637.62-36.13,836.66,162.39Z"/>
    <path class="st2" d="M495.83,148.61c272.62-2.99,446.54,294.91,306.22,530.82-136.06,228.75-468.83,228.63-604.32-.51C60.16,446.27,227.19,151.56,495.83,148.61Z"/>
    <path class="st0" d="M490.17,156.69c263.15-8.19,438.04,275.27,311.36,507.69-120.05,220.26-429.91,241.17-578.47,38.49-163.78-223.43-7.72-537.63,267.11-546.18Z"/>
  </g>
  <g>
    <path class="st2" d="M207.55,267.95c.67-1.47,4.11-8.07,4.85-8.54,1.62-1.04,5.22,1.67,3.72,3.72-7.13,8.99-12.5,21.93-19.49,30.64-2.06,2.57-5.75,1.83-5.21-1.11.47-2.54,5.87-7.31,4.74-9.26l-31.4-19.48-20.12,32.02,30.38,19.59c3.51.55,4.35-6.42,6.69-7.63,1.15-.6,3.71.69,3.97,1.76.47,1.97-19.25,30.05-21.45,34.32-9.36-1.44.84-7.02,1.28-12.12-13.68-8.41-26.81-17.72-40.42-26.26-3.31-2.07-20.19-13.11-22.3-13.3-2.39-.22-4.89,7.96-5.99,8.74-.67.47-3.59-1.08-3.89-2.09-.85-2.85,19.22-29.91,21.01-34.97,9.67,1.35-2.12,9.09-.54,12.07.73,1.37,24.39,17,25.94,17,.97,0,1.48-.56,1.89-1.35,1.87-4.03,20.08-29.45,19.15-31.02l-26.88-16.85-.98-.06c-.96,1.72-3.64,7.68-4.92,8.49-1.09.69-3.67-.69-3.99-1.78-.57-1.94,19-30.13,21.5-34.14,1.27-.65,4.05.71,4.14,1.93.16,2.16-7.62,7.93-4.28,10.11l62.61,39.58Z"/>
    <path class="st2" d="M331.89,167.67c1.3-1.78-4.83-18.43-4.45-21.34.17-1.28,3.09-3.49,4.44-2.7,1.43.83,8.79,18.23,11.29,20.7l-.24,1.83-61.29,36.27c-7.43-4.37,6.48-7.41,6.62-9.19-11.87-21.73-24.57-43.01-37.88-63.88-3.15-2.01-10.6,9.62-12.01.95l59.14-35.18c.96.29,10.36,15.61,10.72,16.86.53,1.84-1.14,2.94-2.71,3.15-2.49.33-11.57-9.12-14.33-10.98-3.56,2.83-22.98,11.77-24.31,14.32-.3.58-.36,1.04-.03,1.63l16.25,27.43c2.21-2.34,11.69-6.03,12.96-8.07,1.55-2.49-3.39-12.54-1.66-15.34.57-.92,3.22-2.28,4.05-.82l15.69,26.97c-3.82,7.01-11.79-6.26-14.86-6.52-1.29-.11-12.04,7.05-14.14,8.25l19.38,30.76c1.18.74,2.28-.4,3.25-.84,7.97-3.62,15.71-11,24.12-14.26Z"/>
    <path class="st2" d="M930.66,509.52c.12-1.64-.58-4.11.8-5.26,2.24-1.87,13.39-3.35,15.95-5.45,2.94-2.42,3.88-14.94,3.38-18.7-1.68-12.6-14.33-15.73-22.09-6.07-9.69,12.06-10.91,40.07-30.83,42.7-34.58,4.56-34.08-39.29-27.73-62.06,7.78-.71,15.53-1.16,23.36-.89-.21,1.31.34,3.25.05,4.36-.26.98-16.13,5.55-18.08,6.91-4.97,3.45-4.44,24.75-1.24,30.23,3.38,5.8,11.77,8.61,17.62,4.93,7.97-5.02,12.15-21.7,16.86-30,15.75-27.7,44.5-19.1,46.99,11.46.42,5.12-.19,21.11-1.8,25.65-.23.65-1.44,2.21-1.83,2.21h-21.41Z"/>
    <path class="st1" d="M108.11,327c.82,1.17-.43,4.32-2.11,4.61l-21.98,1.05-5.74,18.49,70.73,22.67c.74-.02.82.19,1.27-.5,1.06-1.63,3.02-12.49,4.02-13.19,1.39-.97,5.44.85,4.46,3.16-2.61,4.92-13.32,43.65-15.56,44.37-.92.3-4.28-.43-4.35-1.22.49-3.74,4.55-9.73,4.75-13.02.04-.7,0-1.09-.68-1.44l-69.97-22.99-1.13-.04-5.41,17.39,17.43,14.68c.31,1.14-.87,3.95-1.89,4.09-2.64.38-19.5-7.62-23.79-7.96l25.05-77.41c3.15.28,24.15,6.21,24.89,7.27Z"/>
    <path class="st1" d="M396.52,58.8c.95.62,6.98,19.8,7.22,21.52.39,2.84-.5,3.91-3.45,3.45s-11.3-14.46-14.68-16.84l-18.06,5.9,23.84,70.72.76.69c2.94-.47,11.44-5.15,13.66-4.8.87.14,1.71,4.18,1.24,4.83-5.82.84-43.8,16.02-46.01,15.03-1.42-.64-2.17-3.13-1.23-4.5.73-1.07,11.22-3.38,13.35-4.03-6.02-24.35-15.21-48.1-23.44-71.86l-17.62,5.76c-1.81,4.35.28,20.72-1.71,22.93-.99,1.09-3.36,1.98-4.26.18-3.24-6.48-4.85-16.3-7.5-23.26l77.89-25.72Z"/>
    <path class="st2" d="M108.19,720.4c-.74.99,4.09,7.45,4.04,9.32-.04,1.66-3.1,3.67-4.44,2-1.37-4.55-17.27-34.69-16.23-36.38.5-.81,3.68-2.1,4.44-1.55.87.63,3.03,9.44,4.5,9.53,14.24-6.95,29.39-12.26,43.53-19.4,15.72-7.94,25.62-15.12,15.48-33.83-5.79-10.68-16.07-14.63-27.69-10.7l-50.29,22.84c-.73.98,4.08,7.46,4.05,9.32-.02,1.52-2.72,2.74-3.69,2.59-1.37-.21-12.06-23.84-11.64-25.16.31-.98,3.35-2.17,4.04-1.76,1.26.75,3.51,9.39,4.45,9.37,14.77-5.46,28.91-13.81,43.45-19.56,10.04-3.97,18.53-7.1,29.13-2.18,16.14,7.49,30.12,42.37,14.64,56.45-17.45,12.31-38.72,19.35-57.76,29.1Z"/>
    <path class="st1" d="M954.89,533.79l-13.7,80.43-24.55-3.67c-1.14-.64-.71-3.64.28-4.49,2.37-2.03,17.74-3.06,21.67-4.58l3.39-19.24-73.14-11.38-1.09.18c-1.38,2.07-1.7,13.58-2.61,14.35-.56.47-3.8.19-4.44-.68,1.26-5.67,5.71-46.74,7.68-48.17,1.08-.78,4.43-.65,4.81.93.57,2.44-3.58,11.96-1.98,14.13,24.13,5.34,48.93,8.82,73.54,12.1l2.77-18.07c-.84-2.5-17.67-9.4-18.94-11.87-.55-1.07-.03-3.82.99-4.07,1.26-.31,24.56,3.07,25.3,4.11Z"/>
    <path class="st2" d="M890.15,267.25c2.74,6.81,10.52,13.96,13.22,20.32.51,1.2.95,2.41.55,3.73-5.94,4.15-6.2-8.06-10.44-6.87l-44.16,28.63c-30.27,19.77-66.57-32.15-41.89-54.81l47.75-33.1c1.03-1.91-5.26-7.6-5.14-9.3.11-1.57,3.93-3.03,5.07-1.19l21.05,33.13c-5.68,6.41-6.56-7.41-10.96-6.17-14.26,10.66-33.64,19.14-46.85,30.78-11.13,9.81-11.57,18.98-2.28,30.57,9.72,12.13,21.5,10.16,33.73,3.31,13.81-7.74,26.87-19.17,40.53-27.39,1.63-2.12-5.27-7.98-4.9-9.65.22-1.02,3.68-2.58,4.71-1.97Z"/>
    <path class="st1" d="M228.33,756.05c2.24-.58,16.47,8.6,19.09,10.53,23.44,17.3,33.67,43.16,13.07,67.74-29.43,35.11-64.46,11.97-85.18-18.07l15.69-17.46c.63.77,2.09,1.62,2.45,2.43,1.37,3.03-7.46,15.35-6.76,19.56,1.11,6.66,14.29,17.27,20.84,18.81,22.49,5.3,52.94-27.87,50.84-49.22-1-10.21-11.19-20.9-20.9-23.54-6.81-1.85-17.08,9.04-22.21,8.53-2.56-.25-3.34-1.97-1.68-4.08,1.55-1.97,13.56-14.92,14.74-15.22Z"/>
    <path class="st1" d="M547.67,74.01c-.42.41-3.62.19-4.42-.76-1.56-1.85-3.4-12.87-4.83-16.17-3.45-7.93-22.79-6.89-29.68-3.82-21.18,9.42-22.31,57.21-6.28,71.29,7.77,6.83,23.19,7.94,32.11,3.07,2.48-1.35,7.08-18.84,9.08-20.06,1.22-.74,4.4-.75,4.66.79l-1.4,21.05-.81,1.62c-20.51,5.93-49.55,7.16-64.62-10.54-14.51-17.05-13.24-49.73,4.44-64.19,16.67-13.64,42.85-10.87,62.24-5.72.88,1.25.43,22.56-.48,23.44Z"/>
    <path class="st1" d="M221.41,251.09c.46-.78,8.07-4.66,6.8-7.37-16.92-18.1-33.35-36.68-50.95-54.12-2.41,1.57-6.34,8.42-9.29,6.89-4.23-2.2,1.53-6.56,3.61-8.54,7.73-7.35,15.95-14.26,23.61-21.7,1.81-.48,3.87,1.52,3.39,3.39-.73,2.79-8.1,5.34-6.82,7.83l50.54,53.78c2.12.94,18.12-17.53,21.63-19.43.18-2.04-8.53-15.79-9.13-18.94-.23-1.19,1.14-3.27,2.03-3.76,1.58-.85,3.42,1.77,4.46,2.88,4.58,4.87,8.76,10.86,13.25,15.88l-50.43,47.93c-1.15-1.04-3.7-3.04-2.72-4.72Z"/>
    <path class="st1" d="M185.62,693.85c3.15,7.55,41.04,51.75,40.46,55.12-.19,1.13-2.63,2.21-3.58,2.88l-6.45-8.82-60.13,44.51c-1.52,2.21,11.4,10.72,2.06,11.98-2.61-3.98-24.2-30.57-23.82-32.55.13-.69,1.37-1.87,2.06-2.05,3.64-.95,6.06,8.31,8.36,7.68l59.73-44.15-16.98-23.03c-3.06-1.37-18.03,6.76-21.22,5.97-1.57-.39-2.7-2.33-1.82-3.93.53-.97,15.89-11.65,17.93-12.8.91-.51,2.38-1.39,3.39-.81Z"/>
    <path class="st1" d="M922.68,348.64c-.9-.56-2.94-9.63-3.8-9.61l-70.27,26.67,10.11,26.31c1.13.76,11.09.46,13.4.4,3.02-.07,8.5-2.7,9.91,1.35.23.65.41,2.1.08,2.59-.69.99-21.75,7.51-22.94,7.37s-1.81-.76-2.2-1.88l-23.26-61.61c5.54-9.06,6.4,7.55,8.48,7.69,15.97-6.3,32.3-11.67,48.28-17.95,2.84-1.12,20.6-7.71,21.27-8.65,1.41-1.96-3.45-7.79-2.95-10.89.08-.48,3.12-1.24,3.61-1.13,1.95.41,12.53,32.79,14.68,36.98.28,1.96-3.11,3.16-4.4,2.37Z"/>
    <path class="st2" d="M944.43,433.54c-.39-.36-1.08-8.92-1.65-10.47-24.93,4.03-49.69,9.1-74.33,14.55-.75.81,6.17,14-1.92,11.21-1.89-.65-6.77-34.52-8.48-39.03,7.83-6.22,4.67,8.38,7.63,9.13l73.04-14.47c.8-.91-2.15-8.56-1.65-10.75.26-1.14,3.64-2.47,4.9.68,1.38,3.46,7.3,32.78,7.31,36.39.01,3.13-3.9,3.64-4.85,2.75Z"/>
    <path class="st1" d="M453.91,49.89c.23.21,1.17,3.51.09,4.35-2.34,1.84-7.68.72-10.53,2.04,3.62,24.77,6.63,49.68,11.38,74.26,1.77,1.51,13.83-5.12,11.16,2.79-.64,1.91-35.1,5.83-39.78,6.04-5.32-5.9,6.13-5.04,9.98-5.54-3.33-25.11-6.97-50.19-11.31-75.14l-11.31,1.62v-4.84c5,.54,38.81-6.94,40.32-5.58Z"/>
    <path class="st1" d="M407.93,866.64l-20.22,68.25c0,.67,10.53,2.59,12.19,4.06.75.66.04,3.4-.13,3.56-1.7,1.6-39.56-11.61-45.1-12.12-.31-1.3-.3-4.38,1.19-4.74s12.89,4.8,14.04,3.97c5.86-19.83,12.82-39.48,17.02-59.75-2.39.15-15.93.19-16.12-2.01l1.54-3.32c7.13.67,14.3.49,21.47.52,1.67,0,3.25-.86,4.76-.8,2.61.11,6.35,2.62,9.35,2.38Z"/>
    <path class="st1" d="M680.2,849.26c.13-.5.83-1.05,1.65-.87,1.2.27,10.7,5.67,12.63,6.79,1.16.67,6.46,3.45,6.74,3.76,2.19,2.44-.5,21.95-.83,26.27l-20.19-12.93c1.04-6.26-1.4-17.44,0-23.03Z"/>
    <path class="st1" d="M297.25,885.21c-.32-8.11.71-16.14,1.21-24.23l20.59-11.32c-.67,8.14,1.9,16.12.42,24.25l-22.22,11.3Z"/>
    <path class="st2" d="M855.09,667.04c22.8-.73,45.77.1,68.58-.74l2.83-7.07-63.78-58c-1.71-2.63,6.53-9.11-1.18-10.11-1.56-.2-.96.2-1.37,1.02-1.16,2.34-8.13,20.62-7.54,21.6.53.88,3.94,2.11,4.49,1.61.32-2.2,1.28-5.1,2.26-7.06.38-.76-.22-1.3,1.37-1.01l18.03,16.66-9.94,25.34h-23.43c-3.01,0,1.58-6.87,1.15-8.36-.34-1.17-3.4-2.95-4.38-1.36-5.15,10.25-7.8,23.96-13,33.88-1.85,3.53-15.54,20.94-15.53,22.3,0,.86,3.2,3.55,4.61,2.72.8-.47,3.4-7.98,6-7.88l57.92,40.29c-30.1.11-60.01-1.26-90.09-2.42-1.41.27-8.59,10.48-8.37,11.61l65.29,45.02c1.15,1.69-6.38,7.46-4.72,10.36,1.5.49,3.16,1.57,4.35.08,1.39-2.91,14.38-19.85,13.8-21.03-3.57-7.3-8.87,6.45-9.75,6.47l-48.07-33.1c24.91.22,49.9.83,74.64,2.24,2.55-3.2,20.08-26.69,19.81-28.4-.24-1.47-3.27-2.79-4.64-1.98-.9.53-3.7,8.2-5.83,7.62l-61.36-41.71c3.02-5.94,7.66-10.84,9-17.65,6.28.52,12.82-.76,18.84-.95ZM883,627.48l25.04,22.61-33.12-.81,8.09-21.8Z"/>
    <path class="st2" d="M146.74,607.91c-1.65-12.78-7.9-45.98-14.16-56.13-11.74-19.03-36.44-13-40.55,9.45v11.31c-1.15.14-1.16-1.55-1.62-2.42-5.78-11.09-12.46-19.53-26.41-13.89-11.29,4.57-10.39,17.81-9.04,27.93,1.93,14.51,6.76,29.51,8.82,44.11l4.89-1.3-1.65-10.76,73.48-14.58c1,1.56,1.26,10.12,1.63,10.5.28.28,3.83-.16,4.84.01.13-1.42-.05-2.81-.23-4.22ZM63.45,597.53c-2.35-.76-2.43-12.3-1.94-14.71,1.7-8.33,13.22-11.42,20.37-9.42,8.91,2.49,10.63,10.56,12.58,18.52-5.53-.12-27.4,6.78-31,5.61ZM99.67,590.94c-2.34-.45-2.2-14.54-1.79-17,1.78-10.65,15.7-14.93,25.06-13.33,9.34,1.6,12.83,14.27,13.5,22.4l-36.78,7.93Z"/>
    <path class="st2" d="M811.23,788.53c-8.59-14.55-24.83-25.95-42.32-24.27-31.13,3-54.14,38.15-37.13,67.36,32.28,55.45,107.39,4.21,79.45-43.09ZM800.92,836.67c-20.62,28.11-66.56-19-62.35-45.38,1.06-6.63,8.37-14.43,14.93-15.77,24.75-5.06,63.32,39.47,47.42,61.15Z"/>
    <path class="st2" d="M650.22,93.93c-2.59-22.35-28.84-35.69-49.33-35.03-41.67,1.33-56.92,62.44-19.51,82.87,37.88,20.68,73.66-6.14,68.84-47.83ZM604.59,142.65c-41.98,5.86-26.39-74.19,2.7-78.09,8.04-1.08,16.2,2.97,20.59,9.69,10.94,16.73-1.23,65.32-23.3,68.4Z"/>
    <path class="st2" d="M755.12,125.58c-11.27-8.26-23.83-14.82-35.07-23.15-1.36-.22-3.64,2.92-3.14,3.96,1.68,2.18,9.13,4.05,8.22,7.27l-40.17,61.32c-1.6,1.1-7.55-5.35-9.34-5.51-1.73-.15-3.57,3.7-2.19,4.84l31.8,20.6c9.86-1.1-.84-7-4.83-8.58l16.55-26.59c14.92,10.44,38.73,23.51,51.48,2.94,10.47-16.9-.28-27.54-13.31-37.1ZM751.95,151.04c-8.11,13.33-20.63,14.71-32,4.21l20.97-31.82c1.83-1.07,9.75,5.14,11.19,6.76,6.16,6.93,4.23,13.64-.16,20.84Z"/>
    <path class="st2" d="M610.59,862.79c-52.66,1.95-31.44,91.86,15.71,74.76,35.06-12.72,16.66-75.96-15.71-74.76ZM622.25,934.31c-13.26,2.7-19.67-20.59-22.44-30.51-2.37-8.5-9.44-32.73,3.42-35.36,13.01-2.66,19.91,22.67,22.43,32.14,2.13,8.01,8.61,31.29-3.42,33.74Z"/>
    <path class="st2" d="M533.8,877.38c-29.34,2.74-32.54,34.17-24.29,56.94,11.31,31.2,56.2,25.05,59.19-8.31,2.11-23.57-6.32-51.3-34.9-48.63ZM549.92,939.54c-2.48,10.88-12.67,14.97-19.05,4.92-6.13-9.64-9.59-48.43-4.05-57.92.94-1.62,3.46-3.97,5.3-4.39,4.74-1.09,8.25.09,11.09,3.92,6.67,9.01,9.19,42.6,6.71,53.47Z"/>
    <path class="st2" d="M818.86,179.09c.99-2.75-2.41-4.78-4.31-6.34l-78.61,35.08c-2.53.95-5.23-4.96-6.97-5.27-.92-.16-3.34,2.17-3.46,2.88-.37,2.14,15.42,14.31,17.31,17.23,7.11-5.43-1.79-5.29-2.83-10.47l21.78-10.18c1.77-.28,20.18,17.84,20.21,19.44l-9.69,22.24c-1.91,1.4-8.16-10.83-9.59-2.17,3.54,3.17,23.76,25.38,26.03,25.45.47.01,1.57-.5,1.94-.87,3.39-3.39-4.22-5.5-3.7-8.86l31.88-78.16ZM785.23,215.44c-1.23.33-1.34-.33-2.02-.8-4.9-3.38-9.96-11.11-14.92-14.96l29.06-14.14-12.12,29.89Z"/>
    <path class="st1" d="M134.84,414.18c-.63.62,1.29,7.14-1.34,7.96l-82.13,22.09c-2.32,1.21-1.01,5.04-1.99,7.44l76.44,41.01c1.55,2.46-4.29,11.1,3.73,9.61,1.2-.22,3.58-23.27,2.76-24.18-.15-.16-3.82-1.32-4.37-.14-.72,1.19-.09,8.2-1.62,8.14l-22.06-10.64,3.18-28.09,24.98-4.91c-1.56,4.54-2.95,12.33,3.93,7.55l3.95-34.66c-.3-1.7-4.03-1.15-5.45-1.18ZM99.29,472.36l-29.07-15.34,31.5-8.09-2.42,23.43Z"/>
    <path class="st2" d="M476.91,880.46c-12.98-6.23-35.76-6.04-41.91,9.6-5.04,12.83-.01,26.02,13.36,30.25,8.81,2.78,15.19,2.03,23.39-1.98-2.72,15.15-6.39,31.55-25.35,29.79-2.19-.2-8.72-2.52-9.66-2.24-2.29.68-2.5,3.29.06,4.59,11.93,6.05,30.73.8,40.19-7.92,14.99-13.81,21.63-51.67-.08-62.09ZM467.44,914.83c-4.06,3.94-10.65,3.39-13.64-1.57-4.48-7.44-2.47-30.68,8.06-31.94,14.34-1.72,12.24,27.04,5.57,33.51Z"/>
  </g>
  <g>
    <path class="st2" d="M296.43,673.94c.06-.57,1.28-1.63.8-2.82-17.88,4.36-38.63,3.7-54.55-6.45-1.76-1.12-8.1-5.6-7.63-7.64.36-1.6,26.88-8.63,31.1-10.13,68.29-24.4,119.02-76.51,141.18-145.63.97-3.02,2.57-12.4,3.78-14,.47-.62,5.41-3.53,6.15-3.6,1.98-.19,7.83,3.11,11.3,3.27,20.82.94,28.66-28.53,10.32-37.85-2.79-1.42-10.24-2.32-10.66-2.67-.24-.2-1.7-5.68-1.69-5.99.08-1.79,7.84-8.35,9.64-10.49,27.34-32.57,28.04-83.73,24.27-123.99,7.39,2.68,13.08,12.87,16.04,19.9,13.04,30.94-.05,55.58-1.53,86.3-1.15,23.74,1.53,51.96,7.53,74.94,3.55,13.59,8.88,28.62,17.95,39.4,12.97-16.58,19.88-39.5,22.91-60.29,6.93-47.51.39-98.23-10.21-144.68,4.6-5.65,8.4-10.48,10.09-17.84,4.06-17.75-4.55-43.56-26.75-40.49-7.84,1.08-10.82,7.78-16.08,11.95-3.66-2.16-7.28-4.83-11.04-6.78-3.25-1.68-14.45-5.83-15.96-7.06-.57-.47-4.8-10.76-6.5-13.3-4.87-7.3-11.16-11.26-19.03-14.9-2.45-1.14-14.6-4.88-15.08-5.52-1.05-1.41,5.78-4.98,6.96-5.55,9.98-4.78,21.21-5.45,31.81-2.52-1.45-7.41.04-15.33,5.26-20.99,3.81,8.43,13.42,10.06,16.71,18.82,2.64,7.03.64,12.76,1.45,19.56,1.06,8.97,14.25,10.64,17.17,1.79,3.15-9.55-7.61-18.85-8.26-28.48-.78-11.57,9.66-22.03,16.56-30.26,8.33,9.73,19.13,19.76,16.21,33.96-1.63,7.91-12.54,18.12-6.81,26.91,4.35,6.66,15.15,3.86,16.07-3.91.54-4.53-.55-9.9.05-14.49,1.52-11.66,13.33-14.22,18.11-23.89,5.41,5.47,7.47,13.59,5.26,20.99,13.27-3.62,27.83-1.81,38.78,6.88.32,1.3-1.08,1.64-1.96,2.07-9.91,4.8-19.15,5.3-27.96,14.05-11.67,11.59-14.81,37.49-16.82,53.47-5.12,40.79-5.08,96.04,20.56,130.3,1.09,3.12,12.21,11.85,12.49,13.42,1.34,7.6-3.88,6.34-8.3,7.88-22.81,7.99-15.52,40.32,7.01,39.39,3.38-.14,9-3.41,10.49-3.29.7.06,5.71,3.01,6.16,3.62,16.27,66.83,62.52,122.78,124.89,151.42,16.71,7.68,34.3,12.98,52,17.9-5.04,8.66-17.32,13.51-26.8,15.6-12.41,2.73-23.93,2-36.21-1.07.77,5.05,1.83,9.88.77,14.94-.18.88.57,1.56-1.19,1.23-1.5-.28-3.81-2.33-5.83-3.06-10.27-3.69-18.52-4.03-26.1-13.49-8.42-10.52-5.95-35.13-14.74-41.01-5.77-3.86-14.29-2.43-17.15,4.23-4.74,11.04,8.14,19.87,14.11,27.09,7.27,8.78,11.06,18.85,8.9,30.27-12.41-4.92-27.38.82-32.2,13.44-1.48,3.87-1.59,7.76-2.93,11.6-8.04-3.89-12.4-13.13-15.17-21.18-14.87-43.13,4.17-90.87-19.84-132.05-25.94-44.5-66.08-35.16-85.11,8.89-2.53,5.85-3.56,12.24-6.73,17.49-1.24,0-4.75-13.08-5.67-15.32-19.59-47.97-58.56-55.8-85.36-7.83-20.03,35.86-20.03,75.15-19.25,115.27-11.77-1.47-24.32-6.96-33.5-14.57-1.28-1.06-7.68-7.15-8.15-8.06-.93-1.8,1.79-3.03,2.85-4.46,4.71-6.31,13.96-16.87,5.27-23.81-6.69-5.34-12.88-2.24-16.15,4.84-8.15,17.67-.54,34.5-23.29,44.58-4.39,1.94-8.87,2.39-13.11,3.86-2.84.98-4.8,3.15-7.64,3.27.32-4.3-.43-9.11,0-13.33Z"/>
    <path class="st2" d="M510.53,291.39c-9.6,39.63-8.14,82.09,3.23,121.18-9.8-1.46-20.05-1.05-29.89,0-.84-16.02,5.51-31.38,6.5-47.23,2.42-38.84-11.53-69.01-51.58-77.76-48.97-10.7-89.9,12-109.93,56.83-8.26,18.49-15.06,49.24-5.11,67.9,1.51,2.83,7.22,8.03,7.44,9.59.64,4.56-6.03,19.04-6.5,24.6-3.32-1.1-6.13-3.53-9.46-4.67-26.87-9.2-48.48,20.48-31.6,42.91,8.07,10.72,22.63,12.74,34.59,7.81l7.24,23.88c-.07,1.43-7.92,7.38-9.66,9.66-16.15,21.05-7.25,62.26-1.24,86.08-.63,1.65-25.69,16.99-26.97,16.08-12.49-21.63-21.82-45.01-29.37-68.82-5.66-17.83-11.61-53.01-22.42-66.45-3.24-4.02-7.71-6.86-11.13-10.69l-.22-31.25c40.51-13.76,47.43-62.46,62.93-97.18,16.96-37.98,47.19-78.92,89.97-88.58,26.39-5.96,55.37-4.3,80.13,6.83,15.73,7.07,27.14,19.7,45.45,20,2.31.04,5.01-1.34,7.58-.72Z"/>
    <path class="st2" d="M773.02,428.64c-47.18,18.48-24.19,79.54-59.31,109.94-40.61,35.15-113.31,12.56-107.82-46.42,2.86-30.8,46.24-49.93,61.42-22.66,14.92,26.8-31.65,45.85-36.42,9.74-.12-.89.61-2.67-1.17-2.03-5.12,1.85-7.8,13.28-7.76,18.16.35,41.36,54.18,53.29,77.01,21.2,8.9-12.52,11.63-36.7,2.24-49.47-1.53-2.08-6.28-5.09-6.89-6.07-1.53-2.44,5.64-21.56,6.1-25.83,11.63,4.66,25.55,2.96,32.65-8.15,14.69-22.99-12.8-48.64-35.08-33.07l-7.03-23.85c16.53-12.83,18.23-37.91,6.89-54.78-17.1-25.44-62.33-29.34-84.7-9.03-20.51,18.62-18.72,50.75-21.03,75.92l-1.59,95.77c-.3.41-6.81-4.09-7.55-3.96-.93.16-3.79,4.14-7.43,4.71-21.9,3.46-17.77-31.71,3.68-22.56-.09-4.83,4.63-14.86,4.07-18.95-.19-1.37-10.83-11.93-12.91-14.62-27.9-35.88-25.03-86.85-20.23-129.64,9.03,2.43,15.37,8.79,20.6,16.14,38.33-51.54,121.94-53.79,155.14,4.85,14.2,25.09,10.31,57.51,34.31,77.18,2.28,1.87,12.16,7.03,12.54,7.66,1.88,3.09-.53,24.68.3,29.81Z"/>
    <path class="st2" d="M656.77,730.9c-19.07,4.49-28.52-23.3-10.69-31.3,20.37-9.15,30.41,17.37,26.62,33.89-5.04,21.95-28.52,31.65-49.02,24.88-2.94,12.57-12.52,29.88-26.48,32.12-1.44.23-8.17.81-8.27-1.01-.04-.74,6.11-10.65,7.14-13.05,6.7-15.64,10.21-33.88-4.8-45.87-5.52-4.41-9.6-7.61-11.05,1.74-1.73,11.16,2.28,18.84,7.76,27.97-8.43,7.21-11.36,17.09-11.19,27.99-7.83-.62-10.66-8.42-14.53-13.73-28.26,43.83-97.6,22.32-101.8-28.69-2.23-27.12,15.05-55.71,42.63-61.57,13.19-2.8,32.75,3.07,34.14,18.73,2.61,29.24-39.03,31.74-40.43,3.67-7.99,1.95-15.57,13.05-17.53,20.84-8.19,32.54,28.92,57.77,55.44,37.66,20.01-15.17,15.51-41.94,15.38-63.72-.31-52.93.32-105.88.03-158.8,9.43-.78,18.46,7.41,24.26,14.12,29.82,34.47,16.49,78.73,22.74,120.27,3.31,22.01,18.81,72.31,49.37,62.56,3.86-1.23,9.01-4.7,10.28-8.7Z"/>
    <path class="st2" d="M342.49,667.07l21.79,14.96c50.05,27.19,109.73-9.15,100.79-67.66-1-6.56-2.88-14.18-7.46-19.2-3.22,11.74-14.2,20.12-26.59,18.51-29.2-3.79-27.33-53.92,13.31-45.62,46.94,9.59,50.68,73.68,30.8,108.44-30.85,53.96-111.1,53.59-152.01,11.98,8.88-4.87,17.32-10.75,19.38-21.41Z"/>
    <path class="st2" d="M390.97,726.85c1.14,12.56,3.54,27.5,9.25,38.82,1.25,2.48,5.6,7.63,6.08,9.27.67,2.26-3.13.86-3.88.64-19.96-5.77-38.93-27.84-45.4-47.11-3.12,1.77-13.88,12.07-16.95,10.13-4.24-2.66-14.13-29.92-10.5-32.75,17.72,13.06,39.68,18.9,61.4,21Z"/>
  </g>
</svg>