<?xml version="1.0" encoding="utf-8" ?><svg xmlns="http://www.w3.org/2000/svg" xmlns:xlink="http://www.w3.org/1999/xlink" width="521" height="500" viewBox="0 0 521 500"><path fill="#340A72" d="M210.696 9.09394C213.862 8.8653 216.308 7.80733 219.321 7.2695C226.452 6.00558 233.574 4.82021 240.787 4.11902C243.043 3.9159 245.371 3.98615 247.627 3.79302C255.458 3.12271 263.305 3.18877 271.144 3.67472C273.116 3.79694 274.965 4.04213 276.96 3.99481L277.319 3.98467L280.122 4.00186L281.031 3.97269C283.805 4.0333 286.35 4.88607 289.789 4.98672C290.247 5.02774 291.113 5.06797 291.513 5.19554C293.728 5.93515 295.279 5.89243 297.413 6.30763C301.288 7.06167 306.557 7.83004 310.25 9.09843L311.091 9.34164C314.266 10.4514 319.209 11.2658 322.789 12.3974C365.569 25.8722 401.92 51.8131 428.446 87.9066C429.879 89.8564 431.656 92.8492 433.242 94.456C437.644 101.525 442.735 109.427 446.217 117.011C461.966 147.541 468.283 178.224 468.133 212.357C468.202 232.351 465.244 252.241 459.362 271.35C457.799 276.27 454.222 287.675 452.019 292.093C453.034 294.684 453.88 297.764 454.647 300.475C457.767 311.503 462.412 322.457 464.997 333.601C476.276 333.454 487.556 333.408 498.835 333.463C504.874 333.473 513.426 333.311 519.225 333.717C517.631 338.353 515.506 342.08 513.237 346.411C511.375 349.225 509.875 352.001 508.177 354.907C506.469 357.83 504.561 360.641 503 363.65C500.301 367.646 497.715 371.721 494.903 375.69C486.415 387.672 476.71 398.736 467.017 409.732C463.182 414.081 458.279 418.289 453.794 421.905C452.345 422.988 450.865 425.138 449.387 426.283C447.81 427.636 446.016 428.852 444.382 430.22C416.461 453.659 384.287 471.499 349.619 482.765C343.162 484.877 332.931 487.942 326.21 489.33C325.838 489.403 325.464 489.466 325.088 489.518C322.793 490.478 321.122 490.195 318.868 490.933C266.959 501.386 213.184 497.502 163.315 479.698C92.6809 453.79 35.008 401.232 2.66194 333.291L2.90276 333.334C7.24164 334.037 14.8889 333.46 19.6215 333.453C31.4119 333.398 43.2024 333.469 54.9913 333.663C57.6242 323.393 61.8994 312.065 65.053 301.854C65.8505 299.725 66.5412 297.557 67.1227 295.36C67.5853 293.153 68.4905 290.684 69.2397 288.541C68.4291 286.93 67.8629 285.401 67.2283 283.72C49.4482 236.127 49.5678 183.693 67.5648 136.183C68.7822 133.024 70.1279 129.336 71.5177 126.276C91.6421 81.412 126.836 45.0122 170.992 23.3943C180.763 18.6307 189.048 16.0384 198.956 12.3548L202.379 11.524L204.041 11.0052C205.774 10.5413 207.461 10.095 209.174 9.56031L210.696 9.09394Z"/><path fill="#FEFEFE" d="M251.677 12.0658C361.158 6.85173 454.135 91.3974 459.347 200.903C464.558 310.409 380.031 403.406 270.55 408.618C161.071 413.83 68.0969 329.285 62.8853 219.781C57.6737 110.277 142.198 17.2798 251.677 12.0658Z"/><path fill="#FE0000" d="M256.619 20.4745C280.873 19.8253 299.183 23.5214 322.021 30.3339C320.887 33.0905 321.27 39.6291 321.27 42.8734L321.269 60.1887L321.268 114.565L321.269 296.374L321.27 356.272L321.271 375.406C321.271 379.368 321.168 383.872 321.427 387.772C322.025 388.782 322.782 389.193 323.742 389.889C315.232 392.498 308.122 394.658 299.332 396.463C290.817 398.211 283.791 398.957 275.238 399.869C275.7 398.946 276.457 397.448 276.501 396.45C276.766 390.554 276.669 384.494 276.667 378.593L276.651 344.783L276.689 231.738L266.733 231.768L242.015 231.751C242.578 280.741 241.744 329.875 242.083 378.879C242.131 385.771 241.997 392.674 242.237 399.564C239.9 399.159 237.296 398.788 234.944 398.52C221.762 397.019 209.57 393.168 196.926 389.421L199.489 387.849L199.535 312.938L199.534 171.97L199.532 79.7866C199.532 64.0017 199.914 46.2846 199.435 30.6634C219.557 24.068 235.519 21.2704 256.619 20.4745Z"/><path fill="#FEFEFE" d="M242.019 55.6988L275.981 55.7187L276.001 183.978C264.839 183.809 253.24 183.943 242.063 183.987L242.019 55.6988Z"/><path fill="#FE0000" d="M331.052 33.7797C358.464 44.6766 382.967 61.7998 402.626 83.7966C430.445 114.794 447.254 154.11 450.445 195.642C451.396 208.841 450.764 218.183 450.009 231.097L375.532 231.032L375.554 312.087L375.548 362.074C374.594 362.678 373.584 363.408 372.669 364.076C364.425 370.089 355.834 375.396 346.697 379.952C341.432 382.578 336.078 384.889 330.702 387.332C331.37 382.961 331.177 374.808 331.175 370.246L331.156 343.291L331.155 249.042L331.161 104.259L331.164 57.7534C331.165 51.1337 331.499 40.1065 331.052 33.7797Z"/><path fill="#FEFEFE" d="M376.266 104.438C378.378 105.681 384.874 113.228 386.741 115.451C398.845 129.852 407.423 146.879 411.794 165.178C413.762 173.49 414.488 179.451 415.755 187.799C402.83 187.608 389.232 187.747 376.277 187.847L376.266 104.438Z"/><path fill="#FE0000" d="M187.021 35.6388C187.477 35.5851 187.363 35.6131 187.836 35.7253C188.141 37.03 188.019 44.1216 188.018 45.8396L187.999 69.0699L188.032 166.646C173.843 166.869 159.217 166.615 144.971 166.696L144.823 106.267C139.78 111.513 135.764 115.788 131.538 121.793C114.218 146.404 105.885 179.504 105.55 209.365C105.217 239.115 113.144 271.427 130.354 295.927C134.893 302.388 138.769 306.794 144.239 312.418C144.012 304.812 144.127 296.749 144.123 289.109L144.171 252.142C158.494 252.415 173.609 252.122 188.01 252.182L188.001 296.565L188.005 383.219C183.311 383.532 183.012 383.706 178.663 381.627C133.759 359.791 99.1539 321.28 82.2195 274.299C65.3209 226.784 67.96 174.503 89.5575 128.931C106.153 94.1148 132.912 65.1491 166.304 45.8563C171.641 42.7808 181.259 37.6751 187.021 35.6388Z"/><path fill="#FEFEFE" d="M74.8943 301.43C75.5522 301.987 78.6415 308.104 79.2676 309.283C82.3882 315.154 85.8341 320.846 89.5892 326.333C113.12 361.127 146.627 387.983 185.706 403.369C236.424 423.136 292.875 422.187 342.901 400.726C380.094 384.596 411.774 357.96 434.056 324.085C437.321 319.093 443.11 310.064 445.274 304.552C445.846 307.035 447.183 310.748 448 313.246L453.896 331.259C454.975 334.558 456.524 338.941 457.288 342.223L505.218 342.226C503.772 344.585 502.357 347.087 500.99 349.496C491.578 366.093 480.249 380.942 467.772 395.317C449.205 416.016 427.669 433.843 403.868 448.217C340.42 486.297 264.4 497.472 192.68 479.261C130.947 463.472 76.5205 426.93 38.5295 375.764C33.5707 369.099 28.9127 362.215 24.5694 355.133C21.9433 350.806 19.6229 346.473 17.056 342.174C22.013 342.352 27.7573 342.212 32.7614 342.212L61.6862 342.25C62.3687 340.42 63.0377 338.363 63.6019 336.483C67.1042 324.814 71.63 313.137 74.8943 301.43Z"/><path fill="#FE0000" d="M263.216 431.404C274.711 430.856 282.736 438.24 283.925 449.576C284.78 457.722 282.77 466.244 275.564 470.977C272.028 473.299 268.792 473.789 264.673 474.263C259.585 474.423 254.236 473.17 250.329 469.698C241.843 462.157 241.005 445.943 248.543 437.487C252.473 433.079 257.541 431.729 263.216 431.404Z"/><path fill="#FEFEFE" d="M263.204 438.011C265.772 438.151 268.466 438.608 270.485 440.283C276.574 445.35 277.243 457.246 272.507 463.419C270.305 466.291 267.509 467.152 264.127 467.615C257.033 467.749 252.989 462.138 252.185 455.713C251.122 447.212 253.405 439.017 263.204 438.011Z"/><path fill="#FE0000" d="M386.897 393.177C388.85 393.385 389.617 393.998 390.688 395.672C395.748 403.587 400.101 411.954 405.075 419.93C406.146 421.886 407.783 424.163 408.415 426.296C409.848 430.508 404.309 432.94 400.938 431.321C391.462 426.771 381.439 421.981 372.172 417.05C374.894 422.125 378.29 426.998 381.013 432.042C383.701 437.02 389.211 442.294 381.67 445.277C381.488 445.21 381.308 445.14 381.128 445.066C380.175 444.671 379.143 444.011 378.571 443.139C375.524 438.489 372.619 433.445 369.834 428.607C366.845 423.202 363.2 417.967 360.639 412.357C359.167 409.132 363.542 405.063 366.92 406.705C376.848 411.532 387.366 416.192 397.076 421.408L388.69 407.247C387.68 405.551 386.634 403.85 385.654 402.138C383.598 398.544 381.36 394.789 386.897 393.177Z"/><path fill="#FE0000" d="M134.565 394.168C136.915 393.95 140.142 394.843 140.41 397.41C141.558 408.397 142.323 420.92 142.558 431.857L150.209 418.476C152.107 415.165 153.938 411.087 156.598 408.358C157.296 407.642 158.049 407.119 159.092 407.166C160.228 407.218 161.212 407.951 161.908 408.807C162.521 409.561 162.734 410.342 162.624 411.304C162.364 413.582 147.807 438.351 145.316 442.04C144.501 443.247 143.718 444.234 142.561 445.149C142.266 445.218 142.302 445.217 141.941 445.257C140.486 445.419 139.031 444.961 137.931 443.997C135.963 442.282 135.782 439.337 135.606 436.899C134.906 427.23 134.633 417.56 134.043 407.883C130.261 415.132 125.597 422.279 121.581 429.381C118.588 434.674 112.948 430.512 114.325 427.103C116.187 422.491 119.764 417.378 122.153 412.893C124.83 408.657 130.78 396.082 134.565 394.168Z"/><path fill="#FE0000" d="M211.569 427.005C214.346 426.854 217.898 427.605 220.66 428.207C226.247 429.423 233.333 429.93 236.793 435.135C240.332 440.457 238.405 449.252 233.023 452.706C227.898 455.963 220.546 454.116 215.022 452.926C214.269 452.776 213.955 452.743 213.21 452.682C211.527 454.874 212.064 466.354 208.435 468.117C205.174 469.486 201.933 466.959 202.574 463.418C204.619 452.104 206.481 440.637 209.197 429.48C209.489 428.28 210.515 427.49 211.569 427.005Z"/><path fill="#FEFEFE" d="M216.55 433.767C221.465 435.137 230.838 435.004 229.972 442.252C229.682 444.682 228.905 445.67 227.09 447.218C223.663 448.567 218.084 447.11 214.194 446.698C215.045 442.494 215.781 438.007 216.55 433.767Z"/><path fill="#FE0000" d="M79.0374 340.952C80.9326 341.127 82.7674 342.767 83.9783 344.234C90.5835 352.236 102.408 361.411 90.9564 371.521C81.5744 379.804 74.0819 371.582 67.9598 364.391C67.3962 363.706 66.7853 362.856 66.2399 362.139C63.3686 364.876 59.366 369.043 55.9428 370.881C54.7895 371.501 53.4272 371.916 52.1485 371.433C51.171 371.063 50.4951 370.193 50.0976 369.254C49.6933 368.298 49.5795 367.208 49.99 366.234C51.0811 363.644 72.6404 345.339 76.3234 342.541C77.1865 341.886 78.0421 341.39 79.0374 340.952Z"/><path fill="#FEFEFE" d="M80.4043 349.573C84.7277 354.313 92.5718 362.029 83.3978 366.306C81.7935 367.054 80.8736 366.905 79.2844 366.33C76.0107 364.492 73.2467 360.985 70.7997 358.137C73.2667 356.29 78.3493 351.77 80.4043 349.573Z"/><path fill="#FE0000" d="M182.329 417.397C186.169 417.571 188.591 419.636 188.848 423.542C189.645 435.645 190.806 447.863 191.014 459.986C190.962 460.832 190.223 462.377 189.459 462.779C181.9 466.763 182.712 454.989 182.541 451.027C179.153 450.165 174.797 448.605 171.399 447.487C169.606 446.91 168.263 446.387 166.519 445.664C164.692 448.053 161.822 452.307 159.202 453.683C155.811 455.319 152.816 450.531 154.981 447.717C161.567 439.169 168.777 431.048 175.627 422.703C177.545 420.367 179.259 418.023 182.329 417.397Z"/><path fill="#FEFEFE" d="M181.706 426.379C182.186 427.755 182.349 442.162 182.396 444.503C179.74 443.64 177.092 442.754 174.453 441.844C172.933 441.326 171.997 441.064 170.431 440.709L181.706 426.379Z"/><path fill="#FE0000" d="M350.502 413.511C351.015 413.485 351.592 413.459 352.079 413.651C352.88 413.966 353.441 414.667 353.767 415.444C354.079 416.187 354.159 417.037 353.8 417.781C352.553 420.367 336.931 425.383 333.515 426.699C334.755 430.025 336.048 432.976 337.196 436.401C339.845 435.253 354.245 429.166 356.219 429.75C357.229 430.048 358.012 431.051 358.409 431.987C358.653 432.56 358.578 432.998 358.333 433.555C357.115 436.315 342.698 441.064 339.343 442.094C340.504 444.612 342.921 450.97 343.7 453.553C345.917 452.201 353.821 449.41 356.592 448.357C358.629 447.567 362.203 445.946 364.262 446.004C367.469 446.094 368.201 450.467 365.082 451.949C357.757 455.43 349.835 457.771 342.319 460.878C340.102 461.794 338.072 460.851 337.015 458.765C332.839 448.746 328.962 438.456 325.341 428.219C324.965 427.155 324.749 425.08 325.059 424.02C327.222 421.559 346.341 414.668 350.502 413.511Z"/><path fill="#FE0000" d="M104.83 370.231C105.583 370.23 106.726 370.369 107.324 370.834C110.456 373.261 126.801 385.838 127.444 388.714C127.595 389.412 127.464 390.141 127.08 390.742C126.128 392.231 124.11 392.963 122.705 391.776C117.739 387.581 111.874 383.204 107.271 378.679C105.912 380.762 102.195 384.843 100.468 386.805C105.007 389.751 110.205 394.928 114.344 398.553C117.245 401.094 114.817 402.923 112.664 404.394C109.201 402.67 101.211 395.417 97.7804 392.492C97.3427 391.98 97.1953 391.655 96.5598 391.533C94.4488 393.573 90.7727 398.311 88.8041 400.705C91.0317 402.229 94.395 405.113 96.4841 407.041C98.2125 408.939 105.687 413.717 105.476 416.31C104.739 425.353 92.5734 412.151 90.0264 410.154C86.4612 407.359 82.7382 404.61 80.2792 401.056C79.2905 399.626 81.2421 396.958 82.0912 395.744C85.6422 391.564 89.3281 386.859 92.9637 382.806C95.641 379.822 101.636 371.637 104.83 370.231Z"/><path fill="#FE0000" d="M442.438 339.706C443.171 339.838 443.814 340.003 444.443 340.419C445.21 340.927 445.8 341.639 445.885 342.589C446.102 344.999 434.982 358.003 432.825 360.509C434.673 361.587 439.476 365.52 441.109 367.059C443.491 363.106 446.946 359.327 449.825 355.7C451.051 354.155 452.991 351.52 455.163 351.468C455.874 351.451 456.314 351.594 456.846 352.07C457.41 352.574 457.78 353.449 457.809 354.196C457.915 356.886 447.971 368.236 445.78 370.786C448.068 372.127 453.203 376.417 455.434 378.243C457.428 375.087 462.78 368.689 465.264 365.546C466.925 363.435 470.216 358.573 473.088 362.168C473.635 362.854 473.876 363.735 473.752 364.604C473.531 366.204 466.361 374.835 464.739 376.927C462.541 379.762 458.425 385.324 455.538 387.076C455.072 387.171 454.751 387.114 454.306 386.97C453.224 386.62 452.205 386.034 451.263 385.402C447.711 383.02 425.704 365.997 424.709 363.49C424.381 362.664 424.585 361.824 424.909 361.029C425.775 358.906 437.966 343.342 440.259 341.113C440.936 340.455 441.566 340.06 442.438 339.706Z"/><path fill="#FE0000" d="M415.368 372.578C419.815 372.31 427.184 374.68 423.286 380.607C420.622 382.63 416.802 379.475 413.86 379.691C409.505 380.211 403.213 387.127 407.266 391.227C408.522 392.153 411.129 391.689 412.343 391.293C420.092 388.765 429.615 380.353 437.086 388.124C447.525 398.98 433.855 414.097 421.82 414.768C418.275 414.333 411.466 412.277 412.83 407.472C413.938 403.569 419.002 406.156 421.511 406.926C427.818 408.863 432.018 404.158 433.631 398.572C431.438 390.301 425.514 393.586 419.989 396.361C415.455 398.639 408.399 401.783 403.716 398.219C391.874 389.206 404.484 374.454 415.368 372.578Z"/><path fill="#FE0000" d="M294.782 428.774C296.939 429.094 298.485 430.39 298.888 432.547C300.706 442.272 303.588 453.292 304.646 463.052C308.439 462.208 321.529 458.911 324.606 460.245C325.389 460.584 325.971 461.1 326.235 461.934C326.518 462.825 326.472 463.815 326.005 464.63C325.239 465.965 323.058 466.372 321.694 466.752C317.288 467.595 302.39 470.974 299.109 470.063C298.36 469.541 297.644 468.085 297.398 467.24C295.728 461.502 294.842 455.068 293.666 449.163C292.78 444.004 291.549 438.878 290.864 433.69C290.467 430.682 292.206 429.523 294.782 428.774Z"/></svg>