<?xml version="1.0" encoding="UTF-8"?>
<svg id="Layer_1" xmlns="http://www.w3.org/2000/svg" version="1.1" viewBox="0 0 471 471">
  <!-- Generator: Adobe Illustrator 29.1.0, SVG Export Plug-In . SVG Version: 2.1.0 Build 142)  -->
  <defs>
    <style>
      .st0 {
        fill: #3b68b0;
      }

      .st1 {
        fill: #c7d4e9;
      }

      .st2 {
        fill: #adc0de;
      }

      .st3 {
        fill: #3966af;
      }

      .st4 {
        fill: #c3d1e7;
      }

      .st5 {
        fill: #3a67af;
      }

      .st6 {
        fill: #3866af;
      }

      .st7 {
        fill: #cc1c50;
      }

      .st8 {
        fill: #3967af;
      }

      .st9 {
        fill: #3a68b0;
      }

      .st10 {
        fill: #c2d0e7;
      }

      .st11 {
        fill: #fdfdfe;
      }

      .st12 {
        fill: #fefefe;
      }

      .st13 {
        fill: #afc2df;
      }
    </style>
  </defs>
  <path class="st6" d="M398.58,394.27c-74.35,76.52-193.27,90.91-283.96,33.98C9.17,362.06-23.97,222.67,41.88,116.02,111.81,2.76,264.64-26.83,371.86,53.33c109.86,82.14,122.48,242.4,26.72,340.94Z"/>
  <path class="st12" d="M234.75,66.01c133.03-.74,215.43,146.72,144.13,259.88-68.23,108.28-227.65,104.19-290.81-6.91C24.05,206.38,106.12,66.73,234.75,66.01Z"/>
  <path class="st12" d="M411.13,114.33c-.08.14-2.73,1.65-2.9,1.62-.83-.14-1.59-2.47-3.48-2.2-.54.08-5.78,3.19-5.95,3.49-.59,1.01,5.43,8.31,6.01,9.94.43.3,6.65-3.58,6.58-5.22-.13-2.78-2.51-2.92,1.98-5.17,1.07,1.75,9.32,12.75,9.01,13.77-.08.28-2.22,1.87-2.58,1.87-1.84.01-1.17-3.74-6.26-.67-2.99,1.8-12.48,8.08-14.59,10.26s.54,3.34.19,4.56c-.16.54-2.88,2.19-3.53,1.81l-8.85-13.38c.02-.2,3.01-2.2,3.38-2.21.18,0,.95,1.91,2.61,2.25,1.78.36,7.02-4.25,8.81-5.27l-6.6-9.76-7.7,5.3c-1.53,1.81.76,3.79.65,4.45-.07.38-2.81,2.62-3.53,2.21-.61-2.08-9-12.76-8.81-13.72.05-.27,2.44-2.19,2.61-2.22,1.25-.22,1.62,3.27,4.78,2,2.55-1.03,10.41-6.94,13.12-8.91.66-.48,3.51-2.38,3.68-2.73,1.02-2.07-1.08-3.55-.98-4.16.07-.42,2.69-2.2,2.98-2.18.84.07,7.6,11.24,8.95,12.61.27.44.69,1.22.42,1.68Z"/>
  <path class="st12" d="M71.72,149.25c.15-.12,3.44,1.09,3.54,1.25.71,1.14-5.38,12.85-5.56,15.18-.59-.28-3.86-1.06-4.01-1.21-.29-.3,1.68-2.83-.41-4.6-.75-.63-7.79-3.52-8.58-3.43l-4.06,10.45c.25.41,8.2,3.56,8.89,3.59,2.03.08,2.53-3.11,3.15-3.15.18-.01,2.76,1.28,3.24,1.54-.8,1.99-5.29,14.51-6.23,15.07-.54.32-2.72-1.26-3.62-1.03-.35-.37,1.86-2.85-.02-4.58-1.05-.96-7.38-3.27-9.2-4.02-2.1-.86-8.09-3.62-9.86-3.79-3.14-.31-2.52,2.47-3.6,2.73-.7.17-2.48-1.12-3.36-1.17.86-1.84,5.38-14.69,6.05-15.17.31-.22,3.84,1.01,3.97,1.18.1.12-.97,1.87-.81,2.98.31,2.23,5.29,3.25,7.04,4.13.7-.11,4.2-9.32,4.59-10.72-2.23-.18-5.88-3.18-7.84-2.03-2.18,1.27-.79,3.66-5.38,1.21.77-1.87,5.2-14.13,6-14.63.6-.38,3.1.47,3.44,1.02.42.68-1.22,2.7.83,4.35,5.61,2.02,11.91,5.7,17.56,7.28,2.04.57,2.47.73,3.78-1.08.28-.39.41-1.29.47-1.33Z"/>
  <path class="st12" d="M192.76,59.87c.04-.77-.79-3.58-.41-3.97.12-.12,2.61-.12,3.22-1.08,1.56-2.47-1.86-18.06-1.71-21.89-2.49-2.64-5.25.02-4.33-5.49,12.18.12,28.78-7.12,34.94,7.74.7,1.69,1.36,3.87,1.52,5.69,1.8,20.05-19.68,17.32-33.24,19Z"/>
  <path class="st12" d="M280.52,37.06c-4.08,1.26-3.48-.85-5.45-3.17-2.46-2.9-5.69-4.74-9.58-4.86-3.31-.11-3.77.86-4.16,3.88-.08.58-.39,4.16-.35,4.37.17.96,3.98.71,4.83.2,1.28-.76,1.34-3.86,1.5-4.01.2-.2,2.93.1,3.59-.02l-1.2,14.43c-4.34,0-2.77-.98-3.8-3.62-.78-2.01-3.11-2.27-5.01-2.4-.35,3.3-.76,6.76-.61,10.02,3.74,2.53,9.51,1.2,13-1.44.96-.73,4.24-4.58,4.86-4.41s2.79,1.7,2.72,2.37c-.22,2.22-3.54,7.25-3.99,9.84l-28.81-2.35c.11-.67-.15-3.87,0-4.01.1-.1,1.65.1,2.2,0,1.83-.35,2.03-2.63,2.21-4.2.66-5.61.38-11.59,1.24-17.23-.24-2.48-2.91-2.22-3.19-2.65-.24-.37-.18-3.43.32-3.78l25.82,1.89c.8.27,3.51,9.57,3.86,11.16Z"/>
  <path class="st12" d="M341.48,83.97c.69-.49,2.7,2.56,5.43.23l12.36-15.49c1.11-2.37-1.81-2.94-1.81-4.2,0-.69,1.86-2.21,2.23-3.01,6.3,5.21,13.55,9.81,18.71,16.14,3.93,8.61-3.6,16.97-12.66,12.66-2.41-1.15-6.27-5.23-7.89-5.78-.35-.12-.37-.21-.77,0-.49.24-4.48,5.25-4.66,5.83-.63,1.97,2.17,3.26,2.18,3.81,0,.27-2.2,2.93-2.53,2.93-.81,0-10.68-8.99-12.46-9.93-.15-.3,1.72-3.08,1.87-3.19Z"/>
  <path class="st12" d="M176.7,61.1c.17.13,1.27,3.45,1.62,4l-15.04,6.38c-.44-.03-1.93-3.79-1.8-3.97s3.27-1.09,3.18-2.55c-1-.55-3.59-4.31-4.06-4.58-.52-.3-1.37-.05-1.94.11-.84.24-7.26,2.99-7.76,3.37-.6.46.11,5.91.52,6.59.86,1.39,4-.53,4.44-.13.15.14,1.09,3.43,1.21,4l-11.84,4.81c-2.76-2.14-2.45-3.73.17-5.86,1.04-8.5-.05-17.41-.37-25.97-.05-1.26-.34-3.88.65-4.59.56-.4,5.8-2.44,6.17-2.26l20.47,20.44c2.11,1.33,4.2.08,4.38.22Z"/>
  <path class="st12" d="M42.04,217.75c1.8-.34,7.44,1.41,8.44.11.59-.76.7-2.82,1.15-3.14.53-.38,3.36,0,3.59.27.5.59-1.24,13.67-1.57,15.37-.08.41-.14.86-.62.97-.17.04-3.26-.23-3.38-.35-.26-.26.76-2.87-1.31-4.1-6.64-1.59-13.7-1.54-20.48-2.6-3.41,1.72-.06,5.05-5.85,3.49.68-6.37.9-13.43,2.12-19.71,1.36-7.04,5.95-11.99,13.5-8.93,7.08,2.87,4.41,12.7,4.41,18.63Z"/>
  <path class="st12" d="M449.16,207.02c.3.29,1.46,6.87.31,7.54l-23.44,13.43c-2.56,2-1.85,4.39-2.04,4.58-.14.14-3.41.32-3.99.4.02-2.04-2.6-15.84-2.01-16.41.12-.12,3.18-.43,3.34-.38,1.05.34.71,3.55,2.45,3.57.51,0,5.02-2.45,5.23-2.79.48-.78-.69-10.01-1.08-10.35-.32-.28-5.41-1.03-6.07-.81-1.56.53-.81,3.54-1.11,3.9-.21.25-3.79.63-3.97.44.36-1.76-1.95-12.64-1.57-13.19.11-.17,3.8-.96,3.96-.83.82.62.24,2.87,3.91,4.31l26.07,6.59Z"/>
  <path class="st12" d="M308.57,419.68l-11.65,8.68,4.03,14.56c-4.08-2.6-7.87-6.01-12.2-8.03l-11.84,8.03,3.96-14.55-11.58-8.68h14.83c1.07-3.67,2.23-7.46,3.6-11.02.37-.95.7-2.46,1.61-3l5.01,14.02h14.23Z"/>
  <path class="st12" d="M195.55,442.11c-3.82-2.4-7.47-5.22-11.4-7.23l-11.84,8.03,3.96-14.55-11.58-8.68h14.83c.95-3.73,2.23-7.44,3.6-11.02.37-.95.7-2.46,1.61-3l5.01,14.02h14.23l-11.65,8.68c1.12,4.35,2.57,8.59,3.63,12.96.2.73.06,1-.4.8Z"/>
  <path class="st12" d="M117.79,368.79c.5.73-.31.73-.51.92-1.58,1.46-10.51,7.02-10.91,7.87l3.8,14.45-11.82-8.01-12.22,8.01,4.2-14.44c-.4-.85-9.34-6.41-10.91-7.87-.25-.24-.78.02-.51-.92,4.76.19,9.6.39,14.32-.1l5.11-13.93,5.4,14.22,14.04-.19Z"/>
  <path class="st12" d="M372.5,368.39c.7-.22,4.07-11.53,4.83-13.22.2-.44,0-1.03.78-.8.72.21,3.62,12.57,5.21,14.03h13.83l-11.17,8.7,3.75,14.14-11.69-7.95-12.15,7.95,3.95-14.14c-.31-1.21-10.16-6.7-11.17-8.69h13.83Z"/>
  <path class="st12" d="M432.42,288.66h14.43l-11.57,8.65,4.15,14.19-12.09-7.96-10.57,7.34-1.59.21,4.29-13.84-11.5-8.59h14.43l4.61-13.63c.74-.05.94.68,1.2,1.2,1.75,3.54,2.72,8.67,4.21,12.42Z"/>
  <path class="st12" d="M63.29,289.47l-11.24,8.3,3.82,14.54-12.03-8.02c-1.81.76-11.19,8.38-12.22,7.61l4.34-13.77-11.55-8.66h13.83c1.04,0,4.66-12.69,5.61-14.43,2.2,4.65,3.12,9.95,5.61,14.43h13.83Z"/>
  <path class="st12" d="M323.35,41.52c.32.51-.72,3.45-1.14,3.79s-2.79-1.99-4.77.83l-7.7,19.19c-.1,1.12,1.07,1.69,1.94,2.08,2.86,1.29,5.74,1.03,8.62.02,1.46-.51,5.68-3.74,6.3-3.34.14.09,1.98,2.56,1.95,2.76-.22,1.41-6.12,6.67-6.83,8.62l-25.15-9.98c-.24-.33.86-3.19,1.16-3.4,1-.71,2.69,1.27,4.37-.83l7.9-18.98c.42-2.2-2.61-2.7-2.66-3.04-.15-.9,1.29-2.66,1.24-3.77,1.76.99,14.35,5.38,14.77,6.06Z"/>
  <path class="st12" d="M89.46,86.21c-.15-.13-1.67-2-1.69-2.13-.19-1.05,10.16-9.26,11.4-10.96.44.64,2.47,2.11,2.56,2.65.17,1-2.57,1.92-1.11,4.7,3.78,3.95,7.18,8.33,10.96,12.28.78.82,2.82,3.2,3.84,3.01,3.46-.64,5.62-6.93,5.62-10.03,0-1.68-1.54-4.96-.17-5.74.24-.14,2.62-.77,2.76-.75.64.1,4.4,9.05,4.93,10.44-2.3,1.9-18.43,17.69-19.72,17.42-.32-.06-2.13-1.88-2.22-2.22-.27-1.05,2.1-2.01.95-4.52-3.88-3.99-7.37-8.41-11.21-12.43-.53-.56-2.41-2.6-2.9-2.74-2-.56-2.62,2.24-4,1.02Z"/>
  <path class="st12" d="M436.06,170.85c-.1-.08-.22-.94-.49-1.31-1.44-1.98-2.36-1.69-4.58-1.09-5.42,1.47-11.08,4.74-16.59,6.25-2.26,1.5-.21,4.2-.86,4.95-.12.14-3.4.93-3.54.82l-5.63-16.4c.7.23,3.45-1.33,3.6-1.21.8.61-.08,3.33,3.41,3.24,6.39-1.79,12.6-4.46,18.8-6.88,1.58-1.24.07-4.58.24-4.76.12-.13,2.94-.39,3.41-1.19l6.15,16.23c-.05.47-3.58,1.61-3.92,1.36Z"/>
  <path class="st12" d="M95.75,121.2c-1.21,1.52-8.58,13.75-9.4,13.63-.17-.03-2.91-1.51-3.01-1.65-.26-.37,1.15-2.33,1.07-3.31-.11-1.53-1.73-2.33-2.81-3.15-4.6-3.5-10.05-6.28-14.7-9.76-1.77-1.07-2.94,2.03-3.88,2.2-.28.05-3.03-1.59-2.96-2.13.24-2.09,7.23-9.95,8.26-12.62.35-1.78,3.31.61,3.61,1.17.62,1.15-2.57,2.47,1.24,5.54,4.68,3.77,10.88,6.69,15.76,10.32,2.03.57,2.65-1.8,3.8-1.83s1.88,1.52,3.02,1.61Z"/>
  <path class="st1" d="M195.95,441.31c.09.39.68.9.4,1.6-.48.05-.6-.67-.8-.8l.4-.8Z"/>
  <path class="st6" d="M224.72,73.64c144.79-7.91,228.33,160.41,132.15,269.52-76.71,87.02-218.26,66.29-267.88-37.92-48.85-102.61,22.3-225.4,135.73-231.6Z"/>
  <path class="st6" d="M204.86,53.8c-1.25-1.24-2.06-19.13-2.49-22.15.45-2.38,6.76-1.84,8.7-1.08,7.37,2.89,8.55,18.16,1.78,22.37-1.69,1.05-6.46,2.37-7.99.85Z"/>
  <path class="st6" d="M366.59,73.18c1.59-.3,4.89,2.77,5.23,4.23.76,3.3-1.89,6.96-5.32,6.96-1.55,0-6.24-2.48-6.23-3.84,0-.57,5.46-7.19,6.33-7.36Z"/>
  <path class="st5" d="M157.07,57.09l-6.81,2.81-.4-10.42c2.69,2.25,5.1,4.82,7.21,7.61Z"/>
  <path class="st3" d="M37.59,216.9c-.46.39-9.6-.71-9.92-1.21-1.95-12.66,13.7-10.5,9.92,1.21Z"/>
  <path class="st9" d="M442.44,209.74c-2.5,2.31-6.36,2.98-9.02,5.2-.8,0-.84-6.16-1.4-7.2l10.42,2Z"/>
  <path class="st12" d="M85.33,212.94c4.66-38.56,28.26-76.33,59.18-99.29,8.55-6.35,13.16-8.34,23.77-10.29,38.47-7.07,77.1,6.34,108.12,28.55.21.15.77.02.5.7-.57,1.44-12.69,6.75-14.84,7.61-22.47,8.92-47.48,12.51-71.33,15.84l.8,6.81c28.4-3.93,59.87-8.11,85.38-21.83,1.2-.65,5.25-3.61,5.9-3.75s.93.13,1.44.39c1.99,1.01,6.71,5.26,8.68,6.95,4.59,3.91,8.86,8.27,13.24,12.4l.33,1.37-51.59,45.85c.07.8,3.86,4.69,4.55,4.69l52.1-46.08c6.37,6.71,12.93,13.8,18.4,21.27.74,1.01,3.16,3.94,3.07,4.95-.08.9-2.82,3.1-3.62,4.04-15.82,18.63-21.39,43.58-25.66,67.1.28.3,7.21-2.48,7.55-3.07,4.34-22.27,10.09-45.19,25.91-62.23,13.63,17.73,21.49,39.49,24.04,61.7l7.82,3.6c-2.67-25.17-11.62-49.82-26.43-70.32,14.36-10.81,28.17.11,36.78,12.1,6.49,9.04,7.59,14.43,8.11,25.55,1.21,26.3-5,58.58-18.85,81.15-.47.64-.87.77-1.2.4-.9.45-5.7,3.29-6.04,3.78-.96,1.37-.61,5.45-.82,7.19-.51,4.17-7.2,11.67-10.16,15.08-27.64,31.75-68.42,51.55-110.82,52.28,25.46-15.37,42.78-40.06,52.91-67.7.75-2.04,1.68-4.5,2.27-6.54.21-.74.92-1.76-.08-1.69-1.12.08-8.08,2.39-8.58,3.05-9.92,31.32-30.68,60.78-62.35,72.61-30.72-2.45-60.33-14.26-84.17-33.6-1.65-1.34-13.12-11.25-12.98-12.13,7.05-8.7,15.01-16.66,22.79-24.71l-7.63-1.79-20.62,20.61c-21.83-24.48-35.26-56.66-37.47-89.54-.25-3.68-.82-11.88.1-15.12.93-3.29,6.56-10.95,8.79-14.05,3.04-4.25,6.32-8.35,9.74-12.3l.61-9.61c-.7-.18-.8.29-1.2.6-5.56,4.26-11.21,12.85-16.03,18.23-.46.38-.59.12-.4-.8Z"/>
  <path class="st12" d="M181.52,94.35c-.99.22-1.53.08-1.6-.4,27.35-11.77,67.09-13.66,95.56-5.18,4.6,1.37,4.82,1.68,7.84,5.39,3.14,3.87,6.58,9.6,7.52,14.52,1.47,7.76-1.83,14.4-7.76,19.28-19.94-13.89-41.86-25.52-65.87-30.61-11.01-2.34-24.44-3.74-35.67-3Z"/>
  <path class="st12" d="M381.51,192.91c-9.67-10.17-21.82-18.38-36.34-12.49-2.32.94-4.27,2.55-6.55,3.51l-20.43-26.06,30.05-24.48c15.28,17.07,27.02,37.41,33.27,59.52Z"/>
  <path class="st12" d="M292.54,94.75c18.79,7.03,35.67,18.83,50.06,32.72l-.34,1.16-28.74,24.18-24.58-20.6c8.21-7.51,11.16-17.49,7.81-28.25-1.02-3.27-2.84-6.12-4.21-9.21Z"/>
  <path class="st4" d="M181.52,94.35c-.37.02-1.87.83-2.8.4-.13-.49.65-.56,1.2-.8l1.6.4Z"/>
  <path class="st13" d="M368.69,308.7c-.47.77-.28,2.03-1.2.4.36-.18.6-.57,1.2-.4Z"/>
  <path class="st10" d="M85.73,213.74c-.22.25-.32.82-.8.8-.3-.66.36-1.32.4-1.6l.4.8Z"/>
  <path class="st6" d="M209.18,249c13.57-15.68,37.08-10.99,45.36,7.74,10.62,24.05-.88,56.09-29.53,58.36-41.66,3.3-51.26-37.85-46.17-70.99,3.9-25.36,18.81-44.57,45.78-46.39,15.57-1.05,32.35,6.73,31.07,24.65-1.1,15.42-23.56,18.18-27.87-.61-.73-3.18-.36-11.81-4.03-12.39-7.91-1.27-11.12,9.26-12.4,15.19-1.71,7.9-1.86,16.37-2.2,24.44Z"/>
  <path class="st7" d="M107.37,196.32c.08-.28.55-.59.94-.55.51.05,6.7,5.53,7.99,6.45,20.82,14.85,48.87,15.74,68.83-1.08.71-.6,5.27-5.82,6-5.01-1.15,10.81-6.34,21.66-11.55,31.12-6.86,12.45-16.93,23.82-21.82,37.08-5.68,15.41-7,32.14-5.5,48.39-.34.34-7.05-2.38-8.33-2.69-10.96-2.69-24.76-1.89-33.75,5.49-.64-.48-.11-6.66.04-7.77,2.9-20.97,21.42-45.43,36.82-59.35,9.05-8.19,19.42-14.76,27.67-24.02,1.36-1.53,9.48-11.69,8.4-13.03-.58-.72-.89.57-1.04.75-1.93,2.35-3.57,4.97-5.57,7.27-17.65,20.38-43.05,26.06-69.14,21.63v-44.67Z"/>
  <path class="st6" d="M301.36,301.49c.29-.45,4.23-.21,4.42-1.07-.53-7.49.65-15.79,0-23.19-.31-3.56-1.71-6.15-5.61-6.21l.02-5.55c2.82.03,15.78-5.29,17.35-4.82,1.71.52,2.42,8.81,2.85,10.41.11.39.45,1.39,1,.78.17-.18,1.15-3.84,1.54-4.68,3.25-6.98,10-9.82,14.12-1.95l1.18,5.42c3.17-8.79,24.32-14.34,28.75-5.3,4.26,8.7-6.81,13.53-11.91,7.1-1.04-1.31-1.23-2.79-1.9-4.11s-2.17-.1-2.68.73c-3.85,6.38,9.07,7.96,12.96,10.21,9.76,5.65,8.75,22.3-1.04,27.34-5.79,2.98-19.17,3.53-24.37-.74-6.3-5.18-2.18-16.34,6.08-12.89,4.91,2.05,4.49,9.44,6.41,10.02,1.75.53,5.11-.05,6.09-1.77,3.02-5.28-8.15-8.15-11.3-9.84-6.35-3.41-9.33-8.19-9.09-15.55-1.9,1.97-3.43,2.34-6.18,1.97-3.06-.41-4.69-3.11-6.44,1.25-2.46,6.15-1.54,14.84-1.84,21.38l4.43,1.05v6.01h-24.85c.23-1.05-.31-5.52,0-6.01Z"/>
  <path class="st6" d="M301.71,282.2c-2.61,1.12-22.82,5.56-23.16,6.72-.23.8,1.13,4.19,1.64,5.09,4.07,7.09,13.21,5.35,16.58-1.35.55-.06.63-.07,1.01.28.3.28,3.67,4.29,3.81,4.55.39.77-2.7,4.31-3.42,5.01-8.51,8.2-25,9.09-32.86-.42-9.82-11.88-5.76-35.52,10.01-40.46,14.74-4.61,26.33,6.03,26.4,20.58Z"/>
  <path class="st6" d="M175.51,281.05c-.28,2.22,1.89,6.07,1,8l-19.43,20.04-.41-1.8-.2-8.21c4.51-4.3,8.68-8.98,13.21-13.24,1.34-1.26,3.23-3.12,4.62-4.2.4-.31.51-.78,1.2-.6Z"/>
  <path class="st0" d="M151.52,133.96c.57.37,3.41-.15,4.35.06-3.15,2.88-3.68,2.78-2.41,7.21-.13.18-2.73-2.42-3.4-2.42-.73,0-2.92,2.55-3.4,2.02,1.58-4.26.3-4.07-2.41-6.8.94-.21,3.78.31,4.35-.06.33-.21,1.03-3.95,1.46-3.95.61.55,1.12,3.74,1.46,3.95Z"/>
  <path class="st0" d="M173.16,195.26c.57.37,3.41-.15,4.35.06.23.92-.17.66-.5.92-.72.56-2.38,1.22-2.64,2.18-.35,1.29.92,2.44.74,3.71-.43.47-2.5-2.01-3.41-2.01-.69,0-3.26,2.59-3.4,2.41-.26-1.47,1.14-3.14.82-4.53-.1-.41-3.1-1.6-3.23-2.68,4.54.35,4.68.19,5.81-4.01.43,0,1.13,3.74,1.46,3.95Z"/>
  <path class="st0" d="M141.86,202.11c.23.22,4.01-.13,4.79.02-.43,1.02-3.36,2.18-3.54,3.05s1.21,2.73,1.13,3.75c-.45.46-2.69-2.02-3.74-1.92-.69.06-3.31,2.52-3.47,2.32,1.93-4.59,1.04-4.39-2.41-7.21.85-.18,4.43.25,4.77-.05.3-.26.46-3.72,1.64-3.96.26.62.68,3.85.82,3.99Z"/>
  <path class="st0" d="M179.57,150.39c.57.37,3.41-.15,4.35.06.23.92-.17.66-.5.92-.7.54-2.41,1.24-2.64,2.17s1.09,2.54.74,3.72c-1.12-.27-2.29-2.03-3.41-2-.95.03-2.17,2.09-3.39,1.99-.25-.27,1.2-3.12,1.08-3.83-.1-.58-3.23-1.97-3.49-2.98,4.37.35,4.84.18,5.81-4.01.43,0,1.13,3.74,1.46,3.95Z"/>
  <path class="st9" d="M127.87,193.66c.57.37,3.41-.15,4.35.06-.18.94-3.15,2.27-3.23,2.68-.21,1.03.76,3.14,1.23,4.13-1.54.13-2.37-2.03-3.81-1.98-.66.02-3.22,2.21-3.4,1.99-.27-.98,1.31-3.39,1.01-4.02-.41-.85-3.02-1.55-3.42-2.78,4.54.35,4.68.19,5.81-4.01.43,0,1.13,3.74,1.46,3.95Z"/>
  <path class="st0" d="M121.8,145.23c.13.13.51,3.03.9,3.52.6.78,4.37-.21,4.31.68-.33.68-3.19,2.19-3.23,2.47-.14.89,1.54,3.77,1.23,4.14-1.01-.18-2.93-2.46-3.73-2.34-.49.07-3.25,2.62-3.48,2.34-.06-1.11,1.44-3.19,1.16-4.14-.17-.57-3.46-2.3-3.17-2.66.7-.42,3.72.06,4.02-.21.61-.53.78-2.43,1.15-3.24.16-.35.18-1.26.84-.56Z"/>
  <path class="st9" d="M188.73,166.07c-.53.96-3.33,2.01-3.52,3.06-.16.86,1.2,2.71,1.12,3.75-.46.48-2.49-2.14-3.79-2.02-.82.08-2.91,2.52-3.43,2.02.31-1.05,1.44-3.11,1.23-4.13-.08-.41-3.05-1.73-3.23-2.68.81-.17,4.03.25,4.37-.05.3-.26.46-3.72,1.64-3.96.45,4.3,1.56,4.31,5.61,4.01Z"/>
  <path class="st5" d="M117.45,164.01c.57.37,3.41-.15,4.35.06-.44,1.04-3.05,2.02-3.42,2.78-.3.62,1.28,3.05,1.01,4.03-.22.28-3.01-2.28-3.4-2.28s-3.18,2.57-3.4,2.28c1.43-4.23.79-4.28-2.41-6.81.94-.21,3.78.31,4.35-.06.33-.21,1.03-3.95,1.46-3.95.61.55,1.12,3.74,1.46,3.95Z"/>
  <path class="st5" d="M117.79,176.89c1.3,1.25-.58,4.84,5.22,3.61-.16.91-3.18,2.32-3.24,2.66-.16,1.01,1.27,2.98,1.23,4.14-.25.31-3.24-2.33-3.46-2.37-.74-.13-2.65,2.46-3.75,2.37-.3-.32,1.36-3.3,1.23-4.14-.05-.34-3.08-1.75-3.24-2.66,1.03-.18,3.23.34,4.02-.19.55-.37,1-4.36,1.98-3.42Z"/>
  <path class="st5" d="M134.68,137.97c.57.37,3.41-.15,4.35.06-3.32,2.43-3.79,2.62-2.41,6.81-3.35-2.71-3.46-2.71-6.81,0,1.07-4.26,1.14-4.28-2.41-6.81.94-.21,3.77.31,4.35-.06.44-.28,1-4.36,1.46-4.35.44.63,1.11,4.13,1.46,4.36Z"/>
  <path class="st5" d="M162.68,144.03c.25-.67,1.21-2.73,1-3.22-.41-.94-2.86-1.81-3.4-2.79.94-.21,3.78.31,4.35-.06.33-.21.87-3.4,1.46-3.95.95.54,1.04,3.68,1.46,3.95.66.43,3.43-.36,4.35.25-3.55,2.03-3.83,2.85-2,6.61-4-1.78-2.63-3.5-6.41-.4-.57.58-1.02.41-.8-.4Z"/>
  <path class="st8" d="M157.87,198.92c.17.19.51,3.37,1.19,3.82.79.53,2.99,0,4.02.19-.14.88-3.2,2.36-3.22,2.64-.06.75,1.46,3.87,1.21,4.17-1.05-.19-2.71-2.24-3.48-2.35s-2.46,2.4-3.73,1.95c1.98-3.93,1.13-3.92-2-6.21,1.12-.61,2.94.25,4.01-.39.74-.45.95-2.42,1.19-3.23.13-.43.15-1.29.81-.59Z"/>
  <path class="st8" d="M186.33,182.5c-.16.91-3.18,2.32-3.24,2.66-.14.89,1.54,3.77,1.23,4.14-.97-.15-2.74-2.24-3.41-2.27-.88-.05-2.54,2.24-3.8,1.87,2.33-4.07.66-3.87-2-6.4,1.09-.18,3.12.34,4.01-.2,1.01-.61.7-3.31,1.99-3.81.48,3.94,1.24,4.43,5.21,4.01Z"/>
  <path class="st2" d="M163.49,144.43c-.34.28-.34,1.06-1.2.8-.26-.68.3-.93.4-1.2l.8.4Z"/>
  <path class="st12" d="M223.87,257.15c4.86,5.23,4.21,25.86,3.29,32.86-.78,5.96-2.67,14.73-10.54,13.45-5.4-.87-6.4-8.99-6.66-13.38-.43-7.54-.66-25.23,2.9-31.6,2.3-4.11,7.79-4.8,11.01-1.34Z"/>
  <path class="st11" d="M277.31,281.45v-9.01c0-1.4,1.36-5.1,3.02-5.41,4.28-.8,5.49,4.99,5.42,8.21-.1,5.21-4.34,5.33-8.45,6.21Z"/>
</svg>