<svg id="Layer_2" data-name="Layer 2" xmlns="http://www.w3.org/2000/svg" xmlns:xlink="http://www.w3.org/1999/xlink" viewBox="0 0 892 600"><defs><style>.cls-1{fill:none;}.cls-2{clip-path:url(#clip-path);}.cls-3{fill:#fff;}.cls-4{fill:#d80027;}.cls-5{fill:#0052b4;}.cls-6{fill:#939598;}</style><clipPath id="clip-path"><path class="cls-1" d="M30.66,0H861.24A30.76,30.76,0,0,1,892,30.9V569a30.74,30.74,0,0,1-30.66,30.9H30.66A30.59,30.59,0,0,1,0,569.1V30.9A30.74,30.74,0,0,1,30.66,0Z"/></clipPath></defs><title>Porto Rico</title><g id="Layer_3" data-name="Layer 3"><g class="cls-2"><path class="cls-3" d="M-3,2H897V602H-3"/></g><g class="cls-2"><path class="cls-3" d="M-3,62H897m0,240H-3m0,240H897"/><path class="cls-4" d="M897,602H-3V482H897Zm0-240H-3V242H897Zm0-240H-3V2H897Z"/></g><g class="cls-2"><polyline class="cls-5" points="-2.98 2 -2.98 602 512.97 302"/></g><g class="cls-2"><polygon class="cls-3" points="204.89 314.3 263.93 271 191.1 271 168.68 201 146.25 271 73.42 271 132.46 314.3 110.14 384 168.68 341 227.22 384 204.89 314.3"/></g></g><g id="Layer_1" data-name="Layer 1"><path class="cls-6" d="M861.1,6A25,25,0,0,1,886,30.9V569a24.9,24.9,0,0,1-24.9,24.9H30.9A24.82,24.82,0,0,1,6,569.1V30.9A25,25,0,0,1,30.9,6H861.1m0-6H30.9A30.86,30.86,0,0,0,0,30.9H0V569a30.88,30.88,0,0,0,30.9,31H861a30.86,30.86,0,0,0,30.9-30.9V30.9A30.71,30.71,0,0,0,861.1,0Z"/></g></svg>