<?xml version="1.0" encoding="UTF-8"?>
<!DOCTYPE svg PUBLIC "-//W3C//DTD SVG 1.1//EN" "http://www.w3.org/Graphics/SVG/1.1/DTD/svg11.dtd">
<svg xmlns="http://www.w3.org/2000/svg" version="1.1" width="2143px" height="2173px" style="shape-rendering:geometricPrecision; text-rendering:geometricPrecision; image-rendering:optimizeQuality; fill-rule:evenodd; clip-rule:evenodd" xmlns:xlink="http://www.w3.org/1999/xlink">
<g><path style="opacity:1" fill="#231e1b" d="M 1228.5,-0.5 C 1239.17,-0.5 1249.83,-0.5 1260.5,-0.5C 1288.05,3.57108 1314.39,11.9044 1339.5,24.5C 1339.83,25.5 1340.17,26.5 1340.5,27.5C 1337.16,46.5129 1333.83,65.5129 1330.5,84.5C 1316.85,82.002 1303.18,79.502 1289.5,77C 1289.04,76.586 1288.71,76.086 1288.5,75.5C 1290.85,65.8822 1291.02,56.2155 1289,46.5C 1286.93,39.4269 1282.43,34.5936 1275.5,32C 1251.42,22.5599 1231.26,27.7266 1215,47.5C 1202.26,67.7102 1194.26,89.7102 1191,113.5C 1186.57,133.197 1186.57,152.863 1191,172.5C 1192.98,178.454 1195.48,184.12 1198.5,189.5C 1199.08,191.749 1200.41,193.415 1202.5,194.5C 1217.17,207.892 1234.17,212.392 1253.5,208C 1259,205.167 1263.17,201 1266,195.5C 1269.92,186.811 1272.75,177.811 1274.5,168.5C 1276.04,167.699 1277.71,167.366 1279.5,167.5C 1291.89,169.176 1304.22,171.176 1316.5,173.5C 1313.48,194.973 1309.81,216.306 1305.5,237.5C 1304.6,238.209 1304.26,239.209 1304.5,240.5C 1301.94,240.198 1299.61,240.532 1297.5,241.5C 1284.88,242.797 1272.21,242.797 1259.5,241.5C 1254.73,240.111 1249.73,239.444 1244.5,239.5C 1222.24,237.519 1201.24,231.519 1181.5,221.5C 1181.03,220.094 1180.03,219.427 1178.5,219.5C 1171.43,216.634 1165.43,212.3 1160.5,206.5C 1159.09,204.086 1157.09,202.419 1154.5,201.5C 1143.06,189.058 1135.89,174.391 1133,157.5C 1130.19,135.896 1131.36,114.563 1136.5,93.5C 1137.92,91.4855 1138.59,89.1522 1138.5,86.5C 1146.81,49.7196 1167.81,23.2196 1201.5,7C 1205.31,5.11924 1209.31,3.95258 1213.5,3.5C 1216.15,3.59047 1218.49,2.92381 1220.5,1.5C 1223.33,1.03718 1226,0.370512 1228.5,-0.5 Z"/></g>
<g><path style="opacity:0.91" fill="#7f7c7b" d="M 1220.5,1.5 C 1218.49,2.92381 1216.15,3.59047 1213.5,3.5C 1215.51,2.07619 1217.85,1.40953 1220.5,1.5 Z"/></g>
<g><path style="opacity:0.831" fill="#8b8887" d="M 851.5,8.5 C 852.946,7.38705 854.613,7.22039 856.5,8C 857.252,8.67076 857.586,9.5041 857.5,10.5C 855.858,8.91917 853.858,8.2525 851.5,8.5 Z"/></g>
<g><path style="opacity:1" fill="#231e1b" d="M 851.5,8.5 C 853.858,8.2525 855.858,8.91917 857.5,10.5C 860.996,14.8187 863.996,19.4854 866.5,24.5C 866.427,26.0269 867.094,27.0269 868.5,27.5C 871.221,30.894 873.554,34.5606 875.5,38.5C 875.427,40.0269 876.094,41.0269 877.5,41.5C 880.996,45.8187 883.996,50.4854 886.5,55.5C 886.427,57.0269 887.094,58.0269 888.5,58.5C 894.996,67.4855 900.996,76.8188 906.5,86.5C 906.427,88.0269 907.094,89.0269 908.5,89.5C 914.996,98.4855 920.996,107.819 926.5,117.5C 926.427,119.027 927.094,120.027 928.5,120.5C 931.996,124.819 934.996,129.485 937.5,134.5C 937.427,136.027 938.094,137.027 939.5,137.5C 947.328,149.812 955.661,161.812 964.5,173.5C 964.833,175.833 966.167,177.167 968.5,177.5C 974.54,182.628 981.54,185.628 989.5,186.5C 991.621,186.325 993.621,186.659 995.5,187.5C 996.935,194.406 998.602,201.239 1000.5,208C 964.113,214.778 928.113,223.278 892.5,233.5C 891.353,233.182 890.519,232.516 890,231.5C 888.511,225.547 887.344,219.547 886.5,213.5C 886.557,212.391 886.89,211.391 887.5,210.5C 895.107,208.91 902.274,206.243 909,202.5C 911.239,197.168 910.572,192.168 907,187.5C 902.583,181.002 898.416,174.335 894.5,167.5C 893.667,167.167 892.833,166.833 892,166.5C 867.436,171.933 842.936,177.6 818.5,183.5C 816.404,192.517 815.071,201.683 814.5,211C 814.582,214.235 815.082,217.402 816,220.5C 818.72,222.296 821.72,223.296 825,223.5C 831.531,222.471 838.031,221.638 844.5,221C 846.866,228.327 848.532,235.827 849.5,243.5C 819.588,248.316 790.088,254.983 761,263.5C 760.228,263.355 759.561,263.022 759,262.5C 757.178,255.215 755.678,247.882 754.5,240.5C 765.738,238.429 772.571,231.763 775,220.5C 780.457,189.127 785.29,157.794 789.5,126.5C 790.889,121.731 791.556,116.731 791.5,111.5C 795.126,80.4489 799.126,49.4489 803.5,18.5C 819.504,15.1655 835.504,11.8322 851.5,8.5 Z M 832.5,60.5 C 847.696,86.3882 863.029,112.222 878.5,138C 859.601,142.378 840.768,146.878 822,151.5C 824.764,122.19 827.598,92.8568 830.5,63.5C 831.167,62.5 831.833,61.5 832.5,60.5 Z"/></g>
<g><path style="opacity:0.404" fill="#aba9a8" d="M 866.5,24.5 C 867.906,24.9731 868.573,25.9731 868.5,27.5C 867.094,27.0269 866.427,26.0269 866.5,24.5 Z"/></g>
<g><path style="opacity:0.443" fill="#a5a2a1" d="M 875.5,38.5 C 876.906,38.9731 877.573,39.9731 877.5,41.5C 876.094,41.0269 875.427,40.0269 875.5,38.5 Z"/></g>
<g><path style="opacity:1" fill="#241f1c" d="M 1511.5,105.5 C 1509.38,103.345 1506.72,102.345 1503.5,102.5C 1498.19,101.638 1492.85,101.471 1487.5,102C 1484,104.167 1481.17,107 1479,110.5C 1459.68,158.302 1440.84,206.302 1422.5,254.5C 1438.16,262.056 1454.49,268.056 1471.5,272.5C 1479.25,271.249 1484.42,266.916 1487,259.5C 1489.95,251.304 1493.28,243.304 1497,235.5C 1509.1,240.463 1521.26,245.296 1533.5,250C 1534.48,252.147 1534.31,254.314 1533,256.5C 1525.24,276.639 1517.4,296.639 1509.5,316.5C 1508.61,317.11 1507.61,317.443 1506.5,317.5C 1450.83,296.442 1395.16,275.275 1339.5,254C 1336.03,253.075 1333.03,251.408 1330.5,249C 1333.17,242.316 1335.84,235.65 1338.5,229C 1344.8,230.091 1351.14,231.425 1357.5,233C 1362.67,234.295 1367.17,233.128 1371,229.5C 1375.11,223.609 1378.45,217.276 1381,210.5C 1396.56,170.709 1411.56,130.709 1426,90.5C 1427.14,85.163 1426.48,80.163 1424,75.5C 1417.86,70.5125 1411.03,66.6791 1403.5,64C 1402.98,63.4387 1402.64,62.772 1402.5,62C 1404.9,55.2056 1407.57,48.5389 1410.5,42C 1429.95,49.0453 1449.28,56.7119 1468.5,65C 1486.42,71.5305 1504.42,77.8638 1522.5,84C 1522.96,84.414 1523.29,84.914 1523.5,85.5C 1520.83,92.1667 1518.17,98.8333 1515.5,105.5C 1514.19,106.626 1512.86,106.626 1511.5,105.5 Z"/></g>
<g><path style="opacity:0.416" fill="#a9a8a7" d="M 886.5,55.5 C 887.906,55.9731 888.573,56.9731 888.5,58.5C 887.094,58.0269 886.427,57.0269 886.5,55.5 Z"/></g>
<g><path style="opacity:0.282" fill="#bdbcbb" d="M 832.5,60.5 C 831.833,61.5 831.167,62.5 830.5,63.5C 830.215,61.712 830.548,60.0453 831.5,58.5C 832.298,58.9569 832.631,59.6236 832.5,60.5 Z"/></g>
<g><path style="opacity:1" fill="#241f1c" d="M 741.5,255.5 C 742.609,255.557 743.609,255.89 744.5,256.5C 748.195,262.951 750.862,269.618 752.5,276.5C 715.105,290.8 678.605,307.133 643,325.5C 639.67,319.002 636.837,312.335 634.5,305.5C 634.557,304.391 634.89,303.391 635.5,302.5C 643.318,298.841 650.151,293.841 656,287.5C 656.723,278.721 655.057,270.388 651,262.5C 633.198,222.231 614.864,182.231 596,142.5C 591.034,135.451 584.534,133.618 576.5,137C 571.846,138.607 567.18,140.107 562.5,141.5C 561.833,141.167 561.167,140.833 560.5,140.5C 557.599,133.97 554.599,127.47 551.5,121C 570.385,112.814 589.385,104.814 608.5,97C 626.373,88.0588 644.373,79.7255 662.5,72C 665.766,78.5329 668.766,85.1996 671.5,92C 671.355,92.772 671.022,93.4387 670.5,94C 665.341,96.4121 660.341,99.0788 655.5,102C 648.923,106.559 646.757,112.726 649,120.5C 650.937,126.976 653.27,133.309 656,139.5C 671.275,173.049 686.275,206.715 701,240.5C 704.053,247.444 708.219,253.611 713.5,259C 715.87,260.036 718.37,260.536 721,260.5C 728.066,259.755 734.899,258.089 741.5,255.5 Z"/></g>
<g><path style="opacity:0.424" fill="#a8a6a4" d="M 906.5,86.5 C 907.906,86.9731 908.573,87.9731 908.5,89.5C 907.094,89.0269 906.427,88.0269 906.5,86.5 Z"/></g>
<g><path style="opacity:0.651" fill="#878583" d="M 1138.5,86.5 C 1138.59,89.1522 1137.92,91.4855 1136.5,93.5C 1136.41,90.8478 1137.08,88.5145 1138.5,86.5 Z"/></g>
<g><path style="opacity:0.941" fill="#858381" d="M 1503.5,102.5 C 1506.72,102.345 1509.38,103.345 1511.5,105.5C 1508.6,104.871 1505.94,103.871 1503.5,102.5 Z"/></g>
<g><path style="opacity:0.973" fill="#72706d" d="M 791.5,111.5 C 791.556,116.731 790.889,121.731 789.5,126.5C 789.444,121.269 790.111,116.269 791.5,111.5 Z"/></g>
<g><path style="opacity:0.431" fill="#a7a4a4" d="M 926.5,117.5 C 927.906,117.973 928.573,118.973 928.5,120.5C 927.094,120.027 926.427,119.027 926.5,117.5 Z"/></g>
<g><path style="opacity:0.404" fill="#aba9a8" d="M 937.5,134.5 C 938.906,134.973 939.573,135.973 939.5,137.5C 938.094,137.027 937.427,136.027 937.5,134.5 Z"/></g>
<g><path style="opacity:0.024" fill="#ededed" d="M 560.5,140.5 C 561.167,140.833 561.833,141.167 562.5,141.5C 561.377,142.757 560.711,142.424 560.5,140.5 Z"/></g>
<g><path style="opacity:1" fill="#241f1c" d="M 1618.5,374.5 C 1618.43,376.027 1619.09,377.027 1620.5,377.5C 1642.29,403.687 1665.96,405.687 1691.5,383.5C 1695.5,381.5 1698.5,378.5 1700.5,374.5C 1718.45,351.375 1736.62,328.375 1755,305.5C 1761.22,298.277 1766.22,290.277 1770,281.5C 1770.8,277.091 1769.8,273.091 1767,269.5C 1762.1,264.6 1757.27,259.767 1752.5,255C 1756.58,248.419 1761.24,242.252 1766.5,236.5C 1793.5,259.67 1821.5,281.503 1850.5,302C 1845.66,308.336 1840.66,314.503 1835.5,320.5C 1828.27,314.47 1820.11,310.136 1811,307.5C 1803.19,310.579 1796.85,315.579 1792,322.5C 1773.67,346.167 1755.33,369.833 1737,393.5C 1706.74,436.021 1668.9,444.187 1623.5,418C 1604.14,406.975 1588.31,392.142 1576,373.5C 1559.47,345.574 1560.8,318.574 1580,292.5C 1587.03,283.313 1594.2,274.313 1601.5,265.5C 1602.91,265.027 1603.57,264.027 1603.5,262.5C 1617.78,243.709 1632.28,225.042 1647,206.5C 1651.18,201.145 1654.01,195.145 1655.5,188.5C 1655.24,185.972 1654.4,183.639 1653,181.5C 1648.66,176.331 1644.16,171.331 1639.5,166.5C 1638.59,165.298 1638.59,163.964 1639.5,162.5C 1643.42,157.016 1647.58,151.682 1652,146.5C 1682.4,173.243 1714.23,198.076 1747.5,221C 1742.66,227.336 1737.66,233.503 1732.5,239.5C 1729,237.582 1725.66,235.416 1722.5,233C 1718.13,230.311 1713.46,228.478 1708.5,227.5C 1706.37,227.515 1704.37,228.015 1702.5,229C 1698.7,231.797 1695.2,234.964 1692,238.5C 1668.94,266.959 1646.61,295.959 1625,325.5C 1617.28,337.057 1613.94,349.724 1615,363.5C 1615.87,367.288 1617.04,370.954 1618.5,374.5 Z"/></g>
<g><path style="opacity:0.365" fill="#b4b3b1" d="M 1639.5,162.5 C 1638.59,163.964 1638.59,165.298 1639.5,166.5C 1636.98,165.335 1636.98,164.002 1639.5,162.5 Z"/></g>
<g><path style="opacity:0.49" fill="#adaaa9" d="M 1279.5,167.5 C 1277.71,167.366 1276.04,167.699 1274.5,168.5C 1274.79,167.351 1275.62,166.684 1277,166.5C 1278.07,166.528 1278.9,166.861 1279.5,167.5 Z"/></g>
<g><path style="opacity:0.722" fill="#aba9a8" d="M 964.5,173.5 C 966.167,174.5 967.5,175.833 968.5,177.5C 966.167,177.167 964.833,175.833 964.5,173.5 Z"/></g>
<g><path style="opacity:0.459" fill="#c2c0be" d="M 989.5,186.5 C 990.274,185.853 991.274,185.52 992.5,185.5C 994.03,185.64 995.03,186.307 995.5,187.5C 993.621,186.659 991.621,186.325 989.5,186.5 Z"/></g>
<g><path style="opacity:0.925" fill="#8e8d8a" d="M 1198.5,189.5 C 1200.59,190.585 1201.92,192.251 1202.5,194.5C 1200.41,193.415 1199.08,191.749 1198.5,189.5 Z"/></g>
<g><path style="opacity:0.702" fill="#a8a6a5" d="M 1154.5,201.5 C 1157.09,202.419 1159.09,204.086 1160.5,206.5C 1157.91,205.581 1155.91,203.914 1154.5,201.5 Z"/></g>
<g><path style="opacity:1" fill="#231e1c" d="M 612.5,307.5 C 613.964,306.595 615.298,306.595 616.5,307.5C 621.684,312.585 625.851,318.252 629,324.5C 599.477,345.522 570.977,367.855 543.5,391.5C 542.5,391.5 541.5,391.5 540.5,391.5C 535.579,386.506 531.245,381.006 527.5,375C 531.968,370.202 536.801,365.702 542,361.5C 544.33,358.541 544.996,355.207 544,351.5C 539.412,347.134 534.579,343.134 529.5,339.5C 529.027,338.094 528.027,337.427 526.5,337.5C 526.027,336.094 525.027,335.427 523.5,335.5C 520.475,334.235 517.642,332.568 515,330.5C 494.773,347.028 474.273,363.195 453.5,379C 456.798,388.56 460.298,398.06 464,407.5C 465.141,409.609 466.641,411.442 468.5,413C 470.913,413.484 473.246,413.15 475.5,412C 481.902,408.759 487.902,404.925 493.5,400.5C 498.659,406.497 503.659,412.664 508.5,419C 483.356,436.138 459.356,454.805 436.5,475C 435.551,475.617 434.718,475.451 434,474.5C 420.378,492.911 406.878,511.411 393.5,530C 389.983,529.787 386.649,528.954 383.5,527.5C 381.485,526.076 379.152,525.41 376.5,525.5C 374.901,525.768 373.568,525.434 372.5,524.5C 370.485,523.076 368.152,522.41 365.5,522.5C 346.58,517.816 327.413,514.483 308,512.5C 290.882,512.306 277.715,519.306 268.5,533.5C 281.772,544.142 295.438,554.309 309.5,564C 312.833,565.667 316.167,567.333 319.5,569C 322.406,570.318 325.406,570.652 328.5,570C 332.322,567.67 335.988,565.17 339.5,562.5C 341.914,561.089 343.581,559.089 344.5,556.5C 345.595,554.642 346.929,552.975 348.5,551.5C 355.405,555.446 361.738,560.113 367.5,565.5C 342.624,597.188 318.791,629.522 296,662.5C 289.395,658.392 283.228,653.726 277.5,648.5C 283.087,641.326 287.087,633.326 289.5,624.5C 288.382,620.051 286.049,616.384 282.5,613.5C 251.19,589.512 219.523,566.012 187.5,543C 179.342,536.842 170.675,531.509 161.5,527C 156.632,525.814 152.298,526.814 148.5,530C 143.3,534.865 138.467,540.032 134,545.5C 127.705,540.943 121.539,536.277 115.5,531.5C 138.6,498.301 162.433,465.635 187,433.5C 189.037,431.294 191.203,429.294 193.5,427.5C 196.243,425.761 198.243,423.427 199.5,420.5C 199.833,419.5 200.5,418.833 201.5,418.5C 204.089,417.581 206.089,415.914 207.5,413.5C 221.757,397.692 239.424,391.525 260.5,395C 268.935,397.38 276.268,401.546 282.5,407.5C 282.5,409.5 283.5,410.5 285.5,410.5C 296.597,422.641 300.763,436.975 298,453.5C 297.015,459.945 295.181,466.112 292.5,472C 292.833,472.167 293.167,472.333 293.5,472.5C 304.78,461.935 318.114,458.102 333.5,461C 352.577,465.349 371.744,469.182 391,472.5C 396.128,472.569 400.961,471.402 405.5,469C 409.674,465.992 413.341,462.492 416.5,458.5C 418.865,460.842 421.531,462.342 424.5,463C 423.36,461.027 422.027,459.193 420.5,457.5C 431.376,449.276 434.543,438.609 430,425.5C 410.904,362.212 391.404,299.045 371.5,236C 385.286,224.602 399.286,213.435 413.5,202.5C 467.633,236.136 521.633,269.969 575.5,304C 587.355,311.036 599.688,312.202 612.5,307.5 Z M 444.5,347.5 C 443.833,346.833 443.167,346.167 442.5,345.5C 433.007,317.19 423.84,288.857 415,260.5C 439.746,277.79 464.58,294.957 489.5,312C 474.313,323.697 459.313,335.53 444.5,347.5 Z M 221.5,444.5 C 240.851,444.683 255.018,453.35 264,470.5C 266.995,478.574 266.662,486.574 263,494.5C 258.451,503.044 253.118,511.044 247,518.5C 227.533,504.694 208.366,490.527 189.5,476C 194.77,468.392 200.437,461.059 206.5,454C 211.16,450.149 216.16,446.982 221.5,444.5 Z"/></g>
<g><path style="opacity:0.361" fill="#c3c1c1" d="M 887.5,210.5 C 886.89,211.391 886.557,212.391 886.5,213.5C 885.115,212.053 885.448,211.053 887.5,210.5 Z"/></g>
<g><path style="opacity:0.38" fill="#a8a5a4" d="M 1178.5,219.5 C 1180.03,219.427 1181.03,220.094 1181.5,221.5C 1179.97,221.573 1178.97,220.906 1178.5,219.5 Z"/></g>
<g><path style="opacity:0.667" fill="#898583" d="M 1244.5,239.5 C 1249.73,239.444 1254.73,240.111 1259.5,241.5C 1254.27,241.556 1249.27,240.889 1244.5,239.5 Z"/></g>
<g><path style="opacity:0.388" fill="#949290" d="M 1305.5,237.5 C 1305.5,238.833 1305.5,240.167 1305.5,241.5C 1302.83,241.5 1300.17,241.5 1297.5,241.5C 1299.61,240.532 1301.94,240.198 1304.5,240.5C 1304.26,239.209 1304.6,238.209 1305.5,237.5 Z"/></g>
<g><path style="opacity:0.392" fill="#bfbebc" d="M 741.5,255.5 C 742.947,254.115 743.947,254.448 744.5,256.5C 743.609,255.89 742.609,255.557 741.5,255.5 Z"/></g>
<g><path style="opacity:0.482" fill="#a8a7a5" d="M 1603.5,262.5 C 1603.57,264.027 1602.91,265.027 1601.5,265.5C 1601.43,263.973 1602.09,262.973 1603.5,262.5 Z"/></g>
<g><path style="opacity:0.263" fill="#b1b0b0" d="M 635.5,302.5 C 634.89,303.391 634.557,304.391 634.5,305.5C 633.115,304.053 633.448,303.053 635.5,302.5 Z"/></g>
<g><path style="opacity:0.333" fill="#b3b2b1" d="M 616.5,307.5 C 615.298,306.595 613.964,306.595 612.5,307.5C 614.002,304.978 615.335,304.978 616.5,307.5 Z"/></g>
<g><path style="opacity:0.137" fill="#c0bebe" d="M 1509.5,316.5 C 1508.95,318.552 1507.95,318.885 1506.5,317.5C 1507.61,317.443 1508.61,317.11 1509.5,316.5 Z"/></g>
<g><path style="opacity:1" fill="#28231f" d="M 1612.5,534.5 C 1612.5,536.5 1613.5,537.5 1615.5,537.5C 1623.17,544.5 1630.5,551.833 1637.5,559.5C 1638.08,561.749 1639.41,563.415 1641.5,564.5C 1733.43,660.31 1796.43,772.976 1830.5,902.5C 1830.41,905.152 1831.08,907.485 1832.5,909.5C 1875.51,1084.02 1861.68,1254.02 1791,1419.5C 1702.5,1613 1560,1750.5 1363.5,1832C 1203.53,1893.92 1040.53,1903.75 874.5,1861.5C 872.485,1860.08 870.152,1859.41 867.5,1859.5C 758.323,1829.75 660.323,1779.25 573.5,1708C 563.672,1700 554.338,1691.5 545.5,1682.5C 544.415,1680.41 542.749,1679.08 540.5,1678.5C 535.5,1674.17 530.833,1669.5 526.5,1664.5C 524.1,1661.1 521.1,1658.43 517.5,1656.5C 516.833,1653.83 515.167,1652.17 512.5,1651.5C 366.351,1498.86 292.018,1316.19 289.5,1103.5C 289.043,1032.71 298.376,963.375 317.5,895.5C 318.924,893.485 319.59,891.152 319.5,888.5C 350.052,780.371 401.219,683.704 473,598.5C 480.033,590.636 487.2,582.969 494.5,575.5C 496.587,574.415 497.92,572.749 498.5,570.5C 502.5,565.833 506.833,561.5 511.5,557.5C 516.833,552.833 521.833,547.833 526.5,542.5C 528.167,540.167 530.167,538.167 532.5,536.5C 537.44,533.23 541.773,529.23 545.5,524.5C 660.638,419.034 795.972,354.034 951.5,329.5C 959.066,329.228 966.399,328.228 973.5,326.5C 1203.12,300.548 1406.45,361.048 1583.5,508C 1593.04,517.04 1602.7,525.873 1612.5,534.5 Z"/></g>
<g><path style="opacity:0.973" fill="#686462" d="M 973.5,326.5 C 966.399,328.228 959.066,329.228 951.5,329.5C 958.601,327.772 965.934,326.772 973.5,326.5 Z"/></g>
<g><path style="opacity:1" fill="#fbda00" d="M 1029.5,332.5 C 1241.95,324.36 1427.95,389.527 1587.5,528C 1743.52,671.22 1829.02,849.053 1844,1061.5C 1851.75,1244.92 1802.42,1410.92 1696,1559.5C 1567.76,1729.52 1397.92,1832.02 1186.5,1867C 969.251,1895.78 773.585,1844.44 599.5,1713C 438.506,1584.6 341.673,1418.1 309,1213.5C 279.643,976.459 342.643,768.126 498,588.5C 641.001,433.424 818.168,348.091 1029.5,332.5 Z"/></g>
<g><path style="opacity:0.435" fill="#a8a5a3" d="M 523.5,335.5 C 525.027,335.427 526.027,336.094 526.5,337.5C 524.973,337.573 523.973,336.906 523.5,335.5 Z"/></g>
<g><path style="opacity:0.42" fill="#aba9a7" d="M 526.5,337.5 C 528.027,337.427 529.027,338.094 529.5,339.5C 527.973,339.573 526.973,338.906 526.5,337.5 Z"/></g>
<g><path style="opacity:1" fill="#231e1b" d="M 1987.5,481.5 C 1987.41,484.152 1988.08,486.485 1989.5,488.5C 1992.58,510.179 1984.91,527.012 1966.5,539C 1944.43,550.232 1923.43,548.399 1903.5,533.5C 1903.17,533.833 1902.83,534.167 1902.5,534.5C 1921.95,571.64 1913.28,600.14 1876.5,620C 1862.57,625.076 1848.9,624.41 1835.5,618C 1817.22,607.391 1801.72,593.557 1789,576.5C 1764.29,545.959 1739.79,515.292 1715.5,484.5C 1716.08,482.589 1717.08,480.922 1718.5,479.5C 1722.53,475.305 1727.03,471.639 1732,468.5C 1737.56,475.054 1744.06,480.554 1751.5,485C 1756.07,485.887 1760.41,485.22 1764.5,483C 1800.05,455.065 1835.38,426.899 1870.5,398.5C 1873.83,397.167 1876.17,394.833 1877.5,391.5C 1881.09,387.9 1882.59,383.567 1882,378.5C 1878.73,370.792 1874.56,363.625 1869.5,357C 1874.5,352.667 1879.5,348.333 1884.5,344C 1885.76,343.018 1887.09,342.685 1888.5,343C 1914.43,373.588 1939.59,404.755 1964,436.5C 1972.01,447.844 1979.01,459.844 1985,472.5C 1986.14,475.432 1986.98,478.432 1987.5,481.5 Z M 1921.5,427.5 C 1931.45,437.298 1939.28,448.632 1945,461.5C 1947.66,469.867 1946.32,477.534 1941,484.5C 1932.32,495.259 1921.16,500.092 1907.5,499C 1902.28,497.721 1897.61,495.388 1893.5,492C 1885.43,484.6 1878.1,476.6 1871.5,468C 1888.36,454.636 1905.02,441.136 1921.5,427.5 Z M 1868.5,553.5 C 1865.5,555.833 1862.83,558.5 1860.5,561.5C 1844.62,574.032 1829.28,573.366 1814.5,559.5C 1813.5,557.833 1812.17,556.5 1810.5,555.5C 1804.03,548.191 1797.7,540.691 1791.5,533C 1811.17,517.167 1830.83,501.333 1850.5,485.5C 1860.86,496.362 1869.02,508.695 1875,522.5C 1878.31,534.038 1876.15,544.371 1868.5,553.5 Z"/></g>
<g><path style="opacity:0.325" fill="#b1b1b0" d="M 442.5,345.5 C 443.167,346.167 443.833,346.833 444.5,347.5C 444.44,348.043 444.107,348.376 443.5,348.5C 442.614,347.675 442.281,346.675 442.5,345.5 Z"/></g>
<g><path style="opacity:0.396" fill="#aba9a8" d="M 1618.5,374.5 C 1619.91,374.973 1620.57,375.973 1620.5,377.5C 1619.09,377.027 1618.43,376.027 1618.5,374.5 Z"/></g>
<g><path style="opacity:0.651" fill="#9c9a98" d="M 1700.5,374.5 C 1698.5,378.5 1695.5,381.5 1691.5,383.5C 1694.17,380.167 1697.17,377.167 1700.5,374.5 Z"/></g>
<g><path style="opacity:0.584" fill="#afaead" d="M 540.5,391.5 C 541.5,391.5 542.5,391.5 543.5,391.5C 541.957,393.557 540.957,393.557 540.5,391.5 Z"/></g>
<g><path style="opacity:0.698" fill="#949290" d="M 1877.5,391.5 C 1876.17,394.833 1873.83,397.167 1870.5,398.5C 1872.5,395.833 1874.83,393.5 1877.5,391.5 Z"/></g>
<g><path style="opacity:0.635" fill="#b3b1b0" d="M 282.5,407.5 C 283.833,408.167 284.833,409.167 285.5,410.5C 283.5,410.5 282.5,409.5 282.5,407.5 Z"/></g>
<g><path style="opacity:0.796" fill="#8b8887" d="M 207.5,413.5 C 206.089,415.914 204.089,417.581 201.5,418.5C 202.911,416.086 204.911,414.419 207.5,413.5 Z"/></g>
<g><path style="opacity:0.714" fill="#999796" d="M 199.5,420.5 C 198.243,423.427 196.243,425.761 193.5,427.5C 194.757,424.573 196.757,422.239 199.5,420.5 Z"/></g>
<g><path style="opacity:1" fill="#201a17" d="M 893.5,477.5 C 920.089,477.71 939.923,489.377 953,512.5C 965.087,536.455 967.754,561.455 961,587.5C 954.634,613.193 939.134,630.693 914.5,640C 897.046,644.737 881.046,641.737 866.5,631C 849.63,616.746 839.464,598.58 836,576.5C 830.725,542.32 840.559,513.487 865.5,490C 874.078,483.872 883.412,479.706 893.5,477.5 Z"/></g>
<g><path style="opacity:0.914" fill="#817e7c" d="M 1718.5,479.5 C 1717.08,480.922 1716.08,482.589 1715.5,484.5C 1714.71,484.217 1714.04,483.717 1713.5,483C 1714.79,481.198 1716.46,480.031 1718.5,479.5 Z"/></g>
<g><path style="opacity:0.718" fill="#827f7d" d="M 1987.5,481.5 C 1988.92,483.515 1989.59,485.848 1989.5,488.5C 1988.08,486.485 1987.41,484.152 1987.5,481.5 Z"/></g>
<g><path style="opacity:1" fill="#fad900" d="M 856.5,517.5 C 861.412,517.063 866.078,517.896 870.5,520C 874.783,522.615 878.783,525.615 882.5,529C 897.886,546.27 910.386,565.437 920,586.5C 922.978,597.839 921.478,608.505 915.5,618.5C 899.947,624.194 885.613,622.027 872.5,612C 855.546,596.657 847.213,577.49 847.5,554.5C 847.211,541.326 850.211,528.992 856.5,517.5 Z"/></g>
<g><path style="opacity:0.769" fill="#7e7b79" d="M 365.5,522.5 C 368.152,522.41 370.485,523.076 372.5,524.5C 369.848,524.59 367.515,523.924 365.5,522.5 Z"/></g>
<g><path style="opacity:0.745" fill="#83807e" d="M 376.5,525.5 C 379.152,525.41 381.485,526.076 383.5,527.5C 380.848,527.59 378.515,526.924 376.5,525.5 Z"/></g>
<g><path style="opacity:0.278" fill="#b9b5b4" d="M 1902.5,532.5 C 1901.83,532.5 1901.5,532.833 1901.5,533.5C 1900.64,532.312 1899.64,531.145 1898.5,530C 1900.41,529.721 1901.75,530.554 1902.5,532.5 Z"/></g>
<g><path style="opacity:0.945" fill="#696562" d="M 545.5,524.5 C 541.773,529.23 537.44,533.23 532.5,536.5C 536.227,531.77 540.56,527.77 545.5,524.5 Z"/></g>
<g><path style="opacity:0.627" fill="#b4b2b0" d="M 1612.5,534.5 C 1613.83,535.167 1614.83,536.167 1615.5,537.5C 1613.5,537.5 1612.5,536.5 1612.5,534.5 Z"/></g>
<g><path style="opacity:0.635" fill="#9f9c9b" d="M 526.5,542.5 C 521.833,547.833 516.833,552.833 511.5,557.5C 515.5,551.5 520.5,546.5 526.5,542.5 Z"/></g>
<g><path style="opacity:0.616" fill="#b5b3b2" d="M 1810.5,555.5 C 1812.17,556.5 1813.5,557.833 1814.5,559.5C 1812.17,559.167 1810.83,557.833 1810.5,555.5 Z"/></g>
<g><path style="opacity:0.725" fill="#8d8b88" d="M 1868.5,553.5 C 1866.83,557.167 1864.17,559.833 1860.5,561.5C 1862.83,558.5 1865.5,555.833 1868.5,553.5 Z"/></g>
<g><path style="opacity:0.718" fill="#a6a4a2" d="M 1637.5,559.5 C 1639.59,560.585 1640.92,562.251 1641.5,564.5C 1639.41,563.415 1638.08,561.749 1637.5,559.5 Z"/></g>
<g><path style="opacity:0.584" fill="#989694" d="M 344.5,556.5 C 343.581,559.089 341.914,561.089 339.5,562.5C 340.419,559.911 342.086,557.911 344.5,556.5 Z"/></g>
<g><path style="opacity:0.678" fill="#989695" d="M 498.5,570.5 C 497.92,572.749 496.587,574.415 494.5,575.5C 495.08,573.251 496.413,571.585 498.5,570.5 Z"/></g>
<g><path style="opacity:1" fill="#241f1c" d="M 2142.5,778.5 C 2142.5,779.5 2142.5,780.5 2142.5,781.5C 2125.19,788.485 2107.86,795.485 2090.5,802.5C 2084.41,790.602 2079.08,778.269 2074.5,765.5C 2080.1,762.363 2085.77,759.196 2091.5,756C 2094.21,753.57 2095.88,750.57 2096.5,747C 2094.86,738.28 2092.36,729.78 2089,721.5C 2083.14,707.58 2077.47,693.58 2072,679.5C 2071.48,678.484 2070.65,677.818 2069.5,677.5C 2048.9,685.254 2028.56,693.588 2008.5,702.5C 2012.06,711.284 2015.89,719.951 2020,728.5C 2022.05,731.423 2024.21,734.257 2026.5,737C 2033.53,739.396 2040.19,738.563 2046.5,734.5C 2051.59,744.088 2055.93,754.088 2059.5,764.5C 2059.74,766.886 2059.07,768.886 2057.5,770.5C 2035.44,777.939 2013.94,786.939 1993,797.5C 1987.95,786.726 1983.45,775.726 1979.5,764.5C 1979.56,763.391 1979.89,762.391 1980.5,761.5C 1984.42,760.207 1988.09,758.374 1991.5,756C 1993.78,753.615 1995.11,750.781 1995.5,747.5C 1993.04,735.778 1989.37,724.445 1984.5,713.5C 1983.83,713.167 1983.17,712.833 1982.5,712.5C 1960.55,721.371 1938.55,730.038 1916.5,738.5C 1914.45,739.053 1914.11,740.053 1915.5,741.5C 1923.09,759.764 1930.59,778.098 1938,796.5C 1940.88,802.423 1944.38,807.923 1948.5,813C 1950.87,814.233 1953.37,815.066 1956,815.5C 1962.06,814.535 1967.89,812.868 1973.5,810.5C 1975.86,810.253 1977.86,810.919 1979.5,812.5C 1984.15,823.808 1988.82,835.141 1993.5,846.5C 1975,854.555 1956.34,862.222 1937.5,869.5C 1909.51,802.871 1882.68,735.871 1857,668.5C 1863.9,664.954 1871.07,662.454 1878.5,661C 1881.61,667.378 1885.11,673.545 1889,679.5C 1892.33,683.417 1896.49,684.917 1901.5,684C 1908.41,682.807 1915.08,680.807 1921.5,678C 1956.17,664 1990.83,650 2025.5,636C 2031.32,633.255 2036.99,630.255 2042.5,627C 2047.21,622.86 2048.71,617.694 2047,611.5C 2045.76,605.456 2043.93,599.623 2041.5,594C 2048.62,590.687 2055.79,587.521 2063,584.5C 2089.81,649.112 2116.31,713.779 2142.5,778.5 Z"/></g>
<g><path style="opacity:1" fill="#201b17" d="M 1416.5,587.5 C 1416.22,592.548 1414.72,597.548 1412,602.5C 1397.68,627.812 1376.85,645.646 1349.5,656C 1327.83,663.668 1305.49,668.002 1282.5,669C 1238.4,668.382 1194.4,670.048 1150.5,674C 1123.5,676.669 1097.16,682.335 1071.5,691C 1059.78,695.36 1048.78,701.027 1038.5,708C 1015.71,728.739 999.876,753.906 991,783.5C 983.751,820.413 992.751,852.746 1018,880.5C 1032.8,894.059 1047.14,908.059 1061,922.5C 1102.97,973.307 1111.31,1029.31 1086,1090.5C 1070.6,1123.79 1049.43,1152.96 1022.5,1178C 988.558,1208.49 950.224,1232.15 907.5,1249C 905.553,1249.99 903.553,1250.32 901.5,1250C 943.992,1220.85 982.159,1186.68 1016,1147.5C 1036.52,1122.47 1051.85,1094.47 1062,1063.5C 1074.92,1017.12 1066.92,974.785 1038,936.5C 1028,925.833 1018,915.167 1008,904.5C 992.579,886.67 979.912,867.003 970,845.5C 960.241,821.297 958.908,796.631 966,771.5C 982.549,721.617 1015.05,686.45 1063.5,666C 1097.57,652.316 1132.9,643.316 1169.5,639C 1199.41,635.672 1229.41,633.672 1259.5,633C 1299.71,630.64 1338.71,622.64 1376.5,609C 1390.95,603.614 1404.28,596.448 1416.5,587.5 Z"/></g>
<g><path style="opacity:1" fill="#231e1b" d="M 163.5,636.5 C 163.738,638.404 164.738,639.738 166.5,640.5C 172.102,646.024 175.936,652.691 178,660.5C 180.744,680.629 178.244,700.129 170.5,719C 165.358,732.097 160.024,745.097 154.5,758C 166.833,763 179.167,768 191.5,773C 197.125,775.32 202.959,776.82 209,777.5C 213.516,777.075 217.183,775.075 220,771.5C 223.734,765.274 227.234,758.941 230.5,752.5C 236.459,755.098 242.459,757.598 248.5,760C 250.18,760.347 251.18,761.347 251.5,763C 235.163,798.514 220.497,834.681 207.5,871.5C 206.609,872.11 205.609,872.443 204.5,872.5C 198.954,871.06 193.62,869.06 188.5,866.5C 186.919,864.858 186.253,862.858 186.5,860.5C 189.286,853.07 190.453,845.403 190,837.5C 187.833,834 185,831.167 181.5,829C 139.408,811.08 97.0748,793.747 54.5,777C 48.2141,774.446 41.8808,774.113 35.5,776C 33.6667,777.833 31.8333,779.667 30,781.5C 26.9068,787.36 23.5735,793.027 20,798.5C 13.1774,795.727 6.34405,793.061 -0.5,790.5C -0.5,789.5 -0.5,788.5 -0.5,787.5C 16.2804,746.589 33.1137,705.589 50,664.5C 55.4556,652.56 62.6223,641.893 71.5,632.5C 73.5,631.167 75.1667,629.5 76.5,627.5C 83.1449,620.213 91.4782,616.047 101.5,615C 125.053,614.128 145.72,621.294 163.5,636.5 Z M 60.5,720.5 C 59.8902,719.609 59.5569,718.609 59.5,717.5C 63.8184,706.527 68.9851,695.86 75,685.5C 82.4625,674.021 92.9625,669.521 106.5,672C 121.978,674.504 133.144,682.67 140,696.5C 141.484,702.765 141.818,709.098 141,715.5C 138.532,726.905 134.865,737.905 130,748.5C 106.946,738.871 83.7796,729.538 60.5,720.5 Z"/></g>
<g><path style="opacity:0.639" fill="#989694" d="M 76.5,627.5 C 75.1667,629.5 73.5,631.167 71.5,632.5C 72.1667,629.833 73.8333,628.167 76.5,627.5 Z"/></g>
<g><path style="opacity:0.718" fill="#a6a4a3" d="M 163.5,636.5 C 165.262,637.262 166.262,638.596 166.5,640.5C 164.738,639.738 163.738,638.404 163.5,636.5 Z"/></g>
<g><path style="opacity:1" fill="#201b17" d="M 962.5,1506.5 C 912.139,1458.79 872.306,1403.46 843,1340.5C 819.061,1286.59 812.061,1230.59 822,1172.5C 828.496,1143.84 839.163,1116.84 854,1091.5C 866,1076.17 878,1060.83 890,1045.5C 902.79,1028.14 911.123,1008.81 915,987.5C 917.379,965.349 912.379,945.015 900,926.5C 879.272,894.767 858.938,862.767 839,830.5C 832.015,818.53 826.682,805.864 823,792.5C 821.622,785.097 822.622,778.097 826,771.5C 845.355,743.443 865.188,715.776 885.5,688.5C 886.659,692.122 886.825,695.789 886,699.5C 882.119,714.928 875.786,729.261 867,742.5C 858.579,755.008 849.913,767.342 841,779.5C 840.931,787.309 842.931,794.642 847,801.5C 868.799,833.303 892.132,863.97 917,893.5C 932.144,912.119 942.81,933.119 949,956.5C 952.818,978.538 950.485,999.871 942,1020.5C 932.604,1040.97 920.937,1059.97 907,1077.5C 892.182,1094.65 878.515,1112.65 866,1131.5C 844.871,1169.93 837.204,1210.93 843,1254.5C 849.146,1295.27 861.146,1334.27 879,1371.5C 902.845,1419.24 930.679,1464.24 962.5,1506.5 Z"/></g>
<g><path style="opacity:0.22" fill="#bcbaba" d="M 59.5,717.5 C 59.5569,718.609 59.8902,719.609 60.5,720.5C 58.4482,719.947 58.1148,718.947 59.5,717.5 Z"/></g>
<g><path style="opacity:0.118" fill="#cccccb" d="M 1916.5,738.5 C 1915.89,739.391 1915.56,740.391 1915.5,741.5C 1914.11,740.053 1914.45,739.053 1916.5,738.5 Z"/></g>
<g><path style="opacity:0.31" fill="#c9c6c5" d="M 1980.5,761.5 C 1979.89,762.391 1979.56,763.391 1979.5,764.5C 1978.11,763.053 1978.45,762.053 1980.5,761.5 Z"/></g>
<g><path style="opacity:0.984" fill="#83807e" d="M 2059.5,764.5 C 2062.8,767.889 2062.14,769.889 2057.5,770.5C 2059.07,768.886 2059.74,766.886 2059.5,764.5 Z"/></g>
<g><path style="opacity:0.984" fill="#8c8986" d="M 1979.5,812.5 C 1977.86,810.919 1975.86,810.253 1973.5,810.5C 1976.77,807.21 1978.77,807.877 1979.5,812.5 Z"/></g>
<g><path style="opacity:0.925" fill="#989695" d="M 186.5,860.5 C 186.253,862.858 186.919,864.858 188.5,866.5C 183.877,865.771 183.21,863.771 186.5,860.5 Z"/></g>
<g><path style="opacity:0.094" fill="#bfbebd" d="M 207.5,871.5 C 206.947,873.552 205.947,873.885 204.5,872.5C 205.609,872.443 206.609,872.11 207.5,871.5 Z"/></g>
<g><path style="opacity:0.733" fill="#858281" d="M 319.5,888.5 C 319.59,891.152 318.924,893.485 317.5,895.5C 317.41,892.848 318.076,890.515 319.5,888.5 Z"/></g>
<g><path style="opacity:0.722" fill="#83817f" d="M 1830.5,902.5 C 1831.92,904.515 1832.59,906.848 1832.5,909.5C 1831.08,907.485 1830.41,905.152 1830.5,902.5 Z"/></g>
<g><path style="opacity:1" fill="#7e6d11" d="M 962.5,1506.5 C 965.073,1507.88 966.573,1509.88 967,1512.5C 964.873,1510.89 963.373,1508.89 962.5,1506.5 Z"/></g>
<g><path style="opacity:1" fill="#1f1a17" d="M 1125.5,1550.5 C 1199.52,1546.62 1271.52,1556.79 1341.5,1581C 1402.48,1603.72 1455.31,1638.56 1500,1685.5C 1505.5,1692.33 1511,1699.17 1516.5,1706C 1443.04,1652.82 1360.54,1627.32 1269,1629.5C 1196.11,1631.48 1125.27,1644.65 1056.5,1669C 993.014,1691.08 932.348,1719.08 874.5,1753C 873.167,1753.67 871.833,1753.67 870.5,1753C 822.67,1725.59 775.003,1697.92 727.5,1670C 820.522,1621.77 918.189,1586.44 1020.5,1564C 1055.43,1557.7 1090.43,1553.2 1125.5,1550.5 Z"/></g>
<g><path style="opacity:0.624" fill="#b3b1b0" d="M 512.5,1651.5 C 515.167,1652.17 516.833,1653.83 517.5,1656.5C 515.5,1655.17 513.833,1653.5 512.5,1651.5 Z"/></g>
<g><path style="opacity:0.718" fill="#acaba9" d="M 517.5,1656.5 C 521.1,1658.43 524.1,1661.1 526.5,1664.5C 522.9,1662.57 519.9,1659.9 517.5,1656.5 Z"/></g>
<g><path style="opacity:0.753" fill="#a4a2a1" d="M 540.5,1678.5 C 542.749,1679.08 544.415,1680.41 545.5,1682.5C 543.251,1681.92 541.585,1680.59 540.5,1678.5 Z"/></g>
<g><path style="opacity:1" fill="#25201d" d="M 371.5,1685.5 C 380.506,1694.51 389.173,1703.84 397.5,1713.5C 401.5,1719.5 406.5,1724.5 412.5,1728.5C 418.298,1733.8 423.965,1739.3 429.5,1745C 425.652,1749.02 421.652,1752.85 417.5,1756.5C 412.915,1752.42 407.915,1748.92 402.5,1746C 398.384,1745.88 394.717,1747.22 391.5,1750C 373,1767.83 354.5,1785.67 336,1803.5C 317.436,1825.06 320.269,1843.23 344.5,1858C 354.082,1860.78 363.082,1859.45 371.5,1854C 374.72,1851.56 378.053,1849.4 381.5,1847.5C 386.105,1844.56 390.105,1840.9 393.5,1836.5C 394.5,1834.83 395.833,1833.5 397.5,1832.5C 406.446,1825.22 414.779,1817.22 422.5,1808.5C 428.921,1802.58 434.421,1795.91 439,1788.5C 439.667,1786.5 439.667,1784.5 439,1782.5C 436.403,1778.3 433.569,1774.3 430.5,1770.5C 432.091,1767.57 434.091,1764.9 436.5,1762.5C 437.167,1761.17 438.167,1760.17 439.5,1759.5C 441.514,1759.39 443.18,1760.06 444.5,1761.5C 450.519,1766.55 455.852,1772.22 460.5,1778.5C 461.08,1780.75 462.413,1782.42 464.5,1783.5C 471.813,1790.48 479.146,1797.48 486.5,1804.5C 488.654,1802.24 488.821,1799.9 487,1797.5C 483.985,1794.32 480.818,1791.32 477.5,1788.5C 480.088,1784.32 482.921,1780.32 486,1776.5C 501.159,1787.41 516.492,1798.08 532,1808.5C 531.956,1810.28 531.289,1811.95 530,1813.5C 517.589,1829.99 505.422,1846.66 493.5,1863.5C 514.454,1862.06 531.287,1869.73 544,1886.5C 546.656,1890.14 548.489,1894.14 549.5,1898.5C 549.41,1901.15 550.076,1903.49 551.5,1905.5C 553.237,1920.22 550.07,1933.89 542,1946.5C 532.395,1963.44 518.895,1976.27 501.5,1985C 478.869,1990.68 459.702,1984.85 444,1967.5C 437.282,1958.58 434.616,1948.58 436,1937.5C 432.324,1942.01 428.49,1946.34 424.5,1950.5C 411.859,1940.18 398.859,1930.35 385.5,1921C 383.789,1919.87 383.289,1918.37 384,1916.5C 386.667,1913.17 389.333,1909.83 392,1906.5C 396.644,1911.25 402.144,1913.25 408.5,1912.5C 411.5,1911.5 413.5,1909.5 414.5,1906.5C 435.124,1877.43 456.124,1848.6 477.5,1820C 473.417,1814.62 468.083,1811.96 461.5,1812C 458.567,1813.27 455.901,1814.94 453.5,1817C 438.195,1831.3 423.195,1845.97 408.5,1861C 401.534,1867.48 394.201,1873.48 386.5,1879C 375.584,1884.99 364.25,1886.49 352.5,1883.5C 350.485,1882.08 348.152,1881.41 345.5,1881.5C 335.206,1878.19 326.539,1872.52 319.5,1864.5C 317.761,1861.76 315.427,1859.76 312.5,1858.5C 299.55,1845.93 292.55,1830.6 291.5,1812.5C 292.173,1795.82 299.173,1782.49 312.5,1772.5C 319.778,1766.89 326.444,1760.56 332.5,1753.5C 333.5,1751.83 334.833,1750.5 336.5,1749.5C 346.079,1741.43 355.246,1732.76 364,1723.5C 364.464,1722.91 364.631,1722.24 364.5,1721.5C 367.7,1718.1 368.867,1714.1 368,1709.5C 365.739,1705.3 363.239,1701.3 360.5,1697.5C 362.742,1692.26 366.408,1688.26 371.5,1685.5 Z M 458.5,1948.5 C 457.167,1946.5 455.5,1944.83 453.5,1943.5C 452.117,1940.14 451.117,1936.64 450.5,1933C 454.974,1914.72 464.307,1899.39 478.5,1887C 486.699,1880.36 495.699,1878.69 505.5,1882C 516.188,1887.88 519.688,1896.71 516,1908.5C 509.794,1924.09 500.294,1937.26 487.5,1948C 477.843,1955.09 468.176,1955.26 458.5,1948.5 Z"/></g>
<g><path style="opacity:0.792" fill="#848180" d="M 371.5,1685.5 C 366.408,1688.26 362.742,1692.26 360.5,1697.5C 358.915,1697 358.415,1696 359,1694.5C 362.167,1691.33 365.333,1688.17 368.5,1685C 369.749,1684.26 370.749,1684.43 371.5,1685.5 Z"/></g>
<g><path style="opacity:1" fill="#26211e" d="M 1770.5,1747.5 C 1769.42,1745.41 1767.75,1744.08 1765.5,1743.5C 1761.67,1741.42 1757.67,1739.59 1753.5,1738C 1747.88,1737.65 1742.88,1739.32 1738.5,1743C 1714.44,1764.8 1712.27,1788.64 1732,1814.5C 1743.26,1829.2 1757.1,1840.7 1773.5,1849C 1789.59,1856.3 1804.59,1854.63 1818.5,1844C 1822.63,1839.52 1826.63,1835.02 1830.5,1830.5C 1831.91,1830.03 1832.57,1829.03 1832.5,1827.5C 1833.04,1825.41 1833.88,1823.41 1835,1821.5C 1835.67,1819.83 1835.67,1818.17 1835,1816.5C 1827.78,1808.6 1819.45,1802.27 1810,1797.5C 1803.45,1801.22 1797.61,1805.88 1792.5,1811.5C 1790.15,1809.81 1788.15,1807.81 1786.5,1805.5C 1785.42,1803.41 1783.75,1802.08 1781.5,1801.5C 1788.89,1794.11 1795.89,1786.45 1802.5,1778.5C 1814.9,1765.27 1827.07,1751.94 1839,1738.5C 1843.3,1741.63 1847.14,1745.3 1850.5,1749.5C 1845.2,1754.43 1842.37,1760.43 1842,1767.5C 1842.93,1769.69 1844.09,1771.69 1845.5,1773.5C 1846.83,1776.83 1849.17,1779.17 1852.5,1780.5C 1859.51,1787.17 1866.51,1793.84 1873.5,1800.5C 1860.2,1827.96 1841.87,1851.46 1818.5,1871C 1793.21,1889.43 1766.88,1891.1 1739.5,1876C 1716.41,1862.58 1700.24,1843.42 1691,1818.5C 1687.94,1807.49 1687.78,1796.49 1690.5,1785.5C 1691.92,1783.49 1692.59,1781.15 1692.5,1778.5C 1697.84,1762.83 1706,1748.83 1717,1736.5C 1729.87,1721.78 1744.37,1709.12 1760.5,1698.5C 1771.83,1708.49 1782.83,1718.83 1793.5,1729.5C 1786.98,1736.18 1780.65,1743.02 1774.5,1750C 1772.59,1750.28 1771.25,1749.45 1770.5,1747.5 Z"/></g>
<g><path style="opacity:0.71" fill="#b0aead" d="M 397.5,1713.5 C 402.833,1718.17 407.833,1723.17 412.5,1728.5C 406.5,1724.5 401.5,1719.5 397.5,1713.5 Z"/></g>
<g><path style="opacity:0.918" fill="#6f6c6a" d="M 364.5,1721.5 C 364.631,1722.24 364.464,1722.91 364,1723.5C 355.246,1732.76 346.079,1741.43 336.5,1749.5C 345.5,1739.83 354.833,1730.5 364.5,1721.5 Z"/></g>
<g><path style="opacity:0.91" fill="#918e8d" d="M 1765.5,1743.5 C 1767.75,1744.08 1769.42,1745.41 1770.5,1747.5C 1768.25,1746.92 1766.58,1745.59 1765.5,1743.5 Z"/></g>
<g><path style="opacity:0.651" fill="#959291" d="M 444.5,1761.5 C 443.18,1760.06 441.514,1759.39 439.5,1759.5C 442.017,1756.93 443.684,1757.59 444.5,1761.5 Z"/></g>
<g><path style="opacity:0.678" fill="#9d9b99" d="M 436.5,1762.5 C 434.091,1764.9 432.091,1767.57 430.5,1770.5C 429.427,1769.75 429.26,1768.75 430,1767.5C 431.777,1765.21 433.944,1763.54 436.5,1762.5 Z"/></g>
<g><path style="opacity:0.965" fill="#6a6764" d="M 332.5,1753.5 C 326.444,1760.56 319.778,1766.89 312.5,1772.5C 318.556,1765.44 325.222,1759.11 332.5,1753.5 Z"/></g>
<g><path style="opacity:0.808" fill="#a6a4a2" d="M 1845.5,1773.5 C 1848.17,1775.5 1850.5,1777.83 1852.5,1780.5C 1849.17,1779.17 1846.83,1776.83 1845.5,1773.5 Z"/></g>
<g><path style="opacity:0.765" fill="#a2a09f" d="M 460.5,1778.5 C 462.587,1779.58 463.92,1781.25 464.5,1783.5C 462.413,1782.42 461.08,1780.75 460.5,1778.5 Z"/></g>
<g><path style="opacity:0.671" fill="#888684" d="M 1692.5,1778.5 C 1692.59,1781.15 1691.92,1783.49 1690.5,1785.5C 1690.41,1782.85 1691.08,1780.51 1692.5,1778.5 Z"/></g>
<g><path style="opacity:0.741" fill="#989594" d="M 1802.5,1778.5 C 1795.89,1786.45 1788.89,1794.11 1781.5,1801.5C 1780.47,1801.1 1780.31,1800.44 1781,1799.5C 1788.04,1792.3 1795.2,1785.3 1802.5,1778.5 Z"/></g>
<g><path style="opacity:1" fill="#26211e" d="M 1676.5,1797.5 C 1677.61,1797.56 1678.61,1797.89 1679.5,1798.5C 1682.3,1802.15 1684.97,1805.99 1687.5,1810C 1680.97,1813.69 1675.97,1818.86 1672.5,1825.5C 1673.9,1829.96 1675.56,1834.29 1677.5,1838.5C 1677.43,1840.03 1678.09,1841.03 1679.5,1841.5C 1687.33,1852.48 1694.66,1863.82 1701.5,1875.5C 1701.43,1877.03 1702.09,1878.03 1703.5,1878.5C 1711.22,1889.6 1718.72,1900.93 1726,1912.5C 1728.7,1915.37 1731.54,1918.04 1734.5,1920.5C 1736.97,1921.63 1739.63,1921.8 1742.5,1921C 1743.06,1920.62 1743.39,1920.12 1743.5,1919.5C 1747.3,1917.77 1750.97,1915.77 1754.5,1913.5C 1758.12,1918.23 1760.95,1923.23 1763,1928.5C 1738.98,1942.01 1715.98,1957.01 1694,1973.5C 1690.46,1968.92 1687.29,1964.09 1684.5,1959C 1689.13,1956.09 1693.3,1952.59 1697,1948.5C 1698.46,1945.63 1698.79,1942.63 1698,1939.5C 1695.17,1933.18 1691.84,1927.18 1688,1921.5C 1671.86,1897.87 1656.36,1873.87 1641.5,1849.5C 1640.93,1848.03 1640.09,1846.69 1639,1845.5C 1638.4,1847.53 1638.9,1849.2 1640.5,1850.5C 1641.15,1852.44 1641.48,1854.44 1641.5,1856.5C 1641.41,1859.15 1642.08,1861.49 1643.5,1863.5C 1648.1,1877.9 1652.1,1892.57 1655.5,1907.5C 1655.41,1910.15 1656.08,1912.49 1657.5,1914.5C 1658.43,1915.57 1658.77,1916.9 1658.5,1918.5C 1658.41,1921.15 1659.08,1923.49 1660.5,1925.5C 1665.1,1939.9 1669.1,1954.57 1672.5,1969.5C 1672.41,1972.15 1673.08,1974.49 1674.5,1976.5C 1675.93,1978.91 1676.43,1981.58 1676,1984.5C 1667.27,1990.89 1658.27,1996.89 1649,2002.5C 1613.23,1973.37 1577.39,1944.37 1541.5,1915.5C 1540.54,1914.04 1539.38,1912.71 1538,1911.5C 1537.72,1913.41 1538.55,1914.75 1540.5,1915.5C 1559.07,1944.31 1577.91,1972.98 1597,2001.5C 1599.34,2004.09 1602.18,2005.75 1605.5,2006.5C 1611.49,2005.01 1617.16,2002.67 1622.5,1999.5C 1625.88,2003.76 1628.88,2008.26 1631.5,2013C 1621.2,2020.16 1610.53,2026.82 1599.5,2033C 1590.66,2038.92 1581.99,2045.09 1573.5,2051.5C 1570.01,2047.16 1566.67,2042.66 1563.5,2038C 1567.04,2034.95 1570.71,2032.12 1574.5,2029.5C 1577.52,2028.14 1578.85,2025.81 1578.5,2022.5C 1576.49,2016.14 1573.66,2010.14 1570,2004.5C 1555,1981.5 1540,1958.5 1525,1935.5C 1522.17,1931.16 1518.33,1928.16 1513.5,1926.5C 1507.83,1928.42 1502.33,1930.75 1497,1933.5C 1493.64,1929.8 1490.64,1925.8 1488,1921.5C 1487.38,1920.55 1487.55,1919.72 1488.5,1919C 1509.17,1907.15 1529.17,1894.32 1548.5,1880.5C 1581.54,1907.22 1614.54,1933.89 1647.5,1960.5C 1648.05,1962.61 1649.39,1963.44 1651.5,1963C 1650.92,1961.7 1650.25,1960.53 1649.5,1959.5C 1638.27,1919.1 1627.27,1878.6 1616.5,1838C 1616.79,1836.11 1617.79,1834.78 1619.5,1834C 1638.94,1822.37 1657.94,1810.21 1676.5,1797.5 Z"/></g>
<g><path style="opacity:0.443" fill="#afacab" d="M 1676.5,1797.5 C 1677.95,1796.11 1678.95,1796.45 1679.5,1798.5C 1678.61,1797.89 1677.61,1797.56 1676.5,1797.5 Z"/></g>
<g><path style="opacity:0.765" fill="#a2a09f" d="M 1781.5,1801.5 C 1783.75,1802.08 1785.42,1803.41 1786.5,1805.5C 1784.25,1804.92 1782.58,1803.59 1781.5,1801.5 Z"/></g>
<g><path style="opacity:0.941" fill="#6a6664" d="M 422.5,1808.5 C 414.779,1817.22 406.446,1825.22 397.5,1832.5C 405.221,1823.78 413.554,1815.78 422.5,1808.5 Z"/></g>
<g><path style="opacity:0.427" fill="#aaa8a8" d="M 1832.5,1827.5 C 1832.57,1829.03 1831.91,1830.03 1830.5,1830.5C 1830.43,1828.97 1831.09,1827.97 1832.5,1827.5 Z"/></g>
<g><path style="opacity:0.396" fill="#a9a7a6" d="M 1677.5,1838.5 C 1678.91,1838.97 1679.57,1839.97 1679.5,1841.5C 1678.09,1841.03 1677.43,1840.03 1677.5,1838.5 Z"/></g>
<g><path style="opacity:0.882" fill="#767270" d="M 393.5,1836.5 C 390.105,1840.9 386.105,1844.56 381.5,1847.5C 384.895,1843.1 388.895,1839.44 393.5,1836.5 Z"/></g>
<g><path style="opacity:0.008" fill="#d3d2d2" d="M 1641.5,1849.5 C 1640.83,1849.5 1640.5,1849.83 1640.5,1850.5C 1638.9,1849.2 1638.4,1847.53 1639,1845.5C 1640.09,1846.69 1640.93,1848.03 1641.5,1849.5 Z"/></g>
<g><path style="opacity:0.706" fill="#aba9a8" d="M 312.5,1858.5 C 315.427,1859.76 317.761,1861.76 319.5,1864.5C 316.573,1863.24 314.239,1861.24 312.5,1858.5 Z"/></g>
<g><path style="opacity:0.737" fill="#83807f" d="M 867.5,1859.5 C 870.152,1859.41 872.485,1860.08 874.5,1861.5C 871.848,1861.59 869.515,1860.92 867.5,1859.5 Z"/></g>
<g><path style="opacity:0.757" fill="#817e7d" d="M 1641.5,1856.5 C 1642.92,1858.51 1643.59,1860.85 1643.5,1863.5C 1642.08,1861.49 1641.41,1859.15 1641.5,1856.5 Z"/></g>
<g><path style="opacity:0.416" fill="#a9a8a7" d="M 1701.5,1875.5 C 1702.91,1875.97 1703.57,1876.97 1703.5,1878.5C 1702.09,1878.03 1701.43,1877.03 1701.5,1875.5 Z"/></g>
<g><path style="opacity:0.945" fill="#7f7b79" d="M 345.5,1881.5 C 348.152,1881.41 350.485,1882.08 352.5,1883.5C 349.848,1883.59 347.515,1882.92 345.5,1881.5 Z"/></g>
<g><path style="opacity:0.663" fill="#858281" d="M 549.5,1898.5 C 550.924,1900.51 551.59,1902.85 551.5,1905.5C 550.076,1903.49 549.41,1901.15 549.5,1898.5 Z"/></g>
<g><path style="opacity:0.698" fill="#969392" d="M 414.5,1906.5 C 413.5,1909.5 411.5,1911.5 408.5,1912.5C 410.167,1910.17 412.167,1908.17 414.5,1906.5 Z"/></g>
<g><path style="opacity:0.384" fill="#b6b5b4" d="M 1541.5,1915.5 C 1541.17,1915.5 1540.83,1915.5 1540.5,1915.5C 1538.55,1914.75 1537.72,1913.41 1538,1911.5C 1539.38,1912.71 1540.54,1914.04 1541.5,1915.5 Z"/></g>
<g><path style="opacity:0.741" fill="#858281" d="M 1655.5,1907.5 C 1656.92,1909.51 1657.59,1911.85 1657.5,1914.5C 1656.08,1912.49 1655.41,1910.15 1655.5,1907.5 Z"/></g>
<g><path style="opacity:0.976" fill="#8b8987" d="M 1743.5,1919.5 C 1743.39,1920.12 1743.06,1920.62 1742.5,1921C 1739.63,1921.8 1736.97,1921.63 1734.5,1920.5C 1737.57,1920.63 1740.57,1920.3 1743.5,1919.5 Z"/></g>
<g><path style="opacity:0.757" fill="#817e7d" d="M 1658.5,1918.5 C 1659.92,1920.51 1660.59,1922.85 1660.5,1925.5C 1659.08,1923.49 1658.41,1921.15 1658.5,1918.5 Z"/></g>
<g><path style="opacity:1" fill="#26211e" d="M 593.5,2030.5 C 596.833,2029.17 599.167,2026.83 600.5,2023.5C 601.557,2021.06 602.89,2018.73 604.5,2016.5C 614.684,2021.09 624.351,2026.42 633.5,2032.5C 621.917,2053.99 604.251,2061.15 580.5,2054C 562.371,2048.85 547.871,2038.68 537,2023.5C 528.86,2005.14 529.193,1986.81 538,1968.5C 557.016,1926.16 587.183,1915.66 628.5,1937C 654.201,1952.61 661.368,1974.44 650,2002.5C 647.945,2008.28 645.112,2013.61 641.5,2018.5C 619.656,2007.08 597.656,1995.91 575.5,1985C 574.365,1984.25 573.365,1984.42 572.5,1985.5C 565.709,1996 563.209,2007.34 565,2019.5C 571.252,2031.37 580.752,2035.04 593.5,2030.5 Z M 601.5,1948.5 C 617.627,1948.12 624.127,1955.79 621,1971.5C 619.587,1976.74 617.587,1981.74 615,1986.5C 604.07,1980.28 592.903,1974.45 581.5,1969C 585.845,1959.73 592.512,1952.9 601.5,1948.5 Z"/></g>
<g><path style="opacity:0.863" fill="#9b9998" d="M 453.5,1943.5 C 455.5,1944.83 457.167,1946.5 458.5,1948.5C 455.833,1947.83 454.167,1946.17 453.5,1943.5 Z"/></g>
<g><path style="opacity:1" fill="#25201d" d="M 842.5,1962.5 C 843.5,1963.17 844.5,1963.83 845.5,1964.5C 832.681,2013.44 820.014,2062.44 807.5,2111.5C 807.648,2114.63 808.982,2117.13 811.5,2119C 814.527,2120.51 817.527,2122.01 820.5,2123.5C 821.11,2124.39 821.443,2125.39 821.5,2126.5C 820.983,2130.22 820.15,2133.89 819,2137.5C 818.439,2138.02 817.772,2138.36 817,2138.5C 793.593,2130.52 769.76,2124.19 745.5,2119.5C 745.263,2118.21 745.596,2117.21 746.5,2116.5C 747.924,2114.49 748.59,2112.15 748.5,2109.5C 748.01,2107.05 748.843,2105.38 751,2104.5C 756.515,2106.09 761.848,2105.76 767,2103.5C 769.219,2099.73 770.885,2095.73 772,2091.5C 774.548,2081.29 777.381,2071.29 780.5,2061.5C 781.924,2059.49 782.59,2057.15 782.5,2054.5C 782.565,2051.57 783.232,2048.91 784.5,2046.5C 785.924,2044.49 786.59,2042.15 786.5,2039.5C 787.592,2032.91 789.259,2026.58 791.5,2020.5C 792.924,2018.49 793.59,2016.15 793.5,2013.5C 793.565,2010.57 794.232,2007.91 795.5,2005.5C 796.924,2003.49 797.59,2001.15 797.5,1998.5C 798.347,1993.11 799.513,1987.78 801,1982.5C 801.667,1978.83 801.667,1975.17 801,1971.5C 797.486,1968.5 793.653,1966.17 789.5,1964.5C 788.768,1961.93 788.768,1959.27 789.5,1956.5C 789.39,1953.94 790.056,1951.61 791.5,1949.5C 808.493,1954.33 825.493,1958.66 842.5,1962.5 Z"/></g>
<g><path style="opacity:0.976" fill="#807d7b" d="M 1649.5,1959.5 C 1650.25,1960.53 1650.92,1961.7 1651.5,1963C 1649.39,1963.44 1648.05,1962.61 1647.5,1960.5C 1648.92,1962.03 1649.59,1961.7 1649.5,1959.5 Z"/></g>
<g><path style="opacity:0.729" fill="#817f7d" d="M 789.5,1956.5 C 788.768,1959.27 788.768,1961.93 789.5,1964.5C 788.351,1964.21 787.684,1963.38 787.5,1962C 787.701,1959.89 788.367,1958.06 789.5,1956.5 Z"/></g>
<g><path style="opacity:0.169" fill="#bcbbb7" d="M 842.5,1962.5 C 843.978,1962.24 845.311,1962.57 846.5,1963.5C 846.376,1964.11 846.043,1964.44 845.5,1964.5C 844.5,1963.83 843.5,1963.17 842.5,1962.5 Z"/></g>
<g><path style="opacity:1" fill="#26211e" d="M 727.5,1983.5 C 728.11,1984.39 728.443,1985.39 728.5,1986.5C 727.679,1990.13 726.346,1993.46 724.5,1996.5C 723.224,1997.39 723.224,1998.39 724.5,1999.5C 725.107,1999.38 725.44,1999.04 725.5,1998.5C 743.237,1991.08 760.57,1992.08 777.5,2001.5C 778.614,2002.72 778.781,2004.06 778,2005.5C 773.591,2016.65 768.925,2027.65 764,2038.5C 756.862,2035.4 749.695,2032.4 742.5,2029.5C 741.89,2028.61 741.557,2027.61 741.5,2026.5C 741.5,2026.17 741.5,2025.83 741.5,2025.5C 742.152,2024.55 742.486,2023.38 742.5,2022C 742.392,2020.32 741.725,2019.15 740.5,2018.5C 736.799,2014.32 732.132,2012.82 726.5,2014C 717.957,2018.9 712.123,2026.06 709,2035.5C 703.941,2047.34 699.274,2059.34 695,2071.5C 694.503,2074.15 694.336,2076.81 694.5,2079.5C 694.5,2081.5 695.5,2082.5 697.5,2082.5C 700.806,2084.49 704.139,2086.49 707.5,2088.5C 705.692,2093.26 703.692,2097.93 701.5,2102.5C 678.734,2091.62 655.401,2082.12 631.5,2074C 633.664,2069.67 635.331,2065.17 636.5,2060.5C 642.066,2062.06 647.733,2062.56 653.5,2062C 657.208,2058.09 660.042,2053.59 662,2048.5C 669.196,2030.58 676.196,2012.58 683,1994.5C 683.667,1991.83 683.667,1989.17 683,1986.5C 679.252,1982.92 675.085,1979.92 670.5,1977.5C 672.167,1973.5 673.833,1969.5 675.5,1965.5C 676.365,1964.42 677.365,1964.25 678.5,1965C 694.59,1971.86 710.923,1978.03 727.5,1983.5 Z"/></g>
<g><path style="opacity:0.902" fill="#6e6a68" d="M 1296.5,1967.5 C 1290.8,1967.37 1285.13,1967.71 1279.5,1968.5C 1282.53,1966.98 1285.86,1966.31 1289.5,1966.5C 1292.03,1966.5 1294.36,1966.84 1296.5,1967.5 Z"/></g>
<g><path style="opacity:1" fill="#27221f" d="M 1296.5,1967.5 C 1307.79,1971.75 1311.96,1979.75 1309,1991.5C 1304.41,2000.98 1296.74,2005.98 1286,2006.5C 1268.32,2003.12 1262.65,1993.12 1269,1976.5C 1271.49,1972.5 1274.99,1969.84 1279.5,1968.5C 1285.13,1967.71 1290.8,1967.37 1296.5,1967.5 Z"/></g>
<g><path style="opacity:1" fill="#292421" d="M 957.5,2023.5 C 957.158,2024.34 956.492,2024.67 955.5,2024.5C 952.794,2024.42 950.127,2024.09 947.5,2023.5C 947.027,2022.09 946.027,2021.43 944.5,2021.5C 938.17,2013.67 931.337,2006.34 924,1999.5C 914.333,2004.17 904.667,2008.83 895,2013.5C 892.165,2012.77 889.332,2012.1 886.5,2011.5C 885.89,2010.61 885.557,2009.61 885.5,2008.5C 888.167,2005.17 891.167,2002.17 894.5,1999.5C 896.587,1998.42 897.92,1996.75 898.5,1994.5C 904.776,1986.55 911.776,1979.22 919.5,1972.5C 926.53,1974.04 933.53,1975.71 940.5,1977.5C 946.571,1992.71 952.237,2008.05 957.5,2023.5 Z"/></g>
<g><path style="opacity:0.741" fill="#848180" d="M 1672.5,1969.5 C 1673.92,1971.51 1674.59,1973.85 1674.5,1976.5C 1673.08,1974.49 1672.41,1972.15 1672.5,1969.5 Z"/></g>
<g><path style="opacity:1" fill="#241f1c" d="M 1273.5,2139.5 C 1274.83,2139.5 1276.17,2139.5 1277.5,2139.5C 1277.22,2141.41 1277.55,2143.08 1278.5,2144.5C 1278.5,2144.83 1278.5,2145.17 1278.5,2145.5C 1278.87,2148.53 1278.2,2151.2 1276.5,2153.5C 1260.42,2155.51 1244.42,2158.18 1228.5,2161.5C 1226.6,2156.69 1225.6,2151.69 1225.5,2146.5C 1225.79,2144.71 1225.45,2143.05 1224.5,2141.5C 1223.7,2141.96 1223.37,2142.62 1223.5,2143.5C 1219.58,2156.58 1210.92,2164.75 1197.5,2168C 1160.87,2174.6 1138.37,2159.77 1130,2123.5C 1126.34,2106.73 1126.67,2090.07 1131,2073.5C 1131.9,2070.93 1133.07,2068.6 1134.5,2066.5C 1135.91,2066.03 1136.57,2065.03 1136.5,2063.5C 1143.88,2051.95 1154.55,2045.12 1168.5,2043C 1180.77,2040.49 1192.43,2042.16 1203.5,2048C 1205.24,2049.52 1206.91,2051.02 1208.5,2052.5C 1208.78,2053.29 1209.28,2053.96 1210,2054.5C 1210.8,2051.63 1210.63,2048.97 1209.5,2046.5C 1207.84,2035.91 1206.34,2025.24 1205,2014.5C 1204.4,2011.36 1203.4,2008.36 1202,2005.5C 1200.83,2004.11 1199.33,2003.27 1197.5,2003C 1193.18,2002.5 1188.85,2002.33 1184.5,2002.5C 1184.5,1998.97 1184.16,1995.47 1183.5,1992C 1183.68,1990.34 1184.34,1989.01 1185.5,1988C 1202.79,1986.31 1219.95,1983.81 1237,1980.5C 1238.11,1980.59 1239.11,1980.92 1240,1981.5C 1245.85,2030.18 1251.85,2078.85 1258,2127.5C 1258.86,2136.86 1264.02,2140.86 1273.5,2139.5 Z M 1181.5,2138.5 C 1180.17,2136.5 1178.5,2134.83 1176.5,2133.5C 1174.83,2130.12 1173.16,2126.79 1171.5,2123.5C 1171.59,2120.85 1170.92,2118.51 1169.5,2116.5C 1167.64,2104.9 1167.14,2093.24 1168,2081.5C 1171.92,2064.63 1182.08,2058.79 1198.5,2064C 1206.8,2070.09 1211.97,2078.26 1214,2088.5C 1217.95,2102.9 1217.95,2117.24 1214,2131.5C 1207.94,2141.78 1199.1,2145.28 1187.5,2142C 1185.31,2141.07 1183.31,2139.91 1181.5,2138.5 Z"/></g>
<g><path style="opacity:0.071" fill="#dad8d8" d="M 727.5,1983.5 C 729.552,1984.05 729.885,1985.05 728.5,1986.5C 728.443,1985.39 728.11,1984.39 727.5,1983.5 Z"/></g>
<g><path style="opacity:1" fill="#26211e" d="M 1450.5,2085.5 C 1449.4,2081.71 1448.74,2081.71 1448.5,2085.5C 1445.07,2098.77 1437.07,2108.27 1424.5,2114C 1411.18,2119.98 1397.52,2120.98 1383.5,2117C 1370.6,2109.71 1363.93,2098.54 1363.5,2083.5C 1363.88,2071.58 1368.88,2062.08 1378.5,2055C 1393.9,2044.97 1410.57,2037.64 1428.5,2033C 1426.67,2028.18 1424.84,2023.35 1423,2018.5C 1417.86,2005.79 1409.03,2002.29 1396.5,2008C 1387.52,2014.07 1384.85,2022.24 1388.5,2032.5C 1377.68,2036.89 1366.68,2040.89 1355.5,2044.5C 1352.91,2043.93 1351.91,2042.26 1352.5,2039.5C 1352.35,2033.13 1352.68,2026.8 1353.5,2020.5C 1355.71,2013.78 1359.71,2008.28 1365.5,2004C 1387.35,1989.21 1411.35,1982.87 1437.5,1985C 1447.64,1989.42 1454.47,1996.92 1458,2007.5C 1464.41,2027.06 1471.41,2046.4 1479,2065.5C 1480.17,2066.67 1481.33,2067.83 1482.5,2069C 1487.82,2069.78 1492.99,2069.28 1498,2067.5C 1500.12,2072.01 1501.95,2076.68 1503.5,2081.5C 1487.62,2086.57 1471.96,2092.24 1456.5,2098.5C 1453.72,2094.6 1451.72,2090.27 1450.5,2085.5 Z M 1431.5,2048.5 C 1432.5,2048.41 1433.33,2048.75 1434,2049.5C 1438.89,2060.28 1439.89,2071.28 1437,2082.5C 1430.08,2095.14 1420.25,2098.31 1407.5,2092C 1397.53,2079.88 1398.2,2068.55 1409.5,2058C 1416.81,2054.51 1424.14,2051.34 1431.5,2048.5 Z"/></g>
<g><path style="opacity:0.157" fill="#b8b4b3" d="M 724.5,1996.5 C 724.328,1997.49 724.662,1998.16 725.5,1998.5C 725.44,1999.04 725.107,1999.38 724.5,1999.5C 723.224,1998.39 723.224,1997.39 724.5,1996.5 Z"/></g>
<g><path style="opacity:0.639" fill="#9e9c9a" d="M 898.5,1994.5 C 897.92,1996.75 896.587,1998.42 894.5,1999.5C 895.08,1997.25 896.413,1995.58 898.5,1994.5 Z"/></g>
<g><path style="opacity:0.745" fill="#827f7d" d="M 797.5,1998.5 C 797.59,2001.15 796.924,2003.49 795.5,2005.5C 795.41,2002.85 796.076,2000.51 797.5,1998.5 Z"/></g>
<g><path style="opacity:0.498" fill="#b2afae" d="M 885.5,2008.5 C 885.557,2009.61 885.89,2010.61 886.5,2011.5C 882.995,2011.31 882.662,2010.31 885.5,2008.5 Z"/></g>
<g><path style="opacity:0.765" fill="#7e7a78" d="M 793.5,2013.5 C 793.59,2016.15 792.924,2018.49 791.5,2020.5C 791.41,2017.85 792.076,2015.51 793.5,2013.5 Z"/></g>
<g><path style="opacity:1" fill="#25201d" d="M 1325.5,2059.5 C 1325.41,2062.15 1326.08,2064.49 1327.5,2066.5C 1331.51,2082.21 1336.01,2097.87 1341,2113.5C 1343.07,2115.97 1345.73,2117.3 1349,2117.5C 1352.41,2117.01 1355.74,2116.35 1359,2115.5C 1360.8,2120.69 1361.96,2126.03 1362.5,2131.5C 1338.43,2135.43 1314.76,2141.1 1291.5,2148.5C 1290.56,2148.39 1289.72,2148.06 1289,2147.5C 1288.18,2144.88 1287.68,2142.22 1287.5,2139.5C 1287.33,2137.38 1287.66,2135.38 1288.5,2133.5C 1293.02,2132.32 1296.86,2129.99 1300,2126.5C 1300.17,2124.67 1300.33,2122.83 1300.5,2121C 1296.38,2100.02 1291.55,2079.19 1286,2058.5C 1284.9,2055.14 1283.4,2051.97 1281.5,2049C 1275.83,2047.57 1270.16,2047.07 1264.5,2047.5C 1262.87,2042.96 1261.87,2038.3 1261.5,2033.5C 1272.84,2030.83 1284.17,2028.16 1295.5,2025.5C 1300.16,2024.94 1304.5,2023.61 1308.5,2021.5C 1310.54,2020.42 1312.71,2019.42 1315,2018.5C 1319.27,2031.92 1322.77,2045.59 1325.5,2059.5 Z"/></g>
<g><path style="opacity:0.396" fill="#878483" d="M 740.5,2018.5 C 741.725,2019.15 742.392,2020.32 742.5,2022C 742.486,2023.38 742.152,2024.55 741.5,2025.5C 741.702,2023.05 741.369,2020.72 740.5,2018.5 Z"/></g>
<g><path style="opacity:0.341" fill="#b8b6b6" d="M 944.5,2021.5 C 946.027,2021.43 947.027,2022.09 947.5,2023.5C 945.973,2023.57 944.973,2022.91 944.5,2021.5 Z"/></g>
<g><path style="opacity:0.184" fill="#d4d3d3" d="M 957.5,2023.5 C 958.885,2024.3 958.718,2024.97 957,2025.5C 956.235,2025.43 955.735,2025.1 955.5,2024.5C 956.492,2024.67 957.158,2024.34 957.5,2023.5 Z"/></g>
<g><path style="opacity:0.98" fill="#666260" d="M 1308.5,2021.5 C 1304.5,2023.61 1300.16,2024.94 1295.5,2025.5C 1299.5,2023.39 1303.84,2022.06 1308.5,2021.5 Z"/></g>
<g><path style="opacity:0.776" fill="#8a8785" d="M 1578.5,2022.5 C 1578.85,2025.81 1577.52,2028.14 1574.5,2029.5C 1575.87,2027.14 1577.21,2024.81 1578.5,2022.5 Z"/></g>
<g><path style="opacity:0.737" fill="#83807f" d="M 600.5,2023.5 C 599.167,2026.83 596.833,2029.17 593.5,2030.5C 595.5,2027.83 597.833,2025.5 600.5,2023.5 Z"/></g>
<g><path style="opacity:0.357" fill="#cbcbca" d="M 741.5,2026.5 C 741.557,2027.61 741.89,2028.61 742.5,2029.5C 740.448,2028.95 740.115,2027.95 741.5,2026.5 Z"/></g>
<g><path style="opacity:0.859" fill="#787573" d="M 1353.5,2020.5 C 1352.68,2026.8 1352.35,2033.13 1352.5,2039.5C 1351.84,2037.02 1351.5,2034.36 1351.5,2031.5C 1351.29,2027.53 1351.96,2023.86 1353.5,2020.5 Z"/></g>
<g><path style="opacity:1" fill="#26211e" d="M 957.5,2054.5 C 957.427,2056.03 958.094,2057.03 959.5,2057.5C 960.6,2059.28 961.434,2061.28 962,2063.5C 962.667,2070.5 962.667,2077.5 962,2084.5C 958.307,2103.13 954.807,2121.8 951.5,2140.5C 951.594,2142.92 952.094,2145.26 953,2147.5C 956.574,2150.18 960.407,2152.18 964.5,2153.5C 965.551,2154.22 966.218,2155.22 966.5,2156.5C 966.219,2160.19 965.719,2163.85 965,2167.5C 964.439,2168.02 963.772,2168.36 963,2168.5C 947.938,2164.92 932.771,2161.92 917.5,2159.5C 916.833,2158.83 916.167,2158.17 915.5,2157.5C 915.909,2153.15 916.076,2148.82 916,2144.5C 904.188,2155.25 890.354,2159.08 874.5,2156C 845.389,2150.93 833.889,2134.09 840,2105.5C 843.596,2094.9 850.762,2088.07 861.5,2085C 867.901,2083.42 874.401,2082.59 881,2082.5C 895.649,2083.47 910.149,2085.47 924.5,2088.5C 925.444,2081.95 926.444,2075.45 927.5,2069C 926.805,2057.14 920.472,2051.31 908.5,2051.5C 898.518,2052.31 892.351,2057.64 890,2067.5C 889.107,2068.08 888.107,2068.41 887,2068.5C 877.111,2066.56 867.277,2064.56 857.5,2062.5C 856.1,2061.9 855.1,2060.9 854.5,2059.5C 857.673,2044.83 866.673,2035.99 881.5,2033C 905.475,2030.66 928.142,2035 949.5,2046C 953.07,2048.07 955.737,2050.9 957.5,2054.5 Z M 917.5,2103.5 C 918.209,2104.4 919.209,2104.74 920.5,2104.5C 920.5,2105.83 920.5,2107.17 920.5,2108.5C 920.5,2108.83 920.5,2109.17 920.5,2109.5C 919.232,2111.91 918.565,2114.57 918.5,2117.5C 916.853,2121.42 915.186,2125.42 913.5,2129.5C 911.413,2130.58 910.08,2132.25 909.5,2134.5C 901.142,2141.13 892.142,2142.13 882.5,2137.5C 881.167,2135.5 879.5,2133.83 877.5,2132.5C 872.541,2114.06 879.374,2103.39 898,2100.5C 904.455,2101.56 910.955,2102.56 917.5,2103.5 Z"/></g>
<g><path style="opacity:0.733" fill="#83817f" d="M 786.5,2039.5 C 786.59,2042.15 785.924,2044.49 784.5,2046.5C 784.41,2043.85 785.076,2041.51 786.5,2039.5 Z"/></g>
<g><path style="opacity:0.498" fill="#a4a2a1" d="M 996.5,2050.5 C 990.167,2050.5 983.833,2050.5 977.5,2050.5C 977.802,2053.06 977.468,2055.39 976.5,2057.5C 976.5,2054.83 976.5,2052.17 976.5,2049.5C 983.354,2049.18 990.021,2049.51 996.5,2050.5 Z"/></g>
<g><path style="opacity:1" fill="#231e1b" d="M 1099.5,2061.5 C 1099.43,2063.03 1100.09,2064.03 1101.5,2064.5C 1104.39,2069 1106.23,2074 1107,2079.5C 1107.07,2102.83 1107.07,2126.17 1107,2149.5C 1107.35,2151.85 1108.51,2153.68 1110.5,2155C 1113.2,2155.84 1115.87,2156.67 1118.5,2157.5C 1119.21,2158.4 1120.21,2158.74 1121.5,2158.5C 1121.5,2163.17 1121.5,2167.83 1121.5,2172.5C 1117.5,2172.5 1113.5,2172.5 1109.5,2172.5C 1103,2171.62 1096.33,2170.95 1089.5,2170.5C 1078.01,2169.51 1066.35,2169.17 1054.5,2169.5C 1054.5,2164.83 1054.5,2160.17 1054.5,2155.5C 1060.82,2155.45 1064.66,2152.45 1066,2146.5C 1067.12,2130.18 1067.95,2113.85 1068.5,2097.5C 1068.8,2089.44 1067.3,2081.78 1064,2074.5C 1054.38,2067.09 1045.71,2068.09 1038,2077.5C 1035.33,2082.52 1033.66,2087.85 1033,2093.5C 1031.96,2108.65 1031.13,2123.82 1030.5,2139C 1030.57,2143.34 1031.4,2147.5 1033,2151.5C 1034.88,2152.61 1036.71,2153.61 1038.5,2154.5C 1040.22,2155.02 1041.55,2156.02 1042.5,2157.5C 1042.5,2159.17 1042.5,2160.83 1042.5,2162.5C 1042.08,2165.16 1041.08,2167.49 1039.5,2169.5C 1029.12,2169.22 1018.78,2168.56 1008.5,2167.5C 997.012,2166.51 985.345,2166.17 973.5,2166.5C 973.5,2161.83 973.5,2157.17 973.5,2152.5C 979.331,2152.8 984.664,2151.47 989.5,2148.5C 990.966,2147.65 991.8,2146.32 992,2144.5C 992.498,2141.52 992.665,2138.52 992.5,2135.5C 993.385,2113.46 993.385,2091.46 992.5,2069.5C 991.878,2066.22 989.878,2064.89 986.5,2065.5C 983.193,2064.95 979.86,2064.62 976.5,2064.5C 976.5,2062.17 976.5,2059.83 976.5,2057.5C 977.468,2055.39 977.802,2053.06 977.5,2050.5C 983.833,2050.5 990.167,2050.5 996.5,2050.5C 1007.85,2050.51 1019.18,2050.18 1030.5,2049.5C 1030.5,2051.17 1030.5,2052.83 1030.5,2054.5C 1030.18,2057.9 1030.51,2061.23 1031.5,2064.5C 1033.52,2063.15 1035.19,2061.48 1036.5,2059.5C 1041.82,2053.67 1048.48,2050.17 1056.5,2049C 1070.07,2046.85 1082.73,2049.18 1094.5,2056C 1096.37,2057.7 1098.04,2059.54 1099.5,2061.5 Z"/></g>
<g><path style="opacity:0.047" fill="#cbcbc9" d="M 1209.5,2046.5 C 1210.63,2048.97 1210.8,2051.63 1210,2054.5C 1209.28,2053.96 1208.78,2053.29 1208.5,2052.5C 1209.46,2050.74 1209.79,2048.74 1209.5,2046.5 Z"/></g>
<g><path style="opacity:0.349" fill="#aeacab" d="M 957.5,2054.5 C 958.906,2054.97 959.573,2055.97 959.5,2057.5C 958.094,2057.03 957.427,2056.03 957.5,2054.5 Z"/></g>
<g><path style="opacity:0.753" fill="#807c7b" d="M 782.5,2054.5 C 782.59,2057.15 781.924,2059.49 780.5,2061.5C 780.41,2058.85 781.076,2056.51 782.5,2054.5 Z"/></g>
<g><path style="opacity:0.216" fill="#c0bebd" d="M 854.5,2059.5 C 855.1,2060.9 856.1,2061.9 857.5,2062.5C 856.167,2062.5 854.833,2062.5 853.5,2062.5C 853.263,2061.21 853.596,2060.21 854.5,2059.5 Z"/></g>
<g><path style="opacity:0.592" fill="#9e9c9b" d="M 1030.5,2054.5 C 1031.32,2056.97 1031.82,2059.64 1032,2062.5C 1033.13,2060.86 1034.63,2059.86 1036.5,2059.5C 1035.19,2061.48 1033.52,2063.15 1031.5,2064.5C 1030.51,2061.23 1030.18,2057.9 1030.5,2054.5 Z"/></g>
<g><path style="opacity:0.396" fill="#b0aead" d="M 1099.5,2061.5 C 1100.91,2061.97 1101.57,2062.97 1101.5,2064.5C 1100.09,2064.03 1099.43,2063.03 1099.5,2061.5 Z"/></g>
<g><path style="opacity:0.365" fill="#aaa9a7" d="M 1136.5,2063.5 C 1136.57,2065.03 1135.91,2066.03 1134.5,2066.5C 1134.43,2064.97 1135.09,2063.97 1136.5,2063.5 Z"/></g>
<g><path style="opacity:0.678" fill="#888684" d="M 1325.5,2059.5 C 1326.92,2061.51 1327.59,2063.85 1327.5,2066.5C 1326.08,2064.49 1325.41,2062.15 1325.5,2059.5 Z"/></g>
<g><path style="opacity:0.796" fill="#898684" d="M 986.5,2065.5 C 989.878,2064.89 991.878,2066.22 992.5,2069.5C 990.728,2067.71 988.728,2066.38 986.5,2065.5 Z"/></g>
<g><path style="opacity:0.71" fill="#aeadab" d="M 694.5,2079.5 C 695.833,2080.17 696.833,2081.17 697.5,2082.5C 695.5,2082.5 694.5,2081.5 694.5,2079.5 Z"/></g>
<g><path style="opacity:0.063" fill="#d8d7d7" d="M 1450.5,2085.5 C 1449.83,2085.5 1449.17,2085.5 1448.5,2085.5C 1448.74,2081.71 1449.4,2081.71 1450.5,2085.5 Z"/></g>
<g><path style="opacity:0.584" fill="#a19f9f" d="M 917.5,2103.5 C 918.833,2103.5 920.167,2103.5 921.5,2103.5C 921.784,2105.41 921.451,2107.08 920.5,2108.5C 920.5,2107.17 920.5,2105.83 920.5,2104.5C 919.209,2104.74 918.209,2104.4 917.5,2103.5 Z"/></g>
<g><path style="opacity:0.733" fill="#848180" d="M 748.5,2109.5 C 748.59,2112.15 747.924,2114.49 746.5,2116.5C 746.41,2113.85 747.076,2111.51 748.5,2109.5 Z"/></g>
<g><path style="opacity:0.741" fill="#807d7c" d="M 920.5,2109.5 C 920.706,2112.5 920.04,2115.16 918.5,2117.5C 918.565,2114.57 919.232,2111.91 920.5,2109.5 Z"/></g>
<g><path style="opacity:0.914" fill="#817e7c" d="M 1169.5,2116.5 C 1170.92,2118.51 1171.59,2120.85 1171.5,2123.5C 1170.08,2121.49 1169.41,2119.15 1169.5,2116.5 Z"/></g>
<g><path style="opacity:0.141" fill="#c6c1c0" d="M 820.5,2123.5 C 822.552,2124.05 822.885,2125.05 821.5,2126.5C 821.443,2125.39 821.11,2124.39 820.5,2123.5 Z"/></g>
<g><path style="opacity:0.651" fill="#939190" d="M 913.5,2129.5 C 912.92,2131.75 911.587,2133.42 909.5,2134.5C 910.08,2132.25 911.413,2130.58 913.5,2129.5 Z"/></g>
<g><path style="opacity:0.91" fill="#999795" d="M 877.5,2132.5 C 879.5,2133.83 881.167,2135.5 882.5,2137.5C 879.833,2136.83 878.167,2135.17 877.5,2132.5 Z"/></g>
<g><path style="opacity:0.906" fill="#989594" d="M 1176.5,2133.5 C 1178.5,2134.83 1180.17,2136.5 1181.5,2138.5C 1178.83,2137.83 1177.17,2136.17 1176.5,2133.5 Z"/></g>
<g><path style="opacity:0.949" fill="#93908f" d="M 1288.5,2133.5 C 1287.66,2135.38 1287.33,2137.38 1287.5,2139.5C 1286.77,2138.12 1286.1,2136.62 1285.5,2135C 1286.24,2133.96 1287.24,2133.46 1288.5,2133.5 Z"/></g>
<g><path style="opacity:0.565" fill="#a7a5a4" d="M 1225.5,2146.5 C 1224.83,2145.5 1224.17,2144.5 1223.5,2143.5C 1223.37,2142.62 1223.7,2141.96 1224.5,2141.5C 1225.45,2143.05 1225.79,2144.71 1225.5,2146.5 Z"/></g>
<g><path style="opacity:0.984" fill="#878482" d="M 992.5,2135.5 C 992.665,2138.52 992.498,2141.52 992,2144.5C 991.8,2146.32 990.966,2147.65 989.5,2148.5C 990.746,2144.11 991.746,2139.77 992.5,2135.5 Z"/></g>
<g><path style="opacity:0.741" fill="#999796" d="M 1273.5,2139.5 C 1274.92,2138.55 1276.59,2138.22 1278.5,2138.5C 1278.5,2140.5 1278.5,2142.5 1278.5,2144.5C 1277.55,2143.08 1277.22,2141.41 1277.5,2139.5C 1276.17,2139.5 1274.83,2139.5 1273.5,2139.5 Z"/></g>
<g><path style="opacity:0.6" fill="#8c8988" d="M 1278.5,2145.5 C 1279.47,2147.95 1279.81,2150.61 1279.5,2153.5C 1278.5,2153.5 1277.5,2153.5 1276.5,2153.5C 1278.2,2151.2 1278.87,2148.53 1278.5,2145.5 Z"/></g>
<g><path style="opacity:0.286" fill="#bcbaba" d="M 964.5,2153.5 C 965.5,2153.5 966.5,2153.5 967.5,2153.5C 967.737,2154.79 967.404,2155.79 966.5,2156.5C 966.218,2155.22 965.551,2154.22 964.5,2153.5 Z"/></g>
<g><path style="opacity:0.216" fill="#c0bdbc" d="M 1038.5,2154.5 C 1040.17,2154.5 1041.83,2154.5 1043.5,2154.5C 1043.74,2155.79 1043.4,2156.79 1042.5,2157.5C 1041.55,2156.02 1040.22,2155.02 1038.5,2154.5 Z"/></g>
<g><path style="opacity:0.435" fill="#c4c1c1" d="M 915.5,2157.5 C 916.167,2158.17 916.833,2158.83 917.5,2159.5C 916.325,2159.72 915.325,2159.39 914.5,2158.5C 914.624,2157.89 914.957,2157.56 915.5,2157.5 Z"/></g>
<g><path style="opacity:0.62" fill="#858381" d="M 1118.5,2157.5 C 1119.83,2157.5 1121.17,2157.5 1122.5,2157.5C 1122.5,2162.5 1122.5,2167.5 1122.5,2172.5C 1122.17,2172.5 1121.83,2172.5 1121.5,2172.5C 1121.5,2167.83 1121.5,2163.17 1121.5,2158.5C 1120.21,2158.74 1119.21,2158.4 1118.5,2157.5 Z"/></g>
<g><path style="opacity:0.702" fill="#7d7978" d="M 1042.5,2162.5 C 1042.5,2165.17 1042.5,2167.83 1042.5,2170.5C 1041.21,2170.74 1040.21,2170.4 1039.5,2169.5C 1041.08,2167.49 1042.08,2165.16 1042.5,2162.5 Z"/></g>
<g><path style="opacity:0.596" fill="#797775" d="M 973.5,2152.5 C 973.5,2157.17 973.5,2161.83 973.5,2166.5C 985.345,2166.17 997.012,2166.51 1008.5,2167.5C 996.5,2167.5 984.5,2167.5 972.5,2167.5C 972.179,2162.31 972.513,2157.31 973.5,2152.5 Z"/></g>
<g><path style="opacity:0.427" fill="#898684" d="M 1054.5,2155.5 C 1054.5,2160.17 1054.5,2164.83 1054.5,2169.5C 1066.35,2169.17 1078.01,2169.51 1089.5,2170.5C 1077.5,2170.5 1065.5,2170.5 1053.5,2170.5C 1053.18,2165.31 1053.51,2160.31 1054.5,2155.5 Z"/></g>
</svg>
