<?xml version="1.0" encoding="UTF-8"?>
<svg id="Camada_1" xmlns="http://www.w3.org/2000/svg" version="1.1" viewBox="0 0 400 400">
  <!-- Generator: Adobe Illustrator 29.1.0, SVG Export Plug-In . SVG Version: 2.1.0 Build 142)  -->
  <defs>
    <style>
      .st0 {
        fill: #7ba4d7;
      }

      .st1 {
        fill: #fff;
      }

      .st2 {
        fill: #18375d;
      }
    </style>
  </defs>
  <g>
    <path class="st2" d="M193.25,5.46c8.45-.14,19.5.06,28.01.97,41.74,4.51,80.88,22.47,111.54,51.16,30.12,27.97,50.6,64.76,58.5,105.09,1.92,10.64,3.03,21.42,3.33,32.23,2.38,63.6-28.48,124.47-79.36,162.21-31.4,22.82-68.85,35.84-107.63,37.42-50.37.91-96.04-13.67-134.71-46.98C33.44,313.05,10.26,267.71,5.92,215.67-2.29,117.17,65.02,28.32,161.88,9.02c10.95-2.18,20.27-2.83,31.37-3.55Z"/>
    <path class="st1" d="M188.87,10.14c104.87-6.14,194.86,73.93,200.95,178.8,6.09,104.88-74.02,194.82-178.9,200.86-104.81,6.03-194.68-74.01-200.76-178.81C4.07,106.18,84.07,16.28,188.87,10.14Z"/>
    <path class="st2" d="M191.02,23.68c97.34-4.95,180.27,69.93,185.25,167.27,4.98,97.34-69.87,180.29-167.21,185.31-97.38,5.01-180.38-69.88-185.36-167.26C18.72,111.61,93.64,28.64,191.02,23.68Z"/>
    <path class="st1" d="M193.18,83.67c64.22-3.76,119.32,45.24,123.1,109.45,3.78,64.21-45.2,119.34-109.42,123.14-64.24,3.8-119.39-45.21-123.17-109.45-3.78-64.24,45.24-119.38,109.49-123.14Z"/>
  </g>
  <g>
    <path class="st0" d="M89.34,208.85c-.49-2.8-.44-8.22-.4-11.29.38-21.99,7.35-43.36,20.02-61.33,16.91-24.14,42.71-40.57,71.74-45.68,29.05-5.15,58.96,1.5,83.08,18.48,24.24,16.97,40.7,42.91,45.73,72.07,1.74,10.16,1.5,18.18,1.35,28.43-17.81-19.05-36.19-38.18-53.72-57.43l-.03,39.78c0,5.2.3,14.9-.09,19.87l-.11.55c-.97-.19-25.78-27.01-28.5-29.93-.64-1.02-3.96-4.31-4.99-5.37-7.76-7.95-15.12-16.39-22.82-24.36h-.63s-.01,101.19-.01,101.19l.05,57.24c-29.41.03-57.62-11.63-78.43-32.4-15.36-15.26-25.91-34.69-30.36-55.88-.67-3.18-1.87-9.67-1.9-12.92,0-.34,0-.68.03-1.02Z"/>
    <path class="st2" d="M171.48,182.4c3.45-3.32,27.15-29.43,28.49-29.76v101.19s.03,57.24.03,57.24c-29.41.03-57.62-11.63-78.43-32.4-15.36-15.26-25.91-34.69-30.36-55.88-.67-3.18-1.87-9.67-1.9-12.92,0-.34,0-.68.03-1.02,1.71-.95,13.36-13.79,15.74-16.33l37.8-40.34c-.17,14.09.02,28.3-.04,42.39,0,2.71-.21,16.54.12,18.15,3.46-3.35,7.34-7.7,10.67-11.26l17.84-19.05Z"/>
    <path class="st2" d="M256.85,152.05v41.28c0,3.14-.25,16.32.18,18.42l-.11.55c-.97-.19-25.78-27.01-28.5-29.93,8.25-7.9,15.89-17.26,23.97-25.4,1.44-1.45,3.19-3.34,4.47-4.92Z"/>
    <path class="st1" d="M143.15,152.1c9.21,9.99,19.35,20.3,28.33,30.3l-17.84,19.05c-3.33,3.56-7.21,7.91-10.67,11.26.43-4.17.15-15.49.15-20.01l.03-40.6Z"/>
  </g>
  <g>
    <g>
      <path class="st1" d="M332.84,273.48c-2.08-.83-4.77,1.05-5.08-.35-.86-3.92-2.21-5.24-6.65-5.29-3.72,1.94-4.82,5.44-7.41,8.56l18.56,12.7c1.12-.52,4.26-5.86,4.76-7.22,1.59-4.31-.25-6.83-4.18-8.41ZM317.38,275.35c1.09-1.8,1.92-2.97,3.4-4.44,6.08-.38,6.26,4.82,2.58,8.61-2.17-1.4-3.9-2.64-5.98-4.18ZM331.84,285.24l-6.85-4.58c1.52-1.95,2.36-3.4,4.41-4.78,7.94.12,5.79,8.43,2.43,9.37Z"/>
      <path class="st1" d="M306.2,285.97c1.27.58,3.12,2.83,4.22,3.81,6.05,5.36,16.98,14.59,3.47,19.66-5.99-1.96-11.07-8.47-15.52-12.89-.49-.36-.47-.45-.69-1.01.25-.99.27-1.15,1.07-1.76,3.39.09,15.09,18.95,18.93,10.15,2-4.58-10.84-11.39-12.86-16.11.24-.91.66-1.1,1.39-1.85Z"/>
      <path class="st1" d="M266.89,317.35c2.23.01,4.78,1.17,6.04,3.05.21,1.11.27.65-.33,1.74-2.49,1.49-3.47-2.54-6.09-2.25-2.32.26-3.44,2.56-3.07,4.66.43,2.95,3.45,10.67,6.27,12.21,5.66,3.1,6.79-1.36,5.45-5.78-.26-.37-.17-.31-.24-.82.89-.75.46-.54,1.63-.75,2.4,1.07,2.33,4.4,1.48,6.51-.71,1.77-2.13,3.17-3.9,3.87-6.36,2.54-10.38-5.68-12.33-10.49-2.46-6.06-1.08-9.75,5.09-11.96Z"/>
      <path class="st1" d="M281.93,307.97c1.6,1.17,10.59,13.9,12.17,16.18,2.25-1.56,4.67-4.1,7.12-5,.68-.25.67-.07,1.39.35l-.44-.46c.97,1.79-.18,2.46-1.66,3.42-2.47,1.83-4.84,3.56-7.17,5.58-3.37-5.19-10.31-13.31-13.06-18.25.29-1.03.66-1.03,1.65-1.82Z"/>
    </g>
    <g>
      <g>
        <path class="st1" d="M50.6,189.02c5.99-1.27,11.89,2.51,13.25,8.48,1.35,5.97-2.34,11.93-8.3,13.36-3.92.95-8.05-.29-10.81-3.25-2.75-2.95-3.71-7.16-2.49-11.01,1.21-3.85,4.41-6.75,8.35-7.59Z"/>
        <path class="st1" d="M344.8,189c6.04-1.24,11.94,2.64,13.21,8.67,1.27,6.03-2.58,11.95-8.61,13.24-6.06,1.3-12.03-2.58-13.31-8.65-1.27-6.07,2.63-12.02,8.71-13.27Z"/>
      </g>
      <g>
        <path class="st1" d="M306.88,81.72c-2.36-2.79-11.9-11.31-15.04-13.18-3.98,4.99-12.33,15.16-16.69,19.6,5.02,3.97,13.01,12.1,18.45,13.85,10.55,1.27,20.44-11.78,13.28-20.26ZM292.96,95.83c-2.87-1.19-6.75-4.82-9.25-6.96,3.34-3.32,7.27-8.25,10.22-11.97.96.33,4.21,3.13,5.12,3.84,6.85,5.4,1.95,15.06-6.08,15.09Z"/>
        <path class="st1" d="M214.01,39.36c2.94.79,7.06,1.64,10.12,2.18.95,5.81,2.5,14.13,3.85,19.83,3.19-5.69,7.73-11.37,11.06-16.96,2.51.62,7.54,1.82,10.09,2.16-1.43,7.16-3.4,18.61-5.21,25.36-2.18-.49-4.35-1.01-6.55-1.37.87-4.94,2.17-10.05,2.97-14.85l-1.81-1.1c-2.91,4.66-6.39,9.56-9.02,14.28-2.18-.28-3.93-.75-6.05-1.28l-2.97-17.12-1.71-.96-3.27,16.68c-2.16-.49-4.57-1.1-6.74-1.39,1.7-7.93,3.29-17.82,5.25-25.45Z"/>
        <path class="st1" d="M149.57,61.8c1.94-5.72,1.4-10.77-5.87-11.26-5.23.85-15.72,6.89-21.31,8.9,3.51,7.04,7.65,16.27,10.85,23.61,2.21-1.12,4.16-2,6.45-2.99l-2.35-5.02-1.79-3.63c12.01-4.87,9.11-6.98,15.82,3.48,1.9-1.1,4.89-2.55,6.98-3.29-4.83-4.7-2.62-7.49-8.77-9.81ZM143.96,61.06c-1.37,2.55-6.71,4.3-9.48,5.47-.56.22-.26.16-.95,0-.91-1.36-1.93-3.95-2.61-5.54,3.1-1.43,6.23-2.79,9.38-4.08,2.45-.1,4.72,2.16,3.66,4.14Z"/>
        <path class="st1" d="M85.22,112.26c-1.5-5.26-5.18-8.8-10.93-8.01-6.59,3.37-9.91,13.5-14.93,19.18,6.59,3.73,13.73,8.82,20.25,12.87l1.2.77c1.73-.46,3.31-3.97,4.36-5.56l-7.92-5.07c2.97-3.81,6.83-9.49,7.97-14.18ZM73.13,123.9c-1.93-1.32-3.88-2.59-5.88-3.82,1.9-2.51,4.42-7.4,6.7-9.13,9.9.52.32,12.47-.82,12.95Z"/>
        <path class="st1" d="M323.07,104.53c7.28-.49,13.06,9.57,14.49,15.79.82,3.58-.89,5.5-2.83,8.21-1.08-1.91-5.13-6.14-3.61-8.22,2.46-3.36-3.11-10.32-6.67-8.23-2.53,4.52,13.9,22.63-2.97,23.81-6.68-1-13.55-11.81-13.71-18.39-.08-3.05,1.35-4.72,3.48-6.71.99,1.44,3.79,5.32,4.17,6.79-1.39,1.94-1.99,2.11-1.14,4.76.42,1.63,2.73,5.71,4.49,6.16,4.78,1.23,4.12-3.87,2.37-6.5-.7-1.05-1.57-3.37-1.99-4.25-3.05-6.45-3.17-10.28,3.94-13.22Z"/>
        <path class="st1" d="M183.25,40.71c-3,.43-5.41.73-8.44.94-.56,3.57-2.78,10.58-3.88,14.26-1.06,3.52-2.62,9.54-3.86,12.83,2.53-.21,5.05-.46,7.57-.75l1.38-5.73c1.2-.12,2.4-.25,3.6-.36,2.71-.38,5.61-.64,8.24-1.05.84,1.69,1.66,3.31,2.57,4.95,2.22-.28,5.54-.8,7.7-.89-2-3.22-13.36-22.83-14.89-24.19ZM181.8,56.81l-4.57.56c1.01-3.1,1.89-7.27,2.59-10.45.68.48,4.61,7.86,5.55,9.37l-3.57.53Z"/>
        <path class="st1" d="M106.99,69.23c.77.72,2.33,17.4,2.52,19.79,2.02,2.34,4.07,4.65,6.17,6.92-1.97,1.64-3.55,2.96-5.35,4.78-2.06-2.45-3.95-4.64-6.13-6.97-2.3-.69-4.87-1.32-7.21-1.95-4.09-1-8.26-2.13-12.34-3.19,2.2-1.88,4.15-3.58,6.23-5.58,3.89,1.51,8.42,2.9,12.43,4.21-.87-4.05-1.55-8.6-2.41-12.79,1.91-1.73,4.12-3.54,6.09-5.22Z"/>
        <path class="st1" d="M268.12,55.14c1.79.8,4.61,2.38,6.43,3.33-3.96,7.57-7.81,15.2-11.54,22.88-1.01-.2-5.32-2.57-6.5-3.19,1.52-2.37,3.9-7.35,5.23-10.02,2.01-4.03,4.66-8.92,6.39-13Z"/>
      </g>
      <g>
        <path class="st1" d="M93.09,288.63c-5.47,2.25-14.54,9.93-11.82,16.94,1.14,2.95,4.73,3.87,7.64,3.35,4.52-1.77,9.44-6.24,11.45-10.65,2.58-5.63-1.05-10.48-7.27-9.64ZM98.6,295.54c-1.4,4.23-6.96,9.33-10.93,11.06-2.99.26-5.61-1.77-4.2-4.99,1.78-4.07,6.65-8.66,10.61-10.55,2.76-.15,5.54,1.38,4.52,4.49Z"/>
        <path class="st1" d="M118.75,307.45c-1-.69-3.2-1.3-4.45-1.21-4.92,1.5-7.34,5.36-9.92,9.5-3.37,5.41-2.06,12.65,5.51,12.42,6.31-1.67,16.54-15.42,8.86-20.71ZM113.59,322.45c-1.62,1.53-1.82,2.08-3.86,3.3-9.22.33-2.11-10.87.89-13.8,1.63-1.59,1.79-2.09,3.9-3.3,9.08-.23,2.1,10.92-.94,13.8Z"/>
        <path class="st1" d="M155.94,327.32c-2.01,6.91-4,15.21-6.25,21.87,3.72,1.05,9.09,3.4,12.62,1.22,3.03-3.66,3.61-6.76.09-10.3,1.94-.77,2.85-.9,3.83-2.88,3.45-7.02-5.28-8.83-10.28-9.91ZM159.64,348.9c-2.19.38-4.32-.52-6.41-1.22.77-2.77,1.53-5.39,2.08-8.22,5.16,1.38,9.98,4.19,4.34,9.44ZM163.6,336.37c-.46,1.04-.86,1.46-1.78,2.13-2.15.3-3.93-.4-5.93-1.06.93-2.25,1.46-4.65,2.05-7.02,2.92.53,7.44,1.85,5.66,5.96Z"/>
        <path class="st1" d="M188.06,333.8l-3.62-.38-5.33,13.34c-.9,2.27-2.53,5.99-3,8.25l.3.51c.99.21,1.11.22,2.03-.21,1.24-1.17,1.8-3.89,2.32-5.63,1.38.16,3.09.41,4.45.47l2.9.23c.19,1.9.16,5.15,1.51,6.36,1.09.2,1.31.46,2.06-.02.1-1.74-3.04-20.46-3.62-22.92ZM184.71,347.79c-1.1-.07-1.99.01-2.77-.68.14-1.24,2.92-7.99,3.56-9.81,1.12,1.04,1.87,8.74,2.14,10.68-.99-.02-1.95-.11-2.93-.19Z"/>
        <path class="st1" d="M80.69,267.57c1.69,1.56,6.32,8.32,5.81,10.69l-.49.19c-2.03-.91-4.35-5.17-5.56-7.23-1.97,1.51-3.88,2.95-6.05,4.16,1.29,1.65,4.51,5.48,4.44,7.44-.69.76-.36.53-1.53.74l-.52-.44c-1.41-2.14-2.83-4.28-4.26-6.41-1.64,1.21-7.26,5.77-9,5.56-.84-1.11-.71-.67-.87-1.85,1.47-1.65,15.05-10.5,18.04-12.85Z"/>
        <path class="st1" d="M132.61,317.76c2.14.13,10.82,4.28,12.85,5.81.29.22.21.63.25,1.1-1.08,1.98-4.32-.46-5.87-1.3-1.45,3.56-3.9,8.4-5.58,11.98-.93,1.82-1.74,5.08-3.39,5.99-1.07-.05-.67.05-1.63-.74-.38-1.88,6.69-15.49,8.14-18.42-2.67-1.11-4.79-1.28-4.77-4.41Z"/>
        <path class="st1" d="M204.36,334.14c.94.04,1.34.09,2.26.28,1.03,1.27,1.54,17.23,1.66,19.95,2.97-.19,6.06-.97,8.73-.16.76.91.52.81.55,2.29-3.36.07-8.71.3-11.97.7-.1-7.54-1.09-15.39-1.22-23.05Z"/>
        <path class="st1" d="M227.42,331.45c.92,0,1.18-.06,1.99.31.72,1.73,3.87,16.73,4.45,19.32,2.1-.49,7.55-2.18,9.08-1.38.36.9.26.57.1,1.63l-.62.33c-3.48.81-7.34,1.59-10.73,2.61-1.3-5.56-3.93-15.95-4.77-21.96.19-.34.36-.62.5-.86Z"/>
      </g>
    </g>
  </g>
</svg>