<?xml version="1.0" standalone="no"?>
<!DOCTYPE svg PUBLIC "-//W3C//DTD SVG 20010904//EN"
 "http://www.w3.org/TR/2001/REC-SVG-20010904/DTD/svg10.dtd">
<svg version="1.0" xmlns="http://www.w3.org/2000/svg"
 width="340.000000pt" height="413.000000pt" viewBox="0 0 340.000000 413.000000"
 preserveAspectRatio="xMidYMid meet">

<g transform="translate(0.000000,413.000000) scale(0.100000,-0.100000)"
fill="#000000" stroke="none">
<path d="M1639 4019 c-16 -34 -29 -63 -27 -65 2 -2 18 26 36 61 17 36 30 65
27 65 -3 0 -19 -27 -36 -61z"/>
<path d="M1752 4015 c18 -35 34 -63 36 -61 4 5 -56 126 -63 126 -3 0 10 -29
27 -65z"/>
<path d="M1553 3943 c9 -2 25 -2 35 0 9 3 1 5 -18 5 -19 0 -27 -2 -17 -5z"/>
<path d="M1813 3943 c9 -2 25 -2 35 0 9 3 1 5 -18 5 -19 0 -27 -2 -17 -5z"/>
<path d="M1483 3933 c9 -2 25 -2 35 0 9 3 1 5 -18 5 -19 0 -27 -2 -17 -5z"/>
<path d="M1883 3933 c9 -2 25 -2 35 0 9 3 1 5 -18 5 -19 0 -27 -2 -17 -5z"/>
<path d="M1420 3921 c0 -5 9 -7 20 -4 11 3 20 7 20 9 0 2 -9 4 -20 4 -11 0
-20 -4 -20 -9z"/>
<path d="M1940 3926 c0 -2 9 -6 20 -9 11 -3 20 -1 20 4 0 5 -9 9 -20 9 -11 0
-20 -2 -20 -4z"/>
<path d="M1493 3845 c57 -60 57 -61 52 -110 l-4 -50 10 49 10 50 -63 60 -63
61 58 -60z"/>
<path d="M1897 3842 l-58 -59 10 -49 10 -49 -4 50 c-5 49 -5 50 52 107 32 32
55 58 52 58 -2 0 -31 -26 -62 -58z"/>
<path d="M1532 3660 c0 -14 2 -19 5 -12 2 6 2 18 0 25 -3 6 -5 1 -5 -13z"/>
<path d="M1648 3659 c-53 -28 -47 -33 7 -7 l45 22 45 -22 c55 -27 60 -20 5 8
-48 24 -55 24 -102 -1z"/>
<path d="M1862 3660 c0 -14 2 -19 5 -12 2 6 2 18 0 25 -3 6 -5 1 -5 -13z"/>
<path d="M1520 3605 c0 -8 4 -15 10 -15 5 0 7 7 4 15 -4 8 -8 15 -10 15 -2 0
-4 -7 -4 -15z"/>
<path d="M1866 3605 c-3 -8 -1 -15 4 -15 6 0 10 7 10 15 0 8 -2 15 -4 15 -2 0
-6 -7 -10 -15z"/>
<path d="M1544 3359 c-197 -17 -418 -80 -604 -171 -394 -194 -708 -551 -845
-962 -66 -196 -79 -286 -80 -526 0 -185 3 -231 23 -328 120 -593 535 -1066
1112 -1266 197 -69 275 -80 550 -80 216 0 257 2 346 22 143 31 241 65 383 133
493 236 826 660 933 1191 20 98 23 142 22 328 0 184 -3 230 -23 320 -48 227
-125 408 -256 605 -278 419 -742 688 -1266 735 -127 11 -163 11 -295 -1z m503
-585 c31 -16 58 -33 60 -39 1 -5 -10 -25 -25 -43 l-27 -33 -48 27 c-35 19 -64
27 -103 28 -49 1 -58 -2 -80 -27 -47 -55 -21 -89 96 -123 159 -46 210 -89 210
-177 0 -159 -193 -229 -378 -136 -37 19 -68 41 -69 49 -2 8 9 28 23 44 l26 29
62 -33 c50 -29 72 -34 122 -35 75 0 104 20 104 72 0 42 -34 65 -134 89 -142
34 -186 75 -186 173 0 73 28 116 94 148 71 34 170 29 253 -13z m-417 -19 l0
-45 -165 0 -165 0 0 -75 0 -75 146 0 145 0 -3 -47 -3 -48 -143 0 -142 0 0 -77
0 -78 165 0 165 0 0 -45 0 -45 -220 0 -220 0 0 290 0 290 220 0 220 0 0 -45z
m-653 -641 c26 -9 60 -25 75 -36 30 -21 29 -27 -10 -76 l-18 -23 -44 25 c-104
57 -210 36 -210 -42 0 -32 34 -52 132 -81 110 -32 123 -39 163 -81 27 -28 30
-38 30 -94 0 -53 -4 -68 -27 -98 -42 -55 -89 -73 -188 -73 -71 0 -94 4 -140
26 -30 14 -65 35 -78 45 l-23 19 31 37 30 36 55 -32 c64 -39 121 -51 175 -36
42 11 60 33 60 74 0 35 -30 52 -144 85 -115 34 -161 66 -177 123 -41 154 125
264 308 202z m1676 0 c64 -22 139 -91 168 -156 35 -78 33 -186 -3 -256 l-27
-51 30 -25 c16 -14 29 -28 29 -32 0 -5 -14 -23 -32 -41 l-32 -33 -31 30 -30
30 -65 -26 c-119 -49 -263 -20 -347 68 -81 84 -103 229 -52 339 30 64 93 123
159 150 57 23 170 25 233 3z m-702 -613 c277 -138 577 -211 866 -211 101 0
113 -2 113 -17 0 -30 -115 -254 -169 -330 -74 -104 -220 -245 -333 -320 -246
-163 -562 -244 -845 -215 -308 31 -591 162 -802 372 -50 49 -114 123 -142 162
-54 77 -169 301 -169 331 0 15 10 17 73 17 88 0 303 31 414 59 196 50 440 158
607 269 l90 59 80 -54 c45 -30 142 -85 217 -122z"/>
<path d="M2494 2031 c-92 -23 -148 -97 -149 -196 0 -72 24 -125 79 -169 35
-29 44 -31 116 -31 43 0 82 4 87 9 4 4 -14 28 -42 52 l-50 44 37 37 37 37 45
-42 c25 -23 50 -42 55 -42 5 0 14 23 21 50 22 91 -22 195 -99 234 -35 18 -99
26 -137 17z"/>
<path d="M1515 1413 c-16 -8 -31 -17 -33 -18 -6 -5 42 -95 50 -95 18 0 72 33
61 37 -7 2 -21 0 -32 -6 -26 -14 -31 -14 -31 3 0 7 10 21 23 29 16 12 18 16 7
16 -9 1 -22 -5 -28 -11 -10 -10 -15 -10 -22 2 -7 11 -3 18 15 28 14 7 25 17
25 22 0 12 1 13 -35 -7z"/>
<path d="M1852 1374 c-13 -26 -22 -48 -20 -49 14 -12 71 -35 75 -31 3 3 -6 11
-21 17 -14 7 -26 18 -26 26 0 16 14 17 41 3 12 -7 19 -7 19 -1 0 6 -9 15 -20
21 -11 6 -20 16 -20 22 0 10 16 8 53 -7 33 -14 17 11 -18 28 -20 9 -37 17 -38
17 -2 0 -13 -21 -25 -46z"/>
<path d="M1965 1354 c-15 -15 -15 -18 4 -38 35 -37 22 -65 -14 -30 -20 20 -33
11 -15 -11 19 -22 70 -20 70 4 0 10 -7 24 -15 31 -16 13 -21 40 -7 40 4 0 13
-5 20 -12 6 -6 15 -8 19 -4 8 7 -23 36 -38 36 -4 0 -15 -7 -24 -16z"/>
<path d="M1387 1348 c-15 -12 -15 -16 3 -55 10 -24 24 -43 30 -43 20 0 49 20
60 41 26 47 -47 91 -93 57z m67 -14 c19 -18 19 -20 6 -45 -15 -28 -37 -23 -55
11 -14 27 -14 30 3 39 23 14 28 14 46 -5z"/>
<path d="M2046 1290 c-20 -49 -20 -72 -1 -46 7 10 19 15 25 11 6 -4 22 -4 36
-1 34 9 33 49 -1 64 -38 17 -41 16 -59 -28z m62 -3 c2 -11 -3 -17 -16 -17 -24
0 -32 8 -25 26 7 20 37 13 41 -9z"/>
<path d="M1297 1314 c-11 -11 -8 -114 3 -114 6 0 10 7 10 15 0 20 41 36 58 22
7 -5 15 -8 17 -5 3 2 -15 23 -38 46 -24 24 -46 39 -50 36z m37 -55 c-10 -16
-24 -9 -24 12 0 18 2 19 15 9 8 -7 12 -16 9 -21z"/>
<path d="M2157 1272 c-36 -39 -13 -94 38 -94 35 -1 55 19 55 53 0 49 -61 76
-93 41z m68 -36 c0 -36 -26 -56 -49 -37 -16 14 -22 52 -9 65 4 4 19 6 33 4 20
-2 25 -8 25 -32z"/>
<path d="M1173 1270 c-22 -9 -22 -11 -8 -56 7 -25 16 -48 18 -51 3 -2 21 3 41
11 32 13 36 19 36 50 0 49 -34 67 -87 46z m68 -32 c10 -18 8 -24 -11 -40 -12
-10 -25 -18 -29 -18 -10 0 -30 67 -23 74 14 14 52 4 63 -16z"/>
<path d="M1093 1249 c-36 -10 -39 -22 -22 -82 9 -34 12 -37 37 -31 47 12 61
26 19 20 -32 -4 -38 -2 -35 12 2 9 13 18 26 20 12 2 22 8 22 13 0 7 -12 8 -30
4 -38 -8 -43 20 -5 29 14 4 25 11 25 16 0 6 -1 10 -2 9 -2 0 -18 -5 -35 -10z"/>
<path d="M2277 1213 c-15 -52 -11 -78 7 -46 12 21 36 20 36 -2 0 -7 7 -18 15
-25 17 -14 20 -3 6 20 -7 10 -4 18 10 28 35 24 20 53 -33 66 -25 6 -28 3 -41
-41z m61 15 c18 -18 14 -28 -11 -28 -29 0 -37 7 -30 26 6 17 25 18 41 2z"/>
<path d="M1014 1204 c4 -15 10 -39 13 -55 3 -16 10 -29 15 -29 6 0 7 11 4 26
-4 15 -10 39 -13 55 -3 16 -10 29 -15 29 -6 0 -7 -11 -4 -26z"/>
<path d="M2402 1219 c14 -8 16 -18 11 -56 -8 -58 12 -51 21 8 5 30 10 39 21
35 8 -3 17 -1 20 3 6 10 -29 21 -65 21 -22 -1 -23 -2 -8 -11z"/>
<path d="M920 1200 c-11 -11 -20 -29 -20 -40 0 -21 33 -60 51 -60 17 0 49 20
49 30 0 6 -9 5 -20 -2 -15 -10 -25 -10 -38 -2 -38 24 -19 80 25 71 26 -5 31 8
7 17 -25 9 -33 7 -54 -14z"/>
<path d="M2500 1203 c-1 -5 -5 -27 -9 -50 -5 -24 -5 -43 0 -43 5 0 11 10 13
23 11 54 13 77 5 77 -5 0 -9 -3 -9 -7z"/>
<path d="M2540 1205 c0 -18 32 -115 38 -115 7 0 62 93 62 104 0 18 -18 2 -33
-29 -21 -44 -33 -44 -41 0 -6 29 -26 60 -26 40z"/>
<path d="M778 1165 c-25 -55 39 -109 82 -70 22 20 26 65 8 83 -7 7 -27 12 -45
12 -26 0 -36 -6 -45 -25z m76 -1 c19 -18 19 -20 6 -45 -6 -10 -19 -19 -28 -19
-36 0 -55 43 -30 68 16 16 33 15 52 -4z"/>
<path d="M2658 1140 c-16 -28 -24 -50 -19 -50 6 0 13 5 16 10 10 17 62 12 69
-6 4 -9 9 -14 12 -11 9 9 -28 107 -40 107 -6 0 -23 -23 -38 -50z m45 6 c6 -16
-2 -28 -14 -20 -12 7 -11 34 0 34 5 0 11 -6 14 -14z"/>
<path d="M677 1173 c-17 -16 -5 -42 23 -52 37 -13 39 -31 3 -31 -19 0 -24 -3
-16 -11 18 -18 58 -6 61 19 3 18 -3 25 -28 33 -34 12 -35 35 -1 32 11 -2 21 2
21 7 0 11 -53 14 -63 3z"/>
<path d="M1128 909 c-12 -6 -18 -22 -18 -44 0 -40 20 -55 71 -53 31 1 34 4 37
36 4 58 -42 89 -90 61z m66 -25 c10 -26 7 -36 -9 -30 -10 4 -15 -1 -15 -14 0
-11 -3 -20 -7 -20 -11 0 -43 33 -43 45 0 32 63 49 74 19z"/>
<path d="M1240 877 c0 -47 13 -67 45 -67 33 0 45 20 43 70 l-1 45 -4 -40 c-8
-77 -63 -80 -63 -4 0 22 -4 39 -10 39 -5 0 -10 -19 -10 -43z"/>
<path d="M1360 865 l0 -55 40 0 c22 0 40 5 40 10 0 6 -13 10 -30 10 -39 0 -41
27 -2 33 l27 4 -27 2 c-40 2 -37 31 2 31 17 0 30 5 30 10 0 6 -18 10 -40 10
l-40 0 0 -55z"/>
<path d="M1460 871 c0 -28 5 -53 10 -56 6 -4 10 15 10 49 0 31 -4 56 -10 56
-5 0 -10 -22 -10 -49z"/>
<path d="M1510 865 c0 -30 5 -55 10 -55 6 0 10 17 10 38 l0 37 18 -23 18 -24
17 24 16 23 0 -37 c1 -21 6 -38 11 -38 6 0 10 25 10 55 0 60 -11 69 -37 29
l-17 -26 -19 26 c-28 39 -37 32 -37 -29z"/>
<path d="M1662 868 c-21 -49 -21 -82 -1 -45 6 9 21 17 34 17 13 0 28 -8 34
-17 5 -10 12 -15 15 -12 9 8 -37 108 -50 109 -5 0 -20 -23 -32 -52z m48 -10
c0 -5 -7 -8 -15 -8 -15 0 -20 21 -8 33 7 7 23 -11 23 -25z"/>
<path d="M1770 865 c0 -54 0 -55 30 -55 32 0 70 30 70 55 0 25 -38 55 -70 55
-30 0 -30 -1 -30 -55z m70 20 c18 -22 3 -55 -26 -55 -21 0 -24 5 -24 35 0 28
4 35 19 35 10 0 24 -7 31 -15z"/>
<path d="M1890 865 l0 -55 40 0 c22 0 40 5 40 10 0 6 -13 10 -30 10 -42 0 -40
27 3 33 l32 4 -32 1 c-44 3 -46 32 -3 32 17 0 30 5 30 10 0 6 -18 10 -40 10
l-40 0 0 -55z"/>
<path d="M2002 863 c1 -43 2 -48 5 -20 2 20 7 37 11 37 4 0 18 -16 31 -35 13
-19 27 -35 32 -35 5 0 9 25 9 55 0 61 -17 76 -22 18 l-3 -37 -25 37 c-14 20
-28 37 -32 37 -5 0 -7 -26 -6 -57z"/>
<path d="M2121 902 c-11 -20 2 -42 25 -42 6 0 17 -7 24 -15 13 -16 6 -20 -34
-15 -11 1 -15 -3 -12 -9 11 -18 54 -13 65 8 12 21 1 34 -36 45 -33 10 -28 26
8 26 17 0 28 4 24 10 -10 17 -54 11 -64 -8z"/>
<path d="M2220 865 l0 -55 41 0 c24 0 38 4 34 10 -3 6 -17 10 -31 10 -34 0
-31 28 4 33 l27 4 -27 2 c-36 1 -39 31 -4 31 14 0 28 5 31 10 4 6 -10 10 -34
10 l-41 0 0 -55z"/>
<path d="M1507 595 c-15 -30 -25 -55 -22 -55 7 0 57 101 53 106 -2 2 -16 -21
-31 -51z"/>
<path d="M1675 600 c-14 -29 -24 -54 -21 -57 2 -3 17 18 31 47 14 29 24 54 21
57 -2 3 -17 -18 -31 -47z"/>
<path d="M1365 630 c-3 -5 -2 -10 4 -10 5 0 12 -17 14 -37 3 -35 4 -34 5 10 2
44 -9 60 -23 37z"/>
<path d="M1420 615 c0 -19 5 -25 21 -25 12 0 19 -5 16 -12 -2 -7 -15 -12 -28
-10 -17 2 -21 0 -12 -9 6 -6 19 -9 29 -7 23 4 32 48 10 48 -26 0 -28 20 -4 29
23 10 22 10 -4 10 -23 1 -28 -3 -28 -24z"/>
<path d="M1567 598 c8 -59 13 -61 13 -5 0 26 -4 47 -9 47 -5 0 -7 -19 -4 -42z"/>
<path d="M1617 598 c8 -59 13 -61 13 -5 0 26 -4 47 -9 47 -5 0 -7 -19 -4 -42z"/>
<path d="M1724 628 c-5 -8 -2 -9 9 -5 26 10 31 -12 8 -37 -28 -29 -27 -36 7
-36 20 0 23 3 12 10 -12 8 -12 11 3 28 21 23 22 38 1 46 -23 9 -32 7 -40 -6z"/>
<path d="M1810 626 c-15 -19 -9 -56 12 -69 34 -22 66 41 36 71 -16 16 -33 15
-48 -2z m40 -30 c0 -29 -10 -39 -27 -25 -16 14 -17 46 0 52 18 7 27 -2 27 -27z"/>
<path d="M1900 626 c-15 -19 -9 -56 12 -69 34 -22 66 41 36 71 -16 16 -33 15
-48 -2z m44 -44 c-13 -20 -25 -20 -38 1 -7 10 -5 21 4 32 12 15 15 15 29 0 12
-12 13 -19 5 -33z"/>
<path d="M1993 629 c9 -6 14 -15 11 -21 -4 -6 -1 -14 6 -18 18 -11 3 -31 -17
-23 -11 4 -14 3 -9 -5 10 -16 31 -15 46 3 9 11 10 18 1 29 -6 7 -9 21 -5 30 5
12 0 16 -22 16 -25 -1 -26 -2 -11 -11z"/>
</g>
</svg>
