<?xml version="1.0" encoding="utf-8"?>
<!-- Generator: Adobe Illustrator 28.3.0, SVG Export Plug-In . SVG Version: 6.00 Build 0)  -->
<svg version="1.1"
	 id="Layer_1" xmlns:dc="http://purl.org/dc/elements/1.1/" xmlns:cc="http://creativecommons.org/ns#" xmlns:rdf="http://www.w3.org/1999/02/22-rdf-syntax-ns#"
	 xmlns="http://www.w3.org/2000/svg" xmlns:xlink="http://www.w3.org/1999/xlink" x="0px" y="0px" viewBox="0 0 300 300"
	 style="enable-background:new 0 0 300 300;" xml:space="preserve">
<style type="text/css">
	.st0{fill:#226C29;}
	.st1{fill:#F3F6F3;}
	.st2{fill:#1D6824;}
	.st3{fill:#FCFCFC;}
	.st4{fill:#030403;}
</style>
<g>
	<path class="st0" d="M256.7,130.5c0,40.4,0,80.8,0,121.2c0,25-20.2,45.3-45.1,45.3c-41,0-82,0-123,0c-25,0-45.2-20.3-45.2-45.2
		c0-81.7,0-163.4-0.1-245.1c0-2.7,0.5-3.6,3.5-3.6c68.9,0.1,137.7,0.1,206.6,0c3,0,3.5,0.9,3.4,3.6
		C256.7,47.9,256.7,89.2,256.7,130.5z M252.5,131.9c0-40.5,0-81,0.1-121.5c0-2.5-0.6-3.1-3.1-3.1C183.2,7.4,117,7.4,50.8,7.3
		c-2.7,0-3.2,0.7-3.2,3.3c0.1,80.5,0,161.1,0.1,241.6c0,22,18.4,40.4,40.4,40.5c41.3,0.1,82.6,0.1,123.9,0
		c22.2,0,40.5-18.5,40.5-40.7C252.5,212,252.5,172,252.5,131.9z"/>
	<path class="st1" d="M252.5,131.9c0,40,0,80,0,120.1c0,22.2-18.3,40.6-40.5,40.7c-41.3,0.1-82.6,0.1-123.9,0
		c-22.1,0-40.4-18.5-40.4-40.5c0-80.5,0-161.1-0.1-241.6c0-2.6,0.6-3.3,3.2-3.3c66.2,0.1,132.4,0.1,198.6,0c2.5,0,3.1,0.6,3.1,3.1
		C252.4,50.9,252.5,91.4,252.5,131.9z M245.6,135.6c0-39.3,0-78.7,0-118c0-2.5-0.4-3.5-3.3-3.5c-61.7,0.1-123.3,0.1-185,0
		c-2.4,0-3.1,0.5-3.1,3c0.1,78,0.1,155.9,0.1,233.9c0,19.9,14.9,34.8,34.9,34.8c40.4,0,80.8,0,121.2,0c3.2,0,6.3-0.3,9.4-1.1
		c15.5-4.1,25.7-17.4,25.7-33.9C245.7,212.5,245.6,174.1,245.6,135.6z"/>
	<path class="st2" d="M245.6,135.6c0,38.4,0,76.9,0,115.3c0,16.5-10.1,29.8-25.7,33.9c-3.1,0.8-6.2,1.1-9.4,1.1
		c-40.4,0-80.8,0-121.2,0c-20,0-34.9-14.9-34.9-34.8c0-78,0-155.9-0.1-233.9c0-2.5,0.7-3,3.1-3c61.7,0.1,123.3,0.1,185,0
		c2.9,0,3.3,1,3.3,3.5C245.6,57,245.6,96.3,245.6,135.6z M120.9,154.1c-0.8,0.8-1.7,1.6-2.5,2.5c-1.6-0.3-2.3,0.9-3.1,1.9
		c-8,10.2-10.8,21.8-8.8,34.5c2.5,15.5,11.3,26.3,25.3,33.2c0,18.6,0,37.1-0.1,55.7c0,1.5,0.4,2.1,2,2.1c11-0.1,21.9,0,32.9,0
		c1.4,0,1.9-0.3,1.9-1.8c-0.1-18.7-0.1-37.3-0.1-56c15-7.4,23.8-19.2,25.7-36c1.3-11.4-2-21.4-8.4-30.6c-0.6-0.8-1.1-2-2.5-1.5
		c0.6-1.5-0.5-2.2-1.3-3c-3.8-4-8.6-6.8-13.4-9.6c0-17.1,0-34.1,0.1-51.2c0-2.1-0.6-2.6-2.7-2.6c-10.4,0.1-20.7,0.1-31.1,0
		c-2.5,0-3.1,0.7-3.1,3.1c0.1,16.9,0,33.7,0,50.6c-2.9,1.8-5.8,3.6-8.6,5.5C121.9,151.6,120.6,152.3,120.9,154.1z M150.2,89.7
		c30.1,0,60.3,0,90.4,0c2.2,0,3-0.5,3-2.9c-0.1-22.5-0.1-45.1,0-67.6c0-2.6-0.8-3-3.2-3c-60.3,0.1-120.6,0.1-180.8,0
		c-2.4,0-3.2,0.5-3.2,3.1c0.1,22.3,0.1,44.7,0,67c0,2.6,0.5,3.5,3.3,3.5C89.9,89.6,120.1,89.7,150.2,89.7z M204.8,187.6
		c0,29.5,0,59.1,0,88.6c0,7.7,0,7.7,7.7,7.6c16.8-0.4,31-14.6,31.1-31.2c0-52.8,0-105.5,0.1-158.3c0-2.2-0.5-2.8-2.8-2.8
		c-11,0.1-21.9,0.1-32.9,0c-2.7,0-3.2,0.7-3.2,3.3C204.8,125.7,204.8,156.7,204.8,187.6z M95.3,187.6c0-30.9,0-61.9,0.1-92.8
		c0-2.8-0.9-3.4-3.5-3.3c-10.7,0.1-21.3,0.1-32,0c-2.7,0-3.5,0.6-3.5,3.4c0.1,52.4,0.1,104.7,0.1,157.1c0,6.2,1.7,11.9,5.1,17
		c7.3,11,17.8,15.3,30.7,14.8c2.5-0.1,3.1-0.7,3.1-3.1C95.3,249.7,95.3,218.7,95.3,187.6z"/>
	<path class="st3" d="M150.2,89.7c-30.1,0-60.3,0-90.4,0.1c-2.8,0-3.4-0.8-3.3-3.5c0.1-22.3,0.1-44.7,0-67c0-2.5,0.7-3.1,3.2-3.1
		c60.3,0.1,120.6,0.1,180.8,0c2.4,0,3.2,0.5,3.2,3c-0.1,22.5-0.1,45.1,0,67.6c0,2.4-0.7,2.9-3,2.9C210.5,89.6,180.4,89.7,150.2,89.7
		z M196.1,59.7c0.2,0,0.4,0,0.5,0.1c1.4,5.3,2.7,10.6,4.1,15.9c0.2,0.8,0,1.7,1.2,2.1c3.7,1,5.7-0.2,6.7-3.9
		c1.2-4.8,2.5-9.6,3.7-14.4c0.5,5.2,0.6,10.4,0.4,15.5c-0.1,2.4,0.7,3.2,2.9,2.8c0.6-0.1,1.2-0.1,1.8,0c2.2,0.4,2.6-0.6,2.5-2.6
		c-0.1-6.8,0-13.6,0-20.4c0-4.6,0-4.6-4.4-4.6c-7,0-7,0-8.7,7c-0.7,2.8-1.4,5.5-2.2,8.2c-1.1-2.4-1.7-4.7-2.3-6.9
		c-0.8-2.7-0.5-6.6-2.5-7.9c-2-1.3-5.5-0.2-8.4-0.4c-2.2-0.2-2.6,0.7-2.5,2.7c0.1,6.7,0,13.4,0,20.1c0,4.9,0,4.8,5,4.9
		c2,0,2.2-0.8,2.2-2.4C196.1,70.1,196.1,64.9,196.1,59.7z M155.8,43.3c4.8-2.8,6.4-5.8,5.3-10.1c-0.9-3.6-3.8-5.3-9.1-5.3
		c-4.5,0-9.1,0-13.6,0c-1.2,0-2,0-2,1.7c0.1,8.1,0.1,16.2,0,24.3c0,1.4,0.6,1.9,1.8,1.6c2.3-0.5,5,1.4,6.9-1.1c0.3-0.4,0-1.2,0-1.7
		c0-2.2,0.1-4.3,0-6.5c-0.1-2,1.1-1.8,2.2-1.3c0.9,0.4,1.4,1.3,1.9,2.2c1.3,2.3,2.5,4.7,3.8,7c0.4,0.8,0.8,1.6,1.9,1.6
		c2.8,0,5.6,0,8.8,0C161.1,51.1,160,46.3,155.8,43.3z M94.1,49.7c-7.1,0-11.7,2.9-13.3,8.5c-1.1,3.6-1.2,7.2-0.1,10.8
		c1.3,4.3,4,7.6,8.6,8.5c5.3,1.1,10.7,1.4,14.8-3.2c3.8-4.2,3.3-5.7-1.9-7.3c-1.7-0.5-3-1-3.7,1.4c-0.7,2.4-2.7,3.3-5.1,3.1
		c-2.4-0.2-3.9-1.8-4.4-4.1c-0.4-2.3-0.5-4.7,0-7.1c0.4-2,1.6-3.6,3.8-4.1c2-0.4,4.1-0.2,5,1.6c1.1,2.2,2.5,2,4.3,1.4
		c0.9-0.3,1.9-0.5,2.9-0.6c1.6-0.2,1.6-0.9,1.1-2.1C104.1,51.9,100.4,49.7,94.1,49.7z"/>
	<path class="st3" d="M204.8,187.6c0-30.9,0-61.9-0.1-92.8c0-2.6,0.6-3.3,3.2-3.3c11,0.2,21.9,0.1,32.9,0c2.2,0,2.8,0.6,2.8,2.8
		c-0.1,52.8,0,105.5-0.1,158.3c0,16.6-14.3,30.8-31.1,31.2c-7.7,0.2-7.7,0.2-7.7-7.6C204.8,246.7,204.8,217.1,204.8,187.6z"/>
	<path class="st3" d="M95.3,187.6c0,31,0,62.1,0.1,93.1c0,2.4-0.6,3.1-3.1,3.1c-12.9,0.5-23.4-3.9-30.7-14.8
		c-3.4-5.1-5.1-10.9-5.1-17c0-52.4,0-104.7-0.1-157.1c0-2.8,0.8-3.4,3.5-3.4c10.7,0.1,21.3,0.1,32,0c2.6,0,3.5,0.5,3.5,3.3
		C95.3,125.8,95.3,156.7,95.3,187.6z"/>
	<path class="st4" d="M183,157.9c1.4-0.5,2,0.8,2.5,1.5c6.4,9.2,9.7,19.2,8.4,30.6c-1.9,16.8-10.7,28.6-25.7,36
		c-12.2,5.2-24.3,5.1-36.5,0c-13.9-6.9-22.8-17.7-25.3-33.2c-2-12.7,0.9-24.3,8.8-34.5c0.8-1,1.5-2.2,3.1-1.9
		c-2.9,3.6-2.9,3.6,1,6.4c0.8,0.6,1.6,1.2,2.4,1.7c0.5,0.4,1,0.8,1.8,0.5c4.5-1.6,9.9-1.1,12.4-6.4c0,0,0.2,0.1,0.3,0.1
		c-3.6,4.6,0.2,7.5,2.5,10.7c0.7,1,1.5,1.3,2.7,1.3c5.7,0,11.4-0.1,17.1,0c1.2,0,2.1-0.4,2.7-1.4c0.2,0.2,0.4,0.4,0.6,0.6
		c-0.8,1-0.7,2.1-0.3,3.3c1.8,5.2,3.4,10.5,5.1,15.7c0.2,0.7,0.1,1.7,1.1,1.9c3.7,0.6,7.3,4.5,11.2,0.5c0.2,1.6-1.9,2-1.9,3.7
		c0.3,5.6-0.5,11.6,6.3,14.3c0.1,0,0.2,0.1,0.2,0.2c1,1.1,1.6,0.7,2.4-0.5c4.1-6.3,6.3-13.3,6.8-20.8c0.1-1.7-0.6-2.2-2.2-2.1
		c-2.6,0.1-5.1,0-7.7-0.1c-0.6-4.3-2.9-8.1-3.6-12.3c-0.9-6.3-4.6-9-10.6-9.6c-1.6-0.2-2.8-0.4-3.6,1.3c-0.2-0.2-0.4-0.4-0.6-0.6
		c0.2-0.8,1.3-1.3,0.8-2.4c0.3,0,0.6-0.1,0.9-0.1c1.4,0.9,3.2,0.8,4.7,1.5c4.2,1.9,7.7,1.1,11.1-2
		C183.9,160.5,184.6,159.6,183,157.9L183,157.9z M122.8,197.4c0.3,0,0.6,0,1,0c-0.1,1.6-0.2,3.1-0.4,4.7c-0.3,2.2,0.2,3.8,2.3,5.1
		c4,2.6,7.9,5.6,11.7,8.5c1.3,1,2.6,1.5,4.4,1.4c-3.3,2.4-3,6-4.2,9c-0.4,0.9,0.7,0.9,1.4,1.1c7.5,2,15,2,22.4,0
		c0.5-0.1,1.2-0.1,1.3-0.9c0.3-1.7-2.9-8.1-4.6-9c0.2-0.2,0.3-0.4,0.5-0.6c1.3,0.7,2.3,0.4,3.5-0.5c3.8-2.9,7.6-5.6,11.5-8.3
		c2-1.4,3.9-2.5,3.2-5.5c-0.5-2.4-0.5-4.9-0.8-7.3c0-0.3-0.9-0.5-1.4-0.8c-4.9-2.6-9.4-2.5-13.4,1.9c-1.3,1.4-3,2.6-4.8,3.5
		c-4.8,2.4-6.6,6-5.8,11.4c0.3,1.8,0.5,3,2.3,3.4c-0.2,0.2-0.4,0.4-0.6,0.6c-1-0.1-2-0.9-3.1-0.4c-0.1-0.2-0.3-0.4-0.4-0.7
		c0.3-0.4,0.8-0.7,0.8-1.1c0.3-5.1,1.1-10.3-5.1-12.9c-0.6-0.3-1.1-0.8-1.7-1.2c-4.2-2.2-7-7.2-12.8-6.9c2.5-0.2,3.3-1.7,3.9-3.8
		c1.4-4.8,2.9-9.6,4.7-14.3c0.6-1.7,0.3-2.9-0.7-4.3c-4.2-5.7-4.1-5.7-10.9-4c-0.8,0.2-1.5,0.5-2.3,0.6c-1,0.1-1.5,0.7-1.8,1.7
		c-1.9,6.2-3.9,12.3-5.8,18.5c-2.6,0-5.2,0.1-7.8,0.1c-1.4,0-2,0.3-1.9,1.8c0.4,7.8,2.7,14.9,7,21.3c0.5,0.7,0.7,1.2,1.8,0.6
		c3.9-2.5,7.6-5,6.7-10.5C122.6,198.8,122.7,198.1,122.8,197.4z"/>
	<path class="st3" d="M131.7,226c12.2,5.1,24.3,5.2,36.5,0c0,18.7,0.1,37.3,0.1,56c0,1.5-0.5,1.8-1.9,1.8c-11,0-21.9,0-32.9,0
		c-1.6,0-2-0.6-2-2.1C131.7,263.2,131.7,244.6,131.7,226z"/>
	<path class="st3" d="M131.6,145.3c0-16.9,0.1-33.7,0-50.6c0-2.4,0.5-3.2,3.1-3.1c10.4,0.1,20.7,0.1,31.1,0c2,0,2.7,0.5,2.7,2.6
		c-0.1,17.1-0.1,34.1-0.1,51.2c-0.6-0.2-1.1-0.3-1.7-0.5c-9-3.5-18.1-4.1-27.5-1.9C136.6,143.6,134.1,144.5,131.6,145.3z"/>
	<path class="st4" d="M131.6,145.3c2.5-0.8,5-1.7,7.6-2.3c9.3-2.2,18.5-1.6,27.5,1.9c0.5,0.2,1.1,0.3,1.7,0.5
		c4.8,2.7,9.5,5.5,13.4,9.6c0.8,0.8,1.9,1.5,1.3,3c0,0,0,0,0,0c-5-5.2-10.6-9.6-17.4-12.1c-0.7-0.3-1.7-1.1-2.1,0.4
		c-0.7,2.7-2.2,5.2-2.2,8.1c-0.3,0.1-0.5,0.1-0.8,0.2c-6.9-0.5-13.8-0.2-20.6-0.2c-0.4,0-0.7,0-1.1,0c0.1-2.9-1.5-5.4-2.1-8.1
		c-0.3-1.3-1.2-0.8-2.1-0.5c-5.1,1.9-9.5,4.9-13.7,8.4c-0.3-1.7,1-2.5,2.1-3.2C125.8,148.9,128.7,147.1,131.6,145.3z"/>
	<path class="st3" d="M120.9,154.1c4.1-3.5,8.5-6.5,13.7-8.4c0.9-0.3,1.7-0.9,2.1,0.5c0.7,2.7,2.3,5.2,2.1,8.1
		c-0.6,0.9-1.2,1.9-1.8,2.8c0,0.2-0.1,0.5-0.1,0.7l0-0.1c-0.7,0.2-1.1,0.5-0.6,1.3l0-0.1c-0.1,0-0.3-0.1-0.3-0.1
		c-2.5,5.3-8,4.9-12.4,6.4c-0.8,0.3-1.3-0.2-1.8-0.5c-0.8-0.6-1.6-1.1-2.4-1.7c-3.9-2.8-3.9-2.8-1-6.4
		C119.2,155.7,120,154.9,120.9,154.1z"/>
	<path class="st4" d="M196.1,59.7c0,5.2-0.1,10.5,0,15.7c0,1.6-0.2,2.4-2.2,2.4c-5,0-5,0.1-5-4.9c0-6.7,0.1-13.4,0-20.1
		c0-2,0.4-2.8,2.5-2.7c2.8,0.2,6.4-0.9,8.4,0.4c2.1,1.3,1.7,5.2,2.5,7.9c0.7,2.2,1.2,4.5,2.3,6.9c0.7-2.7,1.5-5.5,2.2-8.2
		c1.7-7,1.7-7,8.7-7c4.4,0,4.4,0,4.4,4.6c0,6.8-0.1,13.6,0,20.4c0,2-0.4,3-2.5,2.6c-0.6-0.1-1.2-0.1-1.8,0c-2.3,0.4-3-0.4-2.9-2.8
		c0.2-5.1,0.1-10.3-0.4-15.5c-1.2,4.8-2.5,9.6-3.7,14.4c-0.9,3.7-3,4.9-6.7,3.9c-1.3-0.3-1-1.3-1.2-2.1c-1.4-5.3-2.8-10.6-4.1-15.9
		C196.5,59.7,196.3,59.7,196.1,59.7z"/>
	<path class="st4" d="M155.8,43.3c4.2,3,5.2,7.7,7.9,12.1c-3.2,0-6,0-8.8,0c-1.1,0-1.5-0.8-1.9-1.6c-1.3-2.3-2.5-4.7-3.8-7
		c-0.5-0.9-1-1.8-1.9-2.2c-1.2-0.5-2.3-0.7-2.2,1.3c0.1,2.2,0,4.3,0,6.5c0,0.6,0.2,1.4,0,1.7c-1.9,2.5-4.6,0.6-6.9,1.1
		c-1.2,0.3-1.8-0.3-1.8-1.6c0.1-8.1,0.1-16.2,0-24.3c0-1.7,0.8-1.7,2-1.7c4.5,0,9.1,0,13.6,0c5.3,0,8.3,1.8,9.1,5.3
		C162.2,37.6,160.7,40.5,155.8,43.3z M148.1,33.5c-1.8-0.2-3.4-0.2-3,2.4c0.2,1.5-0.7,3.7,2.2,3.1c2.1-0.4,5.1,0.4,5.3-2.8
		C152.8,33.2,150,33.7,148.1,33.5z"/>
	<path class="st4" d="M94.1,49.7c6.3,0,10,2.2,12,6.8c0.5,1.3,0.5,2-1.1,2.1c-1,0.1-1.9,0.3-2.9,0.6c-1.8,0.5-3.2,0.8-4.3-1.4
		c-0.9-1.8-3-2-5-1.6c-2.2,0.5-3.4,2.1-3.8,4.1c-0.5,2.3-0.4,4.7,0,7.1c0.4,2.4,1.9,3.9,4.4,4.1c2.4,0.2,4.5-0.7,5.1-3.1
		c0.7-2.5,2-2,3.7-1.4c5.2,1.6,5.7,3.1,1.9,7.3c-4.1,4.6-9.5,4.3-14.8,3.2c-4.6-0.9-7.2-4.2-8.6-8.5c-1.1-3.6-1-7.2,0.1-10.8
		C82.4,52.6,87,49.7,94.1,49.7z"/>
	<path class="st3" d="M152.7,214.3c-1.8-0.4-2-1.7-2.3-3.4c-0.8-5.3,1-9,5.8-11.4c1.7-0.9,3.4-2,4.8-3.5c4-4.4,8.5-4.4,13.4-1.9
		c0.5,0.3,1.4,0.5,1.4,0.8c0.3,2.4,0.3,4.9,0.8,7.3c0.7,3-1.2,4.2-3.2,5.5c-3.9,2.7-7.7,5.5-11.5,8.3c-1.2,0.9-2.2,1.1-3.5,0.5
		c-0.7-0.3-1.3-0.3-2,0c0.3,0.7,1,0.4,1.5,0.6c1.6,0.9,4.8,7.3,4.6,9c-0.1,0.8-0.8,0.8-1.3,0.9c-7.5,2-15,2.1-22.4,0
		c-0.6-0.2-1.7-0.2-1.4-1.1c1.2-3,0.9-6.6,4.2-9c-1.8,0.1-3.1-0.5-4.4-1.4c-3.8-2.9-7.7-5.9-11.7-8.5c-2.1-1.3-2.6-2.9-2.3-5.1
		c0.2-1.6,0.3-3.1,0.4-4.7c-0.3-2.6,1.6-3.3,4-3.7c-1.9-1.4-4.5,1-5.6-1.6c-1-1.1-2-2.3-2.9-3.4c-0.3-0.4-0.4-1.2-1.3-0.7l0,0.1
		c0.5-1.2-0.4-1.5-1.2-1.9c0,0,0.1,0,0.1,0c1.9-6.2,3.9-12.3,5.8-18.5c0.3-0.9,0.7-1.5,1.8-1.7c0.8-0.1,1.5-0.4,2.3-0.6
		c6.8-1.7,6.7-1.6,10.9,4c1,1.4,1.4,2.6,0.7,4.3c-1.7,4.7-3.2,9.5-4.7,14.3c-0.6,2.1-1.4,3.6-3.9,3.8c5.9-0.3,8.6,4.6,12.8,6.9
		c0.6,0.3,1.1,0.9,1.7,1.2c6.2,2.5,5.4,7.8,5.1,12.9c0,0.4-0.5,0.8-0.8,1.1c-0.5,0.2-1.2-0.1-1.5,0.6c0.7,0.4,1.3,0.3,2,0.1
		c1.1-0.6,2.1,0.2,3.1,0.4c0.5,0.5,1.4,0.8,1.7,0.2C154.1,214.5,153.1,214.6,152.7,214.3z"/>
	<path class="st3" d="M165.3,165.5c0.8-1.6,2.1-1.4,3.6-1.3c6,0.6,9.7,3.3,10.6,9.6c0.6,4.2,3,8,3.6,12.3l0.1,0
		c-0.6,0.2-1.2,0.5-0.6,1.3l0.1-0.1c-1.2-0.4-1.2,0.5-1.3,1.2l0.1-0.1c-0.6-0.2-0.7,0.2-0.7,0.7l0.1-0.1c-0.7,0.4-1.7,0.7-1.2,1.9
		l0.1-0.1c-0.8-0.4-0.9,0-0.7,0.6l0-0.1c-3.9,4-7.5,0.1-11.2-0.5c-1-0.2-0.9-1.2-1.1-1.9c-1.7-5.2-3.4-10.5-5.1-15.7
		c-0.4-1.2-0.5-2.3,0.3-3.3C163.2,168.7,164.3,167.2,165.3,165.5z"/>
	<path class="st3" d="M139.8,154.3c6.9-0.1,13.8-0.4,20.6,0.2c0.8,1.3,1.6,2.6,2.5,4c0.9,1.4,1.7,2.7,2.6,4.1
		c0.5,1.1-0.6,1.6-0.8,2.4c-1.4,1.4-2.4,2.9-3.4,4.6c-0.6,1-1.4,1.4-2.7,1.4c-5.7-0.1-11.4-0.1-17.1,0c-1.2,0-2-0.3-2.7-1.3
		c-2.3-3.3-6.1-6.1-2.5-10.7c0,0,0,0.1,0,0.1c0.7-0.2,1.2-0.4,0.6-1.3c0,0,0,0.1,0,0.1c0.8,0.5,0.7-0.3,1-0.6
		C138.5,156.2,139.2,155.2,139.8,154.3z"/>
	<path class="st3" d="M183.1,186.2c2.6,0,5.1,0.2,7.7,0.1c1.6-0.1,2.3,0.4,2.2,2.1c-0.6,7.5-2.7,14.4-6.8,20.8
		c-0.8,1.2-1.4,1.5-2.4,0.5c-0.1-0.1-0.1-0.1-0.2-0.2c-6.8-2.7-6-8.7-6.3-14.3c-0.1-1.6,2.1-2,1.9-3.7c0,0,0,0.1,0,0.1
		c0.8,0.3,0.6-0.2,0.7-0.6c0,0-0.1,0.1-0.1,0.1c0.8-0.4,1.7-0.7,1.2-1.9c0,0-0.1,0.1-0.1,0.1c0.2,0,0.4,0.4,0.7,0.1
		c0.3-0.3,0-0.5,0-0.7c0,0-0.1,0.1-0.1,0.1c1.1,0.3,1.2-0.5,1.3-1.2c0,0-0.1,0.1-0.1,0.1C183.4,187.3,183.8,187,183.1,186.2
		L183.1,186.2z"/>
	<path class="st3" d="M122.8,197.4c-0.1,0.7-0.2,1.4-0.1,2.1c0.9,5.5-2.8,8-6.7,10.5c-1.1,0.7-1.3,0.1-1.8-0.6
		c-4.3-6.5-6.6-13.6-7-21.3c-0.1-1.5,0.5-1.8,1.9-1.8c2.6,0.1,5.2,0,7.8-0.1c0,0-0.1,0-0.1,0c-0.5,1.2,0.5,1.5,1.2,1.9
		c0,0,0-0.1,0-0.1c-0.2,0.7,0.3,0.9,0.7,1.3c1,1.2,1.9,2.3,2.9,3.5C122.9,194,122.7,195.7,122.8,197.4z"/>
	<path class="st3" d="M161.3,154.3c0-2.9,1.5-5.4,2.2-8.1c0.4-1.5,1.3-0.6,2.1-0.4c6.9,2.5,12.5,6.9,17.4,12.1
		c1.6,1.7,0.9,2.6-0.7,4c-3.4,3.1-6.9,3.9-11.1,2c-1.5-0.7-3.3-0.6-4.7-1.5c-1-1.6-1.9-3.1-2.9-4.7
		C162.8,156.6,162,155.4,161.3,154.3z"/>
	<path class="st0" d="M122.8,197.4c-0.1-1.6,0.1-3.4-1.3-4.7c0.2-0.2,0.4-0.4,0.6-0.6c1.1,2.6,3.7,0.2,5.6,1.6
		c-2.4,0.5-4.3,1.1-4,3.7C123.4,197.4,123.1,197.4,122.8,197.4z"/>
	<path class="st2" d="M161.3,169.5c0.9-1.7,2-3.2,3.4-4.6c0.2,0.2,0.4,0.4,0.6,0.6c-0.9,1.7-2.1,3.2-3.4,4.6
		C161.7,169.9,161.5,169.7,161.3,169.5z"/>
	<path class="st2" d="M163.5,157.7c1,1.6,1.9,3.1,2.9,4.7c-0.3,0-0.6,0.1-0.9,0.1c-0.9-1.4-1.7-2.7-2.6-4.1
		C163.1,158.2,163.3,157.9,163.5,157.7z"/>
	<path class="st0" d="M163.5,157.7c-0.2,0.2-0.4,0.5-0.6,0.7c-0.8-1.3-1.6-2.6-2.5-4c0.3-0.1,0.5-0.1,0.8-0.2
		C162,155.4,162.8,156.6,163.5,157.7z"/>
	<path class="st2" d="M139.8,154.3c-0.7,1-1.3,1.9-2,2.9c-0.3,0-0.6-0.1-0.9-0.1c0.6-0.9,1.2-1.9,1.8-2.8
		C139.1,154.3,139.5,154.3,139.8,154.3z"/>
	<path class="st4" d="M136.9,157.7c0.6,0.8,0.1,1.1-0.6,1.3C135.8,158.2,136.2,157.9,136.9,157.7z"/>
	<path class="st4" d="M137,157.1c0.3,0,0.6,0.1,0.9,0.1c-0.3,0.3-0.2,1.1-1,0.6C136.9,157.5,137,157.3,137,157.1z"/>
	<path class="st1" d="M148.1,33.5c1.9,0.2,4.7-0.3,4.5,2.8c-0.2,3.2-3.2,2.4-5.3,2.8c-2.9,0.5-2-1.7-2.2-3.1
		C144.7,33.3,146.3,33.3,148.1,33.5z"/>
	<path class="st2" d="M122.1,192.1c-0.2,0.2-0.4,0.4-0.6,0.6c-1-1.2-1.9-2.3-2.9-3.5c0.2-0.2,0.4-0.4,0.6-0.6
		C120.2,189.8,121.1,190.9,122.1,192.1z"/>
	<path class="st4" d="M117.9,188c-0.8-0.4-1.7-0.7-1.2-1.9C117.6,186.5,118.4,186.8,117.9,188z"/>
	<path class="st4" d="M119.2,188.6c-0.2,0.2-0.4,0.4-0.6,0.6c-0.4-0.3-0.9-0.6-0.7-1.3C118.7,187.4,118.9,188.2,119.2,188.6z"/>
	<path class="st4" d="M149,214.5c-0.7,0.3-1.3,0.3-2-0.1c0.4-0.6,1-0.4,1.5-0.6C148.7,214.1,148.9,214.3,149,214.5z"/>
	<path class="st4" d="M152.7,214.3c0.4,0.3,1.4,0.2,1.1,0.8c-0.3,0.6-1.2,0.3-1.7-0.2C152.3,214.7,152.5,214.5,152.7,214.3z"/>
	<path class="st4" d="M158,217.3c-0.5-0.2-1.2,0-1.5-0.6c0.7-0.3,1.3-0.3,2,0C158.4,216.8,158.2,217,158,217.3z"/>
	<path class="st4" d="M182.6,187.4c-0.1,0.7-0.2,1.5-1.3,1.2C181.4,187.9,181.4,187,182.6,187.4z"/>
	<path class="st4" d="M180.8,189.1c0.5,1.2-0.4,1.5-1.2,1.9C179.1,189.8,180.1,189.5,180.8,189.1z"/>
	<path class="st4" d="M183.2,186.2c0.6,0.8,0.2,1.1-0.6,1.3C182,186.6,182.6,186.4,183.2,186.2z"/>
	<path class="st4" d="M181.4,188.5c0,0.2,0.4,0.4,0,0.7c-0.3,0.3-0.5,0-0.7-0.1C180.7,188.7,180.8,188.4,181.4,188.5z"/>
	<path class="st4" d="M179.6,190.9c0,0.4,0.1,1-0.7,0.6C178.7,190.9,178.8,190.5,179.6,190.9z"/>
</g>
</svg>
