<?xml version="1.0" encoding="UTF-8"?>
<svg id="Layer_1" xmlns="http://www.w3.org/2000/svg" version="1.1" viewBox="0 0 200 200">
  <!-- Generator: Adobe Illustrator 29.6.1, SVG Export Plug-In . SVG Version: 2.1.1 Build 9)  -->
  <defs>
    <style>
      .st0 {
        fill: #211d1d;
      }

      .st1 {
        fill: #fff;
      }

      .st2 {
        fill: #ee2c31;
      }

      .st3 {
        fill: #100f0d;
      }

      .st4 {
        fill: #d3b226;
      }

      .st5 {
        fill: #31963d;
      }
    </style>
  </defs>
  <path class="st4" d="M96.9,29.3c-1.5.6-3,1.1-4.6,1.5-4.2,1.1-8.4,1.9-12.6,2.6-6.2,1-12.4,1.8-18.7,2.4-2,.2-4.1.1-6.2,0-10.4-.4-20.8-2.5-30.3-6.7-5.8,9.2-9.7,19.6-11.5,30.4-2.2,13.6-1,27.7,3.6,40.7,4.3,12.3,11.7,23.6,21.3,32.5,9.2,8.5,20.4,14.9,32.5,18,.8.2,1.5.6,2.2.9,2.4,1.1,4.7,2.3,7.1,3.5,4.8,2.6,9.5,5.4,13.8,8.8,2.2,1.8,4.3,3.7,5.8,6,.1.2.3.3.5.3,1.9-2.9,4.6-5.2,7.3-7.2,4.7-3.5,9.8-6.4,15-9.1,2.2-1.1,4.3-2.2,6.6-3.1,14.7-3.7,28-12.2,38-23.5,7.3-8.2,12.9-17.9,16.4-28.4,3.8-11.5,5.1-23.8,3.6-35.8-1.4-12-5.5-23.8-12-34-10.9,4.8-22.9,6.8-34.7,6.8,0,0,0,0-.1.1h-.2c-4-.5-8-.9-11.9-1.4-4.3-.6-8.6-1.2-12.9-2.1-3.5-.7-6.9-1.4-10.3-2.5-1.3-.5-2.7-.9-3.8-1.8-.4-.4-1-.6-1.2-1.2-.9.8-1.9,1.6-3,2.1ZM99.9,10.7c4.9,4.2,10.8,7,17,8.9,8.7,2.7,17.9,3.5,26.9,3,7.1-.4,14.1-1.7,20.8-4.2,4.2-1.6,8.3-3.7,11.9-6.4,7.3,8.1,13.2,17.4,17.2,27.5,7.3,18.2,8.3,39,2.7,57.8-3.9,13-11.1,25-20.2,34.9-10.6,11.7-23.8,20.9-37.8,28-4.6,2.4-9.4,4.5-14.2,6.4-1.8.7-3.7,1.3-5.3,2.3-3.6,2.2-6.7,5.2-9.5,8.3-3.2,3.6-6.1,7.4-8.9,11.3-.1.2-.2.4-.3.7-2.3-3.4-4.8-6.7-7.4-9.8-3.2-3.8-6.7-7.4-10.8-10.1-2.1-1.4-4.6-2.1-7-3.1-14-5.7-27.4-13.1-39.1-22.7-10.5-8.6-19.6-19-26-31.1-4.4-8.3-7.4-17.3-8.8-26.6-1.2-8.1-1.4-16.3-.4-24.4,1.2-10.1,4.3-20,8.9-29.1,3.7-7.3,8.4-14.2,13.9-20.3,6.2,4.8,13.8,7.6,21.4,9.2,8.5,1.7,17.3,2,25.9,1,6-.7,11.9-2.2,17.5-4.5,4.2-1.7,8.2-4,11.6-7"/>
  <path class="st4" d="M38.7,57c0,13.4,0,26.9,0,40.3,0,1.1.2,2.5,1.3,3.1,1.6.9,3.5.8,5.2.5,2.3-.4,4.6-1,6.9-.4,1.3.3,2.4,1.3,3.3,2.2.9-.9,1.9-1.8,3.2-2.2,2.1-.6,4.3,0,6.3.3,1.8.3,3.8.6,5.6-.2,1-.4,1.5-1.5,1.5-2.5,0-13.7,0-27.4,0-41.1-11.2,0-22.3,0-33.5,0ZM50.1,51.2c-2.7.3-5.4.8-7.9,1.9-1,.5-2.1,1-2.8,1.9,3.1,0,6.3,0,9.4,0,7.6,0,15.1,0,22.7,0-.6-.7-1.4-1.2-2.3-1.6-2-1-4.2-1.5-6.5-1.9-4.2-.7-8.4-.7-12.6-.3M54.1,40.1c.5-.3.9-.6,1.4-.9.7.6,1.5,1.1,2.5,1.3.7,0,1.2.7,1.4,1.3.4.8-.1,2-1,2.1-.5,0-.6-.5-.8-.8-.2-.4-.9-.3-1,.1-.6,1.8.5,3.9,2.3,4.5.3.1.7,0,.8-.3.2-.6-.4-1.1-.2-1.7.2-.7.6-1.4,1.4-1.5,1.1-.1,2,1,1.8,2,0,.5-.3.9-.6,1.3,1.2.5,2.6,0,3.3-1,.4-.7.5-1.7-.1-2.3-.6-.3-1.2.1-1.8,0-.6-.3-.6-1.2-.2-1.7.5-.6,1.2-.6,1.9-.7.9-.1,1.8-.6,2.6-1,.3.6.4,1.3,1,1.6.7.4,1.5.8,1.8,1.6.2.5.3,1.3-.1,1.7-.2.3-.6.5-1,.4-.6-.2-.7-1.2-1.3-1.3-.9.8-1.2,2.2-.4,3.2.5.8,1.4,1.1,2.2,1.1,0-.5-.2-1,0-1.5.3-.7,1-1.1,1.7-.9.6,0,1,.7,1.1,1.3,0,.8-.3,1.6-.8,2.2.7.4,1.6.6,2.3.2.8-.4,1.7-1.1,1.9-2,.1-.5-.5-.8-.9-.7-.5,0-1.1.4-1.4-.2,0-.6.2-1.2.5-1.6.6-.6,1.5-.4,2.2-.4.8.1,1.7-.1,2.4-.5-1.4,2.9-2.7,5.8-4.1,8.7-.2.5-.5.9-.5,1.4,0,14.5,0,29,0,43.5,0,.9-.6,1.7-1,2.4-.8,1.3-2.1,2.1-3.5,2.3-2.4.3-4.8-.3-7.3-.6-1.7-.2-3.6-.1-5.1.8-.9.5-1.6,1.3-2.2,2.1-.8-1-1.7-2-2.9-2.4-2.1-.9-4.5-.5-6.8-.2-2,.3-4,.6-6,0-1.8-.6-3-2.3-3.5-4.1,0-14.2,0-28.5,0-42.7,0-.6.1-1.3-.2-1.9-1.5-3.1-2.9-6.2-4.4-9.3.8.3,1.6.6,2.5.5.7,0,1.6-.2,2.2.4.3.5.6,1.1.5,1.6-.2.6-.9.3-1.3.2-.5-.1-1.2.3-.9.9.4,1,1.3,1.7,2.3,2,.6.2,1.3,0,1.9-.4-.6-.8-1.1-1.9-.6-2.9.5-.9,2-.9,2.5,0,.3.5.3,1.2.2,1.7,1.5.2,3-1.3,2.7-2.8-.1-.6-.4-1.3-1-1.5-.4.3-.5.8-.9,1.1-.3.3-.9.2-1.1-.1-.6-.5-.5-1.4-.2-2,.4-.8,1.3-1.1,2-1.6.4-.4.5-1,.8-1.5.9.4,1.7.9,2.6,1,.7.1,1.4.1,1.9.7.5.5.3,1.5-.3,1.7-.5,0-1.1-.2-1.7,0-.6.5-.6,1.4-.3,2.1.6,1.2,2.2,1.8,3.5,1.3-.3-.5-.6-.9-.6-1.5,0-1.1,1.2-2.2,2.3-1.7.8.4,1.3,1.5.9,2.4-.3.5,0,1.2.6,1,1.8-.5,3-2.7,2.4-4.5,0-.2-.3-.4-.5-.4-.7,0-.6,1.1-1.3,1.1-.7,0-1.2-.8-1.2-1.5,0-.6.3-1.3.8-1.7.6-.3,1.3-.3,1.8-.6"/>
  <path class="st1" d="M117.1,109.7c-.9.3-1.2,1.5-.6,2.2.6.6,1.4.9,1.9,1.6.4.5.5,1.2.7,1.8.3,1.6.4,3.2.4,4.8,0,2.5,0,5.1-.2,7.6,0,2.1,0,4.2-.4,6.3,0,1.1-.1,2.3-.7,3.4-.5.8-1.4,1.2-2.2,1.7,0,.4,0,.8.2,1.1.4.5,1.1.6,1.7.7,1.4.2,2.9.2,4.4,0,.7-.1,1.4-.3,2-.8.4-.3.4-.9.2-1.3-.6-.5-1.3-.7-1.8-1.3-.6-1.6-.5-3.2-.5-4.9,0-1.8,0-3.6,0-5.3,0-1,.8-2,1.9-2,1,0,1.8.9,2.1,1.8,1.6,4.2,2.9,8.5,4.9,12.5.6-.8.9-1.9,1.3-2.9.9-2.5,1.8-5,2.9-7.4.5-1.3,1-2.8,2.4-3.3,1.1-.5,2.5.5,2.4,1.7.3,2.4,0,4.8,0,7.3-.1.8-.3,1.7-.9,2.4-.5.6-1.1,1.1-1.5,1.8,0,.4.2.9.6,1.1.9.6,2.1.6,3.2.7,1.9,0,3.8.2,5.7-.1.8-.1,1.6-.1,2.2-.7.6-.5.7-1.4.3-2-.6-.6-1.5-.9-1.8-1.8-.5-1.6-.5-3.4-.6-5.1-.2-4,0-8-.1-12-.7-1.3-1-2.7-1.4-4.1-.5-1.3-1.2-2.5-1.8-3.8-.4-.8-.7-1.7-1.3-2.3-1.6.3-2.4,1.9-2.9,3.2-1.4,2.8-2.4,5.7-3.6,8.5-.3.6-.6,1.1-1,1.6-.6.8-1.8.8-2.6.4-.6-.4-1-1.1-1.3-1.7-1.5-3.3-3-6.6-4.5-9.9-.3-.6-.6-1.3-1.1-1.8-.5-.3-1-.4-1.5-.5-2.3-.3-4.7,0-6.9.7ZM138.4,83c-1.9.1-3.9.3-5.7,1.1-.7.3-1.5.7-1.8,1.5-.2.5-.2,1.2.3,1.4.8.4,1.7.4,2.4.8,1.4.7,2,2.3,2.9,3.6,3.2,6.5,6.3,13.1,9.5,19.6.9,1.9,1.9,3.8,2.7,5.7.3.9,1.3,1.2,2.2,1.4,1,.2,2.1.2,2.9-.3,1.3-1.5,2.2-3.3,3.1-5,3.6-6.9,7.3-13.8,10.9-20.7,1-1.8,1.8-3.9,3.5-5.3,1-.7,2.4-.6,3.5-.9,1-.3.9-1.9,0-2.2-1.4-.6-2.9-.7-4.4-.8-2.4,0-4.8,0-7.2.4-.8.2-1.7.4-2.3,1-.4.3-.5,1.1,0,1.4.7.5,1.7.8,2.2,1.6.6,1,0,2.1-.3,3.1-.9,1.9-1.9,3.7-2.7,5.6-.5,1.2-1.2,2.3-2,3.3-.9,1.1-2.7,1.4-3.8.6-.7-.6-1.2-1.4-1.6-2.2-1.1-2.3-2.2-4.6-3.3-7-.3-.9-.8-1.9-.3-2.8.4-1,1.6-1.3,2.2-2.1.4-.4.2-1-.2-1.3-1.3-1.1-3.1-1.3-4.7-1.4-2.6-.2-5.2-.2-7.8,0M159,43.9c-2.7.2-5.3.4-8,.3-2.4-.3-4.8-.5-7.2,0-.8.1-1.4.6-1.9,1.2-.3.6-.4,1.4,0,2.1.8.9,2.3,1.2,2.9,2.4.9,1.4.8,3.1.9,4.7,0,6.2,0,12.4,0,18.7,0,1-.2,2-.3,3.1-.2,1.5-.4,3-1.5,4.1,2.4.1,4.9.4,7.1,1.5.8.5,1.6.9,2.1,1.7.5.8.8,1.7.9,2.7,1.5-.1,2.9-.4,4.3-.8,0-.6,0-1.2.2-1.7,0-.7,0-1.4,0-2.1-.5-.4-1-.8-1.4-1.3-.3-.7-.6-1.4-.6-2.2-.3-2.6-.4-5.3-.3-7.9,0-.6,0-1.3.3-1.9.5-.8,1.5-1.2,2.4-1.2,1.2.1,2.4.5,3.2,1.4,1.8,2.1,2.1,5.1,2.7,7.8.3,1.5.7,3,1.3,4.5,2.6,0,5.2-.1,7.8.4,1.3.3,2.8.8,3.4,2.1.5,1.1.4,2.3.3,3.4,1.6-.3,3.6-1,4.1-2.7.1-.6.3-1.5-.1-2-1.1-.4-2.2-.9-3-1.8-.4-.7-.5-1.6-.7-2.4-.3-2.1-.5-4.2-1.2-6.2-.5-1.6-1.4-3.3-2.9-4.2-.9-.7-2.1-.8-3-1.6-.7-.7-.9-1.8-.3-2.7.5-.8,1.4-1,2-1.6,2.1-1.9,3.1-4.9,3.1-7.7,0-2.7-.9-5.5-3-7.4-1.3-1.1-2.7-1.9-4.3-2.3-3.1-1-6.3-.7-9.5-.4M24.5,43.6c.4,2.1.8,4.1.8,6.2,0,1-.3,2-.7,2.9-.7,2.1-.5,4.4,0,6.6.1.5.1,1,0,1.5-1.1-.8-2.1-1.9-2.8-3.1-.8-1.5-.7-3.3-1-4.9-1.3.5-2.1,1.8-2.3,3.1-.3,1.6,0,3.3,1,4.6,1.7,2.1,3.7,3.9,5,6.3,0,.8,0,1.5,0,2.3-.9-.5-1.8-1.1-2.5-1.9-1.2-1.4-1.8-3.2-2-5.1-.8.3-1.6.9-2,1.8-.4,1-.2,2.1.2,3,.3,1,1,1.8,1.6,2.6,1.3,1.7,3.2,2.9,4.6,4.6,0,1.5,0,3,0,4.5-1.5-1-2.8-2.4-3.4-4-.4-1.1-.6-2.3-.8-3.5-1.1.4-1.6,1.6-1.9,2.7-.5,1.6-.4,3.6.8,4.9,1.6,1.8,3.5,3.4,4.9,5.3.2.7,0,1.4.1,2-2-1.3-4.2-2.5-5.3-4.7-.4-1-.7-2-1.3-2.9-.6.8-1,1.7-1.2,2.7-.3,1.6.5,3.4,1.9,4.3,1.5,1.2,3.2,2.2,4.7,3.5.6.5,1.1,1.2,1.1,2,0,.9.1,1.9.1,2.8-1.7-1-3.3-2.1-4.8-3.4-.9-.7-1.5-1.8-1.8-2.8-.9,1.1-1.3,2.6-.9,4,.6,2.2,2.4,3.9,4.5,4.7,1.1.5,2.4.7,3.4,1.5.5.4.8,1.1,1.2,1.6,1.8,2.6,4.2,5,7,6.5,2.8,1.6,5.9,2.7,9.2,2.7,2.7.2,5.4.3,8.1,0-1.6,1.4-3.5,2.4-5,3.9-.4.5-.8,1-.9,1.7,0,1.2.6,2.6,1.9,2.7.8.2,1.6-.4,2-1.1,1.4-2.3,3.1-4.5,5.4-5.9.7-.5,1.7-.6,2.4-.1,2.4,1.4,4.2,3.7,5.6,6,.4.7,1.2,1.2,2,1.1,1.3,0,2.1-1.5,2-2.7-.1-1-.9-1.8-1.7-2.4-1.3-1.2-2.8-2-4.1-3.2,1.9.2,3.8.3,5.7.2,1.9-.1,3.7,0,5.6-.5,2.7-.6,5.2-1.8,7.6-3.3,2.5-1.7,4.5-4,6.1-6.5.5-.8,1.4-1.2,2.3-1.5,1.4-.5,2.8-1,3.9-2,.9-.8,1.8-1.8,2.1-3,.6-1.5.2-3.1-.8-4.3-.3,1.1-.9,2.1-1.8,2.8-1.5,1.2-3.1,2.4-4.8,3.4,0-.9,0-1.9.1-2.8,0-.8.5-1.5,1.1-2,1.5-1.3,3.1-2.3,4.7-3.4,1.4-.9,2.1-2.6,1.9-4.2-.2-1-.5-2-1.2-2.9-.6.9-.9,1.9-1.3,2.9-1,2.2-3.3,3.5-5.2,4.7,0-.7,0-1.4.1-2,1.5-1.9,3.3-3.6,4.9-5.3,1.2-1.3,1.3-3.3.8-4.9-.3-1.1-.7-2.3-1.9-2.7-.2,1.1-.3,2.3-.7,3.4-.6,1.8-1.9,3.2-3.4,4.2,0-1.5,0-3,0-4.5,1.5-1.8,3.6-3.1,5-5.1,1-1.3,1.8-2.9,1.5-4.6-.2-1.1-1.1-2-2.1-2.4-.2,2.9-1.9,5.7-4.5,7,0-.8,0-1.5,0-2.3,1.2-2.3,3.1-4,4.7-5.9,1.1-1.3,1.7-3.1,1.3-4.8-.2-1.4-1-2.8-2.3-3.3-.2,1.1-.2,2.3-.5,3.4-.4,1.9-1.8,3.5-3.3,4.6,0-.5,0-1,0-1.5.4-1.7.6-3.5.4-5.3-.2-1.1-.7-2-.8-3.1-.3-1.2,0-2.5,0-3.8,0-1.2.4-2.4.6-3.6-1.4,0-2.8.5-3.7,1.7-.9,1.2-1.6,2.5-1.7,4-.4,2.4.4,4.7,1.4,6.8.7,1.7,1.8,3.4,1.9,5.3-.7-.3-1.4-.7-2-1.2-.9-.9-1.9-1.9-2.4-3.1-.5-1.2-.8-2.4-.9-3.7-.5.2-1,.5-1.3,1-.9,1.8-.8,4.1.2,5.8,1.6,2.9,4.4,4.6,6.2,7.3,0,.9,0,1.8,0,2.7-2-.8-3.5-2.5-4.6-4.4-.6-1.2-1-2.5-1.8-3.7-1.5,1.7-1.4,4.3-.3,6.2,1.1,1.8,2.9,2.8,4.2,4.4.9,1.1,2.1,2,2.6,3.3,0,1.1,0,2.2,0,3.2-1.2-.9-2.4-1.8-3.2-3.2-.9-1.4-1.5-2.9-1.5-4.6-1.2.5-1.8,1.7-2,3-.3,1.6.3,3.2,1.3,4.4,1.4,1.5,2.6,3.1,4.1,4.5.5.6,1.2,1.2,1.4,2,.1.5,0,.9,0,1.4-1.3-1.2-2.6-2.3-4-3.4-1.1-1-2.2-2.1-2.8-3.5-.2-.5-.4-1-.7-1.5-1.3,2-1.2,5,.5,6.8.9,1.1,2.3,1.6,3.4,2.5,1.5.9,2.7,2.3,3.4,3.8.7,1.5.4,3.3-.4,4.6-.3-.8-.6-1.5-1.2-2.1-1.2-1.3-2.2-2.7-3.6-3.8-1.4-1.2-2.4-2.8-3-4.5-1.1,1.8-1.4,4.1-.5,6,.7,1.6,2.1,2.7,3.6,3.5,1.3.6,2.5,1.6,3.5,2.8,0,.8-.4,1.6-.9,2.2-.8.9-1.6,1.7-2.6,2.4-1.8,1.3-3.8,2.4-5.9,3.2-2.5.8-5.1,1.1-7.7,1-2.2,0-4.3-.1-6.5,0-1.8,0-3.6.3-5.3.1-2.6-.2-5.2-.3-7.7-.2-3.7.2-7.7-.2-11-2.1-2.2-1.2-4.4-2.5-6.1-4.4-.5-.6-1-1.4-1-2.3.9-1.2,2.1-2.1,3.5-2.8,1.6-.8,3.2-2.1,3.8-3.9.7-1.8.4-4-.6-5.6-.6,1.7-1.6,3.3-3,4.5-1.3,1.1-2.3,2.5-3.5,3.7-.6.6-1,1.4-1.3,2.2-.8-1.3-1-2.9-.5-4.3.4-1,.9-1.8,1.6-2.6,1.3-1.4,3.1-2.1,4.6-3.3,1-.8,1.9-1.9,2.1-3.2.3-1.4.1-2.9-.6-4.2,0,0-.1,0-.2,0-.4.7-.6,1.5-1,2.1-.7,1.2-1.7,2.1-2.8,2.9-1.3,1-2.5,2.1-3.7,3.2,0-.5-.1-1,0-1.5.2-.7.8-1.2,1.2-1.8,1.5-1.5,2.8-3.1,4.2-4.6,1-1.1,1.6-2.6,1.4-4.2-.1-1.3-.7-2.7-2-3.2,0,1.6-.7,3.2-1.5,4.6-.7,1.3-2,2.3-3.2,3.1,0-1.1,0-2.2,0-3.2.2-.7.7-1.2,1.1-1.7,1.2-1.2,2.3-2.5,3.6-3.6,1-.9,2-1.9,2.5-3.2.7-1.7.5-3.9-.7-5.3-.8,1.1-1.2,2.4-1.8,3.7-1,1.9-2.6,3.6-4.6,4.4,0-.9,0-1.8,0-2.7,1-1.4,2.2-2.6,3.5-3.8,1.4-1.4,2.8-3,3.4-4.9.5-1.4.3-2.9-.3-4.2-.2-.6-.8-.9-1.4-1.2-.1,1.8-.6,3.6-1.7,5-1,1.2-2.1,2.4-3.6,3,0-.5,0-1,.2-1.5.8-2.4,2.3-4.6,2.9-7.1.6-2.4.3-5.1-1.2-7.2-.8-1.4-2.4-2.1-4-2.1M54.1,40.1c-.6.3-1.3.3-1.8.6-.5.4-.8,1.1-.8,1.7,0,.7.5,1.4,1.2,1.5.7,0,.6-1.2,1.3-1.1.3,0,.4.2.5.4.6,1.8-.6,4-2.4,4.5-.6.2-.9-.6-.6-1,.4-.9,0-2-.9-2.4-1.1-.5-2.3.6-2.3,1.7,0,.6.3,1.1.6,1.5-1.3.5-2.9,0-3.5-1.3-.3-.7-.3-1.6.3-2.1.5-.2,1.1,0,1.7,0,.7-.2.8-1.2.3-1.7-.4-.6-1.2-.6-1.9-.7-1-.1-1.8-.6-2.6-1-.2.5-.4,1-.8,1.5-.7.5-1.6.8-2,1.6-.3.6-.4,1.5.2,2,.3.3.8.4,1.1.1.3-.3.5-.8.9-1.1.6.2.9.9,1,1.5.3,1.5-1.2,2.9-2.7,2.8.1-.6.2-1.2-.2-1.7-.5-.9-2-1-2.5,0-.5.9,0,2.1.6,2.9-.6.3-1.2.5-1.9.4-1-.3-1.9-1-2.3-2-.3-.6.4-1,.9-.9.5,0,1.1.4,1.3-.2,0-.6-.2-1.1-.5-1.6-.5-.6-1.5-.4-2.2-.4-.8.1-1.7-.1-2.5-.5,1.5,3.1,2.9,6.2,4.4,9.3.3.6.1,1.3.2,1.9,0,14.2,0,28.5,0,42.7.5,1.8,1.7,3.5,3.5,4.1,1.9.6,4,.2,6,0,2.2-.3,4.6-.7,6.8.2,1.2.5,2.1,1.5,2.9,2.4.6-.8,1.3-1.6,2.2-2.1,1.6-.9,3.4-.9,5.1-.8,2.4.2,4.8.9,7.3.6,1.4-.2,2.8-1,3.5-2.3.4-.8,1-1.5,1-2.4,0-14.5,0-29,0-43.5,0-.5.3-1,.5-1.4,1.4-2.9,2.7-5.8,4.1-8.7-.8.3-1.6.6-2.4.5-.7,0-1.6-.2-2.2.4-.3.5-.6,1.1-.5,1.6.2.6.9.2,1.4.2.4,0,1.1.2.9.7-.3.9-1.1,1.6-1.9,2-.8.4-1.6.2-2.3-.2.5-.6.8-1.4.8-2.2,0-.6-.4-1.3-1.1-1.3-.7-.2-1.5.2-1.7.9-.2.5-.1,1,0,1.5-.9,0-1.8-.3-2.2-1.1-.8-1-.5-2.4.4-3.2.7,0,.7,1.1,1.3,1.3.4.1.8,0,1-.4.4-.5.3-1.2.1-1.7-.3-.8-1.1-1.2-1.8-1.6-.6-.3-.7-1.1-1-1.6-.9.4-1.7.9-2.6,1-.7.1-1.4.1-1.9.7-.4.5-.4,1.3.2,1.7.6.2,1.2-.2,1.8,0,.7.6.6,1.6.1,2.3-.7,1.1-2.1,1.5-3.3,1,.3-.4.6-.8.6-1.3.1-1-.8-2.1-1.8-2-.8,0-1.3.8-1.4,1.5-.2.6.4,1.1.2,1.7-.1.3-.5.4-.8.3-1.8-.6-2.9-2.7-2.3-4.5.1-.5.8-.5,1-.1.2.3.4.9.8.8.9-.2,1.4-1.3,1-2.1-.2-.6-.7-1.2-1.4-1.3-1-.1-1.8-.7-2.5-1.3-.4.3-.9.7-1.4.9M96.9,29.3c1.1-.5,2.1-1.3,3-2.1.3.5.8.8,1.2,1.2,1.1.9,2.5,1.3,3.8,1.8,3.4,1.1,6.8,1.8,10.3,2.5,4.3.8,8.6,1.4,12.9,2.1-8.4,15-16.9,30-25.3,45,5.1-1.6,10.2-3.2,15.3-4.7-5.6,9.9-11.1,19.8-16.7,29.8-1.5-4.9-3-9.8-4.5-14.7-8.4,14.8-16.8,29.7-25.3,44.5-1.5-1-2.9-2-4.4-2.9.3,6.1.5,12.2.8,18.3,5.9-2,11.8-4,17.7-6-1.6-1.1-3.2-2.1-4.8-3.2,4.7-8.3,9.3-16.5,14-24.8,1.5,4.9,3,9.7,4.5,14.6,13.6-24,27.3-48,40.9-72.1-5.1,1.5-10.2,3.1-15.3,4.6,4-7.2,8-14.3,12.1-21.5,1-1.8,2-3.7,3.1-5.4,0,0,0,0,.1-.1,11.8,0,23.8-2,34.7-6.8,6.5,10.2,10.6,22,12,34,1.4,12,.2,24.3-3.6,35.8-3.5,10.4-9.1,20.2-16.4,28.4-10,11.3-23.4,19.8-38,23.5-2.3.9-4.4,2-6.6,3.1-5.2,2.7-10.3,5.6-15,9.1-2.7,2.1-5.4,4.3-7.3,7.2-.2,0-.4-.1-.5-.3-1.6-2.3-3.7-4.2-5.8-6-4.3-3.4-9-6.2-13.8-8.8-2.3-1.2-4.7-2.4-7.1-3.5-.7-.3-1.4-.7-2.2-.9-12.1-3.1-23.3-9.5-32.5-18-9.6-8.9-16.9-20.2-21.3-32.5-4.6-13-5.8-27.1-3.6-40.7,1.7-10.8,5.7-21.2,11.5-30.4,9.6,4.2,19.9,6.3,30.3,6.7,2.1,0,4.1.2,6.2,0,6.2-.6,12.5-1.4,18.7-2.4,4.2-.7,8.4-1.5,12.6-2.6,1.5-.4,3.1-.9,4.6-1.5"/>
  <path class="st1" d="M158.1,48.6c1.6-.5,3.5,0,4.6,1.3,1.1,1.4,1.4,3.2,1.5,4.9,0,2,0,4.3-1.3,6-.9,1.3-2.5,1.9-4.1,2-.9,0-1.8,0-2.4-.8-.5-.7-.6-1.6-.6-2.4.1-2.7.3-5.3.4-8,0-1.2.7-2.6,1.9-2.9"/>
  <path class="st2" d="M128.1,34.7c4,.5,8,1,11.9,1.3h.2c-1.1,1.9-2,3.7-3.1,5.5-4,7.2-8,14.3-12.1,21.5,5.1-1.5,10.2-3.1,15.3-4.6-13.6,24-27.3,48-40.9,72.1-1.5-4.9-3-9.7-4.5-14.6-4.7,8.3-9.3,16.5-14,24.8,1.6,1.1,3.2,2.1,4.8,3.2-5.9,2-11.8,4-17.7,6-.3-6.1-.6-12.2-.8-18.3,1.5,1,2.9,1.9,4.4,2.9,8.4-14.8,16.8-29.7,25.3-44.5,1.5,4.9,3,9.8,4.5,14.7,5.6-9.9,11.1-19.8,16.7-29.8-5.1,1.6-10.2,3.2-15.3,4.7,8.4-15,16.9-30,25.3-45"/>
  <path class="st2" d="M49.7,60.6c.2.4.5.9.5,1.4,0,.4-.3.9-.8.9-.8,0-1.6-.2-2.2-.7.2.8.2,1.7,0,2.6-.9.2-1.6-.6-2.3-1,.3.7.5,1.5.3,2.2,0,.3-.4.5-.7.3-.6-.4-1.1-.8-1.8-1.1-.1.9.2,1.8-.2,2.6-.8.2-1.5-.5-2.1-.8-.3,1.8.2,3.8,1.6,5,2.1-.6,3.8-2.1,5.6-3.2,2.5,3.6,5,7.3,7.5,10.9-4.1,6-8.3,11.9-12.4,17.9.4.3.8.5,1.1.8,4.1-5.9,8.1-11.7,12.2-17.6,3,3.9,6,7.8,9.1,11.7,1.5,1.8,2.8,3.8,4.4,5.6.2-.3.5-.7.7-1-4.4-5.9-8.8-11.8-13.2-17.7,2-2.9,4.1-5.9,6.1-8.8,1.2.1,2.5.3,3.7.1,1.2-.3,2.3-.9,3.1-1.9.9-1.1,1.3-2.8.8-4.2-.6,1.6-2.2,2.8-3.9,2.8,0-.1,0-.3,0-.4.6-1.3.9-2.8,1.6-4.1-.8.7-1.6,1.3-2.3,2.1-.5.4-1,1-1.7.9,0-.8-.2-1.6,0-2.4.2-.9.8-1.6,1.1-2.4-1.2.2-2.4.8-3.1,1.8-.9,1.2-1.3,2.7-1.1,4.2.2.9.5,1.8.7,2.7-2,2.9-4,5.7-6,8.6-2.4-3.4-4.7-6.9-7.1-10.4.9-.6,1.7-1.3,2.5-2,1-.7,1.6-1.8,2.5-2.6-.9-1.4-2.4-2.5-4-2.8ZM38.7,57c11.2,0,22.3,0,33.5,0,0,13.7,0,27.4,0,41.1,0,1-.5,2.1-1.5,2.5-1.8.8-3.8.6-5.6.2-2.1-.4-4.3-.9-6.3-.3-1.3.3-2.3,1.3-3.2,2.2-.9-1-2-1.9-3.3-2.2-2.3-.6-4.6,0-6.9.4-1.7.3-3.6.4-5.2-.5-1.1-.6-1.3-2-1.3-3.1,0-13.4,0-26.9,0-40.3"/>
  <path class="st2" d="M138.4,83c2.6-.1,5.2-.1,7.8,0,1.6.2,3.4.3,4.7,1.4.4.3.5.9.2,1.3-.6.8-1.8,1.1-2.2,2.1-.4.9,0,1.9.3,2.8,1.1,2.3,2.2,4.6,3.3,7,.4.8.9,1.6,1.6,2.2,1.1.9,2.9.6,3.8-.6.9-1,1.5-2.1,2-3.3.9-1.9,1.8-3.7,2.7-5.6.4-1,.9-2.1.3-3.1-.5-.9-1.5-1.1-2.2-1.6-.5-.3-.4-1,0-1.4.6-.6,1.5-.8,2.3-1,2.4-.5,4.8-.5,7.2-.4,1.5,0,3,.1,4.4.8.9.3,1,2,0,2.2-1.2.3-2.5.2-3.5.9-1.7,1.4-2.5,3.4-3.5,5.3-3.6,6.9-7.3,13.8-10.9,20.7-.9,1.7-1.8,3.6-3.1,5-.9.5-2,.5-2.9.3-.8-.2-1.9-.5-2.2-1.4-.8-1.9-1.8-3.8-2.7-5.7-3.2-6.5-6.3-13.1-9.5-19.6-.8-1.3-1.4-2.9-2.9-3.6-.8-.4-1.6-.4-2.4-.8-.5-.2-.5-.9-.3-1.4.3-.8,1.1-1.2,1.8-1.5,1.8-.7,3.8-.9,5.7-1.1"/>
  <path class="st5" d="M24.5,43.6c1.6,0,3.1.7,4,2.1,1.5,2.1,1.8,4.8,1.2,7.2-.6,2.5-2.1,4.6-2.9,7.1-.2.5-.2,1-.2,1.5,1.5-.6,2.7-1.8,3.6-3,1.1-1.4,1.5-3.3,1.7-5,.6.2,1.2.6,1.4,1.2.5,1.3.7,2.9.3,4.2-.6,1.9-2,3.5-3.4,4.9-1.2,1.2-2.5,2.4-3.5,3.8,0,.9,0,1.8,0,2.7,2-.8,3.6-2.5,4.6-4.4.6-1.2,1-2.5,1.8-3.7,1.2,1.4,1.4,3.6.7,5.3-.5,1.3-1.5,2.3-2.5,3.2-1.3,1.1-2.4,2.4-3.6,3.6-.5.5-.9,1.1-1.1,1.7,0,1.1,0,2.2,0,3.2,1.2-.9,2.4-1.8,3.2-3.1.9-1.4,1.5-3,1.5-4.6,1.3.5,1.9,1.9,2,3.2.2,1.5-.4,3-1.4,4.2-1.4,1.5-2.7,3.1-4.2,4.6-.5.5-1,1.1-1.2,1.8-.2.5,0,1,0,1.5,1.2-1.1,2.4-2.1,3.7-3.2,1.1-.8,2.1-1.8,2.8-2.9.4-.7.6-1.5,1-2.1,0,0,.1,0,.2,0,.8,1.2.9,2.8.6,4.2-.2,1.3-1.1,2.4-2.1,3.2-1.5,1.1-3.3,1.9-4.6,3.3-.7.8-1.2,1.6-1.6,2.6-.5,1.4-.2,3.1.5,4.3.3-.8.7-1.6,1.3-2.2,1.2-1.3,2.2-2.6,3.5-3.7,1.4-1.2,2.4-2.8,3-4.5,1,1.6,1.3,3.8.6,5.6-.6,1.8-2.2,3-3.8,3.9-1.3.6-2.5,1.6-3.5,2.8,0,.8.4,1.6,1,2.3,1.7,1.9,3.8,3.3,6.1,4.4,3.3,1.8,7.3,2.3,11,2.1,2.6-.1,5.2,0,7.7.2,1.8.2,3.6,0,5.3-.1,2.2-.1,4.3,0,6.5,0,2.6,0,5.2-.2,7.7-1,2.1-.8,4.1-1.9,5.9-3.2,1-.6,1.8-1.5,2.6-2.4.5-.6.9-1.4.9-2.2-.9-1.2-2.1-2.1-3.5-2.8-1.5-.8-2.9-1.9-3.6-3.5-.9-1.9-.6-4.2.5-6,.6,1.8,1.6,3.3,3,4.5,1.3,1.1,2.4,2.5,3.6,3.8.6.6.9,1.3,1.2,2.1.8-1.4,1.1-3.2.4-4.6-.7-1.6-1.9-3-3.4-3.8-1.1-.8-2.5-1.4-3.4-2.5-1.7-1.8-1.9-4.8-.5-6.8.3.5.5,1,.7,1.5.6,1.4,1.7,2.5,2.8,3.5,1.4,1.1,2.7,2.3,4,3.4,0-.5.1-.9,0-1.4-.2-.8-.8-1.4-1.4-2-1.4-1.4-2.7-3-4.1-4.5-1-1.2-1.7-2.8-1.3-4.4.2-1.2.8-2.5,2-3,0,1.6.7,3.2,1.5,4.6.7,1.3,2,2.3,3.2,3.2,0-1.1,0-2.2,0-3.2-.5-1.3-1.7-2.3-2.6-3.3-1.3-1.5-3.1-2.6-4.2-4.4-1.1-1.9-1.1-4.5.3-6.2.8,1.2,1.2,2.4,1.8,3.7,1,1.9,2.5,3.6,4.6,4.4,0-.9,0-1.8,0-2.7-1.8-2.7-4.7-4.4-6.2-7.3-1.1-1.7-1.1-4-.2-5.8.3-.5.8-.8,1.3-1,0,1.3.4,2.6.9,3.7.5,1.2,1.5,2.2,2.4,3.1.6.5,1.3.9,2,1.2,0-1.9-1.2-3.6-1.9-5.3-1-2.1-1.8-4.5-1.4-6.8.1-1.5.8-2.9,1.7-4,.9-1.1,2.3-1.7,3.7-1.7-.2,1.2-.6,2.4-.6,3.6,0,1.3-.3,2.5,0,3.8.2,1.1.7,2,.8,3.1.3,1.8,0,3.6-.4,5.3-.1.5-.1,1,0,1.5,1.5-1.1,2.9-2.7,3.3-4.6.3-1.1.2-2.2.5-3.4,1.3.5,2.2,1.9,2.3,3.3.3,1.7-.2,3.5-1.3,4.8-1.7,1.9-3.5,3.7-4.7,5.9,0,.8,0,1.5,0,2.3,2.7-1.2,4.3-4.1,4.5-7,1,.4,2,1.3,2.1,2.4.2,1.7-.5,3.3-1.5,4.6-1.4,1.9-3.5,3.2-5,5.1,0,1.5,0,3,0,4.5,1.5-1,2.8-2.4,3.4-4.2.4-1.1.6-2.2.7-3.4,1.1.4,1.6,1.6,1.9,2.7.5,1.6.4,3.6-.8,4.9-1.6,1.8-3.5,3.4-4.9,5.3-.2.7,0,1.4-.1,2,2-1.3,4.2-2.5,5.2-4.7.4-1,.7-2,1.3-2.9.6.8,1,1.8,1.2,2.9.2,1.6-.5,3.3-1.9,4.2-1.5,1.2-3.2,2.2-4.7,3.4-.6.5-1.1,1.2-1.1,2,0,.9-.1,1.9-.1,2.8,1.7-1,3.3-2.1,4.8-3.4.9-.7,1.5-1.8,1.8-2.8,1,1.2,1.4,2.9.8,4.3-.4,1.2-1.2,2.2-2.1,3-1.1,1-2.5,1.5-3.9,2-.9.3-1.7.7-2.3,1.5-1.6,2.6-3.6,4.8-6.1,6.5-2.3,1.5-4.9,2.8-7.6,3.3-1.8.4-3.7.4-5.6.5-1.9.1-3.8,0-5.7-.2,1.3,1.2,2.8,2,4.1,3.2.8.6,1.6,1.4,1.7,2.4.1,1.2-.7,2.6-2,2.7-.8.2-1.6-.4-2-1.1-1.4-2.3-3.2-4.6-5.6-6-.7-.5-1.7-.4-2.4.1-2.3,1.4-4,3.6-5.4,5.9-.4.7-1.2,1.2-2,1.1-1.3,0-2-1.5-1.9-2.7,0-.6.4-1.2.9-1.7,1.5-1.5,3.4-2.6,5-3.9-2.7.3-5.4.2-8.1,0-3.2,0-6.4-1.1-9.2-2.7-2.8-1.5-5.2-3.8-7-6.5-.4-.5-.7-1.2-1.2-1.6-1-.8-2.3-1-3.4-1.5-2-.9-3.9-2.5-4.5-4.7-.4-1.4,0-2.9.9-4,.3,1.1.9,2.1,1.8,2.8,1.5,1.3,3.1,2.4,4.8,3.4,0-.9,0-1.9-.1-2.8,0-.8-.5-1.5-1.1-2-1.5-1.3-3.2-2.3-4.7-3.5-1.4-.9-2.2-2.7-1.9-4.3.2-1,.6-1.9,1.2-2.7.6.9.9,1.9,1.3,2.9,1,2.2,3.3,3.5,5.3,4.7,0-.7,0-1.4-.1-2-1.5-2-3.3-3.6-4.9-5.3-1.2-1.3-1.3-3.3-.8-4.9.3-1.1.7-2.3,1.9-2.7.2,1.2.4,2.4.8,3.5.6,1.7,1.9,3.1,3.4,4,0-1.5,0-3,0-4.5-1.4-1.7-3.3-2.9-4.6-4.6-.6-.8-1.3-1.6-1.6-2.6-.3-1-.5-2.1-.2-3,.3-.9,1.1-1.5,2-1.8.2,1.8.8,3.6,2,5.1.7.8,1.6,1.4,2.5,1.9,0-.8,0-1.5,0-2.3-1.2-2.4-3.3-4.2-5-6.3-1-1.3-1.4-3-1-4.6.2-1.3,1-2.6,2.3-3.1.3,1.6.2,3.4,1,4.9.7,1.2,1.6,2.3,2.8,3.1,0-.5,0-1,0-1.5-.5-2.1-.8-4.5,0-6.6.3-.9.6-1.9.7-2.9,0-2.1-.4-4.2-.8-6.2"/>
  <path class="st3" d="M158.1,48.6c-1.2.4-1.9,1.7-1.9,2.9-.1,2.7-.3,5.3-.4,8,0,.8.1,1.7.6,2.4.6.7,1.6.8,2.4.8,1.5,0,3.2-.6,4.1-2,1.2-1.7,1.4-3.9,1.3-6,0-1.7-.4-3.5-1.5-4.9-1.1-1.3-3-1.8-4.6-1.3ZM159,43.9c3.1-.2,6.4-.6,9.5.4,1.6.5,3.1,1.3,4.3,2.3,2,1.8,3,4.7,3,7.4,0,2.8-1,5.7-3.1,7.7-.6.6-1.5.8-2,1.6-.6.8-.3,2,.3,2.7.8.8,2,.9,3,1.6,1.5.9,2.3,2.6,2.9,4.2.7,2,.9,4.1,1.2,6.2.2.8.2,1.7.7,2.4.8.9,1.9,1.4,3,1.8.5.5.2,1.4.1,2-.5,1.7-2.5,2.4-4.1,2.7,0-1.1.1-2.4-.3-3.4-.6-1.3-2.1-1.7-3.4-2.1-2.6-.5-5.2-.4-7.8-.4-.6-1.4-1-2.9-1.3-4.5-.6-2.7-.9-5.6-2.7-7.8-.8-.8-2-1.2-3.2-1.4-.9,0-1.9.4-2.4,1.2-.3.6-.3,1.2-.3,1.9,0,2.6,0,5.3.3,7.9,0,.8.3,1.5.6,2.2.4.5.9.9,1.4,1.3,0,.7,0,1.4,0,2.1-.2.6-.3,1.1-.2,1.7-1.4.4-2.9.7-4.3.8-.1-1-.4-1.9-.9-2.7-.5-.8-1.3-1.2-2.1-1.7-2.2-1.1-4.7-1.4-7.1-1.5,1.1-1.1,1.3-2.7,1.5-4.1.1-1,.3-2,.3-3.1,0-6.2,0-12.4,0-18.7,0-1.6,0-3.3-.9-4.7-.6-1.2-2-1.5-2.9-2.4-.4-.6-.3-1.5,0-2.1.5-.6,1.2-1.1,1.9-1.2,2.4-.5,4.8-.3,7.2,0,2.7.1,5.3,0,8-.3"/>
  <path class="st3" d="M117.1,109.7c2.2-.8,4.6-1,6.9-.7.5,0,1.1.2,1.5.5.5.5.8,1.2,1.1,1.8,1.5,3.3,3,6.6,4.5,9.9.3.6.7,1.3,1.3,1.7.8.4,2,.4,2.6-.4.4-.5.7-1.1,1-1.6,1.2-2.8,2.3-5.7,3.6-8.5.5-1.4,1.3-3,2.9-3.2.6.6.9,1.5,1.3,2.3.6,1.3,1.3,2.5,1.8,3.8.4,1.4.7,2.8,1.4,4.1,0,4,0,8,.1,12,0,1.7.2,3.4.6,5.1.3.9,1.2,1.2,1.8,1.8.5.6.3,1.6-.3,2-.6.5-1.5.6-2.2.7-1.9.3-3.8.2-5.7.1-1.1-.1-2.2-.1-3.2-.7-.4-.2-.7-.6-.6-1.1.4-.7.9-1.2,1.5-1.8.6-.7.8-1.6.9-2.4.1-2.4.4-4.9,0-7.3,0-1.2-1.3-2.2-2.4-1.7-1.4.5-1.9,2-2.4,3.3-1.1,2.4-1.9,5-2.9,7.4-.4,1-.6,2-1.3,2.9-1.9-4.1-3.3-8.3-4.9-12.5-.3-.9-1.1-1.8-2.1-1.8-1.1,0-1.9,1-1.9,2,0,1.8,0,3.6,0,5.3,0,1.6,0,3.3.5,4.9.5.5,1.3.8,1.8,1.3.1.4.1,1-.2,1.3-.5.5-1.3.6-2,.8-1.4.2-2.9.2-4.4,0-.6-.1-1.3-.3-1.7-.7-.3-.3-.2-.7-.2-1.1.8-.5,1.7-.9,2.2-1.7.5-1,.6-2.2.7-3.4.3-2.1.4-4.2.4-6.3.2-2.5.2-5.1.2-7.6,0-1.6,0-3.2-.4-4.8-.2-.6-.3-1.3-.7-1.8-.5-.7-1.3-1-1.9-1.6-.5-.7-.2-1.9.6-2.2"/>
  <path class="st0" d="M50.1,51.2c4.2-.5,8.5-.4,12.6.3,2.2.4,4.4.9,6.5,1.9.8.4,1.7.9,2.3,1.6-7.6,0-15.1,0-22.7,0-3.1,0-6.3,0-9.4,0,.7-.9,1.8-1.4,2.8-1.9,2.5-1.1,5.2-1.6,7.9-1.9"/>
  <path class="st0" d="M49.7,60.6c1.7.3,3.1,1.4,4,2.8-.9.9-1.5,1.9-2.5,2.6-.8.7-1.6,1.4-2.5,2,2.3,3.5,4.7,6.9,7.1,10.4,2-2.9,4.1-5.7,6-8.6-.2-.9-.5-1.8-.7-2.7-.2-1.5.2-3,1.1-4.2.8-1,1.9-1.6,3.1-1.8-.4.8-.9,1.5-1.1,2.4-.2.8,0,1.6,0,2.4.7,0,1.2-.5,1.7-.9.7-.8,1.5-1.4,2.3-2.1-.7,1.3-1,2.7-1.6,4.1,0,.1,0,.3,0,.4,1.7,0,3.4-1.1,3.9-2.8.5,1.4.1,3.1-.8,4.2-.8,1-1.9,1.6-3.1,1.9-1.2.2-2.5,0-3.7-.1-2,3-4.1,5.9-6.1,8.8,4.4,5.9,8.8,11.8,13.2,17.7-.2.3-.5.7-.7,1-1.5-1.8-2.9-3.7-4.4-5.6-3-3.9-6-7.8-9.1-11.7-4.1,5.9-8.1,11.7-12.2,17.6-.4-.3-.8-.5-1.1-.8,4.1-6,8.3-11.9,12.4-17.9-2.5-3.6-5-7.3-7.5-10.9-1.8,1.1-3.5,2.5-5.6,3.2-1.5-1.2-1.9-3.2-1.6-5,.7.3,1.3,1.1,2.1.8.4-.8.1-1.8.2-2.6.7.3,1.2.7,1.8,1.1.2.2.6,0,.7-.3.3-.7,0-1.5-.3-2.2.7.4,1.4,1.1,2.3,1,.3-.8.3-1.7,0-2.6.6.5,1.4.7,2.2.7.5,0,.8-.4.8-.9,0-.5-.2-1-.5-1.4"/>
</svg>