<?xml version="1.0" encoding="utf-8"?>
<!-- Generator: Adobe Illustrator 28.3.0, SVG Export Plug-In . SVG Version: 6.00 Build 0)  -->
<svg version="1.1" id="Layer_1" xmlns="http://www.w3.org/2000/svg" xmlns:xlink="http://www.w3.org/1999/xlink" x="0px" y="0px"
	 viewBox="0 0 1800 1600" style="enable-background:new 0 0 1800 1600;" xml:space="preserve">
<style type="text/css">
	.st0{fill-rule:evenodd;clip-rule:evenodd;fill:#F8CC03;}
	.st1{fill-rule:evenodd;clip-rule:evenodd;fill:#FCE4AA;}
	.st2{fill-rule:evenodd;clip-rule:evenodd;fill:#FCFCFC;}
	.st3{fill-rule:evenodd;clip-rule:evenodd;fill:#5776BE;}
	.st4{fill-rule:evenodd;clip-rule:evenodd;fill:#00259C;}
	.st5{fill-rule:evenodd;clip-rule:evenodd;fill:#0333A0;}
	.st6{fill-rule:evenodd;clip-rule:evenodd;fill:#FBFCFD;}
	.st7{fill-rule:evenodd;clip-rule:evenodd;fill:#8197CC;}
	.st8{fill-rule:evenodd;clip-rule:evenodd;fill:#7790C9;}
	.st9{fill-rule:evenodd;clip-rule:evenodd;fill:#0C31A0;}
	.st10{fill-rule:evenodd;clip-rule:evenodd;fill:#0B31A0;}
	.st11{fill-rule:evenodd;clip-rule:evenodd;fill:#4F6EB9;}
	.st12{fill-rule:evenodd;clip-rule:evenodd;fill:#0933A1;}
	.st13{fill-rule:evenodd;clip-rule:evenodd;fill:#0932A0;}
	.st14{fill-rule:evenodd;clip-rule:evenodd;fill:#000B97;}
	.st15{fill-rule:evenodd;clip-rule:evenodd;fill:#0C34A1;}
	.st16{fill-rule:evenodd;clip-rule:evenodd;fill:#7A8DC4;}
	.st17{fill-rule:evenodd;clip-rule:evenodd;fill:#0732A0;}
	.st18{fill-rule:evenodd;clip-rule:evenodd;fill:#012E9F;}
	.st19{fill-rule:evenodd;clip-rule:evenodd;fill:#9FADD5;}
	.st20{fill-rule:evenodd;clip-rule:evenodd;fill:#012D9F;}
	.st21{fill-rule:evenodd;clip-rule:evenodd;fill:#F9FAFC;}
	.st22{fill-rule:evenodd;clip-rule:evenodd;fill:#F8F9FB;}
	.st23{fill-rule:evenodd;clip-rule:evenodd;fill:#F7F8FB;}
	.st24{fill-rule:evenodd;clip-rule:evenodd;fill:#F4F5FA;}
	.st25{fill-rule:evenodd;clip-rule:evenodd;fill:#7980B7;}
	.st26{fill-rule:evenodd;clip-rule:evenodd;fill:#ECC64C;}
	.st27{fill-rule:evenodd;clip-rule:evenodd;fill:#FACD00;}
	.st28{fill-rule:evenodd;clip-rule:evenodd;fill:#00149E;}
	.st29{fill-rule:evenodd;clip-rule:evenodd;fill:#0132A0;}
	.st30{fill-rule:evenodd;clip-rule:evenodd;fill:#FEFEFE;}
	.st31{fill-rule:evenodd;clip-rule:evenodd;fill:#FDFDFE;}
	.st32{fill-rule:evenodd;clip-rule:evenodd;fill:#DBE3F2;}
	.st33{fill-rule:evenodd;clip-rule:evenodd;fill:#7A8AC2;}
	.st34{fill-rule:evenodd;clip-rule:evenodd;fill:#00329F;}
	.st35{fill-rule:evenodd;clip-rule:evenodd;fill:#0D42AD;}
	.st36{fill-rule:evenodd;clip-rule:evenodd;fill:#0032A0;}
	.st37{fill-rule:evenodd;clip-rule:evenodd;fill:#00129A;}
	.st38{fill-rule:evenodd;clip-rule:evenodd;fill:#2B4EAA;}
	.st39{fill-rule:evenodd;clip-rule:evenodd;fill:#C4CDE6;}
	.st40{fill-rule:evenodd;clip-rule:evenodd;fill:#8A9BCC;}
	.st41{fill-rule:evenodd;clip-rule:evenodd;fill:#8CA0D2;}
	.st42{fill-rule:evenodd;clip-rule:evenodd;fill:#605F95;}
	.st43{fill-rule:evenodd;clip-rule:evenodd;fill:#F8CC05;}
	.st44{fill-rule:evenodd;clip-rule:evenodd;fill:#7B6C95;}
	.st45{fill-rule:evenodd;clip-rule:evenodd;fill:#716B7D;}
	.st46{fill-rule:evenodd;clip-rule:evenodd;fill:#0B339F;}
	.st47{fill-rule:evenodd;clip-rule:evenodd;fill:#03329F;}
	.st48{fill-rule:evenodd;clip-rule:evenodd;fill:#07329F;}
	.st49{fill-rule:evenodd;clip-rule:evenodd;fill:#01329F;}
	.st50{fill-rule:evenodd;clip-rule:evenodd;fill:#07339F;}
	.st51{fill-rule:evenodd;clip-rule:evenodd;fill:#09339F;}
	.st52{fill-rule:evenodd;clip-rule:evenodd;fill:#656488;}
	.st53{fill-rule:evenodd;clip-rule:evenodd;fill:#666588;}
	.st54{fill-rule:evenodd;clip-rule:evenodd;fill:#16349E;}
	.st55{fill-rule:evenodd;clip-rule:evenodd;fill:#1A359D;}
	.st56{fill-rule:evenodd;clip-rule:evenodd;fill:#3A4F8C;}
	.st57{fill-rule:evenodd;clip-rule:evenodd;fill:#E9C224;}
	.st58{fill-rule:evenodd;clip-rule:evenodd;fill:#F4C913;}
	.st59{fill-rule:evenodd;clip-rule:evenodd;fill:#C2AA78;}
	.st60{opacity:0.921;fill-rule:evenodd;clip-rule:evenodd;fill:#BF9D13;enable-background:new    ;}
	.st61{fill-rule:evenodd;clip-rule:evenodd;fill:#204288;}
	.st62{fill-rule:evenodd;clip-rule:evenodd;fill:#FACD03;}
	.st63{fill-rule:evenodd;clip-rule:evenodd;fill:#F8F8FB;}
	.st64{fill-rule:evenodd;clip-rule:evenodd;fill:#0232A0;}
	.st65{fill-rule:evenodd;clip-rule:evenodd;fill:#1334A1;}
	.st66{fill-rule:evenodd;clip-rule:evenodd;fill:#0831A0;}
	.st67{fill-rule:evenodd;clip-rule:evenodd;fill:#0332A0;}
	.st68{fill-rule:evenodd;clip-rule:evenodd;fill:#0B32A0;}
	.st69{fill-rule:evenodd;clip-rule:evenodd;fill:#06509C;}
	.st70{fill-rule:evenodd;clip-rule:evenodd;fill:#0A4C82;}
	.st71{fill-rule:evenodd;clip-rule:evenodd;fill:#F9CC06;}
	.st72{fill-rule:evenodd;clip-rule:evenodd;fill:#988A89;}
	.st73{fill-rule:evenodd;clip-rule:evenodd;fill:#CDB165;}
</style>
<g>
	<path class="st0" d="M342-0.5c371.7,0,743.3,0,1115,0c0,333.3,0,666.7,0,1000c-1.8,11.8-3.1,23.8-4,36c-1,0.1-1.8-0.2-2.5-1
		c-0.3,9.4-1.8,18.8-4.5,28c1.6,1.9,1.2,3.4-1,4.5c0.4,3.4,0.4,6.9,0,10.5c-28,134-88.2,251-180.5,351
		c-56.7,60.7-123.2,107.2-199.5,139.5c-42.4,16.3-86,26.8-131,31.5c-23,0-46,0-69,0c-87-9.3-166-39.1-237-89.5
		c-86.5-63.5-154.6-142.6-204.5-237.5c-45.6-86.5-72.8-178.5-81.5-276C342,664.2,342,331.8,342-0.5z"/>
</g>
<g>
	<path class="st1" d="M1437,979.5c0-320,0-640,0-960c-358.3,0-716.7,0-1075,0c0,317.7,0,635.3,0,953c-1-317.8-1.3-635.8-1-954
		c359,0,718,0,1077,0C1438.3,339,1438,659.3,1437,979.5z"/>
</g>
<g>
	<path class="st2" d="M1437,979.5c-3.7,75.9-19.9,148.9-48.5,219c-44.7,108.5-112.2,200.3-202.5,275.5c-41.1,32.4-86.1,58.4-135,78
		c-115.7,42.6-229,37.2-340-16c-65.2-33.2-122.4-77.1-171.5-131.5c-95.4-107.8-153.4-233.5-174-377c-2-18.3-3.2-36.6-3.5-55
		c0-317.7,0-635.3,0-953c358.3,0,716.7,0,1075,0C1437,339.5,1437,659.5,1437,979.5z"/>
</g>
<g>
	<path class="st3" d="M1425,32.5c-350,0-700,0-1050,0c0,313.3,0,626.7,0,940c-1-313.5-1.3-627.2-1-941
		C724.5,31.2,1074.8,31.5,1425,32.5z"/>
</g>
<g>
	<path class="st4" d="M1425,32.5c0,0.3,0,0.7,0,1c-349.7,0-699.3,0-1049,0c0.3,316.8,0,633.5-1,950c0-3.7,0-7.3,0-11
		c0-313.3,0-626.7,0-940C725,32.5,1075,32.5,1425,32.5z"/>
</g>
<g>
	<path class="st5" d="M1425,33.5c0.2,313,0,626-0.5,939c-4.7,101-30.7,196-78,285c-40.8,77-94.7,143.9-161.5,200.5
		c-61,50.5-130.3,84.5-208,102c-74.7,13.5-147.7,7.5-219-18c-78.1-31-145.6-77.5-202.5-139.5c-107.7-118.6-167.9-258.3-180.5-419
		c1-316.5,1.3-633.2,1-950C725.7,33.5,1075.3,33.5,1425,33.5z"/>
</g>
<g>
	<path class="st6" d="M399,56.5c334,0,668,0,1002,0c0.2,305.7,0,611.3-0.5,917c-4.9,96.4-29.9,187.1-75,272
		c-41.4,77.6-96.3,144.4-164.5,200.5c-45.7,35.9-96.4,62.9-152,81c-87.7,24.8-173.7,20.2-258-14c-75.2-33.7-139.7-81.9-193.5-144.5
		c-83-97.9-134.4-210.5-154-338c-1.9-15.3-3.2-30.6-4-46C399,675.2,398.8,365.8,399,56.5z"/>
</g>
<g>
	<path class="st7" d="M570,111.5c13.2-1,26.5-1.3,40-1c0,3,0,6,0,9c-10,0-20,0-30,0c9.5-1,19.2-1.3,29-1c0-2.3,0-4.7,0-7
		C596,111.5,583,111.5,570,111.5z"/>
</g>
<g>
	<path class="st8" d="M1025,119.5c0-2.7,0-5.3,0-8c-15,0-30,0-45,0c0,2.7,0,5.3,0,8c-1-2.8-1.3-5.8-1-9c15.7,0,31.3,0,47,0
		C1026.3,113.7,1026,116.7,1025,119.5z"/>
</g>
<g>
	<path class="st9" d="M788,110.5c11.5-2,21.3,1,29.5,9c2.2,7.5,1.9,14.8-1,22c-3.3,3.9-7.4,6-12.5,6.5c-8.7,1.3-17,0.3-25-3
		c-5.7-6.4-7.5-13.9-5.5-22.5C776.4,116.1,781.3,112.1,788,110.5z"/>
</g>
<g>
	<path class="st10" d="M1305,110.5c8.4-0.7,16.4,0.8,24,4.5c6.5,7.6,7.7,16.1,3.5,25.5c-3.1,4.9-7.6,7.4-13.5,7.5
		c-7.9,1.1-15.5,0.4-23-2c-7.2-5.9-9.7-13.4-7.5-22.5C1291.5,115.9,1297,111.6,1305,110.5z"/>
</g>
<g>
	<path class="st11" d="M492,111.5c-9,0-18,0-27,0c0,12.3,0,24.7,0,37c-1-12.5-1.3-25.2-1-38C473.5,110.2,482.8,110.5,492,111.5z"/>
</g>
<g>
	<path class="st12" d="M492,111.5c11.4,0.9,17.1,7.1,17,18.5c0.3,11-5,17-16,18c-9.3,0.5-18.7,0.7-28,0.5c0-12.3,0-24.7,0-37
		C474,111.5,483,111.5,492,111.5z"/>
</g>
<g>
	<path class="st13" d="M570,111.5c13,0,26,0,39,0c0,2.3,0,4.7,0,7c-9.8-0.3-19.5,0-29,1c0,2.3,0,4.7,0,7c9.7,0,19.3,0,29,0
		c0,2.3,0,4.7,0,7c-9.7,0-19.3,0-29,0c0,2.3,0,4.7,0,7c9.5,1,19.2,1.3,29,1c0,2.3,0,4.7,0,7c-13,0-26,0-39,0
		C570,136.2,570,123.8,570,111.5z"/>
</g>
<g>
	<path class="st14" d="M705,111.5c-10.8,1-21.8,1.3-33,1c0,12,0,24,0,36c0-12,0-24,0-36C683.2,112.8,694.2,112.5,705,111.5z"/>
</g>
<g>
	<path class="st15" d="M705,111.5c10.6,5.3,12.6,13,6,23c-1.5,1.4-3.2,2.5-5,3.5c-8.3,0.5-16.7,0.7-25,0.5c0,3.3,0,6.7,0,10
		c-3,0-6,0-9,0c0-12,0-24,0-36C683.2,112.8,694.2,112.5,705,111.5z"/>
</g>
<g>
	<path class="st16" d="M907,111.5c-9.7,0-19.3,0-29,0c0,12.3,0,24.7,0,37c-1-12.5-1.3-25.2-1-38C887.2,110.2,897.2,110.5,907,111.5z
		"/>
</g>
<g>
	<path class="st17" d="M907,111.5c11.6,1.2,16.1,7.5,13.5,19c-1.8,3.2-4.3,5.7-7.5,7.5c2.1,3.1,4.1,6.2,6,9.5c-3.7,1.3-7.3,1.3-11,0
		c-1.8-2.8-3.5-5.6-5-8.5c-5.3-0.5-10.7-0.7-16-0.5c0,3.3,0,6.7,0,10c-3,0-6,0-9,0c0-12.3,0-24.7,0-37
		C887.7,111.5,897.3,111.5,907,111.5z"/>
</g>
<g>
	<path class="st18" d="M1025,119.5c-6,0-12,0-18,0c0,9.7,0,19.3,0,29c-3,0-6,0-9,0c0-9.7,0-19.3,0-29c-6,0-12,0-18,0
		c0-2.7,0-5.3,0-8c15,0,30,0,45,0C1025,114.2,1025,116.8,1025,119.5z"/>
</g>
<g>
	<path class="st19" d="M1110,148.5c0-12.3,0-24.7,0-37c-3,0-6,0-9,0c0,12.3,0,24.7,0,37c-1-12.5-1.3-25.2-1-38c3.7,0,7.3,0,11,0
		C1111.3,123.3,1111,136,1110,148.5z"/>
</g>
<g>
	<path class="st20" d="M1110,148.5c-3,0-6,0-9,0c0-12.3,0-24.7,0-37c3,0,6,0,9,0C1110,123.8,1110,136.2,1110,148.5z"/>
</g>
<g>
	<path class="st10" d="M1183,112.5c3.5-1.3,7.2-1.3,11,0c4.7,9.4,9.6,18.7,14.5,28c4.9-9.3,9.8-18.6,14.5-28c3.6-1.2,7.3-1.3,11-0.5
		c-6.5,11.6-12.7,23.4-18.5,35.5c-4.7,1.3-9.3,1.3-14,0C1195.8,135.5,1189.6,123.8,1183,112.5z"/>
</g>
<g>
	<path class="st21" d="M474,119.5c7.4-0.4,14.8,0.1,22,1.5c4.2,4.5,5.1,9.7,2.5,15.5c-1.2,1.5-2.7,2.7-4.5,3.5
		c-6.7,0.5-13.3,0.7-20,0.5C474,133.5,474,126.5,474,119.5z"/>
</g>
<g>
	<path class="st22" d="M681,119.5c7-0.2,14,0,21,0.5c2.4,0.8,3.4,2.4,3,5c0.4,2.6-0.6,4.2-3,5c-7,0.5-14,0.7-21,0.5
		C681,126.8,681,123.2,681,119.5z"/>
</g>
<g>
	<path class="st23" d="M791,118.5c6.7-0.9,12.5,0.8,17.5,5c2.5,5.7,1.6,10.9-2.5,15.5c-5.9,1.6-11.9,1.9-18,1
		c-1.8-0.8-3.3-2-4.5-3.5C779.5,127.5,782,121.5,791,118.5z"/>
</g>
<g>
	<path class="st22" d="M887,119.5c7.3-0.2,14.7,0,22,0.5c2.7,3.3,2.7,6.7,0,10c-7.3,0.5-14.7,0.7-22,0.5
		C887,126.8,887,123.2,887,119.5z"/>
</g>
<g>
	<path class="st24" d="M1306,118.5c6.4-0.9,12.3,0.4,17.5,4c3.3,5.3,3.2,10.4-0.5,15.5c-8.9,5.4-17.1,4.6-24.5-2.5
		c-0.7-4-0.7-8,0-12C1300.4,120.7,1302.9,119.1,1306,118.5z"/>
</g>
<g>
	<path class="st25" d="M580,140.5c10,0,20,0,30,0c0.3,2.9,0,5.6-1,8c0-2.3,0-4.7,0-7C599.2,141.8,589.5,141.5,580,140.5z"/>
</g>
<g>
	<path class="st26" d="M1388,199.5c-1-3.1-1.3-6.5-1-10c-325,0-650,0-975,0c0,3.7,0,7.3,0,11c325.3,0,650.7,0,976,0c0,0.7-0.3,1-1,1
		c-325,0-650,0-975,0c-1-4.1-1.3-8.5-1-13c325.7,0,651.3,0,977,0C1388,192.2,1388,195.8,1388,199.5z"/>
</g>
<g>
	<path class="st27" d="M1388,199.5c0,0.3,0,0.7,0,1c-325.3,0-650.7,0-976,0c0-3.7,0-7.3,0-11c325,0,650,0,975,0
		C1386.7,193,1387,196.4,1388,199.5z"/>
</g>
<g>
	<path class="st28" d="M412,201.5c325,0,650,0,975,0c0,257.3,0,514.7,0,772c-1-256.8-1.3-513.8-1-771c-324.3,0-648.7,0-973,0
		c0.3,253.5,0,506.8-1,760C412,708.8,412,455.2,412,201.5z"/>
</g>
<g>
	<path class="st29" d="M1387,973.5c-3.2,71.7-18.3,140.7-45.5,207c-43.4,105.4-109.9,193.2-199.5,263.5
		c-47.6,35.4-100.2,60.8-158,76c-72,16.5-142.7,12.1-212-13c-59.2-22.9-111.8-55.9-158-99c-99.9-96-164.1-212.2-192.5-348.5
		c-6-32.1-9.2-64.4-9.5-97c1-253.2,1.3-506.5,1-760c324.3,0,648.7,0,973,0C1385.7,459.7,1386,716.7,1387,973.5z"/>
</g>
<g>
	<path class="st30" d="M464,275.5c52.7-0.2,105.3,0,158,0.5c16.5,4.2,27.7,14.4,33.5,30.5c1.2,62.1,1.7,124.3,1.5,186.5
		c-0.3,60.8-0.7,121.7-1,182.5c-15.5,11.3-30.8,22.8-46,34.5c15.5,11.5,31,23,46.5,34.5c0.5,61.3,0.7,122.7,0.5,184
		c-23.7,0-47.3,0-71,0c0-64.3,0-128.7,0-193c-16.7,0-33.3,0-50,0c0,64.3,0,128.7,0,193c-24,0-48,0-72,0
		C464,710.8,464,493.2,464,275.5z"/>
</g>
<g>
	<path class="st31" d="M880,304.5c0,2.4,0.5,4.8,1.5,7c0.5,205.7,0.7,411.3,0.5,617c-23.3,0-46.7,0-70,0c0-64.3,0-128.7,0-193
		c-17.2-0.3-34.2,0-51,1c0,64,0,128,0,192c-24,0-48,0-72,0c-0.5-206.4,0-412.7,1.5-619c5.1-17.1,16.3-28.3,33.5-33.5
		c41.7-0.7,83.3-0.7,125,0C864.3,280.2,874.7,289.7,880,304.5z"/>
</g>
<g>
	<path class="st31" d="M1048,760.5c-1,55.8-1.3,111.8-1,168c-23.3,0-46.7,0-70,0c0.3-56.2,0-112.2-1-168
		c-20.3-19.8-40.5-39.8-60.5-60c-0.5-141.7-0.7-283.3-0.5-425c24,0,48,0,72,0c-0.2,141.7,0,283.3,0.5,425c8.7,7.5,16.8,15.5,24.5,24
		c8.3-7.8,16.5-15.8,24.5-24c0.5-141.7,0.7-283.3,0.5-425c24,0,48,0,72,0c0.2,141.7,0,283.3-0.5,425
		C1088.5,720.7,1068.3,740.7,1048,760.5z"/>
</g>
<g>
	<path class="st31" d="M1183,275.5c37.7-0.5,75.4,0,113,1.5c21.9,7.6,34.7,22.7,38.5,45.5c0.7,186.7,0.7,373.3,0,560
		c-5.2,26.9-21.4,42.4-48.5,46.5c-32.3,0.7-64.7,0.7-97,0c-26.7-4.4-42.6-19.9-47.5-46.5c-0.7-46.3-0.7-92.7,0-139
		c16.1-11.3,31.9-23,47.5-35c-15.5-12-31.4-23.7-47.5-35c-0.7-117.7-0.7-235.3,0-353C1146.8,297.7,1160.7,282.7,1183,275.5z"/>
</g>
<g>
	<path class="st32" d="M880,304.5c1.1,1.8,1.9,3.8,2.5,6c0.5,206,0.7,412,0.5,618c-0.3,0-0.7,0-1,0c0.2-205.7,0-411.3-0.5-617
		C880.5,309.3,880,306.9,880,304.5z"/>
</g>
<g>
	<path class="st33" d="M536,326.5c0,0.3,0,0.7,0,1c0,118.7,0,237.3,0,356c16.7,0,33.3,0,50,0c-16.8,1-33.8,1.3-51,1
		C534.7,565,535,445.7,536,326.5z"/>
</g>
<g>
	<path class="st34" d="M536,327.5c16.3,0,32.7,0,49,0c-0.3,118.5,0,236.8,1,355c0,0.3,0,0.7,0,1c-16.7,0-33.3,0-50,0
		C536,564.8,536,446.2,536,327.5z"/>
</g>
<g>
	<path class="st35" d="M536,327.5c0-0.3,0-0.7,0-1c16.7,0,33.3,0,50,0c0,118.7,0,237.3,0,356c-1-118.2-1.3-236.5-1-355
		C568.7,327.5,552.3,327.5,536,327.5z"/>
</g>
<g>
	<path class="st36" d="M761,326.5c16.7,0,33.3,0,50,0c0,119.3,0,238.7,0,358c-16.7,0-33.3,0-50,0C761,565.2,761,445.8,761,326.5z"/>
</g>
<g>
	<path class="st37" d="M1213,327.5c0.3,0,0.7,0,1,0c0,183,0,366,0,549c16,0,32,0,48,0c0,0.3,0,0.7,0,1c-16.3,0-32.7,0-49,0
		C1213,694.2,1213,510.8,1213,327.5z"/>
</g>
<g>
	<path class="st34" d="M1214,327.5c16,0,32,0,48,0c0,183,0,366,0,549c-16,0-32,0-48,0C1214,693.5,1214,510.5,1214,327.5z"/>
</g>
<g>
	<path class="st38" d="M1213,327.5c16.5-1,33.2-1.3,50-1c0.3,183.8,0,367.5-1,551c0-0.3,0-0.7,0-1c0-183,0-366,0-549
		c-16,0-32,0-48,0C1213.7,327.5,1213.3,327.5,1213,327.5z"/>
</g>
<g>
	<path class="st39" d="M1263,326.5c1,183.8,1.3,367.8,1,552c-17.2,0.3-34.2,0-51-1c16.3,0,32.7,0,49,0
		C1263,694,1263.3,510.3,1263,326.5z"/>
</g>
<g>
	<path class="st40" d="M761,736.5c16.8-1,33.8-1.3,51-1c0,64.3,0,128.7,0,193c23.3,0,46.7,0,70,0c0.3,0,0.7,0,1,0
		c-23.8,1-47.8,1.3-72,1c0-64.3,0-128.7,0-193C794.3,736.5,777.7,736.5,761,736.5z"/>
</g>
<g>
	<path class="st41" d="M976,760.5c1,55.8,1.3,111.8,1,168c23.3,0,46.7,0,70,0c-0.3-56.2,0-112.2,1-168c0,56.3,0,112.7,0,169
		c-24,0-48,0-72,0C976,873.2,976,816.8,976,760.5z"/>
</g>
<g>
	<path class="st42" d="M1333,976.5c0-2.3,0-4.7,0-7c-289,0-578,0-867,0c0,1.3,0,2.7,0,4c-1-1.4-1.3-3.1-1-5c289.7,0,579.3,0,869,0
		C1334.3,971.4,1334,974.1,1333,976.5z"/>
</g>
<g>
	<path class="st43" d="M1333,976.5c-0.1,5-0.4,10-1,15c-1.3,4.4-2,9.1-2,14c-0.5,5-1.2,10-2,15c-1.9,5.8-3.3,11.8-4,18
		c-4.2,24-10.7,47.3-19.5,70c-0.5,2-0.7,4-0.5,6c-269.3,0.2-538.7,0-808-0.5c-16.2-45.4-26.2-92.2-30-140.5c0-1.3,0-2.7,0-4
		c289,0,578,0,867,0C1333,971.8,1333,974.2,1333,976.5z"/>
</g>
<g>
	<path class="st44" d="M1332,991.5c-0.2,2.7,0.1,5.4,1,8c-1.4,1.9-2.4,3.9-3,6C1330,1000.6,1330.7,995.9,1332,991.5z"/>
</g>
<g>
	<path class="st45" d="M1172,1011.5c8.8-1.2,17.8-1.3,27-0.5c1.2,0.2,2.2,0.7,3,1.5C1192,1011.6,1182,1011.3,1172,1011.5z"/>
</g>
<g>
	<path class="st46" d="M1172,1011.5c10-0.2,20,0.1,30,1c17.6,3.2,26.3,13.9,26,32c-0.3,19.5-10,30.6-29,33.5
		c-15.5,3.4-30.2,1.4-44-6c-5.1-4.5-8.6-10-10.5-16.5c-4.4-17.1,0.4-30.6,14.5-40.5C1163.2,1013.3,1167.5,1012.2,1172,1011.5z"/>
</g>
<g>
	<path class="st47" d="M619,1034.5c1.5-0.3,2.2-1.3,2-3c-13,0-26,0-39,0c0-6.7,0-13.3,0-20c25,0,50,0,75,0c0.2,7,0,14-0.5,21
		c-12.7,8.3-25.6,16.5-38.5,24.5c13,0.5,26,0.7,39,0.5c0,7,0,14,0,21c-25,0-50,0-75,0c-0.3-7.4,0-14.7,1-22
		C595,1049.2,607,1041.8,619,1034.5z"/>
</g>
<g>
	<path class="st48" d="M680,1011.5c8.3,0,16.7,0,25,0c-0.4,13.7,0.1,27.4,1.5,41c4,4.4,9,6.4,15,6c7.3,0.5,12.9-2.1,17-8
		c0.5-13,0.7-26,0.5-39c8.3,0,16.7,0,25,0c0.2,13.3,0,26.7-0.5,40c-2.1,15.5-11,24.3-26.5,26.5c-16.1,3.5-31.5,1.5-46-6
		c-6.5-5.6-10-12.8-10.5-21.5C680,1037.5,679.8,1024.5,680,1011.5z"/>
</g>
<g>
	<path class="st49" d="M855,1057.5c0,6.7,0,13.3,0,20c-22.5-0.3-44.8,0-67,1c-1-22.2-1.3-44.5-1-67c8.3,0,16.7,0,25,0
		c0,15.3,0,30.7,0,46C826.3,1057.5,840.7,1057.5,855,1057.5z"/>
</g>
<g>
	<path class="st49" d="M878,1011.5c8,0,16,0,24,0c0,22.3,0,44.7,0,67c-8,0-16,0-24,0C878,1056.2,878,1033.8,878,1011.5z"/>
</g>
<g>
	<path class="st50" d="M951,1011.5c12.6-0.3,25.1,0,37.5,1c9.3,21.9,18.2,43.9,26.5,66c-9,0-18,0-27,0c-1-3.9-2.4-7.8-4-11.5
		c-9.7-0.8-19.4-0.7-29,0.5c-1.9,3.1-3.2,6.4-4,10c-9,1-18,1.3-27,1C932.7,1056.1,941.7,1033.7,951,1011.5z"/>
</g>
<g>
	<path class="st51" d="M1037,1011.5c10.7-0.2,21.3,0,32,0.5c9.6,12.7,19.1,25.6,28.5,38.5c0.5-13,0.7-26,0.5-39c8.3,0,16.7,0,25,0
		c0,22.3,0,44.7,0,67c-11,0.2-22,0-33-0.5c-9.5-12.8-19-25.7-28.5-38.5c-0.5,13-0.7,26-0.5,39c-8,0-16,0-24,0
		C1037,1056.2,1037,1033.8,1037,1011.5z"/>
</g>
<g>
	<path class="st52" d="M540,1016.5c-7.9-0.3-15.5,0-23,1c-0.5-0.1-0.9-0.4-1-1C524.2,1015.2,532.2,1015.2,540,1016.5z"/>
</g>
<g>
	<path class="st53" d="M1270,1016.5c7.8-1.3,15.8-1.3,24,0c-0.1,0.6-0.5,0.9-1,1C1285.5,1016.5,1277.9,1016.2,1270,1016.5z"/>
</g>
<g>
	<path class="st54" d="M540,1016.5c5.5,12.8,10.5,25.8,15,39c-3.4,0.4-6.7,1.1-10,2c3.8,8.2,7,16.6,9.5,25
		c-10.1-13.8-20.6-27.3-31.5-40.5c4-0.3,8-0.7,12-1c-6.1-7.8-12.1-15.6-18-23.5C524.5,1016.5,532.1,1016.2,540,1016.5z"/>
</g>
<g>
	<path class="st55" d="M1270,1016.5c7.9-0.3,15.5,0,23,1c-5.9,7.9-11.9,15.7-18,23.5c3.7,0.2,7.4,0.7,11,1.5
		c-10.7,13.5-21.2,27.2-31.5,41c3.3-8.8,6.8-17.6,10.5-26.5c-3.7-0.2-7.4-0.7-11-1.5C1259.7,1042.5,1265,1029.5,1270,1016.5z"/>
</g>
<g>
	<path class="st56" d="M582,1031.5c13,0,26,0,39,0c0.2,1.7-0.5,2.7-2,3c0.1-0.6,0.4-1.1,1-1.5C607.2,1032.8,594.5,1032.3,582,1031.5
		z"/>
</g>
<g>
	<path class="st57" d="M969,1029.5c3,6,5.7,12.4,8,19c-5,1-10,1.3-15,1C963.9,1042.7,966.3,1036,969,1029.5z"/>
</g>
<g>
	<path class="st58" d="M1177,1031.5c7.2-0.5,14.2,0.3,21,2.5c5.7,5.8,6.5,12.2,2.5,19.5c-9.2,5.9-18.7,6.4-28.5,1.5
		c-3.4-5.9-3.9-12-1.5-18.5C1172.8,1034.9,1175,1033.3,1177,1031.5z"/>
</g>
<g>
	<path class="st59" d="M1328,1020.5c-0.4,6.3-1.7,12.3-4,18C1324.7,1032.2,1326.1,1026.2,1328,1020.5z"/>
</g>
<g>
	<path class="st60" d="M1453,1035.5c-2.3,14.2-5,28.2-8,42c0.4-3.6,0.4-7.1,0-10.5c2.2-1.1,2.6-2.6,1-4.5c2.7-9.2,4.2-18.6,4.5-28
		C1451.2,1035.2,1452,1035.6,1453,1035.5z"/>
</g>
<g>
	<path class="st61" d="M855,1057.5c1,6.8,1.3,13.8,1,21c-22.7,0-45.3,0-68,0c22.2-1,44.5-1.3,67-1C855,1070.8,855,1064.2,855,1057.5
		z"/>
</g>
<g>
	<path class="st31" d="M809,1430.5c1.1,0.9,2.4,1.3,4,1c-0.4,3,0.3,5.7,2,8c-42.9-12.4-82.5-31.3-119-56.5
		c-66.5-47.9-119.7-107.7-159.5-179.5c-13.8-25.2-26-51.2-36.5-78c46.3-1,92.7-1.3,139-1c-0.2,68,0,136,0.5,204
		c41.4,40.4,88.9,71.5,142.5,93.5C790.8,1425.4,799.8,1428.2,809,1430.5z"/>
</g>
<g>
	<path class="st31" d="M986,1438.5c0-2.3,0-4.7,0-7c1,0.2,1.7-0.2,2-1c41.3-11.6,79.3-29.7,114-54.5c20.3-14.3,39.5-30.2,57.5-47.5
		c0.5-68,0.7-136,0.5-204c46.3,0,92.7,0,139,0c-34.5,91.7-88.8,169.5-163,233.5c-29.1,23.5-60.4,43.5-94,60
		C1023.8,1426.3,1005.1,1433.1,986,1438.5z"/>
</g>
<g>
	<path class="st62" d="M986,1195.5c-39.3-33.8-83.6-42.3-133-25.5c-14.8,6.3-28.1,14.8-40,25.5c0-23.7,0-47.3,0-71
		c57.7,0,115.3,0,173,0C986,1148.2,986,1171.8,986,1195.5z"/>
</g>
<g>
	<path class="st63" d="M986,1195.5c31.9,31.8,44,70.2,36.5,115c-5.3,25.6-17.1,47.6-35.5,66c-0.7,0-1,0.3-1,1
		c-46.5,39.2-96.9,44.7-151,16.5c-7.5-5.3-14.9-10.8-22-16.5c0-0.7-0.3-1-1-1c-37-40.1-46.5-86.1-28.5-138c7.3-16,17.2-30.4,29.5-43
		c11.9-10.7,25.2-19.2,40-25.5C902.4,1153.2,946.7,1161.7,986,1195.5z"/>
</g>
<g>
	<path class="st13" d="M887,1173.5c12.9-0.7,25.5,0.5,38,3.5c-8.1,6.5-16.6,12.3-25.5,17.5c-9.9-5-19.4-10.7-28.5-17
		C876.5,1176.3,881.8,1174.9,887,1173.5z"/>
</g>
<g>
	<path class="st64" d="M940,1182.5c15.9,4.4,29.4,12.7,40.5,25c-1.2,14.3-2.6,28.6-4,43c0.1,3.2-1.1,5.7-3.5,7.5
		c-9.7,1.8-19.4,3.8-29,6c-2,0.7-4,0.7-6,0c-9-6.3-18-12.7-27-19c-1.5-1.2-2.7-2.7-3.5-4.5c-1-11.8-0.6-23.4,1-35
		C919,1197.7,929.5,1190,940,1182.5z"/>
</g>
<g>
	<path class="st64" d="M852,1183.5c1.4-0.2,2.7,0,4,0.5c12.6,7.2,24.8,15,36.5,23.5c0.7,11.7,0.7,23.3,0,35
		c-9.5,6.8-19,13.7-28.5,20.5c-1.7,1-3.5,1.5-5.5,1.5c-11.7-1.6-23-4.3-34-8c-2.3-14.7-4.8-29.4-7.5-44c0.1-1.4,0.5-2.7,1-4
		C828.2,1198.6,839.6,1190.2,852,1183.5z"/>
</g>
<g>
	<path class="st65" d="M993,1222.5c14,18.6,20.8,39.6,20.5,63c-8.4-8-16.4-16.4-24-25C989.9,1247.8,991,1235.1,993,1222.5z"/>
</g>
<g>
	<path class="st66" d="M804,1224.5c4,11.8,5.8,24.1,5.5,37c-7.7,7.7-15.3,15.3-23,23c0.4-14.1,3-27.8,8-41
		C797.7,1237.1,800.8,1230.8,804,1224.5z"/>
</g>
<g>
	<path class="st64" d="M899,1253.5c10.2,6.4,20,13.4,29.5,21c-0.7,6.1-2,12.1-4,18c-2.3,6-4.8,11.8-7.5,17.5
		c-11.7,0.8-23.4,0.7-35-0.5c-4.4-11-8.4-22.2-12-33.5C879.5,1268.3,889.2,1260.8,899,1253.5z"/>
</g>
<g>
	<path class="st64" d="M819,1270.5c12.8,2.1,25.5,4.9,38,8.5c3.6,9,6.8,18.2,9.5,27.5c1.1,3.6,1.4,7.3,1,11
		c-6.2,11.3-13,22.1-20.5,32.5c-15.9-1.1-31.5-3.8-47-8c-6-11.3-10-23.3-12-36c0-2,0.5-3.8,1.5-5.5
		C799.5,1290.6,809.4,1280.6,819,1270.5z"/>
</g>
<g>
	<path class="st67" d="M973,1270.5c2.7-0.2,5.4,0,8,0.5c9.8,10.8,19.9,21.3,30.5,31.5c-0.6,14-4.4,27-11.5,39
		c-14.4,3.5-28.9,6.5-43.5,9c-2.8-0.2-4.8-1.5-6-4c-6.1-9.8-12.4-19.5-19-29c-0.7-2-0.7-4,0-6c3.3-10,6.7-20,10-30
		c0.5-1.4,1.3-2.6,2.5-3.5C953.7,1275.1,963.4,1272.6,973,1270.5z"/>
</g>
<g>
	<path class="st67" d="M881,1323.5c13-0.2,26,0,39,0.5c7.3,10.8,14.5,21.6,21.5,32.5c0.7,1.7,0.7,3.3,0,5
		c-7.7,12.9-15.5,25.8-23.5,38.5c-12,2-24,2-36,0c-8.2-12.6-16-25.5-23.5-38.5c-0.7-1.7-0.7-3.3,0-5
		C865.5,1345.1,873,1334.1,881,1323.5z"/>
</g>
<g>
	<path class="st13" d="M812,1358.5c10.8,1.9,21.4,4,32,6.5c1.5,1.5,3,3,4.5,4.5c3.7,8.4,8.2,16.4,13.5,24c-0.3,0.3-0.7,0.7-1,1
		C841.3,1387.1,824.9,1375.1,812,1358.5z"/>
</g>
<g>
	<path class="st68" d="M982,1358.5c2.4-0.2,4.7,0,7,0.5c-13.8,15.9-30.4,27.8-50,35.5c4-10.2,9.4-20,16-29.5
		C964.2,1363.2,973.2,1361.1,982,1358.5z"/>
</g>
<g>
	<path class="st69" d="M987,1376.5c-0.3,18.2,0,36.2,1,54c-0.3,0.8-1,1.2-2,1c0-18,0-36,0-54C986,1376.8,986.3,1376.5,987,1376.5z"
		/>
</g>
<g>
	<path class="st70" d="M812,1376.5c0.7,0,1,0.3,1,1c0,18,0,36,0,54c-1.6,0.3-2.9-0.1-4-1c1,0,2,0,3,0
		C812,1412.5,812,1394.5,812,1376.5z"/>
</g>
<g>
	<path class="st71" d="M813,1377.5c7.1,5.7,14.5,11.2,22,16.5c54.1,28.2,104.5,22.7,151-16.5c0,18,0,36,0,54c0,2.3,0,4.7,0,7
		c-20.1,6.4-40.8,10.1-62,11c-19,0.2-38-0.2-57-1c-4.3-0.4-8.7-0.8-13-1c-3.1-1.3-6.4-1.9-10-2c-9.8-1.6-19.4-3.6-29-6
		c-1.7-2.3-2.4-5-2-8C813,1413.5,813,1395.5,813,1377.5z"/>
</g>
<g>
	<path class="st72" d="M844,1445.5c3.6,0.1,6.9,0.7,10,2C850.4,1447.7,847,1447,844,1445.5z"/>
</g>
<g>
	<path class="st73" d="M867,1448.5c19,0.8,38,1.2,57,1c-7.8,0.7-15.8,1-24,1C888.8,1450.7,877.8,1450,867,1448.5z"/>
</g>
</svg>
