<svg id="Camada_1" data-name="Camada 1" xmlns="http://www.w3.org/2000/svg" xmlns:xlink="http://www.w3.org/1999/xlink" viewBox="0 0 600 600"><defs><style>.cls-1{fill:none;}.cls-2{clip-path:url(#clip-path);}.cls-3{fill:#fff;}.cls-4{fill:#dadada;}.cls-5{fill:#dd0741;}.cls-6{fill:#001f47;}</style><clipPath id="clip-path"><rect class="cls-1" x="2.28" y="108.47" width="595.44" height="383.07"/></clipPath></defs><g class="cls-2"><path class="cls-3" d="M589.85,271.21c-16.55-8.1-45.33-17.43-45.33-17.43-1.23-.33-3.72-1.14-3.72-1.14a13.73,13.73,0,0,0,1.62-3.26c1-3.57.8-7.74-1.51-9,0,0,12.56.69,15.28-.36,7.72-3,10.69-13.38,8-20.71-1.42-3.84-7.46-6.24-8.7-9.45-1.18-3-2-5.44-5.19-7.08-5.21-2.63-18.43-4.94-24.24-4.43-4.91.43-5.85,6.09-8.88,7.4-12.13,5.22-17.54,2.77-17.42,20.87a9.67,9.67,0,0,0,.14,1.57c-4.39-2.13-15.36-7.5-20.45-9.76V108.84H120.57V218.38c-5.08,2.26-16.06,7.63-20.45,9.76a9.67,9.67,0,0,0,.14-1.57c.12-18.1-5.3-15.65-17.42-20.87-3-1.31-4-7-8.88-7.4-5.81-.5-19,1.8-24.24,4.44-3.23,1.64-4,4-5.18,7.07-1.24,3.21-7.29,5.61-8.71,9.45-2.72,7.34.25,17.7,8,20.71,2.73,1.06,15.29.36,15.29.36-2.31,1.3-2.51,5.48-1.52,9a13.73,13.73,0,0,0,1.62,3.26s-2.49.82-3.72,1.14c0,0-28.78,9.34-45.34,17.43,0,0-19.85,9.33,4.76,7.54,1.2,0,19.64-1.42,38.88-4.28l-.12,1.08c0,6.22,1.33,6.19,6.5,8L60,284.65c-6.49,1.32-19.37,2.6-23.86,5.6-4.91,3.29-18.34.74-26.4,11.72-2.12,2.88-5.64,11.63-3.57,14.48C9.56,321.1,29,327.91,31.56,328c6.09.13,6.71-4.85,11-7.81,2.06-1.42,4.53-.47,6.82-1.06,3.44-.92,5.35-4.05,8.38-5.62,1.76-.91,5.55-1.79,8-.38,10.68,6.58,43.45-1.77,54.82-8.49V364c0,21.13,2.69,29.21,9.1,40.38l.54.88c36.51,54.61,98.4,85.92,169.79,85.93s133.22-31.24,169.63-85.68l.54-.86c6.54-11.37,9.26-19.53,9.26-40.65V304.62c11.37,6.72,44.14,15.07,54.82,8.49,2.42-1.41,6.21-.53,8,.37,3,1.57,4.94,4.71,8.39,5.63,2.29.6,4.76-.36,6.82,1.06,4.29,2.95,4.92,7.93,11,7.81,2.54-.06,22-6.87,25.4-11.52,2.08-2.85-1.45-11.61-3.57-14.48-8.06-11-21.49-8.43-26.4-11.72-4.49-3-17.37-4.28-23.86-5.6l-.16-1.15c5.16-1.78,6.52-1.74,6.49-8l-.12-1.08c19.25,2.86,37.69,4.28,38.89,4.28,24.63,1.79,4.77-7.54,4.77-7.54Z"/></g><path class="cls-4" d="M282.49,323.15a97.49,97.49,0,0,1-52-14.93,88,88,0,0,0,147.19-12.73l-.1,0c-1.74-.48-4.33-1.5-7.32-2.68-3.36-1.32-9.48-3.73-11.57-4a18.84,18.84,0,0,0-1.7,1.28,37.39,37.39,0,0,1-3.68,2.7,97.66,97.66,0,0,1-70.87,30.37Z"/><path class="cls-5" d="M555.86,229.61a7.1,7.1,0,0,0,.26-6.17c-1-1.94-3.85-2.52-5.68-3.2-2.29.49.25,2.5-1.72,3.37l-4.44-.57c-2.78-2.89,3.05-2.49,3.37-4,.48-2.24-1.63-4.3-.24-6.5a2.26,2.26,0,0,0-1.16-1.32c-2.28-.82-15.94-4.08-17.83-3.95l-.57.66c.55.76,2.85,2.86,2.95,3,.91,1.65-5.22,2.82-6.24,3-4.91,1-18,2.61-16.11,10.35.9,3.65,13.95,12.91,15.53,16.93.35.86,2,2.67.91,3.45-2.4,1.63-14.47-.55-15.12,1.32.67,2.53,7.86,4.44,10.19,5.34,2.76,1.05,5.31,1.84,8.21.41a9.46,9.46,0,0,0,4.77-9.45,25.17,25.17,0,0,0-3-7c-.95-1.26-8.88-7.55-6.66-8.39,2.68.85,6.33.09,8.22,2.63,5,1.42,10.34,2.28,15.45,3.21,3.28.6,7-.32,9-3.2Zm-109.3,61.63a3.59,3.59,0,0,0,.09-3,2.75,2.75,0,0,0-1.49-1c-2.3.5-4.6,1.56-7.23.91-2.39,0-6.25-2.14-7.32,1.06-.41,2.06-1.57,3.79-2.06,5.76a3.27,3.27,0,0,0,2,2.55c1.48.33,3.29,1.15,4.6.9,2.47-1.73,2.3-4.85,4.76-6.65,1.33.33,1.48,2.14,3,2a4.91,4.91,0,0,0,3.71-2.48ZM506.48,253c.42-2.33-2.2-2.7-3.78-3.21-3.8-1.24-7.58-2.43-11.42-3.52-2.81-.81-5.64-2.3-8.47-2.88-3.57-.74-6.39-.82-8.88-3.95l.57-.34c3.38,1.35,8.8,4.25,12.34,1.9,1.67-1.13,3.42-4.12,2.63-6.16-.6-1.54-2.49-1.74-3.79-2.31-5.53-2.41-11-5.38-16.37-8.08q-17.16-8.55-34.24-17.23c-5.19-2.63-11.07-5.65-16.77-6.9-4.64-1-9.92.28-14,2.71s-3.91,8.09-6.9,7.49a2.4,2.4,0,0,1-.74-1.73c-1.21-1.92-5,3.47-8.05,5-6.84,3.43-18.82,16.54-23.75,22.77-3.12,3.92-4.36,9-5.51,13.72l.66.9a6.15,6.15,0,0,0,4.19-.9c1.25.32,1.13,1.89,1.81,2.79,5,6.71,18.23,2.81,25.48,5.25.1.45,0,.85-.5.9-3.24.42-7.54-.26-10.87-.35-7.66-.2-15.33-.29-23-.71l-.91.49c-.71,1.57-4.92,10.6-5.59,11.33-1,1.13-2.54,2-3.63,3.22-3,3.32-5.13,7.34-8.85,9.93-1.12.77-3.37,1.2-3.87,2.46l.58.66c11.32.93,12.47-11,20.05-13.63a.73.73,0,0,1,.49.91,28.83,28.83,0,0,0-5.09,7c-4.43,9-7.59,6.24-11.84,10.37l.66,1c12.53-.36,14.82-7.41,18.9-8,3.49-.49,16.56,5.63,20.88,6.83a23.15,23.15,0,0,0,6.58,1.3c.77,0,1.79-.43,2.45-.39,1.68.05,2,3,5.68,1.31,2.21-1,2.35-4.19,2.63-6.33.34-2.57-2.86-4.77-2.63-6.17.32-2,2.8.67,3.36-1.06.35-1-.94-3.15-1.56-3.95-1.65-2.11-6.31-5.71-5.67-8.79a2,2,0,0,1,1.24-.9l15.2,1.89c.53.06,2.84,5.46,2.87,6,0,.82-2.17,6.38-2.62,7.48-1.28,3-3.49,5.21-3.46,8.71,0,4.28,2.93,8.27,5.1,11.82,2.39,3.95,6.22,2.07,9.7,3.21,1.42.47,3,1.45,4.36,2.08a89.18,89.18,0,0,0,14,5.08c2.57.62,6.54-.24,8.05-2.63,1.11-1.75-2.62-2.28-1-4.2.88-1,2-1,3.21-.82,2.63.29,16.16,1.94,17.58.41.48-.51-.24-1.19-.65-1.4-2.73-1.31-6.95-1.95-9.95-2.78-3.62-1-7.38-1.29-11-2.39-3.09-1-2.89,2.21-5.1,3.61C434,304,425.13,299.72,424,295.91s2.3-8.3,4.69-10.76c1.87-1.95,4.15-2.22,6-3.71,1.17-.94.34-2.79.33-4,1.82-2.28,8.69,1.36,11.5.58,3-.84.77-4.87,3.37-5.67,2.3.65,4.1,2.3,6.34,3.12,1.65.61,4.57.92,5.67,2.39.86,1.17,0,2.78-.25,4,.8,1.52,3.36,2,4.93,2.22,2.53.37,5.28.22,7.86.49s5.14,1,7.67,1.24l8.55.82c2.06,1-.5,2.75,1.4,6.74-2-.3-10.39-2.79-11.35,0,7.38,6.87,24.11,11.73,34,13.14a84.16,84.16,0,0,0,18.57.17,3.89,3.89,0,0,0,2.28-.7s3.25-2.7,5-2.42c2.38.4,5.16,5,10.11,6.86,3.38,1.9,6.58-1.4,9.21.08,3.22,1.82,5.22,11,10.34,9.54,1-.3,5.49-1.83,6.1-2.43,1.68-1.39-1.17-5-2.63-7.47-.53-.75-.89-1.31-1.51-1.47-6-1.52-3.14-8.31-11.66-9.93-3.83-.72-4.77-1-8.62-1.75-1-.2-3.39.32-3.51-1.17,0,0,.64-.72.64-.72l6.82-.16-.16-.9c-10.92-1.37-21.62-4.47-32.54-5.76a6,6,0,0,1-1.73-3.78c.33-2,3.47,1.71,5.1-2.22.95-2.28-1.33-4.23.49-5.34,4.8.61,9.59,1.21,14.38,1.89-27.1-6.47-54.44-11.89-81.53-18.32-5.87-1.39-11.88-2.31-17.67-4.1l.09-.66c23.91,3.35,47.58,9.12,71.58,11.67v-.57c-13.27-2.54-26.41-5.91-39.7-8.31C454.43,255,434.46,252,414.57,249c-13-2-26.18-4.41-39.27-5.54l-.42.9a10,10,0,0,0,3.29,2.23.6.6,0,0,1-.08.82c-1.67-.18-9.12.3-9.13-1.48,2.78-2.63,3.45-4,7.47-3.61,6.27.58,12.59,1.5,18.83,2.29,36,4.61,72.18,9.43,107.91,15.62,37.67,6.52,57.61,9.44,88.57,15.39-10.52-3.77-58-17.06-82.17-21.24-1.11-.2-2.55,0-3.09-1.31Zm-8.88,42.24a35.56,35.56,0,0,1,5.37.62c4,.83,8.06,1.15,12.16,2.3a2.69,2.69,0,0,1,1.45,1.83,1.37,1.37,0,0,1-1.16.53l-16-4.1Zm-88.43-6.58,4.43-10.43a1.76,1.76,0,0,1,1.65-1.4c1,.33,2.22.5,2.55,1.65L414,286.64c-2.64,3.46-.74,8.22.16,11.67a1.14,1.14,0,0,1-1,.83c-2.62-2.64-5-6.34-4-10.45Zm-33.77-7.3c-1,.75-2.79.33-4,.17-1.53-.85-1.87-2.62-2-4.31a1.39,1.39,0,0,1,.51-1.19,5.86,5.86,0,0,1,4.73,1.86C375.06,279,376,280.2,375.4,281.39Zm53.92-42.61,2.2,1s-32.53-4.6-48.24-6.9c-.66-.08-2.7-.28-2.35-1.44a2,2,0,0,1,1.39-.32Zm8.37-14.52-.33.34c-8.31-1.61-16.84-3.57-25-5.83-.63-.18-2.08-.3-1.9-1.23,3-.57,16.63,3,20,4.18,1.52.52,2.42.16,4,0a12.05,12.05,0,0,1,3.21,2.54ZM153.35,288.2a3.55,3.55,0,0,0,.08,3,4.89,4.89,0,0,0,3.7,2.47c1.48.17,1.64-1.65,3-2,2.46,1.81,2.3,4.93,4.77,6.65,1.31.25,3.12-.57,4.6-.9a3.27,3.27,0,0,0,2-2.55c-.5-2-1.65-3.69-2.07-5.75-1.06-3.21-4.92-1.07-7.32-1.07-2.62.65-4.92-.41-7.23-.91a2.72,2.72,0,0,0-1.46,1Zm111.76-1.9.58-.66c-.5-1.27-2.74-1.69-3.87-2.46-3.72-2.58-5.88-6.61-8.85-9.93-1.09-1.22-2.61-2.09-3.63-3.22-.67-.74-4.88-9.76-5.59-11.33l-.91-.5c-7.65.43-15.33.51-23,.72-3.32.09-7.63.77-10.87.35-.5,0-.61-.45-.5-.9,7.25-2.44,20.49,1.46,25.48-5.25.68-.91.57-2.48,1.81-2.79a6.23,6.23,0,0,0,4.19.9l.66-.9c-1.14-4.77-2.39-9.8-5.5-13.72-4.93-6.23-16.92-19.33-23.75-22.77-3.06-1.54-6.84-6.93-8.05-5a2.36,2.36,0,0,1-.74,1.73c-3,.6-2.91-5.07-6.9-7.49s-9.33-3.72-14-2.71c-5.7,1.24-11.59,4.28-16.77,6.9q-17.08,8.67-34.24,17.23c-5.41,2.7-10.84,5.67-16.38,8.08-1.29.56-3.18.77-3.78,2.31-.8,2,1,5,2.63,6.15,3.53,2.35,9-.54,12.33-1.89l.58.33c-2.49,3.14-5.31,3.21-8.88,3.95-2.83.59-5.66,2.08-8.48,2.89-3.83,1.09-7.61,2.29-11.41,3.52-1.59.51-4.21.88-3.78,3.21-.55,1.29-2,1.1-3.11,1.3-24.22,4.17-71.66,17.47-82.18,21.24,31-5.95,50.9-8.87,88.58-15.39,35.73-6.19,71.94-11,107.9-15.62,6.25-.8,12.56-1.72,18.83-2.29,4-.38,4.7,1,7.47,3.61,0,1.78-7.45,1.3-9.13,1.48a.61.61,0,0,1-.08-.82,9.64,9.64,0,0,0,3.29-2.23l-.41-.9C211.6,244.54,198.4,247,185.42,249c-19.9,3-39.86,6-59.67,9.58-13.29,2.4-26.42,5.77-39.7,8.31v.57c24-2.55,47.67-8.32,71.58-11.67l.09.66c-5.78,1.79-11.8,2.71-17.66,4.1C113,267,85.62,272.36,58.52,278.83c4.79-.68,9.59-1.27,14.38-1.89,1.83,1.11-.45,3.06.5,5.34,1.62,3.93,4.77.23,5.09,2.22a6,6,0,0,1-1.72,3.78c-10.92,1.29-21.63,4.39-32.55,5.76l-.15.9,6.81.16s.66.72.64.72c-.12,1.49-2.47,1-3.5,1.17-3.85.72-4.79,1-8.63,1.75-8.51,1.62-5.7,8.41-11.66,9.93-.61.16-1,.72-1.5,1.47-1.46,2.43-4.32,6.08-2.63,7.47.61.6,5,2.13,6.09,2.43,5.13,1.44,7.14-7.72,10.35-9.54,2.62-1.48,5.83,1.82,9.2-.08,5-1.9,7.73-6.46,10.12-6.86,1.74-.28,5,2.46,5,2.42a3.83,3.83,0,0,0,2.27.7,83.64,83.64,0,0,0,18.58-.17c9.91-1.41,26.64-6.26,34-13.14-1-2.79-9.31-.3-11.35,0,1.89-4-.66-5.75,1.39-6.74l8.56-.82c2.52-.24,5.1-1,7.67-1.24s5.33-.12,7.86-.49c1.56-.23,4.12-.7,4.93-2.22-.23-1.24-1.12-2.86-.25-4,1.09-1.46,4-1.77,5.67-2.39,2.24-.82,4-2.46,6.33-3.12,2.6.79.33,4.82,3.38,5.67,2.81.78,9.67-2.86,11.5-.58,0,1.23-.85,3.09.32,4,1.84,1.49,4.13,1.76,6,3.71,2.38,2.47,5.72,7.1,4.68,10.76s-10,8-13.31,5.92c-2.2-1.4-2-4.56-5.1-3.61-3.63,1.1-7.39,1.36-11,2.39-3,.83-7.22,1.46-9.94,2.78-.42.21-1.13.89-.66,1.4,1.41,1.53,15-.12,17.59-.41,1.23-.14,2.33-.2,3.2.82,1.65,1.92-2.09,2.45-1,4.2,1.51,2.38,5.49,3.24,8.05,2.63a88.19,88.19,0,0,0,14-5.08c1.4-.62,2.94-1.61,4.37-2.08,3.47-1.14,7.3.74,9.7-3.21,2.16-3.55,5.05-7.54,5.09-11.82,0-3.5-2.18-5.7-3.45-8.71-.46-1.1-2.67-6.66-2.63-7.48,0-.54,2.35-5.94,2.87-6L209,265.76a2,2,0,0,1,1.23.9c.64,3.08-4,6.68-5.67,8.79-.62.79-1.9,2.9-1.56,3.95.57,1.73,3-.9,3.36,1.06.24,1.41-3,3.6-2.63,6.17.27,2.14.43,5.29,2.63,6.33,3.67,1.74,4-1.26,5.68-1.31.65,0,1.69.37,2.45.39a23.93,23.93,0,0,0,6.59-1.3c4.32-1.19,17.38-7.31,20.87-6.83,4.09.57,6.37,7.62,18.9,8l.66-1c-4.26-4.12-7.4-1.4-11.84-10.37a28.83,28.83,0,0,0-5.09-7,.71.71,0,0,1,.49-.91c7.6,2.69,8.75,14.57,20.07,13.64Zm-162.72,9-1.8,1.19-16,4.1a1.4,1.4,0,0,1-1.16-.53,2.69,2.69,0,0,1,1.45-1.83C89,297.05,93,296.72,97,295.9A34.73,34.73,0,0,1,102.39,295.27Zm88.44-6.58c1,4.12-1.41,7.81-4,10.44a1.15,1.15,0,0,1-1-.83c.91-3.44,2.8-8.21.17-11.66l-3.79-8.14c.34-1.15,1.57-1.32,2.55-1.64a1.74,1.74,0,0,1,1.65,1.39Zm-1.32-71.16c.18.93-1.26,1.06-1.89,1.23-8.15,2.26-16.68,4.22-25,5.83l-.33-.34a12.5,12.5,0,0,1,3.2-2.54c1.53.16,2.43.51,3.95,0,3.43-1.15,17.08-4.75,20.06-4.18Zm27.2,15.37c-15.71,2.3-48.24,6.9-48.24,6.9l2.21-1,47-7.64a2.08,2.08,0,0,1,1.4.32C219.41,232.61,217.37,232.82,216.71,232.9Zm14,44.35c-.18,1.69-.51,3.47-2,4.31-1.27.16-3.05.58-4.06-.17-.59-1.18.34-2.37.85-3.47a5.85,5.85,0,0,1,4.74-1.86,1.39,1.39,0,0,1,.51,1.19ZM91.55,224.35C93.47,216.6,80.35,215,75.44,214c-1-.22-7.15-1.4-6.24-3.05.1-.19,2.41-2.27,3-3l-.57-.66c-1.89-.14-15.54,3.13-17.83,3.95a2.29,2.29,0,0,0-1.16,1.32c1.39,2.19-.72,4.26-.24,6.49.32,1.55,6.15,1.15,3.37,4l-4.44.58c-2-.87.57-2.87-1.73-3.37-1.83.68-4.73,1.25-5.68,3.2a7.08,7.08,0,0,0,.26,6.16c1.93,2.89,5.67,3.8,9,3.21,5.11-.92,10.45-1.79,15.45-3.21,1.89-2.54,5.53-1.77,8.22-2.62,2.23.84-5.71,7.12-6.66,8.38a25.11,25.11,0,0,0-3,7,9.48,9.48,0,0,0,4.77,9.45c2.9,1.43,5.46.64,8.21-.41,2.33-.9,9.52-2.82,10.19-5.34-.65-1.87-12.72.31-15.12-1.32-1.14-.77.56-2.59.9-3.46C77.6,237.26,90.65,228,91.55,224.35ZM31.09,298.62c-.41-1.3-8.52.15-9,1.71C21.47,302.64,28.21,305.66,31.09,298.62ZM13,312.73a9,9,0,0,0,1.54,1c1.72.92,3.35,2.56,4.5,1.08a47.8,47.8,0,0,0,4.36-8.3c.25-.84-.32-2-2.3-2.1h-.4C15.49,304.91,13.85,309.36,13,312.73Zm564.92-12.4c-.46-1.56-8.56-3-9-1.71C571.78,305.66,578.52,302.64,577.87,300.33Zm-1.23,6.17a48.84,48.84,0,0,0,4.37,8.3c1.14,1.48,2.77-.16,4.5-1.09a7.81,7.81,0,0,0,1.53-1c-.9-3.36-2.54-7.82-7.7-8.33h-.4C577,304.47,576.4,305.66,576.64,306.5Z"/><path class="cls-6" d="M470,364V311.21h-9.84V364c0,18.74-2.18,23.16-6.53,30.77-33.34,49.85-89.7,77.11-153.6,77.11s-120.26-27.26-153.59-77.11c-4.36-7.61-6.54-12-6.54-30.77V311.11H130V364c0,19.92,2.39,26.17,7.85,35.68l.36.58c36.42,54.47,96.9,81.48,161.77,81.48s125.36-27,161.78-81.48l.35-.58c5.45-9.5,7.84-15.75,7.84-35.68ZM225.9,215.27a243.38,243.38,0,0,1,12.53-24,88.15,88.15,0,0,0-17.57,24.32c.93.79,1.87,1.62,2.82,2.5C224.41,217.16,225.14,216.21,225.9,215.27ZM378.19,422.69l16.35-10.26-3.68-5.89L380.62,413l-14.68-46.15-3.53-5.65-16.36,10.26,3.69,5.88L360,370.89,374.66,417ZM370.13,224c-8.6-6-21.38-12.31-21.38-12.31a224.1,224.1,0,0,0-16.64,28.61c4.47,9.35,11.17,19.9,14.85,26.42,5-7.26,7-14.11,10.07-23.93,2.24-7.13,5.26-11,13.1-18.79Zm-75.67,16.66s-11-17.49-22.47-30.54c0,0-24.21,10.8-33.13,15.45l-.4,6.61c.13.44,3.34,5,4.68,10l2.72,8.65.61,1.87c.61,1.77,1.44,4,2.45,6.26a57.61,57.61,0,0,0,3.15,6.16,17.18,17.18,0,0,0,3.46,4.18l.11.1a10.76,10.76,0,0,0,4.22,2.24c4.19,1.17,8.89,2.4,14,3.64C273.87,275.3,289.15,250.93,294.46,240.63ZM300,166.15a87.54,87.54,0,0,0-28.36,4.7l16.74,13.22s20.45-1.94,38.81.42a44.32,44.32,0,0,0,4.65-10.29,85.54,85.54,0,0,1,42.74,45.51c1.51-1.45,3-2.84,4.55-4.11A88,88,0,0,0,300,166.15Zm113.61,232,4.92-4.88-42.34-42.69-.27-.27L371,355.18l42.35,42.69Zm3.46-46.67L433.84,362,431,366.63l-39.42-24.86,2.9-4.59,5.31,3.35,3.7-5.87L400,332.49a9.66,9.66,0,1,0-10.3,16.34l35.68,22.49A9.66,9.66,0,1,0,435.68,355l-20.77-13.1L409.78,350l5.88,3.71Zm-71,84.19-7.82-25.6,5.55-1.7a6.54,6.54,0,0,0,4.35-8.2l-6-19.69a6.52,6.52,0,0,0-6.26-4.66,6.64,6.64,0,0,0-1.93.29l-12.19,3.73,17.56,57.49.11.36Zm-9.86-32.25-5.79-19,5.19-1.58,5.79,19ZM318,441.24,312.8,381l-6.91.61,5.24,60.28Zm-26.14-5.9-12.28-1.46L282,414.19l9.21,1.1.82-6.9-9.21-1.1,2.33-19.69,12.28,1.45.82-6.89-12.65-1.51a6.55,6.55,0,0,0-7.29,5.75l-5.58,47a6.57,6.57,0,0,0,5.74,7.29l12.66,1.51ZM300,342.2a88,88,0,0,0,77.72-46.71l-.1,0c-1.73-.48-4.32-1.5-7.32-2.68l-.43-.16a85.68,85.68,0,0,1-32.76,33l-7-19.73-38.11,1-14.93,20.94s6.25,4.69,17.44,8.65a84.73,84.73,0,0,1-49.26-16.37,16.26,16.26,0,0,0,1.26-1.2s-10.33-14.87-16.65-26.21l-.16.06c-3,1.18-5.58,2.2-7.32,2.68l-.1,0A88,88,0,0,0,300,342.2Zm-40.89,87.92-11.69-4,17.46-50.62-6.55-2.26-19.74,57.18,18.26,6.3Zm-41.25-45.07a5.82,5.82,0,0,0,.82.05,5.16,5.16,0,0,0,4-2.12l12.35-14.32a6.56,6.56,0,0,0-.68-9.26l-9.65-8.32-39.51,45.84,9.66,8.32a6.54,6.54,0,0,0,9.26-.69L216,390.79c1.87-2.18,2.47-4,1.85-5.74Zm-5.42-.37-.17.19-13.11,15.22-4.5-3.88,13.28-15.41Zm4.17-5.23-4.11-3.55,12.95-15,4.11,3.55Zm-29.89-22.76,3.12,4.45-18,12.6a10.57,10.57,0,0,0-3,3.77l-.1.21,4.14,5.91.29-.57a8.59,8.59,0,0,1,2.64-3.64L192.14,368c2.37-1.65,3.38-3.25,3.21-5.1a5.21,5.21,0,0,0,1.92.4,5.76,5.76,0,0,0,3.3-1.2l15.49-10.85a6.56,6.56,0,0,0,1.61-9.14l-7.31-10.45-49.56,34.7,4,5.68Zm5.33-4,.21-.14L208.71,341l3.4,4.87-.2.14-16.46,11.52ZM460.13,209.47l9.85,4.58V118.29H130V214l9.85-4.61V128.16H460.13Z"/></svg>