<?xml version="1.0" encoding="utf-8"?>
<!-- Generator: Adobe Illustrator 28.3.0, SVG Export Plug-In . SVG Version: 6.00 Build 0)  -->
<svg version="1.1" id="Layer_1" xmlns="http://www.w3.org/2000/svg" xmlns:xlink="http://www.w3.org/1999/xlink" x="0px" y="0px"
	 viewBox="0 0 339.6 339.6" style="enable-background:new 0 0 339.6 339.6;" xml:space="preserve">
<style type="text/css">
	.st0{fill:#01781D;}
	.st1{fill:#00771C;}
	.st2{fill:#00781D;}
	.st3{fill:#097E27;}
	.st4{fill:#FEFEFE;}
	.st5{fill:#007417;}
	.st6{fill:#FE0101;}
	.st7{fill:#047B23;}
	.st8{fill:#FF0000;}
</style>
<path class="st0" d="M285.3,171.7c0.1-0.7,0.2-1.4,0.2-2.1c0.8,0.8,0.6,1.8,0.6,2.7c0,0.5-0.4,0.5-0.6,0.1
	C285.4,172.2,285.4,171.9,285.3,171.7z"/>
<path class="st1" d="M286.1,167c0.1-0.7,0.1-1.4,0.2-2.1c0.9,0.7,0.7,1.8,0.6,2.7c0,0.1-0.3,0.2-0.4,0.3
	C286.4,167.6,286.2,167.3,286.1,167z"/>
<path class="st2" d="M277.5,116.6c-1.2-2.2-0.5-4.5-0.6-6.8c-0.1-6.8-0.1-13.6,0-20.4c0-1.3-0.6-2.9,0.9-3.9
	C277.7,95.9,277.6,106.3,277.5,116.6z"/>
<g>
	<path class="st3" d="M42.6,45.2c-0.4-4.4,0-8.7,0.6-13c0.2-1.5,0.9-1.9,2.1-2.3c10.5-3.8,21-7.7,31.4-11.5
		c14.4-5.3,29-10.3,43.1-16.2c6.8-2.8,12.9-0.6,19.1,0.6c9.8,1.8,19.5,4.3,29.3,5.9c5.3,0.9,10.6-1.6,15.8-2.6
		c9.3-1.7,18.6-3.5,27.8-5.4c2.1-0.4,3.8,0.4,5.5,1c24.1,9,48.2,18.1,72.3,27.1c2.1,0.8,5.1,0.9,6.2,2.4c1.1,1.6,0.1,4.5,0.4,6.8
		c0.8,6.7,0.9,13.4,0.6,20.1c-0.6,12.1-0.2,24.3-0.7,36.4c-0.8,21.1-1.4,42.3-3.2,63.4c-2.7,31-12.5,59.7-29.7,85.9
		c-15.2,23.2-34.7,42.6-54,62.1c-11.4,11.5-23.6,22.3-36.5,32.1c-2.4,1.8-4.1,1.8-6.3-0.1c-9-7.4-17.9-14.7-26.4-22.6
		c-11.3-10.5-22-21.5-32.6-32.7c-15.5-16.5-30-33.8-40.4-54.1c-10.8-21-18-43-20.1-66.8c-1.7-19.6-2.6-39.1-3.3-58.7
		c-0.3-7.9,0-15.8-0.6-23.6c-0.3-5.1-0.7-10.3-0.5-15.4C43,57.6,43,51.4,42.6,45.2z"/>
	<path class="st4" d="M288.4,136c-1.3,22.4-3.3,44.3-11,65.5c-8.6,23.8-21.5,44.9-38.3,63.8c-20.6,23.2-42.1,45.4-66.4,64.8
		c-2.1,1.7-3.6,2.1-5.9,0.2c-30.2-24.9-58-52.2-81.2-83.7c-21.3-29-32-62-33.8-97.9c-1.7-34.5-3.3-69-3.3-103.6
		c-0.2-3.4-0.8-6.7,0.3-10c25-9.2,50-18.5,74.9-27.7c1.7-0.6,3.3-0.8,5.2-0.4c12.5,2.6,25.1,5.1,37.7,7.7c2.1,0.4,4.1,0.4,6.2,0
		c12.7-2.6,25.4-5.1,38-7.8c1.5-0.3,2.8-0.2,4.1,0.3c24.1,9,48.2,17.9,72.4,26.8c2.3,0.9,3.1,2,3.1,4.5c0.5,32.5-0.2,64.9-2,97.3
		C288.4,135.8,288.4,135.9,288.4,136z"/>
	<path class="st5" d="M48.8,35.1c-0.1,3.3-0.2,6.7-0.3,10C47.7,41.7,47.1,38.4,48.8,35.1z"/>
	<path class="st6" d="M209.7,47.4c0,0.6,0,1.3,0,1.9c0.2,1.4-0.2,2.6-1.3,3.6c-3,8-6,15.9-9,23.9c-0.5,1.4-1,3.1-2.9,3.3
		c-1.9,0.2-2.7-1.3-3.4-2.7c-1.1-2.2-2.7-2.7-5-2.7c-5.8,0.2-11.7,0.2-17.5,0c-2.2-0.1-3.2,0.7-4,2.7c-1.8,4.6-3.8,9.1-5.6,13.6
		c-0.6,1.4-1.1,2.7-2.8,2.8c-1.9,0.1-2.7-1.3-3.1-2.9c-2.4-9-7.9-14.1-17.4-14.7c-2.9-0.2-5.8-1.5-7.8-3.9c-0.8-0.9-0.8-1.9,0-2.8
		c4-5.9,5.4-12.4,5.2-19.4c-0.1-3.6,1.8-4.7,4.9-2.7c2,1.3,3.4,1.1,5.1-0.3c2.2-1.8,4.6-1.9,6.6,0.3c2.3,2.6,4.4,2.6,6.7,0.1
		c2-2.2,4-3.6,6.5-0.5c0.6,0.8,1.7,0.6,2.6,0.6C181.5,47.5,195.6,47.5,209.7,47.4z"/>
	<path class="st7" d="M211.4,17.3c-1,1.4-0.8,2.9-0.8,4.5c0,7.1,0,14.2,0,21.2c0,1.2,0.4,2.6-0.7,3.6c0-9.2-0.1-18.5-0.1-27.7
		C209.8,18.2,209.1,16.1,211.4,17.3z"/>
	<path class="st4" d="M138.1,49.8c3,2.3,5.7,2.4,8.2,0.2c1.5-1.4,2.6-0.9,4,0.2c4.3,3.5,5.2,3.5,9.4,0.2c1.3-1.1,2.4-1.8,4-0.4
		c1.1,1,2.7,0.7,4.1,0.7c11.5,0,23.1,0.1,34.6-0.1c3,0,3.2,0.8,2.2,3.3c-2.8,7.3-5.5,14.7-8.6,23.1c-1.7-6.6-6.4-5.3-10.5-5.3
		c-5.6,0-11.2,0.1-16.7-0.1c-2.3-0.1-3.4,0.8-4.2,2.9c-1.9,4.9-4.1,9.7-6.3,14.9c-1.5-1.8-2.2-3.9-3-5.9c-1.7-4.8-5.2-7.6-10.1-8.8
		c-3.3-0.8-6.5-1.6-9.8-2.5c-2.1-0.5-3-1.7-1.6-3.6C137.6,63.1,137.8,56.8,138.1,49.8z"/>
	<path class="st3" d="M276.8,42.4c-21.8-8.3-43.6-16.7-65.4-25.1c-1.7,0.9-1.1,2.5-1.1,3.8c-0.2,8.5,0.4,17-0.4,25.6
		c-0.1,0.3-0.1,0.5-0.2,0.8c-0.4,0.6-0.5,1.3-0.4,2c0.1,0.5,0.2,0.9,0.2,1.4c0.3,2.2,0.4,4.4,0.4,6.6c0,4,0,8,0,12h-0.1v123.1h0.1
		c0,27.3,0,54.6,0,81.9c0,1.1-0.2,2.4,0.8,3.3c15.1-10.9,26.7-24.9,36.1-40.6c14.7-24.7,24.5-52.1,28.5-80.5c2-14.4,2-28.8,2.2-43.3
		c0.2-22.2,1.9-44.4,1.9-66.6C279.6,44.3,279,43.3,276.8,42.4z"/>
	<path class="st3" d="M129.7,152.7c0-0.9,0-1.7,0-2.6c0-10.5-0.1-20.9-0.1-31.4c0-2.7,0-5.4,0-8.2v-3.2l0,0c0-1.7-0.1-3.5-0.2-5.2
		c-0.7-12.7-0.1-25.5-0.1-38.3c0-14.2,0-28.4,0-42.6c0-1.4,0.4-2.8-0.4-4.2c-0.3,0-0.5-0.1-0.8,0C106,25.7,84,34.2,61.8,42.7
		c-2.2,0.8-2.2,2-2.1,3.8c1.5,24.7,2.3,49.4,2,74.1c-0.4,29.1,4.5,57.1,14.9,84.2c8.9,23.1,21.1,44.1,38.8,61.6
		c4.2,4.2,8.6,8.4,14.2,11.9c0-1.9,0-3.1,0-4.4c0-23.2,0-46.4,0-69.5C129.6,187.2,129.7,170,129.7,152.7z"/>
</g>
<g>
	<path d="M144.7,109.3l3.9,1.2c-0.6,2.1-1.6,3.6-3,4.6s-3.2,1.5-5.3,1.5c-2.7,0-4.8-0.9-6.5-2.6s-2.6-4.1-2.6-7.1
		c0-3.2,0.9-5.6,2.6-7.4c1.7-1.8,4-2.6,6.8-2.6c2.4,0,4.4,0.7,6,2.1c0.9,0.8,1.6,2,2,3.5l-4,0.9c-0.2-1-0.7-1.8-1.5-2.3
		c-0.7-0.6-1.7-0.9-2.7-0.9c-1.5,0-2.7,0.5-3.6,1.5c-0.9,1-1.4,2.7-1.4,4.9c0,2.4,0.5,4.1,1.4,5.2c0.9,1,2.1,1.5,3.5,1.5
		c1.1,0,2-0.3,2.8-1C143.9,111.7,144.4,110.7,144.7,109.3z"/>
	<path d="M149.3,116.3v-3.7h3.8v3.7H149.3z"/>
	<path d="M159.3,97.2h7.4c1.7,0,2.9,0.1,3.8,0.4c1.2,0.3,2.2,0.9,3,1.8c0.8,0.8,1.5,1.9,1.9,3.1s0.7,2.7,0.7,4.5
		c0,1.6-0.2,2.9-0.6,4.1c-0.5,1.4-1.2,2.5-2.1,3.4c-0.7,0.7-1.6,1.2-2.8,1.5c-0.9,0.3-2.1,0.4-3.6,0.4h-7.6L159.3,97.2L159.3,97.2z
		 M163.3,100.4V113h3c1.1,0,1.9-0.1,2.4-0.2c0.7-0.2,1.2-0.4,1.6-0.8c0.4-0.4,0.8-1,1.1-1.8c0.3-0.9,0.4-2,0.4-3.5s-0.1-2.6-0.4-3.4
		c-0.3-0.8-0.7-1.4-1.1-1.8c-0.5-0.4-1.1-0.7-1.9-0.9c-0.6-0.1-1.7-0.2-3.3-0.2C165.1,100.4,163.3,100.4,163.3,100.4z"/>
	<path d="M176.6,116.3v-3.7h3.8v3.7H176.6z"/>
	<path d="M199.4,109.3l3.9,1.2c-0.6,2.1-1.6,3.6-3,4.6s-3.2,1.5-5.3,1.5c-2.7,0-4.8-0.9-6.5-2.6s-2.6-4.1-2.6-7.1
		c0-3.2,0.9-5.6,2.6-7.4c1.7-1.8,4-2.6,6.8-2.6c2.4,0,4.4,0.7,6,2.1c0.9,0.8,1.6,2,2,3.5l-4,0.9c-0.2-1-0.7-1.8-1.5-2.3
		c-0.7-0.6-1.7-0.9-2.7-0.9c-1.5,0-2.7,0.5-3.6,1.5c-0.9,1-1.4,2.7-1.4,4.9c0,2.4,0.5,4.1,1.4,5.2c0.9,1,2.1,1.5,3.5,1.5
		c1.1,0,2-0.3,2.8-1C198.5,111.7,199,110.7,199.4,109.3z"/>
	<path d="M203.9,116.3v-3.7h3.8v3.7H203.9z"/>
</g>
<g>
	<path d="M138.8,257.7v1.6h-6.1c0.1-0.6,0.3-1.2,0.6-1.8c0.3-0.6,1-1.3,2-2.2c0.8-0.7,1.3-1.2,1.4-1.5c0.2-0.4,0.4-0.7,0.4-1.1
		c0-0.4-0.1-0.7-0.3-0.9s-0.5-0.3-0.9-0.3s-0.7,0.1-0.9,0.3s-0.3,0.6-0.4,1.1l-1.7-0.2c0.1-1,0.4-1.7,1-2.1c0.5-0.4,1.2-0.6,2-0.6
		c0.9,0,1.6,0.2,2.1,0.7s0.8,1.1,0.8,1.8c0,0.4-0.1,0.8-0.2,1.2c-0.1,0.4-0.4,0.8-0.7,1.2c-0.2,0.3-0.6,0.7-1.1,1.2
		c-0.6,0.5-0.9,0.9-1,1c-0.1,0.2-0.3,0.3-0.4,0.5L138.8,257.7L138.8,257.7z"/>
	<path d="M149.7,259.3h-1.6v-1c-0.3,0.4-0.6,0.7-1,0.9c-0.4,0.2-0.7,0.3-1.1,0.3c-0.8,0-1.4-0.3-1.9-0.9s-0.8-1.5-0.8-2.6
		s0.3-2,0.8-2.6s1.2-0.9,2-0.9c0.7,0,1.4,0.3,1.9,0.9v-3.3h1.7L149.7,259.3L149.7,259.3z M145,255.8c0,0.7,0.1,1.2,0.3,1.5
		c0.3,0.5,0.7,0.7,1.2,0.7c0.4,0,0.7-0.2,1-0.5s0.4-0.9,0.4-1.6c0-0.8-0.1-1.3-0.4-1.7c-0.3-0.3-0.6-0.5-1-0.5s-0.8,0.2-1,0.5
		C145.2,254.7,145,255.2,145,255.8z"/>
	<path d="M155.1,257.2l1.7,0.3c-0.2,0.6-0.6,1.1-1.1,1.5c-0.5,0.3-1.1,0.5-1.8,0.5c-1.1,0-2-0.4-2.5-1.1c-0.4-0.6-0.7-1.4-0.7-2.3
		c0-1.1,0.3-2,0.9-2.6c0.6-0.6,1.3-0.9,2.2-0.9c1,0,1.8,0.3,2.3,1c0.6,0.7,0.8,1.7,0.8,3h-4.4c0,0.5,0.2,0.9,0.4,1.2
		c0.3,0.3,0.6,0.4,1,0.4c0.3,0,0.5-0.1,0.7-0.2C154.9,257.8,155,257.5,155.1,257.2z M155.2,255.4c0-0.5-0.1-0.9-0.4-1.2
		c-0.2-0.3-0.6-0.4-0.9-0.4c-0.4,0-0.7,0.1-0.9,0.4c-0.2,0.3-0.4,0.7-0.4,1.1L155.2,255.4L155.2,255.4z"/>
	<path d="M161.7,259.3v-9.2h6.2v1.6h-4.4v2.2h3.8v1.6h-3.8v3.9h-1.8V259.3z"/>
	<path d="M173.1,257.2l1.7,0.3c-0.2,0.6-0.6,1.1-1.1,1.5c-0.5,0.3-1.1,0.5-1.8,0.5c-1.1,0-2-0.4-2.5-1.1c-0.4-0.6-0.7-1.4-0.7-2.3
		c0-1.1,0.3-2,0.9-2.6c0.6-0.6,1.3-0.9,2.2-0.9c1,0,1.8,0.3,2.3,1c0.6,0.7,0.8,1.7,0.8,3h-4.4c0,0.5,0.2,0.9,0.4,1.2
		c0.3,0.3,0.6,0.4,1,0.4c0.3,0,0.5-0.1,0.7-0.2C172.9,257.8,173,257.5,173.1,257.2z M173.2,255.4c0-0.5-0.1-0.9-0.4-1.2
		c-0.2-0.3-0.6-0.4-0.9-0.4c-0.4,0-0.7,0.1-0.9,0.4c-0.2,0.3-0.4,0.7-0.4,1.1L173.2,255.4L173.2,255.4z"/>
	<path d="M176.1,259.3v-9.2h1.7v3.3c0.5-0.6,1.2-0.9,1.9-0.9c0.8,0,1.5,0.3,2,0.9c0.5,0.6,0.8,1.4,0.8,2.5s-0.3,2-0.8,2.6
		s-1.2,0.9-2,0.9c-0.4,0-0.7-0.1-1.1-0.3c-0.4-0.2-0.7-0.5-0.9-0.8v1L176.1,259.3L176.1,259.3z M177.9,255.8c0,0.7,0.1,1.2,0.3,1.5
		c0.3,0.5,0.7,0.7,1.2,0.7c0.4,0,0.7-0.2,1-0.5s0.4-0.9,0.4-1.6c0-0.8-0.1-1.3-0.4-1.7c-0.3-0.3-0.6-0.5-1-0.5s-0.8,0.2-1,0.5
		C178,254.6,177.9,255.1,177.9,255.8z"/>
	<path d="M185.5,259.3h-1.7v-6.7h1.6v1c0.3-0.4,0.5-0.7,0.7-0.9c0.2-0.1,0.5-0.2,0.8-0.2c0.4,0,0.8,0.1,1.1,0.3l-0.5,1.5
		c-0.3-0.2-0.6-0.3-0.8-0.3s-0.5,0.1-0.6,0.2c-0.2,0.1-0.3,0.4-0.4,0.7c-0.1,0.4-0.1,1.1-0.1,2.2v2.2L185.5,259.3L185.5,259.3z"/>
	<path d="M192.5,257.2l1.7,0.3c-0.2,0.6-0.6,1.1-1.1,1.5c-0.5,0.3-1.1,0.5-1.8,0.5c-1.1,0-2-0.4-2.5-1.1c-0.4-0.6-0.7-1.4-0.7-2.3
		c0-1.1,0.3-2,0.9-2.6c0.6-0.6,1.3-0.9,2.2-0.9c1,0,1.8,0.3,2.3,1c0.6,0.7,0.8,1.7,0.8,3H190c0,0.5,0.2,0.9,0.4,1.2
		c0.3,0.3,0.6,0.4,1,0.4c0.3,0,0.5-0.1,0.7-0.2C192.3,257.8,192.4,257.5,192.5,257.2z M192.6,255.4c0-0.5-0.1-0.9-0.4-1.2
		c-0.2-0.3-0.6-0.4-0.9-0.4c-0.4,0-0.7,0.1-0.9,0.4c-0.2,0.3-0.4,0.7-0.4,1.1L192.6,255.4L192.6,255.4z"/>
	<path d="M197.3,259.3h-1.7v-6.7h1.6v1c0.3-0.4,0.5-0.7,0.7-0.9c0.2-0.1,0.5-0.2,0.8-0.2c0.4,0,0.8,0.1,1.1,0.3l-0.5,1.5
		c-0.3-0.2-0.6-0.3-0.8-0.3s-0.5,0.1-0.6,0.2c-0.2,0.1-0.3,0.4-0.4,0.7c-0.1,0.4-0.1,1.1-0.1,2.2v2.2L197.3,259.3L197.3,259.3z"/>
	<path d="M200,255.9c0-0.6,0.1-1.2,0.4-1.7s0.7-1,1.2-1.3s1.1-0.4,1.8-0.4c1,0,1.8,0.3,2.5,1c0.6,0.7,1,1.5,1,2.5s-0.3,1.8-1,2.5
		c-0.6,0.7-1.5,1-2.4,1c-0.6,0-1.2-0.1-1.7-0.4s-1-0.7-1.3-1.2C200.2,257.3,200,256.6,200,255.9z M201.8,256c0,0.7,0.2,1.2,0.5,1.5
		c0.3,0.4,0.7,0.5,1.1,0.5c0.5,0,0.8-0.2,1.1-0.5s0.5-0.9,0.5-1.5c0-0.7-0.2-1.2-0.5-1.5s-0.7-0.5-1.1-0.5c-0.5,0-0.8,0.2-1.1,0.5
		S201.8,255.3,201.8,256z"/>
	<path d="M153.9,274.8h-1.6v-1c-0.3,0.4-0.6,0.7-1,0.9c-0.4,0.2-0.7,0.3-1.1,0.3c-0.8,0-1.4-0.3-1.9-0.9s-0.8-1.5-0.8-2.6
		s0.3-2,0.8-2.6s1.2-0.9,2-0.9c0.7,0,1.4,0.3,1.9,0.9v-3.3h1.7L153.9,274.8L153.9,274.8z M149.2,271.3c0,0.7,0.1,1.2,0.3,1.5
		c0.3,0.5,0.7,0.7,1.2,0.7c0.4,0,0.7-0.2,1-0.5s0.4-0.9,0.4-1.6c0-0.8-0.1-1.3-0.4-1.7c-0.3-0.3-0.6-0.5-1-0.5s-0.8,0.2-1,0.5
		C149.3,270.1,149.2,270.6,149.2,271.3z"/>
	<path d="M159.3,272.6l1.7,0.3c-0.2,0.6-0.6,1.1-1.1,1.5c-0.5,0.3-1.1,0.5-1.8,0.5c-1.1,0-2-0.4-2.5-1.1c-0.4-0.6-0.7-1.4-0.7-2.3
		c0-1.1,0.3-2,0.9-2.6c0.6-0.6,1.3-0.9,2.2-0.9c1,0,1.8,0.3,2.3,1c0.6,0.7,0.8,1.7,0.8,3h-4.4c0,0.5,0.2,0.9,0.4,1.2
		c0.3,0.3,0.6,0.4,1,0.4c0.3,0,0.5-0.1,0.7-0.2C159,273.2,159.2,273,159.3,272.6z M159.4,270.9c0-0.5-0.1-0.9-0.4-1.2
		c-0.2-0.3-0.6-0.4-0.9-0.4c-0.4,0-0.7,0.1-0.9,0.4s-0.4,0.7-0.4,1.1h2.6L159.4,270.9L159.4,270.9z"/>
	<path d="M169.9,274.8h-1.7v-6.7c-0.6,0.6-1.4,1.1-2.3,1.3v-1.6c0.5-0.2,0.9-0.4,1.5-0.9c0.5-0.4,0.9-0.9,1.1-1.5h1.4V274.8z"/>
	<path d="M172.4,272.6l1.7-0.2c0,0.3,0.1,0.6,0.3,0.8c0.2,0.2,0.4,0.3,0.7,0.3c0.4,0,0.7-0.2,0.9-0.5c0.3-0.3,0.4-1,0.5-2.1
		c-0.4,0.5-1,0.8-1.6,0.8c-0.7,0-1.3-0.3-1.9-0.8c-0.5-0.6-0.8-1.3-0.8-2.2c0-0.9,0.3-1.7,0.8-2.3c0.5-0.6,1.2-0.9,2.1-0.9
		c0.9,0,1.7,0.4,2.3,1.1s0.9,1.9,0.9,3.6s-0.3,2.9-0.9,3.6c-0.6,0.7-1.4,1.1-2.4,1.1c-0.7,0-1.3-0.2-1.7-0.6
		C172.8,274,172.5,273.4,172.4,272.6z M176.4,268.8c0-0.6-0.1-1-0.4-1.3c-0.3-0.3-0.6-0.5-0.9-0.5c-0.3,0-0.6,0.1-0.8,0.4
		s-0.3,0.7-0.3,1.3c0,0.6,0.1,1,0.3,1.3s0.5,0.4,0.9,0.4c0.3,0,0.6-0.1,0.8-0.4C176.2,269.7,176.4,269.3,176.4,268.8z"/>
	<path d="M179.4,272.6l1.7-0.2c0,0.3,0.1,0.6,0.3,0.8c0.2,0.2,0.4,0.3,0.7,0.3c0.4,0,0.7-0.2,0.9-0.5c0.3-0.3,0.4-1,0.5-2.1
		c-0.4,0.5-1,0.8-1.6,0.8c-0.7,0-1.3-0.3-1.9-0.8c-0.5-0.6-0.8-1.3-0.8-2.2c0-0.9,0.3-1.7,0.8-2.3c0.5-0.6,1.2-0.9,2.1-0.9
		c0.9,0,1.7,0.4,2.3,1.1s0.9,1.9,0.9,3.6s-0.3,2.9-0.9,3.6c-0.6,0.7-1.4,1.1-2.4,1.1c-0.7,0-1.3-0.2-1.7-0.6
		C179.8,274,179.5,273.4,179.4,272.6z M183.3,268.8c0-0.6-0.1-1-0.4-1.3c-0.3-0.3-0.6-0.5-0.9-0.5c-0.3,0-0.6,0.1-0.8,0.4
		s-0.3,0.7-0.3,1.3c0,0.6,0.1,1,0.3,1.3s0.5,0.4,0.9,0.4c0.3,0,0.6-0.1,0.8-0.4C183.2,269.7,183.3,269.3,183.3,268.8z"/>
	<path d="M186.3,272.6l1.7-0.2c0,0.3,0.1,0.6,0.3,0.8c0.2,0.2,0.4,0.3,0.7,0.3c0.4,0,0.7-0.2,0.9-0.5c0.3-0.3,0.4-1,0.5-2.1
		c-0.4,0.5-1,0.8-1.6,0.8c-0.7,0-1.3-0.3-1.9-0.8c-0.5-0.6-0.8-1.3-0.8-2.2c0-0.9,0.3-1.7,0.8-2.3c0.5-0.6,1.2-0.9,2.1-0.9
		c0.9,0,1.7,0.4,2.3,1.1s0.9,1.9,0.9,3.6s-0.3,2.9-0.9,3.6c-0.6,0.7-1.4,1.1-2.4,1.1c-0.7,0-1.3-0.2-1.7-0.6
		C186.7,274,186.4,273.4,186.3,272.6z M190.2,268.8c0-0.6-0.1-1-0.4-1.3c-0.3-0.3-0.6-0.5-0.9-0.5c-0.3,0-0.6,0.1-0.8,0.4
		s-0.3,0.7-0.3,1.3c0,0.6,0.1,1,0.3,1.3s0.5,0.4,0.9,0.4c0.3,0,0.6-0.1,0.8-0.4C190.1,269.7,190.2,269.3,190.2,268.8z"/>
</g>
<g>
	<path class="st8" d="M75.1,149.4V129h6.8c1.7,0,3,0.2,3.7,0.6c0.8,0.4,1.4,1,1.9,2c0.5,0.9,0.7,2,0.7,3.2c0,1.5-0.4,2.8-1.1,3.8
		s-1.8,1.6-3.2,1.9c0.7,0.5,1.3,1.1,1.7,1.7c0.5,0.6,1.1,1.7,1.8,3.3l2,4h-3.9l-2.3-4.4c-0.8-1.6-1.4-2.6-1.7-3
		c-0.3-0.4-0.6-0.7-1-0.8c-0.3-0.2-0.9-0.2-1.6-0.2h-0.7v8.5h-3.1C75.1,149.6,75.1,149.4,75.1,149.4z M78.3,137.6h2.4
		c1.6,0,2.5-0.1,2.9-0.3s0.7-0.5,0.9-0.9c0.2-0.4,0.3-0.9,0.3-1.5c0-0.7-0.1-1.2-0.4-1.7c-0.3-0.4-0.7-0.7-1.2-0.8
		c-0.3,0-1.1-0.1-2.4-0.1h-2.5C78.3,132.3,78.3,137.6,78.3,137.6z"/>
	<path class="st8" d="M91.3,149.4V129h11.9v3.5h-8.7v4.5h8.1v3.4h-8.1v5.6h9v3.4H91.3z"/>
	<path class="st8" d="M120.7,149.4h-3.5l-1.4-4.6h-6.4l-1.3,4.6h-3.4L111,129h3.4L120.7,149.4z M114.8,141.3l-2.2-7.6l-2.2,7.6
		H114.8z"/>
	<path class="st8" d="M122.6,149.4v-20.3h3.2V146h8.1v3.4H122.6z"/>
	<path class="st8" d="M145.6,149.4v-17h-4.8V129h12.8v3.5h-4.8v17h-3.2V149.4z"/>
	<path class="st8" d="M154.7,139.3c0-2.1,0.2-3.8,0.7-5.2c0.4-1,0.9-2,1.5-2.8s1.3-1.4,2.1-1.8c1-0.5,2.2-0.8,3.5-0.8
		c2.4,0,4.3,0.9,5.7,2.8c1.4,1.9,2.1,4.5,2.1,7.8s-0.7,5.9-2.1,7.7c-1.4,1.9-3.3,2.8-5.7,2.8s-4.3-0.9-5.7-2.8
		C155.4,145.1,154.7,142.6,154.7,139.3z M158,139.2c0,2.3,0.4,4.1,1.3,5.3c0.8,1.2,1.9,1.8,3.2,1.8s2.4-0.6,3.2-1.8s1.2-3,1.2-5.3
		s-0.4-4.1-1.2-5.2c-0.8-1.2-1.9-1.7-3.2-1.7s-2.4,0.6-3.2,1.7C158.4,135.1,158,136.8,158,139.2z"/>
	<path class="st8" d="M172.8,149.4V129h4.9l2.9,13.9l2.9-13.9h4.9v20.4h-3v-16.1l-3.2,16.1H179l-3.2-16.1v16.1H172.8z"/>
	<path class="st8" d="M206,149.4h-3.5l-1.4-4.6h-6.4l-1.3,4.6H190l6.3-20.4h3.4L206,149.4z M200,141.3l-2.2-7.6l-2.2,7.6H200z"/>
	<path class="st8" d="M209.9,149.4v-8.6L204,129h3.8l3.8,8.1l3.7-8.1h3.7l-5.9,11.9v8.6h-3.2L209.9,149.4L209.9,149.4z"/>
	<path class="st8" d="M233.1,149.4h-3.5l-1.4-4.6h-6.4l-1.3,4.6H217l6.3-20.4h3.4L233.1,149.4z M227.1,141.3l-2.2-7.6l-2.2,7.6
		H227.1z"/>
	<path class="st8" d="M234.8,149.4V129h5.2c2,0,3.3,0.1,3.9,0.3c0.9,0.3,1.7,1,2.3,2s0.9,2.4,0.9,4c0,1.3-0.2,2.3-0.5,3.2
		c-0.4,0.9-0.8,1.5-1.4,2c-0.6,0.5-1.1,0.8-1.7,1c-0.8,0.2-1.9,0.3-3.4,0.3H238v7.7h-3.2V149.4z M238.1,132.4v5.8h1.8
		c1.3,0,2.1-0.1,2.6-0.3c0.4-0.2,0.8-0.5,1-1s0.4-1,0.4-1.6c0-0.7-0.2-1.4-0.5-1.8c-0.3-0.5-0.8-0.8-1.3-0.9
		c-0.4-0.1-1.2-0.1-2.3-0.1L238.1,132.4L238.1,132.4z"/>
	<path class="st8" d="M249.1,139.3c0-2.1,0.2-3.8,0.7-5.2c0.4-1,0.9-2,1.5-2.8s1.3-1.4,2.1-1.8c1-0.5,2.2-0.8,3.5-0.8
		c2.4,0,4.3,0.9,5.7,2.8c1.4,1.9,2.1,4.5,2.1,7.8s-0.7,5.9-2.1,7.7c-1.4,1.9-3.3,2.8-5.7,2.8c-2.4,0-4.3-0.9-5.7-2.8
		C249.8,145.1,249.1,142.6,249.1,139.3z M252.5,139.2c0,2.3,0.4,4.1,1.3,5.3c0.8,1.2,1.9,1.8,3.2,1.8c1.3,0,2.4-0.6,3.2-1.8
		c0.8-1.2,1.2-3,1.2-5.3s-0.4-4.1-1.2-5.2c-0.8-1.2-1.9-1.7-3.2-1.7c-1.3,0-2.4,0.6-3.2,1.7C252.9,135.1,252.5,136.8,252.5,139.2z"
		/>
</g>
<g>
	<path d="M199.8,191.1c-2.7-3.2-4.4-7.4-8.6-9.2c-3.8-2.5-7.5-5.3-11.9-6.3c-14-3.4-26.4-0.3-36,10.6c-9.5,10.8-11.5,23.4-6.3,36.9
		c5.2,13.6,19.2,22.4,34.4,21.8c14.3-0.5,27.4-10.3,31.5-23.5c0.2-0.3,0.3-0.6,0.3-0.9C206.9,210.2,205.5,200.5,199.8,191.1z
		 M198.2,225.8c0.2-1.5,1.3-3.2,0.3-5.1c-0.3-0.2-0.6-0.4-1-0.4c-1.7,0.2-3.3,0.3-4.9-0.3c-1.1-0.2-2.3-0.3-3.5,0
		c-4.3,3-7.1,7.3-10.1,11.4c-1.4,0.1-2.8,0.1-4.2,0.2c1.1,1.6,2.7,0.6,4,0.8c0,0.1,0,0.1,0,0.2c0.5,2.5,1.5,4.7,3.6,6.3
		c0.4,0.3,0.9-0.1,1.2,0.3c-0.6,0.2-1.2,0.1-1.8,0c-0.6,0-1.3,0-1.9,0.3c-6.8,3.7-13.6,3-20.6,0.4c-7.8-2.3-13.9-6.6-17.1-14.3
		c-1.3-1.4-2.2-3.1-2.9-5c-2.2-5.2-1.5-10.7-1.4-16.1c0.1-4.2,1.2-4.6,4.9-2.5c0.1,0,0.2,0,0.3,0.1c-0.2,1.1-0.3,2.1,1.4,2.1
		c-0.1-0.9,0.1-1.8-0.4-2.6c0-0.1,0.1-0.1,0.1-0.2c1.2-2.8,3-5,5-7.2c1.7-1.9,3.7-3.5,4.6-6c0.2-1.2-0.2-2.3-0.3-3.5
		c-0.3-2.4,0.6-4,2.9-4.9c6.4-2.5,12.9-3.8,19.6-1.3c0.1,0,0.3,0.1,0.4,0.1c0.2,1.4-0.2,3,1.5,3.8c0.3-1.3-0.7-2.4-0.7-3.7
		c3.4,0,6.5,0.8,9.3,2.9c1,0.8,2.1,1.5,3.5,1.4c0.1,0,0.2-0.1,0.3-0.1c1.9,3.7,4.8,6.6,7.8,9.2c0,0.1-0.1,0.2-0.1,0.3
		c-0.1,0.6-0.2,1.2-0.2,1.8c0,0.3,0,0.7,0,1c-0.8,0.5-2,0.1-2.9,0.3c0.7,1.1,2,0.9,3.1,1.3c0,0.1,0,0.2,0,0.3
		c1.4,4.4,3.6,8.7,3.5,13.5c0.1,0.3,0.2,0.6,0.4,1c-0.2,0.9-0.4,1.7-0.6,2.6c-0.8,0.9-1.5,1.8-1,3.1c0.3-0.1,0.6-0.3,0.9-0.4v0.1
		c0,0.7,0.1,1.3,0.6,1.8C199.2,220.5,200.2,224.2,198.2,225.8z"/>
	<path d="M170.2,230.8c1.1,1.9,2.5,2.1,4.2,0.8C173.2,230.6,171.7,230.7,170.2,230.8z"/>
	<path d="M164.1,228.3c-1.7-4.2-3.7-8.4-4-13.1c-4.7,0.4-9.1-0.4-13.4-2.4c-1.2,4.2-2.5,8.3-3.7,12.5c1.5-0.4,1.9,0.8,2.7,1.7
		c2.9,3.2,5.9,6.3,9.7,8.4c2.9-1.8,5.7-3.6,8.6-5.4c1.3,0.3,2.7,0.6,4,0.9C167.3,229.1,165.3,229.3,164.1,228.3z"/>
	<path d="M186.6,212c-0.6,1.3-0.2,2.3,0.8,3.2c0.2,0,0.4,0,0.5,0.1C187.5,214.1,187.6,212.8,186.6,212z"/>
	<path d="M187.9,215.3c-0.2,0.1-0.4,0-0.5-0.1c-0.3,1.2,0.3,2.1,0.7,3.1C189.5,217.2,187.8,216.3,187.9,215.3z"/>
	<path d="M158.6,189.4c1.3,1.1,2.6,1.5,4,0.2c-1.2-1.1-2.6-0.9-4-0.9c-0.9-1-2.1-0.6-3.2-0.7C156,189.6,157.4,189.3,158.6,189.4z"/>
	<path d="M145.4,208.3c0.1-0.9,0.1-1.7-0.8-2.2C143.8,207.2,143.5,208.1,145.4,208.3z"/>
	<path d="M188.8,194.4c-2.9-2.9-5.8-5.7-9.3-7.9c-0.5-1.1-1-2.1-1.5-3.2c-1.1,0.5-0.7,2.1-1.5,2.8c-0.3,0.1-0.6,0.2-0.8,0.3
		c-3.4,1.5-6.8,3-10.1,4.6c1.1,3.9,2.1,7.8,3.2,11.8c0.1,1.2-0.2,2.3-1,3.2c0.9,0.3,1.3-0.3,1.8-0.9c5,1.1,10.4,0.2,14.9,3.2
		c-0.7-1.2-0.3-2.1,0.4-3.1c2.1-2.8,3.2-6,4.1-9.3c1,0,2-0.1,3-0.1C191.7,193.7,190,194.5,188.8,194.4z"/>
</g>
</svg>
