<?xml version="1.0" encoding="UTF-8"?>
<!DOCTYPE svg PUBLIC "-//W3C//DTD SVG 1.1//EN" "http://www.w3.org/Graphics/SVG/1.1/DTD/svg11.dtd">
<svg xmlns="http://www.w3.org/2000/svg" version="1.1" width="407px" height="500px" style="shape-rendering:geometricPrecision; text-rendering:geometricPrecision; image-rendering:optimizeQuality; fill-rule:evenodd; clip-rule:evenodd" xmlns:xlink="http://www.w3.org/1999/xlink">
<g><path style="opacity:1" fill="#6cc61a" d="M 201.5,-0.5 C 202.5,-0.5 203.5,-0.5 204.5,-0.5C 207.257,2.12191 209.924,4.95524 212.5,8C 212.167,8.33333 211.833,8.66667 211.5,9C 217,13.1667 221.833,18 226,23.5C 226.718,22.5494 227.551,22.3828 228.5,23C 232.356,26.8923 236.523,30.3923 241,33.5C 241.414,33.0426 241.914,32.7093 242.5,32.5C 248.199,35.6808 253.865,38.8475 259.5,42C 270.035,43.249 280.702,44.4156 291.5,45.5C 297.704,45.1625 303.871,44.4958 310,43.5C 316.273,44.0658 322.44,43.2325 328.5,41C 331.052,38.7431 334.385,36.9098 338.5,35.5C 339.739,35.9424 340.739,36.6091 341.5,37.5C 340.167,37.8333 340.167,38.1667 341.5,38.5C 343.771,40.2659 345.937,42.2659 348,44.5C 349.073,43.7203 350.24,43.887 351.5,45C 351.011,46.5523 351.678,47.719 353.5,48.5C 355.437,49.9314 357.27,51.5981 359,53.5C 360.073,52.7203 361.24,52.887 362.5,54C 362.133,55.7566 362.966,57.2566 365,58.5C 365.333,58.1667 365.667,57.8333 366,57.5C 368.669,61.5062 371.669,64.5062 375,66.5C 375.333,66.1667 375.667,65.8333 376,65.5C 377.5,67 379,68.5 380.5,70C 379.66,71.6665 380.16,71.8331 382,70.5C 383.046,72.0905 384.213,73.5905 385.5,75C 387.618,75.2602 389.284,76.2602 390.5,78C 389.346,78.9138 389.513,79.7471 391,80.5C 391.718,79.5494 392.551,79.3828 393.5,80C 394.053,81.8778 395.053,83.3778 396.5,84.5C 397.609,85.29 398.942,85.79 400.5,86C 400.011,87.5523 400.678,88.719 402.5,89.5C 402.5,90.1667 402.833,90.5 403.5,90.5C 403.833,91.8333 404.167,91.8333 404.5,90.5C 405.167,90.8333 405.833,91.1667 406.5,91.5C 406.5,93.1667 406.5,94.8333 406.5,96.5C 405.833,97.1667 405.167,97.8333 404.5,98.5C 404.167,97.1667 403.833,97.1667 403.5,98.5C 402.833,98.5 402.5,98.8333 402.5,99.5C 401.833,99.5 401.5,99.8333 401.5,100.5C 400.833,100.5 400.5,100.833 400.5,101.5C 399.833,101.5 399.5,101.833 399.5,102.5C 398.833,102.5 398.5,102.833 398.5,103.5C 397.833,103.5 397.5,103.833 397.5,104.5C 396.833,104.5 396.5,104.833 396.5,105.5C 395.026,106.436 394.026,107.77 393.5,109.5C 392.833,109.5 392.5,109.833 392.5,110.5C 391.167,110.833 391.167,111.167 392.5,111.5C 390.383,114.775 388.217,117.442 386,119.5C 385.086,121.664 383.919,123.664 382.5,125.5C 382.624,126.107 382.957,126.44 383.5,126.5C 381.552,132.398 379.052,138.064 376,143.5C 371.742,160.411 371.409,177.411 375,194.5C 378.637,203.561 381.47,212.561 383.5,221.5C 386.697,228.883 389.697,236.383 392.5,244C 391.318,247.401 391.651,250.568 393.5,253.5C 397.743,274.727 398.41,296.06 395.5,317.5C 394.539,319.265 394.205,321.265 394.5,323.5C 393.37,325.668 393.37,328.002 394.5,330.5C 393.565,333.471 392.732,336.471 392,339.5C 388.492,345.854 385.659,352.521 383.5,359.5C 382.167,360.167 382.167,360.833 383.5,361.5C 380.935,368.579 377.268,375.079 372.5,381C 373.774,381.977 373.774,382.811 372.5,383.5C 372.167,382.167 371.833,382.167 371.5,383.5C 370.167,383.833 370.167,384.167 371.5,384.5C 369.931,388.534 367.431,391.867 364,394.5C 364.238,397.062 363.238,399.396 361,401.5C 357.333,404.001 354.166,407.001 351.5,410.5C 350.833,410.5 350.5,410.833 350.5,411.5C 349.167,411.833 349.167,412.167 350.5,412.5C 349.106,414.708 347.106,416.208 344.5,417C 343.359,417.741 343.359,418.575 344.5,419.5C 341.48,422.189 338.48,424.856 335.5,427.5C 335.167,426.167 334.833,426.167 334.5,427.5C 333.833,427.5 333.5,427.833 333.5,428.5C 332.167,428.833 332.167,429.167 333.5,429.5C 331.35,433.413 328.016,435.58 323.5,436C 322.619,436.708 321.953,437.542 321.5,438.5C 320.833,438.5 320.5,438.833 320.5,439.5C 319.167,439.833 319.167,440.167 320.5,440.5C 317.664,443.743 314.331,445.576 310.5,446C 309.449,447.385 308.116,448.385 306.5,449C 307.833,449.667 307.833,450.333 306.5,451C 304.156,451.837 302.156,453.171 300.5,455C 299.551,455.617 298.718,455.451 298,454.5C 297.005,455.066 296.172,455.733 295.5,456.5C 291.466,458.069 288.133,460.569 285.5,464C 283.593,465.122 281.593,465.955 279.5,466.5C 279.167,465.167 278.833,465.167 278.5,466.5C 272.745,469.905 266.745,472.905 260.5,475.5C 259.833,474.167 259.167,474.167 258.5,475.5C 257.508,475.328 256.842,475.662 256.5,476.5C 249.431,479.704 242.431,483.204 235.5,487C 233.08,486.012 230.747,486.345 228.5,488C 224.833,490.333 221.167,492.667 217.5,495C 214.691,496.741 211.691,497.908 208.5,498.5C 208.167,497.167 207.833,497.167 207.5,498.5C 206.508,498.328 205.842,498.662 205.5,499.5C 203.833,499.5 202.167,499.5 200.5,499.5C 200.158,498.662 199.492,498.328 198.5,498.5C 197.687,497.347 196.687,497.347 195.5,498.5C 189.003,495.086 182.67,491.419 176.5,487.5C 174.52,488.383 172.52,488.217 170.5,487C 163.569,483.204 156.569,479.704 149.5,476.5C 148.134,474.649 146.467,474.316 144.5,475.5C 139.023,471.994 133.356,468.994 127.5,466.5C 127.167,465.167 126.833,465.167 126.5,466.5C 120.421,464.139 115.087,460.806 110.5,456.5C 110.158,455.662 109.492,455.328 108.5,455.5C 108.167,454.167 107.833,454.167 107.5,455.5C 104.996,453.856 102.329,452.356 99.5,451C 98.1667,450.333 98.1667,449.667 99.5,449C 97.8839,448.385 96.5505,447.385 95.5,446C 94.5509,445.383 93.7175,445.549 93,446.5C 90.7664,444.3 88.2664,442.467 85.5,441C 84.1667,440.333 84.1667,439.667 85.5,439C 82.535,436.42 79.2016,434.42 75.5,433C 74.1667,431.667 72.8333,430.333 71.5,429C 72.6537,428.086 72.487,427.253 71,426.5C 70.6667,426.833 70.3333,427.167 70,427.5C 67.9604,425.63 66.1271,423.63 64.5,421.5C 65.8333,421.167 65.8333,420.833 64.5,420.5C 64.5,419.833 64.1667,419.5 63.5,419.5C 63.1667,418.5 62.5,417.833 61.5,417.5C 61.1667,416.167 60.8333,416.167 60.5,417.5C 56.5225,411.677 51.3558,406.344 45,401.5C 43.3333,398.167 41.6667,394.833 40,391.5C 37.2152,389.289 34.8819,386.623 33,383.5C 32.8665,379.231 31.0332,375.564 27.5,372.5C 25.5474,368.931 23.8808,365.264 22.5,361.5C 23.8333,360.833 23.8333,360.167 22.5,359.5C 18.7231,351.841 15.7231,343.841 13.5,335.5C 14.8333,334.167 14.8333,332.833 13.5,331.5C 13.1667,327.5 12.8333,327.5 12.5,331.5C 11.2247,329.392 10.7247,327.058 11,324.5C 11.5556,326.595 12.0556,326.762 12.5,325C 8.22674,304.949 7.56008,284.783 10.5,264.5C 11.7432,261.367 12.2432,258.033 12,254.5C 11.6667,255.5 11.3333,256.5 11,257.5C 11.0089,253.446 11.6756,249.446 13,245.5C 15.9275,237.326 19.0942,229.326 22.5,221.5C 24.5298,212.561 27.3632,203.561 31,194.5C 34.3018,178.497 34.3018,162.497 31,146.5C 28.0681,139.87 25.2347,133.203 22.5,126.5C 23.8333,125.833 23.8333,125.167 22.5,124.5C 20.355,119.707 17.355,115.54 13.5,112C 13.8333,111.667 14.1667,111.333 14.5,111C 12.6997,109.188 11.0331,107.355 9.5,105.5C 5.47196,103.132 2.13863,100.132 -0.5,96.5C -0.5,94.8333 -0.5,93.1667 -0.5,91.5C 2.93269,91.2341 4.93269,89.4008 5.5,86C 7.05814,85.79 8.39147,85.29 9.5,84.5C 13.019,79.5002 17.6856,75.6669 23.5,73C 22.1667,72.3333 22.1667,71.6667 23.5,71C 27.1955,67.2011 31.1955,64.5344 35.5,63C 37.1719,59.6157 39.5052,57.6157 42.5,57C 41.5419,55.8525 41.8753,54.8525 43.5,54C 46.9044,53.9979 49.4044,52.1645 51,48.5C 51.9138,49.6537 52.7471,49.487 53.5,48C 52.5419,46.8525 52.8753,45.8525 54.5,45C 55.7604,43.887 56.927,43.7203 58,44.5C 62.0012,41.6496 65.1679,38.6496 67.5,35.5C 73.459,39.8086 80.1257,42.4753 87.5,43.5C 88.8333,43.1667 90.1667,42.8333 91.5,42.5C 99.0765,44.1567 106.743,45.1567 114.5,45.5C 125.298,44.4156 135.965,43.249 146.5,42C 151.478,38.8329 157.145,35.6662 163.5,32.5C 165.523,33.041 167.523,32.541 169.5,31C 171.694,27.8947 174.36,25.228 177.5,23C 178.449,22.3828 179.282,22.5494 180,23.5C 184.167,18 189,13.1667 194.5,9C 194.167,8.66667 193.833,8.33333 193.5,8C 196.427,5.24468 199.094,2.41135 201.5,-0.5 Z"/></g>
<g><path style="opacity:1" fill="#f9fbfa" d="M 201.5,23.5 C 202.552,23.3505 203.552,23.5172 204.5,24C 230.507,51.5627 262.507,64.2294 300.5,62C 313.063,60.4378 325.396,58.1045 337.5,55C 353.58,68.037 369.247,81.537 384.5,95.5C 363.931,120.048 355.097,148.381 358,180.5C 358.847,186.814 359.513,193.147 360,199.5C 365.673,216.843 371.34,234.176 377,251.5C 388.552,304.28 377.885,351.947 345,394.5C 324.279,418.098 300.112,437.265 272.5,452C 249.045,461.894 225.711,472.061 202.5,482.5C 178.631,472.487 154.964,461.987 131.5,451C 98.0384,433.206 70.5384,408.706 49,377.5C 30.4883,346.305 22.4883,312.638 25,276.5C 25.211,267.989 26.5444,259.655 29,251.5C 34.1318,235.104 39.4652,218.771 45,202.5C 52.9302,170.181 48.9302,139.515 33,110.5C 29.3582,105.358 25.5249,100.358 21.5,95.5C 37.1263,82.01 52.793,68.51 68.5,55C 113.321,69.9191 154.321,62.9191 191.5,34C 195.037,30.6309 198.371,27.1309 201.5,23.5 Z"/></g>
<g><path style="opacity:0.004" fill="#837e00" d="M 341.5,37.5 C 342.833,38.1667 342.833,38.1667 341.5,37.5 Z"/></g>
<g><path style="opacity:0.004" fill="#8aff00" d="M 86.5,42.5 C 86.8966,41.475 87.5632,41.3083 88.5,42C 87.9056,42.4643 87.2389,42.631 86.5,42.5 Z"/></g>
<g><path style="opacity:0.004" fill="#08c800" d="M 139.5,41.5 C 140.833,42.1667 140.833,42.1667 139.5,41.5 Z"/></g>
<g><path style="opacity:0.004" fill="#00c800" d="M 265.5,41.5 C 266.833,42.1667 266.833,42.1667 265.5,41.5 Z"/></g>
<g><path style="opacity:0.004" fill="#6fff00" d="M 317.5,42.5 C 317.897,41.475 318.563,41.3083 319.5,42C 318.906,42.4643 318.239,42.631 317.5,42.5 Z"/></g>
<g><path style="opacity:1" fill="#1a3daa" d="M 201.5,42.5 C 202.552,42.3505 203.552,42.5172 204.5,43C 233.009,68.1694 266.343,79.1694 304.5,76C 314.504,73.9941 324.504,72.3274 334.5,71C 344.333,79.5 354.167,88 364,96.5C 361.267,103.3 357.933,109.966 354,116.5C 344.511,138.923 341.178,162.257 344,186.5C 344.949,194.243 346.282,201.91 348,209.5C 353.458,225.12 358.791,240.786 364,256.5C 373.97,307.235 362.303,352.235 329,391.5C 306.398,415.112 280.231,433.612 250.5,447C 234.249,452.876 218.416,459.709 203,467.5C 179.651,457.528 156.484,447.028 133.5,436C 104.93,419.764 81.097,398.264 62,371.5C 39.9684,334.704 33.635,295.37 43,253.5C 47.6947,239.1 52.6947,224.766 58,210.5C 68.8601,170.166 63.3601,132.332 41.5,97C 51.4797,88.3568 61.4797,79.6901 71.5,71C 116.872,83.1869 158.538,75.5202 196.5,48C 198.373,46.2962 200.04,44.4628 201.5,42.5 Z"/></g>
<g><path style="opacity:0.004" fill="#7eff06" d="M 353.5,47.5 C 354.833,48.1667 354.833,48.1667 353.5,47.5 Z"/></g>
<g><path style="opacity:0.004" fill="#000000" d="M 9.5,84.5 C 8.83333,83.1667 8.83333,83.1667 9.5,84.5 Z"/></g>
<g><path style="opacity:0.004" fill="#00ff00" d="M 396.5,83.5 C 397.833,84.1667 397.833,84.1667 396.5,83.5 Z"/></g>
<g><path style="opacity:0.006" fill="#7cbd41" d="M 402.5,89.5 C 403.623,88.2426 404.289,88.5759 404.5,90.5C 404.167,90.5 403.833,90.5 403.5,90.5C 402.833,90.5 402.5,90.1667 402.5,89.5 Z"/></g>
<g><path style="opacity:1" fill="#707fc7" d="M 139.5,99.5 C 136.425,99.2512 135.758,100.585 137.5,103.5C 137.563,105.514 136.897,107.181 135.5,108.5C 134.183,111.23 134.183,114.063 135.5,117C 131.789,117.825 128.122,117.659 124.5,116.5C 125.724,113.869 126.391,111.035 126.5,108C 126.391,104.965 125.724,102.131 124.5,99.5C 129.652,98.1863 134.652,98.1863 139.5,99.5 Z"/></g>
<g><path style="opacity:0.004" fill="#6fcb53" d="M 403.5,98.5 C 403.833,98.5 404.167,98.5 404.5,98.5C 404.315,99.1701 403.981,99.1701 403.5,98.5 Z"/></g>
<g><path style="opacity:1" fill="#dce1f1" d="M 75.5,112.5 C 75.0435,109.594 74.0435,106.928 72.5,104.5C 72.7489,102.064 73.7489,100.064 75.5,98.5C 79.1438,103.777 82.3105,109.443 85,115.5C 86.0062,112.11 88.0062,111.11 91,112.5C 91.7203,114.112 91.5536,115.612 90.5,117C 85.5,117.667 80.5,117.667 75.5,117C 76.8009,115.384 76.8009,113.884 75.5,112.5 Z"/></g>
<g><path style="opacity:0.008" fill="#80d356" d="M 402.5,99.5 C 402.833,99.5 403.167,99.5 403.5,99.5C 403.315,100.17 402.981,100.17 402.5,99.5 Z"/></g>
<g><path style="opacity:1" fill="#f5f6fa" d="M 98.5,115.5 C 98.5,110.5 98.5,105.5 98.5,100.5C 100.265,99.5386 102.265,99.2053 104.5,99.5C 104.5,105.167 104.5,110.833 104.5,116.5C 102.265,116.795 100.265,116.461 98.5,115.5 Z"/></g>
<g><path style="opacity:1" fill="#f8f9fc" d="M 127.5,99.5 C 129.5,99.5 131.5,99.5 133.5,99.5C 133.5,105.167 133.5,110.833 133.5,116.5C 131.5,116.5 129.5,116.5 127.5,116.5C 127.5,110.833 127.5,105.167 127.5,99.5 Z"/></g>
<g><path style="opacity:1" fill="#eef0f8" d="M 139.5,99.5 C 143.225,99.7796 144.392,101.78 143,105.5C 142.075,106.047 141.242,106.713 140.5,107.5C 142.986,109.578 143.986,112.245 143.5,115.5C 144.552,115.351 145.552,115.517 146.5,116C 144.386,117.518 142.053,117.851 139.5,117C 138.107,114.142 136.773,111.308 135.5,108.5C 136.897,107.181 137.563,105.514 137.5,103.5C 135.758,100.585 136.425,99.2512 139.5,99.5 Z"/></g>
<g><path style="opacity:1" fill="#eaedf6" d="M 264.5,99.5 C 266.833,99.5 269.167,99.5 271.5,99.5C 271.916,105.952 271.416,112.285 270,118.5C 267.347,121.194 264.18,122.027 260.5,121C 258.845,119.556 258.178,117.722 258.5,115.5C 259.833,115.5 261.167,115.5 262.5,115.5C 262.579,116.93 262.246,118.264 261.5,119.5C 262.274,120.711 263.107,120.711 264,119.5C 264.5,112.842 264.666,106.175 264.5,99.5 Z"/></g>
<g><path style="opacity:0.004" fill="#59e35d" d="M 401.5,100.5 C 401.833,100.5 402.167,100.5 402.5,100.5C 402.315,101.17 401.981,101.17 401.5,100.5 Z"/></g>
<g><path style="opacity:0.004" fill="#76ae61" d="M 400.5,101.5 C 400.833,101.5 401.167,101.5 401.5,101.5C 401.315,102.17 400.981,102.17 400.5,101.5 Z"/></g>
<g><path style="opacity:0.004" fill="#768876" d="M 399.5,102.5 C 399.833,102.5 400.167,102.5 400.5,102.5C 400.315,103.17 399.981,103.17 399.5,102.5 Z"/></g>
<g><path style="opacity:0.004" fill="#7f8002" d="M 398.5,103.5 C 398.833,103.5 399.167,103.5 399.5,103.5C 399.315,104.17 398.981,104.17 398.5,103.5 Z"/></g>
<g><path style="opacity:0.004" fill="#00ff00" d="M 397.5,104.5 C 397.833,104.5 398.167,104.5 398.5,104.5C 398.315,105.17 397.981,105.17 397.5,104.5 Z"/></g>
<g><path style="opacity:0.004" fill="#00ff00" d="M 9.5,105.5 C 8.83333,106.167 8.83333,106.167 9.5,105.5 Z"/></g>
<g><path style="opacity:1" fill="#e8eaf5" d="M 232.5,99.5 C 234.167,99.5 235.833,99.5 237.5,99.5C 237.5,105.167 237.5,110.833 237.5,116.5C 235.833,116.5 234.167,116.5 232.5,116.5C 232.81,113.287 232.477,110.287 231.5,107.5C 231.44,106.957 231.107,106.624 230.5,106.5C 229.516,109.428 229.183,112.428 229.5,115.5C 229.833,116.167 230.167,116.833 230.5,117.5C 225.669,118.333 223.336,116.333 223.5,111.5C 223.681,105.971 226.347,103.971 231.5,105.5C 232.466,103.604 232.799,101.604 232.5,99.5 Z"/></g>
<g><path style="opacity:1" fill="#dfe2f2" d="M 275.5,105.5 C 276.833,105.5 278.167,105.5 279.5,105.5C 280.167,120.167 280.833,120.167 281.5,105.5C 287.153,105.944 288.986,108.944 287,114.5C 283.281,117.902 279.114,118.402 274.5,116C 271.64,112.151 271.973,108.651 275.5,105.5 Z"/></g>
<g><path style="opacity:1" fill="#d9ddef" d="M 300.5,108.5 C 298.994,110.975 297.661,113.642 296.5,116.5C 295.311,117.429 293.978,117.762 292.5,117.5C 291.531,113.392 289.864,109.559 287.5,106C 290.146,105.503 292.813,105.336 295.5,105.5C 296.484,113.468 297.484,113.468 298.5,105.5C 299.552,105.351 300.552,105.517 301.5,106C 300.748,106.671 300.414,107.504 300.5,108.5 Z"/></g>
<g><path style="opacity:1" fill="#f7f8fb" d="M 315.5,106.5 C 317.265,105.539 319.265,105.205 321.5,105.5C 321.5,108.833 321.5,112.167 321.5,115.5C 320.081,116.451 318.415,116.784 316.5,116.5C 316.813,112.958 316.479,109.625 315.5,106.5 Z"/></g>
<g><path style="opacity:1" fill="#f9fafd" d="M 323.5,106.5 C 324.919,105.549 326.585,105.216 328.5,105.5C 329.423,109.064 329.756,112.731 329.5,116.5C 327.833,116.5 326.167,116.5 324.5,116.5C 324.813,112.958 324.479,109.625 323.5,106.5 Z"/></g>
<g><path style="opacity:1" fill="#f3f4fa" d="M 337.5,107.5 C 337.5,110.5 337.5,113.5 337.5,116.5C 335.833,116.5 334.167,116.5 332.5,116.5C 332.964,112.498 332.298,108.831 330.5,105.5C 333.523,103.839 335.857,104.505 337.5,107.5 Z"/></g>
<g><path style="opacity:0.004" fill="#00ff00" d="M 396.5,105.5 C 396.833,105.5 397.167,105.5 397.5,105.5C 397.315,106.17 396.981,106.17 396.5,105.5 Z"/></g>
<g><path style="opacity:1" fill="#e1e4f2" d="M 239.5,112.5 C 239.5,111.5 239.5,110.5 239.5,109.5C 241.812,104.527 245.479,103.36 250.5,106C 252.607,107.264 253.607,109.097 253.5,111.5C 251.5,111.5 249.5,111.5 247.5,111.5C 247.785,109.712 247.452,108.045 246.5,106.5C 245.513,109.768 245.18,113.102 245.5,116.5C 242.122,117.109 240.122,115.776 239.5,112.5 Z"/></g>
<g><path style="opacity:1" fill="#adb8de" d="M 98.5,115.5 C 100.265,116.461 102.265,116.795 104.5,116.5C 104.5,110.833 104.5,105.167 104.5,99.5C 102.265,99.2053 100.265,99.5386 98.5,100.5C 97.7109,100.217 97.0442,99.7172 96.5,99C 101.833,98.3333 107.167,98.3333 112.5,99C 113.747,100.494 113.747,101.994 112.5,103.5C 110.929,100.907 108.596,99.9066 105.5,100.5C 105.192,102.924 105.526,105.257 106.5,107.5C 107.799,106.91 108.632,105.91 109,104.5C 109.667,106.833 109.667,109.167 109,111.5C 108.632,110.09 107.799,109.09 106.5,108.5C 105.526,110.743 105.192,113.076 105.5,115.5C 107.924,115.808 110.257,115.474 112.5,114.5C 113.549,112.888 115.049,111.888 117,111.5C 118.732,111.734 119.566,112.734 119.5,114.5C 119.566,116.266 118.732,117.266 117,117.5C 110.268,117.515 103.435,117.348 96.5,117C 97.0442,116.283 97.7109,115.783 98.5,115.5 Z"/></g>
<g><path style="opacity:1" fill="#2033a9" d="M 231.5,107.5 C 232.036,110.698 231.369,113.365 229.5,115.5C 229.183,112.428 229.516,109.428 230.5,106.5C 231.107,106.624 231.44,106.957 231.5,107.5 Z"/></g>
<g><path style="opacity:0.004" fill="#42bd41" d="M 393.5,109.5 C 394.833,110.167 394.833,110.167 393.5,109.5 Z"/></g>
<g><path style="opacity:1" fill="#d0d4ec" d="M 160.5,111.5 C 162.772,111.089 163.105,109.922 161.5,108C 161.759,106.739 162.426,105.739 163.5,105C 172.129,103.127 175.796,106.627 174.5,115.5C 174.833,115.333 175.167,115.167 175.5,115C 176.833,109.667 176.833,104.333 175.5,99C 177.81,98.5034 180.143,98.3367 182.5,98.5C 182.171,104.206 182.505,109.872 183.5,115.5C 184.487,112.232 184.82,108.898 184.5,105.5C 186.5,105.5 188.5,105.5 190.5,105.5C 190.281,106.675 190.614,107.675 191.5,108.5C 193.391,104.693 196.224,103.693 200,105.5C 200.758,103.231 200.591,101.064 199.5,99C 201.81,98.5034 204.143,98.3367 206.5,98.5C 206.5,104.5 206.5,110.5 206.5,116.5C 204.5,116.5 202.5,116.5 200.5,116.5C 200.905,112.952 200.405,109.619 199,106.5C 196.891,110.123 197.058,113.623 199.5,117C 198.667,117.167 197.833,117.333 197,117.5C 185.259,117.562 173.426,117.396 161.5,117C 160.5,115 159.5,115 158.5,117C 154.091,118.262 150.257,117.428 147,114.5C 145.281,107.22 148.115,104.053 155.5,105C 158.493,106.159 160.16,108.325 160.5,111.5 Z"/></g>
<g><path style="opacity:1" fill="#e5e8f4" d="M 185.5,98.5 C 189.138,97.7366 190.638,99.0699 190,102.5C 185.415,104.413 183.915,103.079 185.5,98.5 Z"/></g>
<g><path style="opacity:1" fill="#c8cee8" d="M 315.5,106.5 C 316.479,109.625 316.813,112.958 316.5,116.5C 316.167,116.5 315.833,116.5 315.5,116.5C 315.5,114.833 315.5,113.167 315.5,111.5C 312.833,111.5 310.167,111.5 307.5,111.5C 307.5,113.167 307.5,114.833 307.5,116.5C 309.722,116.822 311.556,116.155 313,114.5C 313.617,115.449 313.451,116.282 312.5,117C 304.394,119.71 300.394,116.877 300.5,108.5C 301.627,107.878 302.627,107.045 303.5,106C 304.833,105.333 306.167,105.333 307.5,106C 306.62,107.356 306.286,108.856 306.5,110.5C 307.5,110.5 308.5,110.5 309.5,110.5C 309.205,104.571 311.038,103.904 315,108.5C 315.464,107.906 315.631,107.239 315.5,106.5 Z"/></g>
<g><path style="opacity:0.008" fill="#61c638" d="M 392.5,110.5 C 392.833,110.5 393.167,110.5 393.5,110.5C 393.315,111.17 392.981,111.17 392.5,110.5 Z"/></g>
<g><path style="opacity:1" fill="#8893ce" d="M 72.5,104.5 C 74.0435,106.928 75.0435,109.594 75.5,112.5C 73.8333,112.5 72.1667,112.5 70.5,112.5C 70.2865,114.144 70.6198,115.644 71.5,117C 69.4213,117.808 67.4213,117.641 65.5,116.5C 66.5,115.833 67.5,115.167 68.5,114.5C 69.6645,110.987 70.9978,107.654 72.5,104.5 Z"/></g>
<g><path style="opacity:1" fill="#e0e4f2" d="M 209.5,105.5 C 210.833,105.5 212.167,105.5 213.5,105.5C 214.167,112.167 214.833,112.167 215.5,105.5C 217.467,105.261 219.301,105.594 221,106.5C 221.246,109.89 221.746,113.223 222.5,116.5C 217.773,118.458 215.439,116.791 215.5,111.5C 213.31,112.748 212.977,114.414 214.5,116.5C 209.383,118.552 207.55,116.885 209,111.5C 210.678,110.318 210.512,109.152 208.5,108C 208.743,107.098 209.077,106.265 209.5,105.5 Z"/></g>
<g><path style="opacity:1" fill="#2d3dad" d="M 160.5,111.5 C 159.056,114.89 156.39,116.223 152.5,115.5C 152.183,112.428 152.516,109.428 153.5,106.5C 154.452,108.045 154.785,109.712 154.5,111.5C 156.5,111.5 158.5,111.5 160.5,111.5 Z"/></g>
<g><path style="opacity:1" fill="#8292d0" d="M 239.5,109.5 C 239.5,110.5 239.5,111.5 239.5,112.5C 238.199,113.884 238.199,115.384 239.5,117C 236.518,117.498 233.518,117.665 230.5,117.5C 230.167,116.833 229.833,116.167 229.5,115.5C 231.369,113.365 232.036,110.698 231.5,107.5C 232.477,110.287 232.81,113.287 232.5,116.5C 234.167,116.5 235.833,116.5 237.5,116.5C 237.5,110.833 237.5,105.167 237.5,99.5C 235.833,99.5 234.167,99.5 232.5,99.5C 233.659,98.4865 235.659,98.1532 238.5,98.5C 238.185,102.371 238.518,106.038 239.5,109.5 Z"/></g>
<g><path style="opacity:1" fill="#7b8fcb" d="M 328.5,105.5 C 329.167,105.5 329.833,105.5 330.5,105.5C 332.298,108.831 332.964,112.498 332.5,116.5C 334.167,116.5 335.833,116.5 337.5,116.5C 337.5,113.5 337.5,110.5 337.5,107.5C 338.201,110.563 338.868,113.73 339.5,117C 336.854,117.497 334.187,117.664 331.5,117.5C 331.167,104.167 330.833,104.167 330.5,117.5C 324.732,117.834 319.732,117.5 315.5,116.5C 315.833,116.5 316.167,116.5 316.5,116.5C 318.415,116.784 320.081,116.451 321.5,115.5C 322.117,115.611 322.617,115.944 323,116.5C 323.498,113.183 323.665,109.85 323.5,106.5C 324.479,109.625 324.813,112.958 324.5,116.5C 326.167,116.5 327.833,116.5 329.5,116.5C 329.756,112.731 329.423,109.064 328.5,105.5 Z"/></g>
<g><path style="opacity:0.004" fill="#66c000" d="M 22.5,124.5 C 22.5,125.167 22.5,125.833 22.5,126.5C 21.1667,125.833 21.1667,125.167 22.5,124.5 Z"/></g>
<g><path style="opacity:0.004" fill="#7ec900" d="M 383.5,125.5 C 384.833,126.167 384.833,126.167 383.5,125.5 Z"/></g>
<g><path style="opacity:1" fill="#e8ebf5" d="M 152.5,135.5 C 159.069,136.26 160.069,139.093 155.5,144C 157.074,145.826 157.907,147.993 158,150.5C 158.75,151.126 159.584,151.626 160.5,152C 153.496,154.857 150.163,152.357 150.5,144.5C 151.679,141.629 151.679,138.796 150.5,136C 151.094,135.536 151.761,135.369 152.5,135.5 Z"/></g>
<g><path style="opacity:1" fill="#dde1f1" d="M 161.5,134.5 C 163.199,134.34 164.866,134.506 166.5,135C 167.833,136.333 167.833,137.667 166.5,139C 164.866,139.494 163.199,139.66 161.5,139.5C 161.5,137.833 161.5,136.167 161.5,134.5 Z"/></g>
<g><path style="opacity:1" fill="#eff1f8" d="M 211.5,141.5 C 211.5,145.167 211.5,148.833 211.5,152.5C 209.833,152.5 208.167,152.5 206.5,152.5C 206.82,149.102 206.487,145.768 205.5,142.5C 204.893,142.624 204.56,142.957 204.5,143.5C 201.877,145.265 198.877,145.932 195.5,145.5C 195.5,147.833 195.5,150.167 195.5,152.5C 193.167,152.5 190.833,152.5 188.5,152.5C 188.5,146.833 188.5,141.167 188.5,135.5C 190.833,135.5 193.167,135.5 195.5,135.5C 195.5,138.167 195.5,140.833 195.5,143.5C 196.5,143.5 197.5,143.5 198.5,143.5C 198.768,140.881 198.435,138.381 197.5,136C 202.553,134.676 205.22,136.51 205.5,141.5C 207.5,141.5 209.5,141.5 211.5,141.5 Z"/></g>
<g><path style="opacity:1" fill="#6e7ac4" d="M 152.5,135.5 C 151.761,135.369 151.094,135.536 150.5,136C 151.679,138.796 151.679,141.629 150.5,144.5C 148.144,146.683 147.811,149.35 149.5,152.5C 146.167,153.833 142.833,153.833 139.5,152.5C 141.139,146.659 140.806,140.993 138.5,135.5C 143.318,134.188 147.985,134.188 152.5,135.5 Z"/></g>
<g><path style="opacity:1" fill="#fcfcfd" d="M 141.5,135.5 C 143.5,135.5 145.5,135.5 147.5,135.5C 147.5,141.167 147.5,146.833 147.5,152.5C 145.5,152.5 143.5,152.5 141.5,152.5C 141.5,146.833 141.5,141.167 141.5,135.5 Z"/></g>
<g><path style="opacity:1" fill="#f4f5fa" d="M 232.5,151.5 C 232.5,147.167 232.5,142.833 232.5,138.5C 233.919,137.549 235.585,137.216 237.5,137.5C 237.219,142.565 237.552,147.565 238.5,152.5C 236.088,153.949 234.088,153.616 232.5,151.5 Z"/></g>
<g><path style="opacity:1" fill="#e3e6f3" d="M 161.5,141.5 C 164.079,141.083 166.246,141.75 168,143.5C 169.897,141.984 172.064,141.317 174.5,141.5C 175.167,156.167 175.833,156.167 176.5,141.5C 181.85,142.184 183.684,145.184 182,150.5C 177.263,154.432 172.596,154.432 168,150.5C 166.246,152.25 164.079,152.917 161.5,152.5C 161.5,148.833 161.5,145.167 161.5,141.5 Z"/></g>
<g><path style="opacity:1" fill="#cfd3ea" d="M 244.5,140.5 C 253.868,140.006 256.535,143.839 252.5,152C 244.345,155.471 240.178,152.971 240,144.5C 241.397,142.93 242.897,141.596 244.5,140.5 Z"/></g>
<g><path style="opacity:1" fill="#1d2fab" d="M 246.5,142.5 C 247.777,143.694 248.444,145.36 248.5,147.5C 248.167,149.167 247.833,150.833 247.5,152.5C 246.513,149.232 246.18,145.898 246.5,142.5 Z"/></g>
<g><path style="opacity:1" fill="#c4c8e6" d="M 232.5,138.5 C 232.5,142.833 232.5,147.167 232.5,151.5C 231.566,150.432 231.232,149.099 231.5,147.5C 228.833,147.5 226.167,147.5 223.5,147.5C 223.549,152.799 225.715,153.799 230,150.5C 230.667,151.167 230.667,151.833 230,152.5C 226.927,153.617 223.76,153.784 220.5,153C 217.88,150.873 215.88,148.373 214.5,145.5C 214.5,144.167 214.5,142.833 214.5,141.5C 215.5,141.5 216.5,141.5 217.5,141.5C 218.789,142.501 220.122,142.334 221.5,141C 225.582,139.707 228.749,140.874 231,144.5C 231.492,143.451 231.326,142.451 230.5,141.5C 230.942,140.261 231.609,139.261 232.5,138.5 Z"/></g>
<g><path style="opacity:1" fill="#808ece" d="M 217.5,141.5 C 216.5,141.5 215.5,141.5 214.5,141.5C 214.5,142.833 214.5,144.167 214.5,145.5C 213.778,145.082 213.278,144.416 213,143.5C 212.502,146.817 212.335,150.15 212.5,153.5C 209.813,153.664 207.146,153.497 204.5,153C 205.818,149.731 205.818,146.565 204.5,143.5C 204.56,142.957 204.893,142.624 205.5,142.5C 206.487,145.768 206.82,149.102 206.5,152.5C 208.167,152.5 209.833,152.5 211.5,152.5C 211.5,148.833 211.5,145.167 211.5,141.5C 213.653,140.427 215.653,140.427 217.5,141.5 Z"/></g>
<g><path style="opacity:0.004" fill="#58ba00" d="M 373.5,164.5 C 374.643,167.976 374.81,171.642 374,175.5C 373.501,171.848 373.335,168.182 373.5,164.5 Z"/></g>
<g><path style="opacity:0.004" fill="#6dd600" d="M 31.5,163.5 C 32.647,167.646 32.8136,171.98 32,176.5C 31.501,172.179 31.3343,167.846 31.5,163.5 Z"/></g>
<g><path style="opacity:1" fill="#f7f8fc" d="M 195.5,207.5 C 197.447,206.527 199.447,205.527 201.5,204.5C 202.706,202.484 202.706,200.484 201.5,198.5C 200.548,200.045 200.215,201.712 200.5,203.5C 199.5,203.5 198.5,203.5 197.5,203.5C 197.5,202.167 197.5,200.833 197.5,199.5C 196.209,199.263 195.209,199.596 194.5,200.5C 190.268,210.114 182.934,213.614 172.5,211C 171.09,210.632 170.09,209.799 169.5,208.5C 174.467,207.671 179.467,207.171 184.5,207C 188.017,205.516 189.851,203.016 190,199.5C 181.995,207.793 174.328,207.46 167,198.5C 166.333,195.5 166.333,192.5 167,189.5C 169.382,192.427 171.882,195.261 174.5,198C 176.365,199.301 178.365,199.635 180.5,199C 183.412,197.627 186.246,196.127 189,194.5C 192.59,189.916 195.757,185.083 198.5,180C 210.52,174.511 217.853,178.345 220.5,191.5C 219.094,194.337 218.261,197.337 218,200.5C 216.795,201.071 215.628,201.738 214.5,202.5C 217.571,203.785 220.404,205.451 223,207.5C 224.806,211.918 226.806,216.251 229,220.5C 232.593,224.255 234.093,223.088 233.5,217C 233.145,212.11 232.478,207.276 231.5,202.5C 233.912,202.669 236.079,202.003 238,200.5C 239.944,201.439 241.611,202.773 243,204.5C 241.4,213.018 240.4,221.685 240,230.5C 239.333,232.5 238.667,234.5 238,236.5C 236.274,237.576 234.441,237.743 232.5,237C 230.167,234.667 227.833,232.333 225.5,230C 224.365,229.251 223.365,229.417 222.5,230.5C 221.902,231.795 221.402,233.128 221,234.5C 221.161,245.683 219.994,256.683 217.5,267.5C 229.747,269.901 239.914,275.901 248,285.5C 250,288.833 250,292.167 248,295.5C 241.745,301.759 234.912,307.259 227.5,312C 222.195,316.299 218.028,321.466 215,327.5C 214.833,329 214.667,330.5 214.5,332C 215.276,336.156 215.942,340.323 216.5,344.5C 212.853,344.378 210.019,342.712 208,339.5C 206.418,334.02 204.418,328.687 202,323.5C 201.333,322.167 201.333,320.833 202,319.5C 205.192,318.121 208.359,316.621 211.5,315C 217.593,306.818 223.926,298.818 230.5,291C 222.913,287.416 214.913,285.749 206.5,286C 195,296.833 183.5,307.667 172,318.5C 165.531,325.765 160.865,334.099 158,343.5C 157.471,348.854 157.638,354.187 158.5,359.5C 155.675,359.919 153.509,358.919 152,356.5C 149.224,349.241 147.224,341.908 146,334.5C 148.835,333.084 151.502,331.417 154,329.5C 157.743,321.014 161.743,312.681 166,304.5C 169.667,301.5 173.333,298.5 177,295.5C 180.49,287.684 185.157,280.684 191,274.5C 192.19,270.619 192.857,266.619 193,262.5C 194.141,260.391 195.641,258.558 197.5,257C 195.323,256.655 193.323,257.155 191.5,258.5C 190.062,258.281 188.729,257.781 187.5,257C 186.126,254.417 184.626,251.917 183,249.5C 176.374,244.543 170.04,239.209 164,233.5C 163.333,231.833 163.333,230.167 164,228.5C 172.189,220.491 181.689,214.658 192.5,211C 193.71,209.961 194.71,208.794 195.5,207.5 Z"/></g>
<g><path style="opacity:1" fill="#a4a7da" d="M 195.5,207.5 C 195.802,204.941 195.468,202.607 194.5,200.5C 195.209,199.596 196.209,199.263 197.5,199.5C 197.5,200.833 197.5,202.167 197.5,203.5C 198.5,203.5 199.5,203.5 200.5,203.5C 200.215,201.712 200.548,200.045 201.5,198.5C 202.706,200.484 202.706,202.484 201.5,204.5C 199.447,205.527 197.447,206.527 195.5,207.5 Z"/></g>
<g><path style="opacity:0.004" fill="#66d900" d="M 22.5,221.5 C 21.4265,220.749 21.2599,219.749 22,218.5C 22.4828,219.448 22.6495,220.448 22.5,221.5 Z"/></g>
<g><path style="opacity:0.004" fill="#75a800" d="M 383.5,221.5 C 383.351,220.448 383.517,219.448 384,218.5C 384.74,219.749 384.573,220.749 383.5,221.5 Z"/></g>
<g><path style="opacity:1" fill="#213fab" d="M 186.5,223.5 C 188.467,223.261 190.301,223.594 192,224.5C 194.701,231.576 197.701,238.576 201,245.5C 201.777,248.429 201.61,251.263 200.5,254C 196.656,250.86 192.322,247.86 187.5,245C 183.65,241.451 180.15,237.617 177,233.5C 176.506,231.866 176.34,230.199 176.5,228.5C 180.302,227.68 183.636,226.014 186.5,223.5 Z"/></g>
<g><path style="opacity:0.004" fill="#61bd1c" d="M 394.5,253.5 C 394.167,253.5 393.833,253.5 393.5,253.5C 393.833,248.167 394.167,248.167 394.5,253.5 Z"/></g>
<g><path style="opacity:0.004" fill="#5dbd00" d="M 394.5,253.5 C 395.573,254.251 395.74,255.251 395,256.5C 394.517,255.552 394.351,254.552 394.5,253.5 Z"/></g>
<g><path style="opacity:0.004" fill="#1a9614" d="M 10.5,264.5 C 9.47498,264.103 9.30831,263.437 10,262.5C 10.4643,263.094 10.631,263.761 10.5,264.5 Z"/></g>
<g><path style="opacity:0.004" fill="#003d00" d="M 9.5,317.5 C 10.8333,318.167 10.8333,318.167 9.5,317.5 Z"/></g>
<g><path style="opacity:0.004" fill="#fb690a" d="M 395.5,317.5 C 396.525,317.897 396.692,318.563 396,319.5C 395.536,318.906 395.369,318.239 395.5,317.5 Z"/></g>
<g><path style="opacity:1" fill="#e0e1e3" d="M 246.5,334.5 C 245.5,334.5 244.5,334.5 243.5,334.5C 243.5,337.167 243.5,339.833 243.5,342.5C 242.101,343.89 240.434,344.89 238.5,345.5C 238.03,344.307 237.03,343.64 235.5,343.5C 233.886,343.803 232.552,344.47 231.5,345.5C 224.806,342.78 222.306,337.78 224,330.5C 224.383,329.944 224.883,329.611 225.5,329.5C 228.712,329.288 230.712,327.621 231.5,324.5C 233.379,323.659 235.379,323.325 237.5,323.5C 237.33,324.822 237.663,325.989 238.5,327C 243.571,327.069 246.237,329.569 246.5,334.5 Z"/></g>
<g><path style="opacity:0.004" fill="#54b01e" d="M 394.5,323.5 C 395.598,324.601 395.765,325.934 395,327.5C 394.51,326.207 394.343,324.873 394.5,323.5 Z"/></g>
<g><path style="opacity:1" fill="#26272c" d="M 231.5,324.5 C 230.712,327.621 228.712,329.288 225.5,329.5C 226.638,326.914 228.638,325.247 231.5,324.5 Z"/></g>
<g><path style="opacity:1" fill="#232323" d="M 233.5,330.5 C 235.757,330.962 237.757,331.962 239.5,333.5C 238.691,335.071 238.357,336.738 238.5,338.5C 236.167,338.5 233.833,338.5 231.5,338.5C 231.579,337.07 231.246,335.736 230.5,334.5C 231.524,333.148 232.524,331.815 233.5,330.5 Z"/></g>
<g><path style="opacity:0.004" fill="#83bb34" d="M 12.5,331.5 C 12.8333,331.5 13.1667,331.5 13.5,331.5C 13.5,332.833 13.5,334.167 13.5,335.5C 12.5655,334.432 12.2322,333.099 12.5,331.5 Z"/></g>
<g><path style="opacity:1" fill="#333540" d="M 246.5,334.5 C 246.585,337.649 245.585,340.316 243.5,342.5C 243.5,339.833 243.5,337.167 243.5,334.5C 244.5,334.5 245.5,334.5 246.5,334.5 Z"/></g>
<g><path style="opacity:1" fill="#303037" d="M 238.5,345.5 C 236.167,346.833 233.833,346.833 231.5,345.5C 232.552,344.47 233.886,343.803 235.5,343.5C 237.03,343.64 238.03,344.307 238.5,345.5 Z"/></g>
<g><path style="opacity:0.004" fill="#727300" d="M 21.5,359.5 C 20.8333,358.167 20.8333,358.167 21.5,359.5 Z"/></g>
<g><path style="opacity:0.004" fill="#548f00" d="M 21.5,359.5 C 21.8333,359.5 22.1667,359.5 22.5,359.5C 22.5,360.167 22.5,360.833 22.5,361.5C 21.6618,361.158 21.3284,360.492 21.5,359.5 Z"/></g>
<g><path style="opacity:0.004" fill="#5fc000" d="M 383.5,359.5 C 384.833,360.167 384.833,360.833 383.5,361.5C 383.5,360.833 383.5,360.167 383.5,359.5 Z"/></g>
<g><path style="opacity:1" fill="#e7ebf6" d="M 175.5,380.5 C 177.948,379.527 180.615,379.194 183.5,379.5C 182.908,385.631 183.575,391.464 185.5,397C 182.854,397.497 180.187,397.664 177.5,397.5C 177.666,392.156 177.499,386.823 177,381.5C 176.617,380.944 176.117,380.611 175.5,380.5 Z"/></g>
<g><path style="opacity:1" fill="#e0e3f2" d="M 188.5,378.5 C 192.803,377.796 196.303,379.13 199,382.5C 204.814,376.795 209.814,377.462 214,384.5C 217.068,380.494 220.902,378.827 225.5,379.5C 222.691,380.232 220.691,381.899 219.5,384.5C 228.409,386.799 229.742,391.299 223.5,398C 218.186,399.26 214.353,397.426 212,392.5C 206.611,398.22 204.777,397.886 206.5,391.5C 203.843,391.838 201.51,391.171 199.5,389.5C 197.137,394.838 193.137,397.338 187.5,397C 188.891,395.98 190.391,395.147 192,394.5C 192.483,393.552 192.649,392.552 192.5,391.5C 185.686,391.51 183.186,388.177 185,381.5C 186.145,380.364 187.312,379.364 188.5,378.5 Z"/></g>
<g><path style="opacity:1" fill="#3a52b4" d="M 203.5,380.5 C 204.833,380.5 206.167,380.5 207.5,380.5C 207.905,384.048 207.405,387.381 206,390.5C 203.714,387.635 202.88,384.302 203.5,380.5 Z"/></g>
<g><path style="opacity:0.008" fill="#4fb04e" d="M 371.5,383.5 C 371.833,383.5 372.167,383.5 372.5,383.5C 372.315,384.17 371.981,384.17 371.5,383.5 Z"/></g>
<g><path style="opacity:1" fill="#223bad" d="M 190.5,380.5 C 191.496,380.414 192.329,380.748 193,381.5C 193.497,384.146 193.664,386.813 193.5,389.5C 192.5,389.5 191.5,389.5 190.5,389.5C 190.5,386.5 190.5,383.5 190.5,380.5 Z"/></g>
<g><path style="opacity:1" fill="#3641b0" d="M 218.5,387.5 C 219.822,387.33 220.989,387.663 222,388.5C 222.667,390.833 222.667,393.167 222,395.5C 221,396.833 220,396.833 219,395.5C 218.503,392.854 218.336,390.187 218.5,387.5 Z"/></g>
<g><path style="opacity:0.004" fill="#708e00" d="M 351.5,410.5 C 352.833,411.167 352.833,411.167 351.5,410.5 Z"/></g>
<g><path style="opacity:0.004" fill="#81f800" d="M 350.5,411.5 C 350.833,411.5 351.167,411.5 351.5,411.5C 351.315,412.17 350.981,412.17 350.5,411.5 Z"/></g>
<g><path style="opacity:0.004" fill="#00ff00" d="M 60.5,417.5 C 60.8333,417.5 61.1667,417.5 61.5,417.5C 61.3147,418.17 60.9813,418.17 60.5,417.5 Z"/></g>
<g><path style="opacity:0.004" fill="#85a000" d="M 63.5,419.5 C 64.1667,419.5 64.5,419.833 64.5,420.5C 64.5,420.833 64.5,421.167 64.5,421.5C 62.5759,421.289 62.2426,420.623 63.5,419.5 Z"/></g>
<g><path style="opacity:0.004" fill="#55ff00" d="M 334.5,427.5 C 334.833,427.5 335.167,427.5 335.5,427.5C 335.315,428.17 334.981,428.17 334.5,427.5 Z"/></g>
<g><path style="opacity:0.004" fill="#aaff55" d="M 333.5,428.5 C 333.833,428.5 334.167,428.5 334.5,428.5C 334.315,429.17 333.981,429.17 333.5,428.5 Z"/></g>
<g><path style="opacity:0.004" fill="#7f8700" d="M 321.5,438.5 C 322.833,439.167 322.833,439.167 321.5,438.5 Z"/></g>
<g><path style="opacity:0.004" fill="#7fe100" d="M 320.5,439.5 C 320.833,439.5 321.167,439.5 321.5,439.5C 321.315,440.17 320.981,440.17 320.5,439.5 Z"/></g>
<g><path style="opacity:0.004" fill="#86ff00" d="M 107.5,455.5 C 107.833,455.5 108.167,455.5 108.5,455.5C 108.315,456.17 107.981,456.17 107.5,455.5 Z"/></g>
<g><path style="opacity:0.004" fill="#5a5b00" d="M 110.5,456.5 C 109.833,457.167 109.833,457.167 110.5,456.5 Z"/></g>
<g><path style="opacity:0.004" fill="#5a5b00" d="M 295.5,456.5 C 296.833,457.167 296.833,457.167 295.5,456.5 Z"/></g>
<g><path style="opacity:0.004" fill="#57a800" d="M 126.5,466.5 C 126.833,466.5 127.167,466.5 127.5,466.5C 127.315,467.17 126.981,467.17 126.5,466.5 Z"/></g>
<g><path style="opacity:0.004" fill="#7f8000" d="M 278.5,466.5 C 278.833,466.5 279.167,466.5 279.5,466.5C 279.315,467.17 278.981,467.17 278.5,466.5 Z"/></g>
<g><path style="opacity:0.008" fill="#8cd300" d="M 258.5,476.5 C 258.5,476.167 258.5,475.833 258.5,475.5C 259.167,475.5 259.833,475.5 260.5,475.5C 260.158,476.338 259.492,476.672 258.5,476.5 Z"/></g>
<g><path style="opacity:0.004" fill="#386700" d="M 149.5,476.5 C 149.5,476.833 149.5,477.167 149.5,477.5C 146.833,477.167 146.833,476.833 149.5,476.5 Z"/></g>
<g><path style="opacity:0.004" fill="#528e00" d="M 256.5,477.5 C 256.5,477.167 256.5,476.833 256.5,476.5C 257.167,476.5 257.833,476.5 258.5,476.5C 258.158,477.338 257.492,477.672 256.5,477.5 Z"/></g>
<g><path style="opacity:0.004" fill="#6f7700" d="M 149.5,477.5 C 150.833,478.167 150.833,478.167 149.5,477.5 Z"/></g>
<g><path style="opacity:0.004" fill="#727300" d="M 256.5,477.5 C 255.833,478.167 255.833,478.167 256.5,477.5 Z"/></g>
<g><path style="opacity:0.004" fill="#151a00" d="M 198.5,498.5 C 198.5,498.833 198.5,499.167 198.5,499.5C 197.83,499.019 197.83,498.685 198.5,498.5 Z"/></g>
<g><path style="opacity:0.004" fill="#11ff00" d="M 207.5,498.5 C 207.833,498.5 208.167,498.5 208.5,498.5C 208.5,498.833 208.5,499.167 208.5,499.5C 208.167,499.167 207.833,498.833 207.5,498.5 Z"/></g>
</svg>
