<?xml version="1.0" encoding="UTF-8" standalone="no"?>
<!-- Created with sK1/UniConvertor (http://sk1project.org/) -->

<svg
   xmlns:dc="http://purl.org/dc/elements/1.1/"
   xmlns:cc="http://creativecommons.org/ns#"
   xmlns:rdf="http://www.w3.org/1999/02/22-rdf-syntax-ns#"
   xmlns:svg="http://www.w3.org/2000/svg"
   xmlns="http://www.w3.org/2000/svg"
   xmlns:sodipodi="http://sodipodi.sourceforge.net/DTD/sodipodi-0.dtd"
   xmlns:inkscape="http://www.inkscape.org/namespaces/inkscape"
   width="227.69696"
   height="183.79749"
   viewBox="0 0 182.15758 147.03798"
   id="svg2"
   version="1.1"
   inkscape:version="0.48.0 r9654"
   sodipodi:docname="redbullbrasil.cdr"
   style="fill-rule:evenodd">
  <metadata
     id="metadata60">
    <rdf:RDF>
      <cc:Work
         rdf:about="">
        <dc:format>image/svg+xml</dc:format>
        <dc:type
           rdf:resource="http://purl.org/dc/dcmitype/StillImage" />
        <dc:title></dc:title>
      </cc:Work>
    </rdf:RDF>
  </metadata>
  <defs
     id="defs58" />
  <sodipodi:namedview
     pagecolor="#ffffff"
     bordercolor="#666666"
     borderopacity="1"
     objecttolerance="10"
     gridtolerance="10"
     guidetolerance="10"
     inkscape:pageopacity="0"
     inkscape:pageshadow="2"
     inkscape:window-width="640"
     inkscape:window-height="480"
     id="namedview56"
     showgrid="false"
     fit-margin-top="0"
     fit-margin-left="0"
     fit-margin-right="0"
     fit-margin-bottom="0"
     inkscape:zoom="0.27842116"
     inkscape:cx="93.623894"
     inkscape:cy="10.1425"
     inkscape:window-x="0"
     inkscape:window-y="0"
     inkscape:window-maximized="0"
     inkscape:current-layer="svg2" />
  <g
     id="g4"
     transform="translate(-222.73888,-282.02104)">
    <g
       id="g6">
      <g
         id="g8">
        <path
           style="fill:#ffffff;stroke:none"
           d="m 249.028,282.021 0,98.532 c 0,7.786 1.001,10.783 3.395,14.948 l 0.134,0.234 0.15,0.223 c 13.884,20.727 36.946,33.101 61.69,33.101 24.742,0 47.803,-12.373 61.688,-33.1 l 0.15,-0.224 0.135,-0.234 c 2.392,-4.162 3.393,-7.159 3.393,-14.948 l 0,-98.532 -130.735,0 z"
           id="path10"
           inkscape:connector-curvature="0" />
        <path
           style="fill:#173152;stroke:none"
           d="m 371.892,363.67 0,16.883 c 0,6.717 -0.779,8.299 -2.347,11.025 -11.969,17.868 -32.204,29.61 -55.148,29.61 -22.947,0 -43.181,-11.742 -55.15,-29.61 -1.567,-2.726 -2.348,-4.308 -2.348,-11.025 l 0,-15.426 0,-25.025 0,-50.21 114.993,0 0,49.374 0,24.404 z m 3.537,-22.324 0,-54.991 -122.066,0 0,56.11 0,27.044 0,11.044 c 0,7.138 0.858,9.379 2.817,12.787 l 0.061,0.105 0.067,0.101 c 13.078,19.524 34.793,31.179 58.089,31.179 23.294,0 45.009,-11.655 58.087,-31.179 l 0.067,-0.1 0.061,-0.105 c 1.959,-3.407 2.817,-5.646 2.817,-12.788 l 0,-11.329 0,-27.878 z"
           id="path12"
           inkscape:connector-curvature="0" />
        <path
           style="fill:#173152;stroke:none"
           d="m 376.268,369.782 0,10.771 c 0,7.345 -0.892,9.665 -2.929,13.207 l -0.074,0.13 -0.083,0.124 c -13.235,19.756 -35.211,31.551 -58.785,31.551 -23.576,0 -45.552,-11.795 -58.786,-31.551 l -0.084,-0.125 -0.075,-0.129 c -2.036,-3.544 -2.929,-5.864 -2.929,-13.207 l 0,-10.642 0,-27.274 0,-57.121 123.745,0 0,56.067 0,28.199 z m 1.962,-27.832 0,-58.396 -127.669,0 0,59.281 0,28.193 0,9.525 c 0,7.781 1.022,10.411 3.19,14.184 l 0.109,0.188 0.121,0.181 c 13.599,20.301 36.184,32.421 60.416,32.421 24.23,0 46.815,-12.12 60.414,-32.421 l 0.121,-0.18 0.108,-0.188 c 2.169,-3.772 3.19,-6.401 3.19,-14.185 l 0,-9.592 0,-29.011 z"
           id="path14"
           inkscape:connector-curvature="0" />
        <path
           style="fill:#dd1a47;stroke:none"
           d="m 303.275,315.328 c -2.002,0 -3.626,-1.754 -3.626,-3.918 0,-2.164 1.624,-3.918 3.626,-3.918 2.002,0 3.625,1.754 3.625,3.918 0,2.164 -1.623,3.918 -3.625,3.918 z m 3.542,-22.099 0.02,12.114 c -1.31,-1.282 -3.057,-2.058 -4.964,-2.058 -4.079,0 -7.386,3.572 -7.386,7.978 0,4.406 3.307,7.978 7.386,7.978 1.928,0 3.671,-0.81 4.987,-2.116 l 0,1.966 4.908,0 -0.007,-25.862 -4.944,0 z m 20.457,21.474 -4.56,0 0,-16.304 3.181,0 c 1.396,0 2.529,1.193 2.529,2.664 0,1.471 -1.133,2.663 -2.529,2.663 l -1.655,0 0,4.521 3.034,0 c 1.692,0 2.972,1.438 2.972,3.221 -0.06,1.843 -1.132,3.114 -2.972,3.235 z m 3.99,-9.319 c 1.303,-1.282 2.1,-2.999 2.1,-4.886 0,-1.709 -0.624,-3.28 -1.716,-4.514 -1.136,-1.318 -3.148,-1.904 -5.868,-1.904 l -8.145,0 0,25.007 10.52,0 c 4.033,-0.069 7.278,-3.294 7.278,-7.229 0,-2.862 -0.957,-4.903 -4.169,-6.474 z m 24.272,13.723 4.764,0 0,-25.685 -4.764,0 0,25.685 z m -8.008,-6.353 c 0,1.503 -1.251,2.72 -2.793,2.72 -1.543,0 -2.794,-1.217 -2.794,-2.72 l 0,-9.023 -4.852,0 0,9.982 c 0,3.379 3.414,6.119 7.628,6.119 4.214,0 7.631,-2.74 7.631,-6.119 l 0,-9.982 -4.82,0 0,9.023 z m -70.771,-11.327 c 0,-4.083 -3.214,-7.393 -7.18,-7.393 -0.121,0 -0.676,0.002 -0.795,0.008 l -8.352,0 0,25.028 5.07,0 0,-20.71 3.023,-0.027 c 1.873,0 3.294,1.466 3.294,3.275 0,1.809 -1.518,3.275 -3.389,3.275 l -1.177,0.028 0,5.96 5.064,8.199 5.975,0 -7.003,-10.459 c 3.14,-0.79 5.47,-3.707 5.47,-7.184 z m 5.56,8.011 c 0,-1.687 1.337,-3.054 2.987,-3.054 1.65,0 2.987,1.367 2.987,3.054 l -5.974,0 z m 2.945,-6.553 c -4.463,0 -8.082,3.744 -8.082,8.362 0,4.62 3.619,8.37 8.083,8.37 3.407,0 6.064,-1.576 7.434,-4.046 l -3.97,-1.872 c -0.506,1.117 -1.687,1.901 -3.064,1.901 -1.838,0 -3.327,-1.396 -3.327,-3.116 0,-0.112 -0.044,-0.067 -0.031,-0.175 l 10.801,0.005 c 0.033,-0.342 0.049,-0.692 0.047,-1.05 0.073,-5.411 -3.429,-8.379 -7.891,-8.379 z m 78.329,16.222 4.764,0 0,-25.685 -4.764,0 0,25.685 z m 0,-25.685 0,25.685"
           id="path16"
           inkscape:connector-curvature="0" />
        <path
           style="fill:#ffd300;stroke:none"
           d="m 348.37,351.753 c 0,18.864 -15.292,34.159 -34.156,34.159 -18.864,0 -34.156,-15.295 -34.156,-34.159 0,-18.865 15.292,-34.156 34.156,-34.156 18.864,0 34.156,15.291 34.156,34.156 z"
           id="path18"
           inkscape:connector-curvature="0" />
        <path
           style="fill:#ffffff;stroke:none"
           d="m 343.918,362.832 c -0.343,-0.66 -1.536,-2.122 -1.382,-3.05 0.881,0.108 2.212,0.118 2.701,0.146 -0.152,0.279 -1.152,2.567 -1.319,2.904 z m 60.9,10.149 c -0.065,-0.264 -0.169,-0.552 -0.251,-0.773 l -0.078,-0.21 c -0.065,-0.169 -0.127,-0.331 -0.189,-0.515 -0.026,-0.08 -0.053,-0.161 -0.066,-0.228 -0.011,-0.049 -0.013,-0.1 -0.01,-0.149 0.085,-0.968 -0.157,-1.474 -0.537,-2.132 -0.295,-0.516 -0.709,-0.716 -0.984,-0.728 -0.071,0.201 -0.263,0.327 -0.476,0.327 -0.028,0 -0.057,-0.002 -0.086,-0.006 -0.274,-0.042 -0.463,-0.313 -0.432,-0.587 0.008,-0.066 0.017,-0.136 0.019,-0.212 0.009,-0.259 -0.047,-0.491 -0.176,-0.731 -0.326,-0.608 -2.674,-2.543 -3.565,-2.543 -0.722,0 -1.481,0.397 -2.031,1.063 -0.097,0.12 -0.243,0.187 -0.397,0.187 -0.016,0 -0.033,-0.001 -0.048,-0.002 -0.171,-0.017 -0.323,-0.116 -0.404,-0.267 -0.08,-0.145 -0.147,-0.302 -0.208,-0.466 -0.16,-0.424 -0.254,-0.856 -0.345,-1.273 l -0.071,-0.322 c -0.248,-1.086 -0.613,-2.183 -2.065,-2.604 -0.117,-0.035 -0.271,-0.061 -0.456,-0.077 -0.158,-0.016 -0.328,-0.022 -0.504,-0.027 l -0.132,-0.004 c -0.293,-0.006 -0.594,-0.013 -0.893,-0.056 -0.595,-0.088 -0.992,-0.281 -0.992,-0.948 0,-0.059 0.01,-0.115 0.028,-0.169 l 0.159,-0.46 c 0.119,-0.335 0.288,-0.851 0.422,-1.465 0.249,-1.141 0.269,-2.186 0.057,-3.107 -0.038,-0.167 0.01,-0.341 0.126,-0.465 0.099,-0.106 0.235,-0.166 0.378,-0.166 0.025,0 0.051,0.003 0.076,0.007 0.596,0.091 1.079,0.097 1.214,0.097 3.097,0 8.011,-2.02 8.011,-7.446 0,-3.117 -2.526,-6.081 -4.643,-8.019 -0.139,-0.127 -0.198,-0.321 -0.152,-0.504 0.046,-0.183 0.188,-0.326 0.369,-0.374 3.012,-0.786 4.671,-2.79 4.671,-5.642 l 0,-0.19 c 0.002,-0.447 0.003,-0.952 -0.085,-1.493 -0.126,-0.758 -0.406,-1.458 -0.854,-2.142 -0.047,-0.071 -0.121,-0.15 -0.289,-0.15 -0.063,0 -0.11,0.011 -0.125,0.015 -0.122,0.033 -0.25,0.112 -0.336,0.17 -0.28,0.185 -0.685,0.53 -1.01,0.81 -0.368,0.314 -0.809,0.548 -1.43,0.755 -0.377,0.127 -0.769,0.231 -1.185,0.339 -0.219,0.058 -0.443,0.118 -0.675,0.183 -1.436,0.402 -3.005,0.985 -4.746,2.52 -0.799,0.703 -1.351,1.87 -1.405,2.977 -0.048,0.93 0.298,1.892 1.062,2.939 0.657,0.911 1.532,1.769 2.448,2.641 l 0.325,0.311 c 0.333,0.318 0.663,0.633 0.979,0.946 0.477,0.476 0.835,0.865 1.129,1.224 0.724,0.893 1.064,1.626 1.064,2.309 0,1.456 -1.043,2.435 -2.622,2.435 -1.746,-0.013 -3.089,-0.683 -4.957,-1.918 -0.285,-0.188 -0.576,-0.385 -0.877,-0.588 -0.62,-0.418 -1.261,-0.851 -1.974,-1.297 -1.294,-0.808 -2.489,-1.449 -3.762,-2.017 -0.673,-0.301 -1.338,-0.536 -2.093,-0.739 -0.543,-0.144 -1.056,-0.251 -1.551,-0.353 l -0.243,-0.051 c -1.143,-0.24 -2.097,-0.477 -3.112,-1.145 -0.29,-0.193 -0.59,-0.396 -0.896,-0.605 -0.53,-0.36 -1.081,-0.736 -1.642,-1.086 -1.077,-0.672 -1.946,-1.097 -2.738,-1.335 -0.244,-0.075 -0.499,-0.129 -0.825,-0.177 -0.141,-0.022 -0.282,-0.039 -0.42,-0.056 l -0.33,-0.045 c -0.509,-0.07 -0.943,-0.172 -1.403,-0.436 -0.291,-0.17 -0.567,-0.353 -0.873,-0.578 -0.219,-0.163 -0.429,-0.327 -0.643,-0.496 l -0.147,-0.116 c -0.541,-0.424 -1.146,-0.879 -2.073,-1.381 -1.398,-0.756 -2.8,-1.132 -4.004,-1.424 l -0.233,-0.058 c -0.468,-0.111 -0.87,-0.208 -1.214,-0.321 -0.201,-0.065 -0.356,-0.128 -0.465,-0.188 -0.076,-0.038 -0.141,-0.083 -0.168,-0.104 -0.035,-0.026 -0.065,-0.057 -0.094,-0.092 -2.993,-3.761 -6.578,-4.055 -7.607,-4.055 -0.234,0 -0.457,0.013 -0.664,0.036 -1.198,0.13 -2.631,1.187 -3.874,2.202 -0.452,0.37 -0.91,0.762 -1.376,1.158 -0.943,0.806 -1.918,1.639 -2.877,2.32 -4.953,3.524 -6.749,4.935 -9.095,7.498 -3.172,3.466 -4.168,7.865 -5.048,11.747 l -0.065,0.282 c -0.424,1.883 -0.865,3.832 -1.513,5.619 -0.759,2.092 -1.693,3.674 -2.934,4.973 -0.603,0.63 -1.108,1.112 -1.543,1.472 -0.293,0.243 -0.512,0.393 -0.701,0.525 l -0.128,0.09 c -0.524,0.374 -0.728,0.848 -0.578,1.335 0.194,0.621 0.99,1.262 2.331,1.284 0.155,0.004 0.301,0.076 0.395,0.2 0.098,0.122 0.133,0.281 0.097,0.433 -0.055,0.232 -0.012,0.429 0.134,0.618 0.366,0.471 1.241,0.74 1.734,0.752 l 0.214,0.003 c 2.369,0 4.405,-0.87 6.056,-2.585 0.102,-0.104 0.236,-0.158 0.37,-0.158 0.126,0 0.251,0.046 0.349,0.136 0.657,0.605 1.503,0.909 2.584,0.93 l 0.116,0.002 c 0.503,0 1.007,-0.058 1.466,-0.107 0.234,-0.026 0.455,-0.05 0.667,-0.065 0.118,-0.008 0.231,-0.015 0.338,-0.015 0.077,0 0.15,0.003 0.217,0.009 0.28,0.023 0.64,0.111 1.133,0.278 0.341,0.119 0.706,0.258 1.076,0.4 l 0.332,0.128 c 0.724,0.276 1.815,0.693 2.648,0.693 0.047,0 0.093,-0.002 0.137,-0.004 1.866,-0.115 2.565,-1.505 2.815,-2.322 0.065,-0.217 0.265,-0.364 0.492,-0.364 l 0.017,0 c 0.233,0.006 0.43,0.169 0.484,0.395 0.047,0.197 0.098,0.388 0.153,0.574 0.293,0.984 0.68,1.643 1.253,2.141 0.178,0.153 0.401,0.247 0.726,0.3 0.276,0.046 0.674,0.07 1.252,0.073 0.112,0 0.221,0.039 0.309,0.106 0.064,0.049 0.15,0.127 0.283,0.261 0.12,0.12 0.243,0.246 0.362,0.35 0.106,0.09 0.268,0.213 0.457,0.28 2.62,0.89 6.028,1.853 7.736,1.88 l 0.062,0 c 2.332,0 3.124,-2.235 3.357,-3.198 0.047,-0.194 0.203,-0.345 0.401,-0.383 2.172,-0.428 3.362,-3.694 3.357,-4.255 -0.012,-1.05 -0.417,-1.467 -1.457,-1.543 l -3.786,-0.002 c -0.084,0 -0.168,0.014 -0.252,0.037 -0.048,0.014 -0.096,0.02 -0.142,0.02 -0.174,0 -0.339,-0.087 -0.435,-0.237 -0.137,-0.214 -0.289,-0.32 -0.54,-0.379 -0.188,-0.044 -0.338,-0.192 -0.382,-0.383 -0.046,-0.189 0.019,-0.388 0.171,-0.512 0.077,-0.066 0.152,-0.132 0.223,-0.199 0.096,-0.09 0.221,-0.139 0.351,-0.139 l 0.023,0 c 0.514,0.023 1.52,0.061 2.474,0.061 0.424,0 0.838,-0.008 1.192,-0.028 0.763,-0.041 1.4,-0.116 2.072,-0.194 1.053,-0.12 2.142,-0.247 3.778,-0.248 l 3.548,0.195 c 0.758,0 1.449,-0.1 2.053,-0.293 0.05,-0.016 0.104,-0.025 0.156,-0.025 0.097,0 0.194,0.029 0.278,0.082 0.128,0.081 0.215,0.217 0.234,0.369 0.228,1.794 0.818,3.376 1.702,4.575 0.231,0.313 0.519,0.583 0.909,0.851 0.203,0.138 0.416,0.265 0.63,0.393 0.124,0.075 0.248,0.15 0.373,0.229 0.933,0.584 2.096,1.312 3.55,1.311 0.39,0 0.792,-0.052 1.196,-0.155 0.435,-0.113 0.87,-0.165 1.329,-0.165 0.229,0 0.452,0.014 0.668,0.036 0.576,0.065 1.089,0.193 1.503,0.297 l 0.108,0.027 c 0.675,0.169 1.312,0.435 1.95,0.815 0.525,0.314 0.968,0.65 1.395,0.975 l 0.114,0.088 c 0.851,0.644 1.731,1.31 2.958,1.31 0.047,0 0.097,-0.002 0.148,-0.004 0.081,-0.003 0.175,-0.029 0.217,-0.041 0.067,-0.018 0.148,-0.044 0.236,-0.075 0.168,-0.061 0.367,-0.14 0.566,-0.22 0.192,-0.075 0.409,-0.161 0.657,-0.209 0.033,-0.006 0.066,-0.01 0.101,-0.01 0.167,0 0.329,0.083 0.425,0.226 0.063,0.093 0.127,0.198 0.196,0.308 0.122,0.199 0.25,0.405 0.411,0.613 0.472,0.61 1.335,1.427 3.349,1.477 0.184,0.006 0.36,0.007 0.529,0.007 1.05,0 1.695,-0.081 1.985,-0.13 0.028,-0.005 0.056,-0.007 0.085,-0.007 0.104,0 0.206,0.032 0.293,0.093 0.216,0.149 0.441,0.22 0.695,0.22 0.543,0 1.347,-0.162 2,-0.404 0.387,-0.143 0.705,-0.307 0.944,-0.483 0.308,-0.229 0.487,-0.481 0.529,-0.753 0.032,-0.204 0.011,-0.447 -0.064,-0.746 z M 286.332,360.738 c -0.352,0.432 -0.878,0.564 -1.353,1.411 -0.964,-0.376 -1.133,-1.643 -1.308,-2.19 0.769,-0.142 2.584,-0.487 3.536,-0.63 -0.393,0.495 -0.675,0.83 -0.875,1.409 z m 22.843,3.987 c -0.97,-0.546 -1.546,-1.391 -1.94,-2.066 -0.171,-0.293 -0.329,-0.591 -0.483,-0.882 l -0.18,-0.338 c -0.192,-0.359 -0.428,-0.772 -0.703,-1.132 -0.107,-0.133 -0.236,-0.277 -0.369,-0.416 l -0.389,-0.408 c -0.123,-0.127 -0.239,-0.255 -0.331,-0.375 -0.096,-0.121 -0.162,-0.226 -0.194,-0.309 -1.707,-4.367 -2.108,-6.842 -2.721,-11.192 -0.317,-2.237 -1.687,-4.047 -3.906,-6.765 -0.278,-0.337 -0.585,-0.738 -0.914,-1.163 -0.227,-0.292 -0.462,-0.595 -0.701,-0.898 -0.727,-0.919 -1.323,-1.6 -1.793,-2.059 -0.797,-0.67 -1.5,-1.267 -2.135,-1.807 -0.903,-0.767 -1.669,-1.418 -2.374,-1.998 -1.334,-1.096 -2.359,-1.868 -3.54,-2.665 -1.65,-1.114 -3.413,-1.678 -5.242,-1.678 -1.868,0 -3.243,0.601 -3.709,0.92 -1.574,1.07 -2.76,1.734 -4.094,2.288 -0.967,0.401 -1.971,0.73 -3.243,1.146 -0.406,0.134 -0.843,0.277 -1.317,0.434 -1.444,0.483 -2.468,1.322 -3.196,1.998 -0.178,0.167 -0.343,0.329 -0.502,0.482 -0.179,0.175 -0.348,0.34 -0.51,0.485 -0.329,0.301 -0.557,0.461 -0.764,0.535 -0.218,0.079 -0.573,0.134 -1.083,0.169 -0.264,0.019 -0.54,0.03 -0.808,0.042 -0.197,0.007 -0.39,0.017 -0.57,0.027 -1.659,0.097 -2.99,1.031 -3.848,1.725 -0.447,0.36 -0.862,0.739 -1.262,1.105 l -0.191,0.176 c -0.505,0.458 -0.865,0.766 -1.208,0.988 -1.176,0.76 -2.29,0.869 -3.511,0.99 -0.628,0.062 -1.275,0.126 -1.971,0.271 -0.829,0.172 -1.612,0.433 -2.392,0.799 -0.877,0.414 -1.765,0.943 -2.877,1.715 -0.48,0.334 -0.951,0.675 -1.415,1.015 -0.415,0.302 -0.824,0.599 -1.231,0.884 -1.834,1.285 -3.406,2.14 -5.112,2.14 -1.684,0 -2.878,-0.985 -3.043,-2.51 -0.144,-1.345 0.543,-2.703 1.935,-3.828 l 0.767,-0.615 c 0.571,-0.458 1.106,-0.886 1.591,-1.303 0.809,-0.692 1.359,-1.252 1.783,-1.81 1.046,-1.374 1.312,-2.79 0.862,-4.59 -0.404,-1.616 -1.648,-2.718 -3.803,-3.363 -0.768,-0.233 -1.551,-0.373 -2.283,-0.492 l -0.254,-0.041 c -0.226,-0.035 -0.43,-0.068 -0.605,-0.101 -0.236,-0.044 -0.401,-0.086 -0.498,-0.125 -1.167,-0.521 -3.707,-2.219 -4.215,-2.562 l -0.208,-0.14 -0.142,0.206 c -0.464,0.666 -0.83,1.193 -1.109,3.508 -0.305,2.557 1.801,5.677 5.427,6.249 0.202,0.031 0.366,0.181 0.418,0.378 0.052,0.198 -0.018,0.408 -0.18,0.535 -3.835,3.016 -4.653,4.311 -4.855,7.701 -0.124,2.101 0.609,4.163 2.018,5.658 1.539,1.63 3.767,2.493 6.449,2.493 0.715,0 1.47,-0.061 2.242,-0.182 0.027,-0.005 0.055,-0.007 0.081,-0.007 0.115,0 0.228,0.04 0.318,0.112 0.114,0.088 0.183,0.221 0.194,0.364 0.179,2.358 0.607,4.276 1.14,5.132 0.132,0.21 0.096,0.483 -0.087,0.651 -0.164,0.152 -0.425,0.301 -0.754,0.429 -0.82,0.319 -2.06,0.517 -3.298,0.517 -0.772,0 -1.346,0.53 -1.808,1.668 -0.15,0.371 -0.273,0.765 -0.393,1.146 l -0.034,0.108 c -0.061,0.193 -0.119,0.374 -0.177,0.531 -0.053,0.148 -0.109,0.283 -0.168,0.393 -0.155,0.276 -0.383,0.547 -0.7,0.827 -0.096,0.083 -0.217,0.128 -0.341,0.128 -0.029,0 -0.06,-0.002 -0.087,-0.007 -0.155,-0.026 -0.288,-0.121 -0.364,-0.257 -0.378,-0.683 -0.975,-1.117 -1.771,-1.292 l -0.018,-10e-4 -0.08,-10e-4 c -1.178,0 -3.213,0.995 -3.964,2.864 -0.071,0.175 -0.231,0.299 -0.419,0.319 l -0.093,0.011 c -0.939,0.099 -1.53,0.535 -1.865,1.37 -0.14,0.355 -0.223,0.751 -0.29,1.097 l -0.05,0.256 c -0.053,0.287 -0.109,0.579 -0.183,0.864 -0.06,0.226 -0.14,0.426 -0.262,0.649 -0.059,0.11 -0.12,0.211 -0.177,0.306 -0.044,0.071 -0.086,0.14 -0.124,0.207 -0.208,0.384 -0.315,0.777 -0.148,1.446 0.075,0.305 0.318,0.57 0.719,0.787 0.296,0.161 0.68,0.3 1.142,0.411 0.816,0.199 1.625,0.263 1.781,0.263 0.113,0 0.225,-0.032 0.334,-0.093 0.079,-0.045 0.153,-0.104 0.24,-0.168 0.093,-0.071 0.219,-0.116 0.34,-0.116 0.027,0 0.054,0.002 0.079,0.006 l 0.382,0.072 c 0.314,0.059 0.704,0.139 1.093,0.217 l 0.062,0.013 c 0.372,0.075 0.739,0.148 1.037,0.203 0.16,0.031 0.302,0.056 0.409,0.071 0.12,0.018 0.214,0.026 0.27,0.026 l 0.004,0 c 1.62,-0.076 2.303,-0.706 2.757,-1.312 0.128,-0.17 0.242,-0.351 0.354,-0.538 l 0.184,-0.312 0.137,-0.234 c 0.134,-0.227 0.265,-0.435 0.409,-0.633 0.1,-0.135 0.254,-0.211 0.417,-0.211 0.044,0 0.09,0.006 0.134,0.018 0.184,0.049 0.371,0.084 0.529,0.113 0.376,0.062 0.72,0.095 0.866,0.106 0.107,0.007 0.21,0.011 0.313,0.011 1.533,0 2.676,-0.854 3.624,-1.656 l 0.311,-0.264 c 0.145,-0.126 0.287,-0.25 0.429,-0.367 0.189,-0.156 0.439,-0.36 0.698,-0.533 0.46,-0.304 0.849,-0.447 1.227,-0.447 l 0.094,0.004 c 0.368,0.022 1.754,0.123 4.104,0.495 0.1,0.015 0.202,0.023 0.307,0.023 0.529,0 1.204,-0.182 2.008,-0.542 0.578,-0.258 1.241,-0.618 1.914,-1.037 0.143,-0.09 0.315,-0.172 0.522,-0.267 l 0.061,-0.028 c 0.19,-0.086 0.396,-0.178 0.606,-0.285 0.386,-0.198 0.951,-0.526 1.407,-1.097 0.268,-0.335 0.63,-1.043 0.981,-1.758 l 0.383,-0.783 c 0.212,-0.437 0.436,-0.896 0.663,-1.354 0.089,-0.175 0.267,-0.283 0.464,-0.283 l 0.009,0 0.135,0.001 c 0.728,0 1.602,-0.112 2.362,-0.222 0.333,-0.048 0.663,-0.099 0.975,-0.15 0.699,-0.108 1.302,-0.204 1.75,-0.223 0.111,0 0.406,0.021 0.819,0.049 l 0.931,0.062 c 1.173,0.07 2.128,0.106 2.923,0.106 0.474,0 0.891,-0.013 1.24,-0.038 0.626,-0.044 1.201,-0.142 1.663,-0.279 0.13,-0.04 0.273,-0.088 0.414,-0.15 0.066,-0.029 0.137,-0.043 0.207,-0.043 0.131,0 0.261,0.051 0.358,0.146 0.256,0.252 0.529,0.502 0.806,0.745 0.155,0.135 0.213,0.354 0.148,0.55 -0.066,0.195 -0.242,0.334 -0.448,0.35 -0.105,0.007 -0.207,0.019 -0.303,0.032 -0.329,0.044 -0.923,0.175 -1.223,0.563 -0.101,0.13 -0.252,0.2 -0.408,0.2 -0.071,0 -0.14,-0.014 -0.206,-0.043 -0.071,-0.031 -0.143,-0.056 -0.216,-0.077 -0.161,-0.044 -0.312,-0.051 -0.441,-0.054 l -0.065,0 -0.175,10e-4 -0.264,0.003 -0.143,0 c -0.466,0 -1.561,0 -2.506,0.153 -0.583,0.096 -1.043,0.237 -1.369,0.422 -0.31,0.175 -0.671,0.494 -0.642,1.016 0.057,0.97 1.421,3.59 2.351,4.521 0.18,0.179 0.792,0.373 1.468,0.373 0.073,0 0.145,-0.003 0.218,-0.008 0.012,-0.001 0.025,-0.001 0.037,-0.001 0.192,0 0.368,0.108 0.457,0.281 0.951,1.874 2.598,3.133 4.098,3.132 l 0.097,-10e-4 c 1.435,-0.052 5.302,-1.45 8.016,-2.724 0.034,-0.014 0.069,-0.027 0.106,-0.035 0.086,-0.021 0.188,-0.037 0.294,-0.05 0.161,-0.024 0.341,-0.044 0.535,-0.066 l 0.271,-0.031 c 0.599,-0.072 1.278,-0.177 1.775,-0.413 0.456,-0.216 1.12,-1.071 1.693,-2.176 0.089,-0.172 0.264,-0.278 0.455,-0.278 0.017,0 0.033,0.001 0.05,0.003 0.208,0.019 0.384,0.162 0.445,0.365 0.067,0.221 0.145,0.416 0.239,0.594 0.462,0.871 1.288,1.314 2.454,1.314 0.063,0 0.126,-0.002 0.191,-0.004 0.799,-0.031 1.683,-0.302 2.448,-0.55 l 0.437,-0.144 c 0.655,-0.219 1.274,-0.425 1.853,-0.529 0.206,-0.038 0.439,-0.055 0.712,-0.055 0.124,0 0.254,0.003 0.391,0.01 0.243,0.011 0.489,0.032 0.737,0.051 0.166,0.013 0.333,0.026 0.5,0.038 0.235,0.014 0.484,0.029 0.74,0.029 0.713,0 1.264,-0.105 1.762,-0.342 0.723,-0.298 1.283,-0.703 1.655,-0.971 l 0.136,-0.098 c 0.089,-0.066 0.195,-0.098 0.301,-0.098 0.122,0 0.245,0.044 0.343,0.13 1.013,0.902 3.195,2.415 6.412,2.415 0.109,0 0.217,0 0.328,-0.005 0.765,-0.024 1.365,-0.278 1.692,-0.714 0.216,-0.29 0.284,-0.64 0.193,-0.985 -0.037,-0.138 -0.012,-0.287 0.065,-0.409 0.077,-0.121 0.202,-0.204 0.343,-0.229 0.528,-0.094 0.955,-0.282 1.268,-0.56 0.284,-0.251 0.469,-0.617 0.473,-0.935 0.003,-0.214 -0.075,-0.394 -0.238,-0.547 -0.35,-0.327 -0.554,-0.446 -1.573,-1.018 z"
           id="path20"
           inkscape:connector-curvature="0" />
        <path
           style="fill:#ffffff;stroke:none"
           d="m 297.01,331.274 c 0,-9.45 7.661,-17.109 17.11,-17.109 9.45,0 17.11,7.659 17.11,17.109 0,9.449 -7.66,17.11 -17.11,17.11 -9.449,0 -17.11,-7.661 -17.11,-17.11 z"
           id="path22"
           inkscape:connector-curvature="0" />
        <path
           style="fill:#d9dbdc;stroke:none"
           d="m 301.262,340.503 c 4.988,3.605 12.021,4.176 17.517,1.222 5.971,-3.09 9.586,-9.455 9.037,-16.318 -0.105,-0.995 -0.264,-1.964 -0.525,-2.907 1.686,2.535 2.656,5.541 2.656,8.774 0,8.74 -7.086,15.827 -15.827,15.827 -5.297,0 -9.986,-2.602 -12.858,-6.598 z"
           id="path24"
           inkscape:connector-curvature="0" />
        <path
           style="fill:#173152;stroke:none"
           d="m 309.453,335.228 c -3.697,-0.893 -6.225,-1.788 -6.225,-1.788 -0.4,-3.822 -0.061,-7.148 -0.061,-7.148 1.601,-0.834 5.946,-2.775 5.946,-2.775 2.066,2.344 4.037,5.485 4.037,5.485 -0.955,1.85 -3.697,6.226 -3.697,6.226 z m -6.099,-15.555 c -0.372,0.607 -1.46,2.435 -2.437,4.615 -0.925,1.155 -1.731,2.331 -2.078,2.848 0.785,-2.903 2.375,-5.475 4.515,-7.463 z m 16.607,9.206 c 0,0 1.386,-2.895 3.05,-5.238 0,0 3.206,1.509 4.716,2.743 0,0 0.554,1.724 0.185,6.778 0,0 -1.913,1.111 -4.685,1.789 0,0 -1.88,-3.175 -3.266,-6.072 z m -7.18,11.864 6.841,-0.185 1.324,3.729 c -2.586,1.54 -5.7,2.343 -5.7,2.343 -3.267,-0.711 -5.145,-2.127 -5.145,-2.127 l 2.68,-3.76 z m 1.339,-25.296 c 2.088,0 4.081,0.405 5.905,1.139 -0.064,0.293 -0.286,1.128 -0.927,2.186 -3.297,-0.431 -6.964,-0.092 -6.964,-0.092 l -3.047,-2.416 c 1.581,-0.529 3.274,-0.817 5.033,-0.817 z m -10.141,27.98 c -2.622,-2.192 -4.524,-5.215 -5.3,-8.665 0.846,0.877 2.485,2.56 2.485,2.56 0.986,2.036 3.45,5.579 3.45,5.579 -0.176,0.196 -0.454,0.401 -0.635,0.526 z"
           id="path26"
           inkscape:connector-curvature="0" />
        <path
           style="fill:#dd1a47;stroke:none"
           d="m 300.027,356.118 c -0.008,0.023 -0.089,0.255 -0.089,0.255 -0.005,0.018 -0.08,0.259 -0.08,0.259 -0.087,0.235 -0.223,0.366 -0.427,0.413 -0.121,0.036 -0.235,0.018 -0.325,-0.049 -0.092,-0.069 -0.145,-0.18 -0.145,-0.303 0,-0.006 -0.018,-0.267 -0.018,-0.267 l -0.092,-0.918 c -0.073,-0.428 -0.199,-0.756 -0.396,-1.033 -0.007,-0.009 -0.403,-0.469 -0.403,-0.469 -0.014,-0.017 -0.455,-0.516 -0.455,-0.516 -0.351,-0.351 -0.667,-0.519 -0.995,-0.529 -0.255,0.08 -0.486,0.249 -0.735,0.522 l -0.318,0.388 -0.279,0.376 c -0.102,0.174 -0.33,0.076 -0.332,0.074 0,0 -0.021,-0.01 -0.039,-0.02 -0.008,-0.02 -0.017,-0.043 -0.017,-0.043 -0.071,-0.179 -0.099,-0.351 -0.099,-0.514 0,-0.286 0.086,-0.541 0.174,-0.752 l 0.243,-0.496 0.278,-0.588 0.036,-0.055 c 0.085,-0.08 0.165,-0.224 0.256,-0.464 l 0.074,-0.203 0.163,-0.416 c 0.247,-0.532 0.614,-0.674 1.154,-0.445 0.419,0.224 0.675,0.578 0.87,0.895 0,10e-4 0.132,0.22 0.132,0.22 l 0.171,0.28 0.352,0.449 c 0.962,1.079 1.428,2.098 1.428,3.151 0,0.264 -0.029,0.529 -0.087,0.798 z m -3.655,8.129 c 0,0 -0.013,0.009 -0.007,0.017 -0.008,-0.007 -0.028,10e-4 -0.028,10e-4 -0.554,0.174 -1.18,0.247 -1.86,0.214 l -0.038,-0.008 c 10e-4,10e-4 -0.124,-0.055 -0.124,-0.055 -0.003,-10e-4 -0.133,-0.082 -0.133,-0.082 -0.065,-0.053 -0.165,-0.167 -0.108,-0.337 0.258,-0.776 1.026,-1.667 1.995,-1.866 0.025,-0.003 0.084,-0.003 0.084,-0.003 l 0.136,0 0.217,0.031 c 0.104,0.029 0.284,0.115 0.33,0.37 0.014,0.143 0.027,0.301 0.027,0.465 0,0.459 -0.096,0.957 -0.491,1.253 z m -11.37,-19.675 c -0.037,-0.009 -0.073,-0.02 -0.073,-0.02 0,0 -0.005,0.016 -0.008,0.03 -0.011,0.01 -0.022,0.021 -0.022,0.021 -0.084,0.084 -0.236,0.145 -0.386,0.044 0,0 -0.021,-0.014 -0.04,-0.027 -0.005,-0.023 -0.01,-0.048 -0.01,-0.048 -0.231,-1.189 -0.497,-2.448 -0.978,-3.618 10e-4,10e-4 -0.276,-0.474 -0.276,-0.474 l -0.108,-0.149 -0.237,-0.343 c -0.188,-0.3 -0.371,-0.707 -0.119,-1.19 l 0.028,-0.037 c 0.217,-0.217 0.6,-0.236 0.861,-0.138 l 0.035,0.018 c 0.509,0.352 0.837,0.932 1.076,1.356 0.302,0.702 0.456,1.581 0.456,2.49 0,0.694 -0.09,1.404 -0.272,2.065 0,0 0.036,0.01 0.073,0.02 z m 23.416,21.015 c -1.789,-1.045 -2.504,-3.013 -3.609,-4.566 -0.386,-0.569 -1.073,-0.927 -1.432,-1.493 -1.282,-3.491 -2.386,-6.981 -2.714,-10.978 -0.27,-0.985 -0.476,-2 -1.015,-2.925 -1.61,-2.624 -3.698,-5.013 -5.728,-7.428 -0.178,-0.179 -0.18,-0.196 -0.567,-0.568 l -7.069,-5.876 c -0.866,-0.657 -1.851,-1.075 -2.836,-1.522 -1.492,-0.568 -3.52,-0.447 -4.98,0.179 -1.523,0.805 -2.895,1.969 -4.507,2.506 -2.325,1.045 -4.951,1.253 -6.95,3.043 -1.164,1.015 -2.149,2.595 -3.879,2.328 -1.939,-0.09 -3.67,0.625 -5.131,1.819 -1.314,1.193 -2.566,2.596 -4.267,2.924 -1.492,0.627 -3.311,0.328 -4.832,0.895 -2.417,0.596 -4.328,2.506 -6.384,3.967 -2.058,1.193 -4.028,2.477 -6.595,2.417 -1.67,-0.119 -3.281,-1.283 -3.818,-2.893 -0.507,-1.851 0.059,-3.759 1.521,-5.013 1.522,-1.819 3.938,-2.894 5.132,-4.983 0.626,-1.103 0.537,-2.892 -0.298,-3.937 -1.582,-1.64 -3.85,-1.701 -5.908,-2.208 -1.312,-0.359 -2.327,-1.372 -3.49,-1.998 -0.447,0.686 -0.596,1.431 -0.536,2.266 0.238,1.88 1.669,3.581 3.459,4.237 1.045,0.448 2.239,0.12 3.312,0.358 0.298,0.12 0.598,0.418 0.626,0.745 -0.058,0.299 -0.088,0.597 -0.356,0.806 -1.672,1.403 -3.431,2.745 -4.834,4.475 -1.493,1.612 -1.671,4.445 -0.895,6.475 0.865,2.326 3.282,3.849 5.608,4.146 1.701,0.27 3.224,-0.179 4.774,-0.507 0.209,0 0.298,0.21 0.388,0.328 0.15,1.373 -0.06,2.596 0.239,3.849 0.269,1.163 0.656,1.97 1.074,3.102 0.059,0.388 0,0.805 -0.27,1.105 -0.864,0.658 -1.76,1.106 -2.714,1.524 l -2.327,0.148 -0.448,0.211 c -0.865,1.013 -0.894,2.057 -1.431,3.191 -0.716,1.194 -2.029,1.76 -3.133,2.446 -0.358,0.567 -0.746,1.164 -1.252,1.611 -0.389,0.359 -0.866,0.448 -1.373,0.508 -0.806,0.924 -0.984,2.207 -1.194,3.46 1.313,0.119 2.685,0.836 3.968,0.119 1.104,-0.507 1.343,-1.849 2.179,-2.655 0.656,-0.716 1.641,-0.178 2.417,-0.029 1.162,0.06 1.998,-0.775 2.983,-1.164 0.684,-0.448 1.252,-1.222 1.967,-1.671 1.374,-0.655 3.281,-0.298 4.714,-0.029 1.134,0.298 2.327,0.119 3.312,-0.33 0.925,-0.566 1.79,-1.281 2.834,-1.52 0.925,-0.478 1.373,-1.522 1.76,-2.386 0.298,-0.807 1.075,-1.433 1.015,-2.358 -0.24,-0.209 -0.507,-0.658 -0.865,-0.628 -0.448,0.628 -0.776,1.284 -1.283,1.882 -2.158,2.943 -3.854,3.221 -8.234,3.221 -3.253,-0.119 -6.176,0.866 -8.414,3.4 -0.149,0.092 -0.358,0.031 -0.477,-0.088 -0.088,-0.358 0.21,-0.952 0.358,-1.22 2,-2.834 5.103,-3.49 8.383,-3.55 1.79,-0.12 3.491,-0.418 5.013,-1.193 1.7,-0.865 2.863,-2.213 3.58,-3.884 0.387,-1.88 0.537,-3.909 1.015,-5.699 0.059,-0.178 0.505,-0.313 0.654,-0.253 0.178,0.031 0.534,0.193 0.534,0.402 -0.328,1.85 -0.92,4.027 -0.204,5.817 1.431,1.883 4.088,0.867 6.028,0.776 2.027,-0.179 3.658,-0.02 5.597,0.099 0.954,-0.029 1.66,0.204 2.405,-0.393 0.209,-0.328 0.293,-0.773 0.233,-1.131 -0.06,-0.537 -0.508,-0.861 0,-1.309 0.149,-0.12 0.594,-0.041 0.713,0.109 0.269,0.746 0.388,1.551 0.865,2.208 0.956,1.225 2.357,2.18 3.669,2.866 1.253,0.866 2.298,2.089 2.387,3.61 0,0.776 -0.715,1.313 -1.312,1.671 -1.014,0.506 -2.119,0.925 -3.312,0.806 -1.582,-0.776 -1.999,-2.447 -3.043,-3.67 -0.536,-0.597 -1.342,-0.716 -2.148,-0.656 -0.865,0.088 -1.73,0.119 -2.506,0.388 -0.209,0.178 -0.268,0.446 -0.239,0.716 0.537,0.984 1.134,1.938 1.73,2.922 0.688,0.419 1.642,-0.237 2.238,0.508 0.506,0.776 0.835,1.701 1.611,2.299 0.746,0.655 1.881,0.952 2.864,0.536 2.207,-0.686 4.417,-1.403 6.475,-2.507 l 0.685,0 c 0.835,-0.088 1.761,-0.029 2.357,-0.656 0.657,-0.955 1.194,-1.849 1.7,-2.864 0.508,-0.686 0.269,-1.731 0.061,-2.476 -1.015,-1.252 -1.582,-2.657 -2.119,-4.091 -0.506,-0.149 -0.954,-0.447 -1.521,-0.417 -0.268,0.119 -0.656,0.06 -0.807,0.358 l 2.357,4.657 c 0.15,0.357 0.329,0.865 0.239,1.342 -0.328,0.985 -0.835,1.94 -1.64,2.656 -0.149,0.089 -0.328,0.179 -0.446,-0.03 0.266,-1.014 0.744,-2.118 0.685,-3.282 l -2.297,-4.149 c -0.27,-0.567 -0.746,-1.075 -0.716,-1.731 0,-0.299 0.266,-0.507 0.507,-0.626 1.014,-0.329 2.238,-0.269 3.012,-1.074 1.016,-1.582 1.227,-3.133 1.496,-5.012 0.059,-0.12 0.299,-0.349 0.478,-0.349 0.179,-0.06 0.383,0.2 0.472,0.289 0.3,2.058 -0.119,4.146 -1.312,5.758 -0.06,0.209 -0.149,0.477 0.09,0.626 1.133,0.358 2.327,0 3.282,-0.507 1.223,0.03 2.356,-0.269 3.461,-0.447 0.119,0.059 0.238,0.178 0.238,0.298 -0.745,0.835 -1.163,1.759 -1.372,2.835 -0.896,0.927 -2.178,1.732 -2.269,3.075 0.151,0.656 0.717,0.029 1.106,0.089 0.178,0.031 0.298,0.178 0.298,0.358 l -0.895,1.313 c -0.478,0.776 0.089,1.67 0.089,2.417 0.209,0.596 0.925,0.895 1.551,0.895 1.343,-0.059 2.537,-0.567 3.73,-0.985 1.313,-0.567 2.953,-0.537 4.385,-0.299 1.402,-0.088 2.447,-1.013 3.49,-1.939 0.569,0 1.076,0.388 1.463,0.806 1.61,1.73 3.699,2.476 6.056,2.417 l 0.209,-0.12 c 0.149,-0.149 0.088,-0.417 -0.091,-0.537 l -1.401,-0.715 c -0.984,-0.628 -2.208,-1.463 -2.535,-2.566 -0.299,-0.985 -0.836,-2.06 -1.434,-3.014 -0.207,-0.477 -0.685,-0.866 -0.894,-1.344 0.059,-0.06 0.12,-0.151 0.209,-0.12 1.552,0.538 2.476,2.061 3.192,3.433 1.134,1.581 2.775,2.923 4.922,2.566 l 0.18,-0.149 c 0.09,-0.119 0.059,-0.269 0,-0.359 l -1.076,-0.536 z"
           id="path28"
           inkscape:connector-curvature="0" />
        <path
           style="fill:#dd1a47;stroke:none"
           d="m 229.21,368.898 c 0.926,-0.537 1.523,-1.551 2.001,-2.416 -0.09,-0.328 -0.419,-0.567 -0.688,-0.807 -0.177,-0.148 -0.446,-0.029 -0.656,0.031 -0.657,0.567 -1.341,1.015 -2.058,1.462 -0.298,0.209 -0.179,0.657 -0.239,0.985 0,0.297 0.358,0.507 0.538,0.685 0.327,0.151 0.745,0.18 1.102,0.06 z"
           id="path30"
           inkscape:connector-curvature="0" />
        <path
           style="fill:#dd1a47;stroke:none"
           d="m 226.08,368.989 c -0.478,0.238 -0.985,0.685 -1.105,1.223 -0.15,0.954 0.06,1.848 -0.686,2.535 -0.03,0.18 -0.21,0.388 -0.03,0.567 0.657,0.208 1.283,0.477 2.088,0.566 0.358,-1.164 0.627,-2.445 1.045,-3.459 l 0,-0.3 c -0.359,-0.447 -0.717,-1.014 -1.312,-1.132 z"
           id="path32"
           inkscape:connector-curvature="0" />
        <path
           style="fill:#dd1a47;stroke:none"
           d="m 271.335,365.825 c 0.598,0.657 0.568,1.671 1.255,2.177 0.894,0.151 1.699,-0.208 2.385,-0.744 0.39,-0.328 -0.178,-0.747 -0.237,-1.135 -0.388,-0.566 -0.12,-1.7 -1.075,-1.73 -0.954,0.149 -1.908,0.18 -2.863,0.18 l -0.27,0.178 c -0.179,0.568 0.656,0.568 0.805,1.074 z"
           id="path34"
           inkscape:connector-curvature="0" />
        <path
           style="fill:#dd1a47;stroke:none"
           d="m 403.077,372.061 c -0.15,-0.687 0.029,-1.641 -0.418,-2.267 -0.389,-0.298 -0.747,-0.746 -1.253,-0.627 -0.418,0.358 -1.045,0.776 -0.955,1.402 0.358,1.074 0.597,1.85 0.807,2.954 0.119,0.208 0,0.626 0.327,0.626 l 1.91,-0.626 c 0.328,-0.537 -0.299,-0.955 -0.418,-1.462 z"
           id="path36"
           inkscape:connector-curvature="0" />
        <path
           style="fill:#dd1a47;stroke:none"
           d="m 348.314,337.51 -0.129,0.253 c 0,0 -0.14,0.224 -0.14,0.224 -0.001,-0.002 -0.94,0.874 -0.94,0.874 l -1.008,0.941 c -0.756,0.734 -1.286,1.355 -1.668,1.953 -0.322,0.439 -0.563,0.95 -0.796,1.445 -0.072,0.147 -0.253,0.151 -0.35,0.119 0,0 -0.029,-0.009 -0.056,-0.018 -0.008,-0.027 -0.017,-0.055 -0.017,-0.055 -0.064,-0.19 -0.095,-0.389 -0.095,-0.609 0,-0.165 0.018,-0.342 0.053,-0.535 0,-10e-4 0.187,-0.744 0.187,-0.744 l 0.093,-0.337 c 0.572,-1.521 1.851,-3.112 3.508,-4.354 0.213,-0.135 0.608,-0.231 0.91,-0.136 0.183,0.057 0.313,0.176 0.388,0.355 0.073,0.123 0.108,0.244 0.108,0.368 0,0.083 -0.016,0.169 -0.048,0.256 l 0.071,0.026 c -0.036,-0.013 -0.071,-0.026 -0.071,-0.026 z m -12.173,16.965 -0.08,0.287 c -0.069,0.095 -0.158,0.21 -0.269,0.278 -0.093,0.056 -0.237,0.103 -0.396,0.002 -0.158,-0.063 -0.28,-0.16 -0.387,-0.303 -0.001,-10e-4 -0.127,-0.193 -0.127,-0.193 l -0.109,-0.191 c -0.134,-0.23 -0.261,-0.404 -0.573,-0.38 -0.279,-0.013 -0.482,0.099 -0.658,0.222 l -0.194,0.145 -0.11,0.084 c -10e-4,0 -0.316,0.212 -0.316,0.212 -0.013,0.009 -0.426,0.363 -0.426,0.363 l -0.186,0.158 c -10e-4,0 -0.601,0.556 -0.601,0.556 -0.434,0.453 -0.67,0.865 -0.745,1.297 0,10e-4 -0.081,0.314 -0.081,0.314 0,-0.001 -0.025,0.135 -0.025,0.135 l -0.037,0.189 c -0.044,0.209 -0.117,0.441 -0.327,0.574 -0.144,0.042 -0.321,0.012 -0.456,-0.086 -0.108,-0.081 -0.171,-0.194 -0.171,-0.311 -0.121,-1.441 0.384,-2.787 1.386,-3.699 0.508,-0.416 0.936,-0.919 1.288,-1.356 10e-4,0 0.391,-0.496 0.391,-0.496 l 0.784,-0.969 0.088,-0.046 c 0.57,-0.111 0.924,0.396 1.049,0.62 0.494,0.636 0.895,1.353 1.267,2.266 0.021,0.063 0.032,0.131 0.032,0.202 0,0.041 -0.004,0.083 -0.011,0.126 z m -0.682,10.329 -0.02,0.039 c -0.195,0.137 -0.436,0.193 -0.773,0.178 l -0.569,-0.067 -0.19,-0.028 -0.042,-0.013 c -0.571,-0.319 -0.71,-0.968 -0.775,-1.622 0,-0.221 0.073,-0.39 0.223,-0.51 0,0 0.016,-0.013 0.031,-0.025 l 0.041,0 c 0.786,0 1.379,0.235 1.76,0.698 0,0 0.02,0.033 0.02,0.033 0,10e-4 0.117,0.231 0.117,0.231 l 0.177,0.369 0.071,-0.027 c -0.035,0.014 -0.071,0.028 -0.071,0.028 0.053,0.137 0.08,0.263 0.08,0.381 0,0.118 -0.027,0.228 -0.08,0.335 z m 63.561,5.705 c -1.523,0.09 -2.269,-1.552 -3.162,-2.506 -0.747,-0.865 -2.209,-1.372 -2.178,-2.655 -0.269,-0.507 -0.33,-1.312 -0.568,-1.97 -0.208,-0.536 -0.417,-1.312 -1.134,-1.432 -1.283,-0.208 -2.834,0.15 -3.639,-1.045 -0.835,-0.896 0.089,-1.94 0.239,-2.806 0.358,-1.103 0.388,-2.565 0.209,-3.699 -0.031,-0.656 -0.478,-1.192 -0.359,-1.849 0.299,-0.567 1.015,-0.149 1.461,-0.09 1.672,0.477 3.641,0.239 5.162,-0.417 2.088,-1.015 3.76,-3.133 3.67,-5.55 -0.299,-3.132 -2.536,-5.697 -4.951,-7.726 -0.449,-0.388 -1.016,-0.806 -1.166,-1.373 -0.058,-1.223 1.313,-0.627 2,-0.924 0.835,-0.209 1.671,-0.418 2.357,-0.895 1.82,-1.224 2.209,-3.372 1.85,-5.46 -0.06,-0.179 -0.06,-0.449 -0.328,-0.449 -0.33,0.27 -0.657,0.658 -1.074,0.896 -1.163,0.686 -2.716,0.567 -3.939,1.164 -1.522,0.656 -3.401,1.581 -4.057,3.311 -0.179,0.866 0.03,1.76 0.418,2.477 1.849,2.923 5.756,4.832 6.384,8.353 0.238,1.432 -0.478,2.476 -1.582,3.282 -1.67,1.014 -4.176,0.656 -5.846,-0.239 -3.222,-1.611 -6.027,-4.296 -9.487,-5.4 -2.178,-0.984 -4.864,-0.746 -6.803,-2.268 -1.461,-0.955 -2.805,-2.207 -4.445,-2.625 -1.134,-0.388 -2.416,-0.328 -3.46,-0.894 -1.075,-0.956 -2.207,-1.85 -3.461,-2.477 -1.73,-0.865 -3.639,-1.312 -5.549,-1.73 -1.134,-0.269 -1.552,-1.521 -2.477,-2.149 -1.582,-1.252 -3.341,-2.147 -5.489,-1.969 -0.895,0.061 -1.581,0.657 -2.268,1.253 -4.564,3.998 -9.785,6.743 -13.961,11.307 -2.805,2.895 -3.551,6.564 -4.595,10.115 -1.491,5.369 -2.118,11.279 -7.518,14.59 -0.09,0.15 -0.09,0.419 0.089,0.538 1.432,0.358 2.833,-0.21 3.789,-1.194 0.925,-1.462 1.91,-2.864 3.162,-4.206 l 0.299,-0.149 c 0.149,0.029 0.328,0.119 0.269,0.328 -0.359,1.193 -1.434,2.059 -1.79,3.252 -0.478,1.431 -1.851,2.535 -3.015,3.55 l -0.029,0.178 c 0,0.15 0.148,0.3 0.299,0.329 2.626,0.119 4.505,-1.76 6.265,-3.521 0.18,-0.178 0.417,-0.148 0.656,-0.09 0.776,0.598 1.492,1.493 2.507,1.702 1.073,-0.15 2.207,-0.298 3.341,-0.209 1.58,0.478 3.103,1.134 4.684,1.67 0.805,-0.029 1.402,-0.805 1.819,-1.461 0.328,-0.775 -0.148,-1.552 -0.089,-2.297 0.388,-0.239 0.835,0.058 1.253,-0.06 0.178,-0.12 0.328,-0.329 0.328,-0.537 -0.297,-1.372 -1.522,-2.387 -1.909,-3.672 -0.597,-1.642 -2.536,-2.625 -2.894,-4.386 0.089,-0.119 0.238,-0.298 0.389,-0.178 1.282,0.924 2.416,2.147 3.997,2.385 1.193,0.121 2.415,0.239 3.61,0.15 0.178,-0.06 0.327,-0.269 0.268,-0.477 -0.507,-1.073 -0.985,-2.148 -1.284,-3.312 -0.417,-1.462 -0.715,-3.49 -0.238,-5.101 0.089,-0.12 0.477,-0.349 0.657,-0.29 0.238,0.06 0.533,0.349 0.563,0.558 0.179,2.536 -0.086,4.863 1.436,6.862 0.655,1.044 1.789,1.252 2.595,2.058 0.298,0.418 0.359,1.104 0.15,1.582 l -1.82,2.687 c -0.419,0.597 -0.836,1.253 -0.985,1.91 -0.149,0.745 -0.061,1.462 0,2.177 -0.119,0.06 -0.178,-0.12 -0.298,-0.178 -0.478,-0.985 -1.015,-2.238 -0.508,-3.401 l 2.297,-3.553 0.09,-0.269 c -0.507,-0.269 -1.075,-0.537 -1.611,-0.656 -0.268,0.119 -0.446,0.387 -0.626,0.626 l -2.238,4.061 c -0.15,0.476 -0.299,0.834 -0.179,1.342 0.119,0.596 0.268,1.194 0.536,1.699 0.179,0.836 0.329,1.404 0.717,2.15 0.567,0.626 1.344,0.059 2.059,0.239 0.716,0.178 0.985,1.044 1.7,1.252 1.611,0.537 3.342,0.835 4.951,1.462 0.837,0.269 2.03,0.597 2.776,-0.09 1.044,-0.566 1.313,-1.67 1.492,-2.715 0.327,-0.448 0.983,-0.268 1.462,-0.416 0.895,-0.598 1.192,-1.673 1.849,-2.477 l 0.119,-0.418 c -0.09,-0.269 -0.328,-0.419 -0.566,-0.507 l -3.043,0 c -1.403,0.178 -1.522,1.729 -2.119,2.685 -0.328,0.596 -0.984,0.835 -1.67,0.776 -1.432,-0.388 -3.193,-0.598 -3.849,-2.149 -0.09,-0.387 -0.09,-0.864 0.209,-1.134 0.745,-0.865 1.64,-1.849 2.565,-2.565 1.313,-0.269 2.597,-1.254 3.282,-2.418 0.359,-0.509 0.298,-1.254 0.896,-1.642 0.178,-0.03 0.578,-0.042 0.697,0.137 0.27,0.864 -0.217,1.485 -0.485,2.232 3.252,0.328 5.774,-0.613 8.936,-0.493 1.342,0 2.546,0.154 3.859,0.064 1.312,-0.059 2.744,-0.598 3.162,-1.97 0.596,-1.76 -0.234,-3.759 -0.534,-5.429 l 0.362,-0.285 c 0.209,-0.119 0.56,0.045 0.709,0.165 0.567,1.581 0.955,3.491 1.194,5.221 0.238,1.522 0.895,2.512 1.729,3.796 1.522,2.266 4.207,3.16 6.863,2.594 3.222,-0.238 5.996,1.459 7.966,3.965 l 0,0.149 c -0.061,0.119 -0.18,0.268 -0.33,0.239 -1.699,-1.313 -3.4,-2.715 -5.579,-2.983 -2.202,-0.401 -4.176,0.746 -6.473,-0.179 -2.769,-0.911 -3.929,-2.617 -5.101,-5.342 l -0.239,0 c -0.179,0.029 -0.298,0.208 -0.329,0.388 l 0.299,1.851 c 0.359,1.491 0.836,3.252 2.447,3.938 1.253,0.745 2.476,1.82 4.027,1.402 2.715,-0.597 5.459,0.179 7.548,1.701 0.686,0.387 1.222,1.103 1.969,1.372 0.805,0.327 1.79,0.148 2.446,-0.388 1.522,-0.506 1.881,1.402 2.925,2.088 0.924,0.895 2.771,0.524 3.995,0.524 l -0.029,-0.136 c -0.148,-1.223 -0.477,-2.178 -0.953,-3.252 z"
           id="path38"
           inkscape:connector-curvature="0" />
        <path
           style="fill:#dd1a47;stroke:none"
           d="m 355.85,364.931 c -0.805,0.149 -1.73,-0.031 -2.536,0.089 -0.358,0.537 -0.686,1.193 -0.597,1.91 0.09,0.746 0.925,0.804 1.462,1.013 0.508,0.059 1.253,0.239 1.523,-0.297 0.298,-0.776 0.566,-1.611 0.685,-2.447 -0.059,-0.239 -0.299,-0.328 -0.537,-0.268 z"
           id="path40"
           inkscape:connector-curvature="0" />
        <path
           style="fill:#dd1a47;stroke:none"
           d="m 398.243,365.855 c -0.596,-0.507 -1.222,0.239 -1.521,0.687 0.209,0.716 0.805,1.313 1.253,1.968 0.239,0.358 0.626,0.597 1.045,0.627 0.416,0 0.745,-0.209 1.043,-0.447 0.209,-0.27 0.448,-0.597 0.359,-0.984 -0.567,-0.776 -1.462,-1.255 -2.179,-1.851 z"
           id="path42"
           inkscape:connector-curvature="0" />
        <path
           style="fill:#173152;stroke:none"
           d="m 284.308,393.93 1.948,1.464 4.869,-6.478 -1.949,-1.465 -4.868,6.479 z m -6.333,8.426 1.948,1.465 4.869,-6.478 -1.949,-1.465 -4.868,6.478 z m 10.717,-18.318 3.897,2.929 c 1.08,0.811 1.296,2.334 0.485,3.414 l -4.473,5.951 c -0.673,0.895 -1.325,0.941 -1.997,0.848 0.336,0.541 0.434,1.232 -0.437,2.391 l -4.295,5.715 c -0.811,1.079 -2.333,1.295 -3.413,0.484 l -3.898,-2.929 14.131,-18.803 z"
           id="path44"
           inkscape:connector-curvature="0" />
        <path
           style="fill:#173152;stroke:none"
           d="m 296.299,400.888 2.286,0.848 2.822,-7.596 -2.285,-0.848 -2.823,7.596 z m 1.387,-10.73 4.57,1.698 c 1.266,0.47 1.906,1.867 1.436,3.133 l -2.593,6.979 c -0.39,1.05 -1.002,1.279 -1.673,1.381 0.476,0.423 0.766,1.058 0.262,2.417 l -2.73,7.349 c -0.23,0.617 -0.155,1.172 -0.053,1.843 l -2.346,-0.872 c -0.076,-0.554 -0.093,-1.264 0.113,-1.82 l 3.064,-8.244 -2.285,-0.85 -3.671,9.881 -2.286,-0.848 8.192,-22.047 z"
           id="path46"
           inkscape:connector-curvature="0" />
        <path
           style="fill:#173152;stroke:none"
           d="m 309.4,404.139 2.429,0.202 0.672,-8.077 -2.429,-0.201 -0.672,8.076 z m -1.843,-7.261 c 0.167,-2.002 1.945,-3.507 3.948,-3.341 2.002,0.167 3.507,1.944 3.341,3.947 l -1.662,19.993 -2.43,-0.202 0.873,-10.506 -2.429,-0.201 -0.873,10.505 -2.43,-0.202 1.662,-19.993 z"
           id="path48"
           inkscape:connector-curvature="0" />
        <path
           style="fill:#173152;stroke:none"
           d="m 322.167,410.733 2.377,-0.535 0.809,3.6 2.378,-0.535 -1.777,-7.907 -2.378,0.535 c -1.317,0.296 -2.616,-0.526 -2.912,-1.844 l -1.554,-6.91 c -0.44,-1.961 0.805,-3.93 2.766,-4.37 1.959,-0.44 3.928,0.805 4.368,2.766 l 0.586,2.604 -2.379,0.534 -0.808,-3.6 -2.378,0.535 1.777,7.906 2.377,-0.534 c 1.318,-0.297 2.617,0.525 2.913,1.843 l 1.554,6.911 c 0.441,1.961 -0.805,3.929 -2.765,4.37 -1.961,0.44 -3.928,-0.805 -4.369,-2.766 l -0.585,-2.603 z"
           id="path50"
           inkscape:connector-curvature="0" />
        <path
           style="fill:#173152;stroke:none"
           d="m 329.251,390.686 2.194,-1.061 10.235,21.174 -2.194,1.061 -10.235,-21.174 z"
           id="path52"
           inkscape:connector-curvature="0" />
        <path
           style="fill:#173152;stroke:none"
           d="m 335.292,387.484 1.858,-1.577 13.64,16.072 1.858,-1.577 -3.154,-3.717 1.859,-1.576 4.731,5.574 -5.575,4.731 -15.217,-17.93 z"
           id="path54"
           inkscape:connector-curvature="0" />
      </g>
    </g>
  </g>
</svg>
