<svg id="Layer_3" data-name="Layer 3" xmlns="http://www.w3.org/2000/svg" viewBox="0 0 600 600"><defs><style>.cls-1{fill:#fff;}.cls-2{fill:#e01b22;}.cls-3{fill:#023f87;}.cls-4{fill:#d19c45;}</style></defs><path class="cls-1" d="M508,237.21q0,95.22.06,190.43c0,5.89-2,10.07-6.75,13.57Q436,489.6,370.9,538.21l-62.37,46.43c-6,4.45-11,4.53-16.94.09q-62.14-46.25-124.27-92.53c-22.59-16.82-45.11-33.74-67.84-50.36-5.38-3.93-7.59-8.49-7.58-15.14q.19-190.3.1-380.59a22.13,22.13,0,0,1,.41-5.57A11.59,11.59,0,0,1,102,31.7c16.24-3.13,32.43-6.6,48.78-9q30.53-4.41,61.27-7.19a888.9,888.9,0,0,1,99-3.31c16.65.38,33.32.83,49.93,2,20.61,1.43,41.25,3,61.73,5.66C446.61,23,470.35,27.25,494.15,31a43.72,43.72,0,0,1,5.19,1.16A12,12,0,0,1,508,43.14V237.21Z"/><rect class="cls-2" x="281.47" y="22.04" width="19.1" height="38.76"/><rect class="cls-3" x="299.45" y="22.04" width="19.1" height="38.76"/><rect class="cls-2" x="281.47" y="330.45" width="19.1" height="29.21"/><rect class="cls-3" x="299.45" y="330.45" width="19.1" height="29.21"/><polygon class="cls-2" points="280.91 532.69 280.91 561.74 280.91 565.83 300.01 581 300.01 547.29 280.91 532.69"/><polygon class="cls-3" points="318.55 532.69 318.55 561.74 318.55 565.83 299.45 581 299.45 547.29 318.55 532.69"/><path class="cls-4" d="M345.46,414h-91v77.31c0,4.75,1.29,8.43,3.81,10.93s6.18,3.65,10.91,3.78c13.63.38,22.22,3.39,29,10.93l1.82,2.22,1.83-2.22c6.74-7.54,15.33-10.55,29-10.93,4.73-.13,8.4-1.3,10.91-3.78s3.81-6.18,3.81-10.93Z"/><path class="cls-3" d="M330.75,503.66c-14.24.46-24,3.67-30.79,11.46-6.79-7.79-16.54-11-30.78-11.46-8.18-.26-12.35-4-12.35-12.31v-42H343.1v42C343.1,499.62,338.93,503.4,330.75,503.66Z"/><rect class="cls-2" x="256.83" y="416.39" width="86.26" height="30.57"/><polygon class="cls-4" points="310.19 455.35 310.19 497.53 337.18 497.53 337.18 484.11 325.11 484.11 325.11 455.35 310.19 455.35"/><polygon class="cls-1" points="323.28 457.18 323.28 485.94 335.34 485.94 335.34 495.7 312.03 495.7 312.03 457.18 323.28 457.18"/><path class="cls-4" d="M261.08,476.44a22.19,22.19,0,1,0,22.26-22.12h-.07A22.18,22.18,0,0,0,261.08,476.44Z"/><path class="cls-1" d="M263,476.44a20.25,20.25,0,1,1,20.33,20.17h-.08A20.23,20.23,0,0,1,263,476.44Z"/><path class="cls-4" d="M295.05,463.9a1.4,1.4,0,0,1-1.88-.65,1.12,1.12,0,0,1-.12-.35,1.35,1.35,0,0,0,0,1.91h0a2.33,2.33,0,0,0-1.3,1.93,2.91,2.91,0,0,0,2.28-.39c.07.34.52.9,1.5.72-.5-.54-.74-1.5,0-1.9l.19-.09a1.37,1.37,0,0,1,1.82.63l0,.08a1.61,1.61,0,0,1-.68,2.07l-4.71,2.43a3.3,3.3,0,0,0-1.75,4.33l.09.19,2.17,4.28a1.19,1.19,0,0,1-.54,1.59l-.1.05a1.44,1.44,0,0,1-1.85-.6l-2.92-5.68a1.05,1.05,0,0,0,1,.12c-1.28-2.07,1-2,.24-3.86a1.08,1.08,0,0,0,1,.26c-1.14-2.56,1.44-2.53.13-4.55a1,1,0,0,0,.92-.12c-1.6-1.59-.16-2.66-2.11-3.31a.82.82,0,0,0,.71-.62c-1.33.09-2-1.63-3.89-1.39a11.67,11.67,0,0,0-2.17.54c-.41.12-.71,0-1.08.16a2.13,2.13,0,0,0-.3.58,4.23,4.23,0,0,0-1.54.58.9.9,0,0,0,.1.68.23.23,0,0,1,.14.19,3,3,0,0,0,.78,1.67l1.18-.29a3.14,3.14,0,0,1,1.24,1.29c.18.46.1.74-.45.75a15.24,15.24,0,0,1-1.78-.25c-.15.4-.23,1.16.12,1.42a3.93,3.93,0,0,0,1.49.07c-.07,1.09-.86,1.75-2.2,1.31-3.84-1.24-6.31-1.6-7.71-4.72,0-.21.32-2.35-1.22-2.89a3.36,3.36,0,0,1,.18,1.88,1.91,1.91,0,0,0-2.17-1.53,2.17,2.17,0,0,1,1.08,1.66,2.28,2.28,0,0,0-2.06-.19c3.18,1.43,2.1,3.88.69,4.1a1.93,1.93,0,0,0,2.09,0l1.91,2.43a1.36,1.36,0,0,0-.84.6,1.9,1.9,0,0,1,1.25.29,3.37,3.37,0,0,1,.08,2.06,2,2,0,0,0,1.15-1.41l2.81,1.64c-1.42.74-5.65,2.87-7.81,1.87-.33-.15-2.46-1.06-3.64.13a2,2,0,0,1,1.71.62,2.2,2.2,0,0,0-2.06,1.35,4,4,0,0,1,1.88-.18,2.21,2.21,0,0,0-.79,1.89s1.72-1.58,3.12-1.18c.65.19.34,1.33.21,1.61a1.64,1.64,0,0,0,1.33-1.28l3.27-.14c.22.11.31.57.11.94a1.23,1.23,0,0,0,.94-1,1.27,1.27,0,0,1,1.15,1.24,1.5,1.5,0,0,0,.22-1.63l3.56-.86,1.23,1.36s-6.37,4-8.54,3.87c.34.76,1.9.67,2.62.4a1.56,1.56,0,0,0-.06,1,1.29,1.29,0,0,0,1-.6s.95,1.9.8,2.24c-.45,1-3.57,1.19-3.57,1.19-.56-.45-2.12-1-3-.32A1.5,1.5,0,0,1,273,487a1.93,1.93,0,0,0-1.93,1.33,2.71,2.71,0,0,1,1.84-.18,1.92,1.92,0,0,0-.77,1.79,3.57,3.57,0,0,1,3-1.22c.5.11.53.85.38,1.38a2.11,2.11,0,0,0,1.27-1.29l3.41-1.06a2.29,2.29,0,0,1,.1.78,1.17,1.17,0,0,0,.88-.94,1.8,1.8,0,0,0,1.64.79,14.09,14.09,0,0,1-1.38-4.15c0-.82,2.49-1.31,2.9-1.43l1.2,1.75s-1.22.59-1.43,1.37a4,4,0,0,1,2.21-.36,2.61,2.61,0,0,1,.57,1.21,1.54,1.54,0,0,0,.56-1c2.73.86,2.73,1.28,2.07,4-1.24-.12-3.21-.18-3.64,1.08a3.57,3.57,0,0,1,2.07.1,1.78,1.78,0,0,0-1.37,2,2.76,2.76,0,0,1,2.17-.93c-.62.38-1.4,1.18-.72,2.18a2.51,2.51,0,0,1,2.66-1.27l.85-1.84c.35-.75,1.3-.66,1.41.3a1.76,1.76,0,0,0-.4-2.46h0l.77-1.67c.25,0,.9.19,1.28-.26a1.56,1.56,0,0,1-.9-.65c.4,0,1.45.19,2-.5-1.7-.34-5.66-2.75-6-4.23a2.77,2.77,0,0,0,2.87.37,2.54,2.54,0,0,0,1.35-1.38c.71-1.45,2.56-.27,2.85-2.95-.74,1-2.38.35-2.7,1.66-.66-2.89,3.52-1,3.55-5.37-1,1.79-4.72,1.15-4.42,3.41-1.58-4.66,5.5-1.64,5.12-7.69-1.39,2.73-6.88,2-6.36,5.24l-.3-.59a2,2,0,0,1,.88-2.69l.12-.05,4.85-2.49h0a2.89,2.89,0,0,0,1.26-3.74,2.65,2.65,0,0,0-3.42-1.56Zm-12.79-1.2s-.12-.37.35-.47a3,3,0,0,1,1.46.36,1.6,1.6,0,0,1-1.81.11Zm0,2.82a5.72,5.72,0,0,1-5.42,0c.36,1.11,3.39,2.59,5.44,0Z"/><path class="cls-1" d="M286.35,442.53a4.53,4.53,0,0,1-6.11,0c-1.14-1.11-1.11-2.47-1.11-4.35s0-3.24,1.11-4.34a4.49,4.49,0,0,1,6.11,0c1.14,1.1,1.12,2.46,1.12,4.34S287.49,441.42,286.35,442.53Zm-1.64-7.41a1.84,1.84,0,0,0-1.41-.58,1.86,1.86,0,0,0-1.42.58c-.43.46-.54,1-.54,3.06s.11,2.6.54,3.06a1.86,1.86,0,0,0,1.42.58,1.84,1.84,0,0,0,1.41-.58c.43-.46.56-1,.56-3.06S285.14,435.58,284.71,435.12Z"/><polygon class="cls-1" points="268.97 441.73 264.25 441.73 264.25 432.85 264.13 432.74 262.16 432.74 262.05 432.85 262.05 443.51 262.16 443.63 268.97 443.63 269.09 443.51 269.09 441.85 268.97 441.73"/><polygon class="cls-1" points="277.45 432.74 275.24 432.74 273.16 437.13 271.05 432.74 268.77 432.74 268.7 432.81 272.05 439.16 272.05 443.51 272.17 443.63 274.12 443.63 274.24 443.51 274.24 439.16 277.57 432.85 277.45 432.74"/><polygon class="cls-1" points="297.21 432.74 297.1 432.85 297.1 439.4 292.63 432.74 290.78 432.74 290.66 432.85 290.66 443.51 290.78 443.63 292.75 443.63 292.86 443.51 292.86 436.94 297.33 443.63 299.18 443.63 299.3 443.51 299.3 432.85 299.18 432.74 297.21 432.74"/><path class="cls-1" d="M319.43,432.85l-.12-.12h-1.58l-.12.12-4,10.69.09.09h2.18l.68-1.93h4l.67,1.93h2.18l.08-.09Zm-2.28,7.06,1.43-4,1.37,4Z"/><polygon class="cls-1" points="325.61 432.74 325.49 432.85 325.49 443.51 325.61 443.63 327.58 443.63 327.69 443.51 327.69 432.85 327.58 432.74 325.61 432.74"/><polygon class="cls-1" points="309.42 432.74 309.3 432.85 309.3 439.4 304.83 432.74 302.99 432.74 302.87 432.85 302.87 443.51 302.99 443.63 304.95 443.63 305.07 443.51 305.07 436.94 309.54 443.63 311.39 443.63 311.51 443.51 311.51 432.85 311.39 432.74 309.42 432.74"/><path class="cls-1" d="M337.63,438.1a3.83,3.83,0,0,0-2.15-.84l-1.33-.18a2,2,0,0,1-1-.43,1,1,0,0,1-.33-.78c0-.75.57-1.38,1.74-1.38a3.21,3.21,0,0,1,2.23.69H337l1.24-1.18v-.15a5,5,0,0,0-3.57-1.2c-2.44,0-3.93,1.36-3.93,3.31a2.84,2.84,0,0,0,.81,2.14,4,4,0,0,0,2.19.9l1.36.18a1.72,1.72,0,0,1,1,.39,1.18,1.18,0,0,1,.35.92c0,.87-.7,1.34-2,1.34a3.82,3.82,0,0,1-2.64-.85h-.17l-1.25,1.22v.16a5.48,5.48,0,0,0,4,1.36c2.36,0,4.18-1.19,4.18-3.31A3,3,0,0,0,337.63,438.1Z"/><path class="cls-1" d="M268.29,429.36a4.19,4.19,0,0,1-5.81,0c-1.09-1.09-1.06-2.42-1.06-4.27s0-3.19,1.06-4.27a4,4,0,0,1,2.91-1.18,3.9,3.9,0,0,1,2.9,1.18c1.09,1.08,1.07,2.42,1.07,4.27S269.38,428.27,268.29,429.36Zm-1.55-7.28a1.73,1.73,0,0,0-1.35-.57,1.8,1.8,0,0,0-1.36.57c-.4.45-.51.95-.51,3s.11,2.55.51,3a1.8,1.8,0,0,0,1.36.57,1.73,1.73,0,0,0,1.35-.57c.4-.45.52-.94.52-3s-.12-2.55-.52-3Z"/><path class="cls-1" d="M319.24,429.71l-.84-.83c.68-1,.67-2.18.67-3.79,0-1.85,0-3.19-1.07-4.27a4.17,4.17,0,0,0-5.81,0c-1.09,1.08-1.06,2.42-1.06,4.27s0,3.18,1.06,4.27a4.24,4.24,0,0,0,5.08.58l.87.87h.17l.93-.94Zm-2.46-2.46-.8-.8-1.12,1.1.94.92a1.23,1.23,0,0,1-.7.19,1.76,1.76,0,0,1-1.36-.57c-.4-.45-.51-.94-.51-3s.11-2.56.51-3a1.76,1.76,0,0,1,1.36-.57,1.71,1.71,0,0,1,1.34.57c.41.45.53,1,.53,3A7.14,7.14,0,0,1,316.78,427.25Z"/><polygon class="cls-1" points="277.65 428.57 273.37 428.57 273.37 419.85 273.25 419.74 271.39 419.74 271.27 419.85 271.27 430.32 271.39 430.44 277.65 430.44 277.77 430.32 277.77 428.69 277.65 428.57"/><polygon class="cls-1" points="284.86 419.74 282.76 419.74 280.78 424.05 278.77 419.74 276.67 419.74 276.55 419.85 279.72 426.05 279.72 430.32 279.84 430.44 281.69 430.44 281.81 430.32 281.81 426.05 284.98 419.85 284.86 419.74"/><polygon class="cls-1" points="293.97 419.74 291.18 425.52 288.37 419.74 286.42 419.74 286.31 419.85 286.31 430.32 286.43 430.44 288.29 430.44 288.4 430.32 288.4 424.2 290.47 428.26 291.89 428.26 293.94 424.2 293.94 430.32 294.06 430.44 295.92 430.44 296.04 430.32 296.04 419.85 295.92 419.74 293.97 419.74"/><polygon class="cls-1" points="309.2 419.74 307.34 419.74 307.22 419.85 307.22 430.32 307.34 430.44 309.2 430.44 309.32 430.32 309.32 419.85 309.2 419.74"/><path class="cls-1" d="M326.85,419.73l-.11.12v6.85A1.87,1.87,0,0,1,323,427a1.22,1.22,0,0,1,0-.27v-6.85l-.12-.12H321l-.12.12v6.92a4,4,0,0,0,7.91,0v-6.92l-.12-.12Z"/><polygon class="cls-1" points="332.83 428.57 332.83 425.97 336.96 425.97 337.07 425.86 337.07 424.23 336.96 424.11 332.83 424.11 332.83 421.6 337.69 421.6 337.81 421.48 337.81 419.85 337.69 419.74 330.86 419.74 330.74 419.85 330.74 430.32 330.86 430.44 337.69 430.44 337.81 430.32 337.81 428.69 337.69 428.57 332.83 428.57"/><path class="cls-1" d="M302.21,419.73h-4l-.12.12v10.47l.12.12H300l.12-.12v-3.54h2.06a3.53,3.53,0,1,0,0-7Zm-.1,5.17h-2v-3.3h2a1.58,1.58,0,0,1,1.55,1.61v.05a1.57,1.57,0,0,1-1.48,1.64Z"/><path d="M508,237.21q0,95.22.06,190.43c0,5.89-2,10.07-6.75,13.57Q436,489.6,370.9,538.21l-62.37,46.43c-6,4.45-11,4.53-16.94.09q-62.14-46.25-124.27-92.53c-22.59-16.82-45.11-33.74-67.84-50.36-5.38-3.93-7.59-8.49-7.58-15.14q.19-190.3.1-380.59a22.13,22.13,0,0,1,.41-5.57A11.59,11.59,0,0,1,102,31.7c16.24-3.13,32.43-6.6,48.78-9q30.53-4.41,61.27-7.19a888.9,888.9,0,0,1,99-3.31c16.65.38,33.32.83,49.93,2,20.61,1.43,41.25,3,61.73,5.66C446.61,23,470.35,27.25,494.15,31a43.72,43.72,0,0,1,5.19,1.16A12,12,0,0,1,508,43.14V237.21Zm-228.79,97.7a131.68,131.68,0,0,1-39.74-12.22c-3.74-1.84-7.41-3.81-11.55-5.95V493.23c-1.38-1-2.28-1.62-3.16-2.27q-47.92-34.8-95.87-69.57a5.43,5.43,0,0,1-2.57-5q.12-61.38.06-122.74V67.83c0-1.83.07-3,2.36-3.56a734.14,734.14,0,0,1,88.56-14.1c3.49-.34,7-.59,10.85-.91v28a141.15,141.15,0,0,1,53.28-18.73,136.67,136.67,0,0,1,37.14,0,141,141,0,0,1,53.59,18.79V49.23A709.62,709.62,0,0,1,473.62,64.88V69q0,171.6.14,343.21c0,5.45-1.61,8.6-6.05,11.78-31,22.21-61.85,44.76-92.73,67.19-.84.61-1.72,1.17-3.07,2.09V316.77c-1.22.64-2.12,1.08-3,1.58a140.63,140.63,0,0,1-43.76,16s-16.72,2.32-25.71,2.32a138.18,138.18,0,0,1-20.21-1.76Zm2.24-310.06a15.69,15.69,0,0,0-1.68,0c-18.24.76-36.69.59-54.88,1.95-19.3,1.43-38.59,3.32-57.74,6-20.25,2.83-40.34,6.87-60.51,10.3-2.16.37-2.61,1.35-2.61,3.37q.07,190.27,0,380.57a5,5,0,0,0,2.33,4.61Q190.74,494.37,275,557.18c2,1.48,9.18,6.73,10.27,7.54,4.36,3.23,8.76,6.41,13.05,9.73,1.26,1,2.18,1.13,3.37,0a27.43,27.43,0,0,1,2.68-2c4.55-3.36,15.84-11.75,16.43-12.19q86-64,172.05-128A6.85,6.85,0,0,0,496,426q-.12-77.52-.06-155V47.15c0-2.34-.49-3.36-3-3.87A857.21,857.21,0,0,0,397.53,29.4c-20.69-1.8-41.43-3-62.16-4.28-3.45-.22-6.93-.19-10.42-.13Zm19.61,41.9c7.74,24.78,15.37,49.26,23.09,73.73a5.78,5.78,0,0,0,2.17,2.27c5.3,4,10.73,7.75,15.89,11.87a6.5,6.5,0,0,0,4.41,1.76q37.06-.13,74.13-.17c.9,0,1.8-.08,2.74-.13C409.17,107,358,65.82,301.08,66.75Zm123.63,91.79c-.88.57-1.52.94-2.12,1.36q-30.87,21.69-61.7,43.47a8,8,0,0,0-2.28,3.82q-3,8.81-5.83,17.81a6.81,6.81,0,0,0-.27,3.87c5,15,10.19,30.07,15.33,45.09,3.17,9.24,6.37,18.48,9.66,28.06,22.93-17.39,38.78-39.39,47.17-66.57,7.87-25.54,7.76-51.11.06-76.91ZM176.14,156c.82.14,1.09.23,1.37.24q37.07.07,74.13.1a4.49,4.49,0,0,0,2.8-1.38,65.29,65.29,0,0,1,19.64-13.79,4.91,4.91,0,0,0,2.37-2.7c5.31-16.63,10.5-33.29,15.71-49.95l6.86-22c-28.11.39-53.28,8.52-75.67,24.92S185.22,129.32,176.14,156Zm46.38,145.75c.17-.32.32-.66.46-1q11.78-34.32,23.47-68.66A5.64,5.64,0,0,0,246,228a65.26,65.26,0,0,1-8-23.48,5.77,5.77,0,0,0-2.25-3.5Q208,181.31,180.07,161.76c-1.49-1-3-2.07-4.57-3.15-15.87,48.39.1,109.22,47,143.1Zm2.46,1.74c45.17,33.76,111.21,30.14,149.79-.05-.37-.31-.7-.61-1.06-.88l-59-44.29a6.77,6.77,0,0,0-5.12-1.33c-5.75.43-11.52.48-17.29.63-2.67.08-5.18-.84-7.88,1.28-9.48,7.46-19.28,14.5-28.94,21.73-10.09,7.51-20.16,15.1-30.48,22.87ZM241.49,197a57.1,57.1,0,1,0,57.2-57h-.15a56.84,56.84,0,0,0-57.05,56.63Zm127,95.5.43-.3c-6.77-19.86-13.55-39.73-20.49-60a19.45,19.45,0,0,1-2.43,3c-2.3,1.87-2,3.89-1.11,6.42,2.66,7.27,5.06,14.64,7.55,22,1.28,3.75,2.54,7.52,4,11.85-1-.63-1.35-.86-1.72-1.13-9.19-6.91-18.36-13.84-27.6-20.68a4.64,4.64,0,0,0-3.16-1.06,35.39,35.39,0,0,0-5.71,2.32Zm43.06-131H348.22a26.56,26.56,0,0,0,2.55,4,4.59,4.59,0,0,0,2.87,1.56c6.27.11,12.54,0,18.81,0H390.8a6.31,6.31,0,0,1-2.21,2.35q-13.69,9.78-27.37,19.6c-.82.59-1.84,1.57-1.91,2.43a50,50,0,0,0,.41,6.7ZM231.13,292.05l.43.4,49.32-37a34,34,0,0,1-4-1.53c-2.05-1.13-3.65-.87-5.51.65-4,3.26-8.18,6.24-12.29,9.32l-15.45,11.54c.34-1.14.45-1.56.59-2,3.54-10.42,7.11-20.84,10.59-31.28a3.55,3.55,0,0,0-.09-2.75,46.69,46.69,0,0,0-4.06-4.6Zm68.58-189.67.66.06q4.88,15.35,9.74,30.68c1.43,4.52,3.2,5.73,8.27,5.61L300.32,81.18h-.63c-5.93,18.88-11.85,37.76-17.91,57.07a17.86,17.86,0,0,1,3.6-.81c2.9,0,3.91-1.69,4.56-4.24.95-3.7,2.23-7.32,3.4-11,2.11-6.58,4.25-13.2,6.37-19.82ZM209,167.66l.32-.49h32c4.4,0,6-1.26,7.12-5.55H188.59l48.93,34.55a22.36,22.36,0,0,1,.37-4.55c.74-2.45-.36-3.69-2.26-5-6.84-4.72-13.58-9.61-20.35-14.45C213.19,170.68,211.11,169.16,209,167.66Z"/><path d="M315.65,150.35V166.8l-19.88-1.35V185.7h14.82v17.77h-15V245.1a3.92,3.92,0,0,1-.6.23c-9.16-.46-9.16-.46-9.16-9.54q0-41.43-.06-82.86c0-2.67.51-3.83,3.48-4.27A60.88,60.88,0,0,1,315.65,150.35Z"/><path d="M280.17,242.31c-3.22-1.64-6.14-2.91-8.8-4.6-.89-.56-1.33-2.13-1.59-3.32-1.92-8.86-3.94-17.7-5.48-26.62-.56-3.3-2-4.51-5.41-4.39v22.68l-.73.16c-3.21-5.5-8.37-9.79-7.86-17.4.61-8.95.06-18,.21-26.95a11.84,11.84,0,0,1,1.46-5.52c3.46-6,7-12,12.56-16.37,5.15-4,9.42-2.93,11.5,3.24a49.06,49.06,0,0,1,.28,30.86,14.59,14.59,0,0,1-3.12,5.56,4.84,4.84,0,0,0-1.3,5.17c2.85,12,5.54,24,8.27,36.05A10,10,0,0,1,280.17,242.31Zm-21.32-51.17c3.77-.08,7.48.68,9.32-3.09a16,16,0,0,0,.33-13,3.09,3.09,0,0,0-2.17-1.69c-1.72-.11-7.41,5.91-7.46,7.73C258.79,184.31,258.85,187.56,258.85,191.14Z"/><path d="M345,182.84,339.4,185c-.86-2.86-1.47-5.5-2.44-8s-2.3-5-5.17-4.84-3.3,3.06-3.76,5.32a98.85,98.85,0,0,0,.09,39.26,8,8,0,0,0,1.12,2.55c1.65,2.56,3.64,2.82,5.27.24,2.21-3.5,3.9-7.34,6-11.46l4.5,1.43c-2.09,7.94-4.14,15.67-9.23,22.17-.23.29-.48.58-.73.85-5.46,5.73-10.59,5.1-13.14-2.37a88.88,88.88,0,0,1-4.31-19.87,128.5,128.5,0,0,1,1.57-38.55,42.06,42.06,0,0,1,4.08-11.24c2.28-4.27,5.57-4.89,9.26-1.81a23.2,23.2,0,0,1,6.11,7.49C341.15,171.48,342.88,177.09,345,182.84Z"/><path class="cls-3" d="M262.93,381.16a3.74,3.74,0,0,1-1.4,3.14,6.32,6.32,0,0,1-4,1.11H256v5.3h-1.57V377.23h3.5Q262.94,377.23,262.93,381.16Zm-7,2.9h1.41a5.25,5.25,0,0,0,3-.67,2.5,2.5,0,0,0,.93-2.16,2.32,2.32,0,0,0-.88-2,4.59,4.59,0,0,0-2.73-.66H256Z"/><path class="cls-3" d="M275.11,390.71l-1.67-4.29H268l-1.66,4.29h-1.58l5.33-13.54h1.32l5.3,13.54ZM273,385l-1.57-4.18c-.2-.53-.41-1.17-.63-1.94a16,16,0,0,1-.58,1.94L268.59,385Z"/><path class="cls-3" d="M281.05,385.1v5.61h-1.57V377.23h3.7a5.79,5.79,0,0,1,3.66.95A3.47,3.47,0,0,1,288,381a3.58,3.58,0,0,1-2.72,3.61l3.66,6.06h-1.85l-3.26-5.61Zm0-1.34h2.14a3.71,3.71,0,0,0,2.44-.66,2.47,2.47,0,0,0,.77-2,2.27,2.27,0,0,0-.79-1.93,4.32,4.32,0,0,0-2.53-.59h-2Z"/><path class="cls-3" d="M297.81,378.44a4.43,4.43,0,0,0-3.51,1.48A5.92,5.92,0,0,0,293,384a6.08,6.08,0,0,0,1.24,4.09,4.42,4.42,0,0,0,3.53,1.44A12.19,12.19,0,0,0,301,389v1.38a9.89,9.89,0,0,1-3.46.52,5.82,5.82,0,0,1-4.59-1.8,7.46,7.46,0,0,1-1.62-5.14,8.08,8.08,0,0,1,.78-3.65,5.6,5.6,0,0,1,2.25-2.42,6.85,6.85,0,0,1,3.46-.85,8.33,8.33,0,0,1,3.71.78l-.67,1.34A7.3,7.3,0,0,0,297.81,378.44Z"/><path class="cls-3" d="M312.35,390.71h-7.51V377.23h7.51v1.39h-5.94V383H312v1.39h-5.58v5h5.94Z"/><path class="cls-3" d="M316.23,390.71V377.23h1.57v13.48Z"/><path class="cls-3" d="M324,385.1v5.61h-1.57V377.23h3.7a5.79,5.79,0,0,1,3.66.95A3.43,3.43,0,0,1,331,381a3.59,3.59,0,0,1-2.71,3.61l3.66,6.06H330l-3.27-5.61Zm0-1.34h2.15a3.7,3.7,0,0,0,2.43-.66,2.47,2.47,0,0,0,.78-2,2.29,2.29,0,0,0-.79-1.93,4.32,4.32,0,0,0-2.53-.59h-2Z"/><path class="cls-3" d="M346.64,384a7.43,7.43,0,0,1-1.64,5,6.61,6.61,0,0,1-9.15,0,7.46,7.46,0,0,1-1.62-5.14,7.37,7.37,0,0,1,1.62-5.1,5.86,5.86,0,0,1,4.61-1.81,5.73,5.73,0,0,1,4.54,1.84A7.39,7.39,0,0,1,346.64,384Zm-10.74,0a6.33,6.33,0,0,0,1.17,4.15,4.76,4.76,0,0,0,6.73,0l0,0a8.11,8.11,0,0,0,0-8.29,4.08,4.08,0,0,0-3.37-1.4,4.18,4.18,0,0,0-3.4,1.41A6.35,6.35,0,0,0,335.9,384Z"/><path class="cls-3" d="M254.36,396.43h2.57a5,5,0,0,1,2.55.5,1.77,1.77,0,0,1,.79,1.59,2,2,0,0,1-.35,1.21,1.34,1.34,0,0,1-.92.57v.06a1.82,1.82,0,0,1,1.13.65,2.16,2.16,0,0,1,.35,1.28,2.08,2.08,0,0,1-.82,1.76,3.55,3.55,0,0,1-2.21.63h-3.09Zm1.75,3.27h1a1.84,1.84,0,0,0,1-.22.85.85,0,0,0,.32-.73.74.74,0,0,0-.35-.68,2.18,2.18,0,0,0-1.1-.2h-.92Zm0,1.39v2.14h1.14a1.75,1.75,0,0,0,1.07-.27,1,1,0,0,0,.34-.85c0-.68-.49-1-1.46-1Z"/><path class="cls-3" d="M266.72,401.51v3.17H265v-8.25h2.4a4,4,0,0,1,2.48.62,2.43,2.43,0,0,1,.41,3.15,2.74,2.74,0,0,1-1.13.89q1.86,2.78,2.42,3.59h-1.94l-2-3.17Zm0-1.42h.57a2.17,2.17,0,0,0,1.22-.27,1,1,0,0,0,.4-.87.91.91,0,0,0-.41-.84,2.46,2.46,0,0,0-1.25-.24h-.53Z"/><path class="cls-3" d="M280.5,404.68l-.6-2h-3l-.59,2h-1.89l2.91-8.28h2.14l2.92,8.28Zm-1-3.43-.93-3c-.07-.22-.12-.41-.15-.55-.12.48-.48,1.67-1.07,3.57Z"/><path class="cls-3" d="M291.14,402.39a2.11,2.11,0,0,1-.81,1.76,3.49,3.49,0,0,1-2.23.64,5.11,5.11,0,0,1-2.34-.5v-1.62a8.94,8.94,0,0,0,1.42.52,3.71,3.71,0,0,0,1.05.16,1.55,1.55,0,0,0,.89-.22.77.77,0,0,0,.3-.66.75.75,0,0,0-.13-.43,1.72,1.72,0,0,0-.4-.36,10.88,10.88,0,0,0-1.07-.56,5.65,5.65,0,0,1-1.13-.68,2.8,2.8,0,0,1-.61-.76,2.37,2.37,0,0,1,.52-2.72,3.05,3.05,0,0,1,2-.62,5.11,5.11,0,0,1,1.23.15,7.35,7.35,0,0,1,1.22.43l-.57,1.36a8.27,8.27,0,0,0-1.09-.38,3.48,3.48,0,0,0-.85-.11,1.16,1.16,0,0,0-.76.23.85.85,0,0,0-.16,1,1.56,1.56,0,0,0,.35.33,8.86,8.86,0,0,0,1.1.58,4.53,4.53,0,0,1,1.59,1.11A2.24,2.24,0,0,1,291.14,402.39Z"/><path class="cls-3" d="M295.48,404.68v-8.25h1.75v8.25Z"/><path class="cls-3" d="M302.16,404.68v-8.25h1.75v6.8h3.34v1.45Z"/><path class="cls-3" d="M316.28,404.68h-4.75v-8.25h4.75v1.44h-3v1.81h2.79v1.43h-2.79v2.12h3Z"/><path class="cls-3" d="M320.85,404.68v-8.25h1.75v8.25Z"/><path class="cls-3" d="M329.28,401.51v3.17h-1.75v-8.25h2.4a4.12,4.12,0,0,1,2.49.62,2.14,2.14,0,0,1,.8,1.85,2.17,2.17,0,0,1-.4,1.3,2.66,2.66,0,0,1-1.13.89q1.86,2.78,2.42,3.59h-1.94l-2-3.17Zm0-1.42h.56a2.17,2.17,0,0,0,1.22-.27,1,1,0,0,0,.4-.87.93.93,0,0,0-.4-.84,2.46,2.46,0,0,0-1.25-.24h-.53Z"/><path class="cls-3" d="M345.49,400.54a4.44,4.44,0,0,1-1,3.15,4.39,4.39,0,0,1-5.82,0,4.53,4.53,0,0,1-1-3.16,4.41,4.41,0,0,1,1-3.14,3.8,3.8,0,0,1,2.91-1.09,3.76,3.76,0,0,1,2.91,1.1A4.46,4.46,0,0,1,345.49,400.54Zm-6,0a3.51,3.51,0,0,0,.52,2.09,1.87,1.87,0,0,0,1.57.69c1.4,0,2.09-.92,2.09-2.78s-.69-2.78-2.08-2.78a1.84,1.84,0,0,0-1.57.7,3.49,3.49,0,0,0-.55,2.08Z"/></svg>