<?xml version="1.0" encoding="UTF-8"?>
<svg id="Camada_1" xmlns="http://www.w3.org/2000/svg" version="1.1" xmlns:xlink="http://www.w3.org/1999/xlink" viewBox="0 0 1000 1000">
  <!-- Generator: Adobe Illustrator 29.1.0, SVG Export Plug-In . SVG Version: 2.1.0 Build 142)  -->
  <defs>
    <style>
      .st0 {
        fill: url(#Gradiente_sem_nome_5);
      }

      .st1 {
        fill: #144c77;
      }

      .st2 {
        fill: url(#Gradiente_sem_nome_9);
      }

      .st3 {
        fill: url(#Gradiente_sem_nome_2);
      }

      .st4 {
        fill: #1e2e53;
      }

      .st5 {
        fill: url(#Gradiente_sem_nome_11);
      }

      .st6 {
        fill: #fff;
      }

      .st7 {
        fill: #a3c3d4;
      }

      .st8 {
        fill: url(#Gradiente_sem_nome_13);
      }

      .st9 {
        fill: #256694;
      }

      .st10 {
        fill: url(#Gradiente_sem_nome_12);
      }

      .st11 {
        fill: #2782b2;
      }

      .st12 {
        fill: url(#Gradiente_sem_nome_7);
      }

      .st13 {
        fill: #48a9de;
      }

      .st14 {
        fill: #c9c9cc;
      }

      .st15 {
        fill: #b6bfca;
      }

      .st16 {
        fill: #0a101d;
      }

      .st17 {
        fill: url(#Gradiente_sem_nome_4);
      }

      .st18 {
        fill: #1b3d6e;
      }

      .st19 {
        fill: #313136;
      }

      .st20 {
        fill: url(#Gradiente_sem_nome_6);
      }

      .st21 {
        fill: url(#Gradiente_sem_nome_10);
      }

      .st22 {
        fill: url(#Gradiente_sem_nome_3);
      }

      .st23 {
        fill: url(#Gradiente_sem_nome_8);
      }
    </style>
    <linearGradient id="Gradiente_sem_nome_13" data-name="Gradiente sem nome 13" x1="869.47" y1="655.69" x2="880.32" y2="861.64" gradientUnits="userSpaceOnUse">
      <stop offset="0" stop-color="#d7d6d8"/>
      <stop offset="1" stop-color="#fff"/>
    </linearGradient>
    <linearGradient id="Gradiente_sem_nome_2" data-name="Gradiente sem nome 2" x1="52.68" y1="661.67" x2="53.1" y2="742.09" gradientTransform="translate(-1.5 2505.76) scale(2.5 -2.5)" gradientUnits="userSpaceOnUse">
      <stop offset="0" stop-color="#d2d0d2"/>
      <stop offset="1" stop-color="#fff"/>
    </linearGradient>
    <linearGradient id="Gradiente_sem_nome_3" data-name="Gradiente sem nome 3" x1="65.61" y1="698.21" x2="82.55" y2="699.52" gradientTransform="translate(-1.5 2505.76) scale(2.5 -2.5)" gradientUnits="userSpaceOnUse">
      <stop offset="0" stop-color="#30638f"/>
      <stop offset="1" stop-color="#3a8dbc"/>
    </linearGradient>
    <linearGradient id="Gradiente_sem_nome_4" data-name="Gradiente sem nome 4" x1="81.56" y1="677.41" x2="67.89" y2="684.64" gradientTransform="translate(-1.5 2505.76) scale(2.5 -2.5)" gradientUnits="userSpaceOnUse">
      <stop offset="0" stop-color="#0f4274"/>
      <stop offset="1" stop-color="#306289"/>
    </linearGradient>
    <linearGradient id="Gradiente_sem_nome_5" data-name="Gradiente sem nome 5" x1="292.59" y1="678.28" x2="301.76" y2="742.71" gradientTransform="translate(-1.5 2505.76) scale(2.5 -2.5)" gradientUnits="userSpaceOnUse">
      <stop offset="0" stop-color="#d9d9db"/>
      <stop offset="1" stop-color="#fff"/>
    </linearGradient>
    <linearGradient id="Gradiente_sem_nome_6" data-name="Gradiente sem nome 6" x1="286.35" y1="695.29" x2="291.02" y2="675.49" gradientTransform="translate(-1.5 2505.76) scale(2.5 -2.5)" gradientUnits="userSpaceOnUse">
      <stop offset="0" stop-color="#376079"/>
      <stop offset="1" stop-color="#2e7eb4"/>
    </linearGradient>
    <linearGradient id="Gradiente_sem_nome_7" data-name="Gradiente sem nome 7" x1="215.16" y1="683.7" x2="203.83" y2="743.02" gradientTransform="translate(-1.5 2505.76) scale(2.5 -2.5)" gradientUnits="userSpaceOnUse">
      <stop offset="0" stop-color="#d9dadb"/>
      <stop offset="1" stop-color="#fff"/>
    </linearGradient>
    <linearGradient id="Gradiente_sem_nome_8" data-name="Gradiente sem nome 8" x1="305.58" y1="703.1" x2="319.94" y2="702.04" gradientTransform="translate(-1.5 2505.76) scale(2.5 -2.5)" gradientUnits="userSpaceOnUse">
      <stop offset="0" stop-color="#2e6592"/>
      <stop offset="1" stop-color="#3891c2"/>
    </linearGradient>
    <linearGradient id="Gradiente_sem_nome_9" data-name="Gradiente sem nome 9" x1="309.23" y1="683.38" x2="313.59" y2="685.17" gradientTransform="translate(-1.5 2505.76) scale(2.5 -2.5)" gradientUnits="userSpaceOnUse">
      <stop offset="0" stop-color="#1c365f"/>
      <stop offset="1" stop-color="#1f5b87"/>
    </linearGradient>
    <linearGradient id="Gradiente_sem_nome_10" data-name="Gradiente sem nome 10" x1="218.45" y1="717.6" x2="207.79" y2="721.23" gradientTransform="translate(-1.5 2505.76) scale(2.5 -2.5)" gradientUnits="userSpaceOnUse">
      <stop offset="0" stop-color="#4486b7"/>
      <stop offset="1" stop-color="#4fa8dd"/>
    </linearGradient>
    <linearGradient id="Gradiente_sem_nome_11" data-name="Gradiente sem nome 11" x1="195.49" y1="729.7" x2="190.2" y2="725.67" gradientTransform="translate(-1.5 2505.76) scale(2.5 -2.5)" gradientUnits="userSpaceOnUse">
      <stop offset="0" stop-color="#4087ba"/>
      <stop offset="1" stop-color="#47a4d2"/>
    </linearGradient>
    <linearGradient id="Gradiente_sem_nome_12" data-name="Gradiente sem nome 12" x1="209.1" y1="812.01" x2="212.53" y2="801.87" gradientTransform="translate(-1.5 2505.76) scale(2.5 -2.5)" gradientUnits="userSpaceOnUse">
      <stop offset="0" stop-color="#d5d7eb"/>
      <stop offset="1" stop-color="#fff"/>
    </linearGradient>
  </defs>
  <g>
    <path class="st4" d="M223.23,576.83c51.35-.84,104.37-.05,155.9-.1l43.58-.07c29.44-.04,24-1.56,49.85,12.18,9,4.75,18.14,9.25,27.39,13.49,9.64-3.63,19.08-7.74,28.3-12.33,26.62-13.27,19.41-13.39,49.07-13.35l39.8.07h159.21c7.96,14.75,16.67,30.87,24.06,45.86l199.61-.09c-13.03,15.71-28.47,31.11-41.87,46.62-4.48,5.18-13.01,13.7-16.37,19.2,0,15.51.85,198.82-.54,201.76-3.42,2.94-8.3,5.76-12.38,7.69-11.9-3.09-27.43-8.96-40.01-12.67-29.4-8.53-59.03-16.28-88.85-23.23-172.68-39.67-351.44-45.35-526.29-16.72-39.19,6.42-78.1,14.45-116.63,24.08-14.56,3.75-29.06,7.71-43.51,11.88-11.27,3.36-25.97,9.35-37.4,10.74-2.53.31-12.96-3.09-15.3-5.51-1.11-1.24-.98-1.75-.98-3.87-.08-21.04-.02-42.21-.02-63.24l-.07-131.84c-18.56-21.07-42.45-43.9-59.77-64.85l199.54.06,23.69-45.76Z"/>
    <path class="st14" d="M60.85,886.32c160.48-57.46,353.81-80.01,523.47-68.5,73.68,5.25,146.84,16.15,218.85,32.6,33.34,7.62,66.39,16.48,99.06,26.58,12.92,4.01,26.57,9.34,38.99,13.05-3.42,2.94-8.3,5.76-12.38,7.69-11.9-3.09-27.43-8.96-40.01-12.67-29.4-8.53-59.03-16.28-88.85-23.23-172.68-39.67-351.44-45.35-526.29-16.72-39.19,6.42-78.1,14.45-116.63,24.08-14.56,3.75-29.06,7.71-43.51,11.88-11.27,3.36-25.97,9.35-37.4,10.74-2.53.31-12.96-3.09-15.3-5.51Z"/>
  </g>
  <path class="st9" d="M159.72,835.13c1.78-1.01,10.4-5.02,12.3-4.71-2.05,1.97-3.5,2.76-3.55,5.46-4.11.98-5.33,2.07-8.75-.75Z"/>
  <g>
    <g>
      <path class="st13" d="M547.3,599.47c-2.3-1.02-7.13-.73-9.9-.73.73,1.61,2.31,3.86,3.33,5.42.04,3.93.96,11.87-4.62,12.16-4.34-4.76-2.02-12.22-.18-17.54-2.54,0-7.01-.2-9.26.5.36,2.16,1.34,2.69,1.74,5.13.76,4.53.39,9.7,1.03,14.12,4.99.43,9.89.68,14.89,0,.6-4.64.74-9.81.75-14.59,0-.22,2.09-2.93,2.44-3.37l-.22-1.11Z"/>
      <path class="st13" d="M472.65,599.45c-2.29-.18-5.55-.55-7.77-.47-2.05.1-5.39-.03-6.97,1.01-1.37,4.4-1.22,12.91.11,17.3,3.32,3.53,5.36-.87,10.17,5.67,6.96-4.28,5.67-16.63,4.45-23.51ZM468.8,614.24l-.79.18-1.85-2.44c-.89-.66-.36-.46-1.65-.44-.5,1.42-1.02,3.3-2.46,3.79-.93-3.15-.3-9.81.11-13.12,2.68,0,3.44-.09,5.99.52.59,3.26,1.68,8.42.64,11.5Z"/>
      <path class="st13" d="M242.92,598.91c.26,2.41,1.41,3.19,3.09,4.99-.02,7.49.47,8.78-3.07,15.14l17.17-.13c1.61-6.68-.93-7.66.77-12.9,3.13-9.61-12.39-7.26-17.96-7.09ZM250.94,601.61c2.31.38,3.82.34,5.55,1.87.6,2.38.58,1.17-.31,3.74-2.66.33-3.6.74-5.7-1.04-.42-2.12-.15-2.54.46-4.58ZM256.83,615.75c-2.21.15-3.76.5-5.75-.41-1.21-1.63-.8-3.48-.73-5.64,2.15.02,4.03-.25,5.78.85,1.12,1.74.79,3.09.7,5.2Z"/>
      <path class="st13" d="M403.18,608.22c-3.81-1.19-9.21-.46-11.47-3.38l.31-1.05c4.03-3.04,7.76.14,11.07,2.44.13-2.29.51-4.19-.44-6.21-4.09-2.17-11.53-2.9-14.25,2.29-.75,1.42-.05,5.51.27,7.2,3.78.7,7.72.99,10.82,3.06l.59,1.25c-4.22,4.89-8.14-.71-11.79-2.18-.41,2.22,0,4.88.22,7.18,4.85.14,11.27,1.23,14.62-1.83,1.45-2.82.73-5.67.04-8.77Z"/>
      <path class="st13" d="M758.07,611.99l-1.71-1.06c-1.71,3.18-2.76,6.31-7.31,4.11-1.9-4.3,2.4-5.07,5.37-6.07-1.49-1.28-3.26-1.48-5.22-1.97-.58-2.05-.79-2.22-.42-4.36,2.86-2.62,6.11,1.66,8.31,3.2l.9.62c.9-3.16.74-4.39.73-7.6-3.44-.04-13.37-.39-16.21.24l-.49.98c3.1,7.78.61,17.69,1.37,18.98,2.78.36,11.64-.15,15.45-.1,0-2.37.3-4.94-.76-6.97Z"/>
      <path class="st13" d="M614.37,611.08c-.38,1.1-.85,2.19-1.29,3.27-2.25,1.55-1.07,1.2-3.56,1.39-1.86-.77-1.7-.81-2.79-2.55-.14-2.27-.45-1.32.62-3.03,1.56-.2,2.35-.29,3.88-.71l1.12-.31-1.16-1.15c-1.53-.33-2.28-.51-3.76-1.01-.87-1.94-.55-3.71.82-5.22,3.98.1,5.08,2.57,7.61,4.97,1.67-2.18,1.31-4.82,1.27-7.79-6.21-.04-12.59-.15-18.78-.02l.65.69c8.6,9.18,1.11,14.11,2.58,18.46,3.53,1.83,12.78,1.75,15.93-.92,1.47-3.35.16-4.83-3.13-6.06Z"/>
      <path class="st13" d="M335.91,619.04c-5.01-7.73-5.62-11.47-8.25-20.28-10.38-.3-7.32,6.4-11.04,13.98-1.17,2.39-2.22,3.97-3.76,6.11l9.94.08-.27-1.01c-.44-1.58-.94-2.49-1.69-3.93,1.18-1.93,5.02-1.41,6.8-.48-.51,2.04-1.7,3.45-2.52,5.39,3.35.16,7.38.1,10.78.14ZM325.26,610.62l-2.32.03-.27-1.01c-.44-1.58-.94-2.49-1.69-3.93,1.18-1.93,5.02-1.41,6.8-.47-.51,2.04-1.7,3.45-2.52,5.39Z"/>
      <path class="st13" d="M669.97,598.87c6.13-.13,12.58-.08,18.73-.11,0,2.34.34,6.32-.83,8.08-2.17-.4-2.5-4.25-5.44-4.48-2.22,3-1.22,4.84-.84,8.32.44,3.98.48,3.97,3.4,6.4-.42.85-.7.84-1.61,1.51-2.99.54-6.13,1.06-8.96-.19-.55-1.5-.45-.73.02-2.35l2.41-1.04c1.01-1.76.19-10.13-.05-12.5l-.84-.4c-1.26,1.95-2.3,3.93-4.16,5.29l-1.02-.82c-.75-2.72-.69-4.9-.81-7.7Z"/>
    </g>
    <g>
      <path class="st11" d="M918.34,859.79c-3.23-1.29-9.32-2.15-12.43-3.19-12.71-4.25-78.24-18.31-82.47-24l.79-.49c7.11-.07,15.54,2.87,22.49,4.86,23.28,6.67,48.04,11.86,70.95,19.49,1.05.55,1.06.63,2.18.95l1.34,1.12c-1.42,1.15-.9.75-2.84,1.26Z"/>
      <path class="st8" d="M804.38,648.16l-.08,106.68c-.02,14.43-.87,33.59.75,47.62.48,4.14,10.48,18.42,13.57,23.01,7.61,2.43,15.91,4.79,23.67,6.73,24.09,6,48.43,13.9,72.62,19.16l.96.25c1.99-2.31.07-10.37,1.01-14.82,2.06,3.73,1.16,13.77,1.64,18.63l-.86,1.03c1.05.56,1.06.63,2.18.95l1.34,1.12c-1.42,1.15-.9.75-2.84,1.26,1.63.53,1.69.67,3.36.58,1.67-2.56,1.68-173.69-.54-179.2-3.44,4.31-2.19,45.82-2.2,54.9-.74,4.62-1.49,18.25-2.11,20.63-1.12-16.36-.66-33.15-.83-49.54-.09-7.98.25-17.41-.58-25.24l-.13-7.35c8.54-8.92,17.48-17.43,26.17-26.2-45.46-.59-91.58-.21-137.1-.2ZM879.12,808.29c-11.5-2.39-29.6-7.44-40.1-9-.72-3.58-.53-18.61-.5-23,.09-15.11-.25-30.61.11-45.68-.11-12.14-.14-24.28-.07-36.41-4.01-3.67-9.13-8.67-13.23-12.03l53.88.03-.09,126.08Z"/>
      <path class="st11" d="M918.96,736.07c.01-9.08-1.23-50.59,2.21-54.9,2.22,5.51,2.2,176.65.53,179.2-1.67.09-1.73-.05-3.36-.58,1.94-.51,1.41-.11,2.84-1.26l-1.34-1.12c-1.42-17.87-.28-35.86-.6-53.74-.4-22.34.68-45.33-.28-67.6Z"/>
      <path class="st9" d="M915.43,681.92c.84,7.83.49,17.26.58,25.23.17,16.39-.28,33.18.83,49.54.63-2.38,1.38-16,2.12-20.63.96,22.27-.12,45.26.28,67.6.32,17.88-.82,35.87.6,53.74-1.12-.31-1.13-.4-2.18-.95l.86-1.03c-.48-4.86.42-14.9-1.64-18.63-.94,4.45.98,12.51-1.01,14.81l-.96-.25c1.4-3.47.27-154.23.52-169.44Z"/>
      <path class="st11" d="M842.74,701.14c1.05.19,2.5.17,2.55.86.72,10.73,1.38,79.65-.11,85.24l-.92.67-.98-.18c-.91-9.53-.49-25.18-.5-35.03-.13-17.19-.14-34.38-.04-51.56Z"/>
      <path class="st9" d="M842.74,701.14c-.1,17.19-.09,34.38.04,51.56.01,9.84-.41,25.49.5,35.03-2.89.2-2.19-.3-3.68,1.35-1.11,4.15.04,6.06-.58,10.2-.72-3.57-.53-18.61-.5-23,.09-15.11-.26-30.61.11-45.68.51,3.52,1.24,25.24,1.71,25.73,2.73-10.04,1.31-31.17,1.76-42.07.19-4.56-.34-8.43.64-13.14Z"/>
      <path class="st3" d="M60.03,648.36c22.24-.2,44.49-.26,66.73-.19,15.67,0,32.45-.28,48,.24.42.31.84.62,1.25.94,4.74,3.74,14.2,11.77,18.15,16.66.08.7.16,1.39.24,2.09,1.83,21.86-.67,47.95,1.51,69.62l.57-.14c.62-3.55-1.14-7.28.83-9.04,0-6.95-.76-47.24,1.65-50.34,3.67,6.9,1.32,44.07,2.01,53.8.39,5.43.24,26.32-.61,31.6-5.07,5.15-10.61,9.43-15.33,14.69.8,5.76,13.92,42.53,16.79,48.83-10.02,3.26-22.96,6.15-33.36,8.75-4.11.98-5.33,2.07-8.75-.75-.07-1.7-.12-1.62-.81-3.21l-1.49-.54c-.2-.1-1.44-.93-1.45-.98-3.69-11.75-12-41.72-14.98-51.82-5.4-.05-15.3-.42-20.32.26-1,1.71-.74,3.24-.83,5.43,2.99.2,4.59.05,7.56-.18.65,20.29.3,42.04-.14,62.37-6.68,2.78-28.85,10.96-35.24,11.13l-1.23-.59c.5-2.27,1.41-4.07,1.27-6.31-1.92.72-3.2,1.5-5.12,1-1.27-1.82-.71-49.9-.7-56.4l-.02-120.68c-5.76-6.89-19.42-19.7-26.18-26.27Z"/>
      <path class="st9" d="M119.83,784.28c2.99.2,4.59.05,7.56-.18.65,20.29.3,42.04-.14,62.37-6.68,2.78-28.85,10.96-35.24,11.13l-1.23-.59c.5-2.27,1.41-4.07,1.27-6.31,7.24-1.77,20.21-6.37,27.64-8.75,1-16.36.21-40.98.14-57.68Z"/>
      <path class="st22" d="M197.33,728.54c0-6.95-.76-47.24,1.65-50.34,3.67,6.9,1.32,44.07,2.01,53.8.39,5.43.24,26.32-.61,31.6-5.07,5.15-10.61,9.43-15.33,14.69.8,5.76,13.92,42.53,16.79,48.83-10.02,3.26-22.96,6.15-33.36,8.75.05-2.7,1.5-3.48,3.55-5.46,8.55-1.74,17.22-3.21,25.59-5.6-4.72-11.85-13.65-34.62-16.95-47.49-.36-1.43,5.45-6.45,7.05-7.89,5.85-2.89,7.24-5.05,10.7-10.18-1.28-10.55.01-22.67-1.1-30.71Z"/>
      <path class="st17" d="M194.12,758.78c.62,5.24-3.51,6.64-6.39,10.65-1.6,1.44-7.42,6.46-7.05,7.89,3.29,12.87,12.22,35.65,16.95,47.49-8.38,2.39-17.05,3.86-25.59,5.6-2.05,1.97-3.5,2.76-3.55,5.46-4.11.98-5.33,2.07-8.75-.75-.07-1.7-.12-1.62-.81-3.21l-1.49-.54c6.34-2.4,27.02-6.83,34.36-8.6-3.67-13.97-11.12-32.45-15.82-46.84,5.5-5.82,12.25-10.94,18.16-17.16Z"/>
      <path class="st9" d="M194.42,668.1c1.83,21.86-.67,47.95,1.51,69.62l.57-.14c.62-3.55-1.14-7.28.83-9.04,1.11,8.04-.18,20.17,1.1,30.71-3.45,5.12-4.85,7.29-10.7,10.18,2.88-4.01,7.02-5.41,6.39-10.65.77-5.61.19-20.79.27-27.34.24-20.96-.51-42.39.03-63.35Z"/>
      <path class="st4" d="M106.98,681.58c16.93-.61,36.87-.13,54.04-.17.29,20.91.02,42.43,0,63.39-11.76.6-28.9.07-41.06.06-.39-17.03-.07-34.67-.26-51.82l-12.72-11.46Z"/>
      <path class="st13" d="M123.7,705.01l2.4.75c1.75,2.97.5,30.44-.1,35.31-.84.22-.33.18-1.53-.21-1.72-3.96-1.03-30.26-.77-35.85Z"/>
      <path class="st14" d="M262.03,648.22c22.34-.34,51.44-.7,73.49.16,4.79,3.17,15.1,12.66,19.85,16.82,1.63,24.51-.14,56.85.48,82.35.6.67.81,5.87,1.09,7.68.03-.02,1.69-18.67,1.86-20.35,0-7.45-.61-53.84.78-56.2l1.06.03c3.21,4.42.68,68.19,1.51,78.2.31,3.76.06,22.43-.23,26.65l-.75,1.17c-2.05,4.02-16.86,19.48-20.63,20.22-7.62,1.49-46.76,7.31-51.62,5.23.53-1.36.98-2.43,1.59-3.75l-.42-2.25-7.77,1.05c-6.94-5.13-14.02-11.65-20.26-17.64-.87-20.39-.17-48.05-.01-68.87-.71-22.1-.03-48.09-.02-70.5Z"/>
      <path class="st6" d="M262.03,648.22c22.34-.34,51.44-.7,73.49.16,4.79,3.17,15.1,12.66,19.85,16.82-.86,6.94-.23,16.7-.39,23.95-.37,17.15.6,35.71-.05,52.78-7.19-.57-24.93-.61-31.96.38-.65-13.9-.06-28.14-.19-42.05-.04-3.72.29-15.53-.37-18.73-12.56,0-27.52.37-39.89-.26,4.28,4.05,8.61,8.06,12.97,12.03v8.22c-1.36,5.74-.51,33.09-.65,40.96-7.18-1.51-23.17-.53-32.09-1.44.02-4.78.32-18.55-.71-22.32-.71-22.1-.03-48.09-.02-70.5Z"/>
      <path class="st4" d="M282.53,681.28c12.37.62,27.33.25,39.89.26-.64,5.18-.35,10.97-.42,16.21-.29,23.71.49,47.6-.04,71.29-6.72.64-13.56,1.34-20.28,1.9-.92.25-4.93.35-6.08.4-.03-12.39-.26-25.39.1-37.73-.57-8.91-.19-22.85-.2-32.08v-8.22c-4.37-3.97-8.69-7.97-12.97-12.03Z"/>
      <path class="st13" d="M299.13,704.7l2.07.18c1.48,2.4,1.35,57.89-.19,62.03-3.73-5.67-1.55-51.85-1.88-62.21Z"/>
      <path class="st9" d="M295.7,733.61c1.13,2.78.84,12.77.86,16.43l.64-.25c1.9-3.61.4-37.99,1.93-45.09.33,10.36-1.85,56.54,1.88,62.21-1.08,2.33-1,1.2-.71,3.42l1.39.6c-.92.25-4.93.35-6.08.4-.03-12.39-.26-25.39.1-37.73Z"/>
      <path class="st9" d="M358.79,734.89c0-7.45-.61-53.84.78-56.2l1.06.03c3.21,4.42.68,68.19,1.51,78.2.31,3.76.06,22.43-.23,26.65l-.75,1.17c-2.05,4.02-16.86,19.48-20.63,20.22-7.62,1.49-46.76,7.31-51.62,5.23.53-1.36.98-2.43,1.59-3.75l-.42-2.25c12.42-4.15,36.93-1.18,49.47-7.29,3.06-1.49,15.27-14.58,16.13-18.36.14-8.98-.6-22.49.17-30.97.6.67.81,5.87,1.09,7.68.03-.02,1.69-18.67,1.86-20.35Z"/>
      <path class="st11" d="M358.79,734.89c0-7.45-.61-53.84.78-56.2l1.06.03c3.21,4.42.68,68.19,1.51,78.2.31,3.76.06,22.43-.23,26.65l-.75,1.17c-3.4,1.47-15.46,15.59-20.33,19.74,2.95-5.33,4-6.41,8.41-10.66,4.13-3.98,7.68-8.23,7.53-14.26.77-2.37.26-3.97,1.2-6.55,0,2.6-.1,5.48.32,8.02,1.26-4.89.76-39.5.5-46.15Z"/>
      <path class="st0" d="M696.7,648.06c23.42.44,47.66-.48,70.93.31,6.22,4.9,13.42,11.68,19.42,17.07l.12,75.5-3.95,4.08c-4.31,3.48-12.05,9.28-14.03,14.3.11,2.03,0,1.97.9,3.76,5.54,18.2,10.98,36.42,16.31,54.68l-5.79-.68c-9.56-1.46-20.34-3.84-29.92-5.73l-7.75-22.7-.78-.98c-.82-1.05-1.02-1.3-1.61-2.54-4.96,2.62-3.92,24.7-4.02,30.42-5.69-.92-31.11-3.1-33.32-6.45-.17-.26-.32-.54-.47-.8.4-1.61.36-2.5.46-4.15l-6.58-.96c-.82-50.82.03-104.12.07-155.14Z"/>
      <path class="st20" d="M730.12,807.67c-.61-6.13-.99-42.75,1.61-45.83l1.21.12c3.71,3.75,8.22,20.75,10,26.7l-.78-.98c-.82-1.05-1.02-1.3-1.61-2.54-4.96,2.62-3.92,24.7-4.02,30.42-5.69-.92-31.11-3.1-33.32-6.45-.17-.26-.32-.54-.47-.8.4-1.61.36-2.5.46-4.15,9.14,1.34,17.88,2.29,26.92,3.51Z"/>
      <path class="st1" d="M730.12,807.67c.62-1.62.69-2.49.84-4.19.41,1.46.38,2.32.47,3.84l.76.37.53-1.41.18,5.23c-5.45-.96-26.46-5.36-30.16-3.19.4-1.61.36-2.5.46-4.15,9.14,1.34,17.88,2.29,26.92,3.51Z"/>
      <path class="st4" d="M717.11,681.57c7.55-.75,28.07-.17,36.7-.17l-.03,45.96c-6.93.38-16.59.1-23.73.1-.19-11.3-.03-23.06-.04-34.4-4.24-3.86-8.61-7.69-12.9-11.5Z"/>
      <path class="st13" d="M733.65,698.3c.85.25,1.21.48,2.01.86,1.66,4.37,1.11,20.92.31,25.91l-1.67-.87c-1.91-4.4-.91-20.69-.64-25.9Z"/>
      <path class="st6" d="M585.82,648.11c23.7.2,50.5-.74,73.82.27,6.51,4.9,13.33,11.56,19.8,16.95.12,19.14.12,38.28-.02,57.41.1,4.84.16,9.68.18,14.52.92,1.81,1.25,2.13,1.46,4.16,2.42-3.29.69-49.77,1.31-57.06.29-3.39-1.37-13.56,2.04-14.36,1.83,1.72,1.81,5.56,1.81,7.97,0,38.61.14,77.22.04,115.83-.01,4.64.02,9.42-.22,14.03-5.9-.64-33.76-3.21-36.79-5.14-.79-2.05-1.27-3.68-1.89-5.79l-.55-.12c-1.63-2.18-1.01-29.64-1-34.29-8.02-.01-16.22.08-24.22-.26l-1.72.65c-1.25,3.89-.42,26.21-.69,32.17-5.72-1.17-25.73-1.61-33.13-2.07-.5-16.18-.27-34.73-.12-51.02l-.1-93.85Z"/>
      <path class="st14" d="M679.6,737.27c.92,1.81,1.25,2.13,1.46,4.16,2.42-3.29.69-49.77,1.31-57.06.29-3.39-1.37-13.56,2.04-14.36,1.83,1.72,1.81,5.56,1.81,7.97,0,38.61.14,77.22.04,115.83-.01,4.64.02,9.42-.22,14.03-5.9-.64-33.76-3.21-36.79-5.14-.79-2.05-1.27-3.68-1.89-5.79l-.55-.12c-1.63-2.18-1.01-29.64-1-34.29-8.02-.01-16.22.08-24.22-.26l-1.72.65c-1.25,3.89-.42,26.21-.69,32.17-5.72-1.17-25.73-1.61-33.13-2.07-.5-16.18-.27-34.73-.12-51.02,27.18-1.05,54.86.13,82.08-.4,3.75-.07,7.21.15,10.93.66.07-6.45.03-13.06.49-19.48.1,4.84.16,9.68.18,14.52Z"/>
      <path class="st11" d="M679.6,737.27c.92,1.81,1.25,2.13,1.46,4.16,2.42-3.29.69-49.77,1.31-57.06.29-3.39-1.37-13.56,2.04-14.36,1.83,1.72,1.81,5.56,1.81,7.97,0,38.61.14,77.22.04,115.83-.01,4.64.02,9.42-.22,14.03-5.9-.64-33.76-3.21-36.79-5.14l.49-1.41c2.1-.92,4.85-.59,7.22-.54l.38-2.68c3.48.45,20.46,3.43,22.24,1.46-.24-20.75-.24-41.51,0-62.26Z"/>
      <path class="st1" d="M657.35,798.06c3.48.45,20.46,3.43,22.24,1.46l.95-.86c1.71,1.34.98.51,1.81,2.96l-.34,1.64c-2.07,1.23-20.99-2.11-25.05-2.52l.38-2.68Z"/>
      <path class="st18" d="M647.36,796.9c3.28.38,6.73.72,9.99,1.17l-.38,2.68c-2.37-.05-5.12-.38-7.22.54l-.49,1.41c-.79-2.05-1.27-3.68-1.89-5.79Z"/>
      <path class="st4" d="M606.3,681.41c13.14.15,26.51.05,39.67.06,0,15.24-.33,32.35.27,47.43-8.75.21-18.14.05-26.94.07v-35.7s-13-11.86-13-11.86Z"/>
      <path class="st13" d="M623.04,697.67l1.68.72c1.83,3.97.74,21.65.37,26.65l-1.2-.14c-1.97-2.94-1-22.23-.85-27.23Z"/>
      <path class="st12" d="M493.91,648.14l33.28.07.14,107.77c11.15.89,29.56.57,41.35.73.46,3.57-.5,10.65,1.37,12.99l2.57-.42,1.01-.2c2.32,3,1.42,24,.97,28.47-11.19-.15-72.2.52-77.51-1.91-.01-.87,1.39-4.08,1.78-5.33-1.96.03-3.17.28-4.81-.74-.9-4.58-.37-36.15-.34-43.41l.21-98.01Z"/>
      <path class="st11" d="M572.62,769.28l1.01-.2c2.32,3,1.42,24,.97,28.47-11.19-.15-72.2.52-77.51-1.91-.01-.87,1.39-4.08,1.78-5.33,23.05-.15,46.43.63,69.55.7,1.99,1.07,2.47,1,3.72,2.7-.69-6.16-.51-18.57.5-24.43Z"/>
      <path class="st9" d="M498.86,790.31c23.05-.15,46.43.63,69.55.7,1.99,1.07,2.47,1,3.72,2.7-11.49,1.51-70.62-2.79-75.04,1.93-.01-.87,1.39-4.08,1.78-5.33Z"/>
      <path class="st9" d="M568.68,756.71c.46,3.57-.5,10.65,1.37,12.99l2.57-.42c-1.01,5.86-1.19,18.27-.5,24.43-1.25-1.7-1.73-1.64-3.72-2.7.33-10.5-.53-24.49.28-34.3Z"/>
      <path class="st14" d="M211.44,648.1l33.39.08c1.59,14.46-1.16,95.29,1.53,100.94,4.26-13.61.48-66.06,2.56-83.39.29-.2.58-.39.88-.59,2.7,1.9,2.16,9.53,2.12,12.74-.12,11.5-.09,22.99-.05,34.49l.23,66.83c.01,10.83.46,28.05-.61,38.53-4.64.77-31.66,5.87-34.99,4.61l-.31-.78.31-.56c.19-2.06.56-2.08-.34-3.41-1.69-.09-3.05-.21-4.71-.38-.19-26.66-.18-53.33.02-79.99v-89.12Z"/>
      <path class="st6" d="M211.44,648.1l33.39.08c-.49,9.5-.19,21.21-.19,30.92l.04,63.39c-9.73-1.89-22.68.48-31.69-1.05-1.28-1.39-1.05-2.07-1.53-4.23v-89.12Z"/>
      <path class="st11" d="M244.83,648.18c1.59,14.46-1.16,95.29,1.53,100.94,4.26-13.61.48-66.06,2.56-83.39.29-.2.58-.39.88-.59,2.7,1.9,2.16,9.53,2.12,12.74-.12,11.5-.09,22.99-.05,34.49l.23,66.83c.01,10.83.46,28.05-.61,38.53-4.64.77-31.66,5.87-34.99,4.61l-.31-.78.31-.56c.19-2.06.56-2.08-.34-3.41-1.69-.09-3.05-.21-4.71-.38,11.3-1.82,22.35-3.46,33.62-5.56-.72-5.44-.25-16.01-.3-21.99-.15-15.66.34-31.5-.08-47.17l-.04-63.39c0-9.71-.3-21.42.19-30.92Z"/>
      <path class="st9" d="M245.06,811.65c.2-1.4.33-2.49.66-3.88,1.45,2.7-.65,2.79,1.42,4.42.84-.51.5-.14.9-1.21.76,1.62.67.77.03,2.65-4.54,3.91-24.44,3.25-31.57,7.37.19-2.06.56-2.08-.34-3.41-1.69-.09-3.05-.21-4.71-.38,11.3-1.82,22.35-3.46,33.62-5.56Z"/>
      <path class="st6" d="M385.13,648.21c20.85-.38,50.65-.76,71.15.15,5.88,3.95,14.64,12.28,20.09,17.18.32,8.95.28,18.35.37,27.33l-33.69-.12.29-11.24c-12.64-.15-25.32.27-37.96-.28,4.2,3.82,8.43,7.61,12.69,11.38-.67,5.05-.3,12.42-.33,17.64-.07,10.64.26,21.42.01,32.06-6.94-1.23-25.1-.56-32.56-.4l-.05-93.71Z"/>
      <path class="st14" d="M418.06,692.61c1.08,6.83.15,18.97.51,26.3.47,8.85,1.41,17.68,1.67,26.51.42-6.06.31-13.31,1.27-19,0-4.96-.56-22.14,1.17-25.39l.84.17c2.28,4.39,2.54,50.41-.31,54.2-1.52,1.75-1.66,1.33-1.82,3.23,3.44,2.25,16.43.63,21.72,1.27l-.05-13.77c11.2-.12,22.41-.13,33.61-.03.17,2.31.19,3.56.77,5.79,2.64-.39,1.17-1.71,4.19-1.92,2.77,2.89,1.95,14.97,1.85,19.76-.06,3.09-.27,6.17-.61,9.24-3.06,2.93-19.26,17.32-21.49,18.12-6.22,2.21-50.86,4.26-53.67,2.01l-.41-1.42c1.88-1.79,1.67-.65,4.39-1.66l-1.01-1.11,1.6-.38c-1.76-.18-6.05-.39-7.43-.69-5.64-4.29-14.26-12.4-19.56-17.34-.41-11.17-.16-23.32-.13-34.56,7.45-.16,25.62-.83,32.56.4.24-10.64-.09-21.42-.01-32.06.04-5.22-.33-12.59.33-17.64Z"/>
      <path class="st9" d="M476.69,746.1c.17,2.31.19,3.56.77,5.79,2.64-.39,1.17-1.71,4.19-1.92,2.77,2.89,1.95,14.97,1.85,19.76-.06,3.09-.27,6.17-.61,9.24-3.06,2.93-19.26,17.32-21.49,18.12-6.22,2.21-50.86,4.26-53.67,2.01l-.41-1.42c1.88-1.79,1.67-.65,4.39-1.66l-1.01-1.11,1.6-.38c-1.76-.18-6.05-.39-7.43-.69,15.25-2.29,33.96.31,49.18-2.37,6.06-1.07,17.45-12.44,22.25-17.04.62-9.05-.11-19.02.38-28.33Z"/>
      <path class="st11" d="M421.52,726.42c0-4.96-.56-22.14,1.17-25.39l.84.17c2.28,4.39,2.54,50.41-.31,54.2-2.75-3.98-1.24-22.41-1.7-28.98Z"/>
      <path class="st9" d="M418.57,718.91c.47,8.85,1.41,17.68,1.67,26.51.42-6.06.31-13.31,1.27-19,.45,6.57-1.05,25,1.7,28.98-1.52,1.75-1.66,1.33-1.82,3.23,3.44,2.25,16.43.63,21.72,1.27-3.37.65-19.97.33-24.61.31-.15-13.77-.13-27.54.06-41.3Z"/>
      <path class="st23" d="M783.22,745.03c-.64,1.57-2.58,4.05-2.72,4.62l.47-.39c5.09-4.26,9.25-4.02,9.53-10.29.29-6.49.18-12.87.15-19.35-.08-11.43-.1-22.86-.06-34.29.01-3.09-.48-12.36.9-14.12,2.07.03,1.37-.39,2.51.72.88,6.46.44,19.97.42,27.07.02,15.11-.06,30.22-.24,45.32-5.42,5.98-12.85,11.59-17.52,17.64,4.24,19.66,14.08,43.81,19.14,64.31-6.32-1.09-37.06-5.65-39.32-8.93,2.6-1.83,9.4-.46,12.6.11,3.76.68,7.5,1.48,11.21,2.38l1.3-.97-.99-1.78,5.79.68c-5.33-18.26-10.77-36.49-16.31-54.68-.9-1.79-.79-1.73-.9-3.76,1.98-5.01,9.72-10.81,14.03-14.3Z"/>
      <path class="st2" d="M770.09,763.09l.79-.73.75,2.27,1.4-.2,1.13,2.61c2.74,6.3,4.04,12.78,6.18,19.09,3.97,11.69,7.12,24.38,11.04,35.91-3.16-.62-8.11-1.42-11.08-2.19l1.3-.97-.99-1.78,5.79.68c-5.33-18.26-10.77-36.49-16.31-54.68Z"/>
      <path class="st11" d="M619.17,795.05c.27-5.96-.55-28.28.69-32.17l1.72-.65c1.24,1.63,2.38,3.23,3.81,4.69.58,10.14.6,24.17.37,34.51l-22.03-1.17c-3.57-.16-10.86.36-13.29-1.96l.48-1.39c3.47-1.04,24.99.38,29.69,1.02.97-1.07.63-.43.93-1.95-.86-.27-1.59-.54-2.39-.94Z"/>
      <path class="st9" d="M619.17,795.05c.27-5.96-.55-28.28.69-32.17l1.72-.65c1.24,1.63,2.38,3.23,3.81,4.69l-1.51-.07c-2.73,4.65.65,28.06-2.17,31.35l-1.09-.27c.97-1.07.63-.43.93-1.95-.86-.27-1.59-.54-2.39-.94Z"/>
      <path class="st21" d="M532.06,659.85l.99.98c.6,2.54,1.12,10.48.86,12.89-1.52,13.95,3.05,68.7-1.59,77.83-.09-.17-.18-.35-.27-.52-.6-1.09-1.18-3.37-1.17-4.59.06-12.62-1.44-79,1.18-86.6Z"/>
      <path class="st13" d="M480.24,699.68c-6.52-.96-31.52.88-34.91-1.89,5.63-2.86,27.22-1.74,34.03-.95l.87,2.85Z"/>
      <path class="st5" d="M479.36,696.84c1.84-5.5-2.1-23.99,1.94-27.07l1.24.41c.71,3.98,1.3,25.8-.37,28.97l-1.93.53-.87-2.85Z"/>
      <path class="st16" d="M452.62,693.59c4.02-.1,21.95-.55,24.7.55l-.08.81c-1.63.88-1.5.91-3.33.73-5.47-.2-14.6.68-19.28-.95,1.8.43,2.28.28,4.11.17-3.32-1.34-3.38-.36-6.13-1.32Z"/>
    </g>
  </g>
  <g>
    <path class="st15" d="M485.32,102.83c3.44-.47,9.41-.39,13.06-.5,22.94-.67,41.75,2.89,63.34,10.24,29.38,10.01,46.33,23.11,69.24,42.71,21.21,18.15,36.84,31.28,49.47,57.47,3.79,7.87,9.4,21.82,11.07,30.66,4.76,26.19,4.4,54.15-1.16,80.23-2.2,10.34-7.88,23.35-11.66,33.34-1.67,4.41-7.16,10.06-8.48,15.16-2.2,8.53-1.22,17.41-2.43,26.1-1.74,13.45-5.79,26.13-10.4,38.84-18.03,49.72-54.84,93.95-97.88,124.2-15.51,10.9-30.57,18.37-47.46,26.37-4.93,2.58-6.95,3.37-12.24,4.39-30.16-11.25-68.28-36.94-95.19-58.48-40.11-32.11-73.6-89.27-74.97-142.2-.68-26.1-.16-15.82-9.58-37.23-8.44-19.32-13.46-39.97-14.84-61.01-2.8-39.63,7.3-82.15,34.7-111.43,11.25-12.03,36.02-33.63,49.33-43.46,27.95-20.8,61.32-33.09,96.09-35.37Z"/>
    <path class="st4" d="M505.12,108.67c42.54,2.08,73.78,13.33,107.37,39.63-.41,1.1-.8,2.13-1.17,3.25-22.31-6.32-43.76-3.17-63.91,8.1-18.65,10.59-33.07,27.29-40.83,47.27l1.97.56c13.47-38.9,74.46-59.21,111.01-44.99,26.45,10.3,43.56,29.05,55.55,54.67,18.61,38.81,16.68,84.63,2.32,124.52-2.13,5.79-4.59,11.45-7.37,16.95-1.76-8.1-2.69-14.16-5.03-22.53-6.28-22.4-23.31-54.13-41.8-68.46,5.38,7.83,11.64,16.55,16.2,24.78,19.23,34.81,27.96,72.55,20.33,112.11-8.28,42.94-28.56,73.04-54.16,106.66,12.08-35.65,5.96-85.9-10.46-119.4-1.93-4.01-4.11-7.89-6.53-11.63,2.37,9.24,6.18,18.1,8.3,27.28,11.72,50.78,15.45,112.67-36.6,142.23,15.62-21.12,23.45-46.54,19.59-72.79-.83-5.62-2.24-11.15-4.19-16.49,3.01,33.38-1.06,57.03-23,84.42-11.82,14.75-34.95,31.5-53.02,37.34-27.39-10.13-54.8-35.3-66.58-62.1-10.79-24.53-9.29-35.55-9.15-60.4-8.04,29.94-3.49,64.9,15.59,90.02-52.12-29.9-48.72-91.71-36.2-142.97,2.07-8.49,5.27-16.75,7.43-25.14-20.26,35.44-28.14,83.5-17.35,123.07,1.43,5.24,3.23,10.38,5.41,15.36-40.07-44.85-65.61-85.16-62.59-149.61,1.37-29.39,14.24-65.76,31.01-90l-1.85-1.84c-20.44,24.56-30.07,49.55-35.6,80.46-19.86-44.42-26.84-93.06-6.4-139.14,11.54-25.93,28.89-46.31,55.5-56.87,38.16-15.14,97.96,5.01,112.63,45.19l2.16.46c-7.29-20.49-21.65-37.7-40.5-48.55-20.04-11.43-41.54-14.93-63.94-8.79l-2.6-2.52c34.49-26.75,64.55-38,108.03-40.08.78,13.41,2.15,27.21,2.95,40.68.39,6.61,1.31,23.66,2.69,29.4,1.31-23.39,2.9-46.77,4.79-70.12Z"/>
    <path class="st7" d="M375.62,268.19c-2.23,4.31-5.43,8.3-8.35,12.2l-1.85-1.84c3.43-4.1,6.14-6.82,10.2-10.36Z"/>
    <path class="st11" d="M491.55,208.18l2.16.46c1.88,4.12,2.5,10.02,3.15,14.54-2.07-4.6-3.73-10.15-5.31-15.01Z"/>
    <path class="st11" d="M506.59,206.91l1.97.56c-1.72,4.94-3.28,9.32-5.29,14.15.8-5.66,1.26-9.37,3.33-14.7Z"/>
    <path class="st6" d="M434.18,203.68c29.47.72,52.56,10.63,65.79,38.3,14.47-27.8,35.21-37.97,66.16-38.27-6.82,5.34-11.72,9.43-17.83,15.76,39.07,10.39,28.52,8.36,55.94,37.55-8.22,6.06-15.84,12.56-23.91,18.69-21.84-5.84-44.11-2.07-50.5,23.05-8.5,33.42,20.2,65.34,35.26,92.59-4.86,11.29-9.83,22.53-14.93,33.71l-20.48-5.84c-.86,5.1-1.47,7.47-3.01,12.43-.9-6.01-.85-9.9-5.98-14.2-3.38-2.83-16.81-6.31-21.24-6.8-5.24,1.37-11.46,2.76-16.51,4.64-7.33,2.73-8.25,8.75-9.8,15.66-1.69-5-2.09-6.37-2.91-11.55-3.05.81-6.11,1.58-9.18,2.33-3.29,1.35-7.77,2.33-11.32,3.22-2.94-7.04-9.15-18.33-11.23-25.11-1.28-2.64-2.53-5.73-3.7-8.46,14.91-28.3,44.83-59.92,34.9-94.29-6.74-23.31-29.53-27.54-50.4-21.29-6.82-5.9-16.31-13.46-23.61-18.72,7.03-7.83,21.63-26.91,30.24-30.28,4.47-1.75,20.01-5.75,25.66-7.33-5.44-5.5-11.57-10.68-17.39-15.8Z"/>
    <path class="st14" d="M499.96,241.98c14.47-27.8,35.21-37.97,66.16-38.27-6.82,5.34-11.72,9.43-17.83,15.76,39.07,10.39,28.52,8.36,55.94,37.55-8.22,6.06-15.84,12.56-23.91,18.69-21.84-5.84-44.11-2.07-50.5,23.05-8.5,33.42,20.2,65.34,35.26,92.59-4.86,11.29-9.83,22.53-14.93,33.71l-20.48-5.84c-.86,5.1-1.47,7.47-3.01,12.43-.9-6.01-.85-9.9-5.98-14.2-3.38-2.83-16.81-6.31-21.24-6.8,1.01-2.4.94-2.29.62-4.92,9.39-8.97,18.95-19.19,28.33-28.43l-.62-1.87c-6.72,3.9-19.29,2.38-27.64,2.39,1.04-40.41.2-80.74.68-121.15.06-4.9-.07-9.85-.84-14.69Z"/>
    <path class="st1" d="M527.76,375.43c2.29-1.85,4.63-3.64,7.01-5.37-2,2.35-4.2,5.12-6.39,7.24l-.62-1.87Z"/>
    <path class="st6" d="M510.34,238.73c.32,3.33-1.06,25.52-1.27,30.29l-3.1,72.67c-.32,6.93-1.57,14.97-1.69,20.91v.86s-.78.19-.78.19c.54-5.96-.26-17.4-.26-24.09l.1-59.18c-.05-9.16-.52-20.15.72-29.17.48-3.45,4.37-9.36,6.27-12.48Z"/>
    <path class="st6" d="M558.25,392.26c.49,2.88-8.58,23.15-10.39,27.61-8.26-2.28-16.53-4.5-24.82-6.67l-7.64-2.58c7.84-.78,19.85-1.47,27.09-2.9,5.28-4.6,10.8-10.43,15.76-15.45Z"/>
    <path class="st4" d="M465.88,370.79c3.27,2.34,6.58,4.61,9.93,6.84,7.17.51,16.92.23,24.32.19,8.36,0,20.92,1.51,27.64-2.39l.62,1.87c-9.37,9.24-18.93,19.46-28.33,28.43-10.82-10.36-24.67-23.77-34.19-34.93Z"/>
    <path class="st14" d="M438.48,399.83l1.23.14c1.04,2.33,1.97,4.43,2.88,6.82l1.23-.78c.76-3.44-3.09-7.86-1.77-11.54,1.94.88,11.94,12.04,15.22,14.78,8.53,1.21,17.38.97,26,1.31-4.62,1.33-31.02,8.47-33.36,11.4l.21.61c3.48-.16,8.11-.93,10.89-.87-3.29,1.35-7.77,2.33-11.32,3.22-2.94-7.04-9.15-18.33-11.23-25.11Z"/>
    <path class="st6" d="M422.08,287.2l.06-7.68c13.1,9.27,12.89,19.79,30.28,18.78,6.58-1.52,8.46,1.97,12.68,6.51-.06,23.38-10.73,39.65-26.8,56.03-1.67,1.71-2.08,2.56-4.03,2.72l-1.32-1.86c-7.99-9.9-16.87-25.96-19.22-38.45-2.97-15.76-.03-23.24,8.37-36.04Z"/>
    <path class="st14" d="M452.42,298.3c6.58-1.52,8.46,1.97,12.68,6.51-.06,23.38-10.73,39.65-26.8,56.03-1.67,1.71-2.08,2.56-4.03,2.72l-1.32-1.86c.89-1.59.16-15.15.27-18.21.76-20.73,4.34-31.11,19.22-45.19Z"/>
    <path class="st14" d="M577.37,279.73c.25,4.55.32,7.29,3.02,11.26,16.2,23.82.58,52.18-14.54,72.09l-1.16.39c-1.54-1.1-2.99-2.24-4.26-3.65-15.57-17.31-25.39-31.37-25.4-54.75,3.09-3.9,4.26-4.74,8.12-7.85l4.12,1.56c17.73-.23,17.27-9.31,30.08-19.05Z"/>
    <path class="st6" d="M543.16,297.23l4.12,1.56c20.39,18.55,21.19,37.74,18.57,64.3l-1.16.39c-1.54-1.1-2.99-2.24-4.26-3.65-15.57-17.31-25.39-31.37-25.4-54.75,3.09-3.9,4.26-4.74,8.12-7.85Z"/>
    <path class="st6" d="M397.58,198.53c18.07-1.79,30.68,7.01,44.08,17.76-4.89,1.77-8.44,2.52-13.5,3.36l-14.28-6.1c.25,4.52.85,8.37,1.51,12.85-7.05-4.67-14.09-9.21-20.82-14.33,1.28,2.96,2.8,5.89,4.25,8.79l7.03,13.59c-4.16-1.23-8.67-2.37-12.89-3.52l4.86,13.23-6.19,9.86c-13.52-18.95-29.72-49.23,5.95-55.49Z"/>
    <path class="st14" d="M596.66,198.61c6.65-.14,14.09.99,19.6,4.93,3.98,2.81,6.61,7.17,7.23,12,1.77,12.79-8,28.48-15.26,38.26l-6.19-9.58c1.63-4.42,3.32-8.83,5.06-13.21-4.79.91-8.37,2.07-13.04,3.53l4.15-7.85c2.52-4.79,4.91-9.66,7.14-14.59-6.33,4.71-14.01,9.58-20.68,14,.47-4.73,1.04-8.34,1.88-13.04-4.98,2.33-10.03,4.52-15.13,6.57-5.14-1.05-7.96-1.72-12.91-3.38,12.51-9.72,22.17-16.09,38.14-17.63Z"/>
    <path class="st14" d="M496.61,533.34c9.39-1.53,25.96,4.85,33.79,10.03-5.61,6.79-24.11,19.5-32.6,18.33-12.46-3.99-21.58-8.67-30.2-18.38,10-6.09,17.31-8.79,29.02-9.99Z"/>
    <path class="st6" d="M467.59,543.32c10-6.09,17.31-8.79,29.02-9.99l1.31.78c.69,3.3,1.02,24.97-.13,27.59-12.46-3.99-21.58-8.67-30.2-18.38Z"/>
    <path class="st6" d="M451.39,501c.64-7.12,5.11-36.52,7.08-42.82,1.2,9.8,2.5,19.58,3.89,29.35,20.24-5.19,16.11-5.36,37.63-5.04.03,3.81.7,23.22-.9,25.07-12.23-2.16-24.1-6.5-36.62-6.54-3.69-.01-7.38-.04-11.07-.03Z"/>
    <path class="st14" d="M541.27,458.1c1.27,6.25,2.49,13.67,3.12,20.01,1.59,7.56,3.02,15.15,4.28,22.76-15.68-.11-19.09-.39-34.39,3.62-2.29.55-13.62,3.49-15.2,3.07,1.6-1.85.93-21.26.9-25.07,6.34-.06,13.1-.27,19.47.19,4.7.34,14.69,5.42,18.41,3.88l1.01-4.13c.18-6.42,1.7-17.61,2.41-24.34Z"/>
    <path class="st10" d="M541.27,458.1c1.27,6.25,2.49,13.67,3.12,20.01,1.59,7.56,3.02,15.15,4.28,22.76-15.68-.11-19.09-.39-34.39,3.62-2.51-1.07-4.84-1.3-7.56-1.98l-.17-.8,1.18-.23c3.55-2.37,15.42-8.03,19.52-10.12.7-.36,8.88-.24,10.58-.23,1.43-.78.94-.21,1.5-1.7-.63-2.96-.53-3.91-.49-7,.18-6.42,1.7-17.61,2.41-24.34Z"/>
    <path class="st15" d="M544.39,478.11c1.59,7.56,3.02,15.15,4.28,22.76-15.68-.11-19.09-.39-34.39,3.62-2.51-1.07-4.84-1.3-7.56-1.98l-.17-.8,1.18-.23c4.03,1.62,12.1-2.72,16.31-3.62,6.63-1.41,14.45-1.14,21.24-1.19-1.55-7.49-1.26-10.81-.91-18.58Z"/>
    <path class="st15" d="M519.59,468.03c5.64-5.2,5.91-8.14,7.51-15.51,2.64,10.58,4.48,14.85-.92,24.72-10.03-.37-19.34-1.34-29.43-1.31,1.43-.39,1.28-.35,2.61-.97,1.14-2,.67-4.67.56-7.07l19.68.14Z"/>
    <path class="st6" d="M472.86,452.28c4.2,19.35,9.72,15.88,27.05,15.61.11,2.41.58,5.07-.56,7.07-1.33.62-1.18.58-2.61.97-4.61-.13-17.62,1.15-22.85,1.52-5.45-9.98-3.78-14.44-1.02-25.18Z"/>
    <path class="st13" d="M557.77,278.91c2.42-.17,5.93-.09,8.44-.12-3.37,10.73-6.05,13.04-16.88,14.71-3.43.02-5.47.64-7.72-2.04-.35-6.52,10.8-11.43,16.16-12.55Z"/>
    <path class="st13" d="M433.83,278.73c12.43-.13,20.12,1.5,25.35,14.03-13.75,2.55-21.33-.45-25.35-14.03Z"/>
    <path class="st19" d="M612.49,148.3l8.7,6.71-9.87-3.46c.37-1.11.76-2.15,1.17-3.25Z"/>
    <path class="st19" d="M386.67,148.79l2.6,2.52-10.52,3.45,7.93-5.96Z"/>
  </g>
</svg>