<?xml version="1.0" encoding="utf-8"?>
<!-- Generator: Adobe Illustrator 27.9.0, SVG Export Plug-In . SVG Version: 6.00 Build 0)  -->
<svg version="1.1" id="Layer_1" xmlns="http://www.w3.org/2000/svg" xmlns:xlink="http://www.w3.org/1999/xlink" x="0px" y="0px"
	 viewBox="0 0 400 400" style="enable-background:new 0 0 400 400;" xml:space="preserve">
<style type="text/css">
	.st0{fill:#2C4386;}
	.st1{fill:#FBFCFD;}
	.st2{fill:#2441A2;}
	.st3{fill:#FCFC02;}
	.st4{fill:#296DAF;}
	.st5{fill:#102D8E;}
	.st6{fill:#3A59B8;}
	.st7{fill:#FDFDFE;}
	.st8{fill:#060606;}
	.st9{fill:#F9FAFD;}
	.st10{fill:#F8F9FC;}
	.st11{fill:#FCFCFC;}
	.st12{fill:#F7F7F7;}
	.st13{fill:#143191;}
</style>
<g>
	<path class="st0" d="M106.3,2c22.5,0,45-0.2,67.5,0C236.9,2.6,299.9,2.1,363,2.3c1.7,0,2.2,0.4,2.2,2.1c-0.1,16,0.2,32-0.2,48
		c-0.4,18.3,0.1,36.6-0.4,54.8c-0.5,17.7,0.1,35.5-0.4,53.2c-0.5,18.3,0.1,36.7-0.4,55c-0.2,9.3,0.1,18.6-0.4,27.9
		c-0.4,8-1.1,15.9-2.3,23.9c-1.7,10.8-4.3,21.3-8,31.6c-5,13.9-12,26.8-20.9,38.6c-4.6,6.1-9.7,11.9-15.4,17.1
		c-8.6,7.9-18.1,14.8-28.2,20.7c-10.2,5.9-20.9,10.7-32.1,14.3c-8.9,2.8-18,4.9-27.3,6.5c-11.8,2-23.6,2.4-35.5,1.9
		c-7.6-0.3-15.1-1.4-22.6-2.7c-11.5-2-22.7-4.9-33.6-8.8c-12-4.3-23.5-9.8-34.3-16.7c-7.2-4.6-14-9.8-20.5-15.5
		c-10.5-9.3-19.3-20-26.4-32.1c-5.8-9.8-10.3-20.1-13.8-30.9c-2.9-9.2-4.8-18.7-6.2-28.3c-2.1-14.9-1.5-29.9-1.6-44.9
		c0-12.7-0.1-25.4,0.1-38.1c0.6-38.4,0-76.7,0.5-115.1c0.2-20.2,0.1-40.4,0.2-60.6c0-2,0.6-2.4,2.5-2.4C60.9,2,83.6,1.9,106.3,2
		C106.3,1.9,106.3,2,106.3,2z M200.5,10.3c0-0.1,0-0.2,0-0.3c-16.2,0-32.3,0-48.5,0c-35.5,0-71-0.1-106.4-0.2c-1.6,0-2,0.4-2,2
		c0,15.8-0.1,31.6-0.2,47.4c-0.2,58.9-0.4,117.9-0.7,176.8c-0.1,13.8,1.1,27.4,4.1,40.9c7.8,34.8,26,62.6,55.4,82.8
		c27.4,18.8,58.2,28,91.1,30.1c25.5,1.7,50-3,73.5-12.8c25.7-10.7,47.1-26.9,62.9-50.1c16.4-23.9,23.6-50.8,25.3-79.4
		c0.7-12.5,0.5-25.1,0.6-37.7c0.6-65.8,1-131.7,1.5-197.5c0-1.8-0.4-2.3-2.3-2.3C303.5,10.3,252,10.3,200.5,10.3z"/>
	<path class="st1" d="M200.5,10.3c51.5,0,103,0,154.5,0c1.8,0,2.3,0.4,2.3,2.3c-0.5,65.8-1,131.7-1.5,197.5
		c-0.1,12.6,0.2,25.1-0.6,37.7c-1.7,28.6-8.9,55.4-25.3,79.4c-15.8,23.1-37.2,39.3-62.9,50.1c-23.5,9.8-48,14.5-73.5,12.8
		c-32.9-2.2-63.7-11.3-91.1-30.1c-29.5-20.2-47.7-48-55.4-82.8c-3-13.5-4.2-27.1-4.1-40.9c0.2-58.9,0.4-117.9,0.7-176.8
		c0.1-15.8,0.2-31.6,0.2-47.4c0-1.6,0.4-2,2-2c35.5,0.1,71,0.2,106.4,0.2c16.2,0,32.3,0,48.5,0C200.5,10.2,200.5,10.2,200.5,10.3z
		 M200.3,18.9c0-0.1,0-0.3,0-0.4c-48.4,0-96.8,0-145.2,0c-1.7,0-2.2,0.4-2.2,2.1c0,10.8-0.1,21.5-0.1,32.3
		c-0.2,58.4-0.3,116.8-0.6,175.2c-0.1,16.5,0.8,32.8,4.7,48.9c8.6,35.3,28,62.9,59.2,81.7c20.5,12.4,42.9,19.1,66.6,21.9
		c21.5,2.5,42.7,0.8,63.5-5.1c21.9-6.1,41.5-16.4,58-32.2c23.5-22.5,35.3-50.6,39.7-82.3c1.6-11.8,1.8-23.7,1.9-35.5
		c0.5-68.1,1-136.1,1.5-204.2c0-2-0.5-2.4-2.5-2.4C296.7,18.9,248.5,18.9,200.3,18.9z"/>
	<path class="st2" d="M200.3,18.9c48.2,0,96.4,0,144.5,0c2,0,2.5,0.4,2.5,2.4c-0.5,68.1-1,136.1-1.5,204.2
		c-0.1,11.9-0.3,23.7-1.9,35.5c-4.4,31.7-16.2,59.9-39.7,82.3c-16.5,15.8-36.1,26-58,32.2c-20.8,5.8-42,7.6-63.5,5.1
		c-23.7-2.8-46.1-9.5-66.6-21.9c-31.3-18.9-50.7-46.4-59.2-81.7c-3.9-16.1-4.7-32.4-4.7-48.9c0.3-58.4,0.4-116.8,0.6-175.2
		c0-10.8,0.2-21.5,0.1-32.3c0-1.7,0.5-2.1,2.2-2.1c48.4,0,96.8,0,145.2,0C200.3,18.7,200.3,18.8,200.3,18.9z M184.5,99.7
		c-0.5,0.1-1,0.3-1.6,0.4c-17.4,1.6-34.1,5.6-50.1,12.6c-20.4,8.8-38.2,21.2-51.8,39.1c-11.9,15.6-18.6,33.1-18.8,52.8
		c-0.2,19.3,6,36.6,17.2,52.1c13.5,18.6,31.4,31.6,52.2,40.7c25.9,11.4,53.1,15.3,81.2,13.3c20.6-1.5,40.4-6.4,59-15.4
		c19.9-9.6,36.9-22.6,49.4-41.1c13.5-19.9,18.6-41.8,13.8-65.5c-3.6-18-12.5-33.3-25.2-46.4c-22.1-22.7-49.6-34.9-80.5-40.4
		c-4.5-0.8-9.1-1.4-13.7-2c0.3-0.6,0-1-0.2-1.6c-1.6-5-3.1-10.1-4.7-15.1c-0.4-1.2-0.2-1.8,0.8-2.5c2.9-2.1,5.8-4.3,8.6-6.4
		c1.8-1.3,3.5-2.7,5.3-4c-0.1-0.2-0.1-0.4-0.2-0.7c-5.8,0-11.6,0-17.3,0c-1.2,0-1.7-0.3-2-1.4c-0.5-1.8-1.2-3.5-1.8-5.3
		c-1.3-3.8-2.6-7.5-3.9-11.2c-0.6,0.1-0.6,0.4-0.7,0.6c-1.8,5.2-3.6,10.4-5.3,15.6c-0.4,1.2-0.9,1.8-2.3,1.7c-2.2-0.1-4.4,0-6.6,0
		c-3.5,0-7.1,0-10.6,0c0,0.2-0.1,0.5-0.1,0.7c4.4,3.3,8.7,6.7,13.2,9.9c1.6,1.1,1.8,2.1,1.2,3.9C187.6,89.2,186.1,94.4,184.5,99.7z"
		/>
	<path class="st1" d="M215.8,99.8c4.6,0.7,9.1,1.2,13.7,2c30.8,5.5,58.3,17.7,80.5,40.4c12.7,13.1,21.6,28.4,25.2,46.4
		c4.7,23.8-0.4,45.6-13.8,65.5c-12.5,18.4-29.5,31.5-49.4,41.1c-18.7,9-38.4,13.9-59,15.4c-28.1,2-55.3-2-81.2-13.3
		c-20.8-9.1-38.8-22.1-52.2-40.7c-11.2-15.5-17.4-32.8-17.2-52.1c0.2-19.8,6.9-37.2,18.8-52.8c13.6-17.8,31.3-30.3,51.8-39.1
		c16-6.9,32.7-11,50.1-12.6c0.5,0,1.1-0.3,1.6-0.4c0.3,0,0.6,0,0.9,0c3.8-0.1,7.6-0.2,11.4-0.4c6.2-0.2,12.4,0.4,18.6,0.5
		C215.5,99.8,215.6,99.8,215.8,99.8z M202,302.8c3.8,0.1,10.1-0.3,16.3-1c18.5-2.1,36.2-6.9,52.9-15.3c16.7-8.4,31.4-19.4,42.3-34.8
		c17.9-25.2,21.4-52.2,8.2-80.5c-8.8-18.9-23.3-32.6-40.9-43.3c-23.2-14-48.6-20.5-75.5-21.5c-22.3-0.8-44,2.6-64.8,10.7
		c-20.4,7.9-38.3,19.5-52.2,36.7c-10.8,13.5-17.5,28.7-18.5,46.1c-1.1,17.6,3.7,33.7,13.4,48.3c12.5,18.7,29.8,31.6,50,40.7
		C154.3,298.5,176.5,302.7,202,302.8z"/>
	<path class="st3" d="M185.4,99.7c-0.3,0-0.6,0-0.9,0c1.6-5.2,3.1-10.5,4.8-15.7c0.6-1.8,0.4-2.7-1.2-3.9c-4.5-3.2-8.8-6.6-13.2-9.9
		c0-0.2,0.1-0.5,0.1-0.7c3.5,0,7.1,0,10.6,0c2.2,0,4.4-0.1,6.6,0c1.4,0.1,1.9-0.5,2.3-1.7c1.7-5.2,3.5-10.4,5.3-15.6
		c0.1-0.3,0.1-0.6,0.7-0.6c1.3,3.7,2.6,7.4,3.9,11.2c0.6,1.7,1.2,3.5,1.8,5.3c0.3,1.1,0.9,1.4,2,1.4c5.8-0.1,11.6,0,17.3,0
		c0.1,0.2,0.1,0.4,0.2,0.7c-1.8,1.3-3.5,2.7-5.3,4c-2.9,2.2-5.7,4.3-8.6,6.4c-1,0.7-1.2,1.3-0.8,2.5c1.6,5,3.1,10.1,4.7,15.1
		c0.2,0.5,0.4,1,0.2,1.6c-0.2,0-0.3,0-0.5,0c-4.7-3.3-9.4-6.6-14-9.9c-0.7-0.5-1.2-0.6-2-0.1C194.7,93.1,190,96.4,185.4,99.7z"/>
	<path class="st4" d="M202,302.8c-25.5-0.1-47.7-4.3-68.8-13.8c-20.3-9.1-37.6-22-50-40.7c-9.7-14.6-14.5-30.7-13.4-48.3
		c1.1-17.4,7.7-32.6,18.5-46.1c13.9-17.2,31.7-28.8,52.2-36.7c20.9-8.1,42.5-11.5,64.8-10.7c26.9,1,52.3,7.5,75.5,21.5
		c17.6,10.6,32.2,24.4,40.9,43.3c13.1,28.3,9.6,55.3-8.2,80.5c-10.9,15.4-25.6,26.4-42.3,34.8c-16.7,8.4-34.4,13.2-52.9,15.3
		C212.1,302.4,205.8,302.9,202,302.8z M100.8,262.5c0.1,0.1,0.3,0.3,0.4,0.4l0,0c0.2,0.4,0.5,0.4,0.8,0.4c0.8,0.5,1.5,1.2,2.1,2
		c0,1.2,0.7,1.4,1.7,1.3c0.4,0.4,0.8,0.8,1.2,1.2c0,1.2,0.7,1.4,1.7,1.3c0.1,0.1,0.3,0.2,0.4,0.4c0,1.2,0.7,1.4,1.7,1.3
		c0.1,0.1,0.3,0.2,0.4,0.4c0,0.9,0.6,0.9,1.3,0.9c0.1,0.1,0.3,0.2,0.4,0.3c0,0.9,0.6,0.9,1.2,0.9l0,0c0,0.9,0.7,0.9,1.3,0.8
		c0.1,0.1,0.3,0.2,0.4,0.3c0,0.6,0.2,0.9,0.8,0.9l0,0c0.1,0.4,0.3,0.3,0.4,0c0.3,0.1,0.5,0.3,0.8,0.4c0,0.9,0.6,0.9,1.2,0.9l0,0
		c0,0.9,0.6,0.9,1.2,0.8l0,0c0.1,0.7,0.4,1.2,1.3,0.8c0.3,0.1,0.5,0.3,0.8,0.4c0,0.6,0.3,0.9,0.8,0.8l0,0c0.1,0.4,0.3,0.3,0.4,0
		c0.3,0.1,0.5,0.3,0.8,0.4c0.8,1.5,2.2,2,3.8,2.1c0.3,0.1,0.5,0.3,0.8,0.4c0.5,1.4,1.7,1.6,2.9,1.7l0,0c1.7,1.1,3.3,2.3,5.4,2.5l0,0
		c1.5,1.2,3.1,1.9,5,2.1l0,0c0.3,0.5,0.9,0.7,1.4,0.8c8.4,3.2,17.1,5.5,26,7.1c9.7,1.8,19.4,2.7,29.2,2.8c3.5,0,7-0.2,10.5-0.3
		c5.9-0.3,11.7-1,17.6-1.9c6.5-1,12.9-2.6,19.2-4.5c3-0.9,6.1-1.5,8.8-3.3l0,0c2.3-0.3,4.4-1.1,6.2-2.5l0,0c2.4-0.4,4.3-1.6,6.2-2.9
		l0,0c1.3-0.1,2.4-0.3,2.9-1.7c0.3-0.1,0.5-0.3,0.8-0.4c1.6-0.1,3-0.6,3.8-2.1c0.3-0.1,0.5-0.3,0.8-0.4c0.9,0.5,1.2-0.1,1.3-0.8
		c0.3-0.1,0.5-0.3,0.8-0.4c0.9,0.5,1.2-0.1,1.3-0.8c0.3-0.1,0.5-0.3,0.8-0.4c0.7,0.5,0.4-0.2,0.5-0.4c0.3-0.1,0.5-0.3,0.8-0.4
		c0.7,0.5,0.4-0.2,0.5-0.4c0.3-0.1,0.5-0.3,0.8-0.4c0.1,0.3,0.3,0.4,0.4,0l0,0c0.6,0,0.9-0.3,0.8-0.9c0.1-0.1,0.3-0.2,0.4-0.3
		c0.6,0,1.3,0.1,1.3-0.8l0,0c0.6,0,1.3,0,1.2-0.9c0.1-0.1,0.3-0.2,0.4-0.3c0.6,0,1.3,0,1.3-0.9c0.1-0.1,0.3-0.2,0.4-0.4
		c0.9,0,1.7-0.2,1.7-1.3c0.1-0.1,0.3-0.2,0.4-0.4c0.6,0,1.3,0,1.3-0.9c0.4-0.6,1-1.2,1.7-1.6c0.9,0,1.7-0.2,1.7-1.3
		c2.6-2.6,5.2-5.2,7.8-7.8c1.1,0,1.4-0.7,1.3-1.7c0.4-0.4,0.8-0.8,1.2-1.2c0.9,0,0.9-0.6,0.9-1.3c0.3-0.3,0.5-0.5,0.8-0.8
		c0.9,0,0.9-0.6,0.9-1.3c0.1-0.1,0.2-0.3,0.3-0.4c0.9,0,0.9-0.6,0.9-1.2l0,0c0.2,0,0.4-0.1,0.6-0.1c-0.1-0.1-0.1-0.2-0.2-0.3
		c0.1-0.5,0.3-0.9,0.8-1.2c0.9,0,0.9-0.6,0.9-1.2l0,0c0.6,0,0.8-0.3,0.8-0.8l0,0c0.4-0.1,0.3-0.3,0-0.4c0.1-0.3,0.3-0.5,0.4-0.8
		c0.7-0.1,1.3-0.4,0.8-1.3c0.1-0.3,0.3-0.5,0.4-0.8c0.6,0,0.9-0.3,0.8-0.8l0,0c1.7-2.8,3.4-5.5,4.1-8.7l0,0c0.7-0.5,0.9-1.2,0.8-2.1
		l0,0c0.2-0.3,0.5-0.5,0.6-0.8c2.4-6.8,4-13.8,4.3-21c0.3-5.3,0.3-10.7-0.8-16c-0.7-3.7-1.1-7.6-2.9-11l0,0c0.1-0.9,0-1.9-0.8-2.5
		l0,0c-0.1-1.5-0.6-3-1.7-4.1l0,0c-0.3-2.6-2.1-4.6-3-6.9c-0.2-0.5-0.5-1-1.2-1c-0.1-0.3-0.3-0.5-0.4-0.8c0.3-1.1-0.2-1.8-1.2-2.1
		l0,0c0-0.6,0-1.2-0.8-1.3l0,0c0-0.6,0-1.2-0.8-1.2l0,0c0-0.6,0-1.2-0.8-1.2l0,0c0-0.6,0-1.3-0.9-1.2c-0.1-0.1-0.2-0.3-0.3-0.4
		c0-0.6,0-1.3-0.9-1.3c-0.1-0.1-0.2-0.3-0.3-0.4c0-0.6,0-1.3-0.9-1.3c-0.3-0.3-0.5-0.5-0.8-0.8c0-0.6,0-1.3-0.9-1.3
		c-0.4-0.4-0.8-0.8-1.2-1.2c0-1.2-0.4-2-1.7-2.1c-2.1-2.1-4.1-4.1-6.2-6.2c0-1.1-0.7-1.4-1.7-1.3c-0.7-0.4-1.2-0.9-1.7-1.6
		c0-1.2-0.7-1.4-1.7-1.3c-0.1-0.1-0.3-0.2-0.4-0.4c0-1.2-0.7-1.4-1.7-1.3c-0.1-0.1-0.3-0.2-0.4-0.4c0-0.9-0.6-0.9-1.3-0.9
		c-0.1-0.1-0.3-0.2-0.4-0.4c0-0.9-0.6-0.9-1.2-0.9l0,0c0-0.2-0.1-0.4-0.1-0.6c-0.1,0.1-0.2,0.1-0.3,0.2c-0.5-0.1-0.9-0.3-1.2-0.8
		c0-0.9-0.6-0.9-1.2-0.9l0,0c0-0.9-0.6-0.9-1.2-0.8l0,0c0-0.9-0.6-0.9-1.2-0.8l0,0c0-0.6-0.3-0.8-0.8-0.8l0,0
		c-0.1-0.4-0.3-0.3-0.4,0c-0.3-0.1-0.5-0.3-0.8-0.4c-0.1-0.8-0.4-1.3-1.3-0.8c-0.3-0.1-0.5-0.3-0.8-0.4c-0.3-1.1-1-1.5-2.1-1.2
		c-0.3-0.1-0.5-0.3-0.8-0.4c-3-2.8-6.6-4.1-10.4-5.4l0,0c-0.8-0.8-1.7-1.3-2.9-1.2l0,0c-0.5-0.7-1.2-0.9-2.1-0.8l0,0
		c-0.3-0.5-0.9-0.7-1.4-0.8c-10.5-3.9-21.3-6.8-32.4-8.4c-9.4-1.3-18.9-1.9-28.4-1.7c-10.3,0.2-20.4,1.3-30.4,3.4
		c-4,0.9-8.1,1.5-11.8,3.3l0,0c-4.2,0.8-8.2,2.1-12,4.1l0,0c-0.8-0.1-1.6,0.1-2.1,0.8l0,0c-1.5,0-2.6,0.7-3.7,1.7l0,0
		c-3.2,0.7-5.8,2.5-8.6,4c-0.1,0.1-0.1,0.4-0.1,0.6c-0.3,0.1-0.5,0.3-0.8,0.4c-1.3-0.1-2.4,0.3-2.9,1.6l0,0c-0.9,0-1.9,0-2.1,1.3
		c-0.3,0.1-0.5,0.3-0.8,0.4c-0.1-0.3-0.3-0.4-0.4,0l0,0c-0.6,0-0.8,0.3-0.8,0.8l0,0c-0.6,0-1.2,0-1.2,0.8l0,0c-0.6,0-1.2,0-1.2,0.8
		l0,0c-0.6,0-1.3,0-1.2,0.9c-0.1,0.1-0.3,0.2-0.4,0.4c-0.6,0-1.3-0.1-1.3,0.8l0,0c-0.6,0-1.3,0-1.2,0.9c-0.1,0.1-0.3,0.2-0.4,0.3
		c-0.6,0-1.3,0-1.3,0.9c-0.3,0.3-0.5,0.5-0.8,0.8c-0.6,0-1.3,0-1.3,0.9c-0.1,0.1-0.3,0.2-0.4,0.3c-1.2-0.1-2,0.4-2.1,1.7
		c-0.4,0.4-0.8,0.8-1.2,1.2c-0.9,0-1.7,0.2-1.7,1.3c-2.1,2.1-4.1,4.1-6.2,6.2c-1.3,0.1-1.8,0.9-1.7,2.1c-0.4,0.4-0.8,0.8-1.2,1.2
		c-0.9,0-0.9,0.6-0.9,1.3c-0.3,0.3-0.5,0.5-0.8,0.8c-0.9,0-0.9,0.6-0.9,1.3c-0.1,0.1-0.2,0.3-0.3,0.4c-0.9,0-0.9,0.6-0.9,1.3
		c-0.1,0.1-0.2,0.3-0.4,0.4c-0.9,0-0.9,0.6-0.9,1.2l0,0c-0.9,0-0.9,0.6-0.8,1.2l0,0c-0.9,0-0.9,0.6-0.8,1.2l0,0
		c-0.7,0.1-1.3,0.4-0.8,1.3c-0.1,0.3-0.3,0.5-0.4,0.8c-0.7,0.1-1.3,0.4-0.8,1.3c-0.1,0.3-0.3,0.5-0.4,0.8c-2.3,2.1-3.3,5-4.2,7.9
		l0,0c-1.1,1.2-1.5,2.6-1.7,4.1l0,0c-0.5,0.3-0.4,0.8-0.4,1.2l0,0c-0.5,0.3-0.4,0.8-0.4,1.2l0,0c-0.4,0.2-0.4,0.7-0.6,1.1
		c-1.9,5.4-2.8,11-3.1,16.7c-0.5,7.8,0.1,15.6,2.2,23.2c0.7,2.7,1.1,5.5,2.7,7.9l0,0c-0.1,0.8,0.1,1.6,0.8,2.1l0,0
		c0.8,3.4,2.8,6.3,4.4,9.4c0.1,0.1,0.4,0.1,0.6,0.1c0.1,0.3,0.3,0.5,0.4,0.8c-0.5,0.9,0.1,1.2,0.8,1.3c0.1,0.3,0.3,0.5,0.4,0.8
		c-0.3,0.1-0.4,0.3,0,0.4l0,0c0,0.6,0.3,0.8,0.8,0.8l0,0c0,0.6,0,1.3,0.9,1.2c0.5,0.3,0.7,0.7,0.8,1.2c-0.1,0.1-0.1,0.2-0.2,0.3
		c0.2,0,0.4,0.1,0.6,0.1l0,0c0,0.6,0,1.3,0.9,1.2c0.1,0.1,0.2,0.3,0.3,0.4c0,0.6,0,1.3,0.9,1.3c0.3,0.3,0.5,0.5,0.8,0.8
		c0,0.6,0,1.3,0.9,1.2c0.4,0.4,0.8,0.8,1.2,1.2c0,0.9,0.2,1.7,1.3,1.7c1.1,0.9,2,1.8,2.8,2.9c0,0.4,0.1,0.7,0.4,0.8l0,0
		c0.1,0.1,0.3,0.3,0.4,0.4l0,0c0.1,0.1,0.3,0.3,0.4,0.4l0,0C100.5,262.2,100.7,262.3,100.8,262.5L100.8,262.5z"/>
	<path class="st0" d="M185.4,99.7c4.7-3.3,9.3-6.6,14-10c0.8-0.6,1.3-0.4,2,0.1c4.6,3.3,9.3,6.6,14,9.9c-6.2-0.1-12.4-0.7-18.6-0.5
		C192.9,99.5,189.1,99.6,185.4,99.7z"/>
	<path class="st5" d="M104.1,265.3c-0.6-0.8-1.2-1.5-2.1-2c-0.2-0.3-0.5-0.4-0.8-0.4c0,0,0,0,0,0c-0.1-0.1-0.3-0.3-0.4-0.4
		c0,0,0,0,0,0c-0.1-0.1-0.3-0.3-0.4-0.4c0,0,0,0,0,0c-0.1-0.1-0.3-0.3-0.4-0.4c0,0,0,0,0,0c-0.1-0.1-0.3-0.3-0.4-0.4c0,0,0,0,0,0
		c0-0.4-0.1-0.7-0.4-0.8c-0.8-1.1-1.8-2-2.8-2.9c-0.2-0.8-0.7-1.3-1.3-1.7c-0.4-0.4-0.8-0.8-1.2-1.2c-0.1-0.6-0.4-1-0.9-1.3
		c-0.3-0.3-0.5-0.5-0.8-0.8c-0.1-0.6-0.4-1-0.9-1.3c-0.1-0.1-0.2-0.3-0.3-0.4c-0.1-0.6-0.4-1-0.9-1.2c0,0,0,0,0,0
		c-0.1-0.2-0.3-0.3-0.4-0.5c-0.1-0.5-0.3-0.9-0.8-1.2c-0.1-0.5-0.3-1-0.9-1.2c0,0,0,0,0,0c0-0.5-0.3-0.8-0.8-0.8c0,0,0,0,0,0
		c0-0.1,0-0.3,0-0.4c-0.1-0.3-0.3-0.5-0.4-0.8c-0.1-0.6-0.3-1-0.8-1.3c-0.1-0.3-0.3-0.5-0.4-0.8c-1.1-2.1-2.1-4.3-3.2-6.4
		c-0.6-1.1-0.5-2.4-1.7-3.2c0,0,0,0,0,0c0-0.8,0.1-1.6-0.8-2.1c0,0,0,0,0,0c-0.1-0.6-0.1-1.2-0.3-1.8c-1.4-4.2-2.5-8.4-3.2-12.7
		c-1.3-7.8-1.4-15.7,0-23.5c0.6-3.6,1.5-7.2,2.3-10.8c0,0,0,0,0,0c0.5-0.3,0.4-0.8,0.4-1.2c0,0,0,0,0,0c0.5-0.3,0.4-0.8,0.4-1.2
		c0,0,0,0,0,0c1.1-1.2,1.6-2.6,1.7-4.1c0,0,0,0,0,0c1.7-2.4,2.7-5.3,4.2-7.9c0.1-0.3,0.3-0.5,0.4-0.8c0.5-0.3,0.8-0.7,0.8-1.3
		c0.1-0.3,0.3-0.5,0.4-0.8c0.5-0.3,0.8-0.7,0.8-1.3c0,0,0,0,0,0c0.5-0.2,0.8-0.7,0.8-1.2c0,0,0,0,0,0c0.5-0.2,0.8-0.7,0.8-1.2
		c0,0,0,0,0,0c0.5-0.2,0.8-0.7,0.9-1.2c0.1-0.1,0.2-0.3,0.4-0.4c0.5-0.3,0.8-0.7,0.9-1.3c0.1-0.1,0.2-0.3,0.3-0.4
		c0.5-0.3,0.8-0.7,0.9-1.3c0.3-0.3,0.5-0.5,0.8-0.8c0.5-0.3,0.8-0.7,0.9-1.3c0.4-0.4,0.8-0.8,1.2-1.2c0.8-0.5,1.5-1.1,1.7-2.1
		c2.1-2.1,4.1-4.1,6.2-6.2c0.8-0.2,1.3-0.7,1.7-1.3c0.4-0.4,0.8-0.8,1.2-1.2c1-0.2,1.5-1,2.1-1.7c0.1-0.1,0.3-0.2,0.4-0.3
		c0.6-0.1,1-0.4,1.3-0.9c0.3-0.3,0.5-0.5,0.8-0.8c0.6-0.1,1-0.4,1.3-0.9c0.1-0.1,0.3-0.2,0.4-0.3c0.5-0.1,1-0.3,1.2-0.9c0,0,0,0,0,0
		c0.6,0,1-0.3,1.3-0.8c0.1-0.1,0.3-0.2,0.4-0.4c0.6-0.1,1-0.3,1.2-0.9c0,0,0,0,0,0c0.6,0,1-0.3,1.2-0.8c0,0,0,0,0,0
		c0.6,0,1-0.3,1.2-0.8c0,0,0,0,0,0c0.5,0,0.8-0.3,0.8-0.8c0,0,0,0,0,0c0.1,0,0.3,0,0.4,0c0.3-0.1,0.5-0.3,0.8-0.4
		c0.8-0.2,1.6-0.5,2.1-1.3c0,0,0,0,0,0c1.2-0.2,2-1,2.9-1.6c0.3-0.1,0.5-0.3,0.8-0.4c2.9-1.5,6.1-2.5,8.7-4.6c0,0,0,0,0,0
		c1.4-0.2,2.8-0.4,3.7-1.7c0,0,0,0,0,0c0.8,0,1.6,0.1,2.1-0.8c0,0,0,0,0,0c4.1-1.1,8.2-2.3,12-4.1c0,0,0,0,0,0
		c0.7-0.1,1.4-0.1,2-0.2c11.4-3.4,23-5.2,34.8-5.9c9.4-0.5,18.9-0.4,28.2,0.8c11.3,1.4,22.4,3.8,33.2,7.6c2,0.7,3.9,1.8,6.1,1.9
		c0,0,0,0,0,0c0.4,0.9,1.3,0.8,2.1,0.8c0,0,0,0,0,0c0.7,1.1,1.7,1.3,2.9,1.2c0,0,0,0,0,0c3.2,2.3,6.9,3.6,10.4,5.4
		c0.3,0.1,0.5,0.3,0.8,0.4c0.5,0.7,1.3,1,2.1,1.2c0.3,0.1,0.5,0.3,0.8,0.4c0.3,0.5,0.7,0.8,1.3,0.8c0.3,0.1,0.5,0.3,0.8,0.4
		c0.1,0,0.3,0,0.4,0c0,0,0,0,0,0c0,0.5,0.3,0.8,0.8,0.8c0,0,0,0,0,0c0.2,0.5,0.7,0.8,1.2,0.8c0,0,0,0,0,0c0.2,0.5,0.7,0.8,1.2,0.8
		c0,0,0,0,0,0c0.2,0.5,0.7,0.8,1.2,0.9c0.3,0.5,0.7,0.8,1.2,0.8c0.2,0.1,0.3,0.3,0.5,0.4c0,0,0,0,0,0c0.2,0.5,0.7,0.8,1.2,0.9
		c0.1,0.1,0.3,0.2,0.4,0.4c0.3,0.5,0.7,0.8,1.3,0.9c0.1,0.1,0.3,0.2,0.4,0.4c0.4,0.6,0.9,1.2,1.7,1.3c0.1,0.1,0.3,0.2,0.4,0.4
		c0.4,0.6,0.9,1.2,1.7,1.3c0.4,0.6,1,1.2,1.7,1.6c0.4,0.7,0.9,1.2,1.7,1.3c2.1,2.1,4.1,4.1,6.2,6.2c0.2,1,1,1.5,1.7,2.1
		c0.4,0.4,0.8,0.8,1.2,1.2c0.1,0.6,0.4,1,0.9,1.3c0.3,0.3,0.5,0.5,0.8,0.8c0.1,0.6,0.4,1,0.9,1.3c0.1,0.1,0.2,0.3,0.3,0.4
		c0.1,0.6,0.4,1,0.9,1.3c0.1,0.1,0.2,0.3,0.4,0.4c0.1,0.6,0.3,1,0.9,1.2c0,0,0,0,0,0c0,0.6,0.3,1,0.8,1.2c0,0,0,0,0,0
		c0,0.6,0.3,1,0.8,1.2c0,0,0,0,0,0c0,0.6,0.3,1,0.8,1.3c0,0,0,0,0,0c0.2,0.8,0.5,1.6,1.2,2.1c0.1,0.3,0.3,0.5,0.4,0.8
		c1.4,2.6,2.4,5.4,4.2,7.9c0,0,0,0,0,0c0.1,1.6,0.6,3,1.7,4.1c0,0,0,0,0,0c0,0.9,0.1,1.8,0.8,2.5c0,0,0,0,0,0c-0.1,1.1,0.2,2,0.5,3
		c3.2,11.3,3.7,22.8,1.2,34.3c-0.8,3.9-2,7.7-3,11.5c0,0,0,0,0,0c-0.9,0.4-0.8,1.3-0.8,2.1c0,0,0,0,0,0c-1.7,2.7-3.2,5.6-4.1,8.7
		c0,0,0,0,0,0c-0.6,0-0.8,0.4-0.8,0.8c-0.1,0.3-0.3,0.5-0.4,0.8c-0.5,0.3-0.8,0.7-0.8,1.3c-0.1,0.3-0.3,0.5-0.4,0.8
		c0,0.1,0,0.3,0,0.4c0,0,0,0,0,0c-0.5,0-0.8,0.3-0.8,0.8c0,0,0,0,0,0c-0.5,0.2-0.8,0.7-0.9,1.2c-0.5,0.3-0.7,0.7-0.8,1.2
		c-0.1,0.2-0.3,0.3-0.4,0.5c0,0,0,0,0,0c-0.5,0.2-0.8,0.7-0.9,1.2c-0.1,0.1-0.2,0.3-0.3,0.4c-0.5,0.3-0.8,0.7-0.9,1.3
		c-0.3,0.3-0.5,0.5-0.8,0.8c-0.5,0.3-0.8,0.7-0.9,1.3c-0.4,0.4-0.8,0.8-1.2,1.2c-0.7,0.4-1.2,0.9-1.3,1.7c-2.6,2.6-5.2,5.2-7.8,7.8
		c-0.8,0.2-1.3,0.7-1.7,1.3c-0.7,0.4-1.2,0.9-1.7,1.6c-0.6,0.1-1,0.4-1.3,0.9c-0.1,0.1-0.3,0.2-0.4,0.4c-0.8,0.1-1.3,0.7-1.7,1.3
		c-0.1,0.1-0.3,0.2-0.4,0.4c-0.6,0.1-1,0.4-1.3,0.9c-0.1,0.1-0.3,0.2-0.4,0.3c-0.6,0.1-1,0.3-1.2,0.9c0,0,0,0,0,0
		c-0.6,0-1,0.3-1.3,0.8c-0.1,0.1-0.3,0.2-0.4,0.3c-0.5,0.1-0.8,0.3-0.8,0.9c0,0,0,0,0,0c-0.1,0-0.3,0-0.4,0
		c-0.3,0.1-0.5,0.3-0.8,0.4c-0.2,0.1-0.3,0.3-0.5,0.4c-0.3,0.1-0.5,0.3-0.8,0.4c-0.2,0.1-0.3,0.3-0.5,0.4c-0.3,0.1-0.5,0.3-0.8,0.4
		c-0.6,0.1-1,0.3-1.3,0.8c-0.3,0.1-0.5,0.3-0.8,0.4c-0.6,0.1-1,0.3-1.3,0.8c-0.3,0.1-0.5,0.3-0.8,0.4c-1.4,0.4-2.6,1.3-3.8,2.1
		c-0.3,0.1-0.5,0.3-0.8,0.4c-1.1,0.4-2.2,0.7-2.9,1.7c0,0,0,0,0,0c-2.2,0.6-4.4,1.4-6.2,2.9c0,0,0,0,0,0c-2.3,0.3-4.3,1.2-6.2,2.5
		c0,0,0,0,0,0c-4,0.6-7.6,2.3-11.4,3.4c-10.9,3-22,5-33.2,5.6c-5,0.3-10.1,0.5-15.2,0.3c-6-0.3-12.1-0.7-18.1-1.5
		c-9.7-1.3-19.1-3.6-28.4-6.7c-2.1-0.7-4-1.9-6.3-1.9c0,0,0,0,0,0c-1.4-1.3-3.2-1.7-5-2.1c0,0,0,0,0,0c-1.5-1.4-3.4-2-5.4-2.5
		c0,0,0,0,0,0c-0.7-1-1.8-1.3-2.9-1.7c-0.3-0.1-0.5-0.3-0.8-0.4c-1.1-0.9-2.3-1.7-3.8-2.1c-0.3-0.1-0.5-0.3-0.8-0.4
		c-0.1,0-0.3,0-0.4,0c0,0,0,0,0,0c0-0.6-0.4-0.8-0.8-0.8c-0.3-0.1-0.5-0.3-0.8-0.4c-0.3-0.5-0.7-0.8-1.3-0.8c0,0,0,0,0,0
		c-0.2-0.5-0.7-0.8-1.2-0.8c0,0,0,0,0,0c-0.2-0.5-0.7-0.8-1.2-0.9c-0.3-0.1-0.5-0.3-0.8-0.4c-0.1,0-0.3,0-0.4,0c0,0,0,0,0,0
		c0-0.6-0.4-0.8-0.8-0.9c-0.1-0.1-0.3-0.2-0.4-0.3c-0.3-0.5-0.7-0.8-1.3-0.8c0,0,0,0,0,0c-0.2-0.5-0.7-0.8-1.2-0.9
		c-0.1-0.1-0.3-0.2-0.4-0.3c-0.3-0.5-0.7-0.8-1.3-0.9c-0.1-0.1-0.3-0.2-0.4-0.4c-0.4-0.6-0.9-1.2-1.7-1.3c-0.1-0.1-0.3-0.2-0.4-0.4
		c-0.4-0.6-0.9-1.2-1.7-1.3c-0.4-0.4-0.8-0.8-1.2-1.2C105.4,266,104.9,265.5,104.1,265.3z M285,141.6L285,141.6
		c-0.6-1.1-1.7-1.6-2.7-2.3c-21.6-15.4-45.9-23-72.1-25c-25-1.8-49.2,1.9-72.3,12c-17,7.5-32,17.9-43.4,32.8
		c-12.9,16.9-18.7,35.8-14.9,57.2c0.2,1.1,0.5,2.2,0.7,3.2c0.3,1.1,0.5,2.3,0.9,3.4c0.3,1,0.4,2.1,1.2,3.1c0.2-0.7,0.4-1.1,0.5-1.6
		c1.8-7.9,4.1-15.7,7.4-23.2c7.5-17.2,18.9-30.6,36.2-38.6c18.7-8.7,38.1-9.2,57.7-4.2c16.5,4.1,31,12.4,44.4,22.6
		c5.1,3.8,9.7,8.2,14.6,12.2c1,0.4,0.9,1.6,1.5,2.3c8.6,12,20.1,17.6,34.8,15.5c20.5-2.9,33.7-21.5,30-41.7
		c-1.5-8.2-5.4-15-11.8-20.5c-3.6-3.1-7.9-5.2-12.3-6.9C285.7,141.6,285.3,141.6,285,141.6z M231.4,272.7c2.1-1.3,3.7-3,4.6-5.1
		c2.1-4.9,2.3-9.9,0.8-15c-1.2-4.2-3.3-5.4-7.6-4.4c-3.4,0.8-6.8,1.8-10.2,2.6c-1.4,0.3-1.8,0.8-1.8,2.3c0.2,13.9,0.3,27.7,0.5,41.6
		c0,0.4,0.1,0.8,0.1,1.4c1.1-0.3,2-0.7,3.1-0.8c1.6-0.2,1.9-1,1.9-2.5c-0.1-4.9-0.1-9.8-0.1-14.7c0-2.2,0.6-2.7,2.8-2.6
		c1.4,0.1,2.1,1.1,2.5,2.1c1.6,3.5,3.1,7,4.7,10.6c1.5,3.6,1.5,3.5,5.4,2.6c1.7-0.4,2.4-0.9,1.4-2.7c-0.7-1.2-1.1-2.7-1.6-4
		C236,280.3,234.9,276,231.4,272.7z M240.3,266.9c0,6.9,0.2,12,2.6,16.7c2.3,4.6,5.9,5.7,10.5,3.4c4.2-2.1,6.5-5.9,8.2-10
		c2.9-7.3,3.3-15,2.7-22.8c-0.3-3.4-0.9-6.8-2.7-9.9c-2.3-4-5.6-5-9.8-3c-3.6,1.7-5.9,4.6-7.6,8.1
		C241.1,255.5,240.2,262,240.3,266.9z M116.5,249.3c0,8.6,1.2,14.8,3.7,20.1c1.6,3.4,3.7,6.3,7,8.2c4.4,2.5,7.8,1.4,10-3.2
		c1.3-2.7,1.7-5.5,1.9-8.4c0.6-9,0-17.8-4.3-26c-1.6-3-3.8-5.6-6.9-7.1c-4-1.9-6.7-1-8.8,2.8c-0.6,1-1,2.1-1.3,3.2
		C116.6,242.6,116.5,246.4,116.5,249.3z M192.3,297.2c1.3,0,2.4-0.1,3.6,0c1.4,0.1,1.9-0.6,2.1-1.8c0.4-2.4,0.9-4.7,1.3-7.1
		c0.2-1.1,0.6-1.5,1.7-1.5c2.4,0,4.8-0.1,7.2-0.3c1.1-0.1,1.4,0.3,1.6,1.3c0.3,1.8,0.7,3.5,1.1,5.3c0.7,3.5,0.7,3.4,4.4,3.5
		c1.7,0,1.8-0.5,1.5-2c-3-13-5.9-26-8.8-39.1c-0.9-3.8-0.8-3.8-4.7-3.6c-1.1,0.1-1.6,0.3-1.8,1.5c-0.5,2.7-1.1,5.4-1.7,8.1
		C197.4,273.3,194.9,285.2,192.3,297.2z M167.7,276.7c-0.6,2.1-0.9,3.5-1.5,4.8c-1.2,2.9-3.5,3.4-5.9,1.4c-1.7-1.5-2.7-3.5-3.3-5.6
		c-1.5-5.5-1.5-11-1-16.6c0.1-1.5,0.4-3,1-4.4c1.3-2.9,3.9-3.5,6.3-1.3c1.9,1.7,3,3.9,3.3,6.3c0.3,2,1.2,2.6,2.9,2.3
		c0.4-0.1,0.8,0,1.2,0c0.9,0.1,1.3-0.2,1.1-1.2c-0.8-4.8-2.3-9.3-5.6-12.9c-5.6-5.9-11.8-4.6-14.3,3.1c-1.4,4.3-1.6,8.8-1.5,13.3
		c0.2,7,1.3,13.7,5.1,19.8c1.7,2.7,3.8,4.9,6.9,6c1.8,0.7,3.7,0.8,5.3-0.4c2.9-2.1,3.7-5.4,4.2-8.7c0.3-2-1.9-2.5-2.8-3.8
		C168.9,278.3,168.5,277.7,167.7,276.7z M102.7,241.3c3.5,1.5,4.6,1,4.9-2.6c0.6-6.6-1.1-12.7-5.1-18.1c-3.4-4.5-7.3-8.6-11.1-12.8
		c-0.1-0.1-0.3-0.1-0.6-0.1c0,10.8,0.2,21.5-0.1,32.1c-0.1,3.8,1.5,6.1,4.3,8.6c0-5.1,0-9.8,0-14.9c2.4,2.2,3.7,4.7,4.4,7.4
		c1.5,5.5,3.1,11,4.4,16.5c0.7,3,3.2,4.5,5,6.6C107.2,256.4,105.8,248.8,102.7,241.3z M292.1,237.5c-3.7,2.6-6.9,4.9-10.6,7.6
		c0-3.1,0.1-5.6,0-8c-0.1-1.2,0.4-1.9,1.3-2.5c3.2-2.2,6.4-4.6,9.6-6.9c0.5-0.4,1.2-0.7,1.2-1.6c0-1.9,0-3.8,0-5.7
		c-0.9-0.2-1.2,0.3-1.5,0.6c-4.8,3.4-9.5,6.9-14.3,10.2c-1,0.7-1.4,1.5-1.3,2.7c0.2,12.6,0.3,25.3,0.5,37.9c0,0.2,0.1,0.4,0.2,0.8
		c1-0.7,1.8-1.4,2.8-1.9c1.6-0.9,2.2-2.1,2.1-4c-0.2-4.3-0.1-8.6-0.2-12.8c-0.1-1.5,0.5-2.4,1.7-3.2c2.6-1.7,5.1-3.6,7.6-5.4
		c0.6-0.4,1.2-0.8,1.2-1.7C292.1,241.6,292.1,239.8,292.1,237.5z M173.7,271.8c0,6.9,0,13.8,0,20.7c0,1.3,0.3,1.8,1.7,1.9
		c4.2,0.5,8.3,1.2,12.5,1.9c3.5,0.6,3.5,0.6,3.5-2.9c0-0.9-0.1-1.8,0-2.7c0.1-1.3-0.4-1.6-1.6-1.8c-3-0.4-6-0.9-9-1.3
		c-1.5-0.2-2-0.7-2-2.3c0.1-10.6,0-21.2,0-31.9c0-3.2,0-3.2-3.2-3.8c-1.4-0.3-1.9,0-1.9,1.6C173.8,258.2,173.7,265,173.7,271.8z
		 M310.4,232.9c-3,0.4-4.2,1.9-4.3,4.7c-0.1,2-0.8,4.1-1.6,6c-0.7,1.6-1.5,3.1-2.9,4.2c-1.3,1.1-2.5,0.8-3.2-0.7
		c-0.3-0.6-0.4-1.3-0.6-2c-0.7-4-0.6-8.1-0.3-12.2c0.3-3.9,1.2-7.8,3.5-11.1c0.8-1.1,1.5-2.5,3.1-2.5c1.7,0,1.5,1.8,2.3,3
		c1.1-1.7,2.3-3.4,3.3-5.1c0.7-1.2-0.3-4.6-1.6-5.6c-1.5-1.1-2.9-0.5-4.2,0.5c-1.7,1.3-3.1,2.9-4.2,4.8c-6.1,10.8-7.5,22.3-5.6,34.4
		c0.3,2.1,1,4.4,3.4,5c2.4,0.6,4-1.3,5.3-2.9C307.8,247.5,309.4,240.3,310.4,232.9z M226.6,213.8c0.2,1.3-0.2,2.5-0.6,3.6
		c-0.4,1.1-1.1,1.9-2.4,2c-1.2,0.1-1.8-0.6-2.4-1.6c-0.9-1.7-2.3-0.4-3.4-0.3c-0.9,0.1-0.3,1.2,0,1.8c0.9,2.4,2.6,3.5,5.3,3.6
		c3.1,0,5.4-1.3,6.5-4.2c1.8-4.7,1.9-9.5,0.1-14.1c-1.4-3.8-5.6-5.2-9.1-3.4c-3.5,1.8-4.8,6.9-2.8,10.7
		C219.7,215.2,222.9,216,226.6,213.8z M194,213.9c0.1,1.5-0.1,2.9-0.8,4.2c-1.1,1.9-3.1,1.8-4.2,0c-0.2-0.4-0.2-1.1-0.8-1
		c-1,0.2-2.5-0.2-3.1,0.7c-0.5,0.7,0.3,1.8,0.8,2.6c0.8,1.3,1.9,2.1,3.4,2.4c3.7,0.7,6.9-1,8.1-4.7c1.4-4.2,1.4-8.4,0.2-12.6
		c-1.2-4.1-5.2-6.1-8.9-4.6c-3.7,1.4-5.4,6.6-3.5,10.6C186.7,215.1,189.9,216,194,213.9z M201,211.7c0,2.3,0.1,4.5,0.8,6.7
		c1,2.8,3,4.4,5.8,4.5c2.8,0.1,4.9-1.3,5.9-4.3c1.5-4.6,1.5-9.2,0-13.8c-0.9-3-3-4.4-5.8-4.4c-2.8,0-4.9,1.6-5.9,4.6
		C201.1,207.2,200.9,209.4,201,211.7z M110.2,222.5c0,14,0,27.4,0,40.9c0,0.6,0.1,1.1,0.5,1.5c1.3,1.3,2.6,2.6,4,4
		c0.1-0.4,0.2-0.6,0.2-0.8c0-13.2,0-26.5,0-39.7c0-0.6-0.1-1.2-0.6-1.7C113.1,225.4,111.8,224.1,110.2,222.5z M174.6,206.9
		c0,4.8,0.1,9.4,0,13.9c-0.1,1.8,0.8,1.8,2.1,1.8c1.4,0,2.1-0.1,2.1-1.8c-0.1-6.1,0-12.1-0.1-18.2c0-0.7,0.7-2-0.7-2.1
		c-1.1-0.1-2.4-0.6-3.1,1.1c-0.6,1.4-1.7,2.6-3.1,3.2c-2.4,1-2.5,2.7-2,4.8C171.5,209.3,172.8,208.1,174.6,206.9z"/>
	<path class="st6" d="M142.2,288.6c2.3,0,4.2,1.3,6.3,1.9c9.3,3.1,18.7,5.4,28.4,6.7c6,0.8,12,1.2,18.1,1.5c5.1,0.3,10.2,0,15.2-0.3
		c11.3-0.6,22.3-2.6,33.2-5.6c3.8-1.1,7.5-2.8,11.4-3.4c-2.7,1.7-5.8,2.3-8.8,3.3c-6.3,1.9-12.7,3.5-19.2,4.5
		c-5.8,0.9-11.7,1.6-17.6,1.9c-3.5,0.2-7,0.4-10.5,0.3c-9.8-0.1-19.6-1-29.2-2.8c-8.9-1.6-17.5-4-26-7.1
		C143.1,289.2,142.5,289.1,142.2,288.6z"/>
	<path class="st6" d="M257.7,121.3c-2.2-0.1-4.1-1.2-6.1-1.9c-10.8-3.8-21.9-6.2-33.2-7.6c-9.4-1.2-18.8-1.3-28.2-0.8
		c-11.8,0.6-23.4,2.5-34.8,5.9c-0.6,0.2-1.4,0.2-2,0.2c3.7-1.8,7.8-2.4,11.8-3.3c10-2.1,20.1-3.2,30.4-3.4c9.5-0.2,19,0.4,28.4,1.7
		c11.1,1.6,21.9,4.4,32.4,8.4C256.9,120.6,257.4,120.8,257.7,121.3z"/>
	<path class="st6" d="M319.4,231c1-3.8,2.1-7.6,3-11.5c2.5-11.5,2-23-1.2-34.3c-0.3-1-0.6-2-0.5-3c1.8,3.5,2.2,7.3,2.9,11
		c1,5.3,1,10.7,0.8,16c-0.3,7.2-1.9,14.2-4.3,21C319.9,230.5,319.6,230.7,319.4,231z"/>
	<path class="st6" d="M78.4,182.2c-0.8,3.6-1.7,7.2-2.3,10.8c-1.4,7.8-1.3,15.7,0,23.5c0.7,4.3,1.9,8.6,3.2,12.7
		c0.2,0.6,0.2,1.2,0.3,1.8c-1.7-2.4-2-5.2-2.7-7.9c-2.1-7.6-2.7-15.4-2.2-23.2c0.3-5.7,1.2-11.3,3.1-16.7
		C78,182.8,78,182.4,78.4,182.2z"/>
	<path class="st6" d="M153.4,117.1c-3.9,1.8-7.9,3.1-12,4.1C145.2,119.3,149.2,117.9,153.4,117.1z"/>
	<path class="st6" d="M273.1,128.8c-3.5-1.8-7.2-3.1-10.4-5.4C266.4,124.6,270.1,126,273.1,128.8z"/>
	<path class="st6" d="M135.6,123.8c-2.6,2.1-5.8,3.1-8.7,4.6c0-0.2,0-0.5,0.1-0.6C129.8,126.3,132.4,124.4,135.6,123.8z"/>
	<path class="st6" d="M80.5,233.1c1.2,0.7,1.2,2.1,1.7,3.2c1.1,2.1,2.2,4.2,3.2,6.4c-0.2,0-0.5,0-0.6-0.1
		C83.3,239.4,81.3,236.5,80.5,233.1z"/>
	<path class="st6" d="M318.2,175.5c-1.7-2.4-2.7-5.3-4.2-7.9c0.7,0,1,0.5,1.2,1C316.1,171,317.9,173,318.2,175.5z"/>
	<path class="st6" d="M85.1,167.7c-1.4,2.6-2.4,5.4-4.2,7.9C81.8,172.6,82.8,169.8,85.1,167.7z"/>
	<path class="st6" d="M314.5,241.8c0.9-3.1,2.4-5.9,4.1-8.7C317.9,236.3,316.1,239,314.5,241.8z"/>
	<path class="st6" d="M254.8,289.4c1.9-1.3,3.9-2.2,6.2-2.5C259.2,288.3,257.1,289,254.8,289.4z"/>
	<path class="st6" d="M261.1,286.9c1.8-1.5,4-2.3,6.2-2.9C265.3,285.3,263.4,286.5,261.1,286.9z"/>
	<path class="st6" d="M131.9,284c1.9,0.5,3.9,1.1,5.4,2.5C135.2,286.3,133.5,285.1,131.9,284z"/>
	<path class="st6" d="M137.2,286.5c1.8,0.4,3.6,0.8,5,2.1C140.3,288.4,138.7,287.7,137.2,286.5z"/>
	<path class="st6" d="M124.4,279.8c1.4,0.4,2.6,1.2,3.8,2.1C126.6,281.8,125.2,281.4,124.4,279.8z"/>
	<path class="st6" d="M271,281.9c1.2-0.8,2.3-1.7,3.8-2.1C273.9,281.4,272.6,281.8,271,281.9z"/>
	<path class="st6" d="M80.9,175.5c0,1.6-0.6,3-1.7,4.1C79.4,178.1,79.8,176.7,80.9,175.5z"/>
	<path class="st6" d="M319.9,179.7c-1.1-1.2-1.6-2.6-1.7-4.1C319.3,176.7,319.7,178.1,319.9,179.7z"/>
	<path class="st6" d="M139.3,122.1c-0.9,1.2-2.3,1.4-3.7,1.7C136.7,122.9,137.9,122.2,139.3,122.1z"/>
	<path class="st6" d="M129,282.3c1.1,0.4,2.2,0.7,2.9,1.7C130.6,283.9,129.5,283.7,129,282.3z"/>
	<path class="st6" d="M267.3,284c0.7-1,1.8-1.3,2.9-1.7C269.7,283.7,268.5,283.9,267.3,284z"/>
	<path class="st6" d="M126.1,128.8c-0.9,0.7-1.8,1.4-2.9,1.6C123.7,129.1,124.8,128.7,126.1,128.8z"/>
	<path class="st6" d="M303.7,153.2c-0.8-0.5-1.5-1.1-1.7-2.1C303.3,151.2,303.8,152,303.7,153.2z"/>
	<path class="st6" d="M97.1,151.1c-0.2,1-1,1.5-1.7,2.1C95.4,152,95.8,151.2,97.1,151.1z"/>
	<path class="st6" d="M108.3,140.7c-0.6,0.7-1.1,1.5-2.1,1.7C106.3,141.2,107.1,140.7,108.3,140.7z"/>
	<path class="st6" d="M262.7,123.4c-1.2,0-2.2-0.2-2.9-1.2C261,122.1,261.9,122.6,262.7,123.4z"/>
	<path class="st6" d="M313.6,166.9c-0.7-0.5-1.1-1.3-1.2-2.1C313.4,165.1,313.9,165.8,313.6,166.9z"/>
	<path class="st6" d="M276,130.4c-0.8-0.2-1.6-0.5-2.1-1.2C274.9,129,275.7,129.3,276,130.4z"/>
	<path class="st6" d="M123.2,130.4c-0.5,0.8-1.3,1-2.1,1.3C121.3,130.4,122.2,130.4,123.2,130.4z"/>
	<path class="st6" d="M295.8,144.9c-0.8-0.2-1.3-0.7-1.7-1.3C295.1,143.6,295.9,143.8,295.8,144.9z"/>
	<path class="st6" d="M320.7,182.2c-0.8-0.7-0.9-1.6-0.8-2.5C320.7,180.3,320.8,181.2,320.7,182.2z"/>
	<path class="st6" d="M95,255.9c0.7,0.4,1.2,0.9,1.3,1.7C95.2,257.5,94.9,256.8,95,255.9z"/>
	<path class="st6" d="M302.8,257.5c0.2-0.8,0.7-1.3,1.3-1.7C304.2,256.8,304,257.5,302.8,257.5z"/>
	<path class="st6" d="M104.1,265.3c0.8,0.2,1.3,0.7,1.7,1.3C104.8,266.7,104.1,266.5,104.1,265.3z"/>
	<path class="st6" d="M293.4,266.6c0.4-0.7,0.9-1.2,1.7-1.3C295,266.5,294.3,266.7,293.4,266.6z"/>
	<path class="st6" d="M107,267.8c0.8,0.1,1.3,0.7,1.7,1.3C107.8,269.2,107,269,107,267.8z"/>
	<path class="st6" d="M109.1,269.5c0.8,0.1,1.3,0.7,1.7,1.3C109.8,270.8,109.1,270.6,109.1,269.5z"/>
	<path class="st6" d="M288.4,270.8c0.4-0.6,0.9-1.2,1.7-1.3C290,270.6,289.3,270.8,288.4,270.8z"/>
	<path class="st6" d="M290.5,140.4c-0.8-0.1-1.3-0.7-1.7-1.3C289.7,139,290.5,139.2,290.5,140.4z"/>
	<path class="st6" d="M292.5,142c-0.8-0.2-1.3-0.7-1.7-1.3C291.8,140.7,292.5,140.9,292.5,142z"/>
	<path class="st6" d="M105,143.6c-0.4,0.6-0.9,1.2-1.7,1.3C103.3,143.8,104,143.6,105,143.6z"/>
	<path class="st6" d="M79.7,231c0.9,0.4,0.8,1.3,0.8,2.1C79.8,232.6,79.6,231.8,79.7,231z"/>
	<path class="st6" d="M318.6,233.1c0-0.8-0.1-1.6,0.8-2.1C319.5,231.8,319.3,232.6,318.6,233.1z"/>
	<path class="st6" d="M259.8,122.1c-0.8,0-1.6,0.1-2.1-0.8C258.6,121.2,259.3,121.4,259.8,122.1z"/>
	<path class="st6" d="M141.4,121.3c-0.4,0.9-1.3,0.8-2.1,0.8C139.8,121.4,140.6,121.2,141.4,121.3z"/>
	<path class="st6" d="M120.3,277.4c0.6,0,1,0.3,1.3,0.8C120.7,278.6,120.4,278.1,120.3,277.4z"/>
	<path class="st6" d="M87.5,163.5c0,0.6-0.3,1-0.8,1.3C86.3,163.9,86.8,163.6,87.5,163.5z"/>
	<path class="st6" d="M86.3,165.6c-0.1,0.6-0.3,1-0.8,1.3C85,166,85.6,165.7,86.3,165.6z"/>
	<path class="st6" d="M275.5,279.4c0.3-0.5,0.7-0.8,1.3-0.8C276.7,279.4,276.4,279.9,275.5,279.4z"/>
	<path class="st6" d="M85.9,243.4c0.5,0.3,0.8,0.7,0.8,1.3C86,244.6,85.5,244.3,85.9,243.4z"/>
	<path class="st6" d="M312.4,244.7c0.1-0.6,0.3-1,0.8-1.3C313.7,244.3,313.1,244.6,312.4,244.7z"/>
	<path class="st6" d="M277.6,278.2c0.3-0.5,0.7-0.8,1.3-0.8C278.7,278.1,278.5,278.6,277.6,278.2z"/>
	<path class="st6" d="M278,131.7c-0.6-0.1-1-0.3-1.3-0.8C277.7,130.4,277.9,130.9,278,131.7z"/>
	<path class="st6" d="M305.8,155.7c-0.5-0.3-0.8-0.7-0.9-1.3C305.8,154.4,305.8,155,305.8,155.7z"/>
	<path class="st6" d="M94.2,154.4c-0.1,0.6-0.4,1-0.9,1.3C93.3,155,93.3,154.4,94.2,154.4z"/>
	<path class="st6" d="M90.1,159.8c-0.1,0.6-0.3,1-0.9,1.2C89.2,160.4,89.2,159.8,90.1,159.8z"/>
	<path class="st6" d="M109.9,139.5c-0.3,0.5-0.7,0.8-1.3,0.9C108.6,139.5,109.3,139.5,109.9,139.5z"/>
	<path class="st6" d="M288.4,138.7c-0.6-0.1-1-0.4-1.3-0.9C287.8,137.8,288.4,137.8,288.4,138.7z"/>
	<path class="st6" d="M112,137.8c-0.3,0.5-0.7,0.8-1.3,0.9C110.7,137.8,111.4,137.8,112,137.8z"/>
	<path class="st6" d="M286.7,137.5c-0.6-0.1-1-0.3-1.2-0.9C286.1,136.6,286.7,136.6,286.7,137.5z"/>
	<path class="st6" d="M88,246.7c0.5,0.2,0.8,0.7,0.9,1.2C87.9,248,87.9,247.4,88,246.7z"/>
	<path class="st6" d="M310.3,248c0.1-0.5,0.3-1,0.9-1.2C311.2,247.4,311.2,248,310.3,248z"/>
	<path class="st6" d="M113.6,136.6c-0.2,0.5-0.7,0.8-1.2,0.9C112.4,136.6,113,136.6,113.6,136.6z"/>
	<path class="st6" d="M114.9,135.8c-0.3,0.5-0.7,0.8-1.3,0.8C113.7,135.7,114.3,135.8,114.9,135.8z"/>
	<path class="st6" d="M90,249.6c0.5,0.2,0.8,0.7,0.9,1.2C90,250.9,90,250.3,90,249.6z"/>
	<path class="st6" d="M283.8,135.4c-0.6-0.1-1-0.3-1.2-0.9C283.2,134.5,283.8,134.5,283.8,135.4z"/>
	<path class="st6" d="M308.2,250.9c0.1-0.6,0.4-1,0.9-1.2C309.1,250.3,309.1,250.9,308.2,250.9z"/>
	<path class="st6" d="M91.3,251.3c0.5,0.3,0.8,0.7,0.9,1.3C91.2,252.6,91.2,251.9,91.3,251.3z"/>
	<path class="st6" d="M307,252.5c0.1-0.6,0.4-1,0.9-1.3C307.9,251.9,307.9,252.6,307,252.5z"/>
	<path class="st6" d="M116.5,134.5c-0.2,0.5-0.7,0.8-1.2,0.9C115.3,134.5,115.9,134.5,116.5,134.5z"/>
	<path class="st6" d="M282.6,134.5c-0.6,0-1-0.3-1.2-0.8C282,133.7,282.6,133.7,282.6,134.5z"/>
	<path class="st6" d="M305.3,254.6c0.1-0.6,0.4-1,0.9-1.3C306.2,254,306.2,254.6,305.3,254.6z"/>
	<path class="st6" d="M117.8,133.7c-0.2,0.5-0.7,0.8-1.2,0.8C116.5,133.7,117.2,133.7,117.8,133.7z"/>
	<path class="st6" d="M281.3,133.7c-0.6,0-1-0.3-1.2-0.8C280.7,132.9,281.3,132.8,281.3,133.7z"/>
	<path class="st6" d="M119,132.9c-0.2,0.5-0.7,0.8-1.2,0.8C117.8,132.8,118.4,132.9,119,132.9z"/>
	<path class="st6" d="M312.4,164.8c-0.5-0.2-0.8-0.7-0.8-1.3C312.5,163.5,312.4,164.2,312.4,164.8z"/>
	<path class="st6" d="M290.4,269.1c0.3-0.5,0.7-0.8,1.3-0.9C291.7,269.1,291.1,269.1,290.4,269.1z"/>
	<path class="st6" d="M88.4,162.3c0,0.6-0.3,1-0.8,1.2C87.5,162.9,87.5,162.3,88.4,162.3z"/>
	<path class="st6" d="M310.8,162.3c-0.5-0.2-0.8-0.7-0.8-1.2C310.8,161.1,310.8,161.7,310.8,162.3z"/>
	<path class="st6" d="M111.2,271.1c0.6,0.1,1,0.4,1.3,0.9C111.8,272,111.1,272,111.2,271.1z"/>
	<path class="st6" d="M286.7,272c0.3-0.5,0.7-0.8,1.3-0.9C288,272,287.3,272,286.7,272z"/>
	<path class="st6" d="M112.8,272.4c0.5,0.1,1,0.3,1.2,0.9C113.4,273.3,112.8,273.3,112.8,272.4z"/>
	<path class="st6" d="M285.1,273.3c0.2-0.5,0.7-0.8,1.2-0.9C286.3,273.3,285.7,273.3,285.1,273.3z"/>
	<path class="st6" d="M114.1,273.2c0.6,0,1,0.3,1.3,0.8C114.7,274.1,114.1,274.1,114.1,273.2z"/>
	<path class="st6" d="M92.9,253.4c0.5,0.3,0.8,0.7,0.9,1.3C92.9,254.6,92.9,254,92.9,253.4z"/>
	<path class="st6" d="M283.8,274.1c0.3-0.5,0.7-0.8,1.3-0.8C285.1,274.1,284.4,274.1,283.8,274.1z"/>
	<path class="st6" d="M117.8,275.7c0.6,0.1,1,0.3,1.2,0.9C118.4,276.6,117.8,276.6,117.8,275.7z"/>
	<path class="st6" d="M119,276.6c0.6,0,1,0.3,1.2,0.8C119.6,277.4,119,277.4,119,276.6z"/>
	<path class="st6" d="M311.6,163.5c-0.5-0.2-0.8-0.7-0.8-1.2C311.6,162.3,311.6,162.9,311.6,163.5z"/>
	<path class="st6" d="M91.3,158.1c-0.1,0.6-0.4,1-0.9,1.3C90.4,158.8,90.4,158.1,91.3,158.1z"/>
	<path class="st6" d="M307.5,157.7c-0.5-0.3-0.8-0.7-0.9-1.3C307.5,156.5,307.5,157.1,307.5,157.7z"/>
	<path class="st6" d="M92.6,156.5c-0.1,0.6-0.4,1-0.9,1.3C91.7,157.1,91.7,156.5,92.6,156.5z"/>
	<path class="st6" d="M89.2,161c0,0.6-0.3,1-0.8,1.2C88.3,161.7,88.3,161.1,89.2,161z"/>
	<path class="st6" d="M309.9,161c-0.5-0.2-0.8-0.7-0.9-1.2C309.9,159.8,310,160.4,309.9,161z"/>
	<path class="st6" d="M308.7,159.4c-0.5-0.3-0.8-0.7-0.9-1.3C308.7,158.1,308.7,158.8,308.7,159.4z"/>
	<path class="st6" d="M313.6,242.6c0.1-0.5,0.3-0.8,0.8-0.8C314.5,242.3,314.2,242.6,313.6,242.6z"/>
	<path class="st6" d="M282.6,275.3c0-0.6,0.4-0.8,0.8-0.9C283.4,275,283.2,275.3,282.6,275.3z"/>
	<path class="st6" d="M115.7,274.4c0.5,0.1,0.8,0.3,0.8,0.9C115.9,275.3,115.7,275,115.7,274.4z"/>
	<path class="st6" d="M280.1,132.9c-0.5,0-0.8-0.3-0.8-0.8C279.8,132,280.1,132.3,280.1,132.9z"/>
	<path class="st6" d="M311.2,246.7c0-0.5,0.3-0.8,0.8-0.8C312,246.5,311.7,246.8,311.2,246.7z"/>
	<path class="st6" d="M87.1,245.9c0.5,0,0.8,0.3,0.8,0.8C87.4,246.8,87.1,246.5,87.1,245.9z"/>
	<path class="st6" d="M122.3,278.6c0.5,0.1,0.8,0.3,0.8,0.8C122.6,279.5,122.3,279.2,122.3,278.6z"/>
	<path class="st6" d="M119.9,132.1c0,0.5-0.3,0.8-0.8,0.8C119,132.3,119.3,132,119.9,132.1z"/>
	<path class="st6" d="M78.9,180.9c0,0.5,0.1,0.9-0.4,1.2C78.4,181.7,78.3,181.2,78.9,180.9z"/>
	<path class="st6" d="M79.3,179.7c0,0.5,0.1,0.9-0.4,1.2C78.8,180.5,78.7,180,79.3,179.7z"/>
	<path class="st6" d="M89.6,249.2c0.1,0.2,0.3,0.3,0.4,0.5c-0.2,0-0.4-0.1-0.6-0.1C89.5,249.4,89.6,249.3,89.6,249.2z"/>
	<path class="st6" d="M309.1,249.7c0.1-0.2,0.3-0.3,0.4-0.5c0.1,0.1,0.1,0.2,0.2,0.3C309.5,249.6,309.3,249.6,309.1,249.7z"/>
	<path class="st6" d="M101.2,262.9c0.4,0,0.7,0.1,0.8,0.4C101.7,263.3,101.4,263.3,101.2,262.9z"/>
	<path class="st6" d="M285.5,136.6c-0.2-0.1-0.3-0.3-0.5-0.4c0.1-0.1,0.2-0.1,0.3-0.2C285.4,136.2,285.4,136.4,285.5,136.6z"/>
	<path class="st6" d="M280.9,276.1c0.2-0.1,0.3-0.3,0.5-0.4C281.3,275.9,281.6,276.6,280.9,276.1z"/>
	<path class="st6" d="M99.1,260.4c0.3,0.2,0.4,0.5,0.4,0.8C99.2,261.1,99.1,260.8,99.1,260.4z"/>
	<path class="st6" d="M279.7,276.9c0.2-0.1,0.3-0.3,0.5-0.4C280,276.7,280.3,277.4,279.7,276.9z"/>
	<path class="st6" d="M120.3,132.1c-0.1,0-0.3,0-0.4,0C120,131.7,120.1,131.8,120.3,132.1z"/>
	<path class="st6" d="M123.2,279.4c0.1,0,0.3,0,0.4,0C123.5,279.7,123.3,279.8,123.2,279.4z"/>
	<path class="st6" d="M282.2,275.3c0.1,0,0.3,0,0.4,0C282.4,275.7,282.3,275.6,282.2,275.3z"/>
	<path class="st6" d="M279.3,132.1c-0.1,0-0.3,0-0.4,0C279,131.8,279.1,131.7,279.3,132.1z"/>
	<path class="st6" d="M87.1,245.5c0,0.1,0,0.3,0,0.4C86.8,245.8,86.9,245.6,87.1,245.5z"/>
	<path class="st6" d="M312,245.9c0-0.1,0-0.3,0-0.4C312.2,245.6,312.3,245.8,312,245.9z"/>
	<path class="st6" d="M99.6,261.2c0.1,0.1,0.3,0.3,0.4,0.4C99.8,261.5,99.7,261.4,99.6,261.2z"/>
	<path class="st6" d="M100,261.6c0.1,0.1,0.3,0.3,0.4,0.4C100.3,261.9,100.1,261.8,100,261.6z"/>
	<path class="st6" d="M100.4,262.1c0.1,0.1,0.3,0.3,0.4,0.4C100.7,262.3,100.5,262.2,100.4,262.1z"/>
	<path class="st6" d="M100.8,262.5c0.1,0.1,0.3,0.3,0.4,0.4C101.1,262.8,100.9,262.6,100.8,262.5z"/>
	<path class="st6" d="M116.5,275.3c0.1,0,0.3,0,0.4,0C116.8,275.6,116.7,275.7,116.5,275.3z"/>
	<path class="st7" d="M243.3,193.3c-4.9-4.1-9.5-8.4-14.6-12.2c-13.4-10.2-27.9-18.5-44.4-22.6c-19.7-4.9-39-4.5-57.7,4.2
		c-17.2,8-28.7,21.5-36.2,38.6c-3.3,7.5-5.6,15.2-7.4,23.2c-0.1,0.5-0.3,0.9-0.5,1.6c-0.8-1-0.9-2.1-1.2-3.1
		c-0.3-1.1-0.6-2.3-0.9-3.4c-0.3-1.1-0.5-2.1-0.7-3.2c-3.8-21.4,2-40.3,14.9-57.2c11.4-14.9,26.3-25.4,43.4-32.8
		c23-10.1,47.3-13.8,72.3-12c26.2,1.9,50.5,9.6,72.1,25c1,0.7,2.1,1.2,2.8,2.4c-0.6,0.3-1.2,0-1.7-0.2c-14.3-3.6-29.6,1.8-37.9,13.9
		C237.2,167.5,236.7,180.2,243.3,193.3z"/>
	<path class="st8" d="M243.3,193.3c-6.6-13.1-6.1-25.8,2.2-37.9c8.3-12.1,23.6-17.6,37.9-13.9c0.6,0.1,1.1,0.5,1.7,0.2
		c0,0,0-0.1,0-0.1c-0.2,0.4,0.2,0.4,0.4,0.5c4.4,1.7,8.6,3.7,12.3,6.9c6.3,5.5,10.3,12.3,11.8,20.5c3.7,20.2-9.5,38.8-30,41.7
		c-14.6,2.1-26.2-3.6-34.8-15.5C244.2,194.9,244.3,193.7,243.3,193.3z M303.4,177.5c0.1,0,0.3,0,0.4,0c0-2.6-0.1-5.1,0-7.7
		c0-1.1-0.3-1.8-1.2-2.4c-2.1-1.5-4.1-3-6.1-4.6c-0.8-0.7-1.3-0.6-2.1,0c-2.9,2.2-5.8,4.4-8.8,6.6c-0.7,0.5-1,1.1-1,2.1
		c0,3.7-0.1,7.3-0.2,11c0,1.1,0.2,1.8,1.1,2.5c2.6,2,5.3,4,7.8,6.1c0.8,0.7,1.4,0.6,2.3,0.1c2.1-1.3,4.3-2.5,6.5-3.6
		c0.9-0.5,1.3-1,1.3-2.1C303.4,182.7,303.4,180.1,303.4,177.5z M258.2,151c-0.5-0.1-1.2,0-1.9,0.9c-3.3,4.5-6.7,9-10,13.4
		c-0.4,0.6-0.6,1.1-0.3,1.9c1.1,2.2,2,4.5,2.9,6.8c0.3,0.7,0.7,1.1,1.5,1.1c3.4,0.1,6.9,0.3,10.3,0.5c0.9,0.1,1.5-0.2,2.1-1
		c2.3-3.2,4.7-6.3,7.1-9.4c0.4-0.6,0.7-1.1,0.5-1.9c-0.9-3.4-1.8-6.8-2.7-10.2c-0.2-0.8-0.4-1.2-1.3-1.2
		C263.9,151.7,261.3,151.3,258.2,151z M295.2,159.8c-0.3-1.7-0.8-3.9-1.1-6.2c-0.2-1.2-0.8-1.8-1.9-2.1c-2.9-0.9-5.8-2-8.8-3
		c-2.5-0.8-5.1-2.9-7.6-2.2c-2.4,0.7-4.4,3-6.6,4.5c-1,0.6-1,1.3-0.7,2.3c0.9,3.5,1.9,6.9,2.7,10.4c0.2,1,0.7,1.5,1.6,1.8
		c3.5,1.1,6.9,2.3,10.3,3.6c0.9,0.3,1.5,0.1,2.2-0.4c3-2.3,6-4.5,8.9-6.7C294.9,161.4,295.6,161.1,295.2,159.8z M275.2,206.1
		c-0.1,0,0.3-0.1,0.7-0.2c3.3-0.8,6.5-1.8,9.8-2.3c3.8-0.5,6-2.3,6.5-6.2c0.2-1.3,0.7-2.7,1.3-3.9c0.4-0.9,0.2-1.5-0.6-2.1
		c-2.7-2-5.4-4.1-8-6.2c-0.8-0.7-1.5-0.7-2.4-0.4c-3.5,1.1-7.1,2.2-10.7,3.2c-1,0.3-1.5,0.7-1.8,1.7c-0.9,2.9-1.9,5.8-2.9,8.6
		c-0.3,0.9-0.2,1.5,0.5,2.1c1.9,1.6,3.7,3.3,5.6,4.9C273.6,205.8,274,206.3,275.2,206.1z M260.3,199.6c1.5,0,2.6-0.1,3.7,0
		c1.4,0.1,2.1-0.3,2.5-1.7c0.8-2.8,1.8-5.5,2.8-8.2c0.3-1,0.4-1.7-0.3-2.6c-2.3-3.2-4.5-6.4-6.7-9.6c-0.5-0.6-0.9-1.1-1.8-1.1
		c-3.1-0.1-6.2-0.2-9.3-0.4c-1.1-0.1-1.7,0.2-2.1,1.4c-0.7,2.4-1.6,4.8-2.5,7.2c-0.4,1-0.3,1.7,0.4,2.6c2.2,2.9,4.4,5.8,6.4,8.9
		C255,198.9,257.1,200.8,260.3,199.6z M255.4,147.8c-5.9,4.1-10.1,9.4-12.7,16.1c-0.4,1.1-0.1,1.3,0.8,1.5c1.1,0.3,1.7,0,2.4-0.9
		c3.1-4.3,6.2-8.6,9.6-12.7C256.7,150.3,256.7,149.2,255.4,147.8z M296,149.6c-5.6-4.5-11.8-6.8-18.7-7.6c-1.4-0.1-1.4,0.4-1.2,1.5
		c0.2,1.2,0.7,1.8,2,2.2c4.7,1.6,9.3,3.2,14,4.9C293.6,151.3,294.9,151.2,296,149.6z M242.2,186.5c2.1,6.3,5.6,11.5,10.8,15.8
		c0.3,0.2,0.7,1,1.1,0.3c0.7-1.1,1.8-1.9,0.5-3.6c-2.8-3.6-5.5-7.3-8-11.1C245.4,186.1,244.2,185.5,242.2,186.5z M304.6,177.8
		c-0.1,0-0.3,0-0.4,0c0,2.6,0.1,5.2,0,7.9c-0.1,1.4,0.5,2,1.6,2.2c1.1,0.2,1-1,1.2-1.6c1.7-5.6,2.2-11.2,0.9-16.9
		c-0.1-0.6,0.1-1.8-1-1.6c-1,0.2-2.4,0.2-2.3,2C304.7,172.5,304.6,175.2,304.6,177.8z M274,210c6.6,0.2,12.6-1.5,18.2-4.9
		c0.3-0.2,0.8-0.3,0.5-0.7c-0.3-0.4-0.7-0.9-1.2-1.1c-0.6-0.3-1.3,0-2,0.2c-4.2,1-8.4,2.2-12.6,3C274.9,206.9,274,207.8,274,210z"/>
	<path class="st9" d="M231.4,272.7c3.6,3.2,4.6,7.6,6.3,11.5c0.6,1.3,0.9,2.8,1.6,4c1,1.8,0.3,2.3-1.4,2.7c-3.9,0.9-3.8,1-5.4-2.6
		c-1.5-3.5-3.1-7.1-4.7-10.6c-0.5-1.1-1.1-2-2.5-2.1c-2.2-0.1-2.8,0.4-2.8,2.6c0,4.9,0,9.8,0.1,14.7c0,1.5-0.3,2.3-1.9,2.5
		c-1,0.1-2,0.5-3.1,0.8c0-0.6-0.1-1-0.1-1.4c-0.2-13.9-0.3-27.7-0.5-41.6c0-1.5,0.4-2,1.8-2.3c3.4-0.8,6.8-1.8,10.2-2.6
		c4.3-1,6.4,0.2,7.6,4.4c1.5,5,1.2,10.1-0.8,15C235,269.8,233.5,271.4,231.4,272.7z M222.3,263c0,0.5,0,1,0,1.4
		c0.1,4.7,0.1,4.7,4.5,3.4c4.6-1.3,5.9-3.2,5.6-7.9c-0.2-3.6-1.4-4.5-4.9-3.7C222.2,257.5,222.2,257.5,222.3,263z"/>
	<path class="st9" d="M240.3,266.9c-0.1-5,0.9-11.4,3.8-17.5c1.7-3.5,4-6.4,7.6-8.1c4.2-2,7.5-1,9.8,3c1.8,3.1,2.4,6.4,2.7,9.9
		c0.7,7.8,0.3,15.4-2.7,22.8c-1.7,4.2-4,7.9-8.2,10c-4.6,2.3-8.2,1.2-10.5-3.4C240.4,278.9,240.3,273.8,240.3,266.9z M259.2,261.1
		c-0.1-2.8,0-6.3-1.4-9.5c-1.5-3.5-4.2-4.2-7.2-1.8c-1.5,1.3-2.5,2.9-3.2,4.7c-2,5.1-2.2,10.3-1.8,15.7c0.2,2.5,0.5,5.1,1.8,7.4
		c1.6,2.7,3.9,3.2,6.4,1.3c1.5-1.1,2.4-2.6,3.2-4.2C258.8,270.5,259.1,266.2,259.2,261.1z"/>
	<path class="st9" d="M116.5,249.3c0-2.9,0.1-6.7,1.2-10.3c0.3-1.1,0.8-2.2,1.3-3.2c2.1-3.8,4.8-4.7,8.8-2.8
		c3.2,1.5,5.3,4.1,6.9,7.1c4.3,8.2,4.9,17,4.3,26c-0.2,2.9-0.7,5.8-1.9,8.4c-2.2,4.6-5.6,5.6-10,3.2c-3.3-1.9-5.4-4.8-7-8.2
		C117.6,264.1,116.5,257.9,116.5,249.3z M121.4,252.9c0,1.8,0,4.2,0.5,6.6c0.7,3.6,1.6,7.1,4.3,9.8c2.6,2.6,5.4,2,6.8-1.4
		c0.4-0.9,0.7-1.8,0.8-2.8c0.8-5.3,0.7-10.6-0.4-15.8c-0.6-2.6-1.5-5.2-3.4-7.2c-3.1-3.3-6.3-2.6-7.7,1.7
		C121.4,246.6,121.4,249.4,121.4,252.9z"/>
	<path class="st9" d="M192.3,297.2c2.6-12,5.1-23.9,7.7-35.8c0.6-2.7,1.2-5.4,1.7-8.1c0.2-1.1,0.7-1.4,1.8-1.5
		c3.8-0.2,3.8-0.2,4.7,3.6c2.9,13,5.8,26.1,8.8,39.1c0.3,1.5,0.3,2-1.5,2c-3.7,0-3.7,0.1-4.4-3.5c-0.4-1.8-0.8-3.5-1.1-5.3
		c-0.2-1-0.6-1.4-1.6-1.3c-2.4,0.2-4.8,0.3-7.2,0.3c-1.1,0-1.6,0.5-1.7,1.5c-0.4,2.4-0.9,4.7-1.3,7.1c-0.2,1.2-0.7,2-2.1,1.8
		C194.8,297.1,193.6,297.2,192.3,297.2z M204.7,263.1c-0.1,0-0.2,0-0.3,0c-0.9,4.6-1.7,9.2-2.8,13.7c-0.5,2.1,0,2.4,1.9,2.3
		c4.4-0.2,4.4-0.1,3.6-4.4C206.4,270.8,205.6,267,204.7,263.1z"/>
	<path class="st9" d="M167.7,276.7c0.7,0.9,1.2,1.5,1.6,2.2c0.9,1.3,3.1,1.7,2.8,3.8c-0.6,3.3-1.3,6.6-4.2,8.7
		c-1.6,1.2-3.5,1-5.3,0.4c-3.1-1.1-5.2-3.3-6.9-6c-3.7-6.1-4.9-12.8-5.1-19.8c-0.1-4.5,0.1-9,1.5-13.3c2.5-7.7,8.7-9.1,14.3-3.1
		c3.4,3.6,4.8,8.1,5.6,12.9c0.2,1-0.2,1.2-1.1,1.2c-0.4,0-0.8-0.1-1.2,0c-1.8,0.2-2.7-0.3-2.9-2.3c-0.3-2.4-1.4-4.6-3.3-6.3
		c-2.4-2.1-5-1.6-6.3,1.3c-0.6,1.4-0.9,2.9-1,4.4c-0.5,5.6-0.6,11.2,1,16.6c0.6,2.1,1.6,4.1,3.3,5.6c2.4,2.1,4.7,1.6,5.9-1.4
		C166.8,280.2,167.1,278.8,167.7,276.7z"/>
	<path class="st10" d="M102.7,241.3c3.1,7.5,4.5,15.2,6.3,22.8c-1.8-2.1-4.3-3.6-5-6.6c-1.4-5.5-2.9-11-4.4-16.5
		c-0.8-2.8-2-5.2-4.4-7.4c0,5,0,9.8,0,14.9c-2.8-2.5-4.4-4.8-4.3-8.6c0.3-10.7,0.1-21.4,0.1-32.1c0.2,0,0.5,0,0.6,0.1
		c3.7,4.3,7.7,8.3,11.1,12.8c4,5.3,5.7,11.4,5.1,18.1C107.3,242.3,106.2,242.7,102.7,241.3z M95,217.9c0,3.2,0,5.6,0,8.1
		c0,0.6-0.1,1.2,0.4,1.7c1.9,2.1,3.8,4.3,5.8,6.4c1,1.1,1.8,0.8,2-0.8c0.3-2.6-0.1-5.1-1.5-7.3C100,223.2,97.5,221,95,217.9z"/>
	<path class="st9" d="M292.1,237.5c0,2.3-0.1,4.1,0,6c0,1-0.6,1.3-1.2,1.7c-2.5,1.8-5,3.7-7.6,5.4c-1.2,0.8-1.7,1.7-1.7,3.2
		c0.2,4.3,0,8.6,0.2,12.8c0.1,1.9-0.5,3.1-2.1,4c-0.9,0.5-1.8,1.2-2.8,1.9c-0.1-0.4-0.2-0.6-0.2-0.8c-0.2-12.6-0.3-25.3-0.5-37.9
		c0-1.2,0.3-2,1.3-2.7c4.8-3.4,9.5-6.8,14.3-10.2c0.4-0.3,0.6-0.7,1.5-0.6c0,1.8,0,3.8,0,5.7c0,0.9-0.6,1.2-1.2,1.6
		c-3.2,2.3-6.4,4.6-9.6,6.9c-0.9,0.7-1.4,1.3-1.3,2.5c0.1,2.5,0,5,0,8C285.2,242.4,288.5,240.1,292.1,237.5z"/>
	<path class="st9" d="M173.7,271.8c0-6.8,0.1-13.7,0-20.5c0-1.6,0.5-1.8,1.9-1.6c3.2,0.6,3.2,0.5,3.2,3.8c0,10.6,0,21.2,0,31.9
		c0,1.6,0.5,2.1,2,2.3c3,0.4,6,0.9,9,1.3c1.2,0.1,1.8,0.5,1.6,1.8c-0.1,0.9,0,1.8,0,2.7c0,3.5,0,3.5-3.5,2.9
		c-4.1-0.7-8.3-1.4-12.5-1.9c-1.4-0.2-1.7-0.7-1.7-1.9C173.7,285.6,173.7,278.7,173.7,271.8z"/>
	<path class="st10" d="M310.4,232.9c-1,7.4-2.5,14.5-7.5,20.4c-1.4,1.6-2.9,3.5-5.3,2.9c-2.4-0.6-3-2.9-3.4-5
		c-1.8-12.1-0.5-23.6,5.6-34.4c1.1-1.9,2.5-3.5,4.2-4.8c1.3-1,2.6-1.6,4.2-0.5c1.3,1,2.3,4.4,1.6,5.6c-1,1.7-2.1,3.4-3.3,5.1
		c-0.7-1.1-0.6-2.9-2.3-3c-1.5,0-2.3,1.3-3.1,2.5c-2.2,3.4-3.1,7.2-3.5,11.1c-0.3,4.1-0.4,8.1,0.3,12.2c0.1,0.7,0.3,1.4,0.6,2
		c0.7,1.5,1.8,1.8,3.2,0.7c1.4-1.1,2.2-2.6,2.9-4.2c0.8-1.9,1.5-3.9,1.6-6C306.2,234.8,307.4,233.3,310.4,232.9z"/>
	<path class="st10" d="M226.6,213.8c-3.7,2.2-6.9,1.5-8.8-1.9c-2-3.8-0.7-8.9,2.8-10.7c3.5-1.8,7.6-0.3,9.1,3.4
		c1.8,4.7,1.8,9.5-0.1,14.1c-1.1,2.8-3.5,4.2-6.5,4.2c-2.7,0-4.4-1.2-5.3-3.6c-0.2-0.6-0.9-1.8,0-1.8c1.1-0.1,2.5-1.4,3.4,0.3
		c0.5,1,1.1,1.7,2.4,1.6c1.3-0.1,2-0.9,2.4-2C226.4,216.2,226.8,215,226.6,213.8z M226.4,208.1c0-1.1-0.2-2.1-0.8-2.9
		c-0.8-1.1-1.9-1.6-3-1c-2,1-1.7,3-1.6,4.7c0.1,1.5,0.7,2.8,2.5,3c1.4,0.2,2.2-0.6,2.7-1.8C226.3,209.5,226.3,208.8,226.4,208.1z"/>
	<path class="st10" d="M194,213.9c-4.1,2.1-7.3,1.2-8.9-2.4c-1.9-4-0.1-9.2,3.5-10.6c3.8-1.4,7.7,0.5,8.9,4.6
		c1.2,4.2,1.3,8.4-0.2,12.6c-1.3,3.6-4.4,5.4-8.1,4.7c-1.5-0.3-2.7-1.1-3.4-2.4c-0.5-0.8-1.3-1.9-0.8-2.6c0.6-0.9,2-0.4,3.1-0.7
		c0.7-0.2,0.6,0.6,0.8,1c1.1,1.8,3.1,1.9,4.2,0C193.9,216.8,194.1,215.4,194,213.9z M188.3,207.3c-0.1,1.4,0.1,2.3,0.5,3.1
		c0.4,0.9,1.1,1.5,2.2,1.6c1.1,0,1.9-0.5,2.3-1.4c0.8-1.9,0.8-3.7-0.4-5.5c-0.6-0.9-1.4-1.2-2.5-1.1c-1,0.2-1.6,0.8-1.8,1.7
		C188.4,206.4,188.3,207.1,188.3,207.3z"/>
	<path class="st10" d="M201,211.7c0-2.3,0.1-4.5,0.9-6.7c1-3,3.1-4.6,5.9-4.6c2.8,0,4.9,1.5,5.8,4.4c1.5,4.6,1.5,9.2,0,13.8
		c-1,2.9-3.1,4.3-5.9,4.3c-2.8-0.1-4.8-1.6-5.8-4.5C201,216.3,200.9,214,201,211.7z M210.3,211.7c-0.3-1.9,0.1-4-0.6-6
		c-0.4-1-0.9-1.7-2.1-1.7c-1.2,0-1.8,0.8-2,1.8c-0.8,3.9-0.8,7.8,0,11.7c0.2,1.1,0.9,1.9,2.1,1.9c1.1,0,1.6-0.8,2-1.8
		C210.4,215.7,210.1,213.8,210.3,211.7z"/>
	<path class="st7" d="M110.2,222.5c1.6,1.6,2.9,2.9,4.1,4.1c0.5,0.5,0.6,1,0.6,1.7c0,13.2,0,26.5,0,39.7c0,0.2-0.1,0.4-0.2,0.8
		c-1.4-1.4-2.7-2.7-4-4c-0.4-0.4-0.5-0.9-0.5-1.5C110.2,249.9,110.2,236.4,110.2,222.5z"/>
	<path class="st10" d="M174.6,206.9c-1.8,1.2-3.1,2.4-4.9,2.7c-0.5-2.1-0.4-3.8,2-4.8c1.4-0.6,2.6-1.8,3.1-3.2
		c0.7-1.7,2-1.2,3.1-1.1c1.4,0.1,0.7,1.4,0.7,2.1c0.1,6.1,0,12.1,0.1,18.2c0,1.7-0.7,1.8-2.1,1.8c-1.3,0-2.2,0-2.1-1.8
		C174.7,216.3,174.6,211.7,174.6,206.9z"/>
	<path class="st7" d="M285.5,142c-0.2-0.1-0.6,0-0.4-0.5C285.3,141.6,285.7,141.6,285.5,142z"/>
	<path class="st11" d="M303.4,177.5c0,2.6-0.1,5.2,0,7.9c0,1.1-0.4,1.6-1.3,2.1c-2.2,1.2-4.4,2.4-6.5,3.6c-0.9,0.5-1.5,0.6-2.3-0.1
		c-2.6-2.1-5.2-4.1-7.8-6.1c-0.9-0.7-1.1-1.4-1.1-2.5c0.1-3.7,0.2-7.3,0.2-11c0-0.9,0.3-1.5,1-2.1c2.9-2.2,5.9-4.3,8.8-6.6
		c0.8-0.6,1.3-0.6,2.1,0c2,1.6,4,3.1,6.1,4.6c0.9,0.6,1.2,1.3,1.2,2.4c-0.1,2.5,0,5.1,0,7.7C303.7,177.5,303.5,177.5,303.4,177.5z"
		/>
	<path class="st11" d="M258.2,151c3,0.3,5.6,0.7,8.2,0.9c0.9,0.1,1.1,0.5,1.3,1.2c0.9,3.4,1.8,6.8,2.7,10.2c0.2,0.8-0.1,1.3-0.5,1.9
		c-2.4,3.1-4.8,6.2-7.1,9.4c-0.6,0.8-1.2,1-2.1,1c-3.4-0.2-6.9-0.4-10.3-0.5c-0.8,0-1.2-0.4-1.5-1.1c-0.9-2.3-1.9-4.6-2.9-6.8
		c-0.4-0.8-0.2-1.3,0.3-1.9c3.4-4.5,6.7-8.9,10-13.4C257,151,257.7,150.9,258.2,151z"/>
	<path class="st11" d="M295.2,159.8c0.3,1.4-0.3,1.6-0.8,2c-3,2.2-6,4.4-8.9,6.7c-0.7,0.5-1.3,0.8-2.2,0.4
		c-3.4-1.3-6.9-2.5-10.3-3.6c-1-0.3-1.4-0.8-1.6-1.8c-0.8-3.5-1.8-6.9-2.7-10.4c-0.3-0.9-0.2-1.6,0.7-2.3c2.2-1.5,4.2-3.8,6.6-4.5
		c2.5-0.7,5,1.4,7.6,2.2c2.9,1,5.8,2.1,8.8,3c1.1,0.4,1.7,1,1.9,2.1C294.5,155.9,294.9,158.1,295.2,159.8z"/>
	<path class="st11" d="M275.2,206.1c-1.2,0.2-1.5-0.3-1.9-0.6c-1.9-1.6-3.7-3.3-5.6-4.9c-0.8-0.6-0.9-1.2-0.5-2.1
		c1-2.8,2-5.7,2.9-8.6c0.3-1,0.8-1.4,1.8-1.7c3.6-1,7.1-2.1,10.7-3.2c1-0.3,1.6-0.2,2.4,0.4c2.6,2.1,5.3,4.2,8,6.2
		c0.8,0.6,1,1.1,0.6,2.1c-0.5,1.3-1.1,2.6-1.3,3.9c-0.5,3.9-2.7,5.6-6.5,6.2c-3.3,0.4-6.6,1.5-9.8,2.3
		C275.4,206,275,206.1,275.2,206.1z"/>
	<path class="st11" d="M260.3,199.6c-3.3,1.2-5.3-0.7-7.1-3.6c-1.9-3.1-4.2-6-6.4-8.9c-0.7-0.9-0.7-1.6-0.4-2.6
		c0.9-2.4,1.8-4.8,2.5-7.2c0.3-1.1,0.9-1.4,2.1-1.4c3.1,0.2,6.2,0.4,9.3,0.4c0.9,0,1.4,0.4,1.8,1.1c2.2,3.2,4.4,6.5,6.7,9.6
		c0.7,0.9,0.6,1.7,0.3,2.6c-1,2.7-2,5.4-2.8,8.2c-0.4,1.4-1.1,1.9-2.5,1.7C262.9,199.5,261.8,199.6,260.3,199.6z"/>
	<path class="st12" d="M255.4,147.8c1.3,1.4,1.3,2.5,0.1,4c-3.3,4.2-6.4,8.4-9.6,12.7c-0.7,0.9-1.3,1.2-2.4,0.9
		c-0.9-0.2-1.2-0.4-0.8-1.5C245.2,157.2,249.5,151.9,255.4,147.8z"/>
	<path class="st12" d="M296,149.6c-1.1,1.6-2.4,1.7-4,1.1c-4.6-1.7-9.3-3.4-14-4.9c-1.2-0.4-1.7-1-2-2.2c-0.2-1.1-0.2-1.6,1.2-1.5
		C284.2,142.8,290.5,145.1,296,149.6z"/>
	<path class="st12" d="M242.2,186.5c2-1,3.3-0.4,4.5,1.4c2.5,3.8,5.2,7.5,8,11.1c1.3,1.6,0.2,2.5-0.5,3.6c-0.5,0.7-0.8,0-1.1-0.3
		C247.8,198.1,244.2,192.8,242.2,186.5z"/>
	<path class="st12" d="M304.6,177.8c0-2.7,0.1-5.4,0-8.1c-0.1-1.8,1.3-1.8,2.3-2c1.1-0.2,0.8,1,1,1.6c1.2,5.7,0.8,11.4-0.9,16.9
		c-0.2,0.6,0,1.8-1.2,1.6c-1.1-0.2-1.7-0.8-1.6-2.2c0.2-2.6,0-5.2,0-7.9C304.4,177.8,304.5,177.8,304.6,177.8z"/>
	<path class="st12" d="M274,210c0-2.1,0.9-3.1,2.9-3.5c4.2-0.8,8.4-2,12.6-3c0.7-0.2,1.4-0.5,2-0.2c0.5,0.2,0.9,0.7,1.2,1.1
		c0.2,0.4-0.3,0.6-0.5,0.7C286.6,208.4,280.6,210.2,274,210z"/>
	<path class="st13" d="M222.3,263c-0.1-5.5-0.1-5.5,5.3-6.7c3.5-0.8,4.7,0.1,4.9,3.7c0.3,4.7-1.1,6.6-5.6,7.9
		c-4.4,1.3-4.4,1.3-4.5-3.4C222.3,263.9,222.3,263.4,222.3,263z"/>
	<path class="st5" d="M259.2,261.1c0,5.1-0.3,9.4-2.3,13.5c-0.8,1.6-1.7,3.1-3.2,4.2c-2.5,1.9-4.8,1.4-6.4-1.3
		c-1.3-2.3-1.6-4.8-1.8-7.4c-0.4-5.3-0.2-10.6,1.8-15.7c0.7-1.8,1.7-3.5,3.2-4.7c3-2.4,5.7-1.8,7.2,1.8
		C259.2,254.8,259.1,258.3,259.2,261.1z"/>
	<path class="st5" d="M121.4,252.9c0-3.4,0-6.3,0.9-9c1.4-4.3,4.6-5.1,7.7-1.7c1.9,2,2.8,4.5,3.4,7.2c1.2,5.2,1.2,10.5,0.4,15.8
		c-0.1,0.9-0.4,1.9-0.8,2.8c-1.4,3.4-4.2,4-6.8,1.4c-2.7-2.7-3.7-6.2-4.3-9.8C121.5,257.1,121.4,254.7,121.4,252.9z"/>
	<path class="st13" d="M204.7,263.1c0.8,3.9,1.7,7.7,2.5,11.6c0.9,4.3,0.8,4.2-3.6,4.4c-1.9,0.1-2.5-0.2-1.9-2.3
		c1.1-4.5,1.9-9.1,2.8-13.7C204.5,263.1,204.6,263.1,204.7,263.1z"/>
	<path class="st13" d="M95,217.9c2.5,3,5,5.3,6.8,8.2c1.4,2.2,1.9,4.7,1.5,7.3c-0.2,1.5-1,1.8-2,0.8c-2-2.1-3.9-4.3-5.8-6.4
		c-0.5-0.5-0.4-1.1-0.4-1.7C95,223.6,95,221.1,95,217.9z"/>
	<path class="st13" d="M226.4,208.1c-0.1,0.7-0.1,1.4-0.3,2c-0.4,1.2-1.3,2-2.7,1.8c-1.8-0.2-2.4-1.5-2.5-3
		c-0.1-1.8-0.4-3.7,1.6-4.7c1.2-0.6,2.3-0.1,3,1C226.2,206.1,226.4,207.1,226.4,208.1z"/>
	<path class="st13" d="M188.3,207.3c0-0.2,0.1-0.9,0.3-1.6c0.3-0.9,0.8-1.6,1.8-1.7c1.1-0.2,1.9,0.2,2.5,1.1
		c1.1,1.7,1.2,3.6,0.4,5.5c-0.4,0.9-1.2,1.4-2.3,1.4c-1.1,0-1.8-0.6-2.2-1.6C188.4,209.6,188.2,208.7,188.3,207.3z"/>
	<path class="st13" d="M210.3,211.7c-0.2,2,0.1,4-0.6,5.9c-0.3,1-0.8,1.8-2,1.8c-1.3,0.1-1.9-0.8-2.1-1.9c-0.8-3.9-0.8-7.8,0-11.7
		c0.2-1,0.8-1.8,2-1.8c1.2,0,1.7,0.7,2.1,1.7C210.5,207.7,210.1,209.8,210.3,211.7z"/>
</g>
</svg>
