<?xml version="1.0" encoding="UTF-8"?>
<!DOCTYPE svg PUBLIC "-//W3C//DTD SVG 1.1//EN" "http://www.w3.org/Graphics/SVG/1.1/DTD/svg11.dtd">
<svg xmlns="http://www.w3.org/2000/svg" version="1.1" width="625px" height="626px" style="shape-rendering:geometricPrecision; text-rendering:geometricPrecision; image-rendering:optimizeQuality; fill-rule:evenodd; clip-rule:evenodd" xmlns:xlink="http://www.w3.org/1999/xlink">
<g><path style="opacity:0.999" fill="#040404" d="M 295.5,-0.5 C 301.833,-0.5 308.167,-0.5 314.5,-0.5C 435.61,5.22026 526.444,60.2203 587,164.5C 610.049,208.458 622.549,255.125 624.5,304.5C 624.5,310.5 624.5,316.5 624.5,322.5C 616.879,435.285 565.545,521.785 470.5,582C 424.539,608.32 375.206,622.82 322.5,625.5C 315.5,625.5 308.5,625.5 301.5,625.5C 198.806,619.229 116.972,574.896 56,492.5C 23.3554,444.399 4.52203,391.399 -0.5,333.5C -0.5,319.167 -0.5,304.833 -0.5,290.5C 10.0794,185.794 59.0794,104.627 146.5,47C 192.393,19.2778 242.059,3.4445 295.5,-0.5 Z"/></g>
<g><path style="opacity:1" fill="#f0f0f0" d="M 264.5,28.5 C 285.601,27.623 294.768,37.623 292,58.5C 286.271,70.6119 276.771,75.1119 263.5,72C 249.426,62.6067 246.593,50.44 255,35.5C 258.068,32.9174 261.235,30.5841 264.5,28.5 Z"/></g>
<g><path style="opacity:1" fill="#f1f1f1" d="M 325.5,26.5 C 333.156,34.8289 340.49,43.4955 347.5,52.5C 349.024,46.5939 350.024,40.5939 350.5,34.5C 351.404,33.791 351.737,32.791 351.5,31.5C 354.167,31.5 356.833,31.5 359.5,31.5C 359.5,33.1667 359.5,34.8333 359.5,36.5C 358.491,49.2516 356.825,61.9183 354.5,74.5C 346.606,65.7261 338.94,56.7261 331.5,47.5C 329.626,54.6975 328.626,62.0308 328.5,69.5C 325.5,69.5 322.5,69.5 319.5,69.5C 320.251,57.6327 321.585,45.9661 323.5,34.5C 324.167,31.8333 324.833,29.1667 325.5,26.5 Z"/></g>
<g><path style="opacity:1" fill="#9a9a9a" d="M 325.5,26.5 C 324.833,29.1667 324.167,31.8333 323.5,34.5C 323.183,31.4281 323.516,28.4281 324.5,25.5C 325.107,25.6236 325.44,25.9569 325.5,26.5 Z"/></g>
<g><path style="opacity:1" fill="#8c8c8c" d="M 359.5,36.5 C 359.5,34.8333 359.5,33.1667 359.5,31.5C 356.833,31.5 354.167,31.5 351.5,31.5C 351.737,32.791 351.404,33.791 350.5,34.5C 350.5,33.1667 350.5,31.8333 350.5,30.5C 353.833,30.5 357.167,30.5 360.5,30.5C 360.795,32.7354 360.461,34.7354 359.5,36.5 Z"/></g>
<g><path style="opacity:1" fill="#eeeeee" d="M 375.5,35.5 C 383.929,37.1813 392.263,39.1813 400.5,41.5C 400.167,44.1667 399.833,46.8333 399.5,49.5C 393.654,48.6208 387.987,47.2875 382.5,45.5C 382.167,48.1667 381.833,50.8333 381.5,53.5C 385.807,54.3266 390.14,54.9933 394.5,55.5C 394.127,58.5739 393.461,61.5739 392.5,64.5C 387.745,63.9149 383.078,62.9149 378.5,61.5C 377.551,64.2075 377.551,66.8742 378.5,69.5C 382.563,70.6321 386.563,71.9654 390.5,73.5C 391.449,76.1258 391.449,78.7925 390.5,81.5C 382.269,80.4423 374.269,78.4423 366.5,75.5C 366.167,74.8333 365.833,74.1667 365.5,73.5C 368.629,60.7791 371.963,48.1124 375.5,35.5 Z"/></g>
<g><path style="opacity:1" fill="#090909" d="M 269.5,37.5 C 282.381,40.2639 285.881,47.5972 280,59.5C 273.878,65.1501 268.211,64.8168 263,58.5C 260.234,53.2889 259.901,47.9555 262,42.5C 263.913,39.7197 266.413,38.053 269.5,37.5 Z"/></g>
<g><path style="opacity:1" fill="#f1f1f1" d="M 245.5,76.5 C 243.918,78.3736 241.918,79.7069 239.5,80.5C 238.167,80.5 236.833,80.5 235.5,80.5C 232.662,66.8145 229.662,53.1478 226.5,39.5C 229.482,39.0371 232.482,38.7038 235.5,38.5C 239.151,51.1031 242.484,63.7698 245.5,76.5 Z"/></g>
<g><path style="opacity:1" fill="#eeeeee" d="M 199.5,49.5 C 206.656,48.1664 212.156,50.4997 216,56.5C 216.167,57.8333 216.333,59.1667 216.5,60.5C 215.894,63.9965 215.06,67.3298 214,70.5C 219.583,73.7077 225.083,77.041 230.5,80.5C 227.691,82.407 224.691,84.0736 221.5,85.5C 215.813,82.1345 210.146,78.8012 204.5,75.5C 204.167,75.8333 203.833,76.1667 203.5,76.5C 205.776,80.7187 207.776,85.052 209.5,89.5C 207.23,92.4685 204.23,94.1352 200.5,94.5C 195.884,82.5998 190.717,70.9331 185,59.5C 184.51,58.2068 184.343,56.8734 184.5,55.5C 189.68,53.7362 194.68,51.7362 199.5,49.5 Z"/></g>
<g><path style="opacity:1" fill="#f0f0f0" d="M 431.5,96.5 C 426.797,96.5628 422.13,96.2295 417.5,95.5C 405.167,90.8563 400.001,81.8563 402,68.5C 409.301,51.4319 421.135,47.2652 437.5,56C 440.103,58.0935 442.103,60.5935 443.5,63.5C 442.27,66.2913 440.77,68.9579 439,71.5C 435.213,63.6924 429.046,60.1924 420.5,61C 409.278,68.882 408.611,77.5487 418.5,87C 422.763,88.539 425.43,87.2057 426.5,83C 424.842,81.3375 422.842,80.5041 420.5,80.5C 420.405,76.9419 421.572,73.9419 424,71.5C 428.806,73.5697 433.473,75.903 438,78.5C 436.543,84.7013 434.376,90.7013 431.5,96.5 Z"/></g>
<g><path style="opacity:1" fill="#101010" d="M 198.5,57.5 C 206.489,56.3173 209.156,59.4839 206.5,67C 204.409,68.6747 202.242,69.1747 200,68.5C 198.443,65.828 197.276,62.9947 196.5,60C 197.056,58.9889 197.722,58.1556 198.5,57.5 Z"/></g>
<g><path style="opacity:1" fill="#eeeeee" d="M 470.5,102.5 C 468.167,102.5 465.833,102.5 463.5,102.5C 463.825,109.687 463.491,116.687 462.5,123.5C 459.907,122.246 457.573,120.58 455.5,118.5C 454.669,111.524 454.169,104.524 454,97.5C 451.187,102.143 447.687,106.143 443.5,109.5C 440.89,108.223 438.556,106.557 436.5,104.5C 444,94.1667 451.5,83.8333 459,73.5C 459.739,72.4258 460.739,71.7591 462,71.5C 465.211,74.3734 468.711,76.8734 472.5,79C 479.873,84.1581 481.373,90.6581 477,98.5C 475.028,100.232 472.861,101.565 470.5,102.5 Z"/></g>
<g><path style="opacity:1" fill="#5e5e5e" d="M 245.5,76.5 C 246.404,77.209 246.737,78.209 246.5,79.5C 244.194,79.9926 241.861,80.3259 239.5,80.5C 241.918,79.7069 243.918,78.3736 245.5,76.5 Z"/></g>
<g><path style="opacity:1" fill="#121212" d="M 464.5,83.5 C 469.981,85.1252 471.481,88.4585 469,93.5C 466.032,95.9908 462.865,96.1574 459.5,94C 458.978,93.4387 458.645,92.772 458.5,92C 459.915,88.64 461.915,85.8067 464.5,83.5 Z"/></g>
<g><path style="opacity:1" fill="#f0f0f0" d="M 143.5,81.5 C 165.008,81.8312 173.841,92.4978 170,113.5C 159.581,127.339 147.581,129.006 134,118.5C 122.745,102.324 125.912,89.9905 143.5,81.5 Z"/></g>
<g><path style="opacity:1" fill="#0a0a0a" d="M 143.5,91.5 C 159.321,91.3351 164.321,98.5018 158.5,113C 146.539,118.08 139.539,114.08 137.5,101C 137.71,96.6377 139.71,93.471 143.5,91.5 Z"/></g>
<g><path style="opacity:1" fill="#fafafa" d="M 521.5,244.5 C 514.24,246.465 506.573,247.132 498.5,246.5C 497.609,245.89 496.609,245.557 495.5,245.5C 497.53,243.463 499.196,241.13 500.5,238.5C 497.978,235.812 495.644,232.979 493.5,230C 484.647,225.075 476.314,219.409 468.5,213C 463.701,210.265 458.701,208.098 453.5,206.5C 453.833,192.817 453.499,179.15 452.5,165.5C 446.926,159.709 440.926,154.376 434.5,149.5C 434.44,148.957 434.107,148.624 433.5,148.5C 432.501,164.152 432.167,179.819 432.5,195.5C 421.274,192.589 410.107,189.589 399,186.5C 393.598,164.632 387.598,142.965 381,121.5C 376.758,118.464 372.258,116.13 367.5,114.5C 366.432,113.566 365.099,113.232 363.5,113.5C 363.5,135.167 363.5,156.833 363.5,178.5C 361.833,178.5 360.167,178.5 358.5,178.5C 356.234,178.859 354.401,178.192 353,176.5C 352,165.167 351,153.833 350,142.5C 345.003,128.837 335.503,120.004 321.5,116C 313.894,114.399 306.227,113.232 298.5,112.5C 288.013,111.506 277.346,111.172 266.5,111.5C 266.5,133.833 266.5,156.167 266.5,178.5C 265.145,181.518 262.812,182.851 259.5,182.5C 257.833,182.5 256.167,182.5 254.5,182.5C 254.5,159.833 254.5,137.167 254.5,114.5C 252.585,114.216 250.919,114.549 249.5,115.5C 235.983,118.758 223.983,124.925 213.5,134C 197.149,148.226 184.316,165.06 175,184.5C 171.249,194.502 169.249,204.835 169,215.5C 163.096,220.202 156.929,224.536 150.5,228.5C 144.731,234.936 138.731,240.936 132.5,246.5C 130.589,246.574 129.422,247.574 129,249.5C 128.768,248.263 128.268,247.263 127.5,246.5C 118.983,246.826 110.65,246.493 102.5,245.5C 126.438,175.061 173.438,127.228 243.5,102C 323.483,78.9328 395.15,93.9328 458.5,147C 487.777,174.118 508.777,206.618 521.5,244.5 Z"/></g>
<g><path style="opacity:1" fill="#808080" d="M 417.5,95.5 C 422.13,96.2295 426.797,96.5628 431.5,96.5C 429.866,97.1611 428.033,97.4944 426,97.5C 422.85,97.6397 420.017,96.973 417.5,95.5 Z"/></g>
<g><path style="opacity:1" fill="#efefef" d="M 491.5,103.5 C 509.402,103.233 517.902,111.9 517,129.5C 511.372,144.397 500.872,149.897 485.5,146C 474.709,139.303 471.209,129.803 475,117.5C 479.055,111.066 484.555,106.4 491.5,103.5 Z"/></g>
<g><path style="opacity:1" fill="#6d6d6d" d="M 470.5,102.5 C 468.735,103.461 466.735,103.795 464.5,103.5C 464.83,110.532 464.497,117.532 463.5,124.5C 462.893,124.376 462.56,124.043 462.5,123.5C 463.491,116.687 463.825,109.687 463.5,102.5C 465.833,102.5 468.167,102.5 470.5,102.5 Z"/></g>
<g><path style="opacity:1" fill="#050505" d="M 298.5,112.5 C 306.227,113.232 313.894,114.399 321.5,116C 335.503,120.004 345.003,128.837 350,142.5C 351,153.833 352,165.167 353,176.5C 354.401,178.192 356.234,178.859 358.5,178.5C 360.265,179.461 362.265,179.795 364.5,179.5C 364.5,157.833 364.5,136.167 364.5,114.5C 365.5,114.5 366.5,114.5 367.5,114.5C 372.258,116.13 376.758,118.464 381,121.5C 387.598,142.965 393.598,164.632 399,186.5C 410.107,189.589 421.274,192.589 432.5,195.5C 433.167,180.167 433.833,164.833 434.5,149.5C 440.926,154.376 446.926,159.709 452.5,165.5C 453.499,179.15 453.833,192.817 453.5,206.5C 458.701,208.098 463.701,210.265 468.5,213C 476.314,219.409 484.647,225.075 493.5,230C 495.644,232.979 497.978,235.812 500.5,238.5C 499.196,241.13 497.53,243.463 495.5,245.5C 492.853,247.811 490.186,250.144 487.5,252.5C 477.98,243.478 467.48,235.812 456,229.5C 454.251,229.748 453.418,230.748 453.5,232.5C 452.501,283.664 452.168,334.997 452.5,386.5C 453.791,386.737 454.791,386.404 455.5,385.5C 466.19,380.151 475.857,373.318 484.5,365C 485.729,364.219 487.062,363.719 488.5,363.5C 493.499,366.835 497.832,370.835 501.5,375.5C 488.218,389.663 472.551,400.663 454.5,408.5C 453.667,421.821 453.167,435.154 453,448.5C 447.289,454.713 441.123,460.38 434.5,465.5C 433.504,450.342 433.17,435.009 433.5,419.5C 431.265,419.205 429.265,419.539 427.5,420.5C 416.105,423.632 404.771,426.965 393.5,430.5C 390.5,430.5 387.5,430.5 384.5,430.5C 384.5,447.833 384.5,465.167 384.5,482.5C 384.414,486.857 384.08,491.19 383.5,495.5C 377.618,497.471 371.618,499.138 365.5,500.5C 364.833,478.833 364.167,457.167 363.5,435.5C 359.766,435.323 356.099,435.656 352.5,436.5C 351.503,458.994 351.169,481.661 351.5,504.5C 348.941,504.198 346.607,504.532 344.5,505.5C 341.873,506.092 339.206,506.425 336.5,506.5C 334.833,506.5 333.167,506.5 331.5,506.5C 331.831,483.661 331.497,460.994 330.5,438.5C 316.158,438.476 301.824,438.143 287.5,437.5C 286.502,460.327 286.169,483.327 286.5,506.5C 285.167,506.5 283.833,506.5 282.5,506.5C 277.32,506.249 272.32,505.249 267.5,503.5C 268.157,479.809 267.49,456.476 265.5,433.5C 262.073,433.024 258.74,433.024 255.5,433.5C 254.811,435.444 254.311,437.444 254,439.5C 253.833,459.508 253.333,479.508 252.5,499.5C 246.032,497.346 239.699,495.013 233.5,492.5C 233.254,473.654 233.587,454.821 234.5,436C 235.053,426.89 230.72,422.89 221.5,424C 211.593,419.545 201.593,415.378 191.5,411.5C 190.791,410.596 189.791,410.263 188.5,410.5C 188.5,429.167 188.5,447.833 188.5,466.5C 180.185,461.684 173.685,455.017 169,446.5C 168.954,430.766 168.287,415.1 167,399.5C 158.901,391.355 150.068,384.022 140.5,377.5C 125.68,361.87 115.513,343.536 110,322.5C 106.938,302.798 109.938,284.131 119,266.5C 122.938,259.406 127.438,252.739 132.5,246.5C 138.731,240.936 144.731,234.936 150.5,228.5C 156.929,224.536 163.096,220.202 169,215.5C 169.249,204.835 171.249,194.502 175,184.5C 184.316,165.06 197.149,148.226 213.5,134C 223.983,124.925 235.983,118.758 249.5,115.5C 250.833,115.5 252.167,115.5 253.5,115.5C 253.5,138.167 253.5,160.833 253.5,183.5C 255.735,183.795 257.735,183.461 259.5,182.5C 262.812,182.851 265.145,181.518 266.5,178.5C 267.497,156.673 267.831,134.673 267.5,112.5C 277.833,112.5 288.167,112.5 298.5,112.5 Z"/></g>
<g><path style="opacity:1" fill="#0b0b0b" d="M 493.5,113.5 C 503.869,113.364 508.369,118.364 507,128.5C 500.687,138.757 493.02,140.09 484,132.5C 482.388,123.724 485.555,117.391 493.5,113.5 Z"/></g>
<g><path style="opacity:1" fill="#eeeeee" d="M 110.5,109.5 C 114.313,110.63 117.313,112.963 119.5,116.5C 109.157,118.327 104.99,124.327 107,134.5C 110.638,143.122 116.805,145.622 125.5,142C 129.616,137.933 132.282,133.1 133.5,127.5C 138.136,129.916 140.302,133.582 140,138.5C 133.411,152.545 122.911,156.712 108.5,151C 97.589,143.878 94.089,134.044 98,121.5C 101.403,116.595 105.57,112.595 110.5,109.5 Z"/></g>
<g><path style="opacity:1" fill="#fcfcfc" d="M 293.5,132.5 C 303.602,132.24 313.269,134.074 322.5,138C 326.957,140.969 329.623,145.136 330.5,150.5C 330.5,159.167 330.5,167.833 330.5,176.5C 324.31,176.177 318.31,176.51 312.5,177.5C 304.167,177.5 295.833,177.5 287.5,177.5C 287.5,162.5 287.5,147.5 287.5,132.5C 289.5,132.5 291.5,132.5 293.5,132.5 Z"/></g>
<g><path style="opacity:1" fill="#f8f8f8" d="M 232.5,147.5 C 233.487,152.305 233.821,157.305 233.5,162.5C 233.5,171.167 233.5,179.833 233.5,188.5C 220.819,192.015 208.486,196.349 196.5,201.5C 194.309,202.291 192.309,202.291 190.5,201.5C 195.527,182.982 205.527,167.482 220.5,155C 224.052,151.727 228.052,149.227 232.5,147.5 Z"/></g>
<g><path style="opacity:1" fill="#646464" d="M 298.5,112.5 C 288.167,112.5 277.833,112.5 267.5,112.5C 267.831,134.673 267.497,156.673 266.5,178.5C 266.5,156.167 266.5,133.833 266.5,111.5C 277.346,111.172 288.013,111.506 298.5,112.5 Z"/></g>
<g><path style="opacity:1" fill="#a3a3a3" d="M 367.5,114.5 C 366.5,114.5 365.5,114.5 364.5,114.5C 364.5,136.167 364.5,157.833 364.5,179.5C 362.265,179.795 360.265,179.461 358.5,178.5C 360.167,178.5 361.833,178.5 363.5,178.5C 363.5,156.833 363.5,135.167 363.5,113.5C 365.099,113.232 366.432,113.566 367.5,114.5 Z"/></g>
<g><path style="opacity:1" fill="#535353" d="M 232.5,147.5 C 232.56,146.957 232.893,146.624 233.5,146.5C 234.815,151.986 234.815,157.32 233.5,162.5C 233.821,157.305 233.487,152.305 232.5,147.5 Z"/></g>
<g><path style="opacity:1" fill="#f0f0f0" d="M 517.5,190.5 C 516.608,185.562 516.274,180.562 516.5,175.5C 518.864,168.966 523.198,164.132 529.5,161C 542.471,157.565 552.305,161.731 559,173.5C 560.182,176.856 560.349,180.19 559.5,183.5C 557.004,184.58 554.67,185.914 552.5,187.5C 552.795,174.959 546.795,169.126 534.5,170C 525.177,174.464 523.01,181.297 528,190.5C 530.383,193.273 533.217,195.439 536.5,197C 533.283,199.784 529.616,201.118 525.5,201C 521.821,198.169 519.154,194.669 517.5,190.5 Z"/></g>
<g><path style="opacity:1" fill="#f0f0f0" d="M 97.5,197.5 C 95.9582,198.301 94.2915,198.634 92.5,198.5C 83.8698,194.23 75.2031,189.897 66.5,185.5C 64.4841,189.543 61.9841,193.21 59,196.5C 56.9534,195.391 54.7867,194.724 52.5,194.5C 57.0927,184.068 61.9261,173.735 67,163.5C 67.7387,162.426 68.7387,161.759 70,161.5C 72.0466,162.609 74.2133,163.276 76.5,163.5C 74.2855,167.937 72.6188,172.604 71.5,177.5C 81.2339,181.866 90.9005,186.533 100.5,191.5C 99.4867,193.527 98.4867,195.527 97.5,197.5 Z"/></g>
<g><path style="opacity:1" fill="#f0f0f0" d="M 80.5,144.5 C 81.552,144.351 82.552,144.517 83.5,145C 94.3824,152.601 105.049,160.434 115.5,168.5C 114.139,170.028 112.972,171.695 112,173.5C 110.867,175.211 109.367,175.711 107.5,175C 97.8552,167.178 87.8552,159.845 77.5,153C 76.4829,151.951 76.3162,150.784 77,149.5C 78.1764,147.804 79.343,146.138 80.5,144.5 Z"/></g>
<g><path style="opacity:1" fill="#7e7e7e" d="M 249.5,115.5 C 250.919,114.549 252.585,114.216 254.5,114.5C 254.5,137.167 254.5,159.833 254.5,182.5C 256.167,182.5 257.833,182.5 259.5,182.5C 257.735,183.461 255.735,183.795 253.5,183.5C 253.5,160.833 253.5,138.167 253.5,115.5C 252.167,115.5 250.833,115.5 249.5,115.5 Z"/></g>
<g><path style="opacity:1" fill="#a2a2a2" d="M 293.5,132.5 C 291.5,132.5 289.5,132.5 287.5,132.5C 287.5,147.5 287.5,162.5 287.5,177.5C 295.833,177.5 304.167,177.5 312.5,177.5C 304.016,178.493 295.349,178.826 286.5,178.5C 286.5,162.833 286.5,147.167 286.5,131.5C 289.059,131.198 291.393,131.532 293.5,132.5 Z"/></g>
<g><path style="opacity:1" fill="#b3b3b3" d="M 330.5,150.5 C 331.493,159.318 331.827,168.318 331.5,177.5C 325.167,177.5 318.833,177.5 312.5,177.5C 318.31,176.51 324.31,176.177 330.5,176.5C 330.5,167.833 330.5,159.167 330.5,150.5 Z"/></g>
<g><path style="opacity:1" fill="#a0a0a0" d="M 516.5,175.5 C 516.274,180.562 516.608,185.562 517.5,190.5C 516.883,190.389 516.383,190.056 516,189.5C 515.185,184.648 515.352,179.981 516.5,175.5 Z"/></g>
<g><path style="opacity:1" fill="#909090" d="M 434.5,149.5 C 433.833,164.833 433.167,180.167 432.5,195.5C 432.167,179.819 432.501,164.152 433.5,148.5C 434.107,148.624 434.44,148.957 434.5,149.5 Z"/></g>
<g><path style="opacity:1" fill="#808080" d="M 327.5,197.5 C 315.817,197.398 304.15,197.731 292.5,198.5C 299.097,196.97 305.93,196.303 313,196.5C 318.012,196.501 322.845,196.834 327.5,197.5 Z"/></g>
<g><path style="opacity:1" fill="#929292" d="M 97.5,197.5 C 96.539,201.143 94.8724,201.476 92.5,198.5C 94.2915,198.634 95.9582,198.301 97.5,197.5 Z"/></g>
<g><path style="opacity:1" fill="#eeeeee" d="M 47.5,201.5 C 50.1272,202.092 52.7938,202.425 55.5,202.5C 54.9883,207.705 53.6549,212.705 51.5,217.5C 53.1137,220.427 55.447,221.094 58.5,219.5C 60.0291,216.246 61.3624,212.913 62.5,209.5C 65.6138,208.592 68.2805,209.425 70.5,212C 68.7249,216.044 67.3916,220.211 66.5,224.5C 68.9372,224.756 71.2706,225.423 73.5,226.5C 76.2465,222.52 78.2465,218.187 79.5,213.5C 82.5251,212.326 85.1918,212.993 87.5,215.5C 84.8599,223.103 82.5266,230.77 80.5,238.5C 67.252,234.307 53.9186,230.307 40.5,226.5C 42.2188,218.008 44.5522,209.675 47.5,201.5 Z"/></g>
<g><path style="opacity:1" fill="#565656" d="M 190.5,201.5 C 192.309,202.291 194.309,202.291 196.5,201.5C 194.474,203.502 192.141,203.836 189.5,202.5C 189.624,201.893 189.957,201.56 190.5,201.5 Z"/></g>
<g><path style="opacity:1" fill="#858585" d="M 363.5,199.5 C 359.833,199.5 356.167,199.5 352.5,199.5C 352.821,204.695 352.487,209.695 351.5,214.5C 351.5,209.167 351.5,203.833 351.5,198.5C 355.702,198.183 359.702,198.517 363.5,199.5 Z"/></g>
<g><path style="opacity:1" fill="#f0f0f0" d="M 564.5,194.5 C 565.978,194.238 567.311,194.571 568.5,195.5C 569.851,198.175 570.185,200.841 569.5,203.5C 560.539,207.098 551.539,210.598 542.5,214C 541.572,214.388 540.905,215.055 540.5,216C 542.775,220.551 544.775,225.217 546.5,230C 546.095,230.945 545.428,231.612 544.5,232C 542.444,232.311 540.444,232.811 538.5,233.5C 534.882,225.266 531.548,216.933 528.5,208.5C 540.8,204.404 552.8,199.737 564.5,194.5 Z"/></g>
<g><path style="opacity:1" fill="#d5d5d5" d="M 31.5,202.5 C 33.371,202.859 34.871,203.859 36,205.5C 37.9532,208.255 39.1199,211.255 39.5,214.5C 36.3084,212.828 33.475,210.495 31,207.5C 30.6155,205.803 30.7822,204.137 31.5,202.5 Z"/></g>
<g><path style="opacity:1" fill="#f9f9f9" d="M 432.5,218.5 C 432.5,229.833 432.5,241.167 432.5,252.5C 430.926,250.898 430.259,248.898 430.5,246.5C 425.637,246.181 420.97,246.514 416.5,247.5C 416.5,248.5 416.5,249.5 416.5,250.5C 416.649,251.552 416.483,252.552 416,253.5C 415.292,252.619 414.458,251.953 413.5,251.5C 413.737,250.209 413.404,249.209 412.5,248.5C 410.881,235.087 407.881,222.087 403.5,209.5C 413.737,210.69 423.403,213.69 432.5,218.5 Z"/></g>
<g><path style="opacity:1" fill="#525252" d="M 385.5,221.5 C 384.835,223.369 384.169,225.369 383.5,227.5C 382.893,227.376 382.56,227.043 382.5,226.5C 383.165,224.302 383.832,221.969 384.5,219.5C 385.298,219.957 385.631,220.624 385.5,221.5 Z"/></g>
<g><path style="opacity:1" fill="#818181" d="M 575.5,228.5 C 577.265,227.539 579.265,227.205 581.5,227.5C 581.5,228.5 581.5,229.5 581.5,230.5C 579.886,228.925 577.886,228.259 575.5,228.5 Z"/></g>
<g><path style="opacity:1" fill="#efefef" d="M 575.5,228.5 C 577.886,228.259 579.886,228.925 581.5,230.5C 582.468,232.607 582.802,234.941 582.5,237.5C 572.869,238.493 563.535,240.659 554.5,244C 550.5,248.667 550.5,253.333 554.5,258C 564.516,257.932 574.349,256.432 584,253.5C 587.278,255.44 588.778,258.44 588.5,262.5C 580.748,263.417 573.081,264.917 565.5,267C 560.833,267.667 556.167,267.667 551.5,267C 543.088,260.43 540.254,251.93 543,241.5C 544.833,239.667 546.667,237.833 548.5,236C 557.265,232.65 566.265,230.15 575.5,228.5 Z"/></g>
<g><path style="opacity:1" fill="#ececec" d="M 376.5,218.5 C 379.461,220.412 381.461,223.079 382.5,226.5C 382.56,227.043 382.893,227.376 383.5,227.5C 384.169,225.369 384.835,223.369 385.5,221.5C 385.833,223.5 386.167,225.5 386.5,227.5C 403.771,227.444 410.104,235.777 405.5,252.5C 406.622,253.156 407.955,253.489 409.5,253.5C 411.333,253.415 412.666,252.748 413.5,251.5C 414.458,251.953 415.292,252.619 416,253.5C 416.483,252.552 416.649,251.552 416.5,250.5C 421.345,268.203 425.345,286.203 428.5,304.5C 428.238,305.978 428.571,307.311 429.5,308.5C 430.824,297.007 430.824,285.674 429.5,274.5C 429.5,265.5 429.5,256.5 429.5,247.5C 425.167,247.5 420.833,247.5 416.5,247.5C 420.97,246.514 425.637,246.181 430.5,246.5C 430.259,248.898 430.926,250.898 432.5,252.5C 432.831,276.006 432.498,299.339 431.5,322.5C 428.809,318.278 426.976,313.612 426,308.5C 422.67,293.845 419.336,279.178 416,264.5C 415.828,268.871 415.328,273.204 414.5,277.5C 409.392,278.257 404.725,280.091 400.5,283C 406.734,307.858 412.734,332.692 418.5,357.5C 417.5,357.833 416.833,358.5 416.5,359.5C 409.911,336.812 404.078,313.812 399,290.5C 398.167,288.5 397.333,286.5 396.5,284.5C 394.471,285.844 392.471,287.177 390.5,288.5C 390.047,287.542 389.381,286.708 388.5,286C 391.001,283.535 390.334,282.035 386.5,281.5C 388.004,279.164 390.004,277.331 392.5,276C 397.159,273.842 401.825,272.009 406.5,270.5C 407.477,267.713 407.81,264.713 407.5,261.5C 400.313,261.825 393.313,261.491 386.5,260.5C 389.811,256.853 393.145,253.187 396.5,249.5C 400.641,241.646 398.307,237.313 389.5,236.5C 385.744,237.214 382.077,238.214 378.5,239.5C 377.869,233.559 375.202,228.893 370.5,225.5C 372.086,224.587 373.586,224.587 375,225.5C 375.977,223.26 376.477,220.927 376.5,218.5 Z"/></g>
<g><path style="opacity:1" fill="#f1f1f1" d="M 43.5,263.5 C 41.4855,262.076 39.1522,261.41 36.5,261.5C 34.8561,261.714 33.3561,261.38 32,260.5C 31.861,257.425 32.361,254.425 33.5,251.5C 44.518,253.704 55.518,256.037 66.5,258.5C 67.0582,253.484 67.7249,248.484 68.5,243.5C 70.8568,243.337 73.1902,243.503 75.5,244C 76.5156,244.519 77.1822,245.353 77.5,246.5C 75.9391,254.203 74.2724,261.869 72.5,269.5C 62.7403,268.015 53.0737,266.015 43.5,263.5 Z"/></g>
<g><path style="opacity:1" fill="#f8f8f8" d="M 168.5,322.5 C 168.83,339.009 168.496,355.342 167.5,371.5C 166.883,366.731 166.216,362.064 165.5,357.5C 165.5,339.167 165.5,320.833 165.5,302.5C 165.5,284.833 165.5,267.167 165.5,249.5C 165.167,248.167 164.833,246.833 164.5,245.5C 165.145,244.188 166.145,243.188 167.5,242.5C 168.5,269.158 168.833,295.825 168.5,322.5 Z"/></g>
<g><path style="opacity:1" fill="#747474" d="M 102.5,245.5 C 110.65,246.493 118.983,246.826 127.5,246.5C 127.672,247.492 127.338,248.158 126.5,248.5C 118.324,247.833 109.99,247.167 101.5,246.5C 101.624,245.893 101.957,245.56 102.5,245.5 Z"/></g>
<g><path style="opacity:1" fill="#737373" d="M 521.5,244.5 C 522.404,245.209 522.737,246.209 522.5,247.5C 514.5,247.5 506.5,247.5 498.5,247.5C 498.5,247.167 498.5,246.833 498.5,246.5C 506.573,247.132 514.24,246.465 521.5,244.5 Z"/></g>
<g><path style="opacity:1" fill="#080808" d="M 416.5,247.5 C 420.833,247.5 425.167,247.5 429.5,247.5C 429.5,256.5 429.5,265.5 429.5,274.5C 429.827,284.681 429.494,294.681 428.5,304.5C 425.345,286.203 421.345,268.203 416.5,250.5C 416.5,249.5 416.5,248.5 416.5,247.5 Z"/></g>
<g><path style="opacity:1" fill="#030303" d="M 162.5,250.5 C 164.486,267.468 165.153,284.801 164.5,302.5C 165.155,323.527 164.488,344.194 162.5,364.5C 160.745,363.928 159.078,363.094 157.5,362C 149.455,352.288 142.622,341.788 137,330.5C 128.159,298.192 136.659,271.526 162.5,250.5 Z"/></g>
<g><path style="opacity:1" fill="#676767" d="M 412.5,248.5 C 413.404,249.209 413.737,250.209 413.5,251.5C 412.666,252.748 411.333,253.415 409.5,253.5C 407.955,253.489 406.622,253.156 405.5,252.5C 407.833,252.5 410.167,252.5 412.5,252.5C 412.5,251.167 412.5,249.833 412.5,248.5 Z"/></g>
<g><path style="opacity:1" fill="#686968" d="M 386.5,260.5 C 393.313,261.491 400.313,261.825 407.5,261.5C 407.81,264.713 407.477,267.713 406.5,270.5C 406.5,267.833 406.5,265.167 406.5,262.5C 399.468,262.83 392.468,262.497 385.5,261.5C 385.624,260.893 385.957,260.56 386.5,260.5 Z"/></g>
<g><path style="opacity:1" fill="#929292" d="M 36.5,261.5 C 39.1522,261.41 41.4855,262.076 43.5,263.5C 40.8478,263.59 38.5145,262.924 36.5,261.5 Z"/></g>
<g><path style="opacity:1" fill="#f2f2f2" d="M 36.5,302.5 C 35.5489,303.919 35.2155,305.585 35.5,307.5C 32.8333,307.5 30.1667,307.5 27.5,307.5C 28.2497,295.505 28.9163,283.505 29.5,271.5C 32.5,271.5 35.5,271.5 38.5,271.5C 38.3314,276.181 37.9981,280.848 37.5,285.5C 48.4969,286.208 59.4969,286.875 70.5,287.5C 70.5,290.833 70.5,294.167 70.5,297.5C 59.1447,297.164 47.8113,296.497 36.5,295.5C 36.5,297.833 36.5,300.167 36.5,302.5 Z"/></g>
<g><path style="opacity:1" fill="#a3a3a3" d="M 581.5,277.5 C 576.417,279.078 571.084,279.745 565.5,279.5C 570.616,278.194 575.949,277.527 581.5,277.5 Z"/></g>
<g><path style="opacity:1" fill="#f0f0f0" d="M 581.5,277.5 C 584.5,277.5 587.5,277.5 590.5,277.5C 591.256,284.491 591.423,291.491 591,298.5C 588.489,304.657 583.989,306.824 577.5,305C 575.895,303.64 574.395,302.14 573,300.5C 569.263,308.113 563.43,310.279 555.5,307C 550.303,299.043 547.97,290.21 548.5,280.5C 554.121,279.646 559.788,279.313 565.5,279.5C 571.084,279.745 576.417,279.078 581.5,277.5 Z"/></g>
<g><path style="opacity:1" fill="#e0e0e0" d="M 127.5,246.5 C 128.268,247.263 128.768,248.263 129,249.5C 129.422,247.574 130.589,246.574 132.5,246.5C 127.438,252.739 122.938,259.406 119,266.5C 109.938,284.131 106.938,302.798 110,322.5C 115.513,343.536 125.68,361.87 140.5,377.5C 137.941,377.802 135.607,377.468 133.5,376.5C 134.833,375.833 134.833,375.167 133.5,374.5C 107.919,346.611 100.086,314.277 110,277.5C 114.486,267.188 119.986,257.521 126.5,248.5C 127.338,248.158 127.672,247.492 127.5,246.5 Z"/></g>
<g><path style="opacity:1" fill="#e1e1e1" d="M 164.5,245.5 C 164.833,246.833 165.167,248.167 165.5,249.5C 164.209,249.263 163.209,249.596 162.5,250.5C 136.659,271.526 128.159,298.192 137,330.5C 142.622,341.788 149.455,352.288 157.5,362C 159.078,363.094 160.745,363.928 162.5,364.5C 162.811,365.478 163.478,366.145 164.5,366.5C 165.484,363.572 165.817,360.572 165.5,357.5C 166.216,362.064 166.883,366.731 167.5,371.5C 163.227,369.695 159.227,367.361 155.5,364.5C 142.526,351.334 134.026,335.667 130,317.5C 127.799,302.708 130.132,288.708 137,275.5C 143.882,264.782 152.048,255.115 161.5,246.5C 162.417,245.873 163.417,245.539 164.5,245.5 Z"/></g>
<g><path style="opacity:1" fill="#0b0b0b" d="M 584.5,288.5 C 585.667,294.496 583.334,296.996 577.5,296C 576.418,294.67 575.751,293.17 575.5,291.5C 575.5,290.167 575.5,288.833 575.5,287.5C 578.609,287.264 581.609,287.597 584.5,288.5 Z"/></g>
<g><path style="opacity:1" fill="#0c0c0c" d="M 416.5,359.5 C 417.66,365.14 418.66,370.807 419.5,376.5C 408.918,376.82 398.418,376.487 388,375.5C 388.097,347.512 388.097,319.512 388,291.5C 389.045,290.627 389.878,289.627 390.5,288.5C 392.471,287.177 394.471,285.844 396.5,284.5C 397.333,286.5 398.167,288.5 399,290.5C 404.078,313.812 409.911,336.812 416.5,359.5 Z"/></g>
<g><path style="opacity:1" fill="#171717" d="M 557.5,288.5 C 561.167,288.5 564.833,288.5 568.5,288.5C 568.664,291.187 568.497,293.854 568,296.5C 565.294,299.978 562.294,300.311 559,297.5C 557.851,294.607 557.351,291.607 557.5,288.5 Z"/></g>
<g><path style="opacity:1" fill="#626262" d="M 584.5,288.5 C 581.609,287.597 578.609,287.264 575.5,287.5C 575.5,288.833 575.5,290.167 575.5,291.5C 574.549,290.081 574.216,288.415 574.5,286.5C 578.329,285.931 581.663,286.598 584.5,288.5 Z"/></g>
<g><path style="opacity:1" fill="#575757" d="M 162.5,250.5 C 163.209,249.596 164.209,249.263 165.5,249.5C 165.5,267.167 165.5,284.833 165.5,302.5C 165.167,302.5 164.833,302.5 164.5,302.5C 165.153,284.801 164.486,267.468 162.5,250.5 Z"/></g>
<g><path style="opacity:1" fill="#888888" d="M 429.5,274.5 C 430.824,285.674 430.824,297.007 429.5,308.5C 428.571,307.311 428.238,305.978 428.5,304.5C 429.494,294.681 429.827,284.681 429.5,274.5 Z"/></g>
<g><path style="opacity:1" fill="#f2f2f2" d="M 327.5,197.5 C 329.144,197.286 330.644,197.62 332,198.5C 332.195,203.418 332.695,208.251 333.5,213C 339.379,214.41 345.379,214.91 351.5,214.5C 352.487,209.695 352.821,204.695 352.5,199.5C 356.167,199.5 359.833,199.5 363.5,199.5C 363.334,204.179 363.501,208.845 364,213.5C 368.435,214.466 372.601,216.133 376.5,218.5C 376.477,220.927 375.977,223.26 375,225.5C 373.586,224.587 372.086,224.587 370.5,225.5C 361.311,223.175 351.977,222.842 342.5,224.5C 338.769,223.979 335.102,223.146 331.5,222C 325.98,217.143 320.48,212.31 315,207.5C 310.862,210.637 307.029,214.137 303.5,218C 293.983,224.86 283.649,226.36 272.5,222.5C 260.853,221.652 254.186,226.986 252.5,238.5C 251.667,238.833 250.833,239.167 250,239.5C 232.028,232.795 228.028,237.462 238,253.5C 240.644,255.31 243.144,257.31 245.5,259.5C 238.197,260.497 230.863,260.831 223.5,260.5C 223.5,264.167 223.5,267.833 223.5,271.5C 237.748,274.92 247.915,283.254 254,296.5C 255.028,299.91 255.528,303.41 255.5,307C 255.279,314.769 253.779,322.269 251,329.5C 248.432,350.473 255.266,367.64 271.5,381C 288.159,391.986 302.659,405.486 315,421.5C 323.167,412.667 331.333,403.833 339.5,395C 347.167,389.333 354.833,383.667 362.5,378C 380.422,360.196 384.922,339.363 376,315.5C 373.037,301.981 376.537,290.648 386.5,281.5C 390.334,282.035 391.001,283.535 388.5,286C 389.381,286.708 390.047,287.542 390.5,288.5C 389.878,289.627 389.045,290.627 388,291.5C 388.097,319.512 388.097,347.512 388,375.5C 398.418,376.487 408.918,376.82 419.5,376.5C 418.66,370.807 417.66,365.14 416.5,359.5C 416.833,358.5 417.5,357.833 418.5,357.5C 422.908,371.168 426.575,385.168 429.5,399.5C 415.272,402.912 401.272,406.912 387.5,411.5C 386.5,411.5 385.5,411.5 384.5,411.5C 384.667,395.83 384.5,380.163 384,364.5C 383.283,365.044 382.783,365.711 382.5,366.5C 377.638,374.168 371.805,381.168 365,387.5C 364.667,396.167 364.333,404.833 364,413.5C 361.135,415.843 357.969,416.51 354.5,415.5C 352.785,409.59 351.451,403.59 350.5,397.5C 344.551,401.946 339.051,406.946 334,412.5C 328.304,419.875 322.137,426.875 315.5,433.5C 310.861,428.526 306.195,423.526 301.5,418.5C 298.856,417.705 296.189,417.038 293.5,416.5C 291.786,415.262 289.786,414.595 287.5,414.5C 287.815,410.629 287.482,406.962 286.5,403.5C 280.52,397.844 273.853,393.177 266.5,389.5C 266.799,396.891 266.465,404.224 265.5,411.5C 261.443,413.152 257.943,412.485 255,409.5C 254.667,398.167 254.333,386.833 254,375.5C 242.135,360.314 238.801,343.314 244,324.5C 247.171,316.793 248.171,308.793 247,300.5C 246.108,297.048 244.442,294.048 242,291.5C 239.5,290.333 237.667,288.5 236.5,286C 235.552,285.517 234.552,285.351 233.5,285.5C 233.5,288.167 233.5,290.833 233.5,293.5C 218.833,293.5 204.167,293.5 189.5,293.5C 189.333,271.497 189.5,249.497 190,227.5C 203.45,219.01 217.95,213.01 233.5,209.5C 234.165,215.477 234.498,221.477 234.5,227.5C 238.857,227.586 243.19,227.92 247.5,228.5C 248.378,225.079 250.044,222.079 252.5,219.5C 253.327,215.541 253.827,211.541 254,207.5C 256.589,202.765 260.423,201.432 265.5,203.5C 266.417,206.758 266.751,210.091 266.5,213.5C 273.153,214.054 279.82,214.388 286.5,214.5C 286.5,209.167 286.5,203.833 286.5,198.5C 288.5,198.5 290.5,198.5 292.5,198.5C 304.15,197.731 315.817,197.398 327.5,197.5 Z"/></g>
<g><path style="opacity:1" fill="#838383" d="M 218.5,278.5 C 221.152,278.41 223.485,279.076 225.5,280.5C 222.848,280.59 220.515,279.924 218.5,278.5 Z"/></g>
<g><path style="opacity:1" fill="#7c7c7c" d="M 224.5,250.5 C 225.404,251.209 225.737,252.209 225.5,253.5C 221.833,253.5 218.167,253.5 214.5,253.5C 218.119,253.119 221.452,252.119 224.5,250.5 Z"/></g>
<g><path style="opacity:1" fill="#040404" d="M 223.5,247.5 C 223.263,248.791 223.596,249.791 224.5,250.5C 221.452,252.119 218.119,253.119 214.5,253.5C 214.334,261.507 214.5,269.507 215,277.5C 216.011,278.337 217.178,278.67 218.5,278.5C 220.515,279.924 222.848,280.59 225.5,280.5C 226.78,281.931 228.447,282.598 230.5,282.5C 230.5,284.833 230.5,287.167 230.5,289.5C 218.167,289.5 205.833,289.5 193.5,289.5C 193.5,275.5 193.5,261.5 193.5,247.5C 203.5,247.5 213.5,247.5 223.5,247.5 Z"/></g>
<g><path style="opacity:1" fill="#686868" d="M 223.5,247.5 C 213.5,247.5 203.5,247.5 193.5,247.5C 193.5,261.5 193.5,275.5 193.5,289.5C 192.504,275.343 192.171,261.01 192.5,246.5C 203.014,246.172 213.347,246.506 223.5,247.5 Z"/></g>
<g><path style="opacity:1" fill="#aeaeae" d="M 432.5,218.5 C 433.83,253.336 433.83,288.336 432.5,323.5C 431.893,323.376 431.56,323.043 431.5,322.5C 432.498,299.339 432.831,276.006 432.5,252.5C 432.5,241.167 432.5,229.833 432.5,218.5 Z"/></g>
<g><path style="opacity:1" fill="#898989" d="M 36.5,302.5 C 36.5,304.5 36.5,306.5 36.5,308.5C 33.2869,308.81 30.2869,308.477 27.5,307.5C 30.2869,308.477 33.2869,308.81 36.5,308.5C 36.5,306.5 36.5,304.5 36.5,302.5 Z"/></g>
<g><path style="opacity:1" fill="#333333" d="M 383.5,300.5 C 384.652,305.985 384.818,311.651 384,317.5C 382.171,311.885 382.005,306.218 383.5,300.5 Z"/></g>
<g><path style="opacity:1" fill="#ededed" d="M 66.5,305.5 C 68.4136,308.684 69.0803,312.351 68.5,316.5C 66.6096,316.297 65.1096,316.963 64,318.5C 64.1628,324.473 64.3295,330.473 64.5,336.5C 66.8056,336.993 69.139,337.326 71.5,337.5C 71.8204,340.898 71.487,344.232 70.5,347.5C 59.5099,343.34 48.5099,339.173 37.5,335C 33.8668,333.63 30.5335,331.796 27.5,329.5C 40.5398,321.439 53.5398,313.439 66.5,305.5 Z"/></g>
<g><path style="opacity:1" fill="#efefef" d="M 495.5,245.5 C 496.609,245.557 497.609,245.89 498.5,246.5C 498.5,246.833 498.5,247.167 498.5,247.5C 494.853,250.811 491.187,254.145 487.5,257.5C 483.813,254.145 480.147,250.811 476.5,247.5C 470.021,246.509 463.354,246.176 456.5,246.5C 456.5,289.833 456.5,333.167 456.5,376.5C 459.713,376.81 462.713,376.477 465.5,375.5C 472.906,369.263 480.74,363.596 489,358.5C 494.338,363.172 499.672,367.839 505,372.5C 505.483,373.448 505.649,374.448 505.5,375.5C 505.5,375.833 505.5,376.167 505.5,376.5C 504.842,375.602 504.176,374.602 503.5,373.5C 502.818,374.243 502.151,374.909 501.5,375.5C 497.832,370.835 493.499,366.835 488.5,363.5C 487.062,363.719 485.729,364.219 484.5,365C 475.857,373.318 466.19,380.151 455.5,385.5C 453.504,334.844 452.838,283.844 453.5,232.5C 453.418,230.748 454.251,229.748 456,229.5C 467.48,235.812 477.98,243.478 487.5,252.5C 490.186,250.144 492.853,247.811 495.5,245.5 Z"/></g>
<g><path style="opacity:1" fill="#f3f3f3" d="M 585.5,319.5 C 587.265,320.461 589.265,320.795 591.5,320.5C 591.5,323.833 591.5,327.167 591.5,330.5C 591.249,335.507 590.916,340.507 590.5,345.5C 587.873,344.908 585.206,344.575 582.5,344.5C 582.5,343.167 582.5,341.833 582.5,340.5C 582.5,336.833 582.5,333.167 582.5,329.5C 580.052,328.527 577.385,328.194 574.5,328.5C 574.5,330.833 574.5,333.167 574.5,335.5C 574.5,336.5 574.5,337.5 574.5,338.5C 573.596,339.209 573.263,340.209 573.5,341.5C 571.167,341.5 568.833,341.5 566.5,341.5C 566.5,336.833 566.5,332.167 566.5,327.5C 563.5,327.5 560.5,327.5 557.5,327.5C 557.5,331.167 557.5,334.833 557.5,338.5C 557.5,340.167 557.5,341.833 557.5,343.5C 554.5,343.5 551.5,343.5 548.5,343.5C 548.507,334.776 549.173,326.109 550.5,317.5C 562.178,317.99 573.845,318.656 585.5,319.5 Z"/></g>
<g><path style="opacity:1" fill="#f8f8f8" d="M 233.5,314.5 C 234.159,344.852 233.492,374.852 231.5,404.5C 217.2,400.435 203.366,395.102 190,388.5C 189.5,363.836 189.333,339.169 189.5,314.5C 204.167,314.5 218.833,314.5 233.5,314.5 Z"/></g>
<g><path style="opacity:1" fill="#010101" d="M 230.5,318.5 C 230.5,337.5 230.5,356.5 230.5,375.5C 218.167,375.5 205.833,375.5 193.5,375.5C 193.5,365.833 193.5,356.167 193.5,346.5C 193.5,337.167 193.5,327.833 193.5,318.5C 205.833,318.5 218.167,318.5 230.5,318.5 Z"/></g>
<g><path style="opacity:1" fill="#4e4e4e" d="M 230.5,318.5 C 218.167,318.5 205.833,318.5 193.5,318.5C 193.5,327.833 193.5,337.167 193.5,346.5C 193.167,346.5 192.833,346.5 192.5,346.5C 192.5,336.833 192.5,327.167 192.5,317.5C 205.344,317.171 218.011,317.505 230.5,318.5 Z"/></g>
<g><path style="opacity:1" fill="#222222" d="M 164.5,302.5 C 164.833,302.5 165.167,302.5 165.5,302.5C 165.5,320.833 165.5,339.167 165.5,357.5C 165.817,360.572 165.484,363.572 164.5,366.5C 163.478,366.145 162.811,365.478 162.5,364.5C 164.488,344.194 165.155,323.527 164.5,302.5 Z"/></g>
<g><path style="opacity:1" fill="#4f4f4f" d="M 476.5,247.5 C 470.167,247.5 463.833,247.5 457.5,247.5C 457.5,290.167 457.5,332.833 457.5,375.5C 460.167,375.5 462.833,375.5 465.5,375.5C 462.713,376.477 459.713,376.81 456.5,376.5C 456.5,333.167 456.5,289.833 456.5,246.5C 463.354,246.176 470.021,246.509 476.5,247.5 Z"/></g>
<g><path style="opacity:1" fill="#7b7b7b" d="M 585.5,319.5 C 587.833,319.5 590.167,319.5 592.5,319.5C 592.815,323.371 592.482,327.038 591.5,330.5C 591.5,327.167 591.5,323.833 591.5,320.5C 589.265,320.795 587.265,320.461 585.5,319.5 Z"/></g>
<g><path style="opacity:1" fill="#181818" d="M 54.5,322.5 C 55.7868,323.871 56.4535,325.705 56.5,328C 56.3333,329.833 56.1667,331.667 56,333.5C 52.3333,332.167 48.6667,330.833 45,329.5C 44.8333,329.167 44.6667,328.833 44.5,328.5C 47.8875,326.478 51.2208,324.478 54.5,322.5 Z"/></g>
<g><path style="opacity:1" fill="#494949" d="M 453.5,232.5 C 452.838,283.844 453.504,334.844 455.5,385.5C 454.791,386.404 453.791,386.737 452.5,386.5C 452.168,334.997 452.501,283.664 453.5,232.5 Z"/></g>
<g><path style="opacity:1" fill="#3f3f3f" d="M 566.5,341.5 C 565.515,337.366 565.182,333.032 565.5,328.5C 563.208,328.244 561.041,328.577 559,329.5C 558.819,332.695 558.319,335.695 557.5,338.5C 557.5,334.833 557.5,331.167 557.5,327.5C 560.5,327.5 563.5,327.5 566.5,327.5C 566.5,332.167 566.5,336.833 566.5,341.5 Z"/></g>
<g><path style="opacity:1" fill="#666666" d="M 582.5,329.5 C 580.167,329.5 577.833,329.5 575.5,329.5C 575.795,331.735 575.461,333.735 574.5,335.5C 574.5,333.167 574.5,330.833 574.5,328.5C 577.385,328.194 580.052,328.527 582.5,329.5 Z"/></g>
<g><path style="opacity:1" fill="#929292" d="M 574.5,338.5 C 574.5,339.833 574.5,341.167 574.5,342.5C 571.615,342.806 568.948,342.473 566.5,341.5C 568.833,341.5 571.167,341.5 573.5,341.5C 573.263,340.209 573.596,339.209 574.5,338.5 Z"/></g>
<g><path style="opacity:1" fill="#acacac" d="M 582.5,340.5 C 582.5,341.833 582.5,343.167 582.5,344.5C 585.206,344.575 587.873,344.908 590.5,345.5C 587.656,346.551 584.656,346.551 581.5,345.5C 581.216,343.585 581.549,341.919 582.5,340.5 Z"/></g>
<g><path style="opacity:1" fill="#858585" d="M 168.5,322.5 C 169.827,339.005 169.827,355.671 168.5,372.5C 167.893,372.376 167.56,372.043 167.5,371.5C 168.496,355.342 168.83,339.009 168.5,322.5 Z"/></g>
<g><path style="opacity:1" fill="#6d6d6d" d="M 133.5,374.5 C 134.833,375.167 134.833,375.833 133.5,376.5C 123.167,376.5 112.833,376.5 102.5,376.5C 112.833,375.833 123.167,375.167 133.5,374.5 Z"/></g>
<g><path style="opacity:1" fill="#6d6d6d" d="M 192.5,346.5 C 192.833,346.5 193.167,346.5 193.5,346.5C 193.5,356.167 193.5,365.833 193.5,375.5C 205.833,375.5 218.167,375.5 230.5,375.5C 218.011,376.495 205.344,376.829 192.5,376.5C 192.5,366.5 192.5,356.5 192.5,346.5 Z"/></g>
<g><path style="opacity:1" fill="#656565" d="M 505.5,376.5 C 505.5,376.167 505.5,375.833 505.5,375.5C 511.167,375.5 516.833,375.5 522.5,375.5C 522.737,376.791 522.404,377.791 521.5,378.5C 516.604,376.554 511.271,375.887 505.5,376.5 Z"/></g>
<g><path style="opacity:1" fill="#fbfbfb" d="M 505.5,376.5 C 511.271,375.887 516.604,376.554 521.5,378.5C 491.318,461.84 432.652,512.006 345.5,529C 258.77,539.339 188.604,510.506 135,442.5C 120.695,422.223 109.862,400.223 102.5,376.5C 112.833,376.5 123.167,376.5 133.5,376.5C 135.607,377.468 137.941,377.802 140.5,377.5C 150.068,384.022 158.901,391.355 167,399.5C 168.287,415.1 168.954,430.766 169,446.5C 173.685,455.017 180.185,461.684 188.5,466.5C 188.837,447.977 189.837,429.644 191.5,411.5C 201.593,415.378 211.593,419.545 221.5,424C 230.72,422.89 235.053,426.89 234.5,436C 233.587,454.821 233.254,473.654 233.5,492.5C 239.699,495.013 246.032,497.346 252.5,499.5C 253.333,479.508 253.833,459.508 254,439.5C 254.311,437.444 254.811,435.444 255.5,433.5C 258.74,433.024 262.073,433.024 265.5,433.5C 266.157,456.931 266.824,480.264 267.5,503.5C 272.32,505.249 277.32,506.249 282.5,506.5C 283.919,507.451 285.585,507.784 287.5,507.5C 287.5,484.167 287.5,460.833 287.5,437.5C 301.824,438.143 316.158,438.476 330.5,438.5C 330.5,461.5 330.5,484.5 330.5,507.5C 332.735,507.795 334.735,507.461 336.5,506.5C 339.206,506.425 341.873,506.092 344.5,505.5C 347.167,505.5 349.833,505.5 352.5,505.5C 352.5,482.5 352.5,459.5 352.5,436.5C 356.099,435.656 359.766,435.323 363.5,435.5C 363.167,457.51 363.5,479.51 364.5,501.5C 365.107,501.376 365.44,501.043 365.5,500.5C 371.618,499.138 377.618,497.471 383.5,495.5C 384.08,491.19 384.414,486.857 384.5,482.5C 385.332,466.005 385.832,449.338 386,432.5C 388.607,431.877 391.107,431.21 393.5,430.5C 404.771,426.965 416.105,423.632 427.5,420.5C 429.167,420.5 430.833,420.5 432.5,420.5C 432.167,435.848 432.501,451.181 433.5,466.5C 434.107,466.376 434.44,466.043 434.5,465.5C 441.123,460.38 447.289,454.713 453,448.5C 453.167,435.154 453.667,421.821 454.5,408.5C 472.551,400.663 488.218,389.663 501.5,375.5C 502.151,374.909 502.818,374.243 503.5,373.5C 504.176,374.602 504.842,375.602 505.5,376.5 Z"/></g>
<g><path style="opacity:1" fill="#8c8c8c" d="M 233.5,314.5 C 234.498,344.662 234.831,374.995 234.5,405.5C 233.209,405.737 232.209,405.404 231.5,404.5C 233.492,374.852 234.159,344.852 233.5,314.5 Z"/></g>
<g><path style="opacity:1" fill="#424242" d="M 387.5,411.5 C 386.432,412.434 385.099,412.768 383.5,412.5C 383.83,396.991 383.496,381.658 382.5,366.5C 382.783,365.711 383.283,365.044 384,364.5C 384.5,380.163 384.667,395.83 384.5,411.5C 385.5,411.5 386.5,411.5 387.5,411.5 Z"/></g>
<g><path style="opacity:1" fill="#0a0c0b" d="M 370.5,225.5 C 375.202,228.893 377.869,233.559 378.5,239.5C 382.077,238.214 385.744,237.214 389.5,236.5C 398.307,237.313 400.641,241.646 396.5,249.5C 393.145,253.187 389.811,256.853 386.5,260.5C 385.957,260.56 385.624,260.893 385.5,261.5C 392.468,262.497 399.468,262.83 406.5,262.5C 406.5,265.167 406.5,267.833 406.5,270.5C 401.825,272.009 397.159,273.842 392.5,276C 390.004,277.331 388.004,279.164 386.5,281.5C 376.537,290.648 373.037,301.981 376,315.5C 384.922,339.363 380.422,360.196 362.5,378C 354.833,383.667 347.167,389.333 339.5,395C 331.333,403.833 323.167,412.667 315,421.5C 302.659,405.486 288.159,391.986 271.5,381C 255.266,367.64 248.432,350.473 251,329.5C 253.779,322.269 255.279,314.769 255.5,307C 255.528,303.41 255.028,299.91 254,296.5C 247.915,283.254 237.748,274.92 223.5,271.5C 223.5,267.833 223.5,264.167 223.5,260.5C 230.863,260.831 238.197,260.497 245.5,259.5C 243.144,257.31 240.644,255.31 238,253.5C 228.028,237.462 232.028,232.795 250,239.5C 250.833,239.167 251.667,238.833 252.5,238.5C 254.186,226.986 260.853,221.652 272.5,222.5C 283.649,226.36 293.983,224.86 303.5,218C 307.029,214.137 310.862,210.637 315,207.5C 320.48,212.31 325.98,217.143 331.5,222C 335.102,223.146 338.769,223.979 342.5,224.5C 351.977,222.842 361.311,223.175 370.5,225.5 Z"/></g>
<g><path style="opacity:1" fill="#8a8c8b" d="M 281.5,304.5 C 281.59,307.152 280.924,309.485 279.5,311.5C 279.41,308.848 280.076,306.515 281.5,304.5 Z"/></g>
<g><path style="opacity:1" fill="#868787" d="M 280.5,292.5 C 282.833,292.5 285.167,292.5 287.5,292.5C 287.737,293.791 287.404,294.791 286.5,295.5C 284.844,293.94 282.844,292.94 280.5,292.5 Z"/></g>
<g><path style="opacity:1" fill="#5a5c5b" d="M 322.5,256.5 C 322.199,264.586 322.533,272.586 323.5,280.5C 322.176,276.893 321.509,272.893 321.5,268.5C 321.501,264.319 321.834,260.319 322.5,256.5 Z"/></g>
<g><path style="opacity:1" fill="#777877" d="M 311.5,256.5 C 312.492,264.316 312.826,272.316 312.5,280.5C 311.5,280.5 310.5,280.5 309.5,280.5C 311.418,272.772 312.085,264.772 311.5,256.5 Z"/></g>
<g><path style="opacity:1" fill="#969696" d="M 322.5,245.5 C 322.5,246.833 322.5,248.167 322.5,249.5C 326.371,249.185 330.038,249.518 333.5,250.5C 329.5,250.5 325.5,250.5 321.5,250.5C 321.216,248.585 321.549,246.919 322.5,245.5 Z"/></g>
<g><path style="opacity:1" fill="#949494" d="M 311.5,244.5 C 311.833,244.5 312.167,244.5 312.5,244.5C 312.5,246.5 312.5,248.5 312.5,250.5C 308.5,250.5 304.5,250.5 300.5,250.5C 303.962,249.518 307.629,249.185 311.5,249.5C 311.5,247.833 311.5,246.167 311.5,244.5 Z"/></g>
<g><path style="opacity:1" fill="#f3f3f3" d="M 322.5,241.5 C 323.338,241.842 323.672,242.508 323.5,243.5C 323.167,244.167 322.833,244.833 322.5,245.5C 321.549,246.919 321.216,248.585 321.5,250.5C 325.5,250.5 329.5,250.5 333.5,250.5C 336.124,252.198 336.124,254.031 333.5,256C 329.848,256.499 326.182,256.665 322.5,256.5C 321.834,260.319 321.501,264.319 321.5,268.5C 321.509,272.893 322.176,276.893 323.5,280.5C 330.588,281.691 336.754,284.691 342,289.5C 342.333,287.833 342.667,286.167 343,284.5C 347.833,280.333 352.667,276.167 357.5,272C 361.613,269.003 365.78,268.836 370,271.5C 370.706,273.971 370.373,276.305 369,278.5C 363.969,283.922 358.469,288.755 352.5,293C 350.5,293.333 348.5,293.667 346.5,294C 353.846,302.894 356.346,313.061 354,324.5C 352.03,330.437 349.53,336.104 346.5,341.5C 348.536,345.387 351.536,347.887 355.5,349C 362.955,342.165 367.288,333.665 368.5,323.5C 373.206,329.768 374.872,336.768 373.5,344.5C 372.264,343.754 370.93,343.421 369.5,343.5C 368.475,348.528 366.142,352.861 362.5,356.5C 364.221,359.297 366.387,361.631 369,363.5C 369.494,365.134 369.66,366.801 369.5,368.5C 365.528,367.051 362.194,364.551 359.5,361C 358.167,360.333 356.833,360.333 355.5,361C 342.126,369.538 329.46,379.038 317.5,389.5C 312.02,385.188 306.687,380.688 301.5,376C 292.713,370.867 284.213,365.367 276,359.5C 272.882,361.615 270.048,364.115 267.5,367C 264.062,369.367 262.562,368.534 263,364.5C 265.9,361.6 268.733,358.767 271.5,356C 268.131,351.435 265.131,346.601 262.5,341.5C 261.675,340.614 260.675,340.281 259.5,340.5C 259.334,336.486 259.501,332.486 260,328.5C 260.473,326.221 261.473,324.221 263,322.5C 265.312,332.635 270.146,341.301 277.5,348.5C 281.5,347.78 284.833,345.446 287.5,341.5C 280.786,332.646 278.119,322.646 279.5,311.5C 280.924,309.485 281.59,307.152 281.5,304.5C 282.41,301.008 284.076,298.008 286.5,295.5C 287.404,294.791 287.737,293.791 287.5,292.5C 285.167,292.5 282.833,292.5 280.5,292.5C 274.264,288.108 268.43,283.108 263,277.5C 262,270.837 264.834,268.337 271.5,270C 277.953,274.452 284.12,279.285 290,284.5C 290.246,290.634 292.079,291.134 295.5,286C 299.863,283.316 304.53,281.482 309.5,280.5C 310.5,280.5 311.5,280.5 312.5,280.5C 312.826,272.316 312.492,264.316 311.5,256.5C 307.445,256.824 303.445,256.491 299.5,255.5C 297.991,253.38 298.324,251.713 300.5,250.5C 304.5,250.5 308.5,250.5 312.5,250.5C 312.5,248.5 312.5,246.5 312.5,244.5C 313.167,244.167 313.833,243.833 314.5,243.5C 317.421,243.717 320.087,243.051 322.5,241.5 Z"/></g>
<g><path style="opacity:1" fill="#828282" d="M 311.5,354.5 C 312.461,356.265 312.795,358.265 312.5,360.5C 310.585,360.784 308.919,360.451 307.5,359.5C 308.833,359.5 310.167,359.5 311.5,359.5C 311.5,357.833 311.5,356.167 311.5,354.5 Z"/></g>
<g><path style="opacity:1" fill="#626262" d="M 291.5,356.5 C 294.152,356.41 296.485,357.076 298.5,358.5C 295.848,358.59 293.515,357.924 291.5,356.5 Z"/></g>
<g><path style="opacity:1" fill="#0e0e0e" d="M 311.5,354.5 C 311.5,356.167 311.5,357.833 311.5,359.5C 310.167,359.5 308.833,359.5 307.5,359.5C 304.518,359.037 301.518,358.704 298.5,358.5C 296.485,357.076 294.152,356.41 291.5,356.5C 288.577,355.705 285.91,354.372 283.5,352.5C 285.534,349.631 288.034,347.298 291,345.5C 295.068,348.119 299.234,350.619 303.5,353C 306.063,354.079 308.729,354.579 311.5,354.5 Z"/></g>
<g><path style="opacity:1" fill="#111111" d="M 341.5,345.5 C 345.87,346.536 348.536,349.203 349.5,353.5C 340.624,357.341 331.291,359.341 321.5,359.5C 321.5,357.833 321.5,356.167 321.5,354.5C 329.209,353.642 335.876,350.642 341.5,345.5 Z"/></g>
<g><path style="opacity:1" fill="#636363" d="M 307.5,341.5 C 312.463,342.254 317.463,342.587 322.5,342.5C 318.354,343.647 314.02,343.814 309.5,343C 308.584,342.722 307.918,342.222 307.5,341.5 Z"/></g>
<g><path style="opacity:1" fill="#0e0f0e" d="M 322.5,342.5 C 317.463,342.587 312.463,342.254 307.5,341.5C 301.665,339.669 297.331,336.002 294.5,330.5C 286.92,313.168 291.586,300.335 308.5,292C 331.585,289.427 342.751,299.593 342,322.5C 339.324,333.008 332.824,339.675 322.5,342.5 Z"/></g>
<g><path style="opacity:1" fill="#eff1f0" d="M 330.5,325.5 C 330.703,327.39 330.037,328.89 328.5,330C 325.167,330.167 321.833,330.333 318.5,330.5C 314.761,330.486 311.428,329.82 308.5,328.5C 308.5,327.167 308.5,325.833 308.5,324.5C 316.019,324.175 323.352,324.508 330.5,325.5 Z"/></g>
<g><path style="opacity:1" fill="#7e807f" d="M 330.5,325.5 C 323.352,324.508 316.019,324.175 308.5,324.5C 308.5,325.833 308.5,327.167 308.5,328.5C 307.549,327.081 307.216,325.415 307.5,323.5C 315.528,323.169 323.528,323.502 331.5,324.5C 331.376,325.107 331.043,325.44 330.5,325.5 Z"/></g>
<g><path style="opacity:1" fill="#868686" d="M 296.5,320.5 C 301.305,321.487 306.305,321.821 311.5,321.5C 306.32,322.815 300.986,322.815 295.5,321.5C 295.624,320.893 295.957,320.56 296.5,320.5 Z"/></g>
<g><path style="opacity:1" fill="#a4a5a4" d="M 317.5,297.5 C 317.56,296.957 317.893,296.624 318.5,296.5C 319.819,303.656 319.819,310.656 318.5,317.5C 318.824,310.646 318.491,303.979 317.5,297.5 Z"/></g>
<g><path style="opacity:1" fill="#eaeaea" d="M 320.5,301.5 C 328.573,305.604 333.239,312.271 334.5,321.5C 329.833,321.5 325.167,321.5 320.5,321.5C 320.5,314.833 320.5,308.167 320.5,301.5 Z"/></g>
<g><path style="opacity:1" fill="#f5f5f5" d="M 317.5,297.5 C 318.491,303.979 318.824,310.646 318.5,317.5C 318.67,318.822 318.337,319.989 317.5,321C 315.527,321.495 313.527,321.662 311.5,321.5C 306.305,321.821 301.305,321.487 296.5,320.5C 301.791,311.212 308.791,303.545 317.5,297.5 Z"/></g>
<g><path style="opacity:1" fill="#d5d7d6" d="M 323.5,243.5 C 323.672,242.508 323.338,241.842 322.5,241.5C 324.177,234.056 321.177,230.889 313.5,232C 310.681,236.101 311.014,239.935 314.5,243.5C 313.833,243.833 313.167,244.167 312.5,244.5C 312.167,244.5 311.833,244.5 311.5,244.5C 305.903,238.741 306.236,233.241 312.5,228C 322.557,226.416 327.057,230.582 326,240.5C 325.623,241.942 324.79,242.942 323.5,243.5 Z"/></g>
<g><path style="opacity:1" fill="#0c0d0d" d="M 322.5,241.5 C 320.087,243.051 317.421,243.717 314.5,243.5C 311.014,239.935 310.681,236.101 313.5,232C 321.177,230.889 324.177,234.056 322.5,241.5 Z"/></g>
<g><path style="opacity:1" fill="#afafaf" d="M 286.5,403.5 C 287.482,406.962 287.815,410.629 287.5,414.5C 289.786,414.595 291.786,415.262 293.5,416.5C 291.139,416.326 288.806,415.993 286.5,415.5C 286.5,411.5 286.5,407.5 286.5,403.5 Z"/></g>
<g><path style="opacity:1" fill="#595959" d="M 191.5,411.5 C 189.837,429.644 188.837,447.977 188.5,466.5C 188.5,447.833 188.5,429.167 188.5,410.5C 189.791,410.263 190.791,410.596 191.5,411.5 Z"/></g>
<g><path style="opacity:1" fill="#b7b7b7" d="M 393.5,430.5 C 391.107,431.21 388.607,431.877 386,432.5C 385.832,449.338 385.332,466.005 384.5,482.5C 384.5,465.167 384.5,447.833 384.5,430.5C 387.5,430.5 390.5,430.5 393.5,430.5 Z"/></g>
<g><path style="opacity:1" fill="#838383" d="M 363.5,435.5 C 364.167,457.167 364.833,478.833 365.5,500.5C 365.44,501.043 365.107,501.376 364.5,501.5C 363.5,479.51 363.167,457.51 363.5,435.5 Z"/></g>
<g><path style="opacity:1" fill="#a3a3a3" d="M 427.5,420.5 C 429.265,419.539 431.265,419.205 433.5,419.5C 433.17,435.009 433.504,450.342 434.5,465.5C 434.44,466.043 434.107,466.376 433.5,466.5C 432.501,451.181 432.167,435.848 432.5,420.5C 430.833,420.5 429.167,420.5 427.5,420.5 Z"/></g>
<g><path style="opacity:1" fill="#b7b7b7" d="M 287.5,437.5 C 287.5,460.833 287.5,484.167 287.5,507.5C 285.585,507.784 283.919,507.451 282.5,506.5C 283.833,506.5 285.167,506.5 286.5,506.5C 286.169,483.327 286.502,460.327 287.5,437.5 Z"/></g>
<g><path style="opacity:1" fill="#242424" d="M 265.5,433.5 C 267.49,456.476 268.157,479.809 267.5,503.5C 266.824,480.264 266.157,456.931 265.5,433.5 Z"/></g>
<g><path style="opacity:1" fill="#d4d4d4" d="M 330.5,438.5 C 331.497,460.994 331.831,483.661 331.5,506.5C 333.167,506.5 334.833,506.5 336.5,506.5C 334.735,507.461 332.735,507.795 330.5,507.5C 330.5,484.5 330.5,461.5 330.5,438.5 Z"/></g>
<g><path style="opacity:1" fill="#575757" d="M 352.5,436.5 C 352.5,459.5 352.5,482.5 352.5,505.5C 349.833,505.5 347.167,505.5 344.5,505.5C 346.607,504.532 348.941,504.198 351.5,504.5C 351.169,481.661 351.503,458.994 352.5,436.5 Z"/></g>
<g><path style="opacity:1" fill="#eeeeee" d="M 167.5,517.5 C 173.99,520.002 179.824,523.669 185,528.5C 185.667,531.167 185.667,533.833 185,536.5C 182.533,538.802 179.7,540.469 176.5,541.5C 179.969,549.558 177.302,554.558 168.5,556.5C 161.65,555.075 155.65,552.075 150.5,547.5C 156.179,537.473 161.845,527.473 167.5,517.5 Z"/></g>
<g><path style="opacity:1" fill="#efefef" d="M 437.5,521.5 C 441.967,521.133 446.3,521.633 450.5,523C 451.701,523.903 452.535,525.069 453,526.5C 453.141,530.589 453.308,534.589 453.5,538.5C 457.953,540.226 462.286,542.226 466.5,544.5C 467.521,545.002 467.688,545.668 467,546.5C 464.902,548.049 462.568,549.049 460,549.5C 455.199,547.765 450.533,545.765 446,543.5C 445.5,543.833 445,544.167 444.5,544.5C 446.633,547.935 448.633,551.435 450.5,555C 448.822,557.668 446.489,559.001 443.5,559C 437.717,549.271 432.05,539.438 426.5,529.5C 430.019,526.579 433.686,523.913 437.5,521.5 Z"/></g>
<g><path style="opacity:1" fill="#191919" d="M 171.5,526.5 C 176.5,527.156 178.167,529.822 176.5,534.5C 168.277,536.059 166.61,533.392 171.5,526.5 Z"/></g>
<g><path style="opacity:1" fill="#181818" d="M 439.5,527.5 C 444.772,527.608 446.939,530.275 446,535.5C 444.938,536.899 443.605,537.899 442,538.5C 440.049,536.102 438.215,533.602 436.5,531C 437.071,529.401 438.071,528.234 439.5,527.5 Z"/></g>
<g><path style="opacity:1" fill="#eeeeee" d="M 193.5,534.5 C 204.407,532.591 212.24,536.591 217,546.5C 219.248,559.183 214.415,567.683 202.5,572C 192.136,573.399 184.969,569.233 181,559.5C 179.323,548.187 183.49,539.854 193.5,534.5 Z"/></g>
<g><path style="opacity:1" fill="#1d1d1d" d="M 163.5,538.5 C 166.343,539.172 168.843,540.505 171,542.5C 171.34,547.822 168.84,549.989 163.5,549C 162.313,547.981 161.313,546.814 160.5,545.5C 161.788,543.261 162.788,540.928 163.5,538.5 Z"/></g>
<g><path style="opacity:1" fill="#0d0d0d" d="M 196.5,542.5 C 201.06,541.658 204.727,542.991 207.5,546.5C 210.301,554.118 208.301,559.952 201.5,564C 191.519,564.333 187.685,559.5 190,549.5C 191.694,546.642 193.861,544.309 196.5,542.5 Z"/></g>
<g><path style="opacity:1" fill="#ebebeb" d="M 363.5,579.5 C 364.924,577.485 365.59,575.152 365.5,572.5C 366.407,564.54 368.407,556.873 371.5,549.5C 379.493,558.997 387.326,568.664 395,578.5C 395.274,581.487 393.774,582.821 390.5,582.5C 388.172,581.211 385.839,579.878 383.5,578.5C 379.294,580.126 374.96,581.126 370.5,581.5C 370.167,583.5 369.833,585.5 369.5,587.5C 366.833,588.167 364.167,588.833 361.5,589.5C 362.04,586.135 362.706,582.802 363.5,579.5 Z"/></g>
<g><path style="opacity:1" fill="#f3f3f3" d="M 352.5,562.5 C 352.473,572.072 352.473,581.738 352.5,591.5C 350.167,591.5 347.833,591.5 345.5,591.5C 345.585,582.105 344.918,572.771 343.5,563.5C 339.481,563.646 335.481,563.979 331.5,564.5C 331.5,562.167 331.5,559.833 331.5,557.5C 341.883,556.495 352.217,555.162 362.5,553.5C 362.5,556.167 362.5,558.833 362.5,561.5C 359.193,562.051 355.86,562.384 352.5,562.5 Z"/></g>
<g><path style="opacity:1" fill="#ececec" d="M 413.5,534.5 C 426.281,534.217 430.281,540.05 425.5,552C 430.142,555.659 435.142,558.825 440.5,561.5C 438.046,563.127 435.38,564.46 432.5,565.5C 427.599,563.271 422.933,560.605 418.5,557.5C 418.167,557.833 417.833,558.167 417.5,558.5C 419.72,562.595 421.053,566.928 421.5,571.5C 419.173,571.247 417.173,571.914 415.5,573.5C 410.5,562.833 405.5,552.167 400.5,541.5C 404.446,538.362 408.779,536.028 413.5,534.5 Z"/></g>
<g><path style="opacity:1" fill="#151515" d="M 412.5,541.5 C 420.888,541.362 422.554,544.529 417.5,551C 416.056,551.781 414.723,551.614 413.5,550.5C 412.783,548.172 411.783,546.005 410.5,544C 411.056,542.989 411.722,542.156 412.5,541.5 Z"/></g>
<g><path style="opacity:1" fill="#f0f0f0" d="M 291.5,558.5 C 292.551,559.222 293.218,560.222 293.5,561.5C 286.76,571.972 280.26,582.639 274,593.5C 271.782,586.343 269.282,579.343 266.5,572.5C 266.59,569.848 265.924,567.515 264.5,565.5C 263.963,562.357 262.963,559.357 261.5,556.5C 264.106,555.348 266.773,555.182 269.5,556C 272.213,562.346 274.547,568.846 276.5,575.5C 279.467,570.187 282.467,564.853 285.5,559.5C 287.396,558.534 289.396,558.201 291.5,558.5 Z"/></g>
<g><path style="opacity:1" fill="#ededed" d="M 314.5,557.5 C 319.214,557.353 323.881,557.686 328.5,558.5C 328.813,561.247 328.48,563.914 327.5,566.5C 324.123,564.675 320.457,564.008 316.5,564.5C 316.261,566.467 316.594,568.301 317.5,570C 322.59,571.958 327.09,574.792 331,578.5C 333.659,586.68 330.826,592.18 322.5,595C 318.1,595.978 313.933,595.478 310,593.5C 309.333,590.833 309.333,588.167 310,585.5C 313.992,587.27 318.159,587.77 322.5,587C 324.028,584.119 323.362,581.786 320.5,580C 316.581,578.46 313.081,576.293 310,573.5C 306.835,566.6 308.335,561.267 314.5,557.5 Z"/></g>
<g><path style="opacity:1" fill="#f4f4f4" d="M 303.5,566.5 C 303.566,575.852 303.232,585.185 302.5,594.5C 299.833,594.5 297.167,594.5 294.5,594.5C 294.5,589.167 294.5,583.833 294.5,578.5C 295.49,572.355 295.823,566.022 295.5,559.5C 298.167,559.5 300.833,559.5 303.5,559.5C 303.5,561.833 303.5,564.167 303.5,566.5 Z"/></g>
<g><path style="opacity:1" fill="#e9e9e9" d="M 234.5,547.5 C 236.397,549.269 237.564,551.602 238,554.5C 240.012,565.545 242.179,576.545 244.5,587.5C 241.834,587.067 239.168,586.567 236.5,586C 235.577,583.959 235.244,581.792 235.5,579.5C 230.866,579.073 226.366,578.073 222,576.5C 220,577.833 218,579.167 216,580.5C 213.863,579.923 211.696,579.59 209.5,579.5C 209.351,578.448 209.517,577.448 210,576.5C 218.658,567.142 226.824,557.475 234.5,547.5 Z"/></g>
<g><path style="opacity:1" fill="#171717" d="M 230.5,562.5 C 231.586,562.62 232.253,563.287 232.5,564.5C 233.269,567.115 233.603,569.781 233.5,572.5C 230.833,572.167 228.167,571.833 225.5,571.5C 226.693,568.289 228.359,565.289 230.5,562.5 Z"/></g>
<g><path style="opacity:1" fill="#191919" d="M 373.5,564.5 C 376.446,566.457 378.779,569.124 380.5,572.5C 378.067,574.054 375.4,574.72 372.5,574.5C 372.342,571.098 372.676,567.764 373.5,564.5 Z"/></g>
<g><path style="opacity:1" fill="#ebebeb" d="M 402.5,562.5 C 403.496,562.414 404.329,562.748 405,563.5C 405.813,565.436 406.313,567.436 406.5,569.5C 402.058,570.121 397.725,571.121 393.5,572.5C 393.302,570.425 393.135,568.425 393,566.5C 396.139,564.85 399.306,563.517 402.5,562.5 Z"/></g>
<g><path style="opacity:1" fill="#7c7c7c" d="M 291.5,558.5 C 295.833,558.5 300.167,558.5 304.5,558.5C 304.806,561.385 304.473,564.052 303.5,566.5C 303.5,564.167 303.5,561.833 303.5,559.5C 300.833,559.5 298.167,559.5 295.5,559.5C 295.823,566.022 295.49,572.355 294.5,578.5C 294.822,572.642 294.489,566.975 293.5,561.5C 293.218,560.222 292.551,559.222 291.5,558.5 Z"/></g>
<g><path style="opacity:1" fill="#5c5c5c" d="M 264.5,565.5 C 265.924,567.515 266.59,569.848 266.5,572.5C 265.076,570.485 264.41,568.152 264.5,565.5 Z"/></g>
<g><path style="opacity:1" fill="#9e9e9e" d="M 352.5,562.5 C 352.79,570.195 353.456,577.862 354.5,585.5C 354.461,587.952 353.794,589.952 352.5,591.5C 352.473,581.738 352.473,572.072 352.5,562.5 Z"/></g>
<g><path style="opacity:1" fill="#7a7a7a" d="M 365.5,572.5 C 365.59,575.152 364.924,577.485 363.5,579.5C 363.41,576.848 364.076,574.515 365.5,572.5 Z"/></g>
<g><path style="opacity:1" fill="#3c3c3c" d="M 294.5,578.5 C 294.5,583.833 294.5,589.167 294.5,594.5C 297.167,594.5 299.833,594.5 302.5,594.5C 299.713,595.477 296.713,595.81 293.5,595.5C 293.178,589.642 293.511,583.975 294.5,578.5 Z"/></g>
</svg>
