<?xml version="1.0" encoding="utf-8"?>
<!-- Generator: Adobe Illustrator 26.4.1, SVG Export Plug-In . SVG Version: 6.00 Build 0)  -->
<svg version="1.1" id="Layer_1" xmlns="http://www.w3.org/2000/svg" xmlns:xlink="http://www.w3.org/1999/xlink" x="0px" y="0px"
	 viewBox="0 0 65 65" style="enable-background:new 0 0 65 65;" xml:space="preserve">
<style type="text/css">
	.st0{fill:#00406B;}
	.st1{fill:#00623A;}
	.st2{fill:#FFFFFF;}
	.st3{fill:#EEBD1F;}
	.st4{fill:#065DA2;}
</style>
<g>
	<g>
		<path class="st0" d="M12.2,31.1c-0.3-0.3-0.6-0.6-0.9-0.8c-0.2-0.2-1.1-0.7-1.3-0.9c-2.3-1.4-4.7-3.2-4.6-6.6
			c-0.2,1.4-0.3,2.6-0.1,4.1c0.2,1.5,0.7,2.9,2.1,4.5c0.1,0.1,0.2,0.2,0.3,0.3c0.6,0.5,2.5,2.6,5.3,2.8c0.1-0.2,0.2-0.3,0.2-0.6
			c0-0.2,0.2-0.6-0.1-1.4C13.2,32.4,12.9,31.7,12.2,31.1 M13.6,17.7c-0.4,0.6-0.7,1.1-0.9,1.7l0,0c0.1,0.2,0.3,0.5,0.4,0.8
			c0.1,0.1,0.2,0.5,0.2,0.6s0,0.3,0.1,0.4c0,0.1,0,0.4,0,0.4v0.1c0,0.2-0.1,0.4-0.1,0.6c-0.2,0.5-0.6,0.9-1.2,1.3
			c0.5,0.2,1.2,0.8,1.4,1.4c0,0.1,0.1,0.1,0.1,0.2c0-0.2,0.1-0.5,0.1-0.7c0.4-1.5,0.7-3.7,2.5-5.1c2.4-2,5.3-0.8,6.5,0.3
			c0.2,0.1,0.3,0.3,0.4,0.5c-0.3-0.5-0.7-0.9-1.1-1.4c-1-1.1-2.2-2.1-3.6-2.6c-0.8-0.3-1.6-0.3-2.5-0.1C15,16.5,14.1,16.9,13.6,17.7
			z M9.7,18c0.9,0,1.6,0.3,2,0.6c0.8-1.7,2.4-2.9,4.6-2.9c-1.8-0.4-3.6,0-5.3,0.8c-0.8,0.4-1.5,0.9-1.9,1.3c0,0-0.1,0.2-0.2,0.2
			C9,18,9,18,9.1,18C9.3,18,9.5,18,9.7,18z M13.1,27.5c0.1-0.5,0.2-1.4-0.1-2.2c-0.4-0.9-1.5-1.4-2.2-1.5c-0.5-0.1-0.9-0.1-1.1-0.3
			c-0.4-0.3-0.3-0.7-0.3-0.9c0-0.1-0.1-0.2-0.2-0.4c-0.1-1,0.6-1.5,0.9-1.6c0.2-0.1,0.4-0.1,0.6-0.1c0.1,0,0.1,0.1,0.1,0.1v0.1l0,0
			l0,0c0.1,0,0.2,0.4,0.5,0.6c0.2,0.1,0.8,0.2,0.8,0.9c0,0.5-0.3,1.3-0.3,1.3s0.5-0.3,0.9-0.8c0.8-1.3-0.1-3.1-1.1-3.7
			c-0.5-0.4-1.3-0.7-2.4-0.5c-0.8,0.1-1.5,0.4-2.2,1c-0.2,0.1-0.5,0.6-0.8,1.1C6,20.7,5.9,20.8,5.9,21c-0.1,0.1-0.2,0.6-0.2,0.7
			c-0.1,0.3-0.1,0.7,0,1.1c0.1,0.7,0.2,1.3,0.4,1.8c0.3,1,0.9,1.9,1.8,2.6c0.4,0.3,0.9,0.7,1.8,1.3c3,2,5.6,4,4,6.1
			c2.2-1.1,1.5-3.7,0.6-5.4C13.6,28.2,13,27.5,13.1,27.5z M9.1,19.4c0.1-0.1,0.3-0.4,0.7-0.3c0.2,0.1,0.3,0.2,0.2,0.4
			c0,0.2-0.1,0.3-0.3,0.3c-0.3,0.1-0.6-0.1-0.7-0.2c-0.1-0.1-0.2-0.1-0.2-0.1S9,19.5,9.1,19.4z M23.4,21.7c-0.5-0.7-1.2-1.2-2.1-1.5
			c-3.8-1.1-6.5,1.8-7,5.4c0,0.1-0.1,1.3-0.5,2.2c0.1,0.1,0.5,0.7,0.8,1.2s0.5,1.1,0.6,1.4c0.4-0.5,0.8-1.6,0.8-1.8
			c0.6-2.2,0.3-4.4,2.9-5.6c0.5-0.3,1.6-0.4,2.6-0.1c0.9,0.3,1.5,0.7,1.9,1.1c0.8,0.8,0.9,2.1,0.9,2.1
			C24.4,24.4,24.2,22.8,23.4,21.7z M10.8,21.3c-0.1-0.1-0.1-0.4-0.2-0.6l0,0c-0.1,0-0.2,0-0.2,0.1c-0.1,0-0.2,0.1-0.2,0.2
			c-0.1,0.2-1,0.3-0.8,1.5c0.1,0.3,0.9,0.7,1.7,0c0.2-0.2,0.6-0.3,0.5-0.7C11.4,21.3,10.9,21.5,10.8,21.3z M9.7,19.7
			c0.1,0,0.2-0.1,0.2-0.2s-0.1-0.2-0.2-0.2c-0.1,0-0.2,0.1-0.2,0.2C9.4,19.6,9.5,19.7,9.7,19.7z"/>
		<path class="st1" d="M23.9,26c-0.1-0.4-0.3-1.7-2.3-2.6c-0.4-0.2-0.9-0.4-1.6-0.3c-0.1,0-0.1,0-0.1,0c-1,0.3-1.7,0.7-2.2,1.2
			c2.6-0.6,6.5,1.2,5.9,4.4c0,0,0.3-0.7,0.3-1.3C24,27,24,26.4,23.9,26 M17.1,25.4c-0.1,0.3-0.2,0.5-0.2,0.6
			c-0.1,0.2-0.2,0.8-0.2,1.1c4.3-0.5,5.3,3,3.4,5.6c-0.3,0.5-0.8,0.9-1.3,1.2c0,0,1.8-0.6,3.3-2.4c0.2-0.3,1.4-2,0.5-3.8
			C21.5,25.7,19.1,24.9,17.1,25.4z M18.6,29.2c-0.5-0.5-1.1-0.9-2.2-1c0,0.6-0.5,1.8-0.8,2.3c0.3-0.1,0.7,0,0.9,0.1
			c0.1,0,0.1,0.1,0.2,0.1c0.3,0.2,0.4,0.4,0.4,0.6c0.1,0.2,0.1,0.3,0.1,0.5c0,0.7-0.3,1.8-1.7,2.5c-0.4,0.2-0.9,0.3-0.9,0.3
			s2.6,0.4,4-2C19.4,31.6,19.6,30.1,18.6,29.2z"/>
		<path class="st2" d="M9.7,19.9c0.1,0,0.1,0,0.2-0.1c0.1-0.1,0.3-0.2,0.3-0.3c0,0,0,0,0-0.1s-0.1-0.3-0.3-0.4
			c-0.1,0-0.2-0.1-0.3-0.1c-0.3,0-0.5,0.3-0.5,0.3C9,19.3,9,19.3,9,19.3H8.9l0,0c0,0,0.1,0.1,0.2,0.1C9.2,19.8,9.4,19.9,9.7,19.9
			 M9.7,19.2c0.1,0,0.2,0.1,0.2,0.2s-0.1,0.2-0.2,0.2c-0.1,0-0.2-0.1-0.2-0.2C9.4,19.3,9.5,19.2,9.7,19.2z M14.7,15.2
			c-5.5,0-9.9,4.4-9.9,9.9S9.2,35,14.7,35s9.9-4.4,9.9-9.9S20.1,15.2,14.7,15.2z M18.3,16.4c1.4,0.5,2.6,1.5,3.6,2.6
			c0.3,0.3,0.5,0.6,0.7,0.9c0,0,0,0-0.1-0.1c-0.7-0.7-2.1-1.4-3.6-1.4c-1,0-2,0.3-2.9,1.1c-1.8,1.4-2.1,3.7-2.5,5.2
			c-0.1,0.2-0.1,0.3-0.1,0.5c0,0,0,0,0-0.1c-0.2-0.5-0.8-1.1-1.3-1.3c0.5-0.4,0.9-0.8,1.1-1.3c0.1-0.2,0.1-0.4,0.1-0.6
			c0-0.1,0-0.1,0-0.1s0-0.1,0-0.2s0-0.2,0-0.2c0-0.1,0-0.3-0.1-0.4c0-0.1-0.1-0.5-0.2-0.6c-0.1-0.3-0.3-0.6-0.4-0.8
			c0.2-0.6,0.5-1.1,0.9-1.7c0.5-0.8,1.4-1.2,2.2-1.4c0.4-0.1,0.7-0.1,1.1-0.1C17.4,16.2,17.9,16.3,18.3,16.4z M9.2,17.8
			c0.4-0.4,1.1-0.9,1.9-1.3c1.2-0.6,2.5-0.9,3.8-0.9c0.3,0,0.7,0,1.1,0.1c-2,0.1-3.4,1.3-4.2,2.8c-0.5-0.3-1.1-0.6-2-0.6l0,0
			c-0.2,0-0.4,0-0.6,0H9.1C9.1,17.9,9.2,17.9,9.2,17.8z M13.3,33.9c-0.1,0.2-0.1,0.4-0.2,0.6c-2.7-0.2-4.7-2.3-5.3-2.8
			c-0.1-0.1-0.2-0.2-0.3-0.3c-1.4-1.6-1.9-3-2.1-4.5c-0.1-0.6-0.1-1.1-0.1-1.7c0-0.5,0-1.1,0.1-1.7c0.2,2.9,2.5,4.6,4.6,5.9
			c0.2,0.1,1.1,0.7,1.3,0.9c0.3,0.3,0.6,0.5,0.9,0.8c0.7,0.6,0.9,1.3,1,1.4c0.1,0.4,0.1,0.7,0.1,0.9C13.4,33.6,13.3,33.8,13.3,33.9z
			 M13.7,34.5c0.3-0.4,0.4-0.8,0.4-1.2c0-1.6-2.2-3.2-4.5-4.8c-0.8-0.6-1.4-1-1.8-1.3C7,26.5,6.3,25.6,6,24.6
			c-0.2-0.5-0.3-1.2-0.4-1.8c0-0.1,0-0.2,0-0.3c0-0.3,0-0.5,0.1-0.7c0-0.1,0.1-0.6,0.2-0.7s0.1-0.3,0.2-0.4c0.3-0.5,0.7-0.9,0.8-1.1
			c0.6-0.6,1.3-0.9,2.2-1c0.2,0,0.4,0,0.6,0c0.8,0,1.4,0.3,1.8,0.5c0.7,0.4,1.4,1.4,1.4,2.5c0,0.4-0.1,0.8-0.3,1.1
			c-0.3,0.3-0.6,0.6-0.8,0.7c0.1-0.2,0.2-0.7,0.2-1.1v-0.1c0-0.7-0.7-0.8-0.9-0.9s-0.4-0.4-0.4-0.5l0,0v-0.1c0,0,0,0,0-0.1
			s-0.1-0.1-0.1-0.1c-0.1,0-0.1,0-0.2,0c-0.1,0-0.3,0-0.4,0.1c-0.3,0.1-0.9,0.6-0.9,1.4c0,0.1,0,0.1,0,0.2c0,0.2,0.1,0.4,0.2,0.5
			c0,0.2-0.1,0.6,0.3,0.9c0.3,0.2,0.7,0.2,1.2,0.3c0.7,0.1,1.8,0.7,2.2,1.5c0.2,0.4,0.2,0.9,0.2,1.3s-0.1,0.7-0.1,0.9l0,0l0,0
			c0,0.1,0.6,0.7,1.1,1.8c0.4,0.9,0.8,2,0.8,2.9C14.9,33.1,14.6,33.9,13.7,34.5z M11.5,21.8c0,0.3-0.3,0.4-0.5,0.6
			c-0.3,0.3-0.6,0.3-0.9,0.3c-0.4,0-0.7-0.2-0.7-0.3c0-0.1,0-0.2,0-0.3c0-0.9,0.7-0.9,0.8-1.1c0.1-0.1,0.1-0.1,0.2-0.1
			c0.1,0,0.1,0,0.2-0.1c0.1,0.2,0.1,0.5,0.2,0.5C11,21.6,11.5,21.4,11.5,21.8C11.4,21.8,11.5,21.8,11.5,21.8z M14.9,34.7
			c0,0,0.5-0.1,0.9-0.3c1.4-0.7,1.7-1.8,1.7-2.5c0-0.2-0.1-0.3-0.1-0.5c-0.1-0.2-0.2-0.5-0.4-0.6c-0.1-0.1-0.1-0.1-0.2-0.1
			c-0.2-0.1-0.6-0.2-0.9-0.1c0.3-0.5,0.7-1.8,0.8-2.3c1.1,0.1,1.7,0.5,2.2,1c0.9,1,0.8,2.5,0.3,3.5C17.5,35.1,14.9,34.7,14.9,34.7z
			 M22,31.4c-1.5,1.8-3.3,2.4-3.3,2.4c0.5-0.3,0.9-0.7,1.3-1.2c2-2.6,0.9-6.1-3.4-5.6c0.1-0.3,0.2-0.9,0.2-1.1
			c0.1-0.2,0.1-0.4,0.2-0.6c2-0.4,4.4,0.3,5.4,2.2C23.5,29.3,22.2,31.1,22,31.4z M24,27.5c-0.1,0.6-0.3,1.3-0.3,1.3
			c0.6-3.2-3.2-5-5.9-4.4c0.5-0.5,1.1-0.9,2.2-1.2c0.1,0,0.1,0,0.1,0c0.7,0,1.2,0.2,1.6,0.3c2,0.8,2.2,2.2,2.3,2.6
			C24.1,26.4,24.1,27.1,24,27.5z M23.4,23.9c-0.3-0.3-0.9-0.8-1.9-1.1c-0.4-0.1-0.8-0.1-1.1-0.1c-0.6,0-1.1,0.1-1.5,0.3
			c-2.6,1.2-2.4,3.5-2.9,5.6c-0.1,0.2-0.4,1.3-0.8,1.8c-0.1-0.3-0.3-0.8-0.5-1.3c-0.3-0.6-0.7-1.1-0.8-1.2c0.3-1,0.5-2.1,0.5-2.2
			c0.3-3.1,2.4-5.7,5.4-5.7c0.5,0,1,0.1,1.6,0.2c0.9,0.3,1.6,0.7,2.1,1.5c0.7,0.9,0.9,2.1,0.9,3.3c0,0.2,0,0.4,0,0.7
			C24.2,25.2,24,24.5,23.4,23.9z"/>
		<path class="st2" d="M27,37.3h-3.4l-0.9,2.1l-0.1-0.3c-0.1-0.3-0.3-0.5-0.5-0.7c-0.3-0.4-0.8-0.7-1.3-0.8
			c-0.5-0.2-1.1-0.3-1.9-0.3h-4.1v2.4l-0.3,0.1l-1.1-2.5H10L8.9,40l-0.1-0.4c-0.1-0.8-0.5-1.4-1.2-1.8c-0.7-0.4-1.5-0.5-2.6-0.5
			c-0.8,0-1.5,0.1-2.1,0.3c-0.5,0.2-1,0.5-1.3,0.9s-0.5,0.8-0.5,1.3l0,0l0,0c0,0.6,0.3,1.2,0.8,1.6l0.3,0.2l-1.5,0.1l0.1,0.6
			c0.1,0.8,0.5,1.5,1.1,2c0.7,0.6,1.7,0.8,3.1,0.8c0.5,0,0.9,0,1.3-0.1l0.3-0.1V45h3.8l0.4-1.1h1.8L13,45h5.9c0.4,0,0.7,0,1.1-0.1
			l0.3-0.1l-0.1,0.1H24l0.4-1.1h1.8l0.4,1.1h3.8L27,37.3"/>
		<path class="st1" d="M26.7,37.8h-2.6l-1.6,3.6c0-0.1,0-0.3,0-0.4c0-0.4-0.1-0.9-0.2-1.3c-0.1-0.4-0.3-0.7-0.6-1
			c-0.3-0.3-0.6-0.5-1.1-0.7c-0.4-0.2-1-0.2-1.7-0.2h-3.5v5.3L13,37.8h-2.6l-2,4.5c0-0.1,0-0.1,0-0.1c0-0.3-0.1-0.7-0.3-0.9
			c-0.2-0.3-0.5-0.5-1-0.7C6.8,40.3,6,40.1,5,39.9c-0.4-0.1-0.7-0.1-0.8-0.2C4.1,39.6,4,39.5,4,39.4s0.1-0.3,0.2-0.3
			C4.3,39,4.5,39,4.8,39c0.3,0,0.6,0.1,0.8,0.2c0.2,0,0.4,0.2,0.4,0.5l2.2-0.1c-0.1-0.7-0.4-1.1-0.9-1.5c-0.5-0.3-1.3-0.5-2.2-0.5
			c-0.8,0-1.4,0.1-1.9,0.3c-0.4,0.2-0.8,0.4-1,0.7c-0.2,0.4-0.3,0.7-0.3,1c0,0.5,0.2,0.9,0.7,1.2c0.4,0.3,1.2,0.6,2.2,0.8
			c0.6,0.1,1,0.2,1.2,0.4c0.2,0.1,0.3,0.3,0.3,0.5S6.2,42.8,6,43c-0.2,0.1-0.4,0.2-0.8,0.2c-0.5,0-0.8-0.1-1-0.4
			C4,42.5,3.8,42.3,3.8,42l-2.2,0.1c0.1,0.7,0.3,1.2,0.9,1.6c0.5,0.4,1.4,0.6,2.7,0.6c0.7,0,1.3-0.1,1.8-0.3c0.4-0.2,0.8-0.4,1-0.7
			l-0.4,0.8H10l0.4-1.1h2.7l0.4,1.1H19c0.4,0,0.9-0.1,1.4-0.2c0.4-0.1,0.7-0.3,1.1-0.5l0.1-0.1l-0.3,0.8h2.4l0.4-1.1h2.7l0.4,1.1
			h2.5L26.7,37.8 M11,41.8l0.8-2.3l0.8,2.3H11z M19.9,42.2c-0.1,0.2-0.3,0.4-0.5,0.5s-0.6,0.1-1.1,0.1h-0.6v-3.6h0.6
			c0.6,0,1.1,0.1,1.3,0.4c0.3,0.3,0.4,0.7,0.4,1.4C20.1,41.6,20.1,41.9,19.9,42.2z M24.5,41.8l0.8-2.3l0.8,2.3H24.5z"/>
		<path class="st2" d="M31.3,45.6L31.3,45.6L30.9,46c-0.2,0.2-0.3,0.4-0.4,0.5s-0.1,0.1-0.2,0.1l0,0l0,0l0,0l0,0l0,0l0,0l0,0
			c0,0,0,0,0-0.1c0,0,0.1-0.2,0.2-0.4s0.2-0.3,0.3-0.5c0.1-0.2,0.1-0.3,0.1-0.5V45c0-0.1,0-0.1-0.1-0.2c0.1-0.1,0.3-0.2,0.3-0.3
			c0.1-0.1,0.1-0.3,0.1-0.4V44c0-0.1-0.1-0.3-0.2-0.3c-0.1-0.1-0.2-0.1-0.3-0.1l0,0h-0.1c-0.2,0-0.4,0.2-0.5,0.4
			C30,44.1,30,44.3,30,44.4l0,0v0.1c0,0.1,0.1,0.1,0.1,0.2c-0.2,0.1-0.3,0.2-0.4,0.3l-0.1,0.1c0-0.1-0.1-0.3-0.3-0.3
			c-0.1-0.1-0.2-0.1-0.3-0.1l0,0l0,0c-0.1,0-0.1,0-0.1,0c-0.2,0-0.4,0.1-0.5,0.3c-0.2,0.1-0.4,0.3-0.5,0.5c-0.2,0.3-0.4,0.5-0.5,0.8
			c-0.1,0.2-0.1,0.3-0.1,0.5v0.1C27.2,47,27.2,47,27.2,47c-0.1,0.1-0.1,0.1-0.1,0.2l0,0l0,0l0,0l0,0l0,0l0,0c0,0-0.1-0.1-0.1-0.2
			v-0.1c0.4-0.6,0.6-1.1,0.8-1.6c0.1-0.4,0.2-0.8,0.2-1.1c0-0.1,0-0.2,0-0.3s-0.1-0.2-0.1-0.3c-0.1-0.1-0.2-0.2-0.3-0.2l0,0h-0.1
			c-0.1,0-0.2,0.1-0.3,0.1c-0.2,0.2-0.3,0.4-0.5,0.7c-0.1,0.2-0.2,0.4-0.3,0.7c0,0,0-0.1-0.1-0.1c-0.1-0.2-0.1-0.4-0.2-0.5
			C26,44.2,25.8,44,25.6,44l0,0c0,0,0,0-0.1,0c-0.2,0-0.3,0.1-0.4,0.2c0-0.1,0.1-0.1,0.1-0.2l0,0l0,0c0.1-0.2,0.1-0.4,0.2-0.5l0,0
			c0-0.1,0-0.2-0.1-0.3s-0.1-0.1-0.3-0.1l0,0c-0.1,0-0.1,0-0.2,0.1c-0.2,0.1-0.3,0.2-0.3,0.3c-0.1,0.1-0.1,0.3-0.2,0.5
			s-0.5,1.7-0.9,2.8c-0.1,0.3-0.4,1.1-0.5,1.3c0,0.1-0.1,0.1-0.1,0.2c0,0.1-0.1,0.2-0.1,0.2l0,0v-0.1c0-0.1,0-0.2,0-0.3
			c0-0.2,0.1-0.5,0.2-0.9c0.1-0.3,0.2-0.6,0.3-0.9c0.1-0.3,0.2-0.5,0.3-0.7c0.1-0.2,0.1-0.3,0.1-0.4c0-0.1,0-0.1,0-0.1
			c0-0.1,0-0.1,0-0.1c0-0.1,0-0.1,0-0.1v-0.1c-0.1-0.1-0.1-0.2-0.2-0.3C23.1,44.1,23,44,22.9,44l0,0c-0.1,0-0.1,0-0.1,0
			c-0.1,0-0.3,0.1-0.5,0.2c-0.2,0.1-0.5,0.3-0.7,0.5c-0.2,0.1-0.4,0.4-0.6,0.6c-0.2,0.3-0.4,0.5-0.5,0.7l0,0l0,0l0,0
			c0,0.1,0,0.3,0.1,0.3c0.1,0.1,0.3,0.1,0.4,0.1l0,0h0.1l0.1-0.1c0.1-0.1,0.1-0.2,0.2-0.3c0.3-0.4,0.5-0.5,0.7-0.6c0,0,0,0,0.1,0
			c-0.1,0.2-0.1,0.4-0.2,0.5c-0.1,0.2-0.1,0.4-0.2,0.7s-0.1,0.5-0.2,0.7c-0.1,0.3-0.1,0.5-0.1,0.7c0,0.1,0,0.1,0,0.2
			c0,0.1,0,0.2,0,0.3c0,0.2,0.1,0.4,0.3,0.6c0.1,0.1,0.2,0.3,0.4,0.4c0.1,0.1,0.3,0.1,0.4,0.1l0,0c0.1,0,0.1,0,0.1,0
			c0.2,0,0.3-0.1,0.4-0.3c0.1-0.1,0.2-0.3,0.3-0.6c0.2-0.4,0.4-0.7,0.5-1.1c0,0.2,0.1,0.5,0.2,0.7s0.3,0.3,0.4,0.4
			c0.1,0.1,0.2,0.1,0.3,0.1c0.1,0,0.2,0,0.2,0c0.3-0.1,0.6-0.3,0.8-0.7c0.1,0,0.1,0,0.2-0.1c0,0.1,0.1,0.1,0.1,0.2
			c0.1,0.2,0.3,0.3,0.6,0.3l0,0c0.1,0,0.1,0,0.1,0c0.3-0.1,0.5-0.3,0.8-0.6l0.1,0.1c0.2,0.1,0.4,0.2,0.6,0.2l0,0c0.1,0,0.1,0,0.2,0
			c0.3-0.1,0.6-0.2,0.8-0.5c0.1-0.1,0.1-0.2,0.2-0.3l0,0c0.1,0.2,0.3,0.3,0.6,0.3l0,0c0.1,0,0.1,0,0.1,0c0.2-0.1,0.4-0.2,0.6-0.4
			s0.4-0.5,0.5-0.8v-0.1l0,0V45.6 M28.5,47.2L28.5,47.2C28.5,47.1,28.5,47.1,28.5,47.2C28.5,47.1,28.5,47.1,28.5,47.2
			c-0.1-0.1-0.1-0.1-0.1-0.1c0.2-0.2,0.5-0.3,0.6-0.5l0.1-0.1c0,0.1,0,0.1,0,0.2l0,0L29,46.8c0,0.1-0.1,0.2-0.2,0.2
			C28.7,47.1,28.6,47.1,28.5,47.2L28.5,47.2z M26,45.8c0,0.1,0,0.1-0.1,0.2c0-0.1-0.1-0.1-0.1-0.2C25.8,45.8,25.8,45.8,26,45.8
			L26,45.8L26,45.8L26,45.8C25.9,45.8,26,45.8,26,45.8z M25.5,45.6h-0.1c-0.1,0-0.1,0-0.2,0h-0.1c0.1-0.1,0.1-0.1,0.2-0.2
			C25.4,45.5,25.4,45.6,25.5,45.6L25.5,45.6z M24.6,45.9L24.6,45.9c-0.1,0.1-0.2,0.2-0.3,0.3c0-0.1,0.1-0.2,0.1-0.3
			C24.5,45.9,24.6,45.9,24.6,45.9L24.6,45.9L24.6,45.9z M24.8,47.6L24.8,47.6c0-0.1,0-0.2,0.1-0.3c0-0.1,0-0.1,0.1-0.1v0.1l0,0v0.1
			c0,0.1,0.1,0.2,0.1,0.3L25,47.8c0,0-0.1,0-0.1,0.1l0,0l0,0l0,0l0,0C24.8,47.8,24.8,47.7,24.8,47.6L24.8,47.6L24.8,47.6L24.8,47.6z
			"/>
		<path class="st0" d="M30.4,44.7c0.1,0,0.1,0.1,0.2,0c0.1,0,0.2-0.1,0.3-0.2c0.1-0.1,0.1-0.3,0.1-0.3c0-0.1-0.1-0.1-0.1-0.2
			s-0.1-0.1-0.2,0c-0.1,0-0.2,0.1-0.3,0.3c-0.1,0.1-0.1,0.3-0.1,0.4C30.3,44.6,30.3,44.7,30.4,44.7 M24.8,43.9
			c0.1-0.3,0.2-0.5,0.1-0.5c0,0-0.1-0.1-0.2,0c-0.2,0.1-0.3,0.3-0.4,0.7c-0.1,0.2-0.5,1.7-0.9,2.8c-0.1,0.3-0.4,1.1-0.5,1.3
			c-0.1,0.1-0.2,0.3-0.2,0.4c-0.1,0.2-0.3,0.3-0.4,0.1c0-0.1-0.1-0.1-0.1-0.1c0-0.1,0-0.3,0-0.5s0.1-0.5,0.2-0.9
			c0.1-0.3,0.2-0.7,0.3-0.9c0.1-0.3,0.2-0.5,0.3-0.7c0.1-0.2,0.1-0.3,0.1-0.4v-0.1c0-0.1,0-0.2,0-0.2c0-0.1-0.1-0.1-0.2-0.2
			c-0.1-0.1-0.2-0.1-0.3-0.1c-0.1,0-0.2,0-0.4,0.1s-0.4,0.3-0.7,0.5c-0.3,0.3-0.9,0.9-1,1.2c0,0.1,0.1,0.2,0.3,0.2
			c0.1-0.1,0.1-0.2,0.3-0.3c0.3-0.4,0.5-0.5,0.7-0.7c0.3-0.2,0.4-0.2,0.5-0.2s0.1,0.1,0.1,0.1s0,0.1-0.1,0.3s-0.1,0.4-0.2,0.6
			C22,46.6,22,46.8,21.9,47c-0.1,0.2-0.1,0.5-0.2,0.7s-0.1,0.5-0.1,0.6c0,0.2,0,0.3,0,0.4c0,0.2,0.1,0.3,0.2,0.5
			c0.1,0.1,0.2,0.2,0.3,0.3s0.3,0.1,0.3,0.1c0.1,0,0.3-0.2,0.5-0.7s0.5-0.9,0.6-1.3s0.3-0.8,0.4-1.1C24.1,45.9,24.6,44.4,24.8,43.9z
			 M31.1,46.3c-0.2,0.2-0.3,0.4-0.4,0.5s-0.2,0.1-0.3,0.2c-0.1,0-0.2,0-0.3,0S30,46.9,30,46.8c0-0.1,0-0.2,0.1-0.3s0.4-0.6,0.5-0.8
			s0.1-0.3,0.1-0.4c0-0.1-0.1-0.1-0.2-0.1c-0.3,0.1-0.5,0.4-0.8,0.9c-0.1,0.1-0.1,0.2-0.1,0.3s0,0.1,0,0.2s0,0.2,0,0.3
			c-0.1,0.1-0.1,0.1-0.2,0.2c-0.1,0.1-0.2,0.2-0.3,0.3c-0.1,0.1-0.2,0.1-0.3,0.1c-0.1,0-0.2,0-0.3-0.1c-0.1-0.1-0.1-0.2-0.2-0.3V47
			c0.3-0.2,0.5-0.4,0.7-0.6c0.2-0.2,0.3-0.4,0.4-0.5c0.1-0.2,0.1-0.3,0.1-0.5c0-0.1-0.1-0.2-0.1-0.2c-0.1,0-0.2-0.1-0.3,0
			c-0.1,0-0.3,0.1-0.5,0.2c-0.2,0.1-0.3,0.3-0.5,0.4c-0.2,0.3-0.4,0.5-0.4,0.7c-0.1,0.2-0.1,0.4-0.1,0.6c-0.1,0.1-0.1,0.2-0.2,0.2
			c-0.1,0.1-0.1,0.1-0.2,0.2c-0.1,0.1-0.1,0.1-0.2,0.1s-0.2,0-0.3-0.1c-0.1-0.1-0.1-0.2-0.2-0.3c0-0.1,0-0.2,0-0.3
			c0.4-0.6,0.7-1.1,0.8-1.6s0.2-0.9,0.2-1.3c0-0.1,0-0.2-0.1-0.2l-0.1-0.1c0,0-0.1,0-0.1,0.1c-0.1,0.1-0.3,0.3-0.5,0.6
			c-0.1,0.3-0.3,0.6-0.4,1s-0.2,0.7-0.3,1.1c-0.1,0.3-0.1,0.6,0,0.8c0,0,0,0-0.1,0.1c-0.2,0.2-0.2,0-0.2,0c0.1-0.2,0.1-0.3,0.1-0.5
			s0-0.3,0-0.4c0-0.1-0.1-0.2-0.1-0.2s-0.1-0.1-0.2-0.1c0-0.1,0.1-0.1,0.1-0.2c0-0.1-0.1-0.1-0.1-0.1c-0.1,0-0.2,0-0.3,0
			c-0.1,0-0.3,0.1-0.5,0.2c-0.2,0.1-0.3,0.3-0.4,0.5S24.1,47,24,47.2c-0.1,0.3-0.1,0.8,0.1,1c0.1,0.1,0.2,0.2,0.3,0.3
			c0.1,0.1,0.3,0.1,0.4,0c0.2,0,0.4-0.2,0.7-0.7c0.2,0,0.3-0.1,0.4-0.1l0.1-0.1c0.1,0.2,0.1,0.3,0.2,0.5s0.3,0.2,0.4,0.2
			c0.3-0.1,0.5-0.3,0.8-0.9c0.1,0.2,0.1,0.3,0.3,0.4c0.1,0.1,0.3,0.2,0.5,0.1c0.2-0.1,0.5-0.2,0.7-0.4c0.1-0.1,0.3-0.3,0.4-0.6
			c0.1,0.1,0.1,0.2,0.2,0.4s0.3,0.3,0.5,0.2c0.1,0,0.3-0.1,0.5-0.3s0.3-0.4,0.5-0.8L31.1,46.3z M26.8,45.3c0.1-0.4,0.2-0.6,0.3-0.8
			l0.1-0.1c0,0,0.1,0,0.1,0.1s0,0.2,0,0.3s-0.1,0.3-0.1,0.5c-0.1,0.2-0.1,0.4-0.2,0.5c-0.1,0.2-0.2,0.3-0.3,0.5
			C26.6,46.1,26.6,45.7,26.8,45.3z M25.2,47.4c0,0.1,0.1,0.3,0.2,0.4c-0.2,0.2-0.3,0.3-0.5,0.3c-0.4,0.1-0.4-0.4-0.3-0.8
			s0.4-0.6,0.4-0.7c0.1-0.1,0.2-0.2,0.4-0.3c-0.1,0.2-0.2,0.3-0.2,0.5C25.1,47,25.1,47.2,25.2,47.4z M25.7,46.8
			c0,0.2-0.1,0.4-0.2,0.6c0,0-0.1-0.3-0.1-0.6c0-0.2,0.1-0.3,0.1-0.3S25.7,46.4,25.7,46.8z M28.2,46.3c0.1-0.1,0.1-0.3,0.2-0.3
			c0.1-0.1,0.2-0.2,0.3-0.3s0.1-0.1,0.2-0.1s0.1,0,0.1,0.1s0,0.1-0.1,0.3c-0.1,0.1-0.1,0.3-0.3,0.4c-0.1,0.1-0.3,0.3-0.5,0.4
			C28.1,46.6,28.1,46.4,28.2,46.3z M24.5,45.5c0,0.1,0.1,0.1,0.2,0.1s0.3-0.1,0.5-0.4l0.1-0.1l0.1-0.1c0,0,0.1,0,0.1,0.1
			c0.1,0.1,0.2,0.2,0.3,0.3s0.2,0.1,0.2,0.1s0.1,0,0.1-0.1v-0.1c0-0.1,0-0.2-0.1-0.3c-0.1-0.2-0.1-0.3-0.2-0.5
			c-0.1-0.1-0.2-0.2-0.3-0.2c-0.1,0-0.2,0.1-0.4,0.3c-0.1,0.2-0.3,0.3-0.4,0.5C24.5,45.3,24.5,45.4,24.5,45.5z"/>
	</g>
	<g>
		<path class="st3" d="M51.6,21.3L51.6,21.3l0.1,0.1l0,0v0.1l0,0l0,0l-0.1,0.1l0,0h-0.1l0,0l0,0l0,0l0,0l-0.1-0.1l0,0v-0.1l0,0
			L51.6,21.3L51.6,21.3L51.6,21.3L51.6,21.3 M52.9,21.5l0.5,0.3l-0.6,0.1l-0.5-0.3L52.9,21.5z M54.1,21.8c0.1,0,0.2,0.1,0.2,0.2
			s-0.1,0.2-0.2,0.2s-0.2-0.1-0.2-0.2S54,21.8,54.1,21.8 M50.1,21.7l0.2-0.4l0.2,0.4H50.1z M49.4,21.5v0.1l0,0l-0.1,0.1l0,0l0,0l0,0
			l0,0h-0.1l0,0L49,21.6l0,0l0,0v-0.1l0,0l0.1-0.1l0,0l0,0h0.1l0,0L49.4,21.5L49.4,21.5 M47.9,21.9l-0.6-0.1l0.5-0.3l0.6,0.1
			L47.9,21.9z M46.6,22.2c-0.1,0-0.2-0.1-0.2-0.2s0.1-0.2,0.2-0.2s0.2,0.1,0.2,0.2S46.7,22.2,46.6,22.2 M50.4,21.1L50.4,21.1
			L50.4,21.1L50.4,21.1L50.4,21.1L50.4,21.1c-0.4,0-1.1,0-1.1,0.1c-1.3,0.1-2.6,0.4-3.8,0.8c0.1,0.1,0.3,0.3,0.5,0.5
			c1.4-0.5,2.9-0.7,4.4-0.7l0,0l0,0l0,0l0,0l0,0c1.5,0,3,0.3,4.4,0.7c0.1-0.2,0.4-0.5,0.5-0.5c-1.2-0.4-2.5-0.7-3.8-0.8
			C51.4,21.1,50.7,21.1,50.4,21.1"/>
		<path class="st3" d="M56,20.3c-0.1-0.1-0.1-0.1-0.2-0.1c0-0.3-0.1-0.6-0.3-1c-0.6-0.9-2-1.1-2-1.1s1.5,0,2.2,1.1
			C55.9,19.6,56,19.9,56,20.3 M55.4,21c0,0.1,0.1,0.1,0.1,0.2c0.1,0.3-0.5,0.5-0.6,0.1c0.3-0.2,0.1-0.6-0.1-0.7
			c-0.3-0.1-0.5,0.2-0.5,0.5c-0.1,0.3-0.6,0.1-0.5-0.3l0,0c0.2-0.1,0.4-0.3,0.4-0.6c0-0.3-0.1-0.5-0.4-0.6l0,0c0,0,0-0.7-0.1-1.1
			c0.9,0.2,1.8,0.6,2,1.8c-0.2,0.1-0.3,0.3-0.3,0.5C55.3,20.8,55.3,20.9,55.4,21 M53.3,20.5c-0.2,0-0.3-0.1-0.3-0.3
			c0-0.2,0.1-0.3,0.3-0.3s0.3,0.1,0.3,0.3C53.6,20.3,53.5,20.5,53.3,20.5 M52.6,19.8C52.6,19.9,52.6,19.9,52.6,19.8L52.6,19.8
			L52.6,19.8c-0.1,0.1-0.1,0.2-0.1,0.2c0,0.1,0.1,0.3,0.1,0.4c-0.2,0.2-0.5,0.2-0.6-0.1c0.3-0.3,0-0.7-0.3-0.7
			c-0.4,0-0.6,0.4-0.4,0.6c0,0.1-0.3,0.2-0.5,0c0.7-0.3,0.5-1.3-0.1-1.4c0.2-0.1,0.2-0.5,0-0.6c0,0-0.2-0.1-0.1-0.3
			c0.2-0.1,0.3-0.4,0.3-0.7c1.4,0.2,2.1,0.9,2.3,2.1c-0.1,0-0.3,0.1-0.3,0.1C52.8,19.6,52.7,19.7,52.6,19.8 M50.4,20.1
			c-0.2,0-0.4-0.2-0.4-0.5s0.2-0.5,0.4-0.5s0.4,0.2,0.4,0.5S50.6,20.1,50.4,20.1 M49.5,20.4c0.1-0.3,0-0.7-0.4-0.6
			c-0.4,0-0.6,0.4-0.3,0.7c-0.1,0.3-0.5,0.3-0.6,0.1c0.1-0.1,0.1-0.3,0.1-0.4s0-0.1,0-0.2l0,0l0,0v-0.1c-0.1-0.1-0.1-0.2-0.2-0.3
			c-0.1-0.1-0.2-0.1-0.3-0.1c0.2-1.2,0.9-1.9,2.3-2.1c0,0.3,0.2,0.6,0.3,0.7s-0.1,0.2-0.1,0.3c-0.2,0.1-0.2,0.5,0,0.6
			c-0.6,0.1-0.7,1.1-0.1,1.4C49.8,20.6,49.5,20.5,49.5,20.4 M47.4,20.5c-0.2,0-0.3-0.1-0.3-0.3c0-0.2,0.1-0.3,0.3-0.3
			s0.3,0.1,0.3,0.3C47.7,20.3,47.6,20.5,47.4,20.5 M46.5,21c0.1-0.3-0.1-0.6-0.5-0.5c-0.3,0.1-0.5,0.4-0.1,0.7
			c-0.1,0.4-0.7,0.3-0.6-0.1c0-0.1,0.1-0.1,0.1-0.2c0.1-0.1,0.1-0.2,0.1-0.3c0-0.2-0.1-0.4-0.3-0.5c0.2-1.1,1.1-1.6,2-1.8
			C47,18.8,47,19.5,47,19.5l0,0c-0.2,0.1-0.4,0.3-0.4,0.6s0.2,0.5,0.4,0.6l0,0C47.1,21.1,46.6,21.3,46.5,21 M44.9,20.2
			c-0.1,0-0.1,0.1-0.2,0.1c0-0.4,0.1-0.7,0.3-1.1c0.7-1.1,2.2-1.1,2.2-1.1s-1.5,0.2-2,1.1C45,19.6,44.9,19.9,44.9,20.2 M49.9,16.7
			c0,0,0,0.1,0,0.2c-0.7,0.1-2.1,0.5-2.4,2.1C47.4,19,47.5,17,49.9,16.7 M53.3,19c-0.3-1.6-1.7-2-2.4-2.1c0,0,0-0.1,0-0.2
			C53.3,17,53.3,19,53.3,19 M53.3,17.7c-0.5-0.7-1.5-1.3-2.6-1.3c0-0.1-0.1-0.1-0.1-0.1V16h0.3v-0.3h-0.3v-0.3h-0.1l0,0h-0.1v0.3
			h-0.3V16h0.3v0.3c-0.1,0-0.1,0.1-0.1,0.1c-1.1,0-2.1,0.6-2.6,1.3c-3.6,0.2-3.2,2.7-3.2,2.7c0.1,0.5,0.3,0.9,0.8,1.3
			c0.1,0.1,0.1,0.1,0.2,0.2c0.8-0.3,1.8-0.6,2.9-0.8c0.7-0.1,1.4-0.1,2.1-0.2c0.7,0,1.4,0.1,2.1,0.2c1.1,0.2,2.2,0.5,2.9,0.8
			c0.1-0.1,0.1-0.1,0.2-0.2c0.5-0.3,0.7-0.8,0.8-1.3C56.4,20.4,56.8,17.9,53.3,17.7"/>
		<path class="st2" d="M64.1,36c0,7.6-6.1,13.7-13.7,13.7S36.6,43.6,36.6,36s6.1-13.7,13.7-13.7S64.1,28.4,64.1,36"/>
		<path class="st4" d="M63.8,36L63.8,36c0,3.7-1.5,7-3.9,9.4s-5.8,3.9-9.5,3.9l0,0l0,0c-3.7,0-7-1.5-9.5-3.9C38.5,43,37,39.6,37,36
			l0,0c0-3.7,1.5-7,3.9-9.4s5.8-3.9,9.5-3.9l0,0c3.7,0,7,1.5,9.5,3.9C62.3,29,63.8,32.3,63.8,36 M60.1,26.3c-2.5-2.5-5.9-4-9.8-4
			l0,0c-3.8,0-7.3,1.5-9.8,4s-4,5.9-4,9.7l0,0c0,3.8,1.5,7.2,4,9.7s5.9,4,9.8,4l0,0l0,0c3.8,0,7.3-1.5,9.8-4s4-5.9,4-9.7
			C64.2,32.2,62.6,28.8,60.1,26.3"/>
		<path class="st4" d="M50.4,26.3c-5.3,0-9.6,4.3-9.6,9.7c0,5.3,4.3,9.7,9.6,9.7S60,41.4,60,36S55.7,26.3,50.4,26.3"/>
		<polygon class="st2" points="50.6,40.8 51,42 52.2,42 51.2,42.7 51.6,43.9 50.6,43.1 49.6,43.9 50,42.7 50,42.7 49,42 50.2,42 		
			"/>
		<polygon class="st2" points="55.8,32.8 56.2,33.9 57.4,33.9 56.4,34.7 56.8,35.8 55.8,35.1 54.8,35.8 55.2,34.7 54.2,33.9 
			55.4,33.9 		"/>
		<polygon class="st2" points="52,35.1 52.2,35.9 53.1,35.9 52.4,36.5 52.7,37.3 52,36.8 51.2,37.3 51.5,36.5 50.8,35.9 51.7,35.9 
					"/>
		<polygon class="st2" points="50.4,28 50.7,29.1 52,29.1 51,29.8 51.3,31 50.4,30.3 49.4,31 49.8,29.8 48.8,29.1 50,29.1 		"/>
		<polygon class="st2" points="45.1,32.7 45.5,33.8 46.7,33.8 45.7,34.5 46.1,35.7 45.1,35 44.1,35.7 44.5,34.5 43.5,33.8 
			44.7,33.8 		"/>
		<g>
			<path class="st4" d="M40.8,29c-0.1,0-0.4-0.1-0.6,0.1c-0.2,0.3,0,0.6,0.3,0.8c0.3,0.2,0.7,0.3,0.9,0c0.1-0.2,0.1-0.4-0.1-0.6
				l0.5-0.7c0.5,0.3,0.7,1,0.2,1.6c-0.5,0.7-1.3,0.8-1.9,0.3c-0.7-0.5-0.9-1.2-0.4-1.9c0.4-0.6,0.9-0.7,1.5-0.4L40.8,29z"/>
			<path class="st4" d="M42.9,27.1l0.3-0.3c0.1-0.1,0.3-0.3,0.1-0.4c-0.1-0.1-0.2-0.1-0.5,0.1l-0.3,0.2L42.9,27.1z M41.5,26.7l1.2-1
				c0.4-0.3,0.8-0.3,1.1,0.1c0.2,0.2,0.3,0.5,0.1,0.8c0.2-0.1,0.5,0,0.7,0.3c0.1,0.1,0.3,0.3,0.4,0.4l-0.6,0.5
				c-0.1-0.1-0.2-0.2-0.3-0.3c-0.2-0.2-0.4-0.4-0.6-0.2l-0.3,0.3l0.6,0.7l-0.6,0.5L41.5,26.7z"/>
			<path class="st4" d="M47.5,25.1c0.3,0.7,0,1.2-0.7,1.5s-1.3,0.1-1.5-0.6l-0.6-1.5l0.8-0.3l0.5,1.3c0.1,0.3,0.2,0.6,0.6,0.4
				c0.4-0.1,0.2-0.5,0.1-0.7l-0.5-1.3l0.8-0.3L47.5,25.1z"/>
		</g>
		<polygon class="st4" points="48.4,25.3 49.5,23.9 48.4,24 48.3,23.3 50.6,23.1 50.6,23.7 49.5,25.2 50.8,25.1 50.8,25.8 
			48.5,25.9 		"/>
		<polygon class="st4" points="52,23.2 54.2,23.7 54,24.4 52.6,24.1 52.6,24.4 53.8,24.6 53.7,25.3 52.4,25 52.4,25.3 53.8,25.6 
			53.6,26.3 51.4,25.8 		"/>
		<rect x="53.8" y="25.1" transform="matrix(0.4242 -0.9056 0.9056 0.4242 8.6913 64.645)" class="st4" width="2.7" height="0.8"/>
		<polygon class="st4" points="60.6,36.3 60.4,34.1 61.1,34.1 61.2,35.5 61.5,35.4 61.4,34.2 62.1,34.1 62.2,35.4 62.5,35.3 
			62.4,33.9 63.1,33.9 63.2,36.1 		"/>
		<path class="st4" d="M62.2,38.9l0.1-0.5c0-0.2,0-0.3-0.2-0.4c-0.1,0-0.3,0-0.3,0.2l-0.1,0.5L62.2,38.9z M61.2,38.7l0.1-0.4
			c0-0.2,0-0.3-0.1-0.3S61,38,61,38.2l-0.1,0.4L61.2,38.7z M60.1,39.3l0.3-1.4c0.1-0.7,0.6-0.7,0.8-0.7c0.3,0.1,0.4,0.2,0.4,0.4
			c0.1-0.2,0.4-0.4,0.7-0.3c0.5,0.1,0.7,0.6,0.6,1.1l-0.3,1.5L60.1,39.3z"/>
		<path class="st4" d="M61.2,40.7c0.6,0.4,0.7,0.9,0.4,1.6c-0.4,0.7-0.9,0.9-1.5,0.5L58.6,42l0.4-0.7l1.3,0.7
			c0.2,0.1,0.5,0.3,0.7-0.1c0.2-0.3-0.1-0.5-0.3-0.6l-1.3-0.7l0.4-0.7L61.2,40.7z"/>
		<polygon class="st4" points="56.8,43.9 57.4,43.3 58.8,44.7 59.6,43.9 60.1,44.4 58.7,45.8 		"/>
		<polygon class="st4" points="49.9,46.2 52.1,46.1 52.1,46.8 50.7,46.9 50.8,47.2 52,47.1 52.1,47.8 50.8,47.8 50.8,48.2 
			52.3,48.1 52.3,48.8 50.1,48.9 		"/>
		<polygon class="st4" points="47.6,46.6 46.9,46.4 47.1,45.7 49.3,46.2 49.2,46.9 48.5,46.7 48.1,48.7 47.2,48.5 		"/>
		<g>
			<path class="st4" d="M44.7,45.8L45,46c0.1,0.1,0.3,0.1,0.4-0.1c0.1-0.1,0.1-0.3-0.2-0.4l-0.3-0.2L44.7,45.8z M44.5,44.4l1.4,0.7
				c0.4,0.2,0.6,0.6,0.4,1.1c-0.1,0.2-0.4,0.4-0.7,0.4c0.1,0.2,0.1,0.5,0,0.8c-0.1,0.1-0.2,0.4-0.2,0.5l-0.7-0.4
				c0-0.1,0.1-0.3,0.1-0.4c0.1-0.2,0.2-0.5-0.1-0.6l-0.4-0.2l-0.5,0.8l-0.7-0.4L44.5,44.4z"/>
			<path class="st4" d="M41.6,44.5c0.1,0.1,0.5,0.3,0.9-0.1c0.4-0.4,0.3-0.7,0.2-0.9c-0.1-0.1-0.5-0.3-0.9,0.1
				C41.3,44,41.4,44.3,41.6,44.5 M43.1,43c0.6,0.6,0.5,1.4-0.1,2s-1.4,0.6-2,0s-0.5-1.4,0.1-2C41.8,42.5,42.5,42.5,43.1,43"/>
			<path class="st4" d="M40.1,40.9l0.1,0.3c0.1,0.2,0.2,0.4,0.5,0.3c0.2-0.1,0.1-0.3,0.1-0.5l-0.2-0.3L40.1,40.9z M40.8,39.6
				l0.6,1.2c0.3,0.6,0,1.1-0.4,1.3c-0.6,0.3-1,0-1.3-0.5l-0.2-0.4l-0.7,0.4l-0.4-0.7L40.8,39.6z"/>
			<path class="st4" d="M38.6,37.9c-0.1,0-0.1,0-0.2,0.1c-0.1,0.1-0.1,0.3-0.1,0.4c0,0.1,0.1,0.3,0.3,0.3c0.1,0,0.1-0.1,0.2-0.6
				c0-0.4,0.1-0.9,0.6-1c0.6-0.1,1,0.3,1.1,0.9c0.1,0.6,0,1.1-0.6,1.3l-0.1-0.8c0.1,0,0.2-0.1,0.2-0.1c0-0.1,0-0.2,0-0.3
				s-0.1-0.3-0.2-0.3c-0.2,0.1-0.1,0.4-0.2,0.8c0,0.4-0.1,0.8-0.6,0.9c-0.7,0.1-1-0.5-1.1-1c-0.1-0.3-0.1-1.2,0.7-1.3L38.6,37.9z"/>
		</g>
		<polygon class="st4" points="40.3,34.1 40.2,36.3 39.5,36.2 39.6,34.8 39.2,34.8 39.2,36.1 38.5,36 38.6,34.7 38.3,34.7 
			38.2,36.1 37.5,36.1 37.7,33.8 		"/>
		<path class="st4" d="M56.2,45.6c-0.1-0.1-0.3-0.3-0.6-0.1s-0.3,0.6-0.1,0.9c0.2,0.3,0.5,0.6,0.8,0.4c0.2-0.1,0.2-0.3,0.2-0.6
			l0.7-0.4c0.3,0.5,0.1,1.2-0.5,1.5c-0.7,0.4-1.5,0.1-1.9-0.6c-0.4-0.7-0.2-1.5,0.5-1.9c0.6-0.3,1.2-0.2,1.6,0.3L56.2,45.6z"/>
		<g>
			<path class="st4" d="M57.2,26.6l0.3,0.3c0.1,0.1,0.3,0.2,0.5,0c0.1-0.1,0.1-0.3-0.1-0.5l-0.3-0.2L57.2,26.6z M57.3,25.2l1.2,1
				c0.4,0.3,0.5,0.7,0.2,1.1c-0.2,0.2-0.5,0.4-0.7,0.3c0.1,0.2,0.1,0.5-0.1,0.8c-0.1,0.1-0.3,0.4-0.3,0.5L57,28.3
				c0.1-0.1,0.1-0.3,0.2-0.4c0.1-0.2,0.3-0.4,0-0.6L56.9,27l-0.6,0.7l-0.6-0.5L57.3,25.2z"/>
			<path class="st4" d="M59.2,29.9c0.1,0.2,0.4,0.4,0.9,0c0.5-0.3,0.4-0.7,0.3-0.9c-0.1-0.2-0.4-0.4-0.9,0S59.1,29.8,59.2,29.9
				 M61,28.7c0.5,0.7,0.3,1.4-0.4,1.9s-1.5,0.3-1.9-0.3c-0.5-0.7-0.3-1.4,0.4-1.9C59.8,28,60.5,28.1,61,28.7"/>
		</g>
	</g>
</g>
</svg>
