<?xml version="1.0" encoding="utf-8" ?><svg xmlns="http://www.w3.org/2000/svg" xmlns:xlink="http://www.w3.org/1999/xlink" width="900" height="904" viewBox="0 0 900 904"><path fill="#F6F6F2" d="M443.732 0L467.733 0C474.826 1.51776 486.894 1.01555 494.721 1.7147C512.963 3.43218 531.088 6.2201 549.003 10.064C660.252 34.6749 758.07 100.469 822.809 194.232C859.313 246.676 883.776 306.541 894.447 369.542C896.341 381.147 897.71 392.831 898.552 404.559C898.78 407.641 899.456 423.131 900 425.168L900 472.522L899.931 472.979C898.832 480.668 898.606 491.446 897.762 499.704C895.968 517.273 893.072 534.713 889.09 551.919C871.237 629.433 824.641 712.459 768.902 769.077C705.975 832.997 620.421 881.342 531.975 897.188C520.193 899.316 508.324 900.929 496.402 902.023C492.332 902.373 475.162 903.172 472.227 904L435.736 904C433.243 903.26 416.527 902.355 412.554 901.992C400.769 900.918 389.033 899.361 377.376 897.323C313.337 886.413 252.422 861.759 198.82 825.059C106.723 762.139 36.3338 662.232 11.1641 553.35C6.86335 534.934 3.83403 516.244 2.09755 497.412C1.35608 489.403 1.55964 475.869 0 468.72L0 423.016C0.494526 421.428 1.63928 401.211 1.93085 397.903C2.98795 387.094 4.4479 376.328 6.30765 365.627C17.2138 302.214 43.145 245.025 79.7465 192.409C95.645 169.554 114.304 145.056 133.924 125.341C195.721 63.2445 277.002 26.0304 362.212 9.50817C379.851 6.0931 397.649 3.56259 415.541 1.92614C421.387 1.43317 427.244 1.07111 433.107 0.840262C436.447 0.677768 440.501 0.684275 443.732 0Z"/><path d="M435.425 8.74894C679.631 0.791453 884.007 192.401 891.804 436.619C899.601 680.838 707.864 885.094 463.648 892.731C219.658 900.361 15.6384 708.834 7.84861 464.843C0.0588061 220.851 191.446 16.699 435.425 8.74894Z"/><path fill="#246E3B" d="M444.828 318.485C561.042 316.394 656.936 408.937 658.981 525.155C661.027 641.374 568.45 737.234 452.234 739.234C336.082 741.233 240.29 648.716 238.245 532.561C236.201 416.407 328.678 320.575 444.828 318.485Z"/><path d="M435.634 332.57C468.472 331.139 508.62 338.963 537.911 353.963C532.039 357.223 524.341 359.925 518.182 362.887C508.329 367.626 499.075 372.936 489.909 378.884C490.444 385.139 490.334 391.368 490.336 397.647C498.039 393.153 505.162 385.112 513.347 380.213C526.058 372.603 542.626 368.855 557.167 372.32C582.791 378.425 602.287 408.657 615.458 429.745C638.498 466.635 644.815 507.005 639.183 549.72C637.815 560.096 636.101 571.403 633.58 581.681C612.417 568.04 590.328 554.96 569.016 541.416L539.184 522.593C526.435 514.453 517.446 507.107 502.849 502.208C502.012 514.936 500.211 528.245 506.467 539.601C509.692 534.634 510.428 530.501 512.025 524.846C515.152 527.366 516.515 528.464 518.565 531.814C519.017 537.785 518.75 542.501 519.56 548.774C523.636 550.73 527.456 552.797 531.631 554.714C533.39 549.527 535.054 543.85 536.702 538.592C541.4 541.912 546.71 545.519 551.193 549.033C552.366 565.581 547.343 569.415 564.846 576.266C565.388 570.625 565.897 564.981 566.373 559.334C571.523 561.926 578.439 566.033 583.427 569.055C583.852 573.348 583.902 577.751 583.867 582.067C583.801 590.363 586.212 592.827 593.411 595.811C596.43 589.836 595.833 585.48 595.799 578.925C600.159 580.863 606.31 584.301 610.686 586.579C610.91 593.215 610.471 605.781 615.736 610.882C615.517 610.67 618.101 611.493 618.631 611.803C618.708 613.594 617.427 618.007 616.918 620.001C608.274 617.232 594.627 608.155 586.583 602.991L538.636 571.639C525.332 563.117 506.991 551.267 492.118 546.442C493.978 561.011 498.223 558.979 508.953 567.061C528.779 581.996 550.175 594.803 570.438 609.108C581.577 616.972 595.429 625.658 604.794 635.451C596.632 644.445 593.851 651.669 582.646 658.855C583.001 652.57 583.338 646.376 583.304 640.086C583.242 628.618 579.409 623.946 568.793 620.532C568.432 636.711 573.611 665.783 562.413 677.904C562.935 657.992 561.425 633.776 561.248 613.373C552.036 605.709 540.247 598.497 530.228 591.576C518.781 583.669 504.694 571.657 492.013 566.58C493.727 581.621 497.47 578.895 506.635 587.287C514.373 594.371 547.037 611.752 547.869 620.451C549.934 642.032 548.698 665.83 548.717 687.594C528.56 700.306 507.421 710.072 483.349 712.143C482.735 706.473 482.921 699.196 482.919 693.366L482.932 665.42L482.468 536.721C473.804 530.439 464.353 526.25 454.098 523.382C454.06 579.005 451.547 634.641 452.683 690.255C452.788 695.411 453.779 714.507 448.092 716.399L447.386 716.029C444.006 708.363 444.177 662.824 444.169 652.505C444.106 630.773 444.216 609.041 444.5 587.311C444.842 565.543 445.519 537.24 443.911 515.771C435.957 514.101 381.644 511.96 379.878 519.961C385.438 531.16 426.109 517.066 433.694 526.555C433.601 528.658 433.787 533.032 430.86 533.165C414.321 533.913 398.268 533.339 381.766 535.305C381.935 591.055 381.113 647.968 380.48 703.762C353.836 694.384 317.975 670.948 301.758 647.751C314.979 629.649 327.713 611.799 335.77 590.763C339.913 579.947 344.892 569.401 348.091 558.223C351.344 546.857 354.038 535.828 348.858 524.675C342.337 535.226 342.447 543.686 338.649 553.709C329.207 578.629 312.024 619.033 289.279 633.837L282.006 625.727C285.101 618.535 293.542 608.231 298.419 601.581C316.068 577.52 332.149 555.886 337.424 525.882C325.845 535.551 316.583 555.899 307.595 568.417C303.581 574.008 298.443 579.068 294.303 584.387C286.277 594.701 285.271 600.948 272.399 605.599C261.073 579.143 256.077 557.076 256.2 527.805C256.582 500.579 261.562 470.946 272.193 445.712C280.631 428.32 292.644 410.198 306.49 396.694C312.709 390.629 323.363 378.7 330.527 375.209C340.764 370.221 359.637 371.2 371.196 371.23L379.291 357.895L362.015 353.864C387.378 340.374 406.843 334.523 435.634 332.57Z"/><path fill="#246E3B" d="M437.537 354.227C440.766 354.043 444.25 354.042 447.504 353.983C444.268 371.611 446.547 395.212 445.933 413.305C445.749 418.737 447.057 432.526 445.209 436.847C442.583 438.918 439.014 438.21 435.651 438.542C430.583 427.946 432.375 414.858 432.824 403.005C427.592 403.572 422.356 404.092 417.114 404.563C415.904 417.356 418.491 426.355 413.41 438.608C412.9 437.648 410.901 433.929 410.759 433.108C409.327 424.842 409.882 414.577 409.494 406.008C404.46 406.696 398.819 407.186 393.725 407.73C393.796 420.083 393.476 432.593 393.457 445.007C408.823 444.933 439.237 441.221 453.282 445.395C460.686 447.596 487.194 465.01 494.467 469.954L494.403 529.715C492.376 529.384 490.252 528.908 488.23 528.494C475.974 524.46 466.936 514.935 455.051 509.799C450.887 508.02 446.49 506.85 441.993 506.323C429.35 504.818 407.222 505.959 394.185 506.301C385.304 506.533 367.508 507.029 358.944 508.199C364.596 514.151 366.426 515.628 368.278 523.692C359.734 520.563 351.681 514.736 344.565 509.165C344.355 495.081 344.314 475.712 346.374 461.611C346.611 459.989 350.614 451.122 351.698 446.719C360.897 446.837 371.214 446.439 380.479 446.25C380.824 433.506 380.683 421.087 380.76 408.21C380.829 396.712 379.651 380.44 384.844 370.059C388.916 361.919 402.554 358.673 410.726 356.242C413.374 361.321 413.663 363.25 414.317 368.959C424.667 365.122 422.832 362.77 428.073 354.521L437.537 354.227Z"/><path fill="#032C0A" d="M437.114 457.557L442.742 457.214L442.747 492.672C417.052 494.149 387.918 494.31 361.899 495.009L357.944 495.247C358.557 484.907 358.479 473.652 358.813 463.181L437.114 457.557Z"/><path fill="#246E3B" d="M377.452 468.761C380.102 468.728 382.364 468.606 384.95 469.252C392.566 471.153 397.17 481.008 400.8 487.732C398.848 487.773 396.098 487.891 394.207 487.639C384.926 486.405 380.91 476.206 377.452 468.761Z"/><path fill="#246E3B" d="M408.311 467.633C412.372 467.149 411.722 467.519 413.599 471.047C416.643 476.771 420.535 481.992 424.292 487.262L416.216 487.281C415.267 487.279 414.247 487.228 413.291 487.199C412.475 486.607 401.616 470.564 400.055 468.406C402.766 468.1 405.584 467.879 408.311 467.633Z"/><path fill="#032C0A" d="M455.11 458.396C464.218 461.733 474.984 466.771 484.234 470.54C484.221 483.865 484.682 500.008 483.958 513.026C474.935 512.264 463.769 504.365 455.501 500.08C455.521 490.037 456.121 467.197 455.11 458.396Z"/><path fill="#246E3B" d="M466.231 474.536C474.871 478.78 475.03 486.047 473.782 494.452C463.397 489.965 464.532 484.446 466.231 474.536Z"/><path fill="#032C0A" d="M407.245 378.038C407.609 377.941 408.547 377.89 408.964 377.854C410.067 378.96 409.716 394.186 409.965 397.205L410.02 397.841C405.528 398.271 400.543 399.069 396.036 399.693C394.741 399.947 394.759 400.045 393.521 399.681C393.029 397.962 393.723 382.54 393.749 379.316C397.976 379.048 402.974 378.451 407.245 378.038Z"/><path d="M426.98 376.264L432.706 375.943C432.785 382.485 432.607 389.382 432.534 395.945C429.125 396.107 425.714 396.227 422.303 396.305L416.515 396.503C416.502 389.999 416.566 383.496 416.708 376.994C420.212 376.648 423.462 376.448 426.98 376.264Z"/><path fill="#246E3B" d="M452.302 365.264C465.508 369.001 468.833 377.343 480.712 384.847C480.724 400.523 480.559 416.199 480.216 431.872C480.087 436.394 480.684 450.039 477.219 452.306C475.203 451.694 473.448 450.429 472.229 448.711C468.194 443.005 470.254 435.16 471.368 428.753C472.958 417.126 469.902 413.034 459.952 407.748C459.737 419.282 461.932 430.528 457.721 441.598C455.125 440.139 454.214 439.687 452.072 437.594C451.855 431.393 452.303 422.869 452.314 416.355L452.302 365.264Z"/><path fill="#032C0A" d="M459.187 385.167C470.97 388.904 471.509 390.533 471.472 402.798C458.731 399.82 459.439 397.239 459.187 385.167Z"/><path fill="#032C0A" d="M470.774 557.298L471.454 557.398C471.855 558.26 470.095 626.318 470.037 633.052C468.063 632.551 466.095 631.948 464.139 631.373C461.794 630.07 461.511 629.411 461.576 626.638C462.006 608.138 461.515 589.65 461.473 571.159C461.467 568.239 461.777 561.81 462.84 559.357C465.043 557.256 467.72 557.5 470.774 557.298Z"/><path fill="#032C0A" d="M394.304 653.458C397.825 655.374 401.601 667.005 402.522 670.831C405.403 682.804 406.379 695.414 399.864 706.381C398.752 707.779 397.395 709.255 396.204 710.61C395.683 710.037 395.155 709.454 394.711 708.818C390.863 703.31 392.812 661.041 394.304 653.458Z"/><path fill="#032C0A" d="M397.018 563.56C400.365 567.119 404.373 584.349 404.671 589.73C405.276 600.621 404.988 609.23 397.743 617.838C396.499 619.154 394.692 620.557 393.267 621.736C393.441 607.646 390.989 575.205 397.018 563.56Z"/><path fill="#032C0A" d="M430.494 652.693C434.725 658.522 432.913 707.01 430.715 715.348L428.631 712.366C419.389 696.653 420.309 667.773 430.494 652.693Z"/><path fill="#032C0A" d="M465.012 651.978C467.764 652.474 470.283 653.569 470.194 656.222C470.015 661.523 470.782 712.813 469.749 714.87L468.418 715.055L463.098 715.578C463.025 714.537 462.968 713.495 462.926 712.452C462.233 696.23 463.031 679.622 462.72 663.363C462.652 659.819 462.549 654.671 465.012 651.978Z"/><path fill="#032C0A" d="M430.244 562.152C433.255 564.516 432.739 599.274 432.414 604.885C432.168 609.715 431.6 614.524 430.711 619.279L428.207 615.814C426.004 612.236 424.376 608.334 423.38 604.251C419.942 590.349 422.884 574.37 430.244 562.152Z"/><path fill="#032C0A" d="M416.439 546.681C419.638 546.414 423.989 546.476 427.277 546.428C422.716 554.329 418.113 562.205 413.468 570.056L412.695 569.613C408.623 563.839 402.821 553.63 399.715 547.352C405.137 546.969 410.971 546.864 416.439 546.681Z"/><path fill="#032C0A" d="M422.818 642.448C423.728 642.349 424.318 642.295 425.231 642.279C424.561 643.884 423.809 644.02 422.836 645.28C418.894 650.388 416.665 657.8 413.331 663.513C412.001 661.824 410.678 660.012 409.378 658.289C406.471 653.514 403.929 648.245 401.392 643.244C408.38 643.196 415.827 642.762 422.818 642.448Z"/><path fill="#032C0A" d="M413.336 613.402C418.126 617.965 423.325 625.618 426.285 631.516L416.344 631.523L402.465 631.529C405.808 625.525 409.741 619.301 413.336 613.402Z"/><path fill="#032C0A" d="M464.085 538.899C466.551 540.004 470.421 540.418 471.142 543.016C470.672 544.512 469.852 544.907 468.594 545.877C466.953 546.937 466.545 547.376 464.68 547.633C460.999 546.291 462.65 541.447 464.085 538.899Z"/><path fill="#246E3B" d="M430.814 36.828C435.77 36.3547 441.404 36.5715 446.442 36.5184C537.54 35.5588 629.627 65.7211 700.66 123.163C717.599 136.86 731.648 152.368 746.018 168.494C814.443 245.281 844.184 339.803 836.786 442.127C835.03 441.176 832.199 439.788 831.166 438.032C813.685 408.332 799.24 375.913 780.863 346.85C770.92 331.238 759.713 316.467 747.356 302.686L727.18 280.173C721.484 273.857 715.599 266.981 709.279 261.367C694.456 248.199 676.875 235.871 659.881 225.709C642.284 215.186 620.558 203.277 601.327 195.999C558.183 179.672 513.404 172.468 467.702 169.522C447.236 169.004 430.381 168.827 409.798 170.452C343.676 175.67 278.164 195.243 224.1 234.546C210.292 244.585 198.13 255.852 185.614 267.332C162.108 288.892 139.881 313.779 122.981 340.954C109.694 362.321 97.9264 386.164 85.2472 408.013C78.6693 419.348 71.4462 433.252 62.9897 443.126C52.7265 339.413 86.8107 242.078 155.956 164.467C227.965 83.6422 323.782 43.1215 430.814 36.828Z"/><path d="M267.082 108.758C275.617 108.051 284.21 108.749 292.519 110.822C316.35 116.636 340.73 132.887 353.583 154.048C338.955 159.47 323.202 163.585 308.192 168.936C272.765 181.565 238.274 197.091 208.124 219.906C197.827 227.698 187.313 237.323 177.614 245.998C164.057 258.123 149.785 270.973 137.896 284.705C133.005 290.354 127.666 298.191 123.249 304.397C113.742 317.551 104.498 331.339 95.7729 345.015C93.1507 349.124 91.171 353.231 88.7237 357.307C88.1041 305.317 133.244 229.587 164.238 190.123C169.663 183.139 175.408 176.409 181.455 169.956C198.828 151.734 229.78 124.674 252.439 112.334C256.418 110.167 262.637 109.295 267.082 108.758Z"/><path d="M620.734 109.203C625.359 108.698 636.159 108.708 640.352 110.365C658.612 117.749 674.499 132.064 689.699 144.577C744.797 189.937 786.952 257.16 805.653 325.865C808.211 335.261 809.261 345.988 810.016 355.573C799.525 339.332 791.366 325.687 780.013 309.659C758.546 280.419 736.029 253.116 706.223 232.359C698.624 227.067 692.239 220.804 684.05 215.645C642.526 189.486 593.726 166.254 545.483 156.426C548.855 145.693 556.476 138.651 565.1 131.799C580.972 119.19 600.489 110.955 620.734 109.203Z"/><path d="M462.515 59.7698C500.177 57.3346 567.041 71.1581 600.615 89.0825C583.956 95.5783 569.883 99.1023 554.66 109.543C540.609 119.493 530.546 136.143 522.117 150.97C501.248 149.282 479.543 147.209 458.708 146.004L458.689 90.8057C458.675 81.9149 458.284 69.2058 458.822 60.5756C459.936 59.7422 460.876 59.9414 462.515 59.7698Z"/><path d="M423.345 59.7813C428.639 59.4834 435.361 59.6576 440.765 59.6658C440.643 88.2811 440.741 116.897 441.058 145.511C423.843 146.418 406.582 148.064 389.363 149.05C385.055 149.297 380.481 149.556 376.215 150.135C368.727 136.852 362.842 127.752 352.124 116.729C336.183 100.975 320.832 94.9278 299.694 89.6218C305.462 86.9727 311.211 83.858 317.118 81.5575C352.383 67.823 385.818 61.6594 423.345 59.7813Z"/><path fill="#246E3B" d="M215.427 633.831C221.37 636.769 229.474 646.379 233.356 651.717C250.47 675.252 250.039 713.225 210.562 705.192C210.644 728.211 194.747 741.596 172.541 729.654C155.556 719.16 144.877 699.586 136.467 682.041C163.866 667.486 188.592 644.412 215.427 633.831Z"/><path d="M183.516 679.311C185.284 680.391 190.184 690.118 191.433 692.491C194.158 697.666 196.628 707.21 188.944 709.74C186.351 710.594 180.551 711.303 177.963 709.978C171.831 703.615 169.454 697.127 165.088 689.526C171.76 686.435 176.458 682.376 183.516 679.311Z"/><path fill="#032C0A" d="M215.411 661.041C216.684 662.007 222.719 672.187 222.712 674.951C222.699 680.733 221.082 682.976 217.674 687.239C213.861 687.319 212.469 687.215 208.718 686.624C199.661 682.749 200.075 676.361 199.934 667.632C206.1 663.478 207.909 661.625 215.411 661.041Z"/><path fill="#F6F6F2" d="M658.363 261.495C666.459 261.455 675.398 263.899 681.718 268.967C702.624 285.73 696.523 314.927 681.355 333.31C670.535 346.422 660.038 353.67 643.219 355.599C635.61 356.778 625.117 354.852 619.256 349.829C599.429 332.835 606.937 298.486 621.686 280.778C631.725 268.725 643.249 262.938 658.363 261.495Z"/><path d="M660.489 281.289C662.903 281.156 666.729 282.106 668.735 283.452C678.131 289.758 674.677 304.035 669.713 311.888C662.47 323.348 655.388 332.826 642.03 336.369C613.764 339.24 629.409 285.23 660.489 281.289Z"/><path fill="#F6F6F2" d="M556.439 206.224C575.208 210.222 600.543 219.094 606.746 239.361C613.729 262.178 598.287 301.17 574.498 308.425C555.097 313.207 540.359 302.643 523.658 298.137L522.96 297.952C524.886 287.901 531.481 269.067 535.245 258.905C541.211 242.802 548.66 221.06 556.439 206.224Z"/><path d="M565.741 231.567C575.012 233.564 579.077 235.887 585.4 242.608C587.444 259.972 588.701 280.358 567.954 286.33C560.277 287.829 555.428 287.532 547.679 286.493L565.741 231.567Z"/><path fill="#246E3B" d="M292.107 721.182C294.029 721.658 310.642 731.447 313.453 733.073C311.935 762.954 300.194 799.17 293.642 829.597C284.574 826.754 282.137 825.802 274.433 820.421C275.344 813.467 275.996 806.006 276.728 798.998L264.006 790.057C258.48 786.302 253.976 783.471 247.788 781.02C241.299 785.75 238.28 789.88 230.598 794.079C224.656 789.736 218.741 785.356 212.855 780.939C220.743 771.135 239.853 758.645 250.861 750.769L292.107 721.182Z"/><path fill="#032C0A" d="M288.945 749.05C289.511 749.053 289.213 748.971 289.763 749.489C287.099 759.281 284.789 769.819 282.281 779.751C278.432 778.207 275.67 777.113 272 775.111C269.119 773.102 267.723 771.308 265.633 768.613C271.931 758.555 278.446 754.175 288.945 749.05Z"/><path fill="#246E3B" d="M637.643 701.855C645.097 706.173 648.109 710.703 649.804 718.976C639.445 725.008 627.51 732.981 617.211 739.469C618.242 747.676 620.624 749.892 625.339 756.49C635.791 750.319 641.818 741.862 652.579 737.45C658.354 744.112 659.48 746.803 661.491 755.261C650.985 759.715 646.454 764.967 636.884 770.11C638.966 778.358 641.852 780.445 647.988 785.668C657.614 777.491 671.383 768.481 682.933 763.564C684.046 766.1 685.325 768.476 686.607 770.928C688.172 773.999 688.828 775.306 689.869 778.557C678.936 789.314 651.916 807.32 638.14 814.283C625.284 801.578 615.05 782.322 603.595 767.824C597.935 760.661 589.474 747.357 585.864 739.066C589.724 734.588 596.722 730.967 601.533 727.259C613.921 717.71 623.423 708.777 637.643 701.855Z"/><path fill="#F6F6F2" d="M729.345 318.728C741.47 326.3 757.952 350.511 753.54 365.224C747.791 384.396 729.619 390.15 711.93 385.585C704.391 395.264 701.761 410.214 694.65 421.929C686.601 418.563 685.791 415.341 679.904 409.162C681.355 404.688 682.86 401.578 684.97 397.389C689.933 388.569 693.255 383.173 695.762 373.263C683.377 378.194 678.819 385.411 667.234 391.175C662.171 382.528 659.881 383.473 656.605 372.455C680.01 360.068 706.322 333.666 729.345 318.728Z"/><path d="M731.259 346.189C736.612 350.606 733.525 373.659 714.924 367.035C712.895 365.937 711.946 365.154 710.137 363.768C713.851 354.431 721.424 348.147 731.259 346.189Z"/><path fill="#246E3B" d="M556.673 755.948L556.915 756.082C557.348 757.239 556.854 759.194 556.654 760.437C553.92 777.423 542.456 788.655 539.104 805.771C553.236 817.253 568.821 828.663 583.266 840.04C580.311 842.49 576.95 844.403 573.335 845.691C555.768 851.829 547.486 839.474 535.965 829.286C530.933 824.835 526.609 822.202 520.641 819.289C523.321 830.944 525.577 843.156 528.517 854.702L523.113 856.479L505.591 862.093C503.17 853.955 500.702 842.028 498.682 833.556L484.337 773.784C491.725 768.151 495.033 766.834 504.312 766.706C508.281 777.981 511.953 791.526 515.585 803.179C519.852 794.979 523.981 787.052 527.814 778.529C529.918 773.851 533.672 762.195 536.92 758.665C539.381 755.989 552.512 756.106 556.673 755.948Z"/><path fill="#F6F6F2" d="M240.051 259.168C244.276 260.973 253.855 268.914 257.706 272.005C270.499 282.369 282.768 293.684 295.533 304.043C306.149 312.659 311.244 310.376 315.109 325.155C309.293 328.854 306.002 330.677 299.614 333.024C292.978 329.079 292.117 327.837 287.94 321.414C279.672 323.926 275.671 326.694 268.985 331.985C267.968 332.778 267.183 333.576 266.264 334.47C268.304 340.994 270.249 347.549 272.099 354.13C266.705 357.808 261.358 361.554 256.058 365.366C249.815 350.115 244.37 334.385 238.251 319.147C230.981 301.039 224.155 289.209 220.691 269.725C226.993 264.766 232.409 261.541 240.051 259.168Z"/><path d="M247.363 290.822C255.439 294.885 263.745 301.965 268.504 309.788L265.575 311.35L257.485 315.428C255.359 311.948 248.817 295.118 247.363 290.822Z"/><path fill="#246E3B" d="M394.487 763.382C405.277 762.582 423.051 771.279 433.412 775.568C432.167 781.055 431.225 789.211 430.103 795.234C421.156 790.39 410.196 785.869 400.137 783.741C397.695 783.224 393.375 783.711 391.478 785.53C390.257 786.7 389.878 787.682 389.715 789.433C388.815 799.135 404.831 804.241 411.539 808.708C415.495 811.049 419.192 813.436 422.337 816.864C432.871 828.345 429.309 846.678 418.275 856.447C411.591 862.366 404.438 863.288 395.82 862.76C381.986 861.548 368.961 855.687 356.372 850.084C357.891 843.185 359.168 835.133 360.432 828.127C371.042 832.099 379.526 840.586 390.906 842.011C395.795 842.623 406.227 841.053 404.776 834.205C401.551 821.867 384.715 817.852 375.419 810.155C354.699 792.997 369.877 765.219 394.487 763.382Z"/><path fill="#F6F6F2" d="M470.089 193.893C476.768 194.575 485.816 194.764 492.735 195.138C498.17 219.844 502.796 244.821 508.101 269.562C509.787 277.427 511.419 285.416 512.89 293.322L491.906 291.292C490.747 285.849 489.793 279.579 488.83 274.041C487.574 273.444 486.302 273 485.003 272.508C477.728 270.456 471.888 270.321 464.575 271.577C462.195 277.532 459.896 283.52 457.68 289.538C451.835 289.506 446.081 289.196 440.245 288.915C441.337 280.607 446.563 263.014 449.11 254.915C455.333 235.125 461.996 212.928 470.089 193.893Z"/><path d="M479.995 221.91C480.842 223.258 484.131 249.33 484.605 252.61L477.698 252.433L471.993 252.289C472.848 246.016 476.236 226.179 479.995 221.91Z"/><path fill="#F6F6F2" d="M432.81 192.181L434.576 191.997L435.098 192.446C434.743 201.853 432.911 216.232 431.995 225.906L425.732 292.117C417.858 293.483 409.227 294.05 401.072 295.429C396.592 287.897 391.91 276.055 388.625 267.849C382.666 252.852 376.951 237.759 371.483 222.577C368.646 214.827 365.65 206.393 363.404 198.486C369.894 197.991 377.054 197.786 383.605 197.463C399.892 219.631 396.697 242.775 410.182 265.779L414.535 194.527C420.621 193.704 426.713 192.922 432.81 192.181Z"/><path fill="#F6F6F2" d="M178.73 317.763C181.345 319.109 190.918 329.285 193.691 332.135C185.275 334.733 174.648 337.705 172.845 347.631C172.533 349.348 172.575 352.886 173.911 354.086C180.759 360.236 195.522 351.724 203.641 351.175C209.662 349.906 214.869 349.413 221.009 350.118C235.576 351.792 246.321 367.842 243.862 382.034C241.598 395.1 229.509 405.777 219.136 413.056C218.1 413.783 215.771 415.622 214.607 415.411C209.398 410.615 203.948 405.721 198.932 400.755C205.338 397.433 227.312 386.005 222.227 376.018C216.579 364.927 195.635 374.846 185.696 376.869C162.033 381.684 146.207 364.566 153.203 341.621C157.092 329.138 166.927 323.236 178.73 317.763Z"/><path fill="#246E3B" d="M696.227 614.681C704.535 616.442 708.022 618.583 714.963 623.136C712.752 633.508 707.779 638.239 704.188 647.748C722.006 659.084 739.17 671.852 757.129 683.042C759.854 684.74 761.969 687.163 763.904 689.685C760.113 697.467 758.791 700.128 751.449 705.009C743.85 701.462 737.505 697.564 730.312 693.258C717.031 684.969 703.266 675.934 689.833 668.095L678.117 688.278C669.029 687.282 667.561 686.321 659.57 682.307C662.52 670.131 669.758 662.379 675.642 652.201C682.536 640.278 691.144 627.323 696.227 614.681Z"/><path fill="#F6F6F2" d="M309.364 220.772L310.46 220.983C319.47 244.513 328.046 269.416 336.672 293.208C350.126 290.339 356.099 283.86 370.392 282.577C371.994 287.696 373.492 294.275 374.766 299.523L355.983 306.82L326.835 318.258C320.535 306.598 314.115 290.808 308.954 278.329C302.689 263.182 295.541 245.905 290.475 230.422C296.558 224.444 301.259 222.991 309.364 220.772Z"/><path fill="#246E3B" d="M770.112 522.556C804.727 532.563 793.081 558.477 813.458 569.377C828.015 566.405 829.524 558.09 837.47 547.328C839.284 565.368 835.252 581.477 827.088 597.465C822.003 608.014 813.25 618.543 802.271 623.254C805.001 613.323 811.278 605.076 808.342 594.194C805.889 585.097 797.33 583.55 790.444 579.536C776.075 571.161 779.434 553.267 776.844 539.793C775.982 535.31 771.955 529.461 770.112 522.556Z"/><path fill="#246E3B" d="M129.449 522.221L130.349 522.338C130.901 524.217 127.841 528.843 126.677 530.725C118.638 543.731 125.695 560.71 115.559 572.447C108.543 580.573 96.2677 582.073 91.6752 591.822C87.045 601.651 93.302 613.538 96.586 622.72C84.1437 618.481 78.2468 609.255 72.2934 598.125C64.0641 580.692 61.3089 566.662 61.0222 547.691C70.6703 558.366 70.3625 568.011 87.5086 568.883C106.882 555.866 97.2103 530.741 129.449 522.221Z"/><path fill="#246E3B" d="M758.574 440.285C773.599 439.782 785.531 443.875 797.082 453.423C804.933 459.913 808.788 461.367 812.3 471.627C804.147 470.07 789.656 468.555 781.645 471.633C776.112 473.758 774.438 479.411 772.226 484.546C768.13 491.35 762.667 492.371 755.454 493.904C756.634 488.857 757.309 484.67 757.692 479.72C759.855 462.239 749.729 458.002 736.349 451.009C733.254 449.391 729.932 447.125 727.557 444.283C738.166 442.617 747.822 440.915 758.574 440.285Z"/><path fill="#246E3B" d="M137.06 440.679C154.035 439.466 158.355 440.789 172.334 448.619C170.877 448.91 169.423 449.214 167.971 449.528C141.408 455.308 138.274 470.215 143.541 493.877C137.4 493.075 133.004 492.266 128.723 487.427C125.918 482.72 125.318 476.181 121.178 473.242C113.11 467.517 95.2065 470.662 85.8934 471.994C96.4733 451.167 114.602 443.268 137.06 440.679Z"/><path fill="#246E3B" d="M186.667 488.583L187.371 488.795C188.009 490.997 184.618 503.673 184.147 507.143C180.989 530.413 197.671 529.499 206.794 541.706C185.773 541.775 167.973 533.145 165.576 563.188C164.986 567.615 164.691 572.076 164.692 576.542C161.915 573.302 158.016 568.953 156.375 564.95C148.52 545.779 151.554 521.411 164.375 505.044C170.828 496.806 177.473 492.774 186.667 488.583Z"/><path fill="#246E3B" d="M711.834 490.205C737.64 498.403 749.852 526.856 745.346 551.88C743.263 563.446 742.013 569.967 734.069 578.614L734.003 565.389C731.499 525.407 708.117 548.302 693.117 539.54L692.552 539.204C720.238 522.448 718.625 521.285 711.834 490.205Z"/></svg>