<?xml version="1.0" encoding="utf-8"?>
<!-- Generator: Adobe Illustrator 27.9.3, SVG Export Plug-In . SVG Version: 9.03 Build 53313)  -->
<svg version="1.1" id="Layer_1" xmlns="http://www.w3.org/2000/svg" xmlns:xlink="http://www.w3.org/1999/xlink" x="0px" y="0px"
	 viewBox="0 0 892 600" style="enable-background:new 0 0 892 600;" xml:space="preserve">
<style type="text/css">
	.st0{fill:#FFFFFF;}
	.st1{fill:#002B7F;}
	.st2{fill:#939598;}
	.st3{fill:#FEFDFD;}
	.st4{fill:#C7102E;}
	.st5{fill:#C81010;}
	.st6{fill:#F8D000;}
	.st7{fill:#183070;}
	.st8{fill:#DD7500;}
	.st9{fill:#CE1126;}
	.st10{fill:#FFC72C;}
	.st11{fill:#FFFF00;}
	.st12{fill:#FCD116;}
	.st13{fill:#BD1021;}
	.st14{fill:#FFC221;}
	.st15{fill:#5A3719;}
	.st16{fill:#7B3C20;}
	.st17{fill:#AA5323;}
	.st18{fill:#999999;}
	.st19{fill:#D22730;}
	.st20{fill:#FED141;}
	.st21{fill:#002F6C;}
	.st22{fill:#007A33;}
	.st23{fill:#C10000;}
	.st24{fill:#FEDD00;}
	.st25{fill:#012169;}
	.st26{fill:none;}
	.st27{fill:#009543;}
	.st28{fill:#FDCE12;}
</style>
<g>
	<g>
		<defs>
			<path id="SVGID_00000165216738081719555090000003901155054100494246_" d="M30.9,0H861c17.2,0,31,13.8,31,30.9V569
				c0,17.1-13.8,30.9-30.9,30.9H30.9C13.8,600,0,586.2,0,569.1V30.9C0,13.8,13.8,0,30.9,0z"/>
		</defs>
		<use xlink:href="#SVGID_00000165216738081719555090000003901155054100494246_"  style="overflow:visible;fill:#CE1126;"/>
		<clipPath id="SVGID_00000089561355182034186350000010353342070418986881_">
			<use xlink:href="#SVGID_00000165216738081719555090000003901155054100494246_"  style="overflow:visible;"/>
		</clipPath>
	</g>
</g>
<path class="st1" d="M559.1,0H30.9C14.4,0,0.9,12.9,0,29.2v250.1h559V0z"/>
<g id="Layer_1_00000006686640485507404600000017807087065793235117_">
	<path class="st2" d="M861.1,6C874.8,6,886,17.2,886,30.9V569c0,13.8-11.2,24.9-24.9,24.9H30.9C17.2,594,6,582.8,6,569.1V30.9
		C6,17.2,17.2,6,30.9,6H861.1 M861.1,0H30.9C13.8,0,0,13.8,0,30.9l0,0V569c0,17.2,13.8,31,30.9,31H861c17.1,0,30.9-13.8,30.9-30.9
		V30.9C892,13.8,878.2,0,861.1,0z"/>
</g>
<polygon class="st0" points="294.4,239.5 318.4,222.1 288.7,222.1 279.6,193.9 270.4,222.1 240.7,222.1 264.7,239.5 255.6,267.7 
	279.6,250.3 303.6,267.7 "/>
<polygon class="st0" points="206,117.9 225.2,103.9 201.5,103.9 194.2,81.4 186.8,103.9 163.1,103.9 182.3,117.9 175,140.4 
	194.2,126.5 213.3,140.4 "/>
<polygon class="st0" points="291.4,46 310.6,32 286.9,32 279.6,9.5 272.2,32 248.5,32 267.7,46 260.4,68.6 279.6,54.6 298.8,68.6 
	"/>
<polygon class="st0" points="378,103.9 396,90.9 373.8,90.9 366.9,69.7 360,90.9 337.8,90.9 355.8,103.9 348.9,125.1 366.9,112 
	384.9,125.1 "/>
<polygon class="st0" points="329.7,164.3 341.7,155.6 326.8,155.6 322.3,141.5 317.7,155.6 302.9,155.6 314.8,164.3 310.3,178.4 
	322.3,169.7 334.3,178.4 "/>
</svg>
