<svg xmlns="http://www.w3.org/2000/svg" viewBox="0 0 782.98 876.28"><title>san lorenzo</title><g id="Layer_2" data-name="Layer 2"><g id="Layer_1-2" data-name="Layer 1"><path d="M391.49,876.28C162.23,775.89,0,534.4,0,253.61A713.12,713.12,0,0,1,22.34,75.94c38.11,15.36,84.52,24.37,134.76,24.37C266.24,100.31,360.28,57.84,391.49,0,422.7,57.84,516.73,100.31,625.87,100.31c50.25,0,96.66-9,134.77-24.37A713.21,713.21,0,0,1,783,253.61c0,280.79-162.24,522.28-391.49,622.67" style="fill:#e13035"/><path d="M391.49,853C173.71,749.26,21.61,518.69,21.61,252A688.74,688.74,0,0,1,38.24,101.17c35.36,11.25,76.33,17.68,120.14,17.68,104.1,0,194.85-36.26,233.11-87.34,38.24,51.08,129,87.34,233.1,87.34,43.82,0,84.79-6.43,120.14-17.68A689,689,0,0,1,761.36,252c0,266.68-152.1,497.26-369.87,601" style="fill:#133654"/><path d="M391.49,853C173.71,749.26,21.61,518.69,21.61,252A688.74,688.74,0,0,1,38.24,101.17c35.36,11.25,76.33,17.68,120.14,17.68,104.1,0,194.85-36.26,233.11-87.34,38.24,51.08,129,87.34,233.1,87.34,43.82,0,84.79-6.43,120.14-17.68A689,689,0,0,1,761.36,252C761.36,518.69,609.26,749.26,391.49,853Z" style="fill:none;stroke:#ec1e2a;stroke-width:3.28901007776022px"/><path d="M433.4,92c23.82,13.17,52.27,23.93,83.85,31.46V741.91a625.73,625.73,0,0,1-83.85,60.57Z" style="fill:#e13035"/><path d="M601.11,135.06q11.06.49,22.34.51a471.11,471.11,0,0,0,61.5-4v386A644,644,0,0,1,601.11,655Z" style="fill:#e13035"/><path d="M349.55,802.46a626.67,626.67,0,0,1-83.84-60.57V123.48c31.58-7.53,60-18.27,83.84-31.45Z" style="fill:#e13035"/><path d="M181.85,655A644.39,644.39,0,0,1,98,517.51V131.6a471.51,471.51,0,0,0,61.52,4q11.27,0,22.33-.51Z" style="fill:#e13035"/><path d="M395.65,202.1C511.49,202.1,606,296.59,606,412.43S511.49,622.75,395.65,622.75,185.33,528.28,185.33,412.43,279.81,202.1,395.65,202.1" style="fill:#fff"/><path d="M437.62,581V555.31a147.87,147.87,0,0,1-42,6.05c-82,0-148.93-66.91-148.93-148.92S313.63,263.5,395.65,263.5a147.8,147.8,0,0,1,42,6.05V243.87a173.23,173.23,0,0,0-42-5.14c-95.67,0-173.71,78-173.71,173.71s78,173.7,173.71,173.7a173,173,0,0,0,42-5.16" style="fill:#133654"/><path d="M413.5,280.57a131.25,131.25,0,0,1,24.11,5.61V517.64a113.61,113.61,0,0,0,40.07-27.2v26.64a132.39,132.39,0,0,1-64.18,27.21Z" style="fill:#133654"/><path d="M312.91,402.55v-67.4a113,113,0,0,0-30.12,67.4ZM332,529.23a135.67,135.67,0,0,1-19.11-12.71v-94.2H282.79a112.55,112.55,0,0,0,21.7,57.26H280.86A132.82,132.82,0,0,1,332,295.63V529.23Z" style="fill:#133654"/><path d="M402.37,309.19v51.64H382.31V324.56l0-2.73c0-4.65-6.57-6.78-9.35-6.78s-9.06,1-9.06,6.93c0,.2,0,22,0,22.19v31.12a21.35,21.35,0,0,0,1.29,4.2,26.73,26.73,0,0,0,3.3,5.82l29.18,31.21a27.09,27.09,0,0,1,3.23,5.75,20,20,0,0,1,1.45,5.24v95.64c-1.35,11.81-8.32,16.45-20,17.69-4.24.4-9,.24-10.1-.15-15.43-5-27.56-16.08-29.9-31.53V456.7h22.15v46c0,.32,0,.65,0,1,0,5.25,5.75,8.5,9.45,8.5s9.35-.41,9.46-8.5c0-.21,0-.41,0-.62V442.38a21.9,21.9,0,0,0-1.29-4.17,28.93,28.93,0,0,0-2.11-4.12l-33.56-36.36a27.47,27.47,0,0,1-2.58-4.83,19.27,19.27,0,0,1-1.46-5.37V305.19c1.09-9,6.3-16.42,13.32-19.68a43.94,43.94,0,0,1,11.64-3.1c18.21-1.81,33,9.72,35,26.78" style="fill:#133654"/><path d="M544.07,400a148,148,0,0,0-25.9-72.1V400ZM492.75,268.52a173.8,173.8,0,0,1,76.61,143.92c0,66-37.18,123.66-91.68,153V536.61a149.16,149.16,0,0,0,66.38-111.78h-25.9v39.46a133.67,133.67,0,0,1-25.41,39Z" style="fill:#133654"/><path d="M395.65,609.15c-108.47,0-196.72-88.25-196.72-196.72s88.25-196.72,196.72-196.72S592.37,304,592.37,412.43,504.12,609.15,395.65,609.15Zm0-388c-105.47,0-191.27,85.8-191.27,191.27S290.19,603.7,395.65,603.7s191.26-85.8,191.26-191.27S501.12,221.16,395.65,221.16Z" style="fill:#133654"/><path d="M455.14,431.14a9,9,0,0,0,8.24-4.78c1.88-3.19,2.82-7.83,2.82-14q0-9.51-3-14.49a9.55,9.55,0,0,0-8.69-5H443.61v38.21ZM458,404q1.58,2.7,1.58,8.16c0,3.72-.49,6.42-1.51,8.1a5.22,5.22,0,0,1-4.85,2.51h-3.14V401.3h3.14A5.19,5.19,0,0,1,458,404" style="fill:#133654"/><polygon points="468.89 431.14 468.89 392.93 485.92 392.93 485.92 401.15 475.29 401.15 475.29 407.25 485.09 407.25 485.09 415.4 475.29 415.4 475.29 422.78 486.29 422.78 486.29 431.14 468.89 431.14" style="fill:#133654"/></g></g></svg>