<?xml version="1.0" encoding="UTF-8" standalone="no"?>
<svg
   xmlns:dc="http://purl.org/dc/elements/1.1/"
   xmlns:cc="http://creativecommons.org/ns#"
   xmlns:rdf="http://www.w3.org/1999/02/22-rdf-syntax-ns#"
   xmlns:svg="http://www.w3.org/2000/svg"
   xmlns="http://www.w3.org/2000/svg"
   xmlns:sodipodi="http://sodipodi.sourceforge.net/DTD/sodipodi-0.dtd"
   xmlns:inkscape="http://www.inkscape.org/namespaces/inkscape"
   width="78.902611mm"
   height="87.3125mm"
   viewBox="0 0 78.902611 87.3125"
   version="1.1"
   id="svg232767"
   inkscape:version="1.0.1 (3bc2e813f5, 2020-09-07)"
   sodipodi:docname="hiroshima.svg">
  <defs
     id="defs232761" />
  <sodipodi:namedview
     id="base"
     pagecolor="#ffffff"
     bordercolor="#666666"
     borderopacity="1.0"
     inkscape:pageopacity="0.0"
     inkscape:pageshadow="2"
     inkscape:zoom="0.35"
     inkscape:cx="154.82158"
     inkscape:cy="259.28571"
     inkscape:document-units="mm"
     inkscape:current-layer="layer1"
     inkscape:document-rotation="0"
     showgrid="false"
     inkscape:window-width="1267"
     inkscape:window-height="728"
     inkscape:window-x="83"
     inkscape:window-y="0"
     inkscape:window-maximized="0" />
  <metadata
     id="metadata232764">
    <rdf:RDF>
      <cc:Work
         rdf:about="">
        <dc:format>image/svg+xml</dc:format>
        <dc:type
           rdf:resource="http://purl.org/dc/dcmitype/StillImage" />
        <dc:title></dc:title>
      </cc:Work>
    </rdf:RDF>
  </metadata>
  <g
     inkscape:label="Layer 1"
     inkscape:groupmode="layer"
     id="layer1"
     transform="translate(-64.870122,-79.563988)">
    <path
       class="cls-1"
       d="m 104.32958,79.563988 c 0.47911,0 0.92947,2.23264 3.56935,5.423494 2.07453,2.510522 5.11207,3.133361 5.22227,4.311965 0.82406,-0.201225 1.74874,-0.608466 3.35375,-1.844563 2.47219,-1.916429 3.31542,-4.177815 3.79453,-3.957426 0.4791,0.22039 0.82885,3.962217 2.69258,6.170901 a 13.415002,13.415002 0 0 0 3.35375,2.692583 c 0.77136,0.479107 1.43732,0.718661 1.21214,0.991752 -0.3737,0.407241 -4.18261,0.771362 -6.38171,3.080659 -1.22172,1.284008 -1.59063,3.463946 -1.59063,3.463946 0.82406,0.0527 5.11207,0.383291 7.18661,0.603671 1.43732,0.14853 5.93134,0.56056 6.12299,0.71387 0.19164,0.15332 0.091,0.17727 0.1054,2.78362 0,0.0288 1.36066,-1.20735 3.83286,-0.65638 4.98271,1.46607 5.80678,6.52065 5.58639,6.88956 -0.1629,0.27309 -2.14161,-0.27309 -2.362,0.66117 -0.14373,0.60847 0.74741,1.38462 1.24568,3.62684 a 14.92419,14.92419 0 0 1 -0.36413,7.80466 c 1.46607,-0.3258 2.6303,1.52835 2.19911,1.73437 a 3.9478434,3.9478434 0 0 0 -2.03621,2.13681 c -0.71387,1.53794 -0.22518,2.76445 -0.93426,6.30026 -0.22039,1.10195 -0.85281,3.27231 -2.08891,4.72879 0.55098,0.27789 0.90073,1.32234 0.95822,2.1464 0.0527,1.31755 -0.25393,2.47699 -0.60367,2.69258 -0.34975,0.2156 -1.27922,-0.3162 -2.45782,1.00613 l -1.15465,1.29359 c -0.44078,0.47911 -0.1102,0.66117 0.12936,0.61326 3.53102,-0.67554 6.09424,-1.77749 6.43441,-1.54752 0.26351,0.17727 0.13415,0.40724 -3.25314,7.61301 5.2031,4.5659 5.74928,4.93481 5.66305,5.27018 -0.0431,0.18207 -0.23477,0.30663 -1.32234,0.60368 -7.22015,1.9835 -20.7693,3.53581 -22.95403,2.00746 -0.55097,-0.38329 -0.47911,-0.86719 -0.8049,-0.87677 -0.32579,-0.01 -1.32233,1.27922 -6.08466,4.47007 a 52.09812,52.09812 0 0 1 -8.27897,4.35988 52.09812,52.09812 0 0 1 -8.278976,-4.35988 c -4.762326,-3.19085 -5.792407,-4.47965 -6.084661,-4.47007 -0.292256,0.01 -0.253928,0.47911 -0.804902,0.87677 -2.184728,1.52835 -15.73388,-0.0239 -22.954026,-2.00746 -1.087574,-0.29705 -1.279216,-0.42161 -1.322336,-0.60368 -0.06708,-0.31621 0.479107,-0.68512 5.663047,-5.27018 -3.387288,-7.1866 -3.516647,-7.43574 -3.253138,-7.61301 0.340166,-0.22997 2.90339,0.87198 6.43441,1.54752 0.239554,0.0479 0.570138,-0.11978 0.129359,-0.61326 l -1.140275,-1.30317 c -1.178604,-1.32234 -2.127236,-0.8049 -2.45782,-1.00613 -0.330584,-0.20122 -0.656377,-1.37504 -0.603675,-2.69258 0.03354,-0.82406 0.383286,-1.86852 0.934259,-2.1464 -1.236097,-1.43732 -1.868518,-3.62684 -2.088908,-4.72879 -0.709078,-3.53581 -0.220389,-4.76232 -0.934259,-6.30026 a 3.9478434,3.9478434 0 0 0 -2.036206,-2.13682 c -0.431196,-0.20601 0.733035,-2.06016 2.199103,-1.73436 a 14.92419,14.92419 0 0 1 -0.364122,-7.80466 c 0.479107,-2.24222 1.389411,-3.01838 1.245679,-3.62684 -0.220389,-0.95822 -2.199102,-0.38808 -2.361999,-0.66117 -0.220389,-0.36891 0.603676,-5.42349 5.586391,-6.88956 2.491357,-0.55097 3.832857,0.68512 3.832857,0.65637 0,-2.60634 -0.04791,-2.65425 0.105404,-2.78361 0.153315,-0.12936 4.700042,-0.56534 6.12299,-0.71387 2.088907,-0.22039 6.376919,-0.550972 7.18661,-0.603674 0,0 -0.368914,-2.179938 -1.590638,-3.463945 -2.1991,-2.309297 -6.008005,-2.673418 -6.381707,-3.080659 -0.244345,-0.273092 0.440779,-0.479107 1.21214,-0.991752 a 13.415002,13.415002 0 0 0 3.353753,-2.692583 c 1.88768,-2.199102 2.218264,-5.902601 2.692582,-6.156528 0.474316,-0.253926 1.322335,2.050579 3.794528,3.957426 1.605011,1.236097 2.529687,1.643338 3.353753,1.844563 0.110194,-1.183395 3.147732,-1.806234 5.222263,-4.311965 2.66863,-3.195645 3.11899,-5.428285 3.5981,-5.428285 z"
       id="path231974"
       style="fill:#ffffff;stroke-width:0.479107" />
    <path
       class="cls-2"
       d="m 104.32958,164.98881 a 46.861476,46.861476 0 0 0 13.60185,-8.65747 41.744612,41.744612 0 0 0 7.92444,-10.06125 h 0.1581 c 5.00188,0.71387 7.49324,-2.87465 8.73413,-4.31197 0.62763,-0.74261 1.10673,-1.25047 1.97871,-1.30317 0.33058,0 0.32579,0 0.44557,-0.0623 0.11978,-0.0623 0.091,-0.68991 0.091,-0.9103 a 3.6795435,3.6795435 0 0 0 -0.35454,-1.60501 1.2935895,1.2935895 0 0 0 -0.99175,-0.73783 11.134452,11.134452 0 0 0 2.73091,-5.84031 26.71981,26.71981 0 0 0 0.39287,-3.03755 8.8251551,8.8251551 0 0 1 0.321,-2.37158 4.0772024,4.0772024 0 0 1 0.52223,-1.01091 c 0.22518,-0.32579 0.87197,-1.02529 0.87197,-1.02529 0.23476,-0.25393 -0.0671,-0.47911 -0.98696,-0.47911 a 3.3537506,3.3537506 0 0 0 -0.71866,0.10541 18.99181,18.99181 0 0 0 1.03966,-5.82595 12.250772,12.250772 0 0 0 -1.20735,-5.55764 c -0.24434,-0.47911 -0.68512,-1.65292 -0.35454,-2.32367 0.55577,-1.13549 1.76312,-0.82886 1.94997,-1.07799 0.11019,-0.15332 -0.15811,-0.73783 -0.55097,-1.35588 -0.53181,-0.83844 -1.96914,-2.83152 -4.64734,-2.8411 -1.88769,0 -3.4352,1.58105 -4.04367,3.86639 a 7.1530707,7.1530707 0 0 0 -0.19164,1.05404 v -7.12912 l -1.07799,-0.11977 c -0.0862,0 -5.68222,-0.62284 -12.56699,-1.08758 0.45516,-3.80411 2.25181,-6.496692 5.10729,-7.665714 0.64679,-0.263509 1.15465,-0.421615 1.15465,-0.421615 0.4791,-0.158105 0.68991,-0.196434 0.66595,-0.392867 0,-0.105404 -0.17248,-0.229972 -0.60846,-0.512645 a 9.4575765,9.4575765 0 0 1 -1.10674,-0.8049 7.488446,7.488446 0 0 1 -1.99308,-2.601552 8.6670496,8.6670496 0 0 1 -0.70429,-1.945176 c -0.0815,-0.316211 -0.12936,-0.512645 -0.25393,-0.479107 -0.12457,0.03354 -0.58451,0.814482 -1.72,1.772697 a 10.981138,10.981138 0 0 1 -3.39686,2.045787 h -0.0479 l -0.52702,0.158106 c -0.33059,0.08145 -0.51265,0.129359 -0.51265,0.277882 0,0.148523 0.0815,0.22518 0.22039,0.40245 a 6.1709009,6.1709009 0 0 1 0.57972,0.886349 5.2078956,5.2078956 0 0 1 0.52223,2.611134 c -1.14028,-1.485233 -3.18128,-2.683001 -5.72533,-3.353751 0.28267,-0.210807 0.56055,-0.388077 0.8049,-0.5366 0.81448,-0.479107 1.55709,-0.785736 1.61459,-0.958214 a 0.18206074,0.18206074 0 0 0 -0.0383,-0.158109 1.595427,1.595427 0 0 0 -0.47911,-0.301837 l -0.80969,-0.479107 c -3.89993,-2.553642 -5.27018,-5.27018 -5.29892,-5.298926 -0.30663,-0.565347 -0.40725,-0.814483 -0.53181,-0.824065 -0.12457,-0.0096 -0.22519,0.258718 -0.53181,0.824065 0,0.02396 -1.399,2.745284 -5.298928,5.298926 l -0.809691,0.479107 a 1.595427,1.595427 0 0 0 -0.479107,0.301837 0.18206074,0.18206074 0 0 0 -0.03833,0.158106 c 0.05749,0.172478 0.80011,0.479107 1.614593,0.958214 0.244343,0.148523 0.522227,0.325793 0.804899,0.5366 -2.544058,0.680333 -4.585057,1.878101 -5.749287,3.353751 a 5.2078956,5.2078956 0 0 1 0.522227,-2.611134 6.1709009,6.1709009 0 0 1 0.57972,-0.886349 c 0.138941,-0.17727 0.225179,-0.287464 0.22039,-0.40245 -0.0048,-0.114986 -0.182062,-0.196434 -0.512646,-0.277882 l -0.527018,-0.158106 h -0.04791 a 10.981138,10.981138 0 0 1 -3.344168,-2.045787 c -1.135486,-0.958215 -1.571472,-1.78707 -1.724787,-1.796652 -0.153316,-0.0096 -0.17248,0.186851 -0.253926,0.479107 a 8.6670496,8.6670496 0 0 1 -0.699498,1.969131 7.488446,7.488446 0 0 1 -1.988296,2.596761 9.4575765,9.4575765 0 0 1 -1.106736,0.8049 c -0.435989,0.282673 -0.598885,0.407241 -0.608468,0.512644 -0.02395,0.196434 0.196435,0.234763 0.665959,0.392868 0,0 0.507855,0.158106 1.15465,0.421615 2.874642,1.173813 4.652131,3.866395 5.107284,7.665718 -6.884771,0.47911 -12.456789,1.07799 -12.566984,1.08757 l -1.077991,0.11978 v 7.15786 a 7.1530707,7.1530707 0 0 0 -0.191643,-1.05404 c -0.608466,-2.28534 -2.155982,-3.87597 -4.043665,-3.86639 -2.678209,0 -4.115531,2.00267 -4.64734,2.8411 -0.392868,0.61805 -0.661168,1.20256 -0.550973,1.35588 0.186852,0.24913 1.394202,-0.0575 1.949966,1.07799 0.330584,0.67075 -0.110194,1.82061 -0.354539,2.32367 a 12.250772,12.250772 0 0 0 -1.20735,5.55764 18.99181,18.99181 0 0 0 1.034871,5.80678 3.3537506,3.3537506 0 0 0 -0.718661,-0.1054 c -0.919885,0 -1.221723,0.22039 -0.98696,0.47911 0,0 0.646794,0.69949 0.871975,1.02529 a 4.0772024,4.0772024 0 0 1 0.522227,1.01091 8.8251551,8.8251551 0 0 1 0.321001,2.37158 26.71981,26.71981 0 0 0 0.392868,3.03754 11.134452,11.134452 0 0 0 2.730912,5.84032 1.2935895,1.2935895 0 0 0 -0.991752,0.7522 3.6795435,3.6795435 0 0 0 -0.35454,1.60501 c 0,0.22039 0,0.83843 0.09103,0.9103 0.09103,0.0719 0.114986,0.0431 0.44557,0.0623 0.871975,0.0527 1.351082,0.56055 1.978713,1.30317 1.240888,1.46607 3.732245,5.04021 8.734124,4.31197 h 0.158107 a 41.744612,41.744612 0 0 0 7.924432,10.06125 46.861476,46.861476 0 0 0 13.601856,8.6383 z M 77.61456,111.03175 v 4.54194 a 2.2518039,2.2518039 0 0 0 -1.245679,-0.79053 h -0.03833 a 9.4719497,9.4719497 0 0 0 1.284007,-3.75141 z m -1.772697,11.94893 c 0.162897,-0.1581 0.426406,0.10541 0.546183,0.77137 0.05749,0.29704 0.249135,0.2683 0.479107,0.0287 a 4.7910721,4.7910721 0 0 0 0.723452,-0.88156 v 2.87465 c 0,0.14852 0,0.29225 0,0.44077 -1.02529,-1.0684 -2.00746,-2.86985 -1.748742,-3.23397 z m 56.486737,-8.20231 h -0.0383 a 2.2518039,2.2518039 0 0 0 -1.24568,0.79053 v -4.53715 a 9.4719497,9.4719497 0 0 0 1.28401,3.74662 z m -1.28879,11.41233 c 0,-0.14852 0,-0.29225 0,-0.44077 v -2.87465 a 4.7910721,4.7910721 0 0 0 0.72345,0.88156 c 0.25393,0.23955 0.44557,0.2683 0.47911,-0.0288 0.11977,-0.66596 0.38328,-0.92947 0.54618,-0.77137 0.28746,0.38808 -0.67075,2.18952 -1.74874,3.23398 z"
       id="path231976"
       style="fill:#59358c;stroke-width:0.479107" />
    <path
       class="cls-3"
       d="m 104.32958,85.576784 a 14.79004,14.79004 0 0 0 4.40778,4.091575 c -1.24088,0.785736 -2.71653,1.988295 -3.01358,3.425617 a 6.8224868,6.8224868 0 0 0 -0.14852,1.331918 2.8746434,2.8746434 0 0 0 1.03487,2.429074 2.5440593,2.5440593 0 0 0 2.11765,0.426405 c 0.89593,-0.220389 1.80624,-1.087573 2.78362,-2.663836 l 0.0958,-0.172479 c 0,0.07666 0.0239,0.138941 0.0239,0.143732 0.4791,2.841106 1.43732,3.435199 2.18472,3.430408 0.74741,-0.0048 1.27922,-0.431196 1.72,-1.236097 a 6.1948563,6.1948563 0 0 0 0.65638,-2.874643 4.9683419,4.9683419 0 0 0 -0.55577,-2.424282 12.236398,12.236398 0 0 0 3.46395,-2.23264 7.2680565,7.2680565 0 0 0 2.39553,3.118988 c -2.00746,0.76178 -5.18873,3.684335 -5.70137,8.796406 -3.74662,-0.22997 -7.80466,-0.40245 -11.46504,-0.40245 -3.66038,0 -7.718415,0.17248 -11.465031,0.40245 -0.53181,-5.126445 -3.693918,-8.048999 -5.701378,-8.777242 a 7.2680565,7.2680565 0 0 0 2.395535,-3.118988 12.236398,12.236398 0 0 0 3.463947,2.23264 4.9683419,4.9683419 0 0 0 -0.555765,2.424282 6.1948563,6.1948563 0 0 0 0.656378,2.874644 c 0.440777,0.8049 1.03487,1.236096 1.719993,1.236096 0.685125,0 1.705623,-0.589301 2.184731,-3.430407 0,0 0,-0.06708 0,-0.143732 l 0.09582,0.172478 c 0.958215,1.576263 1.887683,2.443447 2.783613,2.663836 a 2.5440593,2.5440593 0 0 0 2.117657,-0.426405 2.8746434,2.8746434 0 0 0 1.03487,-2.448238 6.8224868,6.8224868 0 0 0 -0.14853,-1.331918 c -0.29704,-1.437322 -1.77269,-2.639881 -3.013581,-3.425617 a 14.79004,14.79004 0 0 0 4.431741,-4.091575 z"
       id="path231978"
       style="fill:#c09949;stroke-width:0.479107" />
    <path
       class="cls-2"
       d="m 98.019737,99.547549 a 0.38807684,0.38807684 0 0 0 0.0527,0.177271 0.2587179,0.2587179 0 0 0 0.229971,0.100613 0.21559825,0.21559825 0 0 0 0.239554,-0.225182 0.19643396,0.19643396 0 0 0 -0.08624,-0.167687 2.0266235,2.0266235 0 0 0 -0.297047,-0.08624 0.6899144,0.6899144 0 0 1 -0.316209,-0.124569 0.57971973,0.57971973 0 0 1 -0.196435,-0.479107 0.59409296,0.59409296 0 0 1 0.618048,-0.632422 0.57971973,0.57971973 0 0 1 0.550974,0.253927 0.795318,0.795318 0 0 1 0.100613,0.287465 l -0.412033,0.07187 c -0.02875,-0.158105 -0.100613,-0.22039 -0.249137,-0.215599 a 0.19643396,0.19643396 0 0 0 -0.201223,0.201227 0.15810538,0.15810538 0 0 0 0.09103,0.148521 1.3175449,1.3175449 0 0 0 0.273092,0.07187 0.69949655,0.69949655 0 0 1 0.316209,0.124568 0.55576438,0.55576438 0 0 1 0.22039,0.479108 0.69949655,0.69949655 0 0 1 -0.12936,0.45036 0.6563769,0.6563769 0 0 1 -0.512644,0.225187 0.73782513,0.73782513 0 0 1 -0.435988,-0.10062 0.52222688,0.52222688 0 0 1 -0.215599,-0.297046 1.1019466,1.1019466 0 0 1 -0.04791,-0.225179 z"
       id="path231980"
       style="fill:#59358c;stroke-width:0.479107" />
    <path
       class="cls-2"
       d="m 99.562462,98.129393 c 0,0.100612 0,0.182061 0,0.359331 v 1.288798 a 3.0279575,3.0279575 0 0 0 0.02394,0.359328 h -0.431194 a 2.5153129,2.5153129 0 0 0 0,-0.354536 v -1.29359 c 0,-0.17727 0,-0.249136 0,-0.35454 z"
       id="path231982"
       style="fill:#59358c;stroke-width:0.479107" />
    <path
       class="cls-2"
       d="m 100.76981,99.073233 c 0.0575,0.100613 0.0958,0.177271 0.14853,0.277884 a 2.6830004,2.6830004 0 0 1 0,-0.354539 v -0.546185 a 2.3955361,2.3955361 0 0 0 0,-0.359329 h 0.42161 a 2.8315237,2.8315237 0 0 0 0,0.364121 l 0.0288,1.269635 a 3.5310202,3.5310202 0 0 0 0,0.35933 h -0.42641 a 3.2196005,3.2196005 0 0 0 -0.1581,-0.297047 l -0.37371,-0.646795 a 2.2613861,2.2613861 0 0 1 -0.14852,-0.287462 c 0,0.105402 0,0.239554 0,0.354539 v 0.536599 a 3.5262291,3.5262291 0 0 0 0,0.373706 h -0.416823 c 0,-0.091 0,-0.196435 0,-0.373706 l -0.02875,-1.260052 a 2.5775968,2.5775968 0 0 0 0,-0.354539 h 0.426403 a 1.6529199,1.6529199 0 0 0 0.14853,0.292256 z"
       id="path231984"
       style="fill:#59358c;stroke-width:0.479107" />
    <path
       class="cls-2"
       d="m 102.60479,98.685158 c -0.0383,-0.225181 -0.13894,-0.335376 -0.30662,-0.335376 -0.16769,0 -0.36892,0.234763 -0.36892,0.642005 0,0.407241 0.14373,0.637211 0.3785,0.637211 a 0.27788219,0.27788219 0 0 0 0.25392,-0.153315 0.44556971,0.44556971 0 0 0 0.0575,-0.210807 l 0.40245,0.07666 a 1.0971555,1.0971555 0 0 1 -0.16289,0.45036 0.62283938,0.62283938 0 0 1 -0.5366,0.263514 0.6899144,0.6899144 0 0 1 -0.57014,-0.268305 1.3079627,1.3079627 0 0 1 -0.22518,-0.795316 1.2935895,1.2935895 0 0 1 0.23476,-0.809692 0.69470548,0.69470548 0 0 1 0.55098,-0.253927 0.62763045,0.62763045 0 0 1 0.57013,0.321002 0.92467695,0.92467695 0 0 1 0.11978,0.335375 z"
       id="path231986"
       style="fill:#59358c;stroke-width:0.479107" />
    <path
       class="cls-2"
       d="m 104.38707,100.03145 a 1.6768753,1.6768753 0 0 0 -0.31621,0 h -0.60846 c -0.14374,0 -0.20123,0 -0.28268,0 a 2.4865665,2.4865665 0 0 0 0,-0.359332 v -1.346291 a 2.6973736,2.6973736 0 0 0 0,-0.354539 h 0.89593 a 2.3284611,2.3284611 0 0 0 0.28747,0 v 0.479105 a 2.3284611,2.3284611 0 0 0 -0.28747,0 h -0.47911 v 0.321004 h 0.41683 a 1.8493539,1.8493539 0 0 0 0.28746,0 v 0.479107 a 1.6241735,1.6241735 0 0 0 -0.28746,0 h -0.41683 v 0.412033 h 0.47911 a 1.7487414,1.7487414 0 0 0 0.31142,0 z"
       id="path231988"
       style="fill:#59358c;stroke-width:0.479107" />
    <path
       class="cls-2"
       d="m 105.58005,97.961705 a 1.0684091,1.0684091 0 0 0 0.23476,0 h 0.24435 a 1.4948145,1.4948145 0 0 0 0.23476,0 c 0,0.129359 0,0.234763 0,0.392868 v 1.284009 a 2.9273452,2.9273452 0 0 0 0,0.368908 h -0.42161 a 2.8171505,2.8171505 0 0 0 0,-0.368908 v -1.24568 h -0.0815 -0.23477 z"
       id="path231990"
       style="fill:#59358c;stroke-width:0.479107" />
    <path
       class="cls-2"
       d="m 107.06528,99.499638 a 0.44556971,0.44556971 0 0 0 0.0479,0.105405 0.22038932,0.22038932 0 0 0 0.18206,0.09103 0.26830004,0.26830004 0 0 0 0.24435,-0.172479 0.8288555,0.8288555 0 0 0 0.0671,-0.335376 0.47910721,0.47910721 0 0 1 -0.38329,0.177271 c -0.34496,0 -0.57014,-0.263509 -0.57014,-0.675542 a 0.6563769,0.6563769 0 0 1 0.64201,-0.733033 0.60367511,0.60367511 0 0 1 0.55576,0.364122 1.5858449,1.5858449 0 0 1 0.11978,0.661167 1.9547575,1.9547575 0 0 1 -0.1102,0.685123 0.6563769,0.6563769 0 0 1 -0.32579,0.373704 0.7761537,0.7761537 0 0 1 -0.25872,0.0479 0.57971973,0.57971973 0 0 1 -0.44557,-0.18685 0.78573585,0.78573585 0 0 1 -0.14852,-0.292256 z m 0.50306,-0.833646 a 0.27309112,0.27309112 0 1 0 -0.54139,0 c 0,0.186854 0.10541,0.31142 0.26351,0.31142 a 0.28267327,0.28267327 0 0 0 0.27788,-0.31142 z"
       id="path231992"
       style="fill:#59358c;stroke-width:0.479107" />
    <path
       class="cls-2"
       d="m 108.5553,99.585879 a 0.30662861,0.30662861 0 0 0 0.0431,0.110194 0.22038932,0.22038932 0 0 0 0.18207,0.09103 0.26350897,0.26350897 0 0 0 0.24913,-0.167688 0.87197515,0.87197515 0 0 0 0.0719,-0.330583 0.44077864,0.44077864 0 0 1 -0.38808,0.167687 c -0.34495,0 -0.56534,-0.273089 -0.56055,-0.685122 a 0.66116795,0.66116795 0 0 1 0.65638,-0.718661 0.59888403,0.59888403 0 0 1 0.55097,0.373702 1.528352,1.528352 0 0 1 0.1054,0.66117 2.0601611,2.0601611 0 0 1 -0.11977,0.685123 0.64679475,0.64679475 0 0 1 -0.33538,0.364119 0.7761537,0.7761537 0 0 1 -0.25872,0.0479 0.57492866,0.57492866 0 0 1 -0.44078,-0.201224 0.78573585,0.78573585 0 0 1 -0.14373,-0.292256 z m 0.51744,-0.814482 a 0.27309112,0.27309112 0 1 0 -0.54139,0 c 0,0.186851 0.0958,0.311419 0.25393,0.316211 a 0.28267327,0.28267327 0 0 0 0.28746,-0.316211 z"
       id="path231994"
       style="fill:#59358c;stroke-width:0.479107" />
    <path
       class="cls-2"
       d="m 109.89201,100.15602 a 2.7548665,2.7548665 0 0 0 -0.29225,0 1.5858449,1.5858449 0 0 1 0.0431,-0.287468 1.2504699,1.2504699 0 0 1 0.27788,-0.536601 2.3955361,2.3955361 0 0 1 0.34017,-0.316209 c 0.16768,-0.134152 0.20601,-0.196435 0.20601,-0.31142 a 0.19643396,0.19643396 0 0 0 -0.20601,-0.201226 0.20122503,0.20122503 0 0 0 -0.20123,0.114985 0.56534653,0.56534653 0 0 0 -0.0479,0.206018 l -0.41203,-0.0527 a 0.87676622,0.87676622 0 0 1 0.13894,-0.431197 0.55576438,0.55576438 0 0 1 0.51265,-0.234763 0.59409296,0.59409296 0 0 1 0.55097,0.325793 0.6372126,0.6372126 0 0 1 0.0671,0.287464 0.60846618,0.60846618 0 0 1 -0.17727,0.450361 3.2531381,3.2531381 0 0 1 -0.27788,0.253928 0.91988587,0.91988587 0 0 0 -0.28747,0.330584 h 0.45036 a 1.9643396,1.9643396 0 0 0 0.30663,0 v 0.479111 a 3.0519129,3.0519129 0 0 0 -0.32579,-0.0288 z"
       id="path231996"
       style="fill:#59358c;stroke-width:0.479107" />
    <path
       class="cls-1"
       d="m 69.891352,117.83986 a 18.460001,18.460001 0 0 0 1.437321,6.59731 c 1.15944,0.68512 2.247013,1.68646 2.683001,2.63988 a 9.8696087,9.8696087 0 0 1 0.613257,1.76312 2.1464004,2.1464004 0 0 1 2.050579,-0.98696 2.0457878,2.0457878 0 0 1 0.637213,0.19643 c -0.114986,-0.15811 -0.229972,-0.30663 -0.344958,-0.44078 -1.763114,-2.06974 -2.615925,-4.38862 -2.625507,-5.78761 a 2.8746434,2.8746434 0 0 1 0.03354,-0.47911 1.2744252,1.2744252 0 0 1 0.67075,-1.01092 0.88634837,0.88634837 0 0 1 0.867184,0.091 2.6973736,2.6973736 0 0 1 0.833647,1.21214 5.6486742,5.6486742 0 0 0 0.598884,-2.6255 5.9121831,5.9121831 0 0 0 -0.08624,-0.95822 2.2422218,2.2422218 0 0 0 -1.590636,-1.91643 c -0.618049,-0.18685 -1.437323,-0.0671 -1.978714,1.03008 v -0.0767 c -0.201223,-1.8733 2.706958,-3.5358 2.654256,-6.79374 a 5.102492,5.102492 0 0 0 -0.158106,-1.18339 c -0.440778,-1.64813 -1.509187,-2.67342 -2.874643,-2.74528 -1.202559,-0.0671 -2.395536,0.70428 -3.147734,1.7679 a 1.9978771,1.9978771 0 0 1 1.188186,1.11153 3.0423308,3.0423308 0 0 1 0.220389,1.15944 7.0189209,7.0189209 0 0 1 -0.699497,2.78361 10.262477,10.262477 0 0 0 -0.982169,4.65213 z"
       id="path231998"
       style="fill:#ffffff;stroke-width:0.479107" />
    <path
       class="cls-1"
       d="m 77.21211,133.78455 a 8.5520638,8.5520638 0 0 1 -0.239554,-1.67687 1.7343681,1.7343681 0 0 1 0.31142,-1.13549 0.85760192,0.85760192 0 0 1 0.507854,-0.32579 1.9164289,1.9164289 0 0 0 -1.25047,-1.16423 1.130693,1.130693 0 0 0 -1.087573,0.57493 c -0.790528,1.10674 -0.570138,3.35375 0.550973,4.92043 -1.796652,0.10061 -2.079326,-2.51531 -2.32367,-4.09637 a 10.58827,10.58827 0 0 0 -0.780945,-2.98963 4.5036079,4.5036079 0 0 0 -2.429074,-2.39553 11.498573,11.498573 0 0 1 0.479108,2.82194 27.553457,27.553457 0 0 0 0.354539,2.75966 9.745041,9.745041 0 0 0 2.045788,4.74795 c 0.929468,1.14027 1.949966,1.49481 2.692582,3.16211 -1.03008,-0.58451 -2.357207,-1.54273 -2.826732,0.40724 0.598884,0.18206 1.121111,0.78573 1.624173,1.38941 1.140275,1.3415 2.467402,4.26885 7.277638,4.13469 a 39.765899,39.765899 0 0 1 -2.395535,-5.69658 c -1.106738,-2.01704 -2.266177,-4.37904 -2.510522,-5.43787 z"
       id="path232000"
       style="fill:#ffffff;stroke-width:0.479107" />
    <path
       class="cls-1"
       d="m 138.76781,117.83986 a 18.460001,18.460001 0 0 1 -1.43732,6.59731 c -1.15945,0.68512 -2.24702,1.68646 -2.68301,2.63988 a 9.8696087,9.8696087 0 0 0 -0.60367,1.76312 2.1464004,2.1464004 0 0 0 -2.05058,-0.98696 2.0457878,2.0457878 0 0 0 -0.63721,0.19643 c 0.11498,-0.15811 0.22997,-0.30663 0.34496,-0.44078 1.76311,-2.06974 2.61592,-4.38862 2.6255,-5.78761 a 2.8746434,2.8746434 0 0 0 -0.0335,-0.47911 1.2744252,1.2744252 0 0 0 -0.67554,-1.0205 0.88634837,0.88634837 0 0 0 -0.86718,0.091 2.6973736,2.6973736 0 0 0 -0.83365,1.21214 5.6486742,5.6486742 0 0 1 -0.59888,-2.62551 5.9121831,5.9121831 0 0 1 0.0862,-0.95821 2.2422218,2.2422218 0 0 1 1.59064,-1.91643 c 0.61804,-0.18685 1.43732,-0.0671 1.97871,1.03008 v -0.0767 c 0.20122,-1.87331 -2.70696,-3.53581 -2.65426,-6.79374 a 5.102492,5.102492 0 0 1 0.15811,-1.18339 c 0.44078,-1.64813 1.50919,-2.67342 2.87464,-2.74529 1.20256,-0.0671 2.39554,0.70429 3.14774,1.76791 a 1.9978771,1.9978771 0 0 0 -1.18819,1.11153 2.9560914,2.9560914 0 0 0 -0.22039,1.15944 7.0189209,7.0189209 0 0 0 0.6995,2.78361 10.262477,10.262477 0 0 1 0.97738,4.66171 z"
       id="path232002"
       style="fill:#ffffff;stroke-width:0.479107" />
    <path
       class="cls-1"
       d="m 131.44705,133.78455 a 8.5520638,8.5520638 0 0 0 0.23955,-1.67687 1.7343681,1.7343681 0 0 0 -0.31142,-1.13549 0.85760192,0.85760192 0 0 0 -0.50785,-0.32579 1.9164289,1.9164289 0 0 1 1.25047,-1.16423 1.130693,1.130693 0 0 1 1.08757,0.57493 c 0.79053,1.10674 0.57014,3.35375 -0.55097,4.92043 1.79665,0.10061 2.07932,-2.51531 2.32367,-4.09637 a 10.58827,10.58827 0 0 1 0.78094,-2.98963 4.5036079,4.5036079 0 0 1 2.42908,-2.39553 11.498573,11.498573 0 0 0 -0.45515,2.82194 27.553457,27.553457 0 0 1 -0.35454,2.75966 9.745041,9.745041 0 0 1 -2.04579,4.74795 c -0.92947,1.14027 -1.94997,1.49481 -2.69259,3.16211 1.03009,-0.58451 2.35721,-1.54273 2.82674,0.40724 -0.59889,0.18206 -1.12111,0.78573 -1.62418,1.38941 -1.14027,1.3415 -2.4674,4.26885 -7.27764,4.13469 a 39.765899,39.765899 0 0 0 2.39554,-5.69658 c 1.08278,-2.01704 2.24222,-4.37904 2.48657,-5.43787 z"
       id="path232004"
       style="fill:#ffffff;stroke-width:0.479107" />
    <path
       class="cls-3"
       d="m 104.32958,103.19835 c -9.285098,0 -20.922615,1.10674 -24.472798,1.46607 v 21.08071 a 37.988412,37.988412 0 0 0 12.380132,28.74644 44.077864,44.077864 0 0 0 12.092666,8.00109 44.077864,44.077864 0 0 0 12.09267,-7.98193 38.874761,38.874761 0 0 0 8.50894,-11.3788 39.195761,39.195761 0 0 0 3.8616,-17.382 v -21.08072 c -3.5406,-0.36412 -15.17811,-1.47086 -24.46321,-1.47086 z"
       id="path232006"
       style="fill:#c09949;stroke-width:0.479107" />
    <path
       class="cls-2"
       d="m 125.93252,106.74374 c -0.11977,0 -12.28431,-1.22172 -21.60294,-1.2313 -9.318637,-0.01 -21.483169,1.21693 -21.602946,1.2313 l -0.57972,0.0671 v 19.50925 c 0.335375,12.36096 6.338588,20.83158 11.316513,25.76159 a 42.027284,42.027284 0 0 0 10.866153,7.82382 42.027284,42.027284 0 0 0 10.86615,-7.82382 c 4.97793,-4.93002 10.98114,-13.415 11.31651,-25.7616 v -19.50924 z"
       id="path232008"
       style="fill:#59358c;stroke-width:0.479107" />
    <path
       class="cls-4"
       d="m 122.18111,129.79359 h 2.75008 c 0.13894,-1.1259 0.22997,-2.29013 0.26351,-3.49269 v -18.32106 c -0.60847,-0.0671 -1.6625,-0.17248 -3.02796,-0.30184 z"
       id="path232010"
       style="fill:#9d9d9c;stroke-width:0.479107" />
    <path
       class="cls-4"
       d="m 116.07729,107.17973 v 22.61386 h 3.49748 v -22.34556 c -1.08278,-0.091 -2.26138,-0.18206 -3.49748,-0.2683 z"
       id="path232012"
       style="fill:#9d9d9c;stroke-width:0.479107" />
    <path
       class="cls-4"
       d="m 83.799834,129.85108 a 36.412149,36.412149 0 0 0 2.730911,10.29602 v -10.30081 z"
       id="path232014"
       style="fill:#9d9d9c;stroke-width:0.479107" />
    <path
       class="cls-4"
       d="m 98.321576,129.82234 h -3.296258 v 22.35035 a 37.66262,37.66262 0 0 0 3.296258,2.71654 z"
       id="path232016"
       style="fill:#9d9d9c;stroke-width:0.479107" />
    <path
       class="cls-4"
       d="m 110.07887,129.79359 h 3.41603 v -22.78634 c -1.12111,-0.0671 -2.27097,-0.12936 -3.41603,-0.17727 z"
       id="path232018"
       style="fill:#9d9d9c;stroke-width:0.479107" />
    <path
       class="cls-4"
       d="m 89.137089,145.12981 a 35.262291,35.262291 0 0 0 3.281885,4.37425 v -19.67214 h -3.281885 z"
       id="path232020"
       style="fill:#9d9d9c;stroke-width:0.479107" />
    <path
       class="cls-4"
       d="m 104.32958,129.79359 h 3.10941 v -23.05464 c -1.03967,-0.0288 -2.11287,-0.0431 -3.10941,-0.0431 z"
       id="path232022"
       style="fill:#9d9d9c;stroke-width:0.479107" />
    <path
       class="cls-4"
       d="m 104.32958,129.81275 h -3.44478 v 26.83001 a 31.23779,31.23779 0 0 0 3.44478,1.8254 z"
       id="path232024"
       style="fill:#9d9d9c;stroke-width:0.479107" />
    <polygon
       class="cls-1"
       points="134.15,109.57 141.15,113.68 122.44,128.57 122.45,105.07 130.02,107.99 120.01,83.41 110.02,107.99 117.59,105.07 117.6,128.57 98.89,113.68 105.89,109.57 80.42,102.1 93.43,125.23 95.86,117.48 116.13,133.59 106.07,141.6 99.77,140.56 80.19,154.74 90.5,157.07 90.46,167.64 108.68,151.76 109.07,145.39 117.6,138.61 117.6,149.91 112.87,154.19 111.78,178.33 120.02,171.72 128.26,178.33 127.17,154.19 122.44,149.91 122.44,138.61 130.97,145.39 131.36,151.76 149.58,167.64 149.54,157.07 159.84,154.74 140.27,140.56 133.97,141.6 123.91,133.59 144.17,117.48 146.61,125.23 159.61,102.08 "
       id="polygon232026"
       transform="matrix(0.47910721,0,0,0.47910721,46.836712,65.712998)"
       style="fill:#ffffff" />
    <path
       class="cls-2"
       d="m 113.78237,133.74622 -2.83153,0.51744 -5.70137,-4.53235 10.95239,-8.71017 1.02049,3.18606 4.66172,-8.43708 -9.26593,2.64467 2.87464,1.71042 -10.58827,8.4227 v -13.34314 l 3.13336,1.18819 -3.70829,-8.90181 -3.69392,8.90181 3.13336,-1.18819 v 13.33356 l -10.588266,-8.42271 2.874645,-1.71041 -9.270726,-2.63988 4.661713,8.4275 1.02529,-3.18607 10.952394,8.71017 -5.701378,4.53236 -2.826734,-0.50307 -7.962764,5.81157 3.952637,0.8624 c 0,0.68033 -0.04791,4.04366 -0.04791,4.04366 l 7.46449,-6.44878 0.134152,-2.87464 5.332457,-4.24489 v 7.01892 l -2.16556,1.91643 -0.40245,9.85523 3.13815,-2.55843 3.13336,2.55843 -0.39766,-9.85523 -2.16556,-1.91643 v -7.01892 l 5.33246,4.24489 0.13415,2.87464 7.46449,6.44878 c 0,0 -0.0431,-3.35375 -0.0479,-4.04366 l 3.95264,-0.8624 z"
       id="path232028"
       style="fill:#59358c;stroke-width:0.479107" />
    <path
       class="cls-3"
       d="m 104.32958,110.04958 c -0.5366,1.27443 -1.51877,3.54539 -2.00746,4.70483 0.81927,-0.31142 1.95476,-0.72824 2.00746,-0.7474 z"
       id="path232030"
       style="fill:#c09949;stroke-width:0.479107" />
    <path
       class="cls-3"
       d="m 102.51376,144.71778 c -0.0383,1.00133 -0.0767,1.91643 -0.10061,2.52969 l 1.35587,-1.10674 v -2.52011 z"
       id="path232032"
       style="fill:#c09949;stroke-width:0.479107" />
    <path
       class="cls-3"
       d="m 102.56646,143.43377 1.20256,-1.04924 v -1.2361 l -1.14985,0.95821 c -0.0144,0.41683 -0.0335,0.86719 -0.0527,1.32713 z"
       id="path232034"
       style="fill:#c09949;stroke-width:0.479107" />
    <path
       class="cls-3"
       d="m 104.89013,139.37094 v 1.47565 l 1.1834,0.95822 c -0.0383,-0.79532 -0.0623,-1.37983 -0.0719,-1.50919 z"
       id="path232036"
       style="fill:#c09949;stroke-width:0.479107" />
    <path
       class="cls-3"
       d="m 104.89013,143.45773 1.30797,1.06841 c -0.0239,-0.47911 -0.0479,-0.98697 -0.0671,-1.46128 l -1.24089,-1.01571 z"
       id="path232038"
       style="fill:#c09949;stroke-width:0.479107" />
    <path
       class="cls-3"
       d="m 104.88534,146.10719 1.43733,1.14507 c 0,-0.37371 -0.0431,-0.89114 -0.0671,-1.47565 l -1.37025,-1.11632 z"
       id="path232040"
       style="fill:#c09949;stroke-width:0.479107" />
    <path
       class="cls-3"
       d="m 119.89098,117.35597 c -1.33192,0.3737 -3.72266,1.0157 -4.9348,1.35587 l 1.83498,1.10674 z"
       id="path232042"
       style="fill:#c09949;stroke-width:0.479107" />
    <path
       class="cls-3"
       d="m 92.653736,136.75023 1.571471,0.28746 0.958215,-0.77136 -1.470858,-0.29705 z"
       id="path232044"
       style="fill:#c09949;stroke-width:0.479107" />
    <path
       class="cls-3"
       d="m 90.718144,138.28816 1.571472,0.28747 0.958212,-0.77137 -1.470858,-0.29705 z"
       id="path232046"
       style="fill:#c09949;stroke-width:0.479107" />
    <path
       class="cls-3"
       d="m 97.281912,136.03636 -1.159439,0.91988 v 1.52835 l 1.140275,-0.99654 c -0.01437,-0.22518 0.0048,-0.86718 0.01916,-1.45169 z"
       id="path232048"
       style="fill:#c09949;stroke-width:0.479107" />
    <path
       class="cls-3"
       d="m 94.081475,138.58041 v 1.68646 l 1.106739,-0.95821 v -1.60022 z"
       id="path232050"
       style="fill:#c09949;stroke-width:0.479107" />
    <path
       class="cls-3"
       d="m 92.006943,140.22854 v 1.83498 l 1.111528,-0.95821 v -1.76311 z"
       id="path232052"
       style="fill:#c09949;stroke-width:0.479107" />
    <path
       class="cls-3"
       d="m 88.796922,117.34638 c 0.661167,1.21215 1.8254,3.39687 2.429073,4.49882 0.268302,-0.82886 0.646797,-1.9835 0.66596,-2.03621 z"
       id="path232054"
       style="fill:#c09949;stroke-width:0.479107" />
    <path
       class="cls-3"
       d="m 113.8159,139.51947 -0.0719,-1.59543 -0.95821,-0.76657 0.0383,1.4996 z"
       id="path232056"
       style="fill:#c09949;stroke-width:0.479107" />
    <path
       class="cls-3"
       d="m 115.78503,141.09094 -0.0719,-1.59543 -0.95821,-0.76657 0.0383,1.4996 z"
       id="path232058"
       style="fill:#c09949;stroke-width:0.479107" />
    <path
       class="cls-3"
       d="m 112.08153,135.18355 1.15465,0.91988 1.49482,-0.32579 -1.22173,-0.88156 z"
       id="path232060"
       style="fill:#c09949;stroke-width:0.479107" />
    <path
       class="cls-3"
       d="m 115.28197,137.72281 1.64813,-0.35933 -1.18819,-0.86239 -1.56189,0.34017 z"
       id="path232062"
       style="fill:#c09949;stroke-width:0.479107" />
    <path
       class="cls-3"
       d="m 117.35171,139.37094 1.79187,-0.41203 c -0.30663,-0.2156 -0.72346,-0.52223 -1.19777,-0.86718 l -1.72479,0.37849 z"
       id="path232064"
       style="fill:#c09949;stroke-width:0.479107" />
    <path
       class="cls-2"
       d="m 140.34407,155.05212 c -0.89114,-0.77136 -3.22439,-2.91776 -3.96222,-3.59809 2.45782,-5.31809 2.74529,-5.74929 2.59197,-5.84511 -0.15331,-0.0958 -0.4791,0 -1.68646,0.30184 a 47.608884,47.608884 0 0 1 -5.39953,1.0157 1.6002181,1.6002181 0 0 0 -0.0815,-0.83843 c -0.1102,-0.22518 -0.25872,-0.55577 -1.86373,-0.70908 -2.041,-0.19644 -4.31196,-0.54139 -6.08945,-0.6468 a 81.4099,81.4099 0 0 0 -12.09746,0.091 c -5.50015,0.47911 -7.0812,0.81928 -7.35908,0.90073 -0.2731,-0.0814 -1.85415,-0.41683 -7.354302,-0.90073 a 81.4099,81.4099 0 0 0 -12.097457,-0.091 c -1.758323,0.10541 -4.048456,0.45036 -6.089453,0.6468 -1.6098,0.15331 -1.753533,0.4791 -1.863727,0.70908 a 1.6002181,1.6002181 0 0 0 -0.08145,0.83843 47.431616,47.431616 0 0 1 -5.399538,-1.0157 c -1.197767,-0.28747 -1.504396,-0.44078 -1.686456,-0.30184 -0.182061,0.13894 0.13415,0.52702 2.59197,5.84511 -0.737826,0.68033 -3.071078,2.82673 -3.962217,3.59809 -0.574929,0.47911 -0.795318,0.55577 0.22518,0.82407 1.207351,0.31621 2.395536,0.56534 3.588513,0.78573 3.97659,0.75699 10.760748,1.6625 14.071379,1.31755 h 0.249136 c 1.676877,-0.17248 1.887684,-0.3785 1.815817,-1.51877 a 10.760748,10.760748 0 0 1 0.0527,-1.81103 c 0.421613,0 0.848018,0 1.284007,0 5.380374,-0.0431 11.805198,1.22652 14.655888,1.75354 2.87464,-0.52702 9.28031,-1.79666 14.66068,-1.75354 0.43599,0 0.86239,0 1.27922,0 a 10.272059,10.272059 0 0 1 0.0575,1.81103 c -0.0719,1.14027 0.13894,1.34629 1.81102,1.51877 h 0.25393 c 3.31063,0.34495 10.09,-0.56056 14.07138,-1.31755 1.17861,-0.22039 2.39554,-0.4791 3.58852,-0.78573 1.02049,-0.2683 0.8001,-0.3258 0.22517,-0.82407 z"
       id="path232066"
       style="fill:#59358c;stroke-width:0.479107" />
    <path
       class="cls-4"
       d="m 86.827792,156.26426 a 15.470372,15.470372 0 0 1 0.04312,-1.57626 c -2.917764,0.12457 -5.270179,0.3785 -6.817695,0.5893 2.23743,0.84323 5.423495,1.02529 6.774575,0.98696 z"
       id="path232068"
       style="fill:#9d9d9c;stroke-width:0.479107" />
    <path
       class="cls-4"
       d="m 121.97031,156.26426 a 15.470372,15.470372 0 0 0 -0.0431,-1.57626 c 2.91776,0.12457 5.27018,0.3785 6.81769,0.5893 -2.23264,0.84323 -5.42349,1.02529 -6.77457,0.98696 z"
       id="path232070"
       style="fill:#9d9d9c;stroke-width:0.479107" />
    <path
       class="cls-3"
       d="m 72.004214,147.43911 c 0.06228,0.12936 1.916429,3.98617 2.088908,4.42216 -0.368913,0.31142 -3.430408,3.05191 -3.430408,3.05191 a 62.283938,62.283938 0 0 0 7.795075,1.23131 l -0.31142,-0.16769 a 1.2983806,1.2983806 0 0 1 -0.622839,-0.71866 c -1.916429,-0.21081 -3.866396,-0.56535 -5.13603,-0.81448 2.309297,-1.97872 1.0732,-0.93426 2.721329,-2.36679 0,0 -1.29838,-2.64468 -1.705622,-3.57414 0.804901,0.15331 2.242222,0.4264 3.789739,0.57493 -0.02875,-0.28747 -0.06228,-0.55098 -0.100613,-0.79532 -2.529686,-0.27309 -5.088119,-0.84802 -5.088119,-0.84802 z"
       id="path232072"
       style="fill:#c09949;stroke-width:0.479107" />
    <path
       class="cls-3"
       d="m 117.17444,152.57514 a 84.016241,84.016241 0 0 0 -12.77778,1.43732 83.925212,83.925212 0 0 0 -12.773003,-1.43732 90.268592,90.268592 0 0 0 -12.868822,0.66116 l 0.03354,0.78574 a 88.395283,88.395283 0 0 1 12.816118,-0.68033 82.914297,82.914297 0 0 1 12.792167,1.43732 83.086773,83.086773 0 0 1 12.79216,-1.43732 88.433611,88.433611 0 0 1 12.82091,0.68033 l 0.0335,-0.78574 a 90.268592,90.268592 0 0 0 -12.86883,-0.66116 z"
       id="path232074"
       style="fill:#c09949;stroke-width:0.479107" />
    <path
       class="cls-3"
       d="m 117.17444,145.97783 a 109.56703,109.56703 0 0 0 -12.77778,1.22652 109.33227,109.33227 0 0 0 -12.773003,-1.22652 97.780994,97.780994 0 0 0 -13.141913,0.70429 l 0.100613,0.76178 a 97.527065,97.527065 0 0 1 13.026925,-0.71387 107.84224,107.84224 0 0 1 12.787378,1.24568 108.08659,108.08659 0 0 1 12.79216,-1.24568 97.527065,97.527065 0 0 1 13.01255,0.72824 l 0.10061,-0.76178 a 97.780994,97.780994 0 0 0 -13.12754,-0.71866 z"
       id="path232076"
       style="fill:#c09949;stroke-width:0.479107" />
    <path
       class="cls-3"
       d="m 136.79388,147.43911 c -0.0623,0.12936 -1.91643,3.98617 -2.0889,4.42216 0.36891,0.31142 3.43041,3.05191 3.43041,3.05191 a 62.283938,62.283938 0 0 1 -7.79508,1.23131 l 0.31142,-0.16769 a 1.2983806,1.2983806 0 0 0 0.62284,-0.71866 c 1.91643,-0.21081 3.86639,-0.56535 5.13603,-0.81448 -2.3093,-1.97872 -1.0732,-0.93426 -2.72133,-2.36679 0,0 1.29838,-2.64468 1.70562,-3.57414 -0.8049,0.15331 -2.24222,0.4264 -3.78974,0.57493 0.0288,-0.28747 0.0623,-0.55098 0.0958,-0.79532 2.53448,-0.27309 5.09291,-0.84802 5.09291,-0.84802 z"
       id="path232078"
       style="fill:#c09949;stroke-width:0.479107" />
    <path
       class="cls-1"
       d="m 102.94017,152.43141 a 3.0998237,3.0998237 0 0 0 -0.51265,-0.091 l -0.95821,-0.11978 c -0.23476,-0.0288 -0.321,-0.0335 -0.47911,-0.0431 a 4.977924,4.977924 0 0 0 0,-0.60847 v -2.28055 a 5.9553028,5.9553028 0 0 0 0,-0.61326 c 0.12936,0.0239 0.2156,0.0383 0.47911,0.0671 l 0.99175,0.12457 a 2.8746434,2.8746434 0 0 0 0.47911,0.0239 v 0.78095 a 3.4064525,3.4064525 0 0 0 -0.47911,-0.0862 l -0.80969,-0.0958 v 0.61325 l 0.67075,0.0815 a 3.2435559,3.2435559 0 0 0 0.47911,0.0288 v 0.78095 a 3.2675113,3.2675113 0 0 0 -0.47911,-0.0862 l -0.67554,-0.0814 v 0.70428 l 0.8049,0.0958 a 3.1477344,3.1477344 0 0 0 0.50785,0.0335 z"
       id="path232080"
       style="fill:#ffffff;stroke-width:0.479107" />
    <path
       class="cls-1"
       d="m 95.355901,151.62171 a 2.9369274,2.9369274 0 0 0 -0.479107,-0.0623 l -0.924676,-0.0575 c -0.22039,0 -0.301837,0 -0.431197,0 a 4.3694578,4.3694578 0 0 0 0,-0.60846 v -2.28055 a 5.7924062,5.7924062 0 0 0 -0.02875,-0.61326 c 0.124568,0 0.206018,0.0239 0.431197,0.0383 l 0.958215,0.0623 a 2.5488504,2.5488504 0 0 0 0.435988,0 v 0.78094 a 2.3955361,2.3955361 0 0 0 -0.435988,-0.0527 l -0.766572,-0.0479 v 0.61326 l 0.632423,0.0383 a 2.256595,2.256595 0 0 0 0.440777,0 v 0.77137 a 2.8411059,2.8411059 0 0 0 -0.440777,-0.0575 l -0.632423,-0.0383 v 0.69949 l 0.756988,0.0479 a 2.6111344,2.6111344 0 0 0 0.479108,0 z"
       id="path232082"
       style="fill:#ffffff;stroke-width:0.479107" />
    <path
       class="cls-1"
       d="m 89.199372,150.69704 a 5.7492866,5.7492866 0 0 0 0.03354,0.72345 h -0.689914 a 6.6020974,6.6020974 0 0 0 0,-0.71387 v -2.16557 a 5.3324633,5.3324633 0 0 0 -0.02875,-0.60846 c 0.12936,0 0.22039,0 0.479108,0 h 0.929468 a 2.5967611,2.5967611 0 0 0 0.54139,-0.0335 v 0.79532 a 3.1716898,3.1716898 0 0 0 -0.536599,-0.0239 h -0.747408 v 0.68512 h 0.603676 a 2.7644487,2.7644487 0 0 0 0.512643,-0.0335 v 0.77136 a 3.6843346,3.6843346 0 0 0 -0.517435,0 h -0.603676 z"
       id="path232084"
       style="fill:#ffffff;stroke-width:0.479107" />
    <path
       class="cls-1"
       d="m 92.52917,151.47319 a 4.4940257,4.4940257 0 0 0 -0.177271,-0.67075 c -0.105405,-0.36891 -0.143732,-0.47911 -0.22997,-0.55576 a 0.33537506,0.33537506 0 0 0 -0.26351,-0.11978 h -0.34975 v 0.68512 a 5.7924062,5.7924062 0 0 0 0,0.63243 h -0.737826 a 5.0593723,5.0593723 0 0 0 0.03354,-0.62764 v -2.24701 a 4.8581471,4.8581471 0 0 0 0,-0.61326 h 0.507854 0.891139 a 0.84801977,0.84801977 0 0 1 0.867185,0.95822 1.0013341,1.0013341 0 0 1 -0.206015,0.68033 0.73303405,0.73303405 0 0 1 -0.325795,0.20602 c 0.17248,0.0671 0.249137,0.16769 0.359331,0.4791 0.04791,0.13415 0.09582,0.27789 0.244345,0.73304 0.03833,0.11978 0.07666,0.22518 0.162896,0.44557 z m -0.479108,-2.041 c 0.201224,0 0.325792,-0.14373 0.325792,-0.38328 0,-0.23956 -0.105404,-0.35933 -0.316211,-0.36412 h -0.54139 v 0.74261 z"
       id="path232086"
       style="fill:#ffffff;stroke-width:0.479107" />
    <path
       class="cls-1"
       d="m 81.088087,150.71141 a 0.66116795,0.66116795 0 0 0 0.09582,0.31142 0.40724114,0.40724114 0 0 0 0.368912,0.18685 0.35453934,0.35453934 0 0 0 0.364122,-0.40245 0.34495719,0.34495719 0 0 0 -0.143732,-0.29225 2.122445,2.122445 0 0 0 -0.479107,-0.15811 1.0252894,1.0252894 0 0 1 -0.507854,-0.22518 1.1115288,1.1115288 0 0 1 -0.335375,-0.80969 0.95821444,0.95821444 0 0 1 0.958214,-1.11153 0.89113942,0.89113942 0 0 1 0.876765,0.45036 1.327127,1.327127 0 0 1 0.177271,0.50306 l -0.651587,0.12936 c -0.04791,-0.27788 -0.162896,-0.38807 -0.397658,-0.37849 a 0.32579291,0.32579291 0 0 0 -0.316211,0.34975 0.30662861,0.30662861 0 0 0 0.158106,0.2683 c 0.06228,0.0383 0.06228,0.0383 0.431197,0.12457 a 1.2552609,1.2552609 0 0 1 0.512644,0.22038 1.0971555,1.0971555 0 0 1 0.373703,0.85761 1.3319181,1.3319181 0 0 1 -0.18206,0.80011 0.95821444,0.95821444 0 0 1 -0.800108,0.39765 1.1642305,1.1642305 0 0 1 -0.699498,-0.18206 0.95821444,0.95821444 0 0 1 -0.354539,-0.53181 1.8110253,1.8110253 0 0 1 -0.08624,-0.39765 z"
       id="path232088"
       style="fill:#ffffff;stroke-width:0.479107" />
    <path
       class="cls-1"
       d="m 84.748466,151.60255 c -0.04312,-0.19643 -0.07187,-0.30184 -0.114985,-0.44078 l -0.114985,-0.34496 -0.924677,0.0767 -0.05749,0.35933 a 3.0614951,3.0614951 0 0 0 -0.04791,0.47911 l -0.756989,0.0623 c 0.03833,-0.12936 0.05749,-0.22997 0.114985,-0.52222 l 0.479108,-2.54885 a 2.7261201,2.7261201 0 0 0 0.06707,-0.47911 l 0.848019,-0.0719 a 3.6172595,3.6172595 0 0 0 0.148524,0.44078 l 0.905512,2.43386 c 0.08145,0.2156 0.148524,0.38329 0.196435,0.47911 z m -0.857602,-2.68779 -0.201223,1.26963 0.613256,-0.0527 z"
       id="path232090"
       style="fill:#ffffff;stroke-width:0.479107" />
    <path
       class="cls-1"
       d="m 87.230242,149.7005 c 0.100613,0.17726 0.167688,0.30662 0.253926,0.4791 0,-0.19164 -0.03354,-0.38328 -0.04312,-0.61805 l -0.03354,-0.95821 a 6.3002599,6.3002599 0 0 0 -0.0527,-0.63721 l 0.689915,-0.0239 a 5.4474491,5.4474491 0 0 0 -0.0048,0.65637 l 0.08145,2.21348 a 6.094244,6.094244 0 0 0 0.0527,0.62284 l -0.709078,0.0383 a 4.4317417,4.4317417 0 0 0 -0.263509,-0.51744 l -0.642004,-1.14506 c -0.09103,-0.1629 -0.148524,-0.28747 -0.249134,-0.50307 0,0.18686 0.03833,0.41683 0.04312,0.61805 l 0.03833,0.95822 a 6.1421544,6.1421544 0 0 0 0.04791,0.64679 l -0.689914,0.0288 a 5.5959724,5.5959724 0 0 0 0,-0.65638 l -0.08145,-2.1991 c 0,-0.23955 0,-0.4264 -0.04791,-0.61804 l 0.699494,-0.0287 a 3.0854504,3.0854504 0 0 0 0.249137,0.51264 z"
       id="path232092"
       style="fill:#ffffff;stroke-width:0.479107" />
    <path
       class="cls-1"
       d="m 97.305867,149.44178 c -0.06228,-0.3785 -0.239553,-0.56535 -0.522226,-0.56535 -0.407242,0 -0.642004,0.39766 -0.642004,1.08757 0,0.68992 0.244346,1.09237 0.656376,1.09237 a 0.47910721,0.47910721 0 0 0 0.435988,-0.26351 0.80490012,0.80490012 0 0 0 0.100613,-0.35933 l 0.689915,0.12936 a 1.7056217,1.7056217 0 0 1 -0.277882,0.76178 1.0779912,1.0779912 0 0 1 -0.929468,0.45515 1.2025591,1.2025591 0 0 1 -0.958215,-0.47911 2.2326397,2.2326397 0 0 1 -0.383286,-1.35587 2.1991022,2.1991022 0 0 1 0.397659,-1.37025 1.2073502,1.2073502 0 0 1 0.958215,-0.43599 1.0827823,1.0827823 0 0 1 0.958215,0.54619 1.4852324,1.4852324 0 0 1 0.206015,0.57013 z"
       id="path232094"
       style="fill:#ffffff;stroke-width:0.479107" />
    <path
       class="cls-1"
       d="m 100.05594,149.74361 c -0.06229,-0.37849 -0.23955,-0.56534 -0.527014,-0.56534 -0.40245,0 -0.637212,0.40245 -0.637212,1.08757 0,0.68512 0.244342,1.09237 0.656375,1.09237 a 0.47910721,0.47910721 0 0 0 0.435989,-0.26351 0.95821444,0.95821444 0 0 0 0.100612,-0.35933 l 0.68991,0.12936 a 1.7631146,1.7631146 0 0 1 -0.27788,0.76178 1.0779912,1.0779912 0 0 1 -0.929467,0.4791 1.2073502,1.2073502 0 0 1 -0.958215,-0.4791 2.2182664,2.2182664 0 0 1 -0.388075,-1.36067 2.1703557,2.1703557 0 0 1 0.40245,-1.37024 1.2073502,1.2073502 0 0 1 0.958215,-0.43599 1.0827823,1.0827823 0 0 1 0.958212,0.54618 1.4804413,1.4804413 0 0 1 0.20602,0.57493 z"
       id="path232096"
       style="fill:#ffffff;stroke-width:0.479107" />
    <path
       class="cls-1"
       d="m 111.86594,151.66962 a 4.5706829,4.5706829 0 0 0 -0.15811,-0.63242 c -0.1054,-0.35453 -0.14373,-0.44557 -0.22518,-0.52701 a 0.26830004,0.26830004 0 0 0 -0.24913,-0.0862 l -0.33059,0.0335 v 0.68512 a 5.6438832,5.6438832 0 0 0 0.0239,0.62763 l -0.6947,0.0767 a 5.2941347,5.2941347 0 0 0 0.0288,-0.62763 v -2.2518 a 5.572017,5.572017 0 0 0 -0.0288,-0.60847 c 0.14373,0 0.2635,0 0.4791,-0.0383 l 0.83844,-0.091 c 0.52223,-0.0575 0.82886,0.25872 0.82886,0.86239 a 1.1833948,1.1833948 0 0 1 -0.19165,0.70429 0.81927335,0.81927335 0 0 1 -0.30663,0.24435 c 0.1629,0.0479 0.23956,0.13415 0.34017,0.42161 0.0479,0.12457 0.0958,0.26351 0.23955,0.69949 0.0383,0.11499 0.0767,0.2156 0.15811,0.42641 z m -0.47911,-1.97871 a 0.37370364,0.37370364 0 0 0 0.30663,-0.42161 c 0,-0.23476 -0.10061,-0.34496 -0.30184,-0.32579 l -0.50785,0.0575 v 0.74261 z"
       id="path232098"
       style="fill:#ffffff;stroke-width:0.479107" />
    <path
       class="cls-1"
       d="m 115.17177,149.66696 c 0.0239,1.10194 -0.4791,1.85893 -1.26005,1.91643 -0.78094,0.0575 -1.31275,-0.6468 -1.3415,-1.75354 -0.0288,-1.10673 0.47911,-1.83498 1.25526,-1.87331 0.77616,-0.0383 1.31755,0.61326 1.34629,1.71042 z m -0.67074,0.0431 c 0,-0.68033 -0.2683,-1.0732 -0.65638,-1.05404 -0.38808,0.0192 -0.62763,0.44557 -0.60847,1.11632 0.0192,0.67075 0.2683,1.09237 0.66117,1.06841 0.39287,-0.0239 0.61805,-0.44557 0.60368,-1.13069 z"
       id="path232100"
       style="fill:#ffffff;stroke-width:0.479107" />
    <path
       class="cls-1"
       d="m 115.97668,150.21314 a 0.6372126,0.6372126 0 0 0 0.0815,0.31142 0.43119651,0.43119651 0 0 0 0.37849,0.19643 0.35933041,0.35933041 0 0 0 0.39766,-0.37849 0.34495719,0.34495719 0 0 0 -0.13415,-0.29226 2.3045057,2.3045057 0 0 0 -0.47911,-0.16768 1.0971555,1.0971555 0 0 1 -0.51743,-0.24435 1.0540359,1.0540359 0 0 1 -0.31142,-0.80011 0.95821444,0.95821444 0 0 1 1.03487,-1.04924 0.95821444,0.95821444 0 0 1 0.89593,0.4791 1.3750377,1.3750377 0 0 1 0.1629,0.47911 l -0.68513,0.0958 c -0.0383,-0.27309 -0.15331,-0.38328 -0.39766,-0.38328 a 0.32100184,0.32100184 0 0 0 -0.34495,0.32579 0.28746434,0.28746434 0 0 0 0.15331,0.2683 c 0.0623,0.0383 0.0623,0.0383 0.44557,0.13894 a 1.3606645,1.3606645 0 0 1 0.52223,0.23955 1.0300805,1.0300805 0 0 1 0.34975,0.85281 1.2265145,1.2265145 0 0 1 -0.22518,0.76657 1.0300805,1.0300805 0 0 1 -0.85281,0.35454 1.2121413,1.2121413 0 0 1 -0.71867,-0.20601 0.95821444,0.95821444 0 0 1 -0.34974,-0.53181 1.9451753,1.9451753 0 0 1 -0.0719,-0.38808 z"
       id="path232102"
       style="fill:#ffffff;stroke-width:0.479107" />
    <path
       class="cls-1"
       d="m 108.64154,148.55543 a 4.3502935,4.3502935 0 0 0 -0.0287,0.62763 v 2.25659 a 4.7910721,4.7910721 0 0 0 0.0287,0.62284 l -0.70428,0.0958 a 5.5911813,5.5911813 0 0 0 0,-0.62763 v -0.81927 l -1.09716,0.14852 v 0.81928 a 5.7061669,5.7061669 0 0 0 0,0.62284 l -0.70429,0.0958 a 4.4317417,4.4317417 0 0 0 0.0287,-0.62763 v -2.26139 a 4.3934131,4.3934131 0 0 0 -0.0287,-0.62284 l 0.70429,-0.0958 a 6.1373636,6.1373636 0 0 0 0,0.62763 v 0.6995 l 1.09716,-0.14853 v -0.69949 a 5.107283,5.107283 0 0 0 0,-0.61805 z"
       id="path232104"
       style="fill:#ffffff;stroke-width:0.479107" />
    <path
       class="cls-1"
       d="m 109.78661,148.41649 a 4.9922972,4.9922972 0 0 0 -0.0287,0.62284 v 2.25659 a 5.1168652,5.1168652 0 0 0 0.0287,0.61805 l -0.72345,0.0814 a 5.2941347,5.2941347 0 0 0 0.0288,-0.62763 v -2.2518 a 4.9012668,4.9012668 0 0 0 -0.0288,-0.61805 z"
       id="path232106"
       style="fill:#ffffff;stroke-width:0.479107" />
    <path
       class="cls-1"
       d="m 120.21198,147.87989 a 5.0737455,5.0737455 0 0 0 -0.0239,0.60846 v 2.21827 a 5.6390921,5.6390921 0 0 0 0.0239,0.60847 h -0.70429 a 4.1730239,4.1730239 0 0 0 0.0288,-0.60847 v -0.8049 h -1.10194 v 0.8049 a 5.3324633,5.3324633 0 0 0 0.0287,0.60847 h -0.71866 a 5.0737455,5.0737455 0 0 0 0.0239,-0.60847 v -2.21827 a 5.2222688,5.2222688 0 0 0 -0.0239,-0.60846 h 0.70429 a 5.572017,5.572017 0 0 0 -0.0288,0.60846 v 0.68992 h 1.10195 v -0.68992 a 4.0963667,4.0963667 0 0 0 -0.0288,-0.60846 z"
       id="path232108"
       style="fill:#ffffff;stroke-width:0.479107" />
    <path
       class="cls-1"
       d="m 121.44329,147.89426 a 3.923888,3.923888 0 0 0 -0.0335,0.61326 l -0.0239,2.21347 a 4.4748614,4.4748614 0 0 0 0,0.61326 h -0.72825 a 4.0915757,4.0915757 0 0 0 0.0335,-0.61326 l 0.0239,-2.21826 a 4.3790399,4.3790399 0 0 0 0,-0.61326 z"
       id="path232110"
       style="fill:#ffffff;stroke-width:0.479107" />
    <path
       class="cls-1"
       d="m 123.04351,151.40612 a 4.2688454,4.2688454 0 0 0 -0.11499,-0.62284 l -0.25872,-1.11632 c 0,0 -0.0862,-0.41204 -0.0958,-0.44557 -0.0288,-0.14853 -0.0288,-0.14853 -0.0431,-0.20602 0,0.25872 0,0.59888 0,0.81927 l -0.0383,0.90073 a 4.7910721,4.7910721 0 0 0 0,0.64679 l -0.65158,-0.0288 a 5.0785366,5.0785366 0 0 0 0.0527,-0.642 l 0.091,-2.16078 c 0,-0.24913 0,-0.4791 0,-0.65158 l 0.87197,0.0383 a 4.446115,4.446115 0 0 0 0.10062,0.5893 l 0.42161,1.81102 0.57014,-1.7679 a 3.2243916,3.2243916 0 0 0 0.14373,-0.57972 l 0.87677,0.0383 a 5.4187026,5.4187026 0 0 0 -0.0527,0.6468 l -0.091,2.16077 a 4.6329669,4.6329669 0 0 0 0,0.642 h -0.65159 a 6.0559154,6.0559154 0 0 0 0.0527,-0.642 l 0.0383,-0.90551 c 0,-0.10062 0.0288,-0.41204 0.0383,-0.54139 l 0.0239,-0.27789 c -0.0862,0.31621 -0.12457,0.47911 -0.17248,0.61326 l -0.36891,1.1259 a 4.4604882,4.4604882 0 0 0 -0.16769,0.60368 z"
       id="path232112"
       style="fill:#ffffff;stroke-width:0.479107" />
    <path
       class="cls-1"
       d="m 127.06322,151.684 c 0,-0.20123 0,-0.30663 -0.0383,-0.45036 l -0.0575,-0.36412 -0.91989,-0.0719 -0.11498,0.34495 a 2.7596576,2.7596576 0 0 0 -0.11978,0.44078 l -0.75699,-0.0623 a 4.0245006,4.0245006 0 0 0 0.20122,-0.47911 l 0.90072,-2.44344 a 3.2291827,3.2291827 0 0 0 0.14374,-0.44078 l 0.84323,0.0719 a 3.1429433,3.1429433 0 0 0 0.0719,0.47911 l 0.4791,2.55364 c 0.0431,0.22518 0.0815,0.40245 0.11499,0.52223 z m -0.39766,-2.7932 -0.40724,1.22173 0.60846,0.0479 z"
       id="path232114"
       style="fill:#ffffff;stroke-width:0.479107" />
  </g>
</svg>
