<?xml version="1.0" encoding="utf-8"?>
<!-- Generator: Adobe Illustrator 24.0.0, SVG Export Plug-In . SVG Version: 6.00 Build 0)  -->
<svg version="1.1" id="Layer_1" xmlns="http://www.w3.org/2000/svg" xmlns:xlink="http://www.w3.org/1999/xlink" x="0px" y="0px"
	 viewBox="0 0 650 650" style="enable-background:new 0 0 650 650;" xml:space="preserve">
<style type="text/css">
	.st0{fill:#F7BE00;}
	.st1{fill:#002F84;}
	.st2{fill-rule:evenodd;clip-rule:evenodd;fill:#070308;}
	.st3{fill-rule:evenodd;clip-rule:evenodd;fill:#9F3025;}
	.st4{fill-rule:evenodd;clip-rule:evenodd;fill:#FFFFFF;}
</style>
<g>
	<path class="st0" d="M192.7,118.6C221.4,82.1,300.7,9,408.9,9C484.6,9,542,52.1,542.2,52.2v0c-42.7-20.8-211.7-54.6-344.8,68.5
		L192.7,118.6L192.7,118.6z"/>
	<path class="st1" d="M533.4,131.5c2.9,0,5.8,0.2,8.6,0.7v-23.5c-5.2-0.7-10.7-1.1-16.6-1.1c-41.3,0-72.5,24.7-72.5,57.8
		c0,2.3,0.1,4.5,0.4,6.6c-6.1-10.2-19.5-15.4-38.6-19.3c-24.4-4.9-27.7-7.1-27.2-12.5c0.5-5.1,8.7-9.8,20.9-9.8
		c7.8,0,18.3,1.9,27.6,6.2V112c-9-2.7-18.8-4.6-29.4-4.6c-30.7,0-51.4,14.7-53,35c0,0.1,0,0.3,0,0.4c-7.4-19.9-24.8-34.9-54.7-34.9
		c-35.9,0-60.5,26.3-60.5,58.1c0,0.8,0,1.6,0.1,2.4c-6.8-14.7-24.4-21.4-48.2-26.6c-28.1-6-32.1-8.8-32.1-15.2
		c0-6.2,7.2-11.4,18.4-11.2c8.7,0.2,13.9,2.3,16.3,3.1c6.9-8.6,14.4-16.9,22.3-24.7c-11.8-4.3-24.6-6.5-38.5-6.5
		c-33.4,0-56.8,16.7-56.8,41.9c0,19.3,10.1,28.1,27.7,34.1c0.9,0.3,3.7,1.2,5.3,1.7c6.1,1.8,12.9,3.3,20.4,4.9
		c27.6,5.9,29.9,10.9,29.9,16.4c0,6.4-7.7,10.3-20.5,10.3c-14.7,0-28.3-4.3-42.5-13.5c-7.3,9.9-14.8,20.7-18.8,27.3
		c17.8,9.7,38.6,15.7,60.4,15.7h0.4c35.6,0,58.1-15.4,59.2-40.6c7.5,22.9,28.7,37.9,57.2,37.9c5.5,0,13.4-0.2,26.4-3.4v-24.4
		c-12.1,3.5-17.3,3.9-24.4,3.5c-14.2-0.7-25.8-8.7-29.1-22.8h85.9c0.2-2.9,0.4-4.7,0.4-7.8v-0.4c0-3-0.2-6-0.5-9
		c6.5,9,20.8,12.7,40.5,16.6c23.9,4.9,25.2,8.5,25.2,14.1c0,4.9-6.4,10.6-20.5,10.2c-14.5-0.5-31.5-4.8-44.6-12.2V216
		c13.7,6.1,31,9.9,44.5,9.9c32.3,0,54.5-18.9,54.5-39.4c0-0.5,0-0.9,0-1.3c5.7,13.4,17,23.6,29.8,29.8c12.7,6.2,26.4,8.1,37.6,8.2
		c6.6,0,12.3-0.4,17.8-1.3v-23.9c-2.8,0.4-5.6,0.7-8.6,0.7c-23.9,0-43.3-15.1-43.3-33.6C490,146.5,509.5,131.5,533.4,131.5z
		 M271.4,156.8c2.9-14.1,12.7-23.3,27.8-23.3c15.3,0,24.9,9.4,27,23.3H271.4z"/>
	<path class="st0" d="M153.9,165.4c-8.7,10.1-25.8,33.7-32.7,45c-6.7-3.9-10.3-6.5-13.4-8.9c10.4-11.4,26.3-28.2,39.4-38.3
		C147.1,163.2,153.1,165.1,153.9,165.4L153.9,165.4z"/>
	<g>
		<path class="st2" d="M332.6,641c42.2-17.8,78.3-46.8,103.6-85.1c24.3-36.8,38.4-80.5,38.4-125.4V288.6h-142h-142v141.9
			c0,44.9,14.1,88.6,38.4,125.4C254.3,594.2,290.4,623.2,332.6,641L332.6,641z"/>
		<g>
			<g>
				<path class="st3" d="M322.5,299.1H201.5v107.5h120.9V299.1z M463.7,331.4H332.6v42.7h131.1V331.4z M235.1,544.9h195.1
					c8.4-13.5,15.4-27.8,20.7-42.7H214.4C219.7,517.2,226.7,531.5,235.1,544.9z M201.5,416.8v13.3c0,9.9,0.7,19.7,2.1,29.4h257.9
					c1.4-9.7,2.1-19.5,2.1-29.4v-13.3H201.5z M332.6,629.3c23.4-10,44.7-24.3,62.9-41.6H269.7C287.9,605.1,309.2,619.3,332.6,629.3z
					"/>
			</g>
		</g>
		<g>
			<g>
				<path class="st4" d="M263.4,382.7v-7.4c-4.7,2.2-10.5,2.9-15.6,2.3c-14.4-1.8-23.6-13.4-23.6-27.7c0-13.1,8.5-25.4,21.8-25.4
					c5.4,0,10.4,2.5,12.7,8.7c2.1-4.7,2.4-14.7,0.6-19c-1.2-0.1-2.5-0.1-3.7-0.1c-5.2,0-10.3,1-14.5,2.5
					c-9.9,3.4-18.3,10.9-23.3,20.1c-3.4,6.2-4.9,11.8-8.7,11.8c4.4,19.4,18.4,35.5,39.1,36.6C253.2,385.1,258.3,384.4,263.4,382.7z
					 M255.5,311.8c16.4,0,27.6,9,27.6,25.5c0,6.1-1.9,12.2-6.1,16.6h7.8c8.7-8.8,7.1-19.8,13-19.8c-8.1-20.2-19.4-30-44.6-29.4
					c-7.6,0.1-11.3,0.1-17.5-2.1l4.6,11.9C244.4,313,249.9,311.8,255.5,311.8z M250.1,387c-3.2,0-6.4-0.4-9.5-1.1
					c0,6.8-1.6,9.9-4.4,12.1c3.6,3.7,12.9,5.4,20.6,3.2C251.7,398,250.1,393.1,250.1,387z M301.7,352c-1.7,2.1-4,3.9-9.7,3.9H275
					v-26.1h5.1c-0.7-2.8-2-5.4-3.5-7.6h-2.3c-4.4,0-8.5-0.6-12.8-2.3l3.7,9.8v26c4.6,1.5,7.7,4.2,11,7.6h10.4c5.8,0,8.2,3.9,7.7,9.4
					C304.8,367.4,303.1,355.4,301.7,352z M275,387.2V381c-2.6-4-5.8-8.6-9.5-11.6V386c0,6.1-1.6,9.8-4.5,11.8
					c3.6,3.7,12.9,5.4,20.6,3.2C276.6,398,275,392.3,275,387.2z M311.9,317.1c-1.8,3.2-5,5.1-10.9,5.1h-7c1.5,2.3,2.8,4.9,4.2,7.6
					c5.6,0,7.2,5.9,6.4,9.4C315.2,333.8,313.2,320.5,311.9,317.1z M290,383.8c-5-5.5-9.9-15-18.7-22.3c-6.1-5.1-14.4-6.1-21.2-6.1
					v-28.2c-3.2-0.9-6.3-0.7-9.5,0.1v46.3c3,1.3,6.3,2,9.5,2.2v-12.6c11.3,0,16.4,3,22.1,10.3c6.1,7.8,13.9,22.9,21.3,28
					c4.4-0.8,14-7.7,14.7-16.5C302.3,389.2,295.5,389.8,290,383.8z"/>
			</g>
		</g>
	</g>
</g>
</svg>
