<?xml version="1.0" encoding="UTF-8"?>
<svg xmlns="http://www.w3.org/2000/svg" version="1.1" viewBox="0 0 500 500">
  <defs>
    <style>
      .cls-1 {
        fill: #f9f9fa;
      }

      .cls-2 {
        fill: #c9d1e4;
      }

      .cls-3 {
        fill: #2a4163;
      }

      .cls-4 {
        fill: #f8f6f5;
      }

      .cls-5 {
        fill: #b5bcc7;
      }

      .cls-6 {
        fill: #5870ae;
      }

      .cls-7 {
        fill: #efdbda;
      }

      .cls-8 {
        fill: #c9d1e3;
      }

      .cls-9 {
        fill: #fff;
      }

      .cls-10 {
        fill: #f7f4f4;
      }

      .cls-11 {
        fill: #801817;
      }

      .cls-12 {
        fill: #f3e5e3;
      }

      .cls-13 {
        fill: #546580;
      }

      .cls-14 {
        fill: #1d3459;
      }

      .cls-15 {
        fill: #fafbfb;
      }

      .cls-16 {
        fill: #445c91;
      }

      .cls-17 {
        fill: #b7c2db;
      }

      .cls-18 {
        fill: #2e4875;
      }

      .cls-19 {
        fill: #314a79;
      }

      .cls-20 {
        fill: #ecd5d4;
      }

      .cls-21 {
        fill: #1e385f;
      }

      .cls-22 {
        fill: #f5eae9;
      }

      .cls-23 {
        fill: #3e5688;
      }

      .cls-24 {
        fill: #748097;
      }

      .cls-25 {
        fill: #e9cecc;
      }

      .cls-26 {
        fill: #ddd;
      }

      .cls-27 {
        fill: #b3bdd8;
      }

      .cls-28 {
        fill: #f4e8e7;
      }

      .cls-29 {
        fill: #f3e7e6;
      }

      .cls-30 {
        fill: #f4e8e6;
      }

      .cls-31 {
        fill: #a01818;
      }

      .cls-32 {
        fill: #1b355a;
      }

      .cls-33 {
        fill: #4a629a;
      }

      .cls-34 {
        fill: #f5eae8;
      }

      .cls-35 {
        fill: #f3e6e5;
      }

      .cls-36 {
        fill: #66758e;
      }

      .cls-37 {
        fill: #f6f7f8;
      }

      .cls-38 {
        fill: #445875;
      }

      .cls-39 {
        fill: #e7eaf1;
      }

      .cls-40 {
        fill: #c5cde1;
      }

      .cls-41 {
        fill: #576fac;
      }

      .cls-42 {
        fill: #fefefe;
      }

      .cls-43 {
        fill: #435a8f;
      }

      .cls-44 {
        fill: #c1cadf;
      }

      .cls-45 {
        fill: #fbf7f6;
      }

      .cls-46 {
        fill: #1c355b;
      }

      .cls-47 {
        fill: #fdfdfd;
      }

      .cls-48 {
        fill: #f6f1f0;
      }
    </style>
  </defs>
  <!-- Generator: Adobe Illustrator 28.7.1, SVG Export Plug-In . SVG Version: 1.2.0 Build 142)  -->
  <g>
    <g id="Layer_1">
      <g>
        <path class="cls-6" d="M452.5,363.6c-2.1,1.3-3.8,3.1-5.7,4.7-5.8,4.9-11.7,9.6-17.7,14.1-1.2.9-2.1,2-2.8,3.3-6.5,12.2-14.5,23.4-23.9,33.7-15.1,16.5-32.8,29.5-53,39-13.2,6.2-27,10.5-41.4,13.1-6.7,1.2-13.5,2-20.3,2.3-4.1.2-8.3.4-12.4.3-14.9-.4-29.5-2.5-43.8-6.7-11-3.2-21.5-7.5-31.6-12.9-1.1-.6-2.2-.8-3.4-.8-7.3,0-14.5,0-21.8,0-7.4,0-14.7-.3-22-1.1-10.2-1.2-20.1-3.5-29.5-7.7-10.1-4.5-18.7-11-25.1-20.1-4.1-5.8-6.8-12.2-8-19.2-.6-3.4-1.3-6.9-1.7-10.3-.4-3.7-.4-7.3,0-11,1.6-13.3,6.8-25.1,14.1-36.2.5-.8,1-1.5,1.6-2.3.4-.5.7-1.1.6-1.8,0-3-.2-6.1-.3-9.1,0-.2-.1-.3-.2-.5.2-1.1.1-2.1,0-3.2-.4-4.2-.5-8.5,0-12.7.1-.1.1-.2,0-.4.5-.9-.1-2,.5-2.9.1-.1.1-.2,0-.4.5-.7-.2-1.7.6-2.4h0c.6-.6-.1-1.6.6-2.2h0c.4-.4,0-1.2.6-1.7h0c.2-.3.2-.8.5-1.1.1,0,.2-.2,0-.3.2-.4.2-.9.5-1.3h0c.4-1.3.5-2.8,1.7-3.8h0c.3-.3.2-.8.6-1.1h0c.3-.3.2-.8.6-1.1h0c.2-.3.2-.8.5-1.1v-.9c.7-2.2-.2-4.6.5-6.8,0-.3,0-.6,0-.9.6-1.3-.2-2.8.5-4.1.1-.1.1-.3,0-.5.7-1.3-.2-2.7.5-4,.1-.1.1-.2,0-.4.5-.9-.1-2,.5-3,.1-.1.1-.2,0-.4.3-1.9.5-3.8,1.1-5.7h0c.6-.8-.2-2,.6-2.8h0c.5-.6,0-1.6.6-2.2h0c.4-1.5.5-3,1.1-4.4h0c.6-.6-.1-1.6.6-2.2h0c.4-.5,0-1.2.5-1.7h0c.5-1,0-2.4,1.1-3.3.1,0,.2-.2,0-.3.4-.6,0-1.4.6-1.8h0c.4-1.5.3-3.2,1.6-4.4h0c.6-2.1.6-4.4,2.3-6h0c.2-.3.1-.8.5-1.1h0c.3-.3.2-.8.5-1.1h0c.5-.4,0-1.3.7-1.6h0c.2-.3.2-.8.6-1.1h0c.3-.3.2-.8.5-1.1h0c.6-1.3.8-2.7,1.8-3.8h0c.3-1.2.6-2.5,1.7-3.3h0c0-.2.3-.4.5-.6h0c.7-1.5.7-3.4,2.3-4.4h0c.3-.3.2-.9.6-1.1h0c.3-1.8,1.6-3.1,2.7-4.5h0c.6-2.2,1.8-3.9,3.4-5.5h0c2.5-4.7,5.9-8.7,9.4-12.7h0c1.2-3.1,4.1-4.8,6.1-7.2h0c0-.3.3-.5.6-.6h0c.1-.2.3-.4.6-.6h0c.1-.2.3-.4.6-.6h0c.1-.2.3-.4.6-.6h0c.1-.2.3-.4.6-.6h0c.2-.5.6-.8,1.1-1.1h0c.2-.2.4-.4.6-.6h0c.2-.2.4-.4.6-.6h0c.2-.2.4-.4.6-.6h0c.2-.2.4-.4.6-.6h0c.2-.2.4-.4.6-.6h0c.2-.2.4-.4.6-.6h0c.2-.2.4-.4.6-.5h0c.2-.2.4-.4.6-.5h0c.2-.2.4-.4.6-.5h0c.2-.2.4-.4.6-.5h0c.2-.2.3-.4.6-.5h0c.2-.5.6-.9,1.2-1.1h0c.1-.3.3-.5.6-.6h0c1.9-1.8,3.7-3.9,5.9-5.5,2.2-1.6.8-3.4.2-5.1h0c-1.1-.6-1.4-1.8-2-2.8-1.1-1.8-2.4-3.2-4.8-2.1h0c-.4.6-1.2,0-1.6.6h0c-1.1,1.1-2.5,1.3-3.9,1.6h0c-.3.4-.8.3-1.2.5h0c-1.4,1.8-3.6,1.6-5.5,2.2h0c-1.4.7-2.7,1.8-4.4,1.7h0c-.3.3-.8.3-1.2.5h0c-1.5,1.5-3.6,1.7-5.5,2.2h0c-1.7,1.2-3.5,1.9-5.5,2.2h0c-.8,1.2-2.2,1.2-3.4,1.6h0c-1.6.8-3,2.2-5,2.2h0c-.3.4-.8.3-1.2.5h0c-1.2.7-2.5,1.4-3.9,1.7h0c-.3.4-.8.3-1.2.5h0c-.3.4-.8.3-1.2.5h0c-.7.8-1.8.9-2.7,1.2h0c-.3.3-.8.3-1.1.5h0c-.2.1-.4.3-.6.5-1.7,1.1-3.6,2-5.2.6-1.7-1.5-1.3-3.6-.2-5.4h0c.6-.4,0-1.3.7-1.6h0c.2-.3.1-.8.6-1.1h0c.2-.3.1-.8.6-1.1h0c.1-.8.2-1.7,1.1-2.2h0c.2-.3.2-.9.6-1.1h0c.4-1.2.7-2.4,1.7-3.3h0c.3-.3.2-.8.6-1.1h0c.3-.3.2-.8.6-1.1h0c.3-.7.4-1.6,1.1-2.2h0c.3-.3.2-.8.6-1.1h0c.3-.3.2-.8.6-1.1h0c1.6-3-1.7-3.4-2.8-5h0c-.3-.3-.9-.2-1.1-.6h0c-1.2-.1-2-.9-2.8-1.6h0c-.8-.4-1.6-.4-2.4,0h0c-.9.8-1.7,1.7-2.8,2.3h0c-1,1.8-2.7,2.9-4.4,3.9h0c-.2.2-.3.4-.6.6h0c-.2.5-.6.9-1.2,1h0c-3.9,4.1-7.8,8.2-11.9,12.1-.9.9-1.8,1.5-3,1.7h0c-.3.4-.9.3-1.3.5h-.2s-.2,0-.2,0c-1.7.4-3.3.4-5,0h0c-1.2-.4-2.6-.4-3.3-1.7h0c-.3,0-.5-.3-.6-.5h0c-.2-.1-.4-.3-.6-.6h0c-.3,0-.5-.3-.6-.6h0c-.5-.1-.4-.7-.6-1h0c-.4-.3-.4-.8-.6-1.3,0-.1,0-.2,0-.3-.4-1.8-.5-3.7,0-5.5h0c.6-.8-.2-1.9.6-2.8h0c.5-.6,0-1.6.5-2.2.1-.1.1-.3,0-.4.5-.7,0-1.7.5-2.4.1,0,.1-.2,0-.3.5-.7-.1-1.7.6-2.4h0c.5-.6,0-1.6.6-2.2h0c.6-.6,0-1.6.5-2.2.1,0,.1-.2,0-.3.3-.6,0-1.3.5-1.9.1-.1.1-.2,0-.4.3-1.4.3-2.8,1-4,.1-.1.1-.2,0-.4.3-1.2.4-2.4,0-3.5h0c-.5-.5-1.2,0-1.7-.6h0c-.5-.5-1.2,0-1.7-.5h0c-1.2-.6-2.8.1-3.8-1.2h0c-.5-.4-1.2,0-1.7-.5h0c-.6-.6-1.6.1-2.2-.6h0c-1.4-.6-3.2.4-4.4-1.2h0c-.5-.3-1.2,0-1.7-.4h-.2c0-.1-.2,0-.2,0-.7-.5-1.7.1-2.4-.6h0c-2.2-.6-4.8.2-6.6-1.7h0c-.4-.2-.9-.1-1.1-.6h0c-.3,0-.5-.2-.6-.5h0c-.7-.3-1.3-.9-1.7-1.7h0c-.5-.5-.8-1.1-1.1-1.7h0c-1.4-1.3-1.2-3.4-2.3-4.9h0c-.7-.6-.7-1.5-1.1-2.2h0c-.6-.7,0-1.6-.5-2.4,0-.3,0-.6,0-.9,0-.9,0-1.9.5-2.8h0c.6-.6,0-1.6.6-2.2h0c.6-.6-.1-1.6.6-2.2h0c.6-.6-.1-1.6.6-2.2h0c.4-.5,0-1.2.5-1.7h0c.5-1.2.1-2.7,1.1-3.9h0c.5-1.2,0-2.8,1.1-3.9h0c.6-1.2,0-2.8,1.2-3.8h0c.6-1.3,0-1.9-1.2-2.3h-.1c0-.1-.2,0-.2,0-.6-.3-1.3,0-1.9-.5h0c-2.3-.4-4.6-.6-6.6-1.7h0c-.7-.5-1.6.2-2.2-.6h0c-3-.5-6.1-1.1-9,.6h0c-.2.4-.8.3-1.1.6h0c-2.4,1.8-5.1,3-7.8,4.4h0c-.2.4-.8.3-1.1.6h0c-.3.4-.8.3-1.1.6h0c-1.4,1.4-3.2,1.9-5,2.2h0c-1.1.5-2.2.5-3.3,0h0c-4.5-.8-6.2-2.4-7.2-7.2h0c-.5-1.1-.5-2.2,0-3.3h0c.3-3.9,3.2-6.2,5.6-8.8h0c.1-.2.3-.4.6-.6h0c.1-.2.3-.4.5-.6h0c.7-1.5,1.8-2.7,2.9-3.8h0c0-.3.3-.4.6-.6h0c.8-2,2.3-3.5,3.9-4.9h0c.1-.3.3-.4.6-.6h0c.3-.5.5-1.1.9-1.7.9-1.2.6-2.2-.7-2.9-1-.5-1.8-1.1-2.4-2.2h0c-.5-.4-1.2-.6-1.7-1.1h0c-1.2-.6-2.1-1.6-2.8-2.7h0c-.6-.6-.8-1.5-1.1-2.2h0c-.5-1.8-.5-3.6,0-5.5h0c.8-2.6,2.2-4.6,5-5.5h0c.4-.6,1.2-.1,1.7-.5h0c1.7-1.6,3.8-.1,5.7-.5.3,0,.6,0,.9,0,1.9-.7,3.9.1,5.7-.5.3,0,.6,0,.9,0,2.2-.8,4.6.1,6.8-.5.5.2,1,.1,1.5,0,3.1-.4,4.6-3,6.6-4.9,2.8-2.6,5.1-5.8,8.4-7.8h0c.1-.3.3-.5.6-.6h0c.1-.2.3-.4.6-.5h0c.1-.2.3-.5.6-.5h0c0-.3.3-.5.6-.5h0c2.1-2.1,3.7-4.9,7.3-5,.2,0,.3,0,.4,0,1.1-.4,2.2-.5,3.3,0h0c3.4.5,5.9,2,6.6,5.7,0,.2,0,.3,0,.4,1.3,2.8.9,5.5,0,8.3-.3.7-.6,1.4-.6,2.3.2-.4.1-.9.3-1.3,1.5-3.7,2.7-7.5,7-9.2,2.5-1,4.8-1.3,7.2,0h0c2.7.6,4,2.6,5,5h0c.7.5.8,1.4,1.2,2.2h0c1.5,1.5,1.9,3.6,2.8,5.5h0c1.8,3.2,3.6,6.4,5.1,9.7.9,2,1.9,2.7,3.9,2,.1,0,.3,0,.4,0,.3-.2.6-.5.9-.5,3.6.1,4.6-2,4.6-5.1.2-.5.2-1,0-1.5.6-1.9-.2-3.9.5-5.7,0-.3,0-.6,0-1,.7-1.8-.3-3.8.6-5.7h0c.5-.4,0-1.2.6-1.7h0c.3-.3.2-.8.6-1.1h0c.7-1.5,1.5-2.9,3.4-3.2h0c.3-.5.9-.4,1.3-.6.1,0,.2,0,.3,0,1.8-.4,3.7-.4,5.5,0,0,.1.2.1.3,0,.4.2,1,.1,1.3.6h0c.6.3,1.3.5,1.7,1.1h0c.3,0,.5.2.6.5h0c5,3.6,9.1,8.2,13.6,12.4.4.4.6.9.7,1.4h0c2.1,2.5,5.3,4,6.7,7.1h0c.3,0,.5.3.6.6h0c1.3.6,2.5,1.8,4.2,1.1.1,0,.2,0,.4,0,.9-.6,2,0,3-.5.1,0,.2,0,.4,0,3.7-1.2,7.4-1.5,11.2-1.6.1.1.2,0,.4,0,1.5-.8,3.1.1,4.6-.5.1,0,.3,0,.4,0,1.6-.8,3.5.1,5.1-.5.1,0,.3,0,.4,0,2.1-1.3,4.5-1,6.7-1,3,0,6,0,9,0,4.3,0,7.5,2.8,8,7.1,0,.1,0,.3,0,.4.4.9.4,1.8,0,2.8-.1.1-.1.3,0,.4-.3,2.6-1.4,4.6-3.8,5.7-1.8.7-3.4,1.9-5,2.9-6.5,4-12.8,8.3-19,12.8-.6.4-1.1.9-1.7,1.4,1,2.2,4.1,6.8,5.6,8.2,1.5-1.4,3-2.7,4.4-4.1,4.5-4.1,9.1-8,13.8-11.9.5-.4.9-.9,1.4-1.3,2.8-2.8,5.7-5.6,9.4-7.4h0c.2-.2.4-.4.6-.5h0c2.1-2.5,5-3.9,7.7-5.5h0c.2-.2.4-.4.6-.5h0c1.9-1.9,4.2-3.3,6.6-4.4h0c2.2-1.8,6.3-2,8.7-.5h0c1.1.4,2.3.8,2.8,2.2h0c.2.1.5.3.6.6h0c1.6,1.1,1.3,2.9,1.7,4.5-.2.5-.1.9,0,1.3-.6,1.1.2,2.4-.5,3.4h0c-.6.8,0,1.9-.5,2.8-.1.1-.1.3,0,.4-.7,1.1.2,2.4-.6,3.4h0c-.6.8.2,1.9-.5,2.8h0c-.6.8.1,1.9-.5,2.8-.1.1-.1.3,0,.4-.6.9.1,2-.5,2.9-.1,0-.1.2,0,.3-.3,1.9-.3,3.9-1.1,5.7h0c-.6.8.1,1.9-.5,2.8-.1.1-.1.2,0,.4-.5.7,0,1.7-.5,2.4-.1.1-.1.3,0,.4-.6.9.1,2-.5,2.9h0c-.6.8.1,1.9-.6,2.8-.1.1-.1.2,0,.3-.4.7,0,1.7-.5,2.4-.1.1-.1.2,0,.4-.5.7,0,1.7-.5,2.4-.1.1-.1.3,0,.4-.8,1.7.5,2.8,1.2,4h0c3.7,1.6,6.3,4.7,9.3,7.3h0c4.1,2.5,7.7,5.5,11.1,8.8h0c.3,0,.5.3.6.5h0c.8.5,1.5,1.1,2.2,1.7h0c3,1.5,5.4,3.8,7.8,6.1h0c.3,0,.5.2.6.5h0c.2,0,.4.3.6.5h0c.5.4,1.2.6,1.6,1.2h0c.3,0,.5.2.6.5h0c.6.4,1.2.3,1.9,0,.3,0,.6,0,.9,0,2.7-.6,5.5-.3,8.2-.3,5.6,0,11.1-.4,16.7.2.3,0,.6,0,.9,0,3.3,0,6.5.7,9.8.7,1.4,0,3-.1,4.2,1h0c1.9.3,3.8.2,5.6,1,.1.1.3.1.4,0,1.7.5,3.7-.4,5.1,1.1h0c.7.5,1.6-.1,2.2.5h0c2.6.5,5.5.4,7.8,2.1.1.1.2.2.4,0,2.5,0,4.7.9,6.8,2.2h0c.5.4,1.3,0,1.7.6h0c1.6.1,3.2.5,4.4,1.7h0c1.3.5,2.9.5,3.9,1.6h0c.3.3.8.2,1.1.5h0c4.9,1.5,9.4,4.1,13.8,6.7h0c.3.3.9.2,1.1.6h0c.3.2.9.1,1.1.6h0c.3,0,.4.3.7.4h0c.3.4.8.3,1.1.6h0c.3.3.9.2,1.1.6h0c1,.4,2,.8,2.8,1.7h0c2.4.7,4.3,2.2,6.1,3.9h0c.3,0,.5.2.6.5h0c3.1,1.2,5.4,3.3,7.7,5.6h0c.2,0,.4.3.6.5h0c5.1,2.8,9.1,6.9,13,11.1,2.3,2.4,4.8,4.7,7.3,7,.7.7,1.3,1.5,1.8,2.4h0c1.9,1.3,3.4,2.9,4.4,5h0c.8.5,1.2,1.4,1.8,2.2h0c.2.1.5.3.6.6h0c.7.6,1.3,1.3,1.7,2.2h0c.3.1.5.3.6.6h0c1.4.6,1.4,2.2,2.3,3.2h0c1.6.8,1.8,2.6,2.8,3.9h0c.2.2.4.3.5.6h0c.7.3.9,1,1.1,1.6h0c1.4,1.7,3,3,5.1,3.8h0c2.1.4,4.4.6,6.1,2.2h0c.3.3.8.2,1.1.5h0c.3.3.8.2,1.1.6h0c.3.3.9.2,1.1.6h0c3,1.7,6.1,3.3,7.8,6.6h0c.2.1.5.3.6.6h0c.5.1.3.7.7,1h0c.2.2.4.4.5.7h0c1.4,1.1,1.8,2.8,2.3,4.4h0c.6.4.1,1.2.6,1.7h0c.4,1.8,1.9,2.6,3.3,3.3h0c.7.5,1.6-.2,2.2.6h0c1.6.6,3.7,0,5,1.7h0c.4.2.9.2,1.2.5h0c1.3.6,3,.2,3.8,1.7h0c2.9.6,4.9,2.7,7.2,4.4h0c.3,0,.4.3.6.5h0c5.9,3.9,11.1,8.5,14.4,14.9h0c.2.2.4.3.5.6h0c1.9,1.3,2.3,3.6,3.4,5.5h0c.4.2.3.7.6,1.1h0c.7.5.8,1.4,1.1,2.2h0c.4.2.3.8.6,1.1h0c.4.2.3.8.6,1.1h0c.4.2.3.8.6,1.1h0c1.5,1.5,1.9,3.6,2.8,5.5h0c.6.6.8,1.5,1.1,2.3h0c.4.3.3.8.5,1.1h0c1.2,1.4,1.2,3.2,1.8,4.9h0c.9,1.4,1.3,2.9,1,4.6,0,.1,0,.3,0,.4.3,4.1,1,8.2-.5,12.2-.1.1-.1.2,0,.4-.4.6,0,1.3-.5,1.8h0c-.5.4,0,1.2-.5,1.7-.1.1-.2.3-.2.5.2,1.2-.4,2-1,2.8h0c-.2.3-.2.8-.5,1.1h0c-.4,1.2-.7,2.4-1.7,3.3h0c-.3.3-.2.8-.6,1.1h0c-.4,1.5-1.1,2.8-2.3,3.8h0c0,.2-.3.4-.5.6h0c-.3.3-.2.9-.7,1.1h0c-.3.9-1,1.5-1.6,2.2h0c-.1.2-.3.4-.5.6h0c-.6,1.5-1.7,2.7-2.9,3.8h0c0,.3-.3.4-.6.6h0c-2.5,4.3-6.3,7.5-9.7,11-4.6,4.7-9.2,9.5-14.1,13.9-.5.4-1,.9-1.6,1h0c-.9.8-1.6,1.7-2.7,2.3h0c-.2.2-.4.4-.6.5h0c-.2.2-.4.4-.6.5h0c-.1.2-.3.4-.6.5h0c-.1.2-.3.4-.6.5h0Z"/>
        <path class="cls-32" d="M477.1,321.9c-1.9-5.9-5.1-11.2-7.3-16.9-4.7-10.4-9.4-20.8-13.8-31.4-1.6-3.3-3.1-6.7-4.4-10.1-.8-1.6-1.3-3.2-2-4.8-2.1-4.4-3.3-9.1-6.1-13.2-.2-.2-.4-.4-.5-.6-1.3-3-2.6-6-3.8-9.1-.6-1.5-1.3-2.8-2.3-4-2-2.4-4.4-4.1-7.5-4.6-2.4-.4-4.8-.9-7.3-1.3-4.5-.7-9-1.4-13.5-2.1-.9-.8-1.9-1.2-3-1.1-2.7.1-4.3-1.2-5.9-3.3-6.9-9.6-14.8-18.3-23.7-26-13.6-11.6-28.7-20.5-45.4-26.7-13.2-4.9-26.9-8.2-41-8.8-1.1.2-2.5-.3-3.1,1.1,4.9,1.4,8.6,4.5,12.5,7.7-5.1.2-10.2-.3-15.2.3-1.2.2-2.1-.5-3-1.1-3.4-2.4-6.8-4.7-10.3-6.9-.9-.8-2-1.2-3.2-1.2-2.4,0-4.8.2-7.1.5-18.6,2.3-36.2,7.9-52.7,16.9-1.1.6-2.1,1.4-3.5,1.6-.4-2,1.2-3.6.4-5.5,0-.5,0-1.1.1-1.6.5-2.2,1-4.5,1.5-6.7.9-4.2,1.8-8.4,2.8-12.6.3-1.3.5-1.6,1.8-1.6,4.1,0,8.2-.7,12.4-.7,6.3.1,12.5,0,18.8,0,3.4,0,6.8.2,10.2.6,1.8.2,3.7.3,5.5.5,3.3.4,6.5,1,9.8,1.5.3,0,.8.2.9-.3-.1-.6-.6-.9-1.1-1.2-4.1-3.1-8.1-6.3-12.3-9.3-11.1-7.8-22.8-14.9-35-20.9-1-.5-2-.9-3-1.4-.5-.2-.7-.6-.7-1.1,0-.5,0-.9,0-1.4.5-2.4,1-4.8,1.5-7.3,1-5.1,1.9-10.3,2.9-15.4.3-1.7.6-3.3.9-5,.2-1.5.5-3,.8-4.4,0-.2,0-.3.1-.5.2-1.1.4-2.2.6-3.4.8-4.5,1.7-9,2.5-13.5,0-.2,0-.3-.1-.6-.5-.1-.8.2-1.2.5-2.8,1.9-5.6,3.8-8.4,5.8-6.4,4.7-12.7,9.6-18.8,14.8-5.1,4.3-10.2,8.7-15,13.4-.7.7-1.5,1.4-2.2,2.1-.9,1-2,1.2-3.2.8-1.6-.5-3.1-1.1-4.8-1.3-1.3-.2-2.1-.9-2.8-2-3.1-4.8-6.3-9.5-9.7-14.1-1.7-2.3-1.6-2,.5-3.6,8.6-6.6,17.5-12.8,26.7-18.6,1-.6,2-1.3,3-1.9.1,0,.2-.3.2-.5,0-.2,0-.3-.3-.3,0,0-.2,0-.3,0-4.2-.2-8.4.7-12.6.7,0,0-.2,0-.3,0-2.6.3-5.3.6-7.9.9-3.5.4-6.9.8-10.4,1.3-4.3.7-8.7,1.5-13,2.3-.6.1-1.1,0-1.5-.4-.3-.3-.6-.7-.9-1-2.6-2.9-5-5.8-7.7-8.6-3.9-4-7.9-8-11.9-11.9-1.4-1.4-2.9-2.6-4.3-3.8-.2-.2-.5-.3-.7-.2-.4,0-.5.5-.5.9,0,1.6,0,3.2-.2,4.7-.7,3.3-.3,6.6-.9,9.9-.4,2.1-.3,4.4-.5,6.6-.3,3.2-.5,2.3-2.9,3-.4.1-.9.1-1.4.1-3.3,0-6.6.6-9.8,1-2.3.3-4.6.5-6.8.7-1,.1-1.7-.2-2.2-1.2-.5-1.2-1.1-2.3-1.7-3.5-3.1-6.2-6.2-12.3-9.3-18.5-.3-.6-.6-1.1-.9-1.7-.3-.5-.8-.5-1.1,0-.3.5-.6.9-.8,1.4-1.5,3.3-3,6.7-4.5,10-1.4,3.1-1.4,3.1-4.9,2.9-2.1-.2-4.2-.6-6.3-.5-1.6,0-3.1-.4-4.6-.5-.5,0-.8-.4-.8-.9,0-.5,0-1.1.2-1.6,1-5.1,2-10.3,3-15.4,0-.5.4-1.1-.4-1.5-.6.6-1.3,1.2-2,1.8-5.4,5.4-10.9,10.7-16.2,16.2-1.1,1.1-2.1,1.6-3.6,1.5-1.8,0-3.7,0-5.5.1-4.2.4-8.4.7-12.6,1-1.6.1-3.1.4-4.6.5,0,0-.2,0-.3.1,0,0,0,.2,0,.3.1.2.3.4.5.5,3.7,2.6,7.4,5.2,11,7.8.6.4,1.2.9,1.7,1.4.4.3.5.8.2,1.2-.3.4-.5.8-.8,1.1-3.2,4-6.5,8-9.7,12-2.9,3.6-5.6,7.2-8.5,10.9-.1.5,0,.8.6.7.3-.1.7-.2,1-.4,2.4-1.3,4.8-2.7,7.2-4.1,4.1-2.3,8.1-4.6,12.3-6.9,2.8-1.5,5.7-3,8.6-4.4,1.1-.5,1.5-.4,2.4.6.5.5.4,1-.2,1.3-3.1,1.3-6.3,2.6-9.4,3.9-.4.2-.9.2-1.1.9.6.2,1.3.5,2,.7,7.4,1.9,14.8,3.8,22.1,5.7,1,.3,1.9.6,2.9.9.7.3,1,.8.8,1.5-.1.5-.3,1.1-.5,1.6-2.8,8.2-5.2,16.5-7.5,24.8-.2.9-.5,1.8-.6,3.1,1.3-1.1,2.5-1.9,3.4-2.9,3.2-3.1,6.5-5.9,9.9-8.8,4.8-4.1,9.6-8,14.6-11.8,1.2-1,2.3-1.3,3.8-.7,4.9,2,9.9,3.9,14.9,5.8.5.2,1,.5,1.5.8.3.2.5.6.4,1-.1.5-.3,1.1-.4,1.6-1,2.9-2,5.7-3,8.6-.2.5-.3,1.1-.5,1.6-.3.8-.9,1.3-1.8,1.5-3.7.5-7.4,1.4-11.1,2.2-9,1.9-17.8,4.5-26.5,7.3-.4.1-.9.3-.9.9,6.5,1.6,13,3.1,19.4,5.1,4.4,1.4,8.7,2.8,13,4.5.7.3,1,.7.8,1.5-.3,1.1-.7,2.1-.9,3.2-2.1,8.3-4.3,16.5-6,24.9-.3,1.2-.4,2.5-.7,3.7.7.1,1-.3,1.3-.6,2.2-2.1,4.3-4.2,6.6-6.3,2.8-2.5,5.4-5.2,8.3-7.7,3.3-2.9,6.7-5.7,10.1-8.5,1-.8,1.8-.9,3-.3,4.8,2.8,9.7,5.6,14.5,8.4,1.8,1.1,3.5,2.3,5.3,3.5,1.1.8,1.2,1.1.5,2.2-1.7,2.8-3.5,5.6-5.1,8.5-.8,1.3-1.7,2.5-2.4,4.4,1.2-.5,2-.9,2.8-1.3,6.4-3.4,13-6.4,19.7-9.2,6.7-2.7,13.6-5,20.5-7.2,2.4-.8,4.9-1.4,7.4-2.1.7-.2,1.3,0,1.7.5.4.6.9,1.2,1.2,1.8,3.7,5.7,7,11.6,10.3,17.6,1,1.9,1.9,4,2.9,6,0,.5-.1,1,.1,1.3,1.6,2.7.4,4.2-1.8,5.9-8.5,6.3-16.1,13.7-23,21.8-14.7,17.6-24.9,37.4-30.7,59.6-1.6,6.1-1.9,11.7,1.1,17.4.3.6.4,1.4.8,2.1.6,1.4.3,2.4-1.1,3.2-2.6,1.6-5,3.4-7.5,5.2-.8.6-1.8,1.1-1.9,2.2-.8,1-1.9,1.4-2.9,2.1-3.1,2.3-5.5,5.1-6.7,8.8-.7,2-1.1,4.1-.8,6.2.4,2.7.7,5.4.9,8.2.3,2.6.3,5.3.7,7.9.3,1.9.2,3.9.6,5.7.4,2,.4,4,.4,6-.2,1.2-.4,2.3-.2,3.5.7,4.9,1.1,9.9,1.8,14.9.6,5,1.2,9.9,1.7,14.9,1.2,7.5,2,15.1,3.1,22.6.8,5.6,1.2,11.3,2.9,16.8,1.1,1.7,2.4,2.8,4.5,1.5,1.4-.3,2.6-1,3.7-1.8,3.5-2.8,7-5.6,10.6-8.3,3.5-2.7,7.1-5.4,10.7-8.1.7.1,1.3,0,1.8-.5,2-1.8,3.4-1.2,4.9.8,4.3,5.8,9.4,10.8,14.7,15.7,4.9,4.5,9.7,9,16.2,11.3,4.5,1.6,8.9,3.5,13.5,4.7,14.8,4.1,29.8,5.7,45,3.6,16.2-2.3,31.7-7.5,47-12.9,18.2-6.5,35.9-14.4,54.7-18.9,1.6-.4,2.9-1.1,3.7-2.6,3-5.7,5.5-11.7,7.2-17.9.6-2.1-.2-2.7-2.3-2.2-.5.1-1,.4-1.6.6-21.3,7.9-43.4,11.3-65.9,12-7.2.2-14.3-.5-21.5-1-17.8-1.3-35.1-5-52.1-10.6-6.9-2.3-13.6-5.1-20.2-8.1-.7-.3-1.6-.5-1.7-1.3,0-.9.9-1,1.5-1.4,1.4-.9,2.9-1.7,4.3-2.6,2.1-1.4,4.2-1.5,6.5-.5,4.9,2.1,10,3.7,15.1,5.3,20.2,6.4,40.9,9.2,62,9.4,10.4.1,20.8-.7,31.1-2.2,15.7-2.3,31.1-6,45.9-11.9,2.6-1,3.9-2.6,4.3-5.4.9-6.1,1.3-12.2,1.9-18.4.2-1.6.1-3.3,0-5-.2-1.5-1-2.1-2.5-1.5-.7.2-1.3.6-2,.9-8.7,3.9-17.7,6.2-27.2,6.2-16.3,0-31.6-4.2-46.3-11.2-1.1-.5-2.3-1-3.4-2.3,4-1.3,7.8-2.3,11.5-3.4,1.9-.6,3.8-.4,5.6.4,3.1,1.4,6.4,2.3,9.7,3.3,16.8,4.9,33.2,4.7,49-3.6,3.7-2,6.7-3.7,5.2-8.7-.5-1.7.4-2.8,2.4-2.8,1.3,0,2.6-.2,3.8-.3,6.4-.5,12.8-.1,19.3-.3-.2,1.3-1,1.8-1.6,2.4-3.1,3.2-6.3,6.5-9.9,9.2-2.1,1.6-3.1,3.5-2.9,6.1.3,6.5-.3,13-1.1,19.5-.2,1.3-.5,2.5-.4,3.8.2,1.9,1,2.4,2.8,1.7,1.3-.6,2.6-1.4,3.8-2.2,15-9.5,27.2-21.9,36.6-36.9,1.2-1.9,2.5-2.8,4.8-2.2,1.3.3,2.7.5,4-.4,2.4.3,4.9.7,7.3.9,4.6.4,9.2,1.2,13.8,1.8,1.1.2,2.4.3,3.4.9,5.2,1.7,10.5,2.4,15.9,3.1.7,0,1.5,0,2.2-.3,1.4-.8,1.9-2,1.7-3.5Z"/>
        <path class="cls-9" d="M155.7,401.4c1.5-1.1,3-2.2,4.4-3.2.9.3,1.2,1,1.6,1.6,7,8.8,14.9,16.8,23.7,23.8,1.3,1,2.7,1.9,4.2,2.6,10.3,4.8,21.1,8.1,32.4,9.8,9.3,1.4,18.7,1.7,28.1.6,8.2-1,16.3-2.9,24.3-5.2,13.5-3.9,26.7-8.7,39.8-13.8,9.7-3.7,19.4-7.5,29.3-10.5,3.6-1.1,7.3-2,10.9-2.9.9-.2,1.5-.6,1.9-1.4,3.2-6,5.9-12.3,7.6-18.9,0-.3.1-.7.2-1-.5-.6-.9-.1-1.3,0-10.9,4.2-22.2,7.2-33.7,9.3-6.1,1.1-12.3,2-18.6,2.5-7.3.6-14.7,1-22.1.8-29.2-.7-57.3-6.2-84.1-18-2-.9-4-1.9-6-2.8-.4-.2-.8-.4-1.1-.8.2-.6.7-.7,1.2-1,2.6-1.5,5.3-3,7.9-4.6,1.3-.8,2.4-.9,3.8-.3,6.3,2.7,12.9,4.8,19.5,6.8,9.3,2.7,18.7,4.9,28.2,6.3,6.2.9,12.4,1.6,18.7,1.9,5.3.2,10.7.5,16,.4,25.2-.5,49.7-4.9,73.3-14.2.5-.2,1-.4,1.5-.6.9-.3,1.2-1,1.4-1.9,1.2-8.1,2.1-16.2,2.3-24.4,0-.7,0-1.5,0-2.1-.9-.4-1.5.2-2.1.5-5.7,2.7-11.5,4.8-17.7,5.9-7.1,1.3-14.3,1.5-21.4.6-10.3-1.4-20.4-3.9-30.1-7.9-3.7-1.6-7.4-3.3-10.8-5.4-.2-.1-.5-.3-.4-.6,0-.3.3-.4.6-.5,4.7-1.3,9.4-2.6,14.1-4,1-.3,2-.2,2.9.2,6.7,2.8,13.7,4.8,20.9,6.1,15.1,2.7,29.3.2,42.4-7.8,1.3-.8,1.7-1.7,1.5-3.1-.2-1.7-.3-3.5-.4-5.2,0-.9.2-1.1,1.1-1.2,5.1-.5,21.4-.9,26.7-.6.4.7-.2,1-.5,1.4-3.9,4.5-8.2,8.7-13,12.3-1.2.9-1.6,1.8-1.6,3.2.2,7.9-.4,15.8-1.6,23.7-.2,1-.4,2-.1,3,1.1,0,1.7-.6,2.5-1.1,9.8-5.7,18.5-12.7,26.1-21,5-5.4,9.4-11.3,13.4-17.5.4-.6.8-1.2,1.2-1.9.4-.7,1-1,1.8-.9,2.1.2,4.2.4,6.3.6.4,1.6.1,3.1,0,4.7-1.6,14.2-4.9,28-10.2,41.3-9,22.3-22.4,41.5-40.3,57.6-19.8,17.8-42.8,29.7-68.7,35.8-6.1,1.4-12.2,2.4-18.5,3.1-6.6.7-13.2,1.1-19.8.9-25.9-.7-50.3-7.3-72.9-20.1-13-7.4-24.6-16.4-35-27.1-3.7-3.8-7.2-7.9-10.5-12.1-.5-.6-.9-1.1-1.1-1.9Z"/>
        <path class="cls-9" d="M267,158.7c-4.2,0-8.4.7-12.6,1.4-15.6,2.6-30.5,7.5-44.5,14.8-2.4,1.2-4.7,2.5-7.2,3.9-.4-1.5.3-2.6.5-3.8.2-1.2.3-2.4,1-3.4.9-.4,1.8-.8,2.7-1.3,13-6.8,26.6-11.6,40.9-14.5,6.1-1.2,12.3-2,18.6-2.6,7.1-.6,14.2-.6,21.2-.2,12.5.7,24.8,2.9,36.8,6.6,20.2,6.3,38.4,16.3,54.5,30,10.9,9.3,20.4,19.9,28.4,31.8.5.8,1.4,1.5,1.2,2.7-1.6-.2-3.3-.5-4.9-.6-1.6,0-2.6-.8-3.6-2.1-6.6-9.5-14.2-18-22.9-25.6-18.8-16.6-40.5-27.8-64.9-33.5-6.9-1.6-13.9-2.8-20.9-3.3-.5,0-.9,0-1.4,0-2-.7-3.9.3-5.9.3-3.7,0-7.4,0-11.2,0-2,.4-3.9-1-5.9-.3Z"/>
        <path class="cls-31" d="M126.8,417.9c.9,1.6,2.4,1.8,4,1.7,1.7,1.1,3.7,1.6,5.6,2.1,4.8,1.3,9.6,2.4,14.5,3.2,6.1,1.1,12.3,2.2,18.5,2.9,1.7.2,3.1.8,4.3,2.1,4.8,5,9.7,9.8,14.6,14.7.6.6,1.1,1.2,1.6,1.9-.8.9-1.8.9-2.8.7-14.9-2.1-30.1-2.3-44.9-5.6-8.5-1.9-16.6-4.8-23.5-10.5-6.2-5.1-10.7-11.4-12.2-19.4-.6-3.4-.3-6.8,1.5-9.9.9-.5,1.4.1,1.8.7,4.5,6.4,10.6,11,17,15.3Z"/>
        <path class="cls-31" d="M457.3,322.7c1.2-.3,2.4,0,3.5.2,3.3.6,6.6,1.2,9.9,1.9,1.5.3,3.1.3,4.6.1,1.5,1,.1,1.8-.3,2.5-2.9,4.4-6.2,8.5-9.8,12.2-8.9,9.2-19.1,16.9-29.1,24.8-2.6,2.1-5.1,4.2-7.8,6.1-.8.5-1.5,1.6-2.6.8.3-2.7,1.1-5.4,1.7-8.1.8-3.8,1.8-7.5,2.7-11.2.2-.8.5-1.5,1.2-2.1.9-.8,1.7-1.7,2.5-2.5,6.2-6.1,12.2-12.5,18.2-18.8,1.8-1.9,3.5-4,5.3-6Z"/>
        <path class="cls-9" d="M188.6,181.6c0,.2.2.3.3.5.6,1.4,1.3,2.8,1.9,4.2-.8,1.4-2.3,2-3.5,3-28,21.9-46,50.2-54.1,84.8-1.4,5.8-1.3,3.8.5,9.4.8,2.4,1.7,4.7,2.6,7,.5,1.4.5,1.4-.7,2.3-2.5,1.7-5,3.5-7.5,5.2-1.1.8-2.2,1.6-3.3,2.4-.5-.2-.7-.6-.7-1.1,0-1.7,0-3.3.2-5,2-21.9,8.1-42.5,18.8-61.8,8.6-15.4,19.4-29,32.6-40.7,4.1-3.7,8.3-7.2,13-10.3Z"/>
        <path class="cls-11" d="M108.5,401.8c-.6,1.1-.9,2.2-1,3.4,0,1.1-.5,2.2-.5,3.2-.1,2.9.5,5.6,1.6,8.3,2.1,4.9,5.1,9.1,9.1,12.6,2.3,2.1,4.9,3.9,7.6,5.4,5.8,3.1,11.9,5.1,18.4,6.3,2.2.4,4.5,1,6.7,1.4,1.6.3,3.3-.1,4.9.7,2.4-.2,4.7.8,7.1.6.6,0,1.3,0,1.9.2.8.3,1.6.3,2.4.3,1.5,0,2.9-.1,4.4.4.5.2,1.1.1,1.6.1,1,0,2,0,3,.4.3.1.7.2,1.1.2,2.5-.3,4.9.4,7.4.7,1.9.2,3.8.5,5.7.4.9.5,1.3,1.5,1.7,2.3-.4.6-.9.4-1.3.4-3.7-.3-7.3-.7-10.9-1.1-4.3-.5-8.6-1-12.8-1.4-2.1-.2-4.2-.5-6.3-.6-8.7-.8-17.3-2-25.8-4-4.8-1.1-9.6-2.5-14.1-4.6-4.1-1.9-7.7-4.5-11.2-7.5-3-2.6-5.6-5.6-7.5-9.1-1.3-2.4-2.4-5-2.5-7.8,0-1-.7-1.9-.5-3,.5-15.4,7-28.4,16.9-39.8,1.8-2,2.4-4.4,3.5-6.7,0,.2.3.3.3.5.3,4.4,1.3,8.8,1.4,13.3,0,.4,0,.7,0,1.1,0,1-.6,1.7-1.1,2.5-4.5,6.2-8.5,12.6-10.5,20.1,0,.4-.3.7-.7.8Z"/>
        <path class="cls-11" d="M425.7,371.5c1.6-.4,2.6-1.6,3.8-2.5,2.2-1.6,4.3-3.4,6.4-5.1,2.4-1.9,4.7-3.7,7.1-5.6,1.4-1.1,2.9-2.3,4.3-3.4,1.5-1.2,3-2.4,4.4-3.7,1.9-1.6,3.6-3.4,5.6-4.9,2.5-1.9,4.6-4.2,6.8-6.4,2.2-2.1,4-4.5,5.9-6.9,1.9-2.3,3.6-4.6,5.3-7,.2-.3.4-.6,0-.9.9-.9,1.2-2,1.2-3.3.8-.4,1.3-.9,1.7-1.7,3.3-6.6,5-13.5,4.3-21-.6-5.8-3.8-10-7.8-13.8-.4-.4-.8-.7-1.2-1.1-4.5-3.9-9.6-6.6-15.2-8.6-1-.4-2.1-.6-2.8-1.6-.2-.2-.4-.4-.5-.6-1.5-3.1-2.9-6.2-4-9.5,1.6-.5,2.9.4,4.2.9,7.1,2.4,14.3,4.7,20.7,8.9,3.5,2.3,6.6,5,9,8.4h0c.1.2.3.4.5.6,1.9,2.8,3.6,5.8,4.7,9,1.5,4.1,1.3,8.3.6,12.5-1.1,6.5-3.9,12.4-7.5,17.9-4.1,6.4-8.8,12.2-13.9,17.7-3,3.3-6.4,6.1-9.9,8.8-10.4,8.1-20.9,16.2-31.3,24.3-.6.4-1.2.8-1.8,1.2-.3.2-.7,0-.8-.5-.1-.8,0-1.5.4-2.1Z"/>
        <path class="cls-31" d="M119.2,363.7c.5,3.1-1,5.3-3.1,7.2-2.1,2-3.9,4.2-5.4,6.6-4.8,7.9-8.8,16.1-10.7,25.2-.4,1.9-.9,3.9-.8,6,0,.6,0,1.1-.5,1.5-.7-2-.7-4.1-1.1-6.2-.4-2.7-.5-5.5-.7-8.2-.1-1.5-.2-2.9-.3-4.4,0,0,0-.2,0-.3-.2-3.8.2-7.5.7-11.2.5-4,2-7.6,3.7-11.2,3.2-6.8,7.3-13.1,12.1-19,1.2-1.5,2.3-3.1,3.8-4.3.1.3.4.6.4,1,.4,4,.8,8,1.3,11.9.2,1.8.6,3.6.5,5.4Z"/>
        <path class="cls-31" d="M484.8,281.9c-.8-.3-1.3-.9-1.9-1.5-5-5.4-11.2-9-18-11.6-2.8-1.1-5.6-2.2-8.5-3.1-1.8-.6-3.7-1-5.4-1.9-.2-.4-.5-.7-.7-1.2-2-4.8-4.1-9.6-6.1-14.4-.3-.8-.6-1.7-.8-2.6,6,1.6,11.9,3.8,17.5,6.7,4.8,2.5,8.8,5.9,12.1,10.2,4.2,5.6,7.8,11.6,11.2,17.7.3.6.7,1.1.7,1.8Z"/>
        <path class="cls-18" d="M9.7,91.9c.2.2.4.4.6.6-.3.4-.7.6-1.1.7-.2,0-.4,0-.4-.2,0,0,0-.2,0-.3.2-.4.5-.7.9-.9Z"/>
        <path class="cls-31" d="M485.3,282.5c-.2-.2-.3-.4-.5-.6.3,0,.5.3.5.6Z"/>
        <path class="cls-31" d="M355.6,225.6c8.7.3,15.4.4,22.1.7,5,.2,10.1.6,15.1,1.1,4.3.4,8.6,1.1,12.9,1.5,5.9.5,11.8,1.6,17.7,2.4,5.3.7,9,3.5,10.9,8.5.5,1.4,1.1,2.7,1.7,4.1,3.3,7.9,6.6,15.8,9.9,23.6,3.6,8.4,7.1,16.8,10.7,25.1,2.3,5.3,4.7,10.6,7,15.9.9,2.1,1.9,4.2,2.8,6.3.4.8.5,1.6.5,2.4,0,1.3-.9,2.3-2.2,2.4-.8,0-1.7,0-2.5-.2-7.3-1.6-14.6-2.9-21.9-4-4.8-.7-9.6-1.5-14.5-1.9-4.5-.4-8.9-1-13.4-1.5,0,0-.2,0-.3,0-4-.2-8.1-.4-12.1-.7-9-.7-18-.6-27-.4-5.3.1-10.6.4-16,.9-2.7.3-5.5.3-8.2.7-3,.4-6,.7-9,1-3,.4-6,.8-9,1.2-6.4.9-12.9,2.1-19.2,3.5-9.4,2-18.8,4.4-28,7.2-8.3,2.5-16.4,5.4-24.5,8.5-12.8,5-25.2,10.7-37.4,17-8.4,4.4-16.6,9.1-24.7,14.1-7,4.4-14,8.9-20.7,13.7-7.6,5.3-15.1,10.8-22.3,16.7-3.8,3.1-7.6,6.1-11.3,9.2-1.2,1-2.5,1.8-4.1,2.2-2.1.6-3.6-.3-4.1-2.5-.4-2.1-.7-4.2-1.1-6.2-.7-4.6-1.5-9.2-2.1-13.9-.6-4.5-1.2-8.9-1.8-13.4-.5-3.5-1-6.9-1.5-10.4-.5-3.6-.8-7.3-1.3-10.9-.3-2.2-.6-4.4-.9-6.5-.3-1.9-.4-3.8-.6-5.8-.6-4.1-.8-8.2-1.3-12.3-.2-2.3-.6-4.6-.9-6.8-.5-3.5.7-6.5,2.5-9.4,1.1-1.7,2.4-3.2,4.1-4.4,4.7-3.3,9.2-6.7,13.9-9.9,7.4-5.2,15.1-10.1,22.9-14.8,10.8-6.5,21.9-12.4,33.3-17.9,10.2-4.9,20.6-9.3,31.2-13.2,14.8-5.5,29.8-10,45.1-13.5,6.2-1.4,12.4-2.7,18.6-3.6,5.5-.8,11.1-1.7,16.6-2.5,2.4-.3,4.7-.5,7.1-.7,3.1-.3,6.2-.6,9.3-.9.3,0,.5,0,.8,0,4.8,0,9.5-.8,14.3-.7,4.9.1,9.7-.7,12.6-.5Z"/>
        <path class="cls-31" d="M298.5,171c3.8,0,7.6-.1,11.3,0,3.7.2,7.3.6,11,.9,2,.2,4,.2,6,.6,2.3.4,3.9,1.6,5,3.5.6,1,1.1,2.1,1.6,3.2,4.3,9.2,8.7,18.5,13,27.7,1.8,3.8,3.7,7.6,5.5,11.4.2.5.5,1,.6,1.5,0,.2,0,.5-.4.6-.4,0-.7,0-1.1,0-1.2,0-2.4,0-3.6,0-4.8.2-9.6.3-14.3.6-4.2.3-8.4.6-12.6,1.1-5.1.6-10.2,1.2-15.3,2-6.6,1-13.2,2.1-19.8,3.4-8.4,1.7-16.7,3.7-24.9,5.9-7.5,2-15,4.3-22.4,6.9-9.6,3.4-19.2,7-28.5,11-8.5,3.7-16.9,7.6-25.2,11.9-4.4,2.3-8.7,4.7-13.1,7-1.9,1-2.4,1.6-2.9-1.4-1.2-6.8-2.5-13.5-3.7-20.3-.9-5.1-1.6-10.2-2.4-15.2-.3-1.8-.5-3.6-.9-5.4-.6-3,.3-5.4,2.3-7.6,1.6-1.7,3.5-3,5.3-4.4,8.7-6.8,17.8-13,27.4-18.5,7.1-4.1,14.5-7.7,22-10.9,10.3-4.4,20.8-7.9,31.6-10.5,5.5-1.3,11.1-2.5,16.8-3.2,4.9-.7,9.8-1.2,14.8-1.7,5.7-.6,11.4-.4,17.1-.4Z"/>
        <path class="cls-6" d="M18.5,84.8c1.1-2,2.6-3.5,4-5.3,3.1-3.9,6.2-7.7,9.3-11.6.7-.8.7-1.2-.2-1.8-1.4-1.1-2.8-2.1-4.2-3.1-1.9-1.4-4-2.6-5.7-4.2.3-.7.8-.5,1.2-.5,3.7-.1,7.3-.7,11-.7,1.7,0,3.5-.5,5.2-.4,1.6.1,2.8-.5,3.9-1.6,3.8-4,7.8-7.8,11.7-11.7.5-.5.9-1.2,1.7-1.2.3.5.2,1.1,0,1.6-.7,3.5-1.3,7-2,10.5,0,.4-.1.9-.1,1.4,0,.5.3.9.8,1,1.4.3,2.9.5,4.4.5,4,0,8,.6,12.1,1,4.8.4,4.1.8,5.9-3.4.6-1.3,1.1-2.5,1.7-3.7.7,0,.7.3.9.6,2.3,4.5,4.6,9,6.9,13.5.5,1,.9,2,1.4,3,.8,1.7,1.2,1.9,3,1.5,1-.2,2-.3,3-.4,2.1-.3,4.2-.7,6.3-.9,2.4-.3,4.7-.5,7.1-.7,3-.3,6-.7,9.1-.7.5,0,1.1-.2,1.6-.3.8-.1,1.1-.6,1.1-1.3.2-2.1.4-4.2.6-6.3.4-3.3.2-6.6,1-9.8,0-.2.2-.3.3-.4.6,0,.9.5,1.3.9,3.5,3.4,6.9,6.9,10.3,10.4,2.4,2.5,4.7,5.2,7,7.8.6.7,1.3,1,2.1.9.3,0,.6,0,.8,0,3.2-.6,6.5-1.3,9.7-1.9,3.3-.5,6.5-1,9.8-1.4,2.1-.3,4.2-.6,6.3-.8,2.5-.3,5-.5,7.6-.8,0,.3,0,.4,0,.5-1.3,1-2.6,2-4,2.9-6.7,4.6-13.1,9.4-19.5,14.5-.8.6-.9,1-.2,1.8,4.4,5.7,8.5,11.6,12.4,17.6.9,1.4,2,2.2,3.7,2.6,2.9.7,5.9,1.6,8.8,2.4,1.1.3,2,.3,2.7-.6.4-.5.9-.9,1.4-1.4,3.5-3.5,7.3-6.7,11-10,6.7-5.9,13.7-11.4,20.8-16.8,1.5-1.1,3-2.2,4.5-3.2.1,0,.4-.1.5,0,.1,0,.3.3.2.4-.4,2.4-.8,4.7-1.2,7.1-.6,3.8-1.3,7.6-1.9,11.4-.8,4.4-1.6,8.8-2.4,13.3-.6,3.2-1.3,6.5-1.9,9.7-.1.5-.1,1.1-.1,1.6,0,.6.3,1.1.8,1.3.9.5,1.8.9,2.7,1.3,5.4,2.3,10.5,5.3,15.7,8.1,7.6,4.1,14.8,8.9,21.9,13.8,1.3.9,2.8,1.7,3.9,3-1.7.4-2.4.5-3.8.2-.7-.1-1.4-.3-2.2-.3-9.8-.8-19.7-.8-29.5-.5-4.7.1-9.3.7-14,1.1-1.1,0-1.3.9-1.5,1.7-.4,2-.8,4-1.2,5.9-1.2,5.8-2.3,11.7-3.6,17.5-1.2,5.7-2.5,11.5-3.7,17.2-.1.5-.4.9-.7,1.5-.9-1-1-2.1-1.5-3.1-.5-1-1-2-1.4-3-1.9-4.5-4.1-8.8-6.4-13.1-2.3-4.3-4.9-8.4-7.3-12.6-1.1-1.8-2.2-3.6-3.4-5.4-.5-.8-1-1.1-2.1-.8-10.2,2.6-20.1,5.9-29.8,9.8-3.6,1.4-7.1,3.1-10.6,4.6-.6.3-1.2.5-1.8.7-.2.2-.4.3-.6.5-.2,0-.4,0-.5,0-.2-.1-.2-.3-.2-.4,0-.2,0-.2.1-.2,0-.2,0-.3.1-.5.2-.2.3-.4.5-.6,2.8-4.7,5.8-9.1,9-13.5,3-4.3,6.2-8.4,9.4-12.6,1.9-2.5,3.9-4.8,5.9-7.3.9-1.1,1.7-2.1,2.7-3.3-1.1-1.3-2.1-2.6-3.2-3.8-1.8-2.1-4-3.9-5.6-6.1-.3-.4-.6-.7-1-1-.4-.4-1-.5-1.5-.2-.7.4-1.5.7-2.2,1.1-6.7,3.8-13.4,7.7-19.8,12-2.2,1.5-2.2,1.5-1.4,4,2,6.4,4,12.8,6.1,19.2.2.5.3,1.1.4,1.6,0,.1-.2.3-.3.4,0,0-.2,0-.3,0-.6-.4-1.3-.7-1.9-1.2-4.5-3-9.2-5.8-14-8.3-1.6-.9-3.2-1.7-4.8-2.6-.7-.4-1.4-.4-2,.1-.4.4-.9.6-1.3,1-3.3,2.7-6.7,5.4-10,8.3-2.8,2.5-5.5,5.1-8.3,7.6-.4.4-.7.9-1.3,1-.7-.4-.3-1-.2-1.4,1.9-7.4,3.8-14.8,6-22,0-.3.2-.5.3-.8.2-.9,0-1.4-.9-1.7-2.1-.8-4.3-1.7-6.4-2.5-5.7-2.1-11.5-3.9-17.3-5.4-.4-.3-.4-.7,0-1,7.1-1.9,14.2-3.8,21.4-5.1,2.2-.4,4.3-.8,6.5-1.2,1.4-.3,2.4-.9,2.9-2.4,1.5-4.4,3.2-8.8,4.8-13.2.2-.4.2-.9.2-1.3.3-2.5,1.2-4.8,2.2-7,.4-1,.7-2.4,2-2.4,1.1,0,1.4,1.3,1.9,2.2,2.4,4.8,4.3,9.9,6.4,15.1.5-6,.9-11.8,1.2-17.7.1-2.1-.5-3-2.6-3.3-4.4-.7-8.9-1.4-13.3-1.9-1.9-.2-2.1.3-1.4,1.9,1.2,2.9,2.5,5.7,3.5,8.7.3.9,1.3,2.4-1,2.3-2.8-1.6-5.9-2.7-8.8-3.9-4-1.6-8-3.2-12.1-4.5-.9-.3-1.5-.2-2.3.3-4.5,3.5-9.1,6.9-13.4,10.6-2.4,2.1-4.9,4.2-7.4,6.2-.1.1-.3.1-.5.2-.3-.3-.2-.6-.1-1,2-6.2,4-12.4,6-18.6.1-.3.3-.7.4-1,.5-1.7.5-1.8-1.3-2.2-4.7-.9-9.4-1.8-14-2.7-3-.6-5.9-1.1-8.9-1.7-.3-.6.2-.7.5-1,1.4-.6,3-.9,4.5-1.3,1.1-.3,2.3-.7,3.5-1.1-.3-1.1-1.2-1.6-1.9-2.3-1.3-1.2-2.6-2.3-3.9-3.4-.8-.8-1.7-1-2.7-.5-2.6,1.4-5.2,2.6-7.8,4-3.9,2.1-7.7,4.3-11.5,6.4-.3.2-.7.3-1,.4-.3.2-.5.2-.7,0Z"/>
        <path class="cls-6" d="M126.9,133.9c1.8-1.6,3.7-2.7,5.6-3.8,4.2-2.6,8.6-5,12.8-7.5,1.1-.6,1.3-.6,2.2.2,1.7,1.8,3.5,3.5,5.1,5.4,1,1.2.8,1.4,0,2.4-1.9,2.4-3.8,4.7-5.6,7.1-2.2,2.9-4.5,5.8-6.6,8.8-2,2.7-3.9,5.6-5.8,8.4-.2.3-.3.7-1,.7-2.2-7.2-4.2-14.5-6.7-21.7Z"/>
        <path class="cls-6" d="M108.5,401.8c0-1.1.3-2.2.6-3.2,2.2-6.5,5.7-12.3,9.7-17.8.6-.8,1.3-1.6,1.9-2.3.2.3.4.6.5,1,.4,3.3.8,6.7,1.2,10,.4,3.3,1,6.7,1.5,10,.4,3.2.8,6.3,1.3,9.5.5,3,1,5.9,1.5,8.9-2.8-.9-5-2.6-7.2-4.3-4-3.1-7.5-6.7-10.3-10.9-.2-.3-.5-.6-.7-.8Z"/>
        <path class="cls-31" d="M473.8,283.6c0,0,.2,0,.2.1,4.3,3.5,7.5,7.7,9,13.1,0,2.7,1.2,5.3.2,8.1-.5,1.3-.3,2.9-.6,4.3-.7,4.5-2.5,8.6-4.6,12.6-.4.9-.5.8-1.6,0-1.7-3.7-3.4-7.5-5.1-11.2-.8-1.7-1.6-3.4-2.1-5.3,0-.9,0-1.8.4-2.7,2-5.2,2.7-10.6,3.2-16.1,0-1,0-2,.8-2.8Z"/>
        <path class="cls-6" d="M473.8,283.6c-.1,5.4-.8,10.8-2.3,16-.6,1.9-1.1,3.9-2.2,5.6-.3-.5-.7-.9-.9-1.4-2.2-4.9-4.4-9.9-6.6-14.8-2-4.6-4.1-9.2-6.1-13.9-.2-.4-.2-.9-.2-1.3,5.9,1.7,11.3,4.3,16.3,7.9.7.5,1.5,1,2,1.8Z"/>
        <path class="cls-32" d="M102,101.9c.6,0,1.2-.2.8-1-1.4-3.5-2.9-7-4.3-10.4-.2-.5-.5-1-.6-1.5-.2-.4,0-.7.4-.8.4,0,.7,0,1.1,0,3.2.4,6.4.8,9.5,1.3,1.8.3,3.6.6,5.4.9.8.1,1.6.3,2.4.5.9.3,1.1.6.9,1.7,0,.4-.2.7-.2,1.1-.2,4.1-.4,8.3-.7,12.4-.1,2.6-.7,5.1-.6,7.7,0,.1-.1.4-.2.4-.3.2-.5-.1-.6-.4-1.1-2.7-2.2-5.5-3.3-8.2-1.4-3.4-2.9-6.8-4.4-10.1,0-.1-.3-.2-.5-.4-.7.7-1,1.7-1.3,2.6-.9,2.2-1.6,4.5-2.8,6.6.2-1-.5-1.6-1.1-2.2Z"/>
        <path class="cls-42" d="M286.5,159.3c3-.1,5.5,1.1,7.7,3,1.6,1.4,3.3,2.6,5,3.9.3.3.8.5.8,1-.3.5-.8.3-1.2.3-5,0-10.1,0-15.1.4-1.1.1-1.9-.3-2.8-.8-2.9-2-5.8-3.9-8.7-5.9-.8-.5-1.6-.9-2.3-1.4,0-.9.7-1,1.3-1.1,4.9,0,9.7-.2,14.6,0,.3,0,.5.2.7.4Z"/>
        <path class="cls-1" d="M201.6,182.3c1.8,1.5,3.8,4,5.2,6.3-2.4,1.2-4.8,2.5-7.5,3.9.7-3.6,1.5-6.9,2.4-10.1Z"/>
        <path class="cls-38" d="M286.5,159.3c-1.4,0-2.9,0-4.3,0-3.6,0-7.3,0-10.9,0-.5,0-1.1,0-1.4.6q-1-.9-2.9-1.2c1.9-.6,3.8-.5,5.7-.4,3.9.4,7.7.4,11.6,0,1.9-.1,3.8-.2,5.7.4-.6,0-1.3.1-1.9.1-.5,0-1.1,0-1.5.4Z"/>
        <path class="cls-33" d="M40.2,82.6c-.2.3-.3.7-.5,1-.3,0-.6,0-.8,0-.2,0-.4-.1-.4-.3,0-.1,0-.3.2-.4.5-.4,1-.3,1.6-.3Z"/>
        <path class="cls-16" d="M67.3,127.4c0,.3,0,.7,0,1-.4,0-.8,0-.9-.4,0-.6.4-.6.9-.6Z"/>
        <path class="cls-23" d="M18.5,84.8c.2,0,.5,0,.7,0-.1.1-.2.3-.3.4-.3.2-.7.8-1,.2-.2-.3.3-.6.6-.7Z"/>
        <path class="cls-43" d="M130.7,167c0,.2,0,.4,0,.6-.1.3-.3.5-.6.4-.3-.2,0-.5.1-.7.1-.1.3-.2.4-.3Z"/>
        <path class="cls-43" d="M131.3,167.6c.2-.2.4-.3.6-.5-.2.2-.4.3-.6.5Z"/>
        <path class="cls-43" d="M131.3,165.9c-.2.2-.3.4-.5.6.2-.2.3-.4.5-.6Z"/>
        <path class="cls-32" d="M233.4,448.7c.9,0,1.5,0,2.1,0,9.5.2,18.9-1,28.2-3,15.4-3.3,30.3-8.3,45-13.8,10.4-3.9,20.7-8.1,31.3-11.6,1.8-.6,3.7-1.2,5.5-1.8.3-.1.8-.3,1,0,.3.3,0,.7-.2.9-9.4,13.3-20.7,24.6-35.3,32.3-1.8,1-3.7,1.6-5.7,2-12,2.2-24.1,2.9-36.3,2.2-11.6-.7-23-2.8-34.1-6.2-.4-.1-.9-.3-1.3-.4,0,0,0-.1-.3-.5Z"/>
        <path class="cls-32" d="M423,342.8c-1.3,6.1-3.3,12-5.5,17.9-5.2,13.7-12.3,26.2-21.3,37.8-.3.4-.7.8-1,1.3-.6,1-1.4,1.2-2.6,1.1-4-.4-8.1-.8-12.1-.6-2.8.1-5.7.4-8.5.5-.6,0-1.3.2-1.9,0-.2-.5,0-.9.3-1.3,3.2-6.8,5.7-13.9,7.4-21.3.4-1.6,1.2-2.4,2.7-3.2,13.9-7.3,26.2-16.6,37-28,1.8-1.9,3.4-3.9,5.1-5.8,1.2.2.6,1,.5,1.6Z"/>
        <path class="cls-32" d="M345,439.9c.6-.8,1.2-1.6,1.8-2.4,5.8-6.9,11.1-14.2,15.3-22.2.6-1.1,1.4-1.6,2.6-1.8,3.5-.5,7.1-1.1,10.7-1.3,2.6-.1,5.1-.2,7.7-.3.1,0,.3.1.4.2,0,.1,0,.4,0,.5-.4.4-.7.8-1.1,1.2-10.8,10.4-22.8,19.1-36.2,25.9-.2,0-.3.1-.5.2-.2.2-.5.1-.7,0Z"/>
        <path class="cls-36" d="M423,342.8c-.2-.5.1-1.2-.5-1.6,0-.2.1-.3.2-.5.2-.2.3-.5.6-.3.1,0,.2.3.2.4,0,.7,0,1.4-.6,2Z"/>
        <path class="cls-24" d="M345,439.9c.2,0,.5,0,.7,0-.1.3-.4.5-.8.5,0,0-.2-.2-.3-.3.1,0,.2-.2.3-.3Z"/>
        <path class="cls-3" d="M284.3,158.3c-.3.1-.6.4-1,.4-3.2,0-6.4,0-9.6,0-.3,0-.6-.3-1-.4,3.9-.2,7.7-.2,11.6,0Z"/>
        <path class="cls-14" d="M244.3,257.1c0-.8,0-1.7.1-2.6,0-.6,0-1.1,0-1.7,0-1,.3-1.7,1.4-2,.9-.2,1.7-.6,2.6-1,10.9-3.8,22-7.1,33.3-9.8,6.8-1.7,13.6-2.9,20.5-4,2.9-.5,5.8-1,8.7-1.4,1.9-.3,3.8-.3,5.8-.5,3-.4,6-.6,9.1-.7,3.4-.1,6.8-.7,10.2-.6.9,0,1.8-.2,2.7.4.5.3,1.1.2,1.6,0,1.3-.5,2.7-.4,4.1-.4,5.3-.2,10.7.4,16,.7,2.3.1,4.6.6,6.8.6,3.8,0,7.4,1.1,11.1,1.6,3.6.6,7.2,1.4,10.8,2.2,5.5,1.2,10.8,2.8,16.2,4.4,1.8.5,3,1.5,3.9,3.1,5,8.8,10.4,17.4,16,25.8,3.4,5.1,7,10.1,10.4,15.3,1.6,2.4,2.9,4.9,4.4,7.3,2.6,4.4,5.1,8.7,7.7,13.1.2.4.4.8.6,1.2.1.3-.2.7-.6.7-.9,0-1.6-.4-2.4-.6-9-2.5-18-5.3-27.1-7.3-4.7-1-9.5-2-14.4-2.6-3.8-.4-7.6-1.1-11.5-1.5-3.1-.3-6.2-.6-9.3-.6-8.3,0-16.6,0-24.8,0-3.6,0-7.1.5-10.7.9-2.1.2-4.2.3-6.3.6-3.9.5-7.8,1.1-11.7,1.7-6.8,1-13.6,2.4-20.3,4-14.9,3.5-29.4,8.1-43.7,13.5-10.3,3.9-20.4,8.3-30.4,13-9.7,4.5-19.1,9.5-28.4,14.8-2.8,1.6-5.6,3.1-8.4,4.7,0,0-.2,0-.2.1-.7.4-1.2.1-1.4-.7-.4-3.4-.8-6.7-1.2-10.1-.2-1.8-.4-3.6-.7-5.5-.1-.9-.7-1.3-1.6-.8-2.3,1.3-4.6,2.7-6.9,4.1-.8.5-2,.8-2.5,1.7-.5.9,0,2,0,3,.2,3.2.6,6.4.9,9.6.2,1.9,0,3.9.5,5.8.1.5-.2.8-.7,1.1-1,.7-2,1.3-3,2-8.4,5.3-16.6,10.9-24.7,16.6-1.9,1.4-3.9,2.7-5.9,4.1-.3.2-.8,0-.9-.4,0,0,0-.2,0-.3-.2-2.8-.4-5.7-.6-8.5-.3-3.5-.6-6.9-.9-10.4,0-.3,0-.5,0-.8-.2-3.8-.2-7.5-.7-11.3-.5-3.7-.2-7.5-.9-11.3,0-.2,0-.4,0-.5-.2-4.3-.3-8.6-.7-12.9-.5-4.8-.2-9.6-.9-14.3-.2-1.6,0-3.3-.2-5,0-.9.4-1.6,1.1-2.1,1.4-.9,2.7-1.9,4.1-2.8,6.9-4.4,13.8-8.8,20.8-13.1,4.2-2.6,8.6-5,12.9-7.4,3.4-1.9,6.7-3.8,10.2-5.6,11.7-6.1,23.5-11.8,35.7-16.8,2-.8,4.1-1.5,6.4-1.6,2.2,0,4.4.3,6.4,1.3.5.2.9.6,1.7.4Z"/>
        <path class="cls-9" d="M211.3,233.2c0-.4,0-.7-.1-1.1-.4-1.8-1.2-2.5-3.1-2.4-1.4,0-2.7.4-4.1.6-1.7.3-3.4.7-5.1,1.1-1.4.3-2.9.4-4.4.5-2.5.1-4.6-.7-5.5-4.3-.5-2.1-.4-4.2,0-6.3.9-4.9,3.2-9.1,6.8-12.6,4-3.9,8.8-6.6,14.2-8.1,1.6-.4,3.3-.6,4.9-.5,3.4.2,5.6,2.1,6.3,5.5,0,.4.1.7.1,1.1.2,2.6.2,2.5-2.3,3.6-2.5,1-5.1,2.1-7.6,3.2-.5.2-.9,0-1-.5,0-.3,0-.6-.2-.8-.6-1.4-1.6-2.1-3-1.8-3.2.6-5.5,2.5-6.7,5.5-.2.4-.2.9-.2,1.3-.1,1.6.5,2.4,2.1,2.6,1.7.3,3.3-.2,4.9-.5,2.3-.4,4.5-.9,6.8-1.1,1,0,2,0,3,0,3,.4,4.9,2,5.4,5,.3.8.5,1.6-.1,2.4-3.4-.6-6,1.6-8.9,2.7-1.1.4-.8,1.4-.6,2.4.3,1.4.6,2.9-1.1,3.8-.7-.3-.6-.8-.4-1.4Z"/>
        <path class="cls-9" d="M231.3,235.6c0,0-.1.1-.2.2-1.3.6-1.6.5-1.6-.7,0-2.1-.2-4.2-.2-6.3-.1-6.9-.2-13.8-.3-20.7,0-4.1-.2-8.3-.3-12.4,0-1.6,0-1.6,1.6-2.1,8.7-3,17.6-5.4,26.5-7.4,1.1-.2,1.4,0,1.4,1,.1,1.8.2,3.7.2,5.5,0,.6-.3,1-.9,1.2-1.2.3-2.3.6-3.5.9-4.3,1.2-8.7,2.4-13,3.6-1.4.4-1.4.5-1.4,2,0,2.2.2,4.4.3,6.5.9.4,1.4,0,2-.1,4.4-1.3,8.8-2.5,13.3-3.8.4-.1.9-.2,1.3-.3.6,0,.9.2.9.7,0,1.2.2,2.4.2,3.6,0,1.1.6,2.4-.3,3.2-.7.6-1.9.6-2.8.9-4.2,1.3-8.5,2.5-12.7,3.9-1.8.6-1.9.5-1.7,2.5,0,.2,0,.4-.1.5.7,2.3-.4,4.7.6,6.9-.7,1.6-1.3,1.3-1.8,0-.4-1.3-.2-2.7-.2-4.1,0-1.3-.6-1.9-1.9-1.4-.8.3-1.6.5-2.3.8-3.6,1.2-3.6,1.3-3.6,5.1,0,3.6-.2,7.1.3,10.7Z"/>
        <path class="cls-9" d="M286.9,206.4c-2-.8-4-1.2-6.2-1.2-3.2,0-6.4-.3-9.6-1-4-.9-6.4-3.6-6.7-7.6-.4-5.2,1.6-9.3,6-12.2.7-.4,1.4-.9,2.2-1.2,4.7-1.9,9.5-2.6,14.6-1.7,1.5.3,3,.8,4.4,1.7,1.9,1.2,3.4,2.8,4.1,5,1,3.5,1.1,3.4-2.3,3.7-2.2.2-4.4.4-6.6.6-.6,0-1.1,0-1.2-.8-.5-2-2-2.8-3.9-3-2.1-.2-4,.4-5.4,2.1-1.3,1.7-.8,3.6,1.1,4.6,1.3.7,2.8.8,4.3,1,2.9.3,5.9.4,8.8,1,1.4.3,2.8.8,4.1,1.5,1.6,1,3.1,2,3.6,3.9.6,1.3-.3,1.6-1.3,1.8-.8.2-1.6.2-2.4.5-1.7.6-3.5.8-5.2.8-.8-.2-1.5.8-2.3.4Z"/>
        <path class="cls-9" d="M305.3,205.2c-.7-1.9-.6-4-.9-6-.8-5.7-1.6-11.5-2.3-17.2,0-.4-.2-.9.1-1.3.4-.3.8-.3,1.3-.3,2.5,0,5,0,7.4,0,1,0,1.3.2,1.4,1.3.8,5.2,1.6,10.4,2.3,15.5.2,1.5.7,3.1.6,4.6.3.9.6,1.7-.3,2.4-2.6-.9-5.1.1-7.7.1-.8,0-1.1,1.1-1.9.8Z"/>
        <path class="cls-4" d="M221.9,225.6c.8-.6.4-1.5.6-2.3.9,2.1.7,4.3.3,6.5-.4,2.1-1.2,4-2.4,5.8-1.3,2.1-2.9,4-4.8,5.7-4.9,4.5-10.5,7.7-16.7,9.9-1.8.7-3.7,1.1-5.7,1-2.4-.1-4-1.3-4.9-3.4-.8-1.7-.9-3.6-.8-5.4,0-.8.6-1.1,1.2-1.4,2.9-1.6,5.8-3.1,8.7-4.7.3-.2.7-.2,1.1-.4.3.8.5,1.6.8,2.4.3.8,1,1.3,1.9,1.4,1.1.1,2.2,0,3.2-.5,3.3-1.4,5.7-3.6,7-7,0,.5.1,1,.6,1.3,0,3.6-2.9,5.2-5.4,6.7-2.8,1.7-6,2.8-8.8-.3-.5-.5-1.1-.8-1.8-.5-2.1.8-4.2,1.6-5.7,3.2-1.9,1.9,0,5.9,3,6.6.9.2,1.8.1,2.7-.1,7.7-2,14.5-5.9,20-11.6,2.9-3,4.8-6.7,5.2-11,0-.6.1-1.3.7-1.7Z"/>
        <path class="cls-10" d="M294.2,204.6c.8-.9,1.8-.5,2.7-.6.8,0,1.1-.5,1.2-1.2,2.1,3.6,2,7.1-.3,10.6-.7,1.1-1.7,2-2.7,2.8-1.3,1-2.7,1.9-4.3,2.5-5.2,2.2-10.5,3.3-16.1,3.1-.9,0-1.8-.1-2.7-.4-4.3-1.1-6.9-4.2-7.2-8.7,0-.8.1-1.2,1-1.4,2.9-.6,5.7-1.3,8.6-1.9,1.1-.2,1.1-.2,1.5,1,.7,2,2.1,2.9,4.1,3.1,2.2.2,4.2-.2,6-1.5,2.2-1.5,2.5-3,1-5.4,0-.2-.2-.3-.3-.5.7-.3.9-1.3,1.8-1.2,3,5,0,9.2-5.3,9.9-3.1.4-6.3.5-8.5-2.5-.9-1.2-6.4-.5-7.4.7-.5.6-.2,1.2,0,1.8,1.1,2.7,3.2,4.4,6,4.6,6.7.6,13-.8,18.9-4.1,1.3-.7,2.3-1.8,3.3-2.9,1.3-1.4,1.5-3.1,1.7-4.8.3-2.6-1.9-2.5-3.2-3.4Z"/>
        <path class="cls-10" d="M240.6,225.1c-.3-.7-.6-1.3-.6-2.1,0-1.7,0-3.5,0-5.2.5,1,.3,2,.4,3,0,1-.1,2,.3,3.1,6.3-2,12.5-4.2,19-5.8.4,2.4.5,4.5.6,6.7,0,.6-.3,1.1-.8,1.3-.3.1-.7.2-1.1.3-8.8,2.6-17.5,5.6-26,8.9-.4.2-.9.2-1.3.3-.8-.7-1.2-1.5-1.1-2.6,0-2.8,0-5.6,0-8.5,1.9.5,1.2,2.1,1.2,3.2.2,5.8.2,5.8,5.6,3.8,6.2-2.3,12.4-4.5,18.8-6.3.4-.1.9-.3,1.3-.4,1.5-.6,1.4-1.8,1-3-.4-1.3-1.4-.9-2.3-.7-4,1.1-7.9,2.4-11.8,3.7-1.1.4-2.2,1.1-3.4.3Z"/>
        <path class="cls-48" d="M305.3,205.2c.7-.3.4-1.3,1.1-1.6,1.3,2.5,1.1,5.3,1.6,8,.6,3.1.5,3.1,3.6,2.9.4,0,.7,0,1.1,0,2.2.2,2.6-.9,2.3-2.9-.3-1.5-.5-3.1-.7-4.6-.1-1-.5-2,.4-2.8.8-.6.4-1.5.6-2.3,0,.2.2.3.3.5.7,4.2,1.3,8.3,1.9,12.5.1.9-.1,1.2-1,1.3-2.9.2-5.9.4-8.8.7-.7,0-1-.3-1.1-.9-.2-1.4-.5-2.7-.6-4.1-.2-2.2-.8-4.3-.7-6.6Z"/>
        <path class="cls-35" d="M182.8,245.7c.5.6.6,1.1,0,1.6,0,0-.1.1-.2.2-3.4,2-6.7,4.1-10.1,6.1-.3.2-.6,0-.7-.2-.1-.2-.1-.5-.1-.8,0-.2.1-.3.3-.4,3.5-2.3,7.1-4.4,10.7-6.5Z"/>
        <path class="cls-28" d="M173.6,263.2c-.1-.2-.3-.4-.3-.5-.1-.5,0-.9.5-1.2,3.4-2,6.7-4.1,10.1-6.1.3-.2.7-.3.9.2.1.3.2.7-.2,1-.2.2-.4.3-.7.5-3.1,1.9-6.2,3.8-9.4,5.7-.3.2-.6.3-1,.4Z"/>
        <path class="cls-29" d="M180.1,227.1c0,.7-.5.9-1,1.2-2.7,1.6-5.3,3.2-8,4.7-.4.2-.8.5-1.2.7-.3.2-.7.2-.9-.2-.2-.3-.1-.7.1-1,.1-.1.3-.3.4-.3,3.2-1.9,6.4-3.8,9.6-5.7.3-.2.5-.1.7.1.1.1.1.3.2.5Z"/>
        <path class="cls-30" d="M168.1,224.2c-.1-.1-.3-.2-.3-.4-.2-.5,0-.9.4-1.2,3.2-1.9,6.5-3.8,9.8-5.7.2-.1.6-.2.7.2,0,.2.2.6,0,.8-.2.3-.5.6-.8.7-3,1.8-6,3.6-9,5.3-.2.1-.5.2-.8.3Z"/>
        <path class="cls-34" d="M181.6,236.8c0,.7-.5.9-1,1.2-2.7,1.6-5.4,3.2-8,4.8-.5.3-.9.6-1.4.8-.2.1-.5.1-.7-.2,0-.2,0-.4,0-.5,0-.4.3-.7.6-.9,3.2-1.9,6.5-3.9,9.7-5.8.2-.1.5-.2.7,0,.1.1.1.3.2.5Z"/>
        <path class="cls-20" d="M331,206.2c-1.4,0-2.7,0-4.1,0-.3,0-.7,0-1-.3-.2-.1-.3-.4-.4-.7,0-.3.2-.5.5-.5,1.7,0,3.5,0,5.2.1,1.2,0,2.4.1,3.6.2.4,0,.7.1,1,.3.1,0,.2.3.3.4.1.4-.2.5-.4.5-1.6,0-3.1,0-4.7,0,0,0,0,0,0-.1Z"/>
        <path class="cls-7" d="M321.4,181.9c-1.4,0-2.8,0-4.1,0-.5,0-.9,0-1.2-.5,0-.1-.1-.4-.1-.5,0-.1.2-.3.3-.3.3,0,.5,0,.8,0,2.7.2,5.3.3,8,.5.2,0,.4,0,.5.1.4.1.6.4.5.8,0,.3-.3.4-.6.4-1.4,0-2.8-.2-4.1-.3,0,0,0,0,0-.1Z"/>
        <path class="cls-34" d="M327.7,198c-1.4,0-2.7,0-4.1,0-.4,0-.7-.1-1-.2-.1,0-.2-.3-.2-.5,0-.2,0-.3.2-.4.1-.1.3-.2.5-.2,2.8,0,5.7.2,8.5.3.2,0,.4,0,.5.1.2.2.4.4.5.6.1.4-.2.5-.5.5-.9,0-1.8,0-2.7,0-.5,0-1.1,0-1.6,0h0Z"/>
        <path class="cls-22" d="M324.4,189.8c-1.5,0-2.9,0-4.4,0-.5,0-.9-.2-.9-.8,0-.5.5-.5.8-.5,1.2,0,2.4.1,3.5.2,1.8.6,3.7-.2,5.5.5h0c-1.3,1.7-3,.5-4.6.6Z"/>
        <path class="cls-12" d="M337.3,213c.6-.1,1.3-.2,1.8.2.1,0,.2.3.2.5,0,.2,0,.4-.3.4-.2,0-.4,0-.5,0-2.9,0-5.8,0-8.7-.1-.4,0-.7-.1-.9-.5,2.7-.8,5.6.2,8.4-.5Z"/>
        <path class="cls-45" d="M337.3,213c-.5.6-1.1.5-1.8.5-2.2,0-4.4,0-6.6,0,0-.1-.2-.3-.2-.4.2-.4.6-.4.9-.4,2.5,0,5.1.2,7.6.2Z"/>
        <path class="cls-25" d="M324.4,189.8c1.1,0,2.1,0,3.2,0,.5,0,1.1,0,1.4-.5.3.1.5.3.4.6,0,.3-.2.5-.5.5-1.5,0-3.1,0-4.5-.4Z"/>
        <path class="cls-25" d="M329,189.2c-1.3,0-2.7,0-4,0-.5,0-1.1,0-1.5-.5,1.9,0,3.7-.3,5.5.5Z"/>
        <path class="cls-9" d="M212.5,85.9c-.5,3.1-.9,6.2-1.4,9.2-1.2,7.1-2.4,14.1-3.6,21.2,0,.3,0,.6-.1.8-.8,3.8-.8,3.2,2.4,4.6,12.2,5.5,23.9,12,35.1,19.5-1.3,1.4-2.8.5-4.3.5-5.2,0-10.5-.1-15.7,0-6.9.1-13.8.7-20.6,1.5-1.5.2-1.6.2-1.9,1.8-.9,4.5-1.7,9-2.6,13.5-1.3,6.7-2.6,13.3-4,20,0,.4-.2.7-.6,1-.7-.6-.9-1.5-1.3-2.2-4.4-9.2-9.4-18.1-15-26.7-1.8-2.7-1.2-2.8-4.8-1.9-10.8,2.8-21.3,6.2-31.6,10.5-1.1.5-2.2.9-3.3,1.3,0,0-.2,0-.2,0-.1-.5.3-.8.5-1.2,6.7-9.7,13.9-19,21.7-27.8,2.3-2.6,2.2-2,0-4.6-7-8.2-14.5-15.9-22.6-23.1-.7-.6-1.3-1.3-2-1.9,0,0,0-.2,0-.3.3-.5.8-.2,1.2-.2.5,0,.9,0,1.4.1,11.8,1.7,23.5,4.1,35,7.4,1.8.5,3.6.9,5.3,1.5.9.3,1.5,0,2.2-.5,2.2-2.1,4.4-4.2,6.7-6.2,7.1-6.5,14.6-12.7,22.2-18.6.4-.3.9-.6,1.4-.9,1.3.2.8,1.1.7,1.8Z"/>
        <path class="cls-9" d="M157.8,98c-1.1.3-2-.4-2.9-.7-5.4-1.8-10.8-3.5-16.3-5-1.5-.4-2.6-.2-3.7.9-3.8,3.8-7.7,7.6-11.6,11.4-.6.6-1.3,1.3-1.9,1.8-.7-.1-.5-.6-.5-.9,0-.3,0-.5,0-.8.4-5,.9-10.1,1.3-15.1,0-.9-.2-1.2-1.3-1.4-3.3-.6-6.7-1.2-10-1.7-3.1-.5-6.2-.8-9.3-1.3-.7,0-1.4-.1-2.2-.8.8-.3,1.5-.5,2.1-.8,6.2-2.1,12.4-4.1,18.7-5.8.6-.2,1.2-.4,1.9-.5.8-.2,1.2-.7,1.3-1.5.4-4.5.8-9,1.2-13.5,0-1.1,0-2.2.6-3.2.8,0,1.1.6,1.5,1,3.8,3.8,7.4,7.7,10.9,11.7.9,1,1.7,1.4,3.1,1.1,6.4-1.4,12.8-2.5,19.2-3.5.5,0,1.1,0,1.6-.1.7-.1,1.5-.8,1.7.6-5.5,4.1-11,8.2-16.1,12.6-.2.8.3,1.1.7,1.6,3.1,4.1,6.1,8.2,9.2,12.3.4.5.9.9.7,1.7h0Z"/>
        <path class="cls-9" d="M79.4,127.4c6.3-1.5,12.7-2.8,19.2-3.8,1.4-.2,2-.8,2.5-2.1,1.6-4.5,3.3-9,4.9-13.4.3-.9.6-1.9,1.3-2.6.6.3.7.9.9,1.4,1.8,4.2,3.5,8.5,5.3,12.7.8,1.8.8,1.9,2.8,1.7,4.1-.3,8.2-.6,12.4-.9,2.2-.1,4.4-.2,6.6-.2.1,0,.3.1.6.3-.8.5-1.6,1-2.3,1.5-4.5,2.9-9,5.7-13.5,8.6-1.9,1.3-1.9,1.3-1.1,3.6,1.4,4.1,2.9,8.1,4.3,12.2.2.7.6,1.3.4,2.1-1-.2-1.7-.8-2.5-1.2-3.9-2.2-7.9-4.3-11.8-6.6-1.4-.8-2.4-.8-3.7.3-3.4,2.9-6.9,5.7-10.4,8.6-.8.7-1.7,1.4-2.6,2.1-1.1,0-1.1-.5-.8-1.3.5-3.2,1.7-6.2,2.5-9.2.5-1.8,1.1-3.5,1.6-5.2.3-1.1.3-1.2-.8-1.6-4.5-1.8-9-3.5-13.6-5.2-.8-.3-1.6-.5-2.3-.8-.4-.3-.4-.6,0-.9Z"/>
        <path class="cls-9" d="M53.9,81.4c4-1.4,8.1-2.2,12.2-3.2,1.8-.4,3.6-.9,5.4-1.2,1.3-.2,1.9-.9,2.3-2,1.4-3.5,2.9-7,4.3-10.4.4-.9.6-1.9,1.5-2.7.8,1.6,1.6,3.1,2.4,4.7,1,2,2,3.9,3,5.9.8,1.7.9,1.7,2.7,1.4,5.4-.7,10.7-1.5,16.1-2.2.5,0,1-.3,1.5.1-.1.8-.9.9-1.4,1.2-3.9,2.5-7.9,5-11.9,7.5-.6.4-1.2.8-1.8,1.3-.3.2-.4.6-.3,1,.3.7.6,1.4.9,2,1.1,2.5,2.3,5,3.4,7.5.3.7,1.2,1.6.5,2.2-.6.5-1.5-.3-2.3-.6-3.5-1.2-6.9-2.6-10.3-3.8-2.6-1-2.7-1-4.9.8-3.6,2.8-7.3,5.6-10.9,8.5-.6.4-1.1,1-2,1.2,1.3-5,3.4-9.5,4.9-14.5-5.1-1.8-10.4-2.7-15.5-4.1-.2-.1-.2-.2-.2-.4,0-.1.1-.2.2-.2Z"/>
        <path class="cls-9" d="M28.5,75.9c1.9-2.3,3.8-4.7,5.8-7,.4-.5.9-1,1.3-1.5.5-.6.4-1,0-1.4-.6-.5-1.3-1-2-1.5-1.6-1.2-3.2-2.4-4.8-3.6.4-.8,1-.7,1.5-.8,1.8,0,3.7-.1,5.5-.2,1.8,0,3.7-.2,5.5-.3,1,0,1.7-.4,2.4-1.1,2.6-2.7,5.3-5.4,7.9-8.1.4-.4.8-1,1.7-1.1-.4,2.3-.8,4.5-1.1,6.8,0,.2-.1.4-.1.5-.5,3-.5,3.1,2.6,3.2,2,0,4,.1,6.1.2,1.2,0,2.4.2,3.6.5-.3.8-1,.8-1.5,1-3.5,1.4-7,2.8-10.5,4.1-1.3.5-1.9,1.2-2,2.6-.3,2.8-.7,5.6-1,8.4-.8.2-1.2-.4-1.5-.7-1.7-1.5-3.5-3-5.2-4.5-.7-.6-1.4-.7-2.3-.3-2.2,1.1-4.4,2.2-6.6,3.4-1.4.7-2.8,1.4-4.2,2.1-.6,0-.8-.2-.7-.7Z"/>
        <path class="cls-32" d="M74.9,59.7c.4,0,.6.2.5.5,0,.3-.1.5-.2.8-1.6,3.9-3.2,7.8-4.8,11.7-.4,1-1,1.7-2.1,2-5.1,1.4-10.3,2.8-15.4,4.2-.3,0-.7.2-1.1.2-.3,0-.5-.3-.5-.5,0-.2,0-.4,0-.5.4-2.9.7-5.8,1.1-8.7.1-1,.6-1.5,1.4-1.8,1.7-.7,3.4-1.4,5.1-2,4.9-1.8,9.8-3.6,14.7-5.4.4-.2.9-.2,1.3-.3Z"/>
        <path class="cls-32" d="M146.5,116.4c-.8.6-1.3.4-1.9.4-2.4,0-4.8-.2-7.2,0-4.4.4-8.8.3-13.2.6-2,.1-4,.5-6,.4-.5,0-.9,0-1.2-.5-.2-.6-.2-1.1.2-1.5.3-.4.6-.7.9-1,3.7-3.7,7.4-7.5,11-11.2.3-.3.5-.5.8-.8.4-.3.8-.4,1.3-.2.5.3,1,.6,1.4.9,2.1,1.8,4.1,3.7,6.1,5.5,1.8,1.7,3.5,3.5,5.5,5,.8.6,1.4,1.4,2.3,2.3Z"/>
        <path class="cls-46" d="M96.8,81.7c.5-.9,1.3-1.2,2-1.6,4.9-3.1,9.8-6.2,14.9-8.9,1.7-.9,3.4-1.9,5.1-2.8.5-.3,1,0,.9.6-.2,1.7-.3,3.5-.5,5.2,0,.5-.4.8-.9,1-.4.2-.9.3-1.3.4-6.3,1.7-12.4,3.8-18.6,5.9-.4.1-.8.5-1.5.2Z"/>
        <path class="cls-21" d="M148.9,99.7c-1.5.1-2.9-.4-4.3-.6-2.7-.3-5.4-.8-8.1-1.2-.5,0-.7-.6-.4-1,.9-1.3,2.1-1.3,3.4-1,2,.6,4,1.2,6.1,1.8,1.5.5,3,.9,4.4,1.4,0,1.1-.5.8-1.1.6Z"/>
        <path class="cls-19" d="M148.9,99.7c.4,0,.9-.1,1.1-.6,1.2.2,2.4.5,3.4,1.4-1.5-.4-3.1,0-4.5-.8Z"/>
        <path class="cls-27" d="M240.6,141.7c1,0,1.9,0,2.9,0,.5,0,1.1,0,1.4-.4.2.2.4.3.5.5,0,0-.2.3-.3.3-1.5,0-3,.4-4.5-.4Z"/>
        <path class="cls-8" d="M28.5,75.9c.2.2.5.5.7.7-.5.6-1.2,1-2.2,1.1.2-.9.8-1.5,1.4-1.9Z"/>
        <path class="cls-44" d="M212.5,85.9c-.2-.6,0-1.4-.7-1.8.1-.1.2-.3.3-.4.3-.2.7-.4.8.2.1.7,0,1.5-.5,2.1Z"/>
        <path class="cls-17" d="M163.3,69.8c-.4-.7-1.1-.4-1.7-.6.4-.4.9-.5,1.5-.5.4,0,1-.2,1,.5,0,.3-.4.5-.8.6Z"/>
        <path class="cls-39" d="M92,150.4c0,.5.2,1,.8,1.3-.2.3-.5.6-.7.7-.2.2-.5,0-.6-.3,0-.6,0-1.3.5-1.7Z"/>
        <path class="cls-40" d="M79.4,127.4c0,.3,0,.6,0,.9-.5,0-1,0-.9-.6,0-.4.5-.4.9-.3Z"/>
        <path class="cls-2" d="M53.9,81.4c0,.2,0,.4,0,.6-.2,0-.4,0-.5,0-.1,0-.2-.2-.2-.3,0,0,.1-.1.2-.1.2,0,.3,0,.5,0Z"/>
        <path class="cls-9" d="M157.8,98.1c.2,0,.3,0,.3.2,0,0-.1,0-.2,0,0,0,0-.1,0-.2,0,0,0,0,0,0Z"/>
        <path class="cls-9" d="M195.3,329.9c-.5-.1-.9.2-1.3.4-3.6,2.1-7.1,4.3-10.7,6.4-1,.6-1.5,1.2-1.3,2.4.3,2.9.6,5.9.9,8.8.2,2.4.5,4.8.8,7.1.1,1.1-.1,1.9-1.2,2.5-10,6.2-19.7,12.9-29.3,19.7-.4.3-.8.5-1.2.7-.3.2-.5,0-.7-.3-.1-.2-.1-.5-.1-.8-.4-5.5-.8-11-1.3-16.5-.5-6.2-1-12.5-1.4-18.7-.2-3.2-.4-6.4-.6-9.6-.5-8.6-.9-17.3-1.4-25.9,0-1.4.4-2.2,1.5-2.9,12.2-8.2,24.7-15.9,37.6-23.1,14.4-8,29.2-15.2,44.4-21.6,1.9-.8,3.8-1.5,5.8-1.6,3.1-.2,5.8.5,8.3,2.4.4.3.7.6,1,.8.7-.2.5-.7.5-1.1,0-1.8,0-3.7,0-5.5,0-.9.3-1.3,1.2-1.6,3.3-1.1,6.6-2.3,9.9-3.4,10-3.3,20.1-6,30.3-8.3,6.9-1.5,13.9-2.7,20.9-3.7,8.9-1.3,17.9-2,26.9-2.3,1.1,0,2.2-.4,2.9,1,.1.3.5.2.7,0,2.5-1.2,5.2-1.1,7.8-1.1,7.6.1,15.2.7,22.8,1.6,12.3,1.5,24.2,4.3,36,8,1.4.4,2.1,1.3,2.7,2.5,6.7,11.5,13.7,22.9,21.4,33.8,5.8,8.3,10.7,17.2,15.9,25.8,0,.2.1.3.2.5-.4.7-1,.2-1.4,0-5.9-1.7-11.8-3.4-17.8-5-9.4-2.5-19-4.3-28.7-5.4-12-1.4-24-1.7-36.1-1.4-3.8,0-7.5.4-11.2.8-3.7.4-7.3.7-11,1.2-20.3,2.4-40,7.2-59.3,13.6-18.4,6.1-36.1,13.6-53.4,22.3-8.6,4.3-17.1,8.9-25.5,13.7-.6.4-1.3.7-1.9,1.1-.9.5-1.2.3-1.3-.6-.4-3.2-.8-6.4-1.2-9.6-.3-2-.5-4-.7-6,0-.5-.1-.9-.5-1.3Z"/>
        <path class="cls-26" d="M221.9,225.6c.2,6.5-3,11.4-7.6,15.5-3.2,2.9-6.9,5.2-10.8,7-2.5,1.1-5.1,2.1-7.7,2.8-4.5,1.1-7.4-3-7-6.8,0-.5.4-.8.7-1.1,2.2-1.5,4.6-2.6,7-3.8.5-.2.9,0,1.2.3.3.4.4.8.8,1.1,1.1,1.2,2.4,1.7,4.2,1.3,2.7-.6,4.9-2.1,6.9-3.8,1.1-.9,1.8-2.3,2.4-3.7.7-1.6.5-3.2-.2-4.7-.3-.6-.3-1,.4-1.4,2.7-1.5,5.6-2.6,8.5-3.7.8-.3,1.2.2,1.3,1Z"/>
        <path class="cls-26" d="M240.6,225.1c2.6-.8,5.2-1.7,7.8-2.5,3.1-.9,6.1-1.8,9.2-2.7.3,0,.5,0,.9,0,.3,1.4.5,2.8.7,4.3,0,.5-.3.8-.8,1-1,.3-2.1.7-3.1,1-5.4,1.5-10.6,3.3-15.9,5.3-2.5.9-5,1.8-7.5,2.7-1.1.4-1.4.2-1.4-.9,0-2.2,0-4.4,0-6.6,0-.7.1-1.5-.5-2,0-.7,0-1.5,0-2.2,0-1.1.4-1.7,1.4-2.1,2.3-.9,4.6-1.7,6.9-2.5.4-.1.7.2.8.5.1.5.2,1.1.2,1.6,0,1.6,0,3.1,0,4.7,0,.9.6.7,1.1.6Z"/>
        <path class="cls-26" d="M294.2,204.6c.9,0,1.8,0,2.8,0,.6,0,1.1.4,1.1,1,0,1.4.1,2.8,0,4.1-.2,1.4-.8,2.5-1.8,3.6-2.9,3.4-6.9,4.8-10.9,6-3.7,1.1-7.6,1.5-11.4,1.2-3-.2-5.4-1.5-6.7-4.4-.4-.8-.9-1.6-1-2.5,0-.6.2-1.1.8-1.2,2.1-.6,4.3-1.1,6.4-1.6.8-.2,1.4.1,1.8.8.6.9,1.2,1.8,2.2,2.4.3.2.6.5,1,.5,2.7.2,5.5.4,8.1-1,2.5-1.4,3.4-3.7,2.4-6.5,0-.3-.3-.5-.3-.8,0-.3.2-.7.3-1,1.9.2,3.7-.2,5.5-.6Z"/>
        <path class="cls-26" d="M314.7,204.1c-.2,1.5.3,2.9.6,4.3.4,1.8.2,3.7.8,5.4.3.8-.1,1.2-1,1.3-.2,0-.4,0-.6,0-1.7,0-3.5,0-5.2.5-.9.3-1.7-.3-1.9-1.2-.4-2.9-.8-5.8-1.2-8.7,0-.7,0-1.5,0-2.2,1.7,0,3.4,0,5.1-.4.7-.2,1.6,0,2.4,0,.5,0,.7.5.8,1Z"/>
        <path class="cls-41" d="M123.7,114.3c2-2.9,4.3-5.1,6.7-7.2.4.2.7.4,1,.6,2,1.7,4,3.5,6,5.2.2.2.3.5,0,.7-.1.1-.3.3-.4.3-.8,0-1.6,0-2.5,0-3.4.1-6.8-.2-10.1.5-.2,0-.3,0-.8-.2Z"/>
        <path class="cls-32" d="M223.8,308.8c-.2,0-.5,0-.7.2-3.3,1.7-3,.9-2.4,4.4.6,3.7,1.1,7.4,1.7,11.2,0,.5.1,1.1.2,1.6.1.7-.2,1.2-.8,1.5-.7.4-1.5.7-2.2,1.1-4.6,2.5-9.2,4.9-13.9,7.4-.7.4-1.4.9-2.3,1.1-.6-.7-.5-1.5-.6-2.3-.8-6.8-1.6-13.7-2.4-20.5-.7-5.9-1.3-11.9-2-17.8-.5-4.7-.9-9.3-1.3-14-.1-1.1.3-1.7,1.2-2.1,11.5-6,23.2-11.6,35.2-16.5.6-.2,1.2-.4,1.8-.6,3.3-.8,5.9.8,6.5,4.2.4,2,.6,4,1,6,.8,4.8,1.5,9.6,2.3,14.4.5,3-.3,5.6-2.2,7.9-.3.3-.6.7-1,1-.3.3-.3.7,0,1,.3.5.6.9,1,1.3,1.9,2.4,3.7,4.8,5.6,7.2.7.9,1.2,1.8,1.4,2.9.2,1.4.5,2.7.8,4.1.1.6,0,1.1-.7,1.3-.8.3-1.5.6-2.3,1-4.9,2.2-9.7,4.4-14.6,6.5-1,.5-1.2.4-1.7-.5-2-3.6-4-7.2-6-10.9-.4-.7-.6-1.6-1.4-2.1Z"/>
        <path class="cls-32" d="M301.1,297.1c-.6.6-1.2.7-1.8.8-4.9,1.4-9.7,2.7-14.6,4.1-.4,0-.7.2-1,.3-.6.2-1.1,0-1.3-.7-.4-1.1-.8-2.2-1.2-3.4-.1-.3-.2-.7-.4-1-.6-1.4-.7-3-1.8-4.2-1.5,0-2.8.8-4.2,1.2-1.1.3-2.5.4-3.3,1.3-.8,1,0,2.3,0,3.5.1,2,.4,4,.6,6,0,.8-.2,1.2-.9,1.4-3.7,1.4-7.4,2.7-11.1,4.1-2.1.8-4.3,1.7-6.3,2.5-.7-.4-.7-.9-.8-1.5-.7-3.2-1-6.5-1-9.8.1-14.1.2-28.1.3-42.2,0-.5,0-.9,0-1.4,0-1,.4-1.4,1.3-1.7,5.7-2,11.5-3.8,17.4-5.4,3.2-.9,6.4-1.7,9.6-2.6.5-.1.9,0,1.1.5.3.7.6,1.4.8,2,5,13,10.5,25.9,16.4,38.5,1.1,2.4,1.7,5,2.3,7.5Z"/>
        <path class="cls-32" d="M348.1,289.1c-1.2.2-2.1.4-3.1.5-4.5.4-9,1-13.4,1.7-.5,0-.9.1-1.4.1-.5,0-.9-.1-1.2-.6-.4-.6-.9-1.2-1.3-1.8-4-5.6-8-11.2-12-16.8-.4-.6-.7-1.3-1.4-1.7-.1,0-.4,0-.5,0-.1,0-.2.3-.3.4,0,.6.3,1.1.5,1.6,1.8,4,3.5,8.1,5.3,12.1,1,2.3,1.7,4.7,2.4,7,.3.8,0,1.1-.9,1.3-3.6.7-7.2,1.5-10.8,2.2-1.3.3-2.5.6-3.8.9-.7.2-1-.1-1.2-.7-1-3.7-2.1-7.4-3.1-11.2-3.2-12-6.1-24.1-8.7-36.2,0-.2,0-.4-.1-.5-.3-1.6-.3-1.9,1.5-2.2,4.9-.8,9.8-1.6,14.7-2.5,1.1-.2,1.6.4,2.2,1.2,3.8,6.1,7.6,12.1,11.5,18.2.5.8,1,1.8,1.8,2.4.2.2.5.1.7,0,.1-.1.2-.3.2-.5-.2-.7-.5-1.4-.8-2.1-1.6-3.8-3.2-7.6-4.8-11.4-1.1-2.5-1.7-5-2.3-7.6-.2-.9,0-1.2.9-1.3,2.7-.2,5.3-.5,8-.6,1.6-.1,3.1-.2,4.7-.2,1,0,1.2.1,1.5,1.2,2.1,6.9,4.1,13.9,6.4,20.8,2.6,7.9,5.4,15.8,8.1,23.7.3.8.5,1.5.8,2.4Z"/>
        <path class="cls-32" d="M174,319.6c6.4-3.8,12.3-7.5,18.3-10.8.7.6.7,1.3.8,1.9.4,3.5.7,7,1.1,10.4.2,1.2-.3,1.8-1.3,2.4-5.1,3-10.1,6-15.1,9.1-.6.3-1.1.7-1.6,1-.6.4-.9.8-.8,1.6.1,1.5.2,2.9.4,4.4.4,4.1.8,8.2,1.2,12.3.1.9,0,1.5-.9,2.1-6,4-11.9,8-17.9,11.9-.8.5-1.2.4-1.2-.5-.2-2.6-.4-5.1-.6-7.7-.5-6.6-.9-13.2-1.3-19.8-.6-9.3-1.1-18.5-1.7-27.8,0-.5,0-.9,0-1.4-.1-.8.2-1.4.9-1.8.4-.2.8-.5,1.2-.8,11.6-7.7,23.4-14.9,35.6-21.6.6-.4,1.3-.7,2-1,.4-.2.7,0,.8.4.2,1.9.4,3.8.5,5.8,0,.3,0,.6,0,.8-.7,2.7-1.4,5.3-2,8-.2.7-.7,1-1.3,1.3-2.4,1.4-4.8,2.7-7.2,4.1-3,1.8-6,3.6-9,5.4-1.1.6-1.5,1.4-1.3,2.7.3,2.4.4,4.7.7,7.5Z"/>
        <path class="cls-32" d="M430,295.8c-4.1-1-8.2-1.9-12.3-2.9-.7-.2-1.1-.6-1.4-1.2-1.4-2.2-2.8-4.3-4-6.6-.7-1.2-1.5-1.8-2.8-1.9-1.5-.2-3-.9-4.7-.6,1.1,2.7,2.1,5.4,3.1,8-.8.5-1.4.2-2,.1-4.2-.5-8.4-1.1-12.6-1.5-1-.1-1.4-.6-1.8-1.4-1.1-2.4-2.2-4.8-2.9-7.4-3.2-11.3-6.1-22.7-8.9-34.1-.2-.7-.5-1.4,0-2.2,2.4.2,4.8.9,7.2,1.4,4.7,1,9.3,2.3,13.8,3.7,1.3.4,2.2,1,2.9,2.2,7.7,13.3,16.1,26.1,24.9,38.7,1.1,1.6,2.1,3.2,2.9,5,0,1.1-.6,1-1.3.7Z"/>
        <path class="cls-32" d="M389.6,288.5c-.4.4-.8.4-1.1.3-7-.4-14-.8-21-.7-2,0-4,.2-6.1.2-1,0-2,0-3-.2-3.4-.7-5.9-2.5-7-5.9-1.8-5.1-3.7-10.2-5.4-15.4-2.1-6.3-4.1-12.6-6.2-18.9-.3-.8-.5-1.6-.7-2.4-.4-2.5.8-4.4,3.3-4.9.8-.2,1.6-.2,2.5-.2,7.1.2,14.2.5,21.2,1.4,1.1.1,2.2.2,3.3.4.7,0,1.2.5,1.4,1.1.5,1.5,1.2,2.9,1.6,4.4.5,1.9.2,3.8,0,5.8,0,.4-.5.5-.9.5-2.3-.2-4.6-.5-6.9-.6-2.1-.2-4.2-.2-6.3-.3-.6,0-.8.3-.7.9.1.4.3.9.4,1.3,2.4,6.4,4.8,12.7,7.1,19.1,0,.3.2.5.3.8.3.9.8,1.3,1.8,1.3,3.4,0,6.8.2,10.2.4,2,.1,4,.3,6.1.5.5,0,.9.1,1.1.6,1.6,3.5,3.2,7,4.7,10.4Z"/>
        <path class="cls-13" d="M430,295.8c.5-.1,1-.2,1.3-.7.4.3.7.6.4,1.1-.2.3-.7.1-1,0-.2,0-.3-.1-.5-.2,0,0-.1-.1-.2-.2Z"/>
        <path class="cls-47" d="M217.4,289q-.3-2.9,2.3-4c1.3-.6,2.7-1.2,4-1.8.4-.2.7,0,.8.5.4,2.8.8,5.6,1.2,8.5,0,.6-.1,1.1-.7,1.3-2.1.9-4.1,2.1-6.3,2.8-1.2-2.1-.7-4.4-1.2-6.6,0-.2,0-.4,0-.5Z"/>
        <path class="cls-15" d="M274.9,280.3c-1.8.6-3.3,1.1-4.8,1.5-.7-.7-.6-1.5-.7-2.2-.4-4.1-.7-8.2-1.1-12.3,0-.2,0-.4,0-.5,0-.6.5-1.1,1.2-1.2.6,0,.8.3.9.8,0,.3.2.5.3.8,1.3,4.3,2.7,8.6,4.1,13.2Z"/>
        <path class="cls-37" d="M401.9,271.5c-1,0-1.8-.2-2.2-1.3-1.3-3.8-2.8-7.6-4.1-11.3-.1-.3,0-.5.3-.6.2,0,.4,0,.5,0,.5.2.7.6.9,1,2.1,3.8,4.2,7.7,6.3,11.5-.1,1.4-1.1.8-1.8.6Z"/>
        <path class="cls-5" d="M401.9,271.5c.6-.2,1.4.1,1.8-.6.3.2.6.5.4.9-.2.4-.6.3-.9.2-.4-.1-.8-.3-1.2-.5Z"/>
      </g>
    </g>
  </g>
</svg>