<?xml version="1.0" encoding="utf-8"?>
<!-- Generator: Adobe Illustrator 24.0.0, SVG Export Plug-In . SVG Version: 6.00 Build 0)  -->
<svg version="1.1" id="Layer_1" xmlns="http://www.w3.org/2000/svg" xmlns:xlink="http://www.w3.org/1999/xlink" x="0px" y="0px"
	 viewBox="0 0 320 320" style="enable-background:new 0 0 320 320;" xml:space="preserve">
<style type="text/css">
	.st0{fill:#EA878A;}
	.st1{fill:#6A070B;}
	.st2{fill:#808080;}
	.st3{fill:#FFFFFF;}
	.st4{fill:#D40E15;}
</style>
<g>
	<path class="st0" d="M88.4,108.2c-0.2,0-0.3,0-0.5-0.1c-17.7-5-36.2-11.6-55-19.4c-0.4-0.2-1.1-0.2-1.8-0.2c-1,0-2.2-0.1-3.3-0.6
		c-0.9-0.4-1.7-0.8-2.6-1.2c-0.9-0.4-1.7-0.9-2.6-1.2c1.1,0.6,2.2,1.2,3.4,1.8c1.2,0.6,1.9,1.2,2.2,1.9c0.2,0.3,0.7,1.4,0,2.1
		c-0.7,0.7-1.7,0.2-2.1,0.1c-1.3-0.6-2.6-1.2-4-1.9c-2.1-1-4.1-2-6.2-2.9c0,0.3-0.1,0.5-0.2,0.7c-0.1,0.1-0.2,0.2-0.3,0.3
		C15,87.8,14.6,88,14,87.9l0.3-2c0,0-0.1,0-0.2,0.1c-0.1,0-0.1,0.1-0.1,0.1c-0.1,0.1-0.1,0.3-0.1,0.4c0,0.1,0.1,0.3,0.2,0.4
		c-1.1-0.8-2.4-1.4-3.7-1.9c-0.9-0.3-1-0.9-1-1.2v-0.2l0.1-0.1c0.2-0.6,0.8-0.9,1.5-0.8c2.8,0.7,5.6,1.9,8.4,3.2
		c-1.7-1-3.4-2.1-5-3.3c-0.6-0.5-0.8-1.3-0.4-2l0.2-0.2c0.4-0.5,1.1-0.7,1.6-0.3c1.8,1.2,3.6,2.1,5.6,2.8c1.7,0.6,3.2,1.3,4.6,2
		c0.8,0.4,1.6,0.8,2.5,1.2c0.8,0.3,1.7,0.4,2.6,0.4c0.9,0,1.7,0.1,2.4,0.4c9.8,4.1,19.5,7.8,29,11.1c-0.1-0.2-0.1-0.5,0-0.8l0.1-0.3
		c0.1-0.6,0.5-0.8,0.6-0.9c0.2-0.1,0.6-0.3,1.1-0.1l0.5,0.2c3,1.1,5.7,2,9.1,2.6c2,0.3,4.1,0.8,6.1,1.5c-0.1-0.2,0-0.5,0.1-0.7
		c0.5-0.9,1.6-0.6,2.3-0.4l10.3,3l-10.4-4.2l0.7-1.9l19.9,8c0.8,0.3,1.1,1.1,0.8,1.8l-0.1,0.2c-0.2,0.6-0.8,0.9-1.4,0.8l-18.2-5.2
		c0,0.2-0.1,0.6-0.4,0.8l-0.4,0.3c-0.2,0.1-0.4,0.2-0.6,0.3l5.7,1.8c0.6,0.2,1.1,0.8,1.2,1.4l0,0.3c0.1,0.7-0.2,1.1-0.5,1.3
		C89,108,88.8,108.2,88.4,108.2z M82.5,102.2C82.5,102.2,82.5,102.2,82.5,102.2C82.5,102.2,82.5,102.2,82.5,102.2z M63.6,97.8
		C63.6,97.8,63.7,97.8,63.6,97.8L63.6,97.8z"/>
</g>
<g>
	<path class="st0" d="M161.3,116.5c-0.3,0-0.6,0-1-0.1c-3.9-0.6-7.9-1.2-11.9-1.8c-9.1-1.3-18.5-2.7-26.4-4.7
		c-6.6-1.7-13.2-3.7-19.6-6.1l0.7-1.9c6.3,2.3,12.8,4.3,19.4,6c7.8,2,17.2,3.3,26.2,4.6c4,0.6,8,1.2,11.9,1.8c0.6,0.1,1.2,0,1.8,0
		c0.3,0,0.6-0.1,0.9-0.1l0.1,2c-0.3,0-0.6,0-0.9,0.1C162.2,116.5,161.8,116.5,161.3,116.5z"/>
</g>
<g>
	<path class="st1" d="M165.7,117.5c-0.6,0-1.3-0.1-2.1-0.3c-0.6-0.1-0.9-0.5-1.1-0.7c-0.2-0.3-0.4-0.9,0-1.6l1.8,0.9c0,0,0,0,0,0h0
		h0c0-0.1,0-0.2,0-0.3c-0.1-0.2-0.2-0.2-0.2-0.2c1.7,0.4,2.9,0.2,3.9-0.5l1.2,1.6C168.2,117.1,167,117.5,165.7,117.5z"/>
</g>
<g>
	<path class="st0" d="M173.8,117.3c-1.1,0-2.3-0.2-3.4-0.4c-0.7-0.1-1.4-0.2-2-0.3l0.2-2c0.7,0.1,1.4,0.2,2.1,0.3
		c2,0.3,4.3,0.7,5-0.3l1.6,1.2C176.6,116.9,175.3,117.3,173.8,117.3z"/>
</g>
<g>
	<path class="st1" d="M116.6,178c-2.1,0-3.8-0.1-5.2-0.4l0.3-2c2.4,0.4,5.9,0.4,10.4,0.1c22.9-1.8,45.8-5.4,68.2-10.7
		c7.5-1.8,15.2-3.6,22.8-5.5c-0.9-0.3-1.9-0.7-2.8-1.2c-25.7-12.3-43.1-21-51.5-25.7l-32.8-18.3c-0.9-0.5-1.3-1.4-1-2.3
		c0.3-0.8,1-1.2,1.8-1.1c6,1.1,12,2.3,17.7,3.6c5.3,1.2,15.1,2.3,29.1,3.3c1,0.1,2,0.1,3,0.2c-0.6-0.1-1-0.6-1.2-1.2
		c-0.2-0.6-0.1-1.3,0.3-2.2l1.9,0.7c-0.1,0.3-0.2,0.5-0.2,0.7c14.2,0.7,26.4,0.1,43.4-1c0.9-0.1,1.6,0.5,1.7,1.4l0,0.3
		c0.1,0.7-0.4,1.3-1.2,1.4c-15,1.9-33.4,2.5-47.8,1.6c-14.1-0.9-24-2.1-29.5-3.3c-5.1-1.2-10.5-2.3-15.9-3.3l31.6,17.6
		c8.4,4.7,25.7,13.3,51.4,25.6c1.2,0.6,2.4,1,3.5,1.4c0.4,0.1,0.8,0.4,1,0.8s0.2,0.9,0.1,1.3c-0.1,0.2-0.2,0.4-0.3,0.5
		c-0.3,0.4-0.7,0.6-1.3,0.7c-7.8,1.9-15.6,3.8-23.3,5.6c-22.5,5.3-45.5,8.9-68.5,10.7C120.1,178,118.2,178,116.6,178z M221.1,116.4
		C221,116.4,221,116.4,221.1,116.4C221,116.4,221,116.4,221.1,116.4z M126.8,112.7L126.8,112.7L126.8,112.7z"/>
</g>
<g>
	<path class="st0" d="M108.2,178c-0.8-0.5-0.8-1.1-0.8-1.4c0.1-0.9,1-1.4,2.4-1.9c18-5.9,35.8-12.9,52.8-20.8c-1-1-2.1-2-3.1-2.9
		c-2.3-2.2-4.7-4.4-7.1-6.9c-2.2-2.3-4.7-4.6-7-6.8c-2-1.9-4-3.7-5.7-5.6c-6.3-6.5-13-12.8-19.8-18.9l-0.2-0.2
		c-0.5-0.7-0.4-1.7,0.3-2.2l0.2-0.2c0.5-0.4,1.1-0.3,1.5,0c2.2,1.8,4.4,3.6,6.5,5.4c3.5,2.9,7.1,5.9,10.6,8.6
		c12.5,9.7,24.9,19.4,37.4,29.1c0.6,0.5,1.3,1,2,1.4c0.3,0.2,0.6,0.5,0.7,0.8c0.1,0.4,0.1,0.9-0.1,1.2c-0.2,0.4-0.5,0.7-0.9,0.9
		c-20,7.4-40.8,13.7-61.7,18.6c-1.5,0.4-2.9,0.8-4.3,1.4l-0.5-1.3c-0.3,0.1-0.6,0.2-1,0.3c-1,0.3-1.2,0.5-1.2,0.5
		c0,0,0.2-0.2,0.2-0.5c0-0.3-0.2-0.4-0.2-0.5L108.2,178z M132.1,121.4c3.1,2.9,6.1,5.9,9,8.9c1.8,1.8,3.7,3.6,5.7,5.5
		c2.4,2.2,4.8,4.5,7.1,6.9c2.3,2.4,4.7,4.7,7,6.8c1.1,1.1,2.3,2.1,3.4,3.3c0.6,0.6,0.7,1.2,0.6,1.5c-0.1,0.4-0.3,0.9-1.1,1.2
		c-13.7,6.4-27.8,12.2-42.2,17.2c18.6-4.6,37.1-10.3,54.9-16.8c-0.5-0.4-1.1-0.7-1.6-1.1c-12.4-9.7-24.9-19.4-37.4-29.1
		C135.8,124.4,134,122.9,132.1,121.4z M177.2,156.4C177.2,156.4,177.2,156.4,177.2,156.4C177.2,156.4,177.2,156.4,177.2,156.4z
		 M177.3,155.8C177.3,155.8,177.3,155.8,177.3,155.8C177.3,155.8,177.3,155.8,177.3,155.8z"/>
</g>
<g>
	<path class="st1" d="M105.2,178.8c-0.2-0.5-0.2-1,0.1-1.4c0.4-0.7,1.4-1.1,3.3-1.3l0.2,2c-1.5,0.1-1.8,0.4-1.8,0.4
		c0.1-0.1,0.2-0.3,0.1-0.5L105.2,178.8z"/>
</g>
<g>
	<path class="st0" d="M105.8,179.3c-7.8-3.4-15.7-7.2-23.4-11.1c-3.8-1.9-7.6-4-11.3-6.1c-1.6-0.9-2.3-3.5-2.9-5.7
		c-0.2-0.9-0.4-1.7-0.7-2.3c-0.4-1,0-2.1,1-2.5c0.3-0.1,0.6-0.2,1-0.1c0.7,0.1,1-0.3,1.6-1.9c0.1-0.3,0.2-0.7,0.3-0.9
		c0.3-0.7,0.9-2.1,2.1-1.9c1.1,0.2,1.3,1.6,1.4,2.4c0-0.1,0.1,0.1,0.4,0.6l2-0.1c1.7,0,3.1,1.3,3.1,3c0,0.2,0,0.3,0,0.5
		c0.7-0.7,0.6-1.3,0.5-2.2c-0.2-1.4-0.5-3.4,2.6-5.1c0.7-0.4,1.6-0.1,2.1,0.5c0.1-0.7,0.5-1.5,0.8-2.2c0-0.1,0.1-0.7-0.1-2.4
		c-0.1-0.9,0.5-1.7,1.4-1.8l1.1-0.2c-7.1-2.3-14.5-4.6-22.1-7c-11.8-3.6-25.9-9.7-42-18.1c-1.9-1-3.9-1.7-5.9-2.1l0.4-2
		c2.2,0.5,4.3,1.2,6.4,2.3c16,8.3,30,14.3,41.7,18c7.9,2.4,15.5,4.9,22.8,7.2c0.9,0.3,2.4,0.8,2.3,2c-0.1,1.2-1.6,1.4-2.6,1.6
		l-1.5,0.2c0.2,2.3,0.1,2.7-0.1,3.1c-0.5,1-0.6,1.6-0.7,1.9c0.3-0.1,0.9-0.3,1.8-0.8c0.9-0.5,2.6-1.1,5.2-2c0.1,0,0.1,0,0.2-0.1
		c0.6-0.1,1.2,0,1.7,0.3c0.5,0.3,0.8,0.8,1,1.4c0.2,0.9-0.6,1.5-1,1.8c-1.2,1-2.6,1.6-3.9,1.8c0.4,0.3,0.7,0.7,0.9,1
		c0.2,0.4,0.8,1.3,0.2,2.1c-0.6,0.8-1.7,0.4-2.1,0.3l-6.8-2.4c-0.6-0.2-1-0.7-1-1.3c0-0.3-0.1-0.6,0-1c-1.1,0.8-1,1.5-0.9,2.6
		c0.1,1,0.3,2.4-0.8,3.7c0,0,0,0,0,0c0.5-0.4,1.1-0.5,1.8-0.4c1.6,0.3,2.9,1.2,3.8,2.5c0.1,0.1,0.1,0.2,0.2,0.4
		c0.1,0.4,0.1,0.8,0,1.2c-0.2,0.4-0.5,0.7-0.9,0.8l-3,1.1c-0.9,0.3-1.8-0.3-2.1-1.1l-0.4-1.3c-1.4,0.6-2.7,0.3-3.8-1.1
		c-0.4-0.5-0.5-1-0.5-1.6c0.1-0.5,0.3-1,0.8-1.4c0.1-0.1,0.2-0.2,0.2-0.2c0.1-0.2,0.2-0.4,0.2-0.6c0-0.3-0.1-0.5-0.3-0.7
		s-0.5-0.3-0.7-0.3l-2.1,0.1c-0.6,0-1.2-0.3-1.6-0.8c-0.3-0.4-0.5-0.8-0.6-1c0,0.1-0.1,0.2-0.1,0.3c-0.4,1.2-1.1,3.5-3.5,3.3
		c0.3,0.7,0.5,1.6,0.7,2.5c0.4,1.7,1,3.9,1.9,4.4c3.7,2.1,7.5,4.2,11.3,6.1c7.7,3.9,15.5,7.6,23.3,11L105.8,179.3z M82.9,156.1
		c0.1,0.1,0.1,0.1,0.2,0.2c0.1,0.1,0.1,0.2,0.1,0.3l0.4,1.2l2-0.7c-0.6-0.7-1.3-1.1-2.3-1.3c-0.1,0-0.1,0-0.1,0
		C83.1,156,83,156.1,82.9,156.1z M79.5,154.8c-0.1,0.1-0.2,0.2-0.4,0.3c0.3,0.5,0.6,0.7,0.9,0.7c0,0-0.1-0.1-0.1-0.1
		C79.7,155.5,79.5,155.2,79.5,154.8z M69.3,153.4L69.3,153.4L69.3,153.4z M85.6,148.5l4.5,1.6c-0.5-0.5-0.6-1.3-0.2-1.9
		c0.1-0.1,0.2-0.2,0.3-0.3c-1.5,0.8-3.2,1.5-4.2,0.6c-0.1-0.1-0.2-0.3-0.3-0.4C85.6,148.2,85.6,148.4,85.6,148.5z M91.3,149.5
		C91.3,149.5,91.3,149.5,91.3,149.5C91.3,149.5,91.3,149.5,91.3,149.5z M85.6,148.8C85.6,148.8,85.6,148.8,85.6,148.8
		C85.6,148.8,85.6,148.8,85.6,148.8z M91.5,148.7C91.5,148.7,91.5,148.7,91.5,148.7C91.5,148.7,91.5,148.7,91.5,148.7z M85.3,148.4
		L85.3,148.4C85.3,148.4,85.3,148.4,85.3,148.4z M94.8,146.1c-1.9,0.6-3.1,1.1-3.8,1.4c0,0,0.1,0,0.2,0
		C92.4,147.4,93.6,146.9,94.8,146.1z M83.8,147.2C83.8,147.2,83.8,147.2,83.8,147.2C83.8,147.2,83.8,147.2,83.8,147.2z M86.3,144.2
		L86.3,144.2L86.3,144.2z M86.3,144.1C86.3,144.1,86.3,144.1,86.3,144.1C86.3,144.1,86.3,144.1,86.3,144.1z M88,142L88,142
		C88,142,88,142,88,142z"/>
</g>
<g>
	<path class="st0" d="M32.6,116.3c-0.2,0-0.3,0-0.5-0.1l-7.3-3.4c-1.4-0.7-2.9-1.1-4.5-1.7c-2.6-0.8-5.2-1.7-7.7-3.3
		c-0.1,0-0.1-0.1-0.2,0c-0.3,0.1-0.4,0.2-0.4,0.3l-2-0.4c0.2-1,1-1.7,2.1-1.9c0.6-0.1,1.1,0,1.6,0.3c2.2,1.5,4.7,2.3,7.1,3
		c-0.8-0.3-1.5-0.7-2.3-1c-1.8-0.8-3.6-1.6-5.4-2.5c-0.8-0.4-1-0.9-1-1.3c0-0.4,0.1-0.9,0.8-1.4c0.9-0.6,2-0.7,3.6-0.3
		c0.4,0.1,2.2,0.7,4.5,1.5l-0.8-0.5c-0.6-0.4-0.6-0.9-0.6-1.1c0-0.2,0.1-0.7,0.8-1l0.7-0.3c0.4-0.2,0.9-0.2,1.4,0.1l6.4,3
		c0-0.3,0.1-0.5,0.2-0.8c0.4-0.7,1.2-1,1.9-0.7c1.5,0.7,3,1.4,4.6,2.1c0.1-0.1,0.1-0.2,0.2-0.3c0.3-0.4,0.8-0.5,1.3-0.4l4.1,1.6
		c-1.4-0.8-2.6-1.7-3.8-2.5c-2.2-1.6-4.2-3.1-7.3-3.8c-0.5-0.1-0.9-0.4-1.2-0.7c-0.2-0.3-0.6-1.1-0.1-2.1c0.3-0.7,1-1,1.7-1
		c-5-2.7-10.2-5.4-15.3-8c0.2,0.1,0.5,0,0.6-0.2L14,86.9c0.2-0.5,0.5-0.9,1-1c0.3-0.1,0.7-0.2,1.2,0.1c6.1,3.1,12.2,6.3,18.1,9.5
		l0.1,0.1c0.3,0.2,0.5,0.6,0.6,0.9c0.1,0.4,0,0.8-0.2,1.1l-0.2,0.3c-0.3,0.4-0.8,0.6-1.3,0.5l-0.8-0.2c2.4,0.9,4.3,2.3,6.1,3.6
		c1.5,1.1,3,2.2,4.8,3c3.8,1.7,7.8,3.5,11.8,5.3c0.8,0.3,1.1,1.2,0.9,2l-0.1,0.3c-0.2,0.4-0.5,0.6-0.7,0.7c-0.2,0.1-0.6,0.2-1,0
		L38,106.8c-0.1,0.2-0.2,0.3-0.4,0.4c-0.5,0.3-1,0.3-1.4,0.2c-1.3-0.5-2.7-1.1-4-1.7c0,0.2-0.1,0.4-0.2,0.6
		c-0.4,0.8-1.3,1.1-2.1,0.8l-3.4-1.6c0.2,0.4,0.2,1-0.1,1.4c-0.2,0.3-0.4,0.5-0.6,0.6l-0.2,0.1c-0.3,0.1-0.3,0.1-3.2-0.9
		c-2.3-0.8-5.8-1.9-6.3-2.1c-0.4-0.1-0.7-0.1-0.9-0.2c1.4,0.7,2.9,1.3,4.3,1.9c5.1,2.3,10,4.5,14,7.8l0.5,0.4l-0.1,0.5
		c0,0.2,0,0.4-0.1,0.5l-0.1,0.4l-0.5,0.2C32.9,116.3,32.8,116.3,32.6,116.3z M32,115.7C32.1,115.7,32.1,115.7,32,115.7
		C32.1,115.7,32.1,115.7,32,115.7z M54.4,111.9C54.4,111.9,54.4,111.9,54.4,111.9C54.4,111.9,54.4,111.9,54.4,111.9z M36.7,106.9
		C36.7,106.9,36.7,106.9,36.7,106.9C36.7,106.9,36.7,106.9,36.7,106.9z M24.9,106.5C24.9,106.5,24.9,106.5,24.9,106.5L24.9,106.5z
		 M30.6,103.9L30.6,103.9L30.6,103.9z M30.4,97.7C30.4,97.7,30.4,97.7,30.4,97.7L30.4,97.7z M33.7,96.4L33.7,96.4
		C33.7,96.4,33.7,96.4,33.7,96.4z"/>
</g>
<g>
	<path class="st2" d="M209.3,204.6c-7.3,0-12.5-0.2-15.6-0.5c-8.4-0.9-17-1.7-25.4-2.4l0.2-2c8.4,0.7,17,1.5,25.4,2.4
		c4.8,0.5,15.1,0.6,30.8,0.3c11.5-0.2,26.6-1.8,45.1-4.7c21.8-3.4,35.4-13.6,41.6-31.2c4.1-11.7,3.3-24.1-2.3-35.1
		c-5.7-11.1-15.9-19.6-28.1-23.2c-10.2-3-21.1-0.7-30.6,1.4c-2.1,0.5-4,0.9-5.9,1.2c-16.5,3.1-34.1,3.6-52.1,1.5
		c-4.3-0.5-8.9-0.8-13.3-1.2c-1.1-0.1-2.3-0.2-3.5-0.3c0.6,0.2,1.4,0.6,1.4,1.4c0.1,1.1-1.2,1.5-1.7,1.7c0.4,0,0.8-0.1,1.2-0.1
		l0.2,2c-4.1,0.4-6.8-0.1-8.3-1.6c-0.4-0.4-1.2-1.2-0.6-2c0.1-0.2,0.3-0.4,0.5-0.4c-0.5,0-1,0-1.6,0c-1.4,0-2.5-0.5-3.3-1.3
		c-0.3-0.3-0.5-0.8-0.4-1.3c0.1-0.9,1-1.5,1.8-1.4c4.7,0.6,9.5,0.9,14.2,1.2c4.4,0.3,9,0.6,13.4,1.2c17.9,2.1,35.2,1.6,51.5-1.5
		c1.9-0.4,3.8-0.8,5.9-1.2c9.8-2.1,20.8-4.5,31.6-1.4c12.7,3.7,23.4,12.5,29.3,24.2c5.9,11.5,6.7,24.5,2.4,36.7
		c-6.5,18.4-20.6,29-43.1,32.5c-18.6,2.9-33.8,4.5-45.4,4.7C218.9,204.6,213.7,204.6,209.3,204.6z M169.6,112.8L169.6,112.8
		L169.6,112.8z M169.5,112.2c0.2,0,0.3,0.1,0.4,0.1c1.2,0.5,2.4,0.6,3.6,0.3C172.4,112.5,171,112.3,169.5,112.2z M164.7,110.1
		C164.7,110.1,164.7,110.1,164.7,110.1C164.7,110.1,164.7,110.1,164.7,110.1z M165,109.5C165,109.5,165,109.5,165,109.5
		C165,109.5,165,109.5,165,109.5z"/>
</g>
<g>
	<path class="st2" d="M168.2,116.5c-1.6-0.5-3.1-0.6-4.5-0.2l-0.5-1.9c1.8-0.4,3.7-0.3,5.6,0.2L168.2,116.5z"/>
</g>
<g>
	<path class="st2" d="M147.4,194.6c-0.1,0-0.2,0-0.3,0c-7.7-1.6-13.1-3-16-4.1c-9.8-3.6-20.1-7.1-30.6-10.4l0.6-1.9
		c2.9,0.9,5.9,1.8,8.8,2.8c-1.4-0.5-2.7-1.1-4.1-1.7l0.7-1.9c14.1,5.6,27.4,11,41.4,14.6l0.5,0.1l0.4,0.9l-0.2,0.7
		C148.5,194.2,148,194.6,147.4,194.6z M147.5,192.6C147.5,192.6,147.5,192.6,147.5,192.6C147.5,192.6,147.5,192.6,147.5,192.6z"/>
</g>
<g>
	
		<rect x="108.7" y="175.9" transform="matrix(0.9882 -0.1533 0.1533 0.9882 -25.8197 18.9693)" class="st2" width="2.9" height="2"/>
</g>
<g>
	<path class="st0" d="M202.8,209.3c-3.3,0-6.5,0-9.5-0.2c-35.8-1.4-70.9-8.9-104.2-22.5c-2.8-1.1-8.3-3.7-16.4-7.5
		c-0.7-0.3-1.1-0.9-1.2-1.7l0-0.3c-0.1-0.8,0.3-1.2,0.5-1.4s0.8-0.4,1.4,0c22.9,10.7,45.9,18.4,68.4,22.9
		c25.5,5.1,49.6,7.3,71.8,6.6c14.2-0.4,28.5-1.3,42.7-2.6c1-0.1,1.6,0.2,1.9,0.6c0.5,0.5,0.5,0.9,0.5,1.2c0,0.2-0.2,0.7-0.8,1
		c-1.8,0.9-3.6,1-5.3,1.1c-0.9,0-1.8,0.1-2.7,0.3c-3.3,0.6-6.7,1-10,1.2c-1.3,0.1-2.5,0.3-3.8,0.5c-1.4,0.2-2.8,0.5-4.3,0.5
		c-3.6,0.1-7.3,0.1-11,0.2C214.9,209.2,208.7,209.3,202.8,209.3z M134.2,199c19.4,4.6,39.2,7.4,59.3,8.1c2.5,0.1,5.1,0.1,7.7,0.2
		c-18.8-0.3-38.8-2.6-59.6-6.7C139.1,200.1,136.6,199.6,134.2,199z M237.2,206.1c-6.5,0.4-13.1,0.8-19.6,1c1.1,0,2.2-0.1,3.3-0.1
		c3.7-0.1,7.4-0.2,11-0.2c1.3,0,2.6-0.2,4-0.5C236.3,206.2,236.7,206.2,237.2,206.1z M257.1,203.5
		C257.1,203.5,257.1,203.5,257.1,203.5C257.1,203.5,257.1,203.5,257.1,203.5z"/>
</g>
<g>
	<path class="st2" d="M268.9,195.2c-8.8,0-17.2-2.5-24.4-7.4c-10.6-7.2-17.5-18.5-19.1-31.9c-0.1-1,0.2-2.6,0.7-3.5
		c6.7-11.7,17.4-20.1,28.7-22.5c2.2-0.5,4.5-0.9,6.7-1.3c0.1,0,0.2-0.1,0.2-0.2c0.5-3.8,0.5-9.9-1.1-14.2
		c-7.9-0.2-15.3,3.3-22.4,6.8l-0.3,0.1c-0.4,0.2-1.1,0.5-1.7,0c-0.5-0.4-0.6-0.8-0.6-1.1c0-0.3,0.1-0.8,0.6-1.2
		c9.9-8.1,21.3-11.7,33.7-10.8c4.6,0.3,5.7,2.3,7.2,4.9c0.2,0.4,0.4,0.8,0.7,1.2c8,13.3,8.7,27.2,1.9,41.3
		c5.2,3.8,17.4,4.8,24.6,4.3c0.7,0,1.2-0.6,1.3-1.2c1.9-16.3-3.5-31.2-14.8-41c-0.6-0.5-0.6-1.3-0.2-1.9l0.2-0.3
		c0.4-0.5,1-0.6,1.5-0.3c8.1,5.3,14.6,15.5,17.7,22.6c5,11.4,3.6,26.9-3.4,38.6c-0.9,1.5-2.5,2.7-4.2,3.2
		c-19.7,5.2-36.8,0.6-50.9-13.7c-2.5-2.5-4.9-5.3-7.2-8.1l-7.7,10c-0.2,0.3-0.2,0.5-0.1,0.8c5.9,12.2,21.5,22.2,34.7,22.3
		c3.1,0,6.3-0.1,9.6-0.4c0.3,0,0.7,0.1,0.9,0.3c0.3,0.2,0.4,0.5,0.5,0.9l0.1,0.7c0.1,0.6-0.3,1.2-0.9,1.4
		C277.2,194.7,273,195.2,268.9,195.2z M259.9,112.2c0.3,0,0.6,0,0.9,0c0.8,0,1.5,0.5,1.8,1.3c1.7,4.7,1.7,11.1,1.2,15.2
		c-0.1,1-0.9,1.8-1.9,2c-2.2,0.4-4.5,0.8-6.6,1.2c-10.6,2.3-21.1,10.5-27.4,21.5c-0.4,0.6-0.5,1.7-0.5,2.3
		c1.6,12.8,8.1,23.7,18.3,30.5c8.7,5.9,19.2,8.2,29.9,6.6c-1.4,0.1-2.9,0.1-4.3,0.1c-13.9-0.1-30.3-10.6-36.5-23.5
		c-0.5-1-0.4-2,0.3-2.9l8.1-10.5c0.5-0.7,1.5-0.8,2.1-0.3c0.1,0.1,0.2,0.2,0.3,0.2c2.3,2.9,4.8,5.8,7.4,8.4
		c13.6,13.7,30,18.1,49,13.2c1.3-0.3,2.4-1.2,3-2.3c6.6-11,8-26.1,3.3-36.8c-1.7-3.9-4.4-8.7-7.9-13.1c6.1,9.4,8.7,21,7.3,33.4
		c-0.2,1.6-1.5,2.9-3.1,3c-7,0.5-20.3-0.4-26.1-4.8c-0.7-0.5-0.9-1.3-0.5-2.1c6.5-13.6,5.9-26.9-1.8-39.6c-0.3-0.4-0.5-0.8-0.7-1.2
		c-1.5-2.6-2.1-3.7-5.6-4c-9.9-0.8-19.1,1.5-27.3,6.7C248,114.2,253.7,112.2,259.9,112.2z M281.1,192.4
		C281,192.4,281,192.4,281.1,192.4C281,192.4,281,192.4,281.1,192.4z"/>
</g>
<g>
	<path class="st2" d="M189.7,115.3c0,0-0.1,0-0.1,0l-11.9-1c-0.4,0-0.8-0.2-1.1-0.6c-0.3-0.3-0.4-0.8-0.4-1.2c0-0.5,0.2-0.9,0.6-1.2
		c0.3-0.3,0.8-0.4,1.2-0.4l11.9,1c0.4,0,0.8,0.2,1.1,0.6c0.3,0.3,0.4,0.8,0.4,1.2l0,0.1C191.2,114.6,190.5,115.3,189.7,115.3z"/>
</g>
<path class="st3" d="M82.8,96.8l19.9,8c0.3,0.1,0.3,0.3,0.2,0.6l-0.1,0.2c0,0.1-0.1,0.2-0.3,0.1l-20.3-5.8c-1.4-0.4-1.6-0.2-0.4,0.7
	c0,0,0.4,0.2,1.3,0.7c0.2,0.1,0.2,0.2,0,0.3l-0.4,0.3c-0.1,0.1-0.2,0.1-0.3,0.1c-2.8-1.1-5.7-1.9-8.7-2.4C70,99,67.3,98,64,96.8
	c-0.2-0.1-0.4,0-0.4,0.2l-0.1,0.3c-0.1,0.3,0.1,0.5,0.3,0.6l24.4,7.8c0.3,0.1,0.4,0.3,0.5,0.6l0,0.3c0,0.5-0.2,0.6-0.6,0.5
	c-17.7-5-36-11.5-54.9-19.4c-1.3-0.5-3.4-0.1-5.1-0.8c-2.4-1.1-4.4-2.3-7-3.2c-2-0.7-4-1.7-5.8-2.9c-0.1-0.1-0.2-0.1-0.3,0.1
	l-0.2,0.2c-0.1,0.2-0.1,0.5,0.1,0.6c3.3,2.4,6.8,4.5,10.4,6.3c1,0.5,1.5,1,1.8,1.4c0.5,1,0.3,1.2-0.8,0.8
	c-4.9-2.2-10.5-5.3-15.7-6.7c-0.1,0-0.3,0-0.3,0.2c0,0,0,0,0,0v0c0,0.1,0.1,0.2,0.3,0.2c1.4,0.5,2.7,1.2,3.9,2
	c0.2,0.1,0.3,0.4,0.1,0.6c0,0-0.1,0.1-0.1,0.1c-0.1,0.1-0.3,0.1-0.5,0.1l-6.3-3.2c-0.2-0.1-0.3-0.3-0.3-0.6c0.2-2,1.3-3,3.2-3.1
	c1.1,0,1.3-0.5,0.5-1.3l-2.2-2.4c-0.2-0.2-0.2-0.4,0.1-0.6c0.6-0.3,1.2-0.3,1.8,0c4.4,2,8.8,4,13.2,6c2.7,1.2,5.7,1.7,8.4,2.8
	c9.2,4,18.5,7.6,27.9,11c0.3,0.1,0.5,0,0.6-0.3c0-0.1,0-0.2,0-0.2l-0.4-2.5c-0.6-3.4-0.1-3.7,1.6-0.7C65.5,97.3,77.3,97.7,82.8,96.8
	z"/>
<path class="st4" d="M82.8,96.8c-2.6-1.8-5.4-3.4-8.4-4.7c-2.3-1-4.3-2.1-5.8-3.4c-0.8-0.6-0.7-0.8,0.2-0.3
	c11.1,5.3,22.5,10.2,34.1,14.6c6.4,2.3,12.9,4.4,19.5,6c11.3,2.9,25.5,4.4,38.2,6.4c1,0.2,2,0,3-0.1c-0.1,0.2-0.1,0.4,0,0.6
	c0.1,0.1,0.2,0.2,0.5,0.3c1.9,0.5,3.5,0.2,4.7-0.6c2.7,0.3,6.6,1.6,8.1-0.4c-0.3,0.6-0.3,1.1-0.2,1.5c0.1,0.3,0.3,0.5,0.6,0.5
	c14.9,0.8,27.8,0,43.8-1c0.4,0,0.6,0.2,0.6,0.5l0,0.3c0,0.2-0.1,0.3-0.3,0.3c-16.3,2.1-34.7,2.4-47.7,1.6c-14.1-0.9-23.9-2-29.3-3.3
	c-5.7-1.3-11.6-2.5-17.6-3.6c-0.3-0.1-0.6,0.1-0.7,0.4c-0.2,0.5,0,0.8,0.5,1.1c10.9,6.1,21.9,12.2,32.8,18.3
	c8.5,4.7,25.7,13.3,51.5,25.7c1.2,0.6,2.4,1.1,3.6,1.5c0.3,0.1,0.5,0.5,0.4,0.9c0,0.1-0.1,0.2-0.1,0.2c-0.2,0.2-0.4,0.3-0.8,0.4
	c-7.7,1.9-15.5,3.8-23.3,5.6c-22.5,5.3-45.3,8.9-68.3,10.7c-4.6,0.4-8.1,0.3-10.6-0.1c1.4-0.6,2.9-1.1,4.5-1.4
	c21-4.9,41.6-11.1,61.6-18.6c0.3-0.1,0.5-0.5,0.4-0.8c-0.1-0.1-0.1-0.3-0.3-0.3c-0.7-0.4-1.4-0.9-2.1-1.4
	c-12.4-9.7-24.9-19.4-37.4-29.1c-5.6-4.4-11.4-9.3-17.1-14c-0.1-0.1-0.2-0.1-0.3,0l-0.2,0.2c-0.2,0.2-0.3,0.5-0.1,0.8
	c0,0,0,0.1,0.1,0.1c6.9,6.1,13.5,12.5,19.9,19c3.9,4,8.7,8.1,12.8,12.4c3.5,3.7,6.9,6.7,10.4,10.1c0.5,0.5,0.4,0.9-0.2,1.1
	c-17.3,8.1-35.1,15.1-53.3,21c-1.6,0.5-2.1,1-1.4,1.4c-2,0.2-2.8,0.6-2.5,1.3c-7.8-3.5-15.6-7.1-23.4-11.1c-3.8-1.9-7.6-4-11.3-6.1
	c-1.9-1.1-2.3-5.5-3.1-7.5c-0.2-0.5,0-1,0.5-1.2c0.1-0.1,0.3-0.1,0.5-0.1c2.1,0.2,2.4-2.1,2.9-3.4c0.8-1.9,1.3-1.8,1.6,0.2
	c0,0.2,0.2,0.6,0.6,1.1c0.2,0.2,0.4,0.4,0.7,0.4l2.2-0.1c1.1,0,2.1,0.9,2.1,2c0,0.5-0.1,0.9-0.4,1.3c-0.1,0.1-0.2,0.3-0.4,0.4
	c-0.5,0.4-0.5,1-0.2,1.5c0,0,0,0,0,0c0.8,1,1.8,1.2,2.8,0.7c0.4-0.2,0.8-0.1,1,0.3c0,0,0,0.1,0.1,0.2l0.5,1.6
	c0.1,0.4,0.5,0.6,0.8,0.5c0,0,0,0,0,0l2.9-1.1c0.3-0.1,0.5-0.5,0.3-0.8c0,0,0-0.1-0.1-0.1c-0.8-1.1-1.9-1.9-3.2-2.1
	c-0.4-0.1-0.7,0-1,0.2c-0.7,0.5-1.3,0.5-1.9-0.1c-0.2-0.2-0.2-0.6,0-0.8c0,0,0,0,0.1-0.1c3-2.4-1.4-5,3.2-7.4c0.3-0.2,0.7,0,0.8,0.3
	c0.1,0.1,0.1,0.3,0,0.4c-0.1,0.5-0.2,1-0.1,1.5c0,0.2,0.2,0.4,0.4,0.4l6.8,2.4c1,0.4,1.3,0.1,0.7-0.9c-0.3-0.5-0.8-1-1.5-1.4
	c-0.3-0.2-0.4-0.5-0.2-0.8c0.1-0.2,0.3-0.3,0.5-0.3c1.6-0.1,3.1-0.7,4.5-1.8c0.5-0.3,0.7-0.6,0.6-0.8c-0.1-0.6-0.8-1-1.4-0.9
	c0,0-0.1,0-0.1,0c-2.6,0.8-4.2,1.5-5,1.9c-3.3,1.8-4.2,1-2.5-2.4c0.1-0.2,0.1-1.2,0-2.8c0-0.4,0.2-0.7,0.6-0.7l1.7-0.3
	c2.3-0.4,2.3-0.9,0.1-1.6c-7.3-2.4-14.9-4.8-22.8-7.2c-11.8-3.6-25.7-9.6-41.9-18c-2-1-4-1.8-6.1-2.2l-7.8-3.7
	c0.1-0.6,0.5-1,1.2-1.1c0.3,0,0.6,0,0.9,0.2c3.9,2.6,8.5,3.2,12.1,4.9c2.4,1.1,4.8,2.3,7.3,3.4c0.1,0,0.1,0,0.2-0.1
	c0-0.1,0-0.2,0-0.3c0,0,0,0,0-0.1c-5.3-4.4-12.4-6.8-19.1-10.1c-0.6-0.3-0.6-0.6-0.1-1c0.6-0.4,1.5-0.5,2.8-0.1c0.9,0.2,9,3,9.1,3
	c0.1,0,0.2-0.1,0.2-0.2c0.2-0.3,0.1-0.5-0.2-0.7l-4.7-2.9c-0.2-0.1-0.2-0.2,0-0.3l0.7-0.3c0.2-0.1,0.4-0.1,0.6,0l8.3,4
	c0.3,0.1,0.6,0,0.8-0.3c0.1-0.1,0.1-0.2,0-0.4c-0.1-0.3-0.3-0.5-0.7-0.6c-0.3-0.1-0.4-0.1-0.5-0.2c-0.2-0.2-0.2-0.4-0.1-0.7
	c0.1-0.2,0.4-0.3,0.6-0.2c1.9,1,3.9,1.8,6,2.6c0.2,0.1,0.3,0,0.5-0.1c0.1-0.1,0.1-0.2,0.1-0.3c0,0-0.1-0.1-0.1-0.1
	c-0.2-0.1-0.4-0.1-0.5-0.2c-0.1-0.1-0.1-0.3,0-0.4c0.1-0.1,0.2-0.1,0.3-0.1l17.8,6.9c0.2,0.1,0.3,0,0.4-0.2l0.1-0.3
	c0.1-0.3,0-0.6-0.3-0.7c-4-1.8-8-3.5-11.9-5.3c-4.7-2.1-7.1-5.7-12.6-7.1c-0.3-0.1-0.5-0.2-0.6-0.3c-0.2-0.3-0.2-0.7,0-1.1
	c0.1-0.3,0.5-0.5,0.8-0.4l2.9,0.6c0.1,0,0.2,0,0.3-0.1L34,97c0.1-0.2,0.1-0.5-0.1-0.6c0,0,0,0,0,0c-5.9-3.2-12-6.4-18.1-9.5
	c-0.3-0.2-0.6,0-0.8,0.4c-0.2-0.2-0.4-0.3-0.8-0.3c0.2,0,0.4,0,0.5-0.1c0.2-0.2,0.2-0.4,0.1-0.6c0,0-0.1-0.1-0.1-0.1
	c-1.2-0.8-2.5-1.5-3.9-2c-0.2-0.1-0.3-0.2-0.3-0.2v0c0-0.1,0.2-0.2,0.3-0.2c0,0,0,0,0,0c5.2,1.3,10.8,4.5,15.7,6.7
	c1,0.4,1.3,0.2,0.8-0.8c-0.2-0.5-0.8-0.9-1.8-1.4c-3.6-1.9-7.1-4-10.4-6.3c-0.2-0.1-0.3-0.4-0.1-0.6l0.2-0.2
	c0.1-0.1,0.2-0.1,0.3-0.1C17.1,82,19,83,21,83.7c2.6,0.9,4.6,2.1,7,3.2c1.7,0.8,3.8,0.3,5.1,0.8c18.9,7.9,37.2,14.3,54.9,19.4
	c0.4,0.1,0.6,0,0.6-0.5l0-0.3c0-0.3-0.2-0.5-0.5-0.6L63.8,98c-0.2-0.1-0.4-0.3-0.3-0.6l0.1-0.3c0.1-0.2,0.2-0.3,0.4-0.2
	c3.3,1.2,6,2.2,9.8,2.8c2.9,0.5,5.8,1.3,8.7,2.4c0.1,0,0.2,0,0.3-0.1l0.4-0.3c0.1-0.1,0.1-0.2,0-0.3c-0.8-0.5-1.2-0.7-1.3-0.7
	c-1.1-0.9-1-1.1,0.4-0.7l20.3,5.8c0.1,0,0.2,0,0.3-0.1l0.1-0.2c0.1-0.3,0-0.5-0.2-0.6L82.8,96.8z"/>
<path class="st3" d="M11,107.9l-6.8-3.2c-1.1-0.5-1.4-1.3-0.9-2.4l0.2-0.4c0.5-1,1.6-1.4,2.6-1l3,1.1c0.5,0.2,1.1,0,1.5-0.4
	c0.5-0.7,0.5-1.4-0.1-2.1c-0.1-0.1-0.1-0.4,0.1-0.5c0.1-0.1,0.1-0.1,0.2-0.1c0.5,0.1,0.9,0.3,1.2,0.8c0.2,0.3,0.5,0.3,0.8,0.2
	c0.1-0.1,0.2-0.1,0.2-0.2c0-0.1,0.1-0.2,0.1-0.3c0.1-0.1,0-0.3-0.1-0.4c-0.6-0.4-0.8-0.9-0.7-1.6c0.1-0.6,0.4-0.7,0.9-0.3
	c0.5,0.4,1.2,0.6,1.9,0.6c0.2,0,0.3-0.1,0.4-0.3l0.1-0.3c0.2-0.5,0-1-0.5-1.2c-3.3-1.5-6.4-3.1-9.2-4.7c0,0,0,0,0-0.1l0.1-0.2
	c0.1-0.2,0.2-0.2,0.4-0.1c3.6,1.4,6.9,2.7,10.6,4.4c4.2,2,8.5,3.7,12.9,5.1c0.4,0.1,0.6,0,0.4-0.4L30,99.7c-0.1-0.4-0.4-0.8-0.8-0.9
	L12,90.7c-2-0.9-1.9-1.6,0.2-2c0.1,0,0.8,0,2.1,0.1c0.5,0,0.9-0.3,0.9-0.8c0-0.1,0-0.2,0-0.2c0-0.1-0.1-0.3-0.3-0.5
	c0.2-0.5,0.4-0.6,0.8-0.4c6.1,3.1,12.2,6.3,18.1,9.5c0.2,0.1,0.3,0.4,0.2,0.6c0,0,0,0,0,0l-0.2,0.3c-0.1,0.1-0.1,0.1-0.3,0.1
	l-2.9-0.6c-0.3-0.1-0.7,0.1-0.8,0.4c-0.2,0.4-0.2,0.8,0,1.1c0.1,0.2,0.3,0.3,0.6,0.3c5.5,1.4,7.9,5,12.6,7.1
	c3.9,1.8,7.8,3.5,11.9,5.3c0.3,0.1,0.4,0.4,0.3,0.7L55,112c-0.1,0.2-0.2,0.3-0.4,0.2l-17.8-6.9c-0.2,0-0.3,0-0.4,0.2
	c0,0.1,0,0.2,0.1,0.3c0.1,0.1,0.3,0.2,0.5,0.2c0.1,0,0.2,0.2,0.2,0.3c0,0.1,0,0.1-0.1,0.1c-0.2,0.1-0.4,0.1-0.5,0.1
	c-2-0.8-4-1.7-6-2.6c-0.2-0.1-0.5,0-0.6,0.2c-0.1,0.3-0.1,0.5,0.1,0.7c0.1,0.1,0.2,0.2,0.5,0.2c0.4,0.1,0.6,0.3,0.7,0.6
	c0.1,0.3-0.1,0.6-0.4,0.7c-0.1,0-0.3,0-0.4,0l-8.3-4c-0.2-0.1-0.4-0.1-0.6,0l-0.7,0.3c-0.2,0.1-0.2,0.2,0,0.3l4.7,2.9
	c0.3,0.2,0.3,0.4,0.2,0.7c-0.1,0.1-0.2,0.2-0.2,0.2c0,0-8.2-2.8-9.1-3c-1.3-0.3-2.2-0.3-2.8,0.1c-0.6,0.4-0.5,0.7,0.1,1
	c6.8,3.3,13.8,5.7,19.1,10.1c0,0,0,0,0,0.1c0,0.1,0,0.2,0,0.3c0,0.1-0.1,0.1-0.2,0.1c-2.4-1.1-4.8-2.3-7.3-3.4
	c-3.7-1.7-8.2-2.3-12.1-4.9c-0.3-0.2-0.6-0.2-0.9-0.2C11.6,106.9,11.2,107.3,11,107.9z"/>
<path class="st3" d="M102.8,103c13.1,2.4,26.2,4.7,39.2,6.9c3.8,0.6,10.5,1,16,2.5c1.1,0.3,2.1,0.1,3.2-0.6c0.3-0.2,0.4-0.5,0.5-0.8
	c0.1-5.5,6.5-4.6,10.2-5c0.3,0,0.6,0.1,0.9,0.3c1.1,0.9,2.4,1.3,3.8,1.4c12.9,0.9,27.2,2.8,38.7,2.7c15.4-0.1,30.7-2.2,45.6-6.3
	c3.2-0.9,7.5-1,12.9-0.5c15.9,1.6,28.1,8.8,36.6,21.7c16.1,24.5,6.3,58-20.6,70c-2.2,1-6.7,2.3-13.5,4.1c-7.9,2-15.6,5.6-23.4,6.9
	c-10.6,1.8-19.6,2.2-32.4,2.9c-42.6,2.3-83.6-3.7-123.8-18.7c-11.4-4.3-22.1-9.2-31.9-14.9c-0.3-0.2-0.4-0.5-0.3-0.8
	c0.4-0.9,1-1.7,1.7-2.3c0.3-0.2,0.6-0.2,0.9-0.1c25.3,12.1,52.9,21,82.7,26.6c7.6,1.4,13.8,2.1,18.6,1.9c8.4,0.7,16.9,1.5,25.4,2.4
	c4.8,0.5,15.1,0.6,30.9,0.3c11.6-0.2,26.6-1.8,45.2-4.7c19.9-3.1,35.4-12.1,42.3-31.8c9-25.4-5.8-52.1-31.1-59.5
	c-12.8-3.8-26.4,0.6-37,2.6c-17.1,3.2-34.4,3.6-51.8,1.5c-8.9-1-18.4-1.3-27.6-2.4c-0.3,0-0.7,0.2-0.7,0.5c0,0.2,0,0.4,0.2,0.5
	c0.5,0.6,1.4,0.9,2.5,0.9c3.4,0.1,6.1,0.3,8,0.8c1.5,0.4,1.5,0.8,0.1,1.4c-1.8,0.7-3.6,0.6-5.4,0c-1.1-0.4-1.2-0.2-0.4,0.6
	c1.2,1.2,3.7,1.7,7.4,1.3c-1.4,2-5.4,0.7-8.1,0.4c-1.8-0.5-3.4-0.6-5.1-0.2c-1,0.1-2,0.3-3,0.1c-12.7-2.1-26.9-3.6-38.2-6.4
	C115.7,107.3,109.2,105.3,102.8,103z M249.7,205.7c2.6-0.5,5.2,0,7.8-1.3c0.3-0.1,0.3-0.3,0.1-0.5c-0.3-0.2-0.6-0.3-1.1-0.3
	c-14.2,1.3-28.5,2.2-42.7,2.6c-22.3,0.7-46.3-1.5-72-6.6c-22.7-4.5-45.6-12.2-68.7-22.9c-0.4-0.2-0.6-0.1-0.6,0.4l0,0.3
	c0,0.4,0.2,0.7,0.6,0.9c8.2,3.9,13.6,6.4,16.4,7.5c33.4,13.5,68,21,103.9,22.4c11.6,0.4,25.6-0.2,38.4-0.4c2.7,0,5.3-0.8,8-1
	C243.2,206.7,246.4,206.3,249.7,205.7z"/>
<path d="M168.5,200.8l-15.9-3.4c-0.6-1-1.8-1.2-3.7-0.8l-13.8-3.6l-16.6-5.7c-6.2-1.8-12.1-4.5-17.7-8.1
	c10.5,3.3,20.7,6.7,30.7,10.4c2.8,1,8.1,2.4,15.8,4c0.2,0,0.3,0,0.3-0.2l0.1-0.3c0,0,0-0.1,0-0.1c-13.8-3.5-26.4-8.5-41.6-14.6
	c-0.3-0.7,0.6-1.1,2.5-1.3l2.8-0.4c2.5,0.4,6,0.5,10.6,0.1c23.1-1.8,45.8-5.4,68.3-10.7c7.8-1.8,15.5-3.7,23.3-5.6
	c0.4-0.1,0.6-0.2,0.8-0.4c0.2-0.3,0.2-0.7-0.1-0.9c-0.1-0.1-0.1-0.1-0.2-0.1c-1.2-0.4-2.4-0.9-3.6-1.5c-25.8-12.4-43-20.9-51.5-25.7
	c-10.9-6.1-21.9-12.2-32.8-18.3c-0.5-0.3-0.7-0.6-0.5-1.1c0.1-0.3,0.4-0.5,0.7-0.4c6,1.1,11.9,2.2,17.6,3.6
	c5.4,1.3,15.2,2.4,29.3,3.3c13,0.9,31.4,0.5,47.7-1.6c0.2,0,0.3-0.1,0.3-0.3l0-0.3c0-0.4-0.3-0.6-0.6-0.5c-16,1-28.9,1.7-43.8,1
	c-0.3,0-0.5-0.2-0.6-0.5c-0.1-0.4,0-0.9,0.2-1.5c-3.7,0.4-6.2,0-7.4-1.3c-0.8-0.8-0.7-1,0.4-0.6c1.7,0.7,3.5,0.7,5.4,0
	c1.5-0.5,1.4-1-0.1-1.4c-2-0.5-4.6-0.8-8-0.8c-1.2,0-2-0.3-2.5-0.9c-0.2-0.3-0.2-0.7,0-0.9c0.1-0.1,0.3-0.2,0.5-0.2
	c9.1,1.1,18.6,1.4,27.6,2.4c17.5,2.1,34.8,1.7,51.8-1.5c10.6-2,24.3-6.4,37-2.6c25.3,7.4,40,34.1,31.1,59.5
	c-6.9,19.7-22.5,28.8-42.3,31.8c-18.6,2.9-33.7,4.4-45.2,4.7c-15.7,0.3-26,0.2-30.9-0.3C185.4,202.3,176.9,201.5,168.5,200.8z
	 M243.9,156.6c0.2-0.2,0.5-0.3,0.7-0.1c0,0,0.1,0.1,0.1,0.1c2.4,3,4.9,5.8,7.5,8.5c13.9,14,30.5,18.5,49.9,13.4
	c1.6-0.4,2.8-1.4,3.6-2.7c6.5-10.8,8.4-26.1,3.4-37.7c-3.3-7.6-9.7-17.2-17.3-22.1c-0.1,0-0.1,0-0.2,0l-0.2,0.3
	c-0.1,0.2-0.1,0.4,0.1,0.6c12.2,10.5,17,26.2,15.1,41.8c-0.1,1.1-1.1,2-2.2,2.1c-6.9,0.5-19.8-0.3-25.4-4.6
	c-0.3-0.2-0.4-0.5-0.2-0.9c6.7-13.9,6.1-27.5-1.8-40.6c-2-3.4-2.5-5.3-7.1-5.6c-12.3-1-23.3,2.6-33,10.5c-0.3,0.3-0.3,0.5,0,0.8
	c0.1,0,0.3,0,0.6-0.2c7.3-3.5,14.9-7.2,23.2-7c0.4,0,0.7,0.3,0.9,0.6c1.6,4.3,1.7,10.3,1.2,14.7c-0.1,0.6-0.5,1-1,1.1
	c-2.3,0.4-4.5,0.8-6.7,1.3c-11.9,2.5-22.2,11.6-28.1,22c-0.5,0.8-0.7,2.1-0.6,2.9c3.4,27.1,28.3,43.9,54.8,36.8
	c0.1,0,0.2-0.2,0.2-0.3l-0.1-0.7c0-0.2-0.1-0.3-0.3-0.2c-3.3,0.3-6.5,0.4-9.7,0.4c-13.7-0.1-29.7-10.6-35.6-22.9
	c-0.3-0.6-0.3-1.3,0.2-1.8L243.9,156.6z M190.3,113.6c0-0.4-0.2-0.7-0.6-0.7h0l-11.9-1c-0.4,0-0.7,0.2-0.7,0.6c0,0,0,0,0,0l0,0.1
	c0,0.4,0.2,0.7,0.6,0.7h0l11.9,1C190,114.3,190.3,114,190.3,113.6C190.3,113.7,190.3,113.7,190.3,113.6L190.3,113.6z"/>
<path class="st3" d="M243.9,156.6l-8.1,10.5c-0.4,0.6-0.5,1.2-0.2,1.8c5.9,12.3,21.9,22.8,35.6,22.9c3.2,0,6.4-0.1,9.7-0.4
	c0.2,0,0.3,0.1,0.3,0.2l0.1,0.7c0,0.1-0.1,0.3-0.2,0.3c-26.5,7-51.3-9.7-54.8-36.8c-0.1-0.8,0.1-2.1,0.6-2.9
	c5.9-10.4,16.2-19.5,28.1-22c2.2-0.5,4.4-0.9,6.7-1.3c0.6-0.1,1-0.5,1-1.1c0.5-4.3,0.4-10.4-1.2-14.7c-0.1-0.4-0.5-0.6-0.9-0.6
	c-8.4-0.3-15.9,3.4-23.2,7c-0.3,0.2-0.5,0.2-0.6,0.2c-0.3-0.3-0.3-0.5,0-0.8c9.7-8,20.7-11.5,33-10.5c4.6,0.3,5.1,2.3,7.1,5.6
	c7.9,13.1,8.5,26.6,1.8,40.6c-0.2,0.4-0.1,0.7,0.2,0.9c5.6,4.3,18.6,5.1,25.4,4.6c1.1-0.1,2.1-1,2.2-2.1c1.8-15.6-3-31.3-15.1-41.8
	c-0.2-0.1-0.2-0.4-0.1-0.6l0.2-0.3c0-0.1,0.1-0.1,0.2,0c7.6,4.9,14,14.5,17.3,22.1c5.1,11.6,3.1,26.9-3.4,37.7
	c-0.8,1.3-2.1,2.3-3.6,2.7c-19.4,5.1-36,0.6-49.9-13.4c-2.7-2.7-5.2-5.5-7.5-8.5C244.5,156.3,244.2,156.3,243.9,156.6
	C243.9,156.5,243.9,156.5,243.9,156.6z"/>
<path class="st3" d="M111.5,176.7l-2.8,0.4c-0.7-0.4-0.2-0.9,1.4-1.4c18.3-5.9,36.1-13,53.3-21c0.6-0.3,0.7-0.7,0.2-1.1
	c-3.5-3.4-6.9-6.5-10.4-10.1c-4.1-4.3-8.9-8.4-12.8-12.4c-6.4-6.5-13-12.8-19.9-19c-0.2-0.2-0.2-0.5,0-0.8c0,0,0,0,0.1-0.1l0.2-0.2
	c0.1-0.1,0.2-0.1,0.3,0c5.7,4.7,11.5,9.6,17.1,14c12.5,9.7,24.9,19.4,37.4,29.1c0.7,0.5,1.4,1,2.1,1.4c0.3,0.2,0.4,0.6,0.2,0.9
	c-0.1,0.1-0.2,0.2-0.3,0.3c-20.1,7.4-40.6,13.6-61.6,18.6C114.4,175.6,112.9,176.1,111.5,176.7z"/>
<path class="st3" d="M106.2,178.4c15.1,6.1,27.8,11.1,41.6,14.6c0,0,0.1,0,0,0.1l-0.1,0.3c-0.1,0.2-0.2,0.2-0.3,0.2
	c-7.8-1.6-13-3-15.8-4c-9.9-3.7-20.1-7.1-30.7-10.4c-2.6-0.5-5.4-1.6-8.3-3.3c-2-1.2-2.4-3.3-4.3-4.3c-11-5.7-21.5-12.1-31.5-19.3
	c-2.5-1.8-4.7-3.7-6.8-6c-0.3-0.3-0.3-0.6,0.1-0.9l2-1.5c0.2-0.2,0.6-0.2,0.8,0l13.2,9.2c0.4,0.3,0.7,0.2,0.9-0.2
	c2.2-4.9,5.9-7.7,11.2-8.5c0.4-0.1,0.6,0.1,0.6,0.5l0,1.3c0,0.4,0.4,0.8,0.8,0.8c0.1,0,0.2,0,0.3-0.1c3.2-1.3,5-3.6,5.6-7
	c0.1-0.7-0.3-1.3-0.9-1.5c-13.5-4.1-26.7-8.8-39.8-14.1c-2.8-1.2-7.5-3.5-11.4-5c-5-2-9.7-5.1-14.5-7.7c2.1,0.5,4.1,1.2,6.1,2.2
	c16.1,8.4,30.1,14.4,41.9,18c7.9,2.4,15.5,4.8,22.8,7.2c2.2,0.7,2.1,1.2-0.1,1.6l-1.7,0.3c-0.4,0.1-0.6,0.4-0.6,0.7
	c0.1,1.6,0.1,2.6,0,2.8c-1.6,3.4-0.8,4.2,2.5,2.4c0.8-0.4,2.5-1.1,5-1.9c0.6-0.2,1.3,0.1,1.5,0.8c0,0,0,0.1,0,0.1
	c0,0.2-0.2,0.4-0.6,0.8c-1.4,1.1-2.9,1.7-4.5,1.8c-0.3,0-0.5,0.3-0.5,0.6c0,0.2,0.1,0.4,0.3,0.5c0.7,0.4,1.2,0.9,1.5,1.4
	c0.6,0.9,0.4,1.2-0.7,0.9l-6.8-2.4c-0.2-0.1-0.3-0.2-0.4-0.4c-0.1-0.5,0-1,0.1-1.5c0.1-0.3-0.1-0.6-0.4-0.7c-0.1,0-0.3,0-0.4,0
	c-4.5,2.4-0.1,5-3.2,7.4c-0.3,0.2-0.3,0.6-0.1,0.8c0,0,0,0,0.1,0.1c0.6,0.6,1.2,0.6,1.9,0.1c0.3-0.2,0.6-0.3,1-0.2
	c1.3,0.3,2.4,1,3.2,2.1c0.2,0.3,0.1,0.6-0.1,0.8c0,0-0.1,0.1-0.1,0.1l-2.9,1.1c-0.3,0.1-0.7-0.1-0.9-0.4c0,0,0,0,0,0l-0.5-1.6
	c-0.1-0.4-0.5-0.6-0.9-0.5c-0.1,0-0.1,0-0.2,0.1c-1,0.6-2,0.3-2.8-0.7c-0.4-0.5-0.3-1.1,0.1-1.5c0,0,0,0,0,0
	c0.2-0.1,0.3-0.3,0.4-0.4c0.7-0.9,0.5-2.2-0.4-2.9c-0.4-0.3-0.8-0.4-1.3-0.4l-2.2,0.1c-0.3,0-0.5-0.1-0.7-0.4
	c-0.4-0.5-0.6-0.9-0.6-1.1c-0.2-2-0.8-2.1-1.6-0.2c-0.5,1.3-0.8,3.7-2.9,3.4c-0.5-0.1-1,0.3-1,0.8c0,0.2,0,0.3,0.1,0.5
	c0.9,2,1.3,6.4,3.1,7.5c3.7,2.1,7.5,4.2,11.3,6.1C90.6,171.3,98.3,175,106.2,178.4z"/>
<path class="st3" d="M177.8,112l11.9,1c0.4,0,0.6,0.3,0.6,0.7l0,0.1c0,0.4-0.3,0.6-0.7,0.6l-11.9-1c-0.4,0-0.6-0.3-0.6-0.7l0-0.1
	C177.1,112.2,177.5,112,177.8,112z"/>
<path d="M163.5,115.3c1.6-0.4,3.3-0.3,5.1,0.2c-1.2,0.9-2.8,1.1-4.7,0.6c-0.2-0.1-0.4-0.1-0.5-0.3
	C163.3,115.8,163.3,115.6,163.5,115.3z"/>
<path class="st4" d="M257.5,204.4c-2.6,1.3-5.2,0.7-7.8,1.3c-3.3,0.6-6.5,1-9.8,1.2c-2.8,0.1-5.3,0.9-8,1
	c-12.8,0.2-26.8,0.8-38.4,0.4c-35.9-1.4-70.5-8.9-103.9-22.4c-2.8-1.1-8.2-3.6-16.4-7.5c-0.4-0.2-0.6-0.5-0.6-0.9l0-0.3
	c0-0.5,0.2-0.6,0.6-0.4c23.1,10.8,46,18.4,68.7,22.9c25.7,5.1,49.7,7.3,72,6.6c14.3-0.4,28.5-1.3,42.7-2.6c0.5,0,0.9,0.1,1.1,0.3
	C257.9,204.1,257.8,204.3,257.5,204.4z"/>
<path class="st3" d="M152.6,197.4l-3.7-0.8C150.8,196.1,152.1,196.4,152.6,197.4z"/>
<path d="M223.2,230.3l1.7,1.6c0.2,0.2,0.3,0.4,0.4,0.6c2.6,5.7-2,10.2-7.6,10.4c-2.6,0.1-5.2,0.1-7.8-0.1c-0.3,0-0.5-0.2-0.5-0.5
	v-22.5c0-0.3,0.3-0.6,0.6-0.6c3-0.2,6-0.1,9.1,0.3c2.9,0.4,5.9,3.9,5.3,7c-0.2,1-1.1,1.9-1.6,3C222.9,229.7,223,230.1,223.2,230.3z
	 M214.6,224.6l0,2.5c0,0.5,0.4,0.9,0.9,0.9c0,0,0,0,0,0l1.2,0c1.4,0,2.6-0.9,2.7-2v-0.2c0-1.1-1.1-2.1-2.6-2.1l-1.2,0
	C215.1,223.7,214.7,224.1,214.6,224.6C214.6,224.6,214.6,224.6,214.6,224.6z M214.6,233.7l0,3.2c0,0.6,0.5,1.1,1.1,1.2c0,0,0,0,0,0
	l0.8,0c2.4,0,4.4-1.1,4.4-2.6v-0.2c0-1.5-2-2.7-4.4-2.7c0,0,0,0,0,0l-0.8,0C215.2,232.6,214.6,233.1,214.6,233.7
	C214.6,233.7,214.6,233.7,214.6,233.7z"/>
<path d="M243.6,237.6c-0.2-0.5-0.7-0.8-1.2-0.8l-6.3,0c-0.7,0-1.3,0.4-1.6,1.1l-1.7,3.8c-0.3,0.7-1,1.1-1.7,1.1l-3.3,0.1
	c-0.8,0-1.1-0.4-0.7-1.1l9.4-21.3c0.6-1.5,2.3-2.1,3.8-1.5c0.7,0.3,1.2,0.8,1.5,1.5l9.7,21.7c0.2,0.4,0.1,0.6-0.4,0.6l-4.1-0.1
	c-0.7,0-1.1-0.3-1.4-0.9L243.6,237.6z M237,231.3c-0.2,0.4,0,0.8,0.4,1c0.1,0.1,0.3,0.1,0.4,0.1l2.6-0.3c0.4,0,0.7-0.4,0.7-0.8
	c0-0.1,0-0.1,0-0.2l-1.1-3.3c-0.1-0.4-0.6-0.6-1-0.5c-0.2,0.1-0.4,0.2-0.5,0.4L237,231.3z"/>
<path d="M262.1,238.5c1.8,0,3.3-1.5,3.3-3.3l-0.1-15.2c0-0.5,0.4-1,1-1c0,0,0,0,0,0l3.3,0c0.7,0,1,0.4,1,1c-0.1,4-0.1,8.1-0.1,12.3
	c0,3.2-0.4,5.6-1.3,7.1c-2.9,5.2-12.4,5.1-15-0.7c-0.6-1.3-0.9-3.3-0.9-6.1c0-4.4,0-8.7,0-12.9c0-0.4,0.3-0.7,0.7-0.8l3.8,0
	c0.5,0,0.7,0.3,0.7,0.8l0,16.2c0,1.4,1.2,2.6,2.6,2.6c0,0,0,0,0.1,0L262.1,238.5z"/>
<path d="M280.7,235.8c-0.8-0.9-1.1-0.8-1.1,0.4l0.2,5.7c0,0.5-0.4,1-0.9,1c0,0,0,0-0.1,0l-3.6-0.1c-0.5,0-0.7-0.3-0.7-0.8l0-22.3
	c0-0.4,0.3-0.7,0.6-0.7c5.3-0.2,12.5-1.2,15.6,4.4c2.1,3.8-0.3,9.1-4.4,10.1c-0.5,0.1-0.8,0.6-0.7,1.1c0,0.1,0.1,0.2,0.2,0.4
	l5.5,6.8c0.6,0.8,0.4,1.1-0.6,1.1l-4-0.1c-0.9,0-1.7-0.5-2.2-1.3C283.3,239.3,282,237.4,280.7,235.8z M279.8,224.7l-0.1,4.4
	c0,0.6,0.4,1.1,1,1.1c0,0,0,0,0,0l1.1,0c2.5,0,4.6-1.3,4.6-3c0,0,0,0,0,0v-0.3c0-1.7-2-3.1-4.5-3.2l-1.1,0
	C280.3,223.7,279.8,224.2,279.8,224.7C279.8,224.7,279.8,224.7,279.8,224.7z"/>
<path d="M302.3,238.7c1.8,0.2,3.4-1.1,3.6-2.9c0-0.1,0-0.2,0-0.4l-0.1-15.4c0-0.6,0.3-1,1-1l3.3,0c0.7,0,1.1,0.3,1,1.1
	c-0.1,5.1-0.1,10.4-0.1,15.7c0,9.5-16.9,10.7-17-1c-0.1-5-0.1-9.9-0.2-14.6c0-0.7,0.3-1,1-1l3.2-0.1c0.7,0,1,0.3,1,1l0,15.8
	c0,1.5,1.1,2.7,2.6,2.8L302.3,238.7z"/>
<path d="M38,239c1.7,0.3,3.2-0.1,4.5-1.2c0.6-0.5,0.7-1.5,0.2-2.1c-0.2-0.2-0.5-0.4-0.8-0.5c-5.1-1.3-13-3.6-9.3-10.8
	c3.3-6.5,20.9-7.9,18.9,1.7c-0.1,0.4-0.3,0.6-0.7,0.6c-1.8,0.2-3.5,0.2-5.3-0.2c-0.3-0.1-0.6-0.3-0.8-0.6c-1.1-1.9-2.6-2.4-4.6-1.3
	c-0.6,0.3-1,0.9-0.9,1.6c0.1,3.5,9.4,1.9,11,6.9c3.1,9.9-18.5,15.3-20.9,5.1c-1-4.1,4-2.8,6.1-2.7c0.4,0,0.7,0.2,0.9,0.6l1,2.2
	C37.3,238.7,37.6,238.9,38,239z"/>
<path d="M82.3,238.8c1.7,0.2,6,0.1,5.2-2.9c-0.2-0.9-1-1.6-1.9-1.8c-3.9-0.7-9.5-1.6-9.2-6.9c0.5-9.6,21.8-11.8,20-1
	c0,0.3-0.3,0.5-0.6,0.5c-1.9,0.1-6.4,0.7-7.2-1.8c-0.2-0.7-0.9-1.1-1.6-1c-1.1,0.2-2,0.7-2.8,1.4c-0.6,0.6-0.6,1.6,0,2.2
	c0.2,0.2,0.5,0.3,0.7,0.4c4,1,12,2.1,10,8.3c-2.7,8.6-20.2,11-21.1,0.8c-0.1-0.9,0.6-1.7,1.5-1.8c0.1,0,0.1,0,0.2,0l4.3,0.2
	c0.4,0,0.7,0.2,0.8,0.6l0.7,2.1C81.5,238.5,81.9,238.8,82.3,238.8z"/>
<path d="M60.8,238.6l9.3-0.1c0.5,0,0.8,0.4,0.8,0.8c0,0.1,0,0.1,0,0.2l-0.6,3.1c-0.1,0.4-0.4,0.7-0.8,0.7l-16.5-0.1
	c-0.5,0-0.8-0.4-0.8-0.8c0-0.1,0-0.1,0-0.2l4.6-21.6c0.1-0.4,0.4-0.7,0.8-0.7l16.6,0c0.5,0,0.8,0.4,0.8,0.8c0,0.1,0,0.2,0,0.3
	l-1,2.9c-0.1,0.3-0.4,0.6-0.8,0.6l-9.8-0.1c-0.4,0-0.7,0.2-0.8,0.6l-0.8,2.7c-0.1,0.4,0.1,0.9,0.6,1c0.1,0,0.2,0,0.2,0l8.7,0
	c0.5,0,0.8,0.4,0.8,0.8c0,0.1,0,0.1,0,0.2l-0.8,3.5c-0.1,0.4-0.4,0.6-0.8,0.6l-9.1-0.1c-0.4,0-0.7,0.3-0.8,0.7l-0.6,3.1
	c-0.1,0.4,0.2,0.9,0.6,1C60.6,238.6,60.7,238.6,60.8,238.6z"/>
<path d="M96.7,242.6l4.7-22.4c0-0.2,0.2-0.4,0.5-0.4l5.8,0.1c0.3,0,0.5,0.2,0.5,0.5c0,0,0,0.1,0,0.1l-4.7,22.3
	c0,0.2-0.2,0.4-0.5,0.4l-5.8,0.1c-0.3,0-0.5-0.2-0.5-0.5C96.6,242.7,96.7,242.7,96.7,242.6z"/>
<path d="M160.2,231.1c0.1,6.4-5.2,11.7-11.9,11.9h0c-6.7,0.1-12.2-4.9-12.4-11.4c0,0,0,0,0,0c-0.1-6.4,5.2-11.7,11.9-11.9h0
	C154.6,219.6,160.1,224.7,160.2,231.1C160.2,231.1,160.2,231.1,160.2,231.1z M157.8,231.3c-0.1-5.2-4.5-9.3-9.8-9.3
	c-5.3,0.1-9.6,4.3-9.5,9.5c0,0,0,0,0,0c0.1,5.2,4.5,9.3,9.8,9.3C153.6,240.7,157.9,236.5,157.8,231.3
	C157.8,231.3,157.8,231.3,157.8,231.3z"/>
<path d="M126.2,238l6.7-17.1c0.2-0.6,0.7-0.9,1.4-0.9l0.4,0c0.7,0,0.9,0.3,0.6,1c-2.6,6.4-5.1,12.9-7.6,19.4c-0.4,0.9-0.8,1.5-1.3,2
	c-0.5,0.4-1.2,0.3-1.6-0.2c-0.1-0.1-0.1-0.2-0.2-0.3l-8.4-21c-0.1-0.3,0-0.6,0.3-0.8c0.1,0,0.2,0,0.3,0l0.6,0c0.6,0,1.1,0.4,1.3,1
	l6.7,17C125.6,238.8,125.9,238.8,126.2,238z"/>
<path d="M166.3,240.3l7.3,0c0.3,0,0.5,0.2,0.5,0.5l0.1,1.3c0,0.3-0.2,0.6-0.5,0.6c0,0,0,0-0.1,0l-9.8-0.1c-0.3,0-0.5-0.2-0.5-0.5
	v-21.4c0-0.3,0.2-0.5,0.5-0.5l1.5,0c0.3,0,0.5,0.2,0.5,0.5l-0.1,19.1C165.7,240,166,240.3,166.3,240.3z"/>
<path d="M189.4,230.4l0.3,1.4c0.1,0.2-0.1,0.5-0.3,0.5c0,0-0.1,0-0.1,0l-9.4,0.1c-0.3,0-0.5,0.2-0.5,0.5l0,6.8
	c0,0.3,0.2,0.5,0.5,0.5l9.5,0.1c0.3,0,0.5,0.2,0.5,0.5c0,0,0,0.1,0,0.1l-0.4,1.3c-0.1,0.2-0.2,0.3-0.4,0.3l-11.6,0.1
	c-0.3,0-0.5-0.2-0.5-0.5l0-21.6c0-0.3,0.2-0.5,0.5-0.5l11.9,0.1c0.3,0,0.5,0.2,0.5,0.5c0,0,0,0.1,0,0.1l-0.4,1.3
	c-0.1,0.2-0.2,0.3-0.4,0.3l-9.2,0c-0.3,0-0.5,0.2-0.5,0.4c0,0,0,0,0,0l0.1,6.8c0,0.2,0.2,0.4,0.4,0.5l9.1,0
	C189.2,230.1,189.4,230.2,189.4,230.4z"/>
<path d="M194.6,220.1h0.6c0.5,0,0.9,0.4,0.9,0.9v20.8c0,0.5-0.4,0.9-0.9,0.9h-0.6c-0.5,0-0.9-0.4-0.9-0.9V221
	C193.7,220.5,194.1,220.1,194.6,220.1z"/>
<path d="M149.8,213.4c-1,0.3-2,0.3-3.1-0.1C147.5,212.3,148.6,212.3,149.8,213.4z"/>
<path d="M146.7,213.3c1.1,0.3,2.1,0.4,3.1,0.1l2.6,4c0.1,0.2,0.1,0.5-0.1,0.6c-0.1,0.1-0.2,0.1-0.3,0.1l-0.7-0.1
	c-0.5-0.1-0.9-0.4-1.2-0.8l-1-2c-0.3-0.5-0.9-0.7-1.4-0.5c-0.2,0.1-0.3,0.2-0.4,0.4l-1.7,2.5c-0.2,0.3-0.6,0.5-1,0.5l-0.4-0.1
	c-0.5-0.1-0.6-0.3-0.3-0.7L146.7,213.3z"/>
</svg>
