<?xml version="1.0" encoding="UTF-8"?>
<!-- Generator: Adobe Illustrator 27.9.3, SVG Export Plug-In . SVG Version: 9.03 Build 53313)  -->
<svg version="1.1" id="Layer_1" xmlns="http://www.w3.org/2000/svg" xmlns:xlink="http://www.w3.org/1999/xlink" x="0px" y="0px" viewBox="0 0 892 600" style="enable-background:new 0 0 892 600;" xml:space="preserve">
<style type="text/css">
	.st0{fill:#FFFFFF;}
	.st1{fill:#002B7F;}
	.st2{fill:#939598;}
	.st3{fill:#FEFDFD;}
	.st4{fill:#C7102E;}
	.st5{fill:#C81010;}
	.st6{fill:#F8D000;}
	.st7{fill:#183070;}
	.st8{fill:#DD7500;}
	.st9{fill:#CE1126;}
	.st10{fill:#FFC72C;}
	.st11{fill:#FFFF00;}
	.st12{fill:#FCD116;}
	.st13{fill:#BD1021;}
	.st14{fill:#FFC221;}
	.st15{fill:#5A3719;}
	.st16{fill:#7B3C20;}
	.st17{fill:#AA5323;}
	.st18{fill:#999999;}
	.st19{fill:#D22730;}
	.st20{fill:#FED141;}
	.st21{fill:#002F6C;}
	.st22{fill:#007A33;}
	.st23{fill:#C10000;}
	.st24{fill:#FEDD00;}
	.st25{fill:#012169;}
	.st26{fill:none;}
	.st27{fill:#009543;}
	.st28{fill:#FDCE12;}
</style>
<g>
	<g>
		<defs>
			<path id="SVGID_00000092416163300654990530000013696516636742046607_" d="M30.9,0H861c17.2,0,31,13.8,31,30.9V569     c0,17.1-13.8,30.9-30.9,30.9H30.9C13.8,600,0,586.2,0,569.1V30.9C0,13.8,13.8,0,30.9,0z"/>
		</defs>
		<use xlink:href="#SVGID_00000092416163300654990530000013696516636742046607_" style="overflow:visible;fill:#EBF2EE;"/>
		<clipPath id="SVGID_00000156555386430447357180000006437111841407380121_">
			<use xlink:href="#SVGID_00000092416163300654990530000013696516636742046607_" style="overflow:visible;"/>
		</clipPath>
		
			<use xlink:href="#SVGID_00000092416163300654990530000013696516636742046607_" style="overflow:visible;fill:none;stroke:#FFFFFF;stroke-miterlimit:10;"/>
	</g>
</g>
<g>
	<path class="st19" d="M18.6,597.5L892,306.3V30.9c0-11.9-6.6-22.1-16.4-27.3H800L12.7,594.1C14.5,595.4,16.5,596.6,18.6,597.5z"/>
	<path class="st20" d="M12.7,594.1L800,3.7H400L8.7,590.6C9.9,591.9,11.3,593.1,12.7,594.1z"/>
	<path class="st21" d="M400,3.7H16.4C6.6,8.8,0,19.1,0,30.9v538.2c0,8.4,3.3,15.9,8.7,21.5L400,3.7z"/>
	<path class="st22" d="M25.2,599.5c1.8,0.3,3.7,0.5,5.7,0.5h830.2c17.1,0,30.9-13.8,30.9-30.9V455L25.2,599.5z"/>
</g>
<g id="Layer_1_00000031900075735354232040000009338103122256092841_">
	<path class="st2" d="M861.1,6C874.8,6,886,17.2,886,30.9V569c0,13.8-11.2,24.9-24.9,24.9H30.9C17.2,594,6,582.8,6,569.1V30.9   C6,17.2,17.2,6,30.9,6H861.1 M861.1,0H30.9C13.8,0,0,13.8,0,30.9l0,0V569c0,17.2,13.8,31,30.9,31H861c17.1,0,30.9-13.8,30.9-30.9   V30.9C892,13.8,878.2,0,861.1,0z"/>
</g>
</svg>