<svg id="Layer_2" data-name="Layer 2" xmlns="http://www.w3.org/2000/svg" xmlns:xlink="http://www.w3.org/1999/xlink" viewBox="0 0 892 600"><defs><style>.cls-1{fill:none;}.cls-2{clip-path:url(#clip-path);}.cls-3{fill:#fff;}.cls-4{fill:#ed2939;}.cls-5{fill:#939598;}</style><clipPath id="clip-path"><rect class="cls-1" width="892" height="600" rx="30.93"/></clipPath></defs><title>Cingapura</title><g class="cls-2"><path class="cls-3" d="M185.52,257.29l9.3,23.56L219,273.43l-12.62,22,20.9,14.31-25,3.82,1.84,25.27-18.6-17.19L166.91,338.8l1.84-25.27-25-3.82,20.9-14.31-12.62-22,24.22,7.42Z"/><rect class="cls-4" width="899" height="600"/><rect class="cls-3" y="300" width="899" height="300"/><path class="cls-3" d="M308.34,150A112.69,112.69,0,1,1,195.65,37.19,112.75,112.75,0,0,1,308.34,150Z"/><path class="cls-4" d="M343.75,150A106.5,106.5,0,1,1,237.26,43.39,106.55,106.55,0,0,1,343.75,150Z"/><path id="star" class="cls-3" d="M209.6,152.72,194.29,141,179,152.73l5.89-19-15.36-11.69,18.95,0,5.81-19,5.82,19,19,0L203.7,133.77Z"/><path class="cls-3" d="M329.71,152.72,314.41,141,299.1,152.73l5.89-19-15.35-11.69,18.95,0,5.81-19,5.82,19,18.95,0-15.36,11.69Z"/><path class="cls-3" d="M269.72,108.09,254.41,96.34l-15.3,11.76,5.89-19L229.64,77.46l19,0,5.81-19,5.82,19,18.95,0L263.82,89.14Z"/><path class="cls-3" d="M232.07,224.13l-15.3-11.76-15.31,11.76,5.89-18.95L192,193.49l18.95,0,5.81-19,5.82,19,18.95-.05-15.35,11.69Z"/><path class="cls-3" d="M307.24,224.13l-15.31-11.76-15.3,11.76,5.89-18.95-15.36-11.69,18.95,0,5.81-19,5.82,19,18.95-.05-15.35,11.69Z"/></g><g id="Layer_1" data-name="Layer 1"><path class="cls-5" d="M861.1,6A25,25,0,0,1,886,30.9V569a24.9,24.9,0,0,1-24.9,24.9H30.9A24.82,24.82,0,0,1,6,569.1V30.9A25,25,0,0,1,30.9,6H861.1m0-6H30.9A30.86,30.86,0,0,0,0,30.9H0V569a30.88,30.88,0,0,0,30.9,31H861a30.86,30.86,0,0,0,30.9-30.9V30.9A30.71,30.71,0,0,0,861.1,0Z"/></g></svg>