<?xml version="1.0" encoding="UTF-8"?>
<svg id="Camada_1" xmlns="http://www.w3.org/2000/svg" version="1.1" viewBox="0 0 500 500">
  <!-- Generator: Adobe Illustrator 30.1.0, SVG Export Plug-In . SVG Version: 2.1.1 Build 136)  -->
  <defs>
    <style>
      .st0 {
        fill: #30302f;
      }

      .st1 {
        fill: #cf962c;
      }

      .st2 {
        fill: #fdfdfd;
      }
    </style>
  </defs>
  <path class="st1" d="M217.6,492c-111.4-14.9-198.2-103.9-210.4-215.6C-4.9,164.7,60.7,59.1,166.3,20.6c105.6-38.5,223.8,0,286.4,93.3,62.6,93.3,53.5,217.3-22.1,300.4-53.9,59.3-133.6,88.4-213,77.7Z"/>
  <path d="M240.5,20.4c126.8-5.3,233.9,93.2,239.2,220,5.3,126.8-93.1,233.9-219.9,239.3-126.9,5.4-234-93.2-239.3-220C15.1,132.8,113.6,25.7,240.5,20.4Z"/>
  <path class="st1" d="M277.8,142.4c2.7,2.4,6.2,5.1,9.1,7.2,15.9,11.9,31.3,25.3,47.4,36.9.7,6.7,1,15.9,1.4,22.9l2.6,43.4c-35.3,12.6-54.6,40.3-48.3,78.1-2.9,5.3-6.7,11.4-9.8,16.7,0,7.4.1,15.1.2,22.5-4-.4-15,0-19.6,0h-39.8c0-7.4.3-16.1,0-23.4l-10.4-15.3c.5-3.2.6-7.6.7-10.7.3-33.6-17.8-56.2-48.3-68.8.8-7.5,1.1-16.5,1.5-24.2l2.5-41.2c1.7-1.1,3.6-2.6,5.2-3.9,16.7-13.1,34-25.6,50.6-38.8,13.1,22.8,18.2,37.8,21,64.5,4.6.1,9.1.2,13.7.3,2.9-25.6,8.3-43.6,20.5-66Z"/>
  <path d="M218.7,282.8c1.7.3,9.4,6,11.4,7.4,5-4,8.1-2.5,12.4,1.1,2.7,0,15.5.5,16.4-.2,3.8-3,3.7-6.4,11.9-.9,2.7-1.2,9.1-5.8,12-7.7-3.6,4.2-9.3,10.6-11.8,15.7-5.1-4.3-8.3-2.4-8.2,4.1-2.3,1.6-5.9,4.6-8.2,6.5,0,3.9.1,7.8.1,11.7,7.7,3.7,16.2,11.5,25.5,12.9,2.1.3,3.1.1,5.2.2v.4c0,0-.7.9-.7.9-10,4.4-24.9-7.3-34.8-7-7.5.2-21.5,8.1-29.8,8.2-3.1,0-3.8-1.1-5.8-3.2,13.4,1.8,21.1-7.2,31.9-11.9h.3c-.4-3.5-.4-8.6-.4-12.1-2.6-2.1-5.1-4.2-7.5-6.4-1.5-6.9-3.8-9.2-9.7-3.6-2-5.5-6.7-11.5-10.3-16Z"/>
  <path d="M295.8,217.1c7.1-.4,9.4.7,15.9,3.6-.5.2-.9.3-1.4.5-5.7,2.3-10.4,5.4-12.9,11.1-6.3,0-12.7,0-19,0,3.8,3.6,4.4,5.4,1.9,10-1.9,3.9-2.8,9.1-5,13.7-1.6-18.4-2.3-36.8,20.5-38.8Z"/>
  <path d="M202.3,216.8c27,.8,23.8,18,23.8,39.1-2-3.9-3.1-7.8-4.3-12-1-2.3-1.8-3.6-2.7-6.1,1-2.8,1.5-3.7,3.5-5.9-6.1.2-12.6.1-18.7,0,0-.2-.2-.4-.3-.6-2.7-5.8-8.4-8.9-14.2-11,5.1-2.2,7.4-3.4,13-3.6Z"/>
  <path class="st1" d="M327.6,272.6c21.2,11.7,32.6,21.7,49.5,39-8.4,17.2-16.5,29.1-30.1,42.6-3.1,2.9-6.3,5.9-9.5,8.7-5.5-24.7-16.1-47.7-32.4-67.2,8.2-10.7,11.3-15.3,22.5-23.1Z"/>
  <path class="st1" d="M172.7,272.9c.9,0,2.3,1.3,3.1,1.8,7.8,5.7,13.4,13.6,19.1,21.2-15.5,18.3-26.5,44.3-31.2,67.7-2.4-2.4-6.2-5.6-8.9-8.1-14.5-14-21.8-25.6-30.9-43.2,3.5-3.7,6.6-7.4,10.2-11.1,11.2-11.5,24.2-21.1,38.6-28.4Z"/>
  <path class="st1" d="M133.8,213.3c4.8-.5,12.6-.2,17.6-.1-1.5,16.3-1.8,34.1-3.5,50.1,3.1.2,6.2,1.1,9.3,2-10.5,5.7-19.9,13.7-28.5,22-3.3,3.2-7.4,7.4-10.4,10.7-7.1-25.7-9.6-56.6-1.2-82.2,5.2-1.4,11.4-2,16.8-2.5Z"/>
  <path class="st1" d="M351.2,213.4c9.8-.6,22.8,0,32.2,2.5,9.4,26.6,5.6,54.5-.6,81.5l-2.1-2.4c-9.2-10.1-25.1-23.3-37.3-29.5,3.1-.8,6.6-1.7,9.7-2.1-.4-5.6-3.8-48.4-3.1-49.7l1.1-.2Z"/>
  <path class="st2" d="M200.9,419.6c7.9,0,19.1,2.1,23.8,9.1l.3-4.4c8.4,0,17.3,1.5,25.9,1.6,6.3,0,17-2,22.8-1.3.3,2.3.4,5.5.5,7.9-3.9.6-7.5.8-11.4,1,0,1.2.1,2.5.2,3.7,3.4-.4,7.6-.6,11-.7.3,2.9.4,5.1.5,8-3.6.3-7.2.6-10.7.8l.2,4.7c3.4-.5,8.9-.7,12.4-.7.3,2.8.5,5.3.6,8.1-6.3.7-16.8,1.6-23,1.7-.7-5.1-1-12.4-1.4-17.6-.3-2.2-.4-4.6-.6-6.8-2.4.1-6-.2-8.4-.3-.5,7-1.1,17.5-2,24.4-3.5,0-7.1-.4-10.6-.7,0-6.3,1.2-17.8,1.6-24.6-2.4-.2-4.8-.3-7.2-.5,0,.2,0,.4-.1.6-.8,4.1-2.5,5.2-5.8,7.5-.3,1.1,1,3.3,1.1,4.8.2,3.9.4,7.7.7,11.6-3.2-.3-7.5-1.3-10.6-2.1-1-4.3-.4-10.2-2.4-13.5-2,.9-3.5,9.4-4.2,11.8-3.5-.5-6.9-1.3-10.3-2.3,1.5-8.9,5-22.7,7.2-31.7Z"/>
  <path d="M209.8,428.6c3.5.9,6.4,2.8,2.8,6.1-1.6.2-2.4.4-3.6-.5-.5-1.5.3-3.9.8-5.6Z"/>
  <path class="st2" d="M234.7,40.4c.7-.1,3.5-.2,4.3-.2.8,2.9,2.4,7.3,3.4,10.2l6.3,18c1.2,3.4,3,8.1,3.6,11.5-3.7.4-7.4.7-11.2.8-.8-2.8-2-6-2.8-8.8-2.6.3-5.2.5-7.8.8-.3,2.9-.9,6.3-1.5,9.2-9.2.3-11.8,1.2-20.5,4-1.7-2.3-6.5-11.9-8.3-12.6-1-.4-2.1-.2-3,.2-.4,1.4,3.1,12.4,3.7,14.4-3.5,1-7,2-10.5,3l-1-3.2c-3.3-11.8-6.7-23.5-10.1-35.2,1.5-.7,3-1.3,4.5-1.9,10.8-4.3,25.7-7.7,26.5,8.8.1,2.1-1.8,4.7-2.8,6.7.5.5,3.1,2.5,3.3,2.8,2.7,3.8,5.2,8.5,7.6,12.5,1.4-11.4,5.2-28.4,7.5-40.2l8.8-.6Z"/>
  <path d="M194.3,55.9c5.4-.3,7.2,5.1,3,8.1-1.1.5-1.5.9-2.7.8-1.2-1.8-2.2-5.6-2.1-7.8.6-1,.3-.7,1.8-1.1Z"/>
  <path d="M233.3,53.9c.6,1.3,2.7,8.3,2.1,9.4h-1c-1.2.3-1.3.4-2.5.3l-.2-.4c0-2.2.8-7.3,1.5-9.4Z"/>
  <path class="st2" d="M344.7,398.2c2.5-1.8,7.2-3.9,9.1-5.5,5.5-4.6,10.3-11.8,17.8-13.2,7.4-1.4,8.9,3,9.6,9,.6.5,2.7.7,3.5.8,5.5.4,8.1,5.8,6.7,10.9-1.8,6.7-10.4,13.6-16.1,17.2-5.9-6.2-12-13.7-17.8-20.2l-.5.9c3.4,6.4,10.4,14.9,8.5,22.5-1.6,6.9-12.4,13.1-19,10.8-7.3-2.5-14.1-17.5-17.6-24.2,2.7-1.9,6.2-3.8,9.2-5.4,3.3,5.3,6.2,11,9.4,16.4,1.2,2.1,2.6,4.5,5.3,4.4,1-.5,2.4-1.1,2.7-2.2,1-3.2-8.8-18.4-10.8-22.1Z"/>
  <path class="st0" d="M357.1,398.1c-.8-1.2-2-3.4-2.8-4.7,1.1,1.2,2.1,2.5,3.2,3.8l-.5.9Z"/>
  <path d="M378.6,398c5.5.5,2.4,4.7.2,6.9-1.3-1.5-2.7-3-3.9-4.6,1.5-1.1,2.1-1.5,3.8-2.3Z"/>
  <path d="M369.5,389c4.9-.1,2,4,.3,5.9-1-1.1-2.5-2.5-2.7-3.8.4-1.1,1.3-1.4,2.3-2.1Z"/>
  <path class="st2" d="M149.5,395.2c.2,0,.3.1.5.2,5.8,2.3,15.7,7.1,18,13,1.4,3.7.8,5.9-.6,9.2,4.9-5.5,10.7-7.1,17.9-4.9,15.6,4.8,13.8,25.2,1,32.1-4.1,2.2-9,1.5-13.3,0-11.1-5-12.6-15.3-6.9-25.3-5.9,4.9-12.6,4.3-18.6-.1-1.3,2.8-3.8,6.9-5.5,9.6-3.3-1.9-6.1-3.5-9.2-5.5l10.3-17.7c1.7-3,4.3-7.8,6.4-10.3Z"/>
  <path d="M179.8,420.6c10.2-.9,5.2,13.4-.6,16.7-8.9,1.7-5.4-12.4.6-16.7Z"/>
  <path d="M154.9,406.9c3.6.7,5.1,5,.8,6.9-1-.1-3.1-.8-4.2-1.1,1.2-1.9,2.3-3.9,3.4-5.8Z"/>
  <path class="st1" d="M242.6,114.8c12-.8,22.8.5,34.5,2.3-2.3,3.3-5.3,8.6-7.3,12.2-6.3,11.2-12,22.9-16.9,34.8-.9,2.2-1.7,4.1-2.5,6.3-5.9-17-17.3-38.9-27.2-53.5,6.9-1.1,12.2-1.7,19.3-2.2Z"/>
  <path class="st1" d="M196.9,316c.1.1.3.5.4.7,0,5.3-.2,11.2-2.5,16.1,4,4.1,9.1,13.1,10.9,18.7.6,1.8.5,9.6.5,12.1v20.8c7.3.3,16.8.4,23.8,0,1.2,3.4,2.3,5.7,4.4,8.6-5.7-1.3-11-2.1-16.7-3.6-16.5-4.4-28.5-9.3-42.7-18.7,1.9-5.4,3.5-12,5.3-17.6,4.6-13.9,9.3-24.4,16.5-36.9Z"/>
  <path class="st1" d="M303.3,316.6c2.2,1.6,8.4,14.7,9.7,17.6,5.4,11.6,9.3,24.2,12.7,36.5-15,9.2-24.9,13.9-42.2,18.4-5.2,1.5-11.7,2.7-17,3.6,1.9-2.5,3.3-5.4,4.1-8.4h23.8s.1-19.8.1-19.8c0-2.8-.1-11,.6-13.2,1.8-5.7,6.9-14.2,10.8-18.6-2.3-4.8-2.6-10.9-2.6-16.1Z"/>
  <path class="st2" d="M260.6,39.8c8.6.1,21.3.7,26.7,8.2,6.5,9.1,3.2,24.2-5.5,30.7-8,4.8-18.3,2.8-26.8.4.5-5.2,1.4-10.7,2.1-15.9,1.1-7.8,2.2-15.6,3.5-23.4Z"/>
  <path d="M270.3,49.2c12,1,10.5,15.9,4.3,22.1-2.6,1.9-4.6,1.6-7.7,1.5.6-6.3,2.4-17.1,3.4-23.5Z"/>
  <path class="st2" d="M129.4,81c10.9.5,20.3,11,21.9,21.3.7,4.3-.3,8.6-2.9,12.1-3.1,4.2-7.5,6.4-12.6,7.2-23.6-.2-33.6-38-6.5-40.6Z"/>
  <path d="M126.3,91.2c5.2-.2,10,5,12.4,9.1,2.4,4.1,3.9,8.3-1,11.1-.6,0-1.2,0-1.8,0-5.5-.8-13.6-10.7-12.5-16.6.4-1.9,1.4-2.7,2.9-3.6Z"/>
  <path class="st2" d="M394.2,105.1c3-.4,7.3.6,9.9,2.2,8.8,5.7,10.4,15.7,5,24.3-4.1,6.3-10.5,10.8-17.8,12.4-16.5,1.2-24.6-16.7-14.2-28.9,5-5.9,9.4-9,17.2-10.1Z"/>
  <path d="M395.7,115.4c5.1-.5,8.1,1.9,5.5,7.1-2.6,5.2-7.3,9.3-12.7,11.3-5.3.4-7.6-2.3-5.1-7.4,2.5-5.2,7-9,12.3-11Z"/>
  <path class="st1" d="M157.8,150.9c3.3,2.4,15.2,9.1,19.2,11.2-7.9,5.7-15.8,12.4-23.7,18.3.2,5.9,0,13.4,0,19.4-3.8,0-8.4.2-12.2.4-5.8.4-13.4.5-19.3.6,10.1-21.7,19-33.1,36.1-49.9Z"/>
  <path class="st1" d="M343.1,150.4h.3c2,1.7,4.7,4.5,6.5,6.4,13.3,13.4,21.6,26.4,29.5,43.3-5.9-.4-12.4-.5-18.4-.7l-13.2-.4c0-6.5,0-13,0-19.5-7.1-5.1-16.9-13.9-23.9-18.2,4.3-1.9,14.6-8.3,19.2-10.9Z"/>
  <path class="st2" d="M160.7,60.7c2-.2,3.5-.2,5.5.5,2.6.9,4.6,2.9,5.6,5.4,1.4,3.4.7,5.6-.6,8.7,4.4.2,8,1.3,10.1,5.6,5.7,12-8.1,19-16.8,23.1l-3.4,1.4c-6.1-11-13.5-23.8-19.1-34.8,5.2-4.2,12.1-8.5,18.6-9.8Z"/>
  <path d="M166.9,83.8c2.7,0,5.1,1.4,4.5,4.4-.5,2.6-1.9,3.4-4,4.8h-.3c-.8-.6-3.8-6.3-4.5-7.6,1.6-.7,2.7-1.1,4.3-1.6Z"/>
  <path d="M159.1,70c1,0,2.5.6,3.1,1.4,1.9,2.9-1.2,5.4-3,6.8-1.1-.5-3.3-5.2-4-6.5,1.3-.7,2.6-1.2,3.9-1.7Z"/>
  <path class="st2" d="M322.8,51.9c3.3,1.6,6.8,3.3,10.2,4.7.1,8,.4,16,.4,24.1,1.9-5.6,6.1-14.3,8.8-19.7,3.1,1.4,6,2.7,9,4.3-4,8.9-12.3,26.7-17,36.2-.2,0-.4.2-.6.3-3-1.4-6.1-2.8-9.1-4.2-.1-7.3-.7-19.1,0-25.9-3,7-6.3,14.5-9.8,21.3-3-1.3-6.1-2.9-9.1-4.3,5.8-12.1,11.5-24.6,17.2-36.8Z"/>
  <path class="st2" d="M361,71.4c3,1.9,6.1,4.1,9,6.1-2,3.1-6.3,9.7-8.6,12.3,2.7,1.7,5.3,3.6,7.9,5.4,2.2-3.7,5.9-8.7,8.3-12.4,3,1.9,6.2,4.1,9.2,6.1-4.9,7.4-10.1,14.8-15,22.2-1.4,2.1-6.4,9.6-7.8,11.1h-.7c-2.9-2-5.5-3.8-8.3-5.9,2.7-4.2,6-9,8.9-12.9-2.6-1.7-5.3-3.5-7.7-5.5-2.4,3.7-6.4,9.9-9.1,13.2-2.9-2.1-6.1-4.2-9.1-6.2,1.9-2.2,5.5-7.9,7.3-10.4,5.3-7.6,10.3-15.5,15.8-23Z"/>
  <path class="st2" d="M441.9,228.4c.9.9,6.5,13.6,7.2,15.4,5.8.6,11.9,1.4,17.7,1.8-3,2.2-10,8.6-13.2,11.5,1.3,4.8,2.5,11.6,3.6,16.6-4.9-2.5-10.4-5.6-15.2-8.4l-15.3,8.5c1.4-5.2,2.4-11.3,3.7-16.7-4.3-3.7-8.8-7.7-13-11.5,5.3-.3,12-1.2,17.4-1.8l7.1-15.4Z"/>
  <path class="st2" d="M58.3,228.2c1.1,1,6.2,13.3,7.1,15.5,5,.7,12.6,1.2,17.7,1.6-4.3,3.9-8.9,7.7-13.2,11.5,1.4,5.6,2.4,11.3,3.9,16.8-4.9-3-10-5.7-14.9-8.7-1.1.1-13.2,7.3-15.4,8.4l3.7-16.6c-4.4-3.5-9.1-7.8-13.3-11.5,4.8-.2,13.1-.8,17.7-1.6,2-5,4.7-10.2,6.7-15.4Z"/>
  <path class="st2" d="M99.2,105.3c1.5-.2,5.3,5.9,6.2,7.2-2.4,1.3-9.5,5.3-7.5,9.1,1.4,2.8,9.7-2.5,12.1-2.9,2.1-.3,4.2-.8,6.4,0,6.6,1.9,10.4,8.9,8.3,15.5-2,6.5-7,11.2-12.8,14.3-1.5-.4-5-5.6-6.2-7.2,3.7-2,10.1-5.8,9.5-10.7-3.1-3.5-14.1,5.3-20.4,2.3-13.9-6.7-6.4-21.9,4.3-27.5Z"/>
  <path class="st1" d="M292.9,120.6c16.1,6.6,23.3,10.7,38,20-4,2.4-8.1,5.1-12.1,7.6-2.1,1.3-4.2,2.7-6.3,4.2-8.4-6.7-18.9-14.7-27.7-21.1,2.6-2.9,5.7-7.5,8-10.7Z"/>
  <path class="st1" d="M208,121.1c.4.2,7.4,8.9,8.5,10-8.8,6.4-19.8,14-28.2,20.7-1.9-1.2-3.9-2.5-5.8-3.7-4.1-2.5-8.2-5.1-12.3-7.5,13.9-10.4,21.5-13.6,37.7-19.5Z"/>
  <path class="st2" d="M114.7,363c1.7.4,13.7,13.7,15.6,15.9-1.9,2.1-4,4-6.1,5.8-2.3-2.9-5.4-5.4-7.7-8.5-.9.8-2,1.7-3,2.4,2.5,2.6,5.4,5.5,7.6,8.3-1.9,1.9-3.8,3.6-5.8,5.4-2.5-2.3-5.6-5.3-7.6-8-.9.9-1.8,1.8-2.7,2.7-.3.2-.3.3-.4.7.8,1.6,6.6,7.4,8.1,8.9-1.8,2.1-3.9,4-5.9,5.8-5-5-11.3-11.5-15.9-16.8,3.9-4.1,8.7-8.4,12.8-12.3,3.3-3.2,7.6-7.4,11-10.2Z"/>
  <path class="st2" d="M389.2,357.3c2.4,1.8,4.1,3.3,6.3,5.3-2,2.7-5.2,6.3-7.5,8.8,1.2.9,1.8,1.5,2.8,2.5,2.4-2.9,4.7-5.6,7.2-8.4,2.3,1.7,4.1,3.3,6.2,5.2-2.2,3.1-4.6,5.6-7.1,8.5,1.3.9,2.4,2.1,3.6,3.1,2-2.7,5.7-6.9,8-9.4,1.4,1.1,5.9,4.2,5.8,5.9-4,5.2-10.2,12.1-14.6,17.1-7.7-7.2-17.3-14.2-25.2-21.7,4.2-5.3,9.9-12,14.5-16.9Z"/>
  <path class="st2" d="M129.2,383.4h.2c6.8-.2,10.8,2.7,15.8,7.2,1.3,1.2,2.3,2.2,2.3,4-.8,2-4.2,3.9-6.1,5.2-1.6-2.1-5.3-6.9-8.1-7l-.4.4c0,3.9,4.3,8.1,4.5,12.7.4,6.5-3.2,9.7-9.5,10.2-7.9-.6-13.9-6.1-17.8-12.6,2.1-1.9,4.4-3.6,6.7-5.3,1.1,1.7,7.6,11.1,10,7.5,0-1.9-.6-3-1.5-4.6-4.1-7-5.1-14.3,3.9-17.7Z"/>
  <path class="st2" d="M305.7,417c1.1,0,.8-.2,1.7.4,1.2,2,.7,5.8.6,8.2-7.8,0-15.5,3.4-11.1,13.3,2.9,6.5,10.5,4.1,15.5,1.2,1.4,2.5,2.4,4.8,3.7,7.4-2.3,1.6-4.1,2.3-6.7,3.3-12,3.9-23.1-.3-24.5-13.9-.5-4.4.8-8.8,3.7-12.1,4.4-5.3,10.7-7.1,17.2-7.7Z"/>
  <path class="st2" d="M317.4,412.1h.4c1.3,1.1,8.5,20.2,9.5,23,3.5-1.6,7.6-3.1,11.3-4.6,1,2.6,2.1,5.2,3.1,7.8-2.7,1.3-6.6,2.7-9.5,3.9l-11.6,4.6c-1.7-3.4-3.9-9.4-5.4-13.1-2.3-5.7-4.9-12.1-6.9-17.9,2.9-1.4,6.1-2.6,9.2-3.7Z"/>
  <path class="st2" d="M302,46.1c3.2,1.1,7,2.1,10.4,3.3-1.4,5.4-3.4,11.5-5,16.9-2.2,7.4-4.5,14.7-6.8,22-3.4-1.1-6.9-2.1-10.3-3.2,1-4.5,3-10.4,4.3-14.9,2.4-8,4.9-16.1,7.4-24.1Z"/>
  <path class="st1" d="M245.7,383.7c3.3,0,6.9,0,10.2,0l-3.4,6.2c-.5.9-1.1,2.2-1.5,3.1-1.8-3-3.5-6.3-5.3-9.3Z"/>
</svg>