<?xml version="1.0" encoding="UTF-8"?>
<svg id="Layer_1" data-name="Layer 1" xmlns="http://www.w3.org/2000/svg" viewBox="0 0 1000 1000">
  <defs>
    <style>
      .cls-1 {
        fill: #f3bc11;
      }

      .cls-2 {
        fill: #f8bd0e;
      }

      .cls-3 {
        fill: #f9bd0d;
      }

      .cls-4 {
        fill: #2f4952;
      }

      .cls-5 {
        fill: #f2bc12;
      }

      .cls-6 {
        fill: #f3bc12;
      }

      .cls-7 {
        fill: #f4bb11;
      }

      .cls-8 {
        fill: #f1bb13;
      }

      .cls-9 {
        fill: #ecbb1c;
      }

      .cls-10 {
        fill: #e9b91d;
      }

      .cls-11 {
        fill: #264454;
      }

      .cls-12 {
        fill: #023873;
      }

      .cls-13 {
        fill: #cdaa2b;
      }

      .cls-14 {
        fill: #f5bc10;
      }

      .cls-15 {
        fill: #3c4b41;
      }

      .cls-16 {
        fill: #16426c;
      }

      .cls-17 {
        fill: #013975;
      }

      .cls-18 {
        fill: #053870;
      }

      .cls-19 {
        fill: #e0b520;
      }

      .cls-20 {
        fill: #d0b136;
      }

      .cls-21 {
        fill: #09396d;
      }

      .cls-22 {
        fill: #354843;
      }

      .cls-23 {
        fill: #0d3a68;
      }

      .cls-24 {
        fill: #364a46;
      }

      .cls-25 {
        fill: #053970;
      }

      .cls-26 {
        fill: #043871;
      }

      .cls-27 {
        fill: #f4bc12;
      }

      .cls-28 {
        fill: #29444c;
      }

      .cls-29 {
        fill: #193f5f;
      }

      .cls-30 {
        fill: #f3bb11;
      }

      .cls-31 {
        fill: #fdfdfd;
      }

      .cls-32 {
        fill: #ebbb1c;
      }
    </style>
  </defs>
  <path class="cls-31" d="M540.75,979.87h-57.55c-10.9-3.43-22.63-4.16-33.75-6.94-202.5-50.71-292.77-354.09-332.87-532.62l-10.46-71.93c1.22-22.02-1.64-45.7,0-67.5C127.08,23,500.1-.99,705.46,61.65c238.97,72.88,223.3,277.56,168.13,479.89-43.91,161.03-136.23,420.21-332.85,438.33Z"/>
  <path class="cls-17" d="M464.92,43.36c118.26-6.68,305.95,17.5,383.4,117.58,96.8,125.09,31.35,348.26-15.8,484.42-56.31,162.63-160.37,353.9-363.59,321.96-182.65-28.71-277.23-278.58-320.58-433.74-51.1-182.92-69.56-376.4,141.3-455.11,53.05-19.8,118.65-31.92,175.26-35.12Z"/>
  <path class="cls-3" d="M451.44,749.56c-5.86-30.97-10.72-62.04-14.89-93.31-16.32-11.34-34.17-20.65-47.64-35.73-2.25,2.25-.8,7.42-.43,10.36,3.92,31.42,12.89,67.78,20.26,98.85,9.42,39.72,21.73,78.47,32.57,117.76l-14.71,11.16c-76.83-110.75-105.17-247.24-116.05-380.11-4.14-50.49-7.98-108.59-8.13-158.8-.07-22.61,37.76-38.51,57.73-36.75l4.94,131.03c15.32-21.67,32.11-40.02,54.26-54.92l-.73-90.03c2.01-3.94,27.57-11.89,31.82-11.89h28.78l-1.98,79.42c19.17-2.33,40.64-3.95,59.53,0v-79.41h28.78c3.41,0,30.27,8.91,30.83,11.27-.43,12.46.34,25,0,37.46-.31,11.61-5.49,40.73-1.05,50.52,1.64,3.6,20.76,15.37,25.83,19.83,6.15,5.41,25.82,30.97,27.76,31.8,4.04,1.72,2.79-2.77,2.95-4.92l2.92-120.26c14.11-3.33,50.02,13.71,55.59,25.96,2.57,5.65,1.32,43.37,1.11,52.66-1.07,46.29-5.43,93.66-10,139.89-1.11,1.43-2.7,2.28-4.77,2.54,1.02,10.37,2.5,28.74-7.03,34.49,3.86,5.25,4.01,10.25.79,15.83,2.65,5.3,1.65,10.82-3,16.54-1.15,32.07-7.86,63.53-20.14,94.38.84,15.91-2.59,29.06-10.29,39.45-5.18,18.71-11.79,37.38-18.98,55.99-2.55,11.06-7.75,19.34-15.59,24.84l-9.81,20.03c-1.59,8.64-4.06,14.16-12.46,17.86-3.75,37.9-26.8,14.16-12.46-10.95l12.44-26.2c-2.48-9.99-.93-18.78,4.63-26.36,4.95-35.29,13.58-70.01,25.16-103.54l-2.09-12.93c4.79-13.39,3.08-21.99-5.13-25.8-4.78,9.44-11.9,14.97-23.02,14.05-6.12,8.9-14.36,16.87-24.69,23.91-4.18,27.62-8.41,55.23-12.7,82.82l-3.91,2.03c-2.16,20.67-5.43,41.08-9.8,61.21l-6.11,4.11c7.65,26.35-21.66,32.55-22.83,2.02,6.61-34.88,10.26-70.66,9.24-106.7,8.13-31.13,3.13-41.8-14.99-32.02l-8.04.8c-19.5-7.31-27.56-4.31-24.16,9.01,6.77,41.1,10.58,85.49,11.39,127.5.3,15.63-5.4,29.44-21.35,16.85l-15.14-71.01c-2.1,0-3.85-.97-5.25-2.57Z"/>
  <path class="cls-2" d="M451.44,749.56l7.93-3.96,16.25,77.04c15.63,7.05,14.71-13.64,13.54-24.47-2.87-26.43-1.93-52.59-4.5-78.84-1.17-12-8.58-40.61-7.09-49.68,1.31-7.93,9.24-9.21,16.15-7.04,4.2,1.32,3.64,5.41,12.26,5.74,8.96.35,27.76-16.01,29.74,1.5,1.42,12.55-2.32,21.36-2.78,31.35-1.22,26.36,1.21,54.65-5.04,80.17-1.45,5.9-2.09,7.41-3.37,14.3-.62,3.36-4.12,5.95-3.67,10.34.36,3.46,3.64,5.28,4.48,7.68,1.35,3.85-.36,15.46,11.47,8.35,7.21-4.33,1.2-14.25,2.14-17.6.72-2.58,5.05-3.39,6.67-5.35,6.4-7.79,3.83-28.73,5.16-38.51.36-2.66,3.77-20.59,4.15-21.72.89-2.68,5.19-2.52,5.72-4.58,5.56-21.87,1.19-42.11,9.39-67.59,1.2-3.74,0-8.36,1.35-12.55,2.28-7.12,24.88-15.62,22.94-22.68-3.17-11.51-23.92,12.45-25.88,13.77-11,7.38-11.86-.52-13.15-.85-10.02-2.58-12.4,3.13-18.5,4.93-12.59,3.71-31.27,3.6-44.29,2.57-5.19-.41-4.32-5.24-8.19-5.69-10.27-1.19-21.7,2.13-32.83-2.86-4.23-1.9-4.95-9.09-9.84-10.15-4.15-.91-8,1.6-9.66.92-1.95-.8-18.99-21.52-22.8-24.87-2.7-2.37-7.3-2.58-9.86-4.52-3.14-2.39-3.5-6.98-6.07-9.38-1.28-1.19-5.07-.84-6.46-2.48-2.41-2.86,1.84-7.65.97-10.75-.45-1.58-10.84-8.59-12.64-13.27-2.11-5.49.11-10.88-2.07-15.78-1.75-3.93-7.88-4.8-8.86-7.51-3.42-9.49,0-16.92.03-25.19.09-23.25-2.46-45.61.77-68.7,4.1-5.68,11.34,6.01,12.65-12.81.15-2.1-2.26-6.19-1.61-6.9.42-.46,7.94.12,10.11-3.3,2.65-4.18.65-11.6,2.72-14.66,1.58-2.35,8.04-1.66,8.9-5.1.66-2.65-2.76-6.5-1.03-8.78,2.1-2.77,7.78-1.12,11.02-2.96,3.93-2.23,20.8-20.17,23.89-21.76,4.75-2.45,16.15-3.69,21.68-6.11,3.43-1.49,8.53-8.24,13.38-8.44,3-.12,5.25,4.16,9.49,3.72,1.03-.11.82-3.69,2.4-4.06,28.55-6.57,41.85-4.8,70.59.48,2.9.53,5.68,3.5,8.49,3.44,2.97-.05,6.94-5.78,8.89-3.93.64.6-1.33,3.49-1.18,4.97.54,5.44,17.64,9.16,21.65,11.35,19.42,10.61,40.72,36.53,51.77,57.33,6.62,12.47,7.84,25.69,13.08,38.74.43,10.21-15.23,12.02-22.88,11.75-2.57-.09-5.05-3.11-7.86-3s-4.61,3.42-7.64,3.53c-5.09.19-5.23-6.71-10.16-7.59-6.84-1.23-26.09,2.21-28.78,1.09-1.96-.82-7.31-7.6-10.07-9.92-2.08-1.75-6.96-2.51-7.5-3.38-1.51-2.44,1.21-8.16-3.17-11.81-4.01-3.34-7.59.7-11.03-.69-3.26-1.32-8.77-10.78-11.99-12.05-2.97-1.18-5.72,1.36-8.48.73-3.46-.79-5.81-7.1-12.22-7.34-22.3-.83-9.4,15.64-9.08,24.75.18,5.04-8.96,21.04-2.06,25.73,1.43.97,17.67,2.92,20.89,2.98,9.96.18,19.96-.01,29.76-.03,18.58-.03,36.86-1.15,55.38-1.8,9.46,5.5,3.5,29.13,6.16,33.5,2.33,3.82,16.26,7.08,20.74,6.9,6-.24,17.68-7.94,20.02,6.08,1.61,9.65-4.41,11.94-7,18.72-10.09,26.32-4.51,30.29-26.18,52.24-1.69,1.71-1.45,5.04-3.1,6.79-3.8,4.01-17.5,7.72-19.15,11.65-3.64,8.64,11.94,7.08,17.63,1.74,4.13-3.87,5.29-16.76,17.07-4.98,6.64,6.64.93,17.18.71,24.92-.12,4.24,2.22,8.15,2.22,11.97,0,5.7-11.72,32.74-12.9,42.31-2.14,17.35-5.17,19-8.52,33.54-2.18,9.46-1.23,21.3-4.47,31.26-1.31,4.02-5.03,6.14-5.62,8.37-1,3.81,3.36,10.26,1.27,17.05-2.53,8.23-12.28,22.14-15.24,34.4-.83,3.42-3.76,15.64.79,16.64,8.21,1.8,6.35-18.61,7.2-19.59.63-.73,5.53-.11,8.67-4.21,2.71-3.54,2.19-8.4,4.09-11.79,4.58-8.19,6.23-13.09,9.8-19.98,1.61-3.1,6.5-3.66,7.88-6.01,6.34-10.8,11.71-34.49,16.42-47.1,1.1-2.94,5.13-4.86,6.03-7.87,1.87-6.28,1.16-15.36,5.47-22.34,2.02-3.27,6.8-3.62,7.02-5.31,1.05-8.19-1.18-22.31,2.23-33.06,5.47-17.26,16.65-48.19,18.92-66.44,1.01-8.09-1.05-20.66.9-26.89.88-2.83,4.91-4.56,5.3-6.63.52-2.77-3.02-5.33-3.04-7.66-.01-2.14,3.19-4.47,2.91-7.61-.25-2.76-4.32-6.16-3.75-10.01.29-1.94,6.45-2.01,7.84-6.65.25-.84,1.88-16.25,1.79-17.12-.5-4.48-9-20.39,6.43-11.21-10.58,106.94-29.86,209.63-81.03,305.09-3.56,6.64-27.02,47.42-30.1,49.39-4.56,2.92-17.41-6.92-17.03-11.14,23.46-71.68,42.95-145.24,52.71-220.25-14.3,14.7-33.74,22.83-49.22,35.12-5.43,59.36-17.72,117.71-32.14,175.33-9.42-1.01-18.06-5.43-27.79-3.97l9.94-160.83c-13.88,2.37-25.84.59-39.7,0l11.07,158.98c-4.69,1.15-25.79,7.09-27.94,3.88-7.76-27.52-13.54-55.35-18.85-83.44Z"/>
  <path class="cls-3" d="M660.58,799.92c45.34-73.88,66.17-147.03,81.97-232.64,22.37-121.21,30.92-242.26,29.39-365.66,38.97,34.46,59.84,70.67,58.54,124.05-1.27,52.01-11.38,112.7-20.45,164.18-20.88,118.43-55.03,251.89-137.28,343.13-9.13,10.13-47.72,47.79-58.54,50.82-5.72,1.6-9.18-4.78-7.69-9.72,21.22-22.46,38-48,54.06-74.16Z"/>
  <path class="cls-3" d="M407.28,882.07c-.93.93-3.51,2.09-4.76,2.07-5.01-.09-37.69-27.77-43.42-33.27-106.38-102.23-146.84-288.41-165.38-430.16-5.95-45.52-16.06-111.56.19-154.11,9.67-25.31,29.17-46.12,48.16-64.98.02,109.2,6.19,218.22,23.39,326,19.7,123.5,45.22,220.29,121.68,321.01,5.51,7.25,27.48,26.05,20.13,33.44Z"/>
  <path class="cls-30" d="M657.84,243.3c-.95,1.73-2.16,5.88-3.19,6.12-2.63.6-14.11-2.42-14.38-5.07,4.9-6.72,11.53-43.08,15.51-45.89,3.03-2.13,11.75,1.35,14.08,4.02,4.02,4.62,6.34,25.33,7.85,26.92,3.25,3.42,3.36-1.07,4.14-2.79,1.35-2.99,5.04-18.36,5.89-18.97,1.67-1.21,12.71,2.11,13.61,5.14.69,2.31-11.96,44.82-13.92,46.23-1.82,1.31-11.72-1.23-13.67-2.89-5.05-4.29-6.65-14.85-7.97-20.75-3.23-3.3-5.87-.65-7.94,7.94Z"/>
  <path class="cls-1" d="M522.62,223.75c1.08,1.8-1.34,9.7-2.79,9.68-4.19-.06-7.19-4.98-10.3-5.63-3.52-.73-12.85,2.19-19.39,1.59-26.71-2.44-30.5-41.44-6.89-50.56,24.03-9.27,41.02,6.75,37.54,31.61-.48,3.44-4.3,8.12-3.84,9.94.53,2.12,5.12,2.46,5.67,3.37Z"/>
  <ellipse class="cls-1" cx="730" cy="252.01" rx="27.18" ry="27.19"/>
  <path class="cls-7" d="M632.21,120.03c.95.89,21.83,1.95,25.62,4.17,2.35,3.17-20.65,8.96-22.77,13.74-1.63,3.68,4.44,18.47,2.91,23.95-3.92-1.55-19.15-17.18-20.79-17.31-3.8-.29-21.75,11.79-24.84,9.34l11.61-22.52-17.55-19.14c6.78-.34,20.7,5.63,26.44,3.73,4.6-1.52,9.37-18.98,15.2-21.61,2.21,4.05,2.73,24.29,4.17,25.63Z"/>
  <path class="cls-7" d="M510.95,74.55c1.83,1.76,3.67,18.31,7.93,20.88,5,3.01,19.4-.2,25.82.97,1.26,4.62-1.13,3.33-2.52,4.54-17.57,15.31-20.77,5.55-11.37,35.15-1.84,1.99-17.19-12.01-22.84-11.81-4.53.16-20.04,14.12-22.79,11.81,1.11-4.73,8.28-19.03,7.58-22.57-1-5.07-18.85-11.31-21.47-17.1,6.74-1.27,22.66,2.13,27.82-.98,3.59-2.16,5.14-14.14,7.43-18.35.99-1.81,1.52-5.3,4.41-2.52Z"/>
  <path class="cls-14" d="M429.61,112.29c-2.16,5.65-17.93,15.65-17.89,20.8.02,3.1,12.88,20.11,11.94,20.86-6.56,1.28-21.64-9.96-25.98-9.02-6.05,1.31-13.46,14.21-19.65,16.98-1.65-7.54,4.88-19.42,1-25.85-1.67-2.76-18.6-7.9-22.84-9.91-.51-2.94,3.73-2.47,5.91-2.96,7.09-1.59,14.53-2.56,21.78-3.05l4.07-25.72c6.29,3.64,8.77,19.64,15.28,21.53,6.97,2.02,18.69-4.66,26.37-3.65Z"/>
  <path class="cls-1" d="M550.68,177.77c1.5,9.83-9.08,40.01,5.27,41.24,15.11,1.3,8.55-30.4,12.74-39.08l15.65,1.9c-3.78,22.12,3.29,51.87-28.67,49.55-8.62-.63-19.99-3.97-22.37-13.39-1.17-4.65-.21-38.38,1.51-40.19.72-.75,12.91.47,15.87-.03Z"/>
  <path class="cls-27" d="M451.43,179.76c1.24,1.12,5.87,29.32,6.01,32.87.95,24.98-36.1,30.23-45.42,15.51-2.71-4.29-9.7-38.8-8.16-40.37.49-.5,12.61-2.22,13.94-1.23,7.02,5.18-.21,39.39,16.66,36.96,15.7-2.26-.51-31.48,1.34-38.62.82-3.16,14.85-5.81,15.63-5.1Z"/>
  <path class="cls-5" d="M639.98,191.68c2.52,3.01,1.76,10.03-1.63,11.81-20.43-5.52-37.61,2.18-6.9,5.45l4.57,2.59c.49,3.25-1.65,6.73-2.03,9.94-.85.63-17.11-4.27-20.82-4.03-6.08.4-6.45,9.54-3.65,9.96,3.72.55,23.29,2.94,24.32,4.17,1.15,1.36.48,9.29-1.73,10.9-2.78,2.02-35.38-7.03-41.68-7.17,2.18-13.1,3.86-26.75,6.83-39.7,1.02-4.44.64-9.37,6.04-9.98,1.85-.21,34.21,5.19,36.68,6.07Z"/>
  <path class="cls-6" d="M292.67,239.33c-1.58,3.77,1.07,5.76,7.94,5.96,26.19,18.44-13.71,48.44-33.49,31.53l5.7-9.69c4-2.89.69-5.54-9.92-7.94-16.86-15.14,8.22-33.92,24.64-31.67,6.92.95,14,6.78,5.12,11.82Z"/>
  <path class="cls-8" d="M378.02,233.38l25.76-5.96c-.33,4.33,4.21,9.63.06,12.9-2.54,2-35.95,10.18-37.59,8.77l-12.06-49.46c4.8.93,11.53-4.31,14.89-.04s7.49,27.12,8.94,33.79Z"/>
  <path class="cls-32" d="M505.02,874.64c6.69,5.56,9.41,14.8,6.89,24.33-1.37,5.18-2.07,5.99-6.89,7.43-.3.57-1.39,1.28-1.98,1.99-6.06,3.18-13.28,3.67-19.85,1.99-.49-.35-5.69-6.87-5.81-7.32-.49-1.91,1.79-2.39,1.84-2.61,2.4-2.7,1.73-6.01-1.98-9.93-2.5-20.84,11.16-24.02,27.78-15.88Z"/>
  <path class="cls-10" d="M540.75,872.66c5.4,7.32,3.63,12.17,0,19.85-5.03,4-5.92,6.56,1.52,7.17,5.02,2.33,5.11,11.44-.53,10.69-8.44,2.05-20.13,2-28.78,0-4.74-8.13-.61-15.95,12.38-23.48l2.98-3.7c-33.72,15.64-12.85-26.79,12.43-10.55Z"/>
  <path class="cls-29" d="M540.75,872.66c-10.81-3.57-26.26-4.47-27.79,9.92,12.38,4.63,9.33-5.72,19.84-3.95,2.07,14.34-22.13,16.24-19.84,31.76h28.78c1.97,0,5.12-6.19,1.04-8.98-3.19-2.18-10-.49-13.93-.96l11.9-7.92c-.7,1.49-4.63,5.46-3.97,5.94,10.51-3.65,13.69,11.33,6.66,13.63-2.87.94-25.85.98-29.51.31-7.94-1.44-1.87-11.33-8.91-5.98,5.55-10.52,4.18-21.15,0-31.77,1.75.86,4.65,3.95,4.97,3.94,1.21-.06,3.68-6.11,6.15-7.71,5.96-3.83,20.24-4.14,24.6,1.78Z"/>
  <path class="cls-9" d="M574.48,907.4c-1,3.23-10.91,3.95-11.91,2.99-.86-.83.63-20.08-.01-23.82l-10.87,2.01c-5.48-9.61,9.72-10.67,14.25-17.59,2.33-1.48,8.54.53,8.54,2.66,0,7.18,1.48,29,0,33.75Z"/>
  <path class="cls-19" d="M465.33,870.67v39.71c-17.47,2.99-10.84-12.17-11.92-23.82-3.55-.32-10.24,5.5-9.95-1.02.32-7.08,14.37-17.13,21.88-14.87Z"/>
  <path class="cls-13" d="M320.71,264.88c-.52-.32-4.78-9.7-3.4-11.7l13.14-5.05c10.42,8.34-2.05,21.59-9.74,16.75Z"/>
  <path class="cls-20" d="M695.54,195.67c-5.82,15.3-10.67,4.88-17.79,2.81-3.5-1.01-9.38,3.63-9.98-3.8,8.14-11.71,16.39,2.74,27.77.99Z"/>
  <path class="cls-4" d="M272.82,267.12l2-3.95c-5.62.46-8.02-.48-11.92-3.99,6.38,4.8,35.58-5.94,31.58,6.76-3.43,10.88-15.83-2.22-21.66,1.18Z"/>
  <path class="cls-11" d="M639.98,191.68c6.63,2.34,2.03,12.75-1.24,13.74-4.15,1.25-16.87-5.19-22.57-3.8-.94,5.65,1.17,3.31,4.58,4.24,4.35,1.17,14.53.92,15.25,5.68-3.67-2.51-22.95-3.16-23.79-4.03-.56-.57.29-5.93-.04-7.87l26.66,2.01,1.13-9.96Z"/>
  <path class="cls-24" d="M292.67,239.33c.14.09-.5,2.76.59,3.32,2.31,1.2,4.52.64,7.35,2.64l-27.81,1.03c-5.56-10.69,8.38-5.67,12.99-5.39,2.03.13,6.06-2.13,6.89-1.59Z"/>
  <path class="cls-15" d="M477.24,890.52c6.18,5.86,11.57,8.39,19.83,3.97-.87,15.41-8.2,5.51-17.84,5.96,1.44-6.63-1.36-4.67-1.98-9.93Z"/>
  <path class="cls-22" d="M665.78,235.36l-3.94-1.99c.1,4.05-2.23,6.71-4,9.93l3.99-17.85c3.98.4,3.34,7.19,3.94,9.91Z"/>
  <path class="cls-29" d="M503.04,908.39c-4.75,5.61-14.19,5.98-19.85,1.99l19.85-1.99Z"/>
  <path class="cls-12" d="M560.59,400.14c-29.63-15.84-64.34-17.07-95.26-3.97-128.7,64.87-61.7,249.24,69.53,219.45,43.01-9.76,61.99-36.53,81.3-72.53-3.75-14.77,23.95-12.42,25.66-9.51l-3.83,15.46c-56.45,157.42-282.18,101.65-265.7-62.3,14.02-139.45,210.21-169.49,264.07-36.34,1.53,3.78,8.87,22.44,5.69,24.25-27.9,5.68-21.98-3.28-30.8-20.96-12.12-24.27-27.77-39.46-50.66-53.55Z"/>
  <path class="cls-16" d="M489.15,396.17v134.01c0,.21,2.77,2.98,2.98,2.98h122.05c.81,3.31-4.53,17.87-6.95,17.87h-135.95v-149.89c0-3.03,14.88-6.01,17.86-4.96Z"/>
  <path class="cls-26" d="M584.4,555.01c3.38,3.29-14.56,20.32-17.8,22.88-49.5,39.1-130.14,15.93-144.92-46.7,22.38-3.96,18.88,6.46,28.94,19.67,22.55,29.59,65.02,36.99,96.68,17.65,14.04-8.58,16.58-17.73,37.1-13.5Z"/>
  <path class="cls-25" d="M602.27,493.45c.22,5.71.16,30.02-3.83,32.89-2.29,1.65-13.54,1.52-16.11-.06-3.69-2.26,1.64-11.12.09-14.96h-86.33c-4.14,0-2.98-14.56-2.98-17.87h109.15Z"/>
  <path class="cls-18" d="M455.41,427.94l9.3-3.66c4.22,11.06-3.46,20.22-11.28,27.48-7.95,12.98-17.45,25.42-17.86,41.69h29.77v17.87h-46.64c-6.85,0,.52-30.84,1.97-35.75,4.56-15.4,19.41-42,34.74-47.64Z"/>
  <path class="cls-18" d="M525.86,410.07c29.08,3.92,64.7,34.38,70.45,63.52-22.3,3.93-19.54-6.21-29.81-18.8-7.08-8.69-31.95-26.85-42.62-26.85h-28.78v-17.87c9.71.92,21.35-1.27,30.76,0Z"/>
  <path class="cls-3" d="M553.65,519.26c4.23.35,10.93,3.91,16.86,2-.09,7.08-5.35,7.51-10.79,8.05-12.48,1.25-34.04-2.7-47.56-4.28-7.45-.87-9.39-5.76-4.16-5.76,14.58,0,31.44-1.17,45.65,0Z"/>
  <path class="cls-16" d="M560.59,400.14c-31.56-14.08-62.57-14.93-95.26-3.97,30.47-15.36,66.49-13.75,95.26,3.97Z"/>
  <path class="cls-16" d="M455.41,427.94l11.9-5.95c2.31,14.7-1.98,21.9-13.88,29.77,5.72-9.34,12.44-13.74,9.91-25.8-.46-.52-6.5,1.45-7.93,1.98Z"/>
  <path class="cls-16" d="M616.16,543.09c.48-2.26,1.37-10.98,2.19-11.7,1.71-1.49,21.17.64,25.58-.2-.21,6.45-3.97,12.35-5.95,17.86l1.99-15.87c-3.77.72-18.08-1.18-19.63.21-.39.35-2.52,6.61-4.19,9.71Z"/>
  <path class="cls-3" d="M540.73,406.09c-4.71-3.13-13.11-.16-15.94-1.12-.82-.28-9.55-5.76-7.85-8.79,6.25-2.08,9.72,3.87,13.82,5.08,3.58,1.06,10.25-3.76,9.97,4.83Z"/>
  <path class="cls-3" d="M596.29,449.77c-2.48,2.14-9.72-13.4-9.9-15.86,6.29-.82,14.24,12.11,9.9,15.86Z"/>
  <path class="cls-3" d="M602.28,469.62l-3.98-13.87c3.54-3.45,15.97,14.8,3.98,13.87Z"/>
  <path class="cls-23" d="M505.01,211.53l-11.88-1.97c3.84,8.23-.53,11.99-6.09,5.09-16.77-20.79,23.22-43.31,17.98-3.12Z"/>
  <path class="cls-21" d="M730.72,237.67c18.05-2.74,10.83,31.39-3.97,29.13s-7.96-27.32,3.97-29.13Z"/>
  <path class="cls-28" d="M487.33,878.8c3.75-6.02,15.78,5.52,6.75,11.7-6.63,2.22-8.88-8.29-6.75-11.7Z"/>
</svg>