<?xml version="1.0" encoding="utf-8"?>
<!-- Generator: Adobe Illustrator 28.3.0, SVG Export Plug-In . SVG Version: 6.00 Build 0)  -->
<svg version="1.1" id="Layer_1" xmlns="http://www.w3.org/2000/svg" xmlns:xlink="http://www.w3.org/1999/xlink" x="0px" y="0px"
	 viewBox="0 0 339.6 339.6" style="enable-background:new 0 0 339.6 339.6;" xml:space="preserve">
<style type="text/css">
	.st0{fill:#0B5A9D;}
	.st1{fill:#FDFDFD;}
	.st2{fill:#F9FBFC;}
</style>
<g>
	<path class="st0" d="M169.8,1.6c38.2,0,76.4,0,114.6-0.1c2.9,0,3.7,0.7,3.7,3.6c-0.1,58.6-0.1,117.2-0.1,175.8
		c0.1,47.9-19.7,86.3-55.3,117.3c-18.4,16-39.1,28.4-60.9,39.3c-1.2,0.6-2.2,1-3.6,0.3c-28.5-14.2-55.2-31-77-54.7
		c-26.4-28.8-39.8-62.7-39.8-101.9c0-58.7,0-117.4-0.1-176.1c0-3,0.9-3.6,3.7-3.6C93.4,1.6,131.6,1.6,169.8,1.6z M169.9,8.5
		c-36,0-72,0-107.9,0c-2.1,0-3.6-0.2-3.6,2.9c0.1,57.6-0.1,115.3,0.2,172.9c0.1,34.5,12.1,64.6,34.7,90.6
		c20.8,24,46.9,40.8,74.9,55.1c1.5,0.8,2.6,0.4,3.9-0.2c18.7-9.6,36.6-20.3,52.8-33.8c36.6-30.4,56.8-68.6,56.5-117.1
		c-0.4-55.4-0.1-110.8,0-166.3c0-3.2-0.6-4.3-4.1-4.2C241.4,8.5,205.6,8.5,169.9,8.5z"/>
	<path class="st1" d="M169.9,8.5c35.7,0,71.5,0.1,107.2-0.1c3.5,0,4.1,1,4.1,4.2c-0.1,55.4-0.4,110.8,0,166.3
		c0.3,48.4-19.8,86.6-56.5,117.1c-16.2,13.5-34.1,24.2-52.8,33.8c-1.3,0.7-2.4,1-3.9,0.2c-27.9-14.3-54.1-31.1-74.9-55.1
		c-22.5-26-34.5-56.1-34.7-90.6C58.3,126.6,58.5,69,58.4,11.4c0-3.1,1.5-2.9,3.6-2.9C97.9,8.5,133.9,8.5,169.9,8.5z M89.4,71.5
		c-0.5,0-0.9,0-1.4,0c-1.4-2.3-2.7-4.6-4.4-7.3c7.6,72.9,37.2,135.1,86.6,189.1c-2.8,0-4.3,0-5.9,0c-6.5,0.1-10.5,4-10.5,10.5
		c0,1.8-1,4.7,2,4.7c3,0,1.9-2.9,2-4.7c0.2-4.2,2.2-6.3,6.3-6.3c4-0.1,7.9-0.1,11.9,0c3.5,0.1,5.5,2.3,5.8,5.7
		c0.1,1.4,0,2.8,0.1,4.2c0.1,1,0.7,1.7,1.8,1.9c1.1,0.1,1.7-0.5,2.1-1.5c2.5-6.4-2.6-14.1-9.6-14.4c-1.9-0.1-3.8,0-6.6,0
		c24.2-26.9,44.2-55.5,59-87.5c14.8-32.1,23.6-65.9,27.6-101.9c-1.8,3.1-3.2,5.3-4.6,7.6c-0.5,0-0.9,0-1.4,0
		c0.1-2.7-1.9-1.5-2.9-1.5c-18.6-0.1-37.2-0.2-55.8-0.2c0-0.3,0-0.7,0-1c1.9-0.8,4.1-1.3,5.7-2.5c4.8-3.5,9-3,13.7,0.3
		c4,2.7,7.6,1.8,11-1.7c2.9-2.9,3.6-6.5,3-10.3c-1-6.6-2-13.1-3.1-19.6c-0.8-4.9-3.5-8.8-7.4-11.8c-6.3-4.9-12.7-3.1-15.6,4.4
		c-0.5,1.2-0.9,2.5-1,3.7c0,2.1-1.1,2.7-3,3c-14.6,2.3-29.2,2.5-43.8,0.6c-4.8-0.6-7.9-1.5-9.3-7.2c-1.8-7.8-8.9-9.4-15.3-4.5
		c-4,3-6.5,6.9-7.5,11.8c-0.9,4.6-1.6,9.2-2.3,13.8c-0.4,2.5-0.8,5.1-1,7.6c-0.3,4.4,1.6,7.9,5.3,10.3c3.5,2.4,6.8,1.5,10.1-0.6
		c1.3-0.8,2.6-1.5,3.9-2.3c0.9-0.6,1.7-0.8,2.9-0.3c3.6,1.8,7.3,3.5,11,5.2c0,0.4,0,0.8,0,1.2c-1.3,0-2.6,0.1-3.8,0.1
		c-17.6,0-35.1,0-52.7,0.1C91.3,70,89.2,68.8,89.4,71.5z M176.8,291.9c0,3.8,0.1,7.7,0,11.5c-0.1,2.7,0.5,3.2,3,1.8
		c15.1-8.3,29.6-17.6,42.7-28.9c19.2-16.7,34-36.3,41.2-61.1c1.3-4.3,1.2-4.3-3-5.3c-8.6-1.9-14.2-9.6-11.9-17.1
		c1-3.2,0.1-5.7-1.1-8.3c-1.4-3.1-3.2-3.6-5.6-1.1c-3.5,3.6-6.8,7.4-10,11.2c-1.8,2.1-2,4.6-0.8,7.2c1.1,2.4,3.3,2.5,5.4,2.4
		c2.9-0.2,2.6,1.1,2,3.1c-3.3,12.1-9,22.9-16.7,32.7c-11.6,14.8-26.2,26.1-42.1,35.8c-2.3,1.4-3.2,2.9-3,5.6
		C177,284.9,176.8,288.4,176.8,291.9z M110.2,198.3c-0.1-0.5-0.1-1.4-0.6-2c-3.6-5-7.6-9.7-12.2-13.8c-1.8-1.6-3.4-0.4-4.1,1.5
		c-1.3,3.3-3.4,6.4-2,10.3c0.4,1.3,0.1,2.8-0.2,4.1c-1.5,6.3-6.4,10.8-13.6,11.7c-2.7,0.3-2.8,1.2-2.2,3.4c2.5,8.7,5.7,17,10.2,24.8
		c17.5,30.9,44.9,50.7,75.2,67.3c2.1,1.1,2-0.1,2-1.6c0-7.6-0.1-15.1,0.1-22.7c0.1-2.6-0.7-4.1-3-5.6c-10.7-6.4-20.7-13.8-29.8-22.4
		c-13.4-12.7-23.7-27.4-28.8-45.4c-0.8-2.7-1-4.1,2.7-3.9C108.4,204.4,110.2,202.5,110.2,198.3z M264.1,206.3c2,0,2.3-0.3,1.7-2.3
		c-1.5-5.5-5.3-8.9-10.5-10.7c-3-1-3.8-0.3-3.6,2.9C252,201.5,258,206.4,264.1,206.3z M75.6,206.3c6.5-0.1,12.4-5.2,12.3-10.6
		c0-1.5,0.1-3.1-2.4-2.7c-5.1,0.9-10.5,5.9-11.7,10.9C73.3,205.7,73.7,206.6,75.6,206.3z"/>
	<path class="st0" d="M251.6,71.4c1.4-2.3,2.7-4.5,4.6-7.6c-4.1,36-12.8,69.8-27.6,101.9c-14.8,32-34.8,60.6-59,87.5
		c2.8,0,4.7-0.1,6.6,0c7,0.4,12.1,8,9.6,14.4c-0.4,0.9-1,1.6-2.1,1.5c-1.1-0.1-1.7-0.8-1.8-1.9c-0.1-1.4,0-2.8-0.1-4.2
		c-0.2-3.5-2.3-5.6-5.8-5.7c-4-0.1-7.9-0.1-11.9,0c-4.1,0.1-6,2.2-6.3,6.3c-0.1,1.8,0.9,4.7-2,4.7c-3,0-2-2.9-2-4.7
		c0-6.4,4-10.3,10.5-10.5c1.5,0,3,0,5.9,0c-49.4-54-79-116.2-86.6-189.1c1.7,2.8,3,5,4.4,7.3c0.2,0.4,0.3,0.9,0.5,1.3
		c26.7,50.1,53.4,100.1,80.2,150.2c0.3,0.5,0.4,1.4,1.5,1.4c0.5-0.9,1.1-1.9,1.7-2.9c19.4-36.3,38.8-72.6,58.1-109
		C237.2,98.8,244.4,85.1,251.6,71.4z M92.7,90.1c-0.3,0.1-0.5,0.2-0.8,0.3c0.3,1.7,0.7,3.5,1,5.2c11.2,56.6,37.5,105.5,75.2,148.7
		c1.5,1.7,2.2,1.4,3.4-0.1c2.6-3.3,5.4-6.4,8-9.7c31.8-38.6,54.3-81.9,65.3-130.9c1-4.3,2.2-8.6,1.8-13.2
		c-25.5,47.8-51.1,95.7-76.9,144C143.9,186,118.3,138,92.7,90.1z"/>
	<path class="st0" d="M148.8,68.6c-3.7-1.7-7.4-3.4-11-5.2c-1.1-0.6-1.9-0.4-2.9,0.3c-1.3,0.8-2.6,1.5-3.9,2.3
		c-3.3,2.1-6.6,3-10.1,0.6c-3.7-2.5-5.6-5.9-5.3-10.3c0.2-2.5,0.6-5.1,1-7.6c0.7-4.6,1.4-9.2,2.3-13.8c0.9-4.9,3.5-8.8,7.5-11.8
		c6.4-4.9,13.4-3.3,15.3,4.5c1.4,5.8,4.5,6.6,9.3,7.2c14.7,1.9,29.2,1.7,43.8-0.6c1.9-0.3,3-0.9,3-3c0-1.2,0.5-2.5,1-3.7
		c2.8-7.5,9.2-9.3,15.6-4.4c3.9,3,6.6,6.9,7.4,11.8c1.1,6.5,2.2,13.1,3.1,19.6c0.6,3.9-0.1,7.4-3,10.3c-3.4,3.4-7,4.4-11,1.7
		c-4.7-3.3-9-3.8-13.7-0.3c-1.6,1.2-3.8,1.7-5.7,2.5c-1.1-0.1-1.9,0.3-2.9,1.2c1.1-0.1,2-0.1,2.9-0.2c18.6,0,37.2,0.1,55.8,0.2
		c1,0,3.1-1.2,2.9,1.5c-0.6,0.9-1.2,1.7-1.7,2.6c-25.6,47.1-51.2,94.2-76.8,141.3c-0.6,1-0.7,2.9-2.2,2.7c-0.7-0.1-1.3-1.7-1.9-2.7
		c-19.2-35.3-38.3-70.5-57.4-105.8c-6.9-12.8-14-25.5-21-38.2c-0.1-2.7,1.9-1.5,2.9-1.5c17.6-0.1,35.1-0.1,52.7-0.1
		c1.3,0,2.6-0.1,3.8-0.1c1,0,2.1,0.1,3.8,0.2C150.9,69.2,150,68.5,148.8,68.6z M94.4,75c0.6,1.1,0.9,1.9,1.3,2.6
		c24,43.9,48,87.8,72,131.6c0.6,1,0.7,2.9,2.2,2.8c1.1-0.1,1.3-1.7,1.9-2.7c21.8-39.8,43.5-79.6,65.3-119.4
		c2.7-4.9,5.3-9.7,8.1-14.9C194.8,75,144.9,75,94.4,75z M170.1,68.1c10.6,0.1,20.4-2.9,29.8-7.6c1.5-0.7,2.5-1.3,1.6-3.4
		c-2.3-5.5-3.7-11.3-3.8-17.3c-0.1-1.6-0.7-1.9-2.2-1.7C179,40.9,162.4,41,145.8,38c-1.6-0.3-2.6-0.2-2.7,1.9
		c-0.2,5.9-1.6,11.5-3.8,16.9c-0.7,1.8-0.4,2.7,1.3,3.5C149.9,65.1,159.6,68.1,170.1,68.1z M137.4,50.2c0.5-2.6,1.2-4.7,1.4-6.9
		c0.4-5,1.1-10-0.8-14.8c-1.8-4.4-4.7-5.2-8.6-2.6c-3,2-5.2,4.7-6.1,8.3c-1.7,7.4-2.8,14.9-3.6,22.4c-0.3,2.8,1,5,3.3,6.5
		c2.2,1.6,4.2,0.5,6.1-0.7c1-0.6,2.1-1.1,3-1.7c2.3-1.6,2.8-4.9,1.1-8.2c-1.3-2.6-3.4-1.8-5.4-1.2c-0.4,0.1-0.9,0.4-1.3,0.5
		c-1.3,0.4-2.7,0.6-3.2-1c-0.5-1.6,0.7-2.2,1.9-2.8C129.9,45.7,133.1,46.2,137.4,50.2z M203.6,50.3c3.8-4.1,8.3-4.7,12.6-2
		c1.1,0.7,1.5,1.5,1.2,2.6c-0.4,1.2-1.5,1.4-2.6,1.1c-0.6-0.1-1.1-0.4-1.7-0.6c-2.1-0.6-4.3-1.7-5.7,1.3c-1.8,3.7-1.3,6.5,1.5,8.3
		c1.1,0.7,2.2,1.3,3.3,1.9c3.8,2.1,7.8,0.1,8.5-4.3c0.2-1,0.2-2.1,0-3.1c-1-6.8-2.1-13.6-3.2-20.3c-0.5-3.1-2.2-5.6-4.5-7.7
		c-2-1.8-4.2-3.7-7.1-2.6c-2.7,1.1-3.7,3.8-4,6.5C201.3,37.6,201.6,43.9,203.6,50.3z"/>
	<path class="st0" d="M176.8,291.9c0-3.5,0.2-7-0.1-10.5c-0.2-2.6,0.7-4.1,3-5.6c15.9-9.7,30.4-21,42.1-35.8
		c7.7-9.8,13.4-20.6,16.7-32.7c0.5-2,0.9-3.3-2-3.1c-2,0.1-4.3,0-5.4-2.4c-1.2-2.6-1-5.1,0.8-7.2c3.2-3.8,6.5-7.6,10-11.2
		c2.4-2.5,4.2-2,5.6,1.1c1.2,2.6,2,5.1,1.1,8.3c-2.2,7.5,3.3,15.2,11.9,17.1c4.3,0.9,4.3,0.9,3,5.3c-7.2,24.8-22,44.4-41.2,61.1
		c-13.1,11.3-27.6,20.6-42.7,28.9c-2.5,1.4-3.1,0.9-3-1.8C176.9,299.5,176.8,295.7,176.8,291.9z M195.9,281.5
		c1.1,0.9,2.1,1.8,3.2,2.6c1,0.7,1.7,2.5,3.5,1.3c1.7-1.2,0.4-2.4,0.3-3.7c-0.2-1.4-2.4-3.2-1.2-3.8c1.9-1,2.1,1.8,3.2,2.7
		c0.8,0.6,0.9,2.4,2.6,1.4c1.7-1.1,0.4-2-0.2-2.8c-1.9-2.8-3.8-5.6-5.7-8.3c-0.7-0.9-1.1-2.6-2.9-1.3c-1.3,0.9-2.8,1.5-1.8,3.8
		c1,2.1,2,4.4,2.2,7.3c-2.3-2-4.3-3.5-6.2-5.2c-1.5-1.4-2.5-0.1-3.6,0.6c-0.9,0.6-1.3,1.2-0.6,2.3c2.3,3.3,4.6,6.7,6.9,10
		c0.6,0.8,1.2,1,2,0.4c0.9-0.6,0.8-1.3,0.2-2.1c-1-1.4-1.9-2.9-2.8-4.4C195.4,282,195.7,281.7,195.9,281.5z M238.5,237.2
		c0.1-0.3,0.2-0.6,0.3-0.8c2.9,0,5.8,0,8.6,0c1.4,0,2.2-0.5,2.7-1.7c0.6-1.5-0.8-1.7-1.6-2.2c-3-1.8-6-3.6-9-5.4
		c-0.9-0.5-1.7-1.4-2.6,0c-0.9,1.4,0.2,1.8,1.1,2.4c1.9,1.2,3.8,2.3,5.6,3.5c-3.3,0.7-6.3,0.7-9.3,0.7c-1.3,0-1.9,0.7-2.4,1.7
		c-0.6,1.3,0.5,1.6,1.3,2c3.1,1.9,6.2,3.7,9.3,5.5c0.9,0.5,1.7,1.4,2.6,0c0.9-1.4-0.2-1.8-1.1-2.3
		C242.3,239.4,240.4,238.3,238.5,237.2z M255.8,221.4c0-4.1-4.1-7.6-8.8-7.5c-3.9,0.1-7.3,3.8-7.1,7.9c0.1,3.7,4.4,7.3,8.8,7.4
		C252.5,229.3,255.9,225.6,255.8,221.4z M219.7,271.6c-0.5-1.2-1.2-1.7-2.3-0.7c-1.2,0.9-2.4,1.8-3.5,2.9c-1.2,1.2-2.1,1.4-3.3-0.1
		c-1.2-1.5-0.6-2.2,0.6-3c1-0.8,1.9-1.7,3-2.4c0.8-0.6,0.9-1.3,0.2-2c-0.6-0.7-1.2-0.5-1.8,0c-1.1,0.9-2.2,1.7-3.2,2.7
		c-0.9,0.8-1.6,1.2-2.6,0.1c-1.1-1.3-0.5-2,0.5-2.8c0.5-0.3,1.1-0.6,1.3-1.1c0.7-1.4,4.2-1.5,2.4-3.6c-1.7-1.9-2.9,0.9-4.1,1.8
		c-5.4,4.2-5.3,4.3-0.9,9.6c1.8,2.1,3.2,5.8,5.5,5.8c2.2-0.1,4.4-3.1,6.5-4.9C218.6,273.1,219.5,272.7,219.7,271.6z M229,241.3
		c-2.1,0-3.2,1.9-2.2,3.7c2,3.6,4.2,7.2,6.4,10.8c0.3,0.6,0.5,1.8,1.6,1.1c0.7-0.5,1.4-1.2,1.1-2.3c-1.1-5.1-0.5-5.8,5.3-6.5
		c0.9-0.1,1.3-0.9,1.7-1.5c0.5-0.7,0.1-1-0.5-1.2C237.9,243.9,233.4,242.6,229,241.3z M195,290.2c-3.8-3-7.4-5.8-11-8.6
		c-0.9-0.7-1.7-1.4-3.1-0.6c-1.5,0.8-1.4,2-1.1,3.3c0.6,3.8,1.2,7.6,1.9,11.3c0.1,0.8-0.3,2.2,1.3,1.8c1.1-0.2,1.6-1,1.6-2.3
		c0.1-3.9,3.3-5.7,6.9-3.8C193,292.1,193.7,291.2,195,290.2z M229.5,262.4c-0.5-0.7-0.9-1.9-2.1-1c-0.6,0.5-1.3,1-1.8,1.7
		c-2.2,3-4,2.6-6.1-0.2c-1.3-1.7-3.1-3.1-4.6-4.8c-0.8-0.9-1.4-0.9-2.3-0.1c-1,0.9-0.6,1.5,0.1,2.2c1.5,1.5,2.9,3,4.4,4.5
		c5,5.2,5,5.2,10.2,0.2C228.1,264.2,229.1,263.6,229.5,262.4z M233,258.7c-0.3-0.4-0.4-0.7-0.6-1c-3.1-2.9-6.3-5.8-9.4-8.7
		c-0.9-0.8-1.4-0.2-2,0.4c-0.7,0.7-0.7,1.3,0.1,2c3.1,2.8,6.1,5.6,9.2,8.4c0.6,0.5,1.1,0.8,1.8,0.1
		C232.3,259.6,232.6,259.2,233,258.7z"/>
	<path class="st0" d="M110.2,198.3c0,4.2-1.8,6.1-6.4,5.8c-3.7-0.2-3.5,1.1-2.7,3.9c5.1,18,15.4,32.7,28.8,45.4
		c9.1,8.6,19.1,16,29.8,22.4c2.4,1.4,3.1,2.9,3,5.6c-0.2,7.6-0.1,15.1-0.1,22.7c0,1.4,0.1,2.7-2,1.6c-30.3-16.5-57.7-36.4-75.2-67.3
		c-4.4-7.8-7.7-16.2-10.2-24.8c-0.6-2.3-0.5-3.1,2.2-3.4c7.2-0.9,12.1-5.4,13.6-11.7c0.3-1.4,0.6-2.9,0.2-4.1c-1.3-3.9,0.7-7,2-10.3
		c0.7-1.8,2.4-3,4.1-1.5c4.6,4.1,8.6,8.8,12.2,13.8C110.1,196.9,110.1,197.9,110.2,198.3z M101.3,235.7c2.5-2.9,2.6-5.9,0.4-9
		c-0.5-0.7-0.9-1.4-1.1-2.1c-0.6-1.6-1.5-1.7-2.9-0.9c-2.9,1.7-5.9,3.1-8.9,4.8c-1.1,0.6-3.1,0.7-1.9,2.8c1.1,1.9,2.2,0.3,3.2-0.1
		c1.2-0.4,2.5-1.9,3.3,0.3C94.8,235.3,97.6,236.4,101.3,235.7c-0.5,1.1-1.8,1.2-2.7,1.9c-3.6,2.6-4.6,6.2-2.6,9.7
		c2.1,3.7,5.3,4.8,9.4,3.2c0.7-0.3,1.3-0.5,2-0.1c-0.5,2.1-2.4,3.1-3.8,4.4c-0.8,0.8-0.7,1.3,0,2c0.6,0.6,1.2,1.2,2,0.3
		c0.6-0.6,1.2-1.1,1.8-1.6c0.7-0.5,1.2-1.8,2.3-1.1c1.1,0.6,1.4,1.8,1,3.1c-0.3,1.1-0.6,2.2-0.9,3.4c-0.6,2.5-0.6,2.5,1.8,4.4
		c0.2-0.3,0.4-0.6,0.5-0.9c0.9-2.8,0.4-7,5.6-5.9c0.3,0.1,0.9-0.3,1.2-0.7c1.8-2.4,2.6,0,3.7,0.8c1.9,1.3,0.7,2.3-0.3,3.3
		c-1.8,2-3.6,4-5.4,5.9c-0.8,0.8-1.3,1.6-0.2,2.6c1.2,1.1,1.8,0.2,2.5-0.6c0.8-0.9,1.6-1.7,2.4-2.6c1.3-1.5,2.4-3.2,4-4.3
		c2.2-1.5,2.8,2.3,4.9,2c0.8,1.3-0.5,1.8-1,2.4c-1.8,2.3-3.6,4.5-5.5,6.7c-0.7,0.9-1.3,1.5-0.1,2.5c1.2,1,1.8,0.2,2.5-0.6
		c2.1-2.5,4.2-4.9,6.2-7.5c0.7-0.9,2.5-1.5,1.4-3.4c-1.2-1.9-2.3,0.5-3.5-0.1c0.4-1.8-0.1-3.4-1.8-4.3c-2.6-1.4-3.5-5.7-7.6-4.6
		c-0.1,0-0.5-0.7-0.5-1.1c-0.4-3.8-3.7-5.7-5.8-8.4c-1.1-1.3-1.8,0-2.6,0.5c-1.2,0.7-1.9,2.6-3.8,1.7c3.3-4.4,3.1-8.1-0.4-11.4
		C106.1,235.6,103.7,235.8,101.3,235.7z M148.6,293c4,0.1,8-4.1,8-8.5c0.1-3.8-3.3-7.3-7.3-7.5c-3.9-0.2-8,4-8.2,8.4
		C140.9,289.4,144.5,292.9,148.6,293z M91.5,217.6c0.1-0.8-0.5-2.2,1-2.4c1.7-0.2,1.9,1.4,2.4,2.5c0.2,0.7-0.1,1.3-0.6,1.9
		c-0.9,1.2-0.3,2.5,0.7,2.9c1.1,0.4,1.8-0.8,2.2-1.8c1.2-3,0-5.5-2.1-7.6c-2.3-2.3-5.6-1.1-6.5,2c-0.5,1.6,0.1,3.2,0.1,4.9
		c0,1.2,0.5,2.8-1.5,2.9c-1.6,0.1-2.1-1.2-2.5-2.5c-0.4-1.2,0-2.3,0.8-3.2c0.9-0.9,0.3-1.8-0.4-2.4c-1-0.9-1.7,0.2-2.2,0.8
		c-2.5,2.9-0.5,9.2,3.2,10.1c2.9,0.8,5.5-1,5.7-4C91.9,220.6,91.6,219.2,91.5,217.6z M135.4,278.9c-0.2-0.1-0.4-0.2-0.6-0.4
		c0.9-3,1.8-6,2.7-8.9c0.5-1.5-0.4-2.3-1.5-2.7c-1.5-0.5-1.2,1-1.5,1.7c-1.1,3.7-2.2,7.3-3.3,11c-0.3,1.1-0.8,2.1,0.5,3
		c1.3,1,2.3,0.6,3.4-0.2c3-2.1,6.2-4.2,9.2-6.3c0.7-0.5,2.3-0.7,1.3-2.2c-0.9-1.3-2-1.1-3.3-0.2
		C140.1,275.6,137.7,277.2,135.4,278.9z"/>
	<path class="st2" d="M89.4,71.5c7,12.7,14,25.4,21,38.2c19.2,35.2,38.3,70.5,57.4,105.8c0.5,1,1.2,2.6,1.9,2.7
		c1.5,0.2,1.6-1.7,2.2-2.7c25.6-47.1,51.2-94.2,76.8-141.3c0.5-0.9,1.1-1.8,1.7-2.6c0.5,0,0.9,0,1.4,0c-7.2,13.7-14.4,27.3-21.7,41
		c-19.4,36.3-38.7,72.6-58.1,109c-0.5,1-1.1,2-1.7,2.9c-1.1,0-1.2-0.8-1.5-1.4c-26.7-50-53.5-100.1-80.2-150.2
		c-0.2-0.4-0.3-0.9-0.5-1.3C88.4,71.4,88.9,71.4,89.4,71.5z"/>
	<path class="st0" d="M264.1,206.3c-6,0.1-12-4.8-12.4-10.1c-0.2-3.2,0.6-3.9,3.6-2.9c5.3,1.8,9.1,5.2,10.5,10.7
		C266.4,206,266.1,206.2,264.1,206.3z"/>
	<path class="st0" d="M75.6,206.3c-1.9,0.3-2.3-0.5-1.8-2.4c1.2-5,6.6-10,11.7-10.9c2.5-0.4,2.4,1.2,2.4,2.7
		C88,201.1,82.1,206.2,75.6,206.3z"/>
	<path class="st2" d="M148.8,68.6c1.2-0.1,2.1,0.6,3.8,1.3c-1.7-0.1-2.7-0.1-3.8-0.2C148.8,69.4,148.8,69,148.8,68.6z"/>
	<path class="st2" d="M191.5,69.7c-0.9,0.1-1.8,0.1-2.9,0.2c0.9-0.9,1.8-1.3,2.9-1.2C191.5,69.1,191.5,69.4,191.5,69.7z"/>
	<path class="st2" d="M92.7,90.1c25.6,47.9,51.2,95.9,77.1,144.4c25.8-48.4,51.3-96.2,76.9-144c0.5,4.7-0.8,8.9-1.8,13.2
		c-11.1,49-33.5,92.3-65.3,130.9c-2.7,3.2-5.4,6.4-8,9.7c-1.2,1.5-2,1.8-3.4,0.1c-37.6-43.2-64-92.1-75.2-148.7
		c-0.3-1.7-0.7-3.5-1-5.2C92.2,90.3,92.5,90.2,92.7,90.1z"/>
	<path class="st2" d="M94.4,75c50.4,0,100.3,0,150.8,0c-2.8,5.2-5.5,10-8.1,14.9c-21.7,39.8-43.5,79.6-65.3,119.4
		c-0.5,1-0.8,2.7-1.9,2.7c-1.5,0.1-1.6-1.8-2.2-2.8c-24-43.9-48-87.7-72-131.6C95.4,76.8,95,76.1,94.4,75z M230,83.3
		c-19.6,3-38.6,6-57.7,8.8c-2.5,0.4-3.2,1.1-3.2,3.7c0.1,26.4,0.1,52.9,0.1,79.3c0,0.9,0,1.9,0,2.8c0.2,2.6,1.5,4.2,4.1,4.2
		c2.5,0,3.7-1.6,4-4c0.1-1,0-2.1,0-3.1c0-15.6,0-31.2,0-46.8c0-1.4-0.7-3.2,1.9-3.1c6.3,0.1,12.5,0,19.3,0c-0.7,1.4-1.1,2.5-1.7,3.5
		c-4.2,8-8.5,16-12.7,24.1c-1.7,3.3-0.4,6.4,2.7,6.6c2.3,0.2,3.6-1.3,4.5-3.1c4.4-8.4,8.9-16.9,13.4-25.3
		C213.1,115.1,221.4,99.5,230,83.3z M165.4,187.5c0-16.2,0-32.4,0-48.6c0-1.6-0.6-2.5-1.9-3.4c-3.6-2.3-7-5.1-10.8-7.1
		c-9.9-5.1-17-12.6-21.2-23c-1.5-3.7-3.7-7.1-5.7-10.9c0.8-0.1,1.1-0.3,1.5-0.2c9.3,1.4,18.6,2.9,27.9,4.3c1.9,0.3,1.7,1.5,1.7,2.8
		c0,4.3,0,8.6,0,12.9c0,2.7,1.1,4.6,4,4.6c2.9,0,4-1.9,4-4.7c0-6.5-0.1-13,0-19.6c0-2.2-0.6-2.9-2.8-3.2
		c-11.2-1.6-22.3-3.5-33.4-5.2c-5.8-0.9-11.6-1.7-17.6-2.7c0.2,0.9,0.3,1.3,0.4,1.5c6.9,12.8,13.9,25.6,20.8,38.4
		c0.7,1.3,1.8,2.1,2.9,2.9c6.5,4.3,13,8.6,19.5,12.9c0.9,0.6,2.5,1,2.5,2.3c0.1,5.1,0.1,10.2,0.1,16.4c-2.8-4.8-5.1-8.7-7.4-12.6
		c-1.3-2.2-3.3-3-5.6-1.7c-2,1.1-2.5,3-1.6,5.1c0.3,0.6,0.6,1.2,1,1.8c6.5,11,12.9,22.1,19.5,33.1
		C163.8,185,164.2,186.7,165.4,187.5z"/>
	<path class="st2" d="M170.1,68.1c-10.5,0-20.2-3-29.4-7.7c-1.7-0.9-2.1-1.8-1.3-3.5c2.3-5.4,3.6-11.1,3.8-16.9
		c0.1-2.1,1-2.2,2.7-1.9c16.6,2.9,33.1,2.9,49.7,0.1c1.5-0.3,2.1,0.1,2.2,1.7c0.2,6,1.6,11.8,3.8,17.3c0.9,2.1-0.2,2.7-1.6,3.4
		C190.5,65.2,180.7,68.2,170.1,68.1z M156.7,62.9c9.6,0.6,16.3-7.4,13.9-15.1c-0.9-3-2.9-4.8-6-4.9c-3.2-0.1-5.2,1.7-6.3,4.6
		c-1.7,4.8,0.3,7.5,6.6,8.7C163.8,59.9,160.5,60.9,156.7,62.9z M192.9,40.2c-8.6,2.8-11.5,12.9-6.3,19c2.2,2.6,5.9,3.2,8.4,1.4
		c2.8-2,3.7-5.7,2-9c-1.5-3.1-3.8-3.8-7.6-2.3c-0.4,0.2-0.8,0.5-1.2-0.1C187.9,45.7,190.4,43.4,192.9,40.2z M175.3,54.9
		c0.5,0.3,0.7,0.4,0.9,0.4c2.1,0.1,3.3,1.2,3.5,3.2c0.2,1.8,0.5,3.9-1.2,5.1c-1.9,1.3-2.8-0.7-4.1-1.6c-0.9-0.7-2-0.9-2.7,0.2
		c-0.8,1.3,0.1,2.2,1.1,2.9c2.5,1.6,7.3,0.4,9.4-2.3c2.2-2.9,2.1-7-0.8-9c-1.5-1.1-1.5-1.6-0.4-2.8c1.1-1.2,1.5-2.6,0.6-4.2
		c-1-1.6-2.5-2-4.2-1.9c-2.5,0.2-4,1.7-5.3,4.8c2.4-1.1,4-3.5,5.5-1.5C179.9,50.9,177,52.7,175.3,54.9z M151.6,60.8
		c-1.8-3-0.4-4.9,0.4-6.9c1.5-3.5,3-7,4.6-10.5c0.7-1.5,0.4-2.4-1.4-2c-2.2,0.5-4.3,1.2-6.6,1.9c0.7,1.5,2.4,0.2,2.9,1.5
		c-3.7,10.3-4.4,11.4-8.5,12C146.1,58.1,148.3,59.2,151.6,60.8z"/>
	<path class="st2" d="M137.4,50.2c-4.3-4-7.5-4.5-12.1-2.3c-1.2,0.6-2.5,1.2-1.9,2.8c0.5,1.6,1.9,1.4,3.2,1c0.4-0.1,0.9-0.4,1.3-0.5
		c2-0.6,4.1-1.4,5.4,1.2c1.6,3.3,1.2,6.6-1.1,8.2c-1,0.6-2,1.1-3,1.7c-1.9,1.2-3.9,2.3-6.1,0.7c-2.3-1.6-3.6-3.8-3.3-6.5
		c0.8-7.5,1.9-15,3.6-22.4c0.8-3.5,3.1-6.2,6.1-8.3c3.9-2.6,6.8-1.8,8.6,2.6c1.9,4.8,1.2,9.9,0.8,14.8
		C138.6,45.5,138,47.7,137.4,50.2z"/>
	<path class="st2" d="M203.6,50.3c-2-6.4-2.3-12.6-1.6-18.9c0.3-2.7,1.3-5.4,4-6.5c2.9-1.2,5.1,0.8,7.1,2.6c2.3,2.1,4,4.6,4.5,7.7
		c1.2,6.8,2.2,13.5,3.2,20.3c0.2,1,0.1,2.1,0,3.1c-0.7,4.4-4.7,6.3-8.5,4.3c-1.1-0.6-2.3-1.2-3.3-1.9c-2.8-1.8-3.3-4.6-1.5-8.3
		c1.4-2.9,3.6-1.8,5.7-1.3c0.6,0.2,1.1,0.4,1.7,0.6c1.1,0.3,2.2,0.1,2.6-1.1c0.4-1.1-0.1-1.9-1.2-2.6
		C211.9,45.6,207.4,46.2,203.6,50.3z"/>
	<path class="st2" d="M195.2,282.2c0.9,1.5,1.9,2.9,2.8,4.4c0.5,0.8,0.6,1.4-0.2,2.1c-0.9,0.6-1.5,0.4-2-0.4
		c-2.3-3.3-4.6-6.7-6.9-10c-0.7-1-0.4-1.7,0.6-2.3c1.1-0.7,2.1-2,3.6-0.6c1.9,1.7,3.9,3.3,6.2,5.2c-0.2-3-1.3-5.2-2.2-7.3
		c-1-2.2,0.5-2.8,1.8-3.8c1.8-1.3,2.2,0.4,2.9,1.3c2,2.7,3.9,5.5,5.7,8.3c0.6,0.9,1.8,1.8,0.2,2.8c-1.7,1.1-1.8-0.7-2.6-1.4
		c-1.1-1-1.4-3.8-3.2-2.7c-1.2,0.7,1,2.4,1.2,3.8c0.2,1.3,1.5,2.5-0.3,3.7c-1.8,1.2-2.4-0.6-3.5-1.3c-1.1-0.8-2.2-1.7-3.2-2.6
		c-0.4-0.4-0.9-0.5-1.4-0.2C194.7,281.6,195,281.9,195.2,282.2z"/>
	<path class="st2" d="M238.5,237.2c1.9,1.1,3.8,2.2,5.6,3.4c0.8,0.5,2,0.9,1.1,2.3c-0.9,1.4-1.8,0.5-2.6,0c-3.1-1.8-6.2-3.7-9.3-5.5
		c-0.8-0.5-1.9-0.7-1.3-2c0.4-1,1.1-1.7,2.4-1.7c3,0,6,0,9.3-0.7c-1.9-1.2-3.8-2.4-5.6-3.5c-0.9-0.6-2-1-1.1-2.4
		c0.9-1.4,1.8-0.5,2.6,0c3,1.8,6,3.5,9,5.4c0.8,0.5,2.2,0.7,1.6,2.2c-0.5,1.2-1.3,1.8-2.7,1.7c-2.9-0.1-5.8,0-8.6,0
		C238.7,236.6,238.6,236.9,238.5,237.2z"/>
	<path class="st2" d="M255.8,221.4c0,4.3-3.3,7.9-7.2,7.8c-4.4-0.1-8.6-3.7-8.8-7.4c-0.2-4.1,3.2-7.8,7.1-7.9
		C251.7,213.8,255.8,217.2,255.8,221.4z M253.1,222.1c-0.1-2.8-3.3-5.4-6.3-5.2c-2.7,0.1-3.9,1.8-4.1,4.3c-0.1,2.4,3.2,4.9,6.3,4.8
		C251.7,225.9,252.9,224.3,253.1,222.1z"/>
	<path class="st2" d="M219.7,271.6c-0.1,1.1-1.1,1.5-1.8,2.1c-2.2,1.8-4.3,4.8-6.5,4.9c-2.3,0.1-3.7-3.7-5.5-5.8
		c-4.5-5.3-4.5-5.4,0.9-9.6c1.1-0.9,2.4-3.7,4.1-1.8c1.8,2.1-1.7,2.3-2.4,3.6c-0.2,0.5-0.9,0.8-1.3,1.1c-1.1,0.8-1.7,1.5-0.5,2.8
		c1,1.1,1.7,0.7,2.6-0.1c1-0.9,2.2-1.8,3.2-2.7c0.6-0.5,1.2-0.7,1.8,0c0.7,0.8,0.6,1.4-0.2,2c-1,0.8-1.9,1.7-3,2.4
		c-1.2,0.9-1.8,1.5-0.6,3c1.3,1.5,2.1,1.3,3.3,0.1c1.1-1,2.3-1.9,3.5-2.9C218.5,269.9,219.2,270.4,219.7,271.6z"/>
	<path class="st2" d="M229,241.3c4.3,1.3,8.9,2.6,13.4,4c0.6,0.2,1,0.5,0.5,1.2c-0.5,0.6-0.8,1.4-1.7,1.5c-5.8,0.7-6.4,1.4-5.3,6.5
		c0.2,1.1-0.4,1.8-1.1,2.3c-1.1,0.7-1.3-0.5-1.6-1.1c-2.2-3.6-4.3-7.1-6.4-10.8C225.9,243.2,227,241.3,229,241.3z M230.5,245.4
		c1.1,1.1,0.8,3.4,2.8,3.4c0.7,0,1.8-1.4,1.5-2C234,245.1,232.2,245.3,230.5,245.4z"/>
	<path class="st2" d="M195,290.2c-1.3,1-2.1,1.9-3.6,1.1c-3.6-1.9-6.7-0.1-6.9,3.8c0,1.3-0.6,2.1-1.6,2.3c-1.5,0.3-1.2-1.1-1.3-1.8
		c-0.7-3.8-1.2-7.6-1.9-11.3c-0.2-1.3-0.3-2.4,1.1-3.3c1.4-0.8,2.1-0.1,3.1,0.6C187.6,284.4,191.3,287.2,195,290.2z M183.2,285
		c0.1,1.7-0.6,3.5,1.1,4.4c0.6,0.3,2.2-0.5,2.2-1.3C186.5,286.2,184.4,286,183.2,285z"/>
	<path class="st2" d="M229.5,262.4c-0.3,1.2-1.4,1.8-2.2,2.6c-5.2,5-5.2,5-10.2-0.2c-1.5-1.5-2.9-3-4.4-4.5
		c-0.7-0.7-1.1-1.3-0.1-2.2c0.9-0.8,1.5-0.8,2.3,0.1c1.5,1.6,3.3,3,4.6,4.8c2.1,2.7,3.9,3.2,6.1,0.2c0.5-0.6,1.1-1.2,1.8-1.7
		C228.6,260.5,228.9,261.7,229.5,262.4z"/>
	<path class="st2" d="M233,258.7c-0.3,0.4-0.7,0.9-1,1.3c-0.6,0.7-1.2,0.4-1.8-0.1c-3-2.8-6.1-5.7-9.2-8.4c-0.8-0.7-0.8-1.3-0.1-2
		c0.6-0.6,1.1-1.2,2-0.4c3.1,2.9,6.3,5.8,9.4,8.7C232.6,258,232.7,258.3,233,258.7z"/>
	<path class="st2" d="M130.7,265c-2.1,0.3-2.6-3.5-4.9-2c-1.6,1.1-2.7,2.9-4,4.3c-0.8,0.9-1.6,1.7-2.4,2.6c-0.7,0.8-1.3,1.7-2.5,0.6
		c-1.1-1-0.6-1.8,0.2-2.6c1.8-2,3.6-4,5.4-5.9c1-1.1,2.2-2,0.3-3.3c-1.1-0.8-1.9-3.1-3.7-0.8c-0.3,0.3-0.8,0.7-1.2,0.7
		c-5.1-1.1-4.6,3-5.6,5.9c-0.1,0.3-0.3,0.6-0.5,0.9c-2.4-1.8-2.4-1.8-1.8-4.4c0.3-1.1,0.6-2.3,0.9-3.4c0.3-1.3,0.1-2.4-1-3.1
		c-1.1-0.6-1.6,0.6-2.3,1.1c-0.7,0.5-1.3,1-1.8,1.6c-0.9,0.8-1.4,0.3-2-0.3c-0.7-0.7-0.8-1.3,0-2c1.4-1.3,3.3-2.3,3.8-4.4
		c-0.7-0.5-1.3-0.2-2,0.1c-4.2,1.6-7.4,0.5-9.4-3.2c-2-3.5-1-7.1,2.6-9.7c0.9-0.7,2.2-0.8,2.7-1.9l-0.1,0.1c2.4,0.1,4.9-0.1,6.9,1.8
		c3.5,3.2,3.6,6.9,0.4,11.4c1.9,0.9,2.6-0.9,3.8-1.7c0.8-0.5,1.5-1.9,2.6-0.5c2.1,2.7,5.4,4.6,5.8,8.4c0,0.4,0.4,1.1,0.5,1.1
		c4.2-1.2,5,3.2,7.6,4.6C130.5,261.6,131,263.2,130.7,265L130.7,265z M101.3,248.3c3.3,0,6.8-2.9,6.7-5.2c-0.1-2.5-1.5-4.1-4.1-4.2
		c-2.8-0.1-6.3,3.1-6,5.6C98.2,246.8,99.5,248.2,101.3,248.3z M117.5,254.2c0-1.2-2.7-4.4-3.4-4.1c-1,0.4-2.6,1.1-2.1,2.3
		c0.6,1.6,1.8,3.3,3.9,3.5C116.8,256,117.4,255.2,117.5,254.2z"/>
	<path class="st2" d="M148.6,293c-4.1-0.1-7.6-3.7-7.5-7.6c0.2-4.3,4.3-8.6,8.2-8.4c4,0.2,7.3,3.7,7.3,7.5
		C156.5,288.9,152.6,293.1,148.6,293z M149.9,280.1c-2.7-0.1-5.7,2.9-5.7,5.8c0,2.5,1.3,4.1,4,4.3c2.4,0.2,5.4-3,5.5-5.8
		C153.7,281.7,152.1,280.5,149.9,280.1z"/>
	<path class="st2" d="M91.5,217.6c0.1,1.6,0.4,3,0.3,4.4c-0.2,3-2.8,4.7-5.7,4c-3.7-1-5.7-7.2-3.2-10.1c0.6-0.7,1.2-1.7,2.2-0.8
		c0.7,0.6,1.3,1.5,0.4,2.4c-0.9,0.9-1.3,2-0.8,3.2c0.4,1.2,1,2.6,2.5,2.5c1.9-0.1,1.5-1.7,1.5-2.9c0-1.6-0.6-3.2-0.1-4.9
		c0.9-3.1,4.2-4.3,6.5-2c2.1,2,3.3,4.5,2.1,7.6c-0.4,1-1.1,2.2-2.2,1.8c-1-0.4-1.6-1.7-0.7-2.9c0.4-0.6,0.8-1.2,0.6-1.9
		c-0.4-1.2-0.7-2.8-2.4-2.5C91,215.4,91.6,216.8,91.5,217.6z"/>
	<path class="st2" d="M101.3,235.7c-3.8,0.7-6.5-0.3-8-4.1c-0.9-2.2-2.1-0.7-3.3-0.3c-1,0.3-2.2,2-3.2,0.1c-1.2-2.1,0.9-2.2,1.9-2.8
		c2.9-1.6,6-3.1,8.9-4.8c1.4-0.8,2.3-0.7,2.9,0.9c0.3,0.8,0.7,1.5,1.1,2.1C103.9,229.9,103.8,232.8,101.3,235.7
		C101.3,235.7,101.3,235.7,101.3,235.7z M98.1,227c-1.1,0.7-3,0.8-2.9,2.1c0.1,1.5,1,3.2,2.8,3.5c1.3,0.2,2.3-0.7,2.2-2
		C100.2,229.3,99.7,227.7,98.1,227z"/>
	<path class="st2" d="M135.4,278.9c2.3-1.7,4.7-3.3,7-5.1c1.2-0.9,2.4-1.1,3.3,0.2c1,1.4-0.6,1.7-1.3,2.2c-3,2.2-6.1,4.2-9.2,6.3
		c-1.1,0.8-2.1,1.2-3.4,0.2c-1.3-1-0.8-1.9-0.5-3c1.1-3.7,2.1-7.4,3.3-11c0.2-0.7,0-2.2,1.5-1.7c1.1,0.4,2,1.2,1.5,2.7
		c-1,3-1.8,5.9-2.7,8.9C135,278.7,135.2,278.8,135.4,278.9z"/>
	<path class="st2" d="M130.6,265c1.1,0.6,2.3-1.8,3.5,0.1c1.1,1.8-0.7,2.4-1.4,3.4c-1.9,2.6-4.1,5-6.2,7.5c-0.7,0.8-1.3,1.6-2.5,0.6
		c-1.2-1-0.6-1.7,0.1-2.5c1.9-2.2,3.8-4.4,5.5-6.7C130.1,266.7,131.5,266.3,130.6,265C130.7,265,130.6,265,130.6,265z"/>
	<path class="st0" d="M230,83.3c-8.6,16.2-16.9,31.8-25.2,47.4c-4.5,8.4-8.9,16.9-13.4,25.3c-1,1.9-2.2,3.4-4.5,3.1
		c-3.1-0.3-4.4-3.4-2.7-6.6c4.2-8,8.5-16,12.7-24.1c0.5-1,1-2,1.7-3.5c-6.7,0-13,0.1-19.3,0c-2.6,0-1.9,1.8-1.9,3.1
		c0,15.6,0,31.2,0,46.8c0,1,0.1,2.1,0,3.1c-0.2,2.4-1.5,4-4,4c-2.6,0-4-1.7-4.1-4.2c-0.1-0.9,0-1.9,0-2.8c0-26.4,0-52.9-0.1-79.3
		c0-2.6,0.7-3.3,3.2-3.7C191.4,89.3,210.5,86.3,230,83.3z M214.6,94.5c-0.2-0.1-0.4-0.3-0.6-0.3c-11.6,1.8-23.2,3.7-34.7,5.5
		c-1.7,0.3-1.9,1.2-1.9,2.6c0.1,4.1,0.1,8.1,0,12.2c-0.1,1.9,0.7,2.3,2.4,2.3c7.1-0.1,14.2,0,21.3-0.1c0.9,0,1.9,0.4,2.5-0.7
		C207.1,108.9,211.5,102.1,214.6,94.5c0-0.2,0.2-0.3,0.3-0.4c-0.1,0-0.2,0-0.3,0C214.6,94.2,214.6,94.4,214.6,94.5z"/>
	<path class="st0" d="M165.4,187.5c-1.2-0.8-1.6-2.4-2.4-3.8c-6.5-11-13-22.1-19.5-33.1c-0.4-0.6-0.7-1.2-1-1.8
		c-0.9-2.1-0.4-4,1.6-5.1c2.4-1.3,4.3-0.4,5.6,1.7c2.3,3.8,4.6,7.8,7.4,12.6c0-6.2,0.1-11.3-0.1-16.4c0-1.2-1.6-1.6-2.5-2.3
		c-6.5-4.3-13-8.6-19.5-12.9c-1.2-0.8-2.2-1.6-2.9-2.9c-6.9-12.8-13.8-25.6-20.8-38.4c-0.2-0.3-0.2-0.6-0.4-1.5
		c6.1,0.9,11.9,1.8,17.6,2.7c11.1,1.8,22.3,3.6,33.4,5.2c2.3,0.3,2.9,1.1,2.8,3.2c-0.1,6.5,0,13,0,19.6c0,2.7-1.1,4.6-4,4.7
		c-2.9,0-4-1.9-4-4.6c0-4.3,0-8.6,0-12.9c0-1.3,0.1-2.5-1.7-2.8c-9.3-1.4-18.6-2.9-27.9-4.3c-0.3,0-0.7,0.1-1.5,0.2
		c2,3.7,4.2,7.1,5.7,10.9c4.2,10.4,11.3,17.8,21.2,23c3.8,2,7.2,4.7,10.8,7.1c1.3,0.8,1.9,1.7,1.9,3.4
		C165.4,155,165.4,171.2,165.4,187.5z"/>
	<path class="st0" d="M156.7,62.9c3.8-1.9,7.1-3,8.2-6.6c-6.3-1.2-8.4-3.9-6.6-8.7c1.1-2.9,3.1-4.7,6.3-4.6c3.2,0.1,5.1,1.9,6,4.9
		C173,55.5,166.3,63.4,156.7,62.9z M167.1,48.8c0-1,0-1.6,0-2.1c-0.1-1.3-0.6-2.4-2-2.3c-1.9,0-2.2,1.8-2.6,3.2
		c-0.5,2.1-1.5,4.3,0.1,6.3c0.6,0.7,1.8,0.7,2.6,0.2C167.2,52.7,166.8,50.4,167.1,48.8z"/>
	<path class="st0" d="M192.9,40.2c-2.5,3.1-5,5.4-4.7,9c0.4,0.6,0.8,0.3,1.2,0.1c3.8-1.5,6.1-0.8,7.6,2.3c1.6,3.3,0.8,7-2,9
		c-2.6,1.8-6.2,1.2-8.4-1.4C181.4,53.1,184.3,43.1,192.9,40.2z M194.2,56.9c-1-1.9,0.2-5.6-3.5-6.3c-1.4-0.3-2.4,0.9-2.3,2.7
		c0.2,3.6,2.1,7.2,4,6.9C194,59.9,194.2,58.7,194.2,56.9z"/>
	<path class="st0" d="M175.3,54.9c1.7-2.2,4.5-4,2.4-6.7c-1.5-2-3.2,0.4-5.5,1.5c1.3-3.1,2.8-4.6,5.3-4.8c1.7-0.1,3.2,0.3,4.2,1.9
		c1,1.5,0.5,3-0.6,4.2c-1.1,1.2-1.1,1.8,0.4,2.8c2.8,2,3,6.1,0.8,9c-2.1,2.7-6.9,3.9-9.4,2.3c-1-0.7-1.9-1.5-1.1-2.9
		c0.7-1.1,1.8-0.9,2.7-0.2c1.2,0.9,2.2,2.9,4.1,1.6c1.8-1.2,1.4-3.3,1.2-5.1c-0.2-2-1.4-3.1-3.5-3.2
		C176.1,55.3,175.9,55.1,175.3,54.9z"/>
	<path class="st0" d="M151.6,60.8c-3.3-1.6-5.6-2.7-8.5-4.1c4.1-0.5,4.8-1.6,8.5-12c-0.5-1.2-2.2,0-2.9-1.5c2.3-0.7,4.4-1.4,6.6-1.9
		c1.7-0.4,2,0.5,1.4,2c-1.6,3.5-3.1,7-4.6,10.5C151.2,55.9,149.8,57.7,151.6,60.8z"/>
	<path class="st0" d="M195.2,282.2c-0.2-0.3-0.5-0.6-0.7-0.9c0.5-0.3,1-0.2,1.4,0.2C195.7,281.7,195.4,282,195.2,282.2z"/>
	<path class="st0" d="M253.1,222.1c-0.2,2.2-1.4,3.8-4.1,3.8c-3.1,0.1-6.4-2.4-6.3-4.8c0.1-2.5,1.4-4.2,4.1-4.3
		C249.8,216.8,253,219.3,253.1,222.1z"/>
	<path class="st0" d="M230.5,245.4c1.7-0.1,3.5-0.2,4.3,1.4c0.3,0.6-0.8,2.1-1.5,2C231.3,248.8,231.6,246.5,230.5,245.4z"/>
	<path class="st0" d="M183.2,285c1.2,1,3.3,1.2,3.3,3.1c0,0.8-1.6,1.6-2.2,1.3C182.6,288.6,183.3,286.7,183.2,285z"/>
	<path class="st0" d="M101.3,248.3c-1.9-0.1-3.2-1.5-3.4-3.9c-0.3-2.5,3.2-5.7,6-5.6c2.6,0.1,4,1.8,4.1,4.2
		C108.2,245.4,104.7,248.3,101.3,248.3z"/>
	<path class="st0" d="M117.5,254.2c-0.1,0.9-0.6,1.8-1.7,1.7c-2.1-0.1-3.3-1.9-3.9-3.5c-0.5-1.2,1.1-1.9,2.1-2.3
		C114.8,249.8,117.4,253,117.5,254.2z"/>
	<path class="st0" d="M149.9,280.1c2.2,0.4,3.8,1.6,3.7,4.3c-0.1,2.8-3.1,5.9-5.5,5.8c-2.6-0.2-4-1.8-4-4.3
		C144.2,283,147.2,279.9,149.9,280.1z"/>
	<path class="st0" d="M98.1,227c1.6,0.7,2,2.2,2.2,3.6c0.1,1.3-0.9,2.2-2.2,2c-1.8-0.3-2.7-2-2.8-3.5
		C95.2,227.8,97.1,227.7,98.1,227z"/>
	<path class="st2" d="M214.5,94.5c-3,7.6-7.4,14.4-11,21.6c-0.6,1.1-1.6,0.7-2.5,0.7c-7.1,0-14.2,0-21.3,0.1c-1.8,0-2.5-0.4-2.4-2.3
		c0.1-4.1,0.1-8.1,0-12.2c0-1.5,0.2-2.4,1.9-2.6c11.6-1.8,23.2-3.7,34.7-5.5C214.2,94.2,214.4,94.4,214.5,94.5L214.5,94.5z"/>
	<path class="st2" d="M214.6,94.5c0-0.1,0-0.3,0-0.4c0.1,0,0.2,0,0.3,0C214.8,94.3,214.6,94.4,214.6,94.5
		C214.5,94.5,214.6,94.5,214.6,94.5z"/>
	<path class="st2" d="M167.1,48.8c-0.3,1.6,0.1,3.8-1.9,5.2c-0.8,0.5-2,0.5-2.6-0.2c-1.6-2-0.6-4.2-0.1-6.3c0.3-1.4,0.6-3.2,2.6-3.2
		c1.4,0,1.9,1.1,2,2.3C167.1,47.3,167.1,47.9,167.1,48.8z"/>
	<path class="st2" d="M194.2,56.9c0.1,1.8-0.2,3-1.8,3.3c-1.8,0.3-3.7-3.3-4-6.9c-0.1-1.8,0.8-3,2.3-2.7
		C194.4,51.3,193.2,55,194.2,56.9z"/>
</g>
</svg>
