<?xml version="1.0" encoding="utf-8"?>
<!-- Generator: Adobe Illustrator 28.1.0, SVG Export Plug-In . SVG Version: 6.00 Build 0)  -->
<svg version="1.1"
	 id="svg2" xmlns:svg="http://www.w3.org/2000/svg" xmlns:sodipodi="http://sodipodi.sourceforge.net/DTD/sodipodi-0.dtd" xmlns:inkscape="http://www.inkscape.org/namespaces/inkscape" sodipodi:docname="sportivo-trinidense-seeklogo.com.ai"
	 xmlns="http://www.w3.org/2000/svg" xmlns:xlink="http://www.w3.org/1999/xlink" x="0px" y="0px" viewBox="0 0 994.5 983.5"
	 style="enable-background:new 0 0 994.5 983.5;" xml:space="preserve">
<style type="text/css">
	.st0{fill:#FFD80E;}
	.st1{fill:#251981;}
	.st2{fill:#FFFFFF;}
</style>
<sodipodi:namedview  bordercolor="#000000" borderopacity="0.25" id="namedview4" inkscape:deskcolor="#d1d1d1" inkscape:pagecheckerboard="0" inkscape:pageopacity="0.0" inkscape:showpageshadow="2" pagecolor="#ffffff">
	</sodipodi:namedview>
<g id="g8" transform="matrix(1.3333333,0,0,-1.3333333,0,1440)" inkscape:groupmode="layer" inkscape:label="sportivo-trinidense-seeklogo.com">
	<g id="g10">
		<g>
			<g id="g12">
				<g id="g18" transform="translate(895.5555,463.7408)">
					<path id="path20" class="st0" d="M-167.1,245.2c0-198-160.5-358.5-358.5-358.5c-198,0-358.5,160.5-358.5,358.5
						s160.5,358.5,358.5,358.5C-327.6,603.8-167.1,443.2-167.1,245.2"/>
				</g>
				<g id="g22" transform="translate(863.7706,536.2222)">
					<path id="path24" class="st1" d="M-167.1,245.2c-33.1,150-166.8,262.1-326.7,262.1c-159.9,0-293.6-112.2-326.7-262.1H-167.1z"
						/>
				</g>
				<g id="g26" transform="translate(210.626,389.7778)">
					<path id="path28" class="st1" d="M-167.1,245.2C-133.4,96,0-15.4,159.4-15.4S452.1,96,485.8,245.2H-167.1z"/>
				</g>
				<g id="g30" transform="translate(537.6296,768.3333)">
					<path id="path32" class="st2" d="M-167.1,245.2c-31.4,0-61.6-4.7-90.1-13.5v-14v-31.1V-81h136.4v-236.4
						c-15-2.7-30.5-4.1-46.3-4.1c-15.7,0-31,1.4-46,4v120.3h-44.2v-108.3v-20.1v-26c28.5-8.8,58.7-13.5,90.1-13.5
						c31.2,0,61.4,4.7,89.8,13.4v41.8v4.3v267.7h-136v236.4c15,2.7,30.5,4.1,46.3,4.1c15.7,0,31.1-1.4,46-4V78.2h43.7v108.5v32.8
						v12.2C-105.7,240.5-135.8,245.2-167.1,245.2"/>
				</g>
				<g id="g34" transform="translate(232.4445,463.1481)">
					<path id="path36" class="st2" d="M-167.1,245.2c0-123.3,73.1-229.5,178.4-277.7v15v34.1v130.6h-43.3V46.8
						c-55.9,48.1-91.3,119.3-91.3,198.9s35.4,150.9,91.3,198.9V344h43.3v130.9v12.8v35.2C-93.9,474.7-167.1,368.5-167.1,245.2"/>
				</g>
				<g id="g38" transform="translate(840.0327,504.4445)">
					<path id="path40" class="st2" d="M-167.1,245.2c-13.5,100-75.5,184.6-161.5,229.5v-49.5c20.9-13.4,39.8-29.8,56.1-48.5V87.9
						V32.1V11.7v-40.8c15.9,13.5,30.5,28.6,43.3,45v85.1v206.7c8.5-19.7,14.6-40.7,18-62.5H-167.1z"/>
				</g>
			</g>
		</g>
	</g>
</g>
</svg>
