<?xml version="1.0" encoding="utf-8"?>
<!-- Generator: Adobe Illustrator 26.4.1, SVG Export Plug-In . SVG Version: 6.00 Build 0)  -->
<svg version="1.1" id="Camada_1" xmlns="http://www.w3.org/2000/svg" xmlns:xlink="http://www.w3.org/1999/xlink" x="0px" y="0px"
	 viewBox="0 0 500 500" style="enable-background:new 0 0 500 500;" xml:space="preserve">
<style type="text/css">
	.st0{fill:#FFFFFF;}
	.st1{fill:#009FE3;}
	.st2{fill:#DC2F34;}
	.st3{fill:#004996;}
</style>
<g id="g10" transform="matrix(1.25,0,0,-1.25,0,700.00003)">
	<g id="g6884" transform="translate(-38.597859,-522.82226)">
		<g id="g6873" transform="matrix(0.99838402,0,0,0.99843243,0.06237319,0.81956054)">
			<path id="path6869" d="M239.1,1079.8c-108.3,0-196.3-88.1-196.3-196.3c0-108.3,88.1-196.3,196.3-196.3
				c108.3,0,196.3,88.1,196.3,196.3C435.4,991.7,347.4,1079.8,239.1,1079.8"/>
			<path id="path6871" class="st0" d="M239.1,1078.3c-107.4,0-194.9-87.4-194.9-194.9c0-107.4,87.4-194.9,194.9-194.9
				C346.6,688.6,434,776,434,883.5C434,990.9,346.6,1078.3,239.1,1078.3"/>
			<ellipse id="path5895" class="st1" cx="239.1" cy="883.5" rx="230.6" ry="230.6"/>
		</g>
		<path id="rect6049" class="st2" d="M95.2,998.8c-20.3-25.2-33.6-55.2-38.6-87.1l248.6-201.1c30.1,11.7,56.7,31,77,56.1L95.2,998.8
			z"/>
		<g id="g6017" transform="matrix(0.99838402,0,0,0.99843243,0.06237319,0.81956054)">
			<path id="path198" class="st0" d="M107.3,791l-2.8,4.2l7.6,2L107.3,791L107.3,791z M116.1,802l-21.1-5.3l2.3-3.4l3.7,1l4.1-6
				l-2.3-3l2.3-3.4l12.7,17.6L116.1,802z"/>
			<path id="path200" class="st0" d="M125.8,789l-2.6,3l-15.5-13.3l8.6-10.1l2.7,2.3l-6,7L125.8,789L125.8,789z"/>
			<path id="path202" class="st0" d="M135,765c-0.1,1.2-0.6,2.4-1.7,3.8l-1.5,1.9c-0.5,0.7-0.8,1.3-0.8,1.8c0,0.6,0.2,1.1,0.6,1.5
				c1,1,2.5,1.2,4-0.3c1-0.9,2-2.1,2.1-3.9l3.5,0.1c-0.1,2.4-1.1,4.3-3.2,6.2c-3.2,3-6.9,3-9.4,0.4c-1.2-1.2-1.7-2.6-1.7-3.9
				c0.1-1.3,0.6-2.5,1.7-3.9l1.5-1.9c0.7-0.8,0.8-1.2,0.9-1.8c0-0.6-0.2-1.2-0.7-1.7c-1.1-1.2-2.7-1-4.4,0.6
				c-1.4,1.3-2.3,2.8-2.4,4.6l-3.6-0.1c0.1-2.9,1.3-4.9,3.6-7.1c3.1-2.9,7-3.6,9.7-0.7C134.5,762.2,135.1,763.6,135,765"/>
			<path id="path204" class="st0" d="M144.7,753.1l-4.1,3l6.5,4.4L144.7,753.1z M149.4,766.4l-18.1-11.9l3.3-2.5l3.1,2.2l5.8-4.3
				l-1.2-3.6l3.3-2.5l6.2,20.8L149.4,766.4L149.4,766.4z"/>
			<path id="path206" class="st0" d="M168.3,746.8c1.5,4.1,0.1,7.4-3.2,9.3c-2,1.2-3.9,1.4-5.8,0.9c-2.8-0.7-4-2.7-5.9-6
				c-2-3.4-3.1-5.3-2.4-8.1c0.5-1.9,1.6-3.4,3.6-4.6c3.3-1.9,6.9-1.5,9.7,1.8l-3.5,2c-1.2-1.2-2.7-1.8-4.4-0.8
				c-0.9,0.5-1.5,1.3-1.7,2.2c-0.2,1.1,0.1,2.1,2,5.5c2,3.4,2.7,4.1,3.8,4.5c0.8,0.3,1.8,0.2,2.7-0.4c1.7-1,2-2.6,1.5-4.2
				L168.3,746.8L168.3,746.8z"/>
			<path id="path208" class="st0" d="M165.5,732.5l12.3-5.4l1.4,3.2l-8.6,3.8l2,4.5l7.4-3.3l1.4,3.2l-7.4,3.3l1.9,4.4l8.6-3.8
				l1.4,3.2l-12.3,5.4L165.5,732.5L165.5,732.5z"/>
			<path id="path210" class="st0" d="M144.2,1015.6l3.1,2.1c1.4,1,3,0.7,3.9-0.6c0.9-1.3,0.6-2.9-0.8-3.9l-3.1-2.1L144.2,1015.6
				L144.2,1015.6z M153.7,1001.7l-4.6,6.7l2.4,1.6l7.9-4.4l3.8,2.6l-8.7,4.6c1.2,1.7,1.6,4.2,0,6.5c-1.9,2.8-5.6,3.7-9,1.4l-6.6-4.6
				l11.6-16.8L153.7,1001.7L153.7,1001.7z"/>
			<path id="path212" class="st0" d="M170.6,1020l-4.5-2.4l-1.2,7.8L170.6,1020z M167.2,1010.4l-0.6,3.8l6.4,3.4l2.7-2.6l3.7,1.9
				l-16.1,14.6l-2.8-1.5l2.9-21.5L167.2,1010.4z"/>
			<path id="path214" class="st0" d="M181.6,1019.7c1.8-0.8,3.7-0.9,5.9-0.1c3.5,1.4,5.5,4.4,4.7,8.7l-3.8-1.4
				c0.2-1.7-0.3-3.2-2.2-3.9c-1-0.4-2-0.3-2.8,0.1c-1,0.5-1.6,1.4-3,5c-1.4,3.6-1.5,4.7-1.1,5.7c0.3,0.8,1,1.5,2,1.9
				c1.8,0.7,3.2-0.1,4.2-1.5l3.8,1.5c-2.2,3.7-5.7,4.7-9.3,3.4c-2.2-0.8-3.5-2.2-4.3-4c-1.2-2.6-0.4-4.8,1-8.4
				C178.2,1023,179,1020.9,181.6,1019.7"/>
			<path id="path216" class="st0" d="M201.2,1024.3l-5.6,19.6l-3.8-1.1l5.6-19.6L201.2,1024.3L201.2,1024.3z"/>
			<path id="path218" class="st0" d="M209.2,1026.3l-2.2,12.3l10.2-10.9l3.5,0.6l-3.6,20.1l-3.9-0.7l2.2-12.3l-10.2,10.9l-3.5-0.6
				l3.6-20.1L209.2,1026.3L209.2,1026.3z"/>
			<path id="path220" class="st0" d="M226.1,1030.8c1.5-1.3,3.2-2,5.5-1.9c2.2,0.1,4,0.7,5.6,2.6c1.4,1.6,1.8,3.4,1.6,6.3l-0.2,3
				l-7.7-0.4l0.2-3.4l3.7,0.2l0-0.7c0.1-1.1-0.2-2-0.8-2.8c-0.6-0.7-1.5-1.2-2.8-1.3c-1.1-0.1-2,0.3-2.6,0.9
				c-0.8,0.8-1.1,1.8-1.3,5.7c-0.2,3.9,0,4.9,0.7,5.8c0.6,0.7,1.4,1.2,2.5,1.2c2,0.1,3.3-0.9,3.8-2.8l4,0.2c-0.7,3.4-3.2,6.4-8,6.1
				c-2.3-0.1-4-1-5.3-2.4c-1.9-2.1-1.8-4.4-1.7-8.3C223.8,1035,224,1032.7,226.1,1030.8"/>
			<path id="path222" class="st0" d="M256,1028.1c3.8-0.4,6.9,1.4,8.2,5.6l-4,0.5c-0.6-1.6-1.8-2.7-3.7-2.5
				c-1.1,0.1-1.9,0.6-2.4,1.3c-0.6,0.9-0.8,2-0.4,5.8c0.4,3.9,0.8,4.8,1.6,5.6c0.7,0.6,1.6,0.9,2.7,0.8c2-0.2,2.9-1.6,3.1-3.3l4-0.5
				c-0.3,4.3-2.9,6.8-6.7,7.2c-2.3,0.3-4.1-0.3-5.7-1.5c-2.3-1.8-2.5-4.1-3-7.9c-0.4-3.9-0.7-6.1,1.1-8.4
				C252.1,1029.3,253.7,1028.4,256,1028.1"/>
			<path id="path224" class="st0" d="M280,1027.3l-9,2.1l3.8,16.4l-3.9,0.9l-4.6-19.9l12.9-3L280,1027.3z"/>
			<path id="path226" class="st0" d="M287.6,1020.8c3.9-1.4,8,0.2,9.5,4.3l4.4,12.6l-3.7,1.3l-4.4-12.5c-0.8-2.2-2.6-3.1-4.6-2.4
				c-2,0.7-2.9,2.5-2.1,4.7l4.4,12.5l-3.8,1.3l-4.4-12.6C281.4,1026,283.6,1022.2,287.6,1020.8"/>
			<path id="path228" class="st0" d="M309.3,1021c1.6-0.8,1.9-2.2,1.3-3.4c-0.6-1.2-1.9-1.9-3.5-1.1l-3.7,1.9l2.2,4.5L309.3,1021z
				 M309.3,1030.2l3.5-1.7c1.5-0.8,1.9-2,1.3-3.3c-0.6-1.3-1.9-1.7-3.4-0.9l-3.5,1.7L309.3,1030.2L309.3,1030.2z M305.8,1013.1
				c3.2-1.6,6.5-1,8.2,2.4c1.2,2.4,0.4,4.3-0.5,5.3c1.1,0,3.1,0.6,4.1,2.6c1.6,3.1,0.5,6.2-3.1,8l-7.3,3.7l-9.2-18.2L305.8,1013.1
				L305.8,1013.1z"/>
			<path id="path230" class="st0" d="M333,1016.3l2.4-1.8c1.1-0.8,1.6-1.7,1.7-2.8c0.1-1.2-0.6-2.2-2.5-4.8
				c-1.9-2.6-2.7-3.6-3.9-3.8c-1-0.3-2.1,0-3.1,0.7l-2.4,1.8L333,1016.3L333,1016.3z M332.5,999.5c2.1,0.7,3.3,2.3,5.3,5
				c2,2.7,3.2,4.4,3.2,6.6c0,2.5-1,4.4-3.2,6l-5.9,4.4l-12.1-16.4l5.9-4.4C328,999.1,330.1,998.7,332.5,999.5"/>
			<path id="path232" class="st0" d="M344.2,984.8l2.4,2.6l-6.9,6.5l3.4,3.6l5.9-5.5l2.4,2.6l-5.9,5.5l3.3,3.5l6.9-6.5l2.4,2.6
				l-9.8,9.2l-14-14.9L344.2,984.8L344.2,984.8z"/>
			<path id="path234" class="st0" d="M361.4,977.2c0.5-0.9,0.6-1.3,0.6-1.9c-0.1-0.6-0.4-1.1-1-1.5c-1.3-1-2.8-0.6-4.2,1.3
				c-1.1,1.5-1.9,3.1-1.6,4.9l-3.6,0.5c-0.4-2.8,0.5-5.1,2.4-7.5c2.6-3.4,6.4-4.6,9.5-2.2c1.5,1.1,2.3,2.4,2.4,3.9
				c0.1,1.2-0.2,2.4-1.1,4.1l-1.2,2.2c-0.4,0.7-0.6,1.4-0.5,1.9c0,0.6,0.4,1,0.8,1.3c1.1,0.9,2.7,0.8,3.9-0.9
				c0.8-1.1,1.7-2.4,1.5-4.2l3.5-0.5c0.3,2.4-0.4,4.4-2.2,6.7c-2.7,3.5-6.4,4.1-9.2,1.8c-1.4-1.1-2.1-2.3-2.3-3.6
				c-0.1-1.3,0.2-2.6,1.1-4.2L361.4,977.2L361.4,977.2z"/>
			<path id="path236" class="st0" d="M362.5,961.2l2.1-3.4l14.4,8.8l2.8-4.5l3,1.9l-7.6,12.5l-3-1.9l2.8-4.6L362.5,961.2
				L362.5,961.2z"/>
			<path id="path238" class="st0" d="M385.6,954.3l1.6-3.4c0.7-1.6,0.2-3.1-1.2-3.8c-1.4-0.7-2.9-0.1-3.7,1.5l-1.6,3.4L385.6,954.3z
				 M370.3,947.3l7.4,3.4l1.2-2.6l-5.7-7l1.9-4.2l6.1,7.8c1.5-1.5,3.8-2.3,6.4-1.1c3.1,1.4,4.6,4.9,2.9,8.6l-3.4,7.3l-18.5-8.5
				L370.3,947.3L370.3,947.3z"/>
			<path id="path240" class="st0" d="M391.8,932.1l-6.3-4.6l-1.5,4.8L391.8,932.1L391.8,932.1z M376.6,932.5l3.8-0.1l2.2-6.9
				l-3.1-2.2l1.3-4l17.2,13.3l-0.9,3l-21.7,0.9L376.6,932.5L376.6,932.5z"/>
			<path id="path242" class="st0" d="M395,921.1c-1.7-0.3-2.9-1.1-3.7-2.2c-0.7-1.1-1-2.4-0.9-4.2l0.1-2.5c0-1,0-1.5-0.3-1.9
				c-0.3-0.5-0.9-0.8-1.5-0.9c-1.6-0.3-2.7,0.7-3.2,3.1c-0.4,1.8-0.3,3.6,0.7,5.1l-3,2c-1.6-2.4-1.8-4.8-1.2-7.8
				c0.8-4.2,3.6-7,7.5-6.2c1.8,0.3,3.1,1.1,3.9,2.4c0.7,1,0.9,2.2,0.8,4.1l-0.1,2.5c0,0.9,0.1,1.5,0.4,2c0.3,0.5,0.8,0.7,1.3,0.8
				c1.4,0.3,2.7-0.5,3.1-2.6c0.2-1.3,0.4-2.9-0.6-4.4l2.9-2c1.3,2,1.6,4.2,1.1,6.9C401.6,919.6,398.6,921.8,395,921.1"/>
			<path id="path244" class="st0" d="M392.9,897.9l0.3-4.1c0.1-1.8-0.9-2.7-2.3-2.8c-1.4-0.1-2.6,0.7-2.7,2.5l-0.3,4.1L392.9,897.9z
				 M401.1,898.5l0.3-3.9c0.1-1.7-0.7-2.7-2.2-2.8c-1.4-0.1-2.4,0.8-2.5,2.5l-0.3,3.9L401.1,898.5L401.1,898.5z M384.6,892.7
				c0.3-3.6,2.5-6.1,6.3-5.8c2.7,0.2,3.9,1.9,4.4,3.1c0.6-1,2.1-2.4,4.4-2.2c3.5,0.2,5.5,2.7,5.3,6.7l-0.6,8.2l-20.3-1.5
				L384.6,892.7L384.6,892.7z"/>
			<path id="path246" class="st0" d="M400.5,872.7c-0.9-0.7-1.9-0.9-5.8-0.7s-4.8,0.5-5.6,1.3c-0.6,0.6-1,1.5-1,2.6
				c0.1,1.1,0.6,1.9,1.3,2.5c0.9,0.7,1.9,0.9,5.8,0.6c3.9-0.2,4.8-0.5,5.7-1.3c0.6-0.6,1-1.6,0.9-2.6
				C401.7,874.1,401.2,873.3,400.5,872.7 M395.4,883.1c-3.9,0.2-6.2,0.3-8.3-1.6c-1.5-1.3-2.3-3-2.5-5.3c-0.1-2.3,0.5-4.1,1.8-5.6
				c1.9-2.1,4.2-2.3,8.1-2.6c3.9-0.2,6.2-0.3,8.3,1.6c1.5,1.3,2.3,3,2.5,5.3c0.1,2.4-0.5,4.1-1.8,5.6
				C401.5,882.8,399.2,882.9,395.4,883.1"/>
			<path id="path248" class="st0" d="M382.5,858.2c-0.7-4.1,1.5-7.9,5.8-8.6l13.2-2.3l0.7,3.9l-13.1,2.3c-2.3,0.4-3.4,2-3.1,4.1
				c0.4,2.1,2,3.2,4.3,2.8l13.1-2.3l0.7,3.9l-13.2,2.3C386.6,865.1,383.3,862.3,382.5,858.2"/>
			<path id="path250" class="st0" d="M389.2,836.2l1.1,3.6l5.1-1.6l-1.1-3.6c-0.5-1.7-1.9-2.4-3.4-2
				C389.4,833.1,388.6,834.5,389.2,836.2 M379.3,843.2l7.8-2.4l-0.8-2.7l-8.9-1.4l-1.4-4.4l9.7,1.7c0.1-2.1,1.3-4.3,4-5.1
				c3.2-1,6.7,0.5,7.9,4.5l2.4,7.6l-19.5,6L379.3,843.2z"/>
			<path id="path252" class="st0" d="M384.5,826.2c-3.6,1.6-5.6,2.5-8.3,1.5c-1.8-0.7-3.2-2-4.2-4.1c-0.9-2-1.2-3.9-0.2-6.2
				c0.8-2,2.2-3.1,4.9-4.3l2.7-1.2l3.2,7l-3.1,1.4l-1.5-3.4l-0.7,0.3c-1,0.4-1.7,1-2.1,2c-0.4,0.9-0.4,1.9,0.1,3.1
				c0.5,1,1.2,1.6,2,1.9c1.1,0.3,2.1,0.1,5.6-1.5c3.6-1.6,4.3-2.2,4.8-3.2c0.3-0.8,0.4-1.8-0.1-2.8c-0.8-1.9-2.3-2.5-4.2-2.1
				l-1.6-3.7c3.4-0.9,7.1,0,9.1,4.3c1,2.1,1,4,0.3,5.8C390.1,823.6,388,824.6,384.5,826.2"/>
		</g>
		<g id="g6878" transform="matrix(0.99838402,0,0,0.99843243,0.06237319,0.81956054)">
			<path id="path256" d="M95.8,998.4l77.9-68.3c0-0.2,0.1-0.5,0.1-0.7c1.2-4.9,8.7-8.4,12.3-10.1c0.5-0.3,1-0.5,1.3-0.6
				c4.1-2.1,9-5.3,10.1-7.3c0.6-1,0.7-2,0.5-2.9c-0.3-1-1.1-1.8-2.4-2.4c-0.5-0.2-0.9-0.3-1.5-0.3c-2.3,0-6.8,1.5-17.7,5
				c-4.2,1.4-9.4,3.1-15.8,5.1c-6.3,2-12.1,3-17.4,3c-14.9,0-20.4-8.1-20.9-8.9c-5.5-6.9-8.6-25.4-4.3-48c0.2-1.1,0.4-2.2,0.7-3.3
				c6.1-27.9,21.6-53,43.5-70.8c21.7-17.6,49.1-27.3,77-27.3c1.3,0,2.6,0,3.9,0.1c17.8,0.6,35.5,5.1,51.4,13.1l7.4,3.7l-8-2.1
				c-2.9-0.8-13.4-3.2-27.2-3.2c-16,0-39.4,3.4-59.6,19.8c-22.2,17.9-29.5,42.3-31.9,55.3c-3.4,18.2-1.1,34.2,2.9,39.3
				c3.9,4.8,10.4,6.2,17.3,7.6c7.2,1.5,14.7,3,19.4,8.9l0,0c4.8,5.9,4.7,13.5,4.6,20.9c-0.1,7-0.1,13.6,3.8,18.4
				c4.3,5.3,21,11.1,40.5,11.1c15.4,0,37.9-3.4,58-19.7c35-28.3,34.7-72.8,34.3-81.5l-0.4-8.3l2.1,8c12.3,46.5-4,96.2-41.4,126.5
				c-29.9,24.2-62.4,27.8-79.1,27.8c-24.4,0-42.9-7.1-48.6-14.2c-1-0.9-12.5-12.9,2.2-38.6c3.4-5.9,6.1-10.6,8.3-14.4
				c7.4-12.7,9.1-15.7,8.6-17.8c-0.3-1.2-1.1-3.2-3.3-3.2c-0.4,0-0.9,0.1-1.4,0.2c-2.2,0.7-6.3,4.8-9.2,8.4
				c-0.2,0.3-0.5,0.6-0.8,1.1c-2.4,3.2-7.4,9.9-12.5,9.9c-0.2,0-0.4,0-0.6,0l-83,62c-0.2,0.1-1,0.7-1.2,0.7c-0.3-0.3-0.5-0.7-0.8-1
				C95,999.1,95.7,998.5,95.8,998.4"/>
			<g id="g6854">
				<path id="path254" class="st0" d="M175.4,934.9l0.1,0.2c0.7,0.9,1.5,1.6,2.4,2l-64.4,48.1l60.4-53
					C174.2,933.1,174.7,934,175.4,934.9"/>
				<path id="path258" class="st0" d="M180.6,936c-1.4,0-2.6-0.7-3.7-2.1l-0.1-0.1c-1.2-1.4-1.5-2.8-1.2-4.1c1-4.1,8.2-7.5,11.3-8.9
					c0.6-0.3,1-0.5,1.4-0.6c0.9-0.5,9-4.7,10.8-8c0.8-1.5,1-2.9,0.6-4.2c-0.5-1.4-1.6-2.6-3.3-3.4c-0.7-0.3-1.4-0.5-2.3-0.5
					c-2.6,0-6.9,1.4-18.2,5.1c-4.2,1.4-9.4,3.1-15.8,5.1c-6.1,2-11.8,3-16.9,3c-14.4,0-19.4-8-19.4-8.1l-0.1-0.1
					c-5.6-6.9-8.5-26.2-3.3-49.9c6-27.5,21.3-52.3,42.9-69.9c21.4-17.4,48.4-26.9,75.9-26.9c16.3,0,32.6,3.4,47.6,9.7
					c-5-0.9-12-1.7-20.1-1.7c-16.3,0-40.1,3.5-60.7,20.2c-16.7,13.6-28.3,33.6-32.5,56.3c-3.6,19.3-1,35.4,3.3,40.7
					c4.3,5.3,11.4,6.8,18.2,8.2c6.9,1.4,14.1,2.9,18.5,8.3c4.4,5.4,4.3,12.7,4.3,19.8c0,7-0.1,14.3,4.2,19.6
					c4.7,5.8,21.6,11.7,41.8,11.7c15.6,0,38.6-3.5,59.1-20.1c29.4-23.8,34.3-58.7,34.9-75.1c8.6,43.6-7.7,89-42.5,117.2
					c-29.5,23.9-61.5,27.5-78,27.5c-23.9,0-41.9-6.8-47.3-13.6l-0.1-0.1c-0.1-0.1-11.8-11.6,2.5-36.6c3.4-5.8,6.1-10.6,8.3-14.4
					c8-13.8,9.4-16.3,8.8-19.1c-0.7-2.9-2.5-4.5-5-4.5c-0.6,0-1.2,0.1-1.9,0.3c-3.6,1.1-9.4,8.1-10,8.9c-0.2,0.3-0.5,0.7-0.9,1.2
					C189.7,929.5,184.8,936,180.6,936"/>
			</g>
		</g>
		<g id="g6862" transform="matrix(0.99838402,0,0,0.99843243,0.06237319,0.81956054)">
			<path id="path6047" d="M349.6,852.4c0,40.5-33,73.5-73.5,73.5s-73.5-33-73.5-73.5c0-40.5,33-73.5,73.5-73.5
				S349.6,811.9,349.6,852.4"/>
			<path id="path260" class="st0" d="M276.1,923.9c-39.4,0-71.4-32-71.4-71.4c0-39.4,32-71.4,71.4-71.4s71.4,32,71.4,71.4
				C347.6,891.8,315.5,923.9,276.1,923.9L276.1,923.9z"/>
			<g id="g6858">
				<path id="path262" class="st3" d="M318.4,818.1c5.6,0,10.9,1,16.7,6.6c5.9,5.6,7.3,13.1,7.3,16.9c0,3.7-1.6,11.5-6.8,15.8
					c-5.2,4.3-15.5,6.6-17.7,7c-2.2,0.5-6.1,1.1-6.1,6.4c0,5.3,3.9,7,6.1,7s3.9-1.7,5.3-3.1c1.4-1.4,0.7-6.3,6.6-6.3
					c5.9,0,5.9,7,1.4,13.6c-4.6,6.6-10.7,7-13.6,7c-2.9,0-17.5-1.7-17.5-18.2c0-16.5,17-17.8,21.9-19.2c4.9-1.4,9.2-5.3,9.2-11
					c0-5.8-5.6-11-12.7-11c-7.1,0-9.7,3.4-10.7,5.9c-1,2.5-2,7.6-2.9,10.7s-5.8,7.8-5.8,7.8s-19.4,14.9-22.6,18.2
					c0.8,0,18.3,1.2,18.3,18.5c0,17.3-20.4,18.2-20.4,18.2h-31.6c-2.7,0-4.4-2.5-4.4-5.1v-53.5c0-3.4,3.5-5.6,6.1-5.6
					s5.5,3.2,5.5,5.5v47.5h28.2c2,0,5.4-2.5,5.4-6.7c0-4.2-4-6.9-6.3-6.9H258c-2.4,0-4.6-3.1-4.6-5.7s2.4-4.6,2.4-4.6
					s22-16.9,26.6-20.1c-1.5-0.1-23.8-5.6-23.8-28s20.1-30.4,25.6-30.4h26c0,0,4.9,1,4.9,5.5s-4.9,5.4-4.9,5.4H286
					c-2.2,0-15.7,1.8-15.7,18.3c0,16.5,17.2,18,18.2,18c1,0,3.9,0,6.5-0.8C298.3,818.9,312.8,818.1,318.4,818.1"/>
				<path id="path264" class="st3" d="M252.7,831.7h-20.5V854l-1.4,1.4v11.8l-3.1,4.4l-2.2,22.7l-2.2-22.7l-3.6-4.4v-11.7l-2.4-2.4
					v-33.3c0,0,9.3-15.3,21.2-21h22.1l3.2,2.5C263.8,801.3,252.7,805.4,252.7,831.7"/>
			</g>
		</g>
	</g>
</g>
</svg>
