<?xml version="1.0" encoding="UTF-8"?><svg id="Camada_1" xmlns="http://www.w3.org/2000/svg" width="2057.53" height="2057.41" viewBox="0 0 2057.53 2057.41"><defs><style>.cls-1{fill:#fff;}.cls-2{fill:#ffc20f;}.cls-3{fill:#00479a;}</style></defs><path class="cls-2" d="M910.75,1831.4l-10.22-1.62c-54.08-8.59-107.41-22.75-158.49-42.06l-9.66-3.65-111.85,181.94-196.89-113.39,101.27-188.14-8.01-6.52c-42.34-34.49-81.35-73.39-115.94-115.62l-6.54-7.98-188.04,101.68-113.77-196.67,181.63-112.15-3.68-9.66c-19.29-50.61-33.52-103.42-42.28-156.98l-1.67-10.2-213.6-5.69-.48-227.21,213.49-6.58,1.62-10.22c8.7-54.93,23.12-109.06,42.87-160.87l3.68-9.65-181.64-112.32,113.9-196.6,187.88,101.76,6.54-7.99c34.86-42.57,74.18-81.74,116.89-116.43l8.11-6.59-99.65-180.58,195.69-115.44,111.31,176.88,9.55-3.6c50.26-18.95,102.68-32.9,155.81-41.48l10.21-1.65,6.14-213.6h227.21l6.13,213.5,10.22,1.64c54.09,8.68,107.39,22.92,158.43,42.31l9.66,3.67,112.14-181.75,196.71,113.7-101.57,187.98,8,6.54c42.28,34.55,81.22,73.51,115.75,115.8l6.53,7.99,188.2-101.38,113.45,196.85-181.81,111.86,3.67,9.66c19.2,50.62,33.34,103.46,42.02,157.05l1.65,10.21,213.6,6.03.11,227.21-213.5,6.24-1.63,10.22c-8.63,53.92-22.78,107.08-42.07,158.01l-3.66,9.66,181.88,111.95-113.49,196.83-188.09-101.37-6.53,8c-34.85,42.74-74.2,82.08-116.95,116.92l-8.1,6.6,99.94,180.42-195.51,115.76-111.59-176.69-9.55,3.62c-50.23,19.03-102.63,33.06-155.75,41.73l-10.2,1.66-5.8,213.6-227.21.36-6.48-213.49Z"/><path class="cls-3" d="M1129.99,25l5.49,191.02.59,20.68,20.43,3.28c53.25,8.55,105.72,22.56,155.97,41.65l19.31,7.34,10.85-17.58,100.34-162.62,87.84,50.77,87.84,50.77-90.89,168.21-9.82,18.17,15.99,13.07c41.63,34.02,79.98,72.38,113.98,114.03l13.05,15.99,18.17-9.79,168.42-90.73,50.66,87.9,50.66,87.9-162.66,100.08-17.61,10.83,7.33,19.33c18.91,49.83,32.82,101.85,41.37,154.61l3.3,20.41,20.67.58,191.12,5.4.05,101.46.05,101.46-191.01,5.58-20.68.6-3.27,20.43c-8.5,53.08-22.43,105.42-41.41,155.56l-7.31,19.32,17.59,10.83,162.74,100.17-50.68,87.89-50.68,87.89-168.31-90.7-18.18-9.8-13.05,16.01c-34.32,42.09-73.06,80.82-115.16,115.12l-16.21,13.21,10.13,18.29,88.99,160.66-87.3,51.69-87.3,51.69-99.66-157.79-10.9-17.26-19.09,7.23c-49.45,18.73-101.04,32.55-153.33,41.08l-20.41,3.33-.56,20.67-5.19,191.13-101.46.16-101.46.16-5.79-191.01-.63-20.68-20.44-3.25c-53.24-8.46-105.74-22.39-156.04-41.41l-19.32-7.3-10.82,17.6-100.08,162.79-87.92-50.63-87.92-50.63,90.62-168.36,9.79-18.19-16.01-13.04c-41.69-33.96-80.1-72.26-114.16-113.85l-13.08-15.97-18.15,9.82-168.27,90.99-50.8-87.82-50.8-87.82,162.5-100.34,17.59-10.86-7.36-19.32c-18.99-49.82-33-101.82-41.62-154.54l-3.34-20.41-20.67-.55-191.13-5.09-.21-101.46-.21-101.46,191.01-5.89,20.68-.64,3.24-20.44c8.57-54.08,22.77-107.37,42.2-158.38l7.36-19.3-17.57-10.86-162.53-100.5,50.86-87.79,50.86-87.79,168.12,91.05,18.16,9.84,13.09-15.98c34.32-41.92,73.05-80.49,115.1-114.64l16.23-13.18-10.1-18.3-88.73-160.8,87.38-51.55,87.38-51.55,99.41,157.96,10.87,17.28,19.1-7.2c49.48-18.65,101.09-32.39,153.4-40.83l20.41-3.29.59-20.67,5.49-191.12h202.92M1154.28,0h-251.5l-6.19,215.41c-54.74,8.83-107.67,23.06-158.23,42.12l-112.35-178.52-108.31,63.89-108.31,63.89,100.47,182.06c-43.44,35.29-83.22,74.91-118.68,118.21l-189.48-102.62-63.04,108.81-63.04,108.81,183.19,113.28c-19.86,52.12-34.57,106.79-43.53,163.37L0,905.35l.26,125.75.26,125.75,215.41,5.74c9.02,55.17,23.53,108.5,42.93,159.41l-183.17,113.1,62.97,108.85,62.97,108.85,189.64-102.55c35.2,42.97,74.65,82.31,117.72,117.39l-102.13,189.75,108.97,62.75,108.97,62.75,112.8-183.48c51.4,19.43,105.25,33.86,160.95,42.71l6.53,215.29,125.75-.2,125.75-.2,5.84-215.41c54.72-8.92,107.63-23.23,158.17-42.37l112.63,178.33,108.2-64.07,108.21-64.07-100.76-181.9c43.49-35.44,83.29-75.23,118.74-118.71l189.69,102.23,62.81-108.94,62.81-108.94-183.42-112.9c19.4-51.24,33.83-104.92,42.72-160.46l215.3-6.29-.06-125.75-.06-125.75-215.41-6.08c-8.94-55.19-23.35-108.55-42.67-159.48l183.35-112.81-62.79-108.95-62.79-108.95-189.81,102.25c-35.13-43.02-74.52-82.43-117.53-117.58l102.43-189.58-108.87-62.93-108.87-62.93-113.09,183.3c-51.37-19.51-105.2-34.02-160.89-42.97l-6.19-215.3h0Z"/><path class="cls-3" d="M339.61,914.27c89.08-40.97,201.26-77.76,337.91-79.62,201.77-2.75,311.26,44.09,366.11,56.56,30.67,6.97,164.49,37.46,293.81,37.46,72.57,0,216.32-37.07,358.07-108.84.44,1.41.87,2.82,1.3,4.24-87.45-285.96-353.45-493.94-668.04-493.94-346.9,0-634.73,252.89-689.2,584.37.01-.08.02-.15.04-.23Z"/><path class="cls-3" d="M1717.47,1145.63c-42.21,25.17-80.26,46.11-113.59,58.65-83.9,31.57-173.35,60.99-270.57,65.12-136.79,5.81-209.12-11.92-346.7-46.78-82.95-21.01-176.79-40.82-290.75-41.27-101.24-.41-213.44,16.49-332.02,61.69-1.22-3.77-2.39-7.56-3.55-11.36,86.99,286.71,353.36,495.39,668.48,495.39,348.07,0,636.66-254.6,689.73-587.72-.33,2.09-.67,4.18-1.02,6.27Z"/><path class="cls-1" d="M1695.5,819.83c-141.74,71.77-285.49,108.84-358.07,108.84-129.32,0-263.14-30.49-293.81-37.46-54.86-12.46-164.34-59.3-366.11-56.56-136.65,1.86-248.83,38.65-337.91,79.62-6.13,37.2-9.32,75.4-9.32,114.34,0,74.81,11.77,146.87,33.54,214.44,118.59-45.2,230.78-62.1,332.02-61.69,113.96.46,207.8,20.26,290.75,41.27,137.58,34.85,209.91,52.58,346.7,46.78,97.22-4.13,186.67-33.55,270.57-65.12,33.33-12.54,71.38-33.48,113.59-58.65,6.42-38.05,9.77-77.15,9.77-117.03,0-72.72-11.12-142.85-31.74-208.78Z"/><polygon class="cls-1" points="970.1 429.71 1005.5 538.66 1120.06 538.66 1027.38 606 1062.78 714.95 970.1 647.62 877.42 714.95 912.82 606 820.14 538.66 934.7 538.66 970.1 429.71"/><polygon class="cls-1" points="730.71 1229.05 766.11 1338 880.67 1338 787.99 1405.34 823.39 1514.29 730.71 1446.95 638.03 1514.29 673.43 1405.34 580.75 1338 695.31 1338 730.71 1229.05"/><polygon class="cls-1" points="1292.03 1319.85 1327.44 1428.8 1442 1428.8 1349.31 1496.14 1384.72 1605.09 1292.03 1537.76 1199.35 1605.09 1234.75 1496.14 1142.07 1428.8 1256.63 1428.8 1292.03 1319.85"/><path class="cls-3" d="M402.45,1090.94l24.37-8.34c7.07,19.16,18.41,27.05,34.02,23.69,7.74-1.67,13.38-5,16.95-9.99,3.56-5,4.7-10.48,3.41-16.46-.76-3.51-2.17-6.33-4.25-8.46-2.08-2.13-4.87-3.64-8.37-4.54s-11.74-1.9-24.71-3c-11.61-.95-20.36-2.81-26.26-5.59-5.9-2.77-11.02-6.98-15.36-12.63-4.34-5.65-7.29-12.09-8.85-19.33-1.82-8.43-1.53-16.43.85-24.01,2.38-7.57,6.58-13.81,12.59-18.7,6.01-4.9,13.97-8.41,23.89-10.55,14.91-3.21,27.42-1.67,37.53,4.61,10.11,6.29,17.03,16.9,20.77,31.85l-25.34,6.89c-2.91-8.06-6.59-13.34-11.03-15.84-4.44-2.5-10.11-3.01-17-1.53-6.89,1.48-11.89,4.06-15,7.74-3.11,3.68-4.2,7.66-3.28,11.93.91,4.21,3.36,7.38,7.36,9.53,4,2.15,12.46,3.63,25.36,4.46,13.67.96,23.81,2.88,30.43,5.76,6.61,2.88,12.13,7.25,16.55,13.1s7.63,13.42,9.63,22.7c2.89,13.43,1.19,25.6-5.11,36.53-6.3,10.92-18.24,18.27-35.82,22.06-31.09,6.69-52.2-7.27-63.33-41.89Z"/><path class="cls-3" d="M657.3,1111.46l-28.37,1.16-12.81-35.33-51.89,2.12-9.26,36.23-27.82,1.13,44.03-160.13,27.72-1.13,58.4,155.95ZM565.4,944.78l-11.32.46-.25-3.54c-.32-7.87.97-13.86,3.87-17.96,2.9-4.1,6.69-6.24,11.37-6.43,2.02-.08,3.94.13,5.76.63,1.82.5,4.8,1.75,8.92,3.74,5.45,2.66,9.47,3.93,12.06,3.83,4.11-.17,6.39-3.39,6.86-9.68l11.32-.46c.33,9.78-.88,16.79-3.62,21.05-2.74,4.25-6.4,6.47-10.99,6.66-1.94.08-3.85-.09-5.73-.52-1.38-.3-4.59-1.5-9.63-3.6-6.07-2.56-10.36-3.79-12.87-3.69-1.79.07-3.22.83-4.27,2.26s-1.55,3.85-1.48,7.27ZM606.6,1050.88l-20.29-57.93-15.17,59.37,35.46-1.44Z"/><path class="cls-3" d="M671.19,1033.98c2.22-18.72,6.82-33.8,13.79-45.25,6.97-11.45,15.28-19.61,24.91-24.48,9.63-4.87,20.81-6.55,33.53-5.04,18.43,2.19,32.62,11.01,42.56,26.46,9.94,15.45,13.37,36.18,10.28,62.18-3.12,26.29-11.7,46.1-25.74,59.43-12.34,11.79-27.76,16.59-46.26,14.4-18.65-2.21-32.6-10.42-41.85-24.64-10.53-16.25-14.27-37.26-11.21-63.05ZM698.1,1036.08c-2.15,18.08-.32,32.04,5.48,41.89,5.8,9.85,13.77,15.38,23.93,16.59,10.23,1.21,19.24-2.26,27.03-10.43,7.79-8.17,12.79-21.54,14.99-40.11,2.16-18.22.49-32.07-5.03-41.57-5.51-9.49-13.56-14.87-24.15-16.12-10.59-1.26-19.73,2.11-27.43,10.11-7.7,8-12.64,21.21-14.83,39.64Z"/><path class="cls-3" d="M925.39,979.96l25.96,2.84-10.88,99.55c-1.76,16.09-4.68,27.89-8.75,35.41-4.08,7.52-9.55,13.03-16.41,16.55-6.86,3.52-14.98,4.77-24.35,3.74-12.37-1.35-21.6-6.66-27.68-15.94-6.08-9.28-8.22-22.5-6.41-39.67l24.94-.75c-.72,9.26-.25,15.93,1.41,20.02,2.22,5.6,6.13,8.7,11.73,9.31,5.45.6,9.68-.88,12.68-4.42,3-3.54,5.22-11.9,6.66-25.05l11.1-101.59Z"/><path class="cls-3" d="M961.68,1066.11c2.08-18.73,6.56-33.85,13.45-45.36,6.89-11.51,15.13-19.73,24.72-24.67,9.6-4.94,20.76-6.71,33.49-5.3,18.45,2.05,32.7,10.76,42.76,26.13,10.06,15.38,13.64,36.08,10.75,62.1-2.92,26.31-11.35,46.19-25.29,59.62-12.25,11.89-27.64,16.8-46.15,14.75-18.66-2.07-32.67-10.18-42.03-24.32-10.66-16.17-14.55-37.15-11.69-62.97ZM988.61,1068.01c-2.01,18.09-.08,32.04,5.79,41.85,5.87,9.81,13.89,15.28,24.06,16.41,10.24,1.14,19.22-2.41,26.95-10.64,7.73-8.23,12.62-21.63,14.69-40.23,2.02-18.23.24-32.07-5.34-41.53-5.58-9.45-13.68-14.76-24.27-15.94s-19.72,2.26-27.35,10.32c-7.64,8.06-12.48,21.31-14.53,39.75Z"/><path class="cls-3" d="M1097.18,1108.11l25.71-1.52c1.69,20.35,10.51,30.99,26.45,31.93,7.9.46,14.23-1.24,19-5.1,4.77-3.86,7.33-8.85,7.69-14.95.21-3.59-.4-6.69-1.83-9.29-1.43-2.6-3.72-4.81-6.85-6.61-3.14-1.81-10.81-4.97-23.01-9.5-10.94-4.02-18.87-8.16-23.81-12.41-4.94-4.25-8.75-9.67-11.42-16.28-2.68-6.6-3.8-13.6-3.36-20.99.5-8.61,2.92-16.25,7.23-22.91,4.32-6.66,10.03-11.54,17.13-14.66,7.1-3.11,15.71-4.37,25.84-3.78,15.23.89,26.87,5.72,34.93,14.48,8.06,8.76,11.89,20.84,11.49,36.24l-26.26-.14c-.65-8.54-2.78-14.61-6.39-18.21-3.61-3.6-8.93-5.6-15.97-6.02-7.04-.41-12.55.74-16.53,3.45-3.98,2.71-6.1,6.25-6.35,10.62-.25,4.3,1.26,8.01,4.55,11.15,3.28,3.14,11.03,6.83,23.25,11.08,12.92,4.58,22.18,9.14,27.78,13.69,5.6,4.54,9.75,10.23,12.45,17.05,2.7,6.82,3.77,14.97,3.21,24.45-.8,13.72-5.7,24.99-14.69,33.83-8.99,8.84-22.46,12.73-40.41,11.68-31.74-1.86-48.35-20.96-49.82-57.3Z"/><path class="cls-3" d="M1220.66,1168.34l1.37-158.19,96.25.83-.23,26.76-70.14-.61-.3,35.07,65.18.56-.23,26.65-65.18-.56-.37,42.95,72.51.63-.23,26.76-98.63-.85ZM1255.46,999.86l12.5-32.16,28.02.24-24.73,32.05-15.8-.14Z"/><path class="cls-3" d="M1388.19,1162.57l-14.39-157.54,95.86-8.76,2.43,26.65-69.85,6.38,3.19,34.93,64.91-5.93,2.42,26.54-64.91,5.93,3.91,42.77,72.22-6.6,2.43,26.65-98.22,8.97Z"/><path class="cls-3" d="M1508.04,1146.76l-7.05-29.49,24.14-5.77,7.05,29.49-24.14,5.77Z"/><path class="cls-3" d="M1613.43,1049.46l27.19.15c2.6,17.95,1.05,32.38-4.65,43.28-5.7,10.91-14.84,18.76-27.41,23.54-15.8,6.02-30.93,4.81-45.37-3.62-16.65-9.75-29.51-26.56-38.6-50.43-9.6-25.21-11.43-47.11-5.48-65.69,5.18-16.14,16.12-27.38,32.81-33.74,13.59-5.18,26.73-4.87,39.42.92,9.04,4.1,17.54,12.07,25.51,23.89l-21.52,16.28c-4.6-7.41-10.01-12.37-16.25-14.88-6.24-2.51-12.49-2.58-18.75-.19-8.96,3.41-14.78,10.09-17.47,20.05-2.69,9.95-.61,23.91,6.22,41.86,7.09,18.62,14.89,30.82,23.4,36.59,8.51,5.77,17.17,6.97,25.97,3.62,6.45-2.46,11.08-7.09,13.88-13.89,2.8-6.8,3.17-16.04,1.1-27.73Z"/><path class="cls-3" d="M1676.1,1081.42l-14.15-26.82,21.95-11.58,14.15,26.82-21.95,11.58Z"/></svg>