<?xml version="1.0" encoding="UTF-8"?>
<!DOCTYPE svg PUBLIC "-//W3C//DTD SVG 1.1//EN" "http://www.w3.org/Graphics/SVG/1.1/DTD/svg11.dtd">
<svg xmlns="http://www.w3.org/2000/svg" version="1.1" width="290px" height="372px" style="shape-rendering:geometricPrecision; text-rendering:geometricPrecision; image-rendering:optimizeQuality; fill-rule:evenodd; clip-rule:evenodd" xmlns:xlink="http://www.w3.org/1999/xlink">
<g><path style="opacity:0.009" fill="#000000" d="M 102.5,-0.5 C 104.833,-0.5 107.167,-0.5 109.5,-0.5C 107.167,0.833333 104.833,0.833333 102.5,-0.5 Z"/></g>
<g><path style="opacity:0.009" fill="#000000" d="M 178.5,-0.5 C 180.833,-0.5 183.167,-0.5 185.5,-0.5C 183.167,0.833333 180.833,0.833333 178.5,-0.5 Z"/></g>
<g><path style="opacity:0.008" fill="#000000" d="M 191.5,2.5 C 190.048,1.69808 188.382,1.19808 186.5,1C 190.527,0.668942 194.527,1.00228 198.5,2C 196.19,2.49665 193.857,2.66331 191.5,2.5 Z"/></g>
<g><path style="opacity:0.009" fill="#000000" d="M 71.5,6.5 C 72.6009,5.40168 73.9343,5.23502 75.5,6C 74.2068,6.49001 72.8734,6.65668 71.5,6.5 Z"/></g>
<g><path style="opacity:0.007" fill="#000000" d="M 224.5,9.5 C 227.068,8.35694 229.735,8.52361 232.5,10C 231.207,10.49 229.873,10.6567 228.5,10.5C 227.432,9.56552 226.099,9.23219 224.5,9.5 Z"/></g>
<g><path style="opacity:0.007" fill="#000000" d="M 52.5,11.5 C 53.2506,10.4265 54.2506,10.2599 55.5,11C 54.552,11.4828 53.552,11.6495 52.5,11.5 Z"/></g>
<g><path style="opacity:0.006" fill="#000000" d="M 235.5,12.5 C 237.772,11.2355 240.105,11.4022 242.5,13C 241.552,13.4828 240.552,13.6495 239.5,13.5C 238.432,12.5655 237.099,12.2322 235.5,12.5 Z"/></g>
<g><path style="opacity:0.006" fill="#000000" d="M 46.5,14.5 C 44.901,14.2322 43.5676,14.5655 42.5,15.5C 39.4017,15.5875 39.0684,15.0875 41.5,14C 43.3869,13.2204 45.0536,13.3871 46.5,14.5 Z"/></g>
<g><path style="opacity:0.007" fill="#000000" d="M 36.5,17.5 C 35.209,17.2627 34.209,17.596 33.5,18.5C 30.4017,18.5875 30.0684,18.0875 32.5,17C 34.0657,16.235 35.3991,16.4017 36.5,17.5 Z"/></g>
<g><path style="opacity:0.01" fill="#000000" d="M 255.5,18.5 C 255.897,17.475 256.563,17.3083 257.5,18C 256.906,18.4643 256.239,18.631 255.5,18.5 Z"/></g>
<g><path style="opacity:0.008" fill="#000000" d="M 13.5,25.5 C 12.5084,25.3284 11.8417,25.6618 11.5,26.5C 10.5,26.5 9.5,26.5 8.5,26.5C 9.99546,24.655 11.6621,24.3217 13.5,25.5 Z"/></g>
<g><path style="opacity:0.007" fill="#000000" d="M 8.5,26.5 C 8.5,26.8333 8.5,27.1667 8.5,27.5C 7.50838,27.3284 6.84171,27.6618 6.5,28.5C 5.44802,28.6495 4.44802,28.4828 3.5,28C 5.02494,26.9914 6.69161,26.4914 8.5,26.5 Z"/></g>
<g><path style="opacity:0.01" fill="#000000" d="M 282.5,28.5 C 282.897,27.475 283.563,27.3083 284.5,28C 283.906,28.4643 283.239,28.631 282.5,28.5 Z"/></g>
<g><path style="opacity:0.008" fill="#000000" d="M 287.5,30.5 C 287.842,29.6618 288.508,29.3284 289.5,29.5C 289.5,29.8333 289.5,30.1667 289.5,30.5C 288.833,30.5 288.167,30.5 287.5,30.5 Z"/></g>
<g><path style="opacity:0.989" fill="#0a090a" d="M 118.5,-0.5 C 135.5,-0.5 152.5,-0.5 169.5,-0.5C 176.632,0.976429 183.966,1.97643 191.5,2.5C 202.404,4.71147 213.404,7.04481 224.5,9.5C 225.568,10.4345 226.901,10.7678 228.5,10.5C 230.599,11.6118 232.933,12.2785 235.5,12.5C 236.568,13.4345 237.901,13.7678 239.5,13.5C 244.617,15.537 249.95,17.2036 255.5,18.5C 264.324,22.0685 273.324,25.4019 282.5,28.5C 283.93,29.5375 285.597,30.2041 287.5,30.5C 287.842,31.3382 288.508,31.6716 289.5,31.5C 289.5,118.5 289.5,205.5 289.5,292.5C 288.076,294.515 287.41,296.848 287.5,299.5C 286.662,299.842 286.328,300.508 286.5,301.5C 285.596,302.209 285.263,303.209 285.5,304.5C 284.662,304.842 284.328,305.508 284.5,306.5C 283.662,306.842 283.328,307.508 283.5,308.5C 282.094,308.973 281.427,309.973 281.5,311.5C 280.662,311.842 280.328,312.508 280.5,313.5C 279.662,313.842 279.328,314.508 279.5,315.5C 278.833,315.5 278.5,315.833 278.5,316.5C 277.662,316.842 277.328,317.508 277.5,318.5C 276.833,318.5 276.5,318.833 276.5,319.5C 275.662,319.842 275.328,320.508 275.5,321.5C 274.833,321.5 274.5,321.833 274.5,322.5C 273.833,322.5 273.5,322.833 273.5,323.5C 272.833,323.5 272.5,323.833 272.5,324.5C 271.833,324.5 271.5,324.833 271.5,325.5C 270.833,325.5 270.5,325.833 270.5,326.5C 269.833,326.5 269.5,326.833 269.5,327.5C 268.833,327.5 268.5,327.833 268.5,328.5C 267.833,328.5 267.5,328.833 267.5,329.5C 266.833,329.5 266.5,329.833 266.5,330.5C 265.833,330.5 265.5,330.833 265.5,331.5C 264.833,331.5 264.5,331.833 264.5,332.5C 263.833,332.5 263.5,332.833 263.5,333.5C 262.508,333.328 261.842,333.662 261.5,334.5C 260.833,334.5 260.5,334.833 260.5,335.5C 259.508,335.328 258.842,335.662 258.5,336.5C 257.833,336.5 257.5,336.833 257.5,337.5C 256.508,337.328 255.842,337.662 255.5,338.5C 254.833,338.5 254.5,338.833 254.5,339.5C 253.508,339.328 252.842,339.662 252.5,340.5C 251.508,340.328 250.842,340.662 250.5,341.5C 249.833,341.5 249.5,341.833 249.5,342.5C 248.508,342.328 247.842,342.662 247.5,343.5C 246.508,343.328 245.842,343.662 245.5,344.5C 244.508,344.328 243.842,344.662 243.5,345.5C 242.508,345.328 241.842,345.662 241.5,346.5C 240.508,346.328 239.842,346.662 239.5,347.5C 238.209,347.263 237.209,347.596 236.5,348.5C 235.508,348.328 234.842,348.662 234.5,349.5C 233.508,349.328 232.842,349.662 232.5,350.5C 231.209,350.263 230.209,350.596 229.5,351.5C 228.508,351.328 227.842,351.662 227.5,352.5C 226.209,352.263 225.209,352.596 224.5,353.5C 218.216,354.928 212.216,356.928 206.5,359.5C 204.901,359.232 203.568,359.566 202.5,360.5C 199.848,360.41 197.515,361.076 195.5,362.5C 193.901,362.232 192.568,362.566 191.5,363.5C 189.901,363.232 188.568,363.566 187.5,364.5C 185.901,364.232 184.568,364.566 183.5,365.5C 181.585,365.216 179.919,365.549 178.5,366.5C 176.585,366.216 174.919,366.549 173.5,367.5C 171.585,367.216 169.919,367.549 168.5,368.5C 166.585,368.216 164.919,368.549 163.5,369.5C 159.236,369.344 155.236,370.011 151.5,371.5C 147.5,371.5 143.5,371.5 139.5,371.5C 138.081,370.549 136.415,370.216 134.5,370.5C 132.735,369.539 130.735,369.205 128.5,369.5C 124.111,367.754 119.444,366.754 114.5,366.5C 105.03,363.802 95.3637,361.468 85.5,359.5C 78.9767,357.328 72.3101,355.328 65.5,353.5C 52.9594,349.73 41.2927,344.064 30.5,336.5C 30.5,335.833 30.1667,335.5 29.5,335.5C 28.205,334.512 26.8717,333.512 25.5,332.5C 25.5,331.833 25.1667,331.5 24.5,331.5C 22.1667,329.167 19.8333,326.833 17.5,324.5C 17.5,323.833 17.1667,323.5 16.5,323.5C 15.1363,321.809 13.803,320.142 12.5,318.5C 12.5,317.833 12.1667,317.5 11.5,317.5C 9.06987,312.963 6.4032,308.63 3.5,304.5C 3.73731,303.209 3.40397,302.209 2.5,301.5C 1.94586,298.254 0.94586,295.254 -0.5,292.5C -0.5,205.5 -0.5,118.5 -0.5,31.5C 2.01772,30.7362 4.35105,29.7362 6.5,28.5C 7.49162,28.6716 8.15829,28.3382 8.5,27.5C 9.79105,27.7373 10.791,27.404 11.5,26.5C 12.4916,26.6716 13.1583,26.3382 13.5,25.5C 20.3801,23.5412 27.0468,21.2079 33.5,18.5C 34.791,18.7373 35.791,18.404 36.5,17.5C 38.7857,17.405 40.7857,16.7384 42.5,15.5C 44.099,15.7678 45.4324,15.4345 46.5,14.5C 70.2446,7.68538 94.2446,2.68538 118.5,-0.5 Z"/></g>
<g><path style="opacity:1" fill="#a4a5a5" d="M 277.5,217.5 C 276.791,218.404 275.791,218.737 274.5,218.5C 274.5,220.833 274.5,223.167 274.5,225.5C 275.5,225.5 276.5,225.5 277.5,225.5C 277.5,228.167 277.5,230.833 277.5,233.5C 276.5,233.5 275.5,233.5 274.5,233.5C 276.148,231.544 276.815,229.211 276.5,226.5C 275.5,226.5 274.5,226.5 273.5,226.5C 273.5,223.5 273.5,220.5 273.5,217.5C 274.833,217.5 276.167,217.5 277.5,217.5 Z"/></g>
<g><path style="opacity:1" fill="#a9a9aa" d="M 277.5,126.5 C 276.791,127.404 275.791,127.737 274.5,127.5C 274.5,129.833 274.5,132.167 274.5,134.5C 275.5,134.5 276.5,134.5 277.5,134.5C 277.5,137.167 277.5,139.833 277.5,142.5C 276.5,142.5 275.5,142.5 274.5,142.5C 276.148,140.544 276.815,138.211 276.5,135.5C 275.5,135.5 274.5,135.5 273.5,135.5C 273.5,132.5 273.5,129.5 273.5,126.5C 274.833,126.5 276.167,126.5 277.5,126.5 Z"/></g>
<g><path style="opacity:1" fill="#afafaf" d="M 274.5,104.5 C 275.5,104.5 276.5,104.5 277.5,104.5C 277.5,107.167 277.5,109.833 277.5,112.5C 276.5,112.5 275.5,112.5 274.5,112.5C 274.5,114.833 274.5,117.167 274.5,119.5C 273.527,117.052 273.194,114.385 273.5,111.5C 274.5,111.5 275.5,111.5 276.5,111.5C 276.815,108.789 276.148,106.456 274.5,104.5 Z"/></g>
<g><path style="opacity:1" fill="#b2b3b4" d="M 276.5,43.5 C 277.473,45.9479 277.806,48.6146 277.5,51.5C 276.5,51.5 275.5,51.5 274.5,51.5C 274.5,54.1667 274.5,56.8333 274.5,59.5C 273.523,56.7131 273.19,53.7131 273.5,50.5C 274.5,50.5 275.5,50.5 276.5,50.5C 276.5,48.1667 276.5,45.8333 276.5,43.5 Z"/></g>
<g><path style="opacity:1" fill="#707171" d="M 11.5,43.5 C 11.5,45.8333 11.5,48.1667 11.5,50.5C 12.791,50.2627 13.791,50.596 14.5,51.5C 13.1667,51.5 11.8333,51.5 10.5,51.5C 10.1936,48.6146 10.5269,45.9479 11.5,43.5 Z"/></g>
<g><path style="opacity:1" fill="#f8f8f7" d="M 276.5,43.5 C 276.5,45.8333 276.5,48.1667 276.5,50.5C 275.5,50.5 274.5,50.5 273.5,50.5C 273.19,53.7131 273.523,56.7131 274.5,59.5C 275.15,59.1961 275.817,58.8627 276.5,58.5C 277.48,61.0865 277.813,63.7531 277.5,66.5C 276.5,66.5 275.5,66.5 274.5,66.5C 274.5,69.1667 274.5,71.8333 274.5,74.5C 275.5,74.5 276.5,74.5 277.5,74.5C 277.5,76.8333 277.5,79.1667 277.5,81.5C 276.5,81.5 275.5,81.5 274.5,81.5C 274.5,84.1667 274.5,86.8333 274.5,89.5C 275.5,89.5 276.5,89.5 277.5,89.5C 277.5,91.8333 277.5,94.1667 277.5,96.5C 276.5,96.5 275.5,96.5 274.5,96.5C 274.5,99.1667 274.5,101.833 274.5,104.5C 276.148,106.456 276.815,108.789 276.5,111.5C 275.5,111.5 274.5,111.5 273.5,111.5C 273.194,114.385 273.527,117.052 274.5,119.5C 275.5,119.5 276.5,119.5 277.5,119.5C 277.5,121.833 277.5,124.167 277.5,126.5C 276.167,126.5 274.833,126.5 273.5,126.5C 273.5,129.5 273.5,132.5 273.5,135.5C 274.5,135.5 275.5,135.5 276.5,135.5C 276.815,138.211 276.148,140.544 274.5,142.5C 274.5,145.167 274.5,147.833 274.5,150.5C 275.5,150.5 276.5,150.5 277.5,150.5C 277.5,152.833 277.5,155.167 277.5,157.5C 276.5,157.5 275.5,157.5 274.5,157.5C 274.5,160.167 274.5,162.833 274.5,165.5C 275.5,165.5 276.5,165.5 277.5,165.5C 277.5,167.833 277.5,170.167 277.5,172.5C 276.5,172.5 275.5,172.5 274.5,172.5C 274.5,175.167 274.5,177.833 274.5,180.5C 275.5,180.5 276.5,180.5 277.5,180.5C 277.5,182.833 277.5,185.167 277.5,187.5C 276.5,187.5 275.5,187.5 274.5,187.5C 274.5,190.167 274.5,192.833 274.5,195.5C 275.5,195.5 276.5,195.5 277.5,195.5C 277.813,198.247 277.48,200.914 276.5,203.5C 275.914,203.291 275.414,202.957 275,202.5C 274.503,205.146 274.336,207.813 274.5,210.5C 275.5,210.5 276.5,210.5 277.5,210.5C 277.5,212.833 277.5,215.167 277.5,217.5C 276.167,217.5 274.833,217.5 273.5,217.5C 273.5,220.5 273.5,223.5 273.5,226.5C 274.5,226.5 275.5,226.5 276.5,226.5C 276.815,229.211 276.148,231.544 274.5,233.5C 274.5,236.167 274.5,238.833 274.5,241.5C 275.5,241.5 276.5,241.5 277.5,241.5C 277.5,243.833 277.5,246.167 277.5,248.5C 276.5,248.5 275.5,248.5 274.5,248.5C 274.5,251.167 274.5,253.833 274.5,256.5C 275.5,256.5 276.5,256.5 277.5,256.5C 277.5,258.833 277.5,261.167 277.5,263.5C 276.5,263.5 275.5,263.5 274.5,263.5C 274.5,266.167 274.5,268.833 274.5,271.5C 275.5,271.5 276.5,271.5 277.5,271.5C 277.5,273.5 277.5,275.5 277.5,277.5C 276.5,277.5 275.5,277.5 274.5,277.5C 274.5,280.167 274.5,282.833 274.5,285.5C 275.5,285.5 276.5,285.5 277.5,285.5C 277.301,287.96 276.635,290.293 275.5,292.5C 274.575,291.359 273.741,291.359 273,292.5C 272.069,294.459 271.236,296.459 270.5,298.5C 271.5,299.167 272.5,299.833 273.5,300.5C 272.586,302.664 271.419,304.664 270,306.5C 269.333,305.833 268.667,305.167 268,304.5C 266.426,305.984 265.093,307.651 264,309.5C 263.667,311.047 264.167,312.38 265.5,313.5C 264.478,314.354 263.645,315.354 263,316.5C 261.213,317.343 259.38,317.51 257.5,317C 255.981,318.351 254.648,319.851 253.5,321.5C 254.326,322.451 254.492,323.451 254,324.5C 252.745,325.211 251.579,326.044 250.5,327C 249.223,327.127 248.057,326.627 247,325.5C 245.263,326.62 243.429,327.62 241.5,328.5C 241.277,329.967 240.944,331.467 240.5,333C 238.105,335.145 235.938,334.978 234,332.5C 232.184,333.329 230.351,334.163 228.5,335C 227.62,336.356 227.286,337.856 227.5,339.5C 225.94,339.519 224.44,339.852 223,340.5C 220.302,338.308 217.469,338.308 214.5,340.5C 212.39,345.68 209.556,346.347 206,342.5C 203.993,343.669 201.827,344.335 199.5,344.5C 199.5,345.833 199.5,347.167 199.5,348.5C 197.139,348.674 194.806,349.007 192.5,349.5C 192.5,348.5 192.5,347.5 192.5,346.5C 189.873,347.092 187.206,347.425 184.5,347.5C 184.5,349.167 184.5,350.833 184.5,352.5C 182.167,352.5 179.833,352.5 177.5,352.5C 177.649,351.448 177.483,350.448 177,349.5C 175.266,350.249 173.433,350.749 171.5,351C 169.893,352.049 169.227,353.549 169.5,355.5C 167.167,355.5 164.833,355.5 162.5,355.5C 162.719,354.325 162.386,353.325 161.5,352.5C 159.253,353.374 156.92,353.708 154.5,353.5C 154.5,354.833 154.5,356.167 154.5,357.5C 150.007,358.14 145.674,357.14 141.5,354.5C 140.833,355.833 140.167,357.167 139.5,358.5C 137.591,357.652 135.591,357.318 133.5,357.5C 133.5,356.167 133.5,354.833 133.5,353.5C 130.794,353.425 128.127,353.092 125.5,352.5C 125.719,353.675 125.386,354.675 124.5,355.5C 122.591,354.652 120.591,354.318 118.5,354.5C 118.5,353.167 118.5,351.833 118.5,350.5C 116.08,350.708 113.747,350.374 111.5,349.5C 110.614,350.325 110.281,351.325 110.5,352.5C 108.473,352.662 106.473,352.495 104.5,352C 103.62,350.644 103.286,349.144 103.5,347.5C 101.208,347.756 99.0408,347.423 97,346.5C 96.5172,347.448 96.3505,348.448 96.5,349.5C 92.0685,350.47 89.7352,348.803 89.5,344.5C 84.4589,344.208 79.4589,344.208 74.5,344.5C 74.9816,340.478 73.1482,338.478 69,338.5C 66.4207,340.659 63.5874,340.992 60.5,339.5C 60.33,338.178 60.6634,337.011 61.5,336C 59.1667,334.833 56.8333,333.667 54.5,332.5C 52.4012,334.817 50.0679,334.983 47.5,333C 47.0563,331.467 46.723,329.967 46.5,328.5C 44.9991,327.248 43.3325,326.248 41.5,325.5C 38.4599,327.678 36.1265,326.845 34.5,323C 35.5201,320.922 34.8534,319.255 32.5,318C 30.8904,316.505 29.2237,316.339 27.5,317.5C 23.6834,315.963 23.0167,313.796 25.5,311C 23.9544,308.743 22.2877,306.576 20.5,304.5C 17.4982,305.704 15.8315,304.537 15.5,301C 17.9261,297.805 17.7594,294.639 15,291.5C 14,292.833 13,292.833 12,291.5C 11.5045,289.527 11.3379,287.527 11.5,285.5C 12.5,285.5 13.5,285.5 14.5,285.5C 14.5,282.833 14.5,280.167 14.5,277.5C 13.5,277.5 12.5,277.5 11.5,277.5C 11.5,275.5 11.5,273.5 11.5,271.5C 12.5,271.5 13.5,271.5 14.5,271.5C 14.5,268.833 14.5,266.167 14.5,263.5C 13.5,263.5 12.5,263.5 11.5,263.5C 11.5,261.167 11.5,258.833 11.5,256.5C 12.5,256.5 13.5,256.5 14.5,256.5C 14.5,253.833 14.5,251.167 14.5,248.5C 13.5,248.5 12.5,248.5 11.5,248.5C 11.5,245.833 11.5,243.167 11.5,240.5C 12.5,240.5 13.5,240.5 14.5,240.5C 14.5,238.167 14.5,235.833 14.5,233.5C 13.5,233.5 12.5,233.5 11.5,233.5C 11.5,230.833 11.5,228.167 11.5,225.5C 12.5,225.5 13.5,225.5 14.5,225.5C 14.5,223.167 14.5,220.833 14.5,218.5C 13.5,218.5 12.5,218.5 11.5,218.5C 11.5,215.833 11.5,213.167 11.5,210.5C 12.5,210.5 13.5,210.5 14.5,210.5C 14.5,207.833 14.5,205.167 14.5,202.5C 13.5,202.5 12.5,202.5 11.5,202.5C 11.5,200.167 11.5,197.833 11.5,195.5C 12.5,195.5 13.5,195.5 14.5,195.5C 14.5,192.833 14.5,190.167 14.5,187.5C 13.5,187.5 12.5,187.5 11.5,187.5C 11.5,185.167 11.5,182.833 11.5,180.5C 12.5,180.5 13.5,180.5 14.5,180.5C 14.5,177.833 14.5,175.167 14.5,172.5C 13.5,172.5 12.5,172.5 11.5,172.5C 11.5,170.167 11.5,167.833 11.5,165.5C 12.5,165.5 13.5,165.5 14.5,165.5C 14.5,162.833 14.5,160.167 14.5,157.5C 13.5,157.5 12.5,157.5 11.5,157.5C 11.5,155.167 11.5,152.833 11.5,150.5C 12.5,150.5 13.5,150.5 14.5,150.5C 14.5,147.833 14.5,145.167 14.5,142.5C 13.5,142.5 12.5,142.5 11.5,142.5C 11.5,139.833 11.5,137.167 11.5,134.5C 12.5,134.5 13.5,134.5 14.5,134.5C 14.5,132.167 14.5,129.833 14.5,127.5C 13.5,127.5 12.5,127.5 11.5,127.5C 11.5,124.833 11.5,122.167 11.5,119.5C 12.5,119.5 13.5,119.5 14.5,119.5C 14.5,117.167 14.5,114.833 14.5,112.5C 13.5,112.5 12.5,112.5 11.5,112.5C 11.5,109.833 11.5,107.167 11.5,104.5C 12.5,104.5 13.5,104.5 14.5,104.5C 14.5,101.833 14.5,99.1667 14.5,96.5C 13.5,96.5 12.5,96.5 11.5,96.5C 11.5,94.1667 11.5,91.8333 11.5,89.5C 12.5,89.5 13.5,89.5 14.5,89.5C 14.5,86.8333 14.5,84.1667 14.5,81.5C 13.5,81.5 12.5,81.5 11.5,81.5C 11.5,79.1667 11.5,76.8333 11.5,74.5C 12.5,74.5 13.5,74.5 14.5,74.5C 14.5,71.8333 14.5,69.1667 14.5,66.5C 13.5,66.5 12.5,66.5 11.5,66.5C 11.5,63.8333 11.5,61.1667 11.5,58.5C 12.5,58.5 13.5,58.5 14.5,58.5C 14.5,56.1667 14.5,53.8333 14.5,51.5C 13.791,50.596 12.791,50.2627 11.5,50.5C 11.5,48.1667 11.5,45.8333 11.5,43.5C 13.1172,42.962 14.7839,42.6287 16.5,42.5C 16.5,40.8333 16.5,39.1667 16.5,37.5C 18.0603,37.4809 19.5603,37.1476 21,36.5C 23.77,38.9442 26.6033,38.9442 29.5,36.5C 30.4287,35.3112 30.762,33.9778 30.5,32.5C 32.1986,32.3796 33.8653,32.0463 35.5,31.5C 38.1079,33.9778 40.7746,33.9778 43.5,31.5C 44.4287,30.3112 44.762,28.9778 44.5,27.5C 49.4589,27.7923 54.4589,27.7923 59.5,27.5C 60.3506,22.275 63.0173,21.275 67.5,24.5C 69.4534,23.8444 71.4534,23.5111 73.5,23.5C 73.5,22.1667 73.5,20.8333 73.5,19.5C 75.8056,19.0074 78.139,18.6741 80.5,18.5C 80.281,19.675 80.6143,20.675 81.5,21.5C 83.7466,20.6258 86.0799,20.2924 88.5,20.5C 88.7352,16.1965 91.0685,14.5298 95.5,15.5C 95.5,16.5 95.5,17.5 95.5,18.5C 98.1272,17.9084 100.794,17.5751 103.5,17.5C 103.5,16.1667 103.5,14.8333 103.5,13.5C 105.833,13.5 108.167,13.5 110.5,13.5C 110.281,14.675 110.614,15.675 111.5,16.5C 113.747,15.6258 116.08,15.2924 118.5,15.5C 118.5,14.5 118.5,13.5 118.5,12.5C 120.5,12.5 122.5,12.5 124.5,12.5C 124.5,13.5 124.5,14.5 124.5,15.5C 127.713,15.81 130.713,15.4767 133.5,14.5C 133.5,13.5 133.5,12.5 133.5,11.5C 135.833,11.5 138.167,11.5 140.5,11.5C 140.5,12.5 140.5,13.5 140.5,14.5C 143.167,14.5 145.833,14.5 148.5,14.5C 148.5,13.5 148.5,12.5 148.5,11.5C 150.833,11.5 153.167,11.5 155.5,11.5C 155.5,12.8333 155.5,14.1667 155.5,15.5C 158.167,15.5 160.833,15.5 163.5,15.5C 163.5,14.1667 163.5,12.8333 163.5,11.5C 165.806,11.9926 168.139,12.3259 170.5,12.5C 170.5,13.5 170.5,14.5 170.5,15.5C 173.206,15.5751 175.873,15.9084 178.5,16.5C 178.5,15.5 178.5,14.5 178.5,13.5C 180.833,13.5 183.167,13.5 185.5,13.5C 185.5,14.8333 185.5,16.1667 185.5,17.5C 188.167,17.8333 190.833,18.1667 193.5,18.5C 193.5,17.5 193.5,16.5 193.5,15.5C 195.861,15.6741 198.194,16.0074 200.5,16.5C 200.5,17.8333 200.5,19.1667 200.5,20.5C 203.206,20.5751 205.873,20.9084 208.5,21.5C 208.281,20.325 208.614,19.325 209.5,18.5C 211.409,19.3482 213.409,19.6816 215.5,19.5C 215.5,20.8333 215.5,22.1667 215.5,23.5C 217.677,23.5861 219.677,24.2528 221.5,25.5C 222.386,24.675 222.719,23.675 222.5,22.5C 224.806,22.9926 227.139,23.3259 229.5,23.5C 229.5,24.8333 229.5,26.1667 229.5,27.5C 232.167,28.1667 234.833,28.8333 237.5,29.5C 237.5,28.5 237.5,27.5 237.5,26.5C 239.806,26.9926 242.139,27.3259 244.5,27.5C 244.034,29.2012 244.034,30.7012 244.5,32C 247.571,33.7308 250.404,33.5642 253,31.5C 254.766,32.2335 256.599,32.5668 258.5,32.5C 258.286,34.1439 258.62,35.6439 259.5,37C 261.421,37.3603 263.088,38.1936 264.5,39.5C 265.386,38.675 265.719,37.675 265.5,36.5C 270.141,36.1078 272.474,38.1078 272.5,42.5C 273.959,42.4326 275.292,42.7659 276.5,43.5 Z"/></g>
<g><path style="opacity:1" fill="#c39e53" d="M 124.5,26.5 C 159.836,25.1117 194.503,29.2784 228.5,39C 239.75,43.1273 251.083,46.9606 262.5,50.5C 262.667,129.834 262.5,209.167 262,288.5C 258.13,299.694 251.297,308.527 241.5,315C 222.681,325.496 202.681,332.829 181.5,337C 168.717,339.445 155.884,341.612 143,343.5C 121.539,340.34 100.372,335.84 79.5,330C 62.4689,325.223 47.6356,316.723 35,304.5C 31.8891,300.613 29.5557,296.28 28,291.5C 26.3448,211.21 26.0114,130.877 27,50.5C 58.5321,38.2305 91.0321,30.2305 124.5,26.5 Z"/></g>
<g><path style="opacity:1" fill="#fdfcfc" d="M 120.5,33.5 C 166.954,31.2423 211.787,38.5757 255,55.5C 255.667,132.833 255.667,210.167 255,287.5C 251.763,297.404 245.597,304.904 236.5,310C 223.19,317.32 209.19,322.987 194.5,327C 177.328,331.001 159.995,334.168 142.5,336.5C 117.456,333.322 93.1231,327.488 69.5,319C 56.3799,314.203 45.5466,306.37 37,295.5C 36.1853,293.377 35.1853,291.377 34,289.5C 33.5,211.167 33.3333,132.834 33.5,54.5C 61.8876,44.4855 90.8876,37.4855 120.5,33.5 Z"/></g>
<g><path style="opacity:1" fill="#abacad" d="M 51.5,268.5 C 52.209,267.596 53.209,267.263 54.5,267.5C 54.8235,274.022 54.4902,280.355 53.5,286.5C 54.12,280.074 53.4533,274.074 51.5,268.5 Z"/></g>
<g><path style="opacity:1" fill="#0e0c0c" d="M 219.5,262.5 C 222.833,262.5 226.167,262.5 229.5,262.5C 228.87,266.901 230.203,270.568 233.5,273.5C 236.797,270.568 238.13,266.901 237.5,262.5C 240.5,262.5 243.5,262.5 246.5,262.5C 244.184,268.791 241.018,274.791 237,280.5C 236.675,284.642 237.175,288.642 238.5,292.5C 234.833,292.5 231.167,292.5 227.5,292.5C 228.825,288.642 229.325,284.642 229,280.5C 226.247,275.992 223.247,271.659 220,267.5C 219.506,265.866 219.34,264.199 219.5,262.5 Z"/></g>
<g><path style="opacity:1" fill="#0e0c0d" d="M 168.5,262.5 C 172.833,262.5 177.167,262.5 181.5,262.5C 183.846,272.576 186.179,282.576 188.5,292.5C 184.833,292.5 181.167,292.5 177.5,292.5C 177.704,289.482 178.037,286.482 178.5,283.5C 175.833,283.5 173.167,283.5 170.5,283.5C 170.963,286.482 171.296,289.482 171.5,292.5C 168.167,292.5 164.833,292.5 161.5,292.5C 164.443,282.723 166.776,272.723 168.5,262.5 Z"/></g>
<g><path style="opacity:1" fill="#787878" d="M 176.5,276.5 C 177.434,277.568 177.768,278.901 177.5,280.5C 175.265,280.795 173.265,280.461 171.5,279.5C 173.167,279.5 174.833,279.5 176.5,279.5C 176.5,278.5 176.5,277.5 176.5,276.5 Z"/></g>
<g><path style="opacity:1" fill="#e2e2e2" d="M 176.5,276.5 C 176.5,277.5 176.5,278.5 176.5,279.5C 174.833,279.5 173.167,279.5 171.5,279.5C 171.722,275.613 172.722,271.946 174.5,268.5C 175.795,271.012 176.461,273.679 176.5,276.5 Z"/></g>
<g><path style="opacity:1" fill="#100e0f" d="M 90.5,287.5 C 91.4345,286.432 91.7678,285.099 91.5,283.5C 88.5,283.5 85.5,283.5 82.5,283.5C 82.2322,285.099 82.5655,286.432 83.5,287.5C 84.4511,288.919 84.7845,290.585 84.5,292.5C 81.1667,292.5 77.8333,292.5 74.5,292.5C 76.4439,282.862 78.6106,273.196 81,263.5C 85.3333,262.167 89.6667,262.167 94,263.5C 96.2257,273.325 98.7257,282.992 101.5,292.5C 97.5,292.5 93.5,292.5 89.5,292.5C 89.2155,290.585 89.5489,288.919 90.5,287.5 Z"/></g>
<g><path style="opacity:1" fill="#acacac" d="M 90.5,287.5 C 90.5,286.5 90.5,285.5 90.5,284.5C 88.1667,284.5 85.8333,284.5 83.5,284.5C 83.5,285.5 83.5,286.5 83.5,287.5C 82.5655,286.432 82.2322,285.099 82.5,283.5C 85.5,283.5 88.5,283.5 91.5,283.5C 91.7678,285.099 91.4345,286.432 90.5,287.5 Z"/></g>
<g><path style="opacity:1" fill="#767777" d="M 84.5,277.5 C 85.5521,279.256 87.2188,279.923 89.5,279.5C 87.7354,280.461 85.7354,280.795 83.5,280.5C 83.2627,279.209 83.596,278.209 84.5,277.5 Z"/></g>
<g><path style="opacity:1" fill="#e0dfdf" d="M 89.5,279.5 C 87.2188,279.923 85.5521,279.256 84.5,277.5C 84.8442,274.438 85.5109,271.438 86.5,268.5C 88.8793,271.757 89.8793,275.424 89.5,279.5 Z"/></g>
<g><path style="opacity:1" fill="#110f10" d="M 190.5,262.5 C 197.896,262.2 205.229,262.7 212.5,264C 217.038,265.713 218.538,268.88 217,273.5C 216.167,275.667 214.667,277.167 212.5,278C 213.931,278.465 215.097,279.299 216,280.5C 216.642,284.491 217.142,288.491 217.5,292.5C 214.5,292.5 211.5,292.5 208.5,292.5C 208.665,288.818 208.499,285.152 208,281.5C 205.619,280.565 203.119,280.232 200.5,280.5C 200.689,284.64 201.356,288.64 202.5,292.5C 198.5,292.5 194.5,292.5 190.5,292.5C 193.167,282.5 193.167,272.5 190.5,262.5 Z"/></g>
<g><path style="opacity:1" fill="#ebebeb" d="M 200.5,267.5 C 202.857,267.337 205.19,267.503 207.5,268C 210.167,270.333 210.167,272.667 207.5,275C 205.19,275.497 202.857,275.663 200.5,275.5C 200.5,272.833 200.5,270.167 200.5,267.5 Z"/></g>
<g><path style="opacity:1" fill="#0e0d0d" d="M 131.5,262.5 C 135.5,262.5 139.5,262.5 143.5,262.5C 141.717,270.057 141.217,277.724 142,285.5C 144.667,288.167 147.333,288.167 150,285.5C 150.667,279.833 150.667,274.167 150,268.5C 148.681,266.75 148.181,264.75 148.5,262.5C 151.833,262.5 155.167,262.5 158.5,262.5C 156.871,270.976 156.038,279.642 156,288.5C 153.131,291.886 149.464,293.219 145,292.5C 140.061,293.518 136.394,291.851 134,287.5C 133.823,279.066 132.99,270.732 131.5,262.5 Z"/></g>
<g><path style="opacity:1" fill="#0e0c0c" d="M 107.5,262.5 C 114.202,262.336 120.869,262.669 127.5,263.5C 127.5,266.5 127.5,269.5 127.5,272.5C 125.167,272.5 122.833,272.5 120.5,272.5C 120.178,268.024 117.844,266.524 113.5,268C 113,268.5 112.5,269 112,269.5C 111.333,274.833 111.333,280.167 112,285.5C 117.836,289.153 120.669,287.486 120.5,280.5C 122.833,280.5 125.167,280.5 127.5,280.5C 127.5,284.167 127.5,287.833 127.5,291.5C 120.862,292.498 114.195,292.665 107.5,292C 106.667,291.167 105.833,290.333 105,289.5C 103.402,281.939 103.069,274.272 104,266.5C 105.376,265.295 106.542,263.962 107.5,262.5 Z"/></g>
<g><path style="opacity:1" fill="#100e0f" d="M 53.5,286.5 C 54.4902,280.355 54.8235,274.022 54.5,267.5C 53.209,267.263 52.209,267.596 51.5,268.5C 49.7202,269.99 49.0535,271.99 49.5,274.5C 47.5,274.5 45.5,274.5 43.5,274.5C 43.5,270.5 43.5,266.5 43.5,262.5C 53.1667,262.5 62.8333,262.5 72.5,262.5C 72.5,266.5 72.5,270.5 72.5,274.5C 70.5,274.5 68.5,274.5 66.5,274.5C 67.0934,271.404 66.0934,269.071 63.5,267.5C 62.3335,275.835 62.3335,284.169 63.5,292.5C 59.8333,292.5 56.1667,292.5 52.5,292.5C 52.3253,290.379 52.6586,288.379 53.5,286.5 Z"/></g>
<g><path style="opacity:1" fill="#4b4a4a" d="M 135.5,238.5 C 137.265,237.539 139.265,237.205 141.5,237.5C 141.5,241.167 141.5,244.833 141.5,248.5C 140.521,245.375 140.187,242.042 140.5,238.5C 138.833,238.5 137.167,238.5 135.5,238.5 Z"/></g>
<g><path style="opacity:1" fill="#121212" d="M 114.5,223.5 C 115.388,226.054 115.721,228.721 115.5,231.5C 113.5,231.5 111.5,231.5 109.5,231.5C 108.467,227.683 106.133,226.683 102.5,228.5C 101.386,233.446 101.219,238.446 102,243.5C 106.836,246.821 109.336,245.488 109.5,239.5C 111.5,239.5 113.5,239.5 115.5,239.5C 115.5,242.5 115.5,245.5 115.5,248.5C 110.296,250.254 104.963,250.754 99.5,250C 98.4214,249.044 97.2547,248.211 96,247.5C 94.4492,240.582 94.1158,233.582 95,226.5C 96.1667,225.333 97.3333,224.167 98.5,223C 103.885,222.267 109.218,222.433 114.5,223.5 Z"/></g>
<g><path style="opacity:1" fill="#646363" d="M 128.5,228.5 C 128.5,233.833 128.5,239.167 128.5,244.5C 130.167,244.5 131.833,244.5 133.5,244.5C 131.735,245.461 129.735,245.795 127.5,245.5C 127.178,239.642 127.511,233.975 128.5,228.5 Z"/></g>
<g><path style="opacity:1" fill="#ababab" d="M 114.5,223.5 C 116.388,225.988 117.055,228.988 116.5,232.5C 113.941,232.802 111.607,232.468 109.5,231.5C 111.5,231.5 113.5,231.5 115.5,231.5C 115.721,228.721 115.388,226.054 114.5,223.5 Z"/></g>
<g><path style="opacity:1" fill="#111111" d="M 158.5,227.5 C 158.5,226.167 158.5,224.833 158.5,223.5C 161.5,223.5 164.5,223.5 167.5,223.5C 166.084,231.378 164.917,239.378 164,247.5C 157.668,251.781 151.668,251.448 146,246.5C 144.836,238.872 144.002,231.205 143.5,223.5C 146.833,223.5 150.167,223.5 153.5,223.5C 152.078,227.281 151.412,231.281 151.5,235.5C 151.296,238.906 151.962,242.072 153.5,245C 155.701,245.825 157.534,245.325 159,243.5C 159.817,237.984 159.651,232.65 158.5,227.5 Z"/></g>
<g><path style="opacity:1" fill="#0a0909" d="M 128.5,228.5 C 127.511,233.975 127.178,239.642 127.5,245.5C 129.735,245.795 131.735,245.461 133.5,244.5C 135.28,243.01 135.946,241.01 135.5,238.5C 137.167,238.5 138.833,238.5 140.5,238.5C 140.187,242.042 140.521,245.375 141.5,248.5C 134.352,249.492 127.019,249.825 119.5,249.5C 120.953,245.384 121.62,241.051 121.5,236.5C 121.62,231.949 120.953,227.616 119.5,223.5C 122.833,223.5 126.167,223.5 129.5,223.5C 129.634,225.292 129.301,226.958 128.5,228.5 Z"/></g>
<g><path style="opacity:1" fill="#101010" d="M 170.5,223.5 C 177.615,223.075 184.615,223.575 191.5,225C 194.631,229.43 193.964,233.097 189.5,236C 196.059,240.245 196.059,244.578 189.5,249C 183.175,249.5 176.842,249.666 170.5,249.5C 173.12,240.899 173.12,232.233 170.5,223.5 Z"/></g>
<g><path style="opacity:1" fill="#878687" d="M 185.5,238.5 C 183.5,238.5 181.5,238.5 179.5,238.5C 179.5,240.5 179.5,242.5 179.5,244.5C 178.532,242.393 178.198,240.059 178.5,237.5C 181.059,237.198 183.393,237.532 185.5,238.5 Z"/></g>
<g><path style="opacity:1" fill="#f3f3f3" d="M 185.5,238.5 C 187.377,239.659 187.877,241.326 187,243.5C 184.619,244.435 182.119,244.768 179.5,244.5C 179.5,242.5 179.5,240.5 179.5,238.5C 181.5,238.5 183.5,238.5 185.5,238.5 Z"/></g>
<g><path style="opacity:1" fill="#8f8e8f" d="M 185.5,228.5 C 183.5,228.5 181.5,228.5 179.5,228.5C 179.5,230.167 179.5,231.833 179.5,233.5C 178.539,231.735 178.205,229.735 178.5,227.5C 181.059,227.198 183.393,227.532 185.5,228.5 Z"/></g>
<g><path style="opacity:1" fill="#f7f7f7" d="M 185.5,228.5 C 186.801,229.884 186.801,231.384 185.5,233C 183.527,233.495 181.527,233.662 179.5,233.5C 179.5,231.833 179.5,230.167 179.5,228.5C 181.5,228.5 183.5,228.5 185.5,228.5 Z"/></g>
<g><path style="opacity:1" fill="#878888" d="M 167.5,223.5 C 164.5,223.5 161.5,223.5 158.5,223.5C 158.5,224.833 158.5,226.167 158.5,227.5C 157.549,226.081 157.216,224.415 157.5,222.5C 161.042,222.187 164.375,222.521 167.5,223.5 Z"/></g>
<g><path style="opacity:1" fill="#cdb183" d="M 124.5,201.5 C 122.052,202.473 119.385,202.806 116.5,202.5C 116.5,205.167 116.5,207.833 116.5,210.5C 139.5,210.5 162.5,210.5 185.5,210.5C 162.339,211.498 139.006,211.831 115.5,211.5C 115.5,208.167 115.5,204.833 115.5,201.5C 118.5,201.5 121.5,201.5 124.5,201.5 Z"/></g>
<g><path style="opacity:1" fill="#c19b49" d="M 177.5,77.5 C 177.5,83.8333 177.5,90.1667 177.5,96.5C 174.167,96.5 170.833,96.5 167.5,96.5C 164.6,83.1817 157.6,72.6817 146.5,65C 126.205,57.5629 112.371,64.0629 105,84.5C 103.892,88.0863 103.392,91.753 103.5,95.5C 102.167,97.1667 102.167,98.8333 103.5,100.5C 138.329,101.498 173.329,101.832 208.5,101.5C 208.832,111.855 208.499,122.188 207.5,132.5C 204.803,131.831 202.137,131.164 199.5,130.5C 195.818,123.643 191.151,117.476 185.5,112C 179.621,110.59 173.621,110.09 167.5,110.5C 167.334,119.839 167.5,129.173 168,138.5C 170,135.833 172,133.167 174,130.5C 177.167,132.333 180.333,134.167 183.5,136C 179.794,143.701 174.627,150.201 168,155.5C 167.333,169.5 167.333,183.5 168,197.5C 168.903,198.701 170.069,199.535 171.5,200C 175.832,200.916 180.165,201.749 184.5,202.5C 185.48,205.086 185.813,207.753 185.5,210.5C 162.5,210.5 139.5,210.5 116.5,210.5C 116.5,207.833 116.5,205.167 116.5,202.5C 119.385,202.806 122.052,202.473 124.5,201.5C 126.854,201.162 129.187,200.662 131.5,200C 132.823,199.184 133.489,198.017 133.5,196.5C 134.33,187.009 134.83,177.342 135,167.5C 136.44,166.07 136.774,164.403 136,162.5C 135.583,163.756 134.75,164.423 133.5,164.5C 133.5,162.167 133.5,159.833 133.5,157.5C 127.495,157.671 122.162,156.004 117.5,152.5C 119.415,152.784 121.081,152.451 122.5,151.5C 124.913,153.051 127.579,153.717 130.5,153.5C 131.568,154.434 132.901,154.768 134.5,154.5C 134.5,139.5 134.5,124.5 134.5,109.5C 130.629,109.185 126.962,109.518 123.5,110.5C 120.68,110.248 118.014,110.748 115.5,112C 111.248,115.581 107.748,119.748 105,124.5C 104.681,128.717 105.514,132.717 107.5,136.5C 106.094,136.973 105.427,137.973 105.5,139.5C 101.961,133.388 99.794,126.721 99,119.5C 96.7016,102.624 99.3683,86.6237 107,71.5C 116.629,58.6406 129.129,54.8072 144.5,60C 157.388,66.8938 165.888,77.3938 170,91.5C 171.356,92.3802 172.856,92.7135 174.5,92.5C 174.13,80.8346 173.796,69.168 173.5,57.5C 171.801,57.3398 170.134,57.5065 168.5,58C 166.983,59.6851 165.316,61.1851 163.5,62.5C 137.783,50.4285 113.116,52.2618 89.5,68C 71.8094,84.2487 65.9761,104.082 72,127.5C 78.4373,145.604 90.9373,157.104 109.5,162C 115.129,163.16 120.796,163.993 126.5,164.5C 128.698,165.165 131.031,165.832 133.5,166.5C 128.88,167.493 124.214,167.827 119.5,167.5C 85.7581,162.59 67.7581,143.09 65.5,109C 69.2419,77.252 86.9086,58.252 118.5,52C 133.682,49.9786 148.348,51.8119 162.5,57.5C 164.556,56.9524 166.223,55.7858 167.5,54C 170.817,53.5017 174.15,53.335 177.5,53.5C 177.5,61.5 177.5,69.5 177.5,77.5 Z"/></g>
<g><path style="opacity:1" fill="#d0b178" d="M 133.5,196.5 C 133.5,187.167 133.5,177.833 133.5,168.5C 128.637,168.819 123.97,168.486 119.5,167.5C 124.214,167.827 128.88,167.493 133.5,166.5C 131.031,165.832 128.698,165.165 126.5,164.5C 128.833,164.5 131.167,164.5 133.5,164.5C 134.75,164.423 135.583,163.756 136,162.5C 136.774,164.403 136.44,166.07 135,167.5C 134.83,177.342 134.33,187.009 133.5,196.5 Z"/></g>
<g><path style="opacity:1" fill="#d3a32d" d="M 107.5,136.5 C 110.855,143.188 115.855,148.188 122.5,151.5C 121.081,152.451 119.415,152.784 117.5,152.5C 112.091,149.426 108.091,145.092 105.5,139.5C 105.427,137.973 106.094,136.973 107.5,136.5 Z"/></g>
<g><path style="opacity:1" fill="#130e06" d="M 174.5,135.5 C 176.09,135.628 177.423,136.295 178.5,137.5C 175.577,142.591 172.077,147.258 168,151.5C 167.333,149.167 167.333,146.833 168,144.5C 170.385,141.621 172.552,138.621 174.5,135.5 Z"/></g>
<g><path style="opacity:1" fill="#ddc9a6" d="M 123.5,110.5 C 126.962,109.518 130.629,109.185 134.5,109.5C 134.5,124.5 134.5,139.5 134.5,154.5C 132.901,154.768 131.568,154.434 130.5,153.5C 131.5,153.5 132.5,153.5 133.5,153.5C 133.5,139.167 133.5,124.833 133.5,110.5C 130.167,110.5 126.833,110.5 123.5,110.5 Z"/></g>
<g><path style="opacity:1" fill="#fefdfc" d="M 123.5,110.5 C 126.833,110.5 130.167,110.5 133.5,110.5C 133.5,124.833 133.5,139.167 133.5,153.5C 132.5,153.5 131.5,153.5 130.5,153.5C 127.579,153.717 124.913,153.051 122.5,151.5C 115.855,148.188 110.855,143.188 107.5,136.5C 105.514,132.717 104.681,128.717 105,124.5C 107.748,119.748 111.248,115.581 115.5,112C 118.014,110.748 120.68,110.248 123.5,110.5 Z"/></g>
<g><path style="opacity:1" fill="#130f07" d="M 102.5,103.5 C 136.833,103.5 171.167,103.5 205.5,103.5C 205.5,112.5 205.5,121.5 205.5,130.5C 204.325,130.719 203.325,130.386 202.5,129.5C 198.857,119.707 192.524,112.207 183.5,107C 176.842,106.5 170.175,106.334 163.5,106.5C 163.333,136.835 163.5,167.168 164,197.5C 164.785,199.286 165.951,200.786 167.5,202C 172.11,203.688 176.777,205.188 181.5,206.5C 160.833,207.833 140.167,207.833 119.5,206.5C 124.241,205.648 128.908,204.481 133.5,203C 135.049,201.786 136.215,200.286 137,198.5C 137.5,167.835 137.667,137.168 137.5,106.5C 122.992,102.737 111.825,107.07 104,119.5C 103.433,114.166 102.933,108.833 102.5,103.5 Z"/></g>
<g><path style="opacity:1" fill="#09060a" d="M 140.5,105.5 C 147.167,106.833 153.833,106.833 160.5,105.5C 160.553,135.142 160.72,164.808 161,194.5C 161.147,197.571 161.98,200.404 163.5,203C 163.043,203.414 162.709,203.914 162.5,204.5C 153.853,205.665 145.186,205.832 136.5,205C 136.966,202.347 137.8,199.513 139,196.5C 139.175,166.095 139.675,135.762 140.5,105.5 Z"/></g>
<g><path style="opacity:1" fill="#bd8f1a" d="M 103.5,100.5 C 138.833,100.5 174.167,100.5 209.5,100.5C 209.5,111.5 209.5,122.5 209.5,133.5C 206.167,133.5 202.833,133.5 199.5,133.5C 199.5,132.5 199.5,131.5 199.5,130.5C 202.137,131.164 204.803,131.831 207.5,132.5C 208.499,122.188 208.832,111.855 208.5,101.5C 173.329,101.832 138.329,101.498 103.5,100.5 Z"/></g>
<g><path style="opacity:1" fill="#dbd1c0" d="M 103.5,95.5 C 103.5,96.8333 103.5,98.1667 103.5,99.5C 139.004,99.1683 174.337,99.5016 209.5,100.5C 174.167,100.5 138.833,100.5 103.5,100.5C 102.167,98.8333 102.167,97.1667 103.5,95.5 Z"/></g>
<g><path style="opacity:1" fill="#dcc6ab" d="M 177.5,77.5 C 178.491,83.979 178.824,90.6457 178.5,97.5C 174.629,97.815 170.962,97.4816 167.5,96.5C 170.833,96.5 174.167,96.5 177.5,96.5C 177.5,90.1667 177.5,83.8333 177.5,77.5 Z"/></g>
<g><path style="opacity:1" fill="#080605" d="M 105.5,139.5 C 108.091,145.092 112.091,149.426 117.5,152.5C 122.162,156.004 127.495,157.671 133.5,157.5C 133.5,159.833 133.5,162.167 133.5,164.5C 131.167,164.5 128.833,164.5 126.5,164.5C 120.796,163.993 115.129,163.16 109.5,162C 90.9373,157.104 78.4373,145.604 72,127.5C 65.9761,104.082 71.8094,84.2487 89.5,68C 113.116,52.2618 137.783,50.4285 163.5,62.5C 165.316,61.1851 166.983,59.6851 168.5,58C 170.134,57.5065 171.801,57.3398 173.5,57.5C 173.796,69.168 174.13,80.8346 174.5,92.5C 172.856,92.7135 171.356,92.3802 170,91.5C 165.888,77.3938 157.388,66.8938 144.5,60C 129.129,54.8072 116.629,58.6406 107,71.5C 99.3683,86.6237 96.7016,102.624 99,119.5C 99.794,126.721 101.961,133.388 105.5,139.5 Z"/></g>
<g><path style="opacity:1" fill="#808080" d="M 118.5,12.5 C 120.607,11.5318 122.941,11.1984 125.5,11.5C 125.5,12.5 125.5,13.5 125.5,14.5C 128.167,14.5 130.833,14.5 133.5,14.5C 130.713,15.4767 127.713,15.81 124.5,15.5C 124.5,14.5 124.5,13.5 124.5,12.5C 122.5,12.5 120.5,12.5 118.5,12.5 Z"/></g>
<g><path style="opacity:0.008" fill="#000000" d="M -0.5,296.5 C 0.833333,297.5 0.833333,298.5 -0.5,299.5C -0.5,298.5 -0.5,297.5 -0.5,296.5 Z"/></g>
<g><path style="opacity:0.008" fill="#000000" d="M 289.5,296.5 C 289.5,297.5 289.5,298.5 289.5,299.5C 289.167,299.5 288.833,299.5 288.5,299.5C 288.263,298.209 288.596,297.209 289.5,296.5 Z"/></g>
<g><path style="opacity:0.01" fill="#000000" d="M 287.5,299.5 C 287.833,299.5 288.167,299.5 288.5,299.5C 288.672,300.492 288.338,301.158 287.5,301.5C 287.5,300.833 287.5,300.167 287.5,299.5 Z"/></g>
<g><path style="opacity:0.01" fill="#000000" d="M 2.5,301.5 C 2.63101,302.239 2.46434,302.906 2,303.5C 1.30831,302.563 1.47498,301.897 2.5,301.5 Z"/></g>
<g><path style="opacity:0.008" fill="#000000" d="M 286.5,301.5 C 286.833,301.5 287.167,301.5 287.5,301.5C 287.737,302.791 287.404,303.791 286.5,304.5C 286.5,303.5 286.5,302.5 286.5,301.5 Z"/></g>
<g><path style="opacity:0.012" fill="#000000" d="M 3.5,304.5 C 2.83333,305.167 2.83333,305.167 3.5,304.5 Z"/></g>
<g><path style="opacity:0.01" fill="#000000" d="M 285.5,304.5 C 285.833,304.5 286.167,304.5 286.5,304.5C 286.672,305.492 286.338,306.158 285.5,306.5C 285.5,305.833 285.5,305.167 285.5,304.5 Z"/></g>
<g><path style="opacity:0.008" fill="#000000" d="M 284.5,306.5 C 284.833,306.5 285.167,306.5 285.5,306.5C 285.672,307.492 285.338,308.158 284.5,308.5C 284.5,307.833 284.5,307.167 284.5,306.5 Z"/></g>
<g><path style="opacity:0.012" fill="#000000" d="M 283.5,308.5 C 283.833,308.5 284.167,308.5 284.5,308.5C 284.315,309.17 283.981,309.17 283.5,308.5 Z"/></g>
<g><path style="opacity:0.007" fill="#000000" d="M 281.5,313.5 C 281.5,312.833 281.5,312.167 281.5,311.5C 284.187,310.939 284.187,311.606 281.5,313.5 Z"/></g>
<g><path style="opacity:0.01" fill="#000000" d="M 280.5,313.5 C 280.833,313.5 281.167,313.5 281.5,313.5C 281.672,314.492 281.338,315.158 280.5,315.5C 280.5,314.833 280.5,314.167 280.5,313.5 Z"/></g>
<g><path style="opacity:0.012" fill="#000000" d="M 279.5,315.5 C 279.833,315.5 280.167,315.5 280.5,315.5C 280.315,316.17 279.981,316.17 279.5,315.5 Z"/></g>
<g><path style="opacity:0.008" fill="#000000" d="M 278.5,316.5 C 278.833,316.5 279.167,316.5 279.5,316.5C 279.672,317.492 279.338,318.158 278.5,318.5C 278.5,317.833 278.5,317.167 278.5,316.5 Z"/></g>
<g><path style="opacity:0.007" fill="#000000" d="M 11.5,317.5 C 12.1667,317.5 12.5,317.833 12.5,318.5C 12.2533,320.975 11.5866,320.975 10.5,318.5C 10.6236,317.893 10.9569,317.56 11.5,317.5 Z"/></g>
<g><path style="opacity:0.012" fill="#000000" d="M 277.5,318.5 C 277.833,318.5 278.167,318.5 278.5,318.5C 278.315,319.17 277.981,319.17 277.5,318.5 Z"/></g>
<g><path style="opacity:0.008" fill="#000000" d="M 276.5,319.5 C 276.833,319.5 277.167,319.5 277.5,319.5C 277.672,320.492 277.338,321.158 276.5,321.5C 276.5,320.833 276.5,320.167 276.5,319.5 Z"/></g>
<g><path style="opacity:0.008" fill="#000000" d="M 275.5,321.5 C 275.833,321.5 276.167,321.5 276.5,321.5C 276.315,322.17 275.981,322.17 275.5,321.5 Z"/></g>
<g><path style="opacity:0.016" fill="#000000" d="M 274.5,322.5 C 274.833,322.5 275.167,322.5 275.5,322.5C 275.315,323.17 274.981,323.17 274.5,322.5 Z"/></g>
<g><path style="opacity:0.006" fill="#000000" d="M 16.5,323.5 C 17.1667,323.5 17.5,323.833 17.5,324.5C 17.2533,326.975 16.5866,326.975 15.5,324.5C 15.6236,323.893 15.9569,323.56 16.5,323.5 Z"/></g>
<g><path style="opacity:0.012" fill="#000000" d="M 273.5,323.5 C 273.833,323.5 274.167,323.5 274.5,323.5C 274.315,324.17 273.981,324.17 273.5,323.5 Z"/></g>
<g><path style="opacity:0.008" fill="#000000" d="M 272.5,324.5 C 272.833,324.5 273.167,324.5 273.5,324.5C 273.315,325.17 272.981,325.17 272.5,324.5 Z"/></g>
<g><path style="opacity:0.012" fill="#000000" d="M 271.5,325.5 C 271.833,325.5 272.167,325.5 272.5,325.5C 272.315,326.17 271.981,326.17 271.5,325.5 Z"/></g>
<g><path style="opacity:0.007" fill="#000000" d="M 270.5,326.5 C 270.833,326.5 271.167,326.5 271.5,326.5C 271.5,328.5 270.5,329.5 268.5,329.5C 268.5,329.167 268.5,328.833 268.5,328.5C 269.167,328.5 269.5,328.167 269.5,327.5C 270.167,327.5 270.5,327.167 270.5,326.5 Z"/></g>
<g><path style="opacity:0.012" fill="#000000" d="M 267.5,329.5 C 267.833,329.5 268.167,329.5 268.5,329.5C 268.315,330.17 267.981,330.17 267.5,329.5 Z"/></g>
<g><path style="opacity:0.012" fill="#000000" d="M 266.5,330.5 C 266.833,330.5 267.167,330.5 267.5,330.5C 267.315,331.17 266.981,331.17 266.5,330.5 Z"/></g>
<g><path style="opacity:0.007" fill="#000000" d="M 24.5,331.5 C 25.1667,331.5 25.5,331.833 25.5,332.5C 24.5029,333.713 23.5029,333.546 22.5,332C 23.0944,331.536 23.7611,331.369 24.5,331.5 Z"/></g>
<g><path style="opacity:0.012" fill="#000000" d="M 265.5,331.5 C 265.833,331.5 266.167,331.5 266.5,331.5C 266.315,332.17 265.981,332.17 265.5,331.5 Z"/></g>
<g><path style="opacity:0.012" fill="#000000" d="M 264.5,332.5 C 264.833,332.5 265.167,332.5 265.5,332.5C 265.315,333.17 264.981,333.17 264.5,332.5 Z"/></g>
<g><path style="opacity:0.008" fill="#000000" d="M 263.5,333.5 C 263.833,333.5 264.167,333.5 264.5,333.5C 264.315,334.17 263.981,334.17 263.5,333.5 Z"/></g>
<g><path style="opacity:0.008" fill="#000000" d="M 261.5,335.5 C 261.5,335.167 261.5,334.833 261.5,334.5C 262.167,334.5 262.833,334.5 263.5,334.5C 263.158,335.338 262.492,335.672 261.5,335.5 Z"/></g>
<g><path style="opacity:0.007" fill="#000000" d="M 29.5,335.5 C 30.1667,335.5 30.5,335.833 30.5,336.5C 29.5029,337.713 28.5029,337.546 27.5,336C 28.0944,335.536 28.7611,335.369 29.5,335.5 Z"/></g>
<g><path style="opacity:0.012" fill="#000000" d="M 260.5,335.5 C 260.833,335.5 261.167,335.5 261.5,335.5C 261.315,336.17 260.981,336.17 260.5,335.5 Z"/></g>
<g><path style="opacity:0.008" fill="#000000" d="M 258.5,337.5 C 258.5,337.167 258.5,336.833 258.5,336.5C 259.167,336.5 259.833,336.5 260.5,336.5C 260.158,337.338 259.492,337.672 258.5,337.5 Z"/></g>
<g><path style="opacity:0.016" fill="#000000" d="M 257.5,337.5 C 257.833,337.5 258.167,337.5 258.5,337.5C 258.315,338.17 257.981,338.17 257.5,337.5 Z"/></g>
<g><path style="opacity:0.008" fill="#000000" d="M 255.5,339.5 C 255.5,339.167 255.5,338.833 255.5,338.5C 256.167,338.5 256.833,338.5 257.5,338.5C 257.158,339.338 256.492,339.672 255.5,339.5 Z"/></g>
<g><path style="opacity:0.016" fill="#000000" d="M 254.5,339.5 C 254.833,339.5 255.167,339.5 255.5,339.5C 255.315,340.17 254.981,340.17 254.5,339.5 Z"/></g>
<g><path style="opacity:0.008" fill="#000000" d="M 252.5,341.5 C 252.5,341.167 252.5,340.833 252.5,340.5C 253.167,340.5 253.833,340.5 254.5,340.5C 254.158,341.338 253.492,341.672 252.5,341.5 Z"/></g>
<g><path style="opacity:0.006" fill="#000000" d="M 250.5,342.5 C 250.5,342.167 250.5,341.833 250.5,341.5C 251.167,341.5 251.833,341.5 252.5,341.5C 252.158,342.338 251.492,342.672 250.5,342.5 Z"/></g>
<g><path style="opacity:0.012" fill="#000000" d="M 249.5,342.5 C 249.833,342.5 250.167,342.5 250.5,342.5C 250.315,343.17 249.981,343.17 249.5,342.5 Z"/></g>
<g><path style="opacity:0.008" fill="#000000" d="M 247.5,344.5 C 247.5,344.167 247.5,343.833 247.5,343.5C 248.167,343.5 248.833,343.5 249.5,343.5C 249.158,344.338 248.492,344.672 247.5,344.5 Z"/></g>
<g><path style="opacity:0.01" fill="#000000" d="M 245.5,345.5 C 245.5,345.167 245.5,344.833 245.5,344.5C 246.167,344.5 246.833,344.5 247.5,344.5C 247.158,345.338 246.492,345.672 245.5,345.5 Z"/></g>
<g><path style="opacity:0.008" fill="#000000" d="M 243.5,346.5 C 243.5,346.167 243.5,345.833 243.5,345.5C 244.167,345.5 244.833,345.5 245.5,345.5C 245.158,346.338 244.492,346.672 243.5,346.5 Z"/></g>
<g><path style="opacity:0.012" fill="#000000" d="M 241.5,347.5 C 241.5,347.167 241.5,346.833 241.5,346.5C 242.167,346.5 242.833,346.5 243.5,346.5C 243.158,347.338 242.492,347.672 241.5,347.5 Z"/></g>
<g><path style="opacity:0.008" fill="#000000" d="M 239.5,348.5 C 239.5,348.167 239.5,347.833 239.5,347.5C 240.167,347.5 240.833,347.5 241.5,347.5C 241.158,348.338 240.492,348.672 239.5,348.5 Z"/></g>
<g><path style="opacity:0.007" fill="#000000" d="M 236.5,349.5 C 236.5,349.167 236.5,348.833 236.5,348.5C 237.5,348.5 238.5,348.5 239.5,348.5C 238.791,349.404 237.791,349.737 236.5,349.5 Z"/></g>
<g><path style="opacity:0.008" fill="#000000" d="M 234.5,350.5 C 234.5,350.167 234.5,349.833 234.5,349.5C 235.167,349.5 235.833,349.5 236.5,349.5C 236.158,350.338 235.492,350.672 234.5,350.5 Z"/></g>
<g><path style="opacity:0.008" fill="#000000" d="M 232.5,351.5 C 232.5,351.167 232.5,350.833 232.5,350.5C 233.167,350.5 233.833,350.5 234.5,350.5C 234.158,351.338 233.492,351.672 232.5,351.5 Z"/></g>
<g><path style="opacity:0.008" fill="#000000" d="M 229.5,352.5 C 229.5,352.167 229.5,351.833 229.5,351.5C 230.5,351.5 231.5,351.5 232.5,351.5C 231.791,352.404 230.791,352.737 229.5,352.5 Z"/></g>
<g><path style="opacity:0.01" fill="#000000" d="M 227.5,353.5 C 227.5,353.167 227.5,352.833 227.5,352.5C 228.167,352.5 228.833,352.5 229.5,352.5C 229.158,353.338 228.492,353.672 227.5,353.5 Z"/></g>
<g><path style="opacity:0.008" fill="#000000" d="M 65.5,353.5 C 65.5,353.833 65.5,354.167 65.5,354.5C 60.1667,354.167 60.1667,353.833 65.5,353.5 Z"/></g>
<g><path style="opacity:0.008" fill="#000000" d="M 224.5,353.5 C 225.5,353.5 226.5,353.5 227.5,353.5C 226.5,354.833 225.5,354.833 224.5,353.5 Z"/></g>
<g><path style="opacity:0.01" fill="#000000" d="M 65.5,354.5 C 66.2389,354.369 66.9056,354.536 67.5,355C 66.5632,355.692 65.8966,355.525 65.5,354.5 Z"/></g>
<g><path style="opacity:0.006" fill="#000000" d="M 85.5,359.5 C 85.5,359.833 85.5,360.167 85.5,360.5C 80.1667,360.167 80.1667,359.833 85.5,359.5 Z"/></g>
<g><path style="opacity:0.007" fill="#000000" d="M 206.5,359.5 C 207.552,359.351 208.552,359.517 209.5,360C 208.251,360.74 207.251,360.573 206.5,359.5 Z"/></g>
<g><path style="opacity:0.01" fill="#000000" d="M 85.5,360.5 C 86.791,360.263 87.791,360.596 88.5,361.5C 87.209,361.737 86.209,361.404 85.5,360.5 Z"/></g>
<g><path style="opacity:0.01" fill="#000000" d="M 202.5,361.5 C 202.5,361.167 202.5,360.833 202.5,360.5C 206.5,360.833 206.5,361.167 202.5,361.5 Z"/></g>
<g><path style="opacity:0.008" fill="#000000" d="M 88.5,361.5 C 89.8734,361.343 91.2068,361.51 92.5,362C 90.9343,362.765 89.6009,362.598 88.5,361.5 Z"/></g>
<g><path style="opacity:0.009" fill="#000000" d="M 202.5,361.5 C 201.749,362.573 200.749,362.74 199.5,362C 200.448,361.517 201.448,361.351 202.5,361.5 Z"/></g>
<g><path style="opacity:0.012" fill="#000000" d="M 195.5,363.5 C 195.5,363.167 195.5,362.833 195.5,362.5C 199.5,362.833 199.5,363.167 195.5,363.5 Z"/></g>
<g><path style="opacity:0.009" fill="#000000" d="M 191.5,364.5 C 191.5,364.167 191.5,363.833 191.5,363.5C 192.833,363.5 194.167,363.5 195.5,363.5C 194.432,364.434 193.099,364.768 191.5,364.5 Z"/></g>
<g><path style="opacity:0.008" fill="#000000" d="M 187.5,364.5 C 188.833,364.5 190.167,364.5 191.5,364.5C 190.167,365.833 188.833,365.833 187.5,364.5 Z"/></g>
<g><path style="opacity:0.01" fill="#000000" d="M 183.5,366.5 C 183.5,366.167 183.5,365.833 183.5,365.5C 187.5,365.833 187.5,366.167 183.5,366.5 Z"/></g>
<g><path style="opacity:0.008" fill="#000000" d="M 114.5,366.5 C 114.5,366.833 114.5,367.167 114.5,367.5C 107.833,367.167 107.833,366.833 114.5,366.5 Z"/></g>
<g><path style="opacity:0.008" fill="#000000" d="M 178.5,367.5 C 178.5,367.167 178.5,366.833 178.5,366.5C 180.167,366.5 181.833,366.5 183.5,366.5C 182.081,367.451 180.415,367.784 178.5,367.5 Z"/></g>
<g><path style="opacity:0.01" fill="#000000" d="M 114.5,367.5 C 115.873,367.343 117.207,367.51 118.5,368C 116.934,368.765 115.601,368.598 114.5,367.5 Z"/></g>
<g><path style="opacity:0.009" fill="#000000" d="M 173.5,368.5 C 173.5,368.167 173.5,367.833 173.5,367.5C 175.167,367.5 176.833,367.5 178.5,367.5C 177.081,368.451 175.415,368.784 173.5,368.5 Z"/></g>
<g><path style="opacity:0.009" fill="#000000" d="M 168.5,369.5 C 168.5,369.167 168.5,368.833 168.5,368.5C 170.167,368.5 171.833,368.5 173.5,368.5C 172.081,369.451 170.415,369.784 168.5,369.5 Z"/></g>
<g><path style="opacity:0.009" fill="#000000" d="M 128.5,369.5 C 127.399,370.598 126.066,370.765 124.5,370C 125.793,369.51 127.127,369.343 128.5,369.5 Z"/></g>
<g><path style="opacity:0.009" fill="#000000" d="M 163.5,370.5 C 163.5,370.167 163.5,369.833 163.5,369.5C 165.167,369.5 166.833,369.5 168.5,369.5C 167.081,370.451 165.415,370.784 163.5,370.5 Z"/></g>
<g><path style="opacity:0.008" fill="#000000" d="M 129.5,371.5 C 130.919,370.549 132.585,370.216 134.5,370.5C 134.5,370.833 134.5,371.167 134.5,371.5C 132.833,371.5 131.167,371.5 129.5,371.5 Z"/></g>
<g><path style="opacity:0.008" fill="#000000" d="M 157.5,371.5 C 159.265,370.539 161.265,370.205 163.5,370.5C 163.5,370.833 163.5,371.167 163.5,371.5C 161.5,371.5 159.5,371.5 157.5,371.5 Z"/></g>
</svg>
