<svg id="Layer_2" data-name="Layer 2" xmlns="http://www.w3.org/2000/svg" xmlns:xlink="http://www.w3.org/1999/xlink" viewBox="0 0 895 600"><defs><style>.cls-1{fill:none;}.cls-2{clip-path:url(#clip-path);}.cls-3,.cls-9{fill:#ce1126;}.cls-4{fill:#fff;}.cls-5{clip-path:url(#clip-path-2);}.cls-6{fill:#ff9c10;}.cls-7,.cls-8{fill:#083d9c;stroke:#083d9c;}.cls-7{stroke-width:2.06px;}.cls-8{stroke-width:1.93px;}.cls-10,.cls-9{stroke:#630810;}.cls-9{stroke-linejoin:round;stroke-width:1.93px;}.cls-10{fill:#630810;stroke-linecap:round;stroke-width:2.79px;}.cls-11{fill:#939598;}</style><clipPath id="clip-path"><path class="cls-1" d="M34.72,0H859.28A30.82,30.82,0,0,1,890,30.93V569.07A30.82,30.82,0,0,1,859.28,600H34.72A30.82,30.82,0,0,1,4,569.07V30.93A30.82,30.82,0,0,1,34.72,0Z"/></clipPath><clipPath id="clip-path-2"><ellipse class="cls-1" cx="446.95" cy="302.44" rx="127.9" ry="132.7"/></clipPath></defs><title>Taiti</title><g class="cls-2"><rect id="rect5" class="cls-3" width="893.9" height="601.87"/><rect id="rect7" class="cls-4" y="150.47" width="893.9" height="300.94"/><g class="cls-5"><g id="g90"><g id="g37"><path id="path9" class="cls-6" d="M413.12,287.43l-21.72-.64v-8.67l21.72,9.31Z"/><path id="path11" class="cls-6" d="M413,284.9,391.4,273.79V259.34s-2.53.36-2.17-2.53c.12-6,15.89,11,24,16.53L413,284.9Z"/><path id="path13" class="cls-6" d="M319.38,322.56l45.59.36V294.38l-52.11-2.51,6.51,30.7Z"/><path id="path15" class="cls-6" d="M317.2,283.18l48.5,4.7-.36-20.23-47.41-18.79-.73,34.32Z"/><path id="path17" class="cls-6" d="M327,242.74l37.28,18.06,5.32-5.55s-3.42-2.36-3.25-4.53,3.44-2.52,3.51-4.91c.06-2.19-3.84-2.45-3.88-4.65-.25-2.38,3-4.93,3-4.93L335.3,207,327,242.74Z"/><path id="path19" class="cls-6" d="M571.62,322.92H523.49l-.36-27.81,52.83-4-4.34,31.79Z"/><path id="path21" class="cls-6" d="M572.8,282.75c-.61-4.52-1.25-9-2.28-13.45a139.3,139.3,0,0,0-5.31-17.45c-.16-.42-.4-.8-.56-1.22L523.49,268l.37,20.59,48.94-5.87Z"/><path id="path23" class="cls-6" d="M544.67,215.88,520,234.69c0,1.8,1.82,3.18,2.31,4.9,1.13,2.42-1.13,4.56-2.53,6.26-1.13,1.58,1.31,2.38,2.13,3.31,1.78,1.86.23,4.76-1.68,5.84,2.3,1.38,3.46,4,4,6.53l36.87-19.37a128.3,128.3,0,0,0-16.43-26.28Z"/><path id="path25" class="cls-6" d="M476.09,288.06l20.63-.9.36-8.32-21,9.22Z"/><path id="path27" class="cls-6" d="M476.08,283.54l-.09-9.39s19.54-17.61,23.7-20.86a11.31,11.31,0,0,1-2.26,6.41v13.73l-21.35,10.11Z"/><path id="path29" class="cls-6" d="M349.43,204.44c.36.36,21.92,24.29,21.92,24.29.61-2.27,5.58-2.61,10.65-2.25s9.1-.34,9.1,3.27-2.57,3.1-2.57,5.63,3.85,2.32,3.85,5.56-2.79,2.59-2.8,5.11c0,2.08,2.91,2.19,2.91,2.19L413,268.11l.09-21.22L370.78,180.6l-21.35,23.84Z"/><path id="path31" class="cls-6" d="M383.3,179.34c.33,1,28.68,58.54,28.68,58.54s.33-54,5.16-56.93l-8.06-14.79-25.77,13.18Z"/><path id="path33" class="cls-6" d="M475.87,173.13l-10.71,37.38a57.34,57.34,0,0,0,10.06.32c3,.26.67,3.12.83,4.81q0,11.49,0,23l30.26-54a146.1,146.1,0,0,0-21.78-8.89c-2.83-1-5.71-1.88-8.62-2.63Z"/><path id="path35" class="cls-6" d="M513.53,188.75,476.1,246.87q0,11.19-.05,22.38c8.34-8,16.71-16,25-24,1.58-2.26-5-3.36-1.71-6.11,3-.95,3.48-5.81.34-6.75-2.58-3.83,2.34-5.86,5.45-5.44,4.32.2,8.77-.95,13,.26,2.32,2.25,4.47-3.39,6.75-4.66,4.51-4.59,9-9.17,13.49-13.81a119.89,119.89,0,0,0-24.86-20Z"/></g><g id="g57"><path id="path39" class="cls-7" d="M417,414.41c-9.2.52-18.37,6.79-22.67,10.15a122.92,122.92,0,0,0,24.72,7.9c14,2.37,27.94,2.35,41.9,2.35,2.28-.29,4.54-.61,6.76-1l29.42-10s-14.16-9.44-25.37-9-18.8,11.5-27.85,10.68-12.67-11-25.7-11c-.4,0-.8,0-1.21,0Z"/><path id="path41" class="cls-8" d="M363.53,406.73l167.21.72s-14.48-15.53-31.49-15.89-12.3,7.22-25.33,8.31-16.29-7.95-28.23-7.59-18.82,7.59-27.86,8-20.63-9-27.51-8.67-31.48,10.84-31.48,10.84l4.7,4.33Z"/><path id="path43" class="cls-8" d="M342.18,386.85l206.29.73c3.25-4.7-10.14-15.9-22.44-17-10.14.36-17.37,10.48-25.69,10.84S482.6,371,473.19,371.32,454,381.44,444.6,381.44,428.32,371,416.38,371,399,382.52,390,381.8s-17-11.56-25.7-11.56-23.16,13-26.05,12.28,3.61,5.42,4,4.34Z"/><path id="path45" class="cls-8" d="M421.94,366.93l46,0S457.67,351,445,352.13c-14.16.37-23,14.8-23,14.8Z"/><path id="path47" class="cls-8" d="M568.77,365.82h-63s8.16-4.81,10.38-9.25c4.08,2.22,3,4.44,11.12,4.81s15.94-9.25,23.72-8.88,17.79,13.69,17.79,13.32Z"/><path id="path49" class="cls-8" d="M320.46,365.82h63s-8.15-4.81-10.37-9.25c-4.08,2.22-3,4.44-11.12,4.81s-15.94-9.25-23.73-8.88-17.79,13.69-17.79,13.32Z"/><path id="path51" class="cls-8" d="M325.17,346.05l44.88.36a40.22,40.22,0,0,1-3.26-13.73c-11.58-4-21,8.67-29.32,9s-17-9-17-9l4.7,13.37Z"/><path id="path53" class="cls-8" d="M564.75,346.05l-44.88.36a40.22,40.22,0,0,0,3.26-13.73c11.58-4,21,8.67,29.32,9s17-9,17-9l-4.7,13.37Z"/><path id="path55" class="cls-8" d="M433.38,346.41h22.8s.36-7.6-11.59-7.6-11.21,7.59-11.21,7.59Z"/></g><g id="g65"><path id="path59" class="cls-9" d="M421.43,272.35,468.84,285V217.44c-21.72,1.08-39.81-41.18-1.45-44.07-37.64-5.42-42,4.34-46.32,14.81l.36,84.17Z"/><path id="path61" class="cls-9" d="M432,333.41c-10.31,17-37.88,12-44.32.09-1.93-.55-.79-73.43-.79-73.43s-3.08-1.4-3.22-3.64,4.18-2.47,4.18-5.37-4.42-1.76-4.51-4.67,4.72-2.4,4.51-5c-.24-2.9-5.26-2.47-5.47-5.14-.17-2.13,3.58-4,4.63-4.94l-3.51-.05-7.89.16c-5.61,0,.09,1.22,0,4.45-.05,2.12-2.84,3.52-3.09,5.35-.09,1.89,4,3.21,4.05,5.47,0,2-4,2.16-3.87,4,.25,3.17,3.6,3.87,3.54,5.79s-4.5,2.65-4.51,4.18c.16,3,.65,75,.65,75,7.09,36.67,48,46,59.61-2.25Z"/><path id="path63" class="cls-9" d="M458.94,333.41c10.32,17,37.88,12,44.33.09,1.93-.55.79-73.43.79-73.43s3.08-1.4,3.22-3.64-3.92-2.47-3.92-5.37,4.15-1.76,4.24-4.67-4.36-2.58-4.15-5.16c.25-2.9,3.66-2.56,3.85-5.23.16-2.31-2.14-3.71-3.18-4.67l3.32-.05,7.9.16c5.61,0-.1,1.22,0,4.45,0,2.12,2.85,3.52,3.1,5.35.08,1.89-4,3.21-4,5.47,0,2,4,2.16,3.87,4-.26,3.17-3.6,3.87-3.55,5.79s4.5,2.65,4.51,4.18c-.15,3-.64,75-.64,75-7.09,36.67-48,46-59.62-2.25Z"/></g><g id="g88"><path id="path67" class="cls-10" d="M419.63,336.64c4-2.17,7.6-4.33,10.13-9.39l-15.56.36s-7.24,4.34-10.86,9Z"/><path id="path69" class="cls-10" d="M469.92,336.64c-4-2.17-7.6-4.33-10.13-9.39l15.56.36s7.24,4.34,10.86,9Z"/><path id="path71" class="cls-10" d="M391.39,321.48l107.13.36"/><g id="x"><path id="path73" class="cls-10" d="M396.46,295.84l12.67,17"/><path id="path75" class="cls-10" d="M396.46,312.81l13.75-16.62"/><path id="path77" class="cls-10" d="M403.7,294.74l-.36,10.47"/></g><g id="use80"><path class="cls-10" d="M416.73,295.84l12.66,17"/><path class="cls-10" d="M416.73,312.81l13.75-16.62"/><path class="cls-10" d="M424,294.74l-.36,10.47"/></g><g id="use82"><path class="cls-10" d="M437.35,295.84l12.67,17"/><path class="cls-10" d="M437.35,312.81l13.76-16.62"/><path class="cls-10" d="M444.6,294.74l-.37,10.47"/></g><g id="use84"><path class="cls-10" d="M458.71,295.84l12.66,17"/><path class="cls-10" d="M458.71,312.81l13.75-16.62"/><path class="cls-10" d="M466,294.74l-.36,10.47"/></g><g id="use86"><path class="cls-10" d="M479.34,295.84l12.66,17"/><path class="cls-10" d="M479.34,312.81l13.75-16.62"/><path class="cls-10" d="M486.58,294.74l-.37,10.47"/></g></g></g></g></g><g id="Layer_1" data-name="Layer 1"><path class="cls-11" d="M863.1,6A25,25,0,0,1,888,30.9V569a24.9,24.9,0,0,1-24.9,24.9H32.9A24.82,24.82,0,0,1,8,569.1V30.9A25,25,0,0,1,32.9,6H863.1m0-6H32.9A30.86,30.86,0,0,0,2,30.9H2V569a30.88,30.88,0,0,0,30.9,31H863a30.86,30.86,0,0,0,30.9-30.9V30.9A30.71,30.71,0,0,0,863.1,0Z"/></g></svg>