<?xml version="1.0" encoding="utf-8"?>
<!-- Generator: Adobe Illustrator 27.9.1, SVG Export Plug-In . SVG Version: 6.00 Build 0)  -->
<svg version="1.1" id="Layer_1" xmlns="http://www.w3.org/2000/svg" xmlns:xlink="http://www.w3.org/1999/xlink" x="0px" y="0px"
	 viewBox="0 0 400 400" style="enable-background:new 0 0 400 400;" xml:space="preserve">
<style type="text/css">
	.st0{fill:#2A3759;}
	.st1{fill:#FBFAFA;}
	.st2{fill:#B8232F;}
	.st3{fill:#FCF8F8;}
	.st4{fill:#B92933;}
	.st5{fill:#0A5325;}
	.st6{fill:#FEFEFE;}
</style>
<g>
	<path class="st5" d="M155.9,367.9c-3-2.2-5.7-4.6-8.6-6.9c-4.2-3.3-8.1-6.9-12-10.5c-27.6-24.8-50.9-53.1-69.1-85.5
		c-15.4-27.4-26.5-56.5-33.8-87c-3.4-14.2-6-28.6-7.8-43.2c-2.1-16.4-3.1-32.9-3.5-49.5c0-1.1,0.3-1.6,1.2-2.1
		c18.4-10,34.4-22.9,47.1-39.6c9.1-11.9,15.8-25,20.6-39.1c0.4-1,0.7-1.1,1.6-0.7c18.5,8,37.6,14.1,57.4,18.1
		c10.8,2.2,21.8,3.8,32.8,4.6c12.8,1,25.6,1.2,38.4,0.4c22.2-1.3,43.9-5.3,65.3-11.4C296,12.6,306.5,9.1,316.8,5
		c0.9-0.4,1.3-0.3,1.6,0.7c10.7,32.8,30.8,58.5,59.4,77.7c0.8,0.6,1.2,1.1,1.2,2.2c-0.8,10.9-2,21.8-3.4,32.6
		c-2.7,20-6.6,39.8-11.9,59.2c-12,43.8-30.7,84.4-57.7,121c-5.8,7.9-11.9,15.5-18.4,22.8c-1.2,1.3-2.3,2.7-3.5,4.1
		c-0.1,0-0.2,0.1-0.2,0.1c-5,5.5-10.1,10.8-15.4,16c-4.1,4-8.2,7.9-12.4,11.7c-6.2,5.6-12.6,11-19.2,16.1
		c-12.2,9.6-25,18.5-38.2,26.8c-0.7,0.4-1.2,0.5-1.9,0c-5.7-3.6-11.4-7.1-17-10.8c-3.6-2.4-7.1-5-10.7-7.5c-2.2-1.6-4.4-3.1-6.5-4.7
		C160.3,371.3,158.1,369.6,155.9,367.9z M174.2,361.7c0.3,0.3,0.6,0.5,0.9,0.8c7,5.1,14.2,10,21.5,14.7c0.8,0.5,1.3,0.5,2.1,0
		c9.2-6.2,18.5-12.4,27.1-19.5c2.8-2.3,5.8-4.4,8.5-6.7c4.6-3.8,9.3-7.6,13.6-11.8c0.3-0.2,0.6-0.4,0.8-0.7
		c12.7-11.7,24.6-24.2,35.5-37.6c1.1-1.3,1.1-1.3-0.3-2.5c-5.5-4.8-11-9.6-16.4-14.4c-30.5-26.7-61-53.5-91.5-80.2
		c-30.5-26.7-60.9-53.4-91.4-80.2C71.5,112,58.4,100.6,45.3,89c-0.6-0.6-1.1-0.6-1.8-0.1c-1.8,1.2-3.7,2.4-5.5,3.5
		c-0.7,0.4-0.9,0.8-0.9,1.7c0.5,12.5,1.4,24.9,2.9,37.3c2,16.1,4.9,32,8.9,47.7c9,35.2,23.3,68.1,43.5,98.4
		c18.1,27,39.9,50.6,65,71.2C162.8,353.2,168.4,357.6,174.2,361.7z M88.3,44.7c-0.5,0-0.6,0.5-0.8,0.8c-9.8,14.7-21.8,27.2-36,37.8
		c-0.8,0.6-0.9,0.9-0.1,1.6c31.9,27.8,63.7,55.7,95.6,83.5c31,27.1,62,54.2,93,81.3c16.3,14.2,32.6,28.5,48.9,42.7
		c0.9,0.8,1.3,0.7,1.9-0.2c11.1-14.7,20.9-30.2,29.4-46.5c0.4-0.8,0.3-1.2-0.4-1.8c-33.2-28.5-66.3-57-99.4-85.5
		c-32.3-27.8-64.7-55.6-97-83.5c-11.4-9.8-22.9-19.7-34.3-29.5C88.8,45.2,88.5,44.9,88.3,44.7z M362.5,92.8c0.3-1.1-0.6-1.3-1.1-1.7
		C338.3,74,320.7,52.4,309.2,26c-0.4-0.9-0.8-1-1.6-0.7c-7.8,2.7-15.7,5.1-23.6,7.2c-19.3,5.2-38.8,8.6-58.8,10.1
		c-12.5,0.9-25,1.1-37.5,0.4c-12.3-0.7-24.5-2.1-36.6-4.3c-17.4-3.2-34.3-7.9-50.8-14.1c-0.9-0.4-1.3-0.1-1.6,0.7
		c-1.9,4.3-4.1,8.5-6.5,12.6c-0.4,0.8-0.3,1.1,0.3,1.6c38.5,33,77.1,66,115.6,99c38.4,32.9,76.7,65.7,115.1,98.6
		c0.8,0.7,1.1,0.7,1.6-0.3c11.4-23.6,20-48.3,26.3-73.7c3.4-13.7,6-27.6,8.1-41.5C360.5,111.9,361.7,102.3,362.5,92.8z"/>
	<path class="st6" d="M88.3,44.7c0.3,0.2,0.5,0.4,0.8,0.7c11.4,9.8,22.9,19.7,34.3,29.5c32.3,27.8,64.7,55.6,97,83.5
		c33.1,28.5,66.3,57,99.4,85.5c0.7,0.6,0.8,1,0.4,1.8c-8.5,16.3-18.3,31.8-29.4,46.5c-0.7,0.9-1,1-1.9,0.2
		c-16.3-14.3-32.6-28.5-48.9-42.7c-31-27.1-62-54.2-93-81.3c-31.9-27.8-63.7-55.7-95.6-83.5c-0.8-0.7-0.8-1,0.1-1.6
		c14.1-10.6,26.2-23.1,36-37.8C87.7,45.2,87.8,44.8,88.3,44.7z M166.8,117.5c0,0.6,0,0.8-0.1,1.1c-0.5,20-0.9,39.9-1.4,59.9
		c0,0.8,0.3,1.4,0.9,1.9c11.2,9.9,22.4,19.7,33.6,29.6c0.2,0.2,0.4,0.5,0.8,0.4c-0.1-3.8-0.3-7.6-0.4-11.4c0-0.6-0.4-0.9-0.8-1.3
		c-5.2-4.7-10.4-9.4-15.7-14.1c-0.6-0.5-0.8-1-0.8-1.8c0.2-1.5,0.2-3.1,0.4-4.6c0.2-1.6,0-3.3,0.5-5c5.9,4.4,11.6,8.8,17.5,13.3
		c0.2-4.1,0.3-7.9,0.6-11.7c0.1-1.1-0.2-1.7-1.1-2.4c-5.1-3.9-10.1-7.9-15.1-11.9c-0.3-0.3-0.8-0.4-0.8-1c0.1-2.7,0.2-5.4,0.3-8.3
		c5.9,4.5,11.5,8.9,17.1,13.2c0.3-0.2,0.3-0.5,0.3-0.8c0.2-4.2,0.4-8.3,0.6-12.5c0-0.7-0.3-1.1-0.8-1.5
		c-7.8-6.8-15.6-13.5-23.4-20.3C175.1,124.7,171,121.2,166.8,117.5z M127.1,146.5c0.3-16.2,0.5-32,0.8-48.2
		c6.7,5.7,13.1,11.3,19.7,17c0.1-0.4,0.1-0.5,0.1-0.7c0-4.8-0.1-9.7-0.1-14.5c0-0.6-0.3-0.9-0.7-1.3c-15.5-13.2-30.9-26.4-46.4-39.6
		c-0.3-0.3-0.7-0.6-1.2-1c-0.1,4.9-0.2,9.5-0.4,14.1c0,0.9,0.2,1.5,0.9,2.1c3.6,3,7.2,6.1,10.9,9.2c0.7,0.6,1,1.2,0.9,2.1
		c-0.7,14.6-1.4,29.1-2.1,43.7c-0.1,1.2,0.2,2,1.2,2.8c3.3,2.8,6.6,5.7,9.8,8.5C122.7,142.6,124.8,144.5,127.1,146.5z M263.7,266.4
		c0-3.9,0-7.5,0-11.2c0-0.9-0.3-1.5-0.9-2c-5.8-5.4-11.5-10.8-17.2-16.1c-0.8-0.7-1-1.4-0.9-2.4c0.5-9.1,1.6-18.1,2-27.2
		c0-0.5,0.1-1,0.3-1.5c0.4-1.3,1.3-1.7,2.7-1.3c1.4,0.4,2.5,1.3,3.5,2.2c4.5,3.9,9,7.8,13.5,11.7c0.3,0.3,0.6,0.8,1.2,0.7
		c0-4.4,0-8.8,0-13.2c0-0.6-0.3-0.9-0.7-1.3c-8.3-7.1-16.5-14.2-24.8-21.2c-1.3-1.1-2.8-1.8-4.4-2.3c-2.8-0.8-4.6,0.2-5.9,2.8
		c-1.2,2.5-1,5.2-1.2,7.9c-0.6,8.5-1.2,17.1-1.8,25.6c-0.3,4.2-0.6,8.3-0.8,12.5c-0.2,3.1,0.8,5.6,3.2,7.7
		c6.2,5.4,12.3,10.9,18.4,16.4C254.5,258.1,259.1,262.2,263.7,266.4z M139.8,143.1c0,4.8,0,9.5,0,14.3c0,0.9,0.3,1.5,1,2.1
		c3.9,3.6,7.8,7.2,11.8,10.7c0.3,0.2,0.5,0.6,1,0.6c0-0.1,0.1-0.2,0.1-0.4c0-4.6,0.1-9.2,0.1-13.8c0-0.6-0.3-1-0.7-1.3
		c-1.7-1.6-3.5-3.2-5.2-4.8C145.2,148,142.4,145.5,139.8,143.1z M218.5,227.1c0-4.8,0-9.5,0-14.3c0-0.6-0.4-0.9-0.8-1.3
		c-3.6-3.6-7.2-7.3-10.9-10.9c-0.3-0.3-0.4-0.7-0.8-0.7c0,4.9,0,9.8,0,14.7c0,0.3,0.1,0.6,0.3,0.8
		C210.4,219.3,214.3,223.1,218.5,227.1z M280.2,280.5c0.3-4.5,0.5-8.7,0.8-12.9c0-0.6-0.3-0.9-0.7-1.3c-2.7-2.2-5.3-4.4-8-6.7
		c-0.3-0.3-0.6-0.7-1.3-0.8c-0.3,4.4-0.6,8.7-1,13c0,0.4,0.1,0.7,0.4,0.9C273.6,275.3,276.8,277.8,280.2,280.5z"/>
	<path class="st6" d="M362.5,92.8c-0.8,9.5-1.9,19.1-3.4,28.6c-2.1,14-4.7,27.8-8.1,41.5c-6.3,25.5-14.8,50.1-26.3,73.7
		c-0.5,1-0.7,1.1-1.6,0.3c-38.3-32.9-76.7-65.7-115.1-98.6c-38.5-33-77.1-66-115.6-99c-0.6-0.5-0.7-0.8-0.3-1.6
		c2.4-4.1,4.6-8.3,6.5-12.6c0.4-0.8,0.7-1.1,1.6-0.7c16.5,6.2,33.5,10.9,50.8,14.1c12.1,2.2,24.3,3.7,36.6,4.3
		c12.5,0.7,25,0.6,37.5-0.4c19.9-1.5,39.5-4.9,58.8-10.1c8-2.1,15.8-4.5,23.6-7.2c0.8-0.3,1.2-0.3,1.6,0.7
		c11.5,26.4,29.1,48,52.1,65.2C361.9,91.5,362.7,91.8,362.5,92.8z M319.6,222.1c0.2-0.4,0.4-0.7,0.5-1
		c13.7-31.1,22.5-63.6,27.7-97.1c1.3-8.4,2.4-16.8,3.3-25.3c0.1-1.3-0.2-1.9-1.1-2.7c-18.8-15-34-32.9-45.2-54.2
		c-0.6-1.2-1-2.9-1.9-3.3c-1-0.5-2.5,0.6-3.8,0.9c-27.1,8.3-54.7,13.3-83.1,14.5c-17,0.7-34,0-50.8-2.2c-13.6-1.8-27-4.4-40.2-8
		c-6.5-1.7-12.9-3.7-19.2-5.8c-0.8-0.3-1.3-0.2-1.6,0.6c-0.1,0.4-0.3,0.7-0.6,1c-0.7,0.8-0.4,1.4,0.4,2c25.1,21,50.1,42,75.2,63
		c38.8,32.5,77.5,64.9,116.3,97.4C303.5,208.6,311.5,215.3,319.6,222.1z"/>
	<path class="st6" d="M283.8,298.4c-5.5-4.8-11-9.6-16.4-14.4c-30.5-26.7-61-53.5-91.5-80.2c-30.5-26.7-60.9-53.4-91.4-80.2
		C71.5,112,58.4,100.6,45.3,89c-0.6-0.6-1.1-0.6-1.8-0.1c-1.8,1.2-3.7,2.4-5.5,3.5c-0.7,0.4-0.9,0.8-0.9,1.7
		c0.5,12.5,1.4,24.9,2.9,37.3c2,16.1,4.9,32,8.9,47.7c9,35.2,23.3,68.1,43.5,98.4c18.1,27,39.9,50.6,65,71.2c5.5,4.5,11,8.9,16.9,13
		h0c0.3,0.3,0.6,0.5,0.9,0.8c7,5.1,14.2,10,21.5,14.7c0.8,0.5,1.3,0.5,2.1,0c9.2-6.2,18.5-12.4,27.1-19.5c2.8-2.3,5.8-4.4,8.5-6.7
		c4.6-3.8,9.3-7.6,13.6-11.8c0.3-0.2,0.6-0.4,0.8-0.7c12.7-11.7,24.6-24.2,35.5-37.6C285.1,299.5,285.1,299.5,283.8,298.4z
		 M271.2,299.5c-9,10.6-18.6,20.6-28.8,30c-5.3,4.9-10.7,9.6-16.3,14.2c-1,0.9-2.1,1.7-3.1,2.6c-3.7,2.8-7.4,5.7-11.2,8.5
		c-4.4,3.3-8.8,6.4-13.3,9.5c-0.7,0.5-1.1,0.5-1.8,0c-3.5-2.4-7-4.8-10.5-7.1c-2.9-1.9-5.6-3.9-8.3-6c-17.5-13.4-34-27.9-48.9-44.3
		c-35.9-39.7-59.4-85.8-71.4-137.8c-3.5-15.2-6-30.6-7.6-46.2c-0.8-7.4-1.3-14.9-1.7-22.3c0-0.5,0-1,0-1.7c2.3,2,4.4,3.9,6.5,5.8
		c42.9,38.2,85.8,76.5,128.6,114.7c29.3,26.1,58.6,52.2,87.9,78.3C272,298.5,271.8,298.9,271.2,299.5z"/>
	<path class="st5" d="M166.8,117.5c4.3,3.7,8.3,7.2,12.3,10.7c7.8,6.8,15.6,13.5,23.4,20.3c0.5,0.4,0.9,0.8,0.8,1.5
		c-0.2,4.2-0.4,8.3-0.6,12.5c0,0.3,0,0.5-0.3,0.8c-5.6-4.3-11.3-8.7-17.1-13.2c-0.1,3-0.2,5.7-0.3,8.3c0,0.5,0.5,0.7,0.8,1
		c5,4,10,7.9,15.1,11.9c0.9,0.7,1.2,1.3,1.1,2.4c-0.2,3.8-0.4,7.6-0.6,11.7c-5.9-4.5-11.6-8.8-17.5-13.3c-0.5,1.7-0.3,3.4-0.5,5
		c-0.2,1.5-0.2,3.1-0.4,4.6c-0.1,0.8,0.2,1.3,0.8,1.8c5.2,4.7,10.4,9.4,15.7,14.1c0.4,0.3,0.8,0.6,0.8,1.3c0.1,3.8,0.3,7.6,0.4,11.4
		c-0.4,0.2-0.6-0.2-0.8-0.4c-11.2-9.9-22.4-19.7-33.6-29.6c-0.6-0.5-0.9-1-0.9-1.9c0.5-20,0.9-39.9,1.4-59.9
		C166.7,118.4,166.7,118.1,166.8,117.5z"/>
	<path class="st5" d="M127.1,146.5c-2.3-2-4.5-3.9-6.6-5.8c-3.3-2.9-6.5-5.7-9.8-8.5c-0.9-0.8-1.2-1.6-1.2-2.8
		c0.7-14.6,1.4-29.1,2.1-43.7c0-0.9-0.2-1.5-0.9-2.1c-3.7-3-7.2-6.1-10.9-9.2c-0.7-0.6-1-1.2-0.9-2.1c0.2-4.6,0.3-9.2,0.4-14.1
		c0.5,0.4,0.9,0.7,1.2,1c15.5,13.2,30.9,26.4,46.4,39.6c0.4,0.3,0.7,0.7,0.7,1.3c0,4.8,0.1,9.7,0.1,14.5c0,0.2,0,0.3-0.1,0.7
		c-6.6-5.7-13.1-11.2-19.7-17C127.7,114.5,127.4,130.4,127.1,146.5z"/>
	<path class="st5" d="M263.7,266.4c-4.7-4.2-9.2-8.2-13.8-12.3c-6.1-5.5-12.2-11-18.4-16.4c-2.4-2.1-3.4-4.6-3.2-7.7
		c0.2-4.2,0.6-8.3,0.8-12.5c0.6-8.5,1.1-17.1,1.8-25.6c0.2-2.6,0-5.4,1.2-7.9c1.2-2.6,3.1-3.6,5.9-2.8c1.6,0.4,3.1,1.2,4.4,2.3
		c8.3,7.1,16.5,14.2,24.8,21.2c0.4,0.4,0.7,0.7,0.7,1.3c0,4.4,0,8.8,0,13.2c-0.6,0-0.9-0.4-1.2-0.7c-4.5-3.9-9-7.8-13.5-11.7
		c-1.1-0.9-2.2-1.8-3.5-2.2c-1.3-0.4-2.2,0-2.7,1.3c-0.2,0.5-0.3,1-0.3,1.5c-0.4,9.1-1.5,18.1-2,27.2c-0.1,1,0.1,1.7,0.9,2.4
		c5.8,5.3,11.5,10.7,17.2,16.1c0.6,0.6,0.9,1.2,0.9,2C263.7,258.8,263.7,262.5,263.7,266.4z"/>
	<path class="st5" d="M139.8,143.1c2.6,2.4,5.3,5,8,7.5c1.7,1.6,3.5,3.2,5.2,4.8c0.4,0.4,0.7,0.7,0.7,1.3c-0.1,4.6-0.1,9.2-0.1,13.8
		c0,0.1-0.1,0.2-0.1,0.4c-0.5,0-0.7-0.4-1-0.6c-3.9-3.6-7.8-7.2-11.8-10.7c-0.7-0.6-1-1.2-1-2.1
		C139.9,152.6,139.8,147.8,139.8,143.1z"/>
	<path class="st5" d="M218.5,227.1c-4.2-4-8.1-7.8-12.1-11.6c-0.2-0.2-0.3-0.5-0.3-0.8c0-4.9,0-9.8,0-14.7c0.4,0,0.5,0.4,0.8,0.7
		c3.6,3.6,7.3,7.2,10.9,10.9c0.4,0.4,0.8,0.6,0.8,1.3C218.5,217.5,218.5,222.3,218.5,227.1z"/>
	<path class="st5" d="M280.2,280.5c-3.4-2.7-6.6-5.2-9.7-7.7c-0.3-0.2-0.4-0.5-0.4-0.9c0.3-4.3,0.6-8.6,1-13
		c0.6,0.1,0.9,0.5,1.3,0.8c2.7,2.2,5.3,4.4,8,6.7c0.4,0.3,0.7,0.7,0.7,1.3C280.7,271.9,280.5,276.1,280.2,280.5z"/>
	<path class="st5" d="M319.6,222.1c-8.1-6.8-16.1-13.5-24.1-20.2c-38.8-32.5-77.5-64.9-116.3-97.4c-25.1-21-50.1-42-75.2-63
		c-0.8-0.7-1-1.2-0.4-2c0.2-0.3,0.4-0.7,0.6-1c0.3-0.9,0.8-0.9,1.6-0.6c6.3,2.2,12.7,4.1,19.2,5.8c13.2,3.5,26.6,6.2,40.2,8
		c16.9,2.2,33.8,2.9,50.8,2.2c28.3-1.2,56-6.3,83.1-14.5c1.3-0.4,2.8-1.5,3.8-0.9c1,0.5,1.3,2.2,1.9,3.3C316,63,331.2,81,350,95.9
		c1,0.8,1.3,1.4,1.1,2.7c-0.9,8.5-2,16.9-3.3,25.3c-5.2,33.5-14,66-27.7,97.1C320,221.4,319.8,221.7,319.6,222.1z M237.6,109
		c0,21.7,17.7,39.4,39.4,39.4c21.8,0,39.4-17.7,39.5-39.4c0-21.8-17.7-39.5-39.5-39.5C255.2,69.6,237.6,87.3,237.6,109z"/>
	<path class="st5" d="M223,346.3c-3.7,2.8-7.4,5.7-11.2,8.5c-4.4,3.3-8.8,6.4-13.3,9.5c-0.7,0.5-1.1,0.5-1.8,0
		c-3.5-2.4-7-4.8-10.5-7.1c-2.9-1.9-5.6-3.9-8.3-6c-17.5-13.4-34-27.9-48.9-44.3c-35.9-39.7-59.4-85.8-71.4-137.8
		c-3.5-15.2-6-30.6-7.6-46.2c-0.8-7.4-1.3-14.9-1.7-22.3c0-0.5,0-1,0-1.7c2.3,2,4.4,3.9,6.5,5.8c42.9,38.2,85.8,76.5,128.6,114.7
		c29.3,26.1,58.6,52.2,87.9,78.3c0.8,0.7,0.6,1.1,0.1,1.8c-9,10.6-18.6,20.6-28.8,30c-5.3,4.9-10.7,9.6-16.3,14.2
		C225.1,344.6,224,345.4,223,346.3z M150.3,279.7L150.3,279.7c0.2,1.9-0.1,3.6-1.1,5.3c-0.6,1-1.6,1.5-2.8,1.4
		c-1-0.1-1.9-0.5-2.1-1.5c-0.3-1.4-1.1-1.4-2.2-1.2c-0.7,0.1-1.4,0.2-2.1,0.2c-0.5,0-0.7,0.2-0.6,0.8c0.4,2.7,2.4,4.9,5,5.5
		c4.5,1,8.6-1.3,10-5.8c1.5-4.7,1.4-9.5,0.1-14.2c-0.8-2.7-2.6-4.7-5.3-5.5c-5.9-1.8-11.1,3-10.3,9.3c0.6,4.7,3.7,7.6,7.9,7.3
		C148.1,281.3,149.2,280.4,150.3,279.7z M133.2,241.4c3.7-3.4,4.2-7.4,1.2-10.3c-2.7-2.7-8.6-2.6-11.1,0.2c-2.8,3-2.2,7.1,1.5,10.1
		c-3.5,2.5-4.7,5.8-3.4,9.5c1.1,3.2,4.4,5.3,8.2,5.1c3.6-0.2,6.4-2.4,7.2-5.6C137.8,246.4,136.6,243.4,133.2,241.4z M175.5,250.8
		c0.6-1.1,1.2-1.8,1.9-2.5c1.3-1.3,2.6-2.6,3.9-3.9c1.4-1.5,2.5-3.2,3.1-5.3c1-3.3,0.1-6.4-2.2-8.4c-4.6-3.7-11.9-1.2-13.1,4.6
		c-0.2,1.1-0.2,1.9,1.3,1.7c0.6-0.1,1.2,0.1,1.8,0.2c1,0.2,1.4-0.1,1.6-1.2c0.3-1.8,1.3-2.7,2.8-2.8c2.4-0.2,3.9,1.6,3.5,4.2
		c-0.3,1.6-1.2,2.9-2.3,4c-1.9,2.1-4.1,4-5.9,6.2c-1.6,1.9-2.9,4.1-3.4,6.6c-0.2,0.9,0,1.1,0.9,1.1c4,0,8,0,12,0
		c1.1,0,2.6,0.5,3.3-0.2c0.7-0.7,0.1-2.2,0.2-3.3c0.1-1-0.3-1.2-1.3-1.2C180.9,250.9,178.3,250.8,175.5,250.8z M184.6,285.5
		c0.5-0.9,1-1.5,1.6-2c1.4-1.4,2.9-2.8,4.3-4.2c1.2-1.3,2.3-2.7,2.9-4.3c2-4.8-0.4-9.4-5.4-10.3c-1-0.2-2.1-0.2-3.1-0.1
		c-3.7,0.3-6.4,2.8-6.9,6.4c-0.1,0.7,0,1.2,0.9,1.2c0.9,0,1.8,0.1,2.7,0.3c0.8,0.1,1-0.1,1.2-0.9c0.3-2.2,1.9-3.3,4-2.9
		c1.9,0.4,2.9,2.1,2.4,4.2c-0.3,1.6-1.3,2.7-2.4,3.8c-2.3,2.3-4.7,4.4-6.8,7c-1.3,1.6-2.1,3.4-2.6,5.4c-0.2,0.8,0,1.1,0.9,1
		c4.9,0,9.8,0,14.7,0c0.8,0,1.1-0.1,1-1c-0.1-0.8-0.1-1.7,0-2.5c0.1-0.9-0.2-1.1-1.1-1.1C190.3,285.5,187.6,285.5,184.6,285.5z
		 M172.6,272.6c0-1.8,0-3.7,0-5.5c0-2.6,0-2.6-2.6-2.6c-1.1,0-1.7,0.3-2.3,1.2c-2.7,4.2-5.4,8.4-8.4,12.4c-1.3,1.8-1.9,3.7-1.7,5.8
		c0.1,0.7,0.2,1,1,1c2.6,0,5.2,0.1,7.8,0c1.2,0,1.7,0.2,1.6,1.5c-0.1,1.2-0.5,2.7,0.2,3.4c0.8,0.7,2.3,0.2,3.5,0.2c0,0,0.1,0,0.1,0
		c0.6,0.1,0.8-0.2,0.7-0.7c0-1.1,0-2.3,0-3.4c0-0.7,0.2-1,1-1c2.1,0,2.1-0.1,2.1-2.2c0-0.3,0-0.5,0-0.8c0.2-1.1-0.3-1.4-1.3-1.3
		c-0.3,0-0.5,0-0.8,0c-0.8,0.1-1-0.2-1-1C172.6,277.2,172.6,274.9,172.6,272.6z M156.9,236.8c0.3,0.5,0.2,0.9,0.2,1.3
		c0,4.6,0,9.3,0,13.9c0,1.1-0.5,2.6,0.2,3.3c0.6,0.6,2.1,0.1,3.2,0.2c1,0.1,1.3-0.2,1.3-1.3c0-7.4,0-14.7,0-22.1c0-3.2,0-3.1-3.1-3
		c-0.5,0-0.8,0.1-1,0.6c-0.8,2.1-2.3,3.8-4.3,4.6c-2.4,1-2.7,2.6-2.5,4.8c0.1,1,0.3,1,1.1,0.7C153.8,239.1,155.4,238.1,156.9,236.8z
		 M127.2,271.7c0,0.5,0.1,0.8,0.1,1.1c0,5.3,0,10.7,0,16c0,0.9,0.2,1.3,1.1,1.2c0.8-0.1,1.7-0.1,2.5,0c1,0.1,1.2-0.2,1.2-1.2
		c0-7.2,0-14.4,0-21.6c0-2.9,0-2.9-2.9-2.8c-0.5,0-0.9-0.2-1.2,0.5c-1.2,2.8-3.6,4.4-6.3,5.7c-0.3,0.1-0.6,0.2-0.6,0.7
		c0,1.3,0,2.6,0,3.9C123.4,274.5,125.3,273.3,127.2,271.7z M109.2,236.6c0,5.3,0,10.4,0,15.4c0,1.1-0.5,2.7,0.2,3.3
		c0.7,0.6,2.2,0.1,3.3,0.2c1,0.1,1.2-0.2,1.2-1.2c0-7.5,0-14.9,0-22.4c0-2.8,0-2.8-2.9-2.8c-0.4,0-0.8-0.2-1.1,0.4
		c-1.2,2.9-3.5,4.6-6.2,5.9c-0.4,0.2-0.6,0.4-0.6,0.9c0,1.3,0,2.5,0,3.9C105.5,239.6,107.3,238.3,109.2,236.6z M145.9,253.1
		c0-2.6,0-2.6-2.3-2.6c-2.4,0-2.4,0-2.4,2.6c0,2.4,0,2.4,2.4,2.4C145.9,255.5,145.9,255.5,145.9,253.1z"/>
	<path class="st6" d="M237.6,109c0-21.7,17.7-39.5,39.4-39.5c21.8,0,39.5,17.7,39.5,39.5c0,21.7-17.7,39.4-39.5,39.4
		C255.3,148.4,237.6,130.8,237.6,109z M312,109c0-19.3-15.7-35-35-35c-19.3,0-35,15.7-35,34.9c0,19.3,15.7,35.1,35.1,35.1
		C296.4,144,312,128.3,312,109z"/>
	<path class="st6" d="M133.2,241.4c3.4,2,4.6,5,3.6,8.9c-0.8,3.3-3.7,5.5-7.2,5.6c-3.9,0.2-7.1-1.9-8.2-5.1c-1.3-3.7-0.1-7,3.4-9.5
		c-3.7-3-4.3-7-1.5-10.1c2.6-2.8,8.4-2.9,11.1-0.2C137.4,234,136.9,238,133.2,241.4z M132.5,247.5c0-0.2,0-0.7-0.1-1.1
		c-0.3-1.6-1.6-2.8-3.2-2.9c-1.5-0.1-2.8,0.8-3.3,2.5c-0.5,1.4-0.4,2.8,0.3,4.1c0.9,1.9,3.2,2.5,4.8,1.4
		C132.1,250.5,132.4,249.2,132.5,247.5z M131.9,236.3c0-1.9-1.1-3.2-2.9-3.2c-1.8,0-3,1.2-3,3.1c0,2,1.1,3.2,3,3.2
		C130.8,239.5,131.9,238.3,131.9,236.3z"/>
	<path class="st6" d="M150.3,279.7c-1.1,0.7-2.2,1.5-3.6,1.6c-4.1,0.3-7.3-2.6-7.9-7.3c-0.8-6.4,4.4-11.1,10.3-9.3
		c2.8,0.8,4.5,2.8,5.3,5.5c1.4,4.7,1.4,9.5-0.1,14.2c-1.4,4.5-5.5,6.7-10,5.8c-2.6-0.6-4.6-2.8-5-5.5c-0.1-0.6,0.1-0.8,0.6-0.8
		c0.7-0.1,1.4-0.1,2.1-0.2c1.1-0.2,1.9-0.2,2.2,1.2c0.2,1,1.1,1.4,2.1,1.5c1.2,0.1,2.2-0.4,2.8-1.4
		C150.2,283.4,150.5,281.6,150.3,279.7c0.1,0.1,0.2,0.1,0.2-0.1c0,0,0-0.1,0-0.1C150.4,279.6,150.3,279.7,150.3,279.7z M150.1,273.6
		c0-2-0.5-3.3-1.4-4.2c-1.6-1.5-3.9-1.1-4.7,1c-0.7,1.8-0.7,3.7,0,5.5c0.5,1.3,1.5,2,2.8,2c1.4,0,2.3-0.7,2.9-2
		C150,275.1,150.1,274.3,150.1,273.6z"/>
	<path class="st6" d="M175.5,250.8c2.8,0,5.4,0,8.1,0c0.9,0,1.4,0.2,1.3,1.2c-0.1,1.1,0.5,2.6-0.2,3.3c-0.7,0.7-2.2,0.2-3.3,0.2
		c-4,0-8,0-12,0c-0.9,0-1-0.2-0.9-1.1c0.5-2.5,1.7-4.6,3.4-6.6c1.8-2.2,4-4.1,5.9-6.2c1.1-1.2,2-2.4,2.3-4c0.5-2.6-1-4.4-3.5-4.2
		c-1.5,0.1-2.5,1-2.8,2.8c-0.2,1.1-0.6,1.4-1.6,1.2c-0.6-0.1-1.2-0.3-1.8-0.2c-1.5,0.1-1.5-0.6-1.3-1.7c1.2-5.8,8.5-8.3,13.1-4.6
		c2.4,1.9,3.2,5.1,2.2,8.4c-0.6,2-1.7,3.7-3.1,5.3c-1.3,1.3-2.6,2.6-3.9,3.9C176.7,249,176,249.7,175.5,250.8z"/>
	<path class="st6" d="M184.6,285.5c3,0,5.7,0,8.4,0c0.8,0,1.2,0.2,1.1,1.1c-0.1,0.8-0.1,1.7,0,2.5c0.1,0.9-0.3,1-1,1
		c-4.9,0-9.8,0-14.7,0c-0.9,0-1-0.3-0.9-1c0.4-2,1.3-3.8,2.6-5.4c2-2.6,4.5-4.7,6.8-7c1.1-1.1,2.1-2.3,2.4-3.8
		c0.5-2.1-0.5-3.9-2.4-4.2c-2.1-0.4-3.7,0.7-4,2.9c-0.1,0.8-0.4,1-1.2,0.9c-0.9-0.1-1.8-0.3-2.7-0.3c-0.9,0-1-0.4-0.9-1.2
		c0.5-3.6,3.2-6.1,6.9-6.4c1-0.1,2.1-0.1,3.1,0.1c5,0.9,7.4,5.5,5.4,10.3c-0.7,1.6-1.7,3.1-2.9,4.3c-1.4,1.4-2.9,2.8-4.3,4.2
		C185.6,284,185.1,284.5,184.6,285.5z"/>
	<path class="st6" d="M172.6,272.6c0,2.3,0,4.7,0,7c0,0.8,0.2,1.2,1,1c0.3,0,0.5,0,0.8,0c1-0.2,1.5,0.2,1.3,1.3c0,0.3,0,0.5,0,0.8
		c0,2.2,0,2.2-2.1,2.2c-0.8,0-1,0.3-1,1c0,1.1,0,2.3,0,3.4c0,0.6-0.2,0.8-0.7,0.7c0,0-0.1,0-0.1,0c-1.2-0.1-2.8,0.5-3.5-0.2
		c-0.7-0.7-0.3-2.3-0.2-3.4c0.1-1.3-0.3-1.6-1.6-1.5c-2.6,0.1-5.2,0-7.8,0c-0.7,0-0.9-0.2-1-1c-0.2-2.2,0.4-4,1.7-5.8
		c2.9-4.1,5.6-8.3,8.4-12.4c0.6-0.9,1.2-1.3,2.3-1.2c2.6,0.1,2.6,0,2.6,2.6C172.6,268.9,172.6,270.7,172.6,272.6z M167.9,272.3
		c-0.1,0-0.2,0-0.2-0.1c-1.8,2.7-3.6,5.5-5.5,8.4c1.9,0,3.4,0,5,0c0.4,0,0.7,0,0.7-0.6C167.9,277.4,167.9,274.8,167.9,272.3z"/>
	<path class="st6" d="M156.9,236.8c-1.5,1.3-3,2.4-4.8,3.1c-0.8,0.3-1,0.4-1.1-0.7c-0.2-2.2,0.1-3.8,2.5-4.8c2-0.9,3.4-2.6,4.3-4.6
		c0.2-0.5,0.5-0.6,1-0.6c3.1-0.1,3.1-0.2,3.1,3c0,7.4,0,14.7,0,22.1c0,1.1-0.3,1.4-1.3,1.3c-1.1-0.1-2.6,0.4-3.2-0.2
		c-0.7-0.6-0.2-2.1-0.2-3.3c0-4.6,0-9.3,0-13.9C157.1,237.7,157.2,237.3,156.9,236.8z"/>
	<path class="st6" d="M127.2,271.7c-1.9,1.6-3.8,2.8-6.1,3.6c0-1.4,0-2.7,0-3.9c0-0.5,0.3-0.6,0.6-0.7c2.7-1.3,5-2.9,6.3-5.7
		c0.3-0.6,0.8-0.5,1.2-0.5c2.9,0,2.9,0,2.9,2.8c0,7.2,0,14.4,0,21.6c0,1-0.2,1.3-1.2,1.2c-0.8-0.1-1.7-0.1-2.5,0
		c-1,0.1-1.1-0.3-1.1-1.2c0-5.3,0-10.7,0-16C127.2,272.5,127.2,272.2,127.2,271.7z"/>
	<path class="st6" d="M109.2,236.6c-1.9,1.6-3.7,3-6.1,3.7c0-1.4,0-2.6,0-3.9c0-0.5,0.2-0.7,0.6-0.9c2.7-1.3,5-3.1,6.2-5.9
		c0.3-0.6,0.7-0.4,1.1-0.4c2.9-0.1,2.9-0.1,2.9,2.8c0,7.5,0,14.9,0,22.4c0,1-0.2,1.3-1.2,1.2c-1.1-0.1-2.6,0.3-3.3-0.2
		c-0.7-0.6-0.2-2.1-0.2-3.3C109.2,247,109.2,242,109.2,236.6z"/>
	<path class="st6" d="M145.9,253.1c0,2.4,0,2.4-2.4,2.4c-2.4,0-2.4,0-2.4-2.4c0-2.6,0-2.6,2.4-2.6
		C145.9,250.5,145.9,250.5,145.9,253.1z"/>
	<path class="st5" d="M312,109c0,19.3-15.7,35-35,35c-19.3,0-35.1-15.7-35.1-35.1c0-19.3,15.7-34.9,35-34.9
		C296.4,74,312,89.7,312,109z M265.1,77.9c-6.1,2.7-11.2,6.4-15.1,11.7c-0.4,0.6-0.2,0.8,0.3,1c0.9,0.4,1.7,0.9,2.6,1.3
		c0.7,0.3,1,0.8,1,1.6c0.2,2.9,0.5,5.8,0.8,8.6c0.1,0.6,0.3,0.9,0.8,1.2c3,1.4,6,2.8,9,4.2c0.5,0.2,1,0.2,1.5,0
		c3.2-1.4,6.4-2.8,9.6-4.2c0.7-0.3,0.9-0.7,1-1.4c0.5-3.7,1-7.5,1.5-11.2c0.1-0.8-0.2-1.1-0.9-1.5c-3.6-1.7-7.2-3.4-10.8-5.1
		c-0.8-0.4-1.1-0.8-1.1-1.7C265.3,81.1,265.2,79.6,265.1,77.9z M293.9,80.2c-0.2,2.6-0.3,4.9-0.5,7.3c0,0.7-0.2,1-0.9,1.1
		c-3.5,0.4-7,0.9-10.4,1.3c-1,0.1-1.4,0.5-1.6,1.4c-0.6,3.4-1.2,6.7-1.8,10.1c-0.1,0.7,0,1.1,0.5,1.6c2,2.1,3.9,4.2,5.8,6.3
		c0.5,0.6,1,0.7,1.7,0.4c3.4-1.1,6.9-2.2,10.4-3.3c0.8-0.2,1.1-0.6,1.3-1.4c0.7-2.8,1.5-5.5,2.2-8.3c0.2-0.9,0.7-1.4,1.5-1.7
		c1.7-0.6,3.3-1.3,5-1.9C303.7,87.7,299.2,83.7,293.9,80.2z M244.4,111.6c-0.7-0.1-0.8,0.2-0.7,0.8c0.2,1.2,0.4,2.3,0.6,3.5
		c0.7,3.3,1.6,6.6,3.7,9.3c0.4,0.6,0.9,1,1.7,1.2c3.2,0.5,6.4,1.1,9.6,1.7c0.6,0.1,1.1,0,1.5-0.4c1.8-1.6,3.6-3.2,5.5-4.8
		c0.5-0.4,0.6-0.7,0.5-1.3c-0.6-3.5-1.1-6.9-1.7-10.4c-0.1-0.6-0.4-0.8-0.9-1c-3.2-1.5-6.4-3-9.6-4.6c-0.6-0.3-1-0.2-1.5,0.2
		c-1.4,1.4-2.9,2.7-4.2,4.1C247.7,111.2,246.5,112.3,244.4,111.6z M302.9,126.7c0.6,0.2,0.9-0.3,1.2-0.7c2.3-2.7,3.7-5.8,4.7-9.1
		c0.7-2.3,0.7-2.3-1.8-2.5c-0.5,0-1-0.2-1.6-0.2c-0.9,0-1.5-0.3-2.1-1c-1.4-1.7-2.9-3.3-4.3-5c-0.5-0.6-0.9-0.7-1.5-0.4
		c-3.5,1.5-7,3-10.5,4.4c-0.6,0.2-0.9,0.6-1.1,1.2c-0.7,2.7-1.4,5.4-2.1,8.1c-0.2,0.7-0.1,1.2,0.4,1.8c1.5,1.9,3.1,3.8,4.5,5.8
		c0.4,0.5,0.7,0.7,1.4,0.4c1.7-0.7,3.5-1.2,5.1-2c2.4-1.1,4.8-1.9,7.4-0.8C302.8,126.6,302.8,126.6,302.9,126.7z M274.7,123.7
		c0,0,0-0.1,0-0.1c-1.9,0-3.8,0-5.7,0c-0.6,0-1.1,0.2-1.5,0.6c-1.7,1.7-3.4,3.4-5.2,5.1c-0.5,0.5-0.5,0.8-0.1,1.4c2,2.9,4,5.9,6,8.8
		c0.5,0.7,1.1,1,1.9,1.2c4.2,0.8,8.3,0.4,12.4-0.5c0.6-0.1,0.9-0.4,1.1-0.9c1.1-2.3,2.3-4.6,3.4-6.9c0.3-0.6,0.2-1-0.2-1.5
		c-1.7-2.1-3.4-4.2-5.1-6.4c-0.4-0.5-0.9-0.8-1.6-0.7C278.3,123.7,276.5,123.7,274.7,123.7z"/>
	<path class="st5" d="M132.5,247.5c0,1.7-0.3,3-1.5,3.9c-1.6,1.1-3.9,0.5-4.8-1.4c-0.6-1.3-0.7-2.7-0.3-4.1c0.5-1.7,1.8-2.6,3.3-2.5
		c1.6,0.1,2.8,1.2,3.2,2.9C132.4,246.8,132.4,247.3,132.5,247.5z"/>
	<path class="st5" d="M131.9,236.3c0,1.9-1.1,3.1-2.9,3.1c-1.9,0-3-1.2-3-3.2c0-1.9,1.2-3.1,3-3.1
		C130.8,233.2,131.9,234.4,131.9,236.3z"/>
	<path class="st5" d="M150.1,273.6c0,0.7-0.1,1.5-0.4,2.3c-0.6,1.2-1.5,2-2.9,2c-1.3,0-2.3-0.7-2.8-2c-0.7-1.8-0.7-3.7,0-5.5
		c0.8-2.1,3.1-2.5,4.7-1C149.6,270.3,150.1,271.6,150.1,273.6z"/>
	<path class="st5" d="M150.3,279.7c0-0.1,0.1-0.1,0.1-0.2c0,0,0,0.1,0,0.1C150.5,279.8,150.4,279.8,150.3,279.7
		C150.3,279.7,150.3,279.7,150.3,279.7z"/>
	<path class="st5" d="M167.9,272.3c0,2.6,0,5.1,0,7.7c0,0.6-0.3,0.6-0.7,0.6c-1.6,0-3.2,0-5,0c1.9-2.9,3.7-5.6,5.5-8.4
		C167.8,272.2,167.9,272.2,167.9,272.3z"/>
	<path class="st6" d="M265.1,77.9c0.1,1.7,0.3,3.3,0.3,4.8c0,0.9,0.3,1.3,1.1,1.7c3.6,1.6,7.2,3.4,10.8,5.1c0.7,0.3,1,0.6,0.9,1.5
		c-0.6,3.7-1,7.5-1.5,11.2c-0.1,0.7-0.3,1.1-1,1.4c-3.2,1.4-6.4,2.8-9.6,4.2c-0.5,0.2-1,0.2-1.5,0c-3-1.4-6-2.8-9-4.2
		c-0.5-0.3-0.8-0.6-0.8-1.2c-0.3-2.9-0.6-5.8-0.8-8.6c-0.1-0.8-0.3-1.3-1-1.6c-0.9-0.4-1.7-0.9-2.6-1.3c-0.5-0.3-0.7-0.5-0.3-1
		C253.9,84.3,259,80.6,265.1,77.9z"/>
	<path class="st6" d="M293.9,80.2c5.3,3.5,9.8,7.5,13.1,12.9c-1.7,0.7-3.4,1.4-5,1.9c-0.9,0.3-1.3,0.8-1.5,1.7
		c-0.7,2.8-1.5,5.5-2.2,8.3c-0.2,0.8-0.6,1.2-1.3,1.4c-3.5,1.1-6.9,2.1-10.4,3.3c-0.7,0.2-1.2,0.2-1.7-0.4c-1.9-2.1-3.8-4.2-5.8-6.3
		c-0.5-0.5-0.6-1-0.5-1.6c0.6-3.4,1.3-6.7,1.8-10.1c0.2-1,0.6-1.3,1.6-1.4c3.5-0.3,7-0.9,10.4-1.3c0.8-0.1,0.9-0.4,0.9-1.1
		C293.6,85.1,293.7,82.7,293.9,80.2z"/>
	<path class="st6" d="M244.4,111.6c2,0.8,3.3-0.3,4.5-1.7c1.3-1.4,2.8-2.7,4.2-4.1c0.5-0.5,0.8-0.6,1.5-0.2c3.2,1.6,6.4,3.1,9.6,4.6
		c0.5,0.2,0.8,0.5,0.9,1c0.5,3.5,1.1,6.9,1.7,10.4c0.1,0.6,0,1-0.5,1.3c-1.8,1.6-3.7,3.1-5.5,4.8c-0.5,0.4-0.9,0.6-1.5,0.4
		c-3.2-0.6-6.4-1.2-9.6-1.7c-0.8-0.1-1.2-0.6-1.7-1.2c-2.1-2.7-3-6-3.7-9.3c-0.3-1.2-0.4-2.3-0.6-3.5
		C243.6,111.7,243.8,111.4,244.4,111.6z"/>
	<path class="st6" d="M302.9,126.7c-0.1,0-0.1,0-0.2,0c-2.6-1.1-5-0.3-7.4,0.8c-1.7,0.7-3.4,1.3-5.1,2c-0.7,0.3-1,0.1-1.4-0.4
		c-1.5-2-3-3.9-4.5-5.8c-0.5-0.6-0.6-1.1-0.4-1.8c0.7-2.7,1.4-5.4,2.1-8.1c0.2-0.6,0.5-0.9,1.1-1.2c3.5-1.4,7-2.9,10.5-4.4
		c0.7-0.3,1.1-0.2,1.5,0.4c1.4,1.7,2.9,3.3,4.3,5c0.6,0.7,1.2,1.1,2.1,1c0.5,0,1,0.1,1.6,0.2c2.5,0.2,2.5,0.2,1.8,2.5
		c-1,3.3-2.4,6.5-4.7,9.1C303.8,126.3,303.5,126.9,302.9,126.7z"/>
	<path class="st6" d="M274.7,123.7c1.8,0,3.7,0,5.5,0c0.7,0,1.1,0.2,1.6,0.7c1.7,2.1,3.4,4.3,5.1,6.4c0.4,0.5,0.5,0.9,0.2,1.5
		c-1.2,2.3-2.3,4.6-3.4,6.9c-0.2,0.5-0.5,0.8-1.1,0.9c-4.1,0.9-8.2,1.3-12.4,0.5c-0.8-0.2-1.4-0.4-1.9-1.2c-1.9-3-3.9-5.9-6-8.8
		c-0.4-0.6-0.4-0.9,0.1-1.4c1.7-1.7,3.5-3.4,5.2-5.1c0.4-0.4,0.9-0.6,1.5-0.6c1.9,0,3.8,0,5.7,0
		C274.7,123.6,274.7,123.6,274.7,123.7z"/>
</g>
</svg>
