<svg enable-background="new 0 0 640 480" height="273.861279" viewBox="0 0 640 480" width="365.148372" xmlns="http://www.w3.org/2000/svg"><path d="m331.52 480c-142.14-104.09-227.87-253.42-257.17-448 108.97 39.82 194.7 29.15 257.17-32 62.47 61.15 148.2 71.82 257.17 32-29.3 194.58-115.03 343.91-257.17 448z" fill="#1b1918"/><path d="m258.94 56.45c-53.91 17.09-113.12 10.37-171.12-8.44 23.5 137.51 77.53 258.3 171.12 354.77z" fill="#e30016"/><path d="m575.23 48.02c-58.01 18.81-117.21 25.52-171.12 8.44v346.33c93.59-96.48 147.62-217.27 171.12-354.77z" fill="#009035"/><g fill="#fff"><path d="m216.22 174.11 28.67 9.87c-1.92 9.17-4.95 16.84-9.11 22.97-4.14 6.16-9.26 10.8-15.42 13.92-6.13 3.12-13.94 4.7-23.42 4.7-11.53 0-20.91-1.91-28.22-5.71-7.29-3.82-13.57-10.54-18.86-20.13s-7.95-21.9-7.95-36.86c0-19.96 4.65-35.32 13.96-46.06 9.33-10.71 22.51-16.08 39.55-16.08 13.32 0 23.81 3.07 31.45 9.22 7.61 6.16 13.3 15.61 16.99 28.37l-28.81 7.28c-1.01-3.66-2.07-6.33-3.18-8.01-1.85-2.84-4.09-5.03-6.72-6.55-2.66-1.55-5.62-2.31-8.89-2.31-7.44 0-13.13 3.4-17.07 10.18-2.98 5.03-4.48 12.96-4.48 23.73 0 13.38 1.77 22.52 5.34 27.5 3.57 4.95 8.57 7.42 15.02 7.42 6.26 0 10.98-2 14.19-6.02 3.19-3.99 5.51-9.81 6.96-17.43z"/><path d="m349.62 233.29h-37.04l-5.32 19.91h-33.37l39.82-120.8h35.78l39.65 120.8h-34.23zm-6.92-26.15-11.55-43.41-11.6 43.41z"/><path d="m420.89 102.74h99.45v29.86h-33.39v90.93h-32.66v-90.93h-33.39z"/></g></svg>