<svg id="Layer_1" data-name="Layer 1" xmlns="http://www.w3.org/2000/svg" viewBox="0 0 500 500"><defs><style>.cls-1{fill:#012c61;}.cls-2{fill:#fff;}</style></defs><title>Taubaté</title><path class="cls-1" d="M484,58.21c-4.26,6.59-8.31,13.06-12.56,19.4-21.24,31.64-24.63,65.81-14,101.75,6.34,21.53,13.73,42.75,19.86,64.34,5.61,19.72,9.1,39.84,9.08,60.54,0,31-11.33,57.1-33.36,78.64-19.48,19.05-42.86,31.91-67.93,42-27.91,11.25-56,22.08-83.53,34.2-18.93,8.33-36.52,19.28-51.07,34.95L244,488.58c-29.7-24.94-64.19-40.65-100.65-52.74-32.13-10.65-62.59-24.68-88.42-47.14-19.7-17.13-34.44-37.53-38.89-64-5.33-31.63-1-62.31,9.42-92.39,6.61-19,13.74-37.86,18.93-57.24,6.3-23.48,7.91-47.69-1.67-70.68C36.6,89.79,27.88,76.22,20,62.38c-1.89-3.3-2.09-5.14.63-8Q41.89,31.86,62.73,8.91c2.18-2.39,3.9-2.62,6.8-1.45,31.86,12.89,64.86,19.76,99.37,18.66A226.37,226.37,0,0,0,244.78,10.4a13.7,13.7,0,0,1,10.52-.15c32.59,12.1,66.21,17.55,101,14.73A260.51,260.51,0,0,0,430.33,7.45c3.72-1.46,5.84-1,8.52,2C453,24.91,467.42,40.19,481.74,55.54,482.52,56.38,483.22,57.29,484,58.21Zm-234.56,421c11.75-8.22,22.64-16.78,34.42-23.85,21.52-12.92,45.32-20.84,68.79-29.37,24.73-9,49.56-17.74,72-32,29.07-18.5,46.73-44.46,51.78-78.73,3.57-24.14-.61-47.5-7.76-70.43-7.08-22.72-15.13-45.15-22-67.93-10.17-33.77-7.34-66.18,12-96.42,4-6.31,8.14-12.59,11.83-19.11.8-1.4.75-4.41-.23-5.53-11.09-12.65-22.47-25-33.68-37.59-2.05-2.3-4-2.85-7-1.82-6.45,2.24-13.06,4-19.54,6.14C360.35,39.07,310.8,38.8,261.5,21.3a30.82,30.82,0,0,0-22.13,0A232.15,232.15,0,0,1,136.09,33.83c-21.56-2.16-42-9-62.38-15.68-5-1.64-8-.62-11.24,3C52.21,32.55,41.76,43.76,31.23,54.9c-2.26,2.39-2.37,4.32-.66,7,3.73,5.72,7.26,11.57,10.93,17.33,14.94,23.5,22.34,49,17,76.65-3.46,18.07-8.93,35.83-14.53,53.4-7.49,23.48-16.8,46.45-19.55,71.16-5.45,49,11.1,88,53.59,114.65,19.46,12.22,40.87,20.11,62.28,28,17.16,6.36,34.4,12.58,51.32,19.57C213.32,451.62,233.52,463.15,249.43,479.18Z"/><path class="cls-2" d="M249.43,479.18c-15.91-16-36.11-27.56-57.77-36.52-16.92-7-34.16-13.21-51.32-19.57-21.41-7.94-42.82-15.83-62.28-28-42.49-26.68-59-65.63-53.59-114.65,2.75-24.71,12.06-47.68,19.55-71.16,5.6-17.57,11.07-35.33,14.53-53.4,5.29-27.64-2.11-53.15-17-76.65-3.67-5.76-7.2-11.61-10.93-17.33-1.71-2.63-1.6-4.56.66-7,10.53-11.14,21-22.35,31.24-33.73,3.28-3.64,6.26-4.66,11.24-3,20.4,6.71,40.82,13.52,62.38,15.68A232.15,232.15,0,0,0,239.37,21.34a30.82,30.82,0,0,1,22.13,0c49.3,17.5,98.85,17.77,148.5,1.25,6.48-2.15,13.09-3.9,19.54-6.14,3-1,5-.48,7,1.82,11.21,12.55,22.59,24.94,33.68,37.59,1,1.12,1,4.13.23,5.53-3.69,6.52-7.79,12.8-11.83,19.11-19.33,30.24-22.16,62.65-12,96.42,6.85,22.78,14.9,45.21,22,67.93,7.15,22.93,11.33,46.29,7.76,70.43-5.05,34.27-22.71,60.23-51.78,78.73-22.4,14.25-47.23,23-72,32-23.47,8.53-47.27,16.45-68.79,29.37C272.07,462.4,261.18,471,249.43,479.18Zm.86-13.9c4.29-3.59,8.25-7.13,12.44-10.37C283.32,439,307.25,429.82,331.38,421c23.74-8.71,47.7-17,70.8-27.2,24.57-10.84,44-28.07,55.11-53.33,11.4-25.85,11.88-52.59,4.66-79.26-6.22-22.94-14.34-45.37-21.62-68-6.13-19.09-11.46-38.35-10.26-58.69.34-5.75,1.42-11.46,2.29-18.19l-323,283.29c13.13,4.77,25,9.21,36.89,13.4C183.17,425.92,221,436.94,250.29,465.28Zm123.51-421c-13.28.53-26.25,1.79-39.17,1.38-25.07-.79-49.79-4.48-73.4-13.44-7.45-2.82-14.21-2.61-21.67,0a236.06,236.06,0,0,1-29.79,8.29c-27.57,5.75-55.5,8.76-83.36,3.34-17.26-3.35-34.07-9.06-51-14-3.13-.91-5.23-.71-7.49,1.72Q56.66,43.7,45.09,55.46c-1.87,1.91-1.83,3.44-.62,5.66C48.23,68,51.79,75,55.42,81.9c16.71,32,20.31,65.13,8.78,99.62-6.49,19.42-13.12,38.81-19.43,58.29-7.13,22-12.23,44.42-9.61,67.76,1,8.77,3.35,17.39,5.33,27.35Zm19.27-4.14-1.24-1.9c-4.42,2.59-9.4,4.56-13.19,7.87q-136,119-271.76,238.25-30.06,26.37-60.1,52.76c-1.7,1.5-4.49,2.9-1.06,5.87L375.45,55.57c3.16,1.93.6,7.65,6.11,6.24.51-4.38-.1-9.18,1.78-12.61C385.36,45.52,389.72,43.12,393.07,40.17ZM438.83,100l-1.72-1.41-337,295.56c3.52,3.68,5.33.36,7.19-1.26q161.85-141,323.56-282.19C434.15,107.8,436.2,103.55,438.83,100ZM274.75,162.23l31.18,35.85c6-5.18,11.48-9.94,17-14.76a24.2,24.2,0,0,0,2.73-2.9c6-7.27,5.25-15.77-2.26-20.82-2.67-1.79-6.32-2.11-9.7-3.16.18-6-2-10.33-6.81-12.66-5.24-2.54-9.81-.58-13.83,2.71C287,151.44,281.18,156.67,274.75,162.23Zm156.07-72.7-5.71-6.29-19.69,17-8.21-9.45,17.18-15.09-5.17-5.8L391.9,84.82l-6.63-8L404,60.46l-5.29-5.92L372.75,77.09l31.19,35.82ZM98.89,378.05l26.88-23.42-5.71-6.24-19.71,17-8.15-9.5,17.15-15.08-5.19-5.75L87,349.86l-6.86-7.8L98.89,325.6l-5.26-5.94L67.77,342.19ZM260.33,174.58c1.29,1.6,2.18,2.77,3.15,3.88,5.33,6.16,10.73,12.27,16,18.48s5.17,10.36.18,14.66-8.87,3.64-14.16-2c-1-1.1-2-2.25-3-3.38-5.45-6.24-10.89-12.49-16.61-19.06l-7.21,6.36c7.58,8.62,14.66,17.24,22.36,25.26,6.65,6.95,15.53,6.43,23.68-.52,8.63-7.38,10.77-15.85,4.86-23.6-6.84-9-14.53-17.27-22.15-26.22ZM166.77,298.2c-4.07,2.62-7.12,4.73-5.89,10.86,1.55,7.74-8.56,14.4-16.22,11.2A22.7,22.7,0,0,1,131.24,305c-2.23-7.77,5.89-17.39,13.13-15,5.95,2,8.38-.78,11.36-4.36-6.76-6.15-13-7-20.69-2.82-14.73,8-17.87,22.44-7.59,35.59a41.45,41.45,0,0,0,7,7.09c12.85,10.12,31.75,3.33,35.53-12.64A16.68,16.68,0,0,0,166.77,298.2ZM373.12,139.65c-14.42-8.05-28.22-16-42.33-23.31-1.41-.73-5,1.87-7.05,3.52-1.23,1-2.5,3.51-2.05,4.71,5.52,14.74,11.36,29.35,17.51,45,2.34-3.89,9-4.25,5.92-9.89-2.84-5.28-1.17-8,3-11.47,5.55-4.62,10.37-10.15,17.1-1.72Zm-140,121.63c2.1-1.8,3.87-2.89,5-4.44.91-1.22,1.94-3.65,1.37-4.45-4.29-6-1.11-9.59,3.7-12.91,1.77-1.22,3.09-3.21,5-4.11,1.59-.76,4.07-1.21,5.49-.5,7.23,3.61,7.16,3.76,12.93-3.49-14-7.79-27.77-15.75-41.92-23-1.46-.75-5.2,2.25-7.46,4.05a5,5,0,0,0-1.37,4.43C221.4,231.44,227.16,246,233.16,261.28ZM208.44,230.6l-5.32-6.09-28.44,24.74,5.3,6.16c3.68-3.15,7.05-6,10.73-9.15l25.77,29.48,7.1-6.22L198,240ZM356,102.56l25.75,29.53,7.17-6.2L363.27,96.24,373.7,87l-5.29-6.14L340,105.58l5.3,6.09ZM176.71,297.91,182.9,305l7.11-6.27-6.27-6.89Zm-37.24,44.72-6.21-7-6.93,6.25,6.07,7Z"/><path class="cls-1" d="M250.29,465.28c-29.27-28.34-67.12-39.36-104-52.32-11.92-4.19-23.76-8.63-36.89-13.4l323-283.29c-.87,6.73-1.95,12.44-2.29,18.19-1.2,20.34,4.13,39.6,10.26,58.69,7.28,22.66,15.4,45.09,21.62,68,7.22,26.67,6.74,53.41-4.66,79.26-11.14,25.26-30.54,42.49-55.11,53.33-23.1,10.19-47.06,18.49-70.8,27.2-24.13,8.85-48.06,18-68.65,33.94C258.54,458.15,254.58,461.69,250.29,465.28Zm39.2-114.4c.29,6.43,3.39,10.05,8.45,11.95,10.19,3.83,20.62-.9,24.43-11.1a42.29,42.29,0,0,0,1.12-26C320.61,314.78,312,309.66,301,312c-8.87,1.91-14.21,10.15-13.07,20.16,1,8.54,7.52,14.18,16.59,13.88,3-.1,6-1.11,9.56-1.83-.88,2.84-1.35,5.49-2.5,7.78-1.81,3.6-7.65,5.14-9.72,2.16C298.45,349.25,294.17,351.15,289.49,350.88Zm101.58-37.64c-2.31-.11-3.8-.05-5.26-.26-5.34-.78-8.88.93-11.57,6a213.63,213.63,0,0,1-12.51,19.83c-2.7,4-2.56,8-1.43,12.85h20.83v10.4h9.69c.17-3.54.32-6.78.48-10.14l5.3-.94v-7.47l-5.53-.84Zm-40.23,48.84v-50c-4.27-.81-7.7-1.44-9.78,3.81-.78,2-4.32,3.45-6.85,4-6.16,1.35-6.41,1.39-4.41,8.13H341v34Zm-71.67,0c0-16.31,0-32,0-47.58a15.38,15.38,0,0,0-.44-2.52c-3.91-.45-7.49-1.72-9.37,3.68-.66,1.92-4,3.16-6.29,4.17-1.73.75-3.85.63-5.91.91v7l12,.52V362.1Z"/><path class="cls-1" d="M373.8,44.31,40.49,334.92c-2-10-4.34-18.58-5.33-27.35-2.62-23.34,2.48-45.75,9.61-67.76,6.31-19.48,12.94-38.87,19.43-58.29C75.73,147,72.13,113.89,55.42,81.9,51.79,75,48.23,68,44.47,61.12c-1.21-2.22-1.25-3.75.62-5.66Q56.64,43.69,67.91,31.64c2.26-2.43,4.36-2.63,7.49-1.72,16.94,4.9,33.75,10.61,51,14,27.86,5.42,55.79,2.41,83.36-3.34a236.06,236.06,0,0,0,29.79-8.29c7.46-2.61,14.22-2.82,21.67,0,23.61,9,48.33,12.65,73.4,13.44C347.55,46.1,360.52,44.84,373.8,44.31ZM130.35,83.77a13.32,13.32,0,0,0-2.14-.21C98.42,86.2,80.84,114.27,92.14,142c15.63,38.34,58,44.77,89.19,25.93a10.54,10.54,0,0,0,2.6-2.3c2.4-2.95,3.28-6.27,1.24-9.69s-5.47-4.46-9.11-3.37a43.63,43.63,0,0,0-8.58,3.92c-25,13.95-53.76,3-62.77-24-6.67-20,2.12-36.67,22.43-41.92C131.72,89.32,130.81,86.88,130.35,83.77Zm1.81-3.44c0,10.36,0,20,.06,29.6,0,1.51.61,4.27,1.18,4.33a36.18,36.18,0,0,0,10.8-.11c.77-.15,1.07-4.09,1.1-6.3.12-8.93,0-17.86,0-28.21,7.77,1.55,14.76,2.61,21.56,4.4s13.25,4.44,20,6.38c3.64,1.06,7.16.13,9-3.51s.06-6.92-2.84-8.7c-4.18-2.57-8.76-5.47-13.44-6a270.37,270.37,0,0,0-34.25-2c-15.46.08-30.89,1.56-45.68-5-5.07-2.25-9.34.32-10.85,5s.68,8.67,6.38,9.94a77.54,77.54,0,0,0,16.76,1.45C118.37,81.46,124.82,80.77,132.16,80.33ZM109.83,138.9c4.72,9.29,11.17,15.4,20.37,19.1,1-4.42,1.12-7.67-3-9.63a4.18,4.18,0,0,1-2-3.08c-.18-7.45-.1-14.91-.1-23.19,10.51,1.78,21.32-3.64,30.34,4.73.16.15.63,0,1-.06.86-9.26-.49-10.84-9.21-10.84H125.28v-8.55c.53-.26.82-.52,1.11-.53,2.49-.09,4.62-.26,4.39-3.79s-2.6-2.84-4.66-2.87c-3.66-.06-7.35-.21-11,.06-1.66.12-3.26,1.13-5.42,2,5.18,4.15,6.5,18,4.29,35.69Zm38-55.37c-1.58,5.33-.26,7.73,4.44,9.25a45.61,45.61,0,0,1,12.32,6.45c4.44,3.18,8.27,7.2,12.41,10.8,2.89,2.5,6,2.84,9.09.39s3.92-5.85,1.93-9.35a16.58,16.58,0,0,0-4.53-5.21C172.89,88.24,160.58,85.67,147.81,83.53ZM145,160.68V124.13H132.17c0,8.87,0,17.3,0,25.73,0,10.23.05,10.25,10.31,11A19.83,19.83,0,0,0,145,160.68Zm-27.69,33.13.73,1.05h42.38c-4.88-5.33-8.55-11-13.7-14.4-3.44-2.28-9-1.75-13.59-1.63-1.52,0-2.94,2.73-4.44,4.17C124.91,186.62,121.11,190.21,117.31,193.81Zm55.58-53c-7.47,7.3-15.66,12.33-25.58,12.93v6.52C162.42,160.74,175.48,151.57,172.89,140.77Zm-5.37-29.51c1-7.59-1.32-10.82-7.44-11.07-3-.12-6,.06-9,0-2.55-.1-4.08.44-4,3.52s1.83,3.08,4,3c5-.13,10-.28,13.83,4C165.32,111.13,166.4,111,167.52,111.26Z"/><path class="cls-1" d="M393.07,40.17c-3.35,2.95-7.71,5.35-9.73,9-1.88,3.43-1.27,8.23-1.78,12.61-5.51,1.41-2.95-4.31-6.11-6.24L45.72,343c-3.43-3-.64-4.37,1.06-5.87q30-26.4,60.1-52.76Q242.72,165.22,378.64,46.14c3.79-3.31,8.77-5.28,13.19-7.87Z"/><path class="cls-1" d="M438.83,100c-2.63,3.6-4.68,7.85-7.95,10.7Q269.21,251.89,107.32,392.84c-1.86,1.62-3.67,4.94-7.19,1.26l337-295.56Z"/><path class="cls-1" d="M274.75,162.23c6.43-5.56,12.24-10.79,18.28-15.74,4-3.29,8.59-5.25,13.83-2.71,4.83,2.33,7,6.66,6.81,12.66,3.38,1.05,7,1.37,9.7,3.16,7.51,5.05,8.22,13.55,2.26,20.82a24.2,24.2,0,0,1-2.73,2.9c-5.49,4.82-11,9.58-17,14.76Zm32.64,23.62c3.81-3.45,7.33-6.45,10.62-9.69,2.49-2.46,2.57-5.26.22-8s-5.4-3.4-8.37-1.16c-3.67,2.79-7.08,5.94-10.87,9.17C301.91,179.51,304.48,182.48,307.39,185.85Zm-13.52-15.63c3.7-3.41,7.42-6.23,10.26-9.75,1.05-1.32.81-4.86-.28-6.33-.86-1.18-4.51-1.7-5.86-.85-3.93,2.5-7.32,5.83-11.1,9Z"/><path class="cls-1" d="M430.82,89.53l-26.88,23.38L372.75,77.09l25.93-22.55L404,60.46l-18.7,16.38,6.63,8,17.32-14.89,5.17,5.8L397.21,90.82l8.21,9.45,19.69-17Z"/><path class="cls-1" d="M98.89,378.05,67.77,342.19l25.86-22.53,5.26,5.94L80.13,342.06l6.86,7.8,17.17-14.79,5.19,5.75L92.2,355.9l8.15,9.5,19.71-17,5.71,6.24Z"/><path class="cls-1" d="M260.33,174.58l7.16-6.15c7.62,8.95,15.31,17.26,22.15,26.22,5.91,7.75,3.77,16.22-4.86,23.6-8.15,6.95-17,7.47-23.68.52-7.7-8-14.78-16.64-22.36-25.26l7.21-6.36c5.72,6.57,11.16,12.82,16.61,19.06,1,1.13,1.94,2.28,3,3.38,5.29,5.65,9.29,6.21,14.16,2s5-8.58-.18-14.66-10.69-12.32-16-18.48C262.51,177.35,261.62,176.18,260.33,174.58Z"/><path class="cls-1" d="M166.77,298.2A16.68,16.68,0,0,1,170,312.9c-3.78,16-22.68,22.76-35.53,12.64a41.45,41.45,0,0,1-7-7.09c-10.28-13.15-7.14-27.6,7.59-35.59,7.65-4.15,13.93-3.33,20.69,2.82-3,3.58-5.41,6.34-11.36,4.36-7.24-2.41-15.36,7.21-13.13,15a22.7,22.7,0,0,0,13.42,15.24c7.66,3.2,17.77-3.46,16.22-11.2C159.65,302.93,162.7,300.82,166.77,298.2Z"/><path class="cls-1" d="M373.12,139.65l-7.93,6.85c-6.73-8.43-11.55-2.9-17.1,1.72-4.14,3.43-5.81,6.19-3,11.47,3,5.64-3.58,6-5.92,9.89-6.15-15.66-12-30.27-17.51-45-.45-1.2.82-3.73,2.05-4.71,2.08-1.65,5.64-4.25,7.05-3.52C344.9,123.67,358.7,131.6,373.12,139.65Zm-33.79,6.11,10.35-9-17.4-10.29-.8.76C334,133.08,336.46,139,339.33,145.76Z"/><path class="cls-1" d="M233.16,261.28c-6-15.33-11.76-29.84-17.27-44.45a5,5,0,0,1,1.37-4.43c2.26-1.8,6-4.8,7.46-4.05,14.15,7.28,28,15.24,41.92,23-5.77,7.25-5.7,7.1-12.93,3.49-1.42-.71-3.9-.26-5.49.5-1.88.9-3.2,2.89-5,4.11-4.81,3.32-8,6.86-3.7,12.91.57.8-.46,3.23-1.37,4.45C237,258.39,235.26,259.48,233.16,261.28Zm10.64-32.51-17.38-10.29-.84.63c2.52,6,5,12,7.9,18.68Z"/><path class="cls-1" d="M208.44,230.6,198,240l25.54,29.53-7.1,6.22-25.77-29.48c-3.68,3.14-7.05,6-10.73,9.15l-5.3-6.16,28.44-24.74Z"/><path class="cls-1" d="M356,102.56l-10.75,9.11-5.3-6.09,28.44-24.74L373.7,87l-10.43,9.26,25.67,29.65-7.17,6.2Z"/><path class="cls-1" d="M176.71,297.91l7-6.09,6.27,6.89L182.9,305Z"/><path class="cls-1" d="M139.47,342.63l-7.07,6.24-6.07-7,6.93-6.25Z"/><path class="cls-2" d="M289.49,350.88c4.68.27,9-1.63,12.39,3.3,2.07,3,7.91,1.44,9.72-2.16,1.15-2.29,1.62-4.94,2.5-7.78-3.6.72-6.56,1.73-9.56,1.83-9.07.3-15.61-5.34-16.59-13.88-1.14-10,4.2-18.25,13.07-20.16,11-2.37,19.59,2.75,22.47,13.67a42.29,42.29,0,0,1-1.12,26c-3.81,10.2-14.24,14.93-24.43,11.1C292.88,360.93,289.78,357.31,289.49,350.88Zm9-22.53c-.34,5.27,2.33,8.88,6.87,9.29,4.72.43,8-2.73,8.28-7.88.25-5.35-2.73-9.32-7.25-9.66S298.88,322.85,298.52,328.35Z"/><path class="cls-2" d="M391.07,313.24V342.7l5.53.84V351l-5.3.94c-.16,3.36-.31,6.6-.48,10.14h-9.69v-10.4H360.3c-1.13-4.9-1.27-8.88,1.43-12.85A213.63,213.63,0,0,0,374.24,319c2.69-5.1,6.23-6.81,11.57-6C387.27,313.19,388.76,313.13,391.07,313.24Zm-10.26,11.19-.89-.2-11.66,18.68h12.55Z"/><path class="cls-2" d="M350.84,362.08H341v-34H329.8c-2-6.74-1.75-6.78,4.41-8.13,2.53-.56,6.07-2,6.85-4,2.08-5.25,5.51-4.62,9.78-3.81Z"/><path class="cls-2" d="M279.17,362.1h-10V328.25l-12-.52v-7c2.06-.28,4.18-.16,5.91-.91,2.33-1,5.63-2.25,6.29-4.17,1.88-5.4,5.46-4.13,9.37-3.68a15.38,15.38,0,0,1,.44,2.52C279.18,330.15,279.17,345.79,279.17,362.1Z"/><path class="cls-2" d="M130.35,83.77c.46,3.11,1.37,5.55-3.21,6.73-20.31,5.25-29.1,22-22.43,41.92,9,27,37.77,38,62.77,24a43.63,43.63,0,0,1,8.58-3.92c3.64-1.09,7.05-.07,9.11,3.37s1.16,6.74-1.24,9.69a10.54,10.54,0,0,1-2.6,2.3c-31.17,18.84-73.56,12.41-89.19-25.93-11.3-27.7,6.28-55.77,36.07-58.41A13.32,13.32,0,0,1,130.35,83.77Z"/><path class="cls-2" d="M132.16,80.33c-7.34.44-13.79,1.13-20.24,1.12A77.54,77.54,0,0,1,95.16,80c-5.7-1.27-7.85-5.45-6.38-9.94s5.78-7.2,10.85-5c14.79,6.58,30.22,5.1,45.68,5a270.37,270.37,0,0,1,34.25,2c4.68.58,9.26,3.48,13.44,6,2.9,1.78,4.62,5.12,2.84,8.7s-5.34,4.57-9,3.51c-6.7-1.94-13.21-4.61-20-6.38s-13.79-2.85-21.56-4.4c0,10.35.07,19.28,0,28.21,0,2.21-.33,6.15-1.1,6.3a36.18,36.18,0,0,1-10.8.11c-.57-.06-1.17-2.82-1.18-4.33C132.11,100.31,132.16,90.69,132.16,80.33Z"/><path class="cls-2" d="M109.83,138.9l4.17-1c2.21-17.72.89-31.54-4.29-35.69,2.16-.82,3.76-1.83,5.42-2,3.64-.27,7.33-.12,11-.06,2.06,0,4.43-.61,4.66,2.87s-1.9,3.7-4.39,3.79c-.29,0-.58.27-1.11.53v8.55h21.88c8.72,0,10.07,1.58,9.21,10.84-.33,0-.8.21-1,.06-9-8.37-19.83-3-30.34-4.73,0,8.28-.08,15.74.1,23.19a4.18,4.18,0,0,0,2,3.08c4.15,2,4,5.21,3,9.63C121,154.3,114.55,148.19,109.83,138.9Z"/><path class="cls-2" d="M147.81,83.53c12.77,2.14,25.08,4.71,35.66,12.33a16.58,16.58,0,0,1,4.53,5.21c2,3.5,1.19,6.84-1.93,9.35s-6.2,2.11-9.09-.39c-4.14-3.6-8-7.62-12.41-10.8a45.61,45.61,0,0,0-12.32-6.45C147.55,91.26,146.23,88.86,147.81,83.53Z"/><path class="cls-2" d="M145,160.68a19.83,19.83,0,0,1-2.52.16c-10.26-.73-10.29-.75-10.31-11,0-8.43,0-16.86,0-25.73H145Z"/><path class="cls-2" d="M117.31,193.81c3.8-3.6,7.6-7.19,11.38-10.81,1.5-1.44,2.92-4.13,4.44-4.17,4.59-.12,10.15-.65,13.59,1.63,5.15,3.41,8.82,9.07,13.7,14.4H118Z"/><path class="cls-2" d="M172.89,140.77c2.59,10.8-10.47,20-25.58,19.45V153.7C157.23,153.1,165.42,148.07,172.89,140.77Z"/><path class="cls-2" d="M167.52,111.26c-1.12-.24-2.2-.13-2.62-.6-3.8-4.26-8.81-4.11-13.83-4-2.14.06-3.9,0-4-3s1.46-3.62,4-3.52c3,.11,6-.07,9,0C166.2,100.44,168.48,103.67,167.52,111.26Z"/><path class="cls-2" d="M307.39,185.85c-2.91-3.37-5.48-6.34-8.4-9.7,3.79-3.23,7.2-6.38,10.87-9.17,3-2.24,5.91-1.75,8.37,1.16s2.27,5.56-.22,8C314.72,179.4,311.2,182.4,307.39,185.85Z"/><path class="cls-2" d="M293.87,170.22l-7-7.95c3.78-3.15,7.17-6.48,11.1-9,1.35-.85,5-.33,5.86.85,1.09,1.47,1.33,5,.28,6.33C301.29,164,297.57,166.81,293.87,170.22Z"/><path class="cls-2" d="M339.33,145.76c-2.87-6.8-5.36-12.68-7.85-18.57l.8-.76,17.4,10.29Z"/><path class="cls-2" d="M243.8,228.77l-10.32,9c-2.85-6.72-5.38-12.7-7.9-18.68l.84-.63Z"/><path class="cls-1" d="M298.52,328.35c.36-5.5,3.32-8.59,7.9-8.25s7.5,4.31,7.25,9.66c-.24,5.15-3.56,8.31-8.28,7.88C300.85,337.23,298.18,333.62,298.52,328.35Z"/><path class="cls-1" d="M380.81,324.43v18.48H368.26l11.66-18.68Z"/></svg>