<svg xmlns="http://www.w3.org/2000/svg" xmlns:xlink="http://www.w3.org/1999/xlink" viewBox="0 0 900 600.45"><defs><style>.cls-1{fill:none;}.cls-2{clip-path:url(#clip-path);}.cls-3{fill:#d7141a;}.cls-4{fill:#fff;}.cls-5{fill:#11457e;}.cls-6{fill:#939598;}</style><clipPath id="clip-path" transform="translate(4.05 0.45)"><path class="cls-1" d="M861.05,6.05A25,25,0,0,1,886,31v538.1a24.9,24.9,0,0,1-24.9,24.9H30.85A24.82,24.82,0,0,1,6,569.15V31a25,25,0,0,1,24.9-24.9h830.2"/></clipPath></defs><g id="Layer_2" data-name="Layer 2"><g id="Layer_1-2" data-name="Layer 1"><g class="cls-2"><rect class="cls-3" width="900" height="600"/><rect class="cls-4" width="900" height="300"/><path class="cls-5" d="M446,299.55-4-.45v600Z" transform="translate(4.05 0.45)"/></g><path class="cls-6" d="M861.1,6A25,25,0,0,1,886,30.9V569a24.9,24.9,0,0,1-24.9,24.9H30.9A24.82,24.82,0,0,1,6,569.1V30.9A25,25,0,0,1,30.9,6H861.1m0-6H30.9A30.86,30.86,0,0,0,0,30.9H0V569a30.88,30.88,0,0,0,30.9,31H861a30.86,30.86,0,0,0,30.9-30.9V30.9A30.71,30.71,0,0,0,861.1,0Z" transform="translate(4.05 0.45)"/></g></g></svg>