<?xml version="1.0" encoding="UTF-8"?>
<!DOCTYPE svg PUBLIC "-//W3C//DTD SVG 1.1//EN" "http://www.w3.org/Graphics/SVG/1.1/DTD/svg11.dtd">
<svg xmlns="http://www.w3.org/2000/svg" version="1.1" width="271px" height="300px" style="shape-rendering:geometricPrecision; text-rendering:geometricPrecision; image-rendering:optimizeQuality; fill-rule:evenodd; clip-rule:evenodd" xmlns:xlink="http://www.w3.org/1999/xlink">
<g><path style="opacity:0.949" fill="#352b00" d="M -0.5,-0.5 C 89.8333,-0.5 180.167,-0.5 270.5,-0.5C 270.5,0.166667 270.5,0.833333 270.5,1.5C 269.833,1.5 269.167,1.5 268.5,1.5C 268.167,1.5 267.833,1.5 267.5,1.5C 179.167,0.166667 90.8333,0.166667 2.5,1.5C 2.16667,1.5 1.83333,1.5 1.5,1.5C 0.833333,1.5 0.166667,1.5 -0.5,1.5C -0.5,0.833333 -0.5,0.166667 -0.5,-0.5 Z"/></g>
<g><path style="opacity:0.999" fill="#f9c900" d="M 2.5,1.5 C 90.8333,0.166667 179.167,0.166667 267.5,1.5C 261.762,4.94596 257.929,9.94596 256,16.5C 255.833,34.1761 255.333,51.8428 254.5,69.5C 250.182,73.3179 246.015,77.3179 242,81.5C 241.833,144.001 241.333,206.335 240.5,268.5C 206.6,277.721 172.933,287.388 139.5,297.5C 136.927,298.555 134.261,298.722 131.5,298C 118.622,294.03 105.622,290.53 92.5,287.5C 83.5442,283.924 74.2109,281.257 64.5,279.5C 52.7199,275.465 40.7199,271.798 28.5,268.5C 28.6667,206.499 28.5,144.499 28,82.5C 23.6667,78.1667 19.3333,73.8333 15,69.5C 14.6667,51.8333 14.3333,34.1667 14,16.5C 11.8006,10.1477 7.96727,5.14769 2.5,1.5 Z"/></g>
<g><path style="opacity:0.941" fill="#3c2f00" d="M 19.5,9.5 C 96.3344,8.1681 173.334,8.1681 250.5,9.5C 250.376,10.1067 250.043,10.44 249.5,10.5C 173.002,9.50073 96.3351,9.1674 19.5,9.5 Z"/></g>
<g><path style="opacity:1" fill="#050300" d="M 19.5,9.5 C 96.3351,9.1674 173.002,9.50073 249.5,10.5C 248.91,11.766 248.41,13.0993 248,14.5C 247.833,31.5098 247.333,48.5098 246.5,65.5C 241.812,69.521 237.479,73.8544 233.5,78.5C 232.83,139.736 232.163,201.069 231.5,262.5C 199.028,271.431 166.528,280.431 134,289.5C 101.474,280.731 69.1408,271.398 37,261.5C 36.6667,200.5 36.3333,139.5 36,78.5C 31.6667,74.1667 27.3333,69.8333 23,65.5C 22.6667,48.8333 22.3333,32.1667 22,15.5C 21.4275,13.3594 20.5942,11.3594 19.5,9.5 Z"/></g>
<g><path style="opacity:1" fill="#544300" d="M 24.5,12.5 C 97.9981,11.5008 171.665,11.1674 245.5,11.5C 245.737,12.791 245.404,13.791 244.5,14.5C 171.508,12.5031 98.1743,11.8364 24.5,12.5 Z"/></g>
<g><path style="opacity:1" fill="#fed800" d="M 24.5,12.5 C 98.1743,11.8364 171.508,12.5031 244.5,14.5C 243.699,16.0418 243.366,17.7085 243.5,19.5C 242.193,17.7768 242.193,15.9435 243.5,14C 170.763,13.1702 98.0965,13.3369 25.5,14.5C 25.1667,13.8333 24.8333,13.1667 24.5,12.5 Z"/></g>
<g><path style="opacity:1" fill="#f5c700" d="M 243.5,19.5 C 243.5,20.5 243.5,21.5 243.5,22.5C 242.508,30.3159 242.174,38.3159 242.5,46.5C 170.5,46.5 98.5,46.5 26.5,46.5C 26.8271,36.6522 26.4938,26.9856 25.5,17.5C 25.5,16.5 25.5,15.5 25.5,14.5C 98.0965,13.3369 170.763,13.1702 243.5,14C 242.193,15.9435 242.193,17.7768 243.5,19.5 Z"/></g>
<g><path style="opacity:1" fill="#120e01" d="M 89.5,17.5 C 95.6858,16.042 99.0191,18.3753 99.5,24.5C 97.0088,24.1605 94.8421,23.1605 93,21.5C 89.1784,21.9695 88.6784,23.4695 91.5,26C 100.577,27.9822 102.577,32.8155 97.5,40.5C 90.5341,43.1951 86.5341,40.8618 85.5,33.5C 88.5214,33.9031 91.0214,35.2365 93,37.5C 96.3447,37.1408 97.178,35.4742 95.5,32.5C 86.4114,30.0202 84.4114,25.0202 89.5,17.5 Z"/></g>
<g><path style="opacity:1" fill="#120d01" d="M 140.5,17.5 C 145.742,16.2706 149.575,17.9372 152,22.5C 152.839,27.9212 152.506,33.2545 151,38.5C 145.471,43.0438 140.804,42.3771 137,36.5C 134.024,29.2467 135.191,22.9134 140.5,17.5 Z"/></g>
<g><path style="opacity:1" fill="#161102" d="M 178.5,17.5 C 185.011,15.7215 188.678,18.0549 189.5,24.5C 186.685,24.1081 184.185,23.1081 182,21.5C 180.289,21.4393 178.956,22.1059 178,23.5C 177.133,27.9558 177.466,32.2891 179,36.5C 183.478,38.5915 185.978,37.2582 186.5,32.5C 185.167,32.5 183.833,32.5 182.5,32.5C 182.5,31.1667 182.5,29.8333 182.5,28.5C 185.167,28.5 187.833,28.5 190.5,28.5C 192.679,38.5797 188.679,42.7464 178.5,41C 174.511,38.1871 172.844,34.3538 173.5,29.5C 173.023,24.4708 174.689,20.4708 178.5,17.5 Z"/></g>
<g><path style="opacity:1" fill="#140f01" d="M 212.5,17.5 C 215.187,17.3359 217.854,17.5026 220.5,18C 222.229,19.7889 222.896,21.9556 222.5,24.5C 220.641,24.5391 219.308,23.7058 218.5,22C 216.866,21.5065 215.199,21.3398 213.5,21.5C 213.238,22.9778 213.571,24.3112 214.5,25.5C 223.949,27.8709 225.949,33.0376 220.5,41C 213.38,43.3653 209.714,40.8653 209.5,33.5C 211.82,34.7242 214.153,36.0575 216.5,37.5C 219.517,36.6198 220.184,34.7864 218.5,32C 209.345,29.8773 207.345,25.044 212.5,17.5 Z"/></g>
<g><path style="opacity:1" fill="#130e01" d="M 28.5,17.5 C 33.1667,17.5 37.8333,17.5 42.5,17.5C 42.5,18.8333 42.5,20.1667 42.5,21.5C 40.8333,21.5 39.1667,21.5 37.5,21.5C 37.5,28.1667 37.5,34.8333 37.5,41.5C 36.1667,41.5 34.8333,41.5 33.5,41.5C 33.5,34.8333 33.5,28.1667 33.5,21.5C 31.8333,21.5 30.1667,21.5 28.5,21.5C 28.5,20.1667 28.5,18.8333 28.5,17.5 Z"/></g>
<g><path style="opacity:1" fill="#130e00" d="M 48.5,17.5 C 48.5,20.8333 48.5,24.1667 48.5,27.5C 51.0593,27.8016 53.3926,27.4682 55.5,26.5C 55.5,23.5 55.5,20.5 55.5,17.5C 56.8333,17.5 58.1667,17.5 59.5,17.5C 59.5,25.5 59.5,33.5 59.5,41.5C 58.1667,41.5 56.8333,41.5 55.5,41.5C 55.5,38.1667 55.5,34.8333 55.5,31.5C 53.3926,30.5318 51.0593,30.1984 48.5,30.5C 48.5,34.1667 48.5,37.8333 48.5,41.5C 47.5,41.5 46.5,41.5 45.5,41.5C 45.5,33.5 45.5,25.5 45.5,17.5C 46.5,17.5 47.5,17.5 48.5,17.5 Z"/></g>
<g><path style="opacity:1" fill="#a68500" d="M 48.5,17.5 C 49.4767,20.2869 49.81,23.2869 49.5,26.5C 51.5,26.5 53.5,26.5 55.5,26.5C 53.3926,27.4682 51.0593,27.8016 48.5,27.5C 48.5,24.1667 48.5,20.8333 48.5,17.5 Z"/></g>
<g><path style="opacity:1" fill="#181203" d="M 62.5,17.5 C 67.1667,17.5 71.8333,17.5 76.5,17.5C 76.5,18.8333 76.5,20.1667 76.5,21.5C 73.1667,21.5 69.8333,21.5 66.5,21.5C 66.5,23.1667 66.5,24.8333 66.5,26.5C 69.5,26.5 72.5,26.5 75.5,26.5C 75.5,27.8333 75.5,29.1667 75.5,30.5C 72.5,30.5 69.5,30.5 66.5,30.5C 66.5,32.8333 66.5,35.1667 66.5,37.5C 69.8333,37.5 73.1667,37.5 76.5,37.5C 76.5,38.8333 76.5,40.1667 76.5,41.5C 71.8333,41.5 67.1667,41.5 62.5,41.5C 62.5,33.5 62.5,25.5 62.5,17.5 Z"/></g>
<g><path style="opacity:1" fill="#040300" d="M 102.5,17.5 C 107.167,17.5 111.833,17.5 116.5,17.5C 116.5,18.8333 116.5,20.1667 116.5,21.5C 114.5,21.5 112.5,21.5 110.5,21.5C 110.5,28.1667 110.5,34.8333 110.5,41.5C 109.5,41.5 108.5,41.5 107.5,41.5C 107.5,34.8333 107.5,28.1667 107.5,21.5C 105.833,21.5 104.167,21.5 102.5,21.5C 102.5,20.1667 102.5,18.8333 102.5,17.5 Z"/></g>
<g><path style="opacity:1" fill="#130e01" d="M 118.5,17.5 C 122.182,17.3347 125.848,17.5014 129.5,18C 130.416,18.3742 131.25,18.8742 132,19.5C 133.227,24.03 132.394,28.03 129.5,31.5C 131.42,34.3388 133.087,37.3388 134.5,40.5C 132.955,41.4519 131.288,41.7852 129.5,41.5C 129.088,36.6319 126.755,33.2986 122.5,31.5C 122.5,34.8333 122.5,38.1667 122.5,41.5C 121.167,41.5 119.833,41.5 118.5,41.5C 118.5,33.5 118.5,25.5 118.5,17.5 Z"/></g>
<g><path style="opacity:1" fill="#161101" d="M 165.5,31.5 C 165.56,32.0431 165.893,32.3764 166.5,32.5C 167.494,27.544 167.827,22.544 167.5,17.5C 168.5,17.5 169.5,17.5 170.5,17.5C 170.5,25.5 170.5,33.5 170.5,41.5C 168.856,41.7135 167.356,41.3802 166,40.5C 164.274,36.0469 162.274,31.7136 160,27.5C 159.501,32.1548 159.334,36.8215 159.5,41.5C 158.5,41.5 157.5,41.5 156.5,41.5C 156.5,33.5 156.5,25.5 156.5,17.5C 157.822,17.33 158.989,17.6634 160,18.5C 162.327,22.6535 164.16,26.9868 165.5,31.5 Z"/></g>
<g><path style="opacity:1" fill="#040300" d="M 197.5,26.5 C 199.948,27.4731 202.615,27.8064 205.5,27.5C 205.5,28.5 205.5,29.5 205.5,30.5C 202.5,30.5 199.5,30.5 196.5,30.5C 196.198,33.0593 196.532,35.3926 197.5,37.5C 200.5,37.5 203.5,37.5 206.5,37.5C 206.5,38.8333 206.5,40.1667 206.5,41.5C 202.167,41.5 197.833,41.5 193.5,41.5C 193.5,33.5 193.5,25.5 193.5,17.5C 197.833,17.5 202.167,17.5 206.5,17.5C 206.5,18.8333 206.5,20.1667 206.5,21.5C 203.167,21.5 199.833,21.5 196.5,21.5C 196.216,23.4147 196.549,25.0813 197.5,26.5 Z"/></g>
<g><path style="opacity:1" fill="#010100" d="M 234.5,21.5 C 233.833,27.6792 233.167,34.0125 232.5,40.5C 231.833,34.0125 231.167,27.6792 230.5,21.5C 228.833,21.5 227.167,21.5 225.5,21.5C 225.5,20.1667 225.5,18.8333 225.5,17.5C 230.167,17.5 234.833,17.5 239.5,17.5C 239.5,18.8333 239.5,20.1667 239.5,21.5C 237.833,21.5 236.167,21.5 234.5,21.5 Z"/></g>
<g><path style="opacity:1" fill="#4a3b00" d="M 167.5,17.5 C 167.827,22.544 167.494,27.544 166.5,32.5C 165.893,32.3764 165.56,32.0431 165.5,31.5C 166.167,26.8333 166.833,22.1667 167.5,17.5 Z"/></g>
<g><path style="opacity:1" fill="#2a2200" d="M 230.5,21.5 C 231.167,27.6792 231.833,34.0125 232.5,40.5C 233.167,34.0125 233.833,27.6792 234.5,21.5C 234.5,28.1667 234.5,34.8333 234.5,41.5C 233.167,41.5 231.833,41.5 230.5,41.5C 230.5,34.8333 230.5,28.1667 230.5,21.5 Z"/></g>
<g><path style="opacity:1" fill="#aa8800" d="M 102.5,17.5 C 102.5,18.8333 102.5,20.1667 102.5,21.5C 104.167,21.5 105.833,21.5 107.5,21.5C 107.5,28.1667 107.5,34.8333 107.5,41.5C 106.51,35.3554 106.177,29.0221 106.5,22.5C 104.833,22.5 103.167,22.5 101.5,22.5C 101.216,20.5853 101.549,18.9187 102.5,17.5 Z"/></g>
<g><path style="opacity:1" fill="#f3c500" d="M 141.5,21.5 C 145.182,20.7253 147.682,22.0586 149,25.5C 150.151,29.8288 149.318,33.6621 146.5,37C 143.196,38.0419 141.029,36.8753 140,33.5C 139.083,29.2381 139.583,25.2381 141.5,21.5 Z"/></g>
<g><path style="opacity:1" fill="#edc300" d="M 122.5,21.5 C 124.527,21.3379 126.527,21.5045 128.5,22C 129.833,23.6667 129.833,25.3333 128.5,27C 126.527,27.4955 124.527,27.6621 122.5,27.5C 122.5,25.5 122.5,23.5 122.5,21.5 Z"/></g>
<g><path style="opacity:0.941" fill="#dcb000" d="M 25.5,17.5 C 26.4938,26.9856 26.8271,36.6522 26.5,46.5C 98.5,46.5 170.5,46.5 242.5,46.5C 242.174,38.3159 242.508,30.3159 243.5,22.5C 243.5,30.8333 243.5,39.1667 243.5,47.5C 170.833,47.5 98.1667,47.5 25.5,47.5C 25.5,37.5 25.5,27.5 25.5,17.5 Z"/></g>
<g><path style="opacity:1" fill="#af8c00" d="M 55.5,31.5 C 53.5,31.5 51.5,31.5 49.5,31.5C 49.8128,35.0419 49.4794,38.3752 48.5,41.5C 48.5,37.8333 48.5,34.1667 48.5,30.5C 51.0593,30.1984 53.3926,30.5318 55.5,31.5 Z"/></g>
<g><path style="opacity:1" fill="#7a6200" d="M 197.5,26.5 C 200.5,26.5 203.5,26.5 206.5,26.5C 206.5,28.1667 206.5,29.8333 206.5,31.5C 203.5,31.5 200.5,31.5 197.5,31.5C 197.5,33.5 197.5,35.5 197.5,37.5C 196.532,35.3926 196.198,33.0593 196.5,30.5C 199.5,30.5 202.5,30.5 205.5,30.5C 205.5,29.5 205.5,28.5 205.5,27.5C 202.615,27.8064 199.948,27.4731 197.5,26.5 Z"/></g>
<g><path style="opacity:1" fill="#9a7e0c" d="M 92.5,91.5 C 92.5,78.1667 92.5,64.8333 92.5,51.5C 83.5,51.5 74.5,51.5 65.5,51.5C 65.5,69.8333 65.5,88.1667 65.5,106.5C 64.5009,88.5767 64.1675,69.9101 64.5,50.5C 74.1667,50.5 83.8333,50.5 93.5,50.5C 93.829,64.3435 93.4957,78.0102 92.5,91.5 Z"/></g>
<g><path style="opacity:1" fill="#fed015" d="M 92.5,91.5 C 84.2773,97.7808 75.2773,102.781 65.5,106.5C 65.5,88.1667 65.5,69.8333 65.5,51.5C 74.5,51.5 83.5,51.5 92.5,51.5C 92.5,64.8333 92.5,78.1667 92.5,91.5 Z"/></g>
<g><path style="opacity:1" fill="#b3930e" d="M 148.5,50.5 C 148.5,50.8333 148.5,51.1667 148.5,51.5C 139.5,51.5 130.5,51.5 121.5,51.5C 121.173,61.015 121.506,70.3483 122.5,79.5C 122.44,80.0431 122.107,80.3764 121.5,80.5C 120.501,70.5222 120.168,60.5222 120.5,50.5C 129.833,50.5 139.167,50.5 148.5,50.5 Z"/></g>
<g><path style="opacity:1" fill="#fed115" d="M 148.5,51.5 C 148.5,60.8333 148.5,70.1667 148.5,79.5C 147.5,79.5 146.5,79.5 145.5,79.5C 137.833,78.1667 130.167,78.1667 122.5,79.5C 121.506,70.3483 121.173,61.015 121.5,51.5C 130.5,51.5 139.5,51.5 148.5,51.5 Z"/></g>
<g><path style="opacity:1" fill="#5a4907" d="M 148.5,50.5 C 149.494,60.3194 149.827,70.3194 149.5,80.5C 147.901,80.7678 146.568,80.4345 145.5,79.5C 146.5,79.5 147.5,79.5 148.5,79.5C 148.5,70.1667 148.5,60.8333 148.5,51.5C 148.5,51.1667 148.5,50.8333 148.5,50.5 Z"/></g>
<g><path style="opacity:0.937" fill="#b6950e" d="M 204.5,50.5 C 204.5,50.8333 204.5,51.1667 204.5,51.5C 195.5,51.5 186.5,51.5 177.5,51.5C 177.5,65.1667 177.5,78.8333 177.5,92.5C 176.504,78.6766 176.171,64.6766 176.5,50.5C 185.833,50.5 195.167,50.5 204.5,50.5 Z"/></g>
<g><path style="opacity:0.999" fill="#fdd015" d="M 204.5,51.5 C 204.83,70.0076 204.497,88.3409 203.5,106.5C 194.228,102.865 185.561,98.1986 177.5,92.5C 177.5,78.8333 177.5,65.1667 177.5,51.5C 186.5,51.5 195.5,51.5 204.5,51.5 Z"/></g>
<g><path style="opacity:0.937" fill="#876d09" d="M 204.5,50.5 C 205.828,69.3375 205.828,88.3375 204.5,107.5C 203.893,107.376 203.56,107.043 203.5,106.5C 204.497,88.3409 204.83,70.0076 204.5,51.5C 204.5,51.1667 204.5,50.8333 204.5,50.5 Z"/></g>
<g><path style="opacity:0.937" fill="#856a00" d="M 233.5,78.5 C 234.163,140.176 233.496,201.509 231.5,262.5C 232.163,201.069 232.83,139.736 233.5,78.5 Z"/></g>
<g><path style="opacity:0.107" fill="#181200" d="M 1.5,1.5 C 1.83333,1.5 2.16667,1.5 2.5,1.5C 7.96727,5.14769 11.8006,10.1477 14,16.5C 14.3333,34.1667 14.6667,51.8333 15,69.5C 19.3333,73.8333 23.6667,78.1667 28,82.5C 28.5,144.499 28.6667,206.499 28.5,268.5C 40.7199,271.798 52.7199,275.465 64.5,279.5C 51.7831,276.372 39.1164,273.039 26.5,269.5C 26.6667,207.166 26.5,144.832 26,82.5C 21.6667,78.1667 17.3333,73.8333 13,69.5C 12.6667,52.1667 12.3333,34.8333 12,17.5C 11.5621,14.624 10.5621,11.9573 9,9.5C 6.56414,6.71514 4.06414,4.04847 1.5,1.5 Z"/></g>
<g><path style="opacity:0.614" fill="#060400" d="M 267.5,1.5 C 267.833,1.5 268.167,1.5 268.5,1.5C 263.328,4.84802 259.828,9.51469 258,15.5C 256.915,33.8055 256.082,52.1389 255.5,70.5C 251.182,74.3179 247.015,78.3179 243,82.5C 243.164,145.175 242.331,207.508 240.5,269.5C 240.5,269.167 240.5,268.833 240.5,268.5C 241.333,206.335 241.833,144.001 242,81.5C 246.015,77.3179 250.182,73.3179 254.5,69.5C 255.333,51.8428 255.833,34.1761 256,16.5C 257.929,9.94596 261.762,4.94596 267.5,1.5 Z"/></g>
<g><path style="opacity:1" fill="#f1c400" d="M 178.5,98.5 C 179.167,100.167 179.833,101.833 180.5,103.5C 176.4,99.2792 171.733,95.7792 166.5,93C 164.553,92.0087 162.553,91.6753 160.5,92C 168.981,98.9796 177.314,106.146 185.5,113.5C 186.254,116.777 186.754,120.11 187,123.5C 190.278,127.721 192.778,132.388 194.5,137.5C 197.85,139.494 199.35,142.494 199,146.5C 200.685,148.017 202.185,149.684 203.5,151.5C 202.143,153.186 200.81,154.852 199.5,156.5C 196.806,158.527 194.473,160.861 192.5,163.5C 193.726,157.545 194.226,151.545 194,145.5C 192.61,136.718 188.61,129.385 182,123.5C 183.024,129.586 184.69,135.586 187,141.5C 187.968,151.942 187.468,162.275 185.5,172.5C 183.579,173.363 181.579,174.029 179.5,174.5C 180.094,166.667 181.427,159 183.5,151.5C 182.31,145.443 180.81,139.443 179,133.5C 176.827,136.346 175.327,139.512 174.5,143C 175.968,146.773 177.301,150.607 178.5,154.5C 176.213,159.572 175.046,164.905 175,170.5C 173.476,172.898 171.976,175.231 170.5,177.5C 170.167,177.5 169.833,177.5 169.5,177.5C 169.5,177.167 169.5,176.833 169.5,176.5C 169.249,174.83 168.582,173.33 167.5,172C 162.425,169.064 157.425,169.064 152.5,172C 150.393,173.264 149.393,175.097 149.5,177.5C 149.167,178.833 148.833,180.167 148.5,181.5C 148.5,184.167 148.5,186.833 148.5,189.5C 142.289,190.888 135.955,191.555 129.5,191.5C 127.22,189.777 124.553,189.111 121.5,189.5C 121.5,186.5 121.5,183.5 121.5,180.5C 121.167,179.833 120.833,179.167 120.5,178.5C 120.528,176.418 119.861,174.584 118.5,173C 113.331,169.031 107.997,168.698 102.5,172C 101.242,173.741 100.242,175.574 99.5,177.5C 97.4424,175.073 95.6091,172.407 94,169.5C 93.7895,164.222 92.9562,159.055 91.5,154C 92.2688,150.129 93.6021,146.462 95.5,143C 93.803,139.106 91.9697,135.273 90,131.5C 89.1307,138.231 87.964,144.898 86.5,151.5C 88.43,159.035 89.43,166.701 89.5,174.5C 87.2163,174.025 85.2163,173.025 83.5,171.5C 81.6051,162.271 81.1051,152.938 82,143.5C 84.6356,136.603 86.6356,129.603 88,122.5C 77.4049,133.796 73.5715,147.129 76.5,162.5C 74.3946,159.973 72.0613,157.64 69.5,155.5C 68.5244,154.185 67.5244,152.852 66.5,151.5C 67.4803,150.019 68.647,148.685 70,147.5C 69.6145,143.124 71.2812,139.791 75,137.5C 76.6413,132.214 79.308,127.547 83,123.5C 83.4978,121.473 83.3311,119.473 82.5,117.5C 82.7189,116.062 83.2189,114.729 84,113.5C 92.0729,106.216 100.24,99.0489 108.5,92C 100.658,93.6932 94.1582,97.8599 89,104.5C 88.6924,103.692 88.1924,103.025 87.5,102.5C 82.8784,105.095 78.2117,107.595 73.5,110C 75.7543,111.256 78.0877,112.423 80.5,113.5C 81.8333,114.167 81.8333,114.833 80.5,115.5C 76.8333,113.667 73.1667,111.833 69.5,110C 83.8465,101.492 98.5132,93.4919 113.5,86C 118.431,84.5128 123.431,83.8461 128.5,84C 131.035,84.9282 132.035,86.7615 131.5,89.5C 124.671,91.9101 117.671,93.7434 110.5,95C 108.372,98.1301 105.872,100.963 103,103.5C 102.661,106.036 102.161,108.536 101.5,111C 101.548,112.033 101.881,112.366 102.5,112C 105.416,107.08 109.082,102.747 113.5,99C 118.922,97.7877 124.255,96.2877 129.5,94.5C 132.138,95.6956 132.971,97.6956 132,100.5C 126.667,105.082 120.5,107.915 113.5,109C 110.625,113.917 107.625,118.751 104.5,123.5C 104.667,123.833 104.833,124.167 105,124.5C 109.532,119.633 114.366,115.133 119.5,111C 123.821,110.501 128.154,110.334 132.5,110.5C 132.5,113.5 132.5,116.5 132.5,119.5C 128.191,120.313 123.857,121.147 119.5,122C 114.976,125.271 112.143,129.438 111,134.5C 113.869,131.296 117.035,128.463 120.5,126C 123.688,125.245 126.855,124.411 130,123.5C 132.946,124.786 134.112,127.119 133.5,130.5C 127.277,130.346 122.277,132.679 118.5,137.5C 118.667,137.833 118.833,138.167 119,138.5C 123.472,135.944 128.305,134.944 133.5,135.5C 133.5,138.833 133.5,142.167 133.5,145.5C 130.537,144.235 127.537,142.902 124.5,141.5C 123.833,141.833 123.167,142.167 122.5,142.5C 126.789,149.107 132.789,151.274 140.5,149C 143.24,146.651 145.24,144.317 146.5,142C 143.404,141.073 141.07,142.073 139.5,145C 138.207,145.49 136.873,145.657 135.5,145.5C 135.833,142.167 136.167,138.833 136.5,135.5C 141.737,135.568 146.737,136.401 151.5,138C 147.776,133.136 142.776,130.636 136.5,130.5C 136.338,128.473 136.505,126.473 137,124.5C 145.939,123.938 153.272,127.272 159,134.5C 159.167,134.167 159.333,133.833 159.5,133.5C 156.691,129.523 153.691,125.69 150.5,122C 145.809,121.228 141.142,120.395 136.5,119.5C 136.274,116.751 136.607,114.084 137.5,111.5C 141.459,110.34 145.459,110.173 149.5,111C 154.8,114.575 159.633,118.742 164,123.5C 162.294,118.57 159.794,113.903 156.5,109.5C 149.43,107.715 142.93,104.715 137,100.5C 136.023,97.741 136.856,95.741 139.5,94.5C 145.123,96.1557 150.789,97.6557 156.5,99C 160.742,103.568 164.575,108.401 168,113.5C 168.185,105.705 165.018,99.5383 158.5,95C 151.963,94.1157 145.63,92.4491 139.5,90C 138.065,87.7328 138.398,85.7328 140.5,84C 155.004,84.088 167.671,88.9213 178.5,98.5 Z"/></g>
<g><path style="opacity:1" fill="#bf9e00" d="M 178.5,98.5 C 185.478,102.323 192.478,106.156 199.5,110C 196.081,112.359 192.414,113.692 188.5,114C 190.926,112.855 193.259,111.522 195.5,110C 191.199,107.514 186.865,105.014 182.5,102.5C 181.808,103.025 181.308,103.692 181,104.5C 180.601,104.272 180.435,103.938 180.5,103.5C 179.833,101.833 179.167,100.167 178.5,98.5 Z"/></g>
<g><path style="opacity:1" fill="#151002" d="M 171.5,111.5 C 174.327,115.146 176.661,119.146 178.5,123.5C 178.752,129.258 176.752,133.925 172.5,137.5C 171.353,135.235 171.186,132.902 172,130.5C 173.112,128.61 173.946,126.61 174.5,124.5C 173.624,120.118 172.624,115.785 171.5,111.5 Z"/></g>
<g><path style="opacity:0.938" fill="#836809" d="M 203.5,112.5 C 203.56,111.957 203.893,111.624 204.5,111.5C 205.833,120.167 205.833,128.833 204.5,137.5C 203.893,137.376 203.56,137.043 203.5,136.5C 204.833,128.5 204.833,120.5 203.5,112.5 Z"/></g>
<g><path style="opacity:1" fill="#b48e0e" d="M 66.5,113.5 C 65.508,120.982 65.1746,128.648 65.5,136.5C 64.3479,128.915 64.1813,120.581 65,111.5C 65.7172,112.044 66.2172,112.711 66.5,113.5 Z"/></g>
<g><path style="opacity:1" fill="#f6c614" d="M 66.5,113.5 C 69.9692,116.072 73.6358,118.406 77.5,120.5C 75.303,127.341 71.303,132.674 65.5,136.5C 65.1746,128.648 65.508,120.982 66.5,113.5 Z"/></g>
<g><path style="opacity:1" fill="#0c0800" d="M 96.5,112.5 C 97.0967,112.735 97.4301,113.235 97.5,114C 94.5854,121.059 94.9187,127.892 98.5,134.5C 98.1667,135.5 97.8333,136.5 97.5,137.5C 93.2661,134.285 91.2661,129.952 91.5,124.5C 92.6043,120.288 94.2709,116.288 96.5,112.5 Z"/></g>
<g><path style="opacity:0.995" fill="#f8c814" d="M 203.5,112.5 C 204.833,120.5 204.833,128.5 203.5,136.5C 198.499,132.35 194.832,127.184 192.5,121C 196.14,118.174 199.807,115.341 203.5,112.5 Z"/></g>
<g><path style="opacity:1" fill="#0e0b06" d="M 83.5,171.5 C 83.9926,173.806 84.3259,176.139 84.5,178.5C 81.7892,178.815 79.4559,178.148 77.5,176.5C 76.559,171.93 76.2256,167.263 76.5,162.5C 73.5715,147.129 77.4049,133.796 88,122.5C 86.6356,129.603 84.6356,136.603 82,143.5C 81.1051,152.938 81.6051,162.271 83.5,171.5 Z"/></g>
<g><path style="opacity:1" fill="#110e06" d="M 192.5,163.5 C 192.774,168.263 192.441,172.93 191.5,177.5C 189.621,178.341 187.621,178.675 185.5,178.5C 185.5,176.5 185.5,174.5 185.5,172.5C 187.468,162.275 187.968,151.942 187,141.5C 184.69,135.586 183.024,129.586 182,123.5C 188.61,129.385 192.61,136.718 194,145.5C 194.226,151.545 193.726,157.545 192.5,163.5 Z"/></g>
<g><path style="opacity:1" fill="#1a1507" d="M 157.5,158.5 C 161.423,156.317 162.923,152.983 162,148.5C 160.129,147.332 158.629,147.832 157.5,150C 158.833,151.333 158.833,152.667 157.5,154C 155.567,154.251 153.734,154.751 152,155.5C 151.53,156.577 151.697,157.577 152.5,158.5C 150.915,159.474 149.915,160.974 149.5,163C 145.061,163.13 142.228,165.296 141,169.5C 140.202,167.741 140.369,166.074 141.5,164.5C 143.5,163.5 145.5,162.5 147.5,161.5C 148.583,160.635 148.749,159.635 148,158.5C 143.683,159.51 139.349,160.51 135,161.5C 131.934,159.746 128.767,159.412 125.5,160.5C 123.945,160.278 122.611,159.611 121.5,158.5C 120.614,159.325 120.281,160.325 120.5,161.5C 123.005,161.98 125.338,162.98 127.5,164.5C 129.256,166.191 129.756,168.191 129,170.5C 127.335,165.569 123.835,162.902 118.5,162.5C 120.147,160.512 119.814,159.179 117.5,158.5C 118.684,157.312 118.684,156.145 117.5,155C 115.527,154.505 113.527,154.338 111.5,154.5C 111.662,152.473 111.495,150.473 111,148.5C 109.12,147.07 107.62,147.404 106.5,149.5C 107.404,152.979 109.071,155.979 111.5,158.5C 109.61,158.703 108.11,158.037 107,156.5C 106.206,152.245 104.373,148.579 101.5,145.5C 103.161,146.343 105.161,146.343 107.5,145.5C 106.423,143.088 105.256,140.754 104,138.5C 103.182,135.773 103.348,133.106 104.5,130.5C 108.384,141.437 115.051,150.27 124.5,157C 125.635,157.749 126.635,157.583 127.5,156.5C 126.087,153.339 124.42,150.339 122.5,147.5C 122.833,147.167 123.167,146.833 123.5,146.5C 126.313,149.446 128.646,152.779 130.5,156.5C 133.106,157.652 135.773,157.818 138.5,157C 140.458,154.252 142.291,151.418 144,148.5C 144.837,146.993 146.004,146.493 147.5,147C 144.885,150.062 143.219,153.562 142.5,157.5C 147.918,155.606 152.418,152.272 156,147.5C 159.527,141.779 162.527,135.779 165,129.5C 165.667,132.5 165.667,135.5 165,138.5C 163.864,141.096 163.031,143.763 162.5,146.5C 164.446,146.193 166.113,146.193 167.5,146.5C 164.941,148.952 163.441,151.952 163,155.5C 161.736,157.607 159.903,158.607 157.5,158.5 Z"/></g>
<g><path style="opacity:1" fill="#110d03" d="M 179.5,174.5 C 177.351,178.348 174.351,179.348 170.5,177.5C 171.976,175.231 173.476,172.898 175,170.5C 175.046,164.905 176.213,159.572 178.5,154.5C 177.301,150.607 175.968,146.773 174.5,143C 175.327,139.512 176.827,136.346 179,133.5C 180.81,139.443 182.31,145.443 183.5,151.5C 181.427,159 180.094,166.667 179.5,174.5 Z"/></g>
<g><path style="opacity:1" fill="#0e0a02" d="M 99.5,177.5 C 95.4362,179.259 92.1029,178.259 89.5,174.5C 89.43,166.701 88.43,159.035 86.5,151.5C 87.964,144.898 89.1307,138.231 90,131.5C 91.9697,135.273 93.803,139.106 95.5,143C 93.6021,146.462 92.2688,150.129 91.5,154C 92.9562,159.055 93.7895,164.222 94,169.5C 95.6091,172.407 97.4424,175.073 99.5,177.5 Z"/></g>
<g><path style="opacity:1" fill="#634f04" d="M 154.5,145.5 C 154.5,144.167 154.5,142.833 154.5,141.5C 154.52,139.449 155.187,138.782 156.5,139.5C 155.95,141.657 155.283,143.657 154.5,145.5 Z"/></g>
<g><path style="opacity:1" fill="#bf930f" d="M 64.5,138.5 C 66.0265,139.492 66.6932,140.992 66.5,143C 66.5463,144.728 66.0463,146.228 65,147.5C 64.502,144.518 64.3354,141.518 64.5,138.5 Z"/></g>
<g><path style="opacity:0.937" fill="#a5800d" d="M 203.5,138.5 C 204.765,139.514 205.431,141.014 205.5,143C 205.167,144.5 204.833,146 204.5,147.5C 203.516,144.572 203.183,141.572 203.5,138.5 Z"/></g>
<g><path style="opacity:1" fill="#181201" d="M 154.5,141.5 C 154.5,142.833 154.5,144.167 154.5,145.5C 152.645,147.033 150.812,148.7 149,150.5C 148.833,150.167 148.667,149.833 148.5,149.5C 150.969,147.052 152.969,144.385 154.5,141.5 Z"/></g>
<g><path style="opacity:1" fill="#372c07" d="M 113.5,138.5 C 116.085,141.705 118.585,145.038 121,148.5C 121.667,149.5 121.667,150.5 121,151.5C 119.237,149.281 117.237,147.281 115,145.5C 114.338,143.187 113.838,140.854 113.5,138.5 Z"/></g>
<g><path style="opacity:1" fill="#130f01" d="M 98.5,146.5 C 99.1667,148.833 99.8333,151.167 100.5,153.5C 101.95,156.785 104.283,159.285 107.5,161C 103.93,161.804 100.763,160.97 98,158.5C 97.3064,154.446 97.4731,150.446 98.5,146.5 Z"/></g>
<g><path style="opacity:1" fill="#755d00" d="M 98.5,146.5 C 98.56,145.957 98.8933,145.624 99.5,145.5C 100.48,148.086 100.813,150.753 100.5,153.5C 99.8333,151.167 99.1667,148.833 98.5,146.5 Z"/></g>
<g><path style="opacity:1" fill="#dfdfe1" d="M 117.5,158.5 C 115.5,158.5 113.5,158.5 111.5,158.5C 109.071,155.979 107.404,152.979 106.5,149.5C 107.62,147.404 109.12,147.07 111,148.5C 111.495,150.473 111.662,152.473 111.5,154.5C 113.527,154.338 115.527,154.505 117.5,155C 118.684,156.145 118.684,157.312 117.5,158.5 Z"/></g>
<g><path style="opacity:1" fill="#e6e7e8" d="M 157.5,158.5 C 155.833,158.5 154.167,158.5 152.5,158.5C 151.697,157.577 151.53,156.577 152,155.5C 153.734,154.751 155.567,154.251 157.5,154C 158.833,152.667 158.833,151.333 157.5,150C 158.629,147.832 160.129,147.332 162,148.5C 162.923,152.983 161.423,156.317 157.5,158.5 Z"/></g>
<g><path style="opacity:1" fill="#4c3d00" d="M 171.5,147.5 C 170.833,149.167 170.167,150.833 169.5,152.5C 169.337,150.143 169.503,147.81 170,145.5C 170.717,146.044 171.217,146.711 171.5,147.5 Z"/></g>
<g><path style="opacity:1" fill="#151000" d="M 171.5,147.5 C 174.798,156.621 171.798,161.121 162.5,161C 166.119,159.215 168.452,156.382 169.5,152.5C 170.167,150.833 170.833,149.167 171.5,147.5 Z"/></g>
<g><path style="opacity:1" fill="#f8f7f6" d="M 69.5,155.5 C 72.0613,157.64 74.3946,159.973 76.5,162.5C 76.2256,167.263 76.559,171.93 77.5,176.5C 75.7971,178.141 73.6305,179.141 71,179.5C 70.5357,178.906 70.369,178.239 70.5,177.5C 70.4944,174.15 69.4944,171.15 67.5,168.5C 66.914,168.709 66.414,169.043 66,169.5C 65.8333,168.333 65.6667,167.167 65.5,166C 65.7706,162.011 67.104,158.511 69.5,155.5 Z"/></g>
<g><path style="opacity:1" fill="#f2f2f0" d="M 199.5,156.5 C 203.643,159.932 204.977,164.265 203.5,169.5C 202.575,168.359 201.741,168.359 201,169.5C 199.801,172.726 199.301,176.059 199.5,179.5C 196.627,179.198 193.961,178.531 191.5,177.5C 192.441,172.93 192.774,168.263 192.5,163.5C 194.473,160.861 196.806,158.527 199.5,156.5 Z"/></g>
<g><path style="opacity:1" fill="#231b04" d="M 111.5,165.5 C 116.447,164.628 120.613,165.961 124,169.5C 124.982,170.759 125.315,172.092 125,173.5C 121.351,168.144 116.184,165.977 109.5,167C 110.416,166.722 111.082,166.222 111.5,165.5 Z"/></g>
<g><path style="opacity:1" fill="#221a04" d="M 150.5,165.5 C 153.649,165.211 156.649,165.711 159.5,167C 152.022,165.819 146.856,168.652 144,175.5C 143.675,173.447 144.009,171.447 145,169.5C 147.015,168.303 148.849,166.97 150.5,165.5 Z"/></g>
<g><path style="opacity:1" fill="#1f1b14" d="M 169.5,176.5 C 162.498,169.698 155.831,170.032 149.5,177.5C 149.393,175.097 150.393,173.264 152.5,172C 157.425,169.064 162.425,169.064 167.5,172C 168.582,173.33 169.249,174.83 169.5,176.5 Z"/></g>
<g><path style="opacity:1" fill="#efefee" d="M 120.5,178.5 C 120.833,179.167 121.167,179.833 121.5,180.5C 120.778,180.918 120.278,181.584 120,182.5C 119.333,185.5 119.333,188.5 120,191.5C 123.695,194.077 127.028,197.077 130,200.5C 130.49,201.793 130.657,203.127 130.5,204.5C 123.038,205.378 120.038,209.712 121.5,217.5C 121.44,218.043 121.107,218.376 120.5,218.5C 119.828,217.051 119.161,215.718 118.5,214.5C 118.037,211.518 117.704,208.518 117.5,205.5C 118.239,205.631 118.906,205.464 119.5,205C 115.673,203.254 112.007,201.254 108.5,199C 104.833,198.333 101.167,198.333 97.5,199C 96.6919,199.308 96.0253,199.808 95.5,200.5C 97.5,201.167 99.5,201.833 101.5,202.5C 100.5,203.333 99.5,204.167 98.5,205C 102.222,205.238 105.889,205.738 109.5,206.5C 110.583,207.365 110.749,208.365 110,209.5C 107.815,210.67 105.649,211.836 103.5,213C 105.993,215.08 108.659,216.914 111.5,218.5C 113.422,216.997 114.588,214.997 115,212.5C 115.452,215.149 116.286,217.649 117.5,220C 122.818,219.083 128.318,218.583 134,218.5C 139.122,218.365 144.122,219.032 149,220.5C 150.711,220.561 152.044,219.894 153,218.5C 153.202,216.744 153.702,215.078 154.5,213.5C 155.219,215.517 156.386,217.183 158,218.5C 161.072,217.047 163.905,215.213 166.5,213C 164.099,212.205 161.932,211.038 160,209.5C 159.333,208.5 159.333,207.5 160,206.5C 163.745,205.703 167.579,205.203 171.5,205C 170.5,204.167 169.5,203.333 168.5,202.5C 170.631,201.831 172.631,201.165 174.5,200.5C 177.157,200.935 179.491,201.935 181.5,203.5C 179.855,204.479 178.521,205.812 177.5,207.5C 176.667,206.5 175.833,205.5 175,204.5C 171.152,207.522 169.319,211.522 169.5,216.5C 166.341,216.481 163.674,217.648 161.5,220C 155.887,218.438 152.887,220.605 152.5,226.5C 148.726,226.612 145.393,227.779 142.5,230C 137.5,230.667 132.5,230.667 127.5,230C 124.79,228.253 121.79,227.253 118.5,227C 117.308,225.088 116.308,223.088 115.5,221C 113.757,219.365 111.923,219.198 110,220.5C 107.098,218.404 103.931,217.071 100.5,216.5C 100.199,211.567 98.1992,207.567 94.5,204.5C 93.8333,205.5 93.1667,206.5 92.5,207.5C 90.5,205.833 88.5,204.167 86.5,202.5C 85.0815,203.005 84.4148,204.005 84.5,205.5C 83.609,204.89 82.609,204.557 81.5,204.5C 82.7653,203.521 84.0986,202.521 85.5,201.5C 86.4519,199.955 86.7852,198.288 86.5,196.5C 84.0876,196.244 82.4209,197.244 81.5,199.5C 80.3345,197.261 79.0012,197.261 77.5,199.5C 76.6618,199.158 76.3284,198.492 76.5,197.5C 78.8444,197.494 80.1777,196.327 80.5,194C 80.0459,190.26 78.7126,189.76 76.5,192.5C 75.1716,191.09 75.5049,189.924 77.5,189C 80.2605,188.278 82.9272,188.445 85.5,189.5C 86.1667,190.833 86.8333,192.167 87.5,193.5C 89.6502,194.67 91.9836,195.67 94.5,196.5C 94.402,195.384 94.902,194.384 96,193.5C 96.9021,193.743 97.7354,194.077 98.5,194.5C 100.124,197.428 102.457,198.095 105.5,196.5C 104.807,195.482 104.141,194.482 103.5,193.5C 107.226,193.823 110.893,193.489 114.5,192.5C 107.14,191.236 99.8071,191.236 92.5,192.5C 91.5,191.167 90.5,189.833 89.5,188.5C 88.5,187.833 87.5,187.167 86.5,186.5C 87.1667,186.5 87.8333,186.5 88.5,186.5C 92.0991,185.656 95.7657,185.323 99.5,185.5C 101.203,186.66 101.869,185.993 101.5,183.5C 101.369,182.761 101.536,182.094 102,181.5C 105.792,182.56 109.626,183.56 113.5,184.5C 114.308,184.192 114.975,183.692 115.5,183C 111.403,181.266 107.069,180.266 102.5,180C 101.244,179.583 100.577,178.75 100.5,177.5C 101.801,173.44 104.634,171.44 109,171.5C 114.337,171.739 118.17,174.072 120.5,178.5 Z"/></g>
<g><path style="opacity:1" fill="#26211b" d="M 120.5,178.5 C 118.17,174.072 114.337,171.739 109,171.5C 104.634,171.44 101.801,173.44 100.5,177.5C 100.167,177.5 99.8333,177.5 99.5,177.5C 100.242,175.574 101.242,173.741 102.5,172C 107.997,168.698 113.331,169.031 118.5,173C 119.861,174.584 120.528,176.418 120.5,178.5 Z"/></g>
<g><path style="opacity:1" fill="#f8f7f7" d="M 169.5,176.5 C 169.5,176.833 169.5,177.167 169.5,177.5C 169.209,178.649 168.376,179.316 167,179.5C 162.451,180.31 157.951,181.31 153.5,182.5C 158.222,183.495 162.888,183.161 167.5,181.5C 168.298,181.957 168.631,182.624 168.5,183.5C 168.5,183.833 168.5,184.167 168.5,184.5C 164.765,186.006 160.765,187.006 156.5,187.5C 162.654,188.621 168.821,188.621 175,187.5C 176.986,187.569 178.486,188.235 179.5,189.5C 178.833,190.5 178.167,191.5 177.5,192.5C 170.105,191.335 162.439,191.335 154.5,192.5C 158.313,193.167 161.979,193.834 165.5,194.5C 164.833,195.5 164.167,196.5 163.5,197.5C 161.144,196.425 158.811,196.425 156.5,197.5C 157.949,198.172 159.282,198.839 160.5,199.5C 156.891,201.304 153.224,203.138 149.5,205C 150.094,205.464 150.761,205.631 151.5,205.5C 151.448,209.198 151.114,212.865 150.5,216.5C 149.732,217.263 149.232,218.263 149,219.5C 148.601,219.272 148.435,218.938 148.5,218.5C 148.67,214.356 148.003,210.356 146.5,206.5C 144.157,205.725 141.823,205.058 139.5,204.5C 139.343,203.127 139.51,201.793 140,200.5C 141.385,199.449 142.385,198.116 143,196.5C 150.65,193.562 152.483,188.562 148.5,181.5C 148.833,180.167 149.167,178.833 149.5,177.5C 155.831,170.032 162.498,169.698 169.5,176.5 Z"/></g>
<g><path style="opacity:1" fill="#89620e" d="M 66.5,179.5 C 66.1583,180.338 65.4916,180.672 64.5,180.5C 64.2011,178.396 64.5344,176.396 65.5,174.5C 66.4519,176.045 66.7852,177.712 66.5,179.5 Z"/></g>
<g><path style="opacity:0.937" fill="#a0730c" d="M 205.5,180.5 C 204.833,180.5 204.167,180.5 203.5,180.5C 204.167,172.5 204.833,172.5 205.5,180.5 Z"/></g>
<g><path style="opacity:1" fill="#f8f8f7" d="M 81.5,180.5 C 82.9418,181.82 83.6085,183.486 83.5,185.5C 81.4403,187.154 78.9403,188.154 76,188.5C 75.8142,186.1 75.3142,183.766 74.5,181.5C 73.8933,181.624 73.56,181.957 73.5,182.5C 73.0269,183.906 72.0269,184.573 70.5,184.5C 69.596,183.791 69.2627,182.791 69.5,181.5C 73.4149,179.622 77.4149,179.289 81.5,180.5 Z"/></g>
<g><path style="opacity:1" fill="#222120" d="M 86.5,181.5 C 87.1667,183.167 87.8333,184.833 88.5,186.5C 87.8333,186.5 87.1667,186.5 86.5,186.5C 85.391,186.443 84.391,186.11 83.5,185.5C 83.6085,183.486 82.9418,181.82 81.5,180.5C 83.3569,179.235 85.0236,179.568 86.5,181.5 Z"/></g>
<g><path style="opacity:1" fill="#f8f8f8" d="M 96.5,180.5 C 97.925,181.922 98.925,183.589 99.5,185.5C 95.7657,185.323 92.0991,185.656 88.5,186.5C 87.8333,184.833 87.1667,183.167 86.5,181.5C 89.6248,180.521 92.9581,180.187 96.5,180.5 Z"/></g>
<g><path style="opacity:1" fill="#d0d0d0" d="M 83.5,171.5 C 85.2163,173.025 87.2163,174.025 89.5,174.5C 92.1029,178.259 95.4362,179.259 99.5,177.5C 99.8333,177.5 100.167,177.5 100.5,177.5C 100.577,178.75 101.244,179.583 102.5,180C 107.069,180.266 111.403,181.266 115.5,183C 114.975,183.692 114.308,184.192 113.5,184.5C 109.626,183.56 105.792,182.56 102,181.5C 101.536,182.094 101.369,182.761 101.5,183.5C 100.341,181.75 98.674,180.75 96.5,180.5C 92.9581,180.187 89.6248,180.521 86.5,181.5C 85.0236,179.568 83.3569,179.235 81.5,180.5C 77.4149,179.289 73.4149,179.622 69.5,181.5C 69.5,180.833 69.5,180.167 69.5,179.5C 69.3284,178.508 69.6618,177.842 70.5,177.5C 70.369,178.239 70.5357,178.906 71,179.5C 73.6305,179.141 75.7971,178.141 77.5,176.5C 79.4559,178.148 81.7892,178.815 84.5,178.5C 84.3259,176.139 83.9926,173.806 83.5,171.5 Z"/></g>
<g><path style="opacity:1" fill="#d1d0ce" d="M 185.5,172.5 C 185.5,174.5 185.5,176.5 185.5,178.5C 187.621,178.675 189.621,178.341 191.5,177.5C 193.961,178.531 196.627,179.198 199.5,179.5C 200.708,180.234 202.041,180.567 203.5,180.5C 204.167,180.5 204.833,180.5 205.5,180.5C 206.209,181.404 207.209,181.737 208.5,181.5C 208.158,182.338 207.492,182.672 206.5,182.5C 204.5,182.167 202.5,181.833 200.5,181.5C 200.5,182.5 200.5,183.5 200.5,184.5C 199.209,184.737 198.209,184.404 197.5,183.5C 198.376,183.631 199.043,183.298 199.5,182.5C 195.82,179.664 191.82,178.998 187.5,180.5C 186.5,180.5 185.5,180.5 184.5,180.5C 182.866,179.839 181.033,179.506 179,179.5C 176.551,179.658 174.384,180.325 172.5,181.5C 171.791,180.596 170.791,180.263 169.5,180.5C 169.737,181.791 169.404,182.791 168.5,183.5C 168.631,182.624 168.298,181.957 167.5,181.5C 162.888,183.161 158.222,183.495 153.5,182.5C 157.951,181.31 162.451,180.31 167,179.5C 168.376,179.316 169.209,178.649 169.5,177.5C 169.833,177.5 170.167,177.5 170.5,177.5C 174.351,179.348 177.351,178.348 179.5,174.5C 181.579,174.029 183.579,173.363 185.5,172.5 Z"/></g>
<g><path style="opacity:1" fill="#f7f7f7" d="M 184.5,180.5 C 183.752,182.332 182.752,183.999 181.5,185.5C 180.883,185.611 180.383,185.944 180,186.5C 176.73,185.868 173.563,185.201 170.5,184.5C 171.167,183.5 171.833,182.5 172.5,181.5C 174.384,180.325 176.551,179.658 179,179.5C 181.033,179.506 182.866,179.839 184.5,180.5 Z"/></g>
<g><path style="opacity:1" fill="#161514" d="M 184.5,180.5 C 185.5,180.5 186.5,180.5 187.5,180.5C 186.27,182.297 185.604,184.297 185.5,186.5C 183.901,186.768 182.568,186.434 181.5,185.5C 182.752,183.999 183.752,182.332 184.5,180.5 Z"/></g>
<g><path style="opacity:1" fill="#f8f8f7" d="M 197.5,183.5 C 197.167,183.5 196.833,183.5 196.5,183.5C 196.44,182.957 196.107,182.624 195.5,182.5C 194.534,184.396 194.201,186.396 194.5,188.5C 191.345,188.01 188.345,187.344 185.5,186.5C 185.604,184.297 186.27,182.297 187.5,180.5C 191.82,178.998 195.82,179.664 199.5,182.5C 199.043,183.298 198.376,183.631 197.5,183.5 Z"/></g>
<g><path style="opacity:1" fill="#272727" d="M 96.5,180.5 C 98.674,180.75 100.341,181.75 101.5,183.5C 101.869,185.993 101.203,186.66 99.5,185.5C 98.925,183.589 97.925,181.922 96.5,180.5 Z"/></g>
<g><path style="opacity:1" fill="#2f2f2f" d="M 172.5,181.5 C 171.833,182.5 171.167,183.5 170.5,184.5C 169.604,185.506 168.938,185.506 168.5,184.5C 168.5,184.167 168.5,183.833 168.5,183.5C 169.404,182.791 169.737,181.791 169.5,180.5C 170.791,180.263 171.791,180.596 172.5,181.5 Z"/></g>
<g><path style="opacity:1" fill="#6b6a69" d="M 66.5,179.5 C 67.5,179.5 68.5,179.5 69.5,179.5C 69.5,180.167 69.5,180.833 69.5,181.5C 69.2627,182.791 69.596,183.791 70.5,184.5C 70.44,185.043 70.1067,185.376 69.5,185.5C 68.5713,184.311 68.238,182.978 68.5,181.5C 61.9218,183.383 55.2551,184.55 48.5,185C 53.8064,183.398 59.1398,181.898 64.5,180.5C 65.4916,180.672 66.1583,180.338 66.5,179.5 Z"/></g>
<g><path style="opacity:1" fill="#5a5a5a" d="M 208.5,181.5 C 212.465,182.659 216.465,183.826 220.5,185C 215.586,185.1 210.92,184.266 206.5,182.5C 207.492,182.672 208.158,182.338 208.5,181.5 Z"/></g>
<g><path style="opacity:1" fill="#6b675f" d="M 196.5,183.5 C 195.539,185.265 195.205,187.265 195.5,189.5C 194.833,189.5 194.5,189.167 194.5,188.5C 194.201,186.396 194.534,184.396 195.5,182.5C 196.107,182.624 196.44,182.957 196.5,183.5 Z"/></g>
<g><path style="opacity:1" fill="#1a140d" d="M 121.5,180.5 C 121.5,183.5 121.5,186.5 121.5,189.5C 124.553,189.111 127.22,189.777 129.5,191.5C 135.955,191.555 142.289,190.888 148.5,189.5C 148.5,186.833 148.5,184.167 148.5,181.5C 152.483,188.562 150.65,193.562 143,196.5C 142.385,198.116 141.385,199.449 140,200.5C 139.51,201.793 139.343,203.127 139.5,204.5C 136.5,201.833 133.5,201.833 130.5,204.5C 130.657,203.127 130.49,201.793 130,200.5C 127.028,197.077 123.695,194.077 120,191.5C 119.333,188.5 119.333,185.5 120,182.5C 120.278,181.584 120.778,180.918 121.5,180.5 Z"/></g>
<g><path style="opacity:1" fill="#b5aea4" d="M 73.5,182.5 C 73.56,181.957 73.8933,181.624 74.5,181.5C 75.3142,183.766 75.8142,186.1 76,188.5C 78.9403,188.154 81.4403,187.154 83.5,185.5C 84.391,186.11 85.391,186.443 86.5,186.5C 87.5,187.167 88.5,187.833 89.5,188.5C 87.901,188.232 86.5676,188.566 85.5,189.5C 82.9272,188.445 80.2605,188.278 77.5,189C 75.5049,189.924 75.1716,191.09 76.5,192.5C 76.2172,193.289 75.7172,193.956 75,194.5C 74.7811,193.062 74.2811,191.729 73.5,190.5C 72.8165,190.863 72.1499,191.196 71.5,191.5C 69.5,192.167 67.5,192.833 65.5,193.5C 65.1667,193.5 64.8333,193.5 64.5,193.5C 64.5,193.167 64.5,192.833 64.5,192.5C 66.7567,192.038 68.7567,191.038 70.5,189.5C 70.0431,188.702 69.3764,188.369 68.5,188.5C 70.3212,188.262 72.1545,188.262 74,188.5C 74.7891,186.288 74.6225,184.288 73.5,182.5 Z"/></g>
<g><path style="opacity:1" fill="#141313" d="M 89.5,188.5 C 90.5,189.833 91.5,191.167 92.5,192.5C 90.8828,193.038 89.2161,193.371 87.5,193.5C 86.8333,192.167 86.1667,190.833 85.5,189.5C 86.5676,188.566 87.901,188.232 89.5,188.5 Z"/></g>
<g><path style="opacity:1" fill="#171716" d="M 177.5,192.5 C 178.167,191.5 178.833,190.5 179.5,189.5C 180.708,188.766 182.041,188.433 183.5,188.5C 183.285,192.835 181.285,194.168 177.5,192.5 Z"/></g>
<g><path style="opacity:1" fill="#eaa918" d="M 68.5,188.5 C 69.3764,188.369 70.0431,188.702 70.5,189.5C 68.7567,191.038 66.7567,192.038 64.5,192.5C 64.1667,189.5 65.5,188.167 68.5,188.5 Z"/></g>
<g><path style="opacity:1" fill="#1b1814" d="M 76.5,192.5 C 78.7126,189.76 80.0459,190.26 80.5,194C 80.1777,196.327 78.8444,197.494 76.5,197.5C 74.8546,198.479 73.5213,199.812 72.5,201.5C 71.513,198.232 71.1796,194.898 71.5,191.5C 72.1499,191.196 72.8165,190.863 73.5,190.5C 74.2811,191.729 74.7811,193.062 75,194.5C 75.7172,193.956 76.2172,193.289 76.5,192.5 Z"/></g>
<g><path style="opacity:1" fill="#f0af1d" d="M 204.5,189.5 C 204.719,190.675 204.386,191.675 203.5,192.5C 202.264,191.754 200.93,191.421 199.5,191.5C 199.5,190.833 199.167,190.5 198.5,190.5C 198.5,189.5 198.5,188.5 198.5,187.5C 200.685,187.704 202.685,188.37 204.5,189.5 Z"/></g>
<g><path style="opacity:1" fill="#c3c3c3" d="M 103.5,193.5 C 101.585,193.216 99.9187,193.549 98.5,194.5C 97.7354,194.077 96.9021,193.743 96,193.5C 94.902,194.384 94.402,195.384 94.5,196.5C 91.9836,195.67 89.6502,194.67 87.5,193.5C 89.2161,193.371 90.8828,193.038 92.5,192.5C 99.8071,191.236 107.14,191.236 114.5,192.5C 110.893,193.489 107.226,193.823 103.5,193.5 Z"/></g>
<g><path style="opacity:1" fill="#161513" d="M 198.5,191.5 C 198.5,191.833 198.5,192.167 198.5,192.5C 198.5,192.833 198.5,193.167 198.5,193.5C 197.833,195.833 197.167,198.167 196.5,200.5C 195.738,198.738 194.404,197.738 192.5,197.5C 191.504,197.586 190.671,197.252 190,196.5C 188.858,190.596 190.192,189.596 194,193.5C 194.249,192.376 194.749,191.376 195.5,190.5C 196.417,191.127 197.417,191.461 198.5,191.5 Z"/></g>
<g><path style="opacity:1" fill="#242424" d="M 103.5,193.5 C 104.141,194.482 104.807,195.482 105.5,196.5C 102.457,198.095 100.124,197.428 98.5,194.5C 99.9187,193.549 101.585,193.216 103.5,193.5 Z"/></g>
<g><path style="opacity:1" fill="#191919" d="M 163.5,197.5 C 164.167,196.5 164.833,195.5 165.5,194.5C 167.402,193.489 169.402,193.322 171.5,194C 169.609,196.802 166.942,197.968 163.5,197.5 Z"/></g>
<g><path style="opacity:1" fill="#900200" d="M 129.5,191.5 C 130.624,192.809 132.124,193.475 134,193.5C 137.48,192.964 140.813,191.964 144,190.5C 144.5,190.833 145,191.167 145.5,191.5C 144.345,192.95 142.845,193.95 141,194.5C 139.506,199.216 136.339,200.716 131.5,199C 130.13,197.559 129.13,195.892 128.5,194C 127.207,193.51 125.873,193.343 124.5,193.5C 124.281,192.325 124.614,191.325 125.5,190.5C 126.736,191.246 128.07,191.579 129.5,191.5 Z"/></g>
<g><path style="opacity:1" fill="#d9d9d9" d="M 168.5,184.5 C 168.938,185.506 169.604,185.506 170.5,184.5C 173.563,185.201 176.73,185.868 180,186.5C 180.383,185.944 180.883,185.611 181.5,185.5C 182.568,186.434 183.901,186.768 185.5,186.5C 188.345,187.344 191.345,188.01 194.5,188.5C 194.5,189.167 194.833,189.5 195.5,189.5C 196.609,189.557 197.609,189.89 198.5,190.5C 199.167,190.5 199.5,190.833 199.5,191.5C 199.167,191.5 198.833,191.5 198.5,191.5C 197.417,191.461 196.417,191.127 195.5,190.5C 194.749,191.376 194.249,192.376 194,193.5C 190.192,189.596 188.858,190.596 190,196.5C 190.671,197.252 191.504,197.586 192.5,197.5C 192.768,199.099 192.434,200.432 191.5,201.5C 191.5,200.5 191.5,199.5 191.5,198.5C 190.178,198.33 189.011,198.663 188,199.5C 187.092,197.561 185.592,196.561 183.5,196.5C 182.774,200.307 184.107,202.974 187.5,204.5C 186.833,204.5 186.167,204.5 185.5,204.5C 184.292,203.766 182.959,203.433 181.5,203.5C 179.491,201.935 177.157,200.935 174.5,200.5C 169.922,198.51 165.255,198.176 160.5,199.5C 159.282,198.839 157.949,198.172 156.5,197.5C 158.811,196.425 161.144,196.425 163.5,197.5C 166.942,197.968 169.609,196.802 171.5,194C 169.402,193.322 167.402,193.489 165.5,194.5C 161.979,193.834 158.313,193.167 154.5,192.5C 162.439,191.335 170.105,191.335 177.5,192.5C 181.285,194.168 183.285,192.835 183.5,188.5C 182.041,188.433 180.708,188.766 179.5,189.5C 178.486,188.235 176.986,187.569 175,187.5C 168.821,188.621 162.654,188.621 156.5,187.5C 160.765,187.006 164.765,186.006 168.5,184.5 Z"/></g>
<g><path style="opacity:1" fill="#181715" d="M 81.5,204.5 C 81.4588,206.745 80.6255,207.412 79,206.5C 78.5604,204.134 78.0604,201.801 77.5,199.5C 79.0012,197.261 80.3345,197.261 81.5,199.5C 82.4209,197.244 84.0876,196.244 86.5,196.5C 86.7852,198.288 86.4519,199.955 85.5,201.5C 84.0986,202.521 82.7653,203.521 81.5,204.5 Z"/></g>
<g><path style="opacity:1" fill="#151413" d="M 191.5,201.5 C 191.005,203.482 190.505,205.482 190,207.5C 188.955,206.627 188.122,205.627 187.5,204.5C 184.107,202.974 182.774,200.307 183.5,196.5C 185.592,196.561 187.092,197.561 188,199.5C 189.011,198.663 190.178,198.33 191.5,198.5C 191.5,199.5 191.5,200.5 191.5,201.5 Z"/></g>
<g><path style="opacity:1" fill="#151312" d="M 117.5,205.5 C 116.761,205.369 116.094,205.536 115.5,206C 116.028,209.089 117.028,211.923 118.5,214.5C 119.161,215.718 119.828,217.051 120.5,218.5C 121.107,218.376 121.44,218.043 121.5,217.5C 122.167,217.5 122.833,217.5 123.5,217.5C 131.111,214.991 138.778,214.991 146.5,217.5C 147.167,217.833 147.833,218.167 148.5,218.5C 148.435,218.938 148.601,219.272 149,219.5C 149.232,218.263 149.732,217.263 150.5,216.5C 152.013,214.121 153.013,211.455 153.5,208.5C 153.36,206.97 152.693,205.97 151.5,205.5C 150.761,205.631 150.094,205.464 149.5,205C 153.224,203.138 156.891,201.304 160.5,199.5C 165.255,198.176 169.922,198.51 174.5,200.5C 172.631,201.165 170.631,201.831 168.5,202.5C 169.5,203.333 170.5,204.167 171.5,205C 167.579,205.203 163.745,205.703 160,206.5C 159.333,207.5 159.333,208.5 160,209.5C 161.932,211.038 164.099,212.205 166.5,213C 163.905,215.213 161.072,217.047 158,218.5C 156.386,217.183 155.219,215.517 154.5,213.5C 153.702,215.078 153.202,216.744 153,218.5C 152.044,219.894 150.711,220.561 149,220.5C 144.122,219.032 139.122,218.365 134,218.5C 128.318,218.583 122.818,219.083 117.5,220C 116.286,217.649 115.452,215.149 115,212.5C 114.588,214.997 113.422,216.997 111.5,218.5C 108.659,216.914 105.993,215.08 103.5,213C 105.649,211.836 107.815,210.67 110,209.5C 110.749,208.365 110.583,207.365 109.5,206.5C 105.889,205.738 102.222,205.238 98.5,205C 99.5,204.167 100.5,203.333 101.5,202.5C 99.5,201.833 97.5,201.167 95.5,200.5C 96.0253,199.808 96.6919,199.308 97.5,199C 101.167,198.333 104.833,198.333 108.5,199C 112.007,201.254 115.673,203.254 119.5,205C 118.906,205.464 118.239,205.631 117.5,205.5 Z"/></g>
<g><path style="opacity:1" fill="#84652f" d="M 198.5,193.5 C 198.813,196.247 198.48,198.914 197.5,201.5C 196.893,201.376 196.56,201.043 196.5,200.5C 197.167,198.167 197.833,195.833 198.5,193.5 Z"/></g>
<g><path style="opacity:0.985" fill="#fcac19" d="M 71.5,191.5 C 71.1796,194.898 71.513,198.232 72.5,201.5C 73.5213,199.812 74.8546,198.479 76.5,197.5C 76.3284,198.492 76.6618,199.158 77.5,199.5C 78.0604,201.801 78.5604,204.134 79,206.5C 80.6255,207.412 81.4588,206.745 81.5,204.5C 82.609,204.557 83.609,204.89 84.5,205.5C 87.1667,207.833 89.8333,210.167 92.5,212.5C 92.5,224.5 92.5,236.5 92.5,248.5C 91.5062,239.014 91.1729,229.348 91.5,219.5C 83.1667,219.5 74.8333,219.5 66.5,219.5C 66.6658,224.179 66.4992,228.845 66,233.5C 65.5001,220.171 65.3334,206.837 65.5,193.5C 67.5,192.833 69.5,192.167 71.5,191.5 Z"/></g>
<g><path style="opacity:0.993" fill="#fbac1b" d="M 198.5,192.5 C 200.5,192.833 202.5,193.167 204.5,193.5C 204.5,212.167 204.5,230.833 204.5,249.5C 203.506,240.014 203.173,230.348 203.5,220.5C 195.167,220.5 186.833,220.5 178.5,220.5C 178.825,228.352 178.492,236.018 177.5,243.5C 177.5,233.167 177.5,222.833 177.5,212.5C 180.473,210.194 183.14,207.527 185.5,204.5C 186.167,204.5 186.833,204.5 187.5,204.5C 188.122,205.627 188.955,206.627 190,207.5C 190.505,205.482 191.005,203.482 191.5,201.5C 192.434,200.432 192.768,199.099 192.5,197.5C 194.404,197.738 195.738,198.738 196.5,200.5C 196.56,201.043 196.893,201.376 197.5,201.5C 198.48,198.914 198.813,196.247 198.5,193.5C 198.5,193.167 198.5,192.833 198.5,192.5 Z"/></g>
<g><path style="opacity:1" fill="#990e08" d="M 139.5,204.5 C 141.823,205.058 144.157,205.725 146.5,206.5C 148.003,210.356 148.67,214.356 148.5,218.5C 147.833,218.167 147.167,217.833 146.5,217.5C 146.011,214.533 144.845,211.867 143,209.5C 142.781,210.938 142.281,212.271 141.5,213.5C 136.9,212.557 132.233,212.223 127.5,212.5C 127.741,209.001 126.908,208.668 125,211.5C 124.187,213.436 123.687,215.436 123.5,217.5C 122.833,217.5 122.167,217.5 121.5,217.5C 120.038,209.712 123.038,205.378 130.5,204.5C 133.5,201.833 136.5,201.833 139.5,204.5 Z"/></g>
<g><path style="opacity:1" fill="#8c0d0c" d="M 117.5,205.5 C 117.704,208.518 118.037,211.518 118.5,214.5C 117.028,211.923 116.028,209.089 115.5,206C 116.094,205.536 116.761,205.369 117.5,205.5 Z"/></g>
<g><path style="opacity:1" fill="#f1e3e1" d="M 146.5,217.5 C 138.778,214.991 131.111,214.991 123.5,217.5C 123.687,215.436 124.187,213.436 125,211.5C 126.908,208.668 127.741,209.001 127.5,212.5C 132.233,212.223 136.9,212.557 141.5,213.5C 142.281,212.271 142.781,210.938 143,209.5C 144.845,211.867 146.011,214.533 146.5,217.5 Z"/></g>
<g><path style="opacity:1" fill="#91201c" d="M 151.5,205.5 C 152.693,205.97 153.36,206.97 153.5,208.5C 153.013,211.455 152.013,214.121 150.5,216.5C 151.114,212.865 151.448,209.198 151.5,205.5 Z"/></g>
<g><path style="opacity:0.989" fill="#f99d17" d="M 64.5,193.5 C 64.8333,193.5 65.1667,193.5 65.5,193.5C 65.3334,206.837 65.5001,220.171 66,233.5C 66.4992,228.845 66.6658,224.179 66.5,219.5C 74.8333,219.5 83.1667,219.5 91.5,219.5C 91.1729,229.348 91.5062,239.014 92.5,248.5C 93.135,257.234 92.4684,265.567 90.5,273.5C 82.0469,271.636 73.7136,269.303 65.5,266.5C 64.5003,242.176 64.1669,217.842 64.5,193.5 Z"/></g>
<g><path style="opacity:0.937" fill="#895a13" d="M 204.5,189.5 C 205.833,215.167 205.833,240.833 204.5,266.5C 204.5,260.833 204.5,255.167 204.5,249.5C 204.5,230.833 204.5,212.167 204.5,193.5C 202.5,193.167 200.5,192.833 198.5,192.5C 198.5,192.167 198.5,191.833 198.5,191.5C 198.833,191.5 199.167,191.5 199.5,191.5C 200.93,191.421 202.264,191.754 203.5,192.5C 204.386,191.675 204.719,190.675 204.5,189.5 Z"/></g>
<g><path style="opacity:0.996" fill="#fda017" d="M 122.5,232.5 C 124.923,232.424 126.756,233.424 128,235.5C 132.513,234.195 137.013,234.195 141.5,235.5C 142.94,234.048 144.606,233.048 146.5,232.5C 148.472,241.44 149.139,250.773 148.5,260.5C 139.887,259.558 131.221,259.225 122.5,259.5C 122.81,262.713 122.477,265.713 121.5,268.5C 121.172,256.322 121.505,244.322 122.5,232.5 Z"/></g>
<g><path style="opacity:0.995" fill="#fda017" d="M 204.5,249.5 C 204.5,255.167 204.5,260.833 204.5,266.5C 195.804,268.855 187.137,271.189 178.5,273.5C 177.506,263.681 177.173,253.681 177.5,243.5C 178.492,236.018 178.825,228.352 178.5,220.5C 186.833,220.5 195.167,220.5 203.5,220.5C 203.173,230.348 203.506,240.014 204.5,249.5 Z"/></g>
<g><path style="opacity:0.998" fill="#593608" d="M 146.5,232.5 C 147.209,231.596 148.209,231.263 149.5,231.5C 149.83,248.675 149.497,265.675 148.5,282.5C 148.5,275.167 148.5,267.833 148.5,260.5C 149.139,250.773 148.472,241.44 146.5,232.5 Z"/></g>
<g><path style="opacity:1" fill="#533408" d="M 92.5,212.5 C 93.4972,232.993 93.8305,253.66 93.5,274.5C 92.209,274.737 91.209,274.404 90.5,273.5C 92.4684,265.567 93.135,257.234 92.5,248.5C 92.5,236.5 92.5,224.5 92.5,212.5 Z"/></g>
<g><path style="opacity:0.938" fill="#bb7511" d="M 177.5,212.5 C 177.5,222.833 177.5,233.167 177.5,243.5C 177.173,253.681 177.506,263.681 178.5,273.5C 178.44,274.043 178.107,274.376 177.5,274.5C 176.172,253.671 176.172,233.004 177.5,212.5 Z"/></g>
<g><path style="opacity:0.99" fill="#fc9818" d="M 148.5,260.5 C 148.5,267.833 148.5,275.167 148.5,282.5C 143.723,283.903 138.89,285.237 134,286.5C 129.775,285.238 125.608,283.904 121.5,282.5C 121.5,277.833 121.5,273.167 121.5,268.5C 122.477,265.713 122.81,262.713 122.5,259.5C 131.221,259.225 139.887,259.558 148.5,260.5 Z"/></g>
<g><path style="opacity:1" fill="#b77111" d="M 122.5,232.5 C 121.505,244.322 121.172,256.322 121.5,268.5C 121.5,273.167 121.5,277.833 121.5,282.5C 120.173,265.662 120.173,248.662 121.5,231.5C 122.107,231.624 122.44,231.957 122.5,232.5 Z"/></g>
<g><path style="opacity:0.305" fill="#0e0a00" d="M 64.5,279.5 C 74.2109,281.257 83.5442,283.924 92.5,287.5C 82.8054,285.746 73.472,283.08 64.5,279.5 Z"/></g>
<g><path style="opacity:0.348" fill="#231c06" d="M 240.5,268.5 C 240.5,268.833 240.5,269.167 240.5,269.5C 208.105,279.435 175.438,288.769 142.5,297.5C 141.5,297.5 140.5,297.5 139.5,297.5C 172.933,287.388 206.6,277.721 240.5,268.5 Z"/></g>
<g><path style="opacity:0.307" fill="#0a0700" d="M 92.5,287.5 C 105.622,290.53 118.622,294.03 131.5,298C 134.261,298.722 136.927,298.555 139.5,297.5C 140.5,297.5 141.5,297.5 142.5,297.5C 141.5,298.167 140.5,298.833 139.5,299.5C 136.5,299.5 133.5,299.5 130.5,299.5C 117.772,295.702 105.105,291.702 92.5,287.5 Z"/></g>
</svg>
