<?xml version="1.0" encoding="utf-8"?>
<!-- Generator: Adobe Illustrator 26.0.0, SVG Export Plug-In . SVG Version: 6.00 Build 0)  -->
<svg version="1.1" id="Camada_1" xmlns="http://www.w3.org/2000/svg" xmlns:xlink="http://www.w3.org/1999/xlink" x="0px" y="0px"
	 viewBox="0 0 254.2 303" style="enable-background:new 0 0 254.2 303;" xml:space="preserve">
<style type="text/css">
	.st0{fill:#1E448D;}
	.st1{fill:#ED2A3C;}
	.st2{fill:#E4E5E6;}
	.st3{opacity:0.25;}
	.st4{clip-path:url(#SVGID_00000158009532113767481980000015652608133548822184_);}
	.st5{fill:#010101;}
	.st6{clip-path:url(#SVGID_00000106837660105748258630000010693584412115970492_);}
	.st7{fill:#FFFFFF;}
</style>
<g>
	<g id="Capa_1">
		<path class="st0" d="M163.4,84.4v193.5h56.1c30.2,0,30.6-28.5,30.6-28.5v-165L163.4,84.4L163.4,84.4z"/>
		<path class="st0" d="M4.1,86.4v163.1c0,0,0.3,28.5,30.5,28.5h57V84.4H4.1V86.4z"/>
		<path class="st1" d="M4.1,84.4h87.6v193.5h11.4c1,0,2.1,0.1,3.1,0.3l0,0c5.8,0.9,17.9,4.8,20.8,20.3l0,0l0,0l0,0
			c0.2-0.9,0.4-1.8,0.6-2.7C132.7,278,151,278,151,278h12.4V84.4H250V11.6H4.1V84.4z"/>
		<path class="st2" d="M0,7.4v242.1C0.1,260.8,7.6,282,34.7,282h68.5c0.7,0,16.6,0.2,19.9,17.1c0,2.2,1.8,4.1,4,4.1
			c2.2,0,4.1-1.8,4.1-4l0,0c3.3-16.5,19.3-17.2,19.9-17.2h68.5c27.1,0,34.5-21.3,34.7-32.6V7.4H0z M250.1,11.6v237.8
			c0,0-0.4,28.5-30.6,28.5H151c0,0-18.3,0-23.3,17.9c-0.2,0.9-0.5,1.7-0.6,2.7l0,0l0,0l0,0c-2.9-15.5-15-19.3-20.8-20.3l0,0
			c-1-0.2-2.1-0.3-3.1-0.3H34.7c-30.2,0-30.5-28.5-30.5-28.5v-238h246L250.1,11.6L250.1,11.6z"/>
		<g class="st3">
			<g>
				<defs>
					<rect id="SVGID_1_" x="163.4" y="84.4" width="86.6" height="193.5"/>
				</defs>
				<clipPath id="SVGID_00000005255651894101676140000007634071423390185100_">
					<use xlink:href="#SVGID_1_"  style="overflow:visible;"/>
				</clipPath>
				<g style="clip-path:url(#SVGID_00000005255651894101676140000007634071423390185100_);">
					<polygon class="st5" points="163.4,277.9 165.4,277.9 165.4,86.4 250.1,86.4 250.1,84.4 163.4,84.4 					"/>
				</g>
			</g>
		</g>
		<g class="st3">
			<g>
				<defs>
					<rect id="SVGID_00000069369486636263443520000016926810997135088049_" x="4.1" y="84.4" width="87.6" height="193.5"/>
				</defs>
				<clipPath id="SVGID_00000129916070942778448330000009034416399417739922_">
					<use xlink:href="#SVGID_00000069369486636263443520000016926810997135088049_"  style="overflow:visible;"/>
				</clipPath>
				<g style="clip-path:url(#SVGID_00000129916070942778448330000009034416399417739922_);">
					<polygon class="st5" points="4.1,84.4 4.1,86.4 89.6,86.4 89.6,277.9 91.7,277.9 91.7,84.4 					"/>
				</g>
			</g>
		</g>
		<polygon class="st7" points="33.7,71.6 45.3,71.6 45.3,35.8 54.9,35.8 54.9,24.7 24.1,24.7 24.1,35.8 33.7,35.8 		"/>
		<rect x="68.1" y="24.7" class="st7" width="11.6" height="46.9"/>
		<path class="st7" d="M116.2,72.4c6.4,0.1,12.6-2.6,16.8-7.4c1.9-2.1,3.3-4.6,4.2-7.2c0.9-2.9,1.3-6,1.2-9.1v-4h-22.5v11.1h9.6
			c-0.6,1.2-1.4,2.2-2.4,3c-1.9,1.6-4.2,2.5-6.7,2.5c-3.2-0.1-6.2-1.3-8.4-3.5c-2.8-2.4-4.3-5.9-4.2-9.6c-0.1-3.5,1.2-6.9,3.8-9.4
			c2.4-2.5,5.8-3.9,9.3-3.8c4.1,0,7.5,1.9,10.5,5.8l1.8,2.3l8.4-8l-1.6-1.9c-2.5-2.9-5.5-5.3-8.9-7.1c-3.2-1.5-6.7-2.3-10.3-2.2
			c-6.5-0.1-12.8,2.4-17.4,7c-9.5,9.5-9.5,24.8-0.1,34.3C103.7,69.9,109.8,72.5,116.2,72.4"/>
		<path class="st7" d="M165.9,58.6l10.9,13h17l-16.6-19.1c2.1-0.9,3.9-2.1,5.5-3.8c5.1-5.3,4.9-13.8-0.4-18.9
			c-0.6-0.5-1.2-1-1.9-1.5c-3.6-2.5-8.9-3.7-16.3-3.7h-12v46.9h13.8V58.6z M165.9,35.8c6.9,0.1,6.9,2.5,6.9,3.8s0,4.1-6.9,4.2V35.8
			L165.9,35.8z"/>
		<polygon class="st7" points="230.1,60.5 213.3,60.5 213.3,51.8 229.6,51.8 229.6,40.7 213.3,40.7 213.3,35.8 230.1,35.8 
			230.1,24.7 201.7,24.7 201.7,71.6 230.1,71.6 		"/>
	</g>
</g>
</svg>
