<?xml version="1.0" encoding="UTF-8"?>
<svg id="Camada_1" xmlns="http://www.w3.org/2000/svg" version="1.1" viewBox="0 0 1000 1000">
  <!-- Generator: Adobe Illustrator 29.1.0, SVG Export Plug-In . SVG Version: 2.1.0 Build 142)  -->
  <defs>
    <style>
      .st0 {
        fill: #bd1d23;
      }
    </style>
  </defs>
  <path class="st0" d="M663.59,953.94c.82.83,1.37,2.22,1.65,1.94,2.48,0,7.43-.83,7.43-.83l4.95-2.22,14.04-5.54s35.5-16.91,35.5-17.19c.28,0,6.33-3.33,6.33-3.33l3.3-1.39,3.85-2.77,6.33-3.88,7.43-4.15,9.63-6.38,16.79-11.92,7.98-6.38,11.83-8.59,10.73-8.04,5.23-3.88,7.15-6.66,7.43-7.48,11.83-12.75,13.76-13.31,15.96-18.57,8.8-11.64,3.03-4.16,9.36-11.64,18.16-26.33,5.23-8.6,12.11-24.39,6.88-13.31,11.83-24.12,6.33-14.69,6.6-21.62s8.26-29.66,12.66-45.19c.55-1.66.82-3.33-.28-4.99-2.48-3.6-4.4-8.04-6.88-12.2-1.1-1.94-3.03-4.16-4.13-5.82-1.1-1.66-4.4-5.82-5.5-7.2-1.38-1.66-2.75-2.78-4.4-4.16-3.85-3.6-7.15-7.21-10.46-9.43-1.65-.83-3.03-1.94-4.4-3.05-9.91-7.76-20.09-13.86-31.37-18.85-4.68-1.94-9.63-3.88-14.58-5.54-3.3-1.11-9.08-2.5-12.66-3.05-2.2-.28-3.85-.28-5.5.55-1.65,1.11-1.65,3.6-1.93,5.82-.55,6.1-.82,13.03-1.37,19.13-.55,6.38-1.1,12.75-1.38,19.4-.55,5.82-.82,11.64-1.38,17.47-.82,7.76-1.92,15.25-3.3,23.01-2.75,14.14-5.78,28.28-8.53,42.42-.83,3.88-1.38,8.04-2.76,11.64-2.48,6.1-4.4,12.2-5.5,18.57-2.75,13.3-7.43,26.05-12.11,38.81-3.57,10.26-7.43,21.07-13.21,30.22-.55.55-.82,1.39-.82,1.94-2.75,6.65-5.51,13.03-8.26,19.68-1.92,4.15-4.68,8.04-6.33,12.2-2.2,5.26-5.23,10.26-8.26,14.97-4.95,7.76-10.18,15.24-14.3,23.28-3.03,5.55-6.33,10.81-9.91,16.08-1.1,1.38-1.93,2.77-2.76,3.88-3.03,4.43-5.5,8.87-8.8,13.03-6.06,7.76-12.66,15.8-18.99,23.29-4.13,4.71-8.53,9.15-12.93,13.86-3.85,4.16-7.7,8.32-11.83,12.47-.82.83-1.93,1.67-2.75,2.5-2.2,1.94-4.95,3.88-6.88,6.1-4.95,4.99-10.46,9.98-16.23,14.14-2.76,1.66-5.23,3.33-7.43,5.55-6.88,4.99-14.04,9.15-22.01,13.31Z"/>
  <path class="st0" d="M979.49,572.77c.27,0,.27-.55.27-1.11.28-1.11.28-3.33.28-3.33l3.3-31.05,2.2-29.11v-33.26l-3.31-32.71s-3.85-29.39-6.88-44.63c-1.1-5.27-4.4-8.04-8.81-10.26-1.37-.83-3.03-1.39-4.68-1.94-3.03-1.11-6.6-2.49-9.91-3.33-7.43-1.94-14.31-4.16-21.74-5.54-8.8-1.39-17.61-2.5-26.41-3.33-7.43-.55-14.58-.83-21.74-1.11h-15.13c-3.03,0-6.33,0-7.7,1.94-1.38,1.94-.55,5.54.27,8.87,1.1,7.21,2.2,10.81,3.3,17.74,3.57,21.07,7.15,41.86,7.98,63.2.27,9.7.83,19.13,1.38,28.83v7.21c0,1.66.55,3.33,1.1,4.71.83,1.38,2.2,1.38,3.58,1.94,1.92.55,3.57.83,5.23,1.11,1.93.55,5.23,1.11,7.7,1.94,8.53,2.77,17.34,5.82,25.59,9.15,5.78,2.22,11.28,5.82,16.79,8.59.55.28,1.1.83,1.93,1.11,3.3,2.5,6.61,4.99,9.91,7.21,7.7,5.54,15.41,11.09,21.46,18.85,1.1,1.39,2.48,2.78,3.85,4.16,2.2,1.94,6.06,9.43,8.81,12.75.55,1.11,1.1,1.39,1.37,1.39Z"/>
  <path class="st0" d="M762.64,224.59c3.03-.28,5.51-.28,7.7-.55,1.65-.28,3.31-.28,3.85-1.94.82-1.66-.55-3.6-1.1-4.44-.28-1.39-6.06-11.09-6.06-11.09l-5.5-8.59-22.84-32.99-4.68-5.54-4.13-6.38-7.43-8.32-18.43-20.24-7.98-7.76-28.61-26.61-23.39-18.3-8.53-4.44-27.52-16.91-19.26-10.53-3.58-1.66-15.68-5.82-23.39-8.87-1.65-.55-7.7-1.94-1.93-.28-6.61-1.66-13.76-2.5-6.61-.28-12.38-2.22-14.86-1.11-5.23-.55h-9.36l-15.41.55-15.41,1.66-11.83.28-10.46,1.11-10.73,2.22-8.25,2.5-13.21,2.5h-3.03l-12.38,4.44-7.15,1.94-4.4,2.77-10.73,3.05-5.23,3.05-6.6,2.49-15.96,6.65-20.36,8.04-6.6,3.33-14.31,7.76-12.38,8.04-11.56,6.1-4.13,2.49-12.66,6.65-1.93,1.39-14.58,11.37-11.83,8.04-2.2,1.66-13.76,10.81-4.68,3.88s-7.43,6.38-7.43,7.21l5.23-1.66,9.36-3.33c.28,0,1.93.28,1.93.28l13.21-5.54h1.93l14.58-5.82,7.71-2.5c0,.28,7.7-2.77,7.7-2.77l11.01-3.88,26.42-10.26h2.48l13.48-4.71,10.73-4.44,1.65,1.11s20.36.55,20.64.55l13.21,1.11.28.28,26.42,2.22.28-.28,36.6,1.94.27.83,12.93,11.37h1.1l13.21,13.03,1.1-.55,18.16.55.82-.55,45.96,2.77.27,1.11,20.36,11.92h.82l36.05,17.74.27,1.94,20.36-8.04,30,10.26,4.95,8.32,11.55-.28,10.46,11.92h1.1l8.53,9.7.28.55h1.1l23.67,5.54,8.8,13.58,22.01,8.04s23.39,6.1,35.5,7.49c10.46,1.66,23.11,1.11,31.37.55Z"/>
  <path class="st0" d="M966.83,364.58c-.82-3.6-3.3-10.53-3.3-10.53l-1.38-3.88-1.1-4.71-3.85-11.64-3.57-10.26-11.28-25.23-4.95-12.48-6.61-14.14-7.7-12.75-1.65-3.6-5.23-10.26-4.68-8.04-2.2-2.77-32.75-44.63s-3.3-3.88-4.68-5.54c-.82-1.11-1.1-1.66-1.92-1.66h-.28s-10.18,16.63-14.3,21.35c-4.13,4.71-12.66,12.47-12.66,12.47,0,0-7.15,5.82-8.26,6.93-1.1.83-6.61,4.44-6.61,4.44l-7.43,4.44s-5.78,2.5-6.6,3.05c-.83.28-1.93.83-2.48,1.39-.55.83-.83,1.39-.55,2.5.27,1.11.55,1.94,1.1,2.77,3.03,6.38,5.78,13.03,9.08,19.13,4.95,9.15,7.98,19.13,12.38,28.83,1.37,3.05,2.75,6.38,3.85,9.7,2.75,8.59,5.51,17.19,8.26,25.5,1.1,3.88,2.48,7.48,3.57,11.37,1.1,3.88,1.93,7.48,3.03,11.37.55,2.5,2.2,3.6,4.95,3.6,2.48,0,4.95,0,7.43-.28,8.81-.28,17.61-.55,26.42-.83,2.48,0,20.09,1.66,20.09,1.66,0,0,6.33.55,9.36,1.11,6.61,1.11,13.21,2.77,19.81,4.16,5.5,1.11,11.28,3.05,16.51,5.54,2.48,1.11,5.23,1.94,7.98,2.77.82.28,2.2.55,2.48.28-.55.28-.27-.55-.27-1.11Z"/>
  <path class="st0" d="M852.08,167.21c-.27-1.39-2.48-4.71-2.48-4.71l-1.65-3.05-4.68-5.54-3.31-4.44-6.05-5.82s-1.38-1.11-1.93-1.66c-10.46-8.59-31.37-25.5-31.37-25.78l-5.78-4.71-10.73-9.7-54.21-32.71-43.2-20.51s-22.56-8.87-22.84-8.87l-8.26-2.77-28.07-9.7-19.81-4.99-19.26-4.16-3.03-.28-1.38,1.39.83.83s1.93.83,3.03,1.39c5.78,2.5,11.83,4.44,17.88,6.93,3.85,1.66,7.43,3.6,11.56,4.71,2.75.83,5.23,1.94,7.7,3.33,9.08,5.27,18.16,10.53,27.24,16.08,5.5,3.33,10.46,6.93,15.13,11.37,3.58,3.33,7.16,6.38,11.56,8.87,1.93,1.11,3.3,2.77,5.23,4.16.82.83,1.93,1.66,2.75,2.5,5.23,4.44,11.01,8.32,15.96,13.31,4.95,5.54,10.46,10.81,15.68,15.8,4.95,4.99,10.18,9.98,14.31,15.52,3.57,4.71,7.15,9.15,11.28,13.31,7.98,7.76,14.04,17.19,21.19,25.5.82,1.11,1.38,2.22,2.2,3.6,4.68,7.21,8.8,14.97,14.31,21.62,3.85,4.71,7.43,9.7,9.91,15.25,1.65,3.33,3.85,6.38,6.05,9.43,1.1,1.94,3.31,2.77,4.4,2.49,1.1,0,3.03-1.11,3.03-1.11l3.85-1.66s4.95-2.22,6.88-3.05c1.65-.83,5.23-2.77,6.33-3.88,1.1-1.11,6.33-4.71,9.36-7.48,2.75-2.77,8.53-9.43,8.53-9.43l4.13-5.54,7.15-12.2c-.55.55.82-2.22.55-3.6Z"/>
  <path class="st0" d="M829.52,349.61c-3.03-9.15-5.23-17.74-8.53-26.61-2.75-7.21-4.68-14.97-8.25-21.9-1.93-4.16-3.03-8.87-4.68-13.31-.83-2.22-1.93-4.44-2.75-6.65-4.13-11.37-9.36-20.79-14.86-31.6-.28-.55-.55-1.11-1.1-2.22s-.82-1.94-2.2-2.77c-1.37-.83-2.48-.28-4.95,0-4.68.55-10.46,1.11-12.93,1.11-2.2,0-11.28.83-18.71,1.39l-1.37-.55h-8.81l-23.39-3.05c-8.53-1.11-28.07-6.1-28.07-6.1l-14.3-4.99-17.62-6.1-1.37.83-27.79-2.22-.83.55-15.68-11.92h-1.65l-9.63-8.87-.27-1.94-11.28-1.66-1.1.55-8.8-3.05-1.1-.83-20.36,1.39-18.44-7.48-63.84,3.33-1.1-.55-12.11.83-1.37.83-31.37,2.5-.82-.83-44.86,26.06-.55,1.94-1.93,1.94-.28-.83-22.56-2.22-1.38.55-39.62.28-.83-.55-11.28-.28-3.58-1.94-41.55,32.43-.28.83-14.58,11.64-16.23-7.76-1.1.28-6.05-1.66s-29.99,7.76-29.72,8.04c.28.28-28.07-4.44-28.07-4.44l-1.93-1.94-5.23,5.54-11.28,5.54-.28.83-22.29,17.19-31.92,23.01-35.77,26.89-16.24,11.92-.83,6.93-6.88,15.8-2.75,13.58-4.4,27.44-2.75,11.92-1.1,14.41-3.85,29.66-1.65,65.42,1.65,3.88,1.1,18.01s.28,3.05,1.1,3.33l79.25-82.61,26.14-10.54,21.74-1.11,13.21-15.25,1.38-2.77,1.65.83,35.77-4.15,1.65-1.11h13.21l1.93.83,4.4-5.82,15.96-10.26,17.06-11.92,48.16.55.28,1.11,18.71,1.66,14.86-3.05,26.97-27.72h.55l21.46-20.51,32.19-4.16,1.38-.83,1.37,1.39,16.79,8.04,1.1-1.11,14.86-1.94.82-.83,13.76-2.22,1.1-.83,15.13,13.03.82-1.11,30.82-.55,2.75-1.94,24.77,1.11,1.38.55,3.85-.83.55-1.11,9.91-4.44h1.1l11.56-5.27,1.1-1.11,12.11-4.71.82-1.39,33.85-13.03.27-.55,6.06-1.94,1.37-1.39,1.65,1.94,9.91,4.71h3.03l11.01,6.1.82-1.11,3.3-1.66h.27l5.51-2.49.27-.28,7.98-1.94,20.36,5.27,4.4-1.11,3.57,2.5,14.86,2.22,14.58,5.54,8.53-.55,2.75,1.94,2.2-1.39s28.61-3.6,43.2-4.71c9.36-.83,18.71-1.66,28.07-2.77,5.23-.55,10.46-1.11,15.68-1.66,2.75,1.11,4.4,0,3.3-3.33Z"/>
  <path class="st0" d="M850.43,497.92c0-1.94-.27-3.33-.55-5.27-.28-5.54-.55-11.09-.83-16.63,0-1.94-.27-3.6-.55-5.54-.55-6.93-.55-13.86-1.38-20.79-1.1-8.87-2.2-17.47-3.57-26.34-1.1-6.65-2.2-13.58-3.57-20.24-1.38-6.93-2.48-13.58-3.85-20.51-1.38-7.21-3.03-8.04-10.18-7.21-.55,0-1.1.28-1.65.28-2.75.55-6.33.83-9.08,1.39-14.04,1.94-27.25,2.5-41.55,4.16l-40.45,14.14-58.33-1.66-6.33-2.22v1.11l-17.06,12.75-2.48.28-13.48,12.75-.83,1.94-34.95,4.71-31.92,24.95h-3.3l-17.06,9.98-6.88.83-6.61,5.82-1.65-1.38-32.47-2.22-5.78,6.38v1.11l-28.07,31.05-.27,1.66-1.1.28-35.77,41.3-9.91.28-.83,1.11-29.44,5.27h-2.2s-.55,1.38-.83,1.38-48.43,27.17-48.43,27.17l-21.74-2.49-4.68,1.66-21.74-1.39-21.46,22.45-12.93,2.5-7.43-.28-7.43,3.33-4.4-.55.28.83-26.69,20.79-2.48.55-41.83,32.71.28,1.94-25.87,62.93,1.1,2.78-42.65,3.88-14.31,12.2-1.38,4.43,18.99,26.61,14.03,21.62,12.11,15.52,19.81,21.62s0,1.39.55,1.66c.28.28,2.75.28,2.75.28,0,0,11.83,3.88,11.83,4.16l14.58,4.71.28.83,1.38-.27,24.22,9.42h1.93l1.38,1.67h2.2c.28,0,5.78,3.88,5.78,3.88l10.18-5.55h.55l4.4-3.05,36.6,9.15,26.69-13.86,59.44-5.82,24.22-39.64c3.85-3.88,10.73-11.08,10.73-11.08h.83s8.25-7.76,8.53-8.04v-1.11l15.41-14.14,7.15-7.48s1.65-.83,1.65-1.11c.27,0,8.26-8.59,8.26-8.59l6.6-6.93,1.65-.28-1.65-6.1,6.88-25.5,13.48-3.88.55-.55,3.85-.83v-2.22l17.89-29.11,1.65-.83,7.43-14.41,12.11-6.93,1.65-1.94,2.48.27s7.15-4.15,7.43-4.15h.82l13.21-5.82,1.1-1.66,43.75-20.24,2.75-.28.55-2.5,1.65-1.38,4.4-15.25,13.76-6.1,15.96-1.94,14.58-10.26,20.64.83,1.93,1.66,1.1-1.38,28.89-13.03-.27-3.88,6.88-13.31,14.31-3.88.83-.83,19.54-4.16,7.43-8.87,1.1-.28s4.4-4.43,4.68-4.43l13.48,1.94.55.55,7.43,1.11,4.4.55s19.54-9.15,27.8-12.48c3.57-1.38,6.88-2.22,10.18-3.33,4.68-1.66,9.08-3.33,13.76-4.71,2.48-.83,4.4-1.38,6.88-1.94l9.08-1.66,10.73-1.67,5.78-.27s3.3-.28,4.4-.55c1.1-.28,3.03-.28,4.4-1.39,1.38-1.38,1.38-2.49,1.38-3.88.27-1.11.27-1.94.27-3.6Z"/>
  <path class="st0" d="M849.88,536.46c0-1.67.27-4.16-1.1-5.55-1.1-1.38-2.75-1.66-3.85-1.66s-6.05.55-6.05.55l-8.53,1.39c-1.1,0-1.93.27-2.75.55-4.95,1.11-10.18,2.22-15.13,3.6-5.5,1.66-11.28,3.05-16.51,5.54-5.5,2.5-11.83,4.43-17.34,7.2-1.93,1.11-20.64,10.26-29.17,14.42l-11,11.64-.27,2.5-1.38-.55-6.88.55-.55.55-22.29,7.48.27,2.5-2.2,2.22v1.39l-10.46,18.57h-1.37l-.28,1.94s-2.2,3.6-4.4,7.48l-47.05,30.49h-1.1l-7.16,6.1-5.23,19.68-4.68,4.43-18.43,68.19,2.48,7.76-27.24,13.03h-4.4l-5.23,23.84-.83.83-6.6,21.62.27,1.11-2.75,18.57-1.1,1.39.83,1.66-26.14,41.58-1.93.55-6.33,9.98-.27,1.94-22.29,31.61-23.67,14.14,1.37,1.94c0,.27-1.37,9.7-1.37,9.7l2.2,3.6-3.31,1.11-17.06,10.26-1.65-.55-25.04,14.97-3.03,4.71c0,.27,9.91,1.39,9.91,1.39l16.23,1.38,11.01.55,13.21.55,5.78.28,9.63.27,9.63-.27,35.22-4.44,20.64-3.6,15.68-4.44,17.06-4.99,21.74-8.59,1.65-.83,6.05-3.6s17.61-9.43,25.59-15.25c13.49-10.26,26.97-20.52,39.35-32.15,4.4-4.16,8.26-8.04,12.66-12.2,3.85-3.88,7.98-8.04,11.83-11.92.55-.83,1.65-1.38,1.93-2.22,1.38-3.33,3.85-5.54,6.06-7.76,1.65-1.67,3.3-3.33,4.67-5.27,2.76-4.16,6.61-7.48,10.19-10.81,2.75-2.77,5.5-5.82,7.7-9.15,4.12-5.82,7.98-11.92,11.83-18.02,5.23-8.04,11-15.8,15.41-24.12,4.95-8.87,9.63-18.02,14.58-26.89,4.12-7.48,8.53-15.25,11.83-23.01,5.51-13.31,11.01-26.33,16.24-39.64,5.5-14.14,9.63-28.83,13.49-43.52,2.75-10.81,4.67-22.17,8.53-32.71.55-1.39.82-2.77,1.1-4.43,1.38-8.87,3.03-18.02,4.4-26.89,1.38-8.59,2.48-16.91,3.58-25.5.82-5.82,1.92-11.64,2.2-17.47.82-8.04,1.1-16.08,1.37-24.12v-7.2Z"/>
</svg>