<?xml version="1.0" encoding="UTF-8"?>
<!DOCTYPE svg PUBLIC "-//W3C//DTD SVG 1.1//EN" "http://www.w3.org/Graphics/SVG/1.1/DTD/svg11.dtd">
<svg xmlns="http://www.w3.org/2000/svg" version="1.1" width="448px" height="540px" style="shape-rendering:geometricPrecision; text-rendering:geometricPrecision; image-rendering:optimizeQuality; fill-rule:evenodd; clip-rule:evenodd" xmlns:xlink="http://www.w3.org/1999/xlink">
<g><path style="opacity:0.997" fill="#15469c" d="M 215.5,-0.5 C 220.833,-0.5 226.167,-0.5 231.5,-0.5C 267.687,6.85959 287.02,29.0263 289.5,66C 289.463,69.5531 289.13,73.0531 288.5,76.5C 332.139,100.24 378.806,110.073 428.5,106C 434.955,105.258 441.288,104.092 447.5,102.5C 447.5,123.167 447.5,143.833 447.5,164.5C 445.525,224.535 433.359,282.535 411,338.5C 381.163,407.015 335.996,463.182 275.5,507C 258.774,518.357 241.774,529.19 224.5,539.5C 223.833,539.5 223.167,539.5 222.5,539.5C 99.8543,472.018 27.6876,368.684 6,229.5C 3.09233,208.088 0.925661,186.754 -0.5,165.5C -0.5,144.5 -0.5,123.5 -0.5,102.5C 37.6444,110.17 75.3111,108.003 112.5,96C 128.165,91.002 143.332,84.8353 158,77.5C 155.21,35.1446 174.376,9.14462 215.5,-0.5 Z"/></g>
<g><path style="opacity:1" fill="#f1f3f6" d="M 432.5,115.5 C 434.167,115.5 435.833,115.5 437.5,115.5C 437.5,125.167 437.5,134.833 437.5,144.5C 438.678,224.781 420.845,300.447 384,371.5C 355.041,422.798 316.541,465.632 268.5,500C 253.838,510 238.838,519.5 223.5,528.5C 98.5293,457.692 28.3626,350.359 13,206.5C 10.8694,186.222 9.70277,165.889 9.5,145.5C 9.5,135.5 9.5,125.5 9.5,115.5C 10.8333,115.5 12.1667,115.5 13.5,115.5C 68.012,120.082 119.345,109.415 167.5,83.5C 161.115,54.1394 170.448,31.306 195.5,15C 226.832,1.46423 252.665,8.29756 273,35.5C 281.811,50.3646 283.645,66.0312 278.5,82.5C 326.209,109.791 377.543,120.791 432.5,115.5 Z"/></g>
<g><path style="opacity:1" fill="#10449b" d="M 212.5,13.5 C 243.664,10.8252 264.497,24.1586 275,53.5C 277.8,95.3626 258.3,116.863 216.5,118C 183.896,109.996 169.063,89.1622 172,55.5C 177.906,34.0949 191.406,20.0949 212.5,13.5 Z"/></g>
<g><path style="opacity:1" fill="#f6f8fb" d="M 208.5,21.5 C 212.828,21.0366 216.828,21.8699 220.5,24C 222.619,26.2185 222.952,28.7185 221.5,31.5C 216.746,34.0869 212.413,37.2536 208.5,41C 203.489,41.3883 198.489,41.2216 193.5,40.5C 193.163,36.6924 193.663,33.0257 195,29.5C 199.513,26.6677 204.013,24.001 208.5,21.5 Z"/></g>
<g><path style="opacity:1" fill="#f7f8fb" d="M 230.5,21.5 C 238.237,21.9126 245.237,24.4126 251.5,29C 253.183,32.6203 253.85,36.4537 253.5,40.5C 248.478,40.7823 243.478,40.949 238.5,41C 234.587,37.2536 230.254,34.0869 225.5,31.5C 224.359,29.5787 224.192,27.5787 225,25.5C 226.812,24.0229 228.645,22.6896 230.5,21.5 Z"/></g>
<g><path style="opacity:1" fill="#f8fafc" d="M 191.5,43.5 C 196.87,43.3921 202.203,43.7255 207.5,44.5C 208.624,49.2068 209.957,53.8734 211.5,58.5C 208.905,63.605 206.072,68.605 203,73.5C 202.255,74.9904 201.088,75.9904 199.5,76.5C 196.167,75.6667 192.833,74.8333 189.5,74C 183.582,63.2288 184.249,53.0621 191.5,43.5 Z"/></g>
<g><path style="opacity:1" fill="#f7f8fb" d="M 240.5,43.5 C 245.511,43.3341 250.511,43.5007 255.5,44C 260.596,48.4028 262.762,53.9028 262,60.5C 260.983,65.054 259.483,69.3873 257.5,73.5C 254.028,74.5765 250.528,75.5765 247,76.5C 242.414,70.9992 238.581,64.9992 235.5,58.5C 237.325,53.5244 238.992,48.5244 240.5,43.5 Z"/></g>
<g><path style="opacity:1" fill="#edf1f7" d="M 178.5,56.5 C 179.5,56.5 180.5,56.5 181.5,56.5C 182.548,62.9793 184.214,69.3127 186.5,75.5C 185.771,80.47 185.271,85.47 185,90.5C 178.53,79.9818 176.363,68.6485 178.5,56.5 Z"/></g>
<g><path style="opacity:1" fill="#e9eef6" d="M 265.5,55.5 C 266.822,55.33 267.989,55.6634 269,56.5C 270.735,68.777 268.402,80.1104 262,90.5C 261.333,83.8333 261.333,77.1667 262,70.5C 263.958,65.6708 265.124,60.6708 265.5,55.5 Z"/></g>
<g><path style="opacity:1" fill="#f9fafc" d="M 229.5,60.5 C 231.981,60.3234 233.814,61.3234 235,63.5C 237.416,68.0006 240.083,72.3339 243,76.5C 243.667,77.8333 243.667,79.1667 243,80.5C 240.376,84.248 237.876,88.0813 235.5,92C 227.471,93.8705 219.471,93.8705 211.5,92C 209.124,88.0813 206.624,84.248 204,80.5C 203.333,79.1667 203.333,77.8333 204,76.5C 207.042,71.5812 210.209,66.7478 213.5,62C 219.016,61.8267 224.349,61.3267 229.5,60.5 Z"/></g>
<g><path style="opacity:1" fill="#f8bd04" d="M 223.5,123.5 C 223.5,126.5 223.5,129.5 223.5,132.5C 218.838,131.804 214.671,132.804 211,135.5C 210.333,141.167 210.333,146.833 211,152.5C 212.836,154.131 212.336,154.798 209.5,154.5C 209.5,155.5 209.5,156.5 209.5,157.5C 207.784,157.629 206.117,157.962 204.5,158.5C 202.167,158.5 199.833,158.5 197.5,158.5C 197.5,150.833 197.5,143.167 197.5,135.5C 197.5,135.167 197.5,134.833 197.5,134.5C 198.404,133.791 198.737,132.791 198.5,131.5C 184.656,131.171 170.99,131.504 157.5,132.5C 158.09,133.766 158.59,135.099 159,136.5C 159.333,146.5 159.667,156.5 160,166.5C 160.833,167.333 161.667,168.167 162.5,169C 168.167,169.667 173.833,169.667 179.5,169C 180.333,168.167 181.167,167.333 182,166.5C 182.333,156.5 182.667,146.5 183,136.5C 183.249,135.376 183.749,134.376 184.5,133.5C 185.791,145.198 185.791,156.865 184.5,168.5C 183.957,168.56 183.624,168.893 183.5,169.5C 192.726,170.179 201.893,170.846 211,171.5C 211.667,170.833 212.333,170.167 213,169.5C 216.394,170.456 219.894,170.789 223.5,170.5C 223.5,172.833 223.5,175.167 223.5,177.5C 163.833,177.5 104.167,177.5 44.5,177.5C 44.2627,178.791 44.596,179.791 45.5,180.5C 45.5,181.167 45.5,181.833 45.5,182.5C 46.4663,210.475 46.7997,238.475 46.5,266.5C 45.3437,270.445 44.8437,274.445 45,278.5C 62.7488,271.688 80.9155,266.355 99.5,262.5C 99.628,260.345 99.128,258.345 98,256.5C 97.3333,233.5 97.3333,210.5 98,187.5C 99.3848,188.551 100.385,189.884 101,191.5C 105.667,203.5 110.333,215.5 115,227.5C 116.548,238.211 115.381,248.544 111.5,258.5C 112,258.833 112.5,259.167 113,259.5C 122.49,257.435 131.99,255.435 141.5,253.5C 140.764,251.459 139.931,249.459 139,247.5C 138.333,240.167 138.333,232.833 139,225.5C 143.852,213.068 149.352,201.068 155.5,189.5C 156.167,207.833 156.833,226.167 157.5,244.5C 160.744,247.289 164.411,249.289 168.5,250.5C 178.485,249.525 188.485,248.692 198.5,248C 200.095,245.898 202.095,244.398 204.5,243.5C 205.798,242.884 206.798,242.884 207.5,243.5C 207.5,244.167 207.5,244.833 207.5,245.5C 206.596,246.209 206.263,247.209 206.5,248.5C 212.167,248.5 217.833,248.5 223.5,248.5C 223.5,254.5 223.5,260.5 223.5,266.5C 219.298,266.183 215.298,266.517 211.5,267.5C 202.15,268.091 193.65,271.091 186,276.5C 173.152,264.105 157.985,259.605 140.5,263C 139.584,263.374 138.75,263.874 138,264.5C 135.213,272.638 134.213,280.972 135,289.5C 135.379,292.03 136.213,294.363 137.5,296.5C 104.338,297.498 71.0042,297.832 37.5,297.5C 19.8049,239.926 12.4715,180.926 15.5,120.5C 70.0229,124.826 121.523,114.16 170,88.5C 181.074,110.299 198.907,121.966 223.5,123.5 Z"/></g>
<g><path style="opacity:1" fill="#0a4299" d="M 409.5,297.5 C 375.832,297.333 342.165,297.5 308.5,298C 306.037,301.465 303.204,304.631 300,307.5C 299.333,309.167 299.333,310.833 300,312.5C 302.205,315.04 304.705,317.207 307.5,319C 304.827,320.337 302.993,322.171 302,324.5C 306.304,326.304 309.471,329.304 311.5,333.5C 308.625,334.081 305.958,335.081 303.5,336.5C 311.733,348.088 314.233,360.755 311,374.5C 309.039,371.537 306.706,368.871 304,366.5C 304.856,381.375 301.856,395.375 295,408.5C 292.665,411.665 290.165,414.665 287.5,417.5C 286.834,414.311 286.167,410.977 285.5,407.5C 284.893,407.624 284.56,407.957 284.5,408.5C 279.147,418.347 271.147,425.181 260.5,429C 252.583,434.929 246.916,442.596 243.5,452C 236.95,453.42 230.284,453.92 223.5,453.5C 223.5,456.5 223.5,459.5 223.5,462.5C 223.5,463.833 223.5,465.167 223.5,466.5C 224.363,474.13 224.53,481.797 224,489.5C 227.394,490.456 230.894,490.789 234.5,490.5C 235.492,490.328 236.158,490.662 236.5,491.5C 236.5,492.167 236.167,492.5 235.5,492.5C 231.167,492.5 226.833,492.5 222.5,492.5C 222.5,502.167 222.5,511.833 222.5,521.5C 132.851,471.508 71.5177,397.842 38.5,300.5C 71.4899,298.837 104.823,297.837 138.5,297.5C 138.376,296.893 138.043,296.56 137.5,296.5C 136.213,294.363 135.379,292.03 135,289.5C 134.213,280.972 135.213,272.638 138,264.5C 138.75,263.874 139.584,263.374 140.5,263C 157.985,259.605 173.152,264.105 186,276.5C 193.65,271.091 202.15,268.091 211.5,267.5C 215.833,267.5 220.167,267.5 224.5,267.5C 224.824,260.646 224.491,253.979 223.5,247.5C 217.729,248.113 212.396,247.446 207.5,245.5C 207.5,244.833 207.5,244.167 207.5,243.5C 208.558,242.4 209.392,241.066 210,239.5C 210.985,221.017 210.652,202.683 209,184.5C 207.844,203.359 207.011,222.359 206.5,241.5C 205.478,241.855 204.811,242.522 204.5,243.5C 202.095,244.398 200.095,245.898 198.5,248C 188.485,248.692 178.485,249.525 168.5,250.5C 164.411,249.289 160.744,247.289 157.5,244.5C 157.833,225.488 157.5,206.488 156.5,187.5C 155.702,187.957 155.369,188.624 155.5,189.5C 149.352,201.068 143.852,213.068 139,225.5C 138.333,232.833 138.333,240.167 139,247.5C 139.931,249.459 140.764,251.459 141.5,253.5C 131.99,255.435 122.49,257.435 113,259.5C 112.5,259.167 112,258.833 111.5,258.5C 115.381,248.544 116.548,238.211 115,227.5C 110.333,215.5 105.667,203.5 101,191.5C 100.385,189.884 99.3848,188.551 98,187.5C 97.3333,210.5 97.3333,233.5 98,256.5C 99.128,258.345 99.628,260.345 99.5,262.5C 80.9155,266.355 62.7488,271.688 45,278.5C 44.8437,274.445 45.3437,270.445 46.5,266.5C 47.6636,239.67 47.8302,212.67 47,185.5C 46.7679,184.263 46.2679,183.263 45.5,182.5C 45.5,181.833 45.5,181.167 45.5,180.5C 104.66,178.834 163.993,177.834 223.5,177.5C 223.5,175.167 223.5,172.833 223.5,170.5C 214.808,171.311 210.308,167.311 210,158.5C 209.501,162.152 209.335,165.818 209.5,169.5C 200.983,169.826 192.65,169.493 184.5,168.5C 185.791,156.865 185.791,145.198 184.5,133.5C 183.749,134.376 183.249,135.376 183,136.5C 182.667,146.5 182.333,156.5 182,166.5C 181.167,167.333 180.333,168.167 179.5,169C 173.833,169.667 168.167,169.667 162.5,169C 161.667,168.167 160.833,167.333 160,166.5C 159.667,156.5 159.333,146.5 159,136.5C 158.59,135.099 158.09,133.766 157.5,132.5C 171.209,131.852 184.542,132.519 197.5,134.5C 197.5,134.833 197.5,135.167 197.5,135.5C 196.508,143.316 196.174,151.316 196.5,159.5C 199.385,159.806 202.052,159.473 204.5,158.5C 206.117,157.962 207.784,157.629 209.5,157.5C 209.5,156.5 209.5,155.5 209.5,154.5C 212.336,154.798 212.836,154.131 211,152.5C 210.333,146.833 210.333,141.167 211,135.5C 214.671,132.804 218.838,131.804 223.5,132.5C 223.5,129.5 223.5,126.5 223.5,123.5C 248.099,121.875 266.099,110.209 277.5,88.5C 325.849,115.17 377.516,125.836 432.5,120.5C 433.373,171.811 428.206,222.477 417,272.5C 414.36,280.91 411.86,289.243 409.5,297.5 Z"/></g>
<g><path style="opacity:1" fill="#f5f7fb" d="M 210.5,95.5 C 219.157,96.549 227.824,96.7157 236.5,96C 241.577,103.3 239.91,108.3 231.5,111C 225.5,111.667 219.5,111.667 213.5,111C 211.333,110.167 209.833,108.667 209,106.5C 208.242,102.643 208.742,98.9767 210.5,95.5 Z"/></g>
<g><path style="opacity:1" fill="#5980bb" d="M 13.5,115.5 C 12.1667,115.5 10.8333,115.5 9.5,115.5C 9.5,125.5 9.5,135.5 9.5,145.5C 8.50577,135.347 8.17244,125.014 8.5,114.5C 10.4147,114.216 12.0813,114.549 13.5,115.5 Z"/></g>
<g><path style="opacity:1" fill="#5980bb" d="M 432.5,115.5 C 434.265,114.539 436.265,114.205 438.5,114.5C 438.827,124.681 438.494,134.681 437.5,144.5C 437.5,134.833 437.5,125.167 437.5,115.5C 435.833,115.5 434.167,115.5 432.5,115.5 Z"/></g>
<g><path style="opacity:1" fill="#978b3b" d="M 157.5,132.5 C 170.99,131.504 184.656,131.171 198.5,131.5C 198.737,132.791 198.404,133.791 197.5,134.5C 184.542,132.519 171.209,131.852 157.5,132.5 Z"/></g>
<g><path style="opacity:1" fill="#eef2f8" d="M 161.5,134.5 C 163.5,134.5 165.5,134.5 167.5,134.5C 167.5,143.5 167.5,152.5 167.5,161.5C 169.833,161.5 172.167,161.5 174.5,161.5C 174.5,152.5 174.5,143.5 174.5,134.5C 176.5,134.5 178.5,134.5 180.5,134.5C 180.666,144.506 180.5,154.506 180,164.5C 179.308,165.025 178.808,165.692 178.5,166.5C 173.5,167.833 168.5,167.833 163.5,166.5C 163.192,165.692 162.692,165.025 162,164.5C 161.5,154.506 161.334,144.506 161.5,134.5 Z"/></g>
<g><path style="opacity:1" fill="#fbfcfd" d="M 188.5,135.5 C 190.167,135.5 191.833,135.5 193.5,135.5C 193.174,144.349 193.507,153.016 194.5,161.5C 198.167,161.5 201.833,161.5 205.5,161.5C 205.5,163.167 205.5,164.833 205.5,166.5C 199.642,166.822 193.975,166.489 188.5,165.5C 188.5,155.5 188.5,145.5 188.5,135.5 Z"/></g>
<g><path style="opacity:1" fill="#eff2f8" d="M 224.5,141.5 C 222.735,140.539 220.735,140.205 218.5,140.5C 218.5,143.167 218.5,145.833 218.5,148.5C 221.5,148.5 224.5,148.5 227.5,148.5C 228.458,148.953 229.292,149.619 230,150.5C 234.168,164.321 229.335,169.821 215.5,167C 212.814,164.454 211.814,161.287 212.5,157.5C 214.5,157.5 216.5,157.5 218.5,157.5C 218.5,158.833 218.5,160.167 218.5,161.5C 220.5,161.5 222.5,161.5 224.5,161.5C 224.5,158.833 224.5,156.167 224.5,153.5C 221.5,153.5 218.5,153.5 215.5,153.5C 214.542,153.047 213.708,152.381 213,151.5C 209.463,135.696 215.129,130.696 230,136.5C 230.497,139.146 230.664,141.813 230.5,144.5C 228.5,144.5 226.5,144.5 224.5,144.5C 224.5,143.5 224.5,142.5 224.5,141.5 Z"/></g>
<g><path style="opacity:1" fill="#ecf0f7" d="M 243.5,134.5 C 245.833,134.5 248.167,134.5 250.5,134.5C 253.159,145.483 255.826,156.483 258.5,167.5C 256.167,167.5 253.833,167.5 251.5,167.5C 253.167,160.5 250.5,157.833 243.5,159.5C 243.167,162.167 242.833,164.833 242.5,167.5C 240.076,167.808 237.743,167.474 235.5,166.5C 239.054,156.066 241.721,145.399 243.5,134.5 Z"/></g>
<g><path style="opacity:1" fill="#f3f6fa" d="M 278.5,151.5 C 278.783,152.289 279.283,152.956 280,153.5C 280.818,147.651 280.652,141.985 279.5,136.5C 280.152,135.275 281.319,134.608 283,134.5C 284.681,134.608 285.848,135.275 286.5,136.5C 285.506,146.319 285.173,156.319 285.5,166.5C 283.5,166.5 281.5,166.5 279.5,166.5C 277.289,160.407 274.789,154.407 272,148.5C 271.5,154.825 271.334,161.158 271.5,167.5C 269.5,167.5 267.5,167.5 265.5,167.5C 265.5,156.5 265.5,145.5 265.5,134.5C 267.792,134.244 269.959,134.577 272,135.5C 274.456,140.741 276.623,146.075 278.5,151.5 Z"/></g>
<g><path style="opacity:1" fill="#a5913e" d="M 170.5,134.5 C 171.222,134.918 171.722,135.584 172,136.5C 172.5,144.159 172.666,151.826 172.5,159.5C 171.5,159.5 170.5,159.5 169.5,159.5C 169.198,151.082 169.531,142.748 170.5,134.5 Z"/></g>
<g><path style="opacity:1" fill="#b5c7e0" d="M 188.5,135.5 C 190.265,134.539 192.265,134.205 194.5,134.5C 194.5,143.5 194.5,152.5 194.5,161.5C 193.507,153.016 193.174,144.349 193.5,135.5C 191.833,135.5 190.167,135.5 188.5,135.5 Z"/></g>
<g><path style="opacity:1" fill="#9b8c3c" d="M 197.5,135.5 C 197.5,143.167 197.5,150.833 197.5,158.5C 199.833,158.5 202.167,158.5 204.5,158.5C 202.052,159.473 199.385,159.806 196.5,159.5C 196.174,151.316 196.508,143.316 197.5,135.5 Z"/></g>
<g><path style="opacity:1" fill="#7193c5" d="M 279.5,136.5 C 280.652,141.985 280.818,147.651 280,153.5C 279.283,152.956 278.783,152.289 278.5,151.5C 279.487,146.695 279.821,141.695 279.5,136.5 Z"/></g>
<g><path style="opacity:1" fill="#7193c5" d="M 286.5,136.5 C 286.5,146.833 286.5,157.167 286.5,167.5C 283.941,167.802 281.607,167.468 279.5,166.5C 281.5,166.5 283.5,166.5 285.5,166.5C 285.173,156.319 285.506,146.319 286.5,136.5 Z"/></g>
<g><path style="opacity:1" fill="#6085be" d="M 224.5,141.5 C 222.833,141.5 221.167,141.5 219.5,141.5C 219.5,143.5 219.5,145.5 219.5,147.5C 222.385,147.194 225.052,147.527 227.5,148.5C 224.5,148.5 221.5,148.5 218.5,148.5C 218.5,145.833 218.5,143.167 218.5,140.5C 220.735,140.205 222.735,140.539 224.5,141.5 Z"/></g>
<g><path style="opacity:1" fill="#2f55a4" d="M 246.5,144.5 C 247.117,144.611 247.617,144.944 248,145.5C 248.502,148.513 249.002,151.513 249.5,154.5C 248.167,154.5 246.833,154.5 245.5,154.5C 245.46,151.119 245.793,147.786 246.5,144.5 Z"/></g>
<g><path style="opacity:1" fill="#4870b3" d="M 215.5,153.5 C 218.5,153.5 221.5,153.5 224.5,153.5C 224.5,156.167 224.5,158.833 224.5,161.5C 222.5,161.5 220.5,161.5 218.5,161.5C 218.5,160.167 218.5,158.833 218.5,157.5C 216.5,157.5 214.5,157.5 212.5,157.5C 214.607,156.532 216.941,156.198 219.5,156.5C 219.5,157.833 219.5,159.167 219.5,160.5C 220.833,160.5 222.167,160.5 223.5,160.5C 223.5,158.5 223.5,156.5 223.5,154.5C 220.615,154.806 217.948,154.473 215.5,153.5 Z"/></g>
<g><path style="opacity:1" fill="#a1b7d8" d="M 205.5,161.5 C 206.461,163.265 206.795,165.265 206.5,167.5C 200.132,167.83 193.798,167.496 187.5,166.5C 187.624,165.893 187.957,165.56 188.5,165.5C 193.975,166.489 199.642,166.822 205.5,166.5C 205.5,164.833 205.5,163.167 205.5,161.5 Z"/></g>
<g><path style="opacity:1" fill="#cea722" d="M 223.5,170.5 C 219.894,170.789 216.394,170.456 213,169.5C 212.333,170.167 211.667,170.833 211,171.5C 201.893,170.846 192.726,170.179 183.5,169.5C 183.624,168.893 183.957,168.56 184.5,168.5C 192.65,169.493 200.983,169.826 209.5,169.5C 209.335,165.818 209.501,162.152 210,158.5C 210.308,167.311 214.808,171.311 223.5,170.5 Z"/></g>
<g><path style="opacity:1" fill="#47636c" d="M 223.5,177.5 C 163.993,177.834 104.66,178.834 45.5,180.5C 44.596,179.791 44.2627,178.791 44.5,177.5C 104.167,177.5 163.833,177.5 223.5,177.5 Z"/></g>
<g><path style="opacity:1" fill="#fbfcfd" d="M 51.5,182.5 C 56.5,182.5 61.5,182.5 66.5,182.5C 65.4015,193.466 65.2348,204.466 66,215.5C 70.331,217.075 74.4976,216.742 78.5,214.5C 79.7631,203.815 79.7631,193.149 78.5,182.5C 83.8746,182.172 89.2079,182.505 94.5,183.5C 94,184.5 93.5,185.5 93,186.5C 92.2058,210.857 92.3725,235.19 93.5,259.5C 88.3575,260.328 83.3575,261.661 78.5,263.5C 77.432,261.813 77.5986,260.146 79,258.5C 79.6667,249.167 79.6667,239.833 79,230.5C 74.301,229.028 69.9677,229.695 66,232.5C 65.2123,243.194 65.3789,253.861 66.5,264.5C 65.8113,266.353 64.478,267.519 62.5,268C 58.6066,268.465 54.9399,269.631 51.5,271.5C 50.432,269.813 50.5986,268.146 52,266.5C 52.7996,238.477 52.6329,210.477 51.5,182.5 Z"/></g>
<g><path style="opacity:1" fill="#f9fafc" d="M 100.5,183.5 C 106.678,182.183 113.012,182.183 119.5,183.5C 119.167,184.167 118.833,184.833 118.5,185.5C 121.629,193.386 124.462,201.386 127,209.5C 130.167,201.333 133.333,193.167 136.5,185C 136.355,184.228 136.022,183.561 135.5,183C 141.833,182.333 148.167,182.333 154.5,183C 151.894,184.938 150.061,187.438 149,190.5C 144,202.167 139,213.833 134,225.5C 133.26,233.868 133.426,242.202 134.5,250.5C 129.088,251.13 123.755,252.13 118.5,253.5C 120.537,245.042 121.037,236.376 120,227.5C 114.941,215.657 110.274,203.657 106,191.5C 104.694,188.379 102.86,185.713 100.5,183.5 Z"/></g>
<g><path style="opacity:1" fill="#e5b318" d="M 126.5,180.5 C 128.943,181.499 130.609,183.332 131.5,186C 130.12,189.258 128.62,192.425 127,195.5C 126.03,192.256 124.863,189.09 123.5,186C 124.741,184.269 125.741,182.436 126.5,180.5 Z"/></g>
<g><path style="opacity:1" fill="#f6f8fb" d="M 160.5,183.5 C 165.68,182.185 171.014,182.185 176.5,183.5C 175.514,200.453 175.181,217.453 175.5,234.5C 179.902,234.772 184.235,234.439 188.5,233.5C 189.818,216.799 189.818,200.132 188.5,183.5C 193.802,182.337 199.136,182.171 204.5,183C 203.673,201.427 203.173,219.927 203,238.5C 200.54,239.958 198.373,241.791 196.5,244C 186.5,244.778 176.5,245.111 166.5,245C 164.714,244.215 163.214,243.049 162,241.5C 161.832,221.996 161.332,202.662 160.5,183.5 Z"/></g>
<g><path style="opacity:1" fill="#f7f8fb" d="M 213.5,183.5 C 218.316,182.35 223.316,182.184 228.5,183C 235.381,194.593 241.881,206.426 248,218.5C 248.812,206.787 248.645,195.12 247.5,183.5C 252.802,182.337 258.136,182.171 263.5,183C 262.194,203.458 262.194,223.958 263.5,244.5C 258.456,244.827 253.456,244.494 248.5,243.5C 242.254,231.34 235.754,219.34 229,207.5C 228.229,219.533 228.395,231.533 229.5,243.5C 224.167,243.5 218.833,243.5 213.5,243.5C 214.803,223.36 214.803,203.36 213.5,183.5 Z"/></g>
<g><path style="opacity:1" fill="#f9fafc" d="M 272.5,182.5 C 284.505,182.333 296.505,182.5 308.5,183C 310.641,184.308 312.641,185.808 314.5,187.5C 315.666,206.825 315.833,226.158 315,245.5C 314.167,246.333 313.333,247.167 312.5,248C 308.289,249.534 303.956,249.867 299.5,249C 291.49,248.073 283.49,247.073 275.5,246C 274.572,245.612 273.905,244.945 273.5,244C 274.648,224.531 274.815,205.031 274,185.5C 272.961,184.756 272.461,183.756 272.5,182.5 Z"/></g>
<g><path style="opacity:1" fill="#f6f8fb" d="M 338.5,182.5 C 344.206,182.171 349.872,182.505 355.5,183.5C 355.013,184.446 354.68,185.446 354.5,186.5C 360.804,210.715 366.637,235.048 372,259.5C 376.09,263.894 375.257,265.394 369.5,264C 366.051,263.138 362.717,261.972 359.5,260.5C 358.287,254.636 356.62,248.969 354.5,243.5C 349.27,242.03 343.937,241.363 338.5,241.5C 337.535,245.773 336.869,250.106 336.5,254.5C 330.965,254.526 325.632,253.526 320.5,251.5C 328.514,229.116 334.514,206.116 338.5,182.5 Z"/></g>
<g><path style="opacity:1" fill="#f2f5fa" d="M 379.5,182.5 C 384.833,182.5 390.167,182.5 395.5,182.5C 394.511,212.223 394.177,241.89 394.5,271.5C 389.808,270.103 385.141,268.603 380.5,267C 380.043,266.586 379.709,266.086 379.5,265.5C 380.825,237.833 380.825,210.167 379.5,182.5 Z"/></g>
<g><path style="opacity:1" fill="#f5bb06" d="M 184.5,229.5 C 183.167,229.5 181.833,229.5 180.5,229.5C 180.5,215.167 180.5,200.833 180.5,186.5C 180.82,182.916 181.987,182.249 184,184.5C 184.5,199.496 184.667,214.496 184.5,229.5 Z"/></g>
<g><path style="opacity:1" fill="#d4ab18" d="M 45.5,182.5 C 46.2679,183.263 46.7679,184.263 47,185.5C 47.8302,212.67 47.6636,239.67 46.5,266.5C 46.7997,238.475 46.4663,210.475 45.5,182.5 Z"/></g>
<g><path style="opacity:1" fill="#8d8448" d="M 157.5,244.5 C 156.833,226.167 156.167,207.833 155.5,189.5C 155.369,188.624 155.702,187.957 156.5,187.5C 157.5,206.488 157.833,225.488 157.5,244.5 Z"/></g>
<g><path style="opacity:1" fill="#0f449b" d="M 287.5,193.5 C 292.099,193.2 296.599,193.533 301,194.5C 301.5,208.829 301.667,223.163 301.5,237.5C 297.486,237.666 293.486,237.499 289.5,237C 289,236.5 288.5,236 288,235.5C 287.5,221.504 287.333,207.504 287.5,193.5 Z"/></g>
<g><path style="opacity:1" fill="#eeb80b" d="M 71.5,182.5 C 72.7498,182.577 73.5831,183.244 74,184.5C 74.4998,193.494 74.6664,202.494 74.5,211.5C 73.1667,211.5 71.8333,211.5 70.5,211.5C 70.2452,201.794 70.5785,192.127 71.5,182.5 Z"/></g>
<g><path style="opacity:1" fill="#1c4a9e" d="M 346.5,206.5 C 347.793,207.842 348.626,209.509 349,211.5C 350.482,217.444 351.649,223.444 352.5,229.5C 349.167,229.167 345.833,228.833 342.5,228.5C 343.19,221.022 344.524,213.689 346.5,206.5 Z"/></g>
<g><path style="opacity:1" fill="#c8a426" d="M 207.5,243.5 C 206.798,242.884 205.798,242.884 204.5,243.5C 204.811,242.522 205.478,241.855 206.5,241.5C 207.011,222.359 207.844,203.359 209,184.5C 210.652,202.683 210.985,221.017 210,239.5C 209.392,241.066 208.558,242.4 207.5,243.5 Z"/></g>
<g><path style="opacity:1" fill="#817f4b" d="M 180.5,186.5 C 180.5,200.833 180.5,215.167 180.5,229.5C 181.833,229.5 183.167,229.5 184.5,229.5C 183.081,230.451 181.415,230.784 179.5,230.5C 179.171,215.657 179.504,200.99 180.5,186.5 Z"/></g>
<g><path style="opacity:1" fill="#eeb70d" d="M 70.5,234.5 C 71.8333,234.5 73.1667,234.5 74.5,234.5C 74.6664,242.507 74.4997,250.507 74,258.5C 73.3333,260.5 72.6667,262.5 72,264.5C 70.5269,254.665 70.0269,244.665 70.5,234.5 Z"/></g>
<g><path style="opacity:1" fill="#747853" d="M 207.5,245.5 C 212.396,247.446 217.729,248.113 223.5,247.5C 223.5,247.833 223.5,248.167 223.5,248.5C 217.833,248.5 212.167,248.5 206.5,248.5C 206.263,247.209 206.596,246.209 207.5,245.5 Z"/></g>
<g><path style="opacity:1" fill="#34567b" d="M 223.5,247.5 C 224.491,253.979 224.824,260.646 224.5,267.5C 220.167,267.5 215.833,267.5 211.5,267.5C 215.298,266.517 219.298,266.183 223.5,266.5C 223.5,260.5 223.5,254.5 223.5,248.5C 223.5,248.167 223.5,247.833 223.5,247.5 Z"/></g>
<g><path style="opacity:1" fill="#eb950e" d="M 302.5,341.5 C 304.13,347.772 301.797,350.939 295.5,351C 293.93,352.397 292.596,353.897 291.5,355.5C 291.336,352.813 291.503,350.146 292,347.5C 295.84,342.618 296.506,337.285 294,331.5C 291.08,323.588 285.913,318.088 278.5,315C 289.198,324.459 291.865,335.792 286.5,349C 286.655,352.292 287.322,355.459 288.5,358.5C 287.167,358.5 285.833,358.5 284.5,358.5C 284.813,354.958 284.479,351.625 283.5,348.5C 283.567,347.041 283.234,345.708 282.5,344.5C 282.539,343.244 282.039,342.244 281,341.5C 280.502,344.482 280.335,347.482 280.5,350.5C 279.176,357.144 275.843,362.477 270.5,366.5C 265.93,367.441 261.263,367.774 256.5,367.5C 255.637,366.537 254.97,366.537 254.5,367.5C 259.717,373.442 259.717,379.275 254.5,385C 250.719,387.225 246.719,388.891 242.5,390C 244.473,390.495 246.473,390.662 248.5,390.5C 242.002,394.023 235.002,395.189 227.5,394C 226.748,393.329 226.414,392.496 226.5,391.5C 231.813,387.03 237.313,382.697 243,378.5C 243.847,375.551 243.014,373.218 240.5,371.5C 239.09,373.955 236.923,374.955 234,374.5C 226.33,373.211 218.663,373.211 211,374.5C 208.855,374.604 207.021,373.937 205.5,372.5C 203.744,374.191 203.244,376.191 204,378.5C 209.66,382.732 215.16,387.066 220.5,391.5C 220.53,392.497 220.03,393.164 219,393.5C 211.658,395.287 204.825,394.287 198.5,390.5C 200.199,390.66 201.866,390.494 203.5,390C 196.968,388.46 191.801,384.96 188,379.5C 188.052,375.044 189.552,371.044 192.5,367.5C 192.376,366.893 192.043,366.56 191.5,366.5C 186.469,367.783 181.469,367.783 176.5,366.5C 168.233,360.208 164.733,351.875 166,341.5C 161.617,348.596 161.45,355.762 165.5,363C 164.673,367.658 162.006,370.492 157.5,371.5C 157.062,371.565 156.728,371.399 156.5,371C 160.38,368.392 161.38,364.892 159.5,360.5C 158.378,361.63 157.044,362.297 155.5,362.5C 156.6,361.395 157.267,360.062 157.5,358.5C 159.408,355.558 160.408,352.224 160.5,348.5C 155.218,335.462 157.884,324.296 168.5,315C 158.248,319.426 152.581,327.426 151.5,339C 152.671,342.517 154.004,346.017 155.5,349.5C 155.5,351.5 155.5,353.5 155.5,355.5C 153.274,351.413 149.774,349.413 145,349.5C 144.503,346.854 144.336,344.187 144.5,341.5C 145.361,339.614 146.361,337.78 147.5,336C 145.649,334.316 143.982,332.483 142.5,330.5C 145.328,328.252 148.328,326.252 151.5,324.5C 150.167,322.833 148.833,321.167 147.5,319.5C 150.068,316.604 151.735,313.27 152.5,309.5C 151.107,304.587 148.274,300.587 144,297.5C 137.996,286.887 138.163,276.387 144.5,266C 161.569,264.453 175.069,270.619 185,284.5C 201.8,271.263 220.633,267.43 241.5,273C 248.951,275.556 255.618,279.389 261.5,284.5C 271.477,271.011 284.81,264.844 301.5,266C 310.954,280.234 309.121,293.067 296,304.5C 293.476,310.169 294.642,315.002 299.5,319C 297.586,320.413 296.253,322.247 295.5,324.5C 298.781,326.153 301.781,328.32 304.5,331C 302.597,332.447 300.93,334.114 299.5,336C 300.639,337.78 301.639,339.614 302.5,341.5 Z"/></g>
<g><path style="opacity:1" fill="#184496" d="M 163.5,297.5 C 163.744,289.07 161.077,281.57 155.5,275C 153.073,274.098 150.74,273.264 148.5,272.5C 160.925,270.794 170.425,275.461 177,286.5C 177.684,287.784 177.517,288.951 176.5,290C 171.845,291.993 167.511,294.493 163.5,297.5 Z"/></g>
<g><path style="opacity:1" fill="#154397" d="M 298.5,272.5 C 293.266,272.865 289.433,275.531 287,280.5C 285.211,286.172 284.044,291.839 283.5,297.5C 279.521,294.507 275.188,292.007 270.5,290C 269.483,288.951 269.316,287.784 270,286.5C 276.575,275.461 286.075,270.794 298.5,272.5 Z"/></g>
<g><path style="opacity:1" fill="#faf9f8" d="M 148.5,272.5 C 150.74,273.264 153.073,274.098 155.5,275C 161.077,281.57 163.744,289.07 163.5,297.5C 161.544,299.114 159.544,300.781 157.5,302.5C 146.349,294.73 143.349,284.73 148.5,272.5 Z"/></g>
<g><path style="opacity:1" fill="#faf9f8" d="M 298.5,272.5 C 303.771,284.703 300.771,294.703 289.5,302.5C 287.456,300.781 285.456,299.114 283.5,297.5C 284.044,291.839 285.211,286.172 287,280.5C 289.433,275.531 293.266,272.865 298.5,272.5 Z"/></g>
<g><path style="opacity:1" fill="#2f458c" d="M 235.5,278.5 C 231.981,277.192 228.315,277.192 224.5,278.5C 224.624,279.107 224.957,279.44 225.5,279.5C 229.95,281.138 234.617,281.971 239.5,282C 243.346,283.086 246.68,284.919 249.5,287.5C 248.833,287.5 248.167,287.5 247.5,287.5C 240.492,287.666 233.492,287.5 226.5,287C 224.231,285.276 221.897,285.276 219.5,287C 211.757,287.401 204.09,287.734 196.5,288C 198.657,286.088 200.991,284.421 203.5,283C 209.111,281.756 214.778,280.756 220.5,280C 220.833,279.667 221.167,279.333 221.5,279C 219,278.833 216.5,278.667 214,278.5C 209.374,278.605 204.874,279.105 200.5,280C 203.554,277.806 206.888,276.139 210.5,275C 218.833,274.333 227.167,274.333 235.5,275C 240.058,275.946 244.058,277.946 247.5,281C 243.582,280.191 239.582,279.357 235.5,278.5 Z"/></g>
<g><path style="opacity:1" fill="#5d5f5f" d="M 235.5,278.5 C 231.958,278.187 228.625,278.521 225.5,279.5C 224.957,279.44 224.624,279.107 224.5,278.5C 228.315,277.192 231.981,277.192 235.5,278.5 Z"/></g>
<g><path style="opacity:1" fill="#786851" d="M 247.5,287.5 C 248.167,287.5 248.833,287.5 249.5,287.5C 251.551,287.52 252.218,288.187 251.5,289.5C 249.974,289.006 248.641,288.339 247.5,287.5 Z"/></g>
<g><path style="opacity:1" fill="#1a4292" d="M 256.5,294.5 C 252.833,295.167 249.167,295.833 245.5,296.5C 240.456,296.173 235.456,296.506 230.5,297.5C 230.977,298.478 231.643,299.311 232.5,300C 226.5,300.667 220.5,300.667 214.5,300C 215.357,299.311 216.023,298.478 216.5,297.5C 210.872,296.505 205.206,296.171 199.5,296.5C 196.5,295.833 193.5,295.167 190.5,294.5C 192.637,293.213 194.97,292.379 197.5,292C 204.167,291.667 210.833,291.333 217.5,291C 219.615,290.443 221.615,289.609 223.5,288.5C 225.167,289.333 226.833,290.167 228.5,291C 238.082,290.774 247.415,291.94 256.5,294.5 Z"/></g>
<g><path style="opacity:1" fill="#69625a" d="M 190.5,294.5 C 193.5,295.167 196.5,295.833 199.5,296.5C 194.773,296.524 190.107,296.69 185.5,297C 187.193,296.153 188.86,295.32 190.5,294.5 Z"/></g>
<g><path style="opacity:1" fill="#585a67" d="M 256.5,294.5 C 258.14,295.32 259.807,296.153 261.5,297C 256.227,296.661 250.893,296.494 245.5,296.5C 249.167,295.833 252.833,295.167 256.5,294.5 Z"/></g>
<g><path style="opacity:1" fill="#2a5380" d="M 137.5,296.5 C 138.043,296.56 138.376,296.893 138.5,297.5C 104.823,297.837 71.4899,298.837 38.5,300.5C 37.596,299.791 37.2627,298.791 37.5,297.5C 71.0042,297.832 104.338,297.498 137.5,296.5 Z"/></g>
<g><path style="opacity:1" fill="#f8bd03" d="M 409.5,297.5 C 386.144,372.397 343.81,434.23 282.5,483C 263.82,497.341 244.32,510.508 224,522.5C 223.601,522.272 223.435,521.938 223.5,521.5C 223.5,512.167 223.5,502.833 223.5,493.5C 227.702,493.817 231.702,493.483 235.5,492.5C 236.167,492.5 236.5,492.167 236.5,491.5C 238.419,488.916 240.086,489.25 241.5,492.5C 245.459,493.66 249.459,493.827 253.5,493C 254.333,492.167 255.167,491.333 256,490.5C 256.667,482.167 256.667,473.833 256,465.5C 255.167,464.667 254.333,463.833 253.5,463C 249.5,462.333 245.5,462.333 241.5,463C 239.5,466.333 237.5,466.333 235.5,463C 231.514,462.501 227.514,462.334 223.5,462.5C 223.5,459.5 223.5,456.5 223.5,453.5C 230.284,453.92 236.95,453.42 243.5,452C 246.916,442.596 252.583,434.929 260.5,429C 271.147,425.181 279.147,418.347 284.5,408.5C 285.166,411.689 285.833,415.023 286.5,418.5C 287.107,418.376 287.44,418.043 287.5,417.5C 290.165,414.665 292.665,411.665 295,408.5C 301.856,395.375 304.856,381.375 304,366.5C 306.706,368.871 309.039,371.537 311,374.5C 314.233,360.755 311.733,348.088 303.5,336.5C 305.958,335.081 308.625,334.081 311.5,333.5C 309.471,329.304 306.304,326.304 302,324.5C 302.993,322.171 304.827,320.337 307.5,319C 304.705,317.207 302.205,315.04 300,312.5C 299.333,310.833 299.333,309.167 300,307.5C 303.204,304.631 306.037,301.465 308.5,298C 342.165,297.5 375.832,297.333 409.5,297.5 Z"/></g>
<g><path style="opacity:1" fill="#1d4698" d="M 177.5,305.5 C 177.297,311.313 177.13,317.313 177,323.5C 173.316,328.205 174.649,330.539 181,330.5C 181.833,330.167 182.667,329.833 183.5,329.5C 182.5,328.667 181.5,327.833 180.5,327C 187.566,327.352 194.233,329.352 200.5,333C 202.826,334.805 204.492,336.972 205.5,339.5C 206.571,346.688 204.737,353.021 200,358.5C 199.943,355.149 199.109,352.149 197.5,349.5C 194.951,347.237 192.117,345.237 189,343.5C 187.725,341.283 186.725,338.949 186,336.5C 182.37,333.774 181.037,334.774 182,339.5C 183.273,342.597 185.107,345.264 187.5,347.5C 184.606,346.118 182.106,344.118 180,341.5C 177.445,335.63 172.945,332.297 166.5,331.5C 172.045,325.086 173.878,317.752 172,309.5C 173.315,305.517 175.815,303.017 179.5,302C 178.177,302.816 177.511,303.983 177.5,305.5 Z"/></g>
<g><path style="opacity:1" fill="#ebeef2" d="M 177.5,305.5 C 178.45,309.413 180.783,312.08 184.5,313.5C 181.401,321.035 183.735,325.201 191.5,326C 186.937,323.041 184.937,318.874 185.5,313.5C 187.5,314.167 189.5,314.833 191.5,315.5C 189.796,320.001 190.963,323.667 195,326.5C 194.563,324.243 194.063,321.91 193.5,319.5C 195.228,321.226 197.228,322.559 199.5,323.5C 199.711,325.424 200.377,325.757 201.5,324.5C 203.086,325.148 204.753,325.648 206.5,326C 205.624,327.586 204.624,329.086 203.5,330.5C 204.933,333.333 205.6,336.333 205.5,339.5C 204.492,336.972 202.826,334.805 200.5,333C 194.233,329.352 187.566,327.352 180.5,327C 181.5,327.833 182.5,328.667 183.5,329.5C 182.667,329.833 181.833,330.167 181,330.5C 174.649,330.539 173.316,328.205 177,323.5C 177.13,317.313 177.297,311.313 177.5,305.5 Z"/></g>
<g><path style="opacity:1" fill="#ebedf1" d="M 269.5,305.5 C 270.147,306.274 270.48,307.274 270.5,308.5C 267.19,315.508 267.857,322.008 272.5,328C 269.626,329.919 266.626,330.419 263.5,329.5C 263.977,328.522 264.643,327.689 265.5,327C 255.009,326.75 247.009,330.917 241.5,339.5C 241.4,336.333 242.067,333.333 243.5,330.5C 242.376,329.086 241.376,327.586 240.5,326C 242.025,324.991 243.692,324.491 245.5,324.5C 246.623,325.757 247.289,325.424 247.5,323.5C 249.772,322.559 251.772,321.226 253.5,319.5C 250.309,327.501 251.142,328.168 256,321.5C 256.49,319.455 256.323,317.455 255.5,315.5C 257.5,314.833 259.5,314.167 261.5,313.5C 261.663,315.857 261.497,318.19 261,320.5C 259.167,322.333 257.333,324.167 255.5,326C 257.846,325.921 260.013,325.088 262,323.5C 262.498,320.183 262.665,316.85 262.5,313.5C 266.178,312.148 268.511,309.481 269.5,305.5 Z"/></g>
<g><path style="opacity:1" fill="#1e4799" d="M 261.5,346.5 C 261.062,346.565 260.728,346.399 260.5,346C 263.653,343.195 265.319,339.695 265.5,335.5C 264.127,335.343 262.793,335.51 261.5,336C 260.453,341.77 257.12,345.436 251.5,347C 250.29,348.039 249.29,349.206 248.5,350.5C 247.772,353.079 247.272,355.746 247,358.5C 242.639,352.914 240.805,346.581 241.5,339.5C 247.009,330.917 255.009,326.75 265.5,327C 264.643,327.689 263.977,328.522 263.5,329.5C 266.626,330.419 269.626,329.919 272.5,328C 267.857,322.008 267.19,315.508 270.5,308.5C 270.48,307.274 270.147,306.274 269.5,305.5C 269.489,303.983 268.823,302.816 267.5,302C 271.185,303.017 273.685,305.517 275,309.5C 273.122,317.752 274.955,325.086 280.5,331.5C 277.788,332.228 275.121,333.061 272.5,334C 269.404,338.708 265.738,342.875 261.5,346.5 Z"/></g>
<g><path style="opacity:1" fill="#4e576d" d="M 201.5,312.5 C 199.393,311.532 197.059,311.198 194.5,311.5C 197.695,310.764 201.029,310.097 204.5,309.5C 204.833,309.833 205.167,310.167 205.5,310.5C 204.234,311.362 202.901,312.029 201.5,312.5 Z"/></g>
<g><path style="opacity:1" fill="#505969" d="M 252.5,311.5 C 249.941,311.198 247.607,311.532 245.5,312.5C 244.244,312.539 243.244,312.039 242.5,311C 246.027,310.192 249.36,310.359 252.5,311.5 Z"/></g>
<g><path style="opacity:1" fill="#2c4f9b" d="M 194.5,311.5 C 197.059,311.198 199.393,311.532 201.5,312.5C 196.963,312.704 194.296,315.037 193.5,319.5C 194.063,321.91 194.563,324.243 195,326.5C 190.963,323.667 189.796,320.001 191.5,315.5C 192.026,313.77 193.026,312.436 194.5,311.5 Z"/></g>
<g><path style="opacity:1" fill="#2c509c" d="M 245.5,312.5 C 247.607,311.532 249.941,311.198 252.5,311.5C 253.974,312.436 254.974,313.77 255.5,315.5C 256.323,317.455 256.49,319.455 256,321.5C 251.142,328.168 250.309,327.501 253.5,319.5C 252.704,315.037 250.037,312.704 245.5,312.5 Z"/></g>
<g><path style="opacity:1" fill="#29478f" d="M 201.5,324.5 C 200.377,325.757 199.711,325.424 199.5,323.5C 199.247,321.173 199.914,319.173 201.5,317.5C 205.626,315.627 209.459,313.294 213,310.5C 212.432,314.752 209.932,317.586 205.5,319C 203.536,320.451 202.203,322.284 201.5,324.5 Z"/></g>
<g><path style="opacity:1" fill="#234791" d="M 247.5,323.5 C 247.289,325.424 246.623,325.757 245.5,324.5C 244.797,322.284 243.464,320.451 241.5,319C 237.068,317.586 234.568,314.752 234,310.5C 236.778,313.807 240.278,315.974 244.5,317C 246.919,318.509 247.919,320.675 247.5,323.5 Z"/></g>
<g><path style="opacity:1" fill="#3158a6" d="M 184.5,313.5 C 184.833,313.5 185.167,313.5 185.5,313.5C 184.937,318.874 186.937,323.041 191.5,326C 183.735,325.201 181.401,321.035 184.5,313.5 Z"/></g>
<g><path style="opacity:1" fill="#2e478a" d="M 218.5,317.5 C 219.447,323.293 217.28,327.959 212,331.5C 211.138,333.087 210.471,334.754 210,336.5C 207.78,331.277 208.114,326.277 211,321.5C 211.219,322.938 211.719,324.271 212.5,325.5C 215.471,323.557 217.471,320.891 218.5,317.5 Z"/></g>
<g><path style="opacity:1" fill="#2e4789" d="M 227.5,317.5 C 229.354,320.51 231.687,323.176 234.5,325.5C 235.298,323.922 235.798,322.256 236,320.5C 238.815,325.683 239.148,331.016 237,336.5C 235.865,332.359 233.531,329.025 230,326.5C 228.451,323.688 227.618,320.688 227.5,317.5 Z"/></g>
<g><path style="opacity:1" fill="#1a4b9f" d="M 261.5,313.5 C 261.833,313.5 262.167,313.5 262.5,313.5C 262.665,316.85 262.498,320.183 262,323.5C 260.013,325.088 257.846,325.921 255.5,326C 257.333,324.167 259.167,322.333 261,320.5C 261.497,318.19 261.663,315.857 261.5,313.5 Z"/></g>
<g><path style="opacity:1" fill="#26448f" d="M 157.5,358.5 C 156.833,355.5 156.167,352.5 155.5,349.5C 154.004,346.017 152.671,342.517 151.5,339C 152.581,327.426 158.248,319.426 168.5,315C 157.884,324.296 155.218,335.462 160.5,348.5C 160.408,352.224 159.408,355.558 157.5,358.5 Z"/></g>
<g><path style="opacity:1" fill="#2c468c" d="M 291.5,355.5 C 291.865,358.079 291.865,360.412 291.5,362.5C 290.488,361.128 289.488,359.795 288.5,358.5C 287.322,355.459 286.655,352.292 286.5,349C 291.865,335.792 289.198,324.459 278.5,315C 285.913,318.088 291.08,323.588 294,331.5C 296.506,337.285 295.84,342.618 292,347.5C 291.503,350.146 291.336,352.813 291.5,355.5 Z"/></g>
<g><path style="opacity:1" fill="#cdd7ea" d="M 188.5,332.5 C 189.822,332.33 190.989,332.663 192,333.5C 191.138,339.472 193.638,341.805 199.5,340.5C 199.281,339.325 199.614,338.325 200.5,337.5C 201.747,339.006 201.747,340.506 200.5,342C 192.725,344.088 188.725,340.921 188.5,332.5 Z"/></g>
<g><path style="opacity:1" fill="#d0daec" d="M 255.5,332.5 C 256.5,332.5 257.5,332.5 258.5,332.5C 258.517,339.985 254.85,343.485 247.5,343C 245.485,341.445 245.152,339.611 246.5,337.5C 247.386,338.325 247.719,339.325 247.5,340.5C 249.527,340.662 251.527,340.495 253.5,340C 254.22,337.509 254.887,335.009 255.5,332.5 Z"/></g>
<g><path style="opacity:1" fill="#e9ecf2" d="M 197.5,349.5 C 194.097,349.149 190.763,348.482 187.5,347.5C 185.107,345.264 183.273,342.597 182,339.5C 181.037,334.774 182.37,333.774 186,336.5C 186.725,338.949 187.725,341.283 189,343.5C 192.117,345.237 194.951,347.237 197.5,349.5 Z"/></g>
<g><path style="opacity:1" fill="#e8eaee" d="M 261.5,346.5 C 257.214,347.66 252.88,348.994 248.5,350.5C 249.29,349.206 250.29,348.039 251.5,347C 257.12,345.436 260.453,341.77 261.5,336C 262.793,335.51 264.127,335.343 265.5,335.5C 265.319,339.695 263.653,343.195 260.5,346C 260.728,346.399 261.062,346.565 261.5,346.5 Z"/></g>
<g><path style="opacity:1" fill="#7d6b4a" d="M 173.5,339.5 C 172.549,340.919 172.216,342.585 172.5,344.5C 171.207,342.636 171.207,340.636 172.5,338.5C 173.107,338.624 173.44,338.957 173.5,339.5 Z"/></g>
<g><path style="opacity:1" fill="#816d48" d="M 273.5,339.5 C 273.56,338.957 273.893,338.624 274.5,338.5C 275.793,340.636 275.793,342.636 274.5,344.5C 274.784,342.585 274.451,340.919 273.5,339.5 Z"/></g>
<g><path style="opacity:1" fill="#29458c" d="M 173.5,339.5 C 174.277,342.112 175.944,343.945 178.5,345C 176.64,349.151 177.64,352.484 181.5,355C 176.634,353.288 173.634,349.788 172.5,344.5C 172.216,342.585 172.549,340.919 173.5,339.5 Z"/></g>
<g><path style="opacity:1" fill="#2b468c" d="M 273.5,339.5 C 274.451,340.919 274.784,342.585 274.5,344.5C 273.366,349.788 270.366,353.288 265.5,355C 269.36,352.484 270.36,349.151 268.5,345C 271.056,343.945 272.723,342.112 273.5,339.5 Z"/></g>
<g><path style="opacity:1" fill="#f4f5f8" d="M 144.5,341.5 C 144.336,344.187 144.503,346.854 145,349.5C 149.774,349.413 153.274,351.413 155.5,355.5C 155.135,358.079 155.135,360.412 155.5,362.5C 157.044,362.297 158.378,361.63 159.5,360.5C 161.38,364.892 160.38,368.392 156.5,371C 156.728,371.399 157.062,371.565 157.5,371.5C 156.737,372.268 155.737,372.768 154.5,373C 157.232,376.904 160.899,379.404 165.5,380.5C 163.31,382.856 161.31,385.356 159.5,388C 164.025,386.969 168.358,387.635 172.5,390C 169.868,392.066 169.201,394.566 170.5,397.5C 172.972,396.234 175.306,396.234 177.5,397.5C 175.833,397.5 174.167,397.5 172.5,397.5C 175.16,407.312 181.66,412.646 192,413.5C 193.376,413.316 194.209,412.649 194.5,411.5C 198.621,419.741 202.787,428.075 207,436.5C 207.561,437.022 208.228,437.355 209,437.5C 219.155,436.5 229.321,436.333 239.5,437C 244.006,428.486 248.34,419.986 252.5,411.5C 259.407,413.372 265.573,411.372 271,405.5C 272.845,403.133 274.011,400.467 274.5,397.5C 275.5,397.5 276.5,397.5 277.5,397.5C 277.747,394.495 276.747,391.995 274.5,390C 275.328,389.085 276.328,388.419 277.5,388C 280.877,387.631 284.21,387.631 287.5,388C 285.69,385.356 283.69,382.856 281.5,380.5C 285.851,378.992 289.517,376.492 292.5,373C 291.263,372.768 290.263,372.268 289.5,371.5C 289.938,371.565 290.272,371.399 290.5,371C 286.619,368.348 285.619,364.848 287.5,360.5C 288.622,361.63 289.956,362.297 291.5,362.5C 291.865,360.412 291.865,358.079 291.5,355.5C 292.596,353.897 293.93,352.397 295.5,351C 301.797,350.939 304.13,347.772 302.5,341.5C 306.201,347.306 307.534,353.64 306.5,360.5C 304.046,358.19 301.212,356.523 298,355.5C 298.464,364.142 298.464,372.808 298,381.5C 297.316,389.924 294.65,397.59 290,404.5C 289.258,401.343 287.758,398.677 285.5,396.5C 282.854,402.458 279.688,408.124 276,413.5C 269.265,419.455 261.765,424.288 253.5,428C 248.169,432.998 244.003,438.831 241,445.5C 239.174,447.074 237.007,447.907 234.5,448C 225.833,448.667 217.167,448.667 208.5,448C 204.322,441.311 199.655,434.978 194.5,429C 189.458,425.479 184.125,422.479 178.5,420C 169.907,414 164.407,405.833 162,395.5C 159.661,398.176 157.828,401.176 156.5,404.5C 152.47,397.728 149.97,390.395 149,382.5C 148.284,373.473 148.451,364.473 149.5,355.5C 145.797,355.862 142.797,357.529 140.5,360.5C 139.466,353.64 140.799,347.306 144.5,341.5 Z"/></g>
<g><path style="opacity:1" fill="#66615c" d="M 282.5,344.5 C 281.833,346.5 281.167,348.5 280.5,350.5C 280.335,347.482 280.502,344.482 281,341.5C 282.039,342.244 282.539,343.244 282.5,344.5 Z"/></g>
<g><path style="opacity:1" fill="#344a84" d="M 216.5,342.5 C 217.965,345.655 217.299,348.489 214.5,351C 213.167,351.667 211.833,351.667 210.5,351C 213.49,348.847 215.49,346.013 216.5,342.5 Z"/></g>
<g><path style="opacity:1" fill="#324985" d="M 229.5,342.5 C 231.273,345.775 233.607,348.609 236.5,351C 234.299,351.825 232.466,351.325 231,349.5C 229.798,347.323 229.298,344.989 229.5,342.5 Z"/></g>
<g><path style="opacity:1" fill="#184599" d="M 176.5,366.5 C 171.192,368.309 169.025,371.975 170,377.5C 173.028,383.361 177.528,387.694 183.5,390.5C 183.833,390 184.167,389.5 184.5,389C 185.563,381.759 182.563,377.759 175.5,377C 178.353,375.192 181.353,375.025 184.5,376.5C 186.859,373.149 189.192,369.815 191.5,366.5C 192.043,366.56 192.376,366.893 192.5,367.5C 189.552,371.044 188.052,375.044 188,379.5C 191.801,384.96 196.968,388.46 203.5,390C 201.866,390.494 200.199,390.66 198.5,390.5C 195.557,390.353 192.724,389.687 190,388.5C 188.623,389.036 188.623,390.036 190,391.5C 198.373,402.186 208.706,404.852 221,399.5C 221.801,396.633 221.634,393.966 220.5,391.5C 215.16,387.066 209.66,382.732 204,378.5C 203.244,376.191 203.744,374.191 205.5,372.5C 207.021,373.937 208.855,374.604 211,374.5C 218.663,373.211 226.33,373.211 234,374.5C 236.923,374.955 239.09,373.955 240.5,371.5C 243.014,373.218 243.847,375.551 243,378.5C 237.313,382.697 231.813,387.03 226.5,391.5C 223.748,399.376 226.748,403.043 235.5,402.5C 245.522,401.972 253.188,397.472 258.5,389C 255.122,388.952 251.789,389.452 248.5,390.5C 246.473,390.662 244.473,390.495 242.5,390C 246.719,388.891 250.719,387.225 254.5,385C 259.717,379.275 259.717,373.442 254.5,367.5C 254.97,366.537 255.637,366.537 256.5,367.5C 258.032,370.057 259.699,372.557 261.5,375C 265.028,375.089 268.362,375.756 271.5,377C 268.387,376.947 265.887,378.114 264,380.5C 263.788,383.758 263.288,386.924 262.5,390C 269.068,388.116 273.901,383.95 277,377.5C 277.975,371.975 275.808,368.309 270.5,366.5C 275.843,362.477 279.176,357.144 280.5,350.5C 281.167,348.5 281.833,346.5 282.5,344.5C 283.234,345.708 283.567,347.041 283.5,348.5C 283.521,354.281 283.021,359.948 282,365.5C 283.48,368.817 285.98,370.817 289.5,371.5C 290.263,372.268 291.263,372.768 292.5,373C 289.517,376.492 285.851,378.992 281.5,380.5C 283.69,382.856 285.69,385.356 287.5,388C 284.21,387.631 280.877,387.631 277.5,388C 276.328,388.419 275.328,389.085 274.5,390C 276.747,391.995 277.747,394.495 277.5,397.5C 276.5,397.5 275.5,397.5 274.5,397.5C 263.082,396.188 255.748,400.855 252.5,411.5C 248.34,419.986 244.006,428.486 239.5,437C 229.321,436.333 219.155,436.5 209,437.5C 208.228,437.355 207.561,437.022 207,436.5C 202.787,428.075 198.621,419.741 194.5,411.5C 192.519,402.53 186.852,397.863 177.5,397.5C 175.306,396.234 172.972,396.234 170.5,397.5C 169.201,394.566 169.868,392.066 172.5,390C 168.358,387.635 164.025,386.969 159.5,388C 161.31,385.356 163.31,382.856 165.5,380.5C 160.899,379.404 157.232,376.904 154.5,373C 155.737,372.768 156.737,372.268 157.5,371.5C 162.006,370.492 164.673,367.658 165.5,363C 161.45,355.762 161.617,348.596 166,341.5C 164.733,351.875 168.233,360.208 176.5,366.5 Z"/></g>
<g><path style="opacity:1" fill="#4e5774" d="M 155.5,349.5 C 156.167,352.5 156.833,355.5 157.5,358.5C 157.267,360.062 156.6,361.395 155.5,362.5C 155.135,360.412 155.135,358.079 155.5,355.5C 155.5,353.5 155.5,351.5 155.5,349.5 Z"/></g>
<g><path style="opacity:1" fill="#d79435" d="M 283.5,348.5 C 284.479,351.625 284.813,354.958 284.5,358.5C 285.833,358.5 287.167,358.5 288.5,358.5C 289.488,359.795 290.488,361.128 291.5,362.5C 289.956,362.297 288.622,361.63 287.5,360.5C 285.619,364.848 286.619,368.348 290.5,371C 290.272,371.399 289.938,371.565 289.5,371.5C 285.98,370.817 283.48,368.817 282,365.5C 283.021,359.948 283.521,354.281 283.5,348.5 Z"/></g>
<g><path style="opacity:1" fill="#f2f5f9" d="M 176.5,366.5 C 181.469,367.783 186.469,367.783 191.5,366.5C 189.192,369.815 186.859,373.149 184.5,376.5C 181.353,375.025 178.353,375.192 175.5,377C 182.563,377.759 185.563,381.759 184.5,389C 184.167,389.5 183.833,390 183.5,390.5C 177.528,387.694 173.028,383.361 170,377.5C 169.025,371.975 171.192,368.309 176.5,366.5 Z"/></g>
<g><path style="opacity:1" fill="#f4f6fa" d="M 270.5,366.5 C 275.808,368.309 277.975,371.975 277,377.5C 273.901,383.95 269.068,388.116 262.5,390C 263.288,386.924 263.788,383.758 264,380.5C 265.887,378.114 268.387,376.947 271.5,377C 268.362,375.756 265.028,375.089 261.5,375C 259.699,372.557 258.032,370.057 256.5,367.5C 261.263,367.774 265.93,367.441 270.5,366.5 Z"/></g>
<g><path style="opacity:1" fill="#f2f4f7" d="M 198.5,390.5 C 204.825,394.287 211.658,395.287 219,393.5C 220.03,393.164 220.53,392.497 220.5,391.5C 221.634,393.966 221.801,396.633 221,399.5C 208.706,404.852 198.373,402.186 190,391.5C 188.623,390.036 188.623,389.036 190,388.5C 192.724,389.687 195.557,390.353 198.5,390.5 Z"/></g>
<g><path style="opacity:1" fill="#f3f4f7" d="M 226.5,391.5 C 226.414,392.496 226.748,393.329 227.5,394C 235.002,395.189 242.002,394.023 248.5,390.5C 251.789,389.452 255.122,388.952 258.5,389C 253.188,397.472 245.522,401.972 235.5,402.5C 226.748,403.043 223.748,399.376 226.5,391.5 Z"/></g>
<g><path style="opacity:1" fill="#ee9813" d="M 177.5,397.5 C 186.852,397.863 192.519,402.53 194.5,411.5C 194.209,412.649 193.376,413.316 192,413.5C 181.66,412.646 175.16,407.312 172.5,397.5C 174.167,397.5 175.833,397.5 177.5,397.5 Z"/></g>
<g><path style="opacity:1" fill="#ee9810" d="M 274.5,397.5 C 274.011,400.467 272.845,403.133 271,405.5C 265.573,411.372 259.407,413.372 252.5,411.5C 255.748,400.855 263.082,396.188 274.5,397.5 Z"/></g>
<g><path style="opacity:1" fill="#f4f6fa" d="M 199.5,405.5 C 202.254,405.784 204.92,406.451 207.5,407.5C 205.424,411.23 204.257,415.23 204,419.5C 201.594,415.114 200.094,410.448 199.5,405.5 Z"/></g>
<g><path style="opacity:1" fill="#eaeff6" d="M 245.5,404.5 C 246.675,404.281 247.675,404.614 248.5,405.5C 246.964,410.274 245.13,414.941 243,419.5C 242.743,415.23 241.576,411.23 239.5,407.5C 241.594,406.482 243.594,405.482 245.5,404.5 Z"/></g>
<g><path style="opacity:1" fill="#a18f38" d="M 284.5,408.5 C 284.56,407.957 284.893,407.624 285.5,407.5C 286.167,410.977 286.834,414.311 287.5,417.5C 287.44,418.043 287.107,418.376 286.5,418.5C 285.833,415.023 285.166,411.689 284.5,408.5 Z"/></g>
<g><path style="opacity:1" fill="#e7ecf5" d="M 207.5,424.5 C 208.771,426.109 209.771,427.942 210.5,430C 211.667,430.167 212.833,430.333 214,430.5C 221.484,430.09 228.984,429.923 236.5,430C 237.329,428.184 238.163,426.351 239,424.5C 239.543,427.868 239.376,431.201 238.5,434.5C 228.493,433.195 218.493,433.195 208.5,434.5C 207.793,431.214 207.46,427.881 207.5,424.5 Z"/></g>
<g><path style="opacity:1" fill="#eef1f7" d="M 195.5,464.5 C 197.167,464.5 198.833,464.5 200.5,464.5C 200.5,473.167 200.5,481.833 200.5,490.5C 199.167,490.5 197.833,490.5 196.5,490.5C 196.987,482.872 196.32,475.372 194.5,468C 194.648,466.744 194.982,465.577 195.5,464.5 Z"/></g>
<g><path style="opacity:1" fill="#f1f4f9" d="M 209.5,482.5 C 209.5,483.833 209.5,485.167 209.5,486.5C 211.167,486.5 212.833,486.5 214.5,486.5C 214.5,484.167 214.5,481.833 214.5,479.5C 212.167,479.5 209.833,479.5 207.5,479.5C 206.883,479.389 206.383,479.056 206,478.5C 205.333,474.5 205.333,470.5 206,466.5C 209.744,465.374 213.577,465.207 217.5,466C 218.647,473.42 218.813,480.92 218,488.5C 214.817,490.523 211.317,491.023 207.5,490C 205.722,487.865 205.055,485.365 205.5,482.5C 206.833,482.5 208.167,482.5 209.5,482.5 Z"/></g>
<g><path style="opacity:1" fill="#e9eef6" d="M 234.5,490.5 C 230.894,490.789 227.394,490.456 224,489.5C 224.53,481.797 224.363,474.13 223.5,466.5C 235.332,462.541 238.999,466.207 234.5,477.5C 237.16,481.865 237.16,486.199 234.5,490.5 Z"/></g>
<g><path style="opacity:1" fill="#214a9a" d="M 223.5,462.5 C 227.514,462.334 231.514,462.501 235.5,463C 237.5,466.333 239.5,466.333 241.5,463C 245.5,462.333 249.5,462.333 253.5,463C 254.333,463.833 255.167,464.667 256,465.5C 256.667,473.833 256.667,482.167 256,490.5C 255.167,491.333 254.333,492.167 253.5,493C 249.459,493.827 245.459,493.66 241.5,492.5C 240.086,489.25 238.419,488.916 236.5,491.5C 236.158,490.662 235.492,490.328 234.5,490.5C 237.16,486.199 237.16,481.865 234.5,477.5C 238.999,466.207 235.332,462.541 223.5,466.5C 223.5,465.167 223.5,463.833 223.5,462.5 Z"/></g>
<g><path style="opacity:1" fill="#eaeef6" d="M 242.5,465.5 C 246.106,465.211 249.606,465.544 253,466.5C 252.983,472.409 253.15,478.243 253.5,484C 253.464,486.094 253.131,488.094 252.5,490C 249.167,490.667 245.833,490.667 242.5,490C 241.565,487.619 241.232,485.119 241.5,482.5C 242.833,482.5 244.167,482.5 245.5,482.5C 245.5,483.833 245.5,485.167 245.5,486.5C 246.833,486.5 248.167,486.5 249.5,486.5C 249.5,484.5 249.5,482.5 249.5,480.5C 248.167,480.5 246.833,480.5 245.5,480.5C 245.5,478.833 245.5,477.167 245.5,475.5C 246.833,475.5 248.167,475.5 249.5,475.5C 249.5,473.5 249.5,471.5 249.5,469.5C 248.167,469.5 246.833,469.5 245.5,469.5C 245.5,470.833 245.5,472.167 245.5,473.5C 243.833,473.5 242.167,473.5 240.5,473.5C 240.132,470.467 240.798,467.8 242.5,465.5 Z"/></g>
<g><path style="opacity:1" fill="#13489d" d="M 227.5,469.5 C 228.833,469.5 230.167,469.5 231.5,469.5C 231.5,471.5 231.5,473.5 231.5,475.5C 230.167,475.5 228.833,475.5 227.5,475.5C 227.5,473.5 227.5,471.5 227.5,469.5 Z"/></g>
<g><path style="opacity:1" fill="#91a9d1" d="M 210.5,469.5 C 210.5,471.5 210.5,473.5 210.5,475.5C 211.5,475.5 212.5,475.5 213.5,475.5C 213.5,473.5 213.5,471.5 213.5,469.5C 214.468,471.607 214.802,473.941 214.5,476.5C 212.833,476.5 211.167,476.5 209.5,476.5C 209.198,473.941 209.532,471.607 210.5,469.5 Z"/></g>
<g><path style="opacity:1" fill="#034099" d="M 210.5,469.5 C 211.5,469.5 212.5,469.5 213.5,469.5C 213.5,471.5 213.5,473.5 213.5,475.5C 212.5,475.5 211.5,475.5 210.5,475.5C 210.5,473.5 210.5,471.5 210.5,469.5 Z"/></g>
<g><path style="opacity:1" fill="#678bc1" d="M 207.5,479.5 C 209.833,479.5 212.167,479.5 214.5,479.5C 214.5,481.833 214.5,484.167 214.5,486.5C 212.833,486.5 211.167,486.5 209.5,486.5C 209.5,485.167 209.5,483.833 209.5,482.5C 210.404,483.209 210.737,484.209 210.5,485.5C 211.5,485.5 212.5,485.5 213.5,485.5C 213.5,483.833 213.5,482.167 213.5,480.5C 211.265,480.795 209.265,480.461 207.5,479.5 Z"/></g>
<g><path style="opacity:1" fill="#1f4b9f" d="M 227.5,479.5 C 228.833,479.5 230.167,479.5 231.5,479.5C 231.5,481.833 231.5,484.167 231.5,486.5C 230.167,486.5 228.833,486.5 227.5,486.5C 227.5,484.167 227.5,481.833 227.5,479.5 Z"/></g>
<g><path style="opacity:1" fill="#34577a" d="M 235.5,492.5 C 231.702,493.483 227.702,493.817 223.5,493.5C 223.5,502.833 223.5,512.167 223.5,521.5C 223.167,521.5 222.833,521.5 222.5,521.5C 222.5,511.833 222.5,502.167 222.5,492.5C 226.833,492.5 231.167,492.5 235.5,492.5 Z"/></g>
</svg>
