<?xml version="1.0" encoding="utf-8"?>
<!-- Generator: Adobe Illustrator 23.0.3, SVG Export Plug-In . SVG Version: 6.00 Build 0)  -->
<svg version="1.1" id="Layer_1" xmlns="http://www.w3.org/2000/svg" xmlns:xlink="http://www.w3.org/1999/xlink" x="0px" y="0px"
	 viewBox="0 0 372.2 405.2" style="enable-background:new 0 0 372.2 405.2;" xml:space="preserve">
<style type="text/css">
	.st0{fill:#3770B7;}
	.st1{fill:#233974;}
	.st2{fill:#FFFFFF;}
</style>
<g>
	<path class="st0" d="M116.5,221.5c-0.8-0.2-7.4,2-7.4,2l-30.8,14.1c-8.4,3.3-10.6-1-10.6-1c-4.1-8,2.9-10.7,2.9-10.7l60.3-28.7
		l37.8-66.5c7.7-11.2,4.4-10.9,4.4-10.9c-0.8-1.4-9.5,2.6-9.5,2.6l-79.7,34.6c-10.2,4.4-11.3,0.3-11.3,0.3c-2-2.8,1.1-7.7,1.1-7.7
		c1.3-3.3,16-11,16-11s49-25.3,105.4-48.3C242.4,70.9,314.1,50.6,336,44.6v-8.8H40.2v187.8c0,0-2.9,52,23.2,96.6l50.2-90.8
		C118.1,221.1,116.5,221.5,116.5,221.5z"/>
	<path class="st1" d="M222.3,99.1c-12.6,4.1-24.4,21.2-24.4,21.2l-35.5,55.6c-4.6,6.5-3.1,7.9-3.1,7.9c1.8,2.1,6.5,0.1,8.3-0.8
		c0.5-0.3,1.1-0.5,1.6-0.7l17.8-7c5.1-2,54.8-18.3,63.1-21.1c0.8-0.3,1.5-0.5,2.3-0.6c18.2-3.5,18.8,5.5,18.8,5.5
		c1.2,7.9-6.8,13.4-11.1,15.8c-1.4,0.8-3,1.4-4.5,1.8l-35.1,9.6c-10.3,2.3-69.8,22.9-69.8,22.9c-5.8,2.1-7.9,7.6-7.9,7.6L84.8,347.5
		c21.4,20.6,52.9,35.3,99.5,35.3c0,0,151.7,9.1,151.7-171.8V71.6c-14.8,2.5-54.6,10.9-54.6,10.9C266.8,85.9,222.3,99.1,222.3,99.1z"
		/>
	<path class="st2" d="M195.1,90.2c-56.4,23-105.4,48.3-105.4,48.3s-14.7,7.7-16,11c0,0-3.1,4.9-1.1,7.7c0,0,1,4.1,11.3-0.3
		l79.7-34.6c0,0,8.7-4,9.5-2.6c0,0,3.3-0.2-4.4,10.9l-37.8,66.5l-60.3,28.7c0,0-7,2.7-2.9,10.7c0,0,2.2,4.3,10.6,1l30.8-14.1
		c0,0,6.6-2.2,7.4-2c0,0,1.6-0.3-2.8,7.9l-50.2,90.8c5.7,9.7,12.7,19,21.4,27.4L142.6,217c0,0,2.1-5.6,7.9-7.6
		c0,0,59.5-20.6,69.8-22.9l35.1-9.6c1.6-0.4,3.1-1,4.5-1.8c4.3-2.4,12.3-7.9,11.1-15.8c0,0-0.5-9.1-18.8-5.5
		c-0.8,0.2-1.6,0.4-2.3,0.6c-8.2,2.7-57.9,19.1-63.1,21.1l-17.8,7c-0.5,0.2-1.1,0.4-1.6,0.7c-1.7,0.8-6.5,2.9-8.3,0.8
		c0,0-1.6-1.4,3.1-7.9l35.5-55.6c0,0,11.8-17.2,24.4-21.2c0,0,44.5-13.2,59.2-16.5c0,0,39.7-8.4,54.6-10.9V44.6
		C314.1,50.6,242.4,70.9,195.1,90.2z"/>
</g>
</svg>
