<?xml version="1.0" encoding="utf-8"?>
<!-- Generator: Adobe Illustrator 28.3.0, SVG Export Plug-In . SVG Version: 6.00 Build 0)  -->
<svg version="1.1"
	 id="Layer_1" xmlns:dc="http://purl.org/dc/elements/1.1/" xmlns:cc="http://creativecommons.org/ns#" xmlns:rdf="http://www.w3.org/1999/02/22-rdf-syntax-ns#"
	 xmlns="http://www.w3.org/2000/svg" xmlns:xlink="http://www.w3.org/1999/xlink" x="0px" y="0px" viewBox="0 0 300 300"
	 style="enable-background:new 0 0 300 300;" xml:space="preserve">
<style type="text/css">
	.st0{fill:#070A0B;}
	.st1{fill:#29A2DA;}
	.st2{fill:#FBFBFB;}
</style>
<g>
	<path class="st0" d="M15.6,57c0-17.8,0.1-35.6-0.1-53.4c0-3.3,1-3.7,3.9-3.7C57.3,0,95.2,0,133.1,0c-0.1,17-0.3,34,0,51
		c0.1,4.8-1.5,5.8-5.8,5.6c-5.3-0.4-10.6,0.1-15.9-0.2c-3.1-0.1-3.9,0.9-3.9,4c0.2,14.3,0.1,28.7,0.1,43c0,1.1-0.5,2.4,1,3.3
		c17.9-8.8,35.9-17.6,53.8-26.5c9.1-4.5,18.1-9.1,27.3-13.3c4.5-2,2.7-5.6,2.7-8.6c0-3.2-3-1.7-4.7-1.8c-5-0.2-10-0.3-14.9,0
		c-4.3,0.3-5.9-0.7-5.8-5.5c0.3-17,0-34,0-51c39.2,0,78.3,0,117.5,0c0,17.3-0.2,34.6,0,51.9c0.1,3.9-1.1,4.8-4.7,4.6
		c-5.3-0.3-10.6,0.2-15.9-0.2c-4-0.3-5,1-4.9,5c0.1,38.1,0.1,76.3,0.1,114.4c0,14.7-0.7,29.3-3.4,43.7c-3.7,20-10.1,38.7-25.1,53.1
		c-12.9,12.5-28.8,19.2-46,23.4c-6.5,1.6-13,2.7-19.6,4c-10.6,0-21.2,0-31.9,0c-0.4-1.3-1.5-1-2.4-1.1c-6.5-1.3-13.1-2.3-19.4-4
		c-33.6-9-56.1-29.4-64.4-64.2c-3.1-13-5-26.1-5.3-39.5c-1-42.8-0.2-85.6-0.4-128.3c0-1.3-0.1-2.7,0-4c0.1-1.6-0.5-2.6-2.2-2.5
		C31,56.8,23.3,55.7,15.6,57z M253.4,148.6c0-13.5-0.1-27,0.1-40.5c0-3.8-0.6-4.6-4.2-2.8c-15.9,8-31.8,15.8-47.8,23.5
		c-2.6,1.2-3.6,2.7-3.6,5.6c0.2,12.5,0.2,25,0,37.5c-0.2,16.6-1.6,33-9,48.2c-7.7,15.9-20.7,23-38.1,23.2
		c-17.9,0.2-31.5-6.6-39.7-23c-6-12-7.8-25-8.6-38.2c-0.2-3.2-0.5-4.5-4.1-2.7c-15.7,7.9-31.5,15.7-47.3,23.3
		c-2.4,1.2-3.1,2.5-2.8,5c1.1,9.3,2.9,18.4,5.5,27.4c7.1,23.9,22.1,40.7,45.3,49.7c33.8,13.1,67.7,13.1,101.5,0.1
		c22.4-8.7,37.5-24.6,44.8-47.7c2.3-7.2,3.9-14.5,5.2-21.9C254.3,193.2,253.3,170.9,253.4,148.6z M74.3,5.6c-16.3,0-32.5,0-48.8,0
		c-2.6,0-4.3,0-4.3,3.6c0.2,12.8,0.1,25.7,0,38.5c0,2.7,1,3.4,3.5,3.3c5.5-0.1,11,0.2,16.4-0.1c4.2-0.3,5.6,0.7,5.6,5.4
		c-0.3,25.3,0,50.7-0.2,76c0,4.3,0.9,4.8,4.6,2.9c15.9-8,31.8-15.8,47.8-23.5c2.5-1.2,3.2-2.7,3.2-5.3c-0.1-16.8,0-33.7-0.1-50.5
		c0-3.5,0.5-5.2,4.5-4.9c5.6,0.4,11.3-0.1,16.9,0.2c3.1,0.1,4-0.8,3.9-3.9c-0.2-12.3-0.2-24.7,0-37c0.1-4-1.3-4.6-4.8-4.6
		C106.5,5.7,90.4,5.6,74.3,5.6z M47.5,197.8c1.4,0.5,2.1-0.4,3-0.8c66.6-32.7,133.2-65.5,199.9-98.2c3.6-1.8,3.4-3.7,1.9-6.7
		c-6-12.2-12.1-24.4-17.8-36.8c-1.4-2.9-2.4-3.3-5.4-1.9C170.8,82.3,112.6,111,54.1,139.4c-6.1,2.9-8,6.2-7.7,12.7
		C47.2,167.3,45.9,182.6,47.5,197.8z M192.5,134.3c-0.7-0.1-0.9-0.2-1-0.1c-27.3,13.3-54.5,26.6-81.8,39.9c-1.6,0.8-2,1.9-1.9,3.6
		c0.6,13,2,25.9,7.3,38c4.4,10.1,11.2,17.9,22.2,20.5c24.2,5.7,43.1-2.3,50.5-28.1C194.7,183.8,191.9,158.9,192.5,134.3z
		 M252.5,80.1c0.3-0.1,0.6-0.2,0.9-0.3c0-7.7,0.4-15.3-0.1-22.9c-0.4-5.4,1.6-6.5,6.3-6.1c5.3,0.4,10.6,0,15.9,0.1
		c2.3,0.1,3.2-0.6,3.2-3.1c-0.1-13-0.1-26,0-39c0-2.7-1-3.4-3.5-3.4c-33,0.1-66,0.1-99,0c-2.8,0-3.7,0.9-3.6,3.7
		c0.1,12.7,0.2,25.3,0,38c0,3.3,1.2,3.9,4.1,3.8c5.6-0.2,11.3,0.2,16.9-0.1c3.5-0.2,4.9,1,4.3,4.5c-0.1,1,0.1,2,0,3
		c-0.4,3.7,0.6,4.4,4,2.6c9.6-4.9,19.4-9.4,28.9-14.5c3.7-2,4.9-1,6.5,2.4C242.2,59.4,247.4,69.7,252.5,80.1z"/>
	<path class="st1" d="M253.4,148.6c-0.2,22.3,0.9,44.7-2.7,66.8c-1.2,7.4-2.9,14.7-5.2,21.9c-7.4,23.1-22.4,39-44.8,47.7
		c-33.8,13-67.8,13-101.5-0.1c-23.2-9-38.2-25.8-45.3-49.7c-2.7-9-4.4-18.1-5.5-27.4c-0.3-2.5,0.4-3.9,2.8-5
		c15.8-7.7,31.6-15.4,47.3-23.3c3.6-1.8,3.9-0.5,4.1,2.7c0.8,13.2,2.7,26.2,8.6,38.2c8.2,16.4,21.8,23.2,39.7,23
		c17.4-0.2,30.4-7.3,38.1-23.2c7.4-15.2,8.7-31.6,9-48.2c0.2-12.5,0.1-25,0-37.5c0-3,1-4.4,3.6-5.6c16-7.7,31.9-15.6,47.8-23.5
		c3.6-1.8,4.3-1,4.2,2.8C253.3,121.6,253.4,135.1,253.4,148.6z"/>
	<path class="st1" d="M74.3,5.6c16.1,0,32.2,0.1,48.3-0.1c3.5,0,4.9,0.6,4.8,4.6c-0.3,12.3-0.2,24.7,0,37c0,3.1-0.9,4-3.9,3.9
		c-5.6-0.2-11.3,0.2-16.9-0.2c-4-0.3-4.5,1.4-4.5,4.9c0.2,16.8,0,33.7,0.1,50.5c0,2.7-0.7,4.1-3.2,5.3c-16,7.7-31.9,15.5-47.8,23.5
		c-3.7,1.9-4.6,1.4-4.6-2.9c0.2-25.3-0.1-50.7,0.2-76c0-4.6-1.4-5.6-5.6-5.4c-5.5,0.4-10.9,0-16.4,0.1c-2.5,0.1-3.5-0.6-3.5-3.3
		c0.1-12.8,0.2-25.7,0-38.5c-0.1-3.5,1.7-3.6,4.3-3.6C41.8,5.6,58,5.6,74.3,5.6z"/>
	<path class="st2" d="M47.5,197.8c-1.6-15.1-0.3-30.5-1-45.7c-0.3-6.5,1.6-9.7,7.7-12.7c58.4-28.4,116.7-57.1,174.9-85.9
		c3-1.5,4-1.1,5.4,1.9c5.8,12.3,11.8,24.5,17.8,36.8c1.5,3,1.7,4.9-1.9,6.7c-66.7,32.7-133.3,65.4-199.9,98.2
		C49.6,197.4,48.9,198.2,47.5,197.8z M128.3,131.5c-0.4,3.2-1.6,5.9-2.9,8.7c-1.1,2.4-2,6.3-4.7,5.5c-3.2-0.9-0.4-4.3-0.2-6.6
		c0.3-2.9-0.8-5.3-2.6-6.7c-1.8-1.4-4.1,0.3-5.7,1.8c-2.3,2.2-4.9,4.3-6.3,7c-2.6,5-6.4,9.1-8.9,14c-2.4,4.6-5.1,9-8.7,12.7
		c-2.2,2.3-4.6,4.8-8.1,3.7c-3.7-1.2-4.4-4.7-4.7-8.1c-0.8-8.8,2.5-16.7,6.3-24.3c1.5-3.1,3.9-8.5,6.9-6.9c2.7,1.5-0.5,6.9-1.5,10.5
		c-0.1,0.3-0.2,0.7-0.5,0.9c-3.9,1.9-4.1,6.2-5.7,9.5c-0.9,1.8-1.3,4,0.9,5.3c2.3,1.3,3.8-0.6,4.9-2.1c4.5-5.8,7-12.4,7.8-19.7
		c0.4-3.6,0.7-7.4-3-9.2c-4-2-7,0.9-9.4,3.7c-7.1,8.4-11.8,18-13.8,28.9c-0.6,3.1-0.7,6.3-0.1,9.5c1.6,9,9,12.3,16.7,7.4
		c5-3.2,8.4-8,11.2-13.2c1.9-3.6,3.6-7.4,5.4-11.2c4.8,6.6,7.8,6.5,11.5-0.4c0.8-1.5,1-3.4,2.8-4.4c0.5,2.3,0,5.3,3,5.8
		c2.8,0.5,3.8-2.2,5.1-4.1c1.3-2,2.4-4.2,3.7-6.5c3,5.8,5.9,6.1,9.5,1.1c1.5-2,2.5-4.3,3.7-6.5c0.7-1.4,0.8-2.9,2.9-1
		c3.5,3.2,7.2,2.1,9.4-1.4c2.3-3.8,5.8-6.2,8.3-9.7c6,6.2,8.1,5.3,15-6.7c2.4,3,5.1,5.1,8.6,2c2.8-2.4,3.8-6,5.2-9.3
		c5.6,4.5,9.1,4.1,13.2-1.3c1-1.3,1.8-2.8,2.6-4.3c0.7-1.2,1.1-2.3,2.9-1.1c3.7,2.7,6.1,0.9,7.7-2.7c0.8-1.8,1.8-3.5,2.9-5.7
		c0.4,1,0.7,1.6,0.9,2.2c0.4,1.6,0.5,3.4,2.7,3.7c2,0.3,3-1.1,4-2.4c2-2.9,3.6-6,4.9-9.2c0.4-0.9,0.4-1.8-0.3-2.3
		c-0.9-0.6-1.4,0.3-1.9,1c-1.5,2.1-2.4,6.2-5.1,5.1c-2.6-1.1,0-4.7,0.1-7.2c0.1-2.4-1-4.6-2.5-5.9c-1.7-1.5-3.8,0-5.3,1.3
		c-5.2,4.3-9.4,9.4-11,16.2c-0.8,3.5-3,6.3-5.5,8.7c-1.5,1.4-3.3,2.3-5.4,1.5c-1.1-0.4-1.6-1.4-1.2-2.4c0.8-2.3,1.4-5.8,3.7-5.9
		c5.4-0.1,4.4-4,4.6-6.9c0.2-3.5-2-4.7-4.7-2.3c-4.6,4-8.3,8.6-8.6,15.1c-0.2,3.7-2,6.6-5,8.7c-1,0.7-2.1,0.9-3.2-0.1
		c-0.9-0.9-0.4-1.7,0-2.7c0.9-2.3,1.8-4.7,2.4-7.1c0.3-1.1,0.8-2.8-1-3.4c-1.4-0.4-2.6,0.2-3.5,1.3c-2.1,2.6-3.1,5.5-3.1,8.8
		c0,3.8-2.1,6.6-4.2,9.3c-1.1,1.4-2.6,2.3-4.3,1.1c-1.4-1-2.2-2.5-1.6-4.4c0.5-1.7,1.3-3.4,1.8-5.2c1.8-5.6,3.5-11.2,1.8-17.1
		c-0.3-1.2-0.6-2.9-2.2-3c-1.4-0.1-1.9,1.3-2.3,2.3c-3,7.4-6,14.9-4.6,23.2c0.5,2.8-0.2,4.8-2.7,6.8c-0.2-1.1-0.3-1.8-0.4-2.6
		c-0.2-3.6-2.4-6.6-5.1-7.7c-2.6-1-5,2-6.9,4.1c-2.8,3.2-4.8,6.8-4.5,11.3c0.3,3.9-2.5,6.4-4.4,9.2c-0.6,1-1.9,1.3-2.9,0
		c-1.6-2.1-0.8-9.5,1.2-11.3c4.9-4.4,4.9-4.3,1.6-9.9c-0.5-0.9,0.4-3-1.6-2.8c-2,0.2-3,1.8-3.7,3.7c-0.5,1.5-0.3,3.3-2.1,4.2
		c-3.6,1.8-4.4,5.1-4.2,8.8C125.7,132.8,126.5,130.9,128.3,131.5z M142.4,117c4-2.3,7-5.7,11.2-7.2c1.3-0.5,0.8-1.7,0.3-2.5
		c-0.5-0.8-0.9-1.8-2.2-1.6C149.3,105.9,142.7,113.7,142.4,117z M184.7,96c-0.1-1.5-0.4-3.3-2.3-3c-2.2,0.3-3.3,2-3.5,4.2
		c-0.2,1.7,0.4,3.1,2.3,3C183.7,100.1,184.2,98,184.7,96z"/>
	<path class="st1" d="M252.5,80.1c-5.1-10.4-10.3-20.8-15.1-31.3c-1.6-3.4-2.8-4.3-6.5-2.4c-9.5,5.1-19.3,9.5-28.9,14.5
		c-3.4,1.7-4.4,1-4-2.6c0.1-1-0.1-2,0-3c0.5-3.5-0.8-4.7-4.3-4.5c-5.6,0.3-11.3-0.1-16.9,0.1c-2.9,0.1-4.1-0.5-4.1-3.8
		c0.2-12.7,0.1-25.3,0-38c0-2.8,0.8-3.7,3.6-3.7c33,0.1,66,0.1,99,0c2.5,0,3.5,0.7,3.5,3.4c-0.1,13-0.1,26,0,39
		c0,2.5-0.9,3.1-3.2,3.1c-5.3-0.1-10.6,0.3-15.9-0.1c-4.8-0.4-6.7,0.7-6.3,6.1c0.5,7.6,0.1,15.3,0.1,22.9
		C253.1,80,252.8,80.1,252.5,80.1z"/>
	<path class="st0" d="M128.3,131.5c-1.8-0.6-2.6,1.4-4.1,0.6c-0.2-3.7,0.6-7,4.2-8.8c1.9-0.9,1.6-2.7,2.1-4.2
		c0.6-1.8,1.7-3.5,3.7-3.7c2-0.2,1.1,1.9,1.6,2.8c3.2,5.6,3.3,5.5-1.6,9.9c-2,1.8-2.8,9.2-1.2,11.3c1,1.4,2.2,1,2.9,0
		c1.9-2.8,4.7-5.3,4.4-9.2c-0.3-4.5,1.7-8.1,4.5-11.3c1.8-2.1,4.2-5.1,6.9-4.1c2.8,1.1,4.9,4.1,5.1,7.7c0,0.8,0.2,1.6,0.4,2.6
		c2.4-2,3.1-4,2.7-6.8c-1.5-8.3,1.5-15.7,4.6-23.2c0.4-1,0.9-2.4,2.3-2.3c1.6,0.1,1.9,1.8,2.2,3c1.7,5.9-0.1,11.5-1.8,17.1
		c-0.6,1.7-1.3,3.4-1.8,5.2c-0.6,1.8,0.2,3.4,1.6,4.4c1.7,1.2,3.2,0.2,4.3-1.1c2.1-2.7,4.2-5.5,4.2-9.3c0-3.2,1.1-6.2,3.1-8.8
		c0.9-1.1,2.1-1.8,3.5-1.3c1.8,0.6,1.3,2.2,1,3.4c-0.6,2.4-1.5,4.7-2.4,7.1c-0.4,1-0.9,1.8,0,2.7c1,1,2.1,0.8,3.2,0.1
		c3-2.1,4.8-5,5-8.7c0.4-6.5,4.1-11.2,8.6-15.1c2.7-2.3,4.9-1.2,4.7,2.3c-0.2,2.8,0.8,6.7-4.6,6.9c-2.3,0.1-2.9,3.6-3.7,5.9
		c-0.4,1,0.1,2,1.2,2.4c2.1,0.8,3.9-0.1,5.4-1.5c2.5-2.4,4.7-5.2,5.5-8.7c1.6-6.8,5.8-11.9,11-16.2c1.5-1.3,3.6-2.8,5.3-1.3
		c1.6,1.3,2.7,3.5,2.5,5.9c-0.1,2.5-2.7,6.1-0.1,7.2c2.7,1.2,3.6-3,5.1-5.1c0.5-0.7,0.9-1.6,1.9-1c0.7,0.5,0.7,1.4,0.3,2.3
		c-1.3,3.2-2.8,6.4-4.9,9.2c-1,1.4-2,2.7-4,2.4c-2.2-0.3-2.3-2.1-2.7-3.7c-0.2-0.6-0.5-1.1-0.9-2.2c-1.1,2.2-2.1,3.9-2.9,5.7
		c-1.6,3.7-4,5.4-7.7,2.7c-1.8-1.3-2.2-0.2-2.9,1.1c-0.8,1.5-1.6,2.9-2.6,4.3c-4,5.4-7.6,5.8-13.2,1.3c-1.5,3.3-2.5,6.9-5.2,9.3
		c-3.5,3.1-6.3,1-8.6-2c-6.9,12-9,12.9-15,6.7c-2.5,3.5-6,6-8.3,9.7c-2.2,3.5-5.9,4.6-9.4,1.4c-2.1-1.9-2.2-0.4-2.9,1
		c-1.1,2.2-2.2,4.5-3.7,6.5c-3.7,5-6.5,4.6-9.5-1.1c-1.3,2.3-2.3,4.4-3.7,6.5c-1.2,1.9-2.3,4.6-5.1,4.1c-2.9-0.5-2.5-3.5-3-5.8
		c-1.9,0.9-2.1,2.9-2.8,4.4c-3.6,6.9-6.7,7-11.5,0.4c-1.8,3.8-3.5,7.6-5.4,11.2c-2.8,5.2-6.2,9.9-11.2,13.2
		c-7.7,4.9-15.1,1.6-16.7-7.4c-0.6-3.2-0.5-6.3,0.1-9.5c2-10.9,6.7-20.5,13.8-28.9c2.4-2.8,5.3-5.7,9.4-3.7c3.7,1.8,3.5,5.7,3,9.2
		c-0.9,7.3-3.4,13.9-7.8,19.7c-1.2,1.5-2.6,3.4-4.9,2.1c-2.2-1.3-1.8-3.5-0.9-5.3c1.6-3.3,1.8-7.5,5.7-9.5c0.2-0.1,0.4-0.5,0.5-0.9
		c1-3.6,4.2-9,1.5-10.5c-3-1.7-5.3,3.8-6.9,6.9c-3.8,7.6-7.1,15.5-6.3,24.3c0.3,3.4,1,6.9,4.7,8.1c3.5,1.1,5.9-1.5,8.1-3.7
		c3.6-3.7,6.4-8.1,8.7-12.7c2.6-4.9,6.3-9.1,8.9-14c1.4-2.7,4-4.8,6.3-7c1.6-1.5,3.9-3.3,5.7-1.8c1.8,1.4,2.9,3.9,2.6,6.7
		c-0.2,2.2-3,5.6,0.2,6.6c2.7,0.8,3.6-3.1,4.7-5.5C126.7,137.4,127.9,134.7,128.3,131.5z M219,89c-3.8,2.2-6.7,5.1-8.2,9.1
		c-0.5,1.2-0.8,3,0.5,3.6c1.6,0.8,2.2-1,2.8-2.1C215.8,96.2,217.4,92.6,219,89z M114.5,139.4c-3.9,3.5-6.6,6.4-8,10.2
		c-0.4,1.1-0.6,2.5,0.6,3.2c1.5,0.9,2.1-0.6,2.6-1.5C111.7,147.9,113.5,144.4,114.5,139.4z M148.8,123.3c-2,2.2-3,4.3-3.4,6.6
		c-0.3,1.5,0.2,3.1,1.6,3.9c1,0.6,2-0.1,2.7-0.8c1.1-1,2.3-2.1,1-3.8C149.2,127.6,149.4,125.5,148.8,123.3z"/>
	<path class="st0" d="M142.4,117c0.2-3.3,6.9-11.1,9.3-11.4c1.3-0.1,1.7,0.8,2.2,1.6c0.5,0.9,1,2.1-0.3,2.5
		C149.5,111.4,146.4,114.8,142.4,117z"/>
	<path class="st0" d="M184.7,96c-0.5,2-1,4.1-3.5,4.1c-1.9,0.1-2.5-1.3-2.3-3c0.2-2.2,1.4-3.9,3.5-4.2
		C184.3,92.7,184.6,94.5,184.7,96z"/>
	<path class="st2" d="M219,89c-1.6,3.6-3.2,7.2-4.9,10.7c-0.5,1.1-1.2,2.9-2.8,2.1c-1.2-0.6-0.9-2.4-0.5-3.6
		C212.3,94.1,215.2,91.2,219,89z"/>
	<path class="st2" d="M114.5,139.4c-1,5-2.8,8.5-4.8,11.9c-0.5,0.9-1.1,2.4-2.6,1.5c-1.2-0.7-1-2.1-0.6-3.2
		C107.9,145.8,110.6,142.9,114.5,139.4z"/>
	<path class="st2" d="M148.8,123.3c0.6,2.2,0.4,4.3,1.8,5.9c1.4,1.7,0.1,2.8-1,3.8c-0.7,0.7-1.7,1.4-2.7,0.8
		c-1.4-0.9-1.8-2.4-1.6-3.9C145.7,127.6,146.7,125.5,148.8,123.3z"/>
</g>
</svg>
