<svg id="Layer_1" data-name="Layer 1" xmlns="http://www.w3.org/2000/svg" viewBox="0 0 600 600"><defs><style>.cls-1{fill:#b0272b;}.cls-2{fill:#9a293b;}.cls-3{fill:#fff;}.cls-4{fill:#07a077;}.cls-5{fill:#292562;}.cls-6{fill:#fafdf9;}</style></defs><title>Unión La Calera</title><path class="cls-1" d="M519.07,125.81l-3,2.32a273.82,273.82,0,0,1,60.13,171.52c0,152.75-123.86,276.44-275.88,276.19a275.79,275.79,0,0,1-218.7-108.2l-3.16,2.47A278.57,278.57,0,0,0,300.18,579.4c154.64.17,279-124,279.82-279.27A281.12,281.12,0,0,0,519.07,125.81Z"/><path class="cls-2" d="M24.73,297.48C26.06,146.44,149.91,23,303,24.27A275.47,275.47,0,0,1,516.1,128.13l3-2.32A279.59,279.59,0,0,0,78.49,470.11l3.16-2.47A274.44,274.44,0,0,1,24.73,297.48Z"/><path class="cls-3" d="M567.47,300c.06,147.64-119.74,267.36-267.63,267A266.52,266.52,0,0,1,88.43,462.33l-6.78,5.31a275.79,275.79,0,0,0,218.7,108.2c152,.25,275.9-123.44,275.88-276.19A273.82,273.82,0,0,0,516.1,128.13l-6.94,5.42A265.9,265.9,0,0,1,567.47,300Z"/><path class="cls-3" d="M303,24.27C149.91,23,26.06,146.44,24.73,297.48A274.44,274.44,0,0,0,81.65,467.64l6.78-5.31A265.89,265.89,0,0,1,33.57,297.76c1.18-146.45,120-264.61,267.09-264.7a266.3,266.3,0,0,1,208.5,100.49l6.94-5.42A275.47,275.47,0,0,0,303,24.27Z"/><path class="cls-1" d="M299.84,567c147.89.37,267.69-119.35,267.63-267a265.9,265.9,0,0,0-58.31-166.42L435.3,191.27a172.53,172.53,0,0,1,38.43,109c-.06,95.85-78.42,174-175.14,173a173,173,0,0,1-136.2-68.72l-74,57.79A266.52,266.52,0,0,0,299.84,567ZM427.28,457.54c4.65-3.49,4.57-3.62,9.53-.48,8.7,5.48,17.38,11,26.65,16.85a58.44,58.44,0,0,1-5.95,4.67c-.63.38-2.29-.12-3-.76-2.55-2.44-4.76-2.16-7,.34a4.51,4.51,0,0,1-1,.77c-3.39,2.14-5.77,4.54-2.93,8.84a2.89,2.89,0,0,1-.63,2.61,62.41,62.41,0,0,1-5.3,4.23c-.66-1.56-1.16-2.65-1.57-3.78-3.44-9.37-6.79-18.78-10.34-28.11C425,460.41,425.24,459.06,427.28,457.54Zm-27.71,19.18c4.54-1.81,9.25,0,12.15,3.7,3.31,4.26,3.75,8.87,1.28,13.23-.25.44-.52.87-.93,1.56l12.64,7.11c-4.18,4.42-7.31,4.95-11.92,2.21a56.46,56.46,0,0,0-5.85-3.42c-1.11-.5-2.55-.25-4.59-.39,1.92,3.67,3.24,6.33,4.69,8.92.9,1.62.59,2.54-1.1,3.39-5.87,3-4.62,3.42-7.56-2.11-4.62-8.72-9.21-17.46-14.13-26.81C389.6,481.49,394.45,478.76,399.57,476.72Zm-35.81,15.19a35.74,35.74,0,0,0,4.11-1.31c2.79-1.25,4.16-.59,5,2.51.74,2.67.45,3.91-2.38,4.6-3.49.84-6.88,2.08-10.65,3.26.6,2,1.17,3.88,1.82,6.06,3.52-1,6.78-1.91,9.95-3,1.92-.67,2.73-.28,3.35,1.69,1.39,4.48,1.5,4.45-3,5.87-2.54.8-5.09,1.59-8,2.5l1.88,6.52c4.05-1.22,7.94-2.18,11.65-3.6,3.05-1.16,3.62.42,4.39,2.76s.75,3.71-2.09,4.47c-5.66,1.53-11.24,3.34-16.82,5.16-1.94.63-3,.4-3.63-1.77-3-10-6.09-19.87-9.15-29.81a9.9,9.9,0,0,1-.2-1.54Zm-44.62,9.39a7.26,7.26,0,0,0,1.53-.23c2.68-.63,3.8.27,4.07,3.17.67,7.06,1.69,14.08,2.59,21.12.11.89.37,1.77.6,2.86,3.4-.41,6.64-.84,9.88-1.19,4.13-.45,4.15-.43,4.64,3.77.11.9.1,1.82.16,3.15-2.05.33-4,.72-6,1-4.59.6-9.19,1.09-13.77,1.72-1.65.23-2.45-.14-2.67-1.94-1.2-10-2.42-20-3.82-30C316,502.24,316.78,501.3,319.14,501.3Zm-44.58,24.52c2.8-7.07,5.74-14.09,8.42-21.21.88-2.34,2.09-3.11,4.56-2.91,5.76.47,5.79.35,7.37,5.89q3.84,13.49,7.63,27c.27,1,.45,1.94.8,3.5-2.84-.16-5.31,0-7.6-.59-.79-.19-1.43-2.08-1.64-3.27-.43-2.55-1.57-3.83-4.29-3.49a15.87,15.87,0,0,1-3.07-.14c-4.95-.35-4.86-.3-7,4.25a4.16,4.16,0,0,1-2.89,1.93,36.44,36.44,0,0,1-6.33-.45C271.93,532.61,273.21,529.2,274.56,525.82ZM233.19,517c.84-4.13,1.83-8.24,3-12.3a11.88,11.88,0,0,1,12.15-9.05,19.13,19.13,0,0,1,14.79,6.92l-5,4.71a48.35,48.35,0,0,0-6.42-3.24c-4.06-1.38-6.83.29-7.9,4.45-.74,2.89-1.46,5.8-2.06,8.72-.81,3.95.78,6.49,4.7,7.2a18.91,18.91,0,0,0,5.52,0c2.57-.3,3.65.83,4.51,5,.52,2.54-1.59,2.35-2.86,2.67a18.64,18.64,0,0,1-14.83-2.38A11.6,11.6,0,0,1,233.19,517Zm-41.06-41.6c1.62-1.49,2.85-1.81,4.81-.61,6.57,4,5.47,2,4.2,9.2-1.61,9.21-3.41,18.39-5.15,27.59-.15.79-.38,1.57-.73,3-2.33-1.27-4.68-2.13-6.4-3.68-.74-.67-.55-2.88-.16-4.2.69-2.31.19-3.68-2-4.59a15,15,0,0,1-3.46-2c-2.81-2.19-5.23-2.21-7.41.87-1.08,1.53-2.42,1.6-4,.54s-3.17-1.86-5.32-3.1c2.92-2.63,5.41-4.9,7.93-7.15C180.32,486,186.3,480.76,192.13,475.4Zm-53.32-1c7-8.6,14.16-17.11,21.54-26l6.26,5.25L148.88,475l10.82,9.12a34.61,34.61,0,0,1-3.55,4.29,2.86,2.86,0,0,1-2.72.24q-7.26-5.76-14.24-11.85A2.58,2.58,0,0,1,138.81,474.36Z"/><path class="cls-2" d="M127.23,299.2c.24-95.11,78.19-172.6,173.64-172.43a172.86,172.86,0,0,1,134.43,64.5l73.86-57.72A266.3,266.3,0,0,0,300.66,33.06c-147.09.09-265.91,118.25-267.09,264.7A265.89,265.89,0,0,0,88.43,462.33l74-57.79A173,173,0,0,1,127.23,299.2ZM362.87,105.28c3.82-9.78,7.78-19.51,11.75-29.24a2.42,2.42,0,0,1,1.14-1.32c2.08-.71,7.41,2.93,7.67,5.14.83,7,1.65,14.09,2.54,21.63,2.31-5.89,4.6-11.29,6.54-16.8,1-2.72,2.3-3,4.56-1.77a7.5,7.5,0,0,0,1.71.7c2.12.59,2.33,1.71,1.51,3.69-3.83,9.22-7.54,18.5-11.22,27.78-.72,1.82-1.55,2.14-3.5,1.58-3.89-1.13-5.92-3.1-6.2-7.45-.39-6-1.54-12-2.39-18.25-2.43,6.36-4.8,12.59-7.29,19.13a45.61,45.61,0,0,1-5.76-2.36A2.8,2.8,0,0,1,362.87,105.28ZM322.05,84.07a98.43,98.43,0,0,1,1.79-9.72c1.87-7.12,7.92-10.62,15.84-9.39,8.11,1.26,12.93,6.47,12.38,13.91a85.34,85.34,0,0,1-2,12.5c-1.54,6.72-6.32,10.24-13.21,10.17C326,101.42,320.33,94.78,322.05,84.07Zm-25.41-4.3h.53c0-4.93.07-9.86,0-14.8,0-2,.69-2.85,2.69-2.61a7.09,7.09,0,0,0,1.84,0c3-.42,3.9.77,3.8,3.76-.34,9.66-.46,19.33-.54,29,0,2.15-.72,3.05-2.87,2.77a11.24,11.24,0,0,0-2.46,0c-2.27.24-3.08-.65-3-3C296.75,89.85,296.64,84.81,296.64,79.77ZM254.4,66.92A4.09,4.09,0,0,1,257,68.58c4.53,5.57,8.95,11.23,13.66,17.17-1.12-6.26-2.06-12.14-3.28-18-.5-2.42,0-3.55,2.54-3.61a4.24,4.24,0,0,0,1.21-.23c2.74-.93,4-.15,4.47,2.92,1.49,9.77,3.28,19.5,4.93,29.25a15.45,15.45,0,0,1,0,2.19A44.12,44.12,0,0,1,274,99.43a4.59,4.59,0,0,1-3-1.73c-4.6-5.39-9.1-10.88-13.53-16.22,1.06,5.45,2.2,11.12,3.25,16.81.64,3.44.56,3.33-4.34,4.28-2.6.51-3.35-.4-3.74-2.88C251.23,90.43,249.55,81.21,248,72c-.2-1.18-.28-2.4-.44-3.87A53.28,53.28,0,0,1,254.4,66.92ZM201.52,84.05c5.33-3,5.74-2.84,8,2.82,2,5.06,4.05,10.14,6.18,15.16,1.69,4,4.14,5.11,7.47,3.68s4.35-3.92,2.78-7.88c-2.65-6.69-5.38-13.34-8-20a7.19,7.19,0,0,1,.57-.65c6.62-3.52,6.62-3.52,9.41,3.3,2,4.86,4,9.72,5.91,14.61s2.19,10-2,14c-4.39,4.23-9.67,6.32-15.82,4.55A10.93,10.93,0,0,1,209,107.2Q204.56,97,200.53,86.62A2.85,2.85,0,0,1,201.52,84.05Z"/><path class="cls-3" d="M420.8,245.71c1.05,5.29.71,10.86.85,16.3a2.35,2.35,0,0,1-1.54,1.71c-6.59.06-13.18-.05-19.77-.13-.17,0-.34-.19-.45-.26-.29-3.83-.29-7.67-.93-11.39-1.59-9.29-9.26-14.17-18.44-12.13-6.79,1.51-8.5,6.83-9.58,12.58a35.7,35.7,0,0,0-.49,6.46q0,40.2,0,80.4a37.93,37.93,0,0,0,.4,5.54c1.6,10.59,10.63,15.41,20.42,10.95,6-2.76,8-8,8.29-14.07.14-2.74,0-5.51,0-8.53H421.4c1.57,14-.74,26.54-11.42,36.79-15.58,14.95-42.75,10.9-53.31-1.94a36.76,36.76,0,0,1-8.46-24.25q0-20.26,0-40.52c0-13.4,0-26.8,0-40.2,0-1.21,0-2.44-.05-3.66L293.22,302.3q0,25-.32,50c0,2.87.8,3.69,3.66,3.66,12-.16,23.92-.07,35.88-.07h6.1c0,2.57,0,4.89,0,7.22,0,4.12-.17,8.25,0,12.37.08,2.16-.49,2.81-2.74,2.8-18.86-.06-37.73,0-56.6.05-2.16,0-4.33,0-6.49,0-1.57,0-2.09-.52-2.08-2.2q.13-24.58.09-49.17,0-3.53,0-7l-17.64,13.78a95.27,95.27,0,0,1-.89,15.42c-3.84,22.94-27.82,36-49.63,28a29.39,29.39,0,0,1-3.22-1.41l-36.92,28.86a173,173,0,0,0,136.2,68.72c96.72,1,175.08-77.16,175.14-173a172.53,172.53,0,0,0-38.43-109l-36,28.12A35.69,35.69,0,0,1,420.8,245.71Z"/><path class="cls-3" d="M300.87,126.77c-95.45-.17-173.4,77.32-173.64,172.43a173,173,0,0,0,35.16,105.34l36.92-28.86c-11-5.54-20.46-18.05-20.47-32.75q0-61.38,0-122.77c0-.5.05-1,.11-1.92h22.81V222q0,57.52,0,115a54.93,54.93,0,0,0,.39,7.71c1.05,7.5,6.59,12.26,14,12.2s13-5.06,13.88-12.67a46,46,0,0,0,.19-5.25q0-58.77,0-117.52v-3.22h22.77c.05,1,.16,2.11.16,3.19q0,55.05,0,110.1v2.12l17.64-13.78q-.15-49.21-.38-98.42v-3.21H293.1c0,1,.14,2.08.14,3.17q0,39,0,77.94c0,1,0,1.94,0,2.91l54.95-42.94a66.59,66.59,0,0,1,.39-12.65c3.06-18.26,17.31-29.76,36.45-30a36,36,0,0,1,14.31,2.71l36-28.12A172.86,172.86,0,0,0,300.87,126.77Z"/><path class="cls-3" d="M252.67,99.69c.39,2.48,1.14,3.39,3.74,2.88,4.9-.95,5-.84,4.34-4.28-1.05-5.69-2.19-11.36-3.25-16.81,4.43,5.34,8.93,10.83,13.53,16.22a4.59,4.59,0,0,0,3,1.73,44.12,44.12,0,0,0,6.58-1.11,15.45,15.45,0,0,0,0-2.19c-1.65-9.75-3.44-19.48-4.93-29.25-.46-3.07-1.73-3.85-4.47-2.92a4.24,4.24,0,0,1-1.21.23c-2.5.06-3,1.19-2.54,3.61,1.22,5.81,2.16,11.69,3.28,18C266,79.81,261.57,74.15,257,68.58a4.09,4.09,0,0,0-2.64-1.66,53.28,53.28,0,0,0-6.86,1.17c.16,1.47.24,2.69.44,3.87C249.55,81.21,251.23,90.43,252.67,99.69Z"/><path class="cls-3" d="M363.93,107.74a45.61,45.61,0,0,0,5.76,2.36c2.49-6.54,4.86-12.77,7.29-19.13.85,6.22,2,12.21,2.39,18.25.28,4.35,2.31,6.32,6.2,7.45,1.95.56,2.78.24,3.5-1.58,3.68-9.28,7.39-18.56,11.22-27.78.82-2,.61-3.1-1.51-3.69a7.5,7.5,0,0,1-1.71-.7c-2.26-1.28-3.6-1-4.56,1.77-1.94,5.51-4.23,10.91-6.54,16.8-.89-7.54-1.71-14.58-2.54-21.63-.26-2.21-5.59-5.85-7.67-5.14A2.42,2.42,0,0,0,374.62,76c-4,9.73-7.93,19.46-11.75,29.24A2.8,2.8,0,0,0,363.93,107.74Z"/><path class="cls-3" d="M405.94,513c1.69-.85,2-1.77,1.1-3.39-1.45-2.59-2.77-5.25-4.69-8.92,2,.14,3.48-.11,4.59.39a56.46,56.46,0,0,1,5.85,3.42c4.61,2.74,7.74,2.21,11.92-2.21l-12.64-7.11c.41-.69.68-1.12.93-1.56,2.47-4.36,2-9-1.28-13.23-2.9-3.74-7.61-5.51-12.15-3.7-5.12,2-10,4.77-15.32,7.39,4.92,9.35,9.51,18.09,14.13,26.81C401.32,516.45,400.07,516,405.94,513Zm-2.27-28.39a5.76,5.76,0,0,1,2.51,4.47c-.15,3.87-4.15,3.95-6.76,6.11l-4.29-8.15C398.06,486,400.4,483,403.67,484.64Z"/><path class="cls-3" d="M336.87,101.54c6.89.07,11.67-3.45,13.21-10.17a85.34,85.34,0,0,0,2-12.5c.55-7.44-4.27-12.65-12.38-13.91-7.92-1.23-14,2.27-15.84,9.39a98.43,98.43,0,0,0-1.79,9.72C320.33,94.78,326,101.42,336.87,101.54Zm-5-24.59c.83-3.47,3.26-4.82,6.76-4.2,3.69.65,5.49,2.78,5,6.44a97.09,97.09,0,0,1-1.72,10c-.77,3.39-3.12,4.91-6.33,4.47-3.86-.53-5.57-2.42-5.48-7C330.55,84,331,80.44,331.83,77Z"/><path class="cls-3" d="M209,107.2a10.93,10.93,0,0,0,7.05,6.53c6.15,1.77,11.43-.32,15.82-4.55,4.19-4,4-9,2-14s-3.93-9.75-5.91-14.61c-2.79-6.82-2.79-6.82-9.41-3.3a7.19,7.19,0,0,0-.57.65c2.66,6.61,5.39,13.26,8,20,1.57,4,.66,6.4-2.78,7.88s-5.78.3-7.47-3.68c-2.13-5-4.14-10.1-6.18-15.16-2.28-5.66-2.69-5.86-8-2.82a2.85,2.85,0,0,0-1,2.57Q204.57,97,209,107.2Z"/><path class="cls-3" d="M276.83,536.78a4.16,4.16,0,0,0,2.89-1.93c2.16-4.55,2.07-4.6,7-4.25a15.87,15.87,0,0,0,3.07.14c2.72-.34,3.86.94,4.29,3.49.21,1.19.85,3.08,1.64,3.27,2.29.56,4.76.43,7.6.59-.35-1.56-.53-2.54-.8-3.5q-3.8-13.5-7.63-27c-1.58-5.54-1.61-5.42-7.37-5.89-2.47-.2-3.68.57-4.56,2.91-2.68,7.12-5.62,14.14-8.42,21.21-1.35,3.38-2.63,6.79-4.06,10.51A36.44,36.44,0,0,0,276.83,536.78ZM287.93,512l.64.06c.89,3.69,1.78,7.39,2.71,11.27H284C285.4,519.29,286.66,515.63,287.93,512Z"/><path class="cls-3" d="M359.34,527.6c.65,2.17,1.69,2.4,3.63,1.77,5.58-1.82,11.16-3.63,16.82-5.16,2.84-.76,2.88-2.09,2.09-4.47s-1.34-3.92-4.39-2.76c-3.71,1.42-7.6,2.38-11.65,3.6L364,514.06c3-.91,5.5-1.7,8-2.5,4.48-1.42,4.37-1.39,3-5.87-.62-2-1.43-2.36-3.35-1.69-3.17,1.12-6.43,2-9.95,3-.65-2.18-1.22-4.08-1.82-6.06,3.77-1.18,7.16-2.42,10.65-3.26,2.83-.69,3.12-1.93,2.38-4.6-.86-3.1-2.23-3.76-5-2.51a35.74,35.74,0,0,1-4.11,1.31L350,496.25a9.9,9.9,0,0,0,.2,1.54C353.25,507.73,356.36,517.64,359.34,527.6Z"/><path class="cls-3" d="M436.18,490.83c.41,1.13.91,2.22,1.57,3.78a62.41,62.41,0,0,0,5.3-4.23,2.89,2.89,0,0,0,.63-2.61c-2.84-4.3-.46-6.7,2.93-8.84a4.51,4.51,0,0,0,1-.77c2.22-2.5,4.43-2.78,7-.34.67.64,2.33,1.14,3,.76a58.44,58.44,0,0,0,5.95-4.67c-9.27-5.86-17.95-11.37-26.65-16.85-5-3.14-4.88-3-9.53.48-2,1.52-2.32,2.87-1.44,5.18C429.39,472.05,432.74,481.46,436.18,490.83Zm-1.41-26.51,9.92,6.86L439,475.9c-1.62-3.9-3.14-7.52-4.65-11.14Z"/><path class="cls-3" d="M171.8,501.48c1.57,1.06,2.91,1,4-.54,2.18-3.08,4.6-3.06,7.41-.87a15,15,0,0,0,3.46,2c2.23.91,2.73,2.28,2,4.59-.39,1.32-.58,3.53.16,4.2,1.72,1.55,4.07,2.41,6.4,3.68.35-1.4.58-2.18.73-3,1.74-9.2,3.54-18.38,5.15-27.59,1.27-7.19,2.37-5.17-4.2-9.2-2-1.2-3.19-.88-4.81.61-5.83,5.36-11.81,10.56-17.72,15.83-2.52,2.25-5,4.52-7.93,7.15C168.63,499.62,170.28,500.45,171.8,501.48Zm21.87-17.28c-.95,4.31-1.76,8-2.67,12.18l-6.27-3.63Z"/><path class="cls-3" d="M238.74,529.69a18.64,18.64,0,0,0,14.83,2.38c1.27-.32,3.38-.13,2.86-2.67-.86-4.13-1.94-5.26-4.51-5a18.91,18.91,0,0,1-5.52,0c-3.92-.71-5.51-3.25-4.7-7.2.6-2.92,1.32-5.83,2.06-8.72,1.07-4.16,3.84-5.83,7.9-4.45a48.35,48.35,0,0,1,6.42,3.24l5-4.71a19.13,19.13,0,0,0-14.79-6.92,11.88,11.88,0,0,0-12.15,9.05c-1.14,4.06-2.13,8.17-3,12.3A11.6,11.6,0,0,0,238.74,529.69Z"/><path class="cls-3" d="M153.43,488.68a2.86,2.86,0,0,0,2.72-.24,34.61,34.61,0,0,0,3.55-4.29L148.88,475l17.73-21.38-6.26-5.25c-7.38,8.85-14.52,17.36-21.54,26a2.58,2.58,0,0,0,.38,2.47Q146.18,482.91,153.43,488.68Z"/><path class="cls-3" d="M320.17,534.7c.22,1.8,1,2.17,2.67,1.94,4.58-.63,9.18-1.12,13.77-1.72,2-.25,3.95-.64,6-1-.06-1.33-.05-2.25-.16-3.15-.49-4.2-.51-4.22-4.64-3.77-3.24.35-6.48.78-9.88,1.19-.23-1.09-.49-2-.6-2.86-.9-7-1.92-14.06-2.59-21.12-.27-2.9-1.39-3.8-4.07-3.17a7.26,7.26,0,0,1-1.53.23c-2.36,0-3.14.94-2.79,3.43C317.75,514.7,319,524.7,320.17,534.7Z"/><path class="cls-3" d="M299.6,97.86a11.24,11.24,0,0,1,2.46,0c2.15.28,2.86-.62,2.87-2.77.08-9.66.2-19.33.54-29,.1-3-.84-4.18-3.8-3.76a7.09,7.09,0,0,1-1.84,0c-2-.24-3.35.6-3.31,2.61.1,4.94.23,24.88.08,29.91C296.52,97.21,297.33,98.1,299.6,97.86Z"/><path class="cls-4" d="M252.16,349.11a95.27,95.27,0,0,0,.89-15.42l-53.74,42a29.39,29.39,0,0,0,3.22,1.41C224.34,385.13,248.32,372.05,252.16,349.11Z"/><path class="cls-5" d="M253.05,331.57q.1-55.05,0-110.1c0-1.08-.11-2.16-.16-3.19H230.15v3.22q0,58.76,0,117.52a46,46,0,0,1-.19,5.25c-.88,7.61-6.39,12.61-13.88,12.67s-12.9-4.7-14-12.2a54.93,54.93,0,0,1-.39-7.71q0-57.51,0-115v-3.75H178.92c-.06.91-.11,1.42-.11,1.92q0,61.38,0,122.77c0,14.7,9.44,27.21,20.47,32.75l53.74-42Z"/><path class="cls-5" d="M385,216.68c-19.14.27-33.39,11.77-36.45,30a66.59,66.59,0,0,0-.39,12.65l51.15-40A36,36,0,0,0,385,216.68Z"/><path class="cls-4" d="M348.22,303.22q0,20.26,0,40.52A36.76,36.76,0,0,0,356.67,368c10.56,12.84,37.73,16.89,53.31,1.94,10.68-10.25,13-22.76,11.42-36.79H399.58c0,3,.12,5.79,0,8.53-.33,6.09-2.25,11.31-8.29,14.07-9.79,4.46-18.82-.36-20.42-10.95a37.93,37.93,0,0,1-.4-5.54q0-40.2,0-80.4a35.7,35.7,0,0,1,.49-6.46c1.08-5.75,2.79-11.07,9.58-12.58,9.18-2,16.85,2.84,18.44,12.13.64,3.72.64,7.56.93,11.39.11.07.28.26.45.26,6.59.08,13.18.19,19.77.13a2.35,2.35,0,0,0,1.54-1.71c-.14-5.44.2-11-.85-16.3a35.69,35.69,0,0,0-21.48-26.32l-51.15,40c0,1.22.06,2.45.05,3.66C348.19,276.42,348.22,289.82,348.22,303.22Z"/><path class="cls-5" d="M293.23,299.39q.07-39,0-77.94c0-1.09-.09-2.18-.14-3.17H270.31v3.21q.19,49.22.38,98.42l22.53-17.61C293.22,301.33,293.23,300.36,293.23,299.39Z"/><path class="cls-4" d="M270.62,376.11c0,1.68.51,2.24,2.08,2.2,2.16-.05,4.33,0,6.49,0,18.87,0,37.74-.11,56.6-.05,2.25,0,2.82-.64,2.74-2.8-.16-4.12,0-8.25,0-12.37,0-2.33,0-4.65,0-7.22h-6.1c-12,0-23.92-.09-35.88.07-2.86,0-3.69-.79-3.66-3.66q.3-25,.32-50l-22.53,17.61q0,3.51,0,7Q270.78,351.53,270.62,376.11Z"/><path class="cls-1" d="M406.18,489.11a5.76,5.76,0,0,0-2.51-4.47c-3.27-1.62-5.61,1.33-8.54,2.43l4.29,8.15C402,493.06,406,493,406.18,489.11Z"/><path class="cls-2" d="M335.58,93.68c3.21.44,5.56-1.08,6.33-4.47a97.09,97.09,0,0,0,1.72-10c.45-3.66-1.35-5.79-5-6.44-3.5-.62-5.93.73-6.76,4.2s-1.28,7.07-1.73,9.72C330,91.26,331.72,93.15,335.58,93.68Z"/><path class="cls-1" d="M288.57,512l-.64-.06c-1.27,3.66-2.53,7.32-3.91,11.33h7.26C290.35,519.42,289.46,515.72,288.57,512Z"/><path class="cls-1" d="M444.69,471.18l-9.92-6.86-.39.44c1.51,3.62,3,7.24,4.65,11.14Z"/><path class="cls-1" d="M193.67,484.2l-8.94,8.55,6.27,3.63C191.91,492.21,192.72,488.51,193.67,484.2Z"/><polygon class="cls-6" points="336.36 61.65 343.46 62.78 351.69 56.16 344.02 54.55 336.36 61.65"/></svg>