<?xml version="1.0" encoding="UTF-8"?>
<svg id="Layer_1" data-name="Layer 1" xmlns="http://www.w3.org/2000/svg" viewBox="0 0 1000 1000">
  <defs>
    <style>
      .cls-1 {
        fill: #de1216;
      }

      .cls-2 {
        fill: #df0914;
      }

      .cls-3 {
        fill: #ececec;
      }

      .cls-4 {
        fill: #fefefe;
      }
    </style>
  </defs>
  <path class="cls-3" d="M98.95,93.02c.81-.77,10.07,2.11,11.82,2.62,32.82,9.61,63.67,23.87,97.59,30.91,69.22,14.36,154.53,7.43,211.83-36.72,22.36-23.82,48.46-44.11,67.42-70.96,16.04,21.73,34.28,41.91,54,60.37,9.91,9.28,20.85,19.29,32.72,25.88,51.42,28.55,129.9,33.12,186.88,22.84,36.49-6.58,70.93-22.72,105.72-34.86,1.32-.35,1.85.51,2.67,1.28,9.62,9.11,14.08,39.53,16.36,52.84,5.17,30.23,8.78,62.42,11.5,93,19.11,215.24-37.54,406.97-181.46,567.69-28.12,31.4-62.43,60.56-95.67,86.5-40.28,31.44-87.03,53.67-134.06,72.74-95.05-35.54-178.67-98.43-243.98-175.48C102.91,627.27,52.68,433.34,77.84,219.13c4.97-42.35,13.17-84.28,21.11-126.11Z"/>
  <path class="cls-1" d="M863.55,108.53c8.75,29.19,12.61,59.86,16.16,90.12,10.32,87.81,12.37,170.06-3.66,257.42-28.13,153.32-102.61,284.2-216.52,389.3-49.96,46.09-108.19,81.76-171.39,106.8-3.64.68-7.93-1.67-11.47-3.02-139.7-53.32-266.58-191.79-327.73-326.09-53.31-117.08-72.98-243.05-61.3-371.53,4.35-47.81,12.63-95.29,21.89-142.29,46.06,16.1,90.81,33.25,140.15,36.71,56.13,3.94,131.58-7.78,176.48-43.79,22.7-18.21,40.89-41.3,61.78-61.41,3.57,5.57,8.49,11.3,13.06,16.25,16.12,17.44,39.64,42.61,59.3,55.08,57.15,36.26,150.33,41.08,215.01,26.47,30.45-6.88,58.96-19.64,88.24-30.02Z"/>
  <path class="cls-2" d="M528.91,126.19l1.41,2.3.03,283.76,50.39,127.1-.99,1.33c-.06.56-.27,1.4-.66,1.41-15.01.45-31.47.45-46.49,0l-.86-1.41c-.95-1.42-1.42-3.3-1.41-5.65-.12-.37-.71-3.62-1.42-2.47l.05,369.21-42.75,18.72c-12.74-4.69-25.5-9.85-37.55-16.05-1.81-.93-3.87-2.94-5.17-3.65l-1.41-1.66v-357.57l1.41-.88c-.06.56-.26,1.4-.65,1.41-12.07.44-26.27.57-38.31,0-2.59.48-4.19.01-4.82-1.41l-1.14-.97,43.5-112.69V128.85s1.41-2.66,1.41-2.66c5.73-4.61,10.67-10.39,16.61-14.81l26.8-27.6c4.79,3.71,8.81,9.42,13.05,13.83,9.16,9.51,18.86,20.16,28.97,28.58Z"/>
  <path class="cls-4" d="M443.48,126.19l-.04,301.11-43.73,113.37h43.77v360.11c-30.57-16.54-59.18-34.42-86.14-56.49l-1.41-2.68v-461.11s1.48-3.24,1.48-3.24c19.18-10.45,30.09-30.43,34.37-51.28-11.86-3.85-23.61-7.96-35.25-12.33-.92-13.46-.73-27.62-.14-41.15,11.42-3.53,23.04-6.62,34.88-9.27-3.45-19.72-15-36.61-32.56-46.45-1.6-.88-2.48-2.04-2.64-3.46l-.13-46.74,1.41-.85c29.25-7.37,62.53-20.57,86.14-39.54Z"/>
  <path class="cls-4" d="M615.04,566.09l-.05.94c-9.9.3-19.76.62-29.6.98l-.03,114.93c.74,20.65,9.55,40.68,28.22,50.92l1.47,2.4-.35,108.75c-26.33,21.69-55.12,40.2-85.08,56.48l.7-366.47c.56,1.79,1.04,3.8,1.41,5.65h48.01l-50.77-128.22-.06-286.27c17.02,14.18,39.44,24.72,60.35,31.79,6.48,2.19,18.9,4.34,24.07,6.99.62.32,1.39.32,1.61,1.21l.1,399.91Z"/>
  <path class="cls-2" d="M701.18,175.62l1.41.68v388.92l-1.41.88c.15-.55.39-1.38.82-1.41,3.28-.24,20.01-.61,22.15,0l1.03,1.41c.55,0,1.41.15,1.41.49.5,41.46.33,84.03-.65,125.46-1.84,16.46-8.96,32.13-23.25,41.29l-.1,22.08-1.43,3.44c-15.09,17.81-29.28,34.61-46.23,50.86-12.43,11.91-25.76,23.14-39.2,33.87l.03-105.64-.75-1.69c-20.97-10.87-29.92-30.31-31.1-53.28l.03-116.9h31.07s.71-400.36.71-400.36c27.97,6.27,56.69,9.66,85.43,9.88Z"/>
  <path class="cls-2" d="M357.34,165.73l.14,48.23c4.47,3.91,10.12,6.66,14.7,10.72,11.47,10.17,17.65,24.85,21.22,39.47l-35.98,8.97.04,39.71,35.95,12.18c-4.04,21.25-15.33,42.78-35.04,53.21l-1.05,2.48.03,463.59c-30.77-25.19-59.4-52.94-85.06-83.35l-.37-1.38-.99-15.46c-.25-123.58-.55-247.17-.91-370.76-41.97-33.44-42.62-100.45-11.14-141.44,2.94-3.83,8.06-9.17,12.33-9.68.35-.49.96-.76.75-1.69l-.05-44.92c21.08.15,42.24-1.42,62.97-5.16,7.08-1.28,15.53-2.97,22.46-4.72Z"/>
  <path class="cls-4" d="M271.21,222.22c-1.25,1.73-5.08,3.98-6.73,5.63-36.28,36.28-35.67,113.21,6.77,145.08,1.55,128.63.23,257.81.67,386.63-5.07-4.39-9.19-9.96-13.38-15.21-27.99-35.01-52.5-72.97-72.71-112.99-.08-141.56-.04-283.13-.04-424.68-.56-.06-1.4-.26-1.41-.65-.44-11.26-.38-24.05,0-35.35-.51-2.92-.04-4.81,1.41-5.67,27.93,7.09,55.83,10.82,84.77,10.9l.66,46.29Z"/>
  <path class="cls-4" d="M701.18,175.62c19.89.16,41.22-1.22,60.87-4.44,8.24-1.35,16.25-3.84,24.56-4.74v465.68c-23.26,46.52-52.03,87.32-85.43,126.75l.12-26.36c17.15-10.74,22.85-28.65,23.92-48.1l-.03-118.3h-24.01V175.62Z"/>
  <path class="cls-2" d="M787.31,165.73l55.77-17.65c2.41,16.12,5.02,32.27,6.97,48.46,17.92,148.15,8.38,284.05-55.79,419.94l-6.96,13.16V165.73Z"/>
  <path class="cls-2" d="M185.78,165.02v41.66l-.71,422.95-12.12-24.23c-63.75-143.08-70.5-283.69-44.24-437.09.49-2.84,2.82-17.66,3.77-18.84.57-.71,1.08-.85,1.94-.59,17,5.77,33.96,11.71,51.37,16.13Z"/>
  <polygon class="cls-4" points="571.27 535.73 535.94 534.7 521.87 498.63 456.64 498.4 442.67 535.63 407.47 535.02 471.71 371.55 505.62 371.55 506.62 372.66 570.59 532.53 571.27 535.73"/>
  <path class="cls-4" d="M622.81,571.74v109.8c0,11.8,8.61,23.61,19.92,26.68,13.37,3.62,33.33,2.31,40.22-11.72.88-1.79,3.4-10.5,3.4-12.13v-112.62h33.18l.03,116.89c.22,38.77-35.89,50.98-68.9,49.78-39.68-1.44-58.74-19.18-61.07-58.96l.03-107.71h33.18Z"/>
  <path class="cls-4" d="M386.29,261.06l-32.03,7.12c-4.46-14.04-12.83-23.91-27.81-26.71-46.72-8.73-53.75,48.42-45.3,81.32,11.11,43.32,66.78,40.36,73.38-3.13l32.19,9.15c-5.13,22.94-19.95,42.57-42.95,49.64-37.68,11.59-78.49-3.99-92.85-41.67-13.51-35.46-7.93-88.39,25.3-111.32,37.52-25.89,100.91-13.87,110.08,35.59Z"/>
  <polygon class="cls-2" points="510.55 470.06 466.78 470.06 487.97 410.75 510.55 470.06"/>
</svg>