<?xml version="1.0" encoding="utf-8"?>
<!-- Generator: Adobe Illustrator 23.0.3, SVG Export Plug-In . SVG Version: 6.00 Build 0)  -->
<svg version="1.1" id="Layer_1" xmlns="http://www.w3.org/2000/svg" xmlns:xlink="http://www.w3.org/1999/xlink" x="0px" y="0px"
	 viewBox="0 0 595.3 595.3" style="enable-background:new 0 0 595.3 595.3;" xml:space="preserve">
<style type="text/css">
	.st0{fill:#2756A6;}
	.st1{fill:#F7F9FA;}
	.st2{fill:#EB2B4C;}
</style>
<path class="st0" d="M67,116.3c0-24,0.1-47.9-0.1-71.9c0-3.9,1.2-5.7,4.8-6.9c38.5-12.9,77.7-22.8,117.8-29.2
	c42.4-6.8,85-9.4,127.9-8c40,1.3,79.6,6.2,118.9,14.3c29.2,6,57.9,13.6,86.3,22.7c4.1,1.3,5.8,2.7,5.8,7.3c-0.3,44,0.6,88.1-0.6,132
	c-1.5,54.7-5.5,109.1-20,162.3c-11.8,43.2-32.5,81.8-58.7,117.7c-39.5,54.2-87.9,99-143.9,135.8c-5.3,3.5-8.9,3.9-14.4-0.1
	C219,540,158.9,477.1,115.7,398.9C95.8,363,84.2,324.4,77.4,284.1c-8.2-48-9.9-96.4-10.4-145C66.9,131.5,67,123.9,67,116.3z
	 M80.1,126.8c0.9,17.6-0.1,41.3,1,65c1.4,31,3.7,61.8,8.7,92.4c5.6,33.8,14.5,66.5,30.1,97.1c40.3,79.2,99.7,141.6,170.5,194
	c5.6,4.2,9.3,3.8,14.9,0.1c43.6-28.6,82.4-62.6,115.7-102.7c29.5-35.4,54.3-73.8,69.2-117.9c14.1-41.7,19.6-85,22.5-128.7
	c1.5-22.3,2.3-44.6,2.6-66.9c0.4-32.7-0.1-65.4,0.3-98.2c0.1-5.8-1.8-8.5-7.2-9.4c-1.3-0.2-2.6-0.7-3.9-1.1
	C436,28.9,365.8,17,293.8,16.9c-26-0.1-51.8,2-77.7,5.2c-44.7,5.4-88.1,15.8-130.6,30.1c-4.5,1.5-5.5,3.5-5.4,7.8
	C80.2,80.2,80.1,100.4,80.1,126.8z"/>
<path class="st1" d="M80.1,126.8c0-26.3,0.1-46.6-0.1-66.9c0-4.2,0.9-6.3,5.4-7.8c42.6-14.2,86-24.7,130.6-30.1
	c25.8-3.1,51.7-5.2,77.7-5.2c72,0.2,142.2,12,210.8,33.7c1.3,0.4,2.6,0.9,3.9,1.1c5.3,0.9,7.2,3.6,7.2,9.4
	c-0.4,32.7,0.1,65.4-0.3,98.2c-0.3,22.3-1.1,44.7-2.6,66.9c-2.9,43.7-8.4,87-22.5,128.7c-14.9,44.1-39.7,82.5-69.2,117.9
	c-33.4,40-72.2,74-115.7,102.7c-5.6,3.7-9.3,4-14.9-0.1c-70.8-52.4-130.2-114.8-170.5-194c-15.6-30.6-24.5-63.4-30.1-97.1
	c-5.1-30.6-7.3-61.4-8.7-92.4C80,168.1,81,144.4,80.1,126.8z M506.5,142c0-23.9,0.1-40.5,0-57.1c-0.1-6.9,2.6-15.2-1-20.3
	c-3.6-5-12.3-5-18.8-7C427.7,39.4,367.4,29.9,306,28c-29.2-0.9-58.3,1.6-87.3,5.1C176,38.4,134.5,48.2,93.9,62.1
	c-3.3,1.1-5.5,2-5.5,6.3c0.3,69-1.9,138.1,8.2,206.7c4.9,33.2,12.4,65.7,27,96c39,80.6,98.5,143.4,170.4,195.5
	c3.2,2.3,5.1,1.4,7.8-0.3c30.1-19,57.2-41.6,82.8-66.2c72.6-69.9,113-154.6,118.6-255.6C505.4,207.9,506.8,171.3,506.5,142z"/>
<path class="st2" d="M506.5,142c0.4,29.3-1,65.9-3.1,102.5c-5.6,101-46.1,185.7-118.6,255.6c-25.6,24.6-52.7,47.3-82.8,66.2
	c-2.7,1.7-4.6,2.6-7.8,0.3c-71.9-52-131.5-114.8-170.4-195.5c-14.6-30.3-22.2-62.8-27-96c-10.1-68.6-7.9-137.7-8.2-206.7
	c0-4.3,2.1-5.2,5.5-6.3c40.6-13.8,82.1-23.7,124.7-28.9c29-3.5,58.1-6,87.3-5.1c61.4,1.9,121.7,11.4,180.5,29.5c6.5,2,15.2,2,18.8,7
	c3.7,5.1,1,13.4,1,20.3C506.5,101.5,506.5,118.1,506.5,142z M457.4,65.7c0,3.1,0,5.5,0,8c0,18-0.1,36,0.1,53.9
	c0,4.7-0.8,5.6-5.8,4.4c-15.6-3.8-31.3-7.1-47.2-9.8c-4.9-0.8-5.9-2.5-5.8-6.8c0.2-18.9,0-37.8,0.2-56.7c0-4.6-0.7-7-6.1-7.7
	c-18.2-2.3-36.4-5-54.8-6.5c-5.4-0.4-6.4,1.4-6.4,6.4c0.3,18.4-0.2,36.9,0.3,55.3c0.2,6.6-2.2,7.6-7.9,7.2
	c-18.9-1.4-37.8-1.5-56.6-0.1c-4.4,0.3-4.9-1.5-4.8-5.1c0.1-19.6,0-39.2,0.1-58.8c0-3.8-0.9-5.2-5-5.1c-19.3,0.8-38.4,3.9-57.6,6.4
	c-4.5,0.6-5.3,2.5-5.3,6.6c0.2,19.4,0,38.7,0.2,58.1c0,4.2-0.8,5.9-5.5,6.6c-17.2,2.5-34.2,6.5-51,11c-8.1,2.2-8,2.5-8-6.3
	c0-18-0.2-36,0.1-53.9c0.1-4.9-1.8-5.6-5.7-4.3c-6.7,2.2-13.4,4.7-20.2,6.9c-3.3,1.1-4.6,2.8-4.5,6.5c0.6,57.5-1.5,115.1,4.7,172.6
	c3,27.4,7.7,54.5,15.9,80.8c2.4,7.6,4.3,15.5,9.7,24c0-7.2,0.3-12.5-0.1-17.7c-0.3-3.8,1.3-5.6,4.6-6.3c17.6-3.3,35.2-6.4,52.7-10
	c6.5-1.3,7.4,1.2,7.3,7c-0.3,41-0.1,82.1-0.2,123.1c0,4.2,1.3,7.2,4,10.4c12.9,15.1,26.9,29,41.4,42.5c6.9,6.4,13.6,13.2,22.3,18.7
	c0-7.5,0.2-14-0.1-20.4c-0.2-4.1,0.8-5.7,5.3-5.3c5.2,0.4,10.9,0.8,15.5-2.2c2.7-1.7,4.1-1.5,7.1-0.3c9.6,3.9,19.8,3.9,29.6,0.2
	c5.8-2.2,11.7,0.8,11.7,7c0.1,7.9,0,15.7,0,24.7c23.2-17.5,43.6-36,62.4-56.2c3.4-3.7,4.8-7.3,4.7-12.2
	c-0.2-42.9-0.1-85.7-0.1-128.6c0-1.6,0.1-3.2,0-4.8c-0.1-2.7,1-3.8,3.7-3.2c16.6,3.3,33.3,6.6,49.9,9.8c4.3,0.8,5.2,3.1,5.1,7.1
	c-0.2,11.8-0.1,23.5-0.1,35.3c0,1.6-0.7,3.5,1.3,5.2c16.3-32.5,24.5-66.9,29.3-102.2c3.5-25.3,4.8-50.8,5.9-76.3
	c1.8-41.3,0.4-82.5,1.1-123.7c0-2.1,0-3.6-2.8-4.5C481,72,469.7,68.7,457.4,65.7z"/>
<path class="st0" d="M457.4,65.7C469.7,68.7,481,72,492.2,76c2.8,1,2.8,2.4,2.8,4.5c-0.6,41.2,0.7,82.5-1.1,123.7
	c-1.1,25.5-2.4,51-5.9,76.3c-4.8,35.3-13.1,69.7-29.3,102.2c-2-1.7-1.3-3.6-1.3-5.2c-0.1-11.8-0.2-23.5,0.1-35.3
	c0.1-4-0.8-6.3-5.1-7.1c-16.7-3.1-33.3-6.5-49.9-9.8c-2.7-0.5-3.9,0.5-3.7,3.2c0.1,1.6,0,3.2,0,4.8c0,42.9-0.1,85.7,0.1,128.6
	c0,5-1.3,8.6-4.7,12.2c-18.8,20.2-39.1,38.6-62.4,56.2c0-9,0.1-16.8,0-24.7c-0.1-6.3-5.9-9.2-11.7-7c-9.8,3.7-19.9,3.7-29.6-0.2
	c-3-1.2-4.3-1.5-7.1,0.3c-4.6,2.9-10.3,2.6-15.5,2.2c-4.5-0.4-5.5,1.2-5.3,5.3c0.3,6.4,0.1,12.9,0.1,20.4
	c-8.7-5.6-15.4-12.3-22.3-18.7c-14.5-13.5-28.5-27.4-41.4-42.5c-2.8-3.2-4-6.2-4-10.4c0.1-41,0-82.1,0.2-123.1c0-5.8-0.8-8.3-7.3-7
	c-17.5,3.5-35.2,6.6-52.7,10c-3.3,0.6-4.9,2.5-4.6,6.3c0.4,5.2,0.1,10.6,0.1,17.7c-5.4-8.5-7.4-16.4-9.7-24
	c-8.2-26.3-13-53.4-15.9-80.8c-6.2-57.4-4-115-4.7-172.6c0-3.7,1.3-5.4,4.5-6.5c6.7-2.2,13.4-4.6,20.2-6.9c3.9-1.3,5.8-0.5,5.7,4.3
	c-0.3,18-0.1,36-0.1,53.9c0,8.8-0.1,8.5,8,6.3c16.8-4.5,33.8-8.5,51-11c4.7-0.7,5.5-2.5,5.5-6.6c-0.2-19.4,0-38.7-0.2-58.1
	c0-4.1,0.8-6,5.3-6.6c19.2-2.4,38.2-5.6,57.6-6.4c4-0.2,5,1.2,5,5.1c-0.2,19.6,0,39.2-0.1,58.8c0,3.6,0.4,5.4,4.8,5.1
	c18.9-1.3,37.8-1.3,56.6,0.1c5.7,0.4,8.1-0.5,7.9-7.2c-0.5-18.4,0-36.9-0.3-55.3c-0.1-5,0.9-6.9,6.4-6.4c18.4,1.5,36.5,4.2,54.8,6.5
	c5.4,0.7,6.1,3.1,6.1,7.7c-0.2,18.9,0,37.8-0.2,56.7c0,4.4,0.9,6,5.8,6.8c15.8,2.7,31.6,6,47.2,9.8c5.1,1.2,5.9,0.3,5.8-4.4
	c-0.2-18-0.1-36-0.1-53.9C457.4,71.3,457.4,68.8,457.4,65.7z M302.7,423.5c0.4-0.7,0.6-1.7,1.2-2.2c9.7-8.1,13.9-18.9,15-31.2
	c0.1-1.7,1.2-3.9-1.9-4.1c-4.6-0.4-13.3,7.6-14.3,12.3c-0.8,4.1-0.9,9-5.6,11.3c-0.6-2.1,1-3.5,1.7-5.1c2.8-6.2,3.4-11.2-3.8-15.3
	c-5.4-3.1-9.4-8.3-12.6-14c2.2-0.6,3.7,1.4,6-0.3c14.1-10.5,29.5-12.3,46.1-5.4c-3.9-11.6-9.4-16-20.5-16.7c-4.1-0.2-8.3-0.4-12.4,0
	c-7.5,0.9-14.9,2.8-21.2,7.1c-3.2,2.2,2.3,5.9-0.6,9c-2.7-6-3.3-12.2-2.7-18.9c-7.5,3.5-11.3,8.2-10.4,16.7
	c1.1,10.5,4.9,19.8,9.9,28.8c-3.6,1.4-3.3-2.3-4.2-3.7c-5.7-8.6-6.9-18.7-8.7-29.2c-10.8,17.5-8.5,37.4,5.3,51
	c9.5,9.4,16.2,8.8,24.5-2.2c-3.3-2.7-8-3.5-10.2-7.7c5.3,0.2,8.2,6.3,13.9,5.6c-1.7,7.8-9.3,9.3-14.6,13.2c6.8,3.1,13.4,4,20.2,0.6
	c1.1,2.4,3.2,1.5,4.8,1.2c15.4-2.8,30.3-20.8,30.6-36.5c0-1.7,0.1-3.9-1.5-4.2c-4.5-0.9-9.1-1.3-13.5,0.4c-4.2,1.5-1.9,5-2.3,7.6
	C319,404.9,315.4,416.8,302.7,423.5z M357.4,243.4c9.5-4.2,8.6-12.2,9.4-19.7c1.2-11.2-2.8-17.3-13.6-20.3
	c-6.7-1.8-13.7-2.2-20.4-2.3c-22.1-0.5-44.2-0.1-66.3-0.3c-4.2,0-5.6,1-5.4,5.4c1.1,25.3,2,50.5,2.8,75.8c0.1,3.9,1.8,4.9,5.1,4.2
	c5.9-1.3,11.9-0.8,17.9-1c19.1-0.8,38.1,1.5,57.2,1.2c12.8-0.2,19.5-4.4,20.3-14.8C365.2,262,369.1,251.1,357.4,243.4z M255.8,286.1
	c-18.7-26.5-37.7-51.6-58.2-75.5c-7.7-9-23.6-6.4-28.7,3.6c-3,5.9-5.9,11.8-8.8,17.8c-10.8,22.3-20.9,45-30,68.1
	c13.8,0.4,24.8-2.4,27.6-17.9c0.2-1.3,1-2.5,1.6-3.8c1-2,2.5-2.9,4.8-3.1c12.5-1.3,25.3-1.8,37.5-4.5c13.8-3.1,23.3,0.2,29.5,12.9
	c1.1,2.2,2.5,4.8,5.7,3.9C242.7,285.9,248.7,286.9,255.8,286.1z M412,207.5c-21.2-0.4-29.9,5.4-31.5,19.9c-1.6,13.4-3.3,26.9-3,40.5
	c0.2,10.8,5,17.8,15.2,21.2c6.3,2.1,12.9,2.7,19.5,3.7c16,2.5,32.1,5.1,48.1,7.5c1.7,0.3,4.9,0.4,5.1-0.1c1.3-4.6,2.9-9.3,2.8-14
	c0-1.8-4.6-2.1-7.2-2.5c-18.1-2.8-36.2-5.5-54.2-8.3c-7.2-1.1-10.1-4.2-9.6-11.6c0.5-8,2-15.9,2.5-23.9c1.1-18.4,7.5-16.7,19.9-15.2
	c18.6,2.2,37,5.8,55.4,9c2.8,0.5,3.7-0.5,4.2-2.9c0.7-3.4,1.5-6.7,2.2-10c0.4-2.2-0.5-3.1-2.9-3.5
	C454.9,213.5,431.8,209.1,412,207.5z M331.7,351.1c0-10.3,0-19.6,0-28.9c0-3.7-2.5-3.8-5.1-3.9c-20-0.5-40-1.5-59.9-0.1
	c-2.1,0.2-4.1-0.2-4.1,3c0.1,10,0,20,0,31C285.7,333.2,308.2,333,331.7,351.1z M262.6,420c0,9.1,0.1,17.7-0.1,26.4
	c-0.1,2.8,1.1,3.4,3.7,3.4c6.8,0.1,13.9-0.8,19.8,3.9c1.1,0.8,2.1,0.2,3.2-0.3c10.7-5.4,21.5-5,32.4-0.3c3,1.3,9.9-1.9,10-5.1
	c0.3-8.7,0.1-17.5,0.1-27C308.1,439.5,283,437.4,262.6,420z M299.4,143.9C299.4,143.9,299.4,143.9,299.4,143.9
	c-4.4,0.1-8.7-0.1-13.1,0.1c-8.4,0.3-12.1,3.9-12.5,12.2c-0.2,4.6-0.1,9.2,0,13.8c0,10.9,3.7,14.9,14.8,15.3c8.5,0.3,17,0,25.5,0.1
	c3.3,0.1,4.4-1,4.4-4.3c0.1-3.6-1.6-4.1-4.6-4.1c-8.5,0.1-17,0-25.5,0.1c-4.1,0-4.9-2.3-5-5.8c-0.1-4.2,2.6-3.5,5.1-3.5
	c8.3,0,16.6,0,24.8,0c2.6,0,4.9,0.4,5-3.6c0.1-4.1-2.4-3.6-4.9-3.6c-8.5,0-17-0.3-25.5,0.1c-5.4,0.2-4.9-2.9-4.1-6.1
	c0.8-3,4-2.8,6.4-2.9c7.8-0.2,15.6-0.2,23.5-0.1c3.1,0.1,4.5-0.7,4.5-4.2c0-3.4-1.7-3.7-4.3-3.6C309,144,304.2,143.9,299.4,143.9z
	 M341.4,495.2c13.6,0,17.9-3.4,17.1-14.4c-0.3-4.4-0.7-8.7-0.1-13.3c0.8-6.8-2.2-9.8-9.2-11.2c-5.1-1-10-0.9-15,0
	c-7,1.4-10.6,6.7-8.8,13.6c0.5,2,1.6,3.8,0.9,5.9C322,487.7,327.2,496.2,341.4,495.2z M277.8,481.2c-0.6,3.9-2.7,5.4-5.8,5.5
	c-3.6,0.1-7.3,0.6-10.7-1.7c-2.6-1.7-6.6-2.3-8,0.1c-1.8,3.1,1.1,5.9,3.9,7.9c0.4,0.3,0.8,0.5,1.2,0.7c15.2,7.2,27.8-0.6,27.8-17.2
	c0-1.4-0.1-2.8,0-4.1c1-13.1-3.2-16.3-16.6-16.6c-2.7-0.1-5.5,0.5-8.2,0.8c-6.3,0.6-8.6,4.7-8.9,10.3c-0.3,5.7,0.3,11.1,7.1,13.3
	C265.5,482.1,271.4,481.3,277.8,481.2z M313.8,481.5c-0.5,4-2.9,5-5.4,5.2c-3.6,0.2-7.3,0.4-10.7-1.6c-2.7-1.6-6.8-2.8-8.2,0.5
	c-1.3,2.9,1.4,6,4.5,7.6c0.6,0.3,1.3,0.6,1.9,0.7c15.7,3.4,28.8,2,26.5-18c-0.1-0.9,0-1.8,0-2.8c0-15-3.7-18.5-18.9-17.5
	c-2.1,0.1-4.1,0.4-6.1,0.9c-5,1.1-8.1,4-8.3,9.5c-0.2,5.9-0.3,11.6,6.8,14.1C301.6,482.2,307.6,481.1,313.8,481.5z M235.1,185.4
	c5.1,0,9.2-0.2,13.4,0.1c3.5,0.2,4.8-0.9,4.8-4.6c0-4-2.2-3.8-4.8-3.7c-3.9,0.1-7.8,0.1-11.8,0c-21.5-0.3-17.7,3.1-18.3-18.9
	c-0.1-4.5,1.6-6.3,6-6.2c8.3,0.1,16.6-0.1,24.9,0c3.1,0,4-1.2,4-4.1c0-2.8-0.5-4.2-3.7-4.1c-9.9,0.2-19.8-0.1-29.7,0.2
	c-6.8,0.2-10.5,4.1-10.9,10.9c-0.3,6.2-0.2,12.4,0,18.7c0.2,6,3.1,9.7,9.3,11C224,185.9,230,185.1,235.1,185.4z M337.4,381.7
	c1.6-7.8-3-10.4-8.6-12c-11.4-3.2-22.5-2.7-33.2,2.8c-9.4,4.8-9.4,6.6-1.5,13.5c5,4.4,9,5.6,15.2,1.4
	C317.4,381.8,327.1,379.9,337.4,381.7z M250.1,475.7c0-3.7,0-7.4,0-11.1c0-9.9,0-9.9-10.1-8.9c-1.6,0.1-3.5-0.2-3.8,2
	c-0.2,2-1,5.4,0.6,5.8c6.6,1.7,4.1,6.7,4.3,10.6c0.3,5.5,0.3,11.1,0,16.6c-0.2,3.7,1.2,4.7,4.8,4.7c3.4,0,4.4-1.2,4.3-4.4
	C250,485.9,250.1,480.8,250.1,475.7z M318.7,351c-10.1-6.8-20.8-7.8-32.2-5.2c-6.8,1.5-8.4,5.1-6.7,11.7
	C292.3,351.8,305,348,318.7,351z M328.9,174.5c-4.6-0.7-4.4,2.6-4.5,5.6c-0.1,3.1,0.5,5.3,4.5,5.3c4.2,0.1,5-2,5-5.6
	C333.7,176.7,333.4,173.8,328.9,174.5z M268.2,180.1c0.3-3.3-0.1-5.7-4.5-5.8c-4.4,0-4.7,2.4-4.7,5.7c-0.1,3.6,1.1,5.6,5.1,5.5
	C267.9,185.4,268.5,183.2,268.2,180.1z"/>
<path class="st1" d="M357.4,243.4c11.7,7.7,7.8,18.6,7,28.1c-0.9,10.4-7.5,14.6-20.3,14.8c-19.1,0.2-38.1-2-57.2-1.2
	c-6,0.2-12-0.3-17.9,1c-3.3,0.7-5-0.3-5.1-4.2c-0.8-25.3-1.7-50.5-2.8-75.8c-0.2-4.3,1.2-5.4,5.4-5.4c22.1,0.2,44.2-0.2,66.3,0.3
	c6.8,0.1,13.7,0.5,20.4,2.3c10.8,3,14.7,9.1,13.6,20.3C366,231.2,366.9,239.2,357.4,243.4z M312.5,269.9c0,0.1,0,0.3,0,0.4
	c8.5,0,17-0.2,25.6,0.1c6.6,0.2,9.1-2.6,9-9c-0.1-9.1-0.9-10.5-8.3-11c-13.8-0.9-27.6-1.4-41.4-1.2c-15.9,0.2-15.7,0-15.2,16.2
	c0.1,3.6,1.2,4.8,4.8,4.7C295.5,269.7,304,269.9,312.5,269.9z M312.4,215.9c-8.2,0-17.2,0-26.1,0c-2,0-4.3-0.5-4.2,2.8
	c0.1,4.6,0.1,9.2,0.1,13.8c0,2.2,1.1,2.7,3,2.7c18.4-0.2,36.8,0.3,55.2,1c8.7,0.3,6.8-7.1,7.2-12.2c0.4-4.9-2.8-6.7-7.4-6.8
	C331.1,217,322.1,216.4,312.4,215.9z"/>
<path class="st1" d="M255.8,286.1c-7,0.8-13.1-0.2-18.9,1.5c-3.2,0.9-4.7-1.7-5.7-3.9c-6.2-12.8-15.7-16.1-29.5-12.9
	c-12.2,2.8-25,3.3-37.5,4.5c-2.4,0.2-3.9,1.1-4.8,3.1c-0.6,1.2-1.4,2.5-1.6,3.8c-2.8,15.5-13.9,18.3-27.6,17.9
	c9.2-23.2,19.3-45.8,30-68.1c2.9-6,5.8-11.9,8.8-17.8c5.1-10,21-12.6,28.7-3.6C218.1,234.6,237.1,259.6,255.8,286.1z M209.5,255.3
	c-8.7-10.6-16.7-20.4-25.1-30.8c-5.8,12.2-11.3,23.6-17,35.7C181.8,258.5,194.9,257,209.5,255.3z"/>
<path class="st1" d="M412,207.5c19.8,1.6,42.9,6,66.2,9.7c2.4,0.4,3.3,1.2,2.9,3.5c-0.6,3.4-1.5,6.7-2.2,10
	c-0.5,2.4-1.4,3.4-4.2,2.9c-18.5-3.2-36.9-6.8-55.4-9c-12.4-1.5-18.8-3.2-19.9,15.2c-0.5,8-2,15.9-2.5,23.9
	c-0.4,7.4,2.4,10.5,9.6,11.6c18.1,2.8,36.2,5.6,54.2,8.3c2.7,0.4,7.2,0.7,7.2,2.5c0.1,4.7-1.4,9.4-2.8,14c-0.1,0.5-3.4,0.3-5.1,0.1
	c-16.1-2.5-32.1-5-48.1-7.5c-6.5-1-13.2-1.6-19.5-3.7c-10.2-3.4-14.9-10.4-15.2-21.2c-0.3-13.6,1.5-27,3-40.5
	C382.2,212.9,390.8,207.1,412,207.5z"/>
<path class="st2" d="M331.7,351.1c-23.5-18.1-46-17.9-69.1,1.2c0-11.1,0.1-21,0-31c0-3.2,2-2.9,4.1-3c20-1.4,40-0.5,59.9,0.1
	c2.6,0.1,5.2,0.2,5.1,3.9C331.6,331.5,331.7,340.8,331.7,351.1z"/>
<path class="st1" d="M297.2,409.6c-5.7,0.7-8.6-5.4-13.9-5.6l0.1,0.2c-0.6-4.2-4.3-5.9-7-8.4l0.1,0.1c-5-9-8.9-18.3-9.9-28.8
	c-0.9-8.5,2.9-13.2,10.4-16.7c-0.7,6.8,0,13,2.7,18.9c2.9-3.1-2.6-6.9,0.6-9c6.3-4.3,13.7-6.3,21.2-7.1c4.1-0.5,8.3-0.3,12.4,0
	c11.1,0.7,16.6,5.1,20.5,16.7c-16.7-6.9-32.1-5.1-46.1,5.4c-2.3,1.7-3.8-0.3-6,0.3c3.3,5.7,7.2,10.9,12.6,14
	c7.2,4.2,6.6,9.1,3.8,15.3c-0.7,1.6-2.3,3-1.7,5.1L297.2,409.6z"/>
<path class="st2" d="M262.6,420c20.4,17.3,45.6,19.5,69.1,1c0,9.5,0.2,18.3-0.1,27c-0.1,3.1-7.1,6.4-10,5.1
	c-10.8-4.8-21.6-5.2-32.4,0.3c-1.1,0.5-2.1,1.2-3.2,0.3c-5.9-4.7-13-3.8-19.8-3.9c-2.6,0-3.7-0.6-3.7-3.4
	C262.7,437.8,262.6,429.1,262.6,420z"/>
<path class="st1" d="M299.4,143.9c4.8,0,9.7,0.1,14.5,0c2.6-0.1,4.3,0.2,4.3,3.6c0,3.5-1.4,4.3-4.5,4.2c-7.8-0.1-15.6-0.1-23.5,0.1
	c-2.4,0.1-5.6-0.2-6.4,2.9c-0.9,3.1-1.3,6.3,4.1,6.1c8.5-0.4,17-0.1,25.5-0.1c2.6,0,5-0.5,4.9,3.6c-0.1,4-2.4,3.7-5,3.6
	c-8.3,0-16.6,0-24.8,0c-2.5,0-5.2-0.6-5.1,3.5c0.1,3.5,0.9,5.8,5,5.8c8.5-0.1,17,0.1,25.5-0.1c3,0,4.6,0.4,4.6,4.1
	c-0.1,3.3-1.1,4.4-4.4,4.3c-8.5-0.2-17,0.1-25.5-0.1c-11-0.4-14.7-4.4-14.8-15.3c0-4.6-0.2-9.2,0-13.8c0.4-8.3,4.1-12,12.5-12.2
	C290.6,143.9,295,144,299.4,143.9C299.4,143.9,299.4,143.9,299.4,143.9z"/>
<path class="st1" d="M341.4,495.2c-14.2,0.9-19.4-7.5-15.2-19.2c0.8-2.2-0.3-4-0.9-5.9c-1.8-6.8,1.9-12.2,8.8-13.6c5-1,10-1,15,0
	c6.9,1.3,10,4.4,9.2,11.2c-0.6,4.5-0.2,8.8,0.1,13.3C359.3,491.8,355,495.3,341.4,495.2z M342,478.5c-3.1,1-8.5-2-8.3,4.1
	c0.2,5.3,5.1,4.1,8.4,4.1c3,0,7.5,1.4,7.6-4C350,476,344.6,479.8,342,478.5z M343.2,470.3c1.8-0.4,6.2,0.4,6.3-3.1
	c0.1-4.5-4.5-1.9-7-2.7c-0.6-0.2-1.4-0.2-2.1,0c-2.2,0.5-6.2-0.9-6.1,2.4c0,3.1,3.8,3.1,6.6,3.3
	C341.3,470.3,341.7,470.3,343.2,470.3z"/>
<path class="st1" d="M342.5,149.2c-0.4-4,0.7-5.6,5.2-5.7c4.9,0,4.3,2.7,4.3,5.7c0,6.7,0,13.4,0,20c0,5.4,2.3,8.1,8,7.7
	c4.6-0.3,9.2-0.2,13.8,0c5,0.2,7.1-2.5,7.2-7.2c0.1-7.4,0.2-14.7-0.1-22.1c-0.1-3.6,1.4-4.2,4.5-4.1c2.7,0.1,5.1,0,4.9,3.9
	c-0.5,9.2,0.5,18.4-0.7,27.6c-0.7,5.5-3.5,8.3-8.5,9.2c-9.1,1.7-18.3,1.3-27.5,0.4c-6.2-0.6-10.1-4-10.4-10.7
	C342.9,169,342.8,152.4,342.5,149.2z"/>
<path class="st1" d="M277.8,481.2c-6.4,0.1-12.3,0.9-18.1-1c-6.7-2.3-7.4-7.6-7.1-13.3c0.3-5.6,2.6-9.7,8.9-10.3
	c2.7-0.3,5.5-0.8,8.2-0.8c13.4,0.3,17.6,3.5,16.6,16.6c-0.1,1.4,0,2.8,0,4.1c0,16.6-12.6,24.4-27.8,17.2c-0.4-0.2-0.8-0.4-1.2-0.7
	c-2.8-1.9-5.7-4.8-3.9-7.9c1.4-2.4,5.4-1.9,8-0.1c3.4,2.3,7,1.8,10.7,1.7C275,486.6,277.2,485.1,277.8,481.2z M269.6,464.4
	c-1.8,0.1-3.6,0.3-5.5,0.4c-1.9,0.1-3,0.9-2.9,3c0.1,1.8-0.4,3.7,2.2,4.3c4.1,1,8.1,1.2,12.1-0.2c1.9-0.6,2.4-1.9,2.3-3.7
	c-0.1-1.9-1-3.1-2.8-3.3C273.3,464.6,271.5,464.5,269.6,464.4z"/>
<path class="st1" d="M313.8,481.5c-6.2-0.4-12.2,0.6-18-1.4c-7.1-2.5-7-8.2-6.8-14.1c0.2-5.4,3.2-8.4,8.3-9.5c2-0.4,4.1-0.7,6.1-0.9
	c15.2-1,18.9,2.4,18.9,17.5c0,0.9-0.1,1.9,0,2.8c2.3,20-10.8,21.4-26.5,18c-0.7-0.1-1.3-0.4-1.9-0.7c-3.1-1.7-5.8-4.7-4.5-7.6
	c1.5-3.3,5.5-2.1,8.2-0.5c3.5,2,7.1,1.8,10.7,1.6C310.9,486.5,313.3,485.5,313.8,481.5z M305.9,464.4c-2.8,0.6-6.2-0.9-8.2,2.1
	c-1,1.5-0.9,3.6,0.7,5c1.9,1.8,13,1.9,14.6,0c1.3-1.5,1.4-3.6,0.5-5.1C311.7,463.6,308.5,465,305.9,464.4z"/>
<path class="st1" d="M235.1,185.4c-5-0.4-11,0.5-17-0.8c-6.1-1.3-9.1-5.1-9.3-11c-0.2-6.2-0.3-12.5,0-18.7
	c0.3-6.8,4.1-10.7,10.9-10.9c9.9-0.3,19.8,0,29.7-0.2c3.2-0.1,3.7,1.4,3.7,4.1c0,2.9-0.9,4.1-4,4.1c-8.3-0.1-16.6,0.1-24.9,0
	c-4.4,0-6.1,1.7-6,6.2c0.5,22.1-3.3,18.6,18.3,18.9c3.9,0.1,7.8,0.1,11.8,0c2.7-0.1,4.9-0.2,4.8,3.7c0,3.7-1.3,4.8-4.8,4.6
	C244.3,185.2,240.1,185.4,235.1,185.4z"/>
<path class="st1" d="M283.3,403.9c2.1,4.2,6.8,5.1,10.2,7.7c-8.3,11-15,11.6-24.5,2.2c-13.8-13.6-16.1-33.5-5.3-51
	c1.8,10.5,3,20.7,8.7,29.2c0.9,1.4,0.6,5.1,4.2,3.7c0,0-0.1-0.1-0.1-0.1c0.2,4.5,3.4,6.7,7,8.4L283.3,403.9z"/>
<path class="st1" d="M337.4,381.7c-10.3-1.9-20,0.1-28.2,5.7c-6.2,4.2-10.2,3.1-15.2-1.4c-7.9-7-7.8-8.7,1.5-13.5
	c10.7-5.5,21.8-6,33.2-2.8C334.5,371.4,339,374,337.4,381.7z"/>
<path class="st1" d="M302.7,423.5c12.7-6.7,16.4-18.6,18.2-31.7c0.4-2.6-1.9-6.1,2.3-7.6c4.5-1.6,9.1-1.3,13.5-0.4
	c1.6,0.3,1.6,2.5,1.5,4.2c-0.3,15.7-15.3,33.7-30.6,36.5c-1.6,0.3-3.7,1.2-4.8-1.2C302.8,423.4,302.7,423.5,302.7,423.5z"/>
<path class="st1" d="M297.1,409.7c4.7-2.3,4.8-7.1,5.6-11.3c1-4.7,9.7-12.7,14.3-12.3c3.1,0.2,2,2.4,1.9,4.1
	c-1.1,12.3-5.2,23-15,31.2c-0.6,0.5-0.8,1.4-1.2,2.2c0,0,0.1-0.1,0.1-0.1c-6.7,3.4-13.4,2.4-20.2-0.6c5.3-3.9,12.8-5.4,14.6-13.2
	C297.2,409.6,297.1,409.7,297.1,409.7z"/>
<path class="st1" d="M250.1,475.7c0,5.1-0.2,10.1,0.1,15.2c0.1,3.2-0.9,4.4-4.3,4.4c-3.6,0-5-1-4.8-4.7c0.2-5.5,0.3-11.1,0-16.6
	c-0.2-3.8,2.3-8.8-4.3-10.6c-1.6-0.4-0.8-3.8-0.6-5.8c0.2-2.2,2.2-1.8,3.8-2c10.1-1,10.1-0.9,10.1,8.9
	C250.1,468.3,250.1,472,250.1,475.7z"/>
<path class="st1" d="M318.7,351c-13.7-3-26.4,0.8-38.9,6.5c-1.7-6.5,0-10.1,6.7-11.7C297.9,343.2,308.6,344.2,318.7,351z"/>
<path class="st1" d="M328.9,174.5c4.5-0.7,4.8,2.2,4.9,5.4c0.1,3.5-0.8,5.6-5,5.6c-3.9-0.1-4.5-2.3-4.5-5.3
	C324.5,177.1,324.2,173.8,328.9,174.5z"/>
<path class="st1" d="M268.2,180.1c0.4,3.1-0.3,5.3-4.2,5.4c-4,0.1-5.2-1.9-5.1-5.5c0.1-3.2,0.4-5.7,4.7-5.7
	C268.1,174.4,268.5,176.8,268.2,180.1z"/>
<path class="st0" d="M312.5,269.9c-8.5,0-17-0.1-25.6,0.1c-3.6,0.1-4.6-1-4.8-4.7c-0.6-16.1-0.7-16,15.2-16.2
	c13.8-0.1,27.6,0.3,41.4,1.2c7.4,0.5,8.3,1.9,8.3,11c0,6.4-2.5,9.2-9,9c-8.5-0.3-17-0.1-25.6-0.1C312.5,270.1,312.5,270,312.5,269.9
	z"/>
<path class="st0" d="M312.4,215.9c9.8,0.5,18.7,1,27.7,1.3c4.7,0.1,7.8,2,7.4,6.8c-0.4,5,1.5,12.5-7.2,12.2
	c-18.4-0.6-36.8-1.2-55.2-1c-1.9,0-3-0.5-3-2.7c0-4.6,0.1-9.2-0.1-13.8c-0.1-3.3,2.2-2.8,4.2-2.8
	C295.2,215.9,304.2,215.9,312.4,215.9z"/>
<path class="st0" d="M209.5,255.3c-14.6,1.7-27.7,3.2-42.1,4.9c5.8-12.1,11.2-23.5,17-35.7C192.9,234.8,200.9,244.6,209.5,255.3z"/>
<path class="st0" d="M283.5,404.1c-3.6-1.8-6.7-3.9-7-8.4C279.2,398.2,282.8,399.9,283.5,404.1z"/>
<path class="st0" d="M342,478.5c2.7,1.3,8.1-2.5,7.8,4.2c-0.2,5.4-4.6,4-7.6,4c-3.3,0-8.2,1.2-8.4-4.1
	C333.5,476.5,338.9,479.5,342,478.5z"/>
<path class="st0" d="M343.2,470.3c-1.4,0-1.9,0-2.3,0c-2.7-0.2-6.5-0.2-6.6-3.3c0-3.4,3.9-1.9,6.1-2.4c0.7-0.1,1.4-0.2,2.1,0
	c2.5,0.8,7.1-1.8,7,2.7C349.4,470.6,344.9,469.8,343.2,470.3z"/>
<path class="st0" d="M269.6,464.4c1.8,0.2,3.7,0.2,5.5,0.5c1.8,0.3,2.7,1.5,2.8,3.3c0,1.8-0.4,3.1-2.3,3.7c-4,1.3-8.1,1.1-12.1,0.2
	c-2.6-0.6-2.1-2.6-2.2-4.3c-0.1-2,1-2.9,2.9-3C266,464.7,267.8,464.5,269.6,464.4z"/>
<path class="st0" d="M305.9,464.4c2.6,0.6,5.8-0.8,7.6,2c1,1.5,0.9,3.6-0.5,5.1c-1.6,1.9-12.7,1.8-14.6,0c-1.6-1.5-1.6-3.6-0.7-5
	C299.7,463.5,303.1,465,305.9,464.4z"/>
<polygon class="st1" points="312.2,95.9 298.2,88.9 284.5,96.5 286.8,81 275.4,70.2 290.9,67.7 297.5,53.5 304.7,67.4 320.3,69.4 
	309.3,80.5 "/>
</svg>
