<svg xmlns="http://www.w3.org/2000/svg" xmlns:xlink="http://www.w3.org/1999/xlink" viewBox="0 0 1200 606.05"><defs><style>.cls-1{fill:none;}.cls-2{clip-path:url(#clip-path);}.cls-3{fill:#c00;}.cls-4{fill:gold;}.cls-5{fill:#939598;}</style><clipPath id="clip-path" transform="translate(66.45)"><path class="cls-1" d="M861.05,6.05A25,25,0,0,1,886,31v538.1a24.9,24.9,0,0,1-24.9,24.9H30.85A24.82,24.82,0,0,1,6,569.15V31a25,25,0,0,1,24.9-24.9h830.2"/></clipPath></defs><g id="Layer_2" data-name="Layer 2"><g id="svg10"><g class="cls-2"><path id="path2" class="cls-3" d="M-66.45,6.05h1200v600h-1200Z" transform="translate(66.45)"/><path id="path11728" class="cls-4" d="M133.55,43.55l-8.42,25.91H97.89l22,16-8.42,25.91,22-16,22,16-8.42-25.91,22.05-16H142Zm0,13.5,5.39,16.58h17.44L142.27,83.88l5.39,16.59L133.55,90.22l-14.11,10.25,5.39-16.59-14.1-10.25h17.43Z" transform="translate(66.45)"/><g id="g2900"><path id="rect4165-6" class="cls-4" d="M73.35,179.23,92,198l17.6-17.43c26.77,28.64,54.85,56.24,81.41,85a10.24,10.24,0,0,0,14.55-14.42c-28.51-26.83-57.11-53.87-85.63-80.8l23.71-23.49-33-4.55Z" transform="translate(66.45)"/><path id="path4179-3" class="cls-4" d="M133.55,118.55c15.35,8.62,27,21,33.88,33.94,7,13.11,10,26.8,10.1,37.74a40.77,40.77,0,0,1-71,27.22l-4.12,3.46a6.4,6.4,0,0,0-2.2-.41,6.17,6.17,0,0,0-4.7,2.18,7.72,7.72,0,0,0-6.34,5.22A26.58,26.58,0,0,1,74,241.2l-.17.08a24.47,24.47,0,0,0-8.7,5.72c-5.13,5.17-7.64,11.78-6.23,16.42a3.77,3.77,0,0,0-.21,1.25,3.89,3.89,0,0,0,3.89,3.88,4,4,0,0,0,1.56-.33c4.64,1,10.95-1.53,15.88-6.47A24.07,24.07,0,0,0,86,252.34a26.21,26.21,0,0,1,13.48-14.85,2.41,2.41,0,0,0,.37-.22,7.69,7.69,0,0,0,4.18-5.15A54.08,54.08,0,0,0,144.1,251c29.52.7,51.58-21,52.6-52.13.51-15.68-5.57-35.9-19.43-52.49a87,87,0,0,0-43.72-27.83Z" transform="translate(66.45)"/></g></g><path class="cls-5" d="M861.1,6A25,25,0,0,1,886,30.9V569a24.9,24.9,0,0,1-24.9,24.9H30.9A24.82,24.82,0,0,1,6,569.1V30.9A25,25,0,0,1,30.9,6H861.1m0-6H30.9A30.86,30.86,0,0,0,0,30.9H0V569a30.88,30.88,0,0,0,30.9,31H861a30.86,30.86,0,0,0,30.9-30.9V30.9A30.71,30.71,0,0,0,861.1,0Z" transform="translate(66.45)"/></g></g></svg>