<?xml version="1.0" encoding="UTF-8"?>
<svg xmlns="http://www.w3.org/2000/svg" version="1.1" viewBox="0 0 500 500">
  <defs>
    <style>
      .cls-1 {
        fill: #fcfcfc;
      }

      .cls-2 {
        fill: #4a4c4d;
      }

      .cls-3 {
        fill: #070809;
      }

      .cls-4 {
        fill: #808081;
      }

      .cls-5 {
        fill: #bdbdbe;
      }

      .cls-6 {
        fill: #101112;
      }

      .cls-7 {
        fill: #e51e29;
      }

      .cls-8 {
        fill: #bfbfbf;
      }

      .cls-9 {
        fill: #414344;
      }

      .cls-10 {
        fill: #131415;
      }

      .cls-11 {
        fill: #050607;
      }

      .cls-12 {
        fill: #909394;
      }

      .cls-13 {
        fill: #c1c1c1;
      }

      .cls-14 {
        fill: #030405;
      }

      .cls-15 {
        fill: #414142;
      }

      .cls-16 {
        fill: #fefefe;
      }

      .cls-17 {
        fill: #fdfdfd;
      }
    </style>
  </defs>
  <!-- Generator: Adobe Illustrator 28.7.1, SVG Export Plug-In . SVG Version: 1.2.0 Build 142)  -->
  <g>
    <g id="Layer_1">
      <g>
        <path class="cls-8" d="M33.2,209.7c.1,0,.3,0,.4,0,1,.9.9,2.1.9,3.2,0,34.2,0,68.4,0,102.6,0,1.1.1,2.4-.9,3.2h-.2s-.2,0-.2,0v-109Z"/>
        <path class="cls-4" d="M247.7,3.1h5c.2.3.1.5-.2.7-1.5.6-3.1.6-4.6,0-.3-.2-.3-.5-.2-.7Z"/>
        <path class="cls-13" d="M252.7,3.5c0-.1,0-.3,0-.4h4c0,.1,0,.3,0,.4-1.3,1.1-2.6,1.1-4,0Z"/>
        <path class="cls-5" d="M247.7,3.1c0,.1,0,.3,0,.4-1.3,1.1-2.6,1.1-4,0,0-.1,0-.3,0-.4h4Z"/>
        <path class="cls-14" d="M243.7,3.5c1.3,0,2.6,0,4,0,1.7,0,3.4,0,5.1,0,1.3,0,2.6,0,4,0,27.6,1.4,54.7,4.9,81.1,13.5,6,2,12,4.2,17.9,6.6,8.7,3.5,12.7,12.5,9.1,21.3-4.1,10.1-7.2,20.4-7.8,31.4-.4,7.8.2,15.4,3.8,22.5,4.3,8.4,11,13.1,20.5,13.9,15,1.3,29.6-1.1,44-4.7,10.2-2.6,19.5,3.8,20.5,14.2.5,4.9,1,9.7,1.3,14.6.9,18.5,2.3,37.1,2.4,55.6,0,4.4,0,8.8-.3,13.2-.1,1.9.5,2.4,2.2,2.7,4.4.8,8.8,1.8,13.2,2.6,1.6.3,2.2.9,2.2,2.7,0,25.1,0,50.1,0,75.2v93.6c-6.6-1.4-12.9-2.7-19.3-4-13.1-2.6-26.2-5-39.3-7.3-1.7-.3-2.5.2-3.3,1.6-2,3.4-4.1,6.8-6.2,10.2,10.7,2.3,16,11.7,14.3,20.5-.9,4.4-3.7,8.1-5.6,12.1-.7,1.6-1.4,3.2-2.4,4.6-2.2,2.9-2,5.6-.4,8.8,2.8,5.6,5,11.5,7.4,17.3,2.5,6.2,2,12.1-2.4,17.2-4.3,4.8-9.8,6.2-16.1,4.6-17.4-4.3-34.9-7.7-52.6-10.7-2.4-.4-4.6-1.3-6.5-2.8-1-.8-1.5-.7-2.5,0-23,17.5-48,31.4-75.1,41.4-4.9,1.8-9.4,1.3-14.2-.5-25.6-9.6-49.2-22.8-71.1-39.1-2.1-1.6-3.6-1.9-5.9-.5-3.6,2.3-8,2.1-12,2.8-14.9,2.6-29.8,5.7-44.5,9.3-6.5,1.6-12.1.3-16.5-4.7-4.4-5.1-4.8-10.9-2.3-17,2.8-6.8,5.7-13.6,8.6-20.3.5-1.1.5-1.9,0-3-2.6-4.7-5-9.5-7.5-14.3-5.3-10-1.3-21,9.3-24.9,1.3-.5,1.5-.8.7-1.9-2.4-3.8-4.8-7.6-7-11.4-.5-.9-1-1.3-2.1-1.1-9.2,1.7-18.4,3.3-27.6,5-1.9.4-2.9.1-3.8-1.8-8.9-17.9-17.9-35.8-26.9-53.7,0-17,0-34,0-50.9,0-19.4,0-38.8,0-58.1,4.9-1.6,9.9-2.3,14.9-3.4,1.9-.4,2.6-1,2.5-3-.8-19.3.4-38.6,1.9-57.8.6-7.3,1.1-14.7,1.6-22.1.8-11.4,10.1-18.1,21.2-15.3,12.8,3.3,25.8,5.4,39.1,4.9,2.9-.1,5.8-.4,8.6-1.1,11-2.6,16.3-10.6,18.6-20.8,2.9-12.6.7-25-3.1-37.2-.9-2.9-2.2-5.7-3.3-8.6-3.7-9.5,0-18.2,9.5-22.1,23.6-9.6,48-15.3,73.3-17.9,8.4-.8,16.8-1.6,25.3-2Z"/>
        <path class="cls-16" d="M295,75.3c-9.3-6.3-19.6-9.5-30.6-10.8-11.5-1.4-23-2.2-34.3,1-32.9,9.3-54,30.6-62.4,63.8-5,19.7-2.7,39.1,6.2,57.6.8,1.6.5,1.9-1.2,2-2.8,0-5.6.3-8.4.6-1.5.2-2.1-.3-2.7-1.7-4.6-10.7-7.1-21.8-7.7-33.4-2.6-48.8,32.3-92.3,80.6-100.3,50.9-8.5,99.5,24.2,110.6,74.7,4.4,20.1,2.5,39.8-5.5,58.9-.6,1.4-1.1,2.1-3,1.9-18.2-1.5-36.4-3-54.7-3.3-9.5-.2-19.1-.3-28.6-.4-1.3,0-2.2-.4-3.2-1.1-7.5-4.9-14.8-10-23.1-13.5-3.3-1.4-6.7-2.5-10.2-3.1-1.2-.2-1.7-.6-1.8-1.8-.2-3.7-.3-7.4-.6-11.2-.1-1.7,1.2-1.3,2-1.4,6.2-.5,12.4-.8,18.6-1.3,8.5-.8,17-1.7,25.5-2.6.4,0,.8-.2,1.2-.8-4.1-.5-8.2-1.1-12.3-1.5-11-1.1-22.1-2.1-33.2-2.6-1.2,0-1.8-.2-1.7-1.6.3-3.7.4-7.4.7-11.2,0-1,.2-1.8,1.6-2.1,8.2-1.3,15.3-5.1,22.3-9.3,9.1-5.5,17.7-11.9,27-17.3,7.4-4.2,14.9-8,23.5-8.9,14.5-1.6,26.7,2.8,36.4,13.9.4-1.2-.6-2-1.2-2.8-9.3-12.2-21.8-17.4-36.9-16.3-11.2.8-21.2,5.6-30.9,10.9-9.3,5.1-18.1,11-27.7,15.6-3.5,1.7-7.1,3.1-10.9,4-.9.2-1.8.5-1.5-1.2,2.7-15.5,7.3-30.2,16.4-43.3.9-1.3,2-2,3.6-2.4,19.5-4.7,38.7-4.3,57.7,2.6.4,0,1,.3.6-.5Z"/>
        <path class="cls-16" d="M128.5,278.3c0-23.7,0-47.4,0-71.2,0-1.8.4-2.6,2.3-2.8,18.5-2,37.1-3.8,55.7-5.1,3.5-.2,7-.3,10.4-.7,1.4-.1,1.8.3,1.6,1.6,0,.4,0,.8,0,1.2,0,47.2,0,94.4,0,141.6,0,2.3-.5,3.1-2.9,3.1-6.1.1-12.2.6-18.3,1.1-1.9.2-2.3-.3-2.3-2.1,0-27.8,0-55.6.1-83.4,0-2.6-.7-2.9-3-2.6-5.8.7-11.7,1.2-17.6,1.6-1.9.1-2.5.7-2.5,2.8,0,27.7,0,55.4.1,83.1,0,2.4-.6,3-2.9,3.2-6.1.5-12.2,1.2-18.3,2-2.1.3-2.5-.1-2.5-2.1,0-21.5,0-43,0-64.5,0-2.3,0-4.6,0-7Z"/>
        <path class="cls-16" d="M250.2,345.4c-11.9,0-23.9,0-35.8,0-1.5,0-1.8-.4-1.8-1.7,0-21.3,0-42.6,0-64,0-1.1,0-1.8,1.5-1.8,6.7,0,13.4-.2,20.1-.5,1.6,0,2,.4,2,2,0,13.9,0,27.9,0,41.8,0,1.9.4,2.5,2.4,2.4,7.7-.3,15.4-.3,23.1,0,2.2,0,2.5-.7,2.5-2.6,0-20.7,0-41.5,0-62.2,0-1.9-.5-2.6-2.4-2.7-11.8-.8-23.6-1.7-35.4-2.6-4-.3-7.9-.5-11.9-.6-1.4,0-2-.4-2-2,0-17,0-34,0-51,0-1.6.5-2.1,2.1-2.1,18.6-.5,37.1-.6,55.7-.4,5.1,0,10.3.3,15.4.4,1.3,0,1.9.4,1.9,1.8,0,8.7,0,17.4,0,26.1,0,1,0,1.8-1.4,1.7-6.8-.3-13.6-.5-20.4-.6-1.6,0-1.7-.7-1.7-1.9,0-2.1.9-4.8-.3-6-1.4-1.3-4.1-.4-6.2-.4-6.5,0-12.9,0-19.4,0-1.6,0-2.1.4-2,2,.1,4.1.1,8.3,0,12.4,0,1.7.3,2.4,2.2,2.5,8.7.6,17.3,1.4,26,2.2,7.1.7,14.2,1.5,21.3,2.2,1.6.1,2,.7,2,2.3,0,33.8,0,67.5,0,101.3,0,1.8-.6,2.1-2.2,2-11.8,0-23.5,0-35.3,0Z"/>
        <path class="cls-16" d="M455.2,367.9c-10.7-2-21.4-4.1-32.1-6-11.7-2-23.3-4-35-5.7-2.3-.3-2.1-1.4-2.1-2.9,0-42.5,0-84.9,0-127.4s0-10,0-14.9c0-1.9.4-2.5,2.4-2.2,14.1,2.2,28.3,4.5,42.4,7.1,7.5,1.4,14.9,2.9,22.4,4.4,1.5.3,2.2.7,2.2,2.5,0,47.9,0,95.7,0,143.6,0,.6,0,1.1,0,1.7Z"/>
        <path class="cls-16" d="M301.7,272.2c0-23.7,0-47.5,0-71.2,0-2.1.4-2.6,2.6-2.4,21.8,1.3,43.5,3.3,65.1,5.7,2.1.2,2.8.9,2.8,3.1-.1,22.2,0,44.3,0,66.5,0,2.1-.3,2.6-2.6,2.3-6.2-.9-12.5-1.6-18.8-2.1-2.1-.2-2.3-1-2.3-2.7,0-15.1,0-30.2,0-45.3,0-2.2-.4-2.9-2.8-3.1-6.2-.3-12.4-1-18.6-1.7-1.6-.2-2,.2-2,1.8,0,7,0,13.9,0,20.9,0,26.6,0,53.3,0,79.9,0,2,.5,2.6,2.5,2.8,6.3.4,12.6,1,18.8,1.6,1.6.2,2.1-.3,1.9-1.8-.1-1.1,0-2.2,0-3.2,0-3.2,0-3.1,3-2.8,6.2.7,12.3,1.5,18.5,2.1,1.7.2,2.1.8,2,2.5,0,8.4,0,16.8,0,25.1,0,1.8-.5,2.2-2.2,2-12.1-1.5-24.2-2.7-36.3-3.7-9.8-.8-19.7-1.5-29.5-2.1-2-.1-2.4-.7-2.4-2.6,0-23.8,0-47.6,0-71.4Z"/>
        <path class="cls-16" d="M77.2,326.1c4.6-7.8,9.1-15.2,13.6-22.6.6-1,.4-2.1.4-3.2,0-29.2,0-58.4,0-87.6,0-2,.4-2.8,2.6-3.1,6.1-.7,12.1-1.8,18.2-2.8,1.9-.3,2.7-.2,2.7,2.2,0,30.9,0,61.7,0,92.6,0,1.3-.2,2.4-.8,3.6-8.8,17.1-17.5,34.3-26.2,51.5-.7,1.4-1.5,1.9-2.9,2.1-5,.8-9.9,1.7-14.9,2.7-1.3.3-1.9-.2-2.5-1.3-7.2-14.4-14.3-28.7-21.6-43-.5-1-.6-2-.6-3.1,0-31,0-62,0-93.1,0-1.8.5-2.4,2.2-2.7,6.2-1.1,12.4-2.3,18.5-3.7,2.4-.6,2.5.2,2.5,2.2,0,15.7,0,31.4,0,47s0,27.2,0,40.8c0,1.4.2,2.6.8,3.8,2.7,5.7,5.4,11.5,8.3,17.7Z"/>
        <path class="cls-12" d="M251,354c36-.1,71.7,3.1,107.1,9.1,6.3,1.1,10.4,5.9,10.5,12.3,0,.2,0,.3,0,.5.2,2.5-1.1,5.6.5,7.2,1.5,1.5,4.6,1.3,7.1,1.9,7.2,1.6,14.4,3.1,21.6,4.9,7.7,1.9,10.5,8.6,6.8,15.6-2.8,5.3-5.6,10.7-8.5,16-1,1.7-1.1,3.2-.2,5.1,3.2,7.2,6.2,14.5,9.2,21.7.9,2.2,1.4,4.4.9,6.8-1.1,4.6-5.4,7.4-10.2,6.3-14-3.2-27.9-6.3-42.1-8.8-3.8-.7-7.7-1.3-11.5-2-4.2-.8-6.1-3-6.2-7.4,0-4.1,0-8.1,0-12.2,0-1.4-.4-2-1.9-2.2-20.3-2.7-40.7-4.5-61.1-5.2-20.6-.7-41.3-.5-61.9.8-14.5.9-28.9,2.4-43.3,4.3-1.5.2-2,.7-1.9,2.2,0,4,0,8,0,11.9,0,4.8-2,7-6.7,7.7-17.5,2.8-34.9,6.4-52.1,10.5-6.1,1.5-10.6-1.5-11.5-7.3-.3-2,.3-3.8,1.1-5.5,3.2-7.5,6.3-15,9.5-22.4.6-1.3.6-2.4-.1-3.7-3-5.6-5.8-11.4-9-16.9-4.2-7.1,1-14.3,7.1-15.6,8.9-1.9,17.7-4.1,26.7-5.8,2-.4,2.8-1.1,2.6-3.2-.2-2.3-.1-4.7.2-6.9.7-5.6,4.7-9.7,10.3-10.6,13.5-2.3,27-4.1,40.6-5.6,22.1-2.3,44.3-3.6,66.5-3.5Z"/>
        <path class="cls-12" d="M340.8,84.1c-4.1-4.6-7.5-9.8-12.2-13.6-3-2.5-3.3-5-2.5-8.4.9-4,1.6-8.1,2.8-12.1.4-1.2.2-1.8-1.2-2.3-13.7-4.3-27.6-7.5-41.9-9.2-11.6-1.4-23.2-2.6-34.9-2.8-7.9-.1-15.7.6-23.6,1.3-17,1.6-33.8,4.3-50.2,9.4-1.9.6-4.5.7-5.5,2-1.1,1.4.6,3.7,1,5.6.7,4.2,1.5,8.3,2.3,12.5.2,1,0,1.7-.7,2.5-5.4,5.1-10.2,10.6-14.8,17.1-.4-3.1,0-5.8,0-8.5-.5-12.6-3.1-24.6-8.2-36.1-1-2.3-.4-3,1.7-3.8,20.5-8,41.6-13.2,63.5-15.6,13.6-1.5,27.2-3,40.9-2.3,30.9,1.5,61.1,6.2,90,17.8,2.2.9,2.7,1.6,1.7,3.8-4.5,10.2-7.1,20.8-7.9,31.9-.3,2.8,0,5.7-.2,8.5,0,.8.2,1.6-.3,2.4Z"/>
        <path class="cls-12" d="M193.5,432.7c.7-.1,1.4.7,2.2,1.3,16.4,11.5,33.8,21.2,52.4,28.8,1.5.6,2.7.7,4.2,0,18.4-7.4,35.7-17,51.9-28.5,1.8-1.3,3.6-1.7,5.7-1.5,5.7.7,11.4,1.3,17,1.9.7,0,1.7,0,2,.7.4,1-.7,1.4-1.3,1.8-14.5,11.7-30,21.8-46.6,30.3-9.4,4.8-18.9,9.1-28.8,12.7-1.4.5-2.6.5-4,0-26.9-9.9-51.4-24.1-73.9-41.7-.9-.7-1.8-1.3-1.5-2.6.4-1.5,1.7-1.1,2.7-1.2,5.8-.7,11.7-1.3,18-2.1Z"/>
        <path class="cls-12" d="M427.6,140.8c-3.4.6-6.9,1.3-10.3,1.9-16.3,2.8-32.5,4.1-48.8.3-6.9-1.6-6.8-1.7-7.8-8.8-.6-4.3-1.3-8.7-2.7-12.9.4-.4.8-.2,1.3,0,8.7,6.3,18.7,7.6,29,7.7,13.4.2,26.6-2,39.5-5.2,1.9-.5,2.3,0,2.4,1.7.8,12.9,2.6,25.7,2.8,38.7.2,12.6.5,25.2.4,37.8,0,2.2-.6,2.6-2.6,2.2-4-.8-8-1.5-12-2.1-1.6-.2-1.9-.9-1.9-2.4.2-15.3.2-30.7-1.9-45.9-.2-1.7.3-2.7,1.6-3.8,3.8-2.8,7.4-5.7,11.1-8.6,0-.2-.2-.4-.2-.6Z"/>
        <path class="cls-12" d="M72.6,141.4c3.8,3,7.6,6,11.4,8.9,1,.8,1.6,1.5,1.4,2.9-2.1,14.6-2.2,29.3-2,43.9,0,2.2-.7,2.8-2.7,3.1-3.9.6-7.8,1.3-11.7,2.1-1.4.3-1.9.2-2-1.5-.5-9.7,0-19.4.4-29.1.3-8,.4-16.1,1.2-24.1.7-7.5,1.4-15,2-22.5.1-1.8,1-1.4,2.1-1.1,12.8,3.1,25.8,5.3,39.1,5.2,7.3,0,14.5-.9,21.5-3.5,3.5-1.3,6.6-3.3,10-5.9-.8,3.9-1.5,7.2-2.1,10.5-.5,2.6-.9,5.2-1,7.9-.1,1.9-1,2.7-2.7,3.3-10.8,3.5-21.9,4.3-33.1,3.8-10.4-.5-20.6-2.3-30.7-4.3-.9-.3-1-.2-1,.5Z"/>
        <path class="cls-16" d="M186.9,109.9c1,2.9,1.7,5.3,2.9,7.6,3.1,6.2,7.8,10.6,14.7,12.4,1.3.4,1.5.9,1.4,2-.3,3.6-.7,7.3-.9,10.9,0,1.2-.2,1.6-1.7,1.6-8.4-.4-16.9-.5-25.3,0-1.8.1-1.6-.8-1.5-1.9,1-11.5,4.5-22.1,10.5-32.4Z"/>
        <path class="cls-16" d="M186.7,187.9c-3.1-4.9-5.2-10-6.9-15.4-1.7-5.3-2.8-10.7-3.3-16.3-.1-1.4,0-1.9,1.6-1.8,8.4.4,16.7.2,25.1,0,1.4,0,1.8.3,1.9,1.7.2,3.4.5,6.8.8,10.1,0,.9.3,1.8-1,2.1-9.5,2.3-14.3,9.2-17.2,17.9-.1.4-.2.8-.4,1.2,0,0-.1.1-.5.5Z"/>
        <path class="cls-16" d="M229.1,76c-1.2,1.4-2.2,2.5-3.2,3.7-9.4,11.2-14.7,24.4-17.8,38.6-.5,2.3-1.4,1.9-2.8,1.2-3.7-1.9-5.8-5.1-7.2-8.8-1.4-3.5-2-7.1-2.5-10.8-.1-1,0-1.9.7-2.7,8.9-9.7,19.5-16.8,31.9-21.3.1,0,.3,0,1,.2Z"/>
        <path class="cls-12" d="M111.7,334.6c2.9,5.8,6.5,10.9,5.5,17.7-.5,3.5,0,7.1-.1,10.7,0,1.9.6,2.2,2.3,1.9,2.3-.4,4.6-.6,6.9-.9,2.3-.2,3.1.8,2.1,2.8-1.3,2.8-1.9,5.8-1.8,8.9,0,1.5-.5,2-1.9,2.3-6,1.3-6,1.3-9.3-3.8-4.2-6.5-8.1-13.1-11.8-19.9-.6-1.2-.9-2.2-.2-3.5,2.8-5.3,5.4-10.6,8.3-16.3Z"/>
        <path class="cls-12" d="M372.1,364.1c1.2,0,2.3-.5,2.5,1,.1,1,.9.8,1.5.9,3.5.5,7,1.1,10.5,1.5,2,.2,2.2.8,1.1,2.4-1.7,2.4-3.2,4.8-4.7,7.3-.8,1.3-1.6,1.7-3.2,1.4-4-.9-4-.8-4.3-4.8-.2-3.4-1.4-6.6-3.5-9.7Z"/>
        <path class="cls-17" d="M235.3,186.2c-5.4,0-10.8,0-16.3,0-1.1,0-1.2-.6-1.3-1.4-.4-2.3-.9-4.5-1.3-7,7,1.4,13.1,4.3,19,7.6,0,.3,0,.5,0,.8Z"/>
        <path class="cls-1" d="M198.5,186.6c1.5-3.7,3.8-6.7,7.7-8.3,1-.4,1.7-.6,1.8.9,0,.9.3,1.8.6,2.7q1.1,4.4-3.6,4.6c-2,.1-4,.2-6,.3-.1,0-.3-.1-.6-.2Z"/>
        <path class="cls-2" d="M340.8,84.1c.1-3.6-.5-7.3.4-10.9,0,3.6,0,7.2,0,10.8,0,0,0,.2-.1.2-.1,0-.2,0-.3-.1Z"/>
        <path class="cls-15" d="M295,75.3c.6.1,1.1.5,1.4,1.2-.8.1-1.4-.2-2-.6l.6-.5Z"/>
        <path class="cls-9" d="M72.6,141.4c-.4-.1-1-.5-.7-.7.5-.5,1.2-.2,1.7.2-.3.2-.6.3-1,.5Z"/>
        <path class="cls-7" d="M326,179.8h-46.9c0-.1,0-.2-.1-.3,3.2-1.2,6.3-2.4,9.5-3.5q4.4-1.6,4.4-6.1c0-2.7,0-5.3,0-8,0-1.3-.4-1.8-1.7-1.7-3.7,0-7.5,0-11.2,0-1.3,0-1.7.6-2.1,1.6-1.4,4-2.9,8-4.7,12v-47.6c0,0,.2,0,.3-.1,1.5,4.2,3.2,8.4,4.6,12.7.6,1.8,1.4,2.5,3.4,2.3,3.1-.2,6.3,0,9.5,0,1.3,0,2-.2,1.9-1.8,0-4,0-8,0-11.9,0-1.3-.6-1.7-1.6-2.1-3.9-1.4-7.7-2.8-11.5-4.5h46.8c0,0,0,.2.1.3-2.6,1-5.2,1.9-7.9,2.9-2.2.8-5,1.1-6.3,2.6-1.4,1.7-.3,4.6-.4,7,0,2,0,4,0,6,0,1.1.4,1.5,1.5,1.4,4.1,0,8.1,0,12.2,0,1.2,0,1.5-.6,1.8-1.6,1.2-3.5,2.5-7,3.9-10.5.2-.7.3-1.4,1.1-2v47.1c-.1,0-.2,0-.4.1-1.4-3.8-2.9-7.6-4.2-11.5-.6-2-1.6-2.5-3.6-2.4-3.4.2-6.8.1-10.2,0-1.5,0-2.3.2-2.2,2,.1,3.5.1,7,0,10.5,0,1.3.5,1.9,1.7,2.3,4.1,1.4,8.2,3,12.4,4.5,0,.1,0,.3,0,.4Z"/>
        <path class="cls-14" d="M175.1,229.6c0,2.2,0,4.5,0,6.7,0,1.2-.3,1.7-1.6,1.8-6.6.5-13.2,1-19.8,1.7-1.5.2-1.6-.3-1.6-1.5,0-4.5,0-9,0-13.4,0-1.2.3-1.7,1.6-1.8,6.6-.5,13.2-1.1,19.8-1.8,1.5-.2,1.6.4,1.6,1.6,0,2.2,0,4.5,0,6.7Z"/>
        <path class="cls-14" d="M409.4,285.6c0-16.7,0-33.3,0-50,0-1.9,0-2.7,2.5-2.2,6.1,1.3,12.2,2.2,18.3,3.2,1.6.3,2.3.7,2.3,2.6,0,33.6,0,67.2,0,100.7,0,2-.5,2.2-2.3,1.8-6.1-1.2-12.2-2.2-18.3-3.2-1.7-.3-2.4-.8-2.4-2.8,0-16.7,0-33.5,0-50.2Z"/>
        <path class="cls-14" d="M139.6,426.9c6.9,5.7,13.4,11.2,20.2,16.9-2.9,1.3-5.6,1.3-8.2,1.8-15.2,2.6-30.3,5.8-45.2,9.4-1.3.3-2.8,1-4-.3-1.3-1.4-.6-3,0-4.4,3.3-7.9,6.6-15.7,10-23.5,1-2.2.8-4-.3-6.1-3.2-6-6.4-12-9.5-18-1.9-3.5-.9-6,2.9-6.9,9.1-2.1,18.3-4.1,27.4-6.1,1.5-.3,2,.2,2.3,1.6,1.2,5.7,2.6,11.3,3.9,16.9.2.8.4,1.5.7,2.9,0-7.8,0-14.8,0-21.9,0-4.8-.3-9.6-.2-14.4,0-2.9,2.2-5.2,5.3-5.7,12.1-2,24.2-3.7,36.4-5.1,18.5-2.1,37-3.3,55.5-3.8,16-.4,32,0,48,.8,24.2,1.3,48.2,4.1,72.1,8.1,3.6.6,5.4,2.8,5.4,6.5,0,11.6,0,23.2.2,34.9.8-3.5,1.7-7.1,2.5-10.6.7-3,1.4-6,2-9,.3-1.3.8-1.6,2.1-1.3,8.9,2,17.8,3.9,26.7,5.9,4.2,1,5.2,3.3,3.2,7.1-3.2,6.1-6.3,12.2-9.6,18.2-1,1.9-1.1,3.5-.2,5.4,3.5,8,6.8,16,10.2,24,.6,1.4,1.2,2.8,0,4.2-1.2,1.3-2.6.7-4,.4-16.8-4.1-33.8-7.5-50.9-10.3-.8-.1-1.9,0-2.2-.8-.3-.9.9-1.3,1.5-1.8,5.5-4.6,11-9.1,16.5-13.7.4-.4,1-.6,1.1-1.5-73.9-13.4-147.7-13.1-222,0Z"/>
        <path class="cls-16" d="M210.7,389.4c0,2.6,0,5.1,0,7.7,0,4.7-2.2,7-6.8,7.3-1.2,0-2.3.2-3.5.3-3.8.4-6.1-1.8-6.1-5.7,0-5.9,0-11.7,0-17.6,0-2.8,2.6-5.7,5.5-5.9,1.5-.1,3-.2,4.5-.3,4.3-.4,6.5,1.6,6.5,6,0,2.7,0,5.5,0,8.2Z"/>
        <path class="cls-16" d="M321.5,406.9c-.4.2-.5.3-.6.3-4.8.5-7.2-1.9-7.8-6.5-.2-1.4-.9-2.7-1.2-4-.3-1.7-1.5-1.8-2.8-1.7-1.8.1-.9,1.5-.9,2.3-.1,2.2-.1,4.5,0,6.7,0,1.3-.2,1.9-1.8,1.7-4.1-.5-4.1-.4-4.1-4.5,0-7.7,0-15.4,0-23.1,0-1.6.4-2.1,2-1.9,2.7.4,5.4.8,8.2.8,2.9,0,5.2.9,7,3.4,1,1.4,1.8,2.7,1.6,4.5-.1,1.3-.2,2.7,0,4,.3,2.3-.3,4.1-2.4,5.2-1.4.8-1.2,1.9-.8,3.1,1.2,3.3,2.3,6.5,3.5,9.8Z"/>
        <path class="cls-16" d="M234.3,403.3c-3,.7-5.9,0-8-2.9-.3-.5-.8-.8-.9-1.4-.7-3.8,1.2-5.7,5-5,1,.2.9.9.8,1.5-.1,1.7.9,2.1,2.4,2,.9,0,1.8-.2,2.7,0,2.3.3,3.1-.6,3-2.9-.2-3.4,0-3.4-3.5-3.3-1.2,0-2.5.1-3.7.2-4.8,0-6.8-1.9-6.8-6.7,0-.7.1-1.5,0-2.2-.8-3.6,1.6-5.6,3.8-7.8.6-.6,1.3-.6,2.1-.6,1.9,0,3.9.2,5.7-.1,3.2-.5,5.4.7,7.3,3.1.8,1,1.6,4.9.9,5.2-1.6.7-3.4.5-5.1.4-.2,0-.4-.3-.4-.5,0-1,0-2.2-1.3-2.3-2.1-.2-4.3-.5-6.1.4-1.7.9-.7,3-.7,4.6,0,1.3,1.3.5,2,.6,1.2.1,2.5.1,3.7,0,3-.5,5.2.9,7.2,2.8.7.6,1,1.2.9,2.1,0,1.7-.3,3.4,0,5,.7,3.6-1.8,5.4-3.9,7.4-.6.5-1.3.6-2.1.6-1.5,0-3,0-4.9,0Z"/>
        <path class="cls-16" d="M276.5,389.1c0-2.7,0-5.5,0-8.2,0-1.5.4-2.5,1.5-3.7,1.9-2,3.9-3.1,6.7-2.4,1.1.3,2.3.3,3.5.1,3.6-.5,5.6,1.8,7.6,4.1.5.6.6,1.3.6,2.1,0,6,0,12.1,0,18.1,0,2-3.6,5.2-5.7,5.1-2.6-.1-5.1-.3-7.7-.4-1.5,0-2.5-.6-3.7-1.6-2.3-2-3-4.3-2.7-7.2.2-2,0-4.1,0-6.2Z"/>
        <path class="cls-16" d="M327.5,393.5c0-2.7,0-5.5,0-8.2,0-3.3,3.4-6.2,6.7-5.6,1.5.2,3,.7,4.4.7,3.7-.2,6,1.9,7.9,4.6.3.4.7.8.7,1.2,0,1.2.7,2.8-.5,3.6-1,.7-4.9-1-5.3-2.1-.3-1-1-1.5-2-1.6-.8-.1-1.6-.2-2.5-.3-3.5-.6-3.6-.4-3.6,3.1,0,1.3.4,1.8,1.6,1.9.4,0,.8.1,1.2.2,4.4.5,4.7,1,4.1,5.4-.1.9-.4,1.1-1.3.9-.6-.2-1.3-.3-2-.3-1.2,0-3-1.1-3.4-.2-.7,1.7-.4,3.7,0,5.6.1.5.7.9,1.3,1,1.6.2,3.3.4,4.9.7.6,0,1.1-.1,1.5-.7.4-.5-.4-1.8.9-1.7,1.6.2,3.2.5,4.8.9.2,0,.2.8.2,1.2.3,3.8-2.9,6.8-6.7,6.2-2.2-.3-4.4-.8-6.6-.9-1.5-.1-2.5-.8-3.6-1.8-2.3-2.1-3.2-4.6-2.9-7.7.2-2,0-4,0-6Z"/>
        <path class="cls-16" d="M251.2,388.4c0-2.3,0-4.6,0-7,0-2.1.2-3.7,1.9-5.3,1.8-1.7,3.4-2.6,5.9-2.2,1.3.2,2.7.3,4,0,3.5-.7,5.5,1.5,7.5,3.8,1.1,1.3.8,2.9.5,4.3-.3,1-1.8.4-2.7.4-1.4,0-3,.5-3.4-1.9-.2-1.3-2.2-.8-3.4-.9-4.2-.3-4.3-.2-4.3,4,0,3.9,0,7.8,0,11.7,0,1.4.4,2.2,2,2.1,1.4,0,2.8,0,4.2,0,1,0,1.9-.3,1.8-1.5,0-.8.2-1.3,1.1-1.1,1.6.3,3.7-.7,4.6.6.6,1,.8,3.1-.4,4.4-2,2.2-4.1,4.3-7.6,3.5-1-.2-2.2-.3-3.2,0-3.6.8-5.7-1.4-7.8-3.7-.7-.7-.6-1.5-.6-2.3,0-3,0-6,0-9Z"/>
        <path class="cls-16" d="M154.8,386.6c.5.2,1,.3,1.5.5,5.3,2.1,5.3,2.1,5.4,7.7,0,1.3.6,1.8,1.7,2.3,4.5,1.9,8.9,3.9,13.7,6-2.4,1.7-4.5,3.2-6.6,4.7-.8.5-1.4.1-2.1-.2-2.1-.9-4.2-1.8-6.6-2.8.6,5.5-4.5,4.1-7,6.6v-24.8Z"/>
        <path class="cls-17" d="M178.9,383.8c1.2-2.2,2.1-3.9,3.1-5.5.5-.9,5.4-2,6.2-1.4.6.5.3,1.2.3,1.9,0,6.4,0,12.7,0,19.1,0,1.6.3,2.4,2,1.9,1.1-.3,1.7-.1,1.6,1.3-.2,5.2,1.1,4.3-4.3,4.8-2.4.2-4.8.5-7.1.9-1.1.2-1.8,0-1.6-1.3.1-.8,0-1.7,0-2.5-.1-1.4,0-2.4,1.9-2.3,1.4,0,1.7-.7,1.7-2,0-4.1-.1-8.1,0-12.2,0-2.3,0-4-3.7-2.7Z"/>
        <path class="cls-17" d="M169.7,398.2c0-1,0-1.6,0-2.1.9-4.3-1-6.5-5.1-7.7-3.3-1-6.5-2.7-10-4.2,2.5-1.8,4.7-3.4,6.9-5.1.8-.6,1.4-.2,2.1.1,4,1.7,8,3.5,12,5.2,1.1.5,1.4,1.1,1.4,2.2.1,6.5.2,6.5-5.3,10.2-.5.4-1.1.7-2.1,1.4Z"/>
        <path class="cls-10" d="M204.7,391.7c0,1.8-.1,3,0,4.1.3,2.2-.6,3.2-2.8,3-.7,0-1.6.5-1.9-.4-.2-.7-.2-1.6.5-2.3,1.3-1.3,2.5-2.6,4.2-4.4Z"/>
        <path class="cls-6" d="M200,388.3c0-1.8.1-2.9,0-3.9-.4-2.3.4-3.4,2.8-3.1.6,0,1.4-.4,1.8.4.3.7.3,1.5-.3,2.1-1.3,1.4-2.6,2.7-4.3,4.6Z"/>
        <path class="cls-3" d="M315.3,386.6c-.2,1.1.7,2.9-1.9,2.9-5,0-5.4-.2-5.2-3.9,0-1-1.4-3.2,1.3-3.1,5.3.4,6,.4,5.7,4.1Z"/>
        <path class="cls-11" d="M290.5,389.8c0,2.2,0,4.5,0,6.7,0,1.4-.5,2.1-2.1,2-6.8-.4-6.1.7-6.1-6,0-3.2,0-6.3,0-9.5,0-1.9.6-2.7,2.6-2.6,6.6.4,5.5.2,5.6,5.7,0,1.2,0,2.5,0,3.7Z"/>
      </g>
    </g>
  </g>
</svg>