<?xml version="1.0" encoding="utf-8" ?><svg xmlns="http://www.w3.org/2000/svg" xmlns:xlink="http://www.w3.org/1999/xlink" width="1072" height="1072" viewBox="0 0 1072 1072"><path transform="scale(4.288 4.288)" d="M118.576 8.38729C133.088 7.44034 149.337 9.23938 163.405 12.8022C168.174 14.0101 173.209 15.9378 177.732 16.904C174.319 25.8463 172.377 39.7941 174.95 49.0102C180.471 68.7871 205.034 65.5512 220.277 61.1753C219.951 63.976 220.067 68.1744 220.067 71.0924L220.065 87.0903C220.044 114.087 219.566 137.719 209.972 163.261C195.969 200.54 166.944 227.652 131.144 243.971L125.945 246.317C123.351 245.651 119.213 243.396 116.709 242.215C71.9867 221.138 39.5568 181.06 33.6075 131.328C30.8578 108.342 31.3998 84.644 31.5113 61.3311C40.6063 64.4879 55.4106 65.8283 64.4412 62.4813C82.2575 55.878 79.228 31.3204 73.8215 17.2059C85.3324 13.0293 97.3169 10.2965 109.501 9.07019C112.456 8.75201 115.621 8.35379 118.576 8.38729Z"/><path fill="#FEFEFE" transform="scale(4.288 4.288)" d="M118.801 11.8558C121.336 11.6069 125.615 11.66 128.187 11.68C144.192 11.8047 158.221 14.3844 173.388 19.2666C170.612 27.3885 169.197 39.5465 170.989 47.7642C175.852 70.0678 198.551 69.7107 216.503 65.839C216.536 96.5842 218.243 129.103 208.091 158.372C194.61 197.237 167.424 222.576 131.168 240.243L125.684 242.775C121.559 240.61 117.01 238.717 112.654 236.409C99.018 229.31 86.5083 220.231 75.5313 209.468C54.1135 188.285 40.4991 160.474 36.9059 130.566C34.3023 110.24 35.0158 86.6618 34.9275 65.8397C49.4467 68.7891 68.9466 70.789 77.5934 55.5353C83.5956 44.9469 81.2601 30.4886 78.1276 19.2697C92.0606 14.7486 104.26 12.7321 118.801 11.8558Z"/><path transform="scale(4.288 4.288)" d="M121.394 18.8579C135.251 17.6702 152.406 21.2885 165.595 25.3058C159.665 44.1034 165.085 68.5537 186.74 73.55C194.333 75.3018 202.385 74.605 209.912 72.8213C209.528 85.4118 210.375 97.4914 210.243 109.869C210.135 125.926 207.383 141.855 202.099 157.017C189.256 193.369 163.009 217.719 128.841 234.06C127.725 234.532 126.708 235.044 125.627 235.582C121.878 233.744 118.206 232.215 114.406 230.249C101.295 223.6 89.3096 214.934 78.8857 204.569C55.9139 181.429 44.1424 151.311 41.2886 119.12C40.0461 105.104 40.4628 87.5438 40.5171 73.2053C48.4834 75.1894 56.5792 76.0502 64.5853 73.7055C72.4846 71.3933 79.1146 65.9877 82.9702 58.7159C88.1625 49.1499 88.8892 35.3537 85.8329 25.0495C99.166 21.0394 107.315 19.5634 121.394 18.8579Z"/><path fill="#FEFEFE" transform="scale(4.288 4.288)" d="M165.74 57.3405C172.884 71.7831 185.759 77.1108 201.461 75.3393C204 75.0528 206.506 74.5969 209.024 74.1677C208.923 75.475 208.778 76.9161 208.736 78.2158L176.25 106.414L175.617 106.469L175.401 106.926C176.333 121.204 176.419 130.307 166.609 141.945C161.946 147.476 158.041 149.511 153.749 153.796C147.606 136.006 133.282 139.637 119.36 146.224C117.116 147.285 113.102 149.982 110.945 150.507C106.967 150.185 91.0193 155.102 86.9158 156.568C92.8288 150.67 98.331 142.957 100.591 134.829C104.121 122.137 100.149 107.485 93.7934 96.2785L93.6528 95.943L93.018 95.7908C94.5995 95.0221 109.43 95.5323 112.467 95.5011C114.013 93.3601 115.198 90.9807 115.976 88.4572L116.94 88.3884C117.139 87.6601 117.297 86.9216 117.414 86.176C118.496 79.5368 116.954 73.6958 113.043 68.2653L153.601 67.4429C154.388 67.2036 154.77 67.4419 155.571 66.9775L155.538 66.4181C158.573 63.7498 163.029 60.1409 165.74 57.3405Z"/><path fill="#FEFEFE" transform="scale(4.288 4.288)" d="M165.74 57.3405C172.884 71.7831 185.759 77.1108 201.461 75.3393C204 75.0528 206.506 74.5969 209.024 74.1677C208.923 75.475 208.778 76.9161 208.736 78.2158L176.25 106.414L175.617 106.469L175.401 106.926C174.977 105.893 174.349 97.8897 174.227 96.4435L117.46 96.3743C111.259 96.347 105.044 96.5142 98.8412 96.4641C97.1358 96.4503 95.4946 96.4749 93.7934 96.2785L93.6528 95.943L93.018 95.7908C94.5995 95.0221 109.43 95.5323 112.467 95.5011C114.013 93.3601 115.198 90.9807 115.976 88.4572L116.94 88.3884C117.139 87.6601 117.297 86.9216 117.414 86.176C118.496 79.5368 116.954 73.6958 113.043 68.2653L153.601 67.4429C154.388 67.2036 154.77 67.4419 155.571 66.9775L155.538 66.4181C158.573 63.7498 163.029 60.1409 165.74 57.3405Z"/><path fill="#FEFEFE" transform="scale(4.288 4.288)" d="M165.74 57.3405C172.884 71.7831 185.759 77.1108 201.461 75.3393C204 75.0528 206.506 74.5969 209.024 74.1677C208.923 75.475 208.778 76.9161 208.736 78.2158L176.25 106.414C175.856 105.591 175.165 97.2114 174.895 95.5202C170.607 95.3083 165.973 95.4348 161.665 95.5139C168.232 85.0953 167.939 77.9949 164.529 66.5355C161.597 66.3783 158.469 66.6624 155.538 66.4181C158.573 63.7498 163.029 60.1409 165.74 57.3405Z"/><path fill="#242224" transform="scale(4.288 4.288)" d="M153.601 67.4429C154.388 67.2036 154.77 67.4419 155.571 66.9775L155.538 66.4181C158.469 66.6624 161.597 66.3783 164.529 66.5355C167.939 77.9949 168.232 85.0953 161.665 95.5139C165.973 95.4348 170.607 95.3083 174.895 95.5202C175.165 97.2114 175.856 105.591 176.25 106.414L175.617 106.469L175.401 106.926C174.977 105.893 174.349 97.8897 174.227 96.4435L117.46 96.3743C111.259 96.347 105.044 96.5142 98.8412 96.4641C97.1358 96.4503 95.4946 96.4749 93.7934 96.2785L93.6528 95.943L93.018 95.7908C94.5995 95.0221 109.43 95.5323 112.467 95.5011C114.013 93.3601 115.198 90.9807 115.976 88.4572L116.94 88.3884C116.053 91.218 114.838 93.3443 113.416 95.9103C124.769 90.3833 146.075 85.4178 156.118 95.5025L160.751 95.4798L161.04 94.9863C167.193 84.3938 166.967 78.9683 163.912 67.4358C160.813 67.2968 156.929 67.5217 153.601 67.4429Z"/><path fill="#FEFEFE" transform="scale(4.288 4.288)" d="M148.93 92.0921C150.084 92.5114 153.812 93.8454 153.871 95.1123C153.086 95.5675 124.474 95.7275 123.212 95.1616C122.952 93.0574 123.407 92.8142 125.413 92.332C132.241 90.6903 139.236 90.0571 146.181 91.299C147.079 91.5091 148.106 91.7078 148.93 92.0921Z"/><path transform="scale(4.288 4.288)" d="M146.181 91.299C147.079 91.5091 148.106 91.7078 148.93 92.0921C148.64 92.2054 148.118 92.3495 147.97 92.5568L148.001 93.7702C147.556 94.6031 147.814 94.3193 147.008 94.8382C146.058 94.8669 146.431 94.9621 145.601 94.4575C145.119 93.4692 145.267 93.7199 145.321 92.5146C145.611 92.1778 145.924 91.6776 146.181 91.299Z"/><path fill="#FEFEFE" transform="scale(4.288 4.288)" d="M146.181 91.299C147.079 91.5091 148.106 91.7078 148.93 92.0921C148.64 92.2054 148.118 92.3495 147.97 92.5568C147.255 92.5906 146.073 92.5293 145.321 92.5146C145.611 92.1778 145.924 91.6776 146.181 91.299Z"/><path transform="scale(4.288 4.288)" d="M139.235 92.4935C140.099 92.4902 141.217 92.3586 141.858 92.8415C142.113 93.7678 141.976 93.665 141.721 94.7222C140.928 94.8713 140.553 95.0085 139.789 94.7033C139.216 94.1147 139.287 93.3415 139.235 92.4935Z"/><path transform="scale(4.288 4.288)" d="M126.971 92.4801C127.842 92.5088 128.647 92.4503 129.401 92.871C129.879 93.7431 129.721 93.5475 129.598 94.7107C128.797 94.8131 127.953 95.0083 127.3 94.5582C126.81 93.9499 126.937 93.2621 126.971 92.4801Z"/><path transform="scale(4.288 4.288)" d="M132.755 92.5761C133.544 92.544 134.685 92.3808 135.277 92.8369C135.615 93.4592 135.379 94.1185 135.231 94.8217C134.224 94.9094 133.798 94.8964 133.012 94.386C132.635 93.6242 132.693 93.3941 132.755 92.5761Z"/><path transform="scale(4.288 4.288)" d="M159.362 71.1716C160.171 71.1642 160.913 71.0896 161.653 71.4031C162.184 72.2487 161.996 72.2837 161.994 73.4583C161.202 73.5076 160.202 73.6649 159.54 73.2982C159.095 72.689 159.282 71.9395 159.362 71.1716Z"/><path transform="scale(4.288 4.288)" d="M118.552 71.2171C119.368 71.1956 120.156 71.1016 120.902 71.4073C121.425 72.2498 121.24 72.3259 121.245 73.4868C120.409 73.5331 119.717 73.6348 118.928 73.3579C118.37 72.4964 118.565 72.4279 118.552 71.2171Z"/><path transform="scale(4.288 4.288)" d="M145.305 71.2305C146.108 71.1984 146.904 71.0808 147.615 71.4199C148.111 72.247 147.936 72.3648 147.95 73.4798C147.128 73.5262 146.345 73.6478 145.59 73.3434C145.082 72.5018 145.276 72.3949 145.305 71.2305Z"/><path transform="scale(4.288 4.288)" d="M131.838 71.237C132.66 71.198 133.414 71.0882 134.17 71.3991C134.667 72.2515 134.484 72.3493 134.475 73.4967C133.633 73.5323 132.835 73.6581 132.099 73.2787C131.646 72.6936 131.79 71.9862 131.838 71.237Z"/><path transform="scale(4.288 4.288)" d="M138.474 71.3869C139.314 71.3843 140.154 71.3152 140.935 71.6015C141.415 72.3523 141.235 72.5126 141.226 73.5748C140.432 73.6465 139.609 73.8059 138.882 73.5217C138.343 72.6176 138.519 72.582 138.474 71.3869Z"/><path transform="scale(4.288 4.288)" d="M152.018 71.2183C152.857 71.1918 153.533 71.11 154.323 71.3942C154.83 72.2532 154.634 72.2944 154.578 73.48C153.768 73.5269 153.089 73.6321 152.332 73.3443C151.816 72.5006 152.007 72.3838 152.018 71.2183Z"/><path transform="scale(4.288 4.288)" d="M125.144 71.2152C125.951 71.1903 126.668 71.1025 127.415 71.4002C127.948 72.2506 127.773 72.2934 127.818 73.446C126.969 73.5127 126.355 73.6196 125.54 73.3694C124.985 72.4945 125.174 72.4198 125.144 71.2152Z"/><path fill="#FE0000" transform="scale(4.288 4.288)" d="M139.513 107.885L148.193 107.672C143.35 111.483 140.606 113.411 139.209 119.643C139.321 119.63 139.433 119.617 139.545 119.601C146.131 118.714 147.762 116.432 151.505 111.511C151.323 116.878 151.368 128.585 151.797 133.745C147.396 128.554 146.282 126.082 139.132 124.81C140.258 131.515 143.189 133.59 148.336 137.536C144.275 137.252 139.75 137.273 135.644 137.215C132.215 137.156 128.949 136.908 125.524 137.218C131.253 133.673 132.91 131.549 134.068 124.796C127.271 126.318 125.849 128.712 121.7 133.944C122.069 127.198 122.222 118.282 122.014 111.526C126.16 116.782 127.03 118.394 134.017 119.663C132.794 113.235 130.928 111.622 125.8 107.928C130.249 108.133 135.042 107.979 139.513 107.885Z"/><path transform="scale(4.288 4.288)" d="M165.393 100.854C166.161 100.825 167.037 100.701 167.687 101.069C168.139 101.682 167.947 102.482 167.872 103.265C166.726 103.353 166.221 103.515 165.338 102.881C165.084 102.144 165.25 101.611 165.393 100.854Z"/><path transform="scale(4.288 4.288)" d="M158.524 100.69C159.342 100.683 160.147 100.604 160.895 100.915C161.41 101.732 161.205 101.841 161.151 103.012C160.333 103.13 159.593 103.328 158.838 103.021C158.344 102.127 158.52 101.818 158.524 100.69Z"/><path transform="scale(4.288 4.288)" d="M146.042 100.548C146.838 100.541 147.655 100.462 148.382 100.758C148.859 101.626 148.661 101.825 148.617 102.981C147.782 103.019 147.078 103.127 146.321 102.782C145.829 101.85 146.016 101.753 146.042 100.548Z"/><path transform="scale(4.288 4.288)" d="M102.297 100.513C103.075 100.525 104.037 100.447 104.682 100.83C105.134 101.43 104.962 102.164 104.892 102.927C104.126 102.985 103.215 103.159 102.581 102.782C102.097 102.185 102.259 101.311 102.297 100.513Z"/><path transform="scale(4.288 4.288)" d="M139.656 100.704C140.49 100.695 141.283 100.597 142.002 100.991C142.432 101.875 142.261 101.892 142.194 103.014C141.382 103.126 140.717 103.298 139.96 102.997C139.441 102.099 139.639 101.913 139.656 100.704Z"/><path transform="scale(4.288 4.288)" d="M133.43 100.547C134.201 100.533 135.046 100.435 135.715 100.786C136.163 101.394 136.008 102.159 135.978 102.971C135.183 103.013 134.46 103.131 133.75 102.792C133.238 101.848 133.424 101.77 133.43 100.547Z"/><path transform="scale(4.288 4.288)" d="M108.674 100.314C109.53 100.317 110.139 100.277 110.966 100.515C111.544 101.335 111.35 101.327 111.378 102.523C110.533 102.57 109.598 102.714 108.862 102.356C108.401 101.505 108.591 101.456 108.674 100.314Z"/><path transform="scale(4.288 4.288)" d="M114.745 100.512C115.56 100.481 116.401 100.37 117.143 100.674C117.618 101.495 117.425 101.66 117.383 102.78C116.575 102.804 115.835 102.893 115.091 102.592C114.576 101.75 114.757 101.658 114.745 100.512Z"/><path transform="scale(4.288 4.288)" d="M120.844 100.504C121.659 100.468 122.414 100.363 123.166 100.664C123.658 101.501 123.473 101.667 123.463 102.801C122.623 102.819 121.972 102.895 121.187 102.591C120.645 101.749 120.839 101.693 120.844 100.504Z"/><path transform="scale(4.288 4.288)" d="M152.476 100.489C153.319 100.46 154.165 100.328 154.876 100.736C155.285 101.324 155.118 102.026 155.046 102.752C154.304 102.795 153.464 102.924 152.805 102.62C152.313 101.743 152.487 101.635 152.476 100.489Z"/><path transform="scale(4.288 4.288)" d="M127.421 100.482C128.277 100.464 128.896 100.4 129.715 100.66C130.274 101.497 130.086 101.535 130.116 102.72C129.366 102.768 128.47 102.907 127.801 102.613C127.284 101.745 127.457 101.636 127.421 100.482Z"/><path fill="#FEFEFE" transform="scale(4.288 4.288)" d="M50.5692 157.573C54.1688 154.954 61.8401 147.939 65.5637 144.663C72.3255 138.714 80.7447 131.907 87.1453 125.767C84.7696 134.151 81.9676 139.942 76.4358 146.801C75.8739 147.585 74.7399 148.834 74.5735 149.628C75.5944 149.756 79.7586 147.283 81.0973 146.643C86.7242 143.949 90.5512 142.954 96.6596 142.258C92.9151 149.237 89.5376 152.65 84.1237 158.152C87.2838 157.052 108.352 150.792 109.934 151.558C105.375 154.76 99.6765 158.268 94.8595 161.568C97.1624 165.262 99.6547 167.696 103.533 169.751C99.9848 172.29 92.9542 178.681 89.4566 181.809C84.4316 186.303 77.3962 191.839 72.7436 196.425C61.5237 182.915 57.1632 173.465 50.5692 157.573Z"/><path transform="scale(4.288 4.288)" d="M77.6232 175.101C79.0571 175.092 80.5703 176.745 82.1257 176.927C84.532 177.209 89.8853 175.463 91.5647 177.74C91.7735 178.785 91.7245 178.46 91.3859 179.544C89.6242 179.251 88.4027 179.019 86.5969 179.227C83.9205 179.534 75.85 179.644 77.6232 175.101Z"/><path transform="scale(4.288 4.288)" d="M87.8879 170.504C88.6119 170.731 90.353 171.657 91.027 171.714C92.5649 171.844 94.4255 171.496 96.0074 171.742C96.6468 171.842 96.7014 172.056 96.9725 172.494C96.8831 173.177 96.8051 173.258 96.381 173.807C94.1212 174.477 87.4855 174.482 86.6649 171.827C86.886 171.145 87.3162 170.896 87.8879 170.504Z"/><path fill="#FEFEFE" transform="scale(4.288 4.288)" d="M49.747 83.4775C56.1727 83.2579 67.5485 82.3707 72.7712 85.9847C80.2485 91.1588 80.6475 106.002 75.6075 112.895C76.6366 114.961 77.8224 118.207 78.7073 120.421L76.3125 120.468L72.7304 120.437C72.5372 119.339 72.0892 117.844 71.7933 116.738C67.1438 119.197 59.0764 118.641 53.8352 118.552C53.4569 121.052 52.5292 120.914 50.2624 120.738C49.4326 120.674 48.3616 120.692 47.5096 120.688C50.4812 114.243 49.7942 110.357 49.7865 103.364L49.747 83.4775Z"/><path transform="scale(4.288 4.288)" d="M62.6797 92.6514C63.3224 93.0942 67.6213 105.696 68.3126 107.501L64.0625 107.499L57.6003 107.469C58.8708 104.662 61.5717 95.9595 62.6797 92.6514Z"/><path transform="scale(4.288 4.288)" d="M65.7109 87.7202C75.0602 89.3427 74.4146 99.5385 73.654 106.659L73.1055 106.323C71.4279 102.682 69.9199 98.5463 68.385 94.813C67.7513 93.2717 66.0497 89.1802 65.7109 87.7202Z"/><path transform="scale(4.288 4.288)" d="M54.5108 87.498L60.0307 87.5117C58.8768 89.9115 56.9967 95.4519 55.988 98.1572C55.5279 99.1697 54.8028 101.533 54.4169 102.68C54.4989 97.6363 54.4873 92.5458 54.5108 87.498Z"/><path transform="scale(4.288 4.288)" d="M56.094 111.997C60.6529 112.012 65.3322 111.921 69.8655 111.993L70.0294 112.358C69.5918 112.941 68.824 113.233 68.1458 113.579C66.1314 114.261 57.2131 115.177 55.6192 114.232C55.4592 113.491 55.8302 112.753 56.094 111.997Z"/><path fill="#FEFEFE" transform="scale(4.288 4.288)" d="M85.5016 88.0198C94.739 88.3408 106.806 88.5672 115.976 88.4572C115.198 90.9807 114.013 93.3601 112.467 95.5011C109.43 95.5323 94.5995 95.0221 93.018 95.7908C93.1875 97.0238 95.6803 101.807 96.3601 103.457C101.476 115.874 103.304 129.008 97.097 141.418C92.4722 141.688 88.6105 142.422 84.3607 144.31C83.2998 144.782 77.4551 147.653 76.9131 147.624C77.3499 146.906 78.0791 145.982 78.5984 145.304C91.606 128.326 91.7171 107.836 85.5016 88.0198Z"/><path transform="scale(4.288 4.288)" d="M108.528 92.5503C109.321 92.5397 110.553 92.4163 111.168 92.8338C111.578 93.4419 111.379 94.0962 111.266 94.8268C110.387 94.8571 109.704 94.9788 108.985 94.4908C108.503 93.8621 108.557 93.333 108.528 92.5503Z"/><path transform="scale(4.288 4.288)" d="M90.3081 92.5832C91.1419 92.5329 91.7743 92.4408 92.5781 92.6761C93.0609 93.4982 92.8555 93.6342 92.7808 94.7814C92.0068 94.83 91.0918 94.9974 90.4692 94.5908C90.0495 93.7441 90.2275 93.6765 90.3081 92.5832Z"/><path transform="scale(4.288 4.288)" d="M102.305 92.5241C103.155 92.5031 104.029 92.4028 104.806 92.7132C105.258 93.5857 105.065 93.562 104.912 94.7377C104.079 94.8437 103.604 94.9813 102.859 94.6027C102.357 94.0666 102.379 93.2735 102.305 92.5241Z"/><path transform="scale(4.288 4.288)" d="M96.2112 92.5615C97.027 92.5303 98.0362 92.3999 98.7364 92.7546C99.1391 93.6278 98.9594 93.6342 98.824 94.7509C97.9253 94.8539 97.4814 94.9869 96.7167 94.5168C96.205 93.898 96.2533 93.3555 96.2112 92.5615Z"/><path fill="#FEFEFE" transform="scale(4.288 4.288)" d="M108.57 54.5153C120.064 54.4928 131.539 54.8326 143.035 54.7556C143.221 55.1422 143.402 55.5308 143.579 55.9212C145.407 59.9591 145.099 62.7793 143.595 66.7499L140.15 66.7182C138.289 66.3761 135.464 65.1445 133.056 64.6819C124.303 63.0009 117.168 64.9104 109.319 68.539C110.803 63.7136 110.898 59.0948 108.57 54.5153Z"/><path transform="scale(4.288 4.288)" d="M137.559 56.2553C138.379 56.246 139.261 56.1392 139.961 56.5181C140.422 57.3705 140.238 57.363 140.144 58.5083C139.341 58.6085 138.646 58.7715 137.893 58.4889C137.363 57.6222 137.558 57.4476 137.559 56.2553Z"/><path transform="scale(4.288 4.288)" d="M130.848 56.3383C131.628 56.3052 132.535 56.1817 133.222 56.5093C133.698 57.3843 133.521 57.4607 133.502 58.6039C132.672 58.6232 131.846 58.735 131.127 58.3575C130.661 57.4965 130.831 57.4574 130.848 56.3383Z"/><path transform="scale(4.288 4.288)" d="M124.576 56.2899C125.439 56.2877 126.274 56.2002 127.038 56.5764C127.444 57.3497 127.272 57.435 127.203 58.4569C126.434 58.5613 125.621 58.761 124.923 58.4591C124.427 57.6295 124.6 57.4038 124.576 56.2899Z"/><path transform="scale(4.288 4.288)" d="M118.447 56.2647C119.241 56.2546 120.02 56.1622 120.718 56.5121C121.191 57.3649 121.01 57.3331 120.93 58.4834C120.133 58.6155 119.466 58.8111 118.725 58.5078C118.235 57.6134 118.425 57.4405 118.447 56.2647Z"/><path transform="scale(4.288 4.288)" d="M111.496 56.3952C112.352 56.3688 113.43 56.2327 114.144 56.6383C114.51 57.5052 114.351 57.4825 114.226 58.5515C113.373 58.6345 112.833 58.7559 112.039 58.4371C111.488 57.9011 111.545 57.171 111.496 56.3952Z"/><path fill="#FEFEFE" transform="scale(4.288 4.288)" d="M96.2564 73.0508C101.488 73.5044 108.561 72.6918 113.942 73.2141C114.749 73.2925 115.049 73.3963 115.465 73.9478C115.216 74.5999 114.594 74.8753 113.937 75.3619C112.824 77.7595 115.193 76.8701 116.134 77.5628C117.355 79.2631 116.914 83.0077 116.697 85.0596L116.396 87.264L100.732 87.0476C100.848 82.294 100.194 78.7859 97.3382 74.8612C96.9424 74.3173 96.5312 73.6635 96.2564 73.0508Z"/><path transform="scale(4.288 4.288)" d="M106.239 74.9471C107.071 74.9489 108.033 74.8453 108.696 75.282C109.089 76.1252 108.927 76.1035 108.825 77.1718C108.045 77.3209 107.343 77.549 106.619 77.2586C106.099 76.3817 106.267 76.0735 106.239 74.9471Z"/><path transform="scale(4.288 4.288)" d="M99.972 75.0388C101.02 74.9836 101.613 74.8645 102.435 75.3991C102.753 76.0875 102.501 76.8 102.337 77.5504C101.077 77.5023 100.906 77.5318 100.043 76.7959C99.7783 75.9942 99.8289 75.8325 99.972 75.0388Z"/><path fill="#CA9665" transform="scale(4.288 4.288)" d="M136.738 142.125C137.079 141.998 137.374 142.039 137.74 142.047L137.77 142.353C134.883 144.951 135.041 146.114 135.317 149.712C122.223 149.817 109.373 158.758 98.4182 164.382L96.4002 161.943C98.7187 160.553 101.481 158.474 103.819 156.942C113.794 150.404 124.62 143.36 136.738 142.125Z"/><path fill="#FEFEFE" transform="scale(4.288 4.288)" d="M126.194 191.09C129.899 190.665 132.812 191.435 136.264 192.615L134.195 196.814C131.559 195.349 128.771 194.665 125.764 195.001C122.689 195.348 119.884 196.92 117.982 199.361C115.812 202.121 114.849 205.64 115.313 209.12C115.925 213.818 118.585 216.297 122.072 218.98C122.936 220.724 123.688 222.849 124.389 224.693C117.999 221.34 112.022 217.383 110.91 209.633C110.348 205.511 111.455 201.335 113.985 198.032C117.136 193.835 121.085 191.798 126.194 191.09Z"/><path fill="#CA9665" transform="scale(4.288 4.288)" d="M134.349 151.15L134.528 151.125L134.774 151.486C134.633 153.127 134.27 154.337 133.851 155.922C123.72 158.413 112.481 162.793 103.715 168.477C102.948 168.031 102.08 167.452 101.317 166.971L99.2739 165.344C109.68 159.429 122.218 151.995 134.349 151.15Z"/><path fill="#FEFEFE" transform="scale(4.288 4.288)" d="M106.109 37.9851C113.551 35.5037 113.693 30.0497 119.777 26.3238C119.684 26.3809 124.833 24.7555 124.989 24.7254C126.621 25.7449 124.432 40.6038 126.869 43.2675C126.267 43.7611 125.755 44.2544 125.185 44.778L124.613 44.703L124.487 45.0607C122.642 47.9285 118.715 53.1645 115.915 54.9584C117.313 52.0469 122.469 45.7901 124.74 42.9185L124.47 32.0061C115.681 37.7624 117.498 39.9595 106.109 37.9851Z"/><path fill="#FEFEFE" transform="scale(4.288 4.288)" d="M118.994 200.62C120.077 201.788 125.889 214.378 126.871 216.538C127.809 213.896 130.029 209.505 131.261 206.879C132.71 208.152 133.578 208.781 134.682 210.387L131.801 215.739C130.212 219.031 128.287 222.451 126.627 225.813C123.383 219.039 120.122 211.777 116.732 205.139C117.313 203.27 117.727 202.145 118.994 200.62Z"/><path fill="#CA9665" transform="scale(4.288 4.288)" d="M132.86 157.553L133.212 157.608C133.486 158.445 132.476 162.354 132.233 163.503C126.134 164.287 116.75 167.542 111.533 171.045C110.137 170.771 109.055 170.48 107.691 170.097C106.856 169.785 105.527 169.456 104.635 169.205C113.708 164.263 122.715 159.878 132.86 157.553Z"/><path fill="#CA9665" transform="scale(4.288 4.288)" d="M140.403 142.484C141.483 143.005 143.157 144.43 143.761 145.472C145.771 148.877 141.136 150.911 139.609 153.205C138.315 155.15 137.69 158.336 137.219 160.591C136.627 163.425 136.624 166.556 135.877 169.336C134.659 169.471 133.438 169.579 132.215 169.66L132.046 169.369C133.588 163.064 135.011 156.729 136.46 150.401C136.879 148.574 135.683 145.721 137.471 144.238C138.261 143.583 139.48 142.98 140.403 142.484Z"/><path fill="#FEFEFE" transform="scale(4.288 4.288)" d="M133.297 205.82C135.682 205.89 138.827 206.058 141.107 205.656C140.805 206.121 140.039 207.307 139.972 207.818C139.34 212.632 139.803 219.204 139.935 224.069C138.164 224.342 136.346 224.53 134.563 224.734C132.746 224.803 130.787 224.778 128.958 224.787C129.686 223.371 130.239 222.155 130.871 220.694C132.694 220.516 134.517 220.351 136.342 220.2C136.264 216.182 136.321 212.125 135.947 208.128C135.07 207.439 133.58 206.766 133.297 205.82Z"/><path fill="#FEFEFE" transform="scale(4.288 4.288)" d="M144.831 189.672L145.106 189.818C144.695 190.503 143.807 190.653 142.991 192.213C141.054 195.92 139.188 200.384 137.7 204.276C136.05 204.266 134.271 204.301 132.644 204.117C133.921 201.637 138.132 193.931 138.873 191.666C138.644 190.714 138.232 190.551 137.459 189.762C139.917 189.794 142.375 189.764 144.831 189.672Z"/><path fill="#CA9665" transform="scale(4.288 4.288)" d="M130.688 165.079L131.256 165.042L131.532 165.319C131.544 166.562 130.799 169.238 130.492 170.656C124.601 171.574 120.861 171.654 114.938 171.483L114.174 171.431L114.006 171.171C115.77 169.175 127.682 165.55 130.688 165.079Z"/><path fill="#CA9665" transform="scale(4.288 4.288)" d="M143.56 142.971C148.339 144.473 150.945 149.651 152.467 154.018L149.718 157.058L149.592 157.168C149.429 157.152 149.266 157.135 149.104 157.119C147.315 155.086 145.34 152.874 143.266 151.292C146.615 147.915 145.938 146.562 143.56 142.971Z"/><path fill="#FEFEFE" transform="scale(4.288 4.288)" d="M126.869 43.2675C127.987 44.0168 136.774 53.1006 137.024 54.016L136.83 54.2694C134.467 53.3481 128.248 46.0793 125.879 43.787C125.992 44.9113 126.093 46.3136 126.267 47.4073C127.436 48.6782 131.361 52.5323 131.306 53.88C130.067 53.9776 127.016 49.8916 126.168 48.791C126.223 50.2557 126.392 52.2778 126.075 53.642L125.757 53.9182C124.268 53.2913 125.507 51.2139 124.595 50.0978C123.63 51.3626 123.05 53.0789 122.029 53.9473L121.598 53.9037C120.98 52.031 125.189 48.6296 124.937 45.6179C124.836 45.486 124.597 45.1485 124.487 45.0607L124.613 44.703L125.185 44.778C125.755 44.2544 126.267 43.7611 126.869 43.2675Z"/><path fill="#CA9665" transform="scale(4.288 4.288)" d="M142.066 152.108C145.036 154.06 146.257 155.748 148.469 158.453C147.525 159.499 146.598 160.561 145.689 161.638C144.801 161.306 140.865 157.943 139.252 156.948C140.087 155.024 140.63 153.66 142.066 152.108Z"/><path fill="#FEFEFE" transform="scale(4.288 4.288)" d="M114.614 179.611C115.231 179.799 118.372 180.906 118.859 180.874C121.419 180.707 128.175 178.704 129.713 181.806C129.864 182.662 129.706 182.86 129.317 183.608C128.425 183.406 126.113 182.414 125.53 182.461C122.287 182.719 118.903 183.897 115.691 182.705C113.844 182.02 113.966 181.052 114.614 179.611Z"/><path fill="#FEFEFE" transform="scale(4.288 4.288)" d="M128.214 173.532C129.627 173.449 130.787 173.233 131.643 174.466C131.639 174.775 131.703 175.018 131.451 175.199C129.865 176.341 122.917 177.73 121.168 177.745C119.293 177.367 117.959 177.452 117.753 175.276C118.2 174.602 118.804 174.563 119.597 174.828C122.935 175.941 124.834 174.664 128.214 173.532Z"/><path fill="#FEFEFE" transform="scale(4.288 4.288)" d="M96.7916 178.391C97.3548 178.546 99.1078 179.438 99.5039 179.458C102.44 179.606 111.181 177.022 109.645 182.895C108.117 182.639 107.768 182.19 106.53 181.292C104.388 181.27 94.5284 183.722 96.7916 178.391Z"/><path fill="#FEFEFE" transform="scale(4.288 4.288)" d="M108.425 189.779C110.998 189.748 113.606 189.686 116.175 189.792C116.626 190.175 115.715 192.235 116.339 193.104C116.778 193.714 115.9 194.516 115.444 195.037C114.81 195.725 113.967 196.462 113.269 197.105C111.866 194.25 110.903 191.805 108.425 189.779Z"/><path fill="#FEFEFE" transform="scale(4.288 4.288)" d="M137.534 173.475C138.003 173.473 138.69 173.479 139.186 173.663C142.299 174.818 147.256 171.84 149.581 175.114C150.079 175.815 149.934 176.53 149.749 177.297C148.371 177.403 147.571 176.63 146.387 175.852C143.38 176.156 137.464 178.177 137.534 173.475Z"/><path fill="#FEFEFE" transform="scale(4.288 4.288)" d="M102.586 172.42C104.146 172.414 104.731 172.932 105.994 173.759C108.601 173.71 115.601 171.283 114.293 176.446C112.938 176.488 112.801 176.194 111.646 175.439C108.741 176.151 101.919 177.403 102.586 172.42Z"/><path fill="#FEFEFE" transform="scale(4.288 4.288)" d="M159.007 171.276C161.395 170.924 162.446 171.686 164.617 172.765C166.316 171.975 167.047 171.214 168.97 171.734L169.196 172.233C168.862 173.101 167.895 173.735 167.169 174.258C166.66 174.508 166.131 174.715 165.588 174.877C163.594 175.452 161.973 174.329 160.278 173.391C159.133 173.998 158.111 174.651 157.142 173.423L157.237 172.715C157.688 171.924 158.21 171.722 159.007 171.276Z"/><path fill="#FEFEFE" transform="scale(4.288 4.288)" d="M138.365 179.019C140.215 178.874 145.99 179.247 147.834 180.116C148.198 180.287 148.154 180.663 148.185 181.018C147.771 181.698 147.432 181.767 146.711 182.062C143.893 182.068 140.36 181.435 137.446 181.434C136.808 181.434 136.482 181.136 136.145 180.655C136.388 179.739 137.567 179.32 138.365 179.019Z"/><path fill="#FEFEFE" transform="scale(4.288 4.288)" d="M155.512 178.53C156.267 178.454 163.87 178.79 164.726 179.391C164.865 179.488 164.84 179.783 164.862 180.012C164.449 180.817 163.885 180.98 163.059 181.371C162.084 181.509 154.199 181.113 153.787 180.879L153.696 180.336C154.195 179.403 154.647 179.159 155.512 178.53Z"/><path fill="#CA9665" transform="scale(4.288 4.288)" d="M138.985 158.386C140.468 158.997 143.378 161.609 144.687 162.76L142.716 164.825L142.493 165.051C141.613 165.071 138.935 163.392 137.991 162.857L138.985 158.386Z"/><path fill="#CA9665" transform="scale(4.288 4.288)" d="M137.942 164.286C138.914 164.622 140.686 165.181 140.677 166.294L139.725 167.007L137.376 168.558C137.517 167.173 137.626 165.63 137.942 164.286Z"/></svg>