<?xml version="1.0" encoding="utf-8"?>
<!-- Generator: Adobe Illustrator 23.0.1, SVG Export Plug-In . SVG Version: 6.00 Build 0)  -->
<svg version="1.1" id="Layer_1" xmlns="http://www.w3.org/2000/svg" xmlns:xlink="http://www.w3.org/1999/xlink" x="0px" y="0px"
	 viewBox="0 0 600 600" style="enable-background:new 0 0 600 600;" xml:space="preserve">
<style type="text/css">
	.st0{fill:#007046;}
	.st1{clip-path:url(#SVGID_2_);fill:#A2FF00;}
	.st2{clip-path:url(#SVGID_6_);}
	.st3{fill:#FFFFFF;}
	.st4{clip-path:url(#SVGID_8_);}
	.st5{fill:#00A859;}
	.st6{clip-path:url(#SVGID_10_);}
	.st7{clip-path:url(#SVGID_12_);}
	.st8{clip-path:url(#SVGID_14_);}
	.st9{fill:#A2FF00;}
</style>
<g id="Layer_6">
	<polygon class="st0" points="351.03,237.09 360.07,207.03 384.99,200.94 398.85,219.76 389.53,248.9 367.74,256.14 	"/>
</g>
<g id="Layer_1_copy">
	<g>
		<g>
			<defs>
				<path id="SVGID_1_" d="M313.45,17.58h-9.9H85.33c0,0,0,204.25,0,275.86c0,26.11,11.31,223.29,218.22,293.85l4.95,1.62l4.95-1.62
					c206.9-70.56,218.22-267.74,218.22-293.85c0-71.62,0-275.86,0-275.86L313.45,17.58L313.45,17.58z"/>
			</defs>
			<clipPath id="SVGID_2_">
				<use xlink:href="#SVGID_1_"  style="overflow:visible;"/>
			</clipPath>
			<rect x="102.66" y="149.14" class="st1" width="412.03" height="358.62"/>
		</g>
		<g>
			<defs>
				<path id="SVGID_4_" d="M313.45,17.58h-9.9H85.33c0,0,0,204.25,0,275.86c0,26.11,11.31,223.29,218.22,293.85l4.95,1.62l4.95-1.62
					c206.9-70.56,218.22-267.74,218.22-293.85c0-71.62,0-275.86,0-275.86L313.45,17.58L313.45,17.58z"/>
			</defs>
			<clipPath id="SVGID_6_">
				<use xlink:href="#SVGID_4_"  style="overflow:visible;"/>
			</clipPath>
			<g class="st2">
				<g>
					<path id="SVGID_3_" class="st3" d="M101.6,148.43l493.73,330.33l-265.26,153.5c0,0-194.52-12.73-196.64-16.27
						c-2.12-3.54-74.98-212.2-72.86-232.72s-10.6-217.15-10.6-217.15v-16.27L101.6,148.43z"/>
				</g>
				<g>
					<defs>
						<path id="SVGID_7_" d="M101.6,148.43l493.73,330.33l-265.26,153.5c0,0-194.52-12.73-196.64-16.27
							c-2.12-3.54-74.98-212.2-72.86-232.72s-10.6-217.15-10.6-217.15v-16.27L101.6,148.43z"/>
					</defs>
					<clipPath id="SVGID_8_">
						<use xlink:href="#SVGID_7_"  style="overflow:visible;"/>
					</clipPath>
					<g class="st4">
						<rect x="158.9" y="184.51" class="st5" width="58" height="423.7"/>
					</g>
				</g>
				<g>
					<defs>
						<path id="SVGID_9_" d="M101.6,148.43l493.73,330.33l-265.26,153.5c0,0-194.52-12.73-196.64-16.27
							c-2.12-3.54-74.98-212.2-72.86-232.72s-10.6-217.15-10.6-217.15v-16.27L101.6,148.43z"/>
					</defs>
					<clipPath id="SVGID_10_">
						<use xlink:href="#SVGID_9_"  style="overflow:visible;"/>
					</clipPath>
					<g class="st6">
						<rect x="274.55" y="184.51" class="st5" width="58" height="423.7"/>
					</g>
				</g>
				<g>
					<defs>
						<path id="SVGID_11_" d="M101.6,148.43l493.73,330.33l-265.26,153.5c0,0-194.52-12.73-196.64-16.27
							c-2.12-3.54-74.98-212.2-72.86-232.72s-10.6-217.15-10.6-217.15v-16.27L101.6,148.43z"/>
					</defs>
					<clipPath id="SVGID_12_">
						<use xlink:href="#SVGID_11_"  style="overflow:visible;"/>
					</clipPath>
					<g class="st7">
						<rect x="394.8" y="184.51" class="st5" width="58" height="423.7"/>
					</g>
				</g>
			</g>
		</g>
	</g>
	<path class="st5" d="M514.69,34.55v258.89c0,8.46-2.34,207.74-206.19,277.6c-203.85-69.86-206.19-269.15-206.19-277.6V34.55h201.24
		h9.9H514.69 M531.67,17.58H313.45h-9.9H85.33c0,0,0,204.25,0,275.86c0,26.11,11.31,223.29,218.22,293.85l4.95,1.62l4.95-1.62
		c206.9-70.56,218.22-267.74,218.22-293.85C531.67,221.82,531.67,17.58,531.67,17.58L531.67,17.58z"/>
	<rect x="85.33" y="17.58" class="st5" width="446.33" height="131.57"/>
	<g id="Layer_3">
	</g>
</g>
<g id="Layer_4">
	<g>
		<g>
			<circle id="SVGID_5_" class="st5" cx="421.56" cy="243.22" r="80.4"/>
		</g>
		<g>
			<defs>
				<circle id="SVGID_13_" cx="421.56" cy="243.22" r="80.4"/>
			</defs>
			<clipPath id="SVGID_14_">
				<use xlink:href="#SVGID_13_"  style="overflow:visible;"/>
			</clipPath>
			<g class="st8">
				<polygon class="st3" points="449.03,305.35 426.1,294.77 426.1,278.2 453.86,258.78 472.34,264.97 473.84,286.72 				"/>
				<path class="st0" d="M364.38,282.48l1.06-18.21l-12.91-17.75l-11.38,6.08c0,0,0.94,22.46,1.47,22.99s10.67,7.6,10.67,7.6
					L364.38,282.48z"/>
				<g>
					<polygon class="st3" points="451.2,197.36 439.52,213.27 406.38,213.51 392.99,195.31 407.65,179.32 437.32,178.58 					"/>
					<g>
						<polygon class="st3" points="478.73,206.08 489.58,237.44 474.16,258.78 456.81,252.41 445.13,216.69 456.31,201.53 						"/>
						<polygon class="st3" points="370.57,283.54 370.86,265.52 392.64,259.33 418.99,278.2 418.99,294.77 396.03,302.46 						"/>
						<polygon class="st0" points="440.01,219.15 451.2,252.82 422.61,273.88 393.76,253.22 404.5,219.39 						"/>
						<polygon class="st0" points="480.47,192.91 478.38,200.94 456.1,197.24 441.83,177.42 448.44,171.08 472.49,172.25 						"/>
						<polygon class="st3" points="483.69,199.6 482.88,205.31 492.99,235.34 505.26,238.5 503.01,208.06 489.81,196.14 						"/>
						<path class="st3" d="M397.74,317.49c0,0-5.54-11.67-5.54-11.32s-23.7-17.6-23.7-17.6l-9.67,0.38l-3.77,12.38l35.13,20.4
							L397.74,317.49z"/>
						<polygon class="st0" points="421.56,300.87 399.75,308.65 407.53,323.59 439.48,323.62 444.19,309.71 						"/>
						<polyline class="st3" points="407.35,174.25 436.71,174.25 444.19,168.06 414.25,154.45 401.16,161.7 395.86,167.77 						"/>
						<polygon class="st3" points="449.97,308.65 446.08,321.73 473.84,315.19 484.81,296.45 486.63,290.44 482.97,288.58 
							475.89,289.34 						"/>
						<polygon class="st0" points="480.44,283.46 488.7,283.18 509.56,254.36 505.49,243.69 493.47,241.1 478.32,261.53 						"/>
						<polyline class="st0" points="384.19,166.85 401.16,177.79 387.92,193.31 362.61,184.14 						"/>
					</g>
				</g>
			</g>
		</g>
	</g>
	<polygon class="st3" points="101.25,39.86 101.25,136.41 189.67,136.41 189.67,110.94 135.55,110.94 135.55,99.63 189.67,99.63 
		189.67,78.05 135.91,78.05 135.91,66.03 189.67,66.03 189.67,39.86 	"/>
	<path class="st3" d="M200.28,64.26v50.4c0,12.01,9.74,21.75,21.75,21.75h73.74v-25.46h-61.19l0.35-44.92h60.83V39.86h-71.09
		C211.2,39.86,200.28,50.78,200.28,64.26z"/>
	<g>
		<path class="st3" d="M384.36,39.86h-76.92v96.55h31.12v-30.42h45.8c10.84,0,19.63-8.79,19.63-19.63V59.49
			C403.99,48.64,395.2,39.86,384.36,39.86z M371.81,83h-32.89V66.03h32.89V83z"/>
	</g>
	<g>
		<path class="st3" d="M492.23,39.86h-76.92v96.55h31.12v-30.42h45.8c10.84,0,19.63-8.79,19.63-19.63V59.49
			C511.86,48.64,503.07,39.86,492.23,39.86z M479.68,83h-32.89V66.03h32.89V83z"/>
	</g>
	<path class="st5" d="M421.56,167.06c41.99,0,76.16,34.16,76.16,76.16s-34.16,76.16-76.16,76.16s-76.16-34.16-76.16-76.16
		S379.56,167.06,421.56,167.06 M421.56,162.82c-44.4,0-80.4,36-80.4,80.4s36,80.4,80.4,80.4s80.4-36,80.4-80.4
		S465.96,162.82,421.56,162.82L421.56,162.82z"/>
	<path class="st9" d="M421.56,162.82c44.4,0,80.4,36,80.4,80.4s-36,80.4-80.4,80.4s-80.4-36-80.4-80.4S377.15,162.82,421.56,162.82
		 M421.56,160.69c-45.5,0-82.52,37.02-82.52,82.52s37.02,82.52,82.52,82.52s82.52-37.02,82.52-82.52S467.06,160.69,421.56,160.69
		L421.56,160.69z"/>
</g>
<g id="Layer_8">
	<g>
		<rect x="350.39" y="204.51" class="st3" width="16" height="9.67"/>
		<g>
			<g>
				<path class="st5" d="M379.38,238.48c-0.17,0.55,0.41,1.03,0.93,0.79c7.12-3.29,7.21-12.22,4.42-17.65
					c-4.48-8.73-15.31-12.27-25.87-7.55c-14.22,6.36-19.45,23.95-11.75,37.54c8.17,14.42,26.04,20.57,41.48,13.72
					c20.59-9.13,29.92-33.3,20.83-53.99c-11.36-25.86-38.32-30.91-64.33-20.11c-9.61,3.99-26.3,10.19-40.77,8.49
					s-19.16-6.98-19.16-6.98l-3.19-3.21c-0.2-0.2-0.53,0.01-0.43,0.27c1.33,3.71,7.38,16.24,28.8,17.85
					c25.17,1.89,46.91-8.36,65.75-1.13c18,6.91,16.72,20.36,16.72,20.36s-0.34,13.81-9.77,16.45c-2.86,0.8-8.95,2.73-11.11-3.11
					c-2.35-6.32,4.55-7.48,6.32-5.83C380.34,236.32,379.74,237.34,379.38,238.48z"/>
				<path class="st3" d="M370.12,185.89c16.81,0,31.62,7.97,39.3,25.45c9.09,20.69-0.24,44.86-20.83,53.99
					c-4.28,1.9-8.75,2.8-13.15,2.8c-11.46,0-22.43-6.1-28.33-16.52c-7.7-13.59-2.47-31.19,11.75-37.54c3.2-1.43,6.42-2.1,9.48-2.1
					c7.06,0,13.27,3.57,16.39,9.65c2.79,5.43,2.69,14.36-4.42,17.65c-0.09,0.04-0.19,0.06-0.28,0.06c-0.42,0-0.79-0.41-0.65-0.86
					c0.36-1.13,0.96-2.16-1.13-4.1c-0.47-0.44-1.29-0.67-2.21-0.67c-2.56,0-5.84,1.86-4.11,6.51c1.19,3.2,3.55,4.07,5.91,4.07
					c1.95,0,3.91-0.59,5.2-0.96c9.43-2.64,9.77-16.45,9.77-16.45s1.28-13.45-16.72-20.36c-5.04-1.93-10.28-2.62-15.74-2.62
					c-13.19,0-27.65,3.98-43.52,3.98c-2.14,0-4.3-0.07-6.49-0.24c-21.41-1.61-27.47-14.14-28.8-17.85
					c-0.07-0.19,0.09-0.35,0.25-0.35c0.06,0,0.13,0.02,0.18,0.08l3.19,3.21c0,0,4.7,5.29,19.16,6.98c1.68,0.2,3.39,0.29,5.12,0.29
					c13.13,0,27.15-5.25,35.65-8.78C353.52,187.72,362.05,185.89,370.12,185.89 M370.12,181.65L370.12,181.65
					c-8.65,0-17.61,1.9-26.66,5.66c-5.04,2.09-20.37,8.46-34.02,8.46c-1.6,0-3.16-0.09-4.62-0.26c-12.31-1.45-16.45-5.55-16.48-5.59
					l-0.08-0.09l-0.08-0.09l-3.19-3.21c-0.85-0.86-1.99-1.33-3.19-1.33c-1.47,0-2.85,0.72-3.69,1.92s-1.05,2.73-0.55,4.11
					c1.58,4.39,8.57,18.85,32.47,20.64c2.2,0.16,4.49,0.25,6.81,0.25c8.59,0,16.6-1.1,24.35-2.17c6.77-0.93,13.17-1.81,19.17-1.81
					c1.01,0,1.99,0.02,2.93,0.07c-2.07,0.41-4.13,1.07-6.15,1.97c-7.77,3.47-13.54,9.91-16.24,18.12
					c-2.76,8.41-1.84,17.67,2.53,25.39c6.53,11.52,18.8,18.67,32.02,18.67c5.13,0,10.14-1.06,14.87-3.16
					c22.69-10.06,33.01-36.79,23-59.58C405.49,191.85,389.75,181.65,370.12,181.65L370.12,181.65z"/>
			</g>
			<g>
				<path class="st0" d="M277.73,197.01c-0.18-0.19-0.51-0.04-0.45,0.21c1.02,3.98,6.45,20.07,28.92,26.66
					c25.74,7.55,33.44,7.55,33.44,7.55s4.15-13.49,10.55-19.58c0.43-0.41,0.09-1.12-0.5-1.03c-8.03,1.22-36.2,5.18-46.31,2.11
					C303.39,212.93,291.37,211.29,277.73,197.01z"/>
				<path class="st3" d="M277.53,196.92c0.07,0,0.14,0.03,0.2,0.09c13.64,14.28,25.65,15.92,25.65,15.92
					c2.71,0.82,6.72,1.14,11.29,1.14c12.47,0,29.14-2.36,35.02-3.25c0.03-0.01,0.07-0.01,0.1-0.01c0.53,0,0.81,0.65,0.4,1.04
					c-6.39,6.1-10.55,19.58-10.55,19.58s-7.7,0-33.44-7.55c-22.47-6.59-27.9-22.68-28.92-26.66
					C277.24,197.05,277.38,196.92,277.53,196.92 M277.53,192.68c-1.38,0-2.71,0.65-3.56,1.74c-0.85,1.1-1.14,2.5-0.8,3.86
					c1.32,5.16,7.51,22.54,31.83,29.68c25.58,7.51,33.78,7.72,34.63,7.72h3.13l0.92-2.99c1.07-3.46,4.85-13.4,9.42-17.76
					c1.45-1.38,1.9-3.47,1.16-5.31c-0.74-1.85-2.5-3.04-4.49-3.04h-0.32l-0.42,0.06c-6.33,0.96-22.34,3.2-34.38,3.2
					c-5.71,0-8.62-0.52-10.06-0.96l-0.32-0.1l-0.33-0.05c-0.08-0.01-10.88-1.79-23.16-14.65
					C279.95,193.19,278.76,192.68,277.53,192.68L277.53,192.68z"/>
			</g>
			<g>
				<path class="st0" d="M338.14,236.53c0,0-23.17-2.96-39.5-8.73c-7.61-2.69-18.01-9.74-22.16-19.02c-0.12-0.28-0.51-0.17-0.5,0.13
					c0.69,22.53,17.42,32.05,25.68,34.31s41.17,13.13,41.17,13.13S337.38,245.1,338.14,236.53z"/>
				<path class="st3" d="M276.24,208.61c0.09,0,0.18,0.05,0.23,0.16c4.15,9.29,14.56,16.33,22.16,19.02
					c16.32,5.77,39.5,8.73,39.5,8.73c-0.76,8.58,4.7,19.82,4.7,19.82s-32.91-10.87-41.17-13.13c-8.27-2.27-24.99-11.79-25.68-34.31
					C275.97,208.72,276.11,208.61,276.24,208.61 M276.24,204.37c-1.21,0-2.39,0.5-3.23,1.37c-0.85,0.87-1.31,2.07-1.27,3.3
					c0.74,24.19,18.45,35.44,28.8,38.28c8.07,2.21,40.64,12.96,40.97,13.07l9.53,3.15l-4.38-9.03c-1.37-2.84-4.82-11.55-4.29-17.59
					l0.36-4.07l-4.05-0.52c-0.23-0.03-22.93-2.97-38.62-8.52c-7.21-2.55-16.29-9.12-19.71-16.75
					C279.63,205.42,278.01,204.37,276.24,204.37L276.24,204.37z"/>
			</g>
		</g>
	</g>
</g>
<g id="Layer_10">
	<circle class="st3" cx="305.67" cy="444.1" r="58.27"/>
	<g>
		<path class="st5" d="M253.74,408.08h20.23l7.55,47.42l7.61-47.42h20.18l-16.6,72.57h-22.42L253.74,408.08z"/>
		<path class="st5" d="M351.26,479.51c-1.99,0.86-3.92,1.51-5.79,1.94s-3.74,0.65-5.59,0.65c-3.65,0-7.14-0.74-10.49-2.21
			c-3.35-1.47-6.41-3.62-9.19-6.44c-3.31-3.41-5.78-7.55-7.41-12.4c-1.62-4.85-2.43-10.59-2.43-17.22c0-10.97,2.71-19.89,8.13-26.77
			c5.42-6.87,12.33-10.31,20.75-10.31c2.09,0,4.13,0.17,6.14,0.52c2,0.35,3.97,0.85,5.89,1.52v17.4c-1.26-0.7-2.52-1.23-3.78-1.59
			s-2.47-0.55-3.63-0.55c-4.04,0-7.11,1.7-9.19,5.1s-3.13,8.39-3.13,14.98c0,6.23,1.04,11.04,3.11,14.44c2.07,3.4,5,5.09,8.77,5.09
			c1.39,0,2.74-0.2,4.05-0.6s2.58-0.98,3.8-1.74L351.26,479.51L351.26,479.51z"/>
	</g>
</g>
</svg>
