<?xml version="1.0" encoding="UTF-8"?>
<!DOCTYPE svg PUBLIC "-//W3C//DTD SVG 1.1//EN" "http://www.w3.org/Graphics/SVG/1.1/DTD/svg11.dtd">
<svg xmlns="http://www.w3.org/2000/svg" version="1.1" width="367px" height="353px" style="shape-rendering:geometricPrecision; text-rendering:geometricPrecision; image-rendering:optimizeQuality; fill-rule:evenodd; clip-rule:evenodd" xmlns:xlink="http://www.w3.org/1999/xlink">
<g><path style="opacity:0.971" fill="#c9ad6b" d="M 168.5,-0.5 C 177.833,-0.5 187.167,-0.5 196.5,-0.5C 271.119,8.78416 322.119,48.4508 349.5,118.5C 353.122,119.325 356.789,119.825 360.5,120C 363.146,120.804 365.146,122.304 366.5,124.5C 366.5,164.167 366.5,203.833 366.5,243.5C 365.146,245.696 363.146,247.196 360.5,248C 354.833,248.333 349.167,248.667 343.5,249C 313.128,309.86 264.128,344.36 196.5,352.5C 187.167,352.5 177.833,352.5 168.5,352.5C 101.07,344.733 52.4032,310.4 22.5,249.5C 16.8624,248.67 11.1958,248.17 5.5,248C 2.85408,247.196 0.854084,245.696 -0.5,243.5C -0.5,203.833 -0.5,164.167 -0.5,124.5C 0.854084,122.304 2.85408,120.804 5.5,120C 9.08936,119.793 12.5894,119.293 16,118.5C 43.4115,48.722 94.2448,9.05534 168.5,-0.5 Z M 35.5,252.5 C 36.9063,252.973 37.573,253.973 37.5,255.5C 36.0937,255.027 35.427,254.027 35.5,252.5 Z M 42.5,264.5 C 43.9063,264.973 44.573,265.973 44.5,267.5C 43.0937,267.027 42.427,266.027 42.5,264.5 Z M 44.5,267.5 C 45.9063,267.973 46.573,268.973 46.5,270.5C 45.0937,270.027 44.427,269.027 44.5,267.5 Z M 49.5,274.5 C 50.9063,274.973 51.573,275.973 51.5,277.5C 50.0937,277.027 49.427,276.027 49.5,274.5 Z M 53.5,279.5 C 54.9063,279.973 55.573,280.973 55.5,282.5C 54.0937,282.027 53.427,281.027 53.5,279.5 Z M 58.5,285.5 C 60.5869,286.585 61.9202,288.251 62.5,290.5C 60.4131,289.415 59.0798,287.749 58.5,285.5 Z M 68.5,296.5 C 70.7488,297.08 72.4154,298.413 73.5,300.5C 71.2512,299.92 69.5846,298.587 68.5,296.5 Z M 77.5,304.5 C 79.0269,304.427 80.0269,305.094 80.5,306.5C 78.9731,306.573 77.9731,305.906 77.5,304.5 Z M 81.5,307.5 C 83.0269,307.427 84.0269,308.094 84.5,309.5C 82.9731,309.573 81.9731,308.906 81.5,307.5 Z M 85.5,310.5 C 87.0269,310.427 88.0269,311.094 88.5,312.5C 86.9731,312.573 85.9731,311.906 85.5,310.5 Z M 94.5,316.5 C 96.0269,316.427 97.0269,317.094 97.5,318.5C 95.9731,318.573 94.9731,317.906 94.5,316.5 Z M 140.5,336.5 C 143.428,336.565 146.095,337.232 148.5,338.5C 145.505,338.706 142.838,338.04 140.5,336.5 Z M 153.5,339.5 C 170.796,341.659 188.13,341.992 205.5,340.5C 198.223,341.983 190.723,342.65 183,342.5C 172.893,342.765 163.06,341.765 153.5,339.5 Z"/></g>
<g><path style="opacity:0.902" fill="#fafafa" d="M 165.5,10.5 C 177.167,10.5 188.833,10.5 200.5,10.5C 202.948,11.4731 205.615,11.8064 208.5,11.5C 210.265,12.4614 212.265,12.7947 214.5,12.5C 215.919,13.4511 217.585,13.7845 219.5,13.5C 220.568,14.4345 221.901,14.7678 223.5,14.5C 224.568,15.4345 225.901,15.7678 227.5,15.5C 228.209,16.404 229.209,16.7373 230.5,16.5C 231.209,17.404 232.209,17.7373 233.5,17.5C 234.209,18.404 235.209,18.7373 236.5,18.5C 237.209,19.404 238.209,19.7373 239.5,19.5C 240.209,20.404 241.209,20.7373 242.5,20.5C 242.842,21.3382 243.508,21.6716 244.5,21.5C 245.209,22.404 246.209,22.7373 247.5,22.5C 247.842,23.3382 248.508,23.6716 249.5,23.5C 249.842,24.3382 250.508,24.6716 251.5,24.5C 254.101,25.8007 256.768,27.134 259.5,28.5C 259.842,29.3382 260.508,29.6716 261.5,29.5C 261.842,30.3382 262.508,30.6716 263.5,30.5C 263.842,31.3382 264.508,31.6716 265.5,31.5C 266.29,32.4013 267.29,33.0679 268.5,33.5C 268.842,34.3382 269.508,34.6716 270.5,34.5C 271.29,35.4013 272.29,36.0679 273.5,36.5C 274.29,37.4013 275.29,38.0679 276.5,38.5C 276.5,39.1667 276.833,39.5 277.5,39.5C 278.29,40.4013 279.29,41.0679 280.5,41.5C 281.795,42.4884 283.128,43.4884 284.5,44.5C 284.5,45.1667 284.833,45.5 285.5,45.5C 286.795,46.4884 288.128,47.4884 289.5,48.5C 289.5,49.1667 289.833,49.5 290.5,49.5C 290.5,50.1667 290.833,50.5 291.5,50.5C 297.167,55.5 302.5,60.8333 307.5,66.5C 307.5,67.1667 307.833,67.5 308.5,67.5C 308.5,68.1667 308.833,68.5 309.5,68.5C 310.864,70.1911 312.197,71.8577 313.5,73.5C 314.512,74.8717 315.512,76.205 316.5,77.5C 317.512,78.8717 318.512,80.205 319.5,81.5C 319.932,82.7095 320.599,83.7095 321.5,84.5C 321.932,85.7095 322.599,86.7095 323.5,87.5C 324.263,89.3684 325.263,91.0351 326.5,92.5C 326.328,93.4916 326.662,94.1583 327.5,94.5C 328.263,96.3684 329.263,98.0351 330.5,99.5C 330.328,100.492 330.662,101.158 331.5,101.5C 331.328,102.492 331.662,103.158 332.5,103.5C 332.328,104.492 332.662,105.158 333.5,105.5C 333.796,107.403 334.463,109.07 335.5,110.5C 335.328,111.492 335.662,112.158 336.5,112.5C 336.263,113.791 336.596,114.791 337.5,115.5C 337.328,116.492 337.662,117.158 338.5,117.5C 338.5,118.5 338.5,119.5 338.5,120.5C 336.167,120.5 333.833,120.5 331.5,120.5C 307.149,61.1444 263.149,26.9778 199.5,18C 132.861,13.7353 81.694,39.5686 46,95.5C 41.6074,103.616 37.7741,111.949 34.5,120.5C 32.1667,120.5 29.8333,120.5 27.5,120.5C 27.5,119.5 27.5,118.5 27.5,117.5C 28.3382,117.158 28.6716,116.492 28.5,115.5C 29.404,114.791 29.7373,113.791 29.5,112.5C 30.3382,112.158 30.6716,111.492 30.5,110.5C 31.404,109.791 31.7373,108.791 31.5,107.5C 32.3382,107.158 32.6716,106.492 32.5,105.5C 33.3382,105.158 33.6716,104.492 33.5,103.5C 34.3382,103.158 34.6716,102.492 34.5,101.5C 35.3382,101.158 35.6716,100.492 35.5,99.5C 36.3382,99.1583 36.6716,98.4916 36.5,97.5C 37.3382,97.1583 37.6716,96.4916 37.5,95.5C 38.1667,95.5 38.5,95.1667 38.5,94.5C 39.3382,94.1583 39.6716,93.4916 39.5,92.5C 40.3382,92.1583 40.6716,91.4916 40.5,90.5C 41.3382,90.1583 41.6716,89.4916 41.5,88.5C 42.1667,88.5 42.5,88.1667 42.5,87.5C 43.3382,87.1583 43.6716,86.4916 43.5,85.5C 44.1667,85.5 44.5,85.1667 44.5,84.5C 45.3382,84.1583 45.6716,83.4916 45.5,82.5C 46.1667,82.5 46.5,82.1667 46.5,81.5C 47.3382,81.1583 47.6716,80.4916 47.5,79.5C 48.1667,79.5 48.5,79.1667 48.5,78.5C 49.1667,78.5 49.5,78.1667 49.5,77.5C 50.3382,77.1583 50.6716,76.4916 50.5,75.5C 51.1667,75.5 51.5,75.1667 51.5,74.5C 52.1667,74.5 52.5,74.1667 52.5,73.5C 53.3382,73.1583 53.6716,72.4916 53.5,71.5C 54.1667,71.5 54.5,71.1667 54.5,70.5C 55.1667,70.5 55.5,70.1667 55.5,69.5C 56.1667,69.5 56.5,69.1667 56.5,68.5C 57.1667,68.5 57.5,68.1667 57.5,67.5C 58.1667,67.5 58.5,67.1667 58.5,66.5C 59.3382,66.1583 59.6716,65.4916 59.5,64.5C 60.1667,64.5 60.5,64.1667 60.5,63.5C 61.1667,63.5 61.5,63.1667 61.5,62.5C 62.1667,62.5 62.5,62.1667 62.5,61.5C 63.1667,61.5 63.5,61.1667 63.5,60.5C 64.1667,60.5 64.5,60.1667 64.5,59.5C 65.1667,59.5 65.5,59.1667 65.5,58.5C 66.1667,58.5 66.5,58.1667 66.5,57.5C 67.1667,57.5 67.5,57.1667 67.5,56.5C 68.1667,56.5 68.5,56.1667 68.5,55.5C 69.1667,55.5 69.5,55.1667 69.5,54.5C 70.1667,54.5 70.5,54.1667 70.5,53.5C 71.1667,53.5 71.5,53.1667 71.5,52.5C 72.1667,52.5 72.5,52.1667 72.5,51.5C 73.4916,51.6716 74.1583,51.3382 74.5,50.5C 75.1667,50.5 75.5,50.1667 75.5,49.5C 76.1667,49.5 76.5,49.1667 76.5,48.5C 77.1667,48.5 77.5,48.1667 77.5,47.5C 78.1667,47.5 78.5,47.1667 78.5,46.5C 79.4916,46.6716 80.1583,46.3382 80.5,45.5C 81.1667,45.5 81.5,45.1667 81.5,44.5C 82.1667,44.5 82.5,44.1667 82.5,43.5C 83.1667,43.5 83.5,43.1667 83.5,42.5C 84.4916,42.6716 85.1583,42.3382 85.5,41.5C 86.1667,41.5 86.5,41.1667 86.5,40.5C 87.4916,40.6716 88.1583,40.3382 88.5,39.5C 89.1667,39.5 89.5,39.1667 89.5,38.5C 90.1667,38.5 90.5,38.1667 90.5,37.5C 91.4916,37.6716 92.1583,37.3382 92.5,36.5C 93.1667,36.5 93.5,36.1667 93.5,35.5C 94.4916,35.6716 95.1583,35.3382 95.5,34.5C 96.4916,34.6716 97.1583,34.3382 97.5,33.5C 98.1667,33.5 98.5,33.1667 98.5,32.5C 99.4916,32.6716 100.158,32.3382 100.5,31.5C 101.492,31.6716 102.158,31.3382 102.5,30.5C 103.492,30.6716 104.158,30.3382 104.5,29.5C 105.492,29.6716 106.158,29.3382 106.5,28.5C 107.167,28.5 107.5,28.1667 107.5,27.5C 108.492,27.6716 109.158,27.3382 109.5,26.5C 110.492,26.6716 111.158,26.3382 111.5,25.5C 112.791,25.7373 113.791,25.404 114.5,24.5C 115.492,24.6716 116.158,24.3382 116.5,23.5C 117.492,23.6716 118.158,23.3382 118.5,22.5C 119.791,22.7373 120.791,22.404 121.5,21.5C 122.492,21.6716 123.158,21.3382 123.5,20.5C 124.791,20.7373 125.791,20.404 126.5,19.5C 127.791,19.7373 128.791,19.404 129.5,18.5C 130.791,18.7373 131.791,18.404 132.5,17.5C 133.791,17.7373 134.791,17.404 135.5,16.5C 136.791,16.7373 137.791,16.404 138.5,15.5C 140.099,15.7678 141.432,15.4345 142.5,14.5C 144.099,14.7678 145.432,14.4345 146.5,13.5C 148.415,13.7845 150.081,13.4511 151.5,12.5C 153.735,12.7947 155.735,12.4614 157.5,11.5C 160.385,11.8064 163.052,11.4731 165.5,10.5 Z"/></g>
<g><path style="opacity:1" fill="#343639" d="M 331.5,120.5 C 326.637,120.819 321.97,120.486 317.5,119.5C 320.833,119.5 324.167,119.5 327.5,119.5C 308.508,72.1377 274.508,40.971 225.5,26C 156.142,9.89381 99.6421,29.7271 56,85.5C 48.8284,96.1773 42.9951,107.511 38.5,119.5C 41.8333,119.5 45.1667,119.5 48.5,119.5C 44.03,120.486 39.3633,120.819 34.5,120.5C 37.7741,111.949 41.6074,103.616 46,95.5C 81.694,39.5686 132.861,13.7353 199.5,18C 263.149,26.9778 307.149,61.1444 331.5,120.5 Z"/></g>
<g><path style="opacity:1" fill="#252d61" d="M 317.5,119.5 C 317.186,116.053 316.352,112.72 315,109.5C 314.667,112.167 314.333,114.833 314,117.5C 312.484,120.006 310.318,120.84 307.5,120C 312.023,113.939 312.69,107.439 309.5,100.5C 308.812,97.9427 307.646,95.6093 306,93.5C 307.022,96.6415 307.522,99.9748 307.5,103.5C 304.962,107.431 303.962,111.765 304.5,116.5C 302.714,114.586 301.714,112.252 301.5,109.5C 302.795,105.912 303.795,102.245 304.5,98.5C 303.704,93.9472 302.204,89.6138 300,85.5C 299.346,84.3044 298.846,84.3044 298.5,85.5C 299.046,86.7722 299.379,88.1055 299.5,89.5C 298.051,94.0294 297.217,98.6961 297,103.5C 293.372,100.359 292.705,96.692 295,92.5C 296.392,84.2793 294.059,77.2793 288,71.5C 288.745,73.6994 289.579,76.0327 290.5,78.5C 290.154,79.8492 289.821,81.1825 289.5,82.5C 288.167,85.1667 288.167,87.8333 289.5,90.5C 289.591,92.6977 288.925,93.0311 287.5,91.5C 287.672,92.4916 287.338,93.1583 286.5,93.5C 285.054,92.0598 283.221,91.3932 281,91.5C 279.615,91.5143 278.449,91.8476 277.5,92.5C 273.812,92.4536 270.479,91.6203 267.5,90C 274,96.9132 282,99.9132 291.5,99C 292.687,100.019 293.687,101.186 294.5,102.5C 290.348,102.654 286.015,102.654 281.5,102.5C 279.812,100.613 277.812,99.4466 275.5,99C 277.037,100.707 278.704,102.207 280.5,103.5C 285.507,109.009 291.84,111.509 299.5,111C 300.582,112.33 301.249,113.83 301.5,115.5C 299.716,115.107 298.05,114.441 296.5,113.5C 293.08,113.483 289.746,113.317 286.5,113C 288.833,115.333 291.167,117.667 293.5,120C 289.848,120.499 286.182,120.665 282.5,120.5C 272.94,102.772 259.44,88.7718 242,78.5C 235.258,83.9721 229.425,90.3055 224.5,97.5C 230.331,102.493 236.331,107.326 242.5,112C 245.371,114.703 248.038,117.536 250.5,120.5C 247.5,120.5 244.5,120.5 241.5,120.5C 235.413,113.75 228.413,108.083 220.5,103.5C 216.413,108.915 212.746,114.582 209.5,120.5C 207.167,120.5 204.833,120.5 202.5,120.5C 211.292,103.931 222.292,88.9312 235.5,75.5C 231.983,72.5724 227.983,70.4057 223.5,69C 214.981,66.2036 206.314,64.0369 197.5,62.5C 196.062,62.7189 194.729,63.2189 193.5,64C 176.021,80.1492 162.354,98.9825 152.5,120.5C 150.167,120.5 147.833,120.5 145.5,120.5C 154.975,98.7084 168.308,79.7084 185.5,63.5C 186.043,63.44 186.376,63.1067 186.5,62.5C 181.014,61.1853 175.68,61.1853 170.5,62.5C 165.363,62.494 160.363,63.3274 155.5,65C 138.461,80.8657 125.128,99.3657 115.5,120.5C 113.5,120.5 111.5,120.5 109.5,120.5C 117.104,101.462 128.104,84.6292 142.5,70C 116.295,79.0277 96.6279,95.861 83.5,120.5C 79.8183,120.665 76.1516,120.499 72.5,120C 75.6667,116.833 78.8333,113.667 82,110.5C 82.6667,109.833 82.6667,109.167 82,108.5C 79.0219,112.988 74.8552,114.655 69.5,113.5C 67.9505,114.441 66.2838,115.107 64.5,115.5C 64.7512,113.83 65.4178,112.33 66.5,111C 76.3182,110.758 84.3182,106.758 90.5,99C 88.4324,99.0173 86.7657,100.017 85.5,102C 81.1126,102.226 76.7793,102.726 72.5,103.5C 71.7176,101.671 72.3843,100.171 74.5,99C 84.0004,99.9132 92.0004,96.9132 98.5,90C 95.5214,91.6203 92.1881,92.4536 88.5,92.5C 85.4525,91.7212 82.4525,91.3879 79.5,91.5C 79.9528,90.5416 80.6195,89.7083 81.5,89C 85.5159,88.8141 89.5159,88.8141 93.5,89C 97.2857,87.6074 100.952,85.9407 104.5,84C 105.696,83.3457 105.696,82.8457 104.5,82.5C 101.505,83.7237 98.5047,83.7237 95.5,82.5C 92.8147,81.9195 90.148,81.5862 87.5,81.5C 89.1992,79.9837 91.1992,78.9837 93.5,78.5C 101.486,81.8522 108.486,80.3522 114.5,74C 111.816,74.2629 109.149,74.4295 106.5,74.5C 105.702,74.0431 105.369,73.3764 105.5,72.5C 102.786,72.75 100.119,72.9167 97.5,73C 98.1667,72.3333 98.8333,71.6667 99.5,71C 103.298,70.0397 106.965,68.7064 110.5,67C 114.2,62.9648 118.2,59.2981 122.5,56C 117.844,56.6611 113.178,57.6611 108.5,59C 103.994,63.1733 99.8272,67.6733 96,72.5C 94,69.8333 94,67.1667 96,64.5C 96.5812,69.6959 97.4145,69.6959 98.5,64.5C 97.596,63.791 97.2627,62.791 97.5,61.5C 100.39,58.4474 103.724,55.9474 107.5,54C 105.487,51.0759 103.487,51.2426 101.5,54.5C 91.2992,58.9015 87.4659,66.5681 90,77.5C 88.955,78.3734 88.1217,79.3734 87.5,80.5C 87.1667,80.5 86.8333,80.5 86.5,80.5C 86.5,79.5 86.5,78.5 86.5,77.5C 87.8333,75.5 87.8333,73.5 86.5,71.5C 86.578,68.7482 86.7446,66.0816 87,63.5C 84.2774,66.5568 81.944,69.8901 80,73.5C 79.5475,77.1775 79.7142,80.8441 80.5,84.5C 80.6369,86.8405 79.9702,88.8405 78.5,90.5C 77.8333,87.8333 77.1667,85.1667 76.5,82.5C 76.179,81.1825 75.8457,79.8492 75.5,78.5C 76.3621,76.4896 76.8621,74.4896 77,72.5C 70.2958,79.7039 68.7958,87.8706 72.5,97C 71.7993,99.3804 70.6326,101.547 69,103.5C 68.7828,98.6961 67.9495,94.0294 66.5,89.5C 67.6555,83.1121 66.8222,83.1121 64,89.5C 62.5763,92.3441 61.743,95.3441 61.5,98.5C 62.2054,102.245 63.2054,105.912 64.5,109.5C 64.2859,112.252 63.2859,114.586 61.5,116.5C 62.0376,111.765 61.0376,107.431 58.5,103.5C 58.4781,99.9748 58.9781,96.6415 60,93.5C 58.3545,95.6093 57.1878,97.9427 56.5,100.5C 53.3104,107.439 53.9771,113.939 58.5,120C 55.6824,120.84 53.5157,120.006 52,117.5C 51.6667,114.833 51.3333,112.167 51,109.5C 49.6476,112.72 48.8143,116.053 48.5,119.5C 45.1667,119.5 41.8333,119.5 38.5,119.5C 42.9951,107.511 48.8284,96.1773 56,85.5C 99.6421,29.7271 156.142,9.89381 225.5,26C 274.508,40.971 308.508,72.1377 327.5,119.5C 324.167,119.5 320.833,119.5 317.5,119.5 Z"/></g>
<g><path style="opacity:1" fill="#dedee7" d="M 176.5,28.5 C 178.797,29.8347 180.797,31.6681 182.5,34C 180.536,34.624 178.869,34.124 177.5,32.5C 175.831,33.8897 174.164,34.2231 172.5,33.5C 173.857,31.8144 175.19,30.1477 176.5,28.5 Z"/></g>
<g><path style="opacity:1" fill="#ebebf0" d="M 186.5,50.5 C 187.816,47.9134 188.483,44.9134 188.5,41.5C 188.483,38.0866 187.816,35.0866 186.5,32.5C 187.918,30.6921 189.918,30.0254 192.5,30.5C 192.203,37.5581 192.536,44.5581 193.5,51.5C 192.333,51.8333 191.167,52.1667 190,52.5C 188.319,52.3917 187.152,51.7251 186.5,50.5 Z"/></g>
<g><path style="opacity:1" fill="#e5e6ed" d="M 211.5,30.5 C 214.95,29.7564 216.616,31.0897 216.5,34.5C 214.833,34.5 213.167,34.5 211.5,34.5C 211.5,33.1667 211.5,31.8333 211.5,30.5 Z"/></g>
<g><path style="opacity:1" fill="#7e84a3" d="M 156.5,34.5 C 155.848,33.2749 154.681,32.6083 153,32.5C 151.319,32.6083 150.152,33.2749 149.5,34.5C 148.596,33.791 148.263,32.791 148.5,31.5C 151.5,31.5 154.5,31.5 157.5,31.5C 157.737,32.791 157.404,33.791 156.5,34.5 Z"/></g>
<g><path style="opacity:1" fill="#8489a7" d="M 168.5,34.5 C 168.03,33.3065 167.03,32.6399 165.5,32.5C 163.97,32.6399 162.97,33.3065 162.5,34.5C 161.596,33.791 161.263,32.791 161.5,31.5C 164.167,31.5 166.833,31.5 169.5,31.5C 169.737,32.791 169.404,33.791 168.5,34.5 Z"/></g>
<g><path style="opacity:1" fill="#f1f2f5" d="M 156.5,34.5 C 155.903,34.7352 155.57,35.2352 155.5,36C 156.667,39.5 157.833,43 159,46.5C 160.784,42.9879 162.284,39.3213 163.5,35.5C 163.376,34.8933 163.043,34.56 162.5,34.5C 162.97,33.3065 163.97,32.6399 165.5,32.5C 167.03,32.6399 168.03,33.3065 168.5,34.5C 167.21,35.0577 166.377,36.0577 166,37.5C 164.19,42.4287 162.69,47.4287 161.5,52.5C 159.833,52.5 158.167,52.5 156.5,52.5C 155.679,45.6665 153.345,39.6665 149.5,34.5C 150.152,33.2749 151.319,32.6083 153,32.5C 154.681,32.6083 155.848,33.2749 156.5,34.5 Z"/></g>
<g><path style="opacity:1" fill="#6c7296" d="M 186.5,32.5 C 187.816,35.0866 188.483,38.0866 188.5,41.5C 188.483,44.9134 187.816,47.9134 186.5,50.5C 187.833,44.5 187.833,38.5 186.5,32.5 Z"/></g>
<g><path style="opacity:1" fill="#f0f0f4" d="M 174.5,36.5 C 182.315,36.1232 185.482,39.7898 184,47.5C 181.565,52.2238 177.731,53.7238 172.5,52C 170.522,48.0669 170.022,43.9002 171,39.5C 172.145,38.3636 173.312,37.3636 174.5,36.5 Z"/></g>
<g><path style="opacity:1" fill="#e7e8ee" d="M 199.5,36.5 C 202.602,36.154 205.435,36.8207 208,38.5C 208.635,40.6354 208.301,42.6354 207,44.5C 204.423,45.2711 201.923,46.2711 199.5,47.5C 201.663,49.7198 204.163,50.0531 207,48.5C 208.113,49.7604 208.28,50.927 207.5,52C 198.229,54.3941 194.395,50.8941 196,41.5C 196.997,39.6769 198.164,38.0103 199.5,36.5 Z"/></g>
<g><path style="opacity:1" fill="#fbfbfc" d="M 210.5,37.5 C 212.167,37.5 213.833,37.5 215.5,37.5C 215.183,41.7016 215.517,45.7016 216.5,49.5C 216.804,50.1499 217.137,50.8165 217.5,51.5C 215.257,52.4742 212.924,52.8076 210.5,52.5C 213.051,47.4545 213.051,42.4545 210.5,37.5 Z"/></g>
<g><path style="opacity:1" fill="#898eab" d="M 210.5,37.5 C 212.265,36.5386 214.265,36.2053 216.5,36.5C 216.5,40.8333 216.5,45.1667 216.5,49.5C 215.517,45.7016 215.183,41.7016 215.5,37.5C 213.833,37.5 212.167,37.5 210.5,37.5 Z"/></g>
<g><path style="opacity:1" fill="#343a6d" d="M 175.5,39.5 C 177.144,39.2865 178.644,39.6198 180,40.5C 180.667,43.1667 180.667,45.8333 180,48.5C 175.704,51.4267 173.538,50.0934 173.5,44.5C 173.437,42.4861 174.103,40.8194 175.5,39.5 Z"/></g>
<g><path style="opacity:1" fill="#2d3468" d="M 200.5,39.5 C 201.833,39.5 203.167,39.5 204.5,39.5C 204.499,43.2518 202.833,44.2518 199.5,42.5C 200.127,41.5832 200.461,40.5832 200.5,39.5 Z"/></g>
<g><path style="opacity:1" fill="#504b64" d="M 97.5,61.5 C 97.9613,58.6967 99.2947,56.3634 101.5,54.5C 103.487,51.2426 105.487,51.0759 107.5,54C 103.724,55.9474 100.39,58.4474 97.5,61.5 Z"/></g>
<g><path style="opacity:1" fill="#bba16b" d="M 279.5,77.5 C 280.222,77.9175 280.722,78.5842 281,79.5C 281.167,78.6667 281.333,77.8333 281.5,77C 281.046,75.0614 280.379,73.228 279.5,71.5C 280.029,67.8084 279.029,64.6417 276.5,62C 280.415,64.8609 283.581,68.6942 286,73.5C 286.453,77.1775 286.286,80.8441 285.5,84.5C 285.441,87.1094 286.108,89.4428 287.5,91.5C 286.373,90.8783 285.373,90.045 284.5,89C 276.274,89.6159 268.608,87.9492 261.5,84C 260.304,83.3457 260.304,82.8457 261.5,82.5C 264.474,83.5767 267.474,83.5767 270.5,82.5C 271.552,83.5305 272.886,84.1971 274.5,84.5C 276.988,84.6289 278.321,83.9623 278.5,82.5C 277.09,80.0404 274.924,78.7071 272,78.5C 264.486,81.8228 257.986,80.4894 252.5,74.5C 254.549,75.6414 256.549,75.6414 258.5,74.5C 258.833,74.5 259.167,74.5 259.5,74.5C 263.812,76.193 267.812,75.693 271.5,73C 271.272,72.6012 270.938,72.4346 270.5,72.5C 271.98,69.7449 271.813,67.0782 270,64.5C 269.667,65.8333 269.333,67.1667 269,68.5C 267.262,64.7587 264.762,61.592 261.5,59C 264.093,59.5465 266.26,61.0465 268,63.5C 268.163,61.6133 267.329,60.1133 265.5,59C 266.167,58.6667 266.833,58.3333 267.5,58C 266.5,57 265.5,56 264.5,55C 271.026,57.0371 275.026,61.5371 276.5,68.5C 274.448,73.2086 275.281,77.2086 279,80.5C 279.483,79.552 279.649,78.552 279.5,77.5 Z"/></g>
<g><path style="opacity:1" fill="#b89e6b" d="M 101.5,54.5 C 99.2947,56.3634 97.9613,58.6967 97.5,61.5C 97.2627,62.791 97.596,63.791 98.5,64.5C 97.4145,69.6959 96.5812,69.6959 96,64.5C 94,67.1667 94,69.8333 96,72.5C 99.8272,67.6733 103.994,63.1733 108.5,59C 113.178,57.6611 117.844,56.6611 122.5,56C 118.2,59.2981 114.2,62.9648 110.5,67C 106.965,68.7064 103.298,70.0397 99.5,71C 98.8333,71.6667 98.1667,72.3333 97.5,73C 100.119,72.9167 102.786,72.75 105.5,72.5C 105.369,73.3764 105.702,74.0431 106.5,74.5C 109.149,74.4295 111.816,74.2629 114.5,74C 108.486,80.3522 101.486,81.8522 93.5,78.5C 91.1992,78.9837 89.1992,79.9837 87.5,81.5C 87.5,81.1667 87.5,80.8333 87.5,80.5C 88.1217,79.3734 88.955,78.3734 90,77.5C 87.4659,66.5681 91.2992,58.9015 101.5,54.5 Z"/></g>
<g><path style="opacity:1" fill="#bea36b" d="M 266.5,69.5 C 266.5,69.8333 266.5,70.1667 266.5,70.5C 263.135,69.8596 259.802,69.0262 256.5,68C 252.467,63.6321 248.134,59.6321 243.5,56C 249.376,56.6495 255.043,58.3162 260.5,61C 262.891,63.6371 264.891,66.4704 266.5,69.5 Z"/></g>
<g><path style="opacity:1" fill="#867867" d="M 98.5,64.5 C 99.1476,61.6772 100.814,60.1772 103.5,60C 101.963,61.7073 100.296,63.2073 98.5,64.5 Z"/></g>
<g><path style="opacity:1" fill="#353661" d="M 111.5,60.5 C 112.376,60.3691 113.043,60.7025 113.5,61.5C 111.192,62.8734 110.525,62.5401 111.5,60.5 Z"/></g>
<g><path style="opacity:1" fill="#b8bacb" d="M 170.5,62.5 C 175.68,61.1853 181.014,61.1853 186.5,62.5C 186.376,63.1067 186.043,63.44 185.5,63.5C 180.695,62.5128 175.695,62.1795 170.5,62.5 Z"/></g>
<g><path style="opacity:1" fill="#232b60" d="M 252.5,61.5 C 253.497,60.2875 254.497,60.4542 255.5,62C 254.423,62.4696 253.423,62.3029 252.5,61.5 Z"/></g>
<g><path style="opacity:1" fill="#fbfbfc" d="M 170.5,62.5 C 175.695,62.1795 180.695,62.5128 185.5,63.5C 168.308,79.7084 154.975,98.7084 145.5,120.5C 135.5,120.5 125.5,120.5 115.5,120.5C 125.128,99.3657 138.461,80.8657 155.5,65C 160.363,63.3274 165.363,62.494 170.5,62.5 Z"/></g>
<g><path style="opacity:1" fill="#fcfcfc" d="M 202.5,120.5 C 185.833,120.5 169.167,120.5 152.5,120.5C 162.354,98.9825 176.021,80.1492 193.5,64C 194.729,63.2189 196.062,62.7189 197.5,62.5C 206.314,64.0369 214.981,66.2036 223.5,69C 227.983,70.4057 231.983,72.5724 235.5,75.5C 222.292,88.9312 211.292,103.931 202.5,120.5 Z"/></g>
<g><path style="opacity:1" fill="#bea36b" d="M 86.5,71.5 C 85.621,73.228 84.9543,75.0614 84.5,77C 84.6667,77.8333 84.8333,78.6667 85,79.5C 85.2784,78.5842 85.7784,77.9175 86.5,77.5C 86.5,78.5 86.5,79.5 86.5,80.5C 84.1481,81.5426 83.9815,82.8759 86,84.5C 88.369,84.2734 90.869,84.1067 93.5,84C 94.0442,83.2828 94.7109,82.7828 95.5,82.5C 98.5047,83.7237 101.505,83.7237 104.5,82.5C 105.696,82.8457 105.696,83.3457 104.5,84C 100.952,85.9407 97.2857,87.6074 93.5,89C 89.5159,88.8141 85.5159,88.8141 81.5,89C 80.6195,89.7083 79.9528,90.5416 79.5,91.5C 78.8333,91.5 78.5,91.1667 78.5,90.5C 79.9702,88.8405 80.6369,86.8405 80.5,84.5C 79.7142,80.8441 79.5475,77.1775 80,73.5C 81.944,69.8901 84.2774,66.5568 87,63.5C 86.7446,66.0816 86.578,68.7482 86.5,71.5 Z"/></g>
<g><path style="opacity:1" fill="#817467" d="M 105.5,72.5 C 107.179,70.8253 109.179,69.992 111.5,70C 109.842,71.6625 107.842,72.4959 105.5,72.5 Z"/></g>
<g><path style="opacity:1" fill="#f9f9fa" d="M 109.5,120.5 C 100.833,120.5 92.1667,120.5 83.5,120.5C 96.6279,95.861 116.295,79.0277 142.5,70C 128.104,84.6292 117.104,101.462 109.5,120.5 Z"/></g>
<g><path style="opacity:1" fill="#645c65" d="M 258.5,74.5 C 256.549,75.6414 254.549,75.6414 252.5,74.5C 250.804,74.3146 249.471,73.4813 248.5,72C 250.047,71.6666 251.38,72.1666 252.5,73.5C 252.833,72.8333 253.167,72.1667 253.5,71.5C 255.396,72.2745 257.063,73.2745 258.5,74.5 Z"/></g>
<g><path style="opacity:1" fill="#827368" d="M 266.5,70.5 C 266.5,70.1667 266.5,69.8333 266.5,69.5C 267.833,70.5 269.167,71.5 270.5,72.5C 270.938,72.4346 271.272,72.6012 271.5,73C 267.812,75.693 263.812,76.193 259.5,74.5C 257.837,72.4671 255.837,70.6338 253.5,69C 257.378,70.8349 261.544,72.3349 266,73.5C 266.833,73.3333 267.667,73.1667 268.5,73C 267.619,72.2917 266.953,71.4584 266.5,70.5 Z"/></g>
<g><path style="opacity:1" fill="#5c5565" d="M 86.5,71.5 C 87.8333,73.5 87.8333,75.5 86.5,77.5C 85.7784,77.9175 85.2784,78.5842 85,79.5C 84.8333,78.6667 84.6667,77.8333 84.5,77C 84.9543,75.0614 85.621,73.228 86.5,71.5 Z"/></g>
<g><path style="opacity:1" fill="#5c5565" d="M 279.5,71.5 C 280.379,73.228 281.046,75.0614 281.5,77C 281.333,77.8333 281.167,78.6667 281,79.5C 280.722,78.5842 280.222,77.9175 279.5,77.5C 278.167,75.5 278.167,73.5 279.5,71.5 Z"/></g>
<g><path style="opacity:1" fill="#fbfbfb" d="M 282.5,120.5 C 271.833,120.5 261.167,120.5 250.5,120.5C 248.038,117.536 245.371,114.703 242.5,112C 236.331,107.326 230.331,102.493 224.5,97.5C 229.425,90.3055 235.258,83.9721 242,78.5C 259.44,88.7718 272.94,102.772 282.5,120.5 Z"/></g>
<g><path style="opacity:1" fill="#776a67" d="M 86.5,80.5 C 86.8333,80.5 87.1667,80.5 87.5,80.5C 87.5,80.8333 87.5,81.1667 87.5,81.5C 90.148,81.5862 92.8147,81.9195 95.5,82.5C 94.7109,82.7828 94.0442,83.2828 93.5,84C 90.869,84.1067 88.369,84.2734 86,84.5C 83.9815,82.8759 84.1481,81.5426 86.5,80.5 Z"/></g>
<g><path style="opacity:1" fill="#6a6066" d="M 270.5,82.5 C 273.005,81.5033 275.672,81.5033 278.5,82.5C 278.321,83.9623 276.988,84.6289 274.5,84.5C 272.886,84.1971 271.552,83.5305 270.5,82.5 Z"/></g>
<g><path style="opacity:1" fill="#645c65" d="M 289.5,82.5 C 290.379,84.228 291.046,86.0614 291.5,88C 291.316,89.3756 290.649,90.2089 289.5,90.5C 288.167,87.8333 288.167,85.1667 289.5,82.5 Z"/></g>
<g><path style="opacity:1" fill="#b89f6b" d="M 76.5,82.5 C 75.6532,84.0291 74.9865,85.6958 74.5,87.5C 75.4299,89.9361 76.5966,92.2695 78,94.5C 81.5532,94.9122 85.0532,94.2455 88.5,92.5C 92.1881,92.4536 95.5214,91.6203 98.5,90C 92.0004,96.9132 84.0004,99.9132 74.5,99C 72.3843,100.171 71.7176,101.671 72.5,103.5C 76.7793,102.726 81.1126,102.226 85.5,102C 86.7657,100.017 88.4324,99.0173 90.5,99C 84.3182,106.758 76.3182,110.758 66.5,111C 65.4178,112.33 64.7512,113.83 64.5,115.5C 63.6618,115.842 63.3284,116.508 63.5,117.5C 62.7839,117.783 61.9506,118.116 61,118.5C 60.3083,117.563 60.475,116.897 61.5,116.5C 63.2859,114.586 64.2859,112.252 64.5,109.5C 63.2054,105.912 62.2054,102.245 61.5,98.5C 61.743,95.3441 62.5763,92.3441 64,89.5C 66.8222,83.1121 67.6555,83.1121 66.5,89.5C 67.9495,94.0294 68.7828,98.6961 69,103.5C 70.6326,101.547 71.7993,99.3804 72.5,97C 68.7958,87.8706 70.2958,79.7039 77,72.5C 76.8621,74.4896 76.3621,76.4896 75.5,78.5C 75.8457,79.8492 76.179,81.1825 76.5,82.5 Z"/></g>
<g><path style="opacity:1" fill="#b9a06b" d="M 304.5,116.5 C 305.525,116.897 305.692,117.563 305,118.5C 304.049,118.116 303.216,117.783 302.5,117.5C 302.672,116.508 302.338,115.842 301.5,115.5C 301.249,113.83 300.582,112.33 299.5,111C 291.84,111.509 285.507,109.009 280.5,103.5C 280.5,102.833 280.833,102.5 281.5,102.5C 286.015,102.654 290.348,102.654 294.5,102.5C 293.687,101.186 292.687,100.019 291.5,99C 282,99.9132 274,96.9132 267.5,90C 270.479,91.6203 273.812,92.4536 277.5,92.5C 279.607,93.3004 281.774,93.9671 284,94.5C 285.07,94.472 285.903,94.1386 286.5,93.5C 287.338,93.1583 287.672,92.4916 287.5,91.5C 288.925,93.0311 289.591,92.6977 289.5,90.5C 290.649,90.2089 291.316,89.3756 291.5,88C 291.046,86.0614 290.379,84.228 289.5,82.5C 289.821,81.1825 290.154,79.8492 290.5,78.5C 289.579,76.0327 288.745,73.6994 288,71.5C 294.059,77.2793 296.392,84.2793 295,92.5C 292.705,96.692 293.372,100.359 297,103.5C 297.217,98.6961 298.051,94.0294 299.5,89.5C 299.379,88.1055 299.046,86.7722 298.5,85.5C 298.846,84.3044 299.346,84.3044 300,85.5C 302.204,89.6138 303.704,93.9472 304.5,98.5C 303.795,102.245 302.795,105.912 301.5,109.5C 301.714,112.252 302.714,114.586 304.5,116.5 Z"/></g>
<g><path style="opacity:1" fill="#7c6e67" d="M 277.5,92.5 C 278.449,91.8476 279.615,91.5143 281,91.5C 283.221,91.3932 285.054,92.0598 286.5,93.5C 285.903,94.1386 285.07,94.472 284,94.5C 281.774,93.9671 279.607,93.3004 277.5,92.5 Z"/></g>
<g><path style="opacity:1" fill="#716666" d="M 76.5,82.5 C 77.1667,85.1667 77.8333,87.8333 78.5,90.5C 78.5,91.1667 78.8333,91.5 79.5,91.5C 82.4525,91.3879 85.4525,91.7212 88.5,92.5C 85.0532,94.2455 81.5532,94.9122 78,94.5C 76.5966,92.2695 75.4299,89.9361 74.5,87.5C 74.9865,85.6958 75.6532,84.0291 76.5,82.5 Z"/></g>
<g><path style="opacity:1" fill="#837567" d="M 58.5,103.5 C 57.8333,102.5 57.1667,101.5 56.5,100.5C 57.1878,97.9427 58.3545,95.6093 60,93.5C 58.9781,96.6415 58.4781,99.9748 58.5,103.5 Z"/></g>
<g><path style="opacity:1" fill="#837567" d="M 309.5,100.5 C 308.833,101.5 308.167,102.5 307.5,103.5C 307.522,99.9748 307.022,96.6415 306,93.5C 307.646,95.6093 308.812,97.9427 309.5,100.5 Z"/></g>
<g><path style="opacity:1" fill="#786c67" d="M 281.5,102.5 C 280.833,102.5 280.5,102.833 280.5,103.5C 278.704,102.207 277.037,100.707 275.5,99C 277.812,99.4466 279.812,100.613 281.5,102.5 Z"/></g>
<g><path style="opacity:1" fill="#373962" d="M 74.5,103.5 C 78.2213,103.793 78.0546,104.459 74,105.5C 73.5,105.333 73,105.167 72.5,105C 73.4158,104.722 74.0825,104.222 74.5,103.5 Z"/></g>
<g><path style="opacity:1" fill="#f9f8f7" d="M 241.5,120.5 C 230.833,120.5 220.167,120.5 209.5,120.5C 212.746,114.582 216.413,108.915 220.5,103.5C 228.413,108.083 235.413,113.75 241.5,120.5 Z"/></g>
<g><path style="opacity:1" fill="#373962" d="M 288.5,104.5 C 290.089,103.379 291.756,103.546 293.5,105C 291.803,105.384 290.137,105.218 288.5,104.5 Z"/></g>
<g><path style="opacity:1" fill="#6a6066" d="M 69.5,113.5 C 69.9175,114.222 70.5842,114.722 71.5,115C 68.8899,116.849 66.2232,117.682 63.5,117.5C 63.3284,116.508 63.6618,115.842 64.5,115.5C 66.2838,115.107 67.9505,114.441 69.5,113.5 Z"/></g>
<g><path style="opacity:1" fill="#5b5465" d="M 296.5,113.5 C 298.05,114.441 299.716,115.107 301.5,115.5C 302.338,115.842 302.672,116.508 302.5,117.5C 301.009,117.099 299.342,116.932 297.5,117C 296.672,116.085 295.672,115.419 294.5,115C 295.416,114.722 296.082,114.222 296.5,113.5 Z"/></g>
<g><path style="opacity:1" fill="#222b61" d="M 6.5,124.5 C 123.834,124.333 241.167,124.5 358.5,125C 359.931,125.465 361.097,126.299 362,127.5C 362.667,162.167 362.667,196.833 362,231.5C 361.626,232.416 361.126,233.25 360.5,234C 242.167,234.667 123.833,234.667 5.5,234C 4.87424,233.25 4.37424,232.416 4,231.5C 3.33333,196.833 3.33333,162.167 4,127.5C 5.04499,126.627 5.87833,125.627 6.5,124.5 Z"/></g>
<g><path style="opacity:1" fill="#fcfcfd" d="M 16.5,139.5 C 29.5043,139.333 42.5043,139.5 55.5,140C 64.2486,140.784 70.082,145.284 73,153.5C 76.4958,167.147 72.3292,177.48 60.5,184.5C 65.3333,192.833 70.1667,201.167 75,209.5C 76.8357,211.708 79.169,213.042 82,213.5C 82.4966,215.81 82.6633,218.143 82.5,220.5C 75.8002,220.83 69.1335,220.497 62.5,219.5C 57.3333,209.167 52.1667,198.833 47,188.5C 44.9592,187.577 42.7925,187.244 40.5,187.5C 40.3337,194.841 40.5003,202.174 41,209.5C 43.3333,211.167 45.6667,212.833 48,214.5C 48.4955,216.473 48.6621,218.473 48.5,220.5C 37.585,220.82 26.7517,220.487 16,219.5C 15.3333,217.833 15.3333,216.167 16,214.5C 18.4985,212.583 21.1651,210.916 24,209.5C 24.6667,189.833 24.6667,170.167 24,150.5C 21.1651,149.084 18.4985,147.417 16,145.5C 15.3224,143.402 15.4891,141.402 16.5,139.5 Z"/></g>
<g><path style="opacity:1" fill="#fbfbfc" d="M 275.5,142.5 C 275.5,148.167 275.5,153.833 275.5,159.5C 280.5,159.5 285.5,159.5 290.5,159.5C 291.097,159.735 291.43,160.235 291.5,161C 291.077,164.478 290.077,167.644 288.5,170.5C 284.167,170.5 279.833,170.5 275.5,170.5C 275.172,182.345 275.505,194.012 276.5,205.5C 276.685,207.89 278.018,208.89 280.5,208.5C 283.216,208.039 285.882,207.373 288.5,206.5C 289.167,206.833 289.833,207.167 290.5,207.5C 292.171,211.364 292.671,215.364 292,219.5C 284.015,222.801 275.848,223.301 267.5,221C 263.476,217.787 261.476,213.62 261.5,208.5C 261.5,195.833 261.5,183.167 261.5,170.5C 259.167,170.5 256.833,170.5 254.5,170.5C 253.518,167.038 253.185,163.371 253.5,159.5C 255.833,159.5 258.167,159.5 260.5,159.5C 260.334,154.489 260.501,149.489 261,144.5C 265.631,142.728 270.464,142.062 275.5,142.5 Z"/></g>
<g><path style="opacity:1" fill="#8286a4" d="M 275.5,142.5 C 276.488,147.64 276.821,152.974 276.5,158.5C 281.363,158.181 286.03,158.514 290.5,159.5C 285.5,159.5 280.5,159.5 275.5,159.5C 275.5,153.833 275.5,148.167 275.5,142.5 Z"/></g>
<g><path style="opacity:1" fill="#262e63" d="M 40.5,151.5 C 56.7609,150.534 61.4276,157.367 54.5,172C 50.1156,174.208 45.449,175.041 40.5,174.5C 40.5,166.833 40.5,159.167 40.5,151.5 Z"/></g>
<g><path style="opacity:1" fill="#fafafb" d="M 101.5,157.5 C 118.478,154.732 128.645,161.732 132,178.5C 132.667,183.5 132.667,188.5 132,193.5C 120.915,194.487 109.748,194.821 98.5,194.5C 98.5537,207.376 104.887,212.209 117.5,209C 120.333,207.833 123.167,206.667 126,205.5C 128.254,208.237 129.754,211.404 130.5,215C 130.215,216.89 129.215,218.223 127.5,219C 116.407,223.52 105.407,223.52 94.5,219C 88.867,214.91 85.367,209.41 84,202.5C 83.3333,194.833 83.3333,187.167 84,179.5C 86.3638,169.313 92.1971,161.98 101.5,157.5 Z"/></g>
<g><path style="opacity:1" fill="#fcfcfd" d="M 168.5,157.5 C 173.599,157.175 178.599,157.675 183.5,159C 185.917,160.663 187.75,162.829 189,165.5C 190.118,180.111 190.951,194.777 191.5,209.5C 193.583,210.959 195.75,212.292 198,213.5C 198.497,215.81 198.663,218.143 198.5,220.5C 190.833,220.5 183.167,220.5 175.5,220.5C 175.667,205.163 175.5,189.83 175,174.5C 172.487,170.788 168.987,169.622 164.5,171C 162.391,172.141 160.558,173.641 159,175.5C 158.168,186.848 158.334,198.181 159.5,209.5C 161.5,210.833 163.5,212.167 165.5,213.5C 166.474,215.743 166.808,218.076 166.5,220.5C 156.167,220.5 145.833,220.5 135.5,220.5C 135.192,218.076 135.526,215.743 136.5,213.5C 138.799,212.365 140.966,211.032 143,209.5C 143.667,197.167 143.667,184.833 143,172.5C 141.12,170.047 138.787,168.047 136,166.5C 135.503,164.19 135.337,161.857 135.5,159.5C 142.2,159.17 148.866,159.503 155.5,160.5C 155.977,161.931 156.643,163.264 157.5,164.5C 161.095,161.88 164.762,159.547 168.5,157.5 Z"/></g>
<g><path style="opacity:1" fill="#f9f9fb" d="M 213.5,157.5 C 220.906,157.152 228.239,157.652 235.5,159C 240.703,161.553 243.87,165.72 245,171.5C 245.333,183.833 245.667,196.167 246,208.5C 247.815,210.405 249.815,212.072 252,213.5C 252.497,215.81 252.663,218.143 252.5,220.5C 246.491,220.666 240.491,220.499 234.5,220C 233.773,218.601 233.273,217.101 233,215.5C 226.121,222.545 217.954,224.378 208.5,221C 198.848,212.689 197.015,202.855 203,191.5C 210.635,184.126 219.802,181.126 230.5,182.5C 230.957,178.416 230.29,174.583 228.5,171C 226.256,170.094 223.923,169.594 221.5,169.5C 216.373,170.433 211.373,171.766 206.5,173.5C 206.121,169.985 205.121,166.652 203.5,163.5C 206.275,160.451 209.608,158.451 213.5,157.5 Z"/></g>
<g><path style="opacity:1" fill="#fafafb" d="M 310.5,157.5 C 317.175,157.334 323.842,157.5 330.5,158C 337.021,160.206 340.854,164.706 342,171.5C 342.333,183.5 342.667,195.5 343,207.5C 344.86,210.272 347.194,212.605 350,214.5C 350.495,216.473 350.662,218.473 350.5,220.5C 344.158,220.666 337.825,220.5 331.5,220C 330.773,218.601 330.273,217.101 330,215.5C 324.245,222.037 317.078,224.203 308.5,222C 300.197,218.399 296.53,212.065 297.5,203C 297.265,193.163 301.931,186.83 311.5,184C 316.767,182.809 322.101,182.309 327.5,182.5C 329.959,174.083 326.959,169.749 318.5,169.5C 313.923,170.025 309.59,171.359 305.5,173.5C 304.914,173.291 304.414,172.957 304,172.5C 303.127,169.382 301.961,166.382 300.5,163.5C 300.977,162.522 301.643,161.689 302.5,161C 305.309,159.907 307.976,158.74 310.5,157.5 Z"/></g>
<g><path style="opacity:1" fill="#262e63" d="M 105.5,168.5 C 114.29,168.97 117.957,173.637 116.5,182.5C 110.5,182.5 104.5,182.5 98.5,182.5C 97.808,176.204 100.141,171.537 105.5,168.5 Z"/></g>
<g><path style="opacity:1" fill="#999db5" d="M 254.5,170.5 C 256.833,170.5 259.167,170.5 261.5,170.5C 261.5,183.167 261.5,195.833 261.5,208.5C 260.505,196.345 260.171,184.011 260.5,171.5C 258.265,171.795 256.265,171.461 254.5,170.5 Z"/></g>
<g><path style="opacity:1" fill="#9095af" d="M 288.5,170.5 C 284.702,171.483 280.702,171.817 276.5,171.5C 276.5,182.833 276.5,194.167 276.5,205.5C 275.505,194.012 275.172,182.345 275.5,170.5C 279.833,170.5 284.167,170.5 288.5,170.5 Z"/></g>
<g><path style="opacity:1" fill="#252d63" d="M 223.5,193.5 C 225.833,193.5 228.167,193.5 230.5,193.5C 230.5,197.833 230.5,202.167 230.5,206.5C 226.286,212.045 221.453,212.712 216,208.5C 212.143,200.228 214.643,195.228 223.5,193.5 Z"/></g>
<g><path style="opacity:1" fill="#bbbdce" d="M 223.5,193.5 C 225.948,192.527 228.615,192.194 231.5,192.5C 231.819,197.363 231.486,202.03 230.5,206.5C 230.5,202.167 230.5,197.833 230.5,193.5C 228.167,193.5 225.833,193.5 223.5,193.5 Z"/></g>
<g><path style="opacity:1" fill="#262e63" d="M 320.5,193.5 C 322.833,193.5 325.167,193.5 327.5,193.5C 327.5,197.833 327.5,202.167 327.5,206.5C 323.286,212.045 318.453,212.712 313,208.5C 309.143,200.228 311.643,195.228 320.5,193.5 Z"/></g>
<g><path style="opacity:1" fill="#a8abbf" d="M 320.5,193.5 C 322.948,192.527 325.615,192.194 328.5,192.5C 328.819,197.363 328.486,202.03 327.5,206.5C 327.5,202.167 327.5,197.833 327.5,193.5C 325.167,193.5 322.833,193.5 320.5,193.5 Z"/></g>
<g><path style="opacity:0.9" fill="#fbfafa" d="M 41.5,247.5 C 71.7517,302.856 118.585,331.856 182,334.5C 246.375,332.586 293.875,303.586 324.5,247.5C 326.833,247.5 329.167,247.5 331.5,247.5C 331.5,248.5 331.5,249.5 331.5,250.5C 330.662,250.842 330.328,251.508 330.5,252.5C 329.833,252.5 329.5,252.833 329.5,253.5C 328.662,253.842 328.328,254.508 328.5,255.5C 327.662,255.842 327.328,256.508 327.5,257.5C 326.662,257.842 326.328,258.508 326.5,259.5C 325.599,260.29 324.932,261.29 324.5,262.5C 323.662,262.842 323.328,263.508 323.5,264.5C 322.833,264.5 322.5,264.833 322.5,265.5C 321.662,265.842 321.328,266.508 321.5,267.5C 320.833,267.5 320.5,267.833 320.5,268.5C 319.662,268.842 319.328,269.508 319.5,270.5C 318.833,270.5 318.5,270.833 318.5,271.5C 317.599,272.29 316.932,273.29 316.5,274.5C 315.833,274.5 315.5,274.833 315.5,275.5C 314.599,276.29 313.932,277.29 313.5,278.5C 312.833,278.5 312.5,278.833 312.5,279.5C 311.833,279.5 311.5,279.833 311.5,280.5C 310.599,281.29 309.932,282.29 309.5,283.5C 308.833,283.5 308.5,283.833 308.5,284.5C 307.833,284.5 307.5,284.833 307.5,285.5C 306.833,285.5 306.5,285.833 306.5,286.5C 305.833,286.5 305.5,286.833 305.5,287.5C 304.833,287.5 304.5,287.833 304.5,288.5C 301.833,291.833 298.833,294.833 295.5,297.5C 294.833,297.5 294.5,297.833 294.5,298.5C 293.833,298.5 293.5,298.833 293.5,299.5C 292.833,299.5 292.5,299.833 292.5,300.5C 291.833,300.5 291.5,300.833 291.5,301.5C 290.833,301.5 290.5,301.833 290.5,302.5C 289.833,302.5 289.5,302.833 289.5,303.5C 288.29,303.932 287.29,304.599 286.5,305.5C 285.833,305.5 285.5,305.833 285.5,306.5C 284.833,306.5 284.5,306.833 284.5,307.5C 283.508,307.328 282.842,307.662 282.5,308.5C 281.833,308.5 281.5,308.833 281.5,309.5C 280.833,309.5 280.5,309.833 280.5,310.5C 279.508,310.328 278.842,310.662 278.5,311.5C 277.833,311.5 277.5,311.833 277.5,312.5C 276.833,312.5 276.5,312.833 276.5,313.5C 275.508,313.328 274.842,313.662 274.5,314.5C 273.833,314.5 273.5,314.833 273.5,315.5C 272.508,315.328 271.842,315.662 271.5,316.5C 270.508,316.328 269.842,316.662 269.5,317.5C 268.833,317.5 268.5,317.833 268.5,318.5C 267.508,318.328 266.842,318.662 266.5,319.5C 265.508,319.328 264.842,319.662 264.5,320.5C 263.833,320.5 263.5,320.833 263.5,321.5C 262.508,321.328 261.842,321.662 261.5,322.5C 260.508,322.328 259.842,322.662 259.5,323.5C 258.508,323.328 257.842,323.662 257.5,324.5C 256.508,324.328 255.842,324.662 255.5,325.5C 254.508,325.328 253.842,325.662 253.5,326.5C 252.508,326.328 251.842,326.662 251.5,327.5C 250.209,327.263 249.209,327.596 248.5,328.5C 247.508,328.328 246.842,328.662 246.5,329.5C 245.508,329.328 244.842,329.662 244.5,330.5C 243.209,330.263 242.209,330.596 241.5,331.5C 240.209,331.263 239.209,331.596 238.5,332.5C 237.209,332.263 236.209,332.596 235.5,333.5C 234.209,333.263 233.209,333.596 232.5,334.5C 231.209,334.263 230.209,334.596 229.5,335.5C 227.901,335.232 226.568,335.566 225.5,336.5C 223.901,336.232 222.568,336.566 221.5,337.5C 219.901,337.232 218.568,337.566 217.5,338.5C 215.585,338.216 213.919,338.549 212.5,339.5C 209.941,339.198 207.607,339.532 205.5,340.5C 188.13,341.992 170.796,341.659 153.5,339.5C 152.081,338.549 150.415,338.216 148.5,338.5C 146.095,337.232 143.428,336.565 140.5,336.5C 139.432,335.566 138.099,335.232 136.5,335.5C 135.791,334.596 134.791,334.263 133.5,334.5C 132.791,333.596 131.791,333.263 130.5,333.5C 129.791,332.596 128.791,332.263 127.5,332.5C 126.791,331.596 125.791,331.263 124.5,331.5C 123.791,330.596 122.791,330.263 121.5,330.5C 121.158,329.662 120.492,329.328 119.5,329.5C 119.158,328.662 118.492,328.328 117.5,328.5C 116.791,327.596 115.791,327.263 114.5,327.5C 114.158,326.662 113.492,326.328 112.5,326.5C 112.158,325.662 111.492,325.328 110.5,325.5C 110.158,324.662 109.492,324.328 108.5,324.5C 108.158,323.662 107.492,323.328 106.5,323.5C 106.158,322.662 105.492,322.328 104.5,322.5C 104.158,321.662 103.492,321.328 102.5,321.5C 102.5,320.833 102.167,320.5 101.5,320.5C 101.158,319.662 100.492,319.328 99.5,319.5C 99.1583,318.662 98.4916,318.328 97.5,318.5C 97.0269,317.094 96.0269,316.427 94.5,316.5C 94.1583,315.662 93.4916,315.328 92.5,315.5C 92.5,314.833 92.1667,314.5 91.5,314.5C 91.1583,313.662 90.4916,313.328 89.5,313.5C 89.5,312.833 89.1667,312.5 88.5,312.5C 88.0269,311.094 87.0269,310.427 85.5,310.5C 85.5,309.833 85.1667,309.5 84.5,309.5C 84.0269,308.094 83.0269,307.427 81.5,307.5C 81.5,306.833 81.1667,306.5 80.5,306.5C 80.0269,305.094 79.0269,304.427 77.5,304.5C 77.5,303.833 77.1667,303.5 76.5,303.5C 76.5,302.833 76.1667,302.5 75.5,302.5C 75.5,301.833 75.1667,301.5 74.5,301.5C 74.5,300.833 74.1667,300.5 73.5,300.5C 72.4154,298.413 70.7488,297.08 68.5,296.5C 68.5,295.833 68.1667,295.5 67.5,295.5C 67.5,294.833 67.1667,294.5 66.5,294.5C 66.5,293.833 66.1667,293.5 65.5,293.5C 65.5,292.833 65.1667,292.5 64.5,292.5C 64.5,291.833 64.1667,291.5 63.5,291.5C 63.5,290.833 63.1667,290.5 62.5,290.5C 61.9202,288.251 60.5869,286.585 58.5,285.5C 58.5,284.833 58.1667,284.5 57.5,284.5C 57.5,283.833 57.1667,283.5 56.5,283.5C 56.5,282.833 56.1667,282.5 55.5,282.5C 55.573,280.973 54.9063,279.973 53.5,279.5C 53.5,278.833 53.1667,278.5 52.5,278.5C 52.5,277.833 52.1667,277.5 51.5,277.5C 51.573,275.973 50.9063,274.973 49.5,274.5C 49.5,273.833 49.1667,273.5 48.5,273.5C 48.6716,272.508 48.3382,271.842 47.5,271.5C 47.5,270.833 47.1667,270.5 46.5,270.5C 46.573,268.973 45.9063,267.973 44.5,267.5C 44.573,265.973 43.9063,264.973 42.5,264.5C 42.6716,263.508 42.3382,262.842 41.5,262.5C 41.5,261.833 41.1667,261.5 40.5,261.5C 40.6716,260.508 40.3382,259.842 39.5,259.5C 39.6716,258.508 39.3382,257.842 38.5,257.5C 38.6716,256.508 38.3382,255.842 37.5,255.5C 37.573,253.973 36.9063,252.973 35.5,252.5C 35.6716,251.508 35.3382,250.842 34.5,250.5C 34.5,249.5 34.5,248.5 34.5,247.5C 36.8333,247.5 39.1667,247.5 41.5,247.5 Z"/></g>
<g><path style="opacity:1" fill="#353739" d="M 41.5,247.5 C 46.0323,247.182 50.3656,247.515 54.5,248.5C 51.4816,248.335 48.4816,248.502 45.5,249C 79.2985,306.405 129.632,333.738 196.5,331C 251.723,324.407 293.056,297.074 320.5,249C 317.518,248.502 314.518,248.335 311.5,248.5C 315.634,247.515 319.968,247.182 324.5,247.5C 293.875,303.586 246.375,332.586 182,334.5C 118.585,331.856 71.7517,302.856 41.5,247.5 Z"/></g>
<g><path style="opacity:1" fill="#262d61" d="M 93.5,247.5 C 93.5,248.167 93.8333,248.5 94.5,248.5C 95.9061,251.414 97.9061,253.914 100.5,256C 140.92,267.733 180.586,265.566 219.5,249.5C 220.71,249.068 221.71,248.401 222.5,247.5C 226.833,247.5 231.167,247.5 235.5,247.5C 239.368,255.438 242.035,263.771 243.5,272.5C 255.255,266.756 264.922,258.423 272.5,247.5C 275.572,247.183 278.572,247.516 281.5,248.5C 280.777,254.912 280.777,261.245 281.5,267.5C 280.206,268.29 279.039,269.29 278,270.5C 276.578,267.97 276.245,265.303 277,262.5C 277.333,264.167 277.667,265.833 278,267.5C 278.25,262.486 277.916,257.486 277,252.5C 274.806,255.554 273.139,258.888 272,262.5C 272.46,267.536 272.293,272.536 271.5,277.5C 270.425,278.562 269.425,278.562 268.5,277.5C 269.776,274.697 269.776,272.03 268.5,269.5C 268.578,266.748 268.745,264.082 269,261.5C 263.201,267.634 260.868,274.967 262,283.5C 260.629,285.041 259.129,286.375 257.5,287.5C 258.262,285.044 258.929,282.544 259.5,280C 259.472,278.93 259.139,278.097 258.5,277.5C 258.454,274.568 258.954,271.902 260,269.5C 253.18,275.797 249.68,283.464 249.5,292.5C 246.479,295.484 245.479,295.151 246.5,291.5C 248.175,288.493 248.841,285.16 248.5,281.5C 249.027,277.674 247.861,277.674 245,281.5C 240.734,286.367 238.4,292.033 238,298.5C 236.348,299.399 234.848,300.399 233.5,301.5C 231.158,301.225 231.158,300.392 233.5,299C 232.465,297.493 232.632,295.993 234,294.5C 234.333,295.5 234.667,296.5 235,297.5C 236.153,294.289 236.82,290.956 237,287.5C 238.167,286.333 239.333,285.167 240.5,284C 232.262,287.224 227.429,293.391 226,302.5C 224.89,304.037 223.39,304.703 221.5,304.5C 222.5,302.5 223.5,300.5 224.5,298.5C 224.171,295.772 224.837,293.438 226.5,291.5C 228.138,290.343 229.804,289.176 231.5,288C 229.332,287.751 227.665,288.584 226.5,290.5C 222.328,292.158 218.828,294.825 216,298.5C 215.171,302.161 213.671,305.495 211.5,308.5C 215.213,310.04 218.547,312.207 221.5,315C 227.237,315.789 232.903,315.456 238.5,314C 236.167,313.667 233.833,313.333 231.5,313C 230.211,311.198 228.544,310.031 226.5,309.5C 225.07,308.463 223.403,307.796 221.5,307.5C 220.761,307.631 220.094,307.464 219.5,307C 225.232,304.413 230.232,305.413 234.5,310C 241.152,311.035 247.485,310.035 253.5,307C 251.674,306.708 249.841,306.875 248,307.5C 245.292,306.891 242.792,305.891 240.5,304.5C 238.371,303.797 236.371,302.797 234.5,301.5C 239.32,299.748 243.653,300.581 247.5,304C 253.454,304.132 259.12,302.798 264.5,300C 260.325,299.815 256.325,298.981 252.5,297.5C 250.708,296.691 248.708,296.191 246.5,296C 248.066,295.392 249.4,294.558 250.5,293.5C 254.491,294.493 258.491,295.493 262.5,296.5C 267.493,295.503 272.16,293.67 276.5,291C 274.821,290.605 273.155,290.772 271.5,291.5C 267.324,289.979 262.991,289.145 258.5,289C 260.045,287.06 262.045,285.894 264.5,285.5C 272.492,288.75 279.825,287.583 286.5,282C 287.696,281.346 287.696,280.846 286.5,280.5C 281.559,281.098 276.559,281.098 271.5,280.5C 271.062,280.565 270.728,280.399 270.5,280C 271.381,279.292 272.047,278.458 272.5,277.5C 283.955,279.446 293.288,275.779 300.5,266.5C 300.333,266.167 300.167,265.833 300,265.5C 297.377,269.903 293.543,271.569 288.5,270.5C 285.988,269.133 283.655,269.466 281.5,271.5C 280.761,271.631 280.094,271.464 279.5,271C 280.71,269.961 281.71,268.794 282.5,267.5C 292.973,268.673 300.807,265.007 306,256.5C 305.184,257.823 304.017,258.489 302.5,258.5C 299.482,258.335 296.482,258.502 293.5,259C 291.68,259.2 290.347,260.034 289.5,261.5C 288.662,261.158 288.328,260.492 288.5,259.5C 289.962,258.542 291.295,257.376 292.5,256C 296.584,255.769 300.584,255.102 304.5,254C 306.864,252.158 309.197,250.325 311.5,248.5C 314.518,248.335 317.518,248.502 320.5,249C 293.056,297.074 251.723,324.407 196.5,331C 129.632,333.738 79.2985,306.405 45.5,249C 48.4816,248.502 51.4816,248.335 54.5,248.5C 57.4706,250.657 60.4706,252.824 63.5,255C 66.8333,255.333 70.1667,255.667 73.5,256C 79.1335,260.886 78.8001,262.053 72.5,259.5C 69.7131,258.523 66.7131,258.19 63.5,258.5C 62.2794,257.972 61.1127,257.305 60,256.5C 62.3035,260.138 65.4702,263.305 69.5,266C 73.8333,266.333 78.1667,266.667 82.5,267C 83.8333,268.333 85.1667,269.667 86.5,271C 85.9056,271.464 85.2389,271.631 84.5,271.5C 82.7354,270.539 80.7354,270.205 78.5,270.5C 76.1667,270.5 73.8333,270.5 71.5,270.5C 69.563,269.069 67.7297,267.402 66,265.5C 66.4265,268.121 67.9265,270.121 70.5,271.5C 72.9639,273.57 75.6305,275.404 78.5,277C 83.8844,276.817 89.2177,276.984 94.5,277.5C 93.7066,272.536 93.54,267.536 94,262.5C 89.3512,249.055 87.1845,249.722 87.5,264.5C 87.845,266.566 88.0116,268.566 88,270.5C 85.4878,268.807 83.9878,266.474 83.5,263.5C 85.5292,258.583 85.8625,253.583 84.5,248.5C 87.4281,247.516 90.4281,247.183 93.5,247.5 Z"/></g>
<g><path style="opacity:1" fill="#f1e9da" d="M 93.5,247.5 C 136.5,247.5 179.5,247.5 222.5,247.5C 221.71,248.401 220.71,249.068 219.5,249.5C 178.003,248.501 136.337,248.168 94.5,248.5C 93.8333,248.5 93.5,248.167 93.5,247.5 Z"/></g>
<g><path style="opacity:1" fill="#2d3161" d="M 79.5,252.5 C 78.5386,254.265 78.2053,256.265 78.5,258.5C 75.1012,255.768 74.6012,252.434 77,248.5C 78.1827,247.269 79.3493,247.269 80.5,248.5C 79.7542,249.736 79.4208,251.07 79.5,252.5 Z"/></g>
<g><path style="opacity:1" fill="#fcfcfd" d="M 94.5,248.5 C 136.337,248.168 178.003,248.501 219.5,249.5C 180.586,265.566 140.92,267.733 100.5,256C 97.9061,253.914 95.9061,251.414 94.5,248.5 Z"/></g>
<g><path style="opacity:1" fill="#fafafa" d="M 235.5,247.5 C 247.833,247.5 260.167,247.5 272.5,247.5C 264.922,258.423 255.255,266.756 243.5,272.5C 242.035,263.771 239.368,255.438 235.5,247.5 Z"/></g>
<g><path style="opacity:1" fill="#313461" d="M 288.5,259.5 C 287.075,261.031 286.409,260.698 286.5,258.5C 287.833,256.5 287.833,254.5 286.5,252.5C 286.579,251.07 286.246,249.736 285.5,248.5C 287.782,247.1 289.282,247.766 290,250.5C 290.788,253.772 290.288,256.772 288.5,259.5 Z"/></g>
<g><path style="opacity:1" fill="#6e6266" d="M 297.5,247.5 C 299.857,247.337 302.19,247.503 304.5,248C 302.089,250.698 299.423,251.032 296.5,249C 297.056,248.617 297.389,248.117 297.5,247.5 Z"/></g>
<g><path style="opacity:1" fill="#534e64" d="M 61.5,248.5 C 63.2753,248.021 65.1086,247.687 67,247.5C 70.1502,248.858 69.8169,249.858 66,250.5C 64.415,249.956 62.915,249.289 61.5,248.5 Z"/></g>
<g><path style="opacity:1" fill="#fafafb" d="M 228.5,251.5 C 229.496,251.414 230.329,251.748 231,252.5C 234,260 236.5,267.667 238.5,275.5C 234.86,278.993 230.527,281.493 225.5,283C 184.298,298.24 146.298,292.573 111.5,266C 152.227,274.49 191.227,269.657 228.5,251.5 Z"/></g>
<g><path style="opacity:1" fill="#766a66" d="M 79.5,252.5 C 80.6935,252.97 81.3601,253.97 81.5,255.5C 81.1397,257.421 80.3064,259.088 79,260.5C 78.5357,259.906 78.369,259.239 78.5,258.5C 78.2053,256.265 78.5386,254.265 79.5,252.5 Z"/></g>
<g><path style="opacity:1" fill="#6d6366" d="M 286.5,252.5 C 287.833,254.5 287.833,256.5 286.5,258.5C 285.307,258.03 284.64,257.03 284.5,255.5C 284.64,253.97 285.307,252.97 286.5,252.5 Z"/></g>
<g><path style="opacity:1" fill="#b9a06b" d="M 281.5,267.5 C 281.833,267.5 282.167,267.5 282.5,267.5C 281.71,268.794 280.71,269.961 279.5,271C 280.094,271.464 280.761,271.631 281.5,271.5C 280.15,272.65 280.316,273.317 282,273.5C 284.368,272.8 286.534,271.8 288.5,270.5C 293.543,271.569 297.377,269.903 300,265.5C 300.167,265.833 300.333,266.167 300.5,266.5C 293.288,275.779 283.955,279.446 272.5,277.5C 272.167,277.5 271.833,277.5 271.5,277.5C 272.293,272.536 272.46,267.536 272,262.5C 273.139,258.888 274.806,255.554 277,252.5C 277.916,257.486 278.25,262.486 278,267.5C 277.667,265.833 277.333,264.167 277,262.5C 276.245,265.303 276.578,267.97 278,270.5C 279.039,269.29 280.206,268.29 281.5,267.5 Z"/></g>
<g><path style="opacity:1" fill="#706666" d="M 302.5,258.5 C 298.527,259.15 294.693,260.483 291,262.5C 290.235,262.43 289.735,262.097 289.5,261.5C 290.347,260.034 291.68,259.2 293.5,259C 296.482,258.502 299.482,258.335 302.5,258.5 Z"/></g>
<g><path style="opacity:1" fill="#645b65" d="M 63.5,258.5 C 66.7131,258.19 69.7131,258.523 72.5,259.5C 73.4293,260.315 74.4293,261.148 75.5,262C 75,262.167 74.5,262.333 74,262.5C 70.6973,260.385 67.1973,259.051 63.5,258.5 Z"/></g>
<g><path style="opacity:1" fill="#b89e6b" d="M 107.5,282.5 C 108.558,283.6 109.392,284.934 110,286.5C 110.167,285.833 110.333,285.167 110.5,284.5C 109.457,282.144 108.457,279.81 107.5,277.5C 107.23,274.687 106.73,272.021 106,269.5C 112.82,275.797 116.32,283.464 116.5,292.5C 116.5,293.167 116.167,293.5 115.5,293.5C 111.437,294.569 107.27,295.569 103,296.5C 98.6374,295.601 94.4707,294.101 90.5,292C 89.3044,291.346 89.3044,290.846 90.5,290.5C 91.6074,291.022 92.7741,291.355 94,291.5C 98.3536,290.014 102.854,289.181 107.5,289C 105.831,286.915 103.664,285.749 101,285.5C 93.1236,288.869 85.9569,287.702 79.5,282C 78.3044,281.346 78.3044,280.846 79.5,280.5C 80.6074,281.022 81.7741,281.355 83,281.5C 87.1445,280.836 91.3112,280.336 95.5,280C 94.7476,279.329 94.4142,278.496 94.5,277.5C 95.4959,277.414 96.3292,277.748 97,278.5C 97.4828,277.552 97.6495,276.552 97.5,275.5C 98.2216,275.918 98.7216,276.584 99,277.5C 99.1667,276.667 99.3333,275.833 99.5,275C 99.0457,273.061 98.379,271.228 97.5,269.5C 97.422,266.748 97.2554,264.082 97,261.5C 102.799,267.634 105.132,274.967 104,283.5C 107.942,289.03 109.109,288.697 107.5,282.5 Z"/></g>
<g><path style="opacity:1" fill="#bca26b" d="M 268.5,269.5 C 266.712,272.228 266.212,275.228 267,278.5C 267.75,279.126 268.584,279.626 269.5,280C 269.167,280.333 268.833,280.667 268.5,281C 271.03,282.422 273.697,282.755 276.5,282C 274.618,281.802 272.952,281.302 271.5,280.5C 276.559,281.098 281.559,281.098 286.5,280.5C 287.696,280.846 287.696,281.346 286.5,282C 279.825,287.583 272.492,288.75 264.5,285.5C 262.045,285.894 260.045,287.06 258.5,289C 262.991,289.145 267.324,289.979 271.5,291.5C 273.155,290.772 274.821,290.605 276.5,291C 272.16,293.67 267.493,295.503 262.5,296.5C 258.491,295.493 254.491,294.493 250.5,293.5C 249.833,293.5 249.5,293.167 249.5,292.5C 249.68,283.464 253.18,275.797 260,269.5C 258.954,271.902 258.454,274.568 258.5,277.5C 257.251,279.67 256.251,282.004 255.5,284.5C 255.634,286.646 256.301,287.646 257.5,287.5C 259.129,286.375 260.629,285.041 262,283.5C 260.868,274.967 263.201,267.634 269,261.5C 268.745,264.082 268.578,266.748 268.5,269.5 Z"/></g>
<g><path style="opacity:1" fill="#786d67" d="M 71.5,270.5 C 70.8333,270.5 70.5,270.833 70.5,271.5C 67.9265,270.121 66.4265,268.121 66,265.5C 67.7297,267.402 69.563,269.069 71.5,270.5 Z"/></g>
<g><path style="opacity:1" fill="#6d6266" d="M 78.5,270.5 C 80.7354,270.205 82.7354,270.539 84.5,271.5C 86.0544,272.895 85.721,273.561 83.5,273.5C 81.1309,273.405 79.4642,272.405 78.5,270.5 Z"/></g>
<g><path style="opacity:1" fill="#5a5465" d="M 97.5,269.5 C 98.379,271.228 99.0457,273.061 99.5,275C 99.3333,275.833 99.1667,276.667 99,277.5C 98.7216,276.584 98.2216,275.918 97.5,275.5C 96.1667,273.5 96.1667,271.5 97.5,269.5 Z"/></g>
<g><path style="opacity:1" fill="#675e66" d="M 288.5,270.5 C 286.534,271.8 284.368,272.8 282,273.5C 280.316,273.317 280.15,272.65 281.5,271.5C 283.655,269.466 285.988,269.133 288.5,270.5 Z"/></g>
<g><path style="opacity:1" fill="#6c6166" d="M 118.5,279.5 C 117.833,279.5 117.5,279.833 117.5,280.5C 116.404,278.897 115.07,277.397 113.5,276C 115.772,276.077 117.438,277.243 118.5,279.5 Z"/></g>
<g><path style="opacity:1" fill="#6b6066" d="M 268.5,269.5 C 269.776,272.03 269.776,274.697 268.5,277.5C 269.425,278.562 270.425,278.562 271.5,277.5C 271.833,277.5 272.167,277.5 272.5,277.5C 272.047,278.458 271.381,279.292 270.5,280C 270.728,280.399 271.062,280.565 271.5,280.5C 272.952,281.302 274.618,281.802 276.5,282C 273.697,282.755 271.03,282.422 268.5,281C 268.833,280.667 269.167,280.333 269.5,280C 268.584,279.626 267.75,279.126 267,278.5C 266.212,275.228 266.712,272.228 268.5,269.5 Z"/></g>
<g><path style="opacity:1" fill="#5c5665" d="M 107.5,277.5 C 108.457,279.81 109.457,282.144 110.5,284.5C 110.333,285.167 110.167,285.833 110,286.5C 109.392,284.934 108.558,283.6 107.5,282.5C 106.167,280.833 106.167,279.167 107.5,277.5 Z"/></g>
<g><path style="opacity:1" fill="#bea46b" d="M 248.5,281.5 C 247.576,284.928 246.242,288.261 244.5,291.5C 244.626,293.279 244.292,295.279 243.5,297.5C 245.514,297.392 247.18,298.058 248.5,299.5C 250.767,299.854 252.101,299.521 252.5,298.5C 252.5,298.167 252.5,297.833 252.5,297.5C 256.325,298.981 260.325,299.815 264.5,300C 259.12,302.798 253.454,304.132 247.5,304C 243.653,300.581 239.32,299.748 234.5,301.5C 234.167,301.5 233.833,301.5 233.5,301.5C 234.848,300.399 236.348,299.399 238,298.5C 238.4,292.033 240.734,286.367 245,281.5C 247.861,277.674 249.027,277.674 248.5,281.5 Z"/></g>
<g><path style="opacity:1" fill="#675e66" d="M 248.5,281.5 C 248.841,285.16 248.175,288.493 246.5,291.5C 245.604,292.506 244.938,292.506 244.5,291.5C 246.242,288.261 247.576,284.928 248.5,281.5 Z"/></g>
<g><path style="opacity:1" fill="#706666" d="M 258.5,277.5 C 259.139,278.097 259.472,278.93 259.5,280C 258.929,282.544 258.262,285.044 257.5,287.5C 256.301,287.646 255.634,286.646 255.5,284.5C 256.251,282.004 257.251,279.67 258.5,277.5 Z"/></g>
<g><path style="opacity:1" fill="#bda36b" d="M 118.5,279.5 C 124.302,284.437 127.468,290.77 128,298.5C 129.964,300.688 131.464,300.688 132.5,298.5C 133.465,297.279 133.298,295.946 132,294.5C 131.23,293.402 130.397,293.402 129.5,294.5C 130.382,290.091 129.048,286.591 125.5,284C 133.738,287.224 138.571,293.391 140,302.5C 141.552,303.966 143.386,304.966 145.5,305.5C 146.463,305.03 146.463,304.363 145.5,303.5C 146.239,303.631 146.906,303.464 147.5,303C 146.299,302.097 145.465,300.931 145,299.5C 143.989,298.663 142.822,298.33 141.5,298.5C 141.829,295.772 141.163,293.438 139.5,291.5C 139.5,290.833 139.833,290.5 140.5,290.5C 147.394,293.894 151.394,299.394 152.5,307C 150.538,310.295 147.872,312.962 144.5,315C 138.747,315.851 133.08,315.517 127.5,314C 129.5,313.667 131.5,313.333 133.5,313C 135.405,311.579 137.405,310.412 139.5,309.5C 138.15,310.65 138.316,311.317 140,311.5C 142.036,311.046 143.87,310.213 145.5,309C 144.584,308.722 143.918,308.222 143.5,307.5C 144.239,307.631 144.906,307.464 145.5,307C 143.722,306.296 141.888,305.796 140,305.5C 136.611,306.562 133.444,308.062 130.5,310C 124.153,311.098 118.153,310.098 112.5,307C 114.326,306.708 116.159,306.875 118,307.5C 120.708,306.891 123.208,305.891 125.5,304.5C 126.34,306.786 127.84,307.119 130,305.5C 131.371,304.419 132.871,303.585 134.5,303C 133.473,302.487 132.473,301.987 131.5,301.5C 129.874,301.062 128.207,300.728 126.5,300.5C 123.268,301.118 120.268,302.285 117.5,304C 111.804,304.328 106.471,302.994 101.5,300C 105.675,299.815 109.675,298.981 113.5,297.5C 112.357,299.101 113.024,299.767 115.5,299.5C 117.791,299.378 119.791,298.545 121.5,297C 121.167,296.667 120.833,296.333 120.5,296C 121.293,294.915 121.96,293.748 122.5,292.5C 120.037,289.078 118.371,285.411 117.5,281.5C 117.5,281.167 117.5,280.833 117.5,280.5C 117.5,279.833 117.833,279.5 118.5,279.5 Z"/></g>
<g><path style="opacity:1" fill="#6a6166" d="M 140.5,290.5 C 139.833,290.5 139.5,290.833 139.5,291.5C 133.066,286.878 133.399,286.545 140.5,290.5 Z"/></g>
<g><path style="opacity:1" fill="#6f6566" d="M 226.5,291.5 C 226.5,291.167 226.5,290.833 226.5,290.5C 227.665,288.584 229.332,287.751 231.5,288C 229.804,289.176 228.138,290.343 226.5,291.5 Z"/></g>
<g><path style="opacity:1" fill="#bfa56b" d="M 233.5,301.5 C 233.082,302.222 232.416,302.722 231.5,303C 233.879,304.419 236.379,305.586 239,306.5C 240.03,306.164 240.53,305.497 240.5,304.5C 242.792,305.891 245.292,306.891 248,307.5C 249.841,306.875 251.674,306.708 253.5,307C 247.485,310.035 241.152,311.035 234.5,310C 230.232,305.413 225.232,304.413 219.5,307C 220.094,307.464 220.761,307.631 221.5,307.5C 220.402,308.397 220.402,309.23 221.5,310C 223.447,310.991 225.447,311.325 227.5,311C 226.944,310.617 226.611,310.117 226.5,309.5C 228.544,310.031 230.211,311.198 231.5,313C 233.833,313.333 236.167,313.667 238.5,314C 232.903,315.456 227.237,315.789 221.5,315C 218.547,312.207 215.213,310.04 211.5,308.5C 213.671,305.495 215.171,302.161 216,298.5C 218.828,294.825 222.328,292.158 226.5,290.5C 226.5,290.833 226.5,291.167 226.5,291.5C 224.837,293.438 224.171,295.772 224.5,298.5C 222.408,298.561 220.908,299.561 220,301.5C 220.148,302.825 219.982,303.992 219.5,305C 220.437,305.692 221.103,305.525 221.5,304.5C 223.39,304.703 224.89,304.037 226,302.5C 227.429,293.391 232.262,287.224 240.5,284C 239.333,285.167 238.167,286.333 237,287.5C 236.82,290.956 236.153,294.289 235,297.5C 234.667,296.5 234.333,295.5 234,294.5C 232.632,295.993 232.465,297.493 233.5,299C 231.158,300.392 231.158,301.225 233.5,301.5 Z"/></g>
<g><path style="opacity:1" fill="#948269" d="M 244.5,291.5 C 244.938,292.506 245.604,292.506 246.5,291.5C 245.479,295.151 246.479,295.484 249.5,292.5C 249.5,293.167 249.833,293.5 250.5,293.5C 249.4,294.558 248.066,295.392 246.5,296C 248.708,296.191 250.708,296.691 252.5,297.5C 252.5,297.833 252.5,298.167 252.5,298.5C 250.544,296.825 249.211,297.158 248.5,299.5C 247.18,298.058 245.514,297.392 243.5,297.5C 244.292,295.279 244.626,293.279 244.5,291.5 Z"/></g>
<g><path style="opacity:1" fill="#796d67" d="M 117.5,281.5 C 118.371,285.411 120.037,289.078 122.5,292.5C 121.96,293.748 121.293,294.915 120.5,296C 120.833,296.333 121.167,296.667 121.5,297C 119.791,298.545 117.791,299.378 115.5,299.5C 113.024,299.767 112.357,299.101 113.5,297.5C 115.292,296.691 117.292,296.191 119.5,296C 117.934,295.392 116.6,294.558 115.5,293.5C 116.167,293.5 116.5,293.167 116.5,292.5C 117.601,293.8 118.934,294.3 120.5,294C 118.074,290.199 117.074,286.032 117.5,281.5 Z"/></g>
<g><path style="opacity:1" fill="#6b6066" d="M 132.5,298.5 C 131.026,297.564 130.026,296.23 129.5,294.5C 130.397,293.402 131.23,293.402 132,294.5C 133.298,295.946 133.465,297.279 132.5,298.5 Z"/></g>
<g><path style="opacity:1" fill="#6d6266" d="M 141.5,298.5 C 142.822,298.33 143.989,298.663 145,299.5C 145.465,300.931 146.299,302.097 147.5,303C 146.906,303.464 146.239,303.631 145.5,303.5C 143.457,302.421 142.124,300.754 141.5,298.5 Z"/></g>
<g><path style="opacity:1" fill="#464663" d="M 252.5,298.5 C 252.101,299.521 250.767,299.854 248.5,299.5C 249.211,297.158 250.544,296.825 252.5,298.5 Z"/></g>
<g><path style="opacity:1" fill="#5c5465" d="M 224.5,298.5 C 223.5,300.5 222.5,302.5 221.5,304.5C 221.103,305.525 220.437,305.692 219.5,305C 219.982,303.992 220.148,302.825 220,301.5C 220.908,299.561 222.408,298.561 224.5,298.5 Z"/></g>
<g><path style="opacity:1" fill="#e7e8ee" d="M 158.5,302.5 C 165.493,300.996 168.327,303.663 167,310.5C 165.692,312.641 164.192,314.641 162.5,316.5C 164.396,317.466 166.396,317.799 168.5,317.5C 168.5,318.5 168.5,319.5 168.5,320.5C 164.445,320.824 160.445,320.491 156.5,319.5C 159.559,315.772 162.226,311.772 164.5,307.5C 163.68,305.889 162.346,305.222 160.5,305.5C 160.5,306.5 160.5,307.5 160.5,308.5C 159.5,308.5 158.5,308.5 157.5,308.5C 157.325,306.379 157.659,304.379 158.5,302.5 Z"/></g>
<g><path style="opacity:1" fill="#e5e6ed" d="M 173.5,302.5 C 181.955,302.696 185.122,307.029 183,315.5C 181.506,320.216 178.339,321.716 173.5,320C 172.667,319.167 171.833,318.333 171,317.5C 169.776,312.043 170.609,307.043 173.5,302.5 Z"/></g>
<g><path style="opacity:1" fill="#e6e7ed" d="M 200.5,302.5 C 207.183,302.014 210.516,305.181 210.5,312C 209.436,321.004 205.269,322.837 198,317.5C 196.776,312.043 197.609,307.043 200.5,302.5 Z"/></g>
<g><path style="opacity:1" fill="#736766" d="M 233.5,301.5 C 233.833,301.5 234.167,301.5 234.5,301.5C 236.371,302.797 238.371,303.797 240.5,304.5C 240.53,305.497 240.03,306.164 239,306.5C 236.379,305.586 233.879,304.419 231.5,303C 232.416,302.722 233.082,302.222 233.5,301.5 Z"/></g>
<g><path style="opacity:1" fill="#726666" d="M 131.5,301.5 C 132.473,301.987 133.473,302.487 134.5,303C 132.871,303.585 131.371,304.419 130,305.5C 127.84,307.119 126.34,306.786 125.5,304.5C 127.371,303.203 129.371,302.203 131.5,301.5 Z"/></g>
<g><path style="opacity:1" fill="#f9f9fb" d="M 192.5,302.5 C 192.5,307.833 192.5,313.167 192.5,318.5C 193.5,318.5 194.5,318.5 195.5,318.5C 194.486,319.765 192.986,320.431 191,320.5C 189.5,320.167 188,319.833 186.5,319.5C 187.325,318.614 188.325,318.281 189.5,318.5C 189.666,314.486 189.499,310.486 189,306.5C 187.817,307.731 186.651,307.731 185.5,306.5C 187.358,304.303 189.692,302.969 192.5,302.5 Z"/></g>
<g><path style="opacity:1" fill="#656b91" d="M 192.5,302.5 C 192.936,307.939 193.936,313.272 195.5,318.5C 194.5,318.5 193.5,318.5 192.5,318.5C 192.5,313.167 192.5,307.833 192.5,302.5 Z"/></g>
<g><path style="opacity:1" fill="#2e3568" d="M 175.5,305.5 C 176.822,305.33 177.989,305.663 179,306.5C 179.667,309.833 179.667,313.167 179,316.5C 174.589,318.434 172.756,316.934 173.5,312C 173.338,309.498 174.005,307.331 175.5,305.5 Z"/></g>
<g><path style="opacity:1" fill="#2e3568" d="M 202.5,305.5 C 203.822,305.33 204.989,305.663 206,306.5C 206.667,309.833 206.667,313.167 206,316.5C 201.589,318.434 199.756,316.934 200.5,312C 200.338,309.498 201.005,307.331 202.5,305.5 Z"/></g>
<g><path style="opacity:1" fill="#706566" d="M 143.5,307.5 C 143.918,308.222 144.584,308.722 145.5,309C 143.87,310.213 142.036,311.046 140,311.5C 138.316,311.317 138.15,310.65 139.5,309.5C 140.514,308.326 141.847,307.66 143.5,307.5 Z"/></g>
<g><path style="opacity:1" fill="#716666" d="M 221.5,307.5 C 223.403,307.796 225.07,308.463 226.5,309.5C 226.611,310.117 226.944,310.617 227.5,311C 225.447,311.325 223.447,310.991 221.5,310C 220.402,309.23 220.402,308.397 221.5,307.5 Z"/></g>
</svg>
