<?xml version="1.0" encoding="UTF-8"?>
<svg id="Camada_1" xmlns="http://www.w3.org/2000/svg" version="1.1" viewBox="0 0 1000 1000">
  <!-- Generator: Adobe Illustrator 29.1.0, SVG Export Plug-In . SVG Version: 2.1.0 Build 142)  -->
  <defs>
    <style>
      .st0 {
        fill: #1d3056;
      }

      .st1 {
        fill: #c4ced4;
      }

      .st2 {
        fill: #fff;
      }

      .st3 {
        fill: #e31d38;
      }
    </style>
  </defs>
  <g id="b">
    <g id="c">
      <g>
        <path class="st2" d="M500.87,19.91h-.83C235.25,19.91,20.37,234.38,19.95,499.25v.83c0,264.87,214.55,479.76,479.51,480.01h.66c264.87,0,479.67-214.63,479.92-479.51v-.58c0-264.79-214.47-479.59-479.26-480.09"/>
        <path class="st1" d="M990.99,498.92c-.58-270.76-220.27-489.95-490.95-489.95h-1.08C228.2,9.55,9.09,229.24,9.01,499.75v.83c.33,270.93,219.94,490.29,490.87,490.45h.66c270.93-.33,490.29-219.94,490.45-490.7v-1.41M980.13,500.33v.25c-.33,264.96-215.05,479.43-479.92,479.51h-.66c-264.96-.25-479.51-215.13-479.51-480.01v-.83C20.37,234.38,235.25,19.91,500.04,19.91h.83c264.79.5,479.18,215.3,479.26,480.09,0,0,0,.33,0,.33Z"/>
        <path class="st0" d="M339.54,390.98c49.91-49.82,70.88-108.1,70.88-108.1l11.11-40.54,2.65-9.45-51.07-28.6s-29.84-20.73-96.42,17.99c-78.01,46.01-141.51,105.53-174.34,168.62-18.16,34.98-32.66,75.28-40.12,121.04,2.32,86.63,29.68,167.05,75.28,234.12-13.02-124.85,107.69-261.64,202.12-355.07"/>
        <path class="st0" d="M724.13,222.28c-66.65-38.63-96.42-17.99-96.42-17.99l-51.07,28.6,2.65,9.45,11.11,40.46s20.97,58.28,70.88,108.1c94.18,93.1,214.39,229.39,202.28,353.91,45.76-67.81,72.95-149.22,74.53-236.85-7.63-44.19-21.8-83.15-39.54-117.14-32.83-63.09-96.33-122.61-174.34-168.62"/>
        <path class="st3" d="M563.79,147.42c175.09,19.81,290.16,119.21,349.6,207.34-44.68-127.17-146.49-227.48-274.57-270.26-28.27,8.37-59.61,25.95-75.03,63.01"/>
        <path class="st3" d="M436.95,147.42c-15.5-37.31-47.09-54.8-75.52-63.09C232.51,127.27,130.3,228.49,85.94,356.83c59.03-88.71,174.51-189.52,351.01-209.41"/>
        <path class="st3" d="M465.64,142.44l34.74-51.15,34.82,51.15c13.93-38.14,35.98-59.19,58.03-70.63-29.84-6.47-60.85-9.95-92.69-9.95s-63.09,3.48-93.1,9.95c22.13,11.44,44.19,32.41,58.2,70.63"/>
        <path class="st0" d="M738.39,526.28c-71.21-115.23-232.87-231.55-238.01-235.19-5.06,3.65-166.72,119.96-237.93,235.19-96.17,155.53-83.65,245.23-58.78,296.38,61.93,56.95,140.35,96.25,227.24,110.09l37.47-531.16,31.25-31.34.41-.41h0l.41.41,31.25,31.34,37.72,530.74-.5.25c87.63-13.84,166.55-53.47,228.81-111.09,24.46-51.4,36.06-140.85-59.36-295.22"/>
        <polygon class="st1" points="531.63 401.59 500.46 370.26 500.79 971.38 568.85 932.59 569.35 932.34 531.63 401.59"/>
        <path class="st1" d="M500.21,250.71l-13.6,10.03-57.12,42.11,14.92-54.3,2.57-9.45,5.06-18.24-16.58-8.95-53.72-28.93c27.11-5.97,54.8-9.87,82.82-11.69l13.68-.83.58-1.16,5.47-11.19.83-1.74h0l15.34-31.17,15.83,32.17h0l.33.66,5.47,11.19.58,1.16,13.68.83c27.94,1.74,55.71,5.72,82.82,11.69l-53.72,28.93-16.66,8.95,5.06,18.24,2.57,9.45,14.92,54.3-57.12-42.11-13.6-10.03v-.25l-.25.17-.17-.17v.33Z"/>
        <path class="st1" d="M500.54,250.46v.25l13.6,10.03,57.12,42.11-14.92-54.3-2.57-9.45-5.06-18.24,16.58-8.95,53.72-28.93c-27.11-5.97-54.8-9.87-82.82-11.69l-13.68-.83-.58-1.16-5.55-11.19-.33-.66-15.83-32.17-15.25,31.09h0l-.83,1.74-5.47,11.19-.58,1.16-13.68.83c-28.02,1.74-55.71,5.72-82.82,11.69l53.72,28.93,16.58,8.95-5.06,18.24-2.57,9.45-14.92,54.3,57.12-42.11,13.6-10.03v-.25l.17.17.25-.17h.08Z"/>
      </g>
    </g>
  </g>
</svg>