<?xml version="1.0" encoding="UTF-8"?>
<svg version="1.1" xmlns="http://www.w3.org/2000/svg" width="2400" height="1320">
<path d="M0 0 C29.04 0 58.08 0 88 0 C89.51642481 42.01964242 89.51642481 42.01964242 90.04199219 57.10839844 C90.07853582 58.1575315 90.11507945 59.20666457 90.15273046 60.28758955 C91.90391316 110.67939433 93.48182068 161.07727957 95.09224877 211.47373578 C95.50022427 224.2396371 95.91037303 237.00546756 96.3215024 249.77126767 C96.75133607 263.11843611 97.17973034 276.46565007 97.60662591 289.81291282 C97.84331486 297.21250256 98.08050348 304.6120753 98.31920242 312.01160049 C99.36157776 344.33806983 100.33544958 376.66321863 101 409 C105.83735034 351.99667864 110.46811706 294.97780845 114.99609375 237.94921875 C115.06121865 237.1290777 115.12634355 236.30893664 115.19344193 235.46394283 C116.86787461 214.37683891 118.53906063 193.2894782 120.20884192 172.20200551 C121.17535301 159.99619681 122.14247475 147.79043663 123.11010742 135.5847168 C123.21363848 134.27876914 123.21363848 134.27876914 123.31926107 132.94643869 C124.07368806 123.43026725 124.82829351 113.91410997 125.58310795 104.39796925 C125.6825124 103.14474496 125.6825124 103.14474496 125.78392502 101.86620301 C126.04869669 98.52816996 126.31347021 95.19013706 126.57826639 91.85210595 C127.34661359 82.16623373 128.114423 72.48031926 128.88120205 62.79432277 C129.35731634 56.78017561 129.83383842 50.76606087 130.31067919 44.75197127 C130.58460212 41.29688788 130.85831077 37.84178785 131.13145065 34.38664246 C131.42786749 30.63834579 131.72506566 26.89011183 132.02244568 23.14189148 C132.14996512 21.52557903 132.14996512 21.52557903 132.28006071 19.8766138 C132.40104914 18.35458794 132.40104914 18.35458794 132.52448177 16.80181408 C132.59267178 15.94062566 132.66086178 15.07943724 132.73111814 14.1921522 C133.1297744 9.45932472 133.56999254 4.73008207 134 0 C158.75 0 183.5 0 209 0 C212.90098852 44.78155111 216.79992489 89.56327879 220.69445439 134.34539199 C221.15622627 139.65514925 221.61802257 144.96490438 222.07983398 150.2746582 C222.17175611 151.33155295 222.26367824 152.38844769 222.35838588 153.47736955 C223.8388628 170.49880477 225.32130969 187.52006785 226.80450926 204.54126602 C228.33100634 222.05986419 229.8553293 239.5786506 231.37771291 257.09760672 C232.31407129 267.8720618 233.25204346 278.64637372 234.19220927 289.42049725 C234.8403402 296.84984903 235.4863236 304.27938578 236.1307594 311.70905899 C236.5003483 315.96934802 236.87074694 320.22956151 237.2437458 324.48955345 C239.3870369 348.97771732 241.26081436 373.47987474 243 398 C243.71590396 387.44728165 244.2271032 376.90730281 244.53112793 366.33351135 C244.57642816 364.82625939 244.6219592 363.31901436 244.66769743 361.81177562 C244.79124334 357.71923793 244.91159487 353.62661189 245.03137946 349.53396261 C245.16171083 345.10096381 245.2950971 340.66805677 245.42811584 336.23513794 C245.65781568 328.56727878 245.88567856 320.89936685 246.11231995 313.2314167 C246.4405915 302.12658216 246.77223401 291.02185017 247.10476655 279.9171425 C247.64508247 261.87214363 248.18344352 243.82708706 248.72021484 225.78198242 C248.76831827 224.16488179 248.76831827 224.16488179 248.81739348 222.51511245 C249.01241072 215.95885855 249.20738396 209.40260334 249.40234661 202.84634781 C249.6947451 193.01369235 249.98721386 183.18103899 250.27978516 173.34838867 C250.31181398 172.27195072 250.34384281 171.19551276 250.3768422 170.08645547 C250.91189659 152.10618749 251.44888634 134.12597779 251.98721933 116.14580768 C252.31856945 105.07562432 252.64817484 94.00539165 252.97548687 82.93508815 C253.20000565 75.34512313 253.42627071 67.75521144 253.65387952 60.16533846 C253.78488666 55.7946572 253.91510103 51.42395621 254.04312325 47.05318642 C254.16066846 43.04053587 254.28053933 39.02796131 254.40214258 35.01543175 C254.44538531 33.57553496 254.48781953 32.13561357 254.52929252 30.69566471 C254.82521305 20.44362296 255.39730026 10.24589566 256 0 C284.38 0 312.76 0 342 0 C339.25264115 35.32234156 339.25264115 35.32234156 338.40888405 46.08836365 C338.32216521 47.19486963 338.32216521 47.19486963 338.23369447 48.32372927 C336.37651405 72.00737516 334.45538013 95.68583402 332.53069437 119.36407495 C332.02738995 125.55841058 331.52502829 131.75282263 331.02262054 137.94723104 C329.9999496 150.55581947 328.97641624 163.16433774 327.95233727 175.77281189 C326.94285419 188.20161848 325.93378771 200.63045878 324.92524147 213.05934143 C324.86181322 213.84100072 324.79838496 214.62266001 324.73303464 215.42800594 C324.41073173 219.39993759 324.08843592 223.37186982 323.76614282 227.34380227 C321.50135661 255.2548172 319.23569081 283.16576067 316.96948242 311.07666016 C314.77208513 338.14009962 312.57510201 365.20357266 310.37866211 392.26708984 C310.31059317 393.10580187 310.24252423 393.9445139 310.17239259 394.80864144 C309.4886268 403.23367293 308.80486924 411.65870508 308.1211177 420.08373772 C306.72905227 437.23645239 305.33693202 454.3891626 303.94477844 471.54187012 C303.84882938 472.72405861 303.84882938 472.72405861 303.75094196 473.9301297 C299.50154897 526.2868279 295.25083455 578.64341882 291 631 C260.31 631 229.62 631 198 631 C196.83145513 620.48309613 195.68172261 610.04208721 194.89978027 599.50300598 C194.75845114 597.65064544 194.75845114 597.65064544 194.61426687 595.76086348 C194.35813067 592.39546629 194.10477528 589.0298825 193.85269809 585.6641804 C193.57824961 582.0092976 193.3000836 578.35469731 193.02241516 574.70005798 C192.48062905 567.56151247 191.94220103 560.4227176 191.40496123 553.28382865 C190.77655904 544.935215 190.14480964 536.58685559 189.51296371 528.23850199 C188.38346331 513.31325135 187.257034 498.38777054 186.13232422 483.4621582 C185.04646521 469.05214867 183.95833307 454.64231318 182.86767578 440.23266602 C182.80063114 439.34687588 182.73358649 438.46108575 182.66451019 437.54845349 C182.59757023 436.66404667 182.53063026 435.77963985 182.46166182 434.86843282 C181.21328428 418.37463016 179.96718598 401.88065595 178.72205409 385.38660798 C178.28517345 379.60003805 177.84762155 373.81351911 177.40983582 368.02701759 C176.8738521 360.94201281 176.33919622 353.8569091 175.80607116 346.77168862 C175.53525121 343.17281138 175.26395679 339.57397205 174.99112892 335.97524643 C173.93641188 322.05729989 172.91490748 308.13749392 171.99780196 294.20976319 C171.86814509 292.24307244 171.73640117 290.27651961 171.60458231 288.30997258 C171.03713317 279.52528508 170.74323814 270.80122596 171 262 C170.34 262 169.68 262 169 262 C169.01214822 262.77428785 169.02429644 263.54857571 169.03681278 264.34632683 C169.10971815 272.67103061 168.6635754 280.85767561 167.95288086 289.14892578 C167.83852644 290.52901464 167.72464454 291.90914273 167.61118793 293.28930569 C167.30081 297.04843296 166.98379624 300.8069744 166.66561413 304.56544805 C166.32172009 308.64185212 165.98410848 312.71877733 165.64569092 316.79563904 C164.98141331 324.78630147 164.31144492 332.77647694 163.63957703 340.76650435 C162.85500022 350.09973472 162.07627756 359.4334508 161.29783976 368.76719487 C159.89614964 385.57187709 158.48945068 402.37613629 157.08007812 419.18017578 C155.23226674 441.21230758 153.39296006 463.24514369 151.55542463 485.27813458 C150.18438105 501.71654878 148.81084277 518.15475467 147.43700808 534.5929358 C147.01996254 539.58315356 146.60305495 544.57338277 146.18644333 549.56363678 C145.30930979 560.07010354 144.43134511 570.57649926 143.55046761 581.08265287 C143.18530543 585.43812098 142.82065292 589.79363007 142.45742035 594.14925957 C142.12417673 598.1450257 141.78939829 602.14066019 141.45340359 606.1361959 C141.33213828 607.58137439 141.21142238 609.02659912 141.09131706 610.47187448 C140.92756881 612.44126148 140.76158546 614.41046225 140.59550476 616.37965393 C140.4582399 618.01935323 140.4582399 618.01935323 140.31820202 619.69217777 C139.95483178 623.46953956 139.4706869 627.23450483 139 631 C107.98 631 76.96 631 45 631 C42.8352121 601.77462291 42.8352121 601.77462291 41.98933411 590.3364563 C41.93571674 589.61143276 41.88209938 588.88640923 41.82685725 588.13941528 C34.42612317 488.05932244 27.10000585 387.97376212 19.79847908 287.88638687 C19.41360062 282.61078026 19.02870644 277.3351748 18.64379883 272.05957031 C18.54831355 270.7508112 18.45282827 269.4420521 18.3544495 268.09363362 C16.83033646 247.20506921 15.30229739 226.31679415 13.77257031 205.42864021 C12.0775127 182.28267246 10.38645287 159.13641567 8.69974679 135.98983753 C7.7005441 122.27947403 6.69827006 108.56934265 5.6918666 94.85950582 C5.00937075 85.5578618 4.33088941 76.25593041 3.65558193 66.95376177 C3.26738249 61.60800801 2.87744644 56.26239634 2.48272324 50.91711998 C2.1213326 46.02269383 1.76502734 41.12792408 1.41264512 36.23284136 C1.28499275 34.47175995 1.15553291 32.71080834 1.02399746 30.9500127 C0.84433691 28.54128894 0.67154304 26.13215837 0.50026417 23.722826 C0.44886075 23.05559316 0.39745732 22.38836032 0.34449622 21.7009083 C-0.15734795 14.43366621 0 7.34659442 0 0 Z " fill="#C70F2D" transform="translate(0,5)"/>
<path d="M0 0 C37.95 0 75.9 0 115 0 C117.06354656 2.06354656 116.85367649 6.09725404 117.25816345 8.93617249 C117.38199475 9.78168824 117.50582604 10.627204 117.6334098 11.49834144 C118.05247789 14.36690003 118.46551835 17.2362955 118.87866211 20.10571289 C119.17863178 22.16755902 119.47897388 24.229351 119.77965927 26.29109287 C120.43477895 30.78890831 121.08719654 35.287105 121.73761559 39.78560257 C122.793564 47.0888124 123.85529366 54.39117508 124.91767883 61.69345093 C126.45556518 72.26832364 127.99064171 82.84360055 129.52380371 93.41915894 C131.93889929 110.07768376 134.35981989 126.73535919 136.78222656 143.39282227 C136.98717857 144.80219183 137.19213041 146.21156142 137.39708209 147.62093103 C138.22421109 153.30869891 139.0513653 158.99646312 139.87860429 164.68421501 C140.92971337 171.91126749 141.98064505 179.1383457 143.03116226 186.36548424 C149.31546963 229.5987883 155.62314579 272.82861862 161.95703125 316.0546875 C162.10621553 317.0728124 162.10621553 317.0728124 162.25841364 318.11150548 C164.87726399 335.98377942 167.49789404 353.8557922 170.11922073 371.72770309 C171.2534106 379.46054037 172.38733686 387.19341628 173.52120972 394.92630005 C177.67940497 423.2844057 181.83878138 451.64233783 186 480 C184.90644683 463.82814663 183.77630892 447.66145732 182.48960876 431.50366211 C182.08388642 426.40248925 181.68445008 421.3008218 181.28417969 416.19921875 C181.20025467 415.13057587 181.11632965 414.06193298 181.02986145 412.96090698 C175.72551844 345.35816535 171.0644665 277.72808205 167.6875 210 C167.62570808 208.76256042 167.62570808 208.76256042 167.56266785 207.50012207 C167.32624564 202.7524168 167.09388366 198.00453475 166.86670113 193.25637817 C166.76864567 191.20725598 166.66939481 189.15819109 166.5700531 187.10913086 C166.36585824 182.7399179 166.18008849 178.37025907 166 174 C165.95756857 173.00525476 165.91513714 172.01050953 165.87141991 170.9856205 C165.05876218 151.57378232 164.86199473 132.20428809 164.89860606 112.7798574 C164.90499907 108.79349184 164.90545566 104.8071249 164.90663147 100.820755 C164.90969901 93.32415327 164.91784841 85.8275667 164.92798096 78.33097154 C164.94141486 68.16396402 164.94667911 57.99695214 164.95248318 47.82993793 C164.96179324 31.88661401 164.98174196 15.94332202 165 0 C189.75 0 214.5 0 240 0 C240 208.23 240 416.46 240 631 C205.02 631 170.04 631 134 631 C131.74999971 620.87499872 131.74999971 620.87499872 131.14381027 616.55220413 C130.93350525 615.07165096 130.93350525 615.07165096 130.71895164 613.56118762 C130.5724758 612.5038845 130.42599995 611.44658138 130.27508545 610.35723877 C130.03245204 608.63776651 130.03245204 608.63776651 129.78491694 606.88355744 C129.33904416 603.71855516 128.89639202 600.55312219 128.45512427 597.38747522 C127.97568932 593.95385867 127.49205163 590.52083376 127.00894451 587.08773232 C126.16868645 581.11245678 125.33108313 575.13681392 124.49526787 569.16091537 C123.26951454 560.39709535 122.03968756 551.63385056 120.80896243 542.87072752 C118.77729941 528.40386365 116.74893205 513.93653961 114.7225647 499.46893311 C112.74583752 485.35578689 110.76764619 471.24284722 108.78744507 457.13018799 C108.66528216 456.25954117 108.54311924 455.38889436 108.41725443 454.49186431 C107.80069811 450.09776486 107.18411537 445.70366912 106.56752217 441.30957484 C101.9930743 408.70982965 97.42281313 376.10949872 92.8547678 343.50885582 C92.40926237 340.3294308 91.96375619 337.15000589 91.51824951 333.97058105 C91.41009332 333.19870357 91.30193712 332.42682609 91.19050347 331.63155837 C89.0655891 316.46680776 86.93955594 301.30221418 84.81298828 286.13769531 C84.65656491 285.02222887 84.50014153 283.90676243 84.33897805 282.75749397 C83.73551892 278.45419157 83.13205492 274.15088986 82.52858126 269.84758949 C77.34713404 232.89912812 72.17000297 195.95006457 67 159 C66.8743942 168.22065568 67.21930084 177.39349378 67.64944839 186.60060692 C67.817572 190.20601409 67.97881227 193.81172216 68.14072418 197.41741276 C68.27266713 200.35278684 68.40552928 203.28811847 68.53842163 206.22344971 C70.11671672 241.19396639 71.49610897 276.16750794 72.5941124 311.15645981 C72.71117276 314.87749308 72.83022978 318.59846128 72.94957924 322.31942177 C74.39145704 368.14470533 75.1585725 413.94916586 75.10139394 459.79742026 C75.09497414 465.85500191 75.09454237 471.91258455 75.09336853 477.97016907 C75.0903084 489.34762571 75.08216989 500.72507229 75.07201904 512.10252458 C75.06068866 525.09499438 75.05530564 538.08746475 75.05032361 551.07993829 C75.03998022 577.71996566 75.02170443 604.3599793 75 631 C50.25 631 25.5 631 0 631 C0 422.77 0 214.54 0 0 Z M65 145 C65 146.98 65 148.96 65 151 C65.33 151 65.66 151 66 151 C66 149.02 66 147.04 66 145 C65.67 145 65.34 145 65 145 Z M187 487 C187 489.31 187 491.62 187 494 C187.33 494 187.66 494 188 494 C188 491.69 188 489.38 188 487 C187.67 487 187.34 487 187 487 Z M188 498 C189 501 189 501 189 501 Z " fill="#C70F2D" transform="translate(1506,5)"/>
<path d="M0 0 C38.28 0 76.56 0 116 0 C119.09531166 19.19093227 122.14389358 38.36664667 124.93457031 57.60058594 C125.29893304 60.0992851 125.66350541 62.59795369 126.02826595 65.09659481 C126.80698899 70.43409127 127.58430895 75.77178886 128.36028099 81.1096859 C129.50134196 88.95893798 130.64519778 96.80778105 131.78962701 104.65654265 C133.68730975 117.67173944 135.58294521 130.68723353 137.47732544 143.70291138 C140.14038572 161.99978135 142.8063951 180.29622083 145.47315706 198.5925516 C146.40272899 204.97027424 147.3322464 211.34800483 148.26176453 217.72573531 C148.49365374 219.31680083 148.72554439 220.90786613 148.95743649 222.49893122 C150.57623568 233.60591927 152.19466065 244.7129618 153.81278094 255.82004877 C161.28198795 307.08996419 168.76765909 358.35745925 176.26683044 409.6230011 C177.06320734 415.06721455 177.85944145 420.51144888 178.65563965 425.95568848 C181.436497 444.97054622 184.21777322 463.98534258 187 483 C186.92941376 482.08368805 186.85882751 481.1673761 186.78610229 480.22329712 C186.08548356 471.12628918 185.38565162 462.02922101 184.68654823 452.93209648 C184.30599883 447.98022228 183.92526342 443.02836256 183.54406738 438.07653809 C177.17126465 355.27626536 171.11018865 272.49070512 167.30151558 189.52729511 C167.08691467 184.85409342 166.86411316 180.18136683 166.63623047 175.50878906 C163.83297097 117.08452599 164.83072971 58.47348094 165 0 C189.75 0 214.5 0 240 0 C240 208.23 240 416.46 240 631 C205.02 631 170.04 631 134 631 C127.07882547 581.97540422 127.07882547 581.97540422 124.39453125 562.94848633 C124.22945194 561.77836805 124.06437263 560.60824977 123.89429092 559.40267336 C122.65857379 550.64346586 121.4230027 541.88423775 120.1875 533.125 C120.01234737 531.88325752 119.83719475 530.64151504 119.65673447 529.36214399 C108.80879078 452.45448454 97.99916725 375.54152485 82.79467875 266.918383 C82.49897585 264.80518104 82.20326903 262.69197962 81.90756178 260.57877827 C76.93632174 225.05280594 71.96704238 189.52655948 67 154 C67.03286543 154.74844744 67.06573086 155.49689487 67.09959221 156.26802254 C68.83428987 195.81898491 70.48964601 235.3702288 71.88037109 274.93505859 C72.08656536 280.80103699 72.29704948 286.66685285 72.50869942 292.53263664 C72.67848717 297.2504414 72.8461409 301.96832034 73.0132103 306.68622208 C73.08993101 308.84697712 73.16720559 311.00771261 73.24518204 313.1684227 C73.47428615 319.53696353 73.68701672 325.90583272 73.88419533 332.27544403 C73.96497166 334.87340447 74.04790598 337.47122894 74.13321495 340.06903839 C75.10001691 369.87636743 75.13555871 399.67444906 75.1035386 429.49508853 C75.09621836 436.50105746 75.09487301 443.50702446 75.09374207 450.51299667 C75.09157762 462.9971119 75.08499007 475.48122042 75.07543945 487.96533203 C75.0661966 500.06005826 75.05914985 512.15478265 75.05493164 524.24951172 C75.05466892 525.00068665 75.05440619 525.75186158 75.05413551 526.52579939 C75.05283005 530.29591218 75.05156644 534.06602497 75.05032361 537.83613777 C75.0400326 568.89076438 75.02163969 599.94537863 75 631 C50.25 631 25.5 631 0 631 C0 422.77 0 214.54 0 0 Z M188 491 C188 492.65 188 494.3 188 496 C188.33 496 188.66 496 189 496 C189 494.35 189 492.7 189 491 C188.67 491 188.34 491 188 491 Z " fill="#C70F2E" transform="translate(550,684)"/>
<path d="M0 0 C37.95 0 75.9 0 115 0 C118.44585127 18.37787343 118.44585127 18.37787343 119.7355957 27.35375977 C119.88650337 28.38487383 120.03741103 29.41598789 120.19289166 30.47834784 C120.69027556 33.88225856 121.18303927 37.28682074 121.67578125 40.69140625 C122.03656865 43.1671095 122.39764829 45.64277018 122.7589941 48.11839199 C123.5372424 53.45470737 124.3135057 58.79130544 125.08796501 64.12817192 C126.22817948 71.98532644 127.37226429 79.84191394 128.51721486 87.69837954 C130.4179462 100.74145124 132.31588558 113.78492762 134.21218872 126.8286438 C136.99930335 145.99945826 139.79095563 165.16961042 142.58374023 184.33959961 C142.81712895 185.94163679 143.05051733 187.54367402 143.28390539 189.1457113 C144.21747784 195.55396065 145.15106461 201.96220792 146.0847134 208.37044615 C147.25246276 216.38552885 148.42007017 224.40063219 149.5873394 232.41578484 C157.89872583 289.4865817 166.24727841 346.55185162 174.62915802 403.61234283 C175.35289406 408.5394793 176.07645953 413.46664081 176.80004883 418.39379883 C179.86490511 439.26279637 182.93126301 460.13157274 186 481 C184.50299322 460.83723307 182.98215255 440.67657283 181.4042263 420.51996422 C175.18383023 341.00769753 169.30625255 261.41557831 166.14715576 181.71240234 C166.04801717 179.21136308 165.9472767 176.71038686 165.84503174 174.20947266 C163.47940582 116.15464066 163.80699958 58.0931266 164 0 C188.75 0 213.5 0 239 0 C239 208.23 239 416.46 239 631 C204.35 631 169.7 631 134 631 C132.39902234 629.39902234 132.54607231 627.53062024 132.23562336 625.31794357 C132.09044689 624.29808766 131.94527041 623.27823175 131.79569465 622.22747111 C131.63852145 621.0923733 131.48134825 619.95727548 131.31941223 618.78778076 C131.1503204 617.59096341 130.98122856 616.39414607 130.80701274 615.16106153 C130.33561371 611.81833868 129.86803189 608.47512072 129.40199888 605.13164806 C128.89815228 601.52356657 128.38945832 597.91616831 127.88134766 594.3086853 C126.99575758 588.01628371 126.11329737 581.72344936 125.23288918 575.43032074 C123.93603759 566.16052378 122.6344654 556.89139421 121.33184823 547.62240592 C119.18690596 532.35876166 117.04578181 517.09458427 114.90698242 501.83007812 C112.88355692 487.38904667 110.85847948 472.94824878 108.83081055 458.5078125 C108.70889977 457.63959478 108.586989 456.77137706 108.46138395 455.87684971 C107.96968077 452.37511921 107.47796266 448.8733908 106.98622573 445.37166503 C101.0347444 402.99034997 95.09237121 360.60775993 89.15266738 318.22479287 C88.23961603 311.70970082 87.32651398 305.19461587 86.41338348 298.67953491 C79.60744171 250.11989737 72.80282179 201.56007473 66 153 C66.02590916 153.57802535 66.05181832 154.15605071 66.07851261 154.75159198 C68.71641282 213.61416183 68.71641282 213.61416183 69.69140625 236.82421875 C69.71879859 237.47586305 69.74619093 238.12750736 69.77441335 238.79889846 C70.8980457 265.56314176 71.85525642 292.33120146 72.65920639 319.10699081 C72.74765334 322.04699642 72.83752085 324.98695572 72.92764282 327.9269104 C73.30416414 340.29442699 73.6347939 352.66265243 73.92876053 365.03240204 C73.99989332 367.99555612 74.0741413 370.95862101 74.14865112 373.92169189 C75.36081582 423.09938244 75.11970262 472.29223887 75.0720278 521.48092139 C75.06062498 533.4553065 75.05529559 545.42969235 75.05032361 557.40408158 C75.04000913 581.93606184 75.02175117 606.46802703 75 631 C50.25 631 25.5 631 0 631 C0 422.77 0 214.54 0 0 Z M187 489 C187 490.98 187 492.96 187 495 C187.33 495 187.66 495 188 495 C188 493.02 188 491.04 188 489 C187.67 489 187.34 489 187 489 Z M188 500 C189 502 189 502 189 502 Z " fill="#C70F2D" transform="translate(1686,684)"/>
<path d="M0 0 C155.28571429 0 155.28571429 0 185 26 C186.00546875 26.85658203 186.00546875 26.85658203 187.03125 27.73046875 C206.72557224 45.85819717 214.72961654 74.3976998 218 100 C218.13172419 100.95666297 218.13172419 100.95666297 218.26610947 101.93265247 C219.34360112 110.90523939 219.15602678 119.92438913 219.16113281 128.94604492 C219.16576824 130.86091709 219.17079386 132.77578836 219.17617798 134.69065857 C219.18923982 139.87326328 219.19573551 145.05585507 219.20018864 150.23847365 C219.20313127 153.48739209 219.2072384 156.73630708 219.21169281 159.98522377 C219.22535543 170.18181216 219.23502641 180.37839259 219.2388947 190.5749895 C219.24336341 202.28552503 219.2608612 213.99594314 219.2898953 225.70644301 C219.31163574 234.79567864 219.32160563 243.88488154 219.32293582 252.97414285 C219.32397565 258.38449752 219.32970494 263.79474165 219.34775543 269.20506859 C219.45327679 302.77217323 219.34708011 335.29741657 204 366 C203.46632813 367.06863281 202.93265625 368.13726562 202.3828125 369.23828125 C198.04211984 377.24467848 192.37830026 383.60393288 186 390 C185.21882813 390.804375 184.43765625 391.60875 183.6328125 392.4375 C177.43994365 398.44270616 166.04011257 408 157 408 C157 408.66 157 409.32 157 410 C157.88816406 410.2475 158.77632812 410.495 159.69140625 410.75 C170.9454318 415.00181603 178.30880416 426.89721563 183.0625 437.375 C188.99233847 452.10596715 192.66840679 467.37902088 196.15234375 482.8359375 C196.44299839 484.12349567 196.44299839 484.12349567 196.73952484 485.43706512 C201.42538805 506.29098857 205.34874985 527.27873058 209.20709229 548.29864502 C210.11761161 553.2484103 211.03795907 558.19634836 211.95703125 563.14453125 C213.52345045 571.58601764 215.07819945 580.02957754 216.62226105 588.47518158 C217.48965861 593.21916447 218.36234172 597.96209858 219.24253464 602.70372391 C219.83847878 605.92137754 220.42654664 609.1404575 221.015625 612.359375 C221.22249939 613.4646051 221.42937378 614.56983521 221.64251709 615.70855713 C221.82526184 616.71706726 222.00800659 617.72557739 222.19628906 618.76464844 C222.43173431 620.0419986 222.43173431 620.0419986 222.67193604 621.34515381 C223.06685052 624.54098554 223 627.77986058 223 631 C193.63 631 164.26 631 134 631 C126.77937262 586.49786943 126.77937262 586.49786943 123.56298828 566.65307617 C123.35907282 565.39495652 123.15515736 564.13683687 122.94506264 562.84059238 C122.1087421 557.68059902 121.27243029 552.52060424 120.43619156 547.36059761 C117.95573815 532.05534056 115.47282346 516.75048856 112.98463821 501.44648647 C111.47810206 492.17987733 109.97361216 482.9129376 108.47071457 473.64573765 C107.58613415 468.19188914 106.70040217 462.73823295 105.81201172 457.28500366 C104.98064017 452.18166603 104.15216664 447.07786663 103.32596207 441.97369003 C103.02347452 440.1083179 102.71989787 438.243122 102.41515732 436.37811661 C102.00156971 433.84604421 101.59184607 431.31337621 101.18310547 428.78051758 C101.06173218 428.04331325 100.94035889 427.30610891 100.81530762 426.54656506 C100.29448548 423.29499709 100 420.3068142 100 417 C95.38 417 90.76 417 86 417 C86 487.62 86 558.24 86 631 C57.62 631 29.24 631 0 631 C0 422.77 0 214.54 0 0 Z M86 81 C86 167.46 86 253.92 86 343 C106.2250548 343.92681786 106.2250548 343.92681786 122.9375 337.125 C131.11002622 328.70482147 133.15314497 318.05724117 133.14044189 306.69688416 C133.14341302 305.86395059 133.14638414 305.03101702 133.1494453 304.17284304 C133.15811284 301.38336627 133.15963892 298.59393252 133.16113281 295.80444336 C133.16576246 293.80349639 133.17078732 291.80255029 133.17617798 289.80160522 C133.18929213 284.36531887 133.19574533 278.92904486 133.20018864 273.49274516 C133.20312169 270.09368331 133.207227 266.69462481 133.21169281 263.29556465 C133.22536677 252.6531453 133.23503324 242.01073363 133.2388947 231.3683061 C133.24337167 219.09784769 133.26090328 206.82750088 133.2898953 194.55707639 C133.3115438 185.06387065 133.32160072 175.57069623 133.32293582 166.07746607 C133.32398181 160.41196657 133.32984561 154.74657199 133.34775543 149.08109856 C133.36429029 143.74671723 133.36636536 138.41251908 133.35761642 133.07812119 C133.35684888 131.12712042 133.36115127 129.17610958 133.37107468 127.2251339 C133.54336778 106.95697595 133.54336778 106.95697595 125 89 C113.36456155 78.82992692 101.87377038 81 86 81 Z " fill="#C70F2D" transform="translate(1241,5)"/>
<path d="M0 0 C157.95158598 0 157.95158598 0 189.34375 31.33984375 C213.61106539 56.97842868 218.50807516 94.07351963 218.38818359 127.89086914 C218.39226439 129.86987088 218.39761459 131.84887033 218.40411377 133.8278656 C218.41761336 139.12951513 218.41256195 144.43098656 218.40297651 149.7326386 C218.39528968 155.32546105 218.40245012 160.91826998 218.40713501 166.51109314 C218.41256618 175.895525 218.40547028 185.27988563 218.39111328 194.66430664 C218.37478717 205.45938545 218.38008579 216.25429421 218.3965925 227.04936892 C218.41027739 236.37831595 218.41209318 245.70721229 218.40427649 255.03616613 C218.39963883 260.58151781 218.39886595 266.12678998 218.40888596 271.67213631 C218.41765637 276.88860332 218.41135319 282.1048545 218.39420319 287.3212986 C218.39029163 289.21692296 218.39127864 291.11256601 218.39799118 293.00818253 C218.50553167 326.50807012 212.04794272 362.55363881 187.7421875 387.2890625 C186.83726562 388.18367188 185.93234375 389.07828125 185 390 C184.19820312 390.81210938 183.39640625 391.62421875 182.5703125 392.4609375 C175.06512828 399.67083579 166.28873441 404.44714742 157 409 C157.71285156 409.4125 158.42570312 409.825 159.16015625 410.25 C165.58972828 414.12678098 170.58090708 417.9139581 175 424 C175.49886719 424.680625 175.99773437 425.36125 176.51171875 426.0625 C183.91833253 437.25990036 187.60657387 450.89619718 190.92236328 463.76879883 C191.17998003 464.76468175 191.43759678 465.76056467 191.7030201 466.78662586 C194.34382921 477.13505528 196.59560109 487.55125958 198.7421875 498.01171875 C199.05480844 499.52229638 199.05480844 499.52229638 199.37374496 501.06339073 C204.47495511 525.74566872 209.0102981 550.5310157 213.49432373 575.33148193 C214.35381106 580.07542278 215.22001445 584.81812804 216.08624458 589.56084156 C216.9256832 594.15932276 217.76231008 598.75831158 218.59792709 603.35748863 C218.99365914 605.53495744 219.38998576 607.71231828 219.78693008 609.88956642 C220.33217595 612.88398438 220.87391172 615.87901493 221.41455078 618.87426758 C221.57650436 619.7605484 221.73845795 620.64682922 221.90531921 621.55996704 C222.05073654 622.36979538 222.19615387 623.17962372 222.34597778 624.01399231 C222.47310213 624.7158154 222.60022648 625.41763849 222.73120308 626.14072895 C223 628 223 628 223 631 C193.63 631 164.26 631 134 631 C131.74999524 623.12498335 131.74999524 623.12498335 131.23853111 619.94269085 C131.11959696 619.21589081 131.00066281 618.48909078 130.87812459 617.7402665 C130.69426118 616.5764311 130.69426118 616.5764311 130.50668335 615.38908386 C130.37021727 614.54738579 130.23375119 613.70568771 130.09314978 612.83848363 C129.63927581 610.03252478 129.19146709 607.2256329 128.74365234 604.41870117 C128.41859923 602.40117676 128.09317575 600.383712 127.76741028 598.36630249 C126.88558207 592.89836677 126.00904851 587.42959424 125.13355207 581.96064162 C124.21686844 576.23960182 123.29560413 570.51929966 122.37490845 564.79890442 C120.83041134 555.19850677 119.28913246 545.59759698 117.75 535.99633789 C115.9686631 524.88429459 114.18330116 513.77290419 112.39555585 502.66189021 C110.49362834 490.84119484 108.59410022 479.02011497 106.69556856 467.19887376 C106.14744003 463.7867595 105.59891878 460.37470855 105.05033493 456.96266747 C104.19024839 451.61217527 103.33180639 446.26142172 102.47466087 440.91045761 C102.15914193 438.94227201 101.84308784 436.97417211 101.52647209 435.00616264 C101.09597564 432.3296719 100.66740147 429.65288051 100.23934937 426.97599792 C100.11231231 426.18895405 99.98527526 425.40191017 99.85438859 424.59101647 C99 419.22840024 99 419.22840024 99 417 C94.38 417 89.76 417 85 417 C85 487.62 85 558.24 85 631 C56.95 631 28.9 631 0 631 C0 422.77 0 214.54 0 0 Z M85 81 C85 167.46 85 253.92 85 343 C105.50471134 344.05918604 105.50471134 344.05918604 123.24609375 335.86328125 C134.96059701 323.41825217 133.15038507 303.46058909 133.14526367 287.73730469 C133.14825991 285.89649895 133.1516635 284.05569383 133.15544128 282.21488953 C133.16423825 277.23742431 133.16661758 272.25997632 133.16725707 267.28250408 C133.16797002 264.16632345 133.17010897 261.05014714 133.17275429 257.93396759 C133.18199348 247.04435449 133.18609096 236.1547536 133.18530273 225.26513672 C133.18470233 215.14389694 133.19525045 205.02271053 133.2110464 194.90148425 C133.22415822 186.18690834 133.2294851 177.47234979 133.22884732 168.7577641 C133.22859341 163.56402281 133.23138561 158.37032899 133.24202538 153.1765976 C133.25176787 148.28785097 133.25174373 143.39919659 133.24450874 138.51044655 C133.24347051 136.72637865 133.24578001 134.94230481 133.2518692 133.15824699 C133.64442363 108.61513725 133.64442363 108.61513725 122.7109375 87.46875 C111.90931771 78.19612662 98.90633981 81 85 81 Z " fill="#C70F2D" transform="translate(1225,684)"/>
<path d="M0 0 C25.65570171 24.36312437 30.62050602 61.88620032 31.62158644 95.54783607 C31.88662121 107.24394866 31.83613836 118.94602078 31.82004309 130.64434123 C31.81545596 135.5919451 31.82253288 140.53953574 31.82800293 145.48713684 C31.83683277 155.14309542 31.83500378 164.79902266 31.82917765 174.4549824 C31.82463569 182.3121692 31.82405913 190.1693473 31.82622528 198.02653503 C31.82653175 199.15062825 31.82683821 200.27472146 31.82715397 201.43287811 C31.8277935 203.71742221 31.82844193 206.00196631 31.82909915 208.28651041 C31.83478367 229.64030405 31.82827417 250.99408043 31.81749842 272.34787124 C31.80856463 290.61620014 31.8101172 308.8845036 31.81933594 327.15283203 C31.83007191 348.43733783 31.83423452 369.72182856 31.82811141 391.00633669 C31.8274744 393.28183778 31.82684566 395.55733887 31.82622528 397.83283997 C31.82576245 399.51162932 31.82576245 399.51162932 31.82529028 401.22433361 C31.82357329 409.05964959 31.82645678 416.8949559 31.83118439 424.73027039 C31.83683036 434.29667222 31.83519947 443.86304128 31.8246229 453.42943943 C31.8194157 458.29754999 31.81722336 463.16560621 31.8239212 468.0337162 C31.89011936 520.5309471 31.89011936 520.5309471 27.30859375 541.5546875 C27.09315918 542.57981445 26.87772461 543.60494141 26.65576172 544.66113281 C21.67763757 567.28508802 11.30786408 589.54063403 -8.66796875 602.52734375 C-40.8112162 622.01056778 -84.32001758 622.83584945 -120.17456055 614.23657227 C-131.9627763 611.14121941 -142.92633389 606.09182472 -152.44140625 598.4296875 C-153.19679688 597.84832031 -153.9521875 597.26695312 -154.73046875 596.66796875 C-177.19892348 578.25310122 -183.76109648 547.37090938 -186.70824313 519.94667679 C-187.55727275 510.97301806 -187.58723396 502.03636889 -187.58184814 493.03367615 C-187.58443648 491.28952137 -187.58745093 489.54536718 -187.59085155 487.8012138 C-187.59887024 483.03478071 -187.60070824 478.26836272 -187.60144901 473.50192368 C-187.60330864 468.35023674 -187.61086063 463.19855746 -187.61758423 458.046875 C-187.63113299 446.79200049 -187.63718727 435.53712956 -187.64159489 424.28224826 C-187.64436397 417.24321401 -187.64860259 410.20418111 -187.65309906 403.16514778 C-187.66528872 383.64466024 -187.67558765 364.12417378 -187.67897415 344.60368252 C-187.67919372 343.35566136 -187.67941328 342.10764021 -187.6796395 340.82180024 C-187.67985778 339.57092194 -187.68007606 338.32004365 -187.68030095 337.03125995 C-187.6807444 334.49683281 -187.68119097 331.96240566 -187.68164062 329.42797852 C-187.68186205 328.17083564 -187.68208348 326.91369276 -187.68231162 325.61845464 C-187.68625422 305.27758266 -187.70369314 284.93674661 -187.72700015 264.59588849 C-187.75078114 243.67093717 -187.76317911 222.74600382 -187.76434207 201.82103878 C-187.76525521 190.08930029 -187.77091562 178.35760861 -187.78916168 166.6258831 C-187.80465424 156.62987324 -187.80962975 146.63392465 -187.80142358 136.63790505 C-187.7975488 131.54898597 -187.79828886 126.4601899 -187.81248093 121.37128639 C-188.04532961 32.61957292 -188.04532961 32.61957292 -157.2265625 1.0859375 C-120.3504172 -34.08345774 -37.70587675 -32.50695325 0 0 Z M-95.44140625 64.4296875 C-102.48335352 75.04185279 -101.73155256 87.7071796 -101.70210266 99.91390991 C-101.70512605 101.69177874 -101.70901648 103.46964627 -101.71369523 105.24751151 C-101.72395968 110.1158515 -101.72179736 114.98411772 -101.71751463 119.85246372 C-101.71504461 125.10956169 -101.724065 130.36664203 -101.73155212 135.62373352 C-101.74429328 145.91620246 -101.74609355 156.2086453 -101.74375186 166.50112079 C-101.74196795 174.86796435 -101.74371991 183.2348 -101.7479763 191.60164261 C-101.74857149 192.79300373 -101.74916668 193.98436485 -101.74977991 195.21182782 C-101.75099167 197.63217071 -101.75220581 200.05251359 -101.75342228 202.47285648 C-101.76429551 225.16431497 -101.76213631 247.85575859 -101.75603744 270.54721792 C-101.75086806 291.29927732 -101.76212467 312.05128977 -101.78113566 332.80333988 C-101.80051419 354.12027278 -101.80877005 375.43718347 -101.8050124 396.75412524 C-101.80310044 408.7184781 -101.80558754 420.68279101 -101.81972694 432.64713669 C-101.83164186 442.83210667 -101.83304432 453.01701209 -101.82093678 463.20198296 C-101.81504902 468.39636454 -101.81394593 473.59062805 -101.82593918 478.78500175 C-101.8368007 483.54459399 -101.83369133 488.30396962 -101.81967749 493.06355174 C-101.81703133 494.78081691 -101.81939454 496.49809908 -101.82741336 498.21534757 C-101.99002789 517.12835721 -101.99002789 517.12835721 -93.44140625 533.4296875 C-87.7097878 537.7315368 -81.16440898 538.7359573 -74.15234375 538.28125 C-67.85733278 537.30779469 -63.31298444 534.49252051 -59.44140625 529.4296875 C-55.4762024 520.97211396 -54.31900499 512.24386612 -54.30997849 502.97286987 C-54.30689953 501.8911572 -54.30689953 501.8911572 -54.30375838 500.78759176 C-54.29811384 498.37644352 -54.29954247 495.96535287 -54.30096436 493.55419922 C-54.29837925 491.8058074 -54.29536569 490.05741618 -54.29196095 488.30902576 C-54.28390464 483.50812858 -54.28210214 478.70724636 -54.28136349 473.90634322 C-54.27951053 468.72684946 -54.27196193 463.54736343 -54.26522827 458.36787415 C-54.25165376 447.04326356 -54.2456215 435.71865652 -54.24121761 424.39403915 C-54.23845348 417.32011592 -54.2342158 410.24619404 -54.22971344 403.17227173 C-54.21752152 383.57904649 -54.20722232 363.98582234 -54.20383835 344.39259338 C-54.20361878 343.13887788 -54.20339922 341.88516238 -54.203173 340.59345549 C-54.20295472 339.33677119 -54.20273644 338.08008688 -54.20251155 336.78532124 C-54.20206809 334.23887952 -54.20162152 331.69243781 -54.20117188 329.14599609 C-54.20083973 327.25131893 -54.20083973 327.25131893 -54.20050088 325.31836545 C-54.1965543 304.85913799 -54.1791042 284.39994618 -54.15581235 263.94073248 C-54.13208115 242.92559641 -54.11963568 221.91047821 -54.11847043 200.89532852 C-54.11755462 189.10018217 -54.11182609 177.30508227 -54.09365082 165.50994873 C-54.07822592 155.46443359 -54.07314344 145.41897925 -54.08138892 135.37345451 C-54.08528705 130.25162782 -54.08440678 125.12992347 -54.07033157 120.00811195 C-54.05754243 115.31116172 -54.05883395 110.61442513 -54.07092229 105.91747499 C-54.07287064 104.22630938 -54.06984111 102.53512838 -54.06107792 100.84398437 C-53.66766202 80.22874106 -53.66766202 80.22874106 -62.44140625 62.4296875 C-72.00883164 54.96885119 -86.95480105 55.45813343 -95.44140625 64.4296875 Z " fill="#C70F2D" transform="translate(473.44140625,701.5703125)"/>
<path d="M0 0 C1.12725494 -0.00101212 1.12725494 -0.00101212 2.27728271 -0.00204468 C31.94254481 0.04013716 59.63901186 5.07954784 81.828125 26.296875 C107.07218057 52.73356312 109.89018406 93.82508325 109.80102539 128.34326172 C109.80074252 129.90195718 109.8009032 131.46065276 109.8014679 133.01934814 C109.80175196 137.20434803 109.79591898 141.38931859 109.78889394 145.57431173 C109.7825948 149.96515849 109.78205145 154.35600611 109.78086853 158.74685669 C109.7777744 167.04081639 109.76958716 175.33476274 109.75951904 183.62871659 C109.74619518 194.85099606 109.74084248 206.07327925 109.73501682 217.29556465 C109.72564576 234.94705308 109.7057141 252.59851334 109.6875 270.25 C81.3075 270.25 52.9275 270.25 23.6875 270.25 C23.65011719 258.56207031 23.61273437 246.87414062 23.57421875 234.83203125 C23.54393464 227.41730596 23.51290469 220.00259614 23.47851562 212.58789062 C23.42409795 200.82496563 23.37268197 189.0620836 23.34106445 177.29907227 C23.31802005 168.73083203 23.28455053 160.16270523 23.23879844 151.59455508 C23.2149528 147.0618939 23.19616748 142.52934446 23.18988609 137.99662209 C23.18379581 133.72102967 23.16365539 129.44572284 23.13322449 125.17023659 C23.12450697 123.60992422 23.12070847 122.04957444 23.12249184 120.48923874 C23.15918028 101.59035465 23.15918028 101.59035465 14.6875 85.25 C11.75300592 83.23958997 11.75300592 83.23958997 8.6875 82.25 C8.06875 82.023125 7.45 81.79625 6.8125 81.5625 C-1.27045121 80.3738307 -8.40269762 81.46969609 -15.125 86.25 C-20.99681956 94.30278112 -22.43453371 103.90071781 -22.44392776 113.6518259 C-22.44700672 114.74283684 -22.44700672 114.74283684 -22.45014787 115.8558884 C-22.45580417 118.29412521 -22.45436231 120.73230528 -22.45294189 123.17054749 C-22.45552632 124.93600083 -22.4585397 126.70145359 -22.4619453 128.46690553 C-22.47000954 133.31952956 -22.47180455 138.17213878 -22.47254276 143.02476871 C-22.47439433 148.25809365 -22.48194222 153.49141094 -22.48867798 158.72473145 C-22.50225802 170.16909786 -22.50828559 181.61346078 -22.51268864 193.05783391 C-22.51545177 200.2049379 -22.51968927 207.35204053 -22.52419281 214.4991436 C-22.53638534 234.29049247 -22.5466845 254.08184025 -22.5500679 273.87319279 C-22.55028747 275.13981698 -22.55050703 276.40644118 -22.55073325 277.71144792 C-22.55095153 278.98109104 -22.55116981 280.25073415 -22.5513947 281.5588513 C-22.55183817 284.13160074 -22.55228473 286.70435017 -22.55273438 289.27709961 C-22.5529558 290.5532703 -22.55317723 291.82944099 -22.55340537 293.14428353 C-22.55735257 313.81832089 -22.57480427 334.49232299 -22.5980939 355.16634674 C-22.62181639 376.39614383 -22.63427017 397.62592325 -22.63543582 418.85573381 C-22.6363521 430.77379205 -22.64209271 442.69180435 -22.66025543 454.60984993 C-22.67566855 464.75938408 -22.68076973 474.90885808 -22.67251733 485.05840171 C-22.66861507 490.23465535 -22.66951979 495.41078792 -22.68357468 500.5870266 C-22.69633885 505.33140564 -22.69509397 510.07557296 -22.68298396 514.81995182 C-22.68103132 516.53062706 -22.68408527 518.24131742 -22.69282833 519.95197142 C-22.75671084 533.3030835 -22.57088775 546.08431378 -13.3125 556.5 C-7.33099741 559.98920984 -0.15637838 560.91423204 6.625 559.5625 C11.07727053 558.25489622 14.39011699 557.25092015 17.02734375 553.18359375 C22.75463301 542.575658 22.9894737 531.91894487 23.00634766 520.06982422 C23.01566272 518.56097384 23.0258337 517.05212854 23.03678894 515.54328918 C23.0639253 511.47583997 23.0791894 507.40842506 23.09221697 503.34090948 C23.10791967 499.07945699 23.13468688 494.81807384 23.1602478 490.55667114 C23.20690981 482.49989784 23.24371453 474.44311132 23.27692068 466.38627255 C23.32240432 455.49002162 23.38323094 444.59385683 23.44316864 433.69767761 C23.53710086 416.54849507 23.61063365 399.3992872 23.6875 382.25 C52.0675 382.25 80.4475 382.25 109.6875 382.25 C109.76810607 418.18687218 109.76810607 418.18687218 109.78515625 433.38085938 C109.79696996 443.8238321 109.81076877 454.26677228 109.83837891 464.7097168 C109.85848779 472.31918489 109.87125732 479.92862628 109.87567699 487.53812021 C109.87825518 491.55691651 109.88419271 495.57563651 109.89896011 499.59440804 C109.97646146 521.55145092 110.01599698 543.6052781 105.4375 565.1875 C105.22134033 566.22688721 105.00518066 567.26627441 104.7824707 568.3371582 C99.77147641 591.36629456 89.36609953 611.96480808 69.48046875 625.51171875 C38.21505904 644.97061011 -4.87936256 645.27178602 -39.9375 637.5625 C-53.19592079 634.37213498 -64.70991806 628.86459783 -75.3125 620.25 C-76.240625 619.58291016 -76.240625 619.58291016 -77.1875 618.90234375 C-97.16047372 603.78391225 -104.21178735 574.22130719 -107.46386719 550.88037109 C-109.11507882 537.87378235 -109.45986205 524.93277662 -109.44621277 511.84558105 C-109.4480849 510.12501046 -109.4503872 508.4044403 -109.45307809 506.68387079 C-109.45915287 501.99211244 -109.45906763 497.30037201 -109.45788372 492.60861063 C-109.45767861 487.53408443 -109.46320898 482.45956383 -109.46794128 477.38504028 C-109.47622489 467.45606896 -109.4789951 457.52710358 -109.47955366 447.59812909 C-109.48002996 439.52084762 -109.48209036 431.44356809 -109.48525429 423.36628723 C-109.49405499 400.42935803 -109.49867463 377.4924335 -109.49792381 354.55550259 C-109.49788386 353.320634 -109.4978439 352.08576541 -109.49780273 350.81347656 C-109.49776185 349.57708744 -109.49772097 348.34069831 -109.49767885 347.06684285 C-109.49727266 327.04282176 -109.50683704 307.0188195 -109.5209411 286.99480385 C-109.53533282 266.39864704 -109.54220973 245.80249941 -109.54134732 225.20633745 C-109.5410163 213.65756465 -109.54372189 202.10881159 -109.55452538 190.56004333 C-109.56366729 180.72497774 -109.56577552 170.88994083 -109.55901595 161.05487281 C-109.55576915 156.04557083 -109.5556268 151.03632376 -109.5643692 146.02702713 C-109.6420138 98.59609021 -109.6420138 98.59609021 -105.5 78.3125 C-105.32895752 77.45390381 -105.15791504 76.59530762 -104.98168945 75.71069336 C-100.45387878 53.93698199 -90.83421671 31.68396119 -72.3125 18.25 C-50.1085161 3.860525 -26.01965647 0.02104169 0 0 Z " fill="#C70F2D" transform="translate(2080.3125,678.75)"/>
<path d="M0 0 C3.01294491 2.63121641 5.79806196 5.44165146 8.57421875 8.3203125 C9.22648438 8.94164062 9.87875 9.56296875 10.55078125 10.203125 C22.67366521 22.5474315 28.13062711 41.14305719 31.76171875 57.5703125 C31.91680908 58.25915527 32.07189941 58.94799805 32.23168945 59.65771484 C36.43048602 80.07279003 35.84410202 100.84140006 35.77700663 121.56509757 C35.76436449 126.13875459 35.76331828 130.71241524 35.76095581 135.28608704 C35.75478015 143.91635026 35.73842327 152.54656182 35.71825683 161.17680246 C35.69155753 172.86049126 35.6808935 184.54419454 35.6692524 196.22790623 C35.6505391 214.59208022 35.61066764 232.95614529 35.57421875 251.3203125 C7.52421875 251.3203125 -20.52578125 251.3203125 -49.42578125 251.3203125 C-49.47476563 240.2446875 -49.52375 229.1690625 -49.57421875 217.7578125 C-49.60962389 210.72134657 -49.64551601 203.68488864 -49.68359375 196.6484375 C-49.7438793 185.49155539 -49.80223464 174.33468822 -49.84765625 163.17773438 C-49.88075437 155.0500663 -49.92068178 146.92246428 -49.96857131 138.79486942 C-49.99366054 134.49743543 -50.01549208 130.20004425 -50.02912521 125.90255737 C-50.04210718 121.84451481 -50.06432888 117.78662046 -50.09316444 113.72866058 C-50.10211595 112.25184498 -50.10790071 110.77500561 -50.10999489 109.29816437 C-49.61343396 87.30535996 -49.61343396 87.30535996 -57.7734375 67.67578125 C-62.68292792 63.13286611 -68.77040761 61.85826619 -75.3125 62.07421875 C-80.95655829 62.73147508 -85.16249791 64.11195452 -89.30078125 68.0703125 C-97.28961661 80.28853129 -96.72100355 94.61792016 -96.67974854 108.7409668 C-96.68205699 110.47533899 -96.68523608 112.20971021 -96.68920302 113.9440794 C-96.69750684 118.67829783 -96.69344593 123.41243503 -96.68723059 128.14665365 C-96.68268894 133.26465482 -96.68969833 138.38264243 -96.69519043 143.50064087 C-96.70406783 153.5143021 -96.70216979 163.5279333 -96.69636515 173.5415957 C-96.69184216 181.68238588 -96.69123851 189.82316766 -96.69341278 197.96395874 C-96.69387248 199.70416417 -96.69387248 199.70416417 -96.69434147 201.47952527 C-96.69498094 203.83657082 -96.69562937 206.19361637 -96.69628665 208.55066192 C-96.7019851 230.63508095 -96.69543966 252.71948335 -96.68468592 274.80389965 C-96.67575085 293.73939194 -96.67730303 312.67485971 -96.68652344 331.61035156 C-96.69723463 353.61758357 -96.70143582 375.62480101 -96.69529891 397.63203526 C-96.69466183 399.98024559 -96.69403309 402.32845592 -96.69341278 404.67666626 C-96.69310423 405.83192847 -96.69279568 406.98719069 -96.69247778 408.17746085 C-96.69075339 416.30527165 -96.69366042 424.4330732 -96.69837189 432.56088257 C-96.70399015 442.4705263 -96.70244439 452.38013835 -96.6918104 462.28977847 C-96.68656643 467.34251189 -96.68447519 472.39519257 -96.6911087 477.44792557 C-96.69709668 482.07911568 -96.69374629 486.71020448 -96.6831536 491.34138548 C-96.68093161 493.01079891 -96.68202865 494.68022102 -96.68690518 496.34962881 C-96.79287469 515.99385074 -96.79287469 515.99385074 -90.42578125 534.3203125 C-85.19052654 539.55556721 -79.67999046 541.21861798 -72.42578125 541.3203125 C-66.53298213 540.7695019 -61.50965459 539.88464153 -57.42578125 535.3203125 C-49.57443027 522.92344253 -50.28224129 507.89097361 -50.22045898 493.76098633 C-50.21085695 492.33080782 -50.2008456 490.90063202 -50.19046021 489.47045898 C-50.16365656 485.62207699 -50.14251575 481.77368305 -50.12245822 477.92526078 C-50.10044545 473.89071927 -50.07313227 469.85621357 -50.04640198 465.82170105 C-49.99668021 458.19702931 -49.95166613 450.57233747 -49.90837961 442.94762677 C-49.84954996 432.63357245 -49.78337459 422.31956537 -49.71762943 412.00555325 C-49.61437608 395.77717159 -49.5208737 379.54874878 -49.42578125 363.3203125 C-21.37578125 363.3203125 6.67421875 363.3203125 35.57421875 363.3203125 C35.69512785 400.93199966 35.69512785 400.93199966 35.72070312 416.84179688 C35.73841938 427.77405072 35.75910502 438.70623459 35.80053711 449.63842773 C35.83071359 457.60462745 35.84985772 465.57076973 35.85648423 473.53702503 C35.8603494 477.74371883 35.86924106 481.9502485 35.89140892 486.15688896 C36.08239117 523.89802986 35.58191768 568.44925664 7.32421875 597.2578125 C-15.18478399 619.17048481 -46.43595522 622.70400583 -76.38623047 622.55249023 C-105.1567573 622.15003453 -133.28102721 616.95429022 -154.80078125 596.4453125 C-159.50534952 591.51236713 -163.09458828 586.25065851 -166.42578125 580.3203125 C-166.93753906 579.44246094 -167.44929688 578.56460938 -167.9765625 577.66015625 C-175.86624882 563.16515115 -179.35517199 546.56393836 -181.42578125 530.3203125 C-181.51383742 529.66736165 -181.60189359 529.01441079 -181.69261813 528.34167355 C-182.70249633 519.81071367 -182.57118158 511.25777205 -182.56622314 502.68232727 C-182.56881001 500.88755025 -182.57182406 499.09277379 -182.57522655 497.29799813 C-182.58326238 492.38250509 -182.58508421 487.46702669 -182.58582401 482.55152786 C-182.5876806 477.24309836 -182.59523108 471.93467636 -182.60195923 466.62625122 C-182.61551996 455.02443045 -182.62156408 443.42261314 -182.62596989 431.82078576 C-182.62873679 424.56838613 -182.63297502 417.31598783 -182.63747406 410.0635891 C-182.64966502 389.96156174 -182.65996387 369.85953544 -182.66334915 349.75750446 C-182.66356872 348.47179548 -182.66378828 347.18608651 -182.6640145 345.86141665 C-182.66434192 343.92837309 -182.66434192 343.92837309 -182.66467595 341.95627815 C-182.66511941 339.34511967 -182.66556597 336.7339612 -182.66601562 334.12280273 C-182.66623705 332.82759223 -182.66645848 331.53238173 -182.66668662 330.19792243 C-182.67063059 309.233435 -182.68807313 288.26898241 -182.71137515 267.30450843 C-182.7351369 245.75135288 -182.74755324 224.19821478 -182.74871707 202.64504594 C-182.74963125 190.55570114 -182.75531845 178.46640171 -182.77353668 166.37706947 C-182.78900307 156.07786747 -182.79401988 145.77872487 -182.78579858 135.47951344 C-182.78191478 130.23313449 -182.78270943 124.9868749 -182.79685593 119.74051094 C-182.89938397 79.3318323 -182.55941039 36.06996131 -152.42578125 5.3203125 C-151.76191406 4.62035156 -151.09804687 3.92039062 -150.4140625 3.19921875 C-117.33993616 -29.11892756 -35.06778769 -28.75415331 0 0 Z " fill="#C70F2D" transform="translate(204.42578125,697.6796875)"/>
<path d="M0 0 C27.97938405 26.20009095 33.18763794 67.90140743 34.45703125 104.30078125 C34.80792331 119.59286388 34.65779272 134.8984855 34.59436035 150.19311523 C34.56990886 156.72819912 34.56105266 163.26332212 34.54945374 169.79843903 C34.53031786 179.63263173 34.49189745 189.46657534 34.45703125 199.30078125 C6.73703125 199.30078125 -20.98296875 199.30078125 -49.54296875 199.30078125 C-49.59195313 192.19546875 -49.6409375 185.09015625 -49.69140625 177.76953125 C-49.72683594 173.23957001 -49.76282068 168.70962652 -49.80078125 164.1796875 C-49.86084097 157.00637499 -49.91896359 149.83308702 -49.96484375 142.65966797 C-50.00200678 136.86942556 -50.04844628 131.07932197 -50.10103226 125.28919983 C-50.11941287 123.09190838 -50.13457945 120.89458737 -50.14631271 118.69725037 C-49.33399542 89.82122084 -49.33399542 89.82122084 -60.98046875 64.60546875 C-64.79967997 61.41642738 -68.62507203 60.62326628 -73.54296875 60.30078125 C-79.33439204 60.93642527 -84.1158286 62.37672521 -88.54296875 66.30078125 C-99.07801378 79.627163 -97.01101812 99.67960326 -96.93408203 115.54125977 C-96.91807559 119.46210925 -96.9339523 123.38191721 -96.953125 127.30273438 C-96.96915249 145.30744368 -96.04247159 162.80208417 -90.73046875 180.11328125 C-90.47112549 180.98452637 -90.21178223 181.85577148 -89.94458008 182.75341797 C-87.59458616 190.4702611 -84.8108814 197.92210916 -81.54296875 205.30078125 C-81.25147949 205.97657227 -80.95999023 206.65236328 -80.65966797 207.34863281 C-68.58917487 235.127821 -50.97263741 260.86366401 -34.12084961 285.91845703 C-29.30096333 293.10747412 -24.71037145 300.44129868 -20.12255859 307.77978516 C-18.52670243 310.32674199 -16.92000539 312.86663321 -15.3125 315.40625 C-7.52771016 327.7640944 -0.27480598 340.33819672 6.45703125 353.30078125 C6.93414551 354.21553223 7.41125977 355.1302832 7.90283203 356.07275391 C24.93171222 389.09195565 33.5880049 424.2030714 33.625 461.3359375 C33.6283284 462.53528427 33.6316568 463.73463104 33.63508606 464.97032166 C33.64011344 467.49217347 33.64249569 470.01403185 33.64233398 472.53588867 C33.64451179 476.32938001 33.66268942 480.12257584 33.68164062 483.91601562 C33.72209175 501.17664677 33.27624469 518.39945908 29.76953125 535.36328125 C29.60291992 536.17434326 29.43630859 536.98540527 29.26464844 537.82104492 C25.02521339 557.16580388 16.85953705 575.60424041 3.45703125 590.30078125 C2.77125 591.079375 2.08546875 591.85796875 1.37890625 592.66015625 C-15.23353701 610.50315087 -40.68872642 619.46523536 -64.65063477 620.42529297 C-80.15680949 620.78257299 -95.35260961 620.6560547 -110.54296875 617.30078125 C-111.27370605 617.13980957 -112.00444336 616.97883789 -112.75732422 616.81298828 C-134.35416529 611.79573509 -154.0307897 599.963187 -166.36669922 581.22021484 C-183.8638936 552.66833808 -185.71910915 520.07559514 -185.640625 487.5 C-185.63875673 485.20929495 -185.63733476 482.9185895 -185.63633728 480.62788391 C-185.6325443 474.63899607 -185.62274198 468.65013302 -185.6116333 462.66125488 C-185.59953702 455.45402793 -185.5950016 448.24679263 -185.58917999 441.03955841 C-185.57952812 430.12661553 -185.56034913 419.21372687 -185.54296875 408.30078125 C-157.16296875 408.30078125 -128.78296875 408.30078125 -99.54296875 408.30078125 C-99.50558594 415.8134375 -99.46820312 423.32609375 -99.4296875 431.06640625 C-99.39939066 435.84247031 -99.36823146 440.61849787 -99.33398438 445.39453125 C-99.27977762 452.96547549 -99.22866287 460.53634755 -99.1965332 468.10742188 C-99.17041203 474.21540043 -99.12994733 480.32313488 -99.07978249 486.43096161 C-99.06317329 488.75436096 -99.05162216 491.07780248 -99.04535484 493.40125275 C-99.69836682 515.20575051 -99.69836682 515.20575051 -90.54296875 534.30078125 C-84.90361597 538.64751834 -79.53418737 539.76686249 -72.54296875 539.30078125 C-67.13648124 538.16092218 -63.27157716 535.95969393 -59.859375 531.58984375 C-53.77016456 521.00148376 -53.38434156 508.85597635 -53.33984375 497 C-53.33414368 495.80961624 -53.3284436 494.61923248 -53.3225708 493.39277649 C-53.3131431 490.87375774 -53.3065957 488.35472679 -53.30273438 485.83569336 C-53.2930983 482.03932195 -53.26208147 478.24350858 -53.23046875 474.44726562 C-53.15654954 457.8135991 -53.43290664 441.41197526 -59.66796875 425.73828125 C-59.96944824 424.95565918 -60.27092773 424.17303711 -60.58154297 423.36669922 C-69.98688106 399.67900415 -85.26964869 378.60025175 -99.37329102 357.54418945 C-126.14582983 317.55769374 -152.00773402 276.11198238 -167.54296875 230.30078125 C-167.86491211 229.35283691 -168.18685547 228.40489258 -168.51855469 227.42822266 C-173.4477677 212.66328725 -177.07918024 197.67255332 -179.54296875 182.30078125 C-179.82442749 180.64622925 -179.82442749 180.64622925 -180.11157227 178.95825195 C-182.17964856 164.68419976 -181.88208511 150.24715244 -181.85864258 135.85668945 C-181.85402427 132.79013348 -181.86089349 129.72397533 -181.87915039 126.6574707 C-182.1277467 84.5013577 -178.64137113 38.85664679 -148.06640625 6.68115234 C-113.04529479 -28.64071294 -37.93942277 -33.05118089 0 0 Z " fill="#C70F2D" transform="translate(737.54296875,20.69921875)"/>
<path d="M0 0 C54.45 0 108.9 0 165 0 C165 26.73 165 53.46 165 81 C138.93 81 112.86 81 86 81 C86 144.69 86 208.38 86 274 C108.77 274 131.54 274 155 274 C155 296.77 155 319.54 155 343 C132.23 343 109.46 343 86 343 C86 411.31 86 479.62 86 550 C112.07 550 138.14 550 165 550 C165 576.73 165 603.46 165 631 C110.55 631 56.1 631 0 631 C0 422.77 0 214.54 0 0 Z " fill="#C70F2E" transform="translate(365,5)"/>
<path d="M0 0 C54.45 0 108.9 0 165 0 C165 26.73 165 53.46 165 81 C138.93 81 112.86 81 86 81 C86 144.36 86 207.72 86 273 C108.44 273 130.88 273 154 273 C154 296.1 154 319.2 154 343 C131.56 343 109.12 343 86 343 C86 411.31 86 479.62 86 550 C112.07 550 138.14 550 165 550 C165 576.73 165 603.46 165 631 C110.55 631 56.1 631 0 631 C0 422.77 0 214.54 0 0 Z " fill="#C70F2D" transform="translate(1489,684)"/>
<path d="M0 0 C54.45 0 108.9 0 165 0 C165 26.73 165 53.46 165 81 C138.93 81 112.86 81 86 81 C86 144.36 86 207.72 86 273 C108.44 273 130.88 273 154 273 C154 296.1 154 319.2 154 343 C131.56 343 109.12 343 86 343 C86 411.31 86 479.62 86 550 C112.07 550 138.14 550 165 550 C165 576.73 165 603.46 165 631 C110.55 631 56.1 631 0 631 C0 422.77 0 214.54 0 0 Z " fill="#C70F2D" transform="translate(1028,684)"/>
<path d="M0 0 C54.45 0 108.9 0 165 0 C165 26.73 165 53.46 165 81 C138.6 81 112.2 81 85 81 C85 144.69 85 208.38 85 274 C107.77 274 130.54 274 154 274 C154 296.77 154 319.54 154 343 C131.23 343 108.46 343 85 343 C85 411.31 85 479.62 85 550 C111.4 550 137.8 550 165 550 C165 576.73 165 603.46 165 631 C110.55 631 56.1 631 0 631 C0 422.77 0 214.54 0 0 Z " fill="#C70F2D" transform="translate(1045,5)"/>
<path d="M0 0 C54.12 0 108.24 0 164 0 C164 26.73 164 53.46 164 81 C137.93 81 111.86 81 85 81 C85 144.36 85 207.72 85 273 C107.77 273 130.54 273 154 273 C154 296.1 154 319.2 154 343 C131.23 343 108.46 343 85 343 C85 411.31 85 479.62 85 550 C111.07 550 137.14 550 164 550 C164 576.73 164 603.46 164 631 C109.88 631 55.76 631 0 631 C0 422.77 0 214.54 0 0 Z " fill="#C70F2D" transform="translate(2236,684)"/>
<path d="M0 0 C54.45 0 108.9 0 165 0 C165 26.73 165 53.46 165 81 C138.93 81 112.86 81 86 81 C86 144.36 86 207.72 86 273 C108.44 273 130.88 273 154 273 C154 296.1 154 319.2 154 343 C131.56 343 109.12 343 86 343 C86 438.04 86 533.08 86 631 C57.62 631 29.24 631 0 631 C0 422.77 0 214.54 0 0 Z " fill="#C70F2D" transform="translate(836,684)"/>
<path d="M0 0 C71.61 0 143.22 0 217 0 C217 26.73 217 53.46 217 81 C195.22 81 173.44 81 151 81 C151 262.5 151 444 151 631 C122.62 631 94.24 631 65 631 C65 449.5 65 268 65 81 C43.55 81 22.1 81 0 81 C0 54.27 0 27.54 0 0 Z " fill="#C70F2D" transform="translate(797,5)"/>
</svg>
