<?xml version="1.0" encoding="utf-8"?>
<!-- Generator: Adobe Illustrator 27.5.0, SVG Export Plug-In . SVG Version: 6.00 Build 0)  -->
<svg version="1.1"
	 id="svg2" xmlns:inkscape="http://www.inkscape.org/namespaces/inkscape" xmlns:cc="http://creativecommons.org/ns#" xmlns:sodipodi="http://sodipodi.sourceforge.net/DTD/sodipodi-0.dtd" xmlns:rdf="http://www.w3.org/1999/02/22-rdf-syntax-ns#" xmlns:svg="http://www.w3.org/2000/svg" xmlns:dc="http://purl.org/dc/elements/1.1/"
	 xmlns="http://www.w3.org/2000/svg" xmlns:xlink="http://www.w3.org/1999/xlink" x="0px" y="0px" viewBox="0 0 433 433"
	 style="enable-background:new 0 0 433 433;" xml:space="preserve">
<style type="text/css">
	.st0{fill:none;}
	.st1{fill:#2DAFE5;}
	.st2{fill:#7C2C3B;}
	.st3{fill:#D6A93A;}
	.st4{fill:#F8D742;}
	.st5{fill:#CDA938;}
	.st6{fill:#FFFFFF;}
</style>
<sodipodi:namedview  bordercolor="#666666" borderopacity="1" fit-margin-bottom="2.38" fit-margin-left="2.49" fit-margin-right="2.49" fit-margin-top="2.38" gridtolerance="10" guidetolerance="10" id="namedview4" inkscape:current-layer="g10" inkscape:cx="194.99874" inkscape:cy="216.49818" inkscape:pageopacity="0" inkscape:pageshadow="2" inkscape:window-height="705" inkscape:window-maximized="1" inkscape:window-width="1366" inkscape:window-x="-8" inkscape:window-y="-8" inkscape:zoom="1.2096127" objecttolerance="10" pagecolor="#ffffff" showgrid="false">
	</sodipodi:namedview>
<rect x="-310.8" y="-318.2" class="st0" width="1052.4" height="1052.4"/>
<g id="g504" transform="translate(575.8271,574.3318)">
	<path id="path506" inkscape:connector-curvature="0" class="st1" d="M-166.8-558.1L-166.8-558.1c-115.2-18.3-269.8-18.3-385,0
		c-7.5,186.3-9.1,350.4,192.5,414.4C-157.6-207.7-159.4-372-166.8-558.1L-166.8-558.1z M-359.3-365.3L-359.3-365.3l0.2,0.2
		L-359.3-365.3z"/>
</g>
<g id="g508" transform="translate(565.1913,563.6977)">
	<path id="path510" inkscape:connector-curvature="0" class="st2" d="M-169.5-534.1L-169.5-534.1c-107.2-17.1-251.2-17.1-358.4,0
		c-6.7,173.9-9.8,328.6,179.2,388.4C-159.6-205.6-162.9-360.5-169.5-534.1L-169.5-534.1z"/>
</g>
<g id="g512" transform="translate(492.5962,308.7527)">
	<path id="path514" inkscape:connector-curvature="0" class="st3" d="M-187.6,39.5c4.5,5.5,22.3-12.4,16.9-16.9
		c0,0-177.7-173.2-177.7-173.2c-6.5-6.7-19.2,5.8-12.4,12.4C-360.9-138.2-187.6,39.5-187.6,39.5z"/>
</g>
<g id="g516" transform="translate(368.3235,462.9464)">
	<path id="path518" inkscape:connector-curvature="0" class="st4" d="M-218.7-307.4c0,0,14.5-17.1,14.5-17.1s1.4-1.8-0.8-4.4
		c-5.6-6.8-16.8-16.8-16.8-16.8c-1.6-1.2-2.7-0.9-4.5,0.8c-10.5,11.9-36.9,31.2-34.9,37.8c0.6,3,2.2,8.1-0.6,13l-15.3,24.1
		c-3.7,5.6-1.7,10.6,5.6,5.8c3.5-2.4,30.7-20.6,36.2-26.9C-231.9-294.5-222.2-303.7-218.7-307.4"/>
</g>
<g id="g520" transform="translate(326.2043,429.5609)">
	<path id="path522" inkscape:connector-curvature="0" class="st3" d="M-229.2-232.3c-4.3,2.9-4.3,3.4-3.7,3.3
		c7.2-3.3,29.9-19.4,39.1-27.9C-206.3-254.5-217-239.9-229.2-232.3"/>
</g>
<g id="g524" transform="translate(368.3227,462.9464)">
	<path id="path526" inkscape:connector-curvature="0" class="st3" d="M-218.7-307.4l14.5-17.1c0,0,0.8-1.1,0.2-2.9
		c0,0-1.2-1.4-5.4,3.5c-5.7,6.6-11.4,11.3-12.8,20C-221.4-304.7-219.7-306.4-218.7-307.4"/>
</g>
<g id="g528" transform="translate(351.393,308.7527)">
	<path id="path530" inkscape:connector-curvature="0" class="st3" d="M-223,39.5c-4.5,5.5-22.3-12.4-16.9-16.9
		c0,0,177.8-173.3,177.8-173.3c6.5-6.7,19.2,5.8,12.4,12.4C-49.6-138.3-223,39.5-223,39.5z"/>
</g>
<g id="g532" transform="translate(350.0104,310.1192)">
	<path id="path534" inkscape:connector-curvature="0" class="st4" d="M-223.3,36.4l165.9-170.3c4.9-4.6-0.7-14.3-7.2-14.2
		L-238.4,21.3C-243.7,25.5-227.8,41.7-223.3,36.4"/>
</g>
<g id="g536" transform="translate(475.7193,463.0001)">
	<path id="path538" inkscape:connector-curvature="0" class="st4" d="M-191.9-307.6c0,0-14.5-17.1-14.5-17.1s-1.4-1.8,0.8-4.4
		c5.6-6.8,16.8-16.8,16.8-16.8c1.6-1.2,2.7-0.9,4.5,0.8c10.5,11.9,36.9,31.2,34.9,37.8c-0.6,3-2.2,8.1,0.6,13l15.3,24.1
		c3.7,5.6,1.7,10.6-5.6,5.8c-3.5-2.4-30.7-20.6-36.2-26.9C-178.7-294.7-188.4-303.8-191.9-307.6"/>
</g>
<g id="g540" transform="translate(517.8391,429.6147)">
	<path id="path542" inkscape:connector-curvature="0" class="st3" d="M-181.3-232.5c4.3,2.9,4.3,3.4,3.7,3.3
		c-7.2-3.3-29.9-19.4-39.1-27.9C-204.3-254.6-193.5-240.1-181.3-232.5"/>
</g>
<g id="g544" transform="translate(475.7193,463.0001)">
	<path id="path546" inkscape:connector-curvature="0" class="st3" d="M-191.9-307.6l-14.5-17.1c0,0-0.8-1.1-0.2-2.9
		c0,0,1.2-1.4,5.4,3.5c5.7,6.6,11.4,11.3,12.8,20C-189.2-304.8-190.9-306.5-191.9-307.6"/>
</g>
<g id="g548" transform="translate(498.1169,459.0363)">
	<path id="path550" inkscape:connector-curvature="0" class="st3" d="M-186.3-298.7c-1.4,1.4-3.6,1.4-5,0
		c-1.7-2.7-11.7-8.5-7.4-12.4c1.4-1.4,3.6-1.4,5,0C-192-308.4-182-302.6-186.3-298.7"/>
</g>
<g id="g552" transform="translate(488.993,464.9948)">
	<path id="path554" inkscape:connector-curvature="0" class="st5" d="M-188.6-312.1c-2.1-1.9-0.8-5.6,2-5.9c-3.2-0.6-5.4,3.7-3,5.9
		c1.9,1.3,7.7,9.3,10.4,8.4C-180.9-303.5-187.3-311.1-188.6-312.1z"/>
</g>
<g id="g556" transform="translate(491.6132,462.8082)">
	<path id="path558" inkscape:connector-curvature="0" class="st3" d="M-187.9-307.1c-0.3,0.3-0.9-0.2-0.5-0.5
		c0.3-0.1,3.5-4.1,3.9-3.4C-183.8-310.7-187.8-307.5-187.9-307.1z"/>
</g>
<g id="g560" transform="translate(492.5152,461.9011)">
	<path id="path562" inkscape:connector-curvature="0" class="st3" d="M-187.7-305.1c-0.3,0.4-0.9-0.2-0.5-0.5
		C-187.9-306-187.3-305.4-187.7-305.1"/>
</g>
<g id="g564" transform="translate(490.6396,463.7751)">
	<path id="path566" inkscape:connector-curvature="0" class="st3" d="M-188.1-309.3c-0.3,0.3-0.9-0.2-0.5-0.5
		C-188.3-310.2-187.8-309.7-188.1-309.3"/>
</g>
<g id="g568" transform="translate(492.8423,467.4733)">
	<path id="path570" inkscape:connector-curvature="0" class="st3" d="M-187.6-317.6c-0.3-0.3-2.1-2.3-1.7-0.6c1.3,0.5-4.9,4.3-2.3,4
		c0,0,3-3,3-3c0.2-0.1,0.3,0.1,0.4,0.2C-187.8-316.7-187.2-317.3-187.6-317.6"/>
</g>
<g id="g572" transform="translate(497.842,462.4331)">
	<path id="path574" inkscape:connector-curvature="0" class="st3" d="M-186.3-306.3c-0.6-0.9-3.9,3.4-2.4,0.3c0.1-0.2,0-0.3-0.1-0.5
		c-0.3-0.3-1,0.3-1.2,0.3c-1.3,0.1,2.8-3.5,0.6-2.7c0,0.3-4.3,4.8-2.4,4.5c0.2,0,1.9-1.2,1.7-0.4c-0.1,0.4-1.4,2.3-0.1,1.9
		C-190.2-303.2-185.7-305.8-186.3-306.3"/>
</g>
<g id="g576" transform="translate(367.9168,456.9263)">
	<path id="path578" inkscape:connector-curvature="0" class="st4" d="M-218.8-293.9c-6.2-0.5-12.1,8.8-7.3,13.2c0,0,71,72.8,71,72.8
		L-143-220L-218.8-293.9z"/>
</g>
<g id="g580" transform="translate(506.0803,322.2387)">
	<path id="path582" inkscape:connector-curvature="0" class="st4" d="M-184.3,9.1l-89.6-87.3c-7.6,3.2-10.1,13.4-5,19.7
		c0,0,80.1,82.2,80.1,82.2C-194.9,28.4-179.3,14.5-184.3,9.1"/>
</g>
<g id="g584" transform="translate(491.4816,462.9398)">
	<path id="path586" inkscape:connector-curvature="0" class="st4" d="M-187.9-307.4c-0.3,0.3-0.9-0.2-0.5-0.5c0.3-0.1,3.5-4.1,4-3.4
		C-183.8-311-187.8-307.8-187.9-307.4z"/>
</g>
<g id="g588" transform="translate(492.3835,462.0323)">
	<path id="path590" inkscape:connector-curvature="0" class="st4" d="M-187.7-305.4c-0.3,0.3-0.9-0.2-0.5-0.5
		C-187.9-306.3-187.4-305.7-187.7-305.4"/>
</g>
<g id="g592" transform="translate(490.508,463.9067)">
	<path id="path594" inkscape:connector-curvature="0" class="st4" d="M-188.2-309.6c-0.3,0.3-0.9-0.2-0.5-0.5
		C-188.4-310.5-187.8-309.9-188.2-309.6"/>
</g>
<g id="g596" transform="translate(492.7107,467.6053)">
	<path id="path598" inkscape:connector-curvature="0" class="st4" d="M-187.6-317.9l-1.2-1.2c-0.5-0.4-0.9,0.4-0.4,0.7
		c0.3,0.6-3.7,3.1-3,3.8c0.4,0.7,3.2-2.9,3.6-3c0.2-0.1,0.3,0.1,0.4,0.2C-187.8-317-187.3-317.6-187.6-317.9"/>
</g>
<g id="g600" transform="translate(497.7104,462.5647)">
	<path id="path602" inkscape:connector-curvature="0" class="st4" d="M-186.4-306.6c-0.5-0.9-2.7,2.2-2.8,1.1
		c0.1-0.3,0.6-0.9,0.4-1.2c-0.1-0.1-0.3-0.2-0.5-0.1c-2.6,1.4,0.1-1.4,0.4-1.9c0.2-2.5-3.3,3.4-3.4,3.5c-0.4,1.7,2.2-0.9,2.1,0.2
		c-0.1,0.3-1,1.5-0.6,1.8c0.3,0.7,4.1-2.8,4.4-2.8C-186.3-306.2-186.2-306.4-186.4-306.6"/>
</g>
<g id="g604" transform="translate(355.8499,468.9067)">
	<path id="path606" inkscape:connector-curvature="0" class="st3" d="M-221.8-320.9c1.4,1.4,1.4,3.6,0,5c-2.7,1.7-8.5,11.7-12.4,7.4
		c-1.4-1.4-1.4-3.6,0-5C-231.6-315.1-225.8-325.1-221.8-320.9"/>
</g>
<g id="g608" transform="translate(346.4246,462.451)">
	<path id="path610" inkscape:connector-curvature="0" class="st5" d="M-224.2-306.3c2.6-1.6,8.2-11.2,12.1-7.7
		c-1.3-1.7-3.8-1.8-5.3-0.3c-1.8,2.7-12.2,8.8-7.1,12.7C-225.6-303.1-225.5-305.1-224.2-306.3"/>
</g>
<g id="g612" transform="translate(351.9465,461.972)">
	<path id="path614" inkscape:connector-curvature="0" class="st3" d="M-222.8-305.3c0.4,0.3-0.2,0.9-0.5,0.5
		c-0.1-0.3-4.1-3.5-3.4-3.9C-226.4-309.4-223.1-305.3-222.8-305.3z"/>
</g>
<g id="g616" transform="translate(352.8547,462.874)">
	<path id="path618" inkscape:connector-curvature="0" class="st3" d="M-222.6-307.3c0.3,0.3-0.2,0.9-0.5,0.5
		C-223.5-307.1-222.9-307.6-222.6-307.3"/>
</g>
<g id="g620" transform="translate(350.9799,460.9984)">
	<path id="path622" inkscape:connector-curvature="0" class="st3" d="M-223.1-303.1c0.3,0.3-0.2,0.9-0.5,0.5
		C-223.9-302.9-223.4-303.4-223.1-303.1"/>
</g>
<g id="g624" transform="translate(347.2818,463.2003)">
	<path id="path626" inkscape:connector-curvature="0" class="st3" d="M-224-308l-1.2,1.2c-0.4,0.5,0.4,0.9,0.7,0.4
		c0.6-0.3,3.1,3.7,3.8,3c0.7-0.4-2.9-3.2-3-3.6c-0.1-0.2,0.1-0.3,0.2-0.4C-223.1-307.8-223.6-308.4-224-308"/>
</g>
<g id="g628" transform="translate(352.3228,468.2008)">
	<path id="path630" inkscape:connector-curvature="0" class="st3" d="M-222.7-319.3c-0.9,0.5,2.3,2.7,1.1,2.8
		c-0.3-0.1-0.9-0.6-1.2-0.4c-0.1,0.1-0.2,0.3-0.1,0.5c1.4,2.6-1.4-0.1-1.9-0.4c-0.4-0.3-0.8,0.3-0.4,0.6c0.3,0,4.1,3.4,4.4,2.8
		c0.6-0.4-1.3-2.1-0.3-2.1c0,0,1.4,0.7,1.4,0.7c0.3,0.2,0.7-0.3,0.5-0.6C-219.7-315.4-222.2-319.9-222.7-319.3"/>
</g>
<g id="g632" transform="translate(351.9465,462.2719)">
	<path id="path634" inkscape:connector-curvature="0" class="st4" d="M-222.8-305.9c0.4,0.3-0.2,0.9-0.5,0.5
		c-0.1-0.3-4.1-3.5-3.4-3.9C-226.4-310-223.1-306-222.8-305.9z"/>
</g>
<g id="g636" transform="translate(352.8547,463.1742)">
	<path id="path638" inkscape:connector-curvature="0" class="st4" d="M-222.6-308c0.3,0.3-0.2,0.9-0.5,0.5
		C-223.5-307.8-222.9-308.3-222.6-308"/>
</g>
<g id="g640" transform="translate(350.9799,461.2991)">
	<path id="path642" inkscape:connector-curvature="0" class="st4" d="M-223.1-303.7c0.3,0.3-0.2,0.9-0.5,0.5
		C-223.9-303.6-223.4-304.1-223.1-303.7"/>
</g>
<g id="g644" transform="translate(347.2818,463.501)">
	<path id="path646" inkscape:connector-curvature="0" class="st4" d="M-224-308.7c-0.3,0.3-2.3,2.1-0.6,1.7c0.5-1.3,4.3,4.9,4,2.3
		c0,0-3-3-3-3c-0.1-0.2,0.1-0.3,0.2-0.4C-223.1-308.5-223.6-309.1-224-308.7"/>
</g>
<g id="g648" transform="translate(352.3228,468.5014)">
	<path id="path650" inkscape:connector-curvature="0" class="st4" d="M-222.7-319.9c-0.9,0.5,2.3,2.7,1.1,2.8
		c-0.3-0.1-0.9-0.6-1.2-0.4c-0.1,0.1-0.2,0.3-0.1,0.5c1.4,2.6-1.4-0.1-1.9-0.4c-0.4-0.3-0.8,0.3-0.4,0.6c0.3,0,4.1,3.4,4.4,2.8
		c0.5-0.4-0.9-1.6-0.6-2.1c0.4-0.3,1.6,1,2.1,0.6c0.7-0.3-2.8-4.1-2.8-4.4C-222.3-320-222.5-320.1-222.7-319.9"/>
</g>
<g id="g652" transform="translate(365.9351,503.0105)">
	<path id="path654" inkscape:connector-curvature="0" class="st6" d="M-219.3-397.6c-17.2,1.2-13-19.2-13.9-30.4
		c3-0.2,4.6-0.4,7.6-0.6c1.6,6.6-3.7,26.3,7.2,24c9.5-0.3,3.6-18.3,4.8-24.8c3.1-0.2,4.6-0.3,7.6-0.4
		C-206.1-417.8-201.5-397.6-219.3-397.6"/>
</g>
<g id="g656" transform="translate(381.2465,528.9523)">
	<path id="path658" inkscape:connector-curvature="0" class="st6" d="M-215.5-456c3.5-0.2,5.3-0.2,8.9-0.4c4,6.4,7.9,12.8,11.9,19.3
		c0,0,0.1,0,0.1,0c-0.1-6.6-0.1-13.1-0.2-19.7c3.1-0.1,4.6-0.1,7.6-0.2c0.1,10.3,0.2,20.6,0.3,30.9c-3.5,0.1-5.2,0.1-8.7,0.2
		c-3.9-6.4-7.9-12.8-11.9-19.2c0,0-0.1,0-0.1,0c0.1,6.5,0.2,13.1,0.3,19.6c-3,0.1-4.5,0.2-7.6,0.3
		C-215.1-435.4-215.3-445.7-215.5-456"/>
</g>
<g id="g660" transform="translate(408.3658,529.7914)">
	<path id="path662" inkscape:connector-curvature="0" class="st6" d="M-208.7-457.9c3.1,0,4.6-0.1,7.6-0.1c0,10.3,0.1,20.6,0.1,30.9
		c-3,0-4.5,0-7.6,0.1C-208.6-437.3-208.6-447.6-208.7-457.9"/>
</g>
<g id="g664" transform="translate(426.7952,524.705)">
	<path id="path666" inkscape:connector-curvature="0" class="st6" d="M-204.1-446.4c-3.9,0-5.9,0-9.8,0c0-2.6,0-3.9,0-6.5
		c9.1,0,18.3,0.1,27.4,0.2c0,2.6,0,3.9-0.1,6.5c-3.9-0.1-5.9-0.1-9.8-0.2c0,8.1-0.1,16.3-0.1,24.4c-3,0-4.5-0.1-7.6-0.1
		C-204.1-430.1-204.1-438.3-204.1-446.4"/>
</g>
<g id="g668" transform="translate(445.2466,529.5983)">
	<path id="path670" inkscape:connector-curvature="0" class="st6" d="M-199.5-457.4c6.9,0.2,13.8,0.5,20.7,0.8
		c0,2.6-0.1,3.9-0.1,6.5c-5.2-0.2-7.8-0.3-13-0.5c0,2.2,0,3.4-0.1,5.6c4.2,0.1,6.4,0.2,10.6,0.4c0,2.6-0.1,3.9-0.1,6.5
		c-4.2-0.2-6.3-0.3-10.6-0.4c0,2.3,0,3.5-0.1,5.8c5.4,0.2,8.1,0.3,13.5,0.6c0,2.6-0.1,3.9-0.1,6.5c-7-0.3-14-0.6-21.1-0.8
		C-199.7-436.8-199.6-447.1-199.5-457.4"/>
</g>
<g id="g672" transform="translate(466.4559,528.8118)">
	<path id="path674" inkscape:connector-curvature="0" class="st6" d="M-194.2-455.6c12.4-0.1,27.9,1.2,27.8,17.2
		c-0.9,16-16.5,15-28.5,13.7C-194.6-435.1-194.4-445.4-194.2-455.6 M-182.9-430.6c12.7,0.6,12.1-20.2-3.8-18.2
		c-0.1,6-0.3,11.9-0.4,17.9C-185.4-430.8-184.6-430.7-182.9-430.6"/>
</g>
<g id="g676" transform="translate(303.6359,557.6895)">
	<path id="path678" inkscape:connector-curvature="0" class="st6" d="M-234.9-520.6c4-0.5,6-0.7,9.9-1.2c1.8,8.8,3.6,17.5,5.4,26.3
		c0,0,0.1,0,0.1,0c2-9.2,4.1-18.4,6.1-27.6c3.4-0.4,5.1-0.5,8.6-0.9c2,8.8,4,17.5,6,26.3c0,0,0.1,0,0.1,0c1.9-9.1,3.9-18.3,5.8-27.4
		c3.9-0.3,5.9-0.5,9.8-0.8c-3.3,13.2-6.5,26.4-9.8,39.6c-4.6,0.4-6.9,0.6-11.5,1.1c-1.6-7.4-3.1-14.8-4.7-22.2c0,0-0.1,0-0.1,0
		c-1.6,7.7-3.1,15.5-4.7,23.2c-4.6,0.5-7,0.8-11.6,1.3C-228.6-495.5-231.8-508.1-234.9-520.6"/>
</g>
<g id="g680" transform="translate(503.4394,561.5257)">
	<path id="path682" inkscape:connector-curvature="0" class="st6" d="M-184.9-529.3c4.3,0.4,6.4,0.6,10.7,1c2.8,8.3,5.6,16.6,8.4,25
		c0,0,0.1,0,0.1,0c2.8-7.7,5.6-15.5,8.4-23.2c4.2,0.5,6.3,0.7,10.5,1.2c2.3,13.2,4.6,26.4,7,39.6c-3.9-0.5-5.9-0.7-9.8-1.2
		c-1.1-8.6-2.3-17.3-3.4-25.9c0,0-0.1,0-0.1,0c-2.8,8.2-5.5,16.4-8.3,24.6c-3.4-0.4-5.1-0.5-8.6-0.9c-2.8-8.8-5.7-17.5-8.5-26.3
		c0,0-0.1,0-0.1,0c-1,8.4-2,16.8-3,25.2c-4-0.4-6-0.5-10-0.8C-189.3-503.8-187.1-516.5-184.9-529.3"/>
</g>
<g id="g684" transform="translate(348.1021,562.1424)">
	<path id="path686" inkscape:connector-curvature="0" class="st6" d="M-223.8-530.6c8.7-0.7,17.5-1.2,26.2-1.7
		c-0.2,3.3-0.3,4.9-0.5,8.2c-5.4,0.3-10.8,0.6-16.2,1c0,2.8,0,4.2,0,7.1c5.3-0.4,7.9-0.5,13.2-0.8v8.1c-5.3,0.3-7.9,0.5-13.2,0.8
		c0,2.9,0,4.4,0,7.3c5.7-0.4,11.3-0.7,17-1c0,3.3,0,4.9,0,8.1c-8.8,0.5-17.7,1.1-26.5,1.7C-223.8-504.8-223.8-517.7-223.8-530.6"/>
</g>
<g id="g688" transform="translate(404.7676,558.2393)">
	<path id="path690" inkscape:connector-curvature="0" class="st6" d="M-209.6-521.9c-4.9,0.1-7.4,0.1-12.3,0.3c0-3.3,0-4.9,0-8.1
		c11.3-0.3,22.7-0.4,34-0.4c0,3.3,0,4.9,0,8.1c-4.9,0-7.4,0-12.3,0c0,10.2,0,20.4,0,30.6c-3.8,0-5.7,0.1-9.5,0.1
		C-209.6-501.4-209.6-511.6-209.6-521.9"/>
</g>
<g id="g692" transform="translate(434.8196,564.8118)">
	<path id="path694" inkscape:connector-curvature="0" class="st6" d="M-202.1-536.6c3.8,0,5.7,0.1,9.5,0.2v15.5
		c5.5,0.1,11,0.3,16.5,0.5V-536c3.8,0.1,5.7,0.2,9.5,0.4v38.8c-3.8-0.2-5.7-0.2-9.5-0.4v-15.2c-5.5-0.2-11-0.3-16.5-0.5v15.2
		c-3.8-0.1-5.7-0.1-9.5-0.2C-202.1-510.8-202.1-523.7-202.1-536.6"/>
</g>
<g id="g696" transform="translate(485.9738,538.2667)">
	<path id="path698" inkscape:connector-curvature="0" class="st6" d="M-189.3-476.9c-5.2-0.4-7.8-0.5-13-0.8c-0.9,3.2-1.4,4.8-2.3,8
		c-3.9-0.2-5.9-0.3-9.8-0.5c3.9-12.7,7.8-25.5,11.8-38.2c5.1,0.3,7.7,0.4,12.8,0.8c4.2,13.2,8.5,26.5,12.7,39.7
		c-3.9-0.3-5.9-0.5-9.8-0.7C-187.9-471.9-188.4-473.6-189.3-476.9 M-195.9-499.1c-1.4,4.6-2.8,9.3-4.3,14c3.4,0.2,5.2,0.3,8.6,0.5
		c-1.4-4.8-2.8-9.7-4.2-14.5C-195.8-499.1-195.8-499.1-195.9-499.1"/>
</g>
<g id="g700" transform="translate(383.4326,564.7022)">
	<path id="path702" inkscape:connector-curvature="0" class="st6" d="M-214.9-536.4c-7.1,0.3-15.1,4.6-15.2,12.6
		c-0.1,12.2,18.2,8.9,19.3,15.5c-1.3,6.6-13.1,2.3-17.1,0.4c-0.2,3.3-0.4,5.1-0.5,8.1c9.3,6.3,27.1,4.6,28.1-9.1
		c0.1-12.1-18-9.3-19.3-15.6c0.2-5.7,12.5-2.8,14.7-1.5c0.2-3.9,0.3-4.4,0.5-8.2C-206.6-535.3-210-536.6-214.9-536.4"/>
</g>
<path id="path706" inkscape:connector-curvature="0" class="st6" d="M160.4,348.7l4.6,2l-6.5,14.9l7.7,3.4l-1.7,4l-12.3-5.4
	L160.4,348.7z"/>
<g id="g710">
	<g id="g716" transform="translate(395.1716,301.9067)">
		<path id="path718" inkscape:connector-curvature="0" class="st6" d="M-212,54.9c13.8,3.4,7.7,24.5-5.6,20.5
			C-231.2,72-225.6,50.8-212,54.9 M-216.4,71c6.8,2.1,10.3-9.9,3.2-11.6C-220.2,57.2-223.3,69.3-216.4,71"/>
	</g>
	<g id="g720" transform="translate(405.1137,299.1871)">
		<path id="path722" inkscape:connector-curvature="0" class="st6" d="M-209.5,61l5.1,0.5c1,2.2,5.7,12,6.1,13.8l0.1,0
			c-0.2-1.6,0.9-11,1.1-13.1l5,0.5l-2.1,20.5l-5-0.5c-1-2.1-5.8-12-6.1-13.8l-0.1,0c0.2,1.6-0.9,11-1.1,13.1l-5-0.5L-209.5,61z"/>
	</g>
	<g id="g724" transform="translate(421.8036,297.7333)">
		<path id="path726" inkscape:connector-curvature="0" class="st6" d="M-205.3,64.3c7.9-0.9,18.2-1.2,18.5,9.3
			c0.9,10.4-9.4,11.4-17.4,11.3L-205.3,64.3z M-197.4,80.1c8.8-0.7,6-14.4-2.7-11.8l0.6,11.9C-199.4,80.3-197.4,80.1-197.4,80.1z"/>
	</g>
	<g id="g728" transform="translate(445.1891,300.6405)">
		<path id="path730" inkscape:connector-curvature="0" class="st6" d="M-199.5,57.7c13.8-3.4,18.3,18.1,4.6,20.8
			C-208.5,81.9-213.4,60.4-199.5,57.7 M-195.9,74c7-1.3,4.5-13.6-2.6-11.8C-205.7,63.6-202.8,75.8-195.9,74"/>
	</g>
	<g id="g732" transform="translate(455.2419,302.8535)">
		<path id="path734" inkscape:connector-curvature="0" class="st6" d="M-197,52.8l4.7-1.9c1.9,1.5,10.7,7.9,11.8,9.4l0.1,0
			c-0.9-1.4-4.3-10.2-5.1-12.1l4.7-1.9l7.7,19.1l-4.7,1.9c-1.9-1.4-10.7-7.9-11.8-9.4l-0.1,0c0.9,1.4,4.3,10.1,5.1,12.1l-4.7,1.9
			L-197,52.8z"/>
	</g>
</g>
</svg>
