<?xml version="1.0" encoding="utf-8"?>
<!-- Generator: Adobe Illustrator 22.1.0, SVG Export Plug-In . SVG Version: 6.00 Build 0)  -->
<svg version="1.1" id="Capa_1" xmlns="http://www.w3.org/2000/svg" xmlns:xlink="http://www.w3.org/1999/xlink" x="0px" y="0px"
	 viewBox="0 0 612.283 612.283" enable-background="new 0 0 612.283 612.283" xml:space="preserve">
<g>
	<path fill="#231F1C" d="M129.687,17.802c2.233-2.833,3.864-6.267,6.783-8.587c3.778,1.461,7.042,3.95,10.647,5.754
		c5.926,2.919,11.851,5.838,17.775,8.844c38.64,18.205,80.886,28.851,123.562,31.17c8.329,1.03,16.658,0.429,24.987,0.601
		c6.354,0.257,12.622-0.859,18.89-0.945c29.71-2.233,58.991-8.587,87.07-18.548c16.573-5.753,32.456-13.309,47.998-21.467
		c3.092-1.888,6.097-3.949,9.189-5.838c4.806,6.011,9.101,12.366,13.652,18.548c19.92,27.82,39.24,56.156,57.272,85.265
		c1.116,2.06,3.265,5.066,0.944,7.127c-7.983,8.931-15.627,18.376-22.154,28.507c-10.131,15.628-16.056,33.747-17.429,52.292
		c-0.772,5.496-0.772,11.163,0,16.66c1.459,17.859,6.267,35.462,15.368,51.003c6.87,11.508,15.372,22.328,26.018,30.569
		c11.592,9.787,25.331,16.831,39.669,21.465c0,12.111,0,24.303,0,36.408c-2.06,7.47-2.317,15.286-4.035,22.842
		c-2.66,13.137-6.698,25.932-11.592,38.384c-5.925,13.739-13.741,26.788-23.698,38.038c-6.01,6.012-11.68,12.45-18.548,17.516
		c-11.334,8.417-23.527,15.97-36.923,20.695c-21.208,7.554-42.16,15.883-62.941,24.555c-13.823,6.183-27.818,11.851-41.212,18.891
		c-26.363,13.48-49.976,31.943-70.068,53.582c-4.036,3.862-7.042,8.588-11.077,12.364c-2.404-0.772-3.779-3.09-5.324-4.892
		c-5.409-6.614-11.334-12.71-17.516-18.549c-13.224-11.935-27.22-23.096-42.762-31.943c-6.611-3.778-13.224-7.73-20.351-10.648
		c-32.028-15.284-64.828-28.764-98.232-40.787c-6.611-2.401-13.394-4.72-19.748-7.726c-15.971-8.075-30.569-18.804-42.418-32.287
		c-6.956-8.414-13.566-17.346-18.289-27.303c-9.875-19.579-16.659-40.787-19.835-62.597c-1.46-8.501-1.374-17.176-3.005-25.591
		c0-4.035,0-8.155,0-12.192c0.686-3.09,1.116-6.181,2.489-9.017c1.89-1.116,4.036-1.804,6.098-2.576
		c7.298-2.746,14.254-6.614,20.952-10.734c20.436-14.424,36.921-34.689,45.767-58.13c6.868-16.057,7.384-34.004,6.011-51.177
		c-3.005-25.503-13.653-50.233-31.17-69.122c-2.919-3.865-6.869-6.87-9.702-10.82c3.949-7.213,8.93-13.996,13.223-21.123
		C93.451,69.837,110.969,43.39,129.687,17.802 M136.813,13.68c-22.325,30.569-43.619,62.082-64.056,94.024
		c-1.803,3.263-4.464,6.097-5.839,9.617c1.719,2.576,4.208,4.551,6.355,6.698c19.921,21.122,32.372,49.287,34.088,78.396
		c0,5.754,0,11.42,0,17.173c-0.773,14.683-5.066,29.111-12.021,42.074c-3.005,6.698-7.213,12.708-11.42,18.635
		c-10.39,13.651-23.099,25.76-38.297,33.831c-5.839,3.778-12.708,5.409-18.804,8.76c-0.515,6.181,0,12.45-0.171,18.631
		c-0.344,6.269,0.773,12.452,1.116,18.719c2.233,17.26,6.268,34.432,12.88,50.575c6.355,15.713,13.996,31.341,25.76,43.793
		c12.366,14.424,28.251,25.672,45.596,33.316c13.566,5.666,27.563,10.045,41.13,15.629c16.229,6.009,32.114,12.963,48.085,19.834
		c9.702,4.55,19.663,8.672,29.194,13.654c15.199,7.297,29.539,16.399,42.761,26.788c5.495,4.81,11.506,9.101,16.486,14.426
		c5.582,5.924,11.764,11.163,16.744,17.601c0.946,1.032,1.89,2.405,3.435,2.405c2.92-2.832,5.581-6.009,8.244-9.185
		c24.472-26.277,54.182-47.83,87.239-62.083c29.453-13.394,59.42-25.501,89.816-36.408c15.114-6.009,29.367-14.51,41.474-25.5
		c7.041-5.583,12.621-12.622,18.118-19.665c8.844-11.508,15.455-24.557,20.094-38.296c5.58-16.486,9.616-33.576,10.989-51.004
		c1.116-7.385,0.603-14.857,0.687-22.327c0-3.606,0.257-7.299-0.17-10.903c-3.006-1.974-6.614-2.493-9.79-4.038
		c-13.995-6.267-27.047-14.853-37.522-26.017c-9.015-8.5-15.715-19.148-21.467-30.055c-6.012-13.05-10.219-27.133-11.592-41.473
		c0-4.293-0.603-8.586-0.86-12.88c0.774-5.667,0.601-11.507,1.547-17.173c2.66-17.346,9.272-34.09,19.403-48.429
		c5.756-9.187,12.969-17.259,20.094-25.416c-4.892-9.617-11.506-18.29-17-27.65c-17.088-25.931-34.863-51.434-53.323-76.421
		c-12.195,7.643-25.245,13.739-38.47,19.32C404.633,46.309,369.77,54.982,334.392,57.73c-4.808,0.688-9.616,0.171-14.425,0.859
		c-5.323,0.773-10.647,0.258-15.971,0.43c-3.778,0.085-7.557,0-11.335-0.601c-50.747-1.89-100.893-16.058-145.715-39.843
		C143.598,16.858,140.506,14.368,136.813,13.68L136.813,13.68z"/>
	<path fill="#FDFDFD" d="M136.813,13.68c3.693,0.687,6.785,3.178,10.133,4.894c44.823,23.785,94.968,37.953,145.715,39.843
		c3.778,0.601,7.557,0.686,11.335,0.601c5.324-0.172,10.648,0.343,15.971-0.43c4.809-0.687,9.617-0.171,14.425-0.859
		c35.378-2.748,70.24-11.421,102.953-25.073c13.225-5.581,26.275-11.677,38.47-19.32c18.461,24.988,36.236,50.49,53.323,76.421
		c5.494,9.36,12.107,18.033,17,27.65c-7.125,8.157-14.338,16.229-20.094,25.416c-10.131,14.339-16.743,31.083-19.403,48.429
		c-0.946,5.666-0.774,11.506-1.547,17.173c0.257,4.294,0.86,8.587,0.86,12.88c1.373,14.34,5.58,28.423,11.592,41.473
		c5.752,10.907,12.452,21.555,21.467,30.055c10.476,11.163,23.527,19.749,37.522,26.017c3.177,1.545,6.784,2.064,9.79,4.038
		c0.427,3.604,0.17,7.297,0.17,10.903c-0.084,7.47,0.429,14.941-0.687,22.327c-1.373,17.429-5.409,34.518-10.989,51.004
		c-4.639,13.739-11.249,26.788-20.094,38.296c-5.497,7.042-11.077,14.081-18.118,19.665c-12.107,10.989-26.361,19.491-41.474,25.5
		c-30.395,10.907-60.362,23.014-89.816,36.408c-33.057,14.254-62.767,35.807-87.239,62.083c-2.663,3.177-5.324,6.353-8.244,9.185
		c-1.545,0-2.489-1.373-3.435-2.405c-4.98-6.438-11.162-11.677-16.744-17.601c-4.98-5.325-10.991-9.616-16.486-14.426
		c-13.223-10.39-27.563-19.491-42.761-26.788c-9.531-4.982-19.492-9.105-29.194-13.654c-15.971-6.87-31.856-13.825-48.085-19.834
		c-13.567-5.583-27.564-9.963-41.13-15.629c-17.345-7.644-33.23-18.891-45.596-33.316c-11.764-12.452-19.405-28.08-25.76-43.793
		c-6.612-16.144-10.647-33.316-12.88-50.575c-0.343-6.267-1.459-12.45-1.116-18.719c0.171-6.181-0.344-12.45,0.171-18.631
		c6.096-3.351,12.965-4.982,18.804-8.76c15.198-8.071,27.907-20.18,38.297-33.831c4.207-5.926,8.415-11.937,11.42-18.635
		c6.955-12.963,11.248-27.391,12.021-42.074c0-5.753,0-11.419,0-17.173c-1.717-29.109-14.168-57.274-34.088-78.396
		c-2.147-2.147-4.637-4.123-6.355-6.698c1.375-3.52,4.036-6.354,5.839-9.617C93.194,75.762,114.488,44.249,136.813,13.68
		 M136.126,24.242c-19.491,27.649-38.811,55.384-56.757,84.063c-1.546,2.662-4.036,4.98-4.638,8.156
		c1.889,2.92,4.294,5.41,6.698,7.987c24.901,28.421,36.063,68.006,30.826,105.273c-1.631,15.026-8.502,28.764-15.628,41.903
		c-4.638,7.213-9.274,14.51-15.199,20.779c-5.582,5.237-10.648,11.162-16.83,15.799c-7.557,6.269-16.143,11.161-25.073,15.198
		c-2.232,0.944-4.465,1.719-6.525,3.006c-0.6,3.948-1.374,7.987-0.773,12.021c0.859,5.582,0,11.334,0.945,17.002
		c2.489,26.018,10.217,51.518,22.754,74.531c4.809,8.586,10.905,16.4,17.346,23.786c4.035,4.636,8.93,8.329,13.566,12.193
		c10.733,8.672,23.183,14.938,36.064,19.663c17.517,6.355,34.69,13.48,52.036,20.178c18.289,7.9,36.837,15.37,54.61,24.385
		c26.619,12.279,50.661,29.884,71.269,50.663c2.92,2.918,5.238,6.438,8.33,9.187c3.178-2.664,5.666-6.011,8.414-9.103
		c16.744-17.603,35.98-32.973,57.1-45.078c15.887-9.189,32.802-16.145,49.547-23.529c14.166-5.924,28.249-11.851,42.589-17.43
		c16.057-6.784,32.973-11.678,47.912-20.779c8.245-5.239,16.402-10.905,23.012-18.204c7.385-6.782,13.654-14.684,18.805-23.27
		c5.239-8.672,8.932-18.032,13.053-27.305c1.631-4.98,3.006-10.133,4.55-15.2c3.092-11.42,4.724-23.183,6.183-34.945
		c0.429-4.209-0.172-8.415,0.515-12.624c0.946-4.894-0.515-9.79-0.429-14.769c0.257-1.373-0.86-1.888-1.976-2.233
		c-43.018-16.659-74.874-59.075-78.48-105.188c-0.687-12.965-0.257-26.188,2.918-38.895c5.411-24.644,19.665-46.369,36.41-64.916
		c-1.463-3.177-3.781-5.924-5.583-8.93c-12.364-20.092-25.93-39.327-39.07-58.904c-5.151-7.127-10.304-14.34-15.37-21.467
		c-1.63-2.233-2.918-4.723-5.239-6.096c-2.832,1.03-5.323,2.747-7.897,4.206c-5.84,3.607-12.364,6.011-18.635,8.931
		c-21.467,9.789-43.962,17.173-66.974,22.239c-14.684,3.693-29.796,5.152-44.737,6.956c-9.703,1.459-19.492,0.171-29.196,0.944
		c-9.187-0.773-18.375,0.429-27.563-0.86c-45.337-3.52-89.816-16.572-130.088-37.522c-3.263-1.632-6.182-4.036-9.703-4.894
		C137.845,21.752,137.072,23.126,136.126,24.242L136.126,24.242z"/>
	<path fill="#231F1C" d="M136.126,24.242c0.946-1.116,1.719-2.49,3.092-3.091c3.521,0.858,6.44,3.262,9.703,4.894
		c40.271,20.951,84.751,34.003,130.088,37.522c9.188,1.289,18.375,0.087,27.563,0.86c9.703-0.773,19.492,0.515,29.196-0.944
		c14.941-1.805,30.053-3.264,44.737-6.956c23.012-5.066,45.507-12.45,66.974-22.239c6.271-2.921,12.795-5.324,18.635-8.931
		c2.574-1.459,5.065-3.176,7.897-4.206c2.321,1.373,3.609,3.863,5.239,6.096c5.066,7.127,10.219,14.34,15.37,21.467
		c13.139,19.577,26.706,38.812,39.07,58.904c1.802,3.005,4.121,5.753,5.583,8.93c-16.745,18.548-30.999,40.272-36.41,64.916
		c-3.175,12.708-3.606,25.93-2.918,38.895c3.606,46.112,35.462,88.529,78.48,105.188c1.116,0.345,2.233,0.86,1.976,2.233
		c-0.086,4.979,1.375,9.875,0.429,14.769c-0.687,4.209-0.086,8.415-0.515,12.624c-1.459,11.763-3.091,23.525-6.183,34.945
		c-1.543,5.066-2.918,10.219-4.55,15.2c-4.121,9.273-7.814,18.633-13.053,27.305c-5.151,8.586-11.42,16.488-18.805,23.27
		c-6.61,7.299-14.767,12.965-23.012,18.204c-14.939,9.101-31.855,13.995-47.912,20.779c-14.34,5.58-28.423,11.506-42.589,17.43
		c-16.745,7.384-33.66,14.34-49.547,23.529c-21.12,12.105-40.356,27.476-57.1,45.078c-2.748,3.092-5.236,6.44-8.414,9.103
		c-3.092-2.75-5.41-6.269-8.33-9.187c-20.608-20.779-44.65-38.384-71.269-50.663c-17.773-9.015-36.321-16.485-54.61-24.385
		c-17.346-6.698-34.519-13.823-52.036-20.178c-12.881-4.726-25.331-10.991-36.064-19.663c-4.637-3.864-9.531-7.558-13.566-12.193
		c-6.441-7.385-12.537-15.2-17.346-23.786c-12.536-23.014-20.264-48.513-22.754-74.531c-0.945-5.668-0.086-11.42-0.945-17.002
		c-0.601-4.035,0.172-8.073,0.773-12.021c2.06-1.287,4.294-2.062,6.525-3.006c8.931-4.036,17.517-8.929,25.073-15.198
		c6.182-4.638,11.248-10.562,16.83-15.799c5.924-6.269,10.561-13.566,15.199-20.779c7.126-13.139,13.996-26.878,15.628-41.903
		c5.237-37.267-5.925-76.851-30.826-105.273c-2.404-2.576-4.809-5.067-6.698-7.987c0.601-3.176,3.091-5.495,4.638-8.156
		C97.315,79.627,116.636,51.891,136.126,24.242 M134.496,36.349c-10.218,14.168-20.093,28.68-29.711,43.277
		C98.345,89.5,91.562,99.118,85.38,109.164c-1.288,2.146-3.178,3.95-3.779,6.44c2.061,3.52,5.152,6.353,7.643,9.617
		c17.259,21.982,27.906,49.201,29.537,77.109c0.859,6.096,0.945,12.193,0.086,18.29c-0.6,8.155-1.374,16.485-4.122,24.213
		c-3.09,10.047-7.641,19.579-12.622,28.852c-8.415,13.652-18.375,26.616-31.083,36.578c-5.238,4.381-10.648,8.415-16.401,11.933
		c-5.323,3.178-11.162,5.411-16.572,8.501c-1.03,8.932,0.171,17.947,0.944,26.792c2.147,20.952,7.9,41.474,16.915,60.452
		c5.495,10.817,11.763,21.465,20.265,30.309c3.178,4.293,7.471,7.385,11.248,11.075c6.956,5.924,14.769,10.648,22.754,15.029
		c7.987,3.776,16.402,6.522,24.644,9.702c33.831,12.107,66.804,26.359,99.348,41.474c8.844,4.377,17.173,9.699,25.674,14.767
		c10.733,7.299,21.553,14.853,31.083,23.699c6.613,5.239,12.022,11.763,18.205,17.344c8.587-7.812,15.971-16.829,25.158-23.956
		c9.189-7.985,19.148-14.857,29.195-21.551c21.637-13.654,45.509-23.272,68.95-33.233c18.376-7.554,36.753-15.026,55.299-21.98
		c14.596-5.409,28.68-12.795,40.184-23.271c6.87-5.237,12.109-12.107,17.346-18.805c6.011-7.899,10.905-16.571,14.597-25.758
		c7.299-17.605,12.279-36.151,14.34-55.129c0.603-9.015,1.89-18.03,0.86-26.962c-16.057-6.696-31.342-16.14-43.363-28.848
		c-17.174-16.659-29.023-38.555-34.346-61.825c-6.698-26.876-4.036-55.899,6.78-81.402c4.898-11.764,11.937-22.582,19.581-32.715
		c2.403-3.348,5.409-6.096,7.556-9.531c-1.116-3.521-3.693-6.354-5.582-9.445c-16.402-26.275-34.005-51.778-51.694-77.109
		c-0.944-1.717-3.004-0.515-4.293,0c-8.5,4.121-16.743,8.759-25.5,12.365c-38.298,16.487-79.6,26.103-121.331,27.993
		c-11.42,0-22.926,0-34.347,0c-31.77-1.89-63.455-7.643-93.508-18.119c-15.8-5.152-31.169-11.677-45.853-19.405
		c-3.005-1.289-5.753-3.435-9.016-3.778C137.845,31.112,136.384,33.859,134.496,36.349L134.496,36.349z"/>
	<path fill="#FDFDFD" d="M134.496,36.349c1.888-2.49,3.349-5.238,5.667-7.47c3.263,0.343,6.011,2.489,9.016,3.778
		c14.684,7.728,30.053,14.254,45.853,19.405c30.054,10.476,61.738,16.229,93.508,18.119c11.421,0,22.927,0,34.347,0
		c41.731-1.89,83.033-11.506,121.331-27.993c8.756-3.606,17-8.243,25.5-12.365c1.289-0.515,3.349-1.717,4.293,0
		c17.689,25.331,35.292,50.834,51.694,77.109c1.888,3.09,4.465,5.924,5.582,9.445c-2.146,3.435-5.153,6.183-7.556,9.531
		c-7.644,10.133-14.683,20.952-19.581,32.715c-10.817,25.503-13.478,54.526-6.78,81.402c5.323,23.27,17.172,45.166,34.346,61.825
		c12.021,12.708,27.305,22.152,43.363,28.848c1.03,8.932-0.257,17.947-0.86,26.962c-2.06,18.978-7.041,37.524-14.34,55.129
		c-3.692,9.187-8.586,17.859-14.597,25.758c-5.237,6.698-10.476,13.568-17.346,18.805c-11.504,10.476-25.588,17.861-40.184,23.271
		c-18.547,6.954-36.923,14.426-55.299,21.98c-23.441,9.961-47.313,19.579-68.95,33.233c-10.047,6.694-20.006,13.567-29.195,21.551
		c-9.187,7.127-16.571,16.144-25.158,23.956c-6.183-5.582-11.592-12.105-18.205-17.344c-9.53-8.846-20.35-16.4-31.083-23.699
		c-8.501-5.068-16.829-10.39-25.674-14.767c-32.544-15.115-65.518-29.367-99.348-41.474c-8.242-3.18-16.658-5.926-24.644-9.702
		c-7.985-4.381-15.798-9.105-22.754-15.029c-3.778-3.69-8.071-6.782-11.248-11.075c-8.502-8.844-14.77-19.493-20.265-30.309
		c-9.015-18.978-14.768-39.5-16.915-60.452c-0.773-8.844-1.974-17.859-0.944-26.792c5.409-3.09,11.248-5.323,16.572-8.501
		c5.753-3.518,11.163-7.552,16.401-11.933c12.708-9.963,22.668-22.926,31.083-36.578c4.981-9.273,9.532-18.805,12.622-28.852
		c2.748-7.728,3.521-16.057,4.122-24.213c0.859-6.097,0.773-12.194-0.086-18.29c-1.631-27.908-12.278-55.127-29.537-77.109
		c-2.491-3.264-5.582-6.097-7.643-9.617c0.601-2.49,2.49-4.294,3.779-6.44c6.182-10.046,12.965-19.663,19.405-29.537
		C114.403,65.029,124.278,50.517,134.496,36.349 M108.735,105.042c-1.803,2.834-3.95,5.41-5.324,8.415
		c-0.858,1.288,0.43,2.318,1.116,3.348c5.926,7.471,10.82,15.714,15.37,24.129c3.865,8.673,7.987,17.344,10.391,26.532
		c6.784,23.27,8.243,48.086,3.692,71.87c-2.06,11.336-6.353,22.154-11.162,32.63c-12.279,24.643-30.912,45.938-53.752,61.396
		c-4.294,3.433-9.36,5.494-13.996,8.412c-0.344,3.351,0.6,6.698,0.773,10.047c1.717,21.723,8.157,42.847,17.431,62.424
		c3.863,7.987,9.359,15.029,15.284,21.639c2.404,3.264,5.409,6.012,8.672,8.586c9.446,8.674,20.952,14.855,32.973,19.322
		c29.625,11.075,59.076,22.84,88.014,35.548c14.253,6.355,28.679,12.45,41.989,20.693c14.94,8.674,28.765,19.15,41.817,30.397
		c2.576,2.147,4.464,5.239,7.727,6.441c22.755-22.93,50.147-40.959,79.255-54.786c29.538-12.963,59.42-25.245,89.645-36.492
		c6.953-2.66,14.08-4.979,20.435-8.844c6.698-3.95,13.31-8.245,18.978-13.653c4.808-4.982,10.045-9.53,13.911-15.37
		c5.151-6.353,8.67-13.909,12.105-21.293c8.243-20.523,12.967-42.422,13.825-64.488c-2.491-1.717-5.151-3.006-7.728-4.463
		c-10.903-6.185-20.952-13.739-29.622-22.755c-24.389-24.042-39.414-56.929-42.934-90.848c0.086-7.556-2.06-15.026-0.517-22.497
		c0.689-13.48,3.091-26.962,7.728-39.67c3.778-12.364,10.045-23.699,17.003-34.519c2.746-4.292,6.097-8.156,8.757-12.536
		c-1.373-3.349-3.69-6.182-5.752-9.187c-10.135-15.971-21.21-31.428-31.858-47.14c-1.716-2.49-3.177-5.582-5.836-7.128
		c-3.351,0.945-6.355,3.006-9.532,4.294c-22.753,9.703-46.198,18.032-70.497,23.012c-17.944,4.379-36.406,6.526-54.782,8.072
		c-12.279,1.459-24.644,0.43-36.923,0.773c-5.753,0.344-11.42-0.944-17.173-0.944c-45.853-3.521-91.018-15.8-132.406-36.064
		C133.379,68.463,120.843,86.667,108.735,105.042L108.735,105.042z"/>
	<path fill="#231F1C" d="M108.735,105.042c12.108-18.375,24.644-36.579,37.094-54.696c41.388,20.264,86.554,32.543,132.406,36.064
		c5.753,0,11.42,1.288,17.173,0.944c12.279-0.343,24.644,0.686,36.923-0.773c18.376-1.545,36.839-3.693,54.782-8.072
		c24.299-4.98,47.743-13.309,70.497-23.012c3.177-1.288,6.181-3.349,9.532-4.294c2.66,1.546,4.121,4.638,5.836,7.128
		c10.648,15.713,21.724,31.169,31.858,47.14c2.062,3.005,4.379,5.838,5.752,9.187c-2.66,4.38-6.011,8.244-8.757,12.536
		c-6.958,10.82-13.225,22.155-17.003,34.519c-4.638,12.708-7.039,26.19-7.728,39.67c-1.543,7.472,0.603,14.941,0.517,22.497
		c3.519,33.919,18.545,66.805,42.934,90.848c8.67,9.017,18.719,16.571,29.622,22.755c2.577,1.457,5.237,2.746,7.728,4.463
		c-0.858,22.066-5.582,43.966-13.825,64.488c-3.435,7.383-6.955,14.939-12.105,21.293c-3.866,5.84-9.103,10.388-13.911,15.37
		c-5.668,5.408-12.279,9.702-18.978,13.653c-6.355,3.866-13.482,6.185-20.435,8.844c-30.225,11.248-60.107,23.529-89.645,36.492
		c-29.109,13.827-56.5,31.857-79.255,54.786c-3.263-1.202-5.152-4.295-7.727-6.441c-13.052-11.248-26.877-21.723-41.817-30.397
		c-13.31-8.243-27.736-14.338-41.989-20.693c-28.937-12.708-58.389-24.473-88.014-35.548c-12.021-4.467-23.527-10.648-32.973-19.322
		c-3.263-2.574-6.268-5.322-8.672-8.586c-5.925-6.61-11.421-13.652-15.284-21.639c-9.274-19.577-15.714-40.701-17.431-62.424
		c-0.172-3.349-1.116-6.696-0.773-10.047c4.637-2.918,9.702-4.979,13.996-8.412c22.841-15.458,41.474-36.752,53.752-61.396
		c4.809-10.476,9.102-21.294,11.162-32.63c4.551-23.784,3.092-48.6-3.692-71.87c-2.404-9.188-6.526-17.859-10.391-26.532
		c-4.551-8.415-9.444-16.658-15.37-24.129c-0.687-1.03-1.974-2.06-1.116-3.348C104.785,110.452,106.932,107.876,108.735,105.042
		 M143.425,66.746c0.086,25.76-0.086,51.52,0,77.28c3.692,0.086,7.471,0.086,11.163,0c0.085-26.361-0.086-52.722,0.085-78.997
		c-0.085-1.374-0.085-2.662-0.343-3.95c-2.062-1.288-4.209-2.404-6.526-3.006C145.572,60.478,143.254,63.311,143.425,66.746
		 M330.614,92.506c-6.354-0.343-12.535,1.202-18.89,0.859c-6.956-0.171-13.91,0.515-20.78-0.515
		c-5.065-0.686-10.131-0.344-15.283-0.344c0,52.122,0,104.156,0,156.279c3.348,0,6.697,0.343,9.96-0.258
		c2.147-7.129,6.183-15.027,13.91-17.26c2.576-0.86,5.067-2.233,7.901-2.233c4.722-0.343,9.616,0.515,14.339-0.343
		c2.92-1.461,5.324-3.95,8.243-5.411c5.066-2.489,10.219-5.065,14.855-8.328c2.575-1.803,1.717-5.323,2.405-7.9
		c1.202-1.288,4.121-1.46,3.948-3.606c-5.58-2.835-11.763-4.809-18.032-5.41c-3.52-0.344-5.496-4.208-5.496-7.471
		c-0.859-3.263,1.118-6.784-0.171-9.874c-5.238-1.117-11.248-2.405-14.081-7.472c0.686-2.747,3.262-4.465,4.378-6.954
		c-0.343-2.834-3.176-5.925-1.116-8.673c3.607-3.864,7.557-7.384,10.562-11.764c3.521-4.465,3.264-10.562,5.925-15.541
		c2.405-4.723,4.379-10.218,9.103-13.224c5.066-3.178,2.661-11.335,8.071-14.254c3.607-2.319,7.987-1.631,12.021-1.202
		c5.409-0.516,10.907-0.601,16.314-0.601c5.668-0.344,10.905,2.232,16.23,3.692c5.583,1.632,8.329,7.042,12.278,10.819
		c6.097,5.667,6.613,14.684,6.786,22.498c0.343,4.207-2.06,7.899-2.665,12.021c-1.03,6.439-4.463,12.021-7.039,17.945
		c-1.202,2.834-3.606,4.809-5.325,7.385c-1.116,3.348-1.716,6.869-2.317,10.303c1.459,0.43,3.004,0.688,4.293,1.374
		c1.289,2.576,0.944,5.582,2.06,8.243c1.375,3.607,5.151,5.409,8.328,7.127c8.932,4.379,16.318,11.163,24.561,16.744
		c4.121,3.006,9.702,2.834,13.909,5.668c4.896,3.09,10.219,5.666,14.081,10.045c2.661,4.036,3.178,9.103,3.437,13.913
		c2.832,0,5.578,0,8.414,0c-2.319-9.018-4.036-18.119-4.551-27.393c-1.461-10.133-0.258-20.351,0.686-30.482
		c3.349-25.675,13.053-50.49,28.251-71.442c1.03-2.06,4.035-4.208,2.491-6.612c-2.233-3.949-5.151-7.557-7.385-11.506
		c-3.778-6.44-8.5-12.193-12.45-18.462c-4.722-7.041-9.79-13.738-14.424-20.779c-1.03-1.46-2.06-3.09-3.694-3.863
		C422.664,77.822,376.895,89.5,330.614,92.506 M176.141,70.009c-0.171,24.644-0.086,49.373-0.086,74.017
		c2.49,0,5.066,0.171,7.471-0.171c2.49-4.638,4.035-9.961,4.551-15.285c0.086-16.572-0.086-33.231,0.086-49.803
		c-0.086-1.631,0-3.177-0.344-4.809C183.954,72.584,180.091,71.211,176.141,70.009 M209.543,80.485
		c-0.086,16.057,0.086,32.029-0.086,48.085c-0.257,5.152,1.719,10.047,3.349,14.855c2.319,1.202,5.324,0.43,7.899,0.601
		c0.086-17.174-0.086-34.348,0-51.521c0-3.091,0.258-6.096-0.257-9.188C216.928,82.116,213.235,81.43,209.543,80.485
		 M242.172,88.127c0,18.634,0,37.266,0,55.9c4.036,0.086,7.986,0.086,12.022,0c0.086-16.659-0.087-33.231,0.086-49.803
		c-0.086-1.545-0.086-3.177-0.516-4.637C249.986,88.556,246.036,88.298,242.172,88.127 M113.887,107.618
		c-1.373,2.06-2.918,4.036-3.864,6.354c1.203,2.06,2.834,3.95,4.208,6.011c2.662,3.693,4.637,7.9,7.557,11.42
		c0.257-11.591,0.257-23.269,0-34.861C118.61,99.804,116.464,103.926,113.887,107.618 M195.031,121.786
		c-2.748,7.987-4.895,16.143-7.642,24.129c-0.515,0.773-0.687,2.489-1.975,2.318c-12.022,0.343-24.128-0.171-36.236,0.171
		c9.274,7.214,18.89,13.825,28.336,20.78c1.888,1.117,1.03,3.521,0.6,5.238c-2.747,8.158-5.495,16.315-8.156,24.473
		c-0.773,2.318-1.289,4.723-1.632,7.212c3.693-1.974,6.784-4.808,10.218-7.212c6.698-4.723,13.138-9.703,19.835-14.426
		c3.778,2.061,6.954,5.067,10.39,7.557c6.955,4.809,13.653,9.96,20.608,14.769c-3.607-11.335-7.643-22.497-10.905-33.918
		c-0.171-1.03-0.773-2.489,0.343-3.178c9.36-7.47,19.579-13.652,28.765-21.207c-11.849-0.43-23.612,0-35.462-0.173
		c-2.233,0.43-2.576-2.145-3.091-3.777c-2.233-8.844-5.924-17.26-8.244-26.104c-0.514-1.976-1.029-4.036-2.403-5.667
		C196.663,115.518,196.148,118.782,195.031,121.786 M243.374,156.391c-1.46,0.772-1.116,2.575-1.202,3.949
		c0.086,29.452-0.086,58.905,0,88.358c3.864,0,7.814,0.513,11.592-0.345c0.516-1.804,0.43-3.692,0.516-5.582
		c-0.26-31.256,0.171-62.597-0.26-93.852C250.416,151.238,246.808,153.729,243.374,156.391 M143.512,149.779
		c-0.258,32.973-0.086,65.945-0.086,99.005c3.692,0.084,7.471,0.084,11.163,0c0.085-29.539-0.086-58.992,0-88.444
		c0-1.031-0.086-2.061-0.257-3.091C150.981,154.416,147.462,151.668,143.512,149.779 M176.312,205.334
		c-0.343,1.545-0.257,3.178-0.343,4.809c0.171,12.88,0,25.759,0.085,38.641c4.036,0.084,7.986,0.084,12.021,0
		c-0.086-17.26,0.172-34.52-0.171-51.779C183.954,199.581,179.919,202.244,176.312,205.334 M209.543,197.177
		c0,17.174,0,34.347,0,51.607c3.693,0.084,7.471,0.084,11.162,0c0.086-12.882-0.086-25.761,0.086-38.641
		c-0.086-1.631,0-3.264-0.344-4.895C217.185,202.158,213.149,200.011,209.543,197.177 M347.187,261.319
		c-4.636,0.258-9.532,0.172-13.911,2.146c-3.692,1.287-6.525,4.464-7.212,8.329c-2.49,11.077-5.753,21.984-7.985,33.059
		c-0.602,4.379,4.034,6.614,7.641,7.127c5.325,0.601,10.734,0.431,16.056,0.172c5.325-0.772,11.678-3.265,13.139-9.101
		c2.403-10.391,5.151-20.695,7.642-31c0.685-2.487,0.858-5.666-1.375-7.556C357.318,261.235,351.997,261.492,347.187,261.319
		 M185.673,261.748c-0.43,2.233-0.859,4.465-1.117,6.7c5.238,0.169,10.561-0.088,15.799,0.258
		c-8.157,12.019-16.915,23.784-25.33,35.717c-1.546,2.319-1.975,5.153-2.576,7.816c12.021,0,24.043,0.343,36.064-0.086
		c0.773-2.148,0.944-4.381,1.202-6.613c-5.839-0.171-11.764,0.086-17.603-0.171c2.232-4.291,5.323-7.987,7.985-11.935
		c5.669-7.814,11.248-15.629,16.745-23.529c1.717-2.403,2.146-5.321,2.318-8.157C207.997,261.662,196.835,261.578,185.673,261.748
		 M234.787,261.92c-6.096,11.077-10.819,22.84-16.658,34.089c-2.749,5.325-4.809,10.991-7.728,16.316
		c5.324-0.172,10.647,0.429,15.885-0.345c2.147-4.295,3.607-8.929,5.925-13.138c2.49-0.517,4.98-0.258,7.471-0.258
		c-0.601,4.552-1.202,9.101-0.945,13.741c5.152,0,10.305,0.086,15.456,0c-0.345-5.497,0.515-10.907,0.859-16.316
		c0-11.42,0.085-22.84,0-34.348C248.268,261.834,241.485,261.235,234.787,261.92 M269.305,262.179
		c-0.859,2.489-1.202,5.151-1.803,7.726c-3.178,14.169-7.384,28.079-10.047,42.334c4.036,0.086,7.987,0.343,11.936-0.086
		c3.091-8.415,3.864-17.346,6.698-25.846c0.601,1.459,1.202,2.918,1.202,4.552c0.601,7.125,1.288,14.254,1.975,21.381
		c3.607,0.086,7.213,0.429,10.733-0.086c5.409-8.329,8.931-17.775,14.769-25.846c-1.63,8.758-4.637,17.172-6.097,25.932
		c4.723-0.172,9.618,0.858,14.169-0.429c1.374-3.866,1.889-7.9,2.833-11.852c1.976-7.985,4.036-15.97,6.011-24.041
		c1.118-4.724,2.663-9.36,3.092-14.169c-7.127,0-14.255-0.429-21.295,0.172c-3.607,8.502-7.899,16.657-12.108,24.814
		c-1.373-8.329-1.116-16.657-1.116-25.072c-5.495,0-10.906,0-16.315-0.084C272.397,261.662,270.765,261.492,269.305,262.179
		 M368.652,261.92c-1.63,5.151-2.576,10.476-4.035,15.713c-2.489,11.592-5.666,23.1-8.329,34.606c5.411,0.172,10.82,0.172,16.144,0
		c1.804-7.987,3.347-15.973,5.666-23.872c1.463-0.258,4.036-0.345,4.036,1.716c-0.257,7.385-5.066,14.34-3.004,21.811
		c5.151,1.03,10.474,0.258,15.713,0.431c-1.373-5.325,0.259-10.648,1.631-15.715c0.944-3.004,2.147-6.868-0.429-9.36
		c-1.116-1.289-4.293-0.858-4.207-2.918c3.263-1.289,7.039-2.491,8.756-5.842c1.547-3.347,2.319-7.125,2.148-10.819
		c0.17-2.145-2.06-3.177-3.694-4.035c-5.836-2.576-12.364-1.89-18.631-1.976C376.468,261.748,372.604,261.407,368.652,261.92
		 M421.117,261.92c-4.638,8.674-8.758,17.689-12.881,26.618c-4.207,7.728-7.554,15.973-11.506,23.787
		c5.325-0.172,10.648,0.429,15.887-0.345c2.147-4.295,3.607-8.929,5.925-13.138c2.403-0.517,4.982-0.258,7.47-0.258
		c-0.599,4.552-1.201,9.101-0.944,13.741c5.151,0,10.304,0.086,15.454,0c-0.343-5.497,0.517-10.907,0.86-16.316
		c0-11.42,0.084-22.84,0-34.348C434.599,261.834,427.815,261.235,421.117,261.92 M94.825,320.481
		c-2.319,1.633-4.293,3.609-6.527,5.411c-6.353,5.836-13.48,10.648-20.521,15.54c-2.49,1.802-6.87,2.92-6.011,6.955
		c0.86,17.348,4.809,34.518,11.249,50.664c5.667,13.394,12.536,26.788,23.356,36.749c9.101,9.875,20.951,16.66,33.23,21.811
		c32.887,12.278,65.602,25.16,97.716,39.585c12.107,5.239,24.215,10.733,35.635,17.603c16.143,9.359,31.255,20.607,44.823,33.316
		c1.202,1.116,2.404-0.515,3.348-1.116c15.885-14.254,33.144-26.962,51.607-37.611c12.709-7.644,26.359-13.48,39.929-19.405
		c16.827-7.041,33.572-14.255,50.658-20.609c12.624-5.323,25.589-9.702,38.125-15.112c10.476-5.325,20.264-12.107,28.337-20.607
		c4.722-4.81,8.586-10.478,12.278-16.059c5.666-8.672,8.844-18.545,12.021-28.335c3.862-12.709,6.527-25.76,7.558-38.984
		c0-2.146,1.545-5.323-1.202-6.181c-10.819-5.582-20.607-12.881-29.71-20.952c-1.631-1.373-3.177-3.349-5.496-3.092
		c-139.363,0-278.809,0-418.17,0C96.456,320.136,95.426,320.308,94.825,320.481L94.825,320.481z"/>
	<path fill="#FDFDFD" d="M143.425,66.746c-0.171-3.435,2.147-6.268,4.38-8.673c2.317,0.602,4.463,1.718,6.526,3.006
		c0.257,1.288,0.257,2.576,0.343,3.95c-0.171,26.275,0,52.636-0.085,78.997c-3.693,0.086-7.471,0.086-11.163,0
		C143.339,118.267,143.512,92.506,143.425,66.746L143.425,66.746z"/>
	<path fill="#FDFDFD" d="M330.614,92.506c46.281-3.005,92.05-14.684,134.038-34.26c1.633,0.773,2.663,2.403,3.694,3.863
		c4.634,7.042,9.702,13.739,14.424,20.779c3.95,6.268,8.672,12.021,12.45,18.462c2.234,3.949,5.153,7.557,7.385,11.506
		c1.543,2.404-1.461,4.552-2.491,6.612c-15.198,20.952-24.902,45.767-28.251,71.442c-0.944,10.13-2.146,20.349-0.686,30.482
		c0.515,9.273,2.233,18.374,4.551,27.393c-2.836,0-5.582,0-8.414,0c-0.258-4.81-0.775-9.876-3.437-13.913
		c-3.862-4.379-9.185-6.955-14.081-10.045c-4.207-2.834-9.789-2.662-13.909-5.668c-8.243-5.581-15.629-12.365-24.561-16.744
		c-3.177-1.718-6.953-3.52-8.328-7.127c-1.116-2.662-0.772-5.668-2.06-8.243c-1.288-0.686-2.834-0.944-4.293-1.374
		c0.601-3.434,1.201-6.955,2.317-10.303c1.719-2.576,4.123-4.552,5.325-7.385c2.576-5.924,6.009-11.506,7.039-17.945
		c0.605-4.122,3.008-7.814,2.665-12.021c-0.172-7.814-0.689-16.831-6.786-22.498c-3.949-3.777-6.694-9.186-12.278-10.819
		c-5.325-1.46-10.562-4.035-16.23-3.692c-5.408,0-10.905,0.085-16.314,0.601c-4.035-0.43-8.414-1.117-12.021,1.202
		c-5.409,2.919-3.004,11.076-8.071,14.254c-4.724,3.005-6.698,8.501-9.103,13.224c-2.661,4.98-2.403,11.076-5.925,15.541
		c-3.005,4.38-6.954,7.9-10.562,11.764c-2.059,2.748,0.774,5.839,1.116,8.673c-1.116,2.489-3.692,4.208-4.378,6.954
		c2.833,5.067,8.844,6.354,14.081,7.472c1.289,3.09-0.687,6.611,0.171,9.874c0,3.263,1.976,7.127,5.496,7.471
		c6.269,0.601,12.452,2.575,18.032,5.41c0.172,2.146-2.746,2.317-3.948,3.606c-0.688,2.576,0.17,6.097-2.405,7.9
		c-4.636,3.264-9.789,5.839-14.855,8.328c-2.919,1.461-5.323,3.95-8.243,5.411c-4.723,0.858-9.617,0-14.339,0.343
		c-2.834,0-5.324,1.373-7.901,2.233c-7.727,2.233-11.763,10.131-13.91,17.26c-3.263,0.601-6.612,0.258-9.96,0.258
		c0-52.123,0-104.157,0-156.279c5.152,0,10.218-0.343,15.283,0.344c6.87,1.03,13.825,0.344,20.78,0.515
		C318.079,93.708,324.26,92.163,330.614,92.506L330.614,92.506z"/>
	<path fill="#FDFDFD" d="M176.141,70.009c3.95,1.202,7.813,2.576,11.677,3.949c0.344,1.632,0.257,3.178,0.344,4.809
		c-0.172,16.572,0,33.231-0.086,49.803c-0.515,5.324-2.06,10.647-4.551,15.285c-2.404,0.343-4.98,0.171-7.471,0.171
		C176.055,119.382,175.969,94.652,176.141,70.009L176.141,70.009z"/>
	<path fill="#FDFDFD" d="M209.543,80.485c3.693,0.945,7.385,1.631,10.905,2.833c0.515,3.092,0.257,6.097,0.257,9.188
		c-0.086,17.173,0.086,34.347,0,51.521c-2.576-0.171-5.581,0.601-7.899-0.601c-1.63-4.808-3.607-9.703-3.349-14.855
		C209.629,112.513,209.456,96.542,209.543,80.485L209.543,80.485z"/>
	<path fill="#FDFDFD" d="M242.172,88.127c3.864,0.171,7.814,0.429,11.592,1.46c0.43,1.46,0.43,3.091,0.516,4.637
		c-0.173,16.572,0,33.144-0.086,49.803c-4.036,0.086-7.986,0.086-12.022,0C242.172,125.392,242.172,106.76,242.172,88.127
		L242.172,88.127z"/>
	<path fill="#FDFDFD" d="M113.887,107.618c2.577-3.692,4.723-7.814,7.9-11.076c0.257,11.592,0.257,23.27,0,34.861
		c-2.92-3.519-4.894-7.727-7.557-11.42c-1.374-2.06-3.004-3.95-4.208-6.011C110.969,111.655,112.514,109.679,113.887,107.618
		L113.887,107.618z"/>
	<path fill="#FDFDFD" d="M195.031,121.786c1.116-3.004,1.631-6.268,3.349-9.015c1.374,1.631,1.889,3.691,2.403,5.667
		c2.32,8.844,6.011,17.259,8.244,26.104c0.515,1.631,0.859,4.207,3.091,3.777c11.85,0.173,23.613-0.257,35.462,0.173
		c-9.186,7.556-19.405,13.738-28.765,21.207c-1.115,0.688-0.514,2.147-0.343,3.178c3.262,11.421,7.298,22.583,10.905,33.918
		c-6.955-4.809-13.653-9.96-20.608-14.769c-3.435-2.49-6.612-5.496-10.39-7.557c-6.697,4.723-13.138,9.703-19.835,14.426
		c-3.434,2.404-6.526,5.238-10.218,7.212c0.343-2.489,0.86-4.894,1.632-7.212c2.661-8.158,5.409-16.315,8.156-24.473
		c0.43-1.717,1.288-4.121-0.6-5.238c-9.446-6.955-19.062-13.566-28.336-20.78c12.107-0.343,24.214,0.171,36.236-0.171
		c1.288,0.171,1.46-1.545,1.975-2.318C190.136,137.929,192.284,129.772,195.031,121.786L195.031,121.786z"/>
	<path fill="#FDFDFD" d="M243.374,156.391c3.434-2.662,7.042-5.153,10.646-7.47c0.431,31.255,0,62.596,0.26,93.852
		c-0.086,1.89,0,3.778-0.516,5.582c-3.778,0.858-7.728,0.345-11.592,0.345c-0.086-29.453,0.086-58.906,0-88.358
		C242.258,158.967,241.914,157.163,243.374,156.391L243.374,156.391z"/>
	<path fill="#FDFDFD" d="M143.512,149.779c3.95,1.889,7.47,4.637,10.82,7.47c0.171,1.03,0.257,2.06,0.257,3.091
		c-0.086,29.452,0.085,58.905,0,88.444c-3.693,0.084-7.471,0.084-11.163,0C143.425,215.724,143.254,182.752,143.512,149.779
		L143.512,149.779z"/>
	<path fill="#FDFDFD" d="M176.312,205.334c3.607-3.091,7.642-5.753,11.592-8.329c0.344,17.259,0.085,34.519,0.171,51.779
		c-4.035,0.084-7.985,0.084-12.021,0c-0.085-12.882,0.086-25.761-0.085-38.641C176.055,208.512,175.969,206.88,176.312,205.334
		L176.312,205.334z"/>
	<path fill="#FDFDFD" d="M209.543,197.177c3.607,2.834,7.643,4.98,10.905,8.071c0.344,1.631,0.257,3.264,0.344,4.895
		c-0.172,12.88,0,25.759-0.086,38.641c-3.691,0.084-7.47,0.084-11.162,0C209.543,231.525,209.543,214.351,209.543,197.177
		L209.543,197.177z"/>
	<path fill="#FDFDFD" d="M347.187,261.319c4.81,0.172,10.131-0.084,13.995,3.177c2.233,1.89,2.06,5.068,1.375,7.556
		c-2.491,10.305-5.239,20.609-7.642,31c-1.461,5.836-7.814,8.329-13.139,9.101c-5.321,0.258-10.731,0.429-16.056-0.172
		c-3.607-0.513-8.243-2.748-7.641-7.127c2.232-11.075,5.495-21.982,7.985-33.059c0.687-3.866,3.521-7.042,7.212-8.329
		C337.655,261.492,342.551,261.578,347.187,261.319 M341.95,270.336c-2.491,9.187-4.209,18.545-6.784,27.734
		c-0.601,2.403-1.032,4.982-1.289,7.47c1.459-0.084,2.834-0.084,4.293-0.257c0.946-0.944,1.202-2.317,1.545-3.606
		c1.89-9.017,4.295-17.947,6.612-26.962c0.429-2.06,0.601-4.207,0.687-6.355C345.297,268.791,342.206,267.845,341.95,270.336
		L341.95,270.336z"/>
	<path fill="#FDFDFD" d="M185.673,261.748c11.162-0.17,22.325-0.086,33.487,0c-0.171,2.836-0.601,5.754-2.318,8.157
		c-5.497,7.901-11.076,15.715-16.745,23.529c-2.662,3.948-5.753,7.644-7.985,11.935c5.838,0.257,11.764,0,17.603,0.171
		c-0.258,2.233-0.43,4.465-1.202,6.613c-12.021,0.429-24.043,0.086-36.064,0.086c0.601-2.663,1.03-5.497,2.576-7.816
		c8.415-11.933,17.173-23.698,25.33-35.717c-5.238-0.346-10.561-0.09-15.799-0.258C184.814,266.213,185.243,263.981,185.673,261.748
		L185.673,261.748z"/>
	<path fill="#FDFDFD" d="M234.787,261.92c6.698-0.686,13.481-0.086,20.265-0.258c0.085,11.508,0,22.928,0,34.348
		c-0.344,5.409-1.203,10.819-0.859,16.316c-5.152,0.086-10.304,0-15.456,0c-0.257-4.64,0.344-9.189,0.945-13.741
		c-2.491,0-4.981-0.258-7.471,0.258c-2.318,4.209-3.777,8.843-5.925,13.138c-5.238,0.774-10.561,0.172-15.885,0.345
		c2.919-5.325,4.979-10.991,7.728-16.316C223.969,284.76,228.691,272.997,234.787,261.92 M235.389,291.889
		c1.288-0.086,2.662-0.172,3.95-0.429c1.545-3.78,1.202-7.987,0.944-12.025C238.222,283.387,236.762,287.68,235.389,291.889
		L235.389,291.889z"/>
	<path fill="#FDFDFD" d="M269.305,262.179c1.46-0.687,3.092-0.517,4.637-0.601c5.409,0.084,10.82,0.084,16.315,0.084
		c0,8.415-0.257,16.743,1.116,25.072c4.209-8.157,8.501-16.312,12.108-24.814c7.041-0.601,14.169-0.172,21.295-0.172
		c-0.43,4.81-1.974,9.446-3.092,14.169c-1.974,8.071-4.035,16.056-6.011,24.041c-0.944,3.952-1.459,7.987-2.833,11.852
		c-4.551,1.287-9.446,0.257-14.169,0.429c1.46-8.76,4.466-17.174,6.097-25.932c-5.838,8.071-9.359,17.517-14.769,25.846
		c-3.52,0.515-7.127,0.172-10.733,0.086c-0.688-7.127-1.374-14.256-1.975-21.381c0-1.633-0.6-3.092-1.202-4.552
		c-2.834,8.5-3.607,17.43-6.698,25.846c-3.949,0.429-7.899,0.172-11.936,0.086c2.662-14.256,6.869-28.165,10.047-42.334
		C268.104,267.33,268.447,264.668,269.305,262.179L269.305,262.179z"/>
	<path fill="#FDFDFD" d="M368.652,261.92c3.952-0.513,7.816-0.172,11.766-0.258c6.267,0.086,12.795-0.599,18.631,1.976
		c1.633,0.858,3.864,1.89,3.694,4.035c0.17,3.693-0.601,7.471-2.148,10.819c-1.717,3.351-5.494,4.553-8.756,5.842
		c-0.086,2.06,3.09,1.63,4.207,2.918c2.576,2.491,1.373,6.355,0.429,9.36c-1.373,5.066-3.004,10.39-1.631,15.715
		c-5.239-0.172-10.562,0.599-15.713-0.431c-2.062-7.471,2.748-14.426,3.004-21.811c0-2.06-2.574-1.974-4.036-1.716
		c-2.319,7.899-3.862,15.885-5.666,23.872c-5.323,0.172-10.732,0.172-16.144,0c2.663-11.506,5.84-23.014,8.329-34.606
		C366.076,272.396,367.022,267.071,368.652,261.92 M383.25,268.617c-1.63,4.124-2.575,8.502-2.918,12.967
		c1.545-0.257,3.776,0.086,4.552-1.716c1.287-3.264,2.317-6.698,2.317-10.217C386.341,268.188,384.625,268.448,383.25,268.617
		L383.25,268.617z"/>
	<path fill="#FDFDFD" d="M421.117,261.92c6.698-0.686,13.482-0.086,20.264-0.258c0.084,11.508,0,22.928,0,34.348
		c-0.343,5.409-1.202,10.819-0.86,16.316c-5.151,0.086-10.303,0-15.454,0c-0.257-4.64,0.345-9.189,0.944-13.741
		c-2.487,0-5.066-0.258-7.47,0.258c-2.317,4.209-3.778,8.843-5.925,13.138c-5.239,0.774-10.562,0.172-15.887,0.345
		c3.952-7.814,7.299-16.059,11.506-23.787C412.359,279.609,416.48,270.594,421.117,261.92 M421.717,291.803
		c1.376-0.086,2.665-0.086,4.038-0.171c0.946-4.038,1.373-8.075,0.858-12.197C424.554,283.387,423.179,287.594,421.717,291.803
		L421.717,291.803z"/>
	<path fill="#231F1C" d="M341.95,270.336c0.257-2.491,3.347-1.545,5.065-1.976c-0.086,2.148-0.258,4.295-0.687,6.355
		c-2.317,9.015-4.722,17.946-6.612,26.962c-0.343,1.289-0.599,2.662-1.545,3.606c-1.459,0.172-2.834,0.172-4.293,0.257
		c0.257-2.487,0.687-5.067,1.289-7.47C337.741,288.881,339.459,279.523,341.95,270.336L341.95,270.336z"/>
	<path fill="#231F1C" d="M383.25,268.617c1.375-0.169,3.091-0.429,3.95,1.034c0,3.519-1.03,6.953-2.317,10.217
		c-0.775,1.802-3.006,1.459-4.552,1.716C380.675,277.118,381.621,272.741,383.25,268.617L383.25,268.617z"/>
	<path fill="#231F1C" d="M235.389,291.889c1.374-4.209,2.834-8.502,4.894-12.454c0.258,4.038,0.601,8.245-0.944,12.025
		C238.051,291.717,236.676,291.803,235.389,291.889L235.389,291.889z"/>
	<path fill="#231F1C" d="M421.717,291.803c1.463-4.209,2.837-8.415,4.896-12.367c0.515,4.122,0.088,8.159-0.858,12.197
		C424.382,291.717,423.093,291.717,421.717,291.803L421.717,291.803z"/>
	<path fill="#FDFDFD" d="M94.825,320.481c0.601-0.172,1.631-0.345,2.233-0.429c139.361,0,278.807,0,418.17,0
		c2.319-0.257,3.864,1.719,5.496,3.092c9.103,8.071,18.891,15.37,29.71,20.952c2.748,0.858,1.202,4.035,1.202,6.181
		c-1.03,13.224-3.695,26.275-7.558,38.984c-3.177,9.79-6.355,19.663-12.021,28.335c-3.692,5.582-7.556,11.249-12.278,16.059
		c-8.073,8.5-17.861,15.282-28.337,20.607c-12.536,5.409-25.501,9.789-38.125,15.112c-17.086,6.353-33.831,13.568-50.658,20.609
		c-13.57,5.925-27.221,11.761-39.929,19.405c-18.462,10.648-35.721,23.357-51.607,37.611c-0.944,0.601-2.146,2.233-3.348,1.116
		c-13.567-12.709-28.68-23.956-44.823-33.316c-11.421-6.87-23.528-12.364-35.635-17.603c-32.114-14.424-64.829-27.307-97.716-39.585
		c-12.279-5.151-24.129-11.937-33.23-21.811c-10.82-9.961-17.689-23.355-23.356-36.749c-6.44-16.145-10.39-33.316-11.249-50.664
		c-0.859-4.035,3.521-5.153,6.011-6.955c7.041-4.892,14.168-9.704,20.521-15.54C90.532,324.09,92.506,322.114,94.825,320.481
		 M254.194,344.096c0,48.083,0,96.169,0,144.253c13.137,0,26.36,0,39.498,0c0.085-17.429-0.086-34.945,0-52.377
		c7.899,0,15.8-0.086,23.698,0.084c1.46,8.76,7.042,16.145,13.48,21.982c8.415,7.044,20.008,8.331,30.656,8.073
		c9.187,0.086,18.891-2.317,25.588-8.844c6.098-5.237,9.103-12.965,11.334-20.521c-7.813-2.577-15.627-5.151-23.698-6.87
		c-1.032,5.84-3.519,12.536-9.532,14.941c-5.323,1.802-12.021,1.974-16.486-2.06c-3.263-2.662-5.323-6.784-5.237-11.077
		c-0.086-5.754,0-11.42,0-17.174c-0.345-5.409,2.66-10.562,7.041-13.653c5.582-3.091,13.31-3.177,18.376,1.116
		c2.661,1.974,3.692,5.153,5.151,7.987c2.06,0.343,4.121-0.429,6.183-0.774c5.836-1.459,11.764-2.405,17.429-4.295
		c-3.433-9.187-9.187-18.459-18.373-22.754c-8.931-3.948-19.064-4.379-28.594-3.349c-6.528,1.288-13.482,2.577-18.805,6.954
		c-3.78,3.008-7.557,6.269-10.047,10.56c-2.404,3.954-3.263,8.674-5.238,12.796c-7.642,0.603-15.285,0.172-22.926,0.259
		c0-12.883,0-25.762,0-38.641c19.148-0.086,38.383,0.086,57.529,0c0-8.844,0-17.775,0-26.618
		C318.851,344.096,286.565,344.096,254.194,344.096L254.194,344.096z"/>
	<path fill="#231F1C" d="M254.194,344.096c32.371,0,64.657,0,97.028,0c0,8.843,0,17.773,0,26.618
		c-19.146,0.086-38.381-0.086-57.529,0c0,12.879,0,25.758,0,38.641c7.641-0.086,15.284,0.345,22.926-0.259
		c1.975-4.122,2.834-8.843,5.238-12.796c2.49-4.291,6.267-7.552,10.047-10.56c5.323-4.377,12.278-5.666,18.805-6.954
		c9.53-1.03,19.663-0.599,28.594,3.349c9.185,4.295,14.939,13.566,18.373,22.754c-5.664,1.89-11.592,2.836-17.429,4.295
		c-2.062,0.345-4.123,1.116-6.183,0.774c-1.459-2.834-2.489-6.012-5.151-7.987c-5.067-4.293-12.795-4.207-18.376-1.116
		c-4.381,3.09-7.385,8.243-7.041,13.653c0,5.754-0.086,11.42,0,17.174c-0.086,4.293,1.974,8.415,5.237,11.077
		c4.465,4.035,11.163,3.862,16.486,2.06c6.012-2.405,8.5-9.101,9.532-14.941c8.071,1.719,15.885,4.293,23.698,6.87
		c-2.231,7.556-5.235,15.284-11.334,20.521c-6.696,6.527-16.4,8.93-25.588,8.844c-10.648,0.258-22.24-1.028-30.656-8.073
		c-6.439-5.837-12.02-13.222-13.48-21.982c-7.899-0.171-15.799-0.084-23.698-0.084c-0.086,17.432,0.085,34.949,0,52.377
		c-13.138,0-26.361,0-39.498,0C254.194,440.265,254.194,392.179,254.194,344.096L254.194,344.096z"/>
</g>
</svg>
