<svg xmlns="http://www.w3.org/2000/svg" xmlns:xlink="http://www.w3.org/1999/xlink" viewBox="0 0 900 600.45"><defs><style>.cls-1{fill:none;}.cls-2{clip-path:url(#clip-path);}.cls-3{fill:#fff;}.cls-4{fill:#21468b;}.cls-5{fill:#ae1c28;}.cls-6{isolation:isolate;}.cls-7{fill:#939598;}</style><clipPath id="clip-path" transform="translate(4.05 0.45)"><path class="cls-1" d="M861.05,6.05A25,25,0,0,1,886,31v538.1a24.9,24.9,0,0,1-24.9,24.9H30.85A24.82,24.82,0,0,1,6,569.15V31a25,25,0,0,1,24.9-24.9h830.2"/></clipPath></defs><g id="Layer_2" data-name="Layer 2"><g id="svg2"><g class="cls-2"><g id="rect2818"><rect class="cls-3" width="900" height="600"/></g><g id="rect2822"><rect class="cls-4" y="400" width="900" height="200"/></g><g id="rect2824"><rect class="cls-5" width="900" height="200"/></g><g id="g2907"><g id="text2826" class="cls-6"><g class="cls-6"><path d="M510.5,239.55v3.2q-6.48,1.13-9.8,4-4.76,4.25-8.44,13l-42.49,99.84h-3.33L400.81,258.41q-3.51-7.79-4.94-9.52a15.76,15.76,0,0,0-5.53-4.19,26.32,26.32,0,0,0-8.84-1.95v-3.2h49.76v3.2q-8.44.78-11,2.77a6.24,6.24,0,0,0-2.51,5.1q0,4.33,4.13,13.5l31,68.78L481.66,265q4.21-10,4.22-13.93,0-2.52-2.6-4.81T474.47,243l-1.53-.26v-3.2Z" transform="translate(4.05 0.45)"/></g></g><g id="text2834" class="cls-6"><g class="cls-6"><path d="M498.94,259.53l1.13,16.26h-1.13q-2.25-7.31-6.43-10.51a15.94,15.94,0,0,0-10-3.21,16.65,16.65,0,0,0-8.86,2.42,16,16,0,0,0-6.23,7.7,33.3,33.3,0,0,0-2.28,13.15,27.17,27.17,0,0,0,2.15,11.25,15.75,15.75,0,0,0,6.45,7.3,19,19,0,0,0,9.82,2.54,17.57,17.57,0,0,0,8.47-2q3.66-2,8.06-7.92l1.13.71a25.49,25.49,0,0,1-8.65,9.34,22.41,22.41,0,0,1-11.73,3q-12.24,0-19-8.81a24.73,24.73,0,0,1-5-15.45,26.73,26.73,0,0,1,3.31-13.15,23.44,23.44,0,0,1,9.1-9.29,25.13,25.13,0,0,1,12.66-3.3,23.77,23.77,0,0,1,10.53,2.54,5.86,5.86,0,0,0,2.18.78,2.47,2.47,0,0,0,1.71-.67,5.41,5.41,0,0,0,1.34-2.65Z" transform="translate(4.05 0.45)"/></g></g><g id="text2830" class="cls-6"><g class="cls-6"><path d="M412.44,261.57a22.61,22.61,0,0,1,18,.76,24,24,0,0,1,12.79,14q3.86,10.2-.24,19.42A24.12,24.12,0,0,1,411.07,308q-8.94-4.12-12.87-14.55-4-10.66.92-20.21A23.92,23.92,0,0,1,412.44,261.57Zm.26,2.65a13.13,13.13,0,0,0-8.24,8.19q-2.56,7.29,1.47,18,4.13,11,11.17,15a12.87,12.87,0,0,0,11.47.8,14.42,14.42,0,0,0,8.86-8.95q2.37-6.51-1.61-17.1-4.33-11.47-11.11-15.37C421.09,262.76,417.09,262.57,412.7,264.22Z" transform="translate(4.05 0.45)"/></g></g></g></g><path class="cls-7" d="M861.1,6A25,25,0,0,1,886,30.9V569a24.9,24.9,0,0,1-24.9,24.9H30.9A24.82,24.82,0,0,1,6,569.1V30.9A25,25,0,0,1,30.9,6H861.1m0-6H30.9A30.86,30.86,0,0,0,0,30.9H0V569a30.88,30.88,0,0,0,30.9,31H861a30.86,30.86,0,0,0,30.9-30.9V30.9A30.71,30.71,0,0,0,861.1,0Z" transform="translate(4.05 0.45)"/></g></g></svg>