<?xml version="1.0" encoding="UTF-8"?>
<!DOCTYPE svg PUBLIC "-//W3C//DTD SVG 1.1//EN" "http://www.w3.org/Graphics/SVG/1.1/DTD/svg11.dtd">
<svg xmlns="http://www.w3.org/2000/svg" version="1.1" width="490px" height="490px" style="shape-rendering:geometricPrecision; text-rendering:geometricPrecision; image-rendering:optimizeQuality; fill-rule:evenodd; clip-rule:evenodd" xmlns:xlink="http://www.w3.org/1999/xlink">
<g><path style="opacity:0.975" fill="#050404" d="M 238.5,21.5 C 240.527,21.3379 242.527,21.5045 244.5,22C 259.945,49.0638 283.278,64.7305 314.5,69C 343.474,74.0018 371.807,71.6685 399.5,62C 407.653,58.4262 415.32,54.0929 422.5,49C 425.308,48.0799 427.475,48.9133 429,51.5C 431.01,78.8546 430.843,106.188 428.5,133.5C 455.489,130.06 472.323,141.393 479,167.5C 484.754,195.216 483.421,222.55 475,249.5C 469.941,263.895 460.108,273.062 445.5,277C 430.524,278.198 415.524,278.698 400.5,278.5C 373.609,357.225 324.942,418.725 254.5,463C 250.671,464.998 246.671,466.498 242.5,467.5C 237.63,466.398 233.297,464.232 229.5,461C 173.612,417.118 129.446,363.618 97,300.5C 80.104,306.051 62.9373,306.884 45.5,303C 22.2081,294.349 9.37473,277.515 7,252.5C 6.33333,238.167 6.33333,223.833 7,209.5C 7.89449,194.482 12.5612,180.815 21,168.5C 29.5245,159.653 40.0245,155.486 52.5,156C 53.6582,154.991 54.3248,153.658 54.5,152C 49.6833,119.621 48.0166,87.1205 49.5,54.5C 50.6878,53.16 52.1878,52.4934 54,52.5C 81.1894,62.1311 109.189,67.4645 138,68.5C 171.068,67.7032 200.402,57.0365 226,36.5C 230.378,31.6268 234.545,26.6268 238.5,21.5 Z"/></g>
<g><path style="opacity:1" fill="#c70402" d="M 420.5,147.5 C 419.642,151.673 418.976,156.007 418.5,160.5C 417.732,161.263 417.232,162.263 417,163.5C 416.667,163.167 416.333,162.833 416,162.5C 415.506,164.134 415.34,165.801 415.5,167.5C 411.5,167.5 407.5,167.5 403.5,167.5C 403.993,165.194 404.326,162.861 404.5,160.5C 407.44,136.241 408.107,111.908 406.5,87.5C 404.902,86.5153 403.235,86.3486 401.5,87C 393.018,91.5403 384.018,94.7069 374.5,96.5C 366.965,97.4207 359.631,98.754 352.5,100.5C 338.784,100.798 325.118,100.465 311.5,99.5C 312.263,98.7321 313.263,98.2321 314.5,98C 306.802,97.3045 299.135,96.4712 291.5,95.5C 270.64,90.1412 254.807,78.1412 244,59.5C 242.612,58.4464 241.112,58.2797 239.5,59C 223.65,77.7617 203.65,89.595 179.5,94.5C 166.332,97.1744 152.999,98.1744 139.5,97.5C 138.5,97.5 137.5,97.5 136.5,97.5C 132.455,95.8227 128.122,95.1561 123.5,95.5C 119.742,95.152 116.076,94.4853 112.5,93.5C 110.162,91.9605 107.495,91.2938 104.5,91.5C 96.7288,89.9098 89.0621,87.9098 81.5,85.5C 79.626,85.3898 78.126,86.0564 77,87.5C 76.1015,112.892 76.9348,138.225 79.5,163.5C 74.1667,163.5 68.8333,163.5 63.5,163.5C 59.3592,131.976 57.8592,100.309 59,68.5C 60.1824,66.6431 61.849,65.6431 64,65.5C 77.7796,70.4788 91.9462,74.1454 106.5,76.5C 109.507,78.1745 112.84,78.8412 116.5,78.5C 138.468,82.0232 160.134,80.6899 181.5,74.5C 185.673,74.3333 189.34,73 192.5,70.5C 211.059,63.5516 226.392,52.2183 238.5,36.5C 240.949,35.0903 243.116,35.4237 245,37.5C 250.503,47.9921 258.003,56.8254 267.5,64C 280.9,72.6947 295.567,78.3613 311.5,81C 340.83,86.104 369.496,83.7706 397.5,74C 403.768,70.8615 409.768,67.1948 415.5,63C 417.903,62.3698 419.737,63.2031 421,65.5C 422.966,92.8615 422.799,120.195 420.5,147.5 Z"/></g>
<g><path style="opacity:1" fill="#740a0d" d="M 192.5,70.5 C 189.34,73 185.673,74.3333 181.5,74.5C 184.797,72.3987 188.463,71.0653 192.5,70.5 Z"/></g>
<g><path style="opacity:1" fill="#5e0e0d" d="M 106.5,76.5 C 110.078,76.5488 113.411,77.2154 116.5,78.5C 112.84,78.8412 109.507,78.1745 106.5,76.5 Z"/></g>
<g><path style="opacity:1" fill="#909090" d="M 441.5,142.5 C 437.5,142.5 433.5,142.5 429.5,142.5C 429.768,144.099 429.434,145.432 428.5,146.5C 428.5,144.833 428.5,143.167 428.5,141.5C 433.032,141.182 437.366,141.515 441.5,142.5 Z"/></g>
<g><path style="opacity:1" fill="#f4f4f4" d="M 441.5,142.5 C 449.713,142.514 456.88,145.18 463,150.5C 468.983,159.616 472.483,169.616 473.5,180.5C 474.812,195.835 474.812,211.168 473.5,226.5C 472.345,240.805 466.345,252.638 455.5,262C 447.338,267.457 438.338,269.624 428.5,268.5C 411.82,268.167 395.153,268.501 378.5,269.5C 378.192,270.308 377.692,270.975 377,271.5C 376.798,269.744 376.298,268.078 375.5,266.5C 303.646,268.492 231.646,269.159 159.5,268.5C 144.129,267.85 129.129,268.516 114.5,270.5C 114.416,273.682 113.083,276.015 110.5,277.5C 109.582,274.497 108.249,271.663 106.5,269C 100.509,268.501 94.5092,268.334 88.5,268.5C 85.4281,268.183 82.4281,268.516 79.5,269.5C 80.7878,271.739 81.7878,274.072 82.5,276.5C 82.1193,277.931 81.1193,278.764 79.5,279C 76.1832,279.498 72.8499,279.665 69.5,279.5C 62.7094,275.924 59.5427,270.257 60,262.5C 60.8333,261.667 61.6667,260.833 62.5,260C 182.832,260.408 303.165,260.408 423.5,260C 434.711,259.263 445.044,255.929 454.5,250C 458.115,246.381 460.949,242.214 463,237.5C 468.303,215.537 468.636,193.537 464,171.5C 460.052,154.833 449.386,147.166 432,148.5C 430.319,148.392 429.152,147.725 428.5,146.5C 429.434,145.432 429.768,144.099 429.5,142.5C 433.5,142.5 437.5,142.5 441.5,142.5 Z"/></g>
<g><path style="opacity:1" fill="#f5efef" d="M 291.5,95.5 C 297.789,98.1077 304.456,99.441 311.5,99.5C 325.118,100.465 338.784,100.798 352.5,100.5C 359.554,100.183 366.554,99.3495 373.5,98C 374.056,97.6174 374.389,97.1174 374.5,96.5C 384.018,94.7069 393.018,91.5403 401.5,87C 403.235,86.3486 404.902,86.5153 406.5,87.5C 408.107,111.908 407.44,136.241 404.5,160.5C 402.96,162.838 402.294,165.505 402.5,168.5C 407.167,168.5 411.833,168.5 416.5,168.5C 419.187,168.664 421.854,168.497 424.5,168C 425.282,165.26 425.782,162.426 426,159.5C 430.324,158.116 434.491,158.616 438.5,161C 442.766,162.366 444.266,165.199 443,169.5C 440.958,171.604 438.458,172.771 435.5,173C 381.501,173.033 327.501,172.867 273.5,172.5C 203.659,171.101 133.659,171.268 63.5,173C 57.253,173.1 51.253,173.933 45.5,175.5C 32.9195,182.294 26.0862,192.961 25,207.5C 23.2788,227.903 25.2788,247.903 31,267.5C 38.4327,283.974 51.266,291.307 69.5,289.5C 75.9379,289.677 82.2712,289.01 88.5,287.5C 90.6868,288.322 92.3534,289.822 93.5,292C 39.7387,304.577 14.0721,283.244 16.5,228C 15.9413,216.643 17.108,205.477 20,194.5C 23.3914,179.277 32.5581,169.943 47.5,166.5C 53.0506,166.473 58.3839,165.806 63.5,164.5C 63.5,164.167 63.5,163.833 63.5,163.5C 68.8333,163.5 74.1667,163.5 79.5,163.5C 76.9348,138.225 76.1015,112.892 77,87.5C 78.126,86.0564 79.626,85.3898 81.5,85.5C 89.0621,87.9098 96.7288,89.9098 104.5,91.5C 106.905,92.7682 109.572,93.4349 112.5,93.5C 116.076,94.4853 119.742,95.152 123.5,95.5C 127.567,97.0538 131.9,97.7204 136.5,97.5C 137.5,97.5 138.5,97.5 139.5,97.5C 151.032,98.8415 162.699,98.6748 174.5,97C 176.315,96.2432 177.981,95.4098 179.5,94.5C 203.65,89.595 223.65,77.7617 239.5,59C 241.112,58.2797 242.612,58.4464 244,59.5C 254.807,78.1412 270.64,90.1412 291.5,95.5 Z"/></g>
<g><path style="opacity:1" fill="#ce3a2d" d="M 291.5,95.5 C 299.135,96.4712 306.802,97.3045 314.5,98C 313.263,98.2321 312.263,98.7321 311.5,99.5C 304.456,99.441 297.789,98.1077 291.5,95.5 Z"/></g>
<g><path style="opacity:1" fill="#d16158" d="M 104.5,91.5 C 107.495,91.2938 110.162,91.9605 112.5,93.5C 109.572,93.4349 106.905,92.7682 104.5,91.5 Z"/></g>
<g><path style="opacity:1" fill="#c90301" d="M 285.5,101.5 C 287.515,102.924 289.848,103.59 292.5,103.5C 296.163,105.416 300.163,106.416 304.5,106.5C 322.445,108.81 340.445,109.143 358.5,107.5C 363.816,107.451 368.816,106.451 373.5,104.5C 377.534,104.483 381.201,103.483 384.5,101.5C 389.402,99.6437 394.402,97.9771 399.5,96.5C 400.828,120.6 399.828,144.6 396.5,168.5C 304.162,167.116 211.829,165.449 119.5,163.5C 108.425,163.121 97.4253,162.121 86.5,160.5C 84.9341,138.532 84.2674,116.532 84.5,94.5C 90.2846,95.4304 95.9513,96.7637 101.5,98.5C 106.486,100.701 111.82,101.701 117.5,101.5C 120.003,102.371 122.67,103.037 125.5,103.5C 130.598,104.957 135.931,105.624 141.5,105.5C 150.553,105.778 159.553,105.444 168.5,104.5C 173.831,104.579 178.831,103.579 183.5,101.5C 205.566,96.3003 224.566,85.6336 240.5,69.5C 252.159,84.8198 267.159,95.4864 285.5,101.5 Z"/></g>
<g><path style="opacity:1" fill="#bc4942" d="M 373.5,104.5 C 368.816,106.451 363.816,107.451 358.5,107.5C 363.205,105.678 368.205,104.678 373.5,104.5 Z"/></g>
<g><path style="opacity:1" fill="#bc7d78" d="M 125.5,103.5 C 131.069,103.376 136.402,104.043 141.5,105.5C 135.931,105.624 130.598,104.957 125.5,103.5 Z"/></g>
<g><path style="opacity:1" fill="#c06b66" d="M 292.5,103.5 C 296.761,103.898 300.761,104.898 304.5,106.5C 300.163,106.416 296.163,105.416 292.5,103.5 Z"/></g>
<g><path style="opacity:1" fill="#c56f6a" d="M 384.5,101.5 C 381.201,103.483 377.534,104.483 373.5,104.5C 376.907,102.926 380.573,101.926 384.5,101.5 Z"/></g>
<g><path style="opacity:1" fill="#c77e79" d="M 183.5,101.5 C 178.831,103.579 173.831,104.579 168.5,104.5C 173.291,103.058 178.291,102.058 183.5,101.5 Z"/></g>
<g><path style="opacity:1" fill="#ca817a" d="M 285.5,101.5 C 288.152,101.41 290.485,102.076 292.5,103.5C 289.848,103.59 287.515,102.924 285.5,101.5 Z"/></g>
<g><path style="opacity:1" fill="#eda6a4" d="M 374.5,96.5 C 374.389,97.1174 374.056,97.6174 373.5,98C 366.554,99.3495 359.554,100.183 352.5,100.5C 359.631,98.754 366.965,97.4207 374.5,96.5 Z"/></g>
<g><path style="opacity:1" fill="#daada7" d="M 101.5,98.5 C 107.147,98.5908 112.48,99.5908 117.5,101.5C 111.82,101.701 106.486,100.701 101.5,98.5 Z"/></g>
<g><path style="opacity:1" fill="#e38683" d="M 179.5,94.5 C 177.981,95.4098 176.315,96.2432 174.5,97C 162.699,98.6748 151.032,98.8415 139.5,97.5C 152.999,98.1744 166.332,97.1744 179.5,94.5 Z"/></g>
<g><path style="opacity:1" fill="#db645e" d="M 123.5,95.5 C 128.122,95.1561 132.455,95.8227 136.5,97.5C 131.9,97.7204 127.567,97.0538 123.5,95.5 Z"/></g>
<g><path style="opacity:1" fill="#4d0806" d="M 420.5,147.5 C 420.665,151.182 420.499,154.848 420,158.5C 419.722,159.416 419.222,160.082 418.5,160.5C 418.976,156.007 419.642,151.673 420.5,147.5 Z"/></g>
<g><path style="opacity:1" fill="#ce3934" d="M 86.5,160.5 C 97.4253,162.121 108.425,163.121 119.5,163.5C 108.5,163.5 97.5,163.5 86.5,163.5C 86.5,162.5 86.5,161.5 86.5,160.5 Z"/></g>
<g><path style="opacity:1" fill="#a0a0a0" d="M 63.5,164.5 C 58.3839,165.806 53.0506,166.473 47.5,166.5C 52.5683,164.822 57.9016,164.156 63.5,164.5 Z"/></g>
<g><path style="opacity:1" fill="#be2624" d="M 404.5,160.5 C 404.326,162.861 403.993,165.194 403.5,167.5C 407.5,167.5 411.5,167.5 415.5,167.5C 415.34,165.801 415.506,164.134 416,162.5C 416.333,162.833 416.667,163.167 417,163.5C 417.232,162.263 417.732,161.263 418.5,160.5C 418.44,163.341 417.774,166.007 416.5,168.5C 411.833,168.5 407.167,168.5 402.5,168.5C 402.294,165.505 402.96,162.838 404.5,160.5 Z"/></g>
<g><path style="opacity:1" fill="#4f4f4f" d="M 273.5,172.5 C 216.499,172.333 159.499,172.5 102.5,173C 83.4702,173.285 64.4702,174.118 45.5,175.5C 51.253,173.933 57.253,173.1 63.5,173C 133.659,171.268 203.659,171.101 273.5,172.5 Z"/></g>
<g><path style="opacity:1" fill="#e4e4e4" d="M 79.5,185.5 C 81.1667,185.5 82.8333,185.5 84.5,185.5C 84.1156,188.769 82.7823,191.603 80.5,194C 75.7008,194.782 71.0342,194.282 66.5,192.5C 64.2935,194.514 61.6268,195.514 58.5,195.5C 58.6948,191.804 60.3615,188.971 63.5,187C 67.724,186.195 71.724,186.695 75.5,188.5C 77.9818,188.89 79.3152,187.89 79.5,185.5 Z"/></g>
<g><path style="opacity:1" fill="#f5f5f5" d="M 295.5,207.5 C 287.833,207.5 280.167,207.5 272.5,207.5C 272.5,209.167 272.5,210.833 272.5,212.5C 277.762,212.805 282.928,212.471 288,211.5C 288.667,215.167 288.667,218.833 288,222.5C 287.5,222 287,221.5 286.5,221C 281.845,220.501 277.179,220.334 272.5,220.5C 272.5,222.5 272.5,224.5 272.5,226.5C 276.319,227.166 280.319,227.499 284.5,227.5C 288.893,227.491 292.893,226.824 296.5,225.5C 297.161,227.134 297.494,228.967 297.5,231C 297.453,233.295 296.787,235.129 295.5,236.5C 284.167,235.833 272.833,235.167 261.5,234.5C 262.133,222.414 261.466,210.581 259.5,199C 271.495,198.5 283.495,198.333 295.5,198.5C 296.117,198.389 296.617,198.056 297,197.5C 297.667,201.167 297.667,204.833 297,208.5C 296.617,207.944 296.117,207.611 295.5,207.5 Z"/></g>
<g><path style="opacity:1" fill="#f1f1f1" d="M 373.5,210.5 C 373.918,211.222 374.584,211.722 375.5,212C 382.236,212.385 388.902,213.218 395.5,214.5C 401.577,217.939 403.077,222.939 400,229.5C 397.606,232.91 394.439,235.077 390.5,236C 383.321,236.821 376.321,236.655 369.5,235.5C 367.142,233.871 364.476,232.705 361.5,232C 362.38,230.644 362.714,229.144 362.5,227.5C 362.749,225.064 363.749,223.064 365.5,221.5C 366.324,224.578 368.324,226.245 371.5,226.5C 374.186,227.991 377.186,228.657 380.5,228.5C 382.696,228.495 384.696,228.162 386.5,227.5C 389.966,226.891 390.966,225.058 389.5,222C 384.231,220.894 378.897,220.227 373.5,220C 369.003,219.024 365.337,216.857 362.5,213.5C 362.368,210.43 362.701,207.43 363.5,204.5C 365.612,201.937 368.279,200.104 371.5,199C 381.614,197.923 391.281,198.757 400.5,201.5C 398.833,204.167 397.167,206.833 395.5,209.5C 388.968,205.977 381.968,204.81 374.5,206C 372.534,207.347 372.201,208.847 373.5,210.5 Z"/></g>
<g><path style="opacity:1" fill="#f5f5f5" d="M 446.5,236.5 C 435.167,235.833 423.833,235.167 412.5,234.5C 413.133,222.414 412.466,210.581 410.5,199C 422.5,198.667 434.5,198.333 446.5,198C 447,197.5 447.5,197 448,196.5C 448.667,200.5 448.667,204.5 448,208.5C 439.919,207.518 431.752,207.184 423.5,207.5C 423.5,209.167 423.5,210.833 423.5,212.5C 428.565,212.781 433.565,212.448 438.5,211.5C 439.659,215.122 439.825,218.789 439,222.5C 438.5,222 438,221.5 437.5,221C 432.845,220.501 428.179,220.334 423.5,220.5C 423.5,222.833 423.5,225.167 423.5,227.5C 431.174,227.666 438.841,227.5 446.5,227C 447,226.5 447.5,226 448,225.5C 448.667,229.5 448.667,233.5 448,237.5C 447.617,236.944 447.117,236.611 446.5,236.5 Z"/></g>
<g><path style="opacity:1" fill="#f8f8f8" d="M 80.5,218.5 C 80.56,219.043 80.8933,219.376 81.5,219.5C 82.8174,213.012 82.8174,206.678 81.5,200.5C 81.3893,199.883 81.056,199.383 80.5,199C 84.8333,198.333 89.1667,198.333 93.5,199C 93,199.5 92.5,200 92,200.5C 91.1741,212.008 91.3407,223.341 92.5,234.5C 88.8333,235.833 85.1667,235.833 81.5,234.5C 75.5079,227.175 69.1746,220.175 62.5,213.5C 62.44,212.957 62.1067,212.624 61.5,212.5C 60.1806,219.99 60.1806,227.323 61.5,234.5C 57.8333,235.833 54.1667,235.833 50.5,234.5C 51.1662,228.843 51.4995,223.01 51.5,217C 51.4763,210.757 50.8096,204.757 49.5,199C 55.1667,198.333 60.8333,198.333 66.5,199C 65.4652,200.507 65.6319,202.007 67,203.5C 72.0775,208.072 76.5775,213.072 80.5,218.5 Z"/></g>
<g><path style="opacity:1" fill="#f4f4f4" d="M 147.5,199.5 C 146.752,208.356 146.085,217.356 145.5,226.5C 144.5,230.833 141.833,233.5 137.5,234.5C 130.174,235.79 122.841,235.79 115.5,234.5C 111.877,232.946 109.377,230.279 108,226.5C 107.667,217.833 107.333,209.167 107,200.5C 106.5,200 106,199.5 105.5,199C 110.5,198.333 115.5,198.333 120.5,199C 119.204,202.909 118.537,207.075 118.5,211.5C 118.667,215.5 118.833,219.5 119,223.5C 122.264,227.328 126.431,228.495 131.5,227C 133.333,226.5 134.5,225.333 135,223.5C 135.815,215.254 135.648,207.088 134.5,199C 139.597,198.19 143.931,198.357 147.5,199.5 Z"/></g>
<g><path style="opacity:1" fill="#f8f8f8" d="M 193.5,235.5 C 182.654,235.828 171.987,235.494 161.5,234.5C 162.659,223.341 162.826,212.008 162,200.5C 161.5,200 161,199.5 160.5,199C 171.5,198.333 182.5,198.333 193.5,199C 200.106,201.253 202.273,205.753 200,212.5C 198.786,214.049 197.286,215.215 195.5,216C 202.792,219.915 204.292,225.415 200,232.5C 198.007,233.914 195.84,234.914 193.5,235.5 Z"/></g>
<g><path style="opacity:1" fill="#f5f5f5" d="M 225.5,200.5 C 224.507,209.318 224.173,218.318 224.5,227.5C 233.017,227.826 241.35,227.493 249.5,226.5C 250.117,226.389 250.617,226.056 251,225.5C 251.499,229.152 251.665,232.818 251.5,236.5C 238.735,235.851 226.068,235.185 213.5,234.5C 213.821,222.586 213.488,210.753 212.5,199C 217.167,198.333 221.833,198.333 226.5,199C 225.944,199.383 225.611,199.883 225.5,200.5 Z"/></g>
<g><path style="opacity:1" fill="#f8f8f8" d="M 338.5,218.5 C 338.56,219.043 338.893,219.376 339.5,219.5C 340.817,213.012 340.817,206.678 339.5,200.5C 339.389,199.883 339.056,199.383 338.5,199C 342.833,198.333 347.167,198.333 351.5,199C 349.534,210.581 348.867,222.414 349.5,234.5C 346.167,235.833 342.833,235.833 339.5,234.5C 333.4,227.311 327.067,220.311 320.5,213.5C 320.44,212.957 320.107,212.624 319.5,212.5C 318.181,219.99 318.181,227.323 319.5,234.5C 316.167,235.833 312.833,235.833 309.5,234.5C 309.667,223.162 309.5,211.828 309,200.5C 308.5,200 308,199.5 307.5,199C 313.167,198.333 318.833,198.333 324.5,199C 323.549,199.718 323.383,200.551 324,201.5C 329.044,207.039 333.877,212.706 338.5,218.5 Z"/></g>
<g><path style="opacity:1" fill="#4c4c4c" d="M 295.5,207.5 C 296.117,207.611 296.617,207.944 297,208.5C 297.667,204.833 297.667,201.167 297,197.5C 296.617,198.056 296.117,198.389 295.5,198.5C 295.821,196.952 296.821,196.285 298.5,196.5C 298.5,200.833 298.5,205.167 298.5,209.5C 296.821,209.715 295.821,209.048 295.5,207.5 Z"/></g>
<g><path style="opacity:1" fill="#939393" d="M 81.5,200.5 C 82.8174,206.678 82.8174,213.012 81.5,219.5C 80.8933,219.376 80.56,219.043 80.5,218.5C 81.4896,212.69 81.8229,206.69 81.5,200.5 Z"/></g>
<g><path style="opacity:1" fill="#969696" d="M 339.5,200.5 C 340.817,206.678 340.817,213.012 339.5,219.5C 338.893,219.376 338.56,219.043 338.5,218.5C 339.49,212.69 339.823,206.69 339.5,200.5 Z"/></g>
<g><path style="opacity:1" fill="#707070" d="M 147.5,199.5 C 147.666,207.84 147.5,216.173 147,224.5C 146.722,225.416 146.222,226.082 145.5,226.5C 146.085,217.356 146.752,208.356 147.5,199.5 Z"/></g>
<g><path style="opacity:1" fill="#b9b9b9" d="M 473.5,180.5 C 475.031,188.274 475.698,196.274 475.5,204.5C 475.333,210.167 475.167,215.833 475,221.5C 474.802,223.382 474.302,225.048 473.5,226.5C 474.812,211.168 474.812,195.835 473.5,180.5 Z"/></g>
<g><path style="opacity:1" fill="#0f0f0f" d="M 188.5,206.5 C 189.141,207.482 189.807,208.482 190.5,209.5C 189.807,210.518 189.141,211.518 188.5,212.5C 183.5,212.5 178.5,212.5 173.5,212.5C 173.5,210.5 173.5,208.5 173.5,206.5C 178.5,206.5 183.5,206.5 188.5,206.5 Z"/></g>
<g><path style="opacity:1" fill="#757575" d="M 363.5,204.5 C 362.701,207.43 362.368,210.43 362.5,213.5C 361.366,211.034 361.199,208.367 362,205.5C 362.383,204.944 362.883,204.611 363.5,204.5 Z"/></g>
<g><path style="opacity:1" fill="#afafaf" d="M 373.5,210.5 C 380.183,211.135 386.849,211.968 393.5,213C 394.416,213.278 395.082,213.778 395.5,214.5C 388.902,213.218 382.236,212.385 375.5,212C 374.584,211.722 373.918,211.222 373.5,210.5 Z"/></g>
<g><path style="opacity:1" fill="#c1c1c1" d="M 188.5,206.5 C 183.5,206.5 178.5,206.5 173.5,206.5C 173.5,208.5 173.5,210.5 173.5,212.5C 178.5,212.5 183.5,212.5 188.5,212.5C 183.36,213.488 178.026,213.821 172.5,213.5C 172.5,210.833 172.5,208.167 172.5,205.5C 178.026,205.179 183.36,205.512 188.5,206.5 Z"/></g>
<g><path style="opacity:1" fill="#8b8b8b" d="M 62.5,213.5 C 61.5088,220.313 61.1755,227.313 61.5,234.5C 60.1806,227.323 60.1806,219.99 61.5,212.5C 62.1067,212.624 62.44,212.957 62.5,213.5 Z"/></g>
<g><path style="opacity:1" fill="#949494" d="M 320.5,213.5 C 319.509,220.313 319.175,227.313 319.5,234.5C 318.181,227.323 318.181,219.99 319.5,212.5C 320.107,212.624 320.44,212.957 320.5,213.5 Z"/></g>
<g><path style="opacity:1" fill="#030303" d="M 188.5,220.5 C 190.722,220.559 191.722,221.725 191.5,224C 191.613,225.699 190.947,226.866 189.5,227.5C 184.167,227.5 178.833,227.5 173.5,227.5C 173.5,225.167 173.5,222.833 173.5,220.5C 178.5,220.5 183.5,220.5 188.5,220.5 Z"/></g>
<g><path style="opacity:1" fill="#606060" d="M 225.5,200.5 C 225.5,209.167 225.5,217.833 225.5,226.5C 233.5,226.5 241.5,226.5 249.5,226.5C 241.35,227.493 233.017,227.826 224.5,227.5C 224.173,218.318 224.507,209.318 225.5,200.5 Z"/></g>
<g><path style="opacity:1" fill="#595959" d="M 296.5,225.5 C 292.893,226.824 288.893,227.491 284.5,227.5C 280.319,227.499 276.319,227.166 272.5,226.5C 280.586,226.801 288.586,226.467 296.5,225.5 Z"/></g>
<g><path style="opacity:1" fill="#5d5d5d" d="M 188.5,220.5 C 183.5,220.5 178.5,220.5 173.5,220.5C 173.5,222.833 173.5,225.167 173.5,227.5C 178.833,227.5 184.167,227.5 189.5,227.5C 184.025,228.489 178.358,228.822 172.5,228.5C 172.5,225.5 172.5,222.5 172.5,219.5C 178.026,219.179 183.36,219.512 188.5,220.5 Z"/></g>
<g><path style="opacity:1" fill="#7c7c7c" d="M 371.5,226.5 C 376.463,227.254 381.463,227.587 386.5,227.5C 384.696,228.162 382.696,228.495 380.5,228.5C 377.186,228.657 374.186,227.991 371.5,226.5 Z"/></g>
<g><path style="opacity:1" fill="#4b4b4b" d="M 296.5,225.5 C 296.56,224.957 296.893,224.624 297.5,224.5C 298.492,228.783 298.826,233.116 298.5,237.5C 297.209,237.737 296.209,237.404 295.5,236.5C 296.787,235.129 297.453,233.295 297.5,231C 297.494,228.967 297.161,227.134 296.5,225.5 Z"/></g>
<g><path style="opacity:1" fill="#ababab" d="M 362.5,227.5 C 362.714,229.144 362.38,230.644 361.5,232C 364.476,232.705 367.142,233.871 369.5,235.5C 366.951,235.613 364.618,234.946 362.5,233.5C 361.914,233.709 361.414,234.043 361,234.5C 360.412,231.861 360.912,229.527 362.5,227.5 Z"/></g>
<g><path style="opacity:1" fill="#9f9f9f" d="M 50.5,234.5 C 54.1667,235.833 57.8333,235.833 61.5,234.5C 62.0431,234.56 62.3764,234.893 62.5,235.5C 58.1667,236.833 53.8333,236.833 49.5,235.5C 49.6236,234.893 49.9569,234.56 50.5,234.5 Z"/></g>
<g><path style="opacity:1" fill="#9f9f9f" d="M 81.5,234.5 C 85.1667,235.833 88.8333,235.833 92.5,234.5C 93.0431,234.56 93.3764,234.893 93.5,235.5C 89.1667,236.833 84.8333,236.833 80.5,235.5C 80.6236,234.893 80.9569,234.56 81.5,234.5 Z"/></g>
<g><path style="opacity:1" fill="#949494" d="M 115.5,234.5 C 122.841,235.79 130.174,235.79 137.5,234.5C 137.082,235.222 136.416,235.722 135.5,236C 129.5,236.667 123.5,236.667 117.5,236C 116.584,235.722 115.918,235.222 115.5,234.5 Z"/></g>
<g><path style="opacity:1" fill="#9b9b9b" d="M 161.5,234.5 C 171.987,235.494 182.654,235.828 193.5,235.5C 182.66,236.824 171.66,236.824 160.5,235.5C 160.624,234.893 160.957,234.56 161.5,234.5 Z"/></g>
<g><path style="opacity:1" fill="#9f9f9f" d="M 213.5,234.5 C 226.068,235.185 238.735,235.851 251.5,236.5C 244.912,236.883 238.079,236.883 231,236.5C 224.833,236.167 218.667,235.833 212.5,235.5C 212.624,234.893 212.957,234.56 213.5,234.5 Z"/></g>
<g><path style="opacity:1" fill="#9f9f9f" d="M 261.5,234.5 C 272.833,235.167 284.167,235.833 295.5,236.5C 283.482,236.832 271.482,236.499 259.5,235.5C 259.957,234.702 260.624,234.369 261.5,234.5 Z"/></g>
<g><path style="opacity:1" fill="#a3a3a3" d="M 309.5,234.5 C 312.833,235.833 316.167,235.833 319.5,234.5C 320.043,234.56 320.376,234.893 320.5,235.5C 316.167,236.833 311.833,236.833 307.5,235.5C 307.957,234.702 308.624,234.369 309.5,234.5 Z"/></g>
<g><path style="opacity:1" fill="#a0a0a0" d="M 339.5,234.5 C 342.833,235.833 346.167,235.833 349.5,234.5C 350.376,234.369 351.043,234.702 351.5,235.5C 347.167,236.833 342.833,236.833 338.5,235.5C 338.624,234.893 338.957,234.56 339.5,234.5 Z"/></g>
<g><path style="opacity:1" fill="#a0a0a0" d="M 412.5,234.5 C 423.833,235.167 435.167,235.833 446.5,236.5C 434.482,236.832 422.482,236.499 410.5,235.5C 410.957,234.702 411.624,234.369 412.5,234.5 Z"/></g>
<g><path style="opacity:1" fill="#d19293" d="M 159.5,268.5 C 159.5,268.833 159.5,269.167 159.5,269.5C 144.657,269.171 129.99,269.504 115.5,270.5C 115.167,270.5 114.833,270.5 114.5,270.5C 129.129,268.516 144.129,267.85 159.5,268.5 Z"/></g>
<g><path style="opacity:1" fill="#c70402" d="M 88.5,268.5 C 94.5092,268.334 100.509,268.501 106.5,269C 108.249,271.663 109.582,274.497 110.5,277.5C 126.308,308.463 145.475,337.13 168,363.5C 174.567,370.311 180.9,377.311 187,384.5C 196.47,392.969 205.637,401.803 214.5,411C 223.412,418.413 232.746,425.246 242.5,431.5C 295.858,397.641 337.692,352.975 368,297.5C 371.793,288.571 375.626,279.571 379.5,270.5C 385.128,269.505 390.794,269.171 396.5,269.5C 382.58,308.927 362.08,344.594 335,376.5C 309.215,406.628 280.049,432.794 247.5,455C 244.167,457 240.833,457 237.5,455C 210.331,433.496 185.498,409.662 163,383.5C 135.584,350.992 111.918,315.992 92,278.5C 90.4893,275.204 89.3226,271.871 88.5,268.5 Z"/></g>
<g><path style="opacity:1" fill="#b92728" d="M 223.5,269.5 C 272.833,269.5 322.167,269.5 371.5,269.5C 371.737,270.791 371.404,271.791 370.5,272.5C 321.675,270.835 272.675,269.835 223.5,269.5 Z"/></g>
<g><path style="opacity:1" fill="#c90100" d="M 159.5,269.5 C 180.833,269.5 202.167,269.5 223.5,269.5C 272.675,269.835 321.675,270.835 370.5,272.5C 343.396,335.618 300.729,385.618 242.5,422.5C 233.383,415.892 224.383,409.058 215.5,402C 183.503,372.072 155.67,338.906 132,302.5C 125.708,292.25 120.208,281.583 115.5,270.5C 129.99,269.504 144.657,269.171 159.5,269.5 Z"/></g>
<g><path style="opacity:1" fill="#9a9a9a" d="M 82.5,276.5 C 83.404,277.209 83.7373,278.209 83.5,279.5C 78.6879,280.678 74.0213,280.678 69.5,279.5C 72.8499,279.665 76.1832,279.498 79.5,279C 81.1193,278.764 82.1193,277.931 82.5,276.5 Z"/></g>
<g><path style="opacity:1" fill="#f6f1f0" d="M 428.5,268.5 C 418.013,269.494 407.346,269.828 396.5,269.5C 390.794,269.171 385.128,269.505 379.5,270.5C 375.626,279.571 371.793,288.571 368,297.5C 337.692,352.975 295.858,397.641 242.5,431.5C 232.746,425.246 223.412,418.413 214.5,411C 205.637,401.803 196.47,392.969 187,384.5C 180.9,377.311 174.567,370.311 168,363.5C 145.475,337.13 126.308,308.463 110.5,277.5C 113.083,276.015 114.416,273.682 114.5,270.5C 114.833,270.5 115.167,270.5 115.5,270.5C 120.208,281.583 125.708,292.25 132,302.5C 155.67,338.906 183.503,372.072 215.5,402C 224.383,409.058 233.383,415.892 242.5,422.5C 300.729,385.618 343.396,335.618 370.5,272.5C 371.404,271.791 371.737,270.791 371.5,269.5C 322.167,269.5 272.833,269.5 223.5,269.5C 202.167,269.5 180.833,269.5 159.5,269.5C 159.5,269.167 159.5,268.833 159.5,268.5C 231.646,269.159 303.646,268.492 375.5,266.5C 376.298,268.078 376.798,269.744 377,271.5C 377.692,270.975 378.192,270.308 378.5,269.5C 395.153,268.501 411.82,268.167 428.5,268.5 Z"/></g>
</svg>
